<svg width="192" height="120" viewBox="0 0 192 120" fill="none" xmlns="http://www.w3.org/2000/svg">
<path d="M25.6677 35.8125H29.921L31.6811 36.1058L33.4411 36.8392L34.7611 37.8659L36.0811 39.0392L36.3745 39.1859L36.5211 37.4259L37.2545 36.3992L37.9878 35.9592H39.7478L40.6278 36.5458L41.3612 37.5725L41.5079 38.0125V64.9995L41.2145 67.6396L40.4812 69.3996L39.1612 71.0129L37.2545 72.6263L35.7878 73.653L34.3211 74.3863L33.4411 74.6796L32.4144 74.8263H22.001L20.6809 74.533L19.8009 73.9463L19.3609 73.5063L19.2143 73.0663V71.5996L19.6543 70.7196L20.5343 69.9862L21.1209 69.8396L32.2677 69.6929L33.2944 69.2529L34.6144 68.2262L35.2011 67.9329V67.6396H35.4944L35.7878 67.0529L36.2278 66.3195V61.0395L35.2011 61.9195L34.0278 62.9462L32.2677 63.8262L31.3877 64.1195L30.2144 64.2662H26.6943L24.201 64.1195L22.5876 63.5328L20.5343 62.2128L18.9209 60.8928L17.8942 59.7195L17.0142 57.9594L16.7209 56.9328L16.5742 55.7594V44.7593L16.8676 42.7059L17.6009 40.9459L18.7742 39.3325L20.2409 38.1592L22.441 36.6925L23.9076 36.1058L25.6677 35.8125Z" fill="#1B191B"/>
<path d="M131.122 35.8125H136.255L138.309 36.1058L139.775 36.6925L141.535 37.8659L143.002 39.0392L144.469 40.5059L145.642 42.5592L146.082 44.9059V51.506L145.642 52.6794L144.762 53.4127L143.882 53.7061L126.282 53.8527V55.4661L126.722 56.3461L126.869 56.7861L127.455 57.0794L128.775 58.2528L129.802 58.9861L130.242 59.1328L144.322 59.2795L145.349 59.8661L146.082 61.3328L145.935 62.6528L145.202 63.6795L144.322 64.1195L143.002 64.2662H130.682L128.629 63.9728L126.575 62.9462L125.108 61.7728L123.642 60.4528L122.468 59.2795L121.588 57.5194L121.148 55.6127V45.3459L121.442 43.1459L122.175 41.3859L122.762 40.5059L124.375 38.8925L126.135 37.5725L127.749 36.5458L129.655 35.9592L131.122 35.8125Z" fill="#1B191B"/>
<path d="M52.3606 5.45215H53.3873L52.9473 6.03882L50.6006 12.4922L46.0539 13.9589L41.9472 15.5723L37.6938 17.479L33.8804 19.239L30.6537 20.999L27.427 22.9057L24.9336 24.519L22.0003 26.5724L20.0936 28.0391L18.3336 29.6524L17.1602 30.6791L14.3735 33.4658L13.3468 34.6392L11.8801 36.5459L10.4135 38.7459L9.09344 40.9459L7.77343 43.4393L6.89342 45.786L6.01341 49.1593L5.5734 52.0927V56.9328L6.16007 60.4528L7.04009 63.3862L8.3601 66.4662L9.68012 68.8129L11.1468 71.0129L12.6135 72.9196L13.6402 74.093L13.7868 74.8263L13.0535 74.3863L12.0268 73.213L10.5601 71.7463L9.38678 70.2796L8.21343 68.9596L7.48009 68.2262L6.45341 67.0529L4.69339 64.5595L3.37337 62.3595L1.76002 58.9861L0.733342 55.7594L0.146668 53.1194L0 51.946V46.666L0.440005 43.8793L1.46668 40.2126L3.22671 36.2525L4.69339 33.7592L6.45341 31.2658L8.3601 28.9191L10.4135 26.7191L11.8801 25.2524L13.4935 23.9324L15.5469 22.1724L17.1602 20.999L17.8936 20.4123L18.6269 19.9723L20.0936 18.9456L20.6803 18.799V18.5056L22.5869 17.3323L24.347 16.3056L25.9603 15.4256L29.9204 13.3722L33.4404 11.7589L36.2271 10.5855L41.3605 8.67885L45.0272 7.50551L48.9873 6.33216L52.3606 5.45215Z" fill="url(#paint0_linear_2257_1062)"/>
<path d="M158.988 25.3989H160.895L161.775 26.1323L162.362 27.4523V47.2525L162.215 47.8392L162.948 47.3992L164.708 45.7858L165.882 44.7592L167.788 43.1458L169.842 41.3858L171.455 40.0658L173.069 38.5991L174.682 37.2791L175.855 36.2524L176.735 35.8124H177.762L178.789 36.2524L179.522 36.9857L179.815 37.7191V38.7458L179.375 39.7724L178.642 40.6524L177.029 41.9725L174.975 43.7325L173.215 45.3458L171.602 46.6659L170.282 47.8392L168.962 48.8659L169.108 49.4526L171.015 50.9192L173.069 52.6793L175.269 54.5859L176.882 55.906L179.082 57.8127L180.695 59.1327L181.722 60.1593L182.309 61.3327L182.162 62.506L181.722 63.2394L180.989 63.9727L179.082 64.1194L177.762 63.3861L175.709 61.626L174.242 60.306L172.629 58.986L170.575 57.226L168.962 55.906L167.788 54.8793L166.175 53.5593L165.002 52.5326L164.415 52.8259L162.802 53.9993L162.508 54.5859L162.362 62.2127L161.922 63.2394L161.188 63.8261L160.602 64.1194H158.988L158.108 63.5327L157.522 62.6527L157.375 61.9194V27.599L157.668 26.7189L158.255 25.8389L158.988 25.3989Z" fill="#1B191B"/>
<path d="M94.3092 27.4521H95.6293L96.5093 27.8922L97.2426 28.7722L97.536 29.3588V35.8123H106.629L108.243 35.9589L109.123 36.3989L109.856 37.4256L110.003 37.8656V38.8923L109.563 39.919L108.683 40.6523L107.509 40.9456L97.6826 41.0923V57.5192L98.2693 58.3992L99.0026 58.9859L99.5893 59.1325H104.869L106.189 58.9859L107.069 57.9592L108.243 55.6125L108.976 55.0258L110.003 54.8791L111.176 55.1725L112.203 56.3458L112.349 56.9325L112.203 58.8392L111.616 60.3059L110.296 62.0659L108.683 63.2393L107.509 63.8259L105.456 64.2659H99.5893L97.8293 63.9726L96.5093 63.3859L94.8959 62.3592L93.4292 60.5992L92.6959 58.9859L92.5492 58.2525L92.4026 40.9456H89.6159L88.2958 40.359L87.7092 39.6256L87.5625 39.3323V37.5723L88.1492 36.6923L89.3225 35.9589L90.3492 35.8123H92.4026L92.5492 29.0655L93.1359 28.0388L94.3092 27.4521Z" fill="#1B191B"/>
<path d="M52.3616 5.59856C72.8379 0.745557 83.8859 -0.175439 103.109 0.0251611L111.176 0.465166L118.802 1.19851L124.082 1.93185L130.536 3.1052L136.549 4.42521L141.389 5.74523L145.496 6.91858L152.389 9.26527L156.79 11.0253L160.603 12.7853L162.95 13.9587L165.443 15.2787L169.403 17.6254L172.923 19.9721L175.71 21.8788V22.1721H176.003L176.15 22.4654L176.736 22.7588L176.883 23.0521L177.763 23.4921L178.496 24.2255L179.376 24.9588L180.403 26.1321L181.576 27.3055L181.43 27.5988L179.963 26.2788L178.496 25.3988L176.443 23.9321L172.336 21.5854L168.816 19.6787L165.003 17.772L160.163 15.7187L151.216 12.492L145.056 10.732L141.536 9.85195L135.523 8.53193L130.243 7.50525L123.349 6.47857L117.922 5.8919L114.402 5.59856L109.269 5.30523C85.0256 4.25906 72.016 5.27811 50.6016 12.492L52.3616 5.59856Z" fill="url(#paint1_linear_2257_1062)"/>
<path d="M29.1854 40.7988L30.652 41.0922L32.2654 42.2655L34.1721 43.8789L35.7854 45.1989L36.5188 46.2256V53.7057L36.0788 54.7323L34.4654 56.199L32.4121 57.8124L30.9454 58.9857L30.0654 59.2791H25.5186L24.052 58.5457L22.4386 57.2257L21.7053 56.3457L21.5586 55.759V51.0656L21.7053 43.8789L22.1453 43.1455L23.7586 41.8255L24.932 41.0922L25.2253 40.9455L29.1854 40.7988Z" fill="#FDFBFB"/>
<path d="M55.0026 83.0396H78.4695L79.6429 83.4796L80.2295 84.6529L80.5229 85.8263V88.0263L80.2295 89.1996L79.6429 90.0796L78.1762 90.813L75.6828 90.9596H65.1227L55.0026 90.813L53.8292 90.0796L53.0959 89.1996L52.9492 88.7596V85.2396L53.5359 83.9196L54.2692 83.3329L55.0026 83.0396Z" fill="#F19A85"/>
<path d="M63.7995 97.7065H86.8264L88.1464 98.1465L89.0264 99.4666L89.1731 100.053V102.987L88.7331 104.307L87.8531 105.04L86.5331 105.48H63.9461L62.7728 104.893L61.8928 103.573L61.7461 102.987V100.2L62.0394 99.1732L63.2128 97.8532L63.7995 97.7065Z" fill="#40C6F5"/>
<path d="M56.4682 45.7856H76.5617L77.7351 46.2256L78.4684 47.1057L78.7618 47.839V50.7724L78.3218 51.7991L77.7351 52.5324L76.4151 52.9724H56.1748L54.8548 52.5324L53.9748 51.5057L53.8281 50.919V47.839L54.4148 46.6657L55.2948 45.9323L56.4682 45.7856Z" fill="#1B191B"/>
<path d="M130.977 40.7988H136.55L137.724 41.2388L139.19 42.4122L140.657 43.7322L141.097 44.6122V48.5723L140.804 48.7189H127.163L126.137 48.4256V44.6122L126.723 43.5855L128.483 41.9722L129.657 41.0922L130.977 40.7988Z" fill="#FDFBFB"/>
<path d="M98.5626 99.6133H100.469L101.936 100.347L102.963 101.813L103.256 102.547L103.403 104.453L103.109 106.213L102.229 107.68L101.056 108.56L100.029 108.853H98.856L97.536 108.267L96.5093 107.24H96.3626V111.64L96.2159 111.787H95.3359V99.9066L96.0693 99.7599L96.2159 99.9066V101.08L97.8293 99.9066L98.5626 99.6133Z" fill="#FCFBFA"/>
<path d="M90.3459 79.373L91.0792 79.5197L91.2259 79.6664V84.2131L92.5459 83.0398L93.4259 82.5998H95.3326L96.506 83.1864L97.5326 84.3598L98.1193 85.6798L98.266 87.8798L97.9726 89.3465L97.0926 90.6665L95.9193 91.5465L95.0393 91.8399H93.5726L92.1059 91.1065L91.2259 90.2265L91.0792 91.3999L90.9326 91.5465H90.1992V81.5731L90.3459 79.373Z" fill="#FDFAFA"/>
<path d="M140.656 79.5195H141.83V84.2129L143.003 83.0396L143.883 82.5996H145.936L147.11 83.1862L147.99 84.2129L148.576 85.5329L148.723 86.2663V88.3196L148.283 89.7863L147.11 91.1063L145.936 91.693L145.35 91.8397H144.176L142.856 91.253L141.83 90.2263L141.536 90.0797V91.5463H140.656V79.5195Z" fill="#FDFBFA"/>
<path d="M128.188 99.6133H130.094L131.414 100.2L132.588 101.52L133.174 103.133V105.187L132.588 106.8L131.561 107.973L130.681 108.56L129.654 108.853H128.481L126.868 108.267L126.134 107.533L125.548 106.8L125.108 105.92L124.961 105.187V103.28L125.548 101.52L126.721 100.2L128.188 99.6133Z" fill="#FDFBFA"/>
<path d="M157.669 99.6133H160.309L161.483 100.2L162.069 101.08L162.216 101.52L162.363 107.093L163.243 108.12L163.096 108.56H161.923L161.629 108.413L161.483 107.093L160.749 107.827L159.282 108.707L158.696 108.853H157.522L156.056 108.267L155.469 107.533L155.176 106.947V105.48L155.762 104.453L156.789 103.867L160.456 103.28L161.189 102.987L161.336 102.547L161.043 101.227L160.309 100.64L159.429 100.493H158.256L157.082 101.08L156.349 102.547L155.616 102.4L155.762 101.373L156.349 100.493L157.082 99.9066L157.669 99.6133Z" fill="#1B191B"/>
<path d="M186.121 99.6133H188.321L189.494 100.347L190.374 101.373L190.961 102.84L191.108 104.307L190.374 104.453H184.214L184.654 106.213L185.241 107.093L186.121 107.68L186.561 107.827H188.028L188.908 107.387L189.348 107.24L189.641 106.507L190.081 105.773L190.814 105.627V106.507L189.934 107.827L188.761 108.56L187.734 108.853H186.708L185.241 108.413L184.214 107.533L183.481 106.213L183.188 104.747V103.427L183.628 101.96L184.508 100.64L185.681 99.7599L186.121 99.6133Z" fill="#1B191B"/>
<path d="M107.947 99.6133H110L111.467 100.347L112.347 101.667L112.934 103.573L112.787 104.307L112.347 104.453H106.04L106.48 106.213L107.36 107.387L108.24 107.827H109.854L111.027 107.24L112.054 105.627L112.787 105.773L112.64 106.653L111.614 107.973L110.147 108.707L109.707 108.853H108.387L106.627 108.12L105.747 107.093L105.16 105.627V102.84L105.747 101.373L106.92 100.053L107.947 99.6133Z" fill="#1B191B"/>
<path d="M123.054 82.5996H125.108L125.988 83.0396L127.015 84.0663L127.601 85.2396L127.895 86.5597V87.293L127.455 87.4397L121.148 87.5863L121.441 89.1997L122.028 90.2264L122.761 90.6664L123.348 90.813H124.814L125.694 90.373L126.868 89.053L127.308 88.4663H127.748V89.3464L126.868 90.6664L125.988 91.3997L124.668 91.8397H123.201L121.881 91.253L121.148 90.6664L120.268 88.9064L120.121 88.3197V85.973L120.708 84.5063L121.588 83.333L123.054 82.5996Z" fill="#1B191B"/>
<path d="M102.814 82.5996H104.867L106.041 83.1863L107.067 84.3596L107.507 85.2396L107.654 85.973V87.293L107.361 87.4397H100.907L101.347 89.1997L101.934 90.0797L102.814 90.6664L103.254 90.813H104.574L105.601 90.373L106.481 89.3464L107.067 88.613H107.507V89.493L106.627 90.813L105.894 91.3997L104.427 91.8397H103.107L101.641 91.253L100.614 90.0797L100.027 88.4663V85.8263L100.614 84.3596L101.787 83.0396L102.814 82.5996Z" fill="#1B191B"/>
<path d="M143.736 99.6133H145.936L146.669 100.053L147.109 100.787L147.696 100.64L148.869 99.7599L149.309 99.6133H151.216L152.389 100.2L152.976 101.373L153.123 101.96V108.56L152.976 108.707H152.243L152.096 108.56L151.949 101.667L151.656 100.787L150.483 100.493L149.163 100.64L148.283 101.227L147.696 102.4L147.549 108.56H146.669L146.523 102.107L146.083 100.933L145.349 100.493H144.176L143.296 100.933L142.269 102.107L142.123 102.547L141.976 108.56H140.949L141.096 99.9066L141.829 99.7599L141.976 100.347V101.227L142.563 100.493L143.736 99.6133Z" fill="#1B191B"/>
<rect x="70.6211" y="117.653" width="120.855" height="2.3467" rx="1.17335" fill="url(#paint2_linear_2257_1062)"/>
<path d="M98.5626 99.6133H100.469L101.936 100.347L102.963 101.813L103.256 102.547L103.403 104.453L103.109 106.213L102.229 107.68L101.056 108.56L100.029 108.853H98.856L97.536 108.267L96.5093 107.24H96.3626V111.64L96.2159 111.787H95.3359V99.9066L96.0693 99.7599L96.2159 99.9066V101.08L97.8293 99.9066L98.5626 99.6133ZM99.0026 100.347L97.976 100.64L96.9493 101.52L96.3626 102.84V105.48L96.9493 106.653L97.536 107.387L99.0026 108.12L100.176 107.973L101.056 107.533L102.083 106.36L102.376 105.333V102.987L101.789 101.52L100.763 100.64L99.5893 100.347H99.0026Z" fill="#1B191B"/>
<path d="M90.3459 79.373L91.0792 79.5197L91.2259 79.6664V84.2131L92.5459 83.0398L93.4259 82.5998H95.3326L96.506 83.1864L97.5326 84.3598L98.1193 85.6798L98.266 87.8798L97.9726 89.3465L97.0926 90.6665L95.9193 91.5465L95.0393 91.8399H93.5726L92.1059 91.1065L91.2259 90.2265L91.0792 91.3999L90.9326 91.5465H90.1992V81.5731L90.3459 79.373ZM93.7193 83.3331L92.5459 83.9198L91.5192 85.0931L91.2259 85.6798L91.0792 86.5598V87.8798L91.5192 89.3465L92.5459 90.5198L93.5726 90.9599H95.0393L95.9193 90.5198L96.946 89.3465L97.2393 88.3198V86.1198L96.7993 84.7998L95.9193 83.7731L94.8926 83.3331H93.7193Z" fill="#1B191B"/>
<path d="M140.656 79.5195H141.83V84.2129L143.003 83.0396L143.883 82.5996H145.936L147.11 83.1862L147.99 84.2129L148.576 85.5329L148.723 86.2663V88.3196L148.283 89.7863L147.11 91.1063L145.936 91.693L145.35 91.8397H144.176L142.856 91.253L141.83 90.2263L141.536 90.0797V91.5463H140.656V79.5195ZM144.323 83.3329L142.856 84.0663L141.976 85.2396L141.683 86.1196V88.173L142.27 89.6397L143.296 90.6663L144.03 90.9597H145.496L146.67 90.373L147.256 89.6397L147.696 88.7596L147.843 88.0263V86.5596L147.55 85.2396L146.816 84.0663L145.79 83.4796L144.323 83.3329Z" fill="#1B191B"/>
<path d="M128.188 99.6133H130.094L131.414 100.2L132.588 101.52L133.174 103.133V105.187L132.588 106.8L131.561 107.973L130.681 108.56L129.654 108.853H128.481L126.868 108.267L126.134 107.533L125.548 106.8L125.108 105.92L124.961 105.187V103.28L125.548 101.52L126.721 100.2L128.188 99.6133ZM128.774 100.347L127.454 100.787L126.428 101.96L125.988 102.987V105.333L126.574 106.653L127.161 107.387L128.188 107.973H129.801L130.828 107.533L131.708 106.507L132.148 105.333V102.987L131.561 101.667L130.388 100.64L129.654 100.347H128.774Z" fill="#1B191B"/>
<path d="M167.936 99.6133H169.842L171.016 100.2L171.602 100.933L171.896 101.813V108.56L171.162 108.707L171.016 108.56L170.869 102.253L170.429 101.08L169.696 100.64L168.229 100.493L166.762 101.227L166.029 102.4L165.882 103.72V108.56L165.735 108.707H164.855V100.053L165.002 99.9066H165.882V101.08L167.202 99.9066L167.936 99.6133Z" fill="#1B191B"/>
<path d="M177.027 99.6133H179.227L180.4 100.2L181.281 101.373L181.574 102.107L181.427 102.693L180.694 102.4L179.96 101.227V100.933L178.64 100.493H177.614L176.147 101.227L175.56 101.96L175.12 103.133V105.187L175.707 106.507L176.44 107.387L177.32 107.827L178.054 107.973L179.374 107.533L180.107 106.8L180.987 105.48H181.721L181.427 106.8L180.4 108.12L179.227 108.707L178.64 108.853H177.467L176 108.267L174.974 107.387L174.387 106.507L174.094 105.627V102.84L174.68 101.373L175.707 100.2L177.027 99.6133Z" fill="#1B191B"/>
<path d="M150.043 82.7461H150.776L151.216 83.1861L152.683 87.1461L153.71 89.7862L153.856 90.0795L154.443 88.9062L155.47 85.9728L156.643 82.8928L157.523 82.7461L157.376 83.7728L155.763 88.0262L154.296 91.8395L153.71 93.4529L152.976 94.4796L152.39 94.7729H151.07L150.63 94.3329L150.776 93.8929L152.096 93.7462L152.83 93.0129L153.27 91.8395L153.123 90.8129L151.51 86.8528L150.043 82.8928V82.7461Z" fill="#1B191B"/>
<path d="M161.041 103.867H161.335L161.481 104.453L161.335 105.92L160.748 106.8L159.721 107.68L158.988 107.973H157.375L156.348 107.24L156.055 106.653L156.201 105.627L156.788 104.893L158.108 104.453L161.041 103.867Z" fill="#FCF8F7"/>
<path d="M123.493 83.333L124.96 83.4797L125.84 84.0664L126.72 85.093L127.013 85.973V86.5597L125.987 86.7064H121.147L121 85.973L121.88 84.3597L122.76 83.6263L123.493 83.333Z" fill="#FBF5F4"/>
<path d="M116.309 80.106H116.749L116.896 82.746L118.509 82.8927V83.626L116.896 83.7727L116.749 90.6661L118.509 90.8128L118.656 91.1061L118.509 91.5461L118.216 91.6928L116.456 91.5461L115.869 90.9594L115.723 90.5194L115.576 83.7727L114.256 83.626L114.109 82.8927H115.723V80.2526L116.309 80.106Z" fill="#1B191B"/>
<path d="M122.468 96.5332H123.935L124.375 97.1199L124.228 97.2665L122.761 97.4132L122.321 97.7066L122.175 99.6132L122.321 99.7599L123.935 99.9066V100.64H122.175V106.213L122.028 108.56H121.148L121.001 100.787H119.975L119.828 100.64V99.9066L120.268 99.7599H121.001L121.148 97.9999L121.588 97.1199L122.468 96.5332Z" fill="#1B191B"/>
<path d="M186.71 100.346H187.737L188.91 100.933L189.644 101.813L190.23 103.28V103.573L189.497 103.72H184.217L184.07 103.28L184.95 101.52L185.977 100.64L186.71 100.346Z" fill="#FAF7F7"/>
<path d="M103.4 83.333H104.426L105.453 83.773L106.48 84.9464L106.92 86.1197V86.5597L105.013 86.7064H101.2L100.906 86.5597L101.053 85.3864L101.933 84.213L102.666 83.6263L103.4 83.333Z" fill="#FCF9F8"/>
<path d="M108.096 100.493H110.003L110.883 101.08L111.47 101.813L111.91 102.987V103.573L111.47 103.72H106.19L106.043 102.987L106.776 101.52L107.803 100.64L108.096 100.493Z" fill="#FCF8F7"/>
<path d="M110.293 80.2529H111.173L111.32 80.6929L111.173 82.7463L113.08 82.893L113.226 83.6263L111.466 83.773L111.32 83.9196V90.6664L112.933 90.8131L113.226 90.9597V91.5464L111.76 91.6931L110.733 91.3997L110.293 90.6664L110.146 83.9196L110 83.773L108.826 83.6263L108.68 82.893L110 82.7463L110.146 82.5996L110.293 80.2529Z" fill="#1B191B"/>
<path d="M135.373 99.7598L135.96 99.9064L136.107 100.053V101.226L135.96 101.52L136.693 101.08L137.867 100.053L138.6 99.7598H139.627L139.48 100.493L138.013 101.08L136.84 102.106L136.4 102.84L136.253 108.56L135.52 108.707L135.227 108.56V99.9064L135.373 99.7598Z" fill="#1B191B"/>
<path d="M129.947 82.7461H130.681L130.827 83.1861L130.681 84.5061L131.707 83.6261L132.734 82.8928L133.907 82.7461L134.201 83.3328L132.881 83.9194L131.707 84.6528L130.974 85.5328L130.827 86.5595V91.5462H129.801V83.1861L129.947 82.7461Z" fill="#1B191B"/>
<path d="M114.989 99.7598L115.575 99.9064L115.722 100.493V101.52L117.042 100.2L118.069 99.7598H119.095V100.64L117.775 100.933L116.455 101.96L115.869 103.133L115.722 108.56L114.989 108.707L114.695 108.413V100.2L114.989 99.7598Z" fill="#1B191B"/>
<path d="M126.137 45.4922H126.283L126.43 48.1322L126.87 48.2789L139.924 48.4256L140.804 48.5722V48.7189H127.163L126.137 48.4256V45.4922Z" fill="#F4C0B1"/>
<path d="M179.082 25.1055L179.669 25.3988L181.575 27.3055L181.429 27.5988L179.962 26.2788L179.375 25.6921L179.082 25.1055Z" fill="#1B191B"/>
<path d="M183.774 22.4653L183.92 22.9053L183.774 25.1054L183.627 25.8387H183.48V22.7587L183.774 22.4653Z" fill="#8A625A"/>
<path d="M187.294 22.7588L187.588 22.9055L187.148 24.2255L186.414 25.5455H186.121L186.414 24.9588L187.001 23.6388L187.294 22.7588Z" fill="#3B2C2B"/>
<defs>
<linearGradient id="paint0_linear_2257_1062" x1="13.3468" y1="56.7861" x2="53.2926" y2="5.45215" gradientUnits="userSpaceOnUse">
<stop stop-color="#45AAD7"/>
<stop offset="1" stop-color="white"/>
</linearGradient>
<linearGradient id="paint1_linear_2257_1062" x1="50.6016" y1="13.7994" x2="181.576" y2="13.7994" gradientUnits="userSpaceOnUse">
<stop stop-color="white"/>
<stop offset="1" stop-color="#CD4031"/>
</linearGradient>
<linearGradient id="paint2_linear_2257_1062" x1="70.6211" y1="118.827" x2="191.476" y2="118.827" gradientUnits="userSpaceOnUse">
<stop stop-color="#45AAD7"/>
<stop offset="0.495192" stop-color="white"/>
<stop offset="0.985577" stop-color="#D25547"/>
</linearGradient>
</defs>
</svg>
