<svg width="145" height="100" viewBox="0 0 145 100" fill="none" xmlns="http://www.w3.org/2000/svg">
<path d="M59.8883 0H65.538L66.3855 0.847458V24.0113L63.8431 25.7062L56.7809 29.661L54.2386 31.0734L53.9561 31.6384V50.2825L54.2386 52.8249L57.0634 54.8023L62.1482 57.6271L71.7527 63.2768L73.7301 62.9944L85.5945 56.2147L90.9617 53.1073V31.3559L88.1369 29.661L81.0747 25.7062L78.8148 24.0113L78.5324 22.8814L78.8148 0.282486L80.7922 0H84.1821L87.0069 0.282486V2.82486L86.7244 3.10734L84.4646 3.38983H81.9222V21.7514L83.0521 22.8814L90.3968 27.1186L92.3742 28.2486L93.7866 27.9661L98.5889 25.4237H100.284L100.849 26.8362L99.7188 28.2486L96.0465 30.5085L94.634 31.3559V52.5424L95.764 53.6723L100.001 56.2147L100.849 57.0621L100.566 58.1921L99.7188 59.0395L98.0239 58.7571L93.5041 56.2147L91.5267 56.4972L86.7244 59.322L80.7922 62.7119L74.5776 66.3842L74.2951 66.6667L74.0126 73.4463L73.4476 74.5763L71.4702 74.2938L70.9052 73.1638V66.3842L69.4928 65.8192L62.7131 61.8644L55.3685 57.6271L52.2612 55.9322L46.0465 59.0395L44.9165 58.7571L44.3516 57.0621L46.0465 55.6497L50.5663 52.8249V32.7684L50.2838 30.791L48.5889 30.226L44.9165 27.9661L44.3516 26.2712L44.9165 25.4237H46.6114L51.6962 28.2486L53.3911 27.9661L61.0182 23.4463L62.7131 22.5989H63.2781V17.7966L62.9956 3.38983L58.4759 3.10734L57.9109 1.9774L58.1934 0.282486L59.8883 0Z" fill="#C61C2E"/>
<path d="M27.1168 84.1807H29.6592L32.4841 85.0281L34.744 87.0055L35.8739 88.418L36.7214 90.9603V93.5027L35.8739 96.0451L33.614 98.5874L31.3541 99.7174L29.9417 99.9999H26.5519L24.0095 99.1524L21.4671 96.8925L20.3372 94.6326L20.0547 93.5027V91.2428L20.9021 88.418L22.5971 86.1581L24.8569 84.7456L27.1168 84.1807Z" fill="#181113"/>
<path d="M131.355 84.4634H140.678L142.937 85.5933L144.067 87.0058V89.8306L142.937 91.5255L143.22 92.373L144.632 93.7854L144.915 94.6329V96.6103L144.067 98.3052L142.09 99.4351L140.678 99.7176H131.638L131.355 98.8702V84.4634Z" fill="#181113"/>
<path d="M0.564972 84.1807L1.9774 84.4631L3.10734 85.5931L7.06215 92.3728L8.47458 94.6326L9.88701 92.3728L12.9944 87.0055L14.9718 84.4631L16.3842 84.1807L16.6667 84.4631L16.9492 86.723V99.7174L16.6667 99.9999H14.6893L14.4068 99.7174L14.1243 89.5479L10.1695 96.3276L8.75706 98.305L7.62712 97.74L2.82486 89.8304L2.54237 89.2654V99.7174L0 99.9999V86.723L0.282486 84.4631L0.564972 84.1807Z" fill="#181113"/>
<path d="M120.056 84.1807H121.75L123.163 85.8756L126.27 92.9377L129.095 99.4349L128.813 99.9999H126.835L125.988 99.4349L124.858 96.61L124.575 96.3276H116.948L115.536 99.7174H112.711L118.361 86.723L119.773 84.4631L120.056 84.1807Z" fill="#181113"/>
<path d="M27.4026 86.4409H29.38L31.6399 87.2884L33.6173 89.5483L33.8998 90.3957V93.7856L32.7698 95.763L30.7924 97.4579L29.945 97.7404H26.8376L25.1427 96.8929L23.4478 94.9155L22.8828 93.7856V90.6782L24.0128 88.4183L26.5551 86.7234L27.4026 86.4409Z" fill="white"/>
<path d="M53.1055 84.4634H64.4049V86.4408L64.1224 86.7233H55.9303V90.9606H63.5574V92.938L62.145 93.2204H56.2128V97.4577H64.4049L64.6874 97.7402V99.7176H53.1055V84.4634Z" fill="#181113"/>
<path d="M83.8984 84.4634H86.4408L86.7233 93.7854L87.5708 96.6103L88.9832 97.4577H92.0905L93.503 96.6103L94.0679 95.4803L94.3504 93.7854L94.6329 84.4634H97.1753V94.9154L96.3278 97.4577L94.0679 99.4351L92.0905 100H88.7007L86.4408 99.1526L84.4634 96.8928L83.8984 95.1978V84.4634Z" fill="#181113"/>
<path d="M74.0114 84.1807H76.2713L79.3786 85.3106L80.791 86.4406L80.5085 87.5705L80.2261 88.1355L78.8136 87.853L77.1187 87.0055L74.5763 86.723L72.3165 87.5705L70.904 88.7004L69.7741 90.9603V92.9377L70.6215 95.1976L71.7515 96.61L73.4464 97.4575H76.5537L78.8136 96.3276L79.9436 96.0451L80.791 97.175L80.5085 98.305L77.6837 99.7174L76.5537 99.9999H72.8814L69.4916 98.305L67.5142 95.7626L66.9492 94.3502V90.1129L68.3616 87.288L70.6215 85.3106L72.5989 84.4631L74.0114 84.1807Z" fill="#181113"/>
<path d="M39.832 84.4634H42.6569V97.4577H46.0467L50.849 97.7402V99.7176L40.1145 100L39.832 99.7176V84.4634Z" fill="#181113"/>
<path d="M101.414 84.4634H103.956L104.239 97.4577H112.149L112.431 99.7176L101.697 100L101.414 99.7176V84.4634Z" fill="#181113"/>
<path d="M58.1939 33.0508H60.4538L60.7363 33.3333L61.0187 37.2881L60.7363 50.5649L59.8888 51.4124L57.9114 51.1299L57.6289 49.435V39.8304L57.9114 33.3333L58.1939 33.0508Z" fill="#C61C2E"/>
<path d="M85.3091 48.3052H86.7216L87.569 49.7176L87.2865 50.8475L83.0492 53.3899L75.7046 57.6272L72.8797 59.0396L71.4673 58.7572L70.9023 57.0622L73.4447 55.0848L81.3543 50.5651L85.3091 48.3052Z" fill="#C61C2E"/>
<path d="M134.462 92.938H139.829L141.807 93.503L142.372 94.3504V96.6103L141.524 97.4578L140.677 97.7402H134.18V93.2205L134.462 92.938Z" fill="white"/>
<path d="M134.18 86.4409H138.982L141.242 87.0059L141.524 87.2884V90.1132L140.394 90.9607H134.18V86.4409Z" fill="white"/>
<path d="M120.903 86.7231L121.468 87.8531L123.728 93.2203V94.0678H118.078L118.361 92.6553L120.62 87.0056L120.903 86.7231Z" fill="white"/>
</svg>
