<svg width="240" height="100" viewBox="0 0 240 100" fill="none" xmlns="http://www.w3.org/2000/svg">
<path d="M26.6476 0H34.6705L39.255 1.14613L43.553 3.4384L45.8453 5.44413L48.4241 9.16905L48.9971 9.45559V3.72493L49.8567 2.00573L51.2894 0.859599L52.7221 0.286533H55.8739L58.1662 1.14613L59.5989 2.5788L60.4585 4.87106V69.0544L59.5989 75.6447L58.1662 80.8023L55.8739 85.3868L53.8682 88.5387L51.0029 91.6906L47.2779 94.5559L42.6934 97.1347L37.5358 98.8539L32.6648 99.7135H25.5014L18.9112 98.5673L12.894 96.5616L8.02292 93.9828L4.87106 91.6906L2.86533 89.3983L2.00573 87.3926V85.1003L2.86533 83.3811L4.87106 81.6619L5.73066 81.3754H7.73639L11.4613 82.808L17.765 86.533L23.2092 88.5387L26.0745 89.1118H33.2378L37.2493 87.9656L41.2607 85.3868L43.2665 83.3811L45.5587 79.3696L46.9914 75.9312L48.1375 71.6332L48.7106 67.6218L48.9971 62.1777L47.5645 63.6103L44.9857 66.7622L41.5473 69.341L38.3954 70.7736L33.2378 71.9198H27.7937L22.6361 71.0602L18.0516 69.341L14.6132 67.3353L11.4613 64.7565L8.88252 62.1777L6.01719 58.1662L3.15186 52.7221L1.43266 47.5645L0.286533 42.1203L0 40.1146V31.5186L1.14613 24.6418L3.15186 18.6246L5.44413 14.0401L7.44986 11.1748L9.74212 8.30946L12.3209 6.01719L16.6189 3.15186L20.6304 1.43266L24.6418 0.286533L26.6476 0Z" fill="#008082"/>
<path d="M99.9991 0H106.876L111.46 1.14613L116.045 3.4384L118.91 5.44413L121.776 8.02292L123.495 9.45559V4.01146L124.354 2.00573L126.36 0.286533L127.22 0H130.658L132.091 0.859599L133.523 2.5788L134.097 3.72493L134.383 7.73639V67.0487L133.523 69.341L132.091 71.0602L130.085 71.9198H127.22L124.927 70.7736L123.781 69.341L123.495 68.1948V61.6046L121.203 63.6103L119.197 65.9026L116.045 68.4814L111.46 70.7736L106.876 71.9198H101.718L96.5607 71.0602L91.9762 69.341L88.2513 67.3352L85.0994 65.043L82.2341 62.4642L79.6553 59.3123L77.6496 56.1605L75.9304 52.4355L74.4977 47.851L73.6381 43.8395L73.3516 41.5473V30.9456L74.4977 24.0688L75.9304 19.1977L78.2226 14.6132L80.8014 10.8883L83.9533 7.44986L88.8243 4.01146L93.4089 1.7192L98.2799 0.286533L99.9991 0Z" fill="#008082"/>
<path d="M232.378 0H236.103L237.822 1.14613L238.968 2.5788L239.541 3.72493V7.16332L236.963 14.8997L232.092 28.6533L228.08 40.1146L224.642 49.8567L218.625 67.0487L214.9 77.6504L211.461 87.106L208.596 95.4155L206.59 98.5673L203.725 100H200.573L198.281 97.9943L197.708 96.5616V93.6963L198.854 89.6848L202.006 81.0888L205.157 72.7794L206.59 68.7679L206.017 66.1891L200 48.9971L195.702 36.6762L190.831 22.9226L185.96 8.88252L185.387 6.30372V4.01146L186.246 2.00573L187.679 0.859599L189.112 0.286533H192.264L195.129 1.7192L196.848 4.58453L200.286 15.1862L211.461 48.7106L212.321 51.8625H212.894L215.759 42.9799L224.069 18.0516L227.507 7.16332L229.226 2.5788L230.372 1.14613L232.378 0Z" fill="#008082"/>
<path d="M100.858 10.3154H107.449L111.174 11.4616L114.612 13.4673L116.904 15.473L119.483 18.9114L121.489 23.2094L122.921 29.2266L123.208 31.8054V40.1149L122.348 45.559L120.916 50.1435L118.623 54.4415L115.472 57.8799L112.32 59.8856L109.454 61.0318L105.443 61.8914H102.004L97.7065 61.0318L94.2681 59.3126L91.4028 56.7338L89.1105 53.5819L87.1048 49.5704L85.6721 44.6994L85.099 41.8341L84.8125 38.9687V33.5246L85.3856 28.6535L86.5317 24.069L87.9644 20.3441L90.5432 16.3326L92.5489 14.0404L95.4142 12.0346L98.8526 10.602L100.858 10.3154Z" fill="#FEFEFE"/>
<path d="M26.9337 10.3154H33.2374L36.6758 11.175L40.4008 13.1808L43.5526 16.0461L45.8449 19.198L48.1372 23.7825L49.2833 27.5074L50.1429 32.9515V40.4014L49.2833 45.559L47.8506 49.857L45.5584 53.8684L42.9796 57.0203L40.1142 59.3126L36.3893 61.0318L33.2374 61.8914H28.0798L24.6415 61.0318L21.2031 59.3126L18.3377 56.7338L16.332 54.4415L14.0397 50.1435L12.3205 44.4128L11.4609 38.3957V33.2381L12.3205 27.2209L13.7532 22.6363L15.1859 19.4845L17.1916 16.3326L20.3435 13.1808L23.7819 11.175L26.9337 10.3154Z" fill="#FEFEFE"/>
<path d="M174.785 0H178.797L181.089 1.14613L182.808 3.15186L183.381 4.29799V7.73639L181.662 10.0287L179.37 11.4613L171.06 14.3266L167.908 16.0458L166.476 17.4785H165.903L165.33 18.6246L163.61 21.2034L162.178 24.6418L161.318 29.7994L161.032 67.9083L159.885 70.2006L158.453 71.3467L157.02 71.9198H153.868L151.863 71.0602L150.143 69.0544L149.57 66.4756V7.73639L149.857 3.4384L151.29 1.43266L153.582 0.286533H157.02L159.312 1.43266L160.459 2.86533L161.318 5.73066V11.7479L164.757 7.16332L167.335 4.29799L170.774 1.7192L173.639 0.286533L174.785 0Z" fill="#008082"/>
<path d="M90.5442 83.3809H163.897L186.246 83.6674L186.819 84.2405L187.106 85.6731V89.6846L186.533 91.4038L185.387 91.9768H67.6215L66.4754 91.4038L65.9023 89.6846V85.1001L66.4754 83.6674L90.5442 83.3809Z" fill="#008082"/>
</svg>
