<svg width="300" height="73" viewBox="0 0 300 73" fill="none" xmlns="http://www.w3.org/2000/svg">
<path d="M261.659 0.718262L262.197 0.897802L260.222 3.94999L256.811 7.36126L255.914 8.43851L254.477 9.69529L249.45 14.7224H249.091L248.552 16.6974L246.398 19.0314L237.78 27.6493V28.9061L236.523 29.9834L235.087 31.2402L233.471 33.0356L232.035 34.2924L231.855 34.6514H231.496L231.316 35.9082L231.855 37.3445L232.753 37.7036L234.369 38.0627L235.625 39.6786L236.703 40.5763L238.319 41.474L240.114 43.0898L242.628 44.7057L244.602 46.5011L247.116 47.7579L249.091 49.9124L250.886 50.9896L253.4 53.1441L253.939 53.5032V52.426L254.657 52.785L254.836 54.9395L254.657 55.1191H229.701L228.803 54.5804L228.085 53.5032L225.392 50.9896L224.135 49.1942L223.417 47.5784L222.16 46.5011L221.262 46.3216L219.108 48.2965L217.492 50.0919L216.774 50.6305H216.415L216.056 51.5282L214.978 53.3237L214.44 54.9395L214.081 55.1191H190.74L188.406 54.9395L188.586 54.2214L190.202 52.785L192.177 51.5282L194.87 49.5533L197.024 48.2965L197.383 47.5784L200.076 45.9625L201.692 44.7057L202.59 43.2694L203.488 42.9103L203.667 43.2694L204.744 42.9103L205.104 42.0126L206.899 40.3967L207.438 39.499L209.053 39.1399L210.131 37.8832L211.926 36.9855L212.465 35.9082L210.849 33.2151L208.335 30.522L207.078 29.0857L206.719 28.7266L206.181 27.4698L204.924 26.213L203.667 24.7767L202.769 23.6995L201.692 22.8018V21.545L199.717 19.9291L197.922 17.9542L197.383 17.0565L197.204 15.0815L195.947 13.4656L195.767 12.0293L196.126 11.3112L197.383 11.1316L199.358 12.3884L201.154 13.6452L202.769 15.261L205.283 17.0565L207.078 18.4928L209.053 19.57L212.106 21.9041L214.44 23.6995L215.876 24.7767L217.671 26.0335L219.646 28.0084L221.262 28.7266L222.519 28.5471L223.596 28.0084L225.033 26.9312L226.469 26.213L227.726 24.7767L230.06 23.3404L230.957 22.6222H231.316L231.676 21.7245L232.394 20.8268L234.01 20.4677L236.344 18.3132L237.421 17.4155L238.857 16.6974L242.448 13.8247L245.859 11.3112L247.834 9.87483L249.989 8.07943L252.323 6.46356L257.17 2.69321L258.607 1.79551L261.479 0.897802L261.659 0.718262Z" fill="url(#paint0_linear_2258_1651)"/>
<path d="M43.3405 16.3379L44.0586 16.697L45.3154 17.0561L46.7517 17.7742L48.1881 19.5696L49.4449 20.6469L50.163 21.365V24.4172L49.8039 25.1354L48.9062 25.4945L48.7267 28.5467L48.1881 30.7011L47.829 35.0101L47.2904 36.8055L47.1108 38.7805V41.1145L46.5722 42.5508L45.6745 43.269L45.1359 43.9871H38.1338V41.8327L39.0315 38.7805L39.211 37.1646V35.3692L40.1087 34.4715L40.4678 34.292L40.6474 33.2147L40.4678 30.3421L40.6474 28.9057L41.3655 27.8285V27.1103L39.7497 27.2899L38.1338 29.0853L37.2361 30.8807L35.0816 33.3942L34.1839 34.4715L34.3634 34.8306L33.2862 36.0874L32.209 36.9851L30.9522 38.7805L29.5159 40.935L28.9772 41.1145V41.4736H28.6181L28.2591 42.5508L27.7204 43.8076L27.5409 43.9871H20.5388L19.4616 43.0894L18.5639 40.2168L17.6662 36.4464L16.948 35.0101L15.8708 34.1124L15.3321 31.9579L14.7935 30.5216V28.9057L14.4344 28.008L13.3572 27.1103L12.1004 27.2899L11.7413 28.008L11.9209 29.8034L11.5618 31.2398L11.2027 31.9579L11.0232 33.7533V37.3441L10.8436 37.7032L9.76639 38.0623L9.58685 39.3191V41.1145L9.22776 42.7304L8.33006 43.8076L7.97098 43.9871H2.22568L1.32798 43.4485L1.14844 42.3713L1.50752 40.7554L1.8666 40.2168L2.04614 38.0623L2.7643 36.4464L3.12338 35.5487L3.30292 32.317L3.66201 31.5988L4.38017 31.0602L4.55971 29.4444L4.38017 29.0853L4.55971 27.2899L5.09833 25.4945V23.34L5.81649 21.9036L7.07328 20.4673L8.86868 19.2105L10.6641 18.4924L11.7413 17.5947L12.1004 17.4151H16.5889L17.4866 18.1333L18.7434 20.1082L19.8207 22.0832L20.5388 23.6991L21.4365 26.3922L21.7956 28.1876L22.5138 31.2398L23.9501 33.0352L24.3092 33.5738V35.1897L24.1296 35.7283L25.566 35.0101L26.6432 34.292L27.3614 33.0352L28.7977 30.7011L30.5931 29.0853L30.9522 27.8285L31.8499 26.9308L34.0044 24.5968L34.3634 23.5195L34.543 22.8014L35.9793 21.5446L36.6975 20.6469L38.4929 19.2105L40.1087 18.4924L41.9042 17.2356L43.3405 16.3379Z" fill="#2C0697"/>
<path d="M128.625 17.415H134.011L136.166 19.5695L137.243 20.4672L138.141 22.0831L138.679 23.3399L139.936 25.4944L140.115 26.033L140.834 26.3921L142.09 27.2898L142.629 28.7261L143.168 30.701L145.502 33.7532L146.758 35.7282L147.656 36.2668L148.554 35.5486L149.452 33.7532V30.8806L150.17 28.5466L150.349 24.5967L151.786 23.3399L151.965 22.2626L151.786 20.1081L152.324 18.6718L153.401 17.5946L156.274 17.415L159.147 17.7741L159.506 17.9537V20.6468L158.967 23.699L158.429 25.3148L158.07 28.5466L157.531 29.8033L156.992 30.1624L156.813 31.5987V34.1123L156.274 36.8054L156.095 37.344V38.6008L155.556 40.0372L153.761 41.653L152.683 43.2689L151.786 43.987L147.297 44.3461L146.579 45.0643L145.502 44.7052L144.424 43.987L143.168 42.9098L141.372 40.5758L138.5 36.2668L136.884 34.1123L135.986 32.3169L135.807 30.701H135.447L134.55 29.8033L133.832 28.9056L132.934 27.1102L131.498 25.6739L130.241 25.4944L129.702 26.9307V29.0852L128.625 31.2397L128.445 35.01L128.086 35.9077L127.189 36.8054V39.6781L126.829 41.1144L126.65 41.653L126.47 43.987L125.932 44.1666L119.109 43.987L118.93 43.8075L119.109 41.8326L119.648 40.2167L120.186 36.6259L120.546 34.6509L120.725 31.9578L121.264 30.701L121.982 29.4443L122.161 24.9557L122.7 23.699L123.957 20.8263L125.034 19.39L126.829 18.3127L127.907 17.5946L128.625 17.415Z" fill="#2C0697"/>
<path d="M87.1445 17.415H113.716L114.973 18.8514L117.128 19.39L117.307 19.7491L117.487 21.3649L117.846 21.9036L118.923 22.4422L119.103 22.6217V27.1102L118.744 28.1875L117.666 28.5466L117.487 32.1374L116.948 34.8305V36.2668L116.23 38.4213L114.973 40.2167L113.357 41.8326L110.844 43.2689L110.126 43.987H82.2969L82.656 42.0121L83.5537 38.2417L83.9127 34.4714L84.4514 31.0601L84.6309 28.7261L84.8104 28.5466H93.4284V29.2647L92.7102 30.342L92.5307 34.2919L92.1716 35.7282L91.2739 36.6259L90.9148 37.7031H104.739L106.176 37.5236L107.073 36.8054L109.048 35.7282L110.126 31.7783V25.8534L109.228 24.058L86.2468 23.8785V21.724L86.7854 20.1081L86.9649 17.5946L87.1445 17.415Z" fill="#2C0697"/>
<path d="M60.215 17.415H82.8371L83.1962 17.5946L83.0167 21.5445L82.4781 23.3399L81.7599 23.8785L61.6513 24.058L60.3946 26.5716L60.5741 28.1875L61.8309 28.367H75.835L80.6826 28.5466L80.8622 28.7261L80.6826 31.7783L80.3236 33.5737L60.0355 33.7532L59.1378 34.4714L58.4196 35.01V36.0873L59.1378 37.1645L60.3946 37.7031L79.9645 37.8827V40.2167L79.6054 42.7303L78.8872 43.987L61.8309 44.1666H57.5219L55.0083 43.987L53.2129 42.9098L51.7766 41.653L51.0584 39.4985L50.8789 37.7031L51.0584 33.5737L51.5971 31.2397L51.7766 28.1875L52.1357 27.1102L53.0334 25.3148L53.572 23.5194L54.8288 21.5445L56.2651 20.2877L58.7787 18.8514L59.6764 17.9537L60.215 17.415Z" fill="#2C0697"/>
<path d="M170.632 17.415H192.536L192.895 17.7741V19.7491L192.536 22.4422L191.997 23.699L191.638 23.8785L172.427 24.058L171.709 24.9557L170.273 26.2125L169.375 27.8284V28.1875L190.92 28.367L191.1 29.2647L190.741 30.1624L189.843 31.0601L189.484 33.3942L179.25 33.5737H169.016V36.2668L169.196 37.5236L170.991 37.7031L189.484 37.8827L189.663 38.0622V40.5758L189.304 42.7303L188.945 43.8075L188.586 43.987H166.503L163.989 43.2689L162.553 42.1916L161.834 41.2939L161.116 38.9599L160.937 37.8827L160.039 37.5236L160.398 36.2668L160.937 35.1896L161.475 32.3169L162.194 30.8806V28.1875L163.271 24.058L164.168 22.6217L167.221 19.5695L169.555 18.1332L170.093 17.5946L170.632 17.415Z" fill="#2C0697"/>
<path d="M218.21 0H226.289L228.982 0.179541L230.418 1.43632L232.932 3.94989L233.83 6.28392L234.907 7.72025L235.266 8.61795V12.0292L234.548 14.9019L232.752 17.595L230.957 19.5699L229.341 20.6472L227.905 21.7244L227.187 22.0835H219.826L218.03 21.3653L215.876 20.1085L213.542 17.595L212.464 16.8768L212.105 15.4405L211.926 5.7453L212.644 4.30897L213.901 2.69311L215.696 1.25678L217.132 0.179541L218.21 0Z" fill="url(#paint1_radial_2258_1651)"/>
<path d="M212.106 36.6265H213.901L216.415 39.6787L218.39 41.8331L220.005 43.8081L220.903 44.8853L221.083 46.3217L219.287 47.9375L217.312 50.092L216.415 50.4511L216.056 51.3488L214.978 53.1442L214.44 54.7601L214.081 54.9396H190.74L188.406 54.7601L188.586 54.0419L190.202 52.6056L192.177 51.3488L194.87 49.3738L197.024 48.1171L197.383 47.3989L200.076 45.783L201.692 44.5262L202.59 43.0899L203.488 42.7308L203.667 43.0899L204.744 42.7308L205.104 41.8331L206.899 40.2173L207.438 39.3196L209.053 38.9605L210.131 37.7037L211.926 36.806L212.106 36.6265Z" fill="#1E1E1E"/>
<path d="M261.66 0.718262L262.198 0.897802L260.223 3.94999L256.812 7.36126L255.915 8.43851L254.478 9.69529L249.451 14.7224H249.092L248.553 16.6974L246.399 19.0314L237.781 27.6493V28.9061L236.524 29.9834L235.088 31.2402L233.472 33.0356L232.036 34.2924L231.856 34.6514H231.497L231.317 35.1901H229.702L228.624 34.6514L227.008 33.2151L225.931 32.4969L223.418 30.1629L223.059 29.4448V28.3675L225.034 26.9312L226.47 26.213L227.727 24.7767L230.061 23.3404L230.958 22.6222H231.317L231.677 21.7245L232.395 20.8268L234.011 20.4677L236.345 18.3132L237.422 17.4155L238.858 16.6974L242.449 13.8247L245.86 11.3112L247.835 9.87483L249.99 8.07943L252.324 6.46356L257.171 2.69321L258.608 1.79551L261.48 0.897802L261.66 0.718262Z" fill="#1E1E1E"/>
<path d="M255.378 17.415H270.998L275.666 17.5946L275.846 19.0309L276.743 19.5695L276.564 20.1081L275.666 20.2877L275.487 22.2626L275.127 24.058L274.768 24.4171L274.23 28.9056L273.512 34.2919L273.332 35.5486L272.793 36.4463L272.434 38.2417L272.255 41.1144L271.537 41.4735L271.357 43.987H264.176L263.996 43.8075L264.176 41.1144L264.714 37.344V35.3691L265.073 34.8305L265.791 34.4714L265.971 33.9328L266.33 30.701L267.048 29.9829L267.228 29.4443V24.058L254.66 23.8785L254.301 23.5194L254.66 21.0059L255.019 20.1081L255.378 17.415Z" fill="#2C0697"/>
<path d="M278.715 17.415H298.823L299.003 17.5946V19.39L298.644 20.6468L297.925 20.8263V23.699L297.566 23.8785H284.28L284.101 27.6489L283.562 29.0852L283.383 32.1374L283.024 33.2146L282.126 33.5737L281.587 38.9599L281.228 41.653L281.049 43.987L279.792 44.1666L273.688 43.987V41.8326L274.585 37.344V35.7282L275.124 34.4714L276.022 29.9829L276.381 29.2647L276.919 26.2125L277.996 19.39L278.715 17.415Z" fill="#2C0697"/>
<path d="M0 72.5742V61.8646H5.01308C6.30095 61.8646 7.29079 62.1145 7.98262 62.6143C8.67444 63.1038 9.02036 63.777 9.02036 64.6338C9.02036 65.2152 8.88199 65.7047 8.60526 66.1025C8.33917 66.5003 7.9773 66.8063 7.51963 67.0205C7.06196 67.2347 6.56703 67.3418 6.03486 67.3418L6.32223 66.8828C6.96084 66.8828 7.52495 66.9899 8.01455 67.2041C8.50415 67.4183 8.89264 67.7345 9.18001 68.1526C9.46738 68.5606 9.61107 69.0706 9.61107 69.6826C9.61107 70.6005 9.24919 71.3145 8.52544 71.8245C7.81232 72.3243 6.74797 72.5742 5.33239 72.5742H0ZM1.59652 71.3349H5.26853C6.15194 71.3349 6.8278 71.1921 7.29611 70.9065C7.76443 70.6209 7.99858 70.1722 7.99858 69.5602C7.99858 68.938 7.76443 68.4841 7.29611 68.1985C6.8278 67.9129 6.15194 67.7702 5.26853 67.7702H1.45284V66.5309H4.8694C5.6783 66.5309 6.30627 66.3881 6.75329 66.1025C7.20032 65.8169 7.42383 65.3885 7.42383 64.8174C7.42383 64.2462 7.20032 63.8178 6.75329 63.5322C6.30627 63.2466 5.6783 63.1038 4.8694 63.1038H1.59652V71.3349Z" fill="#726041"/>
<path d="M23.0991 72.5742V61.8646H24.6956V72.5742H23.0991Z" fill="#726041"/>
<path d="M44.1025 72.6966C43.251 72.6966 42.458 72.5589 41.7236 72.2835C40.9999 72.0081 40.3719 71.6256 39.8397 71.136C39.3076 70.6362 38.8925 70.0549 38.5945 69.3919C38.2964 68.7289 38.1474 68.0047 38.1474 67.2194C38.1474 66.434 38.2964 65.7098 38.5945 65.0469C38.8925 64.3839 39.3076 63.8076 39.8397 63.318C40.3719 62.8182 40.9999 62.4307 41.7236 62.1553C42.4474 61.8799 43.2403 61.7422 44.1025 61.7422C44.9539 61.7422 45.7362 61.8799 46.4494 62.1553C47.1731 62.4205 47.8011 62.8029 48.3332 63.3027C48.8761 63.7923 49.2912 64.3686 49.5785 65.0316C49.8766 65.6945 50.0256 66.4238 50.0256 67.2194C50.0256 68.0149 49.8766 68.7442 49.5785 69.4072C49.2912 70.0702 48.8761 70.6515 48.3332 71.1513C47.8011 71.6409 47.1731 72.0234 46.4494 72.2988C45.7362 72.564 44.9539 72.6966 44.1025 72.6966ZM44.1025 71.3349C44.7198 71.3349 45.2892 71.2329 45.8107 71.0289C46.3429 70.8249 46.8006 70.5393 47.1838 70.1722C47.5776 69.7948 47.8809 69.3562 48.0938 68.8564C48.3173 68.3566 48.429 67.8109 48.429 67.2194C48.429 66.6278 48.3173 66.0821 48.0938 65.5823C47.8809 65.0826 47.5776 64.6491 47.1838 64.2819C46.8006 63.9045 46.3429 63.6138 45.8107 63.4098C45.2892 63.2058 44.7198 63.1038 44.1025 63.1038C43.4745 63.1038 42.8944 63.2058 42.3622 63.4098C41.8407 63.6138 41.383 63.9045 40.9892 64.2819C40.5954 64.6491 40.2868 65.0826 40.0633 65.5823C39.8504 66.0821 39.744 66.6278 39.744 67.2194C39.744 67.8109 39.8504 68.3566 40.0633 68.8564C40.2868 69.3562 40.5954 69.7948 40.9892 70.1722C41.383 70.5393 41.8407 70.8249 42.3622 71.0289C42.8944 71.2329 43.4745 71.3349 44.1025 71.3349Z" fill="#726041"/>
<path d="M65.545 72.5742V63.1956H61.7134V61.8646H70.9572V63.1956H67.1256V72.5742H65.545Z" fill="#726041"/>
<path d="M85.1649 66.485H90.9124V67.7855H85.1649V66.485ZM85.3086 71.2431H91.8224V72.5742H83.7121V61.8646H91.5989V63.1956H85.3086V71.2431Z" fill="#726041"/>
<path d="M110.405 72.6966C109.554 72.6966 108.766 72.564 108.042 72.2988C107.329 72.0234 106.706 71.6409 106.174 71.1513C105.653 70.6515 105.243 70.0702 104.945 69.4072C104.647 68.7442 104.498 68.0149 104.498 67.2194C104.498 66.4238 104.647 65.6945 104.945 65.0316C105.243 64.3686 105.658 63.7923 106.19 63.3027C106.722 62.8029 107.345 62.4205 108.058 62.1553C108.782 61.8799 109.57 61.7422 110.421 61.7422C111.283 61.7422 112.076 61.885 112.8 62.1706C113.534 62.446 114.157 62.859 114.668 63.4098L113.63 64.3737C113.204 63.9453 112.725 63.6291 112.193 63.4251C111.661 63.2109 111.092 63.1038 110.485 63.1038C109.857 63.1038 109.272 63.2058 108.729 63.4098C108.197 63.6138 107.734 63.8994 107.34 64.2666C106.946 64.6338 106.637 65.0724 106.414 65.5823C106.201 66.0821 106.094 66.6278 106.094 67.2194C106.094 67.8109 106.201 68.3617 106.414 68.8717C106.637 69.3715 106.946 69.805 107.34 70.1722C107.734 70.5393 108.197 70.8249 108.729 71.0289C109.272 71.2329 109.857 71.3349 110.485 71.3349C111.092 71.3349 111.661 71.2329 112.193 71.0289C112.725 70.8147 113.204 70.4883 113.63 70.0498L114.668 71.0136C114.157 71.5644 113.534 71.9826 112.8 72.2682C112.076 72.5538 111.278 72.6966 110.405 72.6966Z" fill="#726041"/>
<path d="M135.976 61.8646H137.572V72.5742H135.976V61.8646ZM129.558 72.5742H127.961V61.8646H129.558V72.5742ZM136.12 67.8007H129.398V66.4697H136.12V67.8007Z" fill="#726041"/>
<path d="M167.237 72.5742V61.8646H168.834V71.2431H174.884V72.5742H167.237Z" fill="#726041"/>
<path d="M187.732 72.5742V61.8646H189.329V72.5742H187.732Z" fill="#726041"/>
<path d="M203.691 72.5742V61.8646H205L210.013 69.958H209.311L214.26 61.8646H215.569L215.585 72.5742H214.052L214.036 64.1748H214.403L209.997 71.2737H209.263L204.824 64.1748H205.223V72.5742H203.691Z" fill="#726041"/>
<path d="M229.955 72.5742V61.8646H231.551V72.5742H229.955Z" fill="#726041"/>
<path d="M248.132 72.5742V63.1956H244.301V61.8646H253.545V63.1956H249.713V72.5742H248.132Z" fill="#726041"/>
<path d="M267.752 66.485H273.5V67.7855H267.752V66.485ZM267.896 71.2431H274.41V72.5742H266.299V61.8646H274.186V63.1956H267.896V71.2431Z" fill="#726041"/>
<path d="M288.011 72.5742V61.8646H292.721C293.913 61.8646 294.961 62.089 295.866 62.5378C296.781 62.9865 297.489 63.6138 297.989 64.4196C298.5 65.2254 298.756 66.1586 298.756 67.2194C298.756 68.2801 298.5 69.2134 297.989 70.0192C297.489 70.8249 296.781 71.4522 295.866 71.901C294.961 72.3498 293.913 72.5742 292.721 72.5742H288.011ZM289.607 71.2431H292.625C293.551 71.2431 294.349 71.0748 295.02 70.7382C295.701 70.4016 296.228 69.9325 296.6 69.3307C296.973 68.7187 297.159 68.0149 297.159 67.2194C297.159 66.4136 296.973 65.7098 296.6 65.1081C296.228 64.5063 295.701 64.0371 295.02 63.7005C294.349 63.3639 293.551 63.1956 292.625 63.1956H289.607V71.2431Z" fill="#726041"/>
<path d="M0.5 58.7734H300.002" stroke="#726041"/>
<defs>
<linearGradient id="paint0_linear_2258_1651" x1="198.592" y1="0.718263" x2="252.012" y2="55.1191" gradientUnits="userSpaceOnUse">
<stop stop-color="#F9990B"/>
<stop offset="0.4999" stop-color="#FFF11D"/>
<stop offset="1" stop-color="#F9990B"/>
</linearGradient>
<radialGradient id="paint1_radial_2258_1651" cx="0" cy="0" r="1" gradientUnits="userSpaceOnUse" gradientTransform="translate(219.107 7.18162) rotate(68.4986) scale(25.472 26.9216)">
<stop stop-color="#FAAC0E"/>
<stop offset="0.199217"/>
<stop offset="1" stop-color="#1E1E1E"/>
</radialGradient>
</defs>
</svg>
