<svg width="117" height="100" viewBox="0 0 117 100" fill="none" xmlns="http://www.w3.org/2000/svg">
<path d="M98.622 0H115.65L116.043 0.19685V5.80709L115.945 39.5669L116.043 88.2874V98.2283L115.945 99.9016L115.748 100H6.20079L0.19685 99.9016L0.0984252 99.8031V93.3071L0 73.622V0.295276L0.0984252 0.19685L1.5748 0.0984252L98.622 0Z" fill="#281D87"/>
<path d="M6.49449 5.61035L7.38032 5.8072L8.26615 6.49618L8.95512 7.57886L10.1362 10.1379L11.5142 12.7954L12.7937 14.9607L13.6795 16.4371L14.8606 18.1104L15.9433 19.4883L17.1244 20.8663L18.5024 22.3426L20.0772 24.0159L21.7504 25.5907L22.8331 26.5749L24.211 27.6576L25.9827 28.9371L27.7543 30.0198L29.9197 31.3978L31.3961 32.2836L32.5772 32.9726L34.841 34.0552L37.4 35.1379L40.1559 36.1222L42.9118 36.9096L46.4551 37.697L51.0811 38.4844L53.6402 38.7796L57.4787 38.9765H62.0063L64.9591 38.7796L68.5024 38.1891L73.3252 37.1064L76.1795 36.319L79.3291 35.2363L82.8724 33.76L84.9394 32.6773L86.022 32.0867L88.6795 30.5119L89.7622 29.823L90.9433 29.0355L92.715 27.756L94.0929 26.6733L95.6677 25.3938L98.2268 23.0316L99.4079 21.7521L100.589 20.3741L102.164 18.4056L103.443 16.634L104.624 14.7639L106.002 12.4017L107.085 10.1379L107.577 9.05523L108.069 7.87413L108.758 6.49618L109.152 6.00405L109.841 5.61035H110.53L110.628 5.8072V8.16941L110.53 11.1222L110.432 19.7836L110.333 68.7993L110.038 69.5867L109.546 69.4883L108.463 68.7993L107.479 67.7167L106.494 66.3387L105.313 64.567L104.231 62.9922L102.951 61.319L101.869 60.0395L100.983 58.9568L99.6047 57.4804L99.0142 56.7915L98.522 56.2993L97.2425 55.1182L96.2583 54.2324L94.9787 53.2481L93.4039 52.067L91.5339 50.7875L89.8606 49.7048L87.5969 48.4253L85.0378 47.0474L82.6756 45.8663L80.215 44.882L78.3449 44.193L75.7858 43.4056L72.0457 42.5198L68.1087 41.8308L65.5496 41.5355L62.7937 41.3387H56.2976L52.4591 41.634L48.7189 42.0277L45.1756 42.6182L41.2386 43.5041L38.2858 44.3899L36.2189 45.1773L33.5614 46.3584L31.9866 47.1458L30.1165 48.13L26.278 50.3938L23.6205 52.1655L22.341 53.1497L20.963 54.3308L20.1756 55.0198L19.2898 55.9056L18.5024 56.5946L16.1402 58.9568L15.4512 59.7442L14.1717 61.319L13.1874 62.697L12.1047 64.3702L11.1205 65.7481L10.0378 67.323L9.2504 68.4056L8.0693 69.2915L7.38032 69.5867L6.8882 69.4883L6.59292 68.7009L6.49449 52.067L6.39607 40.1576L6.29764 9.15366L6.19922 6.00405L6.49449 5.61035Z" fill="#FEFDFD"/>
<path d="M45.8654 72.5396L47.9323 72.638L49.2119 72.8348L49.8024 73.1301L50.9835 74.1144L51.8693 75.197L53.1489 76.9687L54.5268 79.134L56.2985 81.7915L57.2827 83.1695L57.7749 83.4647L58.3654 83.1695L59.4481 81.201L60.9245 78.9372L62.3024 76.9687L63.2867 75.6892L64.1725 74.6065L65.2552 73.4254L66.0426 72.8348L66.9284 72.5396H68.2079L68.9953 72.8348L69.4874 73.4254L69.5859 73.7207L69.6843 75.0986L69.7827 81.4962V90.5514L70.078 91.5356L70.5701 91.9293L72.4402 92.1262L77.6567 91.8309H81.2001L90.2552 92.0277H93.7001L96.9481 91.7325H99.8024L104.33 91.8309L106.987 92.0277H109.547L108.759 91.3388L108.858 90.9451L109.743 91.1419L110.137 91.7325L110.531 93.2088L110.629 94.0947L110.235 94.4884L109.842 94.5868L104.921 94.6852H86.3182L71.2591 94.5868L68.6016 94.4884L67.2237 94.3899L66.141 93.9962L65.9441 93.3073L65.8457 92.323V84.9411L65.9441 80.3151L65.7473 79.7246L65.2552 79.823L64.5662 80.3151L63.0898 83.071L61.7119 85.4333L60.7276 87.2049L60.0386 88.1892L59.1528 89.5671L58.7591 89.8624L58.1686 90.0592H57.2827L56.4953 89.6655L55.7079 88.9766L54.7237 87.5986L53.8378 86.1222L52.4599 83.6616L51.2788 81.6931L50.2945 80.3151L49.3103 79.3309L48.9166 79.134V81.7915L49.1134 85.138L49.2119 87.8939V93.9962L49.015 94.1931L47.4402 94.3899L45.8654 94.4884L41.83 94.5868H19.8812L11.2197 94.4884L7.9717 94.3899L6.88903 94.1931L6.59375 93.5041V91.9293L6.7906 91.5356H8.46383L14.4678 91.634H17.9126L18.7 91.7325H25.393L27.7552 91.5356H30.1174L36.6134 91.7325L38.8772 91.8309H43.0111L43.7 91.5356L44.5859 91.2403L44.6843 90.9451V78.5435L44.7827 74.0159L44.9796 73.2285L45.3733 72.7364L45.8654 72.5396Z" fill="#FEFDFD"/>
<path d="M7.9717 72.6377H9.54651L10.6292 72.7361L10.9245 72.933L11.0229 73.2282V78.7401L11.2197 79.2322L11.7119 79.3306H17.0268L17.1252 79.2322V73.4251L17.4205 72.7361L17.6174 72.6377H19.0938L21.0623 72.8345L21.5544 73.2282L21.6528 73.5235V80.807L21.5544 83.9566L21.2591 88.3857L20.8654 89.4684L20.1764 89.7637H18.3063L17.5189 89.37L17.2237 88.8779L17.1252 88.4842V86.1219L17.2237 84.9408V83.0708H12.4993L11.4166 83.2676L11.0229 83.4645V84.9408L11.1213 88.9763L10.826 89.2716L10.3339 89.5668L8.7591 89.7637H6.98745L6.69218 89.2716L6.59375 88.3857L6.69218 73.2282L6.98745 72.8345L7.9717 72.6377Z" fill="#FEFDFD"/>
<path d="M32.3801 72.9331L33.2659 73.0315L34.1518 73.5237L34.8407 74.1142L35.5297 75.0985L36.7108 77.3622L37.4982 79.1339L39.073 82.3819L40.1557 84.6457L41.1399 86.4174L41.9274 87.8937L42.1242 88.5827V89.6654L41.6321 90.0591L41.0415 90.1575L39.2699 90.0591L38.6793 89.7638L37.9903 89.1733L37.1045 87.7953L36.6124 86.7126L36.0218 85.4331V85.2363L35.4313 85.1378L32.7738 85.2363H29.9195L29.1321 85.9252L28.6399 86.7126L27.4588 88.9764L26.7699 89.6654L26.1793 89.9607L25.1951 90.1575L23.6203 90.0591L23.325 89.9607L23.2266 89.3701L24.5061 86.3189L25.5888 83.9567L26.573 82.0866L27.3604 80.5118L28.7384 77.8544L29.5258 76.4764L30.8053 74.4095L31.6911 73.3268L32.3801 72.9331Z" fill="#FEFDFD"/>
<path d="M81.1996 72.9331H82.0855L82.9713 73.5237L83.8571 74.4095L85.1367 76.5748L87.1052 80.5118L87.991 82.1851L89.5658 85.3347L90.55 87.1063L90.9437 88.189L91.1406 89.1733L91.0422 89.7638L90.0579 90.3544L89.2705 90.2559L87.991 89.8622L86.9083 89.0748L86.1209 88.0906L85.5304 87.1063L84.743 85.4331L84.3493 85.0394H83.2666L82.1839 85.2363H78.739L78.2469 85.7284L77.7548 86.3189L76.8689 87.9922L76.0815 88.9764L74.9989 89.8622L73.9162 90.3544L72.7351 90.2559L72.243 90.0591L72.1445 89.567L72.8335 87.5985L74.0146 85.1378L74.9989 83.2678L76.0815 81.1024L76.9674 79.2323L77.9516 77.3622L78.739 75.9843L79.6248 74.6063L80.6091 73.3268L81.1996 72.9331Z" fill="#FEFDFD"/>
<path d="M107.184 72.6377H108.267L109.153 72.7361L109.645 73.2282L109.546 74.1141L108.857 74.9999L107.676 76.181L106.594 77.6574L106.397 77.9527H106.2L106.003 78.3464L104.822 79.9212L103.542 81.2991L103.739 81.6928L104.92 83.2676L105.905 84.3503L106.594 85.2361L107.873 86.9093L108.759 88.3857L109.349 90.059V90.6495L109.251 90.7479H108.267L106.79 90.2558L105.216 89.37L103.739 88.0905L102.558 86.7125L101.771 85.433L101.082 84.8424H100.59L100.393 85.2361L98.6211 87.4015L96.4557 89.5668L95.373 90.1574L94.7825 90.5511L93.9951 90.7479L92.9124 91.3385H92.5187L92.3219 90.8464L92.7156 90.059L93.2077 89.2716L93.8967 87.8936L94.8809 86.4172L95.6683 85.3345L96.9478 83.7597L97.7352 82.9723L98.4242 81.8897L98.3258 81.2991L97.2431 79.9212L96.4557 78.9369L95.0778 77.2637L93.9951 75.9842L93.0108 74.803L92.4203 73.9172L92.125 73.0314L92.6171 72.7361H93.8967L95.7667 73.2282L96.6526 73.6219L97.7352 74.4093L98.5226 75.3936L99.2116 76.0826L99.999 77.1653L100.885 77.8542L101.475 77.9527L102.558 76.6731L103.247 75.6889L103.936 74.803L104.625 74.0156L105.708 73.2282L106.79 72.7361L107.184 72.6377Z" fill="#FEFDFD"/>
<path d="M31.9889 79.1338H32.7763L33.4653 79.6259L33.9574 80.4133L34.1543 81.0039V81.8897L33.859 82.0865L33.5637 81.9881L32.9732 82.3818L31.8905 82.4802L31.2015 82.185L30.9062 81.8897V81.2007L31.3 79.8228L31.7921 79.2322L31.9889 79.1338Z" fill="#281D87"/>
<path d="M81.0046 79.1338L81.8904 79.2322L82.5794 79.9212L82.9731 80.7086L83.0715 81.5944L82.8746 81.9881L81.2998 82.3818H80.6109L80.1187 82.0865L79.9219 81.8897V81.0039L80.2172 79.9212L80.6109 79.3306L81.0046 79.1338Z" fill="#281D87"/>
</svg>
