<svg width="299" height="100" viewBox="0 0 299 100" fill="none" xmlns="http://www.w3.org/2000/svg">
<path d="M10.7715 29.8394H12.3726L16.1572 30.1305L19.7962 30.7127L22.4163 31.4405L24.163 32.1683L26.492 33.3328L28.3843 34.6428L29.8399 35.9529L31.2955 37.5541L32.6055 39.5919L33.6245 41.6297L34.6434 44.6865L35.2256 48.0344L35.3712 49.7811V52.2557L35.0801 55.0213L34.4978 57.787L33.6245 60.407L32.1688 63.1727L30.8588 64.9194L29.5488 66.375L27.802 67.8306L25.9098 68.9951L23.8719 70.014L20.3785 71.1785L17.4672 71.7607L13.9738 72.1974H8.58806L3.49345 71.7607L0.727802 71.3241L0 71.0329V31.1494L1.01892 30.7127L5.82242 30.1305L10.7715 29.8394Z" fill="#25429C"/>
<path d="M73.6523 40.6108H81.2215L81.6582 41.9209L83.5505 49.7811L85.2972 56.1858L87.0439 61.8627L87.335 62.5905L87.7717 61.5715L89.664 55.3124L91.4107 48.9078L92.8663 43.0854L93.303 40.902L93.4486 40.6108H98.9799L99.4165 41.9209L100.872 48.18L102.473 54.4391L104.511 61.2804L104.948 62.5905H105.239L105.53 61.1349L107.277 55.3124L109.46 47.3066L110.77 41.7753L111.061 40.6108H118.485L118.194 42.0664L115.865 50.0723L113.245 58.3692L111.352 63.9005L109.897 67.6851L108.441 71.1785L108.005 71.6152L106.84 71.7608H104.366L102.328 71.6152L101.891 70.8874L98.3976 60.5526L96.3598 53.5657L96.0686 52.5468H95.7775L95.4864 54.2935L94.0308 59.3881L92.2841 64.9194L90.1007 71.3241L89.664 71.7608H86.3161L84.1327 71.6152L83.4049 70.4507L81.5126 65.6472L79.9114 61.2804L77.4369 53.8568L75.3991 47.0155L73.6523 40.902V40.6108Z" fill="#25429D"/>
<path d="M218.488 39.7373H222.564L225.184 40.3195L226.93 41.0473L228.823 42.0663L230.715 43.813L232.025 45.7053L232.898 47.5976L233.626 50.0721L234.063 52.8377L234.208 54.8756V58.369L232.607 58.5146H213.393L213.976 60.698L214.703 62.4447L215.722 63.7548L216.887 64.6281L218.342 65.3559L220.671 65.9382L221.836 66.0837H223.874L227.513 65.6471L231.152 64.7737L232.171 70.305L232.025 70.8872L228.823 71.7606L225.329 72.3428L224.019 72.4884H219.216L216.45 71.9062L214.267 71.1784L211.938 69.8683L210.045 68.1216L208.881 66.8115L207.717 64.9193L206.843 62.7358L206.261 60.5524L205.824 56.6223L205.97 53.5655L206.552 50.6543L207.28 48.4709L208.59 45.9964L210.191 43.9586L211.792 42.503L213.684 41.3385L215.722 40.4651L218.488 39.7373Z" fill="#F16B2D"/>
<path d="M54.7343 39.7373H57.4999L60.12 40.174L62.449 41.0473L64.1957 42.0663L65.2146 42.7941L66.2336 43.9586L66.8158 44.6864L67.5436 45.7053L68.5625 48.0342L69.2903 50.5088L69.5814 52.4011L69.727 55.6034L69.5814 58.0779L69.4359 58.369L48.9119 58.5146L49.6397 61.2802L50.3675 62.7358L51.2408 63.9003L52.6964 64.9193L54.4432 65.6471L56.9177 66.0837H60.2656L63.3223 65.6471L66.2336 64.9193H66.8158L67.5436 69.5772L67.6892 70.5961L65.2146 71.4695L61.7212 72.1973L59.2467 72.4884H55.8988L52.842 72.0517L50.513 71.3239L48.7663 70.5961L47.0196 69.4316L45.564 68.1216L44.3995 66.8115L43.0894 64.6281L42.2161 62.2992L41.6338 59.8246L41.4883 58.9513V53.7111L42.2161 50.2177L43.0894 48.0342L44.3995 45.7053L45.564 44.2497L47.0196 42.7941L49.0574 41.484L51.2408 40.4651L53.5698 39.8829L54.7343 39.7373Z" fill="#25429C"/>
<path d="M159.242 39.7373H164.482L166.665 40.174L168.849 40.9018L170.45 41.7752L171.906 43.0852L172.779 44.1041L173.798 46.142L174.38 48.3254L174.671 50.6543V71.0328L171.906 71.615L167.393 72.1973L163.463 72.4884H160.261L156.622 71.9062L154.875 71.3239L153.274 70.4505L151.818 69.1405L150.799 67.976L150.072 66.5204L149.489 64.4826L149.344 63.4636V60.9891L149.926 58.5146L150.799 56.9134L152.109 55.4578L153.565 54.4389L155.457 53.5655L157.932 52.8377L160.115 52.5466H163.754L167.83 52.9833L167.684 52.6922L167.393 50.0721L166.665 48.3254L165.647 47.1609L163.9 46.2875L162.59 45.9964H158.951L155.166 46.5786L153.856 46.8698H153.128L152.401 41.7752L152.546 41.1929L153.565 40.7562L157.786 39.8829L159.242 39.7373Z" fill="#F16B2D"/>
<path d="M266.083 36.3901L266.811 36.5357L269.285 38.1369L271.76 39.5925L272.779 40.1747L272.633 40.6114L270.304 42.3581L268.412 43.9593L266.811 45.2693L264.482 47.5983L262.59 50.0728L261.279 52.4018L260.552 54.2941L260.115 56.3319L259.969 57.3508V59.6798L260.552 62.591L261.425 64.92L262.735 67.2489L264.045 68.8501L265.646 70.5968L267.247 72.198L268.849 73.508L270.595 74.9636L274.525 77.5837L278.601 80.0583L282.968 82.9695L284.86 84.4251L286.898 86.1718L288.79 88.0641L290.392 90.1019L291.847 92.2853L293.157 95.051L293.448 96.0699H285.879L283.841 93.4498L282.24 91.7031L280.785 90.3931L278.456 88.6463L276.272 87.1907L272.196 84.7162L270.595 83.6973L268.412 82.2417L266.374 80.7861L264.773 79.476L262.881 77.8749L261.134 76.2737L258.951 74.0903L257.349 72.0524L256.039 70.1602L254.438 67.1034L253.419 64.0466L252.837 61.1354L252.691 60.1165V56.7686L253.274 53.2751L254.001 50.9462L254.729 49.1995L256.185 46.4338L257.64 44.396L259.387 42.3581L262.444 39.3013L264.045 37.9913L266.083 36.3901Z" fill="#F16B2D"/>
<path d="M258.807 20.8145H264.921L266.376 22.8523L266.522 23.289H266.813L267.395 24.1623L268.123 24.8901L268.851 25.4724L269.579 26.2002L270.306 26.7824V27.0736L270.889 27.3647L273.072 28.9658L278.603 32.4593L279.622 33.0415L281.223 34.0605L281.806 34.3516V34.6427H282.242V34.9338L282.97 35.2249L285.299 36.9717L287.628 38.8639L289.084 40.0284L289.812 40.7562L291.849 42.9396L293.742 45.4142L295.343 48.0343L296.507 50.3632L297.381 52.6922L298.108 55.3123V61.2802L297.235 64.6281L296.071 67.6849L294.906 69.8683L293.742 71.615L292.286 73.5073L290.248 75.6907L288.793 77.1463L287.191 78.4564L285.445 79.912L284.426 80.6398L279.622 77.583L278.167 76.5641L278.312 76.1274L280.35 74.8174L281.951 73.5073L283.844 71.9062L285.736 70.1594L287.337 68.2671L288.793 66.0837L289.812 64.0459L290.539 61.7169L290.83 59.8246V56.7679L290.248 54.2933L289.375 51.9644L288.21 49.9265L286.755 48.0343L284.717 45.8508L282.825 44.1041L280.932 42.6485L278.312 40.7562L275.838 39.1551L272.053 36.8261L268.705 34.6427L265.94 32.6048L264.047 30.8581L262.883 29.8392L261.573 28.3836L260.117 26.4913L258.953 24.599L257.788 22.1245L257.352 20.96L258.807 20.8145Z" fill="#25429C"/>
<path d="M11.0638 36.3901H13.6838L17.3229 36.8268L19.6518 37.5546L21.9808 38.7191L23.4364 39.8836L24.6009 41.0481L25.7654 42.9404L26.6387 45.1238L27.221 47.7438L27.3665 48.7628V53.4207L26.7843 56.3319L26.0565 58.3698L25.1831 59.9709L23.7275 61.8632L22.1264 63.1733L19.9429 64.3377L17.7595 65.0655L15.285 65.5022L13.6838 65.6478H8.00699L7.71587 65.3567L7.57031 64.0466V36.9724L7.71587 36.6813L8.29811 36.5357L11.0638 36.3901Z" fill="#FEFEFE"/>
<path d="M134.785 39.7373H139.152L142.5 40.3195L144.974 41.0473L145.411 41.3385L145.265 42.6485L144.392 45.8508L143.81 47.3064L141.481 46.5786L139.443 46.2875H135.95L134.057 46.7242L132.311 47.7431L131.292 48.762L130.127 50.7999L129.399 52.9833L129.108 55.6034V57.2046L129.545 59.8246L130.273 62.008L131.292 63.6092L132.602 64.7737L134.203 65.5015L135.95 65.9382L137.114 66.0837H139.006L142.354 65.6471L144.829 65.0648L145.12 65.9382L145.848 69.7227V71.0328L144.974 71.4695L140.753 72.3428L139.443 72.4884H134.639L131.874 71.9062L129.545 71.0328L127.361 69.7227L125.469 67.976L124.305 66.5204L123.14 64.337L122.267 61.7169L121.685 58.8057L121.539 57.6412V54.5845L122.121 51.2366L122.995 48.6165L124.305 46.142L125.615 44.5408L126.343 43.6674L128.235 42.2118L130.273 41.0473L132.602 40.174L134.785 39.7373Z" fill="#F16B2D"/>
<path d="M192.288 39.8838H197.674L202.186 40.6116L202.623 40.7572L202.478 42.2128L201.604 46.1429L201.313 47.0162L200.003 46.7251L198.256 46.434H192.725L190.978 46.7251L190.833 50.2186L190.687 71.7615H183.7L183.555 71.616V42.0672L184.865 41.485L189.523 40.3205L192.288 39.8838Z" fill="#F16B2D"/>
<path d="M273.803 0H276.568L278.897 0.873362L280.207 1.89229L281.372 3.49345L282.1 5.09461L282.391 6.40466V8.29694L281.663 10.1892L280.498 11.7904L279.48 12.6638L277.442 13.6827L276.423 13.9738H274.53L272.638 13.3916L271.183 12.5182L269.873 11.2082L268.999 9.75255L268.562 8.29694V5.67686L269.145 3.78457L270.309 2.18341L271.91 0.873362L273.803 0Z" fill="#F16B2D"/>
<path d="M230.277 80.0581H231.296V95.1964L231.004 95.7786L229.258 96.2153H225.619L224.163 95.6331L222.999 94.7597L221.98 93.3041L221.543 91.5574V89.8107L221.834 88.0639L222.416 86.8994L223.29 85.8805L224.163 85.2983L225.182 85.0072H227.511L228.821 85.2983V80.4948L229.403 80.2037L230.277 80.0581Z" fill="#25429C"/>
<path d="M62.5927 85.0073H65.6495L67.2507 85.444L68.5607 86.6085L69.4341 87.9185L69.8708 89.2286V92.2853L69.2885 93.7409L68.2696 95.051L67.1051 95.9244L66.2318 96.2155H64.0483L62.8839 95.7788L62.7383 95.6332L62.5927 95.9244V99.5634L62.4472 100H60.1182L59.9727 87.6274L60.1182 85.5896L61.4283 85.1529L62.5927 85.0073Z" fill="#25429C"/>
<path d="M88.6454 81.5137H91.9933L93.5944 81.8048L95.3412 82.6782L95.7778 83.1148V83.406H96.069L96.6512 84.5704L96.7968 85.1527V87.4816L96.069 88.9373L94.9045 89.9562L93.3033 90.684L92.5755 90.8295L88.9365 91.1207V96.0697H86.3164V81.9504L87.1898 81.6592L88.6454 81.5137Z" fill="#25429C"/>
<path d="M285.734 20.8145H293.449L293.012 22.2701L291.993 24.599L290.974 26.2002L289.664 27.9469L288.063 29.6936L285.88 31.877L284.715 32.896L284.133 32.7504L280.494 30.567L278.456 29.257L278.02 28.9658L278.165 28.5292L280.203 27.0736L282.095 25.3268L283.551 23.8712L285.006 21.9789L285.734 20.8145Z" fill="#F16B2D"/>
<path d="M16.8861 85.0073H19.7973L20.9618 85.5896L21.9807 86.4629L22.8541 87.773L23.2908 89.083L23.4364 89.8108V91.7031L22.9997 93.1587L22.1263 94.6143L20.9618 95.6332L19.5062 96.2155H16.7406L15.285 95.4877L13.9749 94.1776L13.2471 92.722L13.1016 92.1398V89.3741L13.5382 87.9185L14.4116 86.4629L15.7216 85.444L16.8861 85.0073Z" fill="#26429C"/>
<path d="M266.084 84.2788L266.958 84.4244L269.286 85.88L271.179 87.0445L272.78 87.9178L272.052 88.6456L270.16 90.2468L268.995 91.2657L266.812 93.4491L265.211 95.6325L264.92 95.9236L264.192 96.0692H260.116L257.496 95.9236L257.642 95.0503L258.806 92.5758L260.262 90.2468L261.572 88.6456L263.173 86.8989L264.337 85.7344L265.939 84.4244L266.084 84.2788Z" fill="#25429C"/>
<path d="M180.495 85.0073H183.843L184.716 85.5896L185.444 85.8807L186.463 85.2984L187.482 85.0073H189.957L191.267 85.5896L192.14 86.754L192.577 87.773L192.722 89.083V96.0699H190.248L190.102 90.3931L189.957 88.0641L189.374 87.3363L188.792 87.1907H186.463V96.0699H184.134L183.989 95.9244L183.843 88.7919L183.552 87.773L183.115 87.3363L182.678 87.1907H180.35L180.204 96.0699H177.875V85.444L179.039 85.1529L180.495 85.0073Z" fill="#25429C"/>
<path d="M161.425 57.7871H164.772L167.247 58.0782L167.538 58.2238L167.684 58.806V66.2296L167.538 66.3752L163.899 66.6663H161.861L159.823 66.3752L158.368 65.7929L157.349 64.9196L156.767 63.6095L156.621 63.0273V61.2806L157.494 59.5338L158.368 58.806L159.532 58.2238L161.425 57.7871Z" fill="#FEFEFE"/>
<path d="M54.291 45.8511H57.4933L59.0944 46.4333L60.2589 47.3067L61.4234 48.6167L62.1512 50.3634L62.4423 51.8191V52.838L62.2968 52.9835H49.0508V51.9646L49.633 50.2179L50.3608 48.7623L51.6709 47.3067L52.8354 46.4333L54.291 45.8511Z" fill="#FEFEFE"/>
<path d="M219.94 45.7061L221.978 45.8516L223.724 46.5794L225.034 47.5983L225.908 48.7628L226.636 50.5095L227.072 52.4018V52.8385L226.053 52.9841H214.7L213.535 52.8385L213.681 51.5285L214.7 49.1995L215.864 47.5983L217.174 46.5794L219.066 45.8516L219.94 45.7061Z" fill="#FEFEFE"/>
<path d="M214.263 84.8613L216.156 85.0069L217.466 85.5891L218.485 86.7536L219.067 87.7725L219.504 89.6648V91.1204L218.776 91.4115H212.08L212.517 92.7216L213.099 93.4494L213.972 93.8861L214.7 94.0316L217.029 93.8861H218.63V95.3417L218.048 95.9239L216.738 96.215H213.681L212.371 95.7784L211.207 94.905L210.333 93.8861L209.751 92.576L209.605 91.8482V89.3737L210.333 87.3359L211.643 85.8803L212.808 85.1524L214.263 84.8613Z" fill="#25429C"/>
<path d="M52.2595 84.8613L54.1518 85.0069L55.6074 85.7347L56.6263 87.0447L57.2085 88.3548L57.4997 89.8104V91.1204L56.7719 91.4115H49.9305L50.5128 92.7216L51.2406 93.595L52.4051 94.0316H54.4429L55.3163 93.8861H56.4807V95.4872L56.0441 95.9239L54.734 96.215H51.5317L50.0761 95.6328L48.6205 94.3228L47.7471 92.576L47.6016 91.8482V89.3737L48.1838 87.627L49.2027 86.1714L50.5128 85.298L52.2595 84.8613Z" fill="#25429C"/>
<path d="M147.308 85.0073H149.928L151.238 85.5896L152.257 86.6085L152.985 87.9185L153.276 89.3741V91.1209L152.694 91.412L146.144 91.5575L146.289 92.4309L146.871 93.3043L147.454 93.7409L148.472 94.0321H149.928L151.093 93.8865H152.403L152.548 94.9054L152.257 95.6332L151.529 96.0699L150.51 96.2155H147.454L145.998 95.6332L144.542 94.3232L143.815 93.0131L143.523 91.9942V89.3741L143.96 87.9185L144.833 86.4629L145.852 85.5896L147.308 85.0073Z" fill="#25429C"/>
<path d="M234.5 30.5679L236.392 30.7134L237.556 31.1501L239.012 32.4602L239.74 33.9158L239.885 34.498V36.2447L239.303 37.8459L238.284 39.1559L237.12 39.8837L236.101 40.1749H233.772L232.607 39.7382L231.297 38.7193L230.569 37.5548L230.133 35.808L230.278 34.2069L230.861 32.7513L231.88 31.5868L233.19 30.859L234.5 30.5679Z" fill="#FEFEFE"/>
<path d="M127.072 84.8613H128.818L130.128 85.1524L131.002 85.5891L131.584 86.3169L132.166 87.4814L132.457 88.7915V95.3417L132.021 95.9239L130.274 96.215H126.489L125.325 95.7784L124.451 95.1961L123.724 94.0316L123.578 92.576L123.869 91.266L124.451 90.3926L125.325 89.8104L127.363 89.3737H130.128L129.692 88.0637L129.109 87.3359L128.382 87.0447H126.635L125.907 87.1903H124.888L124.597 85.7347L125.179 85.1524L127.072 84.8613Z" fill="#25429C"/>
<path d="M5.96695 81.3677H8.58704L10.3338 81.8044L11.4982 82.5322L11.2071 83.26L10.6249 84.4244L9.89708 84.1333L8.15035 83.6966H6.25807L5.09359 84.1333L3.78354 85.2978L3.05574 86.7534L2.91018 87.3357V90.1013L3.2013 91.4113L4.07466 92.8669L5.38471 93.7403L7.27699 94.0314L9.31484 93.7403L10.3338 93.4492H11.0616L11.6438 94.9048L11.3527 95.487L9.02372 96.2148H5.38471L3.78354 95.6326L2.61906 95.0504V94.7592L2.03682 94.4681L0.726773 92.4303L0.144531 90.6835V87.3357L0.726773 85.4434L1.60014 83.9878L2.4735 82.9688L3.9291 81.9499L5.23915 81.5132L5.96695 81.3677Z" fill="#25429C"/>
<path d="M28.3837 85.0073H32.1682L33.4783 85.5896L34.2061 86.3174L34.7883 87.3363L35.225 89.083V96.0699H32.7505L32.6049 95.9244L32.4593 88.7919L32.1682 87.773L31.586 87.3363L31.0037 87.1907H28.5292V96.0699H26.0547V85.7351L26.2002 85.444L28.3837 85.0073Z" fill="#25429C"/>
<path d="M160.988 81.6587H163.463L163.608 93.7402H170.159V96.0692H160.988V81.6587Z" fill="#25429D"/>
<path d="M203.349 81.9502H204.077V85.1525H207.862L208.007 86.1714L207.862 87.1904H204.077L204.223 92.7217L204.514 93.7406L205.242 94.0317H206.843L207.425 93.7406L208.007 93.8861L208.153 94.3228V95.7784L207.425 96.0696L206.552 96.2151H204.223L203.204 95.7784L202.33 95.0506L201.748 93.8861L201.603 93.3039L201.457 91.1205V87.3359L201.603 82.3869L202.476 82.0958L203.349 81.9502Z" fill="#25429D"/>
<path d="M74.5232 81.9502H74.8144L74.9599 85.007L78.5989 85.1525L78.7445 85.2981V87.0448L78.5989 87.1904H74.8144L75.1055 92.8672L75.3966 93.8861L75.9789 94.0317H77.4345L78.7445 93.8861L79.0356 94.1773L79.1812 95.4873L78.4534 96.0696L77.7256 96.2151H74.9599L73.7954 95.6329L72.9221 94.614L72.4854 93.1583L72.3398 90.6838V83.2602L72.631 82.2413L74.5232 81.9502Z" fill="#25429C"/>
<path d="M137.263 81.9502H137.846V85.1525H141.63L141.776 85.2981V87.0448L141.63 87.1904H137.846L137.991 92.1394L138.137 93.595H138.428V93.8861L140.175 94.1773L141.63 93.7406L142.067 94.7595V95.6329L141.485 96.0696L140.611 96.2151H138.137L136.972 95.7784L135.953 94.614L135.517 93.595L135.371 92.5761V82.5324L135.662 82.2413L137.263 81.9502Z" fill="#25429C"/>
<path d="M112.81 85.1523H114.411L114.702 85.4435L115.575 88.2091L116.449 90.8292L117.177 92.7215V93.0126H117.468L117.904 91.557L119.942 85.2979L120.088 85.1523H122.271L122.417 85.589L120.67 90.6836L118.632 95.6327L118.196 96.0694H116.449L115.721 95.196L113.974 90.9748L112.664 87.3357L112.082 85.2979L112.81 85.1523Z" fill="#25429C"/>
<path d="M42.3572 84.8613H43.9583L45.705 85.298L46.1417 85.5891L45.8506 86.3169L45.4139 87.3359L44.9772 87.4814L44.2494 87.1903L43.085 87.0447L41.6293 87.4814L40.6104 88.6459L40.3193 89.5193V91.5571L40.756 92.7216L41.4838 93.595L42.5027 94.0316H44.2494L44.8317 93.8861H45.9962L46.1417 94.6139V95.7784L45.705 96.0695L44.8317 96.215H41.6293L40.3193 95.6328L39.0093 94.6139L38.1359 93.3038L37.6992 91.5571V89.8104L38.2815 87.9181L39.0093 86.7536L40.0282 85.7347L41.1927 85.1524L42.3572 84.8613Z" fill="#26429C"/>
<path d="M101.745 85.0073H104.656L105.675 85.2984L105.53 87.1907L105.239 87.3363L104.365 87.1907H101.891L101.745 87.3363L101.6 96.0699H99.2706L99.125 95.9244V91.8487L99.2706 85.5896L100.726 85.1529L101.745 85.0073Z" fill="#25429D"/>
<path d="M17.7587 86.8989L19.0687 87.0445L20.3787 88.0634L20.8154 89.0823L20.961 89.9557V91.2657L20.6699 92.5758L20.0876 93.4491L18.9231 94.1769L18.0498 94.3225L16.7397 93.8858L15.8664 92.8669L15.4297 91.5569V89.6646L15.8664 88.3545L16.5942 87.4812L17.7587 86.8989Z" fill="#FEFEFE"/>
<path d="M62.7403 87.0449H65.0693L66.2338 87.6272L66.9616 88.5005L67.3983 89.665V91.8484L66.9616 93.0129L65.9427 93.8863L65.3604 94.1774H64.1959L62.8859 93.7407L62.5948 93.4496L62.4492 91.994V87.4816L62.7403 87.0449Z" fill="#FEFEFE"/>
<path d="M226.053 87.0449H227.509L228.674 87.4816L228.819 87.9183V93.5951L228.528 94.0318L226.49 94.1774L225.471 93.8863L224.743 93.1585L224.161 91.994L224.016 91.2662V89.9561L224.307 88.6461L224.889 87.7727L225.617 87.1905L226.053 87.0449Z" fill="#FEFEFE"/>
<path d="M108.731 85.1523H110.041L110.186 85.2979V93.886L110.041 96.0694H107.712L107.566 95.9238V89.3736L107.712 85.2979L108.731 85.1523Z" fill="#25429D"/>
<path d="M172.487 85.1523H174.38L174.525 85.2979V96.0694H172.051V85.2979L172.487 85.1523Z" fill="#25429D"/>
<path d="M196.654 85.1523H198.255L198.4 85.2979V96.0694H195.926V85.2979L196.654 85.1523Z" fill="#25429D"/>
<path d="M88.9385 83.8428H92.2864L93.4509 84.2795L94.0331 85.1528L94.1787 85.5895V87.0451L93.742 87.7729L92.8687 88.3551L91.8497 88.6463L90.5397 88.7918H89.2296L88.9385 88.6463L88.793 87.9185V83.9883L88.9385 83.8428Z" fill="#FEFEFE"/>
<path d="M234.5 30.5679L236.392 30.7134L237.556 31.1501L239.012 32.4602L239.74 33.9158L239.885 34.498V36.2447L239.303 37.8459L238.284 39.1559L237.12 39.8837L236.101 40.1749H233.772L232.607 39.7382L231.297 38.7193L230.569 37.5548L230.133 35.808L230.278 34.2069L230.861 32.7513L231.88 31.5868L233.19 30.859L234.5 30.5679ZM234.063 31.4412L232.898 31.8779L231.734 32.8968L231.152 34.0613L231.006 34.7891V36.0992L231.443 37.5548L232.607 38.8648L233.626 39.4471L235.373 39.5926L236.537 39.3015L237.848 38.5737L238.721 37.4092L239.012 36.5358V34.3524L238.43 33.0424L237.411 32.0235L236.537 31.5868L235.955 31.4412H234.063Z" fill="#25429C"/>
<path d="M234.501 32.8965H235.52L236.393 33.1876L236.83 33.7698L236.684 34.9343L235.956 35.6621L236.102 36.2444L236.83 37.2633L236.975 38.1367L236.247 37.9911L235.228 36.3899L234.937 36.2444H233.627L233.773 38.1367L233.045 37.8455L232.899 37.5544L232.754 33.9154L233.191 33.1876L234.501 32.8965Z" fill="#25429C"/>
<path d="M128.093 91.1206H129.257L129.985 91.4117L130.13 91.5573V93.8863L129.403 94.3229H127.219L126.491 93.8863L126.055 92.8673L126.2 91.8484L127.074 91.2662L128.093 91.1206Z" fill="#FEFEFE"/>
<path d="M51.9665 86.8989H53.2765L54.441 87.7723L54.8777 88.5001L55.0233 89.3735L54.7322 89.519H50.0742L50.2198 88.6457L51.0931 87.4812L51.9665 86.8989Z" fill="#FEFEFE"/>
<path d="M147.891 86.8989H149.201L149.784 87.19L150.802 88.5001L150.948 89.3735L150.657 89.519H146.145L146.29 88.209L147.309 87.19L147.891 86.8989Z" fill="#FEFEFE"/>
<path d="M213.97 86.8989H215.28L216.445 87.7723L217.027 88.7912V89.3735L216.59 89.519H212.224L212.078 89.2279L212.515 88.209L213.388 87.19L213.97 86.8989Z" fill="#FEFEFE"/>
<path d="M173.217 80.4946L174.091 80.6402L174.673 81.2224L174.818 82.3869L174.236 83.1147L173.654 83.4058L172.344 83.2603L171.907 82.8236L171.762 81.5136L172.053 80.9313L173.217 80.4946Z" fill="#25429D"/>
<path d="M197.088 80.4946L197.962 80.6402L198.544 81.2224L198.69 82.5325L197.525 83.4058H196.652L195.778 82.8236L195.633 82.5325V81.5136L196.215 80.7857L197.088 80.4946Z" fill="#25429D"/>
<path d="M108.441 80.4946L109.751 80.6402L110.188 81.2224L110.333 82.5325L109.605 83.2603L109.314 83.4058H108.295L107.422 82.5325V81.5136L107.713 80.9313L108.441 80.4946Z" fill="#25429D"/>
<path d="M234.062 33.77H235.663L236.1 34.2067L235.954 34.7889L235.517 35.2256L234.207 35.3712L233.771 35.2256L233.625 34.3523L233.771 33.9156L234.062 33.77Z" fill="#FEFEFE"/>
</svg>
