<svg width="300" height="99" viewBox="0 0 300 99" fill="none" xmlns="http://www.w3.org/2000/svg">
<path d="M0 0H300V98.877H0V0Z" fill="#1D4D5B"/>
<path d="M27.0996 73.3882H100.488L109.131 73.5347L109.277 85.2534L109.131 85.3999L19.3359 85.5464L18.8965 85.3999L18.75 82.9097V76.4644L18.8965 73.5347L27.0996 73.3882Z" fill="#B0D26B"/>
<path d="M17.8691 22.1187H39.1094L41.7461 22.4116L44.8223 23.144L47.6055 24.3159L49.2168 25.3413L50.6816 26.6597L51.707 27.8315L52.8789 30.0288L53.4648 32.2261L53.6113 34.7163L53.3184 36.9136L52.4395 39.1108L51.2676 40.7222L49.9492 42.0405L47.752 43.5054L45.2617 44.5308L43.3574 45.1167H43.0645L43.7969 46.5815L45.5547 49.3647L48.0449 53.6128L50.5352 57.7144L51.707 59.3257L53.3184 61.23L55.2227 62.6948L57.5664 63.7202L58.0059 64.3062L57.8594 65.3315L57.4199 65.771L56.3945 66.064L54.7832 66.2104H52L50.2422 65.9175L48.3379 65.1851L46.873 64.3062L45.4082 62.9878L43.9434 61.5229L42.4785 59.6187L41.0137 57.4214L38.5234 53.1733L37.0586 50.6831L35.7402 48.4858L34.5684 46.4351L34.4219 45.7026H31.6387V65.478L31.3457 65.6245H23.1426L22.8496 65.3315L22.7031 28.564L22.2637 26.3667L21.5312 25.0483L20.3594 24.4624L18.748 24.3159L17.8691 24.1694L17.7227 24.0229V22.2651L17.8691 22.1187Z" fill="#FBFDFA"/>
<path d="M157.908 20.8008H171.092L170.213 21.8262L168.748 24.0234L167.137 27.2461L166.697 27.3926L160.105 27.5391L158.055 31.0547L155.564 35.3027L154.1 37.793L152.049 41.3086L151.17 42.9199V43.6523L153.367 47.3145L155.271 50.5371L159.08 57.2754L159.812 58.7402L161.424 58.8867H177.684L178.709 58.5938L180.906 54.7852L182.664 51.709L184.129 49.2188L187.205 43.9453L187.498 43.2129L186.326 41.0156L185.008 38.8184L183.836 36.7676L183.982 36.1816L186.033 34.1309L187.352 32.5195L188.23 31.2012L188.816 31.7871L190.428 34.8633L191.893 37.3535L193.65 40.4297L194.676 42.4805V43.5059L194.09 45.1172L192.625 47.9004L191.014 50.6836L188.816 54.4922L187.352 56.9824L185.301 60.6445L183.689 63.2812L182.371 64.7461L181.639 65.332L181.199 65.4785L174.314 65.625H158.055L156.736 65.1855L155.418 64.0137L153.66 61.2305L152.195 58.5938L147.801 50.9766L146.336 48.4863L144.578 45.5566L143.992 43.9453V42.627L144.578 41.0156L146.189 37.9395L147.508 35.7422L149.266 32.666L151.316 29.1504L153.514 25.3418L155.564 22.2656L156.736 21.2402L157.908 20.8008Z" fill="#B0D26B"/>
<path d="M254.738 22.1187H257.521L258.107 22.8511L260.598 28.8569L263.381 35.5952L267.922 46.4351L270.705 53.1733L272.316 56.9819L273.488 59.3257L274.514 60.937L275.539 62.1089L277.15 63.1343L278.615 63.7202L279.348 64.3062V65.1851L278.615 65.6245L277.736 65.771H273.928L271.73 65.478L269.387 64.5991L267.775 63.7202L266.018 62.1089L264.846 60.7905L263.674 58.7397L262.209 55.3706L261.477 53.6128H244.191L241.848 58.8862L240.09 62.6948L238.918 65.3315L238.479 65.771L235.402 65.6245L235.549 64.8921L237.453 60.644L238.771 57.7144L240.383 54.0522L242.434 49.5112L245.07 43.5054L246.389 40.5757L248.586 35.5952L254.445 22.4116L254.738 22.1187Z" fill="#FBFDF9"/>
<path d="M96.5312 22.1187H103.123L105.613 22.5581L107.811 23.437L109.422 24.6089L111.18 26.3667L112.498 27.978L114.256 29.8823L115.428 31.3472L117.039 33.2515L118.65 35.0093L120.262 37.0601L121.727 38.6714L123.045 40.2827L124.949 42.48L126.707 44.5308L128.611 46.728L129.93 48.3394L131.395 49.9507L132.42 51.1226L133.006 51.855L133.152 22.2651L133.299 22.1187H136.521L136.668 37.646V65.6245L136.521 65.771L134.178 65.9175L133.445 65.771L132.127 64.4526L131.102 63.1343L129.49 61.23L128.172 59.6187L126.414 57.5679L125.096 55.9565L123.777 54.4917L122.459 52.8804L121.287 51.562L119.969 49.9507L118.211 47.8999L116.6 45.9956L114.842 43.9448L113.523 42.3335L111.619 40.1362L109.861 38.0854L106.639 34.2769L105.906 33.2515V32.9585H105.613L105.76 35.0093L105.906 65.478L105.76 65.6245H102.684L102.391 65.3315L102.244 29.1499L101.951 27.2456L101.219 25.7808L100.486 25.1948L99.3145 24.6089L97.4102 24.3159L96.2383 24.0229V22.4116L96.5312 22.1187Z" fill="#FBFDF9"/>
<path d="M58.1504 22.1187H87.1543L89.0586 22.4116L90.5234 22.9976L91.5488 24.0229L92.1348 25.4878L92.4277 27.3921L92.2812 32.3726L92.1348 33.105L91.1094 33.2515L90.5234 32.812L89.9375 30.1753L89.3516 28.564L88.4727 27.2456L86.8613 26.2202L85.3965 25.6343L83.9316 25.3413L80.416 25.1948H75.1426L71.7734 25.3413V41.6011L73.2383 41.4546H88.4727L88.7656 41.6011V44.3843L88.6191 44.5308L71.7734 44.6772V59.7651L71.627 62.5483L83.7852 62.4019L86.4219 61.9624L88.1797 61.23L89.9375 60.0581L91.4023 58.3003L92.5742 55.9565L93.1602 55.2241L94.4785 55.3706L94.918 55.8101L94.7715 56.689L93.1602 61.0835L91.9883 63.2808L90.8164 64.7456L89.6445 65.3315L88.6191 65.6245H63.2773L63.1309 65.478L62.9844 62.8413V30.7612L62.8379 28.4175L62.252 26.3667L61.5195 24.9019L60.7871 24.4624L58.7363 24.3159L58.0039 23.8765V22.2651L58.1504 22.1187Z" fill="#FBFDF9"/>
<path d="M235.693 73.3882H268.506L278.467 73.5347V85.3999L277.734 85.5464H235.693L235.547 78.9546V76.1714L235.693 73.3882Z" fill="#B0D26B"/>
<path d="M197.164 21.5327H201.998L204.781 22.1187L206.393 22.8511L208.004 23.8765L209.469 25.1948L210.787 26.9526L212.398 30.0288L214.01 33.9839L215.914 38.5249L217.818 42.9194L219.869 47.7534L222.213 53.3198L222.506 54.0522L223.092 52.8804L225.436 47.314L228.658 39.8433L230.709 35.0093L234.518 26.2202L235.836 23.144L236.422 22.1187H239.205L239.498 22.2651L239.352 23.144L237.887 26.5132L235.982 31.0542L234.225 35.1558L230.855 43.0659L228.658 48.1929L226.754 52.5874L224.703 57.4214L222.359 62.8413L221.041 65.9175L220.602 66.3569H218.404L217.818 65.6245L216.207 61.8159L214.303 57.2749L212.838 53.7593L210.494 48.1929L208.59 43.6519L206.979 39.8433L204.488 33.9839L202.73 29.7358L201.559 27.3921L200.387 25.3413L199.068 24.0229L197.457 23.2905L196.432 22.8511L196.285 22.7046V21.9722L196.578 21.6792L197.164 21.5327Z" fill="#FBFDFA"/>
<path d="M179.297 20.6543L181.201 20.8008L182.959 21.5332L184.277 22.5586L185.449 24.0234L186.035 25.4883L186.182 26.6602L185.742 28.7109L184.717 30.4688L183.105 32.2266L182.227 33.252L180.615 34.5703L179.297 35.7422L177.686 37.0605L176.367 38.2324L175.049 40.5762L174.17 42.627L173.437 45.9961L173.145 47.7539L172.852 48.1934L172.266 46.875L170.801 42.334L169.922 38.3789L169.629 36.4746V32.0801L170.068 29.4434L170.947 26.8066L172.266 24.6094L174.17 22.7051L175.781 21.6797L177.539 20.9473L179.297 20.6543Z" fill="#FCFDFB"/>
<path d="M33.8359 24.7554H36.7656L39.1094 25.3413L40.7207 26.2202L42.0391 27.2456L42.918 28.4175L43.6504 29.8823L44.0898 31.4937L44.2363 32.519V35.0093L43.9434 37.0601L43.3574 38.6714L42.332 40.2827L41.1602 41.3081L39.6953 42.187L37.9375 42.7729L35.8867 43.0659H31.4922V25.4878L32.957 24.9019L33.8359 24.7554Z" fill="#1D4D5B"/>
<path d="M252.977 33.5449L253.416 34.1309L255.906 40.1367L257.811 44.5312L260.154 50.3906V50.5371H245.945L245.652 50.3906L245.945 49.5117L247.85 45.2637L250.633 38.9648L252.391 34.8633L252.977 33.5449Z" fill="#1D4D5B"/>
<path d="M161.867 38.9648H164.357L165.969 39.5508L167.141 40.4297L168.166 41.3086L169.484 43.2129L170.217 44.9707L170.803 47.0215L171.242 50.2441V54.6387L171.096 54.9316L170.51 54.6387L169.338 52.2949L168.02 50.6836L166.848 49.8047L164.504 48.6328L161.867 47.4609L160.256 46.582L159.23 45.7031L158.352 43.9453V42.334L159.23 40.5762L160.402 39.5508L161.867 38.9648Z" fill="#FAFDF9"/>
<path d="M191.16 73.6812L194.383 73.8276L194.969 74.5601L197.02 78.2222L198.191 80.2729L198.777 81.4448V75.8784L198.484 74.5601L197.898 73.8276L198.045 73.6812H200.975L201.268 73.8276L201.121 74.4136L200.535 74.853L200.389 79.687V85.1069L199.949 85.5464H198.631L197.898 85.1069L196.434 82.4702L195.115 80.2729L193.357 77.1968V83.9351L193.65 84.521L194.236 84.9604L194.09 85.5464H191.16L190.867 85.3999L191.16 84.814L191.6 84.3745V74.853L191.014 74.1206L191.16 73.6812Z" fill="#F5FAEE"/>
<path d="M180.322 73.6812H188.379L188.525 73.8276V76.0249L188.232 76.6108L187.5 76.3179L186.182 74.9995L183.838 74.853L183.691 78.8081L185.303 78.6616L185.596 78.0757L186.182 77.4897L186.768 77.7827L187.061 78.5151V80.7124L186.914 81.1519L186.182 81.2983L185.596 80.7124L185.156 80.1265L183.691 79.8335V84.228L186.328 84.0815L187.061 83.0562L187.646 82.0308H188.379L188.525 82.1772V85.2534L187.939 85.5464L180.469 85.6929L180.176 85.5464L180.322 84.814L180.762 84.228V74.9995L180.176 74.2671L180.322 73.6812Z" fill="#F3F9EB"/>
<path d="M141.943 73.6812H149.561L149.854 73.8276L150 74.9995L149.854 76.4644L149.121 76.6108L147.949 75.146L147.51 74.9995H145.312L145.166 75.7319V78.8081L146.631 78.6616L147.51 77.4897L148.242 77.6362L148.389 77.9292V80.8589L147.949 81.1519L147.07 81.0054L146.631 80.1265L145.166 79.98V84.0815H147.949L148.828 82.3237L149.268 82.0308L149.854 82.1772L150 82.9097V84.3745L149.707 85.3999L148.828 85.5464H142.09L141.504 85.3999L141.65 84.814L142.236 84.228V74.9995L141.65 74.2671V73.8276L141.943 73.6812Z" fill="#F3F9EB"/>
<path d="M214.6 73.6812H222.656L222.803 74.1206V76.4644L222.363 76.6108L221.777 76.3179L221.045 75.5854L220.459 75.146L218.115 74.853V78.8081H219.141L219.727 78.5151L220.312 77.4897L221.045 77.6362L221.338 78.6616V80.8589L221.191 81.1519H220.312L219.58 80.1265L218.115 79.98V84.228L220.605 84.0815L221.045 83.6421L221.777 82.3237L222.51 82.0308L222.803 82.1772V85.2534L222.656 85.3999L221.338 85.5464H214.6L214.453 84.9604L215.186 84.0815V75.2925L214.6 74.1206V73.6812Z" fill="#F5FAEF"/>
<path d="M131.252 73.6812H139.162L139.309 73.9741L139.162 76.4644L138.576 76.7573L137.99 76.4644L137.258 75.146L136.965 74.9995L134.768 74.853V78.9546L136.379 78.8081L136.965 77.6362L137.697 77.4897L137.99 77.7827V80.7124L137.844 81.7378L137.111 81.4448L136.379 80.5659L136.232 80.2729L134.621 80.1265L134.768 83.6421L135.207 84.6675L135.793 85.1069L135.646 85.5464H131.105V84.9604L131.838 84.6675V74.7065L131.105 74.4136V73.8276L131.252 73.6812Z" fill="#F4F9ED"/>
<path d="M228.955 73.5352H230.42L232.471 73.8281L232.617 73.9746V76.6113L232.178 76.7578L231.006 75.7324L230.713 75.1465L229.248 74.8535L228.223 75.293L227.93 76.1719L228.369 77.0508L229.395 77.9297L231.592 79.3945L232.471 80.4199L232.764 81.1523V83.0566L232.178 84.2285L231.152 85.1074L229.98 85.5469H226.172L225.293 85.2539L225.146 84.9609L225 82.9102L225.293 82.3242L226.172 82.6172L227.344 83.9355L227.93 84.2285H229.248L229.98 83.4961L230.127 83.2031V82.3242L229.248 81.1523L227.197 79.9805L225.732 78.6621L225.293 77.1973L225.439 75.8789L226.025 75L227.49 73.9746L228.955 73.5352Z" fill="#F7FAF1"/>
<path d="M155.713 73.5352H158.203L159.521 73.8281L159.814 74.1211V76.3184L159.668 76.4648H158.936L157.764 75.1465L156.885 74.8535H155.859L155.42 75.1465L155.273 75.5859V76.9043L156.006 77.6367L158.203 79.1016L159.521 80.2734L159.961 81.2988V83.0566L159.229 84.2285L158.057 85.2539L157.178 85.5469H153.076L152.49 85.2539L152.344 84.9609V82.4707L152.783 82.3242L153.809 83.2031L154.395 84.082L154.834 84.2285H156.299L156.885 83.9355L157.178 83.3496V82.1777L156.592 81.2988L154.541 80.127L153.369 79.1016L152.637 77.7832L152.49 77.3438V76.1719L153.076 75L154.248 73.9746L155.713 73.5352Z" fill="#F6FAF1"/>
<path d="M166.846 73.5352H169.043L170.361 73.8281L170.654 74.2676V76.4648L170.508 76.7578L169.629 76.4648L168.457 75L168.018 74.8535H166.992L166.113 75.4395L165.527 76.6113L165.234 77.9297V81.7383L165.674 83.2031L166.26 84.082L166.699 84.2285H168.164L168.75 83.9355L169.775 82.4707L170.215 82.3242L170.654 82.7637V84.9609L169.482 85.4004L167.285 85.6934L165.088 85.4004L163.77 84.5215L162.891 83.2031L162.451 81.8848L162.305 81.1523V78.3691L162.891 76.4648L163.623 75.293L164.795 74.2676L165.674 73.8281L166.846 73.5352Z" fill="#F5FAEE"/>
<path d="M208.154 73.5352H210.205L211.523 73.9746L211.963 74.4141L212.109 75V76.4648L211.67 76.6113L210.938 76.3184L210.059 75.1465L209.619 75H208.154L207.422 75.5859L206.836 76.7578L206.543 78.0762V81.4453L207.129 83.3496L207.861 84.2285L209.033 84.375L210.059 83.9355L210.938 82.6172H211.816L212.109 83.0566V84.375L211.816 85.1074L210.498 85.5469L208.154 85.6934L206.543 85.4004L205.518 84.8145L204.639 83.7891L204.053 82.6172L203.613 81.0059V78.5156L204.199 76.6113L205.078 75.1465L206.25 74.2676L207.568 73.6816L208.154 73.5352Z" fill="#F5FAEF"/>
<path d="M113.67 73.6812H117.625L118.064 74.1206L117.479 75.146L117.332 75.7319L117.186 84.228L119.822 84.0815L120.555 82.1772L120.994 81.7378L121.58 81.8843L121.727 82.0308V85.2534L121.58 85.3999L120.262 85.5464H113.67L113.523 85.2534L113.67 84.814L114.256 84.6675L114.402 78.5151V75.146L113.67 74.2671V73.6812Z" fill="#F6FAEF"/>
<path d="M173.436 73.6812H177.098L177.391 73.8276L177.098 74.5601L176.951 74.7065L176.805 76.3179V84.228L177.537 84.9604V85.3999L176.219 85.5464H173.289L173.143 84.9604L173.729 84.228V74.9995L172.996 74.1206V73.8276L173.436 73.6812Z" fill="#F6FAF0"/>
<path d="M124.363 73.6812H128.172L128.611 73.9741L128.318 74.5601L127.879 74.853L127.732 81.5913V84.0815L128.172 84.521L128.758 84.9604L128.611 85.3999L126.561 85.5464H124.217V84.9604L124.656 84.521L124.803 84.0815V75.2925L124.51 74.5601L124.07 74.1206V73.8276L124.363 73.6812Z" fill="#F8FCF5"/>
<path d="M19.043 72.9492L20.6543 73.0957H84.2285L84.375 73.3887L81.5918 73.5352H45.8496L18.75 73.3887L19.043 72.9492Z" fill="#143A4B"/>
<path d="M249.611 85.3999H277.736L278.615 85.5464V85.6929L273.488 85.8394H240.676V85.6929L249.611 85.3999Z" fill="#143A4B"/>
<path d="M88.623 65.478H89.3555L88.916 65.771L87.7441 66.064L85.5469 66.2104L78.8086 66.3569H71.7773L63.5742 65.9175V65.771L67.2363 65.6245L88.623 65.478Z" fill="#113446"/>
<path d="M178.855 57.7148H179.148L179.002 58.3008L178.562 58.8867L177.684 59.0332H161.424L159.812 58.8867V58.4473L174.021 58.3008L177.684 58.1543L178.855 57.7148Z" fill="#133849"/>
<path d="M75.1484 25.0483H80.4219L83.9375 25.1948L85.4023 25.4878L85.6953 25.7808L81.8867 25.6343H73.0977L72.2188 25.9272L72.0723 27.0991L72.2188 40.8687L72.8047 41.1616L74.5625 41.3081V41.4546L73.2441 41.6011H71.7793L71.6328 25.1948L75.1484 25.0483Z" fill="#123647"/>
<path d="M71.9238 44.6772H87.3047V44.8237L85.1074 44.9702L73.2422 45.1167L72.3633 45.2632L72.2168 46.1421L72.0703 60.3511L72.2168 61.9624L72.5098 62.1089L74.707 62.2554V62.4019H71.7773V44.8237L71.9238 44.6772Z" fill="#103244"/>
<path d="M143.848 43.7983L144.141 43.9448L144.873 45.8491L146.631 48.7788L148.682 52.2944L150.879 56.103L152.637 59.1792L154.248 61.9624L155.713 64.1597L156.738 65.0386L157.031 65.1851V65.478L156.299 65.1851L155.127 64.0132L153.809 61.9624L152.637 60.0581L151.465 58.0073L150 55.6636L149.121 54.0522L147.803 51.855L146.191 49.2183L145.166 47.6069L144.141 45.5562L143.848 44.3843V43.7983Z" fill="#123748"/>
<path d="M19.043 72.9492L20.6543 73.0957H47.0215L47.4609 73.3887H18.75L19.043 72.9492Z" fill="#103244"/>
<path d="M150.295 30.3223L150.441 30.9082L148.391 34.5703L146.193 38.2324L144.875 40.7227H144.582L144.729 39.8438L145.607 37.793L146.779 35.8887L147.658 34.1309L148.684 32.666L149.562 31.2012L150.295 30.3223Z" fill="#123748"/>
<path d="M31.7871 45.8491H33.8379V45.9956L32.666 46.2886L32.2266 46.5815L31.9336 50.2437V64.1597L31.6406 64.3062V46.728L31.7871 45.8491Z" fill="#103244"/>
<path d="M155.566 21.8257H155.859L155.566 22.4116L153.516 25.6343L151.318 29.4429L150.879 30.1753H150.586L150.732 29.2964L151.904 26.8062L152.783 25.1948L153.516 24.1694L154.102 23.144L155.566 21.8257Z" fill="#123647"/>
<path d="M244.189 53.4663H261.475V53.9058H259.57L256.494 54.0522H250.195L244.043 53.9058L244.189 53.4663Z" fill="#103244"/>
<path d="M71.7773 27.0996H72.0703L72.2168 40.8691L72.8027 41.1621L74.5605 41.3086V41.4551L73.2422 41.6016H71.7773V27.0996Z" fill="#103345"/>
<path d="M44.0898 46.875L44.6758 47.4609L46.4336 50.3906L47.8984 52.5879L49.0703 54.9316L50.9746 58.0078L52.5859 60.0586L54.4902 61.9629H54.0508L52.8789 60.9375L51.5605 59.3262L50.3887 57.7148L48.6309 54.7852L46.2871 50.8301L44.0898 47.168V46.875Z" fill="#133849"/>
<path d="M122.754 53.3203L123.779 54.1992L125.098 55.8105L126.416 57.2754L127.588 58.7402L129.492 60.9375L130.811 62.5488L132.715 64.8926L133.447 65.625L133.301 65.918L131.689 64.3066L129.053 61.084L127.881 59.6191L126.562 58.1543L125.244 56.543L123.486 54.4922L122.754 53.6133V53.3203Z" fill="#143A4B"/>
<path d="M37.0586 50.8301L37.6445 51.416L39.4023 54.4922L41.8926 58.5938L43.2109 60.3516L44.5293 61.9629L47.0195 64.4531L46.2871 64.1602L43.2109 61.084L42.625 60.2051L40.8672 57.7148L37.9375 52.5879L37.0586 51.123V50.8301Z" fill="#143A4B"/>
<path d="M117.48 74.853L117.773 74.9995L117.627 75.2925V83.6421L118.506 83.9351L119.678 84.0815V84.228H117.188V75.7319L117.48 74.853Z" fill="#163E4E"/>
<path d="M183.84 49.2188L183.986 49.6582L181.936 53.3203L180.91 55.0781H180.617L180.764 54.1992L181.936 51.8555L183.254 49.9512L183.547 49.5117H183.84V49.2188Z" fill="#13394A"/>
<path d="M111.914 27.0996L113.086 27.9785L114.697 30.0293L116.016 31.6406L116.602 32.373L117.92 33.9844L118.506 34.5703L118.359 34.8633L117.334 33.8379L116.016 32.2266L114.258 30.1758L112.939 28.5645L111.914 27.3926V27.0996Z" fill="#123748"/>
<path d="M31.3457 65.478L31.7852 65.6245L31.6387 65.771L28.2695 66.064H26.5117L23.7285 65.9175L22.9961 65.771V65.6245L31.3457 65.478Z" fill="#103244"/>
<path d="M166.258 27.2461H166.697L166.551 27.6855L165.672 27.832H160.838L159.812 28.125L159.959 27.5391L160.105 27.3926L166.258 27.2461Z" fill="#103345"/>
<path d="M169.336 42.1875L169.922 42.334L170.068 42.9199L170.654 43.2129L170.947 44.0918L170.801 45.1172L170.361 44.6777L169.775 43.6523L169.336 43.2129L169.043 42.7734L169.189 42.334L169.336 42.4805V42.1875Z" fill="#103344"/>
<path d="M105.762 33.1055L106.494 33.8379L108.105 35.7422L109.424 37.3535L110.596 38.6719L110.449 38.9648L109.424 37.9395L108.105 36.3281L107.373 35.4492L106.641 35.0098L106.201 34.2773V33.9844H105.908L105.762 33.1055Z" fill="#123648"/>
<path d="M41.75 58.8867H42.1895L43.2148 60.3516L44.5332 61.9629L47.0234 64.4531L46.291 64.1602L43.2148 61.084L42.6289 60.2051L41.75 58.8867Z" fill="#143A4B"/>
<path d="M129.055 60.7905L129.494 60.937L130.812 62.5483L132.717 64.8921L133.449 65.6245L133.303 65.9175L131.691 64.3062L129.055 61.0835V60.7905Z" fill="#13394A"/>
<path d="M31.6387 42.0405H31.9316V42.6265L36.6191 42.7729V42.9194L35.8867 43.0659H31.4922L31.6387 42.0405Z" fill="#153D4E"/>
<path d="M153.66 61.6694H154.1L155.564 64.0132L156.736 65.0386L157.029 65.1851V65.478L156.297 65.1851L155.125 64.0132L153.807 61.9624L153.66 61.6694Z" fill="#143B4C"/>
<path d="M152.049 58.3008L152.488 58.8867L153.953 61.5234H153.514L152.049 59.0332L151.902 58.5938L152.049 58.3008Z" fill="#13394A"/>
<path d="M186.184 41.1621L186.623 41.3086L187.648 43.3594L187.355 43.9453H187.062L186.77 42.4805L186.184 41.4551V41.1621Z" fill="#153C4C"/>
<path d="M39.5508 55.3711L40.1367 55.6641L41.8945 58.5938L42.041 58.8867L41.4551 58.5938L40.2832 56.6895L39.5508 55.3711Z" fill="#123748"/>
<path d="M89.6484 59.9116H89.9414L89.7949 60.3511L87.8906 61.5229L86.4258 62.1089H85.5469L86.1328 61.8159L87.7441 61.23L89.3555 60.2046L89.6484 59.9116Z" fill="#13394A"/>
<path d="M131.25 49.6577L131.689 49.9507L132.422 50.0972L132.568 50.5366L132.275 50.6831L132.861 50.9761L133.008 51.855L132.275 51.1226L131.25 49.9507V49.6577Z" fill="#123648"/>
<path d="M107.516 35.5952L108.102 35.7417L109.42 37.353L110.592 38.6714L110.445 38.9644L109.42 37.939L108.102 36.3276L107.516 35.5952Z" fill="#143A4B"/>
<path d="M160.105 27.3921H162.742L162.596 27.6851L160.105 27.978L159.812 28.1245L159.959 27.5386L160.105 27.3921Z" fill="#153D4D"/>
<path d="M86.7188 26.2202L87.4512 26.3667L88.623 27.2456L89.3555 28.4175L89.209 28.7104L88.1836 27.3921L86.7188 26.3667V26.2202Z" fill="#123748"/>
<path d="M122.754 53.3203L123.779 54.1992L125.098 55.8105L125.244 56.1035L124.658 55.8105L123.486 54.4922L122.754 53.6133V53.3203Z" fill="#153C4D"/>
<path d="M44.6797 62.4023L45.2656 62.6953L47.0234 64.4531L46.291 64.1602L45.1191 62.9883L44.6797 62.6953V62.4023Z" fill="#153C4D"/>
<path d="M52.4414 60.0586L53.4668 60.9375L54.4922 61.9629H54.0527L52.8809 60.9375L52.4414 60.3516V60.0586Z" fill="#123748"/>
<path d="M184.566 38.2324H184.859L185.738 39.8438L185.592 40.4297L184.566 38.6719V38.2324Z" fill="#153D4E"/>
<path d="M117.336 83.6421L119.68 84.0815V84.228H117.336V83.6421Z" fill="#103244"/>
<path d="M125.098 56.103L125.537 56.2495L126.709 57.7144H126.27L125.098 56.396V56.103Z" fill="#13394A"/>
<path d="M134.766 78.3687L135.645 78.5151L136.084 78.9546H134.766V78.3687Z" fill="#103344"/>
</svg>
