<svg width="77" height="100" viewBox="0 0 77 100" fill="none" xmlns="http://www.w3.org/2000/svg">
<path d="M0 0H75.3358V61.2943L74.2369 62.149L72.4054 63.2479L69.5971 64.7131L67.2772 65.5678L65.3236 66.0562L63.2479 66.3004H59.2186L56.7766 65.9341L54.5788 65.2015L52.0147 63.9805L50.1832 62.7595L49.0842 61.9048L47.8632 60.8059L46.7643 59.707L45.5433 57.9976L44.4444 55.9219L43.7118 53.602L43.2234 51.0379L43.1013 49.6948V43.4676L43.4676 40.5372L44.0781 37.6068L44.6886 35.2869L46.0317 31.8681L47.4969 28.6935L49.0842 25.2747L50.0611 22.5885L50.5494 20.5128L50.6716 19.6581V16.8498L50.3053 15.2625L49.3284 13.5531L48.2295 12.3321L46.8864 11.3553L45.6654 10.7448L43.7118 10.2564L41.8803 10.1343L39.9267 10.5006L38.2173 11.3553L36.8742 12.5763L36.0195 13.9194L35.409 15.3846L34.9206 17.094L34.4322 20.1465L34.0659 25.1526V28.9377L34.4322 33.2112L34.9206 36.1416L36.0195 40.4151L37.2405 43.956L38.7057 47.497L40.0488 50.5495L40.4151 51.6484L40.5372 52.381V54.9451L40.1709 56.7766L39.5604 58.6081L38.5836 60.5617L37.7289 61.9048L36.7521 63.0037L35.2869 64.1026L33.8217 64.7131L33.2112 64.8352H31.746L30.525 64.4689L29.304 63.7363L28.083 62.6374L27.2283 61.7827L26.1294 60.1954L25.3968 58.6081L24.9084 56.8987V53.602L25.641 50.0611L26.2515 48.1075L27.3504 45.0549L28.2051 42.8571L29.0598 40.0488L30.0366 34.9206L30.4029 32.4786L30.6471 29.304L30.7692 26.862V16.6056L30.525 13.1868L30.1587 11.5995L29.0598 9.27961L28.083 7.93651L26.9841 6.83761L25.3968 5.86081L24.0537 5.37241L22.1001 5.00611L20.2686 5.25031L18.315 6.22711L17.3382 7.20391L16.3614 8.79121L15.873 10.2564L15.6288 11.5995V13.6752L16.1172 16.1172L16.8498 18.315L18.1929 21.4896L20.5128 26.4957L22.1001 30.0366L23.0769 32.4786L24.2979 36.1416L24.7863 38.5836L24.9084 39.4383V43.1013L24.2979 45.6654L23.199 47.9854L21.978 49.6948L20.2686 51.5263L18.8034 52.7473L17.094 53.8462L15.0183 54.9451L12.6984 55.7998L10.8669 56.2882L8.18071 56.7766L7.08181 56.8987H2.1978L0.3663 56.6545L0.1221 56.5324L0 56.1661V0Z" fill="#382E84"/>
<path d="M0 94.3833H75.4579V96.5811L75.3358 99.8778H3.9072L0.2442 99.9999L0 99.3894V94.3833Z" fill="#382E84"/>
<path d="M2.442 72.2832H7.81441L8.05861 72.4053L8.54701 75.5799L9.03541 78.5103L9.40171 80.2197L9.64591 79.365L10.7448 73.26L10.8669 72.4053L10.989 72.2832H16.7277L16.9719 72.6495L17.5824 78.3882L18.5592 87.6678V88.1562L15.873 88.2783H13.9194L13.6752 88.1562L13.5531 87.4236L13.3089 82.7838V78.7545H13.0647L12.8205 80.0976L12.21 83.1501L11.5995 86.5689L11.2332 88.0341L11.1111 88.1562L9.15751 88.2783H7.57021L7.20391 88.0341L6.47131 83.5164L5.73871 79.2429L5.61661 79.7313L5.25031 86.4468L5.12821 88.0341L5.00611 88.1562H0L0.1221 86.9352L0.488401 84.3711L1.4652 76.6788L1.8315 73.8705L1.9536 72.5274L2.442 72.2832Z" fill="#382E84"/>
<path d="M31.9893 72.2832H36.2628L38.949 72.4053L40.17 72.6495L41.8794 73.5042L42.4899 73.9926L43.2225 75.0915L43.5888 76.1904L43.7109 76.923V78.2661L43.3446 79.4871L42.612 80.7081L41.8794 81.1965L40.9026 81.4407L42.4899 84.4932L43.833 86.9352L44.4435 88.1562L44.3214 88.2783H39.5595L39.1932 87.912L38.2164 85.7142L37.1175 82.7838L36.7512 82.1733V88.1562H31.9893L31.8672 88.0341V72.4053L31.9893 72.2832ZM36.7512 75.702V79.7313L37.8501 79.6092L38.7048 78.8766L38.949 78.144L38.8269 77.0451L38.3385 76.1904L37.8501 75.8241L36.7512 75.702Z" fill="#382E84"/>
<path d="M46.0312 72.2832H50.7932L53.1131 72.4053L54.5783 72.7716L56.1656 73.6263L57.0203 74.6031L57.6308 75.8241L57.875 76.923V78.0219L57.6308 79.1208L57.0203 80.2197L56.4098 80.8302L55.433 81.4407H55.0667L56.0435 83.3943L57.5087 86.2026L58.4855 87.912V88.1562L57.1424 88.2783H53.7236L53.2352 87.912L51.77 84.249L50.9153 82.2954L50.7932 82.0512V88.1562L46.3976 88.2783L46.0312 88.0341V72.2832ZM50.7932 75.702L50.6711 77.5335V79.2429L50.7932 79.7313L51.8921 79.6092L52.6247 79.1208L52.991 78.5103L53.1131 77.6556L52.7468 76.5567L52.1363 75.9462L51.5258 75.702H50.7932Z" fill="#382E84"/>
<path d="M20.3916 72.2832H29.1828V75.9462L29.0607 76.0683H25.0314V78.3882H28.6944V82.0512H25.0314V84.4932H28.9386L29.1828 84.6153V88.1562L23.4441 88.2783H20.88L20.3916 88.0341L20.2695 85.3479V72.4053L20.3916 72.2832Z" fill="#382E84"/>
<path d="M67.7666 72.2832H72.2843L72.5285 72.4053V79.4871L72.4064 84.4932H76.0694V88.0341L75.9473 88.1562L68.3771 88.2783L67.7666 88.1562L67.6445 78.0219L67.7666 72.2832Z" fill="#382E84"/>
<path d="M60.1963 72.2832H64.8361L64.9582 72.4053V88.1562L62.0278 88.2783H60.4405L60.1963 88.1562L60.0742 72.5274L60.1963 72.2832Z" fill="#382E84"/>
</svg>
