<svg width="71" height="120" viewBox="0 0 71 120" fill="none" xmlns="http://www.w3.org/2000/svg">
<path d="M64.4534 72.4561H70.1718L70.5802 72.5377L70.8253 91.8984L70.907 94.2675L70.9887 100.068V102.927L70.4986 103.09L65.7605 103.172L65.6788 103.09L65.352 89.121L65.1887 78.9096L65.107 77.2758L65.0253 77.1124L64.6985 78.6646L63.9633 82.7491L62.1661 91.9801L61.1858 97.1267L60.5323 100.639L60.1238 102.191L59.8788 103.172L59.7154 103.335L58.8985 103.417L58.0816 103.335L57.5097 103.499L56.9379 103.335L56.6928 103.008L55.9576 100.966L55.4675 99.0872L54.4872 94.5942L53.4252 90.0196L51.9548 83.7294L51.1378 80.135L50.566 77.5209L50.4843 77.3575L50.4026 78.5012V80.8702L50.566 90.1829L50.8928 101.13V103.499H45.5012L45.4195 103.335L45.2561 99.0872L45.011 86.8336L44.9293 77.766L44.8477 74.4983V73.0279L45.3378 72.8645L47.7885 72.7828H53.3435L53.6703 73.5997L54.0787 75.1518L54.3238 76.1321L54.7322 78.1744L55.6308 82.0139L56.121 84.3012L56.7745 86.8336L57.1013 88.3041L57.3463 89.7745L57.7548 91.2449L58.0816 91.9801L58.5717 89.4477L58.9802 87.4872L59.8788 82.8308L60.4506 79.8899L61.1041 76.2955L61.7576 72.6194L61.921 72.5377L64.4534 72.4561Z" fill="#D1B96A"/>
<path d="M32.5955 73.1909L34.8829 73.2726L36.5984 73.5994L37.6603 74.0078L38.7223 74.5797L39.4575 75.3149L40.1928 76.4585L40.6829 77.5205L41.0097 78.7459L41.173 80.1346V83.9741L40.7646 86.0981L40.1111 87.4051L39.5392 88.222L38.4772 89.284L37.6603 89.8558L36.8434 90.2643L35.2913 90.6727L34.5561 90.8361L33.6575 90.9178L31.2885 90.9995H28.7561V104.07H23.2011L23.1194 103.58L23.0377 99.7404L22.8743 89.8558L22.7926 81.6868L22.7109 77.3571V73.5177L22.7926 73.436L24.6715 73.3543L32.5955 73.1909Z" fill="#D1B96A"/>
<path d="M7.67893 73.1909H11.1916L12.4987 73.3543L13.724 73.7628L14.786 74.3346L15.6029 75.0698L16.2565 75.805L16.91 76.867L17.3184 77.6839L17.7269 79.236L18.0537 81.2783L18.217 82.5854V82.9938L18.0537 83.0755L16.0114 83.1572H12.7438L12.5804 82.3403L12.3353 80.6248L12.0085 79.3177L11.5184 78.5008L10.8649 78.0107L10.293 77.7656L9.88458 77.6839H9.06767L8.08738 77.929L7.43386 78.2557L6.86202 78.9093L6.45357 79.8079L6.2085 80.5431L6.12681 81.1149L6.04511 81.1966L5.96342 82.3403V90.7544L6.12681 94.1854L6.37188 96.9629L6.61695 98.27L6.94371 99.0869L7.43386 99.7404L7.84231 100.067L8.65922 100.394L9.7212 100.476L10.6198 100.312L11.2733 99.9855L12.0085 99.0869L12.4987 98.0249L12.7438 95.9826L12.9071 93.4502L15.2762 93.3685H18.4621L18.3804 97.1263L17.972 99.1686L17.6452 100.312L16.9917 101.619L16.3381 102.518L15.6029 103.335L14.541 104.07L13.5607 104.56L12.2536 104.969L11.1099 105.214L10.4564 105.295H8.41415L6.86202 105.132L5.63666 104.724L4.32961 104.07L3.5127 103.498L2.77749 102.845L1.96058 101.701L1.47043 100.721L0.980289 99.332L0.571835 97.6981L0.326763 95.8193L0.163381 93.8587L0 90.346V85.1178L0.245072 81.4417L0.490144 79.3994L0.816907 78.2557L1.63381 76.7036L2.36903 75.805L3.26763 74.9064L4.49299 74.0895L5.71835 73.5994L7.0254 73.2726L7.67893 73.1909Z" fill="#D1B96A"/>
<path d="M41.1715 109.543H42.1518L42.8053 109.707L43.2955 110.115L43.7856 111.096L43.949 111.831L44.0307 112.893V114.935L43.8673 115.915L43.6222 116.569L43.2138 117.059L42.4785 117.386L42.1518 117.467H40.5997L39.5377 117.222L39.6194 119.51L39.456 119.755L37.9856 120H37.5771L37.4954 119.673L37.332 111.096V109.952L38.3123 109.87H40.1095L40.5997 109.625L41.1715 109.543Z" fill="#1E1E1E"/>
<path d="M6.20749 108.073H7.84131L8.16807 108.237V109.625L8.08638 109.707L4.00184 109.952V112.076H5.88073L7.923 112.158V113.547L7.84131 113.628L5.96242 113.71H4.08353L4.16523 115.997L4.24692 116.324L4.90044 116.406H8.24976L8.33145 116.487L8.41314 117.794L8.16807 118.04L7.59624 118.121L5.47228 118.203H3.67508L2.69479 118.285H1.87788L1.7145 118.121L1.63281 113.138V108.237L2.28634 108.155L6.20749 108.073Z" fill="#1E1E1E"/>
<path d="M26.057 109.87H27.119L28.0176 110.033L28.8345 110.524L29.3247 111.259L29.5697 111.912L29.6514 112.321L29.7331 113.955L29.6514 114.036L28.7528 114.118L25.3218 114.281L25.2401 114.363L25.3218 115.098L25.6486 116.16L25.7303 116.405L26.1387 116.487H26.7922L27.2824 116.242L27.4458 115.915L27.5275 115.098L27.6092 115.017H29.243L29.6514 115.098L29.7331 115.588L29.488 116.569L28.9979 117.141L28.0176 117.631L26.7922 117.876H25.4852L24.5049 117.631L23.8514 117.141L23.3612 116.487L23.0345 115.752L22.9528 115.425L22.8711 114.363V113.138L23.0345 111.994L23.4429 111.014L23.9331 110.442L24.75 110.033L26.057 109.87Z" fill="#1E1E1E"/>
<path d="M66.2488 108.972L67.7192 109.053L68.5361 109.298L69.1896 109.87L69.5981 110.524L69.9249 111.586V112.893L69.1896 113.138L67.5558 113.301L65.3502 113.465L65.6769 114.772L66.0037 115.344L66.2488 115.507H66.984L67.4741 115.18L67.7192 114.608L67.8009 114.2L68.4544 114.118H69.1896L69.8432 114.2L69.9249 114.608L69.6798 115.425L69.2713 116.079L68.7812 116.487L68.046 116.814L67.2291 116.977H65.922L65.0234 116.732L64.2882 116.242L63.7164 115.507L63.3079 114.527L63.1445 112.893V111.831L63.3896 110.769L63.8797 109.87L64.4516 109.38L65.4319 109.053L66.2488 108.972Z" fill="#1E1E1E"/>
<path d="M13.5599 110.197H15.112L16.0923 110.687L16.5008 111.178L16.5825 111.423L16.7459 117.059V117.631L16.5825 117.795H14.6219L14.5402 117.713L14.3768 113.547L14.2951 112.485L14.1318 112.076L13.805 111.831H13.2332L12.743 112.076L12.4979 112.403L12.4162 112.648L12.3346 117.549L12.2529 117.795L11.8444 117.958H10.374L10.2923 117.876L10.2106 116.896V114.2L10.1289 114.037V110.442L10.374 110.361L12.2529 110.606H12.8247L13.3148 110.279L13.5599 110.197Z" fill="#1E1E1E"/>
<path d="M58.2462 109.135H59.3082L60.2068 109.299L60.697 109.625L61.3505 110.361L61.5956 110.932L61.5139 111.259L61.4322 111.423L60.6153 111.586L59.7984 111.178L58.9815 110.606H58.0012L57.5927 111.014L57.6744 111.423L58.4096 111.994L60.0434 112.893L60.942 113.547L61.4322 113.955L61.7589 114.69V115.344L61.4322 116.079L60.7786 116.651L59.8801 116.978L58.8181 117.141H57.7561L56.7758 116.896L56.0406 116.406L55.6321 115.916L55.4688 115.18L55.5504 114.609L55.7138 114.445L56.449 114.363L57.1026 114.527L57.511 114.854L57.9195 115.507L58.573 115.752H59.1448L59.7984 115.344L59.7167 115.017L58.9815 114.363L57.511 113.465L56.3673 112.73L55.7138 112.076L55.4688 111.586V110.932L55.8772 110.116L56.6124 109.544L57.5927 109.217L58.2462 109.135Z" fill="#1E1E1E"/>
<path d="M18.9516 108.155L20.2586 108.236L20.7488 108.4L20.9122 108.972L20.9939 109.87L21.1572 110.197L21.8108 110.442L21.8924 110.932L21.6474 111.341L21.484 111.422H20.9122L20.9939 115.262L21.1572 116.079L21.2389 116.324L21.7291 116.651L21.8924 117.631L21.7291 117.794L21.1572 117.876L19.8502 117.794L19.0333 117.549L18.7882 117.386L18.6248 116.569L18.4614 111.994L18.053 111.586L17.8079 111.422L17.6445 111.014V110.524L18.2164 110.279L18.4614 110.197V108.563L18.5431 108.236L18.9516 108.155Z" fill="#1E1E1E"/>
<path d="M32.1027 109.87H33.0013L33.4915 110.115L33.6549 110.442H34.2267L34.7985 109.952L35.0436 109.87H35.8605L35.9422 111.014V111.831L34.7985 111.994L34.0633 112.321H33.8999L33.8183 117.304L33.7366 117.386L32.9197 117.467H31.6943L31.6126 117.386L31.5309 115.915L31.4492 112.811V110.033L32.1027 109.87Z" fill="#1E1E1E"/>
<path d="M49.0954 109.543H49.9123L50.0757 109.625L50.2391 110.442V111.177L49.5039 111.422L48.5236 111.912L48.1968 112.158H48.0334L48.1151 113.465V117.059L48.0334 117.141H45.9095L45.8278 116.487L45.7461 109.952L46.2362 109.789H48.0334L48.1151 110.442L48.5236 110.36L48.932 109.625L49.0954 109.543Z" fill="#1E1E1E"/>
<path d="M51.7109 109.543L53.3448 109.625L53.8349 109.707L53.9166 114.527V116.977L53.7532 117.059H51.7926L51.7109 116.569V109.543Z" fill="#1E1E1E"/>
<path d="M40.4338 111.096H41.0873L41.4957 111.504L41.7408 112.076L41.8225 112.566V114.853L41.6591 115.834L41.2507 116.079L40.4338 115.997L39.7802 115.589L39.6168 115.344L39.5352 114.853V112.239L39.7802 111.586L40.2704 111.177L40.4338 111.096Z" fill="white"/>
<path d="M66.2502 110.442H67.0671L67.4755 110.687L67.6389 111.096V111.749L67.0671 111.995H65.4333L65.3516 111.913V111.341L65.5966 110.851L66.0051 110.524L66.2502 110.442Z" fill="white"/>
<path d="M26.0591 111.341H26.7943L27.2028 111.586L27.4478 112.076L27.3661 112.73L26.876 112.975H26.2225L25.2422 112.648V112.076L25.569 111.586L26.0591 111.341Z" fill="white"/>
<path d="M51.6289 107.093H53.7529V108.318L53.6712 108.4H51.874L51.7106 108.318L51.6289 107.093Z" fill="#1E1E1E"/>
<path d="M1.13672 17.6427L33.6888 0L67.7318 17.6427V53.1766L33.6888 68.8314L1.13672 53.1766V17.6427Z" fill="#A21625"/>
<path d="M31.1861 77.2803H33.884L35.5702 78.0135L36.5819 79.0401L36.9191 79.92V84.0261L36.2447 85.7859L34.5585 86.2259L31.1861 86.0792L28.4883 85.346L27.8138 84.906L27.4766 84.0261V79.3334L28.4883 78.1602L30.5117 77.4269L31.1861 77.2803Z" fill="white"/>
<path d="M32.9183 6.12305H34.3888L35.0423 6.44981L35.6958 7.02164L36.2677 7.75686L36.431 8.49208L36.3493 9.55406L36.0226 10.2893L35.4507 10.7794L34.4705 11.1879L34.3888 11.5146H34.2254L34.3888 11.9231L34.4705 12.0048L34.5522 13.802V16.6612L34.3888 16.9879L34.4705 17.233L35.6141 17.6414L36.5127 18.295L37.1663 18.9485L37.5747 19.6837L37.7381 20.5006V21.3175L37.5747 22.4612L38.0649 22.6246V22.788L38.3916 22.8696L39.1268 23.2781L40.679 24.095L41.2508 24.5035L41.7409 24.7485V24.9119L42.2311 25.0753L42.3945 25.9739H42.5578L42.8846 25.157L43.8649 24.3401L44.6818 24.0133L45.0086 23.9316H46.6424L47.2959 24.095L48.2762 24.9936L48.7663 25.4021L49.5832 24.6668L50.3185 24.1767L51.2171 23.6049L52.279 22.9513L52.7692 22.5429L53.1776 22.3795L53.7495 22.4612L53.9945 22.788L53.9129 23.1147L53.4227 23.4415L52.9326 23.6866L52.1973 24.1767L51.0537 24.9119L49.9917 25.5654L49.0931 25.8922L49.2565 26.5457L49.4199 26.8725V28.3429L48.848 29.7317L48.1128 30.4669L47.4593 30.8753L47.0508 31.0387L46.9691 31.3655L47.0508 32.5092V35.5317L46.9691 37.0021L46.7241 37.3289L47.9494 37.9824L48.6846 38.636L49.2565 39.4529L49.5832 40.1064L49.6649 40.3515V41.6585L49.4199 42.6388L49.91 42.7205L51.3804 43.5374L52.1973 43.9459L52.8509 44.3543L53.6678 44.8445L53.9129 44.9261V45.0895L54.3213 45.2529L54.4847 45.498V45.7431L53.5861 45.6614L51.7072 44.6811L50.7269 44.1092L50.0734 43.7825L49.2565 43.2106V43.0473H49.0931L48.9297 43.4557L48.3579 44.0275L47.541 44.436L46.8058 44.6811L46.2339 44.7628H45.4987L44.6001 44.436L43.7015 43.7825L43.1297 43.0473L42.9663 42.9656L42.8846 43.374L42.5578 43.7825L41.3325 44.5994L40.7606 44.8445H40.5973V45.0078L40.1888 45.1712L39.3719 45.7431L38.555 46.2332L38.0649 46.3966H37.7381L38.2282 47.3769L38.3099 47.7036V48.3572L38.1465 49.0107L37.3296 50.5628L36.7578 51.1346L35.9409 51.6248L35.3691 51.7882H34.062L33 51.3797L32.0197 50.6445L31.4479 49.8276L31.1211 49.0107L30.9578 47.867L30.8761 46.805L30.7944 46.7233H30.1409L28.7521 46.1515L27.1183 45.1712L26.0563 44.5994L25.6479 44.2726L25.2394 44.3543L24.5042 44.8445L23.6873 45.1712H22.2168L21.3999 44.9261L20.6647 44.5177L20.0112 43.9459L19.5211 43.129L19.1943 42.1487V40.7599L19.8478 39.4529L20.5013 38.636H20.6647V38.4726L21.5633 38.1458H22.1352L22.2168 37.4923L22.1352 32.2641L22.3802 31.9373L22.707 32.019L22.7887 31.6922H22.2168L21.1549 31.3655L20.338 30.8753L19.8478 30.4669L19.1126 29.3232L18.9492 28.6697V27.1993L19.5211 25.8105L20.2563 25.0753L20.9098 24.6668L21.645 24.4218H23.3605L24.1774 24.5852L24.7493 24.9119L25.1577 24.9936L25.2394 24.8302L25.8112 24.6668L26.7098 24.1767L27.6901 23.6049L28.8338 22.8696L29.4056 22.5429L30.0592 21.971H30.3859L30.4676 22.6246H30.631L30.3042 20.9091V20.2555L30.9578 19.0302L31.6113 18.2133L32.4282 17.5597L33.8169 17.233L33.8986 17.1513L33.6536 16.9879V16.8245H33.4902L33.4085 16.6612V11.8414L33.8169 11.678L33.1634 11.2696V11.1062L32.4282 10.8611L31.693 10.0442L31.2028 8.81884L31.1211 8.24701L31.2845 7.59348L31.7747 6.85826L32.3465 6.36812L32.9183 6.12305Z" fill="#A21625"/>
<path d="M45.6653 37.3291L45.9103 37.4108L47.054 37.4925L47.9526 37.9826L48.6878 38.6362L49.2597 39.4531L49.5864 40.1066L49.6681 40.3517V41.6587L49.423 42.639L49.9132 42.7207L51.3836 43.5376L52.2005 43.9461L52.8541 44.3545L53.671 44.8446L53.916 44.9263V45.0897L54.3245 45.2531L54.4879 45.4982V45.7432L53.5893 45.6616L51.7104 44.6813L50.7301 44.1094L50.0766 43.7827L49.2597 43.2108V43.0475H49.0963L48.9329 43.4559L48.3611 44.0277L47.5442 44.4362L46.8089 44.6813L46.2371 44.763H45.5019L44.6033 44.4362L43.7047 43.7827L43.1329 43.0475L42.9695 42.9658L42.8878 43.3742L42.561 43.7827L41.3357 44.5996L40.7638 44.8446H40.6004V45.008L40.192 45.1714L39.3751 45.7432L38.5582 46.2334L38.068 46.3968H37.7413L38.2314 47.3771L38.3131 47.7038V48.3574L38.1497 49.0109L37.3328 50.563L36.761 51.1348L35.9441 51.625L35.3722 51.7884H34.0652L33.0032 51.3799L32.0229 50.6447L31.4511 49.8278L31.1243 49.0109L30.9609 47.8672V47.0503L31.206 46.5602L31.4511 46.3151L31.6145 45.8249L31.9412 45.4165L32.4314 45.0897L33.1666 44.763L33.9018 44.5996L34.5553 44.4362L35.6173 44.5179L36.4342 44.8446L37.4962 45.8249V45.9883L37.9047 45.7432L38.5582 45.1714L39.4568 44.5996L39.8652 44.3545H40.192L40.2737 44.1094L41.0089 43.701L41.499 43.2925L42.1526 42.8841L42.8878 42.8024L42.4793 41.3319V40.27L42.8061 39.3714L42.9695 39.0446H43.1329L43.2962 38.7178L43.7047 38.3911L44.2765 37.9826L44.9301 37.6559L45.3385 37.4925L45.5019 37.4108L45.6653 37.4925V37.3291Z" fill="#F4E1CD"/>
<path d="M32.9188 6.12305H34.3892L35.0428 6.44981L35.6963 7.02165L36.2681 7.75686L36.4315 8.49208L36.3498 9.55406L36.023 10.2893L35.4512 10.7794L34.4709 11.1879L34.3892 11.5146H34.2258L34.3892 11.9231L34.4709 12.0048L34.5526 13.802V16.6612L34.3892 16.9879L34.4709 17.233L35.6146 17.6414L36.5132 18.295L37.1667 18.9485L37.5752 19.6837L37.7385 20.5006V21.3175L37.5752 22.4612L38.0653 22.6246V22.788L38.3921 22.8696L39.1273 23.2781L40.6794 24.095L41.2512 24.5035L41.7414 24.7485V24.9119L42.2315 25.0753L42.3949 25.8922L41.6597 25.7288L40.4343 24.9936L38.8822 24.1767L37.6569 23.4415L37.2484 23.1147L36.5132 23.8499L35.778 24.3401L35.2878 24.5035L34.716 24.5852H33.1639L31.9385 24.095L31.53 23.6866L30.9582 22.8696L30.6315 22.2161L30.3047 20.9091V20.2555L30.9582 19.0302L31.6117 18.2133L32.4286 17.5598L33.8174 17.233L33.8991 17.1513L33.654 16.9879V16.8245H33.4906L33.4089 16.6612V11.8414L33.8174 11.678L33.1639 11.2696V11.1062L32.4286 10.8611L31.6934 10.0442L31.2033 8.81884L31.1216 8.24701L31.285 7.59348L31.7751 6.85826L32.347 6.36812L32.9188 6.12305Z" fill="#F4E0CB"/>
<path d="M22.4629 37.9824H23.5249L24.7503 38.4726V38.6359L25.077 38.7993L25.7306 39.4529L26.139 40.0247L26.3841 40.6782L26.4658 41.1684V42.067L26.3841 42.7205L26.8742 42.8022L28.8348 43.7825L29.8151 44.3543L30.2236 44.6811L30.4686 44.7628V44.9261L31.0405 45.0895V45.2529H31.3672L31.5306 45.498V45.743H30.632L29.6517 45.2529L28.7531 44.6811L28.1813 44.3543L27.5278 44.0275L27.201 43.7825L26.6292 43.5374L25.894 43.2106V43.5374H25.7306L25.6489 43.8642L26.5475 44.0275L27.5278 44.436L28.6714 45.0895L29.4067 45.5797L30.2236 45.8247L30.3869 45.9881V46.2332L30.632 46.1515L30.7954 46.3149V46.7233H30.1419L28.7531 46.1515L27.1193 45.1712L26.0573 44.5994L25.6489 44.2726L25.2404 44.3543L24.5052 44.8444L23.6883 45.1712H22.2179L21.401 44.9261L20.6657 44.5177L20.0122 43.9458L19.5221 43.1289L19.1953 42.1486V40.7599L19.8488 39.4529L20.5024 38.6359H20.6657V38.4726L21.5643 38.1458L22.4629 37.9824Z" fill="#F4E1CD"/>
<path d="M53.1809 22.3794L53.7528 22.4611L53.9978 22.7878L53.9162 23.1146L53.426 23.4414L52.9359 23.6864L52.2006 24.1766L51.057 24.9118L49.995 25.5653L49.0964 25.8921L49.2598 26.5456L49.4232 26.8724V28.3428L48.8513 29.7316L48.1161 30.4668L47.4626 30.8752L47.2175 30.9569H44.7668L43.9499 30.6302L43.133 29.8949L42.6428 29.1597L42.2344 28.0161V27.0358L42.5611 25.9738L42.8879 25.1569L43.8682 24.34L44.6851 24.0132L45.0119 23.9315H46.6457L47.2992 24.0949L48.2795 24.9935L48.7696 25.402L49.5865 24.6667L50.3218 24.1766L51.2204 23.6048L52.2823 22.9512L52.7725 22.5428L53.1809 22.3794Z" fill="#F4E2CE"/>
<path d="M21.645 24.4219H23.3605L24.0957 24.6669L24.9126 25.2388L25.6479 26.1374L26.0563 26.9543L26.2197 27.6895V28.5064L25.9746 29.3233L25.4845 30.2219L24.5859 31.1205L23.769 31.529L22.7887 31.6924H22.2168L21.1549 31.3656L20.338 30.8754L19.8478 30.467L19.1126 29.3233L18.9492 28.6698V27.1994L19.5211 25.8106L20.2563 25.0754L20.9098 24.6669L21.645 24.4219Z" fill="#F4E2CE"/>
<path d="M32.9222 6.12305H34.3926L35.0462 6.44981L35.6997 7.02165L36.2715 7.75686L36.4349 8.49208L36.3532 9.55406L36.0264 10.2893L35.4546 10.7794L34.4743 11.1879L34.3926 11.5146H34.2292L34.3926 11.9231L34.4743 12.0048L34.556 13.802V16.6612L34.3109 16.8245H33.494L33.4123 16.6612V11.8414L33.8208 11.678L33.1673 11.2696V11.1062L32.4321 10.8611L31.6968 10.0442L31.2067 8.81884L31.125 8.24701L31.2884 7.59348L31.7785 6.85826L32.3504 6.36812L32.9222 6.12305Z" fill="#F4E2CE"/>
<path d="M10.946 19.5205H12.5798V19.6839L12.9066 19.7656L13.7235 20.5008L14.2136 21.3177L14.2953 21.6445V22.5431L14.0502 23.1966H14.7854L16.3376 24.0135L17.4812 24.7487L18.2165 25.0755L19.115 25.729L19.2784 25.9741V26.3008H18.5432L17.7263 25.8924V25.729L17.2362 25.5656L16.746 25.2389L16.3376 25.0755L15.1939 24.5036L14.4587 24.0135L14.2953 23.8501L13.9685 23.7684L13.8868 23.4417L13.2333 24.0135L12.4981 24.422H11.1094L10.2924 24.0135L9.63892 23.36L9.23047 22.5431V21.5628L9.39385 20.8276L9.72061 20.3374L10.2108 19.7656L10.4558 19.6022L10.946 19.5205Z" fill="#F4E2CF"/>
<path d="M11.4346 45.7432H12.9867L13.4769 45.9882L14.4572 46.9685L14.7839 47.5404V48.8474L14.4572 49.5009L13.7219 50.3178L13.0684 50.6446H12.0881L11.2712 50.3995L10.7811 50.0728L10.1275 49.3376L9.80078 48.1939V47.5404L10.3726 46.4784L10.6994 46.1516H10.8628V45.9882L11.4346 45.7432Z" fill="#F4E1CC"/>
<path d="M56.6929 44.6812H57.5098L58.4084 45.1713L59.0619 45.9065L59.307 46.56V48.0305L58.8169 48.7657L58.245 49.2558L57.6732 49.5009H56.2845L55.6309 49.2558L55.0591 48.7657L54.7323 48.2755L54.2422 46.8051V46.3967L54.9774 45.5798L55.5492 45.0079L56.2028 44.7628L56.6929 44.6812Z" fill="#F4E2CF"/>
<path d="M34.7984 58.1602L35.6153 58.2418L36.4322 58.6503L37.004 59.3855L37.2491 59.9574V61.4278L36.759 62.3264L36.0237 62.8165L35.6153 62.9799H34.2265L33.3279 62.4898L32.6744 61.7545L32.4293 61.1827L32.3477 60.2841L32.5927 59.5489L33.0829 58.8137L33.4913 58.4869L34.7984 58.1602Z" fill="#F4E1CD"/>
<path d="M56.1201 18.6221H57.182L57.4271 18.7038V18.8671L57.7539 19.0305L58.4074 19.6024L58.6525 20.0108V20.2559H58.8158L58.8975 20.5826V21.5629L58.6525 22.2982L57.9989 23.1151L57.5088 23.3601L57.1003 23.5235H55.875L55.1398 23.2784L54.5679 22.7066L54.0778 21.808L53.9961 21.4812V20.501L54.3229 19.8474H54.5679L54.6496 19.9291L54.813 20.746L55.2215 20.6643L55.5482 20.2559V19.8474L55.4665 19.6024L54.8947 19.5207L54.813 19.1939L55.1398 18.8671L56.1201 18.6221Z" fill="#F7EFE2"/>
<path d="M33.3301 31.7739H35.6992L36.271 32.1007L36.5161 32.5091L36.5978 32.9176V34.0613L36.1076 34.4697L35.0457 34.7148H32.84V36.3486L32.2682 36.2669L32.0231 36.0218L31.9414 33.4894V32.3458L32.1865 31.9373L32.3499 31.8556L33.3301 31.7739Z" fill="#FAF2DF"/>
<path d="M42.8865 31.6104H43.4583L43.54 31.692V36.1033L43.4583 36.185H42.9682L42.8048 35.4498L42.6414 33.3259L42.3147 33.4075L42.233 33.7343L41.7428 34.4695L41.3344 35.2864L41.0893 35.4498L40.7625 35.3681L40.0273 34.3878L39.5372 33.6526L39.3738 33.4892H39.1287L39.047 34.3061L38.9653 36.3484L38.4752 36.185L38.2301 35.8583L38.1484 31.9371L38.2301 31.8554H38.802L39.3738 32.3456L39.9456 33.0808L40.9259 34.3061L41.0893 34.3878L41.2527 33.9794L41.7428 33.2442L42.0696 32.6723L42.3147 32.2639H42.478L42.6414 31.8554L42.8865 31.6104Z" fill="#FCF5E4"/>
<path d="M27.0407 31.8555H28.9196L29.8182 32.1822L30.2267 32.509L30.3084 33.2442L30.0633 33.571L29.5732 33.6527L29.3281 33.4076L29.1647 32.8358L28.7563 32.6724L26.714 32.7541L26.4689 33.1625V35.0414L26.6323 35.4499L26.9591 35.6949L27.4492 35.7766H28.9196L29.3281 35.3682L29.5732 34.878L29.6548 34.7963H30.2267V35.6132L29.7365 36.2668L29.2464 36.5118H26.8774L26.3055 36.4302L25.8154 35.94L25.5703 35.2048V33.4893L25.652 32.7541L25.9788 32.1822L26.4689 31.9372L27.0407 31.8555Z" fill="#FBF4E2"/>
<path d="M56.6929 44.6812H57.5098L58.4084 45.1713L59.0619 45.9065L59.307 46.56V48.0305L58.8169 48.7657L58.245 49.2558L57.6732 49.5009H56.2845L55.6309 49.2558L55.0591 48.7657L54.7323 48.2755L54.2422 46.8051V46.3967L54.6506 46.1516L54.7323 46.4783L54.6506 46.9685L55.1408 46.8868L55.7943 46.4783H56.0394L55.876 46.8868L55.6309 47.2136L55.5492 47.8671L55.876 48.3572L56.3661 48.7657L56.8563 49.0108L57.5098 49.0925L58.3267 48.684L58.6535 48.2755L58.7352 48.0305V47.4586L58.4901 46.56L57.9183 45.8248L57.5915 45.4164L56.7746 45.253H56.0394V44.9262L56.2028 44.7628L56.6929 44.6812Z" fill="#F7EDDF"/>
<path d="M55.466 19.6836L56.2012 19.7653H57.0182L57.4266 20.0104L57.9167 20.7456L57.9984 21.154V21.8076L57.6717 22.3794L57.2632 22.5428L57.1815 22.7062L56.7731 22.7878H56.1196L55.5477 22.2977L55.466 22.0526V21.3174L55.0576 21.2357L54.8125 20.8273L55.221 20.6639L55.5477 20.2554V19.847L55.466 19.6836Z" fill="#F4E2CE"/>
<path d="M34.4743 10.9429H34.8828L34.6377 11.1063L34.4743 11.1879L34.3926 11.5147H34.2293L34.3926 11.9232L34.4743 12.0049L34.556 13.802V16.6612L34.311 16.8246H33.4941L33.4124 16.6612V11.8415L33.8208 11.6781L33.1673 11.2696V11.1063L33.0039 11.0246H34.2293L34.4743 10.9429Z" fill="#F2DCC3"/>
<path d="M22.3818 31.9375L22.7086 32.0192L22.9536 32.2643L23.0353 32.591L23.117 33.7347V37.5742L23.0353 37.6559H22.5452V37.8192H22.3818L22.2184 37.4925L22.1367 32.2643L22.3818 31.9375Z" fill="#F0DBC0"/>
<path d="M34.3079 51.9517H34.6347V52.115L35.1248 52.0334V57.9151L34.9614 58.0785L34.553 57.9968L34.3896 57.2616L34.2262 54.5658L34.1445 52.4418L34.3079 51.9517Z" fill="#F1DBC2"/>
<path d="M14.5413 23.1963L14.9497 23.278L16.5835 24.1766L17.4821 24.7484L18.2173 25.0752L19.1159 25.7287L19.2793 25.9738V26.3005H18.5441L17.7272 25.8921V25.7287L17.2371 25.5653L16.7469 25.2386L16.3385 25.0752L15.1948 24.5033L14.4596 24.0132L14.1328 23.6864L14.2145 23.3597L14.5413 23.1963Z" fill="#FBF4E2"/>
<path d="M19.1137 43.374L19.5222 43.4557L19.6039 43.8642L18.9504 44.436L18.5419 44.7628L17.725 45.1712L16.9081 45.7431L16.4996 45.9881L15.5194 46.4783L14.7024 46.805L14.5391 46.4783L14.6208 46.1515L15.356 45.5797L16.0912 45.1712L18.787 43.4557L19.1137 43.374Z" fill="#FBF3E0"/>
<path d="M28.918 38.4727H29.8166L30.3884 38.636L30.6335 38.8811L30.8785 39.7797H31.0419L31.1236 39.698V38.9628L31.0419 38.636L31.4504 38.5543L31.6955 38.7994L31.8588 39.2079L31.7771 39.5346L31.6955 39.698V40.4332H31.0419L30.7969 40.1882V40.0248H30.6335L30.4701 40.4332L30.3884 40.5149H29.163L28.918 40.2699V38.4727Z" fill="#FAF0DE"/>
<path d="M56.1196 18.6221H57.1815L57.4266 18.7038V18.8671L57.7534 19.0305L58.4069 19.6024L58.652 20.0108V20.2559H58.8153L58.897 20.5826V21.5629L58.652 22.2982L58.3252 22.7066H58.1618L58.3252 22.2982L58.4069 22.2165V21.5629L58.2435 20.9911L57.7534 20.2559L57.0998 19.684L56.528 19.5207L55.7928 19.684L55.0576 19.6024L54.8125 19.439L54.8942 19.1122L55.1393 18.8671L56.1196 18.6221Z" fill="#FBF4E2"/>
<path d="M37.4141 22.6245H38.0676V22.7879L38.3944 22.8696L39.1296 23.278L40.6817 24.0949L41.2535 24.5034L41.7437 24.7485V24.9119L42.2338 25.0752L42.3972 25.8921L41.662 25.7288L40.4366 24.9935L38.8845 24.1766L37.8225 23.5231L37.4141 23.033V22.6245Z" fill="#FCF5E3"/>
<path d="M29.8996 22.2979L30.063 22.3795V22.6246H30.2263L30.308 23.1964L30.063 23.2781V23.4415L29.0827 23.6866L28.0207 24.4218L27.7756 24.6669L27.0404 24.9936L26.3052 25.4021H26.1418V25.5655L25.6517 25.4838L25.4883 25.2387L25.57 24.8303L27.0404 24.0134L28.5925 23.0331L29.4094 22.5429L29.8996 22.2979Z" fill="#FAF1DF"/>
<path d="M49.2578 42.7202L49.993 42.8019L50.9733 43.2921L52.1987 43.9456L52.8522 44.354L53.6691 44.8442L53.9142 44.9259V45.0892L54.3226 45.2526L54.486 45.4977V45.7428L53.5874 45.6611L51.7085 44.6808L50.7282 44.109L50.0747 43.7822L49.2578 43.2104V42.7202Z" fill="#FCF5E4"/>
<path d="M34.8004 32.3457H35.2089L35.699 32.9175V33.6528L35.2906 33.9795H33.33L32.8398 33.7344V32.6725L33.0032 32.5091L34.3103 32.4274L34.8004 32.3457Z" fill="#A41927"/>
<path d="M26.303 44.0278L27.0382 44.1912L28.4269 44.9264L29.4072 45.58L30.2241 45.825L30.3875 45.9884V46.2335L30.6326 46.1518L30.796 46.3152V46.7236H30.1424L28.7537 46.1518L27.1199 45.1715L26.0579 44.5997L25.8945 44.2729L26.303 44.1912V44.0278Z" fill="#FCF6E6"/>
<path d="M45.5846 31.4473H45.9113L45.993 31.6106V36.8389L45.5846 37.0022L45.2578 36.8389V31.529L45.5846 31.4473Z" fill="#F5E3D0"/>
<path d="M26.875 43.2925H27.5285L28.3454 43.5376L28.8356 43.7826L29.8159 44.3545L30.2243 44.6812L30.4694 44.7629V44.9263L31.0412 45.0897V45.2531H31.368L31.5314 45.4981V45.7432H30.6328L29.6525 45.2531L28.7539 44.6812L28.1821 44.3545L27.5285 44.0277L27.0384 43.7009L26.875 43.2925Z" fill="#FCF6E6"/>
<path d="M32.921 38.3906H34.2281L34.4731 38.7991L34.6365 39.5343V40.1061L34.3914 40.3512H33.4112V40.1878L32.8393 40.1061L32.921 39.616L33.0844 38.9625L33.3295 39.0442L33.4112 39.616L33.2478 40.0244L33.8196 39.9427L33.983 39.7794V39.0442L33.4928 38.7174H33.0844L32.5943 39.0442L32.4309 39.8611H32.5943V40.0244H32.7576V40.3512H32.1858L31.9407 40.1878L31.7773 40.1061L31.859 40.0244L32.0224 39.1258L32.1858 38.7174L32.5126 38.4723L32.921 38.3906Z" fill="#FAF1DE"/>
<path d="M54.4045 19.7656L54.6496 19.929L54.813 20.7459L54.8947 21.2361L54.7313 21.7262L54.813 22.2163L55.1398 22.7065L55.4665 22.9516L56.1201 23.1149H57.182L57.9172 22.7882H58.0806L57.9989 23.1149L57.5088 23.36L57.1003 23.5234H55.875L55.1398 23.2783L54.5679 22.7065L54.0778 21.8079L53.9961 21.4811V20.5008L54.3229 19.8473L54.4045 19.7656Z" fill="#FBF2E0"/>
<path d="M20.7491 25.6475H21.321L21.4844 26.1376L21.1576 26.9545L20.5858 27.6897L20.3407 27.8531L19.7689 27.7714L19.6055 27.608L19.6872 26.7094L20.0139 26.2193L20.259 26.1376V25.9742L20.7491 25.6475Z" fill="#B62933"/>
<path d="M39.2104 38.3091H40.1907L40.4358 38.6358L40.6809 39.6161V40.0246L40.3541 40.2697H39.8639L39.7006 39.9429L39.8639 39.6161L39.5372 39.6978L39.4555 39.3711L39.6189 39.2894L39.8639 38.6358H39.2104V39.6161L39.047 40.1063L38.9653 40.188H38.5569L38.7203 39.6978V38.9626L38.5569 38.7175L38.1484 38.5542V38.3908L39.2104 38.3091Z" fill="#FBF3E3"/>
<path d="M53.1788 22.3794L53.7506 22.4611L53.9957 22.7878L53.914 23.1146L53.4239 23.4414L52.9337 23.6864L52.4436 24.0132H52.0351V23.8498L51.2182 24.0949L50.3196 24.585L50.1562 24.5034L50.8098 23.8498L51.6267 23.3597L52.5253 22.7878L52.7704 22.5428L53.1788 22.3794Z" fill="#FAF1DE"/>
<path d="M21.155 39.208H21.7269L21.8903 39.4531V39.7798H21.7269L21.6452 40.1883L21.155 41.0052L20.9917 41.2503L20.2565 41.1686L19.9297 41.0052V40.4334L20.4198 39.6982L20.91 39.2897L21.155 39.208Z" fill="#B72F36"/>
<path d="M37.6579 38.4727L38.0664 38.5543L38.3115 38.9628V39.6163L37.903 40.1882L37.3312 40.1065L37.1678 39.9431L36.841 40.2699H36.4326L36.1875 39.9431V38.5543L36.9227 38.636V38.7994L37.2495 38.8811L37.4129 39.2079V39.8614L37.6579 39.7797L37.7396 39.6163L37.8213 38.7994H37.6579V38.4727Z" fill="#FDF8E9"/>
<path d="M32.5939 45.8247H33.2474L33.4925 45.9881V46.6416L33.0841 47.3768L32.7573 47.7036H31.777L31.6953 47.6219V46.9684L32.0221 46.5599L32.2671 45.9881L32.5939 45.8247Z" fill="#A51A27"/>
<path d="M44.5222 38.7993L44.9307 38.881L45.0124 38.9627V39.5345L44.6039 40.2697L44.1138 40.9233L43.6236 40.8416L43.2969 40.4331V39.7796L43.787 39.1261L44.1955 38.881L44.5222 38.7993Z" fill="#A51B28"/>
<path d="M43.786 25.3203H44.4395L44.7663 25.5654L44.6846 26.1372L44.2761 26.9541L43.8677 27.1992H43.2959L43.0508 26.8724V26.3823L43.4592 25.5654L43.786 25.3203Z" fill="#B72C34"/>
<path d="M55.7931 46.4785H56.0382L55.8748 46.887L55.6297 47.2137L55.5481 47.8673L55.8748 48.3574L56.365 48.7659L56.8551 49.0109L57.5086 49.0926L58.1622 48.8475V49.0109L57.672 49.3377H56.5283L55.5481 48.8475L54.9762 48.1123L54.8945 47.3771L54.9762 47.132L55.3847 46.7236L55.7931 46.4785Z" fill="#F7EFE1"/>
<path d="M46.7252 31.6104L46.8886 31.692V36.0217L46.8069 36.8386L46.3984 36.7569L46.4801 32.5906L46.5618 31.7737L46.7252 31.6104Z" fill="#F5E3D0"/>
<path d="M32.1841 18.7852L32.9193 18.8668L33.001 18.9485L32.9193 19.5204L32.5109 20.1739L32.1841 20.664L31.8573 20.7457L31.5306 20.3373V20.0922H31.3672V19.6021L31.7756 19.1119L32.1841 18.7852Z" fill="#B62A33"/>
<path d="M51.6301 23.8501H52.0385V24.0135L52.2836 24.0952L51.4667 24.667L50.4047 25.3205L50.0779 25.2388V24.9938L49.4244 25.1571V25.3205L49.0977 25.4022L49.261 25.0755L49.5878 24.667L50.323 24.1769H50.5681L50.323 24.5036L51.6301 23.8501Z" fill="#F7EEDF"/>
<path d="M54.569 46.1514L54.7323 46.4781L54.6506 46.9683H55.3042L54.9774 47.1317V47.8669L55.2225 48.357L55.5492 48.7655L56.5295 49.2556H57.6732L57.9183 49.1739L57.8366 49.419L57.6732 49.5007H56.2845L55.6309 49.2556L55.0591 48.7655L54.7323 48.2753L54.2422 46.8049V46.3964L54.569 46.1514Z" fill="#FAF1DE"/>
<path d="M21.6474 24.4219H22.546L22.7911 24.5853L22.3009 24.7486L21.4023 25.0754L21.2389 25.4839L20.9122 25.6472L20.422 25.974H20.0136L20.0953 25.4839L19.5234 25.974L19.6868 25.6472L20.2587 25.0754L20.9122 24.6669L21.6474 24.4219Z" fill="#F5EAD8"/>
<path d="M56.694 44.6812H57.5109L58.4095 45.1713L59.063 45.9065L59.3081 46.56V48.0305L59.063 48.2755H58.8996L58.9813 47.4586L58.8996 46.6417L58.4095 45.6614L57.9193 45.253L57.5925 45.0896L56.3672 45.0079L56.4489 44.7628L56.694 44.6812Z" fill="#F9EFDB"/>
<path d="M29.5722 38.6357L29.8989 38.7174L30.3891 39.2893V39.8611L29.7356 40.1879L29.6539 40.3512H29.3271L29.2454 39.9428L29.082 39.8611L29.1637 39.4526L29.4905 38.7174L29.5722 38.6357Z" fill="#D89966"/>
<path d="M22.4647 37.9824H23.5266L24.752 38.4726V38.6359L25.0788 38.7993L25.7323 39.4529L25.8957 40.0247H25.7323L25.1605 39.1261L24.6703 38.7993L23.69 38.3909L22.8731 38.4726L21.7294 39.0444L21.4844 38.9627L21.8928 38.5543L22.383 38.3092L22.4647 38.2275L22.1379 38.0641L22.4647 37.9824Z" fill="#F3E4D0"/>
<path d="M55.547 45.6611H56.1189L56.2006 46.0696L55.7104 46.6414L54.9752 47.0499L54.6484 46.9682V46.478H54.8118L54.9752 46.0696L55.2203 45.7428L55.547 45.6611Z" fill="#B93237"/>
<path d="M31.2046 38.5542L31.5314 38.6359L31.7765 39.0443L31.8582 39.4528L31.6948 39.6979V40.4331H31.0413L30.7962 40.188V40.0246L30.6328 39.9429L30.7145 39.3711H30.7962L30.9596 39.8613L31.123 39.6979V38.9627L31.0413 38.6359L31.2046 38.5542Z" fill="#F9EEDA"/>
<path d="M33.4934 58.9771L33.9018 59.0587L34.0652 59.4672L33.6568 60.2024L33.33 60.4475L32.8398 60.2841V59.794L33.2483 59.1404L33.4934 58.9771Z" fill="#B72C34"/>
<path d="M54.733 19.1934L55.0598 19.5201L55.4682 19.6018L55.6316 19.8469V20.2553L55.1415 20.8272L54.733 20.7455L54.5696 19.9286L54.4062 19.6835L54.733 19.1934Z" fill="#B83036"/>
<path d="M42.4794 26.791L42.6428 27.0361V27.7713L43.0513 29.2417L43.378 29.8953L43.0513 29.8136L42.6428 29.16L42.2344 28.0164V27.0361L42.4794 26.791Z" fill="#F5E7D4"/>
<path d="M10.7831 46.7236H11.2733L11.4366 46.9687L11.3549 47.7856L11.0282 47.949L10.293 47.7039L10.3747 47.2955L10.6197 46.8053L10.7831 46.7236Z" fill="#B62733"/>
<path d="M29.8989 22.2979L30.0623 22.3795V22.6246H30.2257L30.3074 23.1964L30.0623 23.2781V23.4415H29.082V23.0331L29.6539 22.3795L29.8989 22.2979Z" fill="#FFFCEE"/>
<path d="M30.8789 22.6245L31.2057 22.7062L31.5324 23.1963L32.1043 23.7682L33.5747 24.34L33.8198 24.5034L33.7381 24.5851H33.1662L31.9409 24.0949L31.5324 23.6865L30.9606 22.8696L30.8789 22.6245Z" fill="#F2E2CB"/>
<path d="M49.259 24.9121L49.4224 24.9938L49.0956 25.4023L49.4224 25.3206V25.1572L49.9125 24.9121L50.1576 24.9938V25.2389L50.321 25.4023L49.5858 25.729L49.0956 25.8924L49.0139 26.2192L48.7689 25.6473L48.6055 25.5656L48.6872 25.4023L49.259 24.9121Z" fill="#F3DFC8"/>
<path d="M17.4832 44.7627L17.8099 44.8444L17.8916 45.0895L16.9113 45.743L16.5029 45.9881L16.3395 46.0697L16.2578 45.5796L16.5846 45.2528L17.4832 44.7627Z" fill="#F6EBDA"/>
<path d="M32.2675 38.6357L32.4309 38.7174L32.3492 38.8808L32.4309 39.8611H32.5943V40.0245H32.7576V40.3512H32.1858L31.9407 40.1879L31.7773 40.1062L31.859 40.0245L32.0224 39.1259L32.1858 38.7174L32.2675 38.6357Z" fill="#F0D9BD"/>
<path d="M34.4743 10.9429H34.8828L34.6377 11.1063L34.4743 11.1879L34.3926 11.5147H34.2293L34.311 11.9232L33.8208 11.8415L33.7391 12.1682L33.6574 11.8415L33.4941 11.7598L33.8208 11.6781L33.1673 11.2696V11.1063L33.0039 11.0246H34.2293L34.4743 10.9429Z" fill="#E4B77E"/>
<path d="M19.0312 28.7515H19.2763L19.6848 29.7318L20.1749 30.3853L21.1552 31.1205V31.2839L20.6651 31.1205L19.8482 30.467L19.1129 29.3233L19.0312 28.7515Z" fill="#F9EFDA"/>
<path d="M28.918 38.4727H28.9997L29.0814 39.2896L29.163 39.5346L29.0814 39.8614L29.3264 39.9431V40.3515H29.6532L29.7349 40.1065L30.225 39.8614L30.3884 39.9431L30.225 40.4332L30.3884 40.5149H29.163L28.918 40.2699V38.4727Z" fill="#F5E2C9"/>
<path d="M41.743 33.2441H42.0698L42.1515 33.8977L41.9881 34.061H41.8247L41.3346 34.6329L41.0078 34.4695L41.498 33.5709L41.743 33.2441Z" fill="#F5E8D5"/>
<path d="M34.9642 53.667H35.0459V57.0163H34.9642V56.6079H34.8008V54.5656L34.8825 53.7487L34.9642 53.667Z" fill="#FAF3E6"/>
<path d="M33.0849 38.9629L33.33 39.0446L33.4117 39.6164L33.2483 40.0249H33.8201L33.7384 40.2699H34.392V40.3516H33.4117V40.1883L32.8398 40.1066L32.9215 39.6164L33.0849 38.9629Z" fill="#EDD3B0"/>
<path d="M34.3899 12.0049H34.4716L34.5533 13.8021V16.6613H34.4716L34.3899 15.681L34.3083 13.6387L34.2266 13.2302L34.3083 12.7401L34.3899 12.0049Z" fill="#E0B070"/>
<path d="M22.9557 35.8584H23.0374L22.9557 37.5739H22.6289V36.1035L22.9557 35.8584Z" fill="#F2DDC2"/>
<path d="M36.1875 38.5542L36.841 38.7176V38.881H36.5143V39.9429L36.7593 40.0246V40.188H36.3509L36.1875 39.9429V38.5542Z" fill="#F6E6CD"/>
<path d="M39.2931 45.2529L39.7016 45.4163L39.3748 45.7431L38.803 46.0698L38.5579 45.9881L38.6396 45.7431L38.3945 45.6614L38.7213 45.4163L39.2931 45.2529Z" fill="#F6EBDA"/>
<path d="M10.5363 20.3374L10.8631 20.4191L10.7814 20.9092L10.2913 21.0726H10.1279L10.0462 21.3177H9.88281V20.9909H10.0462L10.1279 20.4191L10.5363 20.3374Z" fill="#B83137"/>
<path d="M29.5696 38.6357L29.8964 38.7174L30.3048 39.1259V39.7794L30.1415 39.4526L29.8147 39.8611L29.733 39.2076L29.4062 39.0442L29.4879 38.7174L29.5696 38.6357Z" fill="#BD423C"/>
<path d="M10.1297 20.0103L10.2114 20.2553L10.0481 20.9905H9.88468V21.3173H9.72129L9.55791 20.9089L9.39453 20.9905L9.55791 20.5004L10.1297 20.0103Z" fill="#F4E4CD"/>
<path d="M14.1328 46.2334H14.5413L14.7046 46.7235H14.868L14.7863 47.5405L14.4596 47.132L14.1328 46.6419V46.2334Z" fill="#B72C34"/>
<path d="M19.277 40.5146H19.5221L19.6038 41.0048L19.4404 42.0668L19.1953 42.1485V40.7597L19.277 40.5146Z" fill="#F7ECDB"/>
<path d="M35.6168 44.6812H36.107L36.5971 45.0079L36.9239 45.3347V45.4981L36.5154 45.3347L35.5352 44.9262L35.6168 44.6812Z" fill="#F4E5D0"/>
<path d="M43.1304 25.2388L43.2121 25.5655H43.3755L43.2938 25.974L42.967 26.1374L42.8854 25.974L42.5586 26.3007L42.6403 25.7289L42.8037 25.3205L42.8854 25.5655H43.0487L43.1304 25.2388Z" fill="#F4E5D0"/>
<path d="M39.293 38.3906H40.2733L40.3549 38.4723V39.0442L40.1099 39.2075L39.8648 38.7174L39.293 38.554V38.3906Z" fill="#FBF3E2"/>
<path d="M32.5107 38.4727H33.5727V38.5543H33.0825L33.0008 38.7994L32.5924 39.0445L32.429 39.4529H32.3473L32.2656 38.7994L32.5107 38.4727Z" fill="#FAF2E1"/>
<path d="M21.8115 31.2837L22.6284 31.3654L22.7101 31.4471L23.527 31.5288V31.6105L22.2199 31.6921L21.5664 31.5288L21.8115 31.4471V31.2837Z" fill="#EFD9BB"/>
<path d="M31.125 48.6841L31.4518 48.7658L31.7785 49.8278V50.0728L31.5335 49.9911L31.2067 49.3376L31.125 48.6841Z" fill="#F7ECD9"/>
<path d="M29 38.4727H29.5718L29.4901 38.7994L29.2451 39.4529H29.0817L29 39.2896V38.4727Z" fill="#FDF8E9"/>
<path d="M34.5552 39.5347H34.6369V40.1065L34.4735 40.2699H33.7383L33.9017 39.8614L34.065 39.7797V39.9431L34.4735 39.698L34.5552 39.5347Z" fill="#F3DFC7"/>
<path d="M36.597 38.9629H36.842V39.8615L36.5153 40.0249L36.4336 39.9432V39.208L36.597 38.9629Z" fill="#B93238"/>
<path d="M26.386 42.8022H26.6311L26.9579 43.4558L27.0396 43.7008L26.6311 43.5375L26.2227 43.129V42.8839L26.386 42.8022Z" fill="#F7ECDA"/>
<path d="M31.9394 39.208L32.0211 39.3714L31.9394 40.0249L32.0211 40.1066V40.3517L31.776 40.5151L31.4492 40.4334L31.6126 40.3517V39.6982L31.9394 39.208Z" fill="#B32231"/>
<path d="M30.3069 45.9883L30.3886 46.2334L30.6337 46.1517L30.797 46.315V46.7235H30.1435L29.8984 46.5601H30.1435L30.3069 45.9883Z" fill="#F5E6D0"/>
<path d="M19.9319 39.3711L20.177 39.4528V40.1063L20.0953 40.2697H19.9319L19.8502 40.1063L19.6051 40.2697L19.5234 40.1063L19.9319 39.3711Z" fill="#F3E4CF"/>
<path d="M50.6484 43.1289L51.1386 43.2106L51.6287 43.4557L52.5273 44.0275V44.1909L52.2006 44.0275L50.6484 43.2106V43.1289Z" fill="#BF4A40"/>
<path d="M58.8162 48.3574L58.8979 48.6842L58.2444 49.256L57.8359 49.4194L58.081 49.0109L58.4895 48.6025L58.8162 48.3574Z" fill="#F6E8D0"/>
<path d="M19.1158 43.374L19.5243 43.4557L19.606 43.8642L19.2792 44.0275L19.0341 43.9459L18.9524 43.5374L18.7891 43.4557L19.1158 43.374Z" fill="#F0D9BC"/>
<path d="M33.9006 11.3516L34.3908 11.4333L34.2274 11.5149L34.3091 11.9234L33.819 11.8417L33.7373 12.1685L33.6556 11.8417L33.4922 11.76L33.819 11.6783L33.4922 11.4333L33.9006 11.3516Z" fill="#DDAA69"/>
<path d="M35.1255 56.9346H35.2072V57.9965L35.1255 58.1599L35.2889 58.2416H34.3086L34.472 57.6698L34.5537 57.9965H34.9621L35.0438 57.9149L35.1255 56.9346Z" fill="#B52833"/>
<path d="M31.8587 38.3906H32.5122L32.4305 38.6357L32.1855 38.7991L32.0221 39.1258V38.8808L31.6953 38.7174V38.4723L31.8587 38.3906Z" fill="#B52833"/>
<path d="M54.651 45.1714L55.0594 45.3348V45.5798L54.8144 45.7432L54.4876 45.6615L54.3242 45.2531L54.651 45.1714Z" fill="#B82F35"/>
<path d="M50.4047 24.0947L50.5681 24.1764L50.1596 24.5849L49.8329 24.7483L49.5061 25.075L49.4244 25.3201L49.0977 25.4018L49.261 25.075L49.5878 24.6666L50.323 24.1764L50.4047 24.0947Z" fill="#F2E0C4"/>
<path d="M10.0459 47.0503H10.2092L10.2909 47.6221L10.4543 47.7855H9.96416L9.88247 48.194H9.80078V47.5404L10.0459 47.0503Z" fill="#EED3B2"/>
<path d="M23.8546 31.2021H24.018V31.4472L23.7729 31.5289H22.7109L22.7926 31.3655L23.8546 31.2021Z" fill="#F6EBDB"/>
<path d="M43.2965 25.0752H43.705V25.2386L44.0318 25.3203L43.3782 25.647L43.2148 25.5653L43.2965 25.0752Z" fill="#F3DEC6"/>
<path d="M51.383 24.4219L51.7097 24.5036L50.9745 24.9937L50.5661 25.1571L50.4844 24.8303L51.3013 24.5036L51.383 24.4219Z" fill="#EFD5B4"/>
<path d="M54.8964 45.6611L54.9781 45.8245H55.1415L54.9781 46.1513L54.733 46.478L54.5696 46.233L54.4062 46.1513L54.8964 45.6611Z" fill="#E6C190"/>
<path d="M10.7835 21.3989H10.9468L10.8651 21.8891L10.7018 22.0525L10.375 21.9708L10.4567 21.644L10.7835 21.3989Z" fill="#F7EEE1"/>
<path d="M34.3915 16.6611V16.9062V17.233H33.9013L33.6562 16.9879V16.8245L34.3098 16.7428L34.3915 16.6611Z" fill="#D6A05E"/>
<path d="M33.82 17.2329H34.4735L34.7186 17.478L33.7383 17.5597V17.3146L33.82 17.2329Z" fill="#F8EFE0"/>
<path d="M49.0973 43.0474H49.2607V43.2107L49.6692 43.3741L49.9959 43.7009L49.179 43.5375L49.0156 43.2107L49.0973 43.0474Z" fill="#BA3939"/>
<path d="M14.5391 46.2334L14.6208 46.3968H15.5194L15.2743 46.5602L14.7024 46.8052L14.5391 46.4785V46.2334Z" fill="#E4C092"/>
<path d="M36.759 61.918L36.8407 62.163L36.4322 62.5715L36.1055 62.6532L36.1872 62.4081L36.759 61.918Z" fill="#F4E5D0"/>
<path d="M32.8381 59.4673L32.9198 59.794L32.8381 60.2025L32.7565 60.0391H32.5931V60.2025L32.4297 60.1208L32.5114 59.7124L32.8381 59.4673Z" fill="#F6E7D0"/>
<path d="M25.2422 39.126L25.569 39.2894L25.814 39.6161L25.8957 40.0246H25.7323L25.2422 39.2894V39.126Z" fill="#F6EAD9"/>
<path d="M19.1953 43.2925H19.6855L19.8488 43.7009L19.6855 43.946L19.4404 43.8643H19.6038L19.5221 43.5376L19.1953 43.2925Z" fill="#B72C34"/>
<path d="M36.7607 39.126H36.8424V39.6978L36.5156 39.7795V39.2894L36.7607 39.126Z" fill="#A21525"/>
<path d="M30.6891 23.8903L30.699 24.0727L26.9373 26.2164L26.1871 26.5499L26.0559 26.1545L29.7161 24.1628L30.4663 23.8293L30.6891 23.8903Z" fill="#F5E3D0"/>
</svg>
