<svg width="300" height="90" viewBox="0 0 300 90" fill="none" xmlns="http://www.w3.org/2000/svg">
<path d="M43.1433 0H46.0709L49.7689 0.46225L52.3883 1.07858L55.3159 2.15716L57.7812 3.38983L60.0924 4.77658L62.2496 6.47149L64.0986 8.16641L65.1772 9.39907L67.1803 12.0185L68.567 14.4838L69.4915 16.3328L70.416 18.7981L73.8058 20.1849L76.4253 21.5716L79.0447 23.4206L81.0478 25.2696L83.0508 27.2727L85.0539 30.0462L86.2866 32.2034L87.5193 34.8228L88.4438 37.7504L89.0601 40.678L89.2142 42.0647V47.1495L88.7519 50.2311L87.9815 53.1587L86.7488 56.2404L85.208 59.0139L83.6672 61.171L81.8182 63.3282L80.4314 64.7149L78.2743 66.4099L75.963 67.9507L73.6518 69.1833L70.416 70.416L69.4915 72.8813L68.2589 75.5008L67.1803 77.1957L65.3313 79.661L63.6364 81.51L61.6333 83.359L59.0139 85.208L56.5485 86.5948L53.4669 87.8274L50.2311 88.7519L46.9954 89.2142H42.3729L39.1371 88.7519L36.2095 87.9815L33.1279 86.7488L30.5085 85.3621L27.8891 83.5131L25.886 81.6641L24.037 79.8151L22.188 77.3498L20.339 74.114L19.2604 71.4946L18.9522 70.2619L17.5655 69.9538L15.1002 68.8752L12.7889 67.6425L10.1695 65.7935L8.16641 63.9445L6.31741 62.0955L4.46841 59.6302L2.61941 56.3944L1.38675 53.3128L0.616333 50.5393L0.154083 47.9199L0 46.225V42.9892L0.46225 39.4453L1.38675 35.9014L2.61941 32.9738L4.00616 30.3544L5.547 28.1972L7.24191 26.1941L9.09091 24.3451L11.7103 22.3421L14.0216 20.9553L16.4869 19.7226L18.6441 18.9522H18.9522L19.4145 17.4114L20.4931 14.9461L21.7257 12.6348L23.2666 10.4777L24.9615 8.47458L26.6564 6.77966L28.8136 5.08475L31.1248 3.54391L34.6687 1.849L38.6749 0.616333L41.4484 0.154083L43.1433 0Z" fill="#DCE0E0"/>
<path d="M185.824 18.644L188.597 18.7981L190.138 21.4175L192.449 25.4237L194.607 29.1217L196.918 33.1279L199.075 36.8259L201.386 40.832L203.081 43.7596V44.0678H203.389V18.7981L206.317 18.644L207.858 18.7981V52.8505L207.241 53.0046H204.16L203.389 52.8505L201.078 48.8443L198.613 44.6841L196.301 40.6779L193.682 36.2095L191.525 32.5115L188.905 28.0431L188.751 52.8505L187.981 53.0046H184.899L184.129 52.8505V18.9522L184.283 18.7981L185.824 18.644Z" fill="#40C1C4"/>
<path d="M17.565 23.4204H18.0272L17.8731 25.7317V28.3511L18.1813 31.2787L19.1058 35.1307L20.6466 38.9828L22.3415 41.9104L23.8824 43.9135L24.3446 44.6839L9.55264 59.4759L8.93631 59.1677L7.54956 57.3187L6.16281 54.8534L5.23831 52.6962L4.31381 49.6146L3.85156 46.3788V42.8349L4.31381 39.7532L5.23831 36.5175L6.47098 33.744L8.01181 31.2787L9.24447 29.7378L10.6312 28.197L12.4802 26.5021L14.9456 24.8072L17.565 23.4204Z" fill="#4A92CC"/>
<path d="M79.8154 29.7378H80.1236L81.8185 32.049L83.3593 34.8225L84.592 38.0583L85.3624 41.9104L85.5165 44.8379L85.2083 48.3819L84.4379 51.6176L83.5134 54.0829L81.9726 57.0105L80.1236 59.4758L78.2746 61.4789L76.2715 63.1738L73.9603 64.7147L71.3408 65.9473V59.784L70.7245 56.086L69.8 53.0044L68.5674 50.2309L67.1806 47.7655L65.6398 45.6084L65.0234 44.8379L65.3316 44.2216L79.8154 29.7378Z" fill="#4A92CC"/>
<path d="M44.3772 65.0229L44.9935 65.3311L56.5498 76.8874L57.7824 77.9659L59.4773 79.6609L59.3233 80.2772L57.1661 81.818L54.7008 83.2048L51.6191 84.4374L49.1538 85.0538L46.9966 85.3619H42.22L39.4465 84.8997L36.3649 83.9752L34.0536 82.8966L31.5883 81.5098L29.123 79.5068L26.9658 77.3496L25.2709 75.0384L24.0382 72.8812L23.4219 71.6485V71.3404H29.277L32.3587 70.8781L35.2863 70.1077L37.7516 69.1832L41.2955 67.3342L43.4527 65.7934L44.3772 65.0229Z" fill="#4A92CC"/>
<path d="M42.9894 3.85205H46.2252L49.615 4.3143L52.3885 5.08472L55.162 6.31738L57.6273 7.70413L59.7845 9.39904L62.558 12.1725L64.407 14.792L65.9478 17.7195L65.6397 18.0277L64.0988 17.8736H60.5549L57.1651 18.3359L54.0834 19.1063L51.0018 20.339L48.0742 21.8798L45.917 23.4206L44.6844 24.3451L29.7383 9.39904L30.5087 8.62863L32.2036 7.39596L34.6689 6.00922L37.9047 4.77655L41.4486 4.00613L42.9894 3.85205Z" fill="#4A92CC"/>
<path d="M271.957 18.3359H277.041L279.969 18.7982L281.972 19.4145L283.821 20.339L285.516 21.7258L286.903 23.5748L287.673 25.5778L287.981 27.2728V29.8922L287.519 31.8953L286.441 34.0524L284.746 36.0555L282.897 37.4423L281.202 38.3668H280.894L281.664 39.7535L283.205 41.9107L285.208 44.8382L287.673 48.3822L289.676 51.3097L290.601 52.6965V52.8506L289.06 53.0047H286.595L285.054 52.8506L282.588 49.1526L281.356 47.4577L279.661 44.9923L277.196 41.4484L275.192 38.5208L274.268 37.1341V36.8259L276.733 36.0555L278.582 35.2851L280.123 34.2065L281.048 33.4361L282.126 31.7412L282.588 30.3544V27.5809L281.972 25.5778L280.894 24.1911L279.353 23.2666L277.35 22.6503H272.419V52.8506L271.032 53.0047H268.721L267.642 52.8506L267.488 52.6965V18.9523L267.642 18.7982L271.957 18.3359Z" fill="#40C1C4"/>
<path d="M59.7837 21.5718H64.8684L67.6419 22.034L70.2613 22.8044L73.0348 24.0371L75.3461 25.4239L77.1951 26.8106L77.041 27.4269L62.5572 41.9108L61.9409 41.7567L47.457 27.2729L47.6111 26.6565L49.7683 25.1157L52.2336 23.7289L55.3153 22.4963L57.7806 21.8799L59.7837 21.5718Z" fill="#40C1C4"/>
<path d="M26.8115 47.3037L27.4278 47.6119L41.9117 62.0957L41.7576 62.5579L39.1382 64.4069L36.5188 65.7937L33.5912 66.8723L30.9718 67.4886L28.3523 67.7968H25.5789L22.189 67.3345L19.8778 66.7182L17.4124 65.7937L14.793 64.4069L12.6359 62.8661L12.0195 62.4039L12.3277 61.7875L26.8115 47.3037Z" fill="#40C1C4"/>
<path d="M62.0967 47.4575L62.713 47.7657L64.4079 50.0769L65.6406 52.3882L66.8733 55.6239L67.4896 58.2433L67.7978 60.5546V64.0985L67.3355 67.1802L66.411 70.4159L65.1783 73.1894L63.6375 75.6547L62.4048 77.1956L61.7885 76.8874L47.3047 62.4036L48.2292 61.325L62.0967 47.4575Z" fill="#40C1C4"/>
<path d="M26.9632 12.0186L28.0418 12.9431L41.9093 26.8105L41.6011 27.4269L27.1173 41.9107L26.3469 41.1403L24.9601 39.2913L23.4193 36.3637L22.3407 33.4361L21.7244 30.5085L21.5703 29.43V24.4993L22.0326 21.7258L22.9571 18.6441L24.4979 15.4084L26.0387 13.0971L26.9632 12.0186Z" fill="#40C1C4"/>
<path d="M107.394 18.3359H111.709L114.636 18.7982L117.256 19.5686L117.102 21.2635L116.331 23.5748L114.944 23.2666L112.325 22.6503L110.784 22.4962H108.473L106.316 22.9584L104.775 23.7288L103.85 24.9615L103.542 25.886V28.1973L104.313 29.7381L105.545 30.8167L108.473 32.2034L112.325 33.7443L114.944 35.131L116.639 36.5178L117.872 38.2127L118.488 39.5994L118.796 40.9862V44.8382L118.334 46.6872L117.41 48.5362L116.023 50.2312L114.174 51.6179L111.709 52.6965L109.86 53.1587L108.781 53.3128H102.772L100.152 52.8506L97.533 52.0802L97.3789 51.9261L97.533 50.3852L98.4575 47.6117L99.9983 48.074L102.464 48.6903L103.542 48.8444H107.857L110.322 48.2281L111.709 47.3036L112.171 47.1495L113.249 44.9923L113.404 44.376V42.0647L112.787 40.3698L111.863 39.2913L109.706 38.0586L105.699 36.3637L103.08 35.2851L100.923 33.8983L99.8442 32.8198L98.7657 30.9708L98.3034 29.2758V25.7319L98.9197 23.5748L99.8442 22.0339L101.539 20.339L103.85 19.1064L106.162 18.49L107.394 18.3359Z" fill="#40C1C4"/>
<path d="M164.254 18.644H166.257L168.106 18.7981L168.569 19.5685L171.65 29.1217L174.115 36.6718L176.581 44.3759L179.2 52.3883V52.8505L178.43 53.0046H174.886L174.115 52.8505L173.037 49.6148L166.565 28.0431L165.333 23.8829L163.176 30.9707L159.786 42.3729L156.704 52.6964L155.78 53.0046H152.39L151.773 52.8505L151.928 51.7719L154.393 44.2219L156.55 37.5963L159.632 28.0431L162.559 19.1063L162.867 18.7981L164.254 18.644Z" fill="#40C1C4"/>
<path d="M239.753 18.9521H262.25L262.404 19.7226V22.1879L262.25 23.1124H253.467V52.6964L253.313 52.8504L252.08 53.0045H249.769L248.536 52.8504V23.1124H239.753L239.599 22.9583L239.445 20.9552L239.599 19.1062L239.753 18.9521Z" fill="#40C1C4"/>
<path d="M213.252 18.9521H235.748L235.902 19.7226V22.1879L235.748 23.1124H226.965V52.6964L226.811 52.8504L225.578 53.0045H223.267L222.034 52.8504V23.1124H213.252L213.098 22.9583V19.1062L213.252 18.9521Z" fill="#40C1C4"/>
<path d="M144.066 18.644L147.302 18.7981L147.148 19.4145L142.988 25.7319L138.519 32.5115L136.824 35.1309L137.903 36.8259L140.214 40.2157L142.679 43.7596L145.299 47.6117L148.689 52.5423V52.8505L147.764 53.0046H144.22L143.142 52.6964L141.139 49.9229L139.444 47.4576L135.129 41.2943L132.664 37.7504L131.277 35.7473L131.586 34.9769L133.435 32.0493L134.975 29.738L137.287 26.1941L139.906 22.188L142.063 18.9522L142.217 18.7981L144.066 18.644Z" fill="#40C1C4"/>
<path d="M126.81 18.644H128.505L129.738 18.7981L129.892 18.9522V52.8505L129.121 53.0046H125.731L124.961 52.6964V18.9522L125.115 18.7981L126.81 18.644Z" fill="#40C1C4"/>
<path d="M43.7592 39.1372H45.6082L48.5358 39.4454L49.6144 39.7535L50.0766 42.6811V46.6873L49.6144 49.4608L48.844 49.7689L46.5327 50.0771H42.6806L39.7531 49.6149L39.4449 48.5363L39.1367 45.4546V43.7597L39.4449 40.8321L39.7531 39.7535L40.6776 39.4454L43.7592 39.1372Z" fill="#40C1C4"/>
<path d="M294.298 9.09082H296.455L297.842 9.55307L299.228 10.7857L299.845 12.0184L299.999 12.6347V14.6378L299.383 16.3327L298.612 17.2572L297.379 18.0276L296.147 18.3358H294.606L292.911 17.7195L291.678 16.6409L290.908 15.1001L290.754 14.4837V12.9429L291.216 11.4021L292.295 10.0153L293.681 9.2449L294.298 9.09082Z" fill="#F9FBFB"/>
<path d="M237.75 63.6362H238.982L240.523 63.9444L241.448 64.5607L242.064 65.3311L242.372 66.2556V67.9506L241.756 69.3373L240.831 70.1077L239.136 70.57H237.441V74.268H236.055V63.7903L237.75 63.6362Z" fill="#4A92CC"/>
<path d="M189.215 66.7178H191.218L192.143 67.18L193.067 68.2586L193.376 69.3372V70.878H188.291L188.753 72.4189L189.369 72.8811L189.832 73.0352H191.681L192.605 72.8811L192.913 73.4974L192.759 74.1138L191.527 74.4219H189.678L188.291 73.9597L187.212 72.8811L186.75 71.4944V69.6454L187.212 68.2586L188.137 67.18L189.215 66.7178Z" fill="#4A92CC"/>
<path d="M163.637 66.7178H165.64L166.565 67.18L167.335 68.1045L167.797 69.4913V70.5699L167.643 70.878H162.713L163.021 72.1107L163.791 72.8811L164.254 73.0352H166.103L167.027 72.8811L167.335 73.9597L165.948 74.4219H164.099L162.713 73.9597L161.942 73.3434L161.326 72.2648L161.172 71.6484V69.6454L161.634 68.2586L162.559 67.18L163.637 66.7178Z" fill="#4A92CC"/>
<path d="M212.172 66.7178H214.33L215.716 67.6423L216.333 69.029V70.878H211.248L211.864 72.5729L212.789 73.0352H214.792L215.716 72.8811L215.87 74.1138L214.638 74.4219H212.789L211.402 73.9597L210.323 73.0352L209.861 71.9566L209.707 70.4158L210.015 68.7209L210.94 67.3341L212.172 66.7178Z" fill="#4A92CC"/>
<path d="M195.531 66.7178L196.455 66.8719L196.763 67.6423L197.688 66.8719L197.996 66.7178H199.845L200.616 67.18L201.232 67.9504L201.386 68.5668V74.2678H199.999L199.845 69.1831L199.537 68.4127L199.075 68.1045L197.688 68.2586L196.918 69.1831L196.763 69.7994L196.609 74.2678H195.223V66.8719L195.531 66.7178Z" fill="#4A92CC"/>
<path d="M294.298 9.09082H296.455L297.842 9.55307L299.228 10.7857L299.845 12.0184L299.999 12.6347V14.6378L299.383 16.3327L298.612 17.2572L297.379 18.0276L296.147 18.3358H294.606L292.911 17.7195L291.678 16.6409L290.908 15.1001L290.754 14.4837V12.9429L291.216 11.4021L292.295 10.0153L293.681 9.2449L294.298 9.09082ZM294.606 9.86124L293.219 10.4776L292.449 11.248L291.832 12.3266L291.678 13.097V14.3296L292.141 15.7164L293.219 16.9491L294.914 17.5654L296.609 17.4113L297.534 16.9491L298.304 16.3327L298.92 15.2541L299.074 14.6378V12.6347L298.304 11.0939L297.379 10.3235L296.147 9.86124H294.606Z" fill="#4A92CC"/>
<path d="M41.1406 53.6211H48.2285L47.9203 54.5456L46.6876 56.8568L45.1468 59.014L44.5305 59.4763L42.9896 57.4732L41.6029 55.0078L41.1406 54.0833V53.6211Z" fill="#4A92CC"/>
<path d="M53.6211 40.9863L56.2405 42.219L58.0895 43.4517L59.4763 44.5302L58.8599 45.3007L56.5487 46.8415L53.9293 48.2282H53.6211L53.7752 44.068L53.6211 40.9863Z" fill="#4A92CC"/>
<path d="M35.1295 41.1401H35.5917V48.228L34.0509 47.6116L31.7396 46.2249L29.8906 44.8381L30.1988 44.2218L32.0478 42.8351L34.8213 41.2942L35.1295 41.1401Z" fill="#4A92CC"/>
<path d="M44.5305 29.8921L44.9927 30.0462L46.5335 32.2033L47.9203 34.6687L48.2285 35.5932H41.1406L41.6029 34.2064L42.8355 32.0493L44.2223 30.2003L44.5305 29.8921Z" fill="#4A92CC"/>
<path d="M221.881 63.7905H223.113L223.267 63.9446V72.8814H227.274V74.2682H221.727V63.9446L221.881 63.7905Z" fill="#4A92CC"/>
<path d="M145.609 63.7905H146.996V72.8814H151.156V74.2682H145.609V63.7905Z" fill="#4A92CC"/>
<path d="M228.969 63.7905H230.355V72.8814H234.362L234.516 73.0355V74.1141L234.362 74.2682H228.969V63.7905Z" fill="#4A92CC"/>
<path d="M159.169 63.4824H160.556L161.018 63.6365L160.864 64.7151L160.556 64.8692H159.323L158.861 65.1773L158.553 66.8723H160.402V67.9508H158.553V74.2682H157.166V67.9508H155.934V66.8723H157.166V65.3314L157.629 64.4069L158.553 63.6365L159.169 63.4824Z" fill="#4A92CC"/>
<path d="M171.033 66.7178H173.344L174.114 67.0259L173.96 68.1045L172.882 67.9504H171.495L170.879 68.1045L171.033 69.1831L172.419 69.7994L173.652 70.4158L174.268 71.1862L174.422 72.4189L173.96 73.3434L173.036 74.1138L172.111 74.4219H170.416L169.184 74.1138L169.338 73.0352L169.646 72.8811L170.262 73.0352H172.111L172.728 72.5729V71.6484L172.111 71.1862L169.954 70.2617L169.338 69.3372V68.2586L169.8 67.3341L171.033 66.7178Z" fill="#4A92CC"/>
<path d="M205.701 66.7178H208.167L208.629 66.8719V67.7964L208.475 68.1045L206.472 67.9504L205.393 68.4127L204.777 69.6454V71.4944L205.239 72.4189L206.164 73.0352H208.629L208.783 74.1138L207.705 74.4219H206.01L204.623 73.9597L203.544 72.727L203.082 71.1862V69.7994L203.698 68.1045L204.469 67.3341L205.701 66.7178Z" fill="#4A92CC"/>
<path d="M178.274 66.7178H180.739L181.356 67.0259L181.047 68.1045L179.044 67.9504L177.966 68.4127L177.504 69.3372L177.349 69.9535V71.1862L177.812 72.4189L178.736 73.0352H181.202L181.356 74.1138L180.277 74.4219H178.582L177.041 73.8056L176.271 72.8811L175.809 71.8025V69.3372L176.425 67.9504L177.504 67.0259L178.274 66.7178Z" fill="#4A92CC"/>
<path d="M237.441 65.0229H239.599L240.523 65.6393L240.831 66.4097V67.7964L240.369 68.5669L239.907 69.0291L239.444 69.1832H237.441V65.0229Z" fill="#FAFCFC"/>
<path d="M182.588 66.8721H184.899V74.2681H183.512V67.9507H182.588L182.434 67.1802L182.588 66.8721Z" fill="#4A92CC"/>
<path d="M151.926 66.8721H154.237V74.2681H153.004L152.85 74.114V67.9507H151.926V66.8721Z" fill="#4A92CC"/>
<path d="M294.144 11.0938H295.839L296.764 11.556L297.226 12.1723V13.0968L296.609 13.8672L296.764 14.4836L297.534 15.7162V16.0244H296.609L295.377 14.3295L295.223 13.7132L295.993 13.0968V12.3264L295.839 12.1723L294.76 12.0182V16.0244H293.836V11.2478L294.144 11.0938Z" fill="#4A92CC"/>
<path d="M212.633 67.7964H213.711L214.636 68.4127L214.944 69.1831V69.7995H211.246L211.708 68.4127L212.633 67.7964Z" fill="#F9FBFB"/>
<path d="M189.676 67.7964H190.754L191.679 68.5668L191.987 69.7995H188.289L188.443 68.875L189.214 67.9505L189.676 67.7964Z" fill="#FAFCFC"/>
<path d="M163.944 67.7964H165.176L166.101 68.5668L166.409 69.7995H162.711L162.865 68.875L163.635 67.9505L163.944 67.7964Z" fill="#FAFCFC"/>
<path d="M153.005 63.6362L154.084 63.7903L154.238 63.9444V64.8689L154.084 65.1771L153.159 65.3311L152.543 65.1771V63.7903L153.005 63.6362Z" fill="#4A92CC"/>
<path d="M183.511 63.6362H184.436L184.744 63.7903V65.1771L183.819 65.3311L183.203 65.1771V63.7903L183.511 63.6362Z" fill="#4A92CC"/>
<path d="M294.914 12.0186H295.839L296.147 12.3267V13.0971L295.222 13.8676L294.914 13.7135V12.0186Z" fill="#FBFDFD"/>
</svg>
