<svg width="147" height="100" viewBox="0 0 147 100" fill="none" xmlns="http://www.w3.org/2000/svg">
<path d="M42.7979 6.6333L43.7251 6.70463L48.5753 7.27524L51.1431 7.77453L53.2829 8.34514L54.9234 8.91575L56.7066 9.62902L59.0604 10.7702L60.7722 11.7688L62.1274 12.6247L63.7679 13.766L64.7665 14.6219L65.5511 15.2638L66.621 16.1911L67.4056 16.833L68.3328 17.7603L68.4755 18.1882L68.0475 18.4735L66.5497 18.9015L64.6952 19.6861L62.1987 20.8986L60.4869 21.8259L59.1317 22.6818L57.7052 23.6091L56.5639 24.465L55.6367 25.1782L54.6381 25.9628L53.7822 26.7474L53.0689 27.3894L52.213 28.174L51.0718 29.3152L50.5725 29.8858L49.4313 31.0984L48.504 32.2396L47.5054 33.5948L46.5069 35.0213L45.7936 36.0912L44.9377 37.5891L43.9391 39.4436L43.1545 40.6561L42.9405 40.8701H42.7979L42.7266 40.2282V6.70463L42.7979 6.6333Z" fill="#8BB4C4"/>
<path d="M48.2188 0H84.524L84.5954 1.28388V24.6077L84.6667 29.8146L84.8093 32.2397L85.0233 34.6648L84.952 34.7361H84.5954L84.1674 34.0942L83.7394 32.8103L82.8835 29.6719L82.0989 27.5321L81.243 25.4636L80.3871 23.6091L79.6738 22.2539L78.6752 20.4708L77.6053 18.7589L76.5354 17.1897L75.6082 15.9772L74.8236 15.0499L74.1817 14.2653L73.1831 13.1954L72.6838 12.6248L71.3286 11.2696L70.758 10.7703L69.9734 10.0571L69.1888 9.41512L68.0476 8.48787L66.6924 7.4893L65.9791 6.99001L64.7665 6.20542L63.2687 5.27817L61.4142 4.2796L59.845 3.49501L57.9192 2.71041L56.9206 2.35378L55.2801 1.85449L51.7138 0.85592L49.0747 0.285307L48.2188 0.0713267V0Z" fill="#D7D8D8"/>
<path d="M56.2782 56.4907H58.3466L62.6976 56.6334L63.6961 56.8474L64.4807 57.3466L65.3367 58.1312L65.9073 58.6305L66.6205 59.2725L67.6904 60.271L68.8317 61.4836L69.331 62.0542L70.2582 63.1954L71.1854 64.5506L71.8987 65.6205L72.7546 67.1184L73.5392 68.7589L74.2525 70.3994L75.0371 72.7532L75.5364 74.679L76.0357 77.1041L76.3923 79.1013L76.2496 79.3866L76.107 79.4579L75.1084 79.5292L72.398 79.4579L72.1127 79.1726L71.97 78.3167L71.7561 75.6063V75.1783L68.903 76.6048L66.8345 77.5321L64.766 78.3167L63.1255 78.816L60.4864 79.3866L58.4893 79.6719L56.8488 79.8145L55.2796 79.8859H53.2111L51.214 79.7432L51 79.5292L51.0713 78.8873L51.4993 76.9615L52.3552 74.1084L53.0685 72.1113L53.8531 70.3994L54.4237 69.2582L55.1369 67.9743L55.7076 67.0471L56.5635 65.7632L57.4194 64.622L58.0613 63.8374L58.8459 62.9815L59.3452 62.4108L60.4151 61.4123L60.9857 60.913L61.485 60.4137L61.5563 60.0571L61.1997 59.8431L59.7019 59.1298L58.2753 58.2739L57.3481 57.6319L56.6348 57.0613L56.2782 56.7047V56.4907ZM64.4094 62.9815L63.8388 63.4807L63.3395 64.0514L62.3409 65.0499L61.8417 65.6205L60.9857 66.6191L60.2725 67.5464L59.6305 68.4736L58.9173 69.5435L58.204 70.8987L57.776 71.6833L56.6348 73.9658L56.2068 75.0357L55.9929 75.8203L56.1355 75.8916H57.1341L60.4864 75.321L62.6262 74.7504L64.1241 74.2511L66.4066 73.3238L68.689 72.1826L69.9016 71.5407L70.1155 71.398L70.0442 70.7561L69.1883 69.0442L68.475 67.8317L67.0485 65.6919L66.0499 64.408L65.2653 63.4094L64.766 62.9815H64.4094Z" fill="#F8761C"/>
<path d="M72.3963 24.0371H72.7529L73.1095 24.3224L73.9655 25.9629L74.8927 27.9601L75.82 30.3852L77.0325 34.1655L77.1752 34.8074L77.1038 35.4494L76.6046 35.8773L75.606 36.448L74.2508 37.1612L72.6816 37.9458L70.8984 38.7304L68.9726 39.4437L66.5475 40.1569L64.4077 40.6562L61.6259 41.0842L59.1295 41.2982L56.9897 41.3695L52.5675 41.4408H50.6416L50.5703 41.2982L51.1409 40.1569L52.0682 38.8017L52.9954 37.6605L53.6374 36.8046L54.5646 35.592L55.4919 34.5221L56.3478 33.5949L57.489 32.4537H57.6317L57.703 32.2397L58.4876 31.5977L59.4148 30.8131L60.3421 30.0999L61.6973 29.1013L62.9098 28.3167L64.479 27.3895L66.1195 26.5335L67.6174 25.8203L70.0425 24.893L71.7543 24.3224L72.3963 24.0371Z" fill="#F8761B"/>
<path d="M81.6716 59.5576H83.0981L83.8114 59.7716L84.596 60.4135L87.0924 62.91V63.0526H87.2351L87.7344 63.6232L88.8043 64.6931L89.3036 65.2638L90.5161 66.4763L91.0154 67.0469L92.014 68.0455L92.5133 68.6161L94.0825 70.1853L94.5817 70.7559L95.2237 71.3978L95.723 71.9685L96.3649 72.6817L97.4348 73.7516L97.3635 72.5391L97.2922 69.1867L97.2208 59.7716L97.2922 59.7003H100.359V77.2466L100.217 77.6033L100.003 77.6746H97.5775L96.9355 77.3893L96.1509 76.7473L94.6531 75.2495L94.1538 74.6789L92.5846 73.1097L92.0853 72.5391L91.4434 71.8971L90.9441 71.3265L90.0168 70.3993L89.5175 69.8287L88.5903 68.9014L88.091 68.3308L87.4491 67.6889L86.9498 67.1182L86.0225 66.191L85.3806 65.4064L84.8813 64.9071L84.382 64.3365L83.6688 63.6232L83.3121 63.4093L83.4548 66.0483V77.5319L83.3835 77.6746H81.8856L80.7444 77.6033L80.4591 77.5319L80.3877 77.318L80.3164 59.9143L80.4591 59.7003L81.6716 59.5576Z" fill="#1B1B1B"/>
<path d="M29.1033 59.5576H30.6012L31.3145 59.9856L32.1704 60.7702L32.741 61.3408L33.2403 61.9114L35.7367 64.4078L36.236 64.9784L37.4486 66.191L37.9478 66.7616L38.5185 67.3322L39.0177 67.9028L40.0163 68.9014L40.5156 69.472L41.7995 70.7559L42.2988 71.3265L43.012 72.1111L43.5113 72.6817L44.7239 73.8943L44.6525 73.6803L44.5812 72.7531L44.5099 66.5476V59.7003L44.5812 59.6289H46.6497L47.5056 59.7003L47.5769 59.7716V77.0327L47.363 77.6033L47.2916 77.6746L45.8651 77.6033L44.9379 77.8886L44.0819 77.4606L43.226 76.676L41.6568 75.1068V74.9642H41.5142L41.0149 74.3936L40.2303 73.609V73.4663L40.0163 73.395L39.517 72.8244L38.5898 71.8971L38.0905 71.3265L36.9493 70.114L36.1647 69.258L35.1661 68.1881L34.5955 67.6175L34.0962 67.0469L33.4543 66.405L32.955 65.8344L31.2431 63.9799L30.6725 63.4093L30.3872 63.2666L30.4585 63.4093L30.6012 65.6917V77.6033L30.5299 77.6746H27.8194L27.6768 77.5319L27.6055 77.2466V59.7716L27.6768 59.7003L29.1033 59.5576Z" fill="#1A1919"/>
<path d="M131.168 59.415H131.952L132.594 59.5577L133.094 59.9143L133.807 61.0556L135.947 65.0498L137.088 67.261L137.801 68.6162L138.8 70.542L140.226 73.3237L140.797 74.3936L141.368 75.5349L141.796 76.2481L142.366 77.4607V77.6747L141.938 77.746L140.226 77.6747L139.442 77.6033L138.871 77.318L138.087 75.8202L137.302 74.1797L136.874 73.5377L136.66 73.3951H125.676L125.248 74.1083L124.107 76.4621L123.607 77.4607L123.465 77.6033L122.894 77.6747L120.184 77.6033L120.683 76.6048L121.539 75.0356L123.037 72.0399L123.964 70.3993L124.962 68.4735L125.533 67.3323L126.603 65.3352L127.174 64.1939L128.172 62.2681L128.885 60.9842L129.456 60.1996L130.027 59.7003L130.669 59.4864L131.168 59.415ZM131.097 62.6961L130.526 63.8373L129.884 65.2638L129.171 66.7617L128.315 68.3309L127.673 69.4721L127.102 70.3993V70.542L135.305 70.6133L135.234 70.2567L133.664 67.047L132.88 65.4065L131.881 63.4807L131.382 62.8387L131.097 62.6961Z" fill="#1A1919"/>
<path d="M13.5523 59.4863H15.4781L16.1201 59.9143L16.8333 60.9842L18.2599 63.6946L18.9731 64.9785L19.5437 66.1197L20.257 67.4749L21.1129 69.1154L22.3968 71.6832L23.1101 73.0384L24.18 75.0355L24.7506 75.9628L25.3925 77.318L25.4638 77.6746H22.8248L22.2541 77.532L21.7549 76.9614L20.3283 74.1083L19.9004 73.5377L19.6864 73.395H8.84473L8.41677 74.037L7.4182 76.0341L6.84758 77.2467L6.49095 77.6033H3.28125L3.4239 77.2467L4.4938 75.3922L5.13574 74.037L5.84901 72.6818L6.6336 71.1126L7.20422 70.114L8.98738 66.5477L9.8433 64.9785L10.4139 63.9086L10.9845 62.7674L11.6978 61.4121L12.3397 60.4136L12.9104 59.7716L13.5523 59.4863ZM14.1229 62.7674L13.5523 63.9086L13.053 65.0498L12.4824 66.191L11.7691 67.5462L10.9132 69.1154L10.1286 70.4706V70.542L10.9845 70.6133H18.4025L18.2599 70.2567L17.1186 67.9029L15.9774 65.4778L14.9075 63.4806L14.4795 62.91L14.3369 62.7674H14.1229Z" fill="#1A191A"/>
<path d="M104.137 59.6289H121.826L122.111 59.7002L122.182 59.9855V62.268L121.897 62.4106L113.837 62.5533L113.766 77.6032L113.694 77.6746H111.626L110.841 77.6032L110.77 77.2466L110.841 65.549L110.913 62.4106L105.777 62.482H104.208L102.639 62.4106L102.496 62.1967V59.7002L104.137 59.6289Z" fill="#1A1919"/>
<path d="M80.3867 82.1685H146.079V83.3097L96.9345 83.381H85.3796L80.5294 83.3097L80.3867 83.0244V82.1685Z" fill="#1B1A1A"/>
<path d="M0 82.3823H45.5064L47.5036 82.4537L47.5749 82.525V83.6662L47.2183 83.8089H0V82.3823Z" fill="#1C1C1D"/>
<path d="M84.451 24.1084H84.5223L84.5936 24.6077L84.665 29.8145L84.8076 32.2396L85.0216 34.6647L84.9503 34.7361H84.5936L84.1657 34.0941L83.7377 32.8103L82.9531 29.9572L83.2384 29.8859L84.237 29.4579L84.3083 29.3152L84.3797 27.8887V26.7475L84.451 24.1084Z" fill="#FEFEFE"/>
<path d="M84.377 0H84.5197L84.591 1.28388V17.475L84.5197 18.6163L84.377 18.4023V13.9087L84.2344 11.5549V10.271L84.3057 7.77461L84.377 3.28103V0Z" fill="#FEFEFE"/>
<path d="M63.9805 5.56348L65.1211 6.13379L65.6201 6.56152L65.834 6.7041L65.7627 6.84668L64.1943 5.84863L63.9805 5.70605V5.56348Z" fill="#FEFEFE"/>
<path d="M42.8691 40.1567L43.3682 40.228L43.2256 40.5845L42.9404 40.8696H42.7979L42.7266 40.228L42.8691 40.1567Z" fill="#E5E6E6"/>
<path d="M66.833 7.41797L67.4746 7.8457L68.1162 8.34473L68.5439 8.70117L68.4727 8.84375L67.1895 7.8457L66.7617 7.56055L66.833 7.41797Z" fill="#FEFEFE"/>
<path d="M68.9736 9.05859L69.4727 9.48633L70.1143 9.98535L70.542 10.3418L70.3994 10.4844L69.5439 9.7002L68.9023 9.20117L68.9736 9.05859Z" fill="#FEFEFE"/>
<path d="M83.2383 30.813H83.4521L83.5947 31.1694V31.6685L83.4521 31.7397L83.2383 30.813Z" fill="#C1CBCF"/>
<path d="M33.595 91.0127L33.9516 91.084L34.3082 91.512L34.8075 92.6532L35.7348 95.221L35.8774 95.6489L36.1627 95.7916L36.5193 95.9342L37.09 95.0783L37.5892 93.4378L37.9459 92.3679L38.2312 91.6546L38.6591 91.1553L39.0871 91.084L39.3011 91.2267L39.5151 91.8686L39.8004 93.5805L40.5136 96.0056L41.2982 98.8586V99.2153L40.9416 99.2866L40.0144 99.0726L39.8004 98.716L39.0158 95.4349L38.7305 94.8643L38.3738 95.007L37.9459 95.5063L37.4466 97.0041L37.1613 98.288L36.9473 98.716L36.8047 98.8586L36.3767 98.93L35.8774 98.7873L35.5921 98.4307L35.3781 97.0755L34.9502 96.0056L34.4509 95.2923L34.1656 95.007H33.9516L33.595 95.8629L33.3096 97.1468L33.0243 98.7873L32.8817 99.0013L32.5964 99.0726H31.3838L31.3125 98.5733L32.0971 96.0769L32.953 93.4378L33.167 92.4392L33.3096 91.4407L33.5236 91.084L33.595 91.0127Z" fill="#1B1B1B"/>
<path d="M57.5624 90.7275H58.9176L59.9162 90.9415L61.0574 91.5121L61.628 91.9401L62.2699 92.582L62.9119 93.5806L63.1972 94.3652V95.7204L62.6979 96.8616L62.1273 97.5749L61.4854 98.2882L60.7721 98.7875L59.9875 99.1441L59.1316 99.3581H57.0631L56.6351 99.1441L56.2785 98.6448L56.0645 98.0029L55.9219 96.2197V94.7218L55.9932 92.796L56.1359 91.5121L56.3498 91.1555L56.8491 90.8702L57.5624 90.7275ZM58.0617 92.2254L57.6337 92.5107L57.4197 92.796L57.3484 93.0813V96.505L57.4911 97.5036L57.6337 97.8602L58.0617 97.9315H59.1316L59.8448 97.7176L60.6294 97.2183L61.2 96.5763L61.4854 96.077L61.628 95.5064V94.7218L61.414 94.0799L60.9147 93.2953L60.2015 92.6534L59.3456 92.2967L59.0602 92.2254H58.0617Z" fill="#1B1A1A"/>
<path d="M100.5 90.7988H101.998L102.711 91.0128L103.495 91.5121L103.923 92.0114L104.28 92.582L104.494 93.2239V93.7945L104.28 94.4365L103.638 95.0071L102.782 95.5777L102.497 95.7204L102.426 96.2197L102.711 96.6476L103.781 97.7175L104.28 98.6448V99.2154L104.066 99.358L103.638 99.2867L102.925 98.9301L102.283 98.2168L101.498 96.8616L100.714 96.5763L99.9291 96.0057L100.5 97.2896L101.142 99.0014L101.07 99.144L100 99.0727L99.5725 98.9301L99.2872 98.5021L99.2159 98.2168V95.9343L99.2872 95.7917L99.2159 95.4351L99.1445 94.3652V92.2254L99.2872 91.6547L99.5725 91.2268L100 90.9415L100.5 90.7988ZM101.284 92.154L100.928 92.2967L100.642 92.582L100.5 93.0813V94.0085L100.714 94.5791L100.999 94.7931L101.284 94.8644H101.784L102.426 94.5791L102.782 94.2225L102.996 93.7945L102.925 93.0813L102.64 92.6533L102.069 92.2254L101.784 92.154H101.284Z" fill="#1B1A1A"/>
<path d="M49.8566 90.7275H50.6412L50.9265 91.0128V92.2254L48.7867 92.2967L47.6454 92.4394L47.5028 92.796V93.9372L50.8551 94.0086L50.9978 94.2225V95.2924L50.7838 95.4351L48.2874 95.5064L47.6454 95.5778L47.5028 95.6491V97.1469L47.6454 97.8602L50.7838 98.0742L50.9978 98.2882L51.1404 99.2867L50.7125 99.3581H48.0021L46.5755 99.2867L46.2902 99.0014L46.0762 98.4308L46.0049 97.5036L45.9336 93.9372L46.0049 91.2982L46.1476 91.0128L47.0748 90.8702L49.8566 90.7275Z" fill="#1B1B1B"/>
<path d="M111.698 90.7988H114.195L114.48 91.0128V92.2254L111.413 92.368L111.199 92.5107L111.056 93.1526L111.128 93.9372L111.27 94.0085H114.409L114.551 94.4365V95.2924L114.409 95.3637L111.984 95.5064L110.985 95.5777L111.056 97.0042L111.199 97.7888L112.483 97.9315L114.48 98.0741L114.551 98.1455L114.623 98.6448V99.2154L114.551 99.2867H110.842L110.129 99.144L109.773 98.8587L109.63 98.2168L109.559 97.0042V92.2967L109.63 91.3694L109.844 91.0128L110.7 90.8702L111.698 90.7988Z" fill="#1B1A1A"/>
<path d="M79.0287 90.585H80.2413L81.1685 90.7276L81.7392 91.0842L82.0958 91.7975L82.1671 92.4395L81.9531 92.7961L80.2413 92.2255L79.956 92.1541H78.6721L77.8875 92.4395L77.1742 92.9387L76.675 93.438L76.247 94.1513L76.033 94.7219L76.1043 95.4352L76.461 96.3624L77.0316 97.147L77.6022 97.575L78.2441 97.8603L79.0287 98.0743L80.0273 98.1456L81.2399 97.789L82.0245 97.575H82.3098L82.2384 98.1456L81.8105 98.7875L81.0972 99.2868L80.5979 99.5721L80.2413 99.9288L79.8133 100L78.9574 99.9288L77.8162 99.4295L76.8176 98.7875L76.033 98.1456L75.5337 97.575L74.8918 96.5051L74.6065 95.6492L74.5352 95.2925V94.5793L74.8205 93.7233L75.2484 92.9387L75.9617 92.1541L76.3183 91.7975L76.8889 91.2982L77.8875 90.7989L78.3868 90.6563L79.0287 90.585Z" fill="#1B1A1B"/>
<path d="M90.2295 90.8701L90.5862 90.9414L91.0141 91.6547L91.4421 92.7246L92.6546 95.221L93.3679 96.8616L93.7245 97.5748L94.2238 98.93V99.2867L94.0098 99.5006L93.6532 99.358L92.726 98.5734L92.2267 97.8601L91.7274 97.2895L91.2281 97.1469H89.3023L88.9457 97.3608L88.0184 98.5021L87.6618 98.93L87.2338 99.2153L86.6632 99.2867L86.4492 99.2153L86.5205 98.5734L87.6618 96.0056L88.3037 94.5791L89.1596 92.8673L89.7302 91.7974L90.0156 91.0841L90.2295 90.8701ZM90.3009 93.5805L89.5163 94.9357L89.0883 95.7203L89.1596 95.863L89.6589 95.9343L89.9442 96.0056L91.0141 96.077L91.4421 96.3623H91.5847L91.4421 95.7203L90.8001 94.2225L90.3722 93.5805H90.3009Z" fill="#1B1A1B"/>
<path d="M67.832 90.9414H69.5439L69.6865 91.0127V99.0726L69.6152 99.144L68.9733 99.2153H68.1173L67.9747 99.144L67.9034 98.5734L67.832 90.9414Z" fill="#1A1A1A"/>
<path d="M94.0117 99.5005L94.2969 99.5718L94.2256 99.7856L94.0117 99.7144V99.5005Z" fill="#363F43"/>
<path d="M31.4531 99.4292L31.667 99.5005V99.7144L31.4531 99.6431V99.4292Z" fill="#25282A"/>
</svg>
