<svg width="100" height="100" viewBox="0 0 100 100" fill="none" xmlns="http://www.w3.org/2000/svg">
<path d="M0 0H100V100H0V0Z" fill="#037FD5"/>
<path d="M65.0008 55.1001L68.0008 55.2001L68.5008 56.2001L69.7008 59.2001L70.1008 60.0001V55.2001H73.2008L73.3008 55.6001V66.4001L73.2008 66.8001L71.7008 66.9001H70.1008L69.5008 65.7001L68.4008 62.8001L68.2008 61.9001H68.0008V66.8001L67.8008 66.9001H65.0008L64.8008 66.7001V55.3001L65.0008 55.1001Z" fill="white"/>
<path d="M51.8984 55.2002H57.5984L58.4984 55.4002L59.3984 56.0002L59.8984 56.8002L60.0984 57.5002V59.2002L59.7984 60.1002L59.2984 60.5002L58.3984 60.8002L59.3984 61.2002L60.0984 61.9002L60.1984 62.3002L60.2984 66.6002L60.1984 66.8002H56.7984L56.6984 62.8002L56.5984 61.9002L56.0984 61.7002H55.6984L55.5984 66.8002L53.8984 66.9002H51.9984L51.8984 66.8002V55.2002Z" fill="white"/>
<path d="M15.6984 55.1001L20.6984 55.2001L20.8984 55.7001L21.6984 59.9001L22.8984 66.1001V66.8001L22.0984 66.9001H19.2984L19.0984 66.2001L18.9984 64.9001L18.5984 64.8001H17.3984L17.2984 66.8001L17.0984 66.9001H13.5984L13.3984 66.8001L13.4984 65.7001L14.8984 57.0001L15.1984 55.3001L15.6984 55.1001Z" fill="white"/>
<path d="M40.2984 55.2002H45.5984L45.9984 57.0002L46.8984 62.0002L47.6984 66.4002L47.5984 66.8002L46.0984 66.9002H44.0984L43.9984 66.8002L43.8984 65.3002L43.7984 64.8002L42.4984 64.9002L42.3984 66.3002L42.2984 66.8002L40.5984 66.9002H38.3984V66.2002L39.1984 61.3002L40.0984 55.7002L40.2984 55.2002Z" fill="white"/>
<path d="M79.2984 55.2002H84.3984L84.5984 55.6002L85.7984 62.1002L86.4984 65.9002V66.8002L84.3984 66.9002H83.0984L82.7984 66.7002L82.6984 64.9002L82.5984 64.8002H81.2984V66.6002L81.0984 66.9002H77.4984L77.3984 66.4002L79.0984 55.8002L79.2984 55.2002Z" fill="white"/>
<path d="M46.1008 20H48.9008L49.1008 20.1V30.3L48.4008 32.4L47.7008 34.2L47.4008 34.4H40.8008L40.9008 33.7L42.2008 30.1L44.2008 24.5L45.4008 21.2L45.8008 20.2L46.1008 20Z" fill="white"/>
<path d="M50.9984 20H53.9984L54.2984 20.4L55.2984 23.2L57.5984 29.6L58.6984 32.7L59.1984 34V34.3L58.9984 34.4H52.4984L52.1984 34L50.8984 30.4V20.1L50.9984 20Z" fill="white"/>
<path d="M26.8992 55.1001L31.9992 55.2001L33.1992 55.5001L34.1992 56.0001L34.5992 56.5001L34.8992 57.6001V60.0001L34.6992 61.0001L34.2992 61.6001L33.6992 62.0001L32.7992 62.2001H30.4992V66.9001L30.3992 67.0001H26.7992L26.6992 59.3001V55.5001L26.8992 55.1001Z" fill="white"/>
<path d="M55.4008 42.2002L62.1008 42.3002L62.5008 43.1002L63.8008 46.7002L64.5008 48.8002L64.4008 49.2002H57.8008L57.4008 48.4002L55.8008 43.9002L55.3008 42.5002L55.4008 42.2002Z" fill="white"/>
<path d="M44.2984 42.2002L44.6984 42.3002L44.3984 43.3002L42.3984 48.9002L42.1984 49.2002H35.3984L35.7984 47.9002L37.3984 43.4002L37.7984 42.4002L37.8984 42.3002L44.2984 42.2002Z" fill="white"/>
<path d="M59.7008 36.2002L60.0008 36.3002L61.0008 38.8002L61.4008 39.9002V40.3002L60.5008 40.4002H51.1008L50.9008 40.3002L50.8008 36.9002L50.9008 36.3002L59.7008 36.2002Z" fill="white"/>
<path d="M40.2 36.2002L49.1 36.3002V40.2002L49 40.3002L44.7 40.4002H38.6L38.5 40.2002L39.6 37.2002L40 36.3002L40.2 36.2002Z" fill="white"/>
<path d="M32.1984 72.7998H32.9984L33.0984 72.8998V79.7998L32.9984 79.8998H32.4984L32.2984 79.5998V79.2998L31.6984 79.5998L31.1984 79.8998L30.0984 79.9998L28.8984 79.7998L27.9984 79.1998L27.4984 78.1998L27.3984 77.8998V76.4998L27.8984 75.4998L28.6984 74.7998L29.6984 74.4998L30.7984 74.5998L31.6984 74.9998L32.0984 75.1998V72.8998L32.1984 72.7998Z" fill="white"/>
<path d="M66.6 43.3999H68L69 43.6999L69.8 44.2999L70.3 45.0999L70.4 45.3999V47.1999L69.9 48.0999L69.1 48.7999L68 49.1999H66.8L65.8 48.7999L65 47.9999L64.6 47.0999L64.5 46.6999V45.5999L65.2 44.1999L65.9 43.5999L66.6 43.3999Z" fill="#037FD5"/>
<path d="M15.0008 74.5H15.8008L16.7008 74.7L17.5008 75.2L18.1008 75.9L18.4008 76.8V77.3L18.2008 77.5H13.7008L14.0008 78.3L14.7008 78.9L15.2008 79.1L16.2008 79L16.9008 78.6L17.6008 78H18.2008L18.1008 78.7L17.5008 79.4L16.5008 79.9L16.0008 80L14.7008 79.9L13.9008 79.6L13.4008 79.2L13.0008 78.6L12.8008 78V76.4L13.3008 75.4L14.3008 74.7L15.0008 74.5Z" fill="white"/>
<path d="M21.9992 74.7998H23.8992L24.7992 75.1998L25.1992 75.8998V79.1998L25.8992 79.3998L25.9992 79.9998L25.8992 80.0998H25.0992L24.5992 79.8998L24.2992 79.1998L23.8992 79.3998L23.1992 79.7998L22.7992 79.8998H21.0992L20.4992 79.4998L20.1992 78.9998V77.8998L20.5992 77.2998L21.1992 76.9998L23.7992 76.6998L24.0992 76.5998V75.7998L23.7992 75.5998H21.9992L21.4992 75.9998L21.0992 76.5998L20.5992 76.6998L20.3992 76.4998L20.4992 75.8998L21.0992 75.1998L21.9992 74.7998Z" fill="white"/>
<path d="M90.5984 74.5L91.8984 74.6L92.7984 75L93.4984 75.6L93.8984 76.4L93.9984 77.3L93.6984 77.5L89.2984 77.6L89.3984 78.2L89.8984 78.7L90.6984 79.1L91.6984 79L92.6984 78.3L93.0984 78H93.6984L93.5984 78.6L92.6984 79.6L92.0984 79.9L91.5984 80H90.7984L89.8984 79.8L89.2984 79.4L88.5984 78.6L88.3984 78V76.5L88.7984 75.6L89.1984 75.1L90.0984 74.6L90.5984 74.5Z" fill="white"/>
<path d="M52.2 74.5H53L54.1 74.8L55.1 75.7L55.5 76.7V77.4L55.1 77.5L51 77.6L51.2 78.3L51.8 78.8L52.4 79.1H53.1L53.8 78.8L54.2 78.5H54.4V78.3L54.9 78H55.4L55.5 78.4L55 79.2L54 79.8L53.3 80H52.5L51.4 79.7L50.4 78.8L50 77.8V76.7L50.4 75.6L51.3 74.8L52.2 74.5Z" fill="white"/>
<path d="M43.2016 72.7998H43.9016L44.0016 72.9998V75.1998L45.2016 74.5998L46.2016 74.4998L47.1016 74.7998L47.6016 75.1998L47.9016 75.7998L48.0016 76.2998V79.5998L47.8016 79.8998L47.1016 79.7998L47.0016 79.6998L46.9016 75.9998L46.6016 75.4998L46.1016 75.2998H45.2016L44.4016 75.6998L44.0016 76.2998L43.9016 79.5998L43.7016 79.8998L43.2016 79.7998L43.1016 79.6998V72.8998L43.2016 72.7998Z" fill="white"/>
<path d="M29.6008 75.2998H30.6008L31.4008 75.5998L32.0008 76.3998L32.2008 76.8998V77.5998L31.9008 78.2998L31.4008 78.7998L30.6008 79.1998H29.7008L29.1008 78.8998L28.6008 78.3998L28.3008 77.6998V76.9998L28.6008 75.9998L29.3008 75.3998L29.6008 75.2998Z" fill="#037FD5"/>
<path d="M65.1 74.7002H65.8L65.9 74.8002L66 78.5002L66.3 79.0002L66.5 79.1002H67.7L68.4 78.7002L68.8 78.3002L68.9 78.0002L69 74.7002H69.8L69.9 74.8002V79.6002L69.7 79.9002H69.2L69 79.6002V79.2002L67.6 79.9002L66.5 80.0002L65.6 79.7002L65.1 79.1002L65 78.8002V74.8002L65.1 74.7002Z" fill="white"/>
<path d="M76.7016 74.7002H77.4016L77.5016 74.8002L77.6016 78.2002L77.8016 78.8002L78.2016 79.1002H79.5016L80.3016 78.5002L80.6016 77.7002V74.8002L80.7016 74.7002H81.5016L81.6016 74.8002V79.7002L81.5016 79.9002H81.0016L80.8016 79.7002V79.2002L80.3016 79.4002L79.9016 79.7002L79.3016 79.9002H77.8016L77.2016 79.6002L76.8016 79.0002L76.6016 77.8002V74.8002L76.7016 74.7002Z" fill="white"/>
<path d="M6.20156 72.7998H7.00156L7.10156 72.8998L7.20156 78.8998L11.1016 78.9998L11.2016 79.0998V79.7998L10.6016 79.8998L6.20156 79.7998L6.10156 79.6998V72.8998L6.20156 72.7998Z" fill="white"/>
<path d="M39.4016 73.1001L39.9016 73.2001L40.0016 73.3001V74.5001H41.1016L41.2016 74.7001V75.3001L41.0016 75.4001L40.1016 75.5001V79.0001L41.1016 79.2001L41.2016 79.3001V79.9001L41.0016 80.0001H40.1016L39.4016 79.8001L39.1016 79.5001L39.0016 78.8001L38.9016 75.4001L38.2016 75.3001L38.1016 75.2001V74.7001L39.0016 74.4001V73.3001L39.4016 73.1001Z" fill="white"/>
<path d="M61.9984 72.7002H63.1984L63.3984 72.9002L63.2984 73.3002L62.3984 73.6002L62.1984 73.7002L62.0984 74.5002H63.0984L63.2984 74.6002V75.3002L62.9984 75.4002H62.0984V79.6002L61.8984 79.9002H61.3984L61.1984 79.7002V75.4002H60.5984L60.3984 75.3002V74.7002L60.6984 74.5002L61.1984 74.4002L61.2984 73.3002L61.7984 72.8002L61.9984 72.7002Z" fill="white"/>
<path d="M72.6992 73.2002H73.3992L73.4992 73.3002V74.5002H74.5992L74.6992 74.6002V75.3002L74.4992 75.4002L73.5992 75.5002V78.8002L73.6992 79.0002L74.7992 79.2002V79.9002L74.5992 80.0002H73.6992L72.9992 79.8002L72.6992 79.4002L72.5992 78.8002V75.4002L71.7992 75.3002L71.6992 74.9002L71.8992 74.6002L72.6992 74.5002L72.5992 73.3002L72.6992 73.2002Z" fill="white"/>
<path d="M66.6 43.3999H68L69 43.6999L69.8 44.2999L70.3 45.0999L70.4 45.3999V47.1999L69.9 48.0999L69.1 48.7999L68 49.1999H66.8L65.8 48.7999L65 47.9999L64.6 47.0999L64.5 46.6999V45.5999L65.2 44.1999L65.9 43.5999L66.6 43.3999ZM67.1 43.6999L66.4 43.8999L65.7 44.3999L65.2 45.1999L65 45.9999L65.1 46.8999L65.5 47.6999L66 48.2999L66.7 48.6999L67.1 48.7999H68L68.9 48.4999L69.7 47.8999L70 47.1999L70.1 46.0999L69.9 45.0999L69.1 44.1999L68.1 43.7999L67.1 43.6999Z" fill="white"/>
<path d="M85.9984 74.3999H86.8984L87.0984 74.5999V75.1999L86.9984 75.2999L85.8984 75.4999L85.1984 76.0999L84.9984 76.4999L84.7984 79.6999L84.5984 79.8999H84.0984L83.8984 79.6999V74.7999L83.9984 74.6999H84.5984L84.7984 74.9999L85.1984 74.8999L85.6984 74.4999L85.9984 74.3999Z" fill="white"/>
<path d="M66.7008 44.5H67.8008L68.6008 44.8L68.9008 45.1V45.9L68.5008 46.4L68.6008 46.9L68.8008 47.3L68.7008 47.8L68.4008 47.9L68.0008 47.6L67.5008 46.6H67.1008L67.0008 47.7L66.9008 47.9L66.4008 47.8L66.3008 47.5V45.2L66.5008 44.6L66.7008 44.5Z" fill="white"/>
<path d="M93.9992 76.7998H94.0992V77.3998L93.8992 77.7998H93.6992V77.9998L92.8992 78.1998L92.1992 78.7998L91.6992 79.0998L90.6992 79.1998L89.8992 78.7998L89.3992 78.3998L89.1992 77.9998L89.2992 77.4998L93.6992 77.3998L93.8992 77.2998L93.9992 76.7998Z" fill="#037FD5"/>
<path d="M50.9984 77.5H54.6984L54.9984 77.7L55.5984 78L55.4984 78.4L55.3984 78.1L54.6984 78.2L54.3984 78.3V78.5L53.4984 79.1L53.0984 79.2H52.3984L51.4984 78.7L50.9984 78.1L50.8984 77.6L50.9984 77.5Z" fill="#037FD5"/>
<path d="M24.0992 77.1001L24.3992 77.3001V78.2001L23.9992 78.7001L22.9992 79.2001H21.7992L21.2992 78.8001L21.1992 78.0001L21.4992 77.5001L22.2992 77.3001L24.0992 77.1001Z" fill="#037FD5"/>
<path d="M90.5008 75.2002H91.5008L92.4008 75.6002L92.9008 76.1002L93.0008 76.7002L92.9008 76.8002H89.4008L89.3008 76.4002L89.8008 75.6002L90.5008 75.2002Z" fill="#037FD5"/>
<path d="M14.9992 75.2002H15.9992L16.9992 75.7002L17.3992 76.3002L17.2992 76.8002H13.7992L13.6992 76.6002L13.9992 75.9002L14.6992 75.3002L14.9992 75.2002Z" fill="#037FD5"/>
<path d="M55.7016 61.6001L56.5016 61.7001L56.7016 61.9001L56.8016 62.8001V66.8001L56.3016 66.3001L56.4016 65.2001L56.0016 65.0001L55.7016 64.9001V66.8001H55.6016V61.7001L55.7016 61.6001Z" fill="#037FD5"/>
<path d="M52.3 75.2002H53.2L54.1 75.6002L54.5 76.1002L54.7 76.7002L54.5 76.8002H51.1L51 76.4002L51.4 75.7002L52 75.3002L52.3 75.2002Z" fill="#037FD5"/>
<path d="M42.8984 58.1001H43.0984L43.2984 58.9001L43.7984 62.4001V62.7001L43.3984 62.8001H42.4984L42.3984 62.7001L42.4984 61.4001L42.7984 59.4001L42.8984 58.1001Z" fill="#037FD5"/>
<path d="M18.1 58.2002H18.3L18.6 60.8002L18.8 62.7002L17.7 62.8002L17.5 62.7002V61.8002L17.9 59.1002L18.1 58.2002Z" fill="#037FD5"/>
<path d="M81.6992 58.2002H81.8992L81.9992 58.6002L82.1992 60.7002L82.3992 62.2002V62.7002L81.2992 62.8002L81.1992 62.7002V61.8002L81.6992 58.2002Z" fill="#037FD5"/>
<path d="M30.4984 57.2002H31.3984L31.5984 57.6002V59.8002L30.9984 60.1002H30.4984L30.3984 59.6002V57.6002L30.4984 57.2002Z" fill="#037FD5"/>
<path d="M55.5 57.2002H56.3L56.7 57.6002L56.8 58.1002V58.9002L56.6 59.5002L56 59.7002H55.5V57.2002Z" fill="#037FD5"/>
<path d="M43.2008 64.7002H43.8008L44.0008 65.3002V66.8002H43.9008L43.8008 66.2002H43.5008L43.2008 66.6002L42.5008 66.5002L42.4008 66.8002H42.3008L42.4008 64.9002L42.5008 64.8002L43.2008 64.7002Z" fill="#037FD5"/>
<path d="M51.6008 36H59.5008L59.8008 36.2L59.7008 36.3H50.9008V36.9H50.8008V36.2L50.9008 36.1L51.6008 36Z" fill="#037FD5"/>
<path d="M63.9008 45.6001L64.3008 45.7001L64.5008 45.8001L64.7008 47.1001L65.0008 48.0001L64.5008 48.1001L64.6008 49.2001L64.5008 49.3001H57.8008V49.2001L64.4008 49.1001L64.2008 48.2001L63.7008 46.7001L63.9008 45.6001Z" fill="#037FD5"/>
<path d="M41.2992 35.8999L48.2992 35.9999L48.9992 36.0999L49.0992 36.2999H40.2992L40.1992 36.0999L40.9992 35.9999L41.2992 35.8999Z" fill="#037FD5"/>
<path d="M56.0992 42H61.5992L62.0992 42.2V42.3H55.3992L55.1992 42.5L55.2992 42.1L56.0992 42Z" fill="#037FD5"/>
<path d="M39.6984 41.8999L44.0984 41.9999L44.3984 42.1999L44.2984 42.2999H37.8984V42.1999H38.8984V41.9999L39.6984 41.8999Z" fill="#037FD5"/>
<path d="M70 55.2002H70.1L70.2 60.1002L69.8 59.7002L69.7 59.3002L69.6 58.6002L69.5 58.3002V57.4002L69.9 57.0002L70 55.2002Z" fill="#037FD5"/>
<path d="M63.4 72.8999L63.5 73.2999L63.4 73.3999V74.2999L63.3 74.4999H63.5V75.1999L63.3 75.2999V74.5999L62.1 74.4999L62 74.0999L62.2 73.5999L63.2 73.2999L63.4 72.8999Z" fill="#037FD5"/>
<path d="M67.3 45L67.9 45.1L68.3 45.5L68.2 45.9L67.2 46.1L67 45.9V45.2L67.3 45Z" fill="#037FD5"/>
<path d="M80.5008 74.7998H80.6008L80.7008 75.2998V77.6998L80.5008 78.2998L80.3008 78.0998V76.2998L80.4008 74.9998L80.5008 74.7998Z" fill="#037FD5"/>
<path d="M82.0016 64.7002H82.6016L82.2016 65.0002V65.6002L81.8016 66.0002L81.7016 65.7002H81.5016L81.4016 66.8002H81.1016L81.2016 66.6002L81.3016 64.8002L82.0016 64.7002Z" fill="#037FD5"/>
<path d="M44.3992 75.6001H44.5992L44.1992 76.4001H44.5992V76.6001L44.7992 76.7001L44.5992 77.1001L44.0992 77.2001L43.9992 79.8001H43.6992L43.7992 79.6001L43.8992 76.3001L44.3992 75.6001Z" fill="#037FD5"/>
<path d="M62.0984 75.3999H62.9984L62.6984 75.7999H62.4984L62.3984 75.9999L62.2984 78.5999L62.1984 79.7999H61.8984L61.9984 79.5999L62.0984 75.3999Z" fill="#037FD5"/>
<path d="M60.0008 59.2002H60.1008L60.0008 60.1002L59.7008 60.6002L59.8008 61.0002L59.6008 61.4002L58.3008 60.8002L58.7008 60.6002L59.5008 60.3002L59.8008 60.0002L60.0008 59.2002Z" fill="#037FD5"/>
<path d="M42.6 64.7998L43.2 64.8998L43.3 65.0998L43.2 65.5998L43.3 66.0998H43.1L43 66.2998L42.5 66.0998V65.1998L42.6 64.7998Z" fill="#037FD5"/>
<path d="M84.1008 74.5L85.2008 74.6L85.5008 74.7L85.1008 75.1L84.7008 75L84.6008 74.8H84.0008L83.9008 79.7H83.8008V74.7L84.1008 74.5Z" fill="#037FD5"/>
<path d="M42.9008 58.1001H43.1008L43.3008 58.9001V59.8001H43.2008L43.0008 60.9001H42.8008V59.4001L42.9008 58.1001Z" fill="#037FD5"/>
<path d="M46.6992 75.6001L46.8992 75.7001L46.9992 76.0001V79.7001L46.7992 79.6001L46.6992 75.8001V75.6001Z" fill="#037FD5"/>
<path d="M81.7 58.2002H81.9L82 58.6002V59.9002L81.7 60.8002L81.5 60.7002V59.8002L81.7 58.2002Z" fill="#037FD5"/>
<path d="M73.6 75.3999H74.3V75.4999L73.8 75.5999L73.9 76.2999L73.7 76.8999V78.5999L73.8 78.8999L74.4 78.9999V79.0999H73.7L73.5 78.7999V75.4999L73.6 75.3999Z" fill="#037FD5"/>
<path d="M38.1992 75.2998H38.8992L38.9992 75.3998V78.4998H38.8992L38.6992 75.9998L38.4992 75.5998L38.1992 75.2998Z" fill="#037FD5"/>
<path d="M76.4984 74.7998H76.5984L76.6984 78.4998H76.5984L76.3984 77.8998V74.9998L76.4984 74.7998Z" fill="#037FD5"/>
<path d="M71.8008 75.2998L72.6008 75.3998L72.7008 75.6998L72.6008 78.5998H72.5008L72.4008 76.2998L72.2008 75.7998V75.4998L71.8008 75.2998Z" fill="#037FD5"/>
<path d="M68 61.8999H68.2L68.3 62.3999H68.1L68.2 63.5999L68.1 66.7999H68V61.8999Z" fill="#037FD5"/>
<path d="M18.6 64.7002L19 64.8002L19.1 64.9002V66.0002L19 65.7002L18.6 65.6002L18.5 64.8002L18.6 64.7002Z" fill="#037FD5"/>
<path d="M77.5 74.7998H77.6L77.7 77.8998L77.8 78.4998L78 78.6998L77.7 78.7998L77.5 78.1998V74.7998Z" fill="#037FD5"/>
<path d="M38.8992 73.2998H38.9992L39.0992 74.3998L38.7992 74.5998H38.1992L38.4992 74.2998H38.6992L38.7992 73.4998L38.8992 73.2998Z" fill="#037FD5"/>
<path d="M72.4992 73.2998H72.5992L72.6992 73.7998V74.4998L71.8992 74.6998L71.6992 74.8998L71.7992 74.4998L72.3992 74.1998V73.4998L72.4992 73.2998Z" fill="#037FD5"/>
<path d="M68.7016 79.2002H69.0016L69.2016 79.9002L68.6016 79.8002V79.6002L68.1016 79.7002L68.6016 79.3002L68.7016 79.2002Z" fill="#037FD5"/>
<path d="M68.1016 62.3999H68.4016L68.6016 63.2999L68.1016 63.1999V62.3999Z" fill="#037FD5"/>
<path d="M80.4016 79.2002H80.8016L81.0016 79.9002L80.3016 79.7002L80.1016 79.5002L80.4016 79.2002Z" fill="#037FD5"/>
<path d="M18.0984 58.7998H18.1984V59.8998L17.8984 60.0998V59.0998H18.0984V58.7998Z" fill="#037FD5"/>
<path d="M55.6992 61.6001L56.4992 61.7001V62.0001L55.9992 62.1001L55.7992 62.2001L55.6992 61.6001Z" fill="#037FD5"/>
<path d="M81.6992 58.2002H81.8992L81.9992 58.6002V59.8002H81.8992L81.7992 59.1002H81.6992V58.2002Z" fill="#037FD5"/>
</svg>
