<svg width="300" height="93" viewBox="0 0 300 93" fill="none" xmlns="http://www.w3.org/2000/svg">
<path d="M73.7528 0H76.9786L80.9375 0.439882L84.0167 1.17302L86.8026 2.19941L90.175 3.81231L92.961 5.57184L94.8671 7.18474L96.0401 8.21113L98.2395 10.4105L99.8525 12.4633L101.319 14.6627L103.078 18.0352L104.398 21.7008L105.131 24.9267L105.571 28.1525V32.258L105.131 35.7771L104.251 39.4428L103.078 42.5219L101.905 44.868L100.732 46.9208L98.9727 49.2668L97.653 50.8797L96.48 52.0527L95.307 53.0791L93.4008 54.692L90.9082 56.3049L88.5621 57.6246L85.6296 58.7976L82.697 59.6773L79.9111 60.2638L75.5123 60.7037L71.5534 60.4105L68.3276 59.824L65.2484 58.9442L61.5827 57.4779L58.7968 55.865L56.4507 54.1055L54.8378 52.7859L52.6384 50.5864L51.3188 48.9735L49.5593 46.4809L48.093 43.9882L47.0666 41.6422L46.0402 38.563L45.3071 35.3372L44.8672 31.5249V29.1788L45.1604 26.0997L45.8936 22.5806L47.2132 18.6217L48.3862 16.129L49.7059 13.9296L51.1722 11.8768L52.4918 10.2639L53.8115 8.79764L55.8642 6.89149L58.2103 5.13196L60.4097 3.81231L62.9024 2.49267L66.568 1.17302L69.7938 0.439882L73.7528 0ZM72.7264 11.5836L69.7938 12.0234L67.4478 12.7566L64.9551 13.783L62.3158 15.2492L60.4097 16.7155L58.9434 18.0352L57.6238 19.3548L55.8642 21.7008L54.5446 24.0469L53.3716 26.5396L52.6384 28.8856L52.0519 32.4046V36.6568L52.7851 40.3225L53.9581 43.695L55.2777 46.1876L56.744 48.2404L58.3569 49.9999L58.9434 50.7331L60.1164 51.7595L62.4625 53.519L65.6883 55.2785L67.0079 55.7184L66.2748 54.9853L63.4889 53.0791L61.876 51.4662L60.4097 49.4134L59.3833 47.6539L58.5035 45.4545L57.917 43.1084L57.6238 40.6158V39.4428L58.2103 35.9237L59.09 33.2844L60.2631 31.085L61.7293 29.0322L62.9024 27.7126L64.5153 26.3929L65.9815 25.3665L68.7674 24.0469L71.5534 23.3138L72.4331 23.1671H76.832L79.3246 23.607L81.524 24.3401L84.0167 25.6598L85.7762 26.9794L87.5358 28.5923L89.1487 30.7917L90.6149 33.5777L91.3481 35.7771L91.7879 38.2697V41.7888L91.2014 45.0146L90.3217 47.3606L89.4419 49.1202L87.6824 51.4662L86.8026 52.4926L84.7498 54.1055L82.697 55.2785L81.8173 55.7184L82.2572 55.865L85.0431 54.692L86.8026 53.6656L89.5885 51.6128L91.4947 49.8533L92.8143 48.387L94.2806 46.1876L95.7469 43.4017L96.7733 40.3225L97.3598 37.5366L97.653 34.7507V33.7243L97.5064 32.9912L97.2132 30.0586L96.3334 26.9794L95.4536 24.78L94.134 22.2874L92.3745 19.7947L89.4419 16.8621L87.2425 15.2492L84.8965 13.9296L82.1105 12.7566L79.4712 12.0234L76.6853 11.5836H72.7264ZM73.3129 35.6305L71.1135 36.217L69.0607 37.2434L67.5944 38.4164L66.4214 39.5894L65.395 41.2023L64.5153 43.2551L64.0754 45.0146V47.8005L64.6619 49.9999L65.8349 52.346L67.1545 53.9589L68.6208 55.1319L70.6736 56.3049L72.4331 56.8914L73.4595 57.038H76.0988L78.4449 56.4515L80.7909 55.2785L82.5504 53.8122L84.0167 51.9061L84.8965 50.1466L85.3363 48.5337L85.483 47.5073V45.6011L85.1897 43.5483L84.3099 41.3489L83.2836 39.736L82.2572 38.563L80.4976 37.2434L78.4449 36.217L76.0988 35.6305H73.3129Z" fill="#E61F27"/>
<path d="M110.997 48.6802H119.208L119.355 48.8268V52.9324L119.208 53.079L113.783 53.2256L112.023 53.6655L110.264 54.5453L108.798 55.7183L107.624 56.8913L106.158 58.7975L104.692 61.1435L102.932 64.3693L100.88 68.4749L99.2667 71.8473L97.0673 75.9529L95.1612 79.1787L93.255 81.9646L91.9354 83.5775L90.3225 85.337L88.7096 86.9499L86.5102 88.5628L84.0175 90.0291L81.0849 91.2021L78.1524 91.9353L75.0732 92.3751H73.0204L69.648 91.7886L67.0087 90.9089L63.9295 89.296L61.4369 87.3898L59.0908 85.1904L58.0644 84.0174L56.7448 82.5511L54.9853 80.2051L52.0527 75.8062L48.5337 70.2344L46.7741 67.5951L45.3079 65.5423L43.5483 63.4895L42.0821 62.0233L40.1759 60.7036L38.2697 59.8239L36.6568 59.384L33.8709 59.2373H0V51.4661H36.6568L37.9765 51.7594L40.3225 52.9324L41.9354 53.9588L43.8416 55.5717L45.3079 56.8913L47.214 59.0907L48.8269 60.9969L50.4398 63.0497L52.4926 65.5423L53.8122 67.1552L55.4252 68.9148L56.4515 70.0878L58.5043 72.1406L60.5571 73.7535L62.4633 75.0731L64.8093 76.3928L67.302 77.4191L69.9413 78.1523L73.3137 78.5922H75.8064L78.8855 78.1523L81.3782 77.5658L83.7242 76.686L86.6568 75.2197L88.8562 73.7535L90.4691 72.4338L92.2286 70.8209L93.4016 69.6479L94.7213 68.035L96.6274 65.689L104.545 53.8121L106.451 51.4661L107.624 50.2931L109.384 49.1201L110.997 48.6802Z" fill="#E71F27"/>
<path d="M0 40.9097H35.9237L39.2961 41.2029L41.6422 41.7894L44.4281 43.1091L45.7477 44.1355L47.214 45.4551L48.5337 47.2146L49.7067 48.9742L50.8797 50.4404L52.4926 52.3466L53.6656 53.5196L55.2785 54.8393L57.6246 56.5988L59.824 57.9184L62.0234 59.0915L65.8357 60.5577L69.5014 61.4375L72.7272 61.8774H77.7125L80.9383 61.4375L84.4574 60.5577L86.95 59.678L89.5893 58.505L92.2286 57.0387L94.7213 55.2792L96.3342 53.9595L99.2667 51.027L100.88 48.9742L102.346 46.7748L103.959 43.9888L105.278 42.5226L106.012 41.9361L107.624 41.2029L109.531 40.9097H119.355V46.0416L119.208 46.1883L111.29 46.3349L109.384 46.7748L106.891 48.0944L105.278 49.4141L103.812 50.8803L102.493 52.4932L100.586 54.9859L98.2403 58.505L97.0673 60.1179L95.8943 61.8774L94.428 63.9302L92.5219 66.2762L91.2022 67.8891L88.8562 70.2351L87.2433 71.5548L85.6304 72.7278L83.2844 74.0475L80.9383 74.9272L77.8591 75.6604L75.0732 75.9536L71.994 75.807L69.0615 75.2205L66.129 74.0475L63.7829 72.7278L61.8768 71.2615L59.824 69.502L58.0644 67.7425L57.0381 66.5695L55.4252 64.8099L53.8122 62.7571L51.173 59.5313L49.5601 57.6252L48.2404 56.0123L46.041 53.8129L44.4281 52.4932L42.2287 51.027L39.736 49.8539L37.6832 49.2674L36.217 49.1208H0V40.9097Z" fill="#E71F27"/>
<path d="M141.934 23.6074H144.426L147.359 24.0473L149.705 24.9271L151.758 26.1001L153.811 27.713L154.984 28.886L156.45 30.9388L157.623 33.2848L158.356 35.7775L158.649 37.6836V40.9095L158.356 42.9622L157.33 46.0414L156.45 47.6543L155.277 49.2672L154.104 50.5869L152.931 51.6132L151.465 52.6396L149.119 53.8127L147.212 54.3992L145.453 54.6924H140.761L138.561 54.2525L136.655 53.5194L134.749 52.493L133.283 51.32L131.817 50.0003L130.35 48.0942L129.324 46.3347L128.444 44.1353L127.858 41.6426L127.711 40.3229V38.1235L128.151 35.3376L128.884 33.1382L129.91 31.0854L131.377 29.0326L132.55 27.713L134.456 26.2467L136.802 24.9271L139.294 24.0473L141.934 23.6074ZM141.934 29.3259L139.588 29.9124L137.975 30.7922L136.509 32.1118L135.336 33.4315L134.163 35.7775L133.576 38.4168V40.3229L134.016 42.3757L134.749 44.1353L135.629 45.4549L136.509 46.4813L137.975 47.6543L140.028 48.6807L141.787 49.1206L142.814 49.2672H143.987L146.186 48.8273L148.532 47.6543L150.292 46.188L151.611 44.4285L152.198 43.2555L152.638 41.6426L152.784 40.6162V37.9769L152.198 35.4842L151.171 33.5781L149.852 32.1118L148.532 30.9388L146.919 30.059L145.16 29.4725L144.28 29.3259H141.934Z" fill="#292B8D"/>
<path d="M219.5 24.4873H225.365V35.631H235.043V26.98L235.189 24.4873H241.054V53.9594L240.761 54.106H235.336L235.189 53.9594L235.043 52.0532V41.0562H225.365V53.9594L225.218 54.106H219.647L219.5 53.9594V24.4873Z" fill="#292B8D"/>
<path d="M164.078 24.4873H173.609L175.955 24.7806L177.568 25.3671L178.741 26.1002L180.061 27.2732L181.087 28.8861L181.673 30.6457L181.82 31.3788V34.7512L181.234 36.804L180.207 38.4169L178.887 39.7366L177.128 40.6163L176.395 40.7629L178.741 45.3084L180.5 48.5342L182.553 52.4931L183.286 53.8128V54.106H176.835L174.195 49.1207L171.703 44.4286L170.53 42.0826L170.236 41.6427L169.797 41.4961V53.9594L169.65 54.106H164.225L164.078 48.9741V24.4873ZM169.797 30.0591V36.0709H171.263L173.902 35.7776L175.075 35.3377L175.808 34.7512L176.248 33.2849L175.955 31.8187L175.368 30.9389L174.489 30.3524L172.876 30.0591H169.797Z" fill="#292B8D"/>
<path d="M200.586 23.6074H203.226L206.158 24.0473L207.918 24.6338L210.704 25.9535L212.756 27.4197L214.223 28.7394L214.809 29.4725L214.516 30.059L212.463 32.2584L211.29 33.4315L210.557 33.2848L208.358 31.5253L206.305 30.3523L204.105 29.6191L203.372 29.4725H200.147L198.094 30.059L196.334 30.9388L194.575 32.4051L193.255 34.3112L192.522 35.9241L192.082 37.8303V40.7628L192.522 42.669L193.695 45.015L194.868 46.4813L196.481 47.6543L198.387 48.5341L200 48.974L201.026 49.1206H203.372L205.572 48.5341L207.918 47.3611L209.531 46.0414L210.557 45.1616L211.29 45.3083L214.516 48.5341L214.809 49.2672L213.196 50.7335L211.144 52.1998L209.091 53.3728L207.331 54.1059L205.278 54.5458L204.252 54.6924H199.12L196.774 54.2525L194.428 53.3728L192.669 52.3464L191.056 51.0267L189.443 49.4138L188.416 47.9476L187.243 45.7482L186.364 42.8156L186.07 41.2027V37.537L186.51 35.0444L187.39 32.5517L188.71 30.2057L189.736 28.886L191.349 27.2731L193.548 25.8068L196.334 24.4872L198.534 23.9007L200.586 23.6074Z" fill="#292B8D"/>
<path d="M247.508 24.4873H263.783V30.0591H253.226V35.1911H263.637L263.783 35.3377L263.93 40.6163L263.783 40.7629L262.171 40.9096H253.226V48.3876H263.783V53.9594L263.637 54.106H247.654L247.508 53.8128V24.4873Z" fill="#292B8D"/>
<path d="M266.863 24.4873H272.728L274.635 29.7659L277.567 38.1236L279.62 43.8421L280.06 44.5753L280.646 43.109L282.699 37.2439L284.605 31.9653L286.658 26.2468L287.391 24.4873H293.403L292.963 25.9536L286.218 44.7219L283.725 51.6134L282.846 53.8128L282.552 54.106H277.274L276.834 53.5195L274.488 46.9213L271.409 38.1236L268.623 30.3524L266.863 25.2204V24.4873Z" fill="#292B8D"/>
<path d="M182.551 63.7832L183.577 63.9298L184.311 64.663L186.217 67.1556L187.39 68.9152L187.976 69.0618L190.909 64.9562L191.789 63.9298L192.082 63.7832H193.108L193.255 65.3961V72.7275L193.108 72.8741H191.789L191.642 72.7275V66.5691H191.349L191.055 67.1556L189.882 68.7685L188.123 71.4078L187.536 71.2612L186.51 70.2348L184.604 67.5955L183.871 66.5691L183.577 66.4225L183.724 66.7158V71.2612L183.577 72.8741H182.551L182.258 72.2876V64.663L182.551 63.7832Z" fill="#04040E"/>
<path d="M169.207 63.9297H177.711L178.298 64.2229V68.7684L178.005 69.0616L175.952 69.5015L176.685 70.3813L178.738 71.9942L179.324 72.7273V72.874H177.418L176.392 72.4341L173.606 69.6482L173.313 69.5015L170.82 69.3549V72.7273L170.673 72.874H169.5L169.354 72.7273L169.207 70.9678V63.9297ZM170.82 64.9561V67.8886L171.113 68.0353H176.538L176.685 67.8886V65.396L176.538 65.1027L175.365 64.9561H170.82Z" fill="#03030C"/>
<path d="M285.924 63.7832L291.349 63.9298L292.522 64.3697L293.255 65.1028L293.988 66.2759L294.281 67.009L294.428 68.4753L294.135 69.9416L293.548 71.1146L292.522 72.141L291.349 72.5808L290.469 72.7275L287.39 72.8741H285.044L284.164 72.5808V63.9298L285.924 63.7832ZM285.777 65.2495V71.4078H290.029L291.349 70.9679L292.082 70.3814L292.522 69.2084V67.4489L292.229 66.4225L291.495 65.6894L290.909 65.3961L290.029 65.2495H285.777Z" fill="#020208"/>
<path d="M143.257 63.7832L144.136 63.9298V67.3023H150.735L150.881 63.9298L152.347 63.7832L152.494 63.9298V72.8741H151.028L150.881 72.5808V68.7685H144.283L144.136 72.8741H142.817L142.523 72.2876V64.3697L142.67 63.9298L143.257 63.7832Z" fill="#04040F"/>
<path d="M216.276 63.9297H224.633L225.073 64.0763L225.366 65.396V68.3285L225.073 69.0616L224.487 69.2083L222.434 69.3549H217.888V72.4341L217.742 72.874H216.422L216.276 72.7273L216.129 69.9414V65.396L216.276 63.9297ZM217.888 64.9561V67.8886H223.607L223.754 67.742V65.396L223.607 65.1027L222.581 64.9561H217.888Z" fill="#04040F"/>
<path d="M130.061 63.9297H138.272L139.005 64.2229V68.915L138.418 69.2083L134.899 69.3549H131.527V72.7273L131.38 72.874H130.207L129.914 71.8476V64.0763L130.061 63.9297ZM131.527 64.9561V67.8886L136.952 68.0353L137.539 67.742V65.2493L137.392 65.1027L136.072 64.9561H131.527Z" fill="#03030B"/>
<path d="M201.171 63.6362L202.197 63.7829L203.077 64.9559L204.837 68.0351L206.303 70.6743L207.183 72.2872V72.8738H206.01L205.277 72.5805L204.397 70.821L202.197 70.6743H198.825L197.359 72.8738H196.186L196.039 72.4339L197.212 70.0878L199.411 65.8356L200.585 64.0761L201.171 63.6362ZM201.318 65.3958L199.851 68.0351L199.265 69.2081L199.558 69.3547L203.224 69.5013L203.517 69.3547L203.077 68.0351L201.758 65.5424L201.318 65.3958Z" fill="#03030D"/>
<path d="M160.554 63.6362L161.58 63.7829L162.46 64.9559L164.513 68.6216L165.979 71.2609L166.566 72.4339V72.8738H165.539L164.806 72.5805L164.22 71.7007L163.78 70.821L161.287 70.6743H158.208L157.328 71.8474L156.742 72.8738H155.422L155.569 71.994L158.061 67.1553L159.674 64.3694L160.554 63.6362ZM160.7 65.3958L159.967 66.5688L158.648 69.0614V69.3547H162.9L162.46 68.0351L161.14 65.5424L160.7 65.3958Z" fill="#03040D"/>
<path d="M227.273 63.7832H228.593L229.326 64.5163L231.966 69.6483L232.405 70.5281L232.845 70.3814L235.485 65.1028L236.364 63.9298L236.658 63.7832H237.537L237.684 64.0765L237.097 65.5427L235.191 69.355L233.432 72.4342L232.699 73.1674L231.526 72.141L230.059 69.6483L228.007 65.6894L227.273 64.3697V63.7832Z" fill="#03040D"/>
<path d="M272.289 63.9297H281.674L281.82 64.0763L281.674 65.1027L281.527 65.2493H277.861V72.7273L277.275 72.874H276.248L276.102 72.7273L275.955 70.8212V65.2493H272.583L272.143 65.1027L271.996 64.0763L272.289 63.9297Z" fill="#03040D"/>
<path d="M238.27 63.9297H248.094L248.24 64.2229V65.1027L247.947 65.2493H244.135V68.0353L243.988 72.874H242.815L242.522 72.5807L242.375 65.396L238.563 65.2493L238.27 64.6628V63.9297Z" fill="#020209"/>
<path d="M263.049 63.9297H264.222L264.955 64.0763V71.4077L271.26 71.5543L271.553 72.1408L271.407 72.7273H263.049L262.902 71.9942V67.1555L263.049 63.9297Z" fill="#02030A"/>
<path d="M298.094 70.8213H299.414L300 71.4078L299.56 72.7274L299.267 72.8741H298.387L297.801 72.2876V71.1145L298.094 70.8213Z" fill="#050512"/>
<path d="M251.026 70.8213H251.906L252.346 71.1145V72.5808L251.759 72.8741L250.733 72.7274L250.293 71.9943L250.44 71.1145L251.026 70.8213Z" fill="#04040F"/>
</svg>
