<svg width="157" height="120" viewBox="0 0 157 120" fill="none" xmlns="http://www.w3.org/2000/svg">
<path d="M119.541 0H121.608L123.291 0.153061L124.975 0.459184L126.506 0.918368L128.113 1.60714L129.184 2.21939L130.332 3.06123L131.097 3.75L131.633 4.20919L132.169 4.82143L132.934 5.81633L133.853 7.27041L134.771 9.18368L135.46 11.25L135.919 13.1633L136.225 15.1531L136.378 16.9133V21.1225L136.148 23.801L135.766 26.4796L135.23 29.2347L134.388 32.6021L133.623 35.2041L132.475 38.5715L131.327 41.4796L130.485 43.4694L129.49 45.6888L128.266 48.2143L127.424 49.898L126.506 51.5817L125.893 52.7296L124.975 54.3368L124.21 55.6378L123.062 57.4745L122.067 59.0817L121.301 60.2296L120.154 61.9133L119.082 63.4439L118.087 64.8215L117.016 66.2756L115.944 67.6531L114.949 68.8776L114.337 69.6429L113.495 70.6378L112.807 71.4796L111.812 72.6276L111.123 73.3929L110.587 74.0052L109.669 75.0001L108.98 75.7654L108.291 76.4541L107.756 77.0664L104.847 79.9746L104.235 80.5103L103.699 81.046L103.087 81.5817L102.092 82.5001L101.48 83.0358L100.868 83.495L101.021 83.648L104.082 84.8725L104.694 84.949L105.536 84.1837L106.378 83.495L107.143 82.8062L107.985 82.1174L108.521 81.5817L109.133 81.046L110.281 79.9746L111.199 79.0562L111.812 78.5205L112.73 77.6021L113.266 76.9899L114.873 75.3827L115.409 74.7705L116.25 73.8521L116.786 73.2399L118.776 70.9439L119.465 70.1021L120.46 68.8776L121.301 67.8062L122.373 66.4286L123.291 65.2041L125.281 62.449L126.965 59.9235L128.266 57.9337L129.261 56.3266L130.256 54.6429L131.327 52.8062L132.322 50.9694L133.087 49.5153L134.771 46.148L135.995 43.3929L137.22 40.4847L138.521 36.9643L139.363 34.3623L140.281 31.148L140.97 28.0102L141.506 24.7194L141.812 21.8112L141.888 20.1276V17.9082L141.735 15.5357L141.429 13.3929L140.97 11.4031L140.511 9.87246L139.898 8.41837L138.98 6.65817L138.368 5.7398L137.756 4.97449L137.067 4.20919L136.301 3.44388L135.077 2.52551L133.623 1.68367L132.475 1.14796L131.097 0.688776L129.108 0.229592V0.153061L129.49 0.0765307L131.786 0L133.164 0.0765307L135.536 0.459184L137.832 1.22449L139.057 1.83674L140.205 2.52551L140.97 3.13776L141.735 3.82653L142.118 4.13266L142.654 4.7449L143.342 5.58674L144.184 6.88776L145.103 8.64797L145.791 10.4847L146.327 12.4745L146.633 14.0051L146.863 15.9184L146.939 17.1429V20.9694L146.71 23.7245L146.327 26.4031L145.868 28.8521L145.179 31.7602L144.414 34.4388L143.342 37.7296L142.271 40.5613L141.353 42.7806L140.511 44.6939L139.592 46.6837L137.603 50.6633L136.608 52.4235L135.689 54.1072L133.623 57.5511L132.858 58.699L132.092 59.9235L130.944 61.6072L129.72 63.3674L128.725 64.7449L127.5 66.3521L126.582 67.5766L125.511 68.8776L124.975 69.5664L123.904 70.8674L122.909 72.0154L121.99 73.0868L120.995 74.1582L120.46 74.7705L119.618 75.6888L118.393 76.9899L115.179 80.2041L114.567 80.7399L113.342 81.8878L112.577 82.5766L111.506 83.495L110.74 84.1837L109.975 84.796L108.904 85.6378L107.909 86.4031L112.041 87.9337L114.184 88.6991L117.781 89.847L121.301 90.8419L124.21 91.5307L126.582 91.9899L129.72 92.4491L132.322 92.6786H136.608L138.444 92.5256L140.205 92.296H140.74L140.358 92.6786L139.439 93.3674L138.291 94.0562L136.761 94.745L135.613 95.1276L133.699 95.5103L131.404 95.7399L128.955 95.6633L126.812 95.4337L124.057 94.9746L120.842 94.2093L117.705 93.2909L114.949 92.3725L111.506 91.148L107.985 89.7705L105.307 88.6991H104.847L102.781 90.0766L102.934 90.2297L107.22 91.8368L109.516 92.6786L112.883 93.8266L116.48 94.898L119.159 95.5868L121.914 96.1991L125.128 96.7348L127.96 97.0409L128.955 97.1174H132.934L135.536 96.8878L136.684 96.7348H137.143V96.8878L136.148 97.6531L135.307 98.1889L134.082 98.8011L133.011 99.2603L131.71 99.6429L130.026 99.9491L128.495 100.102H126.199L123.597 99.8725L120.842 99.4133L117.858 98.7246L115.102 97.9593L112.194 97.0409L109.21 95.9695L105.153 94.4389L102.322 93.2909L99.6433 92.2195L99.1841 92.296L97.1943 93.3674L96.7351 93.444V93.597L97.5004 93.8266L103.011 95.9695L106.608 97.2705L110.051 98.4184L113.801 99.4899L116.863 100.255L119.618 100.791L122.067 101.174L124.21 101.403L125.358 101.48H129.796L131.557 101.327L133.317 101.097H133.776L133.393 101.48L132.551 102.168L131.25 102.934L130.026 103.469L128.648 103.929L126.888 104.311L125.74 104.464L124.363 104.541H123.138L121.148 104.388L118.852 104.082L116.097 103.546L113.342 102.857L110.051 101.862L106.684 100.714L103.776 99.6429L100.638 98.4184L98.5719 97.5766L94.8219 96.046L93.0617 95.3572L92.679 95.4337L89.3116 96.5817L86.8627 97.194L84.5667 97.5766L82.9596 97.7297H80.4341L79.5157 97.6531V97.5766L82.2708 97.0409L84.8729 96.3521L87.0923 95.5868L89.0821 94.745L90.1535 94.2858L90.23 94.2093L87.5514 93.1378H87.0157L85.8678 93.7501L83.7249 94.745L81.6586 95.5868L79.7453 96.2756L77.9086 96.8113L75.9188 97.2705L73.5463 97.6531L72.7045 97.7297H69.4137L67.3473 97.4235L65.5871 96.9644L64.0565 96.3521L62.6024 95.5868L61.531 94.8215L60.3831 93.8266L59.8473 93.2909L59.1586 92.4491L58.4698 91.4542L57.8575 90.4593L57.0157 88.6991L56.48 87.1684L56.0208 85.5613L55.6382 83.5715L55.4086 81.8113L55.332 80.7399V75.8419L55.4086 75.2297H55.4851L55.8677 78.4439L56.2504 80.4337L56.6331 81.7348L57.2453 83.3419L58.1637 85.1021L59.082 86.4031L59.7708 87.1684L60.23 87.7041L61.0718 88.3929L62.1433 89.1582L63.7504 90.0001L65.5871 90.6123L67.5769 90.995L68.2657 91.0715H71.6331L73.5463 90.8419L75.7657 90.3827L77.5259 89.9235L77.6025 89.847L76.378 89.5409L73.6229 89.0817L72.781 89.0052H69.6433L70.1025 88.3929L70.6382 87.8572L71.48 87.3215L72.3984 86.9388L73.3933 86.7093L74.0055 86.6327H76.0718L77.832 86.8623L80.281 87.398L82.0412 87.9337H82.577L85.0259 86.7093H85.179V86.5562L84.3372 86.3266L81.6586 85.5613L79.7453 85.1021L78.1382 84.796L75.7657 84.5664H74.3882L73.1637 84.6429L73.3167 84.2603L74.082 83.495L74.9239 82.9593L75.7657 82.5766L77.1433 82.2705L78.5208 82.1939L80.5106 82.347L82.1943 82.6531L84.9494 83.3419L87.781 84.2603L88.3933 84.4899H88.7759L89.8474 83.8011L90.8423 83.1123H90.9953V82.9593L90.1535 82.7297L87.3984 81.8113L85.0259 81.1225L83.0361 80.6633L80.6637 80.2807L79.8218 80.2041H76.6076L76.8372 79.8215L77.2963 79.2858L78.3678 78.5205L79.2861 78.1378L80.2045 77.9082L80.7402 77.8317H83.1892L85.179 78.1378L87.4749 78.6735L89.5412 79.2858L91.8372 80.0511L93.6739 80.7399H94.1331L95.2045 79.8215L96.2759 78.9797L97.4239 77.9848L98.4953 77.0664L99.4902 76.148L100.638 75.0766L101.021 74.6939L95.9698 74.6174L96.0463 73.9286L96.3525 72.8572L96.5055 72.398L96.8882 71.1735L97.1943 69.949L97.577 68.5715L97.73 68.0358L98.0361 67.0409L98.4188 65.8164L98.7249 64.5919L99.3372 62.449L99.4137 62.296H105.383L105.307 62.9847L104.847 64.5154L104.771 64.5919L101.403 64.6684L101.25 65.4337L101.097 65.9694L100.791 66.9643H103.929L103.852 67.6531L103.699 68.0358L103.47 68.9541L103.317 69.3368H100.102L99.7964 70.5613L99.5668 71.1735L99.2606 72.245H102.705L102.551 73.0868L103.164 72.5511L103.929 71.7858L104.465 71.1735L105.153 70.4847L105.689 69.8725L106.684 68.7245L107.373 67.9592L108.062 67.1174L108.904 66.1225L109.898 64.8215L110.74 63.75L111.965 62.1429L112.807 60.9184L113.725 59.6174L115.102 57.5511L116.174 55.8674L117.475 53.7245L118.699 51.5817L119.694 49.6684L120.46 48.2143L121.455 46.148L122.143 44.6174L123.444 41.4796L123.98 40.1021L124.898 37.347L125.511 35.2806L126.199 32.5255L126.735 29.7704L127.041 27.551L127.194 25.9439V21.4286L126.888 18.9031L126.506 17.1429L125.893 15.1531L125.205 13.6225L124.516 12.398L123.597 11.1735L122.909 10.4082L122.22 9.7194L120.995 8.80103L119.771 8.11225L118.393 7.50001L116.786 7.04082L115.026 6.7347L114.261 6.65817H111.659L109.516 6.88776L107.526 7.27041L105.46 7.80613L102.781 8.7245L100.485 9.7194L98.7249 10.5612L97.0412 11.4796L95.6637 12.2449L94.2096 13.1633L91.2249 15.1531L89.7708 16.2245L88.7759 16.9898L87.7045 17.8316L86.7096 18.6735L85.8678 19.3623L84.9494 20.2041L84.3372 20.7398L82.8065 22.1174V21.8878L83.7249 20.9694L84.2606 20.3572L84.8729 19.7449L85.4851 19.2092L87.3219 17.3725L87.9341 16.8367L89.1586 15.6888L90.3065 14.6939L91.3014 13.8521L92.3729 12.9337L94.2861 11.4031L95.5106 10.4847L96.8882 9.4898L98.1892 8.57143L100.409 7.11735L103.47 5.28062L105.995 3.97959L107.909 3.06123L110.358 2.06633L112.883 1.22449L115.179 0.612245L117.245 0.229592L118.47 0.0765307L119.541 0Z" fill="#0EA2AA"/>
<path d="M0 111.505H130.561L156.276 111.581L156.352 114.107V119.541L156.276 120H0V111.505Z" fill="#D9DADA"/>
<path d="M89.0046 27.0918H99.7189L101.862 27.2449L103.392 27.4745L104.54 27.7806L105.765 28.3163L106.607 28.852L107.295 29.4642L107.984 30.4591L108.443 31.454L108.75 32.6785L108.826 33.2908V34.1326L108.596 35.8928L108.214 37.4234L107.678 38.8775L107.066 39.9489L106.301 40.9438L105.459 41.7857L104.158 42.7041L102.704 43.3928L101.173 43.852H100.943V44.0051L101.556 44.0816L102.398 44.4643L103.086 44.9234L103.622 45.4592L104.005 46.2245L104.158 46.6836L104.234 47.602L104.005 48.9796L103.469 50.8928L102.398 54.1837L101.938 56.0969L101.862 56.7092V57.9337L102.091 58.9286V59.6173L101.785 59.6939H93.2138L92.9842 59.1581L92.9077 58.2398L93.1373 56.6326L93.673 54.7194L94.7444 51.5816L95.3567 49.3622L95.4332 48.903V47.6785L95.2036 47.2194L95.1271 46.9898L94.821 46.8367L94.1322 46.4541L93.3669 46.301H90.8414L90.4587 47.1428L88.9281 51.6581L87.7801 54.949L86.4026 58.9286L86.0965 59.6173L85.9434 59.6939H77.6781L77.6016 59.5408L78.9026 55.7908L80.0505 52.5765L80.8924 50.2041L81.7342 47.6785L83.0352 44.0051L84.1832 40.7143L85.7138 36.352L86.8618 33.0612L87.6271 30.9183L88.3924 28.6989L88.9281 27.2449L89.0046 27.0918Z" fill="#0EA2AA"/>
<path d="M55.4086 75.2295H55.4851L55.8677 78.4438L56.2504 80.4336L56.6331 81.7346L57.2453 83.3417L58.1637 85.1019L59.082 86.403L59.7708 87.1683L60.23 87.704L61.0718 88.3928L62.1433 89.1581L63.7504 89.9999L65.5871 90.6122L67.5769 90.9948L68.2657 91.0713H71.6331L73.5463 90.8417L75.7657 90.3826L77.5259 89.9234L77.6025 89.8469L76.378 89.5407L73.6229 89.0815L72.781 89.005H69.6433L70.1025 88.3928L70.6382 87.8571L71.48 87.3213L72.3984 86.9387L73.3933 86.7091L74.0055 86.6326H76.0718L77.832 86.8622L80.281 87.3979L82.0412 87.9336H82.577L85.0259 86.7091H85.179V86.556L84.3372 86.3264L81.6586 85.5611L79.7453 85.1019L78.1382 84.7958L75.7657 84.5662H74.3882L73.1637 84.6428L73.3167 84.2601L74.082 83.4948L74.9239 82.9591L75.7657 82.5764L77.1433 82.2703L78.5208 82.1938L80.5106 82.3468L82.1943 82.653L84.9494 83.3417L87.781 84.2601L88.6994 84.5662V84.7193L89.4647 84.9489L92.679 86.1734L94.8219 87.0152L95.6637 87.3213L96.0463 87.2448L97.0412 86.556L98.0361 85.7907L98.5719 85.8673L101.327 87.0152L102.705 87.6275L104.771 88.4693L105.077 88.6224L104.388 89.005L102.781 90.0764L102.934 90.2295L107.22 91.8366L109.516 92.6785L112.883 93.8264L116.48 94.8979L119.159 95.5867L121.914 96.1989L125.128 96.7346L127.96 97.0407L128.955 97.1173H132.934L135.536 96.8877L136.684 96.7346H137.143V96.8877L136.148 97.653L135.307 98.1887L134.082 98.8009L133.011 99.2601L131.71 99.6428L130.026 99.9489L128.495 100.102H126.199L123.597 99.8724L120.842 99.4132L117.858 98.7244L115.102 97.9591L112.194 97.0407L109.21 95.9693L105.153 94.4387L102.322 93.2907L99.6433 92.2193L99.1841 92.2958L97.1943 93.3673L96.7351 93.4438V93.5969L97.5004 93.8264L103.011 95.9693L106.608 97.2703L110.051 98.4183L113.801 99.4897L116.863 100.255L119.618 100.791L122.067 101.173L124.21 101.403L125.358 101.48H129.796L131.557 101.326L133.317 101.097H133.776L133.393 101.48L132.551 102.168L131.25 102.934L130.026 103.469L128.648 103.928L126.888 104.311L125.74 104.464L124.363 104.541H123.138L121.148 104.388L118.852 104.082L116.097 103.546L113.342 102.857L110.051 101.862L106.684 100.714L103.776 99.6428L100.638 98.4183L98.5719 97.5764L94.8219 96.0458L93.0617 95.3571L92.679 95.4336L89.3116 96.5816L86.8627 97.1938L84.5667 97.5764L82.9596 97.7295H80.4341L79.5157 97.653V97.5764L82.2708 97.0407L84.8729 96.352L87.0923 95.5867L89.0821 94.7448L90.1535 94.2856L90.23 94.2091L87.5514 93.1377H87.0157L85.8678 93.7499L83.7249 94.7448L81.6586 95.5867L79.7453 96.2754L77.9086 96.8111L75.9188 97.2703L73.5463 97.653L72.7045 97.7295H69.4137L67.3473 97.4234L65.5871 96.9642L64.0565 96.352L62.6024 95.5867L61.531 94.8213L60.3831 93.8264L59.8473 93.2907L59.1586 92.4489L58.4698 91.454L57.8575 90.4591L57.0157 88.6989L56.48 87.1683L56.0208 85.5611L55.6382 83.5713L55.4086 81.8111L55.332 80.7397V75.8417L55.4086 75.2295Z" fill="#0FA2AA"/>
<path d="M43.9297 76.377H45.996L47.2205 76.6831L48.1389 77.0657L49.2103 77.678L50.1287 78.5198L50.7409 79.2086L51.3532 80.28L51.7358 81.1219L52.042 82.3463V84.4892L51.7358 85.7137L51.2001 86.9382L50.5879 87.8566L49.6695 88.8515L33.5215 104.999L32.6797 105.688L31.9144 106.147L30.6899 106.683L30.1542 106.836H26.7868L25.5623 106.377L24.7205 105.918L24.0317 105.382L23.2664 104.693L22.6542 103.928L22.0419 102.857L21.6593 101.709L21.4297 100.561V99.1831L21.7358 97.729L22.2715 96.5045L22.7307 95.7392L23.5725 94.7443L40.1032 78.2137L41.0981 77.4484L42.3226 76.8361L43.1644 76.53L43.9297 76.377Z" fill="#9E9FA0"/>
<path d="M44.3861 26.25H46.7585L48.6718 26.4796L50.1259 26.8622L51.2739 27.3214L52.3453 28.0102L53.2637 28.852L53.8759 29.6939L54.3351 30.6122L54.7177 31.9133L54.8708 33.2143V34.2092L54.6412 36.1225L54.4116 37.1174H47.1412L47.2177 36.0459V34.2857L47.0647 33.3674L46.7585 32.7551L46.3759 32.3725L45.6106 31.9898L45.3045 31.9133H43.9269L43.1616 32.1429L42.3963 32.602L41.8606 33.3674L41.5545 34.3623V35.8929L41.8606 36.8112L42.3963 37.6531L43.0851 38.4184L44.08 39.4133L44.6922 39.949L45.7636 40.8674L47.4473 42.551L48.4422 43.8521L49.2075 45L49.8198 46.301L50.2024 47.449L50.432 48.6735V50.3572L50.1259 52.1174L49.6667 53.648L48.9014 55.2551L47.983 56.5561L47.4473 57.1684L46.6055 57.8572L45.7636 58.4694L44.3096 59.2347L42.8555 59.7704L41.2483 60.1531L39.5647 60.3827H35.9677L34.0545 60.0766L32.6769 59.6939L31.2228 59.0051L30.3045 58.3164L29.4626 57.4745L28.7738 56.4031L28.2381 55.1021L27.932 53.7245L27.8555 53.0357V51.0459L28.0851 49.1327L28.2381 48.3674L28.3147 48.2908H36.0443L35.8912 49.5919L35.8147 50.1276V52.1174L36.0443 53.0357L36.4269 53.7245L36.8861 54.1072L37.5749 54.4133L37.881 54.4898H39.5647L40.4065 54.1837L41.2483 53.5714L41.7841 52.7296L42.0902 51.8112L42.1667 51.3521V50.5102L41.8606 49.4388L41.1718 48.2143L40.2534 47.1429L39.3351 46.2245L38.7228 45.6888L37.9575 45L37.3453 44.4643L35.8912 43.0102L34.8963 41.7092L34.2075 40.5612L33.6718 39.3367L33.3657 38.1123L33.2891 37.6531V35.5867L33.5187 34.2092L33.9779 32.7551L34.5136 31.5306L35.2024 30.4592L35.8912 29.6939L36.733 28.852L38.1106 27.9337L39.3351 27.3214L40.9422 26.7857L42.932 26.4031L44.3861 26.25Z" fill="#0EA2AA"/>
<path d="M59.9245 27.0918H68.1133L67.8837 28.7755L66.1235 40.5612L64.9755 48.3673L64.6694 50.2806V50.7398L66.2 47.602L66.9653 46.1479L67.8837 44.2347L75.9959 28.0102L76.4551 27.1683L76.5317 27.0918H85.4858L85.1031 27.8571L83.8786 29.9234L82.5776 32.1428L81.5827 33.8265L80.2817 36.0459L79.1337 38.0357L78.1388 39.7194L76.9908 41.7092L75.8429 43.6224L74.6949 45.6122L73.7 47.2959L72.6286 49.1326L71.7868 50.5867L70.7919 52.2704L70.1031 53.4183L68.9551 55.4081L67.9602 57.0918L66.6592 59.3112L66.2766 59.6939H56.8633L56.9398 58.4694L59.6184 29.3877L59.848 27.1683L59.9245 27.0918Z" fill="#0EA2AA"/>
<path d="M131.249 0L133.162 0.0765307L135.535 0.459184L137.831 1.22449L139.055 1.83674L140.203 2.52551L140.968 3.13776L141.734 3.82653L142.116 4.13266L142.652 4.7449L143.341 5.58674L144.183 6.88776L145.101 8.64797L145.79 10.4847L146.326 12.4745L146.632 14.0051L146.861 15.9184L146.938 17.1429V20.9694L146.708 23.7245L146.326 26.4031L145.866 28.8521L145.178 31.7602L144.412 34.4388L143.341 37.7296L142.269 40.5613L141.351 42.7806L140.509 44.6939L139.591 46.6837L137.601 50.6633L136.606 52.4235L135.688 54.1072L133.621 57.5511L132.856 58.699L132.091 59.9235L130.943 61.6072L129.718 63.3674L128.723 64.7449L127.499 66.3521L126.581 67.5766L125.509 68.8776L124.973 69.5664L123.902 70.8674L122.907 72.0154L121.989 73.0868L120.994 74.1582L120.458 74.7705L119.616 75.6888L118.392 76.9899L115.178 80.2041L114.565 80.7399L113.341 81.8878L112.576 82.5766L111.504 83.495L110.739 84.1837L109.973 84.796L108.902 85.6378L107.984 86.3266L107.754 86.4031L106.836 86.0205L104.769 85.1786L104.387 85.1021L104.693 84.949L105.535 84.1837L106.377 83.495L107.142 82.8062L107.984 82.1174L108.519 81.5817L109.132 81.046L110.28 79.9746L111.198 79.0562L111.81 78.5205L112.729 77.6021L113.264 76.9899L114.871 75.3827L115.407 74.7705L116.249 73.8521L116.785 73.2399L118.774 70.9439L119.463 70.1021L120.458 68.8776L121.3 67.8062L122.371 66.4286L123.29 65.2041L125.28 62.449L126.963 59.9235L128.264 57.9337L129.259 56.3266L130.254 54.6429L131.326 52.8062L132.32 50.9694L133.086 49.5153L134.769 46.148L135.994 43.3929L137.218 40.4847L138.519 36.9643L139.361 34.3623L140.28 31.148L140.968 28.0102L141.504 24.7194L141.81 21.8112L141.887 20.1276V17.9082L141.734 15.5357L141.428 13.3929L140.968 11.4031L140.509 9.87246L139.897 8.41837L138.979 6.65817L138.366 5.7398L137.754 4.97449L137.065 4.20919L136.3 3.44388L135.076 2.52551L133.621 1.68367L132.473 1.14796L131.096 0.688776L129.106 0.229592V0.153061L129.489 0.0765307L131.249 0Z" fill="#9E9FA0"/>
<path d="M78.2151 82.1934L79.8988 82.2699L82.1947 82.6525L84.9498 83.3413L87.7814 84.2597L88.6998 84.5658V84.7189L89.4651 84.9485L92.6794 86.173L94.8222 87.0148L95.6641 87.3209L96.0467 87.2444L97.0416 86.5556L98.0365 85.7903L98.5722 85.8668L101.327 87.0148L102.705 87.627L104.771 88.4689L105.077 88.6219L104.389 89.0046L102.781 90.076L102.934 90.2291L107.22 91.8362L109.516 92.6781L112.883 93.826L116.48 94.8974L119.159 95.5862L121.914 96.1985L125.128 96.7342L127.96 97.0403L128.955 97.1168H132.935L135.537 96.8872L136.685 96.7342H137.144V96.8872L136.149 97.6526L135.307 98.1883L134.082 98.8005L133.011 99.2597L131.71 99.6424L130.026 99.9485L128.496 100.102H126.2L123.598 99.8719L120.843 99.4128L117.858 98.724L115.103 97.9587L112.195 97.0403L109.21 95.9689L105.154 94.4383L102.322 93.2903L99.6437 92.2189L99.1845 92.2954L97.1947 93.3668L96.5824 93.5199L94.7457 92.7546L91.608 91.5301L90.6131 91.1474V90.9944L91.9906 90.1525L92.909 89.5403V89.3872L91.608 88.9281L88.6233 87.7801L85.8682 86.7852L85.0263 86.5556L81.9651 85.6372L80.1284 85.1781L78.1386 84.7954L75.7661 84.5658H74.3886L73.1641 84.6423L73.3171 84.2597L74.0824 83.4944L74.9243 82.9587L75.7661 82.576L77.1437 82.2699L78.2151 82.1934Z" fill="#9E9FA0"/>
<path d="M44.1594 78.8262H45.7665L46.9145 79.1323L47.7563 79.5915L48.4451 80.1272L48.9808 80.6629L49.5931 81.7343L49.8992 82.5762L50.0522 83.4945L49.9757 84.6425L49.6696 85.7905L49.2104 86.6323L48.2155 87.7803L40.4094 95.5864L40.1033 95.4333L38.0369 93.367L37.4247 92.8313L36.2767 91.6068L34.6696 89.9997L34.3634 90.1527L26.2512 98.265L25.792 99.0303L25.5624 99.7956V100.867L25.8685 101.709L26.6339 102.78L26.7104 103.239L26.4043 103.852L25.9451 104.081H25.3328L24.8736 103.775L24.2614 103.01L23.7257 101.862L23.4961 100.867V99.6425L23.8022 98.4946L24.3379 97.4231L25.1798 96.4282L41.4043 80.2037L42.3226 79.5149L43.241 79.0558L44.1594 78.8262Z" fill="#FCFCFC"/>
<path d="M90.5337 62.2959H94.7429L95.7378 62.602V62.7551L96.0439 62.9081L96.5796 63.5969L96.7327 64.1326V65.5867L96.5031 66.5816L96.1205 67.4235H95.9674L95.8143 67.7296L95.2021 68.2653L94.8194 68.4949L94.3603 68.5714V68.7245L94.7429 68.801L95.1256 69.1071L95.2786 69.4133V70.7143L95.1256 71.403L94.6664 73.0102V74.5408L94.5898 74.6173H92.0643L91.8347 74.5408V73.6224L92.2174 72.0153L92.447 71.0969L92.5235 71.0204V70.0255L92.3705 69.7194L92.0643 69.5663H91.2225L91.0694 70.0255L90.5337 71.9388L90.3807 72.3214L90.2276 73.0867L90.0745 73.4694L89.7684 74.6173H87.0898L87.2429 73.852L87.4725 73.0867L88.0082 71.3265L88.3909 69.8724L89.0031 67.7296L89.3858 66.5051L89.6919 65.2806L90.5337 62.2959Z" fill="#282828"/>
<path d="M64.8212 62.2959H67.4232L67.3467 62.9847L67.0406 63.903L66.5049 65.9694L66.1987 66.9643H67.9589L68.112 66.199L68.4181 65.1275L68.8008 63.8265L69.0304 63.1377L69.1834 62.602L69.26 62.2959H71.862L71.7855 62.9847L71.3263 64.5918L70.7906 66.2755L70.4845 67.5765L70.0253 69.0306L69.5661 70.7143L69.26 71.6326L69.0304 72.6275L68.5712 74.2347L68.4181 74.6173H65.7396L65.9692 73.699L66.1222 73.3163L66.4283 72.0918L66.8875 70.6377L67.1171 69.6428L67.1936 69.4133H65.51L65.0508 71.0204L64.6681 72.2449L64.362 73.4694L64.2089 73.852L64.0559 74.5408L63.9794 74.6173H61.3008L61.5304 73.699L63.061 68.3418L63.2906 67.5L63.5202 66.8877L64.0559 64.8214L64.5916 62.9847L64.8212 62.2959Z" fill="#282929"/>
<path d="M26.0962 62.2959H28.7748L28.6983 62.9081L28.5452 63.4439L28.086 64.8979L27.7799 66.1224L27.5503 66.9643H29.3105L29.387 66.352L29.6932 65.4337L29.8462 64.7449L30.2289 63.5969L30.535 62.2959H33.2136L32.9075 63.6735L32.5248 65.051L32.2952 65.6632L32.0656 66.6581L31.5299 68.4949L31.0707 70.102L30.6115 71.6326L30.0758 73.6224L29.7697 74.6173H27.0911L27.2442 73.9286L27.7799 72.0918L28.3156 70.1786L28.5452 69.3367L26.8615 69.4133L26.7085 69.7194L26.4023 70.9439L26.2493 71.3265L26.0197 72.3214L25.484 74.1582L25.3309 74.5408L25.2544 74.6173H22.6523L22.7289 74.1582L23.1881 72.551L23.6472 71.0969L24.2595 68.801L24.6421 67.5L25.1779 65.5867L25.4074 64.8214L25.9432 62.9081L26.0962 62.2959Z" fill="#282828"/>
<path d="M83.9554 62.2959H87.0931L87.0166 64.2857L86.787 66.9643L86.6339 68.2653L86.4809 70.7143L86.3278 71.9388L86.1748 74.1582L86.0982 74.6173H83.4962L83.6492 73.3163L83.8023 72.2449L81.6594 72.3214L80.9707 74.1582L80.7411 74.6173H78.0625L78.139 74.1582L78.9809 72.551L79.287 71.7857L80.5115 69.3367L81.1237 68.0357L81.736 66.8112L82.2717 65.6632L82.8839 64.4388L83.6492 62.7551L83.9554 62.2959Z" fill="#282828"/>
<path d="M44.3866 62.2959H47.6775V63.2143L47.3713 66.8877L47.2183 68.1122L47.0652 70.5612L46.9887 70.8673L46.9122 72.2449L46.7591 73.5459L46.6826 74.6173H44.0805L44.1571 74.0051L44.3101 72.8571L44.3866 72.2449H42.3203L41.9377 73.0867L41.6315 73.9286L41.3254 74.5408L41.2489 74.6173H38.5703L38.7234 74.2347L39.106 73.3928L39.7183 72.1684L40.254 70.9439L41.0193 69.4898L41.8611 67.653L42.4734 66.5051L42.7795 65.7398L43.5448 64.2857L43.8509 63.5969L44.3101 62.5255L44.3866 62.2959Z" fill="#272828"/>
<path d="M75.9956 61.9893H77.8324L78.6742 62.2954L79.4395 62.9842L79.7456 63.5964L79.8222 63.9025V65.4331L79.6691 66.275L79.516 66.7342H76.9905L77.1436 65.8158L77.2201 65.4331V64.5913L76.914 64.2852H76.3017L75.8426 64.5913L75.5364 65.2035L75.1538 66.3515L74.6181 68.3413L74.3119 69.2597L73.9293 70.7138L73.7762 71.4025L73.6997 71.4791V72.2444L73.9293 72.5505L74.5415 72.627L74.9242 72.3974L75.2303 72.0148L75.5364 71.2495L75.9191 70.1015L75.9956 70.025H78.5211L78.3681 70.7138L78.0619 71.7087L77.4497 72.9331L77.2201 73.3158L76.4548 74.1576L75.5364 74.6933L74.6181 74.9229H73.3936L72.7048 74.7699L72.0926 74.4638L71.4803 73.8515L71.0977 72.9331V71.326L71.1742 71.1729L71.3272 70.178L71.6334 68.9535L72.3221 66.5811L72.7048 65.4331L73.164 64.4382L73.6232 63.5964L74.3119 62.8311L74.6181 62.678V62.525L75.4599 62.1423L75.9956 61.9893Z" fill="#282929"/>
<path d="M99.4126 62.2959H105.382L105.305 62.9847L104.846 64.5153L104.77 64.5918L101.402 64.6683L101.249 65.4337L101.096 65.9694L100.79 66.9643H103.928L103.851 67.653L103.698 68.0357L103.469 68.9541L103.316 69.3367H100.101L99.7953 70.5612L99.5657 71.1735L99.2596 72.2449H102.703L102.397 73.6224L102.091 74.6173H95.9688L96.0453 73.9286L96.3514 72.8571L96.5045 72.3979L96.8871 71.1735L97.1932 69.949L97.5759 68.5714L97.729 68.0357L98.0351 67.0408L98.4177 65.8163L98.7239 64.5918L99.3361 62.449L99.4126 62.2959Z" fill="#272828"/>
<path d="M35.1275 62.2959H41.0969L41.0203 62.9847L40.5612 64.5153L40.4846 64.5918H37.1173L36.8111 65.9694L36.505 66.9643H39.6428L39.5663 67.5L39.2601 68.7245L38.954 69.3367H35.8162L35.5867 70.2551L35.2805 71.3265L35.0509 72.1684L38.4183 72.2449L38.2652 73.0102L37.9591 74.0816L37.7295 74.6173H31.6836L31.8367 73.699L32.1428 72.7806L32.602 71.0969L33.0611 69.4898L33.5969 67.5765L34.056 65.9694L34.3622 65.051L34.6683 63.8265L35.1275 62.2959Z" fill="#272727"/>
<path d="M42.3985 99.2598L42.7046 99.3363L48.674 105.306L48.5975 105.612L47.1434 106.454L45.8424 106.989L44.6179 107.295L43.9291 107.372H42.4751L41.021 107.142L39.4904 106.607L38.2659 105.918L37.271 105.153L36.9648 104.847L37.0414 104.54L38.1893 103.469L42.3985 99.2598Z" fill="#0EA2AA"/>
<path d="M49.4399 92.2197L49.746 92.3728L50.5879 93.4442L51.2766 94.6687L51.8123 96.1228L52.0419 97.1177L52.1185 97.8065V99.031L51.9654 100.179L51.6593 101.327L51.047 102.704L50.2817 103.929H50.0521L44.5419 98.4187L43.9297 97.883L44.0827 97.5769L47.0674 94.5922L47.5266 94.0565L47.9093 93.6738L48.445 93.2146L48.9807 92.6024L49.4399 92.2197Z" fill="#0EA2AA"/>
<path d="M56.6331 62.2959H63.5973L63.5208 62.9081L63.2147 63.903L62.9851 64.5918L62.9086 64.6683H60.8422L60.7657 65.1275L60.4596 66.0459L60.1535 67.3469L59.6943 68.801L59.1586 70.7908L58.6994 72.3979L58.1637 74.1582L57.9341 74.6173H55.332L55.6382 73.3928L56.0208 72.1684L56.4035 70.7143L56.8626 69.2602L57.5514 66.6581L57.781 65.8163L58.1637 64.6683H56.0208L56.0973 64.0561L56.6331 62.2959Z" fill="#282828"/>
<path d="M51.1236 62.2959H53.8021L53.6491 62.9847L53.343 64.2092L53.1134 64.8979L52.5777 66.8877L52.1185 68.4949L51.5828 70.4081L51.2001 71.6326L51.047 72.1684H54.4909L54.3379 72.8571L54.1083 73.7755L53.8787 74.3877L53.7256 74.6173H47.6797L47.8327 73.852L48.2154 72.6275L48.5215 71.403L48.7511 70.5612L48.9042 70.1786L49.3634 68.4949L49.746 67.1173L50.2817 65.2806L51.047 62.602L51.1236 62.2959Z" fill="#272828"/>
<path d="M95.5106 32.6787H98.2657L99.1075 32.9848L99.7963 33.5971L100.102 34.3624V35.6634L99.7963 37.041L99.1841 38.2655L98.6484 38.9542L97.8831 39.643L96.7351 40.1787L95.8167 40.4083L95.128 40.4848H92.832L92.9851 39.7961L94.6688 34.9746L95.4341 32.7552L95.5106 32.6787Z" fill="#FCFCFC"/>
<path d="M90.1534 94.2861L90.6891 94.3627L92.832 95.2045V95.3576L90.2299 96.2759L88.4697 96.8116L86.0973 97.3474L83.8779 97.6535L82.9595 97.73H80.434L79.5156 97.6535V97.577L82.2707 97.0412L84.8728 96.3525L87.0922 95.5872L89.082 94.7453L90.1534 94.2861Z" fill="#9E9FA0"/>
<path d="M117.092 112.576H117.704L118.163 112.729L118.546 113.112L118.775 113.571V115.484L118.546 116.479L118.163 117.091L117.551 117.474L117.321 117.551H116.479L115.944 117.245L115.637 116.862L115.484 116.25V115.102L115.714 113.801L116.097 113.112L116.556 112.729L117.092 112.576Z" fill="#D8DADA"/>
<path d="M43.7769 112.041H44.1596L44.0831 113.648L43.7769 116.939L43.7004 117.398L44.3127 117.475L44.2361 117.704H43.1647L43.0882 117.322L42.7055 117.704L42.4759 117.781H41.9402L41.328 117.551L41.0218 117.016L40.9453 116.786V115.714L41.2514 114.643H41.4045L41.5576 114.337L42.0167 114.107L42.5525 114.031L43.0882 114.107L43.3943 114.337L43.5474 112.347L43.0882 112.271V112.118L43.7769 112.041Z" fill="#262727"/>
<path d="M89.3879 112.041H89.8471V112.806L89.541 116.174L89.4644 117.398L90.0002 117.475V117.628L89.8471 117.704H88.8522L88.7757 117.398L88.5461 117.628L88.1634 117.781H87.6277L87.092 117.551L86.7859 117.169L86.6328 116.633V115.868L86.8624 114.949L87.2451 114.337L87.7042 114.107L88.393 114.031L88.8522 114.184L89.0818 114.413L89.2349 112.883V112.424L88.6991 112.271V112.118L89.3879 112.041Z" fill="#262828"/>
<path d="M17.9833 114.03L18.672 114.183L18.9782 114.566L19.1312 115.102V115.944L18.9016 116.938L18.5955 117.398L18.1363 117.704L17.9067 117.78H17.2945L16.7588 117.551V117.398H16.6057L16.5292 119.158L17.0649 119.234V119.387H15.3047V119.234L15.9169 119.158L16.2996 114.413H15.7639V114.183L16.9118 114.107V114.489L17.2945 114.183L17.9833 114.03Z" fill="#262828"/>
<path d="M34.0545 112.729H35.4321L35.9678 112.959L36.2739 113.418L36.3504 113.648V115.408L36.1209 116.479L35.8147 116.939L35.3555 117.321L35.126 117.398H33.6719V116.403L33.978 113.112L34.0545 112.729Z" fill="#D7D9D9"/>
<path d="M98.0367 85.791L98.5724 85.8675L101.327 87.0155L101.787 87.2451L101.404 87.5512L100.333 88.3165L99.5673 88.8522L98.802 88.6227L96.0469 87.5512V87.2451L97.0418 86.5563L98.0367 85.791Z" fill="#FBFBFB"/>
<path d="M93.0623 89.4639L94.9755 90.2292L96.4296 90.8414L96.2 91.071L94.1337 92.2955L93.751 92.372L90.6133 91.1475V90.9945L91.9908 90.1526L93.0623 89.4639Z" fill="#FBFBFB"/>
<path d="M124.283 112.5H126.12L126.044 112.73L125.584 112.806L125.431 113.724L125.355 114.719H127.727L127.804 112.806L127.268 112.653V112.5H129.181L129.105 112.73L128.569 112.806L128.416 113.954L128.11 117.398H128.646L128.722 117.628L128.569 117.704H126.809L126.962 117.398L127.421 117.321L127.574 116.173L127.651 115.026H125.278L125.202 116.173V117.321L125.737 117.474V117.704H123.901L123.824 117.474L124.436 117.245L124.743 114.26L124.819 112.806L124.283 112.653V112.5Z" fill="#262A2B"/>
<path d="M92.5998 112.5H94.5131L94.4365 112.73L93.9008 112.883L93.6712 114.719H96.1202L96.1968 112.806L95.661 112.73L95.5845 112.5H97.4978L97.4212 112.73L96.9621 112.806L96.809 113.571L96.5794 116.097V117.321L97.1151 117.474V117.628L96.9621 117.704H95.1253V117.474L95.8141 117.245L96.0437 115.026H93.5947L93.5182 117.321L94.0539 117.474V117.628L93.8243 117.704H92.2937L92.1406 117.628V117.474L92.8294 117.321L93.2121 112.806L92.6763 112.73L92.5998 112.5Z" fill="#262A2A"/>
<path d="M32.8303 112.5H35.968L36.5037 112.73L36.8099 113.112L37.0395 113.801V114.872L36.8099 116.327L36.4272 117.092L35.968 117.474L35.0497 117.704H32.3711V117.474L32.9833 117.321L33.2895 114.26L33.366 112.806L32.8303 112.653V112.5ZM34.0548 112.73L33.9017 113.954L33.6721 116.403V117.398H35.1262L35.5854 117.168L36.0446 116.633L36.2742 115.867L36.3507 115.408V113.648L36.0446 113.036L35.7384 112.806L35.4323 112.73H34.0548Z" fill="#262728"/>
<path d="M137.294 114.03L138.136 114.107L138.366 114.336L138.442 114.566V115.561L138.289 117.398H138.748V117.704H137.294L137.141 117.551L137.677 117.321L137.83 115.867V114.566L137.677 114.489H136.988L136.606 114.796L136.453 115.714L136.376 116.556V117.398L136.759 117.474V117.704H135.228V117.474L135.764 117.398L135.917 114.566L135.687 114.489H135.075L134.692 114.719L134.539 115.255L134.463 116.02V117.398L134.845 117.474L134.769 117.704H133.238V117.398H133.774L134.004 114.413H133.468V114.183L134.539 114.107L134.692 114.489L134.998 114.183L135.228 114.107H136.146L136.529 114.489L137.294 114.03Z" fill="#262B2C"/>
<path d="M116.937 112.347H117.932L118.698 112.576L119.08 112.959L119.31 113.342L119.463 113.801V115.102L119.31 116.02L118.927 116.939L118.315 117.474L117.397 117.78H116.249L115.483 117.474L115.024 116.939L114.871 116.403V114.719L115.177 113.571L115.636 112.959L116.249 112.5L116.937 112.347ZM117.09 112.576L116.478 112.806L116.019 113.189L115.713 113.801L115.483 115.102V116.25L115.713 117.015L116.249 117.474L116.478 117.551H117.32L118.085 117.168L118.392 116.785L118.621 116.25L118.774 115.484V113.571L118.468 112.959L118.085 112.653L117.703 112.576H117.09Z" fill="#262828"/>
<path d="M13.9287 114.03L14.6174 114.183L14.7705 114.489V115.867L14.6174 117.398L15.1531 117.474V117.704H13.546V117.474L14.0817 117.398L14.1582 116.097V114.566L14.0817 114.489H13.3164L12.9338 114.872L12.7807 116.02L12.6276 117.398L13.1633 117.474V117.704H11.6327V117.474L12.0919 117.398L12.245 115.637V114.643L12.0919 114.489H11.3266L11.0205 114.719L10.8674 115.637L10.7144 117.398L11.1736 117.474V117.704H9.56641V117.474L10.1021 117.321L10.3317 115.025V114.489L9.796 114.336V114.183L10.8674 114.107L11.0205 114.489L11.4031 114.183L11.5562 114.107H12.4746L12.7807 114.413V114.566L13.4695 114.107L13.9287 114.03Z" fill="#262A2B"/>
<path d="M140.358 114.107H141.506L141.812 114.414L141.889 114.567V115.791L141.736 117.398L142.195 117.475V117.704H141.277L141.2 117.475L140.741 117.704H139.822L139.516 117.551L139.363 117.322V116.403L139.593 115.944L140.282 115.638H141.353L141.277 114.567L141.047 114.414H140.511L140.205 114.72L140.052 115.255L139.669 115.179L139.822 114.49L140.129 114.184L140.358 114.107Z" fill="#262A2A"/>
<path d="M108.979 112.041H110.127L110.05 113.342V114.413L110.356 114.184L110.586 114.107H111.581L111.887 114.49V115.868L111.81 117.398L112.27 117.475L112.193 117.704H110.586L110.509 117.475L111.122 117.322L111.275 115.944V114.567L111.122 114.49H110.433L109.974 114.796L109.821 115.868L109.667 117.398L110.203 117.475V117.704H108.52V117.475L109.055 117.322L109.208 116.174L109.514 112.347L108.979 112.271V112.041Z" fill="#262A2B"/>
<path d="M101.94 114.107H103.012L103.394 114.337L103.471 114.567V116.097L103.394 117.398L103.777 117.475V117.704H102.859L102.782 117.551L102.323 117.704H101.404L101.022 117.322L100.945 117.169V116.48L101.175 116.021L101.404 115.791L101.711 115.715L102.935 115.638V114.567L102.706 114.414H102.093L101.864 114.643L101.711 115.179H101.328L101.404 114.49H101.558L101.634 114.26L101.94 114.107Z" fill="#262828"/>
<path d="M51.4269 114.107H52.4218L52.8045 114.49L52.881 114.643V115.562L52.7279 117.322L53.2636 117.475V117.628L52.9575 117.704H52.2687L52.1157 117.475L51.58 117.781L50.7381 117.704L50.432 117.398L50.3555 117.245V116.403L50.5851 116.021L50.8147 115.791L51.1208 115.715L52.2687 115.638V114.414H51.5034L51.1973 114.72L51.0442 115.255L50.6616 115.179L50.8147 114.49L51.1208 114.184L51.4269 114.107Z" fill="#262929"/>
<path d="M81.5831 114.107H82.578L82.9607 114.337L83.0372 114.49V116.097L82.9607 117.398L83.4199 117.475V117.628L83.2668 117.704H82.425V117.475L81.8893 117.704L81.3536 117.781L80.8178 117.628L80.5882 117.322L80.5117 116.633L80.6648 116.174L81.0474 115.791L81.3536 115.715L82.425 115.638L82.5015 115.408V114.567L82.3485 114.414H81.6597L81.3536 114.873L81.277 115.179H80.8944L80.9709 114.643L81.3536 114.184L81.5831 114.107Z" fill="#272829"/>
<path d="M38.6456 114.107H39.7171L40.0997 114.414L40.3293 114.949V115.868L40.2528 115.944H38.1099L38.1865 117.016L38.3395 117.322L38.5691 117.398H39.1048L39.4875 117.169L39.7936 116.633L39.8701 116.48H40.0997L40.1763 116.709L39.9467 117.245L39.564 117.628L39.0283 117.781L38.263 117.704L37.8038 117.398L37.5742 116.863V115.562L37.8038 114.796L38.263 114.26L38.6456 114.107Z" fill="#262D2D"/>
<path d="M98.7238 114.107H99.7952L100.178 114.337L100.407 114.796V115.868L100.331 115.944H98.1881L98.3411 117.092L98.5707 117.398H99.336L99.7187 117.016L99.9483 116.556H100.331L100.178 117.092L99.7952 117.551L99.183 117.781H98.6472L98.1115 117.551L97.8054 117.169L97.6523 116.633V115.868L97.8819 114.873L98.4177 114.26L98.7238 114.107Z" fill="#262C2D"/>
<path d="M22.9581 114.107H24.0296L24.4122 114.337L24.6418 114.796V115.868L22.499 115.944L22.5755 117.092L22.8816 117.398H23.5704L23.953 117.092L24.1826 116.556L24.4122 116.48L24.4888 116.556V117.016L24.0296 117.551L23.4173 117.781H22.8816L22.3459 117.551L22.0398 117.169L21.8867 116.633V115.868L22.1163 114.949L22.4224 114.49L22.8051 114.184L22.9581 114.107Z" fill="#26292A"/>
<path d="M28.5441 114.107H29.692L30.0747 114.49L30.2278 114.796V115.868L28.0084 115.944L28.0849 116.863L28.3145 117.322L28.391 117.398H29.1563L29.539 117.016L29.7686 116.556L29.9216 116.48L30.0747 116.556L29.9982 117.092L29.6155 117.551L29.0033 117.781H28.4676L27.9318 117.551L27.6257 117.169L27.4727 116.709V115.868L27.7022 114.949L28.0849 114.337H28.238V114.184L28.5441 114.107Z" fill="#262828"/>
<path d="M77.6802 114.107H78.0628L78.2159 114.414L78.5985 117.016L79.2108 115.562L79.5169 114.414L79.0577 114.337V114.184H80.3587L80.2822 114.414L79.9761 114.49L79.5934 115.332L79.1343 116.556L78.7516 117.398L78.5985 117.704H78.2159L78.0628 117.322L77.6802 114.873L76.7618 117.169L76.5322 117.704H76.073L75.4608 114.567V114.414L75.0781 114.337V114.184H76.6087V114.337L76.1496 114.414L76.3791 116.25L76.4557 117.016L76.6087 116.939L77.221 115.255L77.6802 114.107Z" fill="#262626"/>
<path d="M3.59527 112.347H4.6667L5.66159 112.576V113.801H5.27894L5.12588 113.035L5.04935 112.806L4.81976 112.729H3.51874L2.98302 113.035L2.6769 113.418L2.37078 114.413L2.29424 114.872V116.326L2.52384 117.015L2.98302 117.398L3.28914 117.474H4.05445L4.74323 117.245L5.12588 116.097L5.35547 116.173V117.092L5.27894 117.474L4.59016 117.704L4.20751 117.78H2.98302L2.21771 117.474L1.83506 117.092L1.60547 116.403V114.719L1.83506 113.801L2.21771 113.112L2.6769 112.653L3.21261 112.423L3.59527 112.347Z" fill="#262828"/>
<path d="M7.57462 114.337H8.18686L8.56952 114.72L8.64605 115.026V115.868L8.49299 116.786L8.0338 117.398L7.65115 117.551L7.0389 117.475L6.73278 117.092L6.65625 116.862V115.791L6.88584 115.026L7.19196 114.567L7.57462 114.337Z" fill="#D7D9D9"/>
<path d="M59.6176 114.337H60.2298L60.6125 114.72L60.689 115.026V115.944L60.536 116.786L60.0768 117.398L59.9237 117.475H59.0819L58.7757 117.092L58.6992 116.709V115.944L58.8523 115.179L59.0819 114.72L59.4645 114.413L59.6176 114.337Z" fill="#D6D9D9"/>
<path d="M72.8575 114.337H73.5462L73.8524 114.643L73.9289 114.873V116.174L73.6993 116.939L73.3166 117.398L73.0871 117.475H72.3983L72.0922 117.169L72.0156 117.015V115.561L72.3217 114.72L72.8575 114.337Z" fill="#D7D9DA"/>
<path d="M68.0375 112.5H72.0171V113.265L71.9405 113.801L71.6344 113.724L71.5579 112.806L70.3334 112.73L70.2569 113.954L70.0273 116.48V117.321L70.563 117.474V117.628L70.4099 117.704H68.5732L68.6497 117.398L69.3385 117.321L69.415 116.02L69.7211 112.883L69.7977 112.73L68.5732 112.883L68.2671 113.801H67.9609L68.0375 112.5Z" fill="#262929"/>
<path d="M42.2458 114.337H42.9346L43.2407 114.643L43.3172 114.796V116.174L43.1641 116.939L42.858 117.398L42.5519 117.551H42.0162L41.6335 117.245L41.4805 116.709V115.944L41.6335 115.179L41.9397 114.567L42.2458 114.337Z" fill="#D5D8D8"/>
<path d="M143.648 114.107H143.878L144.031 114.49L144.26 114.26L144.566 114.107H145.561L145.867 114.414L145.944 114.72L145.867 116.174L145.791 117.398L146.25 117.475V117.704H144.643V117.398H145.179L145.332 115.408V114.72L145.179 114.49H144.413L144.031 114.796L143.878 115.332L143.724 117.398L144.26 117.475V117.628L144.031 117.704H142.577L142.5 117.475L143.112 117.398L143.265 115.638V114.49L142.883 114.414V114.184L143.648 114.107Z" fill="#262A2A"/>
<path d="M87.9349 114.337H88.6236L89.0063 114.72L89.0828 115.026L89.0063 116.327L88.7767 117.092L88.3941 117.475L87.7818 117.551L87.3992 117.322L87.2461 117.092V115.408L87.5522 114.643L87.9349 114.337Z" fill="#D8DADA"/>
<path d="M62.7534 114.107H62.983V114.49L63.4422 114.184L63.6718 114.107H64.5902L64.8963 114.337L64.9728 114.567V115.638L64.8198 117.398L65.3555 117.475L65.2789 117.704H63.6718V117.475L64.2075 117.398L64.3606 115.868V114.643L64.2075 114.49H63.4422L63.0596 114.873L62.9065 115.638L62.7534 117.398L63.2891 117.475V117.704H61.9116L61.6055 117.628V117.475L62.1412 117.322L62.2942 115.944L62.3708 114.414H61.9881L61.9116 114.184L62.7534 114.107Z" fill="#272929"/>
<path d="M17.5254 114.337H18.1377L18.4438 114.643L18.5203 114.873V116.174L18.2907 117.092L17.9081 117.475H17.1428L16.7601 117.092L16.6836 116.786L16.7601 115.485L16.9897 114.796L17.3724 114.413L17.5254 114.337Z" fill="#D7D9DA"/>
<path d="M45.4577 64.4385H45.5342V65.1273L45.3811 65.816L45.3046 66.6579L45.2281 66.8109L45.075 68.1885L44.922 68.8773L44.7689 70.1017L43.2383 70.1783V69.8722L43.5444 69.0303L43.8505 68.4181L44.3097 67.1936L44.6158 66.5813L44.8454 65.8926L45.2281 65.0507L45.3811 64.515L45.4577 64.4385Z" fill="#F3F6F6"/>
<path d="M84.8717 64.4385H85.0248L84.7952 66.1987L84.6421 66.964L84.4891 68.265L84.336 69.0303L84.183 70.1017H82.6523L82.7289 69.7191L83.1881 68.4946L83.4942 67.8824L83.8003 67.1171L84.183 66.1987L84.4891 65.3568L84.7187 64.7446L84.8717 64.4385Z" fill="#F3F5F5"/>
<path d="M92.6012 64.3623H93.5196L93.8257 64.5154L94.0553 64.898V65.8164L93.8257 66.5052L93.4431 66.9643H93.29V67.1174L92.7543 67.347H91.8359V66.9643L92.0655 66.3521L92.6012 64.3623Z" fill="#F6F7F7"/>
<path d="M129.336 114.107H130.484L130.331 115.791V117.245L130.56 117.398H131.096L131.479 117.169L131.632 117.016L131.785 115.944L131.861 114.49L131.402 114.337V114.184L132.55 114.107L132.244 117.398L132.78 117.475V117.704H131.708L131.555 117.398L131.096 117.704L130.407 117.781L129.872 117.628L129.719 117.322V115.944L129.795 114.49L129.336 114.337V114.107Z" fill="#262828"/>
<path d="M73.086 114.03L73.7748 114.107L74.234 114.413L74.4636 114.872L74.5401 115.178V115.79L74.387 116.632L74.0044 117.245L73.5452 117.627L73.086 117.78H72.3972L71.8615 117.551L71.6319 117.321L71.4023 116.556L71.4789 115.561L71.785 114.719L72.3972 114.183L73.086 114.03ZM72.8564 114.336L72.3207 114.719L72.0146 115.561V117.015L72.2442 117.398L72.3972 117.474H73.086L73.4687 117.245L73.7748 116.785L73.9279 116.173V114.872L73.6983 114.413L73.5452 114.336H72.8564Z" fill="#262829"/>
<path d="M59.8477 114.03L60.5365 114.107L61.0722 114.566L61.2253 114.949V116.25L60.9192 117.015L60.46 117.551L59.8477 117.78H59.159L58.6232 117.551L58.2406 117.092L58.1641 116.785V115.867L58.3937 115.025L58.7763 114.413L59.312 114.107L59.8477 114.03ZM59.6181 114.336L59.159 114.643L58.9294 114.949L58.7763 115.408L58.6998 115.944V116.709L58.8528 117.245L59.0824 117.474H59.9243L60.3069 117.168L60.5365 116.785L60.6896 115.944V115.025L60.46 114.489L60.2304 114.336H59.6181Z" fill="#272828"/>
<path d="M7.72824 114.03L8.41701 114.107L8.8762 114.413L9.10579 114.719L9.18232 114.949V116.173L8.95273 116.938L8.41701 117.551L7.72824 117.78H7.03946L6.50375 117.551L6.19762 117.015L6.12109 116.709V115.944L6.35069 115.025L6.65681 114.489L7.03946 114.183L7.72824 114.03ZM7.57518 114.336L7.11599 114.643L6.73334 115.408L6.65681 115.79V116.862L6.8864 117.321L7.26905 117.551L7.8813 117.474L8.26395 117.168L8.49354 116.785L8.64661 115.867V115.025L8.41701 114.489L8.18742 114.336H7.57518Z" fill="#262828"/>
<path d="M151.299 114.184H152.83L152.753 114.413H152.37L152.524 115.485L152.83 116.939V117.168H152.983L153.212 116.403L153.748 115.025L153.901 114.413L153.518 114.337V114.184H154.743L154.59 114.413H154.36L154.207 114.796L153.518 116.403L152.983 117.551L152.37 118.775L151.758 119.311L151.605 119.388H150.993L150.84 119.235V118.852L151.222 118.775L151.299 119.005L151.835 118.928L152.37 118.24L152.447 118.087V117.627L152.217 116.939L151.682 114.643V114.413L151.299 114.337V114.184Z" fill="#262828"/>
<path d="M121.683 111.964L122.219 112.04L122.448 112.27V112.806L122.065 112.882L121.989 112.193L121.53 112.347L121.377 112.576L121.147 114.183H121.989V114.413L121.147 114.489L120.917 117.398L121.53 117.474L121.453 117.704H119.77V117.398H120.305L120.535 114.413H120.076V114.183H120.611L120.688 113.341L120.994 112.423L121.453 112.04L121.683 111.964Z" fill="#262C2D"/>
<path d="M19.9748 112.117H21.1228L21.0462 113.724L20.7401 117.398L21.2758 117.474L21.1993 117.704H19.5156L19.5922 117.398H20.1279L20.5105 112.806L20.5871 112.347H20.0513L19.9748 112.117Z" fill="#26292A"/>
<path d="M105.691 112.041H105.767L105.691 113.419L105.385 116.862L105.308 117.398L105.92 117.475V117.628L105.767 117.704H104.16V117.475L104.772 117.398L104.849 115.944L105.155 112.347L104.619 112.271V112.118L105.691 112.041Z" fill="#262728"/>
<path d="M48.6736 114.03L49.4389 114.107L49.8215 114.336V115.178H49.4389L49.3623 114.566L49.2093 114.413H48.3674L47.9848 114.719L47.7552 115.331L47.6787 115.714V116.785L47.9082 117.321L47.9848 117.398H48.8266L49.2093 117.168L49.4389 116.556H49.6684V117.245L49.2858 117.627L48.7501 117.78H48.0613L47.5256 117.627L47.2195 117.245L47.0664 116.862V115.637L47.296 114.872L47.6021 114.413L48.1378 114.107L48.6736 114.03Z" fill="#262C2C"/>
<path d="M107.525 112.883H107.754L107.678 114.184H108.366L108.29 114.413H107.601L107.448 116.403V117.322L107.525 117.398H108.213L108.06 117.704L107.295 117.781L106.912 117.628L106.836 117.475V116.327L106.989 114.413L106.453 114.337V114.184H107.065L107.142 113.112L107.525 112.883Z" fill="#262929"/>
<path d="M149.922 112.883H150.228L150.152 114.184H150.841L150.764 114.413H150.075L149.999 115.791V117.398H150.764L150.688 117.628L150.152 117.781L149.54 117.704L149.31 117.322L149.387 115.868L149.54 114.413L149.004 114.337V114.184L149.54 114.107L149.693 113.036L149.922 112.883Z" fill="#262727"/>
<path d="M84.5668 114.107H84.9495L85.1025 114.337L85.4852 114.107H86.0209L86.2505 114.26V114.949L86.1739 115.102L85.7913 115.026L85.7148 114.49L85.1791 114.643L85.026 115.102L84.8729 117.398L85.4086 117.475L85.3321 117.704H83.6484V117.475L84.1842 117.322L84.4137 115.255V114.567L83.9546 114.337V114.184L84.5668 114.107Z" fill="#262A2A"/>
<path d="M26.2488 112.883H26.4784L26.3253 114.184H27.0906L27.0141 114.413H26.3253L26.1723 116.403V117.398H27.0141L26.8611 117.628L26.4019 117.781L25.7131 117.704L25.56 117.475V116.25L25.7131 114.72L25.7896 114.413H25.2539V114.184H25.7896L25.8662 113.189L26.0192 112.959L26.2488 112.883Z" fill="#262627"/>
<path d="M54.7957 112.883H54.9487L54.8722 114.184H55.561V114.413H54.7957V115.102L54.7191 115.944V117.398H55.4845L55.4079 117.628L55.0253 117.781H54.4896L54.1069 117.551V116.021L54.26 114.413H53.8773L53.8008 114.184H54.3365L54.413 113.036L54.7957 112.883Z" fill="#262626"/>
<path d="M56.0952 114.107H57.2431L57.1666 115.638L57.0136 117.398L57.4727 117.475L57.6258 117.628L57.5493 117.704H55.8656L55.7891 117.475L56.4013 117.398L56.6309 114.873V114.49L56.0952 114.337V114.107Z" fill="#262B2C"/>
<path d="M45.9963 114.107H46.1494L45.9963 116.25L45.9198 117.398L46.4555 117.475L46.379 117.704H44.7718L44.6953 117.475L45.3076 117.398L45.5371 114.414H45.078L45.0014 114.184L45.9963 114.107Z" fill="#262A2A"/>
<path d="M147.017 114.184H148.165L147.935 116.862L147.859 117.398L148.395 117.474V117.704H146.711V117.474L147.247 117.321L147.476 115.102V114.49L147.017 114.337V114.184Z" fill="#262929"/>
<path d="M75.0781 114.184H76.6087V114.337L76.1496 114.413L76.3791 116.25L76.4557 117.015L76.7618 116.939L76.6087 117.627L76.5322 117.704H76.073L75.4608 114.566V114.413L75.0781 114.337V114.184Z" fill="#262828"/>
<path d="M81.5061 115.944H82.501L82.4244 116.939L82.1948 117.322L81.8887 117.475H81.353L81.0469 117.092V116.48L81.353 116.021L81.5061 115.944Z" fill="#D5D8D8"/>
<path d="M51.2733 115.944H52.2682V116.786L52.1151 117.169L51.7325 117.475H51.1967L50.8906 117.245V116.404L51.2733 115.944Z" fill="#D5D8D8"/>
<path d="M140.281 115.944H141.276V116.557L141.046 117.322L140.664 117.475H140.128L139.898 117.169V116.48L140.128 116.097L140.281 115.944Z" fill="#D1D6D6"/>
<path d="M101.94 115.944H102.858V116.863L102.628 117.245L102.322 117.475H101.787L101.48 117.169V116.557L101.71 116.174L101.94 115.944Z" fill="#D5D9D9"/>
<path d="M38.8763 114.337H39.412L39.7181 114.72L39.7946 114.949V115.561L39.7181 115.638H38.1875L38.264 114.949L38.5702 114.49L38.8763 114.337Z" fill="#D2D5D5"/>
<path d="M28.7747 114.337H29.3104L29.6166 114.567L29.6931 114.796V115.638H28.0859L28.239 114.873L28.6217 114.413L28.7747 114.337Z" fill="#D2D5D6"/>
<path d="M23.1888 114.337H23.801L24.0306 114.567L24.1071 114.796V115.638H22.5L22.6531 114.873L23.0357 114.413L23.1888 114.337Z" fill="#D3D5D5"/>
<path d="M98.9544 114.337H99.4901L99.7962 114.567L99.8728 114.796V115.638H98.2656L98.4187 114.873L98.8013 114.413L98.9544 114.337Z" fill="#D2D4D5"/>
<path d="M153.522 114.184H154.746L154.593 114.413H154.364L154.21 114.796L153.522 116.403L153.216 117.015H153.062L153.139 116.633L153.828 114.796L153.904 114.413L153.522 114.337V114.184Z" fill="#26292A"/>
<path d="M147.782 112.424H148.241L148.318 112.5V113.113L148.241 113.266L147.782 113.342L147.629 113.189L147.705 112.5L147.782 112.424Z" fill="#272626"/>
<path d="M56.9382 112.424H57.3974L57.4739 112.96L57.3974 113.266H56.7852V112.653L56.9382 112.424Z" fill="#262727"/>
<path d="M45.8406 112.424H46.2997V113.189L46.0702 113.342L45.6875 113.266V112.5L45.8406 112.424Z" fill="#262727"/>
<path d="M6.88672 117.092L6.96325 117.245L7.88162 117.321V117.474L7.26937 117.551L6.88672 117.321V117.092Z" fill="#DEE7E7"/>
<path d="M45.4585 64.4385H45.535V65.1273L45.4585 65.5864H45.3819L45.3054 65.2038L45.1523 65.2803L45.3819 64.515L45.4585 64.4385Z" fill="#AEC1C2"/>
<path d="M22.6523 117.168L23.6472 117.321L23.5707 117.474H22.8819L22.6523 117.321V117.168Z" fill="#F5F5F5"/>
<path d="M47.9062 117.245L48.9777 117.322L48.8246 117.475H47.9828L47.9062 117.245Z" fill="#F3F3F3"/>
</svg>
