<svg width="246" height="100" viewBox="0 0 246 100" fill="none" xmlns="http://www.w3.org/2000/svg">
<path d="M34.7664 14.2852H35.0192L35.2721 14.9172L35.3985 17.0663L35.2721 19.4683L35.0192 19.7211L34.8928 20.8589V24.7778L34.5135 25.4099L34.3871 27.6854L33.8815 27.8118V29.5817L33.3758 29.8345L33.5022 30.8459L32.9965 31.2251L33.123 32.2365L33.6286 33.2478L34.64 34.1327L35.7777 35.5233L36.7891 36.7875V37.1667H37.0419L38.3061 39.5687V39.8215H38.5589L39.191 40.9593V42.3499H39.4438L39.6967 42.7291V43.9933L40.0759 45.131V56.8879L39.8231 57.6464L39.6967 59.4162L39.3174 60.1747L39.0646 61.3125L38.8117 61.6918L38.5589 62.5767L38.3061 62.8295L38.0532 63.7144L37.5476 64.8522L35.9041 67.3805L34.8928 68.3919L34.0079 69.4032L32.4909 70.9202L30.9739 72.058H15.9302L16.0566 71.5523L16.5622 71.4259L16.6887 71.0467H16.9415L17.1943 70.541L17.5736 70.4146V70.1617L18.0793 69.9089L18.2057 69.6561L18.8378 69.2768L19.0906 68.8976L19.4699 68.7711L19.5963 68.5183L20.3548 68.2655L20.4812 67.8862H20.8604L21.1133 67.3805L21.619 67.2541V67.0013L21.9982 66.8749L22.251 66.4956H22.6303V66.2428H23.0095V65.99H23.2624V65.7371H23.6416L23.8945 65.2314L24.2737 64.9786H24.653L24.7794 64.5994H25.1586V64.3465L25.9172 63.8409H26.2964V63.588L27.5606 62.7031H27.9398L28.0662 62.4503L29.4568 61.4389L29.9625 61.1861L30.0889 60.9332H30.3418V60.6804H30.721L30.8474 60.3012L31.2267 60.0483H31.6059V59.7955H31.8588V59.5427H32.238V59.2898H32.4909L32.7437 58.7841L33.2494 58.6577V58.4049H33.5022L33.755 57.8992L34.7664 57.0143L35.9041 55.6237L36.4098 55.118L37.2947 53.7274L37.5476 53.0954H37.8004L38.0532 51.8312L37.8004 51.0727L36.6626 49.1764L35.2721 47.4066L33.8815 45.8896L32.3644 44.2461L30.2153 42.2234L28.9512 41.0857L27.8134 40.0743L27.1813 39.8215L25.4115 40.9593L24.1473 41.9706L22.8831 42.8555L21.1133 44.1197L17.3208 47.1537L15.1717 49.1764L12.0112 52.3369L10.6206 53.9803L9.48286 55.4973L8.09227 57.8992L7.20735 59.7955L7.08093 60.6804L6.70168 61.1861L6.44884 62.1974L5.94317 63.4616H5.81675L5.4375 62.071V58.5313L5.81675 56.2558L6.06959 54.3595L6.32242 52.9689V51.5783L6.82809 50.0613L6.95451 49.1764L7.71302 47.1537L8.85078 45.0046L10.3678 42.6027L11.3791 41.0857L13.0226 39.1894L15.0452 37.1667L16.4358 36.029L17.9528 34.7648L18.5849 34.3856L18.8378 34.0063L18.9642 33.3742L20.3548 32.2365L21.9982 30.8459L23.6416 29.5817L25.7907 27.8118L26.9285 26.8005L27.1813 26.5477L27.687 26.6741L28.4455 26.042L29.7097 24.3986L31.1003 22.7551L32.1116 21.3645L32.9965 19.7211L33.5022 18.3305L33.8815 17.1928L34.0079 16.9399L34.2607 14.7908L34.7664 14.2852Z" fill="#02ABEF"/>
<path d="M32.8696 31.8574L33.1225 32.2367L33.6282 33.248L34.6395 34.1329L35.7773 35.5235L36.7886 36.7877V37.167H37.0414L38.3056 39.5689V39.8217H38.5584L39.1905 40.9595V42.3501H39.4434L39.6962 42.7293V43.9935L40.0754 45.1313V56.8881L39.8226 57.6466L39.6962 59.4165L39.3169 60.175L39.0641 61.3127L38.8113 61.692L38.5584 62.5769L38.3056 62.8297L38.0528 63.7147L37.5471 64.8524L35.9037 67.3808L34.8923 68.3921L34.0074 69.4034L32.4904 70.9205L30.9734 72.0582H15.9297L16.0561 71.5525L16.5618 71.4261L16.6882 71.0469H16.941L17.1939 70.5412L17.5731 70.4148V70.162L18.0788 69.9091L18.2052 69.6563L18.8373 69.277L19.0901 68.8978L19.4694 68.7714L19.5958 68.5185L20.3543 68.2657L20.4807 67.8864H20.86L21.1128 67.3808L21.6185 67.2543V67.0015L21.9977 66.8751L22.2506 66.4958H22.6298V66.243H23.0091V65.9902H23.2619V65.7373H23.6412L23.894 65.2317L24.2732 64.9788H24.6525L24.7789 64.5996H25.1582V64.3467L25.9167 63.8411H26.2959V63.5882L27.5601 62.7033H27.9394L28.0658 62.4505L29.4564 61.4391L29.962 61.1863L30.0885 60.9335H30.3413V60.6806H30.7205L30.847 60.3014L31.2262 60.0485H31.6055V59.7957H31.8583V59.5429H32.2376V59.29H32.4904L32.7432 58.7844L33.2489 58.658V58.4051H33.5017L33.7546 57.8994L34.7659 57.0145L35.9037 55.6239L36.4093 55.1183L37.2943 53.7277L37.5471 53.0956H37.7999L38.0528 51.8314L37.7999 51.0729L36.6622 49.1766L35.2716 47.4068L33.881 45.8898L32.364 44.2463L30.2149 42.2237L28.9507 41.0859L27.8129 40.0746L27.0544 39.8217V39.1896L28.3186 38.0519L29.2035 37.167L30.4677 35.5235L31.8583 33.248L32.6168 31.9838L32.8696 31.8574Z" fill="#2FAE5C"/>
<path d="M0 0H1.89626L2.65477 1.64343L3.66611 3.91895L4.80387 5.81521L6.06804 7.83789V8.09073H6.32088L7.45864 9.73415L8.5964 10.9983L9.48132 12.1361L10.8719 13.6531L12.2625 15.0437L13.2738 15.9286L15.1701 17.572L16.94 18.9626L19.5947 20.9853L21.6174 22.3759L23.6401 23.8929L25.4099 25.2835L25.6628 25.4099V25.6628L26.2949 25.9156L26.9269 26.4213L27.0534 26.8005L25.4099 28.3175L24.1458 29.3289L22.3759 30.7195L20.7325 32.1101L19.3419 33.2478L19.0891 33.3742L17.3192 32.3629L15.9286 31.2251L13.9059 29.5817L12.2625 28.0647L9.48132 25.2835L8.34356 23.8929L7.2058 22.6287L5.56237 20.3532L3.91895 17.6985L2.9076 15.8022L1.89626 13.4003L1.13776 10.9983L0.632088 8.46998L0.252835 6.4473L0 6.06804V0Z" fill="#ADCE51"/>
<path d="M24.7761 0.631836H25.9139L27.6838 1.26392L29.0743 2.14885L29.9593 3.03377L30.8442 4.29795L31.3499 5.4357L31.4763 5.56212L31.6027 7.07913L31.9819 7.45839V10.8717L31.8555 11.2509L31.6027 11.5037L31.4763 12.6415L31.2234 12.7679L30.8442 13.6528L30.2121 14.917L29.58 15.5491L27.9366 16.9397L26.6724 17.4454L26.1667 17.5718H24.7761L23.3856 17.1925L22.2478 16.434L21.7421 16.0548V15.8019H21.4893L20.4779 14.4114L19.7194 13.0208L19.3402 11.883L19.0874 9.86032L18.9609 9.48107V8.59614L19.2138 7.83764L19.3402 6.19421L20.3515 4.17153L21.2365 2.78094L22.1214 1.89601L23.2591 1.13751L24.7761 0.631836Z" fill="#02ABEF"/>
<path d="M32.866 31.8574L33.1188 32.2367L33.6245 33.248L34.6358 34.1329L35.7736 35.5235L36.7849 36.7877V37.167H37.0378L38.3019 39.5689V39.8217H38.5548L39.1869 40.9595V42.3501H39.4397L39.6925 42.7293L39.5661 46.7747L38.5548 50.188L38.1755 51.3257L37.9227 51.4521L37.1642 49.9351L35.9 48.1653L34.383 46.3954L33.4981 45.5105L32.6132 44.4992L31.6018 43.4878L30.5905 42.6029L28.6942 40.8331L27.8093 40.0746L27.0508 39.8217V39.1896L28.315 38.0519L29.1999 37.167L30.4641 35.5235L31.8546 33.248L32.6132 31.9838L32.866 31.8574Z" fill="#ACCE51"/>
<path d="M218.324 0.125977H221.231L222.875 0.758065L224.392 2.40149L224.518 2.90716L224.645 3.53925L224.898 3.79209L225.024 5.68835L225.403 5.94119V12.7677L226.035 12.8942H244.998L245.124 13.147L244.998 15.2961H239.562L225.909 15.4225L225.53 15.6753L225.403 18.2037H226.794L228.058 17.8244L229.069 17.4452L230.207 17.3188H232.356L234.252 17.698L236.275 18.4565L237.413 19.3414L238.424 20.4792L239.309 22.5019L239.815 23.7661V40.2004L240.194 40.8324V42.0966L240.573 42.223L240.7 42.4759V43.2344L239.941 43.4872H237.413L236.149 43.2344L235.264 42.6023L234.126 41.2117L233.747 40.4532L233.494 39.5683L233.241 39.189L232.988 36.2814L232.862 29.5813V26.5473L232.988 23.5132L232.735 23.0076V21.9962L232.23 21.2377L231.598 20.8585H228.817L227.3 21.3641L226.035 22.5019L225.53 23.3868V40.2004L225.783 40.3268L226.162 41.3381L226.667 41.8438L226.794 42.0966V43.108L226.541 43.3608H225.024L222.875 42.6023L221.484 41.7174L220.599 40.8324L219.841 39.8211L219.335 38.6833L219.082 37.7984L218.83 37.0399L218.703 35.2701L218.83 15.2961H78.2532L77.7475 15.0433L77.6211 14.4112L78.1268 13.2734L78.506 12.8942H217.818L218.703 12.5149V3.53925L218.45 3.16L218.197 1.76941L217.565 0.758065L217.692 0.378812L218.324 0.125977Z" fill="#3D517B"/>
<path d="M61.3108 0.378906H63.0807L65.3562 0.505324L67.126 0.884577L68.3902 1.26383L70.5393 2.40159L72.1827 3.66576L73.3205 4.80352L74.5847 6.95262L74.9639 7.96396L75.0903 8.09038V9.22814L75.4696 10.998V12.0093L75.2168 12.3886L75.0903 13.7792L75.4696 14.6641L74.5847 15.4226L73.6998 15.6754H72.562L71.1714 15.2962L70.0336 14.6641L69.0223 13.5263L68.1374 11.8829L67.7581 8.09038L67.2525 6.69979L66.494 5.68845L65.4826 5.05636L64.7241 4.80352L63.5863 4.6771H61.6901L59.6674 5.05636L58.1504 5.68845L57.0126 7.20546L56.8862 8.34321L56.507 8.46963V9.48097L56.8862 10.1131L57.1391 11.2508L57.2655 11.6301H57.5183L58.2768 12.7678L59.7938 14.032L60.2995 14.2848L60.9316 14.9169L62.7014 16.4339L64.3449 17.6981L65.9883 19.0887L67.3789 20.1L69.6544 21.8699L70.6657 22.7548L71.2978 23.1341L72.1827 24.1454L74.3318 26.2945L75.0903 27.3059L75.3432 27.8115L75.596 27.9379V28.6964L76.1017 29.2021V30.2135L75.9753 30.4663L76.3545 30.5927L76.4809 30.8455V33.6267L76.1017 34.3852V35.523L75.7224 36.1551L75.4696 37.04L74.7111 38.1778L73.8262 39.3155L72.8148 40.3269L70.9186 41.591L68.8959 42.6024L66.2411 43.3609L64.8505 43.6137L60.9316 43.7401L58.024 43.3609L55.622 42.6024L52.9673 41.2118L52.3352 40.5797V39.4419L52.588 38.9363L53.7258 39.0627L56.1277 39.6948L58.4032 40.074L59.4146 40.2004H60.9316L63.3335 39.8212L64.9769 39.1891L66.2411 38.4306L67.5053 37.1664L68.3902 35.9022L68.5166 35.2702L68.7695 34.5117L68.6431 33.3739L68.3902 32.1097L68.011 31.4776L67.5053 30.5927L66.3675 29.3285L63.7128 26.6738L62.3222 25.536L60.2995 23.8926L58.4032 22.2491L56.8862 20.8586L55.4956 19.7208L53.9786 18.3302L52.9673 17.4453L51.9559 16.3075L50.9446 14.5377L50.5653 13.5263L50.3125 13.0207V8.34321L50.5653 7.07904L51.5767 5.05636L52.7144 3.66576L53.9786 2.65442L55.622 1.64308L57.1391 1.01099L58.9089 0.631741L61.3108 0.378906Z" fill="#3D507B"/>
<path d="M125.786 17.1924H127.05L129.072 17.5716L129.831 17.8245V18.0773L130.337 18.3301L131.221 19.3415L131.98 21.1113L132.106 37.672V46.6477L131.854 47.0269L131.601 50.1874V51.0723L131.221 51.578V52.4629L130.21 53.9799L129.072 54.7384L127.176 55.6233L125.28 56.0026L122.751 56.2554H120.982L118.2 55.7497L115.166 54.7384L114.534 54.2327L114.661 53.6007L114.787 53.4742H116.178L117.948 53.8535L119.465 53.9799H121.614L122.878 53.7271L123.889 53.2214L124.395 52.5893L125.027 51.3251L125.153 49.5553L125.28 48.9232V43.2344H123.51L122.119 43.6137H118.706L116.81 43.3608L114.914 42.8552L113.27 41.7174L112.259 40.7061L111.5 39.3155L111.121 38.557L110.995 36.9135V26.8001L110.868 19.5943L109.983 18.583L109.73 18.3301L109.857 17.6981L110.11 17.4452L111.627 17.5716L113.776 18.2037L115.419 19.0886L116.178 19.7207L116.936 20.7321V20.9849H117.189L117.695 21.9963L117.821 39.3155L118.327 40.4532L118.833 41.0853L119.717 41.4646H121.74L123.384 40.8325L124.395 40.074L124.901 39.4419L125.027 38.8098L125.153 20.6057L124.901 17.5716L125.153 17.3188L125.786 17.1924Z" fill="#3D517B"/>
<path d="M147.149 17.3193H148.918L151.194 17.4458L153.722 17.9514L155.366 18.5835L156.756 19.342L157.641 20.3534L158.147 21.4911L158.4 21.744L158.526 23.261L158.779 23.7666V25.1572L158.653 26.8007L158.779 30.2139L158.905 32.6159V42.4764L159.158 42.9821L158.526 43.4878L158.02 43.6142H156.883L155.366 43.3614L153.849 42.6029L152.837 41.7179L152.079 40.9594L151.068 41.0858L150.056 41.9708L148.792 42.8557L147.401 43.3614L146.39 43.6142H144.367L141.965 43.1085L140.322 42.4764L138.931 41.4651L138.173 40.5802L137.414 39.0632L137.162 38.0518L137.035 37.6726V34.765L137.414 33.88L137.667 32.8687L138.552 31.6045L139.816 30.4668L141.839 29.329L143.609 28.5705L148.918 26.6742L150.309 26.1686L151.194 25.4101L151.32 25.1572V21.8704L150.688 20.7326L149.677 19.8477L148.413 19.4684L147.275 19.342H145.252L142.85 19.7213L141.839 20.1005H140.701L140.448 19.8477L140.575 19.0892L141.333 18.5835L143.609 17.825L145.379 17.4458L147.149 17.3193Z" fill="#3D517B"/>
<path d="M173.697 17.3193H175.34L177.616 17.4458L180.144 17.9514L181.914 18.5835L183.178 19.4684L184.063 20.3534L184.695 21.3647L184.822 23.261L185.201 23.3874L185.327 25.0308V42.4764L185.58 42.9821L184.822 43.4878L184.442 43.6142H183.431L181.535 43.2349L180.271 42.6029L179.259 41.5915L178.754 40.833L178.121 40.7066L177.363 40.9594L176.352 42.0972L175.214 42.8557L173.95 43.3614L172.812 43.6142H170.789L168.261 43.1085L166.744 42.4764L165.353 41.4651L164.468 40.4538L163.836 39.0632L163.583 37.799L163.457 37.4197V34.765L163.963 33.248L164.721 31.8574L165.733 30.846L167.502 29.7083L168.893 29.0762L170.916 28.3177L176.225 26.4214L177.237 25.7893L177.742 24.778L177.995 24.1459V23.1345L177.363 21.1119L176.857 20.3534L176.099 19.8477L174.329 19.4684L172.559 19.342L169.399 19.7213L168.008 20.1005H167.25L166.997 19.5949L167.123 19.0892L168.134 18.4571L170.663 17.6986L171.801 17.4458L173.697 17.3193Z" fill="#3D517A"/>
<path d="M83.1843 17.3193H85.207L87.1032 17.5722L87.8617 18.0778L88.7467 19.0892L90.0108 21.3647L90.3901 24.0195V31.0989L90.5165 39.6952L90.3901 39.9481L91.0222 40.7066L92.0335 41.0858H93.8034L95.3204 40.5802L96.711 39.8217L97.2166 39.0632V17.3193H100.377L102.021 17.825L103.158 18.8363L103.79 19.8477L104.043 20.9854L104.296 21.4911L104.17 24.778L104.043 26.5478V29.2026L104.17 35.5235V40.833H103.917L104.549 42.0972L105.56 42.8557L105.687 43.2349L105.434 43.4878L103.79 43.6142L101.136 42.7293L99.3657 41.7179L98.8601 41.3387L97.7223 41.4651L95.826 42.8557L94.5619 43.3614L93.4241 43.6142L92.1599 43.7406H91.0222L88.8731 43.4878L86.9768 42.8557L85.7126 42.0972L84.7013 41.0858L83.9428 39.8217L83.5635 38.6839L83.4371 38.5575L83.3107 37.1669V19.8477L82.6786 18.2043L82.4258 17.9514L82.5522 17.4458L83.1843 17.3193Z" fill="#3D517B"/>
<path d="M200.751 17.3193H203.279L205.681 17.5722L207.577 18.0778L208.588 18.4571V18.7099L209.22 18.9628L209.853 19.5949L210.99 21.4911L211.243 22.8817L211.37 23.1345V24.5251L211.243 25.1572L211.37 25.5365L210.99 26.1686L210.358 26.5478H207.83L206.439 26.0421L205.175 25.0308L204.543 24.0195L204.29 22.376L204.037 21.9968L203.911 20.9854L203.152 20.4798L202.773 20.3534H200.498L198.854 20.7326L198.096 21.2383L197.716 21.6175V23.6402L198.349 24.778L199.36 25.6629L201.256 26.9271L205.175 28.9498L207.956 30.4668L209.979 31.9838L210.99 32.9951L211.496 33.6272L211.622 34.6385L211.749 37.799L211.496 39.0632L210.358 40.5802L209.726 41.2123L208.336 42.2236L206.945 42.8557L205.175 43.3614L203.152 43.6142L198.981 43.4878L197.084 42.9821L195.188 42.35L194.177 41.8443L193.924 41.3387L194.177 40.833H195.188L197.716 41.3387L198.854 41.4651H201.509L202.773 41.0858L203.279 40.833L203.532 40.3273L204.164 39.316L204.417 38.8103L204.543 37.6726L204.796 37.1669L204.543 36.6612L204.417 35.6499L203.785 34.8914L200.371 32.9951L198.349 31.9838L196.579 30.9724L194.809 29.7083L193.798 28.8233L192.66 27.4327L192.281 26.295L192.028 25.9157L191.901 24.778L191.648 24.2723V23.261L192.281 21.6175L193.165 20.4798L194.43 19.4684L196.452 18.4571L198.475 17.6986L200.751 17.3193Z" fill="#3D507B"/>
<path d="M176.606 30.2139H177.744L177.997 30.3403L178.123 31.478L177.997 31.7309V32.4894L178.123 32.7422L177.997 36.2819L177.617 37.4197L176.985 38.431L176.227 38.9367L174.71 39.3159H173.446L171.929 38.9367L170.917 37.7989L170.538 36.6612L170.285 36.4083V35.5234L170.664 35.0177L170.917 34.1328L171.929 32.7422L174.457 31.2252L176.606 30.2139Z" fill="#FEFEFE"/>
<path d="M150.564 30.0869H151.576L151.829 30.3397V31.3511L151.576 31.6039L151.449 37.0399L151.07 37.5456L150.691 38.1776L149.932 38.8097L148.668 39.189L148.163 39.3154H147.151L145.508 38.9361L144.496 38.0512L144.37 36.9135L144.117 36.4078V35.5229L144.244 35.1436H144.496V34.1323L145.381 32.8681L147.278 31.6039L150.185 30.2133L150.564 30.0869Z" fill="#FEFEFE"/>
<path d="M74.0818 59.416H74.9667L75.0932 59.5424V72.0578H64.3477V65.7369L64.4741 65.6105V64.2199L64.3477 62.0708V59.9217L64.4741 59.6689L64.8533 59.5424H65.8647L65.9911 59.7953V64.852L66.6232 64.9784L73.0705 64.852L73.5761 64.4727L73.4497 62.1972V60.6802L73.7026 59.6689L74.0818 59.416Z" fill="#2FAE5C"/>
<path d="M93.0447 59.543H95.0674L97.7222 59.6694L99.1128 60.1751L99.7449 60.6807L100.503 62.0713L100.63 63.4619L100.377 64.3468L99.6184 65.2318L98.6071 66.1167L98.7335 66.7488L99.6184 67.8865L100.503 69.2771L102.147 71.5526L102.4 72.0583H92.7919L92.6655 71.4262L92.7919 71.2998V69.0243L92.5391 68.645L92.7919 67.5073V64.3468L92.6655 63.8412L92.7919 63.0827L92.9183 59.6694L93.0447 59.543Z" fill="#2FAE5C"/>
<path d="M214.659 59.543L215.165 59.6694L216.05 61.5657L217.314 63.9676L217.946 65.611L218.199 65.9903L218.325 67.0016L219.336 68.8979L220.095 70.0356L220.853 71.9319V72.0583H208.844L209.097 70.7941L209.982 68.645L210.993 66.6224L211.499 65.2318L212.383 62.9562L212.889 62.3242L213.521 60.9336L213.648 60.0486L213.9 59.6694L214.659 59.543Z" fill="#2FAE5C"/>
<path d="M126.038 59.416L126.923 59.6689L127.176 60.0481L127.302 61.4387L127.681 61.8179L128.566 63.335L129.072 64.4727L129.451 65.3576L129.704 65.6105V66.6218L130.462 67.886L130.842 69.0238L131.474 69.9087L132.232 71.6785V72.0578H120.223L120.855 70.2879L121.613 68.6445L122.625 66.2426L123.636 63.7142L124.647 61.6915H124.9L125.153 60.1745L125.785 59.5424L126.038 59.416Z" fill="#2FAE5C"/>
<path d="M83.6874 59.543H84.4459L85.4572 61.8185L86.4686 63.4619L86.8478 64.4733L87.2271 65.2318L87.4799 65.4846L87.6063 66.7488L88.3648 68.1394L88.4912 68.645L88.7441 69.2771L88.9969 69.7828H89.2497L89.629 70.9206L89.8818 71.2998V72.0583H78.125L78.5043 70.7941L78.8835 69.9092L80.0213 67.3809L80.6534 65.7374L81.159 64.4733L82.1704 62.1977L82.8025 61.4392L83.0553 60.3015L83.4345 59.6694L83.6874 59.543Z" fill="#2FAE5C"/>
<path d="M114.912 63.209L115.797 63.3354L115.924 63.5882V68.0129L115.671 69.9091L115.545 72.0582H106.695V64.3467L107.075 63.5882L107.454 63.3354L108.844 64.4732L110.235 65.8638L110.994 66.7487L111.626 66.4958L112.637 65.6109L113.648 64.3467L114.407 63.4618L114.912 63.209Z" fill="white"/>
<path d="M105.811 59.416L106.443 59.5424L107.075 60.0481L108.213 61.6915L109.098 62.5765L110.109 63.4614L110.741 63.967L111.752 64.0935L112.511 63.4614L113.017 62.7029L113.649 62.1972L114.534 61.1859L115.671 59.7953L116.051 59.5424H117.062L117.188 59.6689L117.315 62.9557L117.568 63.5878V64.3463L117.441 64.4727L117.315 66.4954L117.188 72.0578H115.545V69.9087L115.798 68.0124V63.335H114.913L114.407 63.4614L114.154 63.967L112.89 65.3576L112.005 66.369L111.247 66.8747L110.741 66.6218L108.971 64.7256L107.707 63.5878L107.328 63.4614L106.948 63.967L106.822 64.3463L106.696 72.0578H105.179L105.052 71.5521L105.305 70.6672L105.052 69.9087L105.179 69.6558V68.3917L105.052 67.7596L104.926 65.9897V62.8293L105.052 60.6802L104.926 60.0481L105.431 59.5424L105.811 59.416Z" fill="#2FAE5C"/>
<path d="M53.2209 59.416L56.3813 59.5424L58.404 59.7953L59.6682 60.5538L60.4267 61.5651L60.6795 62.0708V64.2199L60.1738 65.1048L59.1625 65.9897L57.7719 66.6218L54.9907 66.7482L54.1058 67.3803L53.9794 72.0578H52.7152L52.5888 71.8049V67.6332L52.4624 67.1275V64.7256L52.3359 63.8406L52.4624 62.7029L52.5888 61.6915V60.4274L52.4624 59.9217L53.2209 59.416Z" fill="#2FAE5C"/>
<path d="M161.688 59.416H162.573L162.7 59.5424L162.826 67.7596L163.079 68.3917L163.205 69.5294L164.09 70.2879L165.481 70.7936H166.871L168.641 70.2879L169.4 69.7823L169.905 69.1502L170.285 68.2652V67.3803L170.158 67.1275L170.032 65.2312V59.7953L170.664 59.416H171.675L171.928 63.5878L172.054 68.1388L171.675 69.403L170.917 70.5408L169.779 71.5521L169.02 72.0578H163.837L162.447 70.92L161.562 69.9087L161.056 68.7709L160.93 68.1388L161.309 59.7953L161.688 59.416Z" fill="#2FAE5C"/>
<path d="M149.93 59.416L152.079 59.5424L156.883 59.6689V60.933L151.574 61.0594L150.815 61.4387V63.0821L150.942 63.7142L150.815 64.4727L151.195 64.7256V64.9784H155.746L156.504 65.2312V66.2426L155.746 66.6218L151.321 66.7482L150.815 67.1275V67.886L151.195 68.1388V69.403L150.815 70.0351L151.195 70.1615L151.321 70.6672H156.883L157.389 71.2993V71.6785L157.01 72.0578H149.425V66.369L149.172 66.2426L149.298 65.9897L149.425 59.6689L149.93 59.416Z" fill="#2FAE5C"/>
<path d="M139.565 59.416H142.852L144.495 59.9217L145.254 60.4274L145.506 60.6802V61.4387L145.127 61.8179L144.369 61.6915L143.231 61.1859L141.588 60.933L139.818 61.0594L138.427 61.5651L137.289 62.3236L136.404 63.2085L136.152 64.2199L136.025 64.3463V67.2539L136.278 67.5067L136.531 68.6445L137.416 69.6558L139.186 70.5408L140.323 70.7936H141.335L143.484 70.2879L145.001 69.6558H145.506V71.0464L145.001 71.5521L143.989 72.0578H138.427L136.657 70.92L135.393 69.6558L134.635 68.5181L134.129 67.2539V64.4727L134.508 63.7142L134.761 62.9557L135.519 61.8179L136.531 60.8066L137.921 59.9217L139.565 59.416Z" fill="#2FAE5C"/>
<path d="M200.372 59.416H203.659L205.808 60.0481L206.314 60.4274V61.3123L206.187 61.8179L205.429 61.6915L203.532 61.0594H201.004L199.487 61.5651L198.223 62.3236L197.464 63.335L196.959 64.5991L196.832 64.7256V66.6218L197.085 67.0011L197.338 68.2652L197.97 69.2766L198.981 70.0351L200.498 70.6672L202.142 70.7936L204.291 70.4143L205.808 69.7823L206.187 69.6558L206.314 71.0464L205.808 71.5521L204.797 72.0578H199.487L197.97 71.1729L196.453 69.7823L195.695 68.7709L195.315 67.6332L195.062 65.9897V64.5991L195.695 62.9557L196.327 61.8179L197.212 60.933L198.476 60.0481L200.372 59.416Z" fill="#2FAE5C"/>
<path d="M67.2539 66.6221H73.0691L73.7012 67.0013L73.8276 67.8862L73.5748 69.5297L73.4483 72.058H65.8633L65.9897 67.0013L66.4954 66.7485L67.2539 66.6221Z" fill="white"/>
<path d="M236.78 59.29H238.297L239.561 59.6693L240.193 60.0485L240.32 60.8071L240.193 61.5656L238.297 60.9335H236.78L236.148 61.3127L235.769 61.9448V63.0826L236.148 63.8411L237.791 64.8524L239.056 65.7373L240.32 66.8751L240.699 67.3808L240.825 68.6449V70.0355L240.446 70.9205L239.182 72.0582H235.137L234.378 71.5525L233.746 70.794L233.873 70.0355L234.252 69.5299L234.757 69.6563L235.642 70.4148L236.78 70.794L237.918 70.6676L238.803 70.162L239.308 69.5299L239.435 68.6449L239.056 68.0129L238.171 67.1279L236.527 66.1166L235.137 65.1052L234.378 64.2203L233.999 63.209L233.873 62.1976L234.378 60.8071L235.01 60.0485L236.148 59.4165L236.78 59.29Z" fill="#2FAE5C"/>
<path d="M184.57 59.416H185.455L186.34 59.7953L186.466 60.4274L185.834 61.0594L185.455 61.1859L182.547 61.0594L181.41 61.4387V63.5878L181.536 65.8633V72.0578H179.893L179.64 70.5408V63.8406H179.893V62.3236L180.019 61.3123L178.502 61.0594H175.594L174.962 60.5538L174.836 59.9217L175.468 59.5424L184.57 59.416Z" fill="#2FAE5C"/>
<path d="M224.137 59.416L225.149 59.5424L225.402 59.7953L225.275 60.4274L225.149 60.5538V61.9444L225.402 63.2085V69.403L225.149 69.7823L225.275 70.4143L225.781 70.6672H231.09L231.217 71.0464V72.0578H223.379L223.505 71.4257V66.4954L223.632 59.6689L224.137 59.416Z" fill="#2FAE5C"/>
<path d="M124.269 68.3916H128.062L129.199 68.6444L130.337 71.0464L130.716 72.0577H121.867L122.246 70.92L123.131 68.7709L124.269 68.3916Z" fill="white"/>
<path d="M85.4583 68.3916L86.7225 68.518L87.3546 69.0237L87.7338 69.7822L87.9867 70.6671L88.4923 72.0577H79.7695L80.0224 70.92L80.528 69.7822L81.0337 68.7709L81.413 68.518L85.4583 68.3916Z" fill="white"/>
<path d="M215.541 68.3916L217.311 68.518L217.943 69.1501L218.449 70.2879L218.954 71.6785V72.0577H210.484L210.737 70.92L211.243 69.2765L212.001 68.518L215.541 68.3916Z" fill="white"/>
<path d="M94.9382 66.6221H96.5816L97.3401 67.2542L98.6043 69.024L100.121 71.1731L100.374 72.058H94.1797V69.4033L94.4325 68.1391L94.1797 67.3806L94.8118 66.7485L94.9382 66.6221Z" fill="white"/>
<path d="M190.005 59.416H190.763L191.269 59.9217L191.142 60.5538L191.016 60.933V62.3236L191.269 64.852V67.0011L191.142 68.8973V72.0578H189.499L189.246 71.6785V69.403L189.373 65.9897V63.0821L189.246 62.5765V60.8066L189.499 59.7953L190.005 59.416Z" fill="#2FAE5C"/>
<path d="M55.2446 60.9336H56.8881L58.1522 61.3128L58.7843 61.8185L59.0372 62.3242V63.5884L58.6579 64.2205L57.8994 64.8525L56.3824 65.2318H54.9918L54.1069 64.979L53.9805 64.8525V61.5657L54.6126 61.06L55.2446 60.9336Z" fill="white"/>
<path d="M95.6967 60.8066L97.0873 60.9331L98.0986 61.3123L98.7307 61.9444V63.7142L98.0986 64.5992L96.9609 65.1048L95.6967 65.2313L94.3061 64.852L94.1797 64.0935V61.6916L94.6854 61.1859L95.6967 60.8066Z" fill="white"/>
<path d="M214.277 63.209L215.162 63.3354L216.047 64.726L216.553 66.4958L215.921 66.8751H213.14L212.887 66.4958L213.013 65.3581L213.392 64.4732L214.024 63.3354L214.277 63.209Z" fill="white"/>
<path d="M83.6889 63.209L84.5738 63.3354L85.4587 65.1052L85.838 65.9902L85.7116 66.6223L85.3323 66.8751H82.6775L82.1719 66.3694L82.4247 65.6109L83.3096 63.4618L83.6889 63.209Z" fill="white"/>
<path d="M126.164 63.209L126.796 63.5882L127.429 64.5996L127.808 65.6109L128.061 66.3694L127.681 66.7487L127.429 66.8751H124.9L124.521 66.7487L124.395 65.9902L124.774 65.1052L125.027 64.4732L125.532 63.4618L126.164 63.209Z" fill="white"/>
<path d="M54.0397 78.8652V100H52.4492V78.8652H54.0397Z" fill="#3D517B"/>
<path d="M61.3657 78.8652V100H59.7752V78.8652H61.3657Z" fill="#3D517B"/>
<path d="M70.5366 84.8672H83.2786V86.1218H80.9721V95.8585H79.1582V90.5926H75.1049V91.5468C75.1049 92.2006 74.6571 92.5364 73.9629 92.5364C72.8656 92.5364 71.3652 91.2287 71.3652 90.2392C71.3652 89.709 71.7235 89.3379 72.7312 89.3379H79.1582V86.1218H70.5366V84.8672Z" fill="#3D517B"/>
<path d="M79.1736 84.9909C77.9419 81.8454 77.4941 81.3153 75.9713 81.3153C75.3443 81.3153 74.6501 81.439 74.1126 81.598L73.62 80.3434C74.247 80.149 75.0979 80.0253 75.8593 80.0253C78.4794 80.0253 79.2855 81.0325 80.8307 84.9909H79.1736Z" fill="#3D517B"/>
<path d="M85.2198 94.6392L84.2569 93.3669L90.236 91.0343C88.982 89.6207 88.243 89.1435 87.0113 89.1435C86.2052 89.1435 85.287 89.3556 84.1897 89.7974L83.5627 88.4721C84.5928 88.0656 85.7349 87.8006 86.9665 87.8006C88.7356 87.8006 89.8777 88.4014 91.5124 90.2215V86.1218H82.9581V84.8672H95.6329V86.1218H93.3263V95.8585H91.5124V91.9179L85.2198 94.6392Z" fill="#3D517B"/>
<path d="M110.883 96.9895C110.301 96.1236 109.853 95.187 109.562 94.4272C109.159 94.4979 108.733 94.5332 108.173 94.5332C105.531 94.5332 102.799 93.526 102.799 90.999C102.799 88.8608 104.702 87.8182 108.308 87.8182H109.539V86.1218H101.612V84.8672H113.727V86.1218H111.353V89.0552H108.577C105.956 89.0552 104.613 89.6914 104.613 91.0697C104.613 92.4657 106.001 93.2432 108.151 93.2432C108.42 93.2432 108.711 93.2256 109.024 93.1902C108.912 92.9251 108.868 92.6601 108.868 92.4127C108.868 91.7235 109.427 91.2994 110.39 91.2994C111.488 91.2994 112.294 91.9709 112.294 92.6954C112.294 93.2786 111.846 93.7557 111.062 94.0738C111.443 94.816 111.891 95.4874 112.585 96.3887L110.883 96.9895Z" fill="#3D517B"/>
<path d="M117.316 86.1218V95.8585H115.502V86.1218H113.509V84.8672H115.457C114.785 82.4462 113.755 81.2799 112.232 81.2799C110.956 81.2799 110.396 81.8808 110.396 82.8527C110.396 83.5418 110.71 84.231 111.157 84.9909H109.366C108.851 84.1603 108.582 83.3298 108.582 82.5876C108.582 81.0856 109.814 80.0253 111.941 80.0253C114.964 80.0253 116.286 81.7394 117.136 84.8672H119.622V86.1218H117.316Z" fill="#3D517B"/>
<path d="M125.261 93.1902C122.596 93.1902 121.073 92.0239 121.073 89.6737V86.1218H119.304V84.8672H127.119V86.1218H122.887V89.7267C122.887 91.2464 123.715 91.9356 125.216 91.9356C126.425 91.9356 127.567 91.4231 128.284 90.8046L129 91.9709C128.149 92.7131 126.806 93.1902 125.261 93.1902Z" fill="#3D517B"/>
<path d="M136.964 86.1218V95.8585H135.15V90.0624H132.037C130.156 90.0624 129.014 90.5219 129.014 91.7765C129.014 92.9251 129.955 93.8617 131.746 95.2047L130.47 96.1059C128.365 94.4979 127.2 93.1725 127.2 91.5998C127.2 89.6914 128.969 88.8078 131.724 88.8078H135.15V86.1218H126.193V84.8672H139.27V86.1218H136.964Z" fill="#3D517B"/>
<path d="M142.771 86.1218V95.8585H140.957V86.1218H138.964V84.8672H140.912C140.24 82.4462 139.21 81.2799 137.687 81.2799C136.411 81.2799 135.851 81.8808 135.851 82.8527C135.851 83.5418 136.165 84.231 136.613 84.9909H134.821C134.306 84.1603 134.037 83.3298 134.037 82.5876C134.037 81.0856 135.269 80.0253 137.396 80.0253C140.419 80.0253 141.741 81.7394 142.592 84.8672H145.077V86.1218H142.771Z" fill="#3D517B"/>
<path d="M160.328 96.9895C159.746 96.1236 159.298 95.187 159.007 94.4272C158.604 94.4979 158.178 94.5332 157.619 94.5332C154.976 94.5332 152.244 93.526 152.244 90.999C152.244 88.8608 154.148 87.8182 157.753 87.8182H158.985V86.1218H151.057V84.8672H163.172V86.1218H160.799V89.0552H158.022C155.402 89.0552 154.058 89.6914 154.058 91.0697C154.058 92.4657 155.446 93.2432 157.596 93.2432C157.865 93.2432 158.156 93.2256 158.47 93.1902C158.358 92.9251 158.313 92.6601 158.313 92.4127C158.313 91.7235 158.873 91.2994 159.836 91.2994C160.933 91.2994 161.739 91.9709 161.739 92.6954C161.739 93.2786 161.291 93.7557 160.507 94.0738C160.888 94.816 161.336 95.4874 162.03 96.3887L160.328 96.9895Z" fill="#3D517B"/>
<path d="M159.016 84.9909C157.785 81.8454 157.337 81.3153 155.814 81.3153C155.187 81.3153 154.493 81.439 153.955 81.598L153.463 80.3434C154.09 80.149 154.941 80.0253 155.702 80.0253C158.322 80.0253 159.128 81.0325 160.673 84.9909H159.016Z" fill="#3D517B"/>
<path d="M170.411 94.7276C171.463 94.3742 172.023 93.844 172.023 93.2786C172.023 92.501 171.284 91.9356 169.47 91.9356C167.41 91.9356 166.291 92.6601 166.291 93.844C166.291 95.2577 168.216 96.1236 171.531 97.1662L170.635 98.3678C167.142 97.2546 164.499 96.0176 164.499 93.791C164.499 92.8015 164.992 92.0416 165.82 91.5291C165.014 90.9637 164.499 90.3629 164.499 89.603C164.499 88.3307 165.619 87.6415 167.948 87.6415H171.038V86.1218H162.954V84.8672H175.158V86.1218H172.852V88.8962H168.194C166.873 88.8962 166.291 89.1966 166.291 89.8327C166.291 90.2745 166.716 90.7163 167.164 90.9637C167.858 90.7693 168.664 90.6809 169.515 90.6809C172.561 90.6809 173.792 91.8826 173.792 93.2962C173.792 94.2858 173.255 95.0987 171.687 95.7525L170.411 94.7276Z" fill="#3D517B"/>
<path d="M198.683 86.1218H191.405V89.5323C192.032 89.0905 192.928 88.7901 194.025 88.7901C196.152 88.7901 197.406 89.8681 197.406 91.6175C197.406 92.8545 196.847 93.9677 195.525 95.1164L193.958 94.3388C194.943 93.5436 195.615 92.6778 195.615 91.5998C195.615 90.5749 194.966 90.0271 193.823 90.0271C192.883 90.0271 191.965 90.5396 191.405 91.3348V95.8585H189.591V92.8545C188.785 93.4199 187.71 93.7734 186.366 93.7734C184.082 93.7734 182.179 92.7484 182.179 90.7163C182.179 88.7901 183.881 87.6592 186.792 87.6592C187.553 87.6592 188.247 87.7299 188.807 87.8359L188.651 89.1259C188.135 89.0199 187.508 88.9492 186.837 88.9492C185 88.9492 183.993 89.5853 183.993 90.7693C183.993 91.9356 185.023 92.501 186.366 92.501C187.732 92.501 188.919 91.9002 189.591 91.1404V86.1218H181.149V84.8672H198.683V86.1218Z" fill="#3D517B"/>
<path d="M202.144 86.1218V95.8585H200.331V86.1218H198.338V84.8672H204.451V86.1218H202.144Z" fill="#3D517B"/>
<path d="M199.99 82.2165C199.99 81.651 200.55 81.1916 201.222 81.1916C201.893 81.1916 202.453 81.651 202.453 82.2165C202.453 82.782 201.893 83.2414 201.222 83.2414C200.55 83.2414 199.99 82.782 199.99 82.2165Z" fill="#3D517B"/>
<path d="M214.904 86.1218V95.8585H213.09V90.0624H209.977C208.096 90.0624 206.954 90.5219 206.954 91.7765C206.954 92.9251 207.895 93.8617 209.686 95.2047L208.41 96.1059C206.305 94.4979 205.14 93.1725 205.14 91.5998C205.14 89.6914 206.91 88.8078 209.664 88.8078H213.09V86.1218H204.133V84.8672H217.211V86.1218H214.904Z" fill="#3D517B"/>
<path d="M220.711 86.1218V95.8585H218.897V86.1218H216.904V84.8672H218.852C218.181 82.4462 217.15 81.2799 215.628 81.2799C214.351 81.2799 213.791 81.8808 213.791 82.8527C213.791 83.5418 214.105 84.231 214.553 84.9909H212.761C212.246 84.1603 211.977 83.3298 211.977 82.5876C211.977 81.0856 213.209 80.0253 215.337 80.0253C218.36 80.0253 219.681 81.7394 220.532 84.8672H223.018V86.1218H220.711Z" fill="#3D517B"/>
<path d="M233.451 78.8652V100H231.86V78.8652H233.451Z" fill="#3D517B"/>
<path d="M240.777 78.8652V100H239.186V78.8652H240.777Z" fill="#3D517B"/>
</svg>
