<svg width="246" height="100" viewBox="0 0 246 100" fill="none" xmlns="http://www.w3.org/2000/svg">
<path d="M32.533 0L33.3733 0.120048L34.8139 0.720288L36.7347 1.92077L38.4154 3.12125L40.2161 4.32173L42.9772 6.12245L45.6182 7.80312L50.4202 10.6843L53.3013 12.3649L56.3025 14.0456L58.9436 15.4862L62.3049 17.2869L66.2665 19.3277L69.988 21.2485L72.7491 22.569L74.0696 23.2893L75.1501 24.1297L75.8703 25.2101L76.2305 26.2905V73.9496L75.8703 75.03L75.3902 75.6302L74.1897 76.4706L70.9484 78.2713L68.0672 79.952L65.3061 81.5126L62.425 83.1933L59.0636 85.114L55.9424 86.9148L52.581 88.8355L49.3397 90.7563L46.5786 92.3169L43.6975 93.9976L37.455 97.599L34.5738 99.2797L33.0132 100H32.533L32.413 87.0348L31.4526 86.6747L29.5318 85.7143L26.1705 83.7935L23.8896 82.3529L23.2893 81.8727L22.9292 81.2725L22.8091 80.5522V68.4274L24.4898 69.2677L27.3709 70.9484L30.4922 72.7491L32.1729 73.7095L32.533 73.8295L32.413 61.3445L31.2125 61.1044L27.2509 58.4634L25.5702 57.383L22.8091 55.5822L12.485 55.7023L11.8848 56.3025L11.7647 56.5426L11.6447 75.1501L11.0444 74.91L7.80312 73.1092L4.92197 71.4286L2.28091 69.8679L0.960384 69.0276L0.360144 68.5474L0 67.587V32.533L0.60024 31.3325L1.44058 30.4922L3.2413 29.4118L6.12245 27.8511L8.88355 26.2905L12.1248 24.4898L14.1657 23.2893L17.527 21.3685L20.5282 19.5678L23.6495 17.7671L27.0108 15.7263L29.6519 14.1657L31.2125 13.5654L32.413 13.3253L32.533 0ZM32.533 13.5654V20.1681L31.0924 20.7683L28.4514 22.3289L24.97 24.3697L19.2077 27.7311L13.6855 30.8523L8.52341 33.7335L7.56302 34.5738L7.20288 35.5342V43.0972L17.8872 42.9772L19.8079 42.8571L22.6891 41.1765L25.8103 39.3757L27.0108 38.6555V50.4202L27.3709 51.0204L27.9712 51.3806L32.533 51.5006V61.2245L33.2533 60.9844L36.6146 58.9436L40.2161 56.7827L41.7767 55.8223L42.3769 55.5822H52.461L53.0612 55.8223L53.4214 56.1825L53.5414 56.5426L53.4214 71.9088V74.91L54.8619 74.1897L57.7431 72.509L59.904 71.3085L62.6651 69.6278L63.8655 68.5474L64.4658 67.467L64.5858 66.7467L64.7059 32.8932L64.3457 31.6927L63.5054 30.7323L62.425 30.012L59.6639 28.4514L57.1429 27.0108L47.7791 21.6086L42.0168 18.2473L35.6543 14.5258L34.2137 13.8055L33.2533 13.5654H32.533ZM41.5366 68.7875L38.1753 70.5882L35.4142 72.1489L33.0132 73.4694L32.533 73.8295V86.7947L33.2533 86.6747L35.5342 85.4742L38.8956 83.4334L40.9364 82.1128L41.5366 81.3926L41.6567 80.9124V68.7875H41.5366Z" fill="#9C1E68"/>
<path d="M32.7753 20.168L34.0958 20.5281L36.6168 21.9687L43.5796 26.0503L46.7008 27.851L50.0622 29.7718L56.0646 33.1332L57.5051 33.9735L58.1054 34.6938L58.4655 35.7742V43.0971H45.8605L44.54 42.3769L41.7789 40.8162L38.5376 38.8955L38.6576 39.6157L38.5376 50.7802L38.0574 51.3805L37.8173 51.5005H32.7753L32.6552 51.3805L32.5352 49.5797V20.4081L32.7753 20.168Z" fill="#9C1E68"/>
<path d="M179.474 34.5742L179.954 34.6943L181.875 38.2957L183.436 41.0568L185.476 44.8983L186.557 46.8191L187.037 47.6595L187.397 47.1793L189.198 43.938L190.879 40.9368L192.679 37.6955L194.12 35.1745L194.24 35.0544H198.682L198.802 35.1745V54.022H194.24L194.12 43.6979L192.439 46.6991L189.438 52.1012L188.598 53.4218L188.478 53.5418H185.597L184.876 52.5814L183.196 49.7003L181.395 46.579L179.954 44.058L179.834 54.022L175.753 54.142L175.272 54.022L175.152 35.8947L175.873 35.5346L179.474 34.5742Z" fill="#5B5B5F"/>
<path d="M230.971 34.5742L231.571 34.6943L232.652 36.1348L234.213 38.0556L236.854 41.417L238.414 43.3377L239.255 44.4182L240.695 46.2189L241.055 46.6991L241.175 35.0544H245.617L245.857 35.2945V54.022L242.016 54.142L241.055 54.022L239.495 52.1012L238.294 50.5406L235.893 47.5394L233.252 44.1781L231.812 42.3773L231.331 41.8971V54.022H226.77V35.7747L229.651 34.9344L230.971 34.5742Z" fill="#5B5B5F"/>
<path d="M116.447 35.0537H125.57L125.33 36.1341L124.49 38.8952L124.37 39.1353L111.885 39.2554L111.765 42.4967H122.809L123.53 42.6167V46.5783L111.885 46.6984V49.8196L125.57 49.9397L125.33 51.0201L124.49 53.9012L124.37 54.0213L107.683 54.1413L107.203 54.0213V35.1738L116.447 35.0537Z" fill="#5B5B5F"/>
<path d="M155.581 34.5742L156.061 34.6943V43.0976L165.665 42.9776L165.785 35.1745L165.905 35.0544H170.226L170.346 35.1745V54.022L165.905 54.142L165.785 54.022L165.665 47.1793H157.141L156.061 47.0592V54.022L151.859 54.142L151.379 54.022V35.7747L153.9 35.0544L155.581 34.5742Z" fill="#5B5B5F"/>
<path d="M214.646 34.5742L215.126 34.8143L217.047 38.7759L218.487 41.7771L220.048 45.0184L221.608 48.3797L222.929 51.0208L224.249 53.7819V54.022H219.328L218.247 51.621L209.484 51.501L209.604 50.9007L210.924 47.7795L211.044 47.6595H216.326L215.486 45.9788L214.526 43.8179L212.725 40.2165L212.485 40.5766L210.324 45.2585L208.643 48.8599L207.203 51.9812L206.242 54.022H201.32L201.56 53.4218L203.841 48.7399L204.802 46.9392L207.443 41.417L208.403 39.6162L209.724 36.8551L210.324 35.8947L211.044 35.5346L214.646 34.5742Z" fill="#5B5B5F"/>
<path d="M135.052 35.0537H148.257L148.017 36.2542L147.176 38.8952L147.056 39.1353L136.372 39.2554L135.292 39.4955L134.091 40.5759L133.371 42.1365L133.011 43.8172V45.4979L133.371 47.2986L134.091 48.6191L135.052 49.4595L136.012 49.8196L148.257 49.9397L148.017 51.1401L147.176 53.9012L147.056 54.0213H134.811L133.371 53.6612L131.93 52.9409L130.73 51.8604L129.769 50.78L128.809 48.8592L128.329 47.4187L128.089 46.0981L127.969 44.0573L128.209 42.0165L128.689 40.2158L129.529 38.5351L130.49 37.3346L131.69 36.2542L133.371 35.4139L135.052 35.0537Z" fill="#5B5B5F"/>
<path d="M84.2724 35.0537H103.84L103.96 35.4139L102.88 38.8952L102.76 39.1353H95.677V54.0213H91.1151L90.9951 39.2554L84.1523 39.1353V35.1738L84.2724 35.0537Z" fill="#5B5B5F"/>
<path d="M22.8086 68.4277L24.4893 69.2681L27.3704 70.9487L30.4917 72.7495L32.1723 73.7098L32.5325 73.8299L32.6525 74.19V86.3149L32.5325 86.7951H31.6921L29.7714 85.8347L27.6105 84.6342L24.6093 82.8335L23.2888 81.8731L22.9286 81.2729L22.8086 80.5526V68.4277Z" fill="#9C1E68"/>
<path d="M201.68 59.7842H203L203.48 60.8646L205.401 65.4264V61.4649L205.521 59.7842H206.482L206.602 59.9042V67.2272L206.362 67.4673L205.161 67.3472L204.081 64.8262L202.76 61.7049L202.64 67.3472L202.52 67.4673H201.8L201.68 67.2272V59.7842Z" fill="#9C1E68"/>
<path d="M189.435 59.6641H190.996L191.956 60.1443L192.557 60.8645L192.917 61.7049L193.037 62.3051V64.7061L192.797 65.7865L192.196 66.7469L191.476 67.3471L191.116 67.4672H189.315L188.355 66.987L187.635 65.7865L187.395 64.7061V62.4252L187.875 60.8645L188.595 60.0242L189.435 59.6641ZM189.916 60.5044L189.195 60.8645L188.715 61.5848L188.475 62.3051V64.9462L188.955 66.0266L189.555 66.5068L189.795 66.6268H190.756L191.356 66.2667L191.836 65.3063L191.956 64.8261V62.3051L191.476 61.2247L190.876 60.6244L189.916 60.5044Z" fill="#9C1E68"/>
<path d="M121.01 59.6641H122.57L123.531 60.0242L124.251 60.9846L124.611 62.065V65.0662L124.251 66.1467L123.771 66.8669L123.05 67.3471L122.69 67.4672H120.89L120.169 67.107L119.569 66.3868L119.089 65.1863L118.969 64.2259V62.9054L119.329 61.2247L120.049 60.1443L121.01 59.6641ZM121.61 60.5044L120.89 60.8645L120.409 61.4648L120.049 62.7853V64.7061L120.529 66.0266L121.13 66.5068L121.49 66.6268H122.33L123.05 66.1467L123.531 65.1863L123.651 64.3459V62.9054L123.411 61.7049L122.93 60.9846L122.45 60.6244L121.61 60.5044Z" fill="#9C1E68"/>
<path d="M146.82 59.7842H147.901L148.021 65.7866L148.261 66.2668L148.861 66.5069H149.701L150.422 66.2668L150.662 65.3064L150.782 59.7842H151.742V65.9066L151.262 66.867L150.542 67.3472L150.182 67.4673H148.381L147.421 66.9871L147.06 66.5069L146.82 65.1863V59.7842Z" fill="#9C1E68"/>
<path d="M107.201 59.6641H108.882L109.842 60.0242L110.563 60.5044L110.322 61.1046L109.842 61.2247L108.762 60.7445L107.922 60.6244L107.321 60.8645L107.081 61.1046V62.1851L108.162 62.9054L109.722 63.7457L110.443 64.586L110.563 64.8261V66.1467L110.082 66.8669L109.482 67.3471L109.002 67.4672H106.481L105.641 67.2271V66.2667L106.001 66.1467L107.441 66.5068H108.642L109.242 66.1467L109.362 65.0662L108.882 64.586L106.601 63.3856L106.001 62.6653L105.761 61.945L105.881 60.7445L106.601 59.9042L107.201 59.6641Z" fill="#9C1E68"/>
<path d="M216.807 59.6641H218.607L219.808 60.2643L220.168 60.7445L219.808 61.2247L219.088 61.1046L218.367 60.7445L217.407 60.6244L216.807 60.9846L216.567 61.4648L216.687 62.1851L217.767 62.9054L219.328 63.7457L220.048 64.586L220.168 64.9462V66.0266L219.808 66.7469L219.208 67.2271L218.607 67.4672H216.086L215.246 67.107V66.2667L215.486 66.1467L216.927 66.5068H218.247L218.727 66.2667L218.968 65.7865V65.0662L218.487 64.586L216.206 63.3856L215.486 62.5452L215.366 62.065V61.2247L215.726 60.3844L216.447 59.7841L216.807 59.6641Z" fill="#9C1E68"/>
<path d="M174.55 59.7842H179.112V60.5045L178.992 60.6245H177.191V66.5069H178.992L179.112 66.6269V67.3472H174.43V66.5069H176.23V60.6245H174.43V59.9042L174.55 59.7842Z" fill="#9C1E68"/>
<path d="M32.7753 20.168L34.0958 20.5281L34.576 20.7682V21.0083L33.9757 21.1284L33.6156 21.4885L33.1354 21.3684L33.0153 21.7286L32.8953 22.689L33.0153 39.3757V45.4981L32.8953 47.779V49.2196L33.2554 51.0203L33.6156 51.1404V51.2604L37.8173 51.3805V51.5005H32.7753L32.6552 51.3805L32.5352 49.5797V20.4081L32.7753 20.168Z" fill="#9C1E68"/>
<path d="M160.386 59.7842H165.908V60.5045L165.788 60.6245H163.627V65.9066L163.507 67.4673H162.787L162.667 67.3472L162.547 63.0255V60.7446L160.386 60.6245L160.266 59.9042L160.386 59.7842Z" fill="#9C1E68"/>
<path d="M133.375 59.7842H134.335V66.5069H138.297L138.417 66.9871L138.297 67.3472L136.736 67.4673H133.495L133.375 67.3472V59.7842Z" fill="#9C1E68"/>
<path d="M205.522 59.7842H206.483L206.603 59.9042V67.2272L206.363 67.4673H206.003V65.9066L205.642 65.0663L205.402 64.4661V61.4649L205.522 59.7842Z" fill="#9C1E68"/>
<path d="M150.781 59.7842H151.742V65.0663L151.502 65.9066L151.021 65.7866L150.781 65.3064V59.7842Z" fill="#9C1E68"/>
<path d="M202.28 63.2656L202.4 63.5057H202.64V67.3473L202.52 67.4673H201.8L201.68 67.2272V63.8659H201.92L202.04 63.5057L202.28 63.2656Z" fill="#9C1E68"/>
<path d="M163.264 62.665L163.504 62.7851V67.467H162.784L162.664 67.3469V63.9856L162.904 63.1452H163.144L163.264 62.665Z" fill="#9C1E68"/>
<path d="M205.522 59.7842H206.483L206.603 59.9042V66.5069H206.483V61.4649H206.243L206.003 61.945L205.642 62.3052L205.522 64.4661H205.402V61.4649L205.522 59.7842Z" fill="#9C1E68"/>
<path d="M42.6161 18.3682L43.5765 18.7283V18.9684L44.1768 19.2085L45.0171 19.6887V19.9288L45.6173 20.0488L46.4577 20.529V20.7691L47.0579 21.0092L48.3784 21.6095L48.6185 21.7295V21.9696L49.2188 22.2097L49.819 22.5698L49.699 22.8099L46.3376 20.8892L43.0963 18.9684L42.4961 18.6083L42.6161 18.3682Z" fill="#9C1E68"/>
<path d="M32.7753 20.168L34.0958 20.5281L34.576 20.7682V21.0083L33.9757 21.1284L33.6156 21.4885L33.1354 21.3684L32.8953 22.0887H32.6552L32.5352 20.4081L32.7753 20.168Z" fill="#9C1E68"/>
<path d="M32.6523 49.2197H32.8924L33.2526 51.0204L33.6127 51.1405V51.2605L37.8144 51.3806V51.5006H32.7724L32.6523 51.3806V49.2197Z" fill="#9C1E68"/>
<path d="M37.8154 15.6064L38.7757 15.9666V16.2067L39.376 16.4468L40.3364 17.047L40.9366 17.2871L42.017 18.0074L42.4972 18.4876L41.7769 18.2475L38.7757 16.4468L37.6953 15.8465L37.8154 15.6064Z" fill="#9C1E68"/>
<path d="M201.801 60.2637H201.921V62.7847L202.641 62.6646V63.505L202.281 63.3849L201.801 63.8651V60.2637Z" fill="#9C1E68"/>
<path d="M124.49 63.8652H124.61V65.0657L124.37 65.9061L124.01 66.0261L123.77 65.786L124.01 65.1858L124.13 64.5855L124.49 63.8652Z" fill="#9C1E68"/>
<path d="M150.781 64.3457L151.141 64.8259L151.502 64.5858V64.8259H151.742L151.622 65.7863L151.381 65.9063L151.021 65.7863L150.781 65.3061V64.3457Z" fill="#9C1E68"/>
<path d="M32.5352 72.2686L33.0153 72.7487V72.9888L33.4955 72.8688L33.6156 73.2289L32.5352 73.8292V72.2686Z" fill="#9C1E68"/>
<path d="M43.9365 41.7764L45.377 42.4967L45.7372 42.6167H46.4575V42.9768L45.8572 43.0969L44.5367 42.3766L43.8164 42.0165L43.9365 41.7764Z" fill="#9C1E68"/>
<path d="M42.6161 18.3682L43.5765 18.7283V18.9684L44.1768 19.2085L44.777 19.6887L44.657 19.9288L42.8562 18.8484L42.4961 18.4882L42.6161 18.3682Z" fill="#9C1E68"/>
<path d="M47.418 21.249L48.2583 21.4891L48.6184 21.7292V21.9693L49.2187 22.2094L49.8189 22.5696L49.6989 22.8096L47.418 21.4891V21.249Z" fill="#9C1E68"/>
<path d="M219.686 64.3457H219.927L220.047 64.5858V65.7863L219.927 65.4261L219.686 65.3061L219.566 65.066L219.686 64.3457Z" fill="#9C1E68"/>
<path d="M41.6562 40.457L42.6166 40.8172V41.0573L43.0968 41.2974L42.8567 41.4174L41.6562 40.6971V40.457Z" fill="#9C1E68"/>
</svg>
