<svg width="203" height="100" viewBox="0 0 203 100" fill="none" xmlns="http://www.w3.org/2000/svg">
<path d="M51.8744 0H54.2047L57.7508 0.202634L61.1955 0.607903L64.539 1.21581L67.4772 1.92503L71.1246 3.03951L73.9615 4.154L76.6971 5.36981L79.0274 6.58561L81.155 7.80142L82.0669 8.40932L81.8642 8.51064L79.3313 7.0922L77.7102 6.28166L75.3799 5.16717L72.6444 4.05268L68.5917 2.73556L65.8561 2.02634L62.2087 1.31712L59.1692 0.911854L56.9402 0.70922L52.4823 0.607903L49.0375 0.810537L45.8967 1.11449L41.9453 1.82371L39.4124 2.43161L36.3728 3.34347L34.3465 4.05268L31.6109 5.16717L29.7872 5.97771L27.8622 6.99088L25.228 8.51064L23.4043 9.72644L21.3779 11.1449L19.9595 12.2594L18.541 13.4752L17.2239 14.691L16.4134 15.4002L14.8936 16.92L14.1844 17.7305L12.6646 19.3516L11.3475 21.074L10.4357 22.2898L8.91591 24.5187L7.19352 27.4569L5.67376 30.3951L4.35664 33.536L3.14083 37.1834L2.33029 40.2229L1.62107 43.8703L1.21581 47.8217L1.11449 49.3414V53.5968L1.41844 57.0415L1.82371 59.9797L2.53293 63.3232L3.24215 65.8561L4.25532 68.8956L5.47112 71.7325L6.4843 73.8602L7.80142 76.1905L9.21986 78.4195L10.4357 80.1418L11.3475 81.3577L12.6646 82.8774L13.5765 83.8906L14.2857 84.7011L16.0081 86.4235L16.8186 87.1327L18.0344 88.2472L20.0608 89.767L21.8845 91.0841L23.2016 91.8946L25.3293 93.1104L26.9504 94.0223L29.8886 95.3394L32.5228 96.3526L35.7649 97.2644L38.7031 97.8723L41.54 98.2776L43.8703 98.4802H49.7467L52.5836 98.1763L55.4205 97.6697L59.0679 96.7579L62.1074 95.7447L64.7416 94.6302L67.1733 93.4144L69.9088 91.7933L71.8338 90.4762L73.151 89.463L74.4681 88.3485L75.4813 87.4367L76.6971 86.3222L77.8116 85.2077L78.7234 84.0932L79.9392 82.6748L81.3577 80.7497L82.4721 79.0274L83.4853 77.305L84.5998 75.1773L85.8156 72.3404L86.8288 69.3009L87.4367 66.8693L88.0446 63.0192L88.2472 60.0811V57.0415L87.9433 53.5968L87.4367 50.5572L86.6261 47.4164L85.613 44.4782L84.2958 41.54L82.9787 39.1084L81.8642 37.386L80.5471 35.5623L79.23 33.9412L78.0142 32.6241L76.3931 31.003L75.2786 30.0912L73.7589 28.8754L71.9352 27.6596L69.9088 26.4438L67.2746 25.1266L64.9443 24.2148L62.5127 23.4043L58.8652 22.5937L56.231 22.2898H51.3678L48.6322 22.5937L45.2888 23.3029L42.9585 24.0122L40.4255 25.0253L38.0952 26.1398L36.3728 27.153L34.7518 28.2675L33.0294 29.5846L31.9149 30.5978L31.1044 31.307L30.2938 32.1175L29.5846 32.9281L28.7741 33.8399L27.4569 35.6636L26.2411 37.5887L24.924 40.1216L24.1135 42.1479L23.3029 44.6809L22.695 47.3151L22.2898 50.5572V51.8744L22.5937 56.1297L22.999 58.156L23.6069 60.5876L24.2148 62.31L25.5319 65.1469L26.4438 66.768L27.6596 68.4904L28.5714 69.7062L29.7872 71.0233L31.4083 72.6444L32.5228 73.5562L34.3465 74.8734L35.8663 75.8865L38.1966 77.1023L40.5268 78.2168L47.8217 80.6484L48.5309 81.0537L48.4296 81.459L47.619 81.9656L46.5046 82.3708L43.9716 82.8774L42.6545 83.08H40.8308L38.8045 82.9787L35.9676 82.3708L33.9412 81.7629L31.2057 80.6484L29.5846 79.8379L27.0517 78.3181L25.8359 77.4063L24.4174 76.2918L23.3029 75.3799L21.6819 73.8602L20.9726 73.151L20.2634 72.3404L19.1489 71.0233L17.6292 68.997L16.7173 67.4772L15.7042 65.6535L14.7923 63.7285L13.7791 61.0942L12.9686 58.46L12.3607 55.6231L11.9554 52.8875L11.7528 49.7467V47.619L11.9554 44.7822L12.3607 41.9453L12.9686 39.2097L13.9818 35.9676L14.8936 33.7386L16.2107 30.9017L17.3252 28.8754L18.541 26.9504L19.4529 25.6332L20.4661 24.3161L21.7832 22.695L22.999 21.3779L25.9372 18.4397L27.0517 17.5279L28.2675 16.5147L30.1925 15.0963L32.8267 13.4752L34.3465 12.5633L36.3728 11.5502L36.5755 11.6515L34.2452 12.9686L32.7254 13.7791L29.078 16.4134L27.6596 17.5279L26.3425 18.7437L24.8227 20.1621L23.7082 21.3779L22.8977 22.1884L21.9858 23.3029L19.3516 26.9504L18.1358 28.8754L16.8186 31.307L15.7042 33.8399L14.691 36.6768L13.9818 39.311L13.3739 42.6545L13.1712 45.0861V48.5309L13.3739 50.9625L13.9818 54.306L14.4883 56.0284L15.4002 58.156L16.2107 59.7771L16.8186 60.7903L17.2239 61.0942H17.5279L17.8318 60.2837L18.0344 57.4468L18.2371 52.8875L18.4397 50.7599L18.9463 47.5177L19.6555 44.5795L20.77 41.2361L21.9858 38.6018L22.999 36.6768L24.4174 34.4478L25.7345 32.7254L26.6464 31.6109L28.0648 30.0912L29.5846 28.5714L30.6991 27.6596L32.2188 26.4438L34.0426 25.228L36.0689 24.0122L38.7031 22.695L41.0334 21.7832L43.2624 21.074L45.7953 20.4661L49.1388 19.9595L50.2533 19.8582H55.4205L58.156 20.1621L61.2969 20.77L63.8298 21.4792L66.464 22.3911L69.4022 23.7082L71.7325 25.0253L72.9483 25.7345L74.3668 26.7477L75.4813 27.5583L76.4944 28.3688L77.9129 29.5846L79.23 30.8004L80.2432 31.8136L81.155 32.9281L81.9656 33.8399L83.2827 35.6636L84.3972 37.386L85.613 39.5137L86.4235 41.1348L87.1327 42.6545L88.1459 45.2888L89.2604 49.0375L89.8683 52.5836L90.1722 55.8257V60.7903L89.767 64.3364L89.2604 66.9706L88.4498 70.0101L87.4367 72.9483L86.4235 75.2786L85.5117 77.2036L84.3972 79.1287L83.1814 81.0537L81.8642 82.8774L80.7497 84.2958L79.5339 85.7143L77.9129 87.4367L76.6971 88.6525L75.8865 89.3617L74.8734 90.2736L72.847 91.7933L71.1246 93.0091L69.6049 93.921L67.1733 95.2381L64.843 96.3526L61.7021 97.5684L59.0679 98.3789L56.1297 99.0881L53.1915 99.5947L50.3546 99.8987L48.8349 100H44.6809L42.0466 99.7974L38.1966 99.1895L35.157 98.4802L33.0294 97.8723L29.9899 96.7579L27.4569 95.6434L24.4174 94.1236L22.0871 92.7052L20.8713 91.8946L19.0476 90.5775L17.4265 89.2604L16.3121 88.3485L15.4002 87.4367L14.5897 86.7275L12.766 84.9037L12.0567 84.0932L10.7396 82.5735L9.42249 80.8511L8.20669 79.1287L6.99088 77.305L5.67376 74.9747L4.66059 73.0496L3.5461 70.5167L2.43161 67.4772L1.62107 64.7416L0.911854 61.7021L0.303951 57.9534L0 54.2047V49.3414L0.202634 46.4032L0.607903 43.465L1.21581 40.4255L1.92503 37.69L3.14083 34.0426L4.35664 31.1044L5.47112 28.7741L6.68693 26.5451L7.59878 25.0253L8.81459 23.1003L10.233 21.1753L11.4488 19.5542L12.3607 18.541L13.2725 17.4265L14.8936 15.7042L16.616 13.9818L17.4265 13.2725L18.7437 12.1581L20.0608 11.1449L21.5805 10.0304L24.0122 8.40932L26.0385 7.19352L27.8622 6.18034L29.4833 5.36981L32.1175 4.154L35.0557 3.03951L37.8926 2.12766L41.54 1.21581L44.2756 0.70922L47.2138 0.303951L49.6454 0.101317L51.8744 0Z" fill="#F57E23"/>
<path d="M188.347 32.0166H193.514L193.21 32.9285L191.285 38.5009L189.968 42.1483L189.259 44.0733L190.576 43.0602L191.994 41.8444L193.717 40.5272L195.135 39.7167L196.655 39.3114H197.77L198.377 39.6154L198.783 40.122V41.3378L198.175 43.3641L197.162 46.201L196.756 47.1129H202.531L202.734 47.2142L202.531 47.7208L201.417 48.8352L200.201 49.2405L199.593 49.3418L197.77 49.4431H193.818L192.4 49.3418L191.69 48.9366L191.488 48.43L191.589 47.5181L192.197 45.3905L192.602 44.276L191.387 45.1878L189.968 46.4036L189.056 47.1129L187.334 48.5313L186.118 49.2405L185.713 49.3418L182.268 49.4431L182.167 49.0379L182.673 47.8221L181.863 48.8352L181.255 49.0379V49.2405L180.748 49.3418L178.722 49.4431H175.074L173.251 49.3418L172.238 49.0379L171.731 48.5313L171.528 48.0247L171.123 48.2273L170.617 48.8352L169.603 49.3418L168.388 49.6458H166.969L165.855 49.2405L165.044 48.6326L164.335 47.6194L163.727 48.5313L163.22 48.9366L162.612 49.2405L162.005 49.3418L159.877 49.4431H156.23L154.912 49.3418L154.001 48.8352L153.494 48.2273L153.393 47.5181L154.001 45.1878L154.102 44.276L152.987 45.2891L151.873 46.201L150.454 47.4168L148.833 48.6326L147.82 49.2405L146.908 49.5445H145.794L144.882 49.2405L144.477 48.7339L144.375 48.2273L144.882 46.3023L145.591 44.3773L144.882 44.7826L143.869 45.6944L142.754 46.6063L141.437 47.7208L139.917 48.9366L138.904 49.3418H135.257L135.561 48.43L135.662 48.0247L134.852 48.9366L133.838 49.3418L131.812 49.4431H128.874L126.442 49.3418L125.328 49.0379L124.923 48.5313L124.821 47.9234L123.808 48.7339L123.099 49.2405L121.478 49.6458H120.161L119.147 49.3418L118.337 48.7339L117.729 48.0247L117.324 47.2142L117.121 46.3023V45.1878L117.526 43.6681L118.134 42.5536L119.046 41.5404L120.059 40.8312L121.68 40.0207L123.605 39.7167L125.632 39.6154H132.825L132.521 40.6286L130.799 45.5931L130.191 47.1129L136.067 47.0115L137.587 42.6549L138.6 39.818L138.702 39.6154H143.767L143.869 39.9193L143.464 41.0338L142.754 43.0602L142.349 44.0733L143.666 43.0602L144.983 41.9457L145.996 41.1351L147.415 40.122L148.631 39.5141L149.441 39.3114H151.062L151.873 39.7167L152.076 40.122V41.0338L151.569 42.6549L151.062 43.972L151.67 43.5668L152.683 42.6549L154.102 41.5404L155.419 40.4259L156.837 39.6154L157.851 39.3114H159.269L159.978 39.6154L160.485 40.2233L160.586 41.0338L160.181 42.5536L159.066 45.6944L158.458 47.1129H164.234L164.031 46.4036V45.0865L164.436 43.5668L165.044 42.4523L165.753 41.6417L167.07 40.7299L168.59 40.0207L170.313 39.7167L172.136 39.6154H179.735L179.431 40.6286L177.506 45.9984L177 47.1129H182.977L183.281 46.0997L185.004 41.1351L186.625 36.5759L188.144 32.3206L188.347 32.0166ZM126.138 41.8444L123.707 41.9457L123.301 42.8575L122.592 45.3905V46.3023L122.896 46.6063L124.011 47.0115L125.024 47.1129L125.632 45.4918L126.746 42.3509V41.8444H126.138ZM173.048 41.8444L170.515 41.9457L169.806 44.0733L169.401 45.6944L169.502 46.4036L170.515 46.9102L171.427 47.1129L171.934 47.0115L172.643 45.0865L173.656 42.047L173.555 41.8444H173.048Z" fill="#008A4A"/>
<path d="M118.948 28.6729L120.468 28.8755L121.481 29.3821L122.089 29.8887L122.697 30.8005L123.001 31.8137V32.5229L122.595 33.6374L121.987 34.4479L121.278 35.0558L120.265 35.4611L119.758 35.5624H118.543L117.225 35.1571L116.415 34.7519L116.111 35.8664L114.591 40.223L113.274 43.8704L111.856 47.7205L111.045 49.1389L110.539 49.5442L109.525 49.8481H108.614L107.702 49.4429L107.195 48.9363L106.891 48.531L106.385 46.7073L104.763 39.0072L104.257 36.8795L104.054 37.2848L102.231 42.8572L101.217 45.8968L100.407 47.4165L99.3937 48.4297L98.1779 49.0376L96.8607 49.3415L93.2133 49.4429H89.6672L89.3633 49.2402L89.5659 48.7336L90.3765 47.2139L90.883 46.606L91.7949 45.9981H93.0107L96.1515 46.4033H96.9621L97.9752 45.8968L98.6845 44.681L99.6976 41.8441L101.319 37.0822L102.838 32.7255L103.548 30.9018L104.257 29.5847L104.865 29.0781L105.371 28.8755L106.385 28.7742L107.296 28.9768L107.904 29.3821L108.512 30.0913L109.019 31.4084L109.728 34.6506L110.843 40.223L111.146 41.4388H111.349L111.552 40.3243L112.768 36.7782L114.085 33.2321L115.098 31.1045L116.01 29.99L116.922 29.2808L117.833 28.8755L118.948 28.6729Z" fill="#008A4A"/>
<path d="M159.473 55.8262L160.993 55.9275L162.108 56.3328L162.918 56.9407L163.425 57.6499L163.729 58.5617L163.83 59.5749V65.6539L163.627 65.7552H161.702L161.398 65.6539L161.5 64.9447L161.601 64.7421L159.777 65.6539L159.169 65.7552H157.548L156.333 65.4513L155.421 64.6408L155.015 63.7289L154.914 63.425V62.0065L155.421 60.9933L156.13 60.3854L156.839 60.0815L158.359 59.8789L161.297 59.7775L161.196 58.8657L160.79 58.2578L160.183 57.9538L159.068 57.8525L157.852 58.0551L156.738 58.4604L156.231 58.6631L155.927 58.2578L155.421 57.2446L155.927 56.738L157.346 56.1301L159.473 55.8262ZM159.575 61.3986L157.751 61.6012L157.244 62.0065L157.143 62.8171L157.447 63.5263L158.055 63.9315L158.967 64.0329L160.183 63.7289L161.094 63.121L161.5 62.3105V61.6012L160.487 61.3986H159.575Z" fill="#52B501"/>
<path d="M183.687 55.8262L185.106 55.9275L186.423 56.3328L187.436 57.042L188.145 57.7512L188.854 59.1696L189.057 60.1828V61.3986L188.854 62.5131L188.246 63.7289L187.335 64.7421L186.423 65.35L185.511 65.6539L184.903 65.7552H182.674L181.458 65.4513L180.445 64.8434L179.533 63.8302L178.925 62.6144L178.723 61.8039V59.7775L179.128 58.5617L179.736 57.5486L180.648 56.738L181.863 56.1301L182.674 55.9275L183.687 55.8262ZM183.181 57.9538L182.37 58.2578L181.661 58.8657L181.256 59.6762L181.053 60.5881V61.2973L181.357 62.3105L181.965 63.2223L182.978 63.7289L183.383 63.8302H184.396L185.41 63.425L185.916 63.0197L186.321 62.4118L186.625 61.0947L186.524 59.8789L186.017 58.8657L185.207 58.1565L184.599 57.9538H183.181Z" fill="#52B501"/>
<path d="M114.895 55.8262L116.313 55.9275L117.631 56.3328L118.542 57.042L119.15 57.7512L119.657 58.967L119.961 60.4868V61.4999L119.86 61.6012L118.948 61.7026H112.565L113.173 62.7157L113.679 63.3236L114.388 63.7289L114.895 63.8302H115.706L116.719 63.6276L117.631 63.121L117.833 62.9184L118.441 63.0197L119.252 64.0329L119.049 64.4381L117.934 65.2487L116.617 65.6539L115.908 65.7552H114.186L112.97 65.4513L112.058 64.9447L111.146 64.0329L110.437 62.6144L110.234 61.9052V59.8789L110.64 58.5617L111.349 57.4472L112.261 56.6367L113.274 56.1301L113.983 55.9275L114.895 55.8262ZM114.49 57.7512L113.477 58.2578L112.869 59.0683L112.565 59.9802L112.666 60.0815H116.82L117.833 59.9802L117.529 59.0683L117.124 58.4604L116.516 57.9538L116.009 57.7512H114.49Z" fill="#52B501"/>
<path d="M191.183 55.9268H193.514L193.615 56.332L193.514 57.4465L194.527 56.636L195.54 56.1294L196.351 55.9268H198.073L199.187 56.332L199.795 56.8386L200.403 57.7505L200.707 58.7636L200.808 59.7768V64.0321L200.707 65.6532L200.606 65.7545H198.579L198.276 65.4506V60.1821L198.073 59.3715L197.566 58.561L196.958 58.2571L195.844 58.1557L194.932 58.4597L194.122 59.1689L193.716 60.1821L193.514 65.6532L193.412 65.7545H191.386L191.082 65.4506L191.183 55.9268Z" fill="#52B501"/>
<path d="M145.288 55.9268H153.394L153.495 56.0281V57.4465L152.786 58.3584L151.671 59.6755L150.759 60.79L149.544 62.1071L148.632 63.2216L148.125 63.8295H153.495L153.596 63.9308L153.698 65.6532L153.596 65.7545H145.39L145.086 65.6532L144.984 64.4374L145.39 63.8295L146.605 62.4111L147.72 61.0939L148.936 59.6755L150.05 58.3584L150.354 57.9531L145.288 57.8518L145.187 57.6491V56.5347L145.288 55.9268Z" fill="#52B501"/>
<path d="M97.0617 55.8262H98.2775L99.8986 56.1301L101.114 56.6367L101.216 56.9407L100.81 58.0551L100.608 58.4604L99.8986 58.3591L98.8854 57.9538L98.3788 57.8525H96.7578L96.3525 58.2578L96.4538 58.8657L96.5551 59.1696L97.467 59.4736L99.5947 60.2841L100.507 60.892L101.114 61.6012L101.418 62.4118V63.425L101.114 64.2355L100.304 65.1473L99.4933 65.5526L98.5815 65.7552H96.5551L94.9341 65.35L93.8196 64.7421L93.5156 64.4381L93.7183 63.9315L94.2248 62.9184L94.7314 63.0197L96.0486 63.6276L96.9604 63.8302H98.3788L98.8854 63.5263L99.0881 63.121L98.6828 62.5131L98.2775 62.2092L95.8459 61.2973L94.9341 60.7907L94.3262 60.0815L94.0222 59.0683V58.3591L94.3262 57.4472L94.8327 56.738L95.8459 56.1301L97.0617 55.8262Z" fill="#52B501"/>
<path d="M166.868 53.5967H169.198L169.299 53.698L169.401 56.2309L172.136 56.3322V57.9533L172.035 58.0546H169.299L169.401 62.8165L169.502 63.5258L170.718 63.6271L171.022 63.5258H171.731L172.035 64.0323L172.136 64.3363V65.2481L171.63 65.5521L170.515 65.7547H168.894L168.185 65.4508L167.476 64.8429L167.07 64.0323L166.868 62.6139V58.156L165.652 58.0546L165.551 57.852L165.449 56.4336L165.551 56.3322L166.766 56.2309L166.868 56.1296V53.5967Z" fill="#52B501"/>
<path d="M103.95 53.5967H106.077L106.28 53.698L106.381 56.2309L109.117 56.3322V58.0546L106.381 58.156V62.5126L106.584 63.4244L106.989 63.6271H107.698L108.61 63.4244L109.016 63.931L109.218 64.6402V65.1468L108.509 65.5521L107.698 65.7547H105.773L104.963 65.3495L104.254 64.5389L103.95 63.6271L103.848 58.156L102.633 58.0546L102.531 57.9533V56.4336L102.633 56.3322L103.848 56.2309L103.95 53.5967Z" fill="#52B501"/>
<path d="M135.054 52.0771H137.182L137.384 52.2798V59.068L137.283 65.6536L137.182 65.755H135.054L134.953 65.6536L134.852 62.4115V55.5219L134.953 52.1785L135.054 52.0771Z" fill="#52B501"/>
<path d="M122.086 55.9268H124.315L124.416 56.0281L124.517 57.5478L125.024 57.2439L125.53 56.7373L126.138 56.2307L127.152 55.9268H127.759V57.9531L127.253 58.1557L125.936 58.561L125.125 59.1689L124.72 59.7768L124.517 60.8913L124.416 65.6532L124.315 65.7545H122.187L121.984 65.6532V56.0281L122.086 55.9268Z" fill="#52B501"/>
<path d="M174.265 55.9268H176.494L176.596 56.0281V65.6532L176.393 65.7545H174.468L174.164 65.6532V56.0281L174.265 55.9268Z" fill="#52B501"/>
<path d="M140.422 55.9268H142.752L142.853 56.0281V62.3097L142.752 65.6532L142.651 65.7545H140.625L140.422 65.6532V55.9268Z" fill="#52B501"/>
<path d="M129.484 55.9268H131.815L131.916 56.0281V61.7018L131.815 65.6532L131.713 65.7545H129.586L129.484 65.6532V55.9268Z" fill="#52B501"/>
<path d="M130.092 51.7734H131.105L131.612 52.0774L131.915 52.584V53.6985L131.409 54.205L130.902 54.4077H130.193L129.585 53.9011L129.281 53.2932L129.383 52.584L129.889 51.8748L130.092 51.7734Z" fill="#52B501"/>
<path d="M174.873 51.7734H175.785L176.291 52.0774L176.697 52.8879L176.595 53.6985L176.19 54.205L175.785 54.4077H174.974L174.366 54.0024L174.062 53.4958V52.6853L174.468 52.0774L174.873 51.7734Z" fill="#52B501"/>
<path d="M141.135 51.7734H141.945L142.553 52.0774L142.857 52.584L142.958 53.2932L142.756 53.7998L142.249 54.3064L141.945 54.4077H141.236L140.628 54.0024L140.324 53.5971V52.584L140.932 51.8748L141.135 51.7734Z" fill="#52B501"/>
<path d="M82.5703 8.81445L82.8743 8.91577H82.5703V8.81445Z" fill="#F57E23"/>
<path d="M82.0664 8.51074L82.3704 8.61206H82.0664V8.51074Z" fill="#F57E23"/>
</svg>
