<svg width="126" height="120" viewBox="0 0 126 120" fill="none" xmlns="http://www.w3.org/2000/svg">
<path d="M60.2585 0H63.9346L67.9302 0.319654L73.0447 1.11879L77.0404 2.07775L81.3557 3.51619L85.671 5.43411L88.7077 7.03238L92.0641 9.11013L95.1008 11.3477L97.3384 13.2656L99.4161 15.1836L101.494 17.2613L102.613 18.5399L104.69 21.0971L106.768 23.974L108.686 27.1706L110.604 30.8466L112.362 35.0021L113.641 38.8379L114.759 43.6327L115.399 47.6284L115.718 50.9848V56.7385L115.239 61.5333L114.6 65.2094L113.481 69.5247L112.202 73.3605L110.444 77.516L108.846 80.5527L106.928 83.7493L105.33 85.9868L103.252 88.7039L101.174 90.9415L100.055 92.2201L98.617 93.6585L97.3384 94.7773L95.2606 96.5354L92.7034 98.4533L89.5069 100.531L85.9907 102.449L82.6343 104.047L79.7574 105.166L74.8028 106.605L70.1678 107.563L66.332 108.043L64.2542 108.203H58.6603L54.9842 107.883L50.8288 107.244L46.8331 106.285L42.6776 105.006L38.5221 103.248L34.6862 101.33L31.3299 99.2525L29.5718 97.814L28.2932 96.3756L27.3342 94.7773L26.6949 92.8594L26.5351 91.7406V89.8227L27.0145 87.5851L27.9735 85.1877L30.8504 78.7946L33.2478 73.2007L35.1657 68.8854L38.0426 62.3325L41.2391 55.1403L44.116 48.5874L47.1527 41.7148L55.4637 23.0151L57.2218 19.1792L58.1808 17.4211L59.2996 16.4622L60.8978 15.9827L62.3363 16.1425L63.6149 16.7818L64.7337 18.0604L66.1721 21.257L69.049 27.8099L71.4464 33.244L74.0036 38.9978L75.9216 43.4729L79.1181 50.8249L82.7941 59.2958L84.8719 64.0906L87.2693 69.6845L91.4248 79.2741L91.7444 80.2331L91.5846 81.3519L90.9453 82.151H89.8265L88.2282 80.7126L85.5112 78.1553L84.0727 76.7169L82.3146 75.2785L80.3967 73.6802L77.36 71.4426L74.9626 69.8443L71.1268 67.6068L66.9713 65.6888L62.4961 64.0906L58.3406 62.9718L55.1441 62.4923L51.4681 62.3325L51.7877 62.0128L53.2262 61.5333L55.3039 61.2137H58.1808L62.4961 61.6932L65.6926 62.3325L68.8892 63.2914L72.0857 64.5701L75.6019 66.3281L78.4788 68.0862L81.5155 70.164L84.0727 72.2417L85.3513 73.2007L83.1138 68.5657L81.8352 65.8487L80.5565 63.2914L77.5198 57.0582L75.4421 52.583L72.0857 45.7105L70.3276 42.0345L68.4097 38.0388L66.332 33.7235L64.7337 30.2073L63.4551 27.65L61.5372 23.6544L61.0577 24.1339L55.6236 37.2397L50.8288 48.7472L48.2715 54.8206L45.5545 61.3735L42.5178 68.5657L40.1203 74.3195L37.8828 79.5938L33.7273 89.503L33.5674 89.9825V91.421L34.0469 92.3799L35.4854 93.4987L37.8828 94.9372L40.9195 96.5354L45.2348 98.2935L49.5501 99.5721L54.5048 100.531L57.062 100.851L59.7791 101.011H62.4961L66.6516 100.691L71.2866 99.8918L74.9626 98.9328L78.319 97.814L81.6753 96.3756L85.3513 94.4577L87.1095 93.3389L89.6667 91.5808L92.2239 89.503L93.8222 88.0646L97.0187 84.8681L98.7768 82.6305L100.375 80.5527L102.453 77.1964L104.531 73.2007L106.289 68.7255L107.407 64.7299L108.207 60.7342L108.686 56.7385V50.1856L108.207 45.7105L107.407 41.7148L106.129 37.3995L104.69 33.8833L103.092 30.5269L101.014 27.0107L98.9366 24.1339L97.4982 22.3758L95.7401 20.4578L94.6213 19.1792L92.7034 17.4211L90.6256 15.663L87.7488 13.5853L85.1915 11.987L82.3146 10.3887L79.2779 8.9503L75.4421 7.51186L70.6473 6.23325L65.5328 5.43411L63.9346 5.27429H57.2218L53.0663 5.75377L48.9108 6.5529L44.5955 7.83152L40.5998 9.42978L37.5631 10.8682L34.5264 12.6263L32.129 14.2246L29.412 16.3023L27.8137 17.7408L26.5351 18.8596L23.818 21.5766L22.3796 23.3347L20.142 26.2116L18.2241 29.2483L16.3061 32.7645L14.7079 36.2807L13.4293 39.7969L12.3105 43.9524L11.5113 48.2677L11.1917 51.4642V58.9761L11.6712 63.2914L12.4703 67.1273L13.5891 70.9631L14.2284 72.8811L14.0686 73.3605L12.4703 69.6845L11.1917 65.529L10.3926 62.1726L9.75325 58.0172L9.43359 53.7018V50.9848L9.75325 46.5096L10.3926 41.8746L11.3515 37.879L12.79 33.5636L14.2284 30.2073L15.8267 27.1706L17.4249 24.4535L19.0232 22.2159L20.9411 19.6587L23.0189 17.2613L27.1744 13.1058L28.9325 11.6674L31.8094 9.42978L35.3255 7.19221L39.481 4.95463L43.3169 3.35636L47.6322 1.91792L51.7877 0.958961L55.9432 0.319654L60.2585 0Z" fill="#0000CC"/>
<path d="M0 113.637H1.04637L2.29751 115.9H2.34746L3.5986 113.637H4.64497L2.78448 116.844V118.752H1.86048V116.844L0 113.637Z" fill="#0000CC"/>
<path d="M9.93436 116.195C9.93436 116.746 9.83114 117.218 9.6247 117.611C9.41992 118.002 9.14022 118.301 8.78561 118.51C8.43266 118.718 8.03226 118.822 7.58441 118.822C7.13656 118.822 6.73533 118.718 6.38071 118.51C6.02776 118.3 5.74806 117.999 5.54162 117.608C5.33684 117.215 5.23445 116.744 5.23445 116.195C5.23445 115.643 5.33684 115.172 5.54162 114.781C5.74806 114.388 6.02776 114.088 6.38071 113.88C6.73533 113.671 7.13656 113.567 7.58441 113.567C8.03226 113.567 8.43266 113.671 8.78561 113.88C9.14022 114.088 9.41992 114.388 9.6247 114.781C9.83114 115.172 9.93436 115.643 9.93436 116.195ZM9.00287 116.195C9.00287 115.807 8.9421 115.479 8.82057 115.213C8.7007 114.945 8.53421 114.743 8.32111 114.606C8.10801 114.468 7.86244 114.399 7.58441 114.399C7.30638 114.399 7.06081 114.468 6.84771 114.606C6.6346 114.743 6.46729 114.945 6.34575 115.213C6.22588 115.479 6.16595 115.807 6.16595 116.195C6.16595 116.582 6.22588 116.91 6.34575 117.178C6.46729 117.445 6.6346 117.647 6.84771 117.785C7.06081 117.922 7.30638 117.99 7.58441 117.99C7.86244 117.99 8.10801 117.922 8.32111 117.785C8.53421 117.647 8.7007 117.445 8.82057 117.178C8.9421 116.91 9.00287 116.582 9.00287 116.195Z" fill="#0000CC"/>
<path d="M14.3859 113.637H15.3124V116.979C15.3124 117.345 15.2258 117.667 15.0527 117.945C14.8812 118.223 14.6398 118.44 14.3285 118.597C14.0171 118.752 13.6534 118.829 13.2372 118.829C12.8193 118.829 12.4547 118.752 12.1433 118.597C11.832 118.44 11.5906 118.223 11.4191 117.945C11.2476 117.667 11.1619 117.345 11.1619 116.979V113.637H12.0884V116.901C12.0884 117.114 12.135 117.304 12.2283 117.471C12.3231 117.637 12.4563 117.768 12.6278 117.863C12.7993 117.956 13.0024 118.003 13.2372 118.003C13.4719 118.003 13.675 117.956 13.8465 117.863C14.0196 117.768 14.1528 117.637 14.2461 117.471C14.3393 117.304 14.3859 117.114 14.3859 116.901V113.637Z" fill="#0000CC"/>
<path d="M16.6711 118.752V113.637H18.589C18.9819 113.637 19.3115 113.706 19.5779 113.842C19.846 113.979 20.0482 114.17 20.1848 114.416C20.3229 114.661 20.392 114.947 20.392 115.273C20.392 115.601 20.3221 115.886 20.1823 116.127C20.0441 116.367 19.8401 116.552 19.5704 116.684C19.3007 116.814 18.9694 116.879 18.5765 116.879H17.2105V116.11H18.4516C18.6814 116.11 18.8695 116.078 19.016 116.015C19.1625 115.95 19.2707 115.856 19.3407 115.733C19.4123 115.608 19.4481 115.455 19.4481 115.273C19.4481 115.092 19.4123 114.937 19.3407 114.809C19.2691 114.679 19.16 114.58 19.0135 114.514C18.867 114.446 18.6781 114.411 18.4466 114.411H17.5976V118.752H16.6711ZM19.3132 116.434L20.5793 118.752H19.5455L18.3018 116.434H19.3132Z" fill="#0000CC"/>
<path d="M23.4677 114.414V113.637H27.5483V114.414H25.9675V118.752H25.0485V114.414H23.4677Z" fill="#0000CC"/>
<path d="M28.6865 118.752V113.637H30.6045C30.9974 113.637 31.327 113.706 31.5934 113.842C31.8614 113.979 32.0637 114.17 32.2002 114.416C32.3384 114.661 32.4075 114.947 32.4075 115.273C32.4075 115.601 32.3376 115.886 32.1977 116.127C32.0596 116.367 31.8556 116.552 31.5859 116.684C31.3162 116.814 30.9849 116.879 30.592 116.879H29.226V116.11H30.4671C30.6969 116.11 30.885 116.078 31.0315 116.015C31.178 115.95 31.2862 115.856 31.3562 115.733C31.4277 115.608 31.4635 115.455 31.4635 115.273C31.4635 115.092 31.4277 114.937 31.3562 114.809C31.2846 114.679 31.1755 114.58 31.029 114.514C30.8825 114.446 30.6935 114.411 30.4621 114.411H29.613V118.752H28.6865ZM31.3287 116.434L32.5948 118.752H31.5609L30.3173 116.434H31.3287Z" fill="#0000CC"/>
<path d="M36.836 113.637H37.7625V116.979C37.7625 117.345 37.6759 117.667 37.5027 117.945C37.3313 118.223 37.0899 118.44 36.7785 118.597C36.4672 118.752 36.1034 118.829 35.6872 118.829C35.2693 118.829 34.9047 118.752 34.5934 118.597C34.2821 118.44 34.0407 118.223 33.8692 117.945C33.6977 117.667 33.612 117.345 33.612 116.979V113.637H34.5385V116.901C34.5385 117.114 34.5851 117.304 34.6783 117.471C34.7732 117.637 34.9064 117.768 35.0779 117.863C35.2494 117.956 35.4525 118.003 35.6872 118.003C35.922 118.003 36.1251 117.956 36.2966 117.863C36.4697 117.768 36.6029 117.637 36.6961 117.471C36.7893 117.304 36.836 117.114 36.836 116.901V113.637Z" fill="#0000CC"/>
<path d="M41.9006 115.043C41.8773 114.825 41.7791 114.655 41.6059 114.534C41.4344 114.412 41.2114 114.352 40.9366 114.352C40.7435 114.352 40.5779 114.381 40.4397 114.439C40.3015 114.497 40.1958 114.576 40.1225 114.676C40.0493 114.776 40.0118 114.89 40.0102 115.018C40.0102 115.125 40.0343 115.217 40.0826 115.296C40.1325 115.374 40.1999 115.44 40.2849 115.495C40.3698 115.549 40.4638 115.594 40.5671 115.63C40.6703 115.667 40.7743 115.698 40.8792 115.723L41.3587 115.842C41.5518 115.887 41.7374 115.948 41.9156 116.025C42.0954 116.101 42.2561 116.198 42.3976 116.314C42.5407 116.431 42.654 116.572 42.7372 116.736C42.8204 116.901 42.8621 117.094 42.8621 117.316C42.8621 117.615 42.7855 117.879 42.6323 118.107C42.4791 118.334 42.2577 118.511 41.968 118.639C41.68 118.766 41.3312 118.829 40.9217 118.829C40.5238 118.829 40.1783 118.768 39.8853 118.644C39.5939 118.521 39.3659 118.341 39.201 118.105C39.0379 117.869 38.9496 117.581 38.9363 117.241H39.8478C39.8611 117.419 39.9161 117.567 40.0127 117.685C40.1092 117.804 40.2349 117.892 40.3897 117.95C40.5462 118.008 40.7211 118.038 40.9142 118.038C41.1156 118.038 41.2921 118.008 41.4436 117.948C41.5968 117.886 41.7166 117.801 41.8032 117.693C41.8898 117.583 41.9339 117.455 41.9356 117.308C41.9339 117.175 41.8948 117.065 41.8182 116.979C41.7416 116.89 41.6342 116.817 41.496 116.759C41.3595 116.699 41.1997 116.646 41.0166 116.599L40.4347 116.449C40.0135 116.341 39.6805 116.177 39.4358 115.957C39.1927 115.736 39.0712 115.442 39.0712 115.076C39.0712 114.774 39.1527 114.511 39.3159 114.284C39.4807 114.058 39.7047 113.882 39.9877 113.757C40.2707 113.631 40.5912 113.567 40.9491 113.567C41.3121 113.567 41.6301 113.631 41.9031 113.757C42.1778 113.882 42.3934 114.056 42.5499 114.279C42.7064 114.501 42.7871 114.755 42.7921 115.043H41.9006Z" fill="#0000CC"/>
<path d="M43.8149 114.414V113.637H47.8955V114.414H46.3147V118.752H45.3957V114.414H43.8149Z" fill="#0000CC"/>
<path d="M49.8148 118.053L49.7823 118.327C49.759 118.537 49.7174 118.75 49.6575 118.967C49.5992 119.185 49.5376 119.385 49.4727 119.568C49.4077 119.752 49.3553 119.896 49.3153 120H48.706C48.7293 119.899 48.7609 119.761 48.8009 119.586C48.8425 119.411 48.8825 119.215 48.9207 118.997C48.959 118.778 48.9848 118.557 48.9982 118.332L49.0156 118.053H49.8148Z" fill="#0000CC"/>
<path d="M57.7271 116.195C57.7271 116.746 57.6239 117.218 57.4174 117.611C57.2126 118.002 56.9329 118.301 56.5783 118.51C56.2254 118.718 55.825 118.822 55.3771 118.822C54.9293 118.822 54.528 118.718 54.1734 118.51C53.8205 118.3 53.5408 117.999 53.3343 117.608C53.1296 117.215 53.0272 116.744 53.0272 116.195C53.0272 115.643 53.1296 115.172 53.3343 114.781C53.5408 114.388 53.8205 114.088 54.1734 113.88C54.528 113.671 54.9293 113.567 55.3771 113.567C55.825 113.567 56.2254 113.671 56.5783 113.88C56.9329 114.088 57.2126 114.388 57.4174 114.781C57.6239 115.172 57.7271 115.643 57.7271 116.195ZM56.7956 116.195C56.7956 115.807 56.7348 115.479 56.6133 115.213C56.4934 114.945 56.3269 114.743 56.1138 114.606C55.9007 114.468 55.6552 114.399 55.3771 114.399C55.0991 114.399 54.8535 114.468 54.6404 114.606C54.4273 114.743 54.26 114.945 54.1385 115.213C54.0186 115.479 53.9587 115.807 53.9587 116.195C53.9587 116.582 54.0186 116.91 54.1385 117.178C54.26 117.445 54.4273 117.647 54.6404 117.785C54.8535 117.922 55.0991 117.99 55.3771 117.99C55.6552 117.99 55.9007 117.922 56.1138 117.785C56.3269 117.647 56.4934 117.445 56.6133 117.178C56.7348 116.91 56.7956 116.582 56.7956 116.195Z" fill="#0000CC"/>
<path d="M62.1786 113.637H63.1051V116.979C63.1051 117.345 63.0186 117.667 62.8454 117.945C62.6739 118.223 62.4325 118.44 62.1212 118.597C61.8099 118.752 61.4461 118.829 61.0299 118.829C60.612 118.829 60.2474 118.752 59.9361 118.597C59.6247 118.44 59.3833 118.223 59.2119 117.945C59.0404 117.667 58.9546 117.345 58.9546 116.979V113.637H59.8811V116.901C59.8811 117.114 59.9277 117.304 60.021 117.471C60.1159 117.637 60.2491 117.768 60.4205 117.863C60.592 117.956 60.7951 118.003 61.0299 118.003C61.2646 118.003 61.4677 117.956 61.6392 117.863C61.8124 117.768 61.9456 117.637 62.0388 117.471C62.132 117.304 62.1786 117.114 62.1786 116.901V113.637Z" fill="#0000CC"/>
<path d="M64.4638 118.752V113.637H66.3817C66.7746 113.637 67.1043 113.706 67.3706 113.842C67.6387 113.979 67.841 114.17 67.9775 114.416C68.1157 114.661 68.1848 114.947 68.1848 115.273C68.1848 115.601 68.1148 115.886 67.975 116.127C67.8368 116.367 67.6329 116.552 67.3631 116.684C67.0934 116.814 66.7621 116.879 66.3692 116.879H65.0032V116.11H66.2444C66.4741 116.11 66.6622 116.078 66.8087 116.015C66.9553 115.95 67.0635 115.856 67.1334 115.733C67.205 115.608 67.2408 115.455 67.2408 115.273C67.2408 115.092 67.205 114.937 67.1334 114.809C67.0618 114.679 66.9528 114.58 66.8062 114.514C66.6597 114.446 66.4708 114.411 66.2394 114.411H65.3903V118.752H64.4638ZM67.1059 116.434L68.372 118.752H67.3382L66.0945 116.434H67.1059Z" fill="#0000CC"/>
<path d="M72.142 118.752H71.153L72.9536 113.637H74.0974L75.9004 118.752H74.9115L73.5454 114.686H73.5055L72.142 118.752ZM72.1744 116.746H74.8715V117.491H72.1744V116.746Z" fill="#0000CC"/>
<path d="M81.063 115.363H80.1291C80.1024 115.21 80.0533 115.074 79.9817 114.956C79.9101 114.836 79.8211 114.734 79.7145 114.651C79.608 114.568 79.4864 114.506 79.3499 114.464C79.215 114.421 79.0694 114.399 78.9129 114.399C78.6348 114.399 78.3885 114.469 78.1737 114.609C77.9589 114.747 77.7908 114.95 77.6692 115.218C77.5477 115.484 77.4869 115.81 77.4869 116.195C77.4869 116.586 77.5477 116.915 77.6692 117.183C77.7924 117.45 77.9606 117.651 78.1737 117.788C78.3885 117.923 78.634 117.99 78.9104 117.99C79.0636 117.99 79.2067 117.97 79.3399 117.93C79.4748 117.889 79.5955 117.828 79.702 117.748C79.8102 117.668 79.901 117.57 79.9742 117.453C80.0491 117.337 80.1008 117.203 80.1291 117.054L81.063 117.059C81.0281 117.302 80.9523 117.53 80.8358 117.743C80.7209 117.956 80.5703 118.144 80.3838 118.307C80.1973 118.469 79.9792 118.595 79.7295 118.687C79.4798 118.777 79.2026 118.822 78.8979 118.822C78.4484 118.822 78.0471 118.718 77.6942 118.51C77.3412 118.301 77.0632 118.001 76.8601 117.608C76.657 117.215 76.5554 116.744 76.5554 116.195C76.5554 115.643 76.6578 115.172 76.8626 114.781C77.0674 114.388 77.3462 114.088 77.6992 113.88C78.0521 113.671 78.4517 113.567 78.8979 113.567C79.1826 113.567 79.4473 113.607 79.692 113.687C79.9368 113.767 80.1549 113.885 80.3463 114.039C80.5378 114.193 80.6951 114.381 80.8183 114.604C80.9432 114.825 81.0248 115.078 81.063 115.363Z" fill="#0000CC"/>
<path d="M82.2631 118.752V113.637H83.1896V115.802H85.5596V113.637H86.4885V118.752H85.5596V116.579H83.1896V118.752H82.2631Z" fill="#0000CC"/>
<path d="M88.7743 113.637V118.752H87.8478V113.637H88.7743Z" fill="#0000CC"/>
<path d="M90.1292 118.752V113.637H93.4556V114.414H91.0557V115.802H93.2833V116.579H91.0557V117.975H93.4756V118.752H90.1292Z" fill="#0000CC"/>
<path d="M95.4367 113.637L96.7678 117.663H96.8202L98.1488 113.637H99.1677L97.3646 118.752H96.2209L94.4203 113.637H95.4367Z" fill="#0000CC"/>
<path d="M100.193 118.752V113.637H103.519V114.414H101.119V115.802H103.347V116.579H101.119V117.975H103.539V118.752H100.193Z" fill="#0000CC"/>
<path d="M104.816 113.637H105.95L107.468 117.343H107.528L109.047 113.637H110.18V118.752H109.291V115.238H109.244L107.83 118.737H107.166L105.753 115.231H105.705V118.752H104.816V113.637Z" fill="#0000CC"/>
<path d="M111.541 118.752V113.637H114.867V114.414H112.467V115.802H114.695V116.579H112.467V117.975H114.887V118.752H111.541Z" fill="#0000CC"/>
<path d="M120.367 113.637V118.752H119.543L117.133 115.268H117.091V118.752H116.164V113.637H116.993L119.401 117.124H119.446V113.637H120.367Z" fill="#0000CC"/>
<path d="M121.503 114.414V113.637H125.584V114.414H124.003V118.752H123.084V114.414H121.503Z" fill="#0000CC"/>
</svg>
