<svg width="227" height="100" viewBox="0 0 227 100" fill="none" xmlns="http://www.w3.org/2000/svg">
<path d="M1.33835 42.1406H20.4019L26.4219 42.8095L29.0975 44.1473L31.4387 46.8229L32.442 49.8329V53.1774L31.4387 55.853L29.0975 58.5286L28.0942 59.1975L28.7631 60.5353L30.7698 62.2075L32.1076 64.8831L32.442 65.8864V70.2343L31.1042 73.2443L29.7664 74.9165L25.753 76.9232L24.0808 77.2577H1.33835L1.00391 56.5219V45.4851L1.33835 42.1406Z" fill="#2D3393"/>
<path d="M195.651 42.1406H204.681L206.688 45.1507L210.701 52.5085L215.383 60.5353L218.728 66.2209L219.062 66.5553V42.4751L226.42 42.1406V77.2577H218.059L215.718 73.9132L211.704 66.5553L207.022 58.5286L203.343 52.1741V51.5052H202.674L203.009 77.2577H195.316V42.4751L195.651 42.1406Z" fill="#2D3393"/>
<path d="M136.121 42.1406H153.178V48.1607L136.121 48.4951L133.111 49.164L131.439 50.8363L130.101 52.843L129.098 56.8563V63.2108L129.767 66.2209L131.439 68.8965L133.446 70.2343L136.456 70.9032H143.479L145.486 70.5687V63.2108L144.817 62.8764L135.787 62.542V56.5219H153.178V77.5921L133.111 77.2577L129.098 76.2543L125.754 74.2476L123.078 71.2376L121.406 67.5587L120.737 65.2175L120.402 62.2075V58.5286L121.071 53.8463L122.743 49.164L124.75 46.4884L127.091 44.4818L129.767 43.144L132.442 42.4751L136.121 42.1406Z" fill="#2D3393"/>
<path d="M169.898 42.1406H177.59L179.262 45.4851L183.61 55.853L188.961 68.2276L192.64 76.9232V77.2577H184.614L183.276 74.2476L181.269 69.5654L180.935 69.2309H165.884L162.874 76.9232L162.54 77.2577H154.848L156.854 71.9065L160.199 64.2142L163.878 55.853L168.894 44.1473L169.898 42.1406Z" fill="#2D3393"/>
<path d="M38.4609 42.1406H45.8188V56.1874H59.1967L59.5312 44.4818L59.8656 42.1406L66.889 42.4751V77.2577H59.5312L59.1967 62.8764L45.8188 62.542V77.2577H38.4609V42.1406Z" fill="#2D3393"/>
<path d="M75.2504 22.0732H105.685L107.023 22.7421L107.357 23.7455V30.1L106.354 31.1033L103.678 31.4378V44.4813L100.334 46.1535L99.9995 31.7722L89.2972 31.4378L87.6249 29.4311L87.2905 28.4278L89.6316 28.0933H102.675L104.013 28.4278V25.4177H76.5882L76.9226 28.0933H79.9326L80.2671 28.4278V63.8792L80.936 67.8926L82.2738 69.8993L84.6149 71.906L87.2905 73.2438L87.6249 74.5816L86.6216 76.2538L83.6116 75.2505L79.9326 72.5749L78.2604 70.5682L77.2571 68.5615L76.9226 66.8893V31.4378L73.9126 30.7689L73.5781 30.4344V23.7455L74.247 22.4077L75.2504 22.0732Z" fill="#2D3393"/>
<path d="M111.373 45.1504H113.045L113.379 45.4848L113.045 48.4949L110.369 55.5183L107.694 59.8661L104.684 63.545L101.674 66.2206L96.9914 68.8962L91.6402 70.9029H89.2991L89.6335 69.2306L92.6436 65.5517L95.6536 62.5417L95.3192 62.2072L93.9814 62.8761V63.545L88.6302 68.2273L87.6269 69.2306L86.2891 69.5651L86.6235 67.224L87.9613 64.2139L90.6369 58.8628L92.978 55.5183L95.988 52.1738L99.667 49.1638L104.349 46.8226L109.366 45.4848L111.373 45.1504Z" fill="#AECD4D"/>
<path d="M83.2773 28.7627L84.6151 29.0971L87.2907 33.445L88.963 37.7928L90.3007 43.4784L90.9696 50.5018L90.6352 55.5185L89.2974 59.1975L85.9529 65.552L84.6151 67.2242H83.6118L83.2773 66.2209V28.7627Z" fill="#AECD4D"/>
<path d="M103.008 68.2275H108.359L112.707 69.5653L115.717 71.2376V72.5754L110.7 76.2543L106.352 78.261L104.011 78.9299H98.3257L93.9779 77.9265L91.9712 76.2543L91.6367 73.5787L94.6467 71.572L98.6601 69.5653L103.008 68.2275Z" fill="#AECD4D"/>
<path d="M211.369 83.9463L216.386 84.2807L218.058 86.2874L218.727 88.2941L219.062 92.6419L218.393 96.6553L216.386 98.9964L214.714 99.6653H209.363L208.359 99.3309V84.2807L211.369 83.9463Z" fill="#F5313D"/>
<path d="M92.643 84.2803H96.6564L98.3287 87.6248L100.67 93.3104L101.004 84.2803H103.68L104.014 84.9492V99.3304L103.68 99.6649L99.6664 99.3304L98.3287 96.3204L95.9875 90.3003L95.6531 99.3304L95.3186 99.6649H93.3119L92.643 99.3304L92.3086 97.3237V86.6214L92.643 84.2803Z" fill="#EC292E"/>
<path d="M8.69382 62.542L21.0684 62.8764L23.4095 63.8798L24.4129 65.552V68.5621L22.7406 70.5687L20.7339 71.2376H8.69382L8.35938 70.5687V62.8764L8.69382 62.542Z" fill="#FDFEFD"/>
<path d="M8.69382 48.4951H20.3995L23.0751 49.164L24.4129 51.1707V53.8463L23.0751 55.853L22.0717 56.5219L10.0316 56.8563L8.35938 56.1874V48.8296L8.69382 48.4951Z" fill="#FDFEFD"/>
<path d="M138.459 84.2803H145.817L147.49 85.9525L148.158 87.6248V90.6348L146.152 92.9759L145.483 93.3104L141.469 93.6448L141.804 99.3304L141.469 99.6649H138.459L138.125 99.3304V84.6147L138.459 84.2803Z" fill="#EB282C"/>
<path d="M49.8337 83.9463H52.5093L54.1815 84.9496L55.5193 86.9563V88.6286H52.8437L51.8404 87.6252V86.9563H50.1681L49.4992 87.6252L49.8337 88.963L52.1748 90.3008L54.8504 92.6419L55.8537 94.9831L55.5193 97.3242L53.5126 99.3309L51.1715 99.9998L48.1614 99.6653L46.4892 98.3276L45.8203 96.9898V94.9831L47.1581 94.3142L49.1648 94.6486L49.8337 96.9898H51.8404V94.9831L49.4992 92.9764L46.8237 90.9697L46.1548 89.9664V86.6219L47.4926 84.9496L49.8337 83.9463Z" fill="#ED2A30"/>
<path d="M151.173 83.9463L153.514 84.2807L154.517 87.2908L155.855 92.3075H156.524L158.531 84.6152L160.872 83.9463L161.875 84.2807L160.537 90.9697L158.531 97.9931L157.527 99.6653L153.848 99.3309L151.173 88.2941L150.504 85.6185V84.2807L151.173 83.9463Z" fill="#EC292E"/>
<path d="M29.7666 83.9463L37.7933 84.2807V86.6219L33.111 87.2908V89.9664L37.1244 90.3008L37.4589 90.6352V92.3075L37.1244 92.6419L33.111 92.9764V96.6553L38.1277 96.9898V98.9964L37.4589 99.6653H29.7666L29.0977 98.9964V84.6152L29.7666 83.9463Z" fill="#F5313D"/>
<path d="M80.2656 84.2803H88.6268L88.9613 84.6147V86.6214L88.6268 86.9559L83.9446 87.2903V89.9659L88.2924 90.3003V92.6415L83.9446 92.9759L83.6101 96.6548H88.6268L88.9613 96.9893V99.3304L87.9579 99.6649H80.9345L80.2656 99.3304V84.2803Z" fill="#F5313D"/>
<path d="M121.737 84.2803H129.429L129.764 84.6147V86.6214L129.429 86.9559H124.747L125.081 89.9659H129.095L129.429 90.3003V92.307L129.095 92.6415L125.081 92.9759L124.747 96.6548L130.098 96.9893V99.3304L129.429 99.6649H121.737L121.402 99.3304V84.6147L121.737 84.2803Z" fill="#F6323E"/>
<path d="M111.706 83.9463H115.051L117.057 85.6185L117.726 87.2908V88.963L117.392 89.2975H114.716L114.047 86.9563H111.706L111.372 93.6453L112.041 96.6553L113.713 96.9898H114.382L114.716 94.6486L115.385 93.9797H117.726L118.061 95.3175L117.392 97.6587L115.385 99.6653H111.037L108.696 97.6587L108.027 95.9864V87.9597L109.365 85.2841L110.703 84.2807L111.706 83.9463Z" fill="#ED2A2F"/>
<path d="M63.2087 83.9463H65.5498L67.2221 84.6152L68.8943 86.6219L69.2287 88.963L68.8943 89.2975H66.8876L65.8843 88.2941L65.5498 86.9563H63.5431L62.8742 88.2941V94.6486L63.5431 96.9898H65.2154L66.2187 94.3142L68.5599 93.9797L69.2287 94.3142V96.9898L67.2221 99.3309L64.212 99.9998L61.202 98.9964L59.5298 96.3209L59.1953 94.3142V89.6319L59.8642 86.6219L61.5364 84.6152L63.2087 83.9463Z" fill="#ED2A30"/>
<path d="M18.3945 84.2803H26.4213V86.6214L26.0868 86.9559L22.0735 87.2903V89.9659L26.0868 90.3003L26.4213 91.6381L26.0868 92.9759L22.0735 93.3104V99.3304H18.3945V84.2803Z" fill="#F5313C"/>
<path d="M163.881 84.2803H174.249L173.915 86.9559L170.905 87.2903L170.57 99.6649H167.56L166.891 99.3304V86.9559H163.881L163.547 85.2836L163.881 84.2803Z" fill="#F5313D"/>
<path d="M172.909 49.833H173.578L176.922 57.5253L178.594 61.5387V62.542H168.227L169.23 59.532L171.905 52.5086L172.909 49.833Z" fill="#FDFEFD"/>
<path d="M186.624 84.2803H189.968L190.302 96.3204L194.316 96.6548L194.65 96.9893V99.3304L193.647 99.6649H186.624L186.289 98.996V84.6147L186.624 84.2803Z" fill="#F5313D"/>
<path d="M194.98 84.2803H205.683V86.9559H202.004V99.3304L201.335 99.6649H198.994L198.659 99.3304L198.325 88.6281L197.99 87.2903L194.98 86.6214V84.2803Z" fill="#F4303C"/>
<path d="M0 84.2803H3.34448L3.67893 96.3204L7.6923 96.6548L8.02675 96.9893V99.3304L7.6923 99.6649H0.334448L0 99.3304V84.2803Z" fill="#F5313D"/>
<path d="M83.6125 8.02637L86.6226 8.36082L88.9637 10.0331L89.967 12.3742V14.3809L88.6292 16.3876L86.957 17.7254L83.947 18.0598L81.2714 16.722L79.9336 14.0464V11.3708L80.6025 11.0364L81.6058 13.0431L83.6125 13.3775L84.6159 13.0431L84.9503 12.3742V10.0331L82.9436 9.02971V8.36082L83.6125 8.02637Z" fill="#F5313C"/>
<path d="M11.0376 84.2803H14.0476L14.3821 99.3304L12.0409 99.6649L11.0376 99.3304L10.7031 96.9893V84.6147L11.0376 84.2803Z" fill="#EC292E"/>
<path d="M93.3108 0H95.6519L97.3242 1.33779L98.3275 3.01003V5.35117L96.9897 7.02341L95.9864 7.6923L93.6453 8.02675L91.6386 7.02341L90.3008 5.35117V2.34114L91.973 0.668896L93.3108 0Z" fill="#EC292F"/>
<path d="M74.9168 83.9463L75.9202 84.2807V99.3309H72.9102V84.6152L74.9168 83.9463Z" fill="#ED2A30"/>
<path d="M122.073 84.9492H124.079L124.748 85.6181L123.076 86.9559H122.407V87.9593L123.076 88.2937V88.9626L124.079 89.6315V90.3004L129.096 90.6348L128.762 92.3071H125.752L125.417 91.3037H124.748L124.414 93.6449H123.745V96.6549L124.079 97.6582L124.414 97.3238H129.765L129.431 98.6616L129.096 98.996L122.407 99.3305L121.738 98.996V85.9526L122.073 84.9492Z" fill="#EB282C"/>
<path d="M160.87 83.9463L161.873 84.2807L160.536 90.9697L158.863 96.9898H158.529V94.6486H156.857L156.188 95.3175L155.185 93.6453L154.516 90.6352L155.185 89.9664L156.188 92.6419L156.857 90.9697L158.529 84.6152L160.87 83.9463Z" fill="#F5313D"/>
<path d="M212.041 86.957H214.383L215.386 88.6293V94.6493L214.717 96.656L212.376 96.9905L212.041 96.656L211.707 90.636V87.2915L212.041 86.957Z" fill="#FDFEFD"/>
<path d="M141.47 86.2881L144.48 86.6225L145.483 88.9637L145.149 90.3015L146.821 89.967L147.155 90.9704L146.486 92.6426L145.483 93.3115L141.135 93.6459L140.801 92.977L141.47 91.6393L140.801 88.6292V86.957H141.47V86.2881Z" fill="#F5313D"/>
<path d="M198.66 85.2842L199.663 85.6186L201.67 86.9564L201.336 88.6287V99.331L198.995 98.9965L198.66 85.2842Z" fill="#EB282C"/>
<path d="M97.6561 14.7158L99.6627 15.0503L101.335 16.7225V19.0636L99.6627 20.7359H96.9872L95.3149 19.3981L94.9805 17.057L96.3183 15.3847L97.6561 14.7158Z" fill="#F5313D"/>
<path d="M94.3144 86.2881L94.9832 87.6259L95.3177 89.6326V98.9971L93.6455 99.3316L92.9766 98.9971V87.2914L94.3144 86.957V86.2881Z" fill="#EB282C"/>
<path d="M128.765 84.6152H129.768V86.6219L129.434 86.9564H124.751L125.086 89.9664H129.099L129.434 90.3008V92.3075L129.099 92.642L125.086 92.9764L124.417 94.6487H123.748V93.6453H124.417V91.3042H125.755L126.089 91.9731H128.765L129.099 90.6353H124.751L122.41 88.6286V86.9564L124.082 85.6186L128.096 84.9497L128.765 84.6152Z" fill="#F5313D"/>
<path d="M187.291 84.6152H189.298L188.964 86.6219L189.298 86.9564V93.9798L188.629 94.9831L188.295 93.9798L187.291 96.3209H186.957V84.9497L187.291 84.6152Z" fill="#EB282C"/>
<path d="M29.7656 84.6152H31.4379L32.1068 84.9497H37.4579L37.7924 86.6219H33.1101L32.7757 85.953L32.4412 87.6253L30.769 92.3075L30.1001 92.642L29.7656 88.2942V84.6152Z" fill="#EB282C"/>
<path d="M138.459 84.2803H145.817L147.155 85.2836L146.821 85.9525L145.817 85.2836L144.48 85.6181L143.811 86.287L141.469 85.2836H138.794L139.128 98.996L141.135 99.3304V93.6448H141.469L141.804 99.3304L141.469 99.6649H138.459L138.125 99.3304V84.6147L138.459 84.2803Z" fill="#F6323E"/>
<path d="M92.643 84.2803H96.6564V85.2836L96.322 84.9492H93.9808L92.9775 84.6147L93.3119 86.9559L92.9775 98.996H94.9842V89.6314L94.3153 85.6181H94.9842L96.6564 89.9659L96.322 90.9692L95.9875 90.3003L95.6531 99.3304L95.3186 99.6649H93.3119L92.643 99.3304L92.3086 97.3237V86.6214L92.643 84.2803Z" fill="#F6323E"/>
<path d="M144.482 84.9492L146.489 85.2837L147.827 86.287L148.161 87.6248V90.6348L147.158 91.9726H146.489L146.823 90.6348L145.151 90.3004L144.817 87.6248L144.482 86.9559L143.145 86.6215V85.9526H144.148L143.813 85.2837L144.482 84.9492Z" fill="#EC292E"/>
<path d="M111.703 84.9492L114.714 85.2837L114.045 85.6181L114.714 86.287L116.051 85.9526L116.72 86.9559V88.2937L117.724 87.2904V88.9626L117.389 89.297H114.714L114.045 86.9559H111.703L111.369 91.9726L110.7 92.976V88.6281L111.369 86.9559L110.031 86.287L110.7 85.6181H111.703V84.9492Z" fill="#F5313D"/>
<path d="M218.058 87.291L218.727 88.2944L219.062 92.6422L218.393 96.6556L217.724 97.3245L218.058 94.9833L217.389 92.3077L215.717 91.6388V94.6489H215.383V88.9633L216.721 88.6288L217.055 89.9666L218.058 89.6322V87.291Z" fill="#F6323E"/>
<path d="M215.719 91.6387H217.391L218.06 92.9765L218.394 95.3176L217.391 97.9932L216.722 98.6621L215.719 98.3276L216.388 97.3243L215.719 94.6487V91.6387Z" fill="#EB282C"/>
<path d="M11.0376 84.2803H14.0476V84.6147H11.372L11.7065 96.6548L12.0409 97.6582L11.7065 98.996L13.0443 99.6649L11.0376 99.3304L10.7031 96.9893V84.6147L11.0376 84.2803Z" fill="#F6323E"/>
<path d="M91.973 0.668945L93.3108 1.33784H94.9831V2.00674L93.9797 2.34119V3.34453H93.3108V4.01343L92.3075 4.34787L91.6386 4.01343L91.3041 5.35122L90.6352 6.02011L90.3008 5.35122V2.34119L91.973 0.668945Z" fill="#F5313D"/>
<path d="M141.807 86.957H144.148L144.483 87.2915V90.3015L143.145 90.9704L141.473 90.636V87.2915L141.807 86.957Z" fill="#FDFEFD"/>
<path d="M85.9531 8.69531H87.2909L87.9598 10.3676L88.9632 14.3809L87.6254 14.7154L85.9531 12.7087V8.69531Z" fill="#EB282C"/>
<path d="M18.7305 84.6152L20.7372 84.9497V85.953L19.3994 86.2875V96.6554L18.7305 97.6587V84.6152Z" fill="#EB282C"/>
<path d="M29.7666 83.9463L37.7933 84.2807L37.4589 85.2841H31.4388V84.6152H29.7666L30.101 88.6286L29.4321 89.6319L29.0977 84.6152L29.7666 83.9463Z" fill="#F6323E"/>
<path d="M175.584 96.3213H177.591L177.926 97.6591V99.3313H175.25V96.6557L175.584 96.3213Z" fill="#F6323E"/>
<path d="M88.2931 96.6553H88.6276V98.9964H83.9453V97.3242L87.9587 96.9897L88.2931 96.6553Z" fill="#EB282C"/>
<path d="M217.057 85.9531L218.06 86.2876L218.394 89.9665L217.725 90.3009L216.388 88.9632L216.053 90.6354H215.719V86.9565L217.057 85.9531Z" fill="#EB282C"/>
<path d="M160.868 83.9463L161.872 84.2807L161.203 85.953L160.868 87.6252L159.531 87.9597V87.2908L158.527 87.6252L158.862 84.9496L160.868 83.9463Z" fill="#EB282D"/>
<path d="M87.2891 9.03027L88.9613 10.0336L89.9646 12.3748V14.3814L89.2957 15.0503L88.6269 14.3814L87.6235 10.3681L87.2891 9.03027Z" fill="#F5313D"/>
<path d="M223.077 96.3213H224.749L225.083 96.6557V99.6658H223.411L222.742 98.9969V96.9902L223.077 96.3213Z" fill="#F32F3A"/>
<path d="M94.3129 5.0166H95.9851L96.3196 6.35439L95.6507 7.02329L95.9851 7.69219L93.644 8.02663L92.6406 7.35774L93.3095 5.35105L94.3129 5.0166Z" fill="#F5313D"/>
<path d="M80.268 11.0371L80.9369 11.706L81.6058 13.0438L82.2747 13.7127H81.6058L82.6092 16.3883L81.2714 16.7227L79.9336 14.0471V11.3716L80.268 11.0371Z" fill="#F5313D"/>
<path d="M101.003 84.2803H103.678V84.6147H101.337V94.6482L100.334 94.3137L98.9961 91.3037L99.3305 90.3003L100.668 93.3104L101.003 84.2803Z" fill="#F6323E"/>
<path d="M86.9539 84.9492L88.6261 85.2837L88.2916 86.6215H84.2783V85.9526L83.6094 85.6181L83.9438 85.2837L86.9539 84.9492Z" fill="#EB282C"/>
<path d="M128.763 84.6152H129.432V86.2875L129.098 86.6219H125.753L124.75 85.6186L128.763 84.6152Z" fill="#EB282C"/>
<path d="M33.4438 90.6357H37.1227V91.6391L36.1194 92.308H33.4438L33.1094 90.9702L33.4438 90.6357Z" fill="#EB282C"/>
<path d="M152.844 93.6455L153.513 94.6489L154.182 97.9933L154.85 98.3278V98.6622H157.192L158.529 96.99L158.195 98.6622L157.526 99.6656L153.847 99.3311L152.844 95.3177V93.6455Z" fill="#F6323E"/>
<path d="M83.9453 90.6357H87.9587V92.308L84.6142 91.9735L83.9453 90.6357Z" fill="#EB282C"/>
<path d="M201.669 86.957H202.003V99.3316H201.334L201 88.2948L201.669 86.957Z" fill="#F6323E"/>
<path d="M111.705 83.9463H115.05L116.053 84.9496H111.036L109.364 86.6219L108.695 86.9563L109.364 85.2841L110.702 84.2807L111.705 83.9463Z" fill="#F6323E"/>
<path d="M81.6055 13.7129L83.6122 14.3818L82.9433 16.7229L83.9466 17.0574V17.3918L81.6055 17.0574L81.9399 16.054L81.6055 15.0507V13.7129Z" fill="#EC282D"/>
<path d="M63.5469 86.2881H66.2225L67.5602 87.2914L68.2291 87.6259V88.2948L66.2225 88.9637L65.5536 86.957L63.5469 86.6225V86.2881Z" fill="#F6323E"/>
<path d="M0.332031 84.6152H3.00761L2.67317 85.953H1.66982H0.666479V88.6286H0.332031V84.6152Z" fill="#EB282C"/>
<path d="M80.6016 84.6152L83.2771 85.2841L82.2738 86.2875V87.6253H81.2705V86.6219L80.6016 87.2908V84.6152Z" fill="#EB282C"/>
<path d="M95.9883 19.3984L100.002 19.7329L99.6672 20.7362H96.9916L95.9883 20.0673V19.3984Z" fill="#EF2B32"/>
<path d="M97.6572 14.7158L99.6639 15.0503L100.667 15.7192L100.333 16.3881L97.3227 16.0536L96.9883 15.0503L97.6572 14.7158Z" fill="#ED2A30"/>
<path d="M173.242 84.9492L173.911 85.2837L173.576 86.6215L171.235 86.287V85.6181L170.566 85.2837L173.242 84.9492Z" fill="#EB282C"/>
<path d="M81.2719 88.9629L82.6097 89.2973L82.2753 91.6385H81.2719L80.9375 89.6318L81.2719 88.9629Z" fill="#EB282C"/>
<path d="M51.1719 86.6221H52.8441L53.513 87.9599H54.8508L55.5197 86.9565V88.6288H52.8441L51.8408 87.6254V86.9565L51.1719 86.6221Z" fill="#F6323E"/>
<path d="M92.9766 84.6152L94.3144 84.9497V86.9564H93.311L92.9766 84.6152Z" fill="#ED292F"/>
</svg>
