<svg width="227" height="100" viewBox="0 0 227 100" fill="none" xmlns="http://www.w3.org/2000/svg">
<path d="M213.874 6.3584H226.88L226.302 7.51447L223.412 10.6937L221.389 13.0058L218.21 16.763L215.608 19.6532L212.14 23.6994L209.539 26.5896L207.516 28.9017L204.915 31.7919L202.314 34.9711L199.712 37.8613L197.689 40.1734L195.088 43.3526L192.198 46.5318L190.175 48.8439L186.996 52.6012L184.394 55.4913L181.793 58.6705L180.637 59.5376H167.92L165.608 61.5607L163.007 64.4509L160.406 67.6301L157.227 71.0983L155.204 73.4104L151.736 77.1676L148.267 81.2139L145.666 84.1041L143.643 86.4162L141.042 89.3064L140.464 89.5954L134.105 89.8844H15.6083L8.96094 89.5954L9.82799 88.1503L13.2962 84.1041L16.4754 80.0578L19.6546 76.3006L21.9667 73.4104L25.1459 69.6532L27.458 66.763L30.0592 63.5838L33.8164 58.9595L36.7066 55.2023L36.9956 54.9133H60.117L61.5621 53.4682L64.4523 50L66.4754 47.3989L70.2326 42.7746L71.9667 40.4624L76.013 35.5491L82.3713 27.4567L85.5505 23.6994L89.3078 18.7861L91.3309 16.474L141.62 16.185L205.782 15.896L207.227 14.4509L209.828 11.2717L213.874 6.3584Z" fill="#70BEBE"/>
<path d="M117.053 23.4102H137.284L181.503 23.6992L181.214 24.8552L178.613 28.0344L176.012 30.9246L173.122 34.6818L172.833 34.9708L121.099 35.2599L118.209 35.8379L113.584 38.15L111.272 40.1732L109.538 42.1963L108.093 45.6645L150.29 45.9535L152.602 46.8206L154.914 48.8437L155.492 49.9998V53.468L153.758 56.9362L150.001 61.5604L147.11 64.4506L143.931 67.0518L139.596 70.52L134.394 73.9882L130.058 76.5893L125.434 79.1905L121.966 79.7685H53.7578L54.3358 78.6125L57.515 75.1443L60.9832 71.387L63.0064 68.7859L63.5844 68.4969L108.96 68.2078L114.162 67.9188L117.92 66.4737L123.989 63.2946L126.59 61.2714L128.035 59.8263L129.48 56.9362V56.6472L86.1278 56.3581L82.3705 55.2021L80.6364 54.046L80.3474 53.468V50.5778L81.5035 48.2656L85.2607 43.6414L88.4399 40.1732L90.463 37.861L93.6422 34.1038L95.6653 31.5026L97.9775 29.1905L100.868 27.1674L104.336 25.7223L111.85 23.9882L117.053 23.4102Z" fill="#FDFEFE"/>
<path d="M100.579 0H176.88L210.695 0.289017V1.15607L206.938 5.20231L204.336 8.3815L201.157 11.8497L86.9954 12.1387L85.5503 13.5838L82.3711 17.341L79.1919 21.3873L75.4347 26.0116L72.2555 30.0578L68.4983 34.6821L65.3191 38.7283L61.5619 43.3526L58.3827 47.3988L56.0706 50.289L55.4925 50.578H36.4174L32.6602 50.289L32.9492 49.1329L34.3943 47.6879L36.4174 45.3757L39.3076 41.6185L41.6197 38.7283L44.7989 34.9711L47.6891 31.2139L51.7353 26.3006L54.0474 23.4104L58.0937 18.4971L61.2729 14.7399L64.163 10.9827L67.6313 6.6474L70.8104 2.60116L72.2555 0.578035L72.8336 0.289017L100.579 0Z" fill="#0784B8"/>
<path d="M171.965 63.873H185.26L184.971 65.0291L182.659 67.3413L180.058 70.5204L177.168 73.6996L174.566 76.8788L171.098 80.6361L168.786 83.5262L165.607 86.9944L163.006 90.1736L160.405 93.0638L158.382 95.3759L155.78 98.2661L153.757 100H0L0.867052 98.5551L2.60116 97.11L5.49133 94.2199L15.3179 93.9308H145.376L148.555 90.1736L150.578 87.8615L153.179 84.9713L156.936 80.6361L160.694 76.5898L162.717 74.2777L166.185 70.2314L168.786 67.3413L171.387 64.1621L171.965 63.873Z" fill="#0D88B8"/>
<path d="M87.5709 15.6074H89.305L91.3282 16.4745L89.5941 18.7866L86.4149 22.8329L82.6576 27.4571L81.2126 29.1912V28.3242V26.8791L78.6114 30.0583L76.5883 32.0814L75.1432 34.6826L74.5652 36.4167L72.8311 37.2837L71.964 39.3068L69.6519 41.0409L67.9178 43.3531L65.0276 47.3993L64.1605 48.8444L60.9813 51.4456L59.5363 52.6016L58.3802 52.8907L55.779 51.1566L41.6172 50.8675V50.5785L55.49 50.2895L56.9351 48.8444L60.6923 44.2201L63.8715 40.1739L71.386 30.9253L75.1432 26.012L76.5883 24.856L78.3224 24.567L80.6345 21.9658L80.9235 20.2317L83.2357 19.0756L86.1259 16.4745L87.5709 15.6074Z" fill="#F2FEFE"/>
<path d="M71.3885 2.60156L71.9666 2.89058L71.0995 4.04665L70.8105 5.20272L69.6544 5.49174L69.0764 6.93682L67.6313 9.24896H67.0533L66.4752 10.405L64.4521 13.2952L61.851 16.4744L60.9839 17.9195H60.4059V18.4975H59.8278L59.5388 19.6536L58.0937 21.0987L55.4926 24.2779H54.6255L54.0475 26.012L52.6024 27.4571L52.0244 27.7461L51.4463 28.9021H50.8683L50.2903 30.9253L48.5562 32.0813L46.8221 34.1045L45.0879 36.9946L43.0648 38.7287L42.1978 40.4628L40.1747 42.775H39.5966L39.0186 43.931L37.5735 46.2432H36.9955L36.7064 47.3993L35.8394 48.2663V49.4224L35.2614 50.0004H32.9492V49.1334L34.3943 47.6883L36.4174 45.3761L39.3076 41.6189L41.6197 38.7287L44.7989 34.9715L47.6891 31.2143L51.7353 26.301L54.0475 23.4108L58.0937 18.4975L61.2729 14.7403L64.1631 10.9831L67.6313 6.64781L70.2325 3.1796L71.3885 2.60156Z" fill="#0E7AAC"/>
<path d="M141.039 89.0176V89.8846L136.704 90.4627L16.4727 90.1736V89.8846L134.103 89.5956L140.461 89.3066L141.039 89.0176Z" fill="#F2FFFF"/>
<path d="M41.0424 53.4678H50.58V53.7568H55.4932L57.5164 54.0458L58.3834 54.6238L60.1175 54.9129V55.2019H39.3083L37.2852 54.9129V54.6238H38.7302L39.0193 54.0458L41.0424 53.4678Z" fill="#F2FEFE"/>
<path d="M47.4001 31.5029L47.6891 32.081L47.1111 33.237L46.533 34.6821L45.0879 36.9943L43.0648 38.7284L42.1978 40.4625L40.1747 42.7746H39.5966L39.0186 43.9307L37.5735 46.2428H36.9955L36.7064 47.3989L35.8394 48.2659V49.422L35.2614 50H32.9492V49.133L34.3943 47.6879L36.4174 45.3758L39.3076 41.6185L41.6197 38.7284L44.7989 34.9711L47.4001 31.5029Z" fill="#137DAD"/>
<path d="M166.474 70.8096L167.053 71.6766H166.474L166.185 72.8327H165.607L165.318 73.9888H164.451L163.873 75.1448L161.561 78.035L159.538 79.7691L158.96 80.6362L157.804 82.0812L156.359 83.5263L153.469 86.1275L153.18 85.5495L154.336 83.5263L158.093 79.4801L160.116 77.168L163.295 73.6997L166.185 71.0986L166.474 70.8096Z" fill="#107CAD"/>
<path d="M168.496 0.578125H210.982L209.248 2.89026L208.38 3.75732L207.224 3.4683L206.646 0.867142H168.496V0.578125Z" fill="#0572A9"/>
<path d="M70.8109 30.6357L71.0999 31.5028L67.3427 36.1271L64.1635 40.1733L61.5623 43.3525L60.4062 43.6415L60.9843 42.1964L62.4294 40.1733L63.8745 38.7282L66.4756 35.26L67.6317 33.2369L70.8109 30.6357Z" fill="#167FAD"/>
<path d="M72.832 0.289062L113.872 0.57808V0.867097H73.699L73.41 1.73415L72.543 1.44513L72.832 0.289062Z" fill="#0572A9"/>
<path d="M59.8284 43.9307H60.4064L60.1174 45.3758L56.9382 49.133L55.4931 50.5781H36.418V50.289L54.6261 50L56.0711 48.844L57.2272 46.8208L59.2503 44.7977H59.8284V43.9307Z" fill="#409DB5"/>
<path d="M183.238 64.1621H185.261L184.683 65.3182L182.66 67.3413L180.058 70.5205L178.902 70.2315L179.769 68.7864H180.636L180.925 67.6303L181.793 66.4742L182.082 64.4511L183.238 64.1621Z" fill="#1380AE"/>
<path d="M206.648 0.578125H210.984L209.25 2.89026L208.383 3.75732L207.226 3.4683L206.648 0.578125Z" fill="#0C78AB"/>
<path d="M181.791 58.3818V59.2489L181.213 59.8269L173.12 60.1159L168.785 60.405L167.34 59.8269L167.918 59.2489H180.635L181.791 58.3818Z" fill="#F2FFFF"/>
<path d="M171.386 64.1621H174.277L172.831 65.3182L171.386 66.1852L169.652 68.2084L169.074 67.9193L169.363 66.4742L171.386 64.1621Z" fill="#117CAD"/>
<path d="M77.1672 22.543H77.7452L77.1672 23.9881L74.277 27.4563L72.5429 29.7684L72.2539 28.6123L73.988 26.3002H74.566L74.8551 25.1441H75.4331L75.7221 23.9881L77.1672 22.543Z" fill="#1D85AF"/>
<path d="M178.034 71.3877L178.323 72.2547L176.011 75.1449L173.699 77.7461L173.121 76.879L175.144 74.5669L178.034 71.3877Z" fill="#1682B0"/>
<path d="M2.89022 96.8213H3.75727L3.46825 98.5554L2.6012 99.4224L2.02317 99.7115H0.289062L0.867097 98.5554L2.89022 96.8213Z" fill="#0E7AAC"/>
<path d="M172.543 63.0059H174.277L174.855 63.2949H183.815L184.393 63.8729H171.965V63.2949L172.543 63.0059Z" fill="#F2FEFE"/>
<path d="M85.2613 22.543H86.1284L85.5503 23.9881L83.8162 26.0112L82.6602 26.5892L82.9492 25.4331L83.8162 23.9881L85.2613 22.543Z" fill="#FBFEFE"/>
<path d="M155.781 97.1094L156.07 97.9764L154.625 99.4215H153.18L153.469 98.2654L155.781 97.1094Z" fill="#107AAB"/>
<path d="M180.925 67.6299L181.503 67.9189L181.214 69.075L180.058 70.5201L178.902 70.231L179.769 68.786H180.636L180.925 67.6299Z" fill="#0B7BAE"/>
<path d="M77.1677 22.543H77.7457L77.1677 23.9881L75.7226 25.7222H75.4336V24.2771L77.1677 22.543Z" fill="#1F88B1"/>
<path d="M61.5621 52.8906L62.1402 53.1796L60.6951 54.9137L59.25 54.3357L60.4061 53.1796L61.5621 52.8906Z" fill="#F2FEFE"/>
</svg>
