<svg width="300" height="50" viewBox="0 0 300 50" fill="none" xmlns="http://www.w3.org/2000/svg">
<path d="M185.816 6.16211H190.822L193.711 6.54722L196.407 7.31743L200.065 9.05042L202.183 10.5908L204.109 12.3238L206.034 14.6345L207.382 16.7526L208.537 19.8334L208.923 21.5664L209.115 23.492V25.2249L208.73 27.9207L207.767 31.0016L206.419 33.5048L204.879 35.4303L203.146 37.3558L200.45 39.2814L197.369 41.0144L194.674 41.9771L189.86 42.9399H187.164L183.891 42.5548L180.81 41.7846L177.151 40.0516L175.033 38.7037L172.53 36.5856L170.797 34.4675L169.064 31.7718L168.294 29.8462L167.523 26.5728V22.1441L168.294 19.0632L169.256 16.56L171.182 13.8643L172.915 11.9387L174.263 10.5908L177.151 8.66531L179.654 7.50999L182.735 6.54722L185.816 6.16211Z" fill="#029272"/>
<path d="M113.03 0H144.031L146.534 0.770216L148.267 1.73299L149.807 3.08086L150.963 4.62129L152.118 6.93194L152.696 9.6277V17.5224L152.503 21.7586L152.311 22.3363L152.888 22.9139L156.547 24.8395L157.702 25.4171V25.9948L131.515 25.8022L132.67 24.0692H133.055L133.44 23.1065L134.981 21.1809L137.677 17.5224L139.795 14.4415H140.18L140.565 13.4788L142.49 10.9756L142.875 10.2054H143.261L143.646 9.43514L144.223 8.85748V8.47237H121.117L120.732 8.66493V14.249L132.863 14.0564L132.478 15.0192L130.937 16.7522L129.589 18.6777L127.664 21.1809L125.353 24.4543L123.235 27.1501L120.347 31.0012L120.154 31.3863L158.087 31.5788L157.317 32.3491L152.696 34.4671L152.503 34.6597V40.0512L151.155 40.2438H146.149L121.887 40.0512L119.191 39.4735L116.496 37.9331L114.955 36.3927L113.607 34.082L113.03 32.5416L112.837 31.1937L112.645 16.5596L112.837 0.192554L113.03 0Z" fill="#A8D563"/>
<path d="M112.836 19.0625L114.376 19.2551L117.265 20.0253L120.346 21.1806L123.812 22.9136V23.2987L124.774 23.4912L125.544 24.2615L123.041 27.3423L120.346 31.0008L120.153 31.3859L158.086 31.5785L157.316 32.3487L152.695 34.4668L152.502 34.6594V40.0509L151.154 40.2434H146.148L121.886 40.0509L119.19 39.4732L116.494 37.9328L114.954 36.3923L113.606 34.0817L113.028 32.5413L112.836 31.1934V19.0625Z" fill="#A8CA30"/>
<path d="M192.362 8.66504L192.554 9.05015L191.592 10.9757L191.399 11.7459V14.2491L191.977 16.5597L193.132 18.8704L195.443 22.1438L197.368 24.8396L198.524 27.1502L198.909 28.6906V31.9641L198.138 34.8524L196.791 37.163L195.443 38.896L194.287 39.8588L193.517 39.6662L192.939 38.7034V38.3183L191.977 37.9332L190.436 37.163L186.778 36.3928L179.846 35.43L178.69 34.8524L177.92 33.8896V32.7343L179.268 30.6162V30.0385L178.113 29.6534V29.0758L178.498 28.6906L178.113 27.1502L179.268 25.6098V24.8396L177.535 23.8768V23.2991L179.076 22.1438L183.889 19.6406L184.66 19.0629L185.622 15.0193L186.97 12.7087L188.318 11.3608L190.436 9.82036L192.362 8.66504Z" fill="#FEFEFE"/>
<path d="M147.305 1.54004L148.268 1.73259L149.808 3.08047L150.964 4.6209L152.119 6.93155L152.697 9.6273V17.522L152.504 21.7582L152.311 22.3359L152.889 22.9135L156.548 24.8391L157.703 25.4167V25.9944L131.516 25.8018L132.671 24.0688H133.056L133.441 23.1061L134.982 21.1805L137.677 17.522L139.795 14.4411H140.181L140.566 13.4784L142.491 10.9752L142.876 10.205H143.261L143.647 9.43475L144.224 8.85709V8.47198H139.218L138.833 8.08687L141.143 6.93155L141.914 6.35389H142.299L142.491 5.77622L144.224 4.42835L145.187 3.65813H145.572L145.765 3.08047L146.92 2.1177H147.305V1.54004Z" fill="#025C75"/>
<path d="M34.0852 2.11816H52.3778L52.5704 2.31072V5.39158L52.1853 5.58413H35.2405L33.315 5.96924L32.3522 6.93201L31.9671 7.70223V12.7086L49.1044 12.9012V16.1746L31.9671 16.3672V21.9512L32.7373 23.4916L33.7001 24.2619L52.5704 24.4544V27.7278L52.3778 27.9204H34.4703L32.3522 27.7278L30.8118 26.9576L29.0788 25.2246L28.3086 23.2991V6.5469L29.0788 4.62136L30.4267 3.27349L32.1597 2.31072L34.0852 2.11816Z" fill="#056075"/>
<path d="M61.0434 2.11816H79.336V5.39158L61.6211 5.58413L60.0806 5.96924L58.9253 7.31712L58.7327 7.89478V12.7086L75.87 12.9012V15.982L75.4849 16.1746L58.7327 16.3672V21.9512L59.3104 23.6842L60.0806 24.0693L60.8508 24.2619L79.336 24.4544V27.7278H59.1179L57.5774 26.9576L56.6146 25.9948L55.8444 25.0321L55.2668 24.0693L55.0742 23.2991V6.73946L55.6519 5.00647L56.9998 3.46604H57.3849V3.08093L58.9253 2.31072L61.0434 2.11816Z" fill="#035E75"/>
<path d="M25.032 2.11816L25.9948 2.31072V4.23626L24.6469 5.77669L18.4852 11.9384L17.1373 13.4788L12.9011 17.715L11.5532 19.2555L6.93194 23.8768L6.54683 24.4544H25.9948L26.3799 24.647V27.7278L26.1873 27.9204L0 27.7278V25.8023L0.192554 25.2246L5.19896 20.2182L5.39151 19.8331H5.77662L6.16172 19.0629L12.9011 12.3235L14.249 10.7831L15.4043 9.43521L16.9447 8.08733L18.4852 6.35435L19.4479 5.39158H0.385108V2.31072L25.032 2.11816Z" fill="#035E75"/>
<path d="M219.126 6.54688H237.804L239.152 7.7022L239.73 8.08731L239.537 9.24263L236.841 12.9012L234.146 16.1746L232.22 18.8703L229.717 21.9512L227.021 25.6097L224.903 28.1129L224.518 28.6906L235.879 28.498L238.574 27.9204L240.5 26.5725H241.463V27.5352L240.5 28.6906L242.233 27.5352H243.003L242.81 28.498L241.463 30.0385L238.959 31.5789L237.034 32.1565H230.102L219.126 31.964L218.934 31.0012L217.586 30.4236L217.778 28.8831L219.704 26.3799L222.4 22.914L224.518 20.2182L227.214 16.7522L229.332 14.0565L230.872 12.1309L232.605 9.82029L228.754 9.62774L220.282 9.43518L219.897 8.47241L218.741 7.7022L218.549 6.93198L219.126 6.54688Z" fill="#049372"/>
<path d="M245.314 6.54688H258.407L258.985 6.73943L259.563 7.31709L260.525 7.89475V9.05008L260.333 9.43518H250.32V16.9448H258.022L258.407 18.1001H259.563L259.755 19.448L259.178 19.8331L250.513 20.0256L250.32 28.8831H259.755L260.333 29.6533V30.0385H261.296V31.7714L261.103 31.964H246.662L246.084 31.0012L245.121 30.4236V6.73943L245.314 6.54688Z" fill="#029072"/>
<path d="M265.146 6.54688H278.624L279.01 7.31709L280.165 7.7022L280.357 7.89475L280.165 9.24263L279.972 9.43518H270.152V16.9448H277.854L278.432 17.9076L279.395 18.2927V19.6405L279.202 19.8331L269.96 20.0256L270.152 22.914V28.8831H279.587L280.165 29.8459L280.935 30.0385L281.128 30.4236V31.7714L280.165 31.964L270.922 32.1565H267.649L266.494 31.964L266.301 30.8087L264.953 30.6161V6.73943L265.146 6.54688Z" fill="#059172"/>
<path d="M185.816 6.16211H190.822L193.711 6.54722L196.407 7.31743L200.065 9.05042L202.183 10.5908L204.109 12.3238L206.034 14.6345L207.382 16.7526L208.537 19.8334L208.923 21.5664L209.115 23.492V25.2249L208.73 27.9207L207.767 31.0016L206.419 33.5048L204.879 35.4303L203.146 37.3558L200.45 39.2814L197.369 41.0144L194.674 41.9771L189.86 42.9399H187.164L183.891 42.5548L180.81 41.7846L177.151 40.0516L175.033 38.7037L172.53 36.5856L170.797 34.4675L169.064 31.7718L168.294 29.8462L167.523 26.5728V22.1441L168.294 19.0632L169.256 16.56L171.182 13.8643L172.915 11.9387L174.263 10.5908L177.151 8.66531L179.654 7.50999L182.735 6.54722L185.816 6.16211ZM185.431 7.50999L181.772 8.2802L178.884 9.43553L176.381 10.7834L174.263 12.5164L172.53 14.4419L170.797 17.1377L169.642 19.8334L169.064 21.9515L168.871 23.2994V25.2249L169.256 27.9207L170.412 31.0016L171.76 33.1197L173.3 35.2377L175.033 36.9707L177.729 38.7037L180.81 40.2441L184.083 41.2069L187.164 41.592H189.475L193.711 41.0144L196.792 39.859L200.45 37.7409L202.376 36.2005L204.109 34.275L205.842 31.5792L206.804 29.4611L207.382 27.1505L207.575 25.6101V23.492L207.19 20.4111L206.034 17.5228L204.686 15.4047L202.953 13.2866L201.22 11.5536L199.102 10.2057L196.407 8.85786L193.518 7.89509L191.593 7.50999H185.431Z" fill="#040B0C"/>
<path d="M132.094 31.5791H158.089L157.318 32.3493L152.697 34.4674L152.504 34.66V40.0515L151.157 40.244H146.15L135.752 40.0515L135.175 39.8589L133.442 34.66L132.094 31.9642V31.5791Z" fill="#025C75"/>
<path d="M284.789 6.54688H287.87L288.64 7.31709L289.988 7.89475V28.8831L292.876 28.6906H295.572L298.653 28.8831L299.616 30.0385L300.001 31.0012V31.7714L295.572 31.964H286.329L285.944 31.0012L284.789 30.4236V6.54688Z" fill="#028E73"/>
<path d="M81.8359 2.31055H85.4945L85.687 20.2181L85.8796 24.4542L105.713 24.6468V27.7277H81.8359V2.31055Z" fill="#025B75"/>
<path d="M112.837 10.7832L114.378 10.9758L118.421 11.746L120.154 11.9385L120.539 12.1311L120.732 14.2492L132.863 14.0566L132.478 15.0194L130.937 16.7524L129.589 18.6779L127.664 21.1811L125.546 24.0694L124.775 23.6843L123.813 23.2992V22.9141L122.85 22.7215L121.887 22.1439L118.999 20.796L116.111 19.8332L112.837 19.063L112.645 18.4854L112.837 10.7832Z" fill="#025C75"/>
<path d="M137.485 17.7148H141.721L143.454 18.1L145.572 18.4851L149.038 19.8329L151.156 20.7957V21.1808L152.504 21.5659L152.311 22.3361L152.889 22.9138L156.548 24.8393L157.703 25.417V25.9947L131.516 25.8021L132.671 24.0691H133.056L133.441 23.1064L134.982 21.1808L137.485 17.7148Z" fill="#A8D563"/>
<path d="M133.056 0H144.032L146.535 0.770216L147.69 1.34788L147.305 1.54043V2.11809L145.765 3.27342L144.802 4.23619L142.491 5.96917L141.914 6.54683L139.41 8.08726L137.87 8.27982H129.205L128.82 7.12449L128.242 0.192554L133.056 0Z" fill="#6CB04B"/>
<path d="M112.836 19.0625L114.376 19.2551L117.265 20.0253L120.346 21.1806L123.812 22.9136L124.004 23.4912L122.849 25.4168H122.271L121.886 26.3795L119.96 28.8827L118.42 31.9636L116.88 36.0072L116.687 36.3923V37.7402L115.917 37.3551L114.569 35.8147L113.221 33.1189L112.836 31.1934V19.0625Z" fill="#6EB14C"/>
<path d="M218.742 33.8896H221.053L222.401 34.4673L223.364 35.6226V36.778L222.593 37.5482L222.786 38.5109L223.749 39.6663L223.556 41.3993L222.208 42.5546L221.631 42.7471H218.55L217.587 42.5546L217.395 42.1695V34.2748L218.742 33.8896Z" fill="#119970"/>
<path d="M287.29 33.8896H289.023L290.756 34.2748L291.527 35.2375L291.912 36.2003L291.719 37.5482L290.179 39.0886L290.564 39.8588L291.912 41.5918L292.874 42.362V42.9397L290.949 42.5546L289.601 41.0141L288.446 39.4737L287.29 39.0886V42.7471H285.943L285.75 42.5546V34.2748L285.943 34.0822L287.29 33.8896Z" fill="#0E9871"/>
<path d="M238.767 7.70215L239.73 8.08726L239.537 9.24258L236.842 12.9011L234.146 16.1745L232.22 18.8703L229.717 21.9511L227.021 25.6097L224.903 28.1129L224.326 28.6905H223.17L222.785 28.498L223.17 27.7278L225.096 25.6097L227.406 22.3362L229.717 19.6405L232.798 15.4043L235.109 12.7085L236.649 10.5905L237.997 8.47236L238.767 7.70215Z" fill="#02080A"/>
<path d="M257.832 33.8896L258.602 34.0822L260.335 36.778L261.106 38.1258L261.491 38.3184L261.876 37.1631L263.416 34.4673L263.994 34.0822H264.572L264.186 35.2375L262.454 38.5109L261.876 39.6663L261.683 42.7471H260.335L260.143 39.4737L259.373 37.9333L257.447 35.045L257.255 34.6599L254.366 35.045L254.174 42.5546L253.981 42.7471H252.633L252.441 42.5546V35.045L249.938 34.8524V34.0822H257.255L257.832 33.8896Z" fill="#109871"/>
<path d="M98.7796 31.7715H101.668L103.208 32.7343L104.171 34.4672V36.0077L103.401 37.163L102.053 38.3183L101.475 38.5109H99.3573L98.5871 38.1258L98.3945 37.3555V33.3119L98.7796 31.7715Z" fill="#55B020"/>
<path d="M235.495 33.8896L236.458 34.0822L238.191 38.1258L239.731 42.1695V42.7471H238.576L237.998 41.7844L237.228 39.8588L237.036 39.6663H233.762L232.607 42.362L231.837 42.7471H231.066L231.452 41.7844L234.532 35.2375L235.303 34.0822L235.495 33.8896Z" fill="#0F9571"/>
<path d="M280.358 33.8896L281.129 34.0822L282.669 37.3556L284.595 42.362V42.7471H283.247L282.284 40.629L281.899 39.4737L278.433 39.8588L277.085 42.5546L276.315 42.7471L275.93 42.362L279.203 35.4301L279.973 34.0822L280.358 33.8896Z" fill="#129971"/>
<path d="M56.8031 31.7715H59.1137L60.269 32.3491L61.0393 33.5045L60.8467 34.4672L60.6542 35.2375L61.2318 35.8151V37.163L59.8839 38.3183L59.4988 38.5109H57.1882L56.6105 38.1258L56.418 37.5481V32.3491L56.8031 31.7715Z" fill="#5BB225"/>
<path d="M241.079 34.082H242.235L242.427 34.2746V39.4735L242.812 41.2065L243.582 41.7842H245.315L246.471 41.2065L246.856 40.4363L247.048 34.2746L247.241 34.082H248.396L248.589 34.2746V40.0512L247.819 41.5916L246.856 42.3618L245.893 42.747H243.005L241.849 41.9767L241.079 40.8214L240.887 40.0512V34.2746L241.079 34.082Z" fill="#149A71"/>
<path d="M20.6045 31.7715H22.3375L23.4929 32.3491L24.0705 32.9268L24.2631 34.6598L23.3003 35.8151L23.4929 36.9704L24.0705 37.163L24.2631 38.5109L23.3003 38.3183L22.145 36.9704L21.7599 36.3928H20.9896V38.1258L20.7971 38.5109H19.8343L19.6418 38.3183L19.4492 35.43V32.3491L19.8343 31.964L20.6045 31.7715Z" fill="#57B123"/>
<path d="M288.641 7.70215H289.603L289.796 8.66492V28.8831L288.833 28.6905L288.641 28.498V7.70215Z" fill="#020506"/>
<path d="M25.9972 31.7715L26.96 31.964L28.3079 33.697L28.8855 34.6598H29.4632L29.8483 33.697L31.0036 31.964L31.7739 31.7715L32.159 31.964V38.1258L31.9664 38.3183H30.6185L30.8111 36.7779V34.6598L30.426 34.4672L30.0409 35.43L29.2707 36.9704L28.5004 36.7779L27.9228 35.0449L27.1526 34.6598V36.7779L27.3451 38.3183L27.1526 38.5109H26.1898L25.8047 37.3555V32.1566L25.9972 31.7715Z" fill="#57AF26"/>
<path d="M242.235 27.5352H243.006L242.813 28.4979L241.465 30.0384L238.962 31.5788L237.036 32.1564H230.104L219.129 31.9639V30.8086H221.44L223.943 31.0011V31.1937L227.024 31.3862H231.26V31.1937L236.266 30.8086L238.769 30.0384L239.925 29.2681H240.31V28.883L242.235 27.5352Z" fill="#032022"/>
<path d="M294.419 34.082H299.233L299.04 34.8522L295.96 35.0448V37.548L298.848 37.7406V38.5108L295.96 38.7033V41.7842H299.426V42.5544L298.655 42.747H294.419L294.227 42.5544V34.2746L294.419 34.082Z" fill="#0E9871"/>
<path d="M0.192554 31.7715H2.88831L4.04363 32.5417L4.62129 33.697L4.42874 35.0449L3.46597 36.0077L2.69575 36.3928H1.54043L1.34788 38.3183L0.577662 38.5109L0 38.1258V31.964L0.192554 31.7715Z" fill="#7CBB50"/>
<path d="M65.8545 31.7715H67.5875L68.7429 32.3491L69.5131 33.697L69.3205 35.2375L68.1652 36.2002L67.7801 36.3928H66.2396V38.3183L65.2769 38.5109L64.8918 38.1258L64.6992 32.9268L65.0843 31.964L65.8545 31.7715Z" fill="#54B01D"/>
<path d="M36.011 31.7715L36.9738 31.964L38.5142 35.0449L39.2844 37.3555L39.477 38.5109H38.3217L37.5514 37.3555H35.2408L34.4706 38.5109L33.5078 38.3183L33.8929 36.7779L35.0482 33.3119L36.011 31.7715Z" fill="#58B124"/>
<path d="M14.6349 31.9639H15.7902L16.9455 33.8894L18.1008 37.933L17.9083 38.5107L16.9455 38.3181L16.3679 37.3554H14.0572L13.287 38.5107H12.3242L12.5168 37.3554L13.8646 33.3117L14.6349 31.9639Z" fill="#58B123"/>
<path d="M225.677 34.082H230.298V34.8522L227.217 35.0448L227.025 35.4299V36.7778L227.217 37.548L229.913 37.7406L230.106 38.7033L227.025 38.5108V41.014L227.217 41.5916L227.602 41.7842H230.106L230.491 42.747H226.062L225.484 42.5544V34.2746L225.677 34.082Z" fill="#139A71"/>
<path d="M43.134 31.7715L44.2893 31.964L44.4818 32.9268V34.4672L46.5999 34.2747V32.1566L47.5627 31.7715L47.9478 31.964L48.1404 38.1258L47.9478 38.5109H46.985L46.7925 38.3183L46.4074 35.8151H44.6744L44.2893 38.3183L43.134 38.5109L42.9414 38.3183V31.964L43.134 31.7715Z" fill="#50AE1E"/>
<path d="M279.78 7.70215L280.358 7.8947L280.165 9.24258L279.973 9.43513L270.153 9.62769L269.96 16.9447L268.805 16.7522V8.47236L279.01 8.27981L279.78 7.8947V7.70215Z" fill="#02090B"/>
<path d="M6.35386 31.7715L7.31663 31.964V34.4672H9.62727V32.1566L9.81983 31.964H10.9752L11.1677 32.1566L10.9752 38.1258L10.3975 38.5109L9.62727 38.3183L9.43472 35.8151L7.50918 35.6226L7.31663 38.3183L6.54641 38.5109L5.96875 38.3183V31.964L6.35386 31.7715Z" fill="#53B01F"/>
<path d="M278.817 18.292H279.395V19.6399L279.203 19.8324L269.96 20.025V28.8825L268.805 28.6899V20.2175L268.997 19.2548L269.382 19.0622L278.817 18.6771V18.292Z" fill="#020809"/>
<path d="M272.08 33.8896H273.621L275.161 34.2748L275.354 34.8524L275.161 35.2375H273.813L271.888 35.045L270.733 35.6226L270.155 36.5854V39.6663L270.925 41.2067L271.888 41.7844H273.813L275.161 41.5918L274.969 42.362L274.198 42.7471H271.118L269.77 41.9769L269 41.0141L268.422 39.4737V37.3556L269.192 35.4301L270.54 34.2748L272.08 33.8896Z" fill="#159B70"/>
<path d="M260.144 7.70215L260.529 7.8947V9.05003L260.336 9.43513L250.323 9.62769L250.131 16.9447H249.168V8.66492L249.938 8.47236L259.373 8.27981L260.144 8.08726V7.70215Z" fill="#030607"/>
<path d="M50.0648 31.7715L51.0276 31.964V36.0077L51.4127 36.9704L52.3754 37.163L53.1457 36.7779L53.3382 31.964L53.9159 31.7715L54.6861 31.964V36.7779L54.1084 37.7407L52.9531 38.5109H51.2201L50.0648 37.5481L49.6797 36.5853V31.964L50.0648 31.7715Z" fill="#57B124"/>
<path d="M260.911 30.2305H261.297V31.7709L261.104 31.9635H246.662L246.277 30.8081L258.408 30.6156L260.526 30.423L260.911 30.2305Z" fill="#031517"/>
<path d="M249.938 34.082H256.677L256.484 34.8522L254.366 35.0448L254.174 42.5544L253.981 42.747H252.633L252.441 42.5544V35.0448L249.938 34.8522V34.082Z" fill="#149A71"/>
<path d="M280.746 30.2305L281.131 30.423V31.7709L280.169 31.9635L270.926 32.156H267.653L266.497 31.9635L266.305 30.8081L280.746 30.6156V30.2305Z" fill="#091D1B"/>
<path d="M258.985 18.292L259.756 18.4845V19.4473L259.178 19.8324L250.513 20.025L250.321 20.2175L250.128 28.8825L249.165 28.6899L248.973 27.1495V21.758L249.165 19.2548L250.898 19.0622L251.668 19.4473L254.364 19.2548L256.097 18.8697L258.793 18.6771L258.985 18.292Z" fill="#020506"/>
<path d="M134.982 21.1807L135.752 21.9509L137.292 24.069L138.833 25.4168V25.802H131.516L132.671 24.069H133.056L133.441 23.1062L134.982 21.1807Z" fill="#025D75"/>
<path d="M70.4738 31.7715H71.4366L72.3993 33.697L72.7845 36.2002H73.3621L73.9398 34.2747L74.5174 32.1566L74.9025 31.7715L75.8653 31.964L76.0579 32.5417L74.5174 37.163L73.5547 38.5109L72.3993 38.1258L71.4366 35.8151L70.6664 33.3119L70.2812 31.964L70.4738 31.7715Z" fill="#59B125"/>
<path d="M299.42 30.2305L299.805 30.423L299.998 31.7709L295.569 31.9635H286.327L285.941 30.8081L299.42 30.6156V30.2305Z" fill="#021113"/>
<path d="M219.898 8.08691L232.8 8.27947L233.377 8.47202L233.57 9.04968L232.992 9.43479H220.284L219.898 8.08691Z" fill="#02495D"/>
<path d="M92.6195 31.7715H96.6631L97.0482 31.964V32.9268L95.7003 33.3119L95.5078 38.3183L95.3152 38.5109H94.3525L93.9674 38.1258V34.2747L93.7748 33.5045L92.2344 32.9268V31.964L92.6195 31.7715Z" fill="#7FBC53"/>
<path d="M235.303 35.4297L235.88 35.8148L237.036 38.8957L234.917 39.2808L234.725 39.6659H233.762L232.607 42.3616L231.837 42.7467H231.066L231.452 41.784L233.955 36.3925L234.532 36.0073L235.11 36.1999L235.303 35.4297Z" fill="#149971"/>
<path d="M77.4085 31.7715H81.0671L81.8373 32.1566L81.6447 33.1194H80.1043L79.9117 38.5109H78.7564L78.5639 38.3183L78.3713 33.5045L77.216 32.9268L77.0234 31.964L77.4085 31.7715Z" fill="#56B11E"/>
<path d="M112.453 43.1318H114.186V43.7095L113.994 44.0946V47.7531L114.956 48.3308L115.919 47.9457L117.074 46.2127L117.845 45.635L118.615 45.8276L119.578 46.9829L119.385 48.1382L118.422 48.9085L117.46 48.7159L116.882 48.1382L116.112 48.5233L115.727 48.9085L112.646 48.7159L113.031 47.9457L113.223 43.7095L112.453 43.5169V43.1318Z" fill="#073133"/>
<path d="M88.5754 31.7715L89.7307 31.964L89.9232 36.7779L90.1158 36.9704H92.0413L92.2339 37.9332L91.8488 38.5109H89.5381L88.5754 38.1258L88.3828 37.9332V31.964L88.5754 31.7715Z" fill="#49AC13"/>
<path d="M99.9386 33.1191H101.672L102.634 34.0819L102.827 34.467V35.8149L102.057 36.9702L100.709 37.3553L99.7461 36.7777V33.3117L99.9386 33.1191Z" fill="#FEFEFE"/>
<path d="M287.872 34.6602L289.605 35.0453L290.375 35.8155L290.182 37.5485L289.22 38.3187L287.487 38.1261L287.102 37.3559V35.2378L287.294 34.8527L287.872 34.6602Z" fill="#FEFEFE"/>
<path d="M219.126 38.5107H220.474L221.822 39.0884L222.207 39.6661V41.0139L221.052 41.9767H219.511L218.934 41.3991V39.281L219.126 38.5107Z" fill="#FEFEFE"/>
<path d="M279.588 35.4297H279.781L279.588 36.7776L278.818 38.8957H281.321V39.2808L279.588 39.6659L278.433 39.8584L277.085 42.5542L276.315 42.7467L275.93 42.3616L279.011 35.8148L279.588 35.4297Z" fill="#139771"/>
<path d="M237.809 8.47266L238.001 8.85776L236.653 10.7833L234.92 13.0939L232.61 15.7897L230.684 18.678L228.374 21.3738L226.448 23.877L224.908 25.9951L223.367 27.728V27.1504L225.678 24.2621L227.603 21.5663L229.721 18.8706L233.573 13.8642L236.268 10.3982L237.809 8.47266Z" fill="#025A76"/>
<path d="M0.579273 31.9639H3.27503L4.2378 32.9266L4.6229 33.6969L4.43035 35.0447L3.27503 36.2001H1.7346L1.54204 35.2373L3.27503 35.0447L3.08247 33.5043L2.50481 33.1192L1.15693 32.9266V33.3117H0.386719V32.1564L0.579273 31.9639Z" fill="#4FAE1A"/>
<path d="M218.934 30.6152L236.263 30.8078V31.0003L233.76 31.1929L233.953 31.578H227.021L220.281 31.3854V31.1929L221.437 31.0003H218.934V30.6152Z" fill="#025A76"/>
<path d="M155.392 43.3242L156.162 43.7093L155.969 45.6349L157.51 46.2125L158.088 47.1753V48.5232L157.895 48.7157H155.584L155.199 48.3306L155.392 45.8274L155.199 43.5168L155.392 43.3242Z" fill="#05373B"/>
<path d="M219.511 34.6602L220.859 34.8527L221.822 35.8155L221.629 37.1634L220.859 37.741H219.319L218.934 36.9708V35.2378L219.511 34.6602Z" fill="#FEFEFE"/>
<path d="M145.188 45.8281L146.343 46.0207L147.883 47.5611L148.076 48.3313H149.039L149.231 46.9834L149.039 46.5983L148.076 46.7909V46.0207L149.039 45.8281L149.616 46.0207L150.002 47.176V48.5239L149.039 48.909L147.883 48.7164L146.15 46.5983L145.188 46.4058L144.61 46.9834L144.803 47.7537L145.958 47.9462L145.765 48.909L144.803 48.7164L143.84 47.5611L144.032 46.5983L145.188 45.8281Z" fill="#052328"/>
<path d="M289.216 9.43457L289.601 10.2048V26.5719H289.409L289.216 21.9506L289.023 13.8633V9.62712L289.216 9.43457Z" fill="#025A76"/>
<path d="M258.409 18.292H258.987L258.794 18.8697L254.75 19.2548L254.365 19.4473L251.67 19.6399L250.899 19.2548H249.166V21.758L248.974 26.5718H248.781V19.0622L248.974 18.8697L257.831 18.4845L258.409 18.292Z" fill="#025A76"/>
<path d="M43.3254 31.9639L44.0956 32.1564L44.2881 36.2001L44.0956 38.3181L43.1328 38.1256V32.1564L43.3254 31.9639Z" fill="#46AA10"/>
<path d="M133.057 45.8281H134.212L134.982 46.5983V47.9462L134.212 48.7164H133.057L132.286 47.7537L132.094 47.176L133.057 45.8281Z" fill="#072B2B"/>
<path d="M43.134 31.7715L44.2893 31.964L44.4818 32.9268V34.4672L46.5999 34.2747V32.1566H46.985V34.4672L46.7925 34.8523L44.6744 34.6598L44.8669 35.2375L46.7925 35.43L47.1776 38.1258L47.9478 38.5109H46.985L46.7925 38.3183L46.4074 35.8151H44.6744L44.2893 38.3183H44.0967V32.1566H43.3265V38.1258L43.9042 38.5109L42.9414 38.3183V31.964L43.134 31.7715Z" fill="#8AC357"/>
<path d="M258.987 18.292L259.757 18.4845V19.4473L259.179 19.8324H252.055L252.247 19.4473L254.365 19.2548L256.098 18.8697L258.794 18.6771L258.987 18.292Z" fill="#040D0E"/>
<path d="M124.779 45.8281L125.549 46.0207L126.127 47.3686V48.3313L125.549 48.909H124.202L123.816 48.7164V46.9834L124.394 46.0207L124.779 45.8281Z" fill="#072826"/>
<path d="M235.3 35.4297L235.878 35.8148L237.033 38.8957H234.145L234.337 37.5478L235.3 35.4297Z" fill="#FEFEFE"/>
<path d="M279.976 35.6221L280.553 35.8146L281.709 38.7029L281.516 39.088L278.82 38.8955L279.013 37.7402L279.976 35.6221Z" fill="#FEFEFE"/>
<path d="M152.119 7.70215L152.504 8.27981L152.697 9.62769V17.5224L152.504 21.566L151.541 21.3735L151.156 21.1809L151.349 20.7958L152.312 21.1809L152.119 17.5224V7.70215Z" fill="#31A66E"/>
<path d="M6.16016 32.1562H7.12293L7.31548 35.4297L7.12293 38.1254L6.35271 38.318L6.16016 38.1254V32.1562Z" fill="#43AA0D"/>
<path d="M219.129 30.8086H221.44L223.943 31.0011V31.1937L229.719 31.5788V31.7714H219.321L219.129 30.8086Z" fill="#030506"/>
<path d="M77.4085 31.7715H81.0671L81.8373 32.1566L81.6447 33.1194H80.1043L79.9117 37.9332H79.7192L79.5266 33.3119L79.7192 32.9268H79.3341L79.1415 32.1566H77.216L77.0234 32.7343V31.964L77.4085 31.7715Z" fill="#80BC52"/>
<path d="M278.434 18.292H278.819V18.6771L278.048 18.8697L268.998 19.2548L268.806 28.6899L269.383 28.4973V28.8825H268.613V18.8697L277.856 18.4845L278.434 18.292Z" fill="#025A76"/>
<path d="M6.35386 31.7715L7.31663 31.964V34.4672H9.62727V34.6598H7.70173V35.43H8.85706V35.6226H7.50918L7.31663 38.3183L6.54641 38.5109L6.73897 38.1258H7.12407V32.1566L6.35386 32.3491V38.3183H5.96875V31.964L6.35386 31.7715Z" fill="#8DC559"/>
<path d="M120.537 46.0205H120.923L121.115 47.946L121.308 48.9088L122.078 48.5237V46.7907L121.693 46.0205L122.656 46.2131L122.848 46.7907V48.5237L122.27 49.679L121.308 49.2939L120.345 48.1386L120.152 46.5982L120.537 46.0205Z" fill="#02222B"/>
<path d="M131.322 43.5176H131.707L131.515 44.4803V46.5984L130.937 46.791L130.744 47.7538H131.707L131.515 48.524L130.552 48.7165L130.359 48.524V45.8282L130.744 44.0952L131.322 43.5176Z" fill="#072727"/>
<path d="M21.3745 32.9268L22.5299 33.1193L23.1075 33.8895L22.915 34.8523L21.7596 35.2374L20.9894 34.8523L20.7969 34.4672V33.3119L21.3745 32.9268Z" fill="#FEFEFE"/>
<path d="M126.895 43.3242L127.857 43.5168L128.05 44.8646L128.242 48.3306L128.05 48.7157H126.895L127.087 48.1381L127.472 47.9455L127.28 46.2125L127.087 44.0944L126.895 43.3242Z" fill="#082B2A"/>
<path d="M66.6245 32.9268L67.7799 33.1193L68.165 33.5044V34.6597L67.5873 35.0449H66.432L66.0469 34.6597V33.3119L66.6245 32.9268Z" fill="#FEFEFE"/>
<path d="M142.493 43.3242H143.456L143.264 44.4795V48.7157L142.493 48.5232L142.301 45.0572L142.493 43.3242Z" fill="#042428"/>
<path d="M57.7668 35.6221H59.6923L59.8849 35.8146L59.6923 37.1625L58.1519 37.3551L57.5742 36.9699V35.8146L57.7668 35.6221Z" fill="#FEFEFE"/>
<path d="M1.73276 32.9268L2.88809 33.1193L3.2732 33.5044V34.6597L2.50298 35.0449H1.54021L1.34766 34.8523V33.3119L1.73276 32.9268Z" fill="#FEFEFE"/>
<path d="M88.5754 31.7715L89.7307 31.964L89.9232 36.7779L90.1158 36.9704H92.0413V37.3555L89.7307 37.5481L89.5381 37.3555V32.1566H88.7679V38.1258L88.3828 37.9332V31.964L88.5754 31.7715Z" fill="#92C75A"/>
<path d="M9.82122 31.9639H10.9765V32.1564L10.0138 32.349L9.82122 38.3181H9.62866L9.43611 35.8149L7.70312 35.4298V34.6596H9.62866V32.1564L9.82122 31.9639Z" fill="#81BF55"/>
<path d="M65.8545 31.7715H67.5875V31.964L65.2769 32.3491L65.0843 33.3119H65.662L65.8545 32.9268L66.6248 33.1194L66.2396 33.3119V34.6598L66.4322 35.2375H66.0471L65.4694 33.8896L65.2769 33.697V36.2002L65.0843 38.1258H64.8918L64.6992 32.9268L65.0843 31.964L65.8545 31.7715Z" fill="#82BE55"/>
<path d="M58.1519 32.9268L59.3072 33.1193L59.6923 33.3119V34.4672L57.7668 34.6597L57.5742 34.4672V33.3119L58.1519 32.9268Z" fill="#FEFEFE"/>
<path d="M150.961 43.3242H151.731V48.7157H150.961L151.153 47.9455L150.961 43.3242Z" fill="#022226"/>
<path d="M112.453 43.1318H114.186V43.7095L113.994 44.0946L113.801 46.7904L113.223 47.368V43.7095L112.453 43.5169V43.1318Z" fill="#021617"/>
<path d="M117.651 46.2129H118.614L118.999 46.9831L118.806 47.9459L118.421 48.331L117.458 48.1384L117.266 47.9459V46.7906L117.651 46.2129Z" fill="#F3F9EA"/>
<path d="M15.023 33.6963L15.9857 34.6591L16.1783 36.0069H14.4453L14.6379 34.4665L15.023 33.6963Z" fill="#FEFEFE"/>
<path d="M36.2038 33.8896L36.7815 34.0822L37.3591 35.4301V36.0077L35.4336 36.2003L35.6261 34.8524L36.2038 33.8896Z" fill="#FEFEFE"/>
<path d="M155.97 46.0205L156.933 46.5982L157.318 46.9833V48.1386L156.933 48.5237H156.162L155.777 46.9833L155.97 46.0205Z" fill="#F0F7E5"/>
<path d="M113.607 46.79H113.8L114.185 47.9454L115.34 48.3305L116.496 47.3677V47.7528L116.881 47.9454L115.725 48.9081L112.645 48.7156L113.607 46.79Z" fill="#022228"/>
<path d="M148.459 45.8281L149.615 46.0207L150 47.176V48.5239L149.037 48.909L148.267 48.7164L149.037 48.3313L149.23 46.9834L149.037 46.5983L148.074 46.7909V46.0207L148.459 45.8281Z" fill="#092A2A"/>
<path d="M153.467 45.0576L154.045 45.6353L153.852 47.1757L154.43 48.7161L154.045 48.9087L153.275 48.331L153.082 47.3683V45.4427L153.467 45.0576Z" fill="#02191F"/>
<path d="M133.441 46.2129L134.211 46.4054L134.404 46.598V47.9459L133.826 48.331H133.248L132.863 47.5608L133.056 46.598L133.441 46.2129Z" fill="#F9FBF4"/>
<path d="M269.384 22.3359L269.769 22.5285V27.1498L269.384 27.7274L269.191 26.9572V24.8391L269.384 23.2987V22.3359Z" fill="#025A76"/>
<path d="M124.584 46.4053L125.355 46.5978L125.547 47.5606L125.162 48.5234L124.584 48.7159L124.199 47.9457L124.392 46.5978L124.584 46.4053Z" fill="#EDF6DF"/>
<path d="M105.523 36.7773L106.486 37.1625L106.678 38.3178L106.486 38.5103H105.33L104.945 37.7401L105.523 36.7773Z" fill="#60B430"/>
<path d="M136.33 46.0205H137.486V46.5982L136.716 46.7907V48.7163H135.945V46.4056L136.33 46.0205Z" fill="#052526"/>
<path d="M83.1847 36.9707H84.1475L84.5326 37.3558V38.3186L84.3401 38.5111H83.1847L82.9922 38.3186V37.1633L83.1847 36.9707Z" fill="#76BC41"/>
<path d="M156.355 46.0205H157.318L157.896 46.5982L158.088 47.1758V48.5237H157.126V46.9833L156.355 46.0205Z" fill="#021F27"/>
<path d="M95.8941 31.7715L97.0494 31.964V32.9268L96.6643 33.1194H95.509L95.3164 32.1566L95.8941 31.7715Z" fill="#58B126"/>
<path d="M99.7433 32.9268H101.284V33.1193L99.9359 33.3119V36.7778L101.091 37.1629L101.476 37.3555L100.321 37.7406L99.5508 37.5481V33.1193L99.7433 32.9268Z" fill="#9ECF5F"/>
<path d="M94.9292 35.4297H95.1218L95.3143 38.318L94.3516 38.1254V36.1999L94.7367 36.0073L94.9292 35.4297Z" fill="#43AA0D"/>
<path d="M145.954 46.0205L146.724 46.4056L148.072 47.946V48.3312H148.457V48.7163L147.687 48.5237L146.147 46.5982L145.762 46.2131L145.954 46.0205Z" fill="#02191F"/>
<path d="M155.584 46.4053L155.969 46.9829L156.162 48.5234L157.125 48.3308L157.895 48.7159H155.584L155.199 48.3308L155.392 46.5978L155.584 46.4053Z" fill="#023841"/>
<path d="M6.54526 36.2002L7.12293 36.3927V38.1257L6.35271 38.3183L6.16016 38.1257V36.7779L6.54526 36.2002Z" fill="#4BAB18"/>
<path d="M140.374 45.0576H141.722L141.337 45.4427L140.374 45.8278L139.989 46.9832L139.604 46.7906V46.4055H139.219V45.6353L140.374 45.4427V45.0576Z" fill="#063234"/>
<path d="M139.601 47.3682L140.371 47.5607L140.564 48.3309L140.179 48.716L139.023 48.5235L139.216 47.7533L139.601 47.3682Z" fill="#022028"/>
<path d="M130.359 46.5977L130.744 46.7902V47.753H131.707L131.515 48.5232L130.552 48.7157L130.359 48.5232V46.5977Z" fill="#123936"/>
<path d="M121.695 46.0205L122.658 46.2131L122.851 46.7907V48.5237H122.273L122.08 46.7907L121.695 46.0205Z" fill="#06383D"/>
<path d="M139.216 43.3242H140.179L140.371 45.0572L139.409 44.6721L139.023 43.5168L139.216 43.3242Z" fill="#02171A"/>
<path d="M0.386719 35.2373H0.579273L0.771827 36.5852H1.15693V38.1256H0.386719V35.2373Z" fill="#43AA0C"/>
<path d="M117.074 46.5977H117.266L117.459 47.9455L118.422 48.3306L118.229 48.7157L117.266 48.5232L116.881 47.753H116.496V46.9828L117.074 46.5977Z" fill="#022127"/>
<path d="M92.4258 32.1562H94.1588L93.7737 33.119L92.4258 32.9265V32.1562Z" fill="#44AA0D"/>
<path d="M80.1016 32.1562H81.4494L81.642 33.119L80.2941 32.9265L80.1016 32.1562Z" fill="#43AA16"/>
<path d="M116.303 47.3682L116.495 47.7533L116.88 47.9458L115.725 48.9086L113.992 48.716L114.762 48.3309L115.725 48.1384L116.303 47.3682Z" fill="#0D474C"/>
<path d="M112.453 43.1318H113.801L113.608 43.5169L113.416 46.5978H113.223V43.7095L112.453 43.5169V43.1318Z" fill="#1C7A72"/>
<path d="M263.993 34.082H264.571L264.185 35.2374L263.415 36.5852L263.223 35.815L263.993 34.082Z" fill="#016B75"/>
<path d="M89.5391 36.585L90.1167 36.9701H92.0423V37.3552L89.7316 37.5477L89.5391 36.585Z" fill="#81BE56"/>
<path d="M280.361 38.8955H281.324V39.2806L280.938 39.4732H279.205L278.82 39.0881L280.361 38.8955Z" fill="#025A76"/>
<path d="M31.0034 33.3115H31.196V36.0073H31.0034L30.8109 34.6594L30.4258 34.4668L30.6183 33.6966L31.0034 33.3115Z" fill="#88C156"/>
<path d="M65.8539 32.9268L66.6241 33.1193L66.239 33.3119V34.6597L66.4315 35.2374H66.0464L65.4688 33.8895V33.3119L65.8539 32.9268Z" fill="#74B54D"/>
<path d="M99.5508 36.585L100.706 37.1626L101.476 37.3552L100.321 37.7403L99.5508 37.5477V36.585Z" fill="#7BB950"/>
<path d="M7.70312 34.6602H9.051L8.85845 35.4304H7.70312V34.6602Z" fill="#43AA0C"/>
</svg>
