<svg width="184" height="100" viewBox="0 0 184 100" fill="none" xmlns="http://www.w3.org/2000/svg">
<path d="M56.6309 0H56.8124L56.6309 0.905797L55.9049 2.26449L54.9973 3.98551L53.9083 6.34058L52.5469 9.14855L51.3671 11.6848L49.552 15.308L48.5537 17.3913L46.7386 21.1051L45.7403 23.1884L44.6513 25.3623L43.4715 27.8986L42.6547 29.7101L42.3824 30.2536L44.5605 30.3442L47.4647 30.7065L49.0983 31.0688L49.552 31.5217L49.7336 32.2464L49.8243 38.9493L50.2781 39.0399L51.8209 39.8551L52.0024 38.7681L52.3654 37.5906L52.91 36.6848L53.7268 35.5978L55.1788 34.1486L56.7217 33.0616L58.9905 31.8841L61.5317 31.0688L63.5283 30.6159L64.8896 30.4348L66.0694 30.3442H67.703L70.1534 30.6159L71.9684 30.9783L74.1466 31.7029L76.0524 32.6087L77.4137 33.5145L78.3213 34.2391L79.4103 35.3261L80.3179 36.6848L81.0439 38.1341L81.4069 39.5833L81.4977 40.308V42.3007L81.2254 43.8406L80.7716 44.9275L80.0456 46.0145L79.2288 46.9203L78.3213 47.8261L77.1415 48.6413L75.6894 49.3659L74.3281 49.9094L72.9667 50.2717L70.7886 50.6341L68.429 50.8152H65.4341L65.3434 58.3333L65.2526 59.4203L64.9803 59.8732L64.2543 60.1449L62.2577 60.2355H53.3637L52.3654 60.1449L51.7302 59.6014V59.4203L51.0949 59.5109L50.0966 60.4167L48.9168 61.3225L47.4647 62.5L46.2849 63.4058L44.742 64.6739L42.2009 66.6667L41.2026 67.4819L39.7505 68.6594L38.5707 69.5652L35.6666 71.9203L34.396 72.9167L32.9439 74.0942L31.8549 74.9094L30.4028 76.087L28.7692 77.3551L27.2264 78.6232L26.0466 79.529L24.8668 80.5254L23.687 81.4312L22.2349 82.6087L19.6938 84.6014L18.2417 85.779L17.0619 86.6848L15.519 87.9529L14.6115 88.6775L12.9779 89.9457L11.9796 90.7609L10.7998 91.6667L9.52924 92.663L8.07716 93.8406L6.8066 94.837L5.35452 96.0145L4.08396 97.0109L2.90415 98.0072L1.90585 98.8225L0.635283 99.8188L0.363019 100L0 99.9094L0.363019 99.1848L1.36132 98.0072L2.17811 97.0109L3.26717 95.7428L4.44698 94.2029L5.35452 93.0254L6.17132 91.9384L7.44188 90.3986L8.53094 88.9493L9.71075 87.5L10.7998 86.0507L11.6166 85.0544L12.7964 83.5145L13.6132 82.5181L14.8838 80.8877L15.6098 79.9819L17.6064 77.4457L19.0585 75.5435L20.0568 74.2754L21.5089 72.4638L22.4164 71.2862L23.4147 70.0181L24.5945 68.5688L25.6836 67.1196L26.9541 65.4891L28.0432 64.0399L29.223 62.5L30.3121 60.9601L30.5843 60.3261L29.7675 60.2355L28.2247 59.692L27.9524 59.4203L27.8617 59.2391V50.8152L27.9524 50.5435L28.2247 50.4529L28.3155 50.1812L27.8617 50.0906L25.7743 49.0942L23.1424 48.0072L19.966 46.6486L16.6081 45.1993L14.6115 44.2935L13.5224 43.5688L12.4334 42.4819L11.8889 41.3949L11.6166 40.1268V39.0399L11.9796 38.3152L12.7057 37.5L13.704 36.6848L15.0653 35.5072L16.0636 34.692L16.9711 33.8768L17.9694 33.0616L19.3307 31.8841L23.1424 28.6232L24.1407 27.808L25.2298 26.8116L26.2281 25.9964L27.3172 25L28.3155 24.1848L30.8566 22.0109L32.2179 20.8333L33.4885 19.7464L34.8498 18.5688L37.3909 16.3949L38.2985 15.5797L39.2968 14.7645L40.2951 13.8587L41.2934 13.0435L42.2009 12.2283L43.1992 11.413L44.2883 10.4167L45.2866 9.60145L46.5571 8.51449L47.4647 7.69928L48.463 6.88406L49.7336 5.7971L50.7319 4.8913L51.7302 4.07609L52.7285 3.17029L53.7268 2.35507L54.9973 1.26812L55.9956 0.452899L56.6309 0Z" fill="#FDBF0D"/>
<path d="M152.559 30.9785H157.55L161.271 31.0691L161.816 31.2503L162.269 31.6126L162.36 31.8843L162.451 40.6705L163.54 39.1307L164.72 37.6814L165.718 36.4133L166.898 34.964L167.805 33.6959L168.985 32.2466L169.802 31.2503L170.165 31.0691L171.073 30.9785H178.242L182.326 31.0691L183.143 31.4314V59.6923L182.326 60.1452L179.876 60.2358H170.8L169.076 60.1452L168.622 59.964L167.987 59.1488L166.444 56.2503L165.627 54.801L164.538 52.8988L163.359 50.7249L162.632 49.3662L162.542 49.2756L162.451 52.2647L162.36 58.6053L162.269 59.5111L161.906 59.964L161.271 60.1452L159.093 60.2358H149.836L149.019 59.964L148.656 59.33V31.7937L148.838 31.4314L149.655 31.0691L152.559 30.9785Z" fill="#0A060A"/>
<path d="M120.615 30.9785H130.507L132.867 31.0691L136.043 31.4314L137.767 31.7937L139.31 32.3372L140.762 32.9713L142.033 33.6959L143.122 34.5111L144.211 35.5075L145.209 36.8662L145.935 38.4061L146.389 40.0365V42.1198L146.026 43.4785L145.572 44.5655L144.846 45.6524L143.757 46.83L142.396 47.9169L141.942 48.1887L142.214 48.9133L143.303 50.9061L144.392 52.8082L145.572 54.9821L146.389 56.3408L147.66 58.6053L147.841 59.0582L147.75 59.6017L147.297 59.964L146.843 60.1452L143.485 60.2358H135.589L134.409 60.1452L133.865 59.7829L133.139 58.7865L132.322 57.3372L130.87 54.9821L129.69 52.8988L129.599 53.2611L129.509 57.9713L129.418 59.4205L129.236 59.8734L128.601 60.1452L126.514 60.2358H117.711L116.621 60.1452L115.895 59.6923L115.805 59.4205V31.7032L116.349 31.2503L116.894 31.0691L120.615 30.9785Z" fill="#FDBF0D"/>
<path d="M96.3825 30.3438H99.4681L101.828 30.6155L104.006 31.0684L105.912 31.7024L107.636 32.6082L108.634 33.3329L109.451 34.0575L110.359 35.3256L111.085 36.7749L111.538 37.9524L111.902 39.8546L111.992 41.0322V58.8764L111.811 59.6916L111.266 60.0539L110.994 60.1445L108.725 60.2351H100.285L99.1051 60.1445L98.6513 59.8727L98.2883 59.4198L98.1976 58.514L98.1068 53.8039H96.201V57.6082L96.1102 59.4198L95.8379 59.8727L95.2934 60.1445L93.2968 60.2351H85.1289L83.4046 60.1445L82.86 59.8727L82.5878 59.601L82.497 59.1481L82.4062 42.2097L82.497 40.6698L82.86 38.6771L83.4046 37.3184L84.1306 36.0503L84.8566 35.1445L85.6734 34.2387L86.6717 33.4235L87.5793 32.7894L89.3036 31.8836L91.754 31.0684L93.8413 30.6155L96.3825 30.3438Z" fill="#FDBF0D"/>
<path d="M66.0706 30.3438H67.7042L70.1546 30.6155L71.9697 30.9778L74.1478 31.7024L76.0536 32.6082L77.4149 33.514L78.3225 34.2387L79.4116 35.3256L80.3191 36.6843L81.0451 38.1336L81.4082 39.5829L81.4989 40.3075V42.3003L81.2266 43.8401L80.7729 44.9271L80.0468 46.014L79.23 46.9198L78.3225 47.8256L77.1427 48.6409L75.6906 49.3655L74.3293 49.909L72.968 50.2713L70.7899 50.6336L68.4302 50.8148H65.4353L65.3446 58.3329L65.2538 59.4198L64.9816 59.8727L64.2555 60.1445L62.2589 60.2351H53.365L52.3667 60.1445L51.7314 59.601L51.6406 59.4198V43.2061L51.7314 40.851L52.0036 38.7677L52.3667 37.5901L52.9112 36.6843L53.728 35.5974L55.1801 34.1481L56.7229 33.0611L58.9918 31.8836L61.5329 31.0684L63.5295 30.6155L64.8908 30.4343L66.0706 30.3438Z" fill="#FDBF0D"/>
<path d="M49.6428 32.2461H49.7336L49.8243 38.949L50.2781 39.0396L51.8209 39.8548L51.9117 39.5831L51.7302 43.2062V55.7968L51.6394 59.42L51.0949 59.5106L50.0966 60.4164L48.9168 61.3222L47.4647 62.4997L46.2849 63.4055L44.7421 64.6736L42.2009 66.6664L41.2026 67.4816L39.7505 68.6591L38.5707 69.5649L35.6666 71.92L34.396 72.9164L32.9439 74.0939L31.8549 74.9091L30.4028 76.0867L28.7692 77.3548L27.2264 78.6229L26.0466 79.5287L24.8668 80.5251L23.687 81.4309L22.2349 82.6084L19.6938 84.6012L18.2417 85.7787L17.0619 86.6845L15.519 87.9526L14.6115 88.6773L12.9779 89.9454L11.9796 90.7606L10.7998 91.6664L9.52924 92.6628L8.07717 93.8403L6.8066 94.8367L5.35453 96.0142L4.08396 97.0106L2.90415 98.007L1.90585 98.8222L0.635283 99.8186L0.363019 99.9997L0 99.9091L0.363019 99.1845L1.36132 98.007L2.17811 97.0106L3.26717 95.7425L4.44698 94.2026L5.35453 93.0251L6.17132 91.9381L7.44188 90.3983L8.53094 88.949L9.71075 87.4997L10.7998 86.0504L11.6166 85.0541L12.7964 83.5142L13.6132 82.5178L14.8838 80.8874L15.6098 79.9816L17.6064 77.4454L19.0585 75.5432L20.0568 74.2751L21.5089 72.4635L22.4164 71.2859L23.4147 70.0178L24.5945 68.5686L25.6836 67.1193L26.9541 65.4888L28.0432 64.0396L29.223 62.4997L30.3121 60.9599L30.5843 60.4164L33.9422 60.6881H35.3036L37.3909 60.507L39.4783 60.1446L42.0194 59.1483L43.4715 58.4236L44.9236 57.4273L46.1941 56.3403L46.8294 55.7062L47.6462 54.5287L48.3722 53.0794L48.7353 51.5396V49.4562L48.3722 48.0975L47.6462 46.3765L46.8294 45.0178L45.6496 43.478L45.0143 42.5722L44.6513 41.757L44.7421 41.3041L45.3773 40.5794L45.7404 40.3983H46.9202L47.737 40.5794H48.826L49.2798 40.3077L49.552 39.6736L49.6428 32.2461Z" fill="#FDBF0D"/>
<path d="M42.4747 31.3398H44.925L46.9216 31.6116L48.283 31.8833L48.3737 31.9739L48.4645 34.2384V38.858L48.3737 39.5826H45.8326L44.6528 39.9449L43.836 40.6696L43.5637 41.213V41.9377L44.2898 43.3869L45.7418 45.3797L46.3771 46.3761L47.1031 47.8254L47.5569 49.3652L47.6477 49.9993V51.0862L47.2847 52.6261L46.4679 54.3471L45.8326 55.1623L45.0158 56.0681L44.199 56.7927L43.0192 57.608L40.9318 58.6949L38.5722 59.4196L36.9386 59.7819L35.0328 59.963H33.9437L32.2194 59.7819L29.2245 59.1478L29.043 59.0572V51.1768L29.2245 51.0862L30.6766 51.4485L31.2211 51.5391H32.6732L33.6715 51.358L34.6698 50.8145L35.0328 50.3616L35.1235 50.1804V49.4558L34.216 48.0065L33.2177 46.6478L32.1286 44.7456L31.5841 43.3869L31.2211 41.7565V39.7638L31.6749 38.2239L32.2194 36.9558L32.9454 35.9594L33.7622 35.0536L34.3975 34.4196L35.305 33.7855L36.7571 32.9703L38.1184 32.3362L39.389 31.8833L42.4747 31.3398Z" fill="#FDBF0E"/>
<path d="M170.71 31.9746H177.789L181.873 32.0652L181.691 32.5181L180.965 33.3333L179.967 34.6014L178.878 35.9601L177.88 37.2282L176.972 38.4058L175.974 39.6739L174.885 41.0326L173.977 42.2101L173.16 43.2065L172.434 44.1123L172.525 44.6558L173.16 45.6521L174.159 47.2826L174.885 48.279L175.792 49.7282L178.152 53.3514L179.06 54.7101L179.967 56.1594L181.238 58.1521L181.964 58.9674L181.601 59.1485L177.517 59.2391H169.712L169.258 58.8768L167.897 56.3406L166.808 54.3478L165.446 51.9021L164.448 50.0906L163.268 48.0072L162.361 46.3768L161.635 44.9275L161.453 44.384V43.9311L162.179 42.9348L162.996 41.7572L163.994 40.5797L166.989 36.5942L168.26 34.9637L170.256 32.4275L170.71 31.9746Z" fill="#FDBF0D"/>
<path d="M150.017 31.9746H160.908L161.09 32.0652V55.5253L160.999 59.1485L159.274 59.2391H150.108L149.927 59.1485L149.836 58.1521V33.9674L149.927 32.0652L150.017 31.9746Z" fill="#FDBF0D"/>
<path d="M120.615 30.9785H130.507L132.867 31.0691L136.043 31.4314L137.767 31.7937L139.31 32.3372L140.762 32.9713L142.033 33.6959L143.122 34.5111L144.211 35.5075L145.209 36.8662L145.935 38.4061L146.389 40.0365V42.1198L146.026 43.4785L145.572 44.5655L144.846 45.6524L143.757 46.83L142.396 47.9169L141.942 48.1887L142.214 48.9133L143.303 50.9061L144.392 52.8082L145.572 54.9821L146.389 56.3408L147.66 58.6053L147.841 59.0582L147.75 59.6017L147.297 59.964L146.843 60.1452L143.485 60.2358H135.589L134.409 60.1452L133.865 59.7829L133.139 58.7865L132.322 57.3372L130.87 54.9821L129.69 52.8988L129.599 53.2611L129.509 57.9713L129.418 59.4205L129.236 59.8734L128.601 60.1452L126.514 60.2358H117.711L116.621 60.1452L115.895 59.6923L115.805 59.4205V31.7032L116.349 31.2503L116.894 31.0691L120.615 30.9785ZM117.166 31.9749L116.984 32.609V59.0582L117.166 59.2394H120.342L128.057 59.1488L128.147 56.9749V40.8517L128.238 39.493L131.142 39.5836L132.685 39.8553L133.411 40.2176L133.774 40.6705L133.865 40.9423V41.7575L133.411 42.4821L133.32 42.7539L132.867 42.935L132.141 43.2068L129.962 43.3879L129.599 43.4785L129.509 44.9278V48.8227L129.599 50.272L129.872 50.9061L131.142 52.9894L132.504 55.2539L134.228 58.1524L134.772 59.0582L135.045 59.2394H143.303L146.389 59.1488L146.48 58.7865L145.844 57.8807L145.028 56.4314L143.848 54.3481L142.94 52.7176L142.124 51.2684L140.581 48.6416L140.399 48.2792V47.8263L140.853 47.6452L142.124 46.7394L142.94 46.0147L143.757 45.0184L144.392 44.022L144.846 42.935L145.028 42.3916L145.118 41.7575V40.3988L144.846 38.9495L144.211 37.5003L143.485 36.4133L142.668 35.5075L141.216 34.33L139.492 33.4242L138.312 32.9713L136.134 32.4278L134.319 32.1561L131.868 31.9749H117.166Z" fill="#0A0609"/>
<path d="M96.3825 30.3438H99.4681L101.828 30.6155L104.006 31.0684L105.912 31.7024L107.636 32.6082L108.634 33.3329L109.451 34.0575L110.359 35.3256L111.085 36.7749L111.538 37.9524L111.902 39.8546L111.992 41.0322V58.8764L111.811 59.6916L111.266 60.0539L110.994 60.1445L108.725 60.2351H100.285L99.1051 60.1445L98.6513 59.8727L98.2883 59.4198L98.1976 58.514L98.1068 53.8039H96.201V57.6082L96.1102 59.4198L95.8379 59.8727L95.2934 60.1445L93.2968 60.2351H85.1289L83.4046 60.1445L82.86 59.8727L82.5878 59.601L82.497 59.1481L82.4062 42.2097L82.497 40.6698L82.86 38.6771L83.4046 37.3184L84.1306 36.0503L84.8566 35.1445L85.6734 34.2387L86.6717 33.4235L87.5793 32.7894L89.3036 31.8836L91.754 31.0684L93.8413 30.6155L96.3825 30.3438ZM96.3825 31.3401L93.9321 31.6119L92.117 31.9742L90.2112 32.6082L88.6683 33.3329L87.5793 34.0575L86.6717 34.7822L85.8549 35.5974L85.0381 36.8655L84.3121 38.4959L83.9491 39.764L83.7676 41.1227L83.6768 53.5322V58.9669L83.7676 59.1481L84.0398 59.2387H91.5725L94.8396 59.1481V52.8075H97.9253L98.0161 52.7169L98.1068 47.101V45.4706L94.8396 45.38L94.9304 42.6626L95.1119 40.851L95.4749 40.1264L96.3825 39.6735L96.7455 39.5829H98.2883L99.0144 39.9452L99.3774 40.4887L99.4681 40.7604L99.5589 59.0575L99.7404 59.2387H107.092L110.631 59.1481L110.722 59.0575V41.3945L110.54 39.2206L110.177 37.7713L109.179 35.688L108.362 34.601L107.455 33.6952L106.275 32.9706L104.913 32.3365L103.371 31.8836L100.648 31.4307L99.7404 31.3401H96.3825Z" fill="#0A060A"/>
<path d="M66.0706 30.3438H67.7042L70.1546 30.6155L71.9697 30.9778L74.1478 31.7024L76.0536 32.6082L77.4149 33.514L78.3225 34.2387L79.4116 35.3256L80.3191 36.6843L81.0451 38.1336L81.4082 39.5829L81.4989 40.3075V42.3003L81.2266 43.8401L80.7729 44.9271L80.0468 46.014L79.23 46.9198L78.3225 47.8256L77.1427 48.6409L75.6906 49.3655L74.3293 49.909L72.968 50.2713L70.7899 50.6336L68.4302 50.8148H65.4353L65.3446 58.3329L65.2538 59.4198L64.9816 59.8727L64.2555 60.1445L62.2589 60.2351H53.365L52.3667 60.1445L51.7314 59.601L51.6406 59.4198V43.2061L51.7314 40.851L52.0036 38.7677L52.3667 37.5901L52.9112 36.6843L53.728 35.5974L55.1801 34.1481L56.7229 33.0611L58.9918 31.8836L61.5329 31.0684L63.5295 30.6155L64.8908 30.4343L66.0706 30.3438ZM65.1631 31.3401L62.985 31.7024L61.2606 32.1553L59.264 32.88L57.8119 33.6046L56.9044 34.1481L55.7246 35.0539L54.7263 36.0503L53.9095 37.3184L53.365 38.7677L53.0019 40.3981L52.9112 41.4851L52.8204 53.6227V59.0575L53.0019 59.2387H61.5329L63.8925 59.1481L63.9833 58.6046L64.074 40.851L64.437 40.0358L64.8001 39.6735L65.5261 39.4017L66.1614 39.3111H67.0689L67.8857 39.4923L68.4302 39.8546L68.7025 40.2169L68.7933 40.4887V41.3945L68.2487 42.0285L67.5227 42.3003L65.7984 42.572L65.6168 42.7532V49.909L65.9799 49.9995L69.8823 49.8184L72.0604 49.5466L74.057 49.0032L75.4183 48.4597L76.4166 47.9162L77.6872 46.8293L78.504 46.014L79.3208 44.7459L79.7746 43.7495L80.3191 41.938V40.4887L79.9561 39.0394L79.4116 37.5901L78.7763 36.4126L78.0502 35.5068L77.2334 34.6916L75.8721 33.6952L74.42 32.88L73.1495 32.3365L71.7882 31.8836L69.4285 31.4307L68.6117 31.3401H65.1631Z" fill="#0A060A"/>
<path d="M183.052 32.6992H183.143V58.6956L182.689 58.2427L181.6 56.5217L180.239 54.4383L179.24 52.8985L177.788 50.634L176.881 49.2753L175.882 47.7355L174.703 45.9239L174.067 44.9275L173.977 44.2934L174.34 43.6594L174.975 42.8441L175.792 41.8478L176.881 40.3985L178.061 38.9492L178.968 37.7717L179.785 36.7753L180.874 35.4166L182.054 33.8768L182.78 32.971L183.052 32.6992Z" fill="#FDFDFB"/>
<path d="M42.2025 30.3438H44.5621L47.4663 30.7061L49.0999 31.0684L49.5536 31.5213L49.6444 31.793V39.6735L49.2814 40.3981L48.8276 40.6698H47.7386L46.9218 40.4887H45.7419L45.1974 40.851L44.8344 41.3039L44.7436 41.7568L45.1067 42.572L46.0142 43.8401L47.1033 45.2894L47.9201 46.7387L48.6461 48.6409L48.8276 49.4561V51.5394L48.4646 53.0793L47.7386 54.5285L47.1033 55.4343L46.2865 56.3401L45.2882 57.2459L44.0176 58.1517L42.6563 58.9669L40.2059 59.9633L39.0261 60.3256L36.5757 60.688L35.3052 60.7785H33.9438L31.675 60.5974L30.1321 60.3256L28.2263 59.6916L27.954 59.4198L27.8633 59.2387V50.8148L27.954 50.543L28.2263 50.4524L28.5893 50.0901H29.2246L31.5842 50.8148H32.5825L33.4901 50.4524L33.8531 49.909L33.6716 49.1843L32.764 47.9162L31.675 46.3764L30.9489 45.0177L30.3137 43.2966L30.0414 42.1191L29.9506 41.0322L30.0414 39.4923L30.3137 38.1336L30.9489 36.6843L31.675 35.5974L32.764 34.4198L34.0346 33.4235L35.3959 32.5177L37.4833 31.5213L39.3891 30.8872L41.4765 30.4343L42.2025 30.3438ZM42.4748 31.3401L39.3891 31.8836L37.4833 32.6082L35.5774 33.6046L34.3069 34.5104L33.1271 35.688L32.2195 36.9561L31.5842 38.4053L31.2212 39.764V41.7568L31.675 43.659L32.3103 45.1082L33.3993 46.9198L34.3976 48.2785L35.1237 49.4561V50.1807L34.7606 50.7242L33.8531 51.2677L33.3993 51.4488L32.6733 51.5394H31.2212L29.4969 51.1771L29.1338 51.0865L29.0431 51.1771V59.0575L30.4044 59.4198L32.764 59.8727L33.9438 59.9633H35.0329L36.9387 59.7822L39.2076 59.2387L41.1135 58.6046L43.2008 57.5177L44.7436 56.3401L45.6512 55.4343L46.468 54.3474L47.2848 52.6264L47.6478 51.0865V49.9995L47.3755 48.6409L46.9218 47.4633L46.1957 46.014L45.1974 44.6553L44.2899 43.3872L43.5638 41.938V41.2133L44.0176 40.4887L44.6529 39.9452L45.8327 39.5829H48.3738L48.4646 38.8582V34.2387L48.3738 31.9742L47.8293 31.793L45.8327 31.4307L44.9252 31.3401H42.4748Z" fill="#0A060A"/>
<path d="M122.974 66.5762H124.335L124.698 67.3008L125.878 71.1052L126.422 73.1885L126.604 73.6414L127.512 70.7428L128.147 68.5689L128.691 66.6668H132.775V77.5363L132.685 77.8081H130.053L129.962 70.2899L129.871 69.9276L129.327 71.7392L128.238 75.0001L127.421 77.6269L126.786 77.8081L125.787 77.7175L125.515 76.9928L123.881 71.5581L123.246 69.837V77.7175L123.155 77.8081H121.976L120.523 77.7175V66.6668L122.974 66.5762Z" fill="#211C1C"/>
<path d="M112.083 66.3945H114.352L115.895 66.7569L116.803 67.3003L117.529 68.1155L117.71 68.5684L117.801 70.0177V73.6409L117.71 75.4525L117.438 76.2677L117.075 76.8112L116.44 77.3547L115.623 77.717L114.261 77.9887H111.902L110.45 77.6264L109.724 77.2641L109.179 76.8112L108.635 75.7242L108.453 74.4561V71.7387L108.544 69.1119L108.725 68.2967L109.361 67.3909L110.268 66.8474L111.448 66.4851L112.083 66.3945Z" fill="#211C1C"/>
<path d="M163.632 66.3945H166.083L167.535 66.7569L168.352 67.2097L168.987 67.8438L169.35 68.7496L169.441 69.5648V74.9996L169.168 76.1771L168.805 76.7206L168.079 77.3547L166.99 77.8076L166.083 77.9887L164.449 78.0793L162.906 77.8982L161.817 77.5358L161.091 76.9924L160.547 76.3583L160.274 75.6337L160.184 74.5467V70.8329L160.274 68.5684L160.637 67.8438L161.363 67.1192L162.362 66.6663L163.632 66.3945Z" fill="#211C1C"/>
<path d="M172.161 66.5762L174.884 66.6668L175.973 68.6595L176.88 70.2899L178.06 72.3733L178.877 73.6414L178.786 71.1957V66.6668L181.509 66.5762L181.6 66.6668V76.1776L181.509 77.8081H179.694L178.877 77.7175L178.423 77.174L177.697 75.9059L176.245 73.4602L175.247 71.7392L174.884 71.1052V76.7211L174.793 77.7175L173.976 77.8081L172.161 77.7175L172.07 66.6668L172.161 66.5762Z" fill="#211C1C"/>
<path d="M96.4736 66.5762L99.1055 66.6668L100.285 68.7501L101.737 71.3769L102.917 73.3697L103.099 73.732L103.189 73.6414L103.099 73.2791V66.6668H105.821V77.7175L105.731 77.8081H103.734L103.099 77.7175L102.463 76.8117L101.465 75.0907L100.376 73.2791L99.5592 71.8298L99.1055 71.1052V77.7175L99.0147 77.8081L96.3828 77.7175V66.6668L96.4736 66.5762Z" fill="#211C1C"/>
<path d="M84.4023 66.667H87.3065L87.3972 71.1054H90.1199L90.2106 70.9242L90.3014 66.667H93.2963V77.7177L93.2055 77.8083H91.6627L90.3014 77.7177L90.2106 72.917L87.3972 72.8264L87.3065 77.446L87.2157 77.8083H86.0359L84.4023 77.7177V66.667Z" fill="#211C1C"/>
<path d="M140.761 66.5762H141.487L141.85 67.482L143.665 74.0037L144.482 76.9928L144.573 77.7175L144.482 77.8081L141.578 77.7175L141.124 75.7247V75.453H138.039L137.585 77.174L137.403 77.7175H134.59L134.681 77.0834L135.497 74.0943L136.949 68.9312L137.494 66.8479L137.585 66.6668L140.761 66.5762Z" fill="#211C1C"/>
<path d="M76.0532 66.3945H78.5036L79.9557 66.7569L80.7725 67.2097L81.4985 68.025L81.7708 68.8402V70.0177L81.5893 70.2895H78.7759L78.5036 68.4779L78.0498 68.1155L77.7776 68.025H76.87L76.0532 68.2967L75.781 68.659V75.4525L75.9625 76.0866L76.4163 76.3583L77.3238 76.4489L78.1406 76.2677L78.5036 75.996L78.5944 75.7242L78.6851 74.0938L78.7759 73.8221H81.7708V75.0902L81.4985 76.1771L81.0447 76.9018L80.3187 77.4453L79.4112 77.8076L78.4129 77.9887H75.8717L74.4197 77.6264L73.5121 77.0829L72.9676 76.4489L72.6953 75.6337V68.5684L72.9676 67.8438L73.7844 67.1192L74.7827 66.6663L76.0532 66.3945Z" fill="#211C1C"/>
<path d="M69.7011 66.5762H70.5179L70.6087 66.6668V68.2972H65.8894V70.8334L65.9802 71.1052L69.2474 71.1957L69.3381 71.2863V72.3733L69.1566 72.8262H65.8894L65.9802 75.9965L66.0709 76.087H70.6087L70.6994 77.7175L70.6087 77.8081H64.8911L62.8945 77.7175V66.6668L69.7011 66.5762Z" fill="#211C1C"/>
<path d="M152.649 66.5762H153.103L153.194 67.3008V68.2066L153.103 68.2972L150.108 68.3878L150.017 77.7175L149.926 77.8081H148.293L147.113 77.7175V68.2972H144.209L144.027 68.2066V66.6668L152.649 66.5762Z" fill="#211C1C"/>
<path d="M52.3642 66.667H61.4397V68.2974H58.4448L58.354 77.7177L58.2632 77.8083H57.0834L55.4499 77.7177V68.2974L52.2734 68.2068L52.3642 66.667Z" fill="#211C1C"/>
<path d="M154.555 66.667H157.55V77.7177H154.555V66.667Z" fill="#211C1C"/>
<path d="M164.265 67.9346H165.445L166.171 68.3875L166.352 68.6592L166.443 69.2027V74.4563L166.352 75.6338L166.08 76.0867L165.717 76.3585L165.445 76.4491H163.993L163.448 76.0867L163.267 75.5433L163.176 73.1882L163.267 68.7498L163.539 68.2969L163.993 68.0252L164.265 67.9346Z" fill="#FDFBF5"/>
<path d="M112.719 67.9346H113.626L114.443 68.2969L114.625 68.5686L114.715 69.2933V74.9092L114.625 75.815L114.171 76.2679L113.354 76.5396L112.356 76.4491L111.902 76.1773L111.63 75.5433L111.539 74.3657V70.1991L111.63 68.6592L111.811 68.2969L112.356 68.0252L112.719 67.9346Z" fill="#FDFBF1"/>
<path d="M62.8945 66.667L63.5298 66.7576L63.3483 67.2105L63.2575 68.2068V71.3771L63.3483 77.0837L63.6206 77.3554L64.5281 77.446L64.9819 77.2648L65.1634 77.1742V77.446L65.4357 77.3554L65.5264 76.9931L65.8894 76.5402L65.9802 76.1779L67.7953 76.0873H70.6087L70.6994 77.7177L70.6087 77.8083H64.8911L62.8945 77.7177V66.667Z" fill="#0B070A"/>
<path d="M66.1591 40.127H66.8851L67.5204 40.3987V41.3045L67.1574 41.5762H66.7944V41.7574L67.1574 41.848L66.7036 42.2103L66.4314 42.3009V42.5726L65.7961 42.6632L65.7053 42.7538L65.6146 49.9096H65.5238L65.4331 46.1052L65.3423 46.5581L65.2516 49.2755L65.1608 50.5436L64.8885 50.6342L64.7978 49.4567L64.707 44.4748V42.7538L64.7978 41.7574L65.07 41.3045L65.5238 40.3987L65.7053 40.2175L66.1591 40.127Z" fill="#211C1C"/>
<path d="M96.9262 40.3984H97.743L98.106 40.5796L98.1967 40.9419V44.3839L98.106 44.4745H96.2001L96.1094 44.3839V43.2064L96.2001 41.4854L96.3816 40.7608L96.6539 40.489L96.9262 40.3984Z" fill="#FEF9E7"/>
<path d="M42.2026 30.3438H44.5622L47.4664 30.7061L49.1 31.0684L49.5537 31.5213L49.6445 31.793V38.7677H49.5537L49.463 37.9524L49.1 37.3184V32.5177L49.0092 31.4307L46.7403 30.9778H46.3773L46.2866 30.7966L46.1051 30.8872L44.4715 30.9778L42.3841 30.8872L41.6581 30.7061L41.4766 30.4343L42.2026 30.3438Z" fill="#221D1D"/>
<path d="M139.4 69.2031L139.672 69.2937L139.944 70.1089L140.67 73.6415L140.398 73.8227H138.492L138.583 72.8263L139.4 69.2031Z" fill="#FDF8E5"/>
<path d="M129.418 40.3984H130.961L132.05 40.5796L132.504 40.8513L132.594 41.576L132.322 42.0289L131.596 42.3912L130.961 42.4818H129.599L129.509 42.3912L129.418 40.3984Z" fill="#FEF8E5"/>
<path d="M171.072 30.9785H178.241L182.325 31.0691L183.142 31.4314V31.7032L182.053 31.522H173.703L171.072 31.4314L170.89 31.2503L170.164 31.1597V31.0691L171.072 30.9785Z" fill="#221D1D"/>
<path d="M84.4023 66.667H87.2157L87.0342 67.1199L86.9435 66.9387L84.8561 66.8482L84.6746 67.3011L84.5839 67.3916V69.2938L84.7654 72.0112L84.8561 75.6344L84.9469 77.0837L85.1284 77.3554L85.8544 77.446L86.6712 77.3554L86.9435 76.5402L87.125 74.8192H87.2157V77.8083H86.0359L84.4023 77.7177V66.667Z" fill="#080408"/>
<path d="M63.708 42.9346H63.7988L63.8895 44.9273V51.4491L63.7988 58.0614L63.708 58.8766L63.6173 59.0578L62.256 59.1483H56.9922L57.0829 58.9672H61.5299L63.345 58.786L63.5265 58.6954L63.6173 57.9708V43.1157L63.708 42.9346Z" fill="#FFCF0D"/>
<path d="M78.6861 45.29L78.7769 45.6524L77.7786 46.7393L76.7803 47.6451L75.782 48.2792L74.3299 48.9132L72.4241 49.4567L70.8812 49.7284H68.7031V49.6379L69.8829 49.4567H70.5182L71.698 49.185L74.3299 48.4603L75.6005 47.9169L76.5988 47.2828L77.5063 46.5582L78.5046 45.5618L78.6861 45.29Z" fill="#FECB0D"/>
<path d="M116.438 67.21L116.801 67.3005L117.527 68.1158L117.708 68.5687L117.799 70.0179V73.6411L117.708 75.4527L117.436 76.2679L117.073 76.8114L116.801 76.902L116.982 76.4491L117.254 75.4527L117.345 74.1846L117.436 70.9237V69.8368L117.254 68.4781L116.619 67.5723L116.438 67.21Z" fill="#0D080C"/>
<path d="M66.1605 40.127H66.8866L67.5219 40.3987V41.3045L67.1588 41.5762L65.7068 41.848L65.3438 41.7574V40.761L65.616 40.3081L66.1605 40.127Z" fill="#FEF9E8"/>
<path d="M168.984 58.1523L169.257 58.2429L169.62 58.6958L170.073 58.877H178.877L181.145 58.6958V58.877L180.964 58.9676L177.515 59.2393H169.71L169.257 58.877L168.984 58.3335V58.1523Z" fill="#FECA0D"/>
<path d="M127.873 39.583H127.964V40.7605L128.054 43.025V46.92L127.964 52.7171H127.873L127.782 51.6301L127.691 49.0033V40.7605L127.782 39.6736L127.873 39.583Z" fill="#FFCF0D"/>
<path d="M121.975 66.667H123.608V66.7576L122.882 66.8482H121.158V67.1199H120.976L120.795 68.6597L120.886 74.638V77.3554L121.43 77.5366V77.6271H120.613V66.7576L121.975 66.667Z" fill="#080408"/>
<path d="M128.145 74.6377L128.235 75L127.418 77.6268L126.783 77.808L125.785 77.7174L125.513 76.9928L125.422 76.087L126.148 76.8116H126.783L127.418 76.2681L127.872 75L128.145 74.6377Z" fill="#0B060A"/>
<path d="M180.781 33.2422L180.872 33.5139L179.783 34.782L178.603 36.3219L177.514 37.6806L176.697 38.7675L175.518 40.2168L174.61 41.3944L174.338 41.7567H174.156L174.338 41.3944L174.973 40.398L175.971 39.2204L176.879 38.0429L177.786 36.7748L178.966 35.4161L179.692 34.4197L180.146 33.8762L180.6 33.4233L180.781 33.2422Z" fill="#FECA0D"/>
<path d="M36.9364 31.4307L37.2087 31.5212L35.4843 32.427L35.1213 32.7894L34.0323 33.514L33.034 34.3292L32.1264 35.1444L31.4004 36.1408L30.7651 36.8654L30.1298 38.3147L30.0391 38.043L30.6743 36.5937L31.4004 35.5973L32.1264 34.6915L33.2155 33.6952L34.2138 32.8799L35.8474 31.8836L36.9364 31.4307Z" fill="#FECB0D"/>
<path d="M146.205 58.6953L146.478 58.7859L146.387 59.1482H136.222L135.859 58.9671L136.948 58.8765H145.842L146.205 58.6953Z" fill="#FFCF0D"/>
<path d="M131.141 52.5361L131.685 52.8985L132.865 55.2535L133.5 56.2499L134.136 57.4274L134.771 58.4238L135.043 58.605V58.7861H135.225V58.9673H134.952L135.043 59.1485L134.68 58.9673L133.773 57.3369L131.322 53.2608L131.141 52.8079V52.5361Z" fill="#FECB0D"/>
<path d="M161.09 32.2461H161.181L161.271 38.3149H161.544V40.67L161.453 41.8475L161.634 41.9381L161.362 42.3004H161.09V32.2461Z" fill="#201B1C"/>
<path d="M128.689 66.667H132.682V68.4786H132.592L132.501 67.2105L132.228 67.0293H129.415L128.871 67.2105L128.78 67.9351L128.417 68.7503H128.235L128.145 68.9315L128.235 68.2974L128.689 66.667Z" fill="#0E0A0D"/>
<path d="M166.352 68.5684L166.624 68.8401L166.715 69.5647V75.0901L166.442 75.9053H166.352V68.5684Z" fill="#090509"/>
<path d="M157.367 73.8223H157.458V77.7172H154.645V74.1846H154.735L154.826 76.8114L154.917 77.4455H157.004L157.095 76.6302L157.276 75.181L157.367 73.8223Z" fill="#080408"/>
<path d="M93.1133 72.7354H93.204V77.8078H91.6612L90.3906 77.7172V73.46H90.4814L90.6629 77.2643L90.9352 77.4455L92.2965 77.5361L92.841 77.4455L92.9318 77.0832L93.0225 75.9056L93.1133 72.7354Z" fill="#0B070A"/>
<path d="M99.6484 58.4238L99.9207 58.7861L100.374 58.8767L106.455 58.9673L110.448 58.8767L110.357 59.0579L108.27 59.1485H101.282L99.7392 59.0579L99.6484 58.4238Z" fill="#FFCF0D"/>
<path d="M163.27 47.5537L163.542 47.8255L164.086 48.5501V48.7312H164.268L165.085 50.2711L165.448 51.2675L165.901 52.0827L165.992 52.445H165.72L164.449 50.0899L163.27 48.0066V47.5537Z" fill="#FECB0D"/>
<path d="M94.6581 58.6045H94.7489V59.0574L93.2968 59.148H85.5827L85.1289 59.0574V58.9668H91.5725L93.4783 58.8762L94.5674 58.6951L94.6581 58.6045Z" fill="#FECE0D"/>
<path d="M52.3642 66.667H58.9893V66.7576L58.2632 66.8482L52.818 66.9387L52.6365 67.6634V68.1163L52.9087 68.2068H52.2734L52.3642 66.667Z" fill="#0E090C"/>
<path d="M66.0707 30.3438H67.7043L70.1547 30.6155L69.6101 30.8872H68.3396L65.2539 30.7966V30.6155L66.0707 30.5249V30.3438Z" fill="#211C1C"/>
<path d="M127.784 57.6992H127.875V58.7862L127.603 59.0579L125.152 59.1485H119.344L118.527 59.0579V58.9673H123.065L125.878 58.8768L127.149 58.7862L127.694 58.605L127.784 57.6992Z" fill="#FFCF0D"/>
<path d="M96.3828 30.3438H99.4685L101.193 30.5249V30.6155L100.739 30.7061V30.8872H99.4685L97.3811 30.7966L97.1996 30.6155L97.3811 30.5249L96.3828 30.4343V30.3438Z" fill="#1F1A1A"/>
<path d="M181.418 74.4561H181.508V77.8075H179.693L178.877 77.7169L178.423 77.1734L178.332 76.7205L178.695 77.1734L179.603 77.4452L181.055 77.3546L181.236 77.4452V76.5394L181.418 74.4561Z" fill="#0A060A"/>
<path d="M135.951 72.7354L136.042 73.0977L135.588 74.7281L135.225 76.6303L135.044 77.4455L135.951 77.5361V77.6267H134.59L134.771 76.7209L135.86 72.8259L135.951 72.7354Z" fill="#0B070B"/>
<path d="M66.1605 40.127H66.8866L66.6143 40.3081V40.5799L65.979 40.761L66.0698 41.0328V41.6668L66.4328 41.7574L65.4345 41.848L65.3438 41.7574V40.761L65.616 40.3081L66.1605 40.127Z" fill="#FECC0D"/>
<path d="M94.7477 40.5791H94.8384L94.7477 42.3907L94.5661 45.2892L94.3846 45.1987L94.2031 44.5646V43.3871L94.3846 42.5719L94.5661 41.1226L94.7477 40.5791Z" fill="#FFCF0D"/>
<path d="M78.7743 73.8223H81.7693V75.0904L81.497 76.1773L81.2247 76.4491L81.497 75.181V74.2752L81.134 74.1846L80.8617 74.094H78.8651V74.2752H78.6836L78.7743 73.8223Z" fill="#100C0E"/>
<path d="M143.847 44.4746L143.938 44.7463L143.303 45.5616L142.849 46.105L142.123 46.7391L141.034 47.2826H140.762L141.851 46.3768L142.577 45.7427L142.849 45.471H143.031L143.212 45.1087L143.666 44.5652L143.847 44.4746Z" fill="#FECB0D"/>
<path d="M140.762 66.5762H141.488V66.9385L140.581 66.8479L137.949 66.9385L137.676 67.1197L137.495 68.0254L137.313 68.4783H137.223V67.8443L137.586 66.6668L140.762 66.5762Z" fill="#0F0B0D"/>
<path d="M151.196 31.1592H153.646L154.281 31.2498H154.917L155.28 31.4309H150.379L150.47 31.2498L151.196 31.1592Z" fill="#221D1D"/>
<path d="M181.42 66.5762H181.511V70.3805H181.42L181.329 68.5689L181.239 67.1197L180.149 66.9385L179.333 66.8479V67.0291H179.06V66.8479L178.879 66.7573L180.785 66.6668L181.42 66.5762Z" fill="#080408"/>
<path d="M1.27057 98.0977V98.3694L1.36132 98.8223L1.17981 99.1846L1.36132 99.2752L0.363019 99.9998L0 99.9093L0.363019 99.1846L1.27057 98.0977Z" fill="#FECE0D"/>
<path d="M55.54 72.8262H55.6307L55.7215 77.2646L55.8122 77.4457L56.629 77.5363L58.0811 77.6269L58.1719 77.0834H58.2626V77.8081H57.0828L55.4492 77.7175L55.54 72.8262Z" fill="#080408"/>
<path d="M160.365 69.7461H160.456V73.9128V74.1845V74.6374L160.274 74.728L160.184 74.5468V70.8331L160.274 69.8367L160.365 69.7461Z" fill="#100C0F"/>
<path d="M43.745 56.6123L43.9265 56.7029L43.382 57.1558H43.2005V57.3369L42.5652 57.6993H42.293V57.8804L41.7484 58.1522L41.6577 58.3333L40.0241 58.8768H39.5703L39.6611 58.6956L40.5686 58.3333L42.1114 57.6993L43.019 57.0652H43.2913V56.884L43.745 56.6123Z" fill="#FECE0D"/>
<path d="M123.064 74.6377H123.154L123.245 77.7174L123.154 77.808H121.974L121.793 77.6268L122.701 77.5362L122.973 76.087L123.064 74.6377Z" fill="#0B070A"/>
<path d="M156.46 66.667H157.458V68.0257L157.276 67.9351L157.004 67.1199L156.097 66.9387H155.008L154.735 67.0293L154.645 66.7576L156.46 66.667Z" fill="#080408"/>
<path d="M93.1146 72.7354H93.2053V77.7172H92.207L92.2978 77.5361L92.8423 77.4455L92.9331 77.0832L93.0238 75.9056L93.1146 72.7354Z" fill="#080408"/>
<path d="M84.4023 66.667H87.2157L87.0342 67.1199L86.9435 66.9387L84.8561 66.8482L84.6746 67.3011L84.4023 67.3916V66.667Z" fill="#120D10"/>
<path d="M68.9724 71.1953L69.3354 71.2859V72.3728L69.2447 72.7352H68.6094L68.7909 72.6446V71.8294L68.9724 71.1953Z" fill="#0B070A"/>
<path d="M69.699 66.5762H70.5157L70.6065 66.6668V68.2066H70.1527L70.2435 67.5725V67.1197L70.1527 66.9385L70.2435 66.7573H69.3359L69.699 66.5762Z" fill="#0E0A0D"/>
<path d="M152.65 66.5762H153.104L153.195 67.3008V68.2066H152.469L152.741 68.0254L152.65 67.0291L152.832 66.8479L152.56 66.6668L152.65 66.5762Z" fill="#0C080B"/>
<path d="M65.707 49.3652L65.9793 49.5464L68.4297 49.7276L68.2482 49.9087H65.7978L65.707 49.8181V49.3652Z" fill="#FECA0D"/>
<path d="M161.27 48.2783L161.543 48.5501L161.633 49.637L161.361 50.2711L161.18 49.9088V48.5501L161.27 48.2783Z" fill="#221D1D"/>
<path d="M81.1355 67.7529L81.5893 68.2058L81.7708 68.8399V70.0174L81.6801 70.1986H80.8633L81.2263 69.9268L81.4986 69.6551V68.8399L81.1355 67.9341V67.7529Z" fill="#130F11"/>
<path d="M140.762 34.3291H141.215L141.851 34.8726L142.214 35.3255L142.94 35.9595L143.121 36.2313L142.94 36.3219V36.1407L142.486 35.9595L141.488 34.9632L140.762 34.4197V34.3291Z" fill="#FECC0D"/>
<path d="M108.453 71.7393L108.725 71.8298V73.098L108.635 74.5472L108.453 74.4566V71.7393Z" fill="#120E10"/>
<path d="M59.5352 66.667H61.441V68.2974L61.078 68.1163L61.1687 67.7539L61.078 66.7576H59.5352V66.667Z" fill="#080408"/>
<path d="M129.688 49.7285L129.96 50.0908L130.504 51.1778L130.686 51.8118L130.323 51.4495L129.869 50.9061L129.688 50.6343V49.7285Z" fill="#FECC0D"/>
<path d="M106.363 33.2422L106.999 33.4233L108.36 34.782L108.451 35.1444L108.088 34.9632L107.271 34.0574L106.999 33.7857L106.454 33.4233L106.363 33.2422Z" fill="#FECD0D"/>
<path d="M133.137 39.8545L133.59 39.9451L134.226 40.8509L134.407 41.1226L134.317 41.5755L134.044 41.7567L133.954 40.6697H133.772L133.318 40.1262L133.137 40.0357V39.8545Z" fill="#FFCF0D"/>
<path d="M173.524 42.3008H173.706L173.615 42.6631L172.708 43.7501L172.254 44.0218L172.345 43.6595L173.343 42.5725L173.524 42.3008Z" fill="#FEC90D"/>
<path d="M128.689 67.21L128.871 67.5723L128.598 68.4781L128.417 68.7498H128.235L128.145 68.931L128.235 68.2969L128.508 67.3911L128.689 67.21Z" fill="#0C080B"/>
<path d="M31.4004 35.6885L31.4911 35.9602L31.2189 36.4131L30.7651 36.866L30.1298 38.3153L30.0391 38.0435L30.6743 36.5943L31.3096 35.7791L31.4004 35.6885Z" fill="#FECD0D"/>
<path d="M137.586 66.7568H138.765V66.8474L137.949 66.938L137.676 67.1192L137.495 68.025L137.313 68.4779H137.223V67.8438L137.495 66.8474L137.586 66.7568Z" fill="#0D090C"/>
<path d="M135.949 72.7354L136.039 73.0977L135.586 74.7281L135.404 75.181L135.223 75.2716L135.404 74.3658L135.858 72.8259L135.949 72.7354Z" fill="#120E10"/>
<path d="M108.816 75.9053L109.089 76.2676L109.724 76.9922L110.631 77.4451L110.904 77.6263L110.178 77.5357L109.361 76.9922L108.816 76.177V75.9053Z" fill="#110C0F"/>
<path d="M162.18 48.3691L162.452 48.5503L162.543 49.0938L162.452 52.2641H162.361L162.27 48.822L162.18 48.3691Z" fill="#221D1D"/>
<path d="M144.027 66.7568H144.935V66.8474L144.39 67.0286L144.209 67.5721V68.025L144.572 68.2061H144.027V66.7568Z" fill="#080408"/>
<path d="M138.766 33.333L139.673 33.5142L140.671 34.0576V34.2388L140.127 34.1482L139.855 33.8765L138.856 33.5142L138.766 33.333Z" fill="#FEC90D"/>
<path d="M84.2215 39.2207L84.3122 39.583V40.3982L84.1307 41.0323H83.9492V40.3982L84.2215 39.2207Z" fill="#FFCF0D"/>
<path d="M96.745 39.2207H97.5618V39.3113L96.2005 39.583L95.8375 39.7642L95.656 40.0359H95.293V39.8548L96.019 39.4019L96.745 39.2207Z" fill="#FECD0D"/>
<path d="M168.984 58.1523L169.257 58.2429L169.62 58.6958L170.164 58.9676L170.073 59.1487L169.438 59.0581L168.984 58.3335V58.1523Z" fill="#FECC0D"/>
<path d="M149.656 31.0684H152.197V31.1589L150.201 31.3401V31.1589H149.656V31.0684Z" fill="#0F0B0E"/>
<path d="M58.1726 77.083H58.2634V77.8076H57.0836L56.5391 77.7171V77.6265H58.0819L58.1726 77.083Z" fill="#100C0E"/>
<path d="M146.296 58.6953L146.478 58.7859L146.387 59.1482H144.027V59.0576L146.296 58.9671V58.6953Z" fill="#FDBF0E"/>
<path d="M69.7922 49.4561H70.4275L70.5182 49.6372L70.1552 49.7278H68.7031V49.6372L69.7922 49.4561Z" fill="#FFCF0D"/>
<path d="M102.371 76.3584L102.734 76.8113L103.188 77.3548L103.46 77.6265H103.006L102.371 76.6301V76.3584Z" fill="#0E0A0D"/>
<path d="M55.4492 77.2646H55.7215L55.8122 77.4458L56.5383 77.627V77.7175H55.4492V77.2646Z" fill="#0B070B"/>
<path d="M130.141 51.1777L130.504 51.5401L131.048 52.2647L130.957 52.627L130.141 51.3589V51.1777Z" fill="#FDC50D"/>
<path d="M129.235 42.5723L129.508 42.6628L129.417 43.4781H129.145V42.7534L129.235 42.5723Z" fill="#221D1D"/>
<path d="M108.724 68.2969H108.905V69.1121L108.724 69.565H108.633V68.478L108.724 68.2969Z" fill="#0D090C"/>
<path d="M77.1406 34.873L77.7759 35.4165L78.1389 35.7788V35.96L77.7759 35.7788L77.1406 35.0542V34.873Z" fill="#FFCF0D"/>
<path d="M180.059 34.2393V34.511L179.424 35.2356L179.242 35.0545L179.877 34.3298L180.059 34.2393Z" fill="#FEC80D"/>
<path d="M128.781 72.6445L128.872 73.0069L128.599 73.9126H128.418L128.509 73.188L128.781 72.6445Z" fill="#100C0F"/>
<path d="M161.091 43.8408H161.454L161.363 44.4749H161.182L161.091 44.656L161 44.4749L161.091 43.8408Z" fill="#221D1D"/>
<path d="M0.905725 99.2744H1.08723L0.905725 99.6367L0.451951 99.9085H0.179688L0.270442 99.6367L0.905725 99.2744Z" fill="#FDC30D"/>
<path d="M123.699 66.667H124.425V67.0293H123.881L123.699 66.667Z" fill="#080408"/>
<path d="M133.137 39.8545L133.59 39.9451L133.954 40.398L133.863 40.6697L133.409 40.2168L133.137 40.0357V39.8545Z" fill="#FEC90D"/>
<path d="M81.5893 69.6553H81.6801V70.1988H80.8633L81.2263 69.927L81.5893 69.6553Z" fill="#080408"/>
<path d="M172.344 44.7461L172.707 45.199L173.07 45.8331L172.707 45.6519L172.435 45.3802L172.344 44.7461Z" fill="#FFCF0D"/>
<path d="M137.401 76.8115H137.491V77.6267L137.401 77.7173H136.402V77.6267H137.219L137.401 76.8115Z" fill="#0C070B"/>
</svg>
