<svg width="105" height="120" viewBox="0 0 105 120" fill="none" xmlns="http://www.w3.org/2000/svg">
<path d="M51.8992 9L52.2742 9.075L53.3242 9.825L54.8242 10.875L56.0992 11.775L57.5242 12.825L62.4742 16.275L63.7492 17.175L64.7992 17.925L66.0742 18.825L67.4242 19.8L68.6992 20.7L69.8992 21.525L71.1742 22.425L72.6742 23.475L73.9492 24.375L75.3742 25.425L76.5742 26.25L77.6242 27L78.8992 27.9L80.6242 29.1L82.1242 30.15L83.1742 30.9L84.5242 31.875L85.7242 32.7L87.0742 33.675L88.3492 34.575L90.0742 35.775L95.1742 39.375L95.3992 39.6L95.2492 40.275L93.8992 44.25L92.8492 47.325L90.8992 53.1L89.8492 56.325L88.4992 60.375L87.4492 63.6L84.9742 70.875L83.9242 73.95L82.5742 78.075L81.4492 81.525L80.5492 84.225L79.0492 88.65L78.9742 88.95H25.1242L24.8242 88.2L23.6992 84.75L20.5492 75.3L18.0742 67.95L17.0242 64.875L15.9742 61.65L14.9242 58.5L13.8742 55.275L12.9742 52.575L11.3242 47.7L10.0492 43.95L9.14922 41.325L8.69922 39.825L8.77422 39.45L10.1242 38.475L11.3992 37.575L12.8992 36.525L14.1742 35.625L15.0742 35.025L16.3492 34.125L17.6992 33.15L19.1992 32.1L20.4742 31.2L21.8242 30.225L24.3742 28.425L26.0242 27.3L27.2992 26.4L29.9992 24.45L31.4992 23.4L32.8492 22.425L35.4742 20.625L36.7492 19.725L39.4492 17.775L40.4992 17.025L41.7742 16.125L43.2742 15.075L44.6992 14.1L46.0492 13.125L47.2492 12.3L49.7992 10.5L51.1492 9.525L51.8992 9Z" fill="#7B1D7A"/>
<path d="M51.9758 2.625L52.2758 2.775L53.6258 3.75L56.1758 5.55L57.6008 6.525L60.1508 8.325L61.6508 9.375L63.0008 10.35L64.2758 11.25L65.6258 12.225L67.1258 13.275L68.4008 14.175L70.1258 15.375L71.3258 16.2L74.0258 18.15L75.3008 19.05L76.3508 19.8L78.0758 21L81.0758 23.1L83.7758 25.05L85.2008 26.025L86.5508 27L88.2758 28.2L89.4758 29.025L90.8258 30L92.0258 30.825L94.7258 32.775L95.9258 33.6L97.2758 34.575L98.9258 35.7L100.201 36.6L101.401 37.5L101.476 37.875L100.426 40.95L99.1508 44.7L97.2008 50.55L96.1508 53.775L93.6758 61.2L92.6258 64.2L89.7758 72.75L88.7258 75.975L87.8258 78.6L86.7758 81.825L85.5758 85.35L84.4508 88.65L82.6508 94.05H21.5258L21.3008 93.675L18.0008 83.775L16.9508 80.775L15.9008 77.55L15.0008 74.85L13.3508 69.825L12.3008 66.75L11.1758 63.375L10.1258 60.3L5.55078 46.575L4.57578 43.575L3.45078 40.35L2.55078 37.575L3.45078 36.9L4.65078 36.075L5.92578 35.175L7.42578 34.125L8.77578 33.15L10.0508 32.25L11.1008 31.5L12.3758 30.6L13.8758 29.55L15.1508 28.65L16.2008 27.9L17.7008 26.85L18.9008 26.025L20.2508 25.05L21.3008 24.3L22.6508 23.325L24.1508 22.275L25.5758 21.3L28.1258 19.5L29.1758 18.75L30.5258 17.775L31.9508 16.8L33.1508 15.9L34.8008 14.775L36.5258 13.575L39.0758 11.775L41.7758 9.825L44.7758 7.725L46.5008 6.525L47.8508 5.55L49.5008 4.425L50.8508 3.45L51.7508 2.775L51.9758 2.625ZM51.9008 9L50.8508 9.75L49.5008 10.725L48.0758 11.7L47.2508 12.3L45.7508 13.35L44.4758 14.25L43.0508 15.225L40.5008 17.025L36.4508 19.95L34.7258 21.15L33.8258 21.75L32.5508 22.65L31.2008 23.625L29.7758 24.6L28.5758 25.5L26.0258 27.3L24.6008 28.275L23.1008 29.325L21.8258 30.225L20.4758 31.2L19.4258 31.95L17.9258 33L16.5758 33.975L15.0758 35.025L13.4258 36.15L9.60078 38.85L8.70078 39.525L8.77578 40.125L11.1008 47.1L12.1508 50.175L13.3508 53.7L14.4008 56.925L15.3008 59.625L16.8008 64.2L17.8508 67.275L18.7508 69.975L20.6258 75.525L22.9508 82.5L23.9258 85.5L24.8258 88.2L25.1258 88.95H78.9758L79.9508 85.95L81.0008 82.875L82.5758 78.075L83.7008 74.7L84.7508 71.475L86.1758 67.35L87.3008 63.975L88.3508 60.9L89.5508 57.225L90.4508 54.525L91.6508 50.85L93.2258 46.2L94.5758 42.225L95.4008 39.825L95.3258 39.525L94.5758 38.925L93.1508 37.95L91.8008 36.975L90.6008 36.15L89.3258 35.25L87.8258 34.2L86.4758 33.225L84.9758 32.175L83.7008 31.275L82.3508 30.3L80.6258 29.1L77.6258 27L76.5758 26.25L75.3008 25.35L73.9508 24.375L72.6758 23.475L71.1758 22.425L70.1258 21.675L68.9258 20.85L67.4258 19.8L64.7258 17.85L63.7508 17.175L62.4758 16.275L59.2508 14.025L57.7508 12.975L55.0508 11.025L53.3258 9.825L52.2008 9H51.9008Z" fill="#FEFFFE"/>
<path d="M51.0742 35.625H53.5492L55.1242 35.775L56.9992 36.15L58.7992 36.75L60.4492 37.5L61.8742 38.325L62.9242 39.075L63.8992 39.9L64.4992 40.425L65.6242 41.55L66.4492 42.6L67.1242 43.575L67.8742 44.85L68.6992 46.725L69.2242 48.3L69.6742 50.475L69.8242 51.825V54.45L69.5992 56.25L69.1492 58.125L68.3992 60.225L67.7992 61.425L67.1242 62.625L66.3742 63.675L65.6992 64.5L64.8742 65.4L64.1992 66.075L63.1492 66.9L62.2492 67.575L60.7492 68.475L59.0242 69.3L57.5242 69.825L56.3992 70.125L54.7492 70.425L53.2492 70.575H51.5992L50.0242 70.425L48.0742 70.05L46.3492 69.525L44.9992 68.925L43.7992 68.325L42.5992 67.575L41.2492 66.525L40.3492 65.7L39.7492 65.175L39.2242 64.575L38.3992 63.6L37.4992 62.25L36.5992 60.6L35.8492 58.65L35.3992 57L35.0992 55.425L34.9492 53.925V52.2L35.0992 50.55L35.3992 48.975L35.9992 47.025L36.5992 45.6L37.4992 43.875L38.3242 42.675L39.1492 41.625L40.9492 39.825L41.9992 39L42.9742 38.325L44.0992 37.65L45.8242 36.825L47.8492 36.15L49.7242 35.775L51.0742 35.625Z" fill="#FEFFFE"/>
<path d="M51.9 0L52.275 0.075L53.175 0.75L54.15 1.425L55.5 2.4L56.775 3.3L58.5 4.5L59.85 5.475L62.4 7.275L63.6 8.1L65.325 9.3L66.675 10.275L67.95 11.175L69 11.925L70.35 12.9L71.775 13.875L74.325 15.675L75.825 16.725L77.1 17.625L78.45 18.6L79.2 19.125L80.55 20.1L82.275 21.3L83.55 22.2L85.05 23.25L86.25 24.075L87.3 24.825L88.575 25.725L91.275 27.675L92.7 28.65L94.2 29.7L95.475 30.6L96.825 31.575L100.65 34.275L102.375 35.475L104.025 36.6L104.1 36.9L103.2 39.6L102.225 42.45L99.825 49.65L98.775 52.725L96.675 59.025L95.625 62.25L94.725 64.95L93.075 69.825L91.65 74.025L90.675 76.875L89.625 80.1L88.425 83.775L87.525 86.475L85.95 91.125L85.05 93.825L84.225 96.225L83.4 96.3H20.175L19.8 96.225L18.9 93.45L17.85 90.375L12.225 73.5L11.25 70.65L6.6 56.7L5.7 53.925L3.6 47.775L0.525 38.55L0 36.9L0.075 36.6L5.025 33.15L8.175 30.9L9.525 29.925L10.725 29.1L12.45 27.9L13.875 26.925L15 26.1L16.275 25.2L17.625 24.225L20.175 22.425L21.6 21.45L22.95 20.475L24.375 19.5L25.725 18.525L27.15 17.55L28.05 16.875L29.325 15.975L30.675 15L32.1 14.025L33.375 13.125L34.8 12.15L36.225 11.1L37.5 10.2L38.85 9.225L40.275 8.25L41.625 7.275L42.75 6.525L44.025 5.625L45.375 4.65L46.425 3.9L47.775 2.925L49.2 1.95L50.55 0.975L51.75 0.15L51.9 0ZM51.975 2.625L50.775 3.525L49.5 4.425L47.775 5.625L46.5 6.525L42 9.675L40.65 10.65L39.375 11.55L38.025 12.525L35.025 14.625L33.6 15.6L32.25 16.575L29.7 18.375L28.35 19.35L27.075 20.25L25.575 21.3L23.85 22.5L22.425 23.475L21.225 24.375L19.95 25.275L18.9 26.025L17.175 27.225L15.9 28.125L14.4 29.175L11.85 30.975L9.75 32.475L8.475 33.375L7.125 34.35L5.925 35.175L4.65 36.075L3.15 37.125L2.55 37.575L3.45 40.35L4.875 44.475L6.675 49.95L10.2 60.525L11.25 63.6L17.1 81.15L19.125 87.15L21.375 93.9L21.525 94.05H82.65L83.7 90.9L84.75 87.825L85.8 84.675L86.85 81.6L87.825 78.6L88.875 75.525L90.6 70.275L91.5 67.575L92.55 64.5L93.3 62.25L94.35 59.175L97.125 50.85L98.175 47.625L99.825 42.675L100.875 39.6L101.475 37.875L101.4 37.5L100.425 36.75L98.925 35.7L97.725 34.875L93.9 32.175L92.55 31.2L91.275 30.3L89.775 29.25L88.725 28.5L87.525 27.675L84.975 25.875L83.475 24.825L80.775 22.875L79.575 22.05L78.3 21.15L76.575 19.95L74.025 18.15L71.325 16.2L69.6 15L68.4 14.175L67.05 13.2L65.85 12.375L64.575 11.475L61.875 9.525L60.15 8.325L57.6 6.525L56.175 5.55L53.625 3.75L52.275 2.775L51.975 2.625Z" fill="#7B1D7A"/>
<path d="M21.7516 98.9248H83.8516L83.9266 98.9998V101.175H21.6016V98.9998L21.7516 98.9248Z" fill="#7B1D7A"/>
<path d="M21.7516 117.75H81.2266L83.9266 117.825V120H21.6016V117.825L21.7516 117.75Z" fill="#7B1D7A"/>
<path d="M46.3516 72.8252L47.7016 73.1252L49.3516 73.4252L50.7016 73.5752L52.2016 73.6502H53.1766L55.1266 73.5002L56.7766 73.2002L57.2266 73.1252L57.1516 73.6502L55.5016 77.7002L54.4516 80.2502L53.0266 83.7752L52.0516 86.1752L51.8266 86.9252L51.6016 86.7002L50.3266 83.3252L49.3516 80.8502L48.9016 79.5752L47.7766 76.6502L46.4266 73.1252L46.3516 72.8252Z" fill="#FEFFFE"/>
<path d="M53.025 19.3496H53.175L54 21.5246L55.275 24.8246L56.25 27.3746L57.375 30.2996L57.975 31.8746L58.425 33.0746V33.3746L57.225 33.0746L55.425 32.6996L54 32.5496H50.7L48.9 32.7746L47.625 32.9996L47.7 32.5496L49.5 28.0496L50.4 25.8746L51.225 23.8496L52.875 19.7246L53.025 19.3496Z" fill="#FEFFFE"/>
<path d="M29.4766 28.6504L29.9266 28.8004L32.9266 30.1504L35.1766 31.1254L39.5266 33.1504L41.7016 34.1254L42.9766 34.6504V34.8004L41.5516 35.5504L40.1266 36.5254L39.3016 37.2004L38.5516 37.8754L37.9516 38.4004L37.4266 38.9254L36.9016 39.5254L36.0016 40.6504L35.2516 41.7754L34.9516 42.0754L34.6516 41.4754L33.6766 39.0754L32.4016 36.0004L31.3516 33.4504L30.3766 31.0504L29.6266 29.1754L29.4766 28.6504Z" fill="#FEFFFE"/>
<path d="M76.05 29.7002L76.35 29.7752L75.6 31.5752L74.325 34.5752L72.975 37.7252L71.85 40.2752L70.65 42.9752L70.5 43.1252L69.15 41.1002L68.475 40.2002L67.8 39.3752L66.75 38.2502L65.85 37.4252L64.875 36.6752L63.825 35.9252L63 35.4002L63.075 35.2502L65.775 34.1252L68.55 32.9252L75.3 30.0752L76.05 29.7002Z" fill="#FEFFFE"/>
<path d="M69.825 64.125L70.05 64.35L70.875 66.375L71.925 68.925L73.05 71.7L73.95 73.875L75.3 77.25V77.475L74.925 77.4L73.05 76.5L69 74.7L66.45 73.5L64.275 72.525L61.875 71.475L62.1 71.25L63.675 70.35L64.5 69.75L65.475 69L66.6 68.025L67.5 67.125L68.175 66.3L69.15 65.1L69.675 64.275L69.825 64.125Z" fill="#FEFFFE"/>
<path d="M34.275 63.0752H34.425L35.4 64.6502L36.075 65.5502L36.9 66.6002L37.8 67.5752L39 68.7752L40.275 69.7502L41.325 70.4252L41.85 70.8002L41.7 70.9502L39.825 71.7002L36.675 73.0502L34.35 74.0252L31.95 75.0752L29.625 76.0502L28.65 76.5002H28.5L28.575 76.1252L29.925 72.9752L31.35 69.6002L32.55 66.9002L33.45 64.8002L34.2 63.1502L34.275 63.0752Z" fill="#FEFFFE"/>
<path d="M32.4758 47.0996H32.7008L32.4758 47.9246L32.1008 49.5746L31.8758 51.4496V54.8996L32.1758 56.9996L32.3258 57.8246L31.9508 57.7496L28.9508 56.4746L26.4008 55.4246L23.1758 54.0746L20.1758 52.7996L19.4258 52.4996V52.2746L20.7758 51.6746L23.1008 50.7746L25.1258 49.9496L28.2758 48.7496L31.7258 47.3996L32.4758 47.0996Z" fill="#FEFFFE"/>
<path d="M72.6016 48.2998L72.9766 48.4498L74.4016 49.0498L77.3266 50.2498L83.4766 52.8748L85.1266 53.5498L85.5766 53.7748L85.3516 53.9998L82.9516 54.8998L80.7016 55.7998L74.3266 58.2748L72.3766 59.0998H72.2266L72.3766 58.1998L72.7516 56.4748L72.9766 54.5998V51.5248L72.6766 49.1248L72.6016 48.2998Z" fill="#FEFFFE"/>
<path d="M41.6258 105.525H45.7508L46.5758 105.675L47.6258 106.2L48.1508 106.65L48.6758 107.475L48.9758 108.525L49.0508 109.125V110.175L48.8258 111.375L48.4508 112.275L48.0008 112.875L47.5508 113.25L46.8008 113.625L45.6008 113.85L41.6258 113.925L41.5508 113.85V105.75L41.6258 105.525Z" fill="#FEFFFE"/>
<path d="M55.4266 105.525H59.4766L60.3766 105.675L61.4266 106.2L61.8766 106.575L62.4016 107.325L62.7016 108.075L62.8516 109.05V110.025L62.7016 111.15L62.3266 112.2L61.8016 112.875L61.2766 113.325L60.6016 113.625L59.5516 113.85L55.5766 113.925L55.3516 113.775V107.4L55.4266 105.525Z" fill="#FEFFFE"/>
<path d="M53.5508 104.175H59.4758L60.8258 104.325L61.9508 104.7L62.7758 105.225L63.3008 105.675L63.8258 106.35L64.2758 107.175L64.5758 108L64.7258 108.825V110.475L64.4258 111.75L64.1258 112.5L63.6008 113.325L62.9258 114L62.1008 114.525L61.2008 114.9L60.3008 115.125L59.7758 115.2L58.2758 115.275H53.6258L53.5508 115.2V104.175ZM55.4258 105.525L55.3508 107.4V113.775L55.5758 113.925L59.5508 113.85L60.8258 113.55L61.5758 113.1L62.1758 112.425L62.4758 111.825L62.7758 110.775L62.8508 110.025V109.05L62.6258 107.85L62.1758 106.95L61.6508 106.35L60.9008 105.9L60.0758 105.6L59.4758 105.525H55.4258Z" fill="#7B1D7A"/>
<path d="M39.75 104.175H45.75L47.025 104.325L48.15 104.7L49.2 105.375L49.875 106.125L50.475 107.175L50.775 108.075L50.925 108.9V110.325L50.625 111.75L50.025 112.95L49.575 113.55L48.825 114.225L48.15 114.6L47.475 114.9L46.5 115.125L44.625 115.275H39.825L39.75 115.2V104.175ZM41.625 105.525L41.55 105.75V113.85L41.625 113.925L45.6 113.85L46.8 113.625L47.7 113.175L48.225 112.65L48.75 111.6L48.975 110.775L49.05 110.175V109.125L48.825 107.925L48.525 107.25L48.075 106.575L47.4 106.05L46.575 105.675L45.75 105.525H41.625Z" fill="#7B1D7A"/>
<path d="M25.8008 103.95L27.4508 104.025L28.7258 104.325L29.7008 104.775L30.3008 105.225L30.8258 105.975L31.2008 106.875V107.25L31.1258 107.325L30.2258 107.4H29.4758L29.1008 106.425L28.7258 105.975L27.9758 105.6L26.9258 105.375H25.3508L24.3008 105.6L23.4758 106.125L23.2508 106.5V107.325L23.5508 107.775L24.1508 108.075L25.2758 108.375L28.3508 109.05L29.7008 109.5L30.4508 109.95L30.9758 110.4L31.4258 111.15L31.6508 111.825L31.5758 112.65L31.2758 113.325L30.6758 114.15L30.0758 114.6L29.3258 114.975L28.2758 115.275L27.0008 115.425H25.9508L24.6758 115.275L23.5508 114.975L22.8758 114.675L22.2008 114.225L21.6008 113.625L21.2258 113.025L20.9258 112.125V111.675L21.0008 111.6L22.5758 111.525L22.9508 112.575L23.5508 113.25L24.5258 113.7L25.3508 113.925L26.0258 114H27.0008L28.0508 113.85L28.9508 113.55L29.5508 113.025L29.7758 112.5V111.9L29.5508 111.45L29.1008 111.075L28.1258 110.7L25.8758 110.175L24.0008 109.725L23.0258 109.35L22.3508 108.9L21.8258 108.375L21.5258 107.775L21.4508 107.475V106.575L21.7508 105.825L22.2008 105.225L22.7258 104.775L23.6258 104.325L24.5258 104.1L25.8008 103.95Z" fill="#7B1D7A"/>
<path d="M67.2 104.175H68.925L69 105.15V108.675H75.9V104.175H77.7V115.2L77.475 115.275H76.125L75.9 115.2L75.825 110.1H69L68.925 115.2L68.325 115.275H67.2L67.125 114.15V104.25L67.2 104.175Z" fill="#7B1D7A"/>
<path d="M34.6492 104.175H36.3742V115.2L36.0742 115.275H34.7242L34.5742 115.2V104.325L34.6492 104.175Z" fill="#7B1D7A"/>
<path d="M81.5234 104.175H83.3234V115.125L83.2484 115.2L82.7234 115.275H81.5984L81.5234 115.2V104.175Z" fill="#7B1D7A"/>
</svg>
