<svg width="146" height="120" viewBox="0 0 146 120" fill="none" xmlns="http://www.w3.org/2000/svg">
<path d="M70.6942 0L74.4868 0.151707L77.2175 0.758534L79.7965 1.66877L81.9204 2.88243L83.8926 4.3995L86.0165 6.52339L87.5335 8.79899L88.7472 11.2263L89.5057 13.6536L89.9608 16.2326V19.2668L89.5057 21.8458L88.4438 24.8799L87.2301 27.1555L85.8648 28.976L84.196 30.7965L81.9204 32.4652L79.7965 33.6789L76.7624 34.8926L75.2454 35.3477L73.1215 35.6511L69.3288 35.4994L65.6879 34.4374L62.9572 33.2238L61.2884 32.1618L59.7714 30.9482L58.2543 29.5828L57.0407 28.0658L55.6753 25.9419L54.6134 23.5145L54.0065 21.5424L53.7031 19.4185V16.0809L54.1582 13.5019L54.9168 11.0746L56.4338 8.19217L58.1026 6.06827L60.0748 4.09608L62.5021 2.42731L64.9294 1.21365L67.5084 0.45512L69.0254 0.151707L70.6942 0Z" fill="#302485"/>
<path d="M10.0126 57.6484H18.5081L18.6598 57.8001V67.3577H30.6446L30.7963 57.6484H39.2918L39.4435 62.6548V87.6864L39.2918 87.9898H30.7963L30.6446 75.7015H23.3627L18.8115 75.8533L18.6598 87.6864L18.5081 87.9898H10.316L10.0126 87.8381L9.86088 79.3425L10.0126 75.7015L0.151706 75.5498L0 75.3981V67.3577L9.86088 67.206L10.0126 57.6484Z" fill="#740C51"/>
<path d="M114.841 67.3584H117.875L119.392 67.8135L121.061 68.8755L122.274 70.5442L122.881 72.0613L123.336 74.4886V76.0057L122.881 79.0398L122.123 81.3154L121.061 83.2876L119.695 84.9564L118.026 86.3217L116.054 87.232L114.234 87.6871H112.11L110.138 87.0803L108.772 86.17L107.407 84.653V84.3496H107.104L106.497 87.3837L104.828 94.5139L104.221 94.8173L98.3047 94.6656L98.9115 91.7832L100.277 85.5632L103.159 72.8198L104.221 68.2686L104.373 67.9652H110.289L110.441 68.2686L109.986 70.0891L110.745 69.634L112.11 68.4203L113.627 67.6618L114.841 67.3584Z" fill="#302384"/>
<path d="M77.2164 67.5098H80.2505L82.2227 68.1166L83.4364 69.0268L84.4983 70.2405L85.1051 69.9371L85.712 69.1785L87.3807 68.1166L89.3529 67.5098H92.0836L93.7524 67.9649L94.966 68.5717L96.3314 70.0888L96.9382 71.4541L97.2416 72.9712V86.9282L97.0899 87.0799L90.87 86.9282L90.7183 74.3366L89.9597 72.8195L88.7461 72.3644H86.7739L85.712 73.1229L84.9534 74.64L84.8017 83.7424L84.65 86.9282H79.0369L78.8852 86.7765L78.7335 74.4883L78.2784 73.2746L77.5198 72.5161L76.913 72.3644H74.9408L74.1823 72.8195L73.4238 73.7297L72.9687 74.9434L72.817 76.0053L72.6653 86.7765L72.5135 86.9282H66.4453V67.9649H72.6653V70.2405L73.7272 69.3302L75.396 68.1166L77.2164 67.5098Z" fill="#302384"/>
<path d="M30.7999 57.6484H39.2954L39.4471 62.6548V87.6864L39.2954 87.9898H30.7999L30.6482 75.7015H25.4902L24.4282 75.5498L24.7317 74.6396L25.6419 73.5777L25.4902 73.2742L25.3385 73.4259H14.2639L11.0781 72.9708L11.3815 72.6674L11.9884 72.5157H26.5521L28.0692 71.1503L28.5243 70.3918L28.676 69.785L29.5862 69.0264L30.1931 68.723L30.3448 67.5094L30.0414 67.3577H30.6482L30.7999 57.6484Z" fill="#302384"/>
<path d="M50.8223 67.5098H55.0701L57.3457 67.9649L58.8627 68.5717L60.2281 69.6337L61.29 71.1507L61.7451 72.5161L61.8968 84.0458L62.3519 85.8663L62.8071 86.4731V86.9282H56.132L55.9803 86.7765L55.8286 85.4112L55.0701 85.7146L53.4013 86.7765L51.2774 87.5351L50.5189 87.6868H48.0916L46.1194 87.0799L44.7541 86.1697L43.6921 84.956L43.0853 83.439L42.9336 81.9219L43.237 80.1014L43.9955 78.5844L44.6024 77.8258L46.2711 76.7639L47.9399 76.1571L52.0359 75.3985L54.4632 74.7917L55.3735 74.3366L55.5252 74.0332V73.1229L54.9184 72.2127L54.3115 71.9093L52.4911 71.7576L50.6706 72.2127L49.7604 73.4263L49.3052 73.8815H43.8438L43.6921 73.7297L43.8438 72.5161L44.4507 71.1507L45.0575 70.2405L46.1194 69.1785L48.2433 68.1166L50.8223 67.5098Z" fill="#302384"/>
<path d="M132.896 67.3584H138.054L140.633 67.9652L142.453 68.8755L143.667 70.0891L144.425 71.4545L144.729 72.213L144.577 72.8198H138.509L137.599 71.6062L136.537 71.1511H134.413L133.503 71.4545L133.048 72.213L133.199 73.275L134.413 74.0335L138.054 75.0954L142.15 76.3091L143.667 77.2193L144.729 78.433L145.336 79.7984L145.487 81.6188L145.184 82.9842L144.274 84.653L142.757 86.0183L140.936 86.9286L138.509 87.5354L137.447 87.6871H134.109L131.379 87.232L129.407 86.4735L127.738 85.4115L126.524 83.8944L125.917 82.5291L125.766 81.3154H132.137L132.896 82.6808V82.9842L133.503 83.2876L135.171 83.7427H136.537L138.206 83.1359L138.812 82.3774L138.661 81.3154L137.447 80.5569L131.834 78.8881L129.558 77.9779L128.193 77.0676L126.979 75.7023L126.524 74.3369V72.3647L127.131 70.6959L128.041 69.4823L129.558 68.4203L131.53 67.6618L132.896 67.3584Z" fill="#302384"/>
<path d="M25.3335 110.442H25.7887L25.637 111.201L24.8784 112.718L24.7267 113.173V114.387L25.1818 114.994L25.9404 114.842L27.154 113.78L27.4574 113.325L28.216 113.477L28.8228 114.69L29.4296 114.994L30.3398 114.842L31.0984 114.538V114.235L31.8569 113.78L32.9188 113.325L33.6774 113.477L34.2842 114.69L34.4359 114.842H35.3461L36.1047 114.235L37.0149 113.021L37.47 112.87V114.994L38.0768 115.145L39.1388 114.538L40.049 113.477L40.8075 113.325L41.4144 113.477L41.8695 113.173L42.4763 113.325L42.9314 114.69L43.2348 114.994H44.2968L45.5104 114.083L46.4207 113.325L46.7241 113.628L47.0275 114.69L47.786 114.235L48.848 112.566L50.0616 111.201L50.6684 110.898L50.5167 111.656L49.7582 113.173L49.6065 113.78V114.994L50.2133 115.145L51.2752 114.538L52.4889 113.325L52.944 113.173L53.2474 113.477L53.7025 114.69H54.6128L55.9781 113.78L57.0401 112.718H57.1918V113.78L56.2815 115.297L54.3094 117.269L53.2474 119.241L53.3991 120H15.4727L15.9278 119.393H16.2312L16.5346 118.786L18.6585 116.056L21.2375 113.932L23.2097 112.415L24.1199 111.049L25.3335 110.442Z" fill="#FEFEFE"/>
<path d="M23.3642 102.402L23.971 102.706L24.2744 103.313L24.1227 104.223L23.3642 104.981L21.9988 106.043H21.6954L22.3022 104.83L21.0886 105.133L19.4198 106.043L17.5993 107.409L16.3857 108.622L15.0203 110.746L14.7169 111.353V112.718L14.8686 112.87H15.7789L17.751 111.505L20.0266 109.381L21.2403 108.319L22.1505 107.257L22.909 107.409L23.0607 108.015L22.3022 109.836L20.33 113.325L19.7232 114.387L21.2403 113.477L22.3022 112.718L23.0607 111.808V109.988L23.8193 108.622L23.971 108.471H24.7295L25.3363 108.774H27.3085L27.4602 108.926L27.3085 110.139L26.3983 111.353L25.9432 112.415V113.325L27.1568 113.022L27.9153 112.263L28.8256 110.443L30.1909 109.077L31.5563 108.471H32.3148L32.9216 109.836V111.505L32.4665 112.718L33.3767 112.567L33.6802 111.656L34.7421 110.139L35.804 108.926L36.2592 108.471H37.0177L37.1694 109.229L36.5626 110.443L34.8938 112.415L34.5904 113.629L35.5006 113.325L36.2592 112.567L37.7762 110.595L38.9899 108.926L39.5967 108.774L39.7484 109.381L38.5347 112.112L38.383 112.567V113.629L39.1416 113.325L39.7484 112.415L40.2035 110.746L41.1137 109.533L41.5689 109.077H42.024V110.291L41.5689 111.656L41.4172 112.567L42.1757 112.415L42.7825 111.05L43.6927 109.684L44.7547 108.774H45.6649L45.5132 109.836L44.603 111.201L43.8444 112.112L43.6927 113.174L43.9962 113.629L45.0581 113.477L46.4234 112.263L47.3337 110.595L48.3956 109.381L49.3059 109.229L49.1542 110.139L47.9405 111.808L47.6371 112.718L48.699 111.808L49.761 110.595L51.1263 109.381L52.0366 108.774L52.4917 108.926L52.7951 109.836L51.8849 111.201L51.278 111.96L50.9746 112.718L50.8229 113.629L51.8849 113.174L52.7951 112.415L53.7053 110.898L55.3741 109.229L57.498 108.167H58.2565L58.4082 108.622L57.6497 109.381L56.2843 110.139L54.7673 111.505L54.1604 112.718L54.3122 113.629L55.2224 113.325L56.5877 112.112L58.4082 109.684L59.1667 109.533L59.3184 110.291L58.4082 112.718L57.9531 113.629L59.4702 112.718L59.7736 112.87L57.9531 114.691L57.1946 115.297L55.9809 117.421L54.6156 119.09L53.5536 119.849L53.0985 119.697L53.2502 118.938L54.3122 117.118L56.2843 115.146L57.0429 113.78V112.87L55.6775 114.235L54.6156 114.842H53.7053L53.2502 114.084L52.9468 113.325L52.1883 113.78L50.6712 115.146L50.0644 115.297L49.4576 114.994V113.78L50.0644 112.263L50.5195 111.353L50.3678 111.201L49.6093 111.96L48.699 113.022L47.6371 114.539L47.0303 114.842L46.7269 114.387L46.4234 113.477L45.2098 114.539L44.2996 115.146H43.2376L42.6308 114.387L42.3274 113.325L41.7206 113.477L40.962 113.629L40.3552 113.477L39.5967 114.235L38.5347 115.146L37.6245 115.297L37.3211 114.994V113.325L37.4728 112.87L36.7143 113.477L35.804 114.691L35.3489 114.994H34.4387L33.6802 113.932L33.5284 113.477L32.7699 113.629L31.4046 114.235H31.1012V114.539L30.0392 115.146L29.129 114.994L28.3704 114.235L28.067 113.477H27.4602L26.55 114.539L25.6397 115.146L25.0329 114.994L24.5778 114.387V113.174L25.1846 111.656L25.7914 110.443L24.2744 111.05L23.2124 112.567L21.6954 113.78L19.2681 115.753L18.5096 116.359L16.234 119.394L15.4754 120H14.8686L14.7169 119.697V118.635L15.7789 117.27L17.5993 115.753L19.4198 112.718L20.6334 110.139L19.8749 110.746H19.5715V111.05L17.4476 112.718L15.9306 113.932L15.3237 114.235L14.4135 114.084L13.655 113.325L13.3516 112.567V111.05L13.8067 109.533L14.7169 107.864L15.7789 106.498L17.4476 104.981L19.4198 103.768L21.392 102.857L23.3642 102.402Z" fill="#EA141C"/>
<path d="M71.1519 0.455078H73.124L75.3996 0.758492L75.5513 0.910198L76.6133 1.06191L78.5855 1.66873L81.3162 3.1858L83.2883 4.70287L85.1088 6.37164L86.7776 8.64724L87.9912 10.9228L88.9015 13.6536L89.2049 14.8672L89.3566 16.536V18.9633L89.0532 21.0872L88.2946 23.6662L87.081 26.0935L86.019 27.7623L84.6537 29.4311L82.9849 31.0998L81.4679 32.1618H81.1645L81.4679 31.4033L82.0747 30.6447L83.1366 28.8242L83.8952 26.3969V22.9077L83.1366 20.6321L82.0747 18.9633L80.7093 17.5979L78.7372 16.3843L75.8547 15.3223L74.6411 15.0189V14.7155L76.9167 13.8053L78.5855 12.895L79.9508 11.6814L81.0127 10.0126L81.4679 8.64724V6.21994L80.5576 4.39945L79.4957 3.1858L77.3718 1.97215L75.5513 1.36532L73.2757 0.910198L69.1797 0.758492V0.606785L71.1519 0.455078Z" fill="#FDFDFD"/>
<path d="M14.5662 75.3984H18.2071L18.8139 75.5501L18.6622 87.6867L18.5105 87.9901H10.3184L10.015 87.8384L9.86328 79.3428L10.015 75.8536L10.6218 75.5501L14.5662 75.3984Z" fill="#900C3F"/>
<path d="M66.2982 13.8057H68.4221L69.1806 13.9574L69.3323 15.6261L69.7875 25.9422L69.9392 30.4934L70.0909 32.9207V35.1963L68.5738 35.0446L65.8431 34.2861L65.6914 34.1344V28.6729L65.8431 20.3291L65.9948 15.7779L66.1465 13.9574L66.2982 13.8057Z" fill="#FEFEFE"/>
<path d="M95.2698 108.318L96.3318 108.47L96.4835 108.622V109.987L95.725 110.897L93.6011 112.263L92.9943 112.87L93.2977 113.78L94.3596 113.932L95.5733 113.325L97.0903 111.959L96.9386 109.987L98.0006 108.47L99.3659 108.773H101.338V109.835L99.9727 112.111L99.821 113.476L101.338 112.87L102.097 111.656L103.007 110.139L103.614 109.38L104.524 108.925L104.979 109.077L104.827 109.835L104.069 111.201L103.159 112.414V113.78L103.917 113.628L105.131 112.414L105.738 110.594L106.799 109.229L107.558 109.077L107.406 110.442L106.344 112.718L107.71 112.566L107.861 111.656L108.772 110.291L109.834 109.229L111.654 108.318L112.716 108.47L112.868 109.077L112.564 110.139L111.957 110.897L110.44 111.959L109.378 112.566L109.227 113.173L109.682 113.932L110.896 113.78L112.109 113.021L112.868 112.718L112.564 113.476L111.351 114.69L110.137 115.297H108.772L108.013 114.538L107.71 113.173L106.344 113.628L105.738 113.476L104.524 114.538L103.765 115.145L103.007 115.297L102.248 114.538L101.793 113.476L101.035 113.932L99.821 114.993L99.0625 115.145L98.4557 114.387V113.325L99.2142 111.504L99.6693 110.442L98.4557 110.897L97.8488 111.201L97.5454 112.111L96.1801 113.476L95.1181 114.69L93.7528 115.297H92.3874L91.6289 114.083V111.808L92.5391 110.442L93.6011 109.229L95.2698 108.318Z" fill="#EA141C"/>
<path d="M112.717 72.0605H114.385L115.447 72.5157L116.206 73.4259L116.509 74.1844L116.661 76.0049L116.357 78.4322L115.144 80.8595L113.778 82.0732L112.565 82.5283H110.744L109.531 81.9215L108.62 80.4044L108.469 79.7976V77.6737L108.924 75.8532L109.834 74.0327L111.199 72.6674L112.717 72.0605Z" fill="#FEFEFE"/>
<path d="M23.3642 102.402L23.971 102.706L24.2744 103.313L24.1227 104.223L23.3642 104.981L21.9988 106.043H21.6954L22.3022 104.83L21.0886 105.133L19.4198 106.043L17.5993 107.409L16.3857 108.622L15.0203 110.746L14.7169 111.353V112.718L14.8686 112.87H15.7789L17.751 111.505L20.0266 109.381L21.2403 108.319L22.1505 107.257L22.909 107.409L23.0607 108.015L22.3022 109.836L20.33 113.325L19.7232 114.387L20.9369 113.78L21.0886 114.235L19.1164 115.904L18.3579 116.663L16.3857 119.09L15.6272 119.849L14.8686 120L14.7169 119.697V118.635L15.7789 117.27L17.5993 115.753L19.4198 112.718L20.6334 110.139L19.8749 110.746H19.5715V111.05L17.4476 112.718L15.9306 113.932L15.3237 114.235L14.4135 114.084L13.655 113.325L13.3516 112.567V111.05L13.8067 109.533L14.7169 107.864L15.7789 106.498L17.4476 104.981L19.4198 103.768L21.392 102.857L23.3642 102.402Z" fill="#EA141C"/>
<path d="M87.683 103.92H91.4756L92.0824 104.375V105.74L91.0205 106.651L89.5034 107.409H89.2L89.5034 106.802L89.9585 106.499V106.196H88.2898L86.0142 106.651L84.4971 107.409L84.042 107.864V108.623L87.8347 109.988L89.2 110.898L89.9585 111.809L90.1102 112.264V113.477L89.0483 114.843L87.683 115.601L86.0142 116.056L84.4971 116.208H82.2215L80.8562 115.905L80.0977 115.45L80.2494 114.388L81.0079 113.326L81.7664 113.477L82.0698 113.781H85.5591L87.683 113.326L88.7449 112.719V111.96L87.5312 111.202L84.3454 110.292L82.8284 109.381L82.6767 109.078V107.409L83.2835 106.196L84.042 105.437L85.104 104.678L86.9244 104.072L87.683 103.92Z" fill="#EA141C"/>
<path d="M11.5296 73.5771H24.8798L25.0315 74.184L24.2729 75.0942L23.3627 75.701H18.8115L18.2047 75.5493H14.5638L10.6194 75.701L10.0126 75.8528L9.70918 75.701L0.151706 75.5493L0 75.3976V73.8806L0.758529 73.7289L1.36535 73.8806H3.03412L5.61312 73.7289L11.5296 73.5771Z" fill="#A20D31"/>
<path d="M69.936 105.739L70.3911 105.891L70.0877 106.649L69.936 107.408L70.2394 107.711L70.0877 108.318L69.1775 109.532H67.8121L67.357 110.897L66.9019 111.959L66.7502 113.476L66.9019 113.78L67.9638 113.476L68.7223 112.869H69.0257L69.3292 111.808L70.6945 109.835L71.7565 108.925L72.8184 108.47H73.7286L74.3355 109.835V111.201L73.8803 112.111L73.7286 112.869L74.7906 112.566V113.021L74.032 113.628L72.6667 114.235L71.7565 114.993L70.8462 115.145L70.0877 114.69L69.6326 114.083L69.3292 113.325L68.7223 113.628L67.6604 114.69L66.5985 115.448H65.6882L65.0814 114.842L65.3848 112.566L64.9297 112.414L65.8399 111.201L66.7502 109.835V109.38L65.5365 109.229L65.6882 108.622L66.5985 107.56L68.4189 107.105L69.4809 105.891L69.936 105.739Z" fill="#E9141C"/>
<path d="M18.2058 67.0547L18.6609 67.2064L30.0389 67.3581L30.494 67.8132L30.1906 68.8752L29.2804 69.482L28.6735 69.7854L28.5218 70.5439L28.0667 71.3025L27.0048 72.3644L26.7014 72.2127L27.7633 71.1508V70.6957L12.441 70.3922L10.0137 70.0888L9.55859 69.7854V69.482L15.6268 69.3303L18.0541 69.1786L18.3575 69.0269L20.178 68.8752L19.8746 68.1166L18.5092 67.8132L15.7785 67.6615L16.0819 67.3581L17.9024 67.2064L18.2058 67.0547Z" fill="#740C52"/>
<path d="M14.5662 75.3984H18.2071L18.8139 75.5501L18.6622 79.3428L18.3588 79.7979L10.015 79.6462V81.0116H9.86328L10.015 75.8536L10.6218 75.5501L14.5662 75.3984Z" fill="#A30D31"/>
<path d="M67.3557 6.52344L68.8728 6.67514L70.0864 7.43368L70.6932 8.19221L70.9966 8.79904V10.3161L70.3898 11.5298L69.6313 12.2883L68.7211 12.7434H67.0523L65.5352 11.9849L64.7767 10.7712L64.625 10.1644V9.10245L65.2318 7.8888L66.4455 6.82685L67.3557 6.52344Z" fill="#FEFEFE"/>
<path d="M16.8384 81.3154H18.6589V87.6871L18.5072 87.9905H12.1355L12.8941 87.232L13.5009 86.4735L13.3492 85.4115L11.377 84.9564L10.9219 84.5013L15.6248 84.1979L16.2316 83.8944L16.3833 83.591V82.074L14.2594 82.2257L11.2253 81.9223L10.9219 81.7706V81.4671L16.8384 81.3154Z" fill="#302485"/>
<path d="M55.0689 78.1289H55.524L55.6757 78.4323V80.8596L55.2206 81.9216L54.3103 82.9835L52.7933 83.5904H50.6694L49.7592 82.9835L49.1523 81.7699V80.7079L49.7592 79.7977L50.9728 79.1909L54.6138 78.2806L55.0689 78.1289Z" fill="#FEFEFE"/>
<path d="M10.7702 70.6953H27.3062L27.0028 71.6056L26.6994 72.2124L25.4857 72.3641H18.0521L17.9004 72.2124L11.0737 72.0607L10.4668 71.909V71.6056H10.0117V71.3021H10.3151V70.847L10.7702 70.6953Z" fill="#A30D30"/>
<path d="M111.657 108.318L112.719 108.47L112.87 109.077L112.567 110.139L111.96 110.897L110.443 111.959L109.381 112.566L109.229 113.173L109.684 113.932L110.898 113.78L112.112 113.021L112.87 112.718L112.567 113.476L111.353 114.69L110.14 115.297H108.774L108.016 114.538L107.712 113.173H107.105L107.257 112.566H107.712L107.864 111.656L108.774 110.291L109.836 109.229L111.657 108.318Z" fill="#E9141C"/>
<path d="M3.79129 70.543H27.7608L27.9125 71.1498L27.0023 72.06L26.6989 71.9083L27.3057 70.6947L10.3146 70.8464V71.3015H10.0112V71.6049H10.4664V71.9083L17.8999 72.06V72.2117H5.15665L2.42594 71.9083L1.364 71.6049L0.757175 71.7566L0.605469 71.1498L2.12253 70.8464L2.42594 70.6947L3.79129 70.543Z" fill="#910C3F"/>
<path d="M10.1675 67.6621H18.5113L19.8767 67.9655L20.1801 68.2689V68.8758L19.8767 69.0275L18.3596 69.1792L11.988 69.3309L8.65043 69.1792L8.19531 69.0275L8.34702 68.1172L10.0158 67.8138L10.1675 67.6621Z" fill="#A40D2F"/>
<path d="M13.3505 58.4072H17.9017L18.3568 58.5589L18.5085 59.7726L17.9017 60.2277L15.6261 60.3794H13.3505L10.6198 60.5311L10.3164 60.076V58.8623L10.6198 58.5589L13.3505 58.4072Z" fill="#910C3E"/>
<path d="M20.4814 69.1777L26.7014 69.6329V69.9363L27.3082 69.6329L27.1565 70.2397L25.9428 70.088H23.9707L23.5155 70.2397L21.5434 70.3914H12.441L10.0137 70.088L9.55859 69.7846V69.4811L20.4814 69.1777Z" fill="#302485"/>
<path d="M10.4681 64.4756H11.6818L12.592 64.6273H17.5983L18.2051 64.779L18.3568 65.8409L17.75 66.2961L15.7778 66.4478H10.4681L10.3164 66.2961V64.6273L10.4681 64.4756Z" fill="#910C3F"/>
<path d="M10.4681 61.2891L11.9852 61.5925H16.8398L18.2051 62.0476L18.3568 62.1993V62.9578L17.5983 63.2613L16.6881 63.413L10.9232 63.5647L10.6198 63.7164L10.3164 63.2613V61.5925L10.4681 61.2891Z" fill="#910C3F"/>
<path d="M18.3555 81.0117V81.4668H10.922V81.7703L12.8941 81.922L14.7146 82.0737H16.3834L16.5351 82.3771V83.5907L16.08 84.1976L15.6248 84.3493L11.0737 84.6527L12.439 85.1078L13.501 85.4112L13.6527 86.4732L12.5907 87.8385L12.1356 87.9902H10.3151L10.0117 87.8385L10.3151 87.2317L10.922 87.3834L12.439 86.7766L12.7424 86.4732L12.8941 85.7146L10.7702 85.4112L10.1634 85.1078V84.1976L14.1078 84.0459L15.4731 83.8941L15.9282 83.5907L16.08 82.6805H10.1634V81.1634L18.3555 81.0117Z" fill="#760C51"/>
<path d="M18.3562 77.9775L18.6596 78.281V79.3429L18.3562 79.798L10.1641 79.6463V78.1292H16.8391L18.3562 77.9775Z" fill="#720D53"/>
<path d="M10.3158 79.7979H17.9011L18.3562 80.253L18.0528 81.0115L17.7494 81.1632H14.2601L10.3158 81.0115L10.1641 79.9496L10.3158 79.7979Z" fill="#A40D2F"/>
<path d="M14.5629 75.3984H18.2038L18.8107 75.5501L18.659 76.4604H12.1356L10.0117 76.6121V75.8536L10.6185 75.5501L14.5629 75.3984Z" fill="#302485"/>
<path d="M10.1675 67.6621H15.4772V67.8138L12.2914 67.9655L11.988 68.4206V68.8758L13.505 69.0275H18.3596V69.1792L11.988 69.3309L8.65043 69.1792L8.19531 69.0275L8.34702 68.1172L10.0158 67.8138L10.1675 67.6621Z" fill="#910C3F"/>
<path d="M31.2522 109.835H31.5556L31.2522 111.352L31.1004 113.324L30.3419 113.931L29.5834 114.083L29.1283 113.779L28.9766 112.717L29.4317 111.504L30.6453 110.442L31.2522 109.835Z" fill="#FEFEFE"/>
<path d="M72.5145 109.835H72.8179L72.6662 111.352L72.5145 112.717L72.3628 113.476L71.3009 114.083L70.694 113.931L70.3906 113.476L70.5423 111.959L71.6043 110.745L72.5145 109.835Z" fill="#FEFEFE"/>
<path d="M10.1634 84.1973H13.8044L13.6527 84.5007L11.0737 84.6524L12.439 85.1075L13.501 85.4109L13.6527 86.4729L12.5907 87.8382L12.1356 87.9899H10.3151L10.0117 87.8382L10.3151 87.2314L10.922 87.3831L12.439 86.7763L12.7424 86.4729L12.8941 85.7143L10.7702 85.4109L10.1634 85.1075V84.1973Z" fill="#740C52"/>
<path d="M16.2341 66.5986H18.0546L18.2063 67.2055L17.9029 67.3572L15.6273 67.5089L11.9864 67.3572L11.5312 66.902L11.8347 66.7503L16.2341 66.5986Z" fill="#302485"/>
<path d="M16.384 75.0947H19.5698L20.6318 75.2464L20.7835 75.3981L23.3625 75.5498V75.7016H18.8113L18.2045 75.5498H14.5635L10.1641 75.7016V75.3981L11.6811 75.2464L16.384 75.0947Z" fill="#7A0F4E"/>
<path d="M18.5072 79.3428H18.659V81.315L17.7487 81.1633L18.2038 80.4047V79.9496H10.3151V81.0115H14.2595V81.1633H10.1634V82.6803H10.0117V79.6462H18.3555L18.5072 79.3428Z" fill="#910C3F"/>
<path d="M94.9683 109.229H95.4234V110.14L94.6649 110.898L93.2995 111.96H92.9961L93.1478 111.202L94.058 109.988L94.9683 109.229Z" fill="#FEFEFE"/>
<path d="M25.4886 73.123L25.792 73.2748L25.4886 74.0333L24.7301 74.7918L24.4267 75.5504H23.6681L23.9715 75.0952H24.2749L24.5784 74.4884L24.8818 74.185V73.7299L14.4141 73.5782V73.4265L25.3369 73.2748L25.4886 73.123Z" fill="#760C51"/>
<path d="M10.0117 57.6484H18.5072L18.659 57.9519L18.2038 58.1036L10.0117 57.9519V57.6484Z" fill="#302485"/>
<path d="M111.052 109.381H111.658L111.507 110.291L110.445 111.353L109.686 111.808H109.383L109.535 110.898L110.748 109.533L111.052 109.381Z" fill="#FEFEFE"/>
<path d="M12.1356 76.3086H18.5072V76.7637H10.3151L10.1634 77.674H10.0117V76.612L10.1634 76.4603L12.1356 76.3086Z" fill="#760C50"/>
<path d="M46.2702 106.043H47.0288V106.953L46.2702 107.863L45.5117 107.712V106.953L46.2702 106.043Z" fill="#CC1124"/>
<path d="M125.461 112.111L126.22 112.263L126.068 112.87L125.461 113.78L125.309 113.932H124.551L124.702 113.173L125.461 112.111Z" fill="#DE131F"/>
<path d="M119.547 112.111H120.154L120.002 113.173L119.395 113.932H118.637L118.788 113.173L119.395 112.263L119.547 112.111Z" fill="#EB151C"/>
<path d="M71.1519 0.455078H73.124L75.3996 0.758492L75.5513 1.21361L74.3377 1.06191L73.2757 0.910198L69.1797 0.758492V0.606785L71.1519 0.455078Z" fill="#FEFEFE"/>
<path d="M131.375 112.111H131.982L131.83 113.173L131.223 113.932H130.465L130.768 113.022L131.375 112.111Z" fill="#C81127"/>
<path d="M0.303412 73.7295L1.36535 73.8812L0.758529 74.1846H0.455118L0.151706 75.2466L5.61312 75.3983V75.55H0.151706L0 75.3983V73.8812L0.303412 73.7295Z" fill="#910C3F"/>
<path d="M16.6875 67.6621H18.508L19.8733 67.9655L20.1767 68.2689V68.8758L19.8733 69.0275H18.8114L19.2665 68.7241V68.2689L16.6875 67.8138V67.6621Z" fill="#910C3F"/>
<path d="M61.7483 3.64062L62.2034 3.79233L60.2313 5.3094L58.5625 6.97817V6.52305L60.9898 4.09575L61.7483 3.64062Z" fill="#FEFEFE"/>
<path d="M18.508 76.46H18.6597V78.2804L17.7494 78.1287L18.0529 77.8253L18.2046 76.9151L16.6875 76.7634V76.6117H18.0529L18.508 76.7634V76.46Z" fill="#8F0C3F"/>
<path d="M23.2125 75.0947H23.971L23.6676 75.5498H20.7852L20.9369 75.2464L23.2125 75.0947Z" fill="#910C3F"/>
<path d="M0.303412 73.7295L1.36535 73.8812L0.758529 74.1846H0.455118L0.303412 75.55L0 75.3983V73.8812L0.303412 73.7295Z" fill="#8D0C41"/>
<path d="M10.6198 82.6807L11.2266 82.8324L10.9232 83.7426L10.4681 84.046L10.3164 83.5909L10.6198 82.6807Z" fill="#A50E2F"/>
<path d="M11.375 78.4326H12.7404V78.8877L11.6784 79.0394V78.736H11.375V78.4326Z" fill="#302485"/>
<path d="M131.527 113.021L131.678 113.477L131.223 113.932H130.465L130.768 113.173L131.527 113.325V113.021Z" fill="#AB0E2F"/>
<path d="M10.6198 85.7148L11.0749 85.8666L10.9232 86.7768L10.6198 87.0802L10.3164 86.17L10.6198 85.7148Z" fill="#A50E2F"/>
</svg>
