<svg width="91" height="100" viewBox="0 0 91 100" fill="none" xmlns="http://www.w3.org/2000/svg">
<path d="M10.3618 21.7109H10.6908V55.5925L10.8553 61.0201L11.1842 65.7899L11.6776 69.2438L12.3355 72.0399L13.3224 74.6715L14.6382 77.303L15.7895 79.1123L16.9408 80.5925L18.75 82.7307L20.7237 84.7044L23.5197 86.8425L26.3158 88.4873L29.1118 89.803L33.0592 91.1188L37.1711 91.9412L40.9539 92.4346L44.0789 92.5991H48.0263L52.9605 92.1057L57.0724 91.2833L59.7039 90.4609L62.5 89.3096L65.625 87.6649L67.9276 86.0201L70.0658 84.2109L71.875 82.4017L72.0395 82.0728H72.3684L72.6974 81.4149L74.6711 78.7833L76.3158 75.8228L77.6316 72.3688L78.4539 69.0794L78.9474 65.6254L79.2763 61.1846L79.4408 21.8754L80.5921 22.0399L83.3882 23.5201L84.8684 24.6715L86.0197 25.8228L87.1711 27.632L88.3224 30.2636L89.3092 33.7175L89.9671 38.1583L90.1316 40.6254L90.2961 60.0333V76.1517L90.1316 80.428L89.6382 84.8688L88.9803 88.3228L87.9934 91.2833L86.6776 93.7504L85.3618 95.3951L84.2105 96.5465L82.0724 97.8623L80.2632 98.6846L77.3026 99.507L74.8355 99.8359L72.2039 100H16.7763L13.6513 99.6715L10.8553 99.0136L8.22368 98.0267L6.41447 96.8754L4.76974 95.3951L3.61842 94.0794L2.30263 91.6123L0.986842 87.6649L0.328947 83.882L0 80.0991V40.4609L0.493421 35.5267L1.48026 31.0859L2.46711 28.6188L3.78289 26.3162L5.26316 24.6715L6.41447 23.6846L8.38816 22.5333L10.3618 21.7109Z" fill="#03689D"/>
<path d="M63.4877 21.7109L63.9811 21.8754V57.2373L63.6521 61.8425L62.9942 66.1188L62.0074 69.5728L61.0206 71.7109L59.8692 73.5201L58.5535 75.0004L56.4153 76.4807L54.4416 77.4675L52.9613 77.9609L52.7969 77.7965V38.9807L53.2903 35.0333L54.2771 30.9215L55.4285 28.2899L56.9087 25.8228L58.06 24.6715L60.1982 23.1912L62.6653 22.0399L63.4877 21.7109Z" fill="#05699E"/>
<path d="M26.3168 21.875L27.7971 22.2039L30.4287 23.5197L32.2379 24.8355L33.5537 26.3158L34.8694 28.4539L36.0208 31.4145L36.8431 34.8684L37.3366 38.6513V77.7961L36.3497 77.6316L33.2247 75.9868L31.7444 74.8355L30.9221 74.0132L29.9352 72.8618L28.6194 70.5592L27.3037 66.6118L26.6458 62.9934L26.3168 60.0329L26.1523 56.0855V32.7303L26.3168 21.875Z" fill="#04699E"/>
<path d="M43.9139 0H45.8875L48.5191 0.657895L50.3283 1.64474L52.1375 3.45395L53.2889 5.42763L53.9468 7.56579V10.1974L53.2889 12.3355L52.302 14.1447L50.9862 15.625L49.177 16.7763L47.2033 17.5987L46.5454 17.7632H43.4204L41.4468 17.1053L39.6375 15.9539L37.9928 14.3092L36.8415 12.3355L36.3481 10.8553L36.1836 9.86842V8.05921L36.8415 5.42763L37.8283 3.7829L39.3086 2.13816L40.9533 0.986842L43.0915 0.164474L43.9139 0Z" fill="#03689D"/>
</svg>
