<svg width="300" height="49" viewBox="0 0 300 49" fill="none" xmlns="http://www.w3.org/2000/svg">
<path d="M29.954 18.5869L30.2612 18.7405L30.4148 32.7191V47.9266L29.954 48.0802H16.8971L16.7435 47.9266L16.5898 43.1647V32.8727L17.2043 31.6439L18.126 30.8758L19.2012 29.6469L21.0446 27.8036L21.8126 27.1891L22.8879 25.9602L26.1137 22.7344L27.189 21.5055L29.186 19.5086L29.954 18.5869Z" fill="#0E3655"/>
<path d="M27.3428 16.8975H28.7253L27.8036 18.1263L25.1922 20.7377L24.1169 21.9666L23.0417 23.0419L21.9664 24.2708L17.6653 28.5719L16.4364 29.6472L15.2075 30.8761L12.9033 31.0297H0.460833L0 30.7225V17.2047L0.153611 17.0511L27.3428 16.8975Z" fill="#CCD2D0"/>
<path d="M79.5698 15.5146H91.3978L91.5514 15.6683V18.2796L91.0906 19.0477L90.6298 18.8941L89.7081 17.6652L88.6328 17.2044L87.4039 17.0508H86.0214L84.7925 17.358L84.4853 17.9724L84.3317 18.8941L84.1781 23.0416H88.3256L88.6328 22.1199L89.2473 21.1983H89.8617L90.0153 21.8127V26.1138L89.8617 26.421L88.94 26.2674L88.0184 24.5777L87.2503 24.4241H84.4853L84.3317 24.5777V29.8005L84.6389 30.7221L84.9461 30.8758L86.3286 31.0294H88.94L90.1689 30.4149L91.2442 28.7252L91.5514 28.1108L92.0123 28.418V29.9541L91.705 31.6438L91.2442 32.4119L90.937 32.5655L89.4009 32.7191H80.1842L79.877 32.5655L80.0306 31.6438L80.4914 30.4149L80.645 23.656V18.126L80.1842 16.7435L78.6481 16.2827L77.2656 16.1291L75.8831 16.7435L75.2686 17.358L75.115 17.6652V29.9541L75.5759 31.0294L76.8048 31.951L77.112 32.5655L76.9584 32.7191L69.2778 32.5655L69.7386 31.7974L70.8139 31.0294L71.1211 30.2613L71.2748 28.8788L71.4284 23.656V19.8158L70.9675 20.2766L68.3561 25.8066L65.5911 31.6438L64.8231 32.7191L64.2086 32.4119L63.4406 31.183L61.4436 27.0355L60.0611 23.9633L58.9859 21.5055L57.9106 20.123V30.4149L58.2178 31.0294L59.7539 31.951L60.0611 32.5655L59.9075 32.7191H54.2239L54.0703 32.4119L54.6848 31.6438L55.6064 31.0294L55.9136 30.2613L56.2209 20.5838V18.126L55.9136 17.358L55.1456 16.7435L54.0703 16.1291L54.2239 15.6683H59.9075L60.6756 16.4363L63.4406 22.7344L65.1303 26.8819L65.5911 27.3427L66.5128 25.9602L68.6634 21.3519L70.3531 17.6652L71.1211 16.1291L71.582 15.6683L79.5698 15.5146Z" fill="#292A29"/>
<path d="M258.675 15.0537L259.443 15.2073L260.058 15.9754L262.362 21.659L264.512 27.189L265.741 29.6468L266.663 31.0293L267.585 31.9509L268.967 32.1045L270.196 31.4901L270.657 30.8757L270.81 30.2612V17.9723L270.503 17.2043L269.121 16.129L269.274 15.5145H279.105L281.256 15.9754L282.024 16.5898L282.638 17.3579L283.099 18.7404V20.1229L282.485 21.1982L280.334 23.3487L279.72 23.8095L279.873 24.5776L281.563 27.3426L283.714 30.1076L284.943 31.6437L285.557 32.5654L284.482 32.719H283.099L281.41 32.5654L280.641 32.1045L279.105 30.1076L277.416 27.4962L276.033 25.192L275.572 23.8095L276.955 23.1951L278.491 22.427L279.105 21.659L279.413 20.8909V19.3548L278.798 18.1259L277.876 17.3579L277.108 17.0507H274.958L274.651 17.8187L274.497 29.8004L275.111 31.0293L276.648 31.9509L276.801 32.4118L276.34 32.5654L268.199 32.719H265.741L260.365 32.5654V31.9509L261.747 30.8757L261.901 30.2612L261.286 28.7251L260.518 27.4962H254.835L253.76 29.6468L253.913 30.722L255.91 32.1045L255.756 32.5654L251.916 32.719H249.766L250.687 31.4901L251.609 30.4148L252.838 27.957L254.528 23.8095L256.678 18.5868L257.907 15.8218L258.675 15.0537ZM257.907 20.1229L256.985 21.5054L255.91 23.9632L255.449 25.192V25.8065L256.832 26.1137H260.058L259.75 24.424L258.521 20.8909L258.061 20.1229H257.907Z" fill="#292A29"/>
<path d="M32.2552 17.0508H43.008L47.0018 17.2044L47.1555 30.7222L47.0018 30.8758H32.4088L32.2552 30.7222L32.1016 28.7252V17.2044L32.2552 17.0508Z" fill="#47AF6C"/>
<path d="M16.8958 0H30.26L30.4136 0.153611L30.26 15.0539H16.8958L16.7422 14.9003V0.153611L16.8958 0Z" fill="#47AF6C"/>
<path d="M196.923 15.5146H199.534L203.835 15.6683L205.678 15.5146H215.97L216.585 15.8219L216.431 16.5899L216.124 18.8941L215.51 19.5085L214.281 17.6652L213.666 17.2044L213.052 17.0508H210.44L209.826 17.2044L209.672 18.126V22.888H213.052L214.281 21.5055L215.049 21.3519V26.1138L214.742 26.7283L213.666 25.8066L212.745 25.0385L210.287 24.4241L209.826 24.2705L209.519 29.3396L209.98 30.7221L210.594 31.3366L212.13 31.951V32.5655H203.835L204.45 32.4119L204.757 31.7974L205.525 31.183L205.832 30.1077L205.986 28.8788V18.5869L205.678 17.2044L205.064 16.5899L203.835 16.1291H202.299L200.763 16.8971L200.302 17.6652L200.148 22.5808V29.6469L200.456 31.0294L202.299 32.1046V32.7191H195.079L194.618 32.5655L194.772 31.951L196.155 31.0294L196.308 30.5685V17.5116L195.694 16.7435L194.618 16.2827L194.465 15.6683L196.923 15.5146Z" fill="#292A29"/>
<path d="M93.5469 15.5146H105.221L107.218 15.8219L108.601 16.4363L109.983 17.5116L111.212 19.0477L112.134 21.3519L112.287 22.2735V23.9633L111.827 26.2674L110.598 28.5716L108.908 30.4149L107.372 31.4902L105.682 32.2583L104.146 32.5655L101.842 32.7191H95.2366L94.6222 32.4119L95.2366 31.0294L95.3902 30.2613V17.8188L94.7758 16.8971L93.5469 15.8219V15.5146ZM100.459 16.8971L99.3841 17.2044L99.2305 17.5116V30.7221L99.3841 31.0294L99.8449 31.183H103.378L104.914 30.7221L105.836 30.1077L106.911 29.186L107.833 27.6499L108.294 25.4994V21.6591L107.833 20.123L106.911 18.7405L105.836 17.8188L104.607 17.2044L103.071 16.8971H100.459Z" fill="#282928"/>
<path d="M286.941 15.5146H299.077L299.691 15.9755L299.537 18.5869L299.23 19.3549L298.769 19.2013L297.54 17.5116L297.08 17.2044L296.158 17.0508H293.393L292.471 17.2044L292.318 18.7405V22.7344L293.239 22.888L295.851 23.0416L296.158 22.4271L297.233 21.5055H298.155L298.001 23.1952V24.8849L298.155 25.9602L297.694 26.2674L296.772 26.1138L296.004 24.5777V24.2705H292.318V29.9541L292.625 30.8758L293.239 31.0294H297.08L298.001 30.5685L299.537 28.2644L299.845 28.418L299.998 28.8788V30.7221L299.537 32.1046L299.077 32.5655L298.155 32.7191H288.017L287.556 32.2583L288.17 31.4902L288.477 30.4149V17.5116L287.863 16.8971L286.48 15.9755L286.941 15.5146Z" fill="#2A2B2A"/>
<path d="M163.131 15.0537L163.899 15.2073L164.667 16.129L166.664 20.8909L169.429 28.1107L170.504 30.2612L171.887 31.7973L172.501 32.4118V32.719H169.89L164.667 32.5654L164.821 31.9509L166.357 30.8757L166.203 29.6468L165.128 27.4962L159.598 27.6498L158.983 27.8034L158.369 29.8004V30.5684L158.523 31.0293L159.137 31.3365L160.059 32.1045V32.5654L158.983 32.719H154.375L154.682 31.9509L156.065 30.4148L156.986 28.5715L160.366 20.1229L161.595 17.3579L162.67 15.3609L163.131 15.0537ZM162.209 20.1229L160.98 22.5807L159.751 25.6529L159.905 25.9601L163.745 26.1137L164.667 25.9601L163.899 23.3487L162.67 20.2765L162.209 20.1229Z" fill="#292A29"/>
<path d="M217.665 15.5146H230.261L230.722 15.9755L230.415 18.126L229.954 19.2013H229.493L228.572 17.5116L228.111 17.2044L226.882 17.0508H223.963L223.349 17.358L223.195 18.4333L223.042 22.888H227.343L227.957 21.5055L228.418 21.0446H228.879V26.2674L228.264 26.421L227.65 25.8066L227.189 24.4241H224.578L223.042 24.2705L223.195 31.0294H228.111L228.879 30.5685L230.261 28.2644L230.722 28.7252L230.876 29.186V31.4902L230.415 32.4119L229.647 32.7191H222.12L218.587 32.5655L218.894 31.6438L219.355 30.7221L219.509 29.3396L219.662 24.7313V17.9724L219.201 16.8971L217.819 16.2827L217.051 15.8219L217.665 15.5146Z" fill="#282928"/>
<path d="M129.488 15.207H131.639L133.789 15.5143L134.557 15.8215L135.018 16.7431L135.172 19.2009L134.865 19.8154L134.25 19.6618L133.636 18.8937L132.714 17.6648L131.946 17.0504L130.871 16.7431H129.488L128.259 17.3576L127.338 18.4329L127.031 19.0473V20.2762L127.491 21.0443L129.027 21.8123L132.868 22.5804L134.25 23.1948L135.326 23.9629L136.094 25.3454L136.247 25.9598V27.8031L135.94 29.032L135.018 30.5681L133.636 31.797L132.1 32.5651L130.871 32.8723H126.877L125.187 32.4115L124.266 31.6434L123.958 31.029V28.7248L124.266 27.3423L124.726 27.4959L125.494 29.1856L125.955 30.1073L127.184 31.029L128.259 31.3362H130.564L131.792 30.7218L132.714 29.6465L133.021 28.8784V27.6495L132.407 26.5743L131.332 25.9598L129.027 25.499L126.877 25.0381L125.494 24.2701L124.266 22.8876L123.805 21.1979L124.112 19.3545L125.034 17.5112L126.57 16.1287L127.799 15.5143L129.488 15.207Z" fill="#282928"/>
<path d="M241.011 15.207H244.083L246.695 15.6679L248.077 16.2823L248.538 17.3576V19.3545L248.231 20.8906H247.924L246.541 18.7401L245.619 17.6648L244.237 17.0504L243.162 16.8968H241.626L239.782 17.3576L238.4 18.1256L237.171 19.5081L236.403 21.3515L236.249 22.2731V25.3454L236.71 27.0351L237.478 28.4176L238.093 29.1856L239.629 30.2609L241.318 30.8754L242.086 31.029H245.005L247.77 29.9537H248.384L248.231 30.8754L247.463 31.6434L246.08 32.5651L244.698 32.8723H240.55L237.939 32.4115L236.403 31.6434L234.867 30.2609L233.791 28.8784L232.87 26.8815L232.562 25.499V22.734L233.023 20.8906L233.945 19.0473L235.328 17.5112L236.71 16.4359L238.707 15.5143L241.011 15.207Z" fill="#292A29"/>
<path d="M138.405 15.5146H143.167L145.932 15.6683L148.082 15.5146H152.998L153.459 15.9755L153.305 18.2796L153.151 19.3549L152.537 19.6621L151.615 18.4333L151.154 17.6652L149.926 17.2044H147.775L147.468 17.358L147.314 19.0477V30.4149L147.468 31.0294L149.311 31.7974L149.618 32.4119L149.465 32.5655H141.631L141.784 31.951L143.32 31.0294L143.474 30.4149V17.5116L143.32 17.2044H141.016L139.941 17.6652L138.251 19.5085H137.79L137.637 19.2013L137.79 16.4363L138.098 15.6683L138.405 15.5146Z" fill="#282928"/>
<path d="M185.87 15.5146H187.252L187.406 16.1291L185.409 17.358L185.255 22.5808V30.7221L185.409 30.8758L187.406 31.0294H189.864L190.939 30.5685L191.553 29.6469L192.168 28.418L192.629 28.1108L192.936 28.418V29.8005L192.629 32.1046L192.168 32.5655L191.553 32.7191H184.948L180.186 32.5655L180.34 32.1046L181.108 31.4902L181.415 30.7221L181.569 26.1138V17.5116L180.954 16.8971L179.572 16.2827L179.418 15.6683L185.87 15.5146Z" fill="#2A2B2A"/>
<path d="M196.923 15.5146H199.534L203.682 15.6683L203.835 15.9755L201.838 16.2827L200.763 16.8971L200.302 17.6652L200.148 22.5808V29.6469L200.456 31.0294L202.299 32.1046V32.7191H195.079L194.618 32.5655L194.772 31.951L196.155 31.0294L196.308 30.5685V17.5116L195.694 16.7435L194.618 16.2827L194.465 15.6683L196.923 15.5146Z" fill="#2A2B2A"/>
<path d="M120.89 15.3613L121.658 15.5149L121.198 16.283L119.815 17.5119L119.661 17.9727L119.508 24.7316V28.8791L119.815 30.5688L120.429 31.4905L121.351 32.2586V32.7194L120.429 32.873L119.354 32.7194H113.824L114.131 32.1049L115.514 30.8761L115.821 29.4936V18.8944L115.514 17.3583L113.824 15.8222V15.5149H119.661L120.89 15.3613Z" fill="#2A2B2A"/>
</svg>
