<svg width="233" height="100" viewBox="0 0 233 100" fill="none" xmlns="http://www.w3.org/2000/svg">
<path d="M24.8955 0H25.5284V22.7848L27.2161 21.308L28.6929 19.8312L31.0136 18.3544L33.3343 17.2996L34.8111 16.8776L37.5537 16.6667L40.7182 17.2996L44.0938 18.9873L46.4144 21.097L47.8912 23.2068L49.368 26.3713L49.79 27.8481L50.0009 29.9578V33.1224L49.579 36.076L48.5241 39.2405L47.0474 42.1941L45.1486 44.7257L44.0938 45.9916L41.5621 47.8903L38.6085 49.5781L36.2879 50.4219L34.1782 50.8439H28.482L24.2625 50L21.7309 48.9452L19.4102 47.4684L18.9883 47.0464V2.53165L21.309 1.47679L24.8955 0Z" fill="#2F5C69"/>
<path d="M79.7486 16.667H82.7022L85.6557 17.0889L88.3984 17.9328L91.9849 19.8315L94.5165 21.9413L96.6262 24.6839L98.103 27.8484L98.7359 30.1691V35.6543L97.6811 39.6628L96.2043 42.6164L94.5165 44.937L93.6726 45.9919L91.3519 47.8906L88.3984 49.5784L86.2887 50.4223L84.6009 50.8442L82.7022 51.0552H80.5924L77.2169 50.6332L74.4743 49.7894L71.3097 48.1016L69.411 46.6248L67.3013 44.5151L65.1916 40.9286L64.1368 37.975L63.9258 36.4982V32.0678L64.5587 28.9033L65.6135 26.3716L67.3013 23.629L69.2 21.5193L71.0988 19.8315L74.0524 18.1438L76.373 17.2999L79.7486 16.667Z" fill="#305D6A"/>
<path d="M110.127 55.6963H125.316L140.506 56.1182L153.376 56.9621L163.291 57.806L172.996 58.8608L183.966 60.3376L193.038 61.8144L202.11 63.5022L214.979 66.2448L224.895 68.5655L232.068 70.4642L232.489 70.8862H230.802L215.19 67.9326L204.852 66.2448L193.038 64.768L179.958 63.2912L168.143 62.2364L155.274 61.3925L143.249 60.7596L128.059 60.3376H108.65L92.4051 60.7596L75.5274 61.6035L59.4937 62.8693L50.211 63.7132L35.865 65.4009L23.8397 67.0887L12.8692 68.9874L1.89873 71.0971L0 71.3081V70.8862L5.06329 69.4094L12.6582 67.5106L21.097 65.6119L31.2236 63.5022L37.9747 62.2364L48.1013 60.5486L57.8059 59.2828L68.5654 58.017L80.8017 56.9621L94.3038 56.1182L100.211 55.9073L110.127 55.6963Z" fill="#26BDE2"/>
<path d="M193.247 0L193.669 0.21097V14.557L193.458 22.9958L195.146 21.73L197.256 19.8312L200.631 17.9325L202.741 17.0886L203.796 16.8776H207.804L210.125 17.7215L212.234 19.6203L213.922 22.5738L214.555 24.6835V50.211H208.226L208.015 49.789L207.804 25.7384L207.171 23.8397L205.905 22.3629L204.007 21.519H201.475L198.943 22.3629L195.99 24.0506L193.88 25.7384L193.669 26.5823L193.458 50.211H187.129L186.918 37.3418V2.74262L187.973 2.1097L193.247 0Z" fill="#2F5C69"/>
<path d="M134.811 16.667L138.397 16.878L140.929 17.5109L144.305 19.1986L145.992 20.6754L147.469 22.1522L149.157 24.8948L150.001 27.2155L150.423 29.1143V30.3801L150.001 30.802H125.739L126.372 35.0214L127.849 39.4518L129.115 41.5615L130.803 43.4602L132.912 44.7261L134.389 45.359L137.976 45.7809L141.351 45.148L143.461 44.3041L145.781 42.6164L147.047 41.5615L148.524 39.4518L149.157 37.975L151.056 38.397L150.845 40.5067L149.157 43.4602L146.836 45.9919L144.727 47.8906L141.773 49.5784L139.03 50.6332L136.71 51.0552H134.389L131.014 50.4223L127.638 48.9455L125.106 47.2577L122.786 44.937L121.098 42.1944L120.043 39.8737L119.41 36.7092V33.3337L120.043 29.3252L121.098 26.3716L122.786 23.2071L125.106 20.6754L126.794 19.1986L130.17 17.5109L132.49 16.878L134.811 16.667Z" fill="#305D6A"/>
<path d="M78.2706 19.4092H82.2791L84.3888 20.0421L86.2875 21.3079L87.5533 22.3628L89.0301 24.4725L90.085 26.7931L90.9288 30.1687L91.3508 33.3332V38.8185L90.2959 42.405L88.8191 45.1476L86.9204 47.0463L83.9668 48.5231H81.6461L78.6926 47.6792L77.0048 46.6244L76.3719 46.2024V45.7805L75.528 45.3585L74.0512 43.0379L72.5744 40.0843L71.5196 35.4429L71.3086 33.5442V30.1687L71.7305 27.2151L72.7854 24.4725L74.2622 22.1518L75.739 20.675L78.2706 19.4092Z" fill="#FEFEFE"/>
<path d="M31.6455 21.9414H35.232L37.5527 22.7853L39.2404 24.0511L40.9282 25.9498L42.194 28.4815L43.0379 31.0131V36.4984L42.194 40.0849L41.1392 42.6165L39.2404 45.5701L37.3417 47.0469L35.6539 47.8908L34.81 48.1017H31.0126L28.6919 47.2579L26.5822 45.992L25.5273 44.7262V25.7389L26.7932 24.2621L29.1138 22.7853L31.6455 21.9414Z" fill="#FEFEFE"/>
<path d="M170.253 16.667L173.417 16.878L176.582 17.7218L179.957 19.4096L181.856 21.3083L182.7 22.9961L182.911 23.84V25.3168L182.067 27.0045L180.801 28.2704L178.27 28.9033L176.582 28.2704L174.894 26.3716L174.05 22.1522L172.995 20.4645L171.94 19.8315L169.409 19.4096L167.088 19.6206L165.4 20.2535L163.291 21.5193L161.603 23.418L160.337 25.9497L159.704 29.3252V31.6459L160.126 34.8105L161.603 39.2408L163.502 42.1944L165.189 43.8822L168.143 45.359L171.097 45.7809L174.261 45.359L176.793 44.0932L178.481 42.6164L179.957 40.2957L181.645 37.1311L182.911 37.3421L183.544 37.764L183.333 39.4518L181.856 42.8273L180.59 44.937L178.692 47.0467L176.582 48.7345L174.05 50.0003L172.151 50.6332L169.409 51.0552L166.033 50.8442L163.502 50.2113L160.126 48.5235L158.016 46.8358L156.118 44.7261L154.008 40.9286L153.164 37.975L152.953 34.5995L153.164 31.4349L154.219 27.6375L156.329 23.84L158.86 21.0974L160.97 19.4096L164.135 17.7218L167.299 16.878L170.253 16.667Z" fill="#305D6A"/>
<path d="M109.494 6.11816L110.971 6.32913L111.182 17.2996H114.979L118.566 17.5106L118.355 20.2532L111.182 20.4642V43.6709L111.604 45.1477L113.08 46.4135L113.713 46.6245H115.19L117.3 45.5696L117.933 44.9367L118.988 45.1477L119.831 46.2026L118.355 48.1013L116.456 49.5781L114.346 50.6329L112.447 51.0549H110.338L107.806 50.422L105.907 48.7342L104.853 46.6245L104.431 43.8819L104.22 20.4642L98.9453 20.2532L98.7344 18.9874L100 18.5654L102.743 17.7215L105.063 16.2447L106.54 14.135L107.806 11.1815L109.072 6.54011L109.494 6.11816Z" fill="#305D6A"/>
<path d="M59.2821 16.2451H60.126V50.0004L59.9151 50.2114H53.7969L53.5859 50.0004V19.4097L54.0079 18.3548L59.2821 16.2451Z" fill="#305D6A"/>
<path d="M132.067 19.4092H135.232L137.342 20.0421L139.24 21.3079L140.717 22.9957L141.772 25.1054L142.194 27.637L141.983 27.848H125.949L125.738 27.0041L126.582 24.4725L128.059 22.1518L129.536 20.675L131.434 19.6202L132.067 19.4092Z" fill="#FEFEFE"/>
<path d="M146.836 89.4512H150.212L151.478 90.0841L152.322 91.1389L152.955 93.2486V95.7803L152.322 97.89L151.478 98.9448L149.79 99.7887L148.524 99.9997H146.836L144.938 99.3668L143.672 97.89L143.25 96.8351V92.8267L143.883 91.1389L145.36 89.8731L146.836 89.4512Z" fill="#2E2F34"/>
<path d="M195.993 89.4512H199.368L201.056 90.2951L202.111 91.5609L202.533 93.0377V95.7803L201.9 97.679L200.634 99.1558L199.157 99.7887L196.626 99.9997L194.305 99.1558L193.039 97.468L192.617 95.3583L192.828 92.6157L193.672 90.928L195.149 89.6621L195.993 89.4512Z" fill="#2E2F34"/>
<path d="M99.3677 89.4512H102.532L104.009 90.0841L104.853 90.928L105.486 92.4048V96.4132L104.853 98.101L103.376 99.3668L102.532 99.7887L101.266 99.9997H99.5787L97.469 99.1558L96.2032 97.468L95.7812 95.9913V94.0925L96.2032 92.1938L97.258 90.506L97.891 89.8731L99.3677 89.4512Z" fill="#2E2F34"/>
<path d="M22.5748 89.4512H24.6845L26.3722 89.8731L27.0052 90.506L27.4271 92.1938L27.6381 94.7254V97.679L27.2161 99.1558L25.7393 99.7887L22.7857 99.9997L20.676 99.5778L19.6212 98.9448L18.9883 97.468V95.5693L19.6212 94.5145L21.098 94.0925L25.5284 93.6706L25.9503 93.4596L25.5284 91.1389H21.5199L19.6212 91.3499L19.8322 90.0841L20.887 89.6621L22.5748 89.4512Z" fill="#2E3136"/>
<path d="M170.465 89.4512H172.786L174.474 89.8731L175.107 90.928L175.529 93.4596V98.5229L175.107 99.3668L174.052 99.7887H169.411L168.145 99.1558L167.301 98.101L166.879 96.8351L167.09 95.1474L167.723 94.5145L168.989 94.0925L173.841 93.6706L173.208 91.1389H169.832L167.723 91.3499L167.934 90.0841L168.567 89.6621L170.465 89.4512Z" fill="#2E3035"/>
<path d="M54.4302 89.4512H57.1728L58.6496 90.0841L59.4935 91.1389L59.9154 92.1938V94.7254L58.4387 95.1474L52.7425 95.3583L52.9534 96.8351L53.7973 97.89L54.4302 98.101H57.5948L59.7045 97.679L59.9154 98.101L59.4935 98.9448L57.3838 99.7887H54.0083L52.3205 98.9448L51.4766 97.89L51.0547 96.4132V93.2486L51.6876 91.3499L52.7425 90.0841L54.4302 89.4512Z" fill="#2E2E33"/>
<path d="M100.844 90.7178L102.532 90.9287L103.376 91.3507L104.009 92.8275V95.7811L103.376 97.4688L102.321 98.3127L101.688 98.5237H99.7894L98.5236 97.8908L97.6797 96.6249L97.4688 95.7811V93.6714L98.1017 92.1946L99.1565 91.1397L100.844 90.7178Z" fill="#FEFEFE"/>
<path d="M197.469 90.7178L199.157 90.9287L200.212 91.5617L200.845 93.0384V95.7811L200.212 97.2579L199.157 98.3127L198.524 98.5237H196.414L195.36 97.8908L194.516 96.6249L194.305 95.5701V93.6714L194.938 91.9836L195.992 91.1397L197.469 90.7178Z" fill="#FEFEFE"/>
<path d="M148.313 90.7178L150.423 91.1397L151.056 91.9836L151.267 92.6165V95.992L150.423 97.6798L149.579 98.3127L148.735 98.5237H147.258L145.781 97.8908L144.938 96.414V93.0384L145.781 91.5617L146.836 90.9287L148.313 90.7178Z" fill="#FEFEFE"/>
<path d="M119.41 89.6621H125.95L127.005 90.295L127.427 91.1389L127.638 99.5777L127.427 99.7887H125.739L125.528 91.3499L124.474 91.1389H120.465V99.7887H118.777L118.566 98.9448V89.8731L119.41 89.6621Z" fill="#2E3238"/>
<path d="M132.488 89.6621H138.607L139.661 90.506L140.083 91.5608V99.7887H138.396L138.185 91.1389H132.91V99.7887H131.223V89.8731L132.488 89.6621Z" fill="#2E3036"/>
<path d="M206.539 89.6621H212.868L213.712 90.0841L214.345 91.3499L214.556 97.0461V99.7887H212.868L212.657 93.8815L212.446 91.3499L211.602 91.1389H207.594L207.383 99.7887H205.695V89.8731L206.539 89.6621Z" fill="#2E2F34"/>
<path d="M55.9067 0.632812H57.5945L59.2822 1.47669L60.3371 2.74252L60.5481 4.64125L59.7042 5.90707L58.6493 6.75096L57.8054 7.1729H55.6957L54.008 6.11804L53.1641 5.06319L52.9531 3.5864L53.797 1.89864L55.2738 0.843783L55.9067 0.632812Z" fill="#2F5C69"/>
<path d="M180.379 86.9199L181.012 87.3419L181.223 89.2406L185.232 89.4516L185.654 90.0845L185.443 90.9284L181.434 91.3503V97.0465L181.856 97.8904L182.278 98.1014H185.443L185.232 99.1562L183.966 99.7891H181.645L180.168 99.1562L179.535 97.8904L179.324 95.3587V91.1393H178.27L177.848 90.7174L178.059 89.8735L179.324 89.2406L179.957 87.3419L180.379 86.9199Z" fill="#2E3237"/>
<path d="M154.852 89.6621L156.539 89.8731L157.172 91.5608L158.438 96.6241L159.071 97.89L159.493 98.3119H160.548L161.814 95.3583L163.29 90.0841L163.923 89.6621H164.978L165.189 90.0841L164.345 92.4047L163.079 97.0461L162.025 99.1558L160.337 99.9997L158.438 99.5777L157.383 98.5229L156.539 96.8351L154.852 90.0841V89.6621Z" fill="#2E3035"/>
<path d="M75.1058 89.6621H79.3252L79.9582 89.8731V91.1389H75.1058L74.4729 91.7718V93.2486L78.9033 94.3035L80.1691 94.9364L80.3801 97.0461L79.7472 98.7338L78.4814 99.5777L77.8484 99.7887H74.6839L72.9961 99.1558L72.7852 97.89L77.2155 98.3119L78.2704 97.89L78.6923 97.0461L78.4814 95.9912L77.4265 95.5693L73.84 94.7254L72.7852 94.0925V91.9828L73.4181 90.506L75.1058 89.6621Z" fill="#2E3136"/>
<path d="M88.6058 87.1309H89.6606L89.8716 87.5528L90.0826 89.4515L94.091 89.6625L94.302 90.7174L94.091 90.9283L90.9264 91.1393L90.0826 91.3503V98.1013H92.6142L93.88 97.8904L94.091 98.7342L93.0361 99.5781L92.4032 99.7891H90.0826L88.8167 99.1562L88.3948 98.5233L88.1838 96.8355L87.9729 91.5612L86.707 90.9283V89.8735L87.9729 89.2406H88.3948V87.3418L88.6058 87.1309Z" fill="#2E3136"/>
<path d="M65.1918 89.6621H68.3564L69.8332 90.0841L70.0441 91.1389H64.9808L64.3479 91.7718L64.1369 92.8267L64.7699 93.4596L68.7783 94.3035L70.0441 95.1473L70.2551 96.8351L69.8332 98.3119L68.3564 99.5777L67.7234 99.7887H64.1369L63.0821 99.3668L62.6602 98.5229V97.89L66.0357 98.3119L67.7234 98.1009L68.5673 97.0461V95.7803L64.1369 94.9364L62.6602 94.0925V91.5608L63.504 90.295L65.1918 89.6621Z" fill="#2E3035"/>
<path d="M34.1764 89.4512H36.919L38.3958 90.0841L38.8177 90.506V91.1389L35.6532 90.928L33.7544 91.3499L32.6996 92.4048L32.2776 94.3035L32.4886 96.4132L33.3325 97.679L33.9654 98.101H37.3409L38.8177 97.89L38.6068 98.9448L36.919 99.7887H33.7544L32.0667 98.9448L31.0118 97.679L30.5899 96.6242L30.3789 94.7254L30.8008 92.1938L31.6447 90.717L32.6996 89.8731L34.1764 89.4512Z" fill="#2E3035"/>
<path d="M44.7272 89.4512H47.0479L48.7356 90.0841L49.1576 91.1389L45.782 90.928L43.8833 91.3499L43.0394 92.1938L42.6175 93.2486V95.9913L43.2504 97.4681L44.3052 98.101H47.4698L48.9466 97.679V98.7339L47.8917 99.5778L47.0479 99.7887H44.0943L42.4065 99.1558L41.1407 97.679L40.7188 95.7803V93.8816L41.1407 91.9828L41.9846 90.717L43.0394 89.8731L44.7272 89.4512Z" fill="#2E3035"/>
<path d="M113.082 89.6621H114.77L114.981 89.8731V99.5777L114.77 99.7887L113.082 99.5777V89.6621Z" fill="#2E363C"/>
<path d="M187.766 89.6621H189.664V99.5777L189.453 99.7887H187.977L187.766 99.5777V89.6621Z" fill="#2E3237"/>
<path d="M170.043 95.1475H173.841V97.8901L172.786 98.523H170.043L168.988 97.8901L168.566 97.4681V95.7804L170.043 95.1475Z" fill="#FEFEFE"/>
<path d="M21.9416 95.1475H25.9501V97.4681L25.1062 98.312L24.4733 98.523H22.1526L21.0978 98.101L20.6758 97.6791L20.4648 96.2023L21.3087 95.3584L21.9416 95.1475Z" fill="#FEFEFE"/>
<path d="M54.8519 90.7178H56.9616L58.0165 91.3507L58.6494 92.8275V93.6714L58.0165 93.8823H52.5312L52.7422 92.4055L53.7971 91.1397L54.8519 90.7178Z" fill="#FEFEFE"/>
<path d="M187.977 85.8652H189.664L189.875 86.0762V87.342L189.664 87.553L187.766 87.342L187.555 87.1311V86.0762L187.977 85.8652Z" fill="#2E3338"/>
<path d="M113.504 85.6543L114.77 85.8653L115.192 86.0762L114.981 87.3421H113.082V85.8653L113.504 85.6543Z" fill="#2E3237"/>
</svg>
