<svg width="124" height="100" viewBox="0 0 124 100" fill="none" xmlns="http://www.w3.org/2000/svg">
<path d="M3.82716 53.8271H120.123L121.235 54.0741L122.469 54.8148L123.21 55.679L123.827 56.9136L123.951 57.4074V82.2222L123.58 83.3333L122.84 84.321L121.852 85.1852L120.741 85.679L119.753 85.8025H4.19753L2.96296 85.5555L2.09877 85.0617L1.11111 84.1975L0.37037 83.0864L0.123457 82.2222L0 76.5432V71.4815L0.123457 57.6543L0.493827 56.4197L1.11111 55.4321L1.97531 54.5679L3.20988 53.9506L3.82716 53.8271ZM89.5062 58.395L89.3827 58.5185V77.1605L89.5062 78.642L90.8642 80.8642L90.9877 80.9876H100.123V77.6543H93.3333V58.5185L92.716 58.395H89.5062ZM98.3951 58.395L98.2716 58.5185V63.7037L101.358 63.8271L101.605 63.7037V58.5185L98.3951 58.395ZM7.03704 58.5185L6.04938 59.8765L5.4321 60.9876L5.30864 64.6913V77.2839L5.4321 78.642L6.66667 80.6173L7.03704 80.9876H20.6173L20.4938 67.9012H12.2222L12.0988 68.2716V71.6049L12.2222 71.7284L17.1605 71.8518V75.1852L17.284 77.5309H8.76543V61.9753H20.4938L20.6173 60.2469V58.5185H7.03704ZM25.1852 58.395L22.8395 58.5185V78.2716L23.0864 79.1358L23.7037 79.8765L24.4444 80.9876H33.5802V77.6543L26.7901 77.5309L26.6667 58.5185L25.1852 58.395ZM36.9136 58.5185L36.1728 59.7531L35.3086 60.9876V78.2716L35.679 79.1358L36.5432 80.4938L36.9136 80.9876H49.5062L50.4938 79.7531L51.1111 78.7654L51.2346 78.1481V60.9876L50.3704 59.6296L49.5062 58.5185H36.9136ZM60.3704 58.395L60.2469 58.5185V77.5309H56.5432L56.4198 58.5185H52.963V77.7778L53.0864 78.7654L54.321 80.4938L54.5679 80.9876L55.679 81.1111L70.8642 80.9876V58.5185L67.6543 58.395L67.4074 58.5185V76.7901L67.5309 77.5309H63.8272L63.7037 63.4568V58.5185L62.5926 58.395H60.3704ZM74.4444 58.5185L73.3333 59.8765L72.716 60.8642L72.5926 62.963V77.4074L72.716 78.7654L73.7037 80.2469L74.321 80.9876L75.3086 81.1111L87.6543 80.9876V77.6543H76.0494V71.8518L87.6543 71.7284V67.9012L76.0494 67.7778V62.0988L87.6543 61.9753V58.5185H74.4444ZM105.556 58.5185L104.444 60.1234L103.951 60.7407L103.827 61.1111V68.3951L104.074 69.6296L104.691 70.3704L105.432 71.6049L106.296 71.7284H115.432L115.309 77.5309L103.827 77.6543V80.9876H117.037L117.531 80.4938L118.519 79.0123L118.765 78.1481V70.4938L117.901 69.0123L117.284 68.0247L117.037 67.9012H107.284V62.0988L118.642 61.9753L118.765 61.7284V58.5185H105.556Z" fill="#80800E"/>
<path d="M63.828 10.8643H65.4329L66.6675 11.605L67.1613 11.9754L67.7786 11.7285L69.0132 10.9877L69.7539 10.8643L69.6305 11.8519L69.0132 14.6914L67.6551 22.4692L67.5317 22.7161L68.7663 22.4692L70.2477 21.7285L72.223 20.1235L73.2107 19.2593L74.0749 18.3951L75.0625 17.5309L76.2971 16.4198L78.2724 15.1852L80.1243 14.1976L80.6181 14.321L80.865 14.8149V15.4322L82.223 15.8025L86.544 17.0371L89.0132 17.5309L90.0008 17.6544H91.8527L92.7169 17.284L92.9638 17.0371L93.0872 16.1729L92.8403 15.4322V14.9383L93.5811 15.1852L94.1983 15.6791L94.3218 15.926V16.7902L93.5811 17.9013L92.47 18.642L91.3588 18.8889L89.1366 18.7655L86.0502 18.0248L81.6058 16.7902L80.3712 16.6667L79.2601 17.5309L78.8897 17.4075L78.6428 16.2964L77.6551 16.7902L76.4206 17.7778L74.8156 19.0124L72.7169 20.9877L71.1119 22.4692L69.507 23.5803L68.3959 24.1976L67.2848 24.568L66.2971 27.284L65.3095 29.1359L64.0749 30.7408L63.2107 31.4815L62.223 31.9754L61.8527 32.0988H60.2477L59.507 31.7285L58.6428 30.7408L58.3959 29.7531L58.5193 28.5186L59.2601 27.0371L60.6181 25.5556L62.47 24.1976L64.0749 23.2099H64.3218L64.6922 21.605V21.2346L62.8403 23.0865L61.3588 24.0741L60.3712 24.1976L59.3835 23.5803L58.5193 22.5927L58.149 21.3581L58.0255 19.7531L58.149 18.3951L53.2107 20.0001L50.3712 20.6173L48.3959 20.8643L48.7663 21.9754L48.149 22.3457H46.7909L47.0379 21.8519L47.6551 21.3581L47.7786 20.8643H46.6675L44.5687 20.247L40.7416 19.2593L36.4206 18.3951L35.3095 18.2717H32.3465L31.3588 18.642L31.1119 19.0124L31.2354 19.7531L31.4823 20.247V20.7408H30.7416L30.0008 20.247L29.7539 19.2593L30.2477 18.1482L31.2354 17.4075L32.223 17.0371L32.8403 16.9136H34.4453L37.2848 17.284L43.7045 18.642L46.6675 19.5062L48.8897 19.6297L51.3588 19.1359L55.8033 17.6544L57.6551 16.9136L58.3959 16.5433H58.6428L58.8897 15.8025L59.8774 14.0741L60.9885 12.5927L62.0996 11.605L63.3342 10.9877L63.828 10.8643ZM64.1984 12.0988L63.2107 12.963L62.5934 13.9507L61.8527 15.5556L61.3588 17.4075L61.2354 19.2593L61.6058 20.4939L62.3465 21.2346H63.2107L63.828 20.8643V20.6173H64.0749L65.0625 18.8889L65.6798 16.7902L66.0502 14.568V12.963L65.4329 12.2223L65.186 12.0988H64.1984ZM63.7045 25.0618L61.9761 26.0494L60.3712 27.4075L59.7539 28.3951L59.507 29.2593L59.7539 30.4939L60.2477 30.9877L61.1119 31.1112L61.9761 30.6173L62.47 30.0001L63.2107 28.2717L64.0749 25.5556V25.0618H63.7045Z" fill="#80800E"/>
<path d="M38.7641 61.9756H47.7764L47.8999 62.099V77.5311L47.7764 77.6546H38.7641L38.6406 76.7904V62.099L38.7641 61.9756Z" fill="#80800E"/>
<path d="M49.0117 91.1113H51.7278L52.0981 91.9755L53.3327 96.1731L53.8265 97.4076L53.95 97.5311L54.9376 94.3212L56.0488 91.2348L56.1722 91.1113H58.8883V99.6298L58.6413 99.8768L57.0364 99.7533V93.9508L56.4191 95.3089L55.308 98.6422L54.8142 99.7533L54.0734 99.8768L52.9623 99.7533L52.592 98.8891L51.2339 94.5681L50.8636 93.8274L50.7401 93.9508L50.8636 97.2842V99.7533L50.3697 99.8768L49.0117 99.7533V91.1113Z" fill="#80800E"/>
<path d="M27.5311 90.8643L29.2595 90.9877L30.6175 91.4815L31.2348 92.0988L31.8521 92.963L32.2225 94.321V96.5433L31.8521 97.7778L31.1114 98.8889L30.3706 99.5062L29.5064 99.8766L28.7657 100H27.1607L25.9262 99.7531L24.9385 99.1359L24.0743 98.1482L23.5805 96.9136L23.457 96.1729V94.6914L23.8274 93.2099L24.4447 92.2223L25.3089 91.4815L26.42 90.9877L27.5311 90.8643ZM27.2842 92.3457L26.5435 92.7161L25.8027 93.5803L25.5558 94.321L25.4323 96.0494L25.6793 97.1606L26.1731 97.9013L26.7904 98.3951L27.2842 98.5186H28.1484L29.0126 98.2717L29.7533 97.6544L30.1237 96.7902L30.2472 94.9383L30.0002 93.7038L29.5064 92.963L28.8891 92.4692L28.5188 92.3457H27.2842Z" fill="#80800E"/>
<path d="M107.159 90.9873H109.875L111.357 91.1108L111.233 92.7157L105.678 92.8392L105.554 93.2095V94.691L110.122 94.8145L111.11 95.1848L111.604 96.049L111.727 96.5429V97.654L111.357 98.7651L110.369 99.6293L109.752 99.7527L106.789 99.8762H104.073L103.826 99.7527V98.2713L109.505 98.1478L109.628 96.4194L105.184 96.1725L104.32 95.8021L103.702 95.1848L103.332 93.9503L103.455 92.8392L103.826 92.0984L104.69 91.3577L105.431 91.1108L107.159 90.9873Z" fill="#80800E"/>
<path d="M43.5793 90.9873L44.0731 91.1108L43.9497 92.7157H38.7645L38.3941 92.8392L38.2706 93.2095V94.5676L38.641 94.691L42.8385 94.8145L43.8262 95.1848L44.4435 96.2959V97.9009L43.9497 98.8885L43.0855 99.6293L42.7151 99.7527H36.5422V98.3947L36.6657 98.2713L42.3447 98.1478V96.4194L37.9003 96.1725L37.0361 95.8021L36.4188 95.0614L36.1719 94.4441V92.9626L36.6657 91.975L37.4064 91.3577L38.0237 91.1108L43.5793 90.9873Z" fill="#80800E"/>
<path d="M66.1739 91.1113H70.3714L70.4949 91.3582L70.3714 92.5928L66.4208 92.7163L65.8035 93.2101L65.3097 94.1977L65.1862 94.6916L70.3714 94.5681V96.1731L65.3097 96.2965L65.4332 97.1607L66.1739 98.1484L67.0381 98.2718H70.248L70.3714 98.3953V99.7533H66.0504L64.9393 99.3829L64.322 98.8891L63.7048 98.0249L63.3344 96.9138L63.2109 96.0496V94.815L63.4579 93.5805L64.0751 92.3459L65.0628 91.4817L66.1739 91.1113Z" fill="#80800E"/>
<path d="M16.4178 90.9873H19.3808L19.6277 91.1108V92.4688L19.5042 92.5922L15.924 92.7157L15.1833 93.0861L14.6894 93.8268L14.4425 95.3083L14.566 96.9132L14.9363 97.654V97.9009L15.6771 98.1478L19.5042 98.2713L19.6277 98.3947V99.7527H15.1833L13.9487 99.2589L13.0845 98.2713L12.4672 96.9132L12.3438 96.2959V94.4441L12.7141 93.2095L13.4549 92.0984L14.4425 91.3577L15.3067 91.1108L16.4178 90.9873Z" fill="#80800F"/>
<path d="M96.4202 90.9873H99.1362L99.3832 91.1108V92.5922L95.8029 92.7157L94.9387 93.0861L94.4449 94.0737L94.3214 94.8145V96.4194L94.5683 97.4071L95.0622 98.0243L95.4325 98.1478L99.2597 98.2713L99.3832 98.3947V99.7527L98.6424 99.8762L95.0622 99.7527L93.9511 99.3824L93.2103 98.7651L92.4696 97.5305L92.2227 96.6663V94.3206L92.593 93.0861L93.3338 92.0984L94.0745 91.4811L95.0622 91.1108L96.4202 90.9873Z" fill="#80800E"/>
<path d="M74.3203 91.1113H81.8512V92.4694L81.7277 92.5928H79.0117V99.7533L78.7648 99.8768H77.7771L77.0364 99.7533V92.7163L74.3203 92.5928V91.1113Z" fill="#80800E"/>
<path d="M85.8008 91.1113H87.8995L87.7761 99.7533L87.4057 99.8768L85.9242 99.7533L85.8008 99.6298V91.1113Z" fill="#80800E"/>
<path d="M59.3822 33.21L59.5056 33.4569L59.3822 33.8272V35.0618L59.9995 35.8026L60.9871 36.2964L62.2217 37.4075L62.5921 38.1482L62.4686 38.6421L61.8513 39.1359L61.234 39.0124L60.2464 38.2717L59.3822 37.0371V36.4198L59.9995 37.0371L60.1229 37.4075L60.4933 37.5309V37.7779L60.9871 38.0248L61.3575 38.3951L61.9748 38.5186L61.7279 37.7779L59.9995 36.4198L59.7526 35.8026H59.5056L59.3822 36.1729L58.8884 36.0495L58.3945 34.9384L58.518 34.3211L59.0118 33.4569L59.3822 33.21Z" fill="#8F8F2A"/>
<path d="M52.0994 32.4688L52.4698 32.5922L52.3463 33.2095L53.087 34.0737L53.334 34.4441V35.3083L52.9636 36.1725L52.3463 36.5428L51.3587 35.6786L50.9883 34.9379V33.8268L51.729 32.7157L52.0994 32.4688ZM51.9759 34.0737L51.6056 34.4441V35.0613L52.0994 35.4317L52.5932 35.1848L52.7167 34.4441L52.3463 34.0737H51.9759Z" fill="#88881E"/>
<path d="M57.0383 0.617188H58.2729L59.2606 1.11101L60.0013 2.22213L59.8778 2.83941L59.0136 3.20978L58.026 3.08632L57.0383 2.22213L56.668 1.60484L56.7914 0.740644L57.0383 0.617188ZM57.9025 1.35793L57.4087 1.7283L57.5322 2.09867L58.2729 2.34558L59.1371 1.85176L58.8902 1.35793H57.9025Z" fill="#898920"/>
<path d="M75.433 5.67871L75.9268 5.80217L76.5441 6.54291L76.791 7.40711L76.2972 8.64167L75.8033 9.1355H74.9391L74.4453 8.51822V6.91328L74.9391 5.92562L75.433 5.67871ZM75.433 6.66637L75.9268 6.91328V6.66637H75.433ZM75.9268 6.91328L75.433 7.16019L75.3095 7.90093H75.9268L76.2972 7.28365L75.9268 6.91328ZM74.6922 7.16019V7.40711H74.9391L75.0626 8.02439L75.1861 7.65402L75.0626 7.16019H74.6922ZM74.9391 8.39476V8.76513H75.1861L75.0626 8.39476H74.9391Z" fill="#80800E"/>
<path d="M60.2478 3.08594H61.2355L61.7293 3.82668L61.4824 4.93779L60.6182 6.0489L60.0009 6.41927L59.3836 6.29581L59.1367 5.1847L59.2602 4.44396L60.1244 3.20939L60.2478 3.08594ZM60.0009 3.95013L60.1244 4.93779L60.2478 5.06125H60.8651L61.112 4.81433L60.9886 4.19705L60.4947 3.95013H60.0009Z" fill="#88881D"/>
<path d="M48.3939 29.877L49.1346 30.1239L49.6285 30.8646L49.7519 31.7288L49.1346 33.2103L48.8877 33.4572H48.2704L47.6532 32.7165L47.4062 31.9757L47.5297 30.8646L47.9001 30.1239L48.3939 29.877ZM48.3939 30.9881L48.147 31.235L48.2704 31.9757L48.5174 32.2226L49.0112 32.0992L49.505 31.4819L49.0112 30.9881H48.3939Z" fill="#89891F"/>
<path d="M49.5065 4.93848H50.6176L51.3583 5.4323L51.7287 5.80267L51.6052 6.54341L50.9879 7.03724L50.1237 7.28416L49.1361 7.1607L48.2719 6.54341L48.1484 5.92613L49.1361 5.06193L49.5065 4.93848ZM49.6299 5.4323L49.2595 5.80267L49.1361 6.2965L49.5065 6.54341L50.4941 6.66687L50.741 5.92613L50.3707 5.4323H49.6299Z" fill="#8C8C25"/>
<path d="M44.8159 12.5928H45.8035L46.7912 13.0866L46.9146 13.3335L46.4208 14.0743L45.1862 14.9385L44.9393 15.0619H43.4579L43.2109 14.815L43.3344 13.9508L43.8282 13.2101L44.4455 12.7162L44.8159 12.5928ZM44.6924 13.2101L44.1986 13.457L43.9517 14.0743L44.0751 14.4446L44.8159 14.3212L45.8035 13.8273L46.0504 13.3335L45.8035 13.2101H44.6924Z" fill="#8F8F2B"/>
<path d="M49.7516 8.39551L50.2455 8.51896L51.1097 9.25971L51.6035 10.2474L51.48 11.1116L50.8628 11.8523L50.4924 11.9758L49.6282 11.3585L49.2578 10.6177V8.76588L49.7516 8.39551ZM50.122 9.38316L49.8751 9.63008V10.4943L50.122 10.8646H50.8628L51.1097 10.6177L50.9862 9.87699L50.122 9.38316Z" fill="#8A8A22"/>
<path d="M46.7909 8.39551H47.6551L48.3958 9.01279L48.5193 9.63008L48.0255 10.3708L47.1613 10.7412L46.2971 10.8646L45.5563 10.6177L45.0625 10.0004L45.3094 9.38316L46.4205 8.64242L46.7909 8.39551ZM46.7909 8.76588L46.4205 9.38316L45.9267 9.75353L46.7909 10.0004L47.1613 10.1239L47.2847 10.4943H47.4082V8.88933L46.7909 8.76588Z" fill="#9D9D46"/>
<path d="M45.926 25.9258L46.5433 26.0492L47.1605 26.79L47.0371 27.9011L46.4198 29.0122L45.926 29.3826H45.3087L44.8149 28.8887L44.6914 27.6542L45.3087 26.5431L45.926 25.9258ZM46.1729 27.0369L45.1852 27.7776L45.0618 28.148L45.4321 28.2715H46.4198L46.9136 27.5307L46.7902 27.0369H46.1729Z" fill="#80800E"/>
<path d="M63.9487 32.5928L64.4425 32.7162L64.8129 33.2101L64.9363 34.0743L64.566 34.9385L63.4549 36.173L62.8376 36.0496L62.3438 35.3088L62.4672 34.4446L62.8376 33.7039L63.4549 32.9631L63.9487 32.5928ZM63.9487 33.2101L63.5783 33.457L63.2079 34.3212L62.8376 35.0619L63.3314 35.1854L64.1956 34.4446L64.4425 33.7039L64.1956 33.2101H63.9487Z" fill="#80800E"/>
<path d="M55.186 35.1855H56.4205L57.1613 35.8028L57.5316 36.5436V38.0251L57.0378 38.3954L56.1736 38.1485L55.3094 37.1609L55.0625 36.4201V35.309L55.186 35.1855ZM56.2971 35.8028L55.8032 36.2967L55.9267 37.1609L56.2971 37.5312L56.7909 37.6547L56.9144 37.2843V36.4201L56.7909 35.8028H56.2971Z" fill="#838314"/>
<path d="M56.6666 3.82715L57.4074 4.07406L57.6543 4.69135L57.5308 6.04937L57.1604 6.79011L56.2962 7.53085L55.9259 7.4074L55.3086 6.04937L55.4321 5.30863H55.679L56.1728 6.29628H56.6666L56.7901 5.679L56.0493 4.8148V4.07406L56.6666 3.82715Z" fill="#8C8C25"/>
<path d="M68.6402 4.69141H69.3809L69.5044 4.81486V5.80252L69.0106 6.4198L68.5167 6.17289L68.1464 5.5556L67.6525 5.43215L67.4056 6.29634L68.1464 6.54326L68.3933 6.91363L68.0229 7.284L67.5291 7.40746L66.7883 7.03709L66.418 6.66671L66.5414 5.92597L67.1587 5.18523L67.6525 4.93832L68.6402 4.69141Z" fill="#80800E"/>
<path d="M67.6534 31.7285L68.2706 31.852L68.3941 32.3458V33.9507L67.7768 35.0618L67.6534 35.1853H67.0361L66.4188 34.6915L66.1719 34.0742L66.2953 32.9631L66.7892 32.2223L67.1595 31.852L67.6534 31.7285ZM67.0361 32.5927L66.7892 32.8396V34.0742L67.0361 34.3211L67.6534 34.1977L67.9003 33.8273L67.7768 32.8396L67.6534 32.5927H67.0361Z" fill="#8C8C25"/>
<path d="M52.9627 5.67871L53.58 6.04908L54.0738 6.66637L54.1972 8.2713L53.7034 9.01204L53.333 9.25896L52.7158 9.1355L51.8516 7.65402L51.975 7.03674L52.3454 6.78982L52.5923 7.90093L52.8392 8.14785H53.333L53.4565 7.53056L52.9627 6.91328L52.4688 6.66637L52.3454 6.04908L52.9627 5.67871Z" fill="#8A8A21"/>
<path d="M53.5815 2.3457L54.6926 2.59262L55.5568 3.33336L55.6803 3.95064L54.6926 4.69138H53.8284L53.0877 4.32101L52.4704 3.82718V3.58027H52.2235L51.9766 2.96299L52.7173 2.46916L53.5815 2.3457ZM53.705 2.96299L52.9642 3.2099L53.2111 3.95064L53.5815 4.19755H54.4457L54.6926 3.82718L54.5692 3.2099L54.1988 2.96299H53.705Z" fill="#8B8B24"/>
<path d="M65.0619 35.9258L65.9261 36.0492L66.9137 36.9134L67.2841 37.4073V38.0245L66.9137 38.3949H65.5557L64.815 37.9011L64.0742 37.0369L64.1977 36.4196L65.0619 35.9258ZM65.4322 36.4196L65.1853 36.5431L65.0619 37.5307L65.5557 37.9011L66.173 37.7776L66.2964 37.2838L65.9261 36.6665L65.4322 36.4196Z" fill="#87871C"/>
<path d="M71.1128 6.66699H72.3473L72.8411 6.91391L73.0881 7.28428V7.90156L72.3473 8.51884L71.73 8.88921H70.372L69.6313 8.51884L69.5078 8.02502L70.1251 7.40773L70.8658 6.79045L71.1128 6.66699ZM70.6189 7.16082L70.2486 7.53119L70.4955 8.02502L71.1128 8.27193L71.8535 8.14847L72.2239 7.7781L72.1004 7.16082H70.6189Z" fill="#8C8C26"/>
<path d="M74.9368 23.9502L76.0479 24.3206L76.9121 25.1848L77.159 25.9255L76.9121 26.7897L76.5417 27.1601L75.6775 27.0366L75.0602 26.4193L74.6899 25.9255L74.5664 25.5551V24.3206L74.9368 23.9502ZM75.4306 24.6909L75.0602 25.3082L75.1837 25.802L75.5541 26.1724L76.0479 26.2959L76.4183 25.802V25.0613L75.5541 24.6909H75.4306Z" fill="#868619"/>
<path d="M69.3837 34.4443H70.2479L71.359 35.0616L71.7294 35.5554L71.8529 36.1727L71.359 36.6666L71.1121 36.79H70.001L69.1368 36.4196L68.5195 35.8024L68.643 34.9382L69.0134 34.5678L69.3837 34.4443ZM69.7541 34.9382L69.1368 35.1851L69.2603 35.9258L69.8776 36.1727H70.7418L70.9887 35.9258L70.8652 35.3085L70.3714 34.9382H69.7541Z" fill="#838315"/>
<path d="M78.0228 9.75293H78.6401L79.1339 10.1233L79.2574 10.4937V11.7282L78.5166 12.7159L77.7759 13.3332L77.2821 13.0863L77.0352 11.8517L77.2821 10.6171L78.0228 9.75293ZM78.0228 10.3702L77.7759 10.6171L77.6524 11.3579L77.8994 11.9752L78.2697 12.2221L78.7636 11.7282L78.887 10.9875L78.2697 10.3702H78.0228Z" fill="#89891F"/>
<path d="M76.7909 28.5186H78.3958L78.7662 28.8889L78.6427 29.6297L77.7785 30.4939L77.1613 30.7408L76.4205 30.6173L75.4329 30.1235L75.0625 29.6297V29.3828L76.2971 28.642L76.7909 28.5186ZM77.4082 29.0124L76.1736 29.2593V30L76.9144 30.3704L77.5316 30.4939L77.7785 29.7531L77.6551 29.1358L77.4082 29.0124Z" fill="#8D8D28"/>
<path d="M79.7517 19.2588H81.1098L81.4801 19.6292L81.1098 20.8637L80.6159 21.481L79.6283 21.9748H78.8875L78.6406 21.3576L78.7641 20.4934L79.2579 19.7526L79.7517 19.2588ZM79.6283 19.7526L79.3814 20.123V20.9872L79.5048 21.2341L80.2456 20.9872L80.4925 20.7403L80.6159 19.9995L80.2456 19.7526H79.6283Z" fill="#8C8C25"/>
<path d="M46.297 15.8027L47.0377 15.9262L48.0254 16.5435L48.6427 17.778L48.5192 18.2719L48.0254 18.7657L47.4081 18.6422L46.4204 17.9015L45.6797 16.7904L45.8031 16.1731L46.297 15.8027ZM46.6673 16.2966L46.4204 17.1608L46.9143 17.6546L47.7785 18.1484L47.655 16.9138L47.1612 16.42L46.6673 16.2966Z" fill="#90902D"/>
<path d="M73.2088 31.9756H74.6902L75.3075 32.346L75.6779 32.7163V33.3336L74.8137 34.0744L73.8261 34.1978L73.0853 33.9509L72.2211 33.3336L72.0977 32.9632L72.468 32.8398L72.8384 32.2225L73.2088 31.9756ZM73.3322 32.4694L73.0853 32.7163V33.3336L73.5791 33.704H74.3199L74.8137 33.3336L74.6902 32.7163L74.3199 32.4694H73.3322Z" fill="#86861A"/>
<path d="M56.4191 31.8516L57.1598 31.975L57.5302 32.4688L57.4067 33.333L56.7894 34.0738L56.0487 34.3207L54.6907 34.4442L54.3203 33.9503L54.5672 33.2096L55.308 32.3454L55.9253 31.975L56.4191 31.8516ZM56.2956 32.3454L55.6783 32.7158L54.9376 33.58L55.0611 33.9503L55.9253 33.8269L56.666 33.4565L56.9129 33.2096L56.7894 32.5923L56.2956 32.3454Z" fill="#8F8F2B"/>
<path d="M44.6909 21.6045L45.3082 21.7279L45.1847 22.2218L44.197 22.8391L43.7032 23.7033L43.4563 24.1971H43.9501L45.0612 22.8391L45.3082 22.0983L45.6785 22.2218V22.9625L44.8143 24.1971L44.3205 24.8144L43.7032 24.9378L43.3329 24.8144L43.0859 24.1971L43.2094 23.2094L43.8267 22.2218L44.444 21.7279L44.6909 21.6045Z" fill="#80800E"/>
<path d="M70.6181 29.7529L71.2354 29.9998L71.7292 30.864V32.469L70.9885 33.4566L70.3712 33.2097L69.8774 32.469L69.7539 32.0986V30.9875H70.1243L70.2477 32.0986L70.4946 32.5924L70.865 32.469L70.9885 32.2221V30.9875L70.0008 30.7406L70.2477 30.1233L70.6181 29.7529Z" fill="#929231"/>
<path d="M79.3823 23.9502L80.3699 24.0737L80.6168 24.444V25.0613L79.9996 25.9255L79.6292 26.049L79.2588 24.6909L78.765 24.444V26.1724H79.2588V26.4193L78.3946 26.5428L77.9008 26.049L77.7773 25.1848L78.1477 24.5675L79.3823 23.9502Z" fill="#86861A"/>
<path d="M75.679 20.3701L76.2962 20.4936L77.5308 21.1109L78.1481 22.0985L78.395 22.5923L77.6543 23.2096L76.7901 23.0862L75.8024 22.3454L75.3086 21.4812L75.4321 20.7405L75.679 20.3701ZM76.1728 20.9874L76.0493 21.2343V21.9751L76.5432 22.4689H77.5308L77.6543 21.9751L77.037 21.3578L76.5432 20.9874H76.1728Z" fill="#8D8D27"/>
<path d="M49.508 27.4072H50.7426L51.3599 27.6541L51.7302 28.148L51.6068 28.7653L50.9895 29.2591H50.3722V28.8887H50.6191V28.5183L50.866 28.3949L50.4957 27.9011H50.2487V28.5183L49.8784 28.6418V27.9011L50.1253 27.5307L49.2611 28.0245H48.7673L48.8907 28.5183L49.2611 28.6418L49.3845 29.0122L49.0142 29.1356L48.7673 29.3825L48.2734 29.1356V28.148L48.8907 27.5307L49.508 27.4072Z" fill="#80800E"/>
<path d="M52.3463 30.123H53.5809L54.3216 30.4934L54.1982 31.3576L53.5809 31.9749H53.334L53.2105 31.4811L53.4574 30.7403L53.087 30.37L52.3463 30.8638L51.4821 30.9872L51.2352 31.6045L52.2228 31.3576L51.9759 31.8514L51.729 32.2218L51.1117 32.0984L50.9883 31.8514V31.1107L51.8525 30.37L52.3463 30.123Z" fill="#80800E"/>
<path d="M61.9758 0L62.9635 0.123457L63.4573 0.617284V0.864198L62.84 1.48148L62.4697 2.34568L62.0993 2.22222L61.6055 1.35802V0.37037L61.9758 0Z" fill="#80800E"/>
<path d="M73.2088 9.75293H73.7026L73.8261 9.99984V11.7282L73.0853 11.6048L72.0977 10.864L72.2211 10.3702L72.8384 9.87639L73.2088 9.75293ZM72.9619 10.4937L73.2088 10.9875L73.0853 10.4937H72.9619Z" fill="#80800E"/>
<path d="M45.926 25.9258L46.5433 26.0492L46.7902 26.5431L46.1729 26.6665L45.926 26.5431L45.8025 26.9134H45.4321L45.3087 27.4073H45.5556V27.1603H45.8025L45.5556 27.6542L45.1852 28.0245H44.9383V28.3949H45.1852L45.8025 29.0122L46.0494 29.1357L46.1729 28.8887V29.2591L45.3087 29.3826L44.8149 28.8887L44.6914 27.6542L45.3087 26.5431L45.926 25.9258Z" fill="#91912F"/>
<path d="M63.2087 4.32129L63.579 4.44475L63.4556 4.93857V5.55586H64.1963L64.4432 5.67931L64.6902 5.18549L65.184 4.81512H65.4309L65.184 5.30894L64.6902 5.92623L63.9494 6.2966L63.0852 6.17314L62.7148 5.80277V5.06203L63.2087 4.32129Z" fill="#80800E"/>
<path d="M46.2949 12.8398L46.9122 13.2102L46.5418 13.951L45.1838 14.9386L44.443 15.0621L43.9492 14.8152L44.0727 14.4448L45.4307 13.951L46.048 13.3337L46.2949 12.8398Z" fill="#9E9E48"/>
<path d="M75.433 5.67871L75.9268 5.80217L76.5441 6.54291L76.6675 7.28365L76.5441 7.03674L75.9268 6.91328V6.66637L75.0626 6.54291L75.1861 7.16019H74.6922V7.40711H74.9391L74.8157 7.77748L74.4453 8.2713V6.91328L74.9391 5.92562L75.433 5.67871Z" fill="#8A8A21"/>
<path d="M59.3822 33.21L59.5056 33.4569L59.3822 33.8272V35.0618L60.1229 36.0495H59.7526V35.8026H59.5056L59.3822 36.1729L58.8884 36.0495L58.3945 34.9384L58.518 34.3211L59.0118 33.4569L59.3822 33.21Z" fill="#80800E"/>
<path d="M71.3579 2.71582L71.9752 2.83928L72.5925 3.3331L72.8394 4.44422H72.0987L71.4814 3.95039L70.6172 4.07385L70.8641 3.3331L70.9876 3.20965L71.2345 3.08619L71.3579 2.71582ZM71.9752 3.20965L72.0987 3.82693L72.3456 3.95039L72.0987 3.20965H71.9752Z" fill="#80800E"/>
<path d="M63.5806 0.741211L64.0744 0.988125L64.3213 1.60541V2.46961L64.0744 3.08689L63.704 3.21035L62.8398 2.71652L63.4571 1.60541L63.5806 0.741211Z" fill="#8F8F2B"/>
<path d="M63.9502 32.5928L64.4441 32.7162L64.8144 33.2101L64.9379 34.0743L64.691 34.6915H64.3206L64.1971 34.1977L64.3206 33.7039L64.1971 33.2101L63.5799 33.5804L63.2095 33.9508L62.9626 33.8273L62.8391 34.4446L62.5922 35.0619H62.4688L62.5922 34.0743L63.4564 32.9631L63.9502 32.5928Z" fill="#8B8B23"/>
<path d="M66.9118 5.43164L67.1587 5.5551H67.4056V6.29584L68.1464 6.54275L68.3933 6.91312L68.0229 7.28349L67.5291 7.40695L66.7883 7.03658L66.418 6.66621L66.5414 5.92547L66.9118 5.43164Z" fill="#80800E"/>
<path d="M74.0727 9.75293L75.3072 9.87639L75.8011 10.2468L75.5542 11.111L74.9369 11.6048H74.69L74.1961 10.3702L73.9492 9.87639L74.0727 9.75293Z" fill="#8D8D27"/>
<path d="M78.0229 17.6543L78.5167 17.7778L78.3933 18.5185L77.776 19.1358H76.9118L76.418 18.8889V18.5185L78.0229 17.6543Z" fill="#80800E"/>
<path d="M47.5298 11.7285L48.1471 11.9754L49.0113 12.7162L49.3817 13.21V13.4569L47.5298 13.0865L46.7891 12.5927L47.036 12.0989L47.5298 11.7285ZM47.2829 12.0989L47.5298 12.8396H48.1471L48.0236 12.4693L47.6533 12.3458L47.5298 12.0989H47.2829Z" fill="#80800E"/>
<path d="M45.3097 22.0986L45.6801 22.2221V22.9628L44.8159 24.1974L44.322 24.8147L43.7048 24.9381L43.3344 24.8147L43.2109 24.4443L43.9517 24.1974L45.0628 22.8394L45.3097 22.0986Z" fill="#959536"/>
<path d="M44.444 16.9141L44.9378 17.161L45.4316 17.9017L45.3082 18.3955L44.8143 18.519L44.5674 18.3955V18.1486L43.9501 18.0252L43.8267 18.3955L43.0859 18.2721L43.3329 17.7783L44.444 16.9141ZM44.5674 17.4079V17.7783L44.8143 17.6548L44.5674 17.4079Z" fill="#80800E"/>
<path d="M60.1227 32.8398L60.8635 32.9633L60.9869 34.0744L60.74 34.9386L60.4931 35.0621L60.1227 34.8152L59.7524 33.2102L59.6289 32.9633L60.1227 32.8398Z" fill="#99993F"/>
<path d="M73.0876 27.0371L73.5814 27.284L74.5691 28.2717L74.6925 28.889L73.5814 28.3951L72.7172 28.7655L72.5938 28.2717L72.9641 27.1606L73.0876 27.0371Z" fill="#8C8C25"/>
<path d="M74.693 13.21H75.3103V13.9507L75.9276 14.6914L76.7918 14.9384V15.0618H75.9276L74.8165 14.6914L74.1992 13.9507V13.4569L74.693 13.21Z" fill="#90902D"/>
<path d="M72.4674 4.56836L72.9612 4.69182L72.7143 5.80293L72.4674 6.1733L71.8501 5.92638L71.2328 5.3091L71.1094 5.06219L71.3563 4.69182L72.4674 4.56836Z" fill="#80800E"/>
<path d="M72.8398 29.1357L73.4571 29.2592L73.704 29.6296L73.8275 29.2592L74.4448 29.1357V30.4938L74.1979 30.7407L73.5806 30.6172L72.8398 29.6296V29.1357Z" fill="#969638"/>
<path d="M75.3086 13.0859H76.0493L77.1604 13.7032L77.6543 14.444V14.9378L76.9135 14.8143L76.0493 13.8267L75.3086 13.2094V13.0859Z" fill="#97973A"/>
<path d="M79.1354 24.0742L79.3823 24.1977L78.765 24.4446V26.173H79.2588V26.4199L78.3946 26.5434L77.9008 26.0495L77.7773 25.1853L78.1477 24.568L79.1354 24.0742Z" fill="#8C8C26"/>
<path d="M55.4314 32.4688H55.8018L55.5549 32.9626L55.0611 33.5799V33.8268L55.9253 33.7033L56.5425 33.5799V33.9502L56.0487 34.0737V34.3206L54.6907 34.4441L54.3203 33.9502L54.5672 33.2095L54.9376 33.086L55.4314 32.4688Z" fill="#98983C"/>
<path d="M47.5297 13.5801L48.6408 14.0739L49.1346 13.9504L49.505 13.7035L49.6285 14.3208L49.2581 14.9381L48.6408 15.0616L48.0235 14.6912L47.4062 13.827L47.5297 13.5801Z" fill="#9A9A41"/>
<path d="M45.804 9.38281L46.1743 9.50627V9.75318L46.7916 9.87664L47.4089 10.4939L47.162 10.7408L46.2978 10.8643L45.5571 10.3705L45.4336 10.247V9.62973H45.804V9.38281Z" fill="#80800E"/>
<path d="M59.3836 4.32129L59.5071 4.81512L59.3836 5.18549H59.6305L59.754 5.55586H60.2478L61.2355 5.06203L60.9886 5.67931L60.2478 6.2966L59.5071 6.42005L59.2602 6.04968L59.1367 4.81512L59.3836 4.32129Z" fill="#828212"/>
<path d="M48.0234 23.9502L48.7642 24.0737L49.7518 24.8144L49.8753 25.5551L49.258 26.049H48.6407L49.0111 25.9255L49.258 25.3082L48.7642 24.9378L48.2704 24.444V24.1971H48.0234V23.9502Z" fill="#80800E"/>
<path d="M47.5314 23.8271H47.9018L47.6549 24.5679L47.5314 25.0617V25.8025L47.0376 25.679L46.4203 25.0617L46.2969 24.5679L46.7907 24.0741L47.5314 23.8271ZM47.0376 24.321L46.7907 24.4444L46.9142 24.6913L47.1611 24.5679L47.0376 24.321ZM46.5438 24.6913L46.6672 24.9383L46.7907 24.6913H46.5438ZM47.0376 24.8148L47.1611 25.0617L47.408 24.8148H47.0376Z" fill="#80800E"/>
<path d="M77.1586 11.6045L77.6524 11.7279L77.8994 11.9749L78.5166 12.0983V12.7156L77.7759 13.3329L77.2821 13.086L77.0352 11.8514L77.1586 11.6045Z" fill="#80800E"/>
<path d="M49.508 27.4072H50.1253L49.6315 27.7776L49.0142 28.0245L48.8907 28.148V28.5183L49.2611 28.6418L49.3845 29.0122L49.0142 29.1356L48.7673 29.3825L48.2734 29.1356V28.148L48.8907 27.5307L49.508 27.4072Z" fill="#80800E"/>
<path d="M59.8766 3.9502L60.1236 4.07365L60.247 4.93785H60.8643L61.1112 4.81439L60.9878 5.30822L60.1236 5.67859V5.43168L59.6297 5.55513V5.18476H59.3828L59.5063 4.32057L59.8766 3.9502Z" fill="#80800E"/>
<path d="M45.9243 26.543H46.912L47.1589 26.7899V27.5306H46.912L46.7885 27.1603L45.8009 27.2837L45.554 27.1603V27.4072L45.1836 27.5306L45.4305 26.7899H45.8009L45.9243 26.543Z" fill="#80800E"/>
<path d="M64.3203 3.20996H65.0611L65.8018 3.70379L65.6783 4.56799L65.4314 4.8149L65.308 4.56799L65.4314 4.19762L65.308 3.9507L65.0611 4.19762L64.3203 3.70379V3.20996Z" fill="#80800E"/>
<path d="M66.9141 0.741211H67.6548L68.1486 1.23504L68.3955 1.85232L68.1486 2.34615H67.9017L67.6548 1.72887L66.9141 1.35849L67.161 0.864668L66.9141 0.741211ZM67.7783 1.35849V1.60541H68.0252V1.35849H67.7783Z" fill="#80800E"/>
<path d="M51.9767 33.21L52.4705 33.3334L52.5939 33.9507L51.8532 34.3211L51.4828 34.4445L51.3594 33.5803L51.9767 33.21Z" fill="#80800E"/>
<path d="M63.4571 1.60449L63.951 2.09832L63.8275 2.96252L63.4571 3.08597L62.8398 2.7156L63.4571 1.60449Z" fill="#80800E"/>
<path d="M45.9243 25.9258L46.5416 26.0492L46.7885 26.5431L46.1712 26.6665L45.9243 26.5431L45.8009 26.9134H45.1836L45.4305 26.4196L45.9243 25.9258Z" fill="#86861A"/>
<path d="M51.4821 30.6172H51.729V30.8641L51.2352 31.3579V31.6048L52.2228 31.3579L51.9759 31.8518L51.729 32.2221L51.1117 32.0987L50.9883 31.8518V31.111L51.4821 30.6172Z" fill="#80800E"/>
<path d="M48.3962 29.877L48.89 30.1239L49.1369 30.6177L48.3962 30.8646L48.1493 30.7412V30.9881H47.9023L48.0258 30.2473L48.3962 29.877Z" fill="#80800E"/>
<path d="M46.0502 8.88867L46.544 9.13559L46.4205 9.50596L45.8032 9.3825V9.62941H45.4329L45.6798 10.3702L46.1736 10.7405L45.5563 10.6171L45.0625 9.99978L45.3094 9.3825L46.0502 8.88867Z" fill="#89891F"/>
<path d="M48.7664 30.123L49.2603 30.2465L49.7541 31.2342L49.6306 31.728H49.3837L49.2603 31.2342L48.5195 30.9872L48.643 30.7403L49.0134 30.6169V30.37L48.7664 30.123Z" fill="#97973B"/>
<path d="M61.7289 0.123047H62.0993L62.2228 0.740331L62.7166 0.863788V1.1107L62.2228 0.987244L62.0993 1.35761L61.9758 1.23416L61.7289 1.60453L61.6055 1.35761V0.36996L61.7289 0.123047Z" fill="#8A8A22"/>
<path d="M55.4321 5.30859H55.679L56.1728 6.29625L56.5432 6.54316L55.9259 6.66662L55.4321 6.4197L55.3086 5.67896L55.4321 5.30859Z" fill="#80800E"/>
<path d="M44.8164 28.3955H45.1868L45.8041 29.0128L46.051 29.1362L46.1744 28.8893V29.2597L45.3102 29.3832L44.8164 28.8893V28.3955Z" fill="#8F8F2A"/>
<path d="M52.0986 32.4688L52.4689 32.5922L52.222 33.2095L51.6047 33.5799H51.2344L51.4813 32.9626L52.0986 32.4688Z" fill="#98983C"/>
<path d="M56.2969 4.19727L56.7907 4.44418L57.1611 4.81455V5.18492H56.9142L56.7907 5.43183L56.4203 5.30838L56.2969 4.19727Z" fill="#80800E"/>
<path d="M52.3438 30.123H53.208L52.5908 30.7403L52.3438 30.8638L51.7266 30.7403L52.3438 30.123Z" fill="#80800E"/>
<path d="M59.3837 33.21L59.5072 33.4569L59.2603 34.0742L59.1368 34.8149L58.8899 34.3211L58.5195 34.568L58.7664 33.8272L59.3837 33.21Z" fill="#99993E"/>
<path d="M46.1735 20.8643L46.6673 20.9877L46.297 21.7285L45.6797 21.605L45.8031 21.1112L46.1735 20.8643Z" fill="#9C9C44"/>
<path d="M72.8376 9.87695L73.3314 10.0004L73.2079 10.6177L72.3438 10.8646V10.4942H72.5907L72.7141 10.0004L72.8376 9.87695Z" fill="#80800E"/>
<path d="M56.1721 33.5801H56.5424V33.9504L55.6782 34.1974H54.9375L55.061 33.827L55.9252 33.7035L56.1721 33.5801Z" fill="#80800E"/>
<path d="M72.3446 10.2471H72.5915V10.494H72.3446L72.468 10.7409H72.7149L72.8384 10.494V10.7409H73.0853L72.9619 11.1113L72.468 11.2347L72.0977 10.8644L72.2211 10.3705L72.3446 10.2471Z" fill="#97973B"/>
<path d="M63.4564 32.9629L63.7033 33.0863L63.086 33.5802L63.3329 33.0863L63.4564 32.9629ZM62.8391 33.7036L62.9626 34.1975L62.5922 35.0617H62.4688L62.5922 34.074L62.8391 33.7036Z" fill="#98983C"/>
<path d="M55.4321 32.4688H55.8025L55.5556 32.9626L55.0618 33.5799H54.6914L54.9383 33.086L55.4321 32.4688Z" fill="#80800E"/>
<path d="M62.4688 35.1855L62.8391 35.6794H63.5799L63.9502 35.4325L63.7033 35.9263L63.4564 36.1732L62.8391 36.0497L62.4688 35.5559V35.1855Z" fill="#90902E"/>
<path d="M62.2219 0.987305L62.7158 1.11076L62.5923 1.60459L61.8516 1.72805V1.11076L62.0985 1.23422L62.2219 0.987305Z" fill="#80800E"/>
<path d="M47.4063 24.8145L47.5298 25.0614V25.8021L47.036 25.6787L46.7891 25.0614L47.4063 24.8145Z" fill="#80800E"/>
<path d="M74.4453 9.87695H75.3095L75.433 10.2473L75.3095 10.4942L74.8157 10.6177L74.5688 10.2473L74.6922 10.1239L74.4453 9.87695Z" fill="#80800E"/>
<path d="M52.2219 6.79004H52.3454L52.4688 7.77769L51.975 7.90115L51.8516 7.28387L52.2219 6.79004Z" fill="#80800E"/>
<path d="M71.3587 2.71582L71.9759 2.83928L72.4698 3.3331L71.6056 3.08619L71.729 3.3331L70.9883 3.20965L71.2352 3.08619L71.3587 2.71582Z" fill="#97973A"/>
<path d="M62.5938 1.3584L62.7173 1.85223L62.4704 2.34605L62.1 2.2226L61.9766 1.72877L62.5938 1.60531V1.3584Z" fill="#8E8E28"/>
<path d="M68.3962 3.20996H68.7665L68.6431 3.9507L68.5196 4.07416H67.9023L68.3962 3.45687V3.20996Z" fill="#80800E"/>
<path d="M66.6672 0.864258L66.9142 0.987715L66.4203 1.85191L66.2969 1.35808L66.6672 0.864258Z" fill="#80800E"/>
<path d="M74.3196 11.2344L74.443 11.6047L73.9492 11.7282L74.0727 11.3578L74.3196 11.2344Z" fill="#80800E"/>
<path d="M70.8656 4.44434L71.236 4.56779L70.9891 4.93816L70.7422 4.56779L70.8656 4.44434Z" fill="#80800E"/>
<path d="M67.2852 3.45703L67.779 3.70394L67.9024 3.95086L67.4086 3.70394L67.2852 3.45703Z" fill="#80800E"/>
<path d="M52.9618 30.6172V30.9876L52.7148 31.111L52.9618 30.6172Z" fill="#80800E"/>
<path d="M66.9141 2.96289L67.2844 3.2098L67.161 3.45672L66.9141 2.96289Z" fill="#80800E"/>
<path d="M49.2578 29.1357H49.5047V29.3827H49.2578V29.1357Z" fill="#80800E"/>
<path d="M63.7055 4.07422L63.9524 4.19768H63.582L63.7055 4.07422Z" fill="#80800E"/>
<path d="M68.1484 2.71582L68.5188 2.96273H68.1484V2.71582Z" fill="#80800E"/>
<path d="M49.3828 28.3955L49.6297 28.519L49.3828 28.6424V28.3955Z" fill="#80800E"/>
<path d="M64.0727 3.82715L64.1961 4.07406L63.9492 3.95061L64.0727 3.82715Z" fill="#80800E"/>
</svg>
