<svg width="147" height="100" viewBox="0 0 147 100" fill="none" xmlns="http://www.w3.org/2000/svg">
<path d="M12.3655 62.9805H15.4377L15.5145 63.0573V74.1172L15.5913 82.1049L16.513 82.2585L22.7342 83.5642L39.1704 87.0204L67.9722 93.088L73.2718 94.2401L73.8094 94.3169L80.9523 92.7808L114.209 85.7915L128.495 82.7961L131.106 82.1817L131.49 82.1049V63.0573L133.18 62.9805H136.329L136.405 63.9789V86.7132L135.714 86.9436L130.799 88.0189L126.114 89.0173L115.207 91.3215L110.753 92.2431L105.683 93.3184L100.154 94.4705L93.3179 95.9298L74.8079 99.8468L74.1166 100H73.3486L69.662 99.2324L60.5222 97.3123L20.8908 88.9405L12.2119 87.0972L10.7526 86.7132L10.6758 86.6364V63.0573L12.3655 62.9805Z" fill="#276EC1"/>
<path d="M73.2731 0L73.8107 0.0768049L75.4236 0.460829L91.0918 3.76344L110.063 7.7573L124.272 10.7527L130.723 12.1352L135.946 13.2873L136.33 13.4409L136.407 14.1321L136.33 28.6482L136.253 28.8018L135.869 28.8786H134.41L131.568 28.8018L131.491 18.3564L131.184 18.0492L128.957 17.5115L103.841 12.212L98.0811 10.9831L94.3176 10.2151L79.1103 6.98925L74.1948 5.99078L73.8875 5.91398H72.7355L69.5865 6.60522L31.9521 14.5161L19.9705 17.0507L16.5143 17.8187L15.7462 18.0492L15.5926 18.4332L15.5158 25.0384L15.439 28.8786H12.674L10.7539 28.8018V13.3641L11.4452 13.1336L16.0534 12.1352L38.4805 7.37327L43.7032 6.298L67.2823 1.30568L72.5819 0.15361L73.2731 0Z" fill="#3DA848"/>
<path d="M9.67742 34.1777H10.9063L13.5177 34.2545L14.977 34.485L16.2058 34.869L17.1275 35.253L18.2796 35.8674L19.2012 36.5587L19.9693 37.2499L20.8909 38.402L21.659 39.7077L22.2734 41.0902L22.6574 42.4727L22.8879 44.0856V45.1608L22.7343 46.4665L22.3502 48.0794L21.8126 49.4619L21.1214 50.7676L20.1997 51.9965L18.9708 53.2254L17.8955 53.9934L16.7435 54.6078L15.1306 55.2223L13.9785 55.4527L12.8264 55.5295H0.0768049L0 48.8475V39.5541L0.0768049 34.3313L1.30568 34.2545L9.67742 34.1777Z" fill="#276EC1"/>
<path d="M88.4006 34.1777L91.6264 34.2545L93.1625 34.485L94.3914 34.9458L95.3898 35.4834L96.2347 36.1747L96.9259 36.9427L97.6172 38.0948L98.1548 39.3237L98.462 40.7062L98.5388 41.6278V42.6263L98.3084 44.2392L97.9244 45.3144L97.4636 46.2361L96.8491 47.081L96.3115 47.6954L95.313 48.4634L94.3146 49.0779H94.161L94.6986 49.6923L95.7739 50.8444L97.694 52.7645L98.2316 53.379L99.1533 54.3006L99.7677 54.8383L100.305 55.4527V55.5295H98.7692L97.3868 55.6063H96.0043L95.313 55.4527L94.6986 54.9151L93.9305 54.147L93.3929 53.5326L92.548 52.6109L91.8568 51.7661L91.3192 51.2284L90.7815 50.614L90.0903 49.8459L89.8599 49.6923L81.7954 49.6155V47.1578L81.8722 46.3897L83.7155 46.3129L91.396 46.2361L92.6249 46.0057L93.2393 45.6985L93.8537 45.1608L94.3914 44.316L94.7754 43.0871V41.0902L94.545 40.0917L94.0841 39.3237L93.7769 38.9396L93.0857 38.4788L92.3944 38.1716L91.2424 38.018H79.0304V55.5295H75.4206L75.3438 55.4527V52.0733L75.4206 34.3313L76.7262 34.2545L88.4006 34.1777Z" fill="#276EC1"/>
<path d="M49.8473 34.2549H64.4402L65.9763 34.4853L67.1284 34.8693L68.2805 35.4838L69.0485 36.0982L69.7397 36.8662L70.431 38.0183L70.9686 39.2472L71.2758 40.3993L71.4295 41.4745V42.7802L71.199 44.0859L70.8918 45.0844L70.3542 46.1596L69.5861 47.2349L68.9717 47.8494L67.666 48.771L67.1284 49.0782L67.282 49.3855L67.9732 50.0767L68.5109 50.6911L73.196 55.3762V55.5298L70.047 55.6066H68.8949L68.2037 55.453L67.5892 54.9154L66.6676 53.9937L66.1299 53.3793L65.2083 52.304L64.133 51.152L63.5954 50.5375L62.8273 49.7695L62.6737 49.6927L54.686 49.6159V46.4669L54.7628 46.3901L56.8365 46.3133L64.2866 46.2364L65.5155 46.006L66.2067 45.622L66.6676 45.238L67.2052 44.4699L67.5892 43.3947L67.666 42.9338V41.0905L67.4356 40.1689L66.9748 39.324L66.2835 38.6328L65.2851 38.1719L64.2098 38.0183H51.921L51.8442 55.5298H48.2344V34.4085L48.3112 34.3317L49.8473 34.2549Z" fill="#276EC1"/>
<path d="M126.421 33.9482L127.113 34.025L127.727 34.3323L128.572 35.1003L129.186 35.638L131.26 37.7117V37.8653H131.414L131.951 38.4797L132.873 39.3246L139.632 46.0834L140.246 46.6211L143.088 49.4628L143.319 49.5396L143.395 34.1787L143.472 34.1019H146.852L146.928 34.9467V53.6103L146.775 54.532L146.391 55.1464L145.853 55.6072L145.239 55.9144L144.471 55.7608L143.779 55.3L142.704 54.3783L140.63 52.3046L140.093 51.6902L136.176 47.7731L136.022 47.6963V47.5427H135.869V47.3891H135.715V47.2355H135.561V47.0819H135.408L134.87 46.4674L129.647 41.2447L129.033 40.7071L128.495 40.0926H128.418L128.342 43.3184L128.265 55.5304H125.116L124.809 55.4536V35.2539L125.039 34.7931L125.807 34.1787L126.421 33.9482Z" fill="#276EC1"/>
<path d="M3.68618 37.9414H13.0564L14.5157 38.1718L15.7446 38.7095L16.6662 39.3239L17.4343 40.0151L18.0487 40.7832L18.6631 42.0121L18.9704 43.2409L19.0472 43.7786V46.0059L18.8167 47.158L18.3559 48.3101L17.6647 49.3853L16.9734 50.1534L16.2054 50.7678L15.0533 51.3823L14.0548 51.6895L12.826 51.8431H3.68618L3.60938 51.6895V38.0182L3.68618 37.9414Z" fill="#FEFEFE"/>
<path d="M103.532 34.2549H121.505V37.9415L121.428 38.0183H106.22V50.6143L106.297 51.7664L106.374 51.8432H121.505V55.5298H102.534L102.457 54.4546V41.3209L102.534 34.3317L103.532 34.2549Z" fill="#276EC1"/>
<path d="M26.8045 34.2549H44.9304V37.0199L44.8536 37.9415L29.4926 38.0183L29.5694 51.8432H44.9304V55.453L44.5464 55.5298H25.9596L25.8828 52.8417V37.0967L25.9596 34.3317L26.8045 34.2549Z" fill="#276EC1"/>
<path d="M118.663 65.1309H120.89L121.812 65.2845L122.349 65.6685L122.657 66.2829L122.81 66.8206L122.887 67.5118V72.3505L122.733 73.2722L122.426 73.8098L121.812 74.2706L121.274 74.4243L119.354 74.5779H118.74L118.586 65.2077L118.663 65.1309Z" fill="#3E404B"/>
<path d="M108.987 43.1641H120.738V46.2363H108.987L108.91 46.1595V43.2409L108.987 43.1641Z" fill="#276EC1"/>
<path d="M32.7968 43.1641H44.1639V46.1595L43.5495 46.2363H32.3359V43.2409L32.7968 43.1641Z" fill="#286FC1"/>
<path d="M67.7409 65.0537H69.4306L70.429 65.1305L71.0435 65.3609L71.5043 65.8986L71.8115 66.7434L71.8883 67.1274V68.2027L71.7347 68.9708L71.4275 69.662V70.1996L71.7347 70.7373L71.8883 71.6589V74.5007H70.8131L70.7363 71.1213L70.5826 70.5837L69.5842 70.4301H69.0466L68.7393 70.3533L68.6625 74.5007L68.5089 74.5775H67.7409L67.6641 74.5007V65.1305L67.7409 65.0537Z" fill="#3E3F4A"/>
<path d="M10.7539 86.252H10.9843L11.0611 86.5592L12.5204 86.8664L14.1333 87.02L16.9751 87.5576L17.82 87.7881L17.5127 87.9417L18.0504 88.0185L18.4344 87.9417L20.3545 88.3257L20.4313 88.4025L21.2762 88.4793L23.5035 88.9401L25.5005 89.3241L25.6541 89.401L25.7309 89.2473V89.4778L28.1118 89.7082L28.9567 89.9386L29.0335 90.0922L29.4175 90.0154L30.3392 90.2458L31.1072 90.3226L32.0289 90.553L34.0258 90.9371L34.2562 91.0139L34.4098 91.1675H34.8706L35.1011 91.2443L37.0212 91.5515L37.098 91.6283L38.8645 91.9355L40.3238 92.2427L42.0903 92.6268L43.0888 92.8572L43.396 93.0108L44.164 93.0876L46.4682 93.5484L48.6187 94.0092L51.7677 94.7005L53.9951 95.1613L55.9152 95.6222L56.2992 95.7758L56.376 95.9294L57.8353 96.083L58.9106 96.467L59.141 96.5438L60.3699 96.7742L60.9843 96.9278L60.9075 97.1583L63.0581 97.5423L64.1333 97.8495V97.9263H63.4421L54.3791 96.0062L22.3514 89.2473L13.2885 87.3272L10.9843 86.7896L10.7539 86.7128V86.252Z" fill="#1863C3"/>
<path d="M82.8711 65.1309H85.5593L86.2505 65.3613L86.6345 65.7453L86.9418 66.1293L87.0954 66.5133L87.1722 66.9742V68.6639L86.8649 69.5087L86.3273 69.9696L85.7897 70.2L84.1 70.3536L84.0232 74.5011L83.9464 74.5779H82.9479L82.8711 70.3536V65.1309Z" fill="#3D414F"/>
<path d="M35.0984 64.9766L35.5593 65.0534L35.7897 65.3606L36.4041 67.8183L37.3258 71.889L37.7098 73.7323L37.8634 74.27V74.5772H37.0186L36.7113 74.4236L36.2505 72.273L36.0969 71.889L35.9433 71.8122L34.868 71.889L34.4072 71.8122L34.1 73.1947L33.8696 74.3468L33.7159 74.5004L32.8711 74.5772V73.9627L33.2551 71.8122L34.3304 66.9735L34.7912 65.207L35.0984 64.9766Z" fill="#3E404B"/>
<path d="M63.5932 65.0537L64.1308 65.1305L64.7453 66.9738L65.2829 69.278L65.9742 72.3502L66.435 74.3471V74.5775H65.3597L65.0525 73.4254L64.6685 72.043L64.5149 71.8125L62.902 71.8893L62.5947 73.3486L62.3643 74.4239L62.0571 74.5775L61.2891 74.5007L61.3659 73.9631L62.2107 70.046L62.9788 66.6666L63.3628 65.2841L63.5932 65.0537Z" fill="#3E3F4A"/>
<path d="M53.3807 65.0537H53.9951L54.0719 65.1305L54.1487 69.4316V74.5007L54.0719 74.5775H53.1503L53.0735 70.3533L51.0765 70.2764L50.9997 74.5007L50.9229 74.5775H50.0013L49.9245 74.5007L49.8477 65.1305H50.9997L51.0765 67.7419V69.278H53.0735L53.1503 65.1305L53.3807 65.0537Z" fill="#3E3F4B"/>
<path d="M24.8833 65.0537H25.6514L25.7282 65.1305V74.5007L25.6514 74.5775H24.7297V70.3533H22.7328L22.656 74.5007L22.1952 74.5775H21.5807L21.5039 74.5007V72.3502L21.5807 65.1305H22.656V69.3548L24.6529 69.278L24.8065 65.1305L24.8833 65.0537Z" fill="#3F3E47"/>
<path d="M27.3438 65.1309H31.2608L31.184 66.2829H28.4958V69.2783L31.184 69.3551V70.2768L31.1072 70.3536H28.5726L28.4958 73.4258H31.1072L31.184 73.5026V74.5011L29.2639 74.5779H27.4206L27.3438 67.2814V65.1309Z" fill="#3E3F49"/>
<path d="M88.4805 65.0537H89.2485L89.5557 65.2841L91.015 71.2749L91.0918 71.4285L91.5527 70.046L92.3975 66.6666L92.7047 65.5145L92.7815 65.1305H93.8568L93.7032 65.8986L93.0888 68.6635L92.3207 71.7357L91.6295 74.3471L91.4759 74.5775H90.7846L90.5542 74.1167L89.2485 68.7403L88.7109 66.3594L88.4805 65.2841V65.0537Z" fill="#3E3F49"/>
<path d="M73.4258 65.1309H77.3428L77.266 66.2061L74.5779 66.2829L74.6547 69.2783L77.266 69.3551L77.3428 69.4319V70.0464L77.266 70.2768H74.5779V73.5026H77.266L77.3428 73.6562V74.4243L73.5794 74.5779L73.5026 74.5011L73.4258 70.6608V65.1309Z" fill="#3F3E48"/>
<path d="M57.5269 65.1309H58.2182L59.063 65.3613L59.6006 65.8989L59.9847 66.667L60.1383 68.1263L59.9079 68.3567H59.1398L59.063 67.9726L58.9862 66.8974L58.7558 66.4365V66.2829L58.3718 66.2061H57.7573L57.1429 66.4365L56.9125 66.7438L56.8357 67.435V71.9665L56.9893 72.8882L57.2965 73.349L58.0645 73.5026L58.6022 73.2722L58.8326 73.0418L59.063 71.9665L59.1398 71.2753L59.2934 71.1984H59.7543L60.0615 71.4289V72.1969L59.9079 73.1186L59.5238 73.8098L58.9862 74.2706L58.295 74.5011H57.4501L56.7589 74.2706L56.1444 73.6562L55.8372 72.965L55.6836 71.8129V68.5871L55.7604 66.8974L56.0676 66.0525L56.4516 65.5917L57.1429 65.2077L57.5269 65.1309Z" fill="#3E3F49"/>
<path d="M113.058 65.0537H117.436V66.2826H115.439L115.363 70.046V74.5007L115.209 74.5775H114.287L114.134 66.2826L112.137 66.2058V65.1305L113.058 65.0537Z" fill="#3E404C"/>
<path d="M95.0846 65.0537H97.0047L100.461 65.1305L100.384 66.2058L98.3872 66.3594L98.3104 67.2042L98.2336 74.5007L98.1568 74.5775H97.2352L97.1583 73.195L97.0815 66.3594L95.0846 66.2058L95.0078 65.9754L95.0846 65.0537Z" fill="#3D414E"/>
<path d="M119.815 66.2061H121.121L121.658 66.3597L121.812 66.6669L121.889 67.5117V72.7345L121.735 73.1953L121.198 73.4257L120.66 73.5025H119.815L119.738 69.2014V66.2829L119.815 66.2061Z" fill="#FEFEFE"/>
<path d="M45.7742 65.0537H47.3103L48.7696 65.1305V65.745L48.6927 66.2058L48.2319 66.2826L46.6958 66.3594L46.619 66.8202L46.5422 74.5007H45.5437L45.4669 69.8924V66.2826L43.3932 66.2058L43.3164 65.2073L43.3932 65.1305L45.7742 65.0537Z" fill="#3E404B"/>
<path d="M107.913 65.1309H108.911L108.988 71.4289V73.5026H111.907L111.983 73.8098L111.907 74.4243L108.758 74.5779H107.836V66.2061L107.913 65.1309Z" fill="#3E404D"/>
<path d="M39.1706 65.1309H40.0922L40.2458 71.2753V73.5026H43.1644L43.2412 74.117L43.1644 74.4243L42.4732 74.5011L40.2458 74.5779H39.1706L39.0938 72.6577V66.1293L39.1706 65.1309Z" fill="#3E3F4A"/>
<path d="M129.571 82.5654H129.955V82.719L128.188 83.1799L127.113 83.4103L125.423 83.7943L123.042 84.2551L121.583 84.5624L119.817 84.9464L118.588 85.1768L116.668 85.5608L114.978 85.9448L113.595 86.1753L112.367 86.4825L110.754 86.7897L109.525 87.0969L107.835 87.4041L106.683 87.7114L105.147 88.0186L103.764 88.3258L99.7705 89.1707L97.9272 89.5547L96.1607 89.9387L94.1638 90.3227L93.1653 90.5531L91.2452 90.9372L89.4787 91.3212L86.7905 91.8588L86.0992 91.9356L85.2544 92.166L82.9502 92.6269L81.9518 92.8573L80.6461 93.0877L79.8012 93.3181L78.0347 93.6253L76.4986 93.9326L76.1914 93.8558L76.6522 93.7021L82.1054 92.5501L114.21 85.7912L128.496 82.7958L129.571 82.5654Z" fill="#1A65C3"/>
<path d="M84.1016 66.2061H85.4072L85.9449 66.3597L86.1753 66.5901L86.2521 66.8973V68.2798L86.0985 68.8942L85.6377 69.2014L85.0232 69.3551H84.4088L84.1016 69.2783V66.2061Z" fill="#FEFEFE"/>
<path d="M68.7409 66.2061H69.9697L70.661 66.4365L70.8146 66.8973V68.4334L70.5842 69.1246L70.2002 69.2783H68.7409L68.6641 68.3566V66.6669L68.7409 66.2061Z" fill="#FEFEFE"/>
<path d="M121.737 66.3594L122.044 66.4362L122.198 66.7434L122.274 68.4331L122.505 69.8156H122.812V73.0414L122.505 73.7326L121.967 74.1935L121.814 74.2703H121.276L121.199 73.8863L121.353 73.6558H121.506L121.43 73.4254L121.66 73.2718L121.814 72.7342V67.5114L121.737 66.3594Z" fill="#34323A"/>
<path d="M0.0768049 34.332H2.76498V34.4088L1.15207 34.4856L0.384025 34.6393L0.30722 35.4073L0.230415 47.1585L0.30722 51.5363V52.5348L0.384025 53.7637V54.9157L0.460829 55.3766L0.614439 55.4534H0.0768049L0 48.8482V39.5548L0.0768049 34.332Z" fill="#1F68C2"/>
<path d="M57.5283 65.1309H58.2195L59.0644 65.3613L59.602 65.8989L59.986 66.667L60.1397 68.1263L59.9092 68.3567H59.1412L59.0644 67.9726L58.9876 66.8974L58.7572 66.4365V66.2829L58.3731 66.2061H57.2979L57.2211 65.9757L56.7602 65.8989L56.3762 66.2061H56.2226L56.069 66.5902H55.9922L56.069 66.0525L56.453 65.5917L57.1443 65.2077L57.5283 65.1309Z" fill="#34343D"/>
<path d="M108.987 43.1641H120.738V46.2363H117.896L112.674 46.1595V46.0826L115.746 46.0058H117.589L119.048 45.8522L119.663 45.6218H119.893L119.97 45.3146L120.2 44.7002L120.277 43.9321L120.124 43.5481L119.893 43.3945L119.509 43.3177H111.061L109.371 43.3945L109.141 43.4713L109.064 43.8553H108.987L108.91 43.2409L108.987 43.1641Z" fill="#1864C3"/>
<path d="M32.7942 43.1641H44.1613V46.1595H41.0123L41.3195 46.0058L41.7804 45.929L43.5469 45.7754L43.9309 45.6986V43.7017L43.6237 43.5481H42.3948L40.0906 43.3945L38.3241 43.3177L35.1751 43.3945L34.2535 43.4713L32.5638 43.6249L32.4102 43.9321V43.2409L32.7942 43.1641Z" fill="#1A65C3"/>
<path d="M129.648 41.167L130.34 41.3974L130.877 41.8582V42.0118L131.185 42.1655L131.645 42.4727L131.799 42.7799L131.415 42.7031H131.338L132.413 43.7784L132.567 43.8552V44.0088H132.721L133.258 44.6232L135.793 47.1578L135.946 47.2346V47.3882H136.1L136.638 48.0026L136.945 48.3098L137.175 48.4635L137.559 48.8475L137.713 48.9243L137.943 49.3083L138.327 49.5387L138.635 49.9996L139.019 50.3836L139.633 50.9212L139.94 51.2284H140.094L139.94 50.9212L140.248 51.0748L140.939 51.8429L141.016 52.0733L140.862 52.2269L141.553 52.9949L142.475 53.9166L142.628 53.9934V54.147L142.936 54.3006L143.089 54.6079L142.782 54.4542L140.632 52.3037L140.094 51.6893L136.177 47.7722L136.023 47.6954V47.5418H135.87V47.3882H135.716V47.2346H135.562V47.081H135.409L134.871 46.4665L129.648 41.2438V41.167Z" fill="#1763C3"/>
<path d="M32.5664 51.8438H44.932V55.4536H43.0887V55.3768L43.8567 55.2232L44.2408 55.0696L44.4712 54.7623V52.3046L43.7799 52.151L43.3959 51.9974L32.5664 51.9206V51.8438Z" fill="#1863C3"/>
<path d="M99.2334 94.3936L99.5406 94.5472L99.0798 94.7008L93.3194 95.9297L84.5637 97.773H83.9492L84.2564 97.6194L86.407 97.1585L88.4039 96.6977L90.5544 96.2369L93.7034 95.5456L96.7756 94.9312L98.2349 94.624L99.2334 94.3936Z" fill="#1B66C3"/>
<path d="M86.4829 65.8223L86.7902 65.8991L87.0974 66.5135L87.1742 66.9743V68.664L87.0974 68.9713L86.7902 68.8945L86.7134 68.7409H86.2525L86.1757 66.8975L86.0221 66.5135L85.9453 66.2831L86.2525 66.2063L86.3293 66.0527L86.4829 66.1295V65.8223Z" fill="#35333B"/>
<path d="M53.3802 65.0537H53.9946L54.0714 65.1305L53.9946 67.5115L53.6874 67.2042L53.457 69.278L53.2266 69.3548V65.1305L53.3802 65.0537Z" fill="#343037"/>
<path d="M53.2252 70.2764H53.4557L53.5325 71.1212L53.6093 72.4269L53.6861 72.9645L53.9933 73.1181L54.1469 73.963V74.5006L54.0701 74.5774H53.1484V71.6589L53.2252 70.2764Z" fill="#33323A"/>
<path d="M0.078125 34.332H2.7663V34.4088L1.15339 34.4856L0.385345 34.6393L0.30854 35.4073L0.231735 47.0816L0.078125 47.1585V34.332Z" fill="#1763C4"/>
<path d="M51.7654 38.7861H51.8422V55.4528H50.8438V55.376L51.535 55.1456V54.0703L51.6118 52.995V51.6894L51.6886 48.3867V42.9336L51.7654 38.7861Z" fill="#1763C4"/>
<path d="M63.7486 65.8984L63.9022 65.9752L63.979 68.1258L64.2094 69.6619L64.4398 70.5835V70.814H63.2109L63.3645 69.8923L63.6718 68.2026L63.7486 65.8984Z" fill="#FEFEFE"/>
<path d="M62.9805 49.7695L63.2877 49.9231L63.8253 50.4608L63.9789 50.5376V50.6912H64.1325L64.2862 50.9984L64.747 51.2288L65.131 51.6128V51.7665H65.2846L66.0527 52.7649V52.9185H66.2063L66.2831 53.3026H66.4367V53.4562H66.5903V53.6098H66.7439L67.1279 53.9938L67.2047 54.2242H67.3583V54.3778H67.512V54.5314L67.8192 54.685L68.2032 54.9923V55.1459H68.3568L68.5104 55.4531L68.0496 55.3763L66.6671 53.9938L66.1295 53.3794L65.2078 52.3041L64.1325 51.152L63.5949 50.5376L62.9805 49.9231V49.7695Z" fill="#1964C3"/>
<path d="M132.181 87.4805H132.642L132.565 87.6341L122.811 89.7078H122.273L122.504 89.5542L124.194 89.1702L125.422 88.863L127.419 88.4789L128.879 88.1717L130.799 87.7877L131.336 87.6341L132.181 87.4805Z" fill="#1B65C3"/>
<path d="M109.141 51.8438H121.506V55.4536H120.201V55.3768L120.892 55.3L121.199 55.1464L121.276 54.4551V52.3814L121.045 52.0742L120.738 51.9974L109.141 51.9206V51.8438Z" fill="#1763C4"/>
<path d="M35.3319 67.7422H35.4087L35.5623 68.8943L35.9463 70.8144H34.6406L35.1783 68.587L35.2551 68.2798L35.3319 67.7422Z" fill="#FEFEFE"/>
<path d="M133.179 62.9805H136.328V67.2047L136.175 67.1279L136.098 66.4367V65.0542L136.021 63.4413L135.33 63.2109H132.027L131.566 63.4413V63.1341L131.797 63.0573L133.179 62.9805Z" fill="#1763C4"/>
<path d="M24.8853 65.0537H25.6534L25.7302 65.1305L25.6534 65.745L25.2694 65.8218L25.1158 66.3594L25.039 69.0476L24.8853 69.4316L24.5781 69.3548L24.6549 69.278L24.8085 65.1305L24.8853 65.0537Z" fill="#343745"/>
<path d="M24.8841 70.8145H24.9609L25.1913 72.4274L25.3449 74.1939L25.4985 74.2707L25.6521 73.9635V74.5779H24.7305V71.5057L24.8841 70.8145Z" fill="#333745"/>
<path d="M63.595 65.0537L64.1326 65.1305L64.5934 66.4362V66.8202L64.2862 66.7434L63.979 67.1274L63.9022 66.897L63.8254 65.9754L63.7486 66.0522L63.6718 66.8202L63.4414 66.6666V66.2058L63.2109 66.2826L63.2877 65.6682L63.4414 65.2073L63.595 65.0537Z" fill="#35333C"/>
<path d="M14.1328 38.0186L14.6704 38.0954L15.6689 38.4794L16.2833 38.8634L16.9746 39.1706L17.3586 39.401V39.5547L17.6658 39.7083L18.2803 40.5531L18.5107 41.1676L18.7411 41.4748L18.8179 42.0892L18.8947 42.166V42.55H18.7411L18.3571 41.4748L17.7426 40.4763L17.0514 39.7083L16.1297 39.017L14.9009 38.4026L14.1328 38.0954V38.0186Z" fill="#1964C3"/>
<path d="M35.0989 64.9766L35.5597 65.0534L35.7901 65.3606L35.8669 66.1286L35.6365 66.0518V67.2039L35.5597 67.8951H35.4829L35.3293 65.8982L35.1757 66.8199H34.8685L34.7916 66.0518L34.7148 65.5142L34.8685 65.1302L35.0989 64.9766Z" fill="#34333B"/>
<path d="M59.2916 71.1982H59.7524L60.0596 71.4287V72.1967L59.906 73.1184L59.6756 73.5792H59.522L59.6756 72.8111V72.5039L59.2916 72.5807L59.0612 73.0416H58.9844L59.0612 71.9663L59.138 71.275L59.2916 71.1982Z" fill="#35343D"/>
<path d="M45.6211 70.0459L45.7747 70.3531L45.8515 70.8139L45.9283 73.5789L46.0819 74.0398L46.2355 73.5789L46.3891 72.8109H46.4659V74.5006H45.6211V70.0459Z" fill="#343036"/>
<path d="M97.2344 68.126L97.388 68.4332L97.5416 73.9632L97.6184 74.2704L98.0792 74.3472L98.156 74.5776H97.2344V68.126Z" fill="#343138"/>
<path d="M25.9609 42.8574H26.0377L26.1914 47.6961L26.2682 48.6178H26.1145L26.2682 49.309V49.6163H26.1145V50.8451L26.0377 53.1493H25.9609V42.8574Z" fill="#1763C4"/>
<path d="M90.3242 49.9229L90.8619 50.3837L91.7835 51.3821L92.1675 51.843L92.4748 52.0734V52.227H92.6284L93.0892 52.9182L93.7036 53.5327L93.7804 53.6863H93.9341V53.8399H94.0877V53.9935L94.3949 54.0703V54.2239H94.5485V54.3775H94.7021V54.5311H94.8557V54.6848H95.0093V54.8384H95.1629V54.992L95.3933 55.0688L95.547 55.4528L95.1629 55.376L93.9341 54.1471L93.3964 53.5327L92.5516 52.611L91.8603 51.7662L91.3227 51.2285L90.785 50.6141L90.3242 50.0765V49.9229Z" fill="#1B65C3"/>
<path d="M137.633 49.1553L137.94 49.3089L138.324 49.5393L138.631 50.0001L139.015 50.3842L139.63 50.9218L139.937 51.229H140.091L139.937 50.9218L140.244 51.0754L140.935 51.8434L141.012 52.0739L140.859 52.2275L141.55 52.9955L142.472 53.9172L142.625 53.994V54.1476L142.932 54.3012L143.086 54.6084L142.779 54.4548L140.628 52.3043L140.091 51.6898L137.633 49.2321V49.1553Z" fill="#1964C3"/>
<path d="M88.4805 65.0537H89.2485L89.5557 65.2841V65.8218L89.1717 65.8986L89.0949 66.2058V66.7434L89.1717 66.9738V67.7419H89.0181L88.4805 65.2841V65.0537Z" fill="#34343E"/>
<path d="M54.7617 46.3906H63.4407V46.4674L55.7602 46.5442L54.9921 46.8515L54.9153 47.3891V49.0788L55.0689 49.386L55.7602 49.4628V49.5396H54.7617V46.3906Z" fill="#1763C3"/>
<path d="M128.035 50.3838H128.189V55.5297L127.805 55.4529L127.881 54.7617V52.9952L127.958 50.7678L128.035 50.3838Z" fill="#1763C4"/>
<path d="M11.1379 83.6406H11.2147V84.0246H11.3683V84.1783H11.522L11.4452 85.5607L11.6756 86.0216L11.9828 86.0984L12.0596 86.3288L11.3683 86.1752L11.1379 85.868L10.9843 85.4071L10.7539 85.1767L10.8307 84.2551L11.1379 83.6406Z" fill="#1763C3"/>
<path d="M12.3655 62.9805H15.4377V65.0542H15.3609L15.2073 63.5181L14.6696 63.2109H11.6742L11.0598 63.2877L10.7526 63.6717L10.6758 63.0573L12.3655 62.9805Z" fill="#1D67C2"/>
<path d="M44.4713 34.332H44.9321V37.0202L44.8553 37.8651H44.1641L44.5481 37.481L44.7017 36.1753V35.2537L44.4713 35.0233V34.7929L44.3177 34.7161L44.3945 34.5624L44.7017 34.7161V34.5624H44.5481L44.4713 34.332Z" fill="#1763C4"/>
<path d="M124.654 73.2715L125.114 73.3483L125.345 73.7323L125.268 74.2699L125.038 74.4236H124.5L124.346 74.2699L124.27 73.7323L124.5 73.3483L124.654 73.2715Z" fill="#333540"/>
<path d="M76.1897 73.502H77.265L77.3418 73.6556V74.3468H76.6505L76.7273 73.8092H75.0376L74.5 73.6556V73.5788L76.1897 73.502Z" fill="#333745"/>
<path d="M51.6886 51.9199H51.8422V55.4529H50.8438V55.3761L51.535 55.1457V54.0705L51.6118 52.9952V51.9967L51.6886 51.9199Z" fill="#1763C4"/>
<path d="M64.4375 97.9258L65.436 98.0794L66.2808 98.3098L67.5865 98.5402L68.4314 98.7706L70.2747 99.1547V99.2315H69.6602L64.5143 98.1562L64.4375 97.9258Z" fill="#1C66C3"/>
<path d="M0.459617 46.6973L0.613227 46.7741L0.766837 49.0782L0.843642 50.6911L0.690032 50.9215L0.536422 50.6143V49.539L0.382812 49.4622L0.459617 49.2318L0.382812 49.0782L0.459617 48.1566V47.5421L0.382812 47.1581V46.7741L0.459617 46.6973Z" fill="#1763C4"/>
<path d="M129.648 41.167L130.34 41.3974L130.877 41.8582V42.0118L131.185 42.1655L131.645 42.4727L131.799 42.7799L131.415 42.7031H131.338L132.029 43.3943L131.953 43.5479L129.648 41.2438V41.167Z" fill="#1964C3"/>
<path d="M101.074 73.3486L101.535 73.4254L101.765 73.7327V74.1935L101.535 74.4239H100.997L100.844 74.2703V73.579L101.074 73.3486Z" fill="#35333C"/>
<path d="M19.4321 46.083L19.5089 46.3134L19.2016 47.3887L18.7408 48.3104L18.4336 48.6176V48.0031L18.8176 46.8511H18.9712L19.1248 46.5438L19.2784 46.467L19.4321 46.083Z" fill="#1964C3"/>
<path d="M64.8242 37.9414L65.4387 38.0182L66.4371 38.4022L67.1284 38.9399L67.3588 39.1703L67.5124 39.4775V39.7847L67.666 39.8615V40.1687H67.4356L66.9748 39.3239L66.2835 38.6327L65.285 38.1718L64.8242 38.0182V37.9414Z" fill="#1B62BD"/>
<path d="M44.011 45.6221H44.0878V46.1597H41.0156L41.3228 46.0061L41.7837 45.9293L43.5502 45.7757L43.9342 45.6989L44.011 45.6221Z" fill="#1763C4"/>
<path d="M81.875 46.3906H88.0194V46.4674L82.259 46.5442L82.1054 46.621L82.0286 46.9283V49.5396H81.875V46.3906Z" fill="#1763C4"/>
<path d="M32.3359 45.0078H32.4127L32.4895 45.6991L32.6432 45.9295L32.8736 46.0063H38.1731L39.5556 46.0831V46.1599H32.3359V45.0078Z" fill="#1763C4"/>
<path d="M0.15493 52.5342H0.30854L0.385345 53.7631V54.9151L0.46215 55.376L0.615759 55.4528H0.078125V53.3022L0.15493 52.5342Z" fill="#1763C4"/>
<path d="M19.9706 51.9971V52.2275L18.9722 53.2259L17.8969 53.994L17.1289 54.378L16.8984 54.3012L17.5129 53.8404L18.1273 53.5332L18.8186 52.9955L19.3562 52.4579H19.5098V52.3043L19.9706 51.9971Z" fill="#1A65C3"/>
<path d="M93.7031 53.6094L93.9335 53.6862V53.8398H94.0871V53.9934L94.3944 54.0702V54.2238H94.548V54.3774H94.7016V54.531H94.8552V54.6846H95.0088V54.8383H95.1624V54.9919L95.3928 55.0687L95.5464 55.4527L95.1624 55.3759L93.9335 54.147L93.7031 53.8398V53.6094Z" fill="#1964C3"/>
<path d="M67.7422 72.4268H67.819L68.0494 74.0397L68.3566 74.1933L68.5102 73.8092H68.587V74.5005L68.5102 74.5773H67.7422V72.4268Z" fill="#34323A"/>
<path d="M133.179 62.9805H136.328V63.0573L135.33 63.1341L132.027 63.2109L131.566 63.4413V63.1341L131.797 63.0573L133.179 62.9805Z" fill="#1E67C2"/>
<path d="M60.9844 97.2354L61.6756 97.3122L63.0581 97.5426L64.1334 97.8498V97.9266H63.4421L61.0612 97.389L60.9844 97.2354Z" fill="#1A65C3"/>
<path d="M0.078125 34.332H2.7663V34.4088L1.15339 34.4856L0.385345 34.6393L0.231735 35.4073L0.078125 35.4841V34.332Z" fill="#1965C3"/>
<path d="M136.254 84.8691H136.331V86.7893H135.793L135.947 86.5588H136.1L135.947 86.0212L136.177 85.0996L136.254 84.8691Z" fill="#1763C3"/>
<path d="M51.7669 48.6943H51.8437V51.9201H51.6901L51.6133 51.6897L51.6901 48.7711L51.7669 48.6943Z" fill="#1D67C2"/>
<path d="M44.47 34.332H44.9308V37.0202H44.854L44.7772 35.3305L44.47 35.0233V34.7929L44.3164 34.7161L44.3932 34.5624L44.7004 34.7161V34.5624H44.5468L44.47 34.332Z" fill="#1C67C2"/>
<path d="M25.9609 53.9941H26.1145L26.345 55.0694L26.5754 55.2998L26.8826 55.4534H25.9609V53.9941Z" fill="#1763C4"/>
<path d="M137.633 49.1553L137.94 49.3089L138.324 49.5393L138.631 50.0001L139.015 50.3842L139.63 50.9218L139.937 51.229L140.014 51.5362L139.476 51.0754L137.633 49.2321V49.1553ZM140.014 51.3058L140.321 51.3826L140.398 51.5362L140.244 51.6898L140.014 51.3058Z" fill="#1E68C2"/>
<path d="M108.984 44.2393H109.061L109.138 45.6217L109.215 45.8522L109.368 45.929V46.0826H112.364V46.1594H108.984V44.2393Z" fill="#1763C4"/>
<path d="M41.4766 73.5791H43.1663L43.2431 74.1167L43.1663 74.424H42.3982L42.5518 74.2703H42.7822V74.1167H42.9359V73.9631H42.7822V73.6559H41.4766V73.5791Z" fill="#33323B"/>
<path d="M122.195 65.8223L122.503 65.8991L122.733 66.5903V67.4352L122.426 67.0511L122.195 66.2063V65.8223Z" fill="#353539"/>
<path d="M124.809 52.9189H124.885L125.039 54.1478V54.7623L124.962 55.2231L125.346 55.3767V55.4535H124.809V52.9189Z" fill="#1763C4"/>
<path d="M67.8944 42.0889L67.9712 42.3193H68.1248V43.1641L67.8944 43.7018L67.5872 44.3162H67.4336L67.664 43.5482L67.8176 43.0873L67.8944 42.0889Z" fill="#1763C4"/>
<path d="M14.668 63.0566H15.436V65.0536H15.3592L15.2056 63.5175L14.668 63.2103V63.0566Z" fill="#1763C4"/>
<path d="M140.707 52.2275L140.937 52.3043L141.475 52.9188L142.474 53.9172L142.627 53.9941V54.1477L142.934 54.3013L143.088 54.6085L142.781 54.4549L140.707 52.3811V52.2275Z" fill="#1E68C2"/>
<path d="M18.0478 48.7715V49.0019L17.6637 49.6931L17.3565 50.0772H17.2029V50.2308L16.3581 50.7684L16.2812 50.6148L16.9725 50.0772L17.6637 49.3091L18.0478 48.7715Z" fill="#1B66C3"/>
<path d="M124.885 46.3906H124.962L125.116 47.9267V48.3876L124.962 48.4644L124.809 48.6948V47.0051L124.885 46.3906Z" fill="#1763C3"/>
<path d="M39.1719 65.1309H40.0167L39.9399 65.3613H39.7095L39.3255 65.8221L39.2487 66.5902H39.1719V65.1309Z" fill="#343036"/>
<path d="M131.797 42.7803L132.181 42.9339L133.026 43.8555L133.563 44.3932V44.5468L133.794 44.6236L133.717 44.854L133.64 44.6236L133.333 44.5468V44.3932H133.179L132.949 44.0092L132.565 43.6251L132.181 43.3179L131.797 42.7803Z" fill="#1763C4"/>
<path d="M124.501 89.0938H124.731L124.654 89.3242L122.811 89.7082H122.273L122.504 89.5546L124.194 89.1706L124.501 89.0938Z" fill="#1C66C3"/>
<path d="M0.691352 54.3779H0.921767V54.6851L1.22899 54.762L1.3826 54.8388V54.9924L0.768157 55.0692L0.537742 54.9924L0.460938 54.6851L0.691352 54.3779Z" fill="#1763C4"/>
<path d="M33.7928 73.7324H33.8696V74.3469L33.7159 74.5005L32.8711 74.5773L32.9479 74.2701L33.3319 74.1933L33.7159 73.8092L33.7928 73.7324Z" fill="#34343E"/>
<path d="M78.4187 93.3184L78.726 93.3952L78.0347 93.6256L76.4986 93.9328L76.1914 93.856L76.6522 93.7024L78.4187 93.3184Z" fill="#1C67C2"/>
<path d="M90.4766 73.2715L90.6302 73.5787L90.707 74.1163L91.0142 74.2699L91.3982 74.3468L91.5518 74.2699L91.475 74.5772H90.7838L90.5534 74.1163L90.4766 73.8091V73.2715Z" fill="#353947"/>
<path d="M99.23 94.3936L99.5373 94.5472L99.0764 94.7008L97.6171 95.008L97.3867 94.9312L97.9244 94.7008L99.23 94.3936Z" fill="#1C66C3"/>
<path d="M122.352 72.1201H122.505L122.582 72.2737V72.8882L122.505 73.1186L122.198 73.1954L122.121 72.8114L122.352 72.1201Z" fill="#403D44"/>
<path d="M86.023 97.2354L86.407 97.3122V97.389L84.5637 97.773H83.9492L84.2564 97.6194L86.023 97.2354Z" fill="#1D67C2"/>
<path d="M76.1133 69.4316H77.3422V70.0461L77.2654 70.1997H76.6509V70.1229L77.0349 70.0461L76.9581 69.6621L76.8045 69.5853L76.1133 69.5084V69.4316Z" fill="#32394A"/>
<path d="M14.1328 38.0186L14.6704 38.0954L15.6689 38.4794L16.2065 38.8634L16.1297 39.017L14.9009 38.4026L14.1328 38.0954V38.0186Z" fill="#1C66C3"/>
<path d="M25.9609 34.9463L26.1145 35.1767L26.1914 35.4071V36.3288L26.0377 36.8664H25.9609V34.9463Z" fill="#1763C4"/>
<path d="M134.638 86.9434H135.098L135.022 87.097L133.639 87.4042H133.102L133.332 87.2506L134.638 86.9434Z" fill="#1C66C3"/>
<path d="M19.9697 51.9971V52.2275L18.9713 53.2259L18.6641 53.3796L18.8177 53.0723L19.8161 52.0739L19.9697 51.9971Z" fill="#1864C3"/>
<path d="M91.169 96.083H91.553L91.4762 96.3134L90.785 96.467H90.0938L90.1706 96.3134L91.169 96.083Z" fill="#1965C3"/>
<path d="M111.137 73.5791H111.982L111.905 74.3472H111.444L111.598 74.1935V73.7327L111.137 73.6559V73.5791Z" fill="#33343F"/>
<path d="M98.0039 53.3027L98.3111 53.4563L99.0792 54.2244V54.378L98.772 54.2244L98.5415 54.0708V53.9172H98.3879V53.7636H98.2343V53.61H98.0807L98.0039 53.3027Z" fill="#1B66C3"/>
<path d="M14.3606 51.5361H15.0518V51.6897L13.9766 51.997V51.6897L14.3606 51.5361Z" fill="#1A65C3"/>
<path d="M86.8682 91.5518L87.1755 91.6286L86.7914 91.859L85.9466 91.9358L85.793 91.7822L86.8682 91.5518Z" fill="#1C66C3"/>
<path d="M65.7434 74.2705L66.4346 74.3473V74.5777H65.3594L65.4362 74.3473L65.7434 74.2705Z" fill="#353B4B"/>
<path d="M69.4297 36.7129L69.7369 36.8665L70.1977 37.6345L70.1209 37.7882L69.8137 37.4809V37.3273H69.6601L69.4297 36.8665V36.7129Z" fill="#1B66C3"/>
<path d="M42.5508 34.332H44.0869V34.4856L44.3173 34.5624L43.1652 34.4856L42.5508 34.4088V34.332Z" fill="#1763C4"/>
<path d="M93.703 95.5449H94.1638V95.6985L93.6262 95.8521H93.0117L93.0885 95.6985L93.703 95.5449Z" fill="#1964C3"/>
<path d="M102.534 53.3027L102.687 53.4563V54.5316L102.534 54.8388L102.457 54.4548V53.5331L102.534 53.3027Z" fill="#1C66C3"/>
<path d="M10.7539 86.252H10.9843L11.0611 86.5592L11.4452 86.7128L11.522 86.8664L10.7539 86.7128V86.252Z" fill="#1965C3"/>
<path d="M50 65.207H50.9217V65.3606L50.0768 65.5911L50 65.207Z" fill="#343036"/>
<path d="M109.061 43.2412H110.444V43.318L109.368 43.3948L109.138 43.4716L109.061 43.8557H108.984V43.318L109.061 43.2412Z" fill="#1763C4"/>
<path d="M48.3086 54.3008H48.3854L48.4622 55.0688L48.6158 55.2992L49.1534 55.376V55.4529H48.3086V54.3008Z" fill="#1763C4"/>
<path d="M71.3516 53.7637L71.6588 53.8405L72.1964 54.3781L72.1196 54.6085V54.4549L71.8124 54.3013L71.3516 53.9173V53.7637Z" fill="#1B66C3"/>
<path d="M64.8242 37.9414L65.4387 38.0182L66.1299 38.3254V38.5558L65.285 38.1718L64.8242 38.0182V37.9414Z" fill="#1D67C2"/>
<path d="M73.5781 73.9629L73.7317 74.1933L74.423 74.3469V74.4237L73.5781 74.5773V73.9629Z" fill="#33353A"/>
<path d="M64.4375 97.9258L65.436 98.0794L65.5128 98.233H64.8983L64.4375 98.0794V97.9258Z" fill="#1A65C3"/>
<path d="M82.7968 92.3965H83.2576V92.5501L82.3359 92.7805L82.4895 92.4733L82.7968 92.3965Z" fill="#1965C3"/>
<path d="M37.2486 74.1934L37.4022 74.347L37.8631 74.4238V74.5774H37.0182L36.9414 74.4238L37.2486 74.1934Z" fill="#32425C"/>
<path d="M30.875 69.3545H31.1822V70.2762L30.9518 70.1993L31.0286 69.5081H30.875V69.3545Z" fill="#32435E"/>
<path d="M94.0859 39.1709L94.3932 39.3245L94.7004 39.9389V40.0926H94.5468L94.0859 39.3245V39.1709Z" fill="#1E67BA"/>
<path d="M70.9674 74.1172L71.5051 74.2708L71.4283 74.5012H70.8906L70.9674 74.1172Z" fill="#343036"/>
<path d="M128.496 88.249L129.034 88.3258V88.4026L128.035 88.5562L128.112 88.3258L128.496 88.249Z" fill="#1D67C2"/>
<path d="M107.988 65.207H108.833L108.756 65.3606L108.296 65.4374H107.988V65.207Z" fill="#343036"/>
</svg>
