<svg width="301" height="134" viewBox="0 0 301 134" fill="none" xmlns="http://www.w3.org/2000/svg">
<path d="M195.478 52.5391H196.993L198.002 53.2121L198.843 54.5581L199.18 55.9042L199.685 65.4948V68.5234L201.199 69.0281L206.078 71.3837L210.117 73.571L213.818 75.9266L217.015 78.2822L219.202 80.133L220.548 81.3108L222.904 83.6664L224.755 86.022L226.437 88.5458L227.783 91.4062L228.457 93.5935L228.793 95.4443V99.3142L228.12 102.343L226.774 105.371L226.437 105.876L234.345 105.708L235.86 104.698L237.711 104.362L239.393 104.867L240.403 106.044L240.571 107.054L240.066 108.063L237.374 110.083L235.523 111.933L233.841 114.457L232.663 116.981L232.158 118.495L231.99 119.337V120.514L232.495 122.029L233.504 123.206L234.682 123.711H237.038L239.225 122.87L241.076 121.524L242.422 120.178L243.095 118.495V116.14L242.422 114.457L240.571 112.438L239.898 111.26L240.066 109.914L240.739 108.905L242.085 108.063L243.936 107.727L249.657 107.054L251.003 106.381L252.854 104.698L255.377 102.848L258.911 100.997L262.444 99.8189L265.305 99.3142H269.174L271.867 99.9872L273.549 100.828L274.39 101.838L274.559 102.175V103.689L274.054 104.53L273.381 104.867H271.362L269.174 104.362H266.651L263.79 104.867L259.247 106.381L256.892 107.39L256.387 108.063L256.555 108.905L257.397 109.746L259.416 110.587L264.295 112.27L267.828 113.952L269.847 115.467L271.025 116.813L271.698 118.159L271.867 119.673L271.362 121.356L270.016 123.038L268.838 124.216L266.314 126.067L263.622 127.413L261.771 127.918L259.92 127.749L258.743 126.908L258.238 125.899V124.384L259.079 123.375L263.285 121.86L265.136 120.851L266.482 119.841L266.651 119.505V118.495L265.473 117.654L261.266 116.14L257.228 114.625L254.031 113.111L252.349 112.27H250.835L249.488 112.438H247.133L248.142 115.298L248.311 116.14V119L247.638 121.187L246.965 122.533L245.787 124.048L244.104 125.73L241.749 127.245L239.057 128.422L237.206 128.927H234.009L231.485 128.086L229.634 126.74L228.625 125.562L227.783 123.88L227.279 121.187L227.447 118.495L228.12 115.635L229.298 112.438L229.803 111.26L221.726 112.102L220.885 112.438L216.847 116.14L212.136 120.178L209.275 122.365L206.752 124.216L203.386 126.403L199.853 128.422L195.983 130.273L191.945 131.788L187.57 133.134L185.551 133.47H184.037L182.523 133.134L180.672 131.956L179.662 130.441L179.326 129.6L179.158 128.422V126.908L179.662 124.553L180.672 122.87L182.186 121.187L184.542 119.337L187.739 117.486L191.272 115.803L195.478 114.121V113.784L194.637 113.111L194.132 112.102V110.083L194.637 99.4824L195.142 85.1807V71.7202L193.628 71.0472L190.431 69.8694L185.72 68.3551L180.672 67.0091L174.278 65.663L170.577 64.99L169.735 64.317L169.23 63.1392L169.399 61.6249L170.072 60.7836L170.913 60.4471H173.437L177.138 60.9519L181.513 61.9614L189.926 64.6535L194.301 66.1678L194.974 66.5043L194.301 58.9328L193.964 56.0724V54.3899L194.469 53.3803L195.478 52.5391Z" fill="#3A2B99"/>
<path d="M59.3562 50.3516H66.5912L72.4802 50.8563L79.7152 51.8659L84.7628 52.7071L86.6136 51.5294L87.6232 51.0246H88.4645L89.3057 51.8659L90.147 53.5484V53.8849L92.1661 54.0532L104.617 56.0723L114.039 57.4183L116.563 57.5866H119.087L122.957 57.2501H124.135L125.312 57.9231L125.985 59.1009L126.154 60.6152L125.649 61.793L124.639 62.6342L123.462 62.9707L120.601 63.3073H116.058L111.684 62.8025L110.169 69.028L108.992 74.9169L107.982 81.4789L107.309 87.3678L106.804 93.5933L106.468 100.997V108.736L107.982 105.203L109.665 101.838L112.02 97.968L113.871 95.9489L115.554 95.1076H117.404L118.75 95.9489L119.76 97.6314L120.433 99.6505L121.106 104.53L121.779 110.082L122.284 112.774L123.125 114.962L124.135 116.308L125.144 116.813H127.5L128.005 116.476L126.827 112.943L126.49 110.924V108.232L126.322 107.222L126.995 106.044L127.836 105.203L129.351 102.006L131.201 99.6505L132.547 98.3045L134.23 97.1267L136.586 95.9489L139.109 95.1076L140.792 94.7711H142.811L144.83 95.4441L146.008 96.4537L146.849 97.968L147.186 99.314V102.343L146.513 104.193L145.335 106.381L143.989 108.063L142.306 109.578L139.782 110.924L137.595 111.597L135.576 111.933L132.379 112.101L132.884 113.616L133.557 114.625L134.567 115.298L135.576 115.635H138.268L140.624 114.962L143.484 113.447L145.335 112.101L147.522 110.251L148.7 109.073L150.046 107.39L151.224 107.054L152.738 107.559L153.748 108.736L153.916 109.073V110.587L153.243 111.933L151.56 114.121L149.205 116.476L146.681 118.327L143.148 120.178L140.624 121.019L137.763 121.524H135.744L133.389 121.019L132.379 120.682L130.024 122.029L128.341 122.702L127.5 122.87H125.312L122.62 122.029L120.77 120.851L119.087 118.832L117.573 115.635L116.563 112.27L115.89 108.905L115.217 104.025L112.525 109.409L110.674 113.279L108.655 117.317L107.309 118.832L105.963 119.505H104.617L103.607 118.832L102.598 117.654L101.757 115.467L101.084 111.428L100.747 106.381V99.314L101.084 92.5838L101.757 85.0123L102.598 78.282L103.607 72.3931L104.785 67.1771L106.3 62.1295L98.7281 61.1199L91.6613 59.9421L90.82 59.7739L91.4931 68.0184L91.8296 74.7487L91.9978 85.6853L91.8296 91.2377L91.3248 98.1362L90.6518 103.184L89.6422 108.063L88.6327 111.597L87.2867 115.298L85.6041 118.495L83.9216 120.851L81.3977 123.375L80.5564 123.879H79.0421L77.5278 122.87L77.0231 122.029L76.8548 120.682L77.3596 119.336L79.2104 117.99L80.5564 116.476L81.9025 114.289L83.2485 111.428L84.4263 107.727L85.2676 103.689L85.9406 98.9775L86.2771 95.1076L86.4454 92.079V77.1042L85.9406 67.5137L85.4359 60.9517V58.7644L79.2104 57.7548L70.9659 56.577L66.2547 56.0723L63.2261 55.904H60.0292L57.0006 56.2405L55.6546 56.7453L55.8228 57.5866L57.3371 59.1009L59.861 60.7834L62.3848 62.1295L66.5912 63.9803L67.9373 64.6533L68.6103 65.8311V67.1771L67.769 68.5232L66.5912 69.1962L65.2452 69.3645L61.207 68.0184L58.1784 66.6724L55.4863 64.9898L53.8038 63.6438L51.953 61.9612L50.4386 59.9421L49.7656 58.2596V55.904L50.4386 54.0532L51.6164 52.7071L52.9625 51.6976L54.9816 50.8563L57.1689 50.5198L59.3562 50.3516Z" fill="#00A3D4"/>
<path d="M34.7926 0.546875L34.9609 0.883387L32.7736 5.42629L30.0815 11.4835L27.5576 17.5407L25.2021 23.5979L23.0147 29.6551L22.6782 31.1694L24.3608 32.6837L26.0433 34.3663L27.3894 35.5441L29.0719 37.0584L30.9228 38.5727L33.7831 40.9283L37.1482 43.4521L39.6721 45.3029L46.234 49.6776L48.5896 51.1919L48.2531 51.3601L43.8785 49.5093L38.326 46.8172L35.4657 45.3029L31.5958 42.9473L28.2307 40.5918L26.0433 38.9092L24.1925 37.3949L21.837 35.3758L21.3322 34.8711L19.8179 39.414L17.6306 47.1537L15.4432 55.903L13.5924 64.6523L12.0781 73.5699L10.9003 82.1509L10.059 90.9002L9.55428 98.8083L9.38602 102.846V118.999L9.89079 128.758L10.059 131.113V133.132L9.72253 132.459L8.54474 127.412L7.1987 120.345L6.18916 113.615L5.51614 107.558L5.01137 100.659L4.84311 96.2844V88.0399L5.17963 80.6366L6.0209 72.0556L7.1987 64.3158L8.713 56.7443L10.5638 49.5093L12.5829 42.9473L14.602 37.2266L17.1258 31.0012L16.7893 30.3282L15.275 28.4773L13.4242 26.29L11.2368 23.2614L9.21776 20.2328L7.1987 16.8677L4.84311 12.493L2.31928 6.9406L0.636719 2.7342L0.804975 2.22943L3.16056 6.26757L5.34788 9.80094L7.87172 13.5026L9.55428 15.8582L12.2464 19.3915L14.4337 22.0836L16.4528 24.4392L17.9671 26.1218L18.8083 27.1313L22.3417 20.0645L24.529 16.1947L26.8846 12.1565L28.9037 8.95967L30.2497 6.9406L32.1006 4.2485L34.2879 1.2199L34.7926 0.546875Z" fill="#00A3D4"/>
<path d="M199.85 73.5703L203.047 75.0846L207.253 77.4402L211.291 80.1323L214.488 82.4879L216.844 84.5069L218.526 86.0212L221.05 88.5451L222.732 91.0689L223.742 93.5928L224.079 95.4436V97.7991L223.405 100.659L222.059 103.352L220.882 105.202L219.367 107.053L218.863 107.558L208.262 110.25L200.859 112.437L198.672 113.11V111.091L199.345 96.7896L199.681 84.5069L199.85 73.5703Z" fill="#FEFFFF"/>
<path d="M24.0249 42.4414L24.6979 42.7779L27.2217 45.1335L30.0821 47.9938L31.5964 49.8447L33.6154 52.3685L36.3075 56.4066L37.9901 59.4352L39.3361 62.1273L41.0187 66.3337L42.3647 70.7084L43.3743 75.4195L43.879 79.6259L44.0473 82.4863V85.6831L43.7108 90.2261L43.0378 94.6007L42.0282 98.8071L40.8504 102.677L39.1679 106.715L37.4853 110.248L35.8028 113.109L34.1202 115.633L32.6059 117.652L31.0916 119.503L29.5773 121.185L27.5582 123.372L25.8757 124.887L23.1836 127.074L20.828 128.757L17.7994 130.607L13.9295 132.627L12.4152 133.3H11.7422V118.325L13.0882 117.82L16.6216 116.642L20.4915 114.623L22.8471 112.941L25.0344 111.09L27.5582 108.566L29.7456 105.706L31.7646 102.677L33.1107 100.321L34.7932 96.6198L36.3075 92.4134L37.4853 87.7022L38.1583 83.6641L38.4949 79.6259V74.5783L37.9901 69.6988L37.1488 65.3242L35.8028 60.7813L34.2885 57.0797L32.9424 54.3876L31.2599 51.359L28.9043 47.9938L27.0535 45.8065L25.5392 44.124L24.0249 42.6097V42.4414Z" fill="#3A2B99"/>
<path d="M286.502 102.004H289.362L291.045 102.509L292.559 103.518L293.568 104.864L294.073 106.547V108.061L293.568 110.08L292.222 112.772L290.876 114.455L289.194 115.969L286.502 117.315L284.146 117.988L280.613 118.325H279.098L279.435 120.007L280.276 121.353L281.791 122.363L283.305 122.699H284.651L287.006 122.195L289.026 121.353L291.381 120.007L293.064 118.661L295.083 116.81L296.765 114.96L297.607 114.118L299.121 114.287L300.299 115.296L300.635 115.969V117.315L299.457 119.166L297.438 121.353L295.588 123.036L292.895 124.887L290.54 126.233L287.511 127.242L285.66 127.579H282.127L280.108 127.074L278.425 126.233L276.575 124.55L275.397 122.699L274.556 120.68L274.219 118.998V115.633L274.051 114.96V113.782L274.724 112.436L276.406 109.407L277.752 107.556L279.267 105.874L280.781 104.528L282.968 103.182L285.66 102.172L286.502 102.004Z" fill="#3A2B99"/>
<path d="M175.623 91.5742L177.643 91.7425L178.989 92.4155L180.166 93.5933L181.008 95.2758V96.9584L179.83 98.3045L178.82 98.8092L177.811 98.641L175.96 97.6314L174.782 97.4632L173.268 97.9679L171.417 99.314L169.062 101.67L167.042 104.53L165.192 108.4L164.519 111.092L164.35 116.981L163.677 117.99L162.836 118.663L162.5 118.832H160.985L159.976 118.327L159.134 117.317L158.966 116.813L158.798 111.765L158.461 109.073L157.788 106.885L156.779 105.371L155.769 104.53L154.592 104.025L153.75 103.857L150.722 103.689L149.712 103.016L149.039 102.006L149.207 100.492L150.049 99.1457L150.89 98.4727L152.068 98.1362H154.423L156.947 98.641L158.966 99.6505L160.985 101.501L161.827 102.679H162.163L163.677 100.155L165.192 98.3045L166.706 96.6219L168.388 94.9393L171.081 93.0885L173.268 92.079L175.623 91.5742Z" fill="#00A3D4"/>
<path d="M16.4545 3.91016L18.3053 4.07841L19.8196 4.75144L21.1657 5.76097L22.3435 7.61178L22.68 8.78957V11.3134L22.0069 13.1642L20.9974 14.5103L19.4831 15.6881L17.9688 16.1928H15.7815L13.7624 15.3516L12.4164 14.1738L11.5751 12.8277L11.0703 11.1452V8.95783L11.7433 7.10702L12.4164 6.09748L13.5941 4.91969L15.445 4.07841L16.4545 3.91016Z" fill="#3A2B99"/>
<path d="M208.937 115.465L209.61 115.633L206.413 117.82L203.384 119.839L199.851 122.027L194.971 124.719L189.756 127.074L185.717 128.421H184.708L184.203 128.084V127.074L185.549 125.224L187.905 123.373L191.606 121.354L194.803 119.839L199.178 118.157L204.057 116.643L208.095 115.633L208.937 115.465Z" fill="#FEFFFF"/>
<path d="M287.681 106.715L288.859 106.883L289.027 107.051V108.229L288.186 109.912L286.84 111.426L285.157 112.436L283.306 113.109L281.624 113.277L280.109 112.94L281.119 111.258L282.633 109.575L283.979 108.397L285.83 107.388L287.681 106.715Z" fill="#FEFFFF"/>
<path d="M139.952 100.492H141.13L141.803 101.165L141.466 102.343L139.952 104.026L138.606 105.035L136.923 105.876L135.409 106.381H133.895L133.727 105.708L134.736 104.194L136.25 102.68L138.606 100.997L139.952 100.492Z" fill="#FEFFFF"/>
</svg>
