<svg width="301" height="36" viewBox="0 0 301 36" fill="none" xmlns="http://www.w3.org/2000/svg">
<path d="M0.636719 0.578125H37.5507L41.3593 2.48242L43.1171 3.80077L44.1425 4.82616L45.1679 6.291L46.0468 8.04881L46.6327 10.3926V12.1504L46.1933 14.0547L45.1679 16.1054L43.996 17.5703L42.3847 19.1816L40.4804 20.5L39.748 20.9394L40.4804 22.2578L41.9452 24.1621L43.8495 26.9453L45.3144 28.8495L47.0722 31.3398L49.1229 34.123L49.8554 35.1484V35.4413H0.636719V0.578125Z" fill="#028EDA"/>
<path d="M19.8262 3.94531H36.5254L38.8691 4.9707L40.6269 6.14257L41.2128 6.58203V6.87499H41.5058L42.6777 8.48632L43.1171 9.65819L43.2636 11.5625L42.9707 13.0273L42.0917 14.6386L40.7734 16.1035L39.1621 17.2754L37.4043 18.1543L34.914 18.8867L34.0351 19.1797L35.207 20.6445L37.1113 23.2812L38.5761 25.332L40.4804 27.9687L42.2382 30.4589L43.1171 31.7773L36.8183 31.9238H32.2773V35.4394H28.1758V31.7773H19.8262L19.6797 31.6308V4.0918L19.8262 3.94531Z" fill="#FEFEFE"/>
<path d="M16.1641 0.578125H37.5507L41.3593 2.48242L43.1171 3.80077L44.1425 4.82616L45.1679 6.291L46.0468 8.04881L46.6327 10.3926V12.1504L46.1933 14.0547L45.1679 16.1054L43.996 17.5703L42.3847 19.1816L40.4804 20.5L39.748 20.9394L40.4804 22.2578L41.9453 24.1621L43.8495 26.9453L45.3144 28.8495L47.0722 31.3398L49.123 34.123L49.8554 35.1484V35.4413H32.2773V31.9257L42.9706 31.6327L41.2128 29.289L39.3085 26.5058L37.5507 24.1621L35.7929 21.6718L34.4746 19.914L33.8886 19.0351L37.4042 18.0097L39.455 16.9843L40.9199 15.8125L41.9453 14.6406L42.9706 12.5898L43.1171 10.832L42.8242 9.0742L41.9453 7.60936L41.5058 7.16991V6.87694H41.2128V6.58397L40.6269 6.291L38.5761 4.97265L36.5253 4.09374H19.8262V31.6327L28.1758 31.7792V35.4413H16.3105L16.1641 28.4101V0.578125Z" fill="#81B91A"/>
<path d="M37.5508 0.578125H38.4297L40.7734 1.16406L43.2637 1.75L45.7539 2.6289L48.0976 3.80077L50.2949 5.11913L51.6132 6.14452L53.0781 7.46287L54.5429 8.92772L56.1543 11.2715L57.3261 13.6152L58.205 15.9589L58.6445 18.0097V22.8437L57.9121 25.9199L56.7402 28.5566L55.4218 30.6074L54.1035 32.0722L53.3711 32.8046L51.9062 34.123L50.0019 35.2948L49.2695 34.5624L47.2187 31.7792L45.4609 29.289L43.4101 26.5058L41.6523 24.0156L40.041 21.8183L39.6016 20.9394L40.9199 20.0605L42.5312 18.8886L44.289 17.1308L45.6074 15.08L46.3398 13.0293L46.4863 12.1504V10.3926L45.9004 8.04881L44.875 5.99803L43.5566 4.38671L42.2383 3.21484L40.334 2.04297L37.6973 0.871093L37.5508 0.578125Z" fill="#028EDA"/>
<path d="M26.2715 5.70312H31.5449L31.6914 5.84961V10.5371H36.5254L36.6718 10.6836V16.25L36.5254 16.3965H31.6914L31.8379 19.3261V21.0839H26.125V16.5429L24.9531 16.3965L21.4375 16.25V10.5371L26.125 10.3906L26.2715 5.70312Z" fill="#028EDA"/>
<path d="M0.636719 19.6211L0.929687 20.0605L1.80859 23.1367L2.98046 25.4805L4.29882 27.5312L5.91014 29.289L7.2285 30.6074L9.86521 32.5117L12.9414 34.123L15.8711 35.2949V35.4414H0.636719V19.6211Z" fill="#FEFEFE"/>
<path d="M124.123 11.5625H124.562V23.1347L125.734 23.5742L125.588 24.1601H122.072V22.8418L120.314 24.1601L119.729 24.4531L118.41 24.3066L117.092 23.4277L116.359 22.2558L116.066 21.3769V19.6191L116.652 18.0078L117.678 16.9824L119.582 15.957H121.34L122.219 16.25L122.072 13.6133L121.926 13.1738L120.9 13.0273L120.607 12.5879L123.244 11.8555L124.123 11.5625Z" fill="#028EDA"/>
<path d="M295.215 11.5625H295.508V23.1347L296.68 23.5742V24.1601L296.24 24.3066L293.018 24.1601L293.164 22.6953L291.26 24.1601L290.674 24.4531L289.502 24.3066L288.33 23.7207L287.451 22.5488L287.012 21.2304V19.7656L287.305 18.5937L287.891 17.7148L289.355 16.543L290.527 15.957H292.285L293.164 16.25L293.018 13.0273H291.846V12.4414L295.215 11.5625Z" fill="#028EDA"/>
<path d="M66.9941 12.1484H69.1914L71.3887 12.4414L72.2676 13.0273L72.8535 14.0527V15.6641L72.1211 16.8359L70.3633 18.1543L71.9746 20.498L73.7324 22.9883L74.7578 23.7207L74.6113 24.1601H71.3887L70.2168 22.5488L69.1914 20.9375L67.5801 18.5937L67.2871 18.0078L69.0449 17.5683L69.7773 16.9824L70.2168 16.25L70.3633 15.0781L69.9238 13.9062L68.8984 13.3203L66.8476 13.1738V21.5234L66.9941 23.2812L68.166 23.4277L68.3125 24.0136L68.166 24.1601H62.7461L62.8926 23.4277L64.0645 23.2812V13.1738L62.8926 13.0273L62.7461 12.4414L62.8926 12.2949L66.9941 12.1484Z" fill="#028EDA"/>
<path d="M0.636719 0.578125H15.5781L15.4316 0.871093L12.7949 1.60351L10.1582 2.77539L8.54686 3.65429L6.49608 5.11913L5.76366 5.85155H5.47069V6.14452L4.73827 6.87694L3.41992 8.48826L2.10156 10.832L1.36914 12.8828L0.783203 15.08H0.636719V0.578125Z" fill="#FEFEFE"/>
<path d="M239.26 12.1484L242.336 12.2949L243.654 12.7344L244.387 13.6133L244.68 14.1992V15.6641L243.947 17.1289L242.775 18.1543L241.75 18.5937H239.699L239.406 18.3008L239.553 17.7148L241.164 17.4219L241.75 16.8359L242.043 15.8105L241.896 14.3457L241.311 13.6133L240.725 13.3203H238.967L238.82 14.0527V23.2812L240.432 23.4277L240.578 24.1601H234.719V23.5742L235.744 23.2812H236.037V13.1738L234.865 13.0273L234.719 12.2949L239.26 12.1484Z" fill="#028EDA"/>
<path d="M205.713 15.957H206.152V17.2754L207.91 15.957H209.814L210.986 16.543L211.572 17.8613V23.2812L212.598 23.4277L212.744 24.0137L212.598 24.1601H209.082V18.5937L208.643 17.8613L207.91 17.5684L207.031 17.7148L206.445 18.1543H206.152L206.299 23.1347L207.471 23.5742V24.1601H202.637L202.783 23.4277L203.809 23.2812V17.7148L202.637 17.2754L202.783 16.543L205.273 16.1035L205.713 15.957Z" fill="#028EDA"/>
<path d="M139.797 12.2969H145.656V13.0293L144.191 13.3223V23.1367L148.439 22.9902L148.732 21.3789L148.879 21.0859L149.611 20.9394L149.465 23.4297L149.318 24.1621L148.879 24.3086H143.898L140.529 24.1621L140.676 23.5761L141.262 23.2832L141.408 19.6211V15.666L141.262 13.3223L139.943 12.8828L139.797 12.2969Z" fill="#028EDA"/>
<path d="M270.02 12.2969H275.732V13.0293L275.439 13.1758H274.268V22.8437L274.414 23.1367L277.93 22.9902L278.516 22.8437L278.955 21.2324L279.248 20.9394L279.834 21.0859L279.541 24.0156L279.395 24.1621L278.223 24.3086H273.828L270.605 24.1621L270.752 23.5761L271.484 23.2832V13.3223L270.166 13.0293L270.02 12.2969Z" fill="#028EDA"/>
<path d="M109.768 15.957H111.965L113.137 16.543L113.723 17.4219V23.2812L114.748 23.4277L114.895 24.0137L114.748 24.1601H111.525V22.9883L109.621 24.3066L109.328 24.4531H108.449L107.57 23.8672L107.131 23.4277L106.984 22.9883V21.6699L107.424 20.6445L108.596 19.9121L111.379 19.1797L111.525 18.8867L111.086 17.8613L110.646 17.4219L109.328 17.2754L108.742 17.4219L108.449 18.3008L107.717 18.0078L107.57 17.4219L108.303 16.6895L109.768 15.957Z" fill="#028EDA"/>
<path d="M87.209 15.957H89.4062L90.4316 16.543L91.164 17.4219V23.2812L92.1894 23.4277V24.1601L91.6035 24.3066L88.9668 24.1601V23.1347L88.3809 23.4277L87.0625 24.3066L85.8906 24.4531L84.8652 23.8672L84.4258 22.9883V21.3769L84.8652 20.6445L86.0371 19.9121L88.8203 19.1797V18.3008L88.2344 17.5684L87.6484 17.2754H86.7695L86.1836 17.4219L85.8906 18.1543H85.3047L85.0117 17.4219L85.7441 16.6895L87.209 15.957Z" fill="#028EDA"/>
<path d="M166.75 15.957H168.801L169.973 16.543L170.705 17.4219L171.145 18.5937V19.7656L170.705 20.0586L168.654 20.2051H165.725L166.457 21.9629L167.482 22.8418H169.826L170.266 22.5488L170.852 22.6953L170.559 23.4277L169.826 24.0137L168.801 24.3066H166.311L165.285 23.8672L164.26 22.9883L163.674 21.8164L163.527 21.2305V19.0332L163.967 17.8613L164.992 16.8359L166.75 15.957Z" fill="#028EDA"/>
<path d="M224.758 15.957H226.809L227.98 16.543L228.713 17.4219L229.152 18.8867L229.006 19.7656L228.566 20.0586L226.809 20.2051H223.732L224.465 22.1094L225.49 22.8418H227.687L228.273 22.5488L228.859 22.6953L228.566 23.4277L227.687 24.0137L226.809 24.3066L225.197 24.4531L223.439 24.0137L222.121 22.8418L221.535 21.3769V18.8867L221.975 17.8613L222.707 16.9824L224.758 15.957Z" fill="#028EDA"/>
<path d="M197.219 15.957H199.27L200.441 16.543L201.174 17.4219L201.613 18.5937V19.7656L201.027 20.0586L199.416 20.2051H196.193L196.926 21.9629L197.951 22.8418H200.295L200.734 22.5488L201.32 22.6953L201.027 23.4277L200.148 24.0137L198.684 24.4531L196.779 24.3066L195.314 23.5742L194.436 22.4023L193.996 21.2305V19.1797L194.582 17.7148L195.607 16.6895L197.219 15.957Z" fill="#028EDA"/>
<path d="M78.8594 15.957H80.9101L82.082 16.543L82.8144 17.4219L83.1074 18.1543V19.7656L82.8144 20.0586L80.6172 20.2051H77.834L78.5664 21.9629L79.2988 22.6953L79.5918 22.8418H81.789L82.375 22.5488H82.9609L82.668 23.4277L81.4961 24.1601L80.9101 24.3066H78.4199L77.1016 23.7207L76.0762 22.5488L75.6367 21.3769V19.0332L76.0762 17.7148L77.248 16.6895L78.8594 15.957Z" fill="#028EDA"/>
<path d="M129.982 15.957H131.887L133.352 16.6895L134.084 17.7148L134.23 18.3008V19.7656L133.791 20.0586L131.887 20.2051H128.957L129.543 21.8164L130.275 22.5488L130.715 22.8418H132.912L133.645 22.5488H134.084L133.791 23.2812L132.912 24.0137L132.033 24.3066H129.543L128.371 23.8672L127.346 22.8418L126.76 21.3769L126.613 19.7656L127.053 18.0078L127.932 16.9824L129.982 15.957Z" fill="#028EDA"/>
<path d="M161.186 11.5625H162.504L162.797 11.709L162.65 14.0527L161.918 13.7598L161.039 13.3203L160.16 13.4668L159.867 13.7598L159.721 16.543L162.064 16.3965L162.211 16.9824L162.064 17.8613H160.746L159.721 17.7148L159.867 23.2812L161.479 23.4277L161.625 24.0136L161.479 24.1601L160.014 24.3066H156.645L156.205 24.1601V23.4277L157.377 23.1347L157.523 17.7148L156.645 18.0078H156.059L156.205 17.4219L156.937 16.8359L157.377 16.543L157.523 14.4922L159.135 12.8809L160.307 12.002L161.186 11.5625Z" fill="#028EDA"/>
<path d="M96.4355 11.5625L96.875 11.709V23.1347L97.0215 23.2812L98.0469 23.4277L98.1933 24.0136L98.0469 24.1601H93.0664L93.2129 23.4277L94.3848 23.1347V13.1738L93.2129 12.8809V12.2949L94.2383 12.002L96.4355 11.5625Z" fill="#028EDA"/>
<path d="M174.662 15.957H177.299L178.324 16.3965L178.178 18.4473H177.592L177.006 17.1289L176.127 16.8359L175.102 16.9824L174.369 17.2754V18.3008L175.541 18.8867L177.885 19.4726L178.617 20.0586L178.91 20.9375V22.1094L178.471 22.9883L177.445 23.8672L175.687 24.4531L173.93 24.3066L172.465 23.8672V21.6699L172.611 21.3769H173.197L173.637 22.8418L174.516 23.2812H176.127L176.859 22.6953V21.9629L176.127 21.3769L173.93 20.791L173.051 20.2051L172.611 19.7656L172.465 19.3262V18.0078L173.051 16.8359L174.223 16.1035L174.662 15.957Z" fill="#028EDA"/>
<path d="M245.117 15.957H249.658V16.6895L248.486 17.1289L249.365 19.6191L250.098 21.3769L250.244 21.5234L251.855 17.8613L252.002 16.9824L250.977 16.6895L251.123 15.957H254.492L254.639 16.3965L254.199 16.8359L253.467 17.2754L251.709 20.9375L250.537 23.7207L250.098 24.1601H248.633L247.754 21.8164L246.289 18.1543L245.85 17.2754L244.971 16.543L244.824 16.1035L245.117 15.957Z" fill="#028EDA"/>
<path d="M283.498 13.1758H284.084L283.791 16.5449H286.135L285.988 17.4238L285.842 17.5703H283.791L283.937 22.4043L284.377 22.6972H285.695L285.549 23.2832L284.816 24.1621L284.23 24.4551H283.205L282.033 23.8691L281.594 23.2832V17.5703H280.568L280.422 17.1309L281.301 16.6914H281.594V14.0547L283.498 13.1758Z" fill="#028EDA"/>
<path d="M258.008 13.1758H258.447L258.301 15.959L258.154 16.5449H260.645L260.498 17.4238L260.352 17.5703L258.301 17.7168V21.8183L258.594 22.5508L258.74 22.6972H260.205L259.912 23.4297L258.74 24.4551H257.715L256.689 24.0156L256.104 23.4297L255.957 22.8437V17.7168L254.932 17.5703L254.785 17.1309L255.957 16.5449V14.2012L256.543 13.7617L258.008 13.1758Z" fill="#028EDA"/>
<path d="M183.594 15.957H185.791L186.67 16.25V17.4219L186.377 18.8867L185.645 19.0332L185.498 18.3008L185.205 17.5684L184.473 17.2754H183.447L182.568 18.0078L182.275 19.1797L182.422 20.791L183.154 22.2558L184.033 22.8418H186.816L186.67 23.4277L185.937 24.0137L184.473 24.4531H183.447L181.836 24.0137L180.811 23.1347L180.078 21.6699V19.0332L180.811 17.7148L182.275 16.6895L183.594 15.957Z" fill="#028EDA"/>
<path d="M102.588 15.957H104.785L105.664 16.25L105.371 18.8867L104.639 19.0332L104.199 17.7148L103.467 17.2754H102.441L101.562 17.8613L101.27 18.7402V20.2051L101.709 21.6699L102.295 22.4023L103.027 22.8418H105.664L105.518 23.5742L104.639 24.1601L103.467 24.4531L101.562 24.3066L100.391 23.7207L99.3652 22.5488L98.9258 21.084V19.7656L99.2187 18.5937L100.098 17.4219L102.002 16.25L102.588 15.957Z" fill="#028EDA"/>
<path d="M217.143 15.957H219.193L220.072 16.25L219.926 18.1543L219.633 19.0332L219.047 18.8867L218.754 17.7148L218.021 17.2754H216.996L216.117 17.7148L215.824 18.3008V20.6445L216.264 21.8164L216.996 22.5488L217.436 22.8418H220.219L219.926 23.5742L219.047 24.1601L217.875 24.4531L216.117 24.3066L215.092 23.8672L214.213 23.1347L213.627 22.1094L213.48 21.5234V19.1797L213.92 18.1543L214.652 17.4219L215.971 16.543L217.143 15.957Z" fill="#028EDA"/>
<path d="M191.064 15.957H191.65L191.797 23.2812L192.822 23.5742L192.969 23.8672L192.822 24.1601H187.988L188.135 23.4277L189.014 23.2812L189.16 22.9883V17.7148L189.014 17.5684L187.988 17.4219V16.6895L189.014 16.3965L190.771 16.1035L191.064 15.957Z" fill="#028EDA"/>
<path d="M153.857 15.957H154.297V23.1347L155.615 23.5742L155.469 24.3066H151.66L150.635 24.1601L150.488 23.7207L150.635 23.4277L151.807 23.2812L151.953 21.2305V17.8613L151.807 17.5684L150.635 17.4219V16.543L150.928 16.3965L153.271 16.1035L153.857 15.957Z" fill="#028EDA"/>
<path d="M290.676 16.9844L291.994 17.1309L293.02 17.8633L293.166 18.1562V21.6719L292.434 22.4043L291.701 22.6973L290.529 22.5508L289.797 21.9648L289.357 21.0859L289.211 20.3535V19.0352L289.65 17.7168L290.383 17.1309L290.676 16.9844Z" fill="#FEFEFE"/>
<path d="M119.873 16.9844L121.045 17.1309L122.07 17.8633L122.217 18.1562V21.0859L121.924 21.9648L121.191 22.5508L120.02 22.6973L119.141 22.2578L118.555 21.5254L118.262 20.6465V18.7422L118.701 17.7168L119.434 17.1309L119.873 16.9844Z" fill="#FEFEFE"/>
<path d="M299.025 21.3789L299.758 21.5254L300.637 22.5508V23.4297L299.611 24.3086L298.879 24.4551L297.854 23.5762L297.707 22.6973L298.146 21.9648L299.025 21.3789Z" fill="#028EDA"/>
<path d="M197.217 16.9844H198.389L199.121 17.7168L199.268 18.8887L198.975 19.3281H196.338L196.191 19.1816L196.338 17.8633L196.924 17.1309L197.217 16.9844Z" fill="#FEFEFE"/>
<path d="M166.748 16.9844H167.92L168.652 17.7168L168.799 18.8887L168.359 19.3281H166.016L165.723 19.1816L165.869 17.8633L166.455 17.1309L166.748 16.9844Z" fill="#FEFEFE"/>
<path d="M262.695 21.3789L263.574 21.6719L264.16 22.4043V23.4297L263.574 24.1621L262.988 24.4551L262.256 24.3086L261.523 23.5762V22.4043L262.109 21.6719L262.695 21.3789Z" fill="#028EDA"/>
<path d="M224.756 16.9844H225.928L226.514 17.5703L226.66 17.8633V19.1816L226.367 19.3281H224.023L223.73 19.1816V18.1562L224.316 17.2773L224.756 16.9844Z" fill="#FEFEFE"/>
<path d="M129.836 16.9844H131.008L131.74 17.5703L132.033 18.4492L131.887 19.1816L131.154 19.3281H129.396L128.957 19.1816L129.104 17.7168L129.836 16.9844Z" fill="#FEFEFE"/>
<path d="M78.8574 16.9844H79.8828L80.4687 17.2773L80.9082 18.4492L80.7617 19.1816L80.0293 19.3281H78.2715L77.832 19.1816L77.9785 17.8633L78.5645 17.1309L78.8574 16.9844Z" fill="#FEFEFE"/>
<path d="M190.041 11.8555L191.066 12.002L191.652 12.5879L191.799 13.6133L190.627 14.6387L189.748 14.4922L189.016 13.6133V12.7344L189.748 12.002L190.041 11.8555Z" fill="#028EDA"/>
<path d="M152.686 11.8555L153.711 12.002L154.297 12.5879L154.443 13.6133L153.857 14.3457L153.271 14.6387L152.539 14.4922L151.66 13.6133L151.807 12.5879L152.393 12.002L152.686 11.8555Z" fill="#028EDA"/>
<path d="M110.941 20.0586H111.527V22.1094L110.502 22.8418H109.77L109.184 22.2559V21.084L110.062 20.3516L110.941 20.0586Z" fill="#FEFEFE"/>
<path d="M88.2324 20.0586L88.9648 20.2051V22.1094L87.9395 22.8418H87.207L86.6211 22.2559V21.084L87.5 20.3516L88.2324 20.0586Z" fill="#FEFEFE"/>
</svg>
