<svg width="300" height="85" viewBox="0 0 300 85" fill="none" xmlns="http://www.w3.org/2000/svg">
<path d="M264.775 0H268.591L268.151 0.292689L258.904 2.48786L253.034 4.09765L247.456 5.85379L242.76 7.60992L238.503 9.5124L235.715 10.9758L232.632 13.0247L231.018 14.3418L229.11 16.2443L227.789 18.2931L227.055 20.0492L226.762 21.5127V23.7078L227.349 26.0494L228.523 28.3909L229.844 30.2933L231.458 32.1958L233.66 34.391L234.834 35.4154L235.128 35.5618L234.247 33.952L233.807 32.6349L233.66 31.0251L233.953 29.5616L234.687 28.0982L235.715 26.7811L236.889 25.6103L238.944 24.1469L241.292 22.8298L244.081 21.5127L248.19 20.0492L252.593 18.7321L258.464 17.415L263.454 16.5369L264.041 16.6833L259.638 18.2931L255.088 20.1956L250.832 22.2444L248.337 23.5615L245.255 25.6103L243.787 26.7811L242.319 28.0982L240.852 30.0007L240.118 31.6104L239.824 32.6349V34.83L240.411 36.5862L241.292 38.196L242.613 39.6594L243.2 40.3911L244.814 41.7082L247.016 43.318L249.951 45.0742L253.914 47.123L256.703 48.4401L256.262 48.5864L249.364 46.6839L245.548 45.5132L240.852 43.7571L236.889 42.0009L232.926 39.9521L229.844 38.0496L227.202 36.1471L225.588 34.83L223.533 33.0739L220.891 30.4397L219.57 28.8299L217.955 26.9274L216.635 24.8786L216.047 23.4151L215.754 22.2444V19.4638L216.341 17.2687L217.515 15.0735L219.13 13.171L220.891 11.5612L222.946 10.0978L225.147 8.78068L227.936 7.31723L231.899 5.70744L236.302 4.244L240.852 3.07324L245.548 2.04883L250.979 1.17076L255.969 0.585379L261.986 0.146345L264.775 0Z" fill="#58C0CA"/>
<path d="M281.654 0.145508H283.562L287.378 0.584542L290.461 1.31627L293.249 2.48702L295.157 3.65778L296.625 4.97488L297.946 6.43833L299.12 8.6335L299.854 10.8287L300.001 11.414V19.3167L299.12 23.4143L298.093 26.7802L296.625 30.2925L294.717 33.9511L292.662 37.1707L290.607 39.8049L289.286 41.4147L287.672 43.1708L284.296 46.5368L282.682 47.8539L280.48 49.61L277.692 51.5125L276.811 52.0979L276.517 51.9515L278.279 49.61L280.333 46.6831L281.948 44.1953L283.709 41.2684L285.764 37.3171L287.232 33.9511L288.406 30.7315L289.14 27.6583L289.58 24.7314L289.727 23.1216V19.1703L289.433 16.8288L288.846 14.6336L287.672 12.2921L286.498 10.6823L284.883 9.36522L282.682 8.19446L280.48 7.46274L277.692 7.02371L273.729 6.73102H263.602L257.437 7.3164L251.126 8.34081L245.255 9.65791L239.091 11.2677L238.504 11.1214L243.494 8.92619L247.897 7.17005L252.007 5.7066L255.97 4.3895L261.253 2.92606L266.537 1.7553L272.114 0.877231L276.224 0.438197L281.654 0.145508Z" fill="#AED14F"/>
<path d="M84.6859 44.9277H84.9794L84.6859 46.5375L82.6311 55.0255L82.4843 55.4646L84.2456 54.8792L85.1262 54.7328H86.7407L88.2084 55.0255L89.9696 55.7572L91.4373 57.0743L92.3179 58.2451L93.0518 59.8549L93.4921 62.0501V65.416L92.905 68.0502L91.8776 70.3917L90.8502 72.0015L89.089 74.0503L87.3277 75.3674L85.1262 76.5382L82.6311 77.2699L81.8972 77.4162H77.2006L73.9717 76.8309L71.7701 76.0991L71.4766 75.9528L71.6233 74.6357L74.7055 61.7574L78.228 46.9766L78.5215 45.9521L81.0166 45.5131L84.6859 44.9277Z" fill="#F28951"/>
<path d="M199.314 54.7324H201.809L203.864 55.1715L205.919 56.1959L206.506 56.6349L209.295 55.3178L210.909 54.8788L212.083 54.7324H213.844L215.606 55.0251L217.367 55.7568L218.688 56.7812L219.568 58.0983L220.156 59.8545L220.302 60.7326V63.3668L219.422 67.4644L217.22 76.5378L217.073 76.8305H211.056L211.349 75.2207L213.698 65.2692L213.991 63.8058V61.9033L213.551 60.7326L212.817 60.1472L212.23 60.0008H210.762L208.561 60.7326V62.7814L207.974 66.001L205.625 75.8061L205.332 76.8305H199.167L201.662 66.2936L202.25 63.2204V62.196L201.809 60.8789L201.222 60.2935L200.342 60.0008H198.58L197.553 60.2935L195.205 69.9523L193.59 76.6841L193.443 76.8305H187.426L187.719 75.367L191.682 58.9764L192.269 56.4886L192.416 56.1959L195.351 55.3178L197.846 54.8788L199.314 54.7324Z" fill="#58C1CB"/>
<path d="M40.361 54.7324H43.59L46.8189 55.1715L49.0205 55.7568L50.1946 56.3422L50.0479 57.513L47.6995 67.3181L47.2592 69.9523V71.8547L47.6995 74.6353L48.1398 76.0987V76.5378L43.1497 77.2695H42.5626L41.8287 75.5134L40.5078 76.2451L38.7466 77.1232L36.3982 77.5622L34.4902 77.4158L32.5822 76.8305L30.9677 75.8061L29.7936 74.3426L28.913 72.4401L28.4727 70.3913V66.7327L28.913 64.5375L29.7936 62.196L30.9677 60.1472L32.5822 58.391L33.9031 57.2203L35.8112 56.0495L38.0127 55.1715L40.361 54.7324Z" fill="#F28951"/>
<path d="M237.032 54.7324H239.087L242.903 55.1715L245.838 56.0495L246.278 56.3422L246.132 57.6593L243.783 67.4644L243.49 69.0742V72.7328L244.077 75.5134L244.224 76.3914L244.077 76.5378L238.94 77.2695L238.5 76.5378L238.059 75.5134L237.325 75.8061L235.271 76.9768L233.656 77.4158H231.014L229.253 76.9768L227.785 76.0987L226.464 74.928L225.437 73.1718L224.85 71.123L224.703 70.245V66.879L225.29 64.2448L226.024 62.3423L227.198 60.2935L228.519 58.6837L229.987 57.3666L231.601 56.3422L233.509 55.4641L235.858 54.8788L237.032 54.7324Z" fill="#58C1CB"/>
<path d="M287.814 25.7559L287.961 26.1949L286.934 29.9999L285.319 34.8292L283.705 38.6342L282.09 41.8538L280.476 44.488L278.715 46.9758L277.1 48.8783L276.073 50.0491L273.724 52.3906L272.11 53.7077L270.642 54.7321L268.441 55.6102L265.946 56.1955L263.01 56.4882L259.781 56.3419L255.965 55.7565L252.149 54.7321L249.214 53.7077L245.838 52.2442L242.756 50.6345L239.821 48.8783L235.858 46.2441L233.069 44.1953L229.253 40.9757L227.052 38.9269L222.648 34.5365L221.621 33.3658V32.9267L223.676 34.8292L225.731 36.439L227.639 37.9025L231.014 40.0976L234.097 41.8538L238.5 44.0489L242.462 45.6587L246.572 47.1222L250.975 48.4393L256.846 49.9027H261.543L264.478 49.4637L267.12 48.5856L269.321 47.4149L270.936 46.2441L272.991 44.488L274.605 43.0245L275.779 42.0001L279.155 38.6342L280.182 37.4634L282.09 35.1219L284.145 32.195L285.76 29.5608L287.521 26.3412L287.814 25.7559Z" fill="#F28951"/>
<path d="M109.639 54.5869H111.253L113.308 55.0259L115.069 55.904L116.39 57.2211L117.124 58.6846L117.418 60.0017V61.6115L117.124 63.0749L116.537 64.392L115.657 65.7091L114.336 66.8799L111.987 68.0506L109.345 68.7823L105.823 69.2214H103.621L104.355 70.9775L105.089 71.7092L106.557 72.1483H109.639L111.987 71.7092L113.161 71.4165L113.455 73.319L113.602 76.3923L110.96 77.124L109.199 77.4167H104.796L102.447 76.8313L100.833 75.9532L99.365 74.6361L98.3377 73.0263L97.7506 71.2702L97.457 69.3677V67.4652L97.7506 65.4164L98.4844 62.9286L99.9521 60.148L101.567 58.2455L103.328 56.7821L105.383 55.6113L107.584 54.8796L109.639 54.5869Z" fill="#F28951"/>
<path d="M22.8992 45.0742H26.7153L29.5039 45.8059L30.3845 46.245L30.8248 47.123L30.678 48.2938L29.5039 49.9036L28.3297 50.928L27.4491 50.7817L25.6879 50.3426H23.6331L22.3122 50.7817L20.9912 51.8061L20.2574 52.9768L19.6703 54.733V55.172L26.7153 55.3183L26.5685 56.7818L25.9814 58.2452L24.954 59.5623L23.6331 60.2941H5.43359V59.2696L6.02067 57.3672L7.04806 56.0501L8.51577 55.3183L13.2124 55.172L14.093 52.0988L15.2672 49.7572L16.4413 48.1475L17.909 46.8304L19.0832 46.0986L21.138 45.3669L22.8992 45.0742Z" fill="#F38851"/>
<path d="M151.615 45.0742H154.403L156.752 45.5133L158.366 46.0986L159.1 46.8304V48.0011L158.219 49.4646L157.192 50.489L156.605 50.928L155.871 50.7817L154.55 50.3426H151.761L150.44 50.928L149.56 51.5134L148.532 53.1232L147.799 55.3183H155.137L154.844 56.9281L153.816 58.977L152.789 59.855L151.761 60.2941H133.855L134.002 58.6843L134.589 57.2208L135.763 55.9037L137.231 55.3183H141.781L142.075 53.7086L142.808 51.5134L143.983 49.3182L145.597 47.5621L146.624 46.684L148.386 45.8059L150.587 45.2206L151.615 45.0742Z" fill="#58C1CB"/>
<path d="M12.0351 60.7324H14.2367L15.9979 61.1715L17.1721 61.9032L17.6124 62.6349L17.4656 64.0983L15.4109 72.5863L14.2367 76.3913L13.3561 78.7328L12.3287 80.7816L11.1545 82.2451L9.98036 83.2695L7.92558 84.2939L5.8708 84.7329H3.81602L1.76124 84.2939L0.58708 83.7085L0.14677 83.1232L0 82.6841V81.0743L0.58708 79.7572L1.61447 78.8792H3.22894L4.99018 79.3182L6.01757 79.1718L6.89819 78.5865L7.63204 77.4157L8.36589 75.0742L9.54006 70.6839L11.8884 60.8788L12.0351 60.7324Z" fill="#F28951"/>
<path d="M64.8694 54.7324H67.658L70.1531 55.1715L71.0338 55.4641L70.887 56.3422L69.2725 60.5862L67.071 60.1472H63.9888L62.8146 60.2935L62.5211 61.9033L58.9986 76.5378L58.8518 76.8305L58.118 76.9768H53.8617L52.6875 76.8305L52.981 75.2207L56.5035 60.7326L57.5309 56.4886L58.8518 55.9032L61.6405 55.1715L64.8694 54.7324Z" fill="#F28951"/>
<path d="M140.457 60.7324H142.218L144.273 61.1715L145.594 62.0495L146.034 63.0739L143.833 72.2936L142.659 76.245L141.484 79.1718L140.457 81.0743L138.843 82.8305L137.228 83.8549L135.614 84.4403L134.88 84.5866H131.651L129.89 84.1476L129.009 83.5622L128.569 82.9768L128.422 82.5378V81.367L128.862 80.0499L129.449 79.3182L130.183 78.8792H131.357L132.972 79.3182H134.293L135.173 78.7328L135.76 78.0011L136.494 76.245L137.815 71.5619L139.283 65.4155L140.31 61.1715L140.457 60.7324Z" fill="#58C1CB"/>
<path d="M179.942 54.8789H184.198L186.84 55.4643L186.987 55.757L185.813 58.6839L185.226 60.2937L184.639 60.44L182.143 60.001H180.676L178.915 60.2937L178.474 61.4644L174.805 76.6843L174.658 76.8306H168.641L168.934 75.3672L172.897 58.9766L173.484 56.4887L174.952 55.9033L178.034 55.1716L179.942 54.8789Z" fill="#58C1CB"/>
<path d="M160.864 55.3174H166.881L166.734 56.3418L162.772 72.8787L161.891 76.5374L161.744 76.83H155.727L156.314 74.0495L158.809 63.659L160.717 55.6101L160.864 55.3174Z" fill="#58C1CB"/>
<path d="M83.95 59.8545L85.4177 60.0008L86.5919 60.7326L87.179 61.9033L87.3257 62.635V65.5619L86.7387 67.6108L85.7113 69.5132L84.5371 70.8303L82.9226 71.8548L81.7485 72.2938H78.5195L78.6663 70.9767L81.0146 61.3179L81.3082 60.7326L82.4823 60.1472L83.95 59.8545Z" fill="#FDFDFD"/>
<path d="M236.3 59.8545H239.382L239.235 61.3179L237.914 66.7327L237.327 70.245L236.887 71.123L235.566 72.0011L234.832 72.2938H232.777L231.603 71.5621L231.016 70.3913L230.723 68.9279V67.1717L231.163 64.9766L232.337 62.635L233.658 61.1716L235.273 60.1472L236.3 59.8545Z" fill="#FDFDFD"/>
<path d="M40.214 59.8545H42.7091L43.1494 60.0008L43.0026 61.1716L41.5349 67.3181L40.9478 70.684L40.214 71.4157L39.3334 72.0011L38.306 72.2938H36.8383L35.6641 71.7084L35.077 70.9767L34.6367 69.5132V66.5863L35.077 64.8302L36.1044 62.7814L37.5721 61.1716L39.3334 60.1472L40.214 59.8545Z" fill="#FDFDFD"/>
<path d="M264.772 0H268.588L268.148 0.292689L258.901 2.48786L253.03 4.09765L247.453 5.85379L242.756 7.60992L242.022 7.90261L241.435 7.75627L246.132 5.41475L247.306 4.53668L247.159 4.09765H247.453L247.159 2.92689L246.719 2.6342L243.93 2.92689L240.261 3.65862H239.527V3.36593L245.545 2.04883L250.975 1.17076L255.966 0.585379L261.983 0.146345L264.772 0Z" fill="#3B959F"/>
<path d="M283.559 0H299.997V11.4149L299.703 10.8295L298.969 8.63433L297.795 6.43917L296.181 4.68303L295.007 3.65862L292.658 2.34151L290.457 1.46345L287.375 0.731723L283.559 0.292689V0Z" fill="#FDFDFD"/>
<path d="M165.261 45.3662L166.729 45.5126L167.903 46.0979L168.637 46.976L168.931 47.5614V49.3175L168.05 51.0737L166.876 52.0981L165.848 52.5371L164.381 52.6834L163.06 52.2444L162.179 51.659L161.592 50.9273L161.445 50.4883V48.5858L162.179 47.1223L163.207 46.0979L164.527 45.5126L165.261 45.3662Z" fill="#58C1CB"/>
<path d="M108.609 59.5625H110.224L111.398 60.1479L111.691 60.7333V62.1967L111.104 63.2211L109.93 63.9528L108.022 64.5382L104.94 64.9773H103.912L103.766 64.6846L104.499 62.7821L105.38 61.465L106.701 60.2942L108.022 59.7088L108.609 59.5625Z" fill="#FDFDFD"/>
<path d="M263.453 16.5371L264.04 16.6835L261.251 17.7079L260.664 17.5615L260.958 16.9761L263.453 16.5371Z" fill="#49ACB6"/>
<path d="M242.756 2.63379L243.197 2.78013L243.05 3.07282L240.261 3.6582H239.527V3.36551L242.756 2.63379Z" fill="#459EA1"/>
</svg>
