<svg width="257" height="100" viewBox="0 0 257 100" fill="none" xmlns="http://www.w3.org/2000/svg">
<path d="M75.2852 8.15234H88.1704L90.4869 8.2979L93.2376 9.02571L95.5541 10.0446L97.2914 11.2091L98.884 12.5192L100.332 14.1203L101.635 16.1582L102.793 18.6327L103.372 20.8161L103.662 22.9995V24.8918L103.227 27.6575L102.359 30.2775L101.345 32.1698L100.042 33.9166L98.7392 35.3722L96.7123 36.9733L93.9615 38.4289L91.7899 39.1567L89.0391 39.5934H81.5106V50.2193L81.2211 50.3649H76.2986L75.2852 50.2193V8.15234Z" fill="#D7B671"/>
<path d="M209.784 8.44336H213.838L216.01 8.88004L218.182 9.60784L220.064 10.6268L221.656 11.7913L223.104 13.1013L224.552 14.7025L226 17.177L226.868 19.6515L227.158 20.3793L229.764 21.3982L232.08 21.9805H234.831L237.437 21.1071L238.45 20.6704H238.885L238.595 22.2716L237.727 23.7272L236.134 25.3284L234.397 26.3473L231.791 27.2207L229.619 27.5118H227.737L227.013 27.3662L226.434 29.6952L225.276 32.0242L224.262 33.6253L222.525 35.3721L221.222 36.5365L219.629 37.5555L217.892 38.4288L215.576 39.1566L213.983 39.4478H209.64L206.599 38.7199L204.572 37.8466L202.546 36.5365L200.374 34.6443L198.781 32.6064L197.478 30.1319L196.754 27.6574L196.465 25.9106V21.9805L197.044 19.0693L198.057 16.5947L199.36 14.5569L200.663 13.1013L201.966 11.7913L203.849 10.4812L205.875 9.46228L208.047 8.73448L209.784 8.44336Z" fill="#A6624F"/>
<path d="M57.0454 8.15234H60.5201L70.0755 8.2979V39.5934H56.7559L54.2947 39.3023L51.8334 38.5745L49.517 37.41L47.9244 36.3911L46.1871 34.7899L44.8841 33.3343L43.5811 31.2965L42.5676 28.9675L41.9885 26.7841L41.8438 25.9107V21.835L42.4229 19.2149L43.4363 16.7404L44.7393 14.557L46.4766 12.6647L47.4901 11.6458L49.3722 10.3358L51.3991 9.31683L53.5708 8.58903L55.0186 8.2979L57.0454 8.15234Z" fill="#D7B671"/>
<path d="M167.508 0H172.72L172.865 26.9287L173.299 29.4032L174.023 31.15L175.036 32.6056L176.484 33.6245L176.774 33.77V31.7322L177.208 29.5488L178.077 27.2198L179.669 24.163L180.827 22.4163L182.275 20.524L184.013 18.4862L184.736 17.6128L185.46 17.3217L187.053 19.0684L188.356 20.6696L189.804 22.5619L191.541 25.4731L192.699 27.9476L193.423 30.131L193.713 31.7322V33.77L193.134 36.099L192.12 37.9913L190.817 39.4469L189.225 40.4658L187.487 41.1936L185.75 41.4848L183.723 41.3392L182.13 40.9025L180.393 40.0291L180.104 39.738L177.787 39.4469L175.036 38.7191L172.72 37.5546L171.127 36.2446L169.969 34.9345L168.956 33.3334L168.087 31.2955L167.653 29.2577L167.508 27.5109V0Z" fill="#D7B671"/>
<path d="M157.228 14.7021L157.663 14.8477L158.676 17.1767L159.255 19.5056L159.4 20.5246V38.8652H154.043V35.2262L152.016 36.6818L149.121 38.4285L147.383 39.1563L144.633 39.593H142.895L140.579 39.3019L138.262 38.5741L136.235 37.5552L134.498 36.2451L133.629 35.5173L133.34 34.7895L134.932 33.4795L136.959 31.7327L138.552 30.4227L140.434 28.8215L142.027 27.5115L144.053 25.7647L145.646 24.4547L147.673 22.708L149.265 21.3979L151.148 19.7968L152.74 18.4867L154.188 17.1767L156.215 15.5755L157.228 14.7021Z" fill="#D7B671"/>
<path d="M108.871 0.146484H114.517L114.662 8.15231L125.665 8.29787V13.6836H114.517L114.662 31.0053L115.097 32.4609L115.82 33.3343L117.413 33.9165L125.665 34.0621V39.4478H116.255L114.083 38.8656L112.491 37.9922L111.332 36.9733L110.464 35.8088L109.595 34.0621L109.016 31.8787L108.871 30.7142V0.146484Z" fill="#A6624F"/>
<path d="M141.885 8.44336H146.952L149.848 9.0256L152.164 9.89896L153.902 10.9179L154.915 11.6457V11.9368L153.467 13.1013L151.441 14.848L149.848 16.1581L146.084 19.3604L144.491 20.6704L142.609 22.2716L141.017 23.5817L138.99 25.3284L137.108 26.9295L135.515 28.2396L133.488 29.9863L131.896 31.2964L131.027 31.8786L130.013 29.8408L129.29 27.0751L129 24.6006V22.5627L129.434 19.506L130.303 16.8859L131.316 14.9936L132.764 13.1013L134.067 11.7913L135.949 10.4812L137.976 9.46228L140.293 8.73448L141.885 8.44336Z" fill="#D7B671"/>
<path d="M30.9836 8.29688H38.8017V13.5371L38.6569 13.6826L32.5762 13.8282L30.115 14.4104L28.0881 15.4293L26.6403 16.5938L25.6269 17.6127L24.4686 19.6506L23.8895 21.5429L23.7447 22.5618V25.0363L24.1791 27.2197L25.3373 29.5487L26.4955 30.8588V31.1499L27.0746 31.441L28.2329 32.3144L29.9702 33.1877L31.8523 33.77L32.8658 33.9155L38.8017 34.0611V39.4468H31.2732L28.5224 38.8646L26.0612 37.8457L23.7447 36.3901L21.8626 34.6433L20.8492 33.6244L19.4014 31.441L18.5327 29.4032L17.9536 27.2197L17.6641 25.0363V22.5618L18.0984 19.7962L18.8223 17.6127L19.9805 15.4293L21.4283 13.5371L22.8761 12.0814L25.0477 10.4803L27.3642 9.3158L29.5359 8.588L30.9836 8.29688Z" fill="#A6624F"/>
<path d="M209.783 13.6836H213.981L215.863 14.2658L217.456 15.1392L219.193 16.7404L219.483 17.3226L216.442 17.4682L214.56 18.0504L212.968 19.0693L211.665 20.5249L210.507 22.5628L209.783 24.4551L209.059 27.6574L208.914 28.6763V29.9864L210.217 28.5308L211.52 26.9296L212.968 25.474L214.416 24.6006L215.574 24.3095L217.601 24.6006L221.365 25.9107V26.9296L220.786 28.6763L219.917 30.2775L218.325 32.0242L216.732 33.1887L215.139 33.9165L212.968 34.3532H210.651L208.624 33.9165L206.887 33.1887L205.584 32.1698L204.715 31.442L203.412 29.6953L202.688 28.0941L202.109 25.9107V21.9805L202.688 19.7971L203.847 17.4682L205.439 15.7214L206.887 14.7025L208.624 13.9747L209.783 13.6836Z" fill="#FDFDFC"/>
<path d="M167.508 0H172.72L172.865 26.9287L173.299 29.4032L174.023 31.15L175.036 32.6056L176.484 33.6245L176.918 33.9156L177.642 36.3901L178.511 37.9913L179.669 39.3013V39.4469H177.787L175.036 38.7191L172.72 37.5546L171.127 36.2446L169.969 34.9345L168.956 33.3334L168.087 31.2955L167.653 29.2577L167.508 27.5109V0Z" fill="#A6624F"/>
<path d="M216.447 17.3223H219.632L222.672 18.3412L226.726 20.2335L229.766 21.398L232.083 21.9802H234.833L237.439 21.1068L238.453 20.6702H238.887L238.598 22.2713L237.729 23.7269L236.136 25.3281L234.399 26.347L231.793 27.2204L229.621 27.5115H227.739L224.989 27.0748L221.369 26.0559L217.605 24.7459L215.578 24.4547L214.42 24.7459L212.972 25.6192L211.379 27.2204L210.076 28.8215L208.918 30.1316H208.773V28.676L209.353 25.4737L210.221 22.8536L211.235 20.9613L212.393 19.5057L213.551 18.4867L215.288 17.6134L216.447 17.3223Z" fill="#D7B672"/>
<path d="M178.945 76.8574H181.261L182.999 77.4397L184.302 78.4586L185.17 79.6231L185.749 81.0787L186.039 82.5343H187.921L188.355 83.2621L191.396 91.4135V91.7046H191.685L191.83 90.8312L194.87 82.6798H197.332L196.897 84.1354L194.147 91.4135L193.133 94.0336L192.409 94.7614L192.12 94.9069H190.817L190.238 94.6158L189.658 93.4513L186.473 85.0088L185.894 83.5532L185.17 85.4455L184.302 86.61L183.288 87.4833L181.84 88.0656H177.787V85.8822L180.827 85.7366L181.985 85.2999L182.854 84.5721L183.288 83.5532V81.3698L182.709 80.2053L181.985 79.6231L180.682 79.1864H179.524L178.366 79.6231L177.642 80.3509L177.063 81.5154L176.918 94.6158L176.773 94.7614L174.602 94.6158V81.3698L175.181 79.7686L175.76 78.8953L176.918 77.7308L178.366 77.003L178.945 76.8574Z" fill="#332D2C"/>
<path d="M197.622 47.5986L198.345 47.7442L198.49 48.1809L197.622 49.6365L195.45 51.9654L194.147 53.4211L192.989 54.5855L192.844 55.1678L194.871 53.5666L196.319 52.5477L197.332 52.4021L197.766 52.8388L197.622 53.5666L196.463 54.7311L196.319 55.75L197.766 55.1678L198.345 55.0222L198.78 53.7122L199.648 52.5477L200.662 51.6743H201.386L201.675 51.9654L201.531 52.6933L200.517 53.8577L199.504 54.7311L199.359 55.4589L200.807 54.7311L202.689 52.9844L203.702 51.9654L204.281 51.8199L204.426 51.9654V52.9844L201.675 57.2056L202.834 56.3323L204.281 55.1678L204.861 54.8767L204.716 55.4589L202.399 57.6423L200.951 59.2435L200.228 60.1168L199.793 60.2624L199.504 59.6802L199.648 58.8068L201.096 56.1867L201.675 55.3133L199.938 56.6234L199.069 56.7689L198.49 56.0411L198.345 55.4589L196.463 56.7689L195.595 57.2056H194.871L194.581 56.7689L194.726 55.75L195.595 54.2944V54.1489L194.002 55.4589L192.554 56.9145L191.975 56.7689L191.686 55.6045L189.659 57.0601L188.645 57.4967H187.777L187.342 57.0601V56.0411L187.777 54.8767L185.171 56.7689L184.012 57.2056L183.144 57.0601L182.709 56.6234L182.275 55.6045L180.393 57.0601L179.814 57.3512H178.945L178.8 57.2056V56.0411L179.09 55.3133L177.932 56.1867L176.918 56.9145L176.05 57.0601L175.471 56.4778L175.036 55.6045L173.444 56.6234L172.141 57.2056H170.838L169.969 56.4778L169.824 56.0411V54.7311L170.403 53.2755L171.417 52.2566L172.575 51.6743L174.168 51.5288L174.602 51.6743L174.747 52.5477L174.312 53.2755L173.444 54.0033L172.285 54.5855L171.272 55.0222L171.417 55.75L171.706 55.8956H172.865L174.168 55.3133L175.036 54.7311L176.339 53.2755L177.932 52.4021L179.235 51.8199L179.959 51.6743H180.972L181.406 52.111L181.117 52.6933L181.262 52.8388V53.7122L180.248 55.0222V55.75L181.262 55.6045L182.42 54.7311L182.999 52.8388L183.868 51.2376L184.881 49.9276L186.329 48.472L187.053 48.0353H187.487V49.3454L186.908 50.9465L185.75 52.4021L184.012 54.1489V55.6045L184.157 55.75H185.315L186.763 54.8767L188.356 53.5666L188.935 52.6933H187.777L188.211 51.8199L188.935 51.2376L190.238 50.9465L191.251 49.782H192.265L192.12 50.5098L191.83 50.9465H192.554L192.265 51.8199L191.686 52.5477L190.093 52.9844L189.08 54.7311L188.935 55.75L189.08 56.0411L190.093 55.8956L191.686 54.8767L192.699 52.8388L194.147 50.9465L195.739 49.1998L196.753 48.1809L197.622 47.5986Z" fill="#A6624F"/>
<path d="M72.9662 82.3867H74.5587L76.2961 82.8234L77.8886 83.8423L79.1916 85.2979L79.7707 86.608L80.0603 88.0636V89.2281L79.626 91.1204L78.7573 92.576L77.5991 93.7404L75.8617 94.6138L74.7035 94.9049H72.8214L70.9393 94.3227L69.4915 93.3038L68.478 92.1393L67.7542 90.3925L67.6094 89.8103V87.6269L68.1885 85.7346L69.3467 84.1334L70.5049 83.2601L71.6632 82.6778L72.9662 82.3867Z" fill="#342D2C"/>
<path d="M75.2852 14.5557L94.2511 14.7012L95.4093 15.5746L95.9884 16.448L96.1332 17.758L95.4093 19.2136L94.6854 19.7958L92.8033 20.087H75.2852V14.5557Z" fill="#E4C99A"/>
<path d="M121.904 51.5293L123.207 51.6749L123.352 52.5482L122.918 53.276L122.049 54.0038L119.877 55.0227L120.022 55.7506L120.312 55.8961H121.47L122.773 55.3139L124.076 54.4405L124.366 54.0038L124.221 53.276L124.8 52.2571L125.669 51.5293L126.248 51.6749V52.1115L127.695 51.8204H128.419L128.854 52.4027L128.709 53.276L127.406 54.5861L127.261 55.605L128.275 55.4594L129.288 54.8772L129.867 53.276L130.881 51.966L131.315 51.6749H132.473L132.618 52.2571L131.46 53.8583L130.736 54.5861L130.591 55.605L131.025 55.7506L132.328 54.8772L132.763 54.1494L133.487 52.6938L134.066 51.966L134.5 51.6749H135.224V52.6938L134.355 54.2949V54.8772L134.5 55.0227L135.803 54.8772L136.237 53.5671L137.396 52.2571L138.699 51.966L139.133 52.2571L138.843 52.9849L137.83 54.1494L137.106 54.8772V55.605L137.251 55.7506H138.264L139.423 55.1683L140.002 54.7316L140.726 53.276L141.305 52.5482L141.739 52.2571H142.897V52.8393L141.884 54.0038L141.305 54.7316L141.449 55.0227L142.897 53.5671L144.779 52.1115L145.503 51.6749H146.082L146.372 52.4027L146.227 53.1305L144.924 54.5861L144.779 55.605L145.793 55.4594L146.806 54.7316L147.675 53.276L149.123 52.2571L150.426 51.6749H151.873L151.729 52.2571L151.005 52.8393L148.833 54.0038L148.109 54.5861L147.964 55.4594L148.978 55.3139L150.136 54.4405L151.15 53.4216L151.873 52.5482L152.453 52.6938L152.597 53.5671L151.439 55.8961L153.466 54.8772L153.176 55.605L151.439 56.7695L150.426 57.4973L148.978 59.5351L147.82 60.554L146.806 60.6996L146.951 59.6807L147.964 58.3706L149.702 56.915L150.57 55.3139L149.412 56.1872L148.399 56.7695H147.53L146.951 56.0417L146.661 55.605L145.069 56.7695L144.2 57.2062H143.332L142.897 56.6239L143.042 55.605L143.911 54.0038L142.463 55.3139L141.449 56.4784L141.015 56.915L140.291 56.7695L140.002 56.3328L139.857 55.605L137.975 56.915L137.251 57.2062L136.382 57.0606L135.948 56.6239L135.658 55.605L134.79 55.8961H133.921L133.197 55.605L131.894 56.7695L131.025 57.2062L130.301 57.0606L129.722 56.3328L129.433 55.4594H129.143V55.7506L127.261 57.0606L126.248 57.2062L125.669 56.6239V55.4594L126.392 54.1494L126.827 53.5671L125.379 54.0038L123.931 55.3139L122.049 56.6239L120.746 57.2062H119.443L118.574 56.4784L118.43 55.8961V54.8772L118.864 53.5671L119.877 52.4027L121.18 51.6749L121.904 51.5293Z" fill="#A6624F"/>
<path d="M53.566 14.7021H70.0707V19.9423L69.202 20.0879H54.7242L52.9868 19.7968L52.1182 19.069L51.5391 17.7589L51.6838 16.4489L52.1182 15.7211L53.1316 14.8477L53.566 14.7021Z" fill="#E4C99A"/>
<path d="M138.842 82.3867H140.29L141.738 82.8234L143.185 83.9879L143.475 83.4056L144.633 82.6778L145.791 82.3867H147.239L148.832 82.969L149.99 83.9879L150.569 84.8612L150.859 86.3169V93.7404L150.714 94.7594L148.687 94.6138L148.542 89.0825L148.397 86.0257L147.963 85.1524L147.239 84.7157H145.647L144.778 85.2979L144.344 86.0257L144.199 88.2091L144.054 94.6138L142.027 94.7594L141.882 94.1771L141.738 86.1713L141.303 85.2979L140.869 84.8612L140.435 84.7157H138.842L138.118 85.1524L137.684 86.0257L137.539 94.6138H135.223V86.0257L135.657 84.5701L136.96 83.1145L138.118 82.5323L138.842 82.3867Z" fill="#352E2C"/>
<path d="M31.5597 82.3867H33.297L34.8896 82.8234L36.0478 83.4056L37.4956 84.8612L38.3642 86.7535L38.6538 88.0636V89.6647L38.2195 91.2659L37.3508 92.7215L36.1926 93.886L34.4552 94.7594L33.7313 94.9049H31.8492L30.1119 94.4682L29.388 94.0316V91.8482L30.691 92.2848L31.4149 92.576H33.5866L35.0343 91.8482L35.7582 90.9748L36.1926 89.8103V87.4813L35.3239 85.7346L34.0209 84.8612L33.4418 84.7157H31.4149L30.2567 85.2979L29.388 86.3169L28.8089 87.7725L28.5193 99.9995H26.3477V88.3547L26.6372 86.7535L27.2163 85.2979L28.085 84.1334L29.0984 83.2601L30.691 82.5323L31.5597 82.3867Z" fill="#352E2D"/>
<path d="M248.439 77.1475H250.611V89.5201L250.176 91.2668L249.308 92.7224L248.149 93.8869L246.702 94.6147L245.543 94.9058H243.661L242.358 94.6147L241.2 94.0325L239.752 92.7224L238.884 91.2668L238.449 89.6657V87.1911L239.028 85.59L239.897 84.2799L241.055 83.261L242.213 82.6788L243.372 82.3876H245.109L246.846 82.8243L247.57 83.261V85.59L245.978 84.8622L245.543 84.7166H243.516L242.213 85.2989L241.49 86.0267L240.91 87.1911L240.766 87.6278V89.5201L241.2 90.8302L242.213 91.9946L243.516 92.5769H245.688L246.991 91.8491L247.57 91.1213L248.149 89.8112L248.294 88.9379L248.439 77.1475Z" fill="#362E2D"/>
<path d="M93.8162 76.8574H96.1327L97.87 77.4397L99.173 78.4586L100.042 79.6231L100.621 81.2242L100.766 82.8254L100.331 84.8633L99.4626 86.3189L98.1596 87.4833L96.567 88.0656H92.658V85.8822L95.8431 85.7366L97.2909 85.0088L97.87 84.281L98.1596 83.4076V81.5154L97.5805 80.2053L96.8566 79.6231L95.5536 79.1864H94.3954L93.2371 79.6231L92.5132 80.2053L92.0789 81.0787L91.7894 82.3887L91.6446 94.6158L91.355 94.7614L89.3281 94.6158V82.3887L89.7625 80.3509L90.4863 79.0408L91.2102 78.1675L92.8028 77.1485L93.8162 76.8574Z" fill="#332D2C"/>
<path d="M101.926 77.1475H104.097L104.242 77.293L104.387 83.4066L105.111 82.8243L106.414 82.3876H108.151L109.454 82.6788L110.902 83.5521L111.771 84.8622L112.06 85.8811L112.205 87.1911V92.2858L112.06 94.7603H110.902L110.033 94.6147L109.744 86.3178L109.02 85.1533L108.151 84.7166H106.269L105.4 85.1533L104.677 86.0267L104.387 86.6089L104.097 94.6147H101.926V77.1475Z" fill="#362F2D"/>
<path d="M17.3761 82.3867H19.2582L20.706 82.6778L22.4433 83.5512L23.6015 84.8612L24.3254 86.608V94.6138L24.1806 94.7594H22.2985L22.1537 94.6138L22.009 87.0447L21.4299 85.8802L20.2716 85.0068L19.403 84.7157H17.3761L16.2178 85.1524L15.494 85.7346L14.7701 87.0447L14.4805 88.2091L14.6253 89.9559L15.2044 91.1204L15.7835 91.8482L17.2313 92.576H19.2582L20.4164 91.9937L21.2851 91.2659V93.886L19.6925 94.7594L18.9686 94.9049H17.2313L16.0731 94.6138L14.6253 93.886L13.4671 92.7215L12.7432 91.4115L12.1641 89.6647V87.6269L12.5984 86.0257L13.1775 84.8612L14.0462 83.8423L15.6387 82.8234L17.3761 82.3867Z" fill="#342E2C"/>
<path d="M157.954 82.3867H159.836L161.574 82.8234L162.877 83.5512L164.035 84.7157L164.759 86.4624L164.904 87.1902V94.6138H162.732L162.587 87.6269L162.298 86.4624L161.863 85.8802V85.5891L161.284 85.2979L159.836 84.7157H157.809L156.506 85.2979L155.493 86.4624L155.059 87.6269V89.6647L155.493 90.8292L156.506 91.9937L157.665 92.576H159.692L160.85 91.9937L161.574 91.2659H161.863V93.7404L160.85 94.4682L159.402 94.9049H157.665L156.072 94.4682L154.48 93.3038L153.321 91.7026L152.742 90.1014V87.0447L153.321 85.4435L154.19 84.279L155.348 83.2601L157.086 82.5323L157.954 82.3867Z" fill="#342E2C"/>
<path d="M53.4229 82.3867H55.3051L57.0424 82.8234L58.3454 83.5512L59.0693 84.1334L59.938 85.5891L60.3723 87.0447V94.6138H58.2006L58.0558 87.6269L57.7663 86.4624L57.1872 85.5891L55.8842 84.8612L55.4498 84.7157H53.2782L51.9752 85.2979L51.1065 86.3169L50.5274 87.7725V89.5192L50.9617 90.8292L51.9752 91.9937L53.1334 92.576H55.3051L56.7528 91.7026L57.332 91.2659V93.7404L56.029 94.6138L55.0155 94.9049H53.1334L51.6856 94.4682L50.5274 93.7404L49.8035 93.1582L48.9348 91.8482L48.3557 90.5381L48.2109 89.9559V87.1902L48.79 85.4435L49.8035 84.1334L50.8169 83.2601L52.5543 82.5323L53.4229 82.3867Z" fill="#342D2C"/>
<path d="M119.153 82.3867H121.036L122.918 82.8234L124.365 83.6968L125.379 84.8612L125.958 86.1713L126.103 86.8991V94.6138H123.931L123.786 87.0447L123.207 85.8802L122.049 85.0068L121.18 84.7157H119.009L117.561 85.4435L116.692 86.608L116.258 88.0636V89.3736L116.837 90.9748L117.561 91.8482L119.009 92.576H121.036L122.194 91.9937L123.062 91.2659V93.7404L121.759 94.6138L120.746 94.9049H118.864L117.416 94.4682L116.113 93.5949L115.1 92.576L114.231 90.8292L113.941 89.5192V87.4813L114.521 85.5891L115.1 84.7157L115.968 83.6968L117.416 82.8234L119.153 82.3867Z" fill="#342D2C"/>
<path d="M7.67324 77.1475H10.8584V79.3309L8.10757 79.4764L5.79112 80.2042L4.19856 81.3687L3.18512 82.8243L2.606 84.571V87.3367L3.04034 88.7923L3.90901 90.2479L5.21201 91.4124L6.80457 92.1402L7.52846 92.2858L10.8584 92.4313V94.7603H8.5419L6.22546 94.4692L4.34334 93.7414L2.89556 92.7224L1.59256 91.4124L0.72389 89.9568L0.144778 88.2101L0 87.4823V84.571L0.434334 82.8243L1.44778 80.932L3.04034 79.1853L4.48812 78.1664L6.22546 77.4386L7.67324 77.1475Z" fill="#332D2C"/>
<path d="M165.193 47.0166H166.496L167.364 47.4533L167.654 47.89V49.0544L166.496 50.6556L164.758 52.4023L166.785 52.2568L168.233 50.5101L169.536 48.9089L170.115 48.1811L170.694 48.0355V49.0544L169.536 50.5101L168.088 52.4023H169.247L169.826 52.5479L169.536 53.1301L168.523 54.2946L168.378 54.5858L166.641 54.7313L166.061 55.7502V56.9147L164.903 57.3514H164.324L164.179 56.478L165.048 54.5858L162.876 54.8769L162.152 55.3136L160.994 56.6236L160.27 57.497L159.546 57.3514L159.402 56.7692L160.27 55.4591L160.415 55.168L159.402 55.0224L159.257 54.8769V54.0035L159.836 53.4213L161.139 53.2757L162.732 52.839L164.758 50.8012L166.061 49.2L166.206 48.6178L164.324 48.7633L161.718 49.6367L160.849 50.0734V50.5101L159.257 51.2379L158.243 51.6745L157.664 51.529L157.52 50.8012L158.099 49.3456L158.967 48.7633L161.863 47.7444L164.035 47.1622L165.193 47.0166Z" fill="#A6624F"/>
<path d="M227.59 48.1807L228.314 48.3262L228.169 49.6363L227.301 51.2374L225.853 53.1297L224.984 54.2942L225.129 54.8764L225.563 55.6043L227.011 55.022L227.59 54.8764L227.735 54.0031L228.604 52.693L229.907 51.8197L230.92 51.5286L232.223 51.6741L232.368 51.8197V52.693L231.789 53.5664L230.051 54.5853L228.893 55.022L229.183 55.7498L229.328 55.8954H230.631L232.657 55.022L232.513 55.6043L230.92 56.7687L229.762 57.2054H228.459L227.735 56.6232L227.445 55.6043L225.853 56.4776L225.563 58.2243L224.695 59.3888L223.681 60.2622L222.813 60.6989L222.089 60.5533L221.654 59.3888L221.799 58.2243L222.523 56.3321V55.6043L221.654 56.0409L220.351 56.9143L219.627 57.2054L218.759 57.0599L218.18 56.1865V54.5853L218.904 53.1297L220.062 52.1108L221.075 51.9652L221.51 52.2564L221.22 52.9842L220.207 54.1486L219.483 54.8764V55.6043L219.627 55.7498H220.786L222.378 54.7309L223.536 53.8575L224.26 53.2753L225.708 50.8008L227.156 48.6173L227.59 48.1807Z" fill="#A6624F"/>
<path d="M221.363 77.1475H223.68L223.825 77.293L223.969 89.6657L224.404 90.9757L224.983 91.7035L225.851 92.1402L226.431 92.2858L229.471 92.4313V94.7603H227.01L224.693 94.3236L223.245 93.4502L222.232 92.2858L221.653 90.9757L221.363 89.5201V77.1475Z" fill="#382F2D"/>
<path d="M72.8252 84.5713H74.8521L76.2999 85.2991L77.1686 86.318L77.6029 87.3369L77.7477 88.7925L77.4581 90.3937L76.7343 91.5582L75.8656 92.286L74.8521 92.7227H72.6805L71.5222 92.1404L70.7984 91.5582L70.0745 90.2481L69.9297 89.6659V87.4825L70.7984 85.7358L71.9566 84.8624L72.8252 84.5713Z" fill="#FDFDFC"/>
<path d="M230.922 79.6221H233.238V82.6788H237.437V84.7167L233.383 84.8622V91.8492L233.817 92.2858L234.252 92.4314L237.437 92.577V94.6148L237.292 94.7604H234.686L232.949 94.4692L231.791 93.5959L231.067 92.1403L230.922 91.2669V79.6221Z" fill="#372F2D"/>
<path d="M40.6836 79.6221H42.8553L43 82.5333L47.1986 82.6788V84.7167L46.909 84.8622H43V91.1214L43.2896 92.1403L44.0135 92.4314L47.1986 92.577V94.6148L47.0538 94.7604H44.303L42.7105 94.4692L41.8418 93.887L41.1179 93.0136L40.6836 91.4125V79.6221Z" fill="#322D2C"/>
<path d="M198.488 79.6221H200.66V82.6788H204.859V84.7167L200.805 84.8622V91.558L201.239 92.2858L201.673 92.4314L205.003 92.577L204.859 94.6148L204.424 94.7604H202.253L200.515 94.4692L199.647 93.887L198.923 93.0136L198.488 91.7036V79.6221Z" fill="#2E2B2A"/>
<path d="M116.401 47.0166L118.428 47.1622L118.863 47.5988L118.718 48.7633L117.994 49.3456L116.112 50.2189H115.822L116.112 49.6367L116.546 49.2L114.809 49.3456L113.071 49.7823L111.768 50.5101L111.479 50.9467L112.492 51.3834L114.809 51.9657L116.401 52.5479L117.27 53.2757L117.415 54.2946L116.98 55.3136L115.967 56.1869L114.519 56.7692L112.347 57.2058H108.583L108.004 56.9147L107.859 56.3325L108.583 55.168L109.162 54.8769H109.886L109.741 55.168H112.492L114.519 54.7313L115.967 54.0035L115.822 53.5668L114.23 52.9846L110.755 52.2568L110.031 51.8201L109.886 51.529L110.031 49.9278L110.465 49.0544L111.334 48.3266L113.071 47.5988L114.953 47.1622L116.401 47.0166Z" fill="#A6624F"/>
<path d="M63.1213 77.1475H65.1482L65.293 77.293V94.6147H62.9766V77.293L63.1213 77.1475Z" fill="#3C312E"/>
<path d="M217.745 46.8711L218.469 47.1622L218.613 47.4533L218.469 48.7634L217.31 50.8012L217.166 51.3835L216.876 51.9657L215.863 52.8391L214.849 52.9846L214.994 51.6746L215.863 50.219L216.731 49.0545L215.718 49.9279L214.56 51.0923L213.257 52.6935L211.519 54.5858L211.375 54.8769H212.678L216.007 55.6047L217.166 55.8958L216.297 56.9148L215.428 57.497L213.836 57.3515L211.664 56.9148L210.361 56.7692H208.769L208.045 57.0603H207.031L207.176 56.3325L208.045 55.168L208.624 54.8769L210.216 54.7314L212.243 52.2568L213.546 50.6557L215.284 48.7634L216.731 47.4533L217.745 46.8711Z" fill="#A6624F"/>
<path d="M132.906 82.3867H134.065V84.5701L132.327 84.8612L131.459 85.4435L130.879 86.608L130.59 87.918L130.445 94.6138L130.156 94.7594L128.273 94.6138V82.6778H130.3V83.8423H130.59L130.879 83.2601L131.748 82.6778L132.906 82.3867Z" fill="#312C2B"/>
<path d="M200.664 51.6738H201.388L201.678 51.9649L201.533 52.6928L200.52 53.8572L199.506 54.7306L199.361 55.4584L200.809 54.7306L202.691 52.9839L203.705 51.9649L204.284 51.8194L204.429 51.9649V52.9839L201.678 57.2051L202.836 56.3318L204.284 55.1673L204.863 54.8762L204.718 55.4584L202.402 57.6418L200.954 59.243L200.23 60.1163L199.796 60.2619L199.506 59.6797L199.651 58.8063L201.099 56.1862L201.678 55.3128L199.94 56.6229L199.072 56.7684L198.493 56.0406L198.203 55.0217L199.217 52.9839L200.23 51.9649L200.664 51.6738Z" fill="#A6624F"/>
<path d="M179.236 31.4414H180.104L180.539 32.3148L180.973 34.3526L181.697 35.8082L182.855 36.8271L184.448 37.4094L185.751 37.7005L186.185 38.1372V39.0106L185.606 39.4472H184.013L182.131 38.7194L180.828 37.7005L179.815 36.536L178.946 34.7893L178.512 33.1881L178.656 32.1692L179.236 31.4414Z" fill="#FEFEFE"/>
<path d="M254.521 91.8486H255.534L256.258 92.2853L256.548 92.722V93.8865L255.969 94.6143L255.679 94.7598H254.521L253.797 94.1776L253.652 93.8865V92.722L254.231 91.9942L254.521 91.8486Z" fill="#362E2D"/>
<path d="M208.189 91.8486H209.202L209.926 92.2853L210.216 92.8676V93.8865L209.637 94.6143L209.347 94.7598H208.189L207.465 94.1776L207.32 93.8865V92.722L207.899 91.9942L208.189 91.8486Z" fill="#352E2C"/>
<path d="M179.815 52.9844V53.4211L178.367 54.8767L176.919 55.8956L176.195 56.0411V55.0222L176.919 54.2944L178.657 53.4211L179.815 52.9844Z" fill="#FAF7F0"/>
<path d="M223.536 56.624L224.694 56.7696L224.55 57.9341L223.97 58.953L223.247 59.5352L222.957 59.0986V57.9341L223.536 56.624Z" fill="#FAF6F0"/>
<path d="M221.947 49.9277H222.67L222.815 50.0733L222.67 51.0922L222.091 51.6745L221.223 51.5289V50.51L221.947 49.9277Z" fill="#A6624F"/>
<path d="M139.568 49.9277H140.292L140.437 50.6555L139.857 51.5289L139.134 51.6745L138.699 51.2378L138.844 50.51L139.568 49.9277Z" fill="#A6624F"/>
<path d="M230.921 52.2559L231.211 52.4014L231.066 52.9837L229.763 54.0026L229.039 54.1481L229.618 53.1292L230.487 52.4014L230.921 52.2559Z" fill="#F8F2E7"/>
<path d="M121.471 52.4023H122.195L121.906 53.1301L120.458 54.1491H120.023L120.313 53.4213L121.471 52.4023Z" fill="#F8F2E8"/>
<path d="M173.155 52.2559L173.59 52.4014L173.3 53.1292L171.997 54.0026L171.418 54.1481L171.708 53.4203L172.866 52.4014L173.155 52.2559Z" fill="#F8F1E7"/>
<path d="M186.187 49.9277L186.332 50.2189L185.318 51.82L184.305 52.6934L184.594 51.9656L185.608 50.51L186.187 49.9277Z" fill="#F8F2E7"/>
</svg>
