<svg width="108" height="120" viewBox="0 0 108 120" fill="none" xmlns="http://www.w3.org/2000/svg">
<path d="M76.8773 0H96.4367L100.666 0.075519L102.629 0.151038L103.158 0.302076L103.611 0.830709L104.366 2.11453L105.272 3.1718L105.952 4.00251V4.15355H106.103L106.405 4.60666L106.783 4.98426L107.311 5.81496L107.387 6.79671L107.311 24.0906L107.16 35.1163L107.085 60.1887L106.934 63.7381L106.783 64.7198L106.33 65.2484H106.179L106.028 65.5505L105.499 65.9281L105.197 66.2302L104.744 66.3812H103.611L103.007 66.3057L101.194 66.2302L99.382 66.3057H87.2234L75.5179 66.3812L65.7759 66.3057H8.15477L1.88668 66.1547L0.980449 66.0791L0.376296 65.7771L0.300776 65.7015L0.149738 63.6625V49.5405L0.0742188 45.84V8.30709L0.527334 6.72119L1.28253 4.90874L1.9622 3.85147L2.79291 2.86972L3.17051 2.49213L4.15226 1.66142L5.20952 0.906228L5.81368 0.453114L6.56887 0.377595L10.1183 0.302076H39.7218L48.1044 0.226557L68.4191 0.151038L70.9112 0.075519L76.8773 0Z" fill="#0E6EBB"/>
<path d="M104.368 67.2881L105.047 67.5146L106.633 67.6657L107.086 67.8167L107.313 68.4209L107.388 69.4781V72.4989L107.313 86.2434L107.237 92.0583V112.524H107.086V113.279L106.86 114.261L106.482 114.941L105.802 115.847L104.896 116.98L104.519 117.508H104.368L104.216 117.81L103.763 118.339L103.386 118.641H103.235V118.792L102.404 119.245L101.8 119.547L101.196 119.774L100.214 119.849L99.0812 120H11.2524L6.26809 119.925L4.83323 119.849L4.07804 119.623L3.39836 118.943L2.94525 118.414L2.49213 117.584L1.81246 116.3L1.20831 115.016L0.604154 114.11L0.151038 113.279L0.0755192 112.826L0 111.014L0.0755192 108.446L0.151038 103.915L0.226558 70.3844L0.302077 68.1943L0.90623 67.9678L1.35935 67.7412H2.56765L2.94525 67.8167L20.1636 67.8922L39.421 67.8167H46.5953L48.5588 67.8922H78.842L87.7533 67.8167H99.3833L100.214 67.6657H101.724L103.99 67.5902V67.4391L104.368 67.2881Z" fill="#0E6EBB"/>
<path d="M48.408 9.51562H54.4495L58.452 9.89322L59.8114 10.1198L59.9624 10.1953L61.6238 10.4219L64.7201 11.1015L67.0612 11.7057L69.2513 12.3098L70.4596 12.6874L71.6679 13.1405L74.3866 14.2733L77.5584 15.7837L78.087 16.0103L79.3708 16.6899L80.0505 17.0675L80.7302 17.5962L81.4854 18.1248L82.4671 18.8045L83.2978 19.2576L84.2041 19.9372L85.0348 20.5414L86.092 21.2966L86.9228 21.9007L88.4331 23.0335L89.0373 23.6377L90.2456 24.6949V24.846L90.5477 24.997L91.5294 25.9788V26.1298H91.6805V26.2808L91.9825 26.3564V26.5829L92.2846 26.734L93.2664 27.7157L93.946 28.5464L94.5502 29.1506L95.0788 29.7547L95.9851 30.7365L96.6647 31.5672L97.4954 32.6244L98.4772 34.0593L99.4589 35.6452L99.8365 36.4004L100.063 37.0801V37.6842L99.8365 37.9863L99.61 38.5149L98.8548 39.4212L98.3261 40.4029L97.873 41.0826H97.722L97.6465 41.4602L97.0423 42.2909L96.8913 42.593H96.7402L96.5892 42.9705L95.9851 43.7257L95.9095 43.8768H95.7585L95.683 44.2544L94.9278 45.0851L94.3992 45.6892L94.0216 46.1423L93.7195 46.2934L93.4929 46.671L92.8888 47.1996L92.5867 47.5017L91.5294 48.4079L91.4539 48.6345L91.1518 48.7855L90.6987 49.3141H90.5477V49.5407L90.1701 49.9183L89.9435 49.9938L89.4149 50.598L89.1128 50.749V50.9L88.5087 51.2021L87.5269 51.9573L86.6962 52.5615L86.3186 52.788L85.5634 53.3922L84.7327 53.9208L84.3551 54.2229L83.4489 54.676L82.014 55.4312L80.9567 55.8843L80.0505 56.2619L79.2953 56.564L77.2563 57.1681L76.6521 57.4702L74.5376 58.0743L72.9517 58.2254L72.8762 58.3764L71.6679 58.603L70.384 58.9051L69.0247 59.2827L67.8164 59.6602L67.1367 59.8113H66.457L64.7201 60.0378L62.1525 60.1889L61.7749 60.2644L57.5458 60.4154L55.8088 60.491L49.9939 60.3399H49.0876L48.559 60.2644L43.8013 60.0378L42.3664 59.8868L41.4602 59.8113H40.6295L39.6477 59.5092L38.8925 59.2827L38.0618 59.0561L36.4004 58.6785L36.2494 58.603L34.9655 58.4519V58.3009L33.9083 58.2254L32.7755 57.9988V57.8478L31.4917 57.6968L30.2078 57.3192L29.6037 57.0926L28.9995 56.9416L27.5647 56.4884L26.2808 55.8088L25.2236 55.3557L24.0153 54.7515L22.4293 53.9208L20.919 53.0146L20.6169 52.788L20.0883 52.5615L18.6534 51.5797L17.5206 50.6735L17.0675 50.3714L16.3123 49.6917L15.7081 49.1631L14.7264 48.2569L12.9139 46.4444L12.3853 45.8403L11.6301 44.8585L11.177 44.2544L10.7239 43.4992L9.74212 42.2909L9.13797 41.3091L8.91141 40.9315L8.30726 39.7232L7.77862 38.7415L7.17447 37.5332V37.1556H7.02343L6.94791 37.0045V36.5514H6.79688V36.0228L7.02343 35.4186L7.55207 34.5879L8.30726 33.6817L8.98693 32.851L9.74212 32.0203L10.1197 31.4917H10.2708L10.4218 31.1896L11.026 30.4344L11.9322 29.4526L12.6119 28.6975L13.216 28.0933L13.8202 27.3381L14.9529 26.1298L16.0857 25.0725L17.0675 24.1663L17.3696 24.0153V23.8642L18.1248 23.2601L18.8799 22.5049L19.2575 22.2028H19.4086V22.0518L19.7862 21.7497H19.9372V21.5987L20.4659 21.2211H20.6169L20.6924 20.9945L21.5231 20.3148L22.8069 19.2576L23.6377 18.6534L25.0725 17.5962L25.9032 17.0675L26.2808 16.7655L27.1871 16.1613H27.3381V16.0103L28.5464 15.3306L29.1506 15.0285L29.6792 14.802L30.5099 14.4244L32.3979 13.5937L33.1531 13.2161L34.3614 12.7629L35.1166 12.4609L36.3249 12.0833L38.5149 11.4036L40.1764 10.9505L41.9133 10.4219L43.7258 9.96874L45.4627 9.66666L48.408 9.51562Z" fill="#FDFDFD"/>
<path d="M36.4759 74.3105H37.2311L39.0435 74.5371L40.2518 74.8392L41.1581 75.2168L41.9888 75.8209L42.5174 76.4251L42.8195 77.4068V78.6151L42.6685 79.2948L42.3664 79.8234L41.9133 80.3521L41.3091 80.8807L41.007 81.1828H40.856V81.3338L40.3274 81.7869L39.6477 82.1645L39.0435 82.3911L37.9863 82.5421L37.3066 82.9197L37.1556 83.2218V84.0525L37.2311 84.4301L37.9863 84.7322H39.2701L41.2336 84.6567L47.9548 84.5056H50.4469L53.5432 84.4301H54.827L57.9233 84.3546L61.9259 84.2035L63.2097 84.128H68.345L74.0844 83.977L76.199 83.9015H90.4721L91.1518 83.8259H93.8705L94.3236 83.7504L96.1361 83.6749L96.8157 83.5994L99.761 83.4483H100.743L101.8 83.7504L102.329 84.0525L102.782 84.2035L103.084 84.4301V84.5811H103.235L103.537 84.9587L103.688 85.9405L103.612 89.943L103.537 90.9247H103.386V92.8882L103.159 95.0783L103.008 95.8335L102.857 97.4194L102.555 99.0053L102.404 99.3829L102.253 100.44L101.951 102.026L101.649 105.047L101.498 106.482L101.347 107.463L100.894 109.125L100.29 110.409L99.6099 111.466L98.9303 112.07L98.3261 112.372L97.6464 112.599L81.5608 112.674H77.7849L71.8189 112.75L71.0637 112.825L66.6836 112.901L63.7383 112.976H62.681L60.7931 113.052L58.1499 113.127L56.9416 113.203H55.3557L54.525 113.278H49.8428L49.1631 113.354H48.1814L47.4262 113.278H46.2934L45.0096 113.429L41.1581 113.354L40.4029 113.278H36.3248L35.4186 113.354H29.3016L27.6401 113.203H26.4318L25.7522 113.278L24.997 113.656L23.6376 114.638L22.7314 115.091L21.9762 115.544L21.221 115.846L20.1637 116.45L18.5778 117.054L17.6716 117.205L16.8409 117.281H14.3488L13.1404 117.13L11.6301 116.828L10.4973 116.45L9.28897 115.846L8.2317 115.242L7.47651 114.713L6.94787 114.109L6.34372 113.58V113.354L6.11716 113.278L5.36197 112.07L4.98438 111.013V109.276L5.21093 108.37L5.89061 107.086L6.72132 106.18L7.47651 105.575L8.45826 104.971L9.51553 104.443L10.5728 104.292H11.328L12.2342 104.443L13.367 104.896L14.6508 105.5L15.406 105.953L16.0102 106.104L16.3878 105.802L16.8409 104.896H16.9919L17.0674 104.367L17.5206 103.008L18.0492 101.573L18.4268 100.591L18.7289 98.3256L18.8799 96.8152L19.182 95.6069L19.4085 95.0783L19.9372 93.1903L20.3148 92.0575L20.5413 90.9247L21.221 88.1305L21.5231 86.9222L21.7496 85.6384V85.1098L21.9762 84.4301L22.0517 84.3546V83.4483L21.6741 83.0708L21.372 82.9197L20.6168 82.8442L20.0127 82.4666L19.5596 82.24L19.2575 81.8624L18.9554 81.2583V80.8807H18.8044L18.6534 80.5031L18.5023 79.5214L18.4268 79.2193V77.7089L18.5778 77.1803L19.182 76.274L19.9372 75.5189L20.6924 75.1413L21.372 74.9147L22.9579 74.6881H24.0152L25.9787 74.5371H27.7157L28.0177 74.4616H29.4526L29.9057 74.5371H32.6244L32.9265 74.6126V74.4616H33.7572L34.2103 74.5371H36.0983L36.4759 74.3105Z" fill="#F1FDFD"/>
<path d="M57.2421 17.4443H58.2994L60.0363 17.5199L62.9061 17.8219L64.9451 18.1995L66.9086 18.6526L68.8721 19.1813L70.0804 19.4833L72.1949 20.0875L73.4787 20.4651L74.7626 20.9182L76.575 21.7489L78.6896 22.8062L79.5958 23.1838L80.6531 23.7879L82.0124 24.5431L83.8249 25.6759L84.6556 26.3556L84.8821 26.5821L85.2597 26.7332L86.0149 27.4128L86.3925 27.7904L86.6946 28.3191L87.2232 28.8477L87.7519 29.4519L88.356 30.1315L89.0357 30.9622L89.8664 31.7929L90.3951 32.3971L91.2258 33.3788L91.6034 33.7564L92.2075 34.5872L92.7361 35.2668L92.9627 35.7199L93.2648 36.0975V36.7017L92.7361 37.5324L91.9054 38.5897L91.2258 39.4204L90.4706 40.3266L89.8664 41.1573L88.205 43.2718L87.7519 43.6494L86.0905 45.3109L84.8821 46.3681L83.9759 46.9723L83.2207 47.5764L82.39 48.1051L81.6348 48.7092L80.9551 49.0868L80.4265 49.5399L79.9734 49.691L79.5958 49.9175L78.463 50.6727L77.9344 51.1258H77.7833L77.7078 51.3524L76.8016 51.8055L76.273 52.032L75.4422 52.4852L74.4605 52.9383L72.7236 53.6935L71.9684 53.9955L70.9111 54.4487L70.0049 54.8262L68.4945 55.4304L67.0596 56.0345L66.3799 56.4121L64.643 56.7897L62.3019 57.0163L60.3384 57.1673L59.3567 57.3939L57.4687 57.6204L55.8828 57.7715H54.8255L54.2214 57.4694L54.0703 57.3184V56.8653L54.5234 56.2611L54.8255 55.7325L55.1276 55.4304L55.5807 54.5997L55.8073 54.1466H55.9583L56.1093 53.6935L57.0156 52.1831L57.3932 51.5789L58.1483 49.993L58.6015 49.0113L58.7525 48.1806L58.9035 48.1051L59.4322 46.5947L59.7343 45.3864L60.0363 43.8005L60.3384 42.8187L60.716 42.2901V41.3083L60.867 40.5532H61.0181L61.0936 39.5714L61.3957 38.4386V36.7772L61.4712 36.0975L61.3202 33.6054H61.1691L60.9426 32.3216L60.716 30.7357L60.565 29.9805H60.4139L59.9608 28.3946L59.7343 26.9597L59.4322 25.9025V25.4494H59.2811L58.6015 23.8635L57.3932 21.5224L56.638 20.3141L55.8828 19.1813L55.3541 18.1995L55.2786 17.7464L55.5807 17.5954L57.2421 17.4443Z" fill="#0E6EBB"/>
<path d="M35.3445 76.5762H37.2324L37.3835 76.6517H38.4407L39.1959 76.9538L40.0266 77.6334L40.1022 78.0866L39.8756 79.3704L39.347 79.8235L38.4407 80.1256L36.5528 80.5787L35.571 80.7297L34.8913 81.0318L34.3627 81.5604L34.0606 82.5422L33.8341 83.5994L33.683 84.8077L33.4565 86.3181L33.3054 86.8468L33.0789 88.2061L32.5502 90.0186L32.2482 91.0003L31.7195 92.7372L31.1154 95.2294L29.9826 99.7605L29.454 101.346L28.7743 103.159L28.3212 104.292L27.868 105.5L27.717 106.029L27.4149 106.482L26.5842 108.219L25.7535 109.578L25.1494 110.333L24.2431 111.39L23.4879 112.07L22.2796 113.052L21.5244 113.58L20.9958 114.034L19.9385 114.562L19.2589 114.713H17.8995L17.0688 114.789L16.6157 115.015L15.785 115.091H14.5011L12.9908 114.411L12.009 114.26L10.8007 114.336L10.4231 114.185L9.5924 113.58L8.98825 112.825L8.23306 112.07L7.6289 111.164L7.40234 110.409V109.049L7.70442 108.219L8.45961 107.312L9.66792 106.859L10.4986 106.633L12.0845 106.708L13.1418 107.01L13.4439 107.312L13.9725 107.766L14.3501 108.294L14.7277 108.445L14.8032 108.672V109.654L14.5011 110.333H14.3501L14.2746 111.164V112.221L14.7277 112.448H15.5584L16.8422 111.995L17.5219 111.39L18.2016 110.258L18.4281 109.956L18.7302 109.125L19.1078 107.463L19.3344 106.708L19.712 105.273L19.863 104.669L20.3161 103.688L20.6937 102.479L20.9958 101.271L21.2979 99.6095L21.4489 98.7032L21.8265 97.5705L22.2041 95.8335L22.3551 94.7007L22.7327 93.4169L23.1103 92.4352L23.2614 91.9821L23.4124 91.2269L23.79 90.3962L23.9411 89.943L24.0921 89.2634L24.1676 89.1123L24.3942 86.6957L24.6962 85.4119L25.1494 84.6567L25.527 83.2218V82.5422L25.3759 82.0135L24.3942 81.0318L24.0921 80.8808L23.4124 80.7297L22.9593 80.5032L21.751 80.2766L21.1468 79.9745L20.8448 79.5969V79.1438L20.6937 78.9173L20.7692 78.3886L21.0713 77.709L21.4489 77.3314L21.751 77.1803L21.9776 76.8782L22.7327 76.8027H23.79L24.6962 76.6517L26.1311 76.7272H28.1701L28.6988 76.8027L31.9461 76.8782L32.3237 76.8027H34.3627L35.3445 76.5762Z" fill="#0E6EBB"/>
<path d="M64.8721 88.2822H66.1559L66.9111 88.4333L67.3642 88.8109L67.6663 89.1885L67.8174 89.566L67.9684 90.4723L68.2705 91.2275L68.497 91.454L68.8746 91.6806L69.1012 91.9071L69.2522 92.8889L69.4788 93.342L69.5543 93.6441L69.6298 95.9096L69.9319 97.4955L70.385 98.4018L70.5361 99.0059L70.9137 99.459L71.3668 99.3835L71.7444 98.7794L72.3485 97.5711L72.7261 96.5893L72.8772 95.381L72.9527 95.3055L73.0282 94.7013V93.191L72.8772 92.0582L72.8016 91.9071L72.8772 91.2275L73.1792 90.6233L73.7079 89.8681L74.2365 89.3395L74.312 89.1129L74.6896 88.8109L74.7651 88.6598L75.8224 88.3577H76.6531L77.5593 88.5088L78.0125 88.8109L78.239 89.1885L78.3145 89.9436L78.1635 90.8499H78.0125L77.7104 92.0582L77.6349 92.6623H77.4838L77.2573 94.4748L77.1817 95.0034H77.0307L76.9552 95.6831L76.6531 96.5893L76.5021 97.4955L75.7469 99.0059L75.3693 100.139L75.2938 100.667V105.425L75.0672 106.331L74.6141 107.011L73.8589 107.842H73.7079L73.5568 108.144L72.7261 108.748L71.8199 108.974H70.6116L69.4788 108.597L69.2522 108.37L68.8746 108.068L68.5726 107.615L68.195 107.237L67.5908 106.331L67.2132 105.198L67.2887 104.67L67.3642 103.839L67.4398 103.688V102.933L67.1377 101.876L66.9867 101.271L65.9294 98.0997L65.5518 97.0424L65.0987 96.4383L64.8721 96.2872H64.419L64.1169 96.5138L63.9659 97.1935L63.8148 99.2325L63.3617 101.347L63.0597 102.555L62.8331 103.084L62.6821 103.915L62.38 105.274L62.2289 105.727L62.0024 107.464L61.7758 108.219L61.2472 108.672L60.7186 108.899H59.2837L58.5285 108.748L57.3202 108.219L56.716 107.691L56.6405 107.389H56.4895L56.1119 106.784L55.8098 106.256L55.5833 105.425L55.4322 104.141V103.311L55.1301 102.555L54.9791 102.404V102.178L54.7525 102.102L54.1484 101.271L53.7708 100.139L53.6953 100.063L53.7708 99.3835L53.9218 98.3263L53.9974 98.0242V97.3445L53.8463 96.4383L53.3932 95.0034L52.789 93.8706L52.487 92.6623L52.2604 91.9827L51.9583 91.0009L51.8828 90.5478V89.7171L52.0339 89.1885L52.1094 88.8864L52.638 88.4333L52.9401 88.3577H54.9791L55.8098 88.5843L56.1874 89.1129L56.6405 90.3212L56.8671 91.6806L57.0181 92.2092L57.1692 93.2665H57.3202L57.5468 93.6441L57.6978 94.2482L57.9243 94.3237L57.9999 94.4748L58.0754 95.381L58.1509 95.6076L58.3019 97.269L58.3775 97.42L58.3019 98.4018L58.2264 98.7794L58.5285 99.2325L58.7551 99.8366L59.1327 99.9122L59.3592 99.2325L59.6613 98.1752L60.0389 97.4955L60.341 96.8914L60.7941 96.3628L61.1717 95.0034L61.3227 93.8706L61.4738 92.9644L61.5493 91.454L61.7758 90.7744H61.9269L62.0779 90.0947L62.6821 89.415L63.0597 89.1885L63.4373 88.7353L64.4945 88.3577L64.8721 88.2822Z" fill="#0E6EBB"/>
<path d="M37.8358 20.6914H38.5154L39.1196 20.9935L39.8748 21.6732L40.781 22.7304L41.2341 23.3346L41.3852 23.4856V23.7122H41.5362L41.9893 24.4674L42.5179 25.2981L42.7445 25.9022L43.0466 26.3553L43.4242 27.3371L43.8018 28.2433V28.4699H43.9528L44.0283 28.9985H44.1794L44.708 30.2068L44.7835 30.6599H44.9346L45.3122 31.7927L45.6897 33.9072L45.7653 34.7379V35.6442L45.6897 35.7197L45.5387 36.928L45.1611 38.2118L44.7835 39.1936L44.1794 40.0998L43.4997 40.9305L42.8955 41.6102L42.5179 41.8367L41.9138 42.2898L41.8383 42.4409L41.0076 42.894L39.8748 43.4226L39.2706 43.6492L38.2889 43.8002H37.7602L35.4947 42.9695L34.1353 42.4409L33.1536 41.9123L32.0963 41.0815L31.7942 40.7795V40.6284L31.4921 40.4774L30.7369 39.4201L29.8307 37.7587L29.5286 36.928L29.2266 35.7197V34.889L29.3021 34.1338L29.4531 33.6807L29.6042 32.7744L29.9062 31.6417L30.2083 30.8865L30.5104 29.9802H30.6614L30.7369 29.6782L30.9635 29.1495L31.5677 28.0168L31.7187 27.9412L32.1718 27.035L33.2291 25.5246L33.9843 24.5429L35.0415 23.108L35.4191 22.5794H35.5702L35.7212 22.2773L36.0988 21.8997L36.7785 21.3711L37.3826 20.918L37.8358 20.6914Z" fill="#0E6EBB"/>
<path d="M87.6027 88.1309H89.1131L90.0193 88.584V88.735L90.3214 88.886L91.5297 90.0944L91.6052 90.3209L91.8317 90.3964L92.2093 90.8495L92.2849 91.3027L92.5114 92.1334L92.4359 93.7948L92.738 94.3234L93.0401 94.701L93.2666 95.1541L93.6442 95.5317L93.7197 95.9093H93.8708L94.1728 96.6645V96.8911H94.3239L94.5504 97.8728L94.626 98.477H94.777L95.0035 99.7608H95.1546L95.6077 100.743L96.0608 101.875L96.3629 102.857L96.7405 103.763L96.8915 103.839L97.1181 104.594L97.6467 105.5L97.8733 106.18V107.162L97.2691 107.992L96.665 108.672L96.2119 108.899H95.2301L94.7015 108.748L94.1728 108.445L93.6442 107.766L93.4176 107.615V107.388H93.2666V107.162H93.1156L92.1338 105.047L91.6807 104.216L91.4541 103.99V103.839H91.3031V103.688H91.1521V103.537L90.7745 103.461H89.8682L89.1131 103.612H88.1313L87.3761 103.386H86.772L85.8657 103.688L85.1861 104.065L84.3553 104.745L83.6001 105.727L83.2981 106.331L82.996 107.313L82.845 108.37L82.6184 108.823L81.8632 108.899H80.2018L79.22 108.672L78.6914 108.445L78.4648 108.068V106.784L78.8424 105.576L79.2956 104.67H79.4466L79.5976 104.292L79.8242 103.763H79.9752L80.0507 103.31H80.2018L80.3528 102.782L80.5794 102.026L80.7304 101.196L81.4856 99.3077L81.7877 98.8546L82.2408 98.3259L82.6184 97.7218V96.2869L82.845 95.0786L83.3736 94.0213L83.6001 93.7948L84.2043 92.511L84.5064 91.5292L85.2616 90.1699H85.4126V89.9433H85.5636L85.6392 89.6412L86.1678 89.1126L86.3944 88.735L86.8475 88.5085H86.9985V88.3574L87.6027 88.1309Z" fill="#0E6EBB"/>
<path d="M41.7628 89.0361H42.9711L43.6508 89.2627L44.0284 89.6403L44.406 89.9424L44.6325 90.32V90.622L44.8591 90.6976L45.0857 91.4527H45.3122L45.7653 92.359L46.1429 93.3407L46.3695 94.0204H46.5205L46.8981 94.8511L47.2757 95.7573V95.9839H47.4267L47.6533 96.8901V97.1167H47.8043L47.8799 97.4943H48.0309L48.2575 98.2495L48.4085 99.0046L48.6351 99.0802L48.8616 100.137V100.364H49.0127L49.9944 103.007L50.221 103.989L51.5048 107.01L51.8824 107.614L52.1089 108.293L51.7313 108.369L51.2782 108.445L50.2965 108.747L49.4658 108.898H48.333L47.8043 108.445L46.8226 106.632L46.5205 106.103L46.294 105.877L45.9919 105.197L45.3122 104.669L45.0857 104.518L44.6325 104.442L43.1977 104.366H42.1404L41.9138 104.442H40.479L39.8748 104.366L39.1196 104.593L38.742 104.82H38.591L38.5155 105.046L37.8358 105.499L37.4582 106.103L37.0806 106.934L36.703 108.671L36.552 108.822H33.7578L32.3984 108.596L32.0208 108.445L31.9453 108.369V107.614L32.3229 106.783L32.8515 105.575L33.0781 105.046L33.8333 103.309L34.1354 102.554H34.2864L34.3619 102.176L34.9661 100.591L35.8723 98.325L36.4009 96.8146H36.552L36.6275 96.3615L36.8541 95.9084L37.0051 95.3042H37.1561V95.0021H37.3072V94.4735L37.4582 94.0204H37.6093L37.8358 93.1897L38.1379 92.2835L38.2889 91.7548H38.44L38.591 91.3772L38.8931 90.32L39.2707 89.7913L39.6483 89.6403V89.4892L39.9503 89.3382L41.1587 89.2627V89.1117L41.7628 89.0361Z" fill="#0E6EBB"/>
<path d="M41.4609 96.0605L41.8385 96.1361V96.2871L42.2161 96.4381L42.6692 96.8157L42.9713 97.4199L43.2734 98.1751L44.1041 99.761V100.365L43.651 100.743L42.5937 100.969L41.9895 101.045H41.1588L40.3281 100.667L40.1016 100.441V98.8548L40.4792 97.3444H40.6302L40.7812 96.6647H40.9323L41.0078 96.3626H41.1588L41.2344 96.1361L41.4609 96.0605Z" fill="#FCFDFD"/>
<path d="M87.375 94.3994L87.7526 94.4749V94.626L88.1302 94.777L88.5833 95.1546L88.8854 95.7588L89.1874 96.5139L90.0181 98.0998V98.704L89.565 99.0816L88.5078 99.3082L87.9036 99.3837H87.0729L86.2422 99.0061L86.0156 98.7795V97.1936L86.3932 95.6832H86.5443L86.6953 95.0036H86.8463L86.9219 94.7015H87.0729L87.1484 94.4749L87.375 94.3994Z" fill="#FCFDFD"/>
</svg>
