<svg width="273" height="100" viewBox="0 0 273 100" fill="none" xmlns="http://www.w3.org/2000/svg">
<path d="M49.3931 0H60.0439L63.6385 0.398406L67.4994 1.19522L71.8929 2.52324L75.6207 3.98406L77.8839 5.04648L80.2804 6.3745L82.6768 7.83533L84.807 9.29615L86.6709 10.757L88.4016 12.2178L89.9992 13.6786L92.6619 16.3347L93.8601 17.7955L95.724 20.1859L97.7211 23.1076L99.3187 25.8964L100.916 29.0837L102.248 32.4037L103.579 36.5206L104.112 38.7782L272.66 38.911V63.8778L103.446 64.0106L103.046 65.073L101.981 68.2603L100.251 72.1116L98.3867 75.5644L96.2566 78.7517L94.3927 81.2749L92.7951 83.1341L91.3306 84.7278L88.9342 87.1182L87.4697 88.3134L85.3395 90.0398L83.0762 91.6335L80.5467 93.2271L77.6177 94.8207L74.023 96.4143L70.2953 97.7424L66.9669 98.672L62.4403 99.6016L60.4433 99.8672L56.9818 100H52.7214L47.2629 99.6016L44.3339 99.0704L40.2068 98.008L35.9464 96.5471L32.8843 95.2191L30.0885 93.7583L26.7601 91.7663L24.3637 90.0398L22.6329 88.579L21.3016 87.5166L19.3046 85.6574L17.7069 84.0638L16.5087 82.6029L15.0443 80.8765L13.3135 78.4861L11.4496 75.5644L10.1183 73.174L8.25437 69.3227L7.05615 66.0027L6.52361 64.1434L6.39048 64.0106L0 63.8778V38.911H5.7248L5.99107 37.583L7.05615 33.9973L7.9881 31.3413L9.45258 28.0212L10.9171 25.0996L12.5147 22.4436L14.3786 19.7875L15.8431 17.9283L17.3075 16.2019L19.1714 14.2098L20.2365 13.1474L21.3016 12.2178L23.0323 10.757L25.695 8.76494L28.3577 7.03851L31.1536 5.44489L34.0826 3.98406L37.8103 2.52324L41.8044 1.32802L46.0647 0.398406L47.7955 0.132802L49.3931 0Z" fill="#4E6F3A"/>
<path d="M52.9879 14.3418H56.1831L59.2452 14.6074L62.4405 15.1386L65.902 16.0682L68.8309 17.1306L72.4256 18.8571L75.4877 20.7163L77.6178 22.3099L79.4817 23.9035L80.8131 25.0988L83.2095 28.0204L84.8071 30.2781L86.2716 32.8013L87.7361 35.8557L88.8012 38.6446V38.9102L56.05 39.1758H60.976L62.973 39.3086H70.0291L71.4936 41.8318V42.8943L70.2954 44.2223L68.9641 45.9487L68.0321 47.1439L67.2333 48.0735L66.7008 47.9407L65.5026 46.6127L64.4375 45.1519L63.7718 44.6207L63.2393 43.8239L62.3073 43.0271L61.9079 42.4958L62.1742 43.0271L63.6387 44.8863L65.5026 47.1439L66.967 49.0031L67.4996 48.3391L68.9641 46.6127L70.2954 44.8863L71.7599 43.1599L72.4256 42.2302H74.6889L74.822 54.5808V57.6353L74.6889 58.8305H72.4256V46.0815L71.7599 46.7455L70.4286 48.3391L69.896 49.136L70.4286 48.6047L70.9611 48.3391L71.2274 47.9407L71.7599 47.8079L71.893 48.0735V51.3936L72.0262 52.8544V56.0417L71.7599 57.5025L70.1623 60.4241L69.0972 61.885L67.899 63.3458L67.6327 63.6114L87.603 63.877L87.2036 65.0722L85.8722 67.7282L84.2746 70.2515L83.0764 71.8451L82.0113 73.1731L80.8131 74.5012L78.8161 76.4932L76.9522 77.954L75.0883 79.282L72.4256 80.8757L70.1623 82.0709L67.6327 83.1333L64.3043 84.1957L60.7097 84.9925L57.3813 85.3909H52.3222L48.5944 84.8597L45.1329 84.0629L41.5383 82.8677L38.8756 81.6725L36.346 80.3444L33.6833 78.618L31.9525 77.29L30.0887 75.6964L28.3579 73.9699L26.8934 72.1107L25.6952 70.5171L24.0976 67.9939L22.2337 64.4082L22.3668 63.877L42.4702 63.7442V63.4786L41.1389 62.0178L39.5412 59.6273L38.343 57.1041L37.6774 55.3777L37.1448 52.9872L36.7454 50.0656L37.0117 47.9407L37.5442 45.5503L38.343 43.1599L39.4081 41.035L40.4732 39.1758L40.6063 39.043L20.9023 38.9102L21.7012 36.7854L23.0325 33.7309L24.2307 31.4733L26.3609 28.286L28.0916 26.1612L29.2898 24.8332L30.4881 23.6379L31.9525 22.4427L34.0827 20.8491L36.8785 19.1227L39.9406 17.529L43.4022 16.201L46.7305 15.2714L50.192 14.6074L52.9879 14.3418Z" fill="#4E6F39"/>
<path d="M51.2581 1.46094H57.9149L61.5095 1.85934L65.6367 2.65616L68.5657 3.45297L72.5597 4.78099L75.6218 6.10901L77.752 7.17143L80.1484 8.49945L83.743 10.8899L85.4738 12.2179L87.3377 13.8115L89.0684 15.4052L90.9323 17.2644L91.8643 18.3268L93.595 20.4516L95.1926 22.7093L96.6571 25.0997L97.8553 27.2246L99.453 30.4118L100.784 33.8647L101.849 37.3175L102.116 38.3799V38.9111H91.7311L90.5329 35.4583L88.8022 31.8726L87.2046 29.2166L85.3407 26.5605L83.6099 24.5685L81.746 22.5765L79.6159 20.5844L77.3526 18.858L75.3555 17.53L72.5597 15.9364L69.7639 14.6083L66.4355 13.4131L63.3734 12.6163L60.3113 12.0851L56.7166 11.8195H52.5895L50.193 11.9523L46.9978 12.4835L43.6694 13.2803L40.341 14.4755L37.1458 15.9364L34.7494 17.2644L32.6192 18.7252L30.7553 20.186L29.0246 21.6469L25.9625 24.7013L24.7643 26.1621L23.4329 27.8886L21.8353 30.4118L20.2377 33.3334L18.9063 36.3879L18.1075 38.7783L17.9744 38.9111H7.58984L7.85611 37.5831L9.45373 32.8022L10.7851 29.4822L11.8502 27.3574L13.3146 24.7013L14.7791 22.4437L16.1105 20.5844L17.575 18.7252L19.0395 16.9988L21.9684 14.0771L23.4329 12.8819L25.0305 11.5539L27.2938 9.96027L29.5571 8.49945L32.3529 6.90582L34.8825 5.71061L38.2109 4.38258L41.5393 3.32017L45.9327 2.25775L48.7285 1.72654L51.2581 1.46094Z" fill="#FEFEFE"/>
<path d="M8.65267 63.877H19.0372L19.9691 65.869L21.4336 68.6578L23.1644 71.4467L24.3626 73.0403L25.5608 74.5011L27.0253 76.0947L29.5549 78.618L31.0193 79.8132L33.1495 81.4068L35.6791 83.0005L39.2737 84.8597L42.4689 86.0549L45.7973 86.9845L49.2588 87.6485L51.6553 87.9141H58.5783L62.3061 87.3829L66.0338 86.4533L69.0959 85.3909L72.2912 83.9301L75.2201 82.3364L77.4834 80.7428L79.3473 79.282L80.9449 77.8212L82.01 76.8916L82.942 75.9619L83.8739 74.8995L84.939 73.7043L86.5366 71.5795L88.1342 69.0562L89.9981 65.4706L90.7969 63.877H101.048L101.315 64.0098L100.915 65.6034L99.717 68.7906L97.8531 72.6419L96.6549 74.7667L94.9241 77.4228L93.3265 79.5476L92.1283 81.0084L90.6638 82.7349L87.7348 85.6565L86.2703 86.8517L84.6727 88.1797L82.4094 89.7734L80.4124 91.1014L77.084 92.9606L73.8888 94.4214L70.6936 95.6167L67.232 96.6791L63.1049 97.6087L59.9096 98.1399L58.4451 98.2727H51.389L48.5932 98.0071L45.1316 97.3431L42.4689 96.6791L38.2086 95.3511L35.2797 94.1558L31.9513 92.5622L29.1555 90.9686L25.8271 88.711L23.6969 86.9845L22.2324 85.7893L20.1023 83.7973L18.6378 82.2036L17.1733 80.4772L15.4425 78.2196L14.1112 76.3604L12.2473 73.1731L10.3834 69.4546L9.05207 66.0018L8.51953 64.4082L8.65267 63.877Z" fill="#FEFEFE"/>
<path d="M76.6859 39.1768H81.745L88.9343 39.3096L89.3337 40.2392L89.9994 43.1608L90.3988 46.0825V49.4025L89.3337 52.1914L88.2686 54.7146L88.0024 55.6442L88.4018 55.2458L90.6651 49.9337L93.1946 43.9576L93.8603 42.2312L93.9934 42.0984H95.7242L96.7893 44.2232L98.52 48.0745L101.05 53.6522L103.18 58.4331L103.313 58.9643L102.514 59.0971V60.0267L101.982 61.8859L101.715 63.4795L101.582 63.6124L103.047 63.7452L103.446 64.0108L103.047 65.0732L101.982 68.2604L100.251 72.1117L98.3869 75.5645L96.2567 78.7518L94.3928 81.275L92.7952 83.1343L91.3307 84.7279L88.9343 87.1183L87.4698 88.3135L85.3397 90.04L83.0764 91.6336L80.5468 93.2272L77.6178 94.8209L74.0232 96.4145L70.2954 97.7425L66.967 98.6721L62.4404 99.6017L60.4434 99.8673L56.9819 100H52.7216L47.2631 99.6017L44.3341 99.0705L40.2069 98.0081L35.9466 96.5473L32.8845 95.2193L30.0886 93.7584L26.7603 91.7664L24.3638 90.04L22.6331 88.5792L21.3017 87.5167L19.3047 85.6575L17.7071 84.0639L16.5089 82.6031L15.0444 80.8766L13.3136 78.4862L11.4498 75.5645L10.1184 73.1741L8.25451 69.3228L7.0563 66.0028L6.52376 64.1436L6.39062 63.878L8.38765 63.7452H15.5769V63.878L8.65392 64.0108L8.92019 65.206L9.98527 68.1276L11.0503 70.5181L12.648 73.7053L14.2456 76.3614L15.5769 78.2206L17.0414 80.0798L18.2396 81.5406L19.7041 83.1343L20.9023 84.4623L22.5 85.9231L23.9644 87.1183L25.9615 88.712L29.423 90.9696L32.2188 92.5632L35.8135 94.2896L39.4081 95.6177L42.8696 96.6801L47.1299 97.6097L49.5264 98.0081L51.3902 98.1409H58.4464L61.6416 97.7425L64.97 97.0785L68.1652 96.2817L72.5587 94.8209L75.6208 93.4928L77.8841 92.4304L81.4787 90.3056L83.3426 88.9776L85.4728 87.3839L87.2035 85.9231L88.8012 84.4623L89.4668 83.9311L90.3988 82.8687L91.7301 81.4078L93.1946 79.5486L94.526 77.8222L95.8573 75.8301L97.5881 72.9085L99.1857 69.7212L100.251 67.0652L101.316 64.0108H90.7982L88.9343 67.862L87.8692 69.7212L86.2716 72.1117L84.8071 73.9709L83.6089 75.2989L82.0113 77.0254L79.8811 79.0174L78.0172 80.4782L76.0202 81.939L74.0232 83.1343L70.9611 84.7279L67.6327 86.0559L64.5706 86.9855L61.5085 87.6495L58.5795 88.0479H51.6565L48.3281 87.6495L44.7335 86.8527L41.272 85.7903L38.4762 84.5951L35.414 83.0015L32.6182 81.1422L30.8875 79.8142L29.0236 78.2206L25.8283 75.0333L24.6301 73.5725L23.2988 71.8461L21.568 69.0572L20.2367 66.6668L19.0384 64.0108V63.878H22.3668L22.5 64.6748L23.8313 67.3308L25.2958 69.7212L26.8934 71.9789L28.3579 73.7053L29.2898 74.7677L30.6212 76.0957L32.0857 77.291L34.2158 78.8846L36.8785 80.4782L39.9406 82.0718L43.0027 83.2671L46.198 84.1967L49.3932 84.8607L52.3222 85.2591H57.3813L60.7097 84.8607L64.3043 84.0639L68.6978 82.6031L71.7599 81.1422L74.6889 79.4158L76.9522 77.8222L78.4166 76.627L79.748 75.4317L81.6119 73.5725L83.0764 71.7133L84.4077 69.854L86.0053 67.198L87.603 63.878H77.2184L75.0883 63.7452L75.2214 63.2139L76.4196 61.0891L77.2184 59.3627L77.4847 58.8315L78.0172 58.6987L78.1504 42.0984L77.751 41.9656L76.6859 39.4424V39.1768Z" fill="#4F6F3A"/>
<path d="M33.9494 38.9111H40.6062L40.8724 39.1767H40.473L40.2068 39.8407L38.7423 42.4968L37.8103 45.1528L37.2778 47.1449L36.8784 49.8009L37.1447 52.3241L37.6772 54.8474L38.2097 56.441L39.2748 58.8314L40.2068 60.4251L41.5381 62.2843L42.7363 63.6123L42.4701 63.8779H0V39.0439L33.9494 38.9111Z" fill="#4E6F39"/>
<path d="M52.9879 14.3418H56.1831L59.2452 14.6074L62.4405 15.1386L65.902 16.0682L68.8309 17.1306L72.4256 18.8571L75.4877 20.7163L77.6178 22.3099L79.4817 23.9036L80.8131 25.0988L83.2095 28.0204L84.8071 30.2781L86.2716 32.8013L87.7361 35.8557L88.8012 38.6446V38.9102H76.2865L74.9551 36.6526L73.7569 35.1917L72.2924 33.5981L70.6948 32.0045L68.9641 30.6765L66.5676 29.2156L64.3043 28.1532L61.5085 27.2236L59.5115 26.8252H50.9908L48.3281 27.3564L45.9317 28.1532L43.1359 29.4812L41.1389 30.8093L39.6744 32.0045L38.0768 33.4653L37.1448 34.3949L35.9466 35.8557L34.8815 37.3166L34.0827 38.7774L33.9496 38.9102H20.9023L21.7012 36.7854L23.0325 33.7309L24.2307 31.4733L26.3609 28.286L28.0916 26.1612L29.2898 24.8332L30.4881 23.6379L31.9525 22.4427L34.0827 20.8491L36.8785 19.1227L39.9406 17.529L43.4022 16.201L46.7305 15.2714L50.192 14.6074L52.9879 14.3418Z" fill="#FEFEFE"/>
<path d="M22.3636 63.877H35.4108L36.3428 64.8066L37.541 66.2674L39.538 68.2594L41.6682 69.853L44.0646 71.3139L46.5942 72.3763L48.3249 72.9075L50.8545 73.3059H59.5083L61.9047 72.9075L65.0999 71.8451L67.6295 70.5171L69.8928 68.9234L71.4904 67.4626L73.3543 65.6034L74.2862 64.541L74.8188 63.877H87.5997L87.2003 65.0722L85.869 67.7282L84.2714 70.2515L83.0731 71.8451L82.0081 73.1731L80.8099 74.5011L78.8128 76.4932L76.9489 77.954L75.085 79.282L72.4223 80.8756L70.1591 82.0708L67.6295 83.1333L64.3011 84.1957L60.7065 84.9925L57.3781 85.3909H52.319L48.5912 84.8597L45.1297 84.0629L41.535 82.8677L38.8723 81.6724L36.3428 80.3444L33.6801 78.618L31.9493 77.29L30.0854 75.6963L28.3547 73.9699L26.8902 72.1107L25.692 70.5171L24.0944 67.9938L22.2305 64.4082L22.3636 63.877Z" fill="#FEFEFE"/>
<path d="M49.3931 0H60.0439L63.6385 0.398406L67.4994 1.19522L71.8929 2.52324L75.6207 3.98406L77.8839 5.04648L80.2804 6.3745L82.6768 7.83532L84.807 9.29615L86.6709 10.757L88.4016 12.2178L89.9992 13.6786L92.6619 16.3347L93.8601 17.7955L95.724 20.1859L97.7211 23.1076L99.3187 25.8964L100.916 29.0837L102.248 32.4037L103.579 36.5206L104.112 38.7782L272.66 38.911V39.0438H76.4195V38.911H88.801L87.7359 36.255L86.804 34.1301L85.3395 31.3413L83.7419 28.9509L82.0111 26.6932L80.8129 25.3652L80.0141 24.4356L78.5496 23.2404L76.8189 21.7795L74.8218 20.4515L72.8248 19.2563L69.7627 17.6627L66.7006 16.4675L64.0379 15.6706L60.9758 15.0066L58.0468 14.6082L56.183 14.4754H52.9877L50.1919 14.741L46.7304 15.405L43.402 16.3347L40.6062 17.3971L37.2778 18.9907L34.482 20.7171L31.9524 22.5764L29.9554 24.3028L28.4909 25.7636L27.0264 27.6228L25.8282 29.2165L24.2306 31.7397L22.7661 34.5285L21.0353 38.7782L33.9494 38.911V39.0438H0V38.911H5.7248L5.99107 37.583L7.05615 33.9973L7.9881 31.3413L9.45258 28.0212L10.9171 25.0996L12.5147 22.4436L14.3786 19.7875L15.8431 17.9283L17.3075 16.2019L19.1714 14.2098L20.2365 13.1474L21.3016 12.2178L23.0323 10.757L25.695 8.76494L28.3577 7.03851L31.1536 5.44489L34.0826 3.98406L37.8103 2.52324L41.8044 1.32802L46.0647 0.398406L47.7955 0.132802L49.3931 0ZM51.257 1.46082L48.7274 1.72643L45.399 2.39044L41.5381 3.32005L37.1447 4.78088L33.4169 6.3745L30.621 7.83532L28.0915 9.42895L25.9613 10.8898L24.2306 12.2178L22.3667 13.8114L21.0353 15.0066L18.5058 17.5299L17.0413 19.3891L15.3105 21.6467L13.9792 23.6388L12.1153 26.826L11.0502 28.9509L9.98512 31.3413L8.25437 36.255L7.58869 38.5126V38.911H17.9732L18.5058 37.583L19.5708 34.7942L20.9022 32.0053L22.6329 29.0837L24.2306 26.826L25.695 25.0996L26.8933 23.7716L29.556 21.1155L31.4199 19.6547L33.1506 18.3267L35.6802 16.7331L38.476 15.2722L41.8044 13.9442L44.6002 13.0146L48.328 12.2178L50.1919 11.9522L52.5883 11.8194H56.7155L60.3101 12.085L63.3722 12.6162L66.4343 13.413L69.097 14.3426L71.7597 15.5378L74.2893 16.8659L76.8189 18.4595L78.5496 19.7875L80.0141 20.9827L82.1443 22.9748L84.1413 25.0996L85.3395 26.5604L86.9371 28.8181L88.5348 31.4741L90.1324 34.5285L91.1974 37.3174L91.73 38.911H102.115L101.981 37.8486L100.916 34.2629L99.7181 31.0757L98.1205 27.7556L96.9222 25.498L95.4578 23.1076L93.8601 20.8499L92.1294 18.7251L91.1974 17.6627L89.9992 16.3347L88.0022 14.3426L86.9371 13.413L85.2064 11.9522L82.8099 10.2258L80.6798 8.89774L78.949 7.83532L76.5526 6.5073L73.2242 5.04648L69.4965 3.71846L66.1681 2.78884L62.3072 1.99203L59.3782 1.59363L57.9137 1.46082H51.257Z" fill="#90A384"/>
<path d="M50.9905 26.6924H59.5111L61.9076 27.2236L64.304 28.0204L67.0998 29.3484L69.4963 30.9421L71.227 32.4029L73.4903 34.6605L74.9548 36.5197L76.2861 38.6446V38.9102L69.7625 39.043H40.606L33.9492 38.9102L34.748 37.3166L35.8131 35.8557L37.4107 33.9965L39.1415 32.2701L40.606 31.0749L42.4699 29.7468L45.2657 28.286L47.3959 27.4892L50.1917 26.8252L50.9905 26.6924Z" fill="#90A384"/>
<path d="M69.7602 38.9111H103.576L104.642 39.1767L104.242 39.3095L104.775 42.0984L104.908 44.4888H105.174V44.7544H105.574L105.44 45.2856L104.508 46.6137L103.843 48.4729L103.576 49.8009V51.3945L103.976 53.2538L104.508 54.5818L105.574 56.1754L106.106 56.7066L105.973 57.105L105.44 56.7066V56.441H104.908L104.642 58.5658L103.976 62.0187L103.576 63.0811L103.31 63.7451H101.313L101.579 63.4795L101.979 61.3547L102.378 60.0267L102.511 59.0971L102.112 58.9643H103.31L102.245 56.7066L100.115 51.9257L98.3842 48.0745L95.8547 42.4968L95.7215 42.2312H93.9908L92.26 46.4809L90.6624 50.1993L89.1979 53.6522L88.3991 55.5114L87.9997 55.6442L88.266 54.3162L89.5973 51.2617L90.263 49.4025V45.8168L89.5973 41.8328L88.9316 39.4423L76.6832 39.1767L77.8814 41.9656L78.1477 42.0984V58.6987L77.482 58.9643L76.8164 60.5579L75.6181 62.8155L75.0856 63.7451H67.3638L68.0294 63.0811L69.4939 61.2219L70.559 59.4955L71.6241 57.5034L71.8904 55.777V52.0585L71.7572 50.5977V48.0745H71.2247L70.8253 48.6057L70.1596 49.0041L69.7602 49.2697L70.0265 48.7385L71.491 46.8793L72.1566 46.0824H72.4229V58.8315H74.6862V42.2312L72.4229 42.364L71.491 43.5592L70.2927 45.02L67.3638 48.7385L66.9644 49.1369L65.633 47.5433L64.1685 45.684L62.704 43.9576L61.7721 42.7624L61.9052 42.364L62.4378 43.028L63.5029 43.9576L64.1685 44.8872L64.8342 45.5512L66.0324 47.0121L66.8312 47.9417L67.3638 47.8089L68.4289 46.4809L69.8933 44.6216L71.3578 42.8952V41.8328L70.0265 39.5751V39.3095L67.2306 39.4423H62.4378L60.1745 39.3095H55.9142L46.1953 39.1767V39.0439L69.7602 38.9111Z" fill="#3A5D21"/>
<path d="M35.4141 63.877H74.822L74.2895 64.6738L72.2924 66.7986L70.4286 68.6578L68.4315 70.1187L66.4345 71.3139L64.4375 72.2435L61.9079 73.0403L59.5115 73.4387H50.8577L48.3282 73.0403L45.5323 72.1107L43.4022 71.0483L41.272 69.7202L39.1418 67.9938L37.1448 66.0018L35.9466 64.541L35.4141 63.877Z" fill="#90A384"/>
<path d="M9.05397 39.1768H14.6456L17.7077 39.3096L17.5746 40.372L17.0421 43.1608L16.6427 47.4105V52.5898L17.0421 56.5738L17.8409 60.2923L18.6397 62.6827L19.0391 63.6124L21.8349 63.7452V63.878H6.39127V63.7452H8.25516L7.85575 62.0187L7.58948 61.0891L7.19008 59.4955L6.39127 54.449L6.125 51.3946V48.2073L6.39127 45.1529L7.05694 41.036L7.32321 39.708L7.58948 39.3096L9.05397 39.1768Z" fill="#4E6F39"/>
<path d="M0 39.0439H21.3016L20.9022 39.3095L20.3696 41.3016L19.704 44.8872L19.3046 48.4729V51.5273L19.5708 54.449L20.5028 59.0971L21.8341 63.0811L22.1004 63.7451H18.9052L18.6389 62.9483L17.8401 60.8235L17.0413 57.3706L16.6419 54.3162L16.5087 52.5898V47.4105L16.9081 43.1608L17.5738 39.8408L17.7069 39.3095H9.05318L7.58869 39.4424L7.18929 40.7704L6.65675 44.6216L6.39048 46.4809L6.25734 49.4025V51.7929L6.52361 54.7146L7.32242 59.4955L7.72183 61.0891L8.25437 63.4795V63.7451L6.39048 63.8779H0V39.0439Z" fill="#4D6E38"/>
<path d="M8.38765 63.7451H15.5769V63.8779L8.65392 64.0107L8.92019 65.2059L9.98527 68.1276L11.0503 70.518L12.648 73.7053L14.2456 76.3613L15.5769 78.2205L17.0414 80.0798L18.2396 81.5406L19.7041 83.1342L20.9023 84.4622L22.5 85.9231L23.9644 87.1183L25.9615 88.7119L29.423 90.9696L32.2188 92.5632L35.8135 94.2896L39.4081 95.6176L42.8696 96.68L47.1299 97.6097L49.5264 98.0081L51.3902 98.1409H58.4464L61.6416 97.7425L64.97 97.0784L68.1652 96.2816L72.5587 94.8208L75.6208 93.4928L77.8841 92.4304L81.4787 90.3055L83.3426 88.9775L85.4728 87.3839L87.2035 85.9231L88.8012 84.4622L89.4668 83.931L90.3988 82.8686L91.7301 81.4078L93.1946 79.5486L94.526 77.8221L95.8573 75.8301L97.5881 72.9085L99.1857 69.7212L100.251 67.0652L101.316 64.0107L101.05 63.8779H103.446L101.982 68.2604L100.251 72.1117L98.3869 75.5645L96.2567 78.7518L94.3928 81.275L92.7952 83.1342L91.3307 84.7279L88.9343 87.1183L87.4698 88.3135L85.3397 90.0399L83.0764 91.6336L80.5468 93.2272L77.6178 94.8208L74.0232 96.4144L70.2954 97.7425L66.967 98.6721L62.4404 99.6017L60.4434 99.8673L56.9819 100H52.7216L47.2631 99.6017L44.3341 99.0705L40.2069 98.0081L35.9466 96.5472L32.8845 95.2192L30.0886 93.7584L26.7603 91.7664L24.3638 90.0399L22.6331 88.5791L21.3017 87.5167L19.3047 85.6575L17.7071 84.0638L16.5089 82.603L15.0444 80.8766L13.3136 78.4862L11.4498 75.5645L10.1184 73.1741L8.25451 69.3228L7.0563 66.0028L6.52376 64.1435L6.39062 63.8779L8.38765 63.7451Z" fill="#90A384"/>
<path d="M19.0352 63.877H22.3635L22.4967 64.6738L23.828 67.3298L25.2925 69.7202L26.8901 71.9779L28.3546 73.7043L29.2865 74.7667L30.6179 76.0947L32.0824 77.29L34.2125 78.8836L36.8752 80.4772L39.9373 82.0708L42.9994 83.2661L46.1947 84.1957L49.3899 84.8597L52.3189 85.2581H57.378L60.7064 84.8597L64.301 84.0629L68.6945 82.6021L71.7566 81.1412L74.6856 79.4148L76.9489 77.8212L78.4133 76.626L79.7447 75.4307L81.6086 73.5715L83.0731 71.7123L84.4044 69.853L86.002 67.197L87.5997 63.877H90.7949L89.863 66.0018L88.1322 69.3218L86.2683 72.1107L84.8038 73.9699L83.6056 75.2979L82.008 77.0244L79.8778 79.0164L78.0139 80.4772L76.0169 81.938L74.0199 83.1333L70.9578 84.7269L67.6294 86.0549L64.5673 86.9845L61.5052 87.6485L58.5762 88.0469H51.6532L48.3248 87.6485L44.7302 86.8517L41.2687 85.7893L38.4729 84.5941L35.4108 83.0005L32.6149 81.1412L30.8842 79.8132L29.0203 78.2196L25.825 75.0323L24.6268 73.5715L23.2955 71.8451L21.5647 69.0562L20.2334 66.6658L19.0352 64.0098V63.877Z" fill="#90A384"/>
<path d="M33.9476 38.9111H40.6044L40.8707 39.1767H40.4712L40.205 39.8407L38.7405 42.4968L37.8085 45.1528L37.276 47.1449L36.8766 49.8009L37.1429 52.3241L37.6754 54.8474L38.208 56.441L39.273 58.8315L40.205 60.4251L41.5363 62.2843L42.7345 63.6123V63.7451H35.279L33.9476 61.7531L32.8826 59.3627L32.0837 56.8394L31.5512 53.5194L31.4181 51.9257V47.4105L31.6843 45.2856L32.35 42.7624L33.1488 40.7704L33.6814 39.1767L33.1488 39.3095H23.43L21.6992 39.1767V39.0439L33.9476 38.9111Z" fill="#375B1D"/>
<path d="M54.5843 31.8721L57.1139 32.0049L59.244 32.4033L62.0399 33.3329L64.5694 34.5281L66.8327 35.9889L68.4304 37.4498L69.3623 38.5122L69.6286 38.645V38.9106H40.7383L41.0046 38.3794L42.3359 36.9186L44.0667 35.5905L45.7974 34.5281L47.9276 33.4657L50.1909 32.6689L51.5222 32.2705L53.1198 32.0049L54.5843 31.8721Z" fill="#FEFEFE"/>
<path d="M242.973 42.2314H247.766L249.363 42.497L250.561 43.0283L251.626 43.8251L252.292 44.8875L252.558 45.8171V48.0747L251.893 49.4028L250.828 50.4652L250.029 50.9964L251.626 52.59L252.958 54.582L254.822 57.5037L255.754 58.6989V58.8317H252.958L251.626 56.9725L250.428 54.9804L249.23 53.3868L248.564 52.59L247.233 51.7932L245.369 51.6604V58.8317H242.973V42.2314Z" fill="#FEFEFE"/>
<path d="M2.52734 39.0439H21.2994L20.9 39.3095L20.3674 41.3016L19.7018 44.8872L19.3023 48.4729V51.5273L19.5686 54.449L20.5006 59.0971L21.8319 63.0811L22.0982 63.7451H18.9029L18.6367 62.9483L17.8379 60.8235L17.0391 57.3706L16.6396 54.3162L16.5065 52.5898V47.4105L16.9059 43.1608L17.5716 39.8408L17.7047 39.3095H9.05096L7.58647 39.4424L7.18707 40.7704L6.65453 44.6216L6.38826 46.4809L6.25512 49.4025V51.7929L6.52139 54.7146L7.3202 59.4955L7.71961 61.0891L8.25215 63.4795V63.7451H6.25512V62.9483L5.98885 62.5499L5.32318 59.7611L4.92377 57.105L4.6575 53.9178V45.8169L5.05691 41.4344L5.32318 39.4424L2.52734 39.1767V39.0439Z" fill="#375B1D"/>
<path d="M59.1133 42.2314H61.5097L63.2405 44.3563L64.7049 46.2155L66.0363 47.8091L66.9682 49.0044L67.5008 48.3403L68.9653 46.6139L70.2966 44.8875L71.7611 43.1611L72.4268 42.2314H74.6901L74.8232 54.582V57.6365L74.6901 58.8317H72.4268V46.0827L71.7611 46.7467L70.4298 48.3403L68.9653 50.1996L67.6339 51.7932L67.1014 52.4572L66.5688 52.1916L64.7049 49.934L62.9742 47.8091L61.776 46.2155V45.9499H61.5097V58.8317H59.1133V42.2314Z" fill="#FEFEFE"/>
<path d="M155.637 42.2314H157.767L158.965 43.6923L160.43 45.2859L161.628 46.7467L163.225 48.4731L164.424 49.934L165.755 51.3948L166.953 52.8556L168.551 54.582L168.95 54.9804V42.2314H171.214V58.8317H169.083L167.486 57.1053L166.554 56.0429L165.089 54.3164L163.359 52.3244L162.16 50.9964L160.563 49.1372L158.832 47.1451L158.166 46.3483L157.9 46.2155V58.8317H155.637V42.2314Z" fill="#FEFEFE"/>
<path d="M199.301 42.2314H201.032L201.698 42.8955L203.428 44.7547L204.627 46.2155L206.224 47.9419L207.422 49.4028L208.754 50.8636L209.952 52.3244L211.283 53.7852L212.215 54.8476L212.348 42.3642L212.481 42.2314H214.612V58.8317H212.481L211.55 57.7693L209.952 55.9101L208.487 54.3164L207.289 52.8556L206.091 51.5276L205.159 50.4652L203.561 48.6059L201.831 46.6139L201.698 46.2155H201.431V58.8317H199.168V42.3642L199.301 42.2314Z" fill="#FEFEFE"/>
<path d="M78.2852 42.2314H84.4094L85.7407 42.497L87.2052 43.2939L87.8709 43.9579L88.4034 44.7547L88.8028 46.2155V47.8091L88.2703 49.27L87.4715 50.3324L86.2733 51.1292L84.4094 51.6604H80.6816V58.8317H78.2852V42.2314Z" fill="#FEFEFE"/>
<path d="M93.9937 42.0986H95.7244L96.7895 44.2235L98.5202 48.0747L101.05 53.6524L103.18 58.4333V58.8317H100.917L100.118 57.2381L98.6534 54.0508L91.331 53.918L91.1978 54.582L89.6002 58.4333L89.3339 58.8317H86.9375L88.2688 55.5116L89.9996 51.5276L91.7304 47.4107L93.328 43.5595L93.9937 42.0986Z" fill="#FEFEFE"/>
<path d="M181.866 42.0986H184.795L187.191 42.6298L189.322 43.4267L189.455 45.8171L186.393 44.6219L184.529 44.2235H182.265L180.535 44.7547L179.203 45.5515L178.138 46.6139L177.073 48.7387L176.94 49.4028V51.6604L177.473 53.3868L178.405 54.8476L179.47 55.7773L180.801 56.4413L182.399 56.8397H184.529L187.191 56.3085L187.325 52.8556L183.996 52.7228V50.7308H189.721V57.6365L189.055 58.0349L186.393 58.8317L184.529 59.0973H182.665L180.801 58.8317L179.203 58.3005L177.739 57.5037L176.141 56.0429L175.076 54.4492L174.41 52.4572L174.277 51.3948V49.934L174.544 48.3403L175.342 46.3483L176.408 45.0203L177.073 44.3563L178.005 43.5595L180.135 42.497L181.866 42.0986Z" fill="#FEFEFE"/>
<path d="M92.9284 39.1768H100.251L102.115 39.3096L102.514 39.8408L103.047 42.6296L103.446 45.8169V48.8713L103.18 49.5353V52.1914L103.313 52.9882V54.8474L103.047 56.0426H102.381L101.715 54.5818H101.316L98.9194 49.2697L97.0555 45.1529L95.7242 42.2312H93.9934L93.7272 42.8952L92.6621 43.1608L92.1296 41.036L91.8633 39.8408V39.3096L92.9284 39.1768Z" fill="#4E6F39"/>
<path d="M98.3852 53.918L98.7847 54.0508L100.515 57.7692L100.915 58.6988L103.178 58.8316L103.311 58.566V58.9644L102.512 59.0973V60.0269L101.98 61.8861L101.714 63.4797L101.58 63.6125L103.045 63.7453V63.8781H98.3852L90.9297 63.7453V62.9485L91.5954 61.2221L92.5273 57.7692L93.193 54.582L93.4593 54.1836L98.2521 54.0508L98.3852 53.918Z" fill="#4E6F39"/>
<path d="M111.171 42.0986H113.701L115.831 42.497L118.36 43.2939V45.8171L117.828 45.6843L115.831 44.8875L114.233 44.4891L112.103 44.3563L110.639 44.6219L109.307 45.1531L108.109 45.9499L107.177 46.8795L106.245 48.7387L105.979 50.1996L106.112 52.0588L106.644 53.5196L107.443 54.7148L108.508 55.6445L110.106 56.4413L111.038 56.7069L112.769 56.8397L115.032 56.5741L117.162 55.7773L118.227 55.246H118.493V57.6365L117.162 58.3005L114.633 58.9645L113.168 59.0973H111.837L109.84 58.8317L107.71 58.0349L106.378 57.1053L105.313 56.0429L104.248 54.3164L103.582 52.3244L103.449 51.3948V49.8012L103.982 47.5435L104.781 45.9499L106.112 44.3563L107.576 43.2939L109.307 42.497L111.171 42.0986Z" fill="#FEFEFE"/>
<path d="M218.473 42.2314H227.792V44.2235H220.736V49.4028H227.526V51.3948L227.393 51.5276H220.736V56.8397H227.926L228.059 56.9725V58.8317H218.34V42.3642L218.473 42.2314Z" fill="#FEFEFE"/>
<path d="M143.919 42.2314H152.839V44.2235H145.783V49.4028H152.573V51.3948L152.174 51.5276H145.783V56.8397H152.972V58.8317H143.387V42.3642L143.919 42.2314Z" fill="#FEFEFE"/>
<path d="M230.723 42.2314H240.042L240.176 42.3642V44.2235L233.119 44.3563L232.986 49.4028H239.909V51.3948L239.643 51.5276H232.986L233.119 56.8397H240.309V58.8317H230.723L230.59 58.5661V49.1372L230.723 42.2314Z" fill="#FEFEFE"/>
<path d="M43.5361 63.877H67.2341L66.7016 64.4082L64.7046 65.6034L62.7076 66.6658L60.5774 67.4626L57.7816 68.1266L56.0508 68.3922H53.9207L50.4591 67.7282L48.4621 67.0642L46.332 66.0018L43.9355 64.6738L43.1367 64.1426L43.5361 63.877Z" fill="#FEFEFE"/>
<path d="M260.548 42.0986H262.678L264.276 42.497L265.474 43.161L265.607 45.8171L264.143 44.8875L262.545 44.2235H260.814L259.749 44.7547L259.084 45.5515V46.6139L259.882 47.8091L261.214 48.7387L263.876 50.3324L265.208 51.5276L266.007 53.1212L266.14 53.5196V55.6445L265.607 56.9725L264.675 58.0349L263.344 58.8317L262.279 59.0973H260.681L258.551 58.5661L256.953 57.7693V54.7148L257.885 55.5116L258.95 56.3085L260.415 56.8397H262.146L262.945 56.4413L263.61 55.7773L263.743 55.3788V54.0508L263.078 52.9884L262.146 52.1916L259.084 50.3324L257.486 48.8715L256.953 47.6763L256.82 47.1451V45.6843L257.22 44.4891L257.752 43.6923L258.95 42.6298L260.548 42.0986Z" fill="#FEFEFE"/>
<path d="M120.489 42.2314H134.335V44.2235L128.61 44.3563L128.477 58.8317H126.213L126.08 57.5037V44.3563L120.355 44.2235V42.3642L120.489 42.2314Z" fill="#FEFEFE"/>
<path d="M193.18 42.2314H195.443V58.8317H193.047V42.3642L193.18 42.2314Z" fill="#FEFEFE"/>
<path d="M53.1172 42.2314H55.3805L55.5136 42.3642V58.8317H53.1172V42.2314Z" fill="#FEFEFE"/>
<path d="M91.3335 53.918H98.3897L98.2566 54.1836L93.4637 54.3164L93.1974 55.1132L92.6649 57.7692L91.7329 61.2221L91.0673 62.9485L90.9341 63.7453H85.875V63.6125L87.7389 63.4797L88.4046 61.8861L89.6028 58.1676L91.3335 53.918Z" fill="#385C1F"/>
<path d="M80.6797 44.3564H84.2743L85.3394 44.7549L86.0051 45.4189L86.4045 46.3485V47.4109L86.0051 48.4733L85.3394 49.1373L84.5406 49.5357L83.6087 49.6685H80.6797V44.3564Z" fill="#4E6F39"/>
<path d="M245.367 44.2227H247.764L249.095 44.6211L250.027 45.6835L250.16 46.0819V47.6755L249.628 48.6051L248.829 49.2691L247.63 49.5347H245.367V44.2227Z" fill="#4E6F39"/>
<path d="M103.447 49.0039H103.58V51.3943L103.979 53.2536L104.512 54.5816L105.577 56.1752L106.109 56.7064L105.976 57.1048L105.444 56.7064V56.4408H104.911L104.645 58.5657L103.979 62.0185L103.58 63.0809L103.313 63.7449H101.316L101.583 63.4793L101.982 61.3545L102.381 60.0265L102.515 59.0969L102.115 58.9641H103.313L102.248 56.7064L101.45 54.8472V54.4488L101.849 54.5816L102.515 55.9096L103.047 56.0424L103.18 54.8472V52.988L103.047 51.9256V49.5351L103.447 49.0039Z" fill="#3A5E21"/>
<path d="M102.781 38.9111L104.379 39.0439L104.645 39.3095H104.246L104.778 42.0984L104.911 44.4888H105.177V44.7544H105.577L105.444 45.2856L104.512 46.6137L103.846 48.4729L103.713 49.0041L103.314 49.1369V45.8168L102.914 42.6296L102.382 39.8407L102.115 39.4423L99.9852 39.3095H93.1953V39.0439L102.781 38.9111Z" fill="#395C1F"/>
<path d="M94.791 45.6836L95.1904 46.082L96.9211 49.8005L97.5868 51.3941V51.9253H92.3945L92.5277 51.1285L94.3916 46.746L94.791 45.6836Z" fill="#4E6F39"/>
<path d="M201.566 42.4971L202.365 43.0283L203.031 43.6923L204.096 44.8875V45.1531L204.629 45.4187L204.895 45.9499L206.492 47.6764L207.424 48.7388L207.957 49.27V49.5356H208.223L208.756 50.3324L209.155 50.598V50.8636L209.555 50.9964L210.353 52.0588L210.62 52.7228L211.019 52.8556V53.1212L211.418 53.254V53.5196L211.818 53.3868V51.1292L211.951 48.7388V47.0123L212.084 43.6923H212.217V54.7149L211.685 54.4493L210.22 52.8556L209.022 51.3948L205.56 47.4107L204.229 45.9499L203.031 44.4891L201.566 42.8955V42.4971Z" fill="#406328"/>
<path d="M158.562 43.0273L159.228 43.4258L159.628 43.8242L160.027 44.4882L160.826 45.1522L161.758 46.2146L162.157 46.613L162.956 47.6754L164.82 49.6674L165.752 50.7299L167.083 52.3235L167.882 53.3859L168.548 53.7843L168.681 43.1601H168.814L168.947 47.1442V54.9795L168.548 54.8467L167.349 53.3859L165.752 51.6595L164.554 50.1987L163.222 48.7378L162.024 47.277L160.426 45.5506L159.228 44.0898L158.562 43.4258V43.0273Z" fill="#496932"/>
<path d="M245.367 44.2227H247.764L248.429 44.3555V44.6211L245.9 44.4883V47.0115L246.033 48.8707L248.163 49.0035L249.095 48.2067L249.894 47.1443H250.027V48.0739L249.095 49.1363L248.429 49.4019L247.63 49.5347H245.367V44.2227Z" fill="#43652B"/>
<path d="M214.75 42.2314H214.883L215.149 44.8875V57.9021L214.883 58.8317H214.75V42.2314Z" fill="#375B1D"/>
<path d="M176.405 44.4883H176.671L176.538 45.0195L175.473 46.3475L174.674 48.3395L174.408 49.9332V51.394L174.674 52.9876L175.339 54.5812L175.206 55.1125L174.408 53.9172L173.875 51.7924V48.8708L174.408 47.4099L174.94 46.2147L175.872 44.8867H176.138V44.6211L176.405 44.4883Z" fill="#45672E"/>
<path d="M158.031 46.3477L158.564 46.6133L158.963 47.2773L158.564 47.4101L158.431 48.2069L158.564 51.7925L158.431 54.5814V57.9014L158.164 58.8311H158.031V46.3477Z" fill="#385C1E"/>
<path d="M195.578 42.2314H195.711L195.844 43.8251L195.978 46.2155V52.4572L195.844 55.6445L195.978 57.3709L195.711 58.8317H195.578V42.2314Z" fill="#375B1D"/>
<path d="M171.344 42.2314H171.477L171.743 46.4811V57.3709L171.477 58.9645H171.344V42.2314Z" fill="#375B1D"/>
<path d="M178.535 46.3477L178.669 46.6133L177.603 48.7381L177.337 49.8005V51.6597L177.87 53.3862L178.802 54.7142L179.201 55.3782L178.669 55.2454L177.603 53.9174L176.938 52.3238L176.805 51.6597V49.4021L177.204 48.0741L177.87 46.8789L178.535 46.3477Z" fill="#44652C"/>
<path d="M61.6406 46.082L62.3063 46.746L62.8388 47.4101L62.7057 47.8085L62.1732 47.5429L62.04 48.2069L62.1732 51.5269L62.04 52.8549H61.7738L61.9069 57.2374L61.7738 58.831H61.6406V46.082Z" fill="#3A5D20"/>
<path d="M201.434 46.2148H201.7L202.765 47.5429L202.499 47.6757L201.966 47.5429L201.833 51.1285L201.7 58.831H201.567L201.434 53.9174V46.2148Z" fill="#3B5F22"/>
<path d="M80.6797 44.3564H84.2743V44.622L81.4785 44.7549L81.0791 45.4189V47.4109L81.2122 48.7389L81.6116 49.2701L83.3424 49.4029V49.5357H80.6797V44.3564Z" fill="#375B1D"/>
<path d="M232.984 44.3564L233.517 44.4892V46.2157L233.65 48.6061L233.783 48.8717L234.183 49.0045L239.109 49.1373V49.2701L232.984 49.4029V44.3564Z" fill="#486931"/>
<path d="M202.633 47.6758L203.165 47.9414L204.763 49.8006L206.094 51.2614L207.293 52.7223L208.491 54.0503L209.423 55.1127V55.5111L209.023 55.3783L207.825 53.9175L206.76 52.8551L206.227 52.0583L204.763 50.4646L204.23 49.8006L203.698 49.2694L202.766 48.207L202.633 47.6758Z" fill="#4A6A33"/>
<path d="M80.6797 51.6602H84.8069L84.4075 51.9258L81.3454 52.0586L81.0791 52.9882L80.946 58.8315L80.6797 58.3003V51.6602Z" fill="#43642A"/>
<path d="M158.832 47.4102L159.365 47.543L160.962 49.4022L162.693 51.3942L164.024 52.855L165.223 54.3159L165.622 54.7143L165.489 55.1127L164.157 53.7847L162.693 51.9254L160.563 49.6678L159.231 48.0742L158.832 47.4102Z" fill="#4A6A33"/>
<path d="M232.984 51.5264L234.981 51.6592V51.792L233.517 51.9248L233.65 56.3072V56.7056H233.118L232.984 55.9088V51.5264Z" fill="#486931"/>
<path d="M95.9922 42.2314L96.5247 42.7627L97.0573 43.8251L98.1223 46.3483L99.0543 48.3403L99.3206 49.0044L99.1874 49.5356L98.9212 49.27L97.0573 45.1531L95.9922 42.7627V42.2314Z" fill="#496A32"/>
<path d="M245.367 51.6602H247.231L247.497 51.9258H246.033L245.767 53.3866V57.105L245.633 58.6987L245.367 58.4331V51.6602Z" fill="#406328"/>
<path d="M94.125 47.9414L94.2581 48.4726L93.3262 51.2615L96.9208 51.5271V51.6599L92.5273 51.7927L92.6605 50.8631L93.8587 48.0742L94.125 47.9414Z" fill="#3F6227"/>
<path d="M86.0051 46.2148L86.4045 46.3476V47.4101L86.0051 48.4725L85.3394 49.1365L84.5406 49.5349L83.6087 49.6677H80.6797V49.5349L83.3424 49.4021L84.0081 49.0037L84.94 48.8709L85.0731 48.4725H85.3394L85.6057 47.8085L86.0051 46.8789V46.2148Z" fill="#51703B"/>
<path d="M189.719 50.5977H189.852L190.118 52.1913L190.252 54.5817V56.1753L189.985 57.5034L189.719 57.6362L189.586 52.9881V50.8633L189.719 50.5977Z" fill="#406227"/>
<path d="M88.6673 45.2852L89.0667 45.5508L89.333 46.3476V47.41L88.9336 49.0036L88.401 49.8004L87.3359 50.73V50.3316L88.1347 49.2692L88.6673 47.8084V45.2852Z" fill="#476830"/>
<path d="M220.871 44.3564L221.404 44.4892L221.138 45.2861V46.8797L221.271 48.4733L221.404 48.8717L221.803 49.0045L227.129 49.1373V49.2701L220.738 49.4029L220.871 44.3564Z" fill="#385C1F"/>
<path d="M145.781 44.3564H146.447V44.622H146.181L146.314 48.8717L146.979 49.1373V49.2701L145.781 49.4029V44.3564Z" fill="#3E6125"/>
<path d="M220.738 51.5264L226.996 51.6592V51.792H221.404V52.0576H221.138V56.1744L221.803 56.44V56.5728L220.871 56.7056L220.738 54.0496V51.5264Z" fill="#3D6024"/>
<path d="M183.992 52.8555H187.321V56.3083H187.054L186.921 54.4491L186.655 53.5195L186.389 53.3867V53.1211H184.658L183.992 52.9883V52.8555Z" fill="#4A6B34"/>
<path d="M259.211 46.6133H259.477L260.01 47.2773L260.942 48.0741L261.208 48.4725L262.14 48.8709L262.672 49.2693L262.806 49.5349L262.14 49.4021L260.409 48.3397L259.477 47.5429L259.211 47.1445V46.6133Z" fill="#47682F"/>
<path d="M106.11 50.332L106.376 50.4648V51.7929L106.775 52.8553L107.308 53.9177V54.3161L106.775 54.0505L106.11 52.5897L105.977 52.0585V50.4648L106.11 50.332Z" fill="#4A6A33"/>
<path d="M94.7907 45.6836L95.1901 46.082L96.122 48.074L95.9889 48.6052L95.1901 47.1444H94.5244L94.3913 47.6756H94.125L94.5244 46.3476L94.7907 45.6836Z" fill="#4C6C35"/>
<path d="M256.551 45.5508H256.684L256.95 47.1444L257.483 48.6052L258.415 49.6676L258.548 50.0661L258.015 49.8004L257.216 49.1364L256.684 48.2068L256.551 47.6756V45.5508Z" fill="#476830"/>
<path d="M249.891 47.1445H250.024V48.0741L249.092 49.1366L248.427 49.4022L248.027 49.2694L249.092 48.2069L249.891 47.1445Z" fill="#486931"/>
<path d="M261.875 52.0586L262.541 52.3242L263.473 53.2538L263.872 54.0506V55.3786H263.606L263.339 54.0506L262.274 52.7226L261.875 52.457V52.0586Z" fill="#4C6C35"/>
<path d="M80.6797 44.3564H84.2743V44.622L81.4785 44.7549L80.8128 45.5517H80.6797V44.3564Z" fill="#3D6024"/>
<path d="M266.27 52.5889H266.536L266.935 53.7841V55.2449L266.536 56.4401H266.27L266.403 55.6433V53.5185L266.27 52.5889Z" fill="#51703C"/>
<path d="M98.387 53.918L98.7864 54.0508L99.9847 56.574L99.8515 57.1052L99.319 56.4412L98.6533 54.8476L98.2539 54.3164L98.387 53.918Z" fill="#486931"/>
<path d="M145.914 51.6602H147.379V51.793L146.313 51.9258L146.18 52.457V56.441L145.914 56.7066V51.6602Z" fill="#375B1D"/>
<path d="M250.691 51.5264L251.357 51.792L252.023 52.456L252.822 53.784L252.688 54.1824L251.091 52.1904L250.691 51.792V51.5264Z" fill="#4A6B34"/>
<path d="M257.484 54.9805L258.416 55.3789L258.549 55.7773L259.215 56.0429L259.881 56.4413V56.7069L259.215 56.5741L258.017 55.7773L257.484 55.3789V54.9805Z" fill="#496A32"/>
<path d="M97.1874 51.1279H97.4537L97.5868 51.9247H92.3945L92.5277 51.5263V51.7919L92.7939 51.6591L97.1874 51.5263V51.1279Z" fill="#587644"/>
<path d="M252.691 54.0498L253.091 54.1826L254.023 55.5106V55.909H254.289L254.422 56.573L254.156 56.7058L252.691 54.3154V54.0498Z" fill="#4D6D36"/>
<path d="M70.4264 48.6055V49.0039L70.027 49.6679L69.6276 49.8007V50.0663L68.5625 50.7303L68.8288 50.1991L69.6276 49.1367L70.1601 48.8711L70.4264 48.6055Z" fill="#46672E"/>
<path d="M252.289 44.7539H252.555L252.955 45.6835V46.4803L252.822 46.6131L252.688 47.8084H252.555L252.422 45.8163L252.289 44.7539Z" fill="#5A7745"/>
<path d="M87.3359 43.1602L88.0016 43.4258L88.6673 44.621L88.5342 45.1522L87.7353 43.957V43.6914L87.3359 43.5586V43.1602Z" fill="#496A32"/>
<path d="M106.372 48.7383L106.639 49.0039L106.372 49.8007V50.3319L106.106 50.4647L105.973 51.1287H105.84L105.973 49.2695L106.372 48.7383Z" fill="#506F3A"/>
<path d="M264.539 50.7305H264.938L265.87 51.9257L266.004 52.5897L265.737 52.7225L264.938 51.3945L264.539 50.9961V50.7305Z" fill="#4D6D37"/>
<path d="M87.8688 55.9092L88.0019 56.4404L87.4694 57.7684L87.2031 57.5028L87.3363 56.706L87.8688 55.9092Z" fill="#496A32"/>
<path d="M220.867 44.3564L221.4 44.4892L221.133 45.2861V46.7469L220.867 46.8797V44.3564Z" fill="#375B1D"/>
<path d="M85.0703 44.8867L85.736 45.0195L86.2685 45.8163V46.2147L85.736 45.9491L85.2034 45.1523L85.0703 44.8867Z" fill="#4B6C35"/>
<path d="M248.832 44.7539L249.365 44.8867L250.03 45.6835V46.3475L249.498 45.6835L248.832 44.7539Z" fill="#476830"/>
<path d="M247.496 52.0586L248.162 52.1914L248.961 52.8554L248.827 53.2538L247.496 52.1914V52.0586Z" fill="#4A6A33"/>
<path d="M261.211 48.6055L262.01 48.7383L262.675 49.2695L262.809 49.5351L262.143 49.4023L261.211 48.8711V48.6055Z" fill="#486931"/>
<path d="M220.867 54.1836L221.133 54.3164V56.1756L221.799 56.4412V56.574L220.867 56.7068V54.1836Z" fill="#375B1D"/>
<path d="M179.73 45.0205L179.997 45.1533L178.133 46.8797V46.4813L179.198 45.4189L179.73 45.0205Z" fill="#5C7949"/>
<path d="M96.2539 49.2695H96.6533L97.0527 50.4648L96.5202 50.3319L96.2539 49.2695Z" fill="#486931"/>
<path d="M158.562 43.0273L159.228 43.4258L159.628 43.8242V44.2226L159.095 43.957L158.562 43.4258V43.0273Z" fill="#476830"/>
<path d="M106.11 50.332L106.376 50.4648V51.6601H105.977V50.4648L106.11 50.332Z" fill="#385C1F"/>
<path d="M250.691 51.5264L251.357 51.792L251.756 52.1904V52.5888L251.224 52.3232L250.691 51.792V51.5264Z" fill="#496932"/>
</svg>
