<svg width="185" height="100" viewBox="0 0 185 100" fill="none" xmlns="http://www.w3.org/2000/svg">
<path d="M0.78125 31.25H7.03125V50L7.42188 53.125H8.20312L9.76562 48.8281L12.8906 41.7969L14.0625 39.8438L15.625 35.9375L17.5781 32.0312L18.3594 31.25H25.3906L25 33.2031L14.4531 54.2969L14.8438 55.8594L18.3594 60.9375L22.2656 66.7969L33.5938 83.5938L36.3281 87.8906L41.7969 96.0938L43.3594 98.0469V99.6094H36.3281L35.5469 99.2188L33.9844 96.0938L32.8125 94.9219L30.8594 91.4062L29.2969 89.4531L26.9531 85.5469L24.2188 81.6406V80.4688H23.4375L22.6562 79.2969V78.125H21.875L18.3594 72.6562L14.8438 67.5781V66.4062H14.0625L13.2812 65.2344V64.0625H12.5L11.3281 62.1094V60.9375H10.5469V59.7656H9.76562V58.5938H8.98438V57.4219H8.20312V56.6406L7.03125 57.0312V72.2656L6.25 72.6562H0.390625L0 72.2656V31.6406L0.78125 31.25Z" fill="#39A849"/>
<path d="M86.3281 40.2344H91.7969L101.172 41.0156L105.859 42.5781L108.984 45.3125L110.547 48.4375L111.328 51.9531V61.3281L110.156 65.625L107.812 68.75L104.688 70.7031L100.391 71.875L94.5312 72.6562H86.3281L85.9375 72.2656V40.625L86.3281 40.2344Z" fill="#070A4B"/>
<path d="M30.0781 39.8438H39.0625L44.5312 40.625L47.6562 42.1875L50.3906 45.3125L51.1719 47.2656V51.5625L48.8281 55.4688L45.3125 57.8125H44.5312L47.2656 63.2812L52.3438 71.875V72.6562H45.3125L42.9688 69.1406L42.5781 67.1875H41.7969L37.8906 60.1562L37.5 58.9844H36.7188L36.3281 60.5469L36.7188 72.2656L36.3281 72.6562H30.0781L29.2969 70.3125V40.625H30.0781V39.8438Z" fill="#39A949"/>
<path d="M142.578 40.2344H146.484L146.875 40.625V65.625L146.094 68.3594L144.141 70.7031L141.016 72.2656L135.938 73.0469H132.031L126.953 72.2656L123.828 70.7031L121.875 68.3594L121.094 65.625V40.625H126.172L126.562 41.0156V61.3281L126.953 66.7969L128.516 69.1406L129.688 69.9219L131.641 70.3125H135.938L139.453 69.1406L140.625 67.9688L141.016 66.7969L141.406 41.4062L142.578 40.2344Z" fill="#070A4C"/>
<path d="M91.4062 42.9688H97.6562L100.781 43.75L103.125 45.3125L105.078 48.4375L105.859 51.5625L106.25 57.0312L105.469 63.6719L103.906 66.7969L101.562 68.75L97.2656 69.9219H91.4062V42.9688Z" fill="#FDFDFD"/>
<path d="M51.9531 40.2344H59.7656L61.7188 43.3594L66.0156 51.9531L67.1875 50.7812L69.5312 46.0938L72.2656 41.0156H73.0469V40.2344H80.0781V41.4062H79.2969V42.5781H78.5156L77.7344 44.5312L73.8281 50.7812L70.3125 56.6406L69.9219 59.7656L69.5312 72.6562H64.0625L62.8906 72.2656V58.5938L61.7188 55.0781H60.9375L56.25 47.2656L55.8594 45.7031H55.0781L51.9531 40.625V40.2344Z" fill="#39A749"/>
<path d="M68.3594 17.1875H75L78.5156 17.5781L80.0781 19.1406L80.8594 22.6562V30.4688L79.6875 33.5938L77.3438 34.7656H66.4062L64.0625 33.5938L63.6719 32.8125V19.1406H64.4531V17.9688L68.3594 17.1875Z" fill="#39A949"/>
<path d="M50.7812 0H57.4219L61.3281 0.390625L63.2812 2.34375V14.8438L62.1094 16.7969L59.7656 17.5781H48.8281L47.6562 17.1875L46.4844 16.0156V1.95312L48.0469 0.390625L50.7812 0Z" fill="#3AAA4A"/>
<path d="M166.406 40.2344H175L178.906 41.4062L180.078 42.5781V44.5312L178.125 44.1406L175.781 43.3594L169.531 42.9688L165.234 43.75L162.891 45.3125L162.5 46.0938V50L164.453 51.9531L168.359 54.2969L176.172 57.4219L180.078 59.7656L181.641 61.7188L182.031 62.8906V66.0156L180.469 68.3594L177.734 70.7031L173.438 72.2656L167.578 73.0469L161.328 72.6562L157.422 71.4844L157.031 67.9688L162.891 69.9219H170.312L174.219 68.3594L176.172 66.4062L176.562 64.0625L175 61.3281L170.312 58.5938L164.453 56.25L161.328 54.6875L157.812 51.9531L156.641 50V46.4844L158.203 44.1406L160.547 42.1875L164.453 40.625L166.406 40.2344Z" fill="#070A4A"/>
<path d="M32.4219 10.5469H40.625L42.5781 11.3281L43.3594 15.625V19.9219L42.1875 23.8281L41.7969 24.2188H30.4688L29.6875 22.6562V12.1094L30.4688 10.9375L32.4219 10.5469Z" fill="#3AAA4A"/>
<path d="M128.516 42.1875H138.281L140.234 42.5781V50.7812L139.844 53.125H139.062L138.672 54.6875L136.328 55.8594H131.641L129.297 54.6875L128.516 53.5156L128.125 50V43.3594L128.516 42.1875Z" fill="#39A849"/>
<path d="M132.422 26.5625H135.938L138.672 28.125L139.844 30.0781V40.2344H128.906L128.516 39.0625V29.6875L129.688 27.3438L132.422 26.5625Z" fill="#39A849"/>
<path d="M48.0469 22.2656H56.25L58.2031 23.0469L58.5938 24.6094V30.4688L57.8125 34.375H47.6562L46.4844 33.9844L46.0938 32.0312V26.1719L46.875 22.6562L48.0469 22.2656Z" fill="#070A4D"/>
<path d="M50 79.6875H53.9062L57.4219 80.4688L58.2031 83.2031V88.2812L56.6406 90.2344L55.0781 91.0156L51.5625 91.4062L51.1719 99.2188L49.6094 99.6094L49.2188 96.875V85.9375L49.6094 80.0781L50 79.6875Z" fill="#0D0B0D"/>
<path d="M68.75 3.90625H75.3906L76.9531 5.46875L77.3438 10.1562L76.5625 13.6719L74.2188 14.4531H69.9219L67.5781 13.6719L66.7969 11.3281V5.85938L68.75 3.90625Z" fill="#070A4D"/>
<path d="M148.438 74.6094L151.172 75L153.125 76.5625L153.906 77.7344V80.0781L151.953 82.4219L149.219 83.2031L146.094 82.0312H144.922V83.9844L146.875 85.9375L145.312 86.7188V97.2656L146.484 98.4375L147.656 98.8281V99.6094H144.922L143.75 98.0469L143.359 96.4844V86.3281L142.188 85.9375V85.1562L143.359 84.375L143.75 80.8594L144.531 80.0781L146.094 76.1719L148.438 74.6094Z" fill="#37A046"/>
<path d="M91.7969 84.375H92.9688L93.75 85.5469L95.7031 85.1562L98.8281 84.375L100.391 85.1562L101.172 87.1094V99.2188L99.6094 99.6094L99.2188 93.75V86.3281H96.4844L95.7031 86.7188L95.3125 87.8906V99.2188L93.3594 99.6094V86.3281L89.8438 86.7188L89.0625 87.5L88.6719 99.6094H87.5V85.5469L89.0625 85.1562L91.0156 84.7656L91.7969 84.375Z" fill="#0D0B0D"/>
<path d="M126.172 84.375L128.906 84.7656L130.078 85.9375L130.859 89.0625V91.4062L128.906 92.1875L125 92.5781V95.3125L126.172 98.0469L128.125 97.6562L128.906 96.875L130.078 94.1406L130.859 93.75L130.469 97.2656L128.516 99.6094H125.391L123.828 97.6562L123.047 95.3125V88.6719L124.609 85.1562L126.172 84.375Z" fill="#0D0B0D"/>
<path d="M105.859 84.375H108.594L110.547 86.3281L110.938 99.6094L108.594 98.8281L107.422 99.6094H104.688L103.516 97.2656V94.5312L105.078 91.7969L107.812 90.2344H108.594V87.1094L107.812 85.5469L106.25 85.9375L104.688 88.2812H104.297V85.5469L105.859 84.375Z" fill="#0D0B0D"/>
<path d="M73.0469 84.375H75.7812L77.7344 86.3281L78.125 99.6094L76.5625 99.2188L76.1719 98.4375L75 99.6094H71.875L70.7031 96.875V94.1406L71.875 92.1875L75.7812 89.8438V86.7188L75 85.5469L73.4375 85.1562L72.6562 87.5L71.4844 87.8906V85.5469L73.0469 84.375Z" fill="#0C0A0D"/>
<path d="M165.234 84.375H167.969L169.531 85.5469L169.922 87.5L170.312 99.2188L168.359 98.8281L166.797 99.6094H164.062L162.891 97.2656L163.281 93.3594L165.234 91.4062L167.578 90.2344L167.969 89.4531V86.7188L167.188 85.5469L165.625 85.9375L164.453 87.8906H163.672V85.5469L165.234 84.375Z" fill="#0D0B0D"/>
<path d="M37.1094 45.3125H39.8438L43.3594 46.4844L44.9219 48.8281L44.1406 52.3438L41.4062 53.9062H36.7188L36.3281 53.5156V46.0938L37.1094 45.3125Z" fill="#FDFDFD"/>
<path d="M60.5469 79.6875L62.1094 80.0781V85.5469L66.0156 84.375L67.9688 85.5469L68.3594 86.7188V99.6094H66.7969L66.4062 86.3281L62.5 86.7188V99.2188L60.5469 99.6094V79.6875Z" fill="#0D0B0D"/>
<path d="M133.203 84.7656L134.766 85.1562V96.0938L135.156 97.6562L137.109 98.0469L138.281 97.2656L138.672 85.1562L140.234 84.7656V98.4375L137.891 99.6094H134.375L133.594 98.8281L133.203 97.2656V84.7656Z" fill="#0D0B0D"/>
<path d="M51.1719 81.25H54.6875L56.6406 82.8125L57.0312 83.5938V87.1094L55.4688 89.0625L51.9531 89.8438L51.1719 89.4531V81.25Z" fill="#FDFDFD"/>
<path d="M155.859 84.375L158.594 84.7656L160.156 86.3281L160.547 89.0625L159.375 89.4531L158.203 86.7188L156.641 85.9375L155.078 87.5L154.688 88.6719V95.3125L155.859 98.0469L157.812 97.6562L158.594 96.875L159.375 94.1406H160.547V97.2656L158.594 99.2188L156.25 100L153.906 98.4375L152.734 95.7031V88.2812L154.297 85.1562L155.859 84.375Z" fill="#0D0B0D"/>
<path d="M116.406 84.375L119.141 84.7656L120.312 85.9375L120.703 89.4531L119.531 88.6719L118.359 86.3281H116.406L115.234 89.0625V95.3125L116.016 97.2656L116.406 97.6562H118.359L120.312 94.5312H121.094L120.703 96.875L119.531 98.8281L118.75 99.6094H116.016L114.062 97.6562L113.281 96.0938V89.0625L114.062 86.3281L115.625 84.7656L116.406 84.375Z" fill="#0D0B0D"/>
<path d="M180.469 83.9844L182.812 85.1562L183.984 86.7188V88.2812L182.422 87.8906L181.25 85.5469L179.688 85.1562L178.906 87.1094L178.516 89.4531L181.25 91.0156L183.594 92.5781L184.375 94.1406V96.875L183.203 98.8281L182.031 99.6094H178.906L177.344 98.0469L176.562 95.3125L179.297 97.6562L181.25 98.0469L182.422 97.2656V94.1406L178.516 91.7969L177.344 90.625L176.953 87.8906L178.125 85.1562L180.469 83.9844Z" fill="#0D0B0D"/>
<path d="M144.531 80.0781L145.312 80.4688L144.922 83.9844L146.875 85.9375L145.312 86.7188V97.2656L146.484 98.4375L147.656 98.8281V99.6094H144.922L143.75 98.0469L143.359 96.4844V86.3281L142.188 85.9375V85.1562L143.359 84.375L143.75 80.8594L144.531 80.0781Z" fill="#0D0B0D"/>
<path d="M173.047 79.6875L174.609 80.0781V99.2188H173.047V79.6875Z" fill="#0D0B0D"/>
<path d="M81.25 84.7656H85.5469V86.3281L83.5938 86.7188L82.8125 86.3281L82.4219 99.2188L80.8594 99.6094V85.1562L81.25 84.7656Z" fill="#0D0B0D"/>
<path d="M108.203 91.4062H108.984V97.2656L107.031 98.4375L105.078 97.6562L104.297 95.3125L106.641 92.5781L108.203 91.4062Z" fill="#FDFDFD"/>
<path d="M126.562 85.5469L128.125 85.9375L129.297 87.5V90.2344L128.516 91.0156L125.391 91.4062L124.609 91.0156V87.8906L125.781 85.9375L126.562 85.5469Z" fill="#FDFDFD"/>
<path d="M75.7812 91.0156H76.1719V96.875L75.3906 98.0469L73.4375 98.4375L71.4844 96.0938L72.2656 94.1406L75.7812 91.0156Z" fill="#FDFDFD"/>
<path d="M167.578 91.4062H168.359V97.2656L166.406 98.4375L164.844 97.6562L164.062 96.4844L164.453 94.1406L167.578 91.4062Z" fill="#FDFDFD"/>
<path d="M149.219 84.7656L150.391 85.1562V98.4375L150 99.2188H148.828V85.1562L149.219 84.7656Z" fill="#0D0B0D"/>
<path d="M126.172 61.3281H126.562V66.7969L125.391 65.2344L125.781 62.5L126.172 61.3281Z" fill="#0D0B0D"/>
</svg>
