<svg width="100" height="100" viewBox="0 0 100 100" fill="none" xmlns="http://www.w3.org/2000/svg">
<g clip-path="url(#clip0_2387_3863)">
<path d="M0 0H100V100H0V0Z" fill="#E22026"/>
<path d="M62.2227 15.7773H63.8893L65.2227 16.1107L66.4449 16.8885L67.4449 17.8885L68.3338 19.6662L68.8893 21.1107L69.4449 23.9996L69.556 24.9996V32.3329L69.1115 36.444L68.4449 40.3329L67.7782 43.444L67.0004 45.9996L66.2227 47.5551L65.7782 48.1107L65.3338 48.2218L65.2227 47.9996L65.1115 30.444L64.7782 26.1107L64.3338 22.444L63.8893 20.6662L63.2227 19.3329L62.7782 19.2218L62.3338 19.6662L61.7782 20.7773L61.4449 22.7773L61.2227 24.6662L61.1115 28.1107V31.8885L61.2227 36.3329L61.556 40.9996L62.0004 44.6662L62.7782 49.2218L63.7782 53.444L64.6671 56.6662L66.1115 60.8885L67.3338 63.7773L68.2227 65.5551L69.3338 67.5551L70.4449 69.2218L71.556 70.6662L72.1115 71.2218V71.444H72.3338V71.6662H72.556V71.8885L73.0004 72.1107L74.0004 72.9996L74.4449 73.2218L75.1115 73.1107L75.6671 72.7773L76.4449 71.8885H76.6671L76.7782 72.1107V72.8885L76.3338 74.3329L75.7782 75.1107L74.4449 75.7773L74.0004 75.8885H71.7782L70.4449 75.5551L69.2227 74.8885L68.0004 73.8885L67.0004 72.8885L65.6671 71.1107L64.556 69.3329L63.2227 66.7773L61.8893 63.6662L60.556 59.8885L59.6671 56.8885L58.6671 52.9996L57.7782 48.6662L57.1115 44.6662L56.7782 42.1107L56.4449 37.444L56.2227 32.6662V25.6662L56.556 22.8885L56.8893 21.2218L57.556 19.444L58.4449 17.8885L59.3338 16.9996L60.4449 16.3329L62.2227 15.7773Z" fill="#FDFDFD"/>
<path d="M25.2218 23.667H26.6662L28.6662 24.1114L30.2218 24.8892L31.5551 26.1114L32.5551 27.2225L33.5551 29.0003L34.444 31.2225L35.2218 33.7781L35.7773 36.667L36.2218 40.0003L36.5551 45.5559V55.1114L36.3329 55.667L34.1107 55.4448L32.1107 55.3337H29.2218L28.9996 55.1114L28.8885 40.1114L28.5551 35.3337L28.2218 33.1114L27.7773 31.3337L27.3329 30.1114L26.7773 29.3337V29.1114L26.3329 28.8892L25.9996 28.667H24.8885L24.1107 29.1114L23.3329 30.1114L22.8885 31.2225L22.5551 32.667L22.2218 36.2225V38.7781L22.5551 45.1114V47.667L22.3329 48.2225L19.7773 47.8892L18.6662 47.5559L17.7773 47.0003L16.9996 46.2225L16.3329 44.7781L15.7773 42.5559V39.3337L16.3329 35.1114L16.8885 32.1114L17.5551 29.8892L18.3329 28.1114L19.3329 26.5559L20.7773 25.1114L21.8885 24.4448L23.5551 23.8892L25.2218 23.667Z" fill="#FDFDFD"/>
<path d="M50.6675 13.4443H51.3342L50.5564 14.6666L49.3342 16.111L48.112 17.4443L47.3342 18.3332L46.4453 19.3332L45.5564 20.6666L45.112 21.6666L44.7786 23.111V25.9999L45.2231 28.6666L46.0009 31.8888L46.8898 34.7777L48.7786 40.5554L49.6675 43.7777L50.2231 46.8888L50.3342 47.8888V52.9999L49.8898 55.5554L49.5564 56.2221L48.6675 56.6666L47.3342 56.8888L45.4453 56.7777L45.2231 56.3332L44.7786 52.3332L44.0009 46.8888L43.2231 42.8888L42.112 38.4443L40.8898 33.9999L40.2231 31.3332L39.6675 28.2221L39.4453 25.7777V24.6666L39.7786 22.3332L40.2231 20.8888L40.6675 19.8888L41.3342 18.6666L42.5564 17.3332L43.112 16.7777L44.7786 15.6666L46.4453 14.7777L48.3342 14.111L50.6675 13.4443Z" fill="#FDFDFD"/>
<path d="M29.4453 61.8887H30.8898L33.112 62.1109L35.3342 62.4442L36.112 62.6664L36.3342 62.8887L36.5564 64.5553L37.0009 67.3331L37.8898 70.3331L38.8898 72.4442L40.2231 74.3331L41.0009 75.222V75.4442L41.4453 75.6664L42.5564 76.6664L44.4453 77.6664L46.3342 78.3331L48.4453 78.5553L50.8898 78.3331L53.112 77.5553L54.6675 76.6664L55.8898 75.7776L57.0009 74.7776L58.0009 73.6664L59.2231 71.8887L60.3342 69.9998L61.2231 68.1109L61.5564 67.4442L61.7786 67.5553L61.8898 68.6664L61.5564 70.6664L61.0009 72.3331L60.0009 74.222L59.112 75.4442L58.112 76.6664H57.8898L57.6675 77.1109L56.7786 77.8887L55.3342 79.1109L53.5564 80.222L51.112 81.4442L49.0009 82.1109L47.4453 82.4442L44.5564 82.6665L42.3342 82.4442L40.0009 81.7776L38.2231 80.8887L37.112 80.1109L36.0009 79.1109L34.6675 77.7776L33.6675 76.3331L32.6675 74.6664L31.6675 72.4442L30.5564 69.1109L29.8898 66.1109L29.4453 63.1109V61.8887Z" fill="#FDFDFD"/>
<path d="M26.7795 56.7773H32.8906L36.4462 56.9996L41.4462 57.5551L48.8906 58.6662L53.0017 59.444L56.1128 60.1107L59.1128 60.7773L59.4462 61.1107L60.0017 62.444L61.1128 65.3329L61.0017 65.6662L57.224 64.9996L51.1128 63.7773L42.4462 62.2218L38.224 61.5551L34.7795 61.1107L30.8906 60.6662L29.0017 60.5551L28.3351 60.444H24.3351L22.4462 60.7773L21.5573 61.2218H21.3351L21.1128 62.1107L21.4462 62.8885L22.1128 63.7773L23.4462 64.9996L25.0017 65.9996L27.8906 67.3329L29.1128 67.7773L29.3351 68.1107L29.224 68.2218L27.7795 68.1107L25.1128 67.5551L22.1128 66.5551L20.0017 65.5551L18.6684 64.5551L18.0017 63.444L17.8906 62.8885V60.9996L18.5573 59.6662L19.4462 58.7773L20.6684 58.1107L23.0017 57.3329L25.6684 56.8885L26.7795 56.7773Z" fill="#FDFDFD"/>
<path d="M84.5569 56.5557H84.7791L84.5569 57.1112L83.0013 59.0001L81.4457 60.5557L79.8902 61.7779L78.4457 62.7779L76.7791 63.7779L74.4457 65.0001L72.1124 65.889L70.4457 66.3334H69.8902L69.2235 65.3334L68.1124 62.889L67.668 61.6668V61.3334L69.0013 61.5557L70.668 61.4446L73.1124 61.0001L75.8902 60.2223L79.0013 59.1112L82.4457 57.6668L84.5569 56.5557Z" fill="#FDFDFD"/>
<path d="M43.8889 63.5557L44.5556 63.6668L45.1111 64.1112L45.3333 64.4446V65.3334L44.5556 66.2223L43.8889 66.7779L42.6667 67.4446L41.3333 67.889L40.3333 68.1112H38.5556L38 67.889V67.6668L39.7778 67.1112L41.3333 66.4446L42.3333 65.6668H42.5556L42.7778 65.2223L43.4444 64.2223L43.7778 63.6668L43.8889 63.5557Z" fill="#FDFDFD"/>
</g>
<defs>
<clipPath id="clip0_2387_3863">
<rect width="100" height="100" fill="white"/>
</clipPath>
</defs>
</svg>
