<svg width="264" height="100" viewBox="0 0 264 100" fill="none" xmlns="http://www.w3.org/2000/svg">
<path d="M59.1657 0L59.7633 0.199203V9.16335L59.9625 10.9562L63.1498 9.76096L71.3171 7.17131L74.1059 5.9761L75.8988 5.57769H76.8948L76.2972 6.5737L74.1059 8.36653L65.9386 16.5339L63.7474 18.3267L61.3569 20.5179L61.1577 20.9163V23.7052L61.9545 33.2669L62.3529 41.4343L62.9506 48.6056L63.7474 51.3944L62.5522 50.996L60.5601 49.2032L57.9705 46.8127L56.9745 46.0159V45.6175H56.5761L55.1816 44.0239L54.1856 42.8287L53.1896 41.8327L51.1976 40.0398L47.8111 36.8526L46.2175 35.259L45.0223 34.8606L42.831 36.6534L40.0422 39.4422L36.0581 42.6295L32.2733 46.4143L30.4804 47.8088H30.082V46.4143L31.078 43.8247L32.4725 41.6335L34.8629 38.247L36.6557 35.0598L38.847 31.4741L39.843 30.0797L39.6438 28.6853L38.0502 27.2908L36.2573 25.8964L31.2773 20.9163L30.8788 20.3187L31.078 19.5219L32.8709 19.1235L35.6597 18.7251L39.843 17.5299L43.0302 16.1355L46.8151 15.1394L49.2055 14.1434L50.2016 13.1474L53.1896 7.56972L55.58 3.58566L56.9745 2.19124L58.3689 0.59761L59.1657 0Z" fill="#01904B"/>
<path d="M20.3187 32.8682L24.3028 33.0674L26.6932 33.4658V36.2546L26.494 41.0355L26.2948 72.5096L26.0956 72.7088H20.1195L19.9203 72.5096V68.5255L20.1195 55.7765L19.9203 55.3781L15.7371 55.1789H7.76892L7.37052 55.3781V72.7088L0.199203 72.3104L0 57.171V52.7885L0.199203 33.2666H5.9761L7.37052 33.4658V49.0036H11.1554L17.9283 48.8044L19.9203 48.6052L20.1195 33.0674L20.3187 32.8682Z" fill="#018F4A"/>
<path d="M114.745 42.4307H116.538L119.526 43.6259L122.713 45.2195L124.506 46.4147L126.299 48.0084L128.092 50.598L129.685 53.7852L130.482 56.1757V59.7613L130.283 59.9605L127.693 60.1597H108.57L108.769 61.7534L109.566 63.347L110.761 64.9406L112.753 66.335L114.148 66.9327H115.94L119.526 66.1358L121.916 65.1398L122.912 64.5422L124.307 64.7414L126.299 66.1358L128.291 67.3311V68.1279L126.897 69.5223L123.908 71.5143L121.717 72.5103L118.928 73.108H113.152L110.96 72.5103L108.171 71.1159L106.578 69.9207L104.785 67.3311L103.191 63.9446L102.594 61.355L102.395 59.3629V56.1757L102.793 53.7852L103.789 51.3948L105.582 48.606L107.375 46.4147L109.367 44.8211L113.55 42.8291L114.745 42.4307Z" fill="#018F4A"/>
<path d="M45.4209 42.8291H47.2138L50.6002 43.8251L53.7875 45.4187L56.1779 47.61L57.9707 49.602L59.9628 52.5901L60.9588 55.1797L61.3572 56.7733V59.1638L61.158 59.7614L57.9707 60.1598L39.644 60.359L39.2456 60.5582L39.4448 62.1518L41.2377 64.9407L42.8313 66.3351L44.0265 66.7335L46.6161 66.9327L49.8034 66.5343L51.7954 65.5383L52.7914 64.7415H54.1859L58.5683 66.9327L59.1659 67.5303L58.7675 68.3271L54.7835 71.3152L53.1898 72.3112L50.7994 73.108H43.2297L41.2377 72.5104L38.4488 70.7175L36.656 69.1239L35.2616 66.9327L34.0663 64.5422L33.2695 61.355V55.3789L34.0663 52.1917L35.2616 49.8012L36.656 48.0084L38.2496 46.2156L40.2416 44.8211L43.0305 43.4267L45.4209 42.8291Z" fill="#018F4A"/>
<path d="M74.1047 42.6299L75.6983 42.8291L78.4872 44.4227L80.4792 46.0163L82.0728 47.61V48.8052L80.0808 50.7972L79.284 51.3948L77.4912 51.594L76.296 50.9964L74.7023 50.0004L73.5071 49.8012L71.9135 50.3988L71.7143 51.594L73.5071 53.3869L78.8856 56.3749L80.28 57.7693L81.8736 60.359L82.6705 62.5502V66.1359L82.2721 68.1279L81.0768 70.1199L79.284 71.5143L76.4952 72.9088L74.5031 73.3072L71.3159 73.108L68.9254 72.5104L66.9334 71.3151L64.9414 69.3231L64.543 68.5263L64.7422 67.7295L66.1366 66.1359L67.531 64.1438L68.7262 63.9446L70.7183 65.9367L72.5111 66.3351H76.0968L76.8936 65.7375V64.5422L75.4991 62.5502L73.1087 60.7574L70.9175 59.3629L68.7262 57.7693L67.3318 56.3749L64.9414 52.1916L65.539 49.4028L67.1326 46.4147L68.527 44.8211L70.9175 43.4267L74.1047 42.6299Z" fill="#008F4A"/>
<path d="M48.6079 14.9404H49.2055L48.8071 15.9364L47.6119 17.3309L45.8191 18.1277L41.4366 19.3229L40.2414 19.9205H39.843V20.3189L37.4525 21.3149L38.6478 22.7094L42.2334 26.295L43.4286 27.0918H44.2255L44.0263 28.287L45.4207 29.6815L46.6159 30.4783H48.8071L48.4087 31.6735L48.2095 32.4703L49.4047 34.0639L52.3928 37.2512L54.7832 39.8408L56.5761 41.8329L58.1697 43.4265L59.9625 45.6177L61.1577 46.6137L60.7593 43.0281L58.9665 28.8847L58.1697 24.303V23.5062L56.9745 24.303L54.9824 26.0958L53.1896 27.4902L52.3928 28.0878H51.9944V27.0918L53.3888 26.295L54.1856 25.8966L54.3848 25.299L55.58 24.303L56.5761 23.1078L57.1737 22.5102L57.5721 20.7173L57.7713 18.7253L58.1697 19.1237H59.1657L59.3649 17.5301H60.1617L60.5601 18.5261L62.9506 16.7333L63.9466 16.9325L63.7474 17.9285L61.9545 19.3229L61.1577 19.9205V23.7054L61.9545 33.2671L62.3529 41.4345L62.9506 48.6058L63.7474 51.3946L62.5522 50.9962L60.5601 49.2034L57.9705 46.8129L56.9745 46.0161V45.6177H56.5761L55.1816 44.0241L54.1856 42.8289L53.1896 41.8329L51.1976 40.04L47.8111 36.8528L46.2175 35.2592L45.0223 34.8607L42.831 36.6536L40.0422 39.4424L36.0581 42.6297L32.2733 46.4145L30.4804 47.809H30.082V46.4145L31.078 43.8249L32.4725 41.6337L34.8629 38.2472L36.6557 35.0599L38.847 31.4743L39.843 30.0799L39.6438 28.6854L38.0502 27.291L36.2573 25.8966L31.2773 20.9165L30.8788 20.3189L31.078 19.5221L32.8709 19.1237L35.6597 18.7253L39.2454 17.7293L41.2374 17.3309L44.8231 16.1356L47.4127 15.7372L48.6079 14.9404Z" fill="#018F4B"/>
<path d="M89.445 33.0674H95.6203L95.8195 43.6252L96.2179 43.8244L99.4052 44.0236L99.6044 44.2228L99.8036 45.6172L100.003 49.6012L99.6044 50.3981L95.6203 50.7965L95.4211 72.5096L95.2219 72.7088H89.445L89.2458 72.5096V50.3981H88.0506L87.6522 50.5973H86.0585L85.8593 50.1989L85.4609 45.418V44.2228L85.8593 44.0236L88.449 43.8244L89.2458 43.4259L89.445 33.0674Z" fill="#008F49"/>
<path d="M145.815 42.2314H147.011L147.808 43.8251L147.608 46.2155L147.011 48.0083L146.413 49.2036L145.616 49.8012L143.027 50.598L141.632 51.3948L140.835 52.9884L140.636 55.7773L140.437 72.5103L134.262 72.7095L134.062 72.1119L134.262 45.2195L134.66 44.0243L136.254 43.4267L137.25 43.6259L138.644 44.6219L139.839 46.4147L141.035 46.8131L142.031 46.0163H142.429L142.827 45.2195L144.222 43.6259L145.815 42.2314Z" fill="#008F4A"/>
<path d="M73.5078 80.877H77.691L79.8823 81.2754L81.0775 82.0722L81.8743 83.0682L82.4719 84.861L82.6711 86.6538L82.0735 87.6499L81.0775 88.8451L81.6751 89.8411L82.8703 91.4347L83.2687 92.8291V95.4188L82.6711 97.4108L81.4759 99.0044L80.2807 99.6021L79.2847 99.8013H73.5078L73.1094 99.4028V82.4706L73.3086 81.0762L73.5078 80.877Z" fill="#222525"/>
<path d="M57.7688 23.5059H58.1672L58.964 27.2907L60.7568 41.6333L61.3544 45.8166V46.8126L60.3584 46.215L58.1672 43.8246L56.7728 42.231L54.9799 40.4381L53.5855 38.8445L51.1951 36.2549L48.6054 33.466L48.0078 32.47L48.207 31.6732L50.3983 29.482L53.1871 27.2907L55.7767 25.0995L57.7688 23.5059Z" fill="#FEFEFE"/>
<path d="M0.199203 33.2666L3.18725 33.4658L2.98805 34.4618L3.58566 35.8562V37.2507L3.38645 38.2467V40.2387L3.58566 40.4379L3.78486 43.2268V46.6132L3.38645 48.0076V50.7965L4.18327 56.7726L4.38247 58.3662L4.98008 60.159L4.58167 61.9519L3.58566 61.7527L3.18725 64.3423V67.928L3.78486 69.7208L3.38645 70.7168L3.18725 71.5136L3.38645 72.1112H0.199203L0 57.171V52.7885L0.199203 33.2666Z" fill="#0A7F45"/>
<path d="M261.952 80.2793H262.948L263.347 80.6777L263.546 82.8689L263.745 99.4028L263.347 99.8012H261.952L261.554 99.4028L259.761 99.602L259.164 99.8012H256.176L254.98 99.2036L253.586 97.61L252.988 96.0163L252.59 93.2275L252.988 91.0363L254.183 89.2434L255.578 88.0482L256.574 87.6498H257.968L260.558 88.4466H261.554V85.4586L261.355 80.6777L261.952 80.2793Z" fill="#222625"/>
<path d="M95.4176 87.4502H97.4097L98.8041 88.0478L100.398 89.4422L101.593 91.4343L101.991 93.0279V94.4223L101.195 97.0119L99.8001 98.8048L97.4097 100H95.0192L93.4256 99.2032L92.0312 97.6096L91.0352 95.2191V92.6295L92.0312 90.239L93.4256 88.4462L94.82 87.6494L95.4176 87.4502Z" fill="#222625"/>
<path d="M20.7224 87.6494H23.5112L24.9056 88.247L26.4993 89.6414L27.2961 91.8327V93.6255L26.8977 96.0159L26.6985 97.8088L25.7024 99.004L23.7104 100H21.5192L19.5271 99.2032L18.3319 98.2072L17.1367 95.8167L16.9375 94.8207V92.4303L17.5351 90.4383L18.3319 89.243L19.7263 88.0478L20.7224 87.6494Z" fill="#212926"/>
<path d="M133.468 87.4502H135.859L137.851 88.247L139.245 89.8406L139.843 91.4343L140.042 93.6255L139.843 97.0119L139.046 98.6056L138.05 99.4024L136.656 100H133.668L132.472 99.4024L131.476 98.4064L130.68 97.2112L130.082 95.2191V92.6295L130.879 90.0398L132.074 88.4462L133.07 87.6494L133.468 87.4502Z" fill="#212B27"/>
<path d="M168.925 87.4502H170.917L172.71 88.247L173.706 89.243L174.503 91.0359L174.702 91.8327V94.0239L174.304 96.0159L174.503 96.6135L173.906 98.2072L172.511 99.4024L170.917 100H169.125L167.332 99.4024L166.336 98.4064L165.141 96.8127L164.543 95.2191V92.0319L165.937 89.8406L167.332 88.247L168.925 87.4502Z" fill="#212926"/>
<path d="M245.218 87.6494H247.808L249.601 88.4462L250.597 89.6414L251.593 92.4303V93.0279L251.195 93.2271L250.995 94.4223V97.6096L250.199 98.8048L248.207 99.8008L247.609 100H245.218L243.625 99.2032L242.23 97.6096L241.434 95.0199V91.8327L242.43 89.8406L243.625 88.4462L245.218 87.6494Z" fill="#212725"/>
<path d="M48.6052 87.6494H51.1948L52.9876 88.4462L53.9836 89.8406L54.5813 92.2311L54.1828 94.0239L53.9836 94.8207L54.3821 96.6136L54.1828 98.008L52.9876 99.4024L50.7964 100H49.402L47.4099 99.4024L45.8163 98.008L44.8203 96.0159L44.6211 95.2191V92.2311L45.4179 90.2391L46.8123 88.6454L48.0075 87.8486L48.6052 87.6494Z" fill="#212826"/>
<path d="M1.39447 80.6777L2.39049 80.8769L2.78889 81.873L2.98809 83.6658L3.1873 88.2475L11.3546 88.4467V85.0602L11.5538 81.2753L12.1514 80.8769H13.1475L13.5459 81.2753L13.7451 97.4108L13.9443 99.8012L13.7451 100H11.3546V91.2355L11.1554 90.6379H3.3865L3.1873 91.0363L2.98809 99.602L2.39049 99.8012H0.796859L0.597656 99.602L0.796859 82.2714L0.996063 80.8769L1.39447 80.6777Z" fill="#222725"/>
<path d="M55.9796 14.1436L56.5772 14.3428L57.1748 15.9364L57.7724 18.526V20.7173L55.1827 23.1077L53.7883 24.7013L48.8082 28.6854L47.0154 30.0798L46.0194 29.8806L44.625 28.6854L44.2266 27.6894L46.0194 25.2989L47.8122 22.7093L50.6011 17.9284L52.1947 16.3348L55.9796 14.1436Z" fill="#FEFEFE"/>
<path d="M213.949 87.6494H216.539L217.933 88.4462L219.128 88.6454L220.921 88.0478L221.917 87.6494H224.108L225.702 88.247L226.3 89.4422L226.499 94.6215V99.8008L226.3 100H224.507L224.307 90.6375L224.108 90.0399L222.913 89.6414H220.722L220.124 90.2391L219.925 91.0359L219.726 99.8008H217.136V92.0319L216.937 89.6414L215.144 89.243L213.949 89.4422L212.953 89.6414L212.554 90.8367L212.355 99.8008H209.965V88.247L210.164 88.0478H212.953L213.949 87.6494Z" fill="#222524"/>
<path d="M62.9523 16.7334L63.9483 16.9326L63.7491 17.9286L61.9563 19.323L61.1594 19.9206V23.7055L61.5578 28.088L61.7571 33.4665V42.2314L61.3586 44.2234L60.9602 43.4266L60.5618 41.6338L58.769 27.2912L58.1714 24.3031V23.5063L56.9762 24.3031L54.9841 26.0959L53.1913 27.4904L52.3945 28.088H51.9961V27.092L53.3905 26.2952L54.1873 25.8967L54.3865 25.2991L55.5818 24.3031L56.5778 23.1079L57.1754 22.5103L57.5738 20.7175L57.773 18.7254L58.1714 19.1238H59.1674L59.3666 17.5302H60.1634L60.5618 18.5262L62.1555 17.331L62.9523 16.7334Z" fill="#03904C"/>
<path d="M41.6358 31.2744L42.6318 31.6728L44.0263 32.868L44.4247 33.6649L44.6239 35.0593L41.6358 37.8481L40.0422 39.4417L36.0581 42.629L32.2733 46.4139L30.4804 47.8083H30.082V46.4139L31.078 43.8242L32.4725 41.633L33.4685 40.637L34.4645 40.0394L36.6557 38.2465L39.4446 34.2625L41.0382 31.872L41.6358 31.2744Z" fill="#159D65"/>
<path d="M45.8198 49.4023H47.4134L49.4055 49.8008L51.3975 50.5976L53.5887 52.1912L54.3856 53.3864V54.3824L53.9871 54.7808H45.2222L42.035 54.98H39.4453L39.6445 53.5856L40.4413 52.1912L41.4373 50.996L43.8278 49.8008L45.8198 49.4023Z" fill="#FEFEFE"/>
<path d="M114.742 49.4023H117.132L119.722 50.1992L121.515 51.1952L122.511 51.992L123.507 53.5856L123.307 54.5816L123.108 54.7808H109.164L108.965 54.5816V53.3864L110.16 51.7928L111.754 50.5976L113.746 49.6015L114.742 49.4023Z" fill="#FEFEFE"/>
<path d="M20.3203 55.5781L21.1171 55.9765L22.1131 57.371L23.9059 57.9686L24.3043 58.5662V62.9486L23.9059 64.1439V66.7335L24.5035 68.9247V70.12L23.7067 71.116L22.9099 71.5144L21.5155 71.7136L21.3163 72.5104H19.9219V68.5263L20.1211 58.1678L20.3203 55.5781Z" fill="#0A8247"/>
<path d="M134.859 51.793L135.457 52.5898L136.254 55.5778L136.652 57.7691L137.051 58.7651L136.453 60.1595L136.055 61.3547V63.546L136.652 64.542L137.449 64.9404L138.445 66.7332L139.242 67.7292L140.238 68.3268L140.437 72.5101L134.262 72.7093L134.062 72.1117H134.461V60.5579L134.66 52.3906L134.859 51.793Z" fill="#098146"/>
<path d="M37.8512 47.0117L38.648 47.2109L38.4488 48.2069L37.0544 50.199L35.66 52.3902L35.2616 54.3822V55.7767L36.4568 57.9679L36.8552 59.3623L37.0544 62.7488L37.8512 65.936L38.4488 67.7288V68.1273H38.0504L37.8512 69.1233L38.8472 70.3185L42.0345 72.3105L42.6321 72.7089L41.2377 72.5097L38.4488 70.7169L36.656 69.1233L35.2616 66.932L34.0663 64.5416L33.2695 61.3543V55.3783L34.0663 52.191L35.2616 49.8006L36.656 48.0077L37.0544 47.4101L37.8512 47.0117Z" fill="#0A8247"/>
<path d="M146.617 87.6494H149.007L150.003 88.247L151.199 89.6414L151.597 90.6375L151.796 97.2112L151.995 99.8008L151.796 100H150.203L149.804 99.8008L149.406 96.2152V91.2351L148.808 89.8406L148.011 89.4422H146.617L144.625 90.2391L144.226 91.0359V100H142.434L142.234 99.8008V88.4462L145.621 87.8486L146.617 87.6494Z" fill="#222524"/>
<path d="M95.4178 89.2432H97.2106L98.605 90.04L99.601 91.6336L99.8003 92.2312V95.6177L98.8042 97.2113L97.609 98.2073L95.8162 98.6057L94.2226 97.6097L93.2265 96.0161L93.0273 95.0201V92.6296L93.625 91.036L94.8202 89.6416L95.4178 89.2432Z" fill="#FEFEFE"/>
<path d="M256.777 89.4424H258.57L260.96 90.8368L261.558 91.8328V96.0161L260.761 97.2113L259.765 98.0081L259.168 98.2073H257.574L256.18 97.4105L255.184 96.2153L254.586 94.4225V92.4304L255.184 91.036L256.379 89.6416L256.777 89.4424Z" fill="#FEFEFE"/>
<path d="M90.043 51.793L91.4374 52.789L92.4334 53.1874L93.2302 54.9802L93.6286 56.3746L94.027 60.9563V62.5499L93.6286 63.7452L93.4294 64.1436L93.031 66.534L92.2342 66.3348L91.2382 66.534L91.039 67.53L90.6406 67.9284L90.4414 69.7213H90.2422L89.8438 66.7332V51.9922L90.043 51.793Z" fill="#0A8146"/>
<path d="M68.7298 10.1592L69.5266 10.3584V10.7568L70.3234 10.956L70.921 11.5536L65.9409 16.5337L63.7497 18.3265L61.3593 20.5177L60.9609 20.9162V19.9201L61.9569 19.1233L63.7497 17.7289L63.5505 16.9321L62.5545 17.3305L60.9609 18.5257H60.3633L59.9648 16.9321V13.3464L62.3553 12.3504L64.3473 11.5536L65.3433 11.3544V10.956L68.3314 10.3584L68.7298 10.1592Z" fill="#159D65"/>
<path d="M195.418 79.8809L196.016 80.0801L196.414 82.0721L196.613 91.0362V97.8091H202.191L202.589 98.4068L202.39 99.8012L194.82 100L194.621 99.8012V83.0681L195.02 80.2793L195.418 79.8809Z" fill="#212E29"/>
<path d="M107.172 87.251L108.964 87.4502L110.956 88.4462L111.554 89.243V90.239L111.355 90.4382H109.96L108.765 89.4422L107.968 88.6454L106.972 88.8446L105.976 89.8406V91.6334L106.773 92.6295L107.769 93.0279L109.96 93.2271L111.156 94.0239L111.753 95.0199V97.0119L110.757 98.6056L109.164 99.8008L108.566 100H106.574L105.18 99.4024L104.184 98.4064L103.785 97.4103V96.0159L104.582 96.4143L105.976 97.6095L106.972 98.0079L108.765 97.8087L109.363 97.2111L109.562 95.8167L108.367 95.4183L105.578 94.0239L104.383 92.8287L104.184 92.2311V90.0398L104.98 88.4462L105.976 87.6494L107.172 87.251Z" fill="#222725"/>
<path d="M75.8969 5.57812H76.8929L76.2953 6.57414L74.1041 8.36697L71.5145 10.9566L70.7176 11.355L69.5224 10.7574L69.3232 10.359L66.9328 10.7574L65.3392 10.9566V11.355L63.1479 12.351L59.9607 13.1478L59.7615 13.7455L57.9686 14.3431L56.5742 13.347L56.7734 12.5502L57.371 11.9526L59.7615 11.1558L59.9607 10.5582V10.9566L63.1479 9.76139L71.3153 7.17175L74.1041 5.97653L75.8969 5.57812Z" fill="#01904B"/>
<path d="M178.687 87.6494H181.078L182.671 88.4462L183.468 89.6414L183.269 90.6375L182.074 90.2391L181.078 89.4422L180.679 89.243H179.285L178.488 89.8406V91.4343L179.683 92.4303L182.472 94.0239L183.667 95.4183V97.6096L182.871 98.8048L181.675 99.6016L180.48 100H178.886L177.094 99.4024L176.297 98.4064L176.098 97.8088V96.2152L176.894 96.6136L178.488 97.8088L178.886 98.008H180.679L181.675 97.4104V96.2152L179.883 95.0199L176.496 92.8287L176.098 92.4303L175.898 91.2351L176.695 89.0438L178.09 87.8486L178.687 87.6494Z" fill="#212826"/>
<path d="M31.6717 87.251H33.0661L34.8589 88.0478L35.6557 89.0438V90.4382H34.4605L33.2653 89.0438L32.2693 88.8446L31.2733 89.6414L31.074 90.0398V91.6334L31.8709 92.4303L34.8589 93.4263L35.8549 94.6215L36.2533 96.0159L36.0541 97.8087L35.2573 99.2032L34.2613 99.8008L31.8709 100L30.078 99.6016L29.2812 98.8048L28.8828 97.6095L29.082 96.2151L30.078 96.8127L31.6717 97.8087H33.6637L34.4605 97.2111V96.0159L30.8748 94.2231L29.4804 92.6295L29.082 90.6374L29.6796 88.8446L30.6756 87.8486L31.6717 87.251Z" fill="#212A27"/>
<path d="M117.726 87.6494H120.913L122.109 88.4462L122.906 90.0399L123.105 91.0359L120.913 89.6414L120.316 89.4422H118.324L117.129 90.2391L115.933 91.6335L115.535 92.6295V95.2191L116.332 96.8128L117.527 97.8088L117.925 98.008H120.117L121.511 97.2112L122.706 96.2152L122.109 98.2072L121.312 99.4024L120.316 100H117.726L115.336 98.8048L113.941 97.2112L113.344 95.2191V92.8287L113.941 90.8367L114.937 89.243L116.133 88.247L117.726 87.6494Z" fill="#212826"/>
<path d="M237.449 83.0674L238.246 83.2666L238.843 84.661L239.043 87.0514L239.64 88.2467L239.839 88.8443L239.242 89.8403L239.043 91.6331V99.8004L238.644 99.9997H236.851L236.453 99.8004V90.2387L235.059 89.6411L235.258 88.2467L236.055 87.8483H236.652L236.453 85.4578L236.851 83.665L237.449 83.0674Z" fill="#222625"/>
<path d="M134.465 89.0439L136.257 89.2431L137.253 89.8408L138.05 91.4344L138.25 92.8288L138.05 93.028H136.457L135.66 92.6296H134.066L132.672 93.028L133.469 93.8248L134.664 94.6216L136.457 94.8208L138.25 93.8248L138.847 94.024L139.046 94.4224V96.0161L137.851 97.6097L136.855 98.2073H134.265L133.269 97.6097L132.273 96.6137L131.875 95.4184V93.6256L132.074 92.6296L132.273 91.2352L133.469 89.6416L134.465 89.0439Z" fill="#FEFEFE"/>
<path d="M75.1015 91.0361H79.2848L80.2808 91.4345L80.8784 92.0321L81.2768 93.2274V95.0202L80.6792 96.813L79.2848 97.809L78.488 98.0082H76.0975L75.1015 97.4106L74.7031 96.2154L74.9023 91.4345L75.1015 91.0361Z" fill="#FEFEFE"/>
<path d="M158.965 87.6494H161.953L162.949 88.247L163.546 89.243L163.745 90.6375L160.359 89.0438L159.164 89.4422L157.57 90.8367L156.773 92.6295V94.6215L157.57 96.6136L158.566 97.6096L159.164 98.008H161.554L163.148 97.2112L163.745 96.8128L163.347 98.6056L162.55 99.6016L161.753 100H158.765L157.172 99.2032L155.777 97.6096L154.98 96.0159L154.781 95.2191V92.4303L155.578 90.2391L156.972 88.6454L158.965 87.6494Z" fill="#212826"/>
<path d="M49.6052 89.0439L51.1989 89.4424L52.3941 90.8368L52.7925 92.4304V93.2272L49.406 93.8248L49.6052 92.8288L50.402 92.032H50.8005L50.0036 91.6336L49.8044 92.032L47.8124 92.8288H47.2148L47.6132 94.024L48.41 94.4224H50.402L50.9997 94.6216H53.3901V96.2153L52.1949 97.6097L50.6013 98.2073L48.8084 98.0081L47.414 97.0121L46.8164 96.0161L46.6172 93.8248L47.2148 91.036L48.2108 89.6416L49.6052 89.0439Z" fill="#FEFEFE"/>
<path d="M47.0149 17.9287L47.2141 18.5263L44.8236 22.112L43.23 24.9008L42.4332 26.096L41.6364 25.6976L40.0428 24.3032L37.2539 21.5144L37.4531 21.116L41.4372 19.5223L47.0149 17.9287Z" fill="#FEFEFE"/>
<path d="M40.4373 83.2666L41.2342 83.4658L41.4334 83.8642L41.6326 87.4499L42.8278 88.4459L43.027 89.6411L41.8318 90.6371L41.6326 92.0315V99.2029L41.4334 99.6013H39.6405L39.2421 99.2029L39.4413 98.0076L39.6405 97.6092V93.2268L40.0389 90.4379L38.8437 90.0395L38.4453 89.6411V88.4459L39.6405 87.4499L39.8397 83.8642L40.4373 83.2666Z" fill="#212826"/>
<path d="M59.1635 0L59.7611 0.199203V2.19124L58.7651 5.77689L57.769 5.9761L57.5698 5.77689L56.9722 8.16733L56.5738 8.36653L55.9762 7.37052L55.5778 8.16733L55.1794 9.96016L54.5818 11.1554L53.5858 11.3546L53.3866 12.749L53.1874 12.9482V14.5418L52.5898 15.1394L51.5938 14.9402L51.9922 13.9442L52.5898 13.3466L52.3906 11.1554L53.3866 9.16335L53.1874 8.36653L52.9882 7.96813L55.5778 3.58566L56.9722 2.19124L58.3667 0.59761L59.1635 0Z" fill="#0A8247"/>
<path d="M105.183 50L105.582 50.1992L105.383 51.3944L104.387 53.5857L103.988 55.5777V57.3705L104.785 61.3546L105.383 63.3466L106.179 66.5339L106.976 69.1235L108.171 70.5179L111.359 72.1116V72.51L109.566 71.9124L107.375 70.5179L106.379 69.5219L104.984 67.7291L103.191 63.9442L102.594 61.3546L102.395 59.3625V56.1753L102.793 53.7849L103.789 51.3944L104.785 50.3984L105.183 50Z" fill="#0A8348"/>
<path d="M57.3738 20.916L57.573 21.7128L56.9754 23.1073L55.9794 23.9041L54.7842 25.2985L52.5929 27.0913L52.1945 27.2905V28.2865L49.6049 30.4778L48.6089 31.2746L48.4097 30.677H46.6168L44.824 29.2825L43.828 28.2865L44.0272 27.4897L44.2264 27.0913L43.4296 27.2905L42.2344 26.4937L42.0352 26.0953H42.4336L42.832 25.0993L44.4256 22.5096L45.0232 22.7088V23.1073H45.4216L45.6208 23.5057L47.0152 23.9041L46.6168 24.7009L44.4256 27.6889L44.824 28.6849L46.4176 29.8802L47.4136 29.681L49.4057 27.8881L52.7921 25.2985L54.7842 23.5057L56.1786 21.912L57.3738 20.916Z" fill="#169E66"/>
<path d="M60.9567 87.6494H62.1519L62.5503 87.8486L62.1519 89.0438L61.1559 90.0399L59.1639 91.2351L58.7655 92.8287L58.9647 96.4144V98.008L59.1639 99.6016L58.1678 100H56.9726L56.5742 99.6016V92.8287L56.7734 88.0478H57.7694L58.1678 88.4462L58.367 89.6414L59.5623 89.4422L60.5583 87.8486L60.9567 87.6494Z" fill="#212B27"/>
<path d="M75.5 83.2666H79.0856L80.0816 83.8642L80.48 84.4618V87.6491L79.484 88.6451L77.8904 88.8443H75.5L74.9023 88.4459V85.2586L75.1015 83.665L75.5 83.2666Z" fill="#FEFEFE"/>
<path d="M230.277 88.2471H232.269L232.867 89.2431V99.6017L232.469 99.8009H230.277V88.2471Z" fill="#222423"/>
<path d="M204.383 88.2471H206.375L206.574 88.4463V99.8009H204.184V88.4463L204.383 88.2471Z" fill="#212B27"/>
<path d="M66.1401 10.9561H68.1322L66.937 12.5497L64.5465 14.7409L62.9529 15.9361L60.7617 17.5298L60.3633 17.3306L59.9648 15.5377V13.3465L62.3553 12.3505L64.3473 11.5537L66.1401 10.9561Z" fill="#FEFEFE"/>
<path d="M173.71 93.8242H174.109V95.2186L173.312 96.4139L171.718 97.8083L170.523 98.2067H169.129L167.934 97.6091L166.937 96.6131L166.738 96.2147V94.0234L168.531 94.2226L170.125 94.621H171.918L173.71 93.8242Z" fill="#FEFEFE"/>
<path d="M249.406 93.2275L249.804 93.4267L250.003 95.4188L249.406 97.0124L248.211 98.0084L247.215 98.4068H246.019L244.824 97.61L243.828 96.4148L243.43 95.2196V94.0244L246.019 94.2236L246.219 94.4228H248.211L249.207 93.6259L249.406 93.2275Z" fill="#FEFEFE"/>
<path d="M89.4414 33.0674H95.4175V34.2626L93.8239 35.2586L92.4295 35.657L91.6326 35.4578L91.035 36.4538V38.4459L90.2382 42.6291L89.6406 43.2267L89.4414 36.653V33.0674Z" fill="#098146"/>
<path d="M19.125 93.8242L20.121 94.0234L22.113 94.621H23.9059L24.9019 94.0234H25.8979L26.2963 95.2186L25.4995 96.6131L23.9059 97.8083L22.9099 98.2067H21.5154L19.9218 97.2107L19.125 96.0155V93.8242Z" fill="#FEFEFE"/>
<path d="M86.457 88.0479L87.453 88.2471L87.6522 88.6455V98.008L87.8514 100H86.2578L85.8594 99.8008L85.6602 98.4064L85.8594 89.0439V88.2471L86.457 88.0479Z" fill="#212926"/>
<path d="M125.695 88.0479H126.691L126.89 88.2471V96.8128L127.289 99.004L127.09 100H125.098V91.8327L125.297 88.2471L125.695 88.0479Z" fill="#212B27"/>
<path d="M169.523 88.8447H170.918L172.113 89.8407L172.71 90.8368L172.91 92.032L172.312 92.8288L170.918 93.2272H167.133L166.934 93.028L167.133 91.4344L168.328 89.6415L169.523 88.8447Z" fill="#FEFEFE"/>
<path d="M41.6323 31.2744L42.6283 31.6728L43.6243 32.6688V33.4656L42.8275 34.4617L40.2379 36.4537L38.0466 38.6449L37.0506 39.2425L35.6562 40.4378L35.0586 40.637L35.457 39.6409L37.2498 37.4497L39.8395 33.6649L41.2339 31.6728L41.6323 31.2744Z" fill="#FEFEFE"/>
<path d="M42.0345 28.8848L43.0305 29.084L42.8313 29.8808L41.8353 30.8768H41.4369L41.0385 32.072L39.644 34.2633L36.8552 38.2473L34.8632 40.0401L33.2695 40.837L33.6679 40.0401L35.4608 37.2513L36.656 35.0601L37.4528 34.2633H38.4488V33.8648L39.2456 33.2672H39.644L39.4448 32.4704L40.2416 30.6776H40.64L40.8393 29.4824L42.0345 28.8848Z" fill="#0A864A"/>
<path d="M245.621 89.2432H247.015L248.211 89.8408L249.007 90.8368L249.207 91.4344V92.8288L248.211 93.028L247.613 92.8288L247.414 92.4304H246.219L244.625 92.8288H243.43L243.629 91.2352L245.223 89.4424L245.621 89.2432Z" fill="#FEFEFE"/>
<path d="M21.7108 89.2432L23.3044 89.4424L24.4996 90.2392L25.0972 91.2352L25.2964 92.8288L25.0972 93.028H24.1012L23.3044 92.2312L22.3084 92.4304L21.5115 92.8288L19.5195 92.6296L19.3203 91.8328L19.9179 90.6376L21.1131 89.4424L21.7108 89.2432Z" fill="#FEFEFE"/>
<path d="M64.1439 10.5576H65.5384L65.3392 11.3544L63.1479 12.3504L59.9607 13.1473L59.7615 13.7449L57.9686 14.3425L56.5742 13.3465L56.7734 12.5496L57.371 11.952L59.1639 11.3544L60.7575 11.1552L60.9567 11.3544H61.9527L62.7495 10.7568L64.1439 10.5576Z" fill="#0A8348"/>
<path d="M95.0232 66.335H95.2224L95.4216 68.9246V72.5103H94.0272L93.6288 71.5142L92.0352 70.319V69.1238L92.832 67.331L94.0272 67.7294L94.4256 66.9326L95.0232 66.335Z" fill="#098146"/>
<path d="M79.8826 67.1318L80.6794 67.5302L80.8786 68.3271L81.6754 68.5263V68.1279H82.0738L81.6754 69.3231L80.4802 70.7175L77.8906 72.3111L77.0938 72.5103L77.8906 71.7135L78.6874 71.5143L78.4882 70.9167L78.6874 70.5183H77.293V69.5223L78.4882 67.9286L79.8826 67.1318Z" fill="#0A8247"/>
<path d="M47.2107 18.9238L48.406 19.3222L48.2068 20.9159L48.0075 22.7087L47.2107 23.9039L46.6131 24.1031L45.4179 23.5055V23.1071H44.6211L44.8203 21.7127L46.4139 19.5214L47.2107 18.9238Z" fill="#0A8348"/>
<path d="M51.5928 10.5576L51.9912 11.3544L50.9952 13.1473H50.5968L50.1984 14.3425L48.804 16.5337L47.4096 18.5257L47.0112 18.1273L40.8359 19.9202L39.8398 20.1194L40.6367 19.5218L42.8279 18.7249L47.0112 17.5297L48.0072 16.7329L49.2024 14.9401L48.0072 15.5377L47.4096 15.9361L44.2223 16.5337L40.6367 17.7289L39.8398 17.5297L43.0271 16.1353L46.812 15.1393L49.2024 14.1433L50.1984 13.1473L51.5928 10.5576Z" fill="#169E66"/>
<path d="M61.5545 30.877H61.7537L62.1521 36.4546L62.5505 44.0244L62.949 49.2036L59.5625 45.8172L59.7617 45.4188L61.1561 46.614L60.9569 43.4268L61.3553 43.8252L61.5545 42.2315V30.877Z" fill="#169E66"/>
<path d="M59.5663 17.3311L60.1639 17.5303L60.5623 19.3231L60.9607 19.7215L60.3631 21.3151L60.1639 23.1079L59.5663 24.104L58.5703 23.1079L57.7734 21.7135L57.9726 19.5223L58.1718 19.1239H59.1679L59.3671 17.5303L59.5663 17.3311Z" fill="#0A8146"/>
<path d="M20.7226 35.458L21.121 35.6572V36.2548H21.5194L21.3202 39.8405V44.8206L20.5234 48.0078L20.125 47.8086V43.0277L20.3242 36.454L20.7226 35.458Z" fill="#0A8146"/>
<path d="M136.258 43.4268L137.254 43.626L138.648 44.622L138.449 45.0204L137.851 44.8212V45.2196L137.054 45.4188L136.058 44.8212L135.66 44.4228L135.262 44.622L134.664 46.4148V60.5582L134.465 72.112H134.266V45.2196L134.664 44.0244L136.258 43.4268Z" fill="#169E66"/>
<path d="M75.8977 5.57812H76.8937L76.2961 6.57414L74.1048 8.36697L73.308 8.96458L72.1128 8.56617L71.7144 8.36697V7.96856L66.7343 9.16378L65.9375 8.96458L69.5232 7.76936L72.1128 6.77334L74.9016 5.77733L75.8977 5.57812Z" fill="#169E66"/>
<path d="M249.207 92.0322L249.605 92.829L249.207 93.8251L248.211 94.6219H246.219L246.019 94.4227L243.43 94.0243L243.828 93.6259L243.629 92.829L246.219 92.2314H247.414L247.613 92.829H249.207V92.0322Z" fill="#0F7846"/>
<path d="M74.1049 42.6299L75.6985 42.8291L78.089 44.2235L77.4914 44.4227H75.3001L72.5113 44.0243L71.9137 43.8251L69.7224 45.0203L67.9296 46.2155L66.9336 47.0124L67.332 46.2155L68.5272 44.8211L70.9177 43.4267L74.1049 42.6299Z" fill="#159D65"/>
<path d="M89.4414 50.3984H89.6406L89.8398 53.1873V72.51H95.2183V72.7092H89.4414L89.2422 72.51L89.4414 50.3984Z" fill="#169E66"/>
<path d="M147.613 43.8242L147.812 44.621L147.214 47.8083L146.218 49.4019L144.824 49.9995L142.633 50.7963L141.438 51.3939L141.637 50.7963L143.828 49.6011L144.426 48.8043L145.222 48.4059L146.218 46.8123L146.617 45.8163L147.015 45.617L147.613 43.8242Z" fill="#169E66"/>
<path d="M50.0037 91.4346L50.8005 91.833V92.4306H50.2029L49.6053 93.2274V94.2234L50.2029 94.0242H51.9957L53.3901 94.4226V94.6218L50.8005 94.821L50.2029 94.6218H48.4101L47.2148 93.825V92.829L49.2069 92.0322H49.8045L50.0037 91.4346Z" fill="#159661"/>
<path d="M117.129 57.1709L123.304 57.7685L123.105 58.3661L122.707 58.5653H117.926L116.531 58.1669V57.3701L117.129 57.1709Z" fill="#0A8146"/>
<path d="M204.781 80.2793L205.976 80.8769L206.176 82.0721L206.773 82.4705V83.6658L205.18 84.0642L204.383 83.865L204.184 83.0681L204.582 80.4785L204.781 80.2793Z" fill="#212C28"/>
<path d="M35.6599 18.7256H36.8551L36.4567 19.5224L34.4647 19.3232L35.0623 20.3192L35.4607 21.3152L35.0623 21.7136L33.8671 21.5144V21.116L33.0703 20.9168L32.2734 19.7216V19.3232L35.6599 18.7256Z" fill="#0A8247"/>
<path d="M230.875 80.877L231.672 81.0762L232.668 82.0722L232.867 83.2674L232.469 83.865H230.477L230.277 83.6658L230.477 81.0762L230.875 80.877Z" fill="#212926"/>
<path d="M35.4606 41.833H35.859L36.0583 42.6298L32.4726 46.2155H31.875L31.6758 45.4187L32.0742 44.6219L33.4686 43.4266L34.2654 42.829H34.6638L34.863 42.2314L35.4606 41.833Z" fill="#038F4C"/>
<path d="M130.082 56.5732H130.281L130.48 59.7605H128.09V57.7685L128.488 57.3701L129.683 57.1709L130.082 56.5732Z" fill="#098146"/>
<path d="M53.5859 38.8447L54.9803 40.0399L56.3748 41.6336L56.9724 42.4304L57.1716 43.4264L56.1756 43.2272L54.1835 41.4344V41.036H53.7851L53.3867 39.6415H53.9843L53.5859 38.8447Z" fill="#169E66"/>
<path d="M55.578 8.96387L56.1756 9.56148L56.574 10.7567V11.9519L55.9764 12.5495L54.582 12.7487L54.3828 12.5495L54.582 10.9559L55.578 8.96387Z" fill="#FEFEFE"/>
<path d="M6.57806 59.3623L6.97647 59.5615V66.5336L6.57806 65.936L5.98045 63.1472L5.78125 60.9559L6.17966 59.5615L6.57806 59.3623Z" fill="#0A8146"/>
<path d="M95.418 33.0674H95.6172L95.8164 43.6252L96.2148 43.8244L99.402 44.0236L99.0036 44.2228L98.6052 45.0196L98.2068 45.418L97.41 45.2188L96.0156 44.422L95.418 43.8244V33.0674Z" fill="#169E66"/>
<path d="M62.9529 16.7334L63.9489 16.9326L63.7497 17.9286L61.9569 19.323L60.7617 20.3191L60.5625 19.5222L60.1641 18.9246V17.7294L60.7617 18.5262L62.1561 17.331L62.9529 16.7334Z" fill="#008F49"/>
<path d="M39.8435 28.6855L40.242 28.8848L40.4412 30.6776L39.6443 32.4704V33.2672L38.8475 33.8648H38.4491V34.2632L37.2539 34.4624L37.6523 33.4664L39.2459 30.8768L39.8435 30.08V28.6855Z" fill="#169E66"/>
<path d="M59.3594 27.8887H59.7578L60.3554 32.6695V34.8608H59.957L59.5586 33.8648L59.1602 30.2791V28.0879L59.3594 27.8887Z" fill="#0B854A"/>
<path d="M86.0586 81.4736H87.453L88.2498 82.2704L88.0506 83.2665L87.453 83.8641L86.0586 83.6649L85.8594 83.0673V81.6728L86.0586 81.4736Z" fill="#212B28"/>
<path d="M125.301 81.0762L126.496 81.2754L127.094 83.2674L126.297 83.865L125.102 83.6658L124.902 83.2674L125.102 81.2754L125.301 81.0762Z" fill="#202F29"/>
<path d="M42.0311 28.8848L43.0271 29.084L42.8279 29.8808L41.8319 30.8768H41.4335L41.0351 32.072L40.8359 32.4704H40.4375L40.0391 31.4744L40.2383 30.6776H40.6367L40.8359 29.4824L42.0311 28.8848Z" fill="#098247"/>
<path d="M67.9296 63.9443L69.1248 64.1435L69.9216 65.3388L69.7224 65.7372L69.5232 65.538L68.1288 65.7372L67.332 66.3348L67.5312 65.3388L66.7344 65.7372L67.1328 64.7411L67.9296 63.9443Z" fill="#0B854A"/>
<path d="M85.8593 44.0234H88.449L87.453 45.0195L86.457 45.6171H85.8593V48.2067H85.6601L85.4609 44.2226L85.8593 44.0234Z" fill="#169E66"/>
<path d="M37.2538 20.1191H39.8435L39.0466 20.7168L37.453 21.3144L38.6482 22.7088L39.6443 23.904L38.8474 23.5056L36.0586 20.7168V20.3183L37.2538 20.1191Z" fill="#169E66"/>
<path d="M249.203 92.0322L249.601 92.829L249.203 93.8251L248.804 94.0243L248.008 93.2274L246.215 93.6259L246.414 93.0282L244.621 92.829V92.6298L246.215 92.2314H247.41L247.609 92.829H249.203V92.0322Z" fill="#4BB186"/>
<path d="M99.6013 45.6172H99.8005L99.9997 49.6013L99.6013 50.3981L95.6172 50.7965L96.2148 50.1989L97.41 49.9997H99.2028L99.402 49.2028L99.6013 45.6172Z" fill="#169E66"/>
<path d="M85.8594 48.6055H86.0586V49.6015L87.453 49.4023L89.2458 49.9999V50.1991L87.6522 50.5975H86.0586L85.8594 50.1991V48.6055Z" fill="#169E66"/>
<path d="M144.625 43.4268L145.023 43.8252L144.027 45.0204L142.433 46.4148L141.039 47.4108L139.844 46.8132L140.242 46.614L141.039 46.8132L142.035 46.0164H142.433L142.832 45.2196L144.226 43.626L144.625 43.4268Z" fill="#169E66"/>
<path d="M60.3594 36.6533L60.7578 36.8525V37.2509H61.1562V40.239L60.7578 41.0358L60.3594 40.239V36.6533Z" fill="#0A8449"/>
<path d="M56.375 13.7451H56.7734L57.7694 15.5379L57.9686 16.9324L57.7694 18.526H57.5702L56.7734 15.1395L56.375 14.3427L55.9766 13.9443L56.375 13.7451Z" fill="#169E66"/>
<path d="M247.812 93.0283L248.808 93.6259V94.2235L248.211 94.6219H246.617L247.215 93.8251H246.617V93.4267L247.812 93.0283Z" fill="#212A27"/>
<path d="M66.535 65.7373L66.7342 66.5341L64.9414 68.9246L64.543 68.5261L64.7422 67.7293L66.1366 66.1357L66.535 65.7373Z" fill="#169E66"/>
<path d="M48.8086 93.4268H49.207V93.8252L49.6054 94.0244H50.203H51.9958L53.3903 94.4228V94.622L50.8006 94.8212L50.203 94.622H49.207L48.8086 94.0244V93.4268Z" fill="#118C54"/>
<path d="M140.039 69.5215H140.238L140.437 72.5095H134.66V72.3103L139.839 72.1111L140.039 69.5215Z" fill="#119B60"/>
<path d="M69.3241 8.96387H69.9217L69.7225 9.76068L68.7265 10.3583H67.332L67.5312 9.76068L69.3241 8.96387Z" fill="#098146"/>
<path d="M51.1953 44.2227L52.3905 44.6211L54.5818 46.0155L55.1794 46.8123L53.9842 46.4139L51.1953 44.4219V44.2227Z" fill="#0D894F"/>
<path d="M59.1639 0L59.7615 0.199203V2.19124H59.5623V0.996016L58.1679 1.39442L57.1719 2.19124L57.5703 1.39442L59.1639 0Z" fill="#149C63"/>
<path d="M6.97259 69.9199H7.1718V72.5096L6.37498 72.1112L6.77339 71.912L6.17578 70.9159V70.1191L6.97259 69.9199Z" fill="#0A8146"/>
<path d="M126.898 49.0039L127.695 49.9999L128.691 51.5935L128.492 52.3904L128.293 51.7928H127.894L126.898 49.8007V49.0039Z" fill="#0B884D"/>
<path d="M39.8398 31.2744L40.2382 31.4736L40.6366 32.6688L39.8398 33.8641L39.043 33.4656L39.6406 33.2664L39.4414 32.4696L39.8398 31.2744Z" fill="#03914D"/>
<path d="M170.121 89.8408L170.719 90.04L169.922 91.8329L168.926 92.6297L169.523 90.6376L170.121 89.8408Z" fill="#1F4536"/>
<path d="M79.8789 45.6172L81.2733 46.8124L82.0701 47.6092V48.8044L81.4725 49.2028L81.2733 48.406L81.4725 47.8084L79.8789 46.0156V45.6172Z" fill="#169E66"/>
<path d="M46.8125 35.6572L48.0077 35.8564V36.2548L48.8045 36.6532L49.2029 37.4501L48.8045 37.8485L46.8125 35.8564V35.6572Z" fill="#149D64"/>
<path d="M122.906 64.542L124.301 64.7412L125.496 65.538L125.297 66.1356L123.902 65.7372L123.504 64.7412L122.906 64.542Z" fill="#0C874D"/>
<path d="M52.789 13.3467L53.1874 13.9443L52.9882 14.7411L52.1914 15.1395L51.5938 14.9403L51.9922 14.1435L52.789 13.3467Z" fill="#0A8146"/>
<path d="M57.7694 1.59375L57.9686 2.19136L57.7694 2.78897L56.375 3.58578L55.7773 3.38658L57.7694 1.59375Z" fill="#03914E"/>
<path d="M19.5234 92.6299H20.5194L20.121 93.0283L20.7186 93.6259L20.5194 94.2235L19.125 93.8251L19.5234 92.6299Z" fill="#108C55"/>
<path d="M39.6405 38.6455H40.4373L40.0389 39.4423L38.8437 40.4383H38.2461L38.4453 39.6415L39.6405 38.6455Z" fill="#04914E"/>
<path d="M134.461 71.1152L135.059 71.912L138.246 72.1113V72.3105H134.66V72.7089L134.062 72.5097V72.1113H134.461V71.1152Z" fill="#038F4C"/>
<path d="M54.1875 11.5537H54.3867L54.5859 12.5497L56.3787 12.3505L55.7811 12.9481L53.5898 13.3465L54.1875 11.5537Z" fill="#169E66"/>
<path d="M44.0273 66.9326H48.2106V67.1318L46.0194 67.7294L45.0234 67.331L44.0273 67.1318V66.9326Z" fill="#169E66"/>
<path d="M62.7499 18.5264V19.124L60.957 20.9168V19.9208L61.953 19.124L62.7499 18.5264Z" fill="#169E66"/>
<path d="M55.7812 8.36621L56.1796 8.76462L56.7772 10.3582L56.9764 11.9519L56.3788 12.3503V10.7566L55.7812 9.16302H55.3828L55.7812 8.36621Z" fill="#169E66"/>
<path d="M249.207 92.0322L249.605 92.829L249.207 93.8251L248.809 94.0243L248.012 93.0282L249.207 92.829V92.0322Z" fill="#149960"/>
<path d="M35.6601 18.7256H36.8553L36.4569 19.5224H35.2617L34.8633 18.9248L35.6601 18.7256Z" fill="#0C854B"/>
<path d="M65.3398 50H65.539L65.7382 53.1873L65.1406 52.5896L64.9414 51.7928L65.3398 50Z" fill="#169E66"/>
<path d="M243.629 92.8291H244.426V93.2275L245.023 93.4267L244.426 94.0243H243.43L243.828 93.6259L243.629 92.8291Z" fill="#149961"/>
</svg>
