<svg width="251" height="100" viewBox="0 0 251 100" fill="none" xmlns="http://www.w3.org/2000/svg">
<path d="M192.329 31.2686H194.984L195.869 32.7435L199.999 42.478L202.654 49.2627L203.539 51.6225L203.244 53.0975H201.474L200.884 52.8025L198.819 47.1978L188.494 47.7877L186.725 52.2125L185.545 53.0975L182.3 52.8025L182.005 53.0975H170.795L169.025 52.8025L168.73 31.5635H171.68L171.975 32.1535L172.27 50.1476L181.71 50.4426L183.185 51.9175H183.775L184.66 50.7376L186.725 44.5429L190.559 34.8084L192.329 31.2686Z" fill="#1E1E1E"/>
<path d="M131.858 31.2686H139.527L142.772 31.8585L145.132 33.9234L146.017 35.9883V39.5281L145.132 41.593L143.657 43.068L141.297 44.2479L139.232 44.5429H132.743V52.8025L131.563 53.0975H129.793V31.5635L131.858 31.2686Z" fill="#1E1E1E"/>
<path d="M155.164 31.2686H157.524L158.704 33.0385L163.129 43.6579L166.374 52.2125L166.079 52.8025L164.014 53.0975L163.129 51.6225L161.654 47.7877V47.1978L151.329 47.7877L149.264 52.8025L148.084 53.0975H146.02L146.61 51.3276L148.969 45.7228L151.919 38.0532L153.689 33.6284L154.574 31.5635L155.164 31.2686Z" fill="#1E1E1E"/>
<path d="M206.494 31.2686H209.444L211.509 35.3983L214.754 43.9529L216.524 48.9677L217.409 46.9028L220.064 39.5281L222.423 33.0385L223.308 31.5635L224.783 31.2686H226.553L226.848 52.8025L225.373 53.0975L224.193 52.8025V34.8084L222.718 39.2332L219.474 48.0827L217.704 52.5075L217.409 52.8025H215.344L212.099 43.6579L210.624 39.8231L208.854 35.6933L208.559 53.0975L206.199 52.8025V31.5635L206.494 31.2686Z" fill="#1E1E1E"/>
<path d="M168.73 31.5635H171.68L171.975 32.1534L172.27 50.1475L181.71 50.4425L182.3 50.7375L182.005 53.0974H170.795L169.025 52.8024L168.73 31.5635Z" fill="#1E1E1E"/>
<path d="M133.037 33.6279H141.002L142.772 34.5129L143.657 36.8728L143.362 39.8226L142.477 41.2975L140.412 42.1825L136.282 42.4775L132.742 42.1825V34.5129L133.037 33.6279Z" fill="white"/>
<path d="M193.514 33.6279L194.104 34.5129L197.349 42.4775L197.939 45.1324H189.68L190.565 42.1825L193.514 33.6279Z" fill="white"/>
<path d="M156.044 33.6279L156.634 33.9229L159.584 41.5925L160.763 45.1324H152.504L152.799 43.3624L156.044 33.6279Z" fill="white"/>
<path d="M208.559 34.8086L209.149 35.6935L209.444 37.1685L210.034 46.608V49.8528L209.739 52.8027L208.559 53.0977V34.8086Z" fill="white"/>
<path d="M223.303 36.873H223.893L224.188 39.8229L223.598 44.5427L221.828 46.0176L220.648 44.5427L221.533 41.5928L223.303 36.873Z" fill="white"/>
<path d="M132.447 33.6279H133.037L132.742 42.1825L132.152 41.5925V33.9229L132.447 33.6279Z" fill="white"/>
<path d="M193.512 33.6279L194.102 34.5129V37.1678L192.627 38.0527L192.332 37.1678L193.512 33.6279Z" fill="white"/>
<path d="M214.75 43.9531L215.93 45.4281L216.52 46.903H217.11L216.815 49.2629L216.225 48.9679L214.75 44.8381V43.9531Z" fill="white"/>
<path d="M188.492 47.4922H190.557L189.967 48.6721L187.902 48.9671L188.492 47.4922Z" fill="white"/>
<path d="M157.602 64.1318H163.274L164.305 64.5186L164.821 65.1632L165.208 66.0656L165.336 67.0969L164.95 68.1282L164.047 68.9017L163.274 69.2884L163.532 70.0619L165.079 72.5113L165.465 73.0269V73.4137H164.305L163.403 72.1245L162.371 70.3197L161.985 69.4173H159.02L158.891 73.5426H157.73L157.602 64.1318Z" fill="#535353"/>
<path d="M131.176 64.0029H134.785L135.946 64.2608L136.719 64.7764L137.235 65.421L137.493 66.0656V67.7414L136.977 68.7728L135.946 69.5462L134.657 69.8041L131.82 69.933L131.691 73.4137L131.176 73.5426H130.531L130.402 64.1318L131.176 64.0029Z" fill="#535353"/>
<path d="M192.023 64.0029H195.891L197.438 64.2608L198.469 65.421L198.727 66.0656V67.8704L198.211 68.7728L197.438 69.4173L196.664 69.6752L195.762 69.8041H192.926V73.2848L192.797 73.5426L191.766 73.4137L191.637 64.1318L192.023 64.0029Z" fill="#535353"/>
<path d="M240.754 65.0332H243.59L244.75 65.4199L245.524 66.0645L246.039 66.9669L246.168 67.6115V69.2874L245.782 70.7054L245.266 71.4789L244.621 72.1235L243.461 72.5102L241.785 72.6392L240.625 72.5102L240.496 72.3813V66.4513L240.625 65.1621L240.754 65.0332Z" fill="white"/>
<path d="M199.504 64.0029H200.406L200.922 64.5186L201.953 67.0969L203.114 70.1908L203.758 71.9956V72.3824H204.016L204.274 71.3511L206.079 66.4523L206.981 64.2608L207.11 64.1318H216.134L216.392 64.2608L216.263 64.7764L215.876 65.0342L213.169 65.1632L213.04 66.4523L212.911 73.4137H211.751V65.0342H207.883L206.594 68.5149L205.047 72.2535L204.403 73.4137L203.629 73.6715L203.114 73.2848L200.277 65.8077L199.762 64.5186L199.375 64.1318L199.504 64.0029Z" fill="#535353"/>
<path d="M167.395 64.0029H168.555L169.199 65.0342L171.52 71.2221L171.649 71.8667H171.907L172.164 70.5776L173.582 66.7101L174.356 64.7764L174.872 64.0029H176.032L176.161 64.2608V73.5426H175.258L175.129 73.4137V65.1632L174.614 66.968L173.711 69.2884L172.293 73.0269L171.778 73.5426L171.133 73.4137L170.102 70.3197L169.07 67.7414L168.297 65.6788L168.168 73.5426L167.137 73.4137V64.1318L167.395 64.0029Z" fill="#535353"/>
<path d="M151.676 64.0029H152.707L153.352 65.0342L155.028 69.1595L156.446 72.7691L156.575 73.4137L156.446 73.5426H155.543L155.157 72.898L154.512 71.2221V70.9643L150 71.2221L149.227 72.898L148.84 73.5426H148.066L147.809 73.2848L148.582 71.3511L150.516 66.3234L151.418 64.2608L151.676 64.0029Z" fill="#535353"/>
<path d="M181.582 64.0029H182.485L182.871 64.1318L184.289 67.4836L186.094 72.1245L186.481 73.0269V73.5426H185.708L185.063 72.898L184.418 71.2221V70.9643L179.906 71.0932L179.52 72.2535L178.875 73.4137L177.715 73.5426L177.844 72.898L179.262 69.4173L180.68 65.8077L181.453 64.1318L181.582 64.0029Z" fill="#535353"/>
<path d="M240.754 64.0029L243.977 64.1318L245.395 64.6475L246.168 65.2921L246.942 66.5812L247.2 67.3547L247.329 69.1595L246.942 70.8354L246.168 72.1245L245.395 72.7691L244.235 73.2848L242.172 73.5426H239.594L239.336 73.4137L239.207 64.1318L240.754 64.0029ZM240.754 65.0342L240.625 65.1632L240.496 66.4523V72.3824L240.625 72.5113L242.043 72.6402L243.977 72.3824L244.75 71.9956L245.653 70.9643L246.039 69.933L246.168 69.2884V67.6125L245.782 66.4523L245.008 65.5499L244.235 65.1632L243.59 65.0342H240.754Z" fill="#535353"/>
<path d="M139.555 64.0029H140.457L140.586 64.1318L140.715 68.1282H145.614V64.1318L146.516 64.0029L146.903 64.1318V73.5426H145.743L145.614 73.4137V69.1595H140.715L140.586 73.4137L140.457 73.5426H139.426L139.297 73.1559V66.5812L139.168 64.2608L139.555 64.0029Z" fill="#535353"/>
<path d="M233.789 64.0029H237.915L238.043 64.1318V64.9053L237.528 65.1632H234.821L234.692 73.4137H233.531L233.403 65.1632L230.438 65.0342L230.051 64.5186L230.18 64.1318L233.789 64.0029Z" fill="#535353"/>
<path d="M159.02 65.0332H162.887L163.789 65.4199L164.176 66.0645V67.3537L163.66 67.9982L162.758 68.385L159.535 68.5139L158.891 68.385V65.4199L159.02 65.0332Z" fill="white"/>
<path d="M193.055 65.0332H196.535L197.18 65.291L197.567 65.9356L197.696 67.0958L197.309 68.2561L196.278 68.7717L194.859 68.9006L192.926 68.7717V65.1621L193.055 65.0332Z" fill="white"/>
<path d="M131.82 65.0332H135.172L136.074 65.4199L136.332 65.9356V67.7404L135.946 68.385L134.914 68.7717L132.852 68.9006L131.691 68.7717V65.8067L131.82 65.0332Z" fill="white"/>
<path d="M224.25 64.0029L225.539 64.1318V72.5113H230.309V73.1559L229.407 73.4137H224.25V64.0029Z" fill="#535353"/>
<path d="M182.098 65.0332L182.356 65.291L183.645 68.7717L184.031 69.932L183.387 70.0609H180.422L180.551 69.4163L181.969 65.1621L182.098 65.0332Z" fill="white"/>
<path d="M152.055 65.1631H152.313L154.117 69.804V70.0618H150.508L150.637 69.2883L151.41 67.2257L152.055 65.1631Z" fill="white"/>
<path d="M168.172 65.1631L168.43 65.6787L169.074 67.2257L168.816 68.3859H169.074L169.203 70.0618L168.816 73.2847L168.172 73.5425V65.1631Z" fill="white"/>
<path d="M174.75 66.4521L175.008 66.5811V68.5148L174.363 70.3196L173.977 70.4485L173.848 68.6437L174.621 66.5811L174.75 66.4521Z" fill="white"/>
<path d="M240.754 65.0332H241.785L241.27 65.5489L240.883 66.7091L240.625 72.3813H240.496V66.4513L240.625 65.1621L240.754 65.0332Z" fill="white"/>
<path d="M240.367 65.0332L240.754 65.1621L240.625 66.4513V72.5102H240.367L240.238 69.5452V66.1934L240.367 65.0332Z" fill="white"/>
<path d="M249.52 71.9951L250.164 72.3819L250.293 72.8975L249.777 73.4132L249.004 73.2843L248.875 73.1553L249.004 72.2529L249.52 71.9951Z" fill="#535353"/>
<path d="M131.566 65.0332H131.824L131.695 68.7717L131.438 68.5139V65.1621L131.566 65.0332Z" fill="white"/>
<path d="M216.645 72.2529L217.289 72.3818L217.676 72.6397L217.547 73.0264L217.289 73.1553H216.387L216.258 72.5108L216.645 72.2529Z" fill="#535353"/>
<path d="M158.766 65.0332H159.023L158.895 68.385L158.637 68.1271V65.1621L158.766 65.0332Z" fill="white"/>
<path d="M182.094 65.0332L182.223 65.5489L182.352 66.1934L182.223 66.4513H181.965V66.7091H181.707L181.449 67.2247L181.707 66.0645L182.094 65.0332Z" fill="white"/>
<path d="M152.059 65.1631L152.316 65.292V66.3233L151.801 66.5811L151.672 66.839L151.93 65.4209L152.059 65.1631Z" fill="white"/>
<path d="M193.055 65.0332H194.602V65.1621L193.313 65.4199L193.184 65.5489L193.055 66.4513H192.926V65.1621L193.055 65.0332Z" fill="white"/>
<path d="M32.1487 0H49.5528L49.8478 0.294985L50.1428 4.12979L51.6177 4.42478L51.9127 0.58997L52.2077 0.294985H57.5174L61.6472 1.17994L65.777 3.24484L68.1369 5.30973L70.2018 8.55457L71.3817 11.5044L71.9717 15.6342L71.6767 16.2242L70.2018 15.6342L64.0071 11.7994L58.9923 8.55457L53.0926 5.60472L52.5027 7.37463L53.9776 7.66962L58.9923 10.3245L65.482 14.4543L70.2018 17.4041L71.3817 18.2891L71.0867 20.354L69.0218 24.1888L66.367 27.1386L64.5971 28.6136H63.4171L63.1221 30.0885L62.5322 30.6785V30.0885H59.8773L58.4024 30.3835L59.5823 30.6785L64.0071 30.9734L66.662 31.8584L72.2667 35.6932L74.0366 37.1681L74.3316 37.7581V49.5575H68.1369L65.777 49.2625V44.2478L66.072 43.3628L65.482 41.8879L62.5322 39.528L53.9776 34.5133L52.5027 33.9233L52.2077 35.1032L57.2224 37.7581L60.1723 39.823L62.2372 41.0029L64.8921 43.3628L64.5971 48.3776L64.3021 49.2625H53.6826L51.3227 48.9675L51.0277 34.8083L49.5528 33.3333L49.2578 32.4484L46.603 34.2183L40.9982 37.1681L35.9835 40.118L35.0985 41.2979L34.8036 42.4779L34.5086 47.7876L34.2136 48.3776H30.9688V35.3982L31.2637 32.7434L35.9835 30.3835H36.5735L35.9835 28.9086L32.1487 30.9734H31.5587L31.2637 24.1888L31.5587 16.5192L32.7387 15.3392L40.4083 11.2094L45.128 8.55457L46.898 7.9646L46.603 6.48968L42.1782 8.84956L35.3935 12.6844L32.4437 14.4543H31.8537V3.24484L32.1487 0Z" fill="white"/>
<path d="M26.2579 50.7373H32.1576L34.2225 51.0323L34.5175 52.5072L34.2225 57.522L35.6975 59.2919L41.5972 62.8317L46.0219 65.7816L48.3818 67.2565L48.6768 68.4364L49.5618 68.7314L49.2668 69.9113H48.6768L48.3818 76.696H47.4969V77.581H46.6119L48.3818 79.0559L48.6768 82.0057L49.5618 82.3007L48.9718 80.2358L50.1517 79.3509H50.7417V78.7609L54.5765 76.401L64.901 71.0913L67.8509 69.6164L69.0308 69.3214V77.286L68.7358 90.8553L68.4408 97.9349L68.1458 99.9998H51.9217L50.4467 99.7049V95.87L51.9217 94.6901L59.8863 90.5603L59.0013 89.9703L57.5264 90.2653L51.3317 93.2152H50.4467V89.3804L48.0868 89.0854V92.6252L47.7919 93.2152L46.0219 92.6252L41.0072 89.3804L33.3376 84.6606L29.2078 82.0057V79.9408L30.9777 76.106L33.3376 74.0411L34.8125 72.5662L35.6975 71.9762H38.0573L37.7624 70.2063L38.0573 69.3214L34.2225 68.4364L31.5677 66.9615L26.2579 63.4217L25.668 62.2417V53.3922L25.963 51.0323L26.2579 50.7373Z" fill="white"/>
<path d="M30.682 76.4014L30.9769 77.2863L32.7469 77.8763L37.1716 80.5312L42.7764 84.071L46.9061 86.7259L47.7911 87.0208L48.3811 86.4309V87.0208L50.741 86.7259V87.3158L53.6908 86.1359L60.1805 82.5961L64.9002 79.9412L67.8501 78.4663H68.4401L68.7351 77.8763V90.8556L68.4401 97.9353L68.1451 100H51.9209L50.446 99.7052V95.8704L51.9209 94.6905L59.8855 90.5607L59.0005 89.9707L57.5256 90.2657L51.3309 93.2155H50.446V89.3807L48.0861 89.0857V92.6256L47.7911 93.2155L46.0212 92.6256L41.0064 89.3807L33.3368 84.661L29.207 82.0061V79.9412L30.682 76.4014Z" fill="white"/>
<path d="M51.6231 30.6787H56.9328L64.0125 30.9737L66.6674 31.8587L72.2721 35.6935L74.042 37.1684L74.337 37.7584V49.5578H68.1423L65.7824 49.2628V44.248L66.0774 43.3631L65.4874 41.8882L62.5376 39.5283L53.983 34.5135L51.9181 33.3336L51.3281 31.2687L51.6231 30.6787Z" fill="#180054"/>
<path d="M26.2579 50.7373H32.1576L34.2225 51.0323L34.5175 52.5072L34.2225 57.522L35.6975 59.2919L41.5972 62.8317L46.0219 65.7816L48.3818 67.2565L48.0868 68.7314L36.5824 69.0264L34.2225 68.4364L31.5677 66.9615L26.2579 63.4217L25.668 62.2417V53.3922L25.963 51.0323L26.2579 50.7373Z" fill="#180054"/>
<path d="M66.0755 51.6221L69.0253 51.9171L69.3203 52.212V66.6663L67.5504 68.1412L59.8808 72.271L55.161 74.9259L52.2112 76.4008H51.0312V67.5513L56.046 64.6014L60.7658 61.9466L64.6006 59.2917L65.4855 57.8168L65.7805 55.1619V51.9171L66.0755 51.6221Z" fill="#180054"/>
<path d="M48.6679 23.5986H49.2578V32.4482L46.603 34.2181L40.9982 37.168L35.9835 40.1178L35.0985 41.2977L34.8036 42.4777L34.5086 47.7874L34.2136 48.3774H30.9688V35.398L31.2637 32.7432L38.9334 28.9084L45.128 25.3685L48.6679 23.5986Z" fill="#180054"/>
<path d="M91.1506 31.8584H98.5252L100 32.1534L100.295 35.3982L100 49.8525H90.2656V40.118L90.5606 32.1534L91.1506 31.8584Z" fill="#180054"/>
<path d="M0.294985 50.1475H9.43953L9.73451 50.4424V63.7168L9.43953 68.4365L0 68.1416V60.177L0.294985 50.1475Z" fill="#180054"/>
<path d="M32.1544 0H49.5585L49.8535 0.294985V4.71976L43.6588 7.9646L36.5791 12.0944L32.4493 14.4543H31.8594V3.24484L32.1544 0Z" fill="#180054"/>
<path d="M67.8494 86.1357H68.4394V97.9352L68.1444 100H51.9202L50.4453 99.7051V95.8703L51.9202 94.6903L61.0648 89.9706L66.3745 87.0207L67.8494 86.1357Z" fill="#180054"/>
<path d="M90.2658 52.2119H97.0504L99.7053 52.5069V58.7016L98.8203 63.1264L96.7554 66.3712L94.1006 69.0261L90.2658 71.091H89.6758V59.5865L89.9708 52.5069L90.2658 52.2119Z" fill="#180054"/>
<path d="M52.2109 0.294922H57.5207L61.6505 1.17988L65.7803 3.24477L68.1401 5.30967L70.205 8.55451L71.385 11.5044L71.9749 15.6342L71.68 16.2241L70.205 15.6342L64.0103 11.7993L58.9956 8.55451L53.0959 5.60466L52.2109 5.01469V0.294922Z" fill="#180054"/>
<path d="M9.73439 29.2031H10.3244V46.3123L10.0294 47.7872H0.589844V41.0025L1.76978 36.2828L3.83468 33.0379L6.19456 30.973L9.73439 29.2031Z" fill="#180054"/>
<path d="M28.6153 83.7754L30.9752 84.9553L35.4 87.9052L43.6595 92.9199L47.1994 94.9848L47.7893 95.5748V99.4096L47.4944 99.7046H42.4796L39.2348 99.1146L34.515 96.7547L31.5652 94.0999L29.5003 90.855L28.6153 88.4952L28.3203 84.9553L28.6153 83.7754Z" fill="#180054"/>
<path d="M51.6231 35.1035L53.393 35.6935L58.7028 38.6433L60.1777 39.8233L62.2426 41.0032L64.8974 43.3631L64.6025 48.3779L64.3075 49.2628H53.688L51.3281 48.9678V37.4634L51.6231 35.1035Z" fill="#180054"/>
<path d="M35.9864 51.0322H47.1958L48.9657 51.3272V61.3567L48.6708 65.1915L47.1958 64.8965L42.4761 61.9467L38.0513 59.2918L35.6914 57.5219V52.5072L35.9864 51.0322Z" fill="#180054"/>
<path d="M48.3777 34.8086H49.2626V45.1331L48.9676 48.9679H44.5429L36.2833 48.6729L35.9883 45.4281L36.2833 42.1832L37.7582 40.7083L42.7729 37.7584L47.4927 35.1036L48.3777 34.8086Z" fill="#180054"/>
<path d="M52.2112 51.3271L64.0106 51.6221L64.3056 52.5071V57.5218L63.7156 58.7018L59.2908 61.3566L52.8012 64.8965L51.0312 65.1915V51.6221L52.2112 51.3271Z" fill="#180054"/>
<path d="M48.3801 67.8467L48.675 68.4367L49.56 68.7316L49.265 69.9116H48.675L48.3801 76.6962H47.4951V77.5812H46.6101L48.3801 79.0561V81.416L48.0851 82.301L46.6101 81.711L43.6603 79.9411L36.8756 75.5163L33.9258 74.0414L34.2208 72.8614L35.6957 71.9765H38.0556L37.7606 70.2066V69.0266V68.7316L48.0851 68.4367L48.3801 67.8467Z" fill="white"/>
<path d="M22.4182 31.2686L24.4831 31.5635L25.958 32.7435L26.843 34.8084L28.6129 36.2833L29.2029 38.6432L29.4979 43.068V47.4927L29.2029 48.3777H26.253L25.958 46.6078V34.2184L24.7781 33.9234V41.593L24.4831 48.0827H21.2383V34.5134L21.5333 31.8585H22.1232L22.4182 31.2686Z" fill="#180054"/>
<path d="M21.2403 50.4424H23.3052L24.4851 51.0324L24.7801 63.7167L27.435 65.7816L31.2698 68.1415V68.7315H24.4851L23.0102 67.8465L20.9453 65.4866V52.5073L21.2403 50.4424Z" fill="#180054"/>
<path d="M48.6756 17.6992H49.2655L49.5605 18.2892V20.9441L48.6756 21.829L41.8909 25.6638L33.3363 30.3836L31.5664 30.9736V26.5488L39.826 22.419L46.3157 18.8792L48.6756 17.6992Z" fill="#180054"/>
<path d="M72.5672 30.9736L76.107 31.2686L77.5819 32.7435L78.7619 33.3335L79.0568 33.9235V49.5577H75.812L75.517 36.8733L74.927 35.6934L69.6173 32.4486L69.0273 31.5636L72.5672 30.9736Z" fill="#180054"/>
<path d="M49.2655 6.48926H49.5605V10.3241L45.7257 12.6839L36.2862 17.6987L32.1564 20.0586H31.5664V16.5188L32.7463 15.3388L40.416 11.209L45.1357 8.55415L49.2655 6.48926Z" fill="#180054"/>
<path d="M51.918 7.08008L54.5728 7.96503L60.4725 11.2099L65.4873 14.4547L70.2071 17.4046L71.387 18.2895L71.092 20.3544L70.2071 21.2394L65.7823 18.8795L58.4076 14.1597L52.8029 10.9149L52.213 10.3249L51.918 7.08008Z" fill="#180054"/>
<path d="M68.7324 69.3213H69.0274V72.5661L67.5524 73.7461L60.1778 77.8759L53.3931 81.4157L52.2132 82.0057H50.7383L51.0333 78.7608L52.5082 77.5809L59.8828 73.7461L65.7825 70.5012L68.7324 69.3213Z" fill="#180054"/>
<path d="M85.547 31.5635H88.2019L89.0868 31.8585V46.9027L88.7918 49.5576H85.252L84.957 49.2626L85.252 31.8585L85.547 31.5635Z" fill="#180054"/>
<path d="M67.8494 80.5312H68.4394V84.0711L61.6548 87.9059L56.345 90.8557L51.3303 93.2156H50.4453L50.7403 89.9708L52.2152 88.7908L62.2447 83.4811L67.8494 80.5312Z" fill="#180054"/>
<path d="M29.797 78.7607L33.9268 81.1206L38.3516 83.7755L46.0212 88.4953L47.7911 89.6752L48.0861 92.625L47.7911 93.215L46.0212 92.625L41.0064 89.3802L33.3368 84.6604L29.207 82.0056V79.9407L29.797 78.7607Z" fill="#180054"/>
<path d="M11.5059 50.4424H15.0457V61.6518L14.7508 68.4365H11.2109V51.0324L11.5059 50.4424Z" fill="#180054"/>
<path d="M14.1627 28.3184L15.3426 28.6133V34.808L15.0476 47.7874H11.5078V41.0027L11.8028 31.2682L12.0978 28.6133L14.1627 28.3184Z" fill="#180054"/>
<path d="M85.844 52.2119H87.9089L88.4989 52.5069V65.7812L88.2039 71.386L87.3189 71.6809H84.6641L85.254 52.5069L85.844 52.2119Z" fill="#180054"/>
<path d="M81.1255 52.2119H83.1904L83.7804 53.3919L83.4854 67.5511L83.1904 70.501L82.8954 71.091L80.2406 71.386L78.7656 70.501V69.3211L79.6506 68.4361L79.9456 66.3712L80.5355 53.0969L81.1255 52.2119Z" fill="#180054"/>
<path d="M79.6445 31.2686L83.7743 31.5635V48.9677L83.4793 49.5576H80.5295L80.2345 34.5134L79.9395 32.4485L79.6445 31.2686Z" fill="#180054"/>
<path d="M18.5844 28.9082L21.2393 29.2032L21.8293 30.3831L21.2393 30.9731L20.0594 30.6781L19.4694 48.0822H16.8145L16.5195 47.7873V40.1176L17.1095 29.7932L18.5844 28.9082Z" fill="#180054"/>
<path d="M48.9705 12.6846H49.5605V15.0445L47.2006 16.8144L41.8909 19.7642L31.8614 25.0739H31.5664V21.8291L37.1711 18.8793L43.9558 15.0445L48.9705 12.6846Z" fill="#180054"/>
<path d="M75.8109 52.2119H78.7607L79.0557 56.9317L78.7607 66.6662L78.1707 68.4361H75.5159L74.6309 67.8461L74.3359 66.3712L74.9259 64.6013L75.5159 53.6868L75.8109 52.2119Z" fill="#180054"/>
<path d="M16.8165 50.4424H19.4714V64.0117L20.3564 67.8465V68.7315H17.1115L16.2266 68.4365V61.9468L16.5215 52.5073L16.8165 50.4424Z" fill="#180054"/>
<path d="M68.4374 75.2217H68.7324V77.8765L67.8474 78.7615L63.1277 81.1214L56.343 84.9562L51.9182 87.3161H50.7383V84.9562L53.0982 83.1863L62.8327 78.1715L68.4374 75.2217Z" fill="#180054"/>
<path d="M51.918 17.9941L53.6879 18.5841L59.5876 21.8289L65.1923 25.3688L66.6672 26.8437L64.6023 28.6136L61.9475 27.7287L57.5227 25.0738L52.5079 21.8289L51.918 21.239V17.9941Z" fill="#180054"/>
<path d="M21.5336 30.3838H21.8286L21.5336 34.5136L21.2387 48.0829H24.4835V41.5932L24.7785 33.9236L25.9584 34.2186L26.2534 34.8086V48.3779H19.7637L19.4688 48.0829V39.5283L19.7637 31.8587L20.0587 30.6788L21.5336 30.3838Z" fill="white"/>
<path d="M35.6957 71.9766H37.4656L41.5954 74.3364L46.6101 77.5813L48.3801 79.0562V81.4161L48.0851 82.301L46.6101 81.7111L43.6603 79.9412L36.8756 75.5164L33.9258 74.0415L34.2208 72.8615L35.6957 71.9766Z" fill="#180054"/>
<path d="M84.9544 31.5635L85.5444 31.8585L85.2494 49.2626L88.7892 49.5576V49.8526L79.6447 50.1475V49.5576H79.0547V34.5133L79.9396 32.4484H80.2346L80.5296 34.5133V49.5576H83.4795L83.7745 32.1534L84.3644 32.4484L84.9544 31.5635Z" fill="white"/>
<path d="M51.918 12.9795L53.3929 13.2745L58.4076 15.9293L68.1422 22.124L69.6171 23.009L68.7321 24.4839L67.8472 25.0739L58.9976 19.7642L55.1628 17.4043L52.213 15.9293L51.918 15.0444V12.9795Z" fill="#180054"/>
<path d="M31.8537 75.2217L33.3286 75.8117L37.7534 78.1715L43.0631 81.4164L47.4879 84.3662L48.0779 84.9562V87.0211L47.4879 87.3161L43.9481 85.2512L39.5233 82.3013L32.1487 77.8765L30.9688 77.2866L31.2637 75.8117L31.8537 75.2217Z" fill="#180054"/>
<path d="M70.7989 51.917H74.0437V63.4214L73.7487 65.4863L71.6838 63.7164L70.7989 61.6515L70.5039 59.2916V52.212L70.7989 51.917Z" fill="#180054"/>
<path d="M28.9103 80.5312H29.2053L29.5003 82.0062L36.2849 86.136L43.3646 90.5607L47.1994 92.9206L45.7244 94.3956L39.2348 90.5607L33.0401 86.7259L28.9103 84.0711L28.3203 84.956L28.6153 82.8911L28.9103 80.5312Z" fill="white"/>
<path d="M83.1899 52.2119H85.8448L85.2548 52.5069V61.6514L84.9598 70.796L84.6648 71.6809H86.4347V71.9759H84.0749L81.125 71.386V71.091H82.8949L83.1899 67.5511L83.4849 52.8019L83.1899 52.2119Z" fill="white"/>
<path d="M15.3405 28.6133L15.6355 29.4982L17.1104 29.7932V33.333L16.8154 40.1177V48.0823H12.3906V47.7873H15.0455V34.808L15.3405 28.6133Z" fill="white"/>
<path d="M42.7703 70.502H48.375V76.6966L46.9001 76.1067L39.8204 71.6819L39.2305 70.7969L42.7703 70.502Z" fill="#180054"/>
<path d="M67.8484 80.5312H68.4384V82.8911L66.9635 84.0711L64.3086 85.546L62.8337 86.431L56.344 89.6758L55.1641 88.4959L56.344 87.3159L61.9487 84.3661L64.8986 82.8911L65.4885 81.7112L67.8484 80.5312Z" fill="#180054"/>
<path d="M15.0397 50.4424H16.8096L16.5146 61.9468L16.2196 68.4365L17.1046 68.7315H12.0898V68.4365H14.7447V61.6518L15.0397 50.4424Z" fill="white"/>
<path d="M20.9418 50.4424H21.2368L20.9418 65.4866L20.6468 65.7816L20.3518 67.8465L19.7618 66.9616L19.1719 64.0117V58.407L19.4669 50.7374L20.9418 50.4424Z" fill="white"/>
<path d="M88.4981 52.5078H88.7931L89.0881 53.9827L89.973 52.8028V59.5875L89.6781 71.0919H88.7931L88.2031 71.3869V65.7821L88.4981 52.5078Z" fill="white"/>
<path d="M58.9961 13.8643L60.766 14.7492L63.1259 15.3392L64.6008 15.6342L65.7808 15.9292L67.2557 17.1091L70.2055 17.9941L71.3855 18.289L71.0905 20.3539L70.2055 21.2389L65.7808 18.879L58.9961 14.4542V13.8643Z" fill="#180054"/>
<path d="M59.2893 11.5049L62.2392 12.3898L69.3188 16.8146L71.0887 17.9946V18.5845L68.1389 17.6996L65.189 15.9297H63.4191L62.5342 15.3397L60.1743 14.7497L58.1094 13.2748L58.6993 11.7999L59.2893 11.5049Z" fill="#180054"/>
<path d="M51.625 23.8936L53.3949 24.1885L57.2297 26.2534L60.7695 28.9083V29.4983L58.4097 29.7933L51.92 26.2534L51.625 23.8936Z" fill="#180054"/>
<path d="M79.0606 51.6221L79.6506 52.212H81.1255L80.8305 53.097L80.2406 66.3713H79.9456L79.6506 63.4215L79.0606 63.1265V65.1914H78.7656V52.507L79.0606 51.6221Z" fill="white"/>
<path d="M74.0392 52.2119L75.5141 52.8019L75.8091 52.2119L75.2191 64.6013L74.6292 66.3712H73.7442L73.4492 65.4863L73.7442 63.4214L74.0392 52.2119Z" fill="white"/>
<path d="M40.7109 17.4043L41.3009 17.6993L40.7109 18.5842L41.3009 19.1742L40.416 19.7642L37.7611 20.0592L37.4661 21.2391L35.9912 22.419L33.3363 23.304L33.0413 24.4839L31.5664 25.0739V21.8291L35.6962 19.7642L38.0561 19.4692L39.531 18.2893L40.7109 17.4043Z" fill="#180054"/>
<path d="M29.502 80.2363H30.9769L33.0418 82.0062V82.5962L34.2218 83.1862L36.8766 84.9561L36.5817 85.841L34.8118 85.5461L29.502 82.3012L29.207 82.0062V80.5313L29.502 80.2363Z" fill="#180054"/>
<path d="M35.1057 72.2715H36.8756L37.1706 73.1564L38.0556 73.4514L39.8255 76.4013V76.9912L38.6455 76.6963L34.5158 74.3364L33.9258 74.0414L34.2208 72.8615L35.1057 72.2715Z" fill="#180054"/>
<path d="M51.918 7.08008L54.5728 7.96503L57.2277 9.43996L56.9327 10.3249L56.3427 10.6199H54.2779L52.5079 9.73495L51.918 8.84999V7.08008Z" fill="#180054"/>
<path d="M41.0037 17.6992L41.5936 17.9942L42.7736 18.2892L44.5435 17.9942L43.6585 18.8792L35.6939 23.009L33.334 24.1889L33.0391 23.3039L36.2839 21.829L37.4638 20.9441L37.7588 20.0591L41.0037 19.1741L40.4137 18.2892L41.0037 17.6992Z" fill="#180054"/>
<path d="M10.9163 51.917H11.2113V68.7312L9.44141 68.4362V63.7164H9.73639L10.0314 65.4863L10.6213 62.8314L10.9163 51.917Z" fill="white"/>
<path d="M64.0078 51.6221H65.4827L65.7777 51.9171L66.0727 56.0468L65.4827 58.4067L65.1878 57.5218L64.3028 57.2268L64.0078 51.6221Z" fill="white"/>
<path d="M69.0284 66.667L69.3233 67.5519V69.6168L66.6685 70.5018L65.1935 70.7968L64.3086 69.6168L68.4384 67.257L69.0284 66.667Z" fill="white"/>
<path d="M41.5921 71.0918L44.542 72.8617L44.837 73.4517L46.0169 74.0416L47.4918 75.5166L47.7868 76.1065L46.3119 75.8116L40.4122 71.9768L40.1172 71.3868L41.5921 71.0918Z" fill="#180054"/>
<path d="M79.0553 63.127L79.9403 63.4219V68.4367L79.3503 69.3216H78.7603L78.4654 70.2066L78.1704 68.7317H76.1055V68.4367L78.1704 68.1417L79.0553 63.127Z" fill="white"/>
<path d="M46.9022 66.667L48.3772 67.257V68.4369H38.3477V68.1419L40.1176 67.8469H45.7223V66.962L46.9022 66.667Z" fill="#180054"/>
<path d="M74.3361 55.1621L74.926 55.7521L75.221 58.4069L74.926 64.0117L74.631 65.4866L74.3361 64.6016H73.7461L74.3361 55.1621Z" fill="white"/>
<path d="M59.8826 82.0059L61.0625 82.3008L53.6879 86.4306L51.918 87.0206L52.5079 85.8407L55.7528 84.3657L58.4076 82.5958L59.8826 82.0059Z" fill="#180054"/>
<path d="M51.918 25.3691L53.6879 25.9591L58.4076 28.909H60.7675V29.4989L58.4076 29.7939L51.918 26.2541V25.3691Z" fill="#180054"/>
<path d="M25.3732 54.2773H25.6682V61.947L25.3732 61.357H24.4883V56.9322L24.7833 57.8172H25.3732V54.2773Z" fill="white"/>
<path d="M42.7729 15.6338L43.6579 15.9288L42.478 16.8137L39.5281 18.5836V19.1736L36.5783 20.0586L35.9883 19.4686L41.888 16.2238L42.7729 15.6338Z" fill="#180054"/>
<path d="M19.1759 28.9082L21.2408 29.2032L21.8308 30.3831L21.2408 30.9731L20.0609 30.6781V31.2681L18.8809 30.9731L18.5859 29.4982L19.1759 28.9082Z" fill="#180054"/>
<path d="M64.0078 2.65527L65.1878 2.95026L67.8426 5.01516L69.9075 7.96501L69.6125 8.84996L67.5476 6.1951L64.5978 3.24524L64.0078 2.65527Z" fill="#180054"/>
<path d="M91.1505 31.8584H98.5251L100 32.1534V32.4484L90.8555 32.7434L91.1505 31.8584Z" fill="#180054"/>
<path d="M69.3223 52.8027L69.9123 53.3927V55.4576H69.6173L69.3223 66.3721H69.0273V53.9827L69.3223 52.8027Z" fill="white"/>
<path d="M48.3809 84.6611L49.8558 84.9561L50.4458 85.2511V87.021H48.3809L48.0859 85.2511L48.3809 84.6611Z" fill="white"/>
<path d="M31.8594 16.5195L32.1544 17.1095L33.9243 16.8145L34.5142 17.9945L31.8594 19.1744V16.5195Z" fill="#180054"/>
<path d="M68.1435 82.8906L68.4385 84.0706L64.3087 86.4304L63.7188 86.1355L65.7836 84.3656L68.1435 82.8906Z" fill="#180054"/>
<path d="M75.2191 58.4072L75.5141 59.2922L75.2191 64.6019L74.6292 66.3718H73.7442L73.4492 65.4869L73.7442 64.6019H74.3342L74.6292 64.0119L74.9241 58.7022L75.2191 58.4072Z" fill="white"/>
<path d="M64.8935 82.0059L65.4835 82.3008L64.3036 83.4808L61.3537 84.9557H60.4688V84.3657L64.8935 82.0059Z" fill="#180054"/>
<path d="M31.8537 75.2217L33.0336 75.5167V77.2866L31.5587 77.5816L30.9688 77.2866L31.2637 75.8117L31.8537 75.2217Z" fill="#180054"/>
<path d="M31.8614 21.5342H32.4514L32.1564 23.0091L33.3363 22.7141V24.189L31.5664 25.074V21.8292L31.8614 21.5342Z" fill="#180054"/>
<path d="M40.7077 17.4043L41.2976 17.6993L40.7077 18.5842L41.2976 19.1742L40.4127 19.7642L37.7578 20.0592L38.9378 18.5842L40.7077 17.4043Z" fill="#180054"/>
<path d="M57.2266 27.1387L58.9965 27.4337L60.4714 28.6136V29.2036L58.9965 28.9086L57.5215 28.0236L57.2266 27.1387Z" fill="#180054"/>
<path d="M67.8424 86.1357H68.4323L68.1374 87.6107L65.1875 88.2006V87.6107L67.8424 86.1357Z" fill="#180054"/>
<path d="M34.8033 12.0947H35.3933V12.6847L33.3284 13.8646H32.1484V12.3897H34.2133L34.8033 12.0947Z" fill="#180054"/>
<path d="M76.9883 52.2119H78.7582V53.6868L77.5783 53.9818L76.9883 53.3919V52.2119Z" fill="#180054"/>
<path d="M65.1875 20.6494L66.6624 21.2394L69.6123 23.0093L69.0223 23.8943V23.0093H67.5474L65.1875 20.9444V20.6494Z" fill="#180054"/>
<path d="M53.6881 82.8906L54.2781 83.1856L51.6232 85.5455L50.7383 85.8405L51.0333 84.6605L53.6881 82.8906Z" fill="#180054"/>
<path d="M41.8867 73.1562L43.0667 73.4512L44.5416 74.3362V74.9262H42.1817L41.8867 73.1562Z" fill="white"/>
<path d="M34.811 14.1592L35.9909 14.4542L35.106 14.7492V15.3391H34.221L33.926 16.2241L32.7461 15.9291V15.3391L34.811 14.1592Z" fill="#180054"/>
<path d="M86.4258 52.5078H88.1957V54.2777H87.0158L86.4258 52.5078Z" fill="#180054"/>
<path d="M48.0867 15.3389L48.9717 15.6339L45.1368 17.9937L44.5469 17.6987L46.3168 16.5188H46.9068L47.2017 15.6339L48.0867 15.3389Z" fill="#180054"/>
</svg>
