<svg width="285" height="100" viewBox="0 0 285 100" fill="none" xmlns="http://www.w3.org/2000/svg">
<path d="M26.2568 0H36.8713L44.1338 2.23464L50.2791 6.14525L54.7483 10.6145L59.2176 19.5531L60.3349 24.581V26.8156L55.307 27.3743L41.8992 26.8156L39.6646 21.229L36.8713 18.9944L34.078 17.8771H27.9328L25.1395 19.5531L22.3462 22.905L21.7876 25.1397V29.0503L23.4636 32.9609L28.4915 36.8715L45.8098 43.5754L51.3964 46.9274L56.4243 51.3966L60.3349 57.5419L62.0108 63.1285L62.5695 67.0391V72.6257L60.8935 80.4469L57.5416 86.5922L53.631 91.0614L49.1617 94.9721L42.4579 98.324L36.3127 100H26.8155L20.1116 98.324L13.4077 94.9721L7.82119 90.5028L3.35194 84.3575L0.558656 77.095L0 70.9497L1.11731 70.3911H17.877L20.6703 77.095L22.9049 79.8883L27.9328 82.1229L32.4021 82.6816L37.43 81.5642L40.7819 79.3296L43.0165 76.5363L44.1338 73.743V67.0391L41.8992 62.5698L37.9886 59.2179L29.6088 55.3073L17.877 50.838L11.7318 46.3687L8.37984 42.4581L4.46925 34.6369L3.91059 31.8436V21.7877L6.14522 15.6425L9.49716 10.0559L13.9664 5.58659L20.6703 1.67598L26.2568 0Z" fill="#030108"/>
<path d="M163.689 1.11719H173.186L177.655 10.0557L187.711 31.2848L193.297 43.5753L193.856 45.2513L198.325 36.8714L205.588 21.2289L214.526 2.23451L215.644 1.11719H234.079L232.403 6.14512L225.699 18.9943L221.23 27.3742L216.761 36.3127L207.264 54.7485L203.912 60.8937L203.353 63.1284L202.795 97.7652H185.476L184.918 62.011L173.186 39.106L167.599 28.4915L159.778 13.4077L154.191 2.79317L153.633 1.67585L163.689 1.11719Z" fill="#030108"/>
<path d="M98.8829 1.67578H125.698L137.989 2.23444L144.134 4.46908L148.603 7.26237L151.955 11.173L154.748 16.7596L156.424 22.9048V30.1674L154.19 36.8713L150.279 42.4579L145.81 45.8099L140.223 48.6032L136.871 49.7205H108.38L98.3242 49.1618V2.23444L98.8829 1.67578Z" fill="#A5CC48"/>
<path d="M98.8829 49.1621H108.38L136.313 49.7208L143.575 52.5141L148.045 55.866L152.514 60.894L155.307 67.0392L156.424 70.9498V77.0951L154.19 83.799L150.279 89.3856L145.251 93.8548L139.665 96.6481L135.196 97.7655H98.8829L98.3242 97.2068V61.4526L98.8829 49.1621Z" fill="#03BAF1"/>
<path d="M238.547 1.11719H255.307L255.865 80.4468H284.915V97.7652H237.988V1.67585L238.547 1.11719Z" fill="#030108"/>
<path d="M75.9771 1.11719H88.2676L88.8262 1.67585V97.2066L88.2676 97.7652H71.5079L70.9492 97.2066V1.67585L75.9771 1.11719Z" fill="#030108"/>
</svg>
