<svg width="301" height="66" viewBox="0 0 301 66" fill="none" xmlns="http://www.w3.org/2000/svg">
<path d="M2.39539 22.6016L3.42128 22.7481L7.96451 24.2137L9.43006 24.3602H28.3358L32.2928 24.5068L34.9308 24.7999L37.2757 25.3861L38.8878 26.2655L40.0602 27.4379L40.9396 29.1966L41.5258 31.3949L41.8189 34.1795L41.9654 39.1624V41.2141L41.2327 41.5073L38.7412 41.6538H34.6377L31.56 41.2141L29.5082 40.4814L28.0426 39.602L26.7236 38.283L25.8443 36.6709L25.5512 35.9381L36.3963 35.7916L36.6894 35.645L36.836 34.6191V33.1536L36.5429 31.9811L35.9567 30.9552L34.9308 30.2225L33.3187 29.7828L31.56 29.6362H18.6631L18.9562 34.1795L19.3959 36.6709L20.1286 39.0158L21.3011 41.3607L22.7666 43.2659L24.5253 44.7315L27.0168 46.197L28.922 46.9298L31.4134 47.3695L33.4652 47.516L39.1809 47.6626L41.6723 47.8092L41.9654 47.9557L42.112 56.8956L42.5517 59.6802L43.431 62.3182L44.0172 63.7837L42.112 64.6631L38.4481 65.5424L36.2498 65.8355L34.198 65.9821H32.7324L29.5082 65.689L26.1374 65.1027L23.0597 64.2234L20.1286 63.0509L16.4647 61.1457L13.9733 59.3871L12.5077 58.2146L10.7491 56.6025L8.69728 54.5507L7.08517 52.4989L5.76617 50.5937L4.30061 48.1023L2.98161 45.1711L1.80916 41.6538L1.07639 38.283L0.636719 34.9122V30.8087L1.3695 25.9723L1.95572 23.6275L2.39539 22.6016Z" fill="#07233C"/>
<path d="M31.4124 0.03125H35.0763L38.8868 0.470917L42.111 1.2037L45.6283 2.37614L49.2922 4.13481L51.6371 5.60037L53.982 7.35904L55.5941 8.8246L56.7666 9.85049L58.3787 11.6092L59.8442 13.5144L61.3098 15.7127L62.7753 18.3507L63.9478 20.8422L65.1202 24.3595L65.7065 26.9975L66.1461 30.5148L66.2927 33.8856L65.9996 37.9892L65.4133 40.7738L64.534 43.1186L64.0943 43.4118L59.9908 42.0928L57.6459 41.6531L48.2663 41.5065L48.1198 33.2994L47.8267 30.808L47.2404 28.4631L46.3611 26.2647L45.3352 24.5061L44.3093 23.1871L43.5765 22.3077L41.6713 20.8422L39.1799 19.5232L36.6884 18.7904L35.8091 18.6438L33.4642 18.4973L24.964 18.3507L24.8174 17.9111L24.6708 15.7127V13.5144L24.8174 11.0229V9.26426L24.3777 6.77281L22.7656 1.93647L24.2312 1.35025L27.3089 0.617473L31.4124 0.03125Z" fill="#06233C"/>
<path d="M151.004 5.01562H153.789L154.522 5.45529L156.574 8.38641L163.608 18.3522L165.513 20.9902L167.419 23.7748L168.884 25.8265L169.031 5.16218L169.91 5.01562H172.988L173.574 5.30874L173.867 6.18807L174.014 8.0933V31.3957L173.867 33.8871L173.574 35.0596L171.229 35.3527L169.764 35.2061L168.738 34.0337L166.979 31.5422L165.074 28.9042L163.315 26.4128L161.41 23.7748L159.651 21.2833L157.746 18.6453L156.28 16.5935L154.961 14.6883L154.815 34.913L154.082 35.2061L153.349 35.3527H151.298L150.418 35.0596L149.979 34.0337L149.832 33.1543V7.80018L150.125 5.30874L151.004 5.01562Z" fill="#07233C"/>
<path d="M227.947 4.72266H231.611L234.688 5.16232L237.033 5.8951L238.792 6.92099L240.257 8.38655L241.137 9.85211L241.723 11.7573L241.869 12.6367V22.749L241.576 26.1198L240.99 29.7837L240.111 32.4217L239.525 33.0079L237.326 33.8872L238.645 36.8184L239.378 38.7236V39.6029L239.231 39.7495L238.206 39.896H235.274L234.542 39.4564L233.369 37.258L232.49 35.4994L232.197 35.3528L229.705 35.6459L226.481 35.4994L223.99 35.0597L222.231 34.4735L220.765 33.7407L219.3 32.4217L218.421 31.2492L217.688 29.7837L217.102 27.2922V18.0592L217.395 14.3953L217.981 10.878L218.714 8.09344L219.007 7.50722L221.498 6.33477L224.576 5.30888L226.774 4.86921L227.947 4.72266ZM227.654 9.26588L225.162 9.85211L223.257 10.5849L222.964 11.3177L222.378 15.1281L222.084 19.0851V26.1198L222.378 27.5854L223.11 29.0509L224.283 30.0768L225.602 30.663L226.921 30.9561L228.24 31.1027H230.292L232.783 30.663L235.421 29.7837L236.007 29.1975L236.593 25.9732L236.887 22.0162V13.2229L236.447 11.7573L235.861 10.878L235.128 10.2918L233.516 9.559L231.904 9.26588H227.654Z" fill="#07243D"/>
<path d="M285.98 5.16016H300.343L300.489 5.45327L300.636 7.79816L300.343 9.26372L299.17 9.55683L295.8 9.70338L285.834 9.84994L283.489 9.9965L283.342 11.1689L283.049 17.9105H297.265L297.412 18.4967V21.5744L297.265 22.0141L296.972 22.1606L295.653 22.3072L283.196 22.4537L283.049 30.6609H288.179L300.343 30.8074L300.636 32.5661L300.489 34.4713L300.343 34.911L299.024 35.2041L296.239 35.3506H286.42L282.463 35.2041L278.506 34.7644L278.213 33.7385L278.066 32.5661V14.1001L278.36 9.55683L278.799 6.3326L279.239 5.89293L281.877 5.45327L285.98 5.16016Z" fill="#08243D"/>
<path d="M130.484 5.01562H134.148L134.881 5.30874L135.614 6.92085L138.398 14.1021L140.596 19.6712L143.821 27.8783L145.286 31.6888L145.726 33.594V35.0596L144.114 35.3527H142.502L141.036 35.0596L139.864 32.1284L138.838 29.4904V29.0508H125.794L125.501 30.3698L123.743 34.913L123.449 35.2061H119.786L118.906 34.913L119.053 33.1543L119.786 30.6629L121.984 25.0938L124.475 18.7919L127.7 10.5847L129.751 5.45529L129.898 5.16218L130.484 5.01562ZM132.243 12.0503L127.553 24.0679V24.6541H137.226L136.786 23.1885L134.001 16.0073L132.536 12.0503H132.243Z" fill="#07243D"/>
<path d="M250.369 4.86719H251.541L253.153 5.1603L253.446 5.30685L252.86 9.55697L252.421 14.5399L252.274 17.1779V26.8505L252.714 28.4627L253.446 29.4886L254.619 30.2213L255.938 30.661L258.283 30.9541H260.481L262.826 30.5144L265.464 29.6351L265.904 29.1954L266.49 25.6781L266.783 21.5745L266.93 5.30685L267.809 5.01374H271.18L271.912 5.30685V22.6004L271.473 27.2902L270.887 30.2213L270.154 32.4197L269.568 33.0059L266.636 34.1783L264.292 34.9111L261.36 35.4973L258.576 35.6439L255.352 35.3508L252.567 34.618L250.808 33.7387L249.343 32.4197L248.464 31.2472L247.731 29.7817L247.145 27.2902V16.4451L247.438 12.4881L248.024 8.53108L248.757 5.89308L249.196 5.1603L250.369 4.86719Z" fill="#07243D"/>
<path d="M178.996 5.16016H201.419L201.712 6.47916V8.38438L201.419 9.41027L200.1 9.70338L192.772 9.9965L192.626 34.3247L192.333 35.0575L191.16 35.3506H189.109L187.936 35.0575L187.79 34.911L187.643 32.273V9.84994H183.686L180.022 9.70338L178.996 9.41027L178.703 8.53094V6.03949L178.996 5.16016Z" fill="#07243D"/>
<path d="M207.28 5.01562H209.771L210.504 5.30874L210.797 5.7484L210.944 6.92085L211.09 10.7313V30.0767L210.944 34.4733L210.651 35.0596L209.478 35.3527H207.573L206.254 35.0596L206.107 34.913L205.961 32.1284V8.97263L206.107 6.33463L206.401 5.30874L207.28 5.01562Z" fill="#0B2740"/>
<path d="M16.611 4.72266L17.1973 4.86921L18.0766 6.33477L18.5163 7.65377L18.8094 9.559L18.9559 12.6367V15.7143L18.6628 17.6196L18.2231 18.0592L16.9041 18.4989L15.4386 18.6455H13.0937L10.3091 18.3523L7.67113 17.7661L5.4728 17.0333L5.17969 16.4471L6.05902 14.6884L7.37802 12.7832L8.69703 11.3177L9.72292 10.1452L10.1626 9.99866V9.70555L11.335 8.67966L12.9471 7.36066L15.7317 5.30888L16.611 4.72266Z" fill="#08253D"/>
<path d="M50.6125 47.6602H55.3023L58.2334 47.9533L60.5783 48.686L61.4577 49.2723L61.6042 49.5654L60.4318 51.6172L58.9662 53.5224L57.6472 55.1345L55.4489 57.4794L54.2764 58.5053L52.3712 59.9708L50.0263 61.1433L49.4401 60.9967L48.7073 58.7984L48.1211 55.8673V49.8585L48.2676 47.8067L50.6125 47.6602Z" fill="#08243D"/>
<path d="M93.1114 1.05859H93.8442L93.9907 1.20515V64.8103L93.8442 64.9569H93.1114L92.9648 64.8103V1.20515L93.1114 1.05859Z" fill="#06233C"/>
<path d="M234.1 49.2734H238.203L239.522 49.5665L240.402 50.1528L241.134 51.0321L241.427 51.7649V53.5236L240.841 54.696L239.815 55.5753L239.083 55.7219L240.108 57.4806L241.867 60.1186V60.2651H239.815L238.496 58.2133L237.324 56.3081V56.015H235.712V60.2651H234.1L233.953 59.972V49.42L234.1 49.2734ZM235.858 50.8856L235.712 51.0321V54.4029H238.35L239.376 53.8167L239.669 53.2304V52.058L239.083 51.1787L238.057 50.8856H235.858Z" fill="#0D2941"/>
<path d="M119.346 49.2734H120.811L120.958 49.42L121.104 53.8167H126.087L126.234 49.42L126.38 49.2734H127.699L127.993 49.5665V55.4288L127.846 60.2651H126.234V55.5753H120.958V60.2651H119.346L119.199 60.1186V49.42L119.346 49.2734Z" fill="#153148"/>
<path d="M188.08 49.2734H189.546L189.692 49.42V53.9632L194.822 53.8167L194.968 49.2734H196.58V60.2651H194.968V55.5753H189.692V60.2651H187.934V49.42L188.08 49.2734Z" fill="#0A273F"/>
<path d="M248.168 49.2734H255.056L255.203 49.42V50.8856L249.927 51.0321V53.8167L254.763 53.9632V55.5753H249.78V58.653H255.056L255.203 58.7996V60.2651H248.168V49.2734Z" fill="#0B2740"/>
<path d="M135.027 49.2734H141.915L142.062 49.42V50.8856L136.786 51.0321V53.8167L141.622 53.9632V55.5753H136.639V58.653H141.915L142.062 58.7996V60.2651H135.027V49.2734Z" fill="#07243D"/>
<path d="M207.868 49.1289H209.626L211.531 49.7151L212.85 50.5945V50.8876H213.144L213.437 51.6204L212.704 52.2066L212.557 52.4997L211.971 52.3531L210.945 51.4738L209.919 51.0341L208.454 50.8876L207.135 51.1807L205.962 52.06L205.23 53.2325L204.936 54.2584V55.5774L205.376 56.8964L206.402 58.0688L207.721 58.655H209.773L211.238 58.0688L212.118 57.1895L212.704 57.336L213.437 57.9223L213.29 58.5085L212.118 59.5344L210.506 60.2671L209.773 60.4137H207.428L205.816 59.8275L204.643 58.9481L203.617 57.6291L203.178 56.4567L203.031 55.5774V53.9652L203.617 52.06L204.643 50.741L205.962 49.7151L207.868 49.1289Z" fill="#0B2740"/>
<path d="M152.032 49.2734H152.764L153.351 50.1528L155.695 56.1616L157.161 59.8255V60.2651H155.402L154.67 58.5064L154.376 57.7737L150.273 57.6271L149.833 59.0927L149.394 60.2651H147.488L147.928 58.9461L150.419 52.6442L151.738 49.42L152.032 49.2734ZM152.325 52.2046L151.592 53.9632L150.859 56.015H153.79L153.351 54.5494L152.471 52.2046H152.325Z" fill="#0B273F"/>
<path d="M222.817 49.2734H223.696L224.429 50.739L226.481 56.015L228.093 60.1186V60.2651H226.187L225.308 57.9202V57.6271H221.058L220.911 58.3599L220.179 60.2651H218.273L219.739 56.4547L222.377 49.8597L222.817 49.2734ZM223.11 52.2046L221.791 55.5753V56.015H224.722L223.403 52.2046H223.11Z" fill="#0A263F"/>
<path d="M292.43 49.2734H296.387L297.852 49.5665L298.732 50.1528L299.464 51.0321L299.904 52.4977L299.757 53.8167L299.171 54.9891L298.145 55.8684L297.266 56.1616L294.188 56.3081L294.042 60.2651H292.43V49.2734ZM294.188 50.8856L294.042 51.6183V54.5494L294.188 54.696H296.533L297.559 54.2563L297.999 53.6701L298.145 52.4977L297.706 51.4718L297.119 51.0321L296.533 50.8856H294.188Z" fill="#09263E"/>
<path d="M173.863 49.2734H181.924L182.07 49.42V50.8856L178.993 51.0321L178.846 60.2651H177.088L176.941 51.0321L173.863 50.8856V49.2734Z" fill="#153048"/>
<path d="M163.315 49.2734L164.927 49.42V58.653H170.642L170.789 59.0927L170.642 60.2651H163.168V49.42L163.315 49.2734Z" fill="#06233C"/>
<path d="M265.461 49.2734L267.22 49.42V52.2046L267.073 58.653H272.935V60.2651H265.461V49.2734Z" fill="#0A263F"/>
<path d="M278.945 49.2734L280.704 49.42V52.2046L280.557 58.653H286.42V60.2651H278.945V49.2734Z" fill="#0A263F"/>
</svg>
