<svg width="102" height="100" viewBox="0 0 102 100" fill="none" xmlns="http://www.w3.org/2000/svg">
<path d="M50.2812 0H50.5062L51.856 2.58718L54.1057 6.97413L55.9055 10.5737L57.0304 12.7109L58.7177 16.0855L59.8425 18.2227L60.9674 20.5849L62.0922 22.7222L64.2295 26.9966L65.3543 29.1339L66.7042 31.8335L67.829 33.9708L70.5287 39.3701L71.6535 41.5073L73.1159 44.4319L74.2407 46.5692L76.8279 51.7435L77.8403 53.6558L78.7402 55.4556L80.7649 59.3926L82.2272 62.3172L83.3521 64.4544L85.2643 68.279L86.3892 70.4162L88.0765 73.7908L89.0889 75.703L89.9887 77.5028L90.3262 78.2902H35.3206L25.3093 78.4027L24.4094 80.2025L22.3847 84.027L20.6974 87.2891L19.5726 89.4263L17.9977 92.4634L16.198 95.9505L14.8481 98.4252L14.0607 99.8875L13.8358 100H0V96.9629L0.674916 95.838L1.91226 93.4758L2.81215 91.676L4.72441 87.964L5.84927 85.8268L7.1991 83.2396L8.43645 80.7649L9.44882 78.9651L10.3487 77.1654L11.3611 75.2531L12.261 73.4533L14.5107 69.0664L15.748 66.8167L18.2227 61.8673L19.3476 59.73L21.0349 56.4679L22.0472 54.6682L24.6344 49.4938L25.8718 47.2441L26.7717 45.4443L28.7964 41.5073L30.3712 38.4702L31.4961 36.333L33.6333 32.171L34.7582 30.0337L36.333 26.9966L37.4578 24.8594L38.3577 23.0596L39.9325 20.0225L41.7323 16.4229L42.8571 14.2857L44.4319 11.2486L46.2317 7.76153L47.3566 5.6243L49.3813 1.68729L50.0562 0.449944L50.2812 0Z" fill="#131391"/>
<path d="M28.5732 84.8145H72.1053L72.6677 85.7143L74.2425 88.9764L78.517 97.5254L79.6418 99.5501V99.7751L60.1818 99.8876L29.1357 100H20.6992L20.9242 99.3251L23.2864 94.7132L25.1987 91.0012L27.5609 86.3893L28.3483 84.9269L28.5732 84.8145Z" fill="#131391"/>
<path d="M50.2822 28.0088L50.6196 28.3462L52.4194 31.9458L53.5443 34.083L56.1315 39.1449L58.1562 43.1944L59.2811 45.3316L60.2934 47.4689L61.4183 49.6061L62.4307 51.5184L63.668 54.1055L64.7929 56.2428L66.3677 59.3924L67.4925 61.5296L67.83 62.2045V62.542H58.6061L41.0583 62.4295L32.7344 62.317L32.8469 61.7546L34.8716 57.7051L35.9965 55.5678L37.5713 52.5307L38.5836 50.6185L39.4835 48.8187L41.1708 45.5566L43.3081 41.3946L44.4329 39.2574L45.3328 37.5701L47.3575 33.5206L48.4824 31.3834L49.8322 28.9087L50.2822 28.0088Z" fill="#FEFEFE"/>
<path d="M88.4135 84.9268H93.3629L93.7004 85.4892L95.0502 88.1889L96.4 90.6635L98.9872 95.7254L100.337 98.2001L101.012 99.6624L101.237 99.7749V99.9999H86.5013L85.6014 99.8874L84.4765 97.7502L82.9017 94.713L81.5519 92.2383L79.7521 88.7513L78.4023 86.2766L77.8398 85.1517L80.7645 85.0392L88.4135 84.9268Z" fill="#141492"/>
<path d="M50.1698 37.3457H50.3948L51.7446 39.9329L55.1192 46.4571L56.469 49.0442L58.0438 52.0814L59.3937 54.5561L60.7435 57.2557V57.4807H39.9336L40.0461 57.0307L41.6209 53.8811L42.7457 51.7439L44.883 47.5819L46.0078 45.4447L48.2576 41.0577L49.8324 38.0206L50.1698 37.3457Z" fill="#131391"/>
<path d="M50.2813 0H50.5063L51.8561 2.58718L54.1058 6.97413L55.9056 10.5737L57.0304 12.7109L58.7177 16.0855L59.8426 18.2227L60.9674 20.5849L62.0923 22.7222L64.2295 26.9966L65.3544 29.1339L66.7042 31.8335L67.8291 33.9708L70.5288 39.3701L71.6536 41.5073L73.1159 44.4319L74.2408 46.5692L76.828 51.7435L77.8403 53.6558L78.7402 55.4556L80.765 59.3926L82.2273 62.3172L83.3521 64.4544L85.2644 68.279L86.3893 70.4162L88.0766 73.7908L89.0889 75.703L89.9888 77.5028L90.3263 78.2902L84.0271 78.0652V77.9528L86.3893 77.8403L86.8392 77.7278H88.414L88.639 77.6153L88.7515 77.0529L88.414 76.2655L87.9641 75.3656L87.7391 75.2531L87.6266 74.6907L87.0642 73.1159L86.6142 72.5534L85.7144 70.7537L85.3769 69.9663V69.4038H85.1519L84.702 68.3914L84.477 68.054V67.7165H84.252V67.3791H84.0271L83.8021 66.9291V66.5917H83.5771L83.1272 65.5793L82.4523 64.2295L82.1148 63.7795L80.4275 60.4049V60.18L80.2025 60.0675L79.7526 59.2801L79.3027 58.1552L78.5153 56.5804L77.9528 55.3431V55.0056H77.7279L77.2779 54.1057L77.0529 53.5433V53.2058H76.828L76.603 52.6434L75.8156 51.2936L75.5906 50.7312L73.9033 47.3566L73.4534 46.5692L72.216 44.0945L71.6536 42.7447L70.7537 41.0574L69.9663 39.4826L69.6289 38.9201V38.5827H69.4039L68.8415 37.4578L68.279 36.108L67.3792 34.4207V34.0832H67.1542L66.2543 32.2835V31.946H66.0293L65.3544 30.5962L65.0169 29.8088L64.4545 28.6839V28.3465H64.2295L62.8797 25.8718L61.8673 23.9595L60.9674 22.1597L60.855 21.5973H60.63L60.18 20.4724V19.91H59.9551L59.5051 18.8976L58.8302 17.7728L58.6052 17.0979L57.9303 15.8605V15.5231H57.7054L57.1429 14.3982L56.5805 13.3858L56.3555 12.7109L55.4556 11.0236L54.4433 8.88639L53.4309 6.97413L52.8685 5.96175L52.4185 5.28684L51.2937 3.03712L50.8437 2.24972V2.02475L49.9438 1.79978L49.7189 2.58718H49.4939L49.3814 3.26209L48.819 4.38695H48.594L48.4815 5.06187L48.369 5.28684H48.1441L48.0316 5.73678L47.8066 5.84927L47.4691 6.63667H47.2442L47.1317 7.31159L46.7942 7.76153V8.21147H46.5692L46.2318 9.22385L45.8943 9.33633L45.7818 10.1237L45.4444 10.2362L45.3319 11.0236L44.9944 11.1361L44.882 11.811L44.657 11.9235L44.3195 12.8234L43.9821 13.4983L43.4196 14.2857L42.9697 15.0731L42.6322 15.8605L41.9573 17.0979L41.5074 18.1102L40.8325 19.4601L40.27 20.4724L39.9326 21.1474L39.5951 21.7098L39.3701 22.2722H39.1452L39.0327 23.0596L38.5827 23.5096V23.9595L38.2453 24.297L38.1328 24.8594L37.5704 25.4218L37.1204 26.6592L36.333 28.234H36.1081L35.8831 29.4713L35.3207 30.0337L34.5333 31.6085L34.1958 32.171L33.2959 33.7458L33.0709 34.4207H32.846L32.621 35.2081L31.8336 36.7829V37.0079L31.6086 37.1204L31.2712 38.0202H31.0462L30.9337 38.5827L30.3713 39.4826L29.9213 40.4949L29.1339 42.0697L28.7965 42.9696L28.5715 43.757L28.0091 44.6569L27.8966 45.2193L27.3342 45.3318V45.5568H27.1092L26.8842 46.4567L26.6592 46.5692L26.4343 47.3566L26.0968 47.4691L25.9843 48.369L25.6469 48.9314L25.5344 49.2688H25.1969L25.3094 49.6063H25.0844V50.0562L24.8595 50.1687L24.6345 50.9561L24.297 51.2936L23.3971 52.9809L23.2847 53.4308H23.0597V53.7683H22.8347L22.7222 54.3307L21.3724 57.0304L21.1474 57.5928L21.0349 57.9303H20.81L20.6975 58.6052L20.2475 58.8301L20.36 59.1676L19.7976 59.73L19.5726 60.5174H19.3477L19.2352 60.9674L18.8977 61.6423L18.7852 62.2047L18.4478 62.5422L18.3353 63.1046L18.1103 63.2171L17.9978 63.667L17.6604 64.342L17.3229 65.1294L17.2104 65.3543H16.9854V65.8043L16.648 66.1417L15.9731 67.1541L15.4106 68.3914L14.1733 70.8661L13.7234 71.4286L13.4984 71.8785L13.3859 72.5534L13.0484 72.8909L12.8235 73.5658H12.5985L12.486 74.3532L12.1486 74.6907L11.6986 75.703L11.5861 76.153L11.2487 76.4904L10.9112 77.1654H10.6862L10.4613 78.0652H10.2363V78.2902H10.0113L9.89883 78.9651L9.44889 79.9775L8.99895 81.1024L8.77397 81.3273L8.43652 82.2272H8.21154L7.98657 82.9021L7.64911 83.4646L7.19917 84.252L6.9742 84.8144L6.74923 85.1519L6.63674 85.7143L6.29928 86.0517L6.07431 86.7267H5.84934L5.73685 87.4016L5.3994 87.8515L5.28691 88.3015L4.94945 88.6389L4.27454 90.3262L4.16205 90.5512H3.93708V91.0011L3.48713 91.4511H3.26216L3.03719 92.351H2.81222L2.58725 93.2508H2.36228L2.24979 94.1507L1.91233 94.4882L1.79985 95.0506L1.3499 95.5006L1.23742 95.9505L0.787472 96.4005H0.5625L0.674986 95.838L1.91233 93.4758L2.81222 91.676L4.72448 87.964L5.84934 85.8268L7.19917 83.2396L8.43652 80.7649L9.44889 78.9651L10.3488 77.1654L11.3611 75.2531L12.261 73.4533L14.5108 69.0664L15.7481 66.8167L18.2228 61.8673L19.3477 59.73L21.0349 56.4679L22.0473 54.6682L24.6345 49.4938L25.8718 47.2441L26.7717 45.4443L28.7965 41.5073L30.3713 38.4702L31.4961 36.333L33.6334 32.171L34.7582 30.0337L36.333 26.9966L37.4579 24.8594L38.3578 23.0596L39.9326 20.0225L41.7324 16.4229L42.8572 14.2857L44.432 11.2486L46.2318 7.76153L47.3567 5.6243L49.3814 1.68729L50.0563 0.449944L50.2813 0Z" fill="#0E0C7B"/>
<path d="M50.1703 42.0693H50.3953L55.0072 51.2932L56.2445 53.8804L56.6945 54.8927L56.2445 55.0052H46.1208L43.8711 54.8927L44.0961 54.1053L45.2209 51.9681L49.7204 42.9692L50.1703 42.0693Z" fill="#FEFEFE"/>
<path d="M50.1706 37.3457H50.3956L51.7454 39.9329L55.12 46.4571L56.4698 49.0442L58.0446 52.0814L59.3945 54.5561L60.6318 57.0307V57.3682H57.5947V57.2557L59.5069 57.1432L59.9569 56.8058L59.8444 56.1309L59.3945 55.3435V55.1185H59.1695V54.8935L58.832 54.781L57.4822 52.0814V51.8564H57.2572L56.9198 51.294L56.5823 50.3941L56.3573 50.0566V49.7192L56.1324 49.6067L55.7949 48.9318L55.5699 48.7068L55.345 48.0319L54.4451 46.2321L53.3202 44.0949L52.9828 43.5324L52.1954 41.9576L51.6329 41.0577L51.408 40.4953V40.1579H51.183L50.958 39.5954L50.0581 39.1455L49.7207 40.0454H49.4957L49.3832 40.6078H49.0457L48.9333 41.2827H48.7083V41.5077L48.9333 41.6202L48.5958 41.9576L48.4833 42.2951L48.7083 42.4076L48.5958 42.745L48.2583 42.8575L48.4833 42.97V43.5324L48.0334 43.9824L47.9209 44.3198H47.6959L47.8084 44.6573L47.4709 45.2197H47.246L47.3585 44.6573L47.021 44.9947L45.2212 48.5943L45.8961 47.4694L47.021 45.6697L47.246 45.5572L47.021 46.5695H46.796L46.6835 47.2445L46.3461 47.9194L46.4586 48.2568H46.6835L46.9085 47.2445L47.1335 46.907L47.246 46.2321H47.5834V45.5572L47.9209 45.3322L48.2583 44.2073H48.4833L48.5958 43.6449H48.8208L49.0457 42.97L49.3832 43.0825L49.4957 42.1826L49.8332 41.6202L49.9456 41.2827H50.5081L50.6206 42.2951H50.3956V42.0701L50.1706 42.1826L49.7207 43.195L45.7837 51.069L44.4338 53.6562L44.0964 54.2186L43.9839 53.7687V52.7563L44.4338 52.6438V52.3063L43.9839 51.9689L43.7589 52.0814L43.5339 51.8564L43.6464 51.6314L43.309 51.9689L43.084 52.5313L43.309 52.8688L42.859 52.9812L42.6341 53.5437L42.5216 53.7687L42.2966 54.1061L42.0716 54.5561H41.8467L41.6217 55.231H41.3967V55.7934L40.9468 56.3558L40.8343 56.5808H41.0592V56.9183L42.0716 57.0307L42.6341 56.9183L43.7589 57.1432H52.0829L56.5823 57.2557V57.3682H40.0469L40.1594 56.8058L41.6217 53.8811L42.7465 51.7439L44.8838 47.5819L46.0086 45.4447L48.2583 41.0577L49.8332 38.0206L50.1706 37.3457Z" fill="#0E0B7B"/>
<path d="M38.1328 23.5098L38.5827 23.6223V23.9597L38.2453 24.2972L38.1328 24.8596L37.5704 25.422L37.1204 26.6594L36.333 28.2342H36.1081L35.8831 29.4715L35.3207 30.034L34.5333 31.6088L34.1958 32.1712L33.2959 33.746L33.0709 34.4209H32.846L32.621 35.2083L31.8336 36.7831V37.0081L31.6086 37.1206L31.2712 38.0205H31.0462L30.9337 38.5829L30.3713 39.4828L29.9213 40.4951L29.1339 42.0699L28.7965 42.9698L28.5715 43.7572L28.0091 44.6571L27.8966 45.2196L27.3342 45.332V45.557H27.1092L26.8842 46.4569L26.6592 46.5694L26.4343 47.3568L26.0968 47.4693L25.9843 48.3692L25.6469 48.9316L25.5344 49.269H25.1969L25.3094 49.6065H25.0844V50.0564L24.8595 50.1689L24.6345 50.9563L24.297 51.2938L23.3971 52.9811L23.2847 53.431H23.0597V53.7685H22.8347L22.7222 54.3309L21.3724 57.0306L21.1474 57.593L21.0349 57.9305H20.81L20.6975 58.6054L20.2475 58.8304L20.36 59.1678L19.7976 59.7302L19.5726 60.5176H19.3477L19.2352 60.9676L18.8977 61.6425L18.7852 62.2049L18.4478 62.5424L18.3353 63.1048L18.1103 63.2173L17.9978 63.6672L17.6604 64.3422L17.3229 65.1296L17.2104 65.3545H16.9854V65.8045L16.648 66.1419L15.9731 67.1543L15.4106 68.3917L14.1733 70.8663L13.7234 71.4288L13.4984 71.8787L13.3859 72.5536L13.0484 72.8911L12.8235 73.566H12.5985L12.486 74.3534L12.1486 74.6909L11.6986 75.7032L11.5861 76.1532L11.2487 76.4906L10.9112 77.1656H10.6862L10.4613 78.0654H10.2363V78.2904H10.0113L9.89883 78.9653L9.44889 79.9777L8.99895 81.1026L8.77397 81.3275L8.43652 82.2274H8.21154L7.98657 82.9023L7.64911 83.4648L7.19917 84.2522L6.9742 84.8146L6.74923 85.1521L6.63674 85.7145L6.29928 86.052L6.07431 86.7269H5.84934L5.73685 87.4018L5.3994 87.8517L5.28691 88.3017L4.94945 88.6391L4.27454 90.3264L4.16205 90.5514H3.93708V91.0013L3.48713 91.4513H3.26216L3.03719 92.3512H2.81222L2.58725 93.2511H2.36228L2.24979 94.1509L1.91233 94.4884L1.79985 95.0508L1.3499 95.5008L1.23742 95.9507L0.787472 96.4007H0.5625L0.674986 95.8382L1.91233 93.476L2.81222 91.6762L4.72448 87.9642L5.84934 85.827L7.19917 83.2398L8.43652 80.7651L9.44889 78.9653L10.3488 77.1656L11.3612 75.2533L12.261 73.4535L14.5108 69.0666L15.7481 66.8169L18.2228 61.8675L19.3477 59.7302L21.0349 56.4681L22.0473 54.6684L24.6345 49.494L25.8718 47.2443L26.7717 45.4445L28.7965 41.5075L30.3713 38.4704L31.4961 36.3332L33.6334 32.1712L34.7582 30.034L36.333 26.9968L37.4579 24.8596L38.1328 23.5098Z" fill="#0F0C7D"/>
<path d="M88.4135 84.9268H93.3629L93.7004 85.4892L95.0502 88.1889L96.4 90.6635L98.9872 95.7254L100.337 98.2001L101.012 99.6624L101.237 99.7749V99.9999H86.5013L85.6014 99.8874L84.4765 97.7502L82.9017 94.713L81.5519 92.2383L79.7521 88.7513L78.4023 86.2766L77.8398 85.1517L80.7645 85.0392L88.4135 84.9268ZM82.9017 85.4892V85.7142L82.3393 85.6017L79.5271 85.7142L79.3022 86.1641V86.7265L79.7521 87.8514L79.9771 88.1889L80.3145 89.2012L81.1019 90.5511L81.7769 91.5634L82.3393 92.8008L82.6767 93.5882L83.9141 96.0629L84.589 97.3002H84.814V97.6377L85.3764 98.2001L85.6014 98.3126V98.7625H85.9388L86.0513 99.2125H86.3888L86.6137 99.7749H100.112L99.8871 99.6624V98.7625L99.3247 97.8626L98.7622 96.5128L98.0873 95.2755L97.5249 94.0381L97.0749 92.9133L96.2875 91.5634L95.9501 90.776H95.7251L95.6126 90.3261L94.6002 88.5263L93.8128 86.9515L93.4754 86.1641L93.0254 85.7142L92.463 85.6017H83.1267L82.9017 85.4892Z" fill="#0E0C7C"/>
<path d="M69.1804 84.9268H72.2175L78.5167 97.5252L79.6416 99.5499V99.7749H56.0195V99.6624L59.1691 99.5499L77.2794 99.4374L78.0668 99.325L78.1793 98.65L78.0668 97.8626L77.9543 97.4127L77.6168 97.3002L77.3919 96.7378L77.1669 96.2878L77.2794 96.0629H77.0544L76.7169 95.3879L76.492 94.8255L76.042 94.1506L75.7046 93.5882L74.3547 91.001L73.4549 89.0887L72.8924 87.7389L72.555 86.9515V86.5016H72.33L72.105 86.1641L71.88 85.9391L71.7676 85.2642L71.4301 85.1517L69.1804 85.0392V84.9268Z" fill="#0E0C7B"/>
<path d="M50.7305 28.3467L51.0679 28.5717V28.7966H51.2929L52.0803 30.2589L52.5302 31.1588V31.3838L52.7552 31.4963V31.8337H52.9802L53.5426 32.9586L53.7676 33.521L54.105 34.3084L54.33 34.8709L54.6675 35.0958L55.1174 35.3208L55.6799 36.3332V36.5582H55.4549L55.7923 37.3456L56.2423 38.3579L56.5797 39.1453L58.3795 42.7449L59.0544 43.7573L59.3919 44.6571L59.9543 46.007L60.5167 46.9069L60.9667 47.8067V48.1442L61.3041 48.2567L61.9791 49.944L62.7665 51.4063L63.2164 52.0812L63.4414 52.3062L64.0038 53.9935L64.1163 54.4434H64.3413L64.6787 55.3433L65.2412 56.6931L66.141 58.3804L67.0409 60.1802L67.3784 60.6301L67.4909 61.3051H67.2659L65.0162 56.9181L63.8913 54.6684L62.7665 52.5312L61.8666 50.6189L60.7417 48.4817L59.7293 46.5694L54.4425 35.9957L53.3176 33.8585L51.0679 29.4715L50.7305 28.7966V28.3467Z" fill="#0E0C7C"/>
<path d="M28.3483 84.9268H33.6351V85.0392L28.6857 85.1517V85.8266H28.4607L28.3483 86.5016L27.8983 87.064L27.6733 87.6264L27.2234 88.1889L26.3235 89.7637L25.5361 91.6759V91.9009H25.3111L25.0862 92.3508L24.6362 93.7007H24.4113V94.1506H24.1863L24.0738 94.8255L23.5114 95.8379L23.0614 96.9628L22.8365 97.4127H22.6115V98.5376L22.9489 99.1L23.1739 99.6624L24.2988 99.7749V99.8874L22.049 99.9999H20.6992L20.9242 99.325L23.2864 94.713L25.1987 91.001L27.5609 86.3891L28.3483 84.9268Z" fill="#0E0C7C"/>
<path d="M42.6326 42.2949L42.7451 42.7449L40.8328 46.4569L39.0331 49.944L37.9082 52.0812L36.4459 55.0058L35.2086 57.2556L34.8711 57.368L34.9836 56.5806L35.0961 56.1307L35.4335 55.3433L35.6585 55.0058H35.8835L36.1084 54.1059H36.3334L36.4459 53.656L36.8958 52.8686L37.2333 52.0812L37.7957 51.0688L38.2457 50.1689L38.5831 49.3815L39.483 47.6942L40.2704 46.4569L40.9453 44.6571L41.7327 43.4198H41.9577V43.0823H42.1827V42.8574H42.4077L42.6326 42.2949Z" fill="#0E0C7C"/>
<path d="M50.6172 42.4072L51.1796 42.6322L51.5171 43.4196L51.8545 43.982L52.6419 45.3319L52.7544 45.7818L52.9794 46.2317L53.3168 47.0191L53.6543 47.2441V47.8066L54.1043 48.0315L54.4417 48.8189L54.5542 49.6063L54.8917 50.3937V50.6187L55.1166 50.7312L55.3416 51.4061L55.904 51.9685L56.0165 52.531L56.354 52.8684V53.4308L56.8039 53.5433V54.4432L56.9164 55.0057L56.8039 54.7807H56.5789L55.0041 51.6311L53.7668 49.0439L50.6172 42.7447V42.4072Z" fill="#0E0C7C"/>
<path d="M21.4837 85.1523L21.5962 85.6023L20.2463 88.077L17.6592 93.1388L16.3093 95.726L15.8594 96.176L15.9719 95.5011L16.6468 94.4887L16.9842 93.5888L17.4342 92.4639L17.8841 91.2266L18.3341 90.5517L19.009 88.8644L19.4589 87.9645H19.6839L19.7964 87.5145L19.9089 87.2896H20.1338L20.3588 86.7271L21.2587 85.4898L21.4837 85.1523Z" fill="#0F0C7D"/>
<path d="M46.4586 54.8936H54.4451L56.5823 55.006V55.231L54.895 55.3435H53.6577L51.8579 55.5685L50.6205 55.456H48.8208L47.5834 55.3435V55.5685L47.3584 55.456L46.2336 55.3435L46.1211 55.006L46.4586 54.8936Z" fill="#0F0C7D"/>
<path d="M46.1184 35.3203H46.3433L46.2308 35.9952L45.106 38.1325L44.2061 39.9322L43.1937 41.8445L42.9688 41.957L43.0812 41.0571L43.4187 40.1572L44.0936 38.9199L44.5436 37.6825L44.881 37.1201L45.331 36.2202L45.7809 35.4328L46.1184 35.3203Z" fill="#0E0C7B"/>
<path d="M49.9425 28.1211L50.055 28.571L49.2676 30.1458L48.1427 32.2831L46.6804 35.0952H46.4554V34.8703L46.2305 34.7578L46.4554 34.0828H46.6804L46.7929 33.5204L47.9178 31.3832L48.2552 30.4833L48.5927 30.1458L48.9301 29.4709H49.1551V29.1335H49.3801L49.605 28.6835L49.9425 28.1211Z" fill="#0E0C7C"/>
<path d="M24.1848 79.9775L24.2973 80.4275L22.61 83.5771L21.9351 84.9269L21.5977 84.8144L21.7101 84.252L22.1601 83.2396L22.835 81.8898L23.5099 80.8774L23.8474 80.4275H24.0723L24.1848 79.9775Z" fill="#0F0C7D"/>
<path d="M45.8943 48.7061L46.0068 48.931L45.7818 50.0559L45.4444 50.2809L45.3319 50.7308L44.9944 51.0683L44.7695 51.7432L44.207 51.6307L44.432 51.5182L44.3195 51.1807L44.8819 50.2809L45.4444 49.156L45.8943 48.7061Z" fill="#131391"/>
<path d="M64.793 56.2432L65.1304 56.3557L66.9302 59.9552L67.3801 60.6301L67.4926 61.305H67.2677L65.0179 56.9181L64.793 56.2432Z" fill="#0F0D80"/>
<path d="M15.2965 96.9629L15.4089 97.3003L14.2841 99.5501L14.0591 99.8875H11.9219V99.775H13.6092V99.5501L13.8341 99.3251L14.3966 98.4252H14.6215L14.734 97.8628L15.2965 96.9629Z" fill="#0E0C7C"/>
<path d="M56.2429 50.6191L56.5804 51.0691V51.6315L57.0303 52.0815V52.4189L56.6929 52.5314L56.1304 51.6315L55.793 50.9566L55.9055 50.7316L56.2429 50.8441V50.6191Z" fill="#0E0B79"/>
<path d="M47.1304 46.0068L47.3553 46.2318L47.1304 47.4692H46.9054L46.6804 48.2566L46.343 48.369L46.2305 47.9191L46.7929 46.5693H47.0179L47.1304 46.0068Z" fill="#141492"/>
<path d="M64.793 56.2432L65.1304 56.3557L66.0303 58.1554L66.1428 58.9428L65.8053 58.4929L64.793 56.4681V56.2432Z" fill="#100E83"/>
<path d="M17.0967 93.5879L17.2092 93.9253L16.0843 96.0626L15.8594 96.1751L15.9719 95.5002L16.6468 94.4878L16.9842 93.7004L17.0967 93.5879Z" fill="#0F0D80"/>
<path d="M50.6172 42.4072L51.1796 42.6322L51.2921 43.4196H50.9546L50.6172 42.7447V42.4072Z" fill="#0F0C7E"/>
<path d="M15.2999 96.9629L15.4124 97.3003L14.85 98.4252L14.625 98.3127L14.7375 97.8628L15.2999 96.9629Z" fill="#0F0D7E"/>
<path d="M59.3906 55.2305H59.7281L60.2905 56.3553L60.178 56.5803L59.5031 55.5679L59.3906 55.2305Z" fill="#100E83"/>
</svg>
