<svg width="300" height="92" viewBox="0 0 300 92" fill="none" xmlns="http://www.w3.org/2000/svg">
<path d="M43.0862 0H48.2967L52.5051 0.400801L57.3147 1.4028L62.7256 3.2064L67.3348 5.41081L70.942 7.61521L74.1484 10.02L76.7536 12.2244L79.7597 15.2304L81.5633 17.4348L84.1685 21.042L86.9741 26.052L88.5773 29.8596L89.9801 34.4689L90.9821 39.6793L91.3829 44.8897V47.0941L90.9821 51.9037L89.9801 57.1141L88.9781 60.5209L87.3749 64.5289L85.1705 68.9377L82.3649 73.1461L80.7617 75.1501L78.9581 77.1541L75.3508 80.7613L71.944 83.3665L68.7376 85.3705L64.1284 87.7753L59.9199 89.3785L55.7115 90.5809L50.9019 91.3825L48.8979 91.5829H42.2846L36.473 90.7813L32.465 89.7793L28.457 88.3765L24.8497 86.7733L21.4429 84.7693L18.2365 82.5649L15.6313 80.3605L14.0281 78.9577L11.6233 76.5529L9.81966 74.3485L7.21444 70.7413L5.01003 66.9337L3.20642 63.1261L1.40281 57.7153L0.400802 52.9057L0 49.4989V42.2845L0.601203 37.4749L2.00401 31.8636L3.60722 27.6552L5.41083 23.8476L7.81564 20.04L10.2205 16.8336L12.0241 14.8296L13.4269 13.2264L15.0301 11.6232L17.2345 9.81962L20.8417 7.21441L24.6493 5.01001L28.0562 3.40681L32.465 1.8036L36.6734 0.801601L40.8818 0.2004L43.0862 0Z" fill="#CE2736"/>
<path d="M44.6878 15.6309H46.4914L48.0947 16.2321L49.4975 17.4345L50.6999 19.8393L53.5055 27.0537L59.9183 43.0857L67.1328 61.3221L67.734 62.9253V64.9293L67.1328 66.7329L66.3312 67.7349L65.1288 68.5365L64.1267 68.9373H61.7219L59.7179 67.9353L58.5155 66.3321L56.1107 60.5205L55.5095 59.3181H35.4694L34.8682 61.1217L32.8642 66.1317L32.0626 67.3341L30.6598 68.5365L29.6577 68.9373H27.2529L25.4493 68.1357L24.0465 66.5325L23.4453 64.7289V63.1257L25.8501 56.9133L29.0565 48.8973L31.261 43.2861L36.6718 29.6589L39.6778 22.0437L41.0806 18.4365L42.4834 16.6329L43.8862 15.8313L44.6878 15.6309Z" fill="#FEFEFE"/>
<path d="M180.559 21.6436H182.763L185.97 22.2448L188.375 23.2468L190.379 24.4492L192.383 26.2528L192.984 26.6536L193.184 25.0504L193.986 23.2468L194.988 22.2448L196.391 21.6436L197.994 21.844L198.996 23.0464V55.1104L198.395 56.1124L197.794 56.7136L196.19 56.914L194.387 56.3128L193.385 55.1104L192.583 52.5052H192.182L190.178 54.3088L188.174 55.5112L185.369 56.5132L182.162 56.914H179.757L176.15 56.1124L173.745 55.1104L171.14 53.5072L169.136 51.7036L167.333 49.6996L165.93 47.4952L164.727 44.4892L164.126 42.0844L163.926 40.2808V38.2768L164.327 35.6716L165.329 32.4652L166.932 29.4592L168.735 27.2548L170.339 25.6516L173.144 23.848L175.148 22.846L177.753 22.0444L180.559 21.6436Z" fill="#CE2736"/>
<path d="M281.964 21.6436L285.17 21.844L288.176 22.6456L290.381 23.848L292.785 25.6516L293.387 26.4532H293.787L294.389 24.0484L295.19 22.6456L296.393 21.844L297.996 21.6436L299.198 22.2448L299.799 22.846L300 23.4472L299.799 55.3108L298.597 56.7136L296.793 56.914L295.391 56.3128L294.389 55.3108L293.587 53.1064V52.3048L292.585 52.906L290.982 54.3088L288.176 55.912L285.371 56.7136L283.767 56.914H281.363L278.357 56.5132L274.95 55.3108L271.944 53.5072L269.539 51.3028L267.735 49.0984L266.132 46.0924L265.13 42.886L264.93 41.6836V36.874L265.731 33.6676L267.134 30.4612L268.737 28.2568L270.541 26.2528L272.946 24.4492L276.152 22.846L278.557 22.0444L281.964 21.6436Z" fill="#CE2736"/>
<path d="M123.849 11.0225H125.452L127.456 12.0245L128.658 13.8281L130.261 17.2349L132.466 22.8461L140.883 43.8881L143.889 51.5033V53.9081L142.887 55.5113L141.484 56.5133L139.279 56.9141L137.476 56.3129L136.273 55.3109L135.071 52.9061L133.267 48.2969V47.6957H116.634L114.43 53.3069L113.227 55.5113L112.025 56.5133L111.023 56.9141H109.019L107.616 56.3129L106.213 54.7097L105.812 53.7077V52.3049L106.614 49.6997L112.426 35.0705L118.438 20.0405L120.442 14.8301L121.043 12.4253L121.845 11.6237L122.646 11.2229L123.849 11.0225Z" fill="#CE2736"/>
<path d="M225.452 21.6436L227.256 21.844L228.658 23.0464L229.46 24.85L229.861 27.0544L231.664 25.6516L234.47 23.848L236.675 22.846L239.28 22.0444L242.085 21.6436L245.492 21.844L248.298 22.6456L251.103 24.0484L253.107 25.6516L254.911 27.4552L256.915 30.6616L257.917 33.2668L258.518 36.0724L258.719 37.6756V53.3068L258.117 54.91L257.115 55.912L255.713 56.7136L254.109 56.914L252.306 56.3128L251.103 55.3108L250.302 53.908L250.101 38.0764L249.5 35.6716L248.498 33.6676L246.895 31.864L243.689 30.2608L242.687 30.0604H240.482L238.077 30.6616L235.673 32.0644L234.27 33.4672L233.067 35.4712L232.266 37.4752L232.065 47.6956L231.865 53.908L231.063 55.3108L229.66 56.5132L228.458 56.914L226.454 56.7136L225.051 55.912L223.849 54.5092L223.648 53.908V22.846L224.65 21.844L225.452 21.6436Z" fill="#CE2736"/>
<path d="M152.907 10.8223L154.911 11.0227L156.113 11.6239L157.516 13.2271L157.917 14.6299L157.716 53.9083L157.115 55.1107L155.712 56.3131L154.911 56.7139L153.308 56.9143L151.304 56.3131L149.7 54.5095L149.5 53.9083V13.8283L150.502 12.0247L152.105 11.0227L152.907 10.8223Z" fill="#CE2736"/>
<path d="M210.822 21.6436H212.225L214.028 22.4452L215.231 23.848L215.632 24.6496V53.7076L214.83 55.3108L213.628 56.3128L212.024 56.914L210.02 56.7136L208.818 55.912L207.616 54.5092L207.215 52.5052L207.415 24.4492L208.618 22.6456L210.02 21.844L210.822 21.6436Z" fill="#CE2736"/>
<path d="M180.763 29.8604H182.367L184.972 30.4616L186.976 31.664L188.779 33.4676L189.781 35.2712L190.383 36.8744L190.583 37.8764V40.8824L189.581 43.8884L187.978 46.0928L186.174 47.4956L183.97 48.4976L182.968 48.698H180.162L177.557 47.8964L175.753 46.694L174.15 44.8904L172.948 42.4856L172.547 41.0828V37.4756L173.348 35.0708L174.551 33.0668L176.354 31.4636L178.559 30.2612L180.763 29.8604Z" fill="#FEFEFE"/>
<path d="M281.364 29.8604H283.568L286.173 30.662L287.977 31.8644L288.979 32.666L290.382 34.67L291.384 37.4756V41.0828L290.582 43.4876L289.38 45.4916L287.376 47.2952L285.372 48.2972L283.769 48.698H281.163L278.758 48.0968L276.554 46.694L274.951 44.8904L273.748 42.2852L273.348 40.682V37.676L273.949 35.672L275.151 33.4676L276.554 31.8644L278.959 30.4616L281.364 29.8604Z" fill="#FEFEFE"/>
<path d="M165.934 74.1484H167.938L170.544 74.95L172.147 76.1524L172.748 76.5532L172.948 75.1504L173.75 74.3488L174.952 74.1484L175.554 74.5492L175.754 75.1504V90.3809L175.353 91.1825L174.151 91.5833L172.948 90.7817L172.548 89.9801V89.1785L170.744 90.5813L168.74 91.3829H165.333L163.129 90.5813L161.325 89.3789L159.722 87.5753L158.72 85.3709L158.52 84.5693V80.962L159.321 78.7576L160.524 77.1544L161.926 75.7516L164.331 74.5492L165.934 74.1484Z" fill="#2B2324"/>
<path d="M244.893 74.1484H246.897L249.502 74.95L251.105 76.3528H251.506L251.907 74.95L252.909 74.1484L254.311 74.3488L254.512 74.7496V90.7817L253.911 91.3829H252.508L251.706 90.5813L251.305 89.3789L249.702 90.5813L247.698 91.3829H244.291L242.287 90.7817L240.283 89.3789L238.881 87.9761L237.678 85.5713L237.277 83.9681V81.7636L237.879 79.5592L239.081 77.5552L240.083 76.3528L241.887 75.1504L243.891 74.3488L244.893 74.1484Z" fill="#282324"/>
<path d="M118.036 68.9375H119.639L121.042 69.5387L121.443 70.1399L121.643 73.7471V78.1559L131.864 78.3563L131.663 69.3383L132.465 68.9375H134.068L135.471 69.5387L136.072 70.3403V89.5787L135.671 90.5807L134.669 91.3823H133.266L132.264 90.7811L131.864 89.7791V82.5647L121.643 82.7651L121.443 90.3803L120.24 91.3823H118.838L117.836 90.7811L117.435 89.9795L117.234 69.3383L118.036 68.9375Z" fill="#292324"/>
<path d="M146.697 74.1484H148.902L150.705 74.5492L152.709 75.5512L154.513 77.1544L155.715 79.1584L156.317 81.1624V83.3669L155.515 83.9681L154.513 84.1685H143.491L143.691 85.1705L144.693 86.7737L146.497 87.7757H148.902L151.307 86.5733L152.709 86.7737L153.711 87.7757V88.9781L152.709 90.1805L151.106 90.9821L149.302 91.3829H146.296L144.092 90.7817L142.288 89.5793L141.286 88.7777L139.884 86.7737L139.082 84.3689V81.1624L139.884 78.958L141.086 77.1544L142.489 75.7516L144.894 74.5492L146.697 74.1484Z" fill="#2C2324"/>
<path d="M278.959 74.1484H281.163L282.967 74.5492L284.971 75.5512L286.374 76.7536L287.777 78.958L288.378 80.3608L288.578 82.9661L288.177 83.7677L286.775 84.1685H275.753L275.953 85.3709L277.155 86.9741L278.759 87.7757H280.963L282.767 86.9741L284.169 86.5733L285.372 87.1745L285.973 87.9761V88.9781L285.171 89.9801L283.167 90.9821L281.564 91.3829H278.358L276.354 90.7817L274.149 89.3789L272.546 87.5753L271.544 85.3709L271.344 84.5693V81.1624L271.945 79.1584L273.348 76.954L275.352 75.3508L277.757 74.3488L278.959 74.1484Z" fill="#2B2324"/>
<path d="M201.402 68.9375H203.005L204.207 69.9395L204.408 70.5407V76.3523L204.207 76.9535L205.209 75.9515L206.812 74.7491L208.416 74.1479H211.021L213.225 74.9495L214.829 76.1519L216.231 77.7551L217.233 80.3603L217.434 81.3623V89.7791L216.833 90.7811L216.031 91.3823H214.628L213.626 90.5807L213.225 89.5787L213.025 81.5627L212.023 79.5587L210.62 78.5567L209.818 78.3563H208.215L206.211 79.3583L205.009 80.9615L204.608 81.7631L204.408 89.5787L204.007 90.5807L203.005 91.3823H201.602L200.6 90.7811L200.199 90.1799V70.1399L201.001 69.1379L201.402 68.9375Z" fill="#2A2324"/>
<path d="M228.054 74.1484H230.058L232.463 74.7496L234.266 75.7516L235.268 76.7536L235.87 77.956L235.469 79.1584L234.467 79.96L233.064 79.7596L230.659 78.7576L228.655 78.5572L227.052 78.958L225.85 79.7596L225.048 80.7616L224.647 82.1644V83.5673L225.449 85.5713L227.052 86.7737L229.256 87.1745L231.26 86.7737L233.465 85.5713L234.868 85.7717L235.669 86.5733L235.87 87.7757L235.268 88.9781L233.665 90.3809L231.661 91.1825L230.86 91.3829H227.453L225.449 90.7817L223.445 89.5793L221.641 87.5753L220.639 85.3709L220.238 83.1665L220.439 80.962L221.24 78.958L222.443 77.1544L223.445 76.1524L225.248 74.95L226.852 74.3488L228.054 74.1484Z" fill="#2A2324"/>
<path d="M45.4894 34.0684L45.8902 34.2688L51.7019 48.898L52.5035 51.1024V51.5032H38.8762L38.6758 50.902L40.8802 45.4912L43.6858 38.4772L45.4894 34.0684Z" fill="#CE2736"/>
<path d="M191.182 68.9375H192.785L193.787 69.7391L193.988 70.1399L194.188 74.3483L196.593 74.5487L197.595 75.5507L197.795 75.9515V77.1539L197.194 78.1559L196.392 78.5567L194.188 78.7571L193.988 90.1799L193.186 91.1819L192.585 91.3823H191.182L190.18 90.5807L189.979 90.1799L189.779 78.7571L187.575 78.5567L186.573 77.7551L186.172 76.3523L186.573 75.3503L187.575 74.5487L189.779 74.3483L189.979 70.1399L190.781 69.1379L191.182 68.9375Z" fill="#262324"/>
<path d="M124.85 24.6494L125.251 24.8498L126.454 28.0562L130.462 38.477L131.263 40.481V40.8818H118.838L118.438 40.481L120.642 35.0702L123.648 27.2546L124.65 24.8498L124.85 24.6494Z" fill="#FEFEFE"/>
<path d="M259.321 74.1484H260.323L261.325 75.1504L261.726 76.5532L263.329 75.3508L265.333 74.3488L266.936 74.1484L268.74 74.3488L270.343 75.3508L270.744 75.952V77.1544L269.742 78.1564L269.341 78.3568L265.534 78.5572L264.331 79.3588L263.329 80.5612L262.928 81.5632L262.728 89.9801L262.127 90.9821L261.325 91.3829H259.922L258.92 90.7817L258.52 89.9801V74.7496L259.321 74.1484Z" fill="#2D2324"/>
<path d="M180.965 68.9375H182.569L183.571 69.7391L183.771 70.1399V90.1799L182.769 91.1819L182.368 91.3823H180.965L179.963 90.5807L179.562 88.7771L179.763 70.1399L180.565 69.1379L180.965 68.9375Z" fill="#262324"/>
<path d="M210.42 8.2168H212.825L214.628 9.2188L215.63 10.4212L216.231 12.0244V13.6276L215.229 15.6316L213.827 16.834L212.624 17.2348H210.42L208.817 16.6336L207.414 15.0304L207.013 14.2288L206.812 12.4252L207.213 10.822L208.416 9.2188L210.42 8.2168Z" fill="#CE2736"/>
<path d="M245.492 78.1562L247.296 78.3567L248.899 79.3587L250.102 80.9619L250.302 81.5631V83.9679L249.5 85.7715L248.098 86.9739L247.096 87.3747H244.691L242.687 86.1723L241.685 84.5691L241.484 83.7675V81.9639L242.086 80.3607L243.288 78.9579L245.492 78.1562Z" fill="#FEFEFE"/>
<path d="M166.732 78.1562L168.936 78.5571L170.539 79.9599L171.341 81.3627L171.541 82.9659L171.141 84.7695L170.339 85.9719L169.137 86.9739L168.135 87.3747H165.93L164.327 86.5731L163.125 85.1703L162.523 83.3667L162.724 81.3627L163.726 79.7595L165.129 78.5571L166.732 78.1562Z" fill="#FEFEFE"/>
<path d="M279.158 77.5547H280.761L282.364 78.1559L283.366 78.9575L284.368 80.7611V81.3623L275.952 81.5627L275.551 81.3623L275.751 80.1599L277.555 78.1559L279.158 77.5547Z" fill="#FEFEFE"/>
<path d="M147.097 77.5547H148.499L150.504 78.3563L151.706 79.7591L152.107 80.7611V81.3623H143.289L143.489 80.3603L144.291 79.1579L145.694 77.9555L147.097 77.5547Z" fill="#FEFEFE"/>
</svg>
