<svg width="300" height="81" viewBox="0 0 300 81" fill="none" xmlns="http://www.w3.org/2000/svg">
<path d="M36.7998 0.5L37 0.700195V18.7432H19.2373V36.5195H37.293L37.4932 36.7197V44.4082L37.0225 54.7627H18.957L18.7568 54.5625V37H0.5V22.7256L0.941406 18.7441L17.7773 18.2627L18.2627 18.249V0.701172L18.4639 0.5H36.7998Z" fill="#892C31" stroke="#2E2629"/>
<path d="M232.895 8.88159H236.349L239.309 11.3487L245.724 20.7237L251.645 28.6184L258.059 37.9934L262.5 44.9013L262.007 47.3684L260.033 48.3553H257.073L254.112 44.9013L250.165 38.9803L248.684 37.9934H220.066L214.145 46.3816L211.678 48.3553L209.211 47.3684L207.73 45.3947L212.665 37.5L230.428 10.8553L232.895 8.88159Z" fill="#2E2629"/>
<path d="M74.0148 8.88159H77.9622L80.4293 11.3487L86.8438 20.2303L91.778 27.1382L97.699 35.5263L104.113 44.9013L104.607 45.8882L101.646 48.3553L99.6727 48.8487L96.2188 45.8882L91.2845 38.9803V37.9934L62.1727 37.5L59.2122 40.954L55.2648 46.3816L53.7845 47.8619H51.3174L49.3438 46.875L49.8372 44.4079L52.7977 39.4737L66.1201 19.2434L71.0543 11.8421L73.028 9.37501L74.0148 8.88159Z" fill="#2E2629"/>
<path d="M129.769 8.88159H133.716L136.183 11.3487L149.012 29.1119L154.44 37.0066L159.867 44.4079L159.374 46.3816L156.413 48.8487L153.946 47.8619L150.492 43.9145L147.038 38.4869L146.052 37.9934L117.927 37.5L113.486 42.9276L110.525 46.875L109.045 48.3553L107.071 47.3684L105.098 45.8882L106.084 43.4211L112.499 33.5526L117.927 25.1645L124.834 14.8026L127.795 10.8553L129.769 8.88159Z" fill="#2D2629"/>
<path d="M45.888 51.8093H276.809L293.092 52.3027L293.585 53.2896L293.092 54.2764L290.625 54.7699H45.888L45.3945 53.783L45.888 51.8093Z" fill="#925958"/>
<path d="M249.179 9.375H252.14L257.074 13.3224L262.008 18.2566L265.956 21.7105L269.41 25.1645L271.877 24.1776L277.304 18.75H278.291V17.7632L282.238 14.3092L287.173 9.86842L288.16 9.375H291.613L294.081 10.8553L293.094 13.3224L284.706 21.7105L280.758 25.1645L274.344 31.5789L273.85 45.3947L273.357 46.875L271.877 47.8618H268.423L266.449 46.3816L265.956 31.5789L256.581 22.2039L252.633 18.75L246.712 12.8289L246.219 10.8553L247.206 9.86842L249.179 9.375Z" fill="#30272A"/>
<path d="M165.295 9.375L168.256 9.86842L168.749 15.2961L169.242 38.9803L170.723 40.4605L172.203 40.9539L194.407 41.4474L204.275 41.9408L205.262 44.4079L204.769 47.3684L203.782 47.8618H177.631L171.216 47.3684L166.282 45.8882L162.334 42.4342L161.348 38.9803V13.3224L161.841 9.86842L165.295 9.375Z" fill="#33292B"/>
<path d="M289.146 33.0593H294.574L297.535 35.033L299.508 37.5001L300.002 38.9804V42.9277L298.028 46.3817L295.067 48.3554L293.587 48.8488H289.146L286.186 46.8751L284.212 44.408L283.719 42.9277V38.9804L285.692 35.033L289.146 33.0593Z" fill="#FEFFFE"/>
<path d="M234.376 16.7764L236.843 19.2435L244.245 30.0987L244.738 31.579L225.001 32.0724L224.508 31.0856L232.403 19.2435L234.376 16.7764Z" fill="#FEFFFE"/>
<path d="M131.25 16.7764L132.73 17.2698L141.612 30.5922V31.579L122.368 32.0724L121.875 31.0856L125.329 25.6579L131.25 16.7764Z" fill="#FEFFFE"/>
<path d="M75.4922 16.7764L76.9725 17.2698L85.854 30.5922V31.579H66.1172L67.104 29.1119L75.4922 16.7764Z" fill="#FEFFFE"/>
<path d="M289.146 33.0593H294.574L297.535 35.033L299.508 37.5001L300.002 38.9804V42.9277L298.028 46.3817L295.067 48.3554L293.587 48.8488H289.146L286.186 46.8751L284.212 44.408L283.719 42.9277V38.9804L285.692 35.033L289.146 33.0593ZM289.146 35.033L286.186 37.5001L285.692 38.487V43.4212L288.653 46.8751L291.613 47.3685L296.054 45.8883L298.028 43.4212V38.487L295.067 35.033H289.146Z" fill="#423032"/>
<path d="M116.94 62.1711L121.381 62.6646L122.367 64.6382H120.394L118.42 63.6514L114.473 63.158V62.6646L116.94 62.1711Z" fill="#5E3C3E"/>
<path d="M117.826 75.3928C116.81 75.3928 115.896 75.2397 115.086 74.9334C114.29 74.6143 113.664 74.1804 113.207 73.6316C112.75 73.0701 112.515 72.4256 112.5 71.6981H114.644C114.717 72.3235 115.012 72.8531 115.528 73.287C116.058 73.7082 116.824 73.9188 117.826 73.9188C118.784 73.9188 119.535 73.7146 120.08 73.3062C120.64 72.885 120.92 72.349 120.92 71.6981C120.92 71.1876 120.758 70.7729 120.434 70.4538C120.11 70.1347 119.705 69.8923 119.218 69.7264C118.732 69.5604 118.077 69.3818 117.252 69.1903C116.235 68.9606 115.417 68.7309 114.798 68.5012C114.194 68.2715 113.671 67.9141 113.229 67.4291C112.802 66.9314 112.588 66.2678 112.588 65.4382C112.588 64.7108 112.802 64.0663 113.229 63.5048C113.657 62.9432 114.253 62.5093 115.019 62.203C115.8 61.8967 116.692 61.7436 117.694 61.7436C119.137 61.7436 120.316 62.0562 121.23 62.6816C122.158 63.3069 122.681 64.1365 122.799 65.1702H120.589C120.515 64.6597 120.206 64.2131 119.66 63.8302C119.115 63.4346 118.393 63.2367 117.495 63.2367C116.655 63.2367 115.97 63.4282 115.439 63.811C114.909 64.1812 114.644 64.7044 114.644 65.3808C114.644 65.8658 114.798 66.2614 115.108 66.5677C115.432 66.874 115.822 67.1101 116.279 67.276C116.751 67.4291 117.406 67.6078 118.246 67.812C119.263 68.0545 120.08 68.297 120.699 68.5395C121.318 68.7692 121.848 69.1329 122.29 69.6306C122.732 70.1156 122.953 70.7792 122.953 71.6216C122.953 72.2724 122.754 72.885 122.357 73.4593C121.959 74.0336 121.37 74.4994 120.589 74.8568C119.808 75.2141 118.887 75.3928 117.826 75.3928Z" fill="#33292B"/>
<path d="M136.654 64.7682V75.2588H134.642V73.7082C134.259 74.2442 133.722 74.6654 133.029 74.9716C132.351 75.2652 131.6 75.4119 130.775 75.4119C129.832 75.4119 128.985 75.246 128.233 74.9142C127.482 74.5696 126.885 74.0591 126.443 73.3827C126.016 72.7063 125.802 71.8832 125.802 70.9132V64.7682H127.791V70.6835C127.791 71.7173 128.093 72.5149 128.698 73.0765C129.302 73.6252 130.127 73.8996 131.173 73.8996C132.248 73.8996 133.095 73.6125 133.714 73.0382C134.333 72.4639 134.642 71.6279 134.642 70.5304V64.7682H136.654Z" fill="#33292B"/>
<path d="M142.06 66.472C142.414 65.8722 142.915 65.4063 143.563 65.0745C144.226 64.7427 145.029 64.5768 145.972 64.5768V66.3763H145.442C143.188 66.3763 142.06 67.4355 142.06 69.5541V75.2588H140.049V64.7682H142.06V66.472Z" fill="#33292B"/>
<path d="M153.288 64.5959C154.334 64.5959 155.248 64.7937 156.029 65.1894C156.824 65.585 157.414 66.0827 157.797 66.6826V64.7682H159.83V75.4885C159.83 76.4457 159.594 77.2944 159.123 78.0346C158.651 78.7876 157.974 79.3746 157.09 79.7958C156.22 80.2169 155.204 80.4275 154.04 80.4275C152.449 80.4275 151.123 80.1021 150.062 79.4512C149.001 78.8003 148.375 77.9133 148.183 76.7903H150.172C150.393 77.4284 150.85 77.9389 151.542 78.3217C152.235 78.7174 153.067 78.9152 154.04 78.9152C155.145 78.9152 156.043 78.6153 156.736 78.0154C157.443 77.4156 157.797 76.5733 157.797 75.4885V73.287C157.399 73.8996 156.81 74.4101 156.029 74.8185C155.248 75.2269 154.334 75.4311 153.288 75.4311C152.213 75.4311 151.233 75.2014 150.349 74.7419C149.48 74.2825 148.795 73.638 148.294 72.8084C147.793 71.9789 147.542 71.0345 147.542 69.9752C147.542 68.9032 147.793 67.9652 148.294 67.1611C148.795 66.3444 149.48 65.7126 150.349 65.2659C151.233 64.8193 152.213 64.5959 153.288 64.5959ZM157.797 69.9944C157.797 69.2031 157.613 68.5139 157.244 67.9269C156.876 67.3398 156.375 66.8931 155.741 66.5868C155.123 66.2678 154.438 66.1083 153.686 66.1083C152.935 66.1083 152.25 66.2614 151.631 66.5677C151.012 66.874 150.518 67.3207 150.15 67.9077C149.782 68.4948 149.598 69.184 149.598 69.9752C149.598 70.7792 149.782 71.4812 150.15 72.081C150.518 72.6681 151.012 73.1211 151.631 73.4402C152.25 73.7465 152.935 73.8996 153.686 73.8996C154.438 73.8996 155.123 73.7465 155.741 73.4402C156.375 73.1211 156.876 72.6681 157.244 72.081C157.613 71.4812 157.797 70.7856 157.797 69.9944Z" fill="#33292B"/>
<path d="M164.267 63.0645C163.884 63.0645 163.56 62.9496 163.295 62.7199C163.03 62.4902 162.897 62.2094 162.897 61.8776C162.897 61.5457 163.03 61.265 163.295 61.0353C163.56 60.8055 163.884 60.6907 164.267 60.6907C164.636 60.6907 164.945 60.8055 165.196 61.0353C165.461 61.265 165.593 61.5457 165.593 61.8776C165.593 62.2094 165.461 62.4902 165.196 62.7199C164.945 62.9496 164.636 63.0645 164.267 63.0645ZM165.24 64.7682V75.2588H163.229V64.7682H165.24Z" fill="#33292B"/>
<path d="M167.916 69.9944C167.916 68.9096 168.166 67.9652 168.667 67.1611C169.168 66.3444 169.861 65.7126 170.745 65.2659C171.643 64.8193 172.667 64.5959 173.817 64.5959C175.305 64.5959 176.528 64.9086 177.485 65.534C178.458 66.1593 179.099 67.0271 179.408 68.1375H177.242C177.036 67.4993 176.631 66.9952 176.027 66.6251C175.437 66.255 174.701 66.07 173.817 66.07C172.667 66.07 171.739 66.4145 171.032 67.1037C170.325 67.7801 169.971 68.7437 169.971 69.9944C169.971 71.2578 170.325 72.2341 171.032 72.9233C171.739 73.6125 172.667 73.957 173.817 73.957C174.701 73.957 175.437 73.7784 176.027 73.421C176.616 73.0637 177.021 72.5532 177.242 71.8896H179.408C179.084 72.9616 178.436 73.823 177.463 74.4739C176.491 75.112 175.275 75.4311 173.817 75.4311C172.667 75.4311 171.643 75.2077 170.745 74.7611C169.861 74.3144 169.168 73.6827 168.667 72.8659C168.166 72.0491 167.916 71.0919 167.916 69.9944Z" fill="#33292B"/>
<path d="M181.34 69.9752C181.34 68.9032 181.591 67.9652 182.091 67.1611C182.592 66.3444 183.277 65.7126 184.147 65.2659C185.031 64.8193 186.011 64.5959 187.086 64.5959C188.147 64.5959 189.068 64.7937 189.849 65.1894C190.629 65.585 191.211 66.0827 191.595 66.6826V64.7682H193.628V75.2588H191.595V73.3062C191.197 73.9188 190.6 74.4293 189.804 74.8376C189.024 75.2333 188.11 75.4311 187.064 75.4311C185.988 75.4311 185.016 75.2014 184.147 74.7419C183.277 74.2825 182.592 73.638 182.091 72.8084C181.591 71.9789 181.34 71.0345 181.34 69.9752ZM191.595 69.9944C191.595 69.2031 191.41 68.5139 191.042 67.9269C190.674 67.3398 190.173 66.8931 189.539 66.5868C188.92 66.2678 188.235 66.1083 187.484 66.1083C186.732 66.1083 186.047 66.2614 185.429 66.5677C184.81 66.874 184.316 67.3207 183.948 67.9077C183.58 68.4948 183.395 69.184 183.395 69.9752C183.395 70.7792 183.58 71.4812 183.948 72.081C184.316 72.6681 184.81 73.1211 185.429 73.4402C186.047 73.7465 186.732 73.8996 187.484 73.8996C188.235 73.8996 188.92 73.7465 189.539 73.4402C190.173 73.1211 190.674 72.6681 191.042 72.081C191.41 71.4812 191.595 70.7856 191.595 69.9944Z" fill="#33292B"/>
<path d="M199.037 61.0927V75.2588H197.026V61.0927H199.037Z" fill="#33292B"/>
<path d="M206.753 75.4311C205.824 75.4311 204.992 75.2971 204.255 75.0291C203.519 74.7483 202.937 74.3654 202.509 73.8805C202.082 73.3827 201.846 72.8148 201.802 72.1767H203.879C203.938 72.7 204.218 73.1275 204.719 73.4593C205.235 73.7911 205.905 73.957 206.73 73.957C207.497 73.957 208.101 73.8103 208.543 73.5167C208.985 73.2232 209.206 72.8531 209.206 72.4064C209.206 71.947 208.97 71.6088 208.498 71.3918C208.027 71.1621 207.298 70.9388 206.311 70.7218C205.412 70.5176 204.675 70.3134 204.1 70.1092C203.541 69.8923 203.054 69.5796 202.642 69.1712C202.244 68.75 202.045 68.2013 202.045 67.5249C202.045 66.9889 202.229 66.4975 202.598 66.0508C202.966 65.6041 203.489 65.2532 204.167 64.9979C204.845 64.7299 205.618 64.5959 206.487 64.5959C207.828 64.5959 208.911 64.8895 209.736 65.4765C210.561 66.0636 211.003 66.8676 211.062 67.8886H209.051C209.007 67.3398 208.749 66.8995 208.277 66.5677C207.821 66.2359 207.202 66.07 206.421 66.07C205.699 66.07 205.124 66.204 204.697 66.472C204.27 66.74 204.056 67.0909 204.056 67.5249C204.056 67.8694 204.182 68.1566 204.432 68.3863C204.697 68.6033 205.021 68.7819 205.404 68.9223C205.802 69.05 206.347 69.1967 207.04 69.3626C207.909 69.5668 208.616 69.771 209.161 69.9752C209.707 70.1667 210.171 70.4602 210.554 70.8558C210.952 71.2514 211.158 71.7683 211.173 72.4064C211.173 72.9807 210.988 73.4976 210.62 73.957C210.252 74.4165 209.729 74.7802 209.051 75.0482C208.388 75.3035 207.622 75.4311 206.753 75.4311Z" fill="#33292B"/>
<path d="M230.202 65.8211C230.202 66.9314 229.76 67.8567 228.876 68.5969C228.007 69.3243 226.674 69.6881 224.876 69.6881H221.915V75.2588H219.904V61.9159H224.876C226.615 61.9159 227.933 62.2796 228.832 63.007C229.745 63.7345 230.202 64.6725 230.202 65.8211ZM224.876 68.2523C225.996 68.2523 226.821 68.0417 227.351 67.6206C227.882 67.1994 228.147 66.5996 228.147 65.8211C228.147 64.1748 227.057 63.3516 224.876 63.3516H221.915V68.2523H224.876Z" fill="#33292B"/>
<path d="M237.21 73.6508L240.967 64.7682H243.111L238.359 75.2588H236.017L231.265 64.7682H233.431L237.21 73.6508Z" fill="#33292B"/>
<path d="M247.543 66.204V72.3873C247.543 72.8978 247.668 73.2615 247.919 73.4785C248.169 73.6827 248.604 73.7848 249.223 73.7848H250.703V75.2588H248.891C247.771 75.2588 246.932 75.0355 246.372 74.5888C245.812 74.1421 245.532 73.4083 245.532 72.3873V66.204H243.963V64.7682H245.532V62.1264H247.543V64.7682H250.703V66.204H247.543Z" fill="#33292B"/>
<path d="M261.043 73.8422H266.436V75.2588H259.032V61.9159H261.043V73.8422Z" fill="#33292B"/>
<path d="M271.025 66.204V72.3873C271.025 72.8978 271.15 73.2615 271.4 73.4785C271.651 73.6827 272.085 73.7848 272.704 73.7848H274.185V75.2588H272.373C271.253 75.2588 270.413 75.0355 269.853 74.5888C269.293 74.1421 269.013 73.4083 269.013 72.3873V66.204H267.444V64.7682H269.013V62.1264H271.025V64.7682H274.185V66.204H271.025Z" fill="#33292B"/>
<path d="M275.87 69.9752C275.87 68.9032 276.121 67.9652 276.622 67.1611C277.123 66.3444 277.808 65.7126 278.677 65.2659C279.561 64.8193 280.548 64.5959 281.638 64.5959C282.581 64.5959 283.458 64.7874 284.268 65.1702C285.079 65.5403 285.697 66.0317 286.125 66.6443V61.0927H288.158V75.2588H286.125V73.287C285.727 73.9124 285.138 74.4293 284.357 74.8376C283.576 75.2333 282.662 75.4311 281.616 75.4311C280.541 75.4311 279.561 75.2014 278.677 74.7419C277.808 74.2825 277.123 73.638 276.622 72.8084C276.121 71.9789 275.87 71.0345 275.87 69.9752ZM286.125 69.9944C286.125 69.2031 285.941 68.5139 285.572 67.9269C285.204 67.3398 284.703 66.8931 284.069 66.5868C283.451 66.2678 282.765 66.1083 282.014 66.1083C281.263 66.1083 280.578 66.2614 279.959 66.5677C279.34 66.874 278.846 67.3207 278.478 67.9077C278.11 68.4948 277.926 69.184 277.926 69.9752C277.926 70.7792 278.11 71.4812 278.478 72.081C278.846 72.6681 279.34 73.1211 279.959 73.4402C280.578 73.7465 281.263 73.8996 282.014 73.8996C282.765 73.8996 283.451 73.7465 284.069 73.4402C284.703 73.1211 285.204 72.6681 285.572 72.081C285.941 71.4812 286.125 70.7856 286.125 69.9944Z" fill="#33292B"/>
<path d="M293.176 42.9276L291.8 41.3135H290.887V42.9276H290.133V38.9802H291.999C292.435 38.9802 292.803 39.0312 293.102 39.1331C293.406 39.2351 293.632 39.3729 293.782 39.5466C293.931 39.7202 294.006 39.9185 294.006 40.1412C294.006 40.4131 293.889 40.6528 293.657 40.8605C293.431 41.0681 293.088 41.2059 292.629 41.2739L294.08 42.9276H293.176ZM290.887 40.9001H291.999C292.408 40.9001 292.715 40.8321 292.919 40.6962C293.124 40.5565 293.226 40.3715 293.226 40.1412C293.226 39.9071 293.124 39.7259 292.919 39.5975C292.72 39.4692 292.413 39.405 291.999 39.405H290.887V40.9001Z" fill="#2E2629"/>
<path d="M142.107 66.6118H145.561L146.547 68.0921L144.08 68.5855L141.613 67.5987L142.107 66.6118Z" fill="#53393A"/>
</svg>
