<svg width="138" height="120" viewBox="0 0 138 120" fill="none" xmlns="http://www.w3.org/2000/svg">
<path d="M63.7683 0H64.6729L65.5774 1.65828L66.6327 3.16581L68.4418 6.18087L72.3614 12.5125L74.1705 15.3768L76.2811 18.8441L77.9394 21.5577L78.0901 21.8592L78.6932 21.7084L81.1053 20.5024L83.6681 19.4471L85.7787 18.8441L86.9848 18.6934V18.3919H85.3264L82.0098 18.8441L79.5977 19.5979L78.9947 19.7486V19.2964L80.5023 18.2411L82.7636 16.8843L85.4772 15.6783L88.4923 14.9246L91.809 14.4723H96.6332L98.7437 14.623L99.6483 14.4723H101.608L103.266 14.9246L104.774 15.6783L106.131 16.8843L107.186 18.3919L108.392 20.8039L108.844 22.1607L108.694 22.613L107.337 22.0099L104.02 21.2562V21.7084L104.925 22.0099L106.432 22.9145L108.091 24.5727L110.503 26.231L111.86 27.2863L112.764 28.0401L113.367 28.7938L113.066 29.5476L112.01 30.4521L111.106 32.2612L109.749 33.7687L107.94 34.824L107.337 34.5224L106.885 33.0149L105.98 31.3566V31.0551L105.377 31.2059L104.472 32.5627L103.869 33.9194V35.5777L104.171 37.0852L104.925 37.236L105.98 37.0852L106.131 37.3868V39.3465L105.528 40.8541L104.623 42.0601L103.869 42.8139L103.116 43.4169L102.513 43.1154L101.307 41.7586L100.251 39.4973L100.101 39.045H99.6483L98.7437 40.2511L98.593 40.5526L97.8392 40.2511L96.4824 39.3465L95.4271 38.2913L94.0703 36.1807L93.4673 33.9194V30.3014L93.7688 28.6431L93.618 28.1908L92.2612 27.1355L91.3567 26.0803L91.0552 25.3265L90.9044 23.6682L91.2059 22.7637L92.412 22.1607L94.9748 21.8592H95.2764L95.1256 21.5577L93.1658 21.4069L91.3567 21.8592L90.4522 22.4622L90.1506 23.5175V25.1758L90.4522 26.5325L91.3567 27.8893L92.5627 28.7938L92.7135 29.9999L92.412 31.9596V34.6732L93.015 37.236L94.0703 39.1958L95.8794 41.6078L97.2362 42.9646L99.196 44.3214L101.759 45.6782L102.814 46.2812L103.568 48.3917L104.02 50.653L104.171 52.3113V56.5324L103.869 59.849L103.568 61.9595L103.719 63.0148L105.528 66.0298L110.05 73.266L111.86 76.281L113.518 78.9946L114.121 80.2006V80.5021L113.066 80.6529L111.407 77.7886L110.201 76.281L108.844 74.0197L107.337 71.6077L104.774 67.3866L103.719 65.7283L103.417 65.2761H102.663L100.854 62.261L99.3468 60.1505L97.5377 57.7384L95.5779 55.3264L94.2211 53.6681L92.5627 51.5575L91.6582 50.5023L91.2059 50.3515L92.7135 52.7636L93.9195 54.2711L97.5377 59.0952L98.7437 60.7535L100.704 63.7685L102.362 66.4821L104.322 70.1002L105.829 72.9645L107.488 76.281V76.5825L109.447 76.884L110.804 77.7886L111.86 78.8438L112.312 79.8991V80.6529L112.01 80.8036H105.528L104.774 80.0499L102.513 76.7333L101.005 74.7735L99.196 72.663L97.0854 70.5524L95.4271 69.1956L92.7135 67.0851L90.7537 65.8791L88.1908 64.3715L87.2863 63.7685L86.5325 63.9193L85.0249 65.8791L83.6681 68.1404L82.4621 70.4017L81.256 73.4167L80.8038 75.075V75.8288L82.1606 76.4318L82.9143 77.1856L83.6681 78.0901L83.9696 78.8438V79.8991L83.0651 80.2006H76.1303L75.8288 78.9946V74.6227L76.1303 69.9494L76.5826 66.7836L77.7886 61.055L78.0901 60.1505L73.266 59.2459L69.3463 58.7937H65.1251L61.6577 59.2459L58.0396 60.1505L55.1752 61.3565L54.7229 61.8087L57.8888 60.9042L60.1502 60.452L63.1653 60.1505L63.4668 60.3012L64.2206 63.3163V66.3313L63.6176 68.5926L62.713 70.5524L61.8085 72.06L61.9592 73.266L62.713 74.6227L63.7683 75.678L64.6729 76.1303L66.6327 76.4318L68.1402 77.0348L68.894 77.6378L69.6478 79.1453V79.7484H62.5623L60.7532 78.9946L59.0949 77.7886L56.8335 75.8288L55.1752 73.7182L55.0245 73.266L55.6275 71.7584L55.929 69.3464L55.6275 67.5374L54.7229 66.0298L53.5169 64.9746L52.1601 64.2208L51.8586 64.9746L50.8033 66.4821L49.5972 67.8389L47.4866 69.4971L44.6223 71.0047L42.2102 71.7584L40.4011 72.2107L36.3307 72.5122L31.9588 72.663L30.602 72.9645L29.0944 73.7182L27.4361 75.075L26.8331 75.9795L26.9838 76.7333L28.1899 77.7886L28.4914 78.2408V79.8991L28.0391 80.6529L27.8883 80.8036H20.9536L20.8028 80.5021L22.0089 75.9795L22.9134 73.7182L24.5717 70.7032L25.9285 69.0449L26.9838 68.1404L30.3004 67.6881L32.5618 67.0851L34.9739 66.0298L36.9337 64.673L37.989 63.7685L39.6473 61.5072L40.4011 60.1505L40.2504 58.9444L40.0996 55.6279L36.3307 57.1354L32.1095 58.4922L28.6421 59.3967L24.8732 59.9997L23.2149 60.1505H20.1998L17.4862 59.849L15.2248 59.2459L13.1142 58.1907L11.4559 56.8339L10.2499 55.1756L9.64685 53.8188L9.49609 53.2158V50.653L9.94836 48.844L10.7021 47.0349L12.0589 45.0752L13.4158 43.5676L15.0741 42.2108L17.1847 40.8541L19.446 39.648L22.3104 38.5928L27.1346 37.3868L28.3406 37.236L28.4914 37.5375L27.4361 39.4973L26.23 41.0048L24.5717 42.6631L22.9134 43.7184L21.4058 44.3214L19.1445 44.7737L15.9786 44.9244L14.471 46.4319L13.4158 47.9395L12.8127 49.1455L12.5112 50.05V52.3113L13.1142 53.6681L14.1695 54.8741L15.5263 55.7786L17.9384 56.5324L20.6521 56.8339H22.3104L25.3255 56.5324L28.9436 55.7786L34.3709 53.9696L37.386 52.6128L41.6072 50.5023L45.6776 48.0902L47.7882 46.8842L50.351 45.6782L52.6124 44.9244L57.135 43.8691L64.9744 42.2108L68.4418 41.1556L72.2107 39.648L72.5122 39.4973L72.2107 38.5928L71.9091 37.839V36.1807L72.3614 34.3717L73.5675 31.8089L74.7735 30.3014L75.9796 29.2461L76.1303 28.7938L71.9091 30.1506L71.4569 30.4521H71.0046L71.3061 29.5476L72.3614 27.5878L73.869 25.628L75.8288 23.6682L76.8841 22.9145L76.7333 22.3114L73.1152 16.4321L71.6076 16.5828L68.894 17.4874L66.0297 18.9949L63.1653 20.9547L62.713 21.4069L62.11 21.2562L61.0547 19.5979L59.2456 16.7336L59.3964 16.1306L61.507 14.7738L64.5221 12.9648L67.688 11.005L68.894 10.2512L68.7433 9.49744L67.0849 6.63313L66.6327 6.18087L65.5774 6.63313L56.6828 12.0602L56.2305 11.9095L55.0245 9.79895L53.5169 7.3869L52.9139 6.48238V5.87937L54.5722 4.52259L56.6828 3.16581L59.2456 1.95979L61.507 1.35678L63.6176 0.904518L63.7683 0Z" fill="#231F55"/>
<path d="M60.6 90.7529H66.4795L68.8916 97.5368L71.1529 103.868L71.4544 104.924H71.7559L73.565 99.4966L75.6756 93.3157L76.4294 91.0544L76.5801 90.7529H82.6104L82.7611 90.9037V108.843L83.2134 108.391L84.2687 105.376L88.1884 95.4263L89.9974 90.9037L90.1482 90.7529H94.3694L94.9724 91.959L97.3845 97.8383L100.098 104.471L101.756 108.542L101.907 108.693V96.9338L102.058 90.7529H115.475L116.983 91.2052L117.887 91.8082L118.943 92.8635L119.847 94.6725L120.149 96.0293V97.6876L119.546 99.1951L118.189 100.703L117.435 101.306L116.531 101.607H115.927L116.38 102.662L117.887 105.074L119.546 107.637L120.45 108.994V109.296H115.475L113.817 106.582L112.159 104.019L110.953 102.21L106.279 102.059L106.128 109.446L97.5352 109.296L96.1784 105.527L96.0277 105.225H88.7914L87.5853 108.542L87.1331 109.296H78.9922L78.8415 95.7278L76.7309 101.456L75.2233 105.828L74.3188 108.391L73.8665 109.296L73.1127 109.446H69.9469L69.3438 109.296L67.987 105.677L65.7257 99.3459L64.5196 95.8785L64.0674 95.4263L64.2181 95.7278V109.296L63.9166 109.446L60.4492 109.296V90.9037L60.6 90.7529Z" fill="#F11D3A"/>
<path d="M0.150756 90.7529H10.2514L12.362 91.3559L14.0203 92.2605L14.9249 93.3157L16.1309 95.577L16.7339 97.5368L17.0354 99.4966V101.155L16.7339 103.115L16.1309 105.074L15.3771 106.582L14.1711 108.09L12.6635 108.994L11.156 109.296H0V90.9037L0.150756 90.7529Z" fill="#F11D3A"/>
<path d="M36.1781 90.7529H41.7561L42.6606 92.1097L45.0727 96.18L47.0325 99.3459L48.9924 102.662L49.8969 104.17L50.1984 104.321V90.7529H54.4196L54.5704 91.959V109.145L53.5151 109.446L48.8416 109.296L47.9371 107.939L46.2788 105.225L44.4697 102.361L42.2083 98.7428L40.55 96.0293L40.2485 95.8785L40.3993 96.6323V109.296H36.1781L36.0273 109.145V90.9037L36.1781 90.7529Z" fill="#F11D3A"/>
<path d="M30.1488 90.6035L34.3699 90.7543V94.0708L26.2291 94.2216L24.7215 94.8246L23.6662 95.8799L23.0632 97.0859L22.9125 98.1412L23.5155 98.2919H34.3699L34.5207 99.0457V101.608L26.0783 101.759H22.7617L23.214 103.267L23.817 104.473L24.8723 105.528L25.4753 105.83L26.3798 105.98H34.3699L34.5207 106.131V109.297H24.42L22.4602 108.694L20.8019 107.639L19.4451 106.131L18.3898 104.021L17.9375 101.91V98.1412L18.5405 95.8799L19.1435 94.6738L20.1988 93.3171L20.8019 92.5633L22.9125 91.3573L25.3246 90.7543L30.1488 90.6035Z" fill="#F11D3A"/>
<path d="M5.88256 94.0693H9.34995L10.556 94.3708L11.7621 95.4261L12.3651 96.6321L12.8173 98.8934V101.758L12.3651 104.019L11.6113 105.225L10.7068 105.979L9.80222 106.13H4.52576L4.375 105.979V94.2201L5.88256 94.0693Z" fill="#FEFEFE"/>
<path d="M131.909 90.7529H137.336L136.733 91.8082L134.773 93.9187L133.417 95.577L132.06 97.0846L130.251 99.1951L129.949 99.4966V100.25L131.155 101.758L133.115 104.17L134.773 106.28L136.432 108.24L137.035 108.994V109.296H131.608L129.648 106.582L128.14 104.471L126.331 101.909L125.276 100.401L125.125 99.4966L126.482 97.8383L127.839 96.0293L129.497 93.9187L130.552 92.562L131.457 91.3559L131.909 90.7529Z" fill="#F11D3A"/>
<path d="M54.874 18.8438L55.477 19.4468L57.5876 22.9141L58.4921 24.2709L58.3414 25.0246L56.5323 26.3814L54.4217 27.7382L52.0096 28.9442L49.7483 29.698L47.6377 29.9995H46.5824L45.0748 27.4367L44.0195 25.7784L44.1703 25.3261L46.4316 23.9694L48.8437 22.4618L51.8589 20.6528L54.874 18.8438Z" fill="#F11D3A"/>
<path d="M63.3162 0.904297H63.6178L65.4268 3.7686L66.6329 5.72839L66.4821 6.18065L64.8238 7.08517L60.9041 9.49722L57.889 11.3063L56.683 12.06L56.2307 11.9093L55.0246 9.79873L53.5171 7.38668L52.9141 6.48216V5.87915L54.5724 4.52237L56.683 3.16559L59.2458 1.95957L61.5072 1.35656L63.3162 0.904297Z" fill="#F11D3A"/>
<path d="M48.8435 9.19531L49.2957 9.34607L50.5018 11.4566L52.1601 14.0194L52.3108 14.6224L50.8033 15.6777L48.2404 17.1852L46.2806 18.3912L41.7579 21.1048L41.1549 20.954L39.6473 18.3912L37.989 15.6777L37.6875 15.3762V14.9239L40.7026 14.0194L43.4162 12.9641L45.9791 11.3059L48.2404 9.64757L48.8435 9.19531Z" fill="#F11D3A"/>
<path d="M69.0452 9.94922L69.6483 10.703L70.5528 12.0598L72.0604 14.4718L72.9649 15.9793L73.1157 16.2808L70.5528 16.8839L68.593 17.6376L66.0301 18.9944L63.1658 20.9542L62.7135 21.4064L62.1105 21.2557L61.0552 19.5974L59.2461 16.7331L59.3968 16.1301L61.5074 14.7733L64.5226 12.9643L67.6884 11.0045L68.8945 10.2507L69.0452 9.94922Z" fill="#F11D3A"/>
<path d="M120.906 90.7529H124.675L124.826 90.9037V109.296L124.223 109.446L121.057 109.296L120.906 108.994V90.7529Z" fill="#F11D3A"/>
<path d="M106.434 93.9199H112.314L113.671 94.3722L114.424 94.9752L114.877 95.729V97.3872L113.821 98.5933L112.766 99.0455H106.284L106.133 97.6887L106.284 94.0707L106.434 93.9199Z" fill="#FEFEFE"/>
<path d="M63.7718 0H64.6764L65.5809 1.65828L66.6362 3.16581L68.4453 6.18087L72.365 12.5125L74.174 15.3768L74.6263 16.1306L75.2293 17.7889L76.5861 20.2009L77.0384 20.8039L77.4907 22.0099L77.1891 22.4622L76.7369 22.3114L74.3248 18.3919L72.8172 15.9798L71.9127 14.4723L70.2544 11.7587L68.7468 9.49744L67.0885 6.63313L66.6362 6.18087L65.7317 4.52259L63.7718 1.35678L63.6211 0.603012L63.7718 0Z" fill="#181262"/>
<path d="M102.816 63.166L103.419 63.4675V63.769L104.022 64.0705L104.323 64.8243L104.775 65.1258L105.228 65.8796L105.831 66.4826L108.243 70.4022L110.052 73.2665L111.861 76.2815L113.519 78.9951L114.122 80.2011V80.5026L113.067 80.6534L111.409 77.7891L110.203 76.2815L108.846 74.0202L107.338 71.6082L104.775 67.3871L103.72 65.7288L103.419 64.9751L102.665 64.8243L102.363 64.372V63.6183L102.816 63.166Z" fill="#171263"/>
<path d="M32.8656 113.819H35.5792L36.7853 114.272L37.3883 115.025L37.539 115.327V116.684L36.4837 117.89L36.7853 118.643L37.6898 119.849V120L36.6345 119.849L35.5792 118.342H33.6194L33.4686 120L32.7148 119.849V113.97L32.8656 113.819Z" fill="#181262"/>
<path d="M5.87964 113.819H8.89476L9.7993 114.272L10.4023 115.025L10.5531 116.382L10.1008 117.287L9.34703 117.89L8.29174 118.191H6.48266V119.849L5.87964 120L5.57812 119.849V114.121L5.87964 113.819Z" fill="#191362"/>
<path d="M54.4237 113.668L55.0267 113.969L57.2881 118.944L57.5896 120H56.8358L56.082 118.643L55.9313 118.492L52.7654 118.341L52.3131 119.698L52.0116 120L51.2578 119.849L52.6146 116.834L53.9714 113.969L54.4237 113.668Z" fill="#140E4E"/>
<path d="M41.6078 113.668L42.2108 113.969L43.8691 116.683L44.6229 118.04L45.2259 117.286L46.7335 114.572L47.3365 113.819H47.7888L47.9395 115.628V119.849L47.1858 120L47.035 119.849V118.04L47.1858 115.779L46.5827 116.382L44.9244 119.246L44.3214 119.095L42.9646 116.683L42.5123 115.929V115.628H42.2108V120L41.457 119.849V113.969L41.6078 113.668Z" fill="#181252"/>
<path d="M25.9292 113.668L26.5322 113.969L27.7383 116.382L29.2458 119.698V120H28.492L27.7383 118.643L27.4367 118.492H24.4216L23.6678 120H22.9141L23.2156 119.095L25.0246 115.175L25.7784 113.819L25.9292 113.668Z" fill="#16105A"/>
<path d="M110.503 113.819L111.256 113.97L113.216 118.04L113.97 119.699V120H113.216L112.312 118.493H109.146L108.694 119.849L107.789 120L107.94 119.096L110.05 114.422L110.503 113.819Z" fill="#18125D"/>
<path d="M92.2629 95.5781L92.7152 96.0304L93.9212 99.4977L94.675 101.307L94.5243 101.91H90.1523L90.3031 100.704L92.1122 95.7289L92.2629 95.5781Z" fill="#FEFEFE"/>
<path d="M14.3203 113.819H15.0741L15.2248 116.231L18.6922 116.382V113.819H19.446L19.5968 115.478V119.849L19.446 120H18.6922V117.136H15.2248V119.849L14.4711 120L14.3203 119.849V113.819Z" fill="#161066"/>
<path d="M69.7969 113.819H74.018L73.8673 114.573H70.5507V116.382H73.5658L73.7165 117.136H70.5507L70.7014 119.096L74.1688 119.246L74.018 120H69.9476L69.7969 119.849V113.819Z" fill="#161063"/>
<path d="M78.0922 113.819L78.8459 113.97V116.533L78.9967 118.191L79.449 118.945L79.9012 119.096H81.258L82.0118 118.342L82.1626 113.97L82.9164 113.819L83.0671 113.97V118.191L82.6148 119.096L81.7103 119.849L81.258 120H79.7505L78.8459 119.548L78.2429 118.794L77.9414 118.04V113.97L78.0922 113.819Z" fill="#181262"/>
<path d="M126.639 113.668L127.845 113.819L128.749 114.422V114.874L127.845 114.723L126.337 114.572L125.583 115.025L125.433 115.628L125.734 116.08L128.448 116.985L129.051 117.738V118.794L128.297 119.698L127.543 120H125.885L124.377 119.246L124.227 118.794L125.282 118.944L125.885 119.095H127.694L128.297 118.492L128.146 117.889L127.242 117.437L125.583 116.985L124.679 116.382L124.528 115.326L124.98 114.422L125.885 113.819L126.639 113.668Z" fill="#1A1461"/>
<path d="M102.363 113.668L103.72 113.819L104.624 114.422L104.775 115.175L104.021 115.025L103.569 114.723L102.514 114.572L101.307 115.025L100.554 115.929L100.403 116.231V117.286L100.855 118.341L101.76 119.095H103.569L104.473 118.643H104.926L104.775 119.246L104.021 119.849L103.569 120H101.76L100.554 119.397L99.6492 118.191L99.3477 117.286L99.4984 115.929L100.252 114.723L101.609 113.819L102.363 113.668Z" fill="#1A1461"/>
<path d="M63.3136 113.668L64.6704 113.819L65.5749 114.422L65.8764 114.874L65.7257 115.326L64.5196 114.723L63.3136 114.572L62.409 115.025L61.6553 115.779L61.3538 116.532L61.6553 118.04L62.409 118.944L62.8613 119.095H64.5196L65.4242 118.643H65.8764L65.7257 119.397L64.3689 120H62.7106L61.5045 119.246L60.7507 118.341L60.4492 117.588V116.231L61.0522 115.025L62.2583 113.969L63.3136 113.668Z" fill="#130C4C"/>
<path d="M63.7718 0H64.6764L65.5809 1.65828L66.6362 3.16581L68.4453 6.18087L70.4051 9.34669L70.2544 9.64819L69.6513 8.89443L69.1991 8.14066V7.83916L68.596 7.98991L68.2945 7.23615L67.5408 5.87937L67.2392 5.1256L66.787 5.27636L66.4855 5.72862L65.2794 3.76883L63.6211 1.20602V0.301506L63.7718 0Z" fill="#191362"/>
<path d="M86.3828 113.819H91.3578L91.207 114.573H89.3979V119.849L88.4934 120L88.3426 119.849V114.573H86.5336L86.3828 113.819Z" fill="#231F55"/>
<path d="M6.48438 114.572H8.74572L9.4995 115.025L9.65025 115.326V116.683L8.89647 117.286L8.29345 117.437H6.93664L6.48438 117.286V114.572Z" fill="#FEFEFE"/>
<path d="M33.4688 114.572H35.7301L36.4839 115.025L36.7854 115.628L36.6346 116.834L35.8808 117.286H33.6195L33.4688 117.135V114.572Z" fill="#FEFEFE"/>
<path d="M117.44 113.819H118.194L118.344 119.096L121.661 119.246L121.359 120H117.591L117.44 119.849L117.289 113.97L117.44 113.819Z" fill="#242055"/>
<path d="M47.3396 113.819H47.7919L47.9426 115.628V119.849L47.1888 120L47.0381 119.849V118.04L47.1888 115.779L46.2843 116.533H45.832L45.9828 115.93L47.0381 114.121L47.3396 113.819Z" fill="#140E4D"/>
<path d="M105.377 66.0303L105.83 66.4825L108.242 70.4021L110.051 73.2664L111.86 76.2815L113.217 78.392V78.6935L112.463 78.392L112.312 77.6383L111.86 77.4875V77.0352H111.558L110.352 75.2262L110.503 74.7739H110.202L109.598 73.5679L108.543 71.9096L107.639 70.2514L107.036 69.0453L106.583 68.5931L105.679 67.0855L105.227 66.6333L105.377 66.0303Z" fill="#242055"/>
<path d="M110.501 113.819L111.255 113.97L113.215 118.04L113.969 119.699V120H113.215L112.763 119.246L112.311 118.191L112.009 118.04L111.858 117.136L110.954 115.025H110.652L110.049 116.231L109.898 115.779L110.049 114.422L110.501 113.819Z" fill="#150F4F"/>
<path d="M83.0665 17.0352H83.971V17.4874L84.2726 17.6382L83.8203 18.0904L82.162 18.6934L78.9961 19.7487V19.2965L80.5037 18.2412L82.162 17.1859L83.0665 17.0352Z" fill="#181262"/>
<path d="M94.8265 113.819H95.5803V120H94.8265L94.6758 119.397L94.8265 113.819Z" fill="#231F54"/>
<path d="M25.9281 113.668L26.5311 113.969L27.7372 116.382L29.2447 119.698V120H28.491L27.5864 118.191L27.2849 117.889L26.8326 116.382L26.2296 115.025V114.572H25.7773V113.819L25.9281 113.668Z" fill="#140E4D"/>
<path d="M66.6328 5.12598H67.2358V5.42748L67.5373 5.57824L68.4419 7.23652L68.7434 7.83953H69.1957L69.9494 9.04556V9.95007L70.1002 10.4023H69.7987L69.6479 9.64857L69.1957 9.79932L68.5926 9.19631L67.2358 6.93501L66.9343 6.332L66.6328 6.18125V5.12598Z" fill="#130B4C"/>
<path d="M54.4248 114.723L54.8771 115.175L55.7816 117.436V117.738H53.2188L53.3695 116.833L54.274 114.873L54.4248 114.723Z" fill="#FEFEFE"/>
<path d="M10.2508 115.326L10.5523 115.477L10.4016 116.834L9.64781 117.738L9.04479 118.04H6.33117V118.793L6.02966 118.643L5.87891 117.889V116.834L6.9342 117.286H8.29101L9.3463 116.834L9.49705 116.683L9.64781 115.477H10.1001L10.2508 115.326Z" fill="#16105D"/>
<path d="M25.9342 114.874L26.3865 115.025L27.4418 117.588V117.738H24.8789L25.0297 116.834L25.7834 115.025L25.9342 114.874Z" fill="#FEFEFE"/>
<path d="M42.6625 114.874L43.2655 115.628L44.6223 118.04L45.2253 117.286L45.6776 116.382L46.2806 116.231L46.4314 116.683L45.0746 118.944L44.9238 119.246L44.3208 119.095L42.964 116.683L42.5117 115.779L42.6625 114.874Z" fill="#1A1550"/>
<path d="M110.657 114.723L111.26 115.326L112.164 117.738H109.602L109.752 116.833L110.657 114.723Z" fill="#FEFEFE"/>
<path d="M102.365 113.668L103.722 113.819L104.627 114.422L104.777 115.175L104.024 115.025L103.571 114.723L102.516 114.572L101.31 115.025L100.556 115.929L100.255 116.231V115.929L99.9531 115.779L100.255 115.175L99.9531 115.025L101.008 114.12L102.365 113.668Z" fill="#191361"/>
<path d="M73.4177 26.833L74.1715 27.436L74.3223 28.3405L74.0207 29.2451H73.267L72.6639 29.3958V29.6973H72.2117L71.9102 28.9436L72.0609 28.039L72.3624 27.5868H72.8147L72.9654 27.2853L73.267 27.436L73.4177 26.833Z" fill="#161066"/>
<path d="M54.725 114.12H54.8757L55.0265 114.874H55.4788L57.1371 118.643L57.5893 119.999H56.8356L56.0818 118.643L55.7803 117.889L55.4788 116.984L54.5742 114.572L54.725 114.12Z" fill="#150E4E"/>
<path d="M63.316 113.668L64.6728 113.819L65.5774 114.422L65.8789 114.874L65.7281 115.326L64.5221 114.723L63.316 114.572L62.4115 115.025L61.3562 116.08H61.0547V115.025L62.2607 113.969L63.316 113.668Z" fill="#1A1561"/>
<path d="M82.3148 113.819L83.0686 113.97V118.191L82.3148 118.342H82.1641V113.97L82.3148 113.819Z" fill="#19135E"/>
<path d="M104.924 23.9697L105.979 24.1205L106.431 24.7235V25.3265H104.773L102.964 24.8742L102.512 24.5727L102.662 24.1205L104.924 23.9697Z" fill="#FEFEFE"/>
<path d="M86.3828 113.819H91.3578L91.207 114.573L89.0964 114.724L88.6442 114.573L88.4934 115.025V114.573H86.5336L86.3828 113.819Z" fill="#231F55"/>
<path d="M110.656 75.9795L111.259 76.281L111.561 77.0348H111.862L112.013 77.487L112.465 77.9393L112.616 78.3915L113.37 78.693L114.124 80.2006V80.5021L113.068 80.6528L111.862 78.5423L111.561 77.487L110.656 75.9795Z" fill="#140D4D"/>
<path d="M128.448 118.643H128.9L128.598 119.396L127.995 119.849L127.543 119.999H125.885L124.377 119.246L124.227 118.793L125.282 118.944L125.885 119.095H127.694L128.448 118.643Z" fill="#191362"/>
<path d="M19.2983 114.874L19.5998 115.477V119.849L19.4491 120H18.6953V117.135L18.9968 116.532L19.2983 115.628V114.874Z" fill="#231F55"/>
<path d="M104.473 22.915H105.679L106.282 23.2165L106.583 23.6688L107.488 23.9703L107.789 24.7241V25.3271L106.734 24.8748L105.528 23.9703L104.473 23.3673V22.915Z" fill="#161066"/>
<path d="M70.4054 117.588H70.5561L70.7069 119.095L74.1743 119.246L74.0235 120H69.9531L70.4054 119.698V117.588Z" fill="#1A1461"/>
<path d="M61.8086 118.492L62.8639 119.095H64.5222L65.4267 118.643H65.879L65.7283 119.397L64.3714 120H62.7131L61.8086 119.547L62.1101 119.397L61.8086 118.492Z" fill="#120B4B"/>
<path d="M117.737 119.246H121.656L121.355 120H117.586L117.737 119.246Z" fill="#191360"/>
<path d="M18.6924 113.819H19.4461V115.779L19.1446 116.834L18.9939 117.89H18.8431V117.136L18.3909 116.985L18.5416 116.533H15.0742L15.225 116.231L18.6924 116.382V113.819Z" fill="#1A155C"/>
<path d="M99.9507 115.175H100.252L100.101 115.778L100.252 115.929L100.554 117.888L100.855 118.642L100.101 118.793L99.4984 117.888L99.3477 116.532L99.7999 115.326L99.9507 115.175Z" fill="#181360"/>
<path d="M14.3203 113.819H15.0741V116.231H14.9233L14.7726 114.272H14.6218V118.04L14.7726 117.739H15.0741L15.2248 119.849L14.4711 120L14.3203 119.849V113.819Z" fill="#211D55"/>
<path d="M5.57812 114.12H5.72888L5.87964 116.984L6.18115 118.643L6.33191 118.04H8.29174V118.19H6.48266V119.849L5.87964 119.999L5.57812 119.849V114.12Z" fill="#231F55"/>
<path d="M112.008 117.136L112.912 117.437L113.968 119.699V120H113.214L112.762 119.246L112.309 118.191L112.008 118.04V117.136Z" fill="#171151"/>
<path d="M75.832 19.748H76.2843L77.0381 20.8033L77.4903 22.0093L77.1888 22.4616L76.7366 22.3108L75.832 20.8033V19.748Z" fill="#181264"/>
<path d="M70.5508 116.382H73.5659L73.7167 117.136H70.8523L71.1538 116.985V116.683L70.5508 116.382Z" fill="#19145E"/>
<path d="M28.0405 78.0898L28.4928 78.2406V79.8989L28.342 80.3511H27.4375V78.9944L27.739 78.3913H28.0405V78.0898Z" fill="#191460"/>
<path d="M86.5312 113.969H87.4358L88.3403 114.12H91.2047V114.572L89.0941 114.723L88.6418 114.572L88.4911 115.024V114.572H86.5312V113.969Z" fill="#181361"/>
<path d="M109.446 117.437L109.597 117.738H112.009V118.04L112.461 118.19L112.31 118.492L109.145 118.341L109.446 117.437Z" fill="#1F1B58"/>
<path d="M24.7234 117.285L24.8741 117.737H27.437L27.7385 118.491L24.4219 118.34L24.7234 118.039V117.285Z" fill="#201C59"/>
<path d="M54.4248 113.668L55.0278 113.969L55.3293 114.874L55.0278 115.175L54.7263 114.572L54.5756 114.874L54.274 115.025L53.9725 115.779H53.2188L53.5203 114.874L54.1233 113.819L54.4248 113.668Z" fill="#1A145C"/>
<path d="M53.0648 117.437L53.2156 117.738L55.9292 117.587V118.341H52.9141L53.0648 117.437Z" fill="#1E1A5B"/>
<path d="M23.9694 117.437L24.4216 117.587V118.492L23.6678 119.999H22.9141L23.2156 119.095L23.9694 117.437Z" fill="#18135F"/>
<path d="M41.6055 113.668L42.2085 113.969L42.6608 114.723V115.779L42.2085 115.628L42.0577 115.929L41.6055 115.477V113.668Z" fill="#120B4C"/>
<path d="M69.7969 113.819H74.018L73.8673 114.573H70.7014V114.422L72.0582 114.272V114.121L69.7969 113.97V113.819Z" fill="#211C58"/>
<path d="M70.8555 10.4014L71.4585 11.0044L73.1168 13.7179L74.1721 15.3762L74.0213 15.6777L72.8153 14.1702L72.363 13.1149L71.6092 12.2104L70.8555 10.7029V10.4014Z" fill="#242055"/>
<path d="M104.474 118.643H104.926L104.775 119.246L104.022 119.849L103.569 119.999H102.363L102.816 119.396L103.871 118.944L104.474 118.643Z" fill="#120B4D"/>
<path d="M36.1804 117.889L36.7834 118.642L37.688 119.848V119.999L36.6327 119.848L35.8789 118.793V118.19H36.1804V117.889Z" fill="#191359"/>
<path d="M52.3131 117.588L52.6146 118.04V119.095L52.0116 120L51.2578 119.849L52.3131 117.588Z" fill="#19135F"/>
<path d="M109.602 74.9248L110.355 75.5278L110.808 75.6786L110.958 76.2816L111.863 77.6384L111.712 78.2414L110.205 76.2816L109.602 75.2263V74.9248Z" fill="#1B155E"/>
<path d="M94.975 113.969H95.4272V115.024L94.975 117.436H94.8242V114.12L94.975 113.969Z" fill="#161067"/>
<path d="M70.8546 58.1904H71.9099L72.2114 58.4919L72.9652 58.6427L72.6637 58.9442H71.0054L70.4023 58.3412L70.8546 58.1904Z" fill="#171163"/>
<path d="M67.8398 5.42676L68.2921 5.87902L69.6489 8.14031L70.4027 9.34634L70.2519 9.64784L69.6489 8.89408L68.5936 7.23579L67.8398 5.72826V5.42676Z" fill="#242055"/>
<path d="M111.709 115.478H112.011L112.765 117.136V117.437L111.86 117.136L111.559 116.533L111.709 115.478Z" fill="#18134F"/>
<path d="M128.447 118.643H128.899L128.597 119.396L127.994 119.849H127.09V119.396L128.447 118.643Z" fill="#120C4C"/>
<path d="M25.9281 113.668L26.5311 113.969L26.9834 114.723L26.8326 115.175L26.3804 115.326L26.2296 114.572H25.7773V113.819L25.9281 113.668Z" fill="#16104F"/>
<path d="M61.8086 118.492L62.8639 119.095L64.2207 119.246V119.397H63.3162V119.698L62.4116 119.849L61.8086 119.397H62.1101L61.8086 118.492Z" fill="#1A1461"/>
<path d="M33.3179 118.04H33.4686V120L32.7148 119.849V118.945H33.0164L33.3179 118.04Z" fill="#110B4D"/>
<path d="M101.31 114.421L101.611 114.572V114.873L100.707 115.627L100.255 116.23V115.928L99.9531 115.778L100.255 115.175L99.9531 115.024L101.31 114.421Z" fill="#231F55"/>
<path d="M109.6 73.8691L110.203 74.4722V74.7737H110.505L110.806 75.5274L110.354 75.6782L109.6 74.9244L109.449 74.1706L109.6 73.8691Z" fill="#130D5E"/>
<path d="M71.9102 14.1699L72.5132 14.7729L73.267 15.979L73.87 16.582V17.3357L73.267 16.7327L72.0609 14.7729L71.9102 14.1699Z" fill="#2D1F53"/>
<path d="M5.87891 116.833L6.9342 117.285V117.587L6.48193 118.039L6.33117 118.793L6.02966 118.642L5.87891 117.888V116.833Z" fill="#161064"/>
<path d="M46.1295 116.23L46.431 116.683L45.6772 117.889L45.0742 117.587L45.6772 116.381L46.1295 116.23Z" fill="#221E54"/>
<path d="M25.6327 113.969L25.7834 114.572H26.2357V114.873L25.6327 115.476H25.3312V115.778L24.8789 115.627L25.6327 113.969Z" fill="#181262"/>
<path d="M64.6758 0.452148L65.2788 1.05516L66.7864 3.46721L66.6356 3.76871L66.1833 3.31646L65.4296 1.95968L64.6758 0.753654V0.452148Z" fill="#242055"/>
<path d="M108.091 118.794L108.694 118.945V119.849L107.789 120L107.94 119.095L108.091 118.794Z" fill="#161053"/>
<path d="M65.4296 118.643H65.8818L65.7311 119.396L64.6758 119.849L64.8265 119.095L65.4296 118.643Z" fill="#161052"/>
<path d="M103.717 114.12L104.471 114.271L104.772 114.723V115.175L104.019 115.025L103.717 114.874L103.566 114.271L103.717 114.12Z" fill="#1D185D"/>
<path d="M67.5391 5.42676H67.8406L69.0466 7.83881L68.5944 7.98956L68.2928 7.23579L67.5391 5.87902V5.42676Z" fill="#161067"/>
<path d="M56.9835 118.944H57.285L57.5865 120H56.8328L56.5312 119.547V119.095L56.9835 118.944Z" fill="#150F4D"/>
<path d="M45.0757 117.588L45.5279 117.739L45.3772 118.342L44.9249 119.095L44.6234 118.794L44.4727 118.04H44.7742L45.0757 117.588Z" fill="#1D185D"/>
<path d="M43.7227 117.588L43.8734 117.889L44.4764 117.739L44.9287 119.246L44.3257 119.095L43.7227 118.04V117.588Z" fill="#140E4D"/>
<path d="M6.32886 114.572H6.47961V117.286L6.02734 116.984L6.1781 115.025L6.32886 114.572Z" fill="#242055"/>
<path d="M110.953 117.737H112.008V118.039L112.461 118.19L112.31 118.491L110.953 118.34V117.737Z" fill="#242055"/>
<path d="M53.0648 117.437L53.2156 117.738H54.8739V117.889L53.9694 118.04L54.5724 118.341H52.9141L53.0648 117.437Z" fill="#242055"/>
<path d="M27.8928 37.2363L28.4958 37.3871L28.1943 38.1408L27.7421 37.9901L26.9883 37.8393L27.139 37.3871L27.8928 37.2363Z" fill="#150F4E"/>
<path d="M104.476 118.643H104.929L104.778 119.246L104.024 119.849H103.723V119.396H104.024L104.175 118.793L104.476 118.643Z" fill="#171257"/>
<path d="M66.7836 3.76855L67.3866 4.37157L67.8389 5.12533V5.42684L67.3866 5.27608L66.6328 4.37157L66.7836 3.76855Z" fill="#242055"/>
<path d="M26.5336 117.737H27.4381L27.7396 118.491L26.3828 118.34L26.5336 117.737Z" fill="#242055"/>
<path d="M112.008 117.136L112.762 117.437L112.912 118.04L112.309 118.191L112.008 118.04V117.136Z" fill="#10094A"/>
<path d="M10.2491 115.326L10.5507 115.477V116.381H9.94763L9.79688 115.628L10.2491 115.326Z" fill="#130D4C"/>
<path d="M91.3585 23.0645L91.8108 23.2152L91.66 23.969H91.3585L91.2078 24.2705H90.9062L91.057 23.366L91.3585 23.0645Z" fill="#181264"/>
<path d="M52.6156 117.285L53.0679 117.436V118.039L53.3694 118.19L52.9171 118.34L52.7664 118.642H52.4648V117.436L52.6156 117.285Z" fill="#110A51"/>
<path d="M42.6625 114.874L42.964 115.477L43.1147 116.382H43.4163L43.2655 116.683L42.8132 116.532L42.5117 115.779L42.6625 114.874Z" fill="#221E54"/>
</svg>
