<svg width="100" height="100" viewBox="0 0 100 100" fill="none" xmlns="http://www.w3.org/2000/svg">
<path d="M47.4084 3.07129H50.2875L53.9343 3.26323L58.5408 4.03098L62.1876 4.99067L67.3699 6.7181L70.6329 8.2536L74.6636 10.5569L77.5426 12.6682L79.2701 14.0117L81.5733 16.123L83.1088 17.6585L84.4524 19.194L86.5637 21.6892L88.867 24.9522L90.7863 28.4071L92.7057 32.6297L94.2412 37.2362L95.3928 41.4588L96.1606 46.2573L96.3525 49.3283V51.6315L95.7767 56.8138L94.817 61.6123L93.6654 65.451L91.938 69.4817L90.4025 72.5527L89.8267 73.5124H9.40479L8.63703 72.5527L6.52572 68.522L4.60634 62.7639L3.64666 58.7332L2.87891 53.5509V47.6008L3.83859 41.0749L4.79828 37.0443L6.52572 32.0539L8.63703 27.8312L10.7483 24.3764L12.8597 21.3054L14.5871 19.194L16.8904 16.6989L19.3855 14.2037L22.6485 11.7085L24.5679 10.3649L29.5582 7.67779L33.2051 6.14229L38.7712 4.41485L43.1858 3.45516L47.4084 3.07129Z" fill="#FEFDFD"/>
<path d="M49.1347 12.2842H49.5185L51.054 15.3552L53.3573 20.1536L55.0847 23.9924L59.4993 33.0134L61.6106 37.428L64.6816 43.9539L65.0655 44.9136H66.601L83.1076 41.8426L90.5932 40.3071L92.8964 39.9232L92.7045 41.4587L89.4416 47.0249L86.5625 52.2072L83.8754 57.0056L78.5011 66.4106L76.5817 69.6735L75.4301 71.401L74.6624 71.5929H52.5895L51.4379 71.401L51.246 53.1669V41.0748L48.175 40.8829V71.401L47.5992 71.5929H23.415L22.4553 71.0171L20.5359 67.3703L18.2327 62.9557L15.9294 58.7331L10.5552 48.7523L7.86806 44.1458L6.14062 40.8829V40.499L14.0101 41.6506L26.8699 43.7619L34.1635 44.9136L34.3555 43.9539L36.8506 38.1958L39.3458 32.8215L41.4571 28.4069L43.7604 23.4166L45.8717 18.8101L47.4072 15.1632L48.5588 12.86L49.1347 12.2842Z" fill="#F0373E"/>
<path d="M47.6005 0H51.8232L56.2377 0.383875L61.0362 1.34356L65.0669 2.49519L68.1379 3.64681L72.9363 5.95007L75.6234 7.48557L77.9267 9.02107L80.4219 10.9404L83.109 13.2437L86.3719 16.5066L88.4832 19.1938L90.7865 22.4567L93.2817 26.4874L95.2011 30.1342L96.7366 34.1649L98.0801 39.1553L98.8479 43.7618L99.4237 47.9844V52.399L98.8479 57.0055L97.5043 63.3394L96.3527 67.3701L94.4333 71.9766L92.5139 75.4315L91.1704 76.967L90.5946 77.1589L55.6619 77.3509H47.0247L9.40494 77.1589L7.67751 76.967L6.90975 76.0073L4.22263 70.825L2.68713 66.9862L1.34356 62.1878L0.383875 57.3894L0 54.3183V46.4489L0.767751 40.8827L1.91938 36.0843L3.45488 31.4778L5.75813 26.6793L7.48557 23.6083L9.02107 21.497L11.3243 18.426L13.8195 15.5469L15.1631 14.0114L16.6986 12.6679L18.0421 11.3243L23.4164 7.48557L26.8713 5.56619L31.2858 3.45488L37.044 1.5355L41.2666 0.575813L44.3376 0.191938L47.6005 0ZM47.4086 3.071L43.186 3.45488L38.7714 4.41457L32.6294 6.33394L28.7906 8.06138L24.1841 10.5566L20.1535 13.6276L17.8502 15.7389L15.355 18.2341L13.6276 20.3454L11.9001 22.6486L9.78882 25.9116L7.86944 29.3665L6.142 33.0133L4.41457 38.3875L3.45488 43.3779L2.87906 47.6005V53.5506L3.64681 58.7329L4.79844 63.5314L6.52588 68.5217L8.82913 72.9363L9.40494 73.5121H89.8268L91.3623 70.825L93.2817 66.4104L94.4333 62.9555L95.393 59.1168L96.1608 53.9345L96.3527 51.6312V49.328L95.9688 44.9134L95.2011 40.6908L94.2414 37.2359L92.5139 32.0536L90.0187 26.8713L87.7155 23.2245L85.6042 20.5373L83.4929 18.2341L81.7654 16.3147L80.038 14.5873L77.3509 12.4759L74.2799 10.3646L71.2089 8.63719L68.3298 7.10169L63.5314 5.37425L59.3087 4.22263L55.47 3.45488L53.9345 3.26294L50.2877 3.071H47.4086Z" fill="#F0383F"/>
<path d="M60.2723 78.8867H63.1514L64.1111 79.2706L64.303 79.4625L65.6466 79.6545L65.8385 79.0787L66.2224 78.8867H73.8999L75.8193 79.0787L78.1225 80.8061L78.6984 82.7255L79.0822 95.5853L78.8903 95.7772H70.445V82.7255H65.6466L65.0708 83.3013V92.8982L65.4547 95.7772H56.6255V80.4222L56.4336 79.0787L60.2723 78.8867Z" fill="#F0383F"/>
<path d="M28.0234 78.8867H43.1865L44.5301 79.2706L45.6817 80.998L45.8736 81.9577L46.0656 87.332L45.4898 88.2917L43.7623 88.6755L44.3381 90.403L46.4495 95.0095L46.6414 95.7772H39.5397L38.9639 95.2014L36.6606 89.6352L35.8929 88.8675H35.1251L34.9332 89.2514V91.3627L35.1251 95.5853L34.9332 95.7772H28.5993L28.0234 95.5853L28.2154 92.7062V85.0287L28.0234 78.8867Z" fill="#F0373E"/>
<path d="M7.68075 97.3125H89.0623L90.9817 97.5044V99.9996H9.02431L7.29688 99.6158L7.48881 97.6964L7.68075 97.3125Z" fill="#FD4A53"/>
<path d="M15.5461 78.8867H25.3349L25.7188 80.6142L25.9108 82.5335L23.4156 82.1497H17.0816L16.8897 83.1093L17.2736 84.069L23.6075 84.261L25.3349 84.8368L26.1027 85.7965L26.4866 88.4836V92.3224L25.9108 94.0498L24.9511 95.2014L23.6075 95.7772H11.1316L10.5558 95.3934L10.3638 92.7062H15.7381L19.5768 92.5143L19.7688 91.5546L19.5768 90.9788L13.4348 90.5949L11.1316 90.0191L10.3638 89.4433L10.1719 88.4836V81.19L10.9396 79.8464L12.0913 79.0787L15.5461 78.8867Z" fill="#F0373E"/>
<path d="M80.2305 78.8867H86.9483L87.1402 79.6545L86.9483 84.8368V95.7772H80.6143L80.4224 95.5853L80.2305 78.8867Z" fill="#F0383F"/>
<path d="M50.484 78.8867H52.9792L54.7066 79.0787L54.5147 95.7772H48.1808L47.9888 82.1497L47.7969 79.2706L47.9888 79.0787L50.484 78.8867Z" fill="#F1383F"/>
<path d="M92.3244 68.1387L92.7082 68.9064L92.9002 69.6742L91.9405 72.1694L91.3647 73.1291H90.9808L90.7889 73.5129H90.2131L90.0211 74.4726L89.2534 74.8565L87.7179 75.0484H85.0307L80.6162 74.8565H65.837L60.4627 75.0484L53.7449 74.8565L53.361 75.0484L50.482 74.8565H48.9465L47.9868 74.6646L46.0674 74.8565L42.4206 74.6646H38.7738L38.006 74.4726L37.0463 74.6646L26.6817 74.8565H19.1961L12.2864 75.0484L9.79119 74.8565L9.21538 74.0887L9.02344 73.1291L9.40731 73.321H89.8292L91.3647 70.25L92.3244 68.1387Z" fill="#FD4A53"/>
<path d="M94.4332 70.6328H94.8171L94.6251 71.5925L92.5138 75.4313L91.1702 76.9668L90.5944 77.1587L55.6618 77.3506H47.0246L9.40481 77.1587L7.67738 76.9668L7.10156 76.3909L7.48544 75.6232L8.44513 76.199L12.2839 76.0071H23.9921L25.7195 76.199H28.7905L32.2454 76.3909H33.7809L34.1648 76.199H52.015L52.5908 76.3909L52.7827 76.0071L53.7424 76.199L55.6618 76.0071L56.2376 76.199L58.157 76.0071L59.1167 76.199H66.6022L68.7135 76.0071L73.1281 76.199L76.583 76.0071L81.5734 75.8151H90.0186L90.5944 75.6232L90.9783 75.8151V75.4313H91.3622L91.7461 74.4716L92.5138 74.0877L92.8977 73.3199L94.2412 71.0167L94.4332 70.6328Z" fill="#FD4A53"/>
<path d="M91.168 29.1748L92.1277 29.7506L92.7035 31.2861L93.4712 32.4377V33.2055H93.8551L94.4309 33.7813L94.6228 34.9329L95.3906 35.8926L95.9664 38.5797L96.3503 39.9233L96.7342 41.4588H97.118V42.0346H97.6938L97.5019 40.1152L97.6938 38.3878L98.0777 39.1556L98.8455 43.7621L99.4213 47.9847V52.3993L98.8455 57.0058L98.0777 60.8445H97.8858L97.6938 58.5413L97.8858 55.2783L98.0777 54.8944L97.6938 55.0864L96.3503 58.9251L95.9664 60.8445L95.1987 61.6123L94.8148 63.9155L93.8551 64.8752L94.239 62.9558L95.1987 59.1171L95.9664 53.9348L96.1583 51.6315V49.3283L95.7745 44.9137L95.0067 40.6911L94.047 37.2362L92.3196 32.0539L91.168 29.5587V29.1748Z" fill="#FD4A53"/>
<path d="M6.14062 40.499L14.0101 41.6506L26.8699 43.762L34.1635 44.9136V45.2975L32.628 45.6813H29.749L27.8296 45.4894L27.6376 45.1055H28.2135V44.7217H25.7183V45.1055H25.3344V44.7217L24.7586 44.9136L24.3747 44.1458H24.7586V43.762L19.7682 43.3781L18.4246 43.1862V43.57H17.273L16.8891 43.1862L14.202 42.6103L12.4746 42.4184L10.9391 42.6103L9.5955 43.1862H9.21163L9.40356 45.1055L8.82775 44.7217V44.3378H8.44388L8.25194 43.9539L7.86806 44.1458L6.14062 40.8829V40.499Z" fill="#FD4A53"/>
<path d="M47.6033 0H51.8259L56.2405 0.383875L61.0389 1.34356L65.0696 2.49519L68.1406 3.64681L71.4035 5.18232L71.2116 5.56619L70.06 5.18232L64.6857 3.071L60.4631 2.11131L56.8163 1.5355L50.6743 0.959688L47.4113 0.767751L41.2693 1.5355L37.4306 2.30325H36.6628L35.7031 2.11131L36.4709 1.72744L41.2693 0.575813L44.3403 0.191938L47.6033 0Z" fill="#FD4A53"/>
<path d="M46.0653 2.87988H52.7831L58.5412 3.26376L61.4203 3.83957L63.7235 4.41538L65.259 5.37507L66.0268 5.56701L67.1784 5.95088L68.33 6.71864L70.0575 7.10251L71.7849 8.0622V8.82995L72.7446 9.21382L72.1688 9.40576L69.0978 7.67832L65.259 6.14282L60.2686 4.60732L55.4702 3.64763L53.9347 3.4557L50.2879 3.26376H47.4088L43.1862 3.64763L38.7716 4.60732L34.3571 5.95088L33.7812 5.75895L34.549 5.18313L35.3168 4.9912L38.3878 3.83957L40.8829 3.26376H41.6507L44.3378 3.07182L46.0653 2.87988Z" fill="#FE4B54"/>
<path d="M92.325 39.9229H92.9008L92.7089 41.4584L91.1734 43.9535L90.4056 43.7616L90.2137 42.418L88.2943 42.2261H85.4153L83.112 42.418L81.3846 42.8019L80.8088 42.9939H77.9297V42.8019L85.7991 41.2664L92.325 39.9229Z" fill="#FD4A53"/>
<path d="M35.5133 82.1494H38.5843L39.3521 82.9172V84.8365L39.1601 85.6043L38.7763 85.7962H35.3214L34.9375 85.4124V82.7252L35.5133 82.1494Z" fill="#FEFDFD"/>
<path d="M36.8523 81.1904H37.8119V81.5743L38.5797 81.7662L39.1555 82.1501L38.9636 82.534L38.5797 82.3421H35.5087L35.1248 82.7259V85.4131L35.3168 85.605H39.1555L39.3474 83.1098H39.5394L39.7313 84.2614L40.3071 84.6453V85.7969L39.1555 86.7566L36.4684 86.9486L35.3168 87.9082L34.7409 87.5244L33.9732 85.7969L33.7812 85.605V83.6856L34.1651 82.7259L34.9329 81.7662L36.8523 81.1904Z" fill="#FE4B54"/>
<path d="M49.1397 12.2842H49.5236L51.0591 15.3552L53.3623 20.1536L55.0898 23.9924L55.4737 25.144L54.7059 24.7601L53.3623 22.073L52.5946 19.9617L51.0591 17.8504L49.9075 15.5471L49.7155 14.5874L49.1397 14.2036L48.7558 14.5874L48.18 16.5068L47.6042 17.0826L46.6445 17.2746L47.0284 16.1229L48.372 13.0519L49.1397 12.2842Z" fill="#FE4B54"/>
<path d="M15.5461 78.8867H25.3349V79.0787L20.5365 79.2706L18.6171 79.6545L16.3139 80.2303L12.6671 80.0383L11.7074 80.4222V80.8061L10.5558 81.19L10.7477 81.9577L10.5558 82.3416L10.3638 88.4836H10.1719V81.19L10.9396 79.8464L12.0913 79.0787L15.5461 78.8867Z" fill="#FE4B54"/>
<path d="M28.0234 78.8867H43.1865V79.0787L38.7719 79.2706L36.6606 79.6545L35.1251 79.8464L34.3574 79.6545L33.2058 80.0383L31.6703 80.2303L30.1348 79.6545H28.7912V79.2706L28.2154 79.0787L28.4073 79.4625V85.0287H28.2154L28.0234 78.8867Z" fill="#FE4B54"/>
<path d="M28.4073 85.7969H28.5993V95.2018L29.1751 95.3938L34.7413 95.5857L34.5493 92.1308V88.6759L35.509 87.9082L36.6606 88.1001V88.484H37.0445L37.6203 89.6356L37.4284 90.4034H37.0445L36.2768 89.0598L35.1251 88.8679L34.9332 89.2518V91.3631L35.1251 95.5857L34.9332 95.7776H28.5993L28.0234 95.5857L28.2154 92.7066L28.4073 85.7969Z" fill="#FE4B54"/>
<path d="M72.7422 9.40527L74.4696 9.98109L75.8132 10.9408L77.5406 11.5166L78.3084 12.2843V12.6682H78.6923L79.2681 13.6279L81.3794 14.7795L82.1471 16.1231L81.7633 16.507L80.0358 14.7795L77.3487 12.6682L74.2777 10.5569L72.7422 9.59721V9.40527Z" fill="#FE4B54"/>
<path d="M23.0357 71.0166H25.5309L25.9148 71.2085L47.6037 71.4005V71.5924H23.4196L22.8438 71.2085L23.0357 71.0166Z" fill="#FE4B54"/>
<path d="M22.0722 81.5742H23.6077L24.9513 81.9581V82.15H17.0818L16.8899 83.1097L17.2738 84.0694L23.6077 84.2613V84.4533H17.0818L16.506 84.2613V83.8775L15.9302 83.6855L15.7383 82.9178L16.3141 81.9581L16.8899 81.7662L22.0722 81.5742Z" fill="#FE4B54"/>
<path d="M65.4537 5.56641L66.9892 5.75834L68.3327 6.71803L70.0602 7.10191L71.7876 8.0616V8.82935L72.7473 9.21322L72.1715 9.40516L69.1005 7.67772L65.2617 6.14222L65.4537 5.56641Z" fill="#FE4B54"/>
<path d="M40.691 3.26367H41.2668L41.8426 3.45561L41.2668 4.03142L36.8523 5.18305L34.3571 5.9508L33.7812 5.75886L34.549 5.18305L35.3168 4.99111L38.3878 3.83948L40.691 3.26367Z" fill="#FD4A53"/>
<path d="M82.7271 16.8906L83.6868 17.2745L85.2223 18.81L86.3739 20.3455L86.5658 21.6891L85.6062 20.7294L83.3029 18.2342L82.5352 17.0826L82.7271 16.8906Z" fill="#FD4A53"/>
<path d="M45.2983 20.1543L45.4902 20.922V22.4575L44.3386 24.7608L43.3789 24.5689L43.7628 23.4172L45.2983 20.1543Z" fill="#FE4B54"/>
<path d="M69.8659 44.3379H70.8256L70.2498 44.7218L66.7949 45.6815L66.603 46.0653H65.2594L64.6836 45.8734V45.2976L66.603 44.9137L69.8659 44.3379Z" fill="#FE4B54"/>
<path d="M19.3879 10.3643L19.7718 10.5562L18.6202 11.5159L17.0847 12.8594L14.7814 15.1627L12.4782 17.6579L11.9023 18.0418L12.2862 17.274L14.7814 14.3949L17.0847 12.2836L18.8121 10.7481L19.3879 10.3643Z" fill="#FE4B54"/>
<path d="M10.5586 93.8584H10.7505V95.202L11.7102 95.3939L23.6104 95.5858V95.7778H11.1344L10.5586 95.3939V93.8584Z" fill="#FE4B54"/>
<path d="M35.5105 87.9072L36.6621 88.0992V88.483H37.046L37.6218 89.6347L37.4298 90.4024H37.046L36.2782 89.0589L35.1266 88.8669L34.7427 90.0185H34.5508V88.675L35.5105 87.9072Z" fill="#FD4A53"/>
<path d="M80.2305 78.8867H86.9483V79.0787L84.0692 79.4625V79.8464L83.3015 79.4625L80.9982 79.2706L80.4224 79.0787V80.0383H80.2305V78.8867Z" fill="#FE4B54"/>
<path d="M67.372 81.7656H68.9075L69.2913 81.9576V82.3414L69.8672 82.5334H65.6445L65.8365 81.9576L67.372 81.7656Z" fill="#FE4B54"/>
<path d="M19.773 90.9785L20.1569 91.3624L20.3488 92.514L19.965 92.8979L16.3182 93.0898H12.8633V92.8979L19.5811 92.514L19.773 90.9785Z" fill="#FE4B54"/>
<path d="M41.4636 28.4072H41.8475L42.0394 29.7508L41.4636 30.9024H40.8878V30.5185L40.5039 30.3266L41.4636 28.4072Z" fill="#FD4A53"/>
<path d="M82.1523 42.0352H83.112V42.419L81.3846 42.8029L80.8088 42.9948H77.9297V42.8029L82.1523 42.0352Z" fill="#FE4B54"/>
<path d="M30.3295 3.83887L31.2892 4.0308L30.7134 4.60662L28.986 5.37437H28.6021L28.4102 4.79856L30.3295 3.83887Z" fill="#FE4B54"/>
<path d="M94.8191 61.6123H95.011L94.8191 63.9156L93.8594 64.8752L94.2433 62.9559L94.8191 61.6123Z" fill="#FE4B54"/>
<path d="M60.6523 35.8926L61.2282 36.6603L62.3798 39.1555L62.1878 39.7313L61.804 39.3475L60.6523 36.4684V35.8926Z" fill="#FD4A53"/>
<path d="M74.6641 7.10254L75.6238 7.48641L76.5834 8.25416L76.3915 8.63804L75.4318 8.25416L74.6641 7.48641V7.10254Z" fill="#F9444C"/>
<path d="M23.416 7.48633L23.7999 7.67827L22.4563 8.82989L21.3047 9.21377L22.2644 8.25408L23.416 7.48633Z" fill="#FE4B54"/>
</svg>
