<svg width="300" height="98" viewBox="0 0 300 98" fill="none" xmlns="http://www.w3.org/2000/svg">
<path d="M50.7853 33.7256H55.8833L59.2167 34.5099L62.3539 35.8824L64.7068 37.255L67.2558 39.4119L69.0205 41.3726L70.5892 43.9217L71.9617 47.0589L72.746 50.3922L72.9421 52.353V54.5099L72.5499 57.255L71.1774 61.3726L69.6088 64.3138L67.2558 67.0589L65.099 69.0197L62.1578 70.7844L59.2167 71.9608L55.099 72.7452H51.3736L48.0402 72.1569L44.903 70.9805L42.1579 69.4118L40.1971 67.8432L38.2363 65.8824L36.4717 63.3334L35.0991 60.5883L34.1187 57.4511L33.7266 55.2942V51.1765L34.3148 48.0393L35.4913 44.902L36.8638 42.353L38.2363 40.5883L40.9814 37.8432L43.7265 36.0785L46.6677 34.706L48.4324 34.1177L50.7853 33.7256Z" fill="#FB9922"/>
<path d="M120.98 28.4316H131.961L134.314 29.0199L136.667 30.1963L138.431 31.765L139.804 33.9218L140.588 36.2748L140.784 39.2159L140.196 41.765L139.02 44.1179L137.255 46.0787L134.902 47.4512L132.353 48.2355L130.392 48.4316H120.98V28.4316Z" fill="#0F5C9E"/>
<path d="M257.254 28.4316H267.646L270.195 29.216L271.764 30.1963L273.332 31.961L273.921 33.3336L274.117 34.314V36.6669L273.528 38.6277L272.352 40.1963L271.175 41.1767L270.195 41.765L270.587 42.7454L273.724 47.2551L274.313 48.0395V48.4316H270.587L269.803 47.6473L267.646 44.5101L266.47 42.7454L260.979 42.5493V48.4316H257.254V28.4316Z" fill="#0F5C9E"/>
<path d="M159.605 28.4316H162.743L164.9 30.9807L166.468 32.9414L173.527 41.5689L173.723 28.4316H177.449V41.1767L177.252 48.4316H174.311L171.958 45.6865L169.802 42.9414L167.645 40.3924L165.488 37.6473L163.527 35.2944L163.135 35.0983L163.331 36.2748L163.135 48.4316H159.605V28.4316Z" fill="#0F5C9E"/>
<path d="M191.761 28.4316H195.683L198.232 34.1179L201.173 40.5885L204.31 47.6473L204.506 48.4316H200.584L198.82 44.1179L198.624 43.9218L188.624 43.7257L188.232 44.9022L186.663 48.4316H182.938L183.526 46.6669L187.251 38.4316L190.781 30.5885L191.761 28.4316Z" fill="#0F5C9E"/>
<path d="M287.253 28.4316H290.979L291.567 29.412L293.724 34.1179L296.665 40.5885L299.998 48.0395V48.4316H296.273L295.096 46.0787L294.116 43.9218L284.116 43.7257L283.724 44.9022L282.155 48.4316H278.43L278.626 47.4512L281.175 41.961L286.273 30.5885L287.253 28.4316Z" fill="#0F5C9E"/>
<path d="M239.019 28.4316H242.94L250.391 44.9022L251.764 48.0395V48.4316H248.038L247.058 46.4708L246.078 44.1179L245.882 43.9218L235.882 43.7257L235.293 45.4904L234.313 47.6473L233.921 48.4316H230.391L230.195 48.0395L233.921 39.8042L237.45 31.961L239.019 28.4316Z" fill="#0F5C9E"/>
<path d="M210 28.4316H213.725V38.4316L214.706 37.6473L216.078 36.0787L220 32.1571L221.373 30.5885L223.529 28.4316H227.647L226.471 29.8042L225.098 31.3728L223.529 32.9414L222.157 34.5101L219.804 37.0591L220 38.0395L221.569 39.8042L223.137 41.765L225.686 44.9022L227.451 47.0591L228.235 48.2355L228.039 48.4316H224.118L223.137 47.4512L220.98 44.9022L218.627 42.1571L217.059 40.1963L215.686 41.3728L213.922 43.1375L213.725 48.4316H210.196L210 48.2355V28.4316Z" fill="#0F5C9E"/>
<path d="M124.703 31.5684H131.566L133.723 32.3527L135.487 33.7252L136.468 35.2938L137.056 37.6468L136.86 40.1958L136.076 42.1566L134.507 43.9213L132.938 44.7056L131.762 45.0978L130.193 45.2938H124.703V31.5684Z" fill="#FEFFFE"/>
<path d="M147.648 28.4316H151.178V48.4316H147.648V28.4316Z" fill="#0F5C9E"/>
<path d="M260.98 31.5684H267.255L269.216 32.5488L270 33.5291L270.392 34.5095V36.4703L269.608 38.0389L268.627 38.8233L267.255 39.4115H260.98V31.5684Z" fill="#FEFFFE"/>
<path d="M242.156 58.0391H244.117L245.49 59.8038L248.235 63.1371L249.803 65.0979L249.999 59.2155L250.195 58.0391H252.156V69.2155L250.784 69.4116L249.215 68.0391L247.058 65.294L244.509 62.1567L244.313 69.2155H242.156V58.0391Z" fill="#0F5C9E"/>
<path d="M226.473 58.0391H234.904L234.708 59.8038H228.826L228.63 62.5489H234.12V64.5096L228.826 64.7057V67.4508H235.1V69.2155L230.002 69.4116H226.669L226.473 69.2155V58.0391Z" fill="#0F5C9E"/>
<path d="M276.47 58.0391H284.705V59.6077L284.509 59.8038H278.43V62.5489H283.92L284.117 63.1371L283.92 64.5096H278.43V67.4508H284.901V69.2155L276.47 69.4116L276.273 69.2155V58.2351L276.47 58.0391Z" fill="#0F5C9E"/>
<path d="M160.59 58.0391H168.825V59.6077L168.629 59.8038H162.747V62.5489H168.041V64.5096H162.747V67.4508H169.021V69.2155H160.59V58.0391Z" fill="#0F5C9E"/>
<path d="M187.646 57.8428H190.587L192.744 58.6271L192.94 59.2153L192.352 60.3918L191.371 60.1957L190.195 59.8036H188.038L187.058 60.3918L186.862 61.5683L187.646 62.1565L191.175 63.1369L192.744 64.1173L193.332 65.0977V67.0585L192.744 68.0388L191.567 69.0192L190.391 69.4114H187.254L185.293 68.8232L184.312 67.8428L184.901 66.4702L186.077 66.8624L187.646 67.4506H189.803L190.979 66.8624L191.175 66.0781L190.587 65.2937L186.665 64.1173L185.489 63.333L184.705 62.3526L184.509 60.98L185.097 59.4114L186.077 58.431L187.646 57.8428Z" fill="#0F5C9E"/>
<path d="M294.314 57.8428H297.255L299.412 58.6271L299.608 59.2153L299.02 60.3918L296.667 59.8036H294.706L293.726 60.3918L293.529 61.3722L294.314 62.1565L297.843 63.1369L299.412 64.1173L300 65.0977V66.8624L299.412 68.0388L298.235 69.0192L297.059 69.4114H293.922L291.569 68.6271L290.98 68.0388L291.373 66.8624L292.353 66.6663L293.529 67.2545L294.314 67.4506H296.471L297.647 66.8624L297.843 65.4898L296.078 64.9016L292.941 63.9212L291.765 63.1369L291.177 61.7643L291.373 59.9996L292.157 58.8232L293.529 58.0389L294.314 57.8428Z" fill="#0F5C9E"/>
<path d="M263.725 57.8428H266.47L268.235 58.431L269.608 59.6075L268.431 60.98L267.647 60.5879L266.667 59.9996L264.706 59.8036L263.137 60.3918L262.157 61.1761L261.569 62.3526V65.0977L262.353 66.2741L263.333 67.0585L265.49 67.4506L267.059 67.0585L268.039 66.2741L268.823 66.6663L269.608 67.4506L268.627 68.6271L266.667 69.4114H263.725L261.765 68.6271L260.196 67.2545L259.216 65.2937L259.02 63.1369L259.412 61.3722L260.588 59.6075L262.157 58.431L263.725 57.8428Z" fill="#0F5C9E"/>
<path d="M204.116 57.8428H206.665L208.822 58.6271L209.802 59.6075L209.41 60.3918L208.822 60.98L207.841 60.5879L206.861 59.9996L205.096 59.8036L203.332 60.3918L202.351 61.3722L201.763 62.5487V64.7055L202.547 66.2741L203.724 67.0585L204.312 67.2545H206.861L208.626 66.2741L209.802 67.2545L209.41 68.2349L207.645 69.2153L206.861 69.4114H204.116L201.959 68.6271L200.783 67.6467L199.606 65.6859L199.41 64.9016V62.3526L200.194 60.3918L201.175 59.2153L202.743 58.2349L204.116 57.8428Z" fill="#0F5C9E"/>
<path d="M81.7646 49.6074H84.1176L85.4901 50.3917L86.6666 51.7643L87.0587 52.7447V54.1172L86.0783 56.078L85.0979 56.8623L83.5293 57.4506L81.7646 57.2545L79.9999 56.078L79.2156 54.7055L79.0195 52.9408L79.6078 51.3721L80.9803 49.9996L81.7646 49.6074Z" fill="#FB9922"/>
<path d="M63.3318 76.8623H65.0965L66.6651 77.6466L67.8416 79.0192L68.2337 79.9996V81.3721L67.6455 82.9407L66.273 84.3133L65.0965 84.7054H63.5279L62.1553 84.1172L61.1749 83.3329L60.3906 81.9603V79.6074L60.9789 78.4309L62.3514 77.2545L63.3318 76.8623Z" fill="#FB9922"/>
<path d="M73.9232 28.4316L75.6879 28.6277L77.4526 29.8042L78.2369 30.9807L78.433 31.5689V33.3336L77.6486 34.9022L76.4722 35.8826L75.0996 36.4708L73.3349 36.2748L71.5702 35.0983L70.7859 33.9218L70.5898 33.3336V31.5689L71.5702 29.6081L73.1389 28.6277L73.9232 28.4316Z" fill="#FB9922"/>
<path d="M41.3709 21.7646H43.1356L44.7042 22.549L46.0767 24.1176L46.2728 24.7058V26.6666L45.6846 27.8431L43.9199 29.4117L43.3316 29.6078H41.5669L40.1944 29.0195L38.8218 27.647L38.4297 26.8627V24.9019L39.214 23.1372L40.3905 22.1568L41.3709 21.7646Z" fill="#FB9922"/>
<path d="M63.9209 22.1572H66.0777L67.6463 22.9415L68.8228 24.5102L69.215 25.6866L69.0189 27.0592L68.0385 28.6278L66.4699 29.8043L64.7052 30.0004L63.3326 29.6082L61.764 28.2357L61.1758 26.8631V24.9023L62.1562 23.3337L63.9209 22.1572Z" fill="#FB9922"/>
<path d="M24.7068 60.1963H26.2754L28.0401 60.9806L29.2166 62.3531L29.6087 63.5296V64.9022L29.0205 66.2747L28.2362 67.2551L27.2558 67.8433L26.4715 68.0394H24.9029L23.3342 67.4512L22.3539 66.2747L21.7656 64.7061V63.3335L22.3539 61.7649L23.7264 60.5884L24.7068 60.1963Z" fill="#FB9922"/>
<path d="M52.1584 19.8037H54.5113L55.8839 20.3919L56.8642 21.3723L57.4525 22.7449V24.7057L56.8642 25.8821L55.4917 27.0586L54.1192 27.4508H52.7466L51.178 26.8625L50.0015 25.2939L49.6094 23.9214L49.8055 22.1566L50.3937 20.9802L51.5702 19.9998L52.1584 19.8037Z" fill="#FB9922"/>
<path d="M73.3326 70.3926L75.2933 70.5887L76.862 71.569L77.8423 72.9416L78.0384 73.5298V75.4906L76.862 77.2553L75.6855 78.0396L75.0973 78.2357H73.3326L71.5679 77.4514L70.5875 76.2749L70.1953 75.2945L70.3914 72.7455L71.7639 71.1769L73.3326 70.3926Z" fill="#FB9922"/>
<path d="M24.7053 37.6465H27.2543L29.019 38.823L29.8033 40.3916L29.9994 42.1563L29.4111 43.5288L28.6268 44.5092L27.0582 45.2935L25.6856 45.4896L23.9209 44.9014L22.5484 43.3328L22.1562 42.5484V40.3916L22.9406 38.823L23.9209 38.0386L24.7053 37.6465Z" fill="#FB9922"/>
<path d="M31.174 28.2354H33.723L35.2916 29.4118L36.076 30.3922L36.4681 31.5687L36.272 33.3334L35.0956 35.0981L33.723 35.8824H31.3701L29.8015 35.0981L29.0172 34.1177L28.625 33.3334V30.7844L29.4093 29.4118L31.174 28.2354Z" fill="#FB9922"/>
<path d="M40.3935 76.4707H41.9621L43.5308 77.0589L44.7072 78.0393L45.2955 79.0197V81.7648L44.3151 83.3334L43.1386 84.1178L42.3543 84.3138H40.5896L39.021 83.5295L38.0406 82.353L37.6484 81.3727V79.4119L38.2367 78.2354L39.021 77.255L40.3935 76.4707Z" fill="#FB9922"/>
<path d="M31.3755 70L33.3363 70.1961L34.5128 70.9804L35.6892 72.3529L36.0814 73.7255L35.8853 75.2941L34.7088 76.8627L33.7285 77.6471L33.1402 77.8431H30.9834L29.6108 77.0588L28.4344 75.6863L28.2383 75.2941V72.9412L29.0226 71.3725L30.5912 70.1961L31.3755 70Z" fill="#FB9922"/>
<path d="M23.3309 49.0195L25.2917 49.4117L26.8603 50.7842L27.4486 51.9607V53.7254L26.6643 55.4901L25.0956 56.6666L24.5074 56.8627H22.7427L20.7819 55.8823L19.8015 54.3136L19.6055 52.5489L20.1937 50.7842L20.978 49.8038L22.1545 49.2156L23.3309 49.0195Z" fill="#FB9922"/>
<path d="M79.9974 60.9795L81.566 61.1756L83.1346 62.156L84.115 63.3324L84.5072 64.5089V66.0775L83.5268 67.6462L82.5464 68.4305L81.566 68.8226H79.4091L77.8405 67.8422L77.0562 66.8618L76.6641 65.4893V64.1167L77.4484 62.5481L78.6248 61.5677L79.9974 60.9795Z" fill="#FB9922"/>
<path d="M51.9599 79.0195H54.1168L55.6854 79.9999L56.6658 81.1764L57.058 82.3529L56.8619 83.9215L55.6854 85.8823L54.705 86.4705L53.9207 86.6666H51.9599L50.7835 86.0783L49.607 84.7058L49.2148 83.9215V81.7646L49.9992 80.196L51.3717 79.2156L51.9599 79.0195Z" fill="#FB9922"/>
<path d="M79.8037 38.4307H81.7645L83.3331 39.215L84.5095 40.5875L84.9017 41.764L84.7056 43.5287L83.9213 44.7052L82.5488 45.8816L81.9605 46.0777H79.8037L78.6272 45.4895L77.4507 44.1169L77.0586 43.3326V41.1758L77.6468 39.9993L79.2154 38.6267L79.8037 38.4307Z" fill="#FB9922"/>
<path d="M145.492 58.0391H153.727V59.8038H147.649V63.1371H153.139V64.9018L152.943 65.0979H147.649V69.2155H145.492V58.0391Z" fill="#0F5C9E"/>
<path d="M121.176 58.0391H123.333V67.4508H129.215V69.2155L121.764 69.4116L121.176 69.2155V58.0391Z" fill="#0F5C9E"/>
<path d="M289.022 32.3535L289.61 32.7457L291.767 37.8437L292.747 40.1966V40.7849L285.688 40.981L285.492 40.3927L287.257 36.2751L288.826 32.5496L289.022 32.3535Z" fill="#FEFFFE"/>
<path d="M240.783 32.3535L241.568 33.1378L243.724 38.2359L244.509 40.0006V40.7849L237.45 40.981L237.254 40.5888L239.607 34.9025L240.783 32.3535Z" fill="#FEFFFE"/>
<path d="M193.529 32.3535L194.118 32.9418L197.255 40.0006L197.451 40.7849L190.196 40.981L190 40.3927L193.333 32.5496L193.529 32.3535Z" fill="#FEFFFE"/>
<path d="M36.8624 11.7646H38.431L39.8035 12.549L40.5878 13.7254L40.7839 14.7058L39.9996 16.2744L38.8231 17.2548H37.0584L35.882 16.6666L35.0977 15.2941V13.1372L35.882 12.1568L36.8624 11.7646Z" fill="#FB9922"/>
<path d="M52.1561 92.1572H53.9208L55.2933 93.1376L55.8816 94.5102L55.4894 96.2749L54.7051 97.2553L53.7247 97.8435L52.1561 97.6474L50.9796 96.8631L50.1953 95.2945V94.118L50.9796 92.9415L52.1561 92.1572Z" fill="#FB9922"/>
<path d="M216.664 58.0391H218.821V69.2155L218.429 69.4116H216.664V58.0391Z" fill="#0F5C9E"/>
<path d="M23.1366 20.7842H24.7052L25.8816 21.5685L26.666 22.5489L26.862 22.941V24.1175L26.0777 25.294L24.9013 26.2744H23.1366L22.1562 25.6861L21.1758 24.5097V22.745L21.764 21.5685L23.1366 20.7842Z" fill="#FB9922"/>
<path d="M91.3709 34.9014H92.7435L94.3121 35.8818L94.9003 36.8621V38.4308L94.116 39.8033L93.3317 40.3916L91.567 40.5876L90.3905 39.9994L89.4102 38.8229V36.6661L89.8023 35.8818L91.3709 34.9014Z" fill="#FB9922"/>
<path d="M81.7655 80.1963H83.3341L84.5106 80.7845L85.2949 81.5688L85.4909 83.3335L84.9027 84.7061L83.9223 85.4904L82.1576 85.6865L80.589 84.9022L79.8047 83.5296V82.1571L80.589 80.9806L81.1772 80.3924L81.7655 80.1963Z" fill="#FB9922"/>
<path d="M10.5889 50.1963H12.3536L13.9222 51.3728L14.3144 52.1571V53.7257L13.1379 55.2943L12.3536 55.6865H10.5889L9.41245 54.9022L8.82422 53.9218V51.7649L9.80461 50.5884L10.5889 50.1963Z" fill="#FB9922"/>
<path d="M91.1772 66.8633L92.9418 67.0594L94.1183 68.0398L94.7065 69.2162L94.5105 70.3927L93.7262 71.5692L92.5497 72.3535H90.9811L89.6085 71.5692L88.8242 70.1966L89.0203 68.628L90.1968 67.2554L91.1772 66.8633Z" fill="#FB9922"/>
<path d="M67.8428 89.2158H69.6075L70.5879 89.8041L71.5683 90.9805L71.7644 92.3531L70.9801 93.7256L69.8036 94.706H68.0389L66.8624 93.9217L66.0781 92.7452V90.9805L66.8624 89.8041L67.8428 89.2158Z" fill="#FB9922"/>
<path d="M22.5499 79.8037H24.3146L25.2949 80.3919L26.2753 81.5684L26.4714 82.941L25.6871 84.3135L24.7067 85.0978L23.1381 85.2939L21.7655 84.7057L20.9812 83.7253L20.7852 83.3331V81.3723L21.7655 80.1959L22.5499 79.8037Z" fill="#FB9922"/>
<path d="M13.7272 65.8828L15.4919 66.0789L16.8644 67.2554L17.2566 68.2358V69.4122L16.4723 70.5887L15.4919 71.373L13.9232 71.5691L12.7468 70.9808L11.7664 69.8044L11.5703 68.2358L12.3546 66.6671L13.7272 65.8828Z" fill="#FB9922"/>
<path d="M82.1561 21.1768H83.7247L84.9012 21.765L85.6855 22.7454L85.8816 24.5101L85.2933 25.6866L84.509 26.4709L83.9208 26.6669H82.3522L81.1757 26.0787L80.3914 24.9022L80.1953 23.7258L80.7835 22.1571L81.7639 21.3728L82.1561 21.1768Z" fill="#FB9922"/>
<path d="M68.6272 12.1572H70.3919L71.5684 12.7455L72.5488 13.9219L72.7448 14.9023L72.1566 16.4709L71.1762 17.2553L70.3919 17.6474H69.0194L67.6468 16.8631L67.0586 15.6866V13.9219L67.8429 12.7455L68.6272 12.1572Z" fill="#FB9922"/>
<path d="M135.684 58.0391H137.84V69.2155H135.684V58.0391Z" fill="#0F5C9E"/>
<path d="M94.1202 50.7852H95.8849L97.2574 51.5695L98.2378 53.3342L97.8456 54.5106L96.6692 55.8832L95.6888 56.2753L94.1202 56.0793L92.9437 55.295L92.3555 54.1185V52.7459L92.9437 51.7655L94.1202 50.7852Z" fill="#FB9922"/>
<path d="M53.1342 8.62695L54.7028 9.01911L56.0753 10.1956L56.4675 11.176L56.2714 12.5485L55.291 13.725L54.1146 14.3132L52.3499 14.1171L51.3695 13.3328L50.7812 11.9603L50.9773 10.1956L51.9577 9.21519L53.1342 8.62695Z" fill="#FB9922"/>
<path d="M36.0787 88.8232H37.6474L39.216 90.1958L39.6081 90.784V92.3526L38.8238 93.5291L37.6474 94.3134L36.863 94.5095L35.2944 93.9213L34.314 92.9409L33.9219 91.1762L34.5101 89.8036L36.0787 88.8232Z" fill="#FB9922"/>
<path d="M14.5092 33.9209L16.2739 34.3131L17.4503 35.6856L17.6464 37.2542L17.0582 38.4307L15.8817 39.4111L14.3131 39.6072L13.1366 39.0189L12.3523 38.0385L12.1562 37.6464V35.8817L12.9406 34.7052L13.7249 34.117L14.5092 33.9209Z" fill="#FB9922"/>
<path d="M15.8827 87.8428H17.2553L18.2357 88.431L18.4317 89.2153L17.8435 90.5879L17.4514 90.98L16.0788 91.1761L15.0984 90.5879L14.9023 89.0192L15.4906 88.0389L15.8827 87.8428Z" fill="#FB9922"/>
<path d="M104.705 51.7646L106.078 52.1568L106.666 52.9411L106.47 54.3137L105.294 55.2941L104.313 55.098L103.333 54.3137L103.137 53.1372L103.921 52.1568L104.705 51.7646Z" fill="#FB9922"/>
<path d="M16.2741 15.0977H17.6467L18.6271 16.078V17.2545L17.6467 18.2349H16.078L15.2937 17.2545L15.0977 16.078L16.2741 15.0977Z" fill="#FB9922"/>
<path d="M88.8241 88.2354H90.1967L91.1771 89.0197L91.3731 90.1961L90.981 90.9804L90.3928 91.3726H89.0202L88.0398 90.5883L87.8438 89.2157L88.8241 88.2354Z" fill="#FB9922"/>
<path d="M52.9421 0L54.3146 0.196078L55.295 1.37255L55.0989 2.35294L54.1186 3.33333L52.746 3.13725L51.7656 2.15686L51.9617 0.980391L52.9421 0Z" fill="#FB9922"/>
<path d="M89.0179 15.4902H90.5865L91.5669 16.2745L91.763 17.2549L90.9787 18.4314L90.5865 18.6275H89.4101L88.4297 17.6471V16.0785L89.0179 15.4902Z" fill="#FB9922"/>
<path d="M0.980388 51.3721H2.35293L3.33332 52.3525L3.13724 53.725L2.15685 54.5093H0.980388L0.196078 53.725L0 52.3525L0.980388 51.3721Z" fill="#FB9922"/>
</svg>
