<svg width="300" height="84" viewBox="0 0 300 84" fill="none" xmlns="http://www.w3.org/2000/svg">
<path d="M106.641 3.95508H192.627L195.264 4.24805L198.34 5.12695L200.977 6.29883L203.467 7.91016L204.932 9.08203L207.129 11.2793L208.887 13.7695L210.352 16.5527L211.23 19.043L211.816 21.3867L212.109 23.4375V27.5391L211.377 31.0547L210.498 33.6914L208.74 37.0605L206.982 39.4043L204.492 41.8945L202.441 43.3594L199.805 44.8242L197.021 45.8496L194.385 46.4355L192.627 46.582H106.934L104.59 46.2891L101.66 45.4102L99.3164 44.3848L96.6797 42.7734L94.7754 41.1621L92.8711 39.2578L91.2598 37.0605L89.502 33.6914L88.623 31.0547L87.8906 27.3926V23.1445L88.4766 19.9219L89.209 17.5781L90.8203 14.209L92.5781 11.7188L94.3359 9.81445L95.3613 8.78906L97.5586 7.17773L99.6094 6.00586L101.66 5.12695L103.857 4.39453L106.641 3.95508Z" fill="#FE110E"/>
<path d="M133.299 14.3555H135.057L136.961 16.1133L141.795 20.6543L142.82 21.6797L143.992 22.7051L146.189 24.7559L147.508 26.5137L148.094 28.2715L148.24 30.3223L147.801 32.2266L147.068 33.6914L145.75 35.1562L143.992 36.0352L142.967 36.3281H141.502L139.891 35.1562L136.668 32.5195L134.617 30.7617L132.42 28.5645L131.395 27.6855L130.076 26.0742L129.051 24.4629L128.465 22.998L128.172 21.6797V20.3613L128.611 18.457L129.637 16.5527L130.662 15.5273L132.713 14.502L133.299 14.3555Z" fill="#FEFEFE"/>
<path d="M189.842 14.209H200.682V30.9082L200.096 32.666L199.217 34.1309L198.191 35.1562L197.02 35.8887L195.848 36.3281L194.969 36.4746L190.135 36.6211L189.695 36.1816V14.3555L189.842 14.209Z" fill="#FEFEFE"/>
<path d="M112.5 13.916H113.232L113.672 14.502L115.869 20.3613L118.066 26.0742L120.264 31.9336L121.875 36.1816V36.3281H111.035L110.01 34.2773L107.959 29.0039L106.348 25.0488L105.176 22.1191V20.8008L106.348 17.5781L107.373 14.3555L107.666 14.0625L112.5 13.916Z" fill="#FEFEFE"/>
<path d="M88.623 65.7715H91.6992L94.043 66.5039L95.6543 67.5293L97.1191 69.1406L97.8516 70.752L98.291 72.0703V77.1973L97.998 77.6367L97.7051 78.8086L96.8262 80.4199L96.0938 81.2988L94.7754 82.1777L94.043 82.6172L93.1641 82.9102L93.0176 83.0566H87.7441L85.9863 82.1777L84.2285 80.7129L83.3496 79.248L82.7637 78.2227L82.4707 76.7578L82.3242 76.3184V72.8027L82.9102 70.752L83.4961 69.4336L84.082 68.5547L84.8145 67.8223L85.6934 67.0898L87.4512 66.2109L88.623 65.7715Z" fill="#010101"/>
<path d="M37.791 65.7715H40.8672L42.625 66.3574L44.5293 67.3828L45.8477 68.7012L46.873 70.752L47.3125 72.5098L47.459 74.8535L47.3125 76.6113L46.873 78.3691L46.1406 79.834L45.1152 81.1523L43.5039 82.3242L42.0391 83.0566H36.6191L36.4727 82.7637L35.4473 82.4707L33.543 81.1523L32.5176 79.6875L31.9316 78.6621L31.4922 77.3438V71.9238L32.3711 69.5801L33.25 68.4082L34.2754 67.3828L35.7402 66.5039L37.791 65.7715Z" fill="#010101"/>
<path d="M281.104 66.2109H289.6L291.504 66.7969L292.969 67.6758L294.141 69.1406L294.873 70.8984L295.166 71.9238L295.312 73.6816V75.293L294.873 77.6367L294.287 79.1016L293.848 79.9805L292.529 81.4453L291.65 82.1777L290.625 82.6172L289.16 82.7637H281.396L280.957 82.4707V66.3574L281.104 66.2109Z" fill="#010101"/>
<path d="M161.717 13.916L162.156 14.0625V36.4746H159.52L157.762 36.0352L156.004 35.1562L154.539 33.9844L153.221 32.5195L152.049 30.3223L151.316 28.125L151.023 26.5137V24.1699L151.609 21.2402L152.635 18.8965L154.1 16.9922L155.418 15.8203L156.883 14.9414L158.934 14.209L161.717 13.916Z" fill="#FEFEFE"/>
<path d="M166.406 13.916L168.457 14.0625L170.654 14.6484L172.852 15.8203L174.316 17.1387L175.342 18.3105L176.514 20.5078L176.953 21.8262L177.246 23.584V27.0996L176.66 29.5898L175.488 31.9336L174.17 33.6914H173.877L173.584 34.2773L171.973 35.3027L169.775 36.1816L168.457 36.4746H166.26L166.113 31.9336V14.209L166.406 13.916Z" fill="#FEFEFE"/>
<path d="M166.406 66.2109H175.049L176.514 66.6504L177.686 67.3828L178.418 68.1152L178.857 68.9941L179.15 70.166L179.297 70.459V72.6562L179.004 73.3887L178.711 74.4141L177.686 75.7324L176.514 76.6113L174.756 77.0508H170.215V82.7637H166.699L166.406 82.6172V66.2109Z" fill="#010101"/>
<path d="M202.586 66.2109H211.082L212.547 66.6504L213.865 67.5293L214.744 68.7012L215.477 71.0449V72.0703L214.891 74.1211L214.012 75.4395L212.84 76.4648L210.936 77.0508L206.541 77.1973L206.395 82.6172L206.248 82.7637H202.586V66.2109Z" fill="#010101"/>
<path d="M21.2383 65.7715H24.4609L26.3652 66.3574L27.9766 67.3828L28.8555 68.4082L29.5879 70.459L29.7344 71.1914L28.709 71.4844H25.9258L25.1934 70.0195L24.4609 69.4336H21.2383L20.3594 70.459L20.5059 71.4844L21.3848 72.0703L24.7539 72.8027L27.2441 73.5352L28.416 74.1211L29.5879 75.293L30.1738 76.7578V78.9551L29.5879 80.4199L28.2695 81.8848L27.0977 82.6172L26.3652 82.9102L26.2188 83.0566H20.3594L20.0664 82.7637L19.041 82.4707L17.5762 81.1523L16.8438 80.4199L16.4043 79.1016L16.2578 77.6367L16.4043 77.4902H20.2129L20.3594 78.5156L20.9453 79.248L22.2637 79.834H24.4609L25.7793 79.248L26.0723 78.9551V77.4902L25.3398 77.0508L24.7539 76.7578L23.582 76.4648L23.2891 76.3184L21.3848 76.0254L19.9199 75.5859L18.1621 74.707L17.2832 73.9746L16.8438 73.0957L16.6973 71.9238V70.459L16.8438 68.9941L17.5762 67.8223L18.8945 66.6504L19.7734 66.2109L21.2383 65.7715Z" fill="#010101"/>
<path d="M72.2148 65.7715H75.4375L77.4883 66.3574L78.8066 67.2363L79.6855 68.2617L80.5645 70.0195V71.3379L80.125 71.4844H76.7559L76.3164 70.0195L75.4375 69.4336H72.3613L71.6289 69.873L71.3359 70.459L71.4824 71.4844L72.2148 71.9238L75.7305 72.8027L77.3418 73.2422L79.0996 73.9746L80.2715 75L81.0039 76.0254V79.541L80.125 81.1523L78.9531 82.1777L78.2207 82.6172L77.1953 83.0566H71.3359L71.043 82.7637L70.1641 82.4707L68.9922 81.7383L67.9668 80.4199L67.2344 78.5156V77.6367L67.3809 77.4902H71.1895L71.4824 78.8086L72.3613 79.541L73.0938 79.834H75.4375L76.7559 79.248L77.0488 78.9551V77.7832L76.7559 77.1973L75.7305 76.7578L74.4121 76.4648L74.1191 76.3184L72.8008 76.1719L72.2148 75.8789L70.8965 75.5859L69.5781 75L68.2598 73.8281L67.6738 72.6562V69.4336L68.5527 67.9688L69.2852 67.2363L70.6035 66.3574L72.2148 65.7715Z" fill="#010101"/>
<path d="M185.598 65.7715H188.674L190.432 66.3574L191.896 67.2363L193.068 68.5547L193.508 69.4336V71.3379L193.215 71.4844H191.311L189.992 71.3379L189.26 69.873L188.674 69.4336H185.451L184.572 70.3125V71.1914L185.451 72.0703L187.502 72.5098L190.432 73.2422L192.482 73.9746L193.508 75L194.387 77.0508V78.3691L193.801 80.127L192.922 81.4453L191.604 82.4707L190.432 82.7637V83.0566H184.572L184.279 82.7637L183.254 82.6172L181.496 81.0059L180.617 79.3945V77.4902H184.133L184.426 77.7832L184.865 79.1016L186.33 79.834H188.527L189.846 79.248L190.432 78.3691L190.285 77.4902L189.553 77.0508L188.967 76.7578L187.648 76.4648L187.502 76.3184L185.891 76.1719L185.305 75.8789L183.986 75.5859L182.375 74.707L181.643 74.1211L181.057 73.0957L180.617 71.6309V70.6055L181.057 68.9941L181.789 67.8223L183.107 66.6504L183.986 66.2109L185.598 65.7715Z" fill="#010101"/>
<path d="M5.71289 66.2109H9.81445L10.5469 67.9688L11.8652 71.7773L12.4512 73.2422L13.0371 75.1465L14.0625 77.9297L14.502 79.248L15.5273 82.0312V82.7637H11.5723L11.1328 82.3242L10.4004 79.834L10.1074 79.6875H4.98047L4.39453 81.1523L3.95508 82.4707L3.80859 82.7637H0V81.2988H0.292969L0.585938 79.9805L1.02539 78.8086L2.05078 76.1719L2.63672 74.1211L3.22266 72.6562L4.39453 69.2871L4.98047 67.8223L5.41992 66.6504L5.71289 66.2109Z" fill="#010101"/>
<path d="M154.834 66.2109H158.936L159.521 67.3828L160.84 71.1914L161.865 73.9746L162.451 75.4395L163.037 77.4902L164.062 80.127L164.648 82.0312V82.7637H160.693L160.4 82.6172L159.814 80.127V79.541L154.248 79.6875L153.662 81.0059L153.223 82.3242L152.93 82.7637H149.268L149.121 82.6172L149.268 81.4453L150.146 79.1016L150.293 78.9551L150.439 77.9297L151.025 76.6113L152.051 73.8281L152.637 71.9238L153.223 70.6055L154.395 67.0898L154.834 66.2109Z" fill="#010101"/>
<path d="M117.039 49.6582H178.709L211.668 49.8047V50.8301H88.3281V49.8047L117.039 49.6582Z" fill="#FE110E"/>
<path d="M139.453 65.7715H142.529L144.287 66.3574L145.459 66.9434L146.924 68.2617L147.656 69.2871L148.242 71.0449V71.7773L147.656 72.0703H144.873L143.994 71.3379L143.408 70.166L142.236 69.4336H140.039L138.867 70.3125L138.135 71.1914L137.695 72.2168V76.9043L138.281 78.3691L139.307 79.248L141.064 79.6875L142.529 79.3945L143.701 78.5156L144.141 77.3438L144.727 76.7578H147.656L148.242 77.0508L148.096 77.9297L147.656 79.248L146.777 80.7129L145.898 81.7383L144.58 82.6172L143.555 83.0566H138.281V82.7637L137.109 82.4707L135.791 81.4453L134.473 79.834L134.033 78.9551L133.74 77.9297L133.594 77.7832L133.447 75.7324L133.301 75.5859V73.6816L133.74 71.1914L134.473 69.4336L135.498 67.9688L136.523 67.0898L138.135 66.2109L139.453 65.7715Z" fill="#010101"/>
<path d="M88.3281 0H211.668V0.878906L196.727 1.02539H104.881L88.3281 0.878906V0Z" fill="#FE110E"/>
<path d="M100.49 66.2109H112.502V69.1406L112.209 69.7266H104.299L104.445 72.6562H110.744L111.623 72.8027V75.5859L111.037 76.1719H104.299V82.7637H100.783L100.344 82.3242V72.6562L100.49 66.2109Z" fill="#010101"/>
<path d="M216.211 66.2109H220.166L220.605 67.2363L221.777 71.6309L222.803 75L223.535 77.4902L224.414 74.2676L225.146 71.7773L225.439 70.3125L225.879 68.9941L226.611 66.6504L226.758 66.2109H230.566V67.3828L228.369 73.8281L226.318 79.834L225.439 82.4707L225.146 82.7637L221.924 82.9102L221.191 82.0312L220.605 80.2734L220.02 78.2227L219.434 76.9043L218.555 73.9746L217.529 71.0449L216.357 67.6758L216.211 66.2109Z" fill="#010101"/>
<path d="M266.162 66.2109H279.639L279.785 66.3574V67.9688L279.639 69.5801L279.346 69.7266H274.951V82.6172L274.805 82.7637H270.996L270.85 82.6172V69.7266H266.309L266.016 69.4336V66.3574L266.162 66.2109Z" fill="#010101"/>
<path d="M112.938 66.2109H126.268V69.7266H121.58V82.6172L121.434 82.7637H117.918L117.625 82.6172V69.7266H112.938V66.2109Z" fill="#010101"/>
<path d="M231.154 66.2109H244.338V69.7266H239.65V82.6172L239.504 82.7637H235.988L235.695 82.3242V69.873L231.008 69.7266V66.3574L231.154 66.2109Z" fill="#010101"/>
<path d="M256.35 66.2109H259.572L259.719 70.166V79.248H267.189L267.629 79.3945V82.6172L267.482 82.7637H255.91L255.617 82.6172V66.3574L256.35 66.2109Z" fill="#010101"/>
<path d="M56.6914 66.2109H59.0352V79.9805L58.3027 81.4453L57.1309 82.6172L56.3984 83.0566H51.2715L51.125 82.7637L49.9531 82.3242L48.7812 80.8594L48.3418 79.3945L48.1953 77.9297V76.4648L48.3418 76.1719H51.7109L52.1504 76.7578L52.2969 79.1016L52.8828 79.834H54.4941L54.9336 79.541L55.0801 78.6621L55.2266 66.3574L56.6914 66.2109Z" fill="#010101"/>
<path d="M38.0879 69.2871H40.5781L41.8965 70.0195L42.6289 70.8984L43.0684 71.7773L43.5078 73.0957V75.8789L43.2148 76.6113L42.9219 77.7832L41.8965 78.9551L41.3105 79.541L39.9922 79.834L39.8457 79.9805H38.6738L37.209 79.248L36.0371 78.0762L35.4512 76.7578L35.3047 76.4648V72.6562L36.3301 70.6055L37.209 69.7266L38.0879 69.2871Z" fill="#FEFEFE"/>
<path d="M89.209 69.2871H91.6992L93.0176 70.166L93.8965 71.3379L94.3359 72.3633V76.7578L93.3105 78.8086L91.6992 79.6875L90.9668 79.9805H89.9414L88.3301 79.3945L87.1582 78.2227L86.5723 77.0508L86.1328 75.293V73.9746L86.7188 71.6309L87.5977 70.166L88.623 69.5801L89.209 69.2871Z" fill="#FEFEFE"/>
<path d="M285.061 69.5801L289.602 69.7266L290.627 70.8984L290.92 71.4844L291.213 72.8027L291.359 73.0957V75.7324L291.066 76.1719L290.773 77.6367L290.188 78.5156L289.602 79.1016L288.723 79.541L285.061 79.6875L284.914 79.541V69.7266L285.061 69.5801Z" fill="#FEFEFE"/>
<path d="M103.271 25.6348H103.564L105.322 30.9082L106.934 36.0352V36.3281H99.3164L99.7559 35.0098L102.539 27.5391L103.271 25.6348Z" fill="#FEFEFE"/>
<path d="M180.469 29.1504H186.621V36.6211L185.156 36.4746L183.398 35.7422L181.934 34.5703L180.762 32.959L180.176 31.4941V29.8828L180.469 29.1504Z" fill="#FEFEFE"/>
<path d="M138.867 14.209H147.803V22.4121L147.217 22.1191L145.752 20.8008L144.727 19.7754L143.555 18.75L142.09 17.2852L140.918 16.2598L138.867 14.3555V14.209Z" fill="#FEFEFE"/>
<path d="M128.027 28.2715L128.613 28.5645L133.447 33.1055L135.352 34.8633L136.67 36.1816V36.3281H128.027V28.2715Z" fill="#FEFEFE"/>
<path d="M170.215 69.7266H174.463L175.195 70.6055L175.488 71.3379L175.342 72.3633L174.756 73.2422L174.463 73.5352L173.73 73.6816H170.215V69.7266Z" fill="#FEFEFE"/>
<path d="M206.691 69.5801L210.646 69.7266L211.232 70.459L211.525 71.7773L211.086 73.0957L210.646 73.5352L209.621 73.6816H206.545L206.398 73.5352V69.7266L206.691 69.5801Z" fill="#FEFEFE"/>
<path d="M244.045 79.1016H247.707L247.854 79.248V82.6172L247.707 82.7637H244.045L243.898 82.3242V79.248L244.045 79.1016Z" fill="#010101"/>
<path d="M296.338 79.1016H300V82.7637H296.484L296.191 82.6172V79.248L296.338 79.1016Z" fill="#010101"/>
<path d="M7.47266 71.4844L8.05859 72.0703L8.64453 73.8281L9.08398 75.293V76.1719H6.00781L6.1543 75.293L6.74023 73.8281L7.32617 71.7773L7.47266 71.4844Z" fill="#FEFEFE"/>
<path d="M156.738 71.4844L157.178 71.7773L157.91 74.2676L158.496 75.7324V76.1719H155.273L155.42 75.5859L155.859 74.2676L156.152 72.9492L156.592 71.6309L156.738 71.4844Z" fill="#FEFEFE"/>
</svg>
