<svg width="231" height="100" viewBox="0 0 231 100" fill="none" xmlns="http://www.w3.org/2000/svg">
<path d="M186.804 19.0068L207.385 19.1279L211.864 19.37L213.68 19.6122L215.738 20.0964L218.16 21.3071L219.733 22.5177L220.702 23.2441L221.913 24.818L222.881 26.755L223.365 28.0867L223.729 29.6606V32.8083L223.244 34.8664L222.155 37.1666L221.065 38.3773L220.46 39.1037L218.765 40.4354L217.675 41.0407L214.407 42.1303V42.8567L214.77 43.462L215.133 43.8252L216.344 45.6412L217.191 46.9729L218.16 48.1836L219.37 49.9996L220.581 51.5734L221.792 53.2683L222.518 54.3579L223.729 56.0528L224.818 57.3846L225.666 58.7163L227.118 60.2901L228.45 61.2587L229.782 61.864L230.75 62.2272L230.629 63.0746L230.024 63.1957H217.07L216.586 62.9536L215.738 61.7429L214.528 60.1691L213.68 59.0795L212.954 57.8688L212.106 56.6582L211.138 55.4475L209.927 53.6315L208.232 51.3313L207.143 49.8785L206.416 48.7889L205.206 47.094L204.358 46.0044L203.148 44.0674L202.421 43.2199L201.574 42.9778H200.363L199.637 43.0988L199.516 43.341V57.6267L199.758 59.2005L200.363 60.6533L200.484 61.0165L200.968 61.2587L202.663 61.7429L204.358 61.985L205.569 62.1061L205.448 63.0746L204.721 63.1957H183.414L182.687 62.9536L182.566 62.2272L182.809 62.1061L185.714 61.7429L187.167 61.2587L187.651 61.1376L187.893 60.5323L188.62 58.5952L188.741 57.6267V26.3918L188.62 23.4863L188.256 22.3967L187.651 21.186L186.198 20.4596L184.746 20.2175L183.051 20.0964L182.687 19.9754V19.249L182.809 19.1279L186.804 19.0068Z" fill="#E9373F"/>
<path d="M30.267 18.0391H30.8724L31.1145 18.5233L31.2355 19.2497L31.3566 21.7921L31.4777 26.2715V32.3248L31.3566 32.5669L30.3881 32.688L30.0249 32.3248L29.7828 30.7509L28.9353 28.4507L27.7247 26.3926L26.514 24.8187L25.0612 23.3659L22.1556 21.4289L20.3397 20.8236L19.3711 20.4604L18.5237 20.3393H16.3445L14.8917 20.5814L13.9232 20.9446L12.8336 21.55L11.623 22.5185L10.6544 23.8502L10.4123 25.0609V27.7243L10.8966 28.8139L11.8651 30.5088L13.0757 31.3563L14.0443 32.0826L16.4656 33.5354L17.4341 34.1408L18.6447 34.625L23.0031 36.8042L24.3348 37.6517L25.7876 38.257L27.1193 39.3466L28.33 40.194L29.7828 41.1625L32.4462 44.0681L33.0515 45.2788L33.899 47.7001L34.2622 50.0003V51.4531L33.899 53.6323L32.9305 56.5379L32.2041 57.7485L30.8724 59.2013L30.0249 59.9277L29.4196 60.6541L28.0878 61.6226L24.8191 63.1964L23.3663 63.5596L22.5188 63.9228L20.3397 64.165H17.0709L15.2549 63.9228L13.56 63.3175L11.9862 62.8333L10.6544 62.349L9.44378 61.9858L8.11206 61.6226H6.78034L5.44862 62.349L4.60117 63.4386L4.1169 64.0439L3.26945 64.165L3.02732 64.0439L2.90625 63.1964V48.9107L3.02732 47.8211L3.26945 47.579H3.99584L4.35903 48.0633L5.20649 50.9688L5.69075 52.5427L6.90141 54.8429L7.74887 56.0536L8.59632 57.1432L9.08058 57.6274V57.8696L9.56485 58.1117L10.6544 58.9592L12.3493 60.1698L14.6496 61.2594L16.9498 61.8647L17.6762 61.9858H20.0975L22.6399 61.2594L23.6084 60.6541L24.698 59.8066L25.6665 58.8381L26.2719 57.7485L26.514 57.1432L26.6351 56.1747V54.4797L26.3929 53.027L25.3033 51.332L24.3348 50.2425L23.1242 49.395L22.5188 48.9107L20.3397 47.4579L19.7343 47.0948L18.5237 46.7316L17.192 46.0052L16.5866 45.642L14.6496 44.6734L13.1968 43.826L12.1072 43.3417L10.1702 42.01L8.23313 40.7994L6.65928 39.2255L5.56969 37.8938L5.08543 37.2885L3.99584 35.3514L3.26945 33.4144L3.02732 31.8405V29.5403L3.39051 27.4822L4.23797 25.4241L4.96436 24.2134L5.81182 22.8817L7.2646 21.55L8.23313 20.8236L8.71739 20.2182L10.1702 19.4918L11.744 19.0076L12.7125 18.5233L13.9232 18.2812L15.1339 18.1601H18.2816L20.3397 18.4023L23.6084 19.4918L26.8772 20.8236H28.8142L29.4196 20.2182L29.9038 19.2497L30.146 18.1601L30.267 18.0391Z" fill="#E8373F"/>
<path d="M126.269 37.2881H138.013L138.255 37.4092L138.134 37.8934L136.56 38.2566L135.712 38.983L135.591 39.5883L135.47 42.3728V49.6368L136.197 49.1525L137.65 47.9418L138.618 47.0944L140.071 46.1259L141.16 45.1573L142.129 44.3099L143.461 43.3414L144.429 42.615L145.882 41.1622L146.729 40.4358L146.85 39.2251L146.487 38.6198L146.124 38.2566L144.55 38.0145L144.308 37.8934L144.429 37.4092L153.509 37.2881L154.114 37.5302L153.872 38.0145L152.662 38.2566L151.209 39.1041L149.635 40.4358L148.303 41.4043L146.245 43.0992L144.913 44.0677L143.34 45.3995L141.887 46.4891L141.281 47.0944L141.403 47.5786L142.008 48.5472L142.734 49.5157V49.7578L143.219 50L144.55 51.5738L145.398 52.9055L146.245 53.753L147.335 55.0847L149.03 57.2639L149.998 58.4745L151.451 60.0484L152.177 60.8958L153.872 61.9854L154.72 62.2276H156.415L157.141 61.8644L157.988 60.8958L159.199 58.8377L160.531 55.69L161.863 52.7845L163.073 50L163.8 48.184L165.495 44.552L166.463 42.2518L166.947 40.92L167.432 39.9515L168.037 38.3777L168.4 37.8934L168.763 38.0145L169.49 39.7094L170.216 41.5254L172.153 45.7627L173.122 48.305L175.785 54.3583L176.511 56.2954L177.722 58.9588L179.417 61.8644L179.901 62.1065L180.749 62.2276L180.991 62.4697V63.075L180.507 63.1961H169.732L169.611 63.075V62.3486L169.732 62.2276L171.427 62.1065L172.032 61.8644V60.4116L171.79 59.322L170.942 57.6271L170.458 56.5375V56.2954H161.863L160.652 59.0799L160.41 59.8062V61.0169L160.894 61.7433L161.742 62.1065L163.194 62.3486L163.315 63.075L162.71 63.1961H142.734L142.008 62.9539L142.25 62.3486L143.703 61.8644L144.066 61.5012L143.945 60.7748L142.855 59.0799L142.129 58.2324L141.039 56.7796L139.587 55.0847L138.255 53.3898L136.923 51.8159L136.318 51.2106L135.712 51.3317L135.591 51.4527L135.47 52.9055V59.8062L135.712 61.3801L136.076 61.8644L138.255 62.3486L138.376 63.075L138.013 63.1961L134.623 63.3171H131.717L125.785 63.1961L125.543 63.075L125.664 62.3486L128.206 61.9854L128.812 61.3801L128.933 60.7748V39.8305L128.812 38.8619L128.206 38.6198L127.722 38.2566L127.359 38.1355L125.906 38.0145L125.543 37.8934V37.4092L126.269 37.2881Z" fill="#E9373F"/>
<path d="M126.152 0H129.178L129.299 0.121065V1.69492L128.936 3.75303L127.847 6.2954L127.12 7.50605L126.273 8.71671L125.546 9.8063L124.094 11.0169L122.278 12.1065L120.704 12.5908H119.251L117.314 11.9855L115.982 11.138L115.256 10.6538L114.772 10.5327L114.045 11.3801L113.077 12.2276L112.471 12.954L111.382 13.6804L110.413 15.0121L109.203 16.586L108.113 18.2809L107.144 20.2179L106.66 21.3075V21.9128L107.265 22.276L108.839 22.6392L110.655 22.7603H113.077L113.561 22.276L114.166 21.3075L115.014 20.46L116.103 19.7337L116.83 19.3705L117.919 19.2494H120.098L121.43 19.4915L123.246 20.2179L123.851 20.7022L125.304 21.5496L126.636 22.7603L127.604 23.6077L129.905 25.908L130.752 27.2397V27.6029L129.663 28.2082L127.12 29.0557L124.578 29.661L123.73 30.0242L122.035 30.1453H119.372L117.798 30.0242L115.619 29.0557L114.287 28.0872L113.682 27.1186L112.834 24.9395L112.713 23.8499L110.413 23.7288L109.203 23.3656L107.992 23.2446L107.265 22.8814H106.176L106.055 23.9709L105.692 24.8184V29.4189L106.055 30.5085L106.297 31.7191L107.144 34.2615L107.75 35.5932L108.234 36.8039L108.96 38.0145L110.413 40.1937V40.5569H110.171L109.445 39.5884L107.871 37.4092L106.781 34.9879L106.055 33.414L105.449 31.5981L105.086 30.2663L104.844 27.6029L104.965 25.4237L105.086 23.7288L105.449 23.1235V22.8814L103.028 22.7603L101.091 22.276L100.849 22.0339L98.5488 22.155L97.3381 22.5182H96.4907L94.7957 22.0339L93.343 21.3075L92.1323 20.2179L91.1638 18.6441L90.1953 16.1017L89.9531 14.891V12.7119L90.0742 10.4116L90.3163 9.68523L90.5585 8.35351L91.0427 7.62712H91.8902L93.464 8.23244L94.7957 8.71671L96.0064 9.32203L97.9434 10.1695L99.8805 11.6223L101.333 12.954L102.302 14.2857L103.028 15.7385L103.27 16.9492L102.907 18.1598L102.423 19.1283L101.454 20.2179L100.97 21.0654L100.849 21.5496L102.181 21.9128H105.813L106.176 20.5811L107.871 17.1913L108.355 16.4649L109.445 15.1332L110.413 14.0436L111.14 13.1961L111.866 12.7119L113.682 10.8959H113.924V10.6538L114.408 10.1695L114.287 9.20097L113.924 8.35351L113.803 7.74818V6.05327L114.166 4.96368L114.529 4.35835L116.103 2.90557L117.072 2.05811L118.888 1.21065L122.035 0.484261L126.152 0Z" fill="#00A560"/>
<path d="M39.1052 37.2881H51.2118L51.4539 37.7723L51.2118 38.0145L49.1536 38.1355L48.5483 38.4987L48.1851 39.1041L48.0641 39.8305L47.943 42.0096V48.5472L48.1851 48.9104H56.9018V39.7094L56.5386 38.983L55.5701 38.1355L53.7541 38.0145L53.512 37.8934V37.4092H66.8292V37.8934L64.4079 38.2566L63.8025 38.8619L63.5604 39.5883L63.4394 45.8837V60.5326L63.8025 61.6222L64.4079 62.1065L66.5871 62.3486L66.8292 63.075L66.5871 63.1961H53.8752L53.512 63.075V62.3486L55.6912 62.1065L56.4176 61.7433L56.7808 61.259L57.0229 59.443V50.7263H48.1851L47.943 50.8474V59.5641L48.3062 61.5012L48.5483 61.9854L49.5168 62.2276L51.2118 62.3486L51.3328 63.075L50.2432 63.1961H38.742L38.1367 62.9539L38.2578 62.3486L40.6791 61.9854L41.0423 61.6222L41.4055 60.6537V40.5569L41.1633 39.2251L40.6791 38.6198V38.3777L40.0737 38.1355L38.2578 38.0145L38.0156 37.8934L38.2578 37.4092L39.1052 37.2881Z" fill="#E9373F"/>
<path d="M97.5779 37.2881H104.963L106.295 37.7723L107.505 39.3462L108.232 40.4358L108.837 41.0411L110.048 42.4939L111.258 44.0677L112.59 45.7627L113.922 47.2154L114.406 48.0629L115.617 49.3946L116.706 50.7263L117.796 52.3002L118.401 52.7845H118.522V41.1622L118.28 39.9515L117.796 38.983L116.827 38.2566L115.253 37.8934V37.4092L115.617 37.2881H123.365L123.244 37.8934L122.154 38.2566L121.065 38.983L120.58 39.5883L120.459 40.0726L120.338 51.5738V60.8958L120.217 62.9539L119.975 63.6803L119.37 63.4382L117.554 61.5012L116.585 60.2905L115.859 59.322L114.648 57.8692L113.68 56.5375L112.348 55.0847L111.016 53.3898L110.048 52.1791L108.958 50.8474L107.868 49.6368L106.9 48.305L105.81 46.9733L104.842 46.0048L103.994 44.6731L102.421 42.9782V42.736H102.057V60.6537L102.421 61.259L103.268 61.8644L104.721 62.2276L105.568 62.4697L105.689 63.075L104.963 63.1961H97.3358L96.7305 62.9539L96.8515 62.4697L98.4254 62.1065L99.3939 61.7433L99.9992 61.138L100.12 60.7748L100.241 58.4745V41.8886L100.12 40.1937L99.515 39.3462L99.2728 39.2251V38.983L98.6675 38.7409L97.9411 38.1355L96.8515 37.8934V37.4092L97.5779 37.2881Z" fill="#E9373F"/>
<path d="M81.8405 37.167H82.2037L83.6565 40.3147L85.3514 43.8256L86.1989 46.1258L87.7727 49.3946L88.7412 51.6948L89.3466 53.1476L90.7994 56.2953L91.6468 57.9902L92.4943 59.9273L93.2207 61.1379L94.1892 61.9854L95.2788 62.4697L95.3998 62.9539L95.2788 63.075L94.3102 63.196H83.2933L83.0512 63.075L83.1722 62.2275L85.4725 62.1065L85.7146 61.6222V60.4115L85.3514 58.7166L84.2618 56.4164L83.8986 56.1743H74.6977L74.0923 57.1428L73.6081 58.4745L73.3659 60.6537L73.7291 61.9854L76.3926 62.3486L76.5136 62.9539L76.0294 63.196H68.4023L68.0391 63.075L68.1601 62.4697L69.734 61.8643L70.7025 60.6537L71.55 59.2009L72.1553 58.2324L73.6081 54.9636L74.4555 53.0266L75.303 51.2106L76.3926 48.9103L77.119 47.0944L78.0875 45.1573L79.5403 42.0096L80.872 38.8619L81.7194 37.2881L81.8405 37.167Z" fill="#E9373F"/>
<path d="M199.758 21.3076H203.753L205.69 21.5497L208.353 22.2761L209.685 22.8815L210.29 23.3657L211.38 24.6974L212.106 25.787L212.591 27.1188L213.075 29.9033V32.5667L212.591 35.2301L212.106 36.4408L211.38 37.6514L210.29 38.62L209.806 39.2253L208.838 39.7096L206.537 40.557L204.479 40.7991L200.847 40.9202H200L199.395 40.6781V22.1551L199.637 21.4287L199.758 21.3076Z" fill="#FEFEFE"/>
<path d="M125.182 80.5088L127.12 80.6299L128.572 81.3562L129.42 82.3248L130.509 84.3829L130.873 86.0778V88.9834L130.63 90.4361L130.025 91.8889L129.057 93.2207L127.967 94.1892L127.12 94.6734H124.94L123.73 94.1892L122.882 93.3417L122.761 98.4265L122.64 99.5161L122.035 99.6371L120.461 99.5161L120.34 99.395V81.1141L120.703 80.7509H122.277L122.519 81.2352V81.9616L123.124 81.5984L124.093 80.872L125.182 80.5088Z" fill="#3E3C3F"/>
<path d="M126.149 0H129.176L129.297 0.121065V1.69492L128.934 3.75303L127.844 6.2954L127.118 7.50605L126.271 8.71671L125.544 9.8063L124.091 11.0169L122.275 12.1065L120.702 12.5908H119.249L117.312 11.9855L115.98 11.138L115.254 10.6538L114.648 10.4116L114.164 8.95884L113.801 7.74818V6.05327L114.164 4.96368L114.527 4.35835L116.101 2.90557L117.07 2.05811L118.886 1.21065L122.033 0.484262L126.149 0Z" fill="#00A560"/>
<path d="M88.6191 75.7871H90.0718L90.314 75.9082V94.3101L90.1929 94.4312L88.7401 94.5522L88.6191 94.3101V92.9784L87.6505 93.8258L87.0452 94.3101L86.1977 94.6733H83.8975L82.929 94.189L81.7183 93.0995L80.7498 91.7677L80.0234 89.8307L79.9023 89.2254V86.3198L80.3866 84.2617L81.113 82.93L81.9605 81.8404L83.05 80.9929L84.1396 80.6297H86.0767L87.5295 81.3561L88.3769 81.9614V78.8137L88.498 75.9082L88.6191 75.7871Z" fill="#3F3B3F"/>
<path d="M6.6586 75.7871H8.35351L8.83777 76.3924L10.1695 79.7823L11.3801 82.93L11.9855 84.9881L13.5593 89.2254L14.1646 90.9203L15.0121 93.2205L15.3753 94.3101L14.77 94.6733H13.5593L12.954 94.4312L12.4697 93.4627L11.6223 90.7992L11.138 89.1043L11.0169 88.9832H4.11622L3.26876 91.2835L2.30024 94.068L2.05811 94.5522L1.69492 94.6733L0 94.5522L0.242131 93.4627L1.33172 90.5571L2.66344 86.3198L4.35835 81.5982L6.05327 76.5135L6.41646 75.9082L6.6586 75.7871Z" fill="#3F3B3F"/>
<path d="M153.268 80.5088H154.479L156.053 80.7509L156.9 81.2352L157.748 82.0826L158.353 83.2933L158.595 84.2618L158.716 93.0996L159.079 94.0681L158.958 94.5524H157.142L156.9 94.3102L156.658 93.0996L155.326 93.826L153.753 94.6734L152.905 94.7945H151.573L150.363 94.5524L149.273 93.7049L148.426 92.7364L148.062 91.8889V90.4361L148.426 89.1044L149.394 87.7727L150.605 87.0463L152.3 86.6831L154.237 86.441L156.174 85.9567L156.295 85.8357V84.1408L156.053 83.5354L155.326 82.9301L154.6 82.688H152.421L151.573 83.1722L150.968 83.7776L150.363 84.9882L149.515 84.8671L148.668 84.625L148.547 84.0197L149.273 82.5669L150.242 81.4773L151.21 80.872L152.058 80.6299L153.268 80.5088Z" fill="#3E3C3F"/>
<path d="M196.612 80.5088H198.428L199.76 80.7509L200.607 81.2352L201.455 82.0826L202.06 83.4144L202.181 83.8986L202.302 92.2521L202.544 93.4628L202.665 94.4313L202.181 94.6734H200.97L200.486 94.1892L200.244 92.9785L199.881 93.0996L199.276 93.7049L198.549 94.1892L197.46 94.6734L196.491 94.7945H195.159L194.07 94.5524L192.98 93.826L192.012 92.6153L191.77 92.01L191.648 90.9204L191.891 89.4676L192.617 88.257L193.585 87.4095L194.433 86.9253L195.886 86.6831L197.944 86.441L199.76 85.9567L200.002 85.8357V84.5039L199.639 83.5354L199.033 82.9301L198.428 82.688H196.007L195.038 83.1722L194.433 84.0197L194.07 84.9882L193.828 85.1093L192.254 84.625L192.133 84.1408L192.98 82.4458L194.07 81.3562L195.28 80.7509L196.612 80.5088Z" fill="#3F3C3F"/>
<path d="M176.636 80.5088H178.088L179.178 80.872L180.025 81.5984L180.752 82.688L180.994 82.809L181.236 82.2037L182.084 81.2352L182.81 80.7509L183.778 80.5088H184.868L185.958 80.7509L186.926 81.3562L187.653 82.2037L188.016 83.2933L188.137 83.8986V94.3102L187.895 94.6734L186.079 94.5524L185.958 94.4313L185.837 84.1408L185.473 83.4144L184.505 82.688H183.657L182.568 83.1722L182.084 83.4144L181.841 83.8986L181.357 84.9882L181.236 85.4725L181.115 94.4313L180.994 94.5524H179.057L178.936 85.3514L178.815 83.8986L178.452 83.2933L177.362 82.688H176.272L175.183 83.4144L174.456 84.2618L174.093 85.8357L173.972 87.4095L173.851 94.4313L173.73 94.5524H172.035V80.7509H173.125L173.851 80.9931L173.972 82.0826L174.941 81.3562L176.03 80.6299L176.636 80.5088Z" fill="#3D3B3F"/>
<path d="M70.4599 80.6299H72.7601L74.2129 81.3563L75.3025 82.3248L76.3921 84.0197L76.7553 85.3514V88.257L76.6342 88.3781L67.9175 88.4991L68.1596 89.8309L68.765 91.2836L69.2492 92.01L70.3388 92.6154L71.6705 92.7364L73.1233 92.4943L73.8497 91.889L74.9393 90.073L76.15 90.194L76.6342 90.4362L76.5132 91.6468L76.0289 92.6154L74.9393 93.7049L73.7287 94.4313L73.1233 94.6735H70.0967L69.0071 94.1892L67.6754 93.2207L66.949 92.2522L66.3437 90.9204L65.9805 89.2255V86.441L66.2226 84.8672L66.7069 83.7776L67.5543 82.3248L68.5228 81.4773L69.9756 80.7509L70.4599 80.6299Z" fill="#3E3C3F"/>
<path d="M134.988 75.7871H136.441L136.562 75.9082L136.683 81.4772V82.0825L137.773 81.3561L138.983 80.6297L139.71 80.5087H140.92L141.889 80.7508L142.979 81.3561L143.826 82.3246L144.31 83.4142L144.552 85.4723V94.4312L144.31 94.6733H142.979L142.373 94.5522L142.252 85.5934L142.01 84.1406L141.526 83.1721L140.436 82.6878H139.347L137.894 83.4142L137.288 84.0196L136.804 85.9566L136.683 89.1043L136.562 94.4312L136.441 94.5522H134.867L134.746 93.9469V77.2399L134.867 75.9082L134.988 75.7871Z" fill="#3D3E40"/>
<path d="M218.523 80.751H220.46L221.066 82.2038L222.034 85.2304L222.64 87.5306L223.85 91.1626L224.092 90.9205L224.819 88.3781L225.787 85.1093L227.119 81.1142L227.361 80.872L227.845 80.751H229.056L228.935 81.8406L228.209 84.7461L226.393 89.8309L225.424 92.7364L224.94 94.5524L224.213 96.4895L223.245 98.4265L222.64 99.0318L221.671 99.8793L221.429 100H220.097L219.492 99.6372L219.129 99.0318V97.9423L219.25 97.8212L221.308 97.458L221.913 96.8527L222.519 94.9156V93.826L221.187 89.5887L220.097 86.6832L219.008 83.2933L218.402 80.872L218.523 80.751Z" fill="#3F3B3F"/>
<path d="M48.9101 18.7646H54.6002L55.9319 18.8857L57.1425 19.491L57.6268 19.9753L57.8689 20.9438V22.2755L57.5057 23.123L56.4162 24.0915L55.3266 24.4547L55.4476 24.939L55.9319 25.1811L56.7793 26.1496L57.7479 27.7235L58.4743 28.692L58.7164 29.0552V29.4184H57.2636L56.6583 28.9341L55.5687 27.4814L54.237 25.4232L53.7527 25.06L53.0263 24.8179L50.4839 24.6969L50.3629 29.4184H48.789L48.668 29.2973V18.8857L48.9101 18.7646Z" fill="#3E3B3F"/>
<path d="M17.5545 80.751H18.6441L19.1284 81.4774L20.0969 84.504L20.9444 87.5306L22.034 90.7994L22.2761 91.1626L23.3657 87.7728L24.0921 85.2304L25.5449 81.1142L25.9081 80.751H27.1187L27.4819 80.872L27.2398 82.0827L26.0291 86.1989L24.6974 89.8309L23.8499 92.3733L23.3657 94.3103L22.6393 96.2473L21.6708 98.3055L21.0654 99.0318L19.9759 99.8793L19.7337 100H18.5231L17.7967 99.6372L17.4335 98.7897V97.9423L17.9177 97.7001H19.0073L19.8548 97.458L20.218 96.9737L20.9444 94.6735L20.8233 93.705L19.7337 90.1941L17.9177 84.9883L17.3124 83.0512L16.9492 81.3563V80.872L17.5545 80.751Z" fill="#3F3C3F"/>
<path d="M38.9824 80.6299L40.072 80.7509L40.3141 81.3563V94.4313L39.5877 94.5524H38.6192L38.4981 92.9786H38.1349L37.2875 93.826L35.8347 94.6735H33.5344L32.3238 94.0681L31.2342 92.9786L30.7499 92.01L30.5078 90.9204V80.872L30.6289 80.7509H32.5659L32.687 80.872L32.8081 89.9519L33.1713 92.01L33.7766 92.4943L34.3819 92.6154H35.7136L36.8032 92.2522L37.4085 91.6468L37.8928 90.6783L38.1349 89.5887L38.256 80.872L38.9824 80.6299Z" fill="#413B3F"/>
<path d="M210.776 80.5088H212.229L213.198 80.7509L214.408 81.4773L215.498 82.5669L216.345 84.1408L216.224 84.7461L215.619 85.1093L215.256 85.2303H214.287L213.682 83.7776L212.955 82.9301L212.35 82.688H210.534L209.445 83.5354L208.718 84.3829L208.234 86.0778L208.113 86.9253V88.6202L208.597 90.5572L209.323 91.8889L210.05 92.4943L210.413 92.6153H212.35L213.319 92.1311L214.045 90.9204L214.408 89.8308L214.771 89.7098L216.345 89.8308V90.9204L215.982 92.01L215.014 93.2207L214.045 94.0681L212.955 94.6734L211.987 94.7945H210.655L209.687 94.5524L208.355 93.826L207.265 92.7364L206.66 91.5257L206.176 89.8308L206.055 88.7412V86.9253L206.297 84.9882L206.781 83.5354L207.507 82.3248L208.597 81.3562L209.808 80.7509L210.776 80.5088Z" fill="#3F3C3F"/>
<path d="M105.085 80.6299H107.385L108.596 81.1141L109.685 81.9616L110.412 83.0512L110.896 84.1408L110.775 84.7461L110.17 85.1093L108.959 85.2304L108.475 84.0197L107.385 82.8091L106.901 82.5669H105.448L104.48 83.0512L103.511 84.1408L103.027 85.3514L102.906 86.441V89.1045L103.269 90.7994L104.116 92.1311L104.843 92.6154L105.69 92.7364H106.659L107.748 92.3732L108.354 91.6468L108.959 90.073L109.322 89.8309H110.775L110.896 90.073V91.0415L110.412 92.3732L109.928 92.9786H109.685L109.443 93.4628L108.233 94.3103L107.506 94.6735L105.69 94.7945L104.359 94.5524L103.148 93.826L101.816 92.4943L101.211 91.2836L100.848 89.5887L100.727 88.6202V87.0463L100.969 85.1093L101.453 83.5355L102.3 82.3248L103.39 81.3563L104.601 80.7509L105.085 80.6299Z" fill="#3E3C3F"/>
<path d="M85.1087 82.4453L86.3193 82.6874L87.53 83.5349L88.1353 84.5034L88.6196 86.5615V89.346L88.1353 91.041L87.6511 91.7673L86.8036 92.4937L85.714 92.8569H84.8666L83.777 92.4937L83.1716 91.8884L82.5663 91.041L82.3242 90.3146L82.2031 89.4671V85.7141L82.5663 84.2613L83.4138 83.1717L84.3823 82.5664L85.1087 82.4453Z" fill="#FEFEFE"/>
<path d="M124.941 82.5664H126.515L127.483 83.0507L128.331 84.2613L128.815 85.593L129.057 87.1669L128.936 89.225L128.452 90.7989L127.846 91.8884L127.12 92.4938L126.151 92.7359H124.82L123.972 92.4938L123.367 92.0095L123.004 91.4042L122.52 89.1039L122.398 88.2565V87.0458L122.883 84.5035L123.246 83.7771L124.214 82.9296L124.941 82.5664Z" fill="#FEFEFE"/>
<path d="M53.9958 80.6299L54.48 80.7509L54.9643 81.8405L56.5381 86.6832L57.2645 88.7413L57.9909 91.0415L58.233 90.5572L59.2016 87.6517L60.2912 84.625L60.8965 82.5669L61.2597 81.2352L61.5018 80.872L62.1071 80.7509H63.1967L63.4389 80.872L63.3178 81.9616L61.5018 87.0463L61.0175 88.6202L60.4122 90.6783L59.4437 93.4628L59.0805 94.3103L58.3541 94.6735H57.6277L57.0224 94.0681L56.296 92.3732L55.3275 89.5887L54.6011 87.4095L53.8747 84.8672L52.543 81.1141V80.7509L53.9958 80.6299Z" fill="#3D3C3F"/>
<path d="M70.9452 18.7646H79.1777L79.0566 19.9753L78.9355 20.0964L72.5191 20.2174V23.123H78.6934V24.5758L78.5723 24.6969L72.5191 24.8179V27.7235L78.6934 27.8446L79.5409 28.2077V29.4184L79.0566 29.5395H71.1874L70.8242 29.4184L70.582 28.5709V19.491L70.7031 18.8857L70.9452 18.7646Z" fill="#3C3D3F"/>
<path d="M67.9162 18.6445L68.6426 18.7656V19.9763L68.5215 20.0973H61.984V23.124H68.1583V24.5767L67.9162 24.6978H61.984V27.9666L62.8314 27.8455H68.6426L68.7636 28.3298V29.4193L68.6426 29.5404H60.4101L60.2891 29.4193V18.8867L60.5312 18.7656L67.9162 18.6445Z" fill="#3D3B3F"/>
<path d="M37.4101 18.7646H39.105L39.2261 19.2489V22.7598L44.6741 22.6387L44.7951 21.6702L44.9162 18.8857L45.0372 18.7646H46.1268L46.369 19.6121V29.2973L46.2479 29.4184H44.9162L44.7951 27.9656L44.6741 24.6969L39.2261 24.5758V29.2973L39.105 29.4184H37.4101L37.2891 29.2973V19.37L37.4101 18.7646Z" fill="#413C3F"/>
<path d="M166.948 80.5088H168.038L169.006 80.872L169.491 81.3562L169.37 82.2037L168.885 83.2933L168.522 83.4144L167.796 83.1722H166.827L165.738 83.8986L165.496 84.3829L165.374 85.4725L165.132 85.9567L164.89 94.5524L163.558 94.6734L163.074 94.5524V81.1141L163.195 80.7509L163.437 80.6299H164.406L164.89 80.872V82.2037L166.343 80.7509L166.948 80.5088Z" fill="#3F3C3F"/>
<path d="M48.546 80.6299H50.2409L51.2094 81.2352L51.0884 82.2037L50.6041 83.4144L49.9988 83.2933L49.3935 83.0512H48.6671L47.4564 84.0197L46.9721 85.7146L46.8511 87.1674L46.73 94.4313L46.6089 94.5524H45.5194L44.914 94.4313L44.793 92.01V81.2352L44.914 80.7509H46.2458L46.6089 80.872L46.8511 81.9616L47.2143 81.8405L48.0617 80.872L48.546 80.6299Z" fill="#3F3C3F"/>
<path d="M79.2961 46.126H79.6592L80.2646 47.0945L81.5963 49.879L82.2016 51.2107L83.0491 53.7531V54.2374L82.2016 54.3584H77.2379L75.9062 54.2374L75.7852 53.8742L76.6326 51.4529L77.6011 49.2737L78.5697 47.3366L79.2961 46.126Z" fill="#FEFEFE"/>
<path d="M166.101 46.7314H166.343L166.948 47.9421L167.796 49.7581L169.37 53.269L169.612 54.7218L169.491 54.8428H165.253L162.953 54.7218L162.832 54.1164L163.801 51.453L165.98 46.8525L166.101 46.7314Z" fill="#FEFEFE"/>
<path d="M95.0351 80.6299L96.73 80.7509L96.9722 81.2352V94.3103L96.609 94.5524H94.9141V80.7509L95.0351 80.6299Z" fill="#3E3B3F"/>
<path d="M7.38612 78.208H7.62825L8.23358 80.1451L8.95997 82.6874L10.0496 85.593L10.2917 86.6826L9.44423 86.8036H5.57014L4.84375 86.6826L5.44908 84.0191L6.65973 80.6293L7.14399 78.9344L7.38612 78.208Z" fill="#FEFEFE"/>
<path d="M155.932 87.8936H156.295L156.417 88.3778L156.295 90.4359L155.569 91.8887L154.601 92.494L153.753 92.7362H151.332L150.726 92.373L150.363 91.2834V90.3149L150.969 89.2253L151.816 88.8621L155.932 87.8936Z" fill="#FEFEFE"/>
<path d="M199.757 87.8936L200.12 88.0146V89.3463L199.878 90.9202L199.151 91.8887L198.546 92.373L197.335 92.7362H195.035L194.43 92.373L194.188 91.8887V89.8306L194.793 89.1042L196.003 88.741L197.335 88.3778L198.667 88.1357L199.757 87.8936Z" fill="#FEFEFE"/>
<path d="M70.8236 82.4453H71.9132L72.8817 82.6874L73.9713 83.656L74.5766 84.8666V86.4405L74.0923 86.5615H68.4023L68.0391 86.1983L68.1601 85.1088L68.7655 83.8981L69.855 82.9296L70.3393 82.5664L70.8236 82.4453Z" fill="#FEFEFE"/>
<path d="M50.4843 20.0967H55.5691L56.0534 20.3388L56.1744 20.702V22.3969L55.327 23.1233L54.7216 23.2444H50.4843L50.3633 23.1233V20.5809L50.4843 20.0967Z" fill="#FEFEFE"/>
<path d="M94.9141 75.7871H96.609L96.8511 75.9082V78.3295L96.73 78.4505H95.1562L94.9141 78.3295V75.7871Z" fill="#413D3F"/>
<path d="M105.812 31.7188L106.176 32.0819L106.418 33.0505H106.66L107.75 35.5928L108.234 36.8035L108.96 38.0141L110.413 40.1933V40.5565H110.171L109.444 39.588L107.871 37.4088L106.781 34.9875L106.055 33.4137L105.691 32.4451L105.812 31.7188Z" fill="#404843"/>
<path d="M105.449 30.1455H105.933L106.297 31.7194L106.66 33.0511L106.418 33.2932L106.054 32.0826L105.933 31.8404L105.812 32.0826H105.57L105.207 30.6298L105.449 30.1455Z" fill="#0F8B58"/>
<path d="M108.355 37.2881L108.719 37.6513L109.566 38.8619L110.05 39.5883L110.414 40.1937V40.5569H110.171L109.445 39.5883L108.234 37.8934L108.477 37.7723L108.355 37.2881Z" fill="#E9373F"/>
<path d="M105.812 31.7188L106.176 32.0819L106.297 32.3241V33.0505H105.934L105.691 32.4451L105.812 31.7188Z" fill="#2C5848"/>
</svg>
