<svg width="226" height="100" viewBox="0 0 226 100" fill="none" xmlns="http://www.w3.org/2000/svg">
<path d="M199.858 0H204.143L208.143 0.857143L210.715 1.85714L212.715 2.71429L215.001 4.14286L217.429 5.85714L220.143 8.57143L221.286 10.1429L222.715 12.4286L224.286 15.7143L225.143 18.4286L225.572 20.2857L225.715 21.8571V27.2857L225.429 29.5714L224.858 31.8571L224.143 32.7143L223.858 32.8571H206.143L204.715 31.1429L205.572 32.8571L194.429 33L193.858 32.8571L193.715 21.1429L194.429 21.4286L195.286 21.8571L194.286 21.1429L193.858 21L193.715 20V1.85714L194.001 1L196.286 0.428571L197.858 0.142857L199.858 0Z" fill="#E96E23"/>
<path d="M159.001 38H188.43L188.573 38.1429L188.715 67.2857L187.573 67.7143L186.287 68L184.287 68.1429H181.573L179.573 68L175.001 66.8571L172.43 65.7143L169.715 64.2857L167.715 62.8571L165.573 60.8571L164.43 59.7143L162.858 57.7143L161.43 55.4286L160.144 52.7143L159.001 49.2857L158.573 47L158.43 45.7143V42.7143L158.715 39.5714L159.001 38Z" fill="#343D8E"/>
<path d="M93.0006 67.5713H100.858V73.5713L100.715 79.857L100.429 81.5713L100.143 82.1427L100.429 81.9999L101.286 80.4284L102.858 78.857L104.858 77.7141L106.715 77.2856H108.715L110.858 77.7141L112.858 78.7141L114.001 79.9999L114.858 81.857L115.286 83.4284L115.429 84.2856V89.857L115.286 95.9999H120.286V81.2856H117.715L117.001 81.1427V77.857H124.858L125.001 82.5713V90.857L124.858 95.9999H127.715L127.858 97.7141V99.4284H108.286L108.143 99.2856V96.1427L110.572 95.9999V84.9999L110.143 83.5713L109.286 82.4284L108.572 81.857L106.715 81.2856H105.715L104.001 81.857L102.858 82.7141L101.858 83.857L101.001 85.5713L100.858 85.9999L100.715 88.857L100.572 95.9999L103.429 96.1427V98.4284L103.286 99.4284L93.1434 99.5713L92.0006 99.9999H88.4291L87.0006 99.5713L85.572 98.7141L84.4291 97.4284L83.8577 95.5713L83.7148 81.2856H81.1434L80.7148 81.1427V77.857L83.8577 77.7141L84.0006 73.1427L86.0006 72.857L87.2863 72.7141H88.7148L88.572 77.7141L94.572 77.857L94.7148 77.9999V81.1427L94.1434 81.2856H88.572V93.4284L89.0006 95.1427L89.8577 95.857V96.1427H92.4291L93.8577 95.857L94.0006 95.7141H95.1434L95.7148 95.9999L95.8577 95.857L96.0006 71.2856L95.8577 70.9999L93.0006 70.857L92.8577 70.7141L93.0006 67.5713Z" fill="#343D8E"/>
<path d="M70.4286 67.5713H78.7143L78.8571 68.857V81.4284L78.7143 95.9999L81.5714 96.1427V99.4284H63.7143V98.2856L64 95.2856L63 96.9999L61.5714 98.5713L60.1429 99.4284L58.7143 99.9999H55L53.5714 99.4284L52.2857 98.5713L51.4286 97.857L50.4286 96.2856L50 95.1427V92.1427L50.7143 90.4284L52.1429 88.9999L53.5714 88.1427L55.2857 87.5713L58 87.1427L62.7143 86.857L63.5714 86.7141V84.1427L63.1429 82.7141L62.5714 81.857L61.7143 81.2856L60.2857 80.857H58.2857L55.8571 81.2856L55 81.7141L55.1429 84.4284L55 84.5713L53.1429 84.7141H51L50.8571 84.5713V79.2856L52.8571 78.2856L55.1429 77.7141L58.2857 77.2856H60.7143L63 77.7141L64.7143 78.4284L66.1429 79.7141L67 80.9999L67.5714 82.5713L67.7143 83.1427V95.9999L74 95.857L74.1429 79.9999V71.1427L73.8571 70.9999L70.5714 70.857L70.4286 70.7141V67.5713Z" fill="#343D8E"/>
<path d="M165.427 77.2861H167.713L169.998 77.8576L171.284 78.5718L172.284 79.7147L173.427 82.0004L173.998 80.7147L174.855 79.5718L176.141 78.429L177.57 77.7147L178.713 77.429H182.57L184.141 77.8576L185.57 78.7147L186.855 80.1433L187.713 81.8576L187.998 82.8576L188.141 84.1433V96.0004L190.57 96.1433L190.713 96.2861L190.855 98.0004L190.713 99.2861L189.855 99.429H180.998L180.855 99.1433L180.998 96.1433L183.427 96.0004V85.8576L183.141 84.0004L182.427 82.7147L181.427 81.8576L179.855 81.2861H178.713L176.855 81.8576L175.427 83.1433L174.57 84.429L173.998 86.0004L173.855 92.8576L173.713 96.0004L176.284 96.1433L176.427 96.2861V99.429H166.998L166.855 99.2861V96.1433L169.141 96.0004V86.5718L168.998 84.5718L168.427 83.1433L167.713 82.2861L165.998 81.429L164.855 81.2861L163.284 81.5718L161.998 82.429L161.427 82.7147L161.141 83.2861L160.284 84.5718L159.855 85.8576L159.713 86.7147L159.57 89.1433L159.427 96.0004L162.141 96.1433L162.284 96.2861V99.2861L160.284 99.429H152.427L152.57 96.1433L154.855 96.0004V81.429L154.57 81.2861H152.998L151.855 81.1433V78.7147L151.998 77.8576H159.57L159.427 81.0004L159.141 82.0004H159.427L159.713 81.2861L160.855 79.7147L161.855 78.7147L163.284 77.8576L165.427 77.2861Z" fill="#343D8E"/>
<path d="M188.286 3.57129L188.571 3.71415V18.9999L187.143 19.1427L188.571 19.4284V32.857H161L161.571 31.4284L162.571 29.857L163.714 28.2856L165 26.857L166.429 25.2856L167.571 24.2856L169.286 22.9999L171.714 21.5713L174.286 20.4284L177 19.5713H177.286V18.5713L177.571 17.7141L178.143 15.857L179.143 13.5713L180.429 11.2856L182 8.99986L185.143 5.857L186.857 4.57129L187.571 3.99986L188.286 3.57129Z" fill="#343D8E"/>
<path d="M0 70.4287H10.5714L10.7143 70.5716V73.5716L10.5714 73.7144L7.85714 73.8573L7.71429 83.0001H21.2857V74.0001L21 73.8573L18.4286 73.7144L18.2857 73.5716V70.4287H29L28.8571 73.7144H26V96.0001H29L28.8571 99.4287H18.2857V96.143L21 95.8573L21.1429 94.5716V86.8573L7.85714 86.7144L7.71429 96.0001L10.5714 96.143L10.7143 96.4287V99.4287H0V96.143L1.42857 96.0001H3V73.8573L0 73.7144V70.4287Z" fill="#343D8E"/>
<path d="M194.001 38H206.429L207.429 38.1429L207.715 38.5714L208.001 38.1429L217.286 38L221.715 38.1429L221.429 38.7143L220.143 40.4286L218.858 41.8571L218.001 42.8571L215.858 44.4286L214.001 45.5714L212.572 46.4286L210.572 47.4286L208.001 48.2857H207.429L206.858 50L206.286 51.8571L205.143 54.4286L204.143 56.2857L202.572 58.5714L200.715 60.7143L199.286 62.1429L197.001 63.8571L194.858 65.1429L194.143 65.4286H193.715V38.2857L194.001 38Z" fill="#343D8E"/>
<path d="M37.9983 77.2861H40.284L42.1412 77.5718L43.8555 78.1433L45.5698 79.1433L46.8555 80.429L47.9983 82.429L48.8555 84.7147L49.1412 85.8576L49.284 89.1433L49.1412 89.2861L33.7126 89.5718L34.5698 92.5718L35.8555 94.2861L37.284 95.2861L38.9983 96.0004L39.7126 96.1433H42.7126L44.9983 95.7147L47.1412 95.0004L47.7126 94.7147H48.1412L47.9983 98.0004L47.4269 98.5718L45.4269 99.2861L42.1412 100H38.8555L36.5698 99.5718L33.8555 98.429L32.5698 97.5718L31.8555 97.0004L30.7126 95.429L29.5698 93.1433L28.9983 91.429L28.8555 90.5718V86.8576L29.284 84.7147L30.284 82.429L31.1412 81.1433L32.4269 79.7147L33.4269 78.8576L35.4269 77.8576L37.9983 77.2861Z" fill="#343D8E"/>
<path d="M127.573 77.8574H134.144L134.858 78.0003V91.286L135.144 93.1431L136.001 94.5717L137.144 95.4289L138.001 95.8574H140.287L142.287 94.8574L143.287 93.7146L144.287 91.7146L144.43 91.286L144.573 88.4289V81.4289L144.43 81.286L142.001 81.1431L141.858 81.0003V77.8574H149.43V83.286L149.287 96.0003L152.144 96.1431V99.4288H144.715V97.8574L144.858 95.5717L143.715 97.1431L142.43 98.4288L140.144 99.5717L138.715 100H135.573L133.287 98.8574L132.144 97.8574L131.144 96.4289L130.43 94.5717L130.287 93.8574V81.5717L130.144 81.286L127.573 81.1431L127.43 81.0003L127.573 77.8574Z" fill="#343D8E"/>
<path d="M188.285 3.57129L188.571 3.71415V18.9999L179.285 19.1427L177.285 19.4284L177.428 18.1427L177.714 17.1427L178.571 14.7141L180.142 11.7141L181.999 8.99986L185.142 5.857L186.857 4.57129L187.571 3.99986L188.285 3.57129Z" fill="#E96F25"/>
<path d="M215.713 38L221.713 38.1429L221.427 38.7143L220.142 40.4286L218.856 41.8571L217.999 42.8571L215.856 44.4286L213.999 45.5714L212.57 46.4286L210.57 47.4286L207.999 48.2857L207.57 48.1429L207.713 38.5714L207.999 38.1429L215.713 38Z" fill="#E96F25"/>
<path d="M193.715 21.1426L194.429 21.4283L197.286 23.1426L198.572 24.1426L200.429 25.714L201.715 26.9997L203.286 28.9997L205.001 31.714L205.572 32.8569L194.429 32.9997L193.858 32.8569L193.715 21.1426Z" fill="#343D8E"/>
<path d="M37.8577 80.7139H40.0006L41.572 81.1424L42.572 81.7139L43.572 82.9996L44.1434 84.2853L44.2863 84.9996V86.2853H34.0006L33.7148 85.9996L33.8577 84.8567L34.4291 83.4282L35.2863 82.2853L36.4291 81.2853L37.8577 80.7139Z" fill="#FDFDFD"/>
<path d="M61.9989 89.8574H63.5703V91.7146L63.1417 93.1431L62.2846 94.4289L61.2846 95.4289L60.2846 96.0003L58.9989 96.286H57.2846L55.7132 95.7146L54.856 94.7146L54.5703 94.0003V92.5717L55.1417 91.7146L55.9989 91.0003L57.5703 90.286L59.856 90.0003L61.9989 89.8574Z" fill="#FDFDFD"/>
<path d="M198.285 23.8574L198.999 24.1431L200.857 25.8574L201.999 26.7146L202.142 27.5717L199.857 25.286L198.285 24.0003V23.8574Z" fill="#FDFDFD"/>
</svg>
