<svg width="300" height="60" viewBox="0 0 300 60" fill="none" xmlns="http://www.w3.org/2000/svg">
<path d="M19.3471 0H24.9602L43.1288 0.147712L43.2765 0.443136L43.1288 42.9842H0.439956L0.144531 42.6888V31.315L0.292243 0.295424L0.439956 0.147712L19.3471 0ZM19.3471 2.65882L16.6883 3.10195L14.4726 3.84052L12.1092 5.02221L10.189 6.35162L8.12099 8.12417L6.34844 10.1921L4.87132 12.5555L3.68962 15.2144L3.09877 17.5777L2.80335 19.7934V22.8954L3.24649 25.5542L3.98505 27.9176L4.87132 29.9856L6.34844 32.349L8.12099 34.2692L9.4504 35.5986L11.9615 37.3712L14.4726 38.7006H14.9157L15.0635 37.0757V34.2692L14.4726 33.6784L12.8478 32.6444L10.9275 30.8718L9.59811 29.247L8.2687 26.7359L7.53014 24.3725L7.23471 22.7477V19.9411L7.67785 17.43L8.56412 15.0666L9.4504 13.4418L10.6321 11.9647L12.5524 10.0444L14.6203 8.71502L16.9837 7.68103L18.7563 7.2379H19.1994L19.3471 39.8823L21.2674 40.03H23.3353L23.6308 39.8823V7.09018L27.0281 8.12417L29.0961 9.15815L30.8687 10.4876L32.4935 12.1124L33.9706 14.3281L35.0046 16.6915L35.5954 19.2026L35.7432 20.3843V21.7137L35.3 24.8156L34.4137 27.3267L33.0843 29.6901L31.3118 31.7581L29.3915 33.2352L27.7667 34.1215L27.619 38.7006L28.653 38.5529L31.0164 37.3712L33.0843 35.8941L34.8569 34.2692L36.1863 32.7921L37.6634 30.5764L38.8451 28.213L39.5837 25.8496L40.0268 23.6339L40.1745 22.1568V20.3843L39.7314 17.2823L38.9928 14.7712L38.1066 12.7032L36.7771 10.4876L35.5954 9.01044L34.7092 7.97646L33.5275 6.94247L31.3118 5.31764L29.0961 4.13594L26.1419 3.10195L23.1876 2.65882H19.3471Z" fill="#E1218B"/>
<path d="M64.1047 1.625H73.2629L74.74 1.92042L76.5126 2.65899L78.1374 4.13611L79.0237 5.61323L79.6145 7.23806L79.7622 8.27205V10.34L79.4668 12.1126L78.5805 13.8851L77.2511 15.3622L76.0694 16.2485L74.74 16.6916H74.1492V16.9871L74.74 17.2825L76.808 18.4642L78.5805 19.2027L79.0237 19.6459L78.876 20.3844H77.3988L74.8877 19.2027L73.1152 17.8733L71.0472 16.2485V19.9413L70.7518 20.089H64.1047L63.957 19.9413V2.21585L64.1047 1.625ZM71.0472 2.65899L70.8995 3.10212V14.3282L71.3426 15.0668L72.8198 15.9531L74.1492 15.8054L75.9217 15.0668L77.2511 13.8851L77.9897 12.7034L78.5805 10.34V8.27205L78.1374 6.4995L77.5465 5.3178L76.808 4.43153L75.4786 3.54526L74.0015 2.95441L71.9335 2.65899H71.0472Z" fill="#E1228B"/>
<path d="M99.5572 1.03418H102.511L104.136 1.62503L105.761 2.65901L107.386 4.28385L108.42 6.05639L109.158 8.12436L109.306 8.86292V12.7034L108.715 14.9191L107.829 16.6917L106.647 18.1688L105.318 19.3505L103.25 20.3845L101.921 20.6799H99.7049L97.9324 19.9413L96.603 19.0551L95.569 18.1688L94.2396 16.2485L93.3533 14.1806L92.9102 12.2603V9.45377L93.3533 7.53351L94.2396 5.46554L95.2736 3.98842L96.7507 2.5113L98.3755 1.47732L99.5572 1.03418ZM100.591 2.36359L100.443 2.65901V19.3505L100.591 19.4982H101.921L103.841 18.9073L105.318 17.8734L106.352 16.8394L107.386 15.0668L107.977 12.8512L108.125 10.7832L107.829 8.12436L107.091 6.2041L106.057 4.72698L104.727 3.39757L103.102 2.5113L102.511 2.36359H100.591Z" fill="#E1228B"/>
<path d="M46.969 1.625H61.7402L61.888 1.77271V2.8067L61.7402 2.95441H57.752L57.6043 20.089H50.6618L50.5141 2.95441H46.5259L46.2305 2.65899V1.92042L46.969 1.625Z" fill="#E1228B"/>
<path d="M82.7188 1.625H89.6612L89.8089 19.9413L89.0704 20.089H82.8665L82.7188 19.9413V1.625Z" fill="#E1218B"/>
<path d="M279.321 24.668H285.082L287.445 24.9634L288.923 25.8497L289.957 26.8837L290.991 28.5085L291.729 30.281L292.025 31.4627V34.7124L291.434 37.0758L290.547 38.7006L289.513 39.8823L288.184 41.064L287.15 41.5072L286.116 41.6549H278.878L278.73 40.03V25.1111L278.878 24.8157L279.321 24.668ZM279.912 26.2928L279.764 26.4405V38.7006L279.912 40.03L280.946 40.1777H283.014L284.048 40.03V26.5882L283.9 26.2928H279.912ZM285.082 26.2928V40.03H286.264L287.741 39.5869L289.07 38.4052L290.104 36.6327L290.547 35.1555L290.695 32.7921L290.4 30.7242L289.809 29.0993L288.923 27.9176L287.593 26.7359L285.968 26.2928H285.082Z" fill="#E1238C"/>
<path d="M145.793 23.7812L146.679 24.2244L148.895 25.9969L150.963 27.4741L153.622 29.3943L155.542 30.8714L157.315 32.2008L157.167 31.9054V24.6675H158.644L158.792 42.393L158.496 42.5407L157.61 42.0976L155.542 40.4727L152.44 38.1093L149.633 36.1891L147.566 34.5642L147.122 34.2688L147.27 35.1551V41.6544L147.122 41.8021H146.088L145.793 41.0636V23.7812ZM147.122 26.2924V32.644L147.861 33.5303L150.963 35.5982L153.622 37.5185L155.69 39.1433L157.019 40.1773L157.315 40.0296V33.8257L155.69 32.3486L153.179 30.576L150.372 28.508L147.418 26.2924H147.122Z" fill="#E1268D"/>
<path d="M194.979 24.668H199.854L202.365 24.8157L203.694 25.1111L205.024 25.9974L206.058 27.0314L207.239 29.3948L207.535 31.0196V32.9398L207.092 35.0078L206.353 36.4849L205.171 37.8143L204.137 38.5529L202.365 38.996L200.592 39.1438L200.445 41.5072L200.297 41.6549H194.241L194.093 41.5072L193.945 34.2693V29.9856L194.093 24.8157L194.979 24.668ZM195.127 26.1451L194.979 27.7699V33.9738L195.127 40.03H199.411L199.558 39.5869L199.411 26.2928L198.82 26.1451H195.127ZM200.888 26.2928L200.592 26.4405L200.445 26.8837V37.2235L200.888 37.5189H202.365L203.694 37.0758L205.171 35.7464L205.91 34.1215L206.058 33.2353V30.7242L205.615 29.0993L204.876 27.9176L203.694 26.8837L202.365 26.4405L200.888 26.2928Z" fill="#E1258D"/>
<path d="M175.776 24.668H186.854L187.002 24.8157V26.2928L182.128 26.4405L181.98 31.1673H187.297V32.7921H181.98V40.03H187.593L187.741 40.3255V41.6549L175.776 41.8026L175.628 41.6549L175.48 29.247V25.2588L175.776 24.668ZM176.81 26.1451L176.662 26.2928V40.03L176.81 40.1777H180.946L181.094 40.03L180.946 26.2928L179.764 26.1451H176.81Z" fill="#E1238C"/>
<path d="M132.499 24.668H143.577L143.725 24.8157V26.1451L143.577 26.2928L138.702 26.4405L138.555 31.1673H143.725L143.872 31.315V32.6444L143.725 32.7921H138.555V40.03H144.168L144.316 40.1777V41.6549H132.351L132.203 41.5072V24.8157L132.499 24.668ZM133.385 26.1451L133.237 26.2928V40.1777H137.521V26.2928L135.748 26.1451H133.385Z" fill="#E1258D"/>
<path d="M113.145 48.8926L113.883 49.0403L114.474 49.7789L116.838 55.3919L118.019 58.4939L118.463 59.3801V59.6756H117.133L116.395 58.4939L115.656 56.7213L115.508 56.5736L111.077 56.4259L110.782 57.3122L109.895 59.5279L109.6 59.6756H108.418L107.827 59.5279L107.532 59.6756H99.8508L99.7031 55.2442L99.8508 49.188H107.532V50.3697L107.384 50.5174L101.328 50.3697L101.476 53.6194L107.236 53.7671L107.384 53.9148L107.236 54.9488H101.328V58.3462L107.532 58.4939L108.123 59.0847L108.861 57.903L110.486 53.7671L112.111 49.9266L112.85 49.0403L113.145 48.8926ZM113.293 50.6651L112.85 51.256L111.668 54.5056L111.52 55.2442L115.065 55.3919L115.213 55.0965L113.736 51.1083L113.293 50.6651Z" fill="#CC4117"/>
<path d="M87.1494 24.668H93.6487L93.9441 24.8157L94.0919 26.1451L93.9441 26.2928H88.9219V31.1673H94.2396L94.3873 31.315V32.6444L94.2396 32.7921H88.9219V40.03H94.6827V41.3594L94.535 41.6549H82.718L82.5703 41.3594V24.9634L82.718 24.8157L87.1494 24.668ZM83.752 26.1451L83.6043 26.4405V33.9738L83.752 40.1777H88.0357V26.2928L86.854 26.1451H83.752Z" fill="#E1218B"/>
<path d="M114.62 24.0771L116.393 24.2249L118.313 24.9634L119.938 26.2928L120.972 27.77L121.267 28.9516L120.972 29.2471L120.233 29.0994L118.461 27.1791L116.836 26.1451L115.064 25.702L114.916 40.7686L116.836 40.3255L118.166 39.4392L118.904 38.8484L119.79 37.519L120.677 36.0418L121.415 35.8941L121.711 36.6327L121.12 38.2575L120.233 39.5869L118.904 40.9163L117.427 41.8026L115.507 42.2457H114.325L112.848 41.8026L111.223 40.6209L110.189 39.5869L109.155 37.9621L108.269 35.3033L108.121 34.5647V31.9059L108.712 29.5425L110.041 27.0314L111.371 25.5543L112.848 24.668L113.882 24.2249L114.62 24.0771ZM113.291 25.8497L112.405 26.4405L111.666 27.1791L110.78 28.2131L109.746 30.4288L109.303 32.4967V34.1216L109.746 36.3373L110.78 38.2575L111.814 39.4392L113.291 40.4732H113.734L113.882 25.9974L113.291 25.8497Z" fill="#E1268D"/>
<path d="M101.181 24.0771L103.101 24.3726L104.578 24.9634L105.465 25.702L105.908 26.736V27.4745L105.317 27.6222L102.953 26.1451L101.476 25.8497H101.181L101.919 27.77L102.806 29.0994L104.431 31.315L105.612 33.2353L106.351 34.7124L106.794 36.1895V37.519L106.499 38.8484L105.465 40.4732L104.283 41.5072L102.658 42.098L101.919 42.2457H100.442L98.9652 41.9503L97.4881 41.2118L96.4541 40.1778L95.8633 38.9961L96.011 37.9621L96.7496 38.1098L98.079 39.4392L99.2607 40.1778L100.147 40.4732L101.329 40.6209L100.885 39.2915L99.5561 37.0758L97.4881 33.9739L96.3064 31.6105L95.8633 30.1333V28.8039L96.4541 27.1791L97.6358 25.5543L99.2607 24.5203L99.9992 24.2249L101.181 24.0771ZM99.7038 25.8497L98.8175 26.2928L98.079 26.8837L97.3404 28.2131L97.1927 28.9516V30.1333L97.7835 31.9059L98.9652 33.9739L100.738 36.3373L101.919 38.1098L102.363 39.1438L102.51 40.4732L103.544 40.3255L104.874 39.2915L105.465 38.1098V35.8941L104.726 34.1216L103.249 31.7582L101.329 29.0994L100.295 27.3268L100.147 25.9974L99.7038 25.8497Z" fill="#E1268D"/>
<path d="M166.766 24.0771L168.686 24.2249L170.458 24.8157L171.788 25.8497L172.97 27.1791L173.56 28.3608L173.413 29.2471L172.526 29.0994L170.754 27.1791L169.572 26.2928L167.652 25.702H167.504L167.357 27.1791V40.7686L169.129 40.3255L170.606 39.4392L171.788 38.2575L172.822 36.3373L173.413 35.8941L174.004 36.1895V37.2235L172.97 39.1438L171.345 40.9163L169.868 41.8026L168.981 42.098L167.947 42.2457H166.766L165.289 41.8026L163.959 40.9163L162.63 39.5869L161.448 37.6667L160.709 35.7464L160.414 34.2693V32.4967L160.857 30.4288L161.743 28.2131L163.073 26.2928L164.55 24.9634L166.175 24.2249L166.766 24.0771ZM165.732 25.8497L164.255 26.8837L162.777 28.8039L162.039 30.5765L161.743 31.7582L161.596 33.9739L161.891 35.7464L162.925 37.8144L164.255 39.4392L165.732 40.4732H166.323L166.175 25.8497H165.732Z" fill="#E1268D"/>
<path d="M223.34 24.5205H224.374L223.783 26.8839L222.011 31.1676L220.534 34.4172L218.318 39.5871L216.841 43.1322L216.25 42.8368L214.034 37.9623L211.966 33.2355L209.16 27.1793L208.273 25.1114V24.8159L209.898 24.6682H215.216L215.954 25.5545L217.875 29.9859L218.761 32.2015L219.056 33.5309H219.352L219.647 32.6447L220.977 29.5427L222.602 25.2591L223.34 24.5205ZM210.046 25.9976L210.785 27.9179L212.705 32.0538L214.33 35.7466L215.807 39.2917L216.102 39.7349H216.398L217.136 38.2577L218.613 34.7126L218.466 33.9741L217.432 31.9061L215.807 27.7702L215.068 26.2931L214.773 25.9976H210.046Z" fill="#E22D91"/>
<path d="M74.7381 24.668H80.3511L80.6465 25.1111V26.1451L80.4988 26.2928L75.6243 26.4405L75.4766 31.1673H80.6465L80.7943 31.315V32.6444L80.6465 32.7921H75.6243L75.4766 41.6549H69.2727L69.125 41.5072V24.8157L74.7381 24.668ZM70.159 26.1451V40.03L70.3067 40.1777H74.4426L74.5903 40.03V26.2928L73.7041 26.1451H70.159Z" fill="#E1218A"/>
<path d="M227.03 24.668H232.347L238.403 24.8157L238.551 24.9634V25.8497L238.256 26.2928L235.154 26.4405V41.5072L235.006 41.6549H228.802L228.654 39.8823L228.507 26.4405H225.257L225.109 26.2928L225.257 24.8157L227.03 24.668ZM229.688 26.4405V40.1777H233.824L233.972 38.2575V26.4405H229.688Z" fill="#E1218B"/>
<path d="M266.474 24.668H276.961L277.109 24.8157V26.2928L273.564 26.4405L273.416 41.6549L267.655 41.8026L267.065 41.5072V26.4405H264.11L263.667 26.2928L263.52 25.1111L263.667 24.8157L266.474 24.668ZM268.246 26.4405V40.1777H272.53V26.4405H268.246Z" fill="#E1218B"/>
<path d="M46.3789 24.8154H52.7305L52.8782 24.9631V38.5527L52.7305 40.0298H58.3436L58.4913 40.4729V41.6546H46.5266L46.3789 41.5069V24.8154ZM47.5606 25.9971L47.4129 26.1448V40.0298L47.5606 40.1775H51.5488L51.8443 40.0298V26.588L51.6965 26.1448L49.1854 25.9971H47.5606Z" fill="#E1278E"/>
<path d="M252.144 24.8154H258.495V40.0298H263.961L264.256 40.4729V41.5069L264.108 41.6546H252.144L251.996 37.8141V24.9631L252.144 24.8154ZM253.326 25.9971L253.178 27.7697V40.0298L255.984 40.1775L257.609 40.0298V26.1448L256.723 25.9971H253.326Z" fill="#E1248C"/>
<path d="M213.739 49.04L214.626 49.1878L215.364 49.9263L216.398 51.4034L218.023 53.7668L220.091 56.7211L220.239 56.8688L220.091 53.3237V49.1878H221.568L221.716 49.3355V59.5276L221.568 59.6753H220.386L219.648 58.9368L218.466 57.3119L214.921 51.9943L214.773 59.3799L214.626 59.6753H213.444L213.148 59.2322L213.296 49.1878L213.739 49.04Z" fill="#CC4116"/>
<path d="M168.241 49.1885H169.571L170.457 50.2225L172.082 52.5859L173.855 55.2447L174.889 56.7218L175.036 49.1885H176.513V59.676H175.184L174.445 58.9375L172.968 56.8695L171.491 54.6538L169.866 51.995L169.719 53.3244L169.571 59.5283L169.423 59.676H168.389L168.094 59.5283V49.3362L168.241 49.1885Z" fill="#CC4116"/>
<path d="M124.669 24.668H129.395L129.543 24.8157V41.5072L129.395 41.6549H123.339L123.191 41.3594V24.9634L123.339 24.8157L124.669 24.668ZM124.373 25.9974L124.225 26.1451V40.03H128.657V26.1451L128.509 25.9974H124.373Z" fill="#E1218B"/>
<path d="M66.0257 24.668L66.4688 24.8157V41.5072L66.3211 41.6549H60.2649L60.1172 39.4392V24.9634L60.2649 24.8157L66.0257 24.668ZM61.2989 25.9974L61.1512 26.1451V40.03H65.4348L65.5825 39.5869V26.1451L63.9577 25.9974H61.2989Z" fill="#E1218B"/>
<path d="M0.147712 49.1885H5.46535L7.09018 49.7793L8.12417 50.8133L8.86273 52.2904L9.01044 53.029V55.5401L8.71502 57.0172L7.68103 58.4943L6.79476 59.2329L5.90849 59.5283L4.57908 59.676H0.147712L0 59.5283V49.3362L0.147712 49.1885ZM1.62483 50.3702L1.47712 50.5179V58.1989L2.06797 58.4943H4.28365L5.61306 58.3466L6.49933 57.7558L7.09018 57.0172L7.53332 55.6878L7.68103 54.2107L7.38561 52.4381L6.64705 51.2564L5.90849 50.6656L4.72679 50.3702H1.62483Z" fill="#CC4115"/>
<path d="M205.613 48.8926L207.533 49.0403L209.306 49.9266L210.34 51.1083L210.93 52.4377L211.078 53.0285V55.835L210.487 57.4599L209.158 58.937L208.272 59.5279L207.238 59.8233H204.431L202.954 59.2324L201.772 58.0507L201.034 56.5736L200.738 55.2442V53.6194L201.181 51.8468L202.068 50.5174L203.249 49.4834L204.283 49.0403L205.613 48.8926ZM204.874 50.222L203.693 50.8128L202.806 51.8468L202.363 52.7331L202.215 53.6194V55.6873L202.806 57.1645L203.988 58.1984L205.022 58.6416H206.794L208.272 57.903L209.158 56.869L209.453 56.2782L209.601 55.3919V53.4717L209.158 51.9945L208.567 51.256L207.238 50.3697L206.794 50.222H204.874Z" fill="#CC4116"/>
<path d="M88.7734 49.1885H90.2506L90.3983 53.3244L95.5682 53.4721L95.7159 49.1885H97.193V59.5283L97.0453 59.676L95.7159 59.5283V54.8015H90.3983V59.5283L90.2506 59.676H89.0689L88.7734 59.5283V49.1885Z" fill="#CC4117"/>
<path d="M136.927 49.04H137.665L137.813 49.1878V53.4714H143.131L143.278 49.1878H144.756V59.6753H143.426L143.278 59.5276V54.8008H137.961L137.813 59.6753H136.779L136.336 59.5276V49.4832L136.484 49.1878L136.927 49.04Z" fill="#CC4116"/>
<path d="M286.265 49.1885H288.481L289.662 49.927L290.401 51.1087V52.4381L289.662 53.7676L289.81 54.3584L290.549 55.2447L290.844 56.2787L290.696 57.9035L289.81 59.0852L288.924 59.676L287.594 59.9715H286.413L285.231 59.5283L284.049 58.1989L283.754 57.4604V55.5401L284.788 54.3584L285.083 54.063L284.197 52.5859L284.049 52.2904V51.2564L284.936 49.927L285.822 49.3362L286.265 49.1885ZM287.151 50.2225L285.97 50.6656L285.379 51.2564V52.4381L285.822 52.8813L287.151 53.3244L288.628 53.029L289.072 52.5859V51.5519L288.481 50.6656L287.447 50.2225H287.151ZM286.413 54.5061L285.674 54.9493L285.083 55.6878L284.936 57.0172L285.379 57.9035L286.117 58.4943L286.856 58.7898L288.185 58.6421L289.072 58.0512L289.515 57.4604L289.662 56.2787L289.219 55.3924L288.185 54.5061H286.413Z" fill="#CC4116"/>
<path d="M277.995 49.1885H279.915L281.244 49.7793L282.131 50.8133L282.574 51.995L282.722 54.5061L282.574 56.4264L282.131 57.9035L281.097 59.2329L279.915 59.8238L279.176 59.9715H278.142L277.108 59.5283L276.222 58.7898L275.779 57.7558V57.0172L276.518 57.1649L278.142 58.4943L279.324 58.6421L280.358 58.0512L280.949 57.1649L281.244 55.5401L279.915 56.1309L277.995 56.2787L276.813 55.8355L275.927 54.8015L275.484 53.7676L275.336 52.4381L275.779 50.961L276.813 49.7793L277.995 49.1885ZM278.438 50.3702L277.404 50.961L276.665 52.1427V53.3244L277.256 54.5061L278.142 54.9493H279.915L280.949 54.3584L281.392 53.3244V52.1427L280.801 50.961L279.915 50.3702H278.438Z" fill="#CC4117"/>
<path d="M182.718 48.8926L183.604 49.188L185.229 53.0285L187.592 58.937L187.74 59.5279L187.592 59.6756H186.558L186.115 59.2324L185.081 56.869L184.933 56.4259H180.354L179.911 57.7553L179.32 59.3801L179.025 59.6756H177.843L177.695 59.2324L178.877 56.2782L180.797 51.5514L181.979 49.188L182.718 48.8926ZM182.718 50.6651L181.684 52.7331L180.797 55.2442L184.49 55.3919L184.047 53.7671L183.013 50.8128L182.718 50.6651Z" fill="#CC4116"/>
<path d="M24.0733 49.1885H25.1073L25.255 49.3362L25.4027 55.8355L25.255 59.3806L25.1073 59.676L23.4824 59.5283L22.7439 59.8238H20.5282L19.3465 58.9375L18.4602 57.3126L18.3125 56.7218V55.3924L18.6079 53.9153L19.4942 52.5859L20.2328 51.995L21.7099 51.6996L23.0393 51.995L24.0733 52.5859L23.9256 51.2564V49.3362L24.0733 49.1885ZM21.4145 52.8813L20.3805 53.3244L19.9373 53.9153L19.6419 54.9493V56.8695L20.2328 58.0512L21.119 58.6421H22.4484L23.3347 58.0512L23.7778 57.4604L24.0733 56.1309L23.9256 54.5061L23.187 53.4721L22.4484 53.029L21.4145 52.8813Z" fill="#CC4116"/>
<path d="M64.253 49.1885H65.2869L65.4347 49.3362V59.5283L64.4007 59.676L63.6621 59.3806L62.7758 59.8238H60.7079L59.5262 58.9375L58.6399 57.3126L58.4922 56.7218V54.9493L59.2307 53.1767L60.117 52.1427L61.2987 51.6996L62.6281 51.8473L64.253 52.5859V49.1885ZM61.5941 52.8813L60.5602 53.3244L59.9693 54.2107L59.6739 55.3924L59.8216 56.8695L60.4124 57.9035L61.2987 58.6421H62.6281L63.5144 58.0512L63.9575 57.4604L64.1052 57.0172V54.5061L63.5144 53.6198L62.6281 53.029L61.5941 52.8813Z" fill="#CC4116"/>
<path d="M13.2919 51.6992L15.0645 51.8469L16.2462 52.5855L17.1324 54.0626L17.2801 54.5057V56.1306L16.6893 56.2783H11.0762L11.8148 57.7554L12.5533 58.3463L13.2919 58.6417H14.3259L15.803 57.7554L16.837 57.0169H17.1324L16.9847 58.0508L16.0984 59.2325L15.0645 59.8234L14.4736 59.9711H12.7011L11.6671 59.528L10.6331 58.6417L9.89453 57.0169V54.8012L10.3377 53.6195L10.9285 52.7332L12.4056 51.8469L13.2919 51.6992ZM13.1442 52.8809L11.9625 53.3241L11.3717 54.2103V54.9489L11.5194 55.0966H15.5076L15.9507 54.8012L15.6553 53.9149L14.9167 53.1763L14.0305 52.8809H13.1442Z" fill="#CC4117"/>
<path d="M257.314 51.6992H258.791L259.972 52.1424L260.859 52.8809L261.597 54.358L261.893 55.8352L261.745 56.1306L259.972 56.2783H255.836L255.984 57.3123L256.427 58.0508L257.609 58.6417H258.643L260.12 57.9031L260.859 57.3123L261.597 57.0169L261.45 58.0508L260.563 59.2325L259.529 59.8234L258.791 59.9711H257.018L255.836 59.3802L254.95 58.3463L254.359 57.1646V54.5057L254.95 53.3241L255.541 52.5855L256.723 51.8469L257.314 51.6992ZM257.461 52.8809L256.28 53.4718L255.836 54.2103V54.9489L255.984 55.0966H260.12L260.416 54.6535L259.677 53.4718L258.643 52.8809H257.461Z" fill="#CC4116"/>
<path d="M40.7667 51.6992H42.687L43.5733 52.1424L44.3118 53.0286L44.4595 53.4718L44.6073 57.0169V59.528L44.4595 59.6757L43.4256 59.528L42.8347 59.2325L42.2439 59.6757L40.7667 59.9711H39.7328L38.6988 59.528L38.1079 58.7894L37.8125 57.9031V56.8691L38.2556 56.1306L39.7328 55.392L42.687 54.9489L42.9824 54.8012L42.8347 53.4718L42.2439 53.0286H40.619L39.7328 53.6195L39.1419 54.2103L38.2556 54.358V53.4718L38.8465 52.5855L39.585 51.9946L40.7667 51.6992ZM41.2099 56.2783L39.7328 56.5737L39.1419 57.0169V58.0508L39.8805 58.7894H41.3576L42.5393 58.1986L43.1301 57.46L43.2778 56.426L43.1301 56.2783H41.2099Z" fill="#CC4116"/>
<path d="M53.3214 51.6992H54.7986L56.128 52.1424L57.1619 53.3241L57.7528 54.8012V55.9829L57.4574 56.1306L51.5489 56.2783L52.4352 58.0508L53.6169 58.6417H54.7986L56.128 57.9031L57.0142 57.1646H57.6051L57.4574 58.0508L56.7188 59.0848L55.5371 59.8234L54.7986 59.9711H53.026L51.8443 59.3802L50.958 58.3463L50.3672 57.0169V54.8012L51.4012 52.7332L52.7306 51.8469L53.3214 51.6992ZM53.3214 52.8809L52.2874 53.4718L51.6966 54.6535L52.1397 55.0966H56.128L56.4234 54.9489L56.2757 54.2103L55.5371 53.3241L54.5031 52.8809H53.3214Z" fill="#CC4116"/>
<path d="M297.047 49.3359L297.785 49.4836L297.933 50.2222V53.0287L298.081 55.6876L299.115 56.1307L299.262 56.7215L298.081 57.3124L297.933 59.5281L296.899 59.6758L296.751 59.5281L296.604 57.3124L296.456 57.1647L291.581 57.017L291.434 56.2784L292.32 55.0967L293.797 53.1765L295.422 51.1085L297.047 49.3359ZM296.308 51.847L294.831 53.7673L293.502 55.6876V55.8353L294.683 55.983H296.16L296.604 55.8353L296.751 55.5398V52.7333L296.604 51.847H296.308Z" fill="#CC4216"/>
<path d="M153.766 51.6992H154.948L156.277 52.1424L157.311 53.0286L157.902 54.2103L158.05 54.8012V56.2783L157.607 58.0508L156.573 59.2325L155.982 59.6757L154.505 59.9711L152.88 59.8234L151.698 58.7894L150.959 57.6077L150.664 56.2783V55.2443L151.107 53.7672L151.698 52.8809L152.732 51.9946L153.766 51.6992ZM154.061 52.8809L153.027 53.3241L152.437 53.9149L152.141 54.6535V57.0169L152.732 58.0508L153.618 58.6417H155.095L155.982 58.0508L156.573 57.1646L156.72 56.426V55.2443L156.129 53.7672L155.391 53.1763L154.8 52.8809H154.061Z" fill="#CC4116"/>
<path d="M78.5831 51.6992H79.6171L81.0943 52.1424L81.8328 52.7332L82.5714 53.9149L82.8668 54.8012V56.2783L82.4237 58.0508L81.3897 59.2325L80.6511 59.6757L79.3217 59.9711H78.2877L77.2537 59.528L76.2198 58.494L75.6289 57.0169V54.6535L76.2198 53.3241L77.106 52.2901L77.8446 51.8469L78.5831 51.6992ZM78.7309 52.8809L77.8446 53.3241L77.106 54.2103L76.9583 54.6535V57.0169L77.4015 57.9031L78.4354 58.6417H79.9126L80.7988 58.0508L81.3897 57.1646V54.6535L80.6511 53.4718L79.6171 52.8809H78.7309Z" fill="#CC4117"/>
<path d="M229.544 51.6992H231.169L232.35 52.1424L233.237 53.1763V54.0626L232.646 54.2103L231.759 53.6195L231.169 53.1763L230.726 53.0286H229.544L228.953 53.6195L229.101 54.358L229.544 54.6535L231.612 55.0966L233.384 55.9829L233.827 56.7214V57.9031L232.941 59.2325L231.907 59.8234L231.316 59.9711H229.987L228.658 59.528L227.771 58.7894L227.328 57.6077L227.476 56.8691L228.362 57.3123L229.544 58.3463L230.282 58.6417H231.464L232.203 58.1986L232.498 57.46V57.0169L229.987 56.426L228.214 55.6874L227.624 54.9489L227.476 53.9149L227.919 52.7332L228.805 51.9946L229.544 51.6992Z" fill="#CC4116"/>
<path d="M125.848 49.1885H134.858L135.006 49.3362V50.2225L134.858 50.3702L131.165 50.5179V59.5283L131.018 59.676H129.836L129.688 59.5283L129.54 57.0172V50.5179L125.995 50.3702L125.848 50.0747V49.1885Z" fill="#CC4116"/>
<path d="M242.098 51.6992H243.575L244.757 52.4378L245.2 53.3241L245.348 54.2103V59.528L245.052 59.6757H244.166L244.018 59.3803L243.871 54.358L243.427 53.4718L242.837 53.0286H241.803L240.916 53.6195L240.473 54.6535L240.326 59.528L239.292 59.6757L238.996 59.3803V51.9946H239.882L240.769 52.2901L241.507 51.8469L242.098 51.6992Z" fill="#CC4117"/>
<path d="M186.999 49.1885H195.714L195.862 50.2225L195.714 50.3702H192.169L192.021 59.676H190.84L190.544 59.2329L190.397 50.5179L186.999 50.3702L186.852 49.3362L186.999 49.1885Z" fill="#CC4115"/>
<path d="M249.631 51.6992H251.403L252.733 52.2901L253.324 53.0286L253.619 53.7672L253.471 54.5057L252.733 54.358L251.256 53.1763H249.778L249.04 53.6195L248.301 55.0966V56.426L248.744 57.6077L249.483 58.3463L250.222 58.6417L251.403 58.494L252.585 57.46L253.324 56.7214L253.914 57.3123L253.471 58.3463L252.437 59.528L251.256 59.9711H249.483L248.597 59.528L247.858 58.7894L247.12 57.6077L246.824 56.2783L246.972 54.6535L247.563 53.3241L248.597 52.1424L249.631 51.6992Z" fill="#CC4117"/>
<path d="M33.2323 51.6992H34.8571L36.0388 52.1424L36.9251 53.3241L37.0728 54.2103L36.9251 54.5057L36.0388 54.2103L35.0049 53.3241L34.414 53.0286H33.38L32.4938 53.6195L32.0506 54.5057L31.9029 55.0966V56.7214L32.4938 57.9031L33.2323 58.494L34.414 58.6417L35.3003 58.1986L36.482 56.8691L37.2205 57.0169L37.516 57.6077L36.6297 58.9371L35.5957 59.6757L34.414 59.9711H33.0846L32.0506 59.528L31.0166 58.3463L30.4258 56.426L30.5735 54.5057L31.4598 52.7332L32.6415 51.8469L33.2323 51.6992Z" fill="#CC4116"/>
<path d="M119.941 49.1885H121.27L121.418 49.3362V58.3466H126.292L126.735 58.7898V59.5283L125.701 59.676H120.088L119.941 59.5283L119.793 49.3362L119.941 49.1885Z" fill="#CC4118"/>
<path d="M295.864 36.042H297.932L298.818 36.4851L299.705 37.5191L300 38.4054V39.4394L299.557 40.7688L298.375 41.8028L297.637 42.0982H295.716L294.978 41.6551L294.092 40.6211L293.648 39.2917L293.796 38.11L294.682 36.7806L295.421 36.1897L295.864 36.042ZM296.603 37.2237L295.569 37.6668L295.126 38.2577L294.978 39.1439L295.421 40.1779L296.012 40.7688L297.046 40.9165L297.932 40.6211L298.523 40.0302L298.671 39.7348V38.5531L298.08 37.6668L297.784 37.3714L296.603 37.2237Z" fill="#E1238C"/>
<path d="M240.916 36.042H243.132L244.018 36.4851L244.905 37.5191L245.2 38.4054V39.4394L244.757 40.7688L243.575 41.8028L242.689 42.0982H241.064L240.178 41.6551L239.292 40.6211L238.996 39.8825V38.11L239.587 36.9283L240.326 36.3374L240.916 36.042ZM241.359 37.3714L240.621 37.8145L240.178 38.5531L240.326 39.8825L240.916 40.6211L241.803 40.9165L242.984 40.7688L243.871 39.8825V38.5531L243.427 37.8145L242.837 37.3714H241.359Z" fill="#E1238C"/>
<path d="M162.039 48.8926H163.073L163.368 49.0403V49.7789L162.63 50.0743L161.448 50.3697L161.152 50.9605V51.6991L162.334 51.9945L162.63 52.29V53.0285L161.448 53.4717H161.152V59.5279L160.266 59.6756L159.823 59.2324V57.3122L159.675 53.4717L158.789 52.7331V52.1422L159.675 51.8468L160.118 49.7789L160.709 49.188L162.039 48.8926Z" fill="#CC4116"/>
<path d="M72.8201 49.4834L73.411 49.6311L73.5587 51.6991L74.7404 52.1422L74.5927 52.8808L73.8541 53.4716L73.5587 55.3919V57.0167L73.8541 58.3461L75.0358 59.5278L75.1835 59.971H73.411L72.5247 59.3801L72.2293 58.937L72.0816 57.4599V53.4716L71.343 53.1762L71.1953 52.2899L72.0816 51.6991L72.377 49.9265L72.8201 49.4834Z" fill="#CC4117"/>
<path d="M47.4132 49.4834L48.1517 49.6311V51.1082L48.4472 51.6991L49.3334 52.1422L49.4811 52.7331L48.4472 53.6193L48.2994 54.6533V57.1644L48.7426 58.4938L49.6289 59.5278V59.971H48.1517L47.2655 59.5278L46.97 58.7893L46.8223 57.1644V53.4716L46.0838 53.1762L45.6406 52.5854L46.0838 52.1422L46.8223 51.6991L47.1177 49.7788L47.4132 49.4834Z" fill="#CC4117"/>
<path d="M271.641 49.04H271.936L272.084 53.0283V59.5276L271.936 59.6753H270.902L270.754 59.3799V51.6989L268.539 52.7328H267.652L267.8 52.142L269.72 50.6649L270.459 50.074H270.754L271.05 49.4832L271.641 49.04Z" fill="#CC4117"/>
<path d="M197.787 49.04L198.821 49.1878V59.5276L198.673 59.6753H197.491L197.344 59.5276V49.1878L197.787 49.04Z" fill="#CC4115"/>
<path d="M235.896 51.8467L236.783 51.9944L236.93 52.1421V59.5277L236.339 59.6754L235.453 59.5277L235.601 51.9944L235.896 51.8467Z" fill="#CC4118"/>
<path d="M27.7681 51.8467L28.6544 51.9944L28.8021 59.38L28.6544 59.6754H27.7681L27.4727 59.38V51.9944L27.7681 51.8467Z" fill="#CC4116"/>
<path d="M235.749 49.1885H236.487L236.93 49.6316L236.635 50.3702H235.749L235.453 49.6316L235.749 49.1885Z" fill="#CC4215"/>
<path d="M27.7681 49.1885H28.5066L28.6544 49.3362V50.2225L28.5066 50.3702H27.7681L27.4727 50.0747L27.6204 49.3362L27.7681 49.1885Z" fill="#CC4117"/>
</svg>
