<svg width="220" height="100" viewBox="0 0 220 100" fill="none" xmlns="http://www.w3.org/2000/svg">
<path d="M60.5879 5.84961L73.4785 5.9621L75.5195 6.07458L77.668 6.41204L80.2461 7.19944L82.502 8.21181L84.1133 9.22419L85.832 10.6865L87.2285 12.1488L88.3027 13.8361L89.1621 15.5234L89.9141 17.7731L90.3438 20.2478L90.4512 21.7101V23.1724L90.2363 25.5346L89.6992 27.8969L89.0547 29.5841L88.0879 31.4964L87.2285 32.8462L85.9395 34.3086L85.0801 35.2084L84.0059 36.1083L82.502 37.1207L80.0312 38.358L78.2051 38.9205L76.0566 39.3704L74.3379 39.5954L72.6191 39.7079L60.4805 39.8204L60.2656 39.5954L61.2324 38.4705L61.9844 37.5706L62.1992 37.0082L62.3066 35.7709V8.54927L61.7695 7.42441L60.6953 6.41204L60.5879 5.84961ZM71.4375 9.56165L68.8594 9.78662L67.5703 10.1241L67.4629 10.349V35.8834L68.3223 35.9958H72.1895L74.4453 35.7709L76.5938 35.2084L78.7422 34.3086L80.3535 33.2962L81.75 31.9463L82.502 31.1589L83.4688 29.5841L84.1133 28.1218L84.7578 25.5346L84.8652 24.5223V22.0476L84.6504 19.9104L84.2207 17.9981L83.6836 16.4233L82.8242 14.736L81.75 13.2737L80.5684 12.1488L79.1719 11.2489L77.9902 10.6865L75.9492 10.0116L73.9082 9.67413L71.4375 9.56165Z" fill="#3B8334"/>
<path d="M129.121 5.84961L142.119 5.9621L144.912 6.18707L147.061 6.63701L149.316 7.42441L151.787 8.66176L153.398 9.78662L155.01 11.2489L155.977 12.4863L156.943 14.0611L157.803 15.8609L158.447 17.6606L158.77 19.123L158.984 21.7101V23.3974L158.877 25.1972L158.447 27.2219L157.695 29.3592L156.621 31.4964L155.547 33.0712L154.365 34.421L153.076 35.6584L151.143 37.0082L149.531 37.9081L147.598 38.6955L145.234 39.2579L142.871 39.5954L141.045 39.7079H128.906L129.336 39.033L130.195 38.1331L130.732 37.0082L130.84 36.2208L130.947 23.2849V9.8991L130.84 8.54927L130.41 7.64938L129.873 7.08695L129.229 6.29955L129.121 5.84961ZM139.541 9.56165L137.285 9.78662L136.104 10.1241L135.996 10.2366V35.7709L136.104 35.8834L137.607 35.9958H141.152L143.086 35.7709L145.234 35.2084L147.275 34.3086L148.672 33.4087L149.746 32.5088L151.143 31.0465L152.002 29.5841L152.539 28.3468L152.969 27.1095L153.291 25.5346L153.398 24.6348V21.9351L153.076 19.4604L152.646 17.5481L151.787 15.5234L151.143 14.3985L150.176 13.1612L149.102 12.1488L147.705 11.2489L145.986 10.4615L143.945 9.8991L142.549 9.67413L140.83 9.56165H139.541Z" fill="#3B8334"/>
<path d="M173.059 5.84961L176.496 5.9621H180.578L180.9 6.41204L181.652 8.77424L183.264 12.8237L185.412 18.3355L186.594 21.4852L188.098 25.3097L190.139 30.709L191.32 33.7461L192.072 35.5459L192.932 37.1207L193.898 38.2456L195.295 39.2579L195.402 39.5954L195.295 39.7079L185.627 39.8204L185.734 39.3704L186.271 38.9205L187.023 38.4705H187.238L187.023 37.0082L186.271 34.7585L185.09 31.3839L183.801 27.6719L183.479 27.1095H171.232L170.803 28.1218L169.943 30.5965L169.191 32.9587L167.902 36.6708L167.795 37.7956L168.117 38.358L169.406 39.3704V39.7079L160.812 39.8204L161.027 39.3704L162.424 38.1331L163.283 37.1207L164.25 35.2084L167.258 27.3344L169.084 22.4975L171.125 17.0982L172.844 12.5988L174.133 8.99922L174.348 7.76187L173.918 7.08695L173.166 6.41204L173.059 5.84961ZM177.248 10.349L176.818 11.2489L176.066 13.4987L174.562 17.5481L173.166 21.1477L172.414 23.06V23.2849H181.975L181.867 22.7225L180.256 18.1106L178.107 12.2613L177.678 10.9115L177.355 10.349H177.248Z" fill="#3B8334"/>
<path d="M104.627 5.84961L107.742 5.9621H109.998L111.824 5.84961L112.254 6.52452L113.865 10.6865L115.584 15.0735L117.518 20.1353L119.236 24.5223L120.525 27.8969L121.707 31.0465L123.211 34.7585L124.07 36.5583L124.715 37.5706L125.574 38.4705L126.434 39.1454L126.648 39.7079L126.434 39.8204L117.088 39.7079L117.195 39.2579L118.592 38.358V37.3457L117.84 35.096L116.873 32.3963L115.477 28.3468L114.939 27.2219L114.725 26.997L102.908 27.1095L102.586 27.2219L100.652 32.8462L99.3633 36.6708L99.2559 37.1207V37.9081L99.793 38.583L100.867 39.3704V39.7079L92.2734 39.8204L92.4883 39.3704L93.9922 38.0206L94.6367 37.2332L95.4961 35.6584L96.3555 33.5212L98.0742 29.0217L99.4707 25.3097L100.975 21.3727L104.197 12.8237L105.701 8.66176L105.809 7.5369L105.057 6.86198L104.52 6.41204L104.627 5.84961ZM108.387 10.574L107.742 12.8237L106.346 16.6483L104.52 21.3727L103.875 23.06V23.2849H113.543L113.221 22.2726L111.502 17.5481L109.891 13.1612L108.924 10.799L108.709 10.574H108.387Z" fill="#3B8334"/>
<path d="M197.873 5.84961H207.004L206.789 6.29955L205.715 7.31193L205.178 8.43679L204.963 9.67413L204.855 32.2838V39.2579L204.748 44.3198L204.426 45.4447L203.459 47.2444L202.492 48.3693L201.525 49.1567L199.807 50.0566L196.906 51.069L194.973 51.5189L193.898 51.6314L194.113 51.1814L195.832 49.8316L196.906 48.9317L197.873 47.9193L198.732 46.457L199.377 44.4323L199.699 42.6325L199.807 40.0453V8.77424L199.377 7.87436L198.195 6.52452L197.873 6.07458V5.84961Z" fill="#3B8334"/>
<path d="M210.332 5.84961L216.777 5.9621L218.496 5.84961H219.678L219.141 6.41204L217.959 7.5369L217.529 8.3243L217.422 8.99922V36.8957L217.744 37.7956L218.496 38.6955L219.463 39.4829L219.355 39.8204H210.332L210.547 39.3704L211.406 38.4705L211.943 37.5706L212.158 35.9958V9.44916L211.943 8.21181L211.406 7.19944L210.654 6.52452L210.332 6.07458V5.84961Z" fill="#3B8334"/>
<path d="M18.7969 25.9844L19.2266 26.0969L19.1191 26.5468L18.2598 27.7842L17.4004 29.2465L16.8633 30.4838L16.541 31.9461V34.7583L16.8633 36.5581L17.4004 38.0204L18.4746 40.1576L19.1191 41.2825L20.4082 43.1947L21.8047 45.107L23.0938 46.9068L23.9531 48.0316L25.0273 49.7189L26.1016 51.6312L26.9609 53.3185L27.8203 55.5682L28.25 57.0305L28.5723 59.0552L28.6797 60.1801V62.2048L28.4648 64.9045L28.0352 66.8168L27.498 68.1666L26.1016 70.4163L24.9199 71.7662L23.7383 72.891L22.2344 73.7909L21.0527 74.1284L20.4082 74.0159L20.5156 73.5659L21.2676 72.891L22.6641 71.8786L23.416 71.2037L24.3828 69.9664L25.3496 68.3916L25.6719 67.6042L25.7793 66.8168L22.0195 66.9293L20.9453 67.2667L20.4082 67.7167L19.5488 67.8291L18.6895 66.9293L18.3672 66.0294L18.4746 65.242L19.0117 64.792L19.6562 64.4546H20.3008L21.1602 65.017L22.0195 65.1295L26.1016 65.242L26.3164 63.2172L26.209 60.5176L25.7793 58.1554L25.5645 57.8179H20.1934L19.5488 58.0429L18.6895 58.4928L17.6152 58.3803L17.1855 58.1554L16.9707 57.5929V56.3556L17.293 55.5682L17.5078 55.3432L18.4746 55.2307L19.9785 55.9056L20.5156 56.0181L24.8125 56.1306L25.1348 56.2431L24.5977 54.5558L23.7383 52.6435L22.6641 50.8438L21.5898 49.3815L20.1934 47.3567L18.9043 45.5569L17.5078 43.5322L16.541 41.8449L15.4668 39.4827L14.7148 37.1205L14.5 35.3207V33.1835L14.8223 31.3837L15.252 30.1464L16.4336 28.2341L17.6152 26.7718L18.4746 26.0969L18.7969 25.9844Z" fill="#3B8334"/>
<path d="M10.207 17.998L12.0332 18.1105L13.3223 18.448L14.6113 19.0104L15.9004 19.7978L16.8672 20.5852L17.5117 21.2601V21.4851L16.9746 21.5976L10.3145 22.0475L9.99219 22.16L10.959 22.4975L16.6523 22.8349L17.5117 22.9474V23.2849L16.5449 24.2973L14.8262 25.4221L13.2148 26.097L11.1738 26.4345H8.70312L6.87695 26.097L5.48047 25.5346L3.6543 24.6347L2.25781 23.5099L1.61328 22.9474L1.39844 22.4975L1.50586 21.9351L2.36523 20.9227L3.43945 20.0228L5.1582 19.1229L6.44727 18.5605L7.73633 18.223L10.207 17.998Z" fill="#3B8334"/>
<path d="M36.6309 17.8857H38.1348L40.1758 18.2232L42.1094 18.8981L43.8281 19.798L44.9023 20.4729L46.1914 21.4853L46.7285 22.1602L46.6211 22.6102L45.8691 23.51L44.5801 24.5224L42.8613 25.4223L40.9277 26.0972L39.209 26.4347H36.0938L34.2676 25.9847L32.7637 25.1973L31.582 24.185L30.7227 23.3976L30.9375 22.9476L31.3672 22.8351L36.8457 22.4977L37.9199 22.3852L38.1348 22.2727L37.7051 22.0477L33.7305 21.7103L30.5078 21.5978L30.7227 21.0353L31.7969 20.023L33.9453 18.6731L35.8789 17.9982L36.6309 17.8857Z" fill="#3B8334"/>
<path d="M23.9551 4.49902H24.5996L25.6738 5.39891L26.4258 6.52377L27.1777 8.21106L27.8223 10.2358L28.1445 11.8106L28.252 12.9355V15.0727L27.9297 16.76L27.6074 17.8849L26.5332 19.9096L25.5664 21.1469L25.0293 21.2594L24.8145 21.0345L24.4922 15.6351L24.2773 13.8354L24.1699 13.6104L24.0625 13.9478L23.6328 20.3595L23.3105 20.8095L22.666 20.697L21.9141 19.7971L21.0547 18.1098L20.4102 16.0851L20.1953 14.8477V13.1604L20.5176 11.0232L21.0547 9.22343L22.0215 6.86123L22.8809 5.5114L23.6328 4.724L23.9551 4.49902Z" fill="#3B8334"/>
<path d="M124.287 48.2559H126.328L127.939 48.8183L128.799 49.4932L129.121 50.843L129.014 51.6304L128.906 51.8554L128.369 51.7429L126.865 50.7306L126.006 50.5056H124.824L123.75 51.068L122.891 51.9679L122.461 52.8678L122.246 54.5551L122.568 55.9049L123.213 56.9173L124.287 58.0421L127.295 60.5168L128.369 61.5292L129.014 62.3166L129.658 63.6664L129.873 64.5663V67.041L129.551 68.3908L128.799 69.9656L127.832 71.203L126.758 71.9904L125.898 72.3279L125.254 72.4403H123.535L121.924 72.1029L121.064 71.6529L120.742 71.203L120.527 70.4156V68.8408L120.635 68.6158L121.172 68.8408L122.676 69.9656L123.857 70.3031H125.254L126.221 69.7407L126.758 69.1782L127.295 68.2784L127.51 67.491L127.617 65.9162L127.295 64.3413L126.65 63.2165L125.576 62.0916L123.535 60.5168L122.246 59.2795L121.279 58.1546L120.527 56.8048L120.205 55.7924L120.098 55.1175V53.6552L120.312 52.3054L120.85 50.9555L121.816 49.6057L123.32 48.5933L124.287 48.2559Z" fill="#AEC71E"/>
<path d="M17.834 45.8945L18.3711 46.007L19.123 47.0194L19.2305 47.4693H19.4453L19.6602 47.8068V48.1442L19.123 48.7067L17.9414 50.169L17.1895 51.4063H18.4785L19.5527 51.1814L20.627 50.7314L21.3789 50.6189L22.1309 51.4063L22.5605 52.5312L22.4531 53.2061L22.0234 53.5436L20.8418 53.881L20.1973 53.7685L19.5527 53.3186L19.0156 53.2061H17.1895L16.4375 53.5436L16.0078 54.2185L15.4707 56.3557L15.2559 58.043V60.1802L15.5781 60.5177L16.5449 60.7427H19.4453L21.8086 60.6302L22.8828 60.0678L23.7422 59.8428H24.3867L24.8164 60.2927L24.9238 60.5177L25.0312 62.43L24.709 62.8799L24.2793 62.9924H23.5273L22.4531 62.6549L21.8086 62.43H16.0078L15.5781 62.6549L16.1152 64.4547L17.1895 66.4795L18.4785 68.2792L19.0156 69.0666V69.4041L18.1562 69.2916L17.082 68.5042L16.1152 67.4918L14.9336 65.6921L13.9668 63.7798L13.3223 61.6426L13 59.5053V56.9182L13.3223 54.5559L13.9668 52.3062L14.6113 50.8439L15.5781 49.0441L16.6523 47.4693L17.5117 46.232L17.834 45.8945Z" fill="#AEC71E"/>
<path d="M101.729 55.9062H103.125L104.199 56.3562L105.059 57.1436L105.811 58.3809L106.348 59.9557L106.562 61.3056L106.67 62.5429V64.3427L106.24 64.5677L104.629 64.6802H100.117L100.225 66.8174L100.547 68.5047L101.084 69.6295L101.621 70.192L102.266 70.5294L103.125 70.4169L103.662 70.0795L104.092 69.2921L104.307 68.3922L104.414 66.7049L104.521 66.5924H106.455L106.562 66.7049V67.8298L106.24 69.4046L105.596 70.7544L104.736 71.7668L103.984 72.2167L102.91 72.4417L101.406 72.3292L100.439 71.8793L99.5801 70.8669L98.7207 69.0671L98.291 67.3798L98.0762 65.9175L97.9688 64.4552V62.8804L98.291 60.6307L98.8281 58.9434L99.6875 57.2561L100.547 56.4687L101.406 56.0187L101.729 55.9062ZM101.943 57.706L101.299 58.156L100.547 59.7308L100.117 61.3056L100.01 62.6554L100.547 62.8804H104.199L104.521 62.6554L104.629 62.3179L104.521 60.6307L104.092 58.8309L103.662 58.156L103.018 57.706H101.943Z" fill="#AEC71E"/>
<path d="M164.785 55.9062H165.967L167.041 56.2437L167.793 56.8061L168.76 58.3809L169.297 60.0682L169.619 62.7679V64.3427L169.404 64.5677L167.686 64.6802L163.066 64.7926L163.281 67.3798L163.604 68.7296L164.033 69.6295L164.57 70.192L164.893 70.4169H165.967L166.504 70.0795L166.934 69.517L167.256 68.5047L167.471 66.5924H169.082L169.404 66.7049V68.3922L169.189 69.517L168.545 70.7544L167.686 71.7668L166.934 72.2167L165.43 72.4417L163.926 72.2167L163.066 71.5418L162.314 70.5294L161.67 69.0671L161.24 67.6048L160.918 65.2426V62.8804L161.24 60.6307L161.777 58.9434L162.422 57.5935L163.281 56.5812L164.355 56.0187L164.785 55.9062ZM164.893 57.706L164.355 58.0435L163.711 59.0559L163.174 60.8556L162.959 62.5429L163.066 62.7679L163.389 62.8804H167.363L167.578 62.6554V60.8556L167.148 59.0559L166.826 58.3809L166.289 57.8185L165.967 57.706H164.893Z" fill="#AEC71E"/>
<path d="M210.225 55.9062H211.729L212.803 56.3562L213.662 57.1436L214.307 58.156L214.844 59.6183L215.166 61.5305L215.273 62.8804V64.2302L214.736 64.5677L213.877 64.6802L208.828 64.7926V66.8174L209.15 68.5047L209.795 69.742L210.332 70.3045L211.191 70.5294L212.051 70.192L212.48 69.6295L212.803 68.8421L212.91 68.2797L213.018 66.5924H214.844L215.059 66.8174V67.9422L214.629 69.742L214.199 70.6419L213.447 71.6543L212.588 72.2167L211.514 72.4417H210.547L209.58 72.2167L208.721 71.5418L207.969 70.6419L207.217 68.8421L206.895 67.6048L206.68 65.4676V62.3179L207.002 60.1807L207.539 58.6059L208.184 57.4811L208.828 56.6937L209.902 56.0187L210.225 55.9062ZM210.547 57.706L209.902 58.156L209.15 59.5058L208.721 61.0806V62.6554L209.043 62.8804H212.48L213.125 62.6554L213.232 62.5429V61.3056L212.803 59.2808L212.373 58.3809L211.729 57.8185L211.406 57.706H210.547Z" fill="#AEC71E"/>
<path d="M177.355 55.793L178.752 56.2429L179.182 56.5804H180.041L181.223 56.0179L181.652 55.9055H182.941L184.016 56.3554L184.553 56.8053L185.09 57.8177L185.197 58.2677V72.2159H183.801L183.371 71.9909L183.264 59.0551L183.049 58.1552L182.941 57.8177L181.975 57.5927L180.686 57.7052L180.041 58.1552L179.504 59.1675L179.396 60.0674L179.182 72.2159H177.463L177.248 72.1034L177.141 71.316V61.3048L177.248 55.9055L177.355 55.793Z" fill="#AEC71E"/>
<path d="M22.7734 27.334H24.4922L25.8887 27.7839L26.9629 28.5713L27.7148 29.6962L28.1445 30.9335L28.252 32.3959L27.9297 33.9707L27.2852 34.983L26.5332 35.8829L25.459 36.5578L24.9219 36.7828L23.7402 36.8953L22.4512 36.6703L21.1621 36.1079L20.0879 35.0955L19.4434 33.9707L19.1211 32.8458V31.7209L19.5508 30.0336L20.1953 29.0213L20.7324 28.3464L21.8066 27.6714L22.7734 27.334Z" fill="#AEC71E"/>
<path d="M64.3457 83.0137L64.8828 83.1262L64.9902 83.4636L65.4199 87.6256L66.1719 93.5873L66.4941 96.287L66.9238 95.7246L68.4277 92.6875L69.3945 91.1127L70.3613 90.2128L71.8652 89.3129L74.0137 88.3005L75.0879 87.9631L75.7324 88.0755L76.5918 88.7505L78.418 90.6627L78.8477 91.0002L79.4922 90.8877L80.8887 89.8753L81.9629 89.3129L82.8223 89.4254L84.1113 90.3253L84.9707 90.2128L85.4004 89.9878H102.803L102.91 90.5502L102.803 90.6627L85.293 90.7752L85.1855 91.3376L84.9707 91.5626H84.1113L83.252 91.1127L82.3926 90.4377L81.9629 90.3253L80.1367 91.5626L79.5996 91.9001L78.7402 92.0125L77.8809 91.4501L75.7324 89.4254L75.1953 89.0879H74.5508L72.1875 90.2128L71.2207 90.8877L70.4688 91.5626L69.502 93.1374L68.2129 95.7246L67.0312 98.3118L66.0645 99.999L65.8496 99.8866L65.6348 98.9867L65.2051 96.062L64.5605 91.9001L63.916 86.1633V85.6008L63.2715 86.1633L61.875 88.0755L60.8008 89.6503L59.1895 91.9001L58.6523 92.2375L58.2227 92.125L58.0078 91.6751L58.4375 90.7752L59.2969 89.7628L60.8008 87.6256L61.9824 86.0508L63.3789 84.3635L64.3457 83.0137Z" fill="#3B8334"/>
<path d="M89.5898 46.9062H91.0938L91.6309 47.2437L91.9531 47.8061L92.0605 48.706L91.9531 48.8185L89.4824 48.931L89.2676 49.0435L89.1602 56.1301H91.5234L91.7383 56.2426L91.8457 56.6925V57.5924L91.416 57.9299H89.2676L89.1602 72.2156H87.4414L87.2266 72.1031L87.1191 70.7533V58.2673L87.0117 58.0424L85.7227 57.8174L85.293 57.255L85.5078 56.58L86.2598 56.2426L87.0117 56.0176L87.1191 54.5553L87.2266 50.1683L87.334 48.931L87.8711 47.8061L88.623 47.2437L89.5898 46.9062Z" fill="#AEC71E"/>
<path d="M63.1641 48.4805L64.8828 48.593L65.0977 48.7054V70.0778L69.9316 70.1903L70.1465 70.4152L70.2539 71.8775L70.0391 72.1025L67.8906 72.215H63.1641L63.0566 72.1025L62.9492 68.053V52.6424L63.0566 48.593L63.1641 48.4805Z" fill="#AEC71E"/>
<path d="M29.8633 23.8467L30.293 23.9592L30.9375 24.7466L31.7969 25.9839L32.334 27.2213L32.7637 29.246L32.8711 30.0334V32.0582L32.6562 33.633L32.0117 35.4327L31.4746 36.5576L30.293 38.2449L29.1113 39.7072L28.0371 40.8321L25.6738 42.8568L23.9551 43.9817L23.418 44.3191L23.0957 44.6566L22.3438 44.4316L21.8066 43.9817L21.2695 43.1943V42.6318L21.8066 42.1819L23.5254 40.9445L25.5664 39.3697L26.6406 38.4699L27.9297 37.2325L29.0039 35.9952L30.0781 34.1954L30.7227 32.3956L30.9375 31.0458V28.6836L30.5078 26.5463L29.8633 24.7466L29.7559 23.9592L29.8633 23.8467Z" fill="#AEC71E"/>
<path d="M11.2812 29.2461L11.9258 29.3586L12.0332 29.8085L11.6035 30.4834L10.5293 31.2708L9.66992 32.0582L9.02539 32.6207L8.70312 33.2956L9.77734 32.9581L10.959 32.0582L12.0332 30.9334H12.248V30.7084L12.7852 30.4834L13.1074 30.9334L13 31.8333L12.5703 33.1831L11.8184 34.4204L10.8516 35.5453L9.99219 36.3327L8.48828 37.2326L6.55469 37.9075L4.94336 38.245L4.08398 38.1325L3.6543 37.795L3.54688 37.1201L3.86914 35.7703L4.62109 33.9705L5.69531 32.1707L6.44727 31.3833L7.52148 30.5959L8.81055 29.921L10.8516 29.3586L11.2812 29.2461Z" fill="#3B8334"/>
<path d="M38.0254 7.87402H39.8516L40.3887 8.099L40.6035 8.54894L39.8516 11.0236L38.8848 12.9359L37.5957 14.6232L36.0918 15.6356L34.6953 16.198L33.084 16.5354H32.332L32.0098 16.3105L32.1172 15.748L33.2988 14.7357L34.8027 13.6108L35.0176 13.3858L35.125 12.9359L34.2656 13.1609L32.9766 13.8358L31.6875 15.0731L31.1504 15.4106L30.8281 14.9606L31.043 13.7233L31.7949 12.261L32.4395 11.3611L33.6211 10.0113L34.5879 9.22385L36.0918 8.43645L37.4883 7.98651L38.0254 7.87402Z" fill="#AEC71E"/>
<path d="M8.48438 7.76172H9.45117L11.5996 8.21166L12.9961 8.66161L14.3926 9.56149L15.4668 10.4614L16.3262 11.4738L17.1855 13.2735L17.5078 14.0609L17.6152 15.1858L17.0781 15.0733L16.1113 14.3984L14.7148 13.2735L13.4258 12.5986H13.1035L14.1777 13.836L15.3594 14.7358L16.541 15.7482L16.6484 16.0857L16.541 16.4231L16.3262 16.5356H15.3594L13.4258 16.0857L11.9219 15.2983L10.418 13.9484L9.45117 12.5986L8.5918 10.7988L8.05469 9.22404V8.43663L8.48438 7.76172Z" fill="#AEC71E"/>
<path d="M35.9883 29.2461L36.9551 29.3586L39.2109 30.146L40.2852 30.7084L41.3594 31.6083L42.2188 32.6207L43.293 34.4204L43.8301 35.8828L44.0449 37.2326V37.795L43.5078 38.245H42.1113L40.6074 37.795L39.2109 37.2326L37.707 36.3327L36.418 35.0954L35.666 34.1955L34.8066 32.7332L34.4844 31.8333V30.5959L34.6992 30.4834L35.7734 31.3833L36.9551 32.3957L37.8145 33.0706L38.8887 33.858L38.459 32.7332L37.2773 31.3833L35.9883 30.146L35.5586 29.696L35.666 29.3586L35.9883 29.2461Z" fill="#3B8334"/>
<path d="M140.832 55.9062H142.658L143.41 56.2437L143.84 56.8061L144.162 57.706V58.4934L143.518 58.3809L142.229 57.931H141.477L140.725 58.3809L140.08 59.2808L139.543 61.0806L139.328 62.3179V65.6925L139.758 68.1672L140.295 69.517L140.939 70.3045L141.477 70.5294L142.336 70.4169L142.98 69.967L143.947 69.0671L144.27 69.1796V69.967L143.947 71.0919L143.41 71.9917L142.551 72.3292L141.262 72.4417L139.973 72.1042L138.898 71.0919L138.146 69.8545L137.502 67.9422L137.18 65.9175V62.4304L137.502 60.4057L138.039 58.7184L138.576 57.706L139.436 56.6937L140.51 56.0187L140.832 55.9062Z" fill="#AEC71E"/>
<path d="M196.797 55.9062H198.408L199.268 56.3562L199.697 57.0311L199.912 57.8185V58.6059L198.516 58.0435L198.301 57.931H197.334L196.475 58.3809L195.83 59.2808L195.293 60.6307L195.078 62.5429V65.6925L195.293 67.3798L195.723 68.9546L196.26 69.8545L196.904 70.4169L197.764 70.5294L198.623 70.0795L199.697 69.1796H200.02V70.4169L199.59 71.3168L199.16 71.8793L198.408 72.3292L197.227 72.4417L195.938 72.2167L194.971 71.5418L194.004 70.0795L193.359 68.3922L193.037 66.8174L192.93 65.805V62.2055L193.145 60.7431L193.574 59.1683L194.326 57.706L195.078 56.8061L196.367 56.0187L196.797 55.9062Z" fill="#AEC71E"/>
<path d="M14.0742 0L15.041 0.224972L16.3301 1.01237L18.1562 2.58718L18.9082 3.82452L19.5527 5.17435L19.7676 6.07424V7.76153L19.2305 8.66142L18.9082 8.43645L18.0488 6.63667L17.4043 6.07424L16.9746 5.96176L17.4043 6.97413L17.834 7.53656L18.2637 8.43645V8.99888L18.0488 9.22385L17.4043 9.11136L16.4375 8.43645L15.1484 7.08661L14.2891 5.6243L13.752 4.27447L13.4297 2.58718V1.23735L13.6445 0.337458L14.0742 0Z" fill="#3B8334"/>
<path d="M33.6211 0L34.0508 0.112486L34.373 0.674916L34.5879 1.46232L34.4805 3.71204L33.9434 5.28684L33.1914 6.74916L32.332 7.76153L31.3652 8.54893L30.8281 8.88639L29.8613 9.11136L29.6465 8.7739L30.0762 7.64904L30.7207 6.63667L31.043 5.73678L30.7207 5.6243L30.1836 6.18673L29.7539 6.97413L29.1094 8.32396L28.5723 7.9865L28.25 7.42407V6.07424L28.5723 4.94938L29.3242 3.37458L30.291 2.13723L31.3652 1.23735L33.2988 0.112486L33.6211 0Z" fill="#3B8334"/>
<path d="M151.357 56.0176H153.076L153.506 56.1301L153.398 72.2156H151.572L151.357 72.1031L151.25 69.9658V66.3663L151.357 56.0176Z" fill="#AEC71E"/>
<path d="M76.8047 56.0176H78.0938L78.8457 56.1301L78.7383 72.2156H76.9121L76.8047 71.9906V56.0176Z" fill="#AEC71E"/>
<path d="M50.2734 88.8633L51.2402 89.0883L55 91.113H55.2148L55.9668 90.2131L56.3965 89.9881L56.9336 90.1006L57.6855 90.6631L57.5781 91.2255L57.2559 91.338L56.2891 91.4505L55.4297 91.7879L55.2148 92.0129L54.5703 91.9004L53.6035 91.5629L51.9922 90.6631L50.7031 89.8757L49.9512 89.9881L48.5547 90.6631L47.4805 90.7755H19.0137L17.7246 90.6631L17.6172 90.2131L25.7812 90.1006L40.498 89.9881L47.6953 89.8757L49.1992 89.4257L50.2734 88.8633ZM47.0508 90.3256V90.4381H47.6953V90.3256H47.0508Z" fill="#458933"/>
<path d="M3.33008 12.2607L4.51172 12.3732L5.9082 12.8232L6.98242 13.4981L7.62695 14.398L7.73438 14.9604L7.30469 15.4103L6.98242 15.9728L6.12305 16.4227L4.72656 16.5352L2.90039 16.0853L1.71875 15.4103L0 14.0605V13.2731L2.25586 12.4857L3.33008 12.2607ZM5.80078 14.173L5.69336 14.6229H6.01562L5.9082 14.173H5.80078Z" fill="#3B8335"/>
<path d="M23.5234 44.9941L24.0605 45.2191L24.7051 45.6691L25.2422 46.2315L26.4238 47.5813L27.7129 49.4936L28.7871 51.5183L29.6465 53.3181L30.3984 55.3428L30.8281 57.2551L31.043 58.8299V60.4047L30.7207 62.5419L30.291 63.7793L29.7539 64.4542L29.4316 64.5667L29.5391 63.2169L29.7539 61.6421V58.7174L29.4316 56.8052L28.5723 54.1055L27.1758 51.0684L25.8867 48.9311L23.5234 45.2191V44.9941Z" fill="#3C8434"/>
<path d="M43.8301 12.2607L45.334 12.3732L47.375 12.9357L48.0195 13.3856L47.9121 13.8355L47.4824 14.398L46.3008 15.4103L45.4414 15.9728L43.7227 16.5352H42.2188L41.6816 16.3102L40.8223 15.5228L40.5 14.7354L40.6074 14.173L41.0371 13.6106L41.8965 12.9357L43.1855 12.3732L43.8301 12.2607ZM42.4336 14.173L41.8965 14.7354H42.2188L42.7559 14.5105L42.8633 14.173H42.4336Z" fill="#3B8335"/>
<path d="M5.26172 26.9971H6.01367L7.30273 27.7845L7.83984 28.3469L7.625 28.7968L6.76562 29.5842L5.58398 30.1467L5.26172 30.2592H4.1875L2.57617 30.0342L2.14648 29.5842L2.03906 29.0218L2.46875 28.4594L3.86523 27.5595L5.26172 26.9971Z" fill="#AEC71E"/>
<path d="M42.0039 26.9971H42.9707L44.1523 27.447L45.2266 28.1219L45.6562 28.6844L45.5488 29.3593L44.9043 29.9217L43.7227 30.3716H42.4336L41.3594 29.8092L40.7148 29.0218L40.5 28.3469L40.8223 27.672L41.6816 27.1096L42.0039 26.9971Z" fill="#AEC71E"/>
<path d="M151.895 49.9434H153.291L153.721 50.1683L153.828 50.5058V51.6306L153.506 52.4181L152.861 52.643H151.787L151.25 52.4181L151.035 51.1807L151.143 50.3933L151.572 50.0558L151.895 49.9434Z" fill="#AEC71E"/>
<path d="M77.3438 49.9434H78.5254L79.0625 50.2808V52.4181L78.9551 52.643H77.3438L76.6992 52.4181L76.4844 52.1931V50.5058L76.9141 50.0558L77.3438 49.9434Z" fill="#AEC71E"/>
<path d="M42.7559 90.3262H47.0527L47.2676 90.5511H45.9785L47.4824 90.6636V90.7761H37.9219V90.6636L40.9297 90.5511L41.0371 90.4387L42.7559 90.3262Z" fill="#AEC71E"/>
<path d="M58.0078 90.8887H58.2227L58.0078 91.4511L57.6855 91.7886L57.5781 91.4511L58.0078 90.8887Z" fill="#3B8335"/>
<path d="M109.195 84.4542H110.504L112.78 90.0107H112.864L115.139 84.4542H116.448V91.6023H115.422V86.4297H115.356L113.248 91.5918H112.396L110.288 86.4262H110.221V91.6023H109.195V84.4542Z" fill="#3B8334"/>
<path d="M119.492 91.7209C119.153 91.7209 118.846 91.6581 118.571 91.5325C118.296 91.4045 118.079 91.2195 117.918 90.9775C117.76 90.7355 117.681 90.4389 117.681 90.0875C117.681 89.785 117.739 89.536 117.856 89.3406C117.972 89.1451 118.129 88.9904 118.327 88.8764C118.525 88.7624 118.746 88.6763 118.99 88.6181C119.234 88.5599 119.483 88.5157 119.737 88.4855C120.058 88.4482 120.319 88.418 120.519 88.3947C120.719 88.3691 120.864 88.3284 120.955 88.2726C121.046 88.2167 121.091 88.126 121.091 88.0003V87.9759C121.091 87.6711 121.005 87.4349 120.833 87.2674C120.663 87.0998 120.409 87.0161 120.072 87.0161C119.721 87.0161 119.444 87.094 119.241 87.2499C119.041 87.4035 118.903 87.5745 118.826 87.763L117.845 87.5396C117.961 87.2138 118.131 86.9509 118.355 86.7508C118.58 86.5484 118.84 86.4018 119.133 86.311C119.426 86.218 119.734 86.1714 120.058 86.1714C120.272 86.1714 120.499 86.197 120.738 86.2482C120.98 86.2971 121.206 86.3878 121.416 86.5204C121.627 86.6531 121.801 86.8427 121.936 87.0894C122.071 87.3337 122.138 87.6513 122.138 88.0422V91.6023H121.119V90.8693H121.077C121.01 91.0043 120.908 91.1369 120.773 91.2672C120.638 91.3975 120.465 91.5057 120.253 91.5918C120.042 91.6779 119.788 91.7209 119.492 91.7209ZM119.719 90.8833C120.008 90.8833 120.255 90.8263 120.459 90.7123C120.666 90.5982 120.823 90.4493 120.93 90.2655C121.04 90.0794 121.095 89.8804 121.095 89.6687V88.9776C121.057 89.0148 120.985 89.0497 120.878 89.0823C120.773 89.1125 120.654 89.1393 120.519 89.1626C120.384 89.1835 120.252 89.2033 120.124 89.2219C119.996 89.2382 119.889 89.2522 119.803 89.2638C119.601 89.2894 119.416 89.3324 119.248 89.3929C119.083 89.4534 118.95 89.5407 118.85 89.6547C118.753 89.7664 118.704 89.9153 118.704 90.1015C118.704 90.3597 118.799 90.5552 118.99 90.6878C119.181 90.8181 119.424 90.8833 119.719 90.8833Z" fill="#3B8334"/>
<path d="M124.488 89.7838L124.481 88.5099H124.662L126.798 86.2412H128.048L125.612 88.824H125.448L124.488 89.7838ZM123.528 91.6023V84.4542H124.572V91.6023H123.528ZM126.914 91.6023L124.994 89.0544L125.713 88.3249L128.195 91.6023H126.914Z" fill="#3B8334"/>
<path d="M128.999 91.6023V86.2412H130.043V91.6023H128.999ZM129.526 85.414C129.345 85.414 129.189 85.3535 129.058 85.2325C128.93 85.1092 128.866 84.9626 128.866 84.7928C128.866 84.6206 128.93 84.474 129.058 84.353C129.189 84.2297 129.345 84.168 129.526 84.168C129.708 84.168 129.862 84.2297 129.99 84.353C130.121 84.474 130.186 84.6206 130.186 84.7928C130.186 84.9626 130.121 85.1092 129.99 85.2325C129.862 85.3535 129.708 85.414 129.526 85.414Z" fill="#3B8334"/>
<path d="M132.49 88.4191V91.6023H131.447V86.2412H132.448V87.1138H132.515C132.638 86.8299 132.831 86.6019 133.094 86.4297C133.359 86.2575 133.693 86.1714 134.096 86.1714C134.461 86.1714 134.781 86.2482 135.056 86.4018C135.33 86.553 135.543 86.7787 135.694 87.0789C135.846 87.3791 135.921 87.7502 135.921 88.1923V91.6023H134.878V88.3179C134.878 87.9293 134.776 87.6257 134.574 87.407C134.371 87.1859 134.093 87.0754 133.74 87.0754C133.498 87.0754 133.283 87.1278 133.094 87.2325C132.908 87.3372 132.76 87.4907 132.651 87.6932C132.544 87.8933 132.49 88.1353 132.49 88.4191Z" fill="#3B8334"/>
<path d="M139.568 93.7244C139.143 93.7244 138.776 93.6685 138.469 93.5568C138.164 93.4451 137.915 93.2974 137.722 93.1136C137.529 92.9297 137.385 92.7285 137.289 92.5097L138.186 92.1398C138.249 92.2422 138.333 92.3504 138.438 92.4644C138.545 92.5807 138.689 92.6796 138.87 92.761C139.054 92.8425 139.29 92.8832 139.579 92.8832C139.975 92.8832 140.301 92.7866 140.56 92.5935C140.818 92.4027 140.947 92.0979 140.947 91.6791V90.625H140.881C140.818 90.739 140.727 90.8658 140.609 91.0054C140.492 91.145 140.332 91.266 140.127 91.3684C139.922 91.4708 139.656 91.522 139.328 91.522C138.904 91.522 138.523 91.4231 138.183 91.2253C137.845 91.0252 137.578 90.7309 137.38 90.3423C137.185 89.9514 137.087 89.4709 137.087 88.9008C137.087 88.3307 137.183 87.8421 137.377 87.4349C137.572 87.0277 137.84 86.7159 138.179 86.4995C138.519 86.2808 138.904 86.1714 139.335 86.1714C139.667 86.1714 139.936 86.2273 140.141 86.339C140.346 86.4483 140.505 86.5763 140.619 86.7229C140.735 86.8695 140.825 86.9986 140.888 87.1103H140.965V86.2412H141.987V91.7209C141.987 92.1817 141.88 92.5598 141.666 92.8553C141.452 93.1508 141.162 93.3695 140.797 93.5114C140.434 93.6534 140.025 93.7244 139.568 93.7244ZM139.558 90.6564C139.858 90.6564 140.112 90.5866 140.319 90.447C140.528 90.3051 140.687 90.1026 140.794 89.8397C140.903 89.5744 140.958 89.2568 140.958 88.8868C140.958 88.5262 140.904 88.2086 140.797 87.934C140.69 87.6594 140.533 87.4454 140.326 87.2918C140.119 87.1359 139.863 87.0579 139.558 87.0579C139.244 87.0579 138.982 87.1394 138.773 87.3023C138.563 87.4628 138.405 87.6815 138.298 87.9584C138.193 88.2353 138.141 88.5448 138.141 88.8868C138.141 89.2382 138.194 89.5465 138.302 89.8118C138.409 90.077 138.567 90.2841 138.776 90.433C138.988 90.582 139.249 90.6564 139.558 90.6564Z" fill="#3B8334"/>
<path d="M146.648 93.6127C146.492 93.6127 146.35 93.5999 146.222 93.5743C146.094 93.551 145.998 93.5254 145.936 93.4975L146.187 92.6424C146.378 92.6936 146.548 92.7157 146.696 92.7087C146.845 92.7017 146.977 92.6459 147.091 92.5412C147.207 92.4364 147.31 92.2654 147.398 92.0281L147.527 91.6721L145.566 86.2412H146.683L148.04 90.4016H148.096L149.454 86.2412H150.574L148.365 92.3178C148.262 92.597 148.132 92.8332 147.974 93.0263C147.816 93.2218 147.627 93.3683 147.408 93.4661C147.19 93.5638 146.936 93.6127 146.648 93.6127Z" fill="#3B8334"/>
<path d="M153.631 91.7105C153.128 91.7105 152.69 91.5953 152.315 91.3649C151.94 91.1346 151.649 90.8123 151.442 90.3981C151.235 89.984 151.132 89.5 151.132 88.9462C151.132 88.3901 151.235 87.9038 151.442 87.4872C151.649 87.0707 151.94 86.7473 152.315 86.517C152.69 86.2866 153.128 86.1714 153.631 86.1714C154.133 86.1714 154.572 86.2866 154.947 86.517C155.321 86.7473 155.612 87.0707 155.819 87.4872C156.026 87.9038 156.13 88.3901 156.13 88.9462C156.13 89.5 156.026 89.984 155.819 90.3981C155.612 90.8123 155.321 91.1346 154.947 91.3649C154.572 91.5953 154.133 91.7105 153.631 91.7105ZM153.634 90.8344C153.96 90.8344 154.23 90.7483 154.444 90.5761C154.658 90.4039 154.816 90.1748 154.919 89.8886C155.023 89.6023 155.076 89.2871 155.076 88.9427C155.076 88.6006 155.023 88.2865 154.919 88.0003C154.816 87.7118 154.658 87.4803 154.444 87.3058C154.23 87.1312 153.96 87.044 153.634 87.044C153.306 87.044 153.034 87.1312 152.818 87.3058C152.603 87.4803 152.444 87.7118 152.339 88.0003C152.237 88.2865 152.186 88.6006 152.186 88.9427C152.186 89.2871 152.237 89.6023 152.339 89.8886C152.444 90.1748 152.603 90.4039 152.818 90.5761C153.034 90.7483 153.306 90.8344 153.634 90.8344Z" fill="#3B8334"/>
<path d="M160.691 89.379V86.2412H161.738V91.6023H160.712V90.6739H160.656C160.532 90.9601 160.335 91.1986 160.062 91.3894C159.793 91.5778 159.456 91.6721 159.054 91.6721C158.709 91.6721 158.405 91.5965 158.139 91.4452C157.876 91.2916 157.669 91.0648 157.518 90.7646C157.369 90.4644 157.295 90.0933 157.295 89.6512V86.2412H158.338V89.5256C158.338 89.8909 158.439 90.1817 158.642 90.3981C158.844 90.6145 159.107 90.7227 159.431 90.7227C159.626 90.7227 159.82 90.6739 160.014 90.5761C160.209 90.4784 160.371 90.3307 160.499 90.1329C160.629 89.9351 160.693 89.6838 160.691 89.379Z" fill="#3B8334"/>
<path d="M163.14 91.6023V86.2412H164.149V87.0928H164.205C164.302 86.8043 164.474 86.5775 164.721 86.4122C164.97 86.2447 165.252 86.1609 165.566 86.1609C165.631 86.1609 165.708 86.1633 165.796 86.1679C165.887 86.1726 165.958 86.1784 166.009 86.1854V87.1836C165.967 87.172 165.893 87.1592 165.786 87.1452C165.679 87.1289 165.572 87.1208 165.465 87.1208C165.218 87.1208 164.998 87.1731 164.805 87.2778C164.614 87.3802 164.463 87.5233 164.351 87.7071C164.239 87.8886 164.184 88.0957 164.184 88.3284V91.6023H163.14Z" fill="#3B8334"/>
<path d="M170.557 84.4542V91.6023H169.513V84.4542H170.557Z" fill="#3B8334"/>
<path d="M171.961 91.6023V86.2412H173.004V91.6023H171.961ZM172.488 85.414C172.306 85.414 172.15 85.3535 172.02 85.2325C171.892 85.1092 171.828 84.9626 171.828 84.7928C171.828 84.6206 171.892 84.474 172.02 84.353C172.15 84.2297 172.306 84.168 172.488 84.168C172.669 84.168 172.824 84.2297 172.952 84.353C173.082 84.474 173.147 84.6206 173.147 84.7928C173.147 84.9626 173.082 85.1092 172.952 85.2325C172.824 85.3535 172.669 85.414 172.488 85.414Z" fill="#3B8334"/>
<path d="M176.96 86.2412V87.0789H173.93V86.2412H176.96ZM174.761 91.6023V85.62C174.761 85.2849 174.834 85.0068 174.981 84.7858C175.127 84.5624 175.322 84.396 175.564 84.2867C175.806 84.175 176.069 84.1191 176.352 84.1191C176.562 84.1191 176.741 84.1366 176.89 84.1715C177.039 84.2041 177.149 84.2343 177.221 84.2622L176.977 85.1069C176.928 85.0929 176.865 85.0766 176.789 85.058C176.712 85.0371 176.619 85.0266 176.509 85.0266C176.256 85.0266 176.074 85.0894 175.965 85.2151C175.858 85.3407 175.804 85.5222 175.804 85.7596V91.6023H174.761Z" fill="#3B8334"/>
<path d="M180.136 91.7105C179.608 91.7105 179.153 91.5976 178.771 91.3719C178.392 91.1439 178.099 90.8239 177.892 90.4121C177.687 89.9979 177.584 89.5128 177.584 88.9567C177.584 88.4075 177.687 87.9235 177.892 87.5047C178.099 87.0859 178.387 86.7589 178.757 86.5239C179.129 86.2889 179.565 86.1714 180.063 86.1714C180.365 86.1714 180.658 86.2214 180.942 86.3215C181.226 86.4216 181.481 86.5786 181.706 86.7927C181.932 87.0068 182.11 87.2848 182.24 87.6269C182.371 87.9666 182.436 88.3796 182.436 88.8659V89.2359H178.174V88.4541H181.413C181.413 88.1795 181.357 87.9363 181.246 87.7246C181.134 87.5105 180.977 87.3418 180.775 87.2185C180.574 87.0952 180.339 87.0335 180.07 87.0335C179.776 87.0335 179.52 87.1056 179.302 87.2499C179.085 87.3918 178.918 87.578 178.799 87.8084C178.683 88.0364 178.625 88.2842 178.625 88.5518V89.1626C178.625 89.5209 178.687 89.8257 178.813 90.077C178.941 90.3283 179.119 90.5203 179.347 90.6529C179.575 90.7832 179.841 90.8484 180.146 90.8484C180.344 90.8484 180.524 90.8205 180.687 90.7646C180.85 90.7064 180.991 90.6203 181.11 90.5063C181.228 90.3923 181.319 90.2515 181.382 90.084L182.37 90.262C182.291 90.5529 182.149 90.8077 181.944 91.0264C181.741 91.2428 181.487 91.4115 181.179 91.5325C180.875 91.6511 180.527 91.7105 180.136 91.7105Z" fill="#3B8334"/>
<path d="M187.239 88.4191V91.6023H186.195V84.4542H187.225V87.1138H187.291C187.417 86.8253 187.609 86.5961 187.867 86.4262C188.125 86.2563 188.462 86.1714 188.879 86.1714C189.247 86.1714 189.568 86.247 189.842 86.3983C190.119 86.5495 190.333 86.7752 190.484 87.0754C190.638 87.3732 190.715 87.7455 190.715 88.1923V91.6023H189.671V88.3179C189.671 87.9247 189.57 87.6199 189.368 87.4035C189.165 87.1848 188.884 87.0754 188.523 87.0754C188.276 87.0754 188.055 87.1278 187.86 87.2325C187.667 87.3372 187.514 87.4907 187.403 87.6932C187.293 87.8933 187.239 88.1353 187.239 88.4191Z" fill="#3B8334"/>
<path d="M194.418 91.7105C193.89 91.7105 193.435 91.5976 193.053 91.3719C192.674 91.1439 192.381 90.8239 192.174 90.4121C191.969 89.9979 191.867 89.5128 191.867 88.9567C191.867 88.4075 191.969 87.9235 192.174 87.5047C192.381 87.0859 192.669 86.7589 193.039 86.5239C193.412 86.2889 193.847 86.1714 194.345 86.1714C194.647 86.1714 194.94 86.2214 195.224 86.3215C195.508 86.4216 195.763 86.5786 195.989 86.7927C196.214 87.0068 196.392 87.2848 196.523 87.6269C196.653 87.9666 196.718 88.3796 196.718 88.8659V89.2359H192.456V88.4541H195.695C195.695 88.1795 195.64 87.9363 195.528 87.7246C195.416 87.5105 195.259 87.3418 195.057 87.2185C194.857 87.0952 194.622 87.0335 194.352 87.0335C194.059 87.0335 193.803 87.1056 193.584 87.2499C193.367 87.3918 193.2 87.578 193.081 87.8084C192.965 88.0364 192.907 88.2842 192.907 88.5518V89.1626C192.907 89.5209 192.97 89.8257 193.095 90.077C193.223 90.3283 193.401 90.5203 193.629 90.6529C193.857 90.7832 194.124 90.8484 194.428 90.8484C194.626 90.8484 194.807 90.8205 194.969 90.7646C195.132 90.7064 195.273 90.6203 195.392 90.5063C195.51 90.3923 195.601 90.2515 195.664 90.084L196.652 90.262C196.573 90.5529 196.431 90.8077 196.226 91.0264C196.024 91.2428 195.769 91.4115 195.462 91.5325C195.157 91.6511 194.809 91.7105 194.418 91.7105Z" fill="#3B8334"/>
<path d="M199.436 91.7209C199.096 91.7209 198.789 91.6581 198.515 91.5325C198.24 91.4045 198.023 91.2195 197.862 90.9775C197.704 90.7355 197.625 90.4389 197.625 90.0875C197.625 89.785 197.683 89.536 197.799 89.3406C197.916 89.1451 198.073 88.9904 198.27 88.8764C198.468 88.7624 198.689 88.6763 198.934 88.6181C199.178 88.5599 199.427 88.5157 199.68 88.4855C200.002 88.4482 200.262 88.418 200.462 88.3947C200.662 88.3691 200.808 88.3284 200.899 88.2726C200.989 88.2167 201.035 88.126 201.035 88.0003V87.9759C201.035 87.6711 200.949 87.4349 200.776 87.2674C200.607 87.0998 200.353 87.0161 200.016 87.0161C199.664 87.0161 199.387 87.094 199.185 87.2499C198.985 87.4035 198.846 87.5745 198.77 87.763L197.789 87.5396C197.905 87.2138 198.075 86.9509 198.298 86.7508C198.524 86.5484 198.783 86.4018 199.077 86.311C199.37 86.218 199.678 86.1714 200.002 86.1714C200.216 86.1714 200.443 86.197 200.682 86.2482C200.924 86.2971 201.15 86.3878 201.359 86.5204C201.571 86.6531 201.744 86.8427 201.879 87.0894C202.014 87.3337 202.082 87.6513 202.082 88.0422V91.6023H201.063V90.8693H201.021C200.953 91.0043 200.852 91.1369 200.717 91.2672C200.582 91.3975 200.409 91.5057 200.197 91.5918C199.985 91.6779 199.732 91.7209 199.436 91.7209ZM199.663 90.8833C199.952 90.8833 200.198 90.8263 200.403 90.7123C200.61 90.5982 200.767 90.4493 200.874 90.2655C200.984 90.0794 201.038 89.8804 201.038 89.6687V88.9776C201.001 89.0148 200.929 89.0497 200.822 89.0823C200.717 89.1125 200.597 89.1393 200.462 89.1626C200.327 89.1835 200.196 89.2033 200.068 89.2219C199.94 89.2382 199.833 89.2522 199.747 89.2638C199.544 89.2894 199.359 89.3324 199.192 89.3929C199.027 89.4534 198.894 89.5407 198.794 89.6547C198.696 89.7664 198.647 89.9153 198.647 90.1015C198.647 90.3597 198.743 90.5552 198.934 90.6878C199.124 90.8181 199.368 90.8833 199.663 90.8833Z" fill="#3B8334"/>
<path d="M204.515 84.4542V91.6023H203.472V84.4542H204.515Z" fill="#3B8334"/>
<path d="M208.422 86.2412V87.0789H205.494V86.2412H208.422ZM206.279 84.9568H207.322V90.0282C207.322 90.2306 207.353 90.383 207.413 90.4854C207.474 90.5854 207.552 90.6541 207.647 90.6913C207.745 90.7262 207.851 90.7437 207.965 90.7437C208.048 90.7437 208.122 90.7378 208.185 90.7262C208.247 90.7146 208.296 90.7053 208.331 90.6983L208.52 91.5604C208.459 91.5837 208.373 91.6069 208.261 91.6302C208.15 91.6558 208.01 91.6698 207.842 91.6721C207.568 91.6767 207.312 91.6279 207.075 91.5255C206.837 91.4231 206.645 91.2649 206.499 91.0508C206.352 90.8367 206.279 90.568 206.279 90.2446V84.9568Z" fill="#3B8334"/>
<path d="M210.735 88.4191V91.6023H209.691V84.4542H210.721V87.1138H210.787C210.913 86.8253 211.105 86.5961 211.363 86.4262C211.622 86.2563 211.959 86.1714 212.375 86.1714C212.743 86.1714 213.064 86.247 213.339 86.3983C213.616 86.5495 213.83 86.7752 213.981 87.0754C214.135 87.3732 214.211 87.7455 214.211 88.1923V91.6023H213.168V88.3179C213.168 87.9247 213.067 87.6199 212.864 87.4035C212.662 87.1848 212.38 87.0754 212.019 87.0754C211.773 87.0754 211.552 87.1278 211.356 87.2325C211.163 87.3372 211.011 87.4907 210.899 87.6932C210.79 87.8933 210.735 88.1353 210.735 88.4191Z" fill="#3B8334"/>
<path d="M216.072 93.6127C215.916 93.6127 215.774 93.5999 215.646 93.5743C215.518 93.551 215.422 93.5254 215.36 93.4975L215.611 92.6424C215.802 92.6936 215.972 92.7157 216.12 92.7087C216.269 92.7017 216.401 92.6459 216.515 92.5412C216.631 92.4364 216.734 92.2654 216.822 92.0281L216.951 91.6721L214.99 86.2412H216.107L217.464 90.4016H217.52L218.878 86.2412H219.998L217.789 92.3178C217.686 92.597 217.556 92.8332 217.398 93.0263C217.24 93.2218 217.051 93.3683 216.833 93.4661C216.614 93.5638 216.36 93.6127 216.072 93.6127Z" fill="#3B8334"/>
</svg>
