<svg width="300" height="61" viewBox="0 0 300 61" fill="none" xmlns="http://www.w3.org/2000/svg">
<path d="M49.9766 3.37109H60.9683L79.7274 3.51765L82.0723 3.95732L84.4172 4.83665L86.9087 6.15566L88.9604 7.76777L90.1329 8.94022L91.745 11.1386L93.2106 14.2162L93.7968 16.4146L94.0899 18.1732V21.1044L93.6502 23.5958L92.6243 26.3804L91.4519 28.4322L89.8398 30.4839L88.5208 31.8029L86.469 33.2685L84.1241 34.441L81.9258 35.1737L79.5809 35.6134H70.2013L70.0547 55.545H62.7269L61.2614 55.3984V26.82L78.9946 26.6735L80.8999 26.0873L82.3654 25.2079L83.3913 24.3286L84.4172 22.7165L85.0034 21.1044L85.15 19.1991L84.7103 17.1474L83.831 15.3887L82.8051 14.2162L81.193 13.1903L79.5809 12.6041L78.4084 12.4576L53.9336 12.311L53.3473 12.0179L51.7352 8.06088L50.2697 4.54354L49.9766 3.81076V3.37109Z" fill="#86A037"/>
<path d="M286.37 8.64648H289.008L290.766 8.9396L293.111 9.81893L294.723 10.8448L296.189 12.1638L297.361 13.4828L298.68 15.8277L299.56 18.1726L299.999 20.0778V24.7676L299.413 27.2591L298.534 29.4574L297.655 31.0695L296.629 32.3885L295.163 33.8541L293.111 35.1731L290.766 36.0524L289.154 36.3456H286.516L284.171 35.9059L282.559 35.1731L281.094 34.2938L279.628 32.9748L278.749 31.9489L278.602 31.6558L278.456 31.9489L278.309 49.8287L278.163 49.9753H273.326L273.18 43.3802V9.37926L274.352 9.23271H278.309L278.456 13.3363L278.895 12.8966L279.921 11.7242L281.24 10.5517L283.732 9.23271L285.344 8.79304L286.37 8.64648Z" fill="#21201D"/>
<path d="M220.276 0.439453H222.767L227.457 0.586009L230.242 1.02568L232.733 1.90501L234.785 3.07746L236.544 4.68958L237.863 6.44825L238.742 8.35347L239.328 10.8449V13.0433L238.742 15.6813L238.009 17.4399L236.837 19.0521L235.811 20.2245L234.345 21.2504L232.147 22.4228L229.802 23.1556L228.19 23.4487L226.138 23.5953L216.612 23.7418L216.465 35.7594H211.482L211.336 35.6129V0.586009L220.276 0.439453Z" fill="#1F1E1C"/>
<path d="M11.8706 17.5859H22.5692L21.6899 18.6118L20.2243 20.6636L19.0519 23.0085L18.3191 25.3534L18.026 26.819L17.8794 28.2845V30.776L18.3191 33.5605L19.1984 36.1985L20.664 38.9831L22.2761 41.0349L23.7417 42.5004L25.7935 43.966L28.1384 45.1385L30.3367 45.8712L33.2678 46.4575L53.0529 46.604L53.1994 46.8971V55.3974L53.0529 55.5439L32.535 55.3974L29.6039 54.9577L26.5262 54.0784L23.5951 52.9059L20.9571 51.4404L18.6122 49.6817L17.1467 48.3627L15.2414 46.4575L13.6293 44.4057L12.0172 41.7677L10.5516 38.69L9.52575 35.3192L8.93952 31.8019L8.79297 30.4829V29.0173L9.23264 25.2068L9.81886 22.4223L10.8448 19.4912L11.7241 17.7325L11.8706 17.5859Z" fill="#0485D0"/>
<path d="M126.481 0H131.024L134.541 0.73278L137.912 2.05178L140.403 3.51734L142.015 4.83635L142.602 5.42257L142.309 6.00879L141.136 7.03468L139.231 8.93991L138.645 8.6468L136.739 7.18124L134.541 6.00879L132.343 5.27601L130.584 4.9829H127.067L124.868 5.42257L122.817 6.30191L121.058 7.47435L119.299 9.08647L117.98 10.8451L117.101 12.4573L116.222 14.8021L115.782 17.0005V18.9057L116.222 21.3972L116.954 23.5955L117.98 25.5007L119.153 26.9663L120.032 27.9922L121.498 29.1646L123.549 30.3371L125.455 31.0699L126.627 31.363H130.584L133.076 30.7767L135.42 29.8974L137.326 28.725V21.3972L127.946 21.2506V16.8539L128.093 16.7074H142.602V30.9233L141.869 31.6561L140.11 32.9751L137.472 34.4406L135.274 35.32L132.489 36.0528L130.438 36.3459H127.067L125.015 36.0528L122.084 35.1734L119.739 34.001L117.98 32.8285L116.368 31.5095L114.463 29.6043L112.997 27.5525L111.678 25.0611L110.946 22.8627L110.359 20.2247V16.1212L111.092 12.8969L112.118 10.4055L113.437 8.06058L115.489 5.56913L117.248 3.95701L119.886 2.19834L122.084 1.17245L124.429 0.439668L126.481 0Z" fill="#201F1C"/>
<path d="M253.394 8.64648H256.032L258.084 8.9396L260.136 9.67238L262.041 10.6983L263.8 12.3104L264.972 13.7759L266.291 16.2674L267.171 19.1985L267.61 22.2762V24.1814L267.317 24.328H246.653L247.532 26.8194L248.412 28.4315L249.731 29.8971L251.343 30.923L252.955 31.5092L253.834 31.6558H256.326L258.524 31.2161L260.429 30.4833L262.188 29.4574L262.921 29.0178L264.972 31.0695L265.852 32.0954L265.559 32.6817L264.533 33.561L262.481 34.7334L260.283 35.6128L257.938 36.199L256.765 36.3456H253.688L251.343 35.9059L249.437 35.1731L247.825 34.2938L246.067 32.9748L244.601 31.5092L243.136 29.3109L242.256 27.2591L241.67 25.0607L241.523 24.328V20.6641L242.11 17.8795L243.136 15.5346L244.308 13.7759L245.627 12.3104L247.093 10.9914L249.437 9.67238L251.636 8.9396L253.394 8.64648Z" fill="#201F1C"/>
<path d="M160.334 8.64648H163.119L165.463 9.08615L167.662 9.96549L169.42 11.1379L170.739 12.3104L172.205 14.3622L173.231 16.5605L173.964 18.9054L174.403 21.69V24.1814L174.257 24.328H153.592L154.325 26.6729L155.058 28.1384L156.377 29.604L157.403 30.4833L158.868 31.2161L160.774 31.6558H163.119L165.463 31.2161L167.222 30.4833L168.981 29.4574L169.567 29.0178L170.007 29.1643L171.033 30.3368L172.645 31.9489L172.498 32.6817L170.739 34.0007L167.955 35.3197L165.463 36.0524L163.412 36.3456H160.627L158.136 35.9059L155.937 35.0266L154.472 34.1472L153.153 33.1213L151.98 32.0954L150.515 30.1902L149.342 27.8453L148.61 25.5004L148.316 23.5952V21.2503L148.756 18.7588L149.489 16.5605L150.808 14.2156L152.127 12.6035L153.592 11.2845L155.644 9.96549L157.843 9.08615L160.334 8.64648Z" fill="#20201C"/>
<path d="M192.576 8.64648H195.068L197.266 9.08615L199.611 10.2586L200.93 11.2845L201.956 12.4569L202.982 14.2156L203.715 16.5605L203.861 17.4398V35.6128L203.715 35.7593H198.878L198.732 19.4916L198.439 17.2933L197.559 15.5346L196.826 14.6553L195.214 13.6294L194.188 13.3363H191.111L189.206 13.9225L187.593 14.9484L186.568 16.1208L185.688 17.8795L185.542 18.6123L185.395 35.7593H180.412L180.266 9.37926L180.559 9.23271H185.542V12.1638L185.395 12.7501L186.128 12.0173L187.74 10.5517L189.792 9.37926L191.697 8.79304L192.576 8.64648Z" fill="#1F1F1C"/>
<path d="M284.904 13.1895H288.128L290.033 13.7757L291.645 14.8016L292.818 15.974L293.844 17.5861L294.576 19.6379L294.869 21.3966V23.5949L294.283 26.3795L293.257 28.4313L291.938 29.8968L290.912 30.7762L289.3 31.5089L287.395 31.9486H285.783L283.731 31.5089L282.266 30.7762L280.8 29.4572L279.774 28.2847L278.895 26.3795L278.455 24.7674L278.309 23.5949V21.25L278.748 18.9051L279.921 16.5602L281.093 15.0947L282.266 14.2153L283.731 13.4826L284.904 13.1895Z" fill="#FCFDFD"/>
<path d="M38.1046 27.1133H46.8979L53.1998 27.2598V42.3551H44.4065L44.2599 36.3463L44.1134 36.1997L31.9492 36.0532V27.2598L38.1046 27.1133Z" fill="#0485D0"/>
<path d="M219.543 5.42188H225.405L227.896 5.56843L229.655 6.0081L231.267 6.88743L232.733 8.20644L233.612 9.672L234.052 11.5772L233.905 13.3359L233.319 15.0946L232.293 16.4136L230.974 17.4395L229.215 18.1722L227.163 18.6119H216.465V5.86154L216.611 5.56843L219.543 5.42188Z" fill="#FCFDFD"/>
<path d="M254.422 13.1895H255.741L257.646 13.4826L259.405 14.3619L260.87 15.6809L261.896 17.293L262.482 18.9051L262.629 20.0776L262.482 20.2241H246.801L246.947 19.1982L247.68 17.4396L248.706 15.974L249.878 14.8016L251.344 13.9222L253.103 13.336L254.422 13.1895Z" fill="#FCFDFD"/>
<path d="M161.357 13.1895L163.849 13.336L165.461 13.9222L167.073 14.9481L168.245 16.4137L169.125 18.3189L169.418 19.3448V20.2241H153.59L153.883 18.9051L155.055 16.5602L156.374 15.0947L157.84 14.0688L159.306 13.4826L161.357 13.1895Z" fill="#FCFDFD"/>
<path d="M23.3025 1.46484H27.1129L26.2336 2.63729L25.5008 3.80974L24.4749 6.15463L22.4231 11.5772L21.1041 13.9221L19.9317 14.948L19.3455 15.0945H15.8281L16.7075 13.9221L17.2937 12.8962L18.0265 11.2841L20.0782 5.86152L21.2507 3.22351L22.2766 1.90451L23.3025 1.46484Z" fill="#0485D1"/>
<path d="M9.67269 1.17188H11.1383L10.2589 2.34432L8.93991 4.68922L6.88813 10.2583L5.56913 13.0429L4.54323 14.3619L3.51734 14.8016H0L0.879336 13.6291L2.05178 11.1377L4.25012 5.27544L5.42257 2.78399L6.44846 1.61154L7.03469 1.31843L9.67269 1.17188Z" fill="#0485D1"/>
<path d="M40.4531 1.61133L43.3842 1.75788L42.5049 3.07689L41.479 4.83556L39.5737 10.1116L38.4013 12.7496L37.522 14.0686L36.9357 14.8014L35.6167 15.241L32.5391 15.0945L33.565 13.4824L34.4443 11.7237L36.6426 5.86145L37.8151 3.37L38.9875 1.90444L40.4531 1.61133Z" fill="#0485D0"/>
<path d="M43.6748 1.61133L44.7006 1.90444L45.8731 3.22344L47.0455 5.56834L48.9508 10.9909L50.1232 13.4824L51.4422 14.9479L51.7353 15.3876H47.4852L46.6059 14.8014L45.7265 13.6289L44.4075 10.8444L42.7954 6.30112L42.2092 4.83556L41.7695 4.10278L42.6489 2.63722L43.3816 1.75788L43.6748 1.61133Z" fill="#99B645"/>
<path d="M27.1141 1.46484H27.8469L29.1659 2.63729L30.4849 5.12874L32.5367 10.991L33.5626 13.1893L33.416 13.9221L32.5367 15.0945L31.3643 15.2411L30.1918 14.6549L29.0194 13.0428L27.8469 10.4048L26.2348 5.86152L25.3555 3.80974L26.2348 2.34418L26.821 1.6114L27.1141 1.46484Z" fill="#99B645"/>
<path d="M10.9929 1.31836H11.8722L13.0447 2.34425L13.924 3.66325L15.0965 6.44782L16.562 10.6979L17.4414 12.6032L17.1483 13.4825L16.1224 14.8015L15.6827 15.0946L14.8034 14.9481L13.6309 13.7756L12.4585 11.5773L10.8463 7.32715L9.82046 4.39603L9.52734 3.95637L9.6739 3.07703L10.8463 1.46492L10.9929 1.31836Z" fill="#99B645"/>
<path d="M260.722 40.1562L261.308 40.3028L261.454 40.4494V48.8031L261.308 49.2427L260.429 49.0962L260.135 48.0703L259.109 48.9496L258.23 49.2427L256.911 49.0962L255.592 48.2168L255.006 47.1909L254.859 46.4582V44.846L255.299 43.6736L256.471 42.6477L257.351 42.3546H258.523L260.282 43.3805V40.4494L260.722 40.1562Z" fill="#0487D7"/>
<path d="M215.438 40.3027H219.248L220.714 40.5958L221.886 41.6217L222.326 42.5011V44.1132L221.446 45.2856L220.274 45.8719L219.688 46.0184H216.757V48.9495L215.438 49.0961V40.3027Z" fill="#0485D2"/>
<path d="M110.504 40.3027H114.168L115.633 40.5958L116.659 41.4752L117.245 42.6476V43.9666L116.513 45.1391L115.633 45.7253L114.607 46.0184H111.676V48.9495L111.53 49.0961H110.504V40.3027Z" fill="#0586D4"/>
<path d="M152.419 42.3555H153.885L154.764 42.7951L155.643 43.9676L155.79 44.5538L155.936 46.459V48.9505L155.79 49.097H154.911L154.764 48.5108L153.005 49.2436H151.686L150.807 48.6574L150.221 47.9246L150.074 47.6315V46.3125L150.514 45.5797L151.686 44.9935H153.885L154.764 45.2866L154.324 43.9676L153.738 43.5279L152.419 43.3814L150.954 43.821L150.66 43.0882L151.979 42.502L152.419 42.3555Z" fill="#0486D5"/>
<path d="M128.384 42.3555H129.85L130.729 42.7951L131.462 43.6745L131.755 44.5538L131.901 45.8728V48.9505L131.755 49.097H130.875L130.729 48.6574L128.97 49.2436H127.798L126.772 48.6574L126.186 47.9246L126.039 47.4849V46.459L126.479 45.7263L127.212 45.14L127.651 44.9935H129.85L130.729 45.14L130.289 43.9676L129.703 43.5279L128.384 43.3814L126.918 43.821L126.625 43.0882L127.944 42.502L128.384 42.3555Z" fill="#0486D5"/>
<path d="M141.427 42.3555H142.6L143.479 43.0882L143.919 43.5279L144.944 42.6486L145.677 42.3555H146.703L147.436 42.7951L148.169 43.6745L148.462 44.5538V49.2436L147.289 49.097L147.143 44.4073L146.85 43.821L146.41 43.5279H145.238L144.505 43.9676L144.212 44.9935V49.097H143.039V46.1659L142.893 44.5538L142.453 43.821L141.72 43.3814L140.401 43.821L140.108 44.2607L139.962 49.097H138.789V42.6486L138.936 42.502H139.668L140.108 42.9417L140.841 42.6486L141.427 42.3555Z" fill="#0183DB"/>
<path d="M196.97 42.3555H198.435L199.461 42.9417L200.194 44.1141L200.341 44.8469V49.097H199.461L199.315 48.3643L197.556 49.2436H196.384L195.504 48.8039L194.772 47.9246L194.625 47.6315V46.3125L195.065 45.5797L196.237 44.9935H198.289L199.168 45.2866L199.022 44.2607L198.289 43.5279L196.97 43.3814L195.504 43.821L195.211 43.0882L196.53 42.502L196.97 42.3555Z" fill="#0587D4"/>
<path d="M167.076 42.3555H168.248L169.274 42.7951L170.3 43.9676L170.739 45.2866V46.1659L166.782 46.3125L165.61 46.1659L165.903 47.1918L166.782 47.9246L168.101 48.0711L169.42 47.6315L170.007 47.4849L170.3 48.2177L169.274 48.9505L168.395 49.2436H167.076L165.61 48.5108L164.877 47.6315L164.438 46.6056V44.9935L165.024 43.5279L165.903 42.7951L167.076 42.3555Z" fill="#0586D5"/>
<path d="M176.453 54.959L177.186 55.1055L177.772 58.0367L178.505 57.3039L179.677 55.2521L180.41 55.1055V55.5452L180.85 55.2521L182.169 54.959H183.488L184.367 55.6918L184.514 56.7177L184.074 58.6229L183.634 59.2091H182.755L182.462 59.3557H181.143L180.41 58.6229V57.7435L179.97 57.597L179.677 57.1573V56.5711L178.505 58.6229L177.772 59.2091H177.332L176.893 57.8901L176.453 54.959Z" fill="#F4FEFD"/>
<path d="M118.566 40.3027H119.885V42.9407L120.472 42.7942L121.644 42.3545H122.67L123.403 42.7942L124.136 43.6735L124.429 44.5529V49.0961H123.256V45.8719L123.11 44.2597L122.523 43.6735L122.23 43.527H121.058L120.179 44.1132L120.032 44.2597L119.885 48.9495L119.592 49.0961H118.713L118.566 48.5099V40.3027Z" fill="#0081D7"/>
<path d="M172.938 42.5L173.524 42.6466L173.671 47.1898L174.11 47.9226L174.55 48.0691H175.576L176.455 47.4829L176.602 47.3363L176.748 42.7931L177.041 42.5H177.921L178.067 42.6466V49.095L177.334 49.2416L176.748 48.6553L175.869 48.9485L175.283 49.2416H174.257L173.377 48.8019L172.645 48.0691L172.352 47.0432V42.6466L172.938 42.5Z" fill="#0588D8"/>
<path d="M152.858 54.959H153.884L155.496 55.1055H155.789L155.643 56.5711L155.203 58.7694L154.47 59.9419L153.591 60.6747H151.246L150.953 59.7953L153.005 59.9419L153.738 59.6488L154.324 58.7694V58.1832L153.298 58.916H152.272L151.539 58.4763L151.246 58.0367V56.5711L152.126 55.2521L152.858 54.959Z" fill="#949E19"/>
<path d="M205.618 53.4922H206.644L207.377 54.3715V55.1043L206.205 56.1302L205.912 56.2768L206.058 57.3026L206.644 57.4492L207.67 56.4233H207.963L207.817 57.1561L207.084 57.8889L207.377 58.7682L207.231 59.3544L206.498 58.7682L205.765 59.0613L205.179 59.3544H203.86L203.127 58.7682L202.98 58.4751L203.127 57.1561L203.86 56.4233L204.593 56.1302L204.446 54.6646L205.325 53.6387L205.618 53.4922Z" fill="#949C15"/>
<path d="M257.354 43.3809H258.673L259.552 43.9671L260.139 44.6999L260.285 45.8723L259.992 47.0448L259.259 47.7775L258.673 48.2172H257.354L256.475 47.631L256.035 46.7516V44.8464L256.621 43.9671L257.354 43.3809Z" fill="#FCFDFD"/>
<path d="M242.992 40.3027H244.165L244.311 47.7771L248.854 47.9236V49.0961H242.992V40.3027Z" fill="#0486D4"/>
<path d="M207.23 42.3555H208.255L209.721 42.9417L209.868 43.6745L209.135 43.821L208.402 43.5279H206.936L206.497 43.821V44.5538L207.816 45.14L209.428 45.7263L210.161 46.6056L210.307 47.4849L209.721 48.3643L208.842 49.097L208.402 49.2436H207.23L205.471 48.6574L205.031 48.2177L205.178 47.6315L206.35 47.778L207.523 48.0711L208.695 47.9246L208.988 47.4849L208.842 46.7521L207.669 46.3125L206.057 45.7263L205.324 44.9935V43.6745L206.057 42.7951L207.23 42.3555Z" fill="#0586D6"/>
<path d="M172.939 54.959H174.258L174.99 55.3987L175.43 56.1314V57.597L174.551 58.7694L173.085 59.5022L172.206 59.3557L171.326 58.7694L170.887 57.8901L171.033 56.7177L171.619 55.8383L172.499 55.1055L172.939 54.959Z" fill="#A0AE21"/>
<path d="M192.429 54.959H193.894L194.627 55.3987L195.067 56.4245L194.774 57.8901L193.894 58.916L193.161 59.3557L192.136 59.5022L191.11 58.916L190.67 58.3298L190.523 57.8901V56.7177L191.403 55.5452L191.989 55.1055L192.429 54.959Z" fill="#939C17"/>
<path d="M118.124 54.959H119.59L120.469 55.6918L120.762 57.0108L120.322 58.0367L119.443 59.0626L118.417 59.5022L117.391 59.3557L116.365 58.4763L116.219 58.0367V57.0108L116.805 55.8383L117.684 55.1055L118.124 54.959Z" fill="#949C16"/>
<path d="M223.207 42.5H224.233L224.673 43.0862L226.431 47.3363L226.871 46.7501L228.043 43.6724L228.776 42.5H229.509L229.655 43.0862L227.457 48.2157L227.017 49.095H226.138L225.552 48.3622L224.673 46.1639L223.647 43.819L223.207 42.5Z" fill="#0486D5"/>
<path d="M190.374 42.3555H191.84L193.159 43.2348L193.306 43.821L192.719 43.9676L191.693 43.5279H190.374L189.495 44.1141L188.909 44.9935V46.6056L189.495 47.4849L189.935 47.9246L190.374 48.0711H191.547L192.426 47.6315L193.012 47.4849L193.306 48.2177L192.573 48.8039L191.547 49.2436H190.374L189.202 48.6574L188.469 48.0711L187.736 46.8987L187.59 46.459V45.14L188.03 43.9676L188.616 43.2348L189.495 42.6486L190.374 42.3555Z" fill="#0587D6"/>
<path d="M160.333 42.3555H161.506L162.678 42.9417L163.118 43.6745L162.532 43.9676L161.506 43.5279H160.187L159.308 44.1141L158.721 44.9935V46.6056L159.308 47.4849L160.04 48.0711H161.359L162.532 47.4849H162.825L163.118 47.9246V48.3643L161.359 49.2436H160.187L158.721 48.5108L157.842 47.4849L157.402 46.1659V45.14L157.842 43.9676L158.428 43.2348L159.747 42.502L160.333 42.3555Z" fill="#0179E5"/>
<path d="M216.76 41.4746H219.398L220.57 41.9143L221.01 42.3539L221.157 42.6471V43.8195L220.131 44.6988L219.691 44.8454L217.2 44.992L216.76 44.6988L216.613 41.6212L216.76 41.4746Z" fill="#FCFDFD"/>
<path d="M111.676 41.4746H114.607L115.779 42.0608L116.072 42.6471V43.8195L115.34 44.5523L114.607 44.8454H111.676V41.4746Z" fill="#FCFDFD"/>
<path d="M180.702 40.7422H181.435L181.728 41.0353L181.874 42.3543L183.193 42.6474V43.5268H181.728L181.874 47.9234L182.607 48.07H183.193L183.34 48.9493L182.9 49.2424H181.728L180.995 48.8028L180.555 48.07L180.409 45.8716V44.113L180.262 43.6733L179.383 43.0871V42.794L180.262 42.5009L180.555 40.8887L180.702 40.7422Z" fill="#0593F2"/>
<path d="M231.85 40.7422L232.583 40.8887L232.73 41.0353V42.3543L234.049 42.5009L234.342 42.794L234.195 43.5268L232.876 43.6733V48.07H234.342L234.488 48.9493L234.342 49.0959H232.436L231.85 48.5097L231.704 48.07L231.411 43.8199L230.531 43.2336V42.794L231.411 42.3543L231.704 40.8887L231.85 40.7422Z" fill="#0593F1"/>
<path d="M251.198 40.5957L251.784 40.8888L251.931 41.475L252.077 42.3544L253.396 42.6475L253.69 43.0872L253.396 43.5268L252.077 43.6734L251.931 44.6993L252.077 47.9235L253.396 48.0701L253.69 48.8028L253.396 49.0959H251.784L251.051 48.3632L250.758 47.3373L250.612 43.8199L249.586 43.0872V42.794L250.612 42.3544L250.905 40.8888L251.198 40.5957Z" fill="#0486D5"/>
<path d="M111.53 41.6211H111.676V44.8453L114.607 44.6988L115.487 44.2591H115.78L115.926 43.8194V42.647L115.78 42.2073L116.659 42.0608L116.806 41.7676L117.245 42.647V43.966L116.513 45.1384L115.633 45.7247L114.607 46.0178H111.676V48.9489L111.53 49.0954H110.504L110.944 48.9489L111.09 46.8971V44.2591L111.237 43.2332L111.383 43.0867L111.53 41.6211Z" fill="#0588D7"/>
<path d="M11.2852 39.8633L11.8714 40.5961L12.6042 41.9151L13.6301 43.3806L14.5094 44.6996V44.9927H14.8025V45.2859L15.2422 45.4324L16.1215 46.6049L18.613 49.0963L20.2251 50.2688L21.8372 51.1481L23.889 52.3205L27.1132 53.493L28.5788 54.0792L31.3633 54.812L32.3892 55.1051V55.2517H31.2168L27.846 54.5189L24.9149 53.493L22.4234 52.3205L19.932 50.7084L17.8802 49.0963L15.2422 46.4583L13.6301 44.4065L12.0179 41.7685L11.2852 40.3029V39.8633Z" fill="#0081D5"/>
<path d="M219.101 54.959H220.42L221.152 55.5452L221.445 56.1314V56.8642L220.859 57.4504H218.221L218.368 58.3298L218.954 58.6229L219.98 58.4763L220.713 58.1832L220.42 58.916L219.833 59.3557L218.807 59.5022L217.782 59.0626L217.342 58.4763L217.195 57.3039L217.635 55.9849L218.661 55.1055L219.101 54.959Z" fill="#A1B021"/>
<path d="M202.25 40.3027H203.569V49.0961H202.397L202.25 48.9495V40.3027Z" fill="#0486D5"/>
<path d="M141.427 42.3555H142.6L143.479 43.0882L143.332 43.3814H142.893L142.746 43.9676L141.72 43.3814L140.401 43.821L140.108 44.2607L139.962 49.097H138.789V42.6486L138.936 42.502H139.668L140.108 42.9417L140.841 42.6486L141.427 42.3555Z" fill="#0487D9"/>
<path d="M182.169 54.959H183.488L184.367 55.6918L184.514 56.7177L184.074 58.6229L183.634 59.2091H182.755L182.462 59.3557H181.143L180.41 58.6229V57.7435L181.143 56.8642L182.462 56.5711L183.927 56.7177L183.488 55.6918L183.195 55.5452H182.315L182.169 55.6918H181.436L181.729 55.1055L182.169 54.959Z" fill="#95A11D"/>
<path d="M212.358 53.4922H212.944L212.651 55.3974L212.505 55.9836H215.729L216.022 54.225L216.315 53.4922H216.901L216.755 54.6646L215.729 59.2079H214.996L215.289 57.5958L215.436 56.863L212.358 56.7164L211.772 59.2079H211.039L211.186 58.0354L212.212 53.6387L212.358 53.4922Z" fill="#919B19"/>
<path d="M137.033 42.3555L137.619 42.502L137.472 43.2348L135.421 44.2607H135.128V49.097H133.955L133.809 48.9505V42.7951L134.248 42.502H134.834L134.981 43.2348L135.714 42.9417L137.033 42.3555Z" fill="#0486D7"/>
<path d="M118.566 40.3027H119.885V42.5011H119.592V43.3804L120.032 43.9666L119.885 48.9495L119.592 49.0961H118.713L118.566 48.5099V40.3027Z" fill="#0585D0"/>
<path d="M113.437 53.4922H114.902L115.782 54.0784L115.928 54.8112L115.196 54.6646L114.756 54.3715H113.583L112.411 55.1043L111.678 55.9836L111.532 57.0095L112.118 58.182L112.558 58.4751H114.023L115.049 57.8889H115.342L115.049 58.6216L113.877 59.3544H112.411L111.239 58.6216L110.799 58.0354L110.652 57.5958V56.1302L111.532 54.6646L112.704 53.7853L113.437 53.4922Z" fill="#939B15"/>
<path d="M184.955 42.5H186.128V49.095H184.955L184.809 48.9485V42.6466L184.955 42.5Z" fill="#0593F2"/>
<path d="M233.172 53.4922H233.759V54.5181L233.612 55.1043L235.371 54.9577L236.104 55.2509L236.397 55.8371L236.104 57.7423L235.664 59.2079H234.931L235.371 57.0095V55.8371L235.224 55.6905L233.759 55.8371L233.319 56.863L232.733 59.0613L232 59.2079L232.147 58.0354L232.733 55.2509L233.026 54.3715L233.172 53.4922Z" fill="#949C16"/>
<path d="M133.366 54.959H134.539L135.271 55.3987L135.711 56.1314V56.8642L135.418 57.3039L133.366 57.597L132.78 57.3039V57.0108L135.125 56.8642L134.685 55.8383L134.392 55.6918H133.513L132.78 56.278L132.34 57.1573L132.487 58.1832L133.073 58.6229L134.246 58.4763L135.125 58.1832L134.832 58.916L134.099 59.3557L133.073 59.5022L131.901 58.916L131.461 57.7435L131.607 56.5711L132.487 55.3987L133.366 54.959Z" fill="#939D19"/>
<path d="M223.792 54.959H225.111L225.844 55.3987L226.137 56.1314L225.844 58.0367L225.257 59.2091L223.352 59.5022L222.326 59.0626L222.18 58.916V57.4504L222.766 56.8642L224.085 56.5711L224.964 56.7177V57.0108L224.671 57.1573L223.352 57.3039L222.912 57.7435V58.4763L223.206 58.6229H224.525L224.964 58.0367L225.111 56.7177H225.404L225.111 55.6918L224.231 55.5452L223.059 55.6918V55.2521L223.792 54.959Z" fill="#949D17"/>
<path d="M128.97 54.959H129.996L130.582 55.6918V56.8642L130.142 58.916L129.849 59.2091H129.117L129.703 57.0108V55.6918H128.53L127.944 55.9849L127.358 58.1832L127.065 59.2091H126.332L126.625 57.4504L127.065 55.2521L127.211 55.1055L128.97 54.959Z" fill="#A1B022"/>
<path d="M192.87 55.5449H193.603L194.189 56.1311L194.335 57.0105L193.749 58.1829L193.456 58.6226L192.284 58.7692L191.551 58.3295L191.258 57.8898V56.8639L192.137 55.838L192.87 55.5449Z" fill="#FCFDFD"/>
<path d="M148.169 54.959H149.635L150.221 55.5452V57.0108L149.635 59.0626L148.902 59.2091L149.195 57.7435L149.341 57.1573V55.8383L149.195 55.6918L147.876 55.8383L147.436 56.4245L146.85 58.916L146.703 59.2091H146.117V58.1832L146.703 55.2521L146.85 55.1055L148.169 54.959Z" fill="#A0AF23"/>
<path d="M128.092 45.873H130.144L130.584 46.1662V47.4852L129.851 48.0714L129.118 48.3645H127.946L127.213 47.7783L127.066 46.7524L127.653 46.0196L128.092 45.873Z" fill="#FBFDFD"/>
<path d="M118.565 55.5449L119.445 55.6915L119.884 56.1311V57.4501L119.005 58.6226L117.979 58.7692L117.246 58.3295L116.953 57.8898V56.8639L117.832 55.838L118.565 55.5449Z" fill="#FCFDFD"/>
<path d="M168.245 54.959H169.271L170.004 55.6918V57.3039L169.564 59.0626L169.125 59.3557L168.685 59.0626L169.271 56.7177L169.125 55.8383L168.978 55.6918L167.659 55.8383L167.219 56.5711L166.633 59.0626L166.487 59.2091H165.754L166.487 55.2521L166.633 55.1055L168.245 54.959Z" fill="#A0AF20"/>
<path d="M163.118 54.959H164.291L165.024 55.5452L165.17 56.4245L164.584 58.916L164.437 59.2091H163.705L164.291 56.7177V55.9849L163.851 55.6918L162.679 55.8383L162.239 56.5711L161.653 59.0626L161.506 59.2091H160.773L161.506 55.3987L161.653 55.1055L163.118 54.959Z" fill="#A1B123"/>
<path d="M152.127 45.873H154.179L154.619 46.3127V47.3386L153.886 48.0714L153.153 48.3645H151.981L151.248 47.7783L151.102 46.7524L151.688 46.0196L152.127 45.873Z" fill="#FBFDFD"/>
<path d="M123.546 54.959H124.865L125.598 55.6918V56.8642L125.158 58.6229L124.865 59.2091H124.132L124.718 57.0108V55.8383L124.572 55.6918L123.253 55.8383L122.813 56.278L122.08 59.2091L121.494 59.3557L121.348 58.916L122.08 55.2521L122.227 55.1055L123.546 54.959Z" fill="#949E19"/>
<path d="M196.678 45.873H198.73L199.17 46.1662V47.3386L198.437 48.0714L197.558 48.3645H196.532L195.799 47.7783L195.652 46.7524L196.239 46.0196L196.678 45.873Z" fill="#FBFDFD"/>
<path d="M173.378 55.5449L174.111 55.6915L174.697 56.4243V57.3036L173.817 58.476L173.378 58.7692L172.352 58.6226L171.766 58.0364V56.8639L172.352 55.9846L173.378 55.5449Z" fill="#F4FEFD"/>
<path d="M198.144 54.959H199.17L199.902 55.6918V57.1573L199.463 58.916L199.17 59.2091H198.583L198.877 57.8901L199.17 56.1314L198.877 55.6918L197.411 55.8383L197.118 56.1314L196.385 59.2091L195.652 59.3557L195.945 57.597L196.385 55.2521L196.532 55.1055L198.144 54.959Z" fill="#949E18"/>
<path d="M215.438 40.3027H219.248L220.567 40.5958V40.889L221.153 41.1821L221.446 41.9148L221.153 42.5011L220.86 42.3545V42.0614L219.395 41.6217H216.463L216.024 41.1821H215.438V40.3027Z" fill="#0586D3"/>
<path d="M133.514 55.5449H134.394L134.98 55.9846L135.126 56.8639L134.247 57.0105H132.782V57.3036L133.514 57.4501H135.126L134.98 58.3295L133.807 58.7692L132.782 58.6226L132.195 57.8898V57.157L132.928 55.9846L133.514 55.5449Z" fill="#FCFDFD"/>
<path d="M231.707 44.1133H232.44L232.586 44.4064L232.879 48.0703H234.345L234.492 48.9496L234.345 49.0962H232.44L231.854 48.51L231.707 48.0703V44.1133Z" fill="#0586D3"/>
<path d="M167.221 43.3809L168.54 43.5274L169.566 44.4068L169.713 45.1395L169.566 45.2861H165.609L165.756 44.4068L166.489 43.674L167.221 43.3809Z" fill="#FBFDFD"/>
<path d="M256.765 42.5L257.058 42.7931L256.471 43.3793V44.2587L256.178 44.8449V46.7501L256.471 47.3363V48.2157L256.325 48.8019L255.592 48.2157L255.006 47.1898L254.859 46.457V44.8449L255.299 43.6724L256.471 42.6466L256.765 42.5Z" fill="#017AE6"/>
<path d="M138.497 54.959H139.67L140.549 55.3987L139.963 55.9849L139.376 55.6918L138.351 55.8383L137.471 56.5711L137.325 56.8642V57.8901L137.911 58.4763L138.937 58.6229L139.67 58.1832L139.963 58.3298L139.67 58.916L139.083 59.3557L138.204 59.5022L137.178 59.0626L136.592 58.4763L136.445 58.0367V56.8642L137.325 55.5452L138.497 54.959Z" fill="#949E19"/>
<path d="M180.557 43.8203L180.703 44.1134H180.996L181.583 46.3118V47.9239L182.608 48.0704H183.195L183.341 48.9498L182.902 49.2429H181.729L180.996 48.8032L180.557 48.0704L180.41 45.8721L180.557 43.8203Z" fill="#0586D4"/>
<path d="M153.299 55.5449L154.325 55.6915L154.765 56.2777V57.157L153.886 58.1829L152.86 58.3295L152.127 57.8898L151.98 57.5967V56.7174L152.86 55.6915L153.299 55.5449Z" fill="#FCFDFD"/>
<path d="M143.332 43.2344L143.772 43.5275L143.625 44.6999L143.919 44.2603L144.358 43.5275H144.651L144.212 44.993V49.0966H143.039V46.1655L142.893 44.5534L142.746 43.8206L142.893 43.3809L143.332 43.2344Z" fill="#017AE6"/>
<path d="M110.504 40.4492H111.53L111.09 40.5958L111.237 42.3544H111.53V43.0872L111.383 43.2338L111.237 45.139V47.6305L110.944 48.9495H110.504V40.4492Z" fill="#007ED3"/>
<path d="M224.231 55.3984L225.111 55.545L225.404 55.9847V56.7174H225.111L225.257 57.4502L224.817 58.4761L224.524 58.7692H223.205L222.766 58.4761L222.912 57.4502L223.352 57.1571L224.964 57.0106V56.7174L223.205 56.864L223.352 55.9847L223.645 55.545L224.231 55.3984Z" fill="#F4FEFD"/>
<path d="M176.453 54.959L177.186 55.1055L177.772 58.0367L178.505 57.3039L179.677 55.2521L180.41 55.1055L180.264 55.8383L179.238 57.3039L178.358 58.7694L177.772 59.2091H177.332L176.893 57.8901L176.453 54.959Z" fill="#949D17"/>
<path d="M186.713 53.7852H187.153L187.593 54.9576L188.032 55.3973L187.007 55.9835L186.567 57.5956V58.4749L187.3 58.7681V59.3543H186.42L185.688 58.7681V57.7422L185.981 56.5697V55.6904L185.834 55.1042L186.42 54.6645L186.713 53.7852Z" fill="#939C17"/>
<path d="M177.918 42.6484H178.065V49.0969L177.332 49.2435L177.625 49.0969L177.332 48.2176L177.039 47.6313L177.186 47.0451H177.479L177.039 45.7261V42.9415H177.918V42.6484Z" fill="#0694F3"/>
<path d="M142.307 53.7852H142.747L142.893 54.0783V54.9576L143.48 55.1042V55.5438L142.747 55.8369L142.161 57.8887V58.6215L142.747 58.7681L142.893 59.3543L142.454 59.5008L141.721 59.2077L141.281 58.6215L141.428 57.1559L141.721 55.6904L141.281 55.2507L142.161 54.9576V54.0783L142.307 53.7852Z" fill="#939C16"/>
<path d="M160.331 42.3555H161.504L162.676 42.9417L163.116 43.6745L162.529 43.9676L161.504 43.5279H160.185L159.305 44.1141L158.719 44.7004L158.426 43.9676L158.133 43.821L158.426 43.2348L159.745 42.502L160.331 42.3555Z" fill="#0587D6"/>
<path d="M203.418 40.3027H203.565V49.0961L202.832 48.9495L202.979 41.0355L203.125 40.7424H203.418V40.3027Z" fill="#0694F3"/>
<path d="M230.534 53.7852H230.827V55.1042L232.146 55.2507V55.3973L230.68 55.6904L230.241 57.8887L230.387 58.6215L230.974 58.9146V59.3543H230.094L229.361 58.6215L229.508 57.1559L229.948 55.5438L229.215 55.3973L229.361 55.1042L230.094 54.811L230.387 53.9317L230.534 53.7852Z" fill="#949C16"/>
<path d="M52.7611 50.1211H52.9077L53.0542 51.147V55.5437H51.7352L49.9766 55.2506V54.9574H50.7093L50.8559 54.5178L51.5887 54.2247H51.8818L52.3215 53.4919L52.6146 52.6125L52.7611 50.1211Z" fill="#007FD4"/>
<path d="M155.35 55.8379H155.496V57.45L155.057 59.0621L154.47 59.9415L153.591 60.6742H151.246L150.953 59.7949L153.005 59.9415L153.738 59.6483L154.47 58.6225L154.91 56.2776L155.35 55.8379Z" fill="#939B13"/>
<path d="M223.207 42.5H224.233L224.673 43.0862L225.259 44.6983L224.819 45.4311L225.112 45.5777L224.966 45.8708L225.552 47.0432L226.138 47.6295L225.992 48.3622L225.698 48.6553L224.526 45.8708L223.207 42.7931V42.5Z" fill="#0179E5"/>
<path d="M128.384 42.3555H129.849L130.729 42.7951L131.168 43.821L130.729 44.1141L129.263 43.3814L127.944 43.5279L126.918 43.821L126.625 43.0882L127.944 42.502L128.384 42.3555Z" fill="#0587D5"/>
<path d="M162.529 47.4844H162.822L163.115 47.924V48.3637L161.357 49.243H160.184L159.012 48.6568L158.719 48.0706H159.012V47.6309L159.598 47.7775L160.038 48.0706H161.357L162.529 47.4844Z" fill="#0587D6"/>
<path d="M192.576 47.4844L193.162 47.6309L193.309 48.2172L192.576 48.8034L191.55 49.243H190.378L189.205 48.6568L189.059 48.0706L189.352 47.6309L190.378 48.0706H191.55L192.429 47.6309L192.576 47.4844Z" fill="#0587D7"/>
<path d="M121.644 42.3555H122.67L123.402 42.7951L123.842 43.3814L123.402 43.821L122.963 43.9676L122.23 43.5279H121.057L120.032 44.1141L119.445 43.3814L119.592 42.502L119.885 42.9417L120.471 42.7951L121.644 42.3555Z" fill="#0587D9"/>
<path d="M152.419 42.3555H153.884L154.764 42.7951L155.057 43.3814V43.821L154.324 43.9676L153.738 43.5279L152.419 43.3814L150.953 43.821L150.66 43.0882L151.979 42.502L152.419 42.3555Z" fill="#0587D5"/>
<path d="M245.336 47.9238H248.854V48.9497H244.457L244.75 48.6566V48.0704L245.336 47.9238Z" fill="#0485D0"/>
<path d="M228.044 53.4922L228.776 53.6387L228.044 57.3026L227.604 59.0613L226.871 59.2079L227.164 57.5958L227.897 53.6387L228.044 53.4922Z" fill="#949E1A"/>
<path d="M196.974 42.3555H198.439L199.465 42.9417L199.758 43.5279L199.025 43.9676L197.853 43.3814L196.387 43.5279L195.508 43.821L195.215 43.0882L196.534 42.502L196.974 42.3555Z" fill="#0587D5"/>
<path d="M145.679 42.3555H146.705L147.437 42.7951L147.877 43.3814L147.144 44.1141L146.412 43.5279H145.239L144.653 43.821V43.5279H144.36L143.774 44.9935L143.48 44.7004L143.627 43.821L144.653 42.7951L145.679 42.3555Z" fill="#0587D5"/>
<path d="M52.9096 37.8105H53.0561V42.3538L50.125 42.2072L50.5647 42.0607V41.7676L51.5906 41.1813L52.4699 39.8623L52.763 38.5433L52.9096 37.8105Z" fill="#007FD3"/>
<path d="M216.315 53.4922H216.901L216.755 54.6646L215.729 59.2079H214.996L215.289 57.5958L215.729 55.544L216.169 53.6387L216.315 53.4922Z" fill="#929C18"/>
<path d="M233.172 53.4922H233.759V54.5181L233.319 55.3974L233.466 56.4233L232.733 59.0613L232 59.2079L232.147 58.0354L232.733 55.2509L233.026 54.3715L233.172 53.4922Z" fill="#939D19"/>
<path d="M160.04 53.4922H160.479V54.6646L159.454 59.0613L159.307 59.2079H158.574L159.747 54.3715L160.04 53.4922Z" fill="#919C19"/>
<path d="M217.636 45.2852H218.369V45.7248L219.688 45.8714V46.0179H216.757V48.9491L215.438 49.0956V46.311H215.584V48.2163L216.17 48.3628V46.7507L216.463 45.7248H216.757L216.903 45.4317V45.7248H217.636V45.2852Z" fill="#0694F3"/>
<path d="M122.227 55.1055H123.399L123.693 55.3986V55.6917L122.96 55.9848L122.52 57.4504L122.08 59.209L121.494 59.3556L121.348 58.9159L122.08 55.252L122.227 55.1055Z" fill="#949C15"/>
<path d="M182.17 54.959H183.489L184.369 55.6918L184.515 56.7177L184.076 58.6229L183.929 58.916H183.196V58.3298L183.489 57.7435L183.636 56.8642H183.929L183.489 55.6918L183.196 55.5452H182.317L182.17 55.6918H181.438L181.731 55.1055L182.17 54.959Z" fill="#949B13"/>
<path d="M204.741 56.5703L205.327 56.8634L205.913 57.8893L205.767 58.4755L205.18 58.7687H204.155L203.715 58.329V57.4496L204.741 56.5703Z" fill="#FCFDFD"/>
<path d="M181.731 57.1562H183.49V58.0356L182.757 58.7684H181.438L180.852 58.1821L181.438 57.3028L181.731 57.1562Z" fill="#F4FEFD"/>
<path d="M118.566 40.3027H119.885V42.5011L119.299 41.9148L119.153 41.6217L119.006 42.3545V46.6046L118.86 48.803L118.566 48.9495V40.3027Z" fill="#0694F3"/>
<path d="M128.969 54.959H129.995L130.581 55.6918V56.8642L130.141 58.916L129.848 59.2091H129.115L129.702 57.0108V55.5452L128.969 55.2521V54.959Z" fill="#939D18"/>
<path d="M198.145 54.959H199.17L199.903 55.6918V57.1573L199.464 58.916L199.17 59.2091H198.584L198.877 57.8901L199.17 56.1314L198.438 55.3987L198.145 55.2521V54.959Z" fill="#939D18"/>
<path d="M168.246 54.959H169.272L170.005 55.6918V57.3039L169.565 59.0626L169.125 59.3557L168.686 59.0626L169.272 56.7177L169.125 55.5452L168.246 55.2521V54.959Z" fill="#949C15"/>
<path d="M152.86 54.959H153.886L155.498 55.1055H155.791L155.644 56.5711L155.351 56.1314L154.912 56.278V57.1573H154.765L154.472 55.9849L154.032 55.6918L152.86 55.8383L152.274 56.278L151.98 55.8383V55.3987L152.86 54.959Z" fill="#9BAA21"/>
<path d="M133.512 55.5449H134.392L134.978 55.9846L135.124 56.8639L134.245 57.0105H132.78V57.3036L132.34 57.157L132.78 56.1311L133.512 55.5449Z" fill="#F4FEFD"/>
<path d="M172.059 56.2773H172.352L172.792 57.0101L173.378 57.5963L173.817 58.4757L173.378 58.7688L172.352 58.6222L171.766 58.036V56.8636L172.059 56.2773Z" fill="#FCFDFD"/>
<path d="M189.497 54.959H189.79V56.1314L189.204 59.0626L189.057 59.2091H188.324L189.057 55.6918L189.497 54.959Z" fill="#929C19"/>
<path d="M148.902 55.1055H149.928L150.221 55.5451V57.0107L149.635 59.0625L148.902 59.209L149.195 57.7435L149.342 57.1573V55.3986L148.902 55.1055Z" fill="#939C17"/>
<path d="M131.608 45.5781L131.902 45.8712V48.9489L131.755 49.0955H130.876L130.729 48.6558L129.41 48.9489L129.996 48.5092L131.022 47.7765L131.169 47.4834L131.315 46.0178L131.608 45.5781Z" fill="#0593F1"/>
<path d="M138.936 42.5L139.229 42.7931L139.375 48.5088L139.229 49.095H138.789V42.6466L138.936 42.5Z" fill="#027EE5"/>
<path d="M163.703 55.1055H164.582L165.022 55.5451L165.169 56.4245L164.582 58.9159L164.436 59.209H163.703L164.289 56.7176V55.3986L163.703 55.1055Z" fill="#929C18"/>
<path d="M144.944 55.1055H145.384L145.237 56.7176L144.651 59.209H143.918L144.504 56.4245L144.944 55.1055Z" fill="#929B18"/>
<path d="M111.676 57.7422L112.555 58.475H114.021L115.047 57.8887H115.34L115.047 58.6215L113.874 59.3543H112.409L111.676 58.6215L111.383 58.0353H111.676V57.7422Z" fill="#A1AF20"/>
<path d="M219.395 55.5449L220.421 55.6915L220.714 56.1311V56.8639L218.223 57.157L218.369 56.4243L219.102 55.6915L219.395 55.5449Z" fill="#F4FEFD"/>
<path d="M212.361 55.5449L212.508 55.9846H215.732L215.586 56.7174H212.361L212.215 57.0105L212.361 55.5449Z" fill="#A0B229"/>
<path d="M191.11 55.8379L191.696 56.131L191.403 56.8638V57.8897L191.989 58.4759L192.282 58.6225V58.9156L191.549 59.2087L190.817 58.6225L190.523 57.8897V56.7172L191.11 55.8379Z" fill="#949D17"/>
<path d="M155.644 46.1641L155.937 46.4572V48.9486L155.79 49.0952H154.911L154.764 48.509L153.445 48.9486L153.885 48.509L154.618 48.0693H155.057L155.644 46.1641Z" fill="#0694F3"/>
<path d="M205.911 53.9316L206.643 54.2248L206.79 54.9575L205.764 55.9834L205.178 55.8369L205.031 54.811L205.617 54.0782L205.911 53.9316Z" fill="#FBFDFD"/>
<path d="M251.785 47.6289L252.518 48.0686H253.398L253.691 48.8014L253.398 49.0945H251.785L251.199 48.6548V47.922L251.785 47.6289Z" fill="#0587D4"/>
<path d="M119.59 44.4062H119.883V48.9495L119.297 48.6564V45.2856L119.59 44.4062Z" fill="#0694F3"/>
<path d="M219.54 55.3984L220.566 55.545L221.152 56.2778L221.445 56.1312V56.864L220.859 57.4502H218.074L218.221 56.864L218.367 57.0106L218.954 56.864H220.712L220.419 55.8381L219.54 55.545V55.3984Z" fill="#9AB746"/>
<path d="M142.307 53.7852H142.747L142.893 54.0783V54.9576L143.48 55.1042V55.5438L142.747 55.8369L142.454 56.1301V55.8369L141.867 55.9835L141.281 55.2507L142.161 54.9576V54.0783L142.307 53.7852Z" fill="#9CA91C"/>
<path d="M153.297 55.5449L154.323 55.6915L154.763 56.2777V57.157L154.616 57.4501H154.323L153.737 56.7174L152.711 56.2777V55.838L153.297 55.5449Z" fill="#F4FEFD"/>
<path d="M236.543 47.4844L237.276 47.6309L237.423 47.924V49.0965L237.129 49.243H236.25L235.957 48.8034V47.924L236.543 47.4844Z" fill="#0592F0"/>
<path d="M180.702 40.7422H181.435L180.995 42.0612L180.848 43.2336L180.409 43.6733L179.529 43.2336L179.383 42.794L180.262 42.5009L180.555 40.8887L180.702 40.7422Z" fill="#0484D6"/>
<path d="M204.593 56.1309L204.739 56.424L205.032 56.5705L204.153 57.1568L203.86 57.4499V58.3292L204.006 58.7689L203.274 58.9154L202.98 58.4758L203.127 57.1568L203.86 56.424L204.593 56.1309Z" fill="#949E19"/>
<path d="M230.534 53.7852H230.827V55.1042L232.146 55.2507V55.3973L230.68 55.6904L230.534 55.9835L229.948 55.8369V55.5438L229.215 55.3973L229.361 55.1042L230.094 54.811L230.387 53.9317L230.534 53.7852Z" fill="#9CAB21"/>
<path d="M205.619 53.4922H206.645L207.378 54.3715V55.1043L206.205 56.1302L205.912 56.2768L205.619 56.7164L205.473 55.9836L206.645 54.9577L206.499 54.225L205.619 53.6387V53.4922Z" fill="#95A11D"/>
<path d="M188.475 45.2852H188.621L188.914 46.6042L189.501 47.4835L189.647 47.7766H189.354L188.914 48.3628L188.182 47.6301L188.035 45.8714L188.475 45.2852Z" fill="#0178E4"/>
<path d="M139.375 45.2852H139.668L139.815 45.8714L139.961 49.0956H139.229L139.082 48.8025L139.229 47.7766V45.4317L139.375 45.2852Z" fill="#0585D1"/>
<path d="M173.082 42.9395H173.522V46.7499L173.229 46.1637H172.936L172.789 45.2843L172.936 43.086L173.082 42.9395Z" fill="#0694F3"/>
<path d="M223.207 42.5H224.233L224.673 43.0862L224.819 43.819L224.526 44.1121L224.379 45.138L223.94 44.5518L223.207 42.7931V42.5Z" fill="#0589D9"/>
<path d="M163.119 55.5449L164.145 55.6915L164.439 55.9846L164.292 57.157L163.559 56.8639L162.387 56.1311L162.68 55.6915L163.119 55.5449Z" fill="#F4FEFD"/>
<path d="M165.609 45.2852H169.566V45.4317L167.661 45.5783L167.368 46.0179L168.101 46.1645V46.311H166.782L165.756 46.1645L165.609 45.2852Z" fill="#0694F3"/>
<path d="M192.869 55.5449H193.602L194.189 56.1311L194.335 57.0105L194.042 57.3036L192.283 56.1311L192.137 55.838L192.869 55.5449Z" fill="#F4FEFD"/>
<path d="M173.375 55.1055H174.547L175.28 55.8382L175.427 56.1314V57.5969L174.841 58.1831L174.694 56.1314L174.254 55.6917L173.375 55.3986V55.1055Z" fill="#93990F"/>
<path d="M225.113 44.6992L225.407 44.8458L226.286 47.0441V47.9234L225.993 47.7769L225.846 47.3372L225.113 46.6044L224.82 45.7251V45.1389L225.113 44.6992Z" fill="#0080D4"/>
<path d="M251.784 44.6992H251.93V47.6303L251.637 47.9234H251.197L251.344 48.3631H251.051L250.758 47.3372L250.904 45.8717L251.197 46.1648L251.344 46.751L251.637 46.8976V45.1389L251.784 44.6992Z" fill="#0280E9"/>
<path d="M263.799 47.6289H264.532L264.825 47.922V48.8014L264.532 49.0945H263.652L263.359 48.6548L263.506 47.7755L263.799 47.6289Z" fill="#0588D7"/>
<path d="M132.34 58.1816L133.073 58.6213L134.245 58.4748L135.124 58.1816L134.831 58.9144L134.099 59.3541L133.073 59.5006L132.633 59.3541L132.34 58.9144V58.1816Z" fill="#A1B021"/>
<path d="M232.586 56.1309L232.733 56.5705H233.026V58.1826L232.586 59.2085H232L232.147 58.0361L232.586 56.1309Z" fill="#9EAC21"/>
<path d="M168.102 55.5449H168.981L169.421 56.1311L169.274 56.8639L167.662 56.4243L167.516 55.838L168.102 55.5449Z" fill="#F4FEFD"/>
<path d="M126.772 56.7168L127.358 56.8634V58.1824L127.065 59.2082H126.332L126.625 57.4496L126.772 56.7168Z" fill="#959E15"/>
<path d="M260.725 40.1562L261.311 40.3028V40.889H260.871V43.2339H260.432L260.285 40.4494L260.725 40.1562Z" fill="#007ED6"/>
<path d="M139.669 58.1816L139.962 58.3282L139.669 58.9144L139.083 59.3541L138.204 59.5006L137.324 59.2075L137.031 58.3282L137.911 58.6213H138.936L139.669 58.1816Z" fill="#A1AF1E"/>
<path d="M215.438 40.3027L216.903 40.5958L217.05 41.1821L218.955 41.3286V41.4752L216.463 41.6217L216.024 41.1821H215.438V40.3027Z" fill="#0694F3"/>
<path d="M123.694 55.5449H124.573L124.866 55.838V56.5708L124.133 56.7174L123.254 56.2777L122.961 55.838L123.694 55.5449Z" fill="#F4FEFD"/>
<path d="M185.248 43.5273H185.395L185.541 45.286V47.6309L185.248 48.0706L185.102 47.924V44.4067L185.248 43.5273Z" fill="#0585D0"/>
<path d="M185.393 40.0098L185.979 40.1563L186.126 40.8891L185.979 41.3288H185.1L184.66 40.7425V40.3029L185.393 40.0098Z" fill="#0588D8"/>
<path d="M220.566 40.5957L221.299 41.0354L222.032 41.9147L222.179 42.3544L221.885 43.0872L221.446 43.2337L221.153 43.5268L221.006 42.5009L221.153 41.9147H221.446L220.86 41.0354L220.566 40.8888V40.5957Z" fill="#027CE6"/>
<path d="M118.711 40.3027H119.883V42.5011L119.297 41.9148L118.857 40.7424L118.711 40.3027Z" fill="#058FE9"/>
<path d="M204.74 56.5703L205.327 56.8634L205.913 57.8893V58.329L205.327 58.1824L204.301 57.3031L204.447 56.7169L204.74 56.5703Z" fill="#F4FEFD"/>
<path d="M197.998 55.5449H198.878L199.317 56.1311L199.171 56.7174L198.438 56.5708L197.266 55.9846L197.412 55.6915L197.998 55.5449Z" fill="#F4FEFD"/>
<path d="M116.661 41.7676L117.1 42.2072L117.247 42.94L117.1 43.2331L116.221 43.6728L115.781 42.2072L116.661 42.0607V41.7676Z" fill="#0178E5"/>
<path d="M31.9492 34L32.5354 34.4397L32.9751 35.1724L33.4148 35.6121L32.9751 35.9052H31.9492V34Z" fill="#007FD3"/>
<path d="M224.083 56.5703L224.962 56.7169V57.01L224.669 57.1565L223.35 57.3031L222.91 57.7428L222.617 58.329L222.324 57.1565L223.35 56.7169L224.083 56.5703Z" fill="#9CAC24"/>
<path d="M199.61 43.5273H199.903L200.196 44.1136V44.8463L199.463 45.1395L199.317 45.7257L199.17 45.4326V44.5532L199.023 43.8205L199.61 43.5273Z" fill="#027CE7"/>
<path d="M196.533 55.1055H198.145L198.732 55.5451L197.413 55.8382L196.973 56.1314L196.387 55.9848V55.252L196.533 55.1055Z" fill="#A0B125"/>
<path d="M186.715 53.7852H187.155L187.594 55.1042L186.862 55.5438H186.275L186.129 54.811L186.422 54.6645L186.715 53.7852Z" fill="#96B241"/>
<path d="M130.435 47.4844H130.581V48.2172L129.702 48.8034H128.383L128.09 48.5103L129.116 48.2172L130.288 47.6309L130.435 47.4844Z" fill="#027DE4"/>
<path d="M128.532 55.5449H129.411L129.851 55.9846V56.5708L128.825 56.4243L127.945 55.9846L128.532 55.5449Z" fill="#F4FEFD"/>
<path d="M211.479 56.7168L211.772 57.303L211.918 58.0358L211.772 59.2082H211.039L211.186 58.0358L211.479 56.7168Z" fill="#91A126"/>
<path d="M219.102 54.959H220.421L221.153 55.5452L221.3 56.5711L220.714 55.8383L220.274 55.5452H219.102V54.959Z" fill="#929810"/>
<path d="M233.465 54.8105L233.612 55.1037L235.37 54.9571L235.224 55.5433L233.758 55.8364H233.318L233.172 55.3968L233.465 54.8105Z" fill="#A0B125"/>
<path d="M122.229 55.1055H123.401L123.694 55.3986V55.6917L122.961 55.9848L122.668 56.2779L122.082 55.9848V55.252L122.229 55.1055Z" fill="#A1AF1F"/>
<path d="M135.126 56.4238H135.273L135.419 57.3032L133.367 57.5963L132.781 57.3032V57.0101L135.126 56.8635V56.4238Z" fill="#9CB130"/>
<path d="M244.018 46.457H244.164L244.311 47.776L245.337 47.9226L244.897 48.2157L244.751 48.8019H243.871L243.578 48.6554L243.725 48.0691H244.018V46.457Z" fill="#0593F2"/>
<path d="M182.608 42.5L183.194 42.6466V43.5259H182.168L181.582 43.2328L181.875 42.6466L182.608 42.5Z" fill="#0485D3"/>
<path d="M123.105 44.1133H123.399L123.692 45.5788V48.9496L123.252 49.0962V45.872L123.105 44.1133Z" fill="#0280E8"/>
<path d="M185.982 54.959L186.422 55.1055L186.276 55.5452L187.301 55.1055L188.034 55.2521L187.595 55.6918L186.862 55.9849H186.422L186.129 56.4245L185.836 55.1055L185.982 54.959Z" fill="#9BAB24"/>
<path d="M131.607 56.8633L132.047 57.4495V57.8892H132.34L132.487 58.9151L132.633 59.2082L131.901 58.9151L131.461 57.7426L131.607 56.8633Z" fill="#939A14"/>
<path d="M148.315 55.5449H149.194L149.487 55.838V56.7174L148.022 56.1311L147.875 55.6915L148.315 55.5449Z" fill="#F4FEFD"/>
<path d="M259.551 43.9668L260.43 44.2599L260.577 45.2858V46.8979L260.284 47.191L260.137 45.872L259.844 44.4065L259.551 43.9668Z" fill="#027CE6"/>
<path d="M130.873 43.0859L131.459 43.6722L131.753 44.8446L131.02 44.6981V44.9912H130.727L130.434 43.9653L131.02 43.8187L130.873 43.0859Z" fill="#027CE7"/>
<path d="M121.641 57.4492L121.787 57.7423H122.374L122.08 59.2079L121.494 59.3544L121.348 58.9148L121.641 57.4492Z" fill="#9EAE23"/>
<path d="M118.565 55.5449L119.444 55.6915L119.884 56.1311V56.7174L119.004 56.4243L118.125 55.838L118.565 55.5449Z" fill="#F4FEFD"/>
<path d="M127.944 48.3633L128.237 48.5098L128.383 48.6564L129.409 48.8029V49.0961L128.97 49.2426H127.797L127.211 48.9495L127.504 48.5098L127.944 48.3633Z" fill="#0588D7"/>
<path d="M250.904 43.8203H251.491L251.197 46.1652L250.758 46.7514L250.904 43.8203Z" fill="#007FD2"/>
<path d="M222.18 57.4492L222.619 57.5958L222.912 58.4751L223.206 58.6217V59.0613L222.473 59.2079L222.18 58.9148V57.4492Z" fill="#949A0F"/>
<path d="M242.992 40.3027H244.165L244.018 40.7424L243.432 41.3286L243.285 42.6476H243.139L242.992 41.6217V40.3027Z" fill="#0182D4"/>
<path d="M182.759 58.623L183.785 58.9162L183.638 59.2093H182.759L182.466 59.3558H181.147L181 59.0627L181.586 58.7696L182.759 58.623Z" fill="#A0B125"/>
<path d="M223.205 58.7695H224.378L225.257 59.0626V59.2092L223.352 59.5023L222.766 59.2092L223.205 59.0626V58.7695Z" fill="#9EB02A"/>
<path d="M204.008 58.623L205.767 58.9162L205.181 59.3558H203.862L203.422 58.9162L204.008 58.623Z" fill="#A1B122"/>
<path d="M152.42 55.1055L154.032 55.3986V55.5451L152.713 55.9848L152.274 56.2779L151.98 55.8382V55.3986L152.42 55.1055Z" fill="#A0B022"/>
<path d="M260.135 47.9238H260.282L260.428 49.0963L260.721 49.2428H259.549L259.109 48.8032L260.135 47.9238Z" fill="#F4FFFE"/>
<path d="M154.323 47.6289L154.47 48.2151L153.591 48.8014L152.711 48.6548L152.125 48.3617L153.591 48.0686L154.323 47.6289Z" fill="#027DE6"/>
<path d="M143.627 47.4844H144.067L144.213 49.0965H143.334L143.188 48.6568H143.481L143.627 47.4844Z" fill="#0585D0"/>
<path d="M224.82 46.1641H225.113L225.553 47.0434L226.139 47.6296L225.993 48.3624L225.7 48.6555L224.82 46.4572V46.1641Z" fill="#027BE5"/>
<path d="M0.439668 14.2168L3.51734 14.6565V14.803H0L0.439668 14.2168Z" fill="#0694F3"/>
<path d="M233.024 55.3984L233.463 55.8381L233.317 56.864L233.17 57.5968H232.877L233.024 56.5709H232.73V55.545L233.024 55.3984Z" fill="#919A16"/>
<path d="M127.065 47.6289L127.944 48.2151V48.5082L127.358 48.8014L126.772 48.6548L126.332 48.0686L127.065 47.922V47.6289Z" fill="#027BE6"/>
<path d="M44.2617 1.9043L44.8479 2.05085L45.8738 3.2233L46.7532 4.98197L46.6066 5.42164L45.5807 3.51641L44.5548 2.19741L44.2617 1.9043Z" fill="#8DA83C"/>
<path d="M207.67 56.4238H207.964L207.817 57.1566L206.938 58.1825L206.645 57.8894L206.791 57.3032L207.67 56.4238Z" fill="#A1B124"/>
<path d="M142.307 53.7852H142.747L142.893 54.0783V54.9576L143.186 55.1042H141.867L142.16 54.9576V54.0783L142.307 53.7852Z" fill="#96A92E"/>
<path d="M197.999 48.0703H198.878V48.6565L198.292 48.8031L196.68 48.51V48.3634L197.999 48.0703Z" fill="#0381E5"/>
<path d="M161.213 57.7422L161.653 57.8887V59.0612L161.506 59.2077H160.773L161.067 58.1819L161.213 57.7422Z" fill="#959C13"/>
<path d="M219.543 55.3984L220.569 55.545L221.155 56.2778L221.448 56.1312V56.864L221.009 57.3037H220.569V57.0106H220.862L220.422 55.8381L219.543 55.545V55.3984Z" fill="#A0B023"/>
<path d="M191.991 55.1055L192.577 55.252V55.5451L192.87 55.6917L191.991 56.1314H191.551L191.258 55.6917L191.991 55.1055Z" fill="#A0AF21"/>
<path d="M154.618 48.0703L155.351 48.2169V49.0962L154.764 48.9496V48.51L153.445 48.9496L153.885 48.51L154.618 48.0703Z" fill="#0590EA"/>
<path d="M9.96875 36.1992L10.2619 36.4923L11.1412 39.1303L10.8481 39.4234L9.96875 36.932V36.1992Z" fill="#0183D8"/>
<path d="M200.195 44.8457H200.342V49.0958L200.195 48.8027H199.902L200.049 47.9234L200.195 44.8457Z" fill="#0694F3"/>
<path d="M232.586 56.1309L232.733 56.5705H233.026V58.1826L232.879 57.8895H232.293L232.586 56.1309Z" fill="#8AA53A"/>
<path d="M132.489 56.1309L132.782 56.2774L132.342 57.1568L132.196 57.8895L131.902 57.4499L131.609 56.5705L132.489 56.1309Z" fill="#A2AE1B"/>
<path d="M177.041 42.5H177.92V42.9397H177.041V45.5777H176.895V42.6466L177.041 42.5Z" fill="#0587D5"/>
<path d="M181.438 57.3027H181.731V58.6217L180.998 58.4752L180.852 58.0355L181.438 57.3027Z" fill="#FBFDFD"/>
<path d="M121.35 57.0098H121.789L121.643 58.1822L121.057 58.0357L120.91 57.8891V57.1563L121.35 57.0098Z" fill="#F4FEFD"/>
<path d="M154.912 43.0859L155.499 43.6722L155.645 44.1118L155.059 44.4049L154.912 44.6981H154.619L154.473 43.9653L155.059 43.8187L154.912 43.0859Z" fill="#017BE7"/>
<path d="M117.688 58.623L118.714 58.7696L118.86 59.3558L117.834 59.5024L117.395 59.2093L117.688 58.623Z" fill="#A0B022"/>
<path d="M205.912 53.9316L206.645 54.2248L206.792 54.9575L206.059 55.6903L205.473 55.3972V55.2506L206.352 54.9575V54.5179L205.619 54.2248L205.912 53.9316Z" fill="#F4FEFD"/>
<path d="M130.436 48.5098L130.876 48.6563V49.096H131.755V49.2425H130.143L129.41 49.096L129.85 48.8029L130.436 48.5098Z" fill="#F4FEFD"/>
<path d="M192.282 58.7695H193.014L193.161 59.3558L192.135 59.5023L191.695 59.2092V58.9161L192.282 58.7695Z" fill="#A1AF1E"/>
<path d="M237.569 58.1816L238.008 58.3282V59.061L237.862 59.2075H237.129L237.275 58.3282L237.569 58.1816Z" fill="#9AA821"/>
<path d="M188.325 43.6738H188.764L188.618 44.2601L188.031 45.1394L187.738 44.5532L188.325 43.6738Z" fill="#0179E5"/>
<path d="M142.014 58.3281L142.16 58.6212L142.747 58.7678L142.893 59.354L142.453 59.5006L141.867 59.2075L142.014 58.3281Z" fill="#A1B021"/>
<path d="M134.684 42.5H134.83L134.977 43.2328L135.27 43.5259L134.83 44.4052L134.537 44.2587L134.391 43.3793L134.684 42.5Z" fill="#0694F3"/>
<path d="M241.818 58.1816L242.405 58.4748L242.258 59.2075L241.672 59.3541V58.3282L241.818 58.1816Z" fill="#909E21"/>
<path d="M239.621 58.1816L240.207 58.4748L240.061 59.2075H239.328L239.475 58.3282L239.621 58.1816Z" fill="#8CA73C"/>
<path d="M213.535 56.7168H215.587L215.44 57.303L214.121 57.0099L213.535 56.7168Z" fill="#F4FFFE"/>
<path d="M182.17 54.959L182.757 55.1055L183.196 55.3987L182.17 55.6918H181.438L181.731 55.1055L182.17 54.959Z" fill="#9BA921"/>
<path d="M157.549 44.8457H157.695L157.842 46.4578L158.135 47.3372L157.842 47.4837L157.402 46.1647V45.1388L157.549 44.8457Z" fill="#058ADC"/>
<path d="M199.026 48.3633H199.319L199.465 49.0961H200.345V49.2426H199.319L198.293 48.9495L199.026 48.3633Z" fill="#F4FEFD"/>
<path d="M21.3984 17.5859H22.5709L21.8381 18.4653L21.3984 18.3187V17.5859Z" fill="#0587D6"/>
<path d="M222.912 57.4492H223.205L223.498 58.7682L222.766 58.4751L222.912 57.4492Z" fill="#FCFDFD"/>
<path d="M220.714 56.4238L220.86 57.0101H220.567V57.3032L220.86 57.4497H220.127L219.395 57.1566V56.8635H220.714V56.4238Z" fill="#9BB53E"/>
<path d="M216.61 42.209H216.756V43.8211L216.61 44.4073H216.316V43.0883L216.61 42.209Z" fill="#0694F3"/>
<path d="M44.7012 41.3281L44.8478 41.6212L45.2875 41.4747L45.7271 42.0609L44.5547 42.2075V41.4747L44.7012 41.3281Z" fill="#007FD3"/>
<path d="M193.602 55.5449L194.188 55.6915L194.627 56.4243L194.481 57.157L194.188 57.3036L194.041 56.1311L193.602 55.5449Z" fill="#A1B022"/>
<path d="M154.325 58.0371H154.471L154.325 59.063L154.031 59.3561L153.738 59.063L153.885 58.3302L154.325 58.0371Z" fill="#F6FEFD"/>
</svg>
