<svg width="300" height="73" viewBox="0 0 300 73" fill="none" xmlns="http://www.w3.org/2000/svg">
<path d="M278.35 50.1035L280.205 50.3097L281.236 50.1035H286.597L289.484 50.5159L290.309 51.1344L291.752 51.753L293.401 53.1963L295.051 55.2582L296.082 56.9077L296.494 60.0005V61.65L295.669 64.3304L294.432 66.1861L292.577 68.2479L290.721 69.485L289.69 70.1036H288.041L287.834 70.7222H275.257V70.3098H274.638V70.7222H269.896L270.102 70.1036H269.69L269.484 70.7222L247.009 70.9283L185.978 71.1345L146.803 71.5469H90.3077L90.1016 62.8871V51.5468L97.7305 51.3406H111.545L138.143 51.1344L153.195 50.9283L180.411 50.7221L256.494 50.3097L278.35 50.1035Z" fill="#A29EA4"/>
<path d="M52.7837 0H70.7219L70.9281 1.03093V19.5877H62.8869V8.45364L42.6806 8.65983L15.0516 8.86602H8.24746L8.45364 36.0826V41.6497L34.8455 41.4435H44.7425L44.9486 45.7734V49.6909L39.5878 49.8971L9.89695 50.1033H0.206186L0 31.9589V0.618559L28.2475 0.206186L52.7837 0Z" fill="#7B797E"/>
<path d="M44.7402 23.918H71.1321L71.3383 24.1242V71.7532L61.6475 71.9594L38.1423 72.1656H0.410156V54.2274H8.65761V63.9181L26.1835 63.712H63.0908V32.3716L41.8536 32.5778H26.3896V24.1242L44.7402 23.918Z" fill="#414144"/>
<path d="M200.002 14.8457L209.074 15.0519L210.93 16.289L211.961 17.7323V42.6809L210.312 44.5366L208.868 45.1551L203.507 45.3613L180.414 45.5675L179.177 45.1551L177.528 43.918L177.115 43.0932H176.703V17.3199L178.353 16.0828L180.208 15.2581L181.858 15.0519L200.002 14.8457Z" fill="#7A787D"/>
<path d="M100.823 15.6699H125.153V22.2679H97.3181V27.6287H122.679L124.329 28.6597L125.153 29.8968L125.359 30.5153V43.2989L124.122 44.9484L122.885 45.567L117.731 45.7731H90.1016V39.5875H117.731V34.0205H93.4005L91.1325 32.7834L90.1016 31.7525V18.1442L91.9572 16.4947L94.0191 15.8761L100.823 15.6699Z" fill="#414144"/>
<path d="M157.112 15.2578H168.865L168.659 15.8764L165.36 17.9382L159.586 22.062L152.782 26.5981L151.751 27.629V28.2476L153.401 29.6909L156.081 32.1651L157.731 33.8146L159.38 35.2579L163.504 39.3816L165.153 40.8249L167.628 43.2992L169.277 44.7425L169.689 45.361H158.968L157.937 44.3301L154.844 41.4435L152.576 39.1754L150.927 37.7321L145.772 32.5775L145.153 32.1651L144.329 32.3713L141.236 34.4332L140.617 34.6393L140.823 45.5672H133.194L132.988 36.495V15.6702L140.411 15.464V25.9795L143.504 23.9176L146.803 21.8558L150.102 19.5877L153.607 17.3197L154.638 16.4949L157.112 15.2578Z" fill="#404043"/>
<path d="M247.833 14.6406H256.905V21.0324H243.091V44.95H234.431V21.0324L231.338 21.2386H220.41V15.053L220.616 14.8468L247.833 14.6406Z" fill="#424145"/>
<path d="M293.813 14.4336H299.999V20.6192H286.184V44.743H277.525L277.318 41.0316V20.8254L263.504 21.0316V14.6398L293.813 14.4336Z" fill="#424245"/>
<path d="M200.413 21.6504H204.124L204.33 22.4751V38.7639H184.124L183.918 29.4855V22.0628L184.124 21.8566L200.413 21.6504Z" fill="#FDFBFD"/>
<path d="M55.8739 0H70.7194L70.9255 1.03093V19.5877H62.8843V8.45364H52.3688L51.7502 8.24746L51.544 6.80415L51.3378 7.01034L51.1316 7.83508H49.8945V6.80415L50.5131 6.39178H52.1626L52.3688 5.36085L52.7811 5.97941V6.80415H53.1935L53.3997 6.39178L53.6059 6.80415V7.6289L54.2244 7.83508V5.77322H54.6368V6.18559L55.6678 6.39178L55.4616 4.94847H55.0492L55.2554 3.0928L54.843 3.50517L54.6368 4.5361L53.8121 4.12373L53.6059 2.68042L53.8121 1.23712L53.3997 1.64949L52.9873 1.44331V1.85568L52.3688 1.64949V0.412373H53.1935L53.6059 0.206186L55.8739 0ZM52.1626 7.42271L52.3688 8.24746L52.575 7.42271H52.1626Z" fill="#79777C"/>
<path d="M177.322 17.1133L177.528 17.7318V21.0308L177.322 21.8556H181.239L182.064 22.2679H181.445L181.239 22.6803L180.827 22.4741L179.796 22.6803H180.208L180.002 23.2989H179.59L179.384 22.2679H178.971V22.6803H178.559V22.2679L177.734 22.6803V23.0927L178.146 23.2989L177.94 23.7112L178.146 24.1236L179.177 24.3298L178.971 24.9484L177.734 25.1546L177.94 25.5669H180.621L180.414 26.5979H179.796V27.0102L181.445 26.804L180.827 26.5979V25.7731H181.445L181.652 25.1546L182.064 27.0102L182.476 26.804L182.064 25.9793L182.476 25.5669L182.889 25.3607V24.9484H182.27V24.536L183.095 23.7112L182.683 23.0927L182.889 22.4741H182.27L182.476 22.0618L183.92 21.8556L184.126 29.4845V38.969H202.683L204.332 39.3814L204.126 40.2062L203.92 40L203.714 40.8247L201.652 40L201.445 40.4123H201.033L200.621 39.7938L200.415 40.6185L199.796 40.8247L199.384 40.2062L198.353 41.2371L198.147 40.6185H197.734L197.528 41.2371L197.116 40.2062H196.703L196.497 39.7938L195.672 40.2062H195.054L194.641 40.8247L192.992 40.6185L192.167 39.7938L191.342 40.4123L191.136 40.2062L190.518 41.4433H190.311L190.105 39.3814H189.693V39.7938H189.28L189.074 40.2062L188.456 39.7938L188.043 42.268L187.837 44.9485H190.311V43.9175H190.724V44.9485L193.198 44.7423L193.61 43.9175V44.9485L194.229 44.7423L197.116 44.9485V43.0928L197.528 42.4742L197.734 44.9485L199.796 44.5361L200.208 44.7423V45.1546L187.631 45.3608L180.414 45.567L179.177 45.1546L177.528 43.9175L177.115 43.0928H176.703V17.7318L177.322 17.1133Z" fill="#7B787D"/>
<path d="M34.8452 41.4434H44.7422L44.9483 45.7733V49.6908H14.2266L14.4327 46.8042H14.8451V49.4846L15.4637 49.0723L15.8761 48.8661L16.0822 49.2784L16.2884 48.2475H16.7008V49.4846L17.3194 49.0723L17.5255 48.4537H17.9379L18.1441 49.2784L18.5565 49.4846L18.7627 48.8661V49.4846H19.5874V41.8557H20.206V49.4846L21.4431 49.2784L21.6493 48.6599L21.8555 49.2784H22.474V48.4537L22.8864 48.6599L23.7111 49.4846L23.505 48.2475L23.9173 48.0413V48.4537H24.3297V49.4846H24.7421L24.9483 48.6599L25.1544 49.4846L25.5668 49.0723L25.773 48.4537H26.3916L26.8039 47.2166L27.0101 46.8042L27.4225 47.4228V44.7423L27.2163 42.2681H26.8039L27.2163 45.5671V46.3918L26.5977 46.598L26.3916 42.4743L25.9792 42.6805L25.3606 44.1238H24.9483L24.7421 43.0929V41.8557L25.773 41.6495L34.8452 41.4434Z" fill="#78767B"/>
<path d="M204.327 30.7227L204.74 31.5474L204.534 32.5783L204.946 32.7845V33.8155H204.534L204.74 35.4649L204.534 35.8773L205.564 36.0835V35.6711H205.152L205.358 34.8464H205.771L205.977 34.434L206.802 34.0216V33.6093H207.626V33.1969H208.245V33.6093L209.276 33.4031L210.719 33.6093L211.132 34.0216L210.925 35.0526L211.132 35.8773L210.925 36.9082V37.5268L211.132 39.7949V40.4134V41.6505L210.925 42.0629H211.338L211.544 41.4444V42.6815H211.132V43.0938L211.544 43.3L209.894 44.7433L208.863 45.1557L203.503 45.3619H187.626V45.1557H200.204V44.7433L197.729 44.9495L197.317 43.0938L197.111 44.9495H193.606H193.193H190.719V43.9186H190.307V44.9495H187.832V42.2691L188.451 39.7949H189.276H189.688V39.3825H190.101L190.513 41.032L191.131 40.001L192.369 39.5887L192.987 40.2072V40.6196H194.224L194.637 40.8258L195.049 39.7949L196.08 40.001L196.492 39.5887L196.698 40.2072L197.317 40.001L197.729 40.6196H198.142L198.348 41.032L198.967 40.6196L199.379 40.001L199.997 40.6196L200.41 40.2072L200.616 39.5887L201.028 40.4134H201.441L201.853 39.5887L202.266 40.001L203.709 40.8258V39.7949L204.121 40.001L204.327 39.3825H202.884L202.678 39.1763L184.121 38.9701V38.7639H204.327V30.7227Z" fill="#7C7A7F"/>
<path d="M181.858 15.0527H195.672V16.7022L195.054 17.9393L194.848 17.527H194.023L193.61 19.1765H193.198L192.992 20.2074L192.579 20.0012L192.786 18.9703H192.167L192.373 19.5888L192.167 21.2383L192.786 21.4445L190.518 21.8569L183.713 22.0631L182.27 22.4754H182.889V23.3002L183.301 23.7126L182.683 24.5373H182.27V24.9497H182.889L182.476 25.9806L182.27 26.5992L182.683 26.8054L182.064 27.2177L181.652 25.7744H180.827V26.5992L181.652 26.8054L180.414 27.2177L179.796 27.0115V26.5992H180.414V25.7744H177.734V25.1559L178.971 24.9497L178.765 24.3311H177.94L177.734 23.5064V23.094L177.528 22.4754L178.559 22.2693V22.6816H178.971V22.2693H179.384L179.59 23.3002L180.208 22.6816H179.796L180.002 22.2693H181.033L181.239 22.0631L177.322 21.8569V16.7022L180.208 15.2589L181.858 15.0527ZM176.703 17.3208L177.115 17.527L176.703 17.7332V17.3208Z" fill="#7A787D"/>
<path d="M195.874 55.0527H209.07L209.276 55.4651V61.8569L206.596 62.0631L207.833 63.7126L209.276 65.1559L210.307 65.9806L210.101 66.5992H207.214L205.771 65.7744L203.709 63.9188L202.472 62.4754L198.761 62.2693V66.393L198.555 66.5992H196.08L195.874 66.1868L195.668 55.2589L195.874 55.0527Z" fill="#FDFBFD"/>
<path d="M218.559 55.0527H221.445L222.682 56.496L225.981 61.8569L226.6 62.2693L229.693 57.1146L231.548 55.0527H234.023L234.229 55.4651V66.393L234.023 66.5992H231.755L231.342 66.393V60.826H230.93L230.517 61.8569L228.043 65.5682L227.218 66.393L225.569 66.5992L224.332 64.9497L222.064 61.2383L221.651 61.0321L221.858 66.1868L221.651 66.5992H218.765L218.559 66.393V55.0527Z" fill="#FDFBFD"/>
<path d="M8.24609 36.084H8.45228V41.651H25.7719V41.8572H24.741L24.9472 44.1253L25.3596 43.9191L25.9781 42.4758H26.3905L26.8029 46.3933H27.2152L26.8029 43.0943V42.2696H27.2152L27.6276 44.7438V48.4552H27.4214L27.0091 47.2181L26.3905 48.6614H25.7719L25.5658 49.4861H25.1534L24.9472 49.0737L24.741 49.4861H24.3286V48.4552H23.7101V49.4861L23.0915 49.2799V48.8675L22.6791 48.6614L22.473 48.4552V49.2799H21.8544H21.6482L21.2358 49.4861H20.2049L19.9987 48.4552V42.2696L20.2049 41.8572H19.5863L19.7925 42.2696V48.4552L19.5863 49.4861H18.143L17.9369 48.4552H17.5245L17.3183 49.2799L16.6997 49.4861L16.4936 48.6614L16.6997 48.249H16.2874V49.4861L15.6688 49.2799L14.8441 49.4861V46.8057H14.4317V49.4861L39.5864 49.6923V49.8985H11.3389L12.3698 49.0737V49.6923L13.8131 49.4861V48.6614H13.1946L12.9884 49.0737L12.7822 48.6614V44.95H12.3698V44.1253H11.9574L11.7513 44.95L11.3389 44.1253V42.682L12.1636 42.0634L8.24609 41.8572V36.084Z" fill="#89868C"/>
<path d="M127.835 55.6699H141.237V62.4741L140.206 62.6803H130.722L130.928 67.2164L128.041 67.4225L127.835 67.2164L127.629 61.6493V55.8761L127.835 55.6699Z" fill="#FDFBFD"/>
<path d="M52.7831 0L53.6079 0.412373L52.7831 0.824746V0.412373H52.3708L52.5769 1.64949L52.9893 1.85568V1.44331L53.6079 1.23712L54.0203 0.824746V2.26805L53.8141 3.29898V4.12373L54.4326 4.32992L55.0512 2.88661L55.4636 3.0928L55.0512 4.94847H55.4636L55.8759 6.39178L55.4636 6.59797V6.18559H54.6388V5.77322H54.2264V7.83508L53.4017 7.6289V6.59797L52.7831 6.80415L52.3708 5.77322L52.1646 6.39178L50.1027 6.80415L49.8965 7.83508L50.5151 7.6289L51.1336 7.83508L50.9275 7.01034H51.3398V6.59797L51.7522 6.80415V8.24746L52.3708 8.45364H43.2986L43.7109 7.6289V7.01034L43.9171 6.18559L43.7109 5.56703H44.1233V4.94847H43.7109L43.2986 5.56703L42.8862 4.5361L43.7109 3.29898H44.1233L43.5047 1.44331L43.2986 3.0928L42.68 3.29898V2.68042H42.2676L42.4738 3.71136L42.68 4.94847L42.8862 5.77322L42.2676 6.39178L41.2367 6.18559L41.0305 5.77322H40.6181V6.18559H40.2058L39.5872 4.94847V4.5361H38.7625L38.5563 3.91754L37.3191 3.71136L37.113 4.74229L36.082 4.32992L36.2882 3.71136V2.88661L37.113 3.50517L37.3191 2.68042L37.7315 2.88661V0.412373L52.7831 0ZM52.1646 7.42271H52.5769L52.3708 8.24746L52.1646 7.42271Z" fill="#7B797E"/>
<path d="M177.322 17.1133L177.528 17.7318V21.0308L177.322 21.8556H181.239L182.064 22.2679H181.445L181.239 22.6803L180.827 22.4741L179.796 22.6803H180.208L180.002 23.2989H179.59L179.384 22.2679H178.971V22.6803H178.559V22.2679L177.734 22.6803V23.0927L178.146 23.2989L177.94 23.7112L178.146 24.1236L179.177 24.3298L178.971 24.9484L177.734 25.1546L177.94 25.5669H180.621L180.414 26.5979H179.796V27.0102L181.445 26.804L180.827 26.5979V25.7731H181.445L181.652 25.1546L182.064 27.0102L182.476 26.804L182.064 25.9793L182.476 25.5669L182.889 25.3607V24.9484H182.27V24.536L183.095 23.7112L182.683 23.0927L182.889 22.4741H182.27L182.476 22.0618L183.92 21.8556V34.6391L182.889 34.8453L181.858 34.4329L181.239 34.8453L181.858 35.2577V35.6701L181.033 35.4639L181.239 35.8762V37.1134H180.827V35.4639L180.414 35.6701V36.701L179.59 36.9072V36.4948L178.146 36.9072V37.7319V38.1443L178.559 38.3505V36.9072L179.59 37.3196H180.414L180.208 39.1752H179.59V38.1443L178.971 38.5567L179.177 39.5876L180.208 39.7938L180.414 40.6185L179.59 41.6495L180.208 41.4433V42.0618L179.796 42.268L179.59 42.8866L179.177 42.4742V40.8247L178.971 39.7938L178.353 40L178.146 40.4123H177.734L177.528 41.2371V43.0928L177.115 43.299L176.703 43.0928V17.7318L177.322 17.1133Z" fill="#6E6C70"/>
<path d="M14.6367 0.619141H17.9357V1.03151L18.1419 0.619141H21.0285H21.2347L22.2656 0.825327L23.2965 0.619141H23.9151V1.03151H24.3275V0.619141H24.7399V1.03151L25.5646 0.619141H26.1832L26.5955 1.2377V2.68101L25.5646 4.53668L24.946 4.94906V5.97999L25.3584 4.94906H25.5646L25.7708 6.39236L25.977 6.59855V5.36143L26.1832 4.94906H27.0079V4.53668H26.5955L27.0079 3.71194L27.4203 3.91812V3.09338L27.8327 2.68101V1.44389L28.245 0.825327L28.4512 1.65007H28.8636L29.0698 1.03151L30.3069 1.44389V2.26863L30.9254 2.06245V3.29956L31.544 3.09338L31.3378 2.26863V1.65007L31.7502 1.85626L31.9564 1.44389L32.5749 1.65007L32.7811 3.71194L32.9873 3.91812L33.3997 4.12431L33.1935 4.94906H33.6059V3.71194L34.6368 3.29956L35.4615 2.68101L35.8739 3.50575L35.0492 4.12431V4.74287L35.6677 4.12431L36.0801 5.56762L35.6677 6.80473L35.4615 7.01092H34.4306L34.6368 8.45423H30.7193L30.3069 7.21711L30.7193 6.59855H31.544V6.18617L30.3069 6.39236V5.56762H29.8945L30.1007 5.97999V7.83567L29.8945 7.42329L28.8636 7.21711L28.6574 6.18617L28.4512 6.80473L27.8327 7.01092L28.0388 6.39236L27.0079 6.59855L26.8017 5.7738L26.3893 6.80473L26.5955 7.83567L26.3893 8.45423H25.977L25.7708 8.24804L24.946 8.66041H23.5027L23.2965 8.45423V7.42329L22.8842 7.83567V8.24804H22.0594V5.56762L22.2656 5.15524V3.71194L22.8842 3.91812L23.2965 4.74287H23.9151V5.56762H24.3275V2.88719L23.5027 2.47482L23.7089 1.65007H23.0904L22.8842 2.26863L22.2656 2.47482L21.8532 1.85626V3.50575L21.0285 3.71194V4.3305V4.74287L20.6161 4.94906L20.4099 6.39236L19.5852 6.18617V6.80473L18.7604 7.21711V5.56762H18.3481V7.42329L17.9357 7.62948L17.7295 6.18617L17.111 5.56762V4.12431H16.4924L16.08 5.36143L15.8738 4.74287L15.6677 2.06245L15.2553 1.85626L15.4615 3.71194H15.0491L14.6367 1.65007V0.619141Z" fill="#77757A"/>
<path d="M69.8962 0.207031H70.721L70.9271 1.03178V19.5886H62.8859L62.6797 8.04212L63.0921 6.805L64.123 7.01118V7.42356H64.5354L64.123 8.66068H64.5354L64.7416 9.07305L65.3601 8.86686V9.48542L64.3292 9.69161L64.123 10.3102L63.9168 10.104L63.7106 10.7225H64.5354V11.1349L64.9477 10.7225L65.1539 10.104H65.5663V11.1349L66.391 10.7225L66.5972 11.5473L66.8034 11.9597H67.2158L67.0096 10.5164L67.2158 9.89779H66.5972V9.07305L67.0096 8.86686H68.6591V8.45449L67.8343 8.66068V8.2483L68.4529 7.62974H69.69H69.8962L69.69 7.01118V6.39262V3.91839L70.3086 3.50601V2.88745V2.47508H69.8962V0.207031Z" fill="#716F73"/>
<path d="M148.867 55.4648H150.31L151.341 55.8772V59.5886H160.001V56.702L160.207 55.671H162.888V66.1865L162.682 67.0113L160.826 67.2175L160.207 67.0113V62.8876H151.341V67.0113L149.073 67.2175L148.867 64.3309V55.4648Z" fill="#FDFBFD"/>
<path d="M28.2481 0.207031H44.3306V0.413218H37.7327L37.9388 3.29983L37.3203 2.88745L37.1141 3.50601L36.2894 3.09364L36.4955 3.91839L36.7017 4.12457L37.1141 4.33076L37.3203 3.7122H38.5574L38.7636 4.53695H39.5883L40.2069 5.56788V6.18644H40.6193V5.77407L42.0626 5.98025H42.475L42.8873 5.77407L42.2688 4.33076V2.68127H42.6811L42.8873 3.09364H43.2997V1.23796L43.9183 1.85652L44.1244 3.29983H43.7121L43.2997 4.33076V5.15551L43.7121 4.74313L44.1244 4.94932V5.56788H43.7121V5.98025L44.1244 6.18644L43.9183 7.01118V7.83593L43.2997 8.45449L42.6811 8.66068H24.9491V7.62974L25.1553 8.45449L25.5677 8.2483L25.98 7.42356V8.45449H26.3924L26.5986 7.01118L26.1862 6.805L26.5986 5.77407L27.011 5.56788V6.59881L27.6295 6.18644L28.2481 6.39262L28.0419 6.805H28.4543L28.6605 5.98025L28.8666 6.18644V7.21737L29.4852 7.01118V7.42356H29.8976V5.56788H30.3099V6.39262L31.5471 6.18644V6.59881L30.7223 6.805L30.5161 7.42356L30.7223 8.45449H32.9904L33.1966 8.04212V8.45449H34.6399L34.4337 7.01118L35.6708 6.59881V5.56788H36.0832L35.4646 4.33076L35.0522 4.94932L34.8461 4.12457L35.6708 3.29983L35.2584 2.88745L34.6399 3.7122V3.29983L33.6089 3.7122V4.94932H33.1966L32.9904 4.12457L32.3718 3.91839L32.7842 3.7122L32.3718 1.65034L31.9594 1.44415L31.7533 2.06271H31.3409L31.7533 2.88745L31.5471 3.50601L30.9285 3.29983L30.7223 2.2689H30.3099V1.44415L29.0728 1.23796L28.8666 1.65034H28.4543L28.2481 1.44415H27.8357L28.0419 2.88745L27.4233 3.09364V3.91839L26.8048 4.12457L26.5986 4.53695L27.2172 4.33076L27.011 5.15551L26.1862 4.94932L25.98 6.59881L25.5677 6.39262L25.3615 5.15551L25.1553 6.18644L24.7429 5.98025V4.94932L25.7738 3.91839L26.3924 2.68127V1.23796L26.1862 0.619404L24.7429 1.03178V0.619404H24.3305V1.03178H23.9182V0.619404L22.8872 1.03178V0.619404L22.0625 1.03178V0.619404H21.2377V1.03178L20.2068 0.619404L20.0006 1.03178V0.619404L18.9697 0.825591L18.1449 0.619404V1.65034L17.7326 0.825591L14.4336 0.619404V0.413218L28.2481 0.207031Z" fill="#7B797D"/>
<path d="M250.103 54.6406H252.165L253.608 56.4963L255.258 59.3829L256.907 62.0633L257.732 63.7128L258.969 65.9809V66.3933H255.876L253.196 61.8572L251.134 58.352H250.722L248.866 62.2695L247.835 63.7128L250.928 63.919V66.3933L245.98 66.5994L242.887 66.3933L243.299 65.3623L245.567 61.4448L248.454 56.2901L249.485 54.8468L250.103 54.6406Z" fill="#FDFBFD"/>
<path d="M179.794 55.0527L180.825 55.2589L182.062 56.2899L184.949 61.2383L187.629 65.9806V66.8054L184.33 66.5992L183.3 64.5373L181.65 61.8569L180.001 58.7641V58.3517L179.382 58.9703L177.732 62.2693L176.495 64.5373H179.588L179.794 64.7435V66.1868L179.176 66.8054L171.547 67.0115V66.5992L171.959 66.393L174.227 61.6507L176.702 57.527L178.557 55.4651L179.794 55.0527Z" fill="#FDFBFD"/>
<path d="M34.8477 41.4434H44.7446L44.9508 45.7733V49.6908H44.7446L44.5384 48.4537L44.3322 49.0723L43.5075 49.2784V48.8661L43.0951 48.6599L43.3013 49.2784L39.7961 49.4846L37.9405 49.2784L38.1466 48.6599H37.7343V49.4846H36.291L36.0848 48.8661L36.291 48.4537H35.4662V45.9795H36.0848V46.3918H36.4971L36.291 45.3609L35.6724 45.5671L35.8786 43.7114V42.6805L36.7033 42.2681L37.3219 42.6805V42.0619H37.7343L37.9405 42.4743H39.1776V43.0929L40.0023 42.6805L40.4147 41.6495H34.8477V41.4434Z" fill="#7B797E"/>
<path d="M56.9062 0H70.7207L69.896 0.206186L70.1022 2.06186L69.896 2.47424H70.3084L70.5146 3.0928L70.3084 3.91754H69.896V5.97941L69.6898 6.39178L70.5146 6.59797H69.896V7.42271L70.5146 7.83508L70.1022 8.04127L68.4527 7.6289L68.2465 8.24746L68.0403 8.45364H68.6589V8.86602L66.597 9.0722V9.89695H67.2156V11.9588L66.597 12.165L66.1846 10.9279L65.5661 11.3403L65.3599 10.7217L65.5661 10.1031H65.1537L64.9475 11.1341H64.5351V10.7217H63.7104L63.9166 9.89695L64.7413 9.48458H65.3599L65.1537 9.0722L64.329 9.27839L64.1228 8.86602V8.24746L64.5351 7.42271H64.1228V7.01034H64.7413L64.329 6.18559L65.1537 5.97941L66.597 6.18559L66.1846 5.77322H65.5661L65.7723 4.74229V4.12373L67.2156 3.71136L67.4218 2.68042H66.3908L66.8032 2.26805H67.0094V1.03093L66.597 0.618559L67.4218 0.412373L61.6485 0.206186V0.618559L63.0918 0.412373L63.298 1.64949L62.0609 1.03093L62.2671 2.68042L62.0609 4.32992L61.8547 4.74229L61.03 4.32992L59.999 4.12373V2.26805L60.4114 2.06186V2.47424L61.03 2.06186H61.6485L61.4424 1.03093H60.8238V1.85568H60.4114V1.44331H59.7929L59.1743 0.824746L59.7929 2.26805L59.3805 4.32992L58.7619 4.12373L58.3496 3.71136L58.1434 4.12373L57.9372 3.0928L57.731 1.03093L56.9062 0Z" fill="#78767B"/>
<path d="M24.5361 41.6504H25.7732V41.8566H24.7423L24.9485 44.1246L25.3608 43.9184L25.9794 42.4751H26.3918L26.8042 46.3927H27.2165L26.8042 43.0937V42.2689H27.2165L27.6289 44.7432V48.4545H27.4227L27.0103 47.2174L26.3918 48.6607H25.7732L25.567 49.4855H25.1547L24.9485 49.0731L24.7423 49.4855H24.3299V48.4545H23.7114V49.4855L23.0928 49.2793V48.8669L22.6804 48.6607L22.4742 48.4545V49.2793H21.8557H21.6495L21.2371 49.4855H20.2062L20 48.4545V42.2689L20.2062 41.8566L24.5361 41.6504Z" fill="#7B797E"/>
<path d="M14.6367 0.619141H17.9357V1.03151L18.1419 0.619141H21.0285H21.2347L22.2656 0.825327L23.2965 0.619141H23.9151V1.03151H24.3275V0.619141H24.7399V1.03151L25.5646 0.619141H26.1832L26.5955 1.2377V2.68101L25.5646 4.53668L24.946 4.94906L24.7399 5.7738H24.3275V2.88719L23.5027 2.47482L23.7089 1.65007H23.0904L22.8842 2.26863L22.2656 2.47482L21.8532 1.85626V3.50575L21.0285 3.71194V4.3305V4.74287L20.6161 4.94906L20.4099 6.39236L19.5852 6.18617V6.80473L18.7604 7.21711V5.56762H18.3481V7.42329L17.9357 7.62948L17.7295 6.18617L17.111 5.56762V4.12431H16.4924L16.08 5.36143L15.8738 4.74287L15.6677 2.06245L15.2553 1.85626L15.4615 3.71194H15.0491L14.6367 1.65007V0.619141Z" fill="#6E6C70"/>
<path d="M56.9076 0.207031L57.5262 0.413218L57.9386 1.03178L58.1447 3.91839L58.9695 3.7122V4.12457L59.3819 4.33076V3.09364L59.588 2.2689L59.1757 0.825591L59.7942 1.03178V1.44415H60.4128V1.85652H60.8252V1.03178H61.4437L61.6499 2.06271L60.4128 2.47508H60.2066L60.0004 4.12457L60.619 3.91839L61.8561 4.74313L62.0623 2.2689V1.03178L62.6808 1.23796L63.2994 1.65034L62.887 0.825591L63.0932 0.413218L61.6499 0.619404V0.207031H67.8355L67.0108 0.619404L67.2169 1.03178V2.47508H66.5984L67.4231 2.68127V3.7122L65.7736 4.33076L65.9798 4.94932H65.5675V5.77407L66.3922 5.56788L66.5984 6.18644H66.186L65.9798 6.59881V6.18644H64.7427V7.01118H64.1241L63.918 5.77407L63.2994 6.39262L61.4437 6.18644L61.2375 5.36169H60.8252L60.619 6.59881H60.2066L60.4128 5.36169L59.588 5.15551L59.7942 5.98025L59.3819 6.18644V5.56788H58.9695L59.1757 6.18644L58.5571 6.39262L57.32 5.56788L58.3509 4.53695L58.1447 4.74313L57.32 5.15551V2.06271H56.2891L56.4952 1.65034L56.9076 1.85652L56.7014 0.619404L56.9076 0.207031Z" fill="#77757A"/>
<path d="M177.322 17.1133L177.528 17.7318V21.0308L177.322 21.8556H181.239L182.064 22.2679H181.445L181.239 22.6803L180.827 22.4741L179.796 22.6803H180.208L180.002 23.2989H179.59L179.384 22.2679H178.971V22.6803H178.559V22.2679L177.734 22.6803V23.0927L178.146 23.2989L177.94 23.7112L178.146 24.1236L179.177 24.3298L178.971 24.9484L177.734 25.1546L177.94 25.5669H180.621L180.414 26.5979H179.796V27.0102L181.445 26.804L180.827 26.5979V25.7731H181.445L181.652 25.1546L182.064 27.0102L182.476 26.804L182.064 25.9793L182.476 25.5669L182.889 25.3607V24.9484H182.27V24.536L183.095 23.7112L182.683 23.0927L182.889 22.4741H182.27L182.476 22.0618L183.92 21.8556V27.6288H180.621L179.177 27.4226H177.115L177.322 29.6907V30.9278L178.146 31.5463L177.528 32.1649L177.322 33.402L177.734 33.6082L177.322 34.0206L177.528 35.8762L177.322 37.1134L177.528 42.6804L177.322 43.299L176.703 43.0928V17.7318L177.322 17.1133Z" fill="#6E6C70"/>
<path d="M183.918 38.9707H202.681L204.33 39.3831L204.124 40.2078L203.918 40.0016L203.712 40.8264L201.65 40.0016L201.444 40.414H201.031L200.619 39.7954L200.413 40.6202L199.794 40.8264L199.382 40.2078L198.351 41.2388L198.145 40.6202H197.732L197.526 41.2388L197.114 40.2078H196.702L196.495 39.7954L195.671 40.2078H195.052L194.64 40.8264L192.99 40.6202L192.165 39.7954L191.341 40.414L191.134 40.2078L190.516 41.4449H190.31L190.104 39.3831H189.691V39.7954H189.279L189.073 40.2078L188.454 39.7954L188.042 42.2697L187.836 44.9501H190.31V43.9192H190.722V44.9501L193.196 44.7439L193.609 43.9192V44.9501L194.227 44.7439L197.114 44.9501V43.0944L197.526 42.4759L197.732 44.9501L199.794 44.5377L200.207 44.7439V45.1563H186.805L187.217 42.4759L187.423 39.1769H187.011L186.598 40.414L185.98 41.0326V40.6202L185.567 40.414L185.774 40.0016H185.155L184.949 40.414L184.743 40.2078L184.124 40.8264L183.918 38.9707Z" fill="#6C6A6E"/>
<path d="M19.5874 41.8574H20.206V49.4863L21.4431 49.2801L21.6493 48.6616L21.8555 49.2801H22.474V48.4554L22.8864 48.6616L23.7111 49.4863L23.505 48.2492L23.9173 48.043V48.4554H24.3297V49.4863H24.7421L24.9483 48.6616L25.1544 49.4863L25.5668 49.0739L25.773 48.4554H26.3916L26.8039 47.2183L27.0101 46.8059L27.4225 47.4245V44.744L27.2163 42.2698H26.8039L27.2163 45.5688V46.3935L26.5977 46.5997L26.1854 41.8574H28.8658L29.072 44.3317L28.6596 44.5378L28.2472 43.7131V42.8884H27.8349L28.0411 44.5378L28.2472 45.3626V45.9812L28.4534 46.3935L28.2472 48.043H28.8658L29.072 47.4245L29.4844 47.6306L29.6905 46.3935L30.1029 46.5997L29.8967 49.4863L30.3091 49.2801L30.7215 48.4554L30.9277 49.4863L31.34 49.0739L31.5462 46.3935L31.9586 46.8059V49.4863H32.5772L32.9895 48.6616L33.1957 49.2801L34.639 49.4863L34.8452 48.8678V49.4863H35.8761V48.6616L36.2885 48.8678V49.2801L37.7318 49.4863V48.6616H38.1442V49.0739L39.7937 49.2801L43.0927 49.0739V48.6616L43.9174 48.8678H43.505V49.2801L44.3298 49.0739L44.536 45.9812H44.7422V49.6925H14.2266L14.4327 46.8059H14.8451V49.4863L15.4637 49.0739L15.8761 48.8678L16.0822 49.2801L16.2884 48.2492H16.7008V49.4863L17.3194 49.0739L17.5255 48.4554H17.9379L18.1441 49.2801L18.5565 49.4863L18.7627 48.8678V49.4863H19.5874V41.8574Z" fill="#69676B"/>
<path d="M44.3295 0.207031L45.1542 0.413218V0.825591L44.7419 1.03178V1.65034H45.3604V0.413218H45.7728L45.979 1.23796L45.3604 2.88745L44.3295 2.68127L44.5357 4.33076H44.1233L44.3295 4.74313V5.98025H43.7109V5.56788H44.1233V4.94932H43.7109L43.2986 5.56788L42.8862 4.53695L43.7109 3.29983H44.1233L43.5047 1.44415L43.2986 3.09364L42.68 3.29983V2.68127H42.2676L42.4738 3.7122L42.68 4.94932L42.8862 5.77407L42.2676 6.39262L41.2367 6.18644L41.0305 5.77407H40.6181V6.18644H40.2058L39.5872 4.94932V4.53695H38.7625L38.5563 3.91839L37.3191 3.7122L37.113 4.74313L36.082 4.33076L36.2882 3.7122V2.88745L37.113 3.50601L37.3191 2.68127L37.7315 2.88745V0.413218L44.3295 0.207031Z" fill="#767479"/>
<path d="M69.8962 0.207031H70.721L70.9271 1.03178V19.5886H62.8859L62.6797 8.04212H63.0921L63.5044 9.69161L63.2982 10.7225V11.1349L64.123 11.5473L64.3292 12.7844L63.7106 12.5782L63.5044 12.9906L63.2982 12.7844L63.0921 13.1968L63.5044 13.403V14.2277H64.7416L64.5354 15.0525H63.7106L63.5044 14.6401L63.2982 15.4648L63.5044 16.9081V18.1453L63.7106 18.5576H67.6282L67.8343 18.7638L68.4529 18.5576V19.1762H69.4838V18.7638L69.0715 18.5576H69.8962V16.9081L69.0715 16.7019L68.8653 16.0834H69.69L69.8962 16.2896L69.69 14.4339V14.0215L69.8962 13.1968H70.5148L70.1024 12.7844H69.69V12.372H70.1024V11.7535H69.69V10.5164V10.104L69.4838 9.48542L69.8962 9.27923L69.69 8.66068V7.83593H70.3086L69.69 7.42356L69.8962 6.59881L69.69 5.56788V3.91839L70.3086 3.50601V2.88745V2.47508H69.8962V0.207031Z" fill="#444447"/>
<path d="M13.4023 41.8574H19.5879L19.7941 42.2698V48.4554L19.5879 49.4863H18.1446L17.9384 48.4554H17.5261L17.3199 49.2801L16.7013 49.4863L16.4951 48.6616L16.7013 48.2492H16.289V45.775L16.0828 46.1873H15.6704L15.4642 42.8884L15.6704 42.2698L15.258 42.476L15.0518 44.5378L15.4642 44.744H15.0518V46.3935L14.2271 46.5997L14.0209 42.476L14.2271 42.0636L13.4023 41.8574Z" fill="#7E7C81"/>
<path d="M180.208 15.2578H184.538V17.3197L183.92 17.1135V16.2887L183.095 17.1135L182.476 16.4949L182.683 17.1135H182.064V17.9382H182.683L183.301 17.3197L183.92 17.732L184.538 17.9382L185.157 16.4949H185.569V20.4125L186.188 20.6187V21.2372H185.363L184.538 20.8248L184.126 20.2063L183.92 20.4125V20.6187H182.27L181.652 20.0001L181.239 20.4125L180.827 18.9692L180.621 20.0001L180.208 20.2063L180.414 21.031H179.59L180.002 20.8248L179.384 20.0001L180.414 19.7939L180.002 19.3815L179.177 19.5877V19.1754H178.765L178.559 17.5259H177.528L177.322 16.7011L180.208 15.2578ZM176.703 17.3197L177.115 17.5259L176.703 17.732V17.3197Z" fill="#767479"/>
<path d="M65.7703 12.166L66.8012 12.3722L66.595 13.6093L65.9765 14.0217L68.0383 14.2279L68.4507 14.6403L68.6569 15.8774L69.894 15.6712L70.1002 16.4959H69.6878V16.0836L69.0693 16.2897L69.2754 16.7021L69.894 16.9083V18.5578L69.4816 18.764V19.1764H68.4507V18.5578L67.8321 19.1764L67.4198 18.9702L67.6259 18.5578L63.7084 18.764L63.296 17.9392V15.8774L63.0898 15.2588L63.5022 14.4341L64.5331 15.0526L65.3579 15.2588L65.5641 13.6093L65.1517 13.4031V12.3722L65.5641 12.5784V13.1969H66.1826V12.7846H65.7703V12.166Z" fill="#6C6A6E"/>
<path d="M31.9581 1.44336L32.5766 1.64955L32.7828 3.71141L32.989 3.9176L33.4014 4.12378L33.1952 4.94853H33.6076V3.71141L34.6385 3.29904L35.4633 2.68048L35.8756 3.50522L35.0509 4.12378V4.74234L35.6694 4.12378L36.0818 5.56709L35.6694 6.80421L35.4633 7.01039H34.4323L34.6385 8.4537H30.721L30.3086 7.21658L30.721 6.59802H31.5457V6.18565L30.3086 6.39183V4.94853L30.9272 5.56709L31.3395 4.94853H31.7519V4.53616H31.1333V3.29904L31.5457 3.09285L31.3395 2.26811V1.64955L31.7519 1.85573L31.9581 1.44336Z" fill="#69676B"/>
<path d="M21.8578 1.44336L22.4763 2.26811H22.8887L23.0949 1.44336L23.7135 1.64955L23.9197 2.68048H24.5382V4.74234L24.332 5.56709H23.9197V4.74234L23.0949 4.94853L22.6825 3.9176L22.2702 3.71141L22.4763 5.3609L22.2702 5.56709L22.064 8.24751H22.8887V7.83514L22.4763 7.62895L23.3011 7.42277L23.5073 8.65988H16.9093L16.7031 7.42277L16.9093 7.83514L17.7341 7.62895L18.1464 7.42277L18.3526 5.56709H18.765L18.9712 7.01039L19.5897 6.80421V6.18565L20.4145 6.39183V4.94853L21.033 4.74234V4.32997L20.6207 4.12378L21.2392 3.09285L21.6516 3.50522V1.85573L21.8578 1.44336Z" fill="#7D7B80"/>
<path d="M28.2481 0.207031H44.3306V0.413218L35.0522 0.619404L32.578 0.413218L32.3718 1.03178H31.9594V2.06271H31.3409L31.7533 2.88745L31.5471 3.50601L30.9285 3.29983L30.7223 2.2689H30.3099V1.44415L29.0728 1.23796L28.8666 1.65034H28.4543L28.2481 1.44415H27.8357L28.0419 2.88745L27.4233 3.09364V3.91839L26.8048 4.12457L26.5986 4.53695L27.2172 4.33076L27.011 5.15551L26.1862 4.94932L25.98 6.59881L25.5677 6.39262L25.3615 5.15551L25.1553 6.18644L24.7429 5.98025V4.94932L25.7738 3.91839L26.3924 2.68127V1.23796L26.1862 0.619404L24.7429 1.03178V0.619404H24.3305V1.03178H23.9182V0.619404L22.8872 1.03178V0.619404L22.0625 1.03178V0.619404H21.2377V1.03178L20.2068 0.619404L20.0006 1.03178V0.619404L18.9697 0.825591L18.1449 0.619404V1.65034L17.7326 0.825591L14.4336 0.619404V0.413218L28.2481 0.207031Z" fill="#79777C"/>
<path d="M56.9062 0H70.7207V0.206186H68.6589L68.4527 1.23712L67.4218 1.03093V1.44331L67.8341 1.64949V2.26805H68.4527L68.0403 3.91754L67.2156 3.71136L67.4218 2.68042H66.3908L66.8032 2.26805H67.0094V1.03093L66.597 0.618559L67.4218 0.412373L61.6485 0.206186V0.618559L63.0918 0.412373L63.298 1.64949L62.0609 1.03093L62.2671 2.68042L62.0609 4.32992L61.8547 4.74229L61.03 4.32992L59.999 4.12373V2.26805L60.4114 2.06186V2.47424L61.03 2.06186H61.6485L61.4424 1.03093H60.8238V1.85568H60.4114V1.44331H59.7929L59.1743 0.824746L59.7929 2.26805L59.3805 4.32992L58.7619 4.12373L58.3496 3.71136L58.1434 4.12373L57.9372 3.0928L57.731 1.03093L56.9062 0Z" fill="#7C7A7F"/>
<path d="M179.175 27.2168L183.917 27.6292V28.4539L182.68 28.6601V29.2787L183.093 29.8972L181.856 30.5158H181.237L181.443 30.9282L179.381 31.3405L178.557 31.1343V31.5467L177.319 31.1343L177.113 30.1034V27.423L179.175 27.2168Z" fill="#78767B"/>
<path d="M205.157 29.0723L205.982 29.2785L205.569 30.1032L206.394 29.897H208.25L209.693 30.1032L210.311 31.1341L210.105 31.9589L208.662 31.7527L208.456 32.7836H208.043V32.3712L207.012 32.1651V32.7836L208.25 32.9898L207.631 33.196V33.6084H206.806L207.012 34.2269L205.982 34.4331L205.569 35.464V35.6702V36.0826L204.538 35.8764V33.8146H204.951L204.538 32.5774L204.332 29.6908L205.157 29.4846V29.0723Z" fill="#6E6C70"/>
<path d="M56.9076 0.207031L57.5262 0.413218L57.9386 1.03178L58.1447 3.91839L58.9695 3.7122V4.12457L59.3819 4.33076V3.09364L59.588 2.2689L59.1757 0.825591L59.7942 1.03178V1.44415H60.4128V1.85652H60.8252V1.03178H61.4437L61.6499 2.06271L60.4128 2.47508H60.2066L60.0004 4.12457L60.619 3.91839L61.8561 4.74313L62.0623 2.2689V1.03178L62.6808 1.23796L62.887 1.85652V4.74313L61.8561 5.15551L62.0623 5.56788H62.887L63.2994 4.33076L63.7118 4.53695V5.56788L64.3303 5.15551L64.1241 4.12457H64.7427L64.9489 4.74313L64.7427 6.18644V7.01118H64.1241L63.918 5.77407L63.2994 6.39262L61.4437 6.18644L61.2375 5.36169H60.8252L60.619 6.59881H60.2066L60.4128 5.36169L59.588 5.15551L59.7942 5.98025L59.3819 6.18644V5.56788H58.9695L59.1757 6.18644L58.5571 6.39262L57.32 5.56788L58.3509 4.53695L58.1447 4.74313L57.32 5.15551V2.06271H56.2891L56.4952 1.65034L56.9076 1.85652L56.7014 0.619404L56.9076 0.207031Z" fill="#6D6B6F"/>
<path d="M211.133 24.9492L211.957 25.1554V42.6813L211.133 43.0936V42.6813H211.545L211.339 42.0627H210.927V40.4132L210.308 40.0008L210.927 39.7946L210.72 37.5266V36.908L211.133 35.2585L210.308 35.0524H210.927V34.0214L209.896 33.8152L208.246 33.609V33.1967H208.658L208.865 32.7843H211.133L210.927 32.1657L210.514 31.7534L210.927 31.5472L211.133 30.3101L210.72 30.1039H211.545V29.6915L211.133 29.4853L211.339 28.8668L211.133 28.6606L211.545 27.6296H211.133V27.2173H209.896L209.277 25.9802L210.308 26.1863V26.5987L210.927 26.8049L211.133 26.3925L210.514 26.1863L211.133 25.774V24.9492Z" fill="#6E6C70"/>
<path d="M50.7193 1.23633L51.9564 1.6487V4.53531V4.94768L52.1626 4.32912H52.575L52.1626 3.29819L52.9873 2.88582V3.91675L53.1935 4.94768V5.77243H53.6059L53.3997 3.91675L53.1935 2.88582L53.3997 2.06107L54.0183 1.85489L53.8121 3.29819V4.12294L54.4306 4.32912L55.0492 2.88582L55.4616 3.09201L55.0492 4.94768H55.4616L55.8739 6.39099L55.4616 6.59718V6.1848H54.6368V5.77243H54.2244V7.83429L53.3997 7.62811V6.59718L52.7811 6.80336L52.3688 5.77243L52.1626 6.39099H49.8945V3.29819L50.3069 3.09201L50.7193 1.23633Z" fill="#6E6C70"/>
<path d="M7.83477 11.1348H8.04096L8.24715 14.6399V34.64L7.83477 35.4648L7.21622 34.4338L7.4224 34.2276L7.62859 32.9905L7.01003 32.7843L7.21622 32.1658L7.62859 31.341L7.21622 30.5163H7.62859L7.4224 28.6606L7.62859 26.5987H7.21622L7.4224 25.5678H7.83477V25.1554H7.21622V23.9183L7.62859 23.506L7.21622 23.0936H7.62859V22.6812L7.21622 22.475V21.2379L6.80384 21.0317L7.21622 19.5884L6.59766 19.3822L7.21622 19.176L7.4224 18.3513H7.83477V17.7327L7.01003 17.3204L7.4224 16.7018H7.83477V16.2894H7.4224V15.6709H7.83477L7.62859 14.2276V11.9595L7.83477 11.1348Z" fill="#757378"/>
<path d="M177.322 17.1133L177.528 17.7318V21.0308L177.322 25.5669L177.528 25.9793L177.322 28.8659V30.9278L178.146 31.5463L177.528 32.1649L177.322 33.402L177.734 33.6082L177.322 34.0206L177.528 35.8762L177.322 37.1134L177.528 42.6804L177.322 43.299L176.703 43.0928V17.7318L177.322 17.1133Z" fill="#404043"/>
<path d="M0.207031 0.824219H0.825591L1.03178 1.64896L0.825591 1.85515V5.97888L0.619404 7.00981L0.825591 8.86549V10.515H0.413218L0.619404 11.9583L0.825591 12.1645L3.09364 12.3707L2.2689 12.783L0.825591 12.9892L1.03178 14.0202H0.619404V14.6387H1.03178V15.0511L1.44415 15.2573L1.65034 16.4944L1.03178 16.9068L0.619404 16.7006L0.825591 17.5253H1.23796V19.7934L0.619404 19.9996V20.4119L1.23796 20.2057V20.8243L1.65034 21.0305L0.619404 21.2367V21.8552H1.03178V22.2676L0.825591 22.4738L1.23796 22.68V23.2985H0.619404L0.413218 24.948H1.23796V26.1852V26.3913V26.5975H0.207031V0.824219Z" fill="#6C6A6E"/>
<path d="M48.8642 0.412109L49.4828 0.618296H49.0704L49.689 1.64923V4.12347L49.4828 7.62863H48.8642L48.4519 6.80389H48.0395L48.2457 8.24719L47.8333 8.04101L47.6271 6.39152L45.9776 6.18533V4.94821L45.5652 5.36058L45.7714 5.97914L45.3591 6.39152L45.1529 5.77296L44.9467 8.04101L44.3281 7.83482L44.7405 4.53584H45.1529L45.3591 3.09253L46.1838 3.50491L45.9776 3.91728H45.5652V4.32965H45.9776L46.39 3.71109V5.1544L46.5962 3.71109L46.1838 2.0616L45.9776 1.64923L46.39 1.03067L46.8024 1.44304L46.5962 2.47397L47.2147 2.26779L47.0085 4.94821L46.8024 5.56677L47.2147 5.77296V3.71109H47.6271V2.47397H47.8333V3.50491H48.2457V2.88635L48.8642 2.47397V0.412109Z" fill="#6E6C70"/>
<path d="M32.7812 41.6504H40.4101L39.9978 42.8875L39.173 43.0937L37.9359 42.4751L37.7297 43.0937V42.0628H37.3174V42.6813L36.2864 42.4751L36.0802 43.5061V45.1556L36.2864 45.3617L36.4926 46.3927H36.0802V45.9803H35.4617V48.4545L36.2864 48.6607H35.874V49.4855H33.606L33.3998 48.6607H33.8122V49.0731H34.4307L33.8122 47.2174V45.9803L34.4307 46.1865L34.6369 47.4236L34.4307 48.4545H34.8431V47.4236H35.2555L35.0493 46.3927L35.2555 43.7123H34.8431L34.6369 44.9494H33.8122L33.606 44.7432V43.7123L33.8122 44.3308H34.2246L34.0184 42.4751L33.606 43.2999L33.3998 42.2689L32.7812 42.4751V41.6504Z" fill="#6C6A6E"/>
<path d="M59.5877 5.15625L60.4125 5.36244L60.2063 6.59956H60.6187V5.15625L61.2372 5.36244L61.4434 5.981L63.2991 6.39337L63.5053 5.77481H63.9176L64.1238 7.01193L63.7115 7.21811L63.2991 7.01193L62.6805 8.45523H55.2578V8.24905H57.9382L58.1444 7.63049H59.3815V7.4243H57.9382V6.18718H57.5259L57.732 7.01193L57.5259 8.04286H56.9073V7.4243H56.4949V8.04286L56.0826 7.83667L56.4949 7.01193H56.9073V6.18718H57.3197L57.5259 5.56862L58.763 6.18718L58.9692 5.56862H59.3815H59.5877V5.15625Z" fill="#7D7B80"/>
<path d="M68.6604 0.207031H69.8975L70.1037 2.06271L69.8975 2.47508H70.3099L70.516 3.09364L70.3099 3.91839H69.8975V5.98025L69.2789 6.39262L68.248 6.18644V7.21737L67.6294 6.59881L67.2171 7.62974H66.8047V4.33076L67.2171 3.91839H68.0418L68.248 2.47508L67.6294 2.2689L67.4232 1.03178H68.0418L68.248 0.619404H68.4542L68.6604 0.207031Z" fill="#676569"/>
<path d="M178.35 34.2266L178.557 34.6389L178.969 34.2266H180.412V35.0513L181.031 34.8451L181.856 35.2575V35.6699L181.031 35.4637L181.237 35.8761V37.1132H180.825V35.4637L180.412 35.6699V36.7008L179.588 36.907V36.4946L178.144 36.907V37.7317V38.1441L178.557 38.3503V36.907L179.588 37.3194H180.412L180.206 39.175H179.588V38.1441L178.969 38.5565L179.175 39.5874L180.206 39.7936L180.412 40.6183L179.588 41.6493L180.206 41.4431V42.0616L179.794 42.2678L179.588 42.8864L179.175 42.474V40.8245L178.969 39.7936L178.35 39.9998L178.144 40.4122H177.732L177.319 40.8245L177.113 36.7008L177.526 35.8761L178.35 36.0822V34.2266Z" fill="#6F6D71"/>
<path d="M180.208 15.2578H184.538V17.3197L183.92 17.1135V16.2887L183.095 17.1135L182.476 16.4949L182.683 17.1135H182.27V16.4949H181.033L180.827 17.3197H180.002L179.384 16.9073V17.3197L180.621 17.9382L181.239 17.732V18.5568L180.827 18.763L180.621 20.0001L180.208 20.2063L180.414 21.031H179.59L180.002 20.8248L179.384 20.0001L180.414 19.7939L180.002 19.3815L179.177 19.5877V19.1754H178.765L178.559 17.5259H177.528L177.322 16.7011L180.208 15.2578ZM176.703 17.3197L177.115 17.5259L176.703 17.732V17.3197Z" fill="#726F74"/>
<path d="M198.766 57.5273H206.395V59.1768L206.188 59.383H198.766V57.5273Z" fill="#A39FA5"/>
<path d="M26.8049 5.56836H27.0111V6.59929L27.6296 6.18692L28.2482 6.39311L28.042 6.80548H28.4544L28.6606 5.98073L28.8668 6.18692V7.21785L29.4853 7.01166V7.42404H29.8977V5.56836H30.3101V6.39311L31.5472 6.18692V6.59929L30.7224 6.80548L30.5163 7.42404L30.7224 8.45497H32.9905L33.1967 8.0426V8.45497H34.64L34.4338 7.01166L34.8462 7.21785L34.64 7.63022L35.2585 7.83641V8.45497H36.7018L36.908 7.21785H37.1142V8.45497H42.6813V8.66116H24.9492V7.63022L25.1554 8.45497L25.5678 8.24878L25.9802 7.42404V8.45497H26.3925L26.5987 7.01166L26.1863 6.80548L26.5987 5.77455L26.8049 5.56836Z" fill="#848186"/>
<path d="M55.8763 0L56.9072 0.206186V1.85568L56.2886 2.06186H57.3196V3.0928L56.701 2.68042L56.2886 3.50517H55.8763L55.6701 5.15466L55.0515 4.94847L55.2577 3.0928L54.8453 3.50517L54.6391 4.5361L53.8144 4.12373L53.6082 2.68042L53.8144 1.23712L53.402 1.64949L52.9897 1.44331V1.85568L52.3711 1.64949V0.412373H53.1958L53.6082 0.206186L55.8763 0Z" fill="#7B787D"/>
<path d="M26.8037 42.2695H27.2161L27.6285 44.7438V48.4551H27.4223L27.0099 47.218L26.3914 48.6613H25.7728L25.5666 49.4861H25.1542L24.9481 49.0737L24.7419 49.4861H24.3295V48.4551H23.9171L23.7109 47.4242V46.1871L24.3295 46.3933V47.0118L24.7419 46.8056V45.1561L24.9481 44.3314H25.3604L25.5666 45.1561L25.7728 44.1252L26.1852 44.95L26.3914 45.9809L27.2161 46.3933L26.8037 43.0943V42.2695Z" fill="#757378"/>
<path d="M62.6797 8.04102H63.0921L63.5044 9.69051L63.2982 10.7214V11.1338L64.123 11.5462L64.3292 12.7833L63.7106 12.5771L63.5044 12.9895L63.2982 12.7833L63.0921 13.1957L63.5044 13.4019V14.2266H64.7416L64.5354 15.0514H63.7106L63.5044 14.639L63.2982 15.4637L63.5044 16.907V18.1442L63.7106 18.5565H67.6282L67.8343 18.7627L68.4529 18.5565V19.1751L69.0715 19.3813L67.6282 19.5875H62.8859L62.6797 8.04102Z" fill="#434346"/>
<path d="M12.3702 44.9492H12.7826L12.9888 48.6606H13.8135L14.0197 49.6915H12.3702H11.9579L11.3393 49.8977H4.53516V49.2791L5.56609 49.0729V48.4544L6.59702 48.6606L6.18465 48.8668V49.2791H6.80321L7.00939 48.6606L8.04033 48.4544L8.65889 49.4853L8.86507 45.774L9.27744 45.9802L9.48363 47.8358H9.07126L9.27744 48.2482V49.4853H9.896V48.6606L10.7207 48.4544L11.3393 49.0729L11.5455 48.2482L11.9579 48.042L12.1641 48.4544L12.3702 47.8358V44.9492Z" fill="#6D6B6F"/>
<path d="M22.2687 3.71094L22.8872 3.91712L23.2996 4.74187H23.9182V5.56662L24.9491 5.97899L25.7739 6.80373L26.5986 7.00992L26.3924 8.45323H25.98L25.7739 8.24704L24.9491 8.65941H23.5058L23.2996 8.45323V7.42229L22.8872 7.83467V8.24704H22.0625V5.56662L22.2687 5.15424V3.71094Z" fill="#79777C"/>
<path d="M14.6367 0.619141H17.9357L18.3481 1.85626L18.1419 2.88719L17.9357 5.97999H17.3171L17.111 4.94906V4.12431H16.4924L16.08 5.36143L15.8738 4.74287L15.6677 2.06245L15.2553 1.85626L15.4615 3.71194H15.0491L14.6367 1.65007V0.619141Z" fill="#7C7A7F"/>
<path d="M123.091 51.3418H147.834L147.009 51.548V51.9604H145.772V51.548H144.947L144.741 52.1665H143.71V51.7542H135.05V52.1665H134.431V51.7542L132.782 52.1665L132.576 51.9604L122.473 51.7542L123.091 51.3418Z" fill="#7A787D"/>
<path d="M7.21453 32.9902H7.6269L7.42071 34.2274H7.83309L7.6269 34.6397L7.83309 35.0521L8.24546 34.6397V41.8563H12.3692L12.163 42.2686L10.1011 42.4748L9.27639 42.0624V43.9181L8.65783 43.2996L8.45164 42.2686L7.42071 42.0624L7.6269 41.6501L6.80215 41.2377L7.42071 40.8253H8.03927L7.42071 40.6191L7.21453 40.0006L7.42071 39.5882H6.80215V39.1758L6.38978 38.9696H7.00834L7.21453 37.7325H6.18359L6.38978 36.9078L7.6269 37.114V36.7016H7.21453L7.00834 35.0521L6.59597 34.6397H7.00834L6.80215 33.815L7.21453 32.9902Z" fill="#6B6A6E"/>
<path d="M13.1945 42.2695L14.0192 42.4757L14.2254 42.8881L14.4316 45.7747L14.2254 46.5994L15.0501 46.3933L14.844 45.5685L15.0501 44.5376V42.4757L15.6687 42.2695L15.8749 45.5685L15.6687 46.1871H16.0811V43.7128H16.2873L16.4935 45.9809L16.2873 49.4861L15.6687 49.2799L14.844 49.4861V46.8056H14.4316V48.6613H14.0192L13.6068 44.7438L13.813 43.0943L12.9883 42.6819L13.1945 42.2695Z" fill="#77757A"/>
<path d="M19.5874 41.8574H20.206V49.4863L21.4431 49.2801L21.6493 48.6616L21.8555 49.2801H22.474V48.4554L22.8864 48.6616L23.7111 49.4863L23.505 48.2492L23.9173 48.043V48.4554H24.3297V49.4863H24.7421L24.9483 48.6616L25.1544 49.4863L25.5668 49.0739L25.773 48.4554L26.8039 48.2492L27.2163 48.8678L26.3916 49.0739L27.0101 49.6925H14.2266L14.4327 46.8059H14.8451V49.4863L15.4637 49.0739L15.8761 48.8678L16.0822 49.2801L16.2884 48.2492H16.7008V49.4863L17.3194 49.0739L17.5255 48.4554H17.9379L18.1441 49.2801L18.5565 49.4863L18.7627 48.8678V49.4863H19.5874V41.8574Z" fill="#3F3F42"/>
<path d="M40.6172 41.6504H44.7409L44.9471 45.7741V49.6917H44.7409L44.5347 46.8051H44.3285V45.7741L43.71 45.9803L42.8852 45.5679L43.0914 44.537H43.5038L43.2976 44.1246H42.4729L42.6791 43.5061L42.2667 42.6813L41.6481 42.8875V42.4751L40.8234 42.6813L40.6172 41.6504Z" fill="#6D6B6F"/>
<path d="M18.349 41.8574H19.5861L19.7923 42.2698V48.4554L19.5861 49.4863H18.1428L17.7305 48.2492L18.349 48.043V44.3317L18.1428 42.6822L18.349 41.8574Z" fill="#79777C"/>
<path d="M52.7834 0L53.6081 0.412373L52.7834 0.824746V0.412373H52.371L52.5772 1.64949L52.9895 1.85568V1.44331L53.6081 1.23712L54.0205 0.824746V1.85568L53.4019 2.88661L53.6081 4.94847V5.77322H53.1957L52.9895 4.12373L52.7834 3.0928L52.371 3.50517L52.5772 4.32992L52.1648 5.15466L51.5462 5.56703L51.7524 4.5361V1.64949L50.9277 1.44331L50.3091 3.29898H49.8967L50.1029 5.56703H49.6906L49.4844 4.12373L49.6906 1.64949L50.1029 0.824746L50.7215 0.206186L52.7834 0Z" fill="#7C7A7F"/>
<path d="M13.4023 41.8574H16.9075L16.7013 42.8884L16.9075 43.5069L16.7013 43.9193L16.9075 48.043L17.9384 47.8368L17.3199 49.2801L16.7013 49.4863L16.4951 48.6616L16.7013 48.2492H16.289V45.775L16.0828 46.1873H15.6704L15.4642 42.8884L15.6704 42.2698L15.258 42.476L15.0518 44.5378L15.4642 44.744H15.0518V46.3935L14.2271 46.5997L14.0209 42.476L14.2271 42.0636L13.4023 41.8574Z" fill="#69676B"/>
<path d="M30.1031 41.8574L30.7217 42.476V45.9812L30.5155 49.2801L29.897 49.4863L29.6908 48.2492L29.897 46.5997L29.4846 47.6306H29.0722L28.866 48.043H28.2475V46.1873L27.8351 45.5688L28.0413 44.744L27.6289 43.3007L27.8351 42.8884H28.2475L28.866 44.3317L29.4846 44.1255V45.1564H29.0722L29.2784 46.1873H30.1031V45.775L29.6908 45.5688H30.1031V44.3317L29.6908 44.1255V42.6822L30.1031 41.8574Z" fill="#7A787C"/>
<path d="M18.3526 5.56836H18.765L18.9712 7.01166L19.5897 6.80548V6.18692L20.2083 6.39311L20.6207 7.21785L21.2392 6.59929L21.6516 6.80548L21.8578 5.98073H22.064V8.24878H22.8887V7.83641L22.4763 7.63022L23.3011 7.42404L23.5073 8.66116H16.9093L16.7031 7.42404L16.9093 7.83641L17.7341 7.63022L18.1464 7.42404L18.3526 5.56836Z" fill="#827F84"/>
<path d="M18.5569 1.44336L18.9693 2.06192L19.1755 2.47429H19.794L20.6188 2.88666L21.0311 2.26811H21.4435L21.2373 3.71141L20.825 4.12378L21.0311 4.74234L20.6188 4.94853L20.4126 6.39183L19.5878 6.18565V6.80421L18.7631 7.21658V5.56709H18.3507L18.1445 4.32997L18.3507 2.88666L18.5569 1.44336Z" fill="#7A787D"/>
<path d="M182.268 28.4531H183.918V34.0202L182.268 33.814L182.062 32.783L182.887 32.3707V31.9583L182.268 31.7521V31.3397H183.093V30.9274L181.65 30.7212L181.856 31.5459L180.413 31.3397V31.7521L179.588 31.9583L178.969 31.7521L178.145 31.5459H178.557V31.1335L181.031 30.9274L181.237 30.7212L180.825 30.3088L181.65 30.1026H182.268L182.887 29.6902L182.268 28.8655V28.4531Z" fill="#6B696D"/>
<path d="M34.0199 4.12305L34.4323 4.94779L34.8447 6.3911L34.2261 6.18491V5.56635H33.8138L34.0199 6.3911L34.8447 7.00966H34.4323L34.6385 8.45296H30.721L30.3086 7.21584L30.721 6.59728H31.5457V6.18491L31.1333 5.97872H31.7519L31.9581 6.59728L32.3705 5.77254L33.1952 6.18491V5.36017H33.8138L34.0199 4.12305Z" fill="#767479"/>
<path d="M28.2466 0.207031H44.3292V0.413218L35.0508 0.619404L32.5765 0.413218L32.3703 1.03178H31.958V2.06271H31.3394L31.7518 2.88745L31.5456 3.50601L30.927 3.29983L30.7209 2.2689H30.3085V1.44415L29.0714 1.23796L28.8652 1.65034H28.4528L28.2466 1.03178L27.8342 0.825591L27.6281 1.23796L27.4219 0.413218L28.2466 0.207031Z" fill="#7E7C81"/>
<path d="M0.207031 27.0117L1.03178 27.8365L1.65034 28.2488L0.619404 28.455L0.825591 29.0736L1.23796 29.2798L1.03178 30.3107L0.619404 30.1045V31.754L2.06271 31.9602V32.5788L1.23796 32.9911L2.06271 33.6097L3.09364 34.4344H5.36169L5.56788 33.1973L5.98025 33.4035L5.56788 34.8468H2.2689L0.619404 35.053L0.207031 35.2592V27.0117Z" fill="#6B696D"/>
<path d="M69.8976 0.207031H70.7223L70.9285 1.03178V11.9597H70.7223L70.5162 9.69161L69.6914 9.07305V7.83593H70.31L69.6914 7.42356L69.8976 6.59881L69.6914 5.56788V3.91839L70.31 3.50601V2.88745V2.47508H69.8976V0.207031Z" fill="#626165"/>
<path d="M44.5354 45.9805H44.7415V49.6918H27.4219L28.2466 49.2795H29.2776L29.6899 48.6609L29.8961 49.4856L30.3085 49.2795L30.7209 48.4547L30.927 49.4856L31.3394 49.0733L31.5456 46.3928L31.958 46.8052V49.4856H32.5765L32.9889 48.6609L33.1951 49.2795L34.6384 49.4856L34.8446 48.8671V49.4856H35.8755V48.6609L36.2879 48.8671V49.2795L37.7312 49.4856V48.6609H38.1436V49.0733L39.7931 49.2795L43.092 49.0733V48.6609L43.9168 48.8671H43.5044V49.2795L44.3292 49.0733L44.5354 45.9805Z" fill="#3F3F42"/>
<path d="M183.711 21.8555H183.917V27.6287H182.061L180.824 27.4225L181.443 26.8039L180.824 26.5978V25.773H181.443L181.649 25.1545L182.061 27.0101L182.474 26.8039L182.061 25.9792L182.474 25.5668L182.886 25.3606V24.9483H182.268V24.5359L183.092 23.7111L182.68 23.0926L182.886 22.474H182.268L182.474 22.0617L183.711 21.8555Z" fill="#68666A"/>
<path d="M46.8038 0.207031H50.7214L50.5152 0.825591H50.1028L49.8966 1.65034L49.2781 1.44415L48.8657 0.413218L49.0719 2.47508L48.2471 2.88745V3.50601L47.4224 3.91839L47.2162 5.77407L46.5977 5.56788L47.01 3.09364V2.47508H46.5977L46.8038 0.207031Z" fill="#79777B"/>
<path d="M50.7193 1.23633L51.9564 1.6487V4.53531L51.7502 5.36006L51.9564 5.97862L51.7502 6.39099H49.8945V3.29819L50.3069 3.09201L50.7193 1.23633Z" fill="#69686C"/>
<path d="M7.62637 20H8.03874L8.24493 34.6392L7.83256 35.464L7.214 34.4331L7.42019 34.2269L7.62637 32.9897L7.00781 32.7836L7.214 32.165L7.62637 31.3403L7.214 30.5155H7.62637L7.42019 28.6598L7.62637 26.598H7.214L7.42019 25.567H7.83256V25.1547H7.214V23.9175L7.62637 23.5052L7.214 23.0928H7.62637V22.6804L7.214 22.4742V21.6495L7.62637 21.4433L7.42019 20.4124L7.62637 20Z" fill="#3F3F42"/>
<path d="M56.9062 0L61.2362 0.206186L60.8238 1.85568H60.4114V1.44331H59.7929L59.1743 0.824746L59.7929 2.26805L59.3805 4.32992L58.7619 4.12373L58.3496 3.71136L58.1434 4.12373L57.9372 3.0928L57.731 1.03093L56.9062 0Z" fill="#79777C"/>
<path d="M130.929 57.7324H134.228L134.434 57.9386V59.7943L134.022 60.0005H130.929L130.723 59.7943V57.9386L130.929 57.7324Z" fill="#9F9CA1"/>
<path d="M187.629 15.0527L189.278 15.2589L189.072 16.2899H188.454L188.041 18.7641L188.454 18.9703L187.835 19.1765L187.629 17.3208L187.216 18.5579L186.804 18.3517L186.392 17.527L186.185 18.5579H185.979L185.773 16.496L185.567 15.4651L184.742 15.2589L187.629 15.0527Z" fill="#767478"/>
<path d="M134.843 57.7324H138.554V59.3819L138.348 59.7943L135.255 60.0005L134.637 59.5881L134.843 57.7324Z" fill="#A09CA2"/>
<path d="M185.155 16.4941H185.567V20.4117L186.186 20.6179V21.2364H185.361L184.536 20.8241L184.124 20.2055L183.918 20.4117V20.6179H182.268L181.65 19.9993L181.237 20.4117L181.031 20.2055V18.7622L181.65 18.9684V19.3808L183.505 19.5869L182.887 18.7622L183.712 18.556L183.918 19.3808L183.712 19.7931H184.33L184.536 19.3808L184.743 19.5869V18.556H183.918V17.7313L184.536 17.9374L185.155 16.4941Z" fill="#6A686C"/>
<path d="M44.7419 0.207031H46.8037V1.23796H46.3914V1.85652L46.8037 4.33076L46.3914 5.36169L45.979 4.53695L45.5666 4.33076V3.91839H45.979V3.50601L45.5666 3.29983L45.1542 4.53695H44.7419V5.98025L44.3295 7.42356L43.7109 7.01118L44.1233 5.98025V4.33076H44.5357L44.3295 3.91839V2.68127L45.3604 2.88745L45.5666 1.85652L45.7728 0.413218H45.3604V1.65034H44.7419L44.5357 0.619404L45.1542 0.825591V0.413218L44.7419 0.207031Z" fill="#7B797E"/>
<path d="M44.3283 0.207031L45.1531 0.413218V0.825591L44.7407 1.03178V1.65034H45.3593V0.413218H45.7716L45.9778 1.23796L45.3593 2.88745L44.3283 2.68127L44.5345 4.33076H44.1221L44.3283 4.74313V5.98025H43.7098V5.56788H44.1221V4.94932H43.7098L43.2974 5.56788L42.885 4.53695L43.7098 3.29983H44.1221L43.5036 1.44415V2.2689H43.0912L42.885 1.65034L42.4727 1.85652L42.6788 0.413218L44.3283 0.207031Z" fill="#6C6A6E"/>
<path d="M65.1559 0.207031H67.8364L67.0116 0.619404L67.2178 1.03178V2.47508H66.5992L67.424 2.68127V3.7122L66.1869 4.12457L65.7745 3.91839L66.1869 3.50601L65.9807 2.47508L65.7745 2.88745H65.3621L65.1559 3.29983H64.5374V2.68127H64.9497L64.125 1.23796V0.825591H65.1559V0.207031Z" fill="#6B696D"/>
<path d="M110.926 51.3418H121.648L122.06 51.7542L116.699 51.9604H108.245L107.833 52.1665L106.184 51.9604V51.548L110.926 51.3418Z" fill="#838186"/>
<path d="M180.206 28.248L180.618 28.8666V29.279L181.856 29.4852V30.1037L181.237 30.5161L181.443 30.9285L179.381 31.3408L178.557 31.1347V31.547L177.319 31.1347L177.113 30.1037V28.8666L177.319 28.4542L178.144 28.6604V29.0728H177.732L178.144 29.8975L178.763 30.3099H180.206L180 29.4852L180.206 29.0728L179.588 29.279L179.175 28.4542L180.206 28.248Z" fill="#6D6B6F"/>
<path d="M0.413218 47.8359L1.44415 48.4545L2.06271 48.8669L2.68127 48.4545L3.7122 48.8669H4.74313V49.4854V49.6916L9.89779 49.8978V50.104H0.207031L0.413218 47.8359Z" fill="#78767A"/>
<path d="M43.2983 47.0098L43.7107 47.6283V48.0407H44.1231L44.5355 47.216L44.3293 49.0716L43.5045 49.2778V48.8654L43.0922 48.6593L43.2983 49.2778L39.7932 49.484L37.9375 49.2778L38.1437 48.6593L38.5561 48.4531V47.4221H38.9684V48.4531L39.9994 48.8654L40.4117 48.4531L41.6489 48.0407V47.6283L42.4736 47.8345V48.4531L43.0922 48.0407L42.886 47.216L43.2983 47.0098Z" fill="#6D6B6F"/>
<path d="M25.5652 0.619141H26.1838L26.5962 1.2377V2.68101L25.5652 4.53668L24.9467 4.94906L24.7405 5.7738H24.3281V1.85626L24.7405 1.44389L25.1529 1.65007V1.2377L24.7405 1.03151L25.5652 0.619141Z" fill="#777579"/>
<path d="M25.7731 41.6504H29.6907L29.2783 41.8566V42.2689L29.8968 42.0628V43.9184L30.3092 44.537L30.103 46.1865H29.2783L29.0721 47.0112V45.1556H29.4845V44.1246L28.8659 43.9184V41.8566H26.1855L25.9793 42.6813L25.3607 44.1246H24.9484L24.7422 43.0937V41.8566L25.7731 41.6504Z" fill="#79777C"/>
<path d="M178.971 16.082L179.384 16.2882L179.177 17.113L180.414 17.9377L181.239 17.7315V18.5563L180.827 18.7625L180.621 19.9996L180.208 20.2058L180.414 21.0305H179.59L180.002 20.8243L179.384 19.9996L180.414 19.7934L180.002 19.381L179.177 19.5872V19.1748H178.765L178.559 17.5253H177.528L177.322 16.7006L177.94 16.2882L178.971 16.082ZM176.703 17.3191L177.115 17.5253L176.703 17.7315V17.3191Z" fill="#6B696D"/>
<path d="M35.2569 2.68164L35.8754 3.50639L35.0507 4.12495V4.74351L35.6692 4.12495L36.0816 5.56825L35.6692 6.80537L34.8445 7.01156L33.8136 6.393V5.56825H34.2259L34.4321 6.18681L34.8445 6.393L34.2259 4.94969L33.195 5.56825L32.1641 5.36206L32.3702 4.53732H32.9888V4.94969H33.6074V3.71257L34.6383 3.3002L35.2569 2.68164Z" fill="#6E6C70"/>
<path d="M0.207031 0.824219H0.825591L1.03178 1.64896L0.825591 1.85515V5.97888L0.619404 7.00981L0.825591 8.86549V10.515H0.413218L0.619404 11.9583L0.825591 12.5768H0.413218L0.619404 13.4016V15.8758L0.413218 17.5253H0.207031V0.824219Z" fill="#3F3F42"/>
<path d="M210.515 17.5273L211.958 17.7335V24.1253L211.752 24.7439L211.133 24.5377H211.546V24.1253H211.133L210.721 23.7129L210.309 23.5068V23.0944L211.34 22.8882L210.927 22.0634H210.515V21.6511H211.133L210.721 21.2387L210.309 21.0325V20.6201H210.927V20.2078H211.546V18.9706H211.133L210.721 17.9397L210.515 17.5273Z" fill="#737175"/>
<path d="M58.1445 0H70.7219V0.206186H68.66L68.4539 1.23712L67.4229 1.03093V1.44331L67.8353 1.64949V2.26805H68.4539L68.0415 3.91754L67.2167 3.71136L67.4229 2.68042H66.392L66.8044 2.26805H67.0105V1.03093L66.5982 0.618559L67.4229 0.412373L58.1445 0.206186V0Z" fill="#8A878C"/>
<path d="M21.6484 41.8574H24.3289L24.535 45.775L23.7103 45.5688L23.5041 43.5069L23.7103 42.8884H23.0917L23.2979 44.1255L22.6794 44.3317L22.8856 42.2698H22.4732V45.5688L21.8546 45.3626L22.0608 43.5069L21.6484 43.3007V41.8574Z" fill="#6A686C"/>
<path d="M69.6902 0.824219H70.1026V2.06134L69.8964 2.47371H70.3088L70.515 3.09227L70.3088 3.91702H69.8964V5.56651H68.8655V4.74176H68.4531L68.6593 4.1232V2.06134L68.8655 1.64896L68.4531 1.44278L69.6902 0.824219Z" fill="#6E6C70"/>
<path d="M29.8973 5.56836H30.3096V6.39311L31.5468 6.18692V6.59929L30.722 6.80548L30.5158 7.42404L30.722 8.45497H32.9901L33.1963 8.0426V8.45497H34.6396L34.4334 7.01166L34.8457 7.21785L34.6396 7.63022L35.2581 7.83641V8.45497H36.7014L36.9076 7.21785H37.1138V8.45497H42.6808V8.66116H28.6602L29.4849 8.45497L29.6911 7.63022L29.8973 8.45497H30.3096L29.8973 5.56836Z" fill="#A09CA2"/>
<path d="M8.86507 45.7734L9.27744 45.9796L9.48363 47.8353H9.07126L9.27744 48.8662L8.86507 49.8972H4.53516V49.2786L5.56609 49.0724V48.4539L6.59702 48.66L6.18465 48.8662V49.2786H6.80321L7.00939 48.66L8.04033 48.4539L8.65889 49.4848L8.86507 45.7734Z" fill="#656367"/>
<path d="M52.3688 5.36133L52.7811 5.97989V6.80463H53.1935L53.3997 6.39226L53.6059 6.80463V7.62938L54.2244 8.24794L52.3688 8.45412L51.7502 8.24794L51.544 6.80463L51.3378 7.01082L51.1316 7.83557H49.8945V6.80463L50.5131 6.39226H52.1626L52.3688 5.36133ZM52.1626 7.42319L52.3688 8.24794L52.575 7.42319H52.1626Z" fill="#79777C"/>
<path d="M61.6484 0.207031H65.1536V1.03178L64.1227 0.825591L64.9474 2.2689V2.68127H64.535L64.3289 3.29983L63.2979 2.68127L62.8856 3.50601L62.6794 3.29983V1.85652L63.2979 1.65034L62.8856 0.825591L63.0917 0.413218L61.6484 0.619404V0.207031Z" fill="#7D7B80"/>
<path d="M95.2571 51.3418H100.412L100.824 51.548V51.9604L100.206 52.1665L98.9684 51.9604H92.3705L90.721 51.7542L90.5148 58.5583H90.3086V51.548L95.2571 51.3418Z" fill="#7C7A7F"/>
<path d="M56.9078 5.36133L57.3202 5.56751V6.18607H56.9078V7.01082L56.4955 7.21701V7.42319H56.9078V8.04175H57.5264V7.01082L57.3202 6.59845L57.5264 6.18607H57.9388V7.42319L59.3821 7.21701V7.83557H58.1449L57.9388 8.24794L55.0522 8.45412L54.4336 7.62938L54.6398 6.59845L55.2583 7.01082V7.42319L55.8769 6.80463H56.2893L56.0831 5.7737L56.9078 5.36133Z" fill="#6E6C71"/>
<path d="M208.453 15.2578L208.659 15.6702L209.69 15.464L210.927 16.2887V16.9073L210.103 17.5259V19.3815L209.484 19.5877L209.278 19.3815L209.484 17.9382H208.659L208.453 15.2578Z" fill="#706E72"/>
<path d="M63.0929 6.80469L64.1238 7.01087V7.42325H64.5362L64.1238 8.66037H64.5362L64.7424 9.07274L65.361 8.86655V9.48511L64.33 9.6913L64.1238 10.3099L63.9177 10.1037L63.7115 10.7222H64.5362L64.33 11.9593L64.1238 11.547L63.0929 11.1346V9.89748L63.2991 9.48511L62.8867 7.62943L63.0929 6.80469Z" fill="#6B696D"/>
<path d="M68.4533 7.62891H69.6905L69.4843 8.45365H68.8657L69.0719 9.2784L68.8657 9.69077L68.6595 11.3403H68.2471L67.8348 10.1031L67.6286 11.5464H67.01L67.2162 9.89696H66.5977V9.07221L67.01 8.86602H68.6595V8.45365L67.8348 8.65984V8.24747L68.4533 7.62891Z" fill="#68666A"/>
<path d="M22.2687 3.71094L22.8872 3.91712L23.2996 4.74187H23.9182V6.18517L23.2996 6.39136L23.0934 7.42229L22.8872 8.24704H22.0625V5.56662L22.2687 5.15424V3.71094Z" fill="#706E73"/>
<path d="M123.091 51.3418H134.431L134.225 51.7542L132.782 52.1665L132.576 51.9604L122.473 51.7542L123.091 51.3418Z" fill="#7D7A7F"/>
<path d="M62.6797 8.04102H63.0921L63.5044 9.69051L63.2982 10.7214V11.1338L64.123 11.5462L64.3292 12.7833L63.7106 12.5771L63.5044 12.9895L63.2982 12.7833L63.0921 13.1957L63.5044 13.4019V14.2266H64.7416L64.5354 15.0514H63.7106L63.5044 14.639L63.0921 15.4637H62.8859L62.6797 8.04102Z" fill="#414144"/>
<path d="M0.207031 17.7324H0.413218V20.4128L1.23796 20.2067V20.8252L1.65034 21.0314L0.619404 21.2376V21.8562H1.03178V22.2685L0.825591 22.4747L1.23796 22.6809V23.2995H0.619404L0.413218 24.9489H1.23796V26.1861V26.3923V26.5984H0.207031V17.7324Z" fill="#626064"/>
<path d="M27.8351 42.8867H28.2475L28.866 44.33L29.4846 44.1238V45.1548H29.0722L29.2784 46.8043L29.4846 47.629H29.0722L28.866 48.0414H28.2475V46.1857L27.8351 45.5671L28.0413 44.7424L27.6289 43.2991L27.8351 42.8867Z" fill="#7B797E"/>
<path d="M197.321 42.4746H197.528L197.734 44.9488L199.796 44.5365L200.208 44.7427V45.155H188.043V44.9488H190.311V43.9179H190.723V44.9488L193.198 44.7427L193.61 43.9179V44.9488L194.229 44.7427L197.115 44.9488V43.0932L197.321 42.4746Z" fill="#6E6C70"/>
<path d="M177.319 33.6094H179.794L181.649 33.8156L181.443 34.4341H181.031L180.825 35.0527H180.412V34.2279L179.175 34.4341L178.557 34.6403V36.0836L177.938 36.2898L177.319 35.6712L177.113 33.8156L177.319 33.6094Z" fill="#78767B"/>
<path d="M204.951 25.1543L205.775 25.3605L205.157 26.3914L205.982 25.979L206.188 25.1543H206.6L206.806 25.5667L207.837 25.7729L208.043 26.8038H205.982L205.569 27.6285L204.744 27.8347V27.01L204.332 26.8038V25.7729L204.951 25.979V25.1543Z" fill="#6A696D"/>
<path d="M12.7804 0.619141H14.2237L14.4299 1.85626L14.2237 2.06245L14.6361 2.26863L14.4299 3.91812L14.6361 5.56762L14.4299 6.59855L13.6052 6.18617L13.399 5.7738H13.8113V2.06245H13.399L13.1928 2.47482L12.9866 1.85626L13.1928 1.44389H12.7804L12.5742 0.825327L12.7804 0.619141Z" fill="#67666A"/>
<path d="M68.2458 6.18555H69.6891L70.5138 6.59792H69.8953V7.42267L70.5138 7.83504L70.1015 8.04122L68.452 7.62885L68.2458 8.24741L68.0396 8.4536H68.6581V8.86597H67.421L67.2148 8.04122L67.421 6.59792L67.8334 6.39173L68.0396 7.01029L68.2458 6.18555Z" fill="#79777C"/>
<path d="M29.6888 46.3926L30.1011 46.5988L29.6888 48.6606L29.4826 49.4854H28.0393L27.0083 49.6916L26.1836 48.8668L27.4207 48.6606L27.8331 48.8668V47.8359L28.864 48.0421L29.0702 47.4235L29.4826 47.6297L29.6888 46.3926Z" fill="#656468"/>
<path d="M36.4963 5.15625L36.9087 5.36244V8.04286L36.7025 8.45523H35.2592L35.053 7.83667L34.6406 7.63049L34.8468 7.01193L35.6716 6.59956V5.56862L36.4963 5.15625Z" fill="#767479"/>
<path d="M59.5872 5.15625L60.4119 5.36244L60.2058 6.59956L59.1748 6.80574L58.9686 7.21811L57.9377 7.4243V6.18718H57.5253L57.7315 7.01193L57.5253 8.04286H56.9068V7.4243H56.4944V8.04286L56.082 7.83667L56.4944 7.01193H56.9068V6.18718H57.3191L57.5253 5.56862L58.7625 6.18718L58.9686 5.56862H59.381H59.5872V5.15625Z" fill="#7C7A7F"/>
<path d="M19.5865 3.29883L20.205 3.91739L20.6174 3.50501L21.0298 4.74213L20.6174 4.94832L20.4112 6.39162L19.5865 6.18544V6.804L18.7617 7.21637V4.74213L19.5865 4.94832V3.29883Z" fill="#6B696D"/>
<path d="M183.506 30.3105L183.712 30.7229V31.3415L183.918 31.96V34.0219L182.269 33.8157L182.062 32.7848L182.887 32.3724V31.96L182.269 31.7539V31.3415H183.093L182.887 30.7229L183.506 30.3105Z" fill="#5B5A5D"/>
<path d="M68.6593 12.5781H70.3088L70.515 13.1967L69.6902 13.6091L70.1026 13.8152L69.8964 15.6709L69.6902 15.8771H68.6593L68.4531 15.2585L68.6593 14.4338V12.5781Z" fill="#777579"/>
<path d="M14.6367 0.619141H15.8738L16.2862 0.825327V3.71194H16.6986V3.29956L17.3171 3.50575L16.6986 4.12431H16.4924L16.08 5.36143L15.8738 4.74287L15.6677 2.06245L15.2553 1.85626L15.4615 3.71194H15.0491L14.6367 1.65007V0.619141Z" fill="#656468"/>
<path d="M193.609 20.207L194.228 20.4132L194.022 21.4441H195.053L195.259 20.6194V21.0318H195.671V21.4441H196.702L196.908 20.6194L197.733 20.8256L197.115 21.0318V21.4441H200.001L199.795 20.4132H201.032L201.238 21.6503H193.816L193.609 20.207Z" fill="#6A686C"/>
<path d="M66.5965 14.4336L67.4212 14.846V15.4645H68.246V15.8769H67.0089V17.114H67.8336L68.0398 16.4955L67.8336 17.9388L67.6274 17.3202L66.5965 17.7326V16.0831L65.7717 15.8769V17.7326H65.3594V16.0831L65.7717 14.846L66.5965 14.4336Z" fill="#7A787D"/>
<path d="M53.6082 0.207031H55.4639L55.6701 0.619404L55.0515 1.85652L54.2268 2.06271L53.8144 1.23796L53.402 1.65034L52.9897 1.44415V1.85652L52.3711 1.65034V0.413218H53.1958L53.6082 0.207031Z" fill="#757377"/>
<path d="M29.4827 0.207031H44.3281V0.413218L35.0497 0.619404L32.5755 0.413218L32.3693 1.03178L32.1631 0.413218H31.5445L31.3384 0.825591L30.5136 0.413218V0.825591L29.0703 0.619404L29.4827 0.207031Z" fill="#A39FA5"/>
<path d="M70.1029 9.2793L70.7215 9.69167L70.9277 11.9597V13.8154L70.5153 14.2278L69.8967 13.1968H70.5153L70.1029 12.7845H69.6906V12.3721H70.1029V11.7535H69.6906V10.5164V10.104L69.4844 9.48548L70.1029 9.2793ZM69.6906 13.6092L70.1029 13.8154L69.6906 14.0216V13.6092Z" fill="#434246"/>
<path d="M14.4336 0.412109H27.2172V0.618296L24.7429 1.03067V0.618296H24.3305V1.03067H23.9182V0.618296L22.8872 1.03067V0.618296L22.0625 1.03067V0.618296H21.2377V1.03067L20.2068 0.618296L20.0006 1.03067V0.618296L18.9697 0.824482L18.1449 0.618296V1.64923L17.7326 0.824482L14.4336 0.618296V0.412109Z" fill="#A19DA3"/>
<path d="M181.238 15.2578H184.537V17.3197L183.919 17.1135V16.2887L183.094 17.1135L182.475 16.4949L182.682 17.1135H182.269V16.4949L181.651 16.2887L182.063 15.464L181.238 15.6702V15.2578Z" fill="#717074"/>
<path d="M8.04181 39.7949H8.24799V41.8568H12.3717L12.1655 42.2692L10.1037 42.4753L9.27892 42.063V43.9187L8.66037 43.3001L8.45418 42.2692L7.42325 42.063L7.62943 41.6506L6.80469 41.2382L7.42325 40.8259H8.04181V39.7949Z" fill="#6E6C70"/>
<path d="M33.4003 6.39258L34.4313 6.59876L34.8436 7.01114H34.4313L34.6375 8.45444H31.957L32.5756 6.59876L32.988 6.80495V7.42351L33.6065 7.01114L33.4003 6.39258Z" fill="#7F7D82"/>
<path d="M33.8147 45.9805L34.4333 46.1867L34.6395 47.4238L34.4333 48.4547H34.8456V47.4238L35.4642 47.8361V48.4547L36.289 48.6609H35.8766V49.4856H33.6085L33.4023 48.6609H33.8147V49.0733H34.4333L33.8147 47.2176V45.9805Z" fill="#6E6C70"/>
<path d="M193.816 15.0527H195.672V16.7022L195.054 17.9393L194.847 17.527H194.435V16.2899H194.023L193.816 15.0527Z" fill="#757377"/>
<path d="M51.9592 1.85547L52.784 2.06166V2.47403H53.1964L53.6087 4.53589V5.77301H53.1964L52.9902 4.12352L52.784 3.09259L52.3716 3.50496L52.5778 4.32971L52.1654 5.15445L51.5469 5.56682L51.9592 1.85547Z" fill="#7F7D82"/>
<path d="M69.481 8.04102H69.8934V9.07195L70.0996 9.89669L69.8934 9.48432L69.6872 10.1029L70.3057 10.3091L69.8934 10.7214L69.6872 11.5462L68.6562 11.34V9.27813H69.0686L68.8624 8.45339H69.481V8.04102Z" fill="#7C7A7F"/>
<path d="M45.3591 3.09375L46.1838 3.50612L45.9776 3.9185H45.5652V4.33087H45.9776L46.39 3.71231L46.1838 5.3618L45.9776 4.94943L45.5652 5.3618L45.7714 5.98036L45.3591 6.39273L45.1529 5.77417L44.9467 8.04222L44.3281 7.83604L44.7405 4.53706H45.1529L45.3591 3.09375Z" fill="#69676B"/>
<path d="M68.4531 16.2891H69.0717L69.2779 16.7014L69.8964 16.9076V18.5571L69.4841 18.7633V19.1757H68.4531V16.2891Z" fill="#6F6D71"/>
<path d="M7.83256 11.1348H8.03874V19.7946L7.83256 19.176L7.214 18.9699L7.42019 18.3513H7.83256V17.7327L7.00781 17.3204L7.42019 16.7018H7.83256V16.2894H7.42019V15.6709H7.83256L7.62637 14.2276V11.9595L7.83256 11.1348Z" fill="#3F3F42"/>
<path d="M181.031 27.6289H183.918V28.4537L182.681 28.6598V29.2784L183.093 29.897L181.856 30.5155L181.65 30.1031L181.856 28.0413L181.031 27.6289Z" fill="#868389"/>
<path d="M208.663 20.8262H209.281V21.4447L210.106 21.6509V22.0633H208.869L208.456 23.0942L207.632 23.3004L207.013 22.2695L206.395 21.6509L208.456 21.8571L208.663 20.8262Z" fill="#706E72"/>
<path d="M43.2966 1.23633L43.9151 1.85489L44.1213 3.29819H43.7089L43.2966 4.32912V5.15387V5.56624H42.8842L42.2656 4.32912V2.67963H42.678L42.8842 3.09201H43.2966V1.23633Z" fill="#828085"/>
<path d="M25.9793 42.4746H26.3917L26.5979 43.7117V45.9798L26.1855 46.186L25.9793 44.9488L25.5669 45.3612L25.3607 44.3303H24.9484L24.7422 45.155V43.7117L24.9484 44.1241L25.3607 43.9179L25.9793 42.4746Z" fill="#79777C"/>
<path d="M26.1855 3.09375L26.8041 3.71231L26.5979 4.53706L27.2164 4.33087L27.0102 5.15561L26.1855 4.94943L25.9793 6.59892L25.5669 6.39273L25.3607 5.15561L25.1546 6.18655L24.7422 5.98036V4.94943L25.7731 3.9185L26.1855 3.09375Z" fill="#828085"/>
<path d="M16.2891 43.7109L16.7014 43.9171L16.9076 48.0409L17.9386 47.8347L17.32 49.278L16.7014 49.4842L16.4952 48.6594L16.7014 48.247H16.2891V43.7109Z" fill="#6E6C70"/>
<path d="M181.649 30.7227L183.093 30.9288V31.3412L182.474 31.7536L182.887 31.9598V32.3721L181.237 32.5783L180 32.166V31.7536H180.412V31.3412H181.649V30.7227Z" fill="#747277"/>
<path d="M183.505 18.5566L183.918 19.3814L183.712 19.7938L184.124 19.9999L183.712 20.2061L183.918 20.6185H182.268L181.65 19.9999L181.237 20.4123L181.031 20.2061V18.7628L181.65 18.969V19.3814L183.505 19.5876L182.887 18.7628L183.505 18.5566Z" fill="#6E6C70"/>
<path d="M22.4757 0.619141H23.3005H23.919V1.03151H24.3314V0.619141H24.7438V1.2377H25.1561V1.65007L24.5376 1.85626L24.1252 2.88719L23.5066 2.47482L23.7128 1.65007L22.2695 1.44389L22.4757 0.619141Z" fill="#69676C"/>
<path d="M7.00918 23.918H7.21537V25.1551H7.83393V25.5675H7.42156V26.3922L7.83393 26.5984V27.8355L7.62774 29.2788L7.83393 30.1036L7.62774 30.5159H7.21537L7.00918 29.2788L7.21537 28.2479L6.39062 28.0417H7.00918V23.918Z" fill="#6E6C70"/>
<path d="M34.0197 4.12305L34.4321 4.94779L34.8445 6.3911L34.2259 6.18491V5.56635H33.8136V6.3911H33.4012L33.8136 7.21584L32.9888 7.42203L32.5764 6.80347L32.1641 7.00966V5.77254L33.195 6.18491V5.36017H33.8136L34.0197 4.12305Z" fill="#78767A"/>
<path d="M39.7921 4.33008H40.6169L40.4107 4.74245L40.6169 5.15482L41.6478 5.36101L42.4725 4.53626L42.8849 5.15482L42.6787 6.18576H42.0602H41.0292V5.77338H40.6169V6.18576H40.2045L39.5859 4.94864L39.7921 4.33008Z" fill="#676569"/>
<path d="M32.5781 0.412109H33.6091L34.0214 1.23686L34.8462 1.44304L34.4338 2.68016H33.6091V2.26779H33.1967L32.5781 1.23686V0.412109Z" fill="#5F5E62"/>
<path d="M49.0708 3.29883L49.6894 3.50501L49.4832 7.62874H48.8647L48.6585 6.59781H49.0708L48.8647 4.94832L48.2461 5.15451V4.53595L48.8647 4.12357L49.0708 3.29883Z" fill="#716F74"/>
<path d="M68.659 0.207031H69.8961L69.6899 1.03178L68.659 1.44415L68.8652 2.06271L68.659 2.88745L68.2466 2.68127L67.6281 2.2689L67.4219 1.03178H68.0404L68.2466 0.619404H68.4528L68.659 0.207031Z" fill="#6D6B6F"/>
<path d="M13.1945 42.2695L14.0192 42.4757L14.2254 42.8881L14.4316 45.7747L14.2254 48.6613H14.0192L13.6068 44.7438L13.813 43.0943L12.9883 42.6819L13.1945 42.2695Z" fill="#8B888D"/>
<path d="M0.207031 35.4648H0.619404L0.825591 36.4958L1.65034 36.702L1.44415 37.5267V38.1453L1.85652 38.3515V38.7638L0.825591 38.5576L0.207031 38.3515V35.4648Z" fill="#6E6C70"/>
<path d="M178.968 28.6602L179.792 29.0725H180.205V30.3096L178.555 30.5158V30.1035L177.937 29.8973L177.73 29.0725L178.349 28.8663L178.968 29.0725V28.6602Z" fill="#7A787D"/>
<path d="M12.1637 4.12305L12.5761 4.74161L12.3699 5.15398H12.7823L12.9885 6.3911H13.607V7.00966L12.3699 7.21584L12.1637 5.97872L11.9576 6.3911H11.339L11.1328 4.53542H11.7514V5.56635H12.1637V4.12305Z" fill="#6E6C70"/>
<path d="M32.1643 4.53516L32.3705 4.94753L32.1643 5.3599L33.1952 5.56609V6.18465L32.3705 5.97846L32.1643 7.00939L31.7519 6.59702L31.3395 5.97846L31.1333 6.39083H30.3086V4.94753L30.9272 5.56609L31.3395 4.94753L32.1643 4.53516Z" fill="#5E5D60"/>
<path d="M183.918 15.877H184.124V17.1141L184.537 17.3203L184.743 16.7017V18.145L183.918 17.7326L183.712 18.145L183.3 17.5264H182.887L182.681 18.145L182.062 17.9388V17.1141L182.475 16.9079V16.4955L183.093 16.7017L183.506 16.9079L183.918 15.877Z" fill="#7F7D82"/>
<path d="M28.0404 0.824219L28.4528 1.03041V1.64896H28.8652L29.0714 1.03041L30.3085 1.44278L29.8961 1.85515L29.4837 1.64896L29.2776 2.26752L28.4528 1.85515L28.2466 4.53557H27.8342L27.4219 3.91702V3.09227L27.8342 2.6799V1.44278L28.0404 0.824219Z" fill="#646366"/>
<path d="M52.5787 2.88672L52.991 3.09291L53.1972 4.94858L53.4034 6.1857L53.1972 6.80426H52.7848L52.3725 5.77333L52.1663 6.39189H51.7539L51.9601 4.94858L52.1663 4.33002H52.5787L52.1663 3.29909L52.5787 2.88672Z" fill="#676569"/>
<path d="M40.8242 0.412109H42.6799V2.47397H42.2675L41.8552 2.0616H41.4428L40.8242 1.03067V0.412109Z" fill="#7F7C81"/>
<path d="M37.7305 0.412109H39.38L39.1738 1.23686L40.2047 1.03067V1.64923L39.5861 1.85541V2.68016L38.7614 2.47397V1.23686L37.7305 1.44304V0.412109Z" fill="#676569"/>
<path d="M27.6286 45.7734L28.4533 46.1858L28.2471 47.8353L27.8348 48.8662L26.8038 48.4539L26.5977 47.6291L27.01 46.8044L27.4224 47.4229L27.6286 45.7734Z" fill="#636266"/>
<path d="M19.1741 42.8867L19.5865 43.2991V47.0104H18.9679L18.7617 46.1857V44.1238L19.1741 42.8867Z" fill="#8B888E"/>
<path d="M18.3507 41.8574L19.1755 42.0636L18.9693 43.3007V47.8368H18.5569L18.3507 44.3317L18.1445 42.6822L18.3507 41.8574Z" fill="#646266"/>
<path d="M64.1238 4.12305H64.7424L64.9486 4.74161L64.7424 6.18491V7.00966H64.1238L63.9177 5.77254L63.2991 6.3911H62.8867L63.0929 4.94779L63.5053 4.32923L63.7115 4.53542V5.56635L64.33 5.15398L64.1238 4.12305Z" fill="#6E6C70"/>
<path d="M26.8047 42.2695H27.2171L27.6294 44.7438V48.4551H27.4232L27.0109 45.5685L26.8047 42.2695Z" fill="#8C898E"/>
<path d="M59.1758 0.824219L59.7943 1.03041V1.44278H60.4129V1.85515H60.8253V1.03041H61.4438L61.65 2.06134L60.4129 2.47371H60.2067L60.0005 3.29846L59.5882 2.88608L59.382 2.06134L59.1758 0.824219Z" fill="#67666A"/>
<path d="M28.2483 5.36133L28.4545 5.7737L29.2792 5.97989H30.104V7.83557L29.8978 7.42319L28.8669 7.21701L28.6607 6.18607L28.4545 6.80463L27.8359 7.01082V6.18607L28.2483 5.36133Z" fill="#6E6C70"/>
<path d="M69.8976 0.207031H70.7223V4.33076H69.6914L69.8976 3.7122L70.31 3.50601V2.88745V2.47508H69.8976V0.207031Z" fill="#424245"/>
<path d="M37.9377 1.23633L38.1439 1.85489L38.3501 3.50438L37.3191 3.71057L37.113 4.7415L36.082 4.32912L36.2882 3.71057V2.88582L37.113 3.50438L37.3191 2.67963L37.7315 2.88582V1.44251L37.9377 1.23633Z" fill="#6F6D71"/>
<path d="M8.24609 0.619141H10.5141L10.1018 1.65007L9.89559 1.2377H9.48321L9.6894 2.68101L8.45228 2.06245L8.24609 0.619141Z" fill="#6E6C70"/>
<path d="M204.741 36.084H205.154V36.4964H206.803L207.216 36.084L207.834 36.4964L207.628 37.3211L205.978 37.1149L205.772 37.7335L204.535 36.9087L204.741 36.084Z" fill="#6E6C70"/>
<path d="M7.83256 31.3398H8.03874L8.24493 34.6388L7.83256 35.4636L7.214 34.4326L7.42019 34.2265L7.62637 32.9893L7.00781 32.7831L7.214 32.1646L7.83256 31.3398Z" fill="#414144"/>
<path d="M55.0522 2.88672L55.4645 3.09291L55.0522 4.94858H55.4645L55.8769 6.39189L55.4645 6.59807V6.1857H54.6398L54.4336 4.53621L54.846 3.09291L55.0522 2.88672Z" fill="#6B696D"/>
<path d="M26.1836 41.8574L27.0083 42.0636L27.2145 46.3935L26.596 46.5997L26.1836 41.8574Z" fill="#5E5D61"/>
<path d="M204.332 30.7227L204.744 31.5474L204.538 32.5783L204.951 32.7845V33.8155H204.538L204.744 35.4649L204.538 35.8773L205.157 36.0835L204.744 36.2897L204.538 38.7639H204.332V30.7227Z" fill="#848187"/>
<path d="M38.3482 4.74219H38.7606V5.77312L39.3791 5.36075L39.5853 6.39168L39.3791 6.80405L38.9667 6.59787L38.7606 6.39168L38.5544 7.21642L37.9358 7.01024L38.3482 6.18549H37.5234L37.7296 5.36075L38.3482 4.74219Z" fill="#5E5C60"/>
<path d="M66.8052 12.166L67.4238 12.3722L67.2176 13.8155H67.63L68.0423 12.5784H68.4547L68.2485 14.2279H65.9805V13.6093H66.599L66.3928 12.7846H66.8052V12.166Z" fill="#7C7A7F"/>
<path d="M66.3912 9.2793L66.5973 9.89786H67.2159V11.9597L66.5973 12.1659L66.185 10.9288L65.5664 11.3412V10.5164L66.185 10.3102L66.3912 9.2793Z" fill="#7D7B80"/>
<path d="M44.1238 2.68164H44.33L44.5362 4.33113H44.1238L44.33 4.74351V5.98062H43.7115V5.56825H44.1238V4.94969H43.7115L43.2991 5.56825L42.8867 4.53732L43.7115 3.3002H44.1238V2.68164Z" fill="#68666A"/>
<path d="M10.721 0.619141H11.7519L11.3395 0.825327L11.5457 1.44389L11.9581 1.65007V1.2377L12.5766 1.44389L12.7828 2.26863L12.1643 2.47482L11.5457 2.06245L11.3395 2.47482L10.3086 2.06245L10.721 0.619141Z" fill="#676569"/>
<path d="M44.3283 0.207031L45.1531 0.413218V0.825591L44.3283 0.619404L44.1221 1.44415L43.5036 1.65034V2.2689H43.0912L42.885 1.65034L42.4727 1.85652L42.6788 0.413218L44.3283 0.207031Z" fill="#6E6D71"/>
<path d="M7.00781 12.7832H7.62637L7.83256 14.2265V15.6698H7.42019V16.2884H7.83256V16.7007L7.214 16.9069L7.00781 15.6698V12.7832Z" fill="#6E6C70"/>
<path d="M101.238 51.3418H104.743L105.568 51.548L105.362 52.1665L102.682 51.9604L102.269 52.1665L101.238 51.9604V51.3418Z" fill="#7D7A7F"/>
<path d="M29.6889 42.8867L29.8951 43.5053L30.3074 44.5362L30.1012 46.1857H29.2765L29.0703 47.0104V45.1548H29.4827L29.2765 43.9177L29.6889 42.8867Z" fill="#69676B"/>
<path d="M203.091 43.5059L203.916 44.1244L204.122 44.743H206.39V45.1554H200.617L201.442 44.743L201.854 44.3306V44.9492L203.091 44.743H203.504L203.091 43.5059Z" fill="#6C6A6E"/>
<path d="M30.1038 41.8574L30.7223 42.476V44.9502L30.1038 45.1564L29.8976 44.1255L29.6914 43.5069L29.8976 42.476L30.1038 41.8574Z" fill="#807E83"/>
<path d="M0.207031 17.7324H0.413218V20.4128L1.23796 20.2067V20.8252L1.65034 21.0314L0.619404 21.2376V21.8562H1.03178V22.2685L0.207031 22.4747V17.7324Z" fill="#58575B"/>
<path d="M0.207031 27.0117L1.03178 27.8365L1.65034 28.2488L0.619404 28.455L0.825591 29.0736L1.23796 29.2798L1.03178 30.3107L0.619404 30.1045L0.413218 31.3416H0.207031V27.0117Z" fill="#68666A"/>
<path d="M48.866 3.29883L49.0722 4.12357L48.4537 4.32976L48.866 3.29883ZM47.8351 4.32976L48.4537 4.53595V4.94832H48.866L49.0722 5.36069V6.59781H48.6598V6.18544L48.0413 6.39162L47.6289 4.74213L47.8351 4.32976Z" fill="#7E7C81"/>
<path d="M46.1867 1.03125L46.8052 1.44362L46.599 2.47456L47.2176 2.26837L47.0114 4.94879L46.599 5.77354L45.9805 6.18591V5.36117L46.3928 5.15498L46.599 3.71167L46.1867 2.06218L45.9805 1.64981L46.1867 1.03125Z" fill="#6E6C70"/>
<path d="M69.6902 0.824219L69.8964 1.64896L69.2779 1.85515V2.26752H69.6902L69.4841 3.71083L68.6593 4.1232V2.06134L68.8655 1.64896L68.4531 1.44278L69.6902 0.824219Z" fill="#7A787D"/>
<path d="M179.588 39.5879L180.413 40.0003L180.207 41.0312L179.588 41.6498L180.207 41.4436V42.0621L179.794 42.2683L179.588 42.8869L179.176 42.4745V40.2064L179.588 39.5879Z" fill="#6E6C70"/>
<path d="M47.4246 5.15625H47.837L48.2494 6.18718H48.6617L48.4556 6.80574H48.0432L48.2494 8.24905L47.837 8.04286L47.6308 6.39337L46.1875 6.18718L46.3937 5.56862L47.2184 5.77481L47.4246 5.15625Z" fill="#626064"/>
<path d="M195.875 15.0527H197.524L197.318 15.6713L197.937 16.496V16.9084H197.524V16.496L196.906 16.7022V16.2899L195.875 16.0837V15.0527Z" fill="#716F73"/>
<path d="M15.6719 41.8574H16.909L16.7028 42.8884L16.909 43.5069L16.0842 43.7131V46.1873H15.6719V43.5069H16.2904V42.6822L15.8781 42.476L16.0842 42.0636L15.6719 41.8574Z" fill="#5E5D60"/>
<path d="M197.319 42.4746H197.526L197.732 44.9488L199.794 44.5365L200.206 44.7427V45.155H197.113V43.0932L197.319 42.4746Z" fill="#68666A"/>
<path d="M24.7422 41.8574H25.7731L25.9793 42.6822L25.3607 44.1255H24.9484L24.7422 43.0945V41.8574Z" fill="#676569"/>
<path d="M29.6897 41.6504H31.7516V42.0628L30.9268 42.2689L31.133 43.5061L31.5454 43.7123L30.7206 44.1246L30.3083 42.0628L29.8959 42.4751L29.2773 42.2689V41.8566L29.6897 41.6504Z" fill="#605F62"/>
<path d="M69.8976 6.59766H70.7223V9.27808L69.6914 9.07189V7.83477H70.31L69.6914 7.4224L69.8976 6.59766Z" fill="#404043"/>
<path d="M50.7193 2.0625L50.9255 2.47487V3.50581L50.5131 4.94911L50.7193 5.36148L50.3069 6.18623H50.1007L49.8945 5.1553V3.29962L50.3069 3.09343L50.7193 2.0625Z" fill="#69676B"/>
<path d="M65.7734 0.207031H67.8353L67.0106 0.619404L67.2167 1.03178L66.8044 2.06271L65.7734 1.65034V0.207031Z" fill="#706E72"/>
<path d="M184.949 41.8574L185.567 42.476L184.743 42.8884H184.33L184.124 44.9502L184.949 44.5378L185.155 44.1255L185.774 45.1564H183.918V42.476L184.949 41.8574Z" fill="#6E6C70"/>
<path d="M38.5538 41.6504H40.4095L39.9971 42.8875L39.1724 43.0937L38.76 42.8875L38.3477 41.8566L38.5538 41.6504Z" fill="#616063"/>
<path d="M187.423 18.9688L187.629 19.3811L188.248 19.5873L188.454 20.4121L188.867 20.6182L188.66 21.2368L188.042 20.6182L187.836 19.9997L187.629 21.0306H186.805V19.9997L187.423 18.9688Z" fill="#6C6A6E"/>
<path d="M22.2687 5.36133L22.4749 6.18607H22.8872L23.0934 7.42319L22.8872 8.24794H22.0625V5.56751L22.2687 5.36133Z" fill="#6E6C70"/>
<path d="M2.0625 0.824219H5.36148L4.94911 1.23659L4.53674 1.03041L4.74292 1.85515L4.53674 2.26752H4.12436V1.23659H3.29962V1.85515H2.88725V1.44278L2.0625 1.23659V0.824219Z" fill="#626064"/>
<path d="M180.207 28.248L180.619 28.8666V29.279L181.856 29.4852L181.65 30.1037H180.619L180.207 30.3099L180.001 29.4852L180.207 29.0728L179.588 29.279L179.176 28.4542L180.207 28.248Z" fill="#6A696D"/>
<path d="M185.155 16.4941H185.567V18.556H184.743H183.918V17.7313L184.537 17.9374L185.155 16.4941Z" fill="#6F6D71"/>
<path d="M62.8867 12.7832L63.0929 13.1956L63.5053 13.4018V14.2265H64.7424L64.5362 15.0513H63.7115L63.5053 14.6389L63.0929 15.4636H62.8867V12.7832Z" fill="#3F3F42"/>
<path d="M59.7939 7.62891L60.2063 7.83509V8.24747L61.031 7.62891L61.2372 8.04128L62.6805 8.24747V8.45365H55.2578V8.24747H59.7939V7.62891Z" fill="#A39FA5"/>
<path d="M14.0209 3.09375L14.4333 3.29994V4.53706L14.6395 5.56799L14.4333 6.59892L13.6085 6.18655L13.4023 5.77417H13.8147V3.29994L14.0209 3.09375Z" fill="#6C6B6F"/>
<path d="M19.1741 41.8574H19.5865L19.7927 42.2698V47.2183H19.5865L19.3803 43.3007H18.7617L18.9679 42.0636L19.1741 41.8574Z" fill="#747276"/>
<path d="M181.855 33.1973L182.268 33.4035V33.8158H183.505L183.917 34.022L183.711 34.8468L182.062 34.6406L181.855 33.1973Z" fill="#727075"/>
<path d="M65.7748 12.166L66.8057 12.3722L66.5996 13.6093L65.981 14.0217L66.3934 14.4341H65.5686V13.6093L65.1562 13.4031V12.3722L65.5686 12.5784V13.1969H66.1872V12.7846H65.7748V12.166Z" fill="#676669"/>
<path d="M25.3585 4.94922H25.5647L25.7709 6.39252L25.9771 6.59871V5.36159L26.1833 4.94922H26.5956L26.8018 5.77396L26.3895 6.8049L25.3585 7.01108L25.1523 6.59871V5.15541L25.3585 4.94922Z" fill="#6C6A6E"/>
<path d="M50.928 2.0625H51.1342V6.18623H50.5156V5.1553V4.53674L50.7218 2.47487L50.928 2.0625Z" fill="#7D7B80"/>
<path d="M31.957 42.6816L32.7818 43.094L32.5756 43.5064H32.988L32.5756 45.5683L31.957 45.1559V42.6816Z" fill="#5E5D61"/>
<path d="M205.361 21.4434L206.392 22.2681L206.598 23.0929L205.979 22.8867L204.742 23.0929V21.8557H205.361V21.4434Z" fill="#676569"/>
<path d="M16.0842 1.03125L16.2904 1.856V3.71167H16.7028V3.2993L17.3214 3.50549L16.7028 4.12405H16.4966L16.0842 5.36117L15.8781 4.74261L15.6719 1.64981H16.0842V1.03125Z" fill="#6E6C70"/>
<path d="M31.9576 1.44336L32.5761 1.64955L32.7823 3.71141H32.3699L31.1328 1.85573H31.7514L31.9576 1.44336Z" fill="#6B696D"/>
<path d="M17.3208 0.619141L17.9394 0.825327V2.47482L17.3208 2.68101L16.9085 1.85626L16.4961 2.06245V1.03151H17.1147L17.3208 0.619141Z" fill="#6E6C70"/>
<path d="M44.7413 0.207031H46.8032V1.23796L45.7723 1.03178V0.413218H45.3599V1.65034H44.7413L44.5352 0.619404L45.1537 0.825591V0.413218L44.7413 0.207031Z" fill="#89878C"/>
<path d="M181.855 15.0527H187.629V15.2589L185.567 15.4651L185.361 16.0837H184.536L184.33 15.4651L181.855 15.2589V15.0527Z" fill="#9C989E"/>
<path d="M53.8139 1.85547L54.0201 2.26784L53.8139 3.29877V4.12352L54.4324 4.32971L54.0201 5.56682H53.6077L53.1953 2.8864L53.4015 2.06166L53.8139 1.85547Z" fill="#6D6B6F"/>
<path d="M43.2991 47.0098L43.7115 47.6283V48.0407H44.1238L44.5362 47.216L44.33 49.0716L43.5053 49.2778V48.8654L43.0929 48.4531V48.0407L42.8867 47.216L43.2991 47.0098Z" fill="#6E6C70"/>
<path d="M210.514 43.0938L210.927 43.9185L209.896 44.7432L209.277 44.5371V43.5061L210.514 43.0938Z" fill="#706E72"/>
<path d="M28.0421 41.8574H28.8669L29.0731 44.3317L28.6607 44.5378L28.2483 43.7131V42.8884H27.8359L28.0421 41.8574Z" fill="#5D5C60"/>
<path d="M7.83256 8.66016H8.03874V11.1344L7.83256 12.7839L7.00781 11.9591L7.214 11.5468H7.62637V11.1344L7.00781 11.3406V10.9282L7.42019 10.722L7.214 10.3096H7.83256L7.42019 9.27872H7.83256V8.66016Z" fill="#6D6B6F"/>
<path d="M56.9076 0.207031L57.5262 0.413218L57.9386 1.03178V1.65034H57.5262V2.06271H56.2891L56.4952 1.65034L56.9076 1.85652L56.7014 0.619404L56.9076 0.207031Z" fill="#666569"/>
<path d="M31.132 45.1562H31.3382L31.5443 49.28L30.9258 49.4862V45.3624L31.132 45.1562Z" fill="#817F84"/>
<path d="M7.21622 18.9688L7.83477 19.1749L8.04096 19.9997H7.62859V21.2368L7.83477 21.6492H7.21622V21.2368L6.80384 21.0306L7.21622 19.5873L6.59766 19.3811L7.21622 18.9688Z" fill="#6E6C70"/>
<path d="M56.9059 5.36133L57.3183 5.56751V6.18607H56.9059V7.01082L56.2874 7.62938H55.875V6.80463H56.2874L56.0812 5.7737L56.9059 5.36133Z" fill="#5F5E61"/>
<path d="M61.6484 0.207031H63.2979L63.7103 1.23796V1.65034H64.3289L64.1227 2.68127L63.9165 2.06271H63.2979L62.8856 0.825591L63.0917 0.413218L61.6484 0.619404V0.207031Z" fill="#6F6D71"/>
<path d="M13.4015 43.0938H13.8139V47.0113L13.4015 47.2175L13.1953 43.7123L13.4015 43.0938Z" fill="#6E6C70"/>
<path d="M180.617 29.8984H181.648L181.236 30.517L181.442 30.9294L179.38 31.3417H178.968L178.762 30.7232H180.205L180.617 29.8984Z" fill="#7A787D"/>
<path d="M184.742 15.2578H186.185L186.392 16.2887L186.185 16.7011H186.598L186.185 18.5568H185.979L185.773 16.4949L185.567 15.464L184.742 15.2578Z" fill="#6E6C70"/>
<path d="M59.1746 6.59766L59.7932 6.80384V8.24715H57.9375L58.1437 7.62859H59.3808L58.9684 6.80384L59.1746 6.59766Z" fill="#757378"/>
<path d="M54.2279 5.77344H54.6403V6.18581H55.2589V6.80437H54.6403L54.8465 7.8353L55.0527 8.45386H53.6094L54.0217 7.8353L54.2279 5.77344Z" fill="#87858A"/>
<path d="M21.0279 4.94922L21.6464 5.36159L21.8526 6.18634L21.6464 6.8049H21.2341L20.6155 7.62964L20.2031 6.59871L20.8217 6.39252L21.0279 4.94922Z" fill="#6C6A6E"/>
<path d="M19.5859 3.29883L20.2045 3.91739L20.6169 3.50501L21.0292 4.74213L20.6169 4.94832L20.4107 5.97925L19.9983 5.15451L20.2045 4.53595L19.5859 4.74213V3.29883Z" fill="#676669"/>
<path d="M53.6082 0.207031H53.8144L53.6082 1.65034L52.9897 1.44415V1.85652L52.3711 1.65034V0.413218H53.1958L53.6082 0.207031Z" fill="#616064"/>
<path d="M210.721 22.8867H211.752L211.958 24.1238L211.752 24.7424L211.133 24.5362H211.546V24.1238H211.133L210.721 23.7115L210.309 23.5053V23.0929L210.721 22.8867Z" fill="#6E6C70"/>
<path d="M199.797 20.4141H201.034L201.24 21.6512H199.797V20.4141Z" fill="#716F73"/>
<path d="M0.410156 42.0625H1.64727L1.02872 42.6811L0.822529 42.4749L0.616343 47.6295H0.410156V42.0625Z" fill="#5D5B5F"/>
<path d="M32.7812 41.6504H34.2246L34.4307 42.6813L34.0184 42.4751L33.606 43.2999L33.3998 42.2689L32.7812 42.4751V41.6504Z" fill="#57565A"/>
<path d="M183.711 18.3516H184.742L184.948 18.5577V19.5887L184.329 19.7949H183.711V18.3516Z" fill="#7B787D"/>
<path d="M184.328 15.877L185.771 16.0831L185.978 17.5264L185.565 17.3203V16.4955L185.153 16.7017L184.74 17.5264L184.328 17.1141V15.877Z" fill="#78777B"/>
<path d="M0.822529 12.3711H3.09058L2.26583 12.7835L0.822529 12.9897L1.02872 14.0206H0.616343L0.410156 14.6391V12.5773L0.822529 12.3711Z" fill="#6E6C70"/>
<path d="M68.2461 6.18555H69.6894L70.5141 6.59792H69.8956L69.4832 7.42267L68.2461 7.01029V6.18555Z" fill="#727075"/>
<path d="M66.1858 2.47461L67.4229 2.6808V3.71173L66.1858 4.1241L65.7734 3.91791L66.1858 3.50554V2.47461Z" fill="#6F6D71"/>
<path d="M6.18412 0.619141H7.21505L7.00887 1.44389H6.80268L6.39031 2.47482L5.35938 1.85626L6.18412 0.619141Z" fill="#646367"/>
<path d="M18.349 47.4238L18.7614 47.8362V48.4548L19.1738 48.6609L18.7614 49.4857L17.9367 49.2795L17.7305 48.2486L18.349 48.0424V47.4238Z" fill="#727074"/>
<path d="M35.4632 45.1562L36.2879 45.3624L36.4941 46.3934H36.0817V45.981H35.4632V47.8367L35.0508 48.0429V46.3934L35.4632 45.1562Z" fill="#69686C"/>
<path d="M178.557 31.1348H181.65L181.856 31.5471L180.413 31.341V31.7533L179.588 31.9595L178.969 31.7533L178.145 31.5471H178.557V31.1348Z" fill="#3F3F42"/>
<path d="M63.296 12.5781L63.5022 12.9905L64.5331 13.4029L64.7393 14.2276H63.5022L63.0898 12.7843L63.296 12.5781Z" fill="#6A686C"/>
<path d="M64.7419 9.48438H65.1542V10.9277L64.5357 11.1339V10.7215H63.7109L63.9171 9.89675L64.7419 9.48438Z" fill="#7D7B80"/>
<path d="M57.5265 6.18555H57.9389V7.42267L59.3822 7.21648V7.83504H58.1451L57.9389 8.24741H57.5265V7.01029L57.3203 6.59792L57.5265 6.18555Z" fill="#5D5C60"/>
<path d="M24.7405 2.0625L25.1529 2.26869L24.7405 4.33055L25.1529 4.53674L24.7405 5.77386H24.3281L24.5343 2.47487L24.7405 2.0625Z" fill="#69686C"/>
<path d="M48.8633 0.412109L49.4818 0.618296H49.0695L49.688 1.64923V3.29872H49.0695L48.8633 2.47397V0.412109Z" fill="#6B696D"/>
<path d="M63.2969 0.207031H65.1526V1.03178L64.1216 0.825591V1.23796L63.5031 1.03178L63.2969 0.207031Z" fill="#77757A"/>
<path d="M9.07337 48.8672L9.27956 49.4857L10.3105 49.2796H10.9291L11.96 49.4857L11.3414 49.8981H8.86719L9.07337 48.8672Z" fill="#404043"/>
<path d="M17.3203 44.5371H17.9389L18.1451 47.2175H17.5265V45.3619L17.3203 44.5371Z" fill="#6C6A6E"/>
<path d="M15.257 42.2695H15.6693V44.95L15.257 44.7438L15.0508 44.5376V42.4757L15.257 42.2695Z" fill="#908D92"/>
<path d="M180.824 37.5254H181.649L181.855 39.1749H181.649L181.443 40.2058H181.03V38.3501L180.824 37.5254Z" fill="#69686B"/>
<path d="M206.395 21.6504H207.632L208.044 22.6813L208.663 22.4751L208.456 23.0937L207.632 23.2999L207.013 22.2689L206.395 21.6504Z" fill="#6E6C70"/>
<path d="M21.8546 6.39258H22.0608V8.24826H22.8856V7.83588L22.4732 7.6297L23.2979 7.42351L23.5041 8.66063H22.0608L21.6484 7.21732L21.8546 6.39258Z" fill="#928F94"/>
<path d="M40.6202 0.619141L41.445 1.65007V2.06245L42.0636 1.85626V2.26863L40.4141 2.88719V0.825327L40.6202 0.619141Z" fill="#676569"/>
<path d="M11.7522 0.412109H13.8141V0.618296L12.7831 0.824482L12.577 1.64923L11.9584 1.23686V1.64923L11.3398 1.44304V0.824482H11.7522V0.412109Z" fill="#807E83"/>
<path d="M49.4827 0.207031H50.7198L50.5136 0.825591H50.1012L49.8951 1.65034L49.2765 1.44415L49.0703 0.619404H49.4827V0.207031Z" fill="#767478"/>
<path d="M266.806 50.3086H268.456L268.662 51.3395H267.631V50.721L267.012 50.9272L266.806 51.3395H266.188L266.394 50.721H266.806V50.3086Z" fill="#878489"/>
<path d="M21.4433 48.248H21.8557L21.6495 49.4852H20.2062L20 48.8666L20.4124 48.4542L21.4433 48.248Z" fill="#6F6D72"/>
<path d="M8.86719 41.8574H12.3724L12.1662 42.2698L10.1043 42.476L9.27956 42.2698L8.86719 42.476V41.8574Z" fill="#626164"/>
<path d="M183.093 35.0508L183.506 35.257L183.712 36.2879L183.918 36.9065H183.506V36.4941L182.062 36.2879L182.269 35.6693L183.093 35.4632V35.0508Z" fill="#68666A"/>
<path d="M183.507 30.3105L183.713 30.7229V31.3415V32.1662L182.27 31.96V31.3415H183.094L182.888 30.7229L183.507 30.3105Z" fill="#404043"/>
<path d="M52.9897 7.00977L54.2268 8.0407L53.6082 8.45307H52.3711L52.9897 7.00977Z" fill="#767478"/>
<path d="M49.0725 4.94922L49.4849 5.15541V7.62964H48.8663L48.6602 6.59871H49.0725L48.8663 5.15541L49.0725 4.94922Z" fill="#504F52"/>
<path d="M27.2145 48.6602H28.2455L28.4516 49.2787L27.0083 49.6911L26.1836 48.8663L27.2145 48.6602Z" fill="#6A686C"/>
<path d="M31.7522 41.6504H32.7831L32.9893 42.6813L32.3708 42.8875L31.9584 42.6813L31.7522 43.0937L31.3398 42.6813V42.0628H31.7522V41.6504Z" fill="#6F6D71"/>
<path d="M179.589 33.6094L181.651 33.8156L181.445 34.4341H181.032L180.826 35.0527H180.414V34.2279L179.589 34.4341L179.383 34.0217L179.589 33.6094Z" fill="#7A787D"/>
<path d="M68.4531 16.2891H69.0717L69.2779 16.7014L69.8964 16.9076L69.6902 17.5262H69.0717L68.8655 17.9386H68.4531V16.2891Z" fill="#78767B"/>
<path d="M56.9068 6.39258H57.3191V6.80495L57.7315 7.01114L57.5253 8.04207H56.9068V7.42351H56.4944V8.04207L56.082 7.83588L56.4944 7.01114H56.9068V6.39258Z" fill="#88868B"/>
<path d="M106.184 51.5469H109.276L109.483 51.9592H108.245L107.833 52.1654L106.184 51.9592V51.5469Z" fill="#5D5C60"/>
<path d="M32.7812 46.1855H33.1936L33.3998 48.4536L32.9874 49.2783L32.7812 48.0412V46.1855Z" fill="#605E62"/>
<path d="M11.7522 42.2695L11.9584 42.8881L12.1646 44.1252L11.7522 44.95L11.3398 44.1252V42.6819L11.7522 42.2695Z" fill="#6E6C70"/>
<path d="M7.21622 32.9902H7.62859L7.4224 34.2274H7.83477L7.62859 34.6397V35.2583L6.59766 34.8459L7.01003 34.6397L6.80384 33.815L7.21622 32.9902Z" fill="#6E6C70"/>
<path d="M68.8655 14.6406L69.8964 14.8468L69.6902 15.8777H68.6593L68.4531 15.2592L68.8655 14.6406Z" fill="#7B797E"/>
<path d="M44.5357 4.53516H44.7419V5.97846L44.3295 7.42177L43.7109 7.00939L44.3295 4.94753L44.5357 4.53516Z" fill="#807D83"/>
<path d="M64.7436 5.98047L65.9807 6.18666V6.59903L65.1559 6.80521L64.7436 7.83615L64.5374 7.42377H64.125V7.0114H64.7436L64.3312 6.18666L64.7436 5.98047Z" fill="#7C7A7F"/>
<path d="M55.8742 3.29883H56.2865L56.6989 5.15451H55.668V3.50501L55.8742 3.29883Z" fill="#6E6C70"/>
<path d="M52.9913 2.88672L53.4037 3.50528L53.6099 4.94858V5.77333H53.1975L52.9913 4.12384L52.7852 3.09291L52.9913 2.88672Z" fill="#7B797E"/>
<path d="M29.6911 2.88672L30.1035 3.09291L29.8973 4.33002L28.8663 4.53621L28.6602 3.50528L29.4849 3.29909L29.6911 2.88672Z" fill="#67666A"/>
<path d="M39.5865 1.03125H40.205V1.64981L39.5865 1.856V2.68074L38.7617 2.47456V1.44362L39.5865 1.03125Z" fill="#605E62"/>
<path d="M23.0938 0.412109H27.2175V0.618296L24.7432 1.03067V0.618296H24.3309V1.03067H23.9185V0.618296L23.0938 0.824482V0.412109Z" fill="#A39FA5"/>
<path d="M8.86719 45.7734L9.27956 45.9796L9.48575 47.8353H9.07337L9.27956 48.8662H8.86719V45.7734Z" fill="#6A696C"/>
<path d="M7.21537 30.7227L7.83393 31.3412L7.62774 32.3721H7.21537L7.00918 32.7845H6.59681L6.803 32.166L6.39062 31.9598L6.59681 31.3412H7.00918L7.21537 30.7227Z" fill="#6E6C70"/>
<path d="M181.652 16.082H183.92L183.508 16.9068L182.889 17.113V16.7006L182.477 16.4944L182.683 17.113H182.271V16.4944L181.652 16.2882V16.082Z" fill="#6E6C70"/>
<path d="M43.0929 6.18555H43.5053L44.1238 7.21648L43.9177 7.83504L42.8867 7.42267V6.39173L43.0929 6.18555Z" fill="#69676B"/>
<path d="M69.2779 4.12305L69.8964 4.53542V5.56635H68.8655V4.74161H68.4531V4.32923L69.2779 4.12305Z" fill="#79777C"/>
<path d="M33.8164 45.9805L34.435 46.1867L34.6412 47.4238L34.435 48.4547L34.0226 48.0423L33.8164 45.9805Z" fill="#6C6A6E"/>
<path d="M210.516 17.5273L211.753 17.7335V20.0016H211.547V18.9706H211.134L210.722 17.9397L210.516 17.5273Z" fill="#69676B"/>
<path d="M179.381 16.4941L180 17.1127H180.824L180.618 18.1436L179.381 17.5251L178.969 16.9065H179.381V16.4941Z" fill="#7B797E"/>
<path d="M206.807 31.959L208.044 32.3714V32.7837L208.663 32.5775V33.1961L207.013 32.9899L206.395 32.3714H206.807V31.959Z" fill="#7B797E"/>
<path d="M198.764 19.5879H199.382L199.589 21.2374H199.176V20.6188L198.558 20.825L198.352 20.4126L198.764 19.5879Z" fill="#6B696D"/>
<path d="M50.1007 6.59766H50.5131V7.21622H51.1316V7.83477H49.8945V6.80384L50.1007 6.59766ZM50.9255 6.59766H51.3378V7.01003H50.9255V6.59766Z" fill="#605F62"/>
<path d="M25.9779 0.824219L26.5965 1.23659L26.3903 2.06134L25.5656 2.26752L25.3594 1.44278L25.9779 0.824219Z" fill="#5E5D61"/>
<path d="M26.1827 43.5059L26.5951 43.712V45.9801L26.1827 46.1863L25.9766 44.3306L26.1827 43.5059Z" fill="#868489"/>
<path d="M178.349 36.4961L178.761 36.9085L178.555 37.7332L178.968 37.9394H178.555V38.3518L177.937 38.1456L177.73 37.1147L178.349 36.4961Z" fill="#7A787D"/>
<path d="M67.0078 18.5566H67.6264L67.8326 18.7628L68.4511 18.5566V19.1752L69.0697 19.3814L67.214 19.5876L67.0078 18.5566Z" fill="#3F3F42"/>
<path d="M190.926 15.6699L191.751 16.0823L191.957 16.907H191.544V17.3194H191.132L190.926 17.7318V15.6699Z" fill="#6A686C"/>
<path d="M0.824219 0.824219H2.06134V1.23659H2.47371L2.26752 1.85515L0.824219 1.44278V0.824219Z" fill="#6E6C71"/>
<path d="M133.816 57.9395H134.434V59.7951L133.609 59.5889H134.022L133.609 58.1456L133.816 57.9395Z" fill="#88868B"/>
<path d="M13.1958 48.6602H13.8144L14.0206 49.6911H12.3711L12.5773 48.8663L12.9897 49.2787L13.1958 48.6602Z" fill="#3F3F42"/>
<path d="M27.6289 45.7734L28.4537 46.1858L28.2475 47.6291L27.6289 47.4229V45.7734Z" fill="#5A595D"/>
<path d="M33.6094 43.7109L33.8156 44.3295H34.2279V43.9171H34.8465L34.6403 44.9481H33.8156L33.6094 44.7419V43.7109Z" fill="#6E6C70"/>
<path d="M180.618 25.7734L180.824 26.5982L181.649 26.8044L180.412 27.2167L179.793 27.0106V26.5982H180.412L180.618 25.7734Z" fill="#7B797E"/>
<path d="M187.01 16.4941L187.629 16.7003L187.216 18.556L186.804 18.3498L186.598 17.3189H187.01V16.4941Z" fill="#6F6D71"/>
<path d="M180.207 15.2578H181.238V15.6702L182.063 15.464L182.269 16.0826H180.619L180.207 15.2578Z" fill="#817E84"/>
<path d="M62.6797 8.04102H63.0921L63.5044 9.69051L63.2982 10.7214L62.8859 11.1338L62.6797 8.04102Z" fill="#3F3F42"/>
<path d="M18.3482 5.56836H18.7606V7.21785L18.3482 7.42404L18.142 6.18692L18.3482 5.56836ZM17.7296 7.63022L18.142 7.83641L17.7296 8.45497L17.5234 7.83641L17.7296 7.63022Z" fill="#8B898E"/>
<path d="M16.9093 4.12305L17.3217 4.94779V6.59728L17.5279 7.42203L16.9093 7.00966L16.7031 5.15398L16.9093 4.12305Z" fill="#6A686C"/>
<path d="M11.339 4.33008L11.7514 4.53626V5.5672L12.1637 5.77338L11.9576 6.39194H11.339L11.1328 4.53626L11.339 4.33008Z" fill="#706E72"/>
<path d="M63.0898 2.47461L64.327 3.09317L64.1208 3.91791H63.9146H63.296L63.0898 2.47461Z" fill="#6E6C70"/>
<path d="M28.2466 0.207031H29.0714L28.8652 1.65034H28.4528L28.2466 1.03178L27.8342 0.825591L27.6281 1.23796L27.4219 0.413218L28.2466 0.207031Z" fill="#8C8A8F"/>
</svg>
