<svg width="300" height="93" viewBox="0 0 300 93" fill="none" xmlns="http://www.w3.org/2000/svg">
<path d="M5.92188 47.0664L6.52916 47.2182L8.1992 48.7364L10.0211 49.7992L11.6911 50.2547H18.5231L21.5595 50.5583L24.4441 51.3174L26.4178 52.0765L28.2397 53.1393L29.9097 54.5057L31.4279 56.3275L32.3389 57.8458L32.9462 59.5158L33.2498 61.9449L33.098 64.3741L32.4907 66.8032L31.2761 69.0806L30.2134 70.447L28.6952 71.8134L26.266 73.1798L23.9887 73.7871L22.7741 73.9389H20.4968L18.2194 73.6352L16.3976 73.0279L14.5757 71.8134L12.7539 70.2951L11.3875 68.6251L10.0211 66.4996L8.80649 64.2223L7.59192 61.034L6.52916 56.6312L6.0737 53.4429L5.92188 51.3174V47.0664Z" fill="#FEFEFE"/>
<path d="M17.3062 18.3691H19.128L21.5572 18.6728L23.379 19.4319L25.2009 20.4946L27.0228 22.1647L28.2373 23.5311L29.6037 25.6566L30.8183 28.0857L32.0329 31.1222L32.9438 34.3104L33.3993 38.106L33.7029 40.9906V45.2416L32.792 44.6343L31.122 43.2679L28.8446 42.357L27.3264 42.0533H22.0127L18.2171 41.7497L15.0288 40.9906L13.207 40.2315L11.3851 39.1687L9.41144 37.3469L8.19686 35.8287L6.98229 33.3995L6.52682 31.4258L6.375 29.3003L6.67864 27.3266L7.43775 24.8975L8.34868 23.3793L9.71508 21.861L11.0815 20.4946L13.207 19.2801L14.877 18.6728L17.3062 18.3691Z" fill="#FEFEFE"/>
<path d="M17.4595 0H21.8623L23.2287 0.455466L26.417 1.21457L28.6943 2.12551L31.2753 3.64372L32.7935 4.8583L34.3117 6.2247L35.9818 8.3502L37.1964 10.3239L38.4109 12.753L39.17 15.0304L39.3219 15.7895L39.4737 25.6579V52.834L39.3219 76.8219L38.7146 78.9474L37.5 81.3765L36.4372 83.0466L35.2227 84.5648L33.8563 86.083L32.7935 87.1458L30.5162 88.8158L28.3907 90.0304L26.1134 90.9413L24.1397 91.7004L23.5324 92.1559H15.6377L13.3603 91.2449L9.86842 89.5749L8.19838 88.5121L6.2247 86.8421L4.55466 85.0202L3.03644 82.7429L1.51822 80.1619L0.607287 77.8846L0 75.7591V17.7632L0.303644 15.334L1.06275 12.9049L2.58097 9.7166L3.94737 7.74292L5.76923 5.61741L7.59109 4.09919L10.3239 2.42915L12.753 1.3664L17.1559 0.151822L17.4595 0ZM17.915 1.82186L15.0304 2.27733L12.6012 3.03644L10.3239 4.25101L8.50202 5.46559L6.52834 7.28745L4.8583 9.41296L3.64372 11.5385L2.58097 13.8158L1.97368 16.2449L1.82186 17.3077L1.97368 76.3664L3.03644 79.251L4.55466 82.1356L6.07287 84.2611L7.43927 85.7794L8.95749 87.1458L10.9312 88.3603L13.0567 89.4231L16.8522 90.6377L17.6113 90.7895H21.1032L23.836 90.1822L26.417 89.2713L29.3016 87.753L31.4271 86.2348L32.9453 84.8684L34.4636 82.8947L35.83 80.7692L37.1964 77.8846L37.6518 76.5182L37.8036 75.6073L37.9555 72.7227V26.7206L37.8036 16.7004L37.3482 14.8785L36.4372 12.4494L34.919 9.7166L33.249 7.59109L32.4899 6.68016L30.5162 5.16194L27.7834 3.4919L25.3542 2.58097L22.3178 1.97368L20.9514 1.82186H17.915Z" fill="#121081"/>
<path d="M177.328 29.3008H188.867L190.385 29.6044L192.814 30.3635L194.484 31.2745L195.547 32.3372L196.61 34.0073L197.217 35.8291V37.8028L196.61 39.9283L195.699 41.4465L195.092 42.2056L193.573 43.1166L191.296 44.0275L188.867 44.3311H186.741L184.464 44.0275V53.7441L184.768 54.3514L185.982 54.9587L187.956 55.4141L188.26 55.7178L188.108 56.4769L187.804 56.6287H177.328L176.417 56.3251L176.569 55.566L177.936 55.1105L179.454 54.655L180.213 53.8959L180.365 53.2886V32.6409L180.061 31.5781L178.998 31.1226L176.569 30.5154L176.266 29.7562L176.569 29.4526L177.328 29.3008Z" fill="#282A9B"/>
<path d="M263.259 37.957H264.625L265.992 38.4125L266.751 39.1716L267.814 40.3862L268.573 42.0562L270.091 40.0825L271.761 38.868L273.583 37.957H275.708L277.227 38.5643L278.441 39.7789L279.2 40.9935L279.656 42.3599L279.808 43.4226V52.5319L279.959 53.8983L281.022 55.1129L282.389 56.1757V56.4793L282.085 56.6311H273.735L273.431 56.4793V55.7202L274.342 55.1129L275.253 54.6574L275.86 53.7465L276.012 53.291V43.4226L275.708 42.0562L274.797 40.8416L274.19 40.538H272.217L270.698 41.4489L269.028 42.8153L268.876 42.9672V53.5947L269.18 54.3538L270.395 55.2647L271.154 55.7202L271.457 56.4793L270.698 56.7829H265.233L262.652 56.6311L262.348 56.0238L263.107 55.2647L264.474 54.6574L264.929 53.7465L265.081 52.5319V43.7263L264.777 42.3599L263.866 41.1453L262.804 40.538H261.285L259.463 41.6008L257.945 42.9672L257.793 43.2708V52.6838L258.401 54.6574L259.463 55.2647L260.071 55.4165L260.374 56.0238V56.6311L259.919 56.7829H255.212L251.569 56.6311L251.265 56.4793L251.417 55.872L252.935 54.8093L253.694 54.0501L253.998 53.291L254.15 52.3801V43.7263L253.998 41.9044L251.872 41.7526L251.113 41.4489L251.417 41.2971L251.721 40.538L252.935 39.6271L255.212 38.7161L256.275 38.1089H257.49L257.793 38.4125L257.642 39.4752L257.338 41.7526L258.856 40.538L260.526 39.1716L262.348 38.1089L263.259 37.957Z" fill="#282B9B"/>
<path d="M203.898 28.0859L204.657 28.2378L204.809 28.5414V40.0799L204.657 41.7499L206.934 39.4726L208.149 38.5616L209.97 37.9544H211.489L213.007 38.5616L214.07 39.6244L214.981 41.4463L215.132 42.2054L215.284 44.7863L215.436 54.1993L217.865 55.5657L218.169 55.8693V56.4766L217.713 56.6284H209.97L209.06 56.3248L209.363 55.5657L211.185 54.6548L211.641 53.8957L211.792 52.9847L211.641 44.1791L211.337 42.0535L210.578 40.9908L209.667 40.5353H208.3L207.086 41.1426L205.568 42.3572L204.809 43.2681V53.592L205.112 54.3511L205.871 54.9584L207.238 55.7175L207.39 56.4766L207.086 56.6284H199.039L198.432 56.4766L198.584 55.7175L200.102 54.8066L200.709 54.3511L200.861 53.8957V32.0333L198.887 31.8815L198.128 31.5778L197.977 31.2742L198.584 30.6669L200.861 29.4523L203.29 28.2378L203.898 28.0859Z" fill="#282A9B"/>
<path d="M150.91 28.0859H151.517L151.669 28.9969L151.821 41.7499L153.187 40.2317L155.313 38.5616L156.224 38.1062L157.135 37.9544H158.349L159.867 38.4098L160.626 39.0171L161.689 40.5353L162.145 41.5981L162.296 42.6608L162.448 53.2884L162.752 54.3511L165.181 55.8693L165.333 56.3248L164.726 56.6284H156.679L156.224 56.173L156.527 55.4139L158.197 54.8066L158.653 54.6548L158.805 53.4402V44.4827L158.501 42.0535L157.894 41.1426L156.983 40.5353H155.465L153.946 41.2944L151.973 42.9645L151.821 43.1163L151.669 49.9483V53.4402L151.973 54.1993L153.187 54.9584L154.098 55.5657L154.554 56.0212L154.25 56.6284H147.418L145.748 56.4766L145.596 55.8693L146.355 55.2621L147.57 54.6548L147.873 54.1993L148.025 53.2884V31.8815H146.203L145.141 31.7297V31.1224L146.659 30.0596L150.91 28.0859Z" fill="#272A9A"/>
<path d="M17.4595 0H21.8623L23.2287 0.455466L26.417 1.21457L28.6943 2.12551L31.2753 3.64372L32.7935 4.8583L34.3117 6.2247L34.1599 6.52834L32.4899 6.07287L31.8826 5.76923H31.1235L28.8462 4.25101L26.7206 3.18826L24.747 2.58097L22.3178 2.12551L20.9514 1.97368H17.915L15.0304 2.42915L12.6012 3.18826L10.3239 4.40283L8.50202 5.61741L6.52834 7.43927L5.01012 9.41295L3.79555 11.5385L2.73279 13.8158L2.12551 16.2449L1.97368 17.3077L2.12551 76.3664L2.88462 78.4919L2.73279 78.9474L2.12551 78.3401L1.82186 76.8219L1.67004 76.2146H0.910931L1.06275 77.8846L0.759109 78.3401L0 75.7591V17.7632L0.303644 15.334L1.06275 12.9049L2.58097 9.7166L3.94737 7.74291L5.76923 5.61741L7.59109 4.09919L10.3239 2.42915L12.753 1.3664L17.1559 0.151822L17.4595 0Z" fill="#292C9C"/>
<path d="M51.3153 29.3008H52.8335L54.959 29.7562L57.9955 30.819L58.7546 30.6672L59.5137 29.7562L59.9692 29.6044L60.2728 30.3635V37.1955L60.121 38.7137L59.9692 39.0174H59.2101L59.0582 38.7137L58.9064 36.1328L58.4509 34.6145L57.54 33.0963L56.4773 32.1854L54.6554 31.2745L53.1372 30.819H51.3153L49.7971 31.4263L48.4307 32.489L47.8234 33.5518V35.5255L48.2789 36.7401L48.8862 37.4992L51.0117 39.0174L55.1109 41.2947L58.4509 43.2684L60.4246 44.9384L61.4874 46.4567L62.0947 47.9749L62.2465 49.3413L61.791 51.4668L61.1837 52.6813L59.0582 54.8069L57.2364 55.8696L55.5663 56.4769L54.8072 56.6287H51.4671L48.4307 55.8696L46.457 54.8069H46.0015L45.0906 56.4769L44.3315 56.6287L44.1797 56.3251L44.3315 54.3514V46.7603L44.787 46.6085L45.2424 47.2158L45.6979 49.7967L46.457 51.6186L47.0643 52.5295L48.4307 53.7441L50.708 54.8069L52.0744 55.1105H54.6554L56.0218 54.5032L57.2364 53.5923L58.1473 52.3777L58.4509 51.4668V49.9486L57.8437 48.734L56.6291 47.3676L53.7445 45.5457L49.3416 43.1166L47.3679 41.7502L45.8497 40.3838L44.787 39.0174L44.1797 37.651V35.07L44.787 33.5518L45.6979 32.1854L47.3679 30.6672L49.4935 29.6044L51.3153 29.3008Z" fill="#282A9A"/>
<path d="M226.669 37.8027H228.34L230.161 38.1064L231.528 38.7137L232.439 39.321L233.198 40.2319L233.653 41.4465L233.805 53.5922L233.957 53.744H235.172L236.842 52.9849H237.145L236.842 53.744L235.172 55.5659L233.653 56.4768L233.198 56.6286H231.528L230.769 55.8695L230.161 54.0477V53.744L228.795 54.5031L227.277 55.7177L225.759 56.4768L225.151 56.6286H223.937L222.57 56.1732L221.659 55.4141L220.597 53.744L220.293 52.8331V50.5558L220.9 49.3412L221.811 48.2784L223.633 46.912L227.125 45.242L229.554 44.1793L230.01 43.8756V42.2056L229.554 40.6873L228.795 39.7764L227.884 39.4728H226.062L224.999 40.0801L224.544 40.8392L224.089 43.4201L223.481 44.1793H221.963L221.204 43.2683L221.052 42.2056L221.508 40.8392L222.418 39.6246L224.392 38.41L225.607 37.9546L226.669 37.8027Z" fill="#282A9A"/>
<path d="M289.676 37.8027L292.257 37.9546L293.775 38.41L295.142 39.321L296.053 40.6873L296.356 41.9019L296.508 54.0477L298.33 53.5922L299.393 52.9849L300 53.1367L298.937 54.5031L297.875 55.5659L295.749 56.6286H294.535L293.775 56.1732L292.713 54.0477L291.954 54.1995L289.98 55.7177L288.614 56.4768L288.006 56.6286H286.184L285.122 56.0214L283.907 54.655L283.148 53.1367L282.996 52.5295V50.7076L283.755 49.1894L284.362 48.4303L285.881 47.2157L288.765 45.6975L291.954 44.3311L292.713 43.8756L292.865 42.8129L292.409 40.991L291.65 39.9282L290.587 39.4728H288.765L288.006 39.9282L287.399 40.6873L286.792 43.4201L286.488 44.0274L286.184 44.1793H284.818L283.907 43.4201L283.755 42.2056L284.362 40.6873L285.425 39.4728L286.943 38.5618L288.462 37.9546L289.676 37.8027Z" fill="#282A9B"/>
<path d="M117.204 37.957H120.392L121.911 38.4125L123.429 39.3234L124.643 40.538L125.858 42.8153L126.313 44.3335V45.2445L126.162 45.3963L122.67 45.5481H115.079L113.56 45.3963L114.016 47.5218L114.775 49.4955L115.99 51.1655L117.66 52.2283L118.722 52.6838L119.481 52.8356H121.911L123.277 52.3801L124.34 51.4692L125.858 49.1918L126.465 49.04L126.617 49.7991L125.858 51.7728L124.795 53.4429L122.973 55.2647L120.848 56.3275L120.241 56.4793H117.204L115.382 55.7202L114.016 54.8093L112.346 53.1392L111.131 51.0137L110.676 49.04V46.1554L110.979 44.4854L111.89 42.208L113.257 40.3862L114.775 39.0198L116.597 38.1089L117.204 37.957Z" fill="#282A9B"/>
<path d="M16.2455 16.8535H20.1929L22.4702 17.309L24.8993 18.3717L26.873 19.7381L27.9358 20.6491L29.3022 22.3191L30.8204 24.4446L32.6423 27.9365L33.4014 30.062L34.3123 33.5539L34.9196 38.4122L35.2232 41.4487V43.8778L34.9196 46.307L34.7678 48.5843L32.3386 46.1551L30.6686 45.0924L28.5431 44.0296L27.1767 43.5742L18.9783 43.4223L16.0937 42.9669L13.8163 42.2078L11.2354 40.9932L8.80622 39.1713L7.288 37.6531L6.22525 35.9831L5.31432 34.0094L4.70703 31.8839V27.9365L5.31432 25.5074L6.22525 23.3819L7.59165 21.4082L9.41351 19.5863L11.6908 18.0681L13.5127 17.309L14.8791 17.0053L16.2455 16.8535ZM17.3082 18.3717L14.8791 18.6754L12.9054 19.4345L11.0835 20.4972L8.6544 22.9264L7.43982 24.9001L6.68072 27.3292L6.37707 29.3029L6.52889 31.4284L7.13618 33.8576L8.19893 35.8312L9.56533 37.5013L10.6281 38.564L12.6018 39.9304L14.5755 40.8414L17.3082 41.6005L19.5856 41.9041L22.9257 42.0559H27.3285L29.7576 42.6632L31.5795 43.5742L33.0977 44.9406L33.705 45.2442V40.9932L33.0977 35.224L32.3386 32.0357L31.2759 29.1511L30.0613 26.4183L28.5431 23.9891L27.4803 22.6227L25.8103 20.9527L23.6848 19.5863L22.0147 18.8272L20.8001 18.5236L19.1301 18.3717H17.3082Z" fill="#282A9A"/>
<path d="M4.85885 43.877L5.46614 44.1806L7.43982 46.1543L9.56533 47.5207L11.539 48.4316L13.6645 48.8871H19.7374L22.622 49.1907L25.5066 49.9498L27.3285 50.7089L29.454 51.9235L31.124 53.2899L32.1868 54.3527L33.705 56.7818L34.6159 59.0591L35.0714 61.1846V63.1583L34.6159 66.0429L33.8568 68.0166L32.7941 69.9903L31.124 71.964L29.454 73.3304L27.6321 74.3931L25.6584 75.0004L22.7738 75.4559L21.5593 75.9114L21.1038 75.6077L17.0046 74.8486L15.1827 74.0895L13.5127 73.0268L11.6908 71.3567L10.3244 69.8385L8.6544 67.4093L7.43982 65.2838L6.22525 62.0956L5.31432 58.3L4.85885 55.7191L4.70703 54.2008V44.3324L4.85885 43.877ZM5.92161 47.0652V51.3162L6.22525 54.8081L6.98436 58.6037L7.74347 61.4883L8.95804 64.5247L10.6281 67.5612L11.9945 69.383L13.2091 70.7494L15.1827 72.2676L16.701 73.1786L18.8265 73.7859L20.4965 73.9377H22.7738L25.3548 73.4822L27.1767 72.7231L28.8467 71.6604L30.3649 70.294L31.5795 68.6239L32.6423 66.3466L33.0977 64.3729L33.2495 61.9438L32.9459 59.5146L32.1868 57.5409L30.8204 55.5672L29.454 54.049L27.3285 52.5308L25.3548 51.6199L22.3184 50.7089L20.4965 50.4053L18.5228 50.2535H11.6908L9.71715 49.6462L8.04711 48.5834L6.37707 47.0652H5.92161Z" fill="#110F7F"/>
<path d="M95.4984 28.0859H98.383L99.7494 28.5414L101.419 29.756L102.33 30.9706L102.482 31.7297L101.571 32.9442L101.268 33.0961H100.205L99.2939 32.3369L97.9275 30.6669L96.5611 29.6042L96.2575 29.4523H95.1947L93.9802 30.6669L93.5247 31.426L93.3729 32.1851L93.221 37.8025L96.5611 37.9544L98.0793 38.258L97.9275 38.8653L97.3202 39.3208L93.3729 39.4726V53.7438L93.6765 54.5029L95.0429 54.9584L96.8648 55.2621L97.1684 55.4139V56.6284H86.5409L85.9336 56.173L86.0854 55.5657L86.8445 55.2621L88.6664 54.8066L89.4255 54.0475L89.5773 53.4402V39.4726L86.9963 39.3208L86.0854 39.0171L85.9336 38.4098L86.6927 38.1062L89.7291 37.9544V36.2843L90.0328 34.007L90.7919 32.1851L91.8546 30.5151L93.3729 29.1487L94.5874 28.3896L95.4984 28.0859Z" fill="#282A9B"/>
<path d="M72.2692 39.3223H74.3948L75.6093 39.7777L76.9757 40.9923L78.0385 42.6623L78.6458 44.3324L78.9494 46.3061V50.8607L78.4939 52.5308L77.7348 53.7453L76.6721 54.8081L75.6093 55.2636H74.0911L72.7247 54.8081L71.2065 53.5935L70.1437 52.0753L69.3846 50.4053L68.9292 48.4316L68.7773 47.0652V44.7879L69.081 42.8142L69.9919 40.9923L71.0547 39.9296L72.2692 39.3223Z" fill="#FEFEFE"/>
<path d="M72.269 37.957H75.4572L77.4309 38.5643L79.2528 39.6271L80.4673 40.8416L81.8337 42.9672L82.5928 44.9408L82.8965 46.3072V47.6736L82.2892 50.2546L81.0746 52.5319L79.7082 54.202L78.19 55.4165L75.9127 56.4793L75.3054 56.6311H72.269L70.5989 56.0238L68.9289 54.9611L67.7143 53.8983L66.3479 52.0765L65.5888 50.4064L65.2852 49.04V46.4591L65.8924 43.8781L67.107 41.4489L68.3216 40.0825L69.9916 38.868L71.6617 38.1089L72.269 37.957ZM72.269 39.3234L71.0544 39.9307L69.9916 40.9935L69.0807 42.8153L68.7771 44.789V47.0663L69.0807 49.1918L69.688 51.1655L70.5989 52.8356L71.6617 54.0501L73.0281 54.9611L74.0908 55.2647H75.609L76.8236 54.6574L78.0382 53.4429L78.6455 52.2283L78.9491 50.8619V46.3072L78.4937 43.8781L77.8864 42.3599L76.6718 40.6898L75.609 39.7789L74.3945 39.3234H72.269Z" fill="#282A9A"/>
<path d="M136.031 37.957H139.067L140.737 38.5643L142.255 39.6271L143.318 40.6898L143.925 42.0562L143.774 43.2708L143.166 44.0299L142.559 44.1817L141.193 44.0299L140.282 42.9672L139.674 40.6898L138.915 39.7789L138.156 39.4752H136.031L134.816 40.0825L133.905 40.8416L132.994 42.3599L132.539 44.1817V46.3072L132.994 48.5846L133.905 50.4064L134.816 51.4692L136.334 52.5319L137.701 52.8356H140.282L141.648 52.3801L142.711 51.4692L144.229 49.1918H144.836V50.2546L143.622 52.6838L142.559 54.0501L141.193 55.2647L139.371 56.1757L138.612 56.4793H135.575L133.602 55.7202L131.931 54.5056L130.413 52.6838L129.502 50.7101L129.047 48.4327V46.0036L129.502 44.1817L130.717 41.7526L132.235 40.0825L134.361 38.5643L136.031 37.957Z" fill="#27299A"/>
<path d="M105.061 32.0352L105.364 32.3388L105.061 34.7679L104.909 37.8044L108.097 37.9562L109.16 38.108L109.463 38.7153L109.16 39.1708L108.401 39.3226H105.212L105.061 40.2335L105.212 53.1384L105.82 53.8975H107.034L108.249 53.2902L108.704 52.8348H109.463L109.615 53.2902L109.008 54.2011L107.793 55.4157L105.972 56.4785L105.364 56.6303H104.302L103.087 56.023L102.024 54.8084L101.569 53.7457L101.417 52.8348V40.8408L101.569 39.3226H100.051L98.9878 39.1708L98.8359 38.7153H99.1396L99.4432 38.108L101.113 36.8935L102.176 35.8307L104.15 32.9461L104.757 32.187L105.061 32.0352Z" fill="#282A9B"/>
<path d="M242.762 37.957H243.521L243.825 38.2607V40.0825L243.673 41.6008L244.736 40.6898L245.343 39.9307L246.102 39.1716L247.165 38.2607L248.076 37.957L249.29 38.1089L250.353 38.5643L250.808 39.1716L250.96 39.6271V40.9935V41.4489L250.201 41.7526H248.379L247.924 41.2971L247.468 40.3862L246.406 40.538L245.647 41.2971L243.977 43.119V51.9246L244.28 53.8983L244.736 54.8093L245.191 55.1129L247.013 55.2647L247.317 55.872L247.165 56.4793L246.709 56.7829H242.458L238.511 56.6311L237.752 56.4793L238.055 55.7202L239.574 54.6574L240.181 53.4429L240.333 52.2283V41.9044L237.6 41.7526L237.145 41.4489L237.448 40.8416L238.966 39.9307L241.396 38.7161L242.762 37.957Z" fill="#282A9B"/>
<path d="M184.616 30.8203H188.26L189.93 31.4276L191.144 32.3385L192.055 33.7049L192.663 35.6786V38.2596L192.207 39.7778L191.448 41.1442L190.385 42.207L188.867 42.9661H186.59L184.616 42.8142L184.312 42.6624V31.124L184.616 30.8203Z" fill="#FEFEFE"/>
<path d="M273.581 37.957H275.706L277.225 38.5643L278.439 39.7789L279.198 40.9935L279.654 42.3599L279.806 43.4226V52.5319L279.957 53.8983L281.02 55.1129L282.387 56.1757V56.4793L282.083 56.6311H273.733L273.429 56.4793V55.7202L274.34 55.1129L275.251 54.6574L275.858 53.7465L276.01 53.291V43.4226L275.706 42.0562L274.796 40.8416L274.188 40.538H272.215L270.696 41.4489L269.937 41.7526L269.33 41.9044L268.723 42.208L269.026 41.4489L270.241 39.9307L271.759 38.868L273.581 37.957Z" fill="#282B9B"/>
<path d="M23.3783 49.4941L24.5929 49.646L27.0221 50.5569L29.4512 51.9233L31.1213 53.2897L32.184 54.3524L33.7022 56.7816L34.6132 59.0589L35.0686 61.1844V63.1581L34.6132 66.0427L33.854 68.0164L32.7913 69.9901L31.1213 71.9638L29.4512 73.3302L27.6293 74.3929L25.6557 75.0002L22.771 75.4557L21.5565 75.9111L21.101 75.6075L18.52 75.152V74.8484L19.1273 74.5447L17.9127 74.2411L16.5464 73.6338L16.3945 73.3302L16.6982 73.0265L18.8237 73.6338L20.4937 73.7856H22.771L25.352 73.3302L27.1739 72.5711L28.8439 71.5083L30.3621 70.1419L31.7285 68.0164L32.4876 66.3464L32.9431 64.3727L33.0949 61.9435L32.7913 59.5144L32.0322 57.5407L30.6658 55.567L29.4512 54.2006L27.3257 52.6824L25.352 51.7715L23.9856 51.316L24.2893 51.0124L22.1638 50.2532L22.4674 50.1014L22.6192 49.646L23.3783 49.4941Z" fill="#110E7F"/>
<path d="M256.275 38.1074H257.49L257.642 38.5629L257.338 39.322L257.186 40.2329V41.7511L257.338 42.2066H257.642V42.9657L257.186 43.1175L256.883 42.9657L256.731 43.573V47.5204L256.883 49.1904L257.034 50.1013H257.49L257.642 52.2269L258.401 54.656L259.463 55.2633L260.071 55.4151L260.374 56.0224V56.6297L259.919 56.7815H255.212L251.569 56.6297L251.265 56.4779L251.417 55.8706L252.935 54.8078L253.694 54.0487L253.998 53.2896L254.15 52.3787V43.7248L253.998 41.903L251.872 41.7511L251.113 41.4475L251.417 41.2957L251.721 40.5366L252.935 39.6256L255.212 38.7147L256.275 38.1074Z" fill="#282B9B"/>
<path d="M32.7902 30.0625H33.0939L33.5493 30.518L34.3084 33.5544L34.9157 38.4127L35.2194 41.4491V43.8783L34.9157 46.3074L34.7639 48.5848L32.3347 46.1556L30.6647 45.0929L28.5392 44.0301L27.1728 43.5746L18.9744 43.4228L16.0898 42.9674L13.8125 42.2082L12.4461 41.601L11.9906 40.3864L11.5352 39.9309L11.687 39.4755L13.2052 40.0827L15.0271 40.8419L18.2153 41.601L22.0109 41.9046H27.3246L29.7538 42.5119L31.5756 43.4228L33.0939 44.7892L33.5493 45.0929V40.9937L32.942 35.2244L32.3347 32.6435L32.4866 30.9734L32.7902 30.0625Z" fill="#282A9B"/>
<path d="M0.761719 76.0625L1.67265 76.2143L2.12812 77.2771L2.27994 78.3398H2.58358L2.7354 78.9471H3.03905L4.70909 82.1354L6.22731 84.2609L7.5937 85.7791L8.9601 86.9937L10.9338 88.2082L13.0593 89.271L16.8548 90.4856L17.6139 90.6374H21.1058L23.8386 90.0301L25.6605 89.4228L26.2678 89.7265L26.116 89.8783L27.4824 89.7265L27.9378 89.271L29.0006 89.1192L29.1524 88.5119L29.7597 88.2082L30.6706 87.601L31.8852 86.9937L33.4034 85.7791L33.8589 85.9309L32.948 86.9937L30.9743 88.5119L28.3933 90.0301L26.116 90.941L24.1423 91.7002L23.535 92.1556H15.6403L13.3629 91.2447L9.87103 89.5746L8.20099 88.5119L6.22731 86.8419L4.55727 85.02L3.03905 82.7427L1.52083 80.1617L0.913541 78.7953V76.9734L0.761719 76.0625Z" fill="#282A9B"/>
<path d="M17.4624 0H21.8652L23.2316 0.455466L26.4199 1.21457L28.6972 2.12551L31.2782 3.64372L32.7964 4.8583L34.3146 6.2247L34.1628 6.52834L32.4928 6.07287L31.8855 5.76923H31.1264L28.849 4.25101L26.7235 3.18826L24.7498 2.58097L22.3207 2.12551L20.9543 1.97368H17.9179L15.0332 2.42915L12.6041 3.18826L10.3268 4.40283L8.5049 5.61741L6.53122 7.43927L5.013 9.41296L3.79842 11.5385L2.73567 13.8158L2.58385 13.5121L2.28021 13.3603L2.43203 12.753L1.97656 12.6012L2.12838 11.2348L2.58385 11.083L2.88749 10.3239L3.6466 9.41296L3.95025 8.50202L5.31664 6.98381H5.92393L6.07575 6.52834H6.3794L6.53122 6.2247L7.13851 5.92105L7.59397 5.16194L8.5049 4.40283L8.96037 3.64372L9.26401 3.03644L11.5413 1.82186L13.8187 1.06275L17.1587 0.151822L17.4624 0Z" fill="#282A9B"/>
<path d="M1.82213 16.3965H1.97395V76.3661L1.67031 76.0625L1.36667 75.1515L1.21484 73.026V18.522L1.51849 16.7001L1.82213 16.3965Z" fill="#3F45AF"/>
<path d="M11.6908 18.0664L12.2981 18.2182L11.9945 18.8255L10.6281 19.8883L9.10987 21.2547H8.80622L8.6544 21.862L8.04711 23.3802L7.43982 25.3539L6.68072 27.783L6.52889 29.9085L6.83254 32.1858L7.43982 34.1595L8.35076 35.8296L9.71715 37.4996L11.3872 39.0178L12.1463 39.4733L11.9945 39.7769L11.6908 39.6251V40.2324L12.1463 40.3842L12.6018 41.447L11.8427 41.2952L10.1726 40.2324L8.6544 39.0178L7.288 37.6514L6.22525 35.9814L5.31432 34.0077L4.70703 31.8822V27.9348L5.31432 25.5057L6.22525 23.3802L7.59165 21.4065L9.41351 19.5846L11.6908 18.0664Z" fill="#110F7F"/>
<path d="M229.403 45.5469H230.01V52.227L229.403 52.8343L226.973 54.0489L226.062 54.2007L224.848 53.5934L224.241 52.8343L223.785 51.6197V49.6461L224.848 48.2797L225.911 47.3687L229.403 45.5469Z" fill="#FEFEFE"/>
<path d="M292.258 45.5469L292.865 45.6987L292.713 52.227L292.106 52.8343L289.828 54.0489L288.766 54.2007L287.855 53.5934L286.792 52.3789L286.488 51.3161V49.6461L287.399 48.4315L288.462 47.5206L291.802 45.6987L292.258 45.5469Z" fill="#FEFEFE"/>
<path d="M117.054 39.3223H118.876L120.091 39.7777L121.002 40.5368L121.913 42.0551L122.216 43.1178V44.0287L120.85 44.1806H115.688L113.562 44.0287L113.866 42.6623L114.929 40.9923L116.143 39.7777L117.054 39.3223Z" fill="#FEFEFE"/>
<path d="M202.986 28.3906H203.593L203.441 52.8339L202.834 52.9858L202.53 52.6821L202.378 50.7084L202.227 46.9129V42.2064L202.378 32.9453V28.8461L202.986 28.3906Z" fill="#0D0A7B"/>
<path d="M0.761719 76.0625L1.67265 76.2143L2.12812 77.2771L2.27994 78.3398H2.58358L2.7354 78.9471H3.03905L4.70909 82.1354L6.22731 84.2609L7.5937 85.7791L8.9601 86.9937L10.1747 87.7528L10.0229 88.0564L9.11192 87.601L9.56739 88.3601L9.41557 89.1192L8.65646 88.8155L7.29006 87.7528L5.77184 86.3864L4.1018 84.4127L2.27994 81.5281L0.913541 78.7953V76.9734L0.761719 76.0625Z" fill="#110E7F"/>
<path d="M32.7953 30.0625H33.099L33.5544 30.518L34.3135 33.5544L34.9208 38.4127L35.2245 41.4491V43.8783L34.9208 46.3074L34.769 48.5848L34.4653 48.2811V46.1556L33.8581 45.5483L33.7062 45.2447L33.5544 40.9937L32.9471 35.2244L32.3398 32.6435L32.4917 30.9734L32.7953 30.0625Z" fill="#292B9B"/>
<path d="M105.063 32.0352L105.366 32.3388L105.063 34.7679L104.911 37.8044L108.099 37.9562L109.162 38.108L109.466 38.7153L109.162 39.1708L108.403 39.3226H105.215L105.063 40.2335L105.215 53.1384L105.518 53.7457H104.304L104.152 53.442V39.9299L104.304 39.019V38.4117L105.822 38.7153V38.4117L105.063 38.2599V37.9562H104.455V33.7052H104L104.607 32.3388L105.063 32.0352Z" fill="#3F45AF"/>
<path d="M23.6836 19.4336H24.8982L25.9609 19.8891L26.5682 20.6482L27.1755 20.8V21.1036L27.7828 21.4073H28.2382L28.8455 21.7109L30.5156 23.9882L31.7302 26.1138L33.0965 28.9984L33.4002 30.0611V30.8202L33.0965 30.3648V30.0611H32.7929L32.4893 32.1866L32.1856 32.0348L31.1229 29.1502L29.9083 26.4174L28.3901 23.9882L27.3273 22.6219L25.8091 21.1036L23.6836 19.7372V19.4336Z" fill="#110F7F"/>
<path d="M200.859 31.8828L201.922 32.0346L202.074 32.1865V38.7148L201.77 53.2897L201.315 54.2006H200.859V31.8828Z" fill="#3F45AF"/>
<path d="M203.897 28.0859L204.657 28.2378L204.808 28.5414V40.0799L204.657 42.0535L204.353 42.509H204.049L204.201 41.7499H203.897L203.746 41.2944L203.594 39.4726V29.4523L204.049 28.3896L203.897 28.0859Z" fill="#3F45AF"/>
<path d="M33.3999 85.7793L33.8554 85.9311L32.9444 86.9939L30.9707 88.5121L28.3898 90.0303L26.1124 90.9412L24.1388 91.7003L23.5315 92.1558H21.1023V91.5485H20.3432V91.2449L20.6469 91.0931L17.9141 90.9412V90.7894L21.1023 90.6376L23.8351 90.0303L25.657 89.423L26.2643 89.7267L26.1124 89.8785L27.4788 89.7267L27.9343 89.2712L28.9971 89.1194L29.1489 88.5121L29.7562 88.2084L30.6671 87.6012L31.8817 86.9939L33.3999 85.7793Z" fill="#292B9B"/>
<path d="M15.3349 48.8867H19.7377L22.6223 49.1904L23.3814 49.3422V49.6458L22.6223 49.7976L22.4705 50.2531L24.2924 50.8604L24.4442 51.164L22.926 51.0122L20.4968 50.5568L18.5231 50.4049L13.8167 50.2531L12.7539 49.6458L12.9057 49.0385L15.3349 48.8867Z" fill="#121081"/>
<path d="M23.3786 49.4941L24.5932 49.646L27.0224 50.5569L29.4515 51.9233L31.1216 53.2897L32.1843 54.3524L32.4879 54.9597L32.1843 55.2634L30.9697 54.6561L28.6924 52.986L27.7815 52.6824L27.0224 52.2269L26.1114 52.0751L23.9859 51.316L24.2896 51.0124L22.1641 50.2532L22.4677 50.1014L22.6195 49.646L23.3786 49.4941Z" fill="#282A9A"/>
<path d="M148.027 31.8828L148.938 32.1865V35.6784L148.634 53.4415L148.33 54.3524L147.875 54.5043L148.027 53.2897V31.8828Z" fill="#3F45AF"/>
<path d="M101.566 39.3223L102.173 39.6259L102.325 40.6887V50.5571L102.173 54.3526L101.87 54.5045L101.566 53.7453L101.414 52.8344V40.8405L101.566 39.3223Z" fill="#3F45AF"/>
<path d="M279.198 41.4473L279.501 41.9027L279.805 43.4209V52.5303L279.957 53.8967L280.868 55.1112L280.26 54.8076L279.198 53.8967L278.894 53.2894L278.742 47.5201V43.2691L279.046 41.5991L279.198 41.4473Z" fill="#3F45AF"/>
<path d="M103.696 40.8398H103.848V51.9228L103.696 52.2265L102.937 51.9228L102.785 51.771V42.2062L103.241 41.2953L103.696 41.1435V40.8398Z" fill="#0D0A7B"/>
<path d="M211.488 42.207L212.247 42.6625L212.703 43.2698L212.855 44.1807V51.1645L212.703 52.9864L212.551 53.4418H211.944L211.792 53.7455L211.64 44.1807L211.488 42.207Z" fill="#3F45AF"/>
<path d="M257.641 38.4102L257.793 39.0174L257.489 40.3838L257.337 41.7502L258.704 40.8393L259.311 40.6875L260.222 40.9911L259.463 41.5984L257.945 42.9648L257.793 43.2685L257.641 52.2259H257.489V50.1004H257.034L256.73 49.1895L256.578 47.5195V43.5721L256.882 42.813L257.641 42.9648V42.2057L257.185 42.3575L257.034 41.7502V40.232L257.185 39.0174L257.641 38.4102Z" fill="#3E44AE"/>
<path d="M8.95776 3.1875H9.2614L8.95776 3.79479L8.50229 4.5539L7.43954 5.46483L6.98407 6.22394L6.07314 6.6794L5.92132 6.98305L5.16221 7.28669L4.09946 8.50126L3.79582 9.4122L3.49217 9.56402L3.18853 10.1713L2.58124 11.0822L2.2776 11.3859L2.12577 12.6005L2.42942 12.7523L2.58124 14.2705L2.12577 16.2442H1.67031V13.0559H1.21484L1.36667 12.145L3.03671 8.95673L4.55492 6.98305L6.07314 5.31301L8.04683 3.79479L8.95776 3.1875Z" fill="#121081"/>
<path d="M204.353 42.6621L204.961 42.9658L204.809 43.2694L204.657 53.5933L204.505 54.0487H204.202L203.746 53.2896V43.7249L204.05 42.9658L204.353 42.6621Z" fill="#3F45AF"/>
<path d="M292.714 45.2441L293.473 45.5478L293.928 46.6105V49.7988L293.473 52.9871L293.625 53.4425L293.473 53.898L292.866 54.3535L292.41 53.7462L292.714 52.8352L292.562 52.2279L292.714 45.6996L292.41 45.396L292.714 45.2441Z" fill="#3F45AF"/>
<path d="M93.2182 37.8027L96.5583 37.9546L98.0765 38.2582L97.9247 38.8655L97.3174 39.321L93.37 39.4728L93.2182 52.9849H93.0664V39.0173H93.37L93.0664 37.9546L93.2182 37.8027Z" fill="#3F45AF"/>
<path d="M105.063 32.0352L105.366 32.3388L105.063 34.7679L104.911 37.8044L108.099 37.9562L109.162 38.108L109.466 38.7153L109.162 39.1708H105.215V39.019L106.277 38.8671V38.5635L105.366 38.4117L105.063 38.2599V37.9562H104.455V33.7052H104L104.607 32.3388L105.063 32.0352Z" fill="#3E44AE"/>
<path d="M151.366 28.998H151.67L151.822 42.2065L151.366 42.662V41.9029L151.214 41.7511L151.062 39.9292V30.6681L151.214 29.3017L151.366 28.998Z" fill="#3F45AF"/>
<path d="M16.5464 73.0254L18.8237 73.6327L22.4674 73.9363L22.771 74.24L20.9492 74.6954V74.8473L22.0119 74.9991L23.2265 74.6954H24.1374V74.8473L24.8966 74.9991V75.1509L22.771 75.4545L21.5565 75.91L21.101 75.6064L18.52 75.1509V74.8473L19.1273 74.5436L17.9127 74.24L16.5464 73.6327L16.3945 73.329L16.5464 73.0254Z" fill="#272999"/>
<path d="M32.9458 67.2578H33.2494L33.0976 68.4724L32.3385 69.2315L32.6421 70.1424L31.2757 71.8125L29.4539 73.3307L27.632 74.3934L26.2656 74.6971L26.4174 74.2416L27.632 73.4825L29.1502 72.7234L29.9093 72.1161H30.213L30.8203 70.9015L31.2757 69.8388L32.6421 67.5615L32.9458 67.2578Z" fill="#282A9B"/>
<path d="M9.71823 48.4316L11.0846 48.5835L11.5401 48.4316L13.6656 48.8871V49.0389H12.9065L12.7547 49.6462L13.6656 49.9499L13.8174 50.1017L16.0947 50.2535V50.4053H11.6919L9.71823 49.798L9.56641 48.7353L9.71823 48.4316Z" fill="#292B9B"/>
<path d="M4.70936 8.80664L5.013 9.41393L3.79842 11.5394L2.73567 13.8168L2.58385 13.5131L2.28021 13.3613L2.43203 12.754L1.97656 12.6022L2.12838 11.2358L2.58385 11.084L2.88749 10.3249L3.49478 9.56575L4.10207 9.26211L4.25389 8.95846L4.70936 8.80664Z" fill="#262798"/>
<path d="M229.858 45.2441L230.466 45.396V49.0397L230.314 51.9243L230.769 53.5943L231.225 55.4162L231.073 56.1753L230.769 55.8717L230.162 54.0498V53.7462H229.858L230.01 45.5478L229.555 45.396L229.858 45.2441Z" fill="#3F45AF"/>
<path d="M268.576 43.1172H268.727V53.2893H268.576V48.431H268.272L267.968 47.2164L267.816 45.6982V44.3318L268.272 43.269L268.576 43.1172Z" fill="#3F45AF"/>
<path d="M45.2422 49.1895H45.5458L46.3049 51.4668L47.2159 52.6814L48.4304 53.7441L49.4932 54.3514L49.1896 54.5032L48.5823 54.1996L46.4568 53.7441L46.0013 52.985V52.5295H45.6977L45.2422 50.5558V49.1895Z" fill="#121081"/>
<path d="M17.3081 90.791L21.1036 90.9428L20.6482 91.2465H20.3445V91.5501H21.1036V92.1574H17.1562L17.4599 91.7019H17.7635V91.0947L17.3081 90.791Z" fill="#0D0A7B"/>
<path d="M94.887 38.1074H97.7716L98.0752 38.2592L97.9234 38.8665L97.6198 39.1702H93.8242L94.1279 38.4111L94.887 38.1074Z" fill="#282B9B"/>
<path d="M139.98 40.6875L140.588 41.143L141.195 40.9911L141.499 41.2948L141.651 42.813H141.195V43.1166L141.651 43.2685L142.106 43.7239L142.561 44.0276H141.195L140.284 42.9648L139.98 41.9021V40.6875Z" fill="#100D7E"/>
<path d="M106.581 38.1074H109.162L109.466 38.7147L109.162 39.1702H105.215V39.0184L106.278 38.8665L106.581 38.1074Z" fill="#292B9C"/>
<path d="M1.97395 11.3867L2.2776 11.5385L2.12577 12.6013L2.42942 12.7531L2.58124 14.2713L2.12577 16.245H1.67031V13.0568H1.21484L1.36667 12.1458L1.67031 11.5385L1.97395 11.3867Z" fill="#110F80"/>
<path d="M240.488 42.0547L240.791 42.5102L240.943 44.4838L240.791 51.4676L240.488 53.4413H240.336L240.488 42.0547Z" fill="#3F45AF"/>
<path d="M61.6391 47.0664L61.9427 47.5219L62.2463 48.7364L62.0945 50.4065L61.6391 51.9247L61.3354 51.7729L61.1836 50.5583V49.1919L61.3354 48.4328H61.6391L61.4872 47.6737L61.6391 47.0664Z" fill="#3F45AF"/>
<path d="M17.9177 1.21484L21.5614 1.36667L22.9278 1.67031L23.0796 2.12577L20.9541 1.97395H16.7031L17.3104 1.36667L17.9177 1.21484Z" fill="#3F45AF"/>
<path d="M34.1591 43.2695H34.4628L34.9182 44.0286H35.07L34.7664 48.5833L34.4628 48.2797V46.1541L33.8555 45.5469L34.0073 43.4214L34.1591 43.2695Z" fill="#3F45AF"/>
<path d="M17.7656 41.752H19.5875L25.2049 42.0556V42.3592H18.9802L17.7656 41.9038V41.752Z" fill="#121081"/>
<path d="M4.85885 43.877L5.1625 44.0288V44.4842H4.85885L5.01067 47.9761L5.31432 47.6725L5.46614 48.5834L5.31432 49.6462L5.1625 49.9498H4.85885V54.2008H4.70703V44.3324L4.85885 43.877Z" fill="#2C2F9E"/>
<path d="M151.367 42.8145L151.822 42.9663L151.67 49.9501H151.518L151.215 46.0027V43.5736L151.367 42.8145Z" fill="#3F45AF"/>
<path d="M230.007 51.9238H230.311L230.766 53.5939L231.222 55.4157L231.07 56.1748L230.766 55.8712L230.159 54.0493V53.7457H229.855V52.2275L230.007 51.9238Z" fill="#3E44AE"/>
<path d="M126.166 49.0391H126.47L126.622 49.7982L126.318 50.7091L125.559 50.8609L124.952 51.4682L124.496 51.3164L125.559 49.6463L126.166 49.0391Z" fill="#3E44AE"/>
<path d="M203.289 28.2402H204.2L203.745 29.4548L203.593 39.4751H203.441V29.1512L203.593 28.3921L203.289 28.2402Z" fill="#27299A"/>
<path d="M0.304166 71.3574H0.455987L0.911453 74.5457V75.7603L0.304166 75.9121L0.152344 73.7866L0.304166 71.3574Z" fill="#0D0A7B"/>
<path d="M144.231 49.1895H144.839V50.2522L144.535 51.0113L143.32 51.1631L143.472 50.404L144.231 49.1895Z" fill="#3C41AC"/>
<path d="M57.8438 33.0977L58.451 33.2495L58.7547 33.0977L59.0583 33.2495L59.2101 33.7049V35.8304L58.7547 35.375L57.8438 33.5531V33.0977Z" fill="#110F80"/>
<path d="M140.284 52.834H141.346L141.498 53.1376H141.195V53.4413L139.98 53.7449L138.614 53.2894L137.551 53.1376V52.9858L140.284 52.834Z" fill="#0F0D7D"/>
<path d="M37.801 77.7324L38.1047 77.8842L37.9529 79.0988L37.4974 79.7061L37.6492 80.0097H37.3456L37.1937 80.4652L36.7383 80.617V80.0097L37.4974 78.0361L37.801 77.7324Z" fill="#27299A"/>
<path d="M299.39 52.9863L299.997 53.1381L298.934 54.5045L298.023 54.8082V53.7454L299.39 52.9863Z" fill="#3B41AC"/>
<path d="M236.842 52.9863H237.146L236.842 53.7454L236.083 54.6564L235.628 54.5045V54.2009L234.109 54.0491V53.8973L235.628 53.5936L236.842 52.9863Z" fill="#3E44AE"/>
<path d="M229.555 52.5312L229.859 52.6831L228.796 54.2013L228.189 54.3531L227.43 53.8976L228.037 53.4422L229.555 52.5312Z" fill="#3C42AD"/>
<path d="M82.4409 44.9395L82.7445 45.5467L82.8963 46.3058V47.6722L82.7445 48.5832L82.2891 48.1277V45.2431L82.4409 44.9395Z" fill="#3F45AF"/>
<path d="M8.95703 47.3691L9.86796 47.6728L11.2344 48.4319L11.0825 48.7355H10.3234L9.10885 48.1282L8.95703 47.3691Z" fill="#1C1C8C"/>
<path d="M4.70728 8.80664L5.01093 9.41393L4.25182 10.6285L3.64453 10.4767L3.79635 9.56575L4.25182 8.95846L4.70728 8.80664Z" fill="#131181"/>
<path d="M19.4336 0.607422H20.9518L22.47 0.759244L22.7737 1.36653L20.9518 1.21471L19.4336 0.759244V0.607422Z" fill="#3F45AF"/>
<path d="M23.232 74.6973H24.1429V74.8491L24.9021 75.0009V75.1527L22.4729 75.4564L21.4102 75.3046V75.0009L22.3211 74.8491L23.232 74.6973Z" fill="#3033A0"/>
<path d="M141.953 39.625L142.56 39.9286L143.471 40.9914L143.623 41.7505L142.864 41.295L141.953 39.9286V39.625Z" fill="#121080"/>
<path d="M34.769 60.4258H34.9208L35.0727 61.1849V63.1586L34.9208 64.3731L34.6172 63.9177V62.3995L34.769 60.4258Z" fill="#3033A2"/>
<path d="M222.573 39.7773L222.876 40.081L222.724 40.3846L223.484 40.081L222.573 41.9028L222.117 41.5992L222.269 40.9919L222.421 40.8401L222.117 40.6883L222.421 39.9292L222.573 39.7773Z" fill="#0D0A7B"/>
<path d="M32.9448 46.1543L33.7039 46.3061L34.1594 47.0652V47.6725L33.5521 47.3689L32.793 46.6098L32.9448 46.1543Z" fill="#121081"/>
<path d="M59.6672 30.3652L59.819 30.8207L59.6672 31.1243H59.3635L59.0599 31.8835H58.7562V31.428L58.3008 31.2762L58.4526 30.8207L59.2117 30.5171H59.5154L59.6672 30.3652Z" fill="#0E0B7C"/>
<path d="M87.6036 55.1113H88.0591L87.9073 55.5668L86.9963 55.8704L86.2372 56.1741H85.9336L86.0854 55.5668L86.8445 55.2631L87.6036 55.1113Z" fill="#3E44AE"/>
<path d="M47.2167 30.8203L47.8239 30.9721L47.5203 31.7312L47.0648 32.3385L46.6094 32.1867L46.7612 31.4276L47.2167 30.8203Z" fill="#0F0C7D"/>
<path d="M245.497 56.1758L246.256 56.4794L246.712 56.7831H242.461V56.6312L245.497 56.3276V56.1758Z" fill="#3F45AF"/>
<path d="M229.856 52.5312H230.008L229.856 53.8976L228.793 54.3531L229.097 53.594L229.856 52.5312Z" fill="#292B9C"/>
<path d="M1.82031 76.3672H2.12396L2.88307 78.4927L2.73124 78.9482L2.12396 78.3409L1.82031 76.3672Z" fill="#3135A3"/>
<path d="M105.062 37.8027L108.099 37.9546V38.1064L106.581 38.2582L106.429 38.5618L105.366 38.41L105.062 38.2582V37.8027Z" fill="#3D42AD"/>
<path d="M150.455 28.2402H151.063L150.911 29.1512L150.152 29.303L150 28.6957L150.455 28.2402Z" fill="#100E7E"/>
<path d="M206.327 40.9922L206.631 41.4477L205.416 42.5104L204.961 42.2068L206.024 41.144L206.327 40.9922Z" fill="#3D42AD"/>
<path d="M121.91 52.834H122.821L122.518 53.4413L121.759 53.5931L120.848 53.2894V53.1376L121.91 52.834Z" fill="#121080"/>
<path d="M49.0354 29.7578L49.6427 29.9096H49.3391L49.1872 30.3651L48.5799 30.6687H48.1245L47.9727 30.9724V30.5169L48.4281 30.0615L49.0354 29.7578Z" fill="#141282"/>
<path d="M161.086 39.9297L161.693 40.537L161.997 41.1443V42.207L161.693 41.9034L161.086 40.2333V39.9297Z" fill="#151384"/>
<path d="M13.3594 40.3848L14.1185 40.5366L15.6367 41.1439L15.1812 41.2957L14.2703 41.1439V40.8402L13.3594 40.5366V40.3848Z" fill="#171686"/>
</svg>
