<svg width="298" height="100" viewBox="0 0 298 100" fill="none" xmlns="http://www.w3.org/2000/svg">
<path d="M189.49 46.5449H191.892L194.895 47.1455L197.598 48.3467L199.4 50.1485V50.7491H200V47.4458H207.808V81.6802L206.907 85.8844L204.805 90.0887L202.403 92.4911L198.799 94.2929L195.195 95.1938H187.688L183.183 93.9926L180.18 92.1908L178.078 89.7884L176.577 85.8844V84.6832H184.985L186.186 87.386L188.589 88.5872L189.79 88.8875H193.994L196.997 87.6863L198.198 86.1847L199.4 83.1817L200 76.2748H199.4L198.799 77.7763L196.697 79.5781L193.994 80.7793L192.493 81.0796H187.688L183.784 79.8784L181.081 78.0766L178.679 75.3739L177.177 72.3709L175.976 68.4669L175.676 63.9624L176.276 59.1576L177.478 55.554L179.279 52.2507L182.282 49.2476L184.685 47.7461L187.388 46.8452L189.49 46.5449Z" fill="#3B9FD7"/>
<path d="M71.1708 45.9453H77.7774L81.6813 47.1465L84.384 48.9483L86.7864 51.3507L88.5882 54.9544L89.4891 58.2577L89.7894 60.3598V65.1646L87.0867 65.4649H66.9665V67.8673L68.1677 71.471L69.9696 73.5731L72.9726 74.7743H75.6753L78.6783 73.8734L80.4801 71.7713L81.0807 70.8704H89.1888L88.2879 73.5731L86.1858 76.8764L83.1828 79.2788L79.8795 80.7803L77.4771 81.3809H70.8705L67.2668 80.1797L63.6632 78.0776L60.9605 74.7743L59.1587 70.5701L58.2578 65.7652V62.1616L59.1587 57.0565L60.6602 53.4529L62.7623 50.4498L65.465 48.0474L68.7684 46.5459L71.1708 45.9453Z" fill="#3B9FD7"/>
<path d="M225.227 46.5449H228.831L233.035 47.4458L236.038 48.9473L239.041 51.6501L241.444 56.1546L242.345 60.6591V66.0645H219.221L219.822 69.6682L221.023 72.3709L221.924 73.8724L224.927 75.3739H229.432L231.834 74.1727L233.035 72.6712L234.236 71.47H242.044L240.843 74.473L239.041 77.1757L236.939 79.2778L233.936 81.0796L229.432 82.2808H224.327L220.723 81.3799L217.72 79.8784L214.717 77.1757L212.915 74.1727L211.714 71.1697L211.113 68.4669V60.9594L212.014 57.0555L214.116 52.8513L216.819 49.8482L219.522 48.0464L223.125 46.8452L225.227 46.5449Z" fill="#3B9FD7"/>
<path d="M269.068 30.9316H297.296V41.4422H272.971V75.076H262.761L262.461 74.1751L262.761 31.2319L269.068 30.9316Z" fill="#3B9FD7"/>
<path d="M121.922 46.5449H131.532L131.832 63.6621L132.132 69.3679L133.033 71.7703L134.535 73.2718L136.036 73.8724H139.339L141.742 72.6712L142.943 70.5691L143.243 69.3679L143.544 46.8452L144.745 46.5449H153.153L151.952 48.3467L151.652 71.1697L150.751 74.7733L149.249 77.476L148.048 78.9775L145.045 80.7793L142.042 81.9805L140.24 82.2808H135.435L131.231 81.3799L127.628 79.2778L125.525 76.8754L124.024 73.5721L123.724 72.0706L123.423 55.2537L123.123 47.7461L121.922 46.5449Z" fill="#3B9FD7"/>
<path d="M103.002 45.9453H109.909L113.813 47.1465L116.515 48.648L118.617 51.0504L119.819 53.4529L120.119 55.8553H112.311L111.11 53.4529L109.008 52.2516L107.807 51.9513H104.503L102.401 52.8523L101.5 54.3538L101.801 57.0565L104.203 58.2577L112.611 60.6601L117.416 63.0625L119.218 64.564L121.02 68.1676V72.6722L119.819 75.9755L117.416 78.6782L113.813 80.48L110.209 81.3809H103.302L99.6985 80.48L96.3951 78.6782L94.8936 77.477L92.4912 73.5731L91.8906 70.8704L92.1909 70.5701H99.9988L101.2 72.9725L101.5 73.8734L104.503 75.0746L107.506 75.3749L110.509 74.7743L112.011 73.5731L112.611 70.8704L112.011 69.3688L109.909 67.8673L100.9 65.1646L96.0948 62.7622L93.9927 60.3598L93.0918 57.3568L93.3921 53.4529L94.5933 50.7501L96.3951 48.648L99.3982 46.8462L103.002 45.9453Z" fill="#3B9FD7"/>
<path d="M247.745 0H257.955L258.255 11.1112V21.3214L257.955 26.7269H222.52V16.5166L223.721 16.2163H247.745V0Z" fill="#3B9FD7"/>
<path d="M0 45.6465H10.5105V84.3854H32.7328V91.2923H2.10211L1.80181 48.0489L0 45.6465Z" fill="#3B9FD7"/>
<path d="M232.434 30.9316H257.359L257.659 31.2319V66.0669H247.148V41.4422H232.434V30.9316Z" fill="#80BF54"/>
<path d="M48.6444 45.9453H54.3501L55.251 46.2456V52.8523H51.9477L50.4462 53.4529L49.5453 54.3538L48.9447 57.3568H54.9507L55.251 57.6571V63.6631H48.9447V91.2909H40.8365L40.5362 63.6631H36.332V57.3568L40.5362 57.0565L41.1368 53.1526L42.9387 49.5489L45.0408 47.4468L47.4432 46.2456L48.6444 45.9453Z" fill="#3B9FD7"/>
<path d="M262.761 1.20117H272.971V16.2163H287.987V26.7268H262.761L262.461 25.5256L262.761 1.20117Z" fill="#80BF54"/>
<path d="M155.855 46.5449H165.165L165.465 46.8452L165.765 52.551L166.967 50.1485L169.069 48.3467L171.771 47.1455L176.576 46.5449V52.8513L171.771 53.7522L169.369 54.9534L167.267 57.3558L166.066 60.6591L165.765 61.8603L165.465 80.479L165.165 80.7793H158.258L157.357 80.479L157.057 52.2507L156.756 47.7461L155.855 47.1455V46.5449Z" fill="#3B9FD7"/>
<path d="M191.593 53.1543L195.197 53.4546L197.599 54.6558L198.801 56.1573L199.702 57.9591L200.302 61.863V64.8661L199.702 69.3706L198.5 71.773L196.098 73.8751L194.296 74.4757H190.392L187.69 73.2745L185.587 70.8721L184.687 68.77L184.086 65.1664V62.4637L184.687 59.1603L186.188 56.1573L188.59 54.0552L189.792 53.4546L191.593 53.1543Z" fill="#FDFDFD"/>
<path d="M23.1211 46.5449H32.7307V80.7793H24.6226L24.3223 48.0464L23.1211 46.5449Z" fill="#3B9FD7"/>
<path d="M19.2188 31.2324H32.432L32.7323 31.5327V44.746H30.6302L27.6272 43.8451L24.9245 42.3436L21.9215 39.6409L19.8194 35.4366L19.2188 32.7339V31.2324Z" fill="#80BF54"/>
<path d="M225.526 52.5547H228.529L230.931 53.4556L232.432 54.6568L233.934 57.6598L234.234 58.861V60.9631H219.52L219.82 57.9601L221.321 54.9571L223.423 53.1553L225.526 52.5547Z" fill="#FDFDFD"/>
<path d="M72.0739 51.9512H76.5784L78.9808 53.1524L80.4823 54.9542L81.3832 57.3566L81.6835 60.0593H66.9688V57.9572L68.17 54.9542L69.6715 53.1524L72.0739 51.9512Z" fill="#FDFDFD"/>
<path d="M152.551 87.9883H157.356L158.857 89.4898L159.157 92.1925L158.257 93.694L156.755 94.2946L158.557 96.9973L160.058 99.0994V99.7L158.257 99.3997L154.653 94.5949H154.353L154.052 99.7H152.551V87.9883Z" fill="#80BF54"/>
<path d="M58.8628 87.6875L60.3643 87.9878V92.192H66.3703V87.9878L68.1721 87.6875V99.6996H66.6706L66.3703 99.3993V93.9938H60.3643V99.6996H58.8628L58.5625 99.3993V87.9878L58.8628 87.6875Z" fill="#80BF54"/>
<path d="M86.4879 87.3867L87.0885 87.687L89.7912 93.9934L92.1937 99.0985V99.6991L90.0915 99.3988L88.8903 96.6961L84.3858 96.3958L83.7852 98.1976L82.8843 99.6991H81.3828L81.6831 97.8973L85.8873 88.8882L86.4879 87.3867Z" fill="#80BF54"/>
<path d="M120.722 87.6875L122.524 87.9878V99.6996H121.023V93.9938H114.716V99.6996H113.215V87.9878H115.017V91.8917L120.722 92.192V87.6875Z" fill="#80BF54"/>
<path d="M143.843 87.6875H144.444L149.249 98.1981L149.549 99.6996H148.048L146.546 96.6966L141.741 96.3962L141.141 98.1981L140.24 99.6996H138.738L139.339 97.8978L143.543 88.5884L143.843 87.6875Z" fill="#80BF54"/>
<path d="M72.3711 87.9883H78.9777V89.4898H74.1729V92.4928H78.9777V93.9943L74.4732 94.2946V97.8982H78.9777V99.7H72.3711V87.9883Z" fill="#80BF54"/>
<path d="M130.93 87.6875H134.234L136.035 88.5884L136.336 90.0899L135.735 90.3902L133.933 89.4893H131.531L129.729 90.3902L128.828 91.2911L128.528 92.192V95.4953L129.429 96.6966V97.2972L130.93 97.8978H134.234L135.735 96.9969H136.336V98.4984L134.834 99.6996L132.132 99.9999L129.128 99.099L127.026 96.9969L126.426 95.4953V91.8917L127.627 89.7896L129.429 88.2881L130.93 87.6875Z" fill="#80BF54"/>
<path d="M163.363 87.6875L169.67 87.9878V89.4893H164.865V92.4923H169.67V93.9938L165.165 94.2941V97.8978H169.369L169.67 98.1981V99.6996H163.363V87.6875Z" fill="#80BF54"/>
<path d="M102.102 87.9883H109.909L110.21 89.1895L109.909 89.4898H106.906V99.7H105.105L104.804 89.4898H102.102V87.9883Z" fill="#80BF54"/>
<path d="M94.8945 87.9883H96.6963L96.9966 97.8982L101.201 98.1985V99.7H95.1948L94.8945 99.3997V87.9883Z" fill="#80BF54"/>
<path d="M154.656 89.1895L157.058 89.7901L157.358 90.3907V92.1925L155.857 93.0934L154.355 92.7931V89.4898L154.656 89.1895Z" fill="#FDFDFD"/>
<path d="M143.846 91.291L144.747 91.5913L145.948 94.5943V95.1949H142.645L142.945 93.3931L143.846 91.291Z" fill="#FDFDFD"/>
<path d="M86.4859 90.9922L87.0865 91.2925L88.2877 94.2955V95.1964H84.9844L85.8853 92.4937L86.4859 90.9922Z" fill="#FDFDFD"/>
</svg>
