<svg width="300" height="87" viewBox="0 0 300 87" fill="none" xmlns="http://www.w3.org/2000/svg">
<path d="M26.9637 0L53.2477 0.226586L64.3505 0.453172L65.2568 2.49245L67.9758 8.83686L70.9214 16.0876L73.4139 21.7523L77.4924 31.0423L80.4381 38.293L84.9698 50.0755L88.8218 59.5921L89.9547 60.7251L90.4079 60.9517H94.0332V15.6344L92.2205 15.4079L91.0876 14.5015V13.8218L91.994 13.5952L99.0181 13.3686H109.441L109.215 33.5347L108.988 41.6918L110.347 40.7855L113.293 38.0665L116.239 35.574L117.145 34.4411V32.6284L116.465 29.6828L116.239 27.8701L131.42 28.0967L135.045 28.3233L133.912 29.4562L131.647 31.4955L128.701 34.4411L126.888 36.0272L123.489 39.426L122.583 40.7855V42.145L123.943 44.4109L126.435 47.5831L129.381 51.2085L132.553 56.1934L134.592 59.139L135.725 60.4985L137.538 61.4048L139.804 61.6314H140.71V60.7251L139.804 60.2719L138.671 59.139L136.858 57.0997L136.631 55.9668V49.6224L136.405 48.0363L137.991 46.9033L139.124 45.3172L141.39 44.4109L150.453 41.6918L156.571 39.6526L159.29 38.293L159.517 37.6133L158.384 36.4804L156.798 35.3474L154.532 34.6677H152.266L145.015 36.0272L143.882 35.8006L143.429 35.1208L143.656 34.2145L146.375 31.7221L147.054 30.136V28.5498L147.961 28.0967L151.133 27.8701L154.532 27.4169H159.97L164.275 28.0967L168.58 29.2296L171.299 30.3625L172.885 31.7221L173.792 33.5347L174.018 34.8943L174.698 51.6616L175.151 53.4743L179.003 56.1934L181.042 57.7795L181.495 58.9124L180.589 59.5921L177.87 60.2719V60.9517L179.23 61.1782L184.894 60.9517V32.6284L184.668 30.5891H183.535L181.722 28.5498L181.269 28.3233V27.8701L204.607 28.0967H212.764L212.538 29.6828L212.085 31.7221V33.9879L211.631 36.2538L206.647 36.4804L203.701 36.9335L201.435 38.0665L200.529 39.1994L200.302 39.6526V60.9517L202.341 61.4048L204.607 61.6314H211.631L213.897 61.1782V59.5921L212.764 57.3263L211.631 55.5136L211.405 53.9275L213.218 54.1541L219.562 55.9668L223.187 56.6465H227.946L231.118 55.9668L232.477 55.0604L233.157 54.8338L232.931 53.2477L230.665 51.6616L224.094 48.716L219.335 46.6767L215.937 44.864L213.671 43.0514L212.538 41.6918L212.311 41.0121V36.7069L213.444 33.5347L216.163 30.8157L218.429 29.4562L221.148 28.5498L225.68 27.6435L227.492 27.4169H234.29L243.807 28.5498L245.166 29.003L245.393 29.2296V33.5347L244.94 35.3474L243.353 35.574L237.236 33.9879L235.65 33.7613H232.477L230.438 34.4411L229.532 35.574L229.305 36.0272V37.3867L230.665 38.293L236.103 40.3323L241.088 42.145L245.393 44.4109L247.432 45.997L249.018 47.8097L249.245 48.2628L249.018 53.2477L248.565 56.8731L247.659 58.006L243.807 60.2719L241.541 61.4048L241.994 61.6314L244.486 61.858H247.205L254.003 60.9517L254.909 60.7251V53.2477L254.683 33.3082L254.456 19.9396L254.23 14.7281L253.776 13.8218L254.456 13.5952L268.958 13.142H270.997V20.6193L270.77 28.3233L270.544 28.7764L276.208 27.6435L279.154 27.1903H282.779L286.631 28.0967L290.483 29.4562L292.296 30.8157L294.109 32.6284L295.468 34.4411L295.695 36.0272L295.921 60.0453L299.094 63.2175L299.773 64.577L300 65.71V67.7492L298.867 71.3746L297.054 75.2266L295.921 78.1722L295.695 81.571L295.015 82.9305L295.695 82.7039L295.921 83.1571L296.148 86.7825H69.5619L61.4048 86.5559L58.4592 86.3293L58.006 85.8761L61.6314 84.0634L65.0302 82.2507L66.3897 81.1178V77.719L65.2568 73.4139L62.5378 65.2568L61.1782 60.7251L58.6858 60.4985L50.5287 60.2719H39.6526L34.6677 60.4985L31.4955 60.9517L30.5891 61.858L27.6435 69.5619L25.8308 75L25.3776 77.0393V79.7583L25.8308 81.3444L27.4169 83.1571L29.4562 84.7432L29.6828 85.6495L29.9094 86.1027L27.6435 86.5559L18.5801 86.7825H6.11782L1.81269 86.5559L0 86.1027L0.906344 84.5166L3.62538 81.7976L5.66465 78.6254L7.93051 74.5468L10.8761 68.2024L14.5015 58.9124L16.5408 53.2477L20.3927 43.5045L24.4713 33.5347L29.003 22.2054L30.8157 17.4471L32.1752 14.0483L33.0816 10.8761L33.7613 6.34441V5.21148L32.855 4.98489L31.0423 3.85196L29.6828 1.81269L28.5498 0.906344L26.9637 0Z" fill="#653F85"/>
<path d="M273.715 35.5742H277.567L279.38 36.254L279.606 36.7071L279.833 38.7464L280.06 53.9277V60.2721L277.341 61.405L275.075 61.8582H273.489L271.449 61.1784L270.543 60.2721L270.09 58.2328V37.1603L270.77 36.4806L272.582 35.8008L273.715 35.5742Z" fill="#FDFDFD"/>
<path d="M44.4111 23.791H44.8643L45.0909 24.6974L46.9035 28.3227L49.8492 34.8937L53.4745 43.2774L54.8341 46.6762V47.5826L51.8884 47.8091H45.544L35.3477 47.5826L35.5742 46.4496L37.6135 41.0116L41.2389 31.9481L43.2782 26.0569L44.4111 23.791Z" fill="#FCFCFC"/>
<path d="M155.664 47.8086H158.61L158.837 48.2618L159.063 53.4732L160.196 55.2859L160.423 57.5518L162.462 58.9113L164.954 60.9506L164.728 61.6303L163.142 61.8569H159.516L156.797 61.1772L155.891 60.4974L156.118 59.3645L157.251 58.6847L159.063 57.7784L155.211 55.9657L153.399 55.0593L152.266 53.9264L152.039 53.2467V51.434L153.172 49.1681L154.985 48.0352L155.664 47.8086Z" fill="#FCFCFC"/>
<path d="M108.984 48.2617L110.117 49.3946L112.836 53.2466L116.462 58.0049L118.728 60.724L118.501 61.6303H113.516L109.438 61.1771L108.984 60.4974L108.758 58.6847V55.2859L108.984 48.2617Z" fill="#FCFCFC"/>
<path d="M98.0586 83.6603V68.2864H103.944C105.055 68.2864 105.978 68.4615 106.714 68.8118C107.455 69.1572 108.008 69.6301 108.373 70.2306C108.743 70.8312 108.928 71.5118 108.928 72.2725C108.928 72.8981 108.808 73.4335 108.568 73.8789C108.328 74.3193 108.005 74.6772 107.6 74.9524C107.194 75.2277 106.741 75.4254 106.241 75.5455V75.6956C106.787 75.7256 107.31 75.8933 107.81 76.1986C108.315 76.4988 108.728 76.9242 109.049 77.4747C109.369 78.0252 109.529 78.6908 109.529 79.4715C109.529 80.2673 109.336 80.9829 108.951 81.6185C108.566 82.2491 107.985 82.747 107.209 83.1123C106.434 83.4777 105.458 83.6603 104.282 83.6603H98.0586ZM100.844 81.3332H103.839C104.85 81.3332 105.578 81.1406 106.023 80.7552C106.474 80.3648 106.699 79.8644 106.699 79.2538C106.699 78.7984 106.586 78.3881 106.361 78.0227C106.136 77.6524 105.816 77.3621 105.4 77.1519C104.985 76.9367 104.489 76.8291 103.914 76.8291H100.844V81.3332ZM100.844 74.8248H103.599C104.079 74.8248 104.512 74.7372 104.897 74.5621C105.283 74.3819 105.585 74.1292 105.806 73.8039C106.031 73.4736 106.143 73.0832 106.143 72.6328C106.143 72.0373 105.933 71.5468 105.513 71.1615C105.097 70.7761 104.479 70.5835 103.659 70.5835H100.844V74.8248Z" fill="white"/>
<path d="M128.266 68.2864V83.6603H125.481V68.2864H128.266Z" fill="white"/>
<path d="M158.548 75.9734C158.548 77.6299 158.238 79.0487 157.618 80.2297C157.002 81.4058 156.161 82.3066 155.095 82.9322C154.034 83.5578 152.831 83.8705 151.485 83.8705C150.138 83.8705 148.932 83.5578 147.866 82.9322C146.805 82.3016 145.965 81.3983 145.344 80.2222C144.728 79.0411 144.421 77.6249 144.421 75.9734C144.421 74.3168 144.728 72.9006 145.344 71.7245C145.965 70.5434 146.805 69.6401 147.866 69.0145C148.932 68.389 150.138 68.0762 151.485 68.0762C152.831 68.0762 154.034 68.389 155.095 69.0145C156.161 69.6401 157.002 70.5434 157.618 71.7245C158.238 72.9006 158.548 74.3168 158.548 75.9734ZM155.748 75.9734C155.748 74.8073 155.566 73.8239 155.2 73.0232C154.84 72.2174 154.34 71.6094 153.699 71.199C153.058 70.7836 152.32 70.5759 151.485 70.5759C150.649 70.5759 149.911 70.7836 149.27 71.199C148.629 71.6094 148.126 72.2174 147.761 73.0232C147.401 73.8239 147.221 74.8073 147.221 75.9734C147.221 77.1394 147.401 78.1253 147.761 78.931C148.126 79.7318 148.629 80.3398 149.27 80.7552C149.911 81.1656 150.649 81.3708 151.485 81.3708C152.32 81.3708 153.058 81.1656 153.699 80.7552C154.34 80.3398 154.84 79.7318 155.2 78.931C155.566 78.1253 155.748 77.1394 155.748 75.9734Z" fill="white"/>
<path d="M173.354 70.621V68.2864H185.62V70.621H180.868V83.6603H178.106V70.621H173.354Z" fill="white"/>
<path d="M201.514 83.6603V68.2864H211.513V70.621H204.299V74.7948H210.995V77.1294H204.299V81.3257H211.573V83.6603H201.514Z" fill="white"/>
<path d="M241.043 73.4736H238.235C238.155 73.0132 238.007 72.6053 237.792 72.25C237.577 71.8896 237.309 71.5844 236.989 71.3341C236.669 71.0839 236.303 70.8962 235.893 70.7711C235.488 70.641 235.05 70.5759 234.579 70.5759C233.743 70.5759 233.003 70.7861 232.357 71.2065C231.712 71.6219 231.206 72.2325 230.841 73.0382C230.476 73.8389 230.293 74.8173 230.293 75.9734C230.293 77.1494 230.476 78.1403 230.841 78.9461C231.211 79.7468 231.717 80.3523 232.357 80.7627C233.003 81.1681 233.741 81.3708 234.572 81.3708C235.032 81.3708 235.463 81.3107 235.863 81.1906C236.268 81.0655 236.631 80.8828 236.951 80.6426C237.277 80.4024 237.549 80.1071 237.77 79.7568C237.995 79.4065 238.15 79.0061 238.235 78.5557L241.043 78.5707C240.938 79.3014 240.71 79.987 240.36 80.6276C240.014 81.2682 239.561 81.8337 239.001 82.3241C238.44 82.8096 237.785 83.1899 237.034 83.4652C236.283 83.7354 235.45 83.8705 234.534 83.8705C233.183 83.8705 231.977 83.5578 230.916 82.9322C229.855 82.3066 229.019 81.4033 228.409 80.2222C227.798 79.0411 227.493 77.6249 227.493 75.9734C227.493 74.3168 227.801 72.9006 228.416 71.7245C229.032 70.5434 229.87 69.6401 230.931 69.0145C231.992 68.389 233.193 68.0762 234.534 68.0762C235.39 68.0762 236.186 68.1963 236.921 68.4365C237.657 68.6767 238.313 69.0295 238.888 69.495C239.464 69.9554 239.937 70.5209 240.307 71.1915C240.682 71.8571 240.928 72.6178 241.043 73.4736Z" fill="white"/>
<path d="M257.122 83.6603V68.2864H259.907V74.7948H267.031V68.2864H269.824V83.6603H267.031V77.1294H259.907V83.6603H257.122Z" fill="white"/>
</svg>
