<svg width="126" height="100" viewBox="0 0 126 100" fill="none" xmlns="http://www.w3.org/2000/svg">
<path d="M0 0H126V100H0V0Z" fill="#868686"/>
<path d="M0 0H126V100H0V0ZM62.875 0.5L61.75 0.625L59.125 0.75L56.5 1L53 1.625L48.625 2.75L46.125 3.5L42 5.5L38.625 7.25L33.75 10.5L32.25 11.625L29.75 13.875L28.375 15.375L26.625 17.125L25.375 18.75L23.625 21.125L22.375 23L21 25L19.625 27.875L18.25 30.5L17.375 32.375L15.875 37.625L14.875 41.25L14.75 42L14.375 49V50.875L13.5 52.25L12.625 53.375L11.375 55.375L10.375 56.75L8.375 59.875L7 62L5.25 65L3.75 67.875L2.375 71L1.375 73.625L0.875 75.875L0.75 77L0.875 80L1.125 81.125L1.625 81.875L2.25 82.625L3.625 83.25L6.125 83.875H7.5L10.125 83.125L13.125 81.875L16.125 80.375L19.125 78.625L21.375 77.25L21.75 77H22.125L23 78.375L24.625 80.625L25.75 82L26.875 83.25L27.75 84.25L29.5 86L30.375 87L31.375 87.875L32.875 89.125L34.375 90.125L37.875 92.5L39.125 93.25L41.125 94.25L43.75 95.625L45.875 96.625L48.875 97.5L53.125 98.625L57.25 99.25L61.5 99.625H65.5L69.75 99.25L73.5 98.625L78.5 97.25L81.25 96.25L87.5 93.125L90.125 91.5L92.25 90L93.875 88.875L95.75 87.25L98.625 84.375L99.5 83.375L100.5 82.25L101.875 80.5L103.25 78.5L104.25 77.25L104.375 76.875L106.625 78.125L108.75 79.375L111.75 81L114.875 82.5L117 83.25L119.375 83.875H120.25L122.75 83.375L124.375 82.5L125.25 81.25L125.75 79.5L125.875 78.375L125.625 75.625L125 73L124.125 71.125L122.875 68.125L121.125 64.625L119.25 61.5L117.375 58.625L115.875 56.375L113.875 53.5L113 52.125L112.375 51.125L112.125 47.125L111.5 41.125L110.5 36.875L109 32.375L107.625 29.25L106.125 26.5L105.25 24.75L104.375 23.375L103.125 21.625L101.75 19.625L100.125 17.625L99.25 16.625L98.125 15.375L95 12.25L93.375 11L91 9.375L89.125 8.125L87.25 7L84.25 5.5L82.125 4.375L79.75 3.375L75.625 2.125L72 1.25L68.125 0.875L67.375 0.75L63.75 0.5H62.875Z" fill="white"/>
<path d="M63.375 33.25L63.875 33.5L64.75 35L66.75 38.125L68.375 40.5L69.875 42.625L71.625 45L72.875 46.625L74.25 48.375L75.625 50L78.625 53.5L79.875 54.875L80.75 55.875L82.75 58L84 59.25V59.5L84.5 59.75L85.375 60.75L87.625 63L88.625 63.875L89.875 65L91.25 66.125L93.125 67.75L94.875 69.125L96.5 70.5L97.75 71.5L99.5 73L101.125 74.25L102.375 75.25L102.75 75.5L102.5 76L99 80.75L97.625 82.25L96.75 83.125L95.875 84.125L95.25 84.625L94.375 85.625L92.75 87.125L89.25 89.625L86.75 91.25L83.5 93L80.375 94.5L78.125 95.25L73.75 96.375L70 97L65.75 97.375L64.5 97.5H62.125L61.25 97.375L59 97.25L55.75 96.875L52.875 96.375L47.625 95L45.75 94.375L42.875 93L40.125 91.5L38.125 90.25L34.625 87.75L33 86.5L29.625 83.125L28.75 82.125L28.125 81.5L26.75 79.875L25.25 77.75L24.125 76.375L23.75 75.625L24.875 74.75L26.25 73.75L28.25 72.125L29.625 71L31.5 69.375L32.875 68.25L34.25 67L35.25 66.125L36.75 64.875L38.125 63.75L39.375 62.5L40.375 61.625L41.5 60.375L43.625 58.25L44.5 57.25L46.25 55.5L47.125 54.5L48.625 52.75L49.75 51.5L50.75 50.25L52.125 48.625L53.25 47.25L55 45L56.75 42.5L58.5 40.125L59.875 38.125L61.5 35.875L62.875 33.875L63.375 33.25Z" fill="white"/>
<path d="M62.25 2.625H64.875L65 2.75L70.5 3.25L72.875 3.625L76.375 4.5L79.375 5.375L81.375 6.125L86.625 8.875L89.25 10.625L90.875 11.75L92.625 13L93.875 14.125L94.5 14.625L95.375 15.625L97.125 17.375L98 18.375L98.875 19.25L100.625 21.625L102.25 23.875L104 26.625L105.75 30L106.875 32.5L107.375 33.5L108 35.5L109.25 41L109.75 44.75L109.875 46.75L110.25 47.875V48.5L109.75 48.25L108.125 46.25L106.875 44.875L106 43.875L104.25 42L102.75 40.375L101.375 38.875L99.75 37.25L98.875 36.25L95.75 33.125L94.75 32.25L93 30.625L92 29.75L90.75 28.625L89.25 27.25L87.875 26.125L86 24.5L84.25 23.125L81.75 21.375L75.75 17.375L73.125 15.875L69.125 14L66.125 12.875L64.875 12.625H61.375L58 13.75L54.875 15.125L52.875 16.125L50.875 17.25L45.5 20.875L43.625 22.125L41.625 23.625L39.875 25.125L38.125 26.5L36.125 28.375L35.125 29.25L33.5 30.75L32.5 31.625L30.5 33.5L29.5 34.375L27.125 36.75L26.25 37.75L25.25 38.75L24.375 39.75L23.125 41L22.25 42L21.125 43.125L21 43.375H20.75L20.5 43.875L18.625 45.875L17.625 47.125L16.75 48L16.625 47.625L17 42.375L17.375 40L18.5 35.5L19.25 33.375L20.875 29.75L22.25 27.125L23.25 25.375L26.25 21.125L27.5 19.375L28.875 18L29.75 17L31.375 15.375L32.25 14.375L33.5 13.25L35.625 11.75L38 10.125L39.875 8.875L42.625 7.375L45.375 6L48.75 4.875L53.75 3.625L56.75 3.125L62 2.75L62.25 2.625Z" fill="white"/>
<path d="M62.875 0.5L65.375 0.625L67.375 0.75L70.625 1.125L72 1.25L76 2.25L79.75 3.375L82.375 4.5L85.75 6.25L88.125 7.5L89.875 8.625L92.875 10.625L94.5 11.875L96 13.25L99 16.25L99.875 17.25L101.375 19.125L102.625 20.875L104 22.875L104.875 24.125L106 26.125L107 28.125L108 30L109.25 33L110.5 36.875L111.5 41.125L112.125 47.125L112.25 48.75V50.875L111.875 50.75L111 49.75L110.375 48.875L110.25 48L109.75 46.75L109.5 43.75L109 40.375L107.75 35L107 32.875L106 30.875L104.625 28L103.5 26L101.5 23L99.75 20.625L98.5 19L97.125 17.625L96.25 16.625L93 13.375L90.875 11.875L89.25 10.75L87.375 9.5L85.25 8.25L81.5 6.375L80.125 5.75L77.75 5L73.5 3.875L71.625 3.5L67.75 3.125L65 2.875L64.875 2.75H62.25L62 2.875L56.75 3.25L53.125 3.875L47.875 5.25L45.375 6.125L41.375 8.125L39.25 9.375L36.75 11.125L34.375 12.75L33.125 13.75L31.625 15.125L30.75 16.125L29.125 17.75L28.25 18.75L27.125 20L25.75 22L24.25 24.125L23 26L21.25 29.25L20.125 31.625L18.875 34.625L17.875 38.375L17.25 41.375L16.875 45.75L16.625 48.375L15.25 50L14.75 50.625L14.375 50.5V49L14.75 42L15.375 39.375L17.25 32.875L17.75 31.625L19 29L20 27.125L21.125 24.75L22.75 22.5L24 20.625L25.5 18.625L26.375 17.5L27.5 16.25L29.375 14.375L30.25 13.375L31.875 11.875L34.125 10.25L35.625 9.25L38.875 7.125L44.5 4.25L46.5 3.375L51 2.125L54.25 1.375L56.5 1L59.125 0.75L61.75 0.625L62.875 0.5Z" fill="#868686"/>
<path d="M102.625 75.75L103.125 75.875L104.125 76.5L104.5 76.625L104.25 77.25L103.125 78.625L102.125 80.125L100.875 81.75L99.5 83.375L97.5 85.5L95.25 87.75L93.875 88.875L92.125 90.125L89.125 92.125L86.75 93.5L81 96.375L77.625 97.5L73.5 98.625L69.75 99.25L65.5 99.625H61.5L57.25 99.25L53.125 98.625L47.5 97.125L45.25 96.375L43.25 95.375L39.75 93.5L38 92.625L36.625 91.625L34.375 90.125L32.75 89L31 87.5L29.625 86.25L28.75 85.25L27 83.5L26.125 82.5L24.5 80.5L23 78.375L22.125 77L22.25 76.5L23.25 75.875H23.875L25.25 77.625L26.75 79.625L27.625 80.75L28.125 81.375L29.625 82.875L30.5 83.875L31.125 84.375L32 85.375L33.25 86.625L35.625 88.375L37.125 89.375L38.875 90.625L41 91.875L44.625 93.75L46.75 94.625L51.875 96L54.75 96.625L56.5 96.875L60.75 97.25H61.625L62.125 97.375H64.5L70 96.875L73.75 96.25L78.125 95.125L80.375 94.375L83.5 92.875L87 91L90.5 88.625L92.875 86.875L93.75 86L94.75 85.125L95.25 84.5L96.25 83.625L97.625 82.125L98.5 81.25L100.25 78.875L102.125 76.375L102.625 75.75Z" fill="#868686"/>
<path d="M50.125 69.375H55.25L56.75 69.875L57.5 70.375L58.5 71.5L59.125 72.875L59.375 74.125V76.375L59 77.875L58.25 79.25L57.25 80.125L56 80.75L55.5 80.875H50.25L50.125 80.75V69.375Z" fill="#868686"/>
<path d="M42.125 69.375H44.5L45.625 72.125L46.25 73.5L47.75 77.75L49 80.625V81H46.625L46 79.75L45.625 78.625L41.25 78.5L40.875 80L40.625 80.875L39.25 81L37.875 80.875L38.25 79.5L39.75 75.75L41.375 71.5L42 69.5L42.125 69.375Z" fill="#868686"/>
<path d="M74.375 69H77.125L77.5 69.125V70.875L76.375 71H73.875V74H77V75.25H73.875V78.625H78.375L78.5 78.75V80.875H71.375V69.125L74.375 69Z" fill="#868686"/>
<path d="M61 69.375H63.625L63.75 69.5L63.875 78.625H69.75L69.875 78.75V80.875H61V69.375Z" fill="#868686"/>
<path d="M78.5 69.375H81.125L82.375 71.75L83.375 73.75L83.625 73.875L83.875 73.125L85.625 69.875L85.75 69.5L86 69.375H88.5L88.25 70.125L87.25 71.875L85.25 74.875L84.75 76L84.625 80.875H82.125L82 75.875L81.5 74.75L80.625 73.375L79.5 71.75L78.5 70.125L78.375 69.5L78.5 69.375Z" fill="#868686"/>
<path d="M52.875 71.5H54.875L55.75 71.75L56.5 72.875L56.75 73.5L56.875 74.375V76.25L56.5 77.5L56 78.375L55.5 78.625H52.75L52.625 78.25V71.625L52.875 71.5Z" fill="white"/>
<path d="M43.375 72.75L43.625 73L44.625 75.75V76.125H42.125L42.5 75L43 73.875L43.375 72.75Z" fill="white"/>
</svg>
