<svg width="287" height="100" viewBox="0 0 287 100" fill="none" xmlns="http://www.w3.org/2000/svg">
<path d="M79.0221 0L79.7455 0.180831L80.8305 2.71246L83.3621 9.76487L85.7129 16.094L89.872 27.4863L93.127 36.347L96.2011 44.6653L99.456 53.526L101.445 58.9509L105.604 70.3433L106.87 73.2365L107.955 75.2257L109.402 77.034L110.848 78.2998L113.199 79.204L114.827 79.3848L115.008 79.5656V80.4698L114.827 80.6506H94.0311L93.127 80.4698L93.3078 79.3848L95.4778 79.0231L96.7436 77.9382L98.0094 75.4065V73.0557L96.2011 67.0883L87.1595 39.9636L84.6279 32.1879L79.0221 15.3706L78.6605 15.009L76.4905 21.5189L74.1397 28.2096L71.2464 36.7087L68.7148 44.1228L65.279 54.0685L62.5665 62.025L59.8541 69.8008L58.9499 73.2365V75.0449L59.8541 77.3957L60.939 78.6615L62.024 79.204L63.8323 79.3848L64.0132 80.1081L63.4707 80.6506H45.3876L43.5793 80.4698L43.3984 79.7465L43.7601 79.3848L46.2917 78.8423L47.7384 78.119L49.3659 76.8532L50.6317 75.4065L52.0783 72.8749L53.8866 68.3541L56.2374 62.025L59.1307 54.4301L62.5665 45.3886L66.1831 35.8045L68.5339 29.6563L72.6931 18.6256L75.4055 11.3924L77.5755 5.06327L78.8413 0.180831L79.0221 0Z" fill="#413E41"/>
<path d="M266.184 0.181641H271.066L275.587 0.724134L279.023 1.26663L281.192 1.44746L281.554 1.62829V15.7331L280.65 15.5523L280.288 13.744L279.746 11.2123L278.299 8.31903L277.033 6.87239L275.044 5.60657L273.236 4.88325L271.608 4.52158H266.003L263.109 5.24491L260.759 6.51073L258.95 8.1382L257.504 9.94651L256.419 12.1165L255.695 15.0098V18.6264L256.238 21.158L257.142 23.328L258.408 25.3171L260.939 28.0296L263.833 30.7421L266.364 33.2737L267.811 34.5395L270.343 37.0712L271.789 38.337L274.321 40.8686L275.768 42.1344L278.118 44.4852L279.565 45.751L281.554 47.7402L283.182 49.9102L284.809 53.346L285.713 56.7817L286.075 59.675V62.2067L285.713 65.4616L284.809 69.0782L283.362 72.514L281.916 74.684L280.288 76.6731L278.48 78.4815L276.129 80.1089L273.236 81.5556L270.704 82.2789L269.438 82.4597H263.833L259.312 81.7364L256.599 81.0131L253.706 79.9281L250.813 78.3006L249.185 76.854L248.462 75.2265L248.281 73.599V69.6207L248.643 65.2808L249.185 62.2067L249.909 60.0367L250.632 59.8559L250.994 60.2175L251.175 64.1958L251.898 68.1741L252.802 70.7057L253.887 72.6949L255.153 74.3223L256.419 75.5882L258.769 77.0348L261.482 77.939L263.471 78.3006H267.088L270.162 77.7581L273.055 76.6731L275.044 75.4073L276.491 74.1415L277.938 72.1524L279.203 69.2591L279.746 66.9083L279.927 65.2808V62.7492L279.203 59.1325L278.299 56.7817L277.033 54.7926L274.502 52.0801L268.896 46.836L266.726 44.6661L265.279 43.4002L262.386 40.507L260.939 39.2411L258.408 36.7095L256.961 35.4437L253.887 32.3696L252.079 29.6571L250.994 27.1255L250.09 23.328L249.909 22.0622V16.8181L250.451 13.744L251.536 10.8507L252.621 8.6807L254.249 6.32989L256.599 3.97909L258.95 2.35161L261.663 1.0858L264.556 0.362472L266.184 0.181641Z" fill="#413E41"/>
<path d="M17.9023 0.181641H22.6039L27.3055 0.724134L30.5604 1.26663L32.7304 1.44746L33.0921 1.62829L33.2729 8.31903V15.7331L32.3687 15.5523L32.1879 15.3714L31.8263 12.659L30.9221 9.94651L29.6563 7.95737L28.3905 6.69156L26.4013 5.42574L24.2313 4.70242L23.1464 4.52158H17.5406L14.8281 5.24491L13.0198 6.14906L11.3924 7.41488L9.76487 9.04236L8.31822 11.574L7.5949 13.5631L7.23324 15.5523V18.0839L7.77573 20.9772L9.04155 23.8705L10.4882 25.8596L16.8173 32.1887L18.2639 33.4545L20.6147 35.8053L22.0614 37.0712L23.3272 38.337L24.7738 39.6028L26.763 41.5919L28.2096 42.8578L30.9221 45.5702L32.3687 46.836L34.3579 49.1868L35.8045 51.7185L36.7087 54.2501L37.432 57.3242L37.6128 58.9517V62.93L37.0704 66.7274L36.1662 69.9824L34.7195 72.8757L33.2729 75.0457L30.9221 77.7581L27.848 80.1089L24.7738 81.5556L22.2422 82.2789L21.1572 82.4597H15.3706L10.8499 81.7364L7.5949 80.8323L4.70161 79.5664L2.53163 78.3006L0.904155 77.0348L0.180831 75.5882L0 74.3223V68.8974L0.361662 64.7383L1.08499 60.9409L1.62748 60.0367L2.3508 59.8559L2.53163 60.0367L2.71246 63.6533L3.25496 66.9083L3.97828 69.6207L5.42493 72.514L6.87158 74.5032L8.49906 75.9498L11.2115 77.3965L13.924 78.1198L15.009 78.3006H18.8064L22.423 77.5773L25.3163 76.3115L27.1246 75.0457L28.5713 73.599L30.0179 71.2482L30.9221 69.0782L31.4646 66.185V61.845L30.7413 58.7709L29.8371 56.6009L28.2096 54.2501L26.5822 52.4418L25.1355 51.176L22.7847 48.8252L21.3381 47.5594L18.8064 45.0277L17.3598 43.7619L15.9131 42.3153L14.4665 41.0494L12.839 39.422L11.3924 38.1561L8.67989 35.4437L7.23324 34.1779L5.78659 32.7312L4.52077 30.9229L3.07413 28.2104L2.16997 25.498L1.44665 22.0622V16.9989L1.98914 14.1056L2.8933 11.3932L4.70161 7.95737L6.50991 5.60657L8.49906 3.79826L11.2115 1.98995L13.924 0.904965L16.2748 0.362472L17.9023 0.181641Z" fill="#413E41"/>
<path d="M121.52 1.99023H143.039L143.401 2.17107L143.039 2.89439L142.316 3.25605L139.784 3.79854L138.157 4.88353L136.891 6.33018L135.987 8.13849L135.806 8.68098L135.625 11.2126V76.4926L153.708 76.3118L157.144 75.7693L160.037 74.5035L161.846 73.4185L164.015 71.4293L165.643 69.0785L167.632 65.2811L168.898 62.0261L169.802 61.8453L169.44 63.8344L166.005 75.046L164.377 80.2901L164.015 80.6517L156.24 80.8325H130.2L121.52 80.6517L120.978 80.4709V79.5667L121.339 79.3859L123.871 79.0242L125.498 78.3009L126.945 77.0351L128.211 74.5035L128.392 73.961L128.573 69.0785V12.4784L128.392 9.04264L127.668 7.0535L126.222 5.06436L124.594 3.97938L121.159 3.07522L120.797 2.71356V2.17107L121.52 1.99023Z" fill="#413E41"/>
<path d="M188.605 73.0566H195.839L197.647 74.6841L199.455 76.1308L202.529 77.5774L204.88 78.3007L208.135 78.8432H211.571L214.464 78.4816L217.177 77.7582L219.889 76.6733L222.059 75.2266L224.41 73.2375L224.591 73.0566H229.835L229.112 74.3225L226.58 76.8541L224.048 78.6624L221.517 80.109L218.262 81.3749L213.741 82.279L212.294 82.4599H206.327L202.529 81.9174L199.817 81.194L197.466 80.2899L194.935 79.0241L192.945 77.5774L190.414 75.4074L188.605 73.4183V73.0566Z" fill="#FF9948"/>
<path d="M176.131 1.99023H196.023L196.384 2.53273L195.842 3.25605L192.768 3.79854L191.321 4.88353L190.236 6.33018L189.874 7.23433L189.513 10.851H185.715L182.822 10.6701L182.641 10.4893L182.279 7.0535L181.556 5.60685L180.109 4.34104L178.12 3.61771L176.131 3.07522L175.77 2.17107L176.131 1.99023Z" fill="#FF9948"/>
<path d="M224.233 1.99023H242.316L242.497 2.89439L242.316 3.25605L239.603 3.61771L238.157 4.34104L236.891 5.78768L236.348 6.69184L235.987 8.31932L235.806 10.4893L235.625 10.851L230.924 10.6701L230.381 7.23433L229.296 5.06436L227.669 3.97938L224.414 3.25605L223.871 2.53273V2.17107L224.233 1.99023Z" fill="#FF9948"/>
<path d="M62.2082 89.873H66.1865L69.8031 90.0539L70.3456 90.4155L70.5264 90.958V94.9363L69.9839 95.8405L67.8139 96.2021L70.8881 99.2763L71.0689 99.8188L70.3456 99.9996L68.5373 99.2763L66.5481 97.2871L65.8248 96.383L63.8357 95.8405L63.6548 99.8188H62.0273V90.0539L62.2082 89.873Z" fill="#252125"/>
<path d="M1.62891 90.0547H9.58547L10.128 90.9588V94.7563L9.58547 95.6604L9.22381 95.8413H3.43722L3.25638 99.8196H1.62891V90.0547Z" fill="#242024"/>
<path d="M82.2824 89.873H83.3674L84.4524 91.1389L86.4415 94.3938L87.3457 95.8405L88.069 94.9363L89.8773 91.8622L91.5048 89.873H92.4089L92.5898 92.9472V99.6379L92.4089 99.8188H91.1431L90.9623 92.5855L89.6965 94.9363L88.069 97.6488L87.7073 98.3721L86.984 98.1913L85.7182 96.383L83.729 93.128L83.5482 99.8188H82.2824L82.1016 99.6379V94.0322L82.2824 89.873Z" fill="#252225"/>
<path d="M274.144 90.0547H280.834L281.377 90.4163L281.558 91.1397V92.7672L280.473 92.4055L280.292 91.5013H274.686V93.6713L274.867 93.8521L280.834 94.033L281.558 94.3946L281.738 94.7563V98.3729L281.377 99.2771L280.653 99.6387L278.664 99.8196H275.771L273.42 99.4579L273.059 98.9154V97.4688L273.601 96.5646H274.144L274.686 98.0113H278.845L280.111 97.8304L280.292 97.6496V95.6604L273.963 95.4796L273.239 94.033V91.863L273.782 90.2355L274.144 90.0547Z" fill="#252125"/>
<path d="M21.8819 89.873H22.6052L22.786 93.6705H28.7534V89.873H30.3809V99.8188H28.7534L28.5726 98.5529V95.4788H22.786V97.8296L22.6052 99.8188H20.9777L20.7969 99.6379V91.8622L20.9777 90.0539L21.8819 89.873Z" fill="#413E41"/>
<path d="M215.915 90.0547H223.148L223.69 90.5972V93.1288L223.329 93.4905L222.244 93.6713L222.063 93.3096V91.6822H216.819V98.0113L222.063 97.8304L222.244 95.8413L223.329 96.0221L223.69 96.3838V98.9154L223.148 99.6387L220.255 99.8196H216.819L215.372 99.4579L215.191 98.9154V90.778L215.915 90.0547Z" fill="#413E41"/>
<path d="M143.941 90.0547H152.079L151.898 91.3205L151.717 91.5013L148.281 91.6822H145.569V93.8521H149.186L149.366 94.033V95.4796L149.186 95.6604L145.569 95.8413V98.1921L151.898 98.0113L152.079 98.1921V99.2771L151.898 99.4579L150.451 99.6387L144.484 99.8196L143.941 99.6387V90.0547Z" fill="#262226"/>
<path d="M124.415 90.0547H131.286L132.01 90.4163V93.3096L131.286 93.6713H130.563V91.6822H125.319V98.1921L130.563 97.8304V95.6604L131.829 96.0221L132.01 96.2029V99.0962L130.744 99.6387L127.489 99.8196H125.5L124.234 99.6387L123.691 98.7346V90.4163L124.415 90.0547Z" fill="#262226"/>
<path d="M163.473 89.873H164.919L165.1 98.1913L168.898 98.0104L170.344 97.8296L170.525 89.873L172.153 90.0539V98.9146L171.61 99.4571L171.068 99.6379L168.536 99.8188H166.547L164.015 99.6379L163.473 99.2763V89.873Z" fill="#403D40"/>
<path d="M184.27 64.5566H191.322L192.226 66.7266L193.13 69.4391H186.259L185.535 68.3541L184.27 64.9183V64.5566Z" fill="#FF9948"/>
<path d="M182.82 56.2402H189.692L190.054 58.7719L190.234 60.9418H183.363L183.001 58.7719L182.82 56.2402Z" fill="#FF9948"/>
<path d="M182.641 47.9199H189.331L189.512 50.4516V52.6215H182.821L182.641 47.9199Z" fill="#FF9948"/>
<path d="M182.641 14.4668H189.331V19.1684H183.183L182.821 18.9876L182.641 14.4668Z" fill="#FF9948"/>
<path d="M182.82 31.1035H189.33V35.8051H182.82V31.1035Z" fill="#FF9948"/>
<path d="M182.82 22.7852H189.33V27.4868H183.001L182.82 27.3059V22.7852Z" fill="#FF9948"/>
<path d="M45.9293 89.6914L47.0143 90.0531L48.4609 92.7655L50.0884 96.3822L51.3542 99.2754L51.1734 99.9988L49.7268 99.6371L49.0034 98.3713L48.2801 96.2013V95.6588H47.9185L46.291 92.0422L46.1101 91.8614L44.3018 95.6588L43.3977 97.2863L42.8552 99.0946L42.1319 99.8179H41.0469L41.2277 98.733L43.3977 94.0314L44.8443 90.9572L45.9293 89.6914Z" fill="#252125"/>
<path d="M182.821 39.4219H189.331V44.1235H182.821L182.641 39.6027L182.821 39.4219Z" fill="#FF9948"/>
<path d="M107.958 89.6914L108.862 89.8722L110.67 93.308L113.202 99.0946L113.383 99.8179H111.936L111.213 98.9138L110.128 95.8397V95.478H109.766L108.139 91.8614L107.777 92.4039L106.149 95.8397H105.788L105.607 96.9246L104.703 99.2754L104.16 99.8179H102.895L103.437 98.1905L106.33 92.0422L107.234 90.2339L107.958 89.6914Z" fill="#252125"/>
<path d="M238.699 89.6914L239.784 89.8722L241.23 92.7655L243.4 97.4671L244.124 99.0946V99.8179H243.039L242.135 98.9138L241.773 98.3713L241.05 96.0205V95.6588H240.688L239.061 91.8614L238.88 91.6805L237.795 94.393L237.252 95.6588H236.891L236.529 96.7438L235.986 98.1905L235.082 99.8179H233.816L233.997 98.9138L237.433 91.4997L238.337 90.0531L238.699 89.6914Z" fill="#262226"/>
<path d="M182.277 90.0547H191.5L191.681 90.5972L191.319 91.5013L190.957 91.6822L187.883 91.863L187.702 99.6387H186.075L185.894 91.863L183.362 91.6822L182.458 91.5013L182.277 90.0547Z" fill="#413E41"/>
<path d="M228.933 64.5566H234.177L233.092 67.8116L232.369 69.4391H230.38L227.125 69.2582L227.487 68.1733L228.572 65.6416L228.933 64.5566Z" fill="#FF9948"/>
<path d="M254.973 89.873H256.238L256.419 90.0539L256.6 98.0104H262.568L262.748 98.1913V99.2763L261.844 99.6379L257.685 99.8188H255.334L254.973 99.6379V89.873Z" fill="#282528"/>
<path d="M230.742 56.0586L235.443 56.2394L235.262 60.0369L235.082 60.941H230.38L230.199 60.2177L230.561 56.7819L230.742 56.0586Z" fill="#FF9948"/>
<path d="M230.923 31.1035H235.625V35.8051H230.923L230.742 31.2843L230.923 31.1035Z" fill="#FF9948"/>
<path d="M230.923 47.9199H235.625V52.6215H230.923L230.742 48.1008L230.923 47.9199Z" fill="#FF9948"/>
<path d="M230.742 14.4668H235.625V19.1684H231.104L230.923 18.9876L230.742 14.4668Z" fill="#FF9948"/>
<path d="M230.742 22.7852H235.625V27.4868H231.104L230.923 27.3059L230.742 22.7852Z" fill="#FF9948"/>
<path d="M235.263 39.4219L235.625 39.6027V44.1235H231.104L230.923 43.9426L230.742 39.6027L235.263 39.4219Z" fill="#FF9948"/>
<path d="M238.88 91.502L239.423 92.2253L240.689 95.1186V95.6611H241.05L241.774 97.4694L241.593 98.0119L241.412 97.831L236.168 97.6502L236.349 96.7461L236.891 95.6611H237.253L237.434 94.7569L238.338 92.5869L238.88 91.502Z" fill="#423F42"/>
<path d="M46.112 91.6836L46.6545 92.4069L47.9204 95.3002V95.6619H48.282L48.8245 97.2894L48.6437 97.8318H43.2188L43.3996 96.9277L45.5696 92.7686L46.112 91.6836Z" fill="#423F42"/>
<path d="M107.957 91.6836L108.319 91.8644L109.766 95.1194V95.481H110.127L110.851 97.4702L110.67 97.8318L105.607 97.651L105.426 96.9277L105.787 95.8427H106.149L106.511 94.7577L107.777 91.8644L107.957 91.6836Z" fill="#423F42"/>
<path d="M201.629 89.873H203.076L203.256 90.0539V99.6379L203.076 99.8188H201.81L201.629 99.6379V89.873Z" fill="#282428"/>
<path d="M222.242 95.8418L223.327 96.0226L223.688 96.3843V98.9159L223.146 99.6392L220.252 99.8201H216.817L215.732 99.6392L216.274 99.2776L215.732 99.0968L215.551 98.1926L216.817 98.0118L222.061 97.8309L222.242 95.8418Z" fill="#413E41"/>
<path d="M163.473 89.873H164.919L165.1 98.5529V99.2763H167.813L168.717 99.4571L168.536 99.8188H166.547L164.015 99.6379L163.473 99.2763V89.873Z" fill="#262226"/>
<path d="M63.8332 91.502H68.8964L69.0773 92.0444V94.3952H63.8332L63.6523 93.8528L63.8332 91.502Z" fill="white"/>
<path d="M3.43359 91.502H8.49686L8.67769 91.6828V94.2144L7.95437 94.3952H3.43359V91.502Z" fill="white"/>
<path d="M150.632 90.5977L151.536 90.9593L151.898 90.5977L151.717 91.5018L148.281 91.6826H145.569V93.8526H149.185L149.366 94.0334V95.4801L149.185 95.6609L145.388 95.8418L145.207 94.9376L145.388 90.9593L145.569 90.7785L150.632 90.5977Z" fill="#413E41"/>
<path d="M215.915 90.0547H223.148L223.51 90.2355V91.1397L222.967 90.5972H216.819L216.096 91.1397V95.2988L216.638 95.4796L216.819 98.1921H215.553L215.734 99.0962L216.638 99.2771V99.4579H215.372L215.191 98.9154V90.778L215.915 90.0547Z" fill="#262226"/>
<path d="M238.879 91.502L239.421 92.2253L240.868 95.6611V95.8419L237.07 96.0227L237.613 94.3952L238.698 91.6828L238.879 91.502Z" fill="white"/>
<path d="M107.961 91.6836L108.322 91.8644L109.95 95.481V95.8427H106.152L106.514 94.7577L107.78 91.8644L107.961 91.6836Z" fill="white"/>
<path d="M170.523 89.873L172.151 90.0539V98.9146L171.97 99.2763L171.247 99.0954L171.608 98.3721V93.8513L171.428 92.2238L171.247 92.4047L171.066 97.1063L170.704 97.8296L170.523 89.873Z" fill="#272327"/>
<path d="M46.1141 91.6836L46.6566 92.4069L48.1033 95.8427H44.125L45.7525 92.2261L46.1141 91.6836Z" fill="white"/>
<path d="M169.079 61.8457H169.802L169.441 63.8348L167.994 68.5364L167.632 68.7173L167.813 67.0898L167.994 66.7281L167.09 67.0898L167.271 66.0048L168.536 62.9307L169.079 61.8457Z" fill="#282428"/>
<path d="M64.556 90.416L67.9918 90.5968L68.896 91.501H63.8327V93.8518H63.6519V92.586H63.2902L63.1094 91.3202L63.6519 90.5968L64.556 90.416Z" fill="#423F42"/>
<path d="M150.635 90.5977L151.539 90.9593L151.901 90.5977L151.72 91.5018L148.284 91.6826H145.571V93.8526H145.391V90.9593L145.571 90.7785L150.635 90.5977Z" fill="#423F42"/>
<path d="M259.135 98.1934L262.028 98.3742L262.209 98.7359L262.028 99.0975L257.869 99.4592L255.699 99.2783V98.555L256.423 98.3742L259.135 98.555V98.1934Z" fill="#423F42"/>
<path d="M3.43864 90.7773H7.77859L8.68274 91.3198L8.50191 91.6815L3.43864 91.5007V94.394H3.25781V90.9582L3.43864 90.7773Z" fill="#423F42"/>
<path d="M125.498 90.7773H130.019L130.381 90.9582L130.562 91.6815H125.318L125.137 92.0432L125.318 90.9582L125.498 90.7773Z" fill="#423F42"/>
<path d="M275.226 90.7773H278.481L279.928 90.9582L280.289 91.5007H274.684L274.864 90.9582L275.226 90.7773Z" fill="#423F42"/>
<path d="M28.7539 95.2988L29.1156 95.4797L29.4772 98.7346L29.8389 98.373L30.0197 96.5646H30.2006V99.6388H28.7539V95.2988Z" fill="#201C20"/>
<path d="M1.81155 59.8574H2.35404V62.2082L1.99238 61.4849H1.63072L1.08822 63.8357L0.726562 64.1974V62.5699L1.26906 60.3999L1.81155 59.8574Z" fill="#272327"/>
<path d="M28.755 89.873H30.3825L30.2017 91.3197L29.84 91.1389V90.7772H29.4784L29.2975 91.3197L29.1167 93.6705L28.9359 94.0322L28.5742 93.8513L28.755 89.873Z" fill="#282428"/>
<path d="M215.914 90.0547H223.147L223.509 90.2355V91.1397L222.966 90.5972L217.361 90.4163L215.914 90.2355V90.0547Z" fill="#272327"/>
<path d="M261.12 98.0117H262.567L262.748 98.1925V99.2775L261.844 99.6392H258.77V99.4584L260.578 99.0967H262.024V98.5542L260.035 98.3734V98.1925L261.12 98.0117Z" fill="#2D292D"/>
<path d="M79.0218 0L79.7451 0.180831L79.926 1.26582H79.5643L79.3835 1.98914L78.6602 2.3508V0.904155L79.0218 0Z" fill="#262226"/>
<path d="M187.343 94.3945H187.524V99.6386H186.258V98.3728L186.619 99.0961H186.981L187.162 98.192L187.343 94.3945Z" fill="#201C20"/>
<path d="M128.21 98.3711H129.475L129.837 98.7328L129.475 99.0944H127.848L126.582 98.9136L126.944 98.5519L128.21 98.3711Z" fill="#423F42"/>
<path d="M22.4232 96.3828H22.604V99.8186H20.9766V99.4569L22.2424 99.2761L22.4232 96.3828Z" fill="#262326"/>
<path d="M250.269 59.8574L250.992 60.2191L250.812 61.3041H250.45V60.9424L249.727 61.3041L249.907 60.0383L250.269 59.8574Z" fill="#282428"/>
<path d="M202.353 91.3203L202.534 91.682L202.895 91.8628L202.534 94.2136H202.353L202.172 93.3095V91.5011L202.353 91.3203Z" fill="#423F42"/>
<path d="M165.824 99.2773H167.813L168.718 99.4582L168.537 99.8198H166.548L165.824 99.639V99.2773Z" fill="#2A262A"/>
<path d="M273.6 96.5645H274.142L274.323 97.6494L273.238 97.4686L273.6 96.5645Z" fill="#423F42"/>
</svg>
