<svg width="300" height="69" viewBox="0 0 300 69" fill="none" xmlns="http://www.w3.org/2000/svg">
<path d="M97.8494 10.2402H103.159L103.538 19.3426L103.159 33.3755L104.297 32.9962L106.573 29.2036L108.09 28.0658H110.365L111.503 28.8243L111.882 32.9962L113.399 33.3755L113.779 31.0999L115.296 28.445L116.054 28.0658H119.468L119.847 28.445V34.8926L121.364 33.3755L124.398 28.445L125.157 28.0658H128.57L128.949 33.7548V67.8888L128.57 68.268H123.64L123.26 67.8888L122.881 41.7194L120.226 45.512L118.709 47.7876L117.571 48.1669H114.916L114.537 47.7876L113.779 37.5474L111.882 37.1682L111.503 47.7876L110.744 48.1669H97.8494V41.7194L96.3323 43.2364L94.0567 47.0291L92.9189 48.1669H89.5055L88.3677 47.4084V45.1328L86.4714 46.2706L84.9543 47.7876L83.058 48.1669L80.7824 47.4084V41.7194L80.4031 40.5816L78.5068 43.995L76.2312 47.4084L75.4727 48.1669L71.68 47.7876V41.3401L69.7837 43.2364L67.1288 47.4084L65.6117 48.1669L63.7154 47.7876L63.3361 47.4084L62.9568 42.0986L62.1983 42.4779L59.9227 47.0291L58.4056 48.1669H55.3715L54.613 47.7876L54.2337 39.4438L50.8203 37.5474L51.1996 35.2718L54.9922 28.445L55.3715 28.0658H61.0605V33.3755L62.9568 31.4792L64.8532 28.445L65.6117 28.0658H69.0251L69.4044 28.445L69.7837 32.617L70.9215 32.2377L73.1971 28.445L73.5763 28.0658H76.9897L77.369 34.8926L79.2653 32.9962L81.9202 28.8243L83.058 28.0658H86.0921L86.4714 28.445V39.0645L88.747 37.9267L89.1263 37.1682L89.5055 28.445L89.8848 28.0658H94.8153L95.1945 36.7889L95.9531 38.306L97.8494 39.0645V10.2402Z" fill="#8C3F3A"/>
<path d="M236.664 27.3066H242.353L242.732 29.203L242.353 32.2371L243.87 31.4786L246.525 27.3066H268.522L268.143 29.5822L265.868 33.7542L265.488 36.0298L268.902 29.203L270.798 27.3066H274.211L274.591 29.9615V37.5468L275.349 37.9261L276.866 37.5468L277.246 34.892L277.625 27.6859L278.004 27.3066H282.935L283.314 36.7883L284.452 37.9261L285.589 38.6846L285.21 40.9602L282.176 46.27L281.038 47.4078H276.866L276.108 47.0285V44.7529L274.591 45.1322L273.453 47.0285L272.694 47.4078H268.902L268.522 38.6846L267.764 36.7883H266.247L262.075 44.7529L260.558 47.0285L259.799 47.4078H245.008L245.387 45.5114L250.318 36.409L251.835 33.3749L247.663 33.7542L246.904 36.0298L242.353 44.3736L241.215 46.6492L240.457 47.0285H236.285L235.905 39.0639L234.768 37.9261L233.251 37.1676L232.871 64.854L232.492 65.6126H227.562L227.182 65.2333L226.803 47.787L219.597 47.4078L217.701 46.6492L216.184 42.8566L216.563 40.9602L220.356 34.892L224.148 29.203L225.286 27.6859H232.492L232.871 28.0652V32.9956L234.009 32.6164L235.147 29.9615L236.664 27.3066Z" fill="#8C3F3A"/>
<path d="M152.463 9.86133L157.773 10.2406V33.7551L159.29 32.2381L161.945 28.4454L163.462 27.6869L165.738 28.0661L166.117 30.3417V37.1685L166.496 39.0649L169.151 39.4441L169.53 28.0661H182.046L183.184 29.5832L183.563 32.9966L182.046 36.7893L178.633 40.5819L177.116 42.4783V43.2368H179.012L182.046 39.0649L183.942 39.4441L185.839 40.9612L185.46 42.8575L182.805 47.0295L182.046 47.788H169.53L169.151 42.8575L168.013 43.2368L165.358 47.4087L164.979 47.788H160.428L160.049 45.5124V43.6161H158.911L158.152 46.2709L157.015 47.788H152.463L152.084 42.4783L150.567 44.3746L148.291 47.788L146.774 48.1673H133.5L134.259 45.8917L139.189 37.1685L144.119 28.0661H151.326V33.7551L150.946 34.5137L147.154 34.8929L143.361 41.7197L142.982 42.8575L145.637 42.099L147.154 39.8234L149.05 39.4441L151.705 40.9612L152.084 40.5819V10.2406L152.463 9.86133Z" fill="#8C3F3A"/>
<path d="M187.738 28.0664H193.048L193.427 28.8249L193.048 32.6176H194.565L195.324 30.7213L196.841 28.4457L197.22 28.0664H201.013L201.392 32.6176L202.53 32.2383L204.426 28.4457L205.185 28.0664H208.598V32.6176L207.46 48.1675H204.426L203.288 47.7883V41.72L201.392 43.6163L199.116 47.409L196.461 48.1675L195.324 47.7883L194.944 42.4785H194.186L192.669 45.8919L191.531 47.7883L190.393 48.1675H187.738L187.359 47.7883L186.98 39.8237L184.704 37.9273L183.566 37.5481L183.946 35.2725L186.98 28.8249L187.738 28.0664Z" fill="#8C3F3A"/>
<path d="M286.727 26.9277H289.761L293.175 27.6863L299.622 32.2375L300.002 32.6167V47.0289H291.658V64.8544L291.278 65.2337H286.348L285.969 43.6155V27.307L286.727 26.9277Z" fill="#8C3F3A"/>
<path d="M23.1353 1.51758H25.4109L26.5487 13.2748L27.3072 25.7907V27.3077H28.0657L28.8243 25.4114L32.2377 19.7224L35.6511 15.1712L37.9267 13.2748H38.6852L38.3059 15.1712L32.9962 23.1358L28.8243 29.9626L25.7901 35.2723L24.6523 37.5479L23.8938 37.1687L22.756 24.6529L21.9975 11.7578L21.6182 8.72365L19.7219 18.2053L16.6877 27.3077L14.0329 32.2382L12.8951 34.1345L9.86094 36.7894L6.8268 38.3065L2.65487 39.065L0.758533 38.3065L0 37.1687L0.379267 35.2723L1.1378 34.8931H7.58533L9.86094 33.7553L12.5158 30.7211L14.7914 26.1699L16.6877 20.8602L18.5841 12.5163L19.7219 3.79318L12.8951 5.31025L9.1024 7.20658L6.44753 10.2407L6.06827 10.9992V14.4126L7.9646 18.2053L7.58533 20.1017L6.06827 20.4809L4.17193 18.9639L3.4134 17.0675V12.137L5.30973 8.34438L8.34387 5.31025L12.1365 3.41391L18.9633 1.89684L23.1353 1.51758Z" fill="#652E2B"/>
<path d="M20.4791 20.8594L21.2377 21.2386L21.9962 27.6862L20.8584 31.8581L20.4791 36.7886L21.2377 41.719L22.7547 44.7532L24.2718 46.6495L28.0645 48.5458H33.3742L37.5462 47.0288L41.7181 43.6154L42.8559 42.4776H44.7522L44.373 43.9946L41.7181 47.0288L36.7876 50.0629L33.3742 51.2007L31.0986 51.58H26.1681L21.2377 50.0629L17.445 47.408L14.7901 43.6154L13.6523 40.5812V34.8922L17.0657 29.2032L19.3413 23.5142L20.0999 21.2386L20.4791 20.8594Z" fill="#622D2A"/>
<path d="M18.9633 1.89648L22.3767 2.27575V5.68915L21.9975 8.34402L21.2389 10.2404L19.7219 18.205L16.6877 27.3074L14.0329 32.2378L12.8951 34.1342L9.86094 36.789L6.8268 38.3061L2.65487 39.0646L0.758533 38.3061L0 37.1683L0.379267 35.272L1.1378 34.8927H7.58533L9.86094 33.7549L12.5158 30.7208L14.7914 26.1696L16.6877 20.8598L18.5841 12.516L19.7219 3.79282L12.8951 5.30989L9.1024 7.20622L6.44753 10.2404L6.06827 10.9989V14.4123L7.9646 18.205L7.58533 20.1013L6.06827 20.4806L4.17193 18.9635L3.4134 17.0672V12.1367L5.30973 8.34402L8.34387 5.30989L12.1365 3.41355L18.9633 1.89648Z" fill="#672F2C"/>
<path d="M41.7174 13.6543L43.993 14.4128L44.7516 15.1714L44.3723 18.5848L40.5796 33.7554V35.2725L47.4064 35.6518L47.0272 37.1688L43.993 37.5481L34.8906 37.1688L35.6492 33.3762L38.6833 22.3774L40.9589 14.4128L41.7174 13.6543Z" fill="#672F2B"/>
<path d="M36.0314 10.6191H43.996L50.4435 12.1362L51.202 12.8947L50.8228 16.6874L49.3057 22.7557L48.9264 23.5142L47.4094 23.1349L47.0301 17.0667L45.513 14.0325L42.8582 12.8947H36.4106L30.3424 15.9289L28.8253 17.0667H28.0668L27.6875 14.4118L28.8253 13.274L33.3765 11.3777L36.0314 10.6191Z" fill="#642D2A"/>
<path d="M48.9259 0H49.3052L48.9259 3.03413L46.6503 9.86094L45.5125 10.2402L40.582 9.1024L41.3406 7.20607L46.271 2.2756L48.9259 0Z" fill="#873D38"/>
<path d="M259.039 33.7539H260.935L260.556 35.6502L257.901 40.2014L256.764 40.96H254.867L255.246 39.0636L258.281 34.1332L259.039 33.7539Z" fill="#FEFFFE"/>
<path d="M1.1378 34.8926H4.93047V36.7889L6.44753 37.1682L6.8268 38.306L2.65487 39.0645L0.758533 38.306L0 37.1682L0.379267 35.2718L1.1378 34.8926Z" fill="#6A302D"/>
<path d="M25.4109 4.17188H25.7901L26.5487 13.2743L26.1694 19.3425L25.4109 18.9633L25.0316 17.0669L24.6523 11.3779V5.30968H25.4109V4.17188Z" fill="#8D403B"/>
<path d="M48.9259 0H49.3052L48.9259 3.03413L47.0296 3.4134L46.271 4.5512L45.1332 4.93047L44.3747 6.8268H43.6162L42.8576 8.72313L43.6162 9.1024H40.582L41.3406 7.20607L46.271 2.2756L48.9259 0Z" fill="#622C29"/>
<path d="M38.6865 29.582L39.0657 30.3406L38.6865 32.2369V35.6503L40.5828 36.0296L47.0303 36.4088V37.1674L43.9962 37.5466L35.6523 37.1674L36.4109 35.6503L38.3072 29.9613L38.6865 29.582Z" fill="#8D403B"/>
<path d="M4.55012 36.0312L4.92939 36.7898L6.44645 37.1691L6.82572 38.3069L2.65379 39.0654L1.13672 38.3069L1.89525 36.7898L4.55012 36.0312Z" fill="#8D403B"/>
<path d="M292.035 35.6504L293.931 36.0297L295.069 37.1675L294.69 39.0638L293.173 39.4431L292.035 38.3053V35.6504Z" fill="#FEFFFE"/>
<path d="M226.045 35.6504H226.803V39.4431H224.148V37.926L226.045 35.6504Z" fill="#FEFFFE"/>
<path d="M106.194 39.8223L106.952 40.2015L106.573 43.6149L104.677 43.9942L103.918 43.6149L104.297 42.0979L106.194 39.8223Z" fill="#FEFFFE"/>
<path d="M48.9258 0H49.3051L48.9258 3.03413L47.0295 3.4134L46.271 4.5512L44.7539 4.17193L47.788 0.758533L48.9258 0Z" fill="#69302C"/>
<path d="M77.3711 36.0312L78.8882 36.7898L80.7845 38.3069V39.8239L78.8882 39.0654V38.3069L77.3711 37.5483V36.0312Z" fill="#FEFFFE"/>
<path d="M20.8608 2.27539L22.3779 2.65466V5.68879L21.9986 8.34366H21.6194V4.55099L21.9986 3.41319H20.1023V6.44732H19.723L19.3438 3.41319L20.8608 2.27539Z" fill="#8D403B"/>
<path d="M175.219 33.7539H176.737L176.357 36.4088L174.84 36.788L174.461 35.271L175.219 33.7539Z" fill="#FEFFFE"/>
</svg>
