<svg width="207" height="100" viewBox="0 0 207 100" fill="none" xmlns="http://www.w3.org/2000/svg">
<path d="M73.167 0H75.9752L76.7552 0.156006L76.9112 0.780031L78.1592 1.87207L78.7833 2.18409L79.2513 2.34009V2.65211L80.1873 2.96412L81.5914 4.05616L82.9954 5.61622L84.0875 7.95632L84.5555 10.1404V12.0125L84.0875 13.8846L83.1514 16.3807L82.2154 17.7847L80.4993 19.1888L80.0313 19.9688V21.0608L81.1234 20.9048L84.0875 19.1888L85.6475 17.9407L86.2716 17.6287L86.5836 17.0047L87.6756 15.7566L88.6117 14.0406L89.0797 12.1685L89.2357 10.6084V7.02028L89.7037 7.17629L91.2638 9.51638L93.2919 13.7285L94.2279 17.0047L94.5399 18.8768V23.7129L93.9159 26.6771L92.6678 30.1092L91.7318 31.8253L90.6397 33.5413L89.5477 34.9454L88.2996 36.3495L87.3636 36.6615V37.4415L85.8036 38.5335L82.3714 40.5616L79.5633 41.8097L77.3792 42.4337L75.9752 42.7457H72.543L68.3308 42.1217L65.9908 41.3417L64.1187 40.4056L63.8067 39.7816V38.6895L63.3386 39.0016L63.1826 39.6256L61.7786 39.1576L59.7505 37.4415L58.6585 36.1934L56.3184 33.0733L55.0703 31.0452L53.8223 28.3931L52.8862 25.741L52.5742 22.6209V19.8128L52.8862 17.0047L53.6663 14.0406L54.6023 11.7005L55.8503 9.51638L57.0984 7.80031H57.4104L57.7224 7.17629L59.1265 5.61622L61.4666 3.74415L63.1826 2.65211L65.3667 1.56006L68.1748 0.624025L70.5149 0.156006L73.167 0Z" fill="#EBFFF8"/>
<path d="M25.1162 35.8809H37.2847V36.1929L35.5687 37.2849L35.1006 37.9089L35.2566 39.625L36.6607 44.1492L38.5328 49.7654L40.7169 56.0057L42.4329 61.6219L43.837 65.522L44.617 68.0181L45.085 69.1102L47.1131 70.3582L46.8011 70.8263L46.3331 70.9823H34.7886L33.8526 70.6703L34.3206 70.2022L35.1006 69.5782L35.5687 68.7982L35.4126 67.3941L34.4766 64.274L33.5406 60.9979L33.3846 60.6859L24.6482 60.5298L24.3362 60.6859L22.7761 65.21L21.9961 68.1742L22.3081 69.1102L23.5562 70.2022L24.1802 70.6703V70.9823L23.7122 71.1383H14.5078L14.8198 70.2022L16.0679 68.7982L17.0039 66.9261L18.408 63.338L20.5921 56.6297L22.6201 51.0135L24.8042 44.3052L26.2083 40.093L26.5203 38.689L26.3643 37.4409L25.5843 36.5049L24.9602 36.3489L25.1162 35.8809Z" fill="#7A594E"/>
<path d="M9.04836 81.9023H204.992L206.084 82.0583L206.24 83.9304L193.604 84.0864H53.3541L0.624025 83.9304L0.156006 83.7744L0 82.2144L0.156006 82.0583L9.04836 81.9023Z" fill="#803F3A"/>
<path d="M77.5332 2.49609H79.2493L81.1213 3.58814L82.5254 4.99219L83.4614 6.55226L84.2415 8.58034L84.5535 10.1404V12.0125L84.0855 13.8845L83.1494 16.3806L82.2134 17.7847L80.4973 19.1888L80.0293 19.9688V21.0608L81.1213 20.9048L84.0855 19.1888L85.6455 17.9407L86.2696 17.6287L86.5816 17.0047L87.6736 15.7566L88.6096 14.0406L89.0777 12.1685L89.2337 10.6084V7.02027L89.7017 7.17628L91.2618 9.51637L93.2898 13.7285L94.2259 17.0047L94.5379 18.8767V23.7129L93.9139 26.6771L92.6658 30.1092L91.7298 31.8253L90.6377 33.5413L89.5457 34.9454L88.6096 36.0374H87.8296L84.2415 32.4493L82.2134 29.6412L80.6533 26.9891L79.4053 24.493L78.1572 21.3728L77.0652 17.0047L76.4412 12.7925L76.2852 11.0764V9.20436L76.7532 5.1482L77.0652 3.27612L77.5332 2.49609Z" fill="#047E3E"/>
<path d="M176.598 52.2617H185.802L188.766 52.7297L190.326 53.3538L191.574 54.2898L192.51 55.5378L192.978 56.9419L193.446 60.062V63.3382L193.134 65.8343L192.354 67.7063L191.418 68.9544L190.482 69.7344L188.766 70.3584L185.49 70.8265L182.526 70.9825L182.214 71.1385V73.3226L182.37 76.7547L182.526 77.8467L183.306 78.4708L183.15 79.2508H182.058L181.278 79.0948H178.002L177.222 79.2508L176.91 78.7828V77.8467L177.222 77.0667V53.1978L176.598 52.8857V52.2617Z" fill="#7A594E"/>
<path d="M77.6914 2.18359H78.7835L79.2515 2.49561H77.5354L77.0674 3.89966L76.5994 7.3318L76.4434 9.20388V11.0759L76.9114 15.2881L77.6914 19.0323L78.4715 21.8404L79.7195 24.8045L81.5916 28.3926L83.1517 30.7327L84.7117 32.7608L87.8319 35.8809L88.4559 36.193L87.3638 36.661V37.441L85.8038 38.5331L82.3716 40.5611L81.5916 40.7171L82.2156 40.0931L85.0237 38.5331L86.7398 37.441L86.8958 37.129L84.0877 35.8809L80.6556 33.6969L78.6275 32.1368L76.7554 30.2647L75.1953 28.2366L73.7913 25.8965H73.4793L73.0113 26.3646L73.3233 25.4285L73.4793 24.6485L73.1673 23.4004L73.0113 21.9964L72.2312 21.5284H71.2952L67.083 23.4004L64.4309 24.6485L63.1829 25.4285H62.7148L63.1829 23.5564L64.8989 18.8763L66.147 15.7561L67.707 12.636L69.2671 10.1399L71.2952 7.64381L71.4512 6.86378L71.1392 6.55177L71.2952 5.92774L72.5432 4.99171L74.4153 4.8357L74.5713 5.45972L73.9473 6.55177L73.3233 8.73586L73.0113 9.35988H72.6992V9.67189L71.9192 9.98391L71.7632 10.2959L71.6072 13.5721L72.3872 13.26L73.1673 11.232L74.2593 9.51589L74.8833 9.35988L75.3513 9.67189L75.8194 7.79982L76.2874 6.70778L76.4434 5.92774L76.5994 3.27564L77.3794 2.3396L77.6914 2.18359Z" fill="#DDFFF1"/>
<path d="M113.261 39.625H113.573L113.417 40.561L113.261 60.3738L114.197 59.7498L115.757 58.3457L117.161 57.2537L118.097 56.0057L119.813 54.4456L120.437 53.3535L120.593 52.5735L120.749 52.4175L122.777 52.2615H124.493L124.181 52.8855L122.153 54.4456L120.749 55.5376L120.125 56.3177L120.281 57.2537L121.373 59.5938L121.997 60.6858L122.621 62.2459L123.713 63.962L124.805 66.1461L126.209 68.6422L127.613 70.2022L127.925 70.5142V70.9823L127.613 71.1383L126.053 70.9823H121.997L121.529 70.5142L120.905 67.8621L120.125 65.9901L118.409 63.0259L117.785 61.6219L116.849 60.0618L116.069 60.3738L113.417 63.0259V69.5782L114.041 70.6702L113.573 70.9823H108.268L107.488 70.6702L107.8 69.8902L108.112 69.2662V43.9932L109.984 42.9011L111.544 41.4971L112.792 40.249L113.261 39.625Z" fill="#795A4E"/>
<path d="M142.121 52.2617H144.305L147.738 52.5737L149.142 53.1978L150.234 54.4458L150.858 55.6939L151.014 56.3179L151.326 68.4864L151.482 69.7344L152.106 70.6705L151.95 71.2945L151.17 71.1385L141.653 70.9825L137.909 70.6705L136.661 70.2024L135.881 69.5784L135.257 68.4864L134.945 66.7703V64.1182L135.569 61.7781L136.037 61.1541L137.129 60.6861L137.909 60.53L143.993 60.374L145.085 60.062L145.397 59.438L145.866 58.346L146.022 57.5659V56.3179L145.553 55.3818L144.929 54.9138L143.993 54.7578H141.185L139.001 55.0698L137.129 55.8499L135.725 56.6299H134.789L134.945 55.6939L135.881 54.4458L137.285 53.5098L139.157 52.7297L140.561 52.4177L142.121 52.2617Z" fill="#7A5A4F"/>
<path d="M73.479 25.7402L74.1031 26.0522L75.3511 28.2363L76.5992 29.7964L78.0032 31.3565L79.7193 32.9165L82.3714 34.6326L84.3995 35.8806L86.8956 36.9727V37.4407L85.4915 38.3767L82.5274 40.0928L80.3433 41.0288L77.8472 41.6529L76.5992 41.8089H70.9829L67.5508 41.1849L64.5867 40.0928L63.8066 37.4407L62.7146 33.8526L62.5586 32.1365L64.7427 31.9805L66.7708 31.3565L68.6428 30.4204L70.5149 29.1724L72.075 27.7683L73.479 25.7402Z" fill="#047E3E"/>
<path d="M73.167 0H75.9752L76.5992 0.156006L76.4432 0.624025L73.6351 1.87207L70.3589 3.74415L67.8628 5.61622L66.3028 6.86427L63.3386 9.82839L61.7786 11.8565L60.2185 14.1966L58.9705 16.6927L57.8784 19.5008L57.2544 21.8409L56.9424 24.025V27.9251L57.4104 30.2652L58.5025 32.7613L60.0625 35.7254L61.6226 37.9095L62.2466 38.8456L61.4666 38.5335L59.4385 36.9735L58.0344 35.4134L56.0064 32.6053L54.7583 30.4212L53.8223 28.3931L52.8862 25.741L52.5742 22.6209V19.8128L52.8862 17.0047L53.6663 14.0406L54.6023 11.7005L55.8503 9.51638L57.0984 7.80031H57.4104L57.7224 7.17629L59.1265 5.61622L61.4666 3.74415L63.1826 2.65211L65.3667 1.56006L68.1748 0.624025L70.5149 0.156006L73.167 0Z" fill="#2A764B"/>
<path d="M79.25 52.2617H85.1782L84.7102 53.8218L84.5542 54.7578L84.7102 63.9622L85.0222 66.4583L85.3342 67.3943L86.8943 68.1744L87.8303 68.4864L91.7305 68.7984L92.6665 68.6424V65.0542L92.5105 53.3538L92.3545 52.8857L91.8865 52.5737L92.9785 52.2617H97.8147L98.5948 52.5737L98.2828 53.3538L97.8147 53.8218L97.6587 65.0542V70.0464L98.1268 70.2024L98.2828 70.6705L97.8147 71.1385H96.2547L94.3826 70.9825H90.0144L85.6463 70.6705L83.3062 70.0464L81.7461 69.2664L81.1221 68.6424L80.6541 67.2383L80.186 66.6143L79.874 65.6783L79.718 62.2461L79.562 53.9778L79.25 52.2617Z" fill="#7A594E"/>
<path d="M166.772 39.3145H166.928V42.2786L166.772 43.6826V69.8917L168.02 70.5157L167.864 71.1397H165.524L160.844 70.9837L160.688 70.3597L161.624 69.4237L161.78 68.3316V43.6826L164.12 42.2786L165.524 40.8745L166.772 39.3145Z" fill="#7A5A4F"/>
<path d="M69.2669 52.1055H70.2029L69.8909 52.8855L69.1109 54.6016L68.1748 56.7857L67.2388 59.2818L66.4588 61.1538L64.7427 65.366L63.9627 67.7061L63.4947 69.2662L61.9346 73.0103L60.3745 75.6624L59.1265 77.3785L57.8784 78.4705L56.4744 79.0945H53.5103L52.8862 78.4705L53.8223 78.1585L53.9783 77.8465L56.0064 77.0665L56.9424 76.4424L58.0344 75.3504L59.7505 72.5423L60.3745 70.9822L59.9065 69.5782L58.8145 67.0821L58.1904 65.522L57.0984 63.0259L56.4744 60.5298V60.2178L55.8503 59.9058L55.2263 57.8777L54.6023 57.4097L54.2903 55.8496L53.6663 54.4456L53.5103 53.9775L52.8862 53.6655L52.5742 53.0415L52.7302 52.2615H58.5025L58.8145 52.4175L58.6585 53.1975V55.0696L59.5945 57.5657L60.3745 59.5938L60.6865 60.5298L61.1546 61.7779L61.6226 63.6499L62.4026 65.21V65.522H62.8706L63.1826 64.43L63.8067 63.0259L64.7427 60.2178L66.3028 55.6936L66.7708 54.2896V53.5095L66.1468 52.5735V52.2615L69.2669 52.1055Z" fill="#7A594E"/>
<path d="M206.241 83.6191L206.397 84.0872L206.085 84.3992L204.993 84.5552L189.705 84.3992L167.864 84.5552L159.439 84.7112L157.723 84.8672L154.447 84.7112H150.859L149.611 84.5552L144.931 84.3992H124.65L116.85 84.5552L108.737 85.6472H102.185L99.533 85.3352L92.6687 85.0232H87.8325L85.8044 85.1792L83.1523 85.3352L73.4799 85.1792L69.1117 84.7112L66.4596 84.5552L60.8434 84.3992L42.2787 84.2432H17.9417L14.0415 84.3992L13.8855 84.8672H13.1055V84.5552L11.8574 84.3992L11.7014 84.2432H0.937012L0.625 83.9312H206.241V83.6191Z" fill="#FAF1EB"/>
<path d="M30.5772 81.9023H204.992L206.084 82.0583L206.24 83.9304L193.604 84.0864H53.3541L0.624025 83.9304L0.156006 83.7744L0 82.2144L0.156006 82.0583H4.36818V82.2144H0.468019L0.936037 83.1504V83.4624H1.71607V83.6184H156.786L168.487 83.7744L185.023 83.6184H196.724L205.772 83.4624L205.928 82.3704L201.248 82.2144L189.392 82.3704H184.555H184.087L156.006 82.2144H104.212L83.9314 82.3704H57.5663L52.8861 82.2144L30.5772 82.0583V81.9023Z" fill="#7A5A4F"/>
<path d="M128.392 89.0801L130.888 89.3921L131.824 89.8601L132.76 91.1082L133.072 91.8882L134.32 92.0442L134.944 92.2002L136.66 92.0442L136.972 92.2002L137.284 94.3843L138.22 96.2564L138.532 96.4124L139.312 93.9163L139.936 92.2002L140.404 91.8882L141.496 92.0442L142.588 92.3562L141.34 94.8523L140.56 96.8804L139.624 99.2205L139.156 99.6885H138.22L137.752 99.8445L136.972 99.0645L136.036 97.8164L135.568 95.9444L134.632 93.9163L134.32 92.6682L132.76 92.3562L132.604 93.4483L131.824 94.8523L131.044 95.4763L130.732 95.6323L127.612 95.7883V99.3765L127.3 99.5325H124.18V90.1721L124.336 89.2361L128.392 89.0801Z" fill="#120E0E"/>
<path d="M182.371 54.6016H185.491L186.895 55.0696L187.831 56.3176L188.299 57.8777L188.455 60.5298V64.2739L188.299 66.146L187.675 67.2381L186.583 68.1741L185.803 68.4861L184.711 68.6421H182.371L182.215 68.4861V54.7576L182.371 54.6016Z" fill="#FEFEF4"/>
<path d="M71.1377 3.12109L71.4497 3.2771L69.4217 4.83716L68.1736 6.55323L67.5496 7.80128L66.4575 8.73732L65.0535 9.51735L64.4295 10.7654L62.7134 12.3255L62.0894 13.8855L61.3093 14.6656H60.9973L60.6853 15.2896L60.2173 15.9136H59.7493L59.4373 16.6936L58.8132 18.0977L58.0332 20.5938L57.5652 21.9978L57.2532 24.962V27.7701L57.8772 30.1102L58.1892 30.7342V31.2022H58.5012L58.9692 32.1383L59.5933 32.6063H60.2173L60.0613 31.3582L59.7493 30.2662L59.9053 29.1741L60.2173 28.3941L60.0613 26.366L60.6853 26.054L61.4653 26.522L61.6213 27.4581L61.3093 28.0821V29.6422L61.7774 31.0462L63.1814 31.5142H65.3655L67.0816 30.8902L69.5777 29.4861L70.9817 28.3941L71.7618 27.7701L72.8538 26.366V26.834L71.7618 28.2381L69.8897 29.7982L67.5496 31.2022L65.3655 31.9822L64.7415 32.1383H62.5574L63.1814 34.9464L64.1174 37.9105L64.5855 39.7826V40.0946L65.3655 40.2506L67.5496 41.0306L70.9817 41.6546H76.5979L79.2501 41.1866L81.1221 40.5626H81.5901L81.4341 41.0306L79.094 41.9666L76.754 42.5907L75.9739 42.7467H72.5418L68.3296 42.1227L65.9895 41.3426L64.1174 40.4066L63.8054 39.7826V38.6905L63.3374 39.0025L63.1814 39.6266L61.7774 39.1585L59.7493 37.4425H60.2173L61.9334 38.6905L61.6213 38.0665L60.5293 36.6624L59.1252 34.3223L57.5652 31.0462L57.0972 29.6422L56.7852 27.9261V24.0259L57.2532 21.0618L58.3452 17.7857L59.5933 14.9776L61.1533 12.4815L63.1814 9.82936L63.8054 9.04933L65.0535 7.95729L65.9895 7.17726L66.7696 6.39722L68.7976 4.68116L71.1377 3.12109Z" fill="#DCFEF0"/>
<path d="M72.3872 6.24023L72.5432 6.70825L71.4512 9.82838L71.1392 12.3245V14.8206L71.4512 18.7207L71.9192 21.2168L69.5791 22.3089L66.771 23.5569L64.2749 24.805L63.1829 25.429H62.7148L63.1829 23.5569L64.8989 18.8767L66.147 15.7566L67.707 12.6365L69.2671 10.1404L71.2952 7.64429L72.3872 6.24023Z" fill="#2B764B"/>
<path d="M34.1646 89.0801H36.0366L36.6607 89.7041L37.9087 92.5122L38.8447 95.1643L39.4688 97.3484V97.8164H39.7808L40.5608 98.9085V99.3765L39.7808 99.5325L37.1287 99.3765L36.6607 97.8164H33.0725L32.6045 98.9085L31.8245 99.5325L31.2004 99.6885H29.7964L29.4844 99.3765L29.9524 97.6604L30.5764 96.4124L31.8245 92.5122L32.7605 90.0161L33.6965 89.2361L34.1646 89.0801Z" fill="#110E0D"/>
<path d="M99.5315 91.7324H100.312L100.936 92.5125L101.404 92.6685L104.368 92.0444H106.084L106.864 92.6685L107.332 94.2285V99.5327L105.928 99.6887H104.836L104.68 99.3767V94.3845L103.276 94.2285L102.496 94.3845L102.34 95.6326V99.5327L101.248 99.6887L99.8435 99.5327L99.6875 99.0647V94.0725L97.6594 94.2285L97.5034 95.1646L97.3474 99.2207L97.1914 99.5327H94.6953V93.9165L94.8513 92.0444L95.9434 92.2004L96.2554 92.3564H98.2835L99.5315 91.7324Z" fill="#100C0D"/>
<path d="M42.4321 89.2363H47.5803L49.1404 89.5483L50.0764 90.3284L50.7005 91.8884L50.5445 92.9805L49.9204 94.2285L49.2964 95.0086L47.8923 95.6326L44.7722 95.9446L44.9282 99.3767L44.6162 99.5327H42.5881L41.9641 99.2207L41.8081 98.9087L41.4961 89.3923L42.4321 89.2363Z" fill="#130F0F"/>
<path d="M77.8472 51.1699L81.2793 51.4819H85.1795L86.8955 51.7939L86.7395 52.418H86.4275V52.73L85.6475 53.198L85.4915 53.822H85.1795L85.0235 54.6021V58.8142L85.1795 63.3384L85.3355 65.3665L85.8035 66.7705L86.5835 67.2386L87.8316 67.7066H89.7036L91.7317 67.8626L92.0437 67.5506L92.3558 67.3946L92.1997 64.7425V58.8142L92.0437 53.666L91.4197 53.51L90.9517 52.73V52.106L92.0437 51.7939L93.4478 51.6379L94.0718 51.4819L97.1919 51.6379L98.284 51.7939L99.064 52.262L98.908 53.198L98.284 53.978L98.128 55.3821V69.7347L98.908 69.8907L99.22 70.2027L99.064 70.9827L98.596 71.1387V71.4507L97.504 71.6067L94.6958 71.4507H90.0157L85.1795 71.2947L84.0874 70.9827L82.9954 70.5147L81.9033 69.8907L80.8113 69.1106L80.0313 67.7066L79.2512 65.0545L79.0952 63.3384L78.9392 58.8142V56.1621L78.7832 53.978L77.5352 51.7939V51.3259L77.8472 51.1699ZM79.2512 52.262L79.5632 53.978L79.7192 62.2464L79.8752 65.6785L80.4993 67.0826L80.9673 68.0186L81.2793 68.7986L82.2153 69.5787L84.2434 70.3587L85.6475 70.6707L90.0157 70.9827H95.3199L96.2559 71.1387H97.816L98.284 70.6707L97.972 70.0467H97.66V65.0545L97.816 53.822L98.596 52.886L98.44 52.418L97.816 52.262H92.9798L91.8877 52.574L92.3558 52.886L92.5118 53.354L92.6678 65.0545V68.6426L91.5757 68.7986L87.8316 68.4866L85.4915 67.5506L85.1795 67.2386L84.8674 65.8345L84.7114 63.9624L84.5554 54.7581L85.0235 52.73L85.1795 52.262H79.2512Z" fill="#FAF1EB"/>
<path d="M57.2537 89.2363H62.8699L64.586 89.5483L65.366 90.3284L65.834 92.2004L65.99 92.3565L67.0821 92.5125V92.8245H65.678L65.522 93.4485L64.742 95.0086L63.0259 95.6326L61.7778 95.7886H60.3738L60.5298 97.6607L60.6858 98.5967L60.3738 99.2207L58.5017 99.5327H57.2537L57.0977 89.3923L57.2537 89.2363Z" fill="#14100F"/>
<path d="M18.7224 89.0801H21.5305L21.6865 89.3921L21.5305 95.4763L21.8425 97.0364L22.7786 97.3484L24.6507 97.1924L25.2747 96.8804L25.4307 96.2564V91.8882L25.2747 89.0801H26.9907L28.3948 89.2361L28.5508 89.8601L28.3948 95.4763L27.9268 97.3484L26.9907 98.7525L26.0547 99.3765L25.5867 99.5325H21.8425L20.1265 98.9085L19.1904 98.1284L18.7224 96.8804L18.5664 95.4763V89.2361L18.7224 89.0801Z" fill="#120E0E"/>
<path d="M182.057 89.0801H183.929L184.241 89.2361V96.5684L184.085 99.5325L182.369 99.6885L181.901 99.2205L180.341 99.3765L179.717 99.6885H178.469L177.221 98.5965L176.441 97.6604L176.285 96.8804V94.5403L176.753 93.2922L177.845 92.2002L178.937 91.8882L180.809 92.2002L181.589 92.5122V89.3921L182.057 89.0801Z" fill="#171212"/>
<path d="M52.2629 51.4824H56.1631L59.5952 51.7944L59.9072 52.1064L59.7512 52.7305L59.1272 53.0425L58.9712 54.2905L59.4392 56.1626L60.5313 59.2827L61.3113 60.9988L61.7793 63.1829L62.4033 64.4309V64.743L63.1834 63.9629L63.4954 63.1829L63.9634 61.3108L64.1194 60.3748L64.4314 60.2188L65.5235 57.0986L66.4595 54.6025V53.5105L65.3675 52.2625L65.5235 51.6384L66.7715 51.7944L67.5516 51.9504L70.3597 51.7944V52.4185L69.2676 54.9146L68.3316 57.0986L67.2395 60.0628L65.8355 64.4309L65.2115 65.991L64.4314 68.3311L63.3394 70.5152L62.0913 73.3233L61.1553 74.7274L60.3753 76.1314L59.1272 77.8475L57.5672 78.9395L56.0071 79.4075L54.447 79.5635L52.575 79.2515L50.8589 78.7835L50.5469 78.1595L51.6389 77.3795L54.915 77.0674L56.3191 76.5994L57.2551 75.8194L58.5032 73.7913L59.5952 70.5152L59.2832 69.5791L58.6592 68.1751L57.8792 66.303L57.4111 64.899L55.8511 61.7788L55.0711 61.1548L54.915 59.9068L55.0711 59.7508V58.3467L53.979 57.7227L53.823 57.0986V55.8506L52.731 54.1345L51.9509 52.8865V51.9504L52.2629 51.4824ZM69.2676 52.1064L66.1475 52.2625L66.4595 53.0425L66.7715 53.5105L66.6155 54.7586L64.8994 59.9068L63.9634 62.5589L63.3394 64.2749L62.8714 65.211V65.523H62.4033L62.0913 64.743L61.3113 62.7149L60.8433 60.8428L60.5313 60.3748L59.9072 58.3467L59.1272 56.3186L58.6592 55.0706V53.1985L58.8152 52.4185L58.5032 52.2625H52.731L52.575 53.0425L53.199 53.9785H53.511L53.823 54.6025L54.447 56.1626L54.603 57.4107L55.3831 58.1907L55.8511 59.9068L56.4751 60.2188L56.9431 62.4029L57.7232 64.4309L58.6592 66.927L59.7512 69.2671L60.3753 70.6712L59.9072 72.3873L58.9712 73.7913L57.8792 75.5074L56.6311 76.7554L54.603 77.6915L53.979 77.8475L53.511 78.3155L52.887 78.6275L53.511 79.0955H56.4751L57.8792 78.4715L59.4392 77.0674L61.3113 74.1033L62.5594 71.6072L63.3394 69.4231L63.8074 68.3311L64.5874 65.679L65.8355 62.7149L68.0196 57.2547L68.7996 55.3826L69.7356 53.0425L70.2037 52.4185V52.1064H69.2676Z" fill="#FAF1EB"/>
<path d="M107.643 43.6816L108.423 43.8376L108.111 43.9937L108.267 44.4617V69.2667L107.487 70.6707L108.267 70.8267H113.571L113.883 70.5147L113.259 69.5787V63.0264L116.223 60.0623L116.847 59.9063L117.783 61.3103L119.499 64.7425L120.747 66.9266L121.527 69.5787L121.683 70.8267H126.051L127.611 70.9827H127.923L127.455 70.2027L126.363 69.1107L125.115 67.0826L124.023 64.8985L122.775 62.7144L121.995 61.3103L121.527 60.2183L120.435 57.8782L119.967 56.9422L120.123 56.0061L121.215 54.9141L124.023 52.886L124.491 52.262L120.747 52.574L120.279 53.9781L119.499 54.7581L119.811 53.9781L120.123 53.354V52.262L121.215 51.95H122.931L123.399 51.794L125.115 51.638L125.427 51.95L124.803 52.886L124.179 53.354H123.711V53.666L121.839 54.9141L120.591 56.0061L120.435 56.4742L121.215 58.1902L121.839 59.2823L122.463 59.9063V60.5303L122.775 60.6863L123.399 61.7784L124.335 62.8704L125.895 66.1465L126.207 66.9266H127.767V67.3946L127.299 67.7066V68.6426H127.611L128.391 70.0467L128.859 70.6707V71.2947L128.079 71.6068H124.023L123.399 71.7628H121.527L120.747 71.1387V69.5787L120.591 68.3306L119.967 66.9266L119.187 65.2105L118.875 64.2745H118.563L117.471 61.4664L116.691 60.3743L116.223 60.5303L115.443 61.3103L113.883 63.0264H113.571L113.727 67.5506V69.1107L114.351 69.4227L114.663 70.3587L114.507 70.9827L114.195 71.4508L113.415 71.6068H111.699L111.543 71.4508H109.359L108.111 71.6068L106.707 71.2947L106.395 70.9827V70.0467L107.175 69.4227H107.643L107.799 67.8626V45.2417L107.331 44.7737V43.9937L107.643 43.6816Z" fill="#FAF1EB"/>
<path d="M67.7068 89.2363H70.5149L70.3589 92.3565L73.167 92.2004L73.323 91.7324H73.635L73.791 92.0444L74.5711 92.3565L75.3511 93.6045L75.5071 94.3845V99.5327L73.947 99.6887L73.167 99.5327V94.2285H70.3589V99.3767L69.4229 99.6887L67.5508 99.5327L67.7068 95.0086V89.2363Z" fill="#151110"/>
<path d="M81.2786 91.8867L83.6187 92.0427L84.5547 92.5107L85.1787 93.6028L85.3347 94.2268L85.4907 99.375L85.3347 99.531H83.7747L83.6187 99.375H81.7466L79.8745 99.843L78.7825 99.687L77.6904 98.439L77.0664 97.971L77.2224 97.0349L78.6265 95.7869L80.1865 95.1628L82.2146 94.8508L82.0586 93.7588H80.4985L79.5625 94.3828L78.7825 94.5388L77.8464 94.2268L78.0024 92.8228L78.4705 92.3547L79.7185 92.0427L81.2786 91.8867Z" fill="#14100F"/>
<path d="M112.167 91.8867H113.727L114.819 92.1987V92.5107L115.443 92.6667V92.3547H114.975V92.0427H115.911L116.535 92.6667L117.003 93.6028L117.159 94.6948L117.315 99.531H115.599L114.975 99.375L114.663 98.907L113.571 99.375L113.103 99.531H110.763L109.359 99.063L109.203 98.283V96.4109L109.515 96.0989L111.075 95.4749L112.479 95.0068L114.351 94.8508L114.039 93.7588L113.103 93.6028L112.011 93.9148L111.387 94.3828L110.139 94.5388L109.515 93.2908V92.8228L111.543 92.0427L112.167 91.8867Z" fill="#140F0F"/>
<path d="M160.375 89.0801L163.339 89.2361V97.0364L164.899 96.8804H167.239L168.331 97.1924L168.643 98.1284L168.487 99.5325H160.375L160.219 95.7883V89.2361L160.375 89.0801Z" fill="#140F0F"/>
<path d="M82.9951 5.61719L83.4631 5.9292L84.2432 7.64527L84.5552 8.4253L84.7112 9.36134L84.8672 12.7935L85.4912 12.6375L86.2713 11.3894L86.7393 10.9214H87.2073L87.6753 12.3255L88.7674 12.4815L88.9234 11.8574V8.73731L88.7674 7.80128L88.1433 7.64527V6.70923L88.9234 6.24121L90.0154 7.17725L90.1714 7.80128L89.2354 7.02124L89.3914 8.73731V10.6094L89.0794 12.7935L88.6113 14.3535L87.6753 15.9136L86.2713 17.6297L84.0872 19.3457L81.123 21.0618L80.031 21.2178L79.875 21.0618V19.9698L80.655 18.8777L82.2151 17.6297L83.1511 16.0696L84.2432 12.9495L84.3992 12.0134V10.1414L83.7752 7.64527L82.9951 5.9292V5.61719Z" fill="#DDFFF1"/>
<path d="M166.46 34.0098L166.616 34.4778L165.368 37.5979L164.432 39.002L163.028 40.562L161.624 41.6541L160.064 42.4341L158.348 42.9021H157.1L156.32 42.5901L156.164 41.8101L156.32 40.718L156.788 39.938H157.1L157.568 39.002H157.88L158.036 38.5339L163.964 35.5698L166.148 34.1658L166.46 34.0098Z" fill="#2A764A"/>
<path d="M112.637 34.3223L113.105 34.7903L113.261 35.7263L112.481 36.9744L111.545 38.5344L109.673 40.7185L108.113 41.8106L106.553 42.5906L104.681 42.7466L104.057 42.9026L103.277 42.2786L103.121 41.3425L103.433 40.2505L104.681 39.1585L105.461 38.3784L107.333 37.2864L108.893 36.6624L110.297 36.1943L110.921 35.8823L111.545 34.9463L112.481 34.4783L112.637 34.3223Z" fill="#28764A"/>
<path d="M144.617 62.4023H146.021L146.334 62.7144L146.178 66.7705V68.0186L145.553 68.6426L143.837 68.7986L141.809 68.6426L140.561 68.0186L139.937 66.7705L139.781 65.8345V64.4304L140.405 63.4944L142.121 62.8704L144.617 62.4023Z" fill="#FAF1EB"/>
<path d="M146.646 89.3906L147.114 89.5466V91.7307L148.206 92.0427L148.986 92.9788L148.83 93.7588L148.206 94.0708L147.114 94.2268V97.3469L148.518 97.815L148.674 97.971L148.518 99.375L147.426 99.687L145.554 99.531L144.462 98.907L144.306 95.1629L144.15 94.0708L142.902 93.4468L142.746 92.6668L143.214 92.0427H144.15L144.462 90.4827L145.554 89.8586L146.646 89.3906Z" fill="#120E0E"/>
<path d="M28.5501 48.0508L29.1741 48.3628L30.1101 50.8589L31.5142 54.447L32.1382 56.3191L31.9822 56.7871L31.0462 56.9431H25.5859L25.8979 55.3831L27.146 51.6389L27.77 49.4548L28.5501 48.0508Z" fill="#FDFDFC"/>
<path d="M172.23 89.3906L173.166 89.5466L173.322 91.2627L173.478 91.7307L174.57 92.0427L174.882 92.3547V93.9148L174.726 94.0708L173.322 94.2268L173.01 96.5669V97.3469L174.57 97.659L174.882 97.971L175.194 99.531L175.038 99.687L170.982 99.531L170.67 97.971L170.514 94.2268L169.734 94.0708L169.578 93.6028V92.3547L170.202 91.7307L170.982 90.3267L172.23 89.3906Z" fill="#130F0F"/>
<path d="M132.762 91.5762L133.23 91.8882L134.322 92.0442L134.946 92.2002L136.662 92.0442L136.974 92.2002L137.286 94.3843L138.222 96.2564L138.534 96.4124L139.314 93.9163L139.938 92.2002L140.406 91.8882L141.498 92.0442L142.59 92.3562L141.342 94.8523L140.562 96.8804L139.626 99.2205L139.158 99.6885H138.222L137.754 99.8445L136.974 99.0645L136.038 97.8164L135.57 95.9443L134.634 93.9163L134.322 92.6682L132.762 92.3562V91.5762Z" fill="#130F0F"/>
<path d="M55.0684 81.5918H184.71L202.182 81.7478V81.9038L75.3492 82.0598H60.0606L48.8281 81.9038V81.7478L55.0684 81.5918Z" fill="#FAF1EB"/>
<path d="M175.82 51.1699L177.068 51.3259V51.4819L175.82 51.7939L178.316 51.4819V51.7939L184.4 51.95L186.584 52.106L188.144 52.418V52.574L185.804 52.418H176.6L176.912 53.042L177.38 53.51V77.067L177.068 77.847V78.783L177.224 79.095L178.004 78.939H181.28L182.06 79.095H183.152L182.996 78.315L182.372 77.847L182.216 76.7549L182.06 73.3228V71.1387L182.528 70.8267L187.052 70.5147L189.86 69.8907L191.108 69.1106L192.044 68.0186L192.824 66.3025L193.136 65.0545L193.292 63.3384V58.8142H193.448L193.604 59.7503V64.2744L193.136 66.4585L192.044 68.6426L191.42 69.4227L189.392 70.5147L186.272 71.1387L184.4 71.2947H182.684V73.0108L182.84 75.8189L183.152 77.847L183.464 78.003L183.62 78.471V79.5631L182.84 79.7191H180.344L176.444 79.8751L176.132 79.7191V77.379L176.756 77.067L176.912 65.9905V53.666L175.664 53.042L175.352 52.73V51.7939L175.82 51.1699Z" fill="#FAF1EB"/>
<path d="M166.927 38.6895H167.239V42.1216L167.083 52.886V58.6583L167.239 67.5506L167.083 69.7347L167.863 70.0467L168.331 70.6707L168.175 71.2948L167.551 71.4508H162.559L160.999 71.2948L160.531 70.9827L160.375 70.3587L160.687 69.5787L160.999 69.2667L161.155 67.5506V45.5537L161.311 43.6817L161.467 43.3696L162.091 43.5256L161.935 44.3057V68.3306L161.779 69.4227L160.999 70.0467L160.843 70.9827H167.863V70.5147L166.615 69.8907V43.2136L166.771 42.2776V39.4695L166.615 39.1575L166.927 38.6895Z" fill="#FAF1EB"/>
<path d="M69.2673 52.1055H70.2034L69.8914 52.8855L69.1113 54.6016L68.1753 56.7857L67.2393 59.2818L66.4592 61.1538L65.2112 64.274L64.2751 65.054L63.9631 64.898L64.1191 65.678L63.4951 68.0181H63.0271L62.8711 67.3941L63.0271 65.99V64.898L63.8071 63.0259L64.7432 60.2178L66.3032 55.6936L66.7713 54.2896V53.5095L66.1472 52.5735V52.2615L69.2673 52.1055Z" fill="#7A594E"/>
<path d="M63.3386 2.80859L63.8067 2.9646L63.0266 3.74463L62.0906 4.36866L61.6226 4.83667H61.3106L60.9986 5.4607L59.5945 6.55274L58.5025 7.80079L57.0984 9.67287L55.6943 12.013L54.7583 14.3531L54.4463 15.2891L54.2903 15.9131L53.8223 17.6292L53.1982 17.9412L53.5103 18.2532L53.8223 18.4092L53.9783 17.6292L54.6023 17.1612L55.0703 17.0052V16.5371L55.3823 15.6011H55.6943L55.3823 17.3172H55.0703L55.2263 18.2532L55.0703 19.3453L54.7583 19.5013L54.2903 21.0613L54.6023 22.4654L55.0703 23.2454H54.7583L55.0703 24.6495L55.3823 25.8975H55.0703L54.9143 25.2735H54.6023V27.4576L54.1343 27.9256L53.9783 26.9896L54.1343 26.6775L53.6663 26.5215L53.3542 25.8975V24.1814L52.8862 21.5293H52.7302L52.5742 19.8133L52.8862 17.0052L53.6663 14.041L54.2903 12.637L54.7583 12.169L55.2263 11.2329L55.5383 10.7649H56.0064V10.2969L56.4744 9.20485L56.9424 9.04884L57.0984 8.42482L58.6585 6.70875L59.4385 5.92872L60.9986 4.52466L61.9346 3.74463L62.7146 3.43262L63.3386 2.80859Z" fill="#047E3E"/>
<path d="M91.4194 92.043H93.1355L92.9795 93.447L90.4834 94.6951L90.3274 95.0071L90.1714 99.5313H87.6753L87.3633 99.3753V93.135L87.5193 92.199H89.2354L90.1714 92.355L91.4194 92.043Z" fill="#120E0E"/>
<path d="M83.4648 5.92773L84.0889 6.23975L84.7129 7.33179L85.3369 7.6438L85.9609 6.39575L86.741 5.92773H88.301L88.7691 6.39575L88.301 6.70777V7.6438L88.7691 7.79981L89.0811 8.73585V11.856L88.7691 12.636L87.677 12.48L87.209 11.2319V10.9199L86.429 11.388L85.4929 12.792L84.7129 12.948L84.5569 9.35987L84.2449 8.11182L83.6208 6.55176L83.4648 5.92773Z" fill="#ECFFF9"/>
<path d="M182.371 54.6016H185.491L186.895 55.0696L187.831 56.3176L188.299 57.8777L188.455 60.5298V64.2739L188.299 66.146L187.675 67.2381L186.583 68.1741L185.803 68.4861L184.711 68.6421H182.371L182.215 68.4861V54.7576L182.371 54.6016ZM182.995 54.9136L182.527 55.2256V66.9261L182.683 67.7061L183.463 68.0181H185.803L187.051 67.3941L187.675 66.302L187.987 65.366V57.7217L187.519 56.3176L186.583 55.2256L185.491 54.9136H182.995Z" fill="#FAF1EB"/>
<path d="M150.701 55.2266L151.013 55.5386L151.169 56.1626L151.325 59.5947L151.481 67.7071L151.637 69.5791L152.106 70.0472L152.262 71.4512H141.497L138.377 71.2952L136.817 70.9832L135.257 69.7351L134.789 68.6431L134.633 67.7071V63.8069L135.413 61.4668L135.881 60.9988L136.505 60.6868L137.129 60.8428L135.881 61.4668L135.257 63.4949L135.101 64.1189V66.771L135.569 68.7991L136.349 69.8911L137.285 70.3592L139.781 70.6712L141.653 70.8272L151.169 70.9832L151.95 71.1392L151.793 70.5152L151.325 69.7351L151.169 68.4871L150.857 56.3186L150.701 55.2266Z" fill="#FAF1EB"/>
<path d="M63.3391 2.80859L63.8072 2.9646L63.0271 3.74463L62.0911 4.36866L61.6231 4.83667H61.3111L60.999 5.4607L59.595 6.55274L58.5029 7.80079L57.0989 9.67287L55.6948 12.013L54.7588 14.3531L54.4468 15.2891L54.2908 15.9131L53.8228 17.6292L53.1987 17.9412V19.3453H53.0427L52.8867 18.4092V17.0052L53.6667 14.041L54.2908 12.637L54.7588 12.169L55.2268 11.2329L55.5388 10.7649H56.0068V10.2969L56.4749 9.20485L56.9429 9.04884L57.0989 8.42482L58.6589 6.70875L59.439 5.92872L60.999 4.52466L61.9351 3.74463L62.7151 3.43262L63.3391 2.80859Z" fill="#0B7D40"/>
<path d="M66.6152 55.6934L67.2393 56.0054L66.9273 57.8774L66.6152 58.6575L66.3032 60.0615L65.9912 60.8416L65.5232 62.4016L64.8992 64.2737L64.2751 65.0537L63.9631 64.8977L64.1191 65.6778L63.4951 68.0179H63.0271L62.8711 67.3938L63.0271 65.9898V64.8977L63.6511 64.5857L63.9631 63.6497L64.4312 61.7776L64.8992 60.8416L65.3672 59.4375L65.6792 58.0335L66.6152 55.6934Z" fill="#803F3A"/>
<path d="M180.033 93.916L181.125 94.072L181.593 94.54L181.749 95.9441L181.437 97.1921L180.813 97.6602H179.253L178.629 97.0361L178.473 96.7241V95.3201L178.941 94.384L179.253 94.072L180.033 93.916Z" fill="#FCFBFB"/>
<path d="M60.0637 8.11328L60.6878 8.26929L60.2197 9.98536L59.9077 10.6094L59.5957 11.3894L59.1277 12.0134H58.8157L58.3477 13.4175L57.8796 14.0415L57.5676 14.1975L57.2556 15.1336L56.9436 14.5095L56.1636 15.2896L56.3196 14.3535L55.8516 14.1975L56.1636 14.0415L56.9436 12.4815H57.2556V11.7014L57.4116 11.0774L58.0357 10.4534L58.9717 10.1414L59.2837 9.20533V8.73731L59.9077 8.42529L60.0637 8.11328Z" fill="#047E3E"/>
<path d="M42.2791 60.998L42.5911 61.4661L43.6831 64.1182L44.4632 66.6143L45.0872 66.9263L45.5552 66.6143L45.8672 66.7703V67.3943L44.9312 67.7063L45.2432 69.1104L46.3352 69.4224V69.7344L47.1153 70.0464L47.2713 70.8264L46.6473 71.1385L45.3992 71.2945L36.8189 71.4505L34.4788 71.2945L33.3867 70.9824L33.5427 70.3584L34.3228 69.8904H34.6348L34.9468 69.2664L35.4148 68.9544L35.1028 69.7344L34.3228 70.3584L34.0107 70.5144L34.7908 70.8264H46.3352L46.9593 70.5144L46.1792 69.8904L44.9312 69.1104L43.9951 66.6143L42.4351 61.9341L42.2791 60.998Z" fill="#FAF1EB"/>
<path d="M112.949 33.0742L113.573 33.2302V35.1023L113.261 35.7263L112.793 34.6343H112.48L111.388 35.2583L110.92 36.0383L109.516 36.5064L107.8 37.2864L105.928 38.2224L104.992 38.8464L104.212 39.7825L103.432 40.5625L103.276 41.6546L103.588 42.4346L104.212 42.7466L104.992 42.5906L104.68 43.2146L103.744 43.5266L102.808 42.7466L102.496 42.1226V41.0305L102.964 39.9385L104.524 38.5344L107.488 36.8184L109.204 36.0383L110.608 35.5703L111.388 34.7903L112.324 34.3223L112.636 33.5422L112.949 33.0742Z" fill="#DDFFF1"/>
<path d="M150.234 96.7246H153.198L153.354 97.0366V99.0647L153.198 99.3767L152.106 99.5327H150.39L150.234 99.2207L150.078 96.8806L150.234 96.7246Z" fill="#1B1514"/>
<path d="M186.894 96.7246H188.61L189.234 97.1926L189.39 97.6606V98.9087L189.234 99.3767L188.766 99.5327H186.894L186.27 99.2207V97.6606L186.582 96.8806L186.894 96.7246Z" fill="#1E1816"/>
<path d="M128.081 90.7949L129.641 91.1069L130.265 91.731V92.979L129.485 93.603L128.393 93.915L127.457 93.759L127.301 93.447V91.1069L128.081 90.7949Z" fill="#FAF1EC"/>
<path d="M113.574 38.8457L114.198 39.0017L114.042 39.9377L113.73 40.2498L113.574 49.9221V59.1265L113.886 59.5945L114.822 58.9705L115.758 58.0345H116.07V57.7225L116.85 57.2544L117.474 56.1624L118.254 55.3824L119.034 55.0704L118.098 56.1624L117.006 57.5665L115.29 58.9705L113.886 60.2186L113.262 60.3746V40.2498L113.73 39.3137L113.418 39.1577L113.574 38.8457Z" fill="#FAF1EB"/>
<path d="M28.5501 48.0508L29.1741 48.3628L30.1101 50.8589L31.5142 54.447L32.1382 56.3191L31.9822 56.7871L31.0462 56.9431H25.5859L25.8979 55.3831L27.146 51.6389L27.77 49.4548L28.5501 48.0508ZM28.8621 48.5188L28.238 48.9868L26.366 54.603L26.21 56.1631L26.678 56.4751L29.3301 56.7871H30.7341L31.6702 56.4751V55.5391L30.2661 51.7949L29.7981 50.7029L29.0181 48.5188H28.8621Z" fill="#FAF1EB"/>
<path d="M45.0852 90.9512H46.4893L47.1133 91.2632L47.4253 91.8872V93.1353L46.9573 93.6033L46.4893 93.7593H45.0852L44.7732 93.2913L44.6172 91.5752L44.7732 91.1072L45.0852 90.9512Z" fill="#FCFBFA"/>
<path d="M60.8428 91.1074H62.4028L63.0269 91.5754V93.2915L62.2468 93.6035H60.9988L60.2188 93.2915V91.7314L60.8428 91.1074Z" fill="#FCFBFA"/>
<path d="M34.6348 92.3555L35.2588 92.6675L35.8828 93.9155L36.1948 95.0076V95.6316H33.5427L33.3867 95.4756L33.5427 94.2275L34.4788 92.5115L34.6348 92.3555Z" fill="#FCFAF9"/>
<path d="M73.48 25.7402L74.104 26.0522L75.3521 28.2363L75.9761 29.0164L75.8201 29.3284L74.104 28.3923L73.48 28.0803L72.5439 28.2363L72.0759 28.3923V28.7044H71.7639L71.6079 29.1724H70.6719L71.4519 28.3923L72.5439 27.1443L73.48 25.7402Z" fill="#2B764B"/>
<path d="M63.3401 2.80859L63.8081 2.9646L63.0281 3.74463L62.0921 4.36866L61.624 4.83667H61.312L61 5.4607L59.596 6.55274L58.5039 7.80079L57.0999 9.67287L56.3198 10.9209L56.0078 10.7649V10.2969L56.4758 9.20485L56.9438 9.04884L57.0999 8.42482L58.6599 6.70875L59.4399 5.92872L61 4.52466L61.936 3.74463L62.7161 3.43262L63.3401 2.80859Z" fill="#047E3E"/>
<path d="M58.8162 84.5547L59.7522 84.7107H61.1563L63.1843 85.3347L64.9004 85.6467L64.4324 85.8027L64.2764 86.4268H61.7803L59.5962 86.1147L58.6602 85.8027V85.6467L61.6243 85.4907V85.1787H59.5962L58.6602 84.8667L58.8162 84.5547Z" fill="#FAF1EB"/>
<path d="M84.2449 34.3223H85.9609L87.209 35.5703L87.365 36.3503L86.897 36.6624L84.8689 36.0383L83.9329 35.5703L83.4648 34.4783L84.2449 34.3223Z" fill="#ECFEF9"/>
<path d="M63.4934 2.49609L63.8054 2.6521L62.8694 3.43213L62.4014 3.74414L61.6214 4.05616L60.8413 4.83619L59.1253 6.39625H58.8132L58.5012 7.02028L57.0972 8.58034L56.9412 9.04836L56.3171 9.67238L56.0051 10.9204L55.5371 10.7644L54.7571 12.3245L54.2891 12.6365L54.6011 11.7005L55.8491 9.51638L57.0972 7.80031H57.4092L57.7212 7.17628L59.1253 5.61622L61.4653 3.74414L63.1814 2.6521L63.4934 2.49609Z" fill="#1E7947"/>
<path d="M66.6162 14.5078L66.7722 14.8198L65.5242 17.6279L63.8081 22.3081L63.4961 22.6201L63.6521 21.6841L63.8081 20.5921V19.188L64.1201 17.7839L64.9001 16.6919L65.6802 16.2239L66.6162 14.5078Z" fill="#DDFFF1"/>
<path d="M23.7146 35.4141H25.4307L26.9907 35.5701L37.2871 35.7261V35.8821L35.7271 36.0381H25.1187L24.9626 36.3501L24.0266 36.1941L23.5586 35.7261L23.7146 35.4141Z" fill="#FAF1EB"/>
<path d="M114.352 95.9434H114.508V97.3474L114.352 97.8154L113.572 98.1274H112.167L111.855 97.9714V96.7234L112.479 96.2554L114.352 95.9434Z" fill="#FCFAF9"/>
<path d="M157.723 38.5332L158.035 38.6892L157.879 39.0012H157.567L157.255 39.6252L156.631 40.4053L156.319 41.1853V42.4334L157.099 42.7454H158.347L160.532 42.1213L161.78 41.3413L163.496 39.9373L164.744 38.5332V39.0012L162.872 41.0293L161.312 42.2774L158.971 43.0574H156.631L155.851 42.5894L155.695 42.2774L155.851 40.7173L157.099 39.1572H157.411L157.723 38.5332Z" fill="#F5F3EB"/>
<path d="M141.497 52.1055H145.241L148.049 52.4175L149.297 53.0415L149.921 53.6655L149.765 53.9775L148.673 53.0415L147.737 52.7295L144.305 52.4175H142.121L139.781 52.7295L137.597 53.5095L136.349 54.2896L135.881 54.4456L135.569 55.0696L134.945 56.0056L134.789 56.6297H135.725L135.413 56.9417H134.633L134.477 56.3176L134.945 55.2256L135.257 54.6016L136.037 53.9775H136.349V53.6655L139.001 52.5735L139.469 52.4175L141.497 52.1055Z" fill="#FAF1EB"/>
<path d="M81.4353 96.0996H82.5273L82.6834 96.7236L82.3713 97.8157L81.4353 98.1277H80.1873L80.0312 97.9717V97.0356L80.6553 96.4116L81.4353 96.0996Z" fill="#FCFAF8"/>
<path d="M64.8984 40.873L65.8345 41.0291L67.2385 41.6531L69.1106 42.1211L72.5427 42.5891H75.9749L78.471 41.9651L79.095 42.1211L76.5989 43.0571L75.0388 43.2131H73.6348L69.4226 42.5891L66.1465 41.6531L64.8984 41.0291V40.873Z" fill="#ECFFF9"/>
<path d="M80.498 93.6035H82.0581L82.3701 94.2275L82.2141 95.0076L79.406 95.4756L79.25 94.6956L79.874 93.9155L80.498 93.6035Z" fill="#FCF9F8"/>
<path d="M58.8145 59.4375L59.1265 59.5935L59.5945 61.4656L59.4385 62.2456L58.5024 63.0256L58.0344 62.5576V61.9336H57.7224L57.5664 61.4656L57.8784 60.5295L58.3464 60.3735L58.6585 59.9055L58.8145 59.4375Z" fill="#803F3A"/>
<path d="M113.103 93.4473L114.195 93.7593L114.351 94.8513L112.011 95.1633L111.387 95.0073V94.2273L112.167 93.6033L113.103 93.4473Z" fill="#FCFBFA"/>
<path d="M66.9277 54.1348H67.0838V55.2268L67.2398 55.5388L66.7717 55.6948L65.6797 58.5029L65.3677 59.751L64.7437 61.6231L64.4316 62.7151L63.9636 63.8072L63.6516 64.7432L63.1836 64.8992L63.3396 64.2752L64.7437 60.219L66.3037 55.6948L66.9277 54.1348Z" fill="#7A5A4F"/>
<path d="M59.1248 64.5859L59.9048 64.8979L60.2168 65.21V66.302L60.3728 67.082V68.1741L60.6848 68.3301L60.5288 68.6421L59.9048 68.4861V67.8621H59.5928L59.2808 66.77L58.9688 66.302V64.7419L59.1248 64.5859Z" fill="#803F3A"/>
<path d="M113.574 38.8457L114.198 39.0017L114.042 39.9377L113.73 40.2498L113.574 49.4541L113.262 49.6101V40.2498L113.73 39.3137L113.418 39.1577L113.574 38.8457Z" fill="#FAF1EB"/>
<path d="M84.3977 36.3496L85.8018 36.8176L87.0498 37.1296L86.2698 37.9097L85.3337 38.2217L84.3977 38.0657L83.9297 37.2856L84.2417 36.5056L84.3977 36.3496Z" fill="#2A764B"/>
<path d="M78.6287 4.99219H79.7207L79.8767 5.61621L80.5007 5.92822L80.0327 6.39624L79.8767 7.02027H80.6567V7.48829L79.5647 7.33228L78.7847 7.48829L78.4727 6.86426L78.6287 6.24024V4.99219Z" fill="#2C764B"/>
<path d="M110.763 39.3145V39.7825L109.359 41.3425L107.799 42.4346L107.487 43.0586H105.771L104.834 43.2146V43.5266H103.898L104.21 43.2146L104.834 42.9026L104.99 42.5906L106.551 42.4346L108.891 41.1865L110.139 40.0945L110.763 39.3145Z" fill="#F8F1EB"/>
<path d="M52.8867 25.7402L53.1987 26.3643L54.4468 29.4844L55.8508 32.1365L57.4109 34.3206L58.0349 35.1006L57.8789 35.4126L56.6309 34.0086L54.9148 31.5125L53.6667 28.8604L53.1987 27.1443L52.8867 26.5203V25.7402Z" fill="#DDFFF1"/>
<path d="M72.8555 84.3984H85.024V84.5544L82.8399 84.7104L81.4358 84.8665H81.1238L79.4077 84.7104H76.4436L72.8555 84.5544V84.3984Z" fill="#FDFDFD"/>
<path d="M70.5147 21.6855L70.9827 21.8416L69.4226 22.6216L66.3025 24.0256L62.8704 25.8977L62.4023 26.0537L62.5583 24.8057L62.8704 24.4937L62.7144 25.4297L66.7705 23.4016L70.5147 21.6855Z" fill="#DDFFF1"/>
<path d="M76.5974 6.55273H77.0654L77.2214 7.17676V8.1128L77.5334 8.2688L77.2214 9.51685L77.0654 10.2969L77.2214 10.9209L76.9094 11.2329L76.7534 11.0769L76.5974 9.51685L76.4414 9.20484V7.33277L76.5974 6.55273Z" fill="#29764A"/>
<path d="M72.8555 26.3652V26.8333L71.7634 28.2373L69.8914 29.7974L67.5513 31.2014L65.9912 31.8255L65.3672 31.6694L67.7073 30.5774L69.5794 29.4854L70.9834 28.3933L71.7634 27.7693L72.8555 26.3652Z" fill="#DDFFF1"/>
<path d="M71.4502 7.80078L71.6062 8.11279L71.1382 9.98487L70.8262 10.4529L69.7341 10.2969L69.5781 9.67286L70.6702 8.42481L71.4502 7.80078Z" fill="#0D130F"/>
<path d="M157.723 38.5332L158.035 38.6892L157.879 39.0012H157.567L157.255 39.6252L156.631 40.4053L156.319 41.1853V42.4334L157.099 42.7454L158.347 42.9014V43.0574H156.631L155.851 42.5894L155.695 42.2774L155.851 40.7173L157.099 39.1572H157.411L157.723 38.5332Z" fill="#DDFFF1"/>
<path d="M24.6472 60.375L33.3836 60.531V60.687L27.9233 60.843H24.6472L24.0232 62.0911L23.8672 61.623L24.3352 60.531L24.6472 60.375Z" fill="#FAF1EB"/>
<path d="M141.499 56.9414H142.747L143.215 57.4094V57.7214L142.123 58.1895L141.187 58.0335L141.031 57.2534L141.499 56.9414Z" fill="#FFFFF4"/>
<path d="M57.5645 19.3457L57.8765 19.5017L57.2524 21.8418L56.9404 24.0259L56.3164 23.7139H56.6284L56.4724 22.6218L56.7844 22.4658L56.6284 21.5298L56.9404 21.0618L56.6284 20.9058L56.9404 20.4377V19.9697H57.2524L57.5645 19.3457Z" fill="#0E7C41"/>
<path d="M77.8477 19.6562L78.3157 19.9683L78.4717 21.0603H79.4077V22.1523L79.0957 22.9324H78.7837L78.0037 20.7483L77.8477 19.6562Z" fill="#27774A"/>
<path d="M113.103 39.002L113.259 39.314H113.727V39.626L113.103 39.938L112.011 41.186L111.699 41.342L112.011 40.562L111.855 39.47L113.103 39.002Z" fill="#FCFAF1"/>
<path d="M72.3882 6.24023L72.5442 6.70825L71.4521 9.82838H71.1401L71.4521 7.9563L70.8281 8.42432L71.1401 7.8003L72.3882 6.24023Z" fill="#27774A"/>
<path d="M66.9255 52.5742H68.0176V53.1982H67.7056L67.5496 54.6023L67.2375 55.3823L66.7695 55.2263H67.0815L66.9255 52.5742Z" fill="#813F3A"/>
<path d="M56.7852 8.58008L56.9412 9.0481L56.3171 9.67212L56.0051 10.9202L55.5371 10.7642L54.7571 12.3242L54.2891 12.6362L54.6011 11.7002L55.8491 9.51612L56.3171 8.89209H56.7852V8.58008Z" fill="#227848"/>
<path d="M59.5935 36.0371H60.0615V36.5051L60.8416 36.8171L62.0896 38.5332L62.2456 38.8452L61.4656 38.5332L60.6855 37.9092L60.0615 37.1292V36.8171L59.4375 36.5051L59.5935 36.0371Z" fill="#077E3F"/>
<path d="M117.941 62.7148L118.253 63.1829L118.565 64.2749H118.877L119.969 66.459L120.125 67.707L119.813 67.083V66.771H119.501L118.721 64.7429L117.941 63.9629V62.7148Z" fill="#FEFEF4"/>
<path d="M36.0388 44.3066H36.3508L36.8188 45.7107L37.1309 46.9587V47.5828L36.5068 47.2708L36.3508 46.6467L36.0388 45.5547L35.8828 44.4626L36.0388 44.3066Z" fill="#813F3A"/>
<path d="M63.6511 38.5332L63.9631 38.6892V40.0933L64.8992 40.7173L64.4312 40.8733L63.1831 40.2493L62.8711 39.6252L63.1831 39.3132L63.4951 38.6892L63.6511 38.5332Z" fill="#ECFFF9"/>
<path d="M102.496 84.3984H108.892L108.268 84.7104H106.708L106.396 84.8665L104.68 84.7104H103.432L102.496 84.5544V84.3984Z" fill="#FDFDFD"/>
<path d="M64.4316 59.75L64.5876 60.218L64.1196 60.374L63.9636 61.7781L63.6516 63.1821H63.1836V62.0901L63.4956 61.6221L63.9636 60.218L64.4316 59.75Z" fill="#FEFEF5"/>
<path d="M186.114 70.9824H187.05L186.738 71.6064L186.27 71.7625H185.178L184.086 71.4504L184.554 71.1384L186.114 70.9824Z" fill="#FEFEF6"/>
<path d="M112.636 96.8789L113.728 97.0349L114.196 96.8789L114.04 97.6589L113.728 97.8149H112.48L112.324 97.3469L112.636 96.8789Z" fill="#FAF1EB"/>
<path d="M182.683 64.7422L182.995 65.3662L183.151 67.0823L184.087 67.8623L183.463 68.0183L182.683 67.7063L182.527 66.6143L182.683 64.7422Z" fill="#FDFDFC"/>
<path d="M186.117 97.8164H186.273L186.429 99.2205L186.897 99.3765L188.769 99.5325V99.8445L187.989 100H186.897L186.117 99.5325L185.805 99.2205L185.961 98.5964L186.117 97.8164Z" fill="#F9F1EB"/>
<path d="M127.457 92.043H128.393L128.237 92.823L127.769 93.291L128.237 93.603V93.291L128.705 93.447V93.759L127.769 93.915L127.457 93.759V92.043Z" fill="#FCFBFB"/>
<path d="M73.168 0H75.9761L76.6001 0.156006L76.4441 0.624025L75.8201 0.780031L75.5081 0.468019L73.168 0.312012V0Z" fill="#087D3F"/>
<path d="M80.968 96.7246H81.748L82.0601 97.5046V97.9727L80.812 97.8167V97.5046L80.5 97.3486L80.968 96.7246Z" fill="#FAF1EB"/>
<path d="M107.643 42.4336H107.955L108.111 43.3696H109.047V43.6816L108.735 43.8376H107.487L106.863 43.0576L107.487 42.9016L107.643 42.4336Z" fill="#FCFDF3"/>
<path d="M63.4954 2.49609L63.8074 2.6521L62.8713 3.43213L62.4033 3.74414L61.6233 4.05616L60.8433 4.83619L60.5312 4.99219L60.6873 4.36817L62.8713 2.80811L63.4954 2.49609Z" fill="#237848"/>
<path d="M58.1914 67.5508H58.5034L59.1274 68.6428L59.7515 70.2029L59.5955 71.2949H59.4395L59.1274 69.8909L58.3474 68.3308L58.1914 67.5508Z" fill="#FFFFF4"/>
<path d="M79.5625 2.80859L80.3425 3.12061L81.5906 4.05664L82.5266 4.99268L82.3706 5.30469L81.1226 4.21265V3.90064L80.1865 4.21265V3.43262L79.5625 2.80859Z" fill="#267749"/>
<path d="M66.3042 21.6855L66.7722 22.1536L66.9282 22.4656L67.8643 21.9976L68.1763 22.1536L68.0203 22.6216L66.9282 22.9336L66.4602 22.7776L66.6162 22.4656L65.9922 22.3096V21.8416L66.3042 21.6855Z" fill="#037E3E"/>
<path d="M89.3904 8.73633H89.5464L89.7024 10.4524L90.1704 10.9204L90.0144 11.3884L89.3904 12.0125H89.2344L89.3904 8.73633Z" fill="#27774A"/>
<path d="M55.6953 57.7227L56.6313 57.8787L57.0994 58.8147L56.4753 59.2827H56.1633L55.6953 57.7227Z" fill="#813F3A"/>
<path d="M64.2734 38.377L65.5215 39.001L65.6775 39.781L65.3655 39.937L64.4294 39.625L64.2734 38.377Z" fill="#2B764B"/>
<path d="M85.3359 33.3848L85.96 33.5408L87.052 34.7888L87.832 35.5689H88.7681L88.6121 36.0369H87.832L85.3359 33.5408V33.3848Z" fill="#257749"/>
<path d="M113.103 93.4473L113.415 93.6033L113.103 94.0713H112.323L112.167 94.8513L111.387 95.0073V94.2273L112.167 93.6033L113.103 93.4473Z" fill="#FAF2EC"/>
<path d="M68.8 21.2168L70.2041 21.3728L70.0481 21.8408L69.7361 21.6848L69.4241 21.8408L69.2681 22.3088L68.332 22.4648L68.488 21.6848H68.8V21.2168Z" fill="#037E3E"/>
<path d="M132.762 91.5762L133.23 91.8882L134.322 92.0442L134.946 92.5122L134.322 92.6682L132.762 92.3562V91.5762Z" fill="#655A4B"/>
<path d="M110.765 39.3145V39.7825L109.361 41.3425L108.581 41.9666L108.113 41.8106L108.581 41.3425L110.141 40.0945L110.765 39.3145Z" fill="#EBF8EE"/>
<path d="M26.3633 36.5059H27.1433L27.2993 37.4419L26.9873 38.5339L26.6753 38.0659L26.3633 36.5059Z" fill="#813F3A"/>
<path d="M57.5649 19.3457L57.877 19.5017L57.4089 21.0618L56.9409 21.2178L56.6289 20.9058L56.9409 20.4377V19.9697H57.2529L57.5649 19.3457Z" fill="#067E3F"/>
<path d="M128.081 90.7949L128.861 90.9509L128.549 91.575H127.769L127.613 91.887L127.457 91.731V90.9509L128.081 90.7949Z" fill="#FCFBFA"/>
<path d="M34.0078 36.5059H35.2559L35.7239 36.8179L34.7878 37.1299V37.5979L34.3198 37.4419L34.0078 36.9739V36.5059Z" fill="#813F3A"/>
<path d="M79.874 93.916H80.186V94.8521L79.874 95.0081L80.186 95.3201L79.406 95.4761L79.25 94.696L79.874 93.916Z" fill="#FAF2EC"/>
<path d="M77.2227 16.8496L77.6907 17.0056L77.8467 19.5017L77.5347 19.0337L77.2227 17.7856V16.8496Z" fill="#28774A"/>
<path d="M31.0469 52.7305L31.8269 53.0425L32.2949 54.9146H31.9829L31.8269 54.1345L31.3589 53.8225L31.0469 52.7305Z" fill="#80403B"/>
<path d="M113.104 35.4141V35.8821L112.48 36.9741L112.012 36.8181V35.8821H112.48L112.636 35.7261L113.104 35.4141Z" fill="#037F3E"/>
<path d="M112.638 34.3223L112.95 34.7903L112.482 34.9463V35.4143L111.234 35.5703L111.546 34.9463L112.482 34.4783L112.638 34.3223Z" fill="#0D7C41"/>
<path d="M56.7871 8.58008L56.9431 9.0481L56.3191 9.67212L56.1631 10.2961L55.8511 10.4522L55.5391 10.2961L55.8511 9.51612L56.3191 8.89209H56.7871V8.58008Z" fill="#267749"/>
<path d="M57.0977 52.5742H58.0337L58.1897 52.7302V53.5103H57.5657L57.0977 52.5742Z" fill="#813F3A"/>
<path d="M0.625 85.0234L1.40503 85.1794L1.56104 85.6475L1.09302 86.1155H0.625V85.0234Z" fill="#FAF1EB"/>
<path d="M114.666 97.9727L114.978 98.1287V98.7527H113.105L113.573 98.4407L114.666 97.9727Z" fill="#FAF1EB"/>
<path d="M66.7712 1.0918L67.0833 1.2478V1.71582H66.1472L65.9912 2.18384L65.3672 2.02783L65.8352 1.55982L66.3032 1.2478L66.7712 1.0918Z" fill="#127B43"/>
<path d="M113.574 38.8457L114.198 39.0017L114.042 39.9377L113.73 40.2498H113.262L113.73 39.3137L113.418 39.1577L113.574 38.8457Z" fill="#E0EEE3"/>
<path d="M62.7148 32.293H63.8069V32.761H63.4949V33.229L62.7148 33.073V32.293Z" fill="#2D764C"/>
<path d="M60.9998 37.4414L61.7798 38.0654L62.2478 38.8455L61.4678 38.5335L60.8438 37.9094L60.9998 37.4414Z" fill="#1D7946"/>
</svg>
