<svg width="300" height="46" viewBox="0 0 300 46" fill="none" xmlns="http://www.w3.org/2000/svg">
<path d="M3.49693 7.91406H9.0184L10.6748 8.28216L11.9632 9.20241L13.2515 11.7791L15.092 16.9325L16.1963 20.0613L19.1411 28.8957L19.8773 30.5521L20.4294 32.5766L20.9816 32.7607L21.3497 31.1042L23.0061 26.6871L25.5828 19.5092L28.7117 10.8588L29.6319 9.20241L30.7362 8.28216L31.1043 8.09811L32.9448 7.91406H38.6503L39.7546 8.28216L41.0429 9.38646L41.411 10.1227V43.6196L41.0429 44.1717L39.0184 44.9079L38.0982 45.092H36.2577L35.7055 44.7239L34.0491 44.1717L33.681 43.8036L33.4969 16.7484H33.3129L32.3926 20.2454L30.9202 24.1104L25.5828 40.1227L24.2945 43.4355L23.5583 44.5398L21.3497 45.092H19.1411L17.3006 44.5398L16.3804 43.0674L15.2761 40.1227L14.1718 36.9938L13.8037 35.1533L11.5951 28.5276L8.83436 20.0613L7.36196 15.6441L7.17791 44.1717L6.62577 44.5398L5.33742 44.9079L3.12883 45.092L0.368098 44.5398L0 44.1717V10.1227L0.736196 8.65026L1.28834 8.09811L3.49693 7.91406Z" fill="#363435"/>
<path d="M221.043 7.36133L222.7 7.54538L224.54 8.28157L224.908 8.64967L225.092 10.4902V37.7294L224.908 42.6987L223.988 44.1711L223.436 44.5392H216.994L215.522 43.4349L213.865 40.8583L207.24 27.6067L205.583 24.846L203.743 20.981L203.191 19.3245L202.822 18.7724V43.619L202.086 44.3552L200.43 44.9073L198.037 45.0914L196.565 44.5392L195.645 43.803V9.38587L196.565 8.28157L196.933 8.09752L200.062 7.91348H203.559L205.031 8.28157L206.319 9.56992L207.424 11.4104L209.448 15.2754L211.473 19.5086L212.945 22.4534L215.338 27.0546L217.178 30.9196L217.546 31.8399L217.914 32.0239V8.64967L218.651 8.09752L221.043 7.36133ZM202.27 17.484L202.638 18.4043L202.822 17.8521L202.638 17.484H202.27Z" fill="#353233"/>
<path d="M114.296 6.99414H115.216L115.953 7.54629L117.425 7.36224H118.897L120.554 7.91439L122.026 8.28248L124.235 9.57083L125.523 10.6751L126.628 11.4113L127.732 13.0678L127.916 13.6199L128.468 13.804L129.388 16.1966L129.94 16.9328L130.124 18.7733L130.493 19.1414V21.1659L130.861 21.7181V29.8162L130.677 30.1843H130.309L130.677 31.8408L130.124 32.9451L129.756 34.6015L128.836 36.2579L128.652 37.3622L127.548 38.4665L126.812 39.7549L123.867 42.6997L121.658 43.804L119.634 44.5401L118.161 44.7242V45.0923H114.848L114.48 45.2763H113.192L113.008 45.0923H108.959L108.407 44.5401H106.75L105.278 43.6199L104.174 42.8837L103.437 42.1475L102.333 41.5954L101.413 40.8592L101.045 39.7549L99.7564 38.6506L99.0202 36.626L98.468 35.7058L98.284 34.0494L97.7318 33.1291L97.5478 30.9205L97.1797 30.5524V23.1905L97.7318 22.2702V20.7978L98.284 19.3254L98.6521 17.853L99.7564 15.0923L100.493 14.1721L101.229 12.8837L102.701 11.4113H103.069L103.437 10.6751L104.91 9.57083L108.407 7.91439L109.695 7.73034L110.431 7.36224H113.744L114.296 6.99414ZM111.167 13.988L109.327 15.0923L108.223 15.8285L106.566 18.5892L106.014 19.8776L105.462 22.0862L105.278 22.4543L105.462 30.5524L105.83 31.6567V32.577L106.566 34.2334L107.302 35.7058L108.407 36.9941L111.536 38.6506H115.953L118.345 37.9144L121.29 34.9696L122.21 32.761L122.394 32.0248L122.578 30.9205L122.763 30.7365V21.9021L122.394 21.1659V19.3254L120.922 16.5647L119.266 14.9083L117.977 14.3561L116.873 13.988H111.167Z" fill="#363334"/>
<path d="M174.478 6.99414L175.766 7.17819L176.319 7.54629L177.607 7.36224H179.263L181.104 7.91439L182.944 8.65058L185.337 9.93893L187.361 11.7794L188.834 13.6199L189.938 15.8285L190.858 18.0371L190.674 19.5095L191.226 20.0616L191.411 25.215L191.963 25.7671L191.779 26.5033H191.411L191.226 31.2886L190.674 31.8408L190.858 33.4972L190.306 34.7856L189.938 35.3377L189.386 36.9941L188.65 37.9144L186.993 40.4911L185.521 41.7794L184.601 42.3316L182.024 43.988L180.736 44.3561L179.263 44.9083L178.159 45.0923H175.398L175.03 45.4604L174.11 45.2764V44.9083L173.19 45.0923H169.877L169.325 44.5402L168.036 44.7242L165.092 43.0678L163.987 42.5156L161.595 40.123L160.674 38.6506L159.386 36.2579L158.65 34.0494L158.466 32.2089L158.098 31.4727V22.0862L158.65 20.9819V19.6935L159.018 18.7733L159.386 17.4849L160.858 14.5402L162.147 12.3316L163.987 11.0432L165.46 9.75488L168.588 8.09844L170.797 7.36224H174.11L174.478 6.99414ZM177.055 13.804L176.503 13.988H172.085L169.325 15.4604L167.852 17.1168L167.116 18.7733L166.38 20.6138L166.196 22.6383V24.2948L165.644 25.215V27.0555L166.012 27.7917L166.196 31.4727L166.748 33.1291L167.116 34.4175L168.22 35.8898L170.061 37.7303L172.638 38.6506L177.607 38.4665L180.184 36.9941L181.472 35.7058L182.576 33.3132L183.128 31.6567L183.312 29.6322L183.68 29.08V23.3745L183.312 23.0064L183.128 20.4297L182.024 17.4849L181.288 16.0125L179.447 14.7242L177.423 13.804H177.055Z" fill="#363334"/>
<path d="M48.0383 8.09766H67.3635L67.9156 8.46575L68.0997 9.7541V12.1467L67.9156 13.6191L67.3635 13.9872H54.296V22.6375H65.523L65.8911 22.8216V26.8707L65.523 28.5271L64.2347 28.7112H54.296V38.4658H67.1794L67.7316 38.6498L67.9156 39.0179L68.0997 40.8584V43.4351L67.5475 44.3553L64.2347 44.5394H48.2224L47.3021 43.6191L46.75 42.8829V9.386L48.0383 8.09766Z" fill="#363435"/>
<path d="M145.215 6.99414H146.135L146.687 7.54629L148.16 7.36224L149.264 7.54629L150.184 7.91439L151.473 8.09844L152.945 9.01868L153.681 9.93893L154.233 10.8592L154.417 11.9635V13.988L153.497 16.1966L151.841 15.6444L149.816 14.5402L147.424 13.6199L146.871 13.4359L146.135 13.6199H143.743L142.086 14.7242L141.35 15.6444V18.5892L142.822 20.0616L144.847 21.35L146.319 21.9021L149.264 23.3745L151.473 24.6629L152.945 25.7671V26.1352L153.681 26.5033L155.338 28.896L155.89 30.7365V36.626L155.154 39.0187L154.602 39.7549H154.233L153.865 40.6751L153.129 41.7794L152.393 42.3316L151.473 42.8837L148.896 44.3561L147.24 44.7242L146.871 45.0923H143.927L143.375 45.4604L142.454 45.2764V44.9083L140.798 45.0923H139.141L135.46 43.804L134.54 43.0678L133.436 42.3316L133.068 41.9635L132.7 40.4911L132.516 39.2027V38.2825L132.884 37.7303L133.436 36.0739L134.172 35.7058L138.405 37.7303L139.878 38.4665H142.454L143.375 38.6506L143.927 38.4665L146.135 38.2825L147.056 37.3622L148.16 35.7058L148.344 33.8653L147.792 32.577L147.424 31.6567L146.319 31.2886L144.663 30.1843L141.718 28.7119L137.853 26.6874L135.092 23.9267L133.804 21.534L133.62 19.6935V15.0923L134.172 14.1721L134.54 12.8837L135.829 11.0432L137.669 9.20273L140.43 7.91439L141.718 7.36224H143.743L144.479 7.54629L145.215 6.99414Z" fill="#363334"/>
<path d="M82.6364 7.36133H89.4462L91.6548 8.09752L93.8634 9.01777L95.5199 10.3061L96.2561 11.9626V15.4595L95.5199 17.3H94.7837L93.1272 16.1957L90.3665 14.7233L88.7101 14.1711H84.661L82.4524 15.2754L80.98 16.5638L79.6916 18.4043L78.9555 20.6129L78.4033 22.8215V30.3675L79.1395 32.392L80.0597 34.7846L81.3481 36.257L82.4524 37.1773L83.3726 37.7294L85.7653 38.4656L88.8941 38.2816L91.2867 37.3613L94.2315 35.8889L96.072 35.7049L96.2561 36.4411V41.4104L95.3358 42.3307L93.8634 43.2509L91.2867 44.5392L89.0781 45.0914H81.7162L80.98 44.5392L80.0597 44.3552L77.6671 43.4349L75.8266 41.9626L74.7223 41.2264L73.9861 40.3061L73.2499 39.2018L71.7775 36.8092L71.0413 34.9687L70.4892 33.8644V32.392L70.1211 31.6558V21.9012L70.4892 21.3491V19.5086L71.2254 18.2202L72.3297 15.4595L73.618 13.619L74.9064 12.1466L77.115 9.93801L79.8757 8.46562L82.6364 7.36133Z" fill="#363334"/>
<path d="M246.994 27.9746L247.73 28.1587L248.835 30.7353L251.043 36.4409L253.068 41.4102L254.172 44.539V45.0912L251.596 44.9071L251.043 43.9869L250.123 41.5942L249.939 40.1218L243.313 40.3059L242.025 44.539L241.657 44.9071H228.773V28.1587H230.798L230.982 28.3427V42.6985H238.712L239.08 42.8826L239.264 43.8028L239.632 43.9869L240 41.9623L244.786 29.0789L245.338 28.1587L246.994 27.9746ZM246.074 31.4715V32.5758L244.97 35.5206L244.234 37.5452V37.9133L248.835 38.0973L248.467 36.4409L247.178 32.9439L246.626 31.4715H246.074Z" fill="#373536"/>
<path d="M234.847 10.123H236.319L238.712 11.0433L240.184 12.3316L241.84 14.3562L242.025 16.5648L242.209 17.485L242.025 17.6691L241.84 19.6936L239.816 22.0862L238.344 23.1905L236.319 23.9267H235.031L232.454 23.0065L230.798 21.7181L229.509 19.8776L229.325 19.5096L229.141 17.6691L228.957 16.7488L229.141 16.5648L229.325 14.5402L230.613 12.3316L232.822 10.8592L234.847 10.123Z" fill="#ED3237"/>
<path d="M263.558 10.123H265.03L267.423 11.0433L268.895 12.1476L270.552 14.7243L270.736 15.6445V18.5893L270.184 19.8776L269.079 21.35L267.423 23.0065L265.03 23.9267H263.742L261.533 23.1905L259.325 21.5341L258.221 19.6936L257.668 17.6691L257.484 16.5648L258.037 15.4605L258.405 13.9881L259.509 12.3316L260.797 11.2273L263.558 10.123Z" fill="#FFED00"/>
<path d="M248.834 10.123H250.306L252.514 10.8592L254.539 12.3316L255.827 14.1721L256.38 16.3807L256.564 16.5648V17.485L256.195 18.2212L255.827 19.8776L254.355 21.9022L251.962 23.3746L250.306 23.9267H248.834L246.625 23.0065L244.416 20.7979L243.496 19.3255V14.9083L244.416 13.2519L245.521 11.7795L246.993 10.8592L248.834 10.123Z" fill="#009846"/>
<path d="M277.178 10.123H278.834L280.491 10.6752L282.331 11.7795L283.803 13.4359L284.724 15.6445V18.5893L283.435 21.166L282.147 22.4543L280.123 23.3746L278.65 23.9267H277.546L276.257 23.3746L274.417 22.4543L272.945 20.9819L272.208 19.5096L271.656 17.8531V16.3807L272.576 13.62L273.865 11.9635L275.521 10.8592L277.178 10.123Z" fill="#00A0E3"/>
<path d="M255.461 28.1602H262.639L264.664 28.8964L265.584 29.8166L266.32 30.7368L266.872 32.0252V33.6816L266.136 35.154L265.584 35.7062L264.848 36.0743L266.504 37.1786L267.241 38.0988L267.425 38.651V41.5957L266.872 42.8841L265.032 44.3565L263.928 44.9086H255.461L255.277 37.5467V28.5283L255.461 28.1602ZM258.222 30.7368L258.038 30.9209V34.97L258.222 35.154H262.271L263.928 34.0497L264.112 33.4976V31.8411L263.56 30.9209L261.167 30.7368H258.222ZM258.038 37.3626V42.3319L258.222 42.8841H261.719L262.087 42.516L263.928 42.3319L264.664 41.5957V38.835L263.744 37.9148L262.639 37.3626H258.038Z" fill="#373435"/>
<path d="M273.68 28.1602H277.913L279.569 29.0804L280.858 30.5528L281.594 32.0252V33.3135L280.674 33.6816L279.385 33.4976L278.833 32.7614L278.465 31.473L276.993 30.7368L275.152 30.3687L273.312 30.9209L272.391 32.2092V33.6816L273.128 34.0497L274.968 34.6019L278.097 35.5221L280.306 36.4424L281.594 37.9148L281.962 38.651L282.146 40.6755L281.594 42.3319L279.937 44.1724L278.097 45.0927H276.993L276.809 45.2767H275.704L274.784 45.0927H273.496L271.655 44.1724L270.735 43.4362L269.631 41.5957L268.895 39.5712V39.0191H271.471L272.207 41.2276L273.128 42.1479L274.968 42.7H277.177L278.649 41.9638L279.385 41.0436V39.7552L278.833 38.835L276.809 38.0988L274.232 37.3626L272.023 36.4424L270.367 34.7859L269.815 33.4976L269.631 32.3933L270.551 30.1847L272.023 28.8964L273.68 28.1602Z" fill="#383536"/>
<path d="M292.453 0H295.398L297.238 0.736196L298.71 2.02454L299.999 4.60123V6.99387L299.263 9.0184L297.606 10.8589L296.134 11.5951L295.398 11.7791H292.085L290.612 11.0429L289.324 9.93865L288.22 8.09816L287.852 6.44172L288.036 4.23313L288.772 2.76074L290.428 0.920245L291.717 0.184049L292.453 0ZM292.637 0.920245L291.164 1.65644L289.876 2.94479L289.14 4.78528V7.17791L289.876 8.65031L291.348 10.1227L293.005 10.8589H294.845L296.686 10.1227L297.974 8.83436L298.71 7.36196V4.41718L297.974 2.94479L296.318 1.47239L294.845 0.920245H292.637Z" fill="#3B393A"/>
<path d="M292.268 2.57617H294.477L295.581 3.12832L296.317 4.23261L296.133 5.15286L295.213 6.0731L295.397 6.99335L296.501 8.64979V9.20194L295.581 9.01789L294.477 7.72955L293.925 6.62525L292.452 6.4412L292.268 9.20194H291.532L291.164 7.36145V4.78476L291.348 3.12832L292.268 2.57617ZM292.821 3.49642L292.268 4.04856V5.15286L292.452 5.33691L294.293 5.52096L295.029 5.15286V3.86452L294.477 3.49642H292.821Z" fill="#3E3C3D"/>
<path d="M296.871 1.28906L297.791 1.47311V1.84121H298.159L298.528 2.76146H298.896V3.3136H299.448L300 4.60195V6.99458L299.264 9.01912L298.712 9.38722L298.896 8.09888L298.528 7.36268V3.12955L297.607 2.20931L297.239 1.47311L296.871 1.28906Z" fill="#424547"/>
<path d="M295.583 0.183594L296.503 0.367643L298.16 1.47194L299.264 2.94433V3.31243H298.896V2.76028H298.528L298.16 1.84004H297.792V1.47194H297.239L298.344 2.94433H298.712V3.86458H298.344L297.239 2.39218L295.583 1.28789L295.215 0.91979L295.583 0.735741V0.183594Z" fill="#383637"/>
<path d="M299.079 4.23242H299.448L299.816 5.15267L300 6.99316L299.264 9.0177L298.711 9.3858L298.895 8.09745L298.527 7.36126L299.079 6.44101V4.23242Z" fill="#454749"/>
<path d="M298.527 3.86523H299.079L299.264 6.44192L298.895 7.17812H298.711L298.527 3.86523Z" fill="#3C3A3C"/>
<path d="M297.422 1.10352L298.158 1.47161L299.262 2.94401V3.3121H298.894V2.75996H298.526L298.158 1.83971H297.79V1.47161H297.422V1.10352Z" fill="#3B3A3B"/>
<path d="M299.266 3.49609L299.818 4.04824L300.002 4.60039V6.62493H299.818L299.45 4.60039L299.266 3.49609Z" fill="#373436"/>
</svg>
