<svg width="191" height="120" viewBox="0 0 191 120" fill="none" xmlns="http://www.w3.org/2000/svg">
<path d="M172.582 5.72656H175.185L180.131 6.24717L183.775 7.28839L186.378 8.58991L188.981 10.9326L190.543 14.0563L190.804 14.8372V18.2212L189.762 22.386L188.461 25.5097L186.118 29.9348L184.036 33.0585L181.433 36.7027L179.35 39.3058L176.487 42.6897L172.582 46.8546L165.294 54.1431L163.211 55.9652L159.307 59.6095L156.443 61.9522L152.799 65.0759L149.155 67.9392L146.812 70.0216L143.168 72.885L138.482 76.5292L134.057 79.9132L129.372 83.2971L125.727 85.9002L120.521 89.5444L116.617 92.1475L112.972 94.4902H111.671L112.191 93.449L116.617 90.3253L121.823 86.6811L126.508 83.2971L129.632 80.9544L134.057 77.5704L138.743 73.9262L142.127 71.0629L144.73 68.9804L147.333 66.6377L150.196 64.2949L153.84 60.6507L155.923 58.8286L158.005 56.7461L158.265 56.2255H158.786L159.307 55.1843L161.91 52.5813L164.252 49.7179L166.856 46.5943L170.24 41.6485L173.363 35.6615L174.404 32.2776L174.665 30.976V28.1127L173.884 25.77L172.322 23.6875L169.979 22.1257L167.116 21.0845L164.513 20.5639L161.389 20.3036H158.265L150.196 21.0845L142.387 22.6463L133.536 24.9891L124.426 27.8524L115.836 30.976L107.506 34.36L104.382 35.6615L103.081 35.4012L101.259 33.3188L98.3953 30.7157L97.0938 29.6745V29.1539L103.081 26.5509L111.931 22.6463L121.823 18.7418L128.07 16.399L137.962 13.0151L146.552 10.412L154.882 8.3296L162.951 6.76778L169.198 5.98687L172.582 5.72656Z" fill="#F6712A"/>
<path d="M26.8114 70.543L28.6336 70.8033L33.5794 73.146L35.1412 73.6666L34.6206 74.7078L32.5382 76.53L30.4557 78.8727L26.5511 82.7773L24.2084 85.6406L21.345 89.0245L16.6595 96.0528L14.5771 100.218L13.2756 104.122L13.0153 105.684V108.287L14.0565 111.15L15.8786 113.233L19.0023 114.795L24.2084 115.836H29.6748L37.2236 115.055L46.5946 113.233L53.6229 111.411L65.0763 108.027L66.3778 107.766L66.1175 108.547L55.1847 112.192L47.6358 114.534L36.703 117.398L27.0717 119.22L23.1672 119.74L19.7832 120.001H14.5771L9.63129 119.48L5.72671 118.179L3.12366 116.617L1.04122 114.534L0 111.931V106.986L1.04122 103.081L3.64427 97.6146L5.98702 93.9703L8.59007 90.3261L11.4534 86.6818L14.5771 83.0376L17.7008 79.6536L21.345 75.749L23.6878 73.4063L25.7702 71.5842L26.8114 70.543Z" fill="#076A44"/>
<path d="M31.4961 0L32.5373 0.260304L34.8801 3.64426L37.4831 6.5076L41.1274 9.37094L45.2923 11.4534L48.6762 12.4946L52.3205 13.0152H54.9236L60.39 12.2343L65.5961 10.4122L72.1037 7.02821L72.364 7.80912L70.0213 10.6725L67.4182 13.0152L63.7739 15.3579L60.1297 16.9198L55.1839 18.2213L54.1426 19.5228L52.8411 22.9067L52.3205 26.0304L52.5808 29.4143L53.622 32.538L55.4442 36.1822L58.0472 39.5662L61.6915 43.2105L64.2945 45.2929L64.8152 46.0738L62.993 45.8135L57.7869 43.2105L54.9236 41.128L52.3205 38.7853L50.4984 36.7029L48.9365 33.8395V33.3189L47.8953 33.8395L46.0732 36.4426L44.251 40.0868L43.4701 44.2517L43.2098 46.3341V49.1974L43.4701 51.2799V54.4035H42.9495L41.3877 50.7593L40.0862 44.512L39.5656 39.0456V33.0586L40.0862 27.5922L41.648 18.7419L41.9083 16.6595L37.7434 12.4946L34.8801 8.59003L32.7976 4.42517L31.7564 1.82213L31.4961 0Z" fill="#F6712A"/>
<path d="M50.7597 47.375H55.4452L56.7467 47.8956L58.0483 49.4574L58.3086 50.4986L58.5689 55.965L58.8292 58.8284L58.5689 59.0887H54.6643L54.1437 58.8284V58.3078L51.5406 59.349H49.1979L47.3757 58.8284L46.0742 57.2665V54.6635L47.1154 53.1017L48.417 52.5811L53.6231 51.5399L53.3628 50.4986H51.8009L49.9788 51.2796H46.8551L46.5948 49.978L48.1567 48.1559L49.1979 47.6353L50.7597 47.375Z" fill="#076A44"/>
<path d="M118.437 47.1133H121.3L123.903 48.4148L125.725 50.4972L126.506 52.84V53.8812L123.643 54.1415H118.176L118.437 55.7033L119.998 56.2239L122.081 55.443H125.985L125.725 56.7445L123.643 58.5667L122.601 59.0873L121.04 59.3476H117.916L116.094 58.5667L114.532 57.2651L113.491 55.1827L113.23 54.1415V52.3194L114.272 49.7163L116.354 47.8942L118.437 47.1133Z" fill="#F6712A"/>
<path d="M105.423 47.375H108.547L110.369 48.1559L111.15 48.9368L111.67 50.759V58.8284H107.245L106.985 58.5681L106.725 51.2796L105.163 51.0193L104.382 51.2796L104.122 52.8414L103.861 58.5681L102.82 59.0887H99.6964L99.1758 58.0475L99.4361 47.6353H102.82L103.08 48.6765L104.382 48.1559L105.423 47.375Z" fill="#F6712A"/>
<path d="M59.8672 47.6367H64.5527L66.1145 53.884L66.6351 53.1031L67.9366 48.4176L68.4573 47.6367H72.3618L72.6221 48.1573L69.4985 57.5283L68.197 60.6519L66.8954 62.2137L65.5939 62.7343H61.429L61.1687 60.3916L61.429 59.6107L63.2512 59.3504V57.5283L61.429 52.3222L59.8672 48.1573V47.6367Z" fill="#076A44"/>
<path d="M74.1861 47.6367H78.351L78.6113 54.4046L78.8716 55.4458L80.1731 55.7061L81.4746 55.4458L81.7349 47.6367H86.1601V59.0901H82.2555L81.7349 57.7886L80.1731 59.0901L78.8716 59.3504H77.0494L75.2273 58.5695L74.1861 57.268L73.9258 55.4458V51.5413L74.1861 47.6367Z" fill="#076A44"/>
<path d="M128.851 43.9922H133.016L133.276 44.2525L133.536 47.3761H135.098L135.619 47.6364V49.4586L135.098 49.9792H133.536L133.797 54.6646L134.057 55.1853L135.359 55.7059L135.619 56.2265V58.8295H130.152L129.372 58.0486L128.851 56.2265L128.591 50.4998L127.549 49.9792L127.289 49.4586V47.6364L128.591 46.8555L128.851 43.9922Z" fill="#F6712A"/>
<path d="M60.3893 26.2891H62.4717L66.116 27.07L68.7191 28.3715L71.5824 30.9745L73.9252 34.6188V35.3997H71.0618L66.8969 34.8791L62.732 33.5776L60.129 32.0157L58.8275 30.9745L57.7862 29.673L57.2656 28.3715V26.8097L58.8275 27.07L65.3351 30.1936L67.9381 31.4951L66.8969 30.7142L61.1702 27.3303L60.3893 26.2891Z" fill="#076A44"/>
<path d="M33.8361 26.2891H34.617L34.0964 27.5906L31.7536 30.7142L30.1918 33.8379V34.6188L33.3155 30.4539L35.1376 27.8509L36.6994 26.2891L37.7407 26.8097L38.001 28.1112V29.9333L37.2201 32.5364L35.1376 35.1394L31.4933 37.4821L29.4109 38.263L28.1094 38.0027V32.5364L28.8903 29.9333L30.1918 28.1112L32.2743 26.8097L33.8361 26.2891Z" fill="#076A44"/>
<path d="M94.7498 47.375H96.572V51.5399L94.7498 52.0605L93.4483 52.5811L93.188 53.362L92.9277 59.0887H88.7628L88.5025 58.8284L88.2422 47.6353H92.4071L92.6674 48.6765H93.4483L93.9689 47.6353L94.7498 47.375Z" fill="#076A43"/>
<path d="M54.9231 2.60352H57.5262L58.8277 4.16534V5.98747L57.2659 8.3302L54.6628 10.4126L52.8407 11.1935H49.9773L48.6758 9.63172L48.9361 7.28899L50.7582 4.94625L53.3613 3.12412L54.9231 2.60352Z" fill="#F6712A"/>
<path d="M23.1641 12.4941H25.2465L29.932 13.5354L32.535 14.8369L35.1381 17.1796L36.4396 19.5223V21.0842L34.0969 20.5636L29.6717 18.2208L26.8083 15.8781L26.0274 15.6178L28.3702 18.2208L31.7541 20.8239L30.9732 21.0842L28.6305 20.043L26.0274 17.9605L24.2053 15.3575L23.1641 13.0147V12.4941Z" fill="#076A44"/>
<path d="M118.44 94.75H119.741L120.002 95.0103V102.299L119.741 102.819H116.097L114.795 101.518L114.535 100.737V98.9149L115.316 97.6133L116.618 97.0927H118.44V94.75Z" fill="#076A44"/>
<path d="M105.163 65.0762L105.944 65.3365L106.204 65.8571L106.464 69.7616H107.245L107.766 67.1586L108.547 65.3365L108.807 65.0762H114.273V65.8571L112.711 66.1174V72.3647H111.67L111.41 71.8441L111.15 66.638L110.629 66.1174H109.588L108.547 68.9807L108.026 72.1044L107.766 72.3647H106.464L105.683 71.0632L104.902 66.1174L105.163 65.0762Z" fill="#076A44"/>
<path d="M80.9535 95.2715H82.7757L83.2963 95.7921L85.1184 101.779V102.82L83.8169 102.56L82.7757 100.998L80.9535 101.258L79.9123 103.081L78.8711 102.82L79.1314 100.478L80.6932 95.5318L80.9535 95.2715Z" fill="#076A44"/>
<path d="M62.9898 19.5234H68.4563L68.7166 20.5647L66.6341 22.3868L64.2914 23.428L63.5105 23.6883H60.9074L61.6883 22.9074L64.812 21.8662L63.7708 21.6059L59.8662 22.9074L57.5234 23.1677L58.044 22.1265L59.3456 20.825L61.6883 19.7837L62.9898 19.5234Z" fill="#076A44"/>
<path d="M129.371 65.0762H132.234L133.276 66.1174V71.3235L132.495 72.1044L129.892 72.3647L129.371 72.1044V65.0762Z" fill="#076A44"/>
<path d="M146.034 94.4902L146.815 94.7505V97.6139L147.856 97.0933H149.418L150.719 97.8742V101.779L149.938 102.56L148.116 102.82L146.294 102.299L146.034 101.779L145.773 94.7505L146.034 94.4902Z" fill="#076A44"/>
<path d="M73.4074 97.3555L74.7089 97.6158L74.9692 97.8761V103.863L74.1883 104.644L73.4074 104.904H71.0647V104.123L73.928 103.863L74.1883 102.301L72.8868 102.822L71.325 102.562L70.2837 101.26L70.0234 99.6982L71.325 97.6158L73.4074 97.3555Z" fill="#076A44"/>
<path d="M25.7718 23.9492H27.8542V24.4698L26.0321 24.7301V25.511L28.3748 24.4698L30.9779 24.9904L30.4573 26.0317L28.1145 27.5935L26.2924 28.1141H22.6481L21.8672 27.8538L22.1275 26.5523L23.429 25.2507L24.9908 24.2095L25.7718 23.9492Z" fill="#076A44"/>
<path d="M87.9855 65.0762H89.8076L91.1091 65.5968L91.3694 67.9395L91.1091 68.4601L91.6297 70.5426V72.3647H90.5885L90.3282 69.5013L88.5061 69.241V72.3647H87.4648V65.3365L87.9855 65.0762Z" fill="#076A44"/>
<path d="M100.478 65.0762H102.56L103.862 65.8571L104.122 68.1998L103.341 69.241L100.998 69.5013L101.259 72.3647L100.217 72.625L99.957 72.3647V65.5968L100.478 65.0762Z" fill="#076A44"/>
<path d="M83.2948 65.3359H84.5963L85.1169 66.3772L86.4185 72.3641L85.3772 72.6244L84.8566 71.3229V70.542L83.0345 70.8023L82.7742 72.3641L81.733 72.6244L81.4727 71.5832L82.5139 66.8978L83.2948 65.3359Z" fill="#076A44"/>
<path d="M122.867 97.0918H124.428L125.47 97.6124L125.99 99.4345V102.558L124.689 102.818H122.867L121.565 102.038L121.305 101.777L121.565 99.9551L123.387 98.9139H124.168V97.8727L122.867 97.6124L122.606 98.6536L122.086 98.3933L122.346 97.3521L122.867 97.0918Z" fill="#076A44"/>
<path d="M21.3462 95.5312L22.3875 95.7916L24.4699 98.6549L25.5111 100.477L26.0317 100.737V95.5312H26.8127V102.82L26.292 103.08L25.2508 102.039L22.9081 98.3946L22.3875 97.0931H21.8669L22.1272 97.874V102.82L21.0859 103.08V95.7916L21.3462 95.5312Z" fill="#076A44"/>
<path d="M110.894 97.0918L112.455 97.3521L113.236 98.133L113.497 99.6948L112.716 100.476L111.154 100.736L110.373 100.476L110.633 101.257L112.195 101.517H112.976V102.558L110.633 102.818L109.071 101.777L108.551 99.4345L109.332 97.8727L109.852 97.3521L110.894 97.0918Z" fill="#076A44"/>
<path d="M46.0767 65.0762L46.8576 65.3365L47.3782 68.1998H48.6798L48.9401 65.3365L49.9813 65.5968L50.2416 72.3647L49.721 72.625L48.9401 72.3647V69.5013L47.1179 69.7616L46.8576 72.3647L46.337 72.625L45.8164 72.3647V65.3365L46.0767 65.0762Z" fill="#076A44"/>
<path d="M85.6406 97.3555H86.9422L87.4628 97.8761L88.2437 99.6982L88.7643 100.219L89.2849 98.3967L89.8055 97.3555L90.8467 97.6158L90.0658 100.739L89.0246 103.342L87.9834 104.644L87.2025 105.165L85.9009 104.904L86.1612 103.863L87.2025 102.822V101.26L85.6406 98.1364V97.3555Z" fill="#076A44"/>
<path d="M57.787 65.0762L59.0885 65.3365L60.1297 69.241L60.39 72.3647H59.6091L59.0885 70.8029H57.5267L57.0061 72.3647L55.9648 72.1044L56.7458 68.4601L57.5267 65.3365L57.787 65.0762Z" fill="#076A44"/>
<path d="M92.1509 97.3555H93.4525L93.7128 101L95.2746 101.52L95.5349 100.739V97.6158L96.5761 97.3555L97.0967 98.657V102.562L95.7952 102.822H92.9318L91.8906 101.26V97.6158L92.1509 97.3555Z" fill="#076A44"/>
<path d="M52.8406 65.0762H54.923L55.1833 66.3777H52.8406V67.9395L54.923 68.1998L54.6627 69.241L53.3612 69.5013H52.8406V70.8029L53.1009 71.0632L55.1833 71.3235V72.3647L54.6627 72.625H52.32L51.7994 72.3647L51.5391 71.5838V65.5968L52.8406 65.0762Z" fill="#076A43"/>
<path d="M71.065 65.0762H71.8459L72.3665 68.1998H73.668L73.9283 67.6792L74.1887 65.3365H74.9696L75.2299 72.3647H74.1887L73.9283 70.0219L73.668 69.5013L72.1062 69.241V72.3647H71.065L70.8047 65.3365L71.065 65.0762Z" fill="#076A44"/>
<path d="M133.537 94.75L134.839 95.0103L135.099 96.0515L133.017 95.7912L131.455 96.8324L130.934 97.8736V99.9561L131.976 101.518L132.236 101.778H134.318L135.099 100.997V99.9561L133.798 99.4355V98.6546H135.36L135.88 99.4355V101.778L135.36 102.559L134.579 102.819H132.236L130.674 101.778L129.633 99.6958V97.6133L130.674 96.0515L132.236 95.0103L133.537 94.75Z" fill="#076A44"/>
<path d="M93.7092 65.0762L96.3122 65.3365V66.1174H93.9695V68.1998L96.0519 67.9395L96.3122 68.7204L96.0519 69.241L93.9695 69.5013L94.2298 71.3235H96.5725V72.3647L95.5313 72.625H93.1886L92.668 72.1044V66.8983L93.1886 65.3365L93.7092 65.0762Z" fill="#0C6D47"/>
<path d="M29.6712 97.6152H31.7536L32.7949 98.6565L33.0552 99.6977L32.7949 100.218L31.7536 100.479H29.1506L29.6712 101.78L32.014 102.04V102.821L30.1918 103.082L28.8903 102.301L28.3697 101.52L28.1094 99.4374L29.1506 97.8755L29.6712 97.6152Z" fill="#076A44"/>
<path d="M34.6222 96.3125L35.4031 97.0934L35.6634 97.614L38.2664 97.8743L39.3077 100.217L40.6092 99.4361L40.0886 102.56L38.7871 102.82L38.2664 100.477L37.2252 98.3949H35.4031L35.6634 101.519L36.4443 102.56V103.08L34.8825 102.82L34.3619 101.519L34.1016 97.614L34.6222 96.3125Z" fill="#076A44"/>
<path d="M77.8342 65.0762H79.6563L80.4372 66.1174V67.6792L79.396 67.1586L79.1357 66.1174L78.0945 66.3777L77.8342 68.4601L78.0945 71.5838L79.1357 71.3235L79.6563 70.0219H80.6975L80.4372 71.0632L79.6563 72.625H77.5739L76.793 71.3235V66.1174L77.8342 65.0762Z" fill="#076A44"/>
<path d="M61.4297 65.3359H62.7312L62.9915 71.3229H65.3343V72.3641L62.9915 72.6244L61.69 72.3641L61.4297 71.3229V65.3359Z" fill="#076A44"/>
<path d="M102.559 97.3555L103.86 97.6158L104.901 99.1776L105.422 101H105.943L106.463 97.6158L107.765 97.3555L107.244 99.6982L106.203 102.562L104.901 102.822L104.12 101.781L102.559 97.3555Z" fill="#076A44"/>
<path d="M147.854 97.6152L149.416 97.8755L150.196 98.6565V100.999L149.416 101.78L147.593 102.04L146.812 100.999V98.9168L147.854 97.6152Z" fill="#FDFEFD"/>
<path d="M47.635 98.1348H49.1968L50.238 99.4363V101.258L49.4571 102.039L47.635 102.3L46.8541 101.258L46.5938 99.4363L47.1144 98.3951L47.635 98.1348Z" fill="#FDFEFD"/>
<path d="M141.863 97.6152L143.424 98.1358L143.945 99.4374L143.685 101.52L142.383 102.04L141.082 101.78L140.301 100.218L140.821 98.3961L141.863 97.6152Z" fill="#FDFEFD"/>
<path d="M162.434 96.832L163.735 97.6129L164.516 99.9557V100.476L165.557 99.4351L166.859 97.0923H167.379L167.119 98.9145L165.297 103.079L163.995 104.641L162.954 104.901V104.121L163.995 102.819L164.256 102.298V100.737L163.475 99.6954L162.434 97.3526V96.832Z" fill="#076A44"/>
<path d="M141.346 97.0918H143.168L144.469 98.133L144.73 99.9551L144.209 101.777L143.428 102.558L142.907 102.818H141.346L139.784 101.517L139.523 100.736V98.9139L140.825 97.3521L141.346 97.0918ZM141.866 97.6124L140.565 98.6536L140.304 100.215L141.085 101.777L142.387 102.038L143.688 101.517L143.949 99.4345L143.428 98.133L141.866 97.6124Z" fill="#076A44"/>
<path d="M48.1592 97.3555L49.9813 97.6158L50.7622 98.3967L51.0225 101L50.2416 102.562L49.2004 103.082L47.1179 102.822L46.0767 101.52L45.8164 98.9173L47.1179 97.6158L48.1592 97.3555ZM47.6385 98.1364L46.8576 98.657L46.5973 100.479L47.3782 102.041L48.6798 102.301L49.9813 101.781L50.2416 101.26V99.4379L49.2004 98.1364H47.6385Z" fill="#076A44"/>
<path d="M66.1183 65.0762L69.7625 65.3365L69.5022 66.3777L68.7213 67.1586V72.3647H67.4198V66.638L66.1183 66.3777L65.5977 65.5968L66.1183 65.0762Z" fill="#076A44"/>
<path d="M119.738 65.0762H121.04L121.3 71.0632H123.383V72.1044L120.259 72.3647L119.738 71.3235V65.0762Z" fill="#076A44"/>
<path d="M123.906 65.0762H128.071L127.811 66.1174L127.03 66.638L126.77 72.1044H125.728L125.468 66.638L124.167 66.1174L123.906 65.0762Z" fill="#076A44"/>
<path d="M55.9648 95.0117L57.0061 95.272L57.2664 98.656L59.0885 100.738L60.39 102.561V103.081L59.0885 102.561L57.5267 100.478L57.0061 102.821H56.2251L55.9648 95.0117Z" fill="#076A44"/>
<path d="M72.1037 98.1348H73.6656L74.1862 98.9157V101.519L72.8846 102.039L71.5831 101.779L71.0625 100.998V99.176L72.1037 98.1348Z" fill="#FDFEFD"/>
<path d="M130.413 65.5977L131.974 66.1183L132.495 68.461V70.2831L132.235 71.064L130.673 71.5846L130.413 71.3243L130.152 66.3786L130.413 65.5977Z" fill="#FDFEFD"/>
<path d="M99.173 97.3555H102.036L101.516 98.657L100.214 99.4379V101.52L100.474 102.822L98.9126 102.562L98.6523 101.26V97.6158L99.173 97.3555Z" fill="#076A44"/>
<path d="M66.1151 97.3555L67.9372 97.6158L68.4579 98.1364L68.7182 100.479V102.822H67.9372L67.4166 98.657L65.8548 98.1364H65.3342V102.822H64.293V97.8761L66.1151 97.3555Z" fill="#076A44"/>
<path d="M153.579 96.832L155.401 97.3526L155.922 97.8732L156.182 101.778L155.661 102.559L153.319 102.819L152.538 102.298L152.277 100.737L153.319 98.9145L153.579 99.9557L153.319 101.518L153.579 101.778H154.88L155.141 99.9557L154.62 97.6129L153.579 97.3526V97.8732H153.058V97.0923L153.579 96.832Z" fill="#076A44"/>
<path d="M40.8697 97.6152L41.9109 98.1358L42.9521 100.739H43.4727L43.733 98.1358L44.7743 97.8755L44.2536 100.739L43.733 102.821H42.6918L41.6506 100.479L41.13 99.4374L40.6094 99.1771V97.8755L40.8697 97.6152Z" fill="#076A44"/>
<path d="M116.613 98.3945H118.175L118.435 98.6548V100.998L117.134 101.778L116.092 100.998L115.832 99.4357L116.613 98.3945Z" fill="#FDFEFD"/>
<path d="M52.8427 54.1426H53.884L54.1443 55.1838L53.6237 56.225L52.3221 57.0059L51.0206 56.7456L50.5 56.225L50.7603 55.1838L52.8427 54.1426Z" fill="#FDFEFD"/>
<path d="M158.006 94.4902H158.787V102.56L158.006 102.299L157.746 94.7505L158.006 94.4902Z" fill="#076A44"/>
<path d="M137.44 94.75H138.221V102.559H137.44L137.18 95.2706L137.44 94.75Z" fill="#076A44"/>
<path d="M119.219 49.9785L121.042 50.2388L121.823 51.5403L121.562 51.8006L117.918 52.0609V50.7594L119.219 49.9785Z" fill="#FDFEFD"/>
<path d="M52.8409 97.6152H55.1837L54.9234 98.3961L53.3615 98.9168L53.1012 102.821L52.3203 102.561V98.1358L52.8409 97.6152Z" fill="#076A44"/>
<path d="M160.609 94.4902H161.13L161.39 95.7918V102.56H160.609V94.4902Z" fill="#076A44"/>
<path d="M88.7628 65.8574L90.0643 66.378L90.5849 67.4192L90.3246 68.2002L88.5025 68.4605L88.2422 66.6383L88.7628 65.8574Z" fill="#FDFEFD"/>
<path d="M61.6914 97.3555L62.4723 97.6158V102.822H61.6914V97.3555Z" fill="#076A44"/>
<path d="M30.1975 98.1348L31.499 98.3951L32.2799 98.9157V99.6966L29.1562 99.9569L29.4166 98.6554L30.1975 98.1348Z" fill="#FDFEFD"/>
<path d="M101.256 66.1172H102.558L102.818 66.3775V68.1996L102.558 68.4599H101.256L100.996 67.9393V66.3775L101.256 66.1172Z" fill="#FDFEFD"/>
<path d="M110.889 97.875H111.93L112.451 98.6559V99.4368L110.108 100.218L109.848 99.4368L110.368 98.1353L110.889 97.875Z" fill="#FDFEFD"/>
<path d="M81.4737 97.0918L82.2547 97.3521L82.515 97.8727V99.6948H80.9531L81.4737 97.0918Z" fill="#FDFEFD"/>
<path d="M123.906 99.1758H124.426V101.258L122.864 101.779L122.344 100.998L123.906 99.1758Z" fill="#FDFEFD"/>
<path d="M83.5597 67.1582H84.0803L84.3406 67.6788V69.7612L83.0391 69.2406L83.5597 67.1582Z" fill="#FDFEFD"/>
<path d="M58.044 67.6777L59.0853 68.1983L59.3456 69.4999L58.5647 69.7602L57.5234 69.2396L58.044 67.6777Z" fill="#FDFEFD"/>
</svg>
