<svg width="300" height="46" viewBox="0 0 300 46" fill="none" xmlns="http://www.w3.org/2000/svg">
<path d="M0.161377 0H13.3943L14.0398 0.322755L17.2674 4.51857L19.5267 7.42336L21.6246 10.1668L23.2384 12.2647L25.3363 15.0081L30.1776 21.3018L32.2755 24.0452L33.2438 25.1749H33.4051V0H55.998L62.2917 0.161377L65.6806 0.806887L68.424 1.77515L71.813 3.5503L74.395 5.48683L76.3315 7.42336L77.9453 9.68265L79.3977 12.4261L80.366 15.3309L81.0115 18.5584L81.1729 19.8494V24.5294L80.6887 27.4342L79.8819 30.0162L78.7522 32.7596L77.2998 35.1803L75.686 37.2782L72.9426 40.0216L70.6833 41.6354L67.2944 43.4105L64.3896 44.3788L60.3552 45.1857L57.1276 45.5084H54.3842V33.2438L54.5456 33.0824L57.4504 32.921L60.5166 32.2755L63.4213 30.9845L64.8737 29.8548L66.1648 28.5638L67.2944 26.3045L67.7785 24.5294V21.3018L66.9716 17.9129L66.1648 15.9764L64.8737 14.2012L63.4213 13.0716L61.3234 12.2647L47.2836 12.1033L47.1222 45.5084H34.0506L33.2438 44.7016L30.9845 41.7968L29.5321 39.8602L27.9183 37.7623L26.1432 35.503L24.5294 33.4051L22.5928 30.8231L20.6563 28.4024L18.7198 25.8204L16.4605 22.9156L14.524 20.3336H14.3626L14.2012 45.5084H0.161377L0 1.93653L0.161377 0Z" fill="#8FC115"/>
<path d="M0.161377 0H13.3943L14.0398 0.322755L17.2674 4.51857L19.5267 7.42336L21.6246 10.1668L23.2384 12.2647L25.3363 15.0081L30.1776 21.3018L32.2755 24.0452L33.2438 25.1749H33.4051V0H55.998L62.2917 0.161377L65.6806 0.806887L68.424 1.77515L71.813 3.5503L74.395 5.48683L76.3315 7.42336L77.9453 9.68265L79.3977 12.4261L80.366 15.3309L81.0115 18.5584L81.1729 19.8494V24.5294L80.6887 27.4342L79.8819 30.0162L78.7522 32.7596L77.2998 35.1803L75.686 37.2782L72.9426 40.0216L70.6833 41.6354L67.2944 43.4105L64.3896 44.3788L60.3552 45.1857L57.1276 45.5084H54.3842V33.2438L54.5456 33.0824L57.4504 32.921L60.5166 32.2755L63.4213 30.9845L64.8737 29.8548L66.1648 28.5638L67.2944 26.3045L67.7785 24.5294V21.3018L66.9716 17.9129L66.1648 15.9764L64.8737 14.2012L63.4213 13.0716L61.3234 12.2647L47.2836 12.1033L47.1222 45.5084H34.0506L33.2438 44.7016L30.9845 41.7968L29.5321 39.8602L27.9183 37.7623L26.1432 35.503L24.5294 33.4051L22.5928 30.8231L20.6563 28.4024L18.7198 25.8204L16.4605 22.9156L14.524 20.3336H14.3626L14.2012 45.5084H0.161377L0 1.93653L0.161377 0ZM2.42066 2.09791L2.25928 2.25928V43.0878L2.42066 43.2492H11.9419V13.7171L13.0716 14.6853L15.0081 17.2674L17.5901 20.6563L20.8177 24.8521L22.5928 27.1114L24.6908 29.8548L26.4659 32.1141L29.0479 35.503L30.6617 37.6009L32.921 40.5057L34.5348 42.6036L35.1803 43.0878L35.9872 43.2492H44.8629L45.0243 9.84402H57.6118L61.4848 10.0054L63.7441 10.6509L65.3579 11.6192L66.9716 13.0716L68.2627 15.1695L69.2309 17.4288L69.8764 19.8494L70.0378 20.9791V24.5294L69.3923 27.1114L68.2627 29.3707L66.9716 30.9845L65.5193 32.2755L63.26 33.5665L61.3234 34.3734L58.7414 35.0189L56.6435 35.3417L56.4821 35.503L56.6435 43.2492L59.3869 43.0878L62.4531 42.6036L65.842 41.6354L68.9082 40.183L71.1675 38.5692L72.7812 37.1168L74.2336 35.6644L76.4929 32.2755L77.6226 29.8548L78.5908 26.4659L78.9136 24.368V20.6563L78.4295 16.9446L77.4612 13.7171L76.1702 11.135L74.5564 8.87576L72.4585 6.77785L70.8447 5.64821L67.9399 4.03444L64.7124 2.90479L61.4848 2.25928L56.6435 2.09791H35.6644V30.1776L35.8258 31.9527L35.0189 31.3072L32.921 28.5638L31.3072 26.4659L29.2093 23.7225L27.5955 21.6246L25.8204 19.3653L24.2066 17.2674L22.4315 15.0081L19.8494 11.6192L17.5901 8.71438L15.9764 6.61648L14.524 4.67995L12.7488 2.25928L9.03714 2.09791H2.42066Z" fill="#000690"/>
<path d="M184.617 7.26172H189.62L191.395 7.58447L192.686 8.22998L193.816 9.35963L194.784 11.4575L194.945 12.2644V14.8465L194.461 16.4602L193.493 17.9126L192.202 19.0423L190.911 19.5264L189.943 19.6878L184.617 19.8492V7.26172Z" fill="#000690"/>
<path d="M219.149 10.0059L220.601 10.1672L221.247 10.49L223.506 10.3286L223.99 10.49V21.1409L223.506 22.4319L222.376 23.4002L221.085 23.8843H218.342L216.728 23.2388L215.76 22.4319V21.9478L217.051 21.1409H218.181L218.988 21.625H220.117L221.085 21.1409L221.731 19.3658L220.44 19.8499H218.181L216.728 19.2044L215.437 17.752L214.953 16.461V13.5562L215.921 11.6196L217.051 10.6514L218.181 10.1672L219.149 10.0059Z" fill="#000690"/>
<path d="M298.062 24.8535H299.837L299.998 25.0149V37.7637L299.353 37.9251L297.9 37.6023L297.093 37.7637L295.802 38.0865H294.673L293.059 37.441L292.252 36.7954L291.284 35.1817L290.961 33.2451L291.122 31.3086L291.768 29.8562L292.897 28.5652L294.834 27.7583L296.448 27.9197L297.739 28.2424L297.577 27.9197V25.0149L298.062 24.8535Z" fill="#000690"/>
<path d="M93.1133 24.8535H97.7932L100.698 25.1763L101.989 26.3059L102.635 27.7583L102.796 28.7266V30.0176L102.312 31.6314L101.666 32.4383L100.698 33.0838L99.407 33.4065H95.5339V37.7637H93.1133V24.8535Z" fill="#000690"/>
<path d="M133.297 7.26172H135.557L135.718 10.9734V19.0423L135.557 19.6878L134.588 19.8492L133.782 19.5264L132.813 19.6878L132.168 19.8492H129.586L128.456 19.2037L127.165 17.7513L126.52 15.6533V14.2009L127.004 12.5872L127.972 11.2962L129.424 10.3279L130.715 10.0051L132.168 10.1665L133.136 10.4893V7.4231L133.297 7.26172Z" fill="#000690"/>
<path d="M242.712 24.8535H248.038L249.974 25.1763L251.265 26.1445L251.911 26.9514L252.233 28.0811V30.3403L251.588 31.9541L250.458 32.9224L249.006 33.4065H244.971V37.7637H242.712L242.551 29.5335V25.0149L242.712 24.8535Z" fill="#000690"/>
<path d="M93.1133 7.26172H95.5339L100.698 15.0078H100.859L101.021 7.26172H103.441L103.603 8.87549V19.6878L103.119 19.8492H101.344L100.537 19.0423L96.9863 13.7168L95.6953 11.9417L95.5339 19.6878H93.1133V7.26172Z" fill="#000690"/>
<path d="M266.918 7.26172H269.016L269.178 7.4231V19.6878H267.241L267.08 19.2037L265.789 19.8492H263.368L262.077 19.2037L260.786 17.7513L260.141 16.1375V13.7168L261.109 11.7803L262.4 10.6506L263.53 10.1665H265.627L266.918 10.4893L266.757 9.03687V7.4231L266.918 7.26172Z" fill="#000690"/>
<path d="M137.495 27.7578L139.109 27.9192L140.077 28.5647L140.723 29.2102L141.852 28.2419L142.982 27.7578H144.112L145.403 28.2419L146.371 29.3716L146.694 30.0171L146.855 31.1467V37.2791L146.694 37.7632H144.596L144.434 37.6018V34.3743L144.273 31.3081L143.466 30.3399L142.498 30.1785L141.53 30.9854H141.207L141.045 37.7632H138.786L138.625 31.4695L137.657 30.1785L136.85 30.0171L135.72 31.1467L135.559 31.4695L135.397 37.7632H133.138L132.977 37.6018V28.0806H134.752L135.559 28.7261L136.527 28.0806L137.495 27.7578Z" fill="#000690"/>
<path d="M217.212 27.7578H218.825L220.439 28.2419L221.246 28.8875L221.892 30.0171L222.053 30.6626V37.7632H220.116L219.794 36.9563L219.148 37.2791L218.18 37.9246L217.534 38.086H216.082L214.791 37.6018L213.984 36.795L213.5 35.8267V34.3743L214.146 33.0833L214.952 32.4378L216.728 31.7922L218.825 31.4695H219.632L219.31 30.6626L218.664 30.3399H217.05L216.566 30.5012L216.082 31.3081L214.307 30.824L214.146 30.0171L214.791 29.0488L215.921 28.0806L217.212 27.7578Z" fill="#000690"/>
<path d="M152.18 27.7578H153.633L155.408 28.2419L156.538 29.2102L157.022 30.3399L157.183 32.9219V36.6336L157.022 37.7632H155.247L155.085 37.2791L155.247 36.795L153.471 37.7632L152.342 38.086H151.051L149.921 37.6018L149.114 36.9563L148.469 35.6653V34.5357L149.114 33.2446L150.244 32.2764L152.665 31.6309L154.601 31.4695L154.278 30.6626L153.956 30.3399H152.342L151.374 30.824L151.051 31.1467L149.76 30.9854L148.953 30.6626L149.276 29.6943L150.244 28.5647L151.535 27.9192L152.18 27.7578Z" fill="#000690"/>
<path d="M173.158 27.7578L174.772 27.9192L176.386 28.7261L177.354 29.8557L177.999 31.6309L178.161 32.4378V33.5674L177.838 33.7288H171.383L171.867 35.0198L172.835 35.6653H174.126L175.256 35.0198L175.74 34.5357L176.547 34.697L177.677 35.1812V35.9881L176.386 37.2791L175.095 37.9246L174.288 38.086H172.835L171.221 37.6018L169.93 36.6336L168.962 35.0198L168.801 34.2129V31.9536L169.285 30.3399L170.253 29.0488L171.706 28.0806L173.158 27.7578Z" fill="#000690"/>
<path d="M118.936 27.7578H120.227L121.84 28.2419L123.131 29.3716L123.454 30.0171L123.616 35.0198L123.454 37.7632L121.679 37.9246L121.518 37.2791L121.356 36.795L119.742 37.9246L118.936 38.086H117.645L116.354 37.6018L115.547 36.9563L115.062 35.6653V34.3743L115.708 33.0833L116.676 32.2764L119.258 31.6309L121.033 31.4695L120.872 30.3399H118.613L117.645 31.1467L116.354 30.9854L115.708 30.6626L115.547 30.1785L116.354 28.8875L117.16 28.2419L118.936 27.7578Z" fill="#000690"/>
<path d="M242.066 10.168H244.648L246.101 10.6521L246.907 11.459L247.392 12.2659L247.553 14.041V19.6892L247.069 19.8506H245.616L245.455 18.721L243.841 19.6892L243.357 19.8506H241.098L240.13 19.3665L239.161 18.2368L239 17.9141V16.1389L239.807 14.8479L240.775 14.2024L243.357 13.7183L244.81 13.5569L244.648 12.75L244.003 12.4273H242.712L241.098 13.3955L240.291 13.0728L239.323 12.75L239.484 11.9431L240.614 10.8135L242.066 10.168Z" fill="#000690"/>
<path d="M162.185 10.0059L163.638 10.1672L164.929 10.6514L166.058 11.9424L166.22 12.2651L166.381 13.7175V19.6885L164.445 19.8499L164.122 18.7202L162.831 19.6885L162.347 19.8499H159.765L158.796 19.2044L157.99 18.3975L157.828 17.9134V16.1382L158.474 15.1699L159.442 14.3631L163.799 13.3948L163.638 12.7493L162.992 12.4265H161.54L160.087 13.3948L159.281 13.2334L158.312 12.7493L158.474 11.781L159.765 10.6514L160.894 10.1672L162.185 10.0059Z" fill="#000690"/>
<path d="M109.576 10.0059L111.835 10.3286L112.803 10.8127L113.61 12.1038L113.772 12.5879V19.6885L113.126 19.8499H111.997L111.674 19.2044V18.7202L110.867 19.2044L109.899 19.8499H107.317L106.51 19.3658L105.38 18.0747L105.219 16.7837L105.542 15.4927L106.671 14.5244L107.962 14.0403L111.351 13.3948V12.7493L110.383 12.4265H108.93L107.801 13.3948L106.833 13.2334L105.864 12.7493L106.026 11.781L107.317 10.6514L108.446 10.1672L109.576 10.0059Z" fill="#000690"/>
<path d="M141.041 10.168H143.462L144.753 10.6521L145.883 11.6204L146.689 13.3955L146.851 14.041V15.6548H140.234L140.719 16.9458L141.364 17.43L142.332 17.5913L143.785 17.43L144.107 16.6231L145.076 16.7844L146.689 17.1072L146.528 17.7527L145.398 19.0437L143.785 19.8506H141.041L139.105 18.8824L137.975 17.43L137.652 16.6231V13.7183L138.136 12.4273L139.589 10.8135L141.041 10.168Z" fill="#000690"/>
<path d="M104.572 24.8535H106.508L106.831 28.888L107.638 28.2424L109.251 27.7583L110.865 27.9197L111.834 28.4038L112.963 29.6948L113.286 30.6631V37.7637H110.865L110.704 31.6314L110.22 30.8245L109.574 30.3403H108.283L107.638 30.6631L106.992 31.6314L106.831 37.7637H104.572L104.41 27.7583L104.572 24.8535Z" fill="#000690"/>
<path d="M120.55 10.0059L122.648 10.1672L123.777 10.8127L124.423 11.6196L124.907 12.9107L125.068 13.7175L125.23 18.8816L125.068 19.8499H122.809L122.486 19.6885V16.6223L122.325 13.7175L121.841 12.9107L121.357 12.5879L120.227 12.4265L119.097 12.9107L118.613 14.0403V19.6885H116.031V10.6514L117 10.3286H117.968L118.291 10.9741L119.097 10.6514L119.904 10.1672L120.55 10.0059Z" fill="#000690"/>
<path d="M204.302 10.3281L206.561 10.4895V13.3943L206.723 16.1377L207.207 17.2674L208.821 17.5901L209.627 17.2674L210.273 16.4605L210.434 11.2964L210.757 10.3281H212.855L213.016 10.4895V19.8494H211.564L211.08 19.688L210.918 19.0425L209.789 19.5266L208.336 20.0108H207.045L205.754 19.5266L204.625 18.397L204.141 17.106V10.4895L204.302 10.3281Z" fill="#000690"/>
<path d="M179.773 28.0801H182.033L182.194 32.5986L182.517 34.5352L183.162 35.5034L183.646 35.6648H184.776L185.583 35.1807L186.067 33.8897L186.229 28.0801H188.488L188.649 28.5642V36.6331L188.488 37.7627H186.713V36.9558L184.776 37.9241L183.969 38.0855H182.84L181.387 37.6013L180.258 36.4717L179.935 35.6648L179.773 34.5352V28.0801Z" fill="#000690"/>
<path d="M232.545 27.7578H233.675L235.289 28.2419L236.58 29.3716L237.064 30.3399L236.902 30.824L236.418 30.9854H234.643L233.998 30.3399L232.545 30.0171L231.738 30.5012V31.1467L233.191 31.6309L235.773 32.4378L236.902 33.406L237.064 33.7288V35.9881L236.418 36.9563L235.611 37.6018L234.804 37.9246L233.836 38.086H232.222L230.77 37.6018L229.479 36.4722L229.156 35.6653V34.8584L229.64 34.5357H231.254L232.061 35.5039L232.707 35.8267H233.998L234.643 35.3426L234.482 34.5357L233.352 34.0515L231.577 33.5674L229.963 32.7605L229.479 32.115L229.318 31.6309V30.0171L229.963 29.0488L230.931 28.2419L232.545 27.7578Z" fill="#000690"/>
<path d="M254.331 10.0059L256.106 10.1672L257.397 10.8127L258.043 11.6196L258.527 12.9107V19.6885L258.366 19.8499H256.59L256.268 19.6885L256.106 14.6858L255.783 13.3948L254.977 12.5879L253.686 12.4265L252.717 13.072L252.395 13.5562L252.233 14.3631L252.072 19.6885L251.91 19.8499H249.974L249.812 19.6885V10.49L251.426 10.3286L252.233 10.9741L253.524 10.1672L254.331 10.0059Z" fill="#000690"/>
<path d="M229.8 10.0059L231.737 10.3286L232.705 10.8127L233.996 12.2651V12.9107L232.705 13.072L232.543 13.2334H231.575L230.768 12.4265L229.316 12.2651L228.509 12.7493V13.2334L230.93 14.0403L232.543 14.5244L233.512 15.1699L233.996 15.8154L234.157 17.2678L233.834 18.2361L233.189 19.043L232.059 19.6885L231.414 19.8499H228.67L227.541 19.3658L226.411 18.3975L225.766 17.1065L227.379 16.461L228.348 16.6223L228.993 17.4292L229.8 17.752H230.768L231.414 17.4292V16.6223L230.284 16.1382L227.702 15.3313L226.734 14.6858L226.25 13.7175V12.1038L226.895 11.1355L227.702 10.49L228.509 10.1672L229.8 10.0059Z" fill="#000690"/>
<path d="M152.016 10.0059L153.63 10.1672L155.083 10.8127L155.889 11.6196L156.212 12.1038L156.051 12.9107L154.921 13.2334H154.114L152.985 12.4265L151.694 12.2651L151.048 12.7493L150.887 13.3948L154.437 14.3631L155.728 15.0086L156.374 15.9768L156.535 17.1065L155.889 18.7202L154.437 19.6885L153.792 19.8499H151.048L149.918 19.3658L148.627 18.2361L148.305 17.752V16.9451L148.95 16.6223H150.725L151.371 17.4292L152.339 17.752L153.469 17.5906L153.792 17.4292L153.953 16.2996L152.178 15.9768L149.757 15.1699L148.627 14.2017L148.466 13.072L148.789 11.781L149.596 10.8127L151.048 10.1672L152.016 10.0059Z" fill="#000690"/>
<path d="M207.369 27.7578H209.144L210.597 28.4033L211.888 29.533L212.533 30.5012L212.372 31.1467L211.081 31.6309H210.113L209.306 30.6626L208.66 30.3399H207.369L206.885 30.824H206.562L206.24 31.7922V33.8902L206.885 35.1812L207.692 35.6653L209.144 35.5039L209.951 34.697L210.113 34.3743L211.565 34.5357L212.533 34.697L212.049 36.1494L211.081 37.2791L209.79 37.9246L208.983 38.086H207.531L205.917 37.6018L204.948 36.9563V36.6336H204.626L203.819 35.1812L203.496 33.8902V31.9536L203.98 30.3399L204.626 29.3716H204.948V29.0488L206.401 28.0806L207.369 27.7578Z" fill="#000690"/>
<path d="M162.831 27.7578H164.122L165.736 28.2419L167.189 29.533L167.673 30.3399L167.511 31.1467L166.382 31.6309H165.413L164.445 30.5012L163.961 30.3399H162.831L162.024 30.6626L161.702 31.4695L161.379 32.4378L161.54 34.0515L162.024 35.0198L162.831 35.6653H164.122L165.252 34.697L165.413 34.3743L167.511 34.5357L167.673 35.3426L167.027 36.4722L165.736 37.6018L164.122 38.086H162.831L161.218 37.6018L159.927 36.6336L159.12 35.3426L158.797 33.8902V31.7922L159.442 30.0171L160.572 28.7261L162.186 27.9192L162.831 27.7578Z" fill="#000690"/>
<path d="M264.497 25.498H266.756L266.917 25.6594V28.0801H269.015L269.661 28.2415V30.0166H266.917L267.079 34.8579L267.401 35.6648L269.499 35.8262L269.661 35.9876V37.2786L269.499 37.7627L269.177 37.9241H266.756L265.303 37.2786L264.658 36.3103L264.497 35.8262V30.178H263.206L262.883 30.0166V28.0801H264.497V25.498Z" fill="#000690"/>
<path d="M284.829 25.498H287.249V28.0801H289.831L289.993 28.2415V29.5325L289.831 30.0166H287.249L287.411 35.5034L288.379 35.8262H289.831L289.993 35.9876V37.1172L289.509 37.9241H287.088L285.474 37.1172L284.99 36.3103L284.829 35.5034L284.667 30.178L283.215 30.0166V28.2415L283.538 28.0801H284.829V25.498Z" fill="#000690"/>
<path d="M275.469 24.8535H277.728L277.889 35.3431L283.215 35.5044L283.376 36.1499V37.7637H275.469V24.8535Z" fill="#000690"/>
<path d="M253.683 28.0801H255.459L256.104 29.6939L257.234 33.2442L257.556 34.3738L257.879 33.8897L259.977 28.0801H262.075L261.914 29.5325L259.977 35.1807L259.17 37.44L258.686 37.9241H257.072L256.588 37.7627L255.459 35.0193L253.199 28.7256V28.2415L253.683 28.0801Z" fill="#000690"/>
<path d="M193.49 25.3359L193.975 25.4973L194.136 27.918L196.718 28.0794V30.1773H194.136V34.6958L194.297 35.3413L194.943 35.6641L196.718 35.8255L196.879 36.471L196.718 37.6006L196.395 37.9234H193.975L192.361 37.1165L191.877 36.6324L191.715 36.1482L191.554 30.1773L190.102 30.0159V28.2407L190.263 28.0794H191.715L191.554 25.6587L191.715 25.4973L193.49 25.3359Z" fill="#000690"/>
<path d="M54.5442 19.043H59.0628L60.031 19.6885L60.6765 20.4954L60.9993 21.7864V23.0774L60.6765 24.207L59.5469 25.1753L58.2559 25.3367H54.3828V19.2043L54.5442 19.043Z" fill="#000690"/>
<path d="M187.035 9.52148H189.617L190.908 9.84424L191.876 10.9739L192.361 12.2649V14.6856L191.715 16.2993L190.585 17.2676L189.94 17.429H187.035V9.52148Z" fill="#FEFEFD"/>
<path d="M224.799 24.6914H226.897V37.6016L226.736 37.763H224.477V24.8528L224.799 24.6914Z" fill="#000690"/>
<path d="M125.875 28.0801H127.65L127.973 28.2415L127.812 29.3711L129.587 28.2415L131.362 28.0801L131.523 28.2415V30.178L131.362 30.3394L129.748 30.6621L128.457 31.7918L128.296 37.7627H125.875V28.0801Z" fill="#000690"/>
<path d="M169.444 10.3281H170.573V11.4578L172.026 10.6509L173.317 10.3281H174.124V12.426L172.187 12.9102L171.219 13.7171L171.057 19.688L170.089 19.8494H168.637V10.4895L169.444 10.3281Z" fill="#000690"/>
<path d="M197.523 10.3281H198.976L199.137 10.4895V11.4578L201.073 10.4895L202.526 10.3281L202.687 12.2647L201.719 12.5874L200.428 13.0715L199.621 13.8784L199.46 19.688H197.039V10.4895L197.523 10.3281Z" fill="#000690"/>
<path d="M199.141 28.0801H201.4V37.7627L201.077 37.9241L199.141 37.7627V28.0801Z" fill="#000690"/>
<path d="M176.062 10.4902H178.483L178.322 19.6887L176.708 19.8501L176.062 19.6887V10.4902Z" fill="#000690"/>
<path d="M295.157 30.0176L296.609 30.179L297.577 30.9858L297.9 31.7927V34.052L297.416 35.1817L296.609 35.8272L295.479 35.9885L294.35 35.5044L293.543 34.052V32.1155L294.188 30.8245L295.157 30.0176Z" fill="#FEFEFD"/>
<path d="M130.554 12.2656H132.168L133.136 12.9111L133.62 14.3635V15.8159L132.975 17.1069L132.168 17.7525H130.554L129.586 16.9456L129.102 15.8159V14.2022L129.747 12.9111L130.554 12.2656Z" fill="#FEFEFD"/>
<path d="M218.989 12.2656H220.441L221.409 12.9111L221.894 14.3635V15.9773L221.409 16.9456L220.441 17.7525H218.989L218.021 17.1069L217.536 16.3001L217.375 15.6546V14.5249L217.698 13.3953L218.505 12.5884L218.989 12.2656Z" fill="#FEFEFD"/>
<path d="M264.336 12.2656H265.627L266.596 12.9111L267.08 13.718V16.3001L266.434 17.2683L265.789 17.7525H264.014L263.207 17.1069L262.723 15.9773V14.0408L263.53 12.7498L264.336 12.2656Z" fill="#FEFEFD"/>
<path d="M244.969 27.2734H248.68L249.326 27.5962L249.81 28.5645V29.8555L249.326 30.6624L248.842 31.1465H244.969V27.2734Z" fill="#FEFEFD"/>
<path d="M95.5352 27.2734H99.0855L99.8923 27.7576L100.215 28.2417V30.0169L99.5696 30.9851L99.0855 31.1465H95.5352V27.2734Z" fill="#FEFEFD"/>
<path d="M153.792 33.4062H154.598V34.5359L153.953 35.5042L153.307 35.9883L151.694 36.1497L150.887 35.3428V34.5359L151.532 34.0518L153.792 33.4062Z" fill="#FEFEFD"/>
<path d="M120.225 33.4062H121.032V34.8586L120.386 35.6655L119.257 36.1497L117.804 35.9883L117.32 35.1814L117.482 34.3745L119.257 33.729L120.225 33.4062Z" fill="#FEFEFD"/>
<path d="M219.149 33.4062H219.634V34.5359L218.827 35.6655L217.536 36.1497L216.245 35.9883L215.922 35.5042V34.5359L216.567 34.0518L219.149 33.4062Z" fill="#FEFEFD"/>
<path d="M110.864 15.4922L111.671 15.6536L110.864 17.2673L109.896 18.0742L109.089 18.2356L108.121 17.9128L107.637 17.2673V16.4605L108.444 15.9763L109.573 15.6536L110.864 15.4922Z" fill="#FEFEFD"/>
<path d="M243.84 15.4922H244.969V16.6218L244.485 17.4287L243.356 18.0742H242.065L241.419 17.4287L241.258 16.4605L241.903 15.9763L243.84 15.4922Z" fill="#FEFEFD"/>
<path d="M162.828 15.4922H163.958L163.796 16.7832L162.505 17.9128L162.021 18.0742H160.73L160.246 17.4287V16.4605L161.053 15.9763L162.828 15.4922Z" fill="#FEFEFD"/>
<path d="M142.01 12.1035L143.462 12.2649L144.269 13.2332L144.43 13.8787L143.946 14.04H140.396L140.234 13.3945L141.041 12.4263L142.01 12.1035Z" fill="#FEFEFD"/>
<path d="M172.834 30.0176H174.286L175.255 30.6631L175.577 31.6314L175.416 31.7927H171.866L171.543 31.6314L171.704 30.8245L172.35 30.179L172.834 30.0176Z" fill="#FEFEFD"/>
<path d="M176.062 7.10156H178.322L178.483 7.26294L178.322 9.03809L178.16 9.19947H176.062V7.10156Z" fill="#000690"/>
<path d="M199.141 24.6914H201.4V26.7893H199.141V24.6914Z" fill="#000690"/>
</svg>
