<svg width="300" height="85" viewBox="0 0 300 85" fill="none" xmlns="http://www.w3.org/2000/svg">
<path d="M34.9388 0H37.445L38.1821 0.589685L42.1625 2.801L46.2902 5.30716L48.649 6.63395L52.1871 8.69785L56.4623 11.204L58.6736 12.5308L62.5066 14.7421L66.1921 16.9534L69.2879 18.7225L72.2364 20.4915L72.5312 20.9338L72.3838 63.0963L71.057 63.9808L67.5189 66.0447L64.423 67.8137L62.5066 68.9931L58.9685 71.057L55.1355 73.2683L52.4819 74.89L48.649 77.1013L45.1109 79.1652L42.7521 80.6394L39.8037 82.261L37.1501 83.8826L36.5604 84.3249L35.8233 84.1775L32.8749 82.4084L29.042 80.1971L24.3245 77.3961L20.4915 75.1848L15.7741 72.3838L11.9411 70.1725L7.22364 67.3715L3.68553 65.3076L1.03195 63.6859L0 62.9488V27.4203L0.147421 20.639L1.32679 19.9019L11.0566 14.1524L14.5947 12.0885L18.5751 9.7298L21.6709 7.96074L26.3884 5.15974L29.6317 3.24327L33.4646 1.03195L34.7914 0.147421L34.9388 0ZM36.1182 3.68553L34.0543 4.8649L31.9904 6.19169L28.3049 8.25559L24.3245 10.6143L21.0812 12.5308L17.2483 14.7421L14.2999 16.5112L10.7617 18.5751L6.78137 20.9338L3.68553 22.7029V60.7375L4.27521 61.3272L10.1721 64.8653L16.806 68.6983L20.4915 70.9096L23.1451 72.3838L26.0935 74.1528L30.0739 76.5116L33.1698 78.2806L36.1182 80.1971L36.8553 79.9023L39.6563 78.1332L42.7521 76.3642L45.2583 74.89L48.9438 72.6786L51.7448 71.057L54.8407 69.2879L57.1994 67.8137L59.853 66.3395L63.0963 64.423L67.2241 61.9169L68.4034 61.1798L68.8457 60.5901V38.7718L68.9931 22.9977L67.6663 22.1132L62.9488 19.3122L59.4107 17.2483L54.6933 14.4473L51.1551 12.3834L47.3222 10.1721L43.6367 7.96074L40.0986 5.89685L36.8553 3.98037L36.1182 3.68553Z" fill="#255B8B"/>
<path d="M250.468 1.0332H251.942L252.089 1.18062L252.237 40.0998L252.089 40.2472H245.308L244.718 39.3627L242.802 34.9401L239.853 27.4216L238.084 22.8515L236.315 17.5444L235.283 14.5959L234.841 14.0063L235.283 19.6083L235.431 23.5886V40.2472H228.797V1.32805L229.092 1.18062H235.578L236.168 1.77031L237.79 5.75068L239.559 10.3207L241.623 15.6279L243.244 19.7557L245.161 25.2103L246.34 27.569L245.75 21.0825L245.455 14.7434L245.308 1.32805L245.455 1.18062L250.468 1.0332Z" fill="#245A8B"/>
<path d="M182.951 1.0332H186.194L189.584 1.32805L191.943 1.91773L194.302 3.0971L196.071 4.42389L197.693 6.48779L199.167 9.28879L200.051 12.0898L200.641 15.4805L200.936 19.166L200.788 23.4412L200.199 27.4216L199.167 31.1071L198.282 33.171L197.25 34.7926L195.629 36.7091L194.302 37.8885L192.238 39.0679L190.764 39.6575L187.373 40.3947L186.046 40.5421H179.707L177.054 40.2472L176.906 40.0998V1.62289L178.528 1.32805L182.951 1.0332ZM184.867 6.93005L184.572 7.07747V34.3504L185.162 34.6452L186.783 34.4978L188.405 33.9081L189.584 33.0236L190.469 31.9916L191.648 29.6329L192.385 27.1267L192.828 23.2938V17.1021L192.385 13.4166L191.648 11.0578L190.616 9.14137L190.027 8.40426L188.553 7.37231L187.373 6.93005H184.867Z" fill="#245A8B"/>
<path d="M126.044 1.0332H130.614L133.858 1.32805L136.216 1.91773L137.985 2.80226L139.46 3.98163L140.639 5.45584L141.671 7.66715L142.113 9.87847V13.4166L141.671 15.4805L140.934 17.2495L139.754 18.8712L138.575 20.198L137.101 21.2299L136.069 21.5247L136.806 22.2618L137.985 23.1464L139.165 24.4732L140.049 26.3896L140.786 29.1906L142.261 36.4143L142.998 39.0679L143.293 39.805V40.2472H135.184L134.742 38.773L133.858 34.203L132.973 28.7484L132.383 26.9793L131.646 25.8L130.762 25.0629L129.582 24.6206L127.961 24.3257V40.0998L127.813 40.2472H120.147L120 1.77031L120.737 1.47547L123.391 1.18062L126.044 1.0332ZM128.403 6.63521L127.961 6.93005L127.813 7.37231V18.7237L127.961 18.8712H129.582L131.351 18.2815L132.531 17.5444L133.563 16.365L134.152 14.8908L134.3 14.3011V10.3207L133.71 8.84652L132.678 7.66715L131.794 7.07747L129.877 6.63521H128.403Z" fill="#245A8B"/>
<path d="M147.569 1.17969H154.94L155.088 1.32711L155.235 28.0103L155.53 30.6639L156.12 32.433L157.004 33.4649L158.331 34.0546H159.805L161.132 33.1701L161.722 32.2856L162.164 30.9588L162.459 28.8949L162.606 1.32711L162.754 1.17969H170.125L170.272 1.32711V27.2732L169.977 30.3691L169.388 33.0227L168.651 34.7917L167.766 36.4133L166.734 37.7401L165.555 38.9195L163.786 39.9515L161.869 40.5411L160.248 40.836H157.152L155.088 40.3937L153.319 39.6566L151.697 38.6247L150.37 37.2979L149.191 35.234L148.306 33.0227L147.717 30.6639L147.422 27.2732V1.32711L147.569 1.17969Z" fill="#245A8B"/>
<path d="M34.4953 8.25586H37.5911L39.5076 8.99297L41.2766 10.0249L43.1931 11.794L44.6673 13.7104L46.4364 16.5114L48.2054 19.6073L50.2693 23.2928L52.3332 26.8309L53.9548 29.6319L55.7239 32.7278L57.7878 36.2659L59.5569 39.3617L61.7682 43.3421L63.9795 47.0276L65.1589 49.3864L66.0434 51.8925L66.4856 54.2513V57.1997L66.0434 58.9687L65.1589 60.443L63.8321 61.9172L61.9156 63.244L59.9991 64.1285L58.8197 64.4233L57.1981 64.5707H47.4683L47.3209 64.2759V46.2905L48.2054 45.1112L50.4167 42.8998L51.0064 42.4576H21.3748L22.7016 43.4895L24.9129 45.7008L25.2077 46.2905V64.4233L23.2912 64.5707H15.3305L12.9718 64.2759L10.613 63.244L8.99139 62.0646L7.95944 61.1801L6.78007 59.5584L6.19039 58.0842L6.04297 57.1997V53.809L6.78007 51.008L7.6646 48.7967L9.13881 45.9957L11.3501 42.3102L12.8243 39.6566L14.7408 36.2659L16.6573 33.0226L18.5738 29.6319L20.1954 26.8309L22.2593 23.2928L23.5861 20.9341L26.0922 16.6589L27.419 14.4475L28.7458 12.5311L30.0726 10.9094L31.9891 9.43523L34.053 8.40328L34.4953 8.25586ZM35.3798 10.9094L33.9056 11.3517L32.4314 12.2362L30.6623 13.8579L29.3355 15.6269L28.1561 17.5434L25.9448 21.3763L24.1758 24.3248L22.1119 28.0103L20.1954 31.2536L17.9841 35.0865L16.5099 37.7401L15.0357 40.0988L13.5614 42.605L11.4976 46.2905L10.3182 48.5018L9.13881 51.5977L8.69655 53.6616V56.7574L9.13881 58.2316L9.7285 59.1162L10.4656 60.0007L12.2347 61.3275L14.0037 62.0646L14.8882 62.212H22.7016L22.849 45.9957L21.817 44.6689L20.3428 43.3421L17.8367 41.573L15.9202 40.3937L15.7728 39.804L17.247 39.9514L36.7066 40.2463L56.6084 40.3937L56.1662 40.8359L54.5445 41.7205L52.4806 43.3421L51.0064 44.6689L49.8271 45.8483L49.6796 46.1431V62.212H56.461L58.3775 62.0646L60.1465 61.3275L61.7682 60.1481L62.9475 58.9687L63.5372 57.7894L63.8321 56.3152V54.1038L63.2424 51.1554L62.063 48.207L60.4414 45.1112L58.6723 42.0153L56.7559 38.9195L54.8394 35.5288L53.0703 32.4329L51.1538 29.1897L49.09 25.5041L46.7312 21.5238L44.9622 18.4279L43.1931 15.4795L42.1612 14.1527L41.5715 13.4156L40.0973 12.2362L38.4756 11.3517L37.0014 10.9094H35.3798Z" fill="#303134"/>
<path d="M98.4772 1.0332H103.932L107.028 1.32805L109.239 1.91773L111.155 2.94968L112.63 4.12905L113.956 6.04552L114.841 7.962L115.431 10.3207L115.578 11.6475V13.2692L115.283 15.7753L114.693 17.9866L113.367 20.4928L112.04 22.1144L110.861 23.1464L108.797 24.3257L106.88 25.0629L104.521 25.5051L103.047 25.6525H101.131V40.0998L100.983 40.2472H93.4648V1.62289L93.6123 1.47547L96.2658 1.18062L98.4772 1.0332ZM101.72 6.93005L101.131 7.07747V19.6083L102.163 19.7557L104.227 19.3134L105.701 18.5763L106.733 17.6918L107.47 16.365L107.765 15.1856L107.912 12.3846L107.617 10.1733L106.88 8.6991L105.848 7.66715L104.521 7.07747L103.784 6.93005H101.72Z" fill="#245A8B"/>
<path d="M205.8 1.17969H220.1L222.901 1.32711V7.5188L222.458 7.66622H217.593L213.318 7.5188V16.8063H222.458V22.998H213.318V33.9072L214.94 33.7598H223.49L223.638 40.0989L223.49 40.2463H205.8L205.652 39.9515V1.32711L205.8 1.17969Z" fill="#255B8B"/>
<path d="M282.163 1.17969H298.969L299.116 1.32711V7.5188L298.527 7.66622L289.682 7.5188V16.8063H298.674V22.998H289.682V33.9072L295.726 33.7598H299.854L300.001 34.202L299.854 40.2463H282.016V1.32711L282.163 1.17969Z" fill="#255A8B"/>
<path d="M172.041 52.9238H177.643L177.938 53.3661L179.413 60.2949L180.887 67.0763L181.624 71.6463L181.771 72.0886L182.214 70.9092L183.835 62.5062L185.899 53.2187L186.046 52.9238H191.648L191.796 53.0712L192.828 71.4989L193.27 78.4277V80.639L193.123 80.7864H188.553L188.405 80.639L187.668 62.3588L187.373 63.2433L185.604 72.0886L183.688 79.9019L183.245 80.3442H179.855L179.56 80.0493L177.054 69.435L175.58 62.3588L175.432 63.833L175.137 73.7102L174.99 80.639L174.695 80.7864H170.272L170.125 79.3122L171.452 60.2949L171.894 54.2506L172.041 52.9238Z" fill="#255B8B"/>
<path d="M277.74 52.9238H283.342L283.637 53.5135L284.668 58.8207L285.848 64.1278L286.585 67.9608L287.322 71.9412L287.469 72.236L287.912 70.4669L288.944 64.7175L290.565 57.0516L291.45 53.0712L291.597 52.9238H297.199L297.347 53.5135L298.673 76.3638L298.821 78.5751V80.7864H294.103L293.956 80.639L293.514 69.435L293.366 62.3588L293.071 62.9485L291.45 70.9092L289.239 79.7545L288.944 80.3442H285.406L284.963 79.3122L283.342 72.3834L282.015 66.1917L281.278 62.3588L281.13 63.0959L280.393 80.639L280.246 80.7864H275.676V79.3122L276.413 69.7298L277.445 54.1032L277.592 53.0712L277.74 52.9238Z" fill="#255B8B"/>
<path d="M270.074 1.0332H275.086L277.592 1.32805L278.034 1.47547L277.887 3.24452L277.15 7.37231L276.855 7.962L275.823 7.81458L274.349 7.37231H272.285L270.516 7.962L268.894 8.99395L267.862 10.1733L266.978 11.7949L266.241 13.4166L265.504 16.6598L265.209 19.9031V21.8196L265.504 25.0629L266.093 27.7164L266.83 29.6329L267.715 31.1071L268.747 32.2865L270.368 33.3184L271.99 33.9081H274.644L276.56 33.3184H277.002L277.445 36.1194L277.74 39.6575L277.297 40.0998L273.612 40.6895H269.631L267.125 40.0998L265.061 39.2153L263.292 38.0359L261.818 36.7091L260.344 34.7926L258.87 31.9916L257.838 28.8958L257.101 25.2103L256.953 23.8835V18.8712L257.395 15.6279L258.132 12.5321L259.312 9.58363L260.491 7.37231L261.965 5.45584L263.734 3.68678L265.798 2.35999L267.715 1.47547L270.074 1.0332Z" fill="#245A8B"/>
<path d="M239.265 52.9238H244.572V64.1278L250.174 64.2753V52.9238H255.481L255.628 53.0712L255.776 80.639L255.628 80.7864H250.174V69.1402H244.572V80.7864H239.265L239.117 80.639V53.0712L239.265 52.9238Z" fill="#265B8C"/>
<path d="M111.598 52.9238H116.905L117.052 53.5135V64.1278H122.507V53.0712L122.654 52.9238H127.814L128.109 53.0712V57.4939L127.961 80.7864H122.654V69.1402H116.905L117.052 77.5432V80.7864H111.598V52.9238Z" fill="#255B8B"/>
<path d="M154.79 52.9238H160.54L162.456 53.3661L164.52 54.398L165.994 55.8723L166.731 57.3465L167.174 59.1155V62.0639L166.731 63.6856L165.847 65.3072L165.404 65.8969H165.11V66.1917L163.93 67.0763L163.193 67.6659L164.815 69.1402L165.847 71.2041L166.436 73.8576L167.468 78.5751L167.911 79.9019V80.7864H162.309L161.866 79.4596L161.129 75.3318L160.392 71.6463L159.95 70.7618L158.918 69.8773L157.001 69.5824L157.149 72.236V80.7864H151.694L151.547 79.7545V53.5135L152.431 53.2187L154.79 52.9238ZM157.591 56.9042L157.001 57.199V60.4423L157.149 65.7495L158.771 65.602L160.097 65.0124L160.834 64.4227L161.424 63.3907L161.719 61.9165V60.2949L161.129 58.3784L160.392 57.4939L159.655 57.0516L159.065 56.9042H157.591Z" fill="#275C8C"/>
<path d="M201.521 52.9238H207.713L208.007 53.3661L209.776 62.9485L212.135 74.8896L213.315 80.639L213.167 80.7864H207.86L206.828 74.8896L206.681 74.5947L201.816 74.4473L201.521 76.3638L200.784 80.639L200.489 80.7864H195.477L195.624 79.4596L198.278 66.7814L200.341 57.3465L201.226 53.3661L201.521 52.9238ZM204.322 58.5258L204.027 59.2629L202.553 68.5505L202.258 70.3195H206.238L206.091 68.2556L204.764 59.1155L204.469 58.5258H204.322Z" fill="#255B8B"/>
<path d="M136.806 52.9238H143.145L143.44 53.2187L145.209 63.0959L147.715 75.9215L148.747 80.3442V80.7864H143.44L143.145 80.0493L142.261 75.037L142.113 74.5947L137.101 74.4473L136.953 75.9215L136.069 80.7864H130.762L131.057 79.0174L132.826 71.0566L135.479 58.3784L136.659 53.0712L136.806 52.9238ZM139.607 58.5258L139.46 58.6733L138.28 66.7814L137.691 70.3195H141.671V69.1402L140.639 62.5062L140.049 58.9681L139.607 58.5258Z" fill="#255A8B"/>
<path d="M95.5265 52.9238H101.276L103.192 53.3661L104.962 54.2506L106.436 55.43L107.32 56.7568L108.057 58.6733L108.205 59.5578V62.9485L107.615 65.3072L106.731 66.7814L105.404 68.2556L104.224 69.1402L102.603 69.8773L100.539 70.3195L99.3595 70.4669H98.0327L98.1801 80.639L98.0327 80.7864H92.7255L92.5781 79.6071V53.8084L92.873 53.2187L95.5265 52.9238ZM98.1801 57.199L98.0327 57.3465V66.0443L98.1801 66.1917H99.6543L101.276 65.602L102.013 65.0124L102.603 63.9804L102.898 61.7691L102.75 59.7052L102.013 58.231L100.981 57.3465L100.539 57.199H98.1801Z" fill="#265B8C"/>
<path d="M260.348 52.9238H272.436L272.584 53.0712V56.3145L272.436 57.6413H265.802V64.1278H271.994L272.141 64.2753V68.4031L271.994 68.5505H265.802V76.2164H273.026V80.639L272.878 80.7864H260.495L260.348 80.639V52.9238Z" fill="#245A8B"/>
<path d="M230.861 52.7754H234.841L236.168 53.0702L236.315 53.2177V54.6919L235.431 57.9351L235.136 58.0826L233.662 57.4929H232.04L230.713 58.0826L229.829 58.6722L228.797 60.1464L228.06 61.7681L227.47 64.1268L227.323 65.601V68.402L227.617 70.7608L228.502 73.2669L229.534 74.8886L230.713 75.7731L232.188 76.2154H233.809L235.578 75.9205L236.02 78.4267V80.4906L234.546 80.9328L233.072 81.0803H230.418L228.06 80.4906L226.438 79.606L224.669 77.9844L223.637 76.5102L222.605 74.4463L221.868 71.7927L221.426 68.6969V66.3381L221.721 63.5371L222.31 61.031L223.195 58.8197L224.079 57.198L225.406 55.5764L227.175 54.2496L229.534 53.0702L230.861 52.7754Z" fill="#255B8B"/>
<path d="M32.1388 45.9961H35.3821L37.5934 46.1435L39.5099 46.7332L41.1315 47.7651L42.3109 48.9445L43.048 50.4187L43.3428 51.4507V53.8094L42.9006 55.2836L42.016 56.6104L40.9841 57.4949L39.6573 58.0846H37.0037L35.6769 57.6424L34.4976 56.7578L33.7604 55.5785L33.613 54.6939L34.4976 53.0723L35.0872 52.3352L36.1192 52.1878L36.414 52.3352L36.8563 53.9568L37.1511 54.5465L37.446 54.6939H38.6253L39.3624 53.9568L39.8047 52.63V51.1558L39.5099 49.829L38.7728 48.6497L37.5934 47.7651L36.7089 47.4703H34.645L34.2027 47.9126L34.0553 52.1878L33.3182 53.662L33.1708 54.6939L33.613 56.463L34.0553 57.6424L34.2027 61.6227L34.4976 62.2124L35.8243 63.2444L35.9718 64.1289L35.2347 64.7186L33.613 64.5712H29.4852L29.1904 64.2763V63.3918L30.5172 62.2124L30.9594 61.7702V48.7971L29.9275 47.6177L29.1904 47.028L29.043 46.2909L29.6327 46.1435L32.1388 45.9961Z" fill="#265B8C"/>
<path d="M35.6736 20.0488L36.5581 20.1962L37.7375 21.2282L38.7694 22.8498L40.8333 26.8302L42.3075 29.4838L43.6343 31.8425L44.8137 34.3487L45.1085 35.2332V36.56L44.5188 37.7394L43.3395 38.7713L42.7498 39.0662L40.8333 39.2136H29.187L28.1551 38.4765L27.5654 37.4445L27.418 36.1177L28.0077 34.2013L30.9561 28.157L33.4622 22.7024L34.3468 21.0808L35.3787 20.1962L35.6736 20.0488ZM35.821 21.6705L35.0839 22.2601L33.9045 24.6189L32.1354 28.3044L31.3983 29.7786V30.0735L32.7251 30.2209L33.02 30.3683L32.8726 31.2528L32.2829 31.5477L30.9561 31.2528L30.8087 31.4003V32.2848L31.5458 32.1374L31.8406 32.2848L31.5458 33.1693L30.6612 34.4961L30.3664 35.0858L29.7767 35.2332L29.3344 35.5281L29.4819 36.1177L30.3664 35.9703V36.8548L29.7767 37.1497L29.9241 38.1816L30.0715 38.3291H41.7178L42.6023 37.5919L43.7817 36.1177V35.3806L43.192 34.9384L42.1601 35.2332L40.5385 35.5281L40.8333 34.2013L41.423 33.759H41.7178L42.3075 34.4961L42.8972 34.6435L42.4549 33.759L41.8652 33.3167H41.5704L41.8652 31.9899L42.3075 31.4003V30.958L41.5704 31.1054L40.2436 31.8425L38.9168 31.1054L38.7694 30.3683L41.2756 29.926L40.9807 29.1889L39.6539 27.125L37.7375 23.4395L36.7055 21.9653L35.821 21.6705ZM30.3664 33.0219L30.0715 33.759H30.5138L30.6612 33.0219H30.3664Z" fill="#285D8D"/>
<path d="M37.5895 31.9902H40.0957L39.8008 33.1696L39.2112 34.2016L38.7689 35.2335L38.4741 35.3809L36.5576 35.5283L36.4102 35.3809L36.5576 34.2016L37.4421 33.4644L37.7369 33.7593L38.7689 33.9067L37.5895 33.1696L37.4421 33.0222L37.5895 31.9902Z" fill="#2C608F"/>
<path d="M33.6119 31.9902H35.0862L35.9707 32.4325L35.8233 33.1696L35.0862 34.2016L34.7913 35.3809L32.4326 35.5283L32.2852 34.9387L32.7274 33.9067L33.0223 33.6119L34.6439 33.9067L34.3491 33.6119L33.3171 33.1696L33.4645 32.1377L33.6119 31.9902Z" fill="#2A5E8E"/>
<path d="M37.2968 13.5625H38.3287L38.9184 13.8573L39.0658 14.8893L38.4761 16.0687L37.4442 16.9532L37.1494 17.1006L35.5277 17.248V16.9532L34.4958 16.8058L33.6112 15.3316L33.3164 14.5944L33.4638 14.0048L34.0535 13.8573L34.6432 14.0048L34.4958 14.2996L35.2329 13.8573V14.2996L34.6432 14.7419L34.7906 15.7738L35.3803 16.3635L36.5597 16.5109L37.4442 16.0687L37.739 15.7738V14.447L37.2968 13.7099V13.5625Z" fill="#396A96"/>
<path d="M38.6233 35.8242L38.9182 35.9716L38.6233 37.4459L38.4759 37.5933H36.5595L36.1172 37.0036L36.2646 35.9716L38.6233 35.8242Z" fill="#2E6190"/>
<path d="M34.348 35.8242H34.7903L34.4955 37.151L34.2006 37.5933L32.7264 37.7407L32.1367 37.151V36.1191L32.2841 35.9716L34.348 35.8242Z" fill="#2F6291"/>
<path d="M34.6435 30.0742H37.0023L37.2971 30.2216L37.1497 31.2536L36.4126 31.9907L35.0858 31.401L34.4961 30.9587V30.2216L34.6435 30.0742Z" fill="#3C6C97"/>
<path d="M40.6845 35.8242L42.7483 35.9716L43.0432 36.1191L42.8958 36.8562L42.4535 37.2984L41.4216 37.5933H40.6845L40.2422 36.8562L40.3896 35.9716L40.6845 35.8242Z" fill="#2C608F"/>
<path d="M41.4275 33.6113L41.8698 33.7587L42.6069 34.4959L43.0491 34.6433L43.1965 35.0855L42.1646 35.3804L40.543 35.5278V34.4959L41.1327 33.7587L41.4275 33.6113Z" fill="#2D618F"/>
<path d="M37.8864 17.8379L38.3287 17.9853L38.1812 18.8698L37.8864 19.1647H37.0019L36.707 19.0173L36.8545 18.4276L37.4441 17.9853L37.8864 17.8379Z" fill="#336593"/>
<path d="M34.3505 18.1328H35.3825L35.8248 18.4277L35.5299 19.0173L34.6454 19.1648L34.2031 18.7225L34.3505 18.1328Z" fill="#376895"/>
</svg>
