<svg width="300" height="93" viewBox="0 0 300 93" fill="none" xmlns="http://www.w3.org/2000/svg">
<path d="M0 71.5879H299.841L300 71.7466V92.2226L299.524 92.3814H0.15873L0 92.2226V71.5879Z" fill="#326B4B"/>
<path d="M45.4018 3.80859H46.8304L47.1478 4.12605L47.3066 5.23715L47.624 9.84029L47.9415 10.6339L49.2113 11.2688L51.2748 11.745L51.5923 12.2212V14.4434L50.3224 25.0782L49.6875 29.6814L49.5288 31.4274L50.3224 30.9512L50.7986 30.1576L52.2272 26.8243L53.497 23.8084L55.2431 19.0466L56.3542 15.2371L56.1954 13.9672L54.9256 13.3323L53.1796 12.6974L52.8621 12.3799V10.3165L53.3383 6.98317L53.8145 5.07842L54.132 4.76097H55.4018L59.5288 5.71334L61.5923 6.50698L62.8621 7.45935L63.1796 7.93554L63.0208 9.99901L62.3859 11.9038L62.5447 13.0149L63.8145 14.126L64.7669 14.7609L65.0843 15.2371L64.9256 16.1894L63.6558 18.7291L61.5923 22.3799L59.6875 25.5544L57.9415 28.5703L56.5129 31.2687L55.878 33.3321L56.8304 33.0147L58.2589 31.9036L59.8462 30.3163L61.5923 28.0941L63.3383 26.0306L65.4018 23.6497L67.624 20.6338L68.8939 18.7291L68.7351 17.7767L67.1478 15.7133L66.6716 15.2371L66.8304 14.2847L68.2589 12.3799L69.6875 10.7927L70.1637 10.6339L72.3859 11.745L74.6081 13.3323L76.6716 15.2371L76.8304 15.3958V16.3482L75.7193 18.2529L75.878 19.2053L76.9891 20.9513L77.1478 21.9037L76.3542 23.0148L75.5605 23.8084L73.6558 25.5544L71.1161 27.9354L69.5288 29.3639L67.624 31.1099L65.878 32.6972L64.6081 33.8083L62.5447 35.7131L61.751 36.6654L61.5923 37.1416L63.0208 36.6654L65.4018 35.2369L69.0526 33.3321L73.3383 31.1099L76.9891 29.0465L79.5288 27.6179L80.1637 27.3004L79.2113 25.5544L78.2589 23.491L78.5764 22.6973L80.3224 21.2688L81.1161 20.4751L81.751 20.6338L83.0208 21.7449L85.0843 24.4433L86.5129 26.8243L87.624 29.0465V29.9988L86.8304 30.475L85.7193 31.1099L85.5605 31.4274V33.9671L85.2431 34.602L82.7034 35.3956L75.878 37.4591L68.2589 39.84L65.878 40.6337L64.9256 41.1098L65.0843 42.0622L65.4018 42.3797L68.1002 42.221L71.5923 41.586L78.8939 39.9987L84.4494 38.8876L85.0843 38.5702V35.3956L85.7193 34.602L87.4653 33.9671L88.8939 33.8083L89.5288 34.1258L90.3224 36.0305L90.9574 38.8876L91.5923 42.0622V42.8559L90.3224 43.967L89.37 46.3479L88.5764 47.459L87.624 47.6177H79.8462L66.5129 47.7765V49.6812L69.6875 49.8399L81.5923 51.5859L86.6716 52.2209L87.3066 49.0463L87.9415 48.2526L88.4177 48.0939L90.7986 48.4114L91.4335 48.8876L91.2748 51.2685L90.4812 55.7129L89.5288 59.2049L88.2589 61.7446L87.4653 62.8557L86.0367 62.5382L81.9097 61.2684L71.5923 57.3002L67.1478 55.8716L65.5605 55.5542L65.7193 56.824L67.3066 58.2526L70.005 59.9986L73.8145 62.2208L75.7193 63.4906L76.6716 64.443L76.5129 65.2366H67.4653L65.878 64.1255L63.8145 62.2208L62.8621 61.9033L60.7986 63.3319L59.8462 63.1731L57.4653 60.7922L56.0367 59.0462L54.4494 56.9827L52.7034 54.4431L52.0685 53.332V52.697L53.0208 53.0145L54.7669 54.1256L57.4653 56.0304L59.5288 57.6176L60.7986 58.4113L61.9097 58.7287L63.0208 57.9351L62.8621 57.3002L60.005 55.3954L56.6716 53.332L54.9256 52.0621L53.8145 51.1098L53.3383 50.1574L53.497 49.8399L54.9256 50.1574L60.3224 51.2685L62.8621 51.7447L63.9732 51.5859L64.2907 51.4272L64.4494 50.6336L64.2907 49.8399L60.4812 49.205L57.4653 48.5701L53.9732 48.0939L54.132 47.3003L54.7669 46.8241L57.3066 46.1892L62.3859 45.2368L62.7034 45.0781V44.1257H59.2113L56.5129 44.4432H54.2907L54.4494 43.6495L56.6716 42.0622L59.0526 40.6337L60.3224 39.5226L60.4812 39.0464L58.5764 39.5226L55.7193 40.6337L53.497 41.586H52.3859L52.0685 41.2686L52.2272 40.3162L53.497 38.5702L54.2907 37.1416L54.4494 36.348L53.497 36.9829L50.6399 39.84L50.1637 39.9987L49.5288 39.6813L49.6875 39.0464L50.6399 36.9829L50.7986 36.348V34.4432L50.1637 34.2845L49.6875 34.9194L48.2589 38.4115L47.7827 38.7289L46.8304 38.4115L46.5129 37.7765V36.8242L46.8304 36.348V35.5543H45.7192L45.0843 36.0305L45.2431 37.1416V38.4115L44.4494 39.0464L43.6558 38.8876L43.0208 37.4591H42.3859L42.2272 38.094L43.0208 39.6813V39.9987L41.751 40.1575L40.6399 39.2051V38.8876L39.6875 38.7289L39.0526 39.0464L38.1002 38.8876L36.6716 37.9353L34.4494 36.0305L29.6875 31.9036L28.1002 30.475L26.8304 29.3639L25.0843 27.9354L23.0208 26.1893L22.0685 26.0306L20.9573 27.4592L20.005 27.9354L18.4177 27.4592L15.5605 25.7132L12.7034 23.491L10.1637 21.4275L9.6875 20.9513L10.005 20.1577L12.0685 17.618L14.6081 15.0783L15.5605 14.4434L16.3542 14.6021L17.4653 15.7133L18.7351 16.8244L21.4335 19.5227L22.0685 20.3164L23.3383 21.4275L24.1319 21.2688L26.3542 19.8402L26.9891 19.364L27.624 19.6815L28.7351 20.9513L30.7986 23.9671L32.3859 26.0306L34.6081 29.0465L36.8304 31.9036L38.7351 34.602L39.5288 35.3956L39.6875 35.8718L40.4812 36.1893L40.7986 36.348L40.3224 34.9194L38.8939 32.221L36.9891 28.8877L34.6081 24.4433L31.751 18.7291L31.1161 17.9355L29.8462 18.2529L27.9415 19.0466L27.4653 18.8878L26.0367 16.3482L24.1319 13.6498L22.7034 11.2688L22.3859 10.3165L23.6558 9.3641L26.0367 8.09427L30.4812 6.34825L30.9573 6.50698L32.0685 9.84029L33.3383 12.6974L34.2907 13.8085L37.7827 13.1736L38.5764 13.9672L39.6875 17.9355L41.2748 25.8719L42.3859 31.2687L43.0208 33.0147L43.6558 33.4909L44.132 33.3321L44.4494 32.3798V29.0465L43.497 19.0466L43.3383 14.9196L43.1796 13.8085L42.8621 13.6498H40.4812L39.37 13.1736L38.8939 12.2212L37.9415 6.50698L37.624 5.55461V4.9197L42.0685 4.28478L45.4018 3.80859Z" fill="#EC8332"/>
<path d="M115.396 4.28516H130.158V12.5391L129.682 12.6978H120.952L117.777 12.8565L116.031 13.174L114.603 13.9676L114.761 14.6025L115.872 15.8724L122.539 19.9993L126.031 22.2215L128.571 23.9675L130.476 25.7135L131.587 27.3008L132.222 28.8881L132.38 29.6818V32.3801L131.904 34.2849L130.634 36.6658L129.206 38.2531L127.618 39.6817L125.396 40.7928L122.539 41.4277L121.111 41.5864L116.825 41.7451H104.761L104.444 41.4277V33.3325L104.92 33.1738H118.888L120.952 32.6976L121.745 31.904L121.904 31.269L121.269 30.3167L120.158 29.3643L117.301 27.4596L113.333 24.9199L109.523 22.3802L107.936 21.1104L106.349 19.5231L105.238 17.7771L104.603 16.1898L104.285 14.7613V13.0152L104.92 10.4756L105.872 8.72956L107.301 7.14227L108.888 6.03117L111.428 4.92007L113.809 4.44388L115.396 4.28516Z" fill="#343491"/>
<path d="M276.35 14.6035H280.477L283.017 15.0797L285.398 15.8733L287.461 17.1432L289.207 18.5717L290.794 20.4765L292.382 23.1749L292.223 23.9685L289.683 25.5558L285.08 28.0955L280.953 30.3177L277.302 32.2224L276.509 32.0637L274.128 28.2542L273.969 27.3018L275.239 26.3494L277.779 25.0796L280.636 23.4923L281.747 22.6987V22.2225L279.366 21.4289H277.144L275.08 22.0638L273.652 23.1749L272.54 24.7622L271.747 26.9844V29.0478L272.223 30.6351L273.175 32.3811L274.604 33.8097L275.874 34.6033L278.096 35.0795H279.842L282.223 34.6033L284.445 33.4922L286.191 32.0637L287.461 30.3177L288.096 30.1589L289.366 31.27L292.223 33.4922L293.175 34.2859L293.017 35.0795L291.906 36.1906L290.794 37.4605L289.048 39.0477L287.461 40.1588L284.921 41.4287L282.858 42.0636L281.112 42.381L279.366 42.5398H276.985L274.128 42.2223L271.429 41.2699L269.207 40.0001L267.461 38.5716L265.715 36.8255L264.287 34.6033L263.493 32.8573L262.858 30.6351L262.699 28.2542L263.017 26.032L263.969 23.1749L264.921 21.4289L266.667 19.2066L268.731 17.4606L271.112 16.0321L273.334 15.2384L275.239 14.7622L276.35 14.6035Z" fill="#343591"/>
<path d="M180.159 14.6035H184.921L187.461 15.0797L190.001 16.0321L191.905 17.1432L193.81 19.0479L195.08 21.2701L195.715 23.3336L195.874 24.7622L196.032 41.5874L195.874 41.7461H187.302L186.985 41.4287L186.826 26.5082L186.509 25.0796L185.556 23.6511L184.763 23.0161L183.81 22.6987H181.747L180.318 23.1749L179.048 24.4447L178.731 25.5558L178.572 34.4446V41.5874L178.413 41.7461H169.524L169.366 41.5874L169.207 40.0001V32.8573L169.366 24.7622L170.001 22.2225L170.794 20.3177L172.064 18.5717L173.175 17.4606L175.398 16.0321L177.302 15.2384L179.048 14.7622L180.159 14.6035Z" fill="#343591"/>
<path d="M136.984 15.5547H145.715L146.032 15.7134V29.3641L146.349 31.4276L146.984 32.6974L148.095 33.6498L149.048 33.9672H151.429L152.54 33.491L153.81 32.3799L154.127 31.5863L154.286 30.1577L154.445 15.7134L154.603 15.5547H163.492L163.651 15.7134V24.761L163.492 31.9037L163.016 34.4434L162.381 36.0307L161.27 37.9354L160 39.364L158.413 40.6338L156.191 41.7449L153.334 42.3798L151.27 42.5386H149.207L146.191 42.2211L143.175 41.11L141.588 40.1576L140 38.7291L138.889 37.4593L137.619 34.9196L137.143 32.8561L136.984 31.4276V15.5547Z" fill="#343591"/>
<path d="M246.666 15.3945H257.936L258.094 15.5533V22.0611L257.936 22.2199L251.428 22.3786L247.936 22.5373L246.19 22.8548L246.348 23.6484L247.142 24.2833L249.682 25.3944L253.491 26.9817L255.555 28.0928L257.142 29.3627L258.253 30.4738L259.206 32.3785L259.523 34.7594L259.047 36.9816L257.936 38.7277L256.983 39.8388L255.713 40.7911L254.126 41.426L251.428 41.7435H237.618L237.46 41.5848V34.7594L248.888 34.6007L250.317 34.1245L250.475 33.9658V32.8547L249.523 32.061L245.237 30.315L241.904 28.8865L239.999 27.7754L238.253 26.0294L237.46 24.4421L237.301 23.9659V21.1088L238.094 19.204L239.047 17.9342L240.475 16.6644L242.38 15.712L243.174 15.5533L246.666 15.3945Z" fill="#343491"/>
<path d="M218.254 14.6035H219.206L219.365 14.7622L219.524 22.3812L218.73 22.6987L215.714 23.0161L213.492 24.1272L212.222 25.3971L211.429 27.3018L211.111 29.2066L210.952 33.651V41.5874L210.794 41.7461H202.064L201.746 40.9525V15.8733L201.905 15.5559H210.318L210.476 15.7146L210.318 18.8892L211.27 18.413L213.175 16.5083L214.127 15.8733L217.46 14.7622L218.254 14.6035Z" fill="#343591"/>
<path d="M222.859 15.5547H232.066V41.7449H222.859V15.5547Z" fill="#343491"/>
<path d="M5.7172 26.9824L9.68545 28.5697L13.8124 30.157L15.7172 30.7919H16.5109L18.2569 28.8872L18.7331 28.5697L19.8442 28.7284L22.5426 30.157L26.1934 32.5379L28.7331 34.1252L32.2251 36.5061L35.3997 38.7283L37.3045 39.9982L39.0505 41.1093L39.5267 41.5855V42.2204H38.2569L32.8601 40.7918L23.9712 38.0934L18.8918 36.6649L18.0982 36.5061H16.8283L15.7172 37.6172L13.9712 38.7283L12.3839 38.2522L5.7172 36.1887L3.17752 35.2363L2.22514 34.7601L2.06641 34.1252L3.33625 30.7919L4.92355 27.7761L5.7172 26.9824Z" fill="#ED8432"/>
<path d="M37.3031 47.6191H38.4142L37.4618 48.7302L34.7634 50.0001L24.2872 53.9683L20.1602 55.873L19.0491 56.5079L18.8904 57.1429L19.2078 58.7302L18.5729 59.3651L11.1126 62.0635L6.50942 63.8095L5.39831 64.2857L4.76339 64.1269L3.17609 60.6349L2.22371 58.254L1.90625 56.6667L2.6999 55.873L5.39831 55.0794L12.8586 53.6508L14.2872 53.0159L15.0809 51.1112L15.7158 49.5239L15.8745 49.3652L32.8586 48.0953L37.3031 47.6191Z" fill="#ED8432"/>
<path d="M14.9206 39.3633L16.5079 39.6807L20.7937 40.7918L34.2857 43.649L36.9841 44.6013L37.4603 45.0775L37.3016 45.7124L32.8571 45.8712L22.6984 46.0299L16.1905 46.1886L16.0317 46.3473L15.7143 47.9346L15.0794 49.2045L12.8571 49.5219L4.7619 49.9981L0.634921 50.3156L0.31746 49.8394L0 47.7759V45.2362L0.31746 42.6966L0.793651 41.4268L0.952381 41.268H2.53968L10.6349 41.9029H12.6984L13.8095 40.7918L14.7619 39.522L14.9206 39.3633Z" fill="#ED8432"/>
<path d="M105.872 47.1406H113.65L115.555 47.4581L116.825 48.5692L117.618 49.839L117.777 50.4739V53.0136L117.301 54.1247L116.507 55.2358L114.92 56.0294L114.126 56.3469L115.872 58.7278L117.618 61.4262L119.047 63.9659V64.2833L118.412 64.4421L116.983 64.1246L115.872 63.1722L113.65 59.3627L112.221 57.458L111.586 56.9818L109.364 56.6643H107.618L107.777 61.7437V63.9659L107.459 64.2833H105.872L105.555 63.8071V47.4581L105.872 47.1406ZM107.777 48.8866L107.618 49.3628V54.4421L107.777 54.6009H113.174L114.285 54.2834L115.237 53.4898L115.555 52.6961V50.6327L115.078 49.6803L114.285 49.2041L113.491 49.0454L111.11 48.8866H107.777Z" fill="#353591"/>
<path d="M36.8274 51.1094L37.3036 51.2681L36.3512 52.6967L35.2401 53.9665L33.9702 55.0776L32.8591 56.1887L31.1131 57.6173L30.002 58.7284L28.7321 59.8395L27.1448 61.268L26.0337 62.3791L23.8115 65.395L23.3353 65.8711L22.8591 66.0299L20.1607 66.1886H17.1448L15.875 66.0299L16.0337 65.2362L17.7798 63.6489L19.2083 62.5378L19.6845 61.9029L19.5258 60.6331L19.3671 59.8395L19.6845 59.2045L22.0655 57.9347L24.9226 56.6649L28.256 55.0776L31.748 53.1728L36.8274 51.1094Z" fill="#EC8332"/>
<path d="M226.034 2.2207H228.733L230.479 2.85562L231.431 3.49053L232.542 4.76036L233.177 6.03019L233.336 6.82384V8.09367L232.86 9.3635L231.907 10.7921L230.796 11.7444L229.526 12.3793L228.098 12.6968L226.034 12.5381L224.447 11.9032L223.177 10.9508L222.066 9.3635L221.59 8.09367V6.82384L222.225 5.23655L222.86 4.28418L223.971 3.17308L225.399 2.37943L226.034 2.2207Z" fill="#343592"/>
<path d="M13.6558 73.1738H20.1637L21.9097 73.8087L23.1796 74.9198L23.6558 75.7135V76.9833L22.7034 78.4119L21.2748 79.3642L20.1637 79.9992V81.4277L20.9573 83.8087L22.2272 86.507L22.5446 86.8245L19.0526 86.6658L18.4177 86.0309L16.9891 81.5865L16.3542 79.6817L16.5129 79.2055L18.2589 79.0468L19.5288 77.9357L20.1637 76.8246L20.3224 75.8722L19.8462 74.6024L19.2113 74.1262H17.9415L17.3065 75.396L16.5129 78.0944L16.1954 79.3642L15.0843 82.2214L14.4494 84.4436L14.2907 86.1896L15.4018 86.6658V86.8245L10.3224 86.6658L9.6875 86.507L10.4812 85.5547L11.4335 83.1737L13.3383 77.6182L14.2907 74.7611V73.9675L13.8145 74.1262L13.1796 73.8087V73.3326L13.6558 73.1738Z" fill="#FEFEFE"/>
<path d="M139.209 51.2695H140.32L141.272 51.7457L142.542 53.0155L143.177 53.1743L144.288 52.0632L145.875 51.2695L147.145 51.4283L148.415 52.0632L149.526 53.333L149.844 54.4441V64.1266L149.685 64.2853H148.256L147.939 64.1266L147.78 55.2378L147.463 54.1266L146.828 53.4917L146.51 53.333H145.399L144.129 54.1266L143.653 55.079L143.494 55.7139L143.336 63.8091L143.018 64.2853H141.59L141.272 64.1266L141.113 54.9203L140.478 53.6505L140.002 53.333H138.891L138.098 53.8092L137.145 54.9203L136.828 56.1901L136.669 63.9678L136.352 64.2853H135.082L134.764 63.9678L134.605 52.2219L134.923 51.587L135.717 51.7457L136.352 52.6981L137.145 52.3806L139.209 51.2695Z" fill="#363791"/>
<path d="M182.383 73.1738H185.557L185.716 73.8087L184.922 75.5548L184.287 77.4595L184.446 77.6182H186.986L188.097 78.0944L188.891 79.0468L189.049 79.523V81.1103L188.414 83.015L187.303 84.761L186.192 85.8721L183.97 86.9832L183.335 87.142H181.272L179.367 86.3483L178.891 85.7134L179.049 84.4436L181.748 76.6659L182.224 75.396V73.9675L181.589 73.3326L182.383 73.1738Z" fill="#FEFEFE"/>
<path d="M216.666 47.1406H223.968L225.396 47.4581L226.349 48.093L227.301 49.2041L227.936 51.1088V52.6961L227.46 54.6009L226.349 56.0294L225.396 56.6643L224.126 56.9818L222.539 57.1405H218.253V64.1246L217.936 64.2833H216.507L216.19 64.1246L216.031 60.7913V47.7755L216.666 47.1406ZM218.73 49.0454L218.253 49.2041V54.7596L218.571 55.2358H223.015L224.285 54.7596L225.396 53.8072L225.714 52.8549V51.1088L225.079 49.839L224.444 49.3628L222.539 49.0454H218.73Z" fill="#373892"/>
<path d="M290.158 47.1406H291.428L291.904 47.6168L291.745 63.8071L291.428 64.1246L290.316 63.9659L289.364 63.8071L287.777 64.4421H286.031L284.92 64.1246L283.809 63.1722L282.697 61.4262L282.062 59.6802V56.5056L282.697 54.4421L283.332 53.1723L284.443 52.0612L286.031 51.4263L287.459 51.585L289.682 52.3787L289.523 47.6168L289.682 47.2994L290.158 47.1406ZM286.189 53.1723L285.237 53.8072L284.443 55.0771L284.126 56.3469V59.6802L284.602 61.1088L285.713 62.3786L286.824 62.696L288.094 62.5373L289.047 61.7437L289.523 60.7913L289.84 58.8866V56.0294L289.205 54.4421L288.094 53.4898L287.301 53.1723H286.189Z" fill="#363792"/>
<path d="M173.655 47.2988H175.56V63.9653L174.925 64.4415L173.973 63.9653L173.497 63.6479L172.703 63.8066L171.75 64.4415H169.687L168.1 63.6479L166.989 62.5368L166.195 60.9495L165.719 59.0448V57.14L166.195 54.9178L166.989 53.3305L167.624 52.5369L168.893 51.7432L170.004 51.4258L171.433 51.5845L173.338 52.3781L173.497 52.5369V47.6163L173.655 47.2988ZM169.846 53.1718L169.052 53.648L168.1 55.2353L167.624 57.4575V59.0448L168.1 60.632L168.735 61.7431L170.004 62.5368L171.116 62.6955L172.227 62.2193L173.02 61.4257L173.497 60.632L173.814 58.7273V56.8226L173.179 54.7591L172.385 53.8067L171.274 53.1718H169.846Z" fill="#353691"/>
<path d="M102.859 77.6172L104.288 77.9346L105.875 77.7759H107.78L107.939 78.0934L106.034 83.4902L105.875 84.9187L106.034 85.2362V86.1885L105.558 86.6647L104.605 86.9822H103.494L103.018 86.506L102.7 85.0774L102.542 84.9187L101.589 86.1885L100.478 86.8235L99.2084 86.9822L98.256 86.506L97.6211 85.2362V83.3314L98.256 81.4267L99.5259 79.6807L100.796 78.4108L102.066 77.7759L102.859 77.6172Z" fill="#FEFEFE"/>
<path d="M157.141 51.4277H159.205L161.109 52.3801L162.379 53.8087L163.014 55.2372L163.173 55.8721V58.0943L162.855 58.4118L162.221 58.5705L155.236 58.7293L155.078 59.3642L155.713 61.1102L156.506 62.0626L157.617 62.5387H158.887L160.157 61.7451L161.903 59.9991L162.855 59.8404V61.4276L161.903 62.8562L161.109 63.6498L160.157 64.2848L158.57 64.6022L156.665 64.4435L155.395 63.8086L154.125 62.5387L153.173 60.634L152.855 59.2054V57.3007L153.173 55.396L154.125 53.4912L155.395 52.2214L156.665 51.5865L157.141 51.4277ZM157.141 53.1738L156.189 53.8087L155.236 55.2372L155.078 56.6658L155.554 56.8245H160.475L161.109 56.1896L160.633 54.761L159.522 53.4912L158.728 53.1738H157.141Z" fill="#363791"/>
<path d="M125.556 51.4277H126.985L128.731 52.0626L130.001 53.1738L130.953 54.6023L131.271 55.8721L131.429 57.9356L131.112 58.4118L130.159 58.5705L123.334 58.7293L123.175 59.2054L123.652 60.634L124.445 61.9038L125.715 62.5387H126.985L128.255 61.9038L129.842 60.1578L130.477 59.8404L131.112 59.9991V61.2689L130.159 62.8562L128.89 63.9673L127.62 64.4435L125.715 64.6022L124.286 64.2848L123.017 63.3324L122.064 62.0626L121.271 60.4753L120.953 59.0467V57.142L121.429 55.2372L122.382 53.3325L123.493 52.2214L124.921 51.5865L125.556 51.4277ZM125.398 53.1738L124.445 53.8087L123.81 54.6023L123.334 55.5547V56.6658L123.81 56.8245H128.731L129.207 56.1896L129.048 55.2372L128.255 53.9674L127.302 53.3325L126.826 53.1738H125.398Z" fill="#363791"/>
<path d="M188.732 51.4277H190.796L192.383 52.0626L193.494 53.015L194.447 54.6023L194.764 55.8721V57.9356L194.447 58.4118L193.812 58.5705L186.669 58.7293L186.986 60.3165L187.78 61.5864V61.9038L188.415 62.2213L189.209 62.5387H190.637L191.907 61.7451L193.336 60.1578L193.971 59.8404L194.605 59.9991V61.2689L193.494 63.0149L192.383 63.9673L191.272 64.4435L190.32 64.6022H189.05L187.463 64.126L186.193 63.0149L185.24 61.5864L184.605 59.6816V56.6658L185.082 54.761L186.034 53.1738L187.304 52.0626L188.732 51.4277ZM188.891 53.1738L188.098 53.6499L187.145 54.761L186.828 55.396V56.6658L187.145 56.8245H192.225L192.701 56.3483L192.542 55.2372L191.59 53.8087L190.32 53.1738H188.891Z" fill="#363792"/>
<path d="M200.639 51.4277H203.338L204.766 52.0626L205.878 53.1738L206.195 54.1261V55.0785L205.56 55.396L204.449 54.9198L203.814 53.9674L202.544 53.3325H200.957L200.163 53.8087H199.846L199.687 55.396L200.639 56.0309L203.179 56.8245L204.766 57.4594L206.195 58.5705L206.83 59.6816V61.1102L206.195 62.5387L205.243 63.6498L203.655 64.4435L202.703 64.6022H201.433L199.687 64.126L198.417 63.0149L197.624 61.5864L197.465 60.3165L198.258 60.1578L199.211 60.634L199.687 61.4276L201.116 62.38L202.544 62.6975L203.973 62.2213L204.608 61.2689V60.1578L203.814 59.5229L200.322 58.4118L199.052 57.6182L197.941 56.3483L197.624 55.2372L197.941 53.6499L199.052 52.3801L199.846 51.7452L200.639 51.4277Z" fill="#363892"/>
<path d="M257.301 77.6172L258.888 77.7759L259.206 78.0934L257.618 79.0457L256.825 79.9981L255.714 82.379L255.079 84.9187L256.825 84.6013L257.46 83.9663L259.047 79.9981L259.206 78.2521L259.682 77.9346L260.634 77.7759H262.38L262.539 77.9346L262.38 79.2045L261.269 82.5378L260.476 85.3949H260.793L260.634 86.3473L259.682 86.9822L258.253 87.1409L257.777 86.6647L257.46 84.9187L257.142 85.7124L255.714 86.8235L255.237 86.9822H253.809L252.857 86.1885L252.539 85.2362V83.9663L253.015 82.0616L253.968 80.1568L255.714 78.2521L257.301 77.6172Z" fill="#FEFEFE"/>
<path d="M148.095 77.7754H150L150.794 77.9341L152.064 77.7754H153.492L153.651 78.4103L152.699 81.7436L151.746 84.7595H152.381V85.7118L151.746 86.5055L150.159 87.1404L149.048 86.8229L148.572 84.7595L148.73 83.4896L150.159 80.3151L150.318 79.2039L150.159 78.4103L148.73 78.8865L147.619 80.4738L146.508 83.0134L146.032 84.9182L148.254 84.6007V85.5531L147.46 86.3467L146.191 86.9817H145.079L144.127 86.3467L143.651 85.3944L143.492 84.442L143.81 82.696L144.921 80.4738L146.826 78.4103L148.095 77.7754Z" fill="#FEFEFE"/>
<path d="M40.6376 53.0137L40.7964 53.6486L39.0503 56.5057L37.1456 59.2041L35.3996 61.9025L33.971 64.1247L32.8599 65.3945L32.0662 65.712L27.3043 65.8707L26.8281 65.712L27.1456 64.9183L29.0503 62.8549L33.3361 58.5692L35.0821 57.1406L36.5107 55.8708L38.2567 54.4422L39.844 53.3311L40.6376 53.0137Z" fill="#ED8432"/>
<path d="M263.336 47.1406H264.605L265.24 47.4581V62.0611L272.383 62.2199L272.542 62.3786V63.9659L272.383 64.1246H263.177L263.018 63.9659L262.859 62.8548V47.4581L263.336 47.1406Z" fill="#383992"/>
<path d="M290.636 0L293.175 0.317457L294.763 1.1111L296.35 2.53966L297.461 4.12695L298.096 6.19042V8.09517L297.461 9.84118L296.35 11.2697L295.08 12.5396L293.652 13.3332L292.064 13.6507H289.683L287.779 13.0158L286.033 11.5872L285.08 10.1586L284.445 8.41262V5.71423L284.922 4.12695L285.874 2.69839L286.985 1.42856L288.414 0.476186L289.366 0.158729L290.636 0ZM290.318 1.1111L288.731 1.58729L287.302 2.69839L286.35 3.96822L285.874 5.39678L285.715 6.34915V8.09517L286.191 9.68245L287.144 10.9523L288.414 11.9047L290.318 12.5396H292.223L293.81 11.9047L295.08 10.9523L296.033 9.84118L296.826 8.25389V5.87296L296.35 4.60313L294.922 3.01585L293.493 1.90474L292.223 1.26983L291.429 1.1111H290.318Z" fill="#373992"/>
<path d="M230.319 51.4277L231.747 51.7452L232.382 52.5388L233.652 56.3483L234.922 60.7927L235.24 60.9515L235.557 60.1578L236.986 55.7134L238.097 52.3801L238.732 51.7452L239.843 51.5865L240.001 51.7452V53.015L238.573 57.4594L237.144 61.4276L236.192 63.6498L235.557 64.4435L234.763 64.2848L234.128 63.4911L233.017 60.634L230.478 53.1738L230.16 51.5865L230.319 51.4277Z" fill="#373892"/>
<path d="M61.7481 77.7754H65.7164L67.6212 77.9341H69.2085V78.569L68.4148 79.2039L67.6212 81.5849L66.9862 82.3785L65.0815 83.4896L63.9704 83.8071H61.2719L60.3196 83.1722L59.5259 82.2198L59.3672 81.9023V80.6325L60.0021 79.0452L61.1132 78.0928L61.7481 77.7754Z" fill="#FEFEFE"/>
<path d="M59.3678 83.6484L60.3202 83.9659L61.9075 84.9183L65.0821 85.8706L66.3519 86.823L66.6694 87.6167V88.7278L66.0345 89.6801L65.0821 90.315L64.6059 90.4738L58.7329 90.6325L57.3043 90.1563L56.8281 89.5214V88.569L57.7805 87.4579H58.7329L59.0503 87.6167L58.8916 86.9817H59.2091L58.8916 86.3468V84.9183L59.3678 83.6484Z" fill="#FEFEFE"/>
<path d="M170.956 77.6172L172.226 77.7759L172.702 78.2521L172.861 79.0457L172.385 80.4743L171.75 81.2679L170.163 82.5378L169.369 82.8552L167.782 83.014L168.099 82.379L168.734 81.5854L169.528 80.7918L170.004 79.8394V78.5696L169.687 78.4108L168.893 78.887L168.099 79.8394L167.306 81.1092L166.671 83.3314V84.76L166.988 85.2362L167.464 85.3949H168.734L170.321 84.76L171.591 83.8076L171.274 84.76L170.639 85.7124L169.369 86.506L167.941 87.1409H165.877L164.607 86.506L163.814 85.3949L163.496 84.2838L163.655 83.014L164.29 81.4267L166.036 79.3632L167.623 78.2521L168.417 77.9346L170.956 77.6172Z" fill="#FEFEFE"/>
<path d="M95.2416 77.6172L96.3527 77.7759L96.9876 78.4108L97.1463 79.0457L96.5114 80.3156L95.2416 81.7441L93.9717 82.6965L92.3844 83.1727L91.9082 83.014L92.067 82.6965H92.3844L92.7019 81.9029L93.6543 80.633L94.1305 79.6807L94.2892 78.5696L92.8606 79.0457L92.2257 79.8394L91.432 81.2679L90.9559 83.1727V85.0774L91.5908 85.3949H92.8606L95.2416 84.4425L94.9241 85.2362L94.2892 86.0298L91.9082 87.1409H90.1622L88.7336 86.506L87.94 85.2362L87.7812 84.76V83.3314L88.4162 81.5854L89.5273 79.9981L90.9559 78.7283L92.2257 78.0934L95.2416 77.6172Z" fill="#FEFEFE"/>
<path d="M244.605 47.7754H245.24L245.398 48.7278L245.24 51.5849L246.668 51.9023L247.303 52.5373L247.144 53.1722L245.398 53.4896V61.4261L245.557 62.2197L246.827 62.5372L247.462 63.3308V64.1245L247.303 64.2832H244.922L244.128 63.807L243.494 63.0133L243.176 60.6324L243.017 53.6484L241.906 52.8547L242.065 52.2198L242.859 51.4262L243.176 50.6325L243.335 49.0452L243.97 48.0928L244.605 47.7754Z" fill="#353890"/>
<path d="M114.918 73.0156L115.395 73.1744L115.236 74.1267L114.125 77.1426L112.538 82.2219L111.903 84.1266L111.744 85.079L112.061 85.3965L111.903 86.3488L110.95 86.9838H109.522L108.887 86.5076V84.9203L109.998 80.6346L111.744 75.3966L111.903 74.2855L111.268 73.4918L111.903 73.1744L114.918 73.0156Z" fill="#FEFEFE"/>
<path d="M277.78 47.6191H278.098V51.5874L279.685 51.9048L280.161 52.5397L280.002 53.1746L279.685 53.3334L278.256 53.4921V60.1587L278.574 61.746L279.844 63.0158L280.161 63.492V64.2857H277.939L276.986 63.9682L276.51 63.492L276.193 62.0635L276.034 53.6508L274.923 53.1746L274.605 52.5397L275.399 51.9048L275.875 51.4286L276.034 51.1112L276.193 49.0477L276.669 48.2541L277.78 47.6191Z" fill="#353591"/>
<path d="M225.714 73.1738H229.523L229.364 73.9675L228.253 76.9833L226.984 81.7452L225.396 85.7134L224.92 86.507L223.968 86.8245L222.539 86.6658L222.698 85.3959L225.079 78.0944L226.031 74.9198V74.1262L225.396 73.65V73.3326L225.714 73.1738Z" fill="#FEFEFE"/>
<path d="M126.349 73.0156L127.777 73.1744L127.936 73.8093L126.349 78.8886L125.873 81.2695L123.809 86.3488L123.333 86.6663H121.587L121.27 86.0314L122.381 82.0632L123.333 79.206L124.603 75.0791L124.762 74.1267L124.127 73.3331L124.603 73.1744L126.349 73.0156Z" fill="#FEFEFE"/>
<path d="M43.4923 53.8086L43.9685 53.9673L43.4923 57.4594L42.5399 63.1736L42.0637 65.0783L41.5875 65.5545H37.3018L36.9844 65.3958L37.1431 64.4434L38.2542 62.2212L39.8415 59.2054L41.7463 55.8721L42.8574 54.2848L43.4923 53.8086Z" fill="#ED8432"/>
<path d="M78.4129 73.1738H82.0637L81.5875 74.6024L80.3176 78.7293L79.6827 81.7452L78.8891 83.4912L77.778 86.0309L76.9843 86.8245H75.5557L75.2383 86.507L75.397 85.0785L78.2542 76.1897L78.8891 74.1262L78.0954 73.65V73.3326L78.4129 73.1738Z" fill="#FEFEFE"/>
<path d="M276.191 73.1738H279.048L278.889 74.1262L276.667 81.1103L275.715 84.2848L274.604 86.507L273.81 86.8245H272.699L272.223 86.6658L272.381 85.2372L274.286 79.523L275.715 74.9198L275.873 73.9675H275.556L275.397 73.3326L276.191 73.1738Z" fill="#FEFEFE"/>
<path d="M120.003 75.3965H120.796L120.32 76.9838L120.161 77.3012L120.638 77.1425L121.273 77.6187V78.5711L120.638 79.0472L119.844 79.3647L119.368 80.6345L117.78 85.3964H118.257L118.415 86.19L117.463 86.825L116.828 86.9837H115.717L115.082 86.5075V85.3964L116.669 79.0472L115.876 78.7298L115.717 78.2536L116.193 77.6187L117.146 77.46L118.574 76.5076L119.685 75.5552L120.003 75.3965Z" fill="#FEFEFE"/>
<path d="M286.348 77.6172H287.618L287.459 78.2521V79.3632L288.57 80.7918L289.84 82.2203L290.316 83.3314V84.6013L289.84 85.5536L289.046 86.3473L287.776 86.9822L287.142 87.1409H285.396L283.967 86.6647L283.332 86.0298V84.1251L283.649 83.4902L284.443 84.2838L285.396 85.8711L286.189 86.1885L287.459 85.8711L287.776 85.5536L287.618 84.6013L285.554 82.0616L284.443 80.633L284.602 79.6807L285.396 78.4108L286.348 77.6172Z" fill="#FEFEFE"/>
<path d="M49.6822 54.2832L50.3171 54.4419L51.2695 55.553L53.0155 58.4102L54.6028 60.7911L56.5076 64.2831L56.6663 64.918L55.7139 65.2355H53.0155L52.0631 63.9657L50.7933 60.7911L49.8409 57.1403L49.5234 54.4419L49.6822 54.2832Z" fill="#ED8432"/>
<path d="M46.1917 54.9199L46.9854 55.0787L47.4616 56.1898L48.8901 63.1738L49.0489 64.2849V65.8722L47.9377 66.1897H46.033L45.0806 65.7135L44.9219 64.9198L45.3981 60.4754L45.8743 55.7136L46.1917 54.9199Z" fill="#ED8432"/>
<path d="M34.1274 77.6172L35.5559 77.7759L34.921 78.2521V79.3632L35.8734 80.633L37.302 82.379L37.6194 83.1727L37.4607 84.9187L36.8258 85.8711L36.0321 86.506L34.7623 86.9822H32.8575L31.4289 86.6647L30.6353 85.8711L30.4766 85.3949V83.9663L31.1115 84.2838L32.6988 85.8711L33.3337 86.1885H34.4448L35.0797 85.8711L35.2385 85.0774L34.2861 83.4902L32.5401 81.5854L32.0639 80.633L32.2226 79.2045L33.175 77.9346L34.1274 77.6172Z" fill="#FEFEFE"/>
<path d="M196.032 77.7754H196.667L196.35 78.4103L194.762 79.8389L193.969 81.5849L193.492 83.0134V84.7595L193.81 85.2356L194.286 85.3944H195.397L197.302 84.442L198.096 84.1245L197.778 84.9182L196.826 86.0293L194.921 86.9817L194.286 87.1404H192.858L191.588 86.6642L190.794 85.7118L190.477 85.0769V83.0134L191.111 81.4262L192.064 80.1563L192.699 79.3627L193.969 78.4103L194.604 78.0928L196.032 77.7754Z" fill="#FEFEFE"/>
<path d="M217.463 77.7754L218.891 77.9341L218.097 78.8865L216.986 79.6801L215.875 81.9023L215.717 82.5373V84.442L216.51 85.2356L216.828 85.3944H218.256L219.844 84.6007L220.32 84.2833L219.844 85.7118L219.05 86.3467L217.621 86.9817L216.828 87.1404H215.717L214.288 86.6642L213.494 86.0293L213.018 85.2356L212.859 84.6007V83.1722L213.494 81.4262L214.447 79.9976L216.034 78.4103L217.463 77.7754Z" fill="#FEFEFE"/>
<path d="M230.479 77.7754H232.384L233.336 78.0928V79.2039L232.542 81.9023L231.431 85.0769L231.908 84.9182L232.066 85.7118L231.908 86.188L230.638 86.6642H229.05L228.574 86.0293L228.733 84.442L229.844 80.95V79.9976L229.685 79.6801L228.892 79.8389L228.733 79.3627L229.209 78.7278H229.527L229.685 78.0928L230.479 77.7754Z" fill="#FEFEFE"/>
<path d="M138.254 77.7754H139.683L139.366 78.4103L137.778 79.9976L136.826 82.0611L136.667 82.696V84.2833L137.302 85.2356L137.937 85.3944H139.207L140.477 84.7595L140.953 84.2833H141.27L140.794 85.7118L140 86.3467L137.937 87.1404H136.508L135.239 86.6642L134.286 85.5531L133.969 84.9182V82.696L134.762 80.95L135.874 79.5214L136.985 78.4103L138.254 77.7754Z" fill="#FEFEFE"/>
<path d="M237.303 77.7754H239.684L240.319 77.9341V79.2039L239.843 81.2674L238.573 83.9658L237.779 86.0293L237.462 86.5055L236.827 86.6642H235.239L234.922 86.5055L235.239 84.9182L236.668 80.4738L236.827 78.7278L237.144 77.9341L237.303 77.7754Z" fill="#FEFEFE"/>
<path d="M248.253 77.7754H250.158L250.634 78.0928V79.5214L249.682 82.8547L249.523 85.7118L248.73 86.5055L248.095 86.6642H246.666L246.031 86.3467V85.0769L247.46 79.9976V78.4103L248.253 77.7754Z" fill="#FEFEFE"/>
<path d="M243.016 77.7754H244.604L245.238 78.2516V80.95L243.334 85.7118L242.699 86.6642H240.477L240.635 84.9182L241.905 80.95V79.5214L242.064 78.2516L243.016 77.7754Z" fill="#FEFEFE"/>
<path d="M129.046 77.7754H131.269L131.745 78.0928V79.3627L130.634 83.3309L130.316 84.6007L130.475 85.8706L129.681 86.6642L128.094 86.8229L127.3 86.0293L127.459 84.2833L128.412 81.2674L128.729 80.3151V79.5214L128.094 79.6801L126.824 80.4738V79.9976L127.935 78.8865L128.412 78.0928L129.046 77.7754Z" fill="#FEFEFE"/>
<path d="M41.9072 77.7754H44.7644L44.6057 79.0452L43.0184 83.6484L42.5422 85.0769L42.8596 84.6007L43.4945 84.7595L43.3358 85.7118L42.5422 86.6642L41.1136 86.9817L40.0025 86.5055L39.8438 85.7118L40.3199 83.1722L41.1136 80.4738L41.4311 78.2516L41.9072 77.7754Z" fill="#FEFEFE"/>
<path d="M203.808 77.6172L205.237 77.7759L205.555 78.2521L205.396 80.633L204.126 83.1727L203.491 84.6013L202.856 86.3473L202.697 86.506H200.475L200.316 86.3473L200.475 85.0774L202.062 79.9981L202.221 78.0934L202.856 77.7759L203.808 77.6172Z" fill="#FEFEFE"/>
<path d="M83.1743 77.7754H85.2378L85.8727 78.2516L85.714 79.5214L84.7616 82.696L84.1267 84.7595L84.4441 84.9182L84.2854 86.0293L83.4918 86.6642H81.7457L81.2695 86.188L81.4283 84.2833L82.5394 80.95V80.1563L82.3806 79.6801L81.7457 79.8389L81.4283 79.3627L82.6981 77.9341L83.1743 77.7754Z" fill="#FEFEFE"/>
<path d="M27.1416 77.6172L29.84 77.7759L29.9988 78.0934L29.0464 80.4743L28.2527 83.014L27.9353 83.9663V85.0774L28.094 85.2362V86.1885L27.4591 86.8235L26.9829 86.9822H25.8718L25.0781 86.3473V84.4425L26.0305 81.1092L26.348 80.1568L26.5067 78.4108L26.8242 77.7759L27.1416 77.6172Z" fill="#FEFEFE"/>
<path d="M208.098 77.7754H210.161L210.796 78.0928L210.637 79.8389L209.685 83.4896L209.367 86.0293L208.733 86.6642L207.304 86.8229L206.51 86.3467L206.352 86.188V85.0769L207.145 82.0611L207.621 80.6325V79.5214L207.463 79.2039V78.2516L208.098 77.7754Z" fill="#FEFEFE"/>
<path d="M48.5709 77.7754H50.9519L51.1106 77.9341V79.2039L50.7932 81.1087L49.3646 84.1245L48.5709 86.0293L47.936 86.6642H46.19L46.0312 85.8706L47.3011 81.7436L47.7773 79.6801V78.0928L48.5709 77.7754Z" fill="#FEFEFE"/>
<path d="M53.9712 77.7754H55.8759L56.5109 78.0928L56.6696 78.8865L55.3997 83.4896L55.0823 85.8706L54.4474 86.6642L53.495 86.8229L52.3839 86.5055L52.0664 86.188V85.0769L53.1775 81.1087L53.3362 79.9976L53.1775 78.7278L53.6537 77.9341L53.9712 77.7754Z" fill="#FEFEFE"/>
<path d="M180.002 51.7461H181.272L181.431 51.9048V63.8095L181.113 64.2857H179.843L179.367 63.8095V51.9048L180.002 51.7461Z" fill="#393D90"/>
<path d="M157.144 77.6172H159.049L159.366 77.7759V79.8394L159.049 81.9029L157.462 86.3473L157.144 86.6647H155.081L154.922 86.0298L156.192 80.7918L156.668 78.0934L157.144 77.6172Z" fill="#FEFEFE"/>
<path d="M266.663 77.6172L268.251 77.7759L268.092 81.4267L266.346 86.1885L265.87 86.6647H264.124L263.965 86.506V85.2362L265.393 79.5219V78.4108L265.711 77.7759L266.663 77.6172Z" fill="#FEFEFE"/>
<path d="M289.525 3.49219H292.382L293.176 3.96837L293.652 4.44456L293.811 5.39693L293.334 6.66676L292.541 7.46041L292.699 8.09532L293.652 9.36515L294.128 9.84134L293.969 10.3175L292.858 10.4763L292.064 9.68261L291.112 8.09532L290.001 7.46041L289.684 8.73024L289.842 10.0001L289.525 10.3175L288.731 10.1588L288.255 9.68261L288.096 8.88896L287.938 5.39693L288.255 4.1271L288.89 3.65092L289.525 3.49219ZM290.477 4.1271L289.684 4.60329L289.525 5.71439L289.842 6.82549L291.112 6.98422L292.064 6.3493L292.223 6.03185V4.92075L291.588 4.28583L290.477 4.1271Z" fill="#383D8D"/>
<path d="M280.318 77.7754H282.381L282.857 78.0928L282.54 79.0452L280.794 79.3627L279.683 79.8389L280 83.1722L280.159 84.2833L281.746 84.442V85.3944L280.953 86.3467L280.318 86.6642H279.048L278.095 85.8706L277.461 84.2833L276.984 82.5373L277.143 81.4262L278.572 80.1563H278.889L278.73 79.6801L279.207 78.8865L279.842 77.9341L280.318 77.7754Z" fill="#FEFEFE"/>
<path d="M184.124 78.8867L185.711 79.0454L186.188 79.6804V81.5851L185.553 83.4899L184.442 85.2359L183.331 86.1882H181.743L181.426 86.0295L181.585 84.9184L183.331 80.474L184.124 78.8867Z" fill="#336B4C"/>
<path d="M149.841 78.4102H150.158L150.476 79.2038L150.317 80.3149L148.73 83.9657L148.888 85.7117L148.095 85.8704L148.253 84.6006L146.825 84.918H146.031L146.19 83.4895L147.142 81.1085L148.095 79.5213L148.73 78.7276L149.841 78.4102Z" fill="#336C4C"/>
<path d="M103.172 78.5703L104.601 78.729L104.283 80.4751L103.331 82.856L102.537 84.1258L101.902 84.7607L101.426 84.9195H100.156L100.315 83.1734L101.267 80.7925L102.22 79.364L103.172 78.5703Z" fill="#346D4D"/>
<path d="M197.464 77.6172L199.21 77.9346L199.528 78.4108V79.6807L199.051 80.633L197.94 81.7441L196.67 82.6965L195.718 83.014H194.766L195.242 81.9029L196.67 79.9981L196.829 79.6807V78.5696L196.67 78.0934L196.829 77.7759L197.464 77.6172Z" fill="#FEFEFE"/>
<path d="M63.6562 78.252L64.7673 78.4107L65.4022 79.2043L65.2435 80.4742L64.1324 82.5376L63.4975 83.0138H62.0689L61.9102 82.6964V80.7916L62.3863 79.6805L63.0213 79.3631L63.3387 78.5694L63.6562 78.252Z" fill="#488166"/>
<path d="M59.3668 87.459L61.7478 87.6177L64.2875 88.2526L64.4462 88.8875L63.8113 89.5225L62.7001 89.8399H60.4779L59.3668 89.5225L58.8906 88.8875L59.0494 87.6177L59.3668 87.459Z" fill="#356E4E"/>
<path d="M28.2496 82.5391L29.0433 83.174L30.948 83.6502L31.7417 83.9676L33.0115 85.3962V85.7136L32.5353 85.8724L30.7893 84.1263L30.4719 83.9676L30.7893 85.8724L31.2655 86.5073L30.6306 86.666L29.6782 86.5073L27.9322 86.3486V85.2375L27.7734 85.0787V83.9676L28.2496 82.5391Z" fill="#488166"/>
<path d="M169.682 78.252L170.159 78.5694V79.8392L169.365 81.2678L168.571 82.0614L167.778 83.0138L168.254 83.1725L167.143 83.6487L166.984 84.1249H166.667L166.508 84.7598V83.3313L167.301 80.7916L168.413 79.2043L169.206 78.4107L169.682 78.252Z" fill="#346D4D"/>
<path d="M93.654 78.5703H94.2889V79.6814L93.4953 81.11L92.5429 82.3798L92.3842 82.6973H92.0667L92.2254 83.3322L91.5905 83.6496L91.2731 84.602H90.9556L90.7969 85.0782V83.1734L91.4318 80.9512L92.3842 79.364L93.0191 78.729L93.654 78.5703Z" fill="#346D4D"/>
<path d="M50.9542 77.7754H53.0177L53.4939 78.2516L53.3351 78.8865L53.4939 80.4738L53.1764 81.1087V80.3151L51.7478 80.95H51.4304V81.2674L50.6367 81.4262L50.9542 79.2039V77.7754Z" fill="#488166"/>
<path d="M270.315 77.7754H271.744L272.22 78.0928L272.061 79.5214L271.426 80.3151L271.109 80.4738H269.839L268.887 79.9976L269.363 78.569L269.998 77.9341L270.315 77.7754Z" fill="#FEFEFE"/>
<path d="M161.903 77.6172L162.856 77.7759L163.173 77.9346L163.332 78.7283L163.014 79.8394L162.221 80.4743L160.792 80.3156L160.316 80.633L159.84 80.4743L160.316 79.3632L161.11 77.9346L161.903 77.6172Z" fill="#FEFEFE"/>
<path d="M219.842 77.9336H221.429L221.905 78.2511L222.064 79.2034L221.429 80.4733L220.636 80.9494L219.683 80.7907L219.207 80.4733L219.366 78.2511L219.842 77.9336Z" fill="#FEFEFE"/>
<path d="M140.957 77.7754L142.385 77.9341L142.861 78.4103L143.02 79.3627L142.544 80.3151L141.592 80.95L140.798 80.7912L140.48 80.3151V78.569L140.957 77.7754Z" fill="#FEFEFE"/>
<path d="M28.4137 73.1738H30.001L30.7946 73.8087V74.9198L30.1597 75.5548L29.5248 75.7135H28.4137L27.9375 75.2373V73.65L28.4137 73.1738Z" fill="#FEFEFE"/>
<path d="M44.1278 73.0156L45.2389 73.3331L45.7151 73.8093V74.9204L45.2389 75.5553H43.4929L42.6992 74.7616L42.8579 73.6505L43.4929 73.1744L44.1278 73.0156Z" fill="#FEFEFE"/>
<path d="M246.191 78.0957H247.143L247.461 78.4132L247.619 80.0004L247.302 80.6354H245.873L245.238 80.9528V78.2544L246.191 78.0957Z" fill="#488166"/>
<path d="M65.0801 83.332L65.5563 83.4908L65.8738 84.7606L65.715 85.3955L64.6039 85.5542L63.0166 84.9193L62.3817 84.1257L60.9531 83.9669V83.6495H63.969L65.0801 83.332Z" fill="#478065"/>
<path d="M63.6562 78.252L64.7673 78.4107L65.0848 78.7281L64.926 79.2043L64.4498 79.0456V79.3631H64.1324L63.8149 80.1567L62.5451 82.0614H62.2276L62.0689 82.5376L61.9102 80.7916L62.3863 79.6805L63.0213 79.3631L63.3387 78.5694L63.6562 78.252Z" fill="#346D4D"/>
<path d="M294.286 61.7441H295.397L295.873 62.3791V63.9663L295.238 64.2838L294.127 64.1251L293.651 63.8076L293.492 62.6965L293.968 61.9029L294.286 61.7441Z" fill="#3A3C93"/>
<path d="M251.588 61.7441L252.54 62.0616L252.858 62.5378V63.8076L252.54 64.1251H250.794L250.477 63.4902V62.5378L251.111 61.9029L251.588 61.7441Z" fill="#353691"/>
<path d="M81.4321 78.252L82.2258 78.4107L81.5908 79.5218L82.3845 79.6805L82.5432 80.1567L80.7972 81.1091L79.6861 82.0614L79.5273 81.744L80.0035 79.3631L81.2734 78.5694L81.4321 78.252Z" fill="#488166"/>
<path d="M180.002 47.1406H180.954L181.272 47.4581L181.431 49.0454L181.272 49.5216L180.478 49.6803L179.685 49.3628L179.367 48.5692V47.6168L179.526 47.2994L180.002 47.1406Z" fill="#373C8F"/>
<path d="M43.3362 75.3965L45.241 75.5552V76.6663L44.9235 77.3012H44.6061L44.7648 77.7774H42.0664V77.6187L43.3362 77.46L43.1775 77.1425V75.7139L43.3362 75.3965Z" fill="#488166"/>
<path d="M287.938 77.6172L290.477 77.7759L291.112 78.0934L291.43 79.5219L291.112 79.9981L290.16 79.8394L288.731 78.2521L287.938 77.9346V77.6172Z" fill="#FEFEFE"/>
<path d="M146.349 83.0156L147.142 83.3331L148.73 83.6505V84.7616L148.888 85.714L148.095 85.8727L148.253 84.6029L146.825 84.9204H146.031L146.19 83.4918L146.349 83.0156Z" fill="#488166"/>
<path d="M240.317 77.9336H241.746L242.063 78.2511V79.5209L241.905 80.1558L240.476 80.4733L240 80.632L240.317 77.9336Z" fill="#488166"/>
<path d="M29.5195 75.5547L30.3131 75.7134L30.4719 76.1896L30.1544 76.9832L29.6782 77.6182V77.7769H27.7734L28.4084 77.4594L28.0909 76.3483L28.4084 75.7134L29.5195 75.5547Z" fill="#488166"/>
<path d="M36.9879 77.7754H38.2578L38.7339 78.2516L38.5752 79.6801L38.2578 80.1563L37.4641 79.8389L36.5117 78.4103V77.9341L36.9879 77.7754Z" fill="#FEFEFE"/>
<path d="M207.299 78.252H207.458L207.775 79.5218V80.6329H207.458L207.299 80.3154L206.029 80.4742L205.395 80.6329V79.3631L205.553 78.5694L205.871 79.0456L206.823 78.5694H207.299V78.252Z" fill="#65957E"/>
<path d="M55.3952 82.8555L55.5539 83.3317L56.0301 83.4904L56.3476 84.4428V85.7126L55.8714 86.1888H55.5539L55.3952 86.5062H54.6016L54.919 85.8713L55.2365 83.4904L55.3952 82.8555Z" fill="#478065"/>
<path d="M232.385 83.4902L233.337 83.649L233.496 84.1251L232.861 85.395L232.067 86.3474L231.273 86.5061L231.432 86.1886H231.908L231.75 85.0775H231.432L231.591 84.1251H232.067L232.385 83.4902Z" fill="#467F65"/>
<path d="M84.4449 83.1738L85.2386 83.65L85.5561 83.9675L85.7148 84.9198L84.6037 86.1897L83.9688 86.3484L84.4449 84.9198L83.9688 84.7611L84.4449 83.1738Z" fill="#488166"/>
<path d="M229.052 78.4102H229.528V78.7276L228.893 79.3625V79.68L229.687 79.5213L229.845 79.9974L228.258 80.7911L227.464 81.5847L226.988 81.7435L227.306 79.8387L228.099 79.9974L228.417 79.3625L229.052 78.4102Z" fill="#488166"/>
<path d="M118.893 84.125L119.687 84.2837L119.528 85.3948L118.576 86.5059L117.941 86.8234L117.465 86.6647L118.258 86.1885V85.3948H117.782L117.941 84.9186L118.893 84.125Z" fill="#488166"/>
<path d="M166.984 81.5859L167.778 81.7447L168.095 82.5383L167.778 83.0145L168.254 83.1732L167.143 83.6494L166.984 84.1256H166.667L166.508 84.7605V83.332L166.984 81.5859Z" fill="#478065"/>
<path d="M279.844 82.3809L280.002 82.6983L280.637 82.857L281.431 83.6507L281.907 84.2856L281.749 84.9205V84.4443L280.955 84.6031L280.002 84.2856L279.844 82.3809Z" fill="#488166"/>
<path d="M91.5905 81.9043H92.0667V82.5392L92.3842 82.6979H92.0667L92.2254 83.3329L91.5905 83.6503L91.2731 84.6027H90.9556L90.7969 85.0789V83.1741L90.9556 82.3805L91.5905 81.9043Z" fill="#478065"/>
<path d="M159.366 77.7754H159.524L159.683 78.569L160.477 79.0452L160.001 80.4738L160.318 80.7912L159.207 81.4262V79.8389L159.366 77.7754Z" fill="#488166"/>
<path d="M24.9221 84.6016H25.0809V86.3476L24.7634 86.8238L23.9697 86.9825H21.9062L22.5412 86.665H22.8586L23.0174 86.3476L23.811 85.8714H24.6047L24.7634 86.0301L24.9221 84.6016Z" fill="#478065"/>
<path d="M268.57 78.4102H269.522L269.046 79.9974L269.364 80.3149L268.411 80.4736L268.252 81.2673H268.094V78.8863L268.57 78.4102Z" fill="#478065"/>
<path d="M34.2897 77.3008L37.3056 77.4595L37.9405 77.777L36.512 77.9357V78.2532L35.2421 78.4119L34.9247 78.0944L35.0834 77.9357L34.131 77.777L33.4961 77.6182L34.2897 77.3008Z" fill="#50866D"/>
<path d="M43.1765 82.8555L43.8114 83.1729L43.9701 84.284L43.6527 85.2364L43.4939 84.7602H42.859L42.3828 85.2364L42.5415 84.4428L43.1765 82.8555Z" fill="#447C63"/>
<path d="M10.3167 86.5059L14.4437 86.6646V86.8233L10.9516 87.1408H9.04688V86.6646L10.3167 86.5059Z" fill="#588C74"/>
<path d="M127.461 79.0469L127.778 79.2056L126.826 80.3167L127.143 80.4754L125.874 81.5865L125.715 81.2691L126.032 79.5231H126.35L126.508 79.2056L127.461 79.0469Z" fill="#488166"/>
<path d="M136.67 82.0605H136.829L137.147 83.4891L137.782 84.7589V85.3939L137.147 85.2351L136.512 84.2827V82.6955L136.67 82.0605Z" fill="#488166"/>
<path d="M138.73 77.4609H140.794L141.587 77.6197L140.952 77.9371L140.476 78.572H140.159H139.682V77.7784H138.254L138.73 77.4609Z" fill="#488166"/>
<path d="M47.6193 78.252L47.9368 78.8869L47.778 80.6329L47.4606 81.1091L47.1431 79.6805L46.9844 79.3631L47.3018 78.5694H47.6193V78.252Z" fill="#488166"/>
<path d="M100.315 83.1738L100.474 83.65L101.109 83.9675L101.426 84.9198H100.156L100.315 83.1738Z" fill="#488166"/>
<path d="M276.668 80.4746L276.985 80.6333V81.1095L277.461 81.2683L277.144 81.7444L276.985 82.5381L276.191 82.6968L276.668 80.4746Z" fill="#488166"/>
<path d="M130.323 83.9668L130.799 84.2843L131.116 84.9192L130.958 85.7128L130.323 86.189V85.3954L130.164 84.6017L130.323 83.9668Z" fill="#488166"/>
<path d="M198.73 82.8555L198.889 83.1729L198.254 84.4428L198.095 84.1253L197.302 84.6015L196.984 84.4428L197.619 83.9666L198.095 83.1729L198.73 82.8555Z" fill="#488166"/>
<path d="M215.555 82.5391L215.872 83.174L216.19 84.1263L216.507 85.2375L215.872 84.92L215.555 84.4438V82.5391Z" fill="#488166"/>
<path d="M95.5536 83.1738H95.871L95.7123 84.2849L95.2361 84.7611H94.7599L94.125 84.9198L94.9187 84.1262L95.3948 83.3326L95.5536 83.1738Z" fill="#488166"/>
<path d="M280.317 79.3652H280.635V79.6827H280.317L280.158 80.4763L279.841 82.2224H279.682L279.523 79.6827L280.317 79.3652Z" fill="#488166"/>
<path d="M148.416 77.4609H149.686L152.067 77.7784V77.9371L150.321 78.0959L150.003 77.9371H147.781L147.94 77.6197L148.416 77.4609Z" fill="#488166"/>
<path d="M105.715 84.2832L106.667 84.7594V85.7118L106.032 86.1879L105.715 84.9181V84.2832Z" fill="#488166"/>
<path d="M112.224 84.6016L112.7 84.919L112.541 86.0301L112.382 86.3476H111.906V85.3952V84.919L112.224 84.6016Z" fill="#488166"/>
<path d="M58.7336 85.2363H58.8924L59.2098 86.9823H58.8924L59.0511 87.6173L57.7812 87.4585V87.2998H58.7336L58.4162 86.5062L58.5749 85.7125L58.7336 85.2363Z" fill="#488166"/>
<path d="M47.9389 86.5059L48.2563 86.6646L47.7801 87.2995L47.1452 87.4582L46.669 87.1408V86.8233L46.3516 86.6646L47.9389 86.5059Z" fill="#488166"/>
<path d="M169.525 77.4609H170.636L170.953 77.7784L168.414 78.0959L167.938 77.9371L168.572 77.6197L169.525 77.4609Z" fill="#488166"/>
<path d="M209.37 84.2832L209.846 84.6007L210.005 85.3943L209.846 86.1879L209.211 86.3467L209.37 84.2832Z" fill="#488166"/>
<path d="M217.139 77.6172H218.409L219.838 77.9346L219.044 78.5696L218.568 78.2521L218.727 78.0934L217.457 77.9346L216.98 77.7759L217.139 77.6172Z" fill="#488166"/>
<path d="M261.111 84.6016H261.429L261.27 85.3952L260.953 86.3476H260.635L260.794 85.3952H260.477L260.635 84.919L261.111 84.6016Z" fill="#488166"/>
<path d="M169.524 84.918L170.001 85.0767L168.731 85.5529H167.461L167.62 85.2354L169.524 84.918Z" fill="#488166"/>
<path d="M171.746 83.0156H172.063L171.746 84.1267H171.27L170.317 84.9204L170 84.7616L171.27 83.6505L171.746 83.0156Z" fill="#488166"/>
<path d="M20.9524 79.3652L21.2698 79.524L20.4762 80.7938H20V80.0001L20.9524 79.3652Z" fill="#467F64"/>
<path d="M38.5671 79.2051H38.7258V80.3162L38.0909 80.9511L37.7734 80.4749L37.9322 79.9987H38.2496L38.5671 79.2051Z" fill="#488166"/>
<path d="M289.367 8.72852H289.526L289.843 9.99835L289.526 10.3158L288.891 10.1571L289.367 8.72852Z" fill="#326750"/>
<path d="M16.3512 78.0957H16.5099L16.8274 79.0481L17.3036 79.3655H16.5099L16.3512 80.0004L15.875 79.683L16.1925 79.0481L16.3512 78.0957Z" fill="#488166"/>
</svg>
