<svg width="259" height="100" viewBox="0 0 259 100" fill="none" xmlns="http://www.w3.org/2000/svg">
<path d="M14.899 0L15.5303 0.126263L17.5505 1.13636L20.9596 2.90404L23.8636 4.67172L26.0101 6.18687L27.399 7.32323L28.6616 8.4596L29.6717 9.34343L31.4394 11.2374L32.8283 13.005L34.2172 15.1515L35.7323 18.0556L36.6162 20.202L37.1212 21.7172L37.5 22.096L39.0151 19.1919L40.404 16.9192L41.5404 15.2778L44.3182 11.7424L46.2121 9.72222L47.7273 8.20707L48.7374 7.32323L50.6313 5.68182L54.6717 2.65152L56.0606 1.64141H56.3131L56.1869 2.14646L55.0505 3.53535L53.6616 5.0505L52.2727 6.81818L51.0101 8.58586L49.6212 10.8586L48.1061 13.5101L46.4646 17.0455L45.4545 19.697L44.4444 22.8535L43.3081 27.6515L42.9293 29.1667L47.4747 28.4091L53.1566 27.399L58.8384 26.6414L61.8687 26.3889L65.0252 26.2626H66.7929L70.0758 26.5152L72.2222 27.0202L73.7374 27.7778L74.2424 28.2828V29.1667L73.3586 30.303L71.5909 31.6919L69.4444 32.9545L66.4141 34.4697L63.7626 35.6061L59.596 37.2475L53.2828 39.3939L46.8434 41.2879L41.0354 42.803L38.1313 43.4343L39.7727 43.3081L42.4242 42.9293L42.6768 43.1818L43.0556 45.7071L43.8131 50.505L44.8232 55.0505L46.0859 59.596L47.601 64.1414L49.2424 68.4343L51.0101 72.601L52.5252 75.8838L55.0505 80.9343L56.6919 83.8384L58.7121 87.3737L60.4798 90.1515L61.8687 92.298L63.7626 95.0758L65.5303 97.4747L66.6667 99.1162L67.0454 100L66.5404 99.8737L64.7727 98.4848L62.8788 96.8434L61.3636 95.4545L60.3535 94.5707L56.6919 90.9091L55.8081 89.899L54.4192 88.3838L53.0303 86.6162L51.2626 84.4697L47.9798 79.9242L46.3384 77.399L44.697 74.7475L43.1818 72.096L41.4141 68.6869L39.6465 65.0252L37.7525 60.3535L36.2374 55.6818L35.6061 53.4091H35.3535L34.9747 54.2929L34.0909 56.8182L32.8283 59.8485L31.1869 63.3838L29.9242 65.9091L28.1566 68.9394L26.5152 71.7172L25.6313 72.9798L24.6212 74.4949L23.1061 76.5151L21.4646 78.5353L20.3283 79.9242L18.8131 81.4394L17.9293 82.4495L16.6667 83.5859L15.1515 84.7222L14.7727 84.8485L15.0253 84.2172L16.6667 82.0707L18.1818 79.9242L19.8232 76.8939L20.8333 74.8737L22.3485 71.7172L24.1162 67.4242L25.7576 63.005L27.1465 58.7121L28.4091 54.0404L30.303 45.8333L30.5556 45.0758L28.7879 45.4545L23.2323 46.3384L15.9091 47.2222L12.7525 47.4747L10.2273 47.601H8.33333L4.41919 47.3485L1.89394 46.8434L0.757576 46.2121L0 45.4545L0.126263 44.697L1.26263 43.4343L3.40909 41.9192L5.68182 40.6566L9.09091 39.0151L13.005 37.5L17.298 35.9848L21.5909 34.596L28.2828 32.702L30.8081 32.0707H31.1869L30.9343 28.2828L30.4293 24.4949L29.798 21.3384L28.9141 18.3081L28.0303 15.7828L26.2626 12.1212L24.8737 9.84848L23.6111 8.08081L22.2222 6.43939L21.2121 5.30303L20.202 4.41919L18.6869 3.15657L17.1717 2.0202L15.7828 0.883838L14.899 0.126263V0ZM62.1212 28.1566L55.9343 28.5354L47.2222 29.4192L43.3081 29.798L42.9293 29.9242L42.803 30.1768L42.4242 35.101L42.298 38.8889L43.5606 38.6364L50 36.6162L55.1768 34.8485L59.7222 33.0808L63.2576 31.4394L65.2778 30.303L66.6667 29.2929L67.0454 28.5354L66.5404 28.2828L65.404 28.1566H62.1212ZM30.9343 32.3232L22.9798 34.9747L17.6768 36.8687L13.2576 38.6364L10.101 40.1515L8.20707 41.2879L6.81818 42.4242L6.56566 43.0556L6.94444 43.6869L7.95455 44.1919L9.09091 44.3182H12.1212L15.9091 44.0657L20.202 43.5606L26.1364 42.5505L30.0505 41.7929L31.8182 41.2879L33.8384 40.9091V40.7828L31.9444 40.9091L30.9343 41.0354L31.1869 36.8687L31.3131 32.3232H30.9343Z" fill="#2AB7B8"/>
<path d="M14.8984 0L15.5298 0.126263L17.55 1.13636L20.959 2.90404L23.8631 4.67172L26.0095 6.18687L27.3984 7.32323L28.6611 8.4596L29.6712 9.34344L31.4388 11.2374L32.8277 13.0051L34.2166 15.1515L35.7318 18.0556L36.6156 20.202L37.1207 21.7172L37.4994 22.096L39.0146 19.1919L40.4035 16.9192L41.5399 15.2778L44.3176 11.7424L46.2116 9.72222L47.7267 8.20707L48.7368 7.32323L50.6308 5.68182L54.6712 2.65152L56.0601 1.64141H56.3126L56.1863 2.14646L55.0499 3.53535L53.6611 5.05051L52.2722 6.81818L51.0095 8.58586L49.6207 10.8586L48.1055 13.5101L46.4641 17.0455L45.454 19.697L44.4439 22.8535L43.3075 27.6515L42.9287 29.1667L47.4742 28.4091L53.156 27.399L58.8378 26.6414L61.8681 26.3889L65.0247 26.2626H66.7924L70.0752 26.5152L72.2217 27.0202L73.7368 27.7778L74.2419 28.2828V29.1667L73.358 30.303L71.5904 31.6919L69.4439 32.9545L66.4136 34.4697L63.7621 35.6061L59.5954 37.2475L53.2823 39.3939L51.1358 40.0253H50.757V39.2677L49.9994 38.6364L49.2419 37.2475V36.7424L55.1762 34.7222L59.7217 32.9545L63.257 31.3131L65.2772 30.1768L66.5398 29.2929L66.9186 28.5354L65.4035 28.2828H62.1207L55.9338 28.6616L47.2217 29.5455L42.9287 29.9242L42.55 35.101L42.4237 38.5101L42.2974 38.8889L40.5297 39.6465L38.5095 40.1515L38.257 39.899L36.9944 40.404L34.5954 40.9091H32.954L30.9338 41.0354V38.8889L31.0601 36.8687L31.1863 32.4495L31.0601 32.0707V29.798L30.6813 26.1364L30.05 22.3485L29.1661 19.0657L28.0297 15.7828L26.2621 12.1212L24.8732 9.84849L23.6106 8.08081L22.2217 6.43939L21.2116 5.30303L20.2015 4.41919L18.6863 3.15657L17.1712 2.0202L15.7823 0.883838L14.8984 0.126263V0Z" fill="#46BBA5"/>
<path d="M90.7812 37.1211H106.059L108.332 37.2474L109.721 37.4999L111.11 38.2575L112.498 39.6463L113.382 41.1615L113.887 42.8029L114.014 43.5605L113.887 45.5807L113.256 47.3484L112.12 48.9898L111.236 49.7474L111.11 49.9999L111.615 50.2524L112.751 51.515L113.761 53.5352L114.014 54.9241V56.4393L113.635 58.207L112.751 59.9746L111.615 61.2373L110.604 61.9948L109.216 62.4999L107.7 62.7524L94.4429 62.8787H91.0338L90.7812 62.3736V37.1211ZM97.3469 42.6766L97.2206 49.116L97.9782 48.7373L98.9883 47.9797L100.125 47.4746L101.009 47.3484L105.175 47.0958L106.185 46.5908L106.69 45.9595L106.817 45.4544V43.813L106.438 43.1817L106.059 42.9292L105.428 42.8029L100.251 42.6766H97.3469ZM97.4732 52.6514L97.3469 52.7777V57.0706L97.4732 57.1968H104.544L105.807 56.9443L106.564 56.313L106.817 55.808V53.914L106.438 53.1564L105.933 52.9039L105.175 52.7777L97.4732 52.6514Z" fill="#265AA8"/>
<path d="M234.72 37.1211H242.17L242.801 37.6261L243.811 39.7726L245.074 42.1716L247.094 45.9595L248.735 48.8635L250.25 51.7676L251.008 52.9039H251.134L251.008 51.515V37.2474L251.134 37.1211H257.195L257.321 37.2474V62.6261L257.195 62.7524L250.882 62.8787L249.872 62.7524L248.988 61.4898L247.094 57.9544L245.452 55.0504L243.432 51.3888L241.791 48.3585L240.907 47.0958H240.781L240.907 48.3585V62.7524L235.099 62.8787L234.72 62.7524L234.594 62.4999V37.2474L234.72 37.1211Z" fill="#255AA8"/>
<path d="M117.301 37.1211H123.866L123.993 37.2474V49.116L125.382 47.9797L126.77 47.3484L128.159 47.0958H131.947V37.4999L132.074 37.1211H138.513L138.639 62.6261L138.387 62.7524L132.452 62.8787L132.074 62.7524V52.6514L123.993 52.7777V62.7524L118.311 62.8787L117.427 62.7524L117.301 60.6059V37.1211Z" fill="#255AA8"/>
<path d="M218.435 37.1211H230.809L230.935 37.2474V42.6766L219.698 42.9292L218.561 43.308L217.93 43.9393L217.551 44.8231L217.173 46.8433L217.046 49.116L218.056 48.4847L219.445 47.4746L220.455 47.2221H230.809L230.935 47.3484V52.6514L230.809 52.7777L216.92 52.9039L217.551 55.1766L218.309 56.4393L219.319 56.9443L220.329 57.0706L230.809 57.1968L230.935 57.3231V62.6261L230.809 62.7524H217.425L215.405 62.3736L213.385 61.3635L212.375 60.3534L211.491 58.5857L210.986 56.5655L210.859 55.5554V45.3282L211.112 43.0554L211.491 41.5403L212.248 40.0251L213.511 38.6362L215.152 37.6261L216.541 37.2474L218.435 37.1211Z" fill="#265AA8"/>
<path d="M77.6536 36.9941L78.2849 37.2467L78.6637 37.7517L82.7041 47.6002L84.7243 52.3982L86.8707 57.7012L88.3859 61.2366L89.0172 62.7517L87.5021 62.878H81.5677L80.9364 61.8679L79.4212 58.08L78.9162 57.1962L70.5829 57.3224L69.5728 59.8477L68.4364 62.4992L68.0576 62.878H60.8606L60.7344 62.6255L62.2495 59.2164L64.1435 54.5446L66.1637 49.7467L68.5627 43.9386L70.4566 39.2669L71.3404 37.2467L71.4667 37.1204L77.6536 36.9941ZM74.6233 45.58L72.9818 49.8729L71.9717 52.1457L71.2142 53.7871L71.7192 53.5345L72.9818 52.5244L73.8657 52.0194L75.1283 51.7669L77.2748 51.6406L77.1485 50.883L75.6334 46.9689L75.0021 45.7063L74.6233 45.58Z" fill="#265AA8"/>
<path d="M151.897 37.1211H162.376L162.629 37.2474V42.6766L162.124 42.8029H155.937L152.149 42.9292L151.013 43.1817L150.255 43.6867L149.498 44.8231L148.992 46.5908L148.614 49.116L149.75 48.3585L150.76 47.6009L151.644 47.3484L152.654 47.2221H162.503L162.629 47.4746V52.6514L162.503 52.7777L150.255 52.9039L148.866 53.0302L149.498 54.7979L150.255 55.9342L151.518 56.6918L152.528 56.9443L153.917 57.0706L162.503 57.1968L162.629 57.5756V62.6261L162.376 62.8787L152.023 62.7524L149.245 62.3736L147.73 61.8686L146.341 61.111L144.826 59.7221L143.816 58.4595L142.806 56.4393L142.174 54.6716L141.669 52.1463L141.543 51.01V48.4847L141.922 46.0857L142.553 44.0655L143.563 42.0453L144.447 40.6564L145.962 39.1413L147.856 37.8787L149.245 37.3736L149.876 37.2474L151.897 37.1211Z" fill="#265AA8"/>
<path d="M42.0461 42.9297L42.5512 43.056L42.8037 43.6873L43.5613 49.1166L44.6976 54.6721L46.2128 59.9751L47.7279 64.5206L49.7481 69.6974L51.137 72.8539L52.5259 75.8842L55.0512 80.9347L56.6926 83.8388L58.7128 87.3741L60.4805 90.1519L61.8694 92.2984L63.7633 95.0761L65.531 97.4751L66.6673 99.1166L67.0461 100L66.5411 99.8741L64.7734 98.4852L62.8795 96.8438L61.3643 95.4549L60.3542 94.5711L56.6926 90.9095L55.8088 89.8994L54.4199 88.3842L53.031 86.6166L51.2633 84.4701L47.9805 79.9246L46.3391 77.3994L44.6976 74.7479L43.1825 72.0964L41.4148 68.6873L39.6471 65.0256L37.7532 60.3539L36.238 55.6822L35.4805 53.157L35.9855 50.8842L36.3643 49.7479L36.8694 47.7277L37.6269 44.9499L37.8795 43.8135L38.0057 43.561L42.0461 42.9297Z" fill="#AECF56"/>
<path d="M196.466 37.1211H207.703L207.829 37.2474V42.6766L207.072 42.8029L196.466 42.9292L194.951 43.1817L194.193 43.6867L193.688 44.5706L193.309 46.3383L193.183 47.7272V49.116L194.193 48.3585L195.329 47.6009L195.961 47.3484L196.718 47.2221L199.243 47.0958H206.062L207.829 47.2221V52.6514L193.183 52.7777L193.309 58.207V62.7524H186.743L186.617 61.616L186.743 46.4645L186.996 44.3181L187.627 42.2979L188.511 40.7827L189.647 39.5201L191.289 38.3837L192.678 37.7524L193.94 37.3736L196.466 37.1211Z" fill="#255AA8"/>
<path d="M14.8984 0L15.5298 0.126263L17.55 1.13636L20.959 2.90404L23.8631 4.67172L26.0095 6.18687L27.3984 7.32323L28.6611 8.4596L29.6712 9.34344L31.4388 11.2374L32.8277 13.0051L34.2166 15.1515L35.7318 18.0556L36.6156 20.202L37.1207 21.7172L37.4994 22.096L37.8782 21.7172L38.7621 29.798L38.8883 31.6919V36.4899L38.6358 38.7626L38.257 39.899L36.9944 40.404L34.5954 40.9091H32.954L30.9338 41.0354V38.8889L31.0601 36.8687L31.1863 32.4495L31.0601 32.0707V29.798L30.6813 26.1364L30.05 22.3485L29.1661 19.0657L28.0297 15.7828L26.2621 12.1212L24.8732 9.84849L23.6106 8.08081L22.2217 6.43939L21.2116 5.30303L20.2015 4.41919L18.6863 3.15657L17.1712 2.0202L15.7823 0.883838L14.8984 0.126263V0Z" fill="#00AFED"/>
<path d="M166.286 37.1211H172.726L172.852 37.2474L172.978 54.2928L173.231 55.6817L173.483 56.313L174.115 56.5655L175.377 56.9443L177.776 57.0706L184.342 57.1968V62.7524H174.746L172.6 62.4999L170.832 61.8686L169.443 60.9847L168.433 60.1009L167.675 59.0908L166.918 57.5756L166.413 55.3029L166.286 53.7878L166.16 46.3383V41.1615L166.286 37.1211Z" fill="#255AA8"/>
<path d="M30.8081 32.0703H31.0606L30.9343 32.4491L22.9798 35.1006L17.6768 36.9946L13.2576 38.7622L10.101 40.2774L8.20707 41.4137L6.81818 42.5501L6.69192 43.0552L6.94444 43.5602L7.95455 44.0653L9.09091 44.1915H12.1212L15.9091 43.939L20.202 43.4339L26.1364 42.4238L30.0505 41.6663L31.8182 41.1612L33.9646 40.7824L35.2273 40.6562L36.8687 40.5299L37.1212 41.4137L37.3737 42.5501L37.5 43.0552L36.9949 43.1814V43.4339L35.2273 43.8127L32.197 44.444L30.9343 44.9491H30.6818L30.5556 45.2016L27.904 45.5804L23.2323 46.338L15.9091 47.2218L12.7525 47.4744L10.2273 47.6006H8.33333L4.41919 47.3481L1.89394 46.843L0.757576 46.2117L0 45.4542L0.126263 44.6966L1.26263 43.4339L3.40909 41.9188L5.68182 40.6562L9.09091 39.0148L13.005 37.4996L17.298 35.9845L21.5909 34.5956L28.2828 32.7016L30.8081 32.0703Z" fill="#AECF56"/>
<path d="M65.0259 26.2617H66.7936L70.0764 26.5142L72.2229 27.0193L73.738 27.7769L74.2431 28.2819V29.1658L73.3592 30.3021L71.5915 31.691L69.4451 32.9536L66.4148 34.4688L63.7633 35.6052L59.5966 37.2466L53.2835 39.393L51.137 40.0243H50.7582V39.2668L50.0006 38.6355L49.2431 37.2466V36.7415L55.1774 34.7213L59.7229 32.9536L63.2582 31.3122L65.2784 30.1759L66.541 29.292L66.9198 28.5344L65.4047 28.2819H62.1218L55.935 28.6607L47.2229 29.5445L44.4451 29.7971H43.6875L43.8138 29.0395L51.0107 27.7769L54.041 27.2718L60.1016 26.5142L65.0259 26.2617Z" fill="#00AFED"/>
<path d="M30.1775 63.1309L30.6825 63.3834L29.7987 66.0349L28.2835 68.8127L26.6421 71.4642L25.3795 73.3581L23.9906 75.3783L22.9805 76.641L21.5916 78.4086L20.0765 80.1763L18.8138 81.4389L17.93 82.449L16.6674 83.5854L15.1522 84.7218L14.7734 84.848L15.026 84.2167L16.6674 82.0703L18.1825 79.9238L19.8239 76.8935L20.834 74.8733L22.3492 71.7167L24.1169 67.4238L24.7482 65.9086L25.5058 65.4036H25.7583V64.3935H26.6421L27.6522 63.8884L29.925 63.3834L30.1775 63.1309Z" fill="#67C08D"/>
<path d="M247.346 67.9297H254.038L255.806 68.056L256.816 68.4347L257.574 69.0661L258.205 70.3287L258.331 71.5913V74.8741L257.826 75.8842L256.942 76.7681L255.553 77.2731L254.291 77.3994L251.387 77.5256H247.599L247.22 77.2731L247.094 76.7681V69.9499L247.22 68.056L247.346 67.9297ZM249.24 69.8236V75.5054H255.048L255.806 75.1267L256.058 74.2428L256.185 72.2226L255.932 70.3287L255.68 69.9499L254.164 69.8236H249.24Z" fill="#606466"/>
<path d="M143.814 67.9297H145.834L146.465 68.1822L147.349 69.0661L149.243 71.5913L150.505 73.2327L151.768 75.0004L152.526 75.5054L152.399 68.056L152.652 67.9297H154.293L154.546 68.056V76.8943L154.041 77.3994L153.283 77.5256H152.147L151.263 77.2731L150.253 76.3893L148.612 74.2428L146.591 71.5913L145.707 70.4549L145.581 70.0762L145.076 69.8236L144.95 77.3994L144.192 77.6519H143.435L143.056 77.3994L142.93 77.0206V70.8337L143.056 68.3085L143.308 68.056L143.814 67.9297Z" fill="#606465"/>
<path d="M134.472 67.9297H141.164L141.29 68.056V69.6974L141.164 69.8236L133.588 69.9499L133.335 70.2024L133.209 70.7075V71.8438L133.461 71.9701H141.164L141.29 72.0964V73.2327L141.037 73.4852H133.083L133.335 75.0004L133.588 75.3792L141.29 75.5054L141.416 76.0105V77.2731L141.29 77.3994L137.123 77.5256H133.588L132.451 77.1469L131.441 76.0105L131.189 75.3792L131.062 74.6216V70.96L131.315 69.6974L131.82 68.8135L132.704 68.1822L133.083 68.056L134.472 67.9297Z" fill="#5F6466"/>
<path d="M106.567 67.9297H113.385L113.637 68.1822L113.511 69.5711L113.259 69.8236H105.557L105.683 71.8438L112.249 71.9701L113.132 72.3489L113.637 72.9802L113.764 73.359V75.758L113.385 76.6418L112.754 77.2731L112.249 77.3994L106.062 77.5256H103.915L103.41 77.2731V75.8842L103.789 75.3792H111.617L111.743 74.8741V73.4852H105.052L104.168 73.1065L103.536 71.9701L103.41 71.465V69.9499L103.789 68.6873L104.294 68.1822L104.673 68.056L106.567 67.9297Z" fill="#5F6467"/>
<path d="M30.933 52.9043H31.3117L31.438 53.1568L32.0693 53.2831V53.6619H32.3219V54.1669L32.7006 54.2932L32.9532 55.0508L33.4582 55.6821L33.9633 56.1871V57.071L32.9532 59.5962L31.1855 63.3841L30.0491 65.6568L29.9229 65.278L30.5542 63.3841H30.0491L29.5441 63.6366L27.6501 64.0154L26.64 64.5205H25.8825L25.7562 65.4043L24.9986 65.9093L24.7461 65.7831L26.0087 62.2477L27.1451 58.7124L28.4077 54.1669L29.9229 53.4093L30.5542 53.0306L30.933 52.9043Z" fill="#47BBA4"/>
<path d="M93.1804 67.9297H97.0946L97.5996 68.1822V69.6974L97.3471 69.8236L89.5188 69.9499L89.3926 71.8438L89.7713 71.9701H97.3471L97.4734 72.2226V73.4852L89.3926 73.6115L89.6451 75.3792L97.2208 75.5054L97.5996 75.8842V77.2731L97.4734 77.3994L96.5895 77.5256H90.1501L88.8875 77.2731L88.0037 76.5155L87.6249 75.8842L87.3724 74.8741L87.2461 73.6115V71.0863L87.6249 69.5711L88.7612 68.3085L89.3926 68.056L93.1804 67.9297Z" fill="#5F6467"/>
<path d="M172.854 67.9297H177.904L178.283 68.056V69.6974L178.157 69.8236L170.455 69.9499L170.202 70.4549V71.9701H178.157V73.4852H170.076V74.4953L170.202 75.3792L178.031 75.5054L178.283 75.8842V77.2731L178.157 77.3994H169.95L168.94 76.7681L168.308 75.8842L168.056 75.0004L167.93 73.4852V71.465L168.182 69.9499L168.94 68.6873L169.95 68.056L172.854 67.9297Z" fill="#606466"/>
<path d="M184.595 67.9297H192.928L194.065 68.056L194.696 68.6873L195.201 69.9499L195.327 70.4549V72.0964L194.696 73.6115L193.938 74.2428L193.433 74.3691L191.539 74.4953H186.489L186.615 77.2731L186.489 77.5256H184.721L184.469 77.1469V68.056L184.595 67.9297ZM186.489 69.8236V72.7277H192.802L193.055 72.3489L193.181 70.8337L192.928 69.9499L190.782 69.8236H186.489Z" fill="#606466"/>
<path d="M56.0629 1.64062H56.3155L56.1892 2.14568L55.0528 3.53456L53.6639 5.04972L52.2751 6.81739L51.0124 8.58507L49.6235 10.8578L48.1084 13.5093L46.467 17.0447L44.068 16.6659L42.4266 16.2871L41.7953 16.4134H40.7852L41.669 15.0245L43.0579 13.383L44.3205 11.7416L46.2144 9.72143L47.7296 8.20628L48.7397 7.32244L50.6336 5.68103L54.674 2.65073L56.0629 1.64062Z" fill="#01AFEC"/>
<path d="M120.579 67.9297H125.882V69.6974L125.756 69.8236L117.675 69.9499V74.7479L117.801 75.2529L118.306 75.3792L123.862 75.5054H125.756L126.008 75.758V77.2731L125.882 77.3994H117.549L116.539 76.8943L115.781 75.758L115.529 75.0004L115.402 73.9903V71.7176L115.529 70.2024L116.16 68.9398L116.917 68.3085L117.549 68.056L120.579 67.9297Z" fill="#606466"/>
<path d="M37.3714 7.32422H38.8866L40.1492 7.82927L41.1593 8.71311L41.6643 9.47068L42.0431 10.607V12.1222L41.4118 13.3848L40.528 14.2687L39.6441 14.7737L38.7603 15.0262H37.2451L36.235 14.6475L35.0987 13.6373L34.4674 12.501L34.2148 11.6171V10.7333L34.5936 9.59695L35.0987 8.83937L36.1088 7.82927L37.3714 7.32422Z" fill="#00AFED"/>
<path d="M159.849 67.9297H166.415L166.541 68.056L166.667 69.6974L166.541 69.8236L158.965 69.9499L158.586 70.0762L158.334 71.0863V73.9903L158.586 75.1267L159.092 75.3792L160.733 75.5054L166.541 75.6317L166.667 75.758L166.794 77.0206L166.667 77.3994H158.334L157.324 76.8943L156.693 76.1368L156.314 75.2529L156.188 74.6216V70.96L156.566 69.4448L157.45 68.4347L158.208 68.056L159.849 67.9297Z" fill="#606365"/>
<path d="M78.6619 67.9297H85.8588L85.9851 68.056V69.6974L85.8588 69.8236L78.0305 69.9499L77.778 71.9701H85.7326L85.9851 72.0964V73.359L85.7326 73.4852H77.778V77.3994L77.6518 77.5256H76.1366L75.7578 77.0206V70.7075L76.0103 69.5711L76.5154 68.8135L77.3992 68.1822L78.6619 67.9297Z" fill="#606365"/>
<path d="M42.4244 16.1621L44.6971 16.6672L46.2122 16.9197L46.3385 17.4247L45.5809 19.3187L44.4446 22.854L44.0658 24.3692L43.8132 24.6217L43.5607 24.1167H43.3082V23.8641L41.288 23.3591L40.5304 23.2328H39.5203L38.5102 23.7379L38.384 23.9904L38.2577 25.253H38.1314L37.8789 22.7278V21.3389L39.5203 18.3086L40.7829 16.4146L42.4244 16.1621Z" fill="#2AB7B8"/>
<path d="M48.8644 36.8691H49.2432L50.1271 38.6368L50.8846 39.2681L50.7584 40.152L46.3392 41.4146L41.0361 42.8035L38.7634 43.3085H36.9957L37.3745 43.056L37.122 42.2984L36.8695 40.5308L35.8594 40.657L36.3644 40.4045L38.0058 39.8994L38.3846 39.7732L38.5109 40.0257L40.5311 39.5207L42.0462 38.8893L43.9402 38.3843L48.8644 36.8691Z" fill="#2BB8B8"/>
<path d="M36.4879 40.5293H36.8667L37.1192 41.4131L37.3718 42.5495L37.498 43.0545L36.993 43.1808V43.4333L35.2253 43.8121L32.195 44.4434L30.9324 44.9485H30.6798L30.5536 45.201L27.9021 45.5798L24.8718 46.0849H24.2405L24.1142 45.7061L23.2304 45.0748L22.8516 43.8121L22.9778 43.1808L23.3566 42.9283L29.5435 41.7919L31.8162 41.1606L33.9627 40.7818L35.2253 40.6556L36.4879 40.5293Z" fill="#79C17F"/>
<path d="M196.212 67.8027H197.349L198.232 68.1815L198.99 69.4441L201.01 73.1058L202.147 75.2522H202.652L203.283 74.2421L205.429 70.0755L206.439 68.434L207.071 67.929L207.323 67.8027H208.586L208.712 67.929V68.5603L207.828 70.0755L206.818 72.0957L205.429 74.7472L204.04 76.8936L203.409 77.3987L202.525 77.6512L201.389 77.2724L200.758 76.7674L199.748 75.126L197.98 71.8431L196.465 69.0654L196.086 68.0553L196.212 67.8027Z" fill="#606466"/>
<path d="M239.523 67.9297H245.836L245.963 68.056V69.6974L245.836 69.8236L241.291 69.9499V77.2731L241.038 77.5256H239.523L239.271 77.2731L239.144 75.8842V69.8236H234.851L234.599 69.5711L234.473 68.4347L234.725 68.056L239.523 67.9297Z" fill="#5F6567"/>
<path d="M209.219 67.9297H217.805L220.835 68.056V69.5711L219.951 69.8236L216.289 69.9499L216.163 77.3994L215.784 77.5256H214.269L214.143 77.3994L214.017 75.8842L214.143 69.8236H209.598L209.345 69.3186L209.219 67.9297Z" fill="#5F6467"/>
<path d="M60.9869 67.9297H62.6283L63.0071 68.1822V73.4852L63.1334 75.3792L70.4566 75.5054L70.7091 76.0105V77.2731L70.4566 77.5256L63.3859 77.3994L62.3758 77.1469L61.492 76.3893L60.9869 75.3792L60.8606 74.8741L60.7344 68.1822L60.9869 67.9297Z" fill="#606365"/>
<path d="M226.766 68.0566H228.786L228.912 68.1829L229.038 75.3799L235.351 75.5061L236.488 75.6324L236.614 75.7587L236.74 77.0213L236.488 77.4001H228.912L227.902 77.0213L227.271 76.2637L226.892 75.3799L226.766 74.3698V68.0566Z" fill="#616365"/>
<path d="M39.7717 30.4297L41.0343 30.556L41.6656 30.8085L42.6757 31.1873L42.802 31.5661L42.5495 35.1014L42.4232 38.5105L42.297 38.8893L40.5293 39.6469L38.5091 40.1519L38.3828 39.7731L38.7616 38.1317L38.8879 36.9953L39.0141 31.6923L39.3929 30.6822L39.7717 30.4297Z" fill="#67C08D"/>
<path d="M22.4741 43.0547H23.1054L22.9791 43.8123L23.3579 45.0749L24.2418 45.7062L24.1155 46.2113L15.9084 47.2214H15.1508V44.9486L15.2771 44.1911H14.5195V44.0648L19.3175 43.5597L22.4741 43.0547Z" fill="#99C76A"/>
<path d="M22.0967 73.1074L23.8643 73.2337L24.2431 73.3599H25.0007L25.2532 73.6125L23.8643 75.5064L22.9805 76.6428L21.5916 78.4105L20.0765 80.1781L18.8138 81.4408L17.93 82.4509L16.6674 83.5872L15.1522 84.7236L14.7734 84.8498L15.026 84.2185L16.6674 82.0721L18.1825 79.9256L19.8239 76.8953L21.5916 73.3599L22.0967 73.1074Z" fill="#7AC17F"/>
<path d="M37.6291 43.1816H38.1341L37.6291 45.3281L36.619 48.9897L36.2402 50.6311L35.9876 51.2624L35.4826 53.2826L35.1038 53.914L34.4725 55.8079L34.22 55.9342L34.725 53.914L35.3563 50.6311V48.2321L34.8513 46.0857L34.3462 45.3281L33.8412 45.2018L32.5786 45.5806L32.0735 45.9594H31.821L31.5685 46.4645L30.1796 47.8534L30.0533 48.1059L29.8008 47.9796L30.4321 45.3281L30.9371 44.8231L32.1998 44.318L35.2301 43.6867L36.9978 43.3079L37.6291 43.1816Z" fill="#12B6CE"/>
<path d="M42.044 42.9297L42.549 43.056L42.8015 43.6873L43.1803 46.5913L43.0541 47.0964L42.2965 47.4751L40.4025 47.9802L39.645 47.7277L37.246 47.6014L36.8672 48.1065L37.1197 46.8438L37.8773 43.8135L38.0036 43.561L42.044 42.9297Z" fill="#97C66A"/>
<path d="M71.97 67.9297H73.6114L73.9902 68.1822V77.3994L73.864 77.5256H72.0963L71.8438 76.8943V68.056L71.97 67.9297Z" fill="#5E6568"/>
<path d="M127.271 67.9297H129.038L129.165 68.056L129.291 77.2731L129.038 77.5256H127.65L127.271 77.3994L127.145 76.5155V70.8337L127.271 67.9297Z" fill="#606465"/>
<path d="M53.0301 35.4785L53.4089 35.6048L53.9139 36.6149L54.419 38.8876L54.0402 39.1401L51.1361 40.024H50.7573V39.2664L49.9998 38.6351L49.2422 37.2462V36.7411L53.0301 35.4785Z" fill="#10B6D0"/>
<path d="M36.4917 40.5293H36.8705L37.123 41.4131L37.3755 42.5495L37.5018 43.0545L36.9967 43.1808V43.4333L35.7341 43.6859L35.8604 43.4333L33.8402 43.3071L32.7038 42.9283L32.4513 42.297L31.1886 42.0444L30.6836 41.7919L30.8099 41.4131L32.8301 41.0343L33.9664 40.7818L35.229 40.6556L36.4917 40.5293Z" fill="#63BF90"/>
<path d="M21.0866 75.127L21.2128 75.5057L20.9603 78.1573L21.0866 79.0411L19.5714 80.6825L17.8037 82.5764L16.7936 83.4603L15.531 84.4704L14.7734 84.8492L15.026 84.2179L16.6674 82.0714L18.1825 79.9249L19.8239 76.8946L20.329 76.0108L20.834 75.5057L21.0866 75.127Z" fill="#97C66A"/>
<path d="M42.8054 14.0156H44.8256L46.467 14.5207L47.0983 14.8995L47.2245 15.4045L46.467 17.0459L44.068 16.6671L42.4266 16.2884L41.7953 16.4146H40.7852L41.669 15.0257L42.4266 14.1419L42.8054 14.0156Z" fill="#0FB6D0"/>
<path d="M40.1505 35.8594H42.4232V38.5109L42.297 38.8897L40.5293 39.6473L38.5091 40.1523L38.3828 39.7735L38.7616 38.1321H39.0141L39.2667 36.4907L39.6454 35.9856L40.1505 35.8594Z" fill="#78C180"/>
<path d="M30.8075 32.0703H31.0601L30.9338 32.4491L22.9792 35.1006L17.6762 36.9946L15.151 38.0047L14.8984 37.8784L15.0247 36.742L21.5904 34.5956L28.2823 32.7016L30.8075 32.0703Z" fill="#98C669"/>
<path d="M52.2734 27.5254H52.9047L53.2835 28.0304L53.1572 28.6618L53.0309 28.9143L48.738 29.4193L44.4451 29.7981H43.6875L43.8138 29.0405L51.0107 27.7779L52.2734 27.5254Z" fill="#11B5CF"/>
<path d="M40.026 39.6465L40.4048 39.7727L39.8998 40.0253L39.3947 41.0354L39.0159 42.1717L38.3846 42.9293L37.6271 43.3081H36.9957L37.3745 43.0556L37.122 42.298L36.8695 40.5303L35.8594 40.6566L36.3644 40.4041L38.0058 39.899L38.3846 39.7727L38.5109 40.0253L40.026 39.6465Z" fill="#47BBA4"/>
<path d="M30.8094 32.0703H31.0619L30.9357 32.4491L21.8448 35.4794L21.0872 35.3531L20.9609 35.1006L21.2135 34.7218L27.7791 32.8279L30.8094 32.0703Z" fill="#7EC27C"/>
<path d="M16.9199 81.6934L17.1724 81.8196V83.0822L15.9098 84.2186L14.7734 84.8499L15.026 84.2186L16.6674 82.0721L16.9199 81.6934Z" fill="#9BC768"/>
<path d="M37.6286 43.1816H38.1336L37.7548 44.9493H37.2498L36.9972 44.318L36.6185 44.1917L36.4922 43.5604L37.6286 43.1816Z" fill="#03B0E9"/>
<path d="M30.8061 32.0703H31.0587L30.9324 32.4491L27.9021 33.4592H27.1445V33.0804L28.7859 32.5754L30.8061 32.0703Z" fill="#5EBE94"/>
<path d="M14.8984 0L15.5298 0.126263L16.6661 0.757576V1.51515L15.9085 1.0101L14.8984 0.126263V0Z" fill="#0D9ED8"/>
<path d="M40.6555 42.4238L41.5394 42.5501L41.0343 42.8026L38.7616 43.3077L38.3828 43.1814L39.6454 42.6764L40.6555 42.4238Z" fill="#89C474"/>
<path d="M30.8054 32.0703H31.0579L30.9316 32.4491L29.0377 33.0804L28.7852 32.9542L29.0377 32.5754L30.8054 32.0703Z" fill="#95C76B"/>
<path d="M43.8138 29.0391H44.4451L44.5713 29.6704L44.4451 29.7966H43.6875L43.8138 29.0391Z" fill="#29B7BA"/>
</svg>
