<svg width="121" height="120" viewBox="0 0 121 120" fill="none" xmlns="http://www.w3.org/2000/svg">
<path d="M0 105.787H120.47V119.999H0V105.787Z" fill="#FEFEFD"/>
<path d="M28.0479 35.7656L29.8361 35.8597L31.6244 36.2362L33.2244 36.8009L34.7303 37.5539L36.2361 38.495L37.5538 39.5303L39.8126 41.7891L41.0361 43.3891L42.1656 44.9891L42.9185 46.2127L42.8244 46.8715L41.7891 48.7538L40.5656 50.448L39.5303 51.7656L38.6832 52.6127L38.0244 53.3656L37.2714 54.0244L36.2361 54.8715L34.8244 55.8127L33.4126 56.5656L31.5303 57.2244L30.495 57.5068L28.7067 57.695H27.6714L25.7891 57.5068L23.4362 56.9421L20.895 56.095L18.6362 55.0597L16.2832 53.8362L14.6832 52.895L12.4244 51.3891L10.8244 50.2597L8.18911 48.2833L7.15381 47.4362L6.77734 47.0597L7.71852 46.2127L8.6597 45.4597L9.88322 44.4244L11.1068 43.4833L12.9891 42.0715L14.495 41.1303L15.9067 40.1892L17.3185 39.3421L19.0126 38.4009L21.4597 37.2715L24.0009 36.4244L26.0714 35.9539L28.0479 35.7656Z" fill="#9DBF22"/>
<path d="M90.7309 35.7656H91.6721L93.4603 35.9539L95.5309 36.4244L97.7897 37.1774L100.049 38.2127L102.213 39.3421L104.378 40.6597L106.731 42.2597L108.425 43.4833L109.743 44.5186L112.19 46.5891L112.754 46.9656L112.566 47.3421L111.249 48.4715L109.837 49.5068L108.237 50.6362L105.696 52.3303L103.06 53.9303L100.707 55.1538L98.4486 56.095L95.3427 57.1303L93.7427 57.5068L93.0839 57.6009H89.8839L88.4721 57.3186L86.8721 56.848L84.7074 55.8127L83.578 55.0597L82.3545 54.1186L80.8486 52.7068L79.9074 51.6715L78.4956 49.7891L77.4603 48.1891L76.6133 46.6833L76.9898 45.7421L77.6486 44.6127L78.8721 42.8244L79.7192 41.7891L80.7545 40.6597L81.978 39.5303L83.578 38.3068L84.8015 37.5539L86.3074 36.8009L87.5309 36.3303L89.0368 35.9539L90.7309 35.7656Z" fill="#9DBF22"/>
<path d="M58.8223 0L59.1988 0.188235L60.234 1.41176L61.5517 3.2L62.7752 4.98823L64.0929 6.9647L65.3164 9.03529L66.9164 12.1412L67.6693 13.8353L68.5164 16.1882L69.0811 18.6353L69.2693 19.9529V23.3412L68.8929 25.0353L68.3282 26.7294L67.5752 28.3294L66.7282 29.647L65.787 30.8706L64.7517 32L63.3399 33.4117L62.0223 34.447L60.7988 35.3882L59.8576 35.9529H59.1988L57.787 35.1059L56.4693 34.1647L55.2458 33.1294L54.4929 32.4706L53.0811 31.0588L52.1399 29.8353L51.1046 28.1412L50.3517 26.6353L49.6929 24.6588L49.4105 23.4353L49.3164 22.5882V20.1412L49.6929 17.7882L50.3517 15.3412L51.1988 12.8941L52.5164 10.0706L53.7399 7.71764L55.3399 5.08235L57.034 2.54117L58.1635 0.941176L58.8223 0Z" fill="#9DBF22"/>
<path d="M78.591 40.2812H78.7792L78.6851 40.5636L78.1204 40.9401L76.3322 42.2577L74.7322 43.4812L73.2263 44.7048L71.9087 45.8342L70.4028 47.246L69.0851 48.5636L68.2381 49.5989L67.2028 50.8224L65.9793 52.5165L64.944 54.3048L64.0969 56.093L63.4381 58.0695L63.1557 59.1989L62.9675 60.7989V62.8695L63.1557 64.3754L63.7204 66.5401L64.4734 68.3283L65.4145 70.1165L66.544 71.8106L67.8616 73.4106L68.8969 74.5401L70.0263 75.7636L70.7793 76.4224L72.0969 77.6459L73.4145 78.6812L75.1087 79.9989L78.2145 82.0695L78.6851 82.3518V82.4459L77.9322 82.3518L76.0498 81.5989L73.6969 80.5636L72.191 79.8106L69.5557 78.3989L67.5793 77.1753L65.9793 76.0459L64.3793 74.8224L63.344 73.9753L62.0263 72.8459L59.391 70.2106L58.544 71.2459L57.6969 72.1871L56.944 73.0342H56.7557L56.5675 73.4106L55.8146 74.0695L54.8734 74.9165L53.0851 76.2342L51.7675 77.1753L49.8851 78.3048L48.191 79.2459L46.1204 80.2812L43.2028 81.5047L40.7557 82.4459H40.5675V82.2577L42.2616 81.1283L43.6734 79.9989L44.5204 79.34L46.0263 78.1165L46.9675 77.2695L47.7204 76.6106L49.5087 74.8224L50.1675 74.0695L51.4851 72.4695L52.4263 71.0577L53.0851 70.0224L53.744 68.893L54.6851 66.6342L55.0616 65.4106L55.4381 63.5283L55.5322 62.5871V60.5165L55.2499 58.6342L54.7793 56.8459L54.1204 55.1518L53.3675 53.6459L52.6146 52.3283L51.4851 50.7283L50.544 49.5048L49.6028 48.4695L48.944 47.7165L47.2499 46.0224L46.4969 45.3636L45.4616 44.4224L43.1087 42.5401L41.3204 41.2224L40.2852 40.5636V40.4695L41.1322 40.5636L43.5793 41.5989L45.2734 42.3518L46.8734 43.1048L48.6616 44.1401L49.6969 44.7989L51.2969 45.9283L52.3322 46.6812L53.6499 47.8107L54.7793 48.846L56.3793 50.4459L57.2263 51.4812L58.2616 52.7989L59.1087 54.0224L59.5793 54.6812L60.6146 53.2695L61.4616 52.1401L62.591 50.8224L63.4381 49.8812L64.8498 48.4695H65.0381V48.2812L65.6028 47.8107H65.791V47.6224L66.8263 46.7754L68.3322 45.646L69.744 44.7048L72.0969 43.293L75.1087 41.7871L77.7439 40.6577L78.591 40.2812Z" fill="#67180F"/>
<path d="M70.4922 54.8691H73.504L75.3863 55.2456L77.1746 55.9986L78.304 56.7515L79.5275 57.8809L80.2805 58.8221L81.0334 60.0456L81.7863 61.5515L82.4452 63.1515L82.9158 64.5633L83.8569 68.328L84.3275 70.9632V71.4338H83.3863L79.9981 70.8691L77.6452 70.3044L74.5393 69.2691L72.3746 68.2338L71.0569 67.2927L70.1158 66.4456L69.1746 65.5044L68.2334 63.8103L67.7628 62.3985L67.4805 60.9868V57.7868L67.6687 56.375L67.9511 55.528L68.6099 55.2456L69.7393 54.9633L70.4922 54.8691Z" fill="#9DBF22"/>
<path d="M43.7618 54.8691H46.397L47.997 55.1515L49.0323 55.4338L49.3147 56.1868L49.5029 56.8456L49.597 58.0691V60.8927L49.2206 62.6809L48.6559 64.0927L47.997 65.3162L47.2441 66.2574L46.5853 66.9162L45.3618 67.7632L43.6676 68.7044L42.2559 69.3632L39.4323 70.3044L35.95 71.0574L33.6912 71.4338L32.75 71.528L32.8441 70.3044L33.6912 66.3515L34.35 63.9985L35.2912 61.5515L36.2324 59.6691L37.55 57.8809L38.4912 56.9397L39.7147 56.0927L40.9382 55.528L42.0676 55.1515L43.7618 54.8691Z" fill="#9DBF22"/>
<path d="M0 118.777H120.47V120.001H0V118.777Z" fill="#11120C"/>
<path d="M0 105.787H120.47V106.917H0V105.787Z" fill="#160A0A"/>
<path d="M82.3498 23.8125H83.0086L82.9145 24.7537L82.538 26.9184L81.7851 29.7419L81.0322 31.7184L80.2792 33.2243L79.6204 34.3537L78.5851 35.5772L77.5498 36.4243L76.138 37.1772L74.538 37.6478L73.7851 37.7419H71.7145L70.1145 37.4595L69.2675 37.2713L68.9851 36.5184L68.7969 35.389V33.1301L68.9851 31.7184L69.5498 30.0243L70.2086 28.8948L71.1498 27.8596L72.3733 26.9184L73.5969 26.1654L75.5733 25.3184L77.738 24.6596L80.8439 24.0007L82.3498 23.8125Z" fill="#9DBF22"/>
<path d="M34.0703 23.7188L35.1997 23.8129L37.7409 24.2835L39.9997 24.8482L42.4468 25.6952L44.0468 26.4482L45.1762 27.2011L46.1174 28.0482L46.9644 29.0835L47.435 29.8364L47.9056 31.154L48.1879 32.3776L48.2821 33.2246V35.5776L47.9056 37.1776L46.7762 37.554L45.3644 37.7423H43.9527L42.1644 37.554L40.5644 36.9893L39.2468 36.2364L38.2115 35.2952L37.3644 34.1658L36.4233 32.5658L35.7644 31.0599L35.1056 29.0835L34.5409 26.7305L34.0703 23.8129V23.7188Z" fill="#9CBF22"/>
<path d="M58.4459 37.7422H60.2341L61.0812 37.9304L62.2106 38.4951L63.1517 39.2481L63.7164 40.001L64.2812 41.1304L64.5635 42.2598V43.3892L64.187 44.7069L63.6223 45.7422L62.7753 46.6834L61.8341 47.3422L60.6106 47.8128L59.9517 47.9069H59.0106L57.5988 47.6245L56.3753 46.9657L55.34 45.9304L54.587 44.7069L54.3047 43.5775V41.9775L54.6812 40.6598L55.34 39.6245L56.187 38.7775L57.5047 38.0245L58.4459 37.7422Z" fill="#67180F"/>
<path d="M5.17909 81.5996H7.06144L7.15556 81.6937V85.5525H15.7203V81.5996H18.6379V90.1643L18.5438 91.9525H15.7203L15.6261 87.6231H11.1085L7.15556 87.529V92.0467H5.08497L4.33203 91.9525V81.6937L5.17909 81.5996Z" fill="#6A9630"/>
<path d="M81.3187 12.0469H81.6952L81.507 13.5528L80.9423 15.8116L80.2835 17.5998L79.4364 19.1998L78.5893 20.3292L77.7423 20.988L76.8011 21.4586L75.7658 21.741L75.0129 21.8351H73.4129L72.2835 21.6469L71.907 21.3645L71.7188 20.3292V18.2586L72.0952 16.7528L72.5658 15.8116L73.4129 14.8704L74.1658 14.2116L75.4835 13.4586L77.7423 12.7057L80.0011 12.2351L81.3187 12.0469Z" fill="#9CBE22"/>
<path d="M92.6118 25.7891H96L96.1883 25.9773L95.4353 27.8596L94.6824 29.5538L93.6471 31.342L92.8942 32.2832L91.8589 33.3185L90.8236 33.9773L89.9765 34.2596L88.4706 34.3538L86.8706 34.1655L85.3648 33.6949L84.9883 33.5067V31.4361L85.3648 29.8361L85.9295 28.7067L86.7765 27.6714L87.5295 27.1067L88.753 26.542L89.9765 26.1655L90.8236 25.9773L92.6118 25.7891Z" fill="#9DBF22"/>
<path d="M20.8906 24.6582H24.5612L26.5377 24.9406L28.42 25.5053L29.5494 26.07L30.4906 26.917L31.1494 27.7641L31.62 28.7994L31.9965 30.117L32.0906 30.6817V31.9994L31.8083 32.47L30.8671 32.8464L29.8318 33.1288H27.1965L26.0671 32.7523L25.22 32.1876L24.2789 31.3406L23.4318 30.3053L22.4906 28.7053L21.7377 27.1994L20.9847 25.317L20.8906 24.6582Z" fill="#9CBE22"/>
<path d="M35.3867 10.8242L38.022 11.2948L40.375 11.9536L42.1632 12.7066L43.2926 13.4595L44.0455 14.2125L44.7044 15.2477L45.1749 16.5654L45.3632 17.6948V18.8242L45.0808 19.9536L44.6102 20.4242L44.1397 20.6124L43.3867 20.7066H41.7867L40.6573 20.5183L39.1514 19.7654L38.2102 18.9183L37.4573 17.9772L36.7044 16.4713L35.9514 14.2125L35.3867 11.5772V10.8242Z" fill="#9CBE22"/>
<path d="M28.1414 59.7656H30.4944L31.9062 60.1421L32.565 60.4244L32.6591 60.8009V62.8715L32.2826 64.3774L31.6238 65.695L30.965 66.448L29.6473 67.295L27.765 68.048L25.8826 68.4244L24.0944 68.6127H21.9297L22.3062 67.1068L23.0591 65.0362L23.812 63.5303L24.3767 62.5892L25.0356 61.7421L25.6944 60.9892L26.6356 60.3303L27.765 59.8597L28.1414 59.7656Z" fill="#9DBF22"/>
<path d="M87.9045 59.6699H89.0339L90.5397 59.9523L91.4809 60.4229L92.2339 60.9876L93.0809 61.8346L93.7397 62.7758L94.8692 64.9405L95.8103 67.4817L95.9986 68.0464V68.6111H93.7397L91.575 68.3287L89.5986 67.8582L88.0927 67.1993L87.0574 66.4464L86.3045 65.5052L85.7398 64.3758L85.4574 63.4346L85.3633 63.0582V60.4229L86.3045 60.0464L87.2456 59.764L87.9045 59.6699Z" fill="#9CBE22"/>
<path d="M62.7734 83.4824H64.9381L65.4087 83.6707L67.1028 87.6236L67.7617 89.1295L67.9499 89.2236L68.2323 88.3765L69.3617 85.9295L70.2087 83.953L70.4911 83.4824H72.1852L72.5617 84.0471L73.597 86.4001L74.8205 89.0354V89.2236H75.0087L75.2911 88.2824L76.797 84.706L77.2675 83.4824H79.5264L79.4322 83.953L78.397 86.2118L76.8911 89.4118L75.8558 91.6707L75.5734 92.0471L73.9734 91.953L73.2205 90.4471L72.0911 88.0942L71.3381 86.4001V86.2118H71.1499L70.9617 86.7765L69.3617 89.9765L68.6087 91.6707L68.4205 91.953L66.7264 92.0471L65.9734 90.5412L64.1852 86.7765L62.7734 83.7648V83.4824Z" fill="#6B9730"/>
<path d="M42.2575 83.4824H44.234L44.7046 83.953L45.9281 85.6471L46.6811 86.7765L47.9987 88.6589L49.1281 90.2589L50.1634 91.7648V91.953L49.8811 92.0471L47.434 91.953L46.3046 90.2589H39.9046L39.1517 91.2942L38.5869 92.0471H36.3281L36.5164 91.5765L37.6458 89.7883L38.8693 88.0001L40.8458 85.1765L41.8811 83.6707L42.2575 83.4824Z" fill="#6B9630"/>
<path d="M23.7191 83.4824H34.1662L34.2603 83.5765V84.9883L34.1662 85.0824H26.2603V86.4942L26.3544 86.7765H30.7779L30.8721 86.8707V88.2824L30.7779 88.3765H26.1662V90.353H34.3544L34.4485 90.5412L34.3544 91.953L34.2603 92.0471H28.1426L23.7191 91.953L23.625 87.6236V83.5765L23.7191 83.4824Z" fill="#6B9730"/>
<path d="M82.45 83.4824H92.5205L92.8029 83.5765V84.4236L92.7088 84.9883L90.4499 85.0824H84.7088V86.7765H89.0382L89.4147 86.8707V88.0942L89.3205 88.3765H84.7088V90.353H92.897V91.953L92.8029 92.0471H88.3794L82.2617 91.953V83.5765L82.45 83.4824Z" fill="#6B9730"/>
<path d="M109.082 83.4824H111.435V90.353H118.965L119.153 90.4471L119.059 91.953L118.965 92.0471H110.777L108.988 91.953V83.5765L109.082 83.4824Z" fill="#6B9731"/>
<path d="M52.7074 83.4824H54.8721L55.0603 83.5765L55.1545 90.2589L62.6839 90.353V91.953L62.5897 92.0471H54.4956L52.7074 91.953L52.6133 91.5765V83.5765L52.7074 83.4824Z" fill="#6B9731"/>
<path d="M96.2812 83.4824H98.7283L98.8224 90.2589L106.352 90.353L106.446 90.6354L106.352 91.953L105.881 92.0471H100.987L96.2812 91.953V83.4824Z" fill="#6B9731"/>
<path d="M90.7308 111.246H93.5544L94.3073 111.528L94.9661 112.281L95.1544 112.846V114.352L94.7779 115.199L94.025 115.858L93.272 116.046H90.7308L90.6367 115.952V111.34L90.7308 111.246Z" fill="#19100B"/>
<path d="M64.2852 111.246H67.2028L68.144 111.717L68.6146 112.376L68.8028 113.034V114.164L68.5204 115.011L67.9557 115.67L66.9204 116.046H64.3793L64.2852 115.952V111.246Z" fill="#1B110C"/>
<path d="M48.9418 111.246H52.33L52.8006 111.528L53.1771 111.999L53.2712 112.281V113.128L52.7065 113.599L52.1418 113.787L53.5535 115.67L53.7418 116.14L52.8947 116.046L52.4241 115.67L51.4829 114.352L51.0124 114.07L49.9771 113.976L49.6947 113.881V116.14H49.0359L48.9418 116.046L48.8477 111.34L48.9418 111.246Z" fill="#1A110B"/>
<path d="M92.2374 32.8477V33.13L91.9551 33.5065L91.7669 34.3535L91.4845 34.5418L90.6374 34.73H89.7904L88.9433 35.0124L88.3786 35.1065L87.908 35.2006L87.5316 35.2947L87.4374 35.8594H88.8492L90.3551 35.5771H91.5786L93.461 35.7653L94.0257 35.9535L94.4022 36.1418L93.461 36.0477L91.6727 35.8594H90.7316L89.0374 36.0477L87.2492 36.5182L85.461 37.2712L83.6727 38.3065L83.108 38.7771H82.9198L82.8257 38.1182L82.4492 37.93L82.5433 37.4594L83.3904 36.4241L83.9551 36.0477L85.6492 35.4829L86.8727 35.2006V35.0124H87.061V34.8241L86.2139 35.0124L86.1198 34.6359L85.5551 34.4477L85.0845 34.0712L84.9904 33.5065L86.8727 34.0712L88.4727 34.2594L89.9786 34.1653L91.0139 33.7888L92.0492 33.0359L92.2374 32.8477Z" fill="#FEFEF1"/>
<path d="M34.1644 56.0938H34.3527V56.4702L33.5056 56.9408V57.129L32.0938 57.5996L31.9997 57.882L32.7527 57.9761V58.0702L32.0938 58.1643L32.4703 58.3526L32.3762 58.4467L32.6585 58.6349V59.1055L31.1527 59.2937L31.7174 59.9526L32.6585 60.329L32.7527 60.6114V62.9643L32.5644 63.3408V60.7996L32.4703 60.4232L30.9644 59.9526L30.4938 59.8585H28.1409L27.0115 60.2349L26.635 60.329V60.1408L27.1056 59.8585L27.2938 59.5761H27.4821L27.388 59.2937L26.635 59.0114V58.729H26.4468L26.3527 58.9173H26.0703L26.1644 58.6349L26.635 58.4467L26.4468 57.9761L26.1644 57.7879L26.5409 57.5996H28.7056L30.4938 57.4114L32.0938 56.9408L33.5997 56.3761L34.1644 56.0938Z" fill="#FEFFF1"/>
<path d="M79.2461 111.246H80.3755L80.752 112.093L81.7873 114.823V115.105H81.9755L82.0696 114.634L82.9167 112.376L83.3873 111.246H84.4226L84.5167 111.434V116.046L84.4226 116.14H83.7637L83.6696 116.046V112.376L83.0108 114.07L82.2579 116.046L81.7873 116.14L81.4108 115.952L80.0932 112.47L79.999 116.046L79.9049 116.14H79.2461V111.246Z" fill="#1C170D"/>
<path d="M1.88221 111.152L2.3528 111.341L3.29398 113.976L3.67045 114.917L3.76457 115.011L4.61162 112.752L5.17633 111.341L5.27045 111.246H6.30574V116.046L6.21162 116.141H5.5528L5.45868 112.47L4.70574 114.446L4.04692 116.046L3.3881 116.141L3.10574 115.67L2.07045 112.846L1.88221 112.376V116.046L1.7881 116.141H1.12927L1.03516 115.952V111.341L1.12927 111.246L1.88221 111.152Z" fill="#1B140C"/>
<path d="M23.8134 111.811H24.8487L25.6016 112.187L26.0722 112.752L26.1663 113.034V114.069L25.884 114.728L25.4134 115.199L24.7545 115.481H24.0016L23.3428 115.293L22.684 114.54L22.5898 114.258V112.94L22.9663 112.375L23.531 111.905L23.8134 111.811Z" fill="#FEFEFD"/>
<path d="M14.1186 111.059L15.1539 111.153L16.0009 111.529L16.4715 112L16.6597 112.376V112.753H16.095L15.5303 112.094L14.7774 111.812L13.7421 111.906L12.9892 112.376L12.7068 112.941V114.353L12.9892 114.823L13.5539 115.294L13.9303 115.388H14.9656L15.7186 115.106L16.0009 114.447V114.164H14.495L14.3068 113.976L14.4009 113.6L16.6597 113.506L16.848 113.694V115.2L16.3774 115.67L15.4362 116.047L15.0597 116.141H13.8362L12.8009 115.764L12.1421 115.2L11.7656 114.353V113.035L12.1421 112.094L12.895 111.435L13.5539 111.153L14.1186 111.059Z" fill="#1A130C"/>
<path d="M66.6367 72.2812L67.0132 72.3754L67.8602 73.4107L68.8955 74.5401L70.025 75.7636L70.7779 76.4224L72.0955 77.646L73.4132 78.6812L75.1073 79.9989L78.2132 82.0695L78.6838 82.3518V82.4459L77.9308 82.3518L76.0485 81.5989L73.6955 80.5636L72.1897 79.8107L70.4014 78.8695L70.4955 78.5871L70.9661 78.3048L71.1544 78.3989L71.3426 78.0224L71.4367 77.5518H71.2485V77.3636H71.0602L70.6838 76.7048L69.9308 75.9518L69.272 75.3871L68.6132 74.6342V74.446H68.425L67.7661 73.693L66.6367 72.3754V72.2812Z" fill="#4D1C10"/>
<path d="M35.7666 111.152H36.3313L36.8019 111.905L38.0255 114.541L38.5902 115.858L38.496 116.141H37.9313L37.649 115.858L37.1784 114.729H34.9196L34.449 116.046L34.3549 116.141H33.696L33.5078 116.046L33.696 115.482L34.9196 112.658L35.5784 111.246L35.7666 111.152Z" fill="#1B170D"/>
<path d="M105.884 111.152L106.449 111.246L107.578 112.658L108.896 114.446L109.084 114.729L109.178 111.246H109.931V116.046H109.178L108.707 115.576L107.672 114.164L106.825 113.035L106.449 112.47V115.952L106.355 116.046H105.602V111.905L105.696 111.246L105.884 111.152Z" fill="#17150C"/>
<path d="M23.6245 111.152H25.0363L25.9775 111.529L26.7304 112.376L26.9187 112.941V114.446L26.5422 115.199L25.8834 115.764L24.9422 116.141H23.8128L22.7775 115.764L22.1187 115.105L21.7422 114.164V113.223L22.1187 112.188L22.5892 111.623L23.3422 111.246L23.6245 111.152ZM23.8128 111.811L23.2481 112.094L22.6834 112.752L22.5892 112.941V114.258L22.8716 114.823L23.5304 115.388L24.001 115.482H24.7539L25.4128 115.199L25.8834 114.729L26.1657 114.07V113.035L25.8834 112.47L25.3187 111.999L24.8481 111.811H23.8128Z" fill="#18130C"/>
<path d="M85.5508 111.246H89.5978L89.5037 111.905H86.3037V113.223H89.3155L89.4096 113.787L89.3155 113.881H86.3037V115.387H89.5978L89.692 115.481V116.046L89.3155 116.14H85.739L85.5508 116.046V111.246Z" fill="#1D0F0B"/>
<path d="M59.3867 111.246H63.3397V111.905H60.1397V113.223H63.1514L63.2455 113.317V113.787L63.1514 113.881H60.1397V115.387H63.4338L63.5279 116.046L59.3867 116.14V111.246Z" fill="#1D110C"/>
<path d="M111.156 111.246H115.109L115.203 111.528L115.109 111.905H111.909V113.223H114.921L115.015 113.787L114.921 113.881H111.909V115.387H115.297L115.392 115.952L115.297 116.046H111.156V111.246Z" fill="#1E130C"/>
<path d="M79.8119 24H80.8472V24.0941L77.3649 24.8471L74.8237 25.6941L73.2237 26.4471L71.6237 27.5765L70.5884 28.5176L69.7414 29.8353L69.3649 30.7765L69.2708 30.4L68.9884 30.0235V29.8353L68.5178 29.9294L67.9531 30.1176V29.4588L68.1414 28.8L68.8002 28.2353L69.0825 27.9529L69.459 26.6353L69.8355 26.2588L71.3414 26.1647L71.2472 26.6353L70.9649 27.2941L72.0002 26.9176L73.3178 26.0706L73.7884 25.7882L73.8825 25.6L74.6355 25.2235L75.9531 24.9412H76.4237V24.7529L76.9884 24.5647L77.8355 24.4706L77.9296 24.2824H78.7766L79.1531 24.1882L79.8119 24Z" fill="#FEFEF1"/>
<path d="M117.742 111.059L118.683 111.153L119.436 111.529L120.001 112.188L120.095 112.564L120.001 112.659H119.436L119.059 112.188L118.495 111.906H117.365L116.895 112.282V112.753L117.553 113.035L119.248 113.412L119.812 113.788L120.189 114.259V115.012L119.812 115.576L119.059 116.047L118.683 116.141H117.459L116.612 115.859L116.142 115.482L115.859 114.917V114.353H116.424L116.895 115.106L117.648 115.388H118.683L119.248 115.106L119.342 114.447L118.965 114.164L116.706 113.6L116.236 113.223L116.048 112.847V112.188L116.236 111.717L116.895 111.247L117.742 111.059Z" fill="#1A140C"/>
<path d="M91.3867 111.906H93.3632L93.9279 112.283L94.3044 112.847L94.3985 113.883L94.2102 114.636L93.7397 115.2L93.175 115.389H91.3867V111.906Z" fill="#FEFEFD"/>
<path d="M65.0352 111.906H67.0116L67.5763 112.283L67.9528 112.847V114.259L67.5763 115.012L67.1999 115.294L66.9175 115.389H65.0352V111.906Z" fill="#FEFEFD"/>
<path d="M41.5054 96.377H42.823L43.6701 96.6593L44.0466 97.224V97.7887L43.6701 98.3534L43.3877 98.6358L43.9524 99.4828L44.3289 100.424V100.706L43.6701 100.612L42.823 98.9181L41.7877 98.7299V100.612L41.6936 100.706H41.223L41.1289 100.612V96.4711L41.5054 96.377Z" fill="#20190E"/>
<path d="M78.5911 40.2812H78.7793L78.6852 40.5636L78.1205 40.9401L76.3323 42.2577L74.7323 43.4812L73.2264 44.7048L71.9087 45.8342L70.4028 47.246L69.4617 48.1871H69.2734L69.4617 47.8107L70.1205 47.246L70.4028 46.493H70.5911L70.7793 46.1165L71.1558 45.646H71.344L71.5323 45.2695H71.7205V45.0812H71.9087V44.893H72.097V44.7048H72.2852V44.5165H72.4734V44.3283H72.6617L72.8499 43.9518H73.0381V43.4812L72.1911 43.5754L71.7205 43.7636L71.4381 43.6695L73.6028 42.5401L75.7675 41.5048L77.9323 40.5636L78.5911 40.2812Z" fill="#4E1B10"/>
<path d="M100.142 111.059L101.083 111.153L102.024 111.623L102.495 112.188V112.659L102.4 112.753H101.93L101.177 112L100.236 111.812L99.3887 112.094L98.9181 112.564L98.7299 113.129V114.07L99.1063 114.917L99.4828 115.294L99.8593 115.388H100.706L101.365 115.106L101.836 114.541L102.024 114.259H102.495L102.589 114.353L102.495 115.106L101.836 115.764L101.271 116.047L100.895 116.141H99.7652L99.0122 115.859L98.2593 115.2L97.8828 114.447V112.847L98.1652 112.188L98.6358 111.623L99.5769 111.153L100.142 111.059Z" fill="#19140C"/>
<path d="M74.0721 111.059L75.2015 111.247L75.8603 111.623L76.3309 112.282L76.2368 112.753H75.7662L75.0132 112L74.3544 111.812L73.6015 111.906L72.8485 112.376L72.5662 113.129V114.164L73.0368 115.106L73.6956 115.388H74.5426L75.2015 115.106L75.8603 114.259L76.425 114.353V114.917L75.7662 115.67L75.1074 116.047L74.7309 116.141H73.6015L72.7544 115.859L72.0956 115.2L71.7191 114.447L71.625 113.506L71.8132 112.47L72.3779 111.717L73.225 111.247L74.0721 111.059Z" fill="#19140C"/>
<path d="M43.7625 111.152L44.3272 111.246L44.4213 111.717V113.882L44.5154 114.823L44.986 115.294L45.3625 115.388H46.2095L46.7742 115.105L46.9625 114.917L47.0566 113.317V111.341L47.1507 111.246H47.9977L47.9036 114.823L47.5272 115.576L46.9625 115.952L46.3977 116.141H45.0801L44.233 115.764L43.7625 115.199L43.5742 114.352V111.341L43.7625 111.152Z" fill="#17140C"/>
<path d="M48.0965 96.377H48.7553L49.32 97.5064L50.4494 100.33V100.706H49.9788L49.6023 100.142L49.32 99.577H47.9082L47.3435 99.4828L47.0612 100.518L46.6847 100.706L46.4023 100.612L46.4965 100.048L47.5318 97.5064L48.0023 96.4711L48.0965 96.377Z" fill="#1C160D"/>
<path d="M86.0222 96.377H86.6811L87.0575 97.224L87.9987 99.3887L88.3752 100.33V100.706H87.8105L87.2458 99.577L85.2693 99.4828L84.9869 100.424L84.7046 100.706L84.3281 100.612L84.4222 99.9534L85.7399 96.7534L86.0222 96.377Z" fill="#1F190E"/>
<path d="M84.1406 55.4336L85.6465 56.1865L87.1524 56.8454L89.223 57.4101L89.8818 57.5042H93.0818L94.9641 57.1277L95.7171 57.0336L95.4347 57.2218L94.7759 57.5042L94.1171 57.5983L92.7053 57.7865H92.2347L92.3289 58.2571L92.1406 58.4454L92.423 58.8218L91.4818 58.6336L91.7641 58.9159L90.4465 58.7277H89.5053L88.3759 58.6336L88.0936 58.4454L88.1877 58.3512L87.9053 58.163L88.3759 58.0689L88.1877 57.9748H87.1524L87.2465 57.7865H87.5289V57.5983L87.0583 57.4101L85.4583 56.7512L84.6112 56.4689V56.1865L84.3289 56.0924L84.5171 55.7159L84.1406 55.6218V55.4336Z" fill="#FEFEF1"/>
<path d="M22.9656 96.377H23.7185L24.3773 97.3181L25.2244 98.7299L25.7891 99.577L25.8832 96.377H26.3538L26.4479 96.4711V100.048L26.3538 100.612L25.695 100.518L25.1303 99.8593L23.7185 97.6005L23.5303 97.3181L23.4362 100.706H22.8715L22.7773 100.612L22.8715 96.4711L22.9656 96.377Z" fill="#20180E"/>
<path d="M43.0116 85.1758H43.1999L43.7646 86.117L45.1763 88.2817V88.564H41.0352L41.1293 88.1875L42.1646 86.4934L43.0116 85.1758Z" fill="#FEFEFC"/>
<path d="M27.9535 111.246H31.6241L31.7182 111.434L31.53 111.905H28.7064L28.8006 113.223H31.0594L31.3417 113.505L31.2476 113.881H28.7064V116.14H27.9535L27.8594 116.046V111.34L27.9535 111.246Z" fill="#1C140C"/>
<path d="M53.9304 111.152L54.4951 111.246L54.9657 112.188L56.001 114.823L56.1892 115.199L57.601 111.717L57.8834 111.246L58.6363 111.152L58.5422 111.623L57.5069 114.07L56.8481 115.576L56.5657 116.046L56.1892 116.141L55.6245 115.952L54.5892 113.505L53.7422 111.529V111.246L53.9304 111.152Z" fill="#1A150C"/>
<path d="M7.43359 111.246H11.1983L11.1042 111.905H8.18653L8.28065 113.223H10.7277L10.8218 113.317V113.787L10.7277 113.881H8.18653L8.28065 116.046H7.43359V111.246Z" fill="#1B100B"/>
<path d="M38.0238 111.152L38.8709 111.246L39.6238 112.188L40.2826 113.129V113.317H40.565L40.7532 112.846L41.9767 111.341L42.6356 111.152H42.9179L42.7297 111.717L41.8826 112.658L41.2238 113.505L40.8473 113.976L40.7532 116.046L40.0944 116.141L40.0003 116.046L39.9062 114.07L39.3415 113.223L38.5885 112.282L37.9297 111.341L38.0238 111.152Z" fill="#1B140C"/>
<path d="M29.3636 96.377H29.9284L30.0225 96.4711V99.0122L30.2107 99.7652L30.7754 100.048H31.5284L31.9989 99.7652L32.1872 99.3887L32.2813 96.4711L32.7519 96.377L32.9401 96.4711V99.2946L32.7519 99.9534L32.0931 100.518L31.5284 100.706H30.7754L29.8342 100.33L29.4578 99.8593L29.2695 99.0122V97.3181L29.3636 96.377Z" fill="#1F1B0E"/>
<path d="M63.9066 96.377H64.3772L64.4713 98.824L64.6596 99.6711L64.9419 99.9534L65.2243 100.048H65.9772L66.5419 99.6711L66.636 99.3887L66.7301 96.4711L66.8243 96.377H67.389V99.577L67.0125 100.142L66.5419 100.518L65.4125 100.706L64.5654 100.518L64.0007 100.048L63.8125 99.4828V96.4711L63.9066 96.377Z" fill="#1D140C"/>
<path d="M59.108 96.377H61.1786L61.0845 96.8475L60.8022 96.9417H59.108V98.1652H60.8963L60.9904 98.4475L60.8963 98.6358H59.108V100.142H61.1786L61.0845 100.612H58.5433L58.4492 99.0122V96.4711L59.108 96.377Z" fill="#262310"/>
<path d="M53.9313 96.377H55.2489L56.0019 96.7534L56.096 97.1299L55.6254 97.224L55.0607 96.9417L54.1195 97.0358L53.5548 97.4122L53.3666 97.7887V99.1064L53.6489 99.6711L54.0254 99.9534L54.3078 100.048H54.9666L56.0019 99.7652L56.096 100.142L55.5313 100.518L54.6842 100.706L53.8372 100.612L53.0842 100.142L52.7078 99.6711L52.5195 99.1064V97.977L52.9901 97.0358L53.5548 96.5652L53.9313 96.377Z" fill="#1F170D"/>
<path d="M96.6582 96.2812L97.4112 96.3754L97.9759 96.7518V97.1283L97.4112 97.0342L97.2229 96.9401H96.47L96.0935 97.1283L95.9994 97.5048L96.3759 97.8812L97.6935 98.5401L98.07 98.9165L98.1641 99.6695L97.8818 100.14L97.4112 100.517L96.6582 100.705L95.8112 100.611L95.2465 100.328L95.1523 99.8577H95.5288L96.1876 100.046H96.9406L97.4112 99.7636L97.317 99.1048L95.8112 98.3518L95.3406 97.7871V97.0342L95.8112 96.5636L96.6582 96.2812Z" fill="#1F180D"/>
<path d="M80.377 96.377H81.4123L82.1652 96.6593L82.4476 97.0358V97.3181L81.6005 97.0358L80.6593 96.9417L79.9064 97.3181L79.624 97.977V99.0122L79.9064 99.6711L80.2829 99.9534L81.1299 100.048L82.0711 99.7652L82.4476 99.8593L82.2593 100.236L81.5064 100.612L80.6593 100.706L79.7182 100.424L79.0593 99.6711L78.8711 99.2946V97.8828L79.2476 97.0358L79.8123 96.5652L80.377 96.377Z" fill="#1D160D"/>
<path d="M40.2852 40.4688L41.1322 40.5629L43.5793 41.5982L45.2734 42.3511L46.3087 42.8217L46.2146 43.0099L45.4616 42.9158L45.2734 43.0099L44.8969 42.9158L44.6146 43.104L44.8028 43.3864L45.1793 43.5746L45.5557 44.2335L46.0263 44.704H45.744L44.4263 43.5746L42.8263 42.3511L41.3204 41.2217L40.2852 40.5629V40.4688Z" fill="#4E1E11"/>
<path d="M70.3988 54.6816H72.94L75.1988 55.0581L76.6106 55.6228L76.7988 55.8111L76.3283 55.7169L75.0106 55.2463L73.5047 54.964H70.493L68.893 55.2463L68.0459 55.5287L67.7636 56.3758L67.5753 57.7875V60.9875L67.9518 62.7758L68.5165 64.1875L69.3636 65.5993L70.6812 66.9169H70.3988L69.5518 66.0699L69.0812 65.7875V65.5993H68.7988V65.411L68.5165 65.3169L68.2341 64.8463L67.7636 63.5287L67.6694 63.4346L67.4812 62.3993L67.3871 62.0228L67.293 61.0816V58.3522L67.3871 56.8463L67.7636 55.3405L68.14 55.0581L69.3636 54.7758L70.3988 54.6816Z" fill="#FEFFF1"/>
<path d="M87.8111 83.2012H90.6346L92.517 83.2953L92.8935 83.4835V85.0835L92.7052 85.1776H84.7994V86.6835L88.9405 86.5894L89.5052 86.7776V88.3776L89.4111 88.4718H84.8935V88.3776H89.317L89.4111 86.8718L84.7052 86.7776V85.0835L90.4464 84.9894H92.7052L92.7993 83.5776H82.2582L82.1641 83.7659V83.4835L83.0111 83.2953L87.8111 83.2012Z" fill="#FEFFF1"/>
<path d="M45.2723 78.7754L45.5546 78.8695L45.4605 79.246L44.9899 79.8107H44.7076V79.9989L44.1429 80.3754H44.4252L46.1193 79.8107L46.7782 79.7166L46.684 79.9989L43.9546 81.2224L41.5076 82.1636L40.5664 82.446V82.2577L42.2605 81.1283L43.6723 79.9989L44.5193 79.3401L45.2723 78.7754Z" fill="#502011"/>
<path d="M35.1996 96.377H38.5878L38.9643 96.4711L38.8702 96.8475L38.5878 96.9417L37.4584 97.0358L37.3643 100.612L36.9878 100.706L36.7055 100.612V96.9417H35.3878L35.1055 96.7534L35.1996 96.377Z" fill="#1A0C0A"/>
<path d="M70.0253 96.377H73.1312L73.3194 96.4711V96.8475L73.037 96.9417H71.8135V100.612H71.1547V96.9417H70.0253L69.6488 96.8475L69.5547 96.5652L70.0253 96.377Z" fill="#1E180D"/>
<path d="M41.0382 54.4004L41.5088 54.4945L41.8853 54.6827H43.1088L43.9559 54.5886H45.0853L47.4382 54.7769L48.5676 55.0592L49.1323 55.3416L49.4147 55.8122L49.6971 57.318L49.7912 58.5416V60.0474L49.6029 61.5533L49.3206 62.7769L49.1323 62.9651L49.5088 60.8945V58.071L49.4147 56.8474L49.0382 55.5298L47.0618 55.0592L46.4029 54.9651H43.7676L42.0735 55.2474L40.4735 55.8122L39.4382 56.3769L39.25 56.2827L40.3794 55.4357H40.6618L40.85 54.5886L41.0382 54.4004Z" fill="#FEFFF1"/>
<path d="M103.715 111.246H104.468V116.046L104.374 116.14H103.715L103.621 116.046V111.34L103.715 111.246Z" fill="#20150D"/>
<path d="M69.9301 111.246H70.683V116.14H70.0242L69.8359 116.046V111.34L69.9301 111.246Z" fill="#1D190E"/>
<path d="M96.0941 111.246H96.8471L96.9412 111.623V116.046L96.8471 116.14L96 116.046V111.34L96.0941 111.246Z" fill="#14120B"/>
<path d="M49.7855 111.811H51.5738L52.2326 111.999L52.5149 112.375L52.4208 112.94L52.0443 113.222L51.4796 113.316H49.7855L49.6914 113.222V111.905L49.7855 111.811Z" fill="#FEFEFC"/>
<path d="M90.8246 96.377H91.3893L91.4834 96.4711V99.7652L91.3893 100.048H93.2716L93.3658 100.424L93.0834 100.612H90.9187L90.8246 100.518L90.7305 96.4711L90.8246 96.377Z" fill="#232210"/>
<path d="M26.9174 35.5762L29.7409 35.6703L31.5291 36.0468L32.3762 36.235L32.9409 36.5173L33.788 36.4232L33.9762 36.235L34.3527 36.3291L34.7291 37.1762V37.3644L35.1997 37.4585L35.5762 37.6468L36.4232 38.0232L36.7056 38.3997V38.6821L37.3644 38.8703L37.9291 39.6232L38.3997 40.2821L38.0232 40.0938L37.3644 39.435L35.8585 38.3056L34.0703 37.2703L32.4703 36.6115L30.8703 36.1409L29.835 35.9526L28.0468 35.8585L26.0703 35.9526L26.4468 35.7644L26.9174 35.5762Z" fill="#FEFFF1"/>
<path d="M44.0448 68.4238L44.2331 68.5179L44.0448 68.8003L43.6684 68.8944L43.1978 69.365L41.9743 69.9297L40.6566 70.1179L40.3743 70.3062L39.4331 70.4944L38.586 70.7768L37.6448 70.8709L37.3625 71.0591L35.7625 71.2474L35.1978 71.4356H34.4449L33.9743 71.5297L32.5625 71.6238L32.7507 70.2121L32.939 69.9297L32.8449 71.4356L35.386 71.0591L38.2096 70.4944L40.3743 69.9297L42.2566 69.2709L44.0448 68.4238Z" fill="#FEFEF1"/>
<path d="M49.7852 25.0352L49.9734 25.3175L50.6322 27.1057L51.6675 28.9881L52.7969 30.5881L52.9852 30.8704L52.1381 30.9646L51.8557 31.0587L51.5734 30.7763V30.1175L51.1028 29.3646L50.8204 28.2352H50.6322L50.2557 27.3881V26.7293L49.7852 25.4116V25.0352Z" fill="#FEFEF1"/>
<path d="M75.6722 96.377H76.2369L76.3311 96.7534L76.2369 100.612L75.6722 100.706L75.5781 100.612V96.4711L75.6722 96.377Z" fill="#1F110C"/>
<path d="M31.8145 32.377V32.6593H31.5322V32.9417L30.8733 33.3181L29.1792 33.8828H28.8969L28.991 34.2593L28.6145 34.3534L27.9557 34.1652L28.0498 33.8828L27.5792 33.6946L27.4851 33.4122L27.6733 33.3181L27.2969 33.1299L29.838 33.0358L31.438 32.5652L31.8145 32.377Z" fill="#FEFEF1"/>
<path d="M87.0587 58.543H87.4352L87.5293 59.1077H87.7176L87.9058 59.2959L88.094 59.2018L89.0352 59.1077L89.5058 59.2959L89.2234 59.39L89.694 59.5783L90.6352 59.7665L91.3881 60.143L91.4823 60.4253L90.9176 60.2371L90.2587 59.9547L89.0352 59.7665H87.9058L86.5881 60.0488L86.0234 60.143L86.3999 59.9547V59.0136L86.7764 58.6371L87.0587 58.543Z" fill="#FEFFF1"/>
<path d="M36.235 59.2949L36.5174 59.389L35.388 61.5537L34.4468 64.0008L34.2585 63.7184L34.0703 63.342L34.1644 62.589L34.4468 62.1184H34.635L34.8233 61.4596L35.1056 61.0832L35.388 60.4243L35.7644 59.6714L36.235 59.2949Z" fill="#FEFFF1"/>
<path d="M96.1875 83.4824H96.2816V91.953H100.987L105.411 92.0471V92.1412H99.9522L96.4699 92.2354L96.1875 92.0471V83.4824Z" fill="#FEFFF1"/>
<path d="M54.4926 42.1641H54.5867L54.7749 43.5758L55.2455 44.8935L55.5278 45.3641L55.7161 45.4582V45.6464H55.9043L56.2808 46.0229L56.469 46.4935L56.7514 46.9641L56.2808 46.8699L55.3396 45.9288L54.5867 44.7052L54.3984 44.0464V42.3523L54.4926 42.1641Z" fill="#501E11"/>
<path d="M41.7891 96.9414H43.0126L43.3891 97.3179L43.2949 97.9767L42.8244 98.2591H41.7891V96.9414Z" fill="#FEFEFC"/>
<path d="M68.2374 26.7305L68.3315 27.0128L67.955 28.7069L67.6727 29.1775L67.1079 29.6481L66.4491 30.5893L66.0727 30.8716H65.8844L65.6962 31.2481L64.9432 32.0952H64.755L64.6609 32.3775L64.4727 32.2834L65.1315 31.5305L66.2609 30.2128L67.2021 28.8011L67.955 27.3893L68.2374 26.7305Z" fill="#FEFFF1"/>
<path d="M78.2117 49.4102L78.6823 49.8807L79.8117 51.3866L80.847 52.6102L80.5646 52.7043L79.4352 52.1396L79.1528 51.4807L78.494 50.6337L78.1176 49.9749L78.0234 49.6925L78.2117 49.4102Z" fill="#FEFFF1"/>
<path d="M40.5635 50.3535L40.7517 50.4476V50.6359H40.5635L40.4694 51.3888L40.5635 52.4241L40.2812 52.5182L39.6223 52.4241L38.8694 52.8006L38.4929 53.0829L38.3047 52.9888L39.34 51.8594L40.2812 50.73L40.5635 50.3535Z" fill="#FEFFF1"/>
<path d="M35.9522 112L36.1404 112.094L36.611 113.224L36.8933 113.976H35.1992L35.3875 113.412L35.858 112.094L35.9522 112Z" fill="#FEFEFC"/>
<path d="M48.3779 97.0352L48.5662 97.1293L49.1309 98.7293V99.0116H47.625L47.7191 98.541L48.2838 97.1293L48.3779 97.0352Z" fill="#FEFEFC"/>
<path d="M79.0583 34.918L79.1524 35.2003L78.7759 35.765L78.87 36.1415V36.8003L78.6818 37.0827L78.3053 36.9886L78.1171 36.8003L77.27 36.8944L76.6112 37.1768H76.1406L76.5171 36.8944L77.6465 36.2356L78.5877 35.4827L79.0583 34.918Z" fill="#FEFFF1"/>
<path d="M86.2096 97.0352H86.3978L87.0567 98.7293V99.0116H85.5508L85.6449 98.4469L86.1155 97.3175L86.2096 97.0352Z" fill="#FEFEFC"/>
<path d="M84.707 88.375H84.8011V90.2574L87.3423 90.0691L92.2364 90.1632L92.8953 90.2574V90.3515H84.707V88.375Z" fill="#FEFFF1"/>
<path d="M80.8462 24H81.505V24.0941L78.8697 24.6588L76.1403 25.4118L74.1638 26.1647L73.5991 26.4471L73.2227 26.3529L75.2932 25.4118L77.7403 24.6588L80.8462 24Z" fill="#6B9731"/>
<path d="M74.5391 69.2695L75.0097 69.3636L77.9273 70.3048L80.4685 70.8695L83.3861 71.3401L84.3273 71.4342V70.9636H84.4214V71.5284H83.1038L80.2802 71.0578L78.3979 70.6813L77.7391 70.5872L76.0449 69.9284L74.5391 69.3636V69.2695Z" fill="#FEFFF1"/>
<path d="M55.6211 33.5059L55.9976 33.6941L57.5034 34.8235L58.727 35.5764L59.1976 35.8588H59.8564L60.6093 35.3882L60.7976 35.4823L59.9505 36.047L59.3858 36.1412L58.727 35.8588H58.4446H57.974L57.0329 34.9176V34.7294L56.5623 34.6353L55.9034 33.8823L55.6211 33.6941V33.5059Z" fill="#FEFFF1"/>
<path d="M34.1648 56.0938H34.3531V56.4702L33.506 56.9408V57.129L32.5648 57.4114H31.906L30.9648 57.7879L31.059 57.5055L31.8119 57.129L32.659 56.7526L34.1648 56.0938Z" fill="#FEFEF1"/>
<path d="M40.8469 49.7891V50.0714L39.5292 51.7655L38.6822 52.6126L38.0233 53.3655L37.2704 54.0244L36.2351 54.8714L36.0469 54.7773L36.9881 53.9302L37.5528 53.2714L38.3057 52.6126L39.2469 51.7655L39.9998 50.8244L40.8469 49.7891Z" fill="#6B9730"/>
<path d="M65.791 52.4219L65.8852 52.7042L65.0381 54.116L64.4734 55.2454H64.2852L64.3793 54.3042L64.7557 53.3631H64.944V53.0807H65.1322L65.2263 52.8925L65.5087 52.7983L65.6028 52.516L65.791 52.4219Z" fill="#522412"/>
<path d="M78.5912 40.2812H78.7795L78.6853 40.5636L78.1206 40.9401L76.803 41.8812L76.2383 41.693V41.3165L78.1206 40.4695L78.5912 40.2812Z" fill="#281E0F"/>
<path d="M35.1992 96.377H38.5875L38.9639 96.4711L38.8698 96.8475L38.5875 96.9417L37.3639 97.0358V96.8475L36.8933 96.6593V96.5652L35.1992 96.4711V96.377Z" fill="#38130D"/>
<path d="M61.082 38.0234L61.9291 38.3058L63.0585 39.1528L63.7173 39.9999L64.0938 40.6587V41.2234H63.9056L63.5291 40.3764L62.9644 39.6234L62.4938 39.0587L61.7409 38.494L61.082 38.2117V38.0234Z" fill="#532914"/>
<path d="M53.0824 47.4355L53.4589 47.6238L54.8706 48.9414L56.3765 50.4473L56.5647 50.9179L55.9059 50.3532L55.3412 49.8826L54.8706 49.3179L54.1177 48.6591V48.4708L53.7412 48.2826L52.9883 47.6238L53.0824 47.4355Z" fill="#543216"/>
<path d="M66.6367 72.2812L67.0132 72.3754L67.8602 73.4107L68.8955 74.5401L70.025 75.7636L70.6838 76.3283L70.4955 76.5165L69.6485 75.7636L69.1779 75.1989L68.7073 74.7283L68.6132 74.446H68.425L67.7661 73.693L66.6367 72.3754V72.2812Z" fill="#523216"/>
<path d="M37.6471 55.2461H38.4942L38.5883 55.6226L38.2118 55.999L36.9883 56.1873L37.0824 55.6226L37.3648 55.3402L37.6471 55.2461Z" fill="#FEFFF1"/>
<path d="M36.6133 32.9414L36.8956 33.2238L37.8368 34.7296L38.778 35.7649L39.7192 36.4238L39.4368 36.5179L38.4956 35.8591L37.9309 35.4826L37.5545 34.9179L37.2721 34.5414L36.9898 33.7885L36.6133 33.1296V32.9414Z" fill="#FEFFF1"/>
<path d="M42.7311 81.0352V81.3175L42.9193 81.4116V81.5999L40.7546 82.4469H40.5664V82.2587L42.2605 81.1293L42.7311 81.0352Z" fill="#2F2311"/>
<path d="M81.5976 30.0234H81.6917V30.6823L81.4093 31.5293L80.5623 33.2234H80.374L80.0917 34.0705L79.6211 34.3528L79.8093 33.8823L80.4682 32.7528L81.4093 30.5881L81.5976 30.0234Z" fill="#FEFFF1"/>
<path d="M73.7874 13.3633L74.1638 13.5515V13.7398H73.8815L74.2579 13.8339L74.9168 13.7398L73.505 14.8692L73.2227 15.0574L73.3168 14.5868H73.505L73.4109 14.3045H73.5991L73.3168 13.8339L73.505 13.4574L73.7874 13.3633Z" fill="#FEFFF1"/>
<path d="M36.9908 54.2109V54.4933L36.0496 55.5286L35.579 55.7168L34.8261 56.0933H34.3555L34.6378 55.8109L35.9555 54.9639L36.9908 54.2109Z" fill="#FEFFF1"/>
<path d="M40.2852 40.4688L41.1322 40.5629L42.4499 41.1276L42.2616 41.6923L41.6969 41.504L40.2852 40.5629V40.4688Z" fill="#1C160D"/>
<path d="M65.8795 30.4941V30.7765L64.75 32L63.3383 33.4118L62.0206 34.4471H61.7383L63.0559 33.3177L63.5265 32.8471H63.7148L63.8089 32.5647L64.5618 31.9059L65.6912 30.6824L65.8795 30.4941Z" fill="#6B9731"/>
<path d="M47.717 37.1758L47.9052 37.2699L47.2464 37.5523L46.3994 37.7405L45.7405 37.9287H44.3288L42.4464 37.7405L42.1641 37.5523L43.9523 37.6464H45.3641L46.7758 37.4581L47.717 37.1758Z" fill="#FEFFF1"/>
<path d="M23.1523 36.5176H23.6229L23.3405 36.7058L21.2699 37.4588L19.5758 38.2117L18.3523 38.8705L18.1641 38.7764L19.0111 38.2117L19.7641 37.8352L20.9876 37.3646L21.5523 37.0823L23.1523 36.5176Z" fill="#FEFFF1"/>
<path d="M57.2228 1.69531L57.5051 1.97767L56.2816 3.7659L56.1875 3.38943L56.3757 2.73061L56.7522 2.26002V1.97767L57.2228 1.69531Z" fill="#FEFEF1"/>
<path d="M78.117 43.1055L78.5875 43.1996L78.3993 43.6702L77.4581 45.0819L77.1758 45.3643V44.5172L77.364 44.1408L77.7405 44.0466L77.9287 44.1408L78.0228 43.2937L78.117 43.1055Z" fill="#FEFFF1"/>
<path d="M46.7755 66.6348V66.9171L46.4932 67.1054L46.5873 67.2936L45.9285 67.7642L45.6461 68.0465L44.9873 68.3289L44.6108 68.5171L44.2344 68.3289L45.6461 67.4818L46.7755 66.6348Z" fill="#FEFEF1"/>
<path d="M80.1865 17.5996L80.3748 17.7878V18.729L79.9983 19.1055L79.4336 19.1996L79.6218 18.729L80.1865 17.5996Z" fill="#FEFFF1"/>
<path d="M47.5316 98.8242L47.6257 99.0125H49.1316L49.2257 98.8242L49.3199 99.483L47.9081 99.5772L47.4375 99.483V99.3889L48.3787 99.2948V99.2007H47.6257L47.4375 99.2948L47.5316 98.8242Z" fill="#4F2312"/>
<path d="M42.5391 45.6465L43.1979 46.2112L43.5744 46.4935L43.4802 47.0582L43.1038 47.1524L42.7273 47.0582L42.8214 46.2112L42.5391 45.8347V45.6465Z" fill="#FEFFF1"/>
<path d="M18.1655 115.199L18.7302 115.387V116.046H17.9773L17.7891 115.67L17.9773 115.293L18.1655 115.199Z" fill="#291B0F"/>
<path d="M62.7742 83.2949H65.1271L65.5036 83.5773L65.4095 83.8596L65.3153 83.6714L64.9389 83.5773L62.7742 83.4832L62.8683 83.9537L62.5859 83.6714V83.389L62.7742 83.2949Z" fill="#FEFFF1"/>
<path d="M60.1406 70.6836L60.423 70.7777V70.9659H60.6112L60.9877 71.4365L61.4583 71.9071L61.8347 72.1895L62.023 72.6601L61.6465 72.4718L60.1406 70.9659V70.6836Z" fill="#551F11"/>
<path d="M35.9522 96.6582H36.7992V99.1994H36.7051V96.9406H35.3875L35.1992 96.7523L35.9522 96.6582Z" fill="#5E4B1D"/>
<path d="M63.8095 44.9883L63.9036 45.2706L63.1506 46.3059L62.6801 46.6824L62.5859 46.4942L62.8683 46.0236H63.0565V45.7412H63.2448L63.433 45.3648L63.8095 44.9883Z" fill="#532D15"/>
<path d="M35.1992 96.377H38.5875L38.9639 96.4711L38.8698 96.8475L38.5875 96.9417H37.9286V96.8475L38.4933 96.7534V96.5652L35.1992 96.4711V96.377Z" fill="#647B29"/>
<path d="M75.5776 37.2695H75.8599V37.4578L74.4482 37.8342H71.7188V37.7401L73.7893 37.646L75.2952 37.3636L75.5776 37.2695Z" fill="#FEFFF1"/>
<path d="M39.9062 40.7539L40.2827 40.9421L40.8474 41.601L40.5651 41.7892H40.0945L40.0004 41.5068V41.2245L39.9062 40.7539Z" fill="#FEFEF1"/>
<path d="M55.6211 59.7656H55.8093L55.9034 60.5186V61.7421L55.8093 62.495H55.7152L55.6211 60.9892V59.7656Z" fill="#50160F"/>
<path d="M53.1796 75.8574H53.3678V76.0457L51.7678 77.1751L51.2031 77.4574L51.3914 77.081L52.8031 76.1398L53.1796 75.8574Z" fill="#552E15"/>
<path d="M66.6367 72.2812L67.0132 72.3754L67.8602 73.4107L68.5191 74.1636H68.2367L67.5779 73.5048L66.7308 72.4695L66.6367 72.2812Z" fill="#542C15"/>
<path d="M34.1659 64.2812L34.26 64.5636L33.9777 65.5989L33.8835 65.4107L33.6953 65.3165V64.5636L34.1659 64.2812Z" fill="#FEFFF1"/>
<path d="M98.1658 56.0938L98.4482 56.1879L97.4129 56.6585L96.3776 56.9408L95.907 57.129L95.7188 56.9408L98.1658 56.0938Z" fill="#FEFFF1"/>
<path d="M78.6812 40.1875H78.8694V41.1287L78.7753 41.5051H78.4929L78.3047 40.6581L78.6812 40.4699V40.1875Z" fill="#FEFEF1"/>
<path d="M77.364 81.7871L78.0228 81.9753L78.6817 82.3518V82.4459L77.9287 82.3518L77.1758 82.0695L77.364 81.9753V81.7871Z" fill="#533517"/>
<path d="M68.7031 16.9414H69.1737L69.3619 17.2238L69.1737 17.6002H68.9855V18.1649H68.8914L68.7031 17.3179V16.9414Z" fill="#FEFFF1"/>
<path d="M79.3422 34.4453V34.7277L78.3069 35.8571L77.9304 36.1394L77.7422 36.0453L79.3422 34.4453Z" fill="#6B9731"/>
<path d="M69.6488 96.4707L69.837 96.5648L69.7429 96.7531L71.0606 96.6589L71.1547 96.9413H70.0253L69.6488 96.8472L69.5547 96.5648L69.6488 96.4707Z" fill="#583C19"/>
<path d="M58.0718 37.8359H60.1424V37.9301L58.3541 38.1183L57.6953 38.0242L58.0718 37.8359Z" fill="#512212"/>
<path d="M100.422 55.1523L100.704 55.2465L99.763 55.717L98.8218 56.0935L98.4453 55.9994L100.422 55.1523Z" fill="#FEFFF1"/>
<path d="M55.4362 39.5293H55.6244L55.5303 39.9058L54.8715 41.0352L54.7773 40.7528L55.0597 39.9999L55.4362 39.5293Z" fill="#522613"/>
<path d="M33.7905 65.5996L33.8847 65.9761L33.6023 67.1996H33.5082L33.4141 66.4467L33.5082 65.7878L33.7905 65.5996Z" fill="#FEFFF1"/>
<path d="M46.1172 44.8008L46.6819 45.1773L46.776 45.3655L47.2466 45.5537L47.3407 45.9302L46.9642 45.8361L46.1172 44.989V44.8008Z" fill="#552E15"/>
<path d="M40.2852 40.4688L41.1322 40.5629L41.9793 40.9393L41.6969 41.1276L41.2263 40.8452L40.8499 40.9393L40.2852 40.5629V40.4688Z" fill="#58461B"/>
<path d="M32.1884 57.0352L32.4707 57.2234H32.2825V57.4116L31.7178 57.5057L30.9648 57.7881L31.059 57.5057L31.8119 57.1293L32.1884 57.0352Z" fill="#FEFEFE"/>
<path d="M75.0098 21.7402H75.7627V21.8344L75.1039 22.0226L73.5039 21.9285V21.8344L75.0098 21.7402Z" fill="#FEFFF1"/>
<path d="M55.9979 3.19922H56.092V3.66981V4.04628L55.8097 4.32863L55.5273 4.23451L55.6215 3.95216H55.8097L55.9979 3.19922Z" fill="#FEFEF1"/>
<path d="M65.8832 70.9648L66.2597 71.4354L66.7302 72.0943H66.4479L65.8832 71.4354L65.7891 71.1531L65.8832 70.9648Z" fill="#562E15"/>
<path d="M48.375 46.9648L48.7515 47.1531L49.4103 47.8119V48.0001L49.0338 47.8119L48.375 47.1531V46.9648Z" fill="#562F15"/>
<path d="M41.9769 96.6582H42.824V96.8464L43.0122 96.9406H41.8828L41.9769 96.6582Z" fill="#573517"/>
<path d="M47.7195 99.1055H48.6607L48.4724 99.3878H47.5312L47.7195 99.1055Z" fill="#0A0809"/>
<path d="M55.1534 64.9414L55.3417 65.2238V65.7885L55.2476 65.9767H55.0593V66.1649L54.8711 66.0708L55.1534 64.9414Z" fill="#593617"/>
<path d="M82.1674 39.1523L82.4497 39.2465L81.5085 40.0935L81.3203 39.9994L81.885 39.3406L82.1674 39.1523Z" fill="#FEFFF1"/>
<path d="M76.4244 21.459H76.8009L76.7068 21.7413L76.2362 21.9296L75.7656 21.7413L76.1421 21.5531L76.4244 21.459Z" fill="#FEFEF1"/>
<path d="M76.6133 81.3184H77.0839L77.7427 81.7889L77.6486 81.9772L76.6133 81.4125V81.3184Z" fill="#271B0F"/>
<path d="M57.0391 51.4824L57.3214 51.5765L57.9802 52.4236L57.792 52.6118L57.1332 51.7648L57.0391 51.4824Z" fill="#543316"/>
</svg>
