<svg width="92" height="100" viewBox="0 0 92 100" fill="none" xmlns="http://www.w3.org/2000/svg">
<path d="M67.7368 0H68.0583L68.2727 2.78671L68.7014 5.89496L69.3445 8.89603L70.0947 11.5756L70.9522 14.0407L72.1312 16.8274L73.0958 18.8639L74.2748 21.0075L75.6682 23.2583L78.2405 26.9025L79.4195 28.2958L80.3841 29.3676L81.2416 30.4394L82.7421 32.0472L83.8139 33.119L84.6714 33.8692L85.7432 34.8339L86.6006 35.5841L88.2084 36.8703L90.2448 38.3708L91.3166 39.1211L91.6382 39.4427L87.994 39.5498H0.105469L0.427012 39.3355L3.64245 38.478L6.10761 37.9421L9.10868 37.1919L11.681 36.4416L17.1473 34.7267L20.4699 33.5477L24.2212 32.0472L27.2223 30.761L30.1162 29.4748L34.1891 27.4384L36.6542 26.045L38.7979 24.866L41.1558 23.4727L43.5138 21.9721L47.2652 19.3998L49.0872 18.1136L50.2662 17.149L51.1237 16.5059L52.517 15.3269L54.0176 14.1479L54.5535 13.612L55.7325 12.6474L56.8043 11.6827L57.6617 10.9325L58.6264 9.96784L59.4838 9.21758L59.9125 8.68167H60.1269L60.3413 8.25295H60.5556L60.77 7.82422L61.3059 7.3955L62.0562 6.53805L62.5921 6.10932L63.3423 5.25188L64.307 4.18006L65.2716 3.00107L66.665 1.39335L67.4152 0.428725L67.7368 0Z" fill="#D9291F"/>
<path d="M0 60.3438H91.4255L91.104 60.5581L88.9603 60.9868L88.4244 61.2012L85.209 61.9515L81.8864 62.8089L77.5991 64.0951L74.8124 64.9525L70.0965 66.6674L67.0954 67.8464L64.9518 68.7039L63.4512 69.4541L61.2004 70.4188L59.4855 71.2762L57.0204 72.5624L54.6624 73.8486L52.6259 75.0276L50.911 76.0994L48.6602 77.4927L45.4448 79.6364L43.3012 81.1369L41.6935 82.3159L40.7288 83.0662L37.1919 85.96L36.0129 87.0319L34.8339 87.9965L33.9764 88.7468L32.0472 90.676L31.2969 91.3191L30.5466 92.1765L28.403 94.3202L28.2958 94.5345H28.0815L27.8671 94.9633L26.9025 95.9279L25.7235 97.4284L24.7588 98.5002L23.7942 99.7864L23.5798 100.001L22.8296 94.1058L22.1865 90.9976L21.2219 87.6749L20.2572 84.9954L18.9711 82.2087L18.1136 80.3866L16.8274 78.1358L14.8982 75.2419L13.8264 73.7414L12.7546 72.348L11.7899 71.169L10.5038 69.6685L8.78885 67.8464L7.71704 66.7746L6.85959 66.0244L5.78778 65.0597L3.4298 63.1305L2.03644 62.0586L0.535906 60.9868L0 60.5581V60.3438Z" fill="#D9291F"/>
<path d="M64.739 43.4082H70.2052L70.5268 43.5154L71.3842 45.659L72.7776 48.8744L74.814 53.6976L75.993 56.3771L76.5289 57.6633V57.9848H58.0938L58.2009 57.4489L59.1656 55.3053L59.9158 53.6976L61.4164 50.375L61.9523 49.0888H66.8826L66.6682 50.0534L65.5964 52.8401L64.9533 54.4479H69.7765L68.5975 51.9827L67.3113 49.3032L66.0252 46.7308L64.6318 43.7297L64.739 43.4082Z" fill="#211414"/>
<path d="M18.7568 43.4082H24.2231L26.9026 43.5154L29.2606 43.8369L30.7611 44.48L31.8329 45.4446L32.2617 46.0877L32.476 47.0524V47.9098L32.1545 48.8744L31.5114 49.7319L30.9755 50.1606L29.9037 50.6965L28.8319 51.0181L30.0109 51.3396L30.8683 51.9827L31.4042 52.8401L31.6186 53.912V57.0202L31.5114 57.9848L31.297 58.092H26.3667L26.1523 57.8777L26.0452 54.0191L25.7236 53.2689L25.1877 52.8401L24.8662 52.733L23.2585 52.6258L18.4353 52.5186L18.3281 52.4114V49.0888L24.5446 48.9816L26.1523 48.8744L26.7954 48.3385L26.6883 47.5883L26.3667 47.2667L26.0452 47.1595L20.2574 47.0524H18.864L18.3281 46.9452V43.5154L18.7568 43.4082Z" fill="#221514"/>
<path d="M51.3411 43.5156H57.4505L57.3433 43.8372L57.2361 46.9454L50.9124 47.1598L49.5191 47.5885L48.4472 48.2316L47.697 49.089L47.2682 50.0537V51.6614L47.8042 52.8404L48.2329 53.3763L49.3047 54.1266L50.3765 54.5553L51.234 54.7696H53.4848L54.8781 54.4481L56.0571 53.805L57.1289 52.9476H57.2361V57.0204L57.0217 57.4492L54.7709 58.0923L54.235 58.1994L52.7345 58.3066H50.9124L48.9831 58.0923L46.8395 57.4492L45.1246 56.5917L44.16 55.9486L43.0882 54.984L42.3379 53.9122L41.802 52.7332L41.5876 52.0901L41.4805 50.5896L41.802 49.089L42.3379 47.8029L43.0882 46.8382L44.16 45.7664L45.6605 44.8018L46.9467 44.2659L48.4472 43.8372L51.3411 43.5156Z" fill="#201414"/>
<path d="M5.46656 49.0898H10.8256L10.9328 53.2699L11.1472 53.913L11.7902 54.3417L16.6134 54.4489V57.3428L16.5062 57.9859H10.3969L8.89635 57.7715L7.71736 57.3428L6.53837 56.5925L5.7881 55.5207L5.46656 54.5561L5.35938 52.9484V49.197L5.46656 49.0898Z" fill="#231514"/>
<path d="M77.9219 49.0898H83.2809L83.3881 53.3771L83.6025 53.913L84.1384 54.3417L88.8544 54.4489L89.0687 54.5561V57.9859H83.0666L81.2445 57.7715L80.2799 57.3428L79.3152 56.6997L78.565 56.0566L78.0291 54.8776L77.9219 54.4489V49.0898Z" fill="#221514"/>
<path d="M34.1914 49.0898H39.5505L39.6576 49.3042L39.5505 57.9859H34.2986L34.1914 57.8787V49.0898Z" fill="#211414"/>
<path d="M77.062 43.4082H86.9227L89.7094 43.5154V45.2303L89.6022 46.9452H76.9548L76.8477 46.6236L76.9548 43.5154L77.062 43.4082Z" fill="#1F1414"/>
<path d="M7.60825 43.4082H17.1474L17.2546 43.5154V45.3375L17.1474 46.9452H4.5V43.5154L7.60825 43.4082Z" fill="#1F1414"/>
<path d="M51.3416 49.0898H57.2365V52.5196H51.2344V49.197L51.3416 49.0898Z" fill="#241514"/>
<path d="M38.3715 43.4082H39.4433L39.6576 43.5154V45.659L39.5505 46.9452L37.0853 47.0524H34.6201L34.1914 46.9452V43.5154L38.3715 43.4082Z" fill="#201414"/>
</svg>
