<svg width="249" height="100" viewBox="0 0 249 100" fill="none" xmlns="http://www.w3.org/2000/svg">
<path d="M1.1782 11.1934H21.3549L24.0059 11.4879L25.7732 12.077L28.1296 13.2552L29.7496 14.5807L31.2224 16.2007L32.9897 18.7044L34.1679 20.7663L35.3461 23.4172L36.377 26.9518L36.9661 30.1919L37.1134 31.8119V40.943L36.6716 44.3303L35.7879 48.454L34.6097 51.9886L32.8424 55.6705L30.7806 58.7633L29.4551 60.2361L27.9823 61.5615L26.0677 62.7397L23.8586 63.6234L22.6804 63.918L21.3549 64.0652L10.6038 64.2125L0 64.0652V11.3406L1.1782 11.1934Z" fill="#0E3656"/>
<path d="M97.0535 10.8984H105.301V29.6024L105.743 29.4551L106.774 27.3933L108.099 25.9205L109.572 24.8896L111.045 24.1532L112.959 23.5641H116.494L118.261 24.0059L120.765 25.1842L122.679 26.6569L123.858 27.9824L124.741 29.4551L125.625 31.6643L126.067 33.7261L126.214 35.6407V63.3285L126.067 64.3594H117.672L117.525 64.2121L117.378 36.8189L116.494 34.4625L115.61 33.4316L114.432 32.8425L113.843 32.6952H110.603L108.983 33.2843L107.51 34.4625L106.479 35.788L105.743 37.7026L105.448 39.3226L105.301 43.1518L105.154 64.3594H96.9062V11.0457L97.0535 10.8984Z" fill="#0E3656"/>
<path d="M147.717 26.3613H149.926L152.43 26.6559L155.67 27.5395L158.026 28.7177L159.352 29.6014L160.824 30.9269L162.003 32.3996L163.181 34.6088L163.77 36.5233L164.065 38.7325L164.212 41.678V65.8311H156.554L156.406 65.5366V63.3275L152.577 65.242L150.662 65.8311L148.453 66.273H143.741L141.237 65.8311L139.028 64.9475L137.408 63.7693L136.23 62.7384L134.904 60.8238L133.873 58.4674L133.431 56.9946L133.137 55.08V52.1345L133.726 49.6308L135.051 46.8326L136.377 45.2126L137.85 43.8871L139.911 42.5616L142.121 41.678L144.624 41.0889L145.802 40.9416H149.484L153.313 41.5307L155.523 42.1198L155.375 39.7634L154.639 37.9961L153.461 36.3761L152.135 35.4924L150.81 35.0506L149.337 34.756H148.601L146.981 32.2523L145.508 29.8959L143.888 27.245V26.9504L145.361 26.6559L147.717 26.3613Z" fill="#F18307"/>
<path d="M72.3137 23.7109H75.2592L77.6156 23.8582L79.972 24.4473L82.4757 25.4782L84.5376 26.8037L86.0103 28.1292L87.1885 30.0438L88.0722 32.6947L88.514 35.1984L88.6613 36.6712H80.2666L79.5302 34.3148L78.6465 32.842L77.7629 32.1056L76.4374 31.6638L74.6701 31.5165L72.7555 31.6638L71.1355 32.2529L69.9573 33.2838L69.5155 34.1675V36.2293L70.1046 37.2603L71.2828 37.9967L74.3756 39.0276L79.5302 40.3531L81.8866 41.2367L83.9485 42.2676L86.0103 43.5931L87.1885 44.4768L88.3667 45.9495L89.1031 47.4223L89.5449 49.3369V54.4915L89.1031 56.7006L88.3667 58.6152L87.1885 60.2352L85.4212 62.0025L83.5066 63.328L81.4448 64.2117L79.0884 64.9481L78.0574 65.0953H72.6083L69.9573 64.6535L67.7482 63.9171L65.3918 62.7389L63.919 61.708L62.7408 60.6771L61.268 58.6152L60.3844 56.4061L60.0898 54.9333V51.546H68.3373L68.6318 52.5769L69.2209 54.4915L69.9573 55.6697L71.2828 56.7006L73.3446 57.2897L74.9647 57.437H76.4374L78.4993 56.9952L79.6775 56.2588L80.4138 55.3751L80.8557 54.3442V52.5769L80.4138 51.6933L79.3829 50.8096L76.732 49.7787L73.9337 49.0423L70.8409 48.3059L68.6318 47.4223L66.2754 46.2441L63.919 44.624L62.7408 43.5931L61.7099 41.8258L61.1208 39.9112L60.9735 39.0276V34.7566L61.4153 32.5475L62.4463 30.1911L63.919 27.9819L65.6863 26.0673L67.1591 25.0364L68.7791 24.3L70.3991 23.8582L72.3137 23.7109Z" fill="#0E3656"/>
<path d="M187.925 23.7109H190.723L192.637 24.0055L194.552 24.7419L196.319 25.7728L198.087 27.3928L199.117 28.7183L200.148 30.7802L200.737 32.842L200.885 34.1675V63.7698L200.737 63.9171H193.226L192.196 63.7698L192.048 36.9657L191.312 34.7566L190.428 33.5784L189.545 32.9893L187.925 32.5475H185.863L184.095 32.9893L182.917 33.5784L181.592 34.7566L180.413 37.113L179.972 39.0276L179.824 40.6476L179.677 44.3295V63.7698L179.53 63.9171H171.43V24.5946H179.53L179.677 29.8965L180.266 29.1601L181.297 27.5401L182.623 26.0673L184.095 24.8891L185.715 24.1528L186.599 23.8582L187.925 23.7109Z" fill="#0E3656"/>
<path d="M8.83752 20.0293H19.8832L21.3559 20.4711L22.8287 21.3548L24.1542 22.533L25.6269 24.4476L26.5106 26.2149L27.0997 28.2767L27.5415 31.075L27.6888 32.695V40.5006L27.2469 43.7406L26.5106 46.6861L25.0378 50.368L24.1542 51.9881L22.6814 53.6081L21.2087 54.4917L19.5886 54.9336L18.2631 55.0808H8.69024L8.54297 54.639V23.8585L8.69024 20.1766L8.83752 20.0293Z" fill="#FDFDFD"/>
<path d="M212.077 14.4336H220.324L220.472 24.5956L225.479 24.7429L225.626 24.8901V31.9594L225.479 32.1066H220.324L220.472 54.7871L220.913 56.1125L221.502 56.8489L222.239 57.1435H224.743L225.626 56.9962V64.0654L225.479 64.8018H221.061L217.379 64.6545L215.906 64.36L214.728 63.7709L213.55 62.7399L212.519 60.6781L212.077 58.7635L211.93 48.6015V32.2539L207.953 32.1066V24.7429L211.93 24.5956L212.077 14.4336Z" fill="#0E3656"/>
<path d="M127.245 13.1074H135.198L140.647 13.6965L144.329 14.4329L146.98 15.3166L149.484 16.642L150.957 17.9675L151.988 19.1457L153.166 21.2076L154.344 24.3004L153.755 24.4476L152.577 23.8585L149.778 23.1221L147.864 22.8276H146.097L142.709 23.1221L141.826 23.2694H139.469L141.089 26.6568L143.593 31.3696L144.918 33.4314L145.949 34.6096L147.275 35.346L146.686 35.7878L144.918 36.5242L142.709 37.1133H141.236L139.027 36.6715L136.376 35.4933L134.02 33.8733L132.105 32.1059L130.633 30.4859L129.16 28.5713L127.245 25.9204L125.92 23.7113L124.153 20.4712L122.974 18.1148L121.354 14.5802L121.207 13.6965L124.889 13.2547L127.245 13.1074Z" fill="#C6D50E"/>
<path d="M44.0352 24.4473H52.7244L52.5771 63.9171H44.0352V24.4473Z" fill="#0E3656"/>
<path d="M165.389 0H165.978V1.47275L165.536 6.33284L164.947 10.4566L164.064 14.2857L163.033 17.3785L161.707 19.8822L160.382 21.5022L159.204 22.6804L157.289 23.8586L156.111 24.1532L155.669 23.4168L154.933 20.7658L154.049 18.704L152.723 16.6421L151.103 14.8748L149.042 13.4021L146.685 12.0766L146.391 11.782L146.538 10.8984L147.422 9.5729L148.894 8.24742L151.251 6.62739L153.313 5.44919L156.111 3.97644L161.413 1.62003L164.505 0.294551L165.389 0Z" fill="#C6D50E"/>
<path d="M238.291 10.0156H241.678L243.298 10.4575L245.065 11.3411L246.538 12.5193L247.716 14.1393L248.453 15.6121L248.747 16.9376L248.895 19.7358L248.6 21.6504L247.864 23.4177L246.538 25.185L244.918 26.5105L243.298 27.2468L241.531 27.6887H238.438L236.671 27.2468L234.903 26.3632L233.578 25.3323L232.4 23.7122L231.516 21.9449L231.074 20.0304V17.8212L231.663 15.4648L232.694 13.5502L234.02 12.0775L235.492 11.0466L237.113 10.3102L238.291 10.0156Z" fill="#FDFDFD"/>
<path d="M198.085 81.2969H200.294L201.62 81.5914L203.093 82.3278L204.418 83.506L205.449 85.126L206.038 86.5988L206.333 88.2188V89.1025L206.038 89.2497H193.814L194.403 91.3116L195.287 92.6371L196.465 93.668L197.791 94.1098L198.674 94.2571H199.852L201.62 93.668L202.945 92.6371L203.829 91.3116H205.743L205.449 92.1953L204.565 93.668L203.387 94.6989L201.914 95.5826L200.442 96.0244H197.791L196.023 95.288L194.698 94.4044L193.372 93.0789L192.489 91.3116L192.047 89.5443V87.4824L192.489 85.7151L193.225 84.3897L194.551 82.9169L195.876 82.0333L197.349 81.4442L198.085 81.2969Z" fill="#0E3656"/>
<path d="M71.1348 81.2969H73.0494L74.8167 81.7387L76.1421 82.4751L76.8785 83.0642L78.204 84.8315L78.9404 86.5988L79.2349 89.1025L78.4986 89.2497H66.7165L67.1583 91.0171L67.8947 92.3425L69.0729 93.5207L70.5457 94.1098L71.4293 94.2571H72.7548L74.5221 93.668L75.9949 92.3425L76.7313 91.3116H78.6458L78.0567 92.6371L77.1731 93.8153L75.8476 94.9935L74.3748 95.7299L73.0494 96.0244H71.1348L69.3675 95.5826L67.8947 94.6989L66.5692 93.5207L65.5383 91.9007L64.9492 89.9861V87.1879L65.5383 85.4206L66.2747 84.0951L67.3056 82.9169L68.6311 82.0333L70.2511 81.4442L71.1348 81.2969Z" fill="#0E3656"/>
<path d="M146.538 48.6016H149.631L152.871 49.0434L155.522 49.6325L155.669 50.0743V54.198L155.375 54.9344L153.166 56.5544L150.662 57.8799L148.747 58.6163L148.011 58.7636H145.655L144.182 58.1745L142.856 56.9963L142.12 55.5235L141.973 54.7871V52.578L142.414 51.1052L143.74 49.6325L145.36 48.8961L146.538 48.6016Z" fill="#FDFDFD"/>
<path d="M11.7818 77.0254L12.3709 77.6145L14.5801 83.5055L17.0838 89.9856L18.7038 94.2566L19.1456 95.5821L17.3783 95.7294L16.6419 94.1093L15.1692 90.1329V89.8384H6.92175L6.47992 91.3111L4.85989 95.5821L4.71262 95.7294H2.94531L3.38714 94.4039L5.89082 87.7765L8.09995 82.0328L9.71998 77.7618L10.0145 77.1727L11.7818 77.0254Z" fill="#0E3656"/>
<path d="M86.4518 83.0625H88.5137L90.1337 83.6516L91.6065 84.9771L92.4901 86.4498L92.932 88.2171L92.7847 90.1317L92.1956 91.6045L91.1646 92.93L89.9864 93.8136L88.5137 94.4027H86.8937L85.4209 93.9609L84.0954 93.0772L82.9172 91.4572L82.4754 90.4263L82.3281 89.6899V87.628L82.77 86.1553L83.8009 84.6825L84.9791 83.6516L86.4518 83.0625Z" fill="#FDFDFD"/>
<path d="M156.995 83.0625H158.909L160.382 83.5043L161.56 84.388L162.591 85.5662L163.18 87.0389L163.328 87.7753V89.8372L162.886 91.3099L162.002 92.6354L160.824 93.6663L159.498 94.2554L158.909 94.4027H157.289L155.669 93.8136L154.491 92.7827L153.607 91.7517L153.018 90.4263L152.871 89.8372V87.3335L153.46 85.8607L154.491 84.5353L155.817 83.5043L156.995 83.0625Z" fill="#FDFDFD"/>
<path d="M173.047 83.0625H175.109L176.581 83.5043L177.907 84.5353L178.79 85.7135L179.38 87.0389L179.527 87.7753V89.6899L179.085 91.1626L178.201 92.4881L177.17 93.5191L175.992 94.1082L175.109 94.4027H173.489L171.869 93.8136L170.543 92.7827L169.512 91.3099L169.07 89.9844V87.3335L169.807 85.5662L171.279 83.9462L173.047 83.0625Z" fill="#FDFDFD"/>
<path d="M156.702 81.4434H159.353L161.12 82.0325L162.74 83.0634L163.771 84.2416L164.949 86.598L165.097 87.3344V90.2799L164.508 92.0472L163.624 93.3727L162.888 94.2563L161.415 95.2872L159.942 95.8763L159.206 96.0236H157.291L155.524 95.5818L154.198 94.8454L153.02 93.8145L152.873 99.8528L152.725 100H151.105V81.7379H152.873V83.5052L153.462 83.2107L155.082 82.0325L156.702 81.4434ZM156.996 83.0634L155.671 83.6525L154.493 84.5361L153.462 85.8616L152.873 87.3344V89.8381L153.462 91.4581L154.051 92.3417L155.376 93.6672L156.702 94.2563L157.291 94.4036H158.911L160.531 93.8145L161.709 92.9308L162.74 91.6054L163.182 90.5744L163.329 89.8381V87.7762L162.74 85.8616L161.709 84.5361L160.678 83.6525L159.5 83.2107L158.911 83.0634H156.996Z" fill="#0E3656"/>
<path d="M92.9297 77.1719H94.5498V95.5813L94.2552 95.7286H92.9297L92.7825 95.5813V93.814L90.8679 95.1395L89.6897 95.7286L88.5115 96.0231H86.7442L84.9769 95.5813L83.5041 94.6976L82.3259 93.6667L81.295 92.194L80.7059 90.7212L80.5586 89.9848V87.4812L81.1477 85.5666L81.7368 84.3884L82.915 83.0629L84.6823 81.8847L86.1551 81.4429H89.1006L90.8679 82.1792L92.0461 83.0629L92.6352 83.652L92.7825 77.3192L92.9297 77.1719ZM86.4496 83.0629L84.9769 83.652L83.5041 84.9775L82.6204 86.4502L82.3259 87.6284V89.6903L82.7677 91.163L83.7987 92.7831L84.8296 93.6667L86.3023 94.2558L86.8914 94.4031H88.5115L90.2788 93.6667L91.6042 92.4885L92.4879 91.0158L92.7825 90.1321L92.9297 88.2175L92.4879 86.4502L91.6042 84.9775L90.5733 83.9465L89.1006 83.2102L88.5115 83.0629H86.4496Z" fill="#0E3656"/>
<path d="M172.901 81.4434H175.552L177.319 82.0325L178.645 82.9161L179.381 83.6525L180.412 84.978L181.149 86.7453L181.296 87.3344V90.1326L180.707 92.0472L179.676 93.5199L178.498 94.6981L176.141 95.8763L175.405 96.0236H173.343L171.723 95.5818L170.545 94.9927L169.219 93.8145L169.072 94.109L168.925 100H167.305V81.8852L167.452 81.7379H168.925L169.072 83.5052H169.367L170.103 82.7688L171.576 81.8852L172.901 81.4434ZM173.048 83.0634L171.281 83.947L170.25 84.978L169.367 86.4507L169.072 87.3344V89.9853L169.661 91.6054L170.692 92.9308L171.87 93.8145L173.49 94.4036H175.11L176.73 93.8145L178.203 92.489L179.087 91.1635L179.529 89.6908V87.7762L179.087 86.3034L178.203 84.8307L177.025 83.7998L175.699 83.2107L175.11 83.0634H173.048Z" fill="#0E3656"/>
<path d="M43.3008 10.457H51.8428V19.8827H43.4481L43.3008 19.7354V10.457Z" fill="#0E3656"/>
<path d="M238.291 10.0156H241.678L243.298 10.4575L245.065 11.3411L246.538 12.5193L247.716 14.1393L248.453 15.6121L248.747 16.9376L248.895 19.7358L248.6 21.6504L247.864 23.4177L246.538 25.185L244.918 26.5105L243.298 27.2468L241.531 27.6887H238.438L236.671 27.2468L234.903 26.3632L233.578 25.3323L232.4 23.7122L231.516 21.9449L231.074 20.0304V17.8212L231.663 15.4648L232.694 13.5502L234.02 12.0775L235.492 11.0466L237.113 10.3102L238.291 10.0156ZM239.027 11.3411L237.26 11.7829L235.64 12.6666L234.314 13.8448L233.283 15.4648L232.694 16.7903L232.547 17.3794V20.3249L233.283 22.3868L234.462 24.0068L235.492 25.0377L237.554 26.0686L238.585 26.3632H241.383L243.298 25.7741L244.918 24.7432L245.949 23.7122L247.127 21.6504L247.569 19.8831V17.8212L247.127 16.2012L246.244 14.4339L245.065 13.1084L243.445 12.0775L241.825 11.4884L241.089 11.3411H239.027Z" fill="#0E3656"/>
<path d="M128.571 76.877H130.485L131.811 77.3188L132.989 78.3497L133.725 79.5279L134.167 81.5898L133.578 81.737H132.547L131.811 79.8225L131.074 79.0861L130.632 78.7915L129.012 78.6443L127.834 79.0861L126.951 80.117L126.656 80.7061V82.768L127.245 83.6516L127.982 84.2407L131.663 85.5662L132.989 86.4499L133.873 87.4808L134.314 88.3644L134.462 89.1008V91.1627L134.02 92.93L133.136 94.4027L131.811 95.4337L130.632 95.8755L130.043 96.0228H128.571L127.098 95.5809L125.478 94.4027L124.594 92.93L124.3 92.0463L124.152 90.5736L124.3 90.4263H125.772L125.92 90.5736L126.214 92.1936L127.098 93.3718L128.129 93.9609H130.191L131.222 93.5191L131.958 92.93L132.547 91.4572V89.6899L131.958 88.5117L130.927 87.6281L128.423 86.4499L126.361 85.4189L125.331 84.388L124.889 83.6516L124.741 83.0625V80.7061L125.331 79.0861L126.509 77.7606L127.834 77.0242L128.571 76.877Z" fill="#0E3656"/>
<path d="M31.8113 81.7383H33.4314L33.5786 91.0166L34.0205 92.4894L34.6096 93.373L35.4932 93.9621L36.6714 94.2567H37.8496L39.3224 93.8149L40.3533 93.0785L41.0897 91.6057L41.237 90.8694L41.3842 88.6602L41.5315 81.8856L41.6788 81.7383H43.2988V95.5822L42.857 95.7294H41.8261L41.6788 95.5822L41.5315 94.5512L40.7951 94.8458L39.3224 95.7294L38.2915 96.024H36.0823L34.6096 95.5822L33.4314 94.8458L32.5477 93.8149L31.9586 92.3421L31.6641 90.5748V81.8856L31.8113 81.7383Z" fill="#0E3656"/>
<path d="M137.999 81.5898H138.293L138.588 89.9845L139.029 92.3409L139.619 93.2246L140.502 93.961L141.68 94.2555H143.153L144.626 93.6664L145.804 92.6355L146.246 91.4573L146.393 90.4264L146.54 82.0317L146.688 81.7371H148.308V95.581L148.161 95.7283H146.688L146.54 94.5501L145.951 94.8446L144.479 95.7283L143.448 96.0228H141.239L139.619 95.581L138.44 94.6974L137.557 93.6664L136.968 92.0464L136.82 91.31V81.8844L136.968 81.7371L137.999 81.5898Z" fill="#0E3656"/>
<path d="M18.2617 81.7383H20.029L21.2072 84.6838L23.4164 90.5748L24.3 92.6367L24.4473 92.7839L25.6255 89.5439L27.2455 85.5674L28.571 82.0328L28.8655 81.7383H30.6329L30.4856 82.6219L28.7183 87.1875L26.951 91.4585L25.3309 95.5822L23.8582 99.1168L23.2691 100H21.6491L22.0909 98.675L23.1218 95.8767L22.9745 94.8458L20.029 87.0402L18.409 82.7692L18.2617 81.7383Z" fill="#0E3656"/>
<path d="M107.805 81.2969H109.573L111.487 81.886L112.96 82.9169L113.991 83.9478L114.875 85.4206V86.0097H113.255L111.34 83.9478L110.162 83.3587L109.573 83.2115H107.069L105.302 84.0951L104.271 85.2733L103.682 86.4515L103.387 87.3352L103.24 89.1025L103.535 90.5752L104.713 92.9316L105.302 93.2262L106.48 93.9626L107.805 94.2571H109.278L110.898 93.668L112.076 92.7844L113.107 91.3116L113.549 91.1643L114.875 91.3116L114.727 92.1953L113.697 93.8153L112.518 94.8462L110.456 95.8771L109.72 96.0244H107.364L105.891 95.5826L104.271 94.6989L102.651 93.0789L101.767 91.3116L101.473 90.1334V87.1879L101.914 85.7151L102.945 83.9478L103.976 82.9169L105.596 81.886L106.922 81.4442L107.805 81.2969Z" fill="#0E3656"/>
<path d="M217.821 81.2969H219.294L220.62 81.7387L221.503 82.4751L222.24 83.9478L222.534 84.9788L221.798 85.126H220.62L220.325 84.6842L220.03 83.8006L219.147 83.3587L218.116 83.2115L217.085 83.6533L216.643 84.2424L216.496 85.5679L216.79 86.5988L217.38 86.8933L220.914 88.3661L221.798 89.1025L222.534 90.4279L222.681 91.0171V92.4898L222.24 93.8153L220.914 95.288L219.736 95.8771L219.147 96.0244H217.38L215.907 95.4353L215.17 94.8462L214.287 93.5207L213.992 92.4898V91.4589L214.139 91.3116H215.465L215.759 91.6062L216.201 92.9316L217.085 93.9626L217.674 94.2571H218.705L219.883 93.668L220.472 92.7844L220.62 91.6062L220.178 90.5752L219.294 89.8388L216.643 88.6606L215.465 87.777L214.729 86.8933L214.581 86.4515V84.2424L215.318 82.7696L216.349 81.886L217.821 81.2969Z" fill="#0E3656"/>
<path d="M236.377 14.1387H240.206L241.973 14.4332L242.857 15.0223L243.446 16.0533L243.593 16.9369L243.151 18.2624L242.268 18.9988L241.237 19.2933V19.7351L241.678 19.8824L243.151 22.0915L243.888 23.1225V23.7116L242.709 23.8588L242.12 23.5643L240.648 21.0606L239.764 20.0297L238.438 19.7351L237.702 19.5879V23.7116L237.555 23.8588H236.229L236.082 23.7116V14.2859L236.377 14.1387Z" fill="#0E3656"/>
<path d="M62.7382 81.5898L64.3583 81.7371L63.6219 83.9463L62.4437 86.7445L60.5291 91.4573L58.9091 95.4337L58.6145 95.7283H57.4363L56.9945 95.2865L54.1963 88.07L51.9871 82.4735L51.8398 81.7371H53.6071L54.1963 83.0626L57.289 90.8682L58.0254 92.6355L58.32 92.1937L59.4982 89.2482L61.1182 85.1245L62.4437 81.8844L62.7382 81.5898Z" fill="#0E3656"/>
<path d="M70.544 83.0625H73.3422L74.6677 83.5043L76.1405 84.8298L77.3187 87.1862V87.4808L77.0241 87.628H67.0094L66.7148 87.1862L67.3039 85.7135L68.1876 84.5353L69.3658 83.5043L70.544 83.0625Z" fill="#FDFDFD"/>
<path d="M197.79 83.0625H200.441L201.767 83.5043L203.239 84.8298L203.976 86.1553L204.417 87.4808L204.123 87.628H194.255L193.961 87.4808L194.108 86.4498L194.697 85.2716L196.023 83.7989L197.79 83.0625Z" fill="#FDFDFD"/>
<path d="M183.651 77.1719H185.271V95.5813L184.682 95.7286H183.651L183.504 95.5813V77.3192L183.651 77.1719Z" fill="#0E3656"/>
<path d="M49.9257 81.5898H50.9566V83.2099L49.6311 83.799L48.8947 84.2408L48.1583 85.1245L48.0111 85.5663L47.8638 95.1392L47.7165 95.7283H46.2438L45.9492 95.581V81.8844L46.0965 81.7371H47.5692L47.7165 82.0317V83.0626L48.1583 82.9153L48.6002 82.1789L49.9257 81.5898Z" fill="#0E3656"/>
<path d="M10.7529 79.0859H11.0475L11.7839 80.706L13.6984 85.8606L14.4348 87.6279V88.0697L13.4039 88.217H7.66016L7.80743 87.3334L9.57474 82.6205L10.7529 79.0859Z" fill="#FDFDFD"/>
<path d="M212.666 81.4434L213.255 81.5906V83.2107L213.107 83.5052L211.929 83.7998L211.045 84.3889L210.456 85.1252L210.309 85.8616L210.162 95.5818L209.72 95.7291H208.395V81.8852L208.542 81.7379H209.867L210.015 82.327L209.867 82.9161L211.045 82.327L212.224 81.5906L212.666 81.4434Z" fill="#0E3656"/>
<path d="M97.4961 81.7383H99.1161L99.2634 82.1801V95.5822L98.6743 95.7294H97.6434L97.4961 95.5822V81.7383Z" fill="#0E3656"/>
<path d="M188.219 81.7383H189.839L189.986 81.8856V95.2876L189.839 95.5822L188.513 95.7294L188.219 95.5822V81.7383Z" fill="#0E3656"/>
<path d="M237.703 15.4648H240.501L241.385 15.7594L241.827 16.3485V17.674L241.385 18.1158L240.649 18.4104H237.703V15.4648Z" fill="#FDFDFD"/>
<path d="M188.366 77.1719H189.839L189.986 77.3192V79.6756L189.692 80.1174H188.219V77.3192L188.366 77.1719Z" fill="#0E3656"/>
<path d="M97.4961 77.1719H99.1161L99.2634 77.3192V79.6756L98.9688 80.1174H97.6434L97.4961 79.9701V77.1719Z" fill="#0E3656"/>
</svg>
