<svg width="300" height="81" viewBox="0 0 300 81" fill="none" xmlns="http://www.w3.org/2000/svg">
<path d="M101.202 18.0137H106.77L109.718 18.6687L112.993 20.3063L115.285 22.5988L117.25 26.529L118.233 30.7866V37.6643L117.25 43.232L115.613 47.8172L113.648 51.0923L110.373 54.3674L107.097 56.3325L103.822 57.315H96.6171L93.0145 56.005L91.0494 54.6949L88.4293 51.7473L86.7917 47.8172L86.1367 43.8871V37.6643L86.7917 33.0792L88.4293 28.1665L90.3944 24.5639L93.0145 21.6163L96.6171 19.3237L99.5647 18.3412L101.202 18.0137Z" fill="#EB262C"/>
<path d="M146.723 18.0137H149.998L153.274 18.9962L154.911 20.3063L156.876 23.9089V24.8914L159.496 22.9263L162.771 19.9787L166.046 18.3412L167.356 18.0137H170.959L173.907 18.9962L175.872 20.3063L177.509 23.5814L177.837 24.8914V33.0792L176.854 45.1971V51.7473L177.837 53.3849L179.802 54.3674V56.66L177.837 56.9875H167.684L165.391 56.66L165.719 54.3674L168.339 53.0574L169.322 50.7648L170.304 41.267L170.632 36.3543V26.8565L169.322 24.2364L167.684 23.2539H163.754L160.479 25.5464L158.514 27.839L157.531 30.1316L156.221 41.5945L155.566 50.1098L156.221 52.7299L159.169 54.3674V56.66L156.876 56.9875H145.413L144.758 56.66V54.6949L146.396 53.7124L148.033 52.4024L148.688 50.1098L149.671 39.9569L149.998 35.3718V27.5115L148.688 24.2364L147.051 23.2539H143.448L140.501 24.8914L137.553 27.839L136.57 29.8041L135.915 35.6993L134.933 48.4722V50.7648L135.915 53.0574L138.535 54.3674V56.66L138.208 56.9875H125.108L124.125 56.66V54.6949L125.763 53.7124L127.4 52.0748L128.055 49.7823L129.038 38.9744L129.693 30.7866V22.9263L128.383 21.6163L126.418 20.9613V18.6687L129.038 18.3412H136.898L136.57 23.5814L136.243 24.8914L142.793 19.6512L145.413 18.3412L146.723 18.0137Z" fill="#EB262C"/>
<path d="M4.25765 0.982422H38.9738L39.3013 1.30993L38.6463 11.1353L38.3188 13.4278H34.7162L33.7337 10.4802L32.4236 7.20513L31.1136 5.56758L30.131 5.24007H15.7205L14.083 25.8733L23.2533 25.5458L25.2184 24.5632L27.8385 19.6506L31.1136 19.9781V23.2532L30.131 35.3711L29.1485 35.6986L26.2009 35.3711L25.2184 32.4235L24.2358 30.4584L22.5983 29.8034H13.7555L12.1179 50.7641L11.7904 52.7292L25.8734 52.4017L28.166 51.4192L30.131 48.4715L32.4236 42.5763L32.7511 42.2488H36.3537L36.0262 46.834L34.7162 56.6593L27.5109 56.9868H0.327511L0 56.6593L0.327511 54.3668L2.9476 53.0567H3.60262L4.58516 48.7991L5.8952 33.406L7.20525 16.3754L7.86027 10.4802V6.2226L6.22271 4.25753L4.25765 3.275L3.93014 2.29247L4.25765 0.982422Z" fill="#EB262C"/>
<path d="M258.078 0H265.938V4.25765L263.645 34.0612H265.938L269.213 32.4236L273.143 28.821L275.108 26.5284L276.091 24.5633V21.9433L274.126 20.6332V18.6681H289.846V20.3057L288.209 21.2882L284.933 22.9258L281.003 26.5284L277.728 29.476L273.471 33.7337L273.798 35.3712L279.366 44.5415L283.296 50.7642L285.261 53.0568L288.209 54.3669V56.6594L285.261 56.987H275.763L274.126 56.6594V54.6944L275.763 53.3843L275.436 50.7642L269.868 41.2664L267.903 38.3188L265.61 37.3363L263.318 37.0088L262.663 46.5066V51.4193L263.318 53.0568L265.938 54.6944V56.6594L263.645 56.987H251.855L251.527 56.6594V54.6944L254.802 52.7293L255.785 49.1267L257.75 24.8909L258.733 11.7904V4.91267L257.423 3.27511L255.13 2.62009V0.655022L255.457 0.327511L258.078 0Z" fill="#EB262C"/>
<path d="M65.8281 18.0137H69.7583L72.3784 18.9962L74.9984 21.2888L75.981 23.5814L76.3085 25.2189V32.7517L75.326 45.5246V52.0748L76.9635 53.7124L78.6011 54.6949V56.66L73.6884 56.9875H64.5181L64.1906 56.66V54.6949L66.4832 53.3849H67.1382L68.1207 50.4373L69.1032 40.6119L69.4308 35.3718V27.5115L68.4482 24.8914L67.1382 23.5814L66.1556 23.2539H62.2255L58.9504 25.2189L56.6578 27.839L55.3478 31.1141L54.0377 48.4722V50.7648L55.0203 53.0574L57.3128 54.6949V56.66L56.0028 56.9875H44.8674L42.9023 56.66V54.6949L46.1775 52.7299L47.16 49.7823L48.1425 38.9744L48.7975 30.4591V22.9263L47.815 21.9438L45.5224 20.9613V18.6687L48.7975 18.3412H56.0028V21.2888L55.3478 24.5639L56.9853 23.5814L59.2779 21.2888L62.8805 18.9962L65.8281 18.0137Z" fill="#EB262C"/>
<path d="M101.527 21.2871H105.457L108.077 22.9247L110.042 25.8723L111.025 29.4749L111.352 32.75V37.0076L110.697 42.5753L109.715 46.5055L107.75 50.4356L105.13 53.0557L103.492 53.7107H98.5794L96.6143 52.4007L94.9768 50.4356L93.6667 47.1605L93.0117 43.2304V38.3177L93.6667 32.75L94.6493 28.8199L96.9419 24.2347L99.5619 21.9421L101.527 21.2871Z" fill="#FDFEFD"/>
<path d="M244.321 18.0137H250.544L250.871 18.3412L250.544 24.5639L250.216 27.184L249.234 27.5115H245.958L243.993 24.5639V23.9089L241.046 23.5814L238.753 24.5639L236.461 26.529L234.823 29.1491L234.168 31.4416L232.858 48.1447V50.7648L233.513 53.3849L236.461 54.3674V56.66L235.478 56.9875H222.05L221.723 56.66V54.6949L223.36 53.7124L224.998 52.0748L225.653 49.4548L226.635 38.6469L227.29 30.4591V23.2539L226.635 21.9438L224.015 20.9613V18.6687L226.963 18.3412H234.823V20.9613L234.168 25.2189H234.823L235.478 23.9089L238.753 20.6338L242.028 18.6687L244.321 18.0137Z" fill="#EB262C"/>
<path d="M193.232 0.326172H198.799L196.507 5.23884L195.852 7.53142V11.4616L197.162 15.7192L199.454 19.3218L204.039 25.5445L207.315 29.8022L210.59 34.3873L212.882 37.99L214.52 42.9026V50.4354L213.21 54.3655L211.9 56.3306L211.572 56.6581H206.004L206.332 55.0205L207.97 51.7454L208.625 49.4529V45.1952L207.315 41.2651L205.022 37.0074L200.437 30.7847L195.852 25.217L192.577 20.3044L190.611 16.0467L189.629 11.134L189.956 6.8764L191.921 1.63622L193.232 0.326172Z" fill="#017D4B"/>
<path d="M209.608 0.326172H215.503L216.813 3.9288L217.468 8.18644V11.134L216.486 16.3742L214.193 20.9594L211.246 24.2345L208.953 26.5271H207.315L205.023 23.5795L204.695 22.2694L207.97 19.6493L210.591 16.3742L211.901 13.4266L212.228 12.1166V7.85893L210.263 2.61875L209.608 0.326172Z" fill="#EB252C"/>
<path d="M196.833 29.1484L198.471 30.786L200.108 32.7511L199.781 34.0611L196.506 36.3537L193.886 38.9738L192.576 41.2664L191.92 44.869L192.248 49.4541L193.886 53.7118L194.541 55.3493V56.6594H188.973L187.335 51.0917L187.008 48.4716V44.5415L187.663 40.6113L190.283 35.3712L193.886 31.441L196.833 29.1484Z" fill="#017D4B"/>
<path d="M292.466 5.89453H295.741L297.706 7.20458L299.016 9.49715L299.344 12.1172L298.689 14.7373L296.724 17.0299L294.758 17.6849L291.811 17.3574L289.846 15.7199L288.863 13.7548V9.82467L289.846 7.8596L291.811 6.22204L292.466 5.89453Z" fill="#FDFEFD"/>
<path d="M95.9599 68.123L96.9425 68.4506V69.7606L98.9075 68.123L100.545 68.4506L101.528 69.7606V73.0357L100.545 75.0008L98.58 76.9658H95.3049L94.9774 80.241H95.6324V80.896H93.3398L93.6674 78.2759L95.3049 69.4331V68.7781L94.6499 68.4506L95.9599 68.123Z" fill="#017D4B"/>
<path d="M189.958 64.1914H192.25L191.595 68.1215L191.268 69.7591L193.233 68.1215H194.871L195.853 69.4316V73.3617L194.871 75.3268L192.905 76.9643H188.32L190.285 67.139V64.8464L189.958 64.1914Z" fill="#D91676"/>
<path d="M87.4437 68.123L88.4262 68.4506V69.7606L90.3913 68.123L91.7013 68.4506L92.6839 70.0881V72.7082L91.3738 75.6558L89.7363 76.9658H87.1162L86.4612 79.2584V80.241H87.1162V80.896H84.4961L86.4612 71.0706V69.1056L85.8061 68.4506L87.4437 68.123Z" fill="#017D4B"/>
<path d="M1.96507 64.5195L7.53276 64.847L8.8428 66.1571V69.4322L7.20525 71.0698L5.56769 71.7248H2.9476L2.29258 76.3099L3.27511 76.6374V76.965H0L0.982534 74.0174L2.29258 67.4671V65.5021L1.96507 64.5195Z" fill="#371264"/>
<path d="M235.15 68.123H237.115L238.753 69.7606V73.3632L237.443 75.9833L236.133 76.9658H233.185L232.203 75.9833L231.875 75.0008V72.7082L232.858 70.0881L235.15 68.123Z" fill="#EB8C36"/>
<path d="M200.763 68.123H204.694L203.383 75.9833L204.039 76.9658H201.746V75.3283L200.108 76.9658H198.143L197.488 75.9833V72.0532L198.798 69.4331L200.763 68.123Z" fill="#D91675"/>
<path d="M50.7628 68.123H52.4003H53.7104H54.3654L54.0379 71.0706L53.3829 74.3458V75.9833L53.7104 76.9658H51.7453V75.3283L50.1078 76.9658H48.1427L47.1602 75.0008L47.4877 72.0532L48.7977 69.4331L49.7802 68.4506L50.7628 68.123Z" fill="#3E1266"/>
<path d="M21.615 68.123L24.5626 68.4506H25.5451L23.9075 76.3108L24.8901 76.6383V76.9658H22.5975L22.925 75.3283L22.5975 75.6558L20.9599 76.9658H19.3224L18.3398 75.6558V72.3807L19.6499 69.4331L21.615 68.123Z" fill="#471268"/>
<path d="M165.063 64.5195H168.01L167.028 67.4671L166.373 70.0872H170.63L170.958 65.1746L170.63 64.5195H173.578L172.268 69.7597L171.285 74.6724L171.613 76.965H168.665L169.648 74.0174L170.303 71.0698H166.045L165.718 76.3099L166.045 76.965H163.098L164.408 71.7248L165.39 66.4846L165.063 64.5195Z" fill="#D81577"/>
<path d="M116.922 68.123H117.577L117.25 69.7606L119.215 68.4506L121.18 68.123L121.835 68.4506L122.162 69.4331L123.472 68.7781L124.455 68.123L126.092 68.4506L126.42 69.1056V71.7257L125.765 75.9833L126.42 76.9658H123.8L124.455 73.0357L124.782 69.7606L124.127 69.4331L122.817 70.7431L121.835 72.7082L120.852 76.9658H119.542L120.525 69.4331L118.56 70.0881L117.25 72.7082L116.267 76.9658H114.957L115.285 74.0182L116.267 69.1056L115.285 68.7781V68.4506L116.922 68.123Z" fill="#017D4B"/>
<path d="M36.0276 68.123L36.6826 68.4506V69.7606L37.9926 68.4506L39.9577 68.123L40.6127 68.7781V70.0881L42.5778 68.4506L44.2153 68.123L45.5254 69.1056L45.1979 72.0532L44.2153 76.3108L45.5254 76.9658H42.5778L43.2328 73.0357L43.5603 69.4331L41.9228 70.0881L40.6127 72.3807L39.6302 76.9658H38.3201L38.9752 72.3807V69.4331L37.3376 70.4156L36.3551 72.0532L35.3725 76.9658H34.0625L34.39 73.6907L35.3725 68.7781L34.39 68.4506L36.0276 68.123Z" fill="#4C1269"/>
<path d="M248.91 68.123H249.565L249.237 70.7431L251.202 68.4506L253.167 68.123L254.15 69.4331L256.115 68.123L257.425 68.4506L258.08 69.1056V71.7257L257.098 76.3108L258.08 76.6383V76.9658H255.46L256.443 72.0532L256.77 69.1056L255.132 69.7606L253.495 73.0357L252.512 76.9658H251.53L251.857 73.3632L252.512 69.1056L250.875 69.7606L248.91 72.7082L247.927 76.9658H246.617L247.927 69.7606L248.255 69.1056H247.272V68.4506L248.91 68.123Z" fill="#EB8B35"/>
<path d="M178.165 68.123L180.457 68.4506L181.112 70.0881L180.13 72.0532L178.165 73.0357H175.872L176.199 75.3283L176.527 75.6558L178.82 75.3283L180.13 74.6733L179.475 76.3108L178.492 76.9658H175.544L174.234 75.6558V72.0532L176.199 69.1056L178.165 68.123Z" fill="#D81579"/>
<path d="M111.024 68.123L113.317 68.4506L113.972 69.7606L113.645 71.3982L112.662 72.3807L111.024 73.0357L109.059 73.3632V75.3283L109.387 75.6558L111.68 75.3283L112.99 74.6733L112.662 75.9833L111.024 76.9658H108.732L107.422 75.6558V72.3807L108.404 70.0881L110.369 68.4506L111.024 68.123Z" fill="#017D4B"/>
<path d="M131.658 68.123H133.623L134.606 68.7781V71.3982L132.968 72.7082L129.693 73.0357L130.02 75.6558H131.985L133.295 74.6733H133.951L133.623 75.9833L131.985 76.9658H129.693L128.383 75.6558V72.0532L129.693 69.4331L131.658 68.123Z" fill="#017D4B"/>
<path d="M263.645 68.123H265.61L266.265 68.7781V71.3982L264.628 72.7082L261.352 73.0357L261.68 75.3283L262.007 75.6558H263.972L265.61 74.6733L265.283 75.9833L263.645 76.9658H261.352L260.042 75.3283L259.715 73.3632L261.025 70.0881L262.99 68.4506L263.645 68.123Z" fill="#EB8C36"/>
<path d="M10.8061 64.1914H13.4262L12.4437 68.7766V69.7591L14.4088 68.1215L16.0463 68.4491L16.3738 69.1041V71.7242L15.3913 76.3093L16.3738 76.6368V76.9643H14.0813L14.4088 73.6892L15.0638 70.0866L14.7363 69.4316L13.0987 70.0866L11.7887 72.7067L10.8061 76.9643H9.49609L11.1337 68.1215L11.7887 64.8464L10.8061 64.5189V64.1914Z" fill="#311263"/>
<path d="M78.9293 68.123H79.2568L78.9293 71.0706L78.2743 75.9833L79.9118 75.3283L81.2219 72.7082L82.5319 68.4506L83.1869 68.123L83.842 68.4506L83.5145 71.7257L82.8594 74.6733L83.1869 76.3108L83.5145 76.9658H80.8944V75.3283L79.2568 76.9658H77.2917L76.6367 75.9833L76.9642 72.3807L77.2917 69.1056L76.6367 68.4506L78.9293 68.123Z" fill="#017D4B"/>
<path d="M137.883 68.123H138.866V70.0881L140.176 68.4506L142.141 68.123L143.123 69.4331L142.796 72.7082L142.141 76.3108H142.796V76.9658H140.503L140.831 74.0182L141.158 72.7082V69.4331L139.521 70.4156L138.538 72.0532L137.228 76.9658H135.918L136.245 73.6907L136.901 69.1056L136.245 68.4506L137.883 68.123Z" fill="#017D4B"/>
<path d="M72.3787 64.5195H74.9988L76.3089 65.1746L75.6539 67.4671L74.9988 67.1396L74.3438 65.8296H72.3787L71.7237 66.4846V68.7772L74.3438 71.3973L74.6713 72.0523V74.9999L73.0338 76.6374L72.3787 76.965H68.1211L68.4486 74.0174H69.1036L70.0862 75.9824L72.3787 75.6549L73.0338 74.9999V73.0348L72.3787 71.7248L70.0862 69.7597L69.7587 67.4671L70.4137 65.8296L71.3962 64.847L72.3787 64.5195Z" fill="#017D4B"/>
<path d="M291.484 7.85938H295.742L296.725 8.84191V10.807L295.742 11.7895L296.397 13.4271L297.38 14.7371V15.7196L296.07 15.3921L294.759 13.0996V12.4445L293.122 12.117L293.449 15.7196L291.484 15.3921V7.85938Z" fill="#5C1369"/>
<path d="M228.272 64.5195H230.892L232.202 65.1746L231.547 67.4671H230.892L229.91 65.8296L228.927 65.5021L227.29 66.4846L225.652 69.7597L224.997 73.0348L225.324 75.9824H227.945L229.255 74.0174H229.91V75.9824L228.927 76.965H225.324L223.687 75.3274L223.359 74.3449V71.3973L224.342 68.1222L226.307 65.5021L228.272 64.5195Z" fill="#EB8C36"/>
<path d="M196.178 45.1953H205.021L205.349 45.5228L205.021 47.8154L204.694 48.1429H195.851L195.523 46.8329L196.178 45.1953Z" fill="#EB322D"/>
<path d="M199.781 6.22266H208.623L209.278 6.55017L208.951 8.84275L208.623 9.17026H199.453L199.781 6.22266Z" fill="#EB282C"/>
<path d="M292.14 5.24023H295.743L298.036 6.55028L299.673 9.17037L300.001 10.4804V13.1005L298.691 16.0481L296.726 17.6857L295.088 18.3407L291.813 18.0132L289.52 16.3756L288.21 14.083L287.883 11.4629L288.538 8.84286L289.848 6.87779L291.485 5.56775L292.14 5.24023ZM292.468 5.89526L290.503 7.2053L289.193 8.84286L288.865 9.82539V13.7555L290.503 16.3756L292.795 17.6857L296.071 17.3582L298.363 15.3931L299.018 14.083L299.346 11.7905L298.691 8.84286L297.381 6.87779L295.743 5.89526H292.468Z" fill="#54126B"/>
<path d="M235.808 68.7773L237.118 69.1049L237.445 69.4324V73.035L236.463 75.3276L235.808 76.3101H234.17L233.188 74.6725L233.515 72.0525L234.825 69.4324L235.808 68.7773Z" fill="#FDFEFD"/>
<path d="M193.229 69.1055L194.539 69.7605V73.0356L193.556 75.0007L192.246 76.3107L190.609 75.9832L190.281 75.6557V73.3631L191.264 70.743L193.229 69.1055Z" fill="#FDFEFD"/>
<path d="M157.86 63.8652L158.515 64.1927L157.86 68.4504L156.222 75.9832L154.912 80.8958H153.93L154.257 77.6207L156.222 68.4504L157.205 64.5203L157.86 63.8652Z" fill="#341363"/>
<path d="M51.0888 68.7773L52.7264 69.4324V71.7249L51.4164 75.0001L50.4338 75.9826L48.7963 75.6551L48.4688 73.69L49.1238 70.7424L50.4338 69.1049L51.0888 68.7773Z" fill="#FDFEFD"/>
<path d="M62.5525 64.1914H63.8625L63.535 66.484L60.5874 80.2395L60.2599 80.8945H59.2773L59.9324 76.3093L62.2249 64.8464L62.5525 64.1914Z" fill="#361264"/>
<path d="M200.762 1.31055H208.294L207.967 3.93064L207.312 4.25815H203.709L200.762 3.93064V1.31055Z" fill="#EB2B2C"/>
<path d="M22.2685 68.7773L23.5786 69.4324V72.0525L22.596 74.6725L21.286 75.9826L19.6484 75.6551V72.38L20.631 70.0874L21.286 69.1049L22.2685 68.7773Z" fill="#FDFEFD"/>
<path d="M98.581 69.1055L99.8911 69.7605V72.7081L98.581 75.6557L97.926 76.3107H96.2884L95.9609 75.9832V73.3631L96.9435 70.743L98.581 69.1055Z" fill="#FDFEFD"/>
<path d="M90.0654 69.1055L91.0479 69.433L91.3754 71.398L90.7204 74.6732L89.4104 76.3107H87.7728L87.4453 75.9832V72.7081L88.7554 70.088L90.0654 69.1055Z" fill="#FDFEFD"/>
<path d="M201.421 68.7773L202.731 69.4324V71.7249L201.421 75.0001L200.111 75.9826H199.128L198.801 75.3276V72.0525L199.783 70.0874L201.421 68.7773Z" fill="#FDFEFD"/>
<path d="M217.467 63.8652L218.449 64.1927L217.139 71.7255L215.174 80.8958H214.191L214.519 77.2932L217.139 64.1927L217.467 63.8652Z" fill="#3B1265"/>
<path d="M200.109 11.4629H207.642L207.314 14.083H199.781L200.109 11.4629Z" fill="#EB252C"/>
<path d="M147.051 66.1562H148.361L148.034 68.4488H150.326L149.999 69.4314H148.034L147.379 71.3964L146.723 75.9816L148.361 75.3266L149.344 74.9991L148.689 76.3091L147.706 76.9641H146.068L145.086 75.6541L145.413 72.7065L146.068 69.1039L145.086 68.7763L146.068 68.4488L147.051 66.1562Z" fill="#017D4B"/>
<path d="M288.207 68.123L290.828 68.4506L290.5 70.4156L289.845 70.7431V69.1056L287.552 69.4331L287.225 70.4156L289.845 73.6907L289.518 75.9833L288.535 76.9659L286.57 77.2934L284.277 76.6383L284.932 74.6733L285.915 75.9833H287.88L288.535 74.6733L287.552 73.0357L285.915 72.0532L285.587 69.7606L286.897 68.4506L288.207 68.123Z" fill="#EB8C36"/>
<path d="M209.279 63.8652L209.934 64.5203L207.641 76.3107H208.296V76.9657H206.004L206.331 74.0181L207.969 65.1753L207.314 64.1927L209.279 63.8652Z" fill="#D91577"/>
<path d="M104.146 64.1914H106.766L106.111 68.4491L104.801 74.9993L105.129 76.3093L105.456 76.9643H102.836L104.473 68.1215L105.129 64.8464L104.146 64.5189V64.1914Z" fill="#017D4B"/>
<path d="M242.686 68.123H244.978L245.633 68.4506V70.4156H244.978L244.651 69.1056L242.686 69.4331L242.358 70.7431L243.996 72.3807L244.651 73.3632V75.6558L243.668 76.9658H240.066L239.738 76.6383V75.0008H240.721V75.9833H243.013L243.341 74.0182L241.376 72.3807L240.721 70.7431L241.376 69.1056L242.686 68.123Z" fill="#EB8C36"/>
<path d="M270.196 66.1562H271.178L270.851 68.4488H273.143V69.1039L270.851 69.4314L269.868 73.034V75.6541L271.506 75.3266L272.488 74.6715L271.833 76.3091L270.851 76.9641H268.885L268.23 76.3091V73.689L269.213 69.1039L268.23 68.7763L269.541 68.4488L269.868 66.4838L270.196 66.1562Z" fill="#EB8C36"/>
<path d="M183.731 68.123H184.714L184.386 70.0881L186.679 68.123H188.316L187.989 70.4156L187.006 70.0881V69.4331L185.369 70.4156L184.386 72.3807L183.404 76.9658H182.094L182.421 73.6907L183.076 69.1056L182.421 68.4506L183.731 68.123Z" fill="#D91675"/>
<path d="M4.25597 65.502H6.22104L7.20357 66.157V69.1046L5.89353 70.7421L3.27344 71.0696L3.60095 67.467L4.25597 65.502Z" fill="#FDFEFD"/>
<path d="M281.661 68.123H283.626L283.953 68.4506V70.4156H282.971V69.1056L280.678 69.7606L279.368 73.3632V75.6558H281.661L283.298 74.6733L282.971 75.9833L281.661 76.9658H279.041L278.058 75.9833L277.73 73.6907L278.713 70.4156L281.006 68.4506L281.661 68.123Z" fill="#EB8C36"/>
<path d="M29.1487 68.123L30.1312 68.4506V69.7606L31.4412 68.4506L33.4063 68.123V70.0881L32.4238 70.4156L32.0963 69.7606H31.1137L29.8037 71.7257L28.4936 76.9658L27.1836 76.6383L28.1661 71.3982V69.1056L27.8386 68.4506L29.1487 68.123Z" fill="#421267"/>
<path d="M43.2292 68.123L44.8668 68.4506L45.5218 69.1056L45.1943 72.0532L44.2118 76.3108L45.5218 76.9658H42.5742L43.2292 73.0357L43.5568 69.4331L42.5742 68.7781L43.2292 68.123Z" fill="#3C1265"/>
<path d="M200.108 68.4492H202.073L201.746 69.1042L200.108 70.0868L199.126 72.0518V75.982L201.418 74.9994L200.763 76.3095L200.108 76.9645H198.143L197.488 75.982V72.0518L198.798 69.4318L200.108 68.4492Z" fill="#D8157B"/>
<path d="M50.7628 68.123L51.4178 68.4506L49.4527 70.7431L48.7977 74.6733L49.1252 75.6558L50.7628 75.3283L51.4178 75.0008L50.7628 76.3108L50.1078 76.9658H48.1427L47.1602 75.0008L47.4877 72.0532L48.7977 69.4331L49.7802 68.4506L50.7628 68.123Z" fill="#381264"/>
<path d="M274.124 68.123H276.416L276.089 71.0706L274.779 76.3108H275.761V76.9658H273.469L274.124 72.7082L274.451 69.1056L274.124 68.123Z" fill="#EB8935"/>
<path d="M20.9599 68.4492H22.925L22.27 69.1042L21.2874 69.4318L20.3049 71.0693L19.9774 72.3794V75.6545L21.615 75.982V76.637L19.3224 76.9645L18.3398 75.6545V72.3794L19.6499 69.4318L20.9599 68.4492Z" fill="#2B1261"/>
<path d="M14.4089 68.123L16.0465 68.4506L16.374 69.1056V71.7257L15.3915 76.3108L16.374 76.6383V76.9658H14.0814L14.4089 73.6907L15.064 70.0881L14.7364 69.4331H13.7539V68.4506L14.4089 68.123Z" fill="#411267"/>
<path d="M36.0276 68.123L36.6826 68.4506L36.0276 70.7431H36.6826L35.3725 76.9658H34.0625L34.39 73.6907L35.3725 68.7781L34.39 68.4506L36.0276 68.123Z" fill="#351264"/>
<path d="M263.972 68.7773L265.282 69.4324L264.954 71.3974L263.317 72.38H261.352L262.334 69.7599L263.972 68.7773Z" fill="#FDFEFD"/>
<path d="M294.757 7.85938L296.067 8.18689L296.722 8.84191V10.807L295.739 11.7895L296.394 13.4271L297.377 14.7371V15.7196L296.067 15.3921L294.757 13.0996V12.4445L294.102 12.117V11.462L295.084 11.1345L295.412 9.16942L294.757 7.85938Z" fill="#421365"/>
<path d="M292.142 5.24023H295.744L298.037 6.55028L299.019 8.18784L297.709 7.86032L296.399 6.55028L295.744 6.22277H292.469L290.504 7.53281L289.194 9.49788H288.539L289.194 7.53281L291.487 5.56775L292.142 5.24023Z" fill="#461365"/>
<path d="M131.657 69.1055H133.295V71.0705L132.312 72.0531L130.02 72.3806L130.347 70.4155L131.657 69.1055Z" fill="#FDFEFD"/>
<path d="M293.121 8.1875L295.086 8.51501L295.741 9.17003L295.414 11.1351L294.104 11.7901H293.121V8.1875Z" fill="#FDFEFD"/>
<path d="M177.837 69.1055H179.474V71.398L177.182 72.3806L176.199 72.0531L176.527 70.4155L177.837 69.1055Z" fill="#FDFEFD"/>
<path d="M178.166 68.123L180.459 68.4506L181.114 70.0881L180.131 72.0532L178.166 73.0357H177.184V72.0532L179.149 71.3982L179.476 69.1056L178.166 68.7781V68.123Z" fill="#DB176C"/>
<path d="M110.696 69.1055H112.334V71.0705L111.024 72.0531L109.059 72.3806L109.386 70.4155L110.696 69.1055Z" fill="#FDFEFD"/>
<path d="M298.363 8.1875L299.346 8.51501L300.001 10.4801V13.1002L299.346 15.0652L298.691 14.7377L299.018 11.7901L298.363 8.1875Z" fill="#6A136B"/>
<path d="M186.681 68.123H188.319L187.991 70.4156L187.009 70.0881V69.4331L185.371 70.0881L185.699 68.7781L186.681 68.123Z" fill="#DC1966"/>
<path d="M32.4239 68.123H33.4065V70.0881L32.4239 70.4156L31.4414 69.4331V68.4506L32.4239 68.123Z" fill="#4E126A"/>
</svg>
