<svg width="300" height="99" viewBox="0 0 300 99" fill="none" xmlns="http://www.w3.org/2000/svg">
<path d="M11.1599 0H55.0654L56.8275 0.293682L59.0301 1.02789L61.2327 2.20262L63.4353 4.11155L64.61 5.57996L65.9316 7.92942L66.6658 9.83835L67.1063 12.3346L67.4 15.5651V69.4558L67.2532 73.2737L66.9595 75.9168L66.3721 78.1194L65.3442 80.4689L64.1695 82.0841L62.9948 83.4057L60.939 84.8741L58.8832 85.6083L56.5338 85.902H12.1878L9.83835 85.6083L7.92941 84.8741L6.31416 83.9931L4.25839 82.231L2.78998 80.322L1.46841 77.9726L0.440523 75.1826L0 72.3926V13.5094L0.293682 11.1599L1.02789 8.81046L1.90893 6.75469L3.37734 4.40523L4.69891 2.93682L6.31416 1.76209L8.07625 0.881046L11.1599 0ZM18.0614 3.08366L11.8941 3.2305L10.132 3.52418L8.36994 4.40523L6.75469 5.7268L5.43312 7.19521L4.25839 9.25098L3.67103 10.8662L3.37734 12.7752L3.2305 40.5281V48.4575L3.37734 74.5952L3.67103 76.651L4.40523 78.4131L5.43312 80.0284L6.90153 81.4968L8.9573 82.6715L10.4257 83.112L13.2157 83.2589H46.6954L56.6806 83.112L58.2959 82.5247L59.9111 81.6436L61.6732 80.0284L62.7011 78.5599L63.4353 77.0915L64.0227 75.0358L64.1695 73.861V11.4536L63.8758 9.54467L63.1416 7.63573L61.8201 5.7268L60.4985 4.55207L58.4427 3.52418L56.9743 3.2305L55.3591 3.08366H18.0614ZM6.461 5.28628L6.60785 5.57996L6.75469 5.28628H6.461Z" fill="#0299E6"/>
<path d="M23.4966 10.5723H31.2792L32.1603 11.0128L32.6008 11.747L32.8945 31.8642V50.9535L32.7476 61.3793V75.3291L31.8666 75.476H25.4056L23.9372 75.3291L22.7624 74.1544L22.4688 73.1265V13.3622L22.6156 10.7191L23.4966 10.5723Z" fill="#0299E6"/>
<path d="M11.1616 10.5723H18.7973L19.8252 10.7191L20.2657 11.1596L20.4126 11.6002L20.5594 70.9239L20.7062 75.3291L19.2378 75.476H13.0705L11.7489 75.3291L11.0147 74.7418L10.7211 74.0076L10.5742 72.8329V10.8659L11.1616 10.5723Z" fill="#069BE6"/>
<path d="M34.9515 28.4863H36.2731L40.091 29.2205L42.5873 29.9547L44.9367 30.9826L47.1393 32.3042L49.4888 34.2131L51.9851 36.7094L53.4535 38.7652L54.6282 40.821L55.6561 43.1704L56.3903 45.9604L56.5372 46.9883L56.684 75.3286L56.5372 75.4755H52.1319L47.8735 75.3286L46.9925 74.5944L46.552 73.5665V48.8972L46.2583 46.2541L45.3772 44.0515L44.4962 42.5831L43.1746 41.1147L41.7062 40.0868L39.9441 39.2057L36.8605 38.3247L35.0984 37.7373L34.8047 37.4436V28.6332L34.9515 28.4863Z" fill="#0299E6"/>
<path d="M81.6492 10.5723H86.9354L87.6696 10.8659L88.1102 11.4533L88.257 11.8938V21.1448L97.8017 20.998L97.9485 10.8659L98.2422 10.5723H103.822L104.556 11.1596L104.85 12.0407L104.997 39.4999L104.85 39.6468H100.298L99.2701 39.4999L98.2422 38.6189L97.9485 37.7379V27.0185H87.9633L88.257 27.1653V39.6468H83.8518L82.3834 39.3531L81.6492 38.9126L81.5023 38.6189L81.3555 36.8568V11.6002L81.6492 10.5723Z" fill="#0299E6"/>
<path d="M123.791 46.8418H128.343L129.224 47.2823L129.518 47.8697V55.6523L130.252 55.2117L131.133 54.4775L132.749 53.7433L133.483 53.5965H136.126L138.182 54.3307L139.797 55.3586L140.825 56.3865L142.146 58.4422L142.881 60.2043L143.468 62.9943L143.615 64.7564V66.959L143.174 69.3085L142.44 71.0706L141.412 72.8327L139.797 74.5947L138.769 75.329L137.154 75.6226H134.511L132.749 75.4758L131.133 74.5947L129.371 73.2732L129.078 73.1263L129.371 73.7137L129.518 75.1821L129.078 75.4758H127.169L125.407 75.1821L124.085 74.3011L123.645 73.7137V46.9886L123.791 46.8418ZM133.336 59.0296L131.868 59.7638L131.133 60.3512L130.252 61.6727L129.812 62.8475L129.665 63.7285V67.1059L130.252 68.7211L131.133 69.749L132.308 70.3364H134.217L135.392 69.749L136.567 68.4274L137.007 67.1059L137.154 66.2248V62.5538L136.86 61.2322L136.126 60.0575L135.098 59.1764L134.658 59.0296H133.336ZM129.812 60.3512L129.518 61.0854L129.665 61.5259L129.959 60.7917L129.812 60.3512Z" fill="#0299E6"/>
<path d="M114.683 17.4746H118.354L120.851 18.062L123.2 19.2367L124.081 19.9709L125.109 21.5862L125.696 23.3483L125.843 24.0825L125.99 36.8576L126.431 38.1792L127.165 39.3539V39.6476H121.732L120.704 39.2071L119.676 38.1792L119.235 37.5918V38.4729L118.501 39.3539L117.326 39.9413L116.152 40.235H112.774L110.865 39.6476L109.25 38.6197L108.222 37.5918L107.194 35.8297L106.754 34.2145V32.1587L107.341 30.3966L108.222 29.0751L109.544 27.9003L111.893 26.7256L114.243 26.2851L117.62 25.6977L118.942 25.1103L119.529 24.523L119.382 23.4951L118.795 22.9077L116.886 22.614H115.564V22.9077H115.271L114.977 23.4951L114.39 23.7888L114.096 23.6419L113.949 24.9635L113.655 25.404L112.628 25.5509H109.984L108.81 25.2572L107.782 24.6698L107.635 24.3761V22.9077L108.369 21.1456L109.397 19.6772L110.865 18.6493L112.481 17.9151L114.683 17.4746ZM119.235 29.8093L118.354 30.3966L115.858 30.8371L115.124 31.1308V31.4245L113.802 31.865L113.068 32.3056L112.921 33.6271L113.362 34.655L114.096 35.2424H116.152L117.62 34.655L118.795 33.6271L119.235 33.0398L119.529 31.865V29.9561L119.235 29.8093Z" fill="#0299E6"/>
<path d="M34.9499 40.5273H36.5652L38.621 40.9679L39.9425 41.5552L41.2641 42.4363L42.7325 43.9047L43.7604 45.5199L44.3478 46.9883L44.4946 47.7226L44.6414 69.7487L44.7883 75.3287L41.5578 75.4755H38.7678L35.9778 75.3287L35.0968 74.7413L34.8031 74.1539L34.6562 73.126L34.8031 40.6742L34.9499 40.5273Z" fill="#0299E6"/>
<path d="M170.339 17.3281H173.422L175.331 17.6218L176.946 18.2092L179.002 19.5307L180.471 20.9992L181.645 22.9081L182.379 24.5233L182.82 26.1386L182.967 27.1665V31.5717L182.526 33.9212L181.352 36.2706L180.471 37.4453L179.736 38.1796L178.415 39.2074L176.653 39.9416L175.331 40.2353L174.01 40.3822H171.807L169.017 39.9416L166.667 38.9138L165.199 37.739L163.878 36.4175L162.85 34.8022L162.115 33.3338L161.381 30.6907L161.234 29.9565V27.3133L161.675 25.1107L162.556 22.7612L163.437 21.146L164.759 19.6776L166.08 18.6497L167.989 17.7686L170.339 17.3281ZM171.513 22.7612L170.045 23.6423L169.017 24.6702L168.283 26.1386L167.989 27.3133L167.842 28.7817V30.8375L168.136 32.3059L168.87 33.6275L169.898 34.5085L171.366 34.949H172.688L174.156 34.3617L175.331 33.3338L176.065 32.0122L176.653 29.8096L176.8 27.9007L176.212 25.2575L175.331 23.7891L174.45 23.0549L173.716 22.7612H171.513Z" fill="#0299E6"/>
<path d="M148.899 17.3281H151.101L153.304 17.6218L155.066 18.2092L156.828 19.2371L158.003 20.4118L159.031 22.027L159.765 23.936L159.912 24.817L159.765 25.1107L156.975 25.2575H154.919L153.891 24.6702L152.57 22.9081L151.542 22.4676L149.193 22.6144L147.871 22.9081L147.284 23.3486L147.43 23.936L148.458 24.817L150.074 25.4044L153.745 26.2854L155.507 26.8728L157.122 27.7538L158.59 28.9286L159.618 30.397L160.206 32.0122L160.499 33.6275L160.352 34.949L159.765 36.5643L158.737 37.8859L157.416 39.0606L155.8 39.7948L154.038 40.2353L152.57 40.3822H149.78L146.99 39.9416L144.64 38.9138L143.466 38.0327L142.438 37.1517L141.41 35.6833L140.823 34.068L140.676 32.5996L141.116 32.1591L142.438 32.0122H145.375L146.109 32.3059L147.577 34.2148L148.312 34.8022L149.193 35.0959H151.983L153.451 34.3617L153.891 33.7743L153.745 32.8933L152.57 32.3059L148.899 31.4249L145.081 30.1033L143.172 28.7817L142.144 27.607L141.41 25.9917L141.263 24.0828L141.41 22.9081L142.144 21.146L143.172 19.8244L144.347 18.7965L146.109 17.9155L147.577 17.475L148.899 17.3281Z" fill="#0299E6"/>
<path d="M189.426 53.4492H191.922L194.271 53.8897L196.033 54.6239L197.649 55.7987L198.823 57.1202L199.264 58.1481L199.411 59.0292L199.558 63.1407V72.2449L199.998 73.5664L200.879 75.3285L200.732 75.4754L195.74 75.3285L194.565 74.4475L193.537 73.4196H193.243L192.95 74.4475L191.922 75.3285L189.572 75.7691H187.223L185.901 75.4754L184.286 74.5943L183.258 73.7133L182.23 72.2449L181.496 70.3359V67.8396L182.083 65.9307L183.111 64.4623L184.873 63.1407L186.342 62.5534L190.307 61.8192L192.509 61.3786L193.243 60.7913L193.537 60.0571L193.39 59.3229L192.509 58.8823H189.132L188.251 59.0292L188.985 59.4697L188.838 60.0571L188.104 61.085L186.929 61.5255L184.286 61.6723L182.965 61.085L182.23 60.2039L182.083 59.6165L182.671 57.8544L183.552 56.2392L185.02 54.9176L186.782 54.0366L188.398 53.5961L189.426 53.4492ZM193.243 65.7839L190.894 66.5181L188.838 67.1054L187.81 67.546L187.37 67.9865V69.308L187.81 70.3359L188.544 71.0701L189.719 71.217L192.069 70.0423L192.803 69.4549L193.39 68.427L193.537 67.546V65.7839H193.243Z" fill="#0299E6"/>
<path d="M110.426 53.4492H112.482L114.831 53.8897L116.74 54.6239L117.915 55.505L118.943 56.5329L119.677 57.7076L120.118 59.0292L120.265 59.7634L120.411 71.217L120.558 72.8322L121.146 74.1538L121.439 75.1817H120.118H119.824L118.649 75.4754H117.034L115.859 74.888L114.244 73.2728H113.95V74.3006L112.923 75.1817L111.307 75.6222L109.986 75.7691H108.077L106.315 75.3285L104.993 74.4475L103.672 73.2728L102.79 71.8043L102.35 70.7765L102.203 70.0423V68.1333L102.644 66.2244L103.672 64.6091L104.846 63.5812L106.315 62.847L108.517 62.2597L112.776 61.5255L114.097 61.085L114.244 59.6165L113.804 59.0292L113.363 58.8823H109.692L109.251 59.0292H109.545L109.692 60.0571L108.958 60.9381L107.636 61.6723L107.489 61.3786L106.462 61.5255H104.699L103.672 61.085L103.084 60.6444L102.937 60.2039V59.176L103.672 57.2671L104.699 55.9455L106.021 54.7708L107.489 54.0366L109.251 53.5961L110.426 53.4492ZM113.95 65.7839L111.748 66.5181L109.251 67.2523V67.546L108.37 67.6928L108.224 67.8396V69.308L108.664 70.6296L109.251 71.0701L110.279 71.217L112.041 70.4828L112.923 69.8954L113.804 68.8675L114.244 67.6928L114.391 65.9307L113.95 65.7839Z" fill="#0299E6"/>
<path d="M268.429 53.4492H270.926L273.128 53.8897L275.478 55.0645L276.946 56.386L278.121 58.0013L279.002 59.7634L279.589 62.1128L280.03 65.7839L279.736 66.5181L274.009 66.6649H268.576L266.374 66.5181L266.08 66.3712L267.108 69.1612L267.842 70.0423L269.017 70.4828H271.073L272.247 69.8954L272.981 69.308L273.863 68.2802H277.974L279.002 68.7207L279.589 69.6017L279.442 70.7765L278.561 72.3917L277.387 73.7133L275.771 74.888L274.45 75.4754L272.394 75.9159H269.751L267.548 75.4754L265.786 74.7412L264.171 73.5664L262.556 71.9512L261.381 69.8954L260.647 67.546L260.5 66.0775V62.5534L260.941 60.0571L261.675 58.295L262.996 56.386L264.465 55.0645L266.227 54.0366L267.548 53.5961L268.429 53.4492ZM270.045 58.7355L269.017 59.176L268.283 59.9102L266.667 61.2318L266.52 61.966L266.961 62.1128H273.275L273.569 61.966L273.422 60.9381L272.688 59.7634L271.807 59.0292L270.926 58.7355H270.045ZM268.576 58.8823L268.136 59.176V59.4697L268.723 59.176L269.164 58.8823H268.576Z" fill="#0399E6"/>
<path d="M153.008 53.4492H157.119L158.881 53.8897L160.937 54.9176L162.552 56.2392L163.874 58.0013L164.902 60.0571L165.489 61.8192L165.783 63.5812V67.6928L165.342 69.6017L164.167 71.9512L163.14 73.2728L162.405 74.007L161.231 74.888L160.056 75.4754L157.706 75.9159H154.476L152.273 75.4754L150.511 74.7412L148.749 73.4196L147.281 71.8043L145.959 69.4549L145.225 67.2523L145.078 66.0775V62.7002L145.519 60.3507L146.253 58.5887L147.134 57.1202L148.455 55.6518L149.63 54.7708L151.833 53.7429L153.008 53.4492ZM154.916 58.8823L153.448 59.6165L152.42 60.7913L151.686 62.2597L151.392 63.7281V67.2523L152.126 69.0144L152.714 69.7486L153.889 70.3359L154.476 70.4828H155.944L157.266 69.8954L158.294 69.1612L159.028 67.9865L159.469 66.2244L159.615 62.9939L159.322 61.3786L158.587 59.9102L157.56 59.0292L157.119 58.8823H154.916Z" fill="#0299E6"/>
<path d="M222.174 53.4492H226.285L228.048 53.8897L229.956 54.9176L231.572 56.2392L232.746 57.5608L233.921 59.6165L234.802 62.2597L234.949 63.4344V66.6649L234.509 69.1612L233.921 70.9233L232.893 72.5385L231.719 73.8601L229.956 75.0348L228.194 75.6222L225.404 75.9159L222.908 75.7691L220.559 75.1817L218.503 74.007L217.034 72.6854L215.713 70.6296L214.685 68.2802L214.244 66.8118L214.098 64.9028L214.244 61.8192L215.126 59.176L216.153 57.2671L217.622 55.6518L219.531 54.3303L221.44 53.5961L222.174 53.4492ZM224.377 58.7355L223.055 59.176L222.174 59.7634L221.293 60.7913L220.559 62.5534L220.412 63.2876L220.265 66.2244L220.559 67.8396L221.293 69.308L222.468 70.1891L223.495 70.4828H224.964L226.432 69.8954L227.607 68.8675L228.341 67.3991L228.635 66.2244L228.782 64.0218L228.488 61.6723L227.607 59.9102L226.726 59.176L226.139 58.8823L224.377 58.7355Z" fill="#0299E6"/>
<path d="M195.154 17.4746H198.091L200 18.062L201.468 18.943L202.496 19.8241L203.524 21.2925L204.111 22.614L204.258 23.2014L204.405 39.5008L204.258 39.6476H200.881L199.265 39.5008L198.384 38.9134L198.091 38.326L197.944 24.9635L197.356 23.6419L196.475 22.9077L195.301 22.7609L194.126 23.0546L192.658 23.9356L191.777 25.1103L191.483 25.8445L191.336 26.7256V39.5008L190.895 39.6476H187.224L185.903 39.3539L185.169 38.6197L185.022 38.326L184.875 28.3408V25.1103L185.022 17.9151L185.169 17.7683H190.161L190.455 18.2088L190.749 19.3835L191.189 19.5304L192.804 18.3557L193.979 17.7683L195.154 17.4746Z" fill="#0299E6"/>
<path d="M288.107 53.4492H291.925L294.274 54.0366L295.89 54.9176L297.358 56.2392L298.239 57.4139L298.973 59.0292L299.267 60.0571V60.9381L299.12 61.085L295.155 61.2318L293.981 60.7913L292.806 59.4697L292.219 58.5887L291.191 58.4418L288.694 58.7355L287.666 59.0292L287.52 59.6165L288.107 60.3507L289.575 61.085L291.631 61.6723L294.421 62.4065L296.771 63.5812L297.945 64.6091L299.267 66.5181L300.001 68.427V70.6296L299.267 72.3917L298.239 73.7133L296.771 74.888L295.449 75.4754L293.834 75.7691L292.072 75.9159H289.575L286.932 75.4754L285.464 74.888L283.995 73.8601L282.674 72.5385L281.793 71.0701L281.205 69.6017L281.059 68.1333L281.205 67.8396L281.646 67.6928L285.758 67.546L286.639 68.2802L287.813 70.0423L288.547 70.4828H292.365L293.54 69.8954L293.687 69.7486V68.5738L291.925 67.8396L289.429 67.2523L285.904 66.0775L284.436 65.3433L283.114 64.1686L282.086 62.7002L281.646 61.6723L281.499 60.0571L281.94 58.295L282.821 56.6797L284.142 55.2113L285.758 54.1834L287.226 53.5961L288.107 53.4492Z" fill="#0399E6"/>
<path d="M81.5023 46.8418H86.3481L87.6696 47.1355L87.9633 47.7228V69.4553H100.004L100.592 69.749L101.032 71.8048L101.179 75.1821L100.151 75.4758H84.8797L82.8239 75.329L81.6492 74.3011L81.3555 73.5669V47.4292L81.5023 46.8418Z" fill="#0399E6"/>
<path d="M203.964 48.457L208.81 48.6039L209.544 49.1912L209.838 50.0723V52.2749L209.691 54.037L211.159 54.1838L212.334 54.7712L213.068 55.9459L213.215 56.5333V57.8549L212.921 58.7359L212.628 58.8827L209.691 58.7359L209.838 59.1764V70.3363L212.04 70.63L212.775 71.3642L213.215 72.539V75.1821L212.921 75.4758H209.104L207.048 75.1821L205.579 74.301L204.552 73.2732L203.817 71.8048L203.67 59.0296L201.615 58.2954L201.174 57.8549L201.027 57.4143V54.4775L201.174 54.3307L203.67 54.037L203.817 48.6039L203.964 48.457Z" fill="#0299E6"/>
<path d="M139.06 17.3281H140.088L140.969 17.9155L141.556 19.2371L141.41 21.4397L141.263 23.2018L140.675 23.7891L138.766 23.936L138.032 24.5233L136.564 25.4044L135.683 25.8449L135.389 27.4602V39.2074L135.242 39.648H131.131L129.662 39.3543L128.928 38.6201L128.781 38.1795V17.9155L128.928 17.7686H133.627L134.214 18.0623L134.508 20.4118H134.802L135.095 19.8244L136.711 18.356L138.473 17.475L139.06 17.3281ZM137.739 23.936L137.445 24.3765L138.473 24.0828V23.936H137.739Z" fill="#0299E6"/>
<path d="M178.121 53.4492H179.59L180.324 54.0366L180.764 55.505V59.9102L177.534 60.0571L176.359 60.6444L175.184 61.966L174.744 63.2876L174.597 64.6091V75.3285L174.45 75.4754H171.073L169.751 75.1817L168.87 74.5943L168.43 73.7133V64.1686L168.577 54.1834L168.723 54.0366H173.275L173.716 54.3303L174.303 55.7987L174.891 55.6518L176.065 54.4771L177.24 53.7429L178.121 53.4492ZM174.744 60.7913L174.45 61.3786V62.1128L174.744 61.5255L174.891 60.7913H174.744Z" fill="#0299E6"/>
<path d="M247.138 53.3027H248.313L249.194 54.0369L249.488 54.7711L249.635 56.6801V59.7637L249.341 59.9106H245.964L245.817 60.3511L245.229 60.7916H244.936L244.642 61.5258L243.761 62.26L243.614 75.182L242.733 75.4757L239.356 75.3289L238.181 74.7415L237.741 74.1542L237.594 73.42V54.7711L237.887 54.0369H242.44L242.733 54.4775L242.88 56.0927L243.908 55.5053L245.229 54.3306L247.138 53.3027Z" fill="#0299E6"/>
<path d="M252.276 54.0371H256.829L257.563 54.7713L258.003 55.7992L258.15 68.1338V74.8885L257.856 75.3291L257.269 75.4759H254.92L253.158 75.1822L252.13 74.3012L251.836 73.7138V54.3308L252.276 54.0371Z" fill="#0299E6"/>
<path d="M105.875 85.4609H107.049L107.931 85.9015L108.518 87.0762L108.665 93.684V96.7677L108.518 97.9424L108.077 98.0893H107.196L105.875 97.2082L104.847 96.1803L102.351 92.0688L101.323 90.4535L100.882 89.8662V97.9424L99.5606 97.7956L98.239 97.0614L97.9453 96.6209V86.0483L98.239 85.6078H100.588L101.616 86.4888L102.791 88.3978L104.553 91.7751L105.581 93.2435L105.728 92.5093V85.7546L105.875 85.4609Z" fill="#989EA3"/>
<path d="M85.7593 84.875H86.934L88.8429 85.4624L90.3113 86.4903L91.3392 87.665L91.7798 88.8397V89.8676L90.605 89.7208L89.1366 88.8397L87.815 87.9587L87.3745 87.8118H86.1998L84.8782 88.2523L84.7314 88.546L85.1719 89.4271L86.3466 90.1613L88.9898 90.7486L90.4582 91.4828L91.6329 92.5107L91.9266 93.2449L92.0734 95.3007L91.7798 96.4754L91.1924 97.3565L90.0177 97.9438L88.9898 98.2375L88.2556 98.3844L88.4024 98.8249H87.2277L84.7314 97.797L83.4098 96.916L82.3819 95.8881L81.9414 95.007V93.9791L82.3819 93.5386L83.5567 93.6855L85.3187 95.1539L86.053 95.4476H87.9619L88.9898 95.007L89.1366 94.126L88.5493 93.5386L87.0808 93.0981L85.1719 92.6576L83.5567 91.7765L82.8225 91.1892L82.0882 90.0144L81.9414 89.5739V87.9587L82.6756 86.6371L83.9972 85.4624L85.0251 85.0218L85.7593 84.875Z" fill="#979DA2"/>
<path d="M122.905 85.4609H131.275L132.009 87.5167V88.1041L125.695 87.9572L125.841 88.8383V90.013H130.687L131.421 91.1877L131.715 92.9498H125.695L125.841 94.1246V95.4461H131.421L132.449 96.6209L132.89 97.5019V97.7956H124.373L123.345 97.3551L122.905 96.6209L122.758 88.3978V85.6078L122.905 85.4609Z" fill="#959BA0"/>
<path d="M114.829 84.875L116.297 85.0218L118.206 85.756L119.381 86.6371L120.408 87.8118L120.849 88.8397L120.996 90.0144L120.262 90.3081L119.527 90.1613L117.178 88.1055L116.591 87.8118L115.269 87.9587L113.947 89.1334L113.213 90.6018L113.066 91.336V93.2449L113.507 94.5665L114.388 95.3007L114.829 95.4476H116.444L117.325 94.8602L117.912 94.126L118.5 93.2449H119.381L120.702 94.2728L120.849 94.7133V95.7412L120.262 96.6223L119.087 97.6502L117.912 98.3844L117.619 98.2375L117.765 98.0907L117.472 97.9438L117.178 98.6781L116.591 98.9717L114.535 98.2375L112.626 97.2096L111.304 96.0349L110.423 94.5665L109.983 93.3918L109.836 92.6576V90.6018L110.423 88.546L111.158 87.2245L111.745 86.4903L113.36 85.4624L114.829 84.875Z" fill="#979DA2"/>
<path d="M150.661 85.4609L152.423 85.6078L153.598 86.1951L154.626 87.223L155.653 89.2788L155.947 91.4814V94.7119L155.36 96.1803L154.479 97.5019L152.717 98.8235L152.423 98.9703H151.542L149.927 98.0893L148.458 96.7677L147.724 95.593L147.577 95.0056L147.724 94.5651L148.752 94.7119L150.367 95.7398L151.542 95.8866L152.423 95.2993L152.864 94.5651L153.01 93.9777H150.514L149.046 93.2435L147.577 91.9219L147.137 91.1877V88.8383L147.724 87.3699L148.605 86.342L149.927 85.6078L150.661 85.4609ZM150.808 87.6636V88.1041L150.22 88.9851L150.074 89.4256V90.6004L150.367 91.3346L150.955 91.6283L151.982 91.4814L152.717 90.8941L152.864 90.4535V88.9851L152.129 88.1041L151.395 87.6636H150.808ZM152.864 97.2082L152.276 97.9424L152.864 97.6487V97.2082Z" fill="#979CA1"/>
<path d="M169.458 85.4609L171.22 85.6078L172.395 86.1951L173.716 87.6636L174.304 88.9851L174.597 91.0409V94.8588L174.01 96.474L172.835 98.0893L171.807 98.8235L170.339 98.6766L168.283 97.6487L166.961 96.3272L166.227 94.8588L165.934 93.8309V89.5725L166.374 87.8104L166.961 86.7825L167.989 85.9015L169.458 85.4609ZM169.605 87.6636L169.164 88.1041L169.017 89.132L168.87 91.7751V94.2714L169.164 95.4461L169.605 95.8866L170.192 96.0335L170.926 95.593L171.367 94.8588L171.514 94.1246V89.4256L171.22 88.3978L170.339 87.8104L169.605 87.6636Z" fill="#969CA1"/>
<path d="M161.378 85.6074H164.168L165.049 86.1948L165.489 87.2227V87.9569L164.461 89.5721L162.699 92.8026L161.818 94.7116L161.231 97.6484L160.79 98.0889L159.762 97.7952L158.881 97.2079L158.294 96.6205L158.147 96.0331L158.735 93.9774L160.203 90.8937L161.084 89.4253L161.525 88.5442H158L156.826 88.1037L156.238 86.929L156.385 86.1948L157.119 85.7543L161.378 85.6074ZM163.287 89.2784L162.259 90.7469L161.525 92.5089L161.378 93.2432L161.818 92.6558L162.846 90.7469L163.433 89.5721L163.287 89.2784Z" fill="#989EA3"/>
<path d="M93.2484 85.6074H95.3042L96.0384 86.0479L96.3321 86.4885L96.4789 88.1037V94.7116L96.6257 97.7952L96.4789 97.9421L94.8637 97.7952L93.3952 97.061L93.1016 96.18V86.0479L93.2484 85.6074Z" fill="#989EA3"/>
<path d="M142.146 85.6074H143.027L143.761 86.7822L143.908 87.2227V98.0889L142.88 97.9421L141.118 96.9142L140.971 96.4737V90.0127L140.531 89.719L139.65 89.5721L138.475 88.8379L138.328 88.3974L138.915 87.81L140.678 87.0758L142.146 85.6074Z" fill="#9A9FA4"/>
<path d="M254.331 46.2559L256.093 46.4027L257.267 46.9901L257.855 47.7243L258.149 48.4585V52.4232H253.596L252.569 52.1295L251.834 51.1016L251.688 50.2206V48.1648L251.981 47.2837L252.862 46.5495L254.331 46.2559Z" fill="#069BE7"/>
</svg>
