<svg width="154" height="100" viewBox="0 0 154 100" fill="none" xmlns="http://www.w3.org/2000/svg">
<path d="M37.4991 0H40.7683L43.076 0.769231L45.1914 2.30769L46.5376 3.84615L47.6914 6.34615L47.8837 7.11538V10.3846L47.1145 12.5L45.7683 14.6154L44.0376 16.1538L41.5376 17.3077L39.8068 17.6923H38.2683L35.9606 17.1154L34.0376 16.1538L32.3068 14.6154L30.7683 12.3077L30.1914 10V7.5L30.9606 5L32.1145 3.07692L33.8453 1.53846L35.9606 0.384615L37.4991 0Z" fill="#DE0371"/>
<path d="M8.27043 64.4238H10.9627L13.2704 68.4623L15.9627 73.27L16.732 74.6161H17.1166L19.4243 70.3854L21.9243 65.9623L22.6935 64.4238H25.5781L25.7704 64.6161V85.0008H22.3089L22.1166 73.0777L20.1935 76.5392L18.0781 80.1931L17.6935 80.5777H16.3474L15.3858 79.8084L12.1166 73.6546L11.732 73.0777L11.5397 85.0008H8.07812V64.6161L8.27043 64.4238Z" fill="#1F1F21"/>
<path d="M6.53846 19.0391H9.80769L12.3077 20.0006L14.4231 21.9237L15.5769 23.8468L16.1538 25.5775V28.2698L15.3846 30.5775L13.4615 33.0775L10.9615 34.616L9.23077 35.0006H6.53846L4.23077 34.2314L2.5 32.8852L1.15385 31.3468L0.192308 29.4237L0 28.8468V24.616H0.384615L0.769231 23.2698L2.30769 21.1544L4.23077 19.8083L5.57692 19.2314L6.53846 19.0391Z" fill="#DE0371"/>
<path d="M55.3852 35.9609H58.8468L61.1544 36.9225L62.6929 38.0763L63.8468 39.4225L64.8083 41.3456L65.1929 42.4994V45.384L64.2314 47.6917L63.0775 49.2302L61.5391 50.5763L59.616 51.5379L58.2698 51.9225H56.1544L53.6544 51.1532L51.9237 49.9994L50.1929 48.0763L49.2314 45.7686L49.0391 43.6532L49.4237 41.3456L50.3852 39.4225L52.116 37.4994L54.0391 36.3456L55.3852 35.9609Z" fill="#5582C2"/>
<path d="M52.4997 69.8086L54.8074 70.0009L56.7305 70.7701L57.692 71.7317H58.4612L59.8074 70.5778L61.1535 70.0009L63.4612 69.8086L65.5766 70.3855L66.7305 71.1547L67.692 72.1163L68.8459 73.8471L69.4228 75.7701L69.6151 77.1163V83.4624L69.4228 85.0009L68.8459 85.1932L66.1535 85.0009L65.9612 84.0394V79.0394L65.7689 75.9624L64.9997 74.424L64.0382 73.6547L62.4997 73.4624L61.3459 74.0394L60.5766 75.0009L59.9997 76.5394L59.8074 85.0009H56.3459L56.1535 76.3471L55.3843 74.6163L54.4228 73.6547L52.692 73.4624L51.5382 74.2317L50.9612 74.8086L50.3843 76.5394L50.192 85.0009H46.7305V70.5778L47.4997 70.3855H50.5766L52.4997 69.8086Z" fill="#201F22"/>
<path d="M117.692 69.8086L120.384 70.0009L122.307 70.7701L124.038 72.1163L125.384 74.0394L126.153 76.5394V78.6547L125.384 80.9624L123.846 83.0778L121.922 84.424L120.384 85.0009L119.23 85.1932H117.692L115.192 84.424L113.076 82.8855L111.922 81.3471L111.153 79.6163L110.961 78.8471V76.5394L111.346 74.8086L112.307 72.8855L113.846 71.3471L115.576 70.3855L116.538 70.0009L117.692 69.8086Z" fill="#202022"/>
<path d="M35.7707 69.8086L38.8477 70.1932L40.7707 71.1547L41.9246 72.1163L43.2707 74.2317L43.8477 75.7701V79.2317L43.0784 81.3471L41.3477 83.2701L40.3861 84.0394L38.2707 85.0009L37.1169 85.1932H35.5784L33.0784 84.424L31.3477 83.2701L29.8092 81.5394L29.04 80.0009L28.8477 79.2317V75.7701L29.6169 73.8471L30.7707 72.3086L32.5015 70.7701L34.4246 70.0009L35.7707 69.8086Z" fill="#202022"/>
<path d="M78.2701 69.8086H81.3471L83.4624 70.5778L85.9624 72.5009L85.5778 73.2701L82.8855 76.924L80.9624 79.424L79.8086 80.9624L79.6163 81.5394L81.7317 80.9624L83.2701 79.6163L84.0394 78.6547L85.0009 79.0394L86.5394 80.3855L86.3471 81.5394L84.2317 83.6547L82.3086 84.6163L80.9624 85.0009H78.6547L76.3471 84.2317L74.424 82.8855L72.8855 80.7701L72.3086 79.0394V75.7701L73.0778 73.6547L74.2317 72.1163L75.7701 70.7701L77.5009 70.0009L78.2701 69.8086Z" fill="#201F22"/>
<path d="M94.4234 69.8086L96.3465 70.0009L98.0772 70.7701L99.6157 72.1163L100.577 73.4624L101.346 75.7701L101.539 77.5009V83.2701L101.346 85.0009H97.8849L97.6926 76.1547L96.9234 74.424L95.9618 73.6547L94.2311 73.4624L93.0772 74.2317L92.308 75.1932L91.9234 76.3471L91.7311 85.0009H88.2695V70.5778L89.0388 70.3855H92.1157L94.4234 69.8086Z" fill="#1F1F21"/>
<path d="M29.8095 29.4238L32.3095 29.6161L34.6172 30.77L35.9633 32.3084L36.7326 34.0392L36.9249 34.8084V36.5392L36.348 38.27L35.1941 39.8084L33.6556 40.9623L32.3095 41.5392H29.2326L27.3095 40.5777L25.771 39.0392L25.0018 37.5008L24.6172 35.1931L25.1941 32.8854L26.348 31.3469L27.8864 30.1931L29.8095 29.4238Z" fill="#5582C2"/>
<path d="M147.693 69.6152H150.578L152.693 70.3845L153.847 70.9614V81.346L152.501 83.4614L150.962 84.6152L150.001 84.9998H147.308L145.001 84.2306L144.039 83.6537L144.231 82.4998L145.193 80.5768L147.116 81.1537L147.693 81.346H149.231L150.001 80.5768L150.193 79.8075L149.808 79.0383L147.693 78.2691L146.154 77.4998L145.001 76.5383L144.231 74.9998V72.8845L145.001 71.346L146.347 70.1922L147.693 69.6152Z" fill="#202022"/>
<path d="M13.6523 43.4609H15.7677L17.4985 44.2302L19.037 45.5763L19.9985 47.1148L20.3831 48.8456L20.1908 50.9609L19.037 53.0763L17.6908 54.2302L15.7677 54.9994L14.2293 55.1917L11.9216 54.6148L10.7677 53.8456L9.42157 52.3071L8.65234 50.384V47.884L9.61388 45.5763L10.96 44.4225L12.4985 43.6532L13.6523 43.4609Z" fill="#FCAE4F"/>
<path d="M130.768 70.3848H132.114L132.306 70.9617V77.6925L132.691 79.6155L133.652 80.9617L134.614 81.3463L136.537 81.154L137.498 80.3848L138.075 79.4232L138.268 78.0771L138.46 70.5771L138.652 70.3848L141.922 70.5771V78.4617L141.345 80.9617L139.998 83.0771L138.46 84.2309L136.537 85.0002H134.037L132.114 84.2309L130.191 82.5002L129.037 80.1925L128.652 78.0771V70.5771L130.768 70.3848Z" fill="#202022"/>
<path d="M104.615 67.6914H107.885L108.077 67.8837V70.1914H109.615L110 70.3837V73.6529L109.615 73.8453H108.077V84.2299L107.692 85.1914L104.615 84.9991V73.8453H102.885L102.5 73.6529V70.3837L103.077 70.1914H104.231L104.615 67.6914Z" fill="#202022"/>
<path d="M118.076 73.2695L119.999 73.4618L121.537 74.4234L122.499 75.9618L122.691 76.7311V78.2695L122.114 79.808L120.768 81.1541L118.845 81.7311L117.114 81.5388L115.768 80.7695L114.614 79.2311L114.422 78.4618V76.3465L115.383 74.6157L116.345 73.8465L118.076 73.2695Z" fill="#FDFDFD"/>
<path d="M35.7701 73.2695L37.8855 73.4618L39.424 74.4234L40.1932 75.5772L40.3855 76.1541V78.8465L39.6163 80.1926L38.4624 81.1541L36.5394 81.7311L34.424 81.3465L32.8855 80.0003L32.3086 78.6541V76.1541L33.2701 74.6157L34.424 73.6541L35.7701 73.2695Z" fill="#FDFDFD"/>
<path d="M35.0018 50H37.5018L39.0403 50.9615L40.0018 52.1154L40.3864 53.0769V54.8077L39.8095 56.1538L38.6556 57.5L37.5018 58.0769H35.0018L33.4633 57.1154L32.3095 55.5769L32.1172 55V53.2692L32.6941 51.9231L33.6556 50.7692L35.0018 50Z" fill="#DD0472"/>
<path d="M47.116 22.8848H48.4621L49.8083 23.4617L50.9621 24.4232L51.7314 26.154L51.5391 28.0771L50.7698 29.4232H50.3852V29.8078L48.4621 30.5771H47.116L45.1929 29.6155L44.4237 28.654L44.0391 27.1155V25.5771L44.616 24.4232L45.7698 23.4617L47.116 22.8848Z" fill="#FCAE4F"/>
<path d="M79.6151 90.5762H83.2689L84.8074 90.9608L85.9612 92.4992L86.1535 94.23L85.5766 95.3839L84.4228 96.3454L84.8074 97.3069L85.9612 99.0377L86.1535 99.9992L84.9997 99.8069L83.2689 97.1146L83.0766 96.73L80.7689 96.5377L80.5766 99.8069H79.4228L79.2305 99.4223V90.9608L79.6151 90.5762Z" fill="#23272D"/>
<path d="M111.73 93.0762H114.038L115.192 93.8454L115.961 94.9992L116.154 96.73L115.961 96.9223H110.577L111.154 98.2685L111.923 98.8454H113.461L115.384 97.6916H115.769L115.384 98.8454L114.423 99.6146L113.461 99.9992H111.923L110.769 99.4223L109.615 98.0762L109.23 97.1146V95.7685L110 94.23L111.154 93.2685L111.73 93.0762Z" fill="#212327"/>
<path d="M92.1163 93.0762H94.424L95.5778 93.8454L96.5394 95.3839L96.7317 96.73L95.5778 96.9223H91.1547L91.7317 98.2685L92.5009 98.8454H94.0394L95.5778 97.8839H96.1547L95.7701 98.8454L94.8086 99.6146L93.8471 99.9992H92.5009L90.9624 99.23L89.8086 97.4992V95.5762L90.5778 94.0377L92.1163 93.0762Z" fill="#222328"/>
<path d="M121.733 93.0762H124.04L125.194 94.0377L125.579 95.5762L125.771 98.8454L125.963 99.8069L125.386 99.9992L124.809 99.8069L124.617 99.0377L123.271 99.8069L121.54 99.9992L120.386 99.4223L119.809 98.6531L119.617 97.3069L120.194 96.3454L121.54 95.7685H124.233V94.8069L123.656 94.23H121.733L120.002 94.4223L120.194 93.6531L121.733 93.0762Z" fill="#222429"/>
<path d="M60.963 93.0762H63.2707L64.2323 93.8454L64.6169 94.6146L64.8092 96.73V98.2685L65.1938 99.8069L64.6169 99.9992L63.8477 99.4223V99.0377L61.9246 99.9992L60.1938 99.8069L59.04 98.8454L58.8477 97.1146L59.8092 96.1531L60.963 95.7685H63.6553L63.0784 94.4223L62.6938 94.23H60.7707L60.3861 94.4223H59.2323L59.4246 93.6531L60.963 93.0762Z" fill="#22252A"/>
<path d="M12.5015 90.5762H14.2323L15.7707 91.3454L16.7323 92.4992V93.0762L15.7707 92.8839L14.4246 91.9223H12.3092L11.1553 92.6916L10.5784 93.6531L10.3861 94.0377V95.9608L10.963 97.4992L12.1169 98.4608L13.8477 98.6531L15.5784 97.8839L16.1553 97.3069H16.7323V98.2685L15.3861 99.4223L14.2323 99.8069H12.3092L10.7707 99.0377L9.61689 97.6916L9.03996 96.3454L8.84766 94.9992L9.42458 92.8839L10.3861 91.5377L11.7323 90.7685L12.5015 90.5762Z" fill="#212226"/>
<path d="M147.885 90.1914L148.654 90.3837V94.0376L150.385 93.076H152.308L153.077 93.8453L153.462 94.9991V99.8068H152.308L152.115 94.9991L151.923 94.2299H150.577L149.231 94.8068L148.846 96.5376L148.654 99.8068H147.692L147.5 97.4991V93.6529L147.692 90.3837L147.885 90.1914Z" fill="#212226"/>
<path d="M33.2704 93.0762L34.232 93.2685L34.4243 93.8454L36.155 93.0762H38.0781L38.8474 93.8454L39.0397 94.4223V99.8069H37.8858L37.6935 94.8069L37.3089 94.23L35.7704 94.4223L34.8089 94.9992L34.6166 95.3839L34.4243 99.8069H33.2704L33.0781 93.2685L33.2704 93.0762Z" fill="#212226"/>
<path d="M153.461 71.7305H153.845V78.8459L153.268 78.0766L152.307 76.5382L151.153 75.7689L148.268 74.8074L147.691 74.4228L147.884 73.4612L148.268 73.0766H149.807L152.691 73.8459L153.461 71.7305Z" fill="#FDFDFD"/>
<path d="M78.8465 73.2695H80.9618L80.5772 74.2311L78.0772 77.5003L76.7311 79.4234H76.1541L75.7695 78.4618V76.1541L76.5388 74.6157L78.0772 73.4618L78.8465 73.2695Z" fill="#FDFDFD"/>
<path d="M51.3468 93.0762H53.4621L54.8083 93.8454L55.0006 94.8069L54.4237 94.9992L53.0775 94.23H51.7314L50.7698 94.8069L50.3852 95.5762V97.1146L50.9621 98.2685L52.116 98.8454L53.6544 98.4608L54.616 97.8839H55.1929L55.0006 98.8454L54.0391 99.6146L52.116 99.9992L50.7698 99.6146L49.616 98.6531L49.0391 97.3069V95.3839L49.8083 94.0377L50.7698 93.2685L51.3468 93.0762Z" fill="#222328"/>
<path d="M139.425 93.0762H141.733L142.886 93.8454L143.271 94.23V94.9992L142.309 94.8069L141.348 94.23H140.002L139.04 94.8069L138.656 95.1916L138.463 96.5377L138.848 97.8839L139.617 98.6531L140.963 98.8454L142.502 98.0762L143.271 97.8839L143.079 98.8454L142.117 99.6146L141.156 99.9992L139.425 99.8069L138.271 99.0377L137.502 98.0762L137.117 96.9223L137.309 95.1916L137.886 94.23L139.04 93.2685L139.425 93.0762Z" fill="#22242A"/>
<path d="M102.115 93.0762H104.231L105.385 93.6531V94.4223L104.231 94.23L102.692 94.0377L101.731 94.4223L101.538 95.3839L105 96.5377L105.577 97.3069L105.385 99.0377L104.231 99.8069L102.5 99.9992L100.769 99.4223L100 98.4608L100.769 98.2685L102.115 98.8454H103.654L104.423 98.6531V97.6916L103.269 97.1146L101.538 96.5377L100.577 95.7685V94.23L101.538 93.2685L102.115 93.0762Z" fill="#222429"/>
<path d="M80.5781 91.7305H83.8474L84.8089 92.692L85.0012 93.8459L84.6166 94.8074L83.8474 95.3843H80.5781V91.7305Z" fill="#FDFDFD"/>
<path d="M21.5379 90.1914L22.1148 90.3837L22.3071 98.6529L23.6532 99.0376V99.8068H21.5379L20.9609 98.8453V90.3837L21.5379 90.1914Z" fill="#212226"/>
<path d="M69.4219 90.3848H70.3834L70.5757 90.5771L70.768 98.654L72.1142 98.8463L71.9219 99.8078H69.9988L69.4219 99.2309V90.3848Z" fill="#212225"/>
<path d="M130.192 93.0762H131.154L131.346 94.0377L132.885 93.0762L133.846 93.2685L133.654 94.0377L131.923 94.8069H131.538L131.346 99.8069L130.577 99.9992L130.192 99.8069L130 93.2685L130.192 93.0762Z" fill="#22252A"/>
<path d="M17.6932 29.8086L19.424 30.1932L22.5009 31.7317L22.3086 32.6932L21.924 33.2701L20.1932 32.8855L17.5009 31.5394L17.3086 31.3471V30.0009L17.6932 29.8086Z" fill="#D70A75"/>
<path d="M39.6142 37.8848L40.9603 38.0771L44.6142 39.4232L45.1911 39.8078L44.8065 40.7694L44.2296 41.154L39.6142 39.6155L39.4219 39.4232V38.0771L39.6142 37.8848Z" fill="#5582C2"/>
<path d="M23.4615 41.1543L24.2308 41.5389L24.4231 41.7312V42.8851L20.9615 45.1928H20.1923L20 44.8081V43.6543L21.3462 42.5005L23.4615 41.1543Z" fill="#FCAE4F"/>
<path d="M112.117 93.8457H113.655L114.617 94.8072L115.194 95.7688L115.001 96.1534H110.578V95.1919L111.54 94.2303L112.117 93.8457Z" fill="#FDFDFD"/>
<path d="M34.0385 21.5391L35 21.7314L35.1923 22.3083L34.4231 25.1929L34.0385 26.7314H32.5V25.3852L33.6538 21.9237L34.0385 21.5391Z" fill="#5582C2"/>
<path d="M92.6917 93.8457H94.0379L95.384 94.9995L95.5763 95.9611L95.1917 96.1534H91.1532L90.9609 95.5765L91.7302 94.4226L92.6917 93.8457Z" fill="#FDFDFD"/>
<path d="M27.5009 92.8848L28.6547 93.0771V99.8078H27.5009L27.3086 99.4232L27.5009 92.8848Z" fill="#212226"/>
<path d="M43.8447 92.8848L44.8062 93.0771V99.8078H43.6523V93.0771L43.8447 92.8848Z" fill="#1F1E20"/>
<path d="M122.116 96.5391L124.231 96.7314L124.616 97.5006L124.039 98.4621L123.077 99.0391H121.539L120.77 98.2698L120.962 96.9237L122.116 96.5391Z" fill="#FDFDFD"/>
<path d="M61.3462 96.5391L63.4615 96.7314L63.6538 96.9237L63.4615 98.2698L62.3077 99.0391H60.7692L60 98.2698L60.1923 96.9237L61.3462 96.5391Z" fill="#FDFDFD"/>
<path d="M33.0787 44.0391L34.0403 44.4237L34.6172 46.1544V47.3083L34.0403 47.6929L33.0787 47.5006L32.3095 45.9621L32.1172 44.8083L33.0787 44.0391Z" fill="#D30D78"/>
<path d="M40.384 29.4238H41.5379L41.7302 29.6161L41.5379 30.9623L39.8071 32.1161H39.2302L38.4609 31.1546L38.6532 30.1931L40.384 29.4238Z" fill="#FCAE4F"/>
<path d="M43.6523 90.3848H44.6139L44.8062 90.5771V91.7309L43.8447 91.9232L43.6523 91.5386V90.3848Z" fill="#262B35"/>
<path d="M27.5 90.3848H28.4615L28.6538 90.5771L28.4615 91.9232L27.5 91.7309V90.3848Z" fill="#262B35"/>
</svg>
