<svg width="108" height="120" viewBox="0 0 108 120" fill="none" xmlns="http://www.w3.org/2000/svg">
<path d="M18.471 38.8984L26.4221 39.877L47.8288 42.5682L56.1468 43.6691L56.5138 43.7914L56.2692 49.296L55.1682 71.8036L55.0459 74.3724L54.9236 74.4948L52.1101 74.3724L32.9052 73.0269L31.315 72.7822L29.3578 72.1706L27.6453 71.4367L25.6881 70.2134L24.0979 68.8679L22.8747 67.6446L21.5291 65.8098L20.4282 63.8526L19.5719 62.0177L18.7156 59.3266L18.104 56.2685L17.8594 54.3113V48.562L18.3487 39.877L18.471 38.8984Z" fill="#B63F43"/>
<path d="M57.1258 7.0957H74.7405L77.187 7.34035L79.5111 7.95197L81.5906 8.80824L83.3032 9.90916L84.6487 11.0101L85.9943 12.478L87.2175 14.4352L88.0738 16.3923L88.6854 18.5942L89.0524 21.0407L89.1747 27.8908V41.2241H85.872L68.7466 40.7348L56.3919 40.3679L56.2695 40.2456V37.3098L56.7588 20.0621L57.0035 10.8878L57.1258 7.0957Z" fill="#00A55F"/>
<path d="M28.6236 7.58398H32.538L48.0731 8.31793L53.0884 8.56258L53.4554 8.6849V15.6574L53.3331 37.3088L53.2107 39.8776L48.0731 39.5106L23.6083 37.5534L21.7734 37.3088V15.1681L22.1404 12.9662L22.752 11.376L23.486 10.1528L23.9753 9.54117L25.1985 8.6849L26.1771 8.19561L28.012 7.70631L28.6236 7.58398Z" fill="#039DFD"/>
<path d="M59.4492 44.2812H65.6878L88.6847 44.8929L88.807 45.1375L89.4186 60.5504L89.541 63.6085V65.5657L89.2963 67.6452L88.6847 69.9693L87.5838 72.2935L86.4829 73.7614L85.5043 74.8623L83.7917 76.0855L81.8345 77.0641L79.755 77.6757L77.4309 78.0427H74.3728L59.9385 76.4525L59.4492 76.3302V44.2812Z" fill="#F9C247"/>
<path d="M76.0853 12.2324H79.3881L80.6113 12.4771L80.7336 12.844L80.122 15.1682L78.7764 21.4067L78.0425 24.2202L77.1862 26.6667L75.963 29.2355L74.9844 30.7034L74.0058 31.9266L72.2933 33.6392L70.5807 34.8624L68.6235 35.9633L65.9324 37.0642L62.8743 37.9205L60.3055 38.4098H59.4492L59.6939 36.4526L60.4278 32.9052L61.2841 29.7248L62.385 26.5443L63.8529 23.3639L65.3208 20.6728L66.7887 18.5933L67.8896 17.2477L69.1128 15.9021L70.4584 14.8012L71.6816 13.945L73.7611 12.844L76.0853 12.2324Z" fill="#FDFDFD"/>
<path d="M54.3098 46.1152H54.5545L54.3098 47.3385L53.4536 49.785L51.9857 52.8431L50.6401 54.8003L49.1722 56.5128L47.949 57.6137L46.1141 58.8369L44.2793 59.8155L41.5881 60.7941L38.7747 61.4058L35.4719 61.7727L30.8236 61.8951L24.3404 61.6504L23.1172 61.5281L23.2395 60.9165L24.7074 58.7146L25.9306 57.1244L27.3985 55.5342L28.3771 54.5556L30.4566 52.9654L32.2915 51.8645L34.8603 50.6412L37.7961 49.6626L41.4658 48.8064L49.1722 47.3385L53.8206 46.2376L54.3098 46.1152Z" fill="#FDFDFD"/>
<path d="M61.7734 45.75L62.5074 45.8723L66.0548 47.3402L68.012 48.3188L70.5808 49.6644L72.9049 51.2546L74.2505 52.3555L75.8407 53.8234L76.9416 55.169L77.7979 56.3922L78.7765 58.2271L79.5104 60.1842L80.1221 62.8754L80.489 65.6888L80.6114 68.2576V70.4595L80.489 72.539L79.8774 72.2943L76.5747 70.3372L73.6389 68.5023L70.9477 66.6674L69.3575 65.4442L67.645 63.9763L66.5441 62.7531L65.0762 60.5512L64.0976 58.3494L63.3637 56.0252L62.6297 52.6002L62.1404 49.4197L61.7734 46.4839V45.75Z" fill="#FDFDFD"/>
<path d="M35.4747 12.9668H37.4319L39.1444 13.3338L41.1016 14.3124L42.4472 15.291L43.6704 16.3919L45.1383 18.1044L46.4839 20.1839L47.9518 22.9974L49.2973 26.4225L50.0313 28.7466L50.8875 32.294L51.6215 36.6977V37.554L50.5206 37.3093L46.1169 35.8414L43.0588 34.4958L40.9793 33.2726L39.756 32.294L38.7774 31.4377L37.5542 29.8475L36.4533 27.8903L35.3524 24.5876L34.8631 21.7741L34.4961 17.3705V13.2114L35.4747 12.9668Z" fill="#FDFDFD"/>
<path d="M7.33945 85.5039H11.2538L13.3333 85.6262L15.4128 85.9932L16.6361 86.4825L17.4924 87.2164L17.9817 88.195L18.2263 89.6629V90.3969H16.3914L16.1468 89.5406L15.7798 88.4397L15.1682 87.9504L13.8226 87.5834L10.5199 87.3388H8.31804L4.89297 87.5834L3.0581 88.0727L2.44648 88.8067L2.20183 89.4183V91.2531L2.56881 91.9871V92.2317L3.66972 92.5987L5.62691 92.8434L13.7003 92.9657L15.6575 93.2103L17.0031 93.6996L17.8593 94.3112L18.4709 95.5345L18.5933 96.1461V98.7149L18.2263 99.9382L17.4924 100.917L16.3914 101.651L15.0459 102.018L12.5994 102.262H6.6055L3.66972 102.018L2.20183 101.651L1.22324 101.161L0.366972 100.183L0 98.9596V97.0024H1.95719L2.20183 98.8372L2.56881 99.5712L3.5474 100.06L4.89297 100.305L6.6055 100.427H11.3761L14.0673 100.183L15.4128 99.8158L16.0245 99.3265L16.3914 98.4703L16.5138 97.0024L16.1468 95.9015L15.5352 95.2898L14.4342 94.9229L13.3333 94.8005L4.64832 94.6782L2.81346 94.4336L1.34557 93.8219L0.489297 92.9657L0 91.6201V89.4183L0.489297 87.8281L1.46789 86.7271L2.81346 86.1155L4.52599 85.7486L7.33945 85.5039Z" fill="#B63F43"/>
<path d="M82.446 90.2754H86.4827L88.8068 90.6424L90.2747 91.3763L91.0087 92.2326L91.498 93.8228L91.6203 94.5567V96.6362H78.8986L79.0209 98.5934L79.6325 99.8167L80.3665 100.306L81.3451 100.551L82.813 100.673H86.4827L88.1952 100.428L89.2961 99.8167L89.9078 98.5934H91.6203L91.498 99.572L90.8864 100.795L89.9078 101.529L88.9292 101.896L87.8283 102.141L86.238 102.263H83.0576L80.4888 102.019L79.2656 101.652L78.287 101.04L77.553 100.061L77.1861 98.9604L76.9414 97.3702V95.2907L77.1861 93.5781L77.7977 92.1103L78.5316 91.254L79.5102 90.7647L81.2228 90.3977L82.446 90.2754Z" fill="#B63F43"/>
<path d="M45.3808 90.2754H49.2952L51.0077 90.52L52.3533 91.0093L53.0872 91.4986L53.6989 92.2326L54.1882 93.4558L54.4328 95.6577V96.6362H41.5888L41.7111 98.3488L42.2004 99.572L43.0567 100.306L43.9129 100.551L45.3808 100.673H49.1729L50.8854 100.428L51.864 99.939L52.4756 98.9604L52.5979 98.5934H54.3105L54.1882 99.6944L53.6989 100.673L52.8426 101.407L51.7417 101.896L50.3961 102.141L49.0505 102.263H45.6255L43.179 102.019L41.7111 101.529L40.7325 100.795L40.1209 99.572L39.7539 97.9818V94.5567L40.2432 92.5995L40.9771 91.4986L41.9557 90.887L43.3013 90.52L45.3808 90.2754Z" fill="#B63F43"/>
<path d="M86.7266 0H92.1088L93.2097 0.244648L94.1883 0.856269L94.8 1.71254L95.0446 2.56881L94.9223 3.79205L94.1883 5.01529L92.9651 5.74924L92.2311 5.99388L93.3321 6.97248L94.5553 8.80734L95.6562 10.5199V10.7645H93.5767L91.9865 7.95107L91.0079 6.72783L90.3963 6.36086L88.4391 6.11621V10.7645H86.7266V0Z" fill="#65656A"/>
<path d="M22.5064 85.5039H23.8519L23.9743 85.6262L24.0966 92.3541L24.7082 91.3755L26.1761 90.6415L27.3993 90.3969L28.7449 90.2745H31.1914L33.1486 90.5192L34.6165 91.0085L35.3504 91.6201L35.962 92.8434L36.0843 93.455V102.14H34.4941L34.3718 102.018L34.2495 93.9443L33.8825 92.8434L33.1486 92.3541L31.6807 91.9871H27.3993L25.8091 92.3541L24.7082 93.088L24.0966 94.3112L23.9743 102.14H22.2617V85.6262L22.5064 85.5039Z" fill="#B63F43"/>
<path d="M64.3447 87.8281H65.9349L66.0572 87.9504V90.3969H71.1949L74.0083 90.5193V91.8648L73.886 91.9871H65.9349V98.5927L66.1796 99.6936L66.7912 100.305L67.4028 100.55L68.5037 100.672H70.2163L71.5618 100.428L72.1735 100.061L72.4181 99.5712L72.6627 97.1248L74.1306 97.0024L74.253 97.1248V98.8373L74.0083 100.428L73.519 101.284L72.0511 102.018L70.4609 102.262H67.8921L66.3019 102.018L65.0787 101.406L64.467 100.672L64.2224 99.9382L64.1001 99.0819V95.1676L64.2224 91.9871H61.5312V90.3969H64.2224V87.9504L64.3447 87.8281Z" fill="#B63F43"/>
<path d="M100.428 90.2754H103.486L105.321 90.6424L106.055 91.0093L106.911 91.9879L107.278 93.2112L107.4 94.1898V95.413L106.177 95.5353L105.688 95.413L105.566 95.046L105.321 93.2112L104.832 92.4772L104.22 92.1103L102.63 91.8656H100.795L99.2047 92.1103L98.1037 92.5995L97.3698 93.4558L97.0028 94.6791L96.8805 102.141H95.2903L95.168 102.019V90.52L95.7796 90.3977H96.8805L97.0028 92.3549L97.7368 91.254L98.96 90.52L100.428 90.2754Z" fill="#B63F43"/>
<path d="M83.0587 91.7422H86.1168L87.4624 91.8645L88.6856 92.3538L89.5419 93.3324L89.7865 94.1887V95.1673H78.8997L78.7773 94.5556L79.1443 93.3324L79.6336 92.5985L80.1229 92.2315L81.5908 91.8645L83.0587 91.7422Z" fill="#FEFEFE"/>
<path d="M45.7489 91.7422H48.3177L50.1525 91.8645L51.3758 92.3538L51.9874 92.8431L52.4767 93.944L52.599 95.0449L52.4767 95.1673H41.5898V94.311L41.9568 93.2101L42.6908 92.3538L43.6694 91.9868L45.7489 91.7422Z" fill="#FEFEFE"/>
<path d="M57.9817 85.5039H59.5719L59.6942 85.6262V102.018L59.5719 102.14H57.9817L57.8594 102.018V85.6262L57.9817 85.5039Z" fill="#B63F43"/>
<path d="M44.0365 111.07H44.8928L45.5044 111.437L45.9937 112.049V113.027L45.1375 114.006L44.8928 114.251L45.8714 115.596L46.1161 115.719L46.3607 114.862L47.0946 114.985L46.9723 115.841L46.7277 116.33L46.85 116.82L47.5839 117.676L47.217 118.165L46.7277 117.92L46.2384 117.553V117.309L45.3821 117.798L44.5258 118.165H43.5472L42.5687 117.676L41.957 116.82V115.596L42.4463 114.862L43.1803 114.251H43.4249L42.8133 113.15V112.049L43.4249 111.315L44.0365 111.07Z" fill="#65656A"/>
<path d="M68.8684 113.027L69.48 113.15L69.7247 113.517L70.4586 113.027H71.5595L72.1712 113.394L72.7828 114.128L73.0274 114.74V116.452L72.5381 117.431L71.9265 117.92L71.3149 118.165L70.214 118.043L69.7247 117.676L69.6024 119.877L69.48 120H68.8684L68.7461 118.532V114.006L68.8684 113.027Z" fill="#676469"/>
<path d="M65.0785 113.027H66.3017L67.0357 113.517L67.6473 114.495L67.7696 115.107V115.963L67.4027 117.064L66.791 117.798L65.9348 118.165H65.2008L64.3446 117.676L64.2222 120H63.4883V113.15H64.0999L64.3446 113.517L65.0785 113.027Z" fill="#65656A"/>
<path d="M49.4208 50.3984L49.6654 50.5208L48.1975 51.6217L45.9957 53.2119L43.9162 54.5575L41.8367 55.7807L39.7571 56.8816L37.9223 57.6156L35.5981 58.3495L33.274 58.8388L32.0507 58.9611H29.7266L30.2159 58.7165L33.6409 57.8602L37.5553 56.5146L41.1027 54.9244L44.2831 53.3342L47.0966 51.744L49.4208 50.3984Z" fill="#B63F43"/>
<path d="M59.4496 113.027H61.0398L61.6514 113.394L62.1407 114.128L62.263 118.043H61.5291L61.1621 117.553L60.3059 118.043L59.9389 118.165H58.9603L58.2263 117.798L57.8594 117.186V116.208L58.3487 115.596L59.3273 115.229L61.1621 114.862L61.0398 114.006L60.6728 113.761H59.6942L59.0826 114.006L58.7156 114.618L58.104 114.495L58.2263 113.761L58.7156 113.272L59.4496 113.027Z" fill="#66656A"/>
<path d="M25.1984 113.027H26.7886L27.5225 113.394L27.8895 113.884L28.0118 114.251L28.1341 118.043H27.4002L27.2779 117.431L26.177 118.043L25.81 118.165H24.8314L24.2198 117.798L23.7305 117.186V116.33L24.2198 115.596L25.1984 115.229L27.1555 114.862L26.9109 114.006L26.4216 113.761H25.443L24.4644 114.618L23.9751 114.495L24.0974 113.761L24.8314 113.15L25.1984 113.027Z" fill="#65656A"/>
<path d="M51.375 111.191H52.2313V114.005H55.7787V111.191H56.6349V118.042H55.7787V114.861H52.3536L52.2313 117.919L52.1089 118.042H51.375V111.191Z" fill="#676469"/>
<path d="M19.9379 113.027H21.2834L22.0174 113.394L22.629 114.128L22.996 115.229V115.718H19.2039L19.6932 117.186L20.3048 117.431L21.4058 117.309L22.0174 116.575H22.8737L22.629 117.309L21.8951 117.92L21.2834 118.165H20.1825L19.2039 117.676L18.5923 116.942L18.3477 116.33V115.107L18.7146 114.006L19.6932 113.15L19.9379 113.027Z" fill="#65656A"/>
<path d="M88.4414 1.46875H92.1111L92.8451 1.95805L93.212 2.44734V3.54826L92.7228 4.28221L91.8665 4.64918L89.5423 4.7715L88.4414 4.64918V1.46875Z" fill="#FEFEFE"/>
<path d="M82.934 113.027H84.2795L85.2581 113.639L85.7474 114.495L85.8697 115.718H82.0777L82.567 116.942L83.1786 117.431H84.0349L84.6465 117.186L84.8912 116.697L85.0135 116.575H85.7474L85.6251 117.186L84.6465 118.043L84.1572 118.165H83.1786L82.2 117.798L81.5884 117.064L81.3438 116.575V114.74L81.833 113.761L82.567 113.15L82.934 113.027Z" fill="#65656A"/>
<path d="M11.8633 111.191H12.7196L12.8419 114.005H16.267L16.3893 111.191H17.2455V118.042H16.3893L16.267 114.861H12.8419L12.7196 118.042H11.8633V111.191Z" fill="#65656A"/>
<path d="M34.1289 111.191H34.9852L35.1075 113.516L35.8414 113.026H37.0647L37.7986 113.516L38.1656 114.25V118.042H37.3093L37.187 114.25L36.5754 113.76H35.8414L35.2298 114.25L35.1075 114.494L34.8629 118.042H34.1289V111.191Z" fill="#66656A"/>
<path d="M75.2304 21.5293L75.3527 21.8963L74.3741 24.0981L73.2732 25.8106L72.05 27.4009L70.5821 28.9911L69.6035 29.8473L68.0133 31.1929L66.6677 32.1715L64.2212 33.884L63.9766 33.7617L65.1998 32.6608L66.5454 31.5599L68.5026 29.725L70.949 27.2785L72.05 25.933L72.9062 25.0767L74.3741 22.8749L75.2304 21.5293Z" fill="#00A460"/>
<path d="M87.8287 113.027H89.2966L90.2752 113.639L90.5198 114.373L89.7859 114.495L89.2966 113.884L89.052 113.761H88.0734L87.5841 114.128V114.74L89.052 115.107L90.2752 115.596L90.6422 116.085L90.7645 116.697L90.3975 117.431L89.7859 117.92L89.1743 118.165H88.1957L87.2171 117.798L86.7278 117.186L86.6055 116.575L87.3394 116.452L87.8287 117.186L88.318 117.431L89.4189 117.309L89.7859 116.819L89.6636 116.33L87.4617 115.596L86.8501 115.107L86.7278 114.862V114.006L87.3394 113.272L87.8287 113.027Z" fill="#66656A"/>
<path d="M66.0547 49.7852L66.544 50.0298L68.5012 51.8647L69.9691 53.4549L71.3146 54.9228L72.6602 56.7576L73.8834 58.9595L74.6174 60.7943L75.3513 62.9962V63.7301L74.9844 63.2408L73.8834 60.672L72.5379 58.2255L71.5593 56.7576L69.9691 54.5558L68.2565 52.4763L67.4003 51.4977L66.177 50.1521L66.0547 49.7852Z" fill="#F9C247"/>
<path d="M78.0419 113.027H79.1428L79.7544 113.394L80.1214 113.761L80.2437 114.128V118.043H79.5098L79.3875 115.229L79.1428 114.006L78.6535 113.761L77.7972 113.884L77.3079 114.373L77.1856 114.618L77.0633 118.043H76.207V113.517L76.3294 113.15H76.941V113.639L78.0419 113.027Z" fill="#66656A"/>
<path d="M92.7206 113.027H93.9438L94.9224 113.517L95.2894 114.128V114.373L94.6778 114.495L94.4331 114.373L94.1885 113.884L93.9438 113.761H92.7206L92.3536 113.884V114.495L92.8429 114.862L94.8001 115.474L95.4117 116.085L95.534 116.697L95.167 117.431L94.5554 117.92L93.8215 118.165L92.4759 118.043L91.8643 117.676L91.375 116.819V116.575L92.1089 116.452L92.5982 117.186L93.0875 117.431H93.9438L94.5554 117.064V116.452L93.4545 115.963L92.2313 115.596L91.6196 114.985L91.4973 114.128L91.9866 113.394L92.7206 113.027Z" fill="#66656A"/>
<path d="M70.4591 113.639H71.3153L71.927 114.128L72.2939 115.229L72.1716 116.574L71.4377 117.431L70.5814 117.553L69.8474 117.064L69.4805 116.207V114.984L69.8474 114.25L70.4591 113.639Z" fill="#FEFEFE"/>
<path d="M65.442 113.518L66.1759 113.762L66.7876 114.496L66.9099 114.863V116.209L66.4206 117.187L65.809 117.554L64.9527 117.432L64.3411 116.82L64.2188 116.576V114.741L64.708 114.007L65.442 113.518Z" fill="#FEFEFE"/>
<path d="M38.1641 19.5723L38.4087 19.9392L39.3873 22.508L40.4882 24.8322L42.4454 28.0126L44.0356 30.3368L45.5035 32.294L46.4821 33.6395L46.2375 33.7619L45.3812 32.7833L44.1579 31.4377L43.057 30.0921L41.4668 28.0126L40.2436 26.0554L39.265 24.0983L38.4087 21.2848L38.1641 20.1839V19.5723Z" fill="#039DED"/>
<path d="M32.2936 111.438H32.4159L32.5382 113.028L33.2721 113.15L33.1498 113.762H32.4159L32.5382 117.309L33.2721 117.431V118.043H32.0489L31.6819 117.554L31.5596 116.086V113.762L31.0703 113.639V113.15H31.5596L31.6819 111.804L32.2936 111.438Z" fill="#66656A"/>
<path d="M29.3594 111.191H30.0933V118.042H29.3594V111.191Z" fill="#65666B"/>
<path d="M43.6688 114.74L44.1581 114.863L45.3813 116.33L45.5036 116.697L44.6474 117.431L43.7911 117.554L43.0571 117.064L42.8125 116.575V115.719L43.6688 114.74Z" fill="#FEFEFE"/>
<path d="M26.6654 115.596H27.2771L27.0324 116.819L26.4208 117.431L26.1762 117.553H25.0752L24.5859 117.064V116.33L25.0752 115.963L26.6654 115.596Z" fill="#FEFEFE"/>
<path d="M60.7944 115.596H61.2837V116.574L60.9167 117.186L60.1827 117.553H59.2041L58.7148 117.064V116.33L59.2041 115.963L60.7944 115.596Z" fill="#FEFEFE"/>
<path d="M74.1289 113.148H74.8629V118.041H74.1289V113.148Z" fill="#65666B"/>
<path d="M20.304 113.639H21.1603L21.8943 114.25L22.1389 115.107H19.2031L19.3254 114.495L19.8147 113.883L20.304 113.639Z" fill="#FEFEFE"/>
<path d="M83.179 113.639H84.0353L84.6469 114.006L85.0139 114.74V115.107H82.2004L82.0781 114.862L82.5674 114.128L83.179 113.639Z" fill="#FEFEFE"/>
<path d="M44.1585 111.682L44.8924 111.804L45.2594 112.416L45.1371 113.027L44.5255 113.639L44.0362 113.394L43.5469 112.66L43.6692 112.049L44.1585 111.682Z" fill="#FEFEFE"/>
<path d="M74.1289 111.191H74.8629V112.17L74.1289 112.048V111.191Z" fill="#66656A"/>
</svg>
