<svg width="300" height="69" viewBox="0 0 300 69" fill="none" xmlns="http://www.w3.org/2000/svg">
<path d="M25.2208 24.6328H29.9129L31.2326 26.0991L32.5522 27.712L34.4584 29.9114L36.0713 31.8176L37.6842 33.8704L39.0038 35.4833L39.2971 35.9231L39.4437 26.6856L40.0302 25.5126L40.7634 24.9261L41.4965 24.6328H44.4291V43.841H39.5904L38.4173 42.5214L36.8044 40.4686L34.8983 38.2692L33.7253 36.8029L30.2062 32.6973L30.0596 32.5507L29.9129 42.0815L29.473 42.9613L28.5933 43.6944L28.1534 43.841H25.2208L25.0742 43.5478V24.7794L25.2208 24.6328Z" fill="#1499D6"/>
<path d="M77.125 37.2441H254.545V37.9773H77.125V37.2441Z" fill="#1499D6"/>
<path d="M80.6474 14.6621H83.7266L84.4597 15.8351L87.099 20.9671L89.0052 24.4862L90.4715 17.0082L90.9113 14.8087L91.058 14.6621H94.1371L93.9905 16.1284L91.6445 28.4451L91.3512 29.4715H88.272L87.5389 28.2985L85.7794 24.926L83.7266 20.9671L82.9934 19.6475L82.5536 21.407L81.0873 29.1783L80.9407 29.4715H77.8615L77.7148 29.1783L79.7676 18.4744L80.5008 14.8087L80.6474 14.6621Z" fill="#1499D6"/>
<path d="M175.22 14.6621H178.299L178.152 16.275L177.272 20.8205H184.017L184.31 18.9143L185.044 15.102L185.19 14.6621H188.416L187.683 18.7677L185.777 28.7384L185.483 29.4715H182.404L182.551 28.1519L183.431 23.6064L183.577 23.1665L176.832 23.3131L175.659 29.3249L175.513 29.4715H172.434L172.58 27.8586L174.34 18.7677L175.073 14.9554L175.22 14.6621Z" fill="#1499D6"/>
<path d="M141.496 17.5957H144.135L145.601 18.1822L146.774 19.2086L146.921 17.7423H150.147L150 19.062L148.094 29.1793L147.947 29.4725H144.868L144.722 29.1793L144.868 28.0063L143.402 29.0327L141.496 29.6192H139.59L138.27 29.1793L136.95 28.2995L136.071 26.8332L135.777 25.6602V24.0473L136.364 21.8479L137.244 20.3816L138.417 19.062L140.03 18.0356L141.496 17.5957ZM142.815 20.0884L141.642 20.3816L140.323 21.2614L139.443 22.581L139.15 23.3142V25.0737L139.736 26.2467L140.616 26.8332L141.056 26.9799H142.815L144.282 26.2467L145.455 24.9271L145.895 23.7541V21.8479L145.308 20.9681L144.575 20.3816L143.549 20.0884H142.815Z" fill="#1499D6"/>
<path d="M268.328 17.5957H270.967L272.433 18.1822L273.167 18.7687L273.606 19.2086L273.753 17.7423H276.979L276.832 19.2086L274.926 29.1793L274.779 29.4725H271.7L271.554 29.1793L271.7 28.0063L270.967 28.5928L269.501 29.3259L268.328 29.6192H266.422L264.809 29.0327L263.636 28.0063L263.049 27.1265L262.609 25.367L262.756 23.4608L263.343 21.5547L264.369 19.9417L265.835 18.6221L267.301 17.889L268.328 17.5957ZM269.648 20.0884L268.181 20.5283L266.862 21.5547L266.128 23.0209L265.982 23.6074V24.9271L266.422 25.9535L267.448 26.8332L267.888 26.9799H269.648L271.114 26.2467L272.14 25.2203L272.727 23.7541V21.8479L272.14 20.8215L271.114 20.235L269.648 20.0884Z" fill="#1499D6"/>
<path d="M208.797 17.5957H211.436L212.756 18.1822L213.782 19.062L214.222 17.7423H217.448L216.715 21.8479L215.248 29.3259L215.102 29.4725H212.022L212.169 28.1529L212.316 27.8596L211.143 28.7394L209.53 29.4725L208.797 29.6192H206.89L205.424 29.1793L204.251 28.2995L203.371 26.9799L203.078 26.1001V23.7541L203.665 21.7013L204.691 20.0884L205.864 18.9154L207.33 18.0356L208.797 17.5957ZM209.97 20.0884L208.503 20.5283L207.037 21.8479L206.451 23.1676L206.304 24.4872L206.597 25.6602L207.33 26.54L208.21 26.9799H209.97L211.289 26.3934L212.316 25.5136L213.049 24.0473L213.195 23.4608V21.9945L212.756 21.1148L211.876 20.3816L210.849 20.0884H209.97Z" fill="#1499D6"/>
<path d="M236.511 13.7832H239.736L239.59 15.2495L239.003 18.3287V18.9152L240.323 18.0354L241.789 17.5955H244.135L245.602 18.182L246.335 18.9152L246.775 19.5017L247.068 20.5281V22.2876L245.748 29.1791L245.602 29.4724H242.522L242.669 28.0061L243.695 22.4342L243.402 20.968L242.669 20.3814L242.229 20.2348H240.616L239.443 20.6747L238.563 21.7011L238.124 23.0207L236.951 29.1791L236.804 29.4724H233.725L233.578 29.0325L235.631 18.4753L236.511 13.7832Z" fill="#1499D6"/>
<path d="M293.256 17.5957H296.189L297.801 18.1822L299.121 19.2086L299.854 20.6749L300.001 21.408V22.7277L299.708 24.0473L299.561 24.3406H290.323L290.47 25.6602L291.057 26.54L291.936 26.9799H293.843L295.162 26.2467L295.455 25.8069H298.974L298.681 26.54L297.508 27.8596L295.895 28.886L294.429 29.4725L293.549 29.6192H291.35L289.444 29.0327L288.124 28.0063L287.391 26.8332L287.098 25.6602V24.0473L287.684 21.8479L288.564 20.3816L289.297 19.5019L290.763 18.4755L292.523 17.7423L293.256 17.5957ZM293.549 19.9417L292.083 20.5283L291.057 21.5547L290.763 22.1412V22.581H296.628L296.775 22.4344L296.628 21.2614L295.749 20.235L294.722 19.9417H293.549Z" fill="#1499D6"/>
<path d="M195.016 17.5957H197.948L199.414 18.0356L200.587 18.9154L201.321 19.7951L201.761 20.9681V23.1676L201.467 24.3406L192.23 24.4872L192.376 25.8069L193.109 26.6866L193.696 26.9799H195.602L196.775 26.3934L197.362 25.8069H200.881L200.001 27.1265L198.975 28.1529L197.508 29.0327L196.189 29.4725L195.309 29.6192H193.256L191.936 29.3259L190.617 28.5928L189.59 27.5664L189.004 26.1001V23.6074L189.59 21.7013L190.617 20.0884L191.643 19.062L193.403 18.0356L195.016 17.5957ZM195.456 19.9417L194.136 20.3816L193.109 21.2614L192.523 22.2878V22.581H198.535V21.408L197.948 20.5283L197.215 20.0884L196.629 19.9417H195.456Z" fill="#1499D6"/>
<path d="M121.114 17.5957H123.9L125.366 18.0356L126.685 18.9154L127.419 19.7951L128.005 20.9681L128.152 21.7013V23.3142L127.712 25.0737L126.685 26.8332L125.659 27.8596L124.046 28.886L122.287 29.4725L121.407 29.6192H119.354L118.034 29.3259L116.715 28.5928L115.982 28.0063L115.102 26.54L114.809 25.0737L114.955 23.1676L115.542 21.5547L116.421 20.235L117.595 19.062L119.061 18.1822L120.38 17.7423L121.114 17.5957ZM121.26 20.0884L119.941 20.6749L118.914 21.7013L118.181 23.4608V25.2203L118.768 26.3934L119.647 26.9799L120.234 27.1265H121.26L122.58 26.6866L123.606 25.9535L124.486 24.6338L124.779 23.7541V21.8479L124.339 20.9681L123.606 20.3816L122.873 20.0884H121.26Z" fill="#1499D6"/>
<path d="M159.236 17.5957H161.582L162.902 18.0356L163.928 18.9154L164.515 20.0884L164.662 21.8479L163.342 28.886L163.195 29.4725H160.116L159.97 29.1793L161.143 23.0209V21.5547L160.703 20.6749L159.823 20.235H158.063L156.597 20.9681L155.864 22.1412L155.131 25.6602L154.398 29.3259L154.251 29.4725H151.172L151.319 28.0063L153.078 18.7687L153.371 17.7423H156.597L156.45 18.9154L157.77 18.0356L159.236 17.5957Z" fill="#1499D6"/>
<path d="M254.986 17.5957H257.919L259.385 18.0356L260.705 19.062L261.438 20.5283L261.585 21.7013H258.212L257.479 20.5283L256.746 20.235H254.986L253.813 20.8215L252.934 21.8479L252.347 23.7541V25.367L252.787 26.2467L253.52 26.8332L254.107 26.9799H255.133L256.306 26.54L257.039 25.9535L257.333 25.5136H260.852L260.265 26.6866L258.652 28.2995L256.599 29.3259L255.28 29.6192H253.08L251.174 29.0327L249.855 28.0063L249.121 26.6866L248.828 25.367L248.975 23.4608L249.561 21.7013L250.441 20.235L251.614 19.062L253.374 18.0356L254.986 17.5957Z" fill="#1499D6"/>
<path d="M107.186 17.5957H110.118L111.585 18.0356L112.904 19.062L113.637 20.5283L113.784 21.7013H110.412L109.678 20.5283L108.945 20.235H107.186L106.013 20.8215L105.133 21.8479L104.546 23.7541V25.367L104.986 26.2467V26.54L106.306 26.9799H107.332L108.505 26.54L109.238 25.9535L109.532 25.5136H113.051L112.464 26.6866L110.851 28.2995L108.799 29.3259L107.479 29.6192H105.28L103.373 29.0327L102.054 28.0063L101.321 26.6866L101.027 25.367L101.174 23.4608L101.76 21.7013L102.64 20.235L103.813 19.062L105.573 18.0356L107.186 17.5957Z" fill="#1499D6"/>
<path d="M228.004 14.8086H231.23L230.937 16.8614L230.79 17.7411H233.43L233.283 19.3541L233.136 20.0872L230.35 20.2338L230.057 21.4068L229.324 25.2192L229.177 26.6854L231.817 26.9787L231.377 29.3247L231.23 29.4714H228.591L227.271 29.1781L226.245 28.445L225.805 27.2719V26.0989L226.978 20.0872H225.512L225.805 18.181L225.952 17.7411L227.418 17.5945L228.004 14.8086Z" fill="#1499D6"/>
<path d="M28.5913 10.2637H30.6441L32.1104 10.9968L32.9901 12.1698L33.43 13.6361L33.2834 14.9558L32.4036 16.422L30.9373 17.3018L30.3508 17.4484H29.3244L28.0048 17.0085L27.4183 16.5687L26.0986 16.8619L25.2189 17.4484L24.4857 18.1816L24.1925 19.5012L23.606 20.0877L22.4329 20.2344L21.6998 19.7945L21.1133 18.9147L21.2599 17.7417L22.1397 17.0085H24.0458L25.2189 16.422L26.2453 15.249L26.0986 13.4895L26.3919 12.3165L27.125 11.1434L28.298 10.4103L28.5913 10.2637Z" fill="#1499D6"/>
<path d="M52.787 38.5625L53.8134 38.7091L54.5465 39.2956L54.6931 39.5889V40.7619L54.1066 41.4951L53.2269 41.9349L52.4937 43.4012V45.3074L53.5201 46.1871L54.1066 47.6534V48.8264L53.6667 50.1461L52.787 51.1725L51.614 51.759L51.0275 51.9056H50.0011L48.6814 51.4657L47.5084 50.4393L46.9219 49.2663V47.3602L47.655 45.8939L48.828 45.0141L49.5612 44.7209L50.8808 44.5742L51.4673 43.6945L51.9072 42.2282V41.3484L51.4673 40.6153L51.614 39.2956L52.3471 38.7091L52.787 38.5625Z" fill="#1499D6"/>
<path d="M15.3956 6.59766H16.5686L18.0349 7.18417L19.2079 8.50382L19.5012 9.38358V10.9965L18.768 12.4628L18.0349 13.1959V14.5156L18.6214 15.9818L19.2079 16.5683L20.0877 17.0082L20.5276 17.7414L20.3809 18.9144L19.5012 19.6475L18.4748 19.7941L17.7416 19.3543L17.3017 18.7678V17.5947L17.595 17.1549V15.9818L17.0085 14.5156L16.422 13.929L14.3692 13.4892L13.4894 12.9026L12.6097 11.8763L12.3164 11.1431V9.38358L12.7563 8.35719L13.6361 7.33079L14.8091 6.74428L15.3956 6.59766Z" fill="#1499D6"/>
<path d="M56.0129 36.5098L57.3325 36.6564L57.919 37.3895L58.3589 38.7092L59.5319 39.5889L60.2651 39.8822H61.2915L62.1712 39.2957L63.1976 39.0024L64.8105 39.1491L65.9835 39.8822L66.8633 40.9086L67.3032 42.3749L67.0099 43.9878L66.4234 45.0142L65.397 45.8939L64.5173 46.1872H62.7577L61.4381 45.6007L60.4117 44.4277L60.1184 43.6945V41.3485L59.3853 40.4687L58.0657 39.7356L57.1859 39.5889L55.8662 39.7356L54.9865 39.0024L54.8398 38.7092V37.6828L55.4264 36.803L56.0129 36.5098Z" fill="#1499D6"/>
<path d="M12.0221 29.0332H14.0749L15.2479 29.6197L16.1277 30.6461L16.5676 31.6725V33.432L15.9811 34.6051L14.9547 35.6314V37.5376L15.6878 39.0039L16.5676 39.4438L17.0075 39.8837L17.1541 41.0567L16.5676 41.9364L15.9811 42.2297H14.9547L14.2215 41.7898L13.9283 41.3499V40.0303L14.3682 39.2971L14.2215 37.8309L13.635 36.6578L13.1951 36.218L11.7289 35.9247L10.5558 35.1916L9.8227 34.3118L9.38281 32.9922L9.52944 31.3792L10.2626 30.2062L11.289 29.3265L12.0221 29.0332Z" fill="#1499D6"/>
<path d="M37.2432 55.1328L38.5628 55.2794L39.2959 56.0126L39.4426 56.3058V57.1856L38.7094 58.0654L38.1229 58.3586L37.5364 59.5316L37.3898 61.1445L37.683 61.8777L38.8561 62.9041L39.4426 64.2237V65.69L38.8561 67.0097L38.1229 67.7428L37.2432 68.3293L36.8033 68.4759H35.0437L33.7241 67.8894L32.991 67.1563L32.5511 66.5698L32.2578 65.69V64.2237L32.6977 63.0507L33.5775 62.0243L34.7505 61.4378L35.7769 61.2912L36.3634 60.558L36.8033 59.0918L36.6566 57.7721L36.2168 57.1856V56.1592L36.6566 55.4261L37.2432 55.1328Z" fill="#1499D6"/>
<path d="M4.8388 41.0566H6.30508L7.77136 41.7898L8.65112 42.9628L9.09101 43.6959L10.7039 43.9892L12.1702 43.6959L12.9033 42.9628L13.3432 42.6695H14.5162L15.2494 43.2561L15.5426 44.4291L15.2494 45.1622L14.6629 45.7487L13.7831 45.8954L12.9033 45.4555L12.4634 45.0156L12.0236 44.869H10.1174L9.09101 45.3088L8.21124 47.0684L7.03822 47.9481L6.30508 48.2414H4.69218L3.2259 47.5083L2.34613 46.4819L1.90625 45.4555V43.8426L2.63939 42.3763L3.66578 41.4965L4.8388 41.0566Z" fill="#1499D6"/>
<path d="M51.4651 5.71875L52.7847 6.01201L53.8111 6.59852L54.8375 7.91817L54.9841 8.35805V10.4108L54.3976 11.5839L53.2246 12.6103L51.7583 13.0501L50.4387 12.9035L49.4123 12.317L47.946 12.7569L46.9196 13.6366L46.4797 14.5164L46.3331 15.5428L45.4533 16.2759H44.2803L43.5472 15.6894L43.2539 15.1029V14.2232L43.987 13.3434L44.2803 13.1968H45.7466L46.9196 12.6103L47.946 11.4372L48.0926 10.7041L47.946 10.2642V8.50468L48.6791 7.0384L49.8522 6.15863L50.5853 5.86538L51.4651 5.71875Z" fill="#1499D6"/>
<path d="M45.1631 17.0098H46.4828L47.2159 17.8895L47.3625 18.9159L48.3889 20.0889L49.5619 20.6755H50.4417L51.1748 20.2356L51.7614 20.0889H53.3743L54.6939 20.6755L55.7203 21.8485L56.1602 23.1681L56.0136 24.6344L55.4271 25.8074L54.254 26.8338L53.081 27.2737H52.0546L50.735 26.8338L49.5619 25.8074L49.1221 24.9277L48.9754 24.1945V23.1681L49.1221 21.9951L48.2423 20.8221L46.776 20.0889H45.1631L44.43 19.6491L44.1367 18.9159L44.2833 17.8895L44.8699 17.1564L45.1631 17.0098Z" fill="#1499D6"/>
<path d="M25.3677 50.7324H27.2738L28.4469 51.3189L29.4732 52.492L29.9131 53.3717L31.0862 53.8116H32.2592L33.2856 53.5183L34.312 52.6386H35.485L36.2181 53.2251L36.3647 53.5183V54.838L35.7782 55.5711L35.0451 55.8644L34.1653 55.7178L33.1389 54.838L32.5524 54.6914H30.9395L29.9131 55.1313L29.18 56.5975L28.3002 57.3307L27.2738 57.7706H25.3677L24.1946 57.184L23.1683 56.011L22.875 55.2779V53.2251L23.4615 52.0521L24.6345 51.0257L25.3677 50.7324Z" fill="#1499D6"/>
<path d="M132.257 13.7832H135.483L134.896 17.1556L132.843 27.8595L132.55 29.3257L132.403 29.4724H129.324L129.471 27.8595L131.524 17.3023L132.11 14.0765L132.257 13.7832Z" fill="#1499D6"/>
<path d="M221.407 13.7832H224.486L224.34 15.3961L221.701 29.1791L221.554 29.4724H218.475L218.328 29.1791L221.261 13.9298L221.407 13.7832Z" fill="#1499D6"/>
<path d="M286.219 17.5957H287.245L287.099 19.062L286.805 20.5283L286.659 20.6749L284.313 20.9681L283.14 21.7013L282.553 22.8743L281.82 26.54L281.234 29.3259L281.087 29.4725H278.008L278.154 28.1529L280.061 18.1822L280.207 17.7423H283.433L283.286 19.3552L284.753 18.1822L286.219 17.5957Z" fill="#1499D6"/>
<path d="M57.183 26.5391L58.7959 26.8323L59.6757 27.4188L60.5555 28.4452L60.8487 29.1784V30.6446L60.2622 31.9643L59.2358 32.8441L57.9162 33.2839H56.1566L55.2769 34.0171L54.6904 35.3367V37.2429L53.8106 37.976H52.7842L51.9044 37.3895L51.7578 37.0963V35.9232L52.491 35.1901L53.664 34.8968L54.5437 33.8704L54.9836 32.5508L54.837 31.9643L54.2505 30.9379L54.1039 30.498V29.325L54.5437 28.152L55.2769 27.2722L56.4499 26.6857L57.183 26.5391Z" fill="#1499D6"/>
<path d="M19.7931 19.9414H20.8195L21.5526 20.3813L21.8459 20.9678V21.9942L21.2594 22.7273L20.9661 22.874H19.9397L19.4998 22.5807H18.4734L17.1538 23.0206L16.4207 23.6071L16.1274 25.3666L15.5409 26.2464L14.5145 27.1262L13.4881 27.4194H12.4617L10.9954 26.8329L10.1157 25.8065L9.67578 24.4869V23.4605L10.2623 21.9942L11.2887 21.1144L12.6083 20.6745L13.928 20.8212L15.3943 21.7009L15.6875 22.1408H17.3004L18.7667 21.4077L19.3532 20.2347L19.7931 19.9414Z" fill="#1499D6"/>
<path d="M37.9756 51.6133L39.2953 51.9065L40.175 53.0796L41.348 53.5194H42.961L43.9873 52.3464L45.307 51.7599H46.6266L47.7997 52.1998L48.8261 53.2262L49.2659 54.2526V55.8655L48.6794 57.1851L47.653 58.0649L46.9199 58.3582H45.1604L43.9873 57.7716L43.1076 56.7453L42.6677 55.4256L42.2278 54.6925L41.348 54.2526L39.8818 54.106L39.1486 54.3992L38.2689 54.6925L37.2425 54.2526L36.9492 53.8127V52.6397L37.3891 51.9065L37.9756 51.6133Z" fill="#1499D6"/>
<path d="M36.8055 7.77148H38.1251L39.4448 8.358L40.3245 9.38439L40.6178 10.2642V11.8771L40.0313 13.0501L40.1779 13.9298L41.0577 15.2495L41.7908 15.6894L43.1104 15.9826L43.697 16.7158V17.7422L42.9638 18.6219L42.6706 18.7686H41.7908L41.0577 18.3287L40.7644 17.7422V16.2759L40.0313 15.1029L39.1515 14.3697L38.7116 14.2231L38.2717 14.3697H36.3656L35.1926 13.6366L34.4594 12.7568L34.0195 11.5838L34.1662 10.1175L34.8993 8.94451L35.9257 8.06474L36.8055 7.77148Z" fill="#1499D6"/>
<path d="M17.3016 42.2285L18.3279 42.3751L18.9145 42.9617L19.0611 43.8414L18.6212 44.7212L18.1813 44.8678L18.0347 46.9206L18.4746 48.2403L19.7942 48.8268L20.8206 49.9998L21.1139 50.7329V52.4925L20.5274 53.6655L19.6476 54.3986L18.7678 54.8385H17.0083L15.8353 54.252L14.8089 53.079L14.5156 52.1992V51.0262L14.9555 49.8532L15.6886 48.9734L17.0083 48.2403L17.3016 46.6273L17.0083 45.3077L16.1285 44.2813L15.9819 43.5482L16.4218 42.6684L16.715 42.3751L17.3016 42.2285Z" fill="#1499D6"/>
<path d="M96.7736 17.7422H99.9994L99.4129 21.1146L97.9467 28.7393L97.6534 29.4724H94.5742L94.7208 28.1528L96.627 18.1821L96.7736 17.7422Z" fill="#1499D6"/>
<path d="M8.94314 35.9238H10.1162L11.2892 36.3637L12.3156 37.5367L12.6088 38.4165V39.5895L12.0223 40.9092L10.8493 41.7889L10.4094 41.9356H8.94314L7.77012 41.3491L6.89036 40.3227L6.5971 39.5895L5.71733 39.2963H4.39768L3.51792 39.7361L2.93141 40.176H2.05164L1.3185 39.5895L1.17188 38.7098L1.46513 37.9766L2.05164 37.5367H3.07803L3.81117 38.2699L4.25106 38.4165H6.01059L6.74373 38.2699L6.89036 37.5367L7.91675 36.3637L8.94314 35.9238Z" fill="#1499D6"/>
<path d="M67.304 32.5508H68.3303L69.0635 33.2839V34.6036L68.477 35.1901H67.304L66.8641 34.8968H65.3978L64.2248 35.4833L63.9315 36.5097L63.345 37.6828L62.4652 38.4159L61.7321 38.7091H60.2658L59.0928 38.1226L58.5063 37.3895L58.0664 36.3631V34.8968L58.6529 33.7238L59.5327 32.9907L60.4124 32.6974H61.4388L62.6119 33.1373L63.6383 34.1637H65.3978L66.2776 33.7238L67.0107 32.6974L67.304 32.5508Z" fill="#1499D6"/>
<path d="M44.2805 1.32031L45.3069 1.46694L45.8934 2.05345V3.07984L45.0136 4.10624L44.867 4.54612V6.30565L45.0136 6.74554L46.1867 7.47867L46.7732 8.21181L47.0664 8.94495V10.4112L46.4799 11.5843L45.3069 12.464L44.867 12.6106H43.4007L42.2277 12.0241L41.3479 10.9977L41.0547 10.2646V9.09158L41.4946 8.06519L42.0811 7.33205L43.2541 6.74554H43.694L43.9872 5.57252V4.25287L43.5474 3.51973L43.2541 3.22647V2.05345L43.8406 1.46694L44.2805 1.32031Z" fill="#1499D6"/>
<path d="M6.59642 13.3438H7.76944L8.50258 14.0769L8.94246 14.81L10.1155 15.3965H11.4351L12.4615 14.5168L12.9014 14.3701H14.6609L15.5407 14.81L16.4205 15.8364L16.7137 16.5696V18.0358L16.1272 19.2089L15.2475 19.942L14.6609 20.2353H12.9014L12.0216 19.7954L10.9953 18.6223L10.702 16.8628L9.82223 16.1297L9.23572 15.8364H7.91607L7.62281 15.983H6.74305L6.00991 15.3965L5.86328 14.3701L6.44979 13.4904L6.59642 13.3438Z" fill="#1499D6"/>
<path d="M56.4521 52.9316L57.9184 53.0783L59.0914 53.8114L59.8245 54.6912L60.2644 55.8642V56.8906L59.6779 58.3569L58.5049 59.3833L57.7717 59.6765H55.8656L54.3993 58.7967L53.6662 57.6237L53.5195 57.1838V55.5709L54.106 54.2513L55.1324 53.3715L56.4521 52.9316Z" fill="#1499D6"/>
<path d="M30.4966 56.4512H32.2561L33.4291 57.0377L34.1623 57.9174L34.4555 58.504V60.1169L33.869 61.2899L32.9892 62.023L32.2561 62.3163L31.2297 62.4629L30.4966 63.6359L30.3499 65.1022L30.7898 65.982L30.6432 66.7151L30.0567 67.3016L29.3236 67.4482L28.2972 67.0084L28.0039 66.4219L28.1505 65.3955L28.8837 64.809L29.6168 64.0758L29.9101 63.196V62.023L28.8837 60.9966L28.4438 59.8236L28.5904 58.3573L29.3236 57.1843L30.4966 56.4512Z" fill="#1499D6"/>
<path d="M18.1826 57.1855H19.2089L20.6752 57.7721L21.7016 58.9451L21.9949 59.6782V61.4377L21.4084 62.6108L20.2353 63.6372L19.3556 63.9304H18.0359L16.8629 63.4905L16.1298 62.904L15.3966 61.5844L15.25 60.2647L15.6899 58.9451L16.2764 58.0653L17.1562 57.4788L18.1826 57.1855Z" fill="#1499D6"/>
<path d="M62.0221 18.3281H63.3418L64.5148 18.768L65.2479 19.3545L65.9811 20.8208V22.5803L65.3945 23.7533L64.2215 24.7797L63.1951 25.073H62.1687L60.8491 24.6331L59.8227 23.6067L59.3828 22.5803V20.8208L59.9693 19.6478L61.1423 18.6214L62.0221 18.3281Z" fill="#1499D6"/>
<path d="M56.1604 42.082H57.7733L58.9463 42.6685L59.5328 43.4017L59.9727 44.5747L59.826 46.3342L60.7058 47.3606L62.0255 47.9471H63.3451L63.9316 48.5336L64.0782 49.4134L63.4917 50.2932L62.612 50.5864L61.8788 50.2932L61.439 49.7067L61.1457 48.6803L60.4126 47.9471L59.6794 47.5073L58.9463 47.3606L57.7733 47.9471H56.0137L54.8407 47.214L54.1076 46.041L53.9609 44.5747L54.4008 43.4017L55.4272 42.3753L56.1604 42.082Z" fill="#1499D6"/>
<path d="M56.7463 11.1445H57.7727L58.5058 11.8777L58.6525 12.7574L58.2126 13.4906L57.6261 13.7838H56.1598L54.9868 14.517L54.4003 15.2501L54.5469 15.9832V17.1563L53.9604 18.3293L53.2272 19.0624L52.0542 19.5023H51.0278L49.7082 18.9158L48.8284 17.7428L48.5352 16.7164L48.6818 15.5434L49.2683 14.517L50.4413 13.6372L51.0278 13.4906H52.0542L53.0806 13.9305L53.3739 14.0771H54.2536L55.4267 13.3439L55.8665 12.9041L56.1598 11.731L56.7463 11.1445Z" fill="#1499D6"/>
<path d="M31.0864 1.32031H32.6993L33.7257 1.7602L34.7521 2.63996L35.192 3.66636L35.3386 4.83938L34.8987 6.30565L34.019 7.33205L32.846 7.91856H31.0864L29.6201 7.18542L28.7404 5.86577L28.5938 5.42589V3.81298L29.3269 2.34671L30.06 1.7602L31.0864 1.32031Z" fill="#1499D6"/>
<path d="M4.83852 24.4863H6.01154L7.47782 25.0728L8.50421 26.2459L8.79746 26.979V28.7385L8.21095 29.9116L7.18456 30.7913L5.86491 31.2312L4.39863 31.0846L3.22561 30.3514L2.49247 29.4717L2.19922 28.7385V26.8324L3.07898 25.3661L3.95875 24.7796L4.83852 24.4863Z" fill="#1499D6"/>
<path d="M20.3801 4.25195L21.1132 4.39858L21.8463 5.13172V6.01149L21.5531 6.45137V7.77102L21.993 8.94404L22.4328 9.38392L23.8991 9.67718L24.7789 10.2637L25.3654 11.1435L25.512 11.5833V13.1962L24.9255 14.3693L23.6059 15.249L22.1396 15.3957L20.9666 14.9558L20.2334 14.3693L19.6469 13.3429V11.5833L20.0868 10.7036L20.9666 9.82381V8.2109L20.3801 7.03788L19.5003 6.45137L19.207 6.01149L19.3537 4.98509L19.9402 4.39858L20.3801 4.25195Z" fill="#1499D6"/>
<path d="M10.7041 45.8945H12.317L13.49 46.481L14.3698 47.6541L14.5164 47.9473V49.7069L13.7833 50.8799L12.9035 51.613L12.4636 51.7596H10.7041L10.1176 51.613L9.23781 52.1995L8.6513 52.9327L8.35805 53.8124V54.6922L8.06479 55.2787L7.47828 55.572H6.59852L5.71875 54.6922V53.8124L6.30526 53.0793L7.91817 52.6394L8.79793 51.613L9.09119 50.8799L8.94456 50.2934L8.6513 49.4136V48.2406L9.09119 47.2142L9.82433 46.3344L10.7041 45.8945Z" fill="#1499D6"/>
<path d="M40.7619 57.332H42.2282L43.4012 57.9185L44.281 58.9449L44.5742 60.4112L44.1344 61.8775L43.8411 62.1707L43.9877 63.1971L44.8675 64.5168L46.1871 64.9567L46.7737 65.5432V66.5696L46.1871 67.3027L45.8939 67.4493H45.0141L44.281 66.8628L44.1344 65.9831L44.281 65.3966L43.8411 64.2235L43.2546 63.4904L42.8147 63.1971H40.7619L39.5889 62.6106L38.7091 61.291L38.5625 60.8511V59.6781L39.2956 58.2118L40.322 57.4787L40.7619 57.332Z" fill="#1499D6"/>
<path d="M297.36 33.5781H298.68L298.386 35.6309L297.213 41.9359L297.067 42.0825H295.747V41.3494L294.427 42.0825L293.108 42.2292L291.788 41.7893L291.055 41.0561L290.762 40.4696V38.5635L291.495 37.0972L292.668 36.0708L293.988 35.6309H295.161L296.187 36.0708L296.773 36.5107L296.92 35.191L297.213 33.7248L297.36 33.5781ZM293.988 36.8039L292.961 37.3904L292.375 38.1236L292.228 38.5635V40.0297L292.961 40.9095L294.281 41.0561L295.454 40.4696L296.04 39.7365L296.334 39.0033V37.977L295.894 37.2438L295.307 36.8039H293.988Z" fill="#1499D6"/>
<path d="M217.887 43.8418H218.913L219.353 48.6805V50.44H219.646L219.94 49.5603L221.552 46.4811L222.872 43.8418H223.898L224.192 45.6013L224.778 50.44L227.124 45.4547L227.857 43.8418H228.884L227.564 46.6277L225.071 51.6131L224.925 51.7597H224.192L223.898 51.1732L223.165 45.6013L223.019 45.4547L220.819 49.7069L219.646 51.7597H218.766L218.327 48.3873L217.887 43.8418Z" fill="#1499D6"/>
<path d="M259.533 34.1641H263.492L264.665 34.7506L265.105 35.6303L264.958 36.95L264.371 37.8298L263.638 38.4163L262.319 38.8561H259.973L259.826 40.3224L259.533 41.9353L259.386 42.082H258.066L258.213 40.7623L259.386 34.4573L259.533 34.1641ZM260.706 35.1905L260.266 37.2432V37.8298H262.319L263.198 37.3899L263.638 36.5101L263.492 35.4837L263.052 35.1905H260.706Z" fill="#1499D6"/>
<path d="M109.677 45.4551L110.41 45.6017V46.3348L111.143 45.7483L111.876 45.4551H113.489L114.369 45.895L114.956 46.6281L115.982 45.7483L116.715 45.4551H118.328L119.208 45.895L119.648 46.4815L119.794 46.9214V47.9477L119.061 51.6134L118.914 51.7601H118.181L118.328 50.4404L118.768 48.0944L118.621 46.7747L118.181 46.3348L116.862 46.1882L115.835 46.6281L115.102 47.5079L114.369 50.7337L114.076 51.7601H113.343L113.489 50.2938L113.929 47.9477L113.783 46.7747L113.343 46.3348L112.023 46.1882L110.997 46.6281L110.41 47.2146L109.97 48.3876L109.384 51.6134L109.237 51.7601H108.504L108.651 50.1472L109.53 45.6017L109.677 45.4551Z" fill="#1499D6"/>
<path d="M180.353 45.4551L181.086 45.6017V46.4815L182.406 45.6017L182.993 45.4551H184.605L185.779 46.0416L186.218 46.6281L186.365 47.068V48.8275L185.925 50.0005L185.192 50.8803L184.019 51.6134L183.432 51.7601H181.673L180.5 51.0269L180.207 50.7337L179.474 54.546H178.594L178.887 52.4932L180.207 45.6017L180.353 45.4551ZM183.286 46.0416L181.966 46.4815L181.086 47.2146L180.647 47.9477L180.5 48.5343V49.8539L180.94 50.587L181.673 51.0269H183.432L184.312 50.587L185.192 49.5607L185.485 48.9741V47.2146L184.752 46.3348L183.286 46.0416Z" fill="#1499D6"/>
<path d="M265.688 35.7773H267.154L267.447 36.6571L268.18 40.6161L269.353 38.5633L270.966 35.7773H272.432L272.139 36.5105L270.673 39.0032L268.913 41.9357L268.767 42.0823H267.154L266.714 40.7627L265.688 36.0706V35.7773Z" fill="#1499D6"/>
<path d="M81.6723 43.8418H82.6987L84.3116 51.6131L84.1649 51.7597H83.4318L83.1385 50.8799L82.9919 49.8535L79.033 50.0002L78.0066 51.7597H77.2734V51.3198L78.5931 48.9738L80.7925 45.3081L81.6723 43.8418ZM81.8189 45.0148L79.6195 48.8271L79.7661 49.267L82.8453 49.1204L82.1122 45.0148H81.8189Z" fill="#1499D6"/>
<path d="M133.138 45.4551H134.897L136.07 46.0416L136.657 47.068V48.3876L136.51 48.8275L131.085 48.9741V50.0005L131.671 50.7337L132.698 51.0269L133.871 50.8803L134.897 50.2938L135.337 49.7073H136.217L135.924 50.4404L134.897 51.3202L133.724 51.7601H131.965L130.792 51.1736L130.205 50.2938L130.059 49.8539V48.6809L130.498 47.3612L131.671 46.0416L133.138 45.4551ZM133.578 46.0416L132.258 46.4815L131.232 47.6545L131.085 48.241H135.777V47.2146L135.337 46.4815L134.164 46.0416H133.578Z" fill="#1499D6"/>
<path d="M231.966 45.4551H233.579L234.605 45.895L235.338 46.7747L235.485 47.2146V48.241L235.338 48.8275H229.766L230.06 50.2938L230.793 50.8803L231.966 51.0269L233.286 50.587L234.165 49.7073H234.898L234.752 50.2938L234.019 51.0269L232.992 51.6134L232.552 51.7601H230.646L229.766 51.3202L229.033 50.4404L228.887 50.1472V48.3876L229.62 46.9214L230.353 46.1882L231.379 45.6017L231.966 45.4551ZM232.259 46.0416L231.086 46.4815L230.353 47.068L229.913 47.9477V48.241H234.605V47.2146L233.872 46.3348L232.992 46.0416H232.259Z" fill="#1499D6"/>
<path d="M167.157 45.4551H168.77L169.943 46.0416L170.53 46.7747L170.676 47.2146V48.241L170.53 48.8275H164.958L165.105 50.1472L165.251 50.587L166.571 51.0269L167.89 50.8803L168.624 50.4404H168.917L169.21 49.8539L169.357 49.7073H170.09L169.943 50.2938L168.624 51.4668L167.744 51.7601H165.838L164.958 51.3202L164.225 50.4404L164.078 50.1472V48.3876L164.665 47.068L165.251 46.3348L166.571 45.6017L167.157 45.4551ZM167.451 46.0416L165.984 46.6281L165.105 47.8011V48.241H169.797L169.65 46.9214L168.77 46.1882L167.451 46.0416Z" fill="#1499D6"/>
<path d="M174.632 45.4551H176.391L177.564 46.0416L178.151 46.9214V48.6809L178.004 48.8275L172.579 48.9741L172.726 50.1472L173.312 50.7337L174.192 51.0269L175.512 50.8803L176.391 50.2938L176.831 49.7073H177.711L177.418 50.4404L176.391 51.3202L175.365 51.7601H173.459L172.286 51.1736L171.699 50.1472V48.3876L172.286 47.068L173.019 46.1882L174.192 45.6017L174.632 45.4551ZM175.072 46.0416L173.899 46.4815L173.019 47.2146L172.726 47.8011V48.241H177.271L177.418 47.5079L176.978 46.6281L176.391 46.1882L175.072 46.0416Z" fill="#1499D6"/>
<path d="M158.505 43.8418H159.238L159.092 45.3081L158.799 47.2142L160.411 45.8946L162.464 44.1351L162.904 43.8418H163.931L163.197 44.5749L161.731 45.8946L159.678 47.5075L159.532 47.8007L162.171 51.0266L162.464 51.7597H161.585L160.118 50.1468L158.652 48.2406L158.212 50.0002L157.919 51.6131L157.772 51.7597H157.039L157.186 50.1468L158.359 43.9884L158.505 43.8418Z" fill="#1499D6"/>
<path d="M274.048 34.1641H275.514L275.221 35.777H276.834L276.687 36.8034L275.074 36.95L274.488 40.0292V40.7623L275.808 40.9089L275.661 42.082H273.901L273.168 41.6421L272.875 41.2022V40.1758L273.608 36.8034H272.875L273.022 35.777L273.755 35.6303L274.048 34.1641Z" fill="#1499D6"/>
<path d="M287.831 34.1641H289.151L289.004 35.777H290.471L290.324 36.8034H288.711L288.125 40.1758V40.7623L289.444 40.9089L289.591 41.2022L289.298 42.082H287.685L286.805 41.6421L286.658 41.4954V39.7359L287.245 36.8034H286.512L286.658 35.777H287.538L287.685 34.4573L287.831 34.1641Z" fill="#1499D6"/>
<path d="M201.024 45.4551H202.784L203.957 46.0416L204.544 46.7747L204.837 47.6545L204.69 49.1208L203.81 50.587L202.637 51.4668L201.758 51.7601H199.851L198.972 51.3202L198.092 50.2938L197.945 48.8275L198.385 47.3612L199.412 46.1882L200.585 45.6017L201.024 45.4551ZM201.464 46.0416L200.291 46.4815L199.558 47.068L198.972 48.241L198.825 49.414L199.265 50.4404L199.998 51.0269L201.171 51.1736L202.491 50.7337L203.224 50.0005L203.664 49.414L203.957 48.3876L203.81 47.2146L203.077 46.3348L202.198 46.0416H201.464Z" fill="#1499D6"/>
<path d="M103.814 45.4551H105.573L106.746 46.0416L107.333 46.9214L107.479 47.3612V48.6809L106.893 50.1472L105.866 51.1736L104.4 51.7601H102.641L101.468 51.1736L100.881 50.4404L100.734 50.0005V48.3876L101.321 47.068L102.347 46.0416L103.814 45.4551ZM104.253 46.0416L102.934 46.4815L101.907 47.6545L101.614 48.3876V49.8539L102.201 50.7337L103.374 51.1736L104.84 50.8803L105.72 50.2938L106.453 49.2674L106.599 48.6809V47.3612L106.013 46.4815L104.84 46.0416H104.253Z" fill="#1499D6"/>
<path d="M148.681 45.4551H150.44L151.613 46.0416L152.2 46.7747L152.346 47.068V48.9741L151.613 50.4404L150.294 51.4668L149.414 51.7601H147.508L146.628 51.3202L145.895 50.587L145.602 49.5607L145.748 48.0944L146.335 46.9214L147.508 45.895L148.681 45.4551ZM149.121 46.0416L147.948 46.4815L147.214 47.068L146.628 48.0944L146.481 49.5607L146.921 50.587L147.654 51.0269L148.827 51.1736L150.147 50.7337L151.32 49.414L151.613 47.8011L151.173 46.7747L150.44 46.1882L149.121 46.0416Z" fill="#1499D6"/>
<path d="M282.111 34.1641H283.43L283.284 35.777L282.257 41.0556H285.043L284.897 42.082H280.645L280.938 40.0292L281.964 34.6039L282.111 34.1641Z" fill="#1499D6"/>
<path d="M90.7632 43.8418H94.4288L95.3086 44.2817L95.7485 44.8682V46.4811L95.162 47.3609L94.4288 47.9474L93.6957 48.2406L90.9098 48.3873L90.6165 49.267L90.1766 51.6131L89.4435 51.7597L89.2969 51.0266L90.6165 44.1351L90.7632 43.8418ZM91.4963 44.4283L90.9098 47.0676V47.6541H93.4025L94.2822 47.2142L94.8687 46.4811L95.0154 45.4547L94.5755 44.7216L93.989 44.4283H91.4963Z" fill="#1499D6"/>
<path d="M207.333 45.4551L207.626 45.6017L207.333 47.6545L207.04 49.2674L207.187 50.2938L207.773 50.8803H209.533L210.412 50.2938L210.852 49.7073L211.732 45.6017L212.319 45.4551H212.612L212.465 46.7747L211.585 51.4668L211.439 51.7601H210.706L210.559 51.0269L209.679 51.6134L209.239 51.7601H207.48L206.453 51.1736L206.16 50.587V48.6809L206.747 45.6017L207.333 45.4551Z" fill="#1499D6"/>
<path d="M125.805 45.4551H127.564L128.591 46.0416L128.884 46.4815V47.3612H128.151L127.858 46.6281L127.125 46.1882H126.098L125.365 46.6281L125.218 47.3612L125.805 47.9477L127.711 48.6809L128.444 49.414V50.7337L127.418 51.6134L126.831 51.7601H125.072L124.192 51.3202L123.752 50.8803L123.605 50.0005H124.485L124.778 50.7337L125.512 51.0269H126.538L127.418 50.587L127.564 49.8539L126.978 49.2674L125.072 48.5343L124.339 47.8011L124.192 46.9214L124.632 46.0416L125.805 45.4551Z" fill="#1499D6"/>
<path d="M191.789 43.8418H192.815L194.135 47.6541L194.722 47.0676L196.188 45.0148L197.068 43.8418H197.947L197.654 44.4283L195.601 47.2142L194.575 48.5339L193.988 51.4664L193.842 51.7597H193.109L193.255 50.0002L193.402 49.267V48.2406L191.789 43.9884V43.8418Z" fill="#1499D6"/>
<path d="M98.6793 12.9023H99.999L100.732 13.3422L101.025 13.9287L100.879 15.1018L100.292 15.8349L99.4124 16.2748H97.9462L97.0664 15.5416V14.222L97.9462 13.1956L98.6793 12.9023Z" fill="#1499D6"/>
<path d="M142.816 43.9883H143.696L143.549 45.6012L145.162 45.4546L145.308 45.7478L145.162 46.1877H143.256L143.109 47.654L142.669 49.8534V50.7332L144.135 51.0264L143.989 51.7595H142.962L142.083 51.4663L141.643 50.8798L141.789 49.2669L142.376 46.1877H141.496L141.789 45.4546H142.522L142.816 43.9883Z" fill="#1499D6"/>
<path d="M240.615 43.4023H241.641L240.028 51.6135L239.295 51.7601L239.148 51.3202L240.615 43.4023Z" fill="#1499D6"/>
<path d="M97.3605 45.4551L98.0937 45.6017V46.4815L99.1201 45.6017L100.44 45.4551L100.293 46.1882L98.6802 46.6281L97.947 47.5079L97.0673 51.6134L96.9206 51.7601H96.1875L96.3341 50.2938L97.2139 45.7483L97.3605 45.4551Z" fill="#1499D6"/>
<path d="M237.976 43.4023H238.709L238.563 44.8686L237.243 51.6135L236.51 51.7601L236.363 51.1736L237.83 43.549L237.976 43.4023Z" fill="#1499D6"/>
<path d="M66.2764 36.2168L67.3028 36.3634L67.8893 36.9499L68.0359 37.9763L67.596 38.7095L67.0095 39.0027L65.9831 38.8561L65.3966 38.2696L65.25 37.2432L65.6899 36.5101L66.2764 36.2168Z" fill="#1499D6"/>
<path d="M47.9462 59.6777H48.9726L49.7057 60.2642L49.8523 60.5575V61.4373L49.1192 62.317H47.9462L47.213 61.5839L47.0664 60.8508L47.5063 59.971L47.9462 59.6777Z" fill="#1499D6"/>
<path d="M7.03992 19.209H8.06632L8.79945 19.7955L8.94608 20.0888V20.9685L8.35957 21.7017L8.06632 21.8483H7.03992L6.30678 21.1151L6.16016 20.382L6.60004 19.5022L7.03992 19.209Z" fill="#1499D6"/>
<path d="M10.1162 10.9961L11.1426 11.1427L11.7291 11.8759V12.9023L11.1426 13.6354L10.1162 13.782L9.23647 13.1955L9.08984 12.9023V11.8759L9.82298 11.1427L10.1162 10.9961Z" fill="#1499D6"/>
<path d="M41.2022 64.8086H42.0819L42.8151 65.3951L42.9617 65.6884V66.5681L42.3752 67.3013L42.0819 67.4479H41.0555L40.3224 66.7148L40.1758 65.9816L40.6157 65.1018L41.2022 64.8086Z" fill="#1499D6"/>
<path d="M57.9167 49.2676H59.0898L59.8229 50.0007V51.0271L59.2364 51.7602L58.9431 51.9069H58.0634L57.3302 51.3204L57.1836 51.0271V50.0007L57.9167 49.2676Z" fill="#1499D6"/>
<path d="M56.7449 15.543H57.9179L58.5044 16.1295L58.651 16.4227V17.3025L58.0645 18.0356L57.7713 18.1823H56.7449L56.0117 17.4491V16.2761L56.7449 15.543Z" fill="#1499D6"/>
<path d="M5.7199 49.1211L6.59966 49.2677L7.3328 50.1475L7.18617 51.1739L6.59966 51.7604L5.7199 51.907L4.98676 51.4671L4.54688 50.8806L4.6935 49.8542L5.28001 49.2677L5.7199 49.1211Z" fill="#1499D6"/>
<path d="M47.0691 3.66602H48.2421L48.9752 4.39915V5.57218L48.3887 6.15869L48.0955 6.30531H47.2157L46.4826 5.7188L46.3359 5.42555V4.54578L47.0691 3.66602Z" fill="#1499D6"/>
<path d="M38.5634 3.51953H39.7364L40.4695 4.3993V5.27906L39.883 6.0122L39.5898 6.15883H38.71L37.8302 5.42569L37.6836 4.69255L38.1235 3.81279L38.5634 3.51953Z" fill="#1499D6"/>
<path d="M12.6105 54.252L13.4903 54.3986L14.0768 54.9851V56.3047L13.197 57.0379L12.1706 56.8913L11.5841 56.3047L11.4375 55.2783L12.1706 54.3986L12.6105 54.252Z" fill="#1499D6"/>
<path d="M63.3425 28.1523H64.5155L65.102 28.7389L65.2487 29.0321V29.9119L64.6622 30.645L64.3689 30.7916H63.4891L62.756 30.2051L62.6094 29.9119V28.8855L63.3425 28.1523Z" fill="#1499D6"/>
<path d="M24.3407 5.71875H25.2205L25.9536 6.30526L26.1002 6.59852V7.62491L25.3671 8.35805H24.1941L23.4609 7.62491V6.59852L24.0474 5.86538L24.3407 5.71875Z" fill="#1499D6"/>
<path d="M26.6868 61.1445L27.7132 61.5844L28.0065 62.0243V63.0507L27.42 63.7838L26.3936 63.9305L25.5138 63.3439L25.3672 63.0507V62.1709L25.8071 61.4378L26.6868 61.1445Z" fill="#1499D6"/>
<path d="M4.83889 33.8711L5.71866 34.0177L6.4518 34.7509V35.7773L5.71866 36.5104L4.98552 36.657L4.10576 36.2171L3.8125 35.6306L3.95913 34.6042L4.54564 34.0177L4.83889 33.8711Z" fill="#1499D6"/>
<path d="M122.142 45.4551L122.875 45.6017L122.728 46.9214L121.849 51.6134L121.702 51.7601H120.969L121.115 50.2938L121.995 45.6017L122.142 45.4551Z" fill="#1499D6"/>
<path d="M22.5787 65.6895H23.7517L24.1916 66.1293L24.3382 66.8625L23.8983 67.5956L23.0186 67.8889L22.2854 67.449L21.9922 67.0091L22.1388 66.1293L22.5787 65.6895Z" fill="#1499D6"/>
<path d="M62.905 52.9316H63.7848L64.3713 53.5182V54.5445L63.6382 55.1311L62.6118 54.9844L62.1719 54.3979L62.3185 53.3715L62.905 52.9316Z" fill="#1499D6"/>
<path d="M3.37376 20.8203L4.25353 20.9669L4.84004 21.5535L4.69341 22.5798L4.25353 23.0197H3.22714L2.64062 22.4332V21.5535L3.37376 20.8203Z" fill="#1499D6"/>
<path d="M37.3912 0H38.271L39.0041 0.733138L38.8575 1.75953L38.1243 2.19942L37.2446 2.05279L36.8047 1.46628V0.586511L37.3912 0Z" fill="#1499D6"/>
<path d="M11.731 58.9434H12.7574L13.3439 59.6765V60.4096L12.7574 60.9961L12.0243 61.1428L11.2912 60.7029L11.1445 60.4096V59.5299L11.731 58.9434Z" fill="#1499D6"/>
<path d="M0.733138 33.1387H1.6129L2.19942 33.7252L2.34604 34.3117L1.90616 35.0448L1.6129 35.3381H0.733138L0.146628 34.7516L0 34.0184L0.439883 33.2853L0.733138 33.1387Z" fill="#1499D6"/>
<path d="M52.7839 62.6094L53.8103 62.756L54.2502 63.3425L54.1036 64.3689L53.5171 64.8088L52.4907 64.6622L52.0508 64.0757L52.1974 63.0493L52.7839 62.6094Z" fill="#1499D6"/>
<path d="M25.9522 1.02539L26.6853 1.17202L27.1252 1.6119V2.6383L26.5387 3.22481H25.5123L24.9258 2.49167L25.0724 1.6119L25.5123 1.17202L25.9522 1.02539Z" fill="#1499D6"/>
<path d="M61.5826 13.1973H62.7556L63.1955 13.7838V14.6635L62.609 15.2501L62.0225 15.3967L61.2893 14.9568L60.9961 14.5169L61.1427 13.6371L61.5826 13.1973Z" fill="#1499D6"/>
<path d="M67.8873 26.6855H68.9137L69.5002 27.2721V28.1518L68.9137 28.7383L68.3272 28.885L67.594 28.5917L67.3008 28.0052L67.4474 27.1254L67.8873 26.6855Z" fill="#1499D6"/>
<path d="M122.582 43.2559H123.315L123.462 43.989L122.876 44.4289L122.289 44.2823V43.5491L122.582 43.2559Z" fill="#1499D6"/>
</svg>
