<svg width="235" height="100" viewBox="0 0 235 100" fill="none" xmlns="http://www.w3.org/2000/svg">
<path d="M37.6045 0H39.6936L43.7326 0.278552L47.3538 0.835655L50.2786 1.67131L53.0641 2.78552L56.2674 4.31755L58.7744 5.84958L61.0028 7.52089L63.0919 9.33148L64.4847 10.7242L65.4596 11.8384L67.1309 13.9276L68.8022 16.4345L70.195 18.8022L71.3092 21.0306L72.4234 23.3983L73.6769 26.7409L74.3733 29.2479L74.9304 32.5905L75.2089 35.376V42.0613L74.7911 45.6824L73.9554 49.1643L72.702 52.7855L70.7521 56.6852L69.4986 58.6351L68.2451 60.3064L66.7131 62.117L65.0418 63.9276L63.5098 65.3203L62.117 66.4345L60.3064 67.8273L58.078 69.2201L57.1031 69.0808L55.9889 67.9666L54.8747 66.9916L53.4819 65.5989L52.3677 64.624L50.5571 62.9526L48.468 61.0028L46.5181 59.3315L45.6825 58.6351L45.5432 58.078L46.6574 57.3816L48.8858 56.4067L50.8357 55.1532L53.0641 53.3426L54.3176 51.9499L55.2925 50.5571L56.4067 48.7465L57.7994 45.8217L58.4958 43.5933L58.9137 41.0863L59.0529 39.415V34.9582L58.7744 32.7298L58.078 30.2228L56.8245 27.298L55.7103 25.4875L54.3176 23.6769L52.3677 21.727L50 20.0557L47.0752 18.3844L43.8719 17.1309L40.39 16.2953L37.3259 15.7382L35.6546 15.5989H32.7298L30.3621 15.8774L26.7409 16.7131L23.3983 17.8273L20.4735 19.0808L17.5487 20.4735L14.7632 22.0056L11.1421 24.234L9.33148 25.4875L7.38162 26.8802L4.87465 28.8301L2.78552 30.6407L1.53203 31.7549L0 32.312L0.417827 30.6407L1.53203 27.0195L2.36769 24.5125L3.76045 21.1699L5.29248 18.3844L6.82451 16.156L8.49582 13.9276L9.7493 12.5348L10.7242 11.4206L11.6992 10.4457L12.8134 9.47075L15.0418 7.66017L17.8273 5.84958L21.0306 4.039L24.0947 2.64624L27.8552 1.39276L30.7799 0.696379L33.5655 0.278552L37.6045 0Z" fill="#071459"/>
<path d="M36.2118 27.5762H38.1617L39.833 27.994L41.2258 28.6904L43.1756 30.2224L44.9862 32.033L46.2397 33.9829L46.9361 35.5149L47.2146 36.7684V38.7182L46.6575 40.9466L45.6826 42.618L44.5684 44.0107L44.1506 44.2893H42.6185L41.6436 44.15H35.3762L32.4514 44.5678L30.0837 45.2642L27.4375 46.3784L26.0447 47.2141L24.0948 48.6068L23.677 48.7461V49.0246L22.5628 49.9996L21.1701 51.6709L19.9166 53.4815L19.0809 54.8742L17.9667 57.1026L17.2703 58.7739L16.574 61.1416L16.2954 63.37L16.1561 95.682L16.0169 99.5817L15.8776 99.8603L15.4598 99.9996H4.17841L0.557245 99.8603L0.417969 99.721V93.7322L0.557245 60.1667L1.67145 56.1277L3.06421 51.9494L4.03914 49.721L5.15334 47.4926L6.40683 45.2642L7.52103 43.4536L8.91379 41.5037L10.8637 39.1361L12.3957 37.4648L13.7884 36.072L16.0169 34.4007L18.106 33.0079L20.7522 31.4759L23.677 30.2224L27.0196 29.1082L30.223 28.4118L33.287 27.8547L36.2118 27.5762Z" fill="#00A155"/>
<path d="M25.6276 56.2676L26.4632 56.6854L28.1345 58.2174L29.9451 59.8887L30.92 60.8637L32.0342 61.8386L34.2627 63.9277L35.6554 65.1812L37.1874 66.574L38.3017 67.5489L39.973 69.0809L42.0621 71.0308L43.7334 72.5628L45.8225 74.5127L48.6081 77.0197L50.2794 78.5517L52.5078 80.6408L54.1791 82.1729L56.9646 84.6798L60.5858 88.0225L62.6749 89.9723L64.0677 91.2258L65.1819 92.2007L67.271 94.1506L68.9423 95.6826L70.7529 97.3539L71.8671 98.3289L72.842 99.3038L72.7028 99.7216H64.4855L50.9757 99.8609L49.8615 99.3038L48.1902 97.7718L47.076 96.7968L45.2654 95.1255L43.3156 93.1757L42.2014 92.2007L37.8838 88.1617L36.0732 86.4904L34.8198 85.2369L33.7056 84.262L32.1735 82.73L31.0593 81.755L29.1095 79.8052L27.9952 78.8303L26.6025 77.5768L25.7668 76.6018V71.4486L25.6276 59.7495L25.4883 56.6854L25.6276 56.2676Z" fill="#071459"/>
<path d="M84.9578 27.8555H94.0107L96.2392 27.9947L98.4676 28.5518L99.9996 29.5268L101.253 30.7803L102.367 32.7301L103.064 34.8193V36.4906L102.367 38.9975L101.532 40.3903L100.417 41.6438L99.0247 42.4794L97.4926 43.1758L97.7712 43.8722L99.4425 46.2399L103.621 52.5073L103.899 53.2037L103.481 53.4822L100.696 53.3429L96.5177 53.2037L95.682 52.6466L94.0107 50.0003L92.618 47.4934L91.3645 45.1257L90.6681 44.4293H90.2503L90.3896 48.4683V53.2037L90.2503 53.3429H85.5149L83.5651 53.2037L83.4258 52.9251V27.9947L84.9578 27.8555Z" fill="#071459"/>
<path d="M83.4256 63.9277H92.3393L94.8463 64.3456L96.6568 65.0419L97.9103 65.8776V66.1561L98.3281 66.2954L99.5816 68.5238L100.139 70.3344V72.0057L99.5816 74.0949L98.746 75.4876L97.6318 76.6018L96.0997 77.4375L95.5426 78.1339L95.6819 79.1088L97.3532 81.3372L99.3031 84.1227L101.114 86.769V87.1868L100.835 87.3261L95.5426 87.1868L94.1499 86.9082L92.7571 84.5405L91.5036 82.3121L90.3894 80.0837L89.4145 79.1088L88.7181 78.9695V80.9194L89.1359 83.9834V86.6297L88.4396 87.0475L87.4646 87.1868H83.1471L83.0078 87.0475V80.7801L83.1471 64.2063L83.4256 63.9277Z" fill="#00A155"/>
<path d="M153.343 35.0977H155.432L157.242 35.5155L158.774 36.769L160.167 37.4653L160.446 36.9082L160.724 35.9333L161.142 35.6548H165.46L166.017 35.794L166.156 36.0726V52.7857L166.017 53.2035L165.599 53.3428H160.863L160.585 53.2035L160.306 50.9751L159.471 51.5322L157.799 53.0642L155.85 53.7606L155.014 53.8999H152.785L151.114 53.4821L149.443 52.6464L148.607 51.95L147.354 50.2787L146.518 48.4681L146.1 46.9361L145.961 45.4041V44.1506L146.239 42.0614L146.657 40.5294L147.632 38.5796L148.607 37.3261L149.721 36.3511L151.393 35.5155L153.343 35.0977Z" fill="#071459"/>
<path d="M216.156 26.3223H217.827L217.967 26.4615L218.106 28.69V38.0214H218.384L219.359 37.0465L220.752 36.0716L221.866 35.5145L223.955 35.0966H225.488L227.298 35.5145L228.691 36.3501L229.944 37.7429L230.641 39.1356L230.919 40.2498L231.059 41.6426V50.417L230.919 53.2025L230.78 53.3418H224.652L224.513 53.2025V41.9212L224.095 40.9462L223.398 40.3891L222.702 40.1106H220.613L219.638 40.6677L218.663 41.9212L218.384 42.4783L218.245 44.4281L218.106 52.0883L217.967 53.3418H211.838L211.699 53.2025V26.6008L212.396 26.4615L216.156 26.3223Z" fill="#071459"/>
<path d="M186.909 62.8125L188.441 62.9518L188.719 63.3696V80.7791L188.58 85.793L188.301 87.0465L188.023 87.1858H184.68L183.984 86.9072L183.566 85.9323L183.009 85.5144L182.173 85.793L179.666 87.4643L178.691 87.8821L176.881 87.7429L175.07 86.9072L173.538 85.793L172.563 84.8181L171.728 83.4253L171.171 81.4755L171.031 80.6398V77.5757L171.449 75.3473L172.424 73.5367L173.399 72.2833L174.931 71.169L176.602 70.6119L177.577 70.4727H178.691L180.223 71.0298L183.148 72.9796L183.566 73.1189L183.288 68.2443L183.148 63.0911L183.288 62.9518L186.909 62.8125Z" fill="#00A155"/>
<path d="M142.338 70.334H143.313L145.124 70.8911L146.377 71.7267L147.074 72.2838L148.048 73.8159L148.327 74.9301L148.466 87.0471L148.327 87.1864H143.592L142.756 87.0471L142.617 86.3507L142.756 84.1223V77.0192L142.477 75.4872L140.806 75.0694H139.831L138.717 75.6265L138.299 76.1836L138.021 77.0192L137.881 86.7685L137.464 87.0471H132.728L132.589 86.9078V77.437L132.171 75.7657L131.475 75.2086L131.057 75.0694H129.525L128.689 75.4872L127.993 76.3228L127.714 77.0192V86.49L127.575 86.7685H127.296V87.0471L126.461 87.1864H123.257L122.004 87.0471V83.4259L122.143 71.4482L122.561 71.0304H126.321L127.018 71.5875L127.575 72.7017L128.132 72.8409L129.246 72.2838L130.082 71.3089L131.057 70.6125L131.475 70.4733H134.121L135.514 71.1696L136.071 71.5875V71.866H136.349L137.046 72.8409L137.742 72.9802L138.856 72.4231L139.97 71.3089L141.085 70.6125L142.338 70.334Z" fill="#00A155"/>
<path d="M114.067 35.0977H115.738L117.549 35.3762L119.081 35.9333L120.334 36.769L121.309 37.6046L122.145 38.7188L123.399 40.9472L123.956 43.0364L124.234 44.847V45.5433L124.095 45.6826L122.841 45.8219L118.663 45.6826L110.864 45.9612L110.724 46.1004V47.0754L111.282 48.4681L112.256 49.3038L113.649 49.7216H115.181L116.713 49.4431L117.41 49.0252L118.245 48.3289H119.499L121.867 49.0252L123.259 49.5823L123.399 50.0002L122.841 50.9751L121.588 52.0893L119.917 53.0642L118.385 53.6213L116.713 53.8999L114.067 54.0392L111.839 53.7606L109.75 53.0642L108.496 52.2286L106.825 50.6965L105.989 49.7216L105.153 48.3289L104.596 46.379L104.457 45.6826V44.0113L105.014 41.6436L106.128 39.2759L107.382 37.7439L108.496 36.769L110.724 35.6548L112.674 35.2369L114.067 35.0977Z" fill="#071459"/>
<path d="M182.453 35.0977H184.96L186.771 35.6548L188.163 36.769L189.278 38.301L189.835 39.6938L189.974 40.2509L190.113 42.8971L189.974 53.2035L189.835 53.3428H184.124L183.567 53.2035L183.428 42.8971L183.149 41.0865L182.453 40.3901L181.339 39.9723H179.807L178.832 40.3901L178.136 41.0865L177.578 41.9222L177.3 43.0364L177.161 46.6575L177.021 53.3428H170.893L170.754 53.2035V35.9333L170.893 35.794L172.564 35.6548H176.046L176.464 36.2119V38.8581L177.578 37.8832L178.971 36.4904L180.364 35.6548L182.453 35.0977Z" fill="#071459"/>
<path d="M143.455 35.6543H144.847L144.708 36.3507L142.201 42.061L140.391 46.3785L137.884 51.9496L135.794 56.2671L134.68 58.7741L133.566 60.8632L133.287 61.0025L126.741 60.8632L127.159 59.6097L128.552 57.1028L130.502 52.7852L131.338 51.2532V49.9997L129.248 45.8214L127.577 42.2003L126.463 39.9718L124.652 36.2114L124.792 35.7936H131.477L132.034 36.6292L133.427 40.3897L134.402 43.0359L134.819 43.7323L135.098 43.4537L136.352 39.9718L137.884 36.6292L138.441 35.9328L138.719 35.7936L143.455 35.6543Z" fill="#071459"/>
<path d="M109.612 70.4727H111.562L113.094 70.7512L114.904 71.7261L116.576 73.2582L117.829 75.208L118.665 77.4364L118.943 78.4114V80.3612L118.247 80.5005L116.297 80.3612H113.372L111.979 80.5005H107.105L106.966 81.0576L107.383 82.5896L107.523 83.0075L108.219 83.286L109.055 83.7039L111.005 83.9824L112.397 83.7039L112.676 83.1468L113.79 82.4504L114.765 82.5896L117.133 83.1468L117.829 83.5646L117.968 84.261L117.411 85.2359L116.018 86.2108L114.069 87.1857L112.119 87.8821H109.612L107.244 87.1857L105.712 86.3501L103.901 84.9573L102.369 83.0075L101.673 81.1969L101.395 79.9434L101.534 77.8543L102.091 76.0437L103.205 73.9546L104.459 72.5618L105.991 71.4476L107.383 70.8905L109.612 70.4727Z" fill="#00A155"/>
<path d="M209.47 70.4727H211.559L212.952 70.7512L214.902 71.7261L216.573 73.2582L217.548 74.6509L218.801 77.4364L219.08 78.2721V79.6649L218.662 80.3612H213.927L207.659 80.5005L206.963 80.7791L207.102 81.8933L207.52 82.7289L208.634 83.4253L209.749 83.8431L212.255 83.7039L213.37 82.7289L213.788 82.5896H215.459L217.269 83.0075L217.687 83.4253V84.6788L216.852 85.6537L215.32 86.6286L213.788 87.325L212.534 87.7429L211.42 87.8821H210.027L207.659 87.325L205.431 86.2108L205.013 85.9323V85.6537L204.456 85.3752L203.063 83.9824L202.088 82.4504L201.531 80.5005V78.2721L201.81 76.8793L202.645 74.7902L203.899 73.2582L205.013 72.144L206.267 71.3083L207.799 70.7512L209.47 70.4727Z" fill="#00A155"/>
<path d="M158.913 70.4727H161.838L163.23 70.8905L164.762 71.8654L166.434 73.5367L167.409 75.0688L168.105 76.8793L168.383 79.6649L168.105 80.5005L165.598 80.3612L156.963 80.5005L156.684 80.6398L156.545 81.1969L157.102 82.7289L158.216 83.5646L159.47 83.8431H160.723L162.255 83.286L163.927 82.4504L165.041 82.5896L167.269 83.286V83.5646H167.548L167.687 84.5395L167.13 85.2359L165.319 86.3501L163.091 87.4643L162.255 87.7429L161.141 87.8821H159.609L157.381 87.325L155.709 86.6286L153.76 85.0966L152.227 83.1468L151.531 81.754L151.253 80.9183L151.113 79.9434V78.6899L151.531 76.7401L152.227 75.0688L153.063 73.8153L154.317 72.4225L156.266 71.169L158.077 70.6119L158.913 70.4727Z" fill="#00A155"/>
<path d="M199.443 35.0977H202.368L204.736 35.5155L206.964 36.2119L207.66 36.769L207.939 37.6046L207.66 38.7188L206.825 40.3901L206.268 40.9472L205.71 40.6687L204.736 40.1116L203.064 39.6938H199.582L199.443 41.0865V41.3651L200.139 41.6436L203.064 42.4793L205.71 43.4542L207.242 44.4291L208.357 45.9612L208.635 46.6575L208.775 47.911L208.217 49.8609L207.521 51.1144L206.268 52.5071L204.039 53.6213L202.368 53.8999H199.582L197.075 53.6213L195.126 53.0642L193.733 52.5071L193.036 51.95L192.758 51.5322V50.5573L193.454 48.0503L193.733 47.4932L194.986 47.7718L197.493 48.886L199.025 49.1645H202.368L202.507 47.7718L202.229 47.2146L200.697 46.6575L198.329 45.9612L195.961 44.847L194.29 43.3149L193.593 41.9222V39.5545L194.29 37.8832L194.986 37.0475L196.797 35.794L198.607 35.2369L199.443 35.0977Z" fill="#071459"/>
<path d="M227.718 70.334L229.389 70.4733L231.478 71.0304L233.149 71.866L233.707 72.7017V74.0944L233.01 75.4872L232.732 75.6265H231.757L230.364 75.2086L229.11 74.6515L227.3 74.5123L226.603 74.7908L226.464 75.6265L227.021 76.3228L228.414 77.0192L230.642 77.7156L232.871 78.8298L233.567 79.3869L234.403 80.7797L234.681 81.476V82.7295L233.428 84.9579L232.314 86.0721L230.782 87.0471L229.528 87.6042L228.971 87.7435H227.021L224.654 87.3256L222.286 86.7685L221.45 86.3507L220.893 85.7936L220.754 85.3758V84.2616L221.311 81.6153L222.425 81.7546L224.236 82.8688L226.603 83.5652L227.161 83.7045H228.832L229.389 82.8688L229.25 81.8939L228.693 81.476L225.629 80.6404L223.818 79.944L222.286 78.9691L221.45 77.8549L221.172 77.1585V74.5123L221.729 73.1195L223.261 71.5875L224.793 70.8911L226.325 70.4733L227.718 70.334Z" fill="#00A155"/>
<path d="M192.897 71.3086H198.05L198.607 71.5871V76.3225L198.468 81.1972V87.0468L198.329 87.186H193.315L192.758 87.0468V71.4479L192.897 71.3086Z" fill="#00A155"/>
<path d="M10.3079 39.832H10.5864L10.4472 40.5284L9.75079 41.3641H9.47224L9.33297 41.9212L8.63659 42.6175H8.35804L8.21876 43.3139L7.52238 45.2638L7.10455 45.9602L5.99035 48.1886H5.7118L5.29397 49.5813L4.73687 50.6955H4.45831L4.31904 51.3919L4.17976 51.8097H3.90121L3.62266 53.0632L3.20483 53.8989L2.92628 54.8738L2.50845 55.8487L2.09063 57.2415L1.53352 59.4699L1.39425 60.3056V61.8376L1.53352 62.9518L1.81208 66.8515L1.95135 77.715V90.807L1.81208 93.3139L1.6728 96.2387V97.4922L1.39425 98.4671L1.25497 99.4421L1.6728 99.7206H0.69787L0.558594 99.5813V60.1663L1.6728 56.1273L3.06556 51.949L4.04049 49.7206L5.15469 47.4922L6.40818 45.2638L7.52238 43.4532L8.91514 41.5033L10.3079 39.832Z" fill="#008945"/>
<path d="M156.126 39.9727L157.937 40.2512L159.33 41.2261L160.165 42.3403L160.444 43.0367V45.5437L160.026 46.7972L159.051 47.9114L157.519 48.747L156.962 48.8863H155.291L154.176 48.4685L153.341 47.7721L152.505 46.3793L152.227 45.2651V43.3153L152.923 41.9225L153.619 41.0869L155.012 40.2512L156.126 39.9727Z" fill="#FEFEFE"/>
<path d="M178.969 75.3477H180.78L182.451 76.044L183.287 76.7404L183.704 77.4368V79.9438L183.147 81.3365L182.172 82.4507L180.919 83.0078L180.362 83.1471H178.969L177.855 82.59L176.88 81.4758L176.323 80.3616L176.184 78.8296L176.601 77.4368L177.437 76.1833L178.273 75.6262L178.969 75.3477Z" fill="#FEFEFE"/>
<path d="M90.6704 33.4258H92.481L94.2916 33.8436L95.4058 34.8185L95.8236 35.6542L95.9629 37.1862L95.545 38.3004L94.5701 39.1361L92.7595 39.6932L90.9489 39.8325L90.5311 39.6932L90.3918 39.4146L90.2526 35.7935L90.1133 35.0971V34.1222L90.3918 33.5651L90.6704 33.4258Z" fill="#FEFEFE"/>
<path d="M194.708 63.2305H196.24L197.354 63.7876L198.189 64.484L198.886 65.7374L198.747 66.9909L198.05 68.1051L196.936 69.0801L196.1 69.3586H195.125L193.315 68.3837L192.758 67.6873L192.34 66.7124L192.618 65.4589L193.315 64.2054L194.29 63.3697L194.708 63.2305Z" fill="#00A155"/>
<path d="M89.5558 68.9414H90.8092L92.8984 69.6378L93.734 70.3342L94.0126 71.0305V72.7019L93.5948 73.5375L92.6198 74.2339L90.5307 75.0695L89.5558 74.9303L89.1379 74.5124L88.9987 73.6768L88.8594 70.0556L89.1379 69.22L89.5558 68.9414Z" fill="#FEFEFE"/>
<path d="M113.508 39.1367H115.319L116.294 39.5545L117.547 40.5295L117.965 41.2259V41.9222L117.686 42.2008L113.787 42.3401H111.001L110.723 41.9222L110.862 40.808L111.558 39.9724L112.951 39.276L113.508 39.1367Z" fill="#FEFEFE"/>
<path d="M158.494 74.2344H160.583L161.698 74.6522L162.812 75.9057L162.951 76.8806L162.533 77.1592L157.38 77.0199L156.684 76.6021L156.823 75.7664L157.798 74.6522L158.494 74.2344Z" fill="#FEFEFE"/>
<path d="M209.331 74.2344H210.863L212.117 74.6522L213.092 75.7664L213.231 76.8806L212.674 77.1592H208.774L207.521 76.8806L207.242 76.4628L207.381 75.6271L208.217 74.6522L208.635 74.3737L209.331 74.2344Z" fill="#FEFEFE"/>
<path d="M108.774 74.373H111.42L112.535 75.0694L113.092 75.9051L113.231 76.88L112.813 77.1586H108.356L107.521 76.88L107.242 76.6015V75.7658L107.799 75.0694L108.774 74.373Z" fill="#FEFEFE"/>
<path d="M193.593 63.9277H193.872L194.15 64.6241H194.708L194.568 65.4598L194.15 66.0169L193.315 66.4347L193.036 66.8525L192.34 66.7132L192.618 65.4598L193.315 64.2063L193.593 63.9277Z" fill="#008844"/>
<path d="M10.3065 39.832H10.5851L10.4458 40.5284L9.74943 41.3641H9.47088L9.33161 41.9212L8.63523 42.6175L8.07812 42.8961L8.35668 42.1997L9.61016 40.6677L10.3065 39.832Z" fill="#008447"/>
<path d="M233.426 84.2617L233.566 84.6795L232.591 85.7938L231.059 86.908V86.4901L231.894 85.6545H232.173V85.3759L233.287 84.401L233.426 84.2617Z" fill="#008848"/>
<path d="M165.043 72.4238L165.6 72.7024L166.714 73.9559L166.854 74.6522L166.436 74.513V74.2344H166.157L165.043 72.7024V72.4238Z" fill="#008B46"/>
<path d="M183.285 76.6016L183.982 77.2979V80.0835H183.703L183.564 77.4372L183.285 77.0194V76.6016Z" fill="#00864A"/>
<path d="M174.094 85.9336L176.183 87.0478L176.879 87.3264V87.6049L175.626 87.1871L174.372 86.4907L174.094 85.9336Z" fill="#016E4B"/>
<path d="M193.455 64.0664L193.595 64.6235L193.455 65.3199H193.038L192.62 66.2948L192.48 65.877L193.038 64.6235L193.455 64.0664Z" fill="#00A055"/>
<path d="M205.434 85.9336L206.13 86.2121L207.801 86.9085L207.244 87.0478L206.409 86.7692L205.434 86.2121V85.9336Z" fill="#008849"/>
<path d="M125.628 71.1699H126.602L126.881 71.4485L126.742 71.8663L125.906 71.727L125.488 71.3092L125.628 71.1699Z" fill="#008246"/>
<path d="M98.4695 75.209L98.6088 75.6268L97.6339 76.6017L96.9375 76.741L97.4946 76.0446H97.7732V75.7661L98.4695 75.209Z" fill="#008E48"/>
<path d="M115.461 72.7012L116.297 72.9797L116.714 73.5368V73.9547L116.157 73.6761L115.461 72.8404V72.7012Z" fill="#008C47"/>
<path d="M194.012 68.5234L194.847 68.6627L195.265 68.9413V69.2198L195.683 69.3591L194.847 69.2198L194.012 68.802V68.5234Z" fill="#02664B"/>
<path d="M153.48 84.4004L154.038 84.6789L154.734 85.5146H154.316L153.62 84.8182L153.48 84.4004Z" fill="#008D47"/>
</svg>
