<svg width="129" height="100" viewBox="0 0 129 100" fill="none" xmlns="http://www.w3.org/2000/svg">
<path d="M5.53155 30.9609H5.67523L5.89074 36.3488L6.03442 40.1562L6.24994 43.9637L6.46545 45.8315L6.68096 46.6217L6.89648 46.8372L7.61486 47.0527L8.33325 47.3401L9.33898 47.5556L11.1349 47.6993L12.9309 47.7711L23.1319 47.9148L27.7296 47.9866L30.6031 48.0585L32.2554 48.1303L32.3991 48.2021L32.4709 48.4177L32.5428 69.4663L32.6864 83.834L33.1175 83.9058L36.7094 83.9776L48.0598 84.1213L56.1776 84.265H74.3527L79.2377 84.1931L86.7089 84.1213L94.7548 83.9776L96.1197 83.7621L96.1915 82.8282L96.3352 82.1817L96.407 48.3458L96.4789 48.274L96.9818 48.2021L101.579 48.0585L107.542 47.9866L117.743 47.9148L118.677 47.8429L119.252 47.6993L120.329 47.5556L120.976 47.4119L121.981 47.2682L122.341 47.0527L122.484 45.4004L122.556 41.8085L122.628 34.9839L122.7 32.1822L122.772 31.9667L123.203 32.1104L124.352 32.7569L125.933 33.7626L127.298 34.7684L127.944 35.2712L128.016 37.6419V40.2999L127.944 51.8659L126.076 51.9377L120.832 52.0096L108.26 52.0814L105.171 52.1532L104.094 52.2251L103.447 52.4406L103.232 52.728L103.16 53.159L102.513 53.2308L102.226 53.59L102.154 53.8055L102.082 60.9175L102.01 78.2306L101.867 84.1931L101.723 87.7851L101.651 88.0006L100.43 88.1443L97.1254 88.2879H61.0626L47.6288 88.2161L40.0858 88.1443L30.1721 88.0006L27.3704 87.9287L26.221 87.7851L25.9336 87.6414L25.8618 84.5523L25.79 65.7307L25.7181 52.9435L25.6463 52.2969L25.4308 52.1532L23.8503 52.0814L15.7326 51.9377L4.16662 51.7941L0.574707 51.7222L0.143677 51.6504L0.0718383 41.3775L0 33.4753L0.574707 33.1161L2.15515 32.3259L4.59765 31.3201L5.53155 30.9609Z" fill="#938D9B"/>
<path d="M15.2267 24.498H15.3704L15.8014 33.6934L16.0887 37.9318L16.3043 39.1531L16.5916 39.7996L17.1663 40.3743L18.1002 40.8053L18.9623 41.0209L20.8301 41.1645L28.3013 41.2364L33.4736 41.3082L40.1546 41.5237L41.735 41.6674L41.8069 41.7392L41.8787 44.972V63.2907L41.9505 76.3653L42.0224 76.7245L42.4534 76.8682L44.393 77.0119L50.5711 77.1555L58.186 77.2274H82.8266L85.7719 77.1555L86.8495 77.0837L87.065 77.0119V41.8111L87.1369 41.6674L88.3581 41.4519L89.1483 41.3801L109.55 41.2364L110.772 41.1645L111.849 40.949L112.208 40.5898L112.496 39.6559L112.568 38.8657L112.639 36.9979L112.711 25.1446L112.999 25.2164L114.579 26.0067L116.16 26.9406L117.884 28.09L118.171 28.3055L118.243 28.7365L118.315 31.3227V36.9979L118.243 43.7507L118.171 45.4748L118.099 45.5467L115.8 45.6185L97.0505 45.6904L94.4644 45.7622L93.5305 45.834L93.2431 46.0495L93.1713 47.0553L93.0994 51.0782L93.0276 56.8971L92.9558 72.2705L92.8839 79.3107L92.8121 81.2503L92.7402 81.7532L92.5966 81.825H88.2144L76.0019 81.6095L63.2147 81.5377L42.8126 81.394L37.281 81.3222L36.0598 81.1785L35.9161 81.0348L35.8443 79.598L35.7724 76.7964L35.7006 71.7677L35.6288 63.6499L35.4133 50.2162L35.3414 46.4806L35.1977 46.1932L34.6949 45.9777L33.2581 45.6904L30.8156 45.5467L27.511 45.4748L17.8129 45.403L11.3474 45.3312L10.3417 45.1875L9.91064 44.972L9.83881 44.8283L9.69513 42.745L9.55145 38.722L9.40778 34.1244L9.33594 32.0411V27.5153L10.7009 26.7969L13.2152 25.5038L15.2267 24.498Z" fill="#938D9B"/>
<path d="M24.9994 17.8887H25.2868L25.7897 27.7305L25.9333 31.3224L26.0052 32.3282L26.2925 33.1902L27.5856 33.5494L28.0885 33.7649L28.3758 34.2678L28.5195 34.4115L28.8069 34.4833L38.0022 34.5552L44.4676 34.627L49.64 34.7707L51.0768 34.8425L51.7233 34.9144L51.7951 35.9201L51.867 37.9316L51.9388 50.8625L52.0825 67.2416L52.1543 69.3968L52.2262 69.9715L52.4417 70.0433L53.5911 70.1151L62.6427 70.187L77.0822 70.3307L77.0104 64.2244V37.1413L77.0822 35.058L77.1541 34.9862L78.2316 34.9144L82.7575 34.7707L93.174 34.627L99.1366 34.5552L101.148 34.4115L102.082 34.1241L102.729 33.9805L102.944 33.8368L103.016 33.6213L103.088 32.6874L103.16 29.8138L103.303 19.9001L103.375 18.9662L103.734 19.0381L105.171 19.6128L106.751 20.5467L107.829 21.3369L108.476 21.8398L108.547 23.4202L108.619 27.6587L108.691 33.8368V38.65L108.619 39.0091L108.116 39.081L105.602 39.1528L92.0964 39.2247L84.9126 39.3683L83.404 39.512L83.0448 39.7275L82.973 39.943L82.9011 41.5235L82.8293 62.5003L82.7575 74.5691L82.6856 74.641H76.723L65.7318 74.4254L52.4417 74.2818L47.6285 74.1381L46.3354 74.0662L45.6889 73.9226L45.5452 73.5634L45.4734 71.6956L45.3297 60.848L45.186 50.5751L44.9705 39.512V39.2965L41.7378 39.1528L34.5539 39.0091L21.4794 38.8655L20.1863 38.7936L19.8271 38.7218L19.7552 38.3626L19.6834 36.7103L19.3961 26.0064L19.3242 21.5524V20.6904L19.8989 20.3312L21.6949 19.3254L23.2753 18.5352L24.9994 17.8887Z" fill="#938D9B"/>
<path d="M62.1404 1.86719H63.649L66.3789 2.01086L67.3846 2.0827L68.8214 2.44189L70.33 3.0166L71.4794 3.59131L72.4133 4.09418L73.4191 4.81256L74.2093 5.4591L75.0713 6.24933L75.7897 7.03955L76.7236 8.2608L77.442 9.33837L78.1604 10.5596L78.8788 12.0682L79.3098 13.505L79.5253 14.9418L79.5971 15.6601V17.3843L79.3816 18.6774L79.0943 19.7549L78.5196 21.1199L77.873 22.3411L77.1546 23.4905L76.2926 24.6399L75.646 25.4302L74.9277 26.1485L74.4248 26.7233L73.6346 27.4416L72.3415 28.3755L71.1202 29.0221L68.8932 29.7405L67.0973 30.1715L65.6605 30.387L64.8703 30.4588H62.3559L60.6318 30.2433L58.764 29.8123L57.3991 29.3813L56.1779 28.9502L55.0284 28.3755L54.0227 27.8008L53.0888 27.0824L51.8676 25.8612L51.0773 24.8555L50.3589 23.7779L49.4969 22.1256L48.7785 20.3296L48.3475 18.8929L48.0601 17.3124L47.9883 16.5222V15.5883L48.132 14.1515L48.4911 12.4993L48.994 10.9907L49.5687 9.69757L50.2871 8.40448L50.9337 7.54242L51.5802 6.82403L51.652 6.68036H51.7957L51.9394 6.393L52.4423 5.89013L53.017 5.38727L54.0227 4.59704L55.3158 3.80682L57.1117 2.94476L58.6922 2.37006L59.5543 2.15454L61.7812 1.93903L62.1404 1.86719Z" fill="#665A68"/>
<path d="M62.9974 5.17188H64.2187L65.4399 5.38739L67.0922 5.9621L68.7445 6.82416L69.7502 7.54254L70.6123 8.33276L71.187 8.83563L71.8335 9.62585L72.4083 10.3442L72.983 11.2781L73.7013 13.0023L73.9887 14.1517L73.4858 14.2953L72.6956 14.3672L70.4686 14.439H67.7388L60.8423 14.3672L55.0952 14.2235L53.6584 14.1517L53.3711 14.0798L53.4429 13.4333L54.2332 11.4218L54.8797 10.2006L55.5981 9.12298L56.3883 8.18909L56.8193 7.68622L57.8969 6.896L59.0463 6.32129L59.9084 5.9621L61.7762 5.38739L62.9974 5.17188Z" fill="#FEFEFE"/>
<path d="M53.4492 17.8164H57.6877L64.3686 17.8882L68.8945 17.9601L73.3484 18.1038L74.0668 18.1756L74.1387 18.3911L72.9892 20.8336L72.199 22.1985L71.5525 23.0606L70.9059 23.779L69.8284 24.7847L68.7508 25.5031L67.2422 26.2933L66.0928 26.6525L64.9434 26.868L64.0095 26.9399H63.2192L61.6388 26.7962L60.3457 26.5088L59.1963 26.0778L58.1187 25.4313L57.4003 24.7847L56.8256 24.2819L55.9636 23.348L55.1015 22.1985L54.0958 20.2589L53.5929 18.6785L53.4492 17.8164Z" fill="#FEFEFE"/>
<path d="M41.9538 90.0137H45.2584L46.1204 90.1573L46.4796 90.3729L46.5514 90.6602L46.6233 92.8154L46.6951 93.1027H48.1319L50.7899 93.0309L51.3646 92.959V90.6602L51.4365 90.1573L51.5083 90.0855H54.8847L55.2439 90.301L55.3157 90.6602L55.3876 93.1027V99.7837H51.5083L51.3646 97.7004L51.2209 96.9102L50.7181 96.6946L50.3589 96.6228H47.8445L46.767 96.7665L46.4796 97.0538L46.4078 97.7722L46.3359 99.7837L46.2641 99.8555H43.3187L41.8101 99.7837L41.7383 99.64L41.8101 91.666L41.882 90.0855L41.9538 90.0137Z" fill="#675B68"/>
<path d="M93.1015 89.9414H94.1072L95.4003 90.0851L96.2624 90.4443L96.9808 91.0908L97.4836 91.5937L98.202 92.5994L98.7767 93.6052L99.998 95.9758L100.645 97.0534L101.076 97.9155L101.435 98.993V99.7833L100.645 99.8551L97.1963 99.7833L96.7653 99.4959L96.3342 98.6338H95.3285L95.1848 98.7057L93.9636 98.7775H92.9578L92.3831 98.6338L91.5211 98.7057L91.3055 99.0649L91.2337 99.4959L90.659 99.7833H89.0067L86.8516 99.7114L86.9952 99.0649L87.7136 97.2689L88.2883 96.1195L89.4377 94.1799L90.1561 92.8149L90.9463 91.45L91.5211 90.6598L92.1676 90.0851L93.1015 89.9414Z" fill="#675B68"/>
<path d="M58.9078 90.0137H69.7554L70.4019 90.0855L70.4737 90.2292V92.0251L70.4019 93.1027H70.1864L70.0427 92.4562L69.6835 92.2407L68.4623 92.1688H64.3675L64.2957 92.6717L64.3675 92.8872L69.3962 92.959L69.3243 95.9044L69.2525 96.0481H65.5169L63.7209 96.1199L63.5054 96.3354L63.2181 97.4849V97.9877L63.3618 98.0596L68.6778 98.1314H70.6174L70.7611 99.209V99.9274L68.9651 99.9992H63.1462L59.1951 99.9274L59.0515 99.8555L58.9796 98.8498L58.9078 96.8383L58.8359 92.528V90.4447L58.9078 90.0137Z" fill="#675B68"/>
<path d="M26.0757 89.6543L34.9837 89.7261L38.6475 89.798L39.725 89.9417L39.8687 90.229L39.7969 92.2405L39.0066 92.3123H35.4147L35.3429 97.6284L35.2711 99.7835H31.1763L30.8171 99.7117L30.6734 95.1858L30.6016 92.7433L30.5297 92.3842L26.2913 92.2405L26.0039 92.1686V89.7261L26.0757 89.6543Z" fill="#675C69"/>
<path d="M71.982 90.0137H83.6916L85.6313 90.0855L85.775 90.3729L85.7031 91.3786L85.5594 92.3125H81.9675L81.6802 92.3843L81.6083 94.5395L81.5365 99.1371L81.4647 99.8555H76.7952V92.6717L76.5796 92.4562L71.982 92.3125L71.9102 92.2407V90.0855L71.982 90.0137Z" fill="#675B68"/>
<path d="M93.6051 92.6719L94.108 92.7437L94.6827 93.2466L95.0419 94.0368L95.3292 94.5397L95.4729 95.1862V95.6172L94.8982 95.9046H93.7488L93.2459 95.6891L92.9586 95.5454L92.8867 95.4017V94.6833L93.1022 93.1747L93.4614 92.7437L93.6051 92.6719Z" fill="#FEFEFE"/>
<path d="M73.4892 84.3379H77.2248L76.9375 84.4097V84.5534L76.0036 84.6252H75.5726H75.357L74.9979 84.5534L74.926 84.6971H73.7048L73.0582 84.7689H72.6272L72.4835 84.6971L71.7651 84.7689H70.472L70.1847 84.6971L69.6818 84.7689L68.9634 84.9126V84.7689H68.0295L67.7422 84.6971L67.6703 84.8408H66.7364L66.1617 84.9126L65.8025 84.7689L65.5152 84.8408L65.3715 84.7689H64.0784L63.6474 84.8408L63.5756 84.7689L62.4261 84.6971L61.7796 84.7689H61.4204L61.1331 84.6971H59.5526L58.6187 84.6252L58.5469 84.4097H65.0123L73.4892 84.3379Z" fill="#665A67"/>
<path d="M53.6647 17.6719L58.9089 17.7437L67.8887 17.8156H71.9117L72.1272 17.8874L73.7076 18.0311L74.0668 18.1029V18.1747L68.8945 18.0311L64.3686 17.9592L57.6877 17.8874L53.4492 17.8156L53.6647 17.6719Z" fill="#948E9C"/>
<path d="M64.2952 92.0254H69.3238L69.9704 92.0972L70.3296 92.2409L70.4014 92.0254V93.103H70.1859L70.0422 92.4564L69.683 92.2409L68.4618 92.1691H64.367L64.2952 92.6719L64.367 92.8875L69.3957 92.9593L69.3238 95.9047H69.252V93.1748L69.3238 93.0311H64.2233L64.0078 92.8875V92.2409L64.2952 92.0254Z" fill="#948E9C"/>
<path d="M73.4155 12.2832L73.5591 12.355L74.062 13.7918L74.2057 13.9355L74.1338 14.2228L73.7747 14.3665L73.0563 14.4384L71.4758 14.5102H66.0879L60.8438 14.4384V14.3665H70.4701L72.6971 14.2947L73.9183 14.151L73.631 13.0016L73.4155 12.2832Z" fill="#948E9C"/>
<path d="M39.7273 90.877H39.7991V92.2419L39.0089 92.3137H36.5664V92.2419L39.1526 92.0982V91.9545H39.0089L38.9371 91.739L39.2963 91.5953L39.4399 91.308L39.7273 90.877Z" fill="#948E9C"/>
<path d="M50.791 93.0293L51.0783 93.1011L50.791 93.3167L49.9289 93.3885L49.4979 93.3167L49.1387 93.4603L47.9174 93.3885L46.8398 93.2448V93.173L48.1329 93.1011L50.791 93.0293Z" fill="#948E9C"/>
<path d="M79.0915 92.3125L80.4564 92.4562H81.0311L81.2466 92.528V92.6717L80.7438 92.7435L78.2294 92.6717L77.7266 92.5999L77.7984 92.3843L79.0915 92.3125Z" fill="#948E9C"/>
<path d="M122.77 31.9688L123.201 32.1124L124.35 32.759L125.14 33.2618L125.068 33.4055L123.488 32.5435L123.272 32.3998L122.913 32.4716H122.77V31.9688Z" fill="#736976"/>
<path d="M48.2038 13.793H48.2756V14.5114L48.2038 15.1579V17.0975L48.2756 18.1751H48.2038L48.0601 17.313L47.9883 16.5228V15.5889L48.132 14.1522L48.2038 13.793Z" fill="#948E9C"/>
<path d="M103.371 18.9648L103.73 19.0367L105.167 19.6114L106.388 20.3298L106.316 20.4734L105.167 19.8269L103.946 19.324L103.371 19.1804V18.9648Z" fill="#746A78"/>
<path d="M126.004 33.9805L126.291 34.0523L127.297 34.7707L127.944 35.2736V35.4172L127.656 35.3454L127.01 34.7707L126.004 34.0523V33.9805Z" fill="#736976"/>
<path d="M62.209 0H62.4964L62.5682 0.43103L62.6401 0.646545L62.3527 0.574707L62.2809 0.43103L61.9935 0.574707L61.7062 0.790222L61.5625 0.718383L62.209 0Z" fill="#948E9C"/>
<path d="M94.75 93.3906L95.0374 93.678L95.3965 94.3964L95.5402 95.0429V95.6176H95.4684L95.181 94.3245L94.9655 94.0372L94.75 93.6061V93.3906Z" fill="#948E9C"/>
<path d="M85.5618 91.3789H85.6336V92.0973L85.5618 92.3128H84.125V92.241L85.3463 92.1691L85.5618 91.8818H85.2026L85.4181 91.5226H85.5618V91.3789Z" fill="#948E9C"/>
<path d="M122.77 31.9688L123.201 32.1124L123.416 32.3279L123.201 32.4716H122.77V31.9688Z" fill="#6B606D"/>
<path d="M59.0474 0.861328L59.191 0.933166L59.0474 1.29236H58.4727L58.5445 1.005L59.0474 0.861328Z" fill="#948E9C"/>
<path d="M103.371 18.9648L103.73 19.0367L104.377 19.324L104.449 19.4677L103.587 19.2522L103.371 19.1804V18.9648Z" fill="#736876"/>
<path d="M59.7678 0.0722656H59.9115L60.0552 0.431457L59.4805 0.503296V0.287781L59.7678 0.0722656Z" fill="#948E9C"/>
<path d="M104.379 19.3262L105.025 19.5417L105.313 19.7572L104.81 19.6854L104.451 19.5417L104.379 19.3262Z" fill="#79707D"/>
</svg>
