<svg width="300" height="90" viewBox="0 0 300 90" fill="none" xmlns="http://www.w3.org/2000/svg">
<path d="M39.2512 0H50.7957L58.8768 1.92408L65.0339 4.61779L74.6543 9.23558L80.4265 12.3141L85.4291 16.1623L88.1228 19.2408L91.5862 24.2434L95.0495 30.7853L96.9736 37.3271L97.3584 39.636V50.0261L96.204 55.4135L93.8951 61.5705L90.8165 66.958L87.3532 71.1909L83.505 75.0391L78.1176 78.5024L71.9606 81.581L63.8794 85.0443L61.5705 86.1987L57.3376 87.738L50.7957 88.8925L50.0261 89.2773H41.1753L33.479 87.738L26.5523 85.0443L20.0104 81.581L15.7774 78.1176L12.3141 75.0391L8.85076 70.8061L5.38742 65.4187L2.69371 59.2616L1.15445 54.259L0.384816 50.4109L0 43.0994L0.769632 36.5575L2.30889 30.7853L4.23297 25.7827L6.92668 21.1649L9.23558 17.7015L13.4686 13.0837L18.0863 8.85076L23.4738 5.38742L27.3219 3.46334L34.2486 1.15445L39.2512 0Z" fill="#FDFDFD"/>
<path d="M39.2512 0H50.7957L58.8768 1.92408L65.0339 4.61779L74.6543 9.23558L80.4265 12.3141L85.4291 16.1623L88.1228 19.2408L91.5862 24.2434L95.0495 30.7853L96.9736 37.3271L97.3584 39.636V50.0261L96.204 55.4135L93.8951 61.5705L90.8165 66.958L87.3532 71.1909L83.505 75.0391L78.1176 78.5024L71.9606 81.581L63.8794 85.0443L61.5705 86.1987L57.3376 87.738L50.7957 88.8925L50.0261 89.2773H41.1753L33.479 87.738L26.5523 85.0443L20.0104 81.581L15.7774 78.1176L12.3141 75.0391L8.85076 70.8061L5.38742 65.4187L2.69371 59.2616L1.15445 54.259L0.384816 50.4109L0 43.0994L0.769632 36.5575L2.30889 30.7853L4.23297 25.7827L6.92668 21.1649L9.23558 17.7015L13.4686 13.0837L18.0863 8.85076L23.4738 5.38742L27.3219 3.46334L34.2486 1.15445L39.2512 0ZM42.3297 4.23297L35.7879 5.38742L30.0156 7.3115L24.2434 10.39L19.2408 14.2382L16.1623 17.3167L11.9293 23.0889L8.85076 29.246L6.92668 35.0182L6.15705 40.0208V49.6412L7.3115 55.7983L10.0052 62.725L13.0837 67.7276L16.5471 71.9606L21.5497 76.9632L25.3978 79.6569L31.9397 82.7354L37.7119 84.2747L41.9449 85.0443H51.9501L54.6438 84.2747V83.505L46.9475 82.3506L41.9449 80.4265L36.5575 77.7328L31.9397 74.6543L31.5549 73.8846L38.8664 77.348L43.869 78.8872L50.4109 79.2721L56.5679 78.8872L62.725 77.348L68.1124 75.0391L74.2695 71.1909L78.1176 67.3428L81.581 62.3402L83.8898 57.3376L85.4291 51.9501L86.1987 47.3323V42.3297L85.0443 36.1727L83.505 31.5549L80.8113 26.1675L78.1176 22.7041L72.7302 17.3167L66.5731 13.8534L61.9553 11.9293L57.3376 10.7748L50.4109 10.39L45.0234 10.7748L39.2512 12.3141L32.7093 15.3926L32.3245 15.0078L38.0968 11.1597L43.869 8.46595L49.2564 6.92668L57.3376 6.15705V5.38742L52.7198 4.23297H42.3297Z" fill="#6BA4CB"/>
<path d="M19.6272 24.6282H31.5565L37.3287 25.3978L41.1769 26.9371L44.2554 29.6308L45.7947 31.9397L46.1795 33.0941V38.4815L43.8706 41.9449L41.5617 43.4841L41.1769 44.6386L42.7162 45.4082L45.025 46.9475L47.3339 49.6412L48.1036 52.7197V53.8742H50.4125L50.0277 51.1805L49.6428 50.4108V46.9475L51.5669 44.6386L55.4151 44.2538L57.724 45.4082L58.4936 46.5627V48.8716L56.1847 51.5653L54.6454 52.3349V54.259L56.9543 57.7223L58.1088 58.1072L59.648 60.416L60.8025 61.1857H68.4988L70.4229 60.0312L71.9622 58.1072L72.347 57.3375V53.8742L70.0381 51.1805L65.8051 48.4868L62.7266 46.9475L57.3392 43.0993L53.8758 39.636L52.7214 36.1726L53.1062 32.3245L54.6454 29.246L56.5695 27.3219L58.8784 25.7826L62.3418 25.013H65.4203L68.4988 25.7826L71.5773 27.7067L72.7318 29.246V30.4004L71.1925 30.0156L67.7292 28.0915H61.5721L59.2632 29.6308L57.724 31.5549V34.2486L59.2632 36.5575L62.3418 38.8664L71.5773 43.869L75.0407 46.5627L76.5799 48.4868L78.1192 51.5653V56.9527L76.5799 60.0312L74.6559 62.3401L70.8077 64.2642L69.6533 64.649H61.5721L57.724 63.1098L56.9543 61.9553L55.4151 61.5705L54.6454 63.1098L51.9517 64.2642H48.1036L46.9491 63.4946V62.7249H46.1795L45.7947 61.9553H43.8706L41.1769 63.8794L37.3287 64.649L31.9413 65.0338H23.8602L17.7031 64.649V25.013L19.6272 24.6282Z" fill="#276B9C"/>
<path d="M68.4961 0H73.8835L82.3495 2.30889L89.2761 5.38742L95.4332 8.85076L100.436 13.4686L104.284 18.0863L107.747 23.8586L110.826 30.7853L112.365 36.1727L113.135 41.9449V46.9475L111.98 54.6438L110.056 60.8009L106.978 66.958L104.284 71.1909L99.6662 76.5783L95.818 79.6569L90.4306 83.1202L85.0432 85.8139L79.2709 87.738L70.805 89.2773L68.8809 88.8925L70.0354 87.738L75.4228 85.8139L81.195 82.3506L87.3521 77.348L91.2002 72.7302L94.2788 67.7276L96.9725 62.3402L98.8965 55.7983L99.6662 50.4109V37.7119L98.1269 29.6308L95.0484 22.3193L91.585 16.5471L88.1217 12.3141L83.1191 8.08113L75.4228 3.46334L68.8809 0.769632L68.4961 0Z" fill="#226597"/>
<path d="M43.869 0.384766L49.6412 0.769581L52.3349 1.1544L55.4135 2.30884L59.6464 3.46329L63.1098 5.00255V5.77219H64.649L64.2642 6.54182L57.3376 5.00255L52.7198 4.61774H42.3297L35.7879 5.77219L30.0156 7.69627L24.2434 10.7748L19.2408 14.6229L16.5471 17.3167L12.3141 23.0889L9.23558 29.2459L7.3115 35.0182L6.54187 40.0208V49.6412L7.69632 55.7982L10.39 62.7249L13.4686 67.7275L16.9319 71.9605L21.5497 76.5783L25.3978 79.272L31.9397 82.3505L37.7119 83.8898L41.9449 84.6594H51.9501L59.6464 83.8898L63.1098 83.1202H66.1883V83.8898L61.5705 86.1987L57.3376 87.7379L50.7957 88.8924L50.0261 89.2772H41.1753L33.479 87.7379L26.5523 85.0442L20.0104 81.5809L15.7774 78.1176L12.3141 75.039L8.85076 70.8061L5.38742 65.4186L2.69371 59.2616L1.15445 54.259L0.384816 50.4108L0 43.0993L0.769632 36.5574L2.30889 30.7852L4.23297 25.7826L6.92668 21.1648L9.23558 17.7015L13.4686 13.0837L18.0863 8.85071L23.4738 5.38737L27.3219 3.46329L34.2486 1.1544L35.7879 0.769581L43.869 0.384766Z" fill="#072750"/>
<path d="M68.4961 0H73.8835L82.3495 2.30889L89.2761 5.38742L95.4332 8.85076L100.436 13.4686L104.284 18.0863L107.747 23.8586L110.826 30.7853L112.365 36.1727L113.135 41.9449V46.9475L111.98 54.6438L110.056 60.8009L106.978 66.958L104.284 71.1909L99.6662 76.5783L96.2028 79.2721L93.8939 79.6569L92.3547 80.4265H90.8154L89.661 81.1961H88.1217V81.9658L83.8887 84.2747L80.4254 85.8139V84.6595L82.3495 83.1202L84.2735 82.7354V81.9658L85.8128 81.1961L86.9673 80.0417L88.8913 79.6569L89.2761 78.1176L90.8154 78.5024V77.348V76.5783H91.585L91.9699 75.8087L92.3547 76.9632L94.6636 75.4239L98.1269 72.3454H98.8965L99.6662 70.4213L102.36 68.1124L104.669 64.2642L106.208 58.1072L106.978 54.6438L107.362 53.1046V50.0261L107.747 44.6386V41.9449L106.978 36.9423L105.823 35.4031L104.669 31.9397L103.13 28.4764L102.36 26.1675L101.205 25.7827L100.821 24.2434L98.5117 21.5497L97.3573 19.6256L95.0484 16.9319V16.1623H94.2788L93.8939 15.0078L93.1243 14.623L92.7395 13.4686L90.4306 11.5445L89.2761 10.39L87.3521 9.6204L86.9673 8.46595L87.3521 7.3115L85.0432 6.54187L83.8887 5.77224L81.9646 6.92668L80.0406 6.15705L75.4228 3.46334L68.8809 0.769632L68.4961 0Z" fill="#1D70AA"/>
<path d="M62.3413 25.0129H65.4199L68.4984 25.7826L71.5769 27.7067L72.7314 29.2459V30.4004L71.1921 30.0155L67.7288 28.0915H61.5717L59.2628 29.6307L57.7236 31.5548V34.2485L59.2628 36.5574L62.3413 38.8663L71.5769 43.8689L75.0403 46.5626L76.5795 48.4867L78.1188 51.5652V56.9527L76.5795 60.0312L74.6555 62.3401L70.8073 64.2642L69.6528 64.649H61.5717L57.7236 63.1097L55.7995 61.1856L53.1058 57.3375L51.5665 55.4134V54.6438L50.7969 54.2589L51.1817 52.3349L52.3361 52.7197V51.95L53.4906 51.5652L54.645 54.2589L56.9539 57.7223L58.1084 58.1071L59.6476 60.416L60.8021 61.1856H68.4984L70.4225 60.0312L71.9617 58.1071L72.3466 57.3375V53.8741L70.0377 51.1804L65.8047 48.4867L62.7262 46.9474L57.3387 43.0993L53.8754 39.6359L52.721 36.1726L53.1058 32.3244L54.645 29.2459L56.5691 27.3218L58.878 25.7826L62.3413 25.0129Z" fill="#2273AC"/>
<path d="M39.2502 0H50.7947L58.8758 1.92408L65.0329 4.61779L74.6533 9.23558L80.4255 12.3141L85.4281 16.1623L88.1218 19.2408L91.5852 24.2434L95.0485 30.7853L96.9726 37.3271L97.3574 39.636V50.0261L96.2029 55.4135L93.894 61.5705L90.8155 66.958L87.3522 71.1909L83.504 75.0391L78.1166 78.5024L71.9595 81.581L66.1873 83.8898V83.1202L56.9517 84.6595L55.4125 84.2747L58.1062 83.1202L63.8784 82.3506L67.7266 80.8113L72.7292 78.5024L76.5773 76.5783L80.4255 73.8846L85.0433 69.6517L88.5066 65.0339L91.2003 59.6465L93.5092 51.9501L93.894 47.3323V43.0994L93.1244 36.5575L90.8155 30.4004L88.5066 25.7827L85.4281 21.1649L81.5799 16.9319L77.347 13.8534L73.4988 11.5445L64.2632 8.46595L59.6454 7.69632L49.2554 7.3115V6.54187L51.9491 6.15705H57.3365V5.38742L54.6428 5.00261V4.61779L59.6454 5.00261L64.2632 6.15705L64.648 5.77224H63.1088V5.00261L61.1847 4.61779L58.491 3.46334L52.7188 1.92408L51.5643 1.53926L44.6376 0.769632H37.7109L39.2502 0Z" fill="#2273AC"/>
<path d="M24.2423 45.793H31.9386L35.4019 46.5626L38.4805 48.4867L40.4046 50.7956L41.1742 52.3348V55.7982L39.6349 58.8767L36.5564 61.5704L32.3234 62.34H26.1664L23.8575 61.5704L23.4727 61.1856V47.717L24.2423 45.793Z" fill="#FEFEFE"/>
<path d="M18.0879 25.3979H23.8602L25.3994 26.9372L23.8602 27.7068V41.945L24.245 43.0995L26.1691 43.8691L25.7843 44.6387H24.245L23.4754 47.7173V61.5706L23.8602 62.3403H32.7109L37.7135 61.9555L36.5591 63.1099L33.4806 64.2643L22.7057 64.6492H17.7031V38.0969L18.0879 25.3979Z" fill="#104362"/>
<path d="M25.7816 27.322H30.3993L33.8627 27.7068L37.7108 30.0157L40.0197 33.0943V36.9424L38.4805 40.0209L35.4019 42.3298L34.2475 42.7147L30.0145 43.0995H24.6271L23.4727 41.945V27.7068L25.7816 27.322Z" fill="#FDFDFD"/>
<path d="M43.8692 0.384766L49.6414 0.769581L52.3351 1.1544L55.4137 2.30884L59.6466 3.46329L63.11 5.00256V5.77219H64.6493L64.2644 6.54182L57.3378 5.00256L52.72 4.61774H40.021L38.4818 4.23292L33.864 4.61774L26.9373 6.92663L20.0106 11.1596L17.3169 13.8533H16.5473V14.623H15.7776V15.3926L13.8536 15.7774L13.4688 15.0078L16.1625 12.6989H16.9321L17.7017 10.7748L18.8562 11.1596V9.62035L17.7017 9.23553L22.7043 5.77219L27.3221 3.46329L34.2488 1.1544L35.7881 0.769581L43.8692 0.384766Z" fill="#114565"/>
<path d="M63.1095 83.1201H66.188V83.8897L61.5702 86.1986L57.3372 87.7379L50.7954 88.8924L50.0257 89.2772H41.175L36.5572 88.5075L37.3268 88.1227L36.942 86.9683L32.3242 85.429V84.2746L36.1724 85.0442L38.4813 85.8138L44.6383 86.1986V85.0442L56.9524 84.2746L63.1095 83.1201Z" fill="#15496A"/>
<path d="M39.2502 0H50.7947L58.8758 1.92408L65.0329 4.61779L69.2658 6.54187V7.69632L71.5747 8.46595L74.2684 10.39L73.8836 11.1597L71.1899 10.7748L64.2632 8.46595L59.6454 7.69632L49.2554 7.3115V6.54187L51.9491 6.15705H57.3365V5.38742L54.6428 5.00261V4.61779L59.6454 5.00261L64.2632 6.15705L64.648 5.77224H63.1088V5.00261L61.1847 4.61779L58.491 3.46334L52.7188 1.92408L51.5643 1.53926L44.6376 0.769632H37.7109L39.2502 0Z" fill="#276C9E"/>
<path d="M62.339 25.0129H65.4176L68.4961 25.7826L71.5746 27.7067L72.7291 29.2459V30.4004L71.1898 30.0155L67.7265 28.0915H61.5694L59.2605 29.6307L57.7213 31.5548V34.2485L58.4909 35.7878L58.1061 36.9422H56.9516L56.182 35.0182L55.0275 34.6333L54.6427 35.403L53.8731 35.0182L53.4883 31.17L55.0275 28.8611L56.9516 26.937L60.0301 25.3978L62.339 25.0129Z" fill="#276C9D"/>
<path d="M53.1058 51.5654L53.8754 51.9502L54.645 54.2591L56.9539 57.7225L58.1084 58.1073L59.6476 60.4162L62.3413 61.9555L64.6502 62.3403L64.2654 63.1099L60.8021 63.8795L57.7236 63.1099L55.7995 61.1858L53.1058 57.3377L51.5665 55.4136V54.644L50.7969 54.2591L51.1817 52.3351L52.3361 52.7199V51.9502L53.1058 51.5654Z" fill="#236799"/>
<path d="M53.4886 44.2539L56.5671 44.6387L58.4912 46.5628V48.8717L56.1823 51.5654L54.643 52.335L53.8734 53.8743L53.4886 51.9502L52.719 51.5654L51.9493 48.1021L53.1038 45.0235L51.1797 45.4084L51.5645 44.6387L53.4886 44.2539Z" fill="#2A6D9E"/>
<path d="M27.3221 3.46338L28.8614 3.84819L26.9373 5.77227L25.7829 7.69635L20.0106 11.1597L17.3169 13.8534H16.5473V14.623H15.7776V15.3927L13.8536 15.7775L13.4688 15.0079L16.1625 12.699H16.9321L17.7017 10.7749L18.8562 11.1597V9.62043L17.7017 9.23562L22.7043 5.77227L27.3221 3.46338Z" fill="#114362"/>
<path d="M50.4125 55.0286L51.9517 55.4134L53.491 57.3375L54.6454 59.2615V61.1856L51.9517 62.3401L49.6428 61.9552L47.7188 59.2615V57.3375L50.4125 55.0286Z" fill="#FEFEFE"/>
<path d="M68.4961 0H73.8835L79.6558 1.53926L80.8102 2.69371L80.4254 4.23297L80.0406 4.61779L81.195 5.00261L81.9646 6.92668L80.0406 6.15705L75.4228 3.46334L68.8809 0.769632L68.4961 0Z" fill="#2A6D9F"/>
<path d="M63.1087 83.1201H66.1872V83.8897L61.5694 86.1986L57.3364 87.7379H53.4883V86.1986H54.2579L54.6427 84.6594L63.1087 83.1201Z" fill="#0C3057"/>
<path d="M95.0507 78.8872H95.8203V79.6568L90.4329 83.1202L85.0455 85.8139L81.9669 86.9683L80.8125 86.5835L81.5821 85.0443L84.6607 83.505L87.3544 81.9657H88.124V81.1961L91.2025 80.0417H92.357L95.0507 78.8872Z" fill="#296C9D"/>
<path d="M62.3399 25.0129H65.4185L68.497 25.7826L71.5755 27.7067L72.73 29.2459V30.4004L71.1907 30.0155L67.7274 28.0915L61.5703 27.7067V27.3218L65.8033 26.937V25.7826L62.3399 25.3978V25.0129Z" fill="#387BAB"/>
<path d="M53.1037 45.793L55.7974 46.1778L56.567 46.9474L56.1822 49.2563L54.2581 51.1804H52.7189L51.9492 49.2563L52.334 46.5626L53.1037 45.793Z" fill="#FEFEFE"/>
<path d="M102.359 16.9319L104.283 18.0863L107.747 23.8586L109.286 26.9371V28.8612L107.747 28.0915L107.362 26.5523L105.438 23.4738L102.744 18.856L102.359 16.9319Z" fill="#24699A"/>
<path d="M47.7168 59.2617L50.4106 61.9554L53.1043 61.5706L54.6435 61.1858L55.0283 59.6465L56.5676 61.5706H55.4132L54.6435 63.1099L51.9498 64.2643H48.1017L47.7168 63.4947L49.6409 63.1099L48.1017 61.9554L47.332 60.0314L47.7168 59.2617Z" fill="#3A83B6"/>
<path d="M43.8688 8.08105L45.4081 8.46587L41.1751 10.3899V11.1596L40.0206 11.5444L40.4055 12.314L34.2484 15.0077L32.7091 15.7774L31.5547 15.3926L35.018 12.6988L40.4055 9.62032L43.8688 8.08105Z" fill="#6CA5CC"/>
<path d="M51.9495 45.0234H53.104L52.7192 46.5627L51.5647 49.6412V51.5653L50.4103 51.9501L49.6406 50.4109V46.9475L50.7951 45.4083L51.9495 45.0234Z" fill="#2A6FA0"/>
<path d="M53.875 3.07861H58.4928L63.1106 5.00269V5.77232H64.6498L64.265 6.54196L53.875 4.23306V3.07861Z" fill="#0F415E"/>
<path d="M23.0898 47.717H23.4747L23.8595 53.8741V61.1856L26.1684 61.9552H34.6343V62.34L32.7102 62.7249H23.8595L23.0898 61.5704V47.717Z" fill="#3D83B4"/>
<path d="M76.1943 85.4292L76.9639 85.814L75.4247 87.3533L76.9639 88.1229L70.8069 89.2774L68.8828 88.8925L70.0373 87.7381L75.4247 85.814L76.1943 85.4292Z" fill="#3F81B0"/>
<path d="M66.5737 81.9658H68.4978L68.113 83.1203L66.1889 83.8899V83.1203L56.9533 84.6595L55.4141 84.2747L58.1078 83.1203L63.4952 82.3506H65.8041L66.5737 81.9658Z" fill="#1E699E"/>
<path d="M211.648 45.0234H213.188L214.342 48.4868L215.497 48.102L215.112 51.1805H213.573L211.648 46.1779V45.0234Z" fill="#0A2E58"/>
<path d="M53.4883 36.5576H54.6427V37.7121H55.7972L56.5668 40.021H57.3364L57.7213 42.3299L56.182 41.945L53.8731 39.6361L53.4883 36.5576Z" fill="#276A9B"/>
<path d="M68.4961 0H73.8835L75.8076 0.769632L75.038 1.15445V1.92408H74.2683V2.69371L70.4202 1.53926L68.4961 0.384816V0Z" fill="#347BAD"/>
<path d="M53.4886 44.2539L56.5671 44.6387L58.4912 46.5628L58.1064 47.3324L56.5671 48.1021L55.7975 46.5628L53.1038 45.7932V45.0235L51.1797 45.4084L51.5645 44.6387L53.4886 44.2539Z" fill="#3A82B4"/>
<path d="M197.797 45.793L199.721 46.1778L200.491 47.3322L199.721 48.1019V48.8715H200.491L200.875 47.717L200.491 51.5652H199.336L197.797 47.3322V45.793Z" fill="#092D55"/>
<path d="M176.245 47.3323L177.015 48.4867L176.63 49.6412L173.166 50.7956H170.473L170.857 50.026H172.397V49.2564L173.551 48.8715L173.936 48.1019L176.245 47.3323Z" fill="#0C345B"/>
<path d="M24.2422 80.8113L26.9359 81.5809V82.3505L30.3992 83.505L30.7841 84.6594L28.86 84.2746L26.9359 83.1202L26.1663 83.505L24.2422 81.9657V80.8113Z" fill="#10425F"/>
<path d="M60.4144 53.4895H61.9536L61.184 55.4136L58.8751 58.1073L58.1055 57.7225L58.8751 55.4136L60.4144 53.4895Z" fill="#468BBA"/>
<path d="M69.2656 6.92676L71.5745 7.69639L75.4227 9.62047L75.0379 10.7749L73.1138 10.0053L69.2656 7.69639V6.92676Z" fill="#3681B4"/>
<path d="M51.9515 6.15698H55.7997V6.5418L58.4934 6.92661V7.31143H49.2578V6.5418L51.9515 6.15698Z" fill="#307DB2"/>
<path d="M54.6445 4.61768L59.6471 5.00249L61.5712 6.15694L61.1864 7.31139L58.4927 6.54175L57.3382 6.15694V5.38731L54.6445 5.00249V4.61768Z" fill="#3880B2"/>
<path d="M63.1079 83.1201H66.1864V83.8897L63.4927 85.0442V84.2746H59.6445L61.1838 83.5049L63.1079 83.1201Z" fill="#104665"/>
<path d="M45.4069 8.08105H47.3309V8.85069L42.3283 10.7748L40.7891 10.3899L45.4069 8.08105Z" fill="#1C6FA9"/>
<path d="M38.0977 30.0156L39.6369 30.7853L40.7914 32.3245L41.1762 34.2486L40.7914 36.5575H40.4066L39.6369 33.0942L38.0977 30.7853V30.0156Z" fill="#114465"/>
<path d="M56.1821 48.4868L56.9517 49.2564L56.1821 50.7957V51.5653L54.6428 52.335L53.8732 53.8742L53.4884 51.9502L52.7188 51.1805L55.0276 50.4109L56.1821 48.4868Z" fill="#4388B8"/>
<path d="M66.957 8.46606L70.0356 8.85088L73.4989 10.775L72.3445 11.1598L66.957 9.2357V8.46606Z" fill="#186DA8"/>
<path d="M53.875 3.07861L56.9535 3.46343L58.8776 4.23306V4.61788H54.6446L53.875 4.23306V3.07861Z" fill="#05224A"/>
<path d="M51.5665 49.2563H52.3361L53.1058 51.9501H52.3361V52.7197L50.7969 52.3349L51.1817 49.6412L51.5665 49.2563Z" fill="#184F72"/>
<path d="M142.383 49.2563L145.077 49.6412V50.4108L144.307 50.7956H140.844L142.383 49.2563Z" fill="#185987"/>
<path d="M56.5664 57.7224L58.1057 58.1072L59.6449 60.4161V61.5706L56.9512 59.2617L56.5664 57.7224Z" fill="#3D86B8"/>
<path d="M54.6427 59.6465L56.5668 61.5706H55.4124L55.0275 62.725H53.4883L53.8731 61.1857H54.6427V59.6465Z" fill="#4989B6"/>
<path d="M21.1661 78.8872L22.7053 79.6568V80.4265L24.2446 80.8113L23.8598 81.5809L21.9357 81.1961L20.7812 80.0417L21.1661 78.8872Z" fill="#10425F"/>
<path d="M28.0901 4.61768L29.2446 5.00249L29.6294 5.77212L26.1661 7.31139L25.7812 6.15694L28.0901 4.61768Z" fill="#1D6092"/>
<path d="M44.6367 0.384766H51.1786L52.333 1.1544L50.409 1.53921L49.6393 1.1544L44.6367 0.769581V0.384766Z" fill="#1D6295"/>
<path d="M130.967 59.2319V67.8016H129.643V64.0531H125.847V67.8016H124.523V59.2319H125.847V62.9064H129.643V59.2319H130.967Z" fill="#072750"/>
<path d="M137.748 60.3663V62.8817H140.534V64.0285H137.748V66.6549H140.883V67.8016H136.424V59.2195H140.883V60.3663H137.748Z" fill="#072750"/>
<path d="M151.092 66.0507H147.714L147.133 67.8016H145.752L148.643 59.2195H150.175L153.066 67.8016H151.673L151.092 66.0507ZM150.721 64.9039L149.409 60.9212L148.085 64.9039H150.721Z" fill="#072750"/>
<path d="M159.362 66.6672H162.09V67.8016H158.038V59.2319H159.362V66.6672Z" fill="#072750"/>
<path d="M172.125 59.2319V60.3786H169.977V67.8016H168.653V60.3786H166.494V59.2319H172.125Z" fill="#072750"/>
<path d="M183.624 59.2319V67.8016H182.3V64.0531H178.504V67.8016H177.18V59.2319H178.504V62.9064H182.3V59.2319H183.624Z" fill="#072750"/>
<path d="M188.64 63.4982C188.64 62.6598 188.822 61.9076 189.186 61.2418C189.557 60.5759 190.056 60.058 190.683 59.6881C191.318 59.31 192.011 59.1209 192.761 59.1209C193.621 59.1209 194.383 59.347 195.049 59.7991C195.722 60.243 196.21 60.8759 196.511 61.698H194.921C194.712 61.2459 194.422 60.9088 194.05 60.6869C193.679 60.4649 193.249 60.354 192.761 60.354C192.227 60.354 191.751 60.4814 191.333 60.7362C190.915 60.991 190.587 61.3568 190.347 61.8336C190.114 62.3104 189.998 62.8653 189.998 63.4982C189.998 64.1312 190.114 64.6861 190.347 65.1629C190.587 65.6397 190.915 66.0096 191.333 66.2726C191.751 66.5275 192.227 66.6549 192.761 66.6549C193.249 66.6549 193.679 66.5439 194.05 66.3219C194.422 66.1 194.712 65.763 194.921 65.3108H196.511C196.21 66.1329 195.722 66.7658 195.049 67.2097C194.383 67.6536 193.621 67.8756 192.761 67.8756C192.003 67.8756 191.31 67.6906 190.683 67.3207C190.056 66.9426 189.557 66.4206 189.186 65.7547C188.822 65.0889 188.64 64.3367 188.64 63.4982Z" fill="#072750"/>
<path d="M206.64 66.0507H203.262L202.681 67.8016H201.3L204.191 59.2195H205.723L208.614 67.8016H207.221L206.64 66.0507ZM206.269 64.9039L204.957 60.9212L203.633 64.9039H206.269Z" fill="#072750"/>
<path d="M217.777 67.8016L215.92 64.3737H214.909V67.8016H213.586V59.2319H216.372C216.991 59.2319 217.514 59.347 217.94 59.5771C218.373 59.8073 218.694 60.1156 218.903 60.5019C219.12 60.8883 219.228 61.3198 219.228 61.7966C219.228 62.3556 219.074 62.8653 218.764 63.3256C218.462 63.7777 217.994 64.086 217.359 64.2504L219.356 67.8016H217.777ZM214.909 63.2516H216.372C216.868 63.2516 217.239 63.1201 217.487 62.8571C217.742 62.594 217.87 62.2405 217.87 61.7966C217.87 61.3527 217.746 61.0075 217.498 60.7609C217.251 60.506 216.875 60.3786 216.372 60.3786H214.909V63.2516Z" fill="#072750"/>
<path d="M225.96 60.3663V62.8817H228.746V64.0285H225.96V66.6549H229.095V67.8016H224.637V59.2195H229.095V60.3663H225.96Z" fill="#072750"/>
<path d="M246.813 61.7843C246.813 62.22 246.717 62.631 246.523 63.0174C246.33 63.4037 246.02 63.7202 245.594 63.9668C245.169 64.2052 244.623 64.3244 243.957 64.3244H242.495V67.8016H241.171V59.2319H243.957C244.577 59.2319 245.099 59.347 245.525 59.5771C245.958 59.7991 246.279 60.1032 246.488 60.4896C246.705 60.8759 246.813 61.3075 246.813 61.7843ZM243.957 63.1777C244.46 63.1777 244.836 63.0585 245.084 62.8201C245.331 62.5735 245.455 62.2282 245.455 61.7843C245.455 60.8472 244.956 60.3786 243.957 60.3786H242.495V63.1777H243.957Z" fill="#072750"/>
<path d="M254.264 66.5439L256.075 61.0075H257.48L255.042 67.8016H253.463L251.036 61.0075H252.453L254.264 66.5439Z" fill="#072750"/>
<path d="M263.739 62.1542V65.915C263.739 66.1699 263.793 66.3548 263.902 66.4699C264.018 66.5768 264.211 66.6302 264.482 66.6302H265.295V67.8016H264.25C263.654 67.8016 263.197 67.6536 262.88 67.3577C262.563 67.0618 262.404 66.5809 262.404 65.915V62.1542H261.65V61.0075H262.404V59.3182H263.739V61.0075H265.295V62.1542H263.739Z" fill="#072750"/>
<path d="M278.284 66.6672H281.013V67.8016H276.961V59.2319H278.284V66.6672Z" fill="#072750"/>
<path d="M287.379 62.1542V65.915C287.379 66.1699 287.433 66.3548 287.541 66.4699C287.657 66.5768 287.851 66.6302 288.122 66.6302H288.934V67.8016H287.89C287.294 67.8016 286.837 67.6536 286.52 67.3577C286.202 67.0618 286.044 66.5809 286.044 65.915V62.1542H285.289V61.0075H286.044V59.3182H287.379V61.0075H288.934V62.1542H287.379Z" fill="#072750"/>
<path d="M293.428 64.3737C293.428 63.6914 293.56 63.0872 293.823 62.5611C294.094 62.035 294.458 61.6281 294.914 61.3404C295.379 61.0445 295.893 60.8965 296.458 60.8965C296.876 60.8965 297.287 60.9951 297.689 61.1924C298.099 61.3815 298.424 61.6363 298.664 61.9569V58.677H299.999V67.8016H298.664V66.7782C298.448 67.107 298.146 67.3783 297.759 67.592C297.38 67.8057 296.942 67.9126 296.447 67.9126C295.89 67.9126 295.379 67.7646 294.914 67.4687C294.458 67.1645 294.094 66.7453 293.823 66.211C293.56 65.6684 293.428 65.056 293.428 64.3737ZM298.664 64.3984C298.664 63.9298 298.571 63.5229 298.386 63.1777C298.208 62.8324 297.972 62.5693 297.677 62.3885C297.383 62.2076 297.066 62.1172 296.725 62.1172C296.385 62.1172 296.068 62.2076 295.773 62.3885C295.479 62.5611 295.239 62.8201 295.054 63.1653C294.876 63.5024 294.787 63.9052 294.787 64.3737C294.787 64.8423 294.876 65.2533 295.054 65.6068C295.239 65.9602 295.479 66.2315 295.773 66.4206C296.075 66.6014 296.393 66.6919 296.725 66.6919C297.066 66.6919 297.383 66.6014 297.677 66.4206C297.972 66.2397 298.208 65.9767 298.386 65.6314C298.571 65.278 298.664 64.8669 298.664 64.3984Z" fill="#072750"/>
<path d="M61.957 26.1675H65.8052V27.3219H63.1115L61.957 26.1675Z" fill="#186DA8"/>
<path d="M186.637 21.1648H196.642V22.3192L193.948 22.7041L195.872 29.2459L199.72 40.0208L200.49 42.7145L200.875 43.0993L202.799 38.0967L205.108 31.17L205.493 30.7852L205.108 27.7067L202.799 23.4737L200.49 21.9344V21.1648H208.956L211.65 21.5496L210.88 22.7041H208.571L209.726 27.7067L214.343 41.1752L215.498 42.7145L219.346 31.5548L222.04 22.7041H218.961V21.5496L223.964 21.1648H245.514L248.592 22.7041L250.901 25.3978L252.055 28.0915V31.17L250.131 33.8637L245.898 36.1726H245.129L247.438 40.0208L252.055 46.1778L253.595 48.1019L255.519 49.2563L259.367 49.6412L262.83 48.8715L263.215 22.7041H259.367V21.1648H265.139L271.296 21.5496L270.527 22.7041H267.833V48.8715L268.218 49.2563L270.911 49.6412V50.4108L270.142 50.7956H250.131L246.283 45.793L241.665 39.2511L240.126 37.3271L237.048 36.9422V49.2563L240.896 49.6412L240.511 50.7956H229.351L228.582 49.6412L232.045 48.8715V23.0889L228.582 22.3192L225.503 22.7041L223.579 25.7826L218.192 41.9448L216.652 45.793L215.113 51.1804H213.574L210.11 41.9448L207.417 34.2485V33.4789H206.262L205.108 38.4815L203.184 43.0993L202.029 46.5626L200.49 51.5652H199.336L195.487 40.7904L191.639 30.7852L189.33 24.6281L188.946 23.0889L186.637 22.3192V21.1648Z" fill="#104261"/>
<path d="M186.637 21.1648H196.642V22.3192L193.948 22.7041L195.872 29.2459L199.72 40.0208L200.49 42.7145L200.875 43.0993L202.799 38.0967L205.108 31.17L205.493 30.7852L205.108 27.7067L202.799 23.4737L200.49 21.9344V21.1648H208.956L211.65 21.5496L210.88 22.7041H208.571L209.726 27.7067L214.343 41.1752L215.498 42.7145L219.346 31.5548L222.04 22.7041H218.961V21.5496L223.964 21.1648H245.514V21.5496H235.508L236.278 23.8585V34.6333L235.893 46.9475V49.6412H233.199L232.045 48.8715V23.0889L228.582 22.3192L225.503 22.7041L223.579 25.7826L218.192 41.9448L216.652 45.793L215.113 51.1804H213.574L210.11 41.9448L207.417 34.2485V33.4789H206.262L205.108 38.4815L203.184 43.0993L202.029 46.5626L200.49 51.5652H199.336L195.487 40.7904L191.639 30.7852L189.33 24.6281L188.946 23.0889L186.637 22.3192V21.1648Z" fill="#104265"/>
<path d="M168.935 22.3193L173.168 23.089L175.477 24.6282L177.401 27.7068L178.555 31.9397V41.5601L177.016 45.4083L173.937 48.4868L172.013 49.2564L168.55 49.6413L165.087 48.8716L162.393 46.5627L160.084 41.9449L159.699 40.4057V31.1701L161.623 26.5523L164.317 23.8586L167.011 22.7042L168.935 22.3193Z" fill="#FDFDFD"/>
<path d="M168.549 20.0105L172.782 20.3953L176.245 21.9346L179.324 24.6283L181.632 27.322L183.556 31.9398L183.941 33.8639V38.0968L182.787 42.7146L180.093 46.9476L176.63 49.6413L172.397 51.1806L170.473 51.5654H167.009L162.776 50.4109L159.698 48.1021L156.619 44.6387L154.695 40.0209V32.7094L155.85 28.8613L158.543 25.0131L161.622 22.3194L166.24 20.3953L168.549 20.0105ZM168.933 22.3194L165.085 23.4738L162.007 26.1676L160.083 30.0157L159.698 31.1702V40.4057L161.237 44.6387L163.546 47.7172L165.855 49.2565L169.318 49.6413L173.166 48.8717L176.245 46.178L177.399 45.0235L178.554 41.5602V31.9398L177.015 26.9372L175.475 24.6283L173.166 23.089L168.933 22.3194Z" fill="#276A9A"/>
<path d="M135.072 20.3953H141.229L145.462 21.9345H146.616L147.386 20.7801L148.925 21.1649V25.7827L149.31 26.9371V30.0157H148.541L146.616 26.1675L144.692 24.2434L140.459 22.7042H136.226L132.378 24.2434L129.3 27.7068L127.761 31.9397L127.376 35.7879L128.145 41.1753L130.069 45.0235L133.148 48.102L135.072 48.8716L138.535 49.2564L144.308 48.4868V35.7879L141.229 35.0183V33.8638H152.004V35.0183L149.695 36.1727L149.31 48.4868L147.386 50.0261L145.462 50.7957L139.69 51.5653H136.226L131.993 50.7957L128.53 48.8716L125.836 46.5627L123.528 42.7146L122.373 40.0209L121.988 38.0968V34.6334L123.528 29.6308L126.221 25.3979L129.685 22.3193L133.533 20.7801L135.072 20.3953Z" fill="#2372A9"/>
<path d="M276.297 21.1648H296.308L296.692 21.5496V27.7067L295.153 27.3218V23.4737L282.069 23.0889V34.2485L292.459 33.8637L292.844 30.7852H293.999V36.1726L293.614 40.0208L292.459 39.636V36.1726L282.069 36.5574V48.8715L293.614 48.4867L295.538 48.1019L296.308 46.1778L297.462 43.8689H298.616L298.232 46.1778L297.077 50.026L294.768 50.7956H274.373L273.988 49.6412L277.452 48.8715V22.7041L273.988 22.3192V21.5496L276.297 21.1648Z" fill="#082B53"/>
<path d="M223.963 21.1648H245.513V21.5496H235.508L236.277 23.8585V34.6333L235.892 46.9475V49.6412H233.199L232.044 48.8715V23.0889L228.581 22.3192L225.502 22.7041L223.578 25.7826L218.191 41.9448L216.652 45.793L215.112 51.1804H213.573L210.11 41.9448L207.801 35.403V33.8637L208.955 34.2485L211.264 40.4056L212.803 43.8689L213.188 41.56L211.649 38.0967L210.494 33.4789L210.11 32.7093V30.4004L210.879 31.17L214.727 41.9448L215.497 42.7145L219.345 31.5548L222.039 22.7041H218.96V21.5496L223.963 21.1648Z" fill="#174A69"/>
<path d="M259.366 21.1648H265.138L271.295 21.5496L270.525 22.7041H267.832V48.8715L268.216 49.2563L270.91 49.6412V50.4108L270.14 50.7956H250.13L246.282 45.793L241.664 39.2511L242.049 38.4815L243.973 40.0208L245.897 42.3297L248.591 43.4841L250.13 45.4082L250.9 46.1778L251.284 45.4082L253.593 48.1019L255.517 49.2563L259.366 49.6412L262.829 48.8715L263.214 22.7041H259.366V21.1648Z" fill="#05244D"/>
<path d="M169.319 20.3953H172.782L176.245 21.9345L179.324 24.6282L181.633 27.3219L183.557 31.9397L183.942 33.8638V38.0968L182.787 42.7146L180.094 46.9476L176.63 49.6413L173.167 50.7957H170.473L170.858 50.0261H172.397V49.2564L173.552 48.8716L176.245 45.7931L177.4 43.869L178.17 41.5601V31.9397L176.63 26.9371L175.476 25.3979V24.6282H174.706V23.4738L172.013 22.3193L171.628 21.5497H165.855L167.01 20.7801L169.319 20.3953Z" fill="#226596"/>
<path d="M218.96 21.5498H226.272L223.963 25.0131L220.885 33.8639L218.191 41.945L216.652 45.7932L215.112 51.1806H213.573L210.11 41.945L207.801 35.4032V33.8639L208.955 34.2487L211.264 40.4058L212.803 43.8691L213.188 41.5602L211.649 38.0969L210.494 33.4791L210.11 32.7095V30.4006L210.879 31.1702L214.727 41.945L215.497 42.7147L219.345 31.555L222.039 22.7043H218.96V21.5498Z" fill="#104062"/>
<path d="M238.201 23.0889H242.434L244.358 23.8585L246.282 26.1674L246.667 27.7067V30.7852L245.128 33.0941L242.819 34.6333L240.51 35.403H237.047V23.4737L238.201 23.0889Z" fill="#FCFCFD"/>
<path d="M186.637 21.1648H196.642V22.3192L193.948 22.7041L195.872 29.2459L198.951 38.4815L198.181 39.2511L199.336 42.3297L199.72 44.6386L198.181 45.0234L195.487 38.0967L192.409 29.2459L190.87 26.1674L189.33 24.6281L188.946 23.0889L186.637 22.3192V21.1648Z" fill="#1E6192"/>
<path d="M200.488 21.1648H208.954L211.648 21.5496L210.878 22.7041H208.569L209.724 27.7067L210.493 30.4004V32.7093L212.418 38.4815L213.572 42.3297L212.802 44.2537L211.648 42.7145L209.339 36.5574L208.569 34.2485H207.415V33.4789H206.261V32.3245H207.415L206.645 28.4763L205.106 25.013L203.952 25.3978L202.412 23.0889L200.488 21.9344V21.1648Z" fill="#1F5F8E"/>
<path d="M235.894 22.3193L238.972 22.7042L238.202 23.4738H237.048V35.4031H238.972L240.511 36.9423H237.048V49.2564L240.896 49.6413L240.511 50.7957H229.352L228.582 49.6413L229.352 49.2564L233.2 48.8716V49.6413H235.894L235.509 46.9475L235.894 34.6334V23.8586L235.509 22.7042L235.894 22.3193Z" fill="#0F3862"/>
<path d="M145.459 35.0183L148.153 35.4031L148.922 37.3272L149.307 38.4817V48.4869L147.383 50.0261H146.613V49.2565H145.844V48.102L145.074 47.7172V46.9476H145.844L145.459 45.7932V36.1728V35.0183Z" fill="#196DA8"/>
<path d="M265.522 23.0889H267.061L267.446 23.8585V46.5626L267.061 48.4867L266.291 47.3323L265.906 41.56L265.522 36.9422H265.137L264.367 24.6281L265.522 24.2433V23.0889Z" fill="#0F415E"/>
<path d="M241.664 38.4817L243.973 40.021L245.897 42.3298L248.591 43.4843L250.13 45.4084L250.9 46.178L251.284 45.4084L253.593 48.1021L255.517 49.2565L260.52 49.6413L259.75 50.0262V50.7958H250.13L246.282 45.7932L241.664 39.2513V38.4817Z" fill="#082A53"/>
<path d="M246.28 30.7852L246.665 31.9396L244.356 35.0181L245.511 36.9422L248.204 41.1752L250.898 44.6385L251.283 46.5626L249.744 45.793L248.204 43.4841L245.511 42.3296L243.587 40.0207L241.662 38.8663L240.123 36.9422L238.969 35.4029L243.587 33.8637L245.511 32.3244L246.28 30.7852Z" fill="#124565"/>
<path d="M218.959 21.5498H226.271L223.962 25.0131L220.883 33.8639L218.574 40.4058L217.805 40.7906L218.19 34.6335L221.653 24.2435L222.038 22.7043H218.959V21.5498Z" fill="#0C325B"/>
<path d="M208.571 28.4763L209.725 29.2459L210.88 33.4789L212.034 38.0967L213.573 41.5601L212.804 44.2538L211.649 42.7145L209.34 36.5575L208.571 34.2486H207.416V33.4789H206.262V32.3245H207.416V29.6308H208.571V28.4763Z" fill="#1D5F8F"/>
<path d="M178.939 34.6333H179.323V45.793V47.3322L176.63 49.6411L173.166 50.7956H170.473L170.857 50.0259H172.397V49.2563L173.551 48.8715L176.245 45.793L177.399 43.8689L178.169 41.56L178.939 34.6333Z" fill="#154A6E"/>
<path d="M158.158 28.8611L159.313 29.2459L158.543 34.2485L158.158 40.4056H158.928L159.313 43.4841H158.158L158.543 42.7145L157.389 42.3296V40.7904H156.619L156.234 37.327V32.3244L158.158 28.8611Z" fill="#186DA8"/>
<path d="M207.801 33.8638L208.955 34.2486L212.419 43.4842V45.0234H213.188L214.343 48.4868L215.497 48.102L215.112 51.1805H213.573L210.11 41.9449L207.801 35.403V33.8638Z" fill="#0A3156"/>
<path d="M204.721 24.6282L205.875 25.7826L207.415 29.246V32.3245H206.26L205.875 35.7878L204.336 40.4056L203.566 40.7904V35.403L205.49 30.7852L205.106 27.7067L204.336 26.1674L204.721 24.6282Z" fill="#0E365D"/>
<path d="M193.946 21.1648H196.639V22.3192L193.946 22.7041L195.87 29.2459L197.024 32.7093V33.8637H196.255L193.946 28.0915L192.406 23.4737L191.637 21.5496L193.946 21.1648Z" fill="#1D4870"/>
<path d="M190.098 24.6282L191.637 26.5523L193.946 32.3245L196.64 40.0208V41.9449H195.87L192.022 31.5549L190.098 26.1674V24.6282Z" fill="#0B345A"/>
<path d="M147.385 20.78L148.924 21.1648V25.7826L149.309 26.9371V30.0156H148.539L147.385 27.7067L147 25.013L146.615 23.0889H145.461V22.3193L146.615 21.9345L147.385 20.78Z" fill="#2B72A4"/>
<path d="M141.227 33.8638H152.001V35.0182L149.693 36.1727L149.308 38.4816L148.153 36.9423L147.768 35.7878L145.844 35.403V34.6334L141.227 35.0182V33.8638Z" fill="#2E74A6"/>
<path d="M158.93 30.4004H159.699V41.1752H158.93V40.4056H158.16V34.2485L158.545 30.7852L158.93 30.4004Z" fill="#276998"/>
<path d="M204.336 21.5498H211.647L210.878 22.7043H208.569L209.339 26.9372L208.569 27.322L207.03 24.2435L206.26 22.3194L205.49 21.9346V22.7043L204.336 22.3194V21.5498Z" fill="#144168"/>
<path d="M223.961 21.1648H245.511V21.5496L231.272 21.9344L231.657 22.7041L225.885 22.3192V21.9344L223.961 21.5496V21.1648Z" fill="#357DB0"/>
<path d="M126.221 25.3979H127.376L126.606 27.322L123.912 33.0943L123.527 33.8639H122.758L123.143 30.7854L125.067 26.9372L126.221 25.3979Z" fill="#226799"/>
<path d="M217.805 35.7878L218.575 36.5575L218.19 40.7904L217.805 42.3297L217.035 43.4842L215.881 43.0993V45.0234H215.496L215.881 41.1753L217.805 35.7878Z" fill="#1F567C"/>
<path d="M143.535 34.6333H145.844V35.7877V46.9474H145.075L144.69 38.4815L144.305 35.7877L141.996 35.4029L143.535 34.6333Z" fill="#24699B"/>
<path d="M203.184 36.5576L203.954 38.0969V41.5602L202.799 42.7147L202.03 43.0995L201.645 44.2539L200.105 43.4843L200.49 42.7147L200.875 43.0995L202.799 38.0969L203.184 36.5576Z" fill="#255B80"/>
<path d="M167.78 21.1648H171.628L172.782 21.9344L172.397 22.3192L175.091 23.4737L174.321 24.2433L172.013 23.0889L168.934 22.7041H167.01L165.855 21.5496L167.78 21.1648Z" fill="#2A79B0"/>
<path d="M144.69 38.4817H145.075V47.7173L146.229 48.1021L145.844 49.2565H146.614V50.411L144.305 50.7958L145.075 50.411V49.6413L142.766 49.2565L144.305 48.4869L144.69 38.4817Z" fill="#4987B4"/>
<path d="M148.539 37.3271L149.309 38.4816V48.4868L147.77 48.8716L148.539 48.4868L148.154 40.4057L148.539 37.3271Z" fill="#266EA1"/>
<path d="M210.109 30.4004L210.879 31.17L213.573 39.2512L212.803 40.4056L211.649 38.0967L210.494 33.4789L210.109 32.7093V30.4004Z" fill="#14466A"/>
<path d="M147.385 20.78L148.924 21.1648L148.539 25.3978L146.615 23.8586V23.0889H145.461V22.3193L146.615 21.9345L147.385 20.78Z" fill="#458BBB"/>
<path d="M235.893 22.3193L238.971 22.7042L238.202 23.4738H237.047L236.662 34.2486H236.277L235.893 23.8586L235.508 22.7042L235.893 22.3193Z" fill="#092951"/>
<path d="M122.758 39.2512H123.527L125.067 43.4842L127.376 46.5627V47.7172L125.452 45.7931L123.527 42.7146L122.758 41.1753V39.2512Z" fill="#3072A2"/>
<path d="M259.367 21.1648H265.139V21.5496L262.446 21.9344L262.831 22.7041H259.367V21.1648Z" fill="#3C7299"/>
<path d="M194.332 27.7068H195.102L197.026 32.7094V33.8638H196.256L194.332 28.8612V27.7068Z" fill="#082B50"/>
<path d="M207.801 33.8638L208.955 34.2486L210.11 37.7119L209.725 38.8664L208.57 37.7119L207.801 35.403V33.8638Z" fill="#0B355A"/>
<path d="M198.182 38.4817H198.951L199.721 40.021L200.106 44.2539H199.336L198.182 40.021L197.797 38.8665L198.182 38.4817Z" fill="#0B2F55"/>
<path d="M141.227 33.8638L150.462 34.2486V34.6334L141.227 35.0182V33.8638Z" fill="#508EBA"/>
<path d="M247.821 33.8638L249.36 34.2486L245.897 36.1727L243.203 35.403L244.742 34.6334V35.403L247.821 33.8638Z" fill="#072A54"/>
<path d="M217.807 35.7878L218.576 36.5575L217.807 40.4056L217.037 40.7904L216.652 39.2512L217.807 35.7878Z" fill="#195076"/>
<path d="M197.025 34.2485L197.795 34.6334L198.565 38.0967L197.795 38.4815L196.641 35.0182L197.025 34.2485Z" fill="#09325A"/>
<path d="M204.721 24.6282L205.875 25.7826L206.645 28.0915L205.106 27.7067L204.336 26.1674L204.721 24.6282Z" fill="#0F3F5F"/>
</svg>
