<svg width="122" height="120" viewBox="0 0 122 120" fill="none" xmlns="http://www.w3.org/2000/svg">
<path d="M25.2145 33.0039H27.7228L29.4389 33.1359L31.2871 33.3999L32.4752 33.664L33.2013 33.928V44.8851L32.4752 44.7531L29.967 44.225L28.5809 44.027L27.7888 43.961H25.4125L24.1584 44.093L22.9703 44.357L21.6502 44.7531L20 45.4792L18.8779 46.1392L17.7558 46.9313L16.7657 47.7894L16.0396 48.5155L15.2475 49.7036L14.4554 51.1557L13.7954 52.4098L12.9373 54.5221L12.4092 56.1062L12.1452 57.1623L11.8152 59.1425L11.6172 61.0567V63.1029L11.8152 64.357L12.2112 65.9412L12.6733 67.1953L13.3993 68.5815L14.0594 69.5716L14.5875 70.2976L15.3135 71.1557L15.7756 71.6838L16.4356 72.4098L16.9637 72.8719L17.8218 73.664L19.1419 74.6541L20.5281 75.5122L21.9142 76.1722L23.4984 76.7003L25.2145 77.0303L26.4686 77.1623H27.6568L30.231 76.9643L32.6733 76.6343L34.1914 76.3702H34.4554L34.2574 80.5947L34.0594 84.027L33.8614 86.0732L34.1914 86.1392L35.3795 86.2052H45.0165L45.0825 86.4032L44.8845 87.8554L44.6205 88.8455L44.2244 90.2316L44.0924 91.1557V94.324L44.2904 95.7762L44.7525 97.4924L45.2805 98.8785L46.0726 100.463L46.6007 101.255L47.1287 101.981L47.4587 102.377V102.509L47.6568 102.575L48.1188 103.103L48.9769 103.961L49.1749 104.093V104.225L49.4389 104.357L50.099 104.885L51.2871 105.743L51.8152 106.139L52.8053 106.799L53.9274 107.459L55.6436 108.383L56.6337 108.779L59.0759 108.647L61.3861 108.449L63.1023 108.185L65.0165 107.789L66.5347 107.393L68.9109 106.601L70.033 106.139L71.0891 105.611L72.4092 104.885L73.5974 104.093L74.4554 103.235H74.5875L74.7195 102.971L75.1155 102.509L75.7096 101.651L76.5016 100.265L77.0957 99.0105L77.6238 97.6244L78.0858 95.9742L78.2178 95.1161L78.2838 94.324L78.2178 92.6079L77.8878 90.4957L77.5578 89.1095L77.2277 88.1854L76.7657 87.5254L76.8317 87.3933L86.1386 87.3273L88.8449 87.2613L88.9109 87.3273L88.9769 89.3075L89.0429 93.3999V95.2481L88.9109 97.1623L88.5809 99.0765L88.1848 100.793L87.5247 102.773L86.7987 104.489L86.2706 105.545L85.4785 106.997L84.7525 108.119L84.2244 108.845L83.3663 109.836L82.5743 110.694L82.1122 111.222L81.3861 112.014L80.5941 112.806L79.1419 113.994L77.8878 114.852L76.4356 115.776L75.0495 116.568L73.5314 117.36L72.5413 117.822L71.8812 118.086L71.4191 118.284L69.835 118.812L69.1749 119.077L67.7888 119.407L65.6106 119.803L64.6865 119.935L63.6964 120.001H59.3399L57.2937 119.803L55.3135 119.473L53.0693 119.011L52.2772 118.812L51.7492 118.614L51.0891 118.416L50.429 118.086L48.9109 117.492L47.7888 116.898L46.7327 116.37L45.5446 115.644L44.6205 115.05L43.4323 114.192L42.5083 113.466L41.8482 112.872L41.3201 112.41L40.33 111.42L39.868 110.892L39.2079 110.166L38.3498 109.044L37.6238 108.053L36.8977 106.865L36.0396 105.413L35.4455 104.357L34.7195 102.707L34.1914 101.123L33.7294 99.3405L33.3993 97.5584L33.0033 95.1821L32.8053 93.2679L32.8713 91.1557L33.2013 87.1953V86.8653L33.0033 87.2613L32.7393 87.4594L32.4752 87.9874L31.9472 88.1194L31.0891 88.2514L29.769 88.3834H27.7228L26.0726 88.2514L23.6304 87.9214L21.9142 87.5914L19.2739 86.9313L16.9637 86.2052L15.2475 85.4792L13.5314 84.6211L12.0132 83.697L10.6931 82.7729L9.967 82.1788L8.91089 81.1887L7.19472 79.4726L6.60066 78.7465L6.07261 78.1524L5.21452 76.9643L4.48845 75.8422L3.82838 74.7201L3.16832 73.532L2.31023 71.7498L1.58416 69.8356L0.726073 66.9973L0.19802 65.4131L0 65.1491V55.5782L0.19802 55.1161L0.660066 53.532L1.12211 51.8818L1.91419 49.5056L2.64026 47.9214L3.36634 46.6013L4.15842 45.4131L4.81848 44.4891L5.41254 43.697L6.07261 42.8389L6.86469 41.9148L7.78878 40.9247L8.71287 40.0006L9.24092 39.5386L10.033 38.8125L10.7591 38.2184L11.6172 37.5584L13.0033 36.6343L14.1914 35.9742L15.1155 35.5122L16.7657 34.8521L18.8779 34.192L20.9901 33.664L23.4323 33.2019L24.3564 33.0699L25.2145 33.0039Z" fill="#C7D75A"/>
<path d="M58.9433 0H63.4978L66.006 0.19802L68.0522 0.594059L70.0324 1.12211L71.6826 1.71617L73.2667 2.37624L75.0489 3.23432L76.5671 4.09241L77.8212 4.88449L79.0093 5.74257L80.0654 6.60066L80.9235 7.39274L81.8476 8.25082L82.3096 8.77888L82.9037 9.43894L84.2238 11.0891L85.1479 12.4092L86.138 14.0594L86.6661 15.1155L87.3261 16.5016L87.9862 18.3498L88.5143 20.132L88.8443 21.5182L88.9763 22.5083L89.1083 24.8185V26.4686L88.8443 30.8911V32.1452L89.0423 32.4092L89.6364 32.3432L91.2205 31.8152L91.6166 31.7492H94.9169L96.7651 31.8812L98.2172 32.0792L99.9334 32.4092L101.782 32.8713L104.158 33.6634L105.742 34.3234L107.392 35.1155L108.844 35.9076L110.098 36.7657L111.023 37.4917L111.749 38.0858L112.541 38.8119L113.201 39.4059L113.861 40.066L114.323 40.5941L115.115 41.5182L115.973 42.6403L116.831 43.8284L117.623 45.0825L118.283 46.2046L119.141 47.9868L119.603 49.1749L120.131 50.8251L120.527 52.4752L120.924 54.7195L121.254 57.1617L121.386 59.0099V60.33L121.254 62.7063L120.99 64.6205L120.593 66.3366L120.065 68.0528L119.537 69.4389L118.745 71.2211L117.755 73.2673L116.831 74.8515L115.973 76.1056L115.313 76.9637L114.785 77.6238L114.059 78.4158L112.409 80.066L111.881 80.5281L110.89 81.3201L109.57 82.2442L108.25 83.1023L106.798 83.8944L105.28 84.6205L103.366 85.3465L101.056 86.0726L99.4714 86.4687L97.1611 86.9307L96.039 87.0627L95.0489 87.1287L93.1347 87.1947H90.3624L89.9004 87.0627L89.6364 86.7327L89.1083 86.5347L87.7222 86.2046L87.1281 85.9406L86.9961 85.4125L86.9301 83.0363L86.8641 79.3399V74.9175L88.7123 75.3795L90.7585 75.7096L92.6067 75.9076L93.5308 75.9736H96.4351L97.5572 75.7756L98.8773 75.3795L100.263 74.7195L101.254 74.0594L102.046 73.4653L102.706 72.9373L103.63 72.1452L104.62 71.2211L105.082 70.6931L105.676 70.099L106.138 69.571L106.666 68.9769L107.524 67.8548L108.316 66.6007L108.844 65.5446L109.174 64.5545L109.372 63.4983L109.438 62.9703L109.504 61.7162V60.264L109.372 57.6898L109.174 55.9736L108.844 54.5215L108.25 52.8053L107.458 50.8911L106.732 49.4389L105.94 48.1188L105.28 47.2607L104.686 46.6007L103.894 45.9406L102.706 45.0825L101.386 44.2904L100.329 43.7624L99.4053 43.3663L98.4152 43.0363L97.0951 42.7723L96.6331 42.7063L94.9169 42.6403L92.9367 42.7723L90.7585 43.0363L88.9103 43.4323L88.0522 43.6964V40.7261L88.1182 33.6634L88.1842 32.6073L80.5275 32.5413L76.6991 32.4752L76.8311 32.2112L77.2271 31.5512L77.6892 30.297L78.1512 28.3828L78.2832 27.3927V25.0165L78.0852 23.6964L77.6892 22.1782L77.0951 20.5941L76.4351 19.2739L75.643 18.1518L74.9169 17.2937L74.4549 16.7657L73.9928 16.3696L73.6628 16.0396L72.8707 15.3795L71.7486 14.6535L70.8245 14.1254L69.5704 13.4653L67.8542 12.8053L66.6661 12.4092L65.0159 12.0132L63.0357 11.6832L61.3195 11.4851L57.0291 11.3531L56.369 11.2211L56.171 11.1551L55.3789 11.4851L54.1908 12.1452L52.4086 13.3333L51.4185 14.0594L50.3624 14.9175L49.7024 15.5116L49.1743 15.9736L48.0522 17.0297L47.1281 18.0198L46.27 19.2079L45.4119 20.7261L44.8839 21.9142L44.3558 23.5644L44.1578 24.4884L44.0258 26.1386V28.1848L44.1578 29.571L44.3558 30.5611L44.9499 32.2112L45.1479 33.0693V33.4653L44.7519 33.5314L42.6397 33.5974H33.5308L33.3987 33.1353L33.1347 30.231L32.8707 28.2508L32.8047 27.5908V26.3366L32.9367 24.9505L33.2667 22.8383L33.7948 20.33L34.1908 18.9439L34.7849 17.1617L35.511 15.4455L36.105 14.3234L36.369 13.7954L36.8971 12.9373L37.4912 12.0132L38.0192 11.2871L38.5473 10.495H38.6793L38.8113 10.231L39.3393 9.57096L40.1314 8.64686L41.7816 6.9967L42.7057 6.20462L44.0258 5.21452L44.6859 4.75248H44.8839V4.62046L46.072 3.89439L46.9961 3.36634L48.5143 2.57426L49.7024 2.0462L51.2865 1.45215L53.5968 0.792079L55.511 0.39604L57.3591 0.132013L58.9433 0Z" fill="#C7D75A"/>
<path d="M33.7288 86.1387L35.3789 86.2047H45.0159L45.0819 86.4027L44.8839 87.8548L44.6199 88.8449L44.2238 90.2311L44.0918 91.1552V94.3235L44.2898 95.7756L44.7519 97.4918L45.2799 98.8779L46.072 100.462L46.6001 101.254L47.1281 101.98L47.4582 102.376V102.508L47.6562 102.574L48.1182 103.102L48.9763 103.96L49.1743 104.092V104.224L49.4384 104.356L50.0984 104.885L51.2865 105.743L51.8146 106.139L52.8047 106.799L53.9268 107.459L55.643 108.383L56.6331 108.779L59.0753 108.647L61.3855 108.449L63.1017 108.185L65.0159 107.789L66.5341 107.393L68.9103 106.601L70.0324 106.139L71.0885 105.611L72.4086 104.885L73.5968 104.092L74.4549 103.234H74.5869L74.7189 102.97L75.1149 102.508L75.709 101.65L76.5011 100.264L77.0951 99.01L77.6232 97.6238L78.0852 95.9737L78.2172 95.1156L78.2832 94.3235L78.2172 92.6073L77.8872 90.4951L77.5572 89.109L77.2271 88.1849L76.7651 87.5248L76.8311 87.3928L86.138 87.3268L88.8443 87.2608L88.9103 87.3268L88.9763 89.307L89.0423 93.3994V95.2476L88.9103 97.1618L88.5803 99.076L88.1842 100.792L87.5242 102.772L86.7981 104.489L86.27 105.545L85.478 106.997L84.7519 108.119L84.2238 108.845L83.3657 109.835L82.5737 110.693L82.1116 111.221L81.3855 112.013L80.5935 112.805L79.1413 113.993L77.8872 114.852L76.4351 115.776L75.0489 116.568L73.5308 117.36L72.5407 117.822L71.8806 118.086L71.4185 118.284L69.8344 118.812L69.1743 119.076L67.7882 119.406L65.61 119.802L64.6859 119.934L63.6958 120H59.3393L57.2931 119.802L55.3129 119.472L53.0687 119.01L52.2766 118.812L51.7486 118.614L51.0885 118.416L50.4284 118.086L48.9103 117.492L47.7882 116.898L46.7321 116.37L45.544 115.644L44.6199 115.05L43.4318 114.191L42.5077 113.465L41.8476 112.871L41.3195 112.409L40.3294 111.419L39.8674 110.891L39.2073 110.165L38.3492 109.043L37.6232 108.053L36.8971 106.865L36.039 105.413L35.445 104.356L34.7189 102.706L34.1908 101.122L33.7288 99.34L33.3987 97.5578L33.0027 95.1816L32.8047 93.2674L32.8707 91.1552L33.2007 87.1948L33.3987 86.4027L33.7288 86.1387Z" fill="#02B4F0"/>
<path d="M58.9433 0H63.4978L66.006 0.19802L68.0522 0.594059L70.0324 1.12211L71.6826 1.71617L73.2667 2.37624L75.0489 3.23432L76.5671 4.09241L77.8212 4.88449L79.0093 5.74257L80.0654 6.60066L80.9235 7.39274L81.8476 8.25082L82.3096 8.77888L82.9037 9.43894L84.2238 11.0891L85.1479 12.4092L86.138 14.0594L86.6661 15.1155L87.3261 16.5016L87.9862 18.3498L88.5143 20.132L88.8443 21.5182L88.9763 22.5083L89.1083 24.8185V26.4686L88.8443 30.8911L88.7783 32.4752L88.7123 32.5413H80.5275L76.6991 32.4752L76.8311 32.2112L77.2271 31.5512L77.6892 30.297L78.1512 28.3828L78.2832 27.3927V25.0165L78.0852 23.6964L77.6892 22.1782L77.0951 20.5941L76.4351 19.2739L75.643 18.1518L74.9169 17.2937L74.4549 16.7657L73.9928 16.3696L73.6628 16.0396L72.8707 15.3795L71.7486 14.6535L70.8245 14.1254L69.5704 13.4653L67.8542 12.8053L66.6661 12.4092L65.0159 12.0132L63.0357 11.6832L61.3195 11.4851L57.0291 11.3531L56.369 11.2211L56.171 11.1551L55.3789 11.4851L54.1908 12.1452L52.4086 13.3333L51.4185 14.0594L50.3624 14.9175L49.7024 15.5116L49.1743 15.9736L48.0522 17.0297L47.1281 18.0198L46.27 19.2079L45.4119 20.7261L44.8839 21.9142L44.3558 23.5644L44.1578 24.4884L44.0258 26.1386V28.1848L44.1578 29.571L44.3558 30.5611L44.9499 32.2112L45.1479 33.0693V33.4653L44.7519 33.5314L42.6397 33.5974H33.5308L33.3987 33.1353L33.1347 30.231L32.8707 28.2508L32.8047 27.5908V26.3366L32.9367 24.9505L33.2667 22.8383L33.7948 20.33L34.1908 18.9439L34.7849 17.1617L35.511 15.4455L36.105 14.3234L36.369 13.7954L36.8971 12.9373L37.4912 12.0132L38.0192 11.2871L38.5473 10.495H38.6793L38.8113 10.231L39.3393 9.57096L40.1314 8.64686L41.7816 6.9967L42.7057 6.20462L44.0258 5.21452L44.6859 4.75248H44.8839V4.62046L46.072 3.89439L46.9961 3.36634L48.5143 2.57426L49.7024 2.0462L51.2865 1.45215L53.5968 0.792079L55.511 0.39604L57.3591 0.132013L58.9433 0Z" fill="#02B4F0"/>
<path d="M38.8121 41.6504H40.7923L46.4029 41.7164L47.921 41.7824V64.5547L47.987 73.1355L48.3171 73.2015L49.3732 73.2676L54.3897 73.3336H75.1157L79.3402 73.3996L80.1322 73.4656V77.426L80.0662 82.5085H46.6009L42.5085 82.5745H38.8121L38.7461 41.7164L38.8121 41.6504Z" fill="#ABCA5B"/>
<path d="M88.6467 87.2598L88.9107 87.3258L88.9768 89.306L89.0428 93.3984V95.2466L88.9107 97.1608L88.5807 99.0749L88.1847 100.791L87.5246 102.771L86.7985 104.487L86.2705 105.544L85.4784 106.996L84.7523 108.118L84.2243 108.844L83.3662 109.834L82.5741 110.692L82.1121 111.22L81.386 112.012L80.5939 112.804L79.1418 113.992L77.8876 114.851L76.4355 115.775L75.0494 116.567L74.6533 116.765V116.633H74.7853V116.501L74.3893 116.567L73.2012 116.633L72.8711 116.435L72.6731 116.369L72.5411 116.039V115.643L72.4091 115.445L72.3431 115.775L72.0791 116.039H71.617L70.8909 115.775L70.0329 115.511L68.7127 115.049L67.5246 114.653L65.8084 114.256L64.8843 113.86L64.3563 113.662L63.1022 113.002L61.848 112.21L60.4619 111.418L59.1418 110.626L58.5477 110.23L57.8216 109.834L57.2936 109.504L56.6995 109.108L56.5015 108.91L56.1055 108.712L56.3035 108.646L56.6335 108.778L59.0758 108.646L61.386 108.448L63.1022 108.184L65.0164 107.788L66.5345 107.392L68.9107 106.6L70.0329 106.138L71.089 105.61L72.4091 104.884L73.5972 104.091L74.4553 103.233H74.5873L74.7193 102.969L75.1154 102.507L75.7094 101.649L76.5015 100.263L77.0956 99.0089L77.6236 97.6228L78.0857 95.9726L78.2177 95.1146L78.2837 94.3225L78.2177 92.6063L77.8876 90.4941L77.5576 89.108L77.2276 88.1839L76.7655 87.5238L76.8315 87.3918L86.1385 87.3258L88.6467 87.2598Z" fill="#2896C7"/>
<path d="M73.5968 2.57422L73.9929 2.70623L75.907 3.69633L77.4252 4.62042L78.7453 5.54452L79.6694 6.27059L80.5935 7.06267L81.1876 7.65673L81.7156 8.11877L82.4417 8.91085L83.1678 9.76894L83.7618 10.495L84.5539 11.5511L85.478 12.9373L86.2041 14.1914L86.7321 15.2475L87.3262 16.5016L87.9863 18.3498L88.5143 20.132L88.8443 21.5181L88.9764 22.5082L89.1084 24.8184V26.4686L88.8443 30.8911L88.7783 32.4752L88.7123 32.5412H80.5275L76.6991 32.4752L76.8311 32.2112L77.2272 31.5511L77.6892 30.297L78.1513 28.3828L78.2833 27.3927V25.0165L78.0853 23.6963L77.6892 22.1782L77.0952 20.594L76.4351 19.2739L75.643 18.1518L74.917 17.2937L74.4549 16.7656L73.9929 16.3696L73.6628 16.0396L72.8707 15.3795L71.7486 14.6534L70.8245 14.1254L69.5704 13.4653L67.8542 12.8052L66.6661 12.4092L65.016 12.0132L63.0358 11.6831L61.3196 11.4851L57.0292 11.3531L56.0391 11.1551L56.2371 10.9571L56.7651 10.627H57.0292V10.495L57.9533 9.96696L60.4615 8.71283L62.4417 7.85475L66.7321 5.87455L68.8443 4.88445L70.1645 4.4224L70.4945 4.3564H70.9566L71.2866 4.55442L71.7486 4.75244L72.0787 4.95046H72.3427L72.5407 4.68643H72.6727V4.15838L72.8707 3.76234H73.0028L73.0688 3.4323L73.3328 3.23428H73.6628L73.8608 3.16828L73.5968 2.77224V2.57422Z" fill="#2896C7"/>
<path d="M91.6151 31.748H94.9155L96.7637 31.8801L98.2158 32.0781L99.932 32.4081L101.78 32.8702L104.156 33.6622L105.741 34.3223L107.391 35.1144L108.843 35.9065L110.097 36.7645L111.021 37.4906L111.747 38.0847L112.539 38.8108L113.199 39.4048L113.859 40.0649L114.321 40.5929L115.113 41.517L115.972 42.6391L116.83 43.8273L117.622 45.0814L118.282 46.2035L118.81 47.2596L118.744 47.3916L118.612 47.3256L118.282 47.4576L118.084 47.9197L117.886 48.1177L117.688 48.4477L117.424 48.6457L116.5 50.6919L115.312 53.3982L114.519 55.1144L113.991 56.1705L113.463 57.3586L112.869 58.4147L112.407 58.7447H112.209L112.143 59.0088L111.945 59.3388L111.615 59.5368L111.351 59.6028L111.153 59.9989L111.087 60.3289H110.493L110.295 60.7249L110.097 60.6589L110.031 60.857L109.899 61.121L109.767 61.187L109.569 63.1672L109.371 64.2893H109.305L109.371 63.4972L109.437 62.9692L109.503 61.715V60.2629L109.371 57.6886L109.173 55.9725L108.843 54.5203L108.249 52.8042L107.457 50.89L106.731 49.4378L105.939 48.1177L105.279 47.2596L104.684 46.5995L103.892 45.9395L102.704 45.0814L101.384 44.2893L100.328 43.7612L99.4039 43.3652L98.4138 43.0352L97.0937 42.7711L96.6316 42.7051L94.9155 42.6391L92.9353 42.7711L90.7571 43.0352L88.9089 43.4312L88.0508 43.6952V40.7249L88.1168 33.6622L88.1828 32.5401L88.7108 32.4741L88.7769 32.1441L89.0409 32.4081L89.6349 32.3421L91.2191 31.8141L91.6151 31.748Z" fill="#AACA5B"/>
<path d="M25.2146 33.0039H27.7228L29.439 33.1359L31.2872 33.3999L32.4753 33.664L33.2014 33.928V44.8851L32.4753 44.7531L29.967 44.225L28.5809 44.027L27.7888 43.961H25.4126L24.1585 44.093L22.9703 44.357L21.6502 44.7531L20.0001 45.4792L18.8779 46.1392L17.7558 46.9313L16.7657 47.7894L16.0397 48.5155L15.2476 49.7036L14.4555 51.1557L13.7954 52.4098L12.9373 54.5221L12.4093 56.1062L12.1453 57.1623L11.8152 59.1425L11.6172 61.0567H11.5512L11.4852 60.5287L11.2212 60.5947L11.1552 60.3306L10.8251 60.2646L10.0991 60.0666L10.0331 60.1986L9.83504 60.0666V59.9346L9.505 59.8686L8.4489 59.4726L8.05286 59.1425L7.65682 58.6805L7.06276 57.6904L6.27068 55.7762L5.61061 53.796L4.55451 50.4957L4.22447 49.6376L3.69642 48.9775L3.43239 48.3834L3.30038 47.7234L3.23438 47.0633V46.8653L3.96045 45.6772L4.81853 44.4891L5.41259 43.697L6.07266 42.8389L6.86474 41.9148L7.78883 40.9247L8.71292 40.0006L9.24098 39.5386L10.0331 38.8125L10.7591 38.2184L11.6172 37.5584L13.0034 36.6343L14.1915 35.9742L15.1156 35.5122L16.7657 34.8521L18.8779 34.192L20.9902 33.664L23.4324 33.2019L24.3565 33.0699L25.2146 33.0039Z" fill="#AACA5B"/>
<path d="M69.6355 45.7422L74.652 45.8082L75.312 45.8742L75.4441 53.399L75.5101 55.5772L75.5761 56.6333L75.9061 57.5574V63.696H75.312V72.0128H69.7015L69.6355 64.224V60.9237L69.3054 60.7917L67.7873 60.5277L65.8071 60.3296H62.3087L60.8566 60.3957L59.4705 60.5937L58.7444 60.7917L58.4144 60.9237L58.3484 71.9468L58.2823 72.0128H52.9358L52.4738 71.9468L52.4078 68.5805L52.2757 65.0821L52.0777 62.7059L52.0117 59.9996V56.7653L52.1437 56.3032L52.2757 56.2372L52.3418 54.3891L52.4078 45.8742L52.4738 45.8082H58.2823L58.3484 45.8742V53.795L59.0084 53.663L61.2526 53.465L62.6388 53.399H65.213L67.1272 53.531L68.7774 53.729L69.5695 53.861L69.6355 45.7422Z" fill="#AACA5B"/>
<path d="M61.9135 53.5977H66.0059L68.5142 53.9277L69.7023 54.1917L70.5604 54.4557L71.0884 54.5878L72.4086 55.1818L73.8607 55.9739L74.7848 56.634L75.1148 56.898L75.4449 57.228L75.7089 57.5581L75.6429 60.0003V62.9706L75.7089 63.0366V63.4986L75.2468 63.3006L73.9267 62.6406L72.6726 61.9805L71.6165 61.4524L71.0224 61.2544L69.7023 60.6604L68.8442 60.4623L67.326 60.2643L65.6759 60.1323H61.8475L60.1313 60.2643L59.0752 60.4623L57.7551 60.9244L55.7749 61.7825L52.9366 62.9706L52.2105 63.1026L52.1445 61.3204V57.096L52.2105 56.7L52.8046 56.568L53.5967 56.1059L54.6528 55.5779L55.6429 55.1818L56.435 54.8518L58.7452 53.9277L59.4713 53.7957L60.6594 53.6637L61.9135 53.5977Z" fill="#C7D75A"/>
<path d="M74.4553 103.234L74.5873 103.3L74.0593 103.828L73.7292 104.224L73.7952 104.555L73.8612 104.687V106.865L73.7292 108.845L73.3992 111.023L73.0032 112.805L72.5411 114.455L72.1451 115.578L72.0131 115.71H71.485L69.7028 115.248L68.0527 114.654L66.7985 114.191L64.6203 113.267L63.1022 112.541L60.4619 111.155L59.6038 110.627L58.2177 109.835L57.5576 109.439L56.1055 108.713L56.3035 108.647L56.6335 108.779L59.0758 108.647L61.386 108.449L63.1022 108.185L65.0164 107.789L66.5345 107.393L68.9107 106.601L70.0329 106.139L71.089 105.611L72.4091 104.885L73.5972 104.092L74.4553 103.234Z" fill="#A1BB66"/>
<path d="M70.4945 4.35547H70.9566L71.6826 4.81751L72.2767 5.34557L72.8047 6.20365L72.9368 6.59969L73.3328 9.10794L73.5308 11.5502V15.6426L73.1348 15.4446L72.1447 14.7845L71.6166 14.5865L70.9566 14.1905L69.5704 13.4644L67.8542 12.8043L66.6661 12.4083L65.016 12.0122L63.0358 11.6822L61.3196 11.4842L57.0292 11.3522L56.0391 11.1541L56.2371 10.9561L56.7651 10.6261H57.0292V10.4941L57.9533 9.96603L60.4615 8.7119L62.4417 7.85382L66.7321 5.87362L68.8443 4.88352L70.1645 4.42148L70.4945 4.35547Z" fill="#A0BB66"/>
<path d="M104.16 46.0723L104.49 46.1383L104.754 46.4023V46.5343L105.018 46.6003L105.546 47.1284L105.678 47.0624H106.338L109.969 47.4584L111.157 47.5904L113.203 47.8544L114.589 48.0525L116.569 48.5145L117.229 48.6465L117.295 48.9766L116.503 50.6927L115.315 53.399L114.523 55.1152L113.995 56.1713L113.467 57.3594L112.873 58.4155L112.411 58.7455H112.213L112.147 59.0096L111.949 59.3396L111.619 59.5376L111.355 59.6036L111.157 59.9997L111.091 60.3297H110.497L110.299 60.7257L110.101 60.6597L110.035 60.8577L109.903 61.1218L109.771 61.1878L109.573 63.168L109.375 64.2901H109.309L109.375 63.498L109.441 62.97L109.507 61.7158V60.2637L109.375 57.6894L109.177 55.9733L108.847 54.5211L108.253 52.8049L107.46 50.8907L106.734 49.4386L105.942 48.1185L105.282 47.2604L104.688 46.6003L104.16 46.1383V46.0723Z" fill="#A0BB66"/>
<path d="M16.8975 47.459L17.0295 47.525L16.0394 48.5151L15.2474 49.7032L14.4553 51.1554L13.7952 52.4095L12.9371 54.5217L12.4091 56.1058L12.145 57.162L11.815 59.1422L11.617 61.0563H11.551L11.485 60.5283L11.221 60.5943L11.1549 60.3303L10.8249 60.2643L10.0988 60.0662L10.0328 60.1983L9.83482 60.0662V59.9342L9.50478 59.8682L8.44868 59.4722L8.05264 59.1422L7.6566 58.6801L7.06254 57.69L6.27046 55.7758L5.61039 53.7956L4.55429 50.4953L4.48828 49.9672L6.07244 49.6372L8.58069 49.1752L9.04274 49.0431L9.76881 48.9771L10.2969 48.8451L11.683 48.7131L12.013 48.6471L12.7391 48.5811L14.2573 48.5151H15.8414L16.8975 47.459Z" fill="#A1BB65"/>
<path d="M52.1437 56.3027L52.2757 56.3687L52.2097 56.4347L53.0018 56.3027L52.8698 56.4347L52.3418 56.6988H52.2097V63.1014L53.0678 62.9694L54.85 62.2433L56.8302 61.4512L57.6883 61.1212L58.0183 60.9232H58.2163L58.3484 61.1872V71.9463L58.2823 72.0123H52.9358L52.4738 71.9463L52.4078 68.58L52.2757 65.0816L52.0777 62.7054L52.0117 59.9991V56.7648L52.1437 56.3027Z" fill="#AACA5B"/>
<path d="M52.4754 45.8086H58.2839L58.35 45.8746V50.4291L58.2839 53.7954L58.0199 53.8614V53.9934L56.1057 54.6535L53.9935 55.5116L52.4094 56.3036L52.2773 56.2376L52.3434 54.3895L52.4094 45.8746L52.4754 45.8086Z" fill="#AACA5B"/>
<path d="M69.6378 45.7422L74.6543 45.8082L75.3144 45.8742L75.4464 53.399V56.6993L75.1824 56.6333L74.8523 56.3032L74.3903 56.0392L73.9283 55.8412L72.9382 55.3131L71.09 54.4551L69.9019 54.059L69.1758 53.927V53.861H69.5718L69.6378 45.7422Z" fill="#AACA5B"/>
<path d="M70.4945 4.35547H70.9566L71.1546 4.55349H70.8245L70.9566 4.75151L70.8245 4.88352L70.6265 5.80761L70.1645 6.33567L69.6364 6.73171L69.4384 7.12775L69.1084 7.39177L68.7783 7.72181L68.1843 8.11785L67.3922 8.44788L67.0622 8.84392L66.6001 8.97593L66.1381 9.23996L66.0061 9.702L65.808 9.76801H65.61L65.412 10.2961V10.6921L65.28 10.6261L65.214 10.9561L64.7519 11.0881L64.6859 11.4182L64.5539 11.3522L64.4219 11.5502L64.4879 11.6822L65.016 11.8142V11.9462L64.2239 11.8802L62.4417 11.6162L61.3196 11.4842L57.0292 11.3522L56.0391 11.1541L56.2371 10.9561L56.7651 10.6261H57.0292V10.4941L57.9533 9.96603L60.4615 8.7119L62.4417 7.85382L66.7321 5.87362L68.8443 4.88352L70.1645 4.42148L70.4945 4.35547Z" fill="#A1C078"/>
<path d="M53.7266 107.395L54.7827 107.923L55.9048 108.517L56.1028 108.583L56.2348 108.979L56.6969 109.441L56.8949 110.035L57.4229 110.497L57.753 110.761L58.083 111.091L58.479 111.289L59.2051 111.685L59.8652 112.081L60.3272 112.279L60.9873 112.609L62.1754 113.269L64.1556 114.259L65.0797 114.655L65.8058 114.919L66.9279 115.249L67.852 115.447L69.3701 115.645L70.4262 115.975L70.9543 116.503L70.8883 116.701L71.0863 116.767L70.8883 116.965L70.3602 117.23L70.1622 117.296L69.9642 117.494L69.7662 117.428V117.56H69.6342L69.7662 117.956L70.0302 118.022L69.7662 118.154L69.3701 118.22V118.352L68.578 118.55L67.3899 118.616L67.0599 118.484L66.8619 117.89L66.6639 117.692V117.494L66.9939 117.362L66.9279 116.899L66.7299 116.503L66.5318 116.305L64.0236 115.051L62.7695 114.391L62.2414 114.127L60.9213 113.335L59.6012 112.609L58.7431 112.081L58.281 111.817L58.017 111.685V111.553L57.621 111.421L57.0929 111.091L56.5648 110.827L55.9708 110.497L55.3107 110.035L54.7167 109.573L54.0566 108.979L53.8586 108.649L53.9246 107.725H53.7926L53.7266 107.395Z" fill="#09AFDE"/>
<path d="M73.5972 104.225L73.7292 104.423L73.8612 104.687V106.865L73.7292 108.845L73.3992 111.023L73.0032 112.805L72.5411 114.456L72.1451 115.578L72.0131 115.71H71.485L69.7028 115.248L68.0527 114.654L66.7985 114.192L64.6203 113.268L63.1022 112.541L60.4619 111.155L59.6038 110.627L58.2177 109.835L57.5576 109.439L56.1055 108.713L56.3035 108.647L56.8315 108.845L57.4916 108.977L58.5477 109.307L60.1319 109.769L61.188 110.165L61.65 110.297L62.8381 110.825L63.3002 111.023L64.2243 111.485L64.8183 111.749L64.5543 111.419L64.4883 111.155L64.8183 111.089L64.9504 110.957L65.2804 111.155L65.6104 111.419L66.0065 111.551L66.4685 111.947L66.7985 112.079L67.2606 112.343L67.4586 112.541L67.7886 112.739L68.1847 113.003V113.136L68.4487 113.202L68.7127 113.334L69.1088 113.4L69.3728 113.532L69.6368 113.598V113.73H69.9008V113.928L70.4949 114.126L70.6929 114.522L70.957 114.786L71.419 114.984L71.551 115.05L72.0791 114.786L72.4091 114.126L72.6731 113.334L73.0692 111.617L73.3992 109.901L73.5972 108.581L73.6632 107.393V104.951L73.4652 104.555L73.5312 104.291L73.5972 104.225Z" fill="#A1C078"/>
<path d="M66.0057 6.40234L66.0717 6.60036L65.4116 7.06241L65.0816 7.26043L64.6855 7.52446L64.4875 7.9205L64.2895 8.05251L64.2235 8.64657L64.0255 9.17462L63.8274 9.50465L63.5634 9.90069L63.4314 10.6928L63.6294 11.0888L64.1575 11.3528V11.4849L63.6954 11.5509L63.4314 11.4188L63.2994 11.4849L62.9694 11.4188L62.7053 11.4849H61.2532L56.9628 11.3528L55.9727 11.1548L56.1707 10.9568L56.6987 10.6268L56.8307 10.6928L56.6987 10.8248L57.0288 10.6928L57.3588 10.3627L57.8208 10.0987L58.2829 9.90069L59.405 9.30663L60.3951 8.84459L61.5832 8.31654L62.3093 8.05251L63.2334 7.59046L63.9595 7.26043L65.6096 6.53436L66.0057 6.40234Z" fill="#A1BB66"/>
<path d="M5.74219 53.9941L5.8742 54.1262L6.20423 54.9182L6.40225 55.1163V55.3803L6.60027 55.5123V55.6443L6.8643 55.7763L7.32635 56.3044V56.1724L7.72239 56.3044L8.05242 56.4364L8.11843 56.3704L8.58047 56.4364L8.9105 56.5684L8.8445 56.8984H9.24054L9.63658 57.1625L9.8346 57.3605L10.2306 57.4265V57.6245L10.6927 57.6905L10.9567 57.5585L11.3527 57.6245L11.6828 57.4925V57.6245L11.8148 57.6905L11.8808 58.0205L11.8148 58.4166V59.1427L11.6168 61.0568H11.5508L11.4848 60.5288L11.2207 60.5948L11.1547 60.3308L10.8247 60.2648L10.0986 60.0667L10.0326 60.1988L9.8346 60.0667V59.9347L9.50456 59.8687L8.44846 59.4727L8.05242 59.1427L7.65638 58.6806L7.06232 57.6905L6.27024 55.7763L5.74219 54.1922V53.9941Z" fill="#AACA5B"/>
<path d="M63.3649 1.32031H66.0711L67.1272 1.51833L68.1833 1.91437L69.0414 2.37642L69.2395 2.64044L69.1734 2.83846H69.0414L68.9754 3.10249L68.3814 3.56454L67.7873 3.89457L66.9292 4.1586L66.4672 4.42262L65.4771 4.75266L64.421 5.28071L64.0909 5.41272H63.8929V5.54473L62.8368 5.94077L61.2527 6.60084L60.3286 6.99688L59.2725 7.52493L57.8203 8.31701V8.11899L58.3484 7.72295L59.4045 7.1949L59.8665 6.86487L61.0546 6.33681L62.1107 5.80876L62.9028 5.34671L63.6949 4.95068L63.8929 4.75266L65.147 4.1586L65.8731 3.76256L66.4672 3.36652L67.0612 2.90447L67.3913 2.50843L67.4573 2.04639L66.9292 1.71635L66.3352 1.58434L65.3451 1.51833H63.5629L62.1767 1.58434L61.5827 1.65035L61.2527 1.51833V1.45233L63.3649 1.32031Z" fill="#09B0DF"/>
<path d="M114.588 54.6543L114.654 54.8523L114.126 55.9084L113.466 57.3606L112.872 58.4167L112.41 58.7467H112.212L112.146 59.0107L111.948 59.3408L111.618 59.5388L111.354 59.6048L111.156 60.0008L111.09 60.3309H110.628L110.694 60.0668L110.43 60.1328L110.628 59.8688V59.4728L110.826 59.2088L110.892 58.8127L111.222 58.7467L111.288 58.4827L111.222 57.7566L110.958 57.6906L111.024 57.5586H111.354L111.486 56.9645L111.684 57.0305L111.552 56.7005V56.3045L111.75 56.1724L111.684 55.9084L112.146 55.7764L112.212 55.5124L113.4 55.3144L113.73 55.1823L113.796 55.4464L114.126 55.1163L114.522 54.7863L114.588 54.6543Z" fill="#AACA5B"/>
<path d="M58.2831 50.4297H58.3492V53.796L59.0092 53.664L61.2534 53.466L62.6396 53.4H65.2138L67.128 53.532L68.7782 53.73L69.1742 53.796V53.928H69.6363L70.7584 54.2581L71.9465 54.7861L73.5967 55.5782L74.1247 55.9082L74.5868 56.1063L74.9828 56.3703L75.2468 56.6343L75.4449 56.7003V55.5782H75.5109L75.5769 56.6343L75.9069 57.5584V63.103L75.7749 63.235L75.5769 62.9049V60.0006L75.6429 57.5584L75.3789 57.2284L75.0488 56.8983L74.0587 56.1723L73.1346 55.6442L71.8805 54.9841L70.9564 54.5881L70.1643 54.3901L69.2402 54.1261L67.128 53.796L66.0059 53.664H61.9135L60.6594 53.73L59.1412 53.928L58.6132 54.0601L57.9531 54.3241L55.9069 55.1162L54.2567 55.8422L53.3327 56.3043L53.0026 56.5023L52.5406 56.7003H52.4086V56.5683L52.8046 56.3703L52.4086 56.5023L52.1445 56.4363L52.6726 56.1063L53.7287 55.5782L55.1148 54.9841L57.029 54.2581L57.8211 53.994H58.0191V53.862L58.2171 53.73L58.2831 50.4297Z" fill="#A1BC66"/>
<path d="M38.8125 47.0625H38.8785L38.9445 82.442L41.1887 82.376L57.9544 82.31H79.9346L80.0006 78.5476H80.0666V82.508H46.6013L42.5089 82.5741H38.8125V47.0625Z" fill="#A1BE70"/>
<path d="M61.8503 60.0664H65.6787L67.9889 60.2644L69.5071 60.5285L70.2991 60.8585L72.2133 61.7826L73.2034 62.3106L74.1275 62.7727L73.9295 62.8387L72.8734 62.3106L71.7513 61.7826L70.7612 61.3865L70.1671 61.1225L69.6391 60.9245L69.309 60.7925L67.7909 60.5285L65.8107 60.3304H62.3123L60.8602 60.3964L59.4741 60.5945L58.748 60.7925L58.418 60.9245L58.2859 61.1885L58.2199 60.9245L57.0318 61.4525L54.9856 62.2446L53.5995 62.8387L52.8074 63.1027L52.6094 63.0367L54.1935 62.3766L56.8338 61.2545L58.616 60.5285L59.6061 60.2644L60.7942 60.1324L61.8503 60.0664Z" fill="#2D97C4"/>
<path d="M58.9442 0H63.4987L66.0069 0.19802L68.0532 0.594059L70.0334 1.12211L71.6835 1.71617L71.8155 1.84818L70.6934 1.78218L70.4294 1.65017L69.8353 1.51815L69.5053 1.32013L68.7792 1.45215H68.1852L67.3271 1.12211V0.990099L66.997 0.858086L66.601 0.594059L66.073 0.462046L64.0268 0.330033L63.8287 0.264026L60.3964 0.19802H59.0763L57.6901 0.264026H56.832V0.19802L58.9442 0Z" fill="#0EB0DE"/>
<path d="M52.1437 56.3027L52.2757 56.3687L52.2097 56.4347L53.0018 56.3027L52.8698 56.4347L52.3418 56.6988H52.2097V63.1014L53.0678 62.9694L54.85 62.2433L56.8302 61.4512L57.6883 61.1212L58.0183 60.9232H58.2163L58.3484 61.1872V70.2961H58.2823L58.2163 61.3852L58.0843 61.2532L57.3583 61.5833L57.1602 61.7153H56.9622V61.8473H56.8302V61.9793L56.0381 62.3093L55.4441 62.5074L54.718 62.7714L54.2559 62.9694L53.5959 63.1674L52.6058 63.3654H52.3418V65.0816H52.2757L52.0777 62.7054L52.0117 59.9991V56.7648L52.1437 56.3027Z" fill="#A0BB66"/>
<path d="M69.1758 53.9258H69.6378L70.7599 54.2558L71.9481 54.7839L73.5982 55.5759L74.1263 55.906L74.5883 56.104L74.9844 56.368L75.2484 56.6321L75.4464 56.6981V55.5759H75.5124L75.5784 56.6321L75.9085 57.5561V63.1007L75.7764 63.2327L75.5784 62.9027V59.9984L75.6444 57.5561L75.3804 57.2261L75.0504 56.8961L74.0603 56.17L73.1362 55.642L71.8821 54.9819L70.2979 54.3218L69.1758 53.9918V53.9258Z" fill="#A1BB66"/>
<path d="M25.2139 33.0039H27.7221L29.4383 33.1359L31.2865 33.3999L32.4746 33.664L33.2007 33.928V44.8851L32.4746 44.7531L29.9663 44.225L28.5802 44.027L27.7881 43.961H25.4119L24.1578 44.093H23.7617V44.027L25.0158 43.829L26.27 43.763H27.1941L28.8442 43.895L31.2205 44.291L32.9366 44.6871L33.0686 44.7531V34.126L32.3426 33.862L30.8904 33.532L29.6363 33.3339L28.6462 33.2019L27.6561 33.1359L25.2139 33.0699V33.0039Z" fill="#A1BC6A"/>
<path d="M69.8984 61.0547L70.3605 61.1207L71.0205 61.4507L72.0767 61.8468L73.1988 62.4408L73.8588 62.7049L72.0767 61.7808L71.4166 61.4507L71.6146 61.3847L73.8588 62.5068L75.113 63.1669L75.641 63.4309L75.773 63.1669L75.905 63.1009V63.695H75.311V65.0151H75.245L75.179 63.695L74.4529 63.4309L73.3968 62.9689L71.8786 62.1108L70.7565 61.5167L69.8984 61.1207V61.0547Z" fill="#9EBA68"/>
<path d="M90.625 32.0117L90.8231 32.0777L90.229 32.3418L89.6349 32.5398H89.3049V32.6718L88.9749 32.6058L88.3148 32.6718V43.4309H88.6448L88.4468 43.5629L88.0508 43.6949V40.7246L88.1168 33.6619L88.1828 32.5398L88.7108 32.4738L88.7769 32.1437L89.0409 32.4078L89.6349 32.3418L90.625 32.0117Z" fill="#A1BB66"/>
<path d="M14.0589 36.0391L14.1909 36.1051L13.5309 36.5671L12.9368 36.8971L12.2107 37.3592L11.6827 37.7552L10.7586 38.4813L10.4946 38.6793H10.3626L10.2305 38.9434L10.0325 39.2734H9.83451L9.7685 39.4714H9.63649V39.6034L9.30645 39.8014L9.04243 39.9335V40.0655H8.91041L8.84441 40.2635H8.71239V40.3955L8.38236 40.7255H8.25035L8.18434 40.9896H8.05233V41.1216L7.59028 41.3856L7.19424 42.0457H6.99622L6.86421 42.3097L6.66619 42.6397L6.33616 43.0358H6.20414L6.07213 43.3658L5.61008 43.7618H5.47807L5.34606 44.0259L5.21404 44.2239H5.08203L5.21404 43.9599L6.07213 42.8377L6.86421 41.9137L7.7883 40.9236L8.71239 39.9995L9.24045 39.5374L10.0325 38.8113L10.7586 38.2173L11.6167 37.5572L13.0028 36.6331L14.0589 36.0391Z" fill="#A1BB68"/>
<path d="M38.8125 81.4531L38.9445 81.5851V82.4432L41.1887 82.3772H59.5386V82.4432L46.6013 82.5092L42.5089 82.5752H38.8125V81.4531Z" fill="#A1C078"/>
<path d="M71.1523 4.55273L71.4824 4.68475L72.0764 5.14679L72.5385 5.74085L72.8685 6.33491L73.1325 7.78706L73.3306 9.10719L73.5286 11.5494V15.6418L73.3966 15.5758V12.2095L73.1985 9.96528L72.7365 6.92897L72.4725 6.07089L72.0104 5.34481L71.3504 4.75075L71.1523 4.55273Z" fill="#A2C179"/>
<path d="M58.0191 53.9258H58.3492L58.2171 54.0578L56.501 54.7179L55.7749 55.0479L54.9168 55.3779L53.8607 55.906L52.8046 56.368L52.4086 56.5L52.1445 56.434L52.6726 56.104L53.7287 55.5759L55.1148 54.9819L57.029 54.2558L58.0191 53.9258Z" fill="#2896C8"/>
<path d="M73.5956 104.225L73.7276 104.423L73.8596 104.687V106.865L73.7276 108.845L73.3975 111.023L73.0015 112.805L72.7375 113.796H72.6055L72.7375 112.937L73.1995 111.023L73.5296 109.109L73.6616 107.393V104.951L73.4636 104.555L73.5296 104.291L73.5956 104.225Z" fill="#A2C179"/>
<path d="M65.0821 6.66602H65.2141V6.79803L64.026 7.32608L63.0359 7.78813L62.3758 8.11816L61.5177 8.44819L60.4616 8.91024L59.4055 9.43829L58.1514 10.0984L57.6893 10.2964L57.3593 10.4944H57.2273L57.0953 10.7584L56.8972 10.8904L56.6992 10.8244L56.8972 10.6264H57.0293V10.4944L57.9533 9.96635L60.4616 8.71222L62.4418 7.85413L64.884 6.73202L65.0821 6.66602Z" fill="#A2C179"/>
<path d="M80.0018 78.5469H80.0678V82.5073H73.2031V82.3753L79.9358 82.3093L80.0018 78.5469Z" fill="#A1BF74"/>
<path d="M69.1758 53.9258H69.6378L70.7599 54.2558L71.9481 54.7839L73.5982 55.5759L74.3243 56.038L74.9184 56.5L75.1824 56.8301L75.1164 56.9621L74.2583 56.302L73.4002 55.774L71.8821 54.9819L70.2979 54.3218L69.1758 53.9918V53.9258Z" fill="#2896C8"/>
<path d="M52.2773 63.498H52.4754L52.6074 63.8281H52.7394L52.8054 64.2901V65.6103L52.7394 66.0723H52.6074L52.5414 67.1284H52.4754L52.2773 64.0261V63.498Z" fill="#C7D75A"/>
<path d="M11.5508 83.3008L11.8808 83.4328L12.8709 84.0269L14.3231 84.8189L15.9732 85.611L17.5574 86.2051L20.0656 86.9972L20.7917 87.1952L20.5277 87.2612L18.6135 86.7331L16.6333 86.0731L15.1151 85.413L13.531 84.6209L12.0128 83.6968L11.5508 83.3668V83.3008Z" fill="#A1BC67"/>
<path d="M113.993 78.2832L114.125 78.3492L112.408 80.0654L111.88 80.5274L110.89 81.3195L109.57 82.2436L108.25 83.1017L106.798 83.8938L105.874 84.3558L105.676 84.2898L106.732 83.7618L108.25 82.9037L110.032 81.7155L110.956 81.0555L111.682 80.4614L112.672 79.6033L113.993 78.2832Z" fill="#A4C063"/>
<path d="M64.8828 53.4648H66.401L68.7772 53.7289L69.1732 53.7949V53.9929L69.5693 54.0589L70.6254 54.3889L70.7574 54.5209L70.1633 54.3889L69.2392 54.1249L67.127 53.7949L66.0049 53.6629L64.8828 53.5969V53.4648Z" fill="#8AB578"/>
<path d="M52.1437 56.3027L52.2757 56.3687L52.2097 56.4347L53.0018 56.3027L52.8698 56.4347L52.3418 56.6988H52.2097V61.3192L52.2757 63.1014L52.4078 63.2334L52.2097 63.2994L52.0777 62.7054L52.0117 59.9991V56.7648L52.1437 56.3027Z" fill="#9FBC6A"/>
<path d="M58.0207 54.0605H58.1527L58.0867 54.2586L56.1065 55.0506L54.9844 55.5127L53.6643 56.1068L53.2022 56.4368L52.5422 56.7008H52.4102V56.5688L53.0042 56.3708V56.2388L54.5224 55.5127L55.0504 55.2487L55.9085 54.9186L57.1626 54.3906L58.0207 54.0605Z" fill="#A3BF63"/>
<path d="M25.2109 33.0039H27.7192L29.4354 33.1359L31.2835 33.3999L32.4717 33.664L33.1977 33.928V34.5881H33.1317L33.0657 34.126L32.3397 33.862L30.8875 33.532L29.6334 33.3339L28.6433 33.2019L27.6532 33.1359L25.2109 33.0699V33.0039Z" fill="#A1BD6E"/>
<path d="M38.8121 41.6504H40.7923L46.4029 41.7164L47.921 41.7824V42.5085H47.855L47.789 41.9804L47.723 41.9144L45.8088 41.8484L38.7461 41.7824L38.8121 41.6504Z" fill="#A1BD6C"/>
<path d="M58.9442 0L64.2248 0.132013L65.4129 0.264026V0.330033H64.0268L63.8287 0.264026L60.3964 0.19802H59.0763L57.6901 0.264026H56.832V0.19802L58.9442 0Z" fill="#09B0DF"/>
<path d="M88.1168 40.1328H88.1828L88.3148 41.849V43.4331H88.6448L88.4468 43.5652L88.0508 43.6972V40.7269L88.1168 40.1328Z" fill="#A1C076"/>
<path d="M75.7105 59.4707H75.9086V63.1011L75.7765 63.2331L75.7105 63.1671L75.6445 61.979V60.4608L75.7105 59.4707Z" fill="#A2C179"/>
<path d="M69.7031 65.082H69.7691L69.8351 70.9566L69.9011 71.8807L71.8813 71.9467V72.0127H69.7031V65.082Z" fill="#A1BD6D"/>
<path d="M109.504 36.4355L109.834 36.5676L111.022 37.4917L111.748 38.0857L112.54 38.8118L113.2 39.4058L113.86 40.0659L114.322 40.594L114.454 40.858L113.992 40.4619L113.002 39.4058L112.21 38.6798L111.484 38.0197L110.296 37.0956L109.504 36.5016V36.4355Z" fill="#A1BB66"/>
<path d="M62.6408 53.3984H65.2151V53.4644H64.8851V53.5965H61.4527L61.3867 53.4644L62.6408 53.3984Z" fill="#A3BF65"/>
<path d="M75.4459 55.5781H75.5119L75.5779 56.6342L75.71 57.2283H75.5779L75.5119 57.3603L75.1159 57.0303L75.0499 56.7662L74.9179 56.5022L74.6539 56.3702L74.2578 56.0402H74.4558L74.9839 56.3702L75.2479 56.6342L75.4459 56.7002V55.5781Z" fill="#A1BB66"/>
<path d="M109.372 82.1777L109.504 82.2437L108.778 82.7718L107.656 83.4319L106.138 84.2239L105.874 84.356L105.676 84.2899L106.732 83.7619L108.25 82.9038L109.372 82.1777Z" fill="#A5C362"/>
<path d="M30.0312 44.0918L31.5494 44.3558L32.9355 44.6859L33.0676 44.7519L33.1336 44.0918H33.1996V44.8839L32.4735 44.7519L30.0312 44.2238V44.0918Z" fill="#A1BC6A"/>
<path d="M67.5234 53.6621H68.3815L69.1736 53.7941V53.9921L69.5696 54.0581L70.6257 54.3882L70.7578 54.5202L70.1637 54.3882L69.2396 54.1242L68.7116 53.9921V53.8601L67.9855 53.7941L67.5234 53.7281V53.6621Z" fill="#7DB182"/>
<path d="M59.4055 9.24023V9.43825L58.1514 10.0983L57.6893 10.2963L57.3593 10.4944H57.2273L57.0953 10.7584L56.8972 10.8904L56.6992 10.8244L56.8972 10.6264H57.0293V10.4944L57.9533 9.96631L59.4055 9.24023Z" fill="#A2C179"/>
<path d="M14.059 36.0391L14.191 36.1051L13.531 36.5671L12.9369 36.8971L12.2108 37.3592L11.6828 37.7552L11.5508 37.6892L12.0788 37.2272L13.333 36.4351L14.059 36.0391Z" fill="#A1BB67"/>
<path d="M47.7922 68.7129H47.8582V71.6172L47.7262 71.6832L47.6602 71.1551V70.3631L47.7262 69.967V68.9109L47.7922 68.7129Z" fill="#C8D85A"/>
<path d="M90.6258 32.0117L90.8239 32.0777L90.2298 32.3418L89.6357 32.5398H89.3057V32.6718L88.9757 32.6058L88.7116 32.6718H88.2496L88.1836 32.5398L88.7116 32.4738L88.7777 32.1437L89.0417 32.4078L89.6357 32.3418L90.6258 32.0117Z" fill="#A1BC6A"/>
<path d="M58.9442 0L60.5284 0.0660066L60.3964 0.19802H59.0763L57.6901 0.264026H56.832V0.19802L58.9442 0Z" fill="#2BB1C8"/>
<path d="M55.1176 61.9805H55.3156V62.1125L53.5995 62.8386L52.8074 63.1026L52.6094 63.0366L54.1935 62.3765L55.1176 61.9805Z" fill="#2896C8"/>
<path d="M31.418 33.4668L32.144 33.5988L33.0681 33.8628L33.2001 33.9288V34.5889H33.1341L33.0681 34.1269L32.3421 33.8628L31.55 33.6648V33.5328L31.418 33.4668Z" fill="#A1BD6C"/>
<path d="M79.9984 78.5469H80.0644V82.5073L79.7344 82.4413L79.9324 82.3093L79.9984 78.5469Z" fill="#A1BB67"/>
<path d="M54.2583 55.6445H54.3904V55.7765L53.3342 56.3046L53.0042 56.5026L52.5422 56.7006H52.4102V56.5686L53.0042 56.3706V56.2386L54.2583 55.6445Z" fill="#A3BE63"/>
<path d="M11.5508 83.3008L11.8808 83.4328L12.8709 84.0269L13.795 84.5549V84.7529L12.5409 84.0269L11.5508 83.3668V83.3008Z" fill="#A1BC69"/>
<path d="M104.16 46.0723L104.49 46.1383L105.414 47.1284L105.744 47.5904L105.678 47.7224L104.886 46.7983L104.16 46.1383V46.0723Z" fill="#57A5A6"/>
<path d="M75.5781 57.2285H75.7761L75.9082 57.5585V58.7467H75.7761L75.6441 57.5585L75.5781 57.2285Z" fill="#85B687"/>
<path d="M67.3917 53.5977H67.7878L67.9858 53.7297L68.7119 53.8617V53.9937L67.4577 53.8617L66.9297 53.7297V53.6637L67.3917 53.5977Z" fill="#A4C162"/>
<path d="M55.9088 54.918H56.0408V55.05L54.5226 55.71L54.3906 55.644L54.5886 55.446L55.4467 55.116L55.9088 54.918Z" fill="#A2BD64"/>
<path d="M75.7105 57.8867H75.7765L75.8426 58.7448V59.4709H75.7105L75.6445 59.2069V57.9527L75.7105 57.8867Z" fill="#A1BD6E"/>
<path d="M29.9023 33.2676H30.4304L31.2885 33.3996L31.5525 33.5976L30.8924 33.5316L29.9023 33.3336V33.2676Z" fill="#A1BC69"/>
<path d="M71.9455 105.148L72.0775 105.214L71.5495 105.544L70.8234 105.941L70.6914 105.875L71.2195 105.544L71.9455 105.148Z" fill="#A1BF74"/>
<path d="M61.2534 53.4648L61.9135 53.5969V53.6629L60.5273 53.7289L60.5934 53.5309L61.2534 53.4648Z" fill="#A3BF63"/>
<path d="M71.9492 14.6543L72.4773 14.9183L73.2033 15.4464L73.1373 15.5784L71.9492 14.7863V14.6543Z" fill="#51A3A9"/>
<path d="M57.5573 10.1641H57.6893L57.6233 10.3621L57.2273 10.4941L57.0953 10.7581L56.8972 10.8901L56.6992 10.8241L56.8972 10.6261H57.0293V10.4941L57.5573 10.1641Z" fill="#CEDEB9"/>
<path d="M52.148 56.3027L52.2801 56.3687L52.214 56.4347L53.0061 56.3027L52.8741 56.4347L52.214 56.7648H52.082V56.3687L52.148 56.3027Z" fill="#9AB96B"/>
<path d="M74.4557 103.234L74.5878 103.3L74.0597 103.828L73.7297 104.224L73.5977 104.092L74.4557 103.234Z" fill="#A1BC6A"/>
<path d="M14.0569 36.0391L14.1889 36.1051L13.5289 36.5671L13.1328 36.6331L13.3308 36.4351L14.0569 36.0391Z" fill="#A1BD6E"/>
<path d="M53.2022 56.2383L53.3342 56.3043L53.0042 56.5023L52.5422 56.7003H52.4102V56.5683L53.2022 56.2383Z" fill="#ABCB5B"/>
<path d="M65.9406 9.10938H66.0726V9.57142L65.9406 9.76944H65.8086V9.24139L65.9406 9.10938Z" fill="#A1BD6F"/>
<path d="M32.741 33.7949L33.203 33.9269V34.587H33.137L33.071 34.125L32.543 33.9269L32.741 33.7949Z" fill="#A1BF72"/>
<path d="M75.707 59.4707H75.9051V59.9327L75.839 60.1308H75.707V59.4707Z" fill="#47A1B3"/>
<path d="M44.9488 32.541L45.0808 32.805L45.1468 33.4651H44.8828V33.3331H45.0148L44.9488 33.0031V32.541Z" fill="#3E9DB9"/>
<path d="M47.7922 67.5254H47.8582V68.5155L47.7262 68.3835L47.6602 67.7894L47.7922 67.5254Z" fill="#C8D85A"/>
<path d="M13.0042 36.6348L13.2682 36.7008L12.6082 37.0968L12.4102 37.0308L13.0042 36.6348Z" fill="#A1BC6A"/>
</svg>
