<svg width="300" height="80" viewBox="0 0 300 80" fill="none" xmlns="http://www.w3.org/2000/svg">
<path d="M49.1205 0L60.8932 0.405951L74.6957 2.02976L77.1314 2.84166L76.3195 12.9904L74.6957 23.5452L73.8838 25.5749L70.2302 26.7928L65.7647 28.4166L60.0813 30.0404L72.6659 30.4463L72.2599 33.288L69.8242 40.5951L68.6064 42.6249L64.1409 44.2487L52.3682 47.9022L50.7443 48.3082V49.1201L55.6158 48.7141H65.3587L63.7349 51.9618L59.2694 57.6451L54.8039 61.7046L49.5265 64.9522L43.8431 67.3879L36.13 69.4176L34.5062 69.8236H21.9216L14.6144 68.6058H11.7727V76.3188L11.3667 76.7248H2.43573V58.051L10.9608 51.5558L18.6739 45.8725L25.5751 40.5951L31.2585 36.5356L35.724 33.288L37.3478 32.4761V31.6642L23.9513 38.5654L10.9608 45.0606L3.24764 48.7141H1.62382L0 40.5951V33.288L1.62382 26.7928L3.65359 21.9214L7.71314 15.8321L11.7727 11.3666L17.862 6.90117L23.9513 4.05951L30.8526 2.02976L41.0014 0.405951L49.1205 0Z" fill="#C09F2A"/>
<path d="M203.382 13.8027H208.66L214.343 15.0206L219.214 17.0503L221.65 18.6741L222.056 20.7039L219.62 28.011L217.185 27.1991L210.689 23.9515L209.471 23.5456H204.6L202.57 24.7634L201.758 25.9813L202.164 28.8229L204.194 29.6348L213.937 32.8824L217.997 35.3181L220.026 37.3479L222.056 40.5955L222.462 42.2193V46.6848L221.244 50.7443L218.808 53.9919L215.561 56.4276L211.501 58.0514L209.471 58.4574H202.57L196.075 56.8336L190.392 53.9919L187.956 51.9621V51.1502H187.144L186.738 58.0514H159.945L159.539 57.2395V15.0206L168.47 14.6146L170.094 15.0206L170.5 16.2384V47.9026L186.738 48.3086L187.55 50.3383L189.58 42.6253L189.986 41.8134L191.609 42.6253L197.293 46.6848L201.352 48.3086L206.63 48.7145L209.471 47.9026L210.689 46.2788L209.877 43.8431L207.848 42.2193L198.105 38.9717L194.045 36.536L191.204 33.2884L189.986 30.4467V23.9515L192.421 19.0801L196.075 16.2384L199.323 14.6146L203.382 13.8027Z" fill="#095B57"/>
<path d="M92.1521 14.6133H105.143L111.232 15.8311L115.292 17.8609L117.727 19.8906L120.163 23.9502L120.975 26.7918L121.381 30.8513L120.569 34.9108L118.945 38.1584L116.103 41.0001L114.074 42.218L114.48 43.8418L120.163 54.8024L120.975 56.8322V58.0501H109.202L103.925 46.6834L103.113 45.0596L101.489 44.6537H97.8355L97.4295 45.0596L97.0236 58.0501H86.4688V15.0192L92.1521 14.6133Z" fill="#095B57"/>
<path d="M124.223 14.6133H156.293V23.9502L155.887 24.3561H135.183V31.2573H148.986V40.5942L146.55 41.0001H135.183V47.0894L135.589 47.9013L156.293 48.3072V57.6441L155.887 58.0501L124.629 57.6441L124.223 57.2382V14.6133Z" fill="#095B57"/>
<path d="M280.918 13.8027H286.196L293.097 15.4265L298.78 18.2682L299.998 19.0801L298.78 23.1396L297.156 28.011L295.127 27.6051L291.067 25.1694L286.602 23.5456H281.73L279.7 25.1694L279.294 27.1991V28.417L280.918 29.2289L292.285 33.2884L296.75 36.13L298.78 38.9717L299.998 42.6253V47.0907L297.968 52.3681L295.127 55.2098L290.255 57.6455L287.007 58.4574H280.106L273.611 56.8336L267.928 53.9919L265.086 51.5562L265.492 47.9026L267.116 42.6253L267.522 41.8134L269.551 42.6253L272.799 45.4669L277.671 47.9026L282.136 48.7145L286.196 48.3086L288.225 46.2788L287.413 43.8431L285.384 42.2193L278.888 40.1896L272.393 37.3479L268.74 33.6943L267.522 30.8527L267.116 25.9813L268.334 21.5158L270.769 18.2682L274.017 15.8325L278.482 14.2087L280.918 13.8027Z" fill="#095B57"/>
<path d="M225.711 14.209H236.266L236.672 41.4077L237.89 45.0613L240.325 47.091L242.761 47.9029L246.009 47.497L248.444 46.2791L250.068 43.4375L250.474 41.8137L250.88 14.6149L251.286 14.209H261.435L261.841 14.6149V37.7542L261.435 43.8434L259.811 49.1208L257.375 52.3684L254.128 55.21L248.85 57.6458L247.227 58.0517H240.325L236.266 56.8339L232.612 54.8041L229.77 52.3684L226.929 47.9029L225.711 43.4375V14.209Z" fill="#095B57"/>
<path d="M97.4294 24.3574H105.143L108.39 25.5753L110.42 27.605L110.826 30.8526L109.608 32.8824L107.578 34.5062L105.954 34.9122H97.4294L97.0234 34.5062V24.7634L97.4294 24.3574Z" fill="#FEFEFD"/>
<path d="M204.197 67.793H209.068L211.91 70.2287L212.722 73.0703L211.91 76.3179L209.068 78.7537L207.85 79.1596H205.009L202.167 77.1298L200.949 74.6941V71.4465L202.573 69.0108L204.197 67.793Z" fill="#095B57"/>
<path d="M275.645 67.793H279.299L281.329 69.0108L282.953 71.0406L283.359 74.2882L282.141 76.7239L279.705 78.7537L276.051 79.1596L273.21 77.5358L271.586 74.2882V71.4465L273.21 69.0108L275.645 67.793Z" fill="#095B57"/>
<path d="M259.403 67.793H263.057L265.087 69.0108L266.71 71.0406L267.116 74.2882L265.899 76.7239L263.463 78.7537L259.809 79.1596L256.968 77.5358L255.344 74.6941V71.8525L256.968 69.0108L259.403 67.793Z" fill="#095B57"/>
<path d="M243.165 67.793H246.819L248.848 69.0108L250.472 71.0406L250.878 75.1001L249.254 77.5358L246.413 79.1596H243.571L241.135 77.5358L239.511 75.506L239.105 72.2584L240.729 69.0108L243.165 67.793Z" fill="#095B57"/>
<path d="M103.517 67.793H107.982L110.418 69.4168L110.824 70.2287L111.23 75.912L109.2 77.9417L106.765 79.1596L103.517 78.7537L100.675 76.3179L99.8633 73.8822L100.269 71.0406L102.705 68.1989L103.517 67.793Z" fill="#095B57"/>
<path d="M154.263 67.793H158.729L160.759 69.0108L161.976 71.0406V75.912L159.947 77.9417L157.511 79.1596L154.263 78.7537L151.828 76.7239L151.016 74.6941V71.0406L152.639 68.6049L154.263 67.793Z" fill="#095B57"/>
<path d="M287.82 67.793H293.504L296.345 69.0108L297.969 71.4465V75.1001L296.345 77.5358L294.722 78.7537L288.226 79.1596L287.82 78.7537V67.793Z" fill="#095B57"/>
<path d="M217.187 67.793H223.277L225.306 69.0108L226.118 70.2287V73.0703L224.9 74.6941L225.306 76.7239L226.118 77.9417V79.1596L224.088 78.7537L222.059 75.506H220.029L219.623 78.7537L217.593 79.1596L216.781 77.1298V68.1989L217.187 67.793Z" fill="#095B57"/>
<path d="M90.5283 67.3887L94.1819 68.6065L95.3998 70.6363L94.9938 71.8541H93.37L92.964 70.2303L89.7164 69.8244L89.3104 71.0422L93.37 72.666L95.3998 74.6958V77.1315L93.7759 78.7553L92.5581 79.1613H89.7164L87.2807 77.9434L86.4688 76.7255V75.1017L88.4985 73.4779L86.4688 71.8541L86.8747 69.4184L88.9045 67.7946L90.5283 67.3887Z" fill="#095B57"/>
<path d="M136.402 67.793H138.432L141.274 71.4465L143.304 74.2882L143.71 67.793H145.739L146.145 68.1989V79.1596L144.115 78.7537L140.056 74.2882L138.838 72.6644V78.7537L138.432 79.1596H136.402V67.793Z" fill="#095B57"/>
<path d="M167.254 67.793H174.967L175.373 69.8227L174.967 70.6346L172.125 70.2287L169.689 70.6346V72.2584H173.343L173.749 73.8822L172.937 74.6941L169.283 74.2882L170.095 76.3179H174.967L175.373 76.7239V78.7537L171.719 79.1596H167.66L166.848 77.1298V68.1989L167.254 67.793Z" fill="#095B57"/>
<path d="M123.816 67.793H131.529V70.2287L130.311 70.6346L128.282 70.2287L125.846 70.6346L126.252 71.8525L129.499 72.2584L129.905 74.2882L127.47 74.6941L125.846 74.2882V76.3179H131.123L131.529 76.7239V78.7537L129.499 79.1596H123.816L123.41 78.3477V68.1989L123.816 67.793Z" fill="#095B57"/>
<path d="M188.363 67.793H196.482L196.076 70.2287H192.423L190.799 71.0406L191.205 71.8525L194.858 72.2584V74.2882L192.017 74.6941H191.205L190.799 75.506L190.393 79.1596H187.957V68.1989L188.363 67.793Z" fill="#095B57"/>
<path d="M104.331 70.2305H107.578L110.42 72.6662L110.014 74.6959L107.172 76.7257H104.331L102.707 75.1019L102.301 72.2602L104.331 70.2305Z" fill="#FEFEFD"/>
<path d="M155.077 70.2305H157.919L159.948 71.4483L161.166 72.6662V74.29L157.513 76.7257H155.077L153.453 74.6959V72.2602L155.077 70.2305Z" fill="#FEFEFD"/>
<path d="M276.049 70.2305H278.891L280.515 71.4483L280.921 74.29L280.109 75.9138L278.485 76.7257H276.049L274.425 75.1019L274.02 72.2602L276.049 70.2305Z" fill="#FEFEFD"/>
<path d="M259.811 70.2305H262.653L264.277 71.8543L264.682 73.884L263.465 75.9138L262.247 76.7257H259.811L257.781 74.6959V72.2602L259.811 70.2305Z" fill="#FEFEFD"/>
<path d="M205.413 70.2305H208.254L209.878 71.8543V75.1019L207.848 76.7257H205.413L203.789 75.1019L203.383 72.2602L205.413 70.2305Z" fill="#FEFEFD"/>
<path d="M243.573 70.2305H246.414L248.85 71.4483L250.068 72.6662V73.4781H245.197V74.29L246.82 75.1019L246.008 76.7257H243.573L241.543 74.29L241.949 71.4483L243.573 70.2305Z" fill="#FEFEFD"/>
<path d="M291.07 70.2305H293.505L295.129 71.0424L295.535 71.8543V75.1019L293.099 76.7257H291.07L290.258 75.9138V71.0424L291.07 70.2305Z" fill="#FEFEFD"/>
<path d="M116.105 67.793H118.135L118.541 68.1989V79.1596H116.511L116.105 78.7537V67.793Z" fill="#095B57"/>
<path d="M220.839 69.416L223.274 70.2279L223.68 72.2577L223.274 73.0696H220.433L219.215 72.2577L219.621 70.2279L220.839 69.416Z" fill="#FEFEFD"/>
<path d="M88.902 73.8828L92.5556 75.1007V76.3185L90.5259 77.1304L88.4961 75.9126L88.902 73.8828Z" fill="#FEFEFD"/>
</svg>
