<svg width="300" height="90" viewBox="0 0 300 90" fill="none" xmlns="http://www.w3.org/2000/svg">
<path d="M41.3993 20.7949H45.7472L48.7717 21.173L51.6073 21.9291L53.8757 22.8743L57.8455 25.1428L60.492 27.2222L62.1933 28.9235L64.0837 31.57L65.785 34.7836L67.1082 38.3753L67.8644 41.5889L68.2425 45.3696L68.0534 48.0161L67.1082 51.9859L65.0288 57.468L64.4617 59.7364L63.5166 61.6268L61.8152 63.1391L60.681 63.8952L60.492 64.0842V66.3527L59.3578 68.6211L57.8455 69.9444L56.5222 70.7005H56.1441V73.536L55.0099 75.2374L54.2538 76.1826L52.3634 77.5058L51.4182 78.0729L49.5279 81.6646L46.8814 85.8234L45.3691 88.2809L44.6129 89.4151L44.0458 89.7932L41.0212 88.2809L39.509 86.9576L38.3747 84.8782L37.9967 82.2317L37.2405 81.4756L36.1063 80.7194L35.1611 79.7742L34.2159 78.451L34.0269 77.8839L33.8379 75.4264L31.5694 73.7251L30.2462 72.2128L29.8681 71.0786L29.6791 68.9992L28.7339 68.054L27.2216 66.9198L25.5203 64.2733L25.3312 63.7062V60.8706L24.008 58.2241L22.1176 54.6324L20.9834 51.7969L20.0382 48.2052L19.6602 45.5587V43.6683L20.6053 38.7534L21.9286 34.9726L23.4409 32.1371L25.7093 29.1125L28.3558 26.466L30.8133 24.5756L33.8379 22.8743L36.8625 21.7401L40.0761 20.984L41.3993 20.7949Z" fill="#2975CB"/>
<path d="M41.9668 23.6309H44.4243L48.016 24.0089L48.5831 24.576L45.9366 28.7348L43.8572 32.1375L41.5888 35.7292L38.7532 40.4551L37.0519 43.1016L35.5396 45.37V45.7481L37.9971 46.8823L39.8874 47.2604H41.7778L44.4243 46.5043L46.5037 44.992L48.7721 42.9126L50.0954 40.8332L51.0406 39.1318L51.7967 39.5099L54.0651 43.2906L57.8459 49.7179L59.3582 52.1753L61.6266 56.3341L62.0047 57.2793V58.7916L61.2485 60.1149L60.4924 60.4929L60.1143 61.2491H59.5472L56.3336 56.3341L53.12 50.8521L50.8515 47.2604L50.0954 46.3152H48.5831L47.827 46.5043L48.205 47.6385L52.1748 54.2547L54.0651 57.4684L55.7665 60.3039L57.2788 63.3285L57.6568 64.2737V65.786L56.9007 67.2982L55.7665 68.8105L54.8213 67.8654L53.309 65.2188L51.0406 61.6272L49.3392 58.7916L47.827 56.3341L47.2598 55.9561L45.7476 56.1451L44.9914 56.7122L47.6379 60.871L49.9063 64.6517L52.9309 69.7557L53.498 71.268V73.1584L51.7967 75.2378H51.4186L49.7173 72.5913L48.7721 72.0242L47.2598 70.8899L47.0708 68.6215L45.1804 65.4079L43.101 64.2737L42.912 64.0846V62.0052L42.1559 60.1149L40.6436 58.4135L38.9422 57.4684L38.7532 57.2793L38.5642 54.8218L37.619 52.9315L36.6738 51.7973L33.4602 50.0959L32.515 49.9069L30.6247 52.5534L28.5453 55.9561L27.411 58.0355H26.8439L24.9536 55.0109L23.6303 51.9863L22.8742 49.1508L22.4961 46.1262V43.2906L23.0632 39.6989L24.1974 36.2963L25.7097 33.4607L27.7891 30.8142L30.2466 28.3568L32.7041 26.6554L35.5396 25.1431L39.3203 24.0089L41.9668 23.6309Z" fill="#FEFFFE"/>
<path d="M124.763 24.0078H139.886L140.075 24.764L139.697 25.3311L139.13 25.5201L134.782 25.7091L135.538 28.7337L138.185 35.9171L141.209 43.6676L143.289 48.9606L145.557 54.6317L146.124 56.333L146.691 55.7659L148.771 50.4729L150.85 45.3689L153.119 39.6978L155.576 33.4596L157.277 28.1666L157.467 26.2762L153.119 25.5201L152.174 24.953L152.363 24.0078H165.028L164.839 24.953L164.461 25.3311L162.381 25.7091L161.625 26.0872L159.924 29.6789L157.845 34.5938L154.631 42.5334L151.228 50.851L147.07 61.437L146.124 63.8945L145.557 64.2725H144.045L143.1 63.3274L140.453 56.144L137.618 49.1496L134.404 41.0211L128.733 26.8434L127.977 25.8982L126.843 25.5201L124.952 25.142L124.574 24.764L124.763 24.0078Z" fill="#2875CB"/>
<path d="M51.421 24.9531L53.5004 25.7093L55.9579 27.0325L58.2263 28.7339L59.3605 29.679L61.0618 31.7584L62.3851 33.6488L64.0864 37.2405L64.8426 39.698L65.2206 41.7774L65.4097 43.8568V46.6923L64.8426 50.284L63.8974 53.3086L63.5193 53.8757H63.1412L60.8728 49.9059L53.5004 37.6186L52.5552 36.6734L51.232 36.2953L49.7197 36.8624L48.5855 38.1857L47.4512 40.2651L46.128 41.9664L44.2376 43.4787L42.1582 44.4239L41.213 44.6129H39.5117L39.8898 43.4787L41.9692 40.2651L46.5061 32.7036L51.232 25.1422L51.421 24.9531Z" fill="#FEFFFE"/>
<path d="M181.285 35.3496L182.042 35.7277L182.987 37.618L184.877 42.344L187.335 47.826L189.414 52.7409L191.871 58.412L193.573 61.6257L196.219 62.9489V63.327H185.444V62.5708L189.225 62.0037L187.146 56.1436L186.389 54.6313V54.2532L174.669 54.0642L174.102 55.7655L172.212 60.4914L171.645 61.8147L175.236 62.3818L175.614 62.5708V63.327H166.352V62.7599L167.297 62.3818L168.62 62.0037L169.376 61.0585L171.456 57.0888L174.102 50.8506L176.749 44.9905L180.34 36.6729L181.285 35.3496Z" fill="#2975CB"/>
<path d="M247.259 35.7285H253.687L255.01 37.0518L256.9 39.5092L259.358 42.7229L262.004 45.9365L264.084 48.583L266.163 51.0405L267.486 52.7418L269.566 55.1993L271.267 57.2787L272.779 59.169L273.157 59.3581V54.065L272.968 37.6189L270.889 37.0518L269.377 36.4847L268.999 35.7285H279.017L278.828 36.6737L277.316 37.0518L275.048 37.4298V64.084L272.779 63.5168L271.645 62.7607L269.755 60.8703L268.053 58.7909L265.974 56.3335L261.815 51.0405L259.736 48.583L258.223 46.6926L255.766 43.668L254.065 41.5886L252.93 40.2654V39.8873H252.552L252.741 58.6019L252.93 62.0046L255.766 62.3826L256.333 62.5717V63.3278L250.473 63.5168H247.637L247.07 63.1388L247.448 62.3826L250.662 62.0046L250.851 54.065V42.5338L250.662 38.186L250.095 37.6189L248.583 37.0518L247.259 36.4847V35.7285Z" fill="#2A75CB"/>
<path d="M222.117 35.7285H244.045L243.856 37.4298L243.1 41.7777L242.911 41.9667H241.966V38.9421L241.777 38.186L240.076 37.8079L237.807 37.6189H230.624V48.2049H239.509L239.698 48.0159L240.076 44.9913L240.832 44.6132L241.021 44.8023V53.876L240.076 54.065L239.887 53.876L239.698 50.4733L237.807 50.2843L230.435 50.0953V61.8155H239.698L242.155 61.4375L242.722 59.9252L243.478 57.2787L243.856 56.9006H244.612L244.423 59.5471L244.045 63.1388L243.856 63.3278L242.155 63.5168H223.819L222.873 63.1388L223.062 62.5717L224.953 62.1936L226.276 62.0046V39.1312L226.087 37.6189L224.197 37.0518L222.495 36.4847L222.117 35.7285Z" fill="#2975CB"/>
<path d="M288.281 35.3496H292.44L295.464 35.9167L297.733 36.8619L298.3 37.24L298.111 39.6974L297.733 42.1549H296.598L296.409 41.7768V38.7523L295.842 38.1852L293.952 37.429L292.062 37.0509H288.659L286.58 37.618L285.067 38.7523L284.122 39.8865L283.555 41.7768L283.744 44.2343L284.689 46.1247L286.391 47.0699L289.982 47.637L294.519 48.2041L296.977 48.9602L298.489 49.9054L299.623 51.7958L300.001 52.93V56.3326L299.245 58.223L297.733 60.3024L296.031 61.8147L294.519 62.7599L291.305 63.7051L289.226 64.0831H287.525L282.988 63.327L280.908 62.7599L280.53 62.3818L280.719 59.1682L280.908 56.8997L281.098 56.5217L282.043 56.7107L282.232 59.5463L282.988 60.6805L284.5 61.6257L287.525 62.3818H290.36L292.629 61.8147L294.33 60.8695L295.464 59.9243L296.409 58.6011L296.788 57.4669V54.8203L296.22 53.3081L294.897 52.1738L293.007 51.6067L285.823 50.6615L283.555 49.9054L282.043 48.7712L280.908 47.4479L280.341 45.9356L280.152 45.1795V42.533L280.908 40.2646L282.421 38.1852L283.933 36.8619L285.823 35.9167L288.281 35.3496Z" fill="#2975CB"/>
<path d="M197.923 35.7285H209.644V36.4847L209.077 36.8627L205.674 37.2408V61.6265H214.181L217.961 61.2484L218.717 59.169L219.474 56.5225H220.419L220.23 59.9252L219.852 62.7607L219.663 63.1388L219.095 63.3278L216.638 63.5168H200.003L199.625 63.1388L201.515 61.2484L201.704 56.9006V40.4544L201.515 37.4298L200.381 37.0518L197.923 36.6737L197.734 35.9176L197.923 35.7285Z" fill="#2A75CB"/>
<path d="M103.025 5.48242H103.781V85.2557H102.836V10.2083L103.025 5.48242Z" fill="#4E89CB"/>
<path d="M109.641 5.67188H110.586V85.6342H109.83L109.641 79.7741V5.67188Z" fill="#DCB64D"/>
<path d="M180.53 40.6426L181.097 41.2097L184.121 48.5821L185.445 51.7957V52.5519H175.426L177.316 47.826L179.963 41.5878L180.53 40.6426Z" fill="#FEFFFE"/>
<path d="M46.3131 55.7656L47.6363 55.9547L48.3925 56.8998L50.8499 61.0586L53.1184 64.6503L55.3868 68.4311L55.5758 68.9982L56.332 68.8091L56.7101 67.8639L57.6552 67.1078L58.6004 66.7297L59.1675 65.7845L59.7346 66.3517L59.9237 67.6749L58.7895 69.1872L57.8443 69.9433L56.521 70.6995H56.143V71.0776L55.1978 71.2666L54.8197 72.2118L54.0636 72.0227L53.3074 71.2666L52.3622 68.9982L50.0938 65.2174L46.8802 59.9244L44.8008 56.7108L45.3679 56.1437L46.3131 55.7656Z" fill="#2A75CB"/>
<path d="M33.4571 52.9297L34.5913 53.3078L35.7255 54.8201L35.9145 55.1981V57.0885L34.4023 60.1131L32.3229 63.5157L30.9996 65.5951L30.4325 65.9732L28.7312 64.6499L28.1641 62.9486L28.5421 61.0582L30.0544 58.2227L31.9448 55.3872L33.268 53.1187L33.4571 52.9297Z" fill="#FEFFFE"/>
<path d="M46.3141 73.5352L47.6373 74.2913L48.3935 75.6146V78.072L47.0702 80.5295L44.9908 83.9322L43.4785 86.2006L42.5334 86.5787L41.0211 85.0664L40.832 84.4993V82.6089L41.7772 80.3405L43.6676 77.3159L45.747 74.1023L46.3141 73.5352Z" fill="#FEFFFE"/>
<path d="M41.9634 66.7305L43.0976 67.1085L44.0428 68.0537L44.4208 69.1879L44.2318 71.0783L42.3414 74.67L40.6401 77.3165L39.3168 79.2069L38.5607 79.5849L37.4265 78.6398L36.8594 77.5055V75.2371L38.7497 71.6454L41.0182 68.0537L41.9634 66.7305Z" fill="#FEFFFE"/>
<path d="M37.8086 59.7344L39.1319 60.4905L40.0771 62.1918V63.8932L38.1867 67.4849L35.1621 72.2108L34.406 72.7779L33.2718 71.8327L32.5156 70.3204V68.6191L34.0279 65.5945L35.9183 62.5699L37.6196 59.9234L37.8086 59.7344Z" fill="#FEFFFE"/>
<path d="M230.246 37.8086H230.435L230.624 48.2056H239.509L239.698 48.0166L240.076 44.992L240.832 44.6139L241.021 44.8029V53.8767L240.076 54.0657L239.887 53.8767L239.698 50.474L237.808 50.285L230.435 50.096L230.246 48.3946V37.8086Z" fill="#2C77CB"/>
<path d="M30.8114 13.8008L32.3237 13.9898L33.6469 15.124L34.2141 16.4473L34.025 17.7705L32.8908 19.0938L31.0004 19.4719L29.6772 18.9048L28.732 17.7705L28.543 17.3925V15.6911L29.2991 14.5569L30.8114 13.8008Z" fill="#DCB64D"/>
<path d="M25.8958 3.78125H27.2191L28.7313 4.72643L29.4875 6.04969V7.37294L28.7313 8.50716L27.5971 9.2633H25.7068L24.5726 8.50716L23.8164 6.99487L24.0054 5.48258L25.1397 4.15932L25.8958 3.78125Z" fill="#DCB64D"/>
<path d="M73.3474 13.4219H75.0487L76.1829 14.178L76.9391 15.1232L77.1281 16.8245L76.372 18.1478L75.2378 18.9039H73.7255L72.5912 18.3368L71.8351 17.3916L71.457 16.6355L71.6461 15.1232L72.4022 13.989L73.3474 13.4219Z" fill="#DCB64D"/>
<path d="M84.1208 45.1797H85.8222L86.9564 45.9358L87.7125 47.0701L87.9016 48.5823L87.1454 49.9056L86.2002 50.6617L84.6879 50.8508L83.5537 50.2837L82.7976 49.3385L82.2305 48.0152L82.4195 46.881L83.7428 45.3687L84.1208 45.1797Z" fill="#DCB64D"/>
<path d="M82.6122 27.9785L84.3135 28.1676L85.2587 28.9237L86.0148 30.436V31.7592L84.8806 33.0825L83.9354 33.4606H82.6122L81.0999 32.7044L80.3438 31.1921L80.5328 29.6798L81.2889 28.5456L82.6122 27.9785Z" fill="#DCB64D"/>
<path d="M59.7372 3.4043L61.4385 3.59333L62.5727 4.53851L63.1398 5.4837V7.18502L62.1947 8.1302L61.0604 8.88635H59.7372L58.603 8.31924L57.6578 7.18502L57.4688 6.80695V5.4837L58.2249 4.34948L59.1701 3.59333L59.7372 3.4043Z" fill="#DCB64D"/>
<path d="M14.1771 32.1387L15.8784 32.3277L17.2016 33.4619L17.7687 34.5961L17.5797 35.9194L16.8236 37.0536L15.8784 37.6207H14.1771L12.6648 36.6755L12.0977 35.3523L12.2867 33.84L13.0428 32.7058L14.1771 32.1387Z" fill="#DCB64D"/>
<path d="M72.0247 31.5684L73.726 31.7574L75.0493 32.8916L75.6164 34.0258L75.4274 35.3491L74.1041 36.8614L73.726 37.0504H72.0247L71.0795 36.4833L70.1343 35.3491L69.9453 34.971V33.4587L70.7015 32.3245L72.0247 31.5684Z" fill="#DCB64D"/>
<path d="M11.7232 14.1777H13.6136L14.7478 14.9339L15.504 15.8791L15.693 16.2571V17.5804L14.7478 18.9036L13.6136 19.4708H12.1013L10.9671 18.9036L10.2109 17.7694V15.69L10.778 14.7448L11.7232 14.1777Z" fill="#DCB64D"/>
<path d="M73.1599 44.0469H74.8612L75.9954 44.803L76.7516 45.9372L76.9406 47.4495L75.6174 48.9618L74.8612 49.3399H73.1599L72.2147 48.7728L71.4586 47.8276L71.2695 46.5043L71.8366 44.9921L72.5928 44.2359L73.1599 44.0469Z" fill="#DCB64D"/>
<path d="M1.70133 46.125H3.40265L4.53687 46.6921L5.29301 47.4483L5.67109 49.1496L4.91494 50.4728L3.96976 51.229L2.45747 51.418L1.13422 50.8509L0.189036 49.7167L0 49.3386V47.8263L0.945181 46.5031L1.70133 46.125Z" fill="#DCB64D"/>
<path d="M3.40208 28.9238H4.91437L6.42666 30.058L6.99377 31.1923V32.5155L6.23762 33.6497L5.10341 34.4059H3.59112L2.4569 33.6497L1.70075 32.7046L1.51172 31.1923L2.07883 30.058L3.40208 28.9238Z" fill="#DCB64D"/>
<path d="M20.4153 21.3613L22.1167 21.5504L23.2509 22.4955L23.818 23.6298V25.1421L22.8728 26.2763L21.5496 26.8434L19.8482 26.4653L18.903 25.8982L18.3359 24.5749L18.525 22.8736L19.4702 21.7394L20.4153 21.3613Z" fill="#DCB64D"/>
<path d="M42.7224 11.1523H44.0456L45.1799 11.7195L45.936 12.6646L46.125 13.0427V14.9331L44.8018 16.4454L44.4237 16.6344H42.9114L41.7772 15.8783L40.832 14.744V13.0427L41.5882 11.9085L42.1553 11.3414L42.7224 11.1523Z" fill="#DCB64D"/>
<path d="M42.7239 0H44.0472L45.1814 0.756145L45.9375 1.89036L46.1266 3.40265L45.5595 4.53687L44.6143 5.29302L44.2362 5.48205H42.7239L41.4007 4.72591L40.8336 3.96976L40.6445 2.26844L41.2116 1.13422L42.3459 0.189036L42.7239 0Z" fill="#DCB64D"/>
<path d="M13.0442 44.6133L14.7456 44.8023L16.0688 45.9365L16.6359 47.0708L16.4469 48.394L15.5017 49.5282L14.5565 50.0953H13.2333L12.0991 49.5282L11.3429 48.583L10.9648 47.6379L11.1539 46.5036L11.91 45.3694L13.0442 44.6133Z" fill="#DCB64D"/>
<path d="M55.388 13.6113H56.5222L57.8455 14.3675L58.6016 15.5017L58.7906 17.203L58.0345 18.1482L56.5222 19.0934H55.199L54.0647 18.3372L53.3086 17.014V15.5017L54.0647 14.3675L55.388 13.6113Z" fill="#DCB64D"/>
<path d="M65.595 20.9824L67.2963 21.1715L68.2415 21.7386L68.9977 23.0618V24.5741L67.8635 25.8974L66.7292 26.2754H65.406L64.4608 25.7083L63.7047 24.5741L63.5156 23.2509L64.0827 21.9276L64.8389 21.1715L65.595 20.9824Z" fill="#DCB64D"/>
<path d="M230.246 37.8086H230.435L230.624 48.2056L238.564 48.3946V48.5837L235.539 48.7727L235.728 49.1508L235.539 49.5288L234.783 49.9069V50.096H230.435L230.246 48.3946V37.8086Z" fill="#4F8ACB"/>
<path d="M46.507 67.6758L47.0741 68.2429L47.2631 68.621L47.4522 70.8894L48.7754 71.8346L49.7206 72.4017L51.0438 74.2921L51.4219 75.2372L51.989 75.0482L51.8 75.6153H51.2329V75.2372L50.4767 74.8592L48.7754 73.5359L48.2083 73.1578V72.7798L47.6412 72.5907V72.0236L47.0741 71.8346H46.507L46.1289 70.7004L46.3179 69.1881L46.507 67.6758Z" fill="#4F8ACB"/>
<path d="M56.7162 62.0039H57.0943L58.2285 64.4614V65.0285L59.1737 65.2175V64.8395L59.9299 64.4614L60.3079 64.0833L60.497 66.3517L60.1189 67.2969L59.7408 66.9188L59.3628 65.9737L58.6066 66.9188L57.0943 67.675L56.3382 68.8092L55.582 68.9982L56.9053 66.9188L57.4724 65.7846V64.2723L56.7162 62.382V62.0039Z" fill="#4F8ACB"/>
<path d="M55.198 71.0762H55.9541L56.1432 71.4542V73.5336L55.5761 74.2898L55.009 73.5336L54.6309 73.1556L52.9296 74.4788L51.9844 75.0459L52.3624 74.2898L53.3076 73.1556L53.4967 71.2652L54.4418 72.0214L55.198 71.0762Z" fill="#4F8ACB"/>
<path d="M185.444 51.9863L185.633 52.7425L178.639 52.9315L178.828 53.4986L177.504 54.0657H176.559V53.8767L175.047 53.6877L175.425 52.5534H185.444V51.9863Z" fill="#4F8ACB"/>
<path d="M274.859 51.041H275.048V62.9503H274.859L274.481 60.4928L273.914 58.7915V57.2792L274.103 56.7121H274.67L274.859 51.041Z" fill="#4F8ACB"/>
<path d="M32.3242 68.8086H32.5133L32.8913 70.888L34.0255 72.4003L34.5927 72.5893L35.3488 71.8332L35.1598 72.9674H34.7817L34.5927 73.5345H34.2146L33.0804 72.2112L32.3242 71.6441V68.8086Z" fill="#4F8ACB"/>
<path d="M41.4012 75.8027L41.5903 76.1808L40.6451 78.6383L39.889 79.5835L39.1328 79.3944L40.4561 77.315L41.4012 75.8027Z" fill="#4F8ACB"/>
<path d="M37.9961 81.8535L38.7522 82.2316L38.9413 84.122V85.0671L38.5632 85.2562L38.1851 84.122L37.9961 81.8535Z" fill="#4F8ACB"/>
<path d="M39.3218 44.4238H41.9684L41.2122 45.18L40.8341 45.369H39.1328L39.3218 44.4238Z" fill="#4F8ACB"/>
<path d="M41.4007 80.3398H41.7787L41.2116 82.0412L40.8336 84.3096H40.6445V80.907L40.8336 80.5289L41.4007 80.3398Z" fill="#4F8ACB"/>
<path d="M43.8552 71.457H44.0442V72.5912L42.721 74.6706L41.9648 75.2378L42.3429 74.2926L43.8552 71.457Z" fill="#4D89CB"/>
<path d="M43.667 23.252L46.6916 23.441L47.6368 23.8191V24.0081L44.4231 23.8191L42.3438 23.63V23.441L43.667 23.252Z" fill="#4F8ACB"/>
<path d="M36.6758 75.2363H36.8648L37.0539 77.5048L37.81 78.828L38.3771 79.3951L37.4319 79.2061V78.828L36.8648 78.639L36.6758 78.2609V75.2363Z" fill="#4F8ACB"/>
<path d="M144.992 53.6855L145.37 54.0636L146.126 55.954L145.937 56.3321L145.181 55.954L144.992 55.5759V53.6855Z" fill="#4F8ACB"/>
<path d="M34.0312 75.8027H34.2203L34.7874 78.2602L34.9764 79.0164L34.4093 78.8273L34.0312 77.8821V75.8027Z" fill="#4F8ACB"/>
</svg>
