<svg width="245" height="100" viewBox="0 0 245 100" fill="none" xmlns="http://www.w3.org/2000/svg">
<path d="M5.78906 90.5382C6.1292 90.2952 6.46934 90.0522 8.46672 89.0039C10.4641 87.9555 14.1084 86.109 17.0062 84.8663C19.904 83.6235 21.9449 83.0404 23.4335 82.5214C27.0935 81.2453 27.8229 80.0867 28.5606 79.3504C29.0038 78.6127 29.687 77.0534 30.3283 75.8408C30.4277 75.6678 30.4763 75.522 30.6736 75.2246" stroke="#DB0E27" stroke-linecap="round"/>
<path d="M67.1909 9.25977C65.636 10.9119 64.1547 12.3946 60.7673 14.9552C58.1157 16.9597 53.3469 20.0912 50.603 21.9133C46.4475 24.6728 45.696 24.965 44.9848 25.381C44.7153 25.5525 44.3266 25.7955 44.0535 25.9449C43.7803 26.0944 43.6346 26.143 43.4844 26.193" stroke="#DB0E27" stroke-linecap="round"/>
<path d="M35.8626 26.1777H43.1925L43.4543 26.4395V29.8427L46.8574 32.984L52.093 38.2196L53.1401 39.7903L53.4019 44.2406L54.7108 46.3348L54.9726 48.429L54.1872 50.2615L53.4019 50.7851L53.1401 51.5704L52.8783 62.5652L51.0459 66.7537L49.9988 68.8479L47.6427 71.2039L45.8103 73.2982L42.6689 75.916L37.1715 78.5338L29.8417 79.0573L29.3181 78.7955L29.0563 77.7484V73.5599L28.271 71.9893L25.6532 69.6332L24.6061 68.0626L23.2972 62.5652L22.7736 61.2563L22.2501 58.1149L21.9883 54.9735V48.429L22.2501 43.717L23.0354 40.5756L25.1296 36.3872L29.0563 32.1987L31.6741 29.5809L33.7684 27.7484L35.0773 26.4395L35.8626 26.1777Z" fill="#BC96E2"/>
<path d="M208.114 22.252H210.732V22.7755L208.899 23.2991L207.067 24.608L206.805 25.6551V49.4771L207.067 64.9221L208.899 65.7075V66.7546H199.213V65.1839L200.784 64.3986L201.046 34.8174L198.166 35.341L196.857 37.9588L195.287 43.4561L194.239 46.8593L193.192 49.7389L192.669 51.5713L191.883 53.9273L190.051 62.5661L189.266 66.4928H187.957L187.171 64.1368L185.601 57.5923L182.198 45.8122L180.365 40.3148L179.58 39.0059L178.271 35.341L177.747 34.5556L177.485 36.1263L178.271 36.3881V36.9116H177.747L177.224 38.7441L179.318 39.0059L178.794 39.5294L176.7 39.7912L176.962 59.4247V64.9221L178.009 65.1839L178.271 66.7546L173.821 66.4928L173.035 66.231V64.9221L174.868 64.3986H176.177L175.915 63.6132L175.653 32.1996L174.868 24.8698L174.606 23.2991L172.773 22.7755V22.5137H181.412L182.198 23.0373L184.815 32.9849L186.91 40.5766L188.218 45.0268L189.527 49.7389L189.789 50.0006L191.622 50.2624L191.883 50.5242L193.454 46.3357L193.978 43.9797L194.763 41.8855L196.334 35.8645L197.119 34.0321L198.428 32.9849L201.046 32.4614V31.9378L198.69 32.4614L198.166 31.9378L199.475 23.0373L199.737 22.7755L208.114 22.252Z" fill="#050306"/>
<path d="M151.046 21.4668H156.02L159.947 22.5139L163.088 24.0846H163.873L164.397 22.5139H164.921L165.182 23.561L165.444 32.7233L164.921 32.9851L164.397 32.7233L163.873 30.3673L162.826 28.2731L160.47 25.6553L159.423 24.8699V24.3464L157.853 24.0846L157.067 23.561L155.758 23.2993H153.14L151.046 23.8228L148.952 25.1317L147.12 27.4877L145.811 30.1055L145.025 33.7705L144.24 42.671V46.3359L144.763 53.1422L145.549 59.1631L146.596 62.0427L147.643 63.6134L149.737 65.4459L152.093 66.493H156.282L158.114 65.4459L158.376 64.137V54.7129L158.114 51.0479L157.853 50.0008L157.067 49.4773L165.444 49.2155L161.779 48.9537H156.02L155.758 48.4301H168.062L167.8 49.2155L166.753 49.4773V50.0008H165.968L165.444 52.6186L164.921 64.9223L162.303 66.2312L158.638 67.8019L156.544 68.5872L155.235 68.849H151.57L148.952 68.0637L146.596 66.7548L145.287 65.9694V65.4459L144.24 64.9223L141.884 62.3045L139.79 58.9014L138.743 56.8071L137.434 49.2155L137.172 45.2888L138.219 36.65L139.266 32.4616L140.837 29.3202L141.884 27.7495L144.24 24.8699L145.811 23.561L147.905 22.2521L149.214 21.7286L151.046 21.4668Z" fill="#060407"/>
<path d="M229.581 21.2051L230.105 21.4669V21.9904L230.89 22.514L232.723 29.582L235.341 37.4354L236.126 40.5768L237.435 45.0271L239.006 50.0009L240.838 56.5454L242.147 61.5192L242.67 64.137L243.456 64.3988L244.503 65.7077L244.765 66.7548L244.503 67.0166H234.555V65.7077L235.602 64.9224L235.341 61.781L233.77 53.6658L233.246 52.6187H225.131L221.99 52.8805L221.204 54.7129L219.896 60.4721L219.372 64.3988L220.681 64.6606L221.728 66.2313V66.7548H215.445L215.707 65.7077L217.278 63.0899L218.063 60.9957L219.11 57.5925L220.419 53.404L220.943 51.3098L221.466 50.7862L221.728 51.048L221.99 50.2627H221.466L221.99 47.9067L222.252 47.6449L222.513 45.5506L223.037 44.5035L223.822 41.1004L224.869 37.6972L225.655 36.9119L225.393 38.4826L228.273 38.7443L227.749 36.3883L226.964 35.603L225.917 35.3412L226.702 32.4616L228.011 28.2731L229.058 23.5611L229.32 21.4669L229.581 21.2051Z" fill="#060407"/>
<path d="M100.263 21.4668H104.714L107.07 22.2521L110.211 24.0846L111.52 24.8699L111.258 22.2521L112.043 21.9904L112.305 27.226V32.7233L111.782 32.4616L110.996 29.8438L109.164 26.7024V26.1788L108.117 25.6553L107.593 24.6082L106.546 24.3464L104.714 23.561H101.049L99.4779 24.6082L98.4308 25.9171L97.9072 27.226L97.6455 29.0584V31.938L98.6926 33.5087V34.294L99.7397 34.8176L100.525 35.6029V36.1265L101.834 36.65L102.357 37.6972L103.666 38.2207V38.7443L104.975 39.2678L105.499 40.315L106.546 40.5767L108.64 42.4092L111.258 45.8123L112.829 48.6919L113.614 52.0951V56.8071L113.09 60.472L110.996 64.3987L109.687 66.2312L107.07 68.0637L104.975 68.849H102.096L100.001 67.8019L96.3366 65.1841L95.5512 64.9223L95.0277 66.2312L93.9805 66.7548L93.7188 65.9694V57.0689L94.5041 57.8542L95.5512 60.2103V60.9956H96.0748L97.9072 63.3516L98.4308 63.6134V64.137L99.4779 64.6605L100.787 65.7076L102.619 66.7548H104.452L106.808 65.4459H107.331L107.855 64.3987L109.164 62.3045L109.687 60.7338V57.8542L108.902 55.4982L108.117 53.9275V53.404H107.593L107.331 52.3568L106.284 51.8333L104.975 50.7862V50.2626L103.928 50.0008V49.4773L102.881 49.2155L99.7397 46.8595L98.4308 45.5506L96.5983 43.4563L94.7659 39.7914L93.9805 35.0794V31.6762L94.5041 28.0113L95.813 24.8699L98.4308 22.2521L100.263 21.4668Z" fill="#060507"/>
<path d="M120.418 23.0371L129.58 23.2989L128.795 25.1314L128.01 25.3931L128.271 56.2832L128.533 64.1366L129.58 65.1837L131.151 66.2308V67.0162H126.962L120.418 66.7544V65.4455L121.727 64.6601L121.989 53.9272V30.8905L121.727 24.8696L120.418 23.2989V23.0371Z" fill="#050305"/>
<path d="M34.2935 40.5762L35.3406 40.838L35.8642 41.3615L36.126 43.194H36.6495L39.0056 47.1207L40.3145 49.2149L40.0527 51.8327L38.482 54.1887L36.9113 57.0683L36.6495 57.8537V58.639L38.482 58.9008L40.838 58.3772L43.4558 57.3301L44.2412 57.0683L44.5029 57.3301V59.4243L43.4558 61.5186L42.1469 62.3039L39.5291 62.8275H33.77L32.1993 62.0421L31.9375 61.7804L32.1993 59.9479L34.0317 56.0212L36.6495 52.3563L36.9113 50.0003L34.5553 45.8118L33.5082 43.194V41.3615L34.2935 40.5762Z" fill="#1C0A33"/>
<path d="M70.4204 0H72.2529L73.8236 1.83246L74.3471 2.09424L74.8707 3.66492L74.6089 7.59162L73.8236 9.42408L72.7764 10.733L71.7293 13.8743L69.8969 14.1361L69.3733 9.42408L67.2791 8.90052H65.7084L65.9702 7.8534L64.923 8.11518L63.8759 8.90052L60.7346 9.68586L59.9492 7.59162L61.2581 6.5445L62.3052 6.02094L63.6141 4.71204L65.7084 3.66492L68.3262 2.09424L70.1586 0.52356L70.4204 0Z" fill="#DA0E27"/>
<path d="M3.40314 86.3867H4.18848L5.2356 90.3134L6.28272 91.6223H10.2094L12.3037 91.0988H14.6597V92.4077L11.5183 95.2872L9.42408 97.1197L8.37696 98.1668L5.75916 98.6904L4.71204 99.7375L4.18848 99.9993H2.6178L2.09424 98.4286L0.78534 98.6904L0 97.3815V93.7166L0.52356 91.0988L1.57068 90.0516L2.35602 88.481L3.14136 86.6485L3.40314 86.3867Z" fill="#DB0E27"/>
<path d="M226.439 39.2676H227.748L229.318 46.3356L230.104 48.4299L230.627 48.9534V49.7388H221.203L221.465 48.1681L222.25 46.3356L223.036 46.5974L222.774 47.121L223.559 47.3828V46.8592L225.13 46.5974L223.297 45.8121L223.559 45.0267L227.224 44.2414L223.036 44.765L222.774 43.7178L224.083 39.7911L225.13 40.0529L225.392 39.5294L226.439 39.2676Z" fill="#F6F3F9"/>
<path d="M35.3406 38.4824H38.482L42.4087 39.2678L43.9794 40.5767L43.7176 42.4091L42.6705 44.2416H41.8851L40.838 42.6709L38.2202 41.6238H36.9113L36.3878 43.1945L35.8642 42.6709L35.3406 41.1002L34.2935 40.8384L33.77 41.362V43.1945L34.8171 45.8123L34.5553 46.3358L32.9846 43.718L32.1993 42.1473L31.9375 40.5767L32.9846 39.2678L35.3406 38.4824Z" fill="#1C0A33"/>
</svg>
