<svg width="222" height="100" viewBox="0 0 222 100" fill="none" xmlns="http://www.w3.org/2000/svg">
<path d="M170.061 0L176.648 0.299401L179.343 0.898204L183.235 1.49701L188.624 2.99401L194.612 5.68862L199.403 8.38323L203.594 11.3772L207.487 14.9701L209.582 17.0659L212.876 21.5569L215.271 25.4491L217.666 30.2395L219.463 34.7305L220.96 39.8204L221.858 44.012V55.6886L220.361 62.5748L217.966 69.7605L214.972 75.7485L211.978 79.9401L208.984 83.8323L205.69 87.1257L199.702 91.6168L194.313 94.6108L188.924 97.006L182.936 98.8024L179.343 99.4012L176.648 100H166.169L158.984 98.2036L153.594 96.4072L147.606 93.7126L143.115 90.7186L139.822 88.3233L138.624 87.7245V86.2275L140.121 84.7305L141.618 85.0299L144.013 87.1257L148.505 90.1198L153.295 92.515L158.684 94.3114L161.678 95.2096L166.469 96.1078H177.247L180.241 95.2096L184.133 94.6108L188.924 93.1138L191.618 91.9162L196.109 89.521L199.702 87.1257L204.792 82.9341H205.391V81.7365L204.193 81.1377L203.894 67.6647H191.618L190.421 72.4551L189.822 74.5509L189.223 79.9401L188.624 81.4371L188.325 81.7365H182.936L182.636 80.2395L183.834 72.1557L185.331 66.4671L188.025 57.7844L191.319 50L195.51 42.2156L197.606 39.2216L200.002 35.9281L202.397 32.9341L204.493 30.5389L205.99 29.0419H206.588L207.187 27.8443L208.984 26.3473H210.181L210.481 27.2455V75.4491L212.576 72.4551L214.972 67.0659L216.469 62.2754L217.966 55.6886L218.265 52.994V47.9042L217.666 43.1138L215.87 35.6287L213.774 30.2395L211.079 25.1497L208.684 21.8563L205.091 17.6647L201.199 14.0719L197.307 11.3772L192.516 8.68263L187.726 6.58683L181.439 4.79042L175.75 3.89222H168.564L161.678 4.79042L154.493 7.18563L148.505 10.1796L143.115 13.7725L135.63 21.2575L133.534 24.2515L133.235 24.8503L132.037 24.2515V23.6527L130.84 23.0539V21.8563L133.235 18.5629L136.528 14.9701L138.924 12.5749L141.319 10.479L147.307 6.58683L154.193 3.29341L161.379 1.1976L167.067 0.299401L170.061 0Z" fill="#0F9057"/>
<path d="M144.612 25.4492L146.408 25.7486L151.199 27.8444L154.492 30.539L158.085 34.1319L160.78 38.0241L162.277 41.0181L165.271 35.9283L167.965 32.6348L171.857 29.042L176.049 26.6468L179.342 25.4492L180.241 25.7486V80.8384L179.941 81.7366H174.253L173.953 80.2396V37.1259L172.157 38.3235L170.061 41.0181L167.666 46.1079L166.468 50.0001L165.271 62.8744L164.971 67.066L164.672 67.3654H159.881L159.582 66.7666L159.283 56.8863L158.085 48.8025L155.989 43.1139L153.893 39.8205L151.199 37.1259L150.899 37.4253V81.1378L150.6 81.7366H144.612L144.312 81.4372V25.7486L144.612 25.4492Z" fill="#0E9056"/>
<path d="M32.9359 45.8086H41.0197L41.3191 46.108L41.6185 71.8565L43.4149 75.1499L45.5107 76.0481L49.7024 75.7487L52.397 74.2517L52.6964 69.4613V45.8086H60.4808L62.2772 47.3056L62.5766 47.9044V80.2397L61.9778 81.7367L60.7802 82.9343H52.397L52.6964 80.5391L52.9958 77.8445L47.9059 81.1379L42.8161 83.2337L41.6185 83.5331H38.6245L35.9299 82.3355L33.8341 80.5391L32.6365 77.8445L31.7383 74.2517V47.9044L32.3371 46.108L32.9359 45.8086Z" fill="#0C8F54"/>
<path d="M98.2022 45.5098H103.591L104.19 46.408L103.891 61.6774H114.669L114.969 45.8092H122.454L123.951 47.0068L124.25 47.6056V82.3361L123.951 82.9349L115.268 83.2343L114.969 82.9349L114.669 67.0667H104.19L103.891 83.2343L95.2082 82.9349L94.6094 82.3361V49.402L95.2082 46.408L95.807 45.8092L98.2022 45.5098Z" fill="#0B8E54"/>
<path d="M0.598802 25.4492L32.9341 25.7486L50 26.048L56.2874 26.3474L58.6826 26.6468V27.8444L57.1856 29.3414L56.5868 30.8384L57.485 32.036V32.9342L54.491 33.5331L46.4072 33.8325L0.898204 34.1319L0 33.5331L0.299401 25.7486L0.598802 25.4492Z" fill="#7CC3A4"/>
<path d="M82.9326 45.5098H89.8188L91.6152 46.408L93.711 48.8032L93.4116 50.3002L88.3218 50.5996L86.8248 51.4978L85.3278 53.893L85.0284 54.7912L84.729 69.4619L83.5314 75.1505L82.3338 77.5457L78.741 81.1385L75.747 82.6355L70.9565 83.8331L66.7649 82.9349L64.6691 82.0367L64.0703 81.1385V79.6415L64.3697 79.3421L68.5613 79.0427L70.9565 77.8451L72.4535 74.8511L73.0523 72.4559L73.3517 57.4858L74.8488 52.6954L76.0464 50.5996L78.741 47.905L82.0344 45.8092L82.9326 45.5098Z" fill="#0A8E53"/>
<path d="M21.5585 45.5098H25.4507L27.8459 46.1086L30.2411 48.2044V50.3002H26.3489L24.2531 50.899L22.4567 53.2942L21.5585 59.5816V67.6655L20.9597 73.3541L19.4627 76.9469L16.7681 79.9409L14.3729 81.7373L11.6783 82.9349L9.28305 83.5337H5.69024L1.79802 82.3361L1.19922 81.4379V79.6415L1.79802 79.3421L5.98964 79.0427L8.38485 76.9469L9.28305 74.2523L9.88185 72.1565V62.2762L10.1813 57.4858L10.7801 55.0906L11.9777 51.7972L14.3729 48.8032L16.7681 47.0068L19.1633 45.8092L21.5585 45.5098Z" fill="#098E53"/>
<path d="M137.426 45.5098L138.324 45.8092V81.7373L137.127 82.9349H129.043V47.905L129.941 46.1086L130.54 45.8092L137.426 45.5098Z" fill="#0C8F55"/>
<path d="M80.8385 25.748H95.5091L99.1019 26.0474L100.3 26.6463L100 28.4427V31.1373L100.3 32.6343L99.4013 33.5325L96.7067 33.8319H80.8385L80.5391 31.4367L80.8385 25.748Z" fill="#7CC3A4"/>
<path d="M203.893 41.6172H204.193V59.2819L203.893 59.5813L194.612 59.8807L194.312 58.3837L197.007 52.3956L199.702 47.6052L202.396 43.4136L203.295 41.9166L203.893 41.6172Z" fill="#FEFEFE"/>
<path d="M111.077 25.748H118.262L119.759 26.3468L120.059 26.6463V32.9337L119.161 33.8319L114.071 34.1313L111.077 33.8319L110.777 33.5325V26.0474L111.077 25.748Z" fill="#7CC3A4"/>
<path d="M127.246 25.748H133.833L134.731 26.6463L135.031 30.2391V33.5325L134.132 33.8319H127.246V25.748Z" fill="#78C2A2"/>
<path d="M208.983 26.3477H210.18L210.48 27.2459V40.1201H209.881L209.581 26.9465L207.186 29.0423L201.797 34.4315V33.5333L204.192 31.1381L205.988 29.0423H206.587L207.186 27.8447L208.983 26.3477Z" fill="#7DC4A5"/>
<path d="M80.8385 25.748H83.5331V26.0474H81.1379L81.4373 26.6463V31.7361L81.1379 32.9337L82.6349 33.5325V33.8319H80.8385L80.5391 31.4367L80.8385 25.748Z" fill="#7DC4A5"/>
<path d="M208.084 27.2461L208.683 27.5455L201.797 34.4317V33.5335L204.192 31.1383L205.988 29.0425H206.587L207.186 27.8449L208.084 27.2461Z" fill="#48AB7F"/>
<path d="M5.38924 31.1387L6.58685 31.7375L7.78445 32.6357V33.2345H5.08984L5.38924 31.1387Z" fill="#7DC4A5"/>
</svg>
