<svg width="300" height="63" viewBox="0 0 300 63" fill="none" xmlns="http://www.w3.org/2000/svg">
<path d="M14.7714 0H66.9146L69.278 0.295429L71.6415 1.034L72.8232 1.62486L73.5618 2.068L74.1526 2.80657L74.7435 3.39743L75.482 4.43143L75.9252 5.76086L76.0729 8.71515V25.9977L75.9252 50.666L75.7775 54.802L75.482 56.5746L74.5957 58.3472L73.414 59.8243L72.6755 60.4152L70.4597 61.4492L68.3917 61.8923L66.6192 62.04L62.04 62.1877H43.1326L22.6003 61.8923L20.0892 61.7446L14.1806 61.5969L12.408 61.1537L10.7831 60.2675L9.15829 58.4949L7.68115 56.2792L5.90857 53.0295L4.57915 49.9275L3.39743 46.9732L1.32943 42.6894L0.590857 41.5077L0 41.0646L3.39743 40.6214L5.76086 40.326L6.204 40.6214L4.28372 41.0646L2.068 41.36L2.95429 43.8712L3.98829 45.496L4.57915 46.2346L5.17 46.8255V45.496L4.72686 45.2006V44.9052L4.43143 44.7575L5.02229 43.428L5.61315 41.9509L5.76086 41.0646L6.49943 40.7692L6.35172 40.326L6.64715 40.1783V39.1443H6.79486V10.6354L6.94257 8.272L7.238 5.90857L7.68115 4.57915L8.12429 3.69286L10.34 1.47714L11.8171 0.443143L13.2943 0.147714L14.7714 0Z" fill="#7EAC4E"/>
<path d="M75.7775 27.0317H75.9252V50.2229L75.7775 54.3589L75.482 56.1315L74.5958 57.904L73.414 59.3812L72.6755 59.972L70.4598 61.006L68.3918 61.4492L66.6192 61.5969L62.04 61.7446H43.1326L22.6003 61.4492L20.0892 61.3015L14.1806 61.1538L12.408 60.7106L10.7831 59.8243L9.15829 58.0518L7.68115 55.836L5.90858 52.5863L4.57915 49.4843L3.39743 46.53L1.32943 42.2463L0.590858 41.0646L0 40.6215L3.39743 40.1783L5.76086 39.8829L6.204 40.1783L4.28372 40.6215L2.068 40.9169L2.95429 43.428L3.98829 45.0529L4.57915 45.7915L5.17 46.3823V45.0529L4.72686 44.7575V44.462L4.43143 44.3143L5.02229 42.9849L5.61315 41.5077L5.76086 40.6215L6.49943 40.326L6.35172 39.8829L6.64715 39.7352V38.7012H6.94258L7.09029 35.0083H7.238L7.53343 38.8489L7.97658 39.7352V40.1783L8.71515 40.326V40.0306L9.74915 40.1783L10.6354 39.4397L10.9309 39.1443V40.0306L10.6354 41.36L10.1923 44.1666L10.0446 46.2346V49.0412H10.34L10.6354 49.4843H11.2263L11.8172 48.1549L12.1126 46.2346L12.408 45.6437L12.9989 45.496V41.9509L13.442 39.292L14.0329 37.5195L15.3623 35.4515L16.3963 34.7129L16.8394 34.5652H18.0212L18.3166 34.8606L18.1689 36.3377L17.7257 37.224L16.6917 38.4057L15.51 40.7692L15.3623 41.36V42.9849L16.2486 43.1326L17.1349 42.6895L18.1689 41.5077L18.612 40.326L18.7597 38.4057L19.0552 37.6672L19.7937 37.8149L20.8277 39.1443L21.1232 39.7352V40.6215L20.3846 42.394L18.7597 44.462L17.1349 45.6437L15.51 46.3823L15.0669 46.53H13.8852L13.5897 47.2686L13.7374 47.8595L14.476 48.1549L15.6577 48.3026L18.0212 47.8595L19.2029 47.2686L19.9414 46.53L20.8277 45.3483L21.1232 44.462L21.4186 42.9849H21.714V42.5417H22.0094L22.1572 41.36L22.3049 41.0646H22.6003V40.6215L23.782 40.7692L23.9297 40.4737L24.6683 40.0306L24.9637 39.292H25.1114V40.1783L24.5206 41.9509L24.3729 42.6895V44.7575L24.816 45.2006L25.1114 45.3483H26.4409L27.3272 44.9052L27.1794 42.6895L27.0317 40.7692V37.224L27.4749 36.19L28.3612 35.0083L30.1337 34.5652H31.7586L32.2017 34.7129L31.9063 35.3037L30.7246 36.19L30.2814 36.7809L29.8383 38.7012L29.6906 41.5077L29.986 42.6895L30.5769 43.8712L30.7246 44.0189H32.4972L33.9743 43.7235L36.3377 42.5417L37.8149 41.5077L38.9966 40.7692L39.7352 40.9169L40.4737 41.36L41.6555 41.6555L43.2803 41.5077L44.1666 40.7692L44.6097 40.326L45.7915 39.8829L47.7117 40.1783H49.3366L51.7 39.5875L52.2909 38.9966L52.4386 37.9626L51.8477 37.6672V33.9743L51.2569 32.6449V32.2017L52.1432 32.9403L54.0635 33.088L54.3589 32.7926L54.2112 33.6789L54.0635 34.2697V37.224L54.6543 38.4057L55.2452 38.7012H56.4269L57.1655 38.4057L58.938 38.1103L60.5629 37.3717L63.2218 36.4855L65.5852 35.8946L66.0283 35.5992L66.7669 33.8266L67.0623 32.3495L68.3918 31.6109L69.1303 31.02L70.4598 30.5769L70.9029 31.3155L70.7552 32.3495L69.7212 35.3037L71.346 35.0083L72.6755 34.2697L73.8572 33.2357H74.8912L75.7775 32.9403V27.0317Z" fill="#9DCF68"/>
<path d="M151.551 15.0669L152.88 15.2146L154.21 15.6578L154.948 15.8055H157.312L161.152 15.6578L163.368 15.8055L165.288 16.2486L167.356 17.2826L168.243 18.0212L168.981 19.3506L169.129 19.9415V21.714L168.686 23.0435L167.947 23.9298L166.765 24.9638L165.731 26.5886L166.47 26.884L168.39 27.918L169.277 28.6566L170.015 30.7246L170.311 32.6449L170.015 33.9743L168.981 35.5992L167.652 36.9286L165.731 38.1103L164.107 38.7012L161.595 39.1443H159.527L157.164 38.7012H155.834L153.471 38.9966H151.994L151.698 38.7012L151.846 38.1103L152.585 37.0763L153.323 36.6332H153.619L153.766 35.7469L153.914 27.3272V16.9872L151.846 15.9532L151.551 15.51V15.0669Z" fill="#1B1918"/>
<path d="M197.341 16.3962H200L201.477 16.8394L203.397 18.1688L204.431 19.0551L205.465 20.68L206.056 21.8617L206.499 23.782L206.647 25.1114V28.0657L206.351 30.7245L205.76 32.7925L204.579 34.8605L203.102 36.19L201.034 37.5194L199.704 37.9625H198.375L196.75 37.5194L195.864 36.9285L194.386 35.5991L193.352 34.5651L192.171 32.6448L191.58 30.7245L191.284 28.8042L191.137 26.1454L191.432 23.3388L191.875 21.8617L193.057 19.646L194.534 18.0211L196.159 16.8394L197.341 16.3962Z" fill="#FCFCFC"/>
<path d="M217.134 15.6577H219.94L222.156 15.8054H237.075L239.291 15.9531L250.369 16.1009L251.699 16.2486L251.846 16.6917L251.108 19.9414L250.665 20.68L250.369 21.5663L250.222 21.2709V20.0891L249.926 18.3166L248.597 17.7257L247.415 17.578L241.802 17.4303V26.1454L241.95 34.7129L242.097 36.19L242.688 36.4854L243.574 36.7809L245.79 36.9286L248.449 36.6332L249.778 36.0423L250.517 34.5652L250.96 33.2357L251.403 32.6449H251.846L251.994 33.5312V37.224L251.699 37.9626L251.108 38.4057L249.483 38.7012L246.824 38.8489H243.722L241.506 38.7012L238.995 38.8489L238.257 38.9966H235.893L236.189 38.258L237.075 36.7809L237.518 35.4514L237.814 33.088L238.109 27.6226V18.0211L237.666 17.1349L237.075 16.6917L235.893 16.3963H232.348L232.053 16.2486L232.348 17.2826L232.644 19.3506V21.2709L232.348 21.4186H231.462L230.723 20.3846L230.428 19.646L230.132 18.4643L229.689 17.7257L228.508 17.4303L227.621 17.2826L224.519 17.1349V35.7469L224.667 36.19L225.849 37.0763L227.03 38.4057L227.178 39.1443L227.03 39.292L225.701 39.1443L222.894 38.8489L220.679 38.9966L219.94 39.1443H218.168L218.02 38.8489L218.611 37.6672L219.792 36.6332L219.94 36.3377H220.236L220.383 33.5312L220.679 27.0317L220.826 20.2369V17.7257L220.531 16.9871L218.611 16.8394L216.395 16.9871L215.656 17.4303L215.066 19.3506L214.77 20.68L214.327 21.2709H213.884L213.588 20.5323L213.293 18.0211V16.2486L213.884 15.9531L214.77 15.8054L217.134 15.6577Z" fill="#1B1917"/>
<path d="M108.567 15.51L114.476 15.6577L124.373 15.8054L127.032 15.9532L126.884 17.1349L126.145 19.7937L124.521 27.0317L123.93 29.2474H123.487L123.339 28.3612L121.271 28.2134H118.169V33.6789L118.464 36.7809L119.203 36.9286H122.6L124.964 36.4854L125.702 36.0423L126.441 34.5652L126.736 33.6789L127.327 32.7926L127.77 32.9403L128.066 34.7129V37.0763L127.623 37.9626L126.589 38.4057L125.259 38.5534L111.817 38.8489L111.965 38.1103L112.703 36.9286L113.147 36.0423V34.122L113.294 30.7246V17.4303L113.147 16.544H112.851V16.2486L111.226 15.9532L107.977 15.8054L108.567 15.51Z" fill="#1B1918"/>
<path d="M277.696 15.51L280.798 15.8054L283.605 15.9532L284.343 16.2486L283.753 17.578L283.309 18.3166V25.4069L294.24 25.5546L294.093 17.1349L293.502 16.8394L292.32 16.1009L292.468 15.8054L296.604 15.9532L299.263 15.8054L299.558 15.9532L299.263 16.544L298.376 17.2826L297.933 18.0212V34.2697L298.081 36.19L299.853 37.8149L300.001 38.5534L294.831 38.8489H292.32L292.615 38.1103L293.502 36.4854L293.797 35.8946L294.093 32.3494L294.24 27.4749H287.445L283.457 27.3272V36.0423L284.196 36.6332L285.082 37.9626V38.7012L284.787 38.8489H280.798L279.469 38.9966H277.105L277.253 38.4057L277.844 37.8149H278.139L278.435 37.0763L278.878 35.8946L279.173 31.3154L279.469 21.8617V17.2826L279.026 16.8394L277.549 16.1009L277.696 15.51Z" fill="#1A1817"/>
<path d="M197.935 14.6238H200.89L202.367 14.9192L204.287 15.6578L205.912 16.6918L207.389 18.1689L208.866 20.3846L209.9 22.7481L210.343 24.3729L210.491 25.5546V28.5089L210.196 30.2815L209.309 32.9404L208.275 34.7129L207.094 36.1901L206.06 37.2241L204.139 38.5535L202.367 39.2921L200.447 39.8829L199.56 40.0307H198.231L196.015 39.5875L193.356 38.4058L191.436 37.0764L189.663 35.4515L188.482 33.6789L187.595 31.7586L187.152 29.5429V26.8841L187.595 23.9298L188.482 21.4186L189.516 19.4984L190.845 18.0212L192.322 16.6918L194.538 15.5101L197.049 14.7715L197.935 14.6238ZM197.345 16.3964L195.867 16.9872L193.947 18.6121L192.765 20.0892L191.731 22.1572L191.288 24.2252L191.141 27.0318L191.436 29.8384L192.027 32.2018L192.913 33.8266L193.799 35.0084L195.424 36.6332L196.163 37.2241L197.64 37.8149L198.379 37.9627H199.708L201.037 37.5195L202.662 36.4855L204.583 34.8606L205.764 32.7926L206.355 30.7246L206.651 28.0658V25.1115L206.355 22.8958L205.764 21.2709L204.878 19.6461L203.844 18.4644L201.481 16.8395L200.003 16.3964H197.345Z" fill="#191617"/>
<path d="M86.5567 14.6238L87.5907 14.7715L88.9201 15.3624L90.545 15.6578L92.0221 16.2486L93.7947 17.8735L95.715 20.2369L97.6353 22.8958L101.771 28.5089L102.51 29.5429V29.9861H102.805L103.987 31.6109L104.726 32.7926L105.021 33.8266L105.169 33.6789L104.873 32.3495H104.578L104.43 16.8395L104.282 16.1009L102.953 15.8055L102.51 15.5101V15.2146H104.282L107.089 15.5101L106.498 15.9532L106.35 28.9521V35.5992L106.646 37.6672V38.5535L106.498 38.8489L105.021 38.7012L103.987 37.9627L102.51 36.0424L99.851 32.7926L98.0784 30.7246L96.6013 28.8044L94.5333 25.9978L93.0561 24.0775L91.7267 22.1572L90.6927 20.6801L90.3973 20.5324L90.545 36.7809L91.8744 37.3718L92.3176 37.6672V38.5535L90.9881 38.7012H88.477L85.6704 38.4058L85.375 38.2581L85.5227 37.6672L86.409 37.3718L88.1816 37.2241L88.477 23.6344V17.7258L88.1816 16.6918L86.7044 15.5101L86.5567 14.6238Z" fill="#1B1918"/>
<path d="M266.174 14.9192H268.094L270.753 15.6578L271.787 16.2486L272.083 17.578L272.378 21.2709L272.23 21.4186L271.196 21.2709L270.605 20.68L269.719 18.0212L268.981 16.9872L267.947 16.544H265.879L264.401 17.2826L262.333 18.7598L261.152 19.9415L259.822 21.7141L259.084 23.7821L258.936 24.3729V28.5089L259.231 30.2815L259.822 31.7586L260.561 33.0881L261.595 34.4175L262.777 35.5992L264.106 36.3378L265.14 36.6332L266.617 36.7809H268.39L271.344 36.4855L272.378 36.3378L272.526 36.4855V37.2241L271.935 38.1103L269.867 38.7012L266.913 39.2921H264.401L262.629 38.8489L260.709 38.1103L258.641 36.7809L257.754 36.0423L256.129 33.9743L255.686 33.2358L255.095 31.3155L254.8 29.9861L254.652 28.5089V26.4409L254.948 24.2252L255.539 22.4526L256.573 20.5323L257.754 19.0552L259.675 17.4303L261.447 16.3963L263.515 15.51L266.174 14.9192Z" fill="#191617"/>
<path d="M217.134 15.6577H219.94L222.156 15.8054H228.803L234.712 15.9531V16.2486L232.348 16.3963L232.053 16.2486L232.348 17.2826L232.644 19.3506V21.2709L232.348 21.4186H231.462L230.723 20.3846L230.428 19.646L230.132 18.4643L229.689 17.7257L228.508 17.4303L227.621 17.2826L224.519 17.1349V35.7469L224.667 36.19L225.849 37.0763L227.03 38.4057L227.178 39.1443L227.03 39.292L225.701 39.1443L222.894 38.8489L220.679 38.9966L219.94 39.1443H218.168L218.02 38.8489L218.611 37.6672L219.792 36.6332L219.94 36.3377H220.236L220.383 33.5312L220.679 27.0317L220.826 20.2369V17.7257L220.531 16.9871L218.611 16.8394L216.395 16.9871L215.656 17.4303L215.066 19.3506L214.77 20.68L214.327 21.2709H213.884L213.588 20.5323L213.293 18.0211V16.2486L213.884 15.9531L214.77 15.8054L217.134 15.6577Z" fill="#1B1918"/>
<path d="M131.615 15.51H133.092L136.785 15.9532H139.444L139.296 16.544L137.967 17.7257V26.4409L137.819 36.7809L137.671 39.7352L137.081 41.6555L136.342 42.394L134.569 43.8712L132.354 45.0529L131.32 45.496L130.433 45.6437H128.809L129.104 44.9052L129.843 44.0189L132.206 42.2463L132.649 42.0986L132.945 41.36L133.24 40.326L133.388 38.5534L133.535 30.4292L133.683 16.8394L132.945 16.6917L131.763 16.1009L131.615 15.51Z" fill="#1B1918"/>
<path d="M66.6172 37.6672L67.2081 37.815L65.731 39.5875L63.2198 41.2124L61.1518 42.3941L56.5727 44.6098L53.4707 45.9392L50.5164 47.2687L45.7895 49.3367L40.4718 51.7001L36.3358 53.4727L33.9724 54.2112L32.6429 54.359L31.4612 53.9158L30.7227 53.4727V53.1772L32.3475 52.5864L33.8247 51.9955L35.5972 50.6661L36.1881 49.7798L37.3698 48.7458L38.1084 48.5981V48.3027L41.9489 46.6778L46.3804 44.9052L50.3687 43.2804L53.6184 42.0987L56.1295 41.3601L62.1858 39.4398L65.731 38.1104L66.6172 37.6672Z" fill="#181416"/>
<path d="M174.743 14.9192L175.334 15.0669L176.811 15.8055H179.47L181.981 15.6578L181.686 16.2486L180.947 17.2826L180.799 19.0552V33.2358L181.095 36.0423L181.39 36.7809L181.981 37.8149L182.277 38.5535L182.72 38.9966L182.867 39.7352L181.833 39.5875L181.095 39.1443L179.175 38.8489H177.254L176.22 38.9966H174.152L174.448 38.1103L175.629 36.4855L176.073 35.7469L176.22 32.9403L176.368 22.3049V16.6918L175.186 16.2486V15.9532H174.891L174.595 15.51L174.743 14.9192Z" fill="#1B1918"/>
<path d="M19.2007 12.5557H21.5641L21.7118 12.7034V20.3845L21.5641 25.5545L21.4164 27.3271L20.8255 27.6225L19.2007 27.4748L17.2804 23.782L16.5418 22.0094L16.0987 21.2708L15.5078 18.9074L14.7692 17.1348L13.5875 16.1008L13.7352 21.714L14.0307 27.3271L14.6215 27.6225L14.7692 27.918L13.2921 28.5088H12.1104L11.6672 28.3611L11.5195 27.4748L11.6672 21.1231L11.9627 12.8511L12.1104 12.7034H13.5875L14.917 13.2942L16.2464 14.6237L17.2804 16.6917L18.019 18.612L18.9052 20.5322V20.9754H19.2007L19.4961 21.5662V16.8394L19.2007 13.7374V12.5557Z" fill="#161115"/>
<path d="M42.6855 28.2134L43.5718 28.3611L44.0149 29.0997L44.3103 30.4291L44.1626 31.4631L43.1286 33.8265L42.3901 35.4514L42.2423 36.3377L42.3901 38.7011L42.8332 39.7351L43.1286 40.1782L43.7195 40.0305L44.4581 39.4397L45.1966 37.8148L45.9352 35.3037L46.3783 34.5651L47.7078 33.3834L49.0372 32.4971H50.3666L51.1052 32.7925L51.6961 33.5311L51.9915 34.4174V36.9285L51.8438 38.1102L52.5823 38.4057L52.2869 39.7351L51.6961 40.1782L49.3326 40.7691H47.7078L45.7875 40.4737L44.3103 40.9168L44.0149 41.5077L43.2763 42.0985L41.3561 42.2462L40.322 41.8031L39.8789 41.36L40.0266 38.4057L40.322 36.6331L40.6175 34.122L41.3561 30.2814L42.2423 28.6565L42.6855 28.2134Z" fill="#161115"/>
<path d="M70.7496 26.884L71.4882 27.0317L72.2267 28.5089V31.6109L74.147 31.9063L74.5902 32.2018V33.3835L73.7039 33.9743L72.6699 34.8606L71.3405 35.5992L69.5679 35.8946L70.6019 32.7926L70.7496 31.7586L70.4542 31.1677L69.1247 31.6109L67.943 32.4972L67.2045 32.7926L66.7613 34.5652L66.0227 36.19L65.1364 36.6332L62.0344 37.3718L61.1482 37.8149L59.671 38.4058L58.4893 38.8489L57.1599 38.9966L56.4213 39.292H55.2396L54.3533 38.7012L53.9102 37.6672V34.7129L54.501 33.2358L55.8304 32.3495L57.4553 31.1677L59.0802 30.5769H60.1142L60.5573 31.02L60.705 31.4632V32.6449L60.4096 32.3495L59.0802 32.4972L57.8984 32.9403L56.569 34.122L56.4213 34.5652V36.7809H57.603L60.705 35.5992L60.8527 36.0423H61.1482L61.2959 35.3038L62.6253 35.156L63.807 34.7129L64.3979 31.9063L64.9887 30.4292L66.0227 29.986V30.4292L68.2385 30.8723L68.3862 30.4292L69.2725 29.986L70.1587 27.7703L70.7496 26.884Z" fill="#181316"/>
<path d="M15.6529 33.2358H17.5732L19.0504 33.9744L20.2321 35.3038L20.8229 36.3378L20.9706 37.2241V39.1444L20.3798 38.849L19.4935 38.2581H19.0504L18.9026 38.849L18.7549 40.7693L18.3118 41.951L16.9824 43.4281L16.2438 43.7236L15.3575 43.5758L15.2098 43.4281V41.8033L15.8006 40.1784L16.8346 38.4058L17.8686 37.2241L18.1641 36.1901V35.3038L18.0164 35.1561H16.8346L15.6529 35.747L14.4712 37.3718L13.8804 38.7013L13.4372 40.4738L13.1418 42.3941L12.9941 45.9393L12.4032 46.2347L12.1078 47.2687L11.8124 49.0413L11.2215 50.0753L10.4829 49.9276L10.1875 49.4844V45.7916L11.0738 40.3261L11.6646 37.815L12.4032 36.0424L13.4372 34.713L14.4712 33.8267L15.6529 33.2358Z" fill="#161115"/>
<path d="M158.942 27.0317H162.34L164.703 27.6226L165.294 28.2135L165.737 29.6906V32.4972L165.294 34.122L164.703 35.0083L163.669 35.8946L161.454 37.0763L160.124 37.3717L159.09 36.7809L158.499 36.0423L158.352 35.156V27.6226L158.499 27.1795L158.942 27.0317Z" fill="#FCFCFB"/>
<path d="M118.61 17.2825H124.371L125.109 17.5779L125.405 18.6119L125.109 21.4185L124.371 24.6682L123.632 25.9976L123.041 26.293V26.5885L121.121 26.8839L118.314 27.0316L118.019 26.5885L117.871 23.9296L118.019 18.4642L118.314 17.4302L118.61 17.2825Z" fill="#FBFCFA"/>
<path d="M32.2018 35.3037L34.2698 35.4514L36.1901 36.0423L36.9287 36.9286L37.6673 38.8489L37.9627 39.4397L38.1104 40.7691L37.9627 41.9509L35.8947 43.428L33.5313 44.462L32.4973 44.6097H30.7247L30.1338 43.8711L29.6907 42.8371L29.543 41.36L29.8384 38.258L30.2815 36.9286L31.4633 35.8946L32.2018 35.3037Z" fill="#161115"/>
<path d="M159.09 17.1348H160.715L162.635 17.5779L164.408 18.3165L165.737 19.3505L166.033 19.6459L166.18 20.3845V21.4185L165.59 22.7479L164.556 24.2251L163.817 25.2591L162.34 25.9976L161.454 26.1453L158.499 26.2931L158.352 26.1453V17.7256L158.647 17.2825L159.09 17.1348Z" fill="#FCFCFC"/>
<path d="M16.8407 35.0083H18.0224L18.3179 35.3037L18.1702 36.7809L17.727 37.6672L16.693 38.8489L15.5113 41.2123L15.3636 41.8032V43.428L16.2499 43.5757L17.1362 43.1326L18.1702 41.9509L18.6133 40.7692L18.761 38.8489L19.0564 38.1103L19.795 38.258L20.829 39.5874L21.1244 40.1783V41.0646L20.3859 42.8372L18.761 44.9052L17.1362 46.0869L15.5113 46.8254L15.0681 46.9732H13.8864L13.591 47.7117L13.7387 48.3026L14.4773 48.598L15.659 48.7457L17.4316 48.598L16.8407 48.8935L15.9544 49.0412H14.0341L13.1479 49.1889L13.0001 49.4843L11.8184 49.632L11.3753 50.2229H10.6367L11.2276 49.9275L11.8184 48.598L12.1139 46.6777L12.4093 46.0869L13.0001 45.9392V42.394L13.4433 39.7352L14.0341 37.9626L15.3636 35.8946L16.3976 35.156L16.8407 35.0083Z" fill="#9BCD67"/>
<path d="M26.8783 19.7937H29.5372L29.6849 20.0891L29.094 20.2368L28.9463 20.68H26.8783V20.9754L27.1738 21.2708L27.3215 22.0094L27.6169 22.3048L27.7646 25.2591L28.2078 26.4408L28.6509 26.7363H29.8326L30.5712 26.5886V26.2931L31.3098 25.7023L31.162 24.3728L28.7986 24.0774L28.06 23.3388V21.8617L29.094 21.2708L29.6849 20.68L30.2758 20.5323H31.3098L31.7529 21.2708L31.9006 25.2591V27.1794L31.162 28.3611L29.9803 29.2474H27.9123L26.4352 28.5088L25.4012 27.1794L24.8103 25.1114L24.3672 22.4526V21.2708L24.8103 20.5323L26.2875 19.9414L26.8783 19.7937Z" fill="#171316"/>
<path d="M66.1729 35.8945H66.3206L66.4684 37.3717L67.0592 37.224V37.5194L64.9912 38.5534L61.5938 39.7351L54.3558 42.0985L52.4355 42.6894L49.6289 43.7234L44.9021 45.6437L39.4366 47.8594L38.1072 48.4503L37.6641 48.3025L39.7321 47.2685L43.5726 45.6437L47.5609 44.0188L49.9244 42.9848L51.9924 41.8031L52.4355 41.2122H52.7309L53.0264 40.6214L53.9126 40.0305L55.0944 39.4397L57.0146 38.9965L57.1624 38.8488L58.9349 38.5534L60.5598 37.8148L63.2186 36.9285L65.5821 36.3377L66.1729 35.8945Z" fill="#FBFCFB"/>
<path d="M13.582 16.1008L14.1729 16.3963L15.0592 17.4303L15.65 18.9074L15.9455 20.0891L16.3886 21.4185L18.1612 25.2591L18.6043 26.4408V26.7363L17.8657 27.4748L16.0932 27.7703L14.7637 27.6226L14.0252 26.884L13.8775 26.5885L13.582 21.714V16.1008Z" fill="#9ECE6B"/>
<path d="M35.0075 19.3506H36.7801L36.9278 19.4983V21.2709L36.4847 26.4409L36.1892 29.3952L35.8938 30.2814L34.4167 31.02H32.0532L31.7578 30.4292L32.7918 29.986L32.9395 29.5429H33.235L33.8258 27.1794V19.646L33.9735 19.4983L35.0075 19.3506Z" fill="#161115"/>
<path d="M27.0253 34.7129L28.3548 34.8606L28.6502 35.156L27.3208 37.0763L27.173 38.4057V41.2123L27.4685 44.462V45.3483L26.4345 45.9392H25.105L24.3665 45.496L24.2188 45.2006V43.1326L24.8096 40.9169L25.6959 38.7012L25.9913 37.5195L26.139 35.3037L26.2868 34.8606L27.0253 34.7129Z" fill="#161115"/>
<path d="M31.314 20.3845L33.6774 20.5322L33.8251 20.68V28.0657L33.2342 29.5428H32.9388L32.7911 30.1337L31.1662 30.2814L27.7688 29.5428L27.6211 29.2474L29.9845 29.0997L31.314 28.0657L31.7571 27.1794V25.2591L31.6094 21.2708L31.314 20.3845Z" fill="#9DCE6A"/>
<path d="M20.6794 42.0986H20.9748V42.5418L21.5657 42.2463L21.7134 42.8372L21.1226 45.3483L20.5317 46.5301L19.6454 47.5641L18.4637 48.3026L16.6911 48.7458L15.5094 48.8935L14.0323 48.5981L13.4414 48.1549L13.5891 47.5641L13.8845 46.9732L15.5094 46.6778L17.8728 45.4961L18.9068 44.6098L20.384 42.5418L20.6794 42.0986Z" fill="#161115"/>
<path d="M5.61315 40.3259L6.204 40.6214L4.28372 41.0645L2.068 41.3599L2.95429 43.8711L3.98829 45.4959L4.57915 46.2345L5.17 46.8254L5.31772 49.1888L6.05629 51.4045L6.35172 51.6999V52.1431H6.64715L6.94258 52.8816V53.7679H7.238L7.38572 54.6542L7.68115 54.8019V55.3928H7.97658L8.86286 56.7222L9.45372 57.9039L9.74915 58.0517L9.60143 58.4948L10.34 59.2334L11.9649 60.4151L13.442 61.0059L15.2146 61.3014L17.2826 61.4491V61.5968H14.1806L12.408 61.1537L10.7831 60.2674L9.15829 58.4948L7.68115 56.2791L5.90858 53.0294L4.57915 49.9274L3.39743 46.9731L1.32943 42.6894L0.590858 41.5076L0 41.0645L3.39743 40.6214L5.61315 40.3259Z" fill="#7DAB4D"/>
<path d="M14.1797 12.8511H19.0543L19.3497 13.7374L19.6451 16.8394V21.7139L19.202 21.2708V20.9754H18.9065L18.0203 18.7596L17.2817 17.1348L16.6908 15.6576L15.8045 14.3282L14.7705 13.2942L14.1797 12.8511Z" fill="#9CCE67"/>
<path d="M70.1641 31.02L70.7549 31.3154L70.9026 32.4972L70.0164 35.0083L69.7209 35.7469L70.0164 36.0423L68.6869 36.7809L67.2098 38.1103L66.6189 38.9966H66.3235L66.6189 38.258H66.9144L67.0621 37.8149L66.7666 37.5195L66.9144 37.3717H66.4712L66.1758 35.8946L66.6189 34.5652L67.0621 32.7926L68.3915 32.054L69.1301 31.4632L70.1641 31.02Z" fill="#9BCD67"/>
<path d="M113.292 17.5781H113.587L114.769 18.7598V22.305L114.326 27.7704L114.178 29.8384L114.03 34.2698L113.735 36.1901L112.996 36.781L113.144 36.0424V34.1221L113.292 30.7247V17.5781Z" fill="#7EAD4E"/>
<path d="M68.09 21.7141H68.2377V23.7821L68.09 25.2593L68.5331 25.1115V25.407H68.8286L69.2717 26.1455L70.7489 26.5887L70.6011 27.3273L69.8626 28.8044L69.4194 29.9861L68.8286 30.4293L68.3854 30.577L68.2377 30.8724H67.2037L66.3174 30.577L65.7266 28.9521L66.022 28.2135L67.056 27.475L67.4991 26.441L67.7946 24.373L67.9423 22.305L68.09 21.7141Z" fill="#9ACC66"/>
<path d="M32.6441 36.6331L33.5304 36.7808L35.0075 37.5193L35.303 38.1102V39.8828L34.5644 41.0645L33.235 42.2462L32.3487 42.6893L31.9055 42.5416L31.7578 41.9508V40.7691L32.201 37.3716L32.3487 36.7808L32.6441 36.6331Z" fill="#9ACC66"/>
<path d="M59.08 32.3494H60.2617L60.4094 33.3834V35.5991L59.9663 36.0422L57.6029 36.9285H56.7166L56.2734 36.4854V34.5651L56.7166 33.8265L57.8983 32.7925L59.08 32.3494Z" fill="#9CCE68"/>
<path d="M29.0946 20.3845H29.5378L29.2423 21.2708L28.5038 21.8617H28.0606L28.2083 23.3388L28.7992 23.9297L31.1626 24.2251L31.4581 24.816V25.7022L30.8672 26.2931H30.5718V26.5885L29.8332 26.884H28.6515L27.9129 26.2931L27.6175 25.2591L27.4698 22.3048L27.0266 21.714L26.8789 21.1231V20.5322H28.9469L29.0946 20.3845Z" fill="#A3D073"/>
<path d="M248.595 25.2593H249.186L249.039 26.5887L248.743 27.475V28.9521L248.595 29.3953L248.152 29.543V28.6567L246.675 28.509L245.789 28.2136L245.05 27.6227L244.607 27.1796H244.164L244.312 26.441L245.346 25.9978L248.595 25.2593Z" fill="#22241C"/>
<path d="M51.1055 32.6448L52.1395 33.3833L54.0598 33.5311L54.3552 33.2356L54.2075 34.1219L54.0598 34.7128V37.6671L54.5029 38.8488H53.912L53.6166 38.5533L53.0258 38.8488L52.5826 39.7351H52.2872L52.4349 38.4056L51.844 38.1102V34.4173L51.2532 33.0879L51.1055 32.6448Z" fill="#9BCC66"/>
<path d="M48.4431 33.5312L49.1817 33.8267L49.9203 34.713L50.5111 36.1901L50.8066 37.5195V38.2581L48.5909 38.849L48 38.9967L48.2954 37.815L48 36.781V33.8267L48.4431 33.5312Z" fill="#9BCD66"/>
<path d="M36.0401 48.8936H36.4832V49.189L33.5289 50.5184L32.3472 51.1093L30.7224 52.5864H29.0975L27.9158 52.1433L27.4727 51.5524L28.0635 50.9616L29.3929 50.3707L31.7564 50.223L36.0401 48.8936Z" fill="#1A1817"/>
<path d="M43.7186 32.7925L44.014 33.2356L44.1618 33.9742L43.7186 35.1559L43.5709 36.6331L43.7186 37.0762L43.5709 37.9625L44.1618 38.1102L44.4572 38.5533V39.2919L43.5709 40.3259L42.98 40.1782L42.3892 39.2919L42.0938 37.5193V36.3376L42.3892 35.1559L42.98 33.8265H43.2755L43.5709 32.9402L43.7186 32.7925Z" fill="#9BCC66"/>
<path d="M67.0553 20.6799L67.7938 20.8276L68.0893 21.4185L67.9416 24.3728L67.6461 26.4408L67.0553 27.6225L65.7258 28.5088H65.5781L65.7258 27.3271L66.169 26.4408L66.7598 21.1231L67.0553 20.6799Z" fill="#161115"/>
<path d="M36.9259 48.5981L37.2214 48.8936L36.0397 50.0753L35.4488 50.9616L33.5285 52.291L31.3128 53.0296L30.5742 52.8819L30.8696 52.291L32.4945 50.8139L36.1874 49.189L36.9259 48.5981Z" fill="#FDFDFD"/>
<path d="M13.0001 42.394H13.1479L13.2956 45.7915L13.7387 46.53L15.0681 46.8255V46.9732H13.8864L13.591 47.7118L13.7387 48.3026L14.4773 48.598L15.659 48.7458L17.4316 48.598L16.8407 48.8935L15.9544 49.0412H14.0341L13.1479 49.1889L13.0001 49.4843L11.8184 49.632L11.3753 50.2229H10.6367L11.2276 49.9275L11.8184 48.598L12.1139 46.6778L12.4093 46.0869L13.0001 45.9392V42.394Z" fill="#7EAC4E"/>
<path d="M34.115 13.1465H35.8876L36.4784 13.5896L36.3307 14.7713L35.7399 16.2485L35.4444 16.5439H34.5582L33.9673 15.6576L33.6719 14.6236L33.8196 13.2942L34.115 13.1465Z" fill="#161115"/>
<path d="M14.1797 12.8511L14.9183 12.9988L15.8045 13.7374L16.6908 14.9191L17.4294 15.6576L18.3157 17.2825L18.4634 17.7256L19.0543 17.5779L19.202 16.8394L19.4974 16.9871V21.1231L18.9065 20.9754L18.0203 18.7596L17.2817 17.1348L16.6908 15.6576L15.8045 14.3282L14.7705 13.2942L14.1797 12.8511Z" fill="#F9FBF8"/>
<path d="M1.18172 40.917H2.51114L1.92029 41.2124H1.62486V41.5078H1.32943L1.62486 42.2464L2.21572 42.985L2.95429 44.7576L3.84057 46.5301L4.28372 47.5641L4.87457 49.4844L5.46543 51.1093L5.76086 52.1433H5.46543L3.98829 48.3027L2.95429 46.087L1.32943 42.6896L0.590858 41.5078L0 41.0647L1.18172 40.917Z" fill="#2E3522"/>
<path d="M47.5598 32.6448H48.5938L48.0029 33.3833L46.8212 34.2696L46.2303 34.8605L45.4918 37.2239L44.9009 37.3716V37.9625L44.6055 37.8148L44.7532 36.7808L44.9009 36.1899L44.7532 35.5991H45.0486L45.1963 34.5651L45.6395 34.4173V33.9742H46.0826V33.5311L46.8212 32.9402L47.5598 32.6448Z" fill="#99CB65"/>
<path d="M75.0315 55.9836L75.4747 56.2791L75.1793 57.1654L74.293 58.7902L72.9635 60.2674L70.7478 61.3014L70.3047 61.1536L70.7478 60.7105L71.7818 60.1196L73.1113 58.9379L73.259 58.6425H73.5544L73.8498 57.7562L74.4407 57.0176L74.7361 56.1314L75.0315 55.9836Z" fill="#79A54B"/>
<path d="M15.7993 24.3728H16.5379V24.6682L17.1288 24.9637L17.7196 25.8499L18.3105 26.2931L17.1288 26.8839L16.6856 27.3271L15.947 27.4748L15.7993 26.1454L15.5039 25.5545L15.7993 24.3728Z" fill="#7EAC4E"/>
<path d="M72.6768 27.0317H72.9722L73.1199 27.4749L72.9722 28.3612L73.2677 28.5089V28.952H73.5631L73.8585 30.4292L73.7108 30.7246H72.3814L72.0859 30.5769V27.1795L72.6768 27.3272V27.0317Z" fill="#9ACC66"/>
<path d="M53.7679 35.0083H53.9157L54.0634 37.6672L54.5065 38.8489H53.9157L53.6202 38.5534L53.0294 38.8489L52.5862 39.7352H52.2908L52.4385 38.4057L51.8477 38.1103V36.9286H51.9954L52.2908 37.9626L52.5862 37.5194L52.7339 36.9286L53.1771 36.4854H53.4725L53.7679 35.0083Z" fill="#7EAC4E"/>
<path d="M15.2137 23.0435H15.9523L16.5431 23.4866L16.3954 24.0775L15.8045 24.6683L15.6568 25.4069H15.3614L15.2137 25.7023L14.6228 25.85L14.3274 25.7023L14.1797 25.1115L14.6228 23.782V23.4866L15.2137 23.0435Z" fill="#FDFDFD"/>
<path d="M14.0312 25.1113L14.3267 25.259V25.7022L15.213 25.5545H15.6561L16.0993 26.8839V27.7702L14.7698 27.6225L14.0312 26.8839V25.1113Z" fill="#A6D477"/>
<path d="M48 34.4175L48.4431 35.0083L48.7386 35.8946L48.5909 36.6332L48.7386 37.6672L49.034 38.1103H49.9203L50.2157 37.3718L50.6589 36.7809L50.8066 38.2581L48.5909 38.8489L48 38.9966L48.2954 37.8149L48 36.7809V34.4175Z" fill="#7EAC4E"/>
<path d="M21.8589 20.3845L22.3021 20.5322L22.5975 21.2708V22.748L22.4498 23.0434L21.8589 22.8957V26.1454L21.7112 27.6225L20.9727 27.7702L21.2681 27.6225L21.7112 20.9754L21.8589 20.3845Z" fill="#9ED069"/>
<path d="M29.0946 20.3845H29.5378L29.2423 21.2708L28.5038 21.8617L27.1743 22.0094L26.8789 21.1231V20.5322H28.9469L29.0946 20.3845Z" fill="#FCFCFB"/>
<path d="M9.15625 58.3472L9.74711 58.6426L10.4857 59.3812L11.9628 60.4152L13.44 61.006L15.2125 61.3015L17.2805 61.4492V61.5969H14.1785L12.406 61.1537L10.7811 60.2675L9.15625 58.4949V58.3472Z" fill="#7EAC4E"/>
<path d="M27.7617 24.5205L28.0571 25.1114V25.4068H28.3526L28.5003 26.1454H28.7957V26.4408L31.0114 25.7022L31.3069 25.5545L31.0114 26.1454L30.5683 26.2931V26.5885L29.8297 26.8839H28.648L27.9094 26.2931L27.7617 25.8499V24.5205Z" fill="#F2F7EC"/>
<path d="M13.7305 16.2485L14.3213 16.544L15.0599 17.4303L15.6508 18.9074L15.7985 20.5323L15.503 20.3845L14.9122 18.9074L14.6168 18.3165L14.3213 17.4303L14.0259 16.9871L13.7305 17.578V16.2485Z" fill="#F0F5EA"/>
<path d="M115.066 15.8054H117.134L116.543 16.8394L115.952 17.1348H115.213L114.918 16.6917L115.066 16.1008V15.8054Z" fill="#7EAC4E"/>
<path d="M69.2707 35.7468L70.0093 35.8945L69.4184 36.3377L68.089 37.224L66.7595 38.7011L66.6118 38.9965H66.3164L66.6118 38.258H66.9073L67.055 37.8148L66.7595 37.5194L67.9413 36.7808L68.9753 35.8945L69.2707 35.7468Z" fill="#7EAC4E"/>
<path d="M24.0742 21.2708H24.2219L24.6651 23.6342L25.2559 26.293V27.0316L24.9605 26.7362L24.3696 24.6682L24.0742 22.7479V21.2708Z" fill="#94C560"/>
<path d="M90.1016 18.4644L90.8401 19.0552L91.8741 20.3846L92.7604 21.5664L92.6127 21.8618L91.2833 20.5324V20.2369L90.6924 19.9415L90.2493 19.3506L90.1016 18.4644Z" fill="#7EAC4E"/>
<path d="M5.613 40.3259L6.20385 40.6214L4.28357 41.0645L2.36328 41.2122V40.7691L4.43128 40.4736L5.613 40.3259Z" fill="#7FAD4E"/>
<path d="M28.8008 24.0774L31.1642 24.2251L31.4596 24.816V25.7023L31.1642 25.1114L30.4256 24.9637L30.2779 24.5205L29.0962 24.3728L28.8008 24.0774Z" fill="#7EAC4E"/>
<path d="M21.7112 23.782H21.8589V26.1454L21.7112 27.6226L20.9727 27.7703L21.2681 27.6226L21.5635 23.9297L21.7112 23.782Z" fill="#96C762"/>
<path d="M57.3119 31.02L57.4596 31.3154L55.8348 32.4972L55.2439 32.9403H54.8008V32.4972L55.9825 31.6109L57.3119 31.02Z" fill="#97C963"/>
<path d="M158.352 26.1455H160.272V26.2932L159.238 26.4409L158.942 27.1795V27.6227L158.499 27.7704L158.352 28.2135V26.1455Z" fill="#7EAC4E"/>
<path d="M67.9442 32.3494L68.2396 32.4971L67.3533 33.8265L66.9102 34.2697V33.0879L67.501 32.4971L67.9442 32.3494Z" fill="#7BA74D"/>
<path d="M50.0761 40.4736L50.667 40.6213L49.7807 41.0645H47.565L47.2695 40.6213H49.3375L50.0761 40.4736Z" fill="#7EAC4E"/>
<path d="M42.2415 35.4514H42.3892L42.5369 37.8148V39.292L42.2415 38.7011L42.0938 36.3377L42.2415 35.4514Z" fill="#7EAC4E"/>
<path d="M231.316 15.9531H234.714V16.2486L232.35 16.3963L231.316 16.1008V15.9531Z" fill="#41512C"/>
<path d="M40.1752 47.1208H40.4706V47.4163L38.1072 48.4503L37.6641 48.3026L39.7321 47.2686L40.1752 47.1208Z" fill="#FDFDFD"/>
<path d="M27.4728 44.9053L27.6205 45.4961L26.8819 46.2347L25.1094 46.087V45.9393L26.4388 45.7916L27.3251 45.3484L27.4728 44.9053Z" fill="#7EAC4E"/>
<path d="M19.0525 38.1104L19.7911 38.2581L19.9388 38.5535H19.0525L18.9048 40.9169L18.6094 41.3601L18.7571 38.8489L19.0525 38.1104Z" fill="#7EAC4E"/>
<path d="M14.1797 12.8511L14.9183 12.9988L15.8045 13.7374L16.5431 14.6236L16.3954 15.0668L15.8045 14.3282L14.7705 13.2942L14.1797 12.8511Z" fill="#F6F9F3"/>
<path d="M41.9502 44.9053L42.3934 45.053L42.0979 45.9393L41.9502 46.2347L41.3594 46.3824V45.9393L41.9502 44.9053Z" fill="#7EAC4E"/>
<path d="M4.72656 49.9275L5.16971 50.0752L5.76056 51.8478V52.1432H5.46513L4.72656 50.3706V49.9275Z" fill="#364126"/>
<path d="M43.5689 43.7234H44.6029L44.7506 44.0188L43.5689 44.3142L43.2734 44.1665V43.8711L43.5689 43.7234Z" fill="#7EAC4E"/>
</svg>
