<svg width="300" height="91" viewBox="0 0 300 91" fill="none" xmlns="http://www.w3.org/2000/svg">
<path d="M119.589 0.439453H158.719L161.064 1.02568L162.676 1.75846L163.995 2.63779L165.167 3.9568L165.9 5.56891L166.047 6.15513V8.64659L165.461 10.5518L163.116 17.0003L161.504 21.397L156.228 35.7594L153.003 44.5528L152.124 47.0442L150.805 49.3891L149.633 50.8547L148.607 51.8806L146.408 53.053L144.357 53.6393L144.21 53.7858L142.305 53.9324H133.804L116.804 53.7858L116.364 55.3979L114.752 60.5274L113.58 63.1654L112.114 65.5103L110.942 66.9758L109.623 68.4414L108.304 69.6139L105.666 71.226L103.467 72.1053L100.097 72.9846L97.0189 73.4243L94.9672 73.5709L94.8206 73.2777L96.7258 67.7086L100.536 56.2773L102.295 51.1478V50.7081L100.243 49.096L99.2173 48.0701L97.7517 46.1649L95.993 43.2338L94.8206 40.7423L94.2344 39.4233V38.9837H106.399L110.209 27.6989L113.287 18.6124L114.459 15.2416L115.045 13.3364L117.097 7.47414L118.856 2.19812L119.442 0.586009L119.589 0.439453Z" fill="#D82329"/>
<path d="M208.697 0H212.36L213.826 8.35369L218.662 36.1993L220.421 46.3117V47.191L221.74 47.4841L224.525 48.6566L226.576 49.9756L228.628 51.7342L230.24 53.786L231.706 55.9844L233.318 59.2086L234.051 60.9673V61.2604H226.87L222.913 61.1138L223.206 62.4328L224.671 70.9331V71.0796H210.455L209.283 65.0708L208.697 61.8466V60.9673L178.066 60.5276H175.135L173.23 63.3122L171.911 64.9243L170.592 66.3898H170.299V66.683L168.687 68.002L166.488 69.4675L164.437 70.4934L161.506 71.3727L158.428 71.6659L155.057 71.5193L150.807 70.7865L150.074 70.4934L150.954 69.1744L152.859 66.5364L154.031 64.9243L159.747 57.0103L161.799 54.2257L167.514 46.3117L168.98 44.2599L170.006 42.6478L171.911 40.0098L173.523 37.6649L175.282 35.1734L177.334 32.2423L179.092 29.7509L183.196 23.8886L184.955 21.3972L187.006 18.466L188.765 15.828L190.817 12.8969L192.136 11.1383L194.041 8.79336L196.093 6.59502H196.386L196.532 6.15535L198.145 4.83635L200.343 3.22423L202.834 1.75867L205.326 0.73278L207.671 0.146556L208.697 0Z" fill="#D82329"/>
<path d="M229.652 0.439453H250.756L254.127 0.732565L256.765 1.31879L259.843 2.34468L262.921 3.9568L264.679 5.2758L266.584 7.03447L268.343 8.64659L269.516 9.67248L271.567 11.4311L273.179 12.8967L274.352 13.9226L275.817 15.2416L277.43 16.5606L279.335 18.3193L280.947 19.6383L283.145 21.6901L284.464 22.716V23.0091L285.05 23.3022L286.663 24.7677L287.835 25.7936L289.301 27.1126L290.913 28.4316L292.818 30.1903L294.43 31.5093L296.335 33.268L297.508 34.2939L299.56 36.0525L299.999 36.6388L298.973 37.6647L297.801 38.6906L295.749 40.4492L293.99 42.0613L292.378 43.3803L290.473 45.139L289.301 46.1649L287.249 47.9236L285.637 49.3891L284.464 50.415L282.412 52.1737L280.8 53.6393L279.628 54.6651L278.162 55.9841L276.55 57.3032L274.792 58.9153L273.619 59.9412L272.154 61.2602L270.981 62.2861L268.929 64.0447L267.317 65.5103L266.145 66.5362L264.972 67.7086L262.921 69.1742L260.576 70.4932L257.498 71.6656L254.42 72.3984L250.903 72.6915H229.652L230.385 71.9587L231.997 70.4932L233.609 69.1742L235.808 67.269L241.963 61.9929L243.575 60.6739L245.041 59.3549L246.653 58.0359L248.265 56.5704L249.877 55.2514L252.075 53.3461L253.688 52.0271L255.3 50.5616L256.912 49.2426L259.11 47.3373L263.214 43.82L265.119 42.2079L271.274 36.9319L271.714 36.6388L271.421 36.0525L269.222 34.1473L267.61 32.8283L265.412 30.9231L263.507 29.311L261.455 27.5523L259.843 26.2333L258.377 24.9143L256.765 23.5953L254.713 21.8366L252.808 20.2245L250.756 18.4658L249.144 17.1468L247.679 15.8278L246.067 14.5088L244.015 12.7502L240.204 9.52592L238.153 7.76725L236.247 6.15513L234.635 4.83613L232.437 2.9309L230.385 1.17223L229.652 0.439453Z" fill="#33468A"/>
<path d="M67.4168 0.439453H85.2966L88.2277 0.732565L91.3054 1.46534L93.5037 2.34468L95.9952 3.66368L97.9004 5.2758L99.366 6.74136L100.978 9.08625L102.151 11.138L103.176 13.1898L103.616 14.8019L103.47 14.9485H62.8735L62.4339 16.5606L60.3821 22.716L58.1838 29.0179L55.5457 36.9319L53.3474 43.2338L51.5887 48.5098L48.8042 56.7169L48.3645 57.8894L50.1232 58.0359L68.2961 58.329L70.9341 58.7687L73.5721 59.5015L76.2101 60.6739L77.8223 61.6998L79.4344 63.0188L80.7534 64.3378L82.3655 66.5362L83.831 69.0276L85.5897 72.9846V73.1312H75.0377L43.0885 72.6915L41.0367 72.2519L39.1315 71.226L37.6659 69.907L36.4935 68.588L35.321 66.5362L34.5882 64.7775L34.1486 63.4585L33.8555 61.6998V58.7687L34.7348 54.9583L36.3469 49.6822L39.1315 41.4751L41.3298 35.1732L45.2868 23.4487L47.4852 17.1468L48.9507 12.7502L50.4163 9.81903L52.175 7.32758L53.7871 5.56891L55.2526 4.24991L57.3044 2.9309L59.2096 2.05157L61.408 1.31879L64.3391 0.732565L67.4168 0.439453Z" fill="#D82329"/>
<path d="M41.3281 0.439453H43.2333L43.0867 1.17223L40.7418 7.62069L38.1038 14.6554L36.6383 18.6124L32.3881 30.0438L29.6036 37.5181L26.0862 46.8977L23.7413 53.3461L18.0257 68.588L16.5601 72.545L16.4135 72.6915L1.6114 72.8381L1.46484 72.545L4.68907 63.6051L7.03397 57.1566L9.67198 49.8288L12.8962 40.8889L15.9739 32.3886L18.6119 25.0609L21.8361 16.1209L23.0086 12.7502L24.181 10.4053L25.6466 8.06036L27.2587 6.15514L28.7242 4.68958L30.776 3.22402L33.5606 1.90501L36.7848 1.02568L39.7159 0.586009L41.3281 0.439453Z" fill="#D82329"/>
<path d="M139.96 14.5098H148.607L148.167 15.9753L146.555 20.2254L144.064 26.8205L142.012 32.243L139.667 38.3984L139.227 39.4243H129.555L121.641 39.2777L121.934 37.9587L123.986 31.8034L126.037 25.5015L128.822 17.0012L129.555 14.8029L129.701 14.6563L139.96 14.5098Z" fill="#FEFEFE"/>
<path d="M201.223 21.6895L201.516 22.2757L204.154 36.4916L205.913 45.8712V46.4574H184.809L185.834 44.8453L190.085 38.3968L194.335 32.0949L198.585 25.6465L200.344 23.0085L201.223 21.6895Z" fill="#FEFEFE"/>
<path d="M124.72 79.1406H126.919L128.384 79.7268L129.117 80.4596L129.264 80.8993L129.117 83.2442L128.677 85.8822L128.531 87.7874H127.065V86.4684L126.333 87.2012L125.16 87.934L124.574 88.0805H123.255L122.082 87.4943L121.35 86.615L121.203 86.0288V85.0029L121.643 84.1235L122.376 83.3907L123.548 82.8045L124.427 82.658L127.798 82.5114V81.1924L127.505 80.6062L126.479 80.1665H125.307L123.988 80.7527L123.401 81.4855L122.376 81.1924L122.229 80.7527L122.962 79.8734L124.134 79.2872L124.72 79.1406Z" fill="#030408"/>
<path d="M86.908 79.1406H89.1063L90.4253 79.7268L91.1581 80.4596L91.3046 80.7527V82.658L90.5719 87.7874H89.2529V86.615L89.3994 86.3219H89.1063L88.8132 86.9081L87.6407 87.7874L86.6149 88.0805H85.2959L84.1234 87.4943L83.5372 86.7615L83.3906 86.4684V84.7098L83.8303 83.977L84.8562 83.0976L86.4683 82.658H89.9856L89.8391 81.0459L89.1063 80.3131L88.5201 80.1665H87.4942L86.3217 80.6062L85.8821 80.7527L85.589 81.339L85.2959 81.4855L84.27 81.0459L84.5631 80.4596L85.2959 79.7268L86.1752 79.2872L86.908 79.1406Z" fill="#030407"/>
<path d="M220.713 79.1406H222.618L224.083 79.8734L224.816 80.8993L225.109 81.9252V83.5373L224.963 83.6839H218.514L218.661 85.296L219.394 86.4684L220.42 86.9081H221.445L222.618 86.3219L223.351 85.4425L224.083 85.5891L224.523 85.8822L224.23 86.4684L223.204 87.4943L222.325 87.934L221.592 88.0805H219.98L218.807 87.6409L218.075 87.0546L217.488 86.1753L217.195 85.296V82.9511L217.782 81.339L219.101 79.8734L220.126 79.2872L220.713 79.1406Z" fill="#020305"/>
<path d="M114.021 79.1406H115.926L117.099 79.5803L118.125 80.7527L118.418 81.4855V83.6839H111.969L112.116 85.4425L112.702 86.3219L113.288 86.7615L113.728 86.9081H114.754L115.926 86.4684L116.806 85.4425L117.539 85.5891L117.978 86.0288L116.806 87.3478L115.633 87.934L114.901 88.0805H113.435L111.969 87.4943L111.09 86.4684L110.504 85.0029V83.5373L110.944 81.7786L111.969 80.3131L113.142 79.4337L114.021 79.1406Z" fill="#030407"/>
<path d="M101.417 76.502H102.736L102.15 80.1659V80.6055L103.176 79.5796L104.202 79.14H105.667L106.546 79.5796L107.279 80.459L107.426 80.8986V82.0711L106.4 87.7868H105.081L105.374 85.5884L105.96 82.2176V81.1917L105.521 80.459L105.227 80.3124H103.908L103.029 80.8986L102.443 81.6314L101.857 82.8039L101.27 85.4419L100.831 87.7868H99.5117L99.8048 85.735L101.27 77.0882L101.417 76.502Z" fill="#030408"/>
<path d="M147.729 76.502H149.048L148.902 77.821L148.462 80.7521L149.342 79.7262L150.514 79.14H151.98L152.859 79.5796L153.592 80.459L153.738 80.7521V82.5107L152.859 87.3471L152.712 87.7868H151.393L152.273 82.6573V80.8986L152.126 80.459L151.54 80.3124H150.221L149.342 80.8986L148.462 82.0711L147.876 83.9763L147.29 87.3471L147.143 87.7868H145.824L147.583 77.2347L147.729 76.502Z" fill="#030407"/>
<path d="M70.1983 80.166H71.5173L72.3967 80.7522L72.8363 81.3385L72.9829 81.7781V83.8299L72.3967 85.5886L71.6639 86.6145L70.7846 87.0541H69.319L68.4397 86.4679L68 85.7351V82.9506L68.7328 81.1919L69.7587 80.3126L70.1983 80.166Z" fill="#FEFEFE"/>
<path d="M34.7335 80.166H36.0525L37.0784 80.7522L37.5181 81.6316L37.6646 82.804L37.3715 84.5627L36.4922 86.3214L35.7594 86.9076L35.4663 87.0541H33.8542L32.8283 86.1748L32.5352 85.442V83.2437L33.1214 81.6316L33.7076 80.7522L34.7335 80.166Z" fill="#FEFEFE"/>
<path d="M34.8808 79.1406H36.0532L37.3722 79.5803L38.105 80.1665L38.8378 81.6321L38.9843 82.5114V83.8304L38.5447 85.296L37.6653 86.7615L36.3463 87.7874L35.3204 88.0805H33.7083L32.6824 87.6409L31.9496 87.0546L31.2169 85.5891L31.0703 85.0029V83.3907L31.51 81.9252L32.3893 80.4596L33.5618 79.5803L34.8808 79.1406ZM34.7342 80.1665L33.7083 80.7527L32.9755 81.9252L32.5359 83.2442V85.4425L32.9755 86.3219L33.8549 87.0546H35.467L36.3463 86.4684L37.0791 85.296L37.5188 84.1235L37.6653 82.5114L37.3722 81.1924L36.6394 80.4596L36.0532 80.1665H34.7342Z" fill="#030408"/>
<path d="M70.3456 79.1406H71.5181L72.9836 79.7268L73.863 80.7527L74.3026 81.9252V84.2701L73.7164 85.8822L72.9836 86.9081L71.8112 87.7874L70.7853 88.0805H69.1732L68.1473 87.6409L67.2679 86.9081L66.6817 85.7356L66.5352 85.1494V83.2442L66.9748 81.7786L67.8542 80.4596L68.8801 79.5803L70.3456 79.1406ZM70.1991 80.1665L69.1732 80.7527L68.5869 81.4855L68.0007 82.9511V85.7356L68.5869 86.615L69.3197 87.0546H70.7853L71.8112 86.4684L72.5439 85.296L72.9836 83.8304V81.7786L72.5439 80.8993L71.8112 80.3131L71.5181 80.1665H70.1991Z" fill="#030408"/>
<path d="M18.1736 79.1406L19.9323 79.2872L21.1047 79.8734L21.984 80.8993L21.8375 81.339L20.8116 81.4855L20.0788 80.6062L19.1995 80.3131H18.027L17.1477 80.6062L17.0011 81.9252L17.4408 82.3649L19.346 82.9511L20.665 83.3907L21.5444 84.1235L21.8375 84.8563L21.6909 86.3219L20.9582 87.3478L19.7857 87.934L19.1995 88.0805H17.7339L16.4149 87.7874L15.5356 87.2012L14.6562 86.0288V85.7356L15.389 85.4425L15.9753 85.5891L16.5615 86.4684L17.5874 86.9081H19.1995L20.2254 86.3219L20.3719 86.0288V85.1494L19.7857 84.5632L16.708 83.6839L15.8287 82.9511L15.5356 82.2183V81.0459L16.1218 80.02L17.0011 79.4337L18.1736 79.1406Z" fill="#030408"/>
<path d="M199.608 79.2871H200.78L200.634 81.1923L199.901 85.4425L200.048 86.3218L200.634 86.908H201.806L202.686 86.4683L203.711 85.2959L204.444 83.2441L205.03 79.8733L205.324 79.2871H206.349L206.203 80.7527L205.03 87.6408L204.884 87.7874H203.858L204.005 86.1752L203.858 86.3218L203.272 87.2011L202.099 87.9339L201.513 88.0805H200.341L199.168 87.4942L198.729 86.908L198.582 86.4683V84.5631L199.461 79.5802L199.608 79.2871Z" fill="#040509"/>
<path d="M181.141 79.2871H182.167L182.314 79.7268L181.434 84.8562V86.3218L182.167 86.908H183.193L184.072 86.4683L185.098 85.2959L185.684 83.8303L186.564 79.4337L186.71 79.2871H187.736L187.59 80.8992L186.417 87.6408L186.271 87.7874H185.245L185.391 86.1752L184.512 87.3477L183.486 87.9339L182.9 88.0805H181.727L180.848 87.6408L180.115 86.908L179.969 86.4683V84.8562L180.848 79.7268L181.141 79.2871Z" fill="#040509"/>
<path d="M157.108 79.2871H158.281L158.867 81.632L159.746 85.589L160.479 84.4166L162.677 80.1664L163.264 79.2871H164.289L163.996 80.1664L161.505 84.8562L159.453 88.6667L158.427 89.9857L157.694 90.5719L156.669 90.865H155.496V89.9857L155.643 89.6926L157.108 89.546L157.988 88.9598L158.574 87.9339V86.908L156.962 79.5802L157.108 79.2871Z" fill="#04050A"/>
<path d="M46.7523 79.1406H48.2178L49.0972 79.5803L49.83 80.4596L49.9765 81.0459V82.5114L49.0972 87.6409L48.9506 87.7874H47.7782L48.0713 85.5891L48.511 83.0976V81.0459L47.7782 80.3131H46.3126L45.1402 81.1924L44.2608 82.9511L43.3815 87.4943L43.2349 87.7874H42.0625L42.9418 82.3649L43.5281 79.4337H44.554L44.4074 80.8993L44.554 80.7527L45.2867 79.8734L46.1661 79.2872L46.7523 79.1406Z" fill="#030408"/>
<path d="M0.146556 79.2871H1.319L1.75867 80.6061L2.63801 85.1493V85.8821H2.93112L3.22423 85.0028L5.86224 79.8733L6.30191 79.2871H7.3278L7.03469 80.1664L5.56913 82.951L4.39668 85.2959L3.07767 87.7874H1.75867L0.439668 81.632L0 79.4337L0.146556 79.2871Z" fill="#040509"/>
<path d="M176.455 76.209H178.36V77.0883L178.214 77.2349L176.602 77.3814L175.869 78.1142L175.429 79.4332H177.481L177.334 80.3126H175.283L174.403 85.5886L173.964 87.7869H172.645L173.524 82.5109L173.817 80.4591L172.352 80.3126L172.498 79.4332H174.11L174.403 77.9677L174.99 77.0883L175.722 76.5021L176.455 76.209Z" fill="#030407"/>
<path d="M140.546 77.2344H141.718L141.572 78.993L141.425 79.2862H143.33V80.312H141.279L140.839 83.3897L140.399 86.1743L140.692 86.7605L141.865 86.9071H142.598L142.451 87.933L140.986 88.0795L139.813 87.7864L139.227 87.2002L139.08 86.7605V85.295L139.96 80.312H138.641L138.934 79.2862H140.253L140.399 77.5275L140.546 77.2344Z" fill="#04050A"/>
<path d="M192.866 77.2344H194.039L193.746 79.1396L195.504 79.2862L195.651 79.7258L195.504 80.312H193.452L193.159 82.6569L192.72 85.0018V86.614L193.306 86.9071H194.771V87.7864L194.625 87.933L193.159 88.0795L191.987 87.7864L191.401 87.0536L191.254 86.7605V85.5881L192.133 80.312H190.961V79.4327L191.107 79.2862H192.426L192.573 77.9672L192.866 77.2344Z" fill="#04050A"/>
<path d="M61.6982 77.2344H62.8706L62.5775 79.2862H64.4828L64.3362 80.312L62.431 80.4586L61.5516 85.4415V86.4674L61.6982 86.7605L62.8706 86.9071H63.6034V87.933L62.1379 88.0795L60.9654 87.7864L60.2326 87.0536L60.0861 86.0277L60.9654 80.6052L61.112 80.312H59.793L59.9395 79.2862H61.2585L61.5516 77.3809L61.6982 77.2344Z" fill="#04060A"/>
<path d="M214.266 79.1406H215.292L215.145 80.3131L214.999 80.4596L213.533 80.7527L212.507 81.6321L211.775 83.0976L211.042 86.3219L210.749 87.7874H209.43L209.723 85.5891L210.749 79.5803L210.895 79.2872H212.068V80.3131L211.921 81.339L212.507 80.4596L213.094 79.7268L214.266 79.1406Z" fill="#04050A"/>
<path d="M134.686 76.502H136.005L135.859 77.9675L134.393 86.6143L134.1 87.7868H132.781L134.54 77.2347L134.686 76.502Z" fill="#030407"/>
<path d="M87.0558 83.5371H89.6938L89.8404 83.8302L89.2542 85.1492L88.5214 86.1751L87.3489 86.9079L86.9093 87.0545H85.8834L85.1506 86.7613L84.7109 85.882L84.8575 84.8561L85.5903 83.9768L87.0558 83.5371Z" fill="#FEFEFE"/>
<path d="M124.866 83.5371H127.651L127.358 84.8561L126.478 86.0286L125.599 86.7613L124.72 87.0545H123.694L122.815 86.4682L122.668 86.0286V85.0027L123.108 84.2699L124.28 83.6837L124.866 83.5371Z" fill="#FEFEFE"/>
<path d="M221.007 80.0195H222.179L223.205 80.6058L223.791 81.6316V82.8041H218.809L218.955 81.7782L219.981 80.4592L221.007 80.0195Z" fill="#FEFEFE"/>
<path d="M10.9929 79.2871H12.1654L12.0188 80.8992L10.8463 87.7874H9.52734L9.6739 86.1752L10.8463 79.4337L10.9929 79.2871Z" fill="#030408"/>
<path d="M114.316 80.0195H115.488L116.367 80.4592L116.954 81.0454L117.1 81.4851V82.8041H112.117L112.264 81.9248L113.143 80.7523L114.316 80.0195Z" fill="#FEFEFE"/>
<path d="M26.821 79.2871H27.8469L27.9935 79.7268L26.6745 87.4942L26.5279 87.7874H25.3555V86.7615L26.5279 80.0199L26.821 79.2871Z" fill="#030509"/>
<path d="M28.2859 76.3555L28.7255 76.502L28.4324 77.9676H26.8203L26.9669 76.502L28.2859 76.3555Z" fill="#080B15"/>
<path d="M11.1387 76.502H12.8974L12.7509 77.821L12.6043 77.9675H11.1387L10.9922 77.5278L11.1387 76.502Z" fill="#070911"/>
</svg>
