<svg width="135" height="100" viewBox="0 0 135 100" fill="none" xmlns="http://www.w3.org/2000/svg">
<path d="M0 0H0.1497L2.09581 1.94611L2.17066 2.24551L2.39521 2.32036L2.91916 2.99401L3.81736 3.96706L4.34131 4.56586L4.79041 5.16466L5.38921 5.83832L6.13772 6.81137L6.51197 7.26047L6.96107 7.93412L7.48502 8.53292L7.70957 8.90718L8.23352 9.58083L8.53292 10.0299L8.83232 10.4042L9.05688 10.7784L9.35628 11.1527L9.58083 11.6018L9.95508 12.0509L10.4042 12.7245L10.9281 13.473L11.1527 13.997L11.4521 14.2964L11.6766 14.7455L11.976 15.0449L12.2006 15.5688L12.8742 16.7664L13.0988 17.0658L13.5479 17.9641L13.8473 18.2635L13.997 18.7126L14.2215 19.1617L14.4461 19.4611L14.97 20.509L15.1197 20.8832L15.7934 22.1557L16.0928 22.979L16.2425 23.0539L16.3922 23.7275L17.0658 25L17.2904 25.7485L17.5898 26.3473L17.8144 27.0958L18.1886 27.994L18.4132 28.7425L18.7874 29.7904L19.2365 31.5119L19.5359 32.4101L19.7605 33.5329L19.985 34.5808L20.1347 35.479L20.2844 35.7035L20.509 37.7245L20.6587 38.3982L20.8832 37.5L20.9581 37.4251L21.1078 36.5269L21.2575 36.3024L21.4072 35.3293L21.5569 35.1047L21.7066 34.5059L21.8563 33.982L22.006 33.3832L22.1557 33.0838L22.3054 32.5598L22.4551 31.8862L22.6048 31.6616L22.8293 30.988L23.0539 30.1646L23.4281 29.491L23.6527 28.7425L24.1018 27.5449L24.476 26.8712L24.7006 26.1227L25.8233 23.8772L25.973 23.3533H26.1227L26.2724 22.8293L26.6467 22.2305L26.9461 21.6317L27.3952 20.8084L28.1437 19.6108L28.5179 19.0868L28.7425 18.6377H28.8922L29.0419 18.2635L29.5658 17.5149L29.8652 17.0658L30.6137 16.2425L30.9131 15.7934L32.9341 13.7724L33.8323 13.0988L34.3562 12.7245L34.7305 12.5L35.0299 12.3503L35.1047 12.7994L34.8802 13.5479L34.5808 14.7455L34.4311 15.2694L34.2814 16.2425L34.1317 16.467L33.982 17.3652L33.8323 17.6646L33.7574 18.3383L33.6077 18.5629L33.458 19.4611L33.1586 20.5838L33.0089 21.1078L32.9341 21.6317L32.7844 22.0808L32.6347 22.7545L32.3353 23.8024L32.2604 24.1766L32.1107 24.8503L32.0359 24.9251L31.8862 25.8233L31.7365 26.1227L31.5868 26.9461L31.4371 27.5449L31.2874 28.2185L31.1377 28.6676L30.988 29.3413L30.6886 30.5389L30.2395 32.485L30.0898 32.8592L30.0149 33.6077L29.7904 34.0568L29.7155 34.7305L29.5658 34.955L29.491 35.7035L29.2664 36.2275L29.1916 36.9012L29.0419 37.0509L28.8922 37.9491L28.0688 41.2425L27.994 41.3173L27.8443 42.2155L27.5449 43.4131L27.2455 44.461L27.1706 44.6107L27.0209 45.5089L26.8712 46.0329L26.7215 46.7814L26.5718 47.2305L26.4221 47.9041L26.1976 48.8772L26.0479 49.3263L25.8982 49.9999L25.5239 51.4221L25.4491 52.1706L25.2994 52.3203L25.1497 53.2934L25 53.5179L24.8503 54.4161L24.7006 54.7155L24.6257 55.3892L24.476 55.6137L24.3263 56.5119L24.1766 57.0359L24.0269 57.6347L23.8772 58.1586L23.8024 58.6826L23.6527 59.2065L23.503 59.8053L23.4281 59.8802L23.2784 60.7784L23.1287 61.3023L22.9042 61.976L22.7545 62.949L22.6048 63.1736L22.4551 63.9969L22.3054 64.5209L22.1557 65.2694L21.8563 66.467L21.5569 67.5897L21.3323 68.5628L21.1826 69.2364L21.0329 69.7604L20.8832 70.6586L20.6587 71.1825L20.5838 71.7813L20.4341 72.0059L20.2844 72.9041L20.1347 73.2035L20.0599 73.952L19.8353 74.6257L19.6108 75.5987L19.4611 76.1227L19.2365 77.1706L19.0868 77.6945L18.8623 78.2185L18.7126 78.0688L18.488 77.3951L18.1886 75.973L18.0389 75.2993L17.8892 74.8502L17.6646 73.8023L17.3652 72.6796L17.0658 71.4819L16.9161 70.7334L16.3922 68.6376L16.0179 67.0658L15.9431 66.5418L15.7934 66.3173L15.6437 65.4191L15.4191 64.446L15.0449 63.0239L14.6706 61.3772L14.3712 60.3293L14.1467 59.2814L13.9221 58.6077L13.7724 57.6347L13.6227 57.1107L13.3982 56.2125L12.9491 54.2664L12.7994 53.6676L12.6497 52.9939L12.5 52.5448L12.2006 51.0478L12.0509 50.7484L11.8263 49.5508L11.2275 47.3053L10.7784 45.2095L10.6287 44.7604L10.4042 43.7125L10.1796 43.0389L9.95508 41.8413L9.80538 41.3922L9.58083 40.2694L9.28143 39.1467L8.90718 37.5L8.75747 36.976L8.68262 36.4521L8.53292 36.0778L8.38322 35.3293L8.23352 34.8053L7.78442 32.8592L7.41017 31.3622L7.26047 30.6886L7.03592 29.7155L6.96107 29.6407L6.81137 28.6676L6.66167 28.3682L6.43712 27.2455L6.13772 26.1227L5.83832 24.7006L5.53892 23.5778L5.38921 22.9042L5.08981 21.7814L4.86526 20.8084L4.71556 20.2096L4.56586 19.4611L4.26646 18.3383L3.96706 16.9161L3.74251 16.2425L3.59281 15.2694L3.36826 14.6706L3.29341 14.1467L3.14371 13.6227L2.91916 12.9491L2.69461 11.7515L2.17066 9.58083L1.87126 8.38322L1.72155 7.48502L1.57185 7.26047L1.42215 6.36227L1.27245 5.83832L1.0479 4.94011L0.823352 3.96706L0.523951 2.84431L0.1497 1.27245L0 0.598802V0Z" fill="#86B23C"/>
<path d="M37.5006 30.3145H38.6234L40.1204 30.3893H43.5635L45.8839 30.3145H47.306L47.7551 30.6139L47.9797 30.8384L48.3539 31.5121L49.0276 32.4103L49.327 32.9342L49.4018 33.1588H49.5515L49.6264 33.4582H49.7761L50.3 34.2067L50.9737 35.1049V35.2546H51.1234L51.2731 35.554L51.4976 35.7785V35.9282H51.6473L52.3958 36.9761L53.294 38.0989L54.0425 39.1468L54.8659 40.1947L55.4647 41.018L56.2132 41.9911L57.1862 43.2635V43.4132H57.3359L58.0844 44.4611L58.7581 45.3593V45.509L58.9826 45.5839L59.7311 46.6318L60.779 47.9791L61.5275 49.027L62.4258 50.1498L63.5485 51.6468L64.5216 52.9192L64.6713 53.2935H64.821L65.4198 54.1168L66.1683 55.0899L67.9647 57.4851L68.8629 58.6078L68.9377 58.9072H69.0874L69.2371 59.2815H69.3868L69.8359 59.9551H69.9108V36.1528L69.6114 34.6558L69.4617 34.3564L69.312 33.7576L68.9377 33.1588L68.5635 32.4851L68.3389 32.2606V32.1109L68.0395 31.9612L67.5156 31.5869L66.7671 31.2875L66.318 31.1378L65.5695 31.063L65.4198 30.9881V30.4642L65.4946 30.3145H66.5425L69.6862 30.4642H71.8569L75.0006 30.3145H76.1982L76.3479 30.4642V30.9881L75.1503 31.2127L74.4018 31.4372L73.5036 32.036L72.9048 32.7097L72.2311 33.8324L72.0066 34.5809L71.7072 35.7785L71.6323 36.3025L71.5575 70.3593L71.2581 70.6587L70.8838 70.5839L70.285 69.9102L69.5365 68.9372L68.4886 67.515L68.3389 67.2156H68.1892L67.5904 66.3923L67.5156 66.1677H67.3659L66.9168 65.4941L66.0186 64.3713L65.1204 63.1737L64.4467 62.3503L64.0725 61.8264V61.6767H63.9228L63.324 60.8533L62.2761 59.506L61.5275 58.533L60.5545 57.2605V57.1108L60.3299 57.036L59.3569 55.6887L59.2072 55.3893H59.0575L58.6084 54.7156L57.6353 53.518L56.6623 52.2456L56.0635 51.4222L55.9886 51.1977H55.8389L55.2401 50.3743L54.8659 49.8504L54.7162 49.7755L54.4916 49.4013L53.6683 48.3534L52.6204 47.0061L51.6473 45.7336L51.3479 45.2845L50.9737 44.9102L50.2252 43.8623L50.0755 43.5629H49.9258L49.6264 43.1138L48.5785 41.7665L47.9048 40.8683V40.7186H47.7551L46.7072 39.2965L46.333 38.8474L45.809 38.1737V38.024H45.6593L45.3599 37.5749L44.6863 36.6767L44.5366 36.6019V63.3234L44.6863 64.2964L44.836 65.1946L45.0605 65.8683L45.4348 66.6168L45.8839 67.3653L46.4078 67.8893L46.9318 68.2635L47.6054 68.5629L48.9527 68.7875L49.1773 69.012L49.1024 69.3863L48.9527 69.536L46.0336 69.4611H41.318L39.0725 69.536H37.8749L37.7252 69.3114L37.8 68.8623L37.8749 68.7875L39.4467 68.5629L40.6443 67.9641L41.1683 67.515L41.3928 67.2156H41.5425L41.6922 66.8414L42.2162 65.9432L42.5156 65.1198L42.815 63.6976L42.8898 62.4252V34.5809L42.815 34.2067H42.6653L42.0665 33.4582L41.8419 33.3085V33.1588L41.5425 33.0091L41.0186 32.56V32.4103L40.7192 32.2606L40.1952 31.8863L39.1473 31.3624L38.324 31.1378L37.6503 31.063L37.4258 30.9133L37.5006 30.3145Z" fill="black"/>
<path d="M118.188 30.0898H119.76L120.433 30.1647L122.005 30.2395L123.876 30.6138L124.7 30.8383L125.374 31.0629L125.823 31.2874L126.571 31.5868L126.871 31.8114L127.394 32.1108L128.293 32.7845L129.041 33.4581L129.415 33.9072V34.0569H129.565L130.164 35.03L130.688 36.0779L131.137 37.3503L131.436 39.2216L131.511 41.1677L131.362 43.0389L131.137 44.2365L130.613 45.8084L130.014 47.006L129.415 47.9042L128.667 48.8772L128.368 49.2515L128.143 49.476H127.993L127.844 49.7754L127.619 49.8503V50L126.571 50.7485L125.897 51.1976L124.999 51.7216L123.502 52.3204L122.379 52.6946L122.23 52.7695L121.107 52.9192L120.957 52.994L118.787 53.0689L117.29 52.994L116.541 52.7695L116.391 52.4701L116.466 52.021H117.215L117.739 52.1707H119.311L120.583 51.8713L121.631 51.3473L121.93 51.1228H122.08V50.9731L122.829 50.3743L123.652 49.4012L124.176 48.5778L124.625 47.6048L124.999 46.482L125.224 45.7335L125.374 44.6856L125.523 43.488V40.1946L125.374 38.997L125.149 37.7246L124.85 36.7515L124.625 36.0779L124.101 35.03L123.876 34.6557V34.506H123.727L123.652 34.2066H123.502L123.053 33.6078L122.379 32.9342L121.631 32.4102L120.583 31.8862L119.61 31.5868L118.712 31.4371H116.841L115.718 31.6617L115.194 32.0359L114.82 32.7096L114.595 33.3833V66.2425L114.894 67.2155L115.568 67.9641L116.391 68.3383L117.14 68.5629L118.637 68.7126L120.209 68.7874L120.433 68.9371V69.3862L120.134 69.5359H118.637L115.418 69.4611H108.832L106.137 69.5359H104.939L104.715 69.3862V68.9371L104.939 68.7874L106.212 68.7126L107.484 68.488L108.383 68.0389L108.832 66.9161L108.981 65.4191V34.4312L108.832 33.009L108.383 31.8862L107.335 31.3623L106.287 31.1377L104.715 30.988V30.4641L104.865 30.3144H106.212L110.329 30.4641H112.649L115.344 30.2395L117.589 30.1647L118.188 30.0898Z" fill="black"/>
<path d="M83.4581 30.3145H84.9551L89.0718 30.4642H91.7664L95.5089 30.3145H96.7814L96.9311 30.539V30.9133L96.4071 31.063L95.5089 31.1378L94.6856 31.3624H94.461V31.5121L94.1616 31.6618L93.7125 32.1857L93.4131 33.0091L93.3383 33.9821L93.2634 66.4671L93.1137 69.6857L93.0389 71.033L92.8892 71.8563L92.7395 73.1288L92.4401 74.5509L92.2155 75.4491L91.991 76.1228L91.6167 77.021L91.0179 78.3683L90.5688 79.1168L90.3443 79.5659L89.97 79.9401L89.1467 80.988L87.8742 82.1856L87.2006 82.6348L86.976 82.8593L85.8533 83.6078L85.0299 84.0569L84.4311 84.4312L82.8593 85.1797L82.5599 85.1048L82.4102 84.9551V84.506L83.4581 83.6827L83.7575 83.3833H83.9072L84.0569 83.0839L84.2814 82.7845H84.4311L84.5808 82.4102L85.0299 81.8114L85.479 81.0629L86.003 80.015L86.4521 78.6677L86.8263 77.3952L87.1257 75.8982L87.2006 75.1497L87.3503 74.5509L87.6497 71.3324L87.7245 69.6108V34.3564L87.6497 33.3085L87.3503 32.4103L86.976 31.8863L86.4521 31.5869L86.003 31.3624L85.0299 31.1378L83.4581 30.9881L83.3832 30.9133L83.4581 30.3145Z" fill="black"/>
<path d="M129.415 94.4609H131.735L132.334 94.6106L133.082 94.91L133.606 95.434L134.055 96.3322L134.13 97.0058V97.6795L133.831 98.7274L133.082 99.4759L132.558 99.7753L131.81 99.925H129.415L129.34 99.8502V94.5358L129.415 94.4609Z" fill="black"/>
<path d="M81.36 94.4609H83.6804L84.2792 94.6106L84.6534 94.8352L85.1774 95.434L85.3271 95.9579V96.8561L85.0277 97.6046L84.6534 97.904L84.5037 97.9789V98.428L84.8031 98.952L85.2522 99.6256V99.925H84.5037L84.2043 99.5508L83.6804 98.7274L83.6055 98.5028L83.381 98.428H82.1834L82.1085 99.7753L81.884 99.9999L81.36 99.925L81.2852 99.8502V94.5358L81.36 94.4609Z" fill="black"/>
<path d="M96.3327 94.4609H98.4285L99.177 94.6106L99.7009 94.91L100.075 95.2843L100.225 95.7334L100.3 95.8831V96.931L100 97.6795L99.3267 98.1286L98.7279 98.3531L97.156 98.428L97.0812 99.8502L97.0063 99.925H96.3327L96.2578 99.7753V94.6106L96.3327 94.4609Z" fill="black"/>
<path d="M47.2292 94.4609H47.9778L48.2023 94.6855L48.5766 95.5837L48.8011 96.1076L48.9508 96.5567L49.3251 97.3801L49.4748 97.904L49.849 98.6525L50.1484 99.5508V99.925L49.6993 99.9999L49.3251 99.7753L49.0257 99.1765L48.876 98.7274L46.4059 98.6525L46.2562 99.0268L46.0316 99.7753L45.8819 99.925L45.1334 99.9999L45.0586 99.8502L45.358 98.8771L45.6574 98.2783L46.1065 97.0807L46.331 96.5567L46.7053 95.6585L46.9298 95.0597L47.2292 94.4609Z" fill="black"/>
<path d="M76.4981 94.4609H77.2467L77.3964 94.5358L77.6958 95.2094L78.1449 96.4819L78.594 97.3801L78.7437 97.904L79.1179 98.7274L79.2676 99.2514L79.4173 99.5508V99.925H78.6688L78.2946 99.1765L78.1449 98.8022L77.9952 98.7274H75.6748L75.3005 99.5508L75.1508 99.925L74.4023 99.9999L74.4772 99.2514L74.9263 98.2783L75.1508 97.5298L75.4502 97.0058L75.6748 96.2573L75.9742 95.6585L76.1987 94.91L76.4981 94.4609Z" fill="black"/>
<path d="M33.235 94.4609H33.9835L34.0584 94.6855L34.1332 96.6316L34.2829 96.7064H36.6033L36.6781 94.5358L36.753 94.4609H37.4266L37.5015 94.5358V99.925H36.753L36.6781 99.8502L36.6033 97.6795H34.1332L34.0584 99.7005L33.9835 99.925H33.235L33.1602 99.7005V94.6855L33.235 94.4609Z" fill="black"/>
<path d="M62.2741 94.4609H62.9477L63.0226 94.7603L63.0974 96.7064H65.5675V94.5358L65.7172 94.4609H66.3908L66.4657 94.5358V99.8502L66.3908 99.925H65.7172L65.5675 99.6256L65.4926 97.6795L63.0226 97.6046V99.7005L62.9477 99.925H62.2741L62.1992 99.8502V94.5358L62.2741 94.4609Z" fill="black"/>
<path d="M87.5006 94.4609H90.8689L91.0186 94.6855V95.1346L90.8689 95.2843L88.5485 95.3591L88.3988 95.5837V96.407L88.5485 96.7064L90.5695 96.7813L90.7192 96.931L90.6443 97.4549L90.5695 97.5298L88.5485 97.6046L88.3988 97.6795V98.8771L88.5485 99.0268L91.0186 99.1017L91.0934 99.1765V99.8502L91.0186 99.925H87.5006L87.4258 99.7005V94.7603L87.5006 94.4609Z" fill="black"/>
<path d="M39.9688 94.4609H43.337L43.4119 94.5358V95.1346L43.337 95.2843L41.0915 95.3591L40.9418 95.434V96.5567L41.0167 96.7064L43.0376 96.7813L43.1873 96.931L43.1125 97.5298L40.867 97.6046L40.9418 98.952L41.0167 99.0268L43.4867 99.1017L43.6364 99.2514V99.7005L43.4867 99.925H39.9688V94.4609Z" fill="black"/>
<path d="M130.463 95.2852H131.886L132.484 95.5846L133.008 96.1085L133.233 97.1564L133.158 97.6804L133.008 98.2792L132.41 98.878L131.437 99.1025H130.239L130.164 99.0277V95.5097L130.463 95.2852Z" fill="#EBECD9"/>
<path d="M70.7338 94.3867H71.2577L72.0811 94.6113L72.5302 94.8358L72.9044 95.2849L72.6799 95.6592L72.1559 95.734L71.9314 95.5095L71.2577 95.2849H70.8086L70.5841 95.4346L70.135 95.5843L69.6859 96.1083L69.4613 96.7071V97.8298L69.9104 98.5783L70.2098 98.8777L70.8086 99.0274L71.7068 98.9526L72.0811 98.728L72.5302 98.5783L72.9044 99.0274L72.7547 99.3268L72.1559 99.7759L71.4074 100H70.5841L69.7607 99.6262L69.3116 99.3268L68.8625 98.8029L68.5631 98.2041L68.4883 96.7819L68.7128 95.8089L69.2368 95.1352L69.7607 94.6861L70.2098 94.4616L70.7338 94.3867Z" fill="black"/>
<path d="M101.723 94.4609H102.396L102.771 94.91L102.995 95.3591L103.07 95.8831L103.295 96.2573L103.669 97.3052L103.818 97.6046L103.968 98.1286L104.118 98.3531L104.342 98.428L104.567 97.6795L104.941 96.7813L105.241 95.8831L105.54 95.3591L105.765 94.6106L105.989 94.4609H106.663L106.588 94.8352L106.214 95.9579L105.839 96.6316L105.69 97.3052L105.465 97.8292L105.091 98.7274L104.866 99.4759L104.567 99.925H103.818V99.7753H103.669L103.295 99.0268L103.145 98.428L102.771 97.7543L102.621 97.0807L102.247 96.407L102.097 95.8082L101.723 94.91V94.4609Z" fill="black"/>
<path d="M119.385 94.4609H119.909L120.133 94.6855L120.208 99.1017H122.528L122.603 99.1765V99.8502L122.528 99.925H119.31L119.16 99.7005V94.7603L119.235 94.5358L119.385 94.4609Z" fill="black"/>
<path d="M123.505 94.4609H127.397L127.546 94.6855V95.1346L127.397 95.2843L126.124 95.3591L125.975 95.5837L125.9 99.925H125.076L125.002 95.5837L124.927 95.3591L123.505 95.2843L123.43 95.1346V94.6106L123.505 94.4609Z" fill="black"/>
<path d="M56.2858 94.4609H60.2528L60.3277 94.5358V95.2094L60.2528 95.2843L58.8307 95.3591L58.7558 95.5088L58.681 99.8502L58.6061 99.925H57.9325L57.8576 99.7005L57.7828 95.3591L56.3606 95.2843L56.2109 95.1346V94.5358L56.2858 94.4609Z" fill="black"/>
<path d="M107.935 94.4609H111.827L111.902 94.6106V95.1346L111.752 95.2843H110.33L110.255 99.7753L110.18 99.925L109.582 99.9999L109.432 99.8502L109.357 95.2843H107.935L107.785 95.0597L107.86 94.5358L107.935 94.4609Z" fill="black"/>
<path d="M52.0944 94.4609H52.768L52.9177 94.7603L52.9926 98.952L53.1423 99.0268L55.3878 99.1017L55.4626 99.2514V99.8502L55.3878 99.925H52.0944L52.0195 99.8502V94.5358L52.0944 94.4609Z" fill="black"/>
<path d="M97.2317 95.2852H98.579L99.1778 95.5846L99.4024 96.0337V96.7073L99.103 97.3061L98.3545 97.5307H97.2317L97.082 97.3061V95.4349L97.2317 95.2852Z" fill="#E6E8D1"/>
<path d="M82.4088 95.2852H83.6064L84.2052 95.6594L84.4297 96.0337V96.9319L83.9806 97.381L83.5315 97.5307H82.1842L82.1094 97.381V95.5097L82.4088 95.2852Z" fill="#E5E8D1"/>
<path d="M76.7954 95.6582L77.2445 96.1073L77.3942 96.781L77.7684 97.3798V97.8289L77.6936 97.9037H76.1966L76.0469 97.8289L76.1217 97.3049L76.4211 96.4816L76.5708 96.0325L76.7954 95.6582Z" fill="#E0E6C9"/>
<path d="M47.5298 95.584L47.7543 95.8085L48.0537 96.3325L48.3531 97.2307L48.5028 97.4552V97.8295L48.428 97.9043H46.931L46.7812 97.8295L46.8561 97.3804L47.1555 96.557L47.3801 96.1079L47.5298 95.584Z" fill="#E0E5C9"/>
<path d="M113.547 98.7285L113.921 98.8782L114.146 99.3273L114.071 99.7016L113.846 99.9261H113.397L113.173 99.7016L113.098 99.2525L113.322 98.8034L113.547 98.7285Z" fill="black"/>
</svg>
