<svg width="300" height="64" viewBox="0 0 300 64" fill="none" xmlns="http://www.w3.org/2000/svg">
<path d="M206.871 0H229.813L235.257 0.194426L235.646 1.16656V7.19378L234.868 10.3046L234.09 11.4712L233.118 12.2489L232.146 12.6377L227.286 13.0266L224.564 13.6099L220.675 13.9987L214.065 14.1931L204.538 13.6099H199.871L190.15 14.1931H186.65L171.874 13.8043H163.902L158.07 13.9987H136.877L131.239 13.8043H119.962L112.768 13.9987L107.519 14.1931L100.519 13.8043H75.244L71.5499 13.9987H63.9673L60.4676 13.8043L50.163 13.6099L48.6076 13.4154L48.2188 12.8321V0.777706L48.4132 0.583279L61.6342 0.388853L164.68 0.194426L206.871 0Z" fill="#FDE1CF"/>
<path d="M172.067 17.3047H174.012L176.734 17.4991L179.845 18.2768L183.927 20.0267L186.649 21.9709L188.594 23.7208L190.149 25.4706L191.51 27.4149L193.649 31.4978L194.815 34.9975L195.399 38.6916V40.4414L194.815 44.1355L194.038 46.6631L192.482 50.1628L190.538 53.2736L188.01 55.9956L185.872 57.7454L183.733 59.1064L180.817 60.4674L177.706 61.2451L174.206 61.8283H170.706L166.624 61.0506L164.096 60.0785L161.18 58.5231L158.458 56.3844L156.708 54.829L154.569 51.9126L152.819 48.8018L151.847 46.0798L151.069 42.7746L150.875 41.608V36.7473L151.458 33.6365L152.625 30.5257L153.791 28.387L155.347 26.2483L157.485 23.9152L159.041 22.3598L161.957 20.2211L164.874 18.6657L167.79 17.6935L172.067 17.3047Z" fill="#FA242C"/>
<path d="M272.586 0.388672H297.472L297.667 0.583098V11.471H272.002L270.058 12.0543L268.892 12.832L267.725 14.1929L266.947 15.9428L266.559 17.6926V21.3867L267.336 23.5254L268.503 24.8864L270.253 25.8585L271.225 26.053L281.529 26.2474L288.14 26.4418L290.862 26.8307L293.195 27.6084L295.334 28.9694L297.083 31.1081L298.639 34.2189L299.417 36.7464L300 40.4405V48.2176L299.611 50.9395L298.833 53.2727L297.278 56.3835L295.528 58.3278L293.584 59.8832L290.473 61.2441L287.751 61.8274L285.223 62.0219L277.835 62.2163H258.393L258.198 62.0219L258.004 58.5222V51.5228L258.198 51.3284H277.446L283.279 51.134L286.39 50.7451L287.945 49.9674L289.306 48.412L289.89 47.2454L290.084 46.0789V42.7736L289.501 40.4405L288.334 38.6907L286.39 37.5241L284.251 37.1353L282.113 36.9408L267.919 36.7464L265.003 35.9687L262.087 34.4133L259.948 32.469L258.781 30.9136L257.42 27.8028L256.643 24.3031L256.254 21.5812V17.3038L256.643 13.9985L257.42 10.6933L258.393 7.77688L259.559 5.83261L261.309 3.88835L264.031 2.13851L267.142 0.971951L268.892 0.583098L272.586 0.388672Z" fill="#FB8C2C"/>
<path d="M20.4148 1.16602H41.4128L41.6073 1.36044V11.8595H21.5813L17.4984 12.0539L14.582 12.4427L12.2489 13.6093L11.0823 15.1647L10.3046 17.3034L10.1102 18.0811V21.7752L10.8879 24.1083L12.0544 25.6637L13.6099 26.6359L16.1374 27.0247L26.442 26.8303L30.9138 27.0247L34.9968 27.608L37.1355 28.3857L38.8853 29.5523L40.6351 31.4965L41.9961 33.8297L43.3571 37.5238L43.9404 40.4402L44.1348 42.9677V46.4674L43.7459 49.9671L42.9682 53.0779L41.4128 56.3831L40.2463 57.9385L39.4686 58.9107L37.3299 60.4661L34.6079 61.8271L33.2469 62.2159L31.4971 62.4103L25.8587 62.6048H5.63837L2.33312 62.4103L2.13869 56.5776V52.1057L2.33312 51.9113H24.6922L29.164 51.5225L31.4971 50.7448L32.6636 49.7726L33.4413 48.2172L33.8302 46.8562V42.9677L33.0525 40.6346L31.8859 39.0792L30.1361 38.3015L27.9974 37.9126L13.6099 37.7182L10.8879 37.3293L8.16591 36.3572L5.63837 34.8018L3.6941 33.052L2.33312 31.1077L1.16656 28.5801L0.388853 25.4693L0 22.7474V16.7201L0.583279 13.2205L1.36099 10.3041L2.33312 7.97094L3.88853 5.83225L5.44394 4.27684L8.16591 2.527L10.499 1.74929L13.8043 1.36044L20.4148 1.16602Z" fill="#FC8D2D"/>
<path d="M89.0462 16.332H96.6288L97.7954 18.0819L99.3508 21.1927L102.267 27.4143L104.795 33.4416L106.739 37.7189L108.683 41.8019L109.461 42.9685L110.044 43.1629L109.85 36.7468L109.461 24.1091V16.5265H118.988V62.6055H111.016L109.072 62.4111L107.517 59.3003L104.211 52.1065L98.7675 39.8576L97.2121 36.7468L96.24 34.997L95.6567 34.8025L95.8511 44.135V62.6055H89.2406L86.5186 62.4111L86.3242 36.5524V16.7209L86.5186 16.5265L89.0462 16.332Z" fill="#FB8C2C"/>
<path d="M48.4141 16.332H57.7465L57.941 46.2737L58.3298 48.9957L59.1075 51.1344L59.8852 52.3009L61.2462 53.4675L63.1905 53.8563H66.1069L68.6344 53.2731L70.1898 52.1065L70.9675 50.3567L71.5508 47.6347L71.7452 45.496L71.9397 16.5265L74.0784 16.332H80.8833L81.0777 16.5265L81.2721 29.1642L81.0777 46.4681L80.6889 51.9121L79.9111 54.8285L78.5502 57.5504L76.4115 59.8836L73.8839 61.439L71.5508 62.4111L69.6065 62.8L65.3292 63.1888H62.6072L59.4964 62.8L56.3855 61.8278L54.0524 60.4668L51.7193 58.3281L50.1639 55.6062L48.9973 52.1065L48.4141 48.218V16.332Z" fill="#FB8C2C"/>
<path d="M204.341 16.1367L205.119 16.3311L206.091 18.2754L210.174 30.9131L213.09 40.2456L214.84 45.3007L215.229 45.884L216.007 45.6895L217.368 41.6066L219.506 34.8017L223.784 21.7751L225.534 16.3311L225.728 16.1367H234.866L234.672 17.8866L233.7 21.5807L230.394 31.8853L221.062 59.8827L220.284 61.8269L219.701 62.6046H212.702L210.757 62.4102L210.174 60.6604L208.619 55.7997L205.508 46.4672L202.591 38.1069L200.064 30.7187L197.147 22.3584L195.203 16.72V16.3311L204.341 16.1367Z" fill="#FB8C2C"/>
<path d="M126.766 16.332H133.376L133.571 16.5265L133.765 42.5796L133.96 47.0514L134.543 50.3567L135.321 51.9121L136.682 52.8842L139.209 53.2731L150.486 53.4675V62.4111L142.514 62.6055H135.126L132.987 62.2167L130.654 61.0501L128.516 59.1059L127.155 57.356L125.988 55.4117L124.822 51.9121L124.433 48.6068L124.238 40.2465V16.5265L126.766 16.332Z" fill="#FB8C2C"/>
<path d="M240.117 16.1367H251.394V63.5768L251.199 63.7712H240.312V44.3286L240.117 23.7194V16.1367Z" fill="#FC8D2D"/>
<path d="M174.205 22.5527H176.149L176.927 23.3304L177.121 34.996L177.316 35.3849L178.288 35.5793H188.787L189.759 36.5514L189.953 39.8567V42.3842L189.759 43.1619L188.592 43.3564L177.121 43.5508L176.927 55.2164L176.538 56.3829L172.455 56.5774H169.539L169.15 55.9941L168.955 44.1341L168.761 43.5508L156.318 43.3564L155.734 42.3842L155.929 36.357L156.512 35.7737L168.955 35.5793L169.15 22.7472L174.205 22.5527Z" fill="#FEFCFC"/>
<path d="M235.451 7.19336H235.646V9.52648L235.063 12.8317L234.285 13.6094L232.924 14.1927L227.091 14.776H221.842L216.592 15.1648L209.009 14.9704L206.093 15.1648L205.315 15.3593V16.5258L204.343 16.3314H195.205V16.137L198.51 15.7481L197.733 15.1648L195.4 14.5816L191.511 14.776L180.429 14.9704L177.901 15.1648H173.041L165.458 14.5816H122.295L113.935 14.776H107.713L105.38 14.9704L99.1585 15.1648L96.6309 15.5537L96.4365 16.3314L86.5208 16.5258V16.3314L90.9926 15.9425L90.6037 15.5537L86.3263 14.776L71.3555 14.5816H65.5227L49.5797 13.9983L48.2188 13.8039V12.8317L48.6076 13.2206L50.163 13.415L61.2453 13.6094L63.9673 13.8039H71.7444L75.244 13.6094H101.103L107.713 13.9983L112.768 13.8039L122.101 13.6094H133.183L137.849 13.8039H158.847L164.097 13.6094H173.041L186.65 13.9983H190.15L200.649 13.415H205.315L214.259 13.9983L220.675 13.8039L225.536 13.2206L227.286 12.8317L232.146 12.4429L233.702 11.6652L234.479 10.693L235.257 8.35992L235.451 7.19336Z" fill="#FEF0E8"/>
<path d="M244.782 1.16602H247.115L249.253 1.94372L250.614 3.30471L251.975 5.63782L252.364 7.77652L251.392 9.72078L249.448 11.665L247.504 12.8316L245.171 13.026L243.226 12.4427L241.671 11.0818L240.31 9.33193L239.727 7.77652V6.2211L240.31 4.66569L241.865 2.72143L242.837 1.94372L244.782 1.16602Z" fill="#FA242C"/>
<path d="M240.31 15.748H251.587L251.781 15.9425V43.551L251.587 55.7999L251.392 63.3825H251.198V40.2458L251.392 16.1369H240.115L240.31 23.7195L240.504 44.3287V50.1615L240.31 63.7714H249.837V63.9658H240.115L239.921 63.7714L239.727 41.8012V15.9425L240.31 15.748Z" fill="#FDE1CF"/>
<path d="M174.205 22.5527H176.149V22.7472L174.399 22.9416H169.344L169.539 35.3849L169.344 35.9682L156.707 36.1626L156.318 36.5514L156.512 42.7731L157.679 42.9675L169.15 43.1619L169.344 43.3564L169.539 46.856V56.1885L176.149 55.9941L176.344 55.6052L176.732 43.5508H176.927V55.2164L176.538 56.3829L172.455 56.5774H169.539L169.15 55.9941L168.955 44.1341L168.761 43.5508L156.318 43.3564L155.734 42.3842L155.929 36.357L156.512 35.7737L168.955 35.5793L169.15 22.7472L174.205 22.5527Z" fill="#FDE1CF"/>
<path d="M118.987 16.5254H119.182L119.376 18.6641L119.571 45.4949L119.376 56.7717L119.182 62.7989H114.516V62.6045H118.987V16.5254Z" fill="#FDE1CF"/>
<path d="M48.217 16.1367H57.7439V16.3311H48.4114L48.6058 49.9669H48.4114L48.0226 46.6617L47.8281 43.162V37.7181L48.0226 17.1089L48.217 16.1367Z" fill="#FDE1CF"/>
<path d="M287.556 49.9668L287.945 50.1612L286.389 50.9389L283.278 51.3278L277.446 51.5222H258.197L258.003 56.5773H257.809V51.1334L258.197 50.9389L283.473 50.7445L286 50.5501L287.556 49.9668Z" fill="#FDE1CF"/>
<path d="M80.881 16.332H81.2699L81.4643 17.1097L81.6587 34.2193V40.8298L81.4643 47.2458L81.0755 50.7455L80.6866 52.6898L80.4922 51.9121L80.881 46.4681L81.0755 26.4422L80.881 16.332Z" fill="#FDE1CF"/>
<path d="M176.539 22.9414L176.928 23.3303L177.122 34.9958L177.317 35.3847L178.289 35.5791H188.788L189.76 36.5513L189.954 39.8565V42.3841L189.76 43.1618L188.594 43.3562L176.928 43.5506V43.1618L186.844 42.9673L189.177 42.7729L189.371 42.5785V39.6621L189.177 36.3568L188.594 35.968H177.511L176.733 35.5791L176.539 35.1903V22.9414Z" fill="#FDE1CF"/>
<path d="M31.3016 50.5508L31.6904 50.7452L29.9406 51.5229L27.6075 51.9118L24.6911 52.1062H5.054L2.33203 51.9118V51.7173L23.7189 51.5229L29.7462 51.1341L31.3016 50.5508Z" fill="#FDE1CF"/>
<path d="M95.4631 34.8027H95.6575L96.2408 39.0801V45.6906L96.0464 62.8001H90.7969V62.6057H95.852L95.6575 44.1352L95.4631 34.8027Z" fill="#FDE1CF"/>
<path d="M109.463 24.1094H109.657L110.24 42.3855L110.046 43.1632L109.268 42.9687L108.102 41.0245L108.296 40.6356L109.463 42.3855L109.851 42.5799L109.657 41.4133L109.463 33.053V24.1094Z" fill="#FDE1CF"/>
<path d="M212.121 37.1348L212.51 37.718L214.454 43.3564L215.037 44.523L215.815 45.1062L216.787 42.7731L216.982 43.3564L216.204 45.6895L215.815 46.0784L215.037 45.884L214.26 44.3285L212.121 37.9125V37.1348Z" fill="#FDE1CF"/>
<path d="M229.812 0H235.84V6.99935H235.645L235.451 3.30525V0.777706L235.256 0.388853L229.812 0.194426V0Z" fill="#FFF1E9"/>
</svg>
