<svg width="182" height="120" viewBox="0 0 182 120" fill="none" xmlns="http://www.w3.org/2000/svg">
<path d="M90.352 0L90.893 0.108205L90.7848 1.40667L90.893 3.24615L96.3033 3.35436L97.3854 3.67897L98.5757 4.54461L99.4413 5.62666L100.848 7.68256L101.497 8.76461L101.714 9.19743L101.605 9.63025L101.173 10.2795V10.9287L100.848 11.2533L100.632 12.0108L101.064 11.9026L101.389 11.2533L101.93 11.5779L101.822 12.119L101.389 12.9846L101.281 13.4174V15.4733L100.848 16.88L101.064 17.421L101.605 17.962L102.038 18.7195V19.3687L101.605 20.0179L101.281 20.559L100.956 22.182L100.415 23.1559L102.471 24.1297L104.311 25.2118L105.176 26.0774L106.367 28.1333L107.232 29.8646L107.99 31.163L107.881 31.9205L107.34 32.1369H106.15L105.068 31.7041L104.635 30.8384L104.094 29.54L103.012 28.1333L101.389 26.7266L101.173 26.5102L102.038 28.2415L103.337 30.7302L104.202 32.6779L105.068 33.4354L107.232 34.6256L108.314 35.383L109.396 36.2487L110.478 37.4389L111.56 38.8456L112.642 40.0359L112.751 40.7933L112.859 41.7671L114.482 46.3118L115.239 48.3676L115.78 49.7743L116.321 50.9646V51.5056L115.889 52.0466L115.672 52.9123L115.78 53.7779L115.997 54.5353L115.889 55.6174L115.131 58.4307L114.482 59.9456L113.616 62.5425L113.292 64.1656L112.859 65.1394L112.101 65.8969L111.128 67.3035L110.803 68.4938L110.37 68.9266L109.504 69.2512L108.206 70.0087L106.799 71.1989L103.661 73.363L102.471 74.2287L101.93 74.7697L101.714 75.2025L101.389 75.4189L100.415 75.6353L98.4675 75.8517L96.9526 76.1763L95.7623 76.0681H86.7812L85.3745 75.9599L85.0499 75.7435H82.5611L82.2365 75.4189V75.2025L81.8037 74.9861L80.7216 73.904L78.6657 72.4974L76.718 71.0907L74.9867 69.9005L73.7964 69.0348L73.039 68.1692L71.8487 66.3297L70.7666 65.0312L70.2256 63.841L68.9271 59.9456L67.9533 56.8076L67.4123 56.0502L66.9794 55.8338V55.1846L67.8451 54.4271L67.9533 54.2107V53.0205L67.1958 51.8302L67.304 51.0728L67.9533 49.4497L68.9271 46.8528L70.442 42.0918L70.7666 41.0097L70.9831 39.9277L71.7405 39.2784L72.2815 38.7374L73.039 37.8718L73.58 36.8979L74.6621 35.8159L76.6098 34.4092L78.1247 33.3272L79.2067 32.5697L79.7478 32.2451H79.9642L80.2888 30.9466V29.8646L80.5052 28.1333L80.938 26.8348L81.9119 25.861L83.6432 24.779L85.3745 23.5887L87.3222 22.182L87.4304 21.9656L86.9976 22.0738L85.5909 22.8313L83.9678 23.9133L82.7775 24.6707L81.3709 25.5364L79.3149 26.5102L77.5836 27.0513H76.6098L75.3113 26.8348L74.4457 26.2938V26.1856L77.3672 25.4282L79.7478 24.4543L82.3447 23.1559L84.7253 21.8574L86.5648 21.1L87.755 20.9918L88.1879 20.8836L88.4043 20.4508L88.8371 20.0179L89.0535 19.9097L87.214 20.1261L85.9155 20.4508L85.8073 20.559L83.8596 20.6672H82.994L77.5836 21.7492L73.6882 22.0738L71.5241 22.182L70.0092 22.0738L71.0913 22.9395L72.1733 23.5887L72.7144 23.6969H74.5539L77.5836 22.9395L81.3709 21.641L84.2924 20.8836L84.7253 20.9918L83.2104 21.8574L82.0201 22.3984L80.397 23.0477L76.5016 24.6707L74.3375 25.4282L73.3636 25.32L72.2815 24.779L71.0913 23.9133L69.5764 22.6149L66.6548 19.6933L65.681 18.5031L64.8153 17.0964L64.5989 16.339L65.0317 16.5554L66.5466 17.7456L68.0615 18.7195L69.2518 19.2605L71.0913 19.6933L72.7144 19.9097L75.2031 20.0179L78.9903 19.9097L83.2104 19.5851L88.8371 18.9359L90.352 18.7195V18.3949L89.1617 18.2867H87.9714L85.1581 18.6113L79.7478 19.0441H73.7964L71.4159 18.7195L69.2518 18.0702L67.304 17.2046L66.1138 16.339L64.8153 15.1487L63.9497 14.0667L63.084 12.5518L62.543 11.0369V10.8205L62.9758 10.9287L64.2743 12.119L65.3563 13.0928L66.5466 13.8502L68.8189 14.8241L71.4159 15.5815L73.58 15.9061L76.0688 16.1226L79.9642 16.2308L79.0985 15.7979L78.2329 14.6077L77.6918 13.0928L77.4754 11.9026L78.0165 12.4436L78.8821 13.6338L79.9642 15.0405L80.8298 15.9061L81.6955 16.4472L84.1842 16.7718H87.9714L84.9417 16.5554L83.535 16.1226L82.6693 15.6897L81.2627 14.4995L80.397 13.742L79.3149 12.5518L78.2329 11.0369L77.6918 9.95486L77.3672 8.43999L77.0426 6.4923V5.62666H77.3672L78.0165 6.4923L79.0985 8.22358L80.1806 9.63025L81.1544 10.7123L82.1283 11.6861L83.7514 12.8764L86.4566 14.2831L88.9453 15.3651L91.0012 16.2308L91.2176 16.339L91.8669 15.0405L93.1653 13.6338L94.1392 12.4436L95.1131 10.3877L96.1951 9.30563L96.9526 8.43999L97.6018 7.68256L97.71 7.35794L97.3854 6.16769L96.9526 5.51846L96.4115 5.08564L95.7623 4.86923L91.1094 4.76102L90.2438 4.3282L89.811 3.67897L89.4863 2.27231L89.3781 0.973845L89.2699 0.21641L90.352 0Z" fill="#AF162C"/>
<path d="M90.352 0L90.893 0.108205L90.7848 1.40667L90.893 3.24615L96.3033 3.35436L97.3854 3.67897L98.5757 4.54461L99.4413 5.62666L100.848 7.68256L101.497 8.76461L101.714 9.19743L101.605 9.63025L101.173 10.2795V10.9287L100.848 11.2533L100.632 12.0108L101.064 11.9026L101.389 11.2533L101.93 11.5779L101.822 12.119L101.389 12.9846L101.281 13.4174V15.4733L100.848 16.88L101.064 17.421L101.605 17.962L102.038 18.7195V19.3687L101.605 20.0179L101.281 20.559L100.956 22.182L100.415 23.1559L102.471 24.1297L104.311 25.2118L105.176 26.0774L106.367 28.1333L107.232 29.8646L107.99 31.163L107.881 31.9205L107.34 32.1369H106.15L105.068 31.7041L104.635 30.8384L104.094 29.54L103.012 28.1333L101.389 26.7266L101.173 26.5102L102.038 28.2415L103.337 30.7302L104.202 32.6779L105.068 33.4354L105.717 33.76L105.284 33.8682H104.743L104.635 34.6256L104.311 34.7338L103.986 35.2748H103.77L103.661 35.5995L103.229 35.8159L102.688 35.7077L102.038 34.9502L101.064 33.9764L99.5495 32.6779L98.3593 31.9205L97.9264 31.7041V31.4877L97.3854 31.2713L96.5197 30.4056L95.8705 30.2974L94.7884 30.5138L92.9489 31.3795L92.4079 31.8123L92.0833 32.3533L90.0274 32.8943L89.0535 33.5436L87.755 34.7338L86.7812 35.8159L86.0237 36.6815L85.8073 36.7897L85.2663 37.7636L84.5088 38.521L83.6432 39.9277L83.4268 40.6851V41.0097L82.7775 41.1179L82.8858 41.4425H81.5873L80.5052 41.7671L80.7216 41.4425H79.9642L80.2888 40.7933L79.856 40.2523L79.3149 40.3605L79.0985 40.6851L78.7739 40.7933H77.4754L76.9344 40.4687L77.0426 40.0359L77.9083 38.8456L78.0165 38.521V37.7636H77.6918L76.5016 38.521L75.8523 38.9538L74.8785 39.062L74.4457 38.8456V38.7374L74.121 38.6292L74.8785 37.4389L76.6098 35.7077L77.8001 34.7338L78.4493 34.1928L78.7739 33.9764H79.0985L79.3149 33.4354L79.9642 32.6779L80.397 31.7041L80.2888 30.9466V29.8646L80.5052 28.1333L80.938 26.8348L81.9119 25.861L83.6432 24.779L85.3745 23.5887L87.3222 22.182L87.4304 21.9656L86.9976 22.0738L85.5909 22.8313L83.9678 23.9133L82.7775 24.6707L81.3709 25.5364L79.3149 26.5102L77.5836 27.0513H76.6098L75.3113 26.8348L74.4457 26.2938V26.1856L77.3672 25.4282L79.7478 24.4543L82.3447 23.1559L84.7253 21.8574L86.5648 21.1L87.755 20.9918L88.1879 20.8836L88.4043 20.4508L88.8371 20.0179L89.0535 19.9097L87.214 20.1261L85.9155 20.4508L85.8073 20.559L83.8596 20.6672H82.994L77.5836 21.7492L73.6882 22.0738L71.5241 22.182L70.0092 22.0738L71.0913 22.9395L72.1733 23.5887L72.7144 23.6969H74.5539L77.5836 22.9395L81.3709 21.641L84.2924 20.8836L84.7253 20.9918L83.2104 21.8574L82.0201 22.3984L80.397 23.0477L76.5016 24.6707L74.3375 25.4282L73.3636 25.32L72.2815 24.779L71.0913 23.9133L69.5764 22.6149L66.6548 19.6933L65.681 18.5031L64.8153 17.0964L64.5989 16.339L65.0317 16.5554L66.5466 17.7456L68.0615 18.7195L69.2518 19.2605L71.0913 19.6933L72.7144 19.9097L75.2031 20.0179L78.9903 19.9097L83.2104 19.5851L88.8371 18.9359L90.352 18.7195V18.3949L89.1617 18.2867H87.9714L85.1581 18.6113L79.7478 19.0441H73.7964L71.4159 18.7195L69.2518 18.0702L67.304 17.2046L66.1138 16.339L64.8153 15.1487L63.9497 14.0667L63.084 12.5518L62.543 11.0369V10.8205L62.9758 10.9287L64.2743 12.119L65.3563 13.0928L66.5466 13.8502L68.8189 14.8241L71.4159 15.5815L73.58 15.9061L76.0688 16.1226L79.9642 16.2308L79.0985 15.7979L78.2329 14.6077L77.6918 13.0928L77.4754 11.9026L78.0165 12.4436L78.8821 13.6338L79.9642 15.0405L80.8298 15.9061L81.6955 16.4472L84.1842 16.7718H87.9714L84.9417 16.5554L83.535 16.1226L82.6693 15.6897L81.2627 14.4995L80.397 13.742L79.3149 12.5518L78.2329 11.0369L77.6918 9.95486L77.3672 8.43999L77.0426 6.4923V5.62666H77.3672L78.0165 6.4923L79.0985 8.22358L80.1806 9.63025L81.1545 10.7123L82.1283 11.6861L83.7514 12.8764L86.4566 14.2831L88.9453 15.3651L91.0012 16.2308L91.2176 16.339L91.8669 15.0405L93.1653 13.6338L94.1392 12.4436L95.1131 10.3877L96.1951 9.30563L96.9526 8.43999L97.6018 7.68256L97.71 7.35794L97.3854 6.16769L96.9526 5.51846L96.4115 5.08564L95.7623 4.86923L91.1094 4.76102L90.2438 4.3282L89.811 3.67897L89.4863 2.27231L89.3781 0.973845L89.2699 0.21641L90.352 0Z" fill="#595A5D"/>
<path d="M40.3595 86.2402H42.8483L43.9303 86.5648L45.337 87.5387L45.9863 88.2961L46.6355 89.3782L47.1765 91.0013L47.3929 92.1915V95.113L46.9601 96.8443L46.2027 98.251L45.4452 99.2248L44.6878 99.8741L42.9565 100.74L41.658 100.956H39.3857L38.1954 100.523L37.3298 99.8741L36.4641 98.9002L35.4903 97.3854L35.0574 96.1951L34.9492 95.3295V92.6243L35.382 90.6766L35.9231 89.3782L36.6805 88.2961L37.7626 87.2141L39.2775 86.4566L40.3595 86.2402Z" fill="#BB5166"/>
<path d="M49.4492 86.2402L54.5349 86.3484L54.8595 86.7813L56.0498 90.7848L56.9155 94.031L57.2401 94.3556H57.4565L57.7811 93.3818L58.6468 91.2177L59.296 89.7028L60.3781 86.9977L60.7027 86.4566L60.9191 86.3484H64.9227L65.3555 86.5648V87.1059L64.3817 87.9715L64.2735 94.7884V97.0607L64.3817 98.5756L65.0309 100.632V100.956L60.5945 101.064L60.1616 100.956V99.9823L60.5945 99.0084L60.8109 97.9264L60.9191 96.7361L61.0273 93.3818V91.0013L60.9191 89.811L60.8109 89.7028L60.2698 90.8931L59.7288 92.6243L59.0796 94.1392L58.2139 96.0869L56.9155 98.6838L56.4826 99.1166L55.9416 99.0084L55.4006 98.1428L54.5349 96.0869L53.4529 93.0572L52.6954 91.3259L52.2626 90.6766L51.938 90.5684L52.2626 96.8443L52.479 98.4674L53.02 100.307L53.1282 101.064H50.7477L49.882 100.956L49.7738 100.848V100.09L50.2067 98.5756L50.4231 96.0869V93.5982L50.3149 89.811L50.2067 88.0797L49.4492 86.5648V86.2402Z" fill="#A64A58"/>
<path d="M110.908 86.3457H116.102L116.426 86.8867L117.941 92.1888L118.374 93.9201L118.807 94.3529L119.131 93.9201L120.322 90.5657L121.187 88.618L121.728 86.5621L122.161 86.3457H126.706L126.49 86.8867L125.948 87.8606L125.624 88.7262L125.516 97.1662L125.624 98.3565L126.165 100.304V100.953H122.161L121.404 100.845L121.512 100.196L121.945 99.6549L122.269 98.5729L122.486 96.3006L122.594 93.9201V89.4836L122.269 89.8083L121.728 90.9985L120.646 93.9201L119.564 96.4088L118.915 98.0318L118.266 99.2221H117.725L117.076 98.4647L116.21 96.7334L114.587 92.5134L114.046 91.2149L113.505 90.2411L113.288 90.1329L113.613 93.2708L113.829 98.2483L114.262 99.6549L114.803 100.737V100.953H111.557L111.341 100.845L111.449 99.7631L111.882 97.2744V87.6442L111.341 87.4278L110.8 87.1031L110.691 86.5621L110.908 86.3457Z" fill="#BB5166"/>
<path d="M83.7539 86.2402H88.0822L89.056 86.3484L89.2724 86.6731L88.8396 87.5387L88.4068 88.0797L88.0822 89.811V91.3259L88.2986 92.0833L88.515 92.1915H90.8955L92.194 91.9751L92.4104 91.8669V89.0536L92.0858 87.7551L91.3283 86.8895L91.4366 86.3484H96.0894L96.8469 86.4566L96.9551 86.6731L96.6305 87.5387L96.1976 88.0797L95.9812 89.1618V97.71L96.3058 99.2248L96.7387 100.956H94.1417L91.653 100.74L91.7612 99.9823L92.0858 99.2248L92.3022 97.6018V94.2474L92.0858 94.1392H88.9478L88.1904 94.3556L88.0822 94.8966V97.3854L88.515 99.1166L89.1642 100.848V100.956H85.5934L84.1867 100.848L84.0785 100.415L84.5114 98.6838L84.6196 97.8182L84.7278 91.6505V88.4043L84.5114 87.6469L84.0785 87.4305L83.7539 86.6731V86.2402Z" fill="#BB5166"/>
<path d="M101.389 86.2402H108.855L108.963 86.5648L109.071 88.0797V90.2438L108.53 90.0274L107.557 89.0536L106.583 88.4043L105.717 88.1879H104.527L103.445 88.4043L103.336 88.6207V91.7587L103.553 92.1915L103.877 92.2997H105.176L106.366 91.1095L107.015 91.0013L107.232 91.8669L107.34 94.1392L107.124 95.3295L106.907 95.5459H106.366L105.284 94.572L104.094 94.1392L103.553 94.2474L103.336 94.6802L103.228 95.7623V97.6018L103.445 98.6838L103.661 98.792H105.609L106.799 98.3592L107.557 97.1689L108.314 96.3033L108.855 96.1951L109.071 96.5197V98.4674L108.639 100.523L108.422 100.848L107.124 100.956H100.09L99.0082 100.74L98.9 99.9823L99.441 99.0084L99.6575 98.792L99.8739 96.4115V90.352L99.7657 88.5125L99.5492 87.8633L98.7918 87.1059L98.6836 86.4566L98.9 86.3484L101.389 86.2402Z" fill="#BC5267"/>
<path d="M153.106 86.1309H154.188L155.379 86.3473L155.703 86.7801L157.326 92.1903L158.95 97.4924L159.599 99.2237L160.14 100.414V100.63L159.923 100.739H154.946L154.621 100.63L154.946 99.6565L155.271 98.7908V97.3842L155.162 96.6267L154.513 96.4103H150.618L150.185 97.7088V98.4662L151.051 99.8729L151.267 100.739H147.804L147.047 100.63L147.263 99.9811L148.129 98.2498L148.886 96.5185L150.293 92.7314L151.7 89.4852L152.89 86.3473L153.106 86.1309Z" fill="#A74958"/>
<path d="M8.22368 86.1309L8.6565 86.3473L8.98112 87.3211L9.84677 90.1344L11.2535 94.7873L12.6601 99.3319L13.093 100.414V100.63L12.6601 100.739H8.11547L7.89906 100.63L8.00727 99.9811L8.5483 98.6826V97.4924L8.33188 96.5185L3.78722 96.4103L3.24619 98.0334V98.6826L4.11184 99.8729L4.22005 100.63H0.108206L0 100.306L0.649238 99.3319L1.08206 98.5744L2.05592 96.5185L3.67901 92.4068L5.1939 88.7278L6.05955 86.6719L6.70879 86.2391L7.57444 86.3473L8.22368 86.1309Z" fill="#BB5166"/>
<path d="M14.0656 86.3457H19.8006L19.5842 86.8867L19.2595 87.536L19.3677 88.4016L19.9088 89.9165L20.6662 90.9985L20.8826 91.2149L21.3155 90.6739L22.6139 88.9426L23.0468 87.8606L22.0729 86.9949L21.8565 86.4539L21.9647 86.3457H26.1847L25.9683 86.8867L24.7781 88.618L23.5878 90.0247L22.3975 91.5395L21.7483 92.5134L21.8565 93.0544L23.155 95.2185L24.6699 97.599L25.9683 99.8713L26.4012 100.737L25.8601 100.845H23.3714L21.2073 100.737L20.7744 100.304L20.9908 99.6549L21.4237 99.0057L21.3155 98.1401L20.2334 96.0842L19.6924 95.3267L19.2595 95.5431L18.2857 96.8416L17.3118 98.2483L17.42 99.0057L17.8529 99.5467L18.1775 100.629L18.0693 100.737H16.4462L13.6328 100.629L14.2821 99.7631L15.2559 98.5729L16.338 97.058L17.42 95.7595L18.6103 94.1365L18.5021 93.4872L17.3118 91.5395L15.9051 89.5919L14.3903 87.3195L14.0656 86.3457Z" fill="#A74957"/>
<path d="M176.913 86.1309H178.969L180.483 86.4555L181.782 87.1047L181.998 87.4293L181.89 89.918L181.674 90.2427L180.808 89.5934L179.51 88.295L178.644 87.8621H177.67L176.696 88.1868L176.155 88.6196L175.831 89.1606L175.939 90.0262L176.48 90.6755L179.726 92.8396L181.024 93.9216L181.674 94.8955L181.998 95.9775V97.3842L181.565 98.358L180.7 99.3319L179.185 100.306L178.211 100.63L176.047 100.847L173.991 100.63L173.342 100.306L172.909 99.4401L172.801 98.6826V97.0596L173.125 96.735L173.775 96.8432L174.424 97.817L174.965 98.6826L175.614 99.0073L176.263 99.1155H177.129L178.211 98.7908L178.86 98.358L178.969 98.2498V97.3842L178.536 96.5185L177.237 95.4365L175.29 94.0298L174.099 93.056L173.342 92.1903L172.909 91.3247L172.801 90.5673L173.017 89.2688L173.558 88.1868L174.099 87.5375L175.506 86.6719L176.48 86.2391L176.913 86.1309Z" fill="#BB5166"/>
<path d="M77.1486 86.2402H80.503L81.6933 86.4566L82.1261 89.0536L82.2343 90.0274H81.4768L80.7194 89.811L79.8538 88.8372L79.3127 88.1879L78.7717 87.8633L77.7978 87.9715L76.9322 88.2961L76.1747 88.9454L75.5255 90.2438L75.2009 91.7587L75.0927 93.0572V94.4638L75.4173 96.1951L75.9583 97.4936L76.7158 98.6838L77.1486 99.0084H78.1225L79.4209 98.4674L79.962 97.9264L81.044 96.7361L81.2604 96.6279H81.9097L82.1261 97.3854L81.9097 99.4412L81.6933 100.415L81.3686 100.632L77.906 100.956L75.8501 101.064L74.7681 100.523L74.0106 99.8741L72.9286 98.4674L72.0629 96.7361L71.7383 95.4377V92.6243L72.1711 90.7848L73.0368 89.0536L74.0106 87.7551L75.3091 86.7813L76.4994 86.3484L77.1486 86.2402Z" fill="#BB5166"/>
<path d="M141.208 86.2402H144.13L145.537 86.5648L145.969 86.9977L146.078 88.9454L146.186 90.0274L146.078 90.1356L145.212 90.0274L144.671 89.4864L144.238 88.6207L143.697 88.1879L142.94 87.9715H141.858L140.884 88.4043L140.343 89.0536L139.802 90.1356L139.477 91.5423L139.369 92.5161V94.572L139.693 96.3033L140.235 97.6018L140.776 98.4674L141.317 99.0084L141.641 99.1166H143.156L143.805 98.6838L144.455 97.8182L145.104 96.7361L145.861 96.6279L146.078 96.8443V97.8182L145.645 99.4412L144.996 100.415L144.455 100.74L143.048 100.956H140.018L139.044 100.632L137.962 99.6577L136.988 98.251L136.339 96.9525L136.014 95.7623L135.906 95.0048V92.2997L136.231 90.7848L137.097 89.0536L138.07 87.7551L138.611 87.3223L140.343 86.4566L141.208 86.2402Z" fill="#BC5267"/>
<path d="M161.439 86.3457H166.849L167.066 86.5621L166.958 87.1031L166.092 87.6442H165.876L165.984 99.0057H167.499L168.689 98.7893L169.23 98.4647L170.096 96.7334L170.312 96.0842L170.42 95.976H171.069L171.286 96.0842L171.394 96.8416L170.961 99.9795L170.745 100.412L169.879 100.629L168.148 100.737H162.521L161.764 100.629V99.7631L162.305 99.1139L162.413 98.6811V87.536L161.547 87.3195L161.223 86.8867V86.4539L161.439 86.3457Z" fill="#A64A58"/>
<path d="M91.4314 47.9336L92.297 48.0418L93.0545 48.4746L94.5694 49.6649L96.1925 51.1797L96.7335 51.7208L96.6253 52.2618L96.0843 52.6946H95.8678L95.976 53.4521L95.6514 54.5341L94.7858 56.9146L94.0283 57.131L92.297 57.2392H89.9165L88.9426 57.0228L88.5098 56.4818L88.077 55.6162L87.4278 53.7767L86.8867 51.9372L86.9949 51.3962L87.4278 50.8551L88.4016 50.2059L89.8083 49.0156L90.6739 48.2582L91.4314 47.9336Z" fill="#FFFFFE"/>
<path d="M49.4492 86.2402L54.5349 86.3484L54.8595 86.7813L56.0498 90.7848L56.4826 92.4079L56.3744 93.2736L56.5908 94.031V94.4638H56.2662V95.3295L56.5908 95.5459L56.4826 95.9787V96.4115L55.9416 95.9787L56.0498 96.7361L55.8334 97.1689H55.5088L56.158 97.9264L56.3744 98.1428L56.158 98.6838L55.7252 98.792L54.6431 96.4115L53.4529 93.0572L52.6954 91.3259L52.2626 90.6766L51.938 90.5684L52.2626 96.8443L52.479 98.4674L53.02 100.307L53.1282 101.064H50.7477L49.882 100.956L49.7738 100.848V100.09L50.2067 98.5756L50.4231 96.0869V93.5982L50.3149 89.811L50.2067 88.0797L49.4492 86.5648V86.2402Z" fill="#BB5166"/>
<path d="M76.4982 42.8477H78.7705L78.9869 43.3887L79.0951 45.3364L79.4198 47.1759V49.1235L78.6623 49.9892L77.3638 51.5041L76.1736 52.9107L75.4161 53.56L74.8751 53.4517L73.5766 52.2615L72.4946 51.2876L71.7371 50.7466L71.6289 50.5302V49.7728L72.9274 45.8774L73.6848 43.4969L74.1177 43.1723L74.7669 42.9559L76.4982 42.8477Z" fill="#FFFFFE"/>
<path d="M104.631 62.002L105.389 62.1102L105.822 63.084L106.796 65.8973V66.6548L105.605 67.5204L103.874 68.8189L101.926 70.2255L100.628 71.0912H99.9786L98.7884 70.2255L97.7063 69.4681L96.4078 68.9271L96.1914 68.4943L96.9489 67.1958L97.7063 66.1137L99.0048 64.1661L99.7622 63.4086L100.411 63.084L103.658 62.3266L104.631 62.002Z" fill="#FFFFFE"/>
<path d="M122.165 86.3457H126.71L126.493 86.8867L125.952 87.8606L125.628 88.7262L125.519 97.1662L125.628 98.3565L126.169 100.304V100.953H122.165L121.407 100.845L121.516 100.196L121.949 99.6549L122.273 98.5729L122.49 96.3006L122.598 93.9201V89.4836L122.273 89.8083L121.732 90.9985L120.65 93.9201L120.001 95.4349H119.784V94.6775L119.893 93.9201L119.46 94.1365L119.352 94.0283V93.2708L120.434 90.3493L121.299 88.2934L121.732 86.5621L122.165 86.3457Z" fill="#A64A58"/>
<path d="M78.6649 62.2168L82.8849 62.9742L83.5342 63.2988L84.3998 63.8399L85.1573 64.8137L86.2393 66.545L86.9968 67.7353L87.3214 68.3845L87.2132 68.8173L86.2393 69.5747L84.3998 70.6568L83.8588 71.0896H83.1014L81.5865 70.1158L79.5305 68.6009L78.4485 67.7353L77.15 66.7614L76.9336 66.2204L77.15 65.6794L77.4746 64.1645L78.1239 62.4332L78.6649 62.2168Z" fill="#FFFFFE"/>
<path d="M108.64 42.6328L109.181 42.741L110.263 45.4461L111.345 48.4759L111.778 49.8825V50.64L110.263 51.6138L109.181 52.5877L108.315 53.2369L107.666 53.1287L107.125 52.5877L106.151 51.3974L105.177 50.099L104.42 48.9087L104.203 48.0431V46.2036L104.42 43.3902L104.636 43.0656L104.961 42.9574L107.774 42.741L108.64 42.6328Z" fill="#FFFFFE"/>
<path d="M40.7911 87.7539H42.0896L42.9552 88.5113L43.4963 89.2688L43.9291 90.5672L44.1455 92.8395V95.5447L43.8209 97.2759L43.2798 98.2498L42.306 99.0072L41.3321 99.3318L40.2501 99.1154L39.3844 98.1416L38.5188 96.4103L38.1941 95.3283L38.0859 94.4626V93.3806L38.3024 91.4329L38.8434 89.5934L39.6008 88.4031L40.3583 87.8621L40.7911 87.7539Z" fill="#FFFFFE"/>
<path d="M90.0247 32.7871H91.1068L91.8642 32.8953V33.1117L92.1889 33.0035H94.2448L95.2186 33.3281L95.8679 34.1938L96.7335 35.9251L97.0581 36.7907V37.4399L95.8679 38.1974L93.812 39.1712L91.8642 39.8204L90.8904 39.7122L89.4837 39.1712L87.9688 38.4138L85.9129 37.4399L85.8047 36.8989L86.7785 35.7086L88.2934 34.0856L89.5919 33.0035L90.0247 32.7871Z" fill="#FFFFFE"/>
<path d="M27.5898 86.3457H32.1345L33.0002 86.4539L33.1084 86.6703L32.7837 87.3195L32.3509 87.6442H32.1345L32.0263 91.6477V96.9498L32.2427 98.4647L32.892 100.412V100.953H28.7801L28.1309 100.737L28.2391 99.5467L28.4555 97.8154V89.7001L28.3473 87.9688L27.6981 86.7785L27.5898 86.3457Z" fill="#BB5166"/>
<path d="M128.657 86.3457H133.851L134.175 86.4539L133.959 87.2113L133.634 87.536L133.093 87.6442L132.985 91.3231V96.4088L133.093 98.3565L133.31 99.2221L133.634 99.7631L133.742 100.845L129.522 100.953L128.873 100.737L128.765 100.088L129.198 99.4385L129.522 99.3303V87.9688L128.44 86.9949L128.332 86.5621L128.657 86.3457Z" fill="#A64A58"/>
<path d="M79.5262 57.457H80.8247L81.6904 57.7816L84.0709 59.2965L85.3694 60.3786L86.8843 61.4606L88.2909 62.3263L89.8058 63.6247L90.6715 64.4904L91.2125 65.5724L91.4289 66.5463V67.8447L91.1043 68.1693L90.6715 68.2775H88.7238L88.0745 67.7365L87.3171 66.6545L85.9104 64.2739L85.2612 63.0837L85.4776 62.5427V61.5688L84.7201 61.677L84.1791 62.1098L80.7165 61.7852L78.6606 61.2442L78.1196 60.8114L77.6867 59.9457L77.2539 58.7555L77.3621 58.2145L78.1196 57.8899L79.5262 57.457Z" fill="#FFFFFE"/>
<path d="M84.9391 38.3047H85.6965L89.2674 39.9278L90.8904 40.9016L91.8643 41.4426L92.2971 41.3344L92.73 40.6852L95.0023 39.4949L97.3828 38.4129H98.0321L99.6552 39.3867L100.088 39.8196V40.036H99.8716L99.6552 40.6852L98.8977 41.7672L98.3567 42.3083L97.491 42.6329L90.4576 42.7411H85.6965L85.1555 42.4165L84.0735 41.4426L83.7488 41.118L83.6406 40.1442L84.3981 38.9539L84.9391 38.3047Z" fill="#FFFFFE"/>
<path d="M13.5234 109.721H17.2025L18.3927 109.937L19.1502 110.586L19.6912 111.452L19.7994 111.777V112.967L19.1502 113.941L17.8517 115.239L18.5009 116.213L19.9076 117.944L20.8815 119.459L20.9897 120L20.2322 119.892L19.3666 119.135L18.2845 117.728L17.2025 116.213L16.445 115.564L15.7958 115.239H15.1465V119.892L13.7399 120L13.6316 110.045L13.5234 109.721Z" fill="#595A5D"/>
<path d="M153.33 88.5117L153.655 88.6199L154.088 90.0266L154.196 91.0004L154.629 90.8922L154.737 90.3512L154.953 90.6758L155.386 91.7579L155.711 92.2989V92.5153H155.927L156.36 93.2727L157.009 95.6533L157.334 96.0861L157.442 96.5189L157.767 96.9517L158.199 97.9256L158.308 98.3584L158.524 98.4666L158.416 98.683L158.74 99.3322L159.39 99.765L159.606 100.09L160.039 100.198L160.147 100.631L159.931 100.739H154.953L154.629 100.631L154.953 99.6568L155.278 98.7912V97.3845L155.17 96.6271L154.52 96.4107L150.625 96.3025V96.1943H151.599L151.707 95.3286L151.923 95.004H150.95L151.058 94.5712L152.248 91.6497L152.897 90.0266L153.114 89.5938L153.33 88.5117Z" fill="#BB5166"/>
<path d="M8.22368 86.1309L8.6565 86.3473L8.98112 87.3211L9.84677 90.1344L11.2535 94.7873L12.6601 99.3319L12.7683 100.089L12.3355 99.8729L12.0109 99.4401V99.1155L11.6863 99.0073L11.2535 98.0334L10.8206 97.276L10.7124 96.8432L10.496 95.7611H10.7124V94.7873L10.2796 93.7052V93.3806L9.84677 93.1642L9.30574 91.6493L8.87292 91.0001L8.76471 90.4591H8.5483L8.00727 89.377L7.89906 89.2688V88.7278H7.68265L7.57444 89.377L7.14162 89.5934L6.817 88.6196L6.70879 88.5114L6.05955 90.4591L4.97749 93.056L4.32825 94.7873H4.11184V95.1119L4.54466 95.2201L4.22005 95.5447H4.00363L3.67901 96.6267L3.24619 98.0334V98.6826L4.11184 99.8729L4.22005 100.63H0.108206L0 100.306L0.649238 99.3319L1.08206 98.5744L2.05592 96.5185L3.67901 92.4068L5.1939 88.7278L6.05955 86.6719L6.70879 86.2391L7.57444 86.3473L8.22368 86.1309Z" fill="#AE142A"/>
<path d="M2.27153 109.613H4.43566L5.51772 109.938L6.16696 110.479L6.8162 111.561L7.03261 112.318L6.9244 113.4L6.38337 114.266L5.62593 114.915L4.00283 115.456L2.81256 115.673H2.05512L2.27153 119.244L2.37974 120.001H0.86485L0.648438 109.83L0.973056 109.721L2.27153 109.613Z" fill="#595A5D"/>
<path d="M175.617 110.369H178.214L179.296 110.91L180.162 112.1L180.595 113.291V115.888L180.054 117.294L179.404 118.052L177.89 118.917L177.565 119.026H175.942L175.725 118.809L175.617 117.619V110.369Z" fill="#FFFFFE"/>
<path d="M77.1486 86.2402H80.503L81.6933 86.4566L82.1261 89.0536L82.2343 90.0274H81.4768L80.7194 89.811L79.8538 88.8372L79.3127 88.1879L78.7717 87.8633L77.7978 87.9715L76.9322 88.2961L76.1747 88.9454L75.5255 90.2438L75.0927 91.9751L74.8763 92.6243L74.6599 93.5982L74.4434 94.3556L74.227 94.7884L73.7942 94.1392L73.686 93.8146L73.5778 92.2997L73.686 91.9751L73.3614 91.8669L73.0368 93.3818L72.7121 94.3556L72.4957 94.8966H72.2793L72.3875 95.2213L72.1711 95.4377V96.5197L71.9547 96.4115L71.7383 95.4377V92.6243L72.1711 90.7848L73.0368 89.0536L74.0106 87.7551L75.3091 86.7813L76.4994 86.3484L77.1486 86.2402Z" fill="#BB5166"/>
<path d="M99.5478 50.6387H100.089L100.63 51.7207L101.604 54.6423L101.712 55.8325L101.387 56.3735L100.522 57.131L98.4657 58.6458L97.3836 59.4033L96.9508 59.2951L96.4098 58.754L95.6523 57.2392L95.7606 56.1571L96.3016 54.7505L96.9508 53.2356L97.2754 52.1535L98.1411 51.5043L99.5478 50.6387Z" fill="#FFFFFE"/>
<path d="M88.833 44.1465H90.5643L91.3217 44.4711L91.4299 44.5793L91.5381 45.3367V46.2024L90.9971 46.9598H90.7807L90.6725 47.2844L89.374 48.2583L87.9673 49.4485L86.6688 50.3142L86.1278 50.4224H85.1539L83.8555 50.206V49.2321L84.2883 47.609L84.9375 45.8778L85.4786 44.6875L85.8032 44.3629L86.4524 44.2547L88.833 44.1465Z" fill="#FFFFFE"/>
<path d="M92.1906 44.1465L97.4927 44.2547L98.0338 44.5793L98.4666 45.4449L99.5487 48.4747L99.6569 48.9075V49.6649L97.9256 50.5306H97.0599L96.4107 50.0978L94.8958 48.7993L93.7055 47.8255L92.4071 46.527L91.9742 45.5531L91.7578 44.9039V44.3629L92.1906 44.1465Z" fill="#FFFFFE"/>
<path d="M122.164 109.504L123.571 109.612L124.112 110.261L124.977 111.776L125.735 113.616L126.492 115.888L126.709 116.104L127.574 114.373L128.765 112.101L129.522 111.019L130.388 109.937L130.712 109.612L131.362 109.504L131.253 119.783H129.847L130.063 117.403L130.388 111.343L130.496 111.127L130.171 111.452L128.873 113.616L128.007 115.022L127.358 116.645L127.033 118.052L126.709 118.269L126.276 118.16L125.951 117.511L125.194 115.239L124.328 113.075L123.571 111.668L123.463 111.776V115.239L123.571 119.892H122.489V117.511L122.705 112.425L122.813 110.694L122.38 109.937V109.72H122.164V109.504Z" fill="#595A5D"/>
<path d="M83.9649 50.8555L84.7224 50.9637L85.4798 51.5047L86.129 52.3703L87.2111 55.5083L87.6439 56.6985V57.997L86.9947 59.0791L86.3454 59.4037L85.6962 59.1873L84.7224 58.4298L83.9649 57.6724L82.8828 57.0232L81.909 56.2657L81.8008 56.0493V55.0755L82.9911 52.0457L83.3157 51.2883L83.6403 50.9637L83.9649 50.8555Z" fill="#FFFFFE"/>
<path d="M89.7013 57.998H94.0295L95.0034 58.3227L95.869 59.0801L96.41 59.9457L96.1936 60.4868L94.7869 61.2442L93.4885 62.3262L92.6228 62.8673L91.9736 63.0837L91.2161 62.9755L90.2423 62.4345L89.7013 61.8934L88.7274 61.0278L87.3207 60.4868L86.9961 60.0539L87.1043 59.5129L88.6192 58.4309L89.1602 58.1063L89.7013 57.998Z" fill="#FFFFFE"/>
<path d="M51.8306 109.504L52.2634 109.612L52.588 110.045L53.7783 113.291L54.8604 116.97L55.726 119.459L55.8342 119.892H54.1029L53.8865 119.675L53.9947 119.567V118.485L53.4537 116.429L53.3455 116.321H51.1814L50.0993 116.104L49.6665 117.078L49.0172 119.675L48.8008 119.892H48.0434L47.7188 119.783L47.827 119.134L48.5844 117.295L49.8829 113.724L51.0731 111.019L51.6142 109.72L51.8306 109.504Z" fill="#59595C"/>
<path d="M175.397 109.613H178.427L179.509 109.938L180.375 110.587L181.132 111.453L181.565 112.318L181.89 113.833V115.456L181.565 116.755L180.808 117.945L180.05 118.703L179.076 119.244L177.67 119.676L177.02 119.785H174.532V110.371L174.207 110.154V109.721L175.397 109.613ZM175.614 110.371V117.62L175.722 118.811L175.938 119.027H177.561L179.076 118.27L179.834 117.62L180.483 116.322L180.591 115.889V113.292L180.05 111.886L179.293 110.912L178.211 110.371H175.614Z" fill="#595A5D"/>
<path d="M102.575 57.3477H103.657L105.389 57.6723L106.146 57.9969L106.038 58.9707L105.389 60.702L104.631 61.1348L102.575 61.6759L100.195 62.2169H99.4372L97.7059 61.243L97.5977 60.9184L98.2469 60.161L99.7618 58.9707L101.06 58.2133L102.034 57.5641L102.575 57.3477Z" fill="#FFFFFE"/>
<path d="M81.5856 41.334H82.6677L83.2087 41.875L83.8579 42.9571L83.9661 43.2817V44.5801L83.6415 45.8786L83.1005 47.7181L82.7759 48.8001L82.4513 49.0165L80.9364 49.1247L80.5035 48.6919L80.2871 47.9345L79.7461 44.4719V43.1735L80.0707 42.1996L80.72 41.6586L81.5856 41.334Z" fill="#FFFFFE"/>
<path d="M97.0564 61.2422L97.4892 61.4586L98.3549 62.6489L98.4631 63.2981L97.5974 64.813L96.84 65.895L96.2989 66.8688L95.8661 67.5181H95.6497L95.4333 67.9509L94.6758 68.2755L94.1348 68.3837H92.9445L92.5117 67.8427V66.436L92.7281 64.4883L93.2692 63.9473L95.1087 62.5406L96.1907 61.7832L97.0564 61.2422Z" fill="#FFFFFE"/>
<path d="M101.281 40.5781H101.497L102.255 41.4438L103.12 42.3094L103.445 42.8504L103.553 43.2833L103.445 45.9884L103.229 48.5853L102.471 48.9099L101.93 49.0181H101.065L100.632 48.1525L100.199 46.6376L99.4414 44.3653V43.4997L100.199 41.9848L101.065 40.7945L101.281 40.5781Z" fill="#FFFFFE"/>
<path d="M80.1782 49.9902H81.6931L82.2342 50.2066L82.126 51.0723L81.3685 52.9118L80.7193 54.5348L79.9618 55.7251L78.8798 56.3743L77.2567 57.0236L76.8239 56.9154L76.0664 55.4005V54.4266L76.7156 53.4528L78.1223 51.8297L78.5552 51.2887L79.4208 50.5313L79.9618 50.0984L80.1782 49.9902Z" fill="#FFFFFE"/>
<path d="M14.0625 86.3457H19.7974L19.581 86.8867L19.2564 87.536L19.3646 88.4016L19.9056 89.9165L20.6631 90.9985L20.8795 91.2149L21.0959 91.1067L20.8795 91.6477H20.5549L20.4467 92.1888L19.581 92.5134H19.2564L19.1482 92.1888L18.8236 92.0806L18.6072 92.297L18.499 92.7298H18.2825L18.1743 92.9462L16.9841 91.1067L15.6856 89.2672L14.3871 87.3195L14.0625 86.3457Z" fill="#BB5166"/>
<path d="M75.8513 58.6445L76.5005 58.7527L76.9333 59.8348L77.2579 61.1332V62.3235L76.8251 63.8384L76.2841 66.0025L75.5266 66.1107L74.5528 65.7861L73.7953 65.4614L73.5789 64.9204L72.9297 60.1594L73.1461 59.7266L75.202 58.8609L75.8513 58.6445Z" fill="#FFFFFE"/>
<path d="M112.209 51.5059L112.858 51.6141L113.507 52.6961L113.615 53.4535L112.966 54.8602L111.559 57.89L111.451 58.1064H110.477L108.313 57.3489L107.664 57.0243V56.2669L108.313 54.6438L109.287 53.5618L110.369 52.5879L111.884 51.6141L112.209 51.5059Z" fill="#FFFFFE"/>
<path d="M103.872 36.8984L104.413 37.0066L106.469 38.0887L108.309 39.1707L109.391 39.82L109.824 40.1446V40.5774L109.283 41.1184L108.742 41.443L107.768 41.6595L105.063 41.7677L104.197 41.5513L102.898 40.902L101.925 40.361L101.816 39.7118L102.574 38.5215L103.548 37.2231L103.872 36.8984Z" fill="#FFFFFE"/>
<path d="M83.8555 86.3457L84.3965 86.4539L85.0457 86.3457L85.1539 86.5621L86.1278 86.6703H86.4524H88.1837L88.4001 86.7785L88.2919 87.1031L88.0755 87.536L87.7509 87.8606L87.6427 88.4016L87.5345 89.159L87.4263 90.2411L87.1017 90.7821L86.6688 91.756L86.3442 92.0806H86.1278V93.379L85.9114 93.9201L85.8032 95.976V96.8416L85.695 97.1662V98.0318L85.8032 98.2483L86.0196 97.7072L86.4524 97.9236L86.5606 98.6811V99.1139L86.777 99.2221L86.5606 99.6549L85.695 99.7631L85.2622 99.2221V99.0057L84.7211 98.8975V88.4016L84.5047 87.6442L84.0719 87.4278L83.8555 86.9949V86.3457Z" fill="#A64A58"/>
<path d="M107.121 58.3223L108.852 58.7551L110.151 59.2961L110.8 59.7289L110.692 60.7028L110.151 63.2997L109.934 64.3817L109.501 65.031L108.311 65.8966L107.878 66.0048L107.337 65.1392L106.796 63.4079L106.363 61.7848V60.5946L106.796 58.7551L107.121 58.3223Z" fill="#FFFFFE"/>
<path d="M70.8762 51.7227L71.8501 52.0473L72.9321 52.9129L74.0142 53.8868L74.5552 54.3196L75.5291 55.8344L75.8537 56.4837V57.4575L73.6896 58.3232L72.6075 58.5396L72.1747 58.1068L71.0926 56.0509L70.227 54.2114L69.9023 53.5621V52.9129L70.4434 52.0473L70.8762 51.7227Z" fill="#FFFFFE"/>
<path d="M88.9435 69.3594H90.8912L91.2158 69.4676L91.4322 70.0086L91.6487 71.4153V72.1727L91.324 72.7137L90.3502 73.0383L88.7271 73.363L86.3466 73.6876H85.6973L84.507 72.9301L84.0742 72.1727L84.507 71.6317H84.7235V71.4153L87.5368 69.7922L88.9435 69.3594Z" fill="#FFFFFE"/>
<path d="M90.4569 44.1465H92.0799L91.7553 44.3629L91.8635 45.1203L92.2964 46.3106L93.0538 47.1762L94.3523 48.4747L93.8112 48.2583L93.2702 47.8255L92.621 47.609V47.3926L92.8374 47.2844L92.621 47.068L91.6471 46.7434L90.7815 47.3926L90.2404 47.609V47.8255H90.024V48.0419H89.8076V48.4747L90.1322 48.6911L89.2666 49.5567L88.2927 50.3142L87.2107 51.0716L86.886 51.6126L87.1025 52.8029L87.7517 54.6424L88.2927 56.049L88.8338 56.9147L89.8076 57.1311H92.1882L93.9195 57.0229L94.5687 56.9147L95.0015 55.7244L95.5425 54.2096L95.759 53.4521V52.6947L96.4082 52.2619L96.6246 51.7208L97.0574 51.829L97.8149 51.6126L97.1656 52.3701L96.7328 53.7767L95.9754 55.508L95.5425 57.2393H95.4343V56.4819L95.5425 56.049H95.3261V56.6983L94.5687 57.2393L93.5948 57.3475H88.8338L88.1845 57.0229V57.2393H87.8599L87.7517 57.9967H88.5091L89.0502 58.1049L88.5091 58.5378L87.1025 59.5116L86.9943 60.269L86.7778 60.1608L86.886 59.4034L86.9943 59.187L86.7778 59.0788L87.4271 57.9967V56.6983L86.7778 54.967L85.9122 52.3701L85.1547 51.3962L84.2891 50.9634L83.5317 51.0716L83.207 51.288L83.4234 50.747L83.5317 50.4224L83.6399 49.2321H83.7481V50.206L86.0204 50.3142L86.6696 50.0978L87.9681 49.2321L89.483 47.9337L90.5651 47.1762L90.9979 46.6352L91.3225 46.2024V45.3367L91.2143 44.5793L90.4569 44.2547V44.1465Z" fill="#BB5166"/>
<path d="M101.495 49.7734H102.469L103.659 49.9898L104.525 50.7473L105.823 52.2622L107.013 53.777L107.23 53.9934V54.8591L106.905 56.0493L106.581 56.5904H105.823L104.308 56.1575L103.443 55.6165L103.01 54.7509L102.469 53.236L101.711 50.8555L101.387 50.2063L101.495 49.7734Z" fill="#FFFFFE"/>
<path d="M93.702 69.25L95.1087 69.3582L96.1907 69.6828L97.381 70.3321L99.1123 71.4141L99.6533 71.8469V72.3879L98.6795 73.1454L98.0302 73.47L94.243 73.1454L92.9445 72.929L92.6199 72.3879L92.5117 71.9551V70.0074L92.8363 69.4664L93.702 69.25Z" fill="#FFFFFE"/>
<path d="M97.493 31.9199L98.4668 32.1363L99.7653 33.1102L101.172 34.4086L101.821 35.2743L102.254 36.0317V36.7891L101.605 37.9794L100.523 39.1697L100.09 38.9532L98.4668 37.222L97.7094 35.7071L97.0602 33.9758L96.8438 32.7856L97.2766 32.1363L97.493 31.9199Z" fill="#FFFFFE"/>
<path d="M110.908 86.3457H112.098V86.4539H111.124V86.6703L111.557 86.7785L112.098 87.6442L112.423 88.5098V90.0247L112.315 92.0806L112.639 89.9165L112.747 89.4836H112.964L113.18 90.0247V91.2149H113.397L113.613 93.2708L113.829 98.2483L114.262 99.6549L114.803 100.737V100.953H111.557L111.341 100.845L111.449 99.7631L111.882 97.2744V87.6442L111.341 87.4278L110.8 87.1031L110.691 86.5621L110.908 86.3457Z" fill="#BA5166"/>
<path d="M62.8665 109.613H66.9783L68.0604 109.721L68.1686 109.83L68.2768 112.21L68.0604 112.318L67.6276 111.886L67.0865 110.912L66.5455 110.479L65.5716 110.154L65.0306 110.371V119.352L65.1388 119.785L65.0306 119.893H63.5157L63.6239 113.4V110.263L62.5419 110.479L61.7844 111.02L61.2434 111.561L60.9188 111.777H60.3777L60.2695 111.669V110.695L60.8106 110.046L62.0008 109.721L62.8665 109.613Z" fill="#595A5D"/>
<path d="M164.793 109.613H166.524L167.39 109.721L167.606 109.938L167.498 111.886L167.39 112.102H167.174L166.957 110.695L166.741 110.479L166.2 110.371H164.252L163.062 110.479V119.027L165.442 118.919L166.741 118.594L167.065 118.053L167.39 117.079H167.606L167.715 117.296V119.135L167.282 119.46L166.2 119.676L161.763 119.893L161.655 119.785V110.154L161.547 109.83L162.521 109.721L164.793 109.613Z" fill="#595A5D"/>
<path d="M152.674 89.4844H152.998L152.89 90.2418L151.7 93.2716L150.942 95.0028H151.916L151.592 96.1931H150.618L150.293 97.3833L150.185 97.708V98.4654L151.051 99.8721L151.267 100.738H147.804L147.047 100.629L147.263 99.9803L148.129 98.249L148.886 96.5177L150.293 92.7305L150.401 92.5141L150.726 92.2977L150.834 92.0813L151.051 92.4059L151.267 91.3239L151.808 90.6746H152.024L152.241 89.9172L152.674 89.4844Z" fill="#A64A58"/>
<path d="M149.323 109.613H153.11L154.733 109.83L155.058 109.938V111.453L154.841 111.994L154.408 111.777L153.759 110.804L153.326 110.479L152.785 110.371H152.028L151.811 110.912V116.43L151.92 119.893H150.188L150.297 119.352L150.405 115.889L150.513 110.154L149.215 110.479L148.565 110.912L148.024 111.886L147.591 111.994L147.375 111.886V110.804L147.591 110.046L148.565 109.721L149.323 109.613Z" fill="#595A5D"/>
<path d="M40.6842 86.3457L41.5498 86.4539L41.2252 86.7785H40.7924V87.1031H40.5759V87.3195L39.9267 87.4278L39.0611 87.8606L38.52 88.5098L38.3036 89.2672V89.5919L37.7626 90.7821V91.4313H37.5462L37.6544 92.6216V93.0544V93.2708H37.8708L37.979 93.0544V94.2447L37.6544 93.9201H37.2216L37.3298 94.2447L37.2216 94.6775H36.7887L36.6805 94.4611H36.4641L36.3559 95.0021L35.9231 95.2185L35.8149 94.8939L35.4903 94.6775L35.1656 95.5431L34.9492 95.3267V92.6216L35.382 90.6739L35.9231 89.3754L36.6805 88.2934L37.7626 87.2113L39.0611 86.5621L40.3595 86.4539L40.6842 86.3457Z" fill="#A64A58"/>
<path d="M76.7184 109.613H80.722L80.5056 111.453L80.2892 111.886H80.0728L79.9646 110.695L79.8564 110.371L79.3154 110.263L76.1774 110.371V113.617L76.2856 119.027H78.2333L79.4236 118.811L79.9646 118.486L80.5056 117.404H80.9385L81.1549 118.053L80.6138 119.135L80.181 119.46L79.2072 119.676L74.8789 119.893L74.9871 109.721L76.7184 109.613Z" fill="#59595C"/>
<path d="M35.8113 109.395L36.5688 109.503L37.0016 109.719L37.5426 111.883L38.4083 114.697L38.9493 117.185L39.2739 117.835L39.815 116.969L41.5463 112.1L42.0873 110.477V109.936L41.9791 109.719L42.6283 109.503H43.2776L43.3858 109.827L42.8447 111.559L41.2216 115.562L39.9232 118.7L39.4903 119.674L39.0575 119.782L38.6247 119.349L37.4344 115.779L36.136 111.126L35.7031 109.503L35.8113 109.395Z" fill="#595A5D"/>
<path d="M95.8701 30.1895L96.5193 30.2977L97.4932 31.2715L97.926 31.5961L97.8178 31.7043L98.2506 32.0289H97.4932L97.0604 32.57L96.9521 33.0028L97.385 34.6259L98.3588 36.8982L99.1163 37.7638H98.7917L98.3588 37.4392H97.385L96.8439 37.7638L96.6275 37.6556L96.9521 37.4392L96.8439 36.4653L96.0865 34.8423L95.4373 33.652L94.788 33.2192L94.247 33.111H91.8665V32.8946L90.3516 32.7864L90.6762 32.57L92.0829 32.3536L92.1911 31.9207L92.9485 31.2715L94.788 30.4059L95.8701 30.1895Z" fill="#BB5166"/>
<path d="M60.8138 86.8867L61.0302 87.1031L60.922 88.7262L60.7056 89.9165L60.1646 91.2149L59.7318 92.6216L59.0825 94.1365L58.2169 96.0841L56.9184 98.6811L56.4856 99.1139L55.9445 99.0057L55.8363 98.5729L56.161 98.6811L56.2692 98.14L55.5117 97.3826V97.1662L55.8363 97.058L55.9445 96.6252L55.8363 95.8677L56.4856 96.3006L56.5938 96.0841L56.3774 95.9759L56.4856 95.5431L56.161 95.2185L56.2692 94.4611L56.4856 94.3529L56.3774 93.5954L56.2692 92.6216L56.3774 92.838H56.5938L56.9184 94.0283L57.243 94.3529H57.4594L57.7841 93.379L58.6497 91.2149L59.2989 89.7L60.1646 87.4277L60.4892 87.2113H60.8138V86.8867Z" fill="#A74958"/>
<path d="M51.3965 90.0254H51.6129V90.2418H51.8294L52.0458 92.1895L52.2622 96.8423L52.4786 98.4654L53.0196 100.305L53.1278 101.062H50.7473L49.8816 100.954L49.7734 100.846V100.088L50.2063 98.5736L50.3145 97.8162H50.5309L50.6391 95.111L50.7473 93.1633L50.8555 92.7305H51.0719L51.1801 93.488L51.0719 94.1372H51.2883V92.2977L51.3965 91.8649V90.0254Z" fill="#A74A59"/>
<path d="M1.94414 110.262H4.32468L5.29854 110.911L5.73136 111.56L5.94778 112.318L5.83957 113.291L5.40675 114.049L4.54109 114.698L3.56724 115.023L3.02621 115.131H2.16056L1.94414 114.698L1.83594 112.101V110.478L1.94414 110.262Z" fill="#FFFFFE"/>
<path d="M73.0365 40.4668H73.2529L72.9282 42.1981L72.7118 43.7129L71.738 46.9591L70.7641 49.7724L70.1149 51.0709L69.3574 51.9365L68.9246 51.8283L68.8164 50.9627L69.4656 48.6904L70.4395 45.7688L71.0887 43.4965L71.738 41.7653L72.279 41.116L73.0365 40.4668Z" fill="#FFFFFE"/>
<path d="M8.21684 86.1309L8.64967 86.3473L8.97429 87.3211L9.83994 90.1344L11.2466 94.7873L12.6533 99.3319L12.7615 100.089L12.3287 99.8729L12.0041 99.4401V99.1155L11.6794 99.0073L11.2466 98.0334L10.8138 97.276L10.7056 96.8432L10.4892 95.7611H10.7056V94.7873L10.2728 93.7052V93.3806L9.83994 93.1642L9.29891 91.6493L8.86608 91.0001L8.75788 90.4591H8.54146L8.00043 89.377L7.89223 89.2688V88.7278H7.67581L7.56761 89.377L7.13478 89.5934L6.81016 88.6196L6.70196 88.0785L6.81016 87.4293L6.59375 87.2129L7.02658 86.7801L6.70196 86.5637V86.2391L7.56761 86.3473L8.21684 86.1309Z" fill="#A74958"/>
<path d="M101.28 109.613H101.93L102.038 109.721L102.146 119.027L103.769 119.135L105.068 118.919L105.501 118.811L105.717 118.27L106.366 117.079L106.691 116.755H106.907V117.62L106.366 119.027L105.933 119.46L105.068 119.676L102.795 119.785H100.848V109.721L101.28 109.613Z" fill="#595A5D"/>
<path d="M30.5094 91.1094L31.0504 91.5422L31.3751 91.6504L31.5915 91.975L31.6997 95.9786L31.8079 96.195L31.9161 97.9263L31.8079 98.4673V98.9001L32.1325 98.7919L32.3489 98.9001V99.5494L31.5915 99.874V99.6576H31.3751L31.2669 98.5755L31.1587 98.1427L31.0504 97.4935H30.5094L30.1848 97.9263L30.0766 98.5755H29.8602L30.0766 99.2248L29.8602 99.7658L29.4274 99.9822L29.2109 99.5494L29.4274 98.0345H29.6438L29.5356 97.7099V96.6278L29.4274 95.7622L29.3191 95.5458L29.5356 94.8966V93.7063H29.752V92.7325L30.0766 91.6504L30.5094 91.1094Z" fill="#A64A58"/>
<path d="M74.0117 66.6543L74.661 66.7625L76.3923 67.5199L78.0154 68.4938L79.0974 69.3594L80.8287 70.6579L82.019 71.4153L82.9928 72.1728L83.6421 72.9302L83.9667 73.4712V73.904L83.7503 74.0122H83.101L81.5862 72.9302L80.2877 71.9563L78.5564 70.7661L77.3661 69.9004L75.5266 68.602L74.3363 67.5199L74.0117 66.9789V66.6543Z" fill="#FFFFFE"/>
<path d="M113.832 109.613H114.806L114.914 110.046L114.806 110.479V119.893L114.697 120.001H113.832L113.291 119.893L113.182 110.046L113.074 109.721L113.832 109.613Z" fill="#595A5D"/>
<path d="M60.9176 88.8379H61.134L61.3504 89.2707L61.4586 90.8938L61.675 92.3005L62.3243 93.7071V94.5728L62.2161 95.0056L62.3243 95.4384V96.6287L62.2161 97.3861L62.1079 98.0353V99.442L62.2161 99.8748L63.1899 99.983L63.6228 100.199L63.9474 100.632L63.8392 100.74H64.4884L64.3802 100.308H64.9212L65.0294 100.957L60.593 101.065L60.1602 100.957V99.983L60.593 99.0092L60.8094 97.9271L60.9176 96.7369L61.0258 93.3825V91.002L60.9176 89.8117L60.7012 89.7035L60.9176 88.8379Z" fill="#BB5166"/>
<path d="M15.043 110.369H17.2071L18.0727 110.802L18.8302 111.668L18.9384 111.884V112.75L17.6399 114.481L17.3153 114.806H15.6922L15.1512 114.914L15.043 114.806V110.369Z" fill="#FFFFFE"/>
<path d="M77.9087 37.5469L78.1251 37.7633V38.5207L77.8005 39.17L77.0431 40.1438L77.1513 40.5766L77.4759 40.6848H78.7744L79.099 40.5766L79.4236 40.1438L79.9646 40.252L80.3975 40.9012L79.8564 41.5505L78.8826 41.8751L77.4759 41.9833H75.8528L74.4461 41.8751L73.9051 41.5505L73.7969 41.4423V40.6848L74.2297 40.0356L75.3118 39.17L77.6923 37.6551L77.9087 37.5469Z" fill="#FFFFFE"/>
<path d="M74.6599 88.4023L74.7681 88.6188L74.9845 88.727L75.2009 89.7008L75.3091 90.0254L74.8763 92.6223L74.6599 93.5962L74.4434 94.3536L74.227 94.7864L73.7942 94.1372L73.686 93.8126L73.5778 92.2977L73.686 91.9731L73.3614 91.8649L73.0368 93.3798L72.7121 94.3536L72.4957 94.8946H72.2793L72.3875 95.2193L72.1711 95.4357V96.5177L71.9547 96.4095L71.7383 95.4357V92.6223L72.1711 90.7829L72.9286 89.268H73.2532L73.686 89.4844L74.0106 89.1598H74.227V88.9434H74.4434L74.6599 88.4023Z" fill="#A64A58"/>
<path d="M110.259 40.4668L110.692 40.575L111.125 41.116L111.991 43.0637L112.748 45.0114L113.83 48.3658L114.371 50.2052L114.588 50.9627V51.8283L114.047 51.6119L113.506 51.0709L112.64 49.2314L111.017 44.4704L110.259 41.9817L110.043 40.6832L110.259 40.4668Z" fill="#FFFFFE"/>
<path d="M109.503 66.6543L109.611 66.9789L108.637 68.061L107.447 69.0348L105.932 70.1169L103.768 71.7399L101.712 73.2548L100.738 73.7958H100.089L99.9805 73.6876L100.089 72.9302L101.387 71.7399L103.335 70.3333L104.633 69.4676L105.824 68.3856L107.23 67.5199L108.529 66.8707L109.503 66.6543Z" fill="#FFFFFE"/>
<path d="M139.589 109.721H140.996L140.563 110.37V119.892H139.156V109.829L139.589 109.721Z" fill="#595A5D"/>
<path d="M28.9969 109.613H29.3215V109.83L28.7805 110.154V119.46L28.6723 119.893H27.3738L27.2656 109.721L28.9969 109.613Z" fill="#595A5D"/>
<path d="M45.7676 88.2969H45.984L46.6332 89.3789L47.1743 91.002L47.3907 92.1923V95.1138L47.1743 96.1958H46.9579L46.8497 96.7369L46.4168 97.1697L45.7676 97.6025L45.3348 97.3861L45.2266 97.1697L45.3348 95.763L45.443 95.4384L45.6594 92.7333L45.7676 92.1923L46.0922 91.9758L45.8758 91.543L45.6594 90.8938L45.443 89.4871L45.7676 89.3789V89.1625H45.5512L45.6594 88.9461L45.443 88.5133L45.7676 88.2969Z" fill="#A74A58"/>
<path d="M128.657 86.3457H133.851V86.4539L133.093 86.5621L132.552 86.8867V87.2113L130.713 87.4278L130.063 87.2113H129.739L129.847 87.8606H130.172L130.388 89.159L130.28 89.3754L130.172 90.6739H129.955V92.6216H130.172V94.8939L129.847 98.5729L129.631 99.8713H129.414L129.522 100.196L129.631 100.088L131.037 99.9795L131.578 100.088L131.903 99.9795L132.011 100.412L131.795 100.629L132.011 100.845L129.522 100.953L128.873 100.737L128.765 100.088L129.198 99.4385L129.522 99.3303V87.9688L128.44 86.9949L128.332 86.5621L128.657 86.3457Z" fill="#BB5166"/>
<path d="M85.8052 36.6816L85.9134 36.8981V37.3309L88.8349 38.7375L90.5662 39.495L91.2155 39.7114L92.1893 39.6032L93.4878 39.2786L93.8124 39.3868L94.4617 39.2786L94.7863 39.7114L92.7304 40.7934L92.1893 41.5509L91.5401 41.4427L90.6744 40.9016L89.0513 39.9278L85.6969 38.4129H84.9395L83.9656 39.7114L83.7492 40.1442L83.8574 41.118L83.9656 41.3345L83.641 41.2263L83.3164 40.6852L83.641 39.7114L84.5067 38.4129L85.2641 37.6555L85.8052 36.6816Z" fill="#BB4E63"/>
<path d="M153.219 89.4844L153.543 89.5926L153.976 91.1075L154.625 94.4618L154.517 94.7864L153.219 94.8946H151.055L151.163 94.2454L152.245 91.6485L152.894 90.0254L153.219 89.4844Z" fill="#FFFFFE"/>
<path d="M6.38288 89.7031L6.8157 89.8113L7.14032 90.5688L7.68135 93.9231V94.6806L7.35673 94.7888L4.21875 95.0052L4.54337 93.9231L5.73364 90.8934L6.27467 89.8113L6.38288 89.7031Z" fill="#FFFFFE"/>
<path d="M69.0328 54.8594L69.5739 55.4004L70.8723 57.8891L71.8462 60.8107L72.4954 63.7322V64.4896L71.9544 64.165L71.3052 63.2994L70.5477 61.2435L69.4656 58.1055L69.0328 57.0235L68.8164 55.6168L69.0328 54.8594Z" fill="#FFFFFE"/>
<path d="M114.375 54.4258L114.592 54.6422V55.9407L113.834 58.6458L112.536 62.5412L111.995 63.8396L111.562 64.1642L111.237 64.056L111.129 63.4068L111.886 60.2689L112.427 58.754L112.968 57.0227L113.942 54.8586L114.375 54.4258Z" fill="#FFFFFE"/>
<path d="M90.3489 74.1211L91.7556 74.2293L92.4048 74.4457L93.0541 74.2293H95.0018L96.3003 74.5539L96.5167 74.8785L95.9756 75.4196H94.2443L92.6213 75.5278H90.5653L87.5356 75.4196L87.2109 75.2031V74.7703L87.9684 74.4457L90.3489 74.1211Z" fill="#FFFFFE"/>
<path d="M179.293 92.7305L179.726 92.8387L181.025 93.9207L181.674 94.8946L181.999 95.9766V97.3833L181.566 98.3571L180.7 99.331L179.943 99.872L179.618 99.7638L179.834 99.5474L179.51 99.331L178.969 99.2228L179.077 98.79L179.834 97.8161L180.159 97.7079L180.592 96.8423V96.0848L180.267 95.111L179.51 93.9207L179.185 93.2715L179.293 92.7305Z" fill="#A74A59"/>
<path d="M152.675 89.4844H152.999L152.891 90.2418L151.701 93.2716L150.943 95.0028H151.917L151.593 96.1931H150.619L150.294 97.3833L150.186 97.708H149.97L149.861 98.1408L149.537 98.249L149.32 97.708L149.645 96.9505L149.753 96.0849L150.186 95.0028H149.645L149.753 94.1372L150.402 92.5141L150.727 92.2977L150.835 92.0813L151.052 92.4059L151.268 91.3239L151.809 90.6746H152.025L152.242 89.9172L152.675 89.4844Z" fill="#AE142A"/>
<path d="M112.747 89.4844H112.963L113.18 90.0254V91.2157H113.396L113.504 93.3798V97.5998L113.18 97.8162L113.072 98.1408H112.855V98.3572L112.098 98.4654L112.206 95.8685L112.314 92.0813L112.639 89.9172L112.747 89.4844Z" fill="#AE0F25"/>
<path d="M121.299 88.2969L122.49 88.4051L122.381 89.1625L122.057 90.2446L121.299 92.1923L120.109 95.222L120.001 95.4384H119.784V94.681L119.893 93.9235L119.46 94.1399L119.352 94.0317V93.2743L120.434 90.3528L121.299 88.2969Z" fill="#AE162C"/>
<path d="M60.8095 86.8867L61.0259 87.1031L60.9177 88.7262L60.7013 89.9165L60.1602 91.2149L59.7274 92.6216L59.0782 94.1365H58.8617L58.4289 93.2708L57.9961 93.379L58.1043 92.5134L58.8617 90.7821L60.1602 87.4277L60.4848 87.2113H60.8095V86.8867Z" fill="#AE162B"/>
<path d="M51.829 111.02L52.1536 111.344L52.6946 113.075L53.2356 115.348V115.564L50.0977 115.781L50.2059 115.131L51.1797 112.534L51.829 111.02Z" fill="#FFFFFE"/>
<path d="M52.0458 96.7344L52.2622 96.8426L52.4786 98.4657L53.0196 100.305L53.1278 101.063H50.7473L49.8816 100.954L49.7734 100.846V100.089L50.2063 98.5739L50.3145 97.8164H50.4227L50.5309 99.1149L50.9637 99.2231L51.3965 98.2492L51.7212 97.4918L51.8294 97.2754H52.0458V96.7344Z" fill="#BC5267"/>
<path d="M145.318 96.6289H145.859L146.075 96.8453V97.8192L145.643 99.4422L144.993 100.416L144.452 100.524L144.02 100.632L143.37 100.308H143.154L142.938 99.7669L143.154 99.1176L143.803 98.6848L144.452 97.8192L145.102 96.7371L145.318 96.6289Z" fill="#A74A59"/>
<path d="M165.772 87.7539H165.88L165.989 99.0072H167.504L168.694 98.7908L169.235 98.4662L169.884 97.1677L169.992 97.6006L170.425 97.7088L170.642 97.4924L170.858 97.6006V98.899L170.533 99.6565L169.884 100.197L169.235 100.089L169.127 99.8729L169.343 99.2236L168.586 99.4401L167.179 99.5483L166.205 99.4401L166.097 99.1154H165.88L165.664 98.0334V88.1867L165.772 87.7539Z" fill="#BB5166"/>
<path d="M21.8555 96.1914L22.2883 96.516L22.5047 97.1653H22.7212V97.5981H22.9376L23.154 97.8145L23.5868 98.1391L24.236 99.3294L24.5607 99.7622V99.9786L25.6427 100.52V100.736L25.8591 100.844H23.3704L21.2063 100.736L20.7734 100.303L20.9899 99.654L21.4227 99.1129L21.7473 99.654L22.1801 99.5458V99.7622H22.3965L22.8294 100.52L23.3704 100.628L23.2622 99.7622L22.3965 97.8145L21.8555 96.8406L21.5309 96.4078L21.8555 96.1914Z" fill="#BC5267"/>
<path d="M102.254 41.4414L102.687 41.6578L103.552 42.5235L103.769 43.1727V47.7173L103.985 47.2845L104.202 43.6055L104.634 42.6317L105.392 42.1988H106.69L108.097 42.0906L109.071 42.4153L109.287 42.5235L109.396 43.1727L109.071 42.7399L106.799 42.9563L104.959 43.0645L104.634 43.1727L104.418 44.2547L104.31 46.2024V48.0419L104.634 49.124L105.284 50.0978L105.175 50.3142L104.202 49.0158L103.985 48.3665L103.444 48.4747L103.336 48.6911L103.12 48.5829L103.336 45.986L103.444 43.2809L103.12 42.5235L102.362 41.6578L102.254 41.4414Z" fill="#BB5166"/>
<path d="M119.242 93.5957L119.459 94.0285L119.675 94.1367L119.783 93.8121L120 93.9203L119.891 95.4352L119.783 95.9762L119.242 97.2747L118.593 98.6813H118.377L118.268 98.4649L117.511 98.3567L117.295 97.8157L117.078 97.5993L117.295 96.6254L117.944 95.6516H118.16V95.868H118.593L119.026 94.786L119.242 93.5957Z" fill="#A64958"/>
<path d="M93.8143 20.3438L94.1389 20.452L94.0307 21.2094L93.3814 22.3996L92.4076 23.5899L91.4337 24.5637L90.8927 24.7802L90.027 24.3473L88.4039 22.8325L87.4301 21.8586L87.1055 21.2094L87.5383 21.3176L88.4039 21.9668L89.7024 23.1571L90.6763 23.8063L91.2173 23.6981L92.4076 22.3996L93.2732 21.1012L93.8143 20.3438Z" fill="#FFFFFE"/>
<path d="M64.1614 88.0781H64.2696V97.0591L64.3778 98.8986L64.2696 98.6822L63.8367 98.7904L63.6203 98.4658L63.8367 97.7084L64.1614 97.8166L64.0532 97.6002V95.1115L63.5121 95.0032L63.2957 94.4622L63.1875 93.5966L63.4039 91.3243V90.5668L63.7285 90.2422L63.8367 90.3504L63.7285 89.2684L63.8367 88.9438H64.0532L64.1614 88.0781Z" fill="#BB5166"/>
<path d="M102.363 40.793L103.012 41.0094L104.31 41.6586L105.176 41.875H107.232L107.34 42.1996L106.15 42.3078H105.392L104.851 42.6325H104.635L104.31 43.6063L104.094 47.2853L103.877 47.8263L103.661 47.7181V43.1735L103.336 42.416L102.471 41.5504L101.93 41.2258V41.0094L102.363 40.793Z" fill="#AE0F25"/>
<path d="M8.00911 94.6777H8.22552L7.9009 95.6516H7.68449L7.7927 96.3008H4.76292L4.4383 96.1926H3.78906L4.00548 95.5434L4.4383 95.2188L4.11368 95.1106L4.22189 94.7859V95.0023L4.4383 94.8941L8.00911 94.6777Z" fill="#A74A58"/>
<path d="M78.774 33.9746H78.9904L78.8822 34.732L78.1247 35.8141L77.4755 36.5715L75.636 37.9782L74.4457 38.7356L74.1211 38.6274L74.8785 37.4372L76.6098 35.7059L77.8001 34.732L78.4493 34.191L78.774 33.9746Z" fill="#FFFFFE"/>
<path d="M150.95 94.6777L151.058 94.8941L154.953 94.6777L155.17 94.8941L155.278 95.9762L155.17 96.3008L153.871 96.409L150.625 96.3008V96.1926H151.599L151.707 95.327L151.923 95.0023H150.95V94.6777Z" fill="#A84A59"/>
<path d="M113.398 92.1914H113.506L113.614 93.2735L113.831 98.2509L114.263 99.6576L114.696 100.523V100.848H114.48L114.155 100.523L113.939 100.415L113.831 100.74L113.398 100.415L112.965 99.4411L112.748 99.3329L112.424 100.307L112.207 100.523L111.883 100.199V98.5755L111.991 97.8181H112.099V98.4673L112.857 98.3591V98.1427H113.073L113.181 97.7099L113.398 97.6017V92.1914Z" fill="#A94B5A"/>
<path d="M87.8633 74.3359H88.5126V74.4441L87.2141 74.7688L87.3223 75.2016L87.5387 75.3098L90.5685 75.418H92.6244L94.5721 75.3098H95.9788L96.4116 74.877L96.3034 74.6606L95.546 74.4441V74.3359L96.4116 74.4441L96.7362 74.7688L96.5198 75.3098L95.6542 75.6344L92.5162 75.7426L92.949 75.8508H96.1952L97.3855 75.959L96.9526 76.1754L95.7624 76.0672H86.7812V75.959L87.6469 75.8508L86.9977 75.6344L86.8895 74.877L87.5387 74.4441L87.8633 74.3359Z" fill="#B95165"/>
<path d="M162.415 98.6836L162.739 99.1164L163.281 98.9L163.713 99.0082V99.5492L164.038 99.7656L165.12 99.9821L165.877 100.307L165.986 100.523L168.15 100.631V100.739H162.523L161.766 100.631V99.7656L162.307 99.1164L162.415 98.6836Z" fill="#BC5267"/>
<path d="M73.7926 40.0352L74.2254 40.1434L73.9008 40.6844V41.4418L74.4418 41.7664L75.8485 41.8746H78.8783V41.9828L77.4716 42.0911V42.3075H77.2552V42.6321H78.5537L78.9865 42.8485L79.0947 43.1731L79.2029 44.7962L79.5275 46.6357L79.6357 48.908L79.4193 49.1244L79.3111 47.1767L78.9865 45.3372L78.8783 43.3895L78.7701 42.9567H74.8747V42.8485L76.0649 42.7403L75.8485 42.6321L75.4157 42.5239L75.1993 42.1993L73.468 41.8746L73.1434 41.6582L73.0352 41.8746L73.1434 40.6844L73.2516 40.468L73.0352 40.3598L73.7926 40.0352Z" fill="#A84B5A"/>
<path d="M95.1098 30.2969H96.0837L96.9493 30.9461L97.0576 31.2707L96.0837 31.5953L93.1621 32.2446L92.6211 32.1364L92.7293 31.7035L93.2703 31.1625L94.7852 30.4051L95.1098 30.2969Z" fill="#FFFFFE"/>
<path d="M149.973 97.709H150.081L150.297 98.6828L151.055 99.8731L151.271 100.739H147.809V100.522L148.133 100.414L148.241 100.198H148.458L148.674 99.7649L149.54 98.4664L149.865 98.25L149.973 97.709Z" fill="#BC5267"/>
<path d="M97.711 51.6133L97.9274 51.7215L97.3864 52.1543L96.7372 54.102L96.0879 55.5087L95.6551 57.2399H95.5469V56.4825L95.6551 56.0497H95.4387V56.6989L94.6813 57.2399L94.4648 57.1317L94.8977 56.4825L95.4387 54.7512L95.7633 53.9938L95.8715 53.0199V52.6953L96.5208 52.2625L96.7372 51.7215L97.17 51.8297L97.711 51.6133Z" fill="#BB5166"/>
<path d="M112.103 86.3457L112.319 86.5621L112.86 87.6442L113.293 87.2113H113.509L113.618 88.7262V89.159L113.077 89.2672V89.8083L112.968 89.4836L112.752 89.9165L112.427 92.0806L112.319 95.8677H112.211V91.3231L112.319 90.0247V88.5098L111.886 87.4278L111.454 86.7785L111.129 86.6703V86.4539L112.103 86.3457Z" fill="#A64A58"/>
<path d="M113.611 86.457H116.208L116.316 86.5652V87.3227L115.775 87.1063V86.7816L115.667 87.5391L115.775 87.8637L116.1 87.9719L116.424 89.4868L116.316 90.2442L115.883 90.0278L115.342 89.054L115.234 88.0801L114.477 87.5391L113.827 87.3227L113.611 87.1063L113.395 86.7816H113.611V86.457Z" fill="#A64A58"/>
<path d="M93.2747 39.2793L93.8157 39.3875L94.465 39.2793L94.7896 39.7121L92.7337 40.7942L92.1926 41.5516L91.5434 41.4434L90.6778 40.9024L90.3531 40.686L90.4613 40.4696L91.1106 40.686L91.868 40.4696L91.9762 40.2531L91.2188 40.1449L90.4613 40.2531V40.0367H90.2449L90.1367 39.3875L91.2188 39.7121L92.1926 39.6039L93.2747 39.2793Z" fill="#BB5166"/>
<path d="M17.097 98.25H17.2052L17.4216 99.0074L17.8544 99.5485L18.179 100.631L18.0708 100.739H16.4477L14.5 100.631V100.522L15.2574 100.306L16.2313 99.0074L16.7723 98.4664L17.097 98.25Z" fill="#BB5166"/>
<path d="M2.59301 98.3574L2.70122 98.682L2.59301 98.8984L3.56687 99.1149L4.1079 99.8723L4.21611 100.63H1.07812L1.18633 100.089L2.3766 98.5738L2.59301 98.3574Z" fill="#B85064"/>
<path d="M105.066 35.0586L106.04 35.1668L107.122 35.816L108.096 36.5735L108.854 37.5473L108.962 37.9801L108.096 37.7637L106.581 36.8981L105.499 36.0324L105.066 35.5996V35.0586Z" fill="#FFFFFE"/>
<path d="M122.376 97.8164H122.484L122.593 99.2231H122.917L123.025 99.6559L123.999 99.8723L124.432 100.089V100.413H124.649L124.757 100.954H122.16L121.402 100.846L121.511 100.197L121.943 99.6559L122.268 98.5738L122.376 97.8164Z" fill="#BB5166"/>
<path d="M100.088 89.918L100.412 90.2426L100.52 91.541V96.8431L100.304 97.3841L100.196 98.1416L99.8711 98.5744V96.4103L99.9793 90.1344L100.088 89.918Z" fill="#A84B59"/>
<path d="M27.5898 86.3457H32.1345L33.0002 86.4539L33.1084 86.6703L32.7837 87.3195L32.6755 87.4278L31.7017 87.536H31.0524L30.7278 87.2113L29.6458 86.6703L28.9965 86.7785H28.6719L28.3473 86.6703L27.6981 86.7785L27.5898 86.3457Z" fill="#A94B5A"/>
<path d="M111.993 97.2754H112.101L111.993 98.5739V100.089L112.318 100.305L112.642 99.5477L112.75 99.3313L113.075 99.4395L113.616 100.522L113.832 100.63L113.941 100.413L114.482 100.63V100.846L114.806 100.738V100.954H111.56L111.344 100.846L111.452 99.7641L111.885 97.3836L111.993 97.2754Z" fill="#BC5267"/>
<path d="M80.2853 31.1621H80.5017L80.3935 32.0277L79.8524 33.0016L79.2032 33.759L79.095 33.9754L78.1211 34.5165L77.6883 34.8411L77.4719 34.7329L77.0391 34.8411V34.0836L78.8786 32.7852L79.7442 32.2442H79.9606L80.2853 31.1621Z" fill="#A94858"/>
<path d="M107.341 42.0918H108.099L109.072 42.4164L109.289 42.5246L109.397 43.1738L109.072 42.741L106.8 42.9574L104.961 43.0656L104.636 43.1738L104.42 44.2559L104.311 44.9051H104.203V43.6067L104.636 42.6328L105.393 42.2H106.692L107.341 42.0918Z" fill="#BC5267"/>
<path d="M90.4547 44.1465H92.0778L91.7532 44.3629L91.8614 45.1203L92.2942 46.3106L93.0516 47.1762L94.3501 48.4747L93.8091 48.2583L93.2681 47.8255L92.6188 47.609V47.3926L92.8352 47.2844L92.6188 47.068L91.645 46.7434L90.7793 47.3926L90.2383 47.609L90.6711 46.9598L90.9957 46.6352L91.3203 46.2024V45.3367L91.2121 44.5793L90.4547 44.2547V44.1465Z" fill="#BB5166"/>
<path d="M122.164 86.3457H126.276V86.4539L124.761 86.5621L124.329 86.7785L124.004 86.6703V86.8867L123.679 86.9949V87.536L123.463 87.7524L123.896 87.9688V88.2934L122.597 88.1852V86.9949H121.948L121.84 86.4539L122.164 86.3457Z" fill="#BC5267"/>
<path d="M21.9598 86.3457H26.1798L26.0716 86.5621H24.7731L24.4485 86.8867L24.0157 87.1031L23.5829 87.536H23.3665L23.0418 88.5098L22.9336 88.1852V87.7524L22.068 86.9949L21.8516 86.4539L21.9598 86.3457Z" fill="#BB5166"/>
<path d="M129.523 99.2246H129.631V99.8738H129.415L129.523 100.198L129.631 100.09L131.038 99.982L131.579 100.09L131.904 99.982L132.012 100.415L131.795 100.631L132.012 100.848L129.523 100.956L128.874 100.739L128.766 100.09L129.198 99.441L129.523 99.2246Z" fill="#BC5267"/>
<path d="M164.902 113.832H166.417L166.525 113.94L166.417 114.806L165.876 115.239H165.01L164.361 114.914L164.145 114.373L164.577 113.94L164.902 113.832Z" fill="#595A5D"/>
<path d="M132.982 87.5371L133.307 87.6453H133.091L132.982 91.3243V96.4099L133.091 99.0068H132.982L132.874 98.4658L132.766 96.6263L132.658 91.4325L132.441 90.0258V88.1863L132.55 87.8617L132.982 87.5371Z" fill="#BC5267"/>
<path d="M170.425 95.9766H171.074L171.291 96.0848L171.399 96.8422L171.074 99.1145L170.858 98.7899V97.5996L170.317 97.816V97.5996H169.992V96.9504L170.317 96.0848L170.425 95.9766Z" fill="#A84B59"/>
<path d="M78.2328 114.047H79.4231L79.9641 114.371L79.8559 114.913L79.4231 115.129H78.1246L77.4754 114.804L77.3672 114.263L78.2328 114.047Z" fill="#595A5D"/>
<path d="M78.0133 62.1094H79.2036L80.9349 62.434L81.8005 62.6504L82.8826 62.7586L84.0729 63.1914L84.7221 63.9489L84.6139 64.1653L84.1811 63.7325L82.8826 63.0832L79.3118 62.434L78.6626 62.3258L78.2297 62.434L77.5805 64.1653L77.1477 66.113L77.0395 66.654L76.7148 66.4376L77.0395 65.4637L77.4723 63.7325L77.6887 62.5422L78.0133 62.1094Z" fill="#BC5267"/>
<path d="M98.0329 60.1621L98.2493 60.2703L97.7083 60.9195L97.8165 61.2442L99.4396 62.1098H100.197L103.984 61.2442L104.309 61.3524L102.686 61.7852L100.63 62.3262L99.9806 62.5426L99.1149 62.218L98.4657 61.8934H98.2493L98.3575 62.6508L97.9247 62.218L97.2754 61.3524L96.7344 61.5688L95.8688 62.1098L95.6523 62.0016L96.1934 61.5688L97.2754 60.9195L97.7083 60.3785L98.0329 60.1621Z" fill="#BB5166"/>
<path d="M101.713 39.8203L101.929 40.1449V40.3613L102.579 40.5777L103.661 41.227L104.418 41.5516L105.067 41.6598L107.772 41.5516L109.071 41.3352L108.855 41.5516L107.664 41.9844H105.176L104.093 41.6598L102.579 40.9024L101.821 41.1188L101.496 40.7942V40.5777L101.172 40.686L101.28 40.3613H101.605L101.713 39.8203Z" fill="#BB5166"/>
<path d="M180.273 87.7539L180.706 87.8621V88.1867H180.922L181.031 88.7278V89.0524L181.463 89.2688L181.788 89.1606V90.2426L181.031 89.8098L179.516 88.2949V88.0785L180.273 87.7539Z" fill="#AF182E"/>
<path d="M103.876 61.7832L105.282 61.8914L105.39 62.1078H104.633L103.334 62.5406L100.413 63.1899L99.6555 63.6227L99.2227 63.9473L99.4391 63.4063L100.088 62.9735L101.279 62.6488L101.495 62.3242L101.711 62.4324L101.82 62.3242L102.793 62.1078L103.876 61.9996V61.7832Z" fill="#BB5065"/>
<path d="M148.893 96.5176H149.109L149.217 96.9504L149.001 98.0324L148.568 98.4653L148.135 99.5473L147.702 100.197L147.27 100.413L147.378 99.8719L148.46 97.5996L148.893 96.5176Z" fill="#AE1B30"/>
<path d="M2.59415 98.3574L2.70236 98.682L2.59415 98.8984L3.56801 99.1149L4.10904 99.8723L4.21724 100.63H3.24339L2.59415 100.522L2.91877 100.413L3.02698 100.197H3.24339H3.4598V100.413H3.67621L3.56801 99.7641L2.91877 99.8723L2.59415 99.5477V99.3313H2.26953L2.37774 98.5738L2.59415 98.3574Z" fill="#A74756"/>
<path d="M23.2656 95.8691H23.5902L24.9969 98.1414L25.8626 99.6563V100.089H25.538L24.5641 98.1414L24.3477 97.4922L23.9149 97.2758L23.482 96.5184L23.2656 95.8691Z" fill="#AF1D32"/>
<path d="M73.7926 40.0352L74.2254 40.1434L73.9008 40.6844V41.4418L74.4418 41.7664L75.8485 41.8746V41.9828H74.009L73.3598 41.7664L73.1434 41.6582L73.0352 41.8746L73.1434 40.6844L73.2516 40.468L73.0352 40.3598L73.7926 40.0352Z" fill="#B95165"/>
<path d="M87.6442 57.998H88.618L89.1591 58.1063L88.618 58.5391L87.2113 59.5129L87.1031 60.2704L86.8867 60.1621L86.9949 59.4047L87.1031 59.1883L86.8867 59.0801L87.6442 57.998Z" fill="#BC5267"/>
<path d="M107.232 53.9922L107.448 54.1004V55.6153L107.557 55.9399L107.881 55.6153L107.665 57.0219L106.691 56.8055L105.934 56.6973V56.5891L106.691 56.3727L107.016 55.3989L107.232 53.9922Z" fill="#BB5166"/>
<path d="M80.2876 31.1621H80.504L80.3958 32.0277L79.8547 33.0016L79.2055 33.759L79.0973 33.9754H78.8809L78.9891 33.4344L78.3398 33.3262L78.8809 32.7852L79.7465 32.2442H79.9629L80.2876 31.1621Z" fill="#BC5368"/>
<path d="M56.4805 92.8379L56.6969 93.2707L57.0215 94.1364L57.2379 94.3528H57.4543L57.6707 93.7035L58.1036 94.0281L58.32 94.6774L57.9954 94.7856L57.8872 95.002L57.4543 95.1102L57.1297 95.2184L56.8051 95.1102L56.6969 94.3528L56.5887 94.1364L56.4805 92.8379Z" fill="#BB5166"/>
<path d="M93.1599 57.5645H93.8091V57.7809L94.4584 57.8891L95.324 58.4301L95.4322 58.6465L94.9994 58.4301L94.0255 58.1055H89.1562L89.3727 57.8891L90.4547 57.7809H92.7271L93.1599 57.5645Z" fill="#BC5267"/>
<path d="M90.4571 64.8145L90.7817 65.1391L91.1064 66.4375L91.2146 67.8442L90.89 68.277L90.0243 68.4934L88.4012 68.6016L87.5356 67.8442L87.2109 67.3032L87.3191 67.0868L87.8602 67.8442L88.293 68.1688H90.2407L90.89 68.0606V66.5457L90.5653 65.2473L90.4571 64.8145Z" fill="#BA5165"/>
<path d="M89.7024 39.3867L90.1352 39.4949L90.2434 40.0359H90.4598V40.2524L90.8926 40.0359H91.7583L92.0829 40.3606L91.7583 40.6852L91.0008 40.7934L89.7024 40.1442L89.2695 39.7113H89.9188L89.7024 39.3867Z" fill="#AE0F25"/>
<path d="M122.489 88.7266H122.705L122.922 89.8086L122.813 94.245L122.705 96.3009H122.597V89.484L122.164 89.8086L122.38 88.8348L122.489 88.7266Z" fill="#BC5267"/>
<path d="M108.961 39.4941L109.502 39.7106L110.692 40.3598L110.909 40.7926L110.584 40.5762L110.151 40.6844L110.368 42.4157L110.151 42.0911L109.935 41.4418L109.177 41.2254L109.61 40.5762H109.827V40.1434L109.394 39.927L108.961 39.4941Z" fill="#BB5166"/>
<path d="M104.2 44.9043H104.308V48.0422L104.633 49.1243L105.282 50.0981L105.174 50.3145L104.2 49.0161L103.984 48.3669L103.551 48.1504L103.984 47.2848L104.092 45.0125L104.2 44.9043Z" fill="#B54F62"/>
<path d="M76.7148 42.7402H78.879L79.0954 43.1731L79.2036 44.7961L79.5282 46.6356L79.6364 48.9079L79.42 49.1243L79.3118 47.1766L78.9872 45.3372L78.879 43.3895L78.7708 42.9566L76.7148 42.8484V42.7402Z" fill="#B54F62"/>
<path d="M84.7267 61.5684H85.4841L85.5923 62.5422L85.3759 63.0832L85.4841 63.516L85.1595 63.1914V62.3258L84.9431 61.893L84.402 62.2176L82.3461 62.1094L81.4805 62.0012V61.893H82.6707L84.1856 62.0012L84.7267 61.5684Z" fill="#BA5166"/>
<path d="M90.0266 74.0137L92.9482 74.1219L93.2728 74.0137H94.5713L95.5451 74.2301V74.3383H93.0564L92.1907 74.5547L91.7579 74.3383L90.3512 74.2301L88.5117 74.3383V74.2301L90.0266 74.0137Z" fill="#B64F63"/>
<path d="M97.7106 51.6133L97.927 51.7215L97.386 52.1543L97.0614 53.2364L96.7367 53.0199V52.5871L96.3039 52.9117L95.9793 53.9938H95.8711V52.6953L96.5203 52.2625L96.7367 51.7215L97.1696 51.8297L97.7106 51.6133Z" fill="#BC5267"/>
<path d="M83.8555 86.3457L84.3965 86.4539L84.9375 86.3457L85.0457 87.3195L84.8293 87.4278H84.0719L83.8555 86.9949V86.3457Z" fill="#AE1127"/>
<path d="M153.652 86.5645H154.518L154.085 86.9973H153.868L153.76 87.7547L153.327 88.8368L153.111 89.1614V88.945L152.895 88.8368V88.5121H153.111L153.327 87.2137L153.436 86.6727L153.652 86.5645Z" fill="#AE0F25"/>
<path d="M96.5176 52.5859L96.9504 52.6941V53.5598L96.8422 53.7762H96.6258L96.4094 54.209V53.9926H96.193V54.3172L95.9766 54.209L96.0848 53.127L96.3012 52.6941L96.5176 52.5859Z" fill="#AE1228"/>
<path d="M85.5887 37.1133H85.6969V37.7625L85.0477 38.1953L83.8574 39.9266L83.7492 40.143L83.8574 41.1169L83.9656 41.3333L83.641 41.2251L83.3164 40.684L83.641 39.7102L84.5067 38.4117L85.2641 37.6543L85.5887 37.1133Z" fill="#B24558"/>
<path d="M100.305 72.4961L100.522 72.6043L100.089 73.1453V73.6863L100.738 73.7946L99.4395 74.4438L98.8984 74.3356L99.1149 73.9028H99.3313L99.5477 73.3617L99.8723 73.0371L100.305 72.4961Z" fill="#BB5568"/>
<path d="M97.491 35.4922L97.5992 35.7086H97.8156L98.5731 37.2235L99.1141 37.8727L98.6813 37.6563L98.3567 37.4399H97.7074L97.5992 37.2235L97.7074 36.466L97.5992 36.1414L97.3828 36.0332L97.491 35.4922Z" fill="#AA4B5A"/>
<path d="M86.886 75.5273L87.3188 75.6355L90.4568 75.7438V75.852L87.6434 75.9602H85.3711L85.8039 75.6355L86.886 75.5273Z" fill="#AB3749"/>
<path d="M101.602 49.5566H102.684L103.983 49.7731L104.524 50.3141L104.415 50.7469L103.658 50.0977L102.251 49.8813H101.494L101.277 50.2059L101.386 49.6648L101.602 49.5566Z" fill="#BB5166"/>
<path d="M8.22346 86.1309L8.65628 86.3473L8.76449 86.5637V87.2129L8.11525 87.3211L7.79063 86.8883L7.57422 86.3473L8.22346 86.1309Z" fill="#AE162C"/>
<path d="M96.1961 58.3223L96.5207 58.7551L97.0618 59.2961L97.3864 59.5125L96.9536 59.6207L96.8454 59.4043L96.5207 59.2961L96.6289 59.5125V60.1618L96.3043 60.3782L96.1961 59.7289L95.5469 58.7551L96.0879 58.8633L96.4125 59.1879L96.0879 58.6469L96.1961 58.3223Z" fill="#BB5065"/>
<path d="M64.0578 94.7891H64.166L64.3824 98.468L64.2742 98.2516L63.8414 98.3598L63.625 98.0352L63.8414 97.2778L64.166 97.386L64.0578 97.1696V94.7891Z" fill="#BC5267"/>
<path d="M78.5548 35.0586L78.663 35.3832L77.6891 36.6817L76.066 37.8719L75.3086 38.3047V38.0883L77.1481 36.6817L77.7973 36.1406L78.5548 35.0586Z" fill="#B02338"/>
<path d="M106.906 58.3223L107.122 58.4305L106.798 59.0797L106.473 60.5946V62.3259L106.257 62.0012L106.148 61.5684V60.4864L106.473 59.1879L106.906 58.3223Z" fill="#BB5166"/>
<path d="M103.986 61.2422L104.31 61.3504L102.687 61.7832L100.631 62.3242L99.982 62.5406L99.7656 62.4324V62.216L103.986 61.2422Z" fill="#BC5267"/>
<path d="M92.0829 32.2461H92.1911V33.1117H91.8665V32.8953L90.3516 32.7871L90.6762 32.5707L92.0829 32.2461Z" fill="#A84B5A"/>
<path d="M96.3043 86.457H96.8454L96.9536 86.6734L96.8454 87.1063L95.8715 87.2145L95.5469 87.1063V86.7816H96.0879V86.5652L96.3043 86.457Z" fill="#A74A59"/>
<path d="M110.367 61.7832H110.475L110.367 63.0817L110.259 63.4063L110.151 64.5965L109.718 65.1376L109.285 65.2458L109.826 64.3801L110.151 62.8653L110.367 61.7832Z" fill="#BA5165"/>
<path d="M23.2656 95.8691H23.5902L24.5641 97.384V97.6004L24.0231 97.384L23.5902 96.843L23.2656 95.8691Z" fill="#AF2136"/>
<path d="M85.3704 70.875L85.5868 70.9832L84.9375 71.416H84.7211V71.6324L84.1801 72.1735L84.3965 72.8227L83.9637 72.3899L83.8555 71.7406L84.9375 70.9832L85.3704 70.875Z" fill="#BC5267"/>
<path d="M91.4286 47.7168L92.4024 47.825L93.2681 48.4742L93.3763 48.6906L92.9434 48.4742L91.9696 48.0414L90.9957 48.1496L90.4547 48.5824L90.2383 48.4742L90.9957 47.825L91.4286 47.7168Z" fill="#BB5166"/>
<path d="M82.9922 72.1738L83.5332 72.4984L84.0743 73.2559L84.1825 74.1215L83.6414 74.3379L83.1004 74.1215V74.0133L83.966 73.9051L83.6414 73.1477L83.425 72.6066L82.9922 72.3902V72.1738Z" fill="#B95165"/>
<path d="M81.8024 41.0078H82.5598L82.8844 41.2242V41.4406H81.586L80.5039 41.7652L81.0449 41.2242L81.8024 41.0078Z" fill="#B24E60"/>
<path d="M76.8258 63.625H76.934L76.8258 64.4906L76.6094 65.7891L76.393 66.3301L75.5273 66.2219V66.1137L76.2848 66.0055L76.393 65.0317L76.8258 63.625Z" fill="#B95165"/>
<path d="M31.8113 96.9512H32.0277L32.2442 98.8989H31.8113L31.7031 98.0332L31.8113 97.4922V96.9512Z" fill="#BC5267"/>
<path d="M18.9356 94.1367L19.4766 94.3531L19.3684 94.7859L18.9356 95.0024L18.3945 94.8942L18.6109 94.4613L18.9356 94.1367Z" fill="#AE0F25"/>
<path d="M101.495 62.3281L101.711 62.4363L101.387 62.6527L101.495 62.3281ZM100.738 62.7609H101.279V62.9774L100.088 63.302L99.2227 63.9512L99.4391 63.4102L100.088 62.9774L100.738 62.7609Z" fill="#BC5267"/>
<path d="M99.3328 50.3125H100.09L100.307 50.6371L100.198 50.9617L100.09 50.7453H99.5492L98.9 51.1781L98.6836 51.0699L99.3328 50.3125Z" fill="#BC5267"/>
<path d="M144.67 97.3848H144.779V98.3586L144.67 98.1422L144.346 98.7914L144.021 98.8996L143.805 98.6832L144.454 97.8176L144.67 97.3848Z" fill="#BC5267"/>
<path d="M81.0414 49.4492L81.5825 49.5574L82.1235 50.0984L80.1758 49.9902L80.5004 49.7738L80.9332 49.6656L81.0414 49.4492Z" fill="#BC5267"/>
<path d="M109.613 66.2227H110.046L109.83 66.8719L109.613 66.9801L109.505 66.7637L108.531 66.8719L108.964 66.5473L109.613 66.2227Z" fill="#B95165"/>
<path d="M85.5887 37.1133H85.6969V37.7625L85.0477 38.1953L84.5066 38.9528L84.3984 38.5199L85.2641 37.6543L85.5887 37.1133Z" fill="#AE3144"/>
<path d="M4.4383 96.0859L4.76292 96.1941L7.68449 96.3023V96.4106H4.54651L3.78906 96.3023V96.1941L4.4383 96.0859Z" fill="#BC5267"/>
<path d="M36.5711 88.7266L36.7875 88.8348L36.3547 89.9168L36.0301 90.025L35.9219 89.5922L36.0301 89.2676L36.5711 88.7266Z" fill="#BB5166"/>
<path d="M101.713 74.7695L101.822 75.0941L101.389 75.4188L100.415 75.6352L98.6836 75.7434L99.1164 75.527L100.74 75.3106L101.389 75.0941L101.713 74.7695Z" fill="#B85064"/>
<path d="M93.059 47.1777L93.8164 47.827L94.4657 48.368H94.1411L93.3836 47.827L92.7344 47.6106V47.3941H93.059V47.1777Z" fill="#BC5267"/>
<path d="M17.5266 99.5488H17.8512L17.9594 100.414L17.5266 100.306V100.631L17.0938 100.523L17.3102 100.414L17.5266 99.5488Z" fill="#A74A59"/>
<path d="M80.3945 48.3672L80.6109 48.6918L80.9356 49.0164H82.4505L82.234 49.2328L81.152 49.341L80.5027 49.0164L80.3945 48.3672Z" fill="#BA5165"/>
<path d="M91.9742 46.2031L92.8399 46.8524L93.0563 47.2852L92.7317 47.0688L92.0824 46.8524L91.7578 46.5277H91.9742V46.2031Z" fill="#AA4B5A"/>
<path d="M87.2109 38.3047L88.4012 38.5211L88.834 38.7375L88.7258 39.0621L88.1848 38.9539L87.2109 38.4129V38.3047Z" fill="#AF182D"/>
<path d="M104.414 33.1094L104.955 33.3258L105.713 33.7586L105.28 33.8668H104.739L104.414 33.434V33.1094Z" fill="#994C58"/>
<path d="M122.489 88.7266H122.705L122.813 89.8086L122.597 89.7004V89.484L122.164 89.8086L122.38 88.8348L122.489 88.7266Z" fill="#BA5165"/>
<path d="M77.4746 39.4941L77.5828 39.7106L77.4746 40.1434L77.5828 40.6844L77.0418 40.5762L76.9336 40.1434L77.4746 39.4941Z" fill="#B04D5E"/>
<path d="M65.2496 86.5645H65.3578V87.1055L65.2496 87.2137H64.4922L64.7086 86.7809L65.2496 86.5645Z" fill="#BC5267"/>
<path d="M64.3809 100.305H64.9219L65.0301 100.954H63.8398V100.846L64.4891 100.738L64.3809 100.305Z" fill="#BC5267"/>
<path d="M20.3414 94.7891L20.5578 94.8973V95.1137L20.8824 95.2219L21.0989 95.9793H20.8824V95.7629H20.666L20.4496 95.2219L20.125 95.1137L20.3414 94.7891Z" fill="#BC5267"/>
<path d="M95.5469 74.3359L96.4125 74.4441L96.7371 74.7688L96.5207 75.3098L95.9797 75.5262V75.3098L96.4125 74.877L96.3043 74.6606L95.5469 74.4441V74.3359Z" fill="#B65063"/>
<path d="M67.7379 54.5352V54.8598L67.5215 55.4008L67.0887 55.509L66.9805 55.8336V55.1844L67.7379 54.5352Z" fill="#B54F62"/>
<path d="M76.1758 55.6172L76.5004 56.05L76.9332 56.9156L77.2578 57.1321H76.7168L76.3922 56.591L76.1758 55.6172Z" fill="#BC5267"/>
<path d="M78.5524 35.0586L78.6606 35.3832L77.6867 36.6817L77.2539 36.5735L77.7949 36.1406L78.5524 35.0586Z" fill="#B13447"/>
<path d="M29.4317 100.197H29.6481L29.9727 100.846H28.8906L28.9988 100.63H29.2152V100.414L29.4317 100.197Z" fill="#A64A58"/>
<path d="M98.4648 38.6289L99.0059 38.8453L100.196 39.3863L99.9797 39.4945L99.8715 39.711L99.3305 39.2781L98.4648 38.7371V38.6289Z" fill="#BC5267"/>
<path d="M161.444 86.7793L161.985 86.9957L162.202 87.4285L161.552 87.3203L161.336 86.9957L161.444 86.7793Z" fill="#BB5166"/>
<path d="M96.1941 58.3223L96.5188 58.7551L97.0598 59.2961L97.3844 59.5125L96.9516 59.6207L96.8434 59.4043L96.4106 59.1879L96.0859 58.6469L96.1941 58.3223Z" fill="#BC5267"/>
<path d="M107.449 53.0195L108.315 53.2359L107.99 53.777L107.557 53.5606L107.449 53.0195Z" fill="#BC5267"/>
<path d="M80.2844 31.1621H80.5008L80.3926 32.0277L79.9598 32.7852L79.8516 32.4606L80.068 32.2442L80.2844 31.1621Z" fill="#A44C5B"/>
<path d="M82.9922 72.1738L83.5332 72.4984L84.0743 73.2559L83.966 73.5805L83.425 72.8231V72.6066L82.9922 72.3902V72.1738Z" fill="#BC5267"/>
<path d="M108.857 37.5469L109.182 37.8715L109.398 38.4125L108.749 38.1961L108.316 37.8715H108.857V37.5469Z" fill="#B75064"/>
<path d="M100.738 48.4766L101.063 48.9094H102.47L102.037 49.1258L100.846 49.234L100.738 48.4766Z" fill="#B65063"/>
</svg>
