<svg width="300" height="68" viewBox="0 0 300 68" fill="none" xmlns="http://www.w3.org/2000/svg">
<path d="M37.9112 0H43.5509L47.7807 0.313316L51.3838 0.939948L54.517 1.8799L57.6501 2.9765L62.0366 5.16971L65.3264 7.20627L67.9896 9.24282L70.1828 11.1227L72.5326 13.6292L74.0992 15.6658L75.8225 18.329L77.7023 21.9321L79.1123 26.1619L80.0522 30.3916L80.3655 33.8381V36.0313L79.8956 36.5013L78.799 36.658L75.5091 36.8146H68.1462L67.0496 36.188L65.3264 33.5248L63.4465 30.5483L61.5666 27.7285L60.47 26.0052L59.6867 25.0653L58.9034 24.9086L57.9634 26.7885L56.5535 29.9217L55.1436 32.5849L53.2637 37.1279H52.9504L52.4804 35.4047L52.0104 33.0548L50.7572 27.8851L47.624 15.5091L45.7441 8.61619L45.1175 6.10966L44.6475 5.48303L44.1775 5.32637H40.5744L39.9478 6.10966L38.2245 9.86945L36.3446 14.5692L33.2115 22.0888L31.0183 27.4151L28.0418 34.6214L26.6319 38.2245L24.752 43.3943L24.4386 44.0209L23.342 42.4543L21.3055 38.2245L19.7389 35.248L17.2324 30.3916L16.4491 29.4517L15.6658 29.6084L14.2559 30.5483L8.61619 34.6214L6.10966 36.5013L3.91645 38.0679L1.8799 39.6345L0.939948 40.2611L0.469974 40.1044L0.313316 39.0078L0 34.6214L0.156658 31.3316L0.469974 28.6684L1.09661 25.6919L2.34987 22.0888L3.75979 19.1123L4.8564 17.389L6.10966 15.6658L8.14621 13.1593L9.24282 11.906L11.1227 10.0261L13.1593 8.45953L16.2924 6.26632L20.2089 4.07311L22.8721 2.81984L27.5718 1.25326L31.6449 0.469974L34.3081 0.156658L37.9112 0Z" fill="#F13941"/>
<path d="M41.9813 14.2559L42.2946 14.5692L44.0179 22.5587L45.7411 29.295L47.4643 35.8747L49.1876 42.141L50.1275 44.8042L50.4408 45.1175L51.6941 45.4308H52.9474L54.9839 45.1175L55.4539 44.3342L56.3938 41.9843L58.1171 38.3812L59.057 36.0313L59.6837 34.9347L60.3103 35.0914L61.2502 36.6579L62.3468 38.8512L63.6001 40.8877L64.3834 41.671L65.48 41.8277H78.9526L79.1092 42.141L77.2293 46.0574L75.8194 48.7206L74.5662 50.6005L72.6863 53.107L71.5897 54.2036L70.4931 55.4569L68.4565 57.3368L65.7933 59.3734L63.4434 60.9399L59.997 62.8198L57.0205 64.0731L52.7907 65.483L48.091 66.5796L45.5844 66.8929L43.3912 67.0496H35.715L32.4252 66.7363L28.5087 65.953L22.869 64.0731L19.7359 62.6632L16.6027 60.9399L14.2528 59.3734L12.5296 57.9634L10.6497 56.2402L7.67321 53.2637L5.94997 51.0705L4.38339 48.8773L2.66016 46.2141L2.81681 45.2741L3.75676 44.4908L6.57661 42.611L11.903 38.6945L12.6863 38.0679L13.7829 36.8146L14.4095 36.6579L15.3495 38.0679L16.6027 40.5744L18.6393 44.4908L19.5792 46.0574L21.4591 49.5039L23.809 54.2036L24.279 54.6736L25.0622 54.8303L26.3155 52.3237L27.4121 49.8172L28.9787 45.7441L30.3886 42.4543L32.1119 38.2245L33.2085 35.5613L34.9317 31.4882L36.8116 26.9452L38.2215 23.6553L39.9448 19.4256L41.668 14.8825L41.9813 14.2559Z" fill="#F13941"/>
<path d="M91.952 11.9062L94.4585 12.0629L96.0251 12.5329L97.7483 13.6295L98.6882 14.8828L99.3149 16.136L99.7849 18.3292V20.3658L99.3149 22.4023L98.0616 24.7522L98.5316 24.4389L99.3149 24.5955L99.9415 25.5355V26.7888L99.4715 27.2587L99.1582 27.4154H97.435L96.495 27.1021L95.3984 27.2587L94.7718 27.4154L90.8553 27.2587L88.8188 26.6321L87.8788 26.0055L86.9389 25.2222L85.6856 23.3423L85.059 21.3057L84.9023 20.3658V18.3292L85.529 16.2927L86.6256 14.4128L87.8788 13.1595L89.7587 12.2196L91.952 11.9062ZM91.3253 14.0995L90.0721 14.8828L89.1321 15.9794L88.3488 17.8593L88.1922 18.6425V20.6791L88.5055 22.089L89.2888 23.4989L90.542 24.4389L91.482 24.7522H93.8318L94.9285 24.1256L95.8684 23.029L96.495 21.1491L96.6517 19.1125L96.3384 17.3893L95.3984 15.5094L94.1452 14.4128L93.5185 14.0995H91.3253Z" fill="#7B7B7B"/>
<path d="M226.677 41.8281L228.244 41.9848L229.81 42.6114L230.593 43.3947L230.907 44.178L231.063 45.7446V52.7942L230.28 53.2642H228.4L227.93 52.7942L227.617 45.2746L226.99 44.4913L226.05 44.178H224.64L223.857 44.4913L223.7 46.0579L223.544 52.6375L223.074 53.2642H221.037L220.411 52.4809L220.254 46.6845L219.941 45.1179L219.471 44.3347L218.687 44.0213H217.121L216.338 44.8046L216.024 52.7942L215.711 53.1075L215.084 53.2642H213.988L213.204 52.9508L212.891 52.4809L212.734 51.2276V42.9247L213.204 42.1414L217.434 42.4548L219.471 41.9848H220.567L223.544 43.5514L224.797 42.9247L225.424 42.4548L226.677 41.8281Z" fill="#7B7B7B"/>
<path d="M184.853 11.123H186.733L187.516 11.593L187.673 11.7497L187.829 16.9194L189.239 15.9794L190.492 15.5095H193.312L194.566 16.1361L195.976 17.546L197.542 20.0526V21.1492L196.602 23.6557L195.506 25.3789L194.252 26.6322L192.999 27.1022H189.239L187.203 26.9455L186.733 27.2588L185.479 27.1022L184.696 26.4755L184.383 25.2223V11.4364L184.853 11.123ZM189.709 17.546L188.769 18.1727L187.986 19.2693L187.673 20.3659V22.7157L188.143 23.8123L189.239 24.7523L189.709 24.9089H191.589L192.529 24.439L193.156 23.6557L193.626 22.0891V20.5225L193.312 19.2693L192.686 18.1727L191.589 17.546H189.709Z" fill="#7B7B7B"/>
<path d="M234.982 37.7539H237.018L237.802 38.2239L237.958 38.8505L237.488 41.0437L237.645 42.9236L237.802 43.3936L239.211 43.2369L241.561 42.4536L242.188 40.2604L242.658 39.3205L242.971 39.1638H244.381L245.164 39.6338L245.634 40.7304L246.104 42.1403L247.828 42.767L248.454 43.3936L248.298 43.7069L245.791 44.1769L245.478 45.2735L245.321 46.6834V48.72L245.791 50.7565L245.948 51.2265L246.888 51.5398L247.671 52.3231L248.141 52.9497L247.984 53.5764L247.671 53.733H244.381L243.128 53.263L242.501 52.1664L242.031 50.2865L241.875 47.9367V44.1769L237.958 43.7069L238.115 50.2865V52.9497L237.645 53.263L235.922 53.4197L234.825 53.1064L234.512 52.3231V43.5503L234.825 42.297V40.7304L234.668 38.0672L234.982 37.7539Z" fill="#7C7C7C"/>
<path d="M273.365 37.9121H275.245L275.872 38.2254L276.028 52.638L275.402 53.1079L273.365 53.2646L272.112 53.1079L269.919 53.5779H267.255L266.002 53.1079L264.749 51.8547L263.809 49.9748L263.652 48.2515L263.809 46.3716L264.592 44.4917L265.846 42.9252L266.786 42.2985L268.509 41.8286L270.075 41.9852L271.799 42.2985L272.582 42.1419V38.6954L272.895 38.0688L273.365 37.9121ZM268.665 43.8651L267.725 44.4917L266.942 46.0583L266.786 46.8416V48.7215L267.255 50.1314L267.725 50.9147L268.979 51.5414H270.859L271.799 51.0714L272.425 50.2881L272.739 49.3481V46.5283L272.269 44.9617L271.642 44.1784L270.389 43.8651H268.665Z" fill="#7D7D7D"/>
<path d="M154.616 41.9844H157.123L159.002 42.2977L160.099 42.9243L160.726 44.1776L161.039 47.3107L161.196 50.2872V52.7938L160.412 53.4204L159.159 53.2637L157.436 52.6371L156.496 52.7938L155.086 53.4204H152.736L151.483 52.9504L150.856 52.1671L150.543 50.2872L150.856 49.1906L151.483 48.4074L153.833 47.1541L154.303 45.7442H151.64L151.326 45.4309L151.483 44.0209L152.423 42.7677L153.206 42.2977L154.616 41.9844Z" fill="#7B7B7B"/>
<path d="M106.841 38.6953H113.577L115.614 39.0086L116.867 39.7919L117.807 40.8885L118.12 41.8285L118.277 43.865L117.963 45.7449L117.18 46.8415L115.927 47.6248L114.83 47.9381L110.757 48.2514L109.974 48.4081V52.7945L109.191 53.2645H107.154L106.527 52.7945V39.3219L106.841 38.6953ZM110.757 40.8885L109.974 41.6718V44.6483L110.444 45.7449L110.914 45.9016H112.95L114.204 45.4316L114.83 44.6483L114.987 43.2384L114.517 41.8285L113.734 41.2018L112.794 40.8885H110.757Z" fill="#7A7A7A"/>
<path d="M227.468 15.3516H229.505L231.072 15.6649L232.012 16.2915L232.951 17.3881L233.421 18.6414L233.578 19.4247V26.3176L232.795 27.1009H229.662L228.722 27.2576H225.589L224.335 26.7876L223.395 25.691L223.082 24.9077V23.0278L224.022 20.9912V18.1714L224.805 16.6048L226.059 15.6649L227.468 15.3516ZM227.625 17.2315L226.998 17.5448L226.529 18.6414L226.372 20.8346L227.625 20.6779L229.505 20.208L230.132 19.738L230.288 18.3281L229.975 17.5448L229.348 17.2315H227.625ZM229.818 21.6179L226.998 22.4012L226.372 22.8711L226.215 23.9678L226.685 24.751L228.408 25.221L229.505 25.0644L229.975 24.5944L230.132 24.1244V21.7745L229.818 21.6179Z" fill="#7D7D7D"/>
<path d="M280.727 15.3516H283.233L284.956 15.9782L286.21 16.9181L287.15 18.1714L287.62 19.268L287.463 22.4012L287.15 24.1244L286.21 25.691L284.643 26.9443L282.607 27.5709H280.883L279.317 27.1009L278.063 26.161L276.81 24.751L276.184 23.1845V20.208L276.654 18.798L277.594 17.3881L278.377 16.4482L279.63 15.6649L280.727 15.3516ZM281.197 17.2315L280.413 17.7014L279.787 19.268L279.473 20.8346V23.4978L280.257 24.5944L281.197 25.0644H282.763L283.703 24.5944L284.486 23.6544L284.8 23.0278V21.6179L284.486 21.4612L283.703 21.6179H279.943L280.413 20.6779L282.293 20.208L284.016 19.738L283.86 18.3281L283.077 17.3881L282.607 17.2315H281.197Z" fill="#7C7C7C"/>
<path d="M174.827 15.5098H177.647L179.057 15.9797L179.997 16.6064L180.937 18.0163L181.407 19.8962V26.0058L180.937 26.7891L180.467 26.9458H177.021L173.887 27.2591L172.478 27.1025L171.381 26.1625L170.754 24.5959L170.598 23.3427L171.538 21.4628L172.321 21.1495L173.731 20.8361L174.827 20.3662L177.647 19.7395V18.6429L177.021 17.703H175.611L173.887 18.6429L172.478 19.4262H171.538L171.068 18.9562L171.224 18.0163L171.851 17.0763L173.104 15.9797L173.887 15.6664L174.827 15.5098ZM176.707 21.7761L173.887 22.2461L173.731 22.5594V23.8126L174.044 24.4393L175.141 24.9092H176.707L177.491 24.4393L177.804 23.186V21.9327L177.647 21.7761H176.707Z" fill="#7B7B7B"/>
<path d="M122.029 15.3516H123.596L125.632 15.9782L127.199 17.3881L127.982 18.6414L128.295 20.3646L127.825 23.6544L127.199 25.0644L126.102 26.3176L124.849 27.1009L123.439 27.5709H121.559L119.836 26.9443L118.269 25.5343L117.329 24.1244L116.859 22.4012V19.8946L117.486 18.3281L118.896 16.6048L120.306 15.6649L122.029 15.3516ZM122.029 17.2315L120.776 18.1714L120.463 18.6414V20.5213L121.246 20.6779L124.536 19.738L124.849 19.4247L124.692 18.4847L124.066 17.5448L123.596 17.2315H122.029ZM120.149 21.4612L119.836 23.0278L120.463 24.2811L121.716 25.0644H123.752L124.849 24.4377L125.476 23.3411V22.0879L125.006 21.4612L123.282 21.6179L122.499 21.7745H120.306L120.149 21.4612Z" fill="#7B7B7B"/>
<path d="M178.588 41.8281L180.468 41.9848L182.035 42.6114L183.602 44.0213L184.228 45.2746L184.385 45.9012V48.0944L184.072 50.601L183.445 51.8542L182.192 52.9508L180.312 53.7341L179.372 53.8908H177.805L176.239 53.4208L174.985 52.4809L173.889 51.0709L173.262 49.3477L173.105 48.2511V46.3712L173.732 44.8046L174.829 43.3947L176.552 42.2981L177.492 41.9848L178.588 41.8281ZM177.805 43.8647L177.022 44.4913L176.709 45.2746L176.395 47.3112V49.9743L177.022 51.0709L177.805 51.5409L179.215 51.6976L180.468 51.2276L181.252 50.4443L181.722 49.3477L181.565 48.4078L181.095 48.2511H176.865V47.3112L177.022 46.9978L179.842 46.8412L181.095 46.3712L180.782 44.8046L179.685 43.8647H177.805Z" fill="#7C7C7C"/>
<path d="M103.702 15.666H105.739L106.052 15.9793L106.209 17.0759L106.052 18.1725V23.0289L106.522 24.2822L107.306 24.7522L107.776 24.9088H109.499L110.125 24.4389L110.595 22.089L110.752 16.136L111.222 15.666H113.102L113.729 15.9793L114.042 16.9193V26.1621L113.259 27.102H112.005L110.909 26.7887H109.655L108.872 27.102L107.776 27.2587H105.426L104.172 26.6321L103.389 25.6921L102.763 24.1255L102.606 23.4989L102.449 20.3658V16.606L102.606 16.136L103.702 15.666Z" fill="#7A7A7A"/>
<path d="M204.277 15.3516H205.53L207.723 15.8215L209.133 16.7615L210.23 18.0147L210.856 19.4247L211.013 20.208V22.4012L210.543 24.1244L209.603 25.3777L208.35 26.4743L207.097 27.1009L205.53 27.4142H204.12L202.554 27.1009L201.614 26.6309L200.517 25.691L199.577 24.1244L198.48 21.4612V20.3646L199.107 19.268L200.204 17.7014L201.3 16.4482L202.554 15.6649L204.277 15.3516ZM204.12 17.3881L203.18 18.0147L202.24 19.5813L202.084 20.208V22.4012L202.71 23.8111L203.494 24.751L203.963 24.9077H205.843L206.783 24.4377L207.41 23.6544L207.88 22.0879V20.5213L207.41 18.9547L206.313 17.7014L205.53 17.3881H204.12Z" fill="#7B7B7B"/>
<path d="M251.12 15.3516L253.157 15.5082L254.88 16.1349L256.447 17.5448L257.386 19.4247L257.543 20.3646V22.0879L257.23 23.6544L256.603 24.9077L255.507 26.161L253.783 27.1009L252.217 27.4142H250.65L248.927 27.1009L247.674 26.161L246.42 24.751L245.794 23.3411L245.48 21.3046L245.794 19.5813L246.89 17.5448L248.3 16.1349L249.867 15.5082L251.12 15.3516ZM251.12 17.3881L250.024 17.8581L249.24 18.798L248.77 20.208L248.614 21.6179L248.927 23.1845L249.397 24.1244L250.337 24.9077H252.373L253.313 24.4377L253.94 23.4978L254.253 21.7745L254.097 19.738L253.627 18.4847L252.843 17.7014L251.12 17.3881Z" fill="#7B7B7B"/>
<path d="M254.884 41.8281H256.764L258.33 42.2981L259.74 43.238L260.68 44.4913L261.15 45.5879L261.307 46.3712V47.7811L260.993 48.4078L260.837 50.7576L260.367 51.6976L259.74 52.4809L258.174 53.4208L257.077 53.7341L255.197 53.8908L253.63 53.5775L252.377 52.9508L251.437 52.1676L250.497 50.601L250.027 48.0944V46.2145L250.654 44.648L251.751 43.3947L253.004 42.4548L254.1 41.9848L254.884 41.8281ZM255.197 43.708L254.1 44.178L253.63 44.648L253.317 46.9978L253.161 48.0944L253.63 47.4678L254.1 46.9978L256.45 46.8412L258.017 46.2145L257.86 45.1179L257.39 44.3347L256.764 43.8647L255.197 43.708ZM257.86 47.9378L256.294 48.2511L253.944 48.4078L253.474 48.5644L253.161 49.191L253.317 50.2877L254.257 51.3843L255.04 51.6976H256.45L258.017 51.0709L259.114 49.8177L259.27 49.5044V48.4078L258.8 47.9378H257.86Z" fill="#7D7D7D"/>
<path d="M133.625 15.666H137.071L138.794 15.9793L139.578 16.7626L139.734 17.7026L138.324 18.7992L138.011 19.4258L138.168 20.6791L138.638 21.149L140.048 21.7757L140.517 22.4023L140.674 22.8723V23.9689L140.204 25.2222L138.951 26.6321L137.698 27.2587L136.914 27.4154H134.721L132.841 26.9454L131.275 25.5355L130.805 24.5955V23.0289L131.745 23.1856L134.095 24.7522L135.191 25.2222H136.758L137.228 24.5955L137.071 23.8122L136.444 23.1856L135.348 22.7156L131.431 20.8357L131.118 20.5224L130.961 19.8958V18.0159L131.588 17.0759L132.685 15.9793L133.625 15.666Z" fill="#7B7B7B"/>
<path d="M192.211 38.6953H195.031L195.658 39.0086V50.6013H203.491L203.804 51.0713V52.7945L203.334 53.1078L200.984 53.2645H192.525L192.055 52.6379V38.852L192.211 38.6953Z" fill="#7A7A7A"/>
<path d="M293.262 15.5098H296.395L298.118 16.1364L298.902 16.9197L299.528 17.8596L299.685 18.9562L299.528 19.1129L298.118 18.9562L296.395 18.0163L295.455 17.5463H294.515L293.889 17.8596L293.732 18.173V19.1129L294.985 19.7395L297.805 20.9928L299.215 21.7761L299.842 22.8727L299.998 23.9693L299.528 25.3792L298.745 26.3192L297.335 27.1025L296.395 27.4158H293.732L291.852 26.7891L290.442 25.5359L290.129 24.9092V23.0293L290.442 22.716L292.479 24.2826L294.359 25.0659H295.925L296.395 24.5959V23.656L295.142 22.8727L291.539 21.1495L290.442 20.6795L290.286 20.3662V18.4863L291.069 16.9197L292.322 15.8231L293.262 15.5098Z" fill="#7C7C7C"/>
<path d="M157.442 12.5332H160.105L160.732 12.8465L160.888 13.1598L160.732 24.1259H167.938L168.408 24.4392L168.565 25.0658V26.7891L167.625 26.9457H157.598L157.285 26.0058V12.8465L157.442 12.5332Z" fill="#7E7E7E"/>
<path d="M137.385 41.9844L138.952 42.141L139.892 42.7677L140.362 43.7076L140.988 46.5275L141.615 48.094L142.398 48.8773L143.025 49.034L143.652 48.2507L144.122 46.6841L144.905 43.7076L145.375 42.7677L146.158 42.2977L147.098 41.9844L148.351 42.141L148.508 42.9243L147.881 44.9609L145.531 50.9139L144.592 52.6371L143.808 53.1071H141.302L140.518 52.6371L139.578 51.2272L138.482 48.4074L137.072 44.6476L136.445 42.9243V42.141L137.385 41.9844Z" fill="#7D7D7D"/>
<path d="M238.901 12.377L240.311 12.5336L240.938 13.3169L241.251 14.1002L241.408 15.1968L243.601 16.1367L244.071 16.4501L243.915 17.2333L242.505 17.7033L241.251 18.0166L241.095 21.7764L241.408 23.6563L242.348 24.9096L243.445 26.1629L243.601 27.1028L243.131 27.4161H240.155L239.058 26.9461L238.118 25.8495L237.805 24.5963L237.335 18.7999L236.708 17.5467L236.238 16.7634L236.395 16.1367L237.178 15.1968L237.648 13.4736L238.118 12.6903L238.901 12.377Z" fill="#7A7A7A"/>
<path d="M144.751 12.5332H146.474L147.101 13.4732L147.571 15.0397L148.667 15.6664L149.921 16.293L150.077 17.2329L149.607 17.5463L147.727 18.0162L147.414 18.1729L147.258 19.1128L147.101 22.5593L147.414 23.9692L148.197 24.5959L149.451 25.3792L149.921 26.1624V26.9457L148.667 27.2591H145.848L144.751 26.7891L144.124 25.5358L143.968 24.7525L143.654 18.6429L143.184 17.5463L142.871 16.9196L143.028 15.9797L143.654 13.7865L144.281 12.8465L144.751 12.5332Z" fill="#7B7B7B"/>
<path d="M166.212 39.1641L167.622 39.3207L168.406 40.104L169.032 41.6706L170.755 42.9239L171.225 43.5505L169.815 44.1771L168.876 44.6471L168.562 45.4304L168.406 47.9369L168.719 49.9735L169.345 50.9134L170.755 52.1667L171.069 52.6366V53.4199L170.442 53.7333L168.719 53.8899L167.152 53.5766L166.212 53.1066L165.586 52.3233L165.116 50.6001L164.959 49.1902L164.802 45.587L164.489 44.3338L164.176 43.8638L164.332 42.6105L164.802 40.2607L165.429 39.4774L166.212 39.1641Z" fill="#7B7B7B"/>
<path d="M206.78 37.5977H208.346L209.13 38.0676L209.443 38.5376L209.286 39.6342L208.816 41.3574L209.443 42.924V53.1068L208.816 53.4201H206.936L206.153 52.9501L205.997 52.6368L205.84 50.287V46.3705L205.997 42.4541L206.31 41.0441L205.997 39.4776V38.0676L206.78 37.5977Z" fill="#7B7B7B"/>
<path d="M234.982 37.7539H237.018L237.802 38.2239L237.958 38.8505L237.488 41.0437L237.645 42.9236L237.802 43.3936L238.428 43.7069H237.958L238.115 50.2865V52.9497L237.645 53.263L235.922 53.4197L234.825 53.1064L234.512 52.3231V43.5503L234.825 42.297V40.7304L234.668 38.0672L234.982 37.7539Z" fill="#7A7A7A"/>
<path d="M213.993 15.8223H215.559L217.596 16.1356L218.222 16.2922L219.476 15.8223H221.042L221.825 16.6056V17.5455L221.199 18.1721L218.066 19.4254L217.596 19.8954L217.282 22.4019V26.1617L216.969 26.7883L216.656 26.945H214.306L213.836 26.475V15.9789L213.993 15.8223Z" fill="#7A7A7A"/>
<path d="M260.673 15.666L263.179 15.9793L264.119 16.4493L264.746 16.606L265.999 15.8227L267.409 15.666L268.192 16.136L268.036 17.0759L267.252 18.1725L265.999 18.7992L264.432 19.4258L263.963 20.5224L263.806 22.2457L263.649 26.3188L263.023 26.9454H260.986L260.359 26.3188V15.8227L260.673 15.666Z" fill="#7A7A7A"/>
<path d="M131.589 37.4414L132.999 37.5981L133.469 38.068L133.625 38.3814L133.939 45.9009V49.974L133.782 52.7939L132.999 53.2639H130.962L130.492 52.4806L130.649 43.8644L130.962 42.4545L131.432 41.3579L130.649 39.478L130.492 38.6947L130.962 37.7547L131.589 37.4414Z" fill="#7A7A7A"/>
<path d="M126.734 42.1406H128.144L128.457 42.2973V43.7072L125.481 45.2738L124.698 45.5871L124.384 47.6237L124.228 52.95L123.444 53.2633H121.408L120.781 52.6367V42.7673L121.095 42.2973L123.131 42.4539L124.384 43.2372L125.011 43.0806L126.734 42.1406Z" fill="#7A7A7A"/>
<path d="M226.679 41.8281L228.245 41.9848L229.812 42.6114L230.595 43.3947L230.909 44.178L231.065 45.7446V52.7942L230.282 53.2642H228.402L227.932 52.7942L227.619 45.2746L226.992 44.4913L226.052 44.178H224.642L224.016 44.3347V43.3947L224.956 42.7681L226.679 41.8281Z" fill="#7A7A7A"/>
<path d="M271.018 15.3516L272.428 15.5082L273.211 15.9782L273.368 16.2915V26.6309L272.741 27.2576H270.705L270.078 26.6309V18.1714L270.235 16.6048L271.018 15.3516Z" fill="#7D7D7D"/>
<path d="M206.783 37.5977H208.35L209.133 38.0676L209.446 38.5376L209.29 39.6342L208.82 41.3574L208.977 42.1407H206.157L206.313 41.0441L206 39.4776V38.0676L206.783 37.5977Z" fill="#7C7C7C"/>
<path d="M234.981 37.7539H237.018L237.801 38.2239L237.958 38.8505L237.488 41.0437V42.4536H234.825V40.7304L234.668 38.0672L234.981 37.7539Z" fill="#7C7C7C"/>
<path d="M131.589 37.4414L132.999 37.5981L133.469 38.068L133.625 38.3814L133.782 42.6111L131.119 42.2978L131.432 41.3579L130.649 39.478L130.492 38.6947L130.962 37.7547L131.589 37.4414Z" fill="#7B7B7B"/>
<path d="M280.727 49.9746L281.98 50.1313L282.764 50.6012L283.234 52.0112L282.92 52.9511L282.45 53.2644L280.414 53.4211L279.317 52.9511L279.004 52.4811V51.2279L279.631 50.4446L280.727 49.9746Z" fill="#7C7C7C"/>
<path d="M271.168 10.9668L272.578 11.1235L273.204 11.9067V13.7866L272.578 14.2566H271.324L270.384 13.63L269.758 12.5334L270.071 11.5934L270.698 11.1235L271.168 10.9668Z" fill="#818181"/>
<path d="M155.876 48.7207H156.659L157.129 49.1907L156.972 50.1306L157.442 50.2873L157.286 50.9139L156.816 51.2272L154.936 51.3839L154.152 50.9139V49.8173L154.466 49.3473L155.876 48.7207Z" fill="#F5F5F5"/>
<path d="M154.929 44.4902H156.339L157.435 44.8036L157.592 45.5868L157.122 46.2135L154.929 46.6834H154.145L154.302 45.7435L153.832 45.5868L154.615 44.6469L154.929 44.4902Z" fill="#FDFDFD"/>
<path d="M133.471 40.7305H133.628L133.784 41.5138V42.6104L131.121 42.297L131.434 41.5138L133.471 40.7305Z" fill="#F7F7F7"/>
<path d="M206.317 40.5742L206.63 40.7309V41.2009H206.943V41.5142H208.197L208.823 41.3575L208.98 42.1408H206.16L206.317 40.5742Z" fill="#FEFEFE"/>
<path d="M224.486 20.209H225.583L225.896 20.5223L224.173 21.7756H223.859L224.173 20.3656L224.486 20.209Z" fill="#EAEAEA"/>
<path d="M280.723 15.3516H283.23L283.387 15.8215H280.41V15.5082L280.723 15.3516Z" fill="#FEFEFE"/>
<path d="M260.677 48.4082H260.834V50.7581L260.364 51.698L260.207 51.228L260.364 49.5048L260.677 48.4082Z" fill="#FEFEFE"/>
<path d="M257.542 52.9512H258.795L258.169 53.4211L257.072 53.7345L256.445 53.5778V53.1078L257.542 52.9512Z" fill="#FEFEFE"/>
<path d="M136.133 19.8965H137.856L138.013 20.6798L136.916 20.5231L136.133 19.8965Z" fill="#FEFEFE"/>
<path d="M234.985 41.8281L235.298 42.1414L237.178 41.9848L237.491 41.8281V42.4548H234.828L234.985 41.8281Z" fill="#FEFEFE"/>
<path d="M122.036 15.3516H123.603L123.29 15.5082V15.8215L121.566 15.9782V15.5082L122.036 15.3516Z" fill="#FEFEFE"/>
<path d="M182.504 48.4082L182.661 48.7215H182.974L183.444 49.1915L184.07 49.5048L183.914 49.9748L182.661 49.3482L182.504 49.1915V48.4082Z" fill="#FEFEFE"/>
<path d="M146.16 13.4727L146.473 13.9426L146.63 14.4126V15.6659H146.16V13.4727Z" fill="#FEFEFE"/>
<path d="M137.227 18.4863H138.324L138.167 19.113H137.227L137.07 18.643L137.227 18.4863Z" fill="#FEFEFE"/>
</svg>
