<svg width="300" height="47" viewBox="0 0 300 47" fill="none" xmlns="http://www.w3.org/2000/svg">
<path d="M14.7647 0H19.0462L22.1466 0.738191L24.5088 1.77166L26.7234 3.1004L28.6427 4.87206L30.4144 7.08663L31.7431 9.44884L32.4813 11.3681L33.0718 14.3209V17.7166L32.4813 20.6693L31.7431 22.5886L30.2667 25.2461L28.938 26.8702L27.4616 28.3465L25.9852 29.38L24.0659 30.5611L22.2943 31.2993L19.932 31.8899L19.0462 32.0375H14.6171L12.1072 31.4469L10.1879 30.7087L8.56391 29.8229L6.93989 28.6418L5.16823 27.0178L3.83948 25.5414L2.21546 22.7363L1.47727 20.6693L0.886719 18.0119V13.878L1.47727 11.3681L2.3631 9.15357L3.39657 7.23427L4.87295 5.31498L6.34933 3.83859L8.56391 2.21457L10.9261 1.03347L13.8789 0.147638L14.7647 0Z" fill="#C1063B"/>
<path d="M64.9606 5.01953H66.4369L68.7992 5.31481L70.5708 5.90536L72.4901 6.93883L73.8189 8.11993L73.6712 8.85812L71.309 11.0727L70.7185 11.2203L69.9803 10.3345L68.3562 9.44868L67.7657 9.30104H64.2224L62.746 9.89159L61.7125 10.7774L60.9743 11.9585L60.5314 13.4349L60.3838 14.9113V16.5353L60.6791 18.7499L61.4172 20.5215L62.0078 21.2597L63.7795 22.1456L64.2224 22.2932H68.061L69.3897 21.8503L69.5373 18.307H65.5511V14.4684L65.6988 14.3207H73.9665L74.1141 14.616L73.9665 24.6554L71.8996 25.6889L69.0944 26.4271L68.061 26.5747H63.7795L61.2696 25.9842L59.498 25.0983L57.7263 23.4743L56.6928 21.8503L55.9546 19.7834L55.5117 16.9782V14.9113L55.807 12.5491L56.5452 10.3345L57.2834 8.85812L58.9074 7.08647L60.9743 5.90536L62.746 5.31481L64.9606 5.01953Z" fill="#747476"/>
<path d="M137.894 11.3691L139.518 11.5168L140.847 12.1073L141.29 12.5502L142.028 12.255L143.8 11.6644L144.686 11.5168H146.753L148.377 11.9597L149.41 12.6979L150.296 14.0266L150.591 15.2077V26.2806H146.457L146.31 16.3888L145.719 15.503L144.39 15.0601L142.323 15.3554V26.2806H138.337L138.19 18.0129L138.042 16.0936L137.451 15.3554L136.566 15.0601L135.237 15.2077L134.351 15.6506L134.203 26.2806L133.908 26.4282L129.922 26.2806V11.9597L130.217 11.8121H133.908L134.056 12.5502L135.532 11.9597L136.861 11.5168L137.894 11.3691Z" fill="#747476"/>
<path d="M89.1732 5.16797H92.126L94.3405 5.61088L96.1122 6.34907L97.8838 7.38254L98.1791 7.67782L98.0315 8.26837L96.4075 10.1877L95.9645 10.7782L95.374 10.6306L94.1929 9.74475L92.7165 9.1542L91.9783 9.00656H90.059L88.1397 9.59711L86.811 10.7782L86.0728 11.9593L85.6299 13.4357L85.4822 15.0597V16.5361L85.7775 18.7507L86.3681 20.3747L87.2539 21.5558L88.7303 22.294L90.3543 22.5893H92.126L94.1929 22.294L96.5551 21.5558H96.998L97.7362 23.918L98.0315 24.9515L96.1122 25.8373L94.0452 26.4279L91.8307 26.7231H89.7637L87.6968 26.4279L85.7775 25.8373L84.3011 24.9515L82.8247 23.6227L81.7913 21.9987L81.0531 19.7842L80.7578 18.1601V13.731L81.3484 11.2211L82.5295 8.85892L83.8582 7.38254L85.3346 6.34907L87.1063 5.61088L89.1732 5.16797Z" fill="#747476"/>
<path d="M99.9523 5.46289H104.086V12.4019L106.301 11.6637L107.039 11.5161H109.696L111.32 12.1066L112.059 12.6972L112.797 13.8783L113.092 14.9117V26.2799H108.958L108.811 16.5358L108.368 15.6499L107.482 15.0594L106.301 14.9117L105.12 15.207L104.234 15.6499L104.086 26.2799H99.9523L99.8047 5.61053L99.9523 5.46289Z" fill="#747476"/>
<path d="M120.177 11.5156H123.13L125.05 12.1062L126.231 12.992L127.264 14.1731L128.002 15.9448L128.298 17.4212V19.931L124.902 20.0786H119.144V21.2597L119.735 22.4409L120.916 23.179L121.654 23.3267H123.573L125.64 22.8838L126.821 22.4409H127.264L127.855 24.3601V25.246L126.231 25.9842L124.016 26.5747L122.687 26.7224H120.916L118.701 26.2794L117.225 25.5413L116.339 24.8031L115.453 23.3267L114.862 21.555L114.715 20.6692V17.5688L115.158 15.6495L116.191 13.7302L117.372 12.5491L118.996 11.8109L120.177 11.5156Z" fill="#747476"/>
<path d="M40.3039 5.46289H45.0283L45.1759 21.9984L54.9201 22.146L55.0677 22.2936V25.9846L54.9201 26.2799H40.3039L40.1562 25.0988V5.61053L40.3039 5.46289Z" fill="#747476"/>
<path d="M16.8304 2.50977L17.5686 2.6574V3.69087L17.421 3.83851L13.8776 4.28142L11.5154 5.16725L10.039 6.05308L8.56267 7.23419L7.5292 8.26766L6.34809 10.187L5.46227 12.1062L4.87171 14.4685V17.7165L5.46227 20.0787L6.64337 22.4409L8.11975 24.3602L9.4485 25.689L11.3678 26.8701L13.1395 27.6083L15.0587 28.0512H18.6021L21.1119 27.4606L23.4741 26.2795L24.8029 25.246L26.4269 23.622L27.7556 21.5551L28.6415 19.1929L29.0844 16.683L24.8029 16.8307L20.9643 16.683L20.8166 16.5354V15.5019H30.2655L30.4131 15.9448L30.1178 18.6023L29.5273 20.9645L28.4938 23.0315L27.0174 24.9508L25.6887 26.2795L23.7694 27.6083L22.293 28.3465L19.9308 29.0846L18.3068 29.3799H15.5017L12.8442 28.7894L10.039 27.6083L8.26739 26.2795L6.64337 24.6555L5.31463 22.7362L4.4288 20.9645L3.83825 18.8976L3.54297 17.2736V14.7637L3.98588 12.4015L4.57644 10.6299L5.90518 8.26766L7.67684 6.34836L8.71031 5.31489L10.7772 3.98615L12.5489 3.24796L15.2064 2.6574L16.8304 2.50977Z" fill="#FDFEFE"/>
<path d="M199.902 35.582H202.117L203.298 36.0249L204.479 37.3537L204.774 38.0919L204.922 38.9777V40.4541L204.626 41.7828L203.741 42.9639L202.559 43.7021L201.969 43.8498H199.459L198.426 43.4069L197.392 42.3734L196.949 41.0446V38.6824L197.392 37.3537L197.983 36.4679L199.164 35.7297L199.902 35.582Z" fill="#747476"/>
<path d="M163.437 35.582H165.652L166.833 36.0249L167.866 37.2061L168.309 38.2395L168.457 39.273V40.4541L168.014 42.0781L167.128 43.1116L166.095 43.7021L165.504 43.8498H162.994L161.961 43.4069L160.927 42.3734L160.484 41.0446V38.6824L160.927 37.3537L161.518 36.4679L162.699 35.7297L163.437 35.582Z" fill="#747476"/>
<path d="M74.2645 32.1855H76.922L79.1365 32.7761L79.2842 32.9237V33.6619L78.6936 34.5478L77.3649 34.2525L76.6267 34.1048H74.5597L73.8216 34.6954L73.6739 35.4336L74.1168 36.1718L77.2172 37.5005L78.3983 38.0911L79.2842 39.1245L79.5794 40.4533V41.3391L78.8412 42.5202L77.8078 43.406L76.3314 43.849H74.2645L72.1975 43.406L71.1641 42.9631L71.4593 42.2249L71.9023 41.3391L72.7881 41.4868L74.5597 41.9297H75.7408L76.7743 41.4868L77.2172 40.8962L77.0696 40.158L75.8885 39.4198L72.9357 38.2387L71.7546 37.2052L71.3117 36.3194V34.6954L71.9023 33.5143L72.7881 32.7761L74.2645 32.1855Z" fill="#747476"/>
<path d="M180.562 35.582H182.186L183.663 36.0249L184.401 37.2061L184.548 37.7966L184.696 41.6352L185.287 42.3734V43.7021H183.515L182.777 43.1116L182.039 43.4069L181.005 43.8498H179.233L178.348 43.4069L177.757 42.6687L177.609 42.2258V40.4541L178.052 39.5683L178.643 39.1253L179.824 38.8301L182.186 38.6824V37.9442L181.448 37.3537H179.972L178.79 37.649H178.2L178.052 37.3537V36.4679L178.643 36.0249L179.529 35.7297L180.562 35.582Z" fill="#747476"/>
<path d="M223.377 32.1855H225.591L227.215 32.7761L228.397 33.5143L228.544 33.8096L227.511 34.9907L226.773 34.6954L226.182 34.2525L225.149 33.9572H224.115L223.229 34.4001L222.491 35.1383L221.9 36.3194L221.753 37.0576V38.9769L222.196 40.4533L222.786 41.3391L223.524 41.782H225.887L227.363 41.3391L228.101 41.4868L228.397 42.9631L228.101 43.2584L225.887 43.849H223.229L221.605 43.2584L220.719 42.5202L219.834 41.1915L219.391 39.5675V36.6147L219.981 34.6954L220.867 33.5143L221.753 32.7761L223.377 32.1855Z" fill="#747476"/>
<path d="M95.6707 35.582H97.4424L98.4758 35.8773L99.214 36.4679L99.9522 37.9442L100.1 38.8301V40.1588L99.9522 40.3065H94.9325L95.2278 41.4876L95.8184 42.0781H98.1806L99.5093 41.7828L99.8046 42.3734L99.6569 43.1116L98.3282 43.7021L97.4424 43.8498H95.2278L93.8991 43.2592L93.0132 42.2258L92.5703 40.7494V38.6824L93.0132 37.3537L94.0467 36.1726L94.9325 35.7297L95.6707 35.582Z" fill="#747476"/>
<path d="M232.529 35.582H234.301L235.482 36.0249L236.368 37.0584L236.811 38.2395V40.3065H231.643L232.086 41.6352L232.529 42.0781H234.892L236.22 41.7828L236.516 42.0781V42.9639L235.925 43.4069L234.301 43.8498H231.939L230.758 43.2592L229.724 42.0781L229.281 40.3065L229.429 38.3872L230.019 37.0584L230.61 36.3202L231.791 35.7297L232.529 35.582Z" fill="#747476"/>
<path d="M256.593 35.582H258.513L259.694 36.0249L260.58 37.0584L261.023 38.2395V40.3065L256.003 40.4541L256.446 41.7828L256.889 42.0781H259.103L260.727 41.9305V42.9639L259.989 43.4069L259.251 43.7021L258.365 43.8498H256.15L255.117 43.4069L254.084 42.2258L253.641 41.0446V38.5348L254.084 37.2061L254.969 36.1726L255.855 35.7297L256.593 35.582Z" fill="#747476"/>
<path d="M120.621 35.582H122.54L123.721 36.0249L124.755 37.2061L125.05 38.2395L125.198 39.8635L125.05 40.3065L120.03 40.4541L120.325 41.6352L120.916 42.0781H123.131L124.607 41.7828L124.902 42.8163L124.607 43.2592L123.426 43.7021L122.54 43.8498H120.325L118.997 43.2592L118.111 42.2258L117.668 41.0446V38.6824L118.111 37.3537L119.292 36.0249L120.621 35.582Z" fill="#747476"/>
<path d="M61.4168 35.582H63.0408L64.0743 35.8773L64.8125 36.4679L65.5507 37.9442L65.6983 38.6824V40.1588L65.403 40.3065H60.531L60.8263 41.4876L61.5644 42.0781H63.779L65.2554 41.7828L65.403 42.8163L64.9601 43.2592L63.9267 43.7021L63.1885 43.8498H60.8263L59.6452 43.2592L58.7593 42.2258L58.3164 41.0446V38.3872L58.7593 37.2061L59.6452 36.1726L60.531 35.7297L61.4168 35.582Z" fill="#747476"/>
<path d="M105.264 35.582H106.74L107.773 36.0249L108.364 36.7631L108.659 37.5013V43.7021H106.297L106.149 37.7966L105.854 37.649H103.787V43.7021H101.425L101.277 35.8773L101.868 35.7297H103.197L103.492 36.0249L104.378 35.8773L105.264 35.582Z" fill="#747476"/>
<path d="M155.76 35.582H157.236L158.27 36.0249L158.86 36.7631L159.155 37.5013V43.7021H156.941L156.793 43.5545L156.645 37.7966L156.35 37.649H154.283V43.7021H152.069L151.921 43.5545L151.773 35.8773L152.216 35.7297H153.545L153.988 36.0249L154.874 35.8773L155.76 35.582Z" fill="#747476"/>
<path d="M146.901 35.582H148.377L149.559 36.0249L150.297 37.2061V43.7021H148.082L147.935 43.5545L147.787 37.7966L147.492 37.649H145.72L145.572 37.7966L145.425 43.7021H143.21L143.062 41.9305V35.7297H144.687L145.129 36.0249H145.868L146.901 35.582Z" fill="#747476"/>
<path d="M242.127 35.582H243.603L244.784 36.1726L245.375 37.3537V43.7021H243.16L243.013 37.649H240.946L240.65 37.7966L240.503 43.7021H238.288L238.141 39.4206V35.7297L240.06 35.8773L240.798 36.0249L242.127 35.582Z" fill="#747476"/>
<path d="M284.942 35.582H286.124L287.305 36.0249L288.043 37.0584L288.191 40.897V43.7021H285.828L285.681 37.649H283.466L283.318 37.9442L283.171 43.7021H281.104L280.956 43.5545L280.809 35.8773L281.252 35.7297H282.58L282.876 35.8773V36.1726L283.614 36.0249L284.942 35.582Z" fill="#747476"/>
<path d="M210.387 35.582H211.42L212.454 36.0249L213.192 36.9108L213.34 37.2061V43.7021H211.273L211.125 43.5545L210.978 37.7966L210.682 37.649H208.911L208.615 37.7966L208.468 43.7021H206.253L206.105 35.8773L206.696 35.7297H207.729L208.172 36.0249L209.206 35.8773L210.387 35.582Z" fill="#747476"/>
<path d="M55.3628 31.7422H56.8392L58.0203 31.8898L58.168 32.3327L57.725 33.5138H55.9534L55.3628 33.8091L55.0676 35.7284H57.1345L57.725 35.8761V37.2048L57.5774 37.5001H55.0676V43.7009H53.0006L52.853 43.5532V37.5001H51.9672L51.6719 37.2048V35.8761L52.7053 35.5808L52.853 33.6615L53.4435 32.628L54.477 31.8898L55.3628 31.7422Z" fill="#747476"/>
<path d="M40.3047 32.332H42.5193L42.6669 32.4797V41.9285H46.9484L47.096 42.0762V43.7002H40.3047V32.332Z" fill="#747476"/>
<path d="M128.593 35.582H130.364L132.431 36.0249L132.727 36.1726L132.579 36.9108L132.136 37.649L131.103 37.5013L130.364 37.3537H128.888L128.445 37.649L128.593 38.2395L129.626 38.6824L131.841 39.4206L132.579 40.1588L132.874 41.3399L132.431 42.6687L131.545 43.4069L130.217 43.8498H128.593L126.673 43.5545L126.23 43.2592L126.378 42.3734L126.969 41.7828L128.15 42.0781H130.217L130.512 41.4876L130.069 41.0446L127.559 40.1588L126.526 39.4206L126.23 38.8301V37.2061L126.969 36.1726L127.854 35.7297L128.593 35.582Z" fill="#747476"/>
<path d="M188.387 33.957H189.125V35.7287H191.783L191.93 35.8763V37.3527L191.783 37.5003L189.273 37.648V40.4531L189.421 41.7819L189.568 41.9295H191.93L192.078 42.963L191.783 43.5535L190.454 43.8488H188.387L187.501 43.2582L187.058 42.6677L186.911 41.6342V37.5003H185.73L185.582 37.2051V36.1716L186.025 35.8763L186.763 35.7287L186.911 34.3999L187.354 34.1047L188.387 33.957Z" fill="#747476"/>
<path d="M170.226 35.7285H171.112L171.555 36.762L172.884 41.9293L173.327 40.8959L174.656 36.1714L174.951 35.7285H176.427L177.018 35.8762L176.575 37.5002L174.803 42.6675L174.36 43.5533L174.213 43.701H171.555L171.112 42.9628L169.341 37.6478L168.75 36.1714V35.8762L170.226 35.7285Z" fill="#747476"/>
<path d="M249.215 33.957H249.953V35.7287L252.759 35.8763L252.611 37.5003H249.953L250.249 41.7819L250.396 41.9295H252.759L252.906 43.1106L252.463 43.5535L251.43 43.8488H249.215L248.329 43.2582L247.887 42.6677L247.739 42.2248V37.5003H246.705L246.41 37.3527V36.1716L246.853 35.8763L247.591 35.7287L247.739 34.3999L248.477 34.1047L249.215 33.957Z" fill="#747476"/>
<path d="M84.0051 35.582H85.4814L86.6625 35.8773L87.696 36.4679L87.5484 37.0584L87.1055 37.5013H86.8102V37.7966L86.072 37.649L85.1862 37.2061L84.3003 37.3537L83.4145 38.0919L83.1192 38.8301V40.897L83.5621 41.7828L84.1527 42.2258H85.3338L86.6625 41.9305H87.4007L87.5484 42.8163L87.2531 43.4069L86.5149 43.7021L85.6291 43.8498H83.4145L82.0858 43.2592L81.0523 42.0781L80.757 41.3399L80.6094 39.8635L80.9047 38.0919L81.4952 36.9108L82.5287 36.0249L84.0051 35.582Z" fill="#747476"/>
<path d="M113.089 35.582H114.86L116.189 36.0249L116.927 36.4679L116.632 37.2061L116.041 37.7966L115.451 37.649L114.417 37.2061L113.532 37.3537L112.646 38.0919L112.35 38.8301V40.897L113.089 42.0781L113.384 42.2258H114.713L116.337 41.7828L116.78 42.8163L116.632 43.2592L115.746 43.7021L114.86 43.8498H112.646L111.465 43.4069L110.431 42.3734L109.988 41.0446V38.6824L110.431 37.3537L111.465 36.1726L112.35 35.7297L113.089 35.582Z" fill="#747476"/>
<path d="M292.62 35.582H294.244L295.868 36.1726L296.459 36.6155V36.9108L295.573 37.649L294.687 37.5013L294.096 37.2061H293.21L292.325 37.7966L291.882 38.6824L291.734 39.8635L292.029 41.3399L292.768 42.2258H294.687L296.016 41.9305L296.163 42.9639L295.72 43.4069L294.982 43.7021L294.096 43.8498H292.177L290.996 43.4069L289.962 42.3734L289.52 41.3399V38.5348L290.11 37.0584L291.291 36.0249L292.62 35.582Z" fill="#747476"/>
<path d="M138.925 32.332H141.14V43.5525L140.992 43.7002H138.925L138.777 43.5525V32.4797L138.925 32.332Z" fill="#747476"/>
<path d="M276.676 32.332H278.89V43.7002H276.676V32.332Z" fill="#747476"/>
<path d="M263.388 35.7285L264.126 35.8762L264.422 36.1714H265.16L265.455 35.7285H267.817V36.762L267.67 37.5002L265.455 37.6478L264.865 37.9431L264.717 43.701H262.502L262.207 35.8762L263.388 35.7285Z" fill="#747476"/>
<path d="M16.5344 9.00586H17.5678L17.7155 21.7027L20.5206 21.8504L20.8159 22.1457V22.8839L20.6682 23.0315H16.5344L16.3867 22.8839V9.1535L16.5344 9.00586Z" fill="#FEFEFE"/>
<path d="M193.405 35.7285H195.472L195.62 35.8762V43.701H193.258V35.8762L193.405 35.7285Z" fill="#747476"/>
<path d="M89.0265 35.7285H91.0935L91.2411 35.8762V43.701H89.0265L88.8789 41.634V35.8762L89.0265 35.7285Z" fill="#747476"/>
<path d="M48.4258 35.875H50.4927V43.6998H48.4258V35.875Z" fill="#747476"/>
<path d="M200.64 37.0566L201.674 37.2043L202.412 37.9425L202.56 38.2377V40.7476L201.969 41.9287L201.379 42.3716H200.198L199.459 41.6334L199.164 40.8952V38.8283L199.755 37.6472L200.64 37.0566Z" fill="#FEFEFE"/>
<path d="M164.172 37.0566L165.205 37.2043L165.943 37.9425L166.091 38.2377V40.8952L165.353 42.0763L164.91 42.3716H163.729L162.991 41.6334L162.695 40.8952V38.8283L163.286 37.6472L164.172 37.0566Z" fill="#FEFEFE"/>
<path d="M120.915 14.3203H122.243L123.424 14.9109L124.015 15.9443L124.163 17.2731L123.277 17.4207H119.881L118.848 17.1254L119.143 15.9443L119.733 15.0585L120.472 14.468L120.915 14.3203Z" fill="#FEFEFE"/>
<path d="M4.72416 18.4551H5.01944L5.75763 20.8173L6.93874 22.8842L8.26748 24.5082L9.44859 25.6894L10.6297 26.7228L10.925 27.0181H10.6297L10.925 27.7563L10.0391 27.6086L8.26748 26.2799L6.64346 24.6559L5.31472 22.7366L4.42889 20.9649L4.28125 20.522V19.3409H4.57653L4.72416 18.4551Z" fill="#F6FEFE"/>
<path d="M11.367 9.00586L12.6958 9.1535L13.5816 10.0393L13.7292 10.4822V11.5157L13.1387 12.4015L12.4005 12.8445L11.0717 12.6968L10.1859 12.1063L9.89062 11.5157V10.4822L10.3335 9.59641L10.9241 9.1535L11.367 9.00586Z" fill="#FEFEFE"/>
<path d="M0.147638 11.2207L1.18111 11.3683L1.32874 11.516L1.18111 13.14L1.03347 13.8782V18.0121L1.32874 19.6361V20.5219L0 20.8172V11.3683L0.147638 11.2207Z" fill="#F5FEFE"/>
<path d="M16.5352 9.1543H17.421V18.8984H17.1257L16.8304 19.7842L16.5352 20.0795V9.1543Z" fill="#F4FFFE"/>
<path d="M267.964 42.0781H269.883L269.736 44.1451L268.997 46.0644L268.407 46.8025L267.521 46.5073L267.078 46.0644L267.521 44.588L267.964 42.0781Z" fill="#747476"/>
<path d="M297.933 42.0781H299.852L300 42.2258V43.4069L299.852 44.1451H297.933L297.785 43.9974V42.2258L297.933 42.0781Z" fill="#757577"/>
<path d="M89.0265 32.332H91.0935L91.2411 32.4797V33.8084L91.0935 34.2513H89.0265L88.8789 34.1037V32.4797L89.0265 32.332Z" fill="#747476"/>
<path d="M181.002 40.1582L182.036 40.3058L182.331 40.6011V41.7822L181.445 42.3728H180.559L179.969 41.7822V40.8964L180.559 40.3058L181.002 40.1582Z" fill="#FEFEFE"/>
<path d="M61.5639 37.0566H62.5974L63.3356 37.9425L63.4832 38.6807L63.3356 38.8283H60.5305L60.3828 38.3854L61.2686 37.2043L61.5639 37.0566Z" fill="#FEFEFE"/>
<path d="M232.678 37.0566H233.711L234.45 37.9425L234.597 38.6807L234.45 38.8283H231.792L231.645 38.2377L232.383 37.2043L232.678 37.0566Z" fill="#FEFEFE"/>
<path d="M257.332 36.9102L258.07 37.2054L258.661 37.9436L258.808 38.6818L258.661 38.8295H256.003L255.855 38.2389L256.741 37.2054L257.332 36.9102Z" fill="#FEFEFE"/>
<path d="M120.916 37.0566H121.95L122.688 37.9425L122.836 38.6807L122.688 38.8283H120.03L119.883 38.3854L120.326 37.6472L120.916 37.0566Z" fill="#FEFEFE"/>
<path d="M95.9663 37.0566H96.8521L97.7379 38.0901L97.5903 38.8283H94.9328L94.7852 38.3854L95.3757 37.4996L95.9663 37.0566Z" fill="#FEFEFE"/>
<path d="M193.258 32.332H195.472L195.62 32.7749L195.472 34.1037L194.144 34.2513H193.405L193.258 34.1037V32.332Z" fill="#747476"/>
<path d="M4.87251 10.7773L5.6107 10.925L5.31543 12.549L4.87251 13.7301L3.98668 14.7636H3.69141L3.83904 12.8443L4.28196 11.5155H4.57724L4.87251 10.7773Z" fill="#F5FEFE"/>
<path d="M48.4258 32.332H50.3451L50.6404 32.6273L50.4927 34.1037H48.4258V32.332Z" fill="#747476"/>
<path d="M17.8671 21.998H20.5246V22.2933L19.934 22.441L18.9006 22.2933L18.4577 22.5886H17.7195V22.8839H17.1289V22.5886H17.4242L17.5718 22.1457L17.8671 21.998Z" fill="#F4FFFE"/>
<path d="M6.49609 22.8828L7.08665 23.0305L7.82484 24.0639L7.52956 24.3592V24.0639H7.23428V23.7686H6.93901V23.4734H6.64373L6.49609 22.8828Z" fill="#FCFEFE"/>
</svg>
