<svg width="238" height="100" viewBox="0 0 238 100" fill="none" xmlns="http://www.w3.org/2000/svg">
<path d="M76.1499 0H160.36L163.321 0.328947L165.459 0.822368L166.61 1.48026L167.104 1.80921L169.242 2.46711L170.558 3.45395L172.203 5.26316L172.696 6.08553V6.41447L173.354 6.57895L174.012 7.07237L174.67 9.53947L174.999 15.7895L175.163 21.7105L174.67 21.875V27.3026L174.505 31.9079V64.4737L174.341 68.2566L173.354 69.7368L172.86 69.9013V70.2303H172.531L172.203 70.8882L171.216 71.7105L170.558 72.3684H170.229V72.6974L169.735 73.0263H169.242V73.3553L166.117 75L165.295 75.3289L163.814 75.6579L162.663 75.9868L160.854 76.1513H149.999L147.203 75.9868H143.42L142.104 76.1513H76.3144L73.3538 75.6579L69.8999 74.6711L67.7617 73.6842L66.4459 73.0263L65.4591 72.2039L63.9788 70.3947L63.1565 69.7368L62.4986 68.4211L61.6762 68.0921L61.5117 65.2961V51.3158L61.8407 38.6513V12.0066H62.1696L62.3341 12.9934V9.70395L62.0051 10.0329V9.21053H62.3341L62.4986 8.55263L62.3341 7.89474L63.4854 6.57895L64.3078 5.75658L65.2946 4.60526L65.9525 3.94737H66.2815L66.4459 3.45395L67.1038 3.28947V2.96053L69.4065 1.64474L71.2157 0.822368L73.1894 0.328947L76.1499 0Z" fill="#FCFCFC"/>
<path d="M76.1499 0H160.36L163.321 0.328947L165.459 0.822368L166.61 1.48026L167.104 1.80921L169.242 2.46711L170.558 3.45395L172.203 5.26316L172.696 6.08553V6.41447L173.354 6.57895L174.012 7.07237L174.67 9.53947L174.834 12.3355V21.0526L174.341 20.7237L173.847 20.8882L173.683 21.3816L173.025 20.8882L172.367 19.5724L171.874 18.0921L169.571 14.8026L168.091 13.1579L165.953 11.6776L164.308 10.1974L161.183 8.7171L158.222 7.73026L154.768 7.23684L111.512 7.40132H84.2091L79.6038 7.56579L77.1367 7.89474L75.163 8.88158L73.5183 10.3618H73.1894L72.8604 11.1842L72.5315 11.8421L72.367 12.8289V20.0658L72.6959 38.8158V44.2434L72.5315 44.5724L72.2025 48.5197L72.038 54.4408V63.3224L71.8736 64.4737L71.0512 64.6382L71.5446 65.4605L72.8604 66.2829L73.3538 66.4474L73.8472 66.9408L76.9722 68.0921L79.4394 68.5855L83.3867 68.9145L90.2946 69.0789H158.387L158.222 69.5724L156.413 70.7237L154.11 71.875L150.492 73.1908L145.887 74.8355L145.064 75.1645L142.104 75.4934L141.939 75.9868L135.196 76.1513H76.3144L73.3538 75.6579L69.8999 74.6711L67.7617 73.6842L66.4459 73.0263L65.4591 72.2039L63.9788 70.3947L63.1565 69.7368L62.4986 68.4211L61.6762 68.0921L61.5117 65.2961V51.3158L61.8407 38.6513V12.0066H62.1696L62.3341 12.9934V9.70395L62.0051 10.0329V9.21053H62.3341L62.4986 8.55263L62.3341 7.89474L63.4854 6.57895L64.3078 5.75658L65.2946 4.60526L65.9525 3.94737H66.2815L66.4459 3.45395L67.1038 3.28947V2.96053L69.4065 1.64474L71.2157 0.822368L73.1894 0.328947L76.1499 0Z" fill="#A7A8A8"/>
<path d="M119.571 25.8223H143.913L147.367 25.9867V26.3157L147.86 26.1512L148.189 26.6446L149.505 27.1381L149.834 26.4802L150.163 26.6446L150.492 27.467L151.643 28.4538L152.137 28.6183V28.9473L152.63 29.1117V29.4407L154.11 29.9341L154.604 31.9078V34.0459L154.11 34.2104V35.3617V35.8552V36.3486H153.452L153.781 37.1709L153.288 37.6644L152.794 36.842L152.465 37.0065L152.301 37.4999L152.137 39.967L151.972 40.2959L153.123 39.6381L153.781 39.967L154.604 42.2696V43.9144L154.11 44.0788V44.9012H154.439L154.11 45.7236L153.946 45.8881V47.0394L153.452 47.2038L153.123 47.5328L152.465 47.6973L150.985 48.6841L150.656 49.6709L149.834 49.9999L148.354 50.1644L147.86 50.4933L146.215 50.8223L123.025 50.9867L119.406 50.8223V35.5262L137.005 35.3617L146.544 35.1973L147.367 33.717V32.4012L146.873 31.9078L146.051 31.5788L119.571 31.4144V25.8223Z" fill="#092F45"/>
<path d="M97.5329 0H160.362L163.322 0.328947L165.461 0.822368L166.612 1.48026L167.105 1.80921L169.243 2.46711L170.559 3.45395L172.204 5.26316L172.697 6.08553V6.41447L173.355 6.57895L174.013 7.07237L174.671 9.53947L174.836 12.3355V21.0526L174.342 20.7237L173.849 20.8882L173.684 21.3816L173.026 20.8882L172.368 19.5724L171.875 18.0921L169.572 14.8026L168.092 13.1579L165.954 11.6776L164.309 10.1974L161.184 8.7171L158.224 7.73026L154.77 7.23684L111.513 7.40132H78.125L78.4539 6.74342L81.0855 5.09868L85.0329 3.28947L91.4474 0.986842L93.4211 0.493421V0.164474L97.5329 0Z" fill="#093046"/>
<path d="M62.6661 54.1113H62.8306L63.1595 56.085V57.7297L63.324 56.2495H63.653L64.3109 57.2363L64.9688 58.0587L65.9556 59.7034L67.1069 61.1837L68.7516 62.8284L69.4095 63.6508L71.2188 65.1311L72.8635 66.2824L73.3569 66.4469L73.8503 66.9403L76.9753 68.0916L79.4424 68.585L83.3898 68.914L90.2977 69.0784H158.39L158.225 69.5719L156.416 70.7232L154.113 71.8745L150.495 73.1903L145.89 74.835L145.067 75.164L142.107 75.4929L141.942 75.9863L135.199 76.1508H76.3174L73.3569 75.6574L69.903 74.6705L67.7648 73.6837L66.449 73.0258L65.4622 72.2034L63.9819 70.3942L63.653 69.7363V68.585H63.1595V68.0916L62.5016 67.9271L62.0082 67.2692L61.8438 66.4469V55.2626L62.1727 54.6047L62.5016 54.7692L62.6661 54.1113Z" fill="#093046"/>
<path d="M164.639 10.5254L165.461 11.0188V11.3478L166.119 11.6767L168.257 13.157L169.409 14.3083L171.711 17.5978L172.369 18.7491L172.862 20.2293L173.52 21.2162L173.849 20.5583L174.507 20.7228L174.672 20.8872L174.836 15.7885H175.001L175.165 21.7096L174.672 21.8741V27.3017L174.507 31.907V64.4728L174.343 68.2557L173.356 69.7359L172.862 69.9004V70.2293H172.534L172.205 70.8872L171.218 71.7096L170.56 72.3675H170.231V72.6964L169.737 73.0254H169.244V73.3543L166.119 74.9991L165.297 75.328L163.816 75.657L162.665 75.9859L160.856 76.1504H150.001L147.205 75.9859H143.422L142.106 76.1504L141.941 75.8214L142.106 75.4925L143.915 75.1636L145.56 74.8346L148.52 73.6833L150.494 73.0254L154.935 71.3807L157.566 69.9004L158.389 69.078L159.211 68.9135L160.198 68.7491L161.02 67.9267L161.843 66.9399L162.665 66.6109V66.282L164.31 65.4596L164.474 65.1307L164.639 62.3346V37.1701L164.474 29.6043V13.8149L164.639 13.6504L164.803 12.4991L164.968 12.3346V11.0188L164.639 10.8543V10.5254Z" fill="#A7A8A8"/>
<path d="M84.8666 25.6582H89.8008L89.9653 35.0332L90.7876 34.7043L92.7613 33.7174L95.2284 31.7437L96.3797 31.0858L97.2021 30.7569L98.5179 29.6056L100.327 28.4543L101.314 27.6319L102.465 27.3029L103.946 26.1516L105.261 25.6582H110.36L114.472 25.8227L114.143 26.4806L112.169 27.9608L111.018 28.7832L109.702 29.2766L107.071 31.0858L103.452 33.3885L102.959 33.7174L103.288 34.5398L105.097 36.6779L106.413 38.4872L107.399 38.8161L108.386 40.1319L108.551 40.6253H108.88L110.36 42.599L110.689 42.1056H111.018L111.347 43.2569L112.827 44.9016L114.472 46.7108L114.965 47.5332L115.952 48.1911L117.597 50.3293L117.761 50.8227L109.702 50.9872L109.373 50.8227L108.715 49.6714L107.235 47.8622L106.248 47.0398L107.235 48.52L107.071 48.849L106.248 48.0266L105.261 46.3819L103.617 44.2437L101.972 42.27V41.7766L101.807 42.1056L101.149 41.7766L99.9981 40.4608L98.0245 37.9937L97.531 37.8293V38.1582L96.7087 37.9937L94.0771 39.9674L92.9258 41.1187L91.9389 41.7766L90.2942 42.27L89.9653 42.9279V50.9872H83.8797L83.7153 50.8227V33.3885L83.5508 25.8227L84.8666 25.6582Z" fill="#093045"/>
<path d="M116.941 87.0059H120.395L121.875 87.1703L123.355 87.8282V87.4993L124.177 87.8282L124.506 88.1572L124.013 88.3216L124.342 89.144L124.671 89.473H125.822L126.151 88.8151L126.316 87.1703L134.046 87.0059H136.842L136.677 89.473L134.539 89.6374L134.375 89.8019L130.756 89.9664L130.592 90.1309L130.427 91.9401H136.513L136.677 92.1045V94.2427L136.513 94.4072L132.072 94.5716L131.414 94.7361V94.5716H130.592V97.2032L132.237 97.3677L136.348 97.2032L137.006 97.5322L137.5 97.2032L137.335 95.0651L137.664 95.2295L137.5 94.0782L138.158 93.4203L138.651 93.2559V92.7624L139.309 93.0914L139.473 91.9401L139.638 90.9532L139.802 90.7888V88.1572L140.296 87.1703L140.789 87.0059L143.092 87.1703L143.256 87.3348V95.5585L143.421 96.3809H143.75L144.079 96.0519L144.901 96.8743L145.723 97.5322L147.368 97.8611H148.848L150.329 97.3677L151.151 96.5453L151.48 95.723L151.645 87.1703H154.605L155.263 87.3348L155.427 88.8151V93.2559L155.263 96.2164L154.441 97.8611L153.618 98.519L152.796 98.6835L152.631 99.1769L150.493 99.8348H146.546L143.585 99.5059L142.105 99.1769L141.118 98.3545H140.625L140.789 98.0256L139.309 97.6966L138.651 98.0256L137.829 97.6966V99.1769L136.677 99.8348H127.138V99.5059L125.493 99.3414L124.835 99.0124V98.6835L122.697 98.848L121.217 99.3414L120.066 99.5059H116.941L113.816 99.0124L112.5 98.3545L111.677 97.3677L111.184 96.0519L111.02 95.0651V91.6111L111.677 89.9664L112.335 88.9795L113.322 88.1572L114.802 87.4993L116.941 87.0059Z" fill="#EEFAFB"/>
<path d="M229.77 87.0059H233.059L235.197 87.3348L235.691 87.4993L235.855 88.1572H236.184L236.513 88.9795L237.171 89.6374H235.691L232.73 89.3085H230.427L230.263 91.1177L231.25 91.7756L233.552 92.598L234.539 92.9269L235.197 92.598L235.526 92.7624V93.0914L236.02 93.2559V93.5848L236.842 93.9138L237.171 94.7361L237.335 96.5453L237.171 97.3677L236.842 98.1901L235.362 99.1769L233.059 99.8348L231.579 99.9993H229.276L225.658 99.8348L224.013 99.6703L214.473 99.5059L214.309 96.7098L214.145 87.3348H217.927L218.092 87.9927V97.8611L222.697 97.6966L223.684 97.5322L224.835 97.3677L225 96.7098L224.506 96.8743L223.848 96.7098L222.862 96.5453L221.71 96.3809L220.559 95.723L220.066 94.7361L219.901 93.0914V90.7888L220.23 88.8151L220.723 88.4861L221.71 88.6506L222.862 88.9795L223.191 88.8151H225.164L226.316 88.6506L228.618 87.3348L229.77 87.0059Z" fill="#EEF9FA"/>
<path d="M72.3684 87.1719H73.6842L74.3421 87.5008L75.9868 90.1324L78.125 94.2442L79.1118 95.7245L79.6053 95.0666L81.9079 90.2969L83.3882 88.3232L84.5395 87.5008L85.5263 87.1719H88.6513L89.4737 87.8298L89.6382 88.3232L89.4737 99.5074H87.1711L86.8421 99.3429V89.9679L85.8553 90.4613L84.8684 91.6127L83.7171 93.7508L82.7303 95.3956L80.7566 99.014L79.6053 99.5074H77.6316L76.6447 99.1785L75.6579 97.5337L74.5066 94.4087L72.8618 90.6258L72.3684 89.639H72.2039L71.875 91.6127L71.5461 98.3561L71.3816 99.5074H68.9145L68.75 87.5008L68.9145 87.3363L72.3684 87.1719Z" fill="#092F45"/>
<path d="M53.2884 87.1719H56.7424L60.1963 87.3363L62.6634 87.6653L63.6503 88.1587L64.4727 89.1456L64.8016 89.9679V91.6127L64.1437 92.5995L62.8279 93.4219L61.5121 93.7508V94.2442L62.3345 94.4087V94.7377L63.1569 94.5732L64.1437 96.2179L65.295 99.014V99.5074H63.1569L61.6766 99.3429L61.0187 99.014L60.1963 97.0403L59.8674 95.889L57.0713 94.5732L55.7556 94.2442V99.3429L55.5911 99.5074H51.9727V87.3363L53.2884 87.1719Z" fill="#092F45"/>
<path d="M39.1449 87.1719H41.941L43.5857 87.5008L44.5726 87.9942L47.0397 93.7508L48.3555 96.8758L48.5199 97.2048L49.3423 98.5206L49.5068 99.5074L46.3818 99.6719L45.8884 99.5074L44.9015 97.3692L44.4081 97.2048H37.6647L36.8423 98.5206L36.3489 99.5074H32.8949L32.7305 99.1785L34.3752 94.4087L34.5397 93.9153H34.8686L34.7042 95.2311L35.362 95.0666L35.5265 94.2442L36.3489 92.5995L37.1713 90.4613L37.8292 88.6521L38.1581 87.5008L39.1449 87.1719Z" fill="#093045"/>
<path d="M202.136 87.1719H204.932L206.084 87.5008L206.742 88.1587L207.564 90.2969L208.88 92.9285L210.689 96.7113L210.853 97.5337H211.347L212.005 99.1785V99.5074H208.551L208.057 99.1785L207.399 97.6982V97.2048H199.834L199.505 97.3692L199.011 99.014L198.682 99.3429H196.38L196.051 99.014L197.038 96.5469L198.847 91.6127L199.669 89.1456L200.327 88.4877V89.1456L200.821 88.6521L200.985 88.1587L200.656 87.9942L201.807 87.3363L202.136 87.1719Z" fill="#093046"/>
<path d="M99.3415 87.1719H101.973L103.289 88.3232L104.605 90.9548L105.591 93.0929L106.414 94.7377L107.73 97.2048L108.881 99.1785L108.552 99.5074H105.263L104.605 99.1785L104.276 98.0271V97.2048H97.2033L96.052 98.0271L95.0652 99.5074L92.4336 99.3429L93.7494 95.889L95.0652 93.0929L96.381 90.4613L97.6968 88.1587L98.6836 87.3363L99.3415 87.1719Z" fill="#0B1A25"/>
<path d="M2.79523 87.3359H7.72944L10.0321 87.6649L11.5123 88.1583L12.3347 88.8162L12.9926 89.9675L13.1571 91.2833L12.8281 92.928L12.0058 93.9149L10.5255 94.4083L7.89391 95.2307L6.41365 95.3951H4.43997V99.3425L3.78207 99.507H0.492599L0.328125 97.3688L0.492599 97.2044L0.328125 93.257V87.8294L0.492599 87.5004H0.821546V87.8294L1.64391 87.5004L2.79523 87.3359Z" fill="#093046"/>
<path d="M26.9745 87.1719H30.0995L30.264 87.8298L30.0995 88.8166L30.4285 90.4613V97.0403L30.7574 98.685L30.9219 99.3429L29.6061 99.5074H26.81L26.6456 94.4087L20.56 94.2442L20.3956 94.7377L20.0666 94.4087H19.0798L18.9153 99.5074H15.2969V96.3824L15.4613 89.8035V87.8298L15.2969 87.3363H18.9153L19.2442 87.5008V89.8035L19.0798 91.9416L20.3956 92.1061L26.81 92.2706V87.3363L26.9745 87.1719Z" fill="#0A3046"/>
<path d="M126.645 41.1191H131.579L145.395 41.2836L146.546 41.777L147.04 42.2705L147.204 42.5994V44.0797L146.875 44.902L146.217 45.231L143.586 45.3955H126.809L126.48 45.0665V41.9415L126.645 41.1191Z" fill="#FBFBFB"/>
<path d="M140.789 87.1719H143.092L143.256 87.3363V95.56L143.421 96.3824H143.75L144.079 96.0535L144.901 96.8758L145.723 97.5337L147.368 97.8627H148.848L150.329 97.3692L151.151 96.5469L151.48 95.7245L151.644 87.1719H154.605L155.263 87.3363L155.427 88.8166V93.2574L155.263 96.2179L154.44 97.8627L153.618 98.5206L151.151 99.3429L150.493 99.5074H146.052L142.927 99.014L141.611 98.5206L141.118 97.5337L140.789 95.0666V87.1719Z" fill="#093046"/>
<path d="M135.527 87.1719H136.842L136.678 89.4745H130.263V92.2706H136.02L136.184 93.9153L136.02 94.0798L130.592 94.2442L130.428 94.4087V97.6982L136.842 97.8627V99.5074H133.059L126.645 99.3429L126.48 99.014V87.8298L126.645 87.3363L135.527 87.1719Z" fill="#092F45"/>
<path d="M229.77 87.0059H233.06L235.198 87.3348L235.691 87.4993L235.856 88.1572H236.185L236.514 88.9795L237.171 89.6374H235.691L232.731 89.3085H230.428L230.264 91.1177L231.25 91.7756L233.553 92.598L234.54 92.9269L235.198 92.598L235.527 92.7624V93.0914L236.02 93.2559V93.5848L236.843 93.9138L237.171 94.7361L237.336 96.5453L237.171 97.3677L236.843 98.1901L235.527 99.0124L234.046 99.1769L232.895 99.5059L231.415 99.6703H229.112L227.139 99.5059L226.645 98.519L225.987 98.3545L225.494 98.848L224.836 98.6835L225.658 98.0256L225.987 97.0388L226.974 97.2032L228.29 97.8611L228.948 98.0256H230.757L232.731 97.5322L233.553 96.7098L233.389 95.723L232.073 94.9006L228.29 93.5848L227.303 92.9269L226.645 92.269L226.316 91.6111V89.473L226.645 88.6506H226.974L227.139 88.1572L229.112 87.1703L229.77 87.0059Z" fill="#093045"/>
<path d="M187.337 87.0059H190.297L193.587 87.6638L194.245 88.4861L194.574 89.8019L194.409 90.1309L191.778 89.8019L189.968 89.473H188.324L186.185 89.9664L185.363 90.4598L184.87 91.2822L184.705 91.9401V94.5716L185.199 96.0519L186.185 97.2032L187.008 97.5322L188.324 97.6966H189.968L192.929 97.2032H193.916L195.067 98.3545L195.725 98.848V99.1769L194.903 99.0124L194.409 98.6835L193.258 98.848L191.449 99.3414L190.133 99.5059H186.843L184.541 99.0124L183.06 98.3545L182.403 97.3677L182.074 96.2164L181.909 97.5322L181.251 97.6966L180.922 97.0388L180.758 95.8874V91.6111L181.087 89.9664L181.58 89.8019V90.2953L182.567 89.8019L183.554 88.4861L184.376 87.8282L186.185 87.1703L187.337 87.0059Z" fill="#092F45"/>
<path d="M117.764 89.1445H119.737L121.218 89.4735L121.382 90.1314L122.862 90.2958L123.849 90.9537L124.343 91.9406L124.178 95.0656L124.343 96.3814L123.52 96.8748V96.5458L122.205 96.7103V97.0393L120.889 97.6972L120.231 97.8616H117.599L116.284 97.0393L114.639 96.3814V96.0524H114.31L113.981 95.3945L113.816 94.4077V92.2695L114.31 90.9537L115.297 90.1314L116.941 89.309L117.764 89.1445Z" fill="#FCFCFC"/>
<path d="M157.239 87.1719H171.054L171.219 87.3363V89.1456L171.054 89.31L166.449 89.4745L166.285 99.5074H164.147L162.173 99.3429V89.4745H157.568L157.074 88.9811L157.239 87.1719Z" fill="#092F45"/>
<path d="M116.283 87.1719H120.23L121.381 87.3363L121.875 87.6653L123.355 88.1587V89.31L122.697 90.1324L120.559 89.4745L119.737 89.31H117.763L116.118 89.8035L114.638 90.7903L114.145 91.6127L113.98 92.9285V94.4087L114.309 96.0535H114.638V96.3824L116.283 96.8758L117.598 97.6982H120.23L122.368 96.8758H123.355L123.191 97.5337L123.848 97.6982L123.026 98.685L121.217 99.3429L120.066 99.5074H116.941L113.816 99.014L112.5 98.3561L111.677 97.3692L111.184 96.0535L111.02 95.0666V91.6127L111.677 89.9679L112.335 88.9811L113.322 88.1587L114.802 87.5008L116.283 87.1719Z" fill="#0B1B27"/>
<path d="M214.145 87.3359H217.927L218.092 87.9938V97.8623L223.52 97.6978L223.848 98.0267L223.684 99.507H214.473L214.309 96.7109L214.145 87.3359Z" fill="#092F45"/>
<path d="M175.656 87.3359H177.959V99.507H174.176L174.012 90.6254L174.176 87.5004L175.656 87.3359Z" fill="#093046"/>
<path d="M100.002 89.8027H101.317L102.304 90.9541L102.798 92.4343L103.456 94.9014L103.62 95.8883L103.949 96.2172V96.7106H104.278V97.2041H97.2056L96.2188 97.8619V97.3685L96.7122 95.3948L97.699 93.4212L98.1924 92.1054L98.8503 90.9541L99.1793 90.2962L100.002 89.8027Z" fill="#093046"/>
<path d="M88.9794 87.3359L89.8018 87.5004L90.2952 88.3228L90.1308 89.803V91.9412L90.4597 93.9149H90.7887L90.9531 93.0925L91.4465 91.9412L92.2689 88.8162L93.4202 88.9807V91.2833L93.0913 92.4346V93.4215L93.7492 93.5859L94.4071 93.4215L94.9005 92.2701L95.5584 92.1057L94.4071 94.9017L93.0913 97.8623L92.5979 99.178L93.7492 99.3425V99.507L91.7755 99.6715H87.8281V99.507H89.4729V88.3228L88.9794 87.3359Z" fill="#EBF7F8"/>
<path d="M3.61698 87.6641H5.59067L6.24856 87.993L6.08409 88.8154L6.74198 88.9799H5.59067V89.3088L4.1104 89.4733L3.78146 90.6246V92.9272L4.7683 93.7496L5.91961 93.9141L8.05777 93.7496L9.37356 93.0917L9.70251 92.5983L9.86698 91.118V89.9667L9.37356 89.8022V89.4733L8.71567 89.3088L9.04461 88.6509L10.1959 88.8154L10.6894 89.1443V89.4733L11.6762 89.8022L12.0051 90.6246L12.1696 92.1049L11.6762 93.2562L11.0183 93.4206L10.6894 93.9141H9.53803L9.37356 94.4075L7.72882 95.0654L6.41303 95.3943H4.60382L3.28803 95.0654V97.368L3.45251 97.8614V99.1772L2.63014 99.3417L2.30119 99.0127L2.13672 97.0391V88.4864L2.30119 88.1575L3.28803 87.8285L3.61698 87.6641Z" fill="#0B1A25"/>
<path d="M150.823 86.8418H152.797L155.264 87.0063V87.3352L151.646 87.1707V95.7234L150.988 97.0392L150.165 97.6971L149.343 97.8615V97.5326L150.33 97.0392L150.823 96.3813L150.988 95.7234V90.7892L150.494 89.9668H150.165L150.001 90.2957V91.9405L150.165 92.4339V94.0786L149.672 94.901L148.356 95.5589L147.205 95.3944L146.876 94.901V92.4339L147.04 91.4471L146.711 89.3089L146.547 88.98V87.9931L147.205 87.3352L147.698 87.1707L150.494 87.0063L150.823 86.8418Z" fill="#EEFAFB"/>
<path d="M116.941 87.0059H120.395L121.876 87.1703L123.356 87.8282V87.4993L124.178 87.8282L124.507 88.1572L124.014 88.3216L124.343 89.144L124.672 89.473H125.823L126.152 88.8151L126.316 87.1703L134.047 87.0059H136.843L136.678 87.3348H126.645V99.3414H133.06L136.843 99.5059L136.678 99.8348H127.139V99.5059L125.494 99.3414L124.836 99.0124V98.6835H123.027L123.685 97.6966L123.191 97.5322L123.356 96.8743L122.205 97.0388V96.7098L123.52 96.5453H123.849L124.178 96.3809L124.014 93.9138L124.178 91.9401L123.685 90.9532L122.862 90.4598L121.382 90.1309L121.218 89.6374L122.698 89.9664L123.191 89.3085V88.1572L121.547 87.6638L121.382 87.4993L120.231 87.3348L116.941 87.1703V87.0059Z" fill="#E6F0F1"/>
<path d="M140.789 87.1719H143.092V96.7113L143.256 97.2048L143.75 97.5337L145.559 97.6982L147.861 98.3561L150.493 98.1916V99.014L149.342 99.3429H144.901L142.434 98.8495L141.611 98.5206L141.118 97.5337L140.789 95.0666V87.1719Z" fill="#0B1B27"/>
<path d="M185.196 88.4863L185.36 88.8153L185.854 88.6508L185.525 89.4732L184.867 89.8021L184.538 90.6245L184.209 91.2824L184.044 92.1047V94.7363L184.373 96.5455L184.867 96.71L185.031 97.3679L186.676 97.8613L190.294 98.1903L190.952 98.0258V97.5324L192.926 97.2034H193.913L195.064 98.3547L195.722 98.8482V99.1771L194.9 99.0126L194.406 98.6837L193.255 98.8482L191.446 99.3416L190.13 99.5061H186.84L185.031 99.1771V98.8482L185.36 98.6837L183.715 98.0258L182.893 97.2034V96.8745H182.564L182.071 95.2297L181.906 93.4205L182.4 90.789L183.387 89.1442L184.373 88.6508L185.196 88.4863Z" fill="#0B1B26"/>
<path d="M202.63 87.6641H203.946L204.439 87.8285V88.1575L205.097 87.993L205.261 88.322L205.755 88.4864V88.8154H206.084L206.742 90.1312L206.577 91.447L206.248 92.2693L206.084 92.5983L205.59 92.4338L204.932 91.118L204.11 90.2956L203.946 89.6377L203.452 89.4733L202.959 90.2956L201.807 90.4601L201.643 91.447H201.314L200.821 93.7496L200.163 94.0785L199.669 94.243L199.34 95.2299L198.847 95.8877L200.327 96.0522L199.669 96.8746L199.011 99.0127L198.682 99.3417H196.38L196.051 99.0127L197.038 96.5456L197.367 95.5588H197.696L197.86 95.2299L198.518 94.4075L198.847 94.243L199.011 94.4075L199.669 92.5983V91.7759L199.505 91.447L199.998 90.2956L201.478 88.4864L201.972 87.993L202.63 87.6641Z" fill="#0B1A26"/>
<path d="M213.323 87.1719H215.955V87.3363H214.146L214.31 87.6653L214.475 96.7113V99.5074H219.573L219.409 99.8363H211.843L209.212 99.6719V99.5074H212.008L211.35 98.0271V97.5337H210.856L209.212 93.9153L207.402 90.2969V89.8035L208.06 90.1324L208.883 91.9416L209.212 92.764L209.705 92.9285L210.527 94.2442L210.856 94.9021L211.679 95.0666L212.337 94.0798L212.994 93.7508L213.323 92.5995V89.9679L212.994 88.6521V87.6653L213.323 87.1719Z" fill="#EAF5F6"/>
<path d="M171.054 87.1719H173.851L175.66 87.3363V87.5008H174.179V99.5074H177.304L176.976 99.8363H174.179L172.206 99.6719L171.877 98.685L172.041 98.1916L172.206 89.1456L172.041 88.8166L171.712 89.1456L171.383 88.9811L171.219 89.4745H166.449V89.31L171.054 89.1456V87.1719Z" fill="#E5EFF0"/>
<path d="M86.3497 87.5H88.6523L89.3102 87.9934L89.4747 89.4737L89.3102 99.5066H87.83L87.3366 99.3421V92.2697L87.0076 88.9803V88.6513L86.3497 88.8158L85.5273 88.4868L85.6918 87.9934L86.3497 87.5Z" fill="#0C1A25"/>
<path d="M112.663 88.3223L112.992 88.4867L112.005 89.6381L111.347 90.9538L111.183 91.6117V95.0657L111.676 97.0394L112.334 98.0262L112.992 98.5196L114.472 99.0131L116.939 99.342H120.064L122.202 99.0131V99.342L120.064 99.8354H117.762L114.308 99.5065L112.498 99.0131L110.854 97.5328L109.702 96.5459L109.373 96.217L108.715 96.0525L108.222 96.7104V97.5328L108.551 98.5196L108.058 98.0262L107.235 96.7104L104.933 92.1052L103.781 89.6381L103.946 89.1446L105.755 92.4341L106.248 93.5854L107.071 94.4078L108.551 94.7367L109.044 94.2433L109.209 91.7762L109.538 91.2828V90.4604L110.689 90.1315L111.018 89.4736L112.005 88.6512L112.663 88.3223Z" fill="#EFFAFB"/>
<path d="M52.7977 87.6641H54.4424V88.1575H54.7714L55.1003 88.9799L54.9359 89.9667L54.278 90.2956L54.1135 91.118L54.4424 91.2825L53.949 92.5983H53.6201L53.949 93.7496L55.1003 93.9141L55.2648 94.4075L54.9359 95.8877L54.6069 96.3812L53.949 96.5456L53.6201 96.3812L53.7845 96.8746H53.4556L53.6201 97.5325H54.7714L55.1003 97.697V99.0127L54.9359 99.3417H52.4688V87.993L52.7977 87.6641Z" fill="#0B1A25"/>
<path d="M214.145 87.3359H217.927L218.092 87.9938L217.763 89.3096H217.434L217.598 89.9675H216.447L215.954 90.2965L216.118 91.9412L215.954 93.257L216.118 95.3951L216.283 95.7241L216.118 97.3688L215.954 97.8623V98.6846L216.447 98.5201L216.283 98.0267L216.447 97.6978L217.763 97.8623L218.092 98.6846L217.927 99.3425H215.131L214.967 98.8491L215.296 98.1912H214.967L214.802 96.5465V92.4346L214.473 89.9675L214.309 87.8294L214.145 87.3359Z" fill="#0B1B26"/>
<path d="M99.3433 87.1719H101.975L103.291 88.3232L104.606 90.9548L105.593 93.0929L106.416 94.7377L107.731 97.2048L108.883 99.1785L108.554 99.5074H105.264V99.3429L107.896 99.1785L107.731 98.685L107.238 98.5206L107.074 97.6982H106.745V97.3692L105.922 97.2048L105.593 96.8758L104.935 94.7377L104.278 92.435L103.62 90.7903L103.291 90.1324L102.468 89.31L102.139 88.8166L101.81 88.1587L101.317 88.3232L101.153 87.9942L99.3433 87.8298L98.521 88.1587L97.2052 90.4613V90.9548H96.8762L97.0407 91.4482H96.5473L95.2315 94.2442L94.7381 94.7377L94.0802 96.7113L93.4223 97.3692L93.2578 97.0403L95.067 93.0929L96.3828 90.4613L97.6986 88.1587L98.6854 87.3363L99.3433 87.1719Z" fill="#093046"/>
<path d="M117.763 89.1445H119.737L121.217 89.4735L121.381 89.9669L120.066 89.8024V90.1314L120.395 90.4603L119.737 90.9537L120.395 91.1182L121.381 92.763V93.5853L120.559 94.2432H119.408L119.079 94.0787V93.7498L118.585 93.5853L117.927 92.5985L116.283 92.2695L116.118 91.7761L115.296 91.4472V91.1182L114.145 91.6116L114.473 90.7893L115.296 90.1314L116.941 89.309L117.763 89.1445Z" fill="#EBF7F7"/>
<path d="M5.59354 89.1445H6.90933L8.55407 89.4735L9.04749 89.9669L9.21197 90.4603V92.1051L8.55407 92.9274L7.23828 93.4208H4.6067L4.11328 92.763V90.6248L4.27775 89.4735L4.44223 89.309L5.59354 89.1445Z" fill="#F5F6F6"/>
<path d="M227.794 93.75L228.946 93.9145L230.755 94.2434L232.728 95.0658L233.551 95.7237L233.715 96.7105L233.386 97.2039L231.577 97.8618H230.59L229.11 97.0395L228.617 95.8882L227.794 95.0658L227.301 94.4079L227.465 93.9145L227.794 93.75Z" fill="#F9FAFA"/>
<path d="M55.7582 89.3086H59.2122L60.199 89.6375L60.528 89.9665V91.6112L59.7056 92.4336L59.3766 92.5981H55.7582L55.5938 92.4336V89.4731L55.7582 89.3086Z" fill="#F7F8F8"/>
<path d="M100.001 90.2969L101.317 91.2837L101.975 92.1061L102.797 94.2442V94.9021H98.5212L97.8633 94.7377L98.0278 93.4219L99.3435 90.7903L100.001 90.2969Z" fill="#E9F4F4"/>
<path d="M143.094 87.1719L144.574 87.3363L144.903 87.5008V91.9416L144.738 96.0535L144.903 96.8758L144.245 96.5469H143.752L143.258 96.3824L143.094 95.56V87.1719Z" fill="#A7A8A8"/>
<path d="M122.038 87.8281L123.19 87.9926L123.354 88.1571V89.3084L122.696 90.1308L120.558 89.4729L119.736 89.3084H117.762L116.117 89.8018L114.637 90.7887L114.144 91.611L113.979 92.9268V94.4071L114.308 96.0518H114.637V96.3808L116.282 96.8742L117.597 97.6965L119.736 97.861V98.0255L117.762 98.19L117.597 98.3544L115.953 98.19L114.308 97.3676L113.486 96.2163L112.992 93.5847V92.1044L113.157 91.4465H113.486L113.65 90.7887L114.472 89.9663L115.459 89.4729H115.788V89.1439L117.433 88.9794L117.926 88.6505H118.913L119.571 88.486L119.736 88.6505L120.558 88.486L121.874 88.9794L122.696 88.815L122.861 88.3215L122.038 87.9926V87.8281Z" fill="#093046"/>
<path d="M40.1299 90.625L41.1168 90.7895L42.2681 91.7763L42.7615 93.2566V93.75H43.0905L43.5839 94.9013L43.0905 95.0658L42.2681 94.9013L38.1562 94.7368L38.3207 93.9145L39.6365 91.1184L40.1299 90.625Z" fill="#E5EFF0"/>
<path d="M165.132 88.6504L165.954 88.8149L166.119 89.3083L165.79 90.2951V97.203L165.954 99.3412H163.98L164.309 94.407V92.7622L164.474 91.7754L164.309 89.1438L165.132 88.6504Z" fill="#0C1A25"/>
<path d="M203.126 90.2969L203.948 90.4613L204.606 91.2837L204.935 91.9416V92.435L205.428 92.5995L206.086 93.7508L206.415 94.7377L205.922 94.9021H202.632L201.316 94.7377V94.0798L202.468 91.2837L202.961 90.7903L203.126 90.2969Z" fill="#E7F2F3"/>
<path d="M188.322 89.3086H189.966L192.927 89.802V89.9665H190.295L189.802 90.4599L188.65 90.6244L189.144 91.1178L190.131 91.2823L190.295 91.9402L191.118 92.1046V92.5981L189.966 92.927H188.65L187.335 92.4336L187.006 92.1046V91.1178L185.361 90.9533V91.2823L184.703 91.7757L184.868 91.1178L185.361 90.2954L186.677 89.6375L188.322 89.3086Z" fill="#EBF6F6"/>
<path d="M34.8701 87.3359L35.8569 87.6649L36.1859 87.8294V89.4741L35.528 90.9544L36.3503 90.6254L37.0082 89.9675L37.6661 88.4873L37.9951 88.8162L36.8438 91.7767L35.6924 94.2438L35.3635 95.0662L34.5411 95.3951L34.7056 94.5728L34.8701 93.9149H34.5411L34.3766 95.0662L34.0477 94.5728L33.7188 93.7504L34.5411 92.1057L34.7056 90.4609V87.8294L34.8701 87.3359Z" fill="#EFFBFC"/>
<path d="M17.2699 92.5996H19.737L20.2305 92.9286L20.066 93.5865H19.737V93.9154L18.7502 94.0799V99.343L17.4344 99.5075L17.1055 99.0141V96.218L17.2699 92.5996Z" fill="#0C1A25"/>
<path d="M130.92 89.3086H135.196L134.538 89.6375L134.374 89.802L130.756 89.9665L130.591 90.131L130.427 91.9402H136.512L136.677 92.1046V94.2428L136.512 94.4073L132.071 94.5718L131.413 94.7362V94.5718H130.591V97.2033L132.236 97.3678L136.348 97.2033L136.841 97.8612H130.427L130.262 97.6968V94.4073L130.591 94.0783L136.019 93.9139V92.2691H130.262L130.098 91.7757V90.4599L130.262 89.4731L130.92 89.3086Z" fill="#F1FDFE"/>
<path d="M86.347 89.9668H86.8405V99.3418L87.1694 99.5063L85.5247 99.3418V96.8747L85.6891 92.9273L85.8536 91.1181L85.0312 91.4471L85.3602 90.7892L86.347 89.9668Z" fill="#A7A8A8"/>
<path d="M68.42 87.1719H72.3674V87.3363L68.9134 87.5008L69.0779 99.6719L68.2556 99.5074L67.5977 98.8495L67.7621 98.0271L68.0911 97.8627L67.9266 95.889V93.4219L68.0911 92.2706V88.4877L68.42 87.1719Z" fill="#E3EDEE"/>
<path d="M126.973 97.3691L127.138 97.6981L127.96 98.027L131.578 98.1915H136.513L136.677 98.356V99.3428H135.032L134.21 99.1784H126.809V97.5336L126.973 97.3691Z" fill="#0C1A25"/>
<path d="M112.664 88.3223L112.993 88.4867L112.006 89.6381L111.348 90.9538L111.184 91.6117V95.0657L111.677 97.0394L112.006 97.8617L111.348 97.5328L109.704 95.0657L109.539 94.4078V92.2696L110.032 90.7894L110.855 90.4604L112.171 88.8157L112.664 88.3223Z" fill="#A8A9A9"/>
<path d="M78.4548 87.3359H79.935L80.7574 87.8294L80.5929 88.8162L80.264 89.4741L81.4153 88.9807L82.7311 89.1451L81.7442 90.9544L80.264 94.0794L80.0995 93.5859L80.4285 92.1057L80.9219 91.1188L81.2508 90.9544L81.5798 89.803L81.9087 89.4741L81.2508 90.132L80.4285 91.7767L79.935 91.2833L79.6061 89.4741L79.7706 88.4873H78.2903L78.1258 88.8162L77.7969 88.6517V87.6649L78.4548 87.3359Z" fill="#F1FDFD"/>
<path d="M19.0785 94.2441H20.0654L20.5588 94.5731V99.5073H18.9141V94.4086L19.0785 94.2441Z" fill="#9FA2A3"/>
<path d="M30.0981 87.1719H31.0849V98.1916L30.756 98.8495L30.427 98.3561L30.2625 96.8758V90.4613L29.9336 88.6521L30.0981 87.1719Z" fill="#A6A7A7"/>
<path d="M214.309 87.8281H214.473L214.802 91.2821L214.966 92.5979V98.19H215.295L215.131 99.3413L217.927 99.1768V98.19H218.42V99.1768L223.519 99.3413L223.355 98.3544L222.697 97.6965L223.848 97.861L223.684 99.5058H214.473L214.309 96.7097V87.8281Z" fill="#093046"/>
<path d="M219.08 97.8613H223.192L223.356 98.1903H223.521V99.3416H218.422L218.258 98.5192V98.0258L219.08 97.8613Z" fill="#0B1A25"/>
<path d="M1.80921 87.1719H7.23684V87.3363L2.79605 87.5008L0.822368 87.8298V87.5008H0.493421V93.5863L0.657895 97.2048L0.493421 97.5337L0.657895 98.685L0.493421 99.5074H3.125V99.6719H0V89.639L0.164474 87.5008L0.328947 87.3363L1.80921 87.1719Z" fill="#A7A8A8"/>
<path d="M17.1055 87.5H18.7502L18.9147 88.1579L18.7502 91.9408H17.2699L17.1055 89.3092V87.5Z" fill="#0C1A25"/>
<path d="M27.1375 93.5859L27.302 93.9149L27.7954 93.7504L28.1244 96.7109L28.2889 97.3688L28.4533 98.8491L28.6178 99.3425H26.8086V93.9149H27.1375V93.5859Z" fill="#0B1C28"/>
<path d="M202.961 91.6113L204.112 91.7758L204.441 92.2692L204.605 93.4205L204.277 94.2429L203.783 94.7363H202.138L201.48 94.4074L201.809 93.585L202.796 91.7758L202.961 91.6113Z" fill="#FDFDFD"/>
<path d="M51.4813 87.3359H51.9747V99.6715L51.4813 99.3425L51.3168 89.3096L51.1523 88.1583L51.4813 87.3359Z" fill="#DEE7E8"/>
<path d="M226.316 97.8613L228.126 98.0258L230.264 98.3547L231.251 98.6837L231.415 98.1903L232.566 98.3547L232.402 99.1771L232.073 99.3416L229.441 99.5061L227.632 99.3416L226.974 99.0126L226.316 98.3547V97.8613Z" fill="#0B1A25"/>
<path d="M18.9141 87.3359H20.2299L20.3943 87.5004V92.1057H19.0785L18.9141 91.9412L19.0785 89.803L19.243 87.5004L18.9141 87.3359Z" fill="#A6A7A7"/>
<path d="M134.046 92.1055H135.527L135.691 92.2699L135.855 94.0792L135.691 94.2436L130.921 94.4081L129.934 94.5726V97.2042L131.579 97.3686L135.691 97.2042L136.184 97.862H129.77L129.605 97.6976V94.4081L129.934 94.0792L135.362 93.9147V92.2699H134.046V92.1055Z" fill="#ECF8F9"/>
<path d="M144.574 87.1719L145.232 87.3363V96.2179L145.397 96.5469L145.89 96.7113V97.0403L147.535 97.5337L147.699 97.6982L148.851 97.8627V98.0271H147.37L145.726 97.6982L144.903 97.0403L144.574 95.56L144.903 87.5008H144.574V87.1719Z" fill="#EAF5F6"/>
<path d="M27.1371 87.6641H28.2884L28.4529 87.8285V89.3088L27.795 92.2693H27.4661L27.6306 92.9272L27.1371 93.0917L26.9727 92.4338L27.1371 91.447L26.9727 90.9535V88.6509L27.1371 87.6641Z" fill="#0C1A25"/>
<path d="M227.302 88.4863H227.96V88.8153H228.453L228.618 89.3087L228.453 91.1179V92.1047L227.302 91.9403L226.809 91.1179L226.973 89.3087L227.302 88.4863Z" fill="#0C1A25"/>
<path d="M172.532 89.9668L172.861 90.1313V99.5063L172.367 99.3418V90.1313L172.532 89.9668Z" fill="#A7A8A8"/>
<path d="M39.9673 91.6113L40.4607 91.9403L40.7897 92.5982L41.612 92.9271L41.7765 93.585L41.612 93.7495L39.9673 93.914L39.4739 94.0784L38.9805 93.4205L39.1449 92.5982L39.9673 91.6113Z" fill="#FCFDFD"/>
<path d="M85.3627 91.1191H85.8561L85.6916 96.8757H85.3627L85.1982 95.231L85.0337 94.5731L85.1982 93.7507L84.8692 92.7639L84.0469 93.0928L84.3758 92.2705L84.8692 91.4481L85.3627 91.1191Z" fill="#EBF6F7"/>
<path d="M116.285 87.1719H120.232L121.383 87.3363L121.877 87.8298L120.396 87.6653H116.942L115.133 87.9942L113.982 88.4877L112.666 89.31L111.844 89.9679L112.173 89.1456L113.324 88.1587L114.804 87.5008L116.285 87.1719Z" fill="#093046"/>
<path d="M176.153 87.0059H177.797L178.291 87.4993L178.455 88.6506L178.291 88.8151V99.3414L178.126 99.6703L177.633 99.5059L177.797 99.3414V95.0651L177.962 87.3348H175.988L176.153 87.0059Z" fill="#DBE4E5"/>
<path d="M141.281 98.1914H141.61V98.5204L144.9 99.1782L146.051 99.3427H150.492L152.301 98.8493L152.794 99.0138L151.808 99.5072L150.492 99.8361H146.544L143.584 99.5072L142.104 99.1782L141.281 98.5204V98.1914Z" fill="#D5DCDD"/>
<path d="M103.781 89.1445L104.275 89.638L105.755 92.434L108.058 97.0393L108.551 98.5195L108.058 98.0261L107.235 96.7103L104.933 92.1051L103.781 89.638V89.1445Z" fill="#A7A8A8"/>
<path d="M218.09 87.5L218.584 87.6645L218.748 88.1579L218.584 88.8158H218.255V97.5329L218.748 97.6974L218.09 97.8618L217.926 96.875V87.9934L218.09 87.5Z" fill="#D3DBDB"/>
<path d="M166.282 89.4746H166.447L166.611 94.5733L166.776 98.3562L167.105 98.5207L167.269 99.343L167.105 99.672H165.789L166.282 99.5075V89.4746Z" fill="#CCD3D4"/>
<path d="M37.6641 88.4863L37.993 88.8153L36.8417 91.7758L35.6904 94.2429L35.3614 95.0653L34.5391 95.3942L34.7035 94.5719L34.868 93.914H35.197V93.585H35.5259L36.0193 92.1047L37.6641 88.4863Z" fill="#A7A8A8"/>
<path d="M232.564 87.3359L234.045 87.8294L234.538 88.1583H234.045V88.6517L231.249 88.4873L230.262 87.9938V87.6649L232.564 87.3359Z" fill="#0C1A25"/>
<path d="M157.239 87.1719H158.719L158.554 89.31H159.541V89.4745H157.568L157.074 88.9811L157.239 87.1719Z" fill="#A7A8A8"/>
<path d="M184.539 91.9414H184.704V93.5861H185.032L185.361 94.9019L186.677 97.0401L187.829 97.5335V97.698L186.513 97.5335L185.361 96.5467L184.704 95.3954L184.539 94.573V91.9414Z" fill="#DBE3E4"/>
<path d="M155.265 87.3359L155.758 87.5004L155.594 96.382L154.772 98.0267L153.949 98.3557L154.936 96.7109L155.101 96.2175L155.265 93.257V87.3359Z" fill="#E7F1F2"/>
<path d="M181.907 96.0527L182.236 96.2172L182.729 97.6975L183.551 98.5198L185.69 99.1777L186.841 99.3422L186.183 99.6712H184.867L182.894 99.0133L182.4 98.3554L182.071 97.6975L181.742 97.533L181.907 96.0527Z" fill="#E3EDED"/>
<path d="M20.5586 94.2441H26.6441L26.8086 94.4086V99.5073L26.6441 99.0139H26.3152L26.1507 98.5205L26.4796 98.027V95.231L26.3152 94.7376L25.8218 94.5731L20.7231 94.4086V97.8626H20.5586V94.2441Z" fill="#E8F2F3"/>
<path d="M130.92 89.3086H135.196L134.538 89.6375L134.374 89.802L130.756 89.9665L130.591 90.131L130.427 92.1046H131.249V92.2691H130.262L130.098 91.7757V90.4599L130.262 89.4731L130.92 89.3086Z" fill="#D2DADA"/>
<path d="M126.48 99.3418H133.059L136.842 99.5063L136.678 99.8352H127.138V99.5063L126.48 99.3418Z" fill="#DAE2E3"/>
<path d="M204.606 91.6113L204.935 91.9403V92.4337L205.429 92.5982L206.087 93.7495L206.416 94.7363L205.922 94.9008H202.633V94.7363L205.1 94.5719L204.606 92.1047V91.6113Z" fill="#A7A8A8"/>
<path d="M72.2039 89.4746L72.6974 89.968L73.8487 92.4351L74.3421 93.9154H74.0132L73.5197 92.9286L73.0263 92.1062L72.8618 91.7772L71.875 91.2838L72.0395 89.6391L72.2039 89.4746Z" fill="#DEE7E8"/>
<path d="M26.6445 87.6641H26.809V92.2693H20.3945V92.1049L24.5064 91.9404L26.4801 92.1049L26.3156 90.7891H25.8222L25.9866 89.6377L26.4801 89.9667L26.6445 88.1575L26.1511 88.322V87.993L26.6445 87.6641Z" fill="#E0E9EA"/>
<path d="M122.367 96.875H123.354L123.189 97.5329L123.847 97.6974L123.025 98.6842L121.874 99.1776L121.216 99.0132L122.696 98.3553V98.0263L121.051 97.8618L120.887 97.5329L122.367 96.875Z" fill="#092F45"/>
<path d="M113.981 91.6113H114.145V94.4074H114.474L114.968 96.0521L115.955 96.2166L116.448 96.71L116.284 97.039L114.639 96.3811V96.0521H114.31L113.981 95.3942L113.816 94.4074V92.2692L113.981 91.6113Z" fill="#CBD1D2"/>
<path d="M113.816 99.0137L116.941 99.3426H120.066L122.205 99.0137V99.3426L120.066 99.836H117.764L114.31 99.5071L113.816 99.3426V99.0137Z" fill="#E3ECED"/>
<path d="M61.1836 88.4863L62.4994 88.6508L62.9928 89.6376L62.8283 90.46L62.4994 90.6245L62.3349 90.46H61.8415L61.5125 89.4732H61.1836V88.4863Z" fill="#0C1A25"/>
<path d="M192.269 99.0137L192.763 99.1781L192.598 99.5071L191.118 99.836H186.348L186.184 99.5071L190.131 99.3426L192.269 99.0137Z" fill="#E7F2F3"/>
<path d="M15.2973 87.6641L15.6262 87.8285V91.6114L15.4618 96.3812H15.2973L15.1328 91.447V88.322L15.2973 87.6641Z" fill="#A7A8A8"/>
<path d="M234.538 98.8496L235.36 99.0141V99.1786L233.057 99.8365L231.577 100.001H229.274L227.301 99.8365V99.672L231.413 99.5075L233.715 99.1786L234.538 98.8496Z" fill="#F1FDFE"/>
<path d="M31.5794 87.5L31.9083 87.6645L31.7438 88.8158L31.9083 89.1447V90.1316L31.4149 90.4605L31.2504 93.75H31.0859V87.6645L31.5794 87.5Z" fill="#F1FDFE"/>
<path d="M192.928 97.2031H193.915L195.066 98.3544L195.724 98.8479V99.1768L194.902 99.0123L193.751 98.5189V97.861L192.764 97.6965L191.941 97.5321V97.3676L192.928 97.2031Z" fill="#093046"/>
<path d="M97.2029 97.0391H103.946V97.2035L97.8608 97.368L97.0384 97.697L96.874 98.1904L95.7227 98.6838L96.0516 97.8614L97.2029 97.0391Z" fill="#E7F2F3"/>
<path d="M82.4003 89.1445L82.7292 89.309L81.4134 91.6116L80.2621 94.0787L80.0977 93.5853L80.4266 92.1051L80.92 91.1182L81.249 90.9537L81.5779 89.8024L82.4003 89.4735V89.1445Z" fill="#E0EAEB"/>
<path d="M5.59313 89.1445H6.90892L8.55366 89.4735L8.71813 89.8024H5.42866L4.27734 90.1314L4.44182 89.309L5.59313 89.1445Z" fill="#DDE6E6"/>
<path d="M125.327 95.7246L125.656 95.8891V97.3693L125.492 97.6983L124.505 97.5338L124.34 97.8628L124.176 97.0404L125.327 95.7246Z" fill="#FDFDFD"/>
<path d="M94.2434 90.1309L94.9013 90.7888L94.7368 92.4335L93.75 93.0914V91.9401L94.2434 90.1309Z" fill="#F1FDFE"/>
<path d="M134.045 92.1055H135.526L135.69 92.2699L135.855 94.0792L135.69 94.2436H129.934V94.0792L135.361 93.9147V92.2699H134.045V92.1055Z" fill="#A7A8A8"/>
<path d="M230.755 89.1445H232.729L235.689 89.4735V89.638H230.92L230.426 90.4603H230.262L230.426 89.309L230.755 89.1445Z" fill="#D4DCDD"/>
<path d="M98.6836 93.0918H99.506L100.493 93.5852V94.4076L100.164 94.5721L98.8481 94.0786L98.6836 93.9142V93.0918Z" fill="#FDFDFD"/>
<path d="M55.7582 89.3086H59.2122L60.199 89.6375L59.7056 89.802H56.2516L55.9227 90.4599H55.5938V89.4731L55.7582 89.3086Z" fill="#DCE5E6"/>
<path d="M141.281 98.1914H141.61V98.5204L146.544 99.5072V99.6717H145.064L142.926 99.3427L141.939 99.0138L141.281 98.5204V98.1914Z" fill="#DEE7E8"/>
<path d="M78.4539 94.0781L79.6053 94.2426L80.0987 94.4071L79.2763 95.8873L78.6184 95.2294L78.125 94.2426L78.4539 94.0781Z" fill="#E0EAEA"/>
<path d="M112.006 88.6504L112.335 88.8149L110.69 90.7885H110.032L109.704 91.6109L109.539 91.282V90.4596L110.69 90.1307L111.019 89.4728L112.006 88.6504Z" fill="#F1FDFE"/>
<path d="M62.8275 93.2559L63.1565 93.4203L63.3209 94.7361H62.3341V94.4072L61.5117 94.2427V93.7493L62.8275 93.2559Z" fill="#D3DBDB"/>
<path d="M1.8088 87.1719H7.23643V87.3363L2.79564 87.5008L0.821957 87.8298V87.5008H0.49301V87.8298H0.164062L0.328536 87.3363L1.8088 87.1719Z" fill="#A1A3A4"/>
<path d="M177.468 87.8281H177.632V88.9794L177.303 89.8018L176.316 88.9794L176.645 88.3215L177.468 87.8281Z" fill="#0B1A25"/>
<path d="M220.888 97.2031H221.875V97.5321L222.532 97.3676L222.861 97.6965L222.697 97.861H218.914L219.572 97.5321L220.888 97.3676V97.2031Z" fill="#D0D7D7"/>
<path d="M116.941 87.0059H120.395L121.876 87.1703L123.191 87.8282L122.698 87.9927L121.547 87.6638L121.382 87.4993L120.231 87.3348L116.941 87.1703V87.0059Z" fill="#A7A8A8"/>
<path d="M114.473 91.2832L114.638 91.6122L114.473 92.599L114.967 93.9148V94.9016L114.638 94.5727L114.473 94.0793L114.145 94.4082V91.6122L114.473 91.2832Z" fill="#F1FDFD"/>
<path d="M166.449 89.4746H171.219V89.6391L167.929 89.8036L166.614 90.1325L166.449 90.6259V89.4746Z" fill="#F1FDFE"/>
<path d="M235.691 87.5L236.678 87.9934L237.336 88.9803L237.172 89.4737L236.514 89.1447L236.185 88.8158V88.1579H235.856L235.691 87.5Z" fill="#ABADAD"/>
<path d="M155.265 93.2559H155.429V96.3809L154.936 97.8611L154.278 98.3545L153.949 98.1901L154.607 97.3677L155.101 96.2164L155.265 93.2559Z" fill="#A7A8A8"/>
<path d="M202.303 91.6113L202.632 91.9403L202.468 92.7626L201.645 94.2429L202.139 94.7363H201.316V94.0784L202.303 91.6113Z" fill="#C4CACA"/>
<path d="M113.816 99.0137L116.941 99.3426L117.764 99.5071V99.6716H115.461L113.816 99.3426V99.0137Z" fill="#DEE7E8"/>
<path d="M236.844 93.9141H237.173L237.666 95.5588L237.502 97.2035L237.173 97.697L237.008 96.7101L237.173 96.2167L236.844 93.9141Z" fill="#A8A9A9"/>
<path d="M102.138 92.9277L102.467 93.2567L102.96 94.7369L102.796 94.9014H98.5195V94.7369H102.467L102.138 92.9277Z" fill="#A7A8A8"/>
<path d="M66.6102 94.5723H66.9391V95.8881L67.597 96.5459L67.4326 97.0394L66.6102 96.217L66.2812 95.5591V94.7367L66.6102 94.5723Z" fill="#F1FDFE"/>
<path d="M66.447 92.7637H67.5983L67.4338 93.4216L66.6114 93.0926L66.447 93.7505L66.118 94.5729L65.7891 94.0795L65.9535 93.2571L66.447 92.7637Z" fill="#F1FDFE"/>
<path d="M176.153 87.0059H177.797L178.291 87.4993L178.455 88.6506L177.962 88.9795V87.3348H175.988L176.153 87.0059Z" fill="#E2ECED"/>
<path d="M234.539 98.8496L235.361 99.0141V99.1786L233.059 99.8365L231.414 99.672V99.5075L233.717 99.1786L234.539 98.8496Z" fill="#C7CDCD"/>
<path d="M108.552 98.3555L109.045 98.5199V99.5068L108.881 99.6713H105.098L104.934 99.3423H108.552V98.8489V98.3555Z" fill="#DEE8E9"/>
<path d="M104.277 97.2031L104.442 97.5321L104.935 97.6965L105.264 99.3413L104.606 99.1768L104.277 98.0255V97.2031Z" fill="#093046"/>
<path d="M134.047 87.5H135.856L135.692 88.4868H135.198V88.1579L134.211 87.8289L134.047 87.5Z" fill="#0C1A25"/>
<path d="M82.4013 89.1445L82.7303 89.309L81.5789 91.2827L81.25 90.6248L81.5789 89.8024L82.4013 89.4735V89.1445Z" fill="#E4EEEF"/>
<path d="M207.403 97.6973L207.896 98.3552L208.225 99.1775L208.554 99.5065H207.732L207.403 99.1775L207.238 98.0262L207.403 97.6973Z" fill="#D6DFDF"/>
<path d="M196.383 97.8613L196.547 98.3547L196.054 99.1771H195.725L194.902 98.1903L196.218 98.0258L196.383 97.8613Z" fill="#D2DADA"/>
<path d="M201.809 93.5859L202.632 94.2438V94.5728H203.783V94.7373H202.138L201.48 94.4083L201.809 93.5859Z" fill="#F1FDFE"/>
<path d="M207.402 89.8027L208.06 90.1317L208.554 91.283L208.389 91.9409L208.06 91.6119L207.402 90.2962V89.8027Z" fill="#DBE4E4"/>
<path d="M157.403 87.3359L158.061 87.5004L157.896 88.6517L157.238 88.8162L157.403 87.3359Z" fill="#093046"/>
<path d="M193.584 98.5195H194.406L194.899 99.013L194.406 99.1774H192.926V98.8485L193.584 98.5195Z" fill="#D9E1E2"/>
<path d="M141.281 98.1914H141.61V98.5204L143.748 99.0138L143.584 99.3427L142.104 99.1782L141.281 98.5204V98.1914Z" fill="#DBE4E5"/>
<path d="M42.5977 93.2559L42.7621 93.7493H43.0911L43.5845 94.9006L43.0911 95.0651L42.5977 94.5716V93.2559Z" fill="#A1A4A4"/>
<path d="M225.66 97.3691L225.824 98.027L225.002 98.8494L224.344 98.5205V98.027L225.495 97.8626L225.66 97.3691Z" fill="#A7A8A8"/>
<path d="M183.058 88.6504L183.387 88.8149L182.4 90.1307L181.578 90.2951L181.743 89.8017H182.236L182.565 89.1438L183.058 88.6504Z" fill="#A7A8A8"/>
<path d="M210.031 95.2305L210.525 95.8884L210.689 96.5463L211.183 96.7107L211.347 97.5331H210.854L210.031 95.7239V95.2305Z" fill="#A7A8A8"/>
<path d="M34.5403 93.9141H34.8692L34.7048 95.5588L34.2113 96.2167L34.0469 95.3943L34.5403 93.9141Z" fill="#1E4053"/>
<path d="M96.874 97.3691L97.0384 97.6981L96.874 98.1915L95.7227 98.6849L96.0516 97.8626L96.874 97.3691Z" fill="#D1D8D9"/>
<path d="M122.861 96.5469H123.519L123.848 97.0403V97.5337H123.19L123.354 96.8758L122.203 97.0403V96.7113L122.861 96.5469Z" fill="#D1D8D9"/>
<path d="M181.907 96.0527L182.236 96.2172L182.565 97.6975H181.742L181.907 96.0527Z" fill="#A7A8A8"/>
<path d="M96.5458 89.6387L96.8748 89.8031L95.7235 91.9413H95.3945L95.7235 90.9545L96.5458 89.6387Z" fill="#DBE3E4"/>
<path d="M102.301 87.3359L103.123 87.6649L103.781 88.4873L103.617 89.1451L102.63 87.8294L102.301 87.3359Z" fill="#D2DADA"/>
<path d="M79.7708 97.2031L80.5931 97.3676L80.4287 98.19L80.2642 97.861L79.2773 98.0255L79.6063 97.3676L79.7708 97.2031Z" fill="#0C1A25"/>
<path d="M150.988 96.3809L151.153 96.8743L150.166 97.6966L149.344 97.8611V97.5322L150.331 97.0388L150.988 96.3809Z" fill="#D7DFE0"/>
</svg>
