<svg width="122" height="120" viewBox="0 0 122 120" fill="none" xmlns="http://www.w3.org/2000/svg">
<path d="M57.4905 0H64.4487L69.924 0.684411L73.2319 1.25475L76.654 2.05323L80.076 3.07985L83.27 4.22053L86.4639 5.58935L88.8593 6.73004L91.3688 8.09886L93.9924 9.69582L95.3612 10.6084L96.9582 11.749L98.4411 12.8897L100.266 14.3726L101.749 15.6274L102.548 16.4259L103.46 17.2243L105.285 19.0494L106.084 19.962L107.338 21.3308L108.365 22.5856L109.962 24.6388L111.559 26.9202L113.156 29.4297L114.639 32.0532L115.894 34.4487L117.376 37.8707L118.403 40.6084L119.316 43.4601L120.114 46.4259L121.027 50.7605L121.369 52.5856V68.4411L120.798 71.2928L119.886 75.3992L118.859 79.0494L117.605 82.4715L116.236 85.6654L115.095 88.0608L113.612 90.6844L112.243 92.9658L110.989 94.7909L109.848 96.3878L108.707 97.8707L107.452 99.3536L106.426 100.608L104.715 102.319L104.373 102.776H104.144L103.916 103.232H103.688L103.574 103.574L102.662 104.373L101.521 105.513L100.266 106.54L98.327 108.137L96.2738 109.62L93.5361 111.445L91.0266 112.928L88.289 114.411L85.0951 115.894L81.9011 117.148L78.8213 118.175L74.6008 119.316L72.0913 119.886L71.8631 120H49.8479L47.7947 119.43L43.6882 118.403L39.5817 117.034L36.73 115.894L33.9924 114.639L30.6844 112.928L27.7186 111.103L26.3498 110.19L24.4106 108.821L22.8137 107.567L20.8745 105.97L19.3916 104.601L15.1711 100.38L14.1445 99.1255L12.8897 97.6426L11.2928 95.4753L9.01141 92.0532L7.75665 89.8859L6.61597 87.8327L5.13308 84.7529L3.76426 81.3308L2.39544 77.2243L1.48289 73.6882L0.798479 70.038L0.342205 66.8441L0 63.7643V56.9202L0.684411 51.5589L1.14068 48.8213L1.93916 45.3992L2.96578 41.8631L3.87833 39.2395L5.24715 35.9316L6.61597 33.0798L8.21293 30.1141L9.58175 27.9468L10.7224 26.2357L11.8631 24.6388L13.0038 23.1559L14.6008 21.2167L15.6274 20.076L16.8821 18.7072L19.5057 16.0837L20.4183 15.2852L22.0152 13.9163L23.6122 12.6616L25.7795 11.0646L27.4905 9.92395L29.3156 8.78327L31.711 7.41445L34.5627 5.93156L38.2129 4.3346L41.635 3.07985L45.1711 2.05323L48.0228 1.36882L51.7871 0.684411L55.2091 0.228137L57.4905 0Z" fill="#ED4B20"/>
<path d="M57.1487 21.3301H62.624L66.8446 21.9004L69.8103 22.5848L72.2058 23.2692L74.0309 23.9537L76.3122 24.9803L78.1373 25.8928L80.3046 27.0335L81.9016 28.0601L83.2704 29.0867L84.8674 30.4556L86.1221 31.4822L88.8598 34.2198L89.8864 35.4746L91.0271 36.9575L92.2818 38.7825L93.8788 41.2921L95.4757 44.6L96.6164 47.794L97.4149 50.7597L98.0993 54.0677L98.4415 56.9194L98.5556 59.0867V61.5962L98.2134 65.3605L97.4149 69.467L96.5023 72.7749L95.2476 75.9689L93.9928 78.4784L92.7381 80.5316L91.5974 82.2426L90.2286 84.0677L88.9738 85.6647L88.1754 86.4632L87.3769 87.3757L86.008 88.6305L85.5518 88.8586L85.894 89.4289L87.605 91.254L88.9738 92.851L89.316 93.1932V93.4213H89.5442L90.5708 94.6761L91.3693 95.4746L92.3959 96.7293L93.0803 97.5278L92.8522 97.9841L91.2552 99.2388L90.0004 100.151L87.8331 101.748L85.6658 103.117L82.8141 104.714L80.4187 105.855L75.856 107.566L73.0042 108.478L70.0385 109.163L66.7305 109.733L62.51 110.189H57.1487L52.9282 109.733L49.6202 109.163L46.4263 108.364L42.662 107.11L39.8103 105.969L36.9586 104.6L34.6773 103.345L32.51 101.976L30.5708 100.608L28.1754 98.7825L27.0347 97.87L26.8065 97.5278L27.9472 96.273L28.7457 95.3605L30.1145 93.8776L31.1411 92.6229L32.7381 90.9118L33.9928 89.4289L34.1069 88.7445L31.3693 86.0069L30.3427 84.7521L28.8598 82.813L27.2628 80.5316L26.6925 79.505L25.4377 77.3377L24.183 74.6L23.2704 72.0905L22.3579 68.6685L21.9016 66.3871L21.5594 63.8776L21.4453 62.1666V57.7179L21.6734 55.0943L22.0157 53.0411L22.586 50.5316L22.9282 49.1628L23.7267 46.5392L24.7533 44.1438L25.6658 42.0905L27.1487 39.581L28.8598 37.0715L30.3427 35.1324L31.7115 33.5354L33.4225 31.8244L34.335 31.0259L35.7039 29.8852L37.1868 28.7445L38.7837 27.6038L41.6354 26.0069L43.3465 25.0943L46.5404 23.7255L49.278 22.813L52.9282 21.9004L56.1221 21.4441L57.1487 21.3301Z" fill="#D0D1D1"/>
<path d="M56.5767 9.81055H62.166L65.3599 10.0387L68.5538 10.495L71.1774 11.0653L74.2573 11.8638L77.9075 13.1185L79.5044 13.8029L81.3295 14.4874L83.1546 15.3999L85.2078 16.5406L87.9455 18.2516L89.4284 19.3923L92.166 21.4455L93.877 22.9284L94.6755 23.7269L95.0177 23.955V24.1832L95.474 24.4113L96.2725 25.3239L97.2991 26.4645L98.0976 27.3771L99.4664 28.974L101.063 31.1413L102.204 32.8524L103.231 34.4493L104.599 37.0729L105.968 40.0387L106.881 42.3201L108.25 46.4265L109.048 49.7345L109.733 54.0691L109.961 56.4645L110.075 58.5178V61.3695L109.961 63.7649L109.504 67.6432L108.82 71.1794L107.907 74.6014L106.653 78.2516L105.398 81.1033L103.459 85.0957L102.204 87.0349L100.721 89.2022L99.3523 91.0273L97.9835 92.6242L96.9569 93.7649L96.1584 94.6775L95.1318 95.7041L94.9036 96.0463H94.6755L94.4474 96.5026L93.877 96.9588L93.4208 96.7307L91.7097 94.9056L90.9113 93.9931L89.8846 92.8524L89.0862 91.9398L87.9455 90.6851L87.147 89.7725L86.6907 89.3163V88.86L87.6033 88.0615L89.4284 86.2364L90.6831 84.6395L91.8238 83.1566L93.6489 80.4189L94.7896 78.4798L96.1584 75.628L97.4132 72.0919L98.3257 68.6699L98.896 65.4759L99.2383 62.168V58.0615L99.0101 55.2098L98.4398 51.9018L97.5272 48.2516L96.3865 45.0577L95.5881 43.2326L94.6755 41.4075L93.9911 40.1528L92.5082 37.8714L91.4816 36.3885L89.8846 34.3353L88.1736 32.5102L86.1204 30.4569L84.8656 29.4303L83.3827 28.2896L81.4436 26.9208L78.9341 25.4379L77.109 24.5254L74.9417 23.4988L73.1166 22.8144L70.7211 22.0159L67.9835 21.3315L64.5614 20.7611L61.8238 20.533H57.8314L54.9797 20.7611L51.8998 21.3315L50.0748 21.7877L47.3371 22.5862L45.512 23.2706L42.7744 24.5254L40.1508 25.8942L37.7554 27.3771L35.5881 28.974L33.877 30.4569L32.5082 31.7117L30.6831 33.5368L29.6565 34.7915L27.8314 37.187L27.0329 38.4417L25.6641 40.609L24.2953 43.2326L23.3827 45.2858L22.3561 48.3657L21.7858 50.4189L20.9873 54.1832L20.6451 57.6052V62.168L20.9873 65.3619L21.5576 68.3277L22.3561 71.4075L23.4968 74.8296L24.4094 76.8828L25.6641 79.2782L27.3751 82.0159L28.2877 83.2706L29.6565 85.0957L30.6831 86.2364L31.4816 87.149L32.0519 87.7193V87.9474L32.5082 88.1756L33.3067 88.86L33.0786 89.4303L31.5957 91.0273L30.569 92.282L29.5424 93.3087L28.5158 94.5634L27.147 96.0463L26.5767 96.8448L26.0063 96.9588L23.6109 94.5634L22.8124 93.6509L21.7858 92.5102L20.7592 91.2554L19.1622 89.2022L17.5652 86.8067L16.7668 85.552L15.8542 83.955L13.6869 79.3923L12.4322 76.0843L11.4056 72.6623L10.7211 69.5824L10.1508 65.9322L9.92266 63.6509L9.80859 61.4836V58.5178L10.0367 55.2098L10.6071 51.2174L11.2915 47.9094L12.204 44.7155L13.2306 41.7497L14.7135 38.4417L16.5386 34.7915L17.223 33.6509L18.3637 31.9398L19.9607 29.6585L21.5576 27.7193L23.0405 26.1223L24.0671 24.8676L25.55 23.3847L26.4626 22.5862L27.8314 21.3315L29.8846 19.8486L31.3675 18.7079L33.0786 17.5672L35.5881 16.0843L38.782 14.3733L42.8884 12.7763L46.7668 11.5216L49.6185 10.8372L52.8124 10.2668L55.3219 9.92462L56.5767 9.81055Z" fill="#FBFBFB"/>
<path d="M56.4622 1.82422H63.3063L67.1846 2.16642L70.8348 2.73677L74.2569 3.53525L77.3367 4.44779L79.6181 5.24627L83.0402 6.61509L84.0668 7.07137L86.8044 8.32612L88.9717 9.58087L90.4546 10.4934L93.1923 12.3185L95.1314 13.6873L96.6143 14.828L97.755 15.8546L98.6675 16.6531L99.8082 17.6797L100.835 18.7063L101.177 18.9345V19.1626L101.633 19.3908L102.66 20.5314L103.458 21.3299L104.485 22.5847L105.968 24.4098L107.109 26.0067L108.477 27.8318L109.96 30.2273L111.101 32.2805L112.128 34.2197L114.067 38.6683L115.207 41.8622L116.006 44.4858L116.804 47.7938L117.489 51.5581L117.945 55.7786L118.059 58.06V62.0524L117.945 64.5619L117.375 69.1246L116.576 73.2311L115.664 76.6531L114.637 79.733L113.382 82.8128L112.356 85.0942L111.329 87.2615L109.846 89.8851L108.706 91.7102L107.565 93.3071L106.196 95.1322L105.055 96.6151L103.572 98.4402L101.976 100.151L99.466 102.661L98.8957 102.889L97.5269 101.292L96.5002 100.151L95.2455 98.7824L94.3329 97.7558L94.447 97.4136L95.3596 96.6151L96.5002 95.4744L97.5269 94.2197L99.2379 92.3946L100.607 90.6835L102.09 88.5162L103.458 86.463L104.485 84.6379L106.082 81.444L107.451 78.2501L108.135 76.3109L108.82 74.2577L109.618 71.0638L110.303 67.2995L110.645 64.2197L110.759 62.1664V57.3755L110.417 53.2691L109.732 49.1626L108.82 45.5124L107.451 41.52L106.766 40.0371L105.74 37.7558L104.827 35.9307L103.687 33.7634L102.432 31.8242L101.633 30.6835L100.493 29.0866L99.2379 27.6037L98.2113 26.463L97.1846 25.2083L95.3596 23.2691L93.8767 21.9003L92.3938 20.6455L90.5687 19.2767L89.0858 18.136L87.3748 16.9953L85.3215 15.7406L82.5839 14.2577L80.3025 13.2311L76.4242 11.7482L73.1162 10.7216L69.0097 9.80901L64.9033 9.23867L62.1656 9.01053H56.8044L53.4964 9.35274L50.1884 9.92308L46.7664 10.7216L43.4584 11.7482L39.9223 13.117L37.6409 14.1436L35.1314 15.3984L33.4204 16.425L31.025 18.0219L29.1999 19.3908L27.717 20.5314L26.5763 21.444L25.3215 22.5847H25.0934L24.9793 22.9269L24.2949 23.4972L23.9527 23.9535H23.7246L23.4964 24.4098L22.0135 26.0067L21.2151 26.9193L19.9603 28.4022L18.8196 29.8851L18.0212 31.1398L16.8805 32.8508L15.9679 34.3337L14.7132 36.7292L13.4584 39.3527L12.3177 41.9763L11.2911 45.0562L10.4926 47.7938L9.92229 50.6455L9.46602 53.3832L9.12381 56.6911V62.9649L9.58009 67.2995L10.1504 70.3793L10.8348 73.2311L11.8615 76.539L13.0021 79.5048L14.485 82.6987L15.6257 84.866L16.3101 86.1208L17.9071 88.6303L19.504 90.7976L20.7588 92.3946L21.8995 93.6493L22.698 94.5619V94.79H22.9261L23.7246 95.7025L24.8653 96.8432V97.0714L25.3215 97.2995L25.5497 97.5276L25.4356 97.9839L24.6371 98.8965L23.6105 99.9231L22.5839 101.178L21.5573 102.319L21.101 102.889L20.5307 102.775L20.0744 102.319V102.09L19.6181 101.862L16.9945 99.2387L15.9679 97.9839L14.7132 96.501L13.2303 94.5619L12.3177 93.3071L10.8348 91.1398L9.92229 89.6569L8.78161 87.6037L7.07058 84.0676L5.70176 80.7596L4.44701 77.2235L3.30632 73.0029L2.62191 69.5809L2.16564 66.501L1.9375 64.1056V56.0067L2.39377 51.7862L3.07818 47.7938L3.53446 45.8546L3.87666 44.828L4.56107 42.4326L5.9299 38.5543L6.50024 37.1854L8.32533 33.3071L9.69415 30.6835L11.177 28.2881L12.5459 26.3489L13.6865 24.866L15.0554 23.0409L16.4242 21.444L17.6789 20.0752L20.5307 17.2235L21.4432 16.425L22.812 15.1702L24.7512 13.6873L26.4622 12.4326L27.6029 11.6341L29.3139 10.4934L31.5953 9.1246L34.2189 7.75578L38.6675 5.81661L41.8615 4.67593L44.8272 3.76338L48.0211 2.9649L51.7854 2.28049L54.9793 1.93829L56.4622 1.82422Z" fill="#D0D1D1"/>
<path d="M34.5633 41.4062L37.5291 41.9766L40.3808 42.5469L45.742 43.3454L50.8751 43.9158L55.4378 44.258H64.4492L69.3542 43.9158L74.145 43.3454L79.5063 42.5469L84.1831 41.6344L85.4378 41.4062V44.9424L85.2097 48.9348L84.6393 54.296L83.9549 58.4024L83.2705 61.5964L81.9017 66.7294L80.8751 69.4671L79.6203 72.0907L78.2515 74.1439L76.9967 75.7409L75.9701 76.9956L74.3732 78.7066L73.9169 79.277L72.6621 80.3036L71.1793 81.6724L69.5823 82.9272L67.6431 84.5241L65.4758 86.007L63.6507 87.1477L60.685 88.9728L59.8865 89.315L57.0348 87.604L54.8675 86.2351L53.2705 85.2085L51.5595 83.8397L49.7344 82.4709L48.4796 81.3302L47.5671 80.5317L46.1983 79.277L45.9701 79.1629V78.9348H45.742L44.9435 78.0222L43.8028 76.7675L42.5481 75.1705L41.5215 73.8017L40.4948 72.2047L39.3542 70.0374L38.2135 67.0716L37.415 64.2199L36.5025 60.5697L35.704 56.4633L35.0196 51.3302L34.6774 46.9956L34.4492 43.0032V41.6344L34.5633 41.4062Z" fill="#FCFCFC"/>
<path d="M59.7733 46.6543L60.2296 46.7684L61.0281 47.6809L61.5984 48.9357L61.8266 49.8482V50.6467L61.4844 51.9014L61.1422 52.4718V52.814L63.5376 53.4984L64.222 53.9547L64.4501 54.411L63.7657 55.5516L66.0471 54.7532L67.8722 54.2969L68.6707 54.1828H70.952L71.1802 54.9813L73.0053 55.0954L73.1193 55.2094L73.2334 56.0079V74.2589L73.0053 74.9433L72.6631 75.0573L68.3285 75.2855L65.819 75.7417L63.6517 76.3121L61.1422 77.2246L59.8874 77.795L58.1764 76.9965L56.1231 76.198L53.6136 75.6277L51.2182 75.2855L47.3399 75.0573L46.8836 74.9433L46.7695 74.1448V55.2094L46.8836 55.0954L48.8228 54.9813L49.0509 54.1828L49.7353 54.0687L52.0167 54.2969L53.9558 54.7532L55.6669 55.4376L56.1231 55.5516L55.5528 54.525L55.6669 53.9547L56.5794 53.3843L58.6326 52.814H58.8608L58.2904 51.5592L58.1764 51.103V49.2779L58.6326 48.1372L59.3171 47.1106L59.7733 46.6543Z" fill="#EE4F21"/>
<path d="M93.6498 98.2129L94.3343 98.7832L95.1327 99.6958L96.3875 101.065L97.4141 102.319L98.2126 103.346L98.0985 103.802L97.0719 104.715L95.8171 105.741L94.5624 106.654L92.5092 108.137L89.9997 109.734L88.1746 110.874L85.7791 112.129L82.8133 113.384L80.0757 114.525L76.3114 115.779L72.8894 116.692L70.2658 117.262L66.2734 117.833L63.6498 118.061L61.4825 118.175H58.1746L53.6118 117.833L50.0757 117.376L45.9692 116.464L43.5738 115.779L39.4673 114.411L37.5282 113.612L33.878 112.015L31.2544 110.646L29.0871 109.278L27.3761 108.137L25.0947 106.54L23.0415 104.943L22.0149 104.03L21.5586 103.574L22.243 102.662L23.3837 101.407L24.2962 100.266L26.0073 98.441L26.4635 98.327L27.4902 99.2395L29.6575 100.836L31.1403 101.977L32.8514 103.118L34.5624 104.144L36.6156 105.285L39.8095 106.768L43.0035 108.023L45.8552 108.935L48.821 109.734L51.1023 110.19L53.1556 110.532L57.0339 110.874H62.7373L67.3 110.418L70.494 109.848L73.8019 109.049L78.4787 107.452L81.9008 105.97L84.0681 104.943L86.9198 103.232L88.2886 102.319L90.4559 100.722L92.5092 99.1254L93.1936 98.5551H93.4217V98.327L93.6498 98.2129Z" fill="#FBFBFB"/>
<path d="M57.4905 0H64.4487L69.924 0.684411L73.2319 1.25475L76.654 2.05323L80.076 3.07985L83.27 4.22053L86.4639 5.58935L88.8593 6.73004L91.3688 8.09886L93.9924 9.69582L95.3612 10.6084L96.9582 11.749L98.4411 12.8897L100.266 14.3726L101.749 15.6274L102.548 16.4259L103.46 17.2243L105.285 19.0494L106.084 19.962L107.338 21.3308L108.365 22.5856L109.962 24.6388L111.559 26.9202L113.156 29.4297L114.639 32.0532L115.894 34.4487L117.376 37.8707L118.403 40.6084L119.316 43.4601L120.114 46.4259L121.027 50.7605L121.369 52.5856V68.4411L120.798 71.2928L119.886 75.3992L118.859 79.0494L117.605 82.4715L116.236 85.6654L115.095 88.0608L113.612 90.6844L112.243 92.9658L110.989 94.7909L109.848 96.3878L108.707 97.8707L107.452 99.3536L106.426 100.608L104.715 102.319L104.373 102.776H104.144L103.916 103.232H103.688L103.574 103.574L102.662 104.373L101.521 105.513L100.266 106.54L98.327 108.137L96.2738 109.62L93.5361 111.445L91.0266 112.928L88.289 114.411L85.0951 115.894L81.9011 117.148L78.8213 118.175L74.6008 119.316L72.0913 119.886L71.8631 120H49.8479L47.7947 119.43L43.6882 118.403L39.5817 117.034L36.73 115.894L33.9924 114.639L30.6844 112.928L27.7186 111.103L26.3498 110.19L24.4106 108.821L22.8137 107.567L20.8745 105.97L19.3916 104.601L15.1711 100.38L14.1445 99.1255L12.8897 97.6426L11.2928 95.4753L9.01141 92.0532L7.75665 89.8859L6.61597 87.8327L5.13308 84.7529L3.76426 81.3308L2.39544 77.2243L1.48289 73.6882L0.798479 70.038L0.342205 66.8441L0 63.7643V56.9202L0.684411 51.5589L1.14068 48.8213L1.93916 45.3992L2.96578 41.8631L3.87833 39.2395L5.24715 35.9316L6.61597 33.0798L8.21293 30.1141L9.23954 28.5171L9.35361 28.8593L8.44106 30.3422L7.41445 32.2814L6.5019 34.1065L5.24715 36.8441L4.56274 38.4411L3.87833 40.3802L3.07985 42.7757L2.1673 46.1977L1.48289 49.3916L1.02662 52.8137V66.2738L1.25475 69.0114L1.8251 72.2053L2.85171 76.3118L3.87833 79.3916L5.13308 82.5855L6.38783 85.4373L8.6692 89.8859L9.69582 91.597L11.1787 93.7643L13.5741 96.9582L15.1711 98.8973L16.1977 100.152L20.4183 104.373L22.9278 106.426L24.4106 107.567L26.4639 109.049L28.0608 110.076L30.2281 111.445L32.7376 112.814L36.5019 114.525L39.8099 115.894L43.346 117.034L46.3118 117.833L49.5057 118.517L52.4715 118.973L56.1217 119.316L60.3422 119.43L63.8783 119.316L67.4145 118.973L71.5209 118.289L74.6008 117.605L78.0228 116.578L81.2167 115.437L84.6388 113.954L87.6046 112.586L89.6578 111.445L92.3954 109.734L94.6768 108.137L96.5019 106.768L98.4411 105.171L99.6958 104.144L100.38 103.574L100.837 103.004L101.749 102.205L103.346 100.608L104.144 99.6958L105.741 97.7567L106.996 96.1597L108.593 93.9924L110.076 91.8251L111.673 89.0875L113.84 84.7529L115.209 81.5589L116.464 78.1369L117.605 74.1445L118.175 71.635L118.631 68.7833L118.859 66.73L118.973 64.2205V56.4639L118.859 53.1559L118.517 50.4183L117.947 47.2243L116.692 42.5475L115.779 39.924L114.639 37.0722L113.612 34.7909L111.331 30.2281L109.734 27.6046L108.821 26.3498L107.681 24.7529L106.198 22.8137L104.715 20.9886L103.688 19.7338L99.8099 15.8555L97.3004 13.8023L95.5894 12.4335L93.9924 11.2928L91.3688 9.58175L89.3156 8.327L86.692 6.95817L83.27 5.36122L80.1901 4.10646L76.0836 2.73764L72.2053 1.71103L68.2129 1.02662L65.1331 0.684411L63.0798 0.570342H56.5779L54.2966 0.684411L50.076 1.25475L46.654 1.93916L43.8023 2.73764L40.8365 3.65019L38.4411 4.56274L35.019 6.04563L32.3954 7.30038L32.1673 7.18631L34.3346 6.04563L37.6426 4.56274L41.635 3.07985L45.1711 2.05323L48.0228 1.36882L51.7871 0.684411L55.2091 0.228137L57.4905 0Z" fill="#FAFAFA"/>
<path d="M69.8083 54.6387L70.3787 54.7527V72.6615L70.2646 72.7756L67.641 73.1178L65.7018 73.574L63.9908 74.2584L61.8235 75.3991L60.6828 76.1976L60.2266 76.3117V69.9238L60.4547 69.4676L60.6828 68.3269L61.5954 66.5018L62.2798 65.3611L62.7361 64.6767L61.8235 61.9391L61.4813 60.228L61.3672 57.6045L61.8235 57.1482L64.6752 55.8934L66.8425 55.209L69.8083 54.6387Z" fill="#FCFCFC"/>
<path d="M49.5039 54.752H50.7587L53.04 55.2082L54.8651 55.7786L57.1465 56.6911L58.4012 57.3755L58.5153 57.4896V59.4288L58.2872 61.1398L57.7168 63.3071L57.2606 64.3337L57.3746 64.79L58.6294 66.8432L59.3138 68.3261L59.5419 69.6949L59.656 69.809L59.7701 71.4059L59.8841 76.3109L59.656 76.425L57.8309 75.2843L55.7777 74.1436L53.9526 73.4592L51.6712 73.0029L49.618 72.7748L49.5039 54.752Z" fill="#FCFCFC"/>
<path d="M33.6484 40.3809L34.7891 40.4949L38.8956 41.4075L42.7739 42.0919L45.8538 42.5482L51.215 43.1185L53.9526 43.3466L56.8043 43.4607H62.5078L66.7283 43.2326L72.6598 42.6622L78.2492 41.8637L82.5838 41.0653L85.8918 40.3809L86.3481 40.4949V44.1451L86.1199 48.3657L85.6636 53.0425L85.0933 56.8067L84.2948 60.9132L83.2682 64.9056L81.8994 69.012L80.8728 71.4075L79.8462 73.2326L78.8195 74.7155L77.6789 76.1983L76.6522 77.4531L75.6256 78.5938L74.8271 79.5063L74.0287 80.3048L73.1161 81.1033L71.5192 82.4721L70.1503 83.6128L67.1846 85.8942L65.2454 87.1489L62.7359 88.7459L60.3405 90.1147H59.656L57.2606 88.7459L55.6636 87.7193L53.8386 86.5786L52.0135 85.3238L50.3024 83.955L49.2758 83.1565L47.7929 81.9018L46.8804 81.1033L45.5116 79.8485L44.4849 78.8219L43.6865 77.9094L42.5458 76.5406L41.177 74.7155L39.9222 72.7763L39.0097 71.1793L37.7549 67.9854L36.7283 64.6774L35.8157 61.0272L35.2454 58.4037L34.561 54.2972L34.1047 50.4189L33.6484 43.917V40.3809ZM34.561 41.4075L34.4469 41.6356V43.0044L34.7891 48.8219L35.1313 52.244L35.8157 57.0349L36.5001 60.571L37.7549 65.59L38.6674 68.3276L39.6941 70.7231L40.6066 72.4341L42.0895 74.6014L43.5724 76.4265L44.599 77.5672L45.3975 78.4797L45.7397 78.936H45.9678V79.1641L46.8804 79.9626L48.2492 81.2174L49.504 82.244L50.8728 83.3847L52.2416 84.4113L53.7245 85.552L56.0059 86.9208L58.1732 88.2896L59.8842 89.3162L61.4811 88.5177L63.3062 87.3771L65.4735 86.0082L67.2986 84.7535L69.1237 83.2706L70.7207 82.0158L71.8614 80.9892L73.1161 79.9626L74.1427 79.0501L74.9412 78.1375L76.31 76.6546L77.5648 75.0577L78.8195 73.3466L79.8462 71.6356L80.9868 69.2402L82.0135 66.3885L83.3823 61.1413L83.9526 58.4037L84.637 54.2972L85.2074 48.936L85.4355 44.9436V41.4075L84.1808 41.6356L79.504 42.5482L75.8538 43.1185L72.4317 43.5748L67.983 44.031L64.4469 44.2592H55.4355L49.618 43.8029L44.9412 43.2326L40.3785 42.5482L37.5268 41.9778L34.561 41.4075Z" fill="#ED4F21"/>
<path d="M49.6212 54.0684L52.0167 54.2965L53.9558 54.7528L54.298 54.9809L54.0699 55.209L54.184 55.5512L50.7619 54.8668L49.5072 54.7528L49.6212 57.1482V72.7756L51.6745 72.8897L53.9558 73.3459L55.7809 74.0303L58.2904 75.3992L59.6593 76.3117H59.7733L59.8874 75.7414L60.1155 75.8554V76.3117L61.2562 75.7414L62.3969 74.9429L65.0205 73.6881L67.0737 73.1178L68.3285 72.8897H70.4958L70.7239 73.1178L70.0395 73.3459L67.7581 73.6881L65.7049 74.2585L63.3095 75.2851L62.1688 75.8554L62.3969 75.9695L64.4501 75.2851L66.3893 74.8288L69.4692 74.6007H70.952V74.8288L71.8646 74.7147L71.9787 74.4866H72.6631L72.7771 74.1444V74.3725H73.0053V74.9429L72.6631 75.057L68.3285 75.2851L65.819 75.7414L63.6517 76.3117L61.1422 77.2243L59.8874 77.7946L58.1764 76.9961L56.1231 76.1976L53.6136 75.6273L51.2182 75.2851L47.3399 75.057L46.8836 74.9429L46.7695 74.1444V55.209L46.8836 55.095L48.8228 54.9809L49.0509 54.1824L49.6212 54.0684Z" fill="#F88535"/>
<path d="M47.5672 55.666H48.8219L48.936 56.8067V73.0044L49.0501 73.3466L50.9892 73.4607L53.0425 73.8029L54.9816 74.3732L56.8067 75.1717L58.1756 75.9702V76.1983L57.3771 76.0843L55.2098 75.2858L52.244 74.7154L47.5672 74.3732L47.4531 74.2592V55.7801L47.5672 55.666Z" fill="#D1D2D2"/>
<path d="M71.177 55.666H72.4318L72.5459 60.4569V74.2592L72.4318 74.3732L68.8957 74.6014L65.8158 75.0577L63.3063 75.7421L62.1656 76.0843L61.9375 75.8561L64.7892 74.4873L66.8424 73.8029L69.1238 73.3466L71.177 73.1185L71.063 55.7801L71.177 55.666Z" fill="#D0D1D1"/>
<path d="M63.7625 12.3203L66.272 12.5484L67.1846 12.8907L67.6409 13.461L67.7549 14.2595L67.0705 15.6283L67.869 16.769L67.9831 17.7956L67.5268 18.7081L66.9565 19.1644L65.9298 19.3926L64.3329 19.1644L63.1922 19.0504L63.0781 18.7081L63.5344 18.48L63.7625 17.5675L64.3329 13.461V12.7766L63.7625 12.4344V12.3203Z" fill="#2A2A2C"/>
<path d="M56.122 12.6621H57.1486L58.0611 13.1184L58.7455 13.9169L59.2018 15.0575V17.1108L58.7455 18.0233L58.0611 18.4796L57.7189 18.5937H56.3501L55.5516 18.1374L54.8672 17.2248L54.4109 16.0842L54.2969 14.9435L54.525 13.9169L54.9813 13.2325L55.6657 12.7762L56.122 12.6621Z" fill="#FAFAFA"/>
<path d="M68.3266 72.8906H70.4939L70.7221 73.1188L70.0377 73.3469L67.7563 73.6891L65.7031 74.2594L63.3076 75.2861L62.1669 75.8564L62.3951 75.9705L64.4483 75.2861L66.3875 74.8298L69.4673 74.6017H70.9502V74.8298L71.8627 74.7157L71.9768 74.4876H72.6612L72.7753 74.1454V74.3735H73.0034V74.9439L72.6612 75.0579L68.3266 75.2861L65.8171 75.7423L63.6498 76.3127L61.1403 77.2252L59.8856 77.7956L58.1745 76.9971L56.1213 76.1986L53.6118 75.6283V75.4001L54.2962 75.2861V75.172H55.2088L57.7183 76.0845L58.1745 76.1986V75.9705L57.6042 75.7423L55.7791 74.8298L54.2962 74.2594V74.0313L53.7259 73.9172L52.1289 73.575V73.461L52.6992 73.3469V73.2328H53.4977L55.551 73.9172L57.4901 74.9439L59.3152 76.0845L59.7715 76.3127L59.8856 75.7423L60.1137 75.8564V76.3127L61.2544 75.7423L62.3951 74.9439L65.0186 73.6891L67.0719 73.1188L68.3266 72.8906Z" fill="#EE5323"/>
<path d="M100.951 59.6582L101.407 60.0004L102.434 60.1145L104.829 60.2285H107.225L107.453 59.7723H107.681L107.567 62.7381L107.11 63.8787L106.198 64.335L105.171 64.2209L104.259 63.5365L103.917 63.1943H103.688L103.232 63.7647L101.863 64.7913L101.521 65.1335H101.293L101.065 65.7038L100.951 65.932H100.723L100.837 64.7913L101.179 63.9928L102.548 62.9662L103.46 62.3958L103.574 61.5974L103.46 61.3692H101.293L101.179 61.8255L100.837 61.7114L100.951 60.1145V59.6582Z" fill="#2A2A2D"/>
<path d="M49.2782 100.951L50.1907 101.065L52.1299 101.407L53.2706 101.978L53.955 102.776L54.1831 103.461L54.069 104.601L53.3846 105.514L52.9284 105.856L52.1299 106.084L50.0766 105.856L48.5938 105.628L49.05 105.058L49.6204 101.864V101.293L49.2782 100.951Z" fill="#2A2A2D"/>
<path d="M18.5925 55.666H18.8207V56.4645L18.4785 57.263L17.9081 57.9474L16.3112 59.0881L15.969 59.4303V60.1147H18.1363L18.7066 59.8865L18.5925 61.7116L18.2503 61.4835V61.2554H12.5469L11.9766 61.7116L12.0906 58.974L12.4328 57.8333L13.0032 57.377L14.0298 57.263L15.0564 57.7192L15.6268 58.1755L16.083 58.0615L17.1096 57.263L18.2503 56.2364L18.5925 55.666Z" fill="#2A2A2D"/>
<path d="M16.9946 38.6699L17.9072 38.784L20.7589 39.5825L22.4699 40.0387H23.7247L23.1543 41.1794L22.2418 41.0654L19.1619 40.1528L19.6182 41.0654L20.873 42.4342L21.8996 43.6889V44.0311L21.3292 44.1452L17.4509 44.3733L18.0213 44.9437L20.3026 46.3125L20.873 46.4266L20.5308 47.111H20.1886L19.6182 46.6547L16.8806 44.9437L15.3977 43.9171L14.9414 43.5749V43.3467L15.1695 43.2327L18.9338 43.1186L20.5308 43.0045L20.1886 42.4342L19.6182 41.8638L18.7057 40.8372L17.9072 39.9247L16.9946 38.784V38.6699Z" fill="#2A2A2D"/>
<path d="M56.008 12.2051H57.8331L59.0878 12.6614L59.8863 13.5739L60.2285 14.3724L60.3426 14.9427V16.0834L60.0004 17.2241L59.5441 17.9085L58.9737 18.4788L58.0612 18.9351L57.1486 19.1633H56.2361L55.2095 18.9351L54.2969 18.3648L53.7266 17.6804L53.2703 16.7678L53.1562 16.1975V15.0568L53.4985 14.0302L54.2969 13.0036L55.2095 12.4332L56.008 12.2051ZM56.122 12.6614L55.2095 13.0036L54.6391 13.688L54.411 14.1442L54.2969 15.2849L54.5251 16.5397L55.2095 17.7944L56.008 18.4788L56.3502 18.5929H57.719L58.6315 18.1366L59.0878 17.4522L59.2019 17.11V15.0568L58.7456 13.9161L57.9471 13.0036L57.1486 12.6614H56.122Z" fill="#2A2A2C"/>
<path d="M59.0868 60.3418H60.9119L61.3682 62.1669L62.0526 64.1061L61.9385 64.9045L61.0259 66.3874L60.5697 67.5281H60.2275V64.7905L60.5697 64.2201L60.4556 63.6498L60.3415 63.5357H59.5431L59.429 63.6498L59.5431 64.4483L59.6571 64.7905L59.7712 67.5281H59.5431L58.8586 66.1593L57.9461 64.7905L57.832 64.2201L58.5164 62.5091L58.8586 60.684L59.0868 60.3418Z" fill="#F9F9F9"/>
<path d="M97.1847 30.1133L97.2987 30.5696L96.3862 36.273V36.9574L97.641 35.9308L99.5801 34.562L99.6942 33.9916V33.7635H99.9223L100.721 34.9042L100.607 35.2464L100.036 35.1323L98.3254 36.273L96.3862 37.6418L95.4737 38.3262L94.9033 38.5543L94.7892 38.2121L95.1314 36.387L95.9299 32.2806V31.7102L94.6752 32.6228L93.5345 33.4213L92.6219 33.9916V34.676L92.736 35.0182L92.2797 34.7901L92.0516 34.1057H91.8235L91.3672 33.5353V33.3072H91.5953L91.7094 33.5353L92.3938 33.4213L93.8767 32.3946L95.5877 31.254L97.1847 30.1133Z" fill="#2A2A2C"/>
<path d="M41.976 15.7422L42.3182 15.8563L42.7745 17.111L42.3182 16.8829L41.7479 16.5407L40.6072 16.6547L39.2384 17.2251L38.668 17.9095L38.4399 18.5939L38.554 19.8487L39.1243 20.9893L39.6946 21.6737L40.8353 22.2441H42.3182L43.4589 21.7878L43.573 21.4456L42.6604 19.6205L41.976 19.3924L42.0901 19.1642L44.0292 18.3658L43.9152 19.0502L44.5996 20.7612L44.7137 21.4456L43.9152 22.13L42.5464 22.8144L41.1775 23.1566H40.0368L38.8962 22.7004L38.0977 21.9019L37.6414 20.8753L37.5273 20.3049V19.2783L37.8695 18.0236L38.554 17.111L39.6946 16.4266L41.4057 15.8563L41.976 15.7422Z" fill="#2A2A2D"/>
<path d="M49.3907 55.4375H49.5047L49.6188 57.1485V72.7759L51.672 72.89L53.0408 73.1181L52.8127 73.5744L54.2956 74.0307L53.8393 74.1447L52.5846 73.8025L49.0484 73.3462L48.8203 73.004V55.6656L49.1625 55.8938L49.3907 55.4375Z" fill="#F88836"/>
<path d="M70.379 54.752H70.493V55.7786L71.1774 55.6645V73.117L70.1508 73.231L70.493 73.0029L69.2383 72.8888V72.7748L70.2649 72.6607L70.379 54.752Z" fill="#F88836"/>
<path d="M74.2589 14.2578H74.487L74.6011 15.3985L74.8292 20.0753L75.0573 21.3301L75.3996 21.6723L75.2855 21.9004L73.8026 21.3301L73.6885 21.216L73.5745 18.9346L72.2056 18.4783L71.6353 18.3643L70.7227 19.505L70.4946 20.0753L70.8368 20.1894L70.7227 20.4175L69.0117 19.8472V19.619L70.0383 19.2768L70.9509 18.1361L73.4604 15.1704L74.2589 14.2578Z" fill="#2A2A2D"/>
<path d="M29.5455 23.041H29.7737L30.1159 23.7254L31.4847 25.3224L32.5113 26.4631L33.3098 27.3756L33.8801 27.946L33.7661 28.1741H32.055L27.9486 27.946H27.036L28.633 29.7711L29.2033 30.3414L29.8877 30.9117L30.344 31.1399L30.1159 31.5961L29.7737 31.9384H29.5455L29.4315 32.2806L29.3174 31.9384L29.2033 31.368L28.7471 30.9117V30.6836H28.5189L27.7204 29.7711L26.6938 28.6304L25.8953 27.6038L25.2109 27.0334V26.9193H27.7204L30.4581 27.0334H32.1691L31.4847 26.2349L30.9144 25.6646L29.3174 23.9536H28.7471L28.5189 24.0676L28.7471 23.6114L29.5455 23.041Z" fill="#2A2A2C"/>
<path d="M19.7347 49.1641L20.0769 49.2781L19.8488 50.4188L19.5066 50.647L17.4534 50.9892L17.1112 52.8143L17.6815 53.3846L18.3659 53.7268H19.0503L19.1644 53.9549L18.8222 54.9816L17.9096 54.2971L16.769 53.4987L15.0579 52.472L12.8906 50.9892L13.0047 50.647L18.7081 49.5063L19.7347 49.1641Z" fill="#2A2A2C"/>
<path d="M73.005 55.5508L73.2331 56.0071V74.258L73.1191 74.8283L73.005 74.3721L71.9784 74.6002V74.8283H70.9518V74.6002L68.1 74.8283H67.1875V74.7143L68.8985 74.4861L72.4346 74.258V55.6648L72.8909 55.7789L73.005 55.5508Z" fill="#F98937"/>
<path d="M89.3173 22.4707L89.7736 22.6988L90.8002 23.6114L91.1424 23.8395V24.0677L90.5721 23.8395L89.3173 25.2083L88.2907 26.4631L87.4922 27.3756L87.3782 27.7179V28.5163L87.7204 29.2007V29.4289L88.2907 29.657L88.747 29.8852L89.4314 29.7711L90.5721 28.9726L91.3706 28.0601L92.055 27.2616H92.2831L92.5113 26.8053L92.9675 26.349L92.7394 25.5506L93.1957 25.7787L93.6519 26.349L94.1082 26.6912L93.9941 26.9194H93.3097L93.0816 27.3756L91.7128 28.7445L91.4846 29.0867H91.2565L91.1424 29.4289L90.0018 30.2274L89.3173 30.4555L88.4048 30.3414L87.4922 29.7711L86.5797 28.7445L86.3516 28.0601V27.2616L86.9219 26.1209L88.0626 24.8661L88.8611 23.9536L89.3173 23.4973L89.4314 22.927L89.3173 22.4707Z" fill="#2A2A2D"/>
<path d="M20.9883 32.2812L22.129 32.3953L26.8058 33.536L28.1746 33.6501L27.7183 34.3345L27.262 34.7908L26.0073 34.4486L24.8666 34.3345L23.9541 35.5892L24.0681 36.3877L24.7525 37.3003L25.2088 37.6425L24.7525 38.3269L24.4103 38.6691L24.0681 37.6425L22.9274 35.5892L21.6727 33.536L20.9883 32.6235V32.2812Z" fill="#2A2A2D"/>
<path d="M25.4385 83.7266L26.1229 83.8406L26.6933 84.2969L27.6058 85.5517L28.0621 86.4642L28.1762 86.8064V88.5174L27.7199 89.43L26.9214 90.3425L25.7807 90.9129L25.4385 91.0269H24.1838L23.2712 90.6847L22.1305 89.7722L21.3321 88.6315L20.7617 87.6049L20.9899 87.1486L21.9024 86.4642L22.1305 86.5783L21.6743 87.2627L21.7883 88.1752L22.4727 89.3159L23.2712 90.0003L23.6134 90.1144H24.526L25.8948 89.43L26.4651 88.8596L27.0355 87.9471L27.1496 87.6049V86.122L26.4651 84.9813L25.7807 84.411H24.526L24.9823 83.9547L25.4385 83.7266Z" fill="#2A2A2D"/>
<path d="M20.0762 48.3652H20.3043L20.4184 48.8215L19.9621 50.6466L19.3918 50.8747L17.5667 51.2169L17.3386 52.8139L18.137 53.3842H19.3918L19.2777 54.1827L18.9355 56.8063L18.4793 57.7188L16.9964 58.8595L16.1979 59.4299V59.7721L16.426 59.8861H18.023L18.5933 59.4299L18.9355 59.5439L18.8215 61.9394H18.3652L18.137 61.5972L14.6009 61.4831H12.5477L12.2055 61.9394H11.8633V59.4299L12.0914 58.2892L12.4336 57.6048L12.7758 57.2626L13.4602 57.0344L14.4869 57.1485L15.5135 57.8329L16.1979 57.7188L17.4526 56.6922L18.2511 55.7797L18.3652 54.8671V54.5249L18.8215 54.8671L19.0496 53.8405L18.023 53.7265L17.1104 53.042L16.9964 52.5858L17.3386 50.9888L17.9089 50.7607L19.5059 50.5325L19.734 50.4185L19.9621 49.2778L18.137 49.7341L13.004 50.7607L12.7758 50.9888V50.5325L13.9165 50.1903L18.137 49.3919L19.5059 49.0496L20.0762 48.3652ZM18.5933 55.6656L17.9089 56.5782L16.7682 57.6048L16.0838 58.0611L15.6275 58.1751L14.715 57.4907L14.0306 57.2626L13.004 57.3766L12.4336 57.8329L12.0914 58.9736L11.9773 61.7112L12.5477 61.255H18.2511L18.4793 61.7112H18.5933L18.7074 59.8861L18.137 60.1143H15.9697V59.4299L16.426 58.9736L17.5667 58.1751L18.3652 57.4907L18.7074 56.9204L18.8215 56.4641V55.6656H18.5933Z" fill="#D0D1D1"/>
<path d="M43.6883 99.582H44.4868L45.1712 99.9242L45.7416 100.609L45.8556 100.837V102.092L45.5134 103.004L44.9431 103.574L44.715 103.688H43.6883L42.7758 103.118L42.4336 102.434V101.179L42.7758 100.381L43.2321 99.8102L43.6883 99.582Z" fill="#D0D1D1"/>
<path d="M104.486 43.0039L104.714 43.118L105.171 44.829L105.057 45.1712L104.714 45.0571L103.117 46.3119L101.863 47.2244L101.064 47.6807V47.9088L103.46 48.137L105.855 48.2511L106.197 47.9088L106.539 49.1636L106.654 49.6199L106.425 49.5058V49.2777L105.627 49.0495L100.38 48.4792L99.125 48.2511L99.2391 47.7948L100.152 47.1104L101.635 45.9697L102.889 44.9431L104.258 43.8024L104.486 43.3461V43.0039Z" fill="#2A2A2D"/>
<path d="M106.881 52.1289L107.109 52.357L107.451 55.7791V56.1213L106.31 56.2354L106.767 55.665V54.5243L106.653 54.0681L104.371 54.2962L104.714 56.2354L103.915 56.4635H103.687L103.915 56.0072L104.029 55.8932V54.4103L101.291 54.6384V55.551L101.52 56.5776L102.09 57.1479L101.063 57.0338L100.835 56.9198L100.493 53.8399L100.379 53.1555H100.607V53.3837L103.231 53.2696L106.31 52.9274L106.767 52.6992L106.881 52.1289Z" fill="#2A2A2D"/>
<path d="M92.7376 84.752L92.8517 85.0942L92.9657 85.6645L94.2205 86.577L94.7908 86.9193L96.73 87.2615L98.5551 87.3755L99.3536 87.2615L98.6691 88.0599L98.0988 88.8584L97.7566 88.7443V88.5162L96.2737 88.2881L94.6767 87.9459L95.5893 90.2272L95.9315 90.7976L96.2737 91.0257L96.1596 91.3679H95.9315L95.7034 91.9383L95.3612 92.3945H95.133V91.0257L94.3345 88.8584L93.8783 87.9459V87.7177L93.422 87.4896L92.0532 86.3489H91.711L91.4828 86.6911H91.1406L91.3688 86.2348L91.9391 85.6645L92.7376 84.752Z" fill="#2A2A2C"/>
<path d="M50.6477 111.787L51.9024 111.901L52.5868 112.243L53.1572 112.928L53.2713 113.156V114.753L52.815 115.551L52.2446 116.008H50.6477L50.1914 115.78V114.753L50.5336 112.243L50.6477 111.787Z" fill="#F9F9F9"/>
<path d="M13.4609 72.0918L14.3735 72.434L20.9895 73.1184L20.7613 73.5747L17.5674 76.3123L16.1986 77.453L15.9704 77.5671L15.7423 78.4796L15.5142 78.3656L15.172 77.1108L15.0579 76.5405L15.9704 76.0842L17.1111 75.0576L18.9362 73.6888H19.1644V73.4606L16.7689 73.2325H14.1453H13.8031L13.6891 72.3199H13.4609V72.0918Z" fill="#2A2A2D"/>
<path d="M69.9229 100.836H70.3792V101.064H70.151L70.2651 102.091L70.7214 104.714L70.8354 105.056L71.4058 105.285L71.1777 105.513L69.6948 105.741V105.399L69.5807 103.46L67.6415 103.802H67.1853L67.4134 105.741L67.8697 105.969L67.0712 106.197L66.2727 106.311L66.3868 105.855V104.942L66.0446 103.574L65.8164 102.205L65.2461 101.977V101.748L67.0712 101.52L66.8431 101.977L67.0712 103.345L69.3526 102.889L69.1244 101.748L68.5541 101.178L68.6681 101.064L69.9229 100.836Z" fill="#2A2A2D"/>
<path d="M96.5032 78.5938H96.6172L96.7313 79.3922L98.5564 80.4188L101.522 82.0158H101.75L102.435 80.647L102.321 79.6204L102.777 79.8485V80.0766L103.233 80.1907L103.005 80.7611L100.724 85.2097L100.382 85.4379L99.583 85.0957V84.8675L100.382 84.5253L101.066 83.3846L101.18 83.0424L100.496 82.8143L97.0735 80.9892L96.3891 80.5329L95.8188 80.647L95.4766 80.8751L95.5906 80.4188L96.5032 78.5938Z" fill="#2A2A2D"/>
<path d="M100.496 67.3008H101.751L101.979 67.4148V67.7571H101.066L100.61 68.2133L100.496 68.4415V69.4681L100.724 70.0384L101.637 70.1525L102.435 69.6962L103.69 68.7837L104.26 68.4415H105.629L106.314 68.8977L106.656 69.6962V70.7228L106.2 71.8635H105.401L104.945 71.7495V71.5213L105.743 71.2932L106.085 70.8369V69.8103L105.743 69.4681L105.287 69.354L104.489 69.6962L103.348 70.7228L102.321 71.1791H101.409L100.496 70.7228L99.9258 69.8103V68.4415L100.496 67.3008Z" fill="#2A2A2D"/>
<path d="M50.8727 101.635L52.0134 101.863L52.6978 102.319L53.1541 103.118V104.372L52.8119 105.285L52.1275 105.741H51.1008L50.1883 105.513L50.0742 104.715L50.6446 101.863L50.8727 101.635Z" fill="#D0D1D1"/>
<path d="M79.6205 16.5391L80.3049 16.6531L81.3315 17.2235L81.9018 17.5657L81.5596 17.6797L81.1033 17.7938L79.6205 20.8737L79.0501 22.1284L78.936 22.8128L79.8486 23.3832L80.6471 23.6113L81.1033 23.2691H81.3315L81.2174 23.7254L80.6471 24.2957L79.9627 24.0676L78.1376 23.155L76.8828 22.5847V22.3566L77.5672 22.2425L77.7954 21.6721L79.0501 19.2767L79.9627 17.2235V16.7672L79.6205 16.6531V16.5391Z" fill="#2A2A2D"/>
<path d="M48.0236 13.6875H48.2517V13.9156L47.6814 14.0297L48.9361 18.8206L49.2783 19.505H50.0768L51.2175 19.1628L51.4456 18.3643H51.6737V19.6191L49.8487 20.1894L47.7954 20.6457V19.505L46.9969 16.3111L46.5407 14.6V14.3719L45.7422 14.2578V14.1438L47.6814 13.8016L48.0236 13.6875Z" fill="#2A2A2C"/>
<path d="M43.2313 99.2402H44.7142L45.5127 99.5824L46.4253 100.381L46.7675 101.065L46.8815 102.092L46.3112 103.233L45.7409 103.803L44.9424 104.145H43.8017L42.8891 103.803L41.8625 102.89L41.4062 101.75L41.6344 100.609L42.0907 99.9246L42.661 99.4684L43.2313 99.2402ZM43.6876 99.5824L43.0032 100.039L42.5469 100.723L42.4329 101.179V102.434L43.0032 103.347L43.6876 103.689H44.7142L45.2846 103.347L45.7409 102.548L45.8549 102.092V100.837L45.3986 100.153L44.8283 99.6965L44.4861 99.5824H43.6876Z" fill="#2A2A2D"/>
<path d="M59.7727 47.4531H60.229L61.0275 49.0501L61.1415 49.3923V50.9892L60.4571 52.7003L59.6586 52.8143L59.0883 51.9018L58.7461 50.533V49.6204L59.2024 48.3657L59.7727 47.4531Z" fill="#D0D1D1"/>
<path d="M74.0321 99.4668L74.4883 99.6949L75.515 100.836L76.4275 101.748L77.5682 102.661L78.1385 102.889L78.0245 103.117L76.9978 103.573L76.5416 103.345L75.7431 102.433L75.1728 102.547L74.4883 102.775V104.03L74.6024 104.486L73.6899 104.828H73.3477L73.4617 104.486L73.6899 104.372L73.918 100.607L74.0321 99.4668Z" fill="#2A2A2D"/>
<path d="M98.668 73.2324H98.8961V73.5746L99.4665 73.8028L103.801 75.2857L104.828 75.5138L105.056 75.1716L105.284 75.2857L104.714 76.5404L104.485 77.3389H104.257L104.029 76.6545L99.4665 75.0575L98.4399 74.8294L98.2117 75.3997L98.0977 75.0575L98.668 73.2324Z" fill="#2A2A2D"/>
<path d="M102.662 38.8965L102.89 39.1246L103.461 40.2653L103.346 40.6075L103.118 40.3794L102.548 40.4934L97.8712 42.6607L97.5289 43.0029L97.7571 43.6874H97.4149L96.8445 42.3185L96.7305 41.7482L98.2134 41.1779L100.267 40.2653L102.206 39.4668L102.662 38.8965Z" fill="#2A2A2C"/>
<path d="M82.3563 107.225L83.0407 107.567L83.7251 108.365L84.2954 109.62L84.4095 110.647L84.0673 111.217L83.3829 111.331L82.5844 110.647L82.0141 109.506L81.6719 108.137L81.9 107.567L82.3563 107.225Z" fill="#F8F8F8"/>
<path d="M73.2305 110.646L73.9149 110.875L74.5993 111.901L74.8275 112.7V114.297L74.2571 114.867L73.5727 114.525L73.0024 113.612L72.6602 112.472V111.217L73.2305 110.646Z" fill="#F8F8F8"/>
<path d="M49.961 111.445L51.7861 111.559L53.0408 112.016L53.8393 112.928L53.9534 113.384V114.297L53.4971 115.438L52.8127 116.122L52.4705 116.236H50.6454L49.5047 116.008L49.3906 115.666L49.7328 113.841L49.961 112.358V111.445ZM50.6454 111.788L50.3032 113.841L50.1891 114.753V115.78L50.6454 116.008H52.2423L52.9267 115.438L53.269 114.753V113.156L52.8127 112.472L52.4705 112.13L51.3298 111.788H50.6454Z" fill="#2C2A2C"/>
<path d="M61.8259 101.977L62.9665 102.091L63.1947 102.889L62.7384 102.775L62.1681 102.433L61.5977 102.547L61.2555 103.117V103.345L61.7118 103.574L62.8525 104.372L63.3087 104.942L63.4228 105.627L62.9665 106.311L62.6243 106.653L61.7118 106.882L60.9133 106.767L60.457 106.197V105.627L60.9133 105.855L61.4836 106.311L62.2821 106.197L62.5103 105.855V105.285L62.054 105.056L61.1414 104.372L60.5711 103.688V102.889L61.1414 102.205L61.8259 101.977Z" fill="#2A2A2D"/>
<path d="M65.2485 15.7422L66.0469 15.8563L66.6173 16.1985L66.9595 16.8829V18.2517L66.2751 18.9361H65.3625L64.9062 18.5939V17.2251L65.1344 15.8563L65.2485 15.7422Z" fill="#F6F7F7"/>
<path d="M9.23945 28.5176L9.35352 28.8598L8.44098 30.3427L7.41436 32.2818L6.50181 34.1069L5.24706 36.8446L4.56265 38.4415L3.87824 40.3807L3.07976 42.7761L2.16721 46.1982L1.93907 47.1107L1.71094 46.7685L1.82501 45.7419L2.96569 41.8636L3.87824 39.24L5.24706 35.932L6.61588 33.0803L8.21284 30.1145L9.23945 28.5176Z" fill="#F3F3F3"/>
<path d="M104.145 61.3691H106.769L107.111 61.4832L107.225 61.9395L106.883 62.852L106.313 63.1942L105.856 63.3083H105.058L104.259 62.9661L104.031 61.8254L104.145 61.3691Z" fill="#F2F2F2"/>
<path d="M47.1109 73.4609H47.3391L47.4532 74.3735H49.1642L52.244 74.6016L54.7535 75.0579L54.5254 75.4001L52.9284 75.5142L51.2174 75.286L47.3391 75.0579L46.8828 74.9438L46.9969 73.575L47.1109 73.4609Z" fill="#F88836"/>
<path d="M82.1305 106.996H83.0431L83.9556 107.795L84.4119 108.479L84.7541 109.506V110.874L84.2978 111.445L83.9556 111.673H83.1571L82.4727 111.217L81.7883 110.19L81.332 108.821V108.023L81.6742 107.338L82.1305 106.996ZM82.3586 107.224L81.7883 107.681L81.6742 108.251L82.2446 110.076L82.929 110.988L83.3853 111.331L84.0697 111.217L84.4119 110.646L84.2978 109.62L83.4993 108.023L82.7009 107.338L82.3586 107.224Z" fill="#352B2C"/>
<path d="M13.6883 58.2891H14.715L15.3994 58.7453L15.6275 58.9735V59.886L15.5134 60.1142H12.6617L12.4336 59.772L12.5477 59.2016L12.8899 58.6313L13.6883 58.2891Z" fill="#FCFCFC"/>
<path d="M73.1196 110.418H74.0321L74.6025 110.874L75.1728 112.129L75.2869 112.585V114.068L74.9447 114.753L74.1462 115.209L73.4618 114.981L72.6633 114.068L72.207 112.813V111.331L72.6633 110.646L73.1196 110.418ZM73.2336 110.646L72.6633 111.216V112.471L73.1196 113.84L73.5759 114.524L74.2603 114.867L74.8306 114.296V112.699L74.3743 111.445L73.804 110.76L73.2336 110.646Z" fill="#312B2C"/>
<path d="M56.5797 102.092H58.2907L58.1767 102.434L57.9485 102.548L57.7204 104.829L57.6063 106.312L58.0626 106.54L58.1767 106.769L56.3516 106.655L56.4656 106.198L56.6938 105.058L56.8078 102.434L56.5797 102.32V102.092Z" fill="#2A2A2D"/>
<path d="M16.8828 38.4414L18.1376 38.5555L20.0767 39.1258L21.4455 39.468L22.7003 39.8102L23.4988 39.6962L24.0691 39.354L24.1832 39.8102L23.2706 41.4072L22.8144 41.5213L21.9018 41.179L19.8486 40.6087L19.6205 40.7228L20.3049 41.5213L20.1908 41.7494L19.2782 40.7228L19.1642 40.1524L19.9627 40.2665L22.5862 41.065L23.1566 41.179L23.3847 40.6087L23.4988 40.1524H22.4722L18.5938 39.1258L17.4532 38.7836H17.1109L18.1376 40.0384L19.1642 41.179L19.0501 41.4072L17.4532 39.6962L16.8828 38.8977V38.4414Z" fill="#D0D1D1"/>
<path d="M35.7017 106.197L36.1579 106.425L37.6408 107.224L37.5268 107.566L36.9564 107.338L36.272 106.882H36.0439L35.4735 108.593L36.3861 108.821L36.7283 109.163L36.3861 109.391L35.5876 108.821L35.1313 108.935L34.561 110.076L34.6751 110.646L35.7017 110.988L35.9298 111.102L35.8157 111.444L35.1313 111.33L33.6484 110.532L33.8766 109.962L34.7891 108.365L35.4735 106.768L35.7017 106.197Z" fill="#2F2A2C"/>
<path d="M77.4508 108.936H78.7056L79.2759 109.506L79.5041 110.647L79.0478 112.129L78.4774 113.156L79.7322 112.7L80.4166 112.244H80.6447L80.5307 112.814L80.0744 113.156L78.2493 113.84L77.9071 113.726L78.1352 113.042L78.7056 111.901L78.8196 111.445V109.962L78.3634 109.392L77.793 109.278L77.1086 109.62L76.8805 110.19L76.6523 110.076V109.506L77.4508 108.936Z" fill="#2F2A2C"/>
<path d="M68.2141 111.445H69.1267L69.697 111.902L69.9251 112.472V113.27L69.4689 114.297L68.4423 115.78L69.697 115.552L70.3814 115.21H70.6096L70.4955 115.78L69.5829 116.122L67.986 116.35L67.7578 116.236L67.8719 115.78L68.7845 114.525L69.2407 113.613L69.3548 112.814L69.0126 112.016L68.8985 111.902H68.1L67.5297 112.358L67.1875 112.244L67.5297 111.673L68.2141 111.445Z" fill="#2B2A2C"/>
<path d="M20.3041 41.75L20.9885 42.3203L22.1292 43.8032L22.0151 44.2595L18.7071 44.4876L18.3649 44.6017L18.2508 44.8298L18.7071 45.058L20.3041 45.9705H21.3307L21.2166 46.5409L20.5322 47.6816H20.19L19.8478 46.9971L17.7946 45.7424L16.9961 45.1721L17.2242 45.058L19.6197 46.5409L20.4181 47.1112L20.7604 46.5409L19.9619 46.1987L18.8212 45.5143L17.5664 44.7158L17.3383 44.3736L17.4524 44.2595L21.901 44.0314L21.4448 43.2329L20.3041 41.9781V41.75Z" fill="#D0D1D1"/>
<path d="M40.154 108.594H41.1806L41.9791 109.05V109.62H41.6369L41.4088 109.164L40.9525 108.936H40.3821L40.154 109.278L40.3821 110.305L40.9525 111.56V112.244L40.3821 112.928L39.8118 113.156L39.0133 113.042L38.443 112.7L38.2148 112.13L38.557 112.016L38.8993 112.472V112.7L39.5837 112.814L40.154 112.472L40.3821 111.902L39.5837 110.191V109.278L39.9259 108.708L40.154 108.594Z" fill="#2E2A2C"/>
<path d="M43.8008 109.963L45.0555 110.077L46.6525 110.533L47.6791 110.875V111.218L47.1088 111.104L45.854 110.761L45.2837 113.727L45.1696 114.868L44.9415 114.982L44.3711 114.754L44.4852 114.183L45.0555 112.13L45.2837 111.104V110.533L43.9148 110.305L43.8008 109.963Z" fill="#2E2A2C"/>
<path d="M32.5112 26.4648L33.3097 27.1493L33.88 27.6055L33.9941 28.1759L33.88 28.2899H27.4922L29.6595 30.4572L30.3439 30.6854H31.0283L30.9143 31.1416L30.0017 31.9401L29.6595 32.0542V32.2823L29.4314 32.1683L30.0017 31.5979L30.3439 31.1416L29.6595 30.9135L28.861 30.001L27.0359 28.1759L26.9219 27.8337L29.8877 27.9477L32.055 28.0618H33.766L33.6519 27.7196L32.7394 26.9211L32.5112 26.4648Z" fill="#D0D1D1"/>
<path d="M59.543 69.6953L60.2274 69.9234L60.3414 75.2847L60.2274 76.3113L59.9992 75.855L59.7711 76.1972L59.657 71.4063L59.543 69.6953Z" fill="#F98937"/>
<path d="M65.8164 12.8906L66.5008 13.2328L66.9571 13.8032V14.4876L66.5008 15.2861L66.2727 15.4001H65.5883L65.2461 15.172L65.4742 13.2328L65.8164 12.8906Z" fill="#F3F3F3"/>
<path d="M20.8756 14.9434L20.9896 15.1715L20.0771 15.97L19.2786 16.6544L18.5942 17.4529L17.9098 18.0232L17.2254 18.8217L16.541 19.392L16.3128 19.7342H16.0847L15.8566 20.1905L14.7159 21.4453L12.8908 23.7266L12.7767 23.9548H12.5486L12.3204 24.5251L11.8642 25.0955L10.4953 27.0346L10.0391 27.4909L10.2672 26.9205L11.522 25.0955L13.0048 23.1563L14.6018 21.2171L15.6284 20.0764L16.8832 18.7076L19.5067 16.084L20.4193 15.2856L20.8756 14.9434Z" fill="#E7E8E8"/>
<path d="M20.7617 32.0527H21.9024L23.6134 32.509L27.1496 33.3075L28.7465 33.1934L28.4043 33.7638L27.948 34.106L28.0621 33.7638L26.237 33.5356L21.6743 32.3949L20.9899 32.2809L21.4461 33.0794L22.3587 34.4482L22.2446 34.6763L21.4461 33.5356L20.7617 32.509V32.0527Z" fill="#CFD0D0"/>
<path d="M49.618 54.0684L52.0134 54.2965L53.9526 54.7528L54.2948 54.9809L54.0667 55.209L54.1807 55.5512L50.7587 54.8668L51.1009 54.6387L50.5306 54.4106H49.0477V54.9809H48.9336V54.2965L49.618 54.0684Z" fill="#F98937"/>
<path d="M49.2775 54.2969H50.6463L51.3307 54.6391V54.7531H49.5056L49.3915 55.7798L49.0493 56.0079L48.8212 55.6657H47.4524L47.1102 55.7798L46.9961 55.4376L47.1102 55.2094L49.0493 54.9813V54.4109L49.2775 54.2969Z" fill="#EC481F"/>
<path d="M73.4587 15.8555H73.5727L73.6868 16.9962V18.2509H72.8883L72.0898 17.9087L72.2039 17.4524L72.8883 16.6539L73.4587 15.8555Z" fill="#F6F6F6"/>
<path d="M19.2776 41.5215L19.962 42.0918V42.32L20.3042 42.434L20.5323 43.0044L20.1901 43.1184L18.9354 43.2325L14.943 43.3466L15.3993 43.8029L16.5399 44.6013L16.9962 45.0576L16.3118 44.8295L15.2852 44.031L14.7148 43.5747L14.8289 43.1184L15.5133 43.0044L19.962 42.7762L20.0761 42.434L19.7339 42.32L19.2776 41.7496V41.5215Z" fill="#D0D1D1"/>
<path d="M59.3141 57.6055H60.5688L60.797 57.7195L60.911 58.7462L60.797 58.8602H59.2L59.0859 58.7462V57.8336L59.3141 57.6055Z" fill="#F7F7F7"/>
<path d="M16.5392 50.9883L16.8814 51.1023L16.7673 52.4712L16.4251 52.5852L15.2844 52.0149L14.8281 51.4446L15.0563 51.2164L16.5392 50.9883Z" fill="#D0D1D1"/>
<path d="M31.2534 26.1211L31.7097 26.3492L32.2801 27.0336V27.1477H30.455L27.7173 27.0336H25.3219L26.0063 27.604L26.6907 28.4025L26.5766 28.6306L25.0938 27.1477V26.6914H27.2611L29.2002 26.8055H31.7097L31.2534 26.1211Z" fill="#D0D1D1"/>
<path d="M22.4727 33.4219L24.2978 33.8781L24.1837 34.6766L23.6133 35.361L23.043 34.7907L22.4727 33.8781V33.4219Z" fill="#F1F2F2"/>
<path d="M50.1914 74.4863L52.2446 74.6004L54.7541 75.0567L54.526 75.3989L52.929 75.5129L51.218 75.2848V75.1707H52.3587L52.815 75.2848V75.0567L50.3055 74.9426L50.1914 74.4863Z" fill="#F98937"/>
<path d="M13.2313 71.75L14.486 72.2063L17.3377 72.5485L19.8472 72.7766L21.102 73.0048V73.461L20.8738 73.347L20.9879 73.1188H19.9613L14.3719 72.5485L13.5735 72.2063L13.3453 72.3203L13.1172 71.8641L13.2313 71.75Z" fill="#D0D1D1"/>
<path d="M23.9547 35.4746H24.0688L24.2969 36.3872L24.7532 36.9575L25.7798 37.2997L24.411 39.1248H24.1828L24.0688 37.9841L23.7266 37.2997L23.8406 37.0716L24.525 38.4404L24.9813 37.87V37.5278L24.2969 36.9575L23.8406 36.159V35.5887L23.9547 35.4746Z" fill="#D0D1D1"/>
<path d="M9.23922 28.5176L9.35329 28.8598L8.44074 30.3427L7.41412 32.2818L6.50157 34.1069L6.27344 33.7647L7.75633 30.913L9.12515 28.6316L9.23922 28.5176Z" fill="#EDEDED"/>
<path d="M13.6883 58.2891H14.715L15.2853 58.6313L15.0572 58.7453L14.829 58.6313H13.4602L12.8899 58.9735L12.7758 59.772L15.0572 59.886L15.3994 59.772L15.5134 58.9735H15.6275V59.886L15.5134 60.1142H12.6617L12.4336 59.772L12.5477 59.2016L12.8899 58.6313L13.6883 58.2891Z" fill="#D0D1D1"/>
<path d="M80.4197 112.244H80.6478L80.5337 112.814L80.0775 113.157L78.2524 113.841L77.9102 113.727L78.1383 113.157L78.4805 112.929V113.157L79.7353 112.7L80.4197 112.244Z" fill="#2B2A2C"/>
<path d="M20.8729 14.9434L20.987 15.1715L20.0744 15.97L19.2759 16.6544L18.5915 17.4529L17.9071 18.0232L17.2227 18.8217L16.5383 19.392L16.082 19.8483V19.5061L19.5041 16.084L20.4166 15.2856L20.8729 14.9434Z" fill="#F0F1F1"/>
<path d="M60.7992 53.2695L62.054 53.4977L63.1947 53.9539L63.3087 54.1821H61.9399L60.5711 53.7258L60.457 53.3836L60.7992 53.2695Z" fill="#F2F3F3"/>
<path d="M47.1109 73.4609H47.3391L47.4532 74.3735L48.7079 74.7157L49.1642 74.6016V74.8298L49.3923 74.9438H46.8828L46.9969 73.575L47.1109 73.4609Z" fill="#EC461E"/>
<path d="M58.4024 53.3848H59.429L59.315 53.727L58.2884 54.0692L57.718 54.1832H56.6914L56.9195 53.841L58.4024 53.3848Z" fill="#F6F6F6"/>
<path d="M29.6579 22.4707L30.1142 22.5848V23.2692L30.6845 24.1817L30.5704 24.4099L29.886 23.6114L29.772 23.041L29.0875 23.4973L28.7453 23.8395H29.3157L29.5438 24.1817H28.2891L28.4031 23.7255L29.5438 22.6988L29.6579 22.4707Z" fill="#D0D1D1"/>
<path d="M106.197 52.8145L106.653 52.9285L105.513 53.1567L101.634 53.4989H100.836L100.608 53.3848V53.1567H100.38L100.266 53.3848V52.9285L100.722 53.0426V53.2707L105.171 52.9285L106.197 52.8145Z" fill="#D0D1D1"/>
<path d="M59.9985 114.867L61.5954 115.095L61.7095 114.867L62.0517 114.981L61.8236 115.438L61.3673 115.666L60.911 115.552L60.4547 115.323L59.6562 115.552L59.7703 115.095L59.9985 114.867Z" fill="#2C2A2C"/>
<path d="M14.143 73.1172H16.7666L18.9339 73.3453V73.4594L14.3711 73.3453L14.143 73.6875H13.8008L13.9148 73.2313L14.143 73.1172Z" fill="#D0D1D1"/>
<path d="M16.1961 51.2168H16.7665L16.5383 52.2434H16.0821L15.5117 51.9012L15.6258 51.4449L16.1961 51.2168Z" fill="#FDFDFD"/>
<path d="M49.732 74.6016L51.5571 74.7156V74.8297L52.8119 75.0578V75.286L49.5039 75.0578L49.732 74.9438V74.6016Z" fill="#EC451E"/>
<path d="M2.39535 43.916H2.50942V44.8286L1.93907 47.1099L1.71094 46.7677L1.82501 45.7411L2.39535 43.916Z" fill="#F3F3F3"/>
<path d="M102.321 38.3262L102.777 38.4402L103.234 39.5809L103.12 39.9231L102.663 39.0106L102.207 39.5809L100.268 40.3794L99.9258 40.2653L101.979 39.3528L102.321 39.1247V38.3262Z" fill="#D0D1D1"/>
<path d="M101.066 47.5664H101.295V47.7945L104.26 48.0227H105.971L105.857 48.3649L103.462 48.2508L101.066 48.0227V47.5664Z" fill="#D0D1D1"/>
<path d="M3.42115 40.9512L3.53522 41.2934L2.62267 44.3732L2.39453 43.917L2.73674 42.5481L3.19301 41.2934L3.42115 40.9512Z" fill="#EEEEEE"/>
<path d="M74.3711 100.951L74.8274 101.179L75.2836 101.75V102.092L74.4852 102.32L74.3711 102.206V100.951Z" fill="#D0D1D1"/>
<path d="M23.725 80.875L24.2954 80.9891L24.5235 81.3313V81.6735L23.725 81.9016L23.3828 81.5594L23.4969 81.1031L23.725 80.875Z" fill="#2A2A2D"/>
<path d="M63.7626 74.9434L64.1048 75.0574L63.8767 75.2856L64.2189 75.3996L63.0782 75.8559L62.1656 76.084L61.9375 75.8559L63.7626 74.9434Z" fill="#E4E4E4"/>
<path d="M18.8196 67.7559L19.2758 67.8699L19.504 68.4403L19.0477 68.7825L18.5914 68.6684L18.3633 68.2121L18.8196 67.7559Z" fill="#2A2A2D"/>
<path d="M59.2031 59.3164H60.686L60.8001 59.6586L60.5719 59.7727H59.2031V59.3164Z" fill="#D0D1D1"/>
<path d="M4.22114 38.4414H4.33521L4.22114 39.468L3.6508 40.9509H3.42266L3.30859 41.179L3.53673 40.1524L4.22114 38.4414Z" fill="#F5F5F5"/>
<path d="M15.8556 19.8477L16.0837 19.9617L15.2852 20.7602L14.2586 22.015L13.6883 22.8134L13.5742 22.4712L14.6008 21.2165L15.6275 20.0758L15.8556 19.8477Z" fill="#E5E5E5"/>
<path d="M77.4508 108.936H78.1352L78.3634 109.278L77.4508 109.392L77.1086 109.62L76.8805 110.19L76.6523 110.076V109.506L77.4508 108.936Z" fill="#8F3C26"/>
<path d="M56.8078 75.3984L57.4922 75.5125L58.1767 75.9688V76.1969L57.3782 76.0828L56.3516 75.6266L56.8078 75.3984Z" fill="#DBDBDB"/>
<path d="M24.8688 34.2207L26.0094 34.3348L27.2642 34.677L27.7205 34.3348L27.4923 34.791L27.0361 35.0192L26.2376 34.677L25.7813 34.5629H24.9828L24.6406 34.677L24.8688 34.2207Z" fill="#D0D1D1"/>
<path d="M61.5961 75.9688L62.3946 76.0828L62.1665 76.311L61.1399 76.7672L60.6836 76.5391L61.5961 75.9688Z" fill="#F88A3A"/>
<path d="M40.1523 108.594H41.179L41.9774 109.05V109.62H41.6352L41.4071 109.164L40.8368 108.822L40.1523 108.708V108.594Z" fill="#983A25"/>
<path d="M72.6618 74.1445L72.7758 74.3727H73.004V74.943H71.8633L71.9773 74.4867H72.6618V74.1445Z" fill="#EC481F"/>
<path d="M98.8984 73.2324L100.495 74.0309L101.864 74.4872L101.408 74.6012L99.2406 73.8028L98.8984 73.5746V73.2324Z" fill="#D0D1D1"/>
<path d="M22.4727 33.4219L24.2978 33.8781V34.4485L24.0696 34.1063L22.8149 33.8781L22.7008 34.2204L22.4727 33.8781V33.4219Z" fill="#D0D1D1"/>
<path d="M104.372 42.6621L104.828 42.8902L105.17 44.3731L105.056 44.8294L104.6 43.1184L104.486 43.5747L104.258 43.3465L104.372 42.6621Z" fill="#D0D1D1"/>
<path d="M11.522 25.0957L11.636 25.4379L10.4953 27.0349L10.0391 27.4911L10.2672 26.9208L11.522 25.0957Z" fill="#E8E9E9"/>
<path d="M4.90316 36.959H5.1313L4.78909 37.9856L4.44689 38.8981L4.21875 38.4419L4.78909 37.0731L4.90316 36.959Z" fill="#ECECEC"/>
<path d="M52.6992 73.2324H53.4977V73.4606L53.8399 73.5746L53.7259 73.8028L52.1289 73.5746V73.4606L52.6992 73.3465V73.2324Z" fill="#ED4C20"/>
<path d="M36.3867 106.654L37.5274 107.111V107.567L36.9571 107.339L36.3867 106.882V106.654Z" fill="#6C3327"/>
<path d="M73.4602 15.8555H73.5742L73.6883 16.9962V18.2509H73.5742L73.3461 16.5399L73.0039 16.6539L73.232 16.1977L73.4602 15.8555Z" fill="#D2D3D3"/>
<path d="M38.3289 112.016H38.557L38.8993 112.472V112.7L39.3555 112.814V113.042L38.7852 112.928L38.3289 112.472L38.2148 112.13L38.3289 112.016Z" fill="#3C2C2B"/>
<path d="M58.1742 75.9688L59.0868 76.425V76.6532L58.7446 76.7672L57.832 76.311L58.1742 76.1969V75.9688Z" fill="#F98937"/>
<path d="M49.732 74.6016L51.5571 74.7156V74.8297L50.3024 74.9438L50.1883 75.0578H49.5039L49.732 74.9438V74.6016Z" fill="#ED4B20"/>
<path d="M99.4688 33.4219H99.811L99.9251 33.7641H99.6969L99.811 34.4485L99.1266 35.0188L98.8984 34.9048L99.4688 34.4485V33.4219Z" fill="#D0D1D1"/>
<path d="M35.5898 108.594L36.6165 108.936V109.278L36.3883 109.392L35.5898 108.822V108.594Z" fill="#2A2A2D"/>
<path d="M60.1133 65.4746H60.2273V67.5278H60.5696V67.87L60.2273 67.9841L60.1133 67.6419V65.4746Z" fill="#F98937"/>
<path d="M96.2734 41.1777H96.8438V41.5199L97.3001 41.634L96.7297 41.7481L96.6156 41.9762L96.2734 41.4059V41.1777Z" fill="#D0D1D1"/>
<path d="M3.76487 39.8105H3.87894L3.76487 40.609L3.6508 40.9512H3.42266L3.30859 41.1794L3.53673 40.1528L3.76487 39.8105Z" fill="#F2F2F2"/>
<path d="M91.0273 33.0801H91.5977L91.8258 33.5364L92.054 33.6504L91.5977 33.5364V33.3082H91.3695L91.5977 33.7645L91.1414 33.5364L91.0273 33.0801Z" fill="#D0D1D1"/>
<path d="M95.9328 31.5977H96.0469L95.9328 32.8524L95.8188 33.4228H95.7047L95.8188 32.0539L95.4766 31.9399L95.9328 31.5977Z" fill="#D0D1D1"/>
</svg>
