<svg width="243" height="100" viewBox="0 0 243 100" fill="none" xmlns="http://www.w3.org/2000/svg">
<path d="M226.053 1.05273L226.448 1.18431L227.895 4.73695L228.816 7.89484L229.211 9.86852L229.342 10.9212V15.3948L228.948 17.7633L228.158 20.5264L226.974 23.2896L225.79 25.5264L224.737 27.2369L222.106 31.7106L220 35.2633L219.342 36.3159L222.632 35.3948L225.395 34.7369L228.421 34.3422L230.132 34.2106H233.158L236.185 34.4738L239.211 35.0001L241.711 35.658L242.106 35.9212V37.6317L241.579 39.8685L240.527 41.9738L238.948 43.6843L237.106 45.0001L235 46.0527L233.29 46.7106L231.185 47.3685L227.895 48.0264L225 48.5527L223.027 48.8159L219.869 48.9475L217.369 48.8159L213.421 48.2896L211.974 48.0264H210.527L207.106 51.1843L205.132 53.0264L203.553 54.4738L201.711 56.3159L200.264 57.5001L200.132 58.0264L201.711 58.2896L205.264 59.6054L208.553 61.1843L210.658 62.5001L212.237 63.6843L213.553 64.8685L213.816 65.0001V65.2633H214.079L215 66.3159L216.448 68.158L217.764 70.2633L217.632 70.658L213.685 71.9738L210.79 72.6317L207.369 73.0264H204.474L201.448 72.7633L198.948 72.3685L194.474 71.3159L191.579 70.2633L189.606 69.2106L188.158 68.2896L186.579 67.1054L185.132 65.9212L183.027 63.9475L182.369 63.4212H166.974L165.79 63.2896V73.158H178.816V79.8685H157.5V63.2896L153.685 63.4212H152.895L152.237 66.5791L151.316 69.2106L150.264 71.1843L148.948 73.0264L147.5 74.6054L146.316 75.7896L143.816 77.6317L140.79 79.2106L137.632 80.2633L134.869 80.7896L133.421 80.9212H131.579L129.079 80.658L126.711 80.1317L124.343 79.3422L122.237 78.2896L120.264 77.1054L118.421 75.658L116.711 74.0791L115.264 72.2369L113.948 70.1317L112.895 67.7633L112.237 65.2633L111.974 63.2896L111.316 63.4212H108.948L108.29 66.5791L107.369 69.0791L106.316 71.1843L105 73.0264L103.816 74.3422L102.369 75.7896L100 77.5001L97.8951 78.6843L96.4478 79.3422L93.6846 80.2633L90.7899 80.7896L87.8951 80.9212L85.132 80.658L82.3688 80.0001L80.132 79.2106L77.1057 77.6317L75.2636 76.3159L73.9478 75.1317L72.8951 74.2106L71.5794 72.6317L70.2636 70.658L69.3425 68.8159L68.4215 66.0527L68.0267 63.8159V63.2896H40.2636L40.6583 65.3948L41.3162 67.3685L42.3688 69.2106L43.553 70.658L44.7373 71.7106L46.5794 72.7633L47.8951 73.2896L49.3425 73.6843L51.3162 73.9475H54.0794L56.7109 73.5527L58.9478 72.8948L61.1846 71.8422L62.632 70.9212L63.8162 70.0001H64.2109L64.0794 77.8948L63.0267 78.5527L60.5267 79.6054L58.2899 80.2633L55.2636 80.7896L53.6846 80.9212H51.5794L48.6846 80.658L46.1846 80.1317L44.0794 79.4738L41.7109 78.4212L39.6057 77.1054L38.1583 75.9212L36.4478 74.3422L34.8688 72.3685L33.8162 70.658L32.8951 68.6843L32.2373 66.7106L31.8425 64.8685L31.7109 63.6843V59.6054L31.9741 57.3685L32.5004 55.2633L33.553 52.6317L34.7373 50.658L36.053 48.9475L37.8951 47.1054L40.132 45.3948L42.2373 44.2106L43.6846 43.5527L46.053 42.7633L48.553 42.2369L51.3162 41.9738H54.2109L56.9741 42.2369L60.132 42.8948L62.8951 43.8159L64.4741 44.6054V48.2896L64.3425 52.5001L63.6846 52.2369L62.3688 51.1843L60.2636 50.0001L58.6846 49.3422L56.7109 48.8159L54.8688 48.5527H51.8425L48.8162 49.0791L47.1057 49.7369L45.3951 50.658L44.0794 51.7106L42.8951 52.8948L41.7109 54.7369L41.053 56.1843L40.3951 58.6843L40.132 60.0001L68.0267 60.1317L68.1583 58.158L68.8162 55.5264L70.0004 52.7633L71.1846 50.7896L72.3688 49.3422L73.553 48.0264L74.8688 46.8422L77.1057 45.2633L79.2109 44.0791L81.4478 43.158L83.8162 42.5001L85.132 42.2369L86.4478 42.1054H90.5267L93.0267 42.5001L95.0004 43.0264L97.632 44.0791L99.7373 45.2633L101.579 46.5791L103.29 48.0264L104.474 49.2106L106.053 51.3159L107.369 53.8159L108.158 55.9212L108.816 58.9475L108.948 60.1317H111.974L112.237 57.7633L112.764 55.5264L113.948 52.7633L115.264 50.658L116.316 49.3422L117.5 48.0264L118.553 47.1054L120.658 45.5264L122.632 44.3422L125.132 43.2896L127.237 42.6317L129.211 42.2369L130.395 42.1054H134.606L137.106 42.5001L139.737 43.2896L142.369 44.4738L144.737 45.9212L146.185 47.1054L147.5 48.2896L148.421 49.2106L149.737 50.9212L151.053 53.158L152.106 55.9212L152.632 58.158L152.895 60.0001L157.5 60.1317V43.0264L157.632 42.8948H165.658L165.79 43.158V60.1317L186.316 60.0001L187.764 59.0791L190.264 57.5001L191.711 56.7106L195.395 54.8685L198.948 53.5527L198.553 52.6317L197.369 50.1317L196.053 46.4475L195.132 42.8948L194.342 38.8159L194.211 36.0527V34.4738L194.342 31.9738L195 28.5527L195.921 25.7896L197.106 23.8159L198.29 22.6317L199.606 21.8422L200.264 21.7106L201.842 23.158L203.29 25.0001L204.342 26.7106L205.395 28.8159L206.316 31.5791L206.711 33.4212L206.974 36.0527V39.4738L206.448 44.0791L205.658 47.3685L205.395 48.0264L205.527 48.4212H205.79L206.053 47.7633L207.106 46.1843L209.211 43.158L210.658 41.1843L212.106 39.0791L216.053 33.5527L217.106 31.9738L217.5 31.4475V30.7896L216.711 29.6054L215.658 27.3685L215.132 25.658L214.606 23.158L214.474 22.1054V18.8159L215 15.3948L215.921 12.3685L216.974 10.1317L218.29 8.158L219.342 6.84221L219.737 6.31589H220L220.264 5.78958L221.842 4.21063L223.685 2.76326L225.395 1.44747L226.053 1.05273Z" fill="#313334"/>
<path d="M226.051 1.05273L226.446 1.18431L227.893 4.73695L228.814 7.89484L229.209 9.86852L229.341 10.9212V15.3948L228.946 17.7633L228.156 20.5264L226.972 23.2896L225.788 25.5264L224.735 27.2369L222.104 31.7106L219.999 35.2633L219.341 36.3159L222.63 35.3948L225.393 34.7369L228.42 34.3422L230.13 34.2106H233.156L236.183 34.4738L239.209 35.0001L241.709 35.658L242.104 35.9212V37.6317L241.577 39.8685L240.525 41.9738L238.946 43.6843L237.104 45.0001L234.999 46.0527L233.288 46.7106L231.183 47.3685L227.893 48.0264L224.999 48.5527L223.025 48.8159L219.867 48.9475L217.367 48.8159L213.42 48.2896L211.972 48.0264H210.525L207.104 51.1843L205.13 53.0264L203.551 54.4738L201.709 56.3159L200.262 57.5001L200.13 58.0264L201.709 58.2896L205.262 59.6054L208.551 61.1843L210.656 62.5001L212.235 63.6843L213.551 64.8685L213.814 65.0001V65.2633H214.078L214.999 66.3159L216.446 68.158L217.762 70.2633L217.63 70.658L213.683 71.9738L210.788 72.6317L207.367 73.0264H204.472L201.446 72.7633L198.946 72.3685L194.472 71.3159L191.578 70.2633L189.604 69.2106L188.156 68.2896L186.578 67.1054L185.13 65.9212L183.025 63.9475L182.367 63.4212H166.972L165.788 63.2896V73.158H178.814V79.8685H157.499V63.2896L153.683 63.4212L152.762 63.158V60.0001L157.499 60.1317V43.0264L157.63 42.8948H165.656L165.788 43.158V60.1317L186.314 60.0001L187.762 59.0791L190.262 57.5001L191.709 56.7106L195.393 54.8685L198.946 53.5527L198.551 52.6317L197.367 50.1317L196.051 46.4475L195.13 42.8948L194.341 38.8159L194.209 36.0527V34.4738L194.341 31.9738L194.999 28.5527L195.92 25.7896L197.104 23.8159L198.288 22.6317L199.604 21.8422L200.262 21.7106L201.841 23.158L203.288 25.0001L204.341 26.7106L205.393 28.8159L206.314 31.5791L206.709 33.4212L206.972 36.0527V39.4738L206.446 44.0791L205.656 47.3685L205.393 48.0264L205.525 48.4212H205.788L206.051 47.7633L207.104 46.1843L209.209 43.158L210.656 41.1843L212.104 39.0791L216.051 33.5527L217.104 31.9738L217.499 31.4475V30.7896L216.709 29.6054L215.656 27.3685L215.13 25.658L214.604 23.158L214.472 22.1054V18.8159L214.999 15.3948L215.92 12.3685L216.972 10.1317L218.288 8.158L219.341 6.84221L219.735 6.31589H219.999L220.262 5.78958L221.841 4.21063L223.683 2.76326L225.393 1.44747L226.051 1.05273Z" fill="#00A65D"/>
<path d="M130.394 42.1055H134.604L137.104 42.5002L139.736 43.2897L142.367 44.4739L144.736 45.9213L146.183 47.1055L147.499 48.2897L148.42 49.2107L149.736 50.9213L151.052 53.1581L152.104 55.9213L152.631 58.1581L152.894 60.2634V63.4213L152.236 66.5792L151.315 69.2107L150.262 71.1844L148.946 73.0265L147.499 74.6055L146.315 75.7897L143.815 77.6318L140.788 79.2107L137.631 80.2634L134.867 80.7897L133.42 80.9213H131.578L129.078 80.6581L126.709 80.1318L124.341 79.3423L122.236 78.2897L120.262 77.1055L118.42 75.6581L116.709 74.0792L115.262 72.237L113.946 70.1318L112.894 67.7634L112.236 65.2634L111.973 63.5528V59.6055L112.499 56.4476L113.157 54.4739L114.209 52.3686L115.262 50.6581L116.315 49.3423L117.499 48.0265L118.552 47.1055L120.657 45.5265L122.631 44.3423L125.131 43.2897L127.236 42.6318L129.209 42.237L130.394 42.1055Z" fill="#313334"/>
<path d="M149.078 0H153.552L156.446 0.657895L158.683 1.44737L160.788 2.5L162.499 3.55263L164.341 5L166.052 6.71053L167.499 8.68421L168.552 10.5263L169.341 12.2368L170.131 14.7368L170.525 16.7105L170.657 18.6842V20.2632L170.394 22.7632L169.604 25.7895L168.815 27.7632L167.367 30.3947L165.92 32.1053L165.394 32.7632H165.131L164.867 33.2895L163.42 34.4737L161.709 35.7895L158.683 37.3684L155.92 38.2895L153.288 38.8158H149.341L146.578 38.2895L144.604 37.6316L142.236 36.5789L140.394 35.3947L138.815 34.2105L137.499 33.0263L136.578 32.1053L135.262 30.3947L133.815 27.8947L133.025 26.0526L132.499 24.2105L132.104 22.2368L131.973 20.9211V17.7632L132.367 14.8684L133.025 12.6316L133.946 10.5263L134.999 8.68421L136.315 6.97368L137.894 5.26316L139.736 3.81579L141.446 2.63158L143.42 1.57895L145.262 0.921053L147.104 0.394737L149.078 0Z" fill="#00A65D"/>
<path d="M105.13 0.789062H118.288L120.92 1.1838L123.157 1.84169L125.262 2.89433L126.841 4.21012L128.025 5.92064L128.683 7.49959L129.209 9.60485V12.7627L128.683 14.868L127.63 16.9733L126.578 18.2891L125.657 19.2101L123.815 20.3943L121.709 21.0522H121.315L121.972 22.368L123.288 24.4733L125.525 28.2891L128.946 34.0785L130.13 36.0522L131.051 37.4996V37.8943H122.499L121.972 37.6312L120.657 35.1312L118.946 32.1049L116.972 28.4206L114.999 24.868L113.551 22.2364L113.025 21.1838L112.762 21.0522V36.8417L112.63 37.8943H104.999L104.867 37.7627L104.999 0.920641L105.13 0.789062Z" fill="#00A65D"/>
<path d="M42.765 0.789062H51.4492L51.844 1.44696L53.4229 5.5259L55.7913 11.7101L57.5019 16.3154L59.4755 21.5785L62.2387 28.8154L64.2124 34.0785L65.5282 37.6312V37.8943H56.9755L56.4492 37.368L55.5282 34.7364L53.8176 30.2627L53.6861 30.1312H39.8703L39.4755 31.1838L37.6334 36.8417L37.1071 37.8943H29.0808L28.9492 37.368L30.0019 34.7364L32.5019 27.8943L33.8176 24.4733L35.265 20.5259L36.7124 16.7101L39.4755 9.21012L41.1861 4.60485L42.6334 0.920641L42.765 0.789062Z" fill="#00A55C"/>
<path d="M81.7093 0H86.5777L89.8672 0.789474L91.8409 1.57895L93.683 2.63158L95.5251 3.94737L97.6303 5.92105L98.8146 7.23684L98.683 7.89474L96.5777 9.3421L94.3409 11.0526L93.9461 11.4474L93.4198 11.3158L92.4988 10.1316L91.0514 8.94737L89.2093 7.89474L87.7619 7.36842L86.4461 7.10526L84.3409 6.97368L82.2356 7.10526L80.1303 7.63158L78.0251 8.68421L76.8409 9.60526L75.3935 11.0526L74.2093 13.0263L73.5514 14.7368L73.1567 16.4474L73.0251 17.7632V20.9211L73.2882 22.8947L74.0777 25.2632L74.9988 26.9737L76.0514 28.2895L77.104 29.3421L78.4198 30.2632L80.5251 31.1842L82.104 31.5789L83.4198 31.7105H85.3935L87.8935 31.3158L89.604 30.6579L90.9198 29.7368L91.8409 28.6842L92.4988 27.3684L92.8935 25.9211V25L84.3409 24.8684L84.2093 24.0789L84.3409 18.2895L92.104 18.1579L100.788 18.2895L100.92 18.4211V21.8421L100.525 25L99.8672 27.5L98.683 30.2632L97.4988 32.1053L96.4461 33.4211L95.2619 34.7368L93.4198 36.1842L91.5777 37.2368L89.3409 38.1579L86.3146 38.8158H81.8409L78.9461 38.2895L76.183 37.3684L73.683 36.0526L72.2356 35L70.3935 33.4211L68.9461 31.8421L67.3672 29.4737L66.3146 27.3684L65.3935 24.4737L64.8672 21.3158V17.3684L65.3935 14.0789L66.183 11.7105L66.9725 9.86842L68.1567 8.02631L69.8672 5.92105L71.3146 4.47368L73.0251 3.15789L74.7356 2.10526L77.2356 1.05263L78.9461 0.526316L81.7093 0Z" fill="#00A65D"/>
<path d="M51.3162 41.9746H54.2109L56.9741 42.2378L60.132 42.8957L62.8951 43.8167L64.4741 44.6062V48.2904L64.3425 52.5009L63.6846 52.2378L62.3688 51.1851L60.2636 50.0009L58.6846 49.343L56.7109 48.8167L54.8688 48.5536H51.8425L48.8162 49.0799L47.1057 49.7378L45.3951 50.6588L44.0794 51.7115L42.8951 52.8957L41.7109 54.7378L41.053 56.1851L40.3951 58.6851L40.132 60.5272V62.6325L40.3951 64.2115L41.053 66.7115L42.1057 68.8167L43.4215 70.5272L44.7373 71.7115L46.5794 72.7641L47.8951 73.2904L49.3425 73.6851L51.3162 73.9483H54.0794L56.7109 73.5536L58.9478 72.8957L61.1846 71.843L62.632 70.922L63.8162 70.0009H64.2109L64.0794 77.8957L63.0267 78.5536L60.5267 79.6062L58.2899 80.2641L55.2636 80.7904L53.6846 80.922H51.5794L48.6846 80.6588L46.1846 80.1325L44.0794 79.4746L41.7109 78.422L39.6057 77.1062L38.1583 75.922L36.4478 74.343L34.8688 72.3693L33.8162 70.6588L32.8951 68.6851L32.2373 66.7115L31.8425 64.8693L31.7109 63.6851V59.6062L31.9741 57.3693L32.5004 55.2641L33.553 52.6325L34.7373 50.6588L36.053 48.9483L37.8951 47.1062L40.132 45.3957L42.2373 44.2115L43.6846 43.5536L46.053 42.7641L48.553 42.2378L51.3162 41.9746Z" fill="#313434"/>
<path d="M150.657 6.97461H151.972L154.341 7.36935L156.051 8.02724L158.025 9.21145L159.209 10.2641L160.525 11.9746L161.578 13.8167L162.236 15.6588L162.63 17.6325V20.7904L162.104 23.422L161.578 25.0009L160.525 26.843L159.604 28.0272L158.815 28.9483L157.499 30.0009L155.525 31.0536L153.551 31.5799L152.63 31.7114H149.736L147.499 31.1851L145.92 30.5272L144.472 29.6062L142.894 28.1588L141.709 26.4483L140.788 24.6062L140.13 22.2378L139.867 19.8693L139.999 17.3693L140.525 14.8693L141.709 12.3693L142.894 10.7904L143.551 10.0009L145.657 8.42198L147.63 7.50093L149.472 7.10619L150.657 6.97461Z" fill="#FDFDFD"/>
<path d="M157.63 42.8945H165.656L165.788 43.1577V73.1577H178.814V79.8682H157.499V63.2893L153.683 63.4208L152.762 63.1577V59.9998L157.499 60.1314V43.0261L157.63 42.8945Z" fill="#303535"/>
<path d="M0.131579 0H4.73684V80.3947L4.60526 80.5263L0.263158 80.6579L0 80.3947V0.131579L0.131579 0Z" fill="#00A65D"/>
<path d="M10.1328 32.8945H14.7381L14.8697 33.0261V99.8682L13.1591 99.9998H10.1328V32.8945Z" fill="#303434"/>
<path d="M87.5019 49.0781H89.4755L91.9755 49.4729L93.9492 50.2623L95.7913 51.4465L97.1071 52.6308L98.6861 54.736L99.6071 56.5781L100.265 58.815L100.397 59.9992L100.265 60.1308H76.5808L76.4492 59.6044L76.9755 57.3676L77.6334 55.6571L78.5545 54.0781L79.7387 52.6308H80.0019L80.1334 52.236L81.5808 51.0518L83.1597 50.1308L84.8703 49.4729L87.5019 49.0781Z" fill="#FDFDFD"/>
<path d="M131.447 49.0781H133.289L135.395 49.3413L137.368 49.9992L139.21 51.0518L141.184 52.7623L142.5 54.4729L143.552 56.5781L144.21 58.6834L144.342 60.1308H120.526L120.395 59.4729L121.184 56.5781L122.237 54.4729L123.421 53.0255L124.868 51.5781L126.184 50.6571L128.026 49.736L130.263 49.2097L131.447 49.0781Z" fill="#FDFDFD"/>
<path d="M120.527 63.2891H144.343L144.08 64.868L143.554 66.447L142.501 68.5522L141.448 69.868L140.791 70.6575L139.08 71.9733L137.896 72.6312L136.317 73.2891L134.08 73.8154H130.791L128.027 73.1575L126.448 72.4996L124.738 71.3154L123.554 70.2627L122.238 68.5522L121.185 66.447L120.659 64.7364L120.527 63.2891Z" fill="#FDFDFD"/>
<path d="M76.5781 63.2891H100.262V64.2101L99.6044 66.447L98.5518 68.5522L97.3676 69.9996L95.9202 71.447L94.2097 72.4996L92.7623 73.1575L89.9992 73.8154H86.7097L84.0781 73.1575L82.4992 72.4996L80.7887 71.3154L78.9465 69.4733L77.7623 67.6312L77.1044 66.0522L76.5781 64.0785V63.2891Z" fill="#FDFDFD"/>
<path d="M140.526 85.9219H145.921L147.895 86.185L149.473 86.8429L150.789 88.0271L151.579 89.2113L152.105 90.5271L152.237 91.0535V94.0798L151.842 95.5271L151.184 96.8429L150.263 97.8956L148.421 98.9482L147.5 99.2113L146.316 99.3429H140.395V86.0535L140.526 85.9219Z" fill="#2F3836"/>
<path d="M51.1836 85.9219H56.8415L58.6836 86.185L60.2625 86.8429L61.5783 88.0271L62.631 89.8692L62.8941 90.6587L63.0257 91.5798V93.8166L62.631 95.5271L61.8415 96.9745L60.6573 98.1587L59.0783 98.9482L58.2889 99.2113L57.1046 99.3429H51.1836V85.9219Z" fill="#2F3736"/>
<path d="M102.631 85.5254H103.025L104.473 88.6833L106.315 92.3675L107.631 95.2622L107.894 94.9991L108.815 92.8938L110.657 89.078L112.236 85.657L112.631 85.5254L113.025 87.2359L114.999 95.3938L115.788 98.8149V99.3412H113.683L112.499 94.4728L112.104 92.3675V91.4464H111.841L111.446 92.6307L108.815 97.8938L107.762 99.8675L107.236 99.3412L104.999 94.7359L103.42 91.578L103.157 92.7622L101.841 98.5517L101.709 99.3412H99.6042L99.4727 99.078L101.578 90.1307L102.631 85.5254Z" fill="#2F3735"/>
<path d="M40.1316 60L68.0263 60.1316V63.2895H40.2632L40.1316 63.8158L40 62.6316V60.5263L40.1316 60Z" fill="#00A65D"/>
<path d="M36.1836 85.3945L36.8415 85.7893L38.6836 87.6314L39.7362 88.5524L45.7889 94.2103L46.4468 94.9998L46.7099 95.1314L46.5783 94.8682V86.0524L46.7099 85.9208H48.8152V99.8682L48.1573 99.4735L46.7099 98.0261L45.6573 97.1051L43.4204 94.9998L42.3678 94.0787L41.4468 93.1577L40.3941 92.2366L39.4731 91.4472L38.552 90.3945L38.4204 90.263L38.2889 99.3419H36.3152L36.1836 99.2103V85.3945Z" fill="#2E3A36"/>
<path d="M120.525 60.1309H144.341L144.472 60.5256V62.7624L144.341 63.2888H120.525L120.393 63.5519L120.262 62.7624V61.0519L120.525 60.1309Z" fill="#00A65D"/>
<path d="M76.4492 60L100.265 60.1316L100.397 60.2632L100.528 61.5789L100.397 63.8158L100.265 63.2895H76.5808L76.4492 63.8158V60Z" fill="#00A65D"/>
<path d="M46.7095 7.5L47.1042 7.63158L47.8937 11.3158L48.6832 13.9474L50.7884 20.1316L51.7095 22.7632L51.8411 23.0263V23.8158L41.9727 23.6842L42.3674 22.2368L44.0779 17.2368L45.7884 11.9737L46.7095 7.5Z" fill="#FDFDFD"/>
<path d="M112.764 6.97461H115.922L118.422 7.36935L119.738 7.89566L120.659 8.68514L121.317 9.86935L121.58 11.1851V12.3693L121.317 13.6851L120.659 15.0009L119.738 15.7904L118.028 16.3167L115.922 16.5799H112.764L112.633 15.7904L112.764 6.97461Z" fill="#FDFDFD"/>
<path d="M74.3419 85.5254L74.7366 85.657L76.5787 89.6043L78.4208 93.4201L80.6577 98.0254L81.184 99.078V99.4728H78.9472L78.2893 98.4201L77.2366 96.0517L71.7103 95.9201L71.4472 96.7096L70.3945 98.9464L70.1314 99.3412L68.0261 99.4728L67.8945 98.9464L68.8156 96.9728L70.6577 93.157L72.763 88.8149L74.2103 85.7885L74.3419 85.5254Z" fill="#2F3635"/>
<path d="M130.789 85.9219H138.684V87.764L138.026 87.8956H133.157V91.185H138.684V93.0271H133.157V97.5008H138.684V99.2113L138.552 99.3429H130.789V85.9219Z" fill="#2F3736"/>
<path d="M53.5535 87.8945H56.4482L58.0271 88.1577L59.0798 88.684L59.8692 89.6051L60.3956 90.6577L60.6587 91.8419V93.4208L60.264 94.9998L59.4745 96.184L58.685 96.8419L57.6324 97.2366L56.9745 97.3682L53.9482 97.4998L53.4219 97.3682V88.0261L53.5535 87.8945Z" fill="#FDFDFD"/>
<path d="M142.893 87.8945H145.788L147.367 88.1577L148.42 88.8156L149.341 89.8682L149.867 91.5787V93.8156L149.472 95.1314L148.683 96.3156L147.762 96.9735L146.314 97.3682L143.156 97.4998L142.762 97.3682V88.0261L142.893 87.8945Z" fill="#FDFDFD"/>
<path d="M120.133 85.9219H129.87V87.764L129.212 87.8956L126.317 88.0271L126.185 99.3429H123.949L123.817 88.0271L122.106 87.8956H120.396L120.133 87.764V85.9219Z" fill="#2F3836"/>
<path d="M87.6328 85.9219H89.8697L90.0012 86.4482V97.5008H95.0012V99.3429H87.6328V85.9219Z" fill="#303535"/>
<path d="M31.5808 85.9219H33.8176V99.3429H31.4492V86.0535L31.5808 85.9219Z" fill="#2F3836"/>
<path d="M64.9988 85.9219H67.104L67.2356 86.0535V98.8166L67.104 99.3429H64.8672V86.0535L64.9988 85.9219Z" fill="#2E3936"/>
<path d="M96.0508 85.9219H98.2876L98.4192 86.0535L98.2876 99.3429H96.0508V85.9219Z" fill="#313334"/>
<path d="M116.973 85.9219H119.209V99.3429H116.973V85.9219Z" fill="#313334"/>
<path d="M152.762 60L157.499 60.1316L157.63 62.5L157.499 63.2895L153.683 63.4211L152.762 63.1579V60Z" fill="#00A65D"/>
<path d="M108.948 60.1309H111.974V63.2888L111.316 63.4203H108.816V61.8414L108.948 60.1309Z" fill="#00A65D"/>
<path d="M74.4749 89.8691L74.8697 90.2639L75.5275 91.9744L76.4486 93.8165V94.0797H72.6328L72.896 93.2902L74.0802 90.7902L74.4749 89.8691Z" fill="#FDFDFD"/>
</svg>
