<svg width="120" height="120" viewBox="0 0 120 120" fill="none" xmlns="http://www.w3.org/2000/svg">
<path d="M60 0H60.45L60.6 5.55L60.9 8.1L61.95 8.4V19.35L65.25 19.8L67.5 19.95L67.65 18.9L68.55 15.75H68.85L69.15 14.25L69.45 12.9H69.75L69.45 14.4L68.85 16.35L68.55 18L68.7 20.25L70.95 21L72.15 21.3L73.95 21.9L74.1 20.7H74.4L74.55 19.8L75 19.05L75.75 16.95L77.1 13.95L77.7 12.15L78 11.85L79.35 11.7L80.1 10.2L80.85 9.45L82.2 6.3L82.5 5.25H82.8L83.1 3.75L83.55 3.3L83.25 4.8L82.8 6H82.5L82.35 6.75L81.45 8.85L81.15 10.8L81 11.1V12.6L81.15 12.9V13.95L80.85 14.55L78.3 14.7L78.15 15L80.4 15.3L80.1 16.35L79.2 16.2H77.7L78.45 16.8L79.65 17.1V17.85L78.75 18L77.55 17.85V18.3L79.05 18.9L78.75 19.5L78.45 19.65H76.8L76.35 19.5V20.1L77.55 20.4L78.3 20.7L78.15 21.3L77.1 21.45L76.35 21H76.05L76.2 21.45L77.55 22.35L77.4 23.4L78.9 24.15L80.55 25.05V25.35L81.45 25.5L82.5 24.3L83.25 23.55L84 22.35H84.3L84.6 21.75L84.75 22.2L83.55 23.7L83.25 24.3L83.1 25.5L82.65 25.95L82.8 26.55L85.35 28.5L85.95 28.8L86.4 29.4H87.15L87.45 28.8L88.2 28.2L89.25 27L91.05 25.2H91.5L91.65 24.6L92.85 23.55L94.2 22.05L94.95 22.2L95.25 22.65V23.1L95.7 22.8L96.15 22.05L96.9 21.6L97.05 21.15L97.8 21L98.4 20.25L99 20.1L98.7 20.7L98.1 21.45L97.35 22.65H97.05L96.75 23.25L96.6 24L96.9 24.15L96.75 24.9H96.3V25.2H96L95.85 25.8H95.4L94.8 24.9L94.05 24.75L94.35 25.65L94.95 25.95V26.7H94.65L94.5 27L93.15 25.95L92.4 25.8L93.45 27L93.75 27.45L93.6 28.2H93L92.25 27.45L91.5 27.15L92.25 28.65V29.25H91.95V29.55L92.25 29.7L91.35 29.55L90.6 28.8L89.7 28.5L90.45 29.55L91.05 30.15V30.9L90.3 30.75L89.4 30L88.95 29.85L89.1 30.6L90 31.2L89.85 31.95L89.55 32.1V32.7L90.45 33.45L90.9 33.9L91.05 34.65L91.65 34.95L92.1 35.4V35.85H92.4L92.55 36.3L93.3 36.15L93.9 36V35.7H95.1L95.25 35.25L96.9 34.2L97.65 33.6L98.55 33L99 33.15L97.65 34.35L95.55 35.85L94.5 36.75H94.2V37.05L93.45 37.35L94.5 39.45L94.95 39.9L95.4 40.95L95.85 41.85V42.15L97.65 41.85V41.55L99.6 40.8L101.7 40.05L102.75 39.6L105.75 38.4L106.5 38.55L106.65 38.85L108.3 38.7V38.4L110.1 38.1L114.6 36.3L115.35 36.15L115.2 36.75L112.35 37.95L110.25 38.7L109.95 39.15L109.2 39.3V39.6H108.75V39.9L108 40.2L107.1 40.5L107.25 41.7L106.35 42.15H105.6L105.15 40.95H104.7L104.85 41.85L105.15 42.45L104.7 42.9L104.1 42.75L103.5 41.1L103.05 40.95L103.35 42.45V43.35L102.45 43.65L101.85 42.15L101.4 41.85L101.7 43.5L101.55 44.25L100.65 44.4L100.2 42.9H99.9V44.85L98.85 45L98.4 43.2L97.95 43.5L98.1 44.4L98.25 44.7V45.6L97.5 45.9L97.65 46.65L98.4 48.3L98.7 49.65L99 50.55H100.8L103.65 50.25H104.4L103.95 50.55L102.75 50.7V51L99.9 51.75H99.45L99.75 57.45H110.25L110.85 57.75L111 58.05L112.2 58.5L114 58.8L114.75 58.95L119.7 59.1V59.25L114 59.4L113.4 59.85L111.3 60.15L111 60.3L110.7 61.05H108.9L108.75 58.65H108.45L108.3 61.2H107.25L106.95 58.8H106.65L106.5 61.05L106.35 61.2L105.3 61.05V58.65L104.85 58.8L104.7 61.05L103.8 61.2L103.5 61.05L103.35 58.65L103.05 58.5L102.9 61.05L102.75 61.2L101.7 61.05L101.55 58.65L101.25 58.5V61.05L100.05 61.2L99.45 64.95V66.15L101.25 66.75L102.75 67.35L105.3 67.8V67.95H103.95L101.85 67.5H99L97.8 72.15L97.65 72.75L99.15 73.2L99.6 73.5L100.95 73.95L103.65 75.15L105.45 75.9L107.7 76.8L107.55 77.7L108.75 78.3V78.6L109.35 78.75L110.25 79.35V79.65L111.6 80.1L112.65 80.55L114 81L115.65 81.9L116.25 82.35H115.05L113.1 81.45L110.55 80.1L109.5 79.8L108 79.65V79.35L106.95 79.65L106.35 79.95H105.45L104.55 79.65V78.75L105.45 77.25L104.7 77.55L103.8 79.2L103.05 79.05L103.2 77.85L103.65 76.65L102.9 76.95L102.6 77.85L102.3 78.45H101.25L101.1 77.85L101.55 77.25L102 75.75L101.25 76.2L100.5 77.55L100.35 77.7H99.45L99.75 76.95L100.2 75.6V75.3H99.75L99.6 75.9L99.3 77.25L97.95 76.8L97.8 76.2L98.1 75L97.95 74.4L97.65 74.85L97.5 76.35L96.3 76.05L94.95 78.45L94.05 79.95L93.9 81L95.1 82.05L95.4 82.8L94.05 82.35L92.85 81.9L92.55 82.5L91.5 83.55L90.15 85.2L89.55 85.95L89.4 86.25L90 86.55L91.05 87.75L92.1 88.65L93.15 89.85L94.05 90.6V90.9H94.35V91.2L94.95 91.5L95.1 92.25L96 92.55L96.75 93.3L97.05 93.75V94.8L97.35 95.85L97.95 96.15L98.85 97.5L99.75 98.55L100.5 99.3L100.8 99.9L101.4 100.2V100.5L102 100.65L102.45 101.55H101.7L101.1 100.65L100.65 100.2V99.9L100.05 99.6L98.85 98.25L98.1 97.65L96.3 96.75L95.85 96.3V96H94.2L93.6 95.85V94.95L93.9 94.5H94.2V94.2L94.65 93.9L94.8 93.3L93.6 94.35L93.3 94.65L91.95 94.35L91.8 93.6L91.2 93.45V93.15H90.9L91.05 92.4L92.1 91.2L92.55 91.05L92.7 90.45L91.95 90.6L90.75 91.65L90.45 91.95L89.85 91.8L89.7 91.05L91.2 89.55L91.35 89.25L89.85 90L89.4 90.15L89.1 90.75L88.2 90.45L88.35 89.55L90 88.2L90.15 87.9L89.25 88.35L88.65 88.8H88.35V89.1H87.75V89.4H87.15V88.65H86.55L86.25 89.25L85.8 89.7L85.05 90.15L84.6 90.6H84.3L84.15 91.05L83.4 91.5L83.25 92.1H83.55L84.3 94.05V94.65H84V94.05L83.1 93.75V93.45L82.5 93.15L82.35 92.7L81.45 92.85L79.95 93.75L79.05 94.2L78.15 94.8H77.55V95.7L78.45 97.5L79.35 99.75L80.1 101.55L80.85 103.5L81.3 104.7V105.6L80.85 105.75L81.9 109.5L82.8 111.9L83.25 112.35L83.85 114.75H83.25L83.1 114.45V113.55H82.8L82.35 112.5L81.75 110.55L80.7 108.45H80.4L80.25 108L79.8 107.7L79.65 107.1L79.2 106.8V106.35H78.3V106.05L77.85 105.9L77.55 104.55L77.4 104.1L76.8 103.95V103.2L78 102.75L78.3 102.15L77.55 102.45L77.1 102.6L76.05 102.15L76.2 101.55L77.4 100.95H77.7L78 100.05L77.1 100.65L76.95 100.8H75.9L75.3 100.5V99.75L76.95 99.15L77.25 98.7L75.45 99.15H74.85V98.1L75.15 97.8L76.5 97.65L76.35 97.35L74.25 97.5L74.1 96.75L73.95 96.6L70.8 97.65L68.55 98.1L68.85 99.3L68.7 99.6V101.4L68.85 102.9H69.15L69.45 104.7V105.45H69L68.4 101.85L68.1 100.5L67.35 100.2V98.55L62.1 99L61.95 109.95L61.65 110.4H60.75V112.2L60.3 113.4H60L59.85 112.65L59.25 112.35L59.1 111.75V110.4L58.05 109.95V108.3H59.25V107.7L58.2 107.4V106.35L58.35 106.2L60.45 106.05V105.75L58.35 105.6L58.2 105.45V104.55L60.3 104.4V103.95L59.4 104.1V103.8H58.2V102.75L59.1 102.6L60.3 102.75V102.15L58.2 101.85V100.8H60.45L60.3 100.5L59.85 100.35L58.2 100.2L58.05 99.9L57.9 99.15L57.6 99L53.4 98.55H52.35L52.2 99.3H51.9L51.75 100.2L51.45 100.8L50.7 104.85L50.55 105.3H50.25L50.4 103.05L50.85 100.65V98.55L51 98.1L50.25 97.95L45.9 96.6L45.6 97.35L45 97.65L43.95 97.2H43.05L43.65 97.8L45 98.25L44.7 99L43.5 98.85L42.9 98.4H42.6L42.75 99L43.8 99.75L44.25 99.9L44.1 100.65L43.35 100.8L42.6 100.05L42.45 100.2L42.15 100.8L41.55 100.95V101.25L43.05 101.4L43.65 102L43.35 102.3L42.3 102.15L41.7 102L41.55 102.6H41.1L40.95 102.9L42.45 103.2L42.9 103.5L42.75 104.1L42 104.25L40.65 103.5V104.25L41.25 104.7L42.15 104.85L41.7 106.2L41.1 107.1H40.8L40.2 106.2L40.05 106.65L39.9 107.7L38.4 109.65L37.8 111L37.5 112.05L36.75 113.85L36.3 114.75H36L36.15 113.55L37.5 110.4L38.1 109.05L38.7 106.35V105.75L38.25 105.45L38.4 104.7L39 102.9L40.2 100.2L41.1 98.25L42.15 95.55H42.45L42.3 95.1L42 94.95V94.65L41.25 94.5L40.2 93.9V93.6H39.6V93.3L38.7 93L37.95 92.7L37.65 93.75L36.6 94.65L35.7 96L34.65 97.35L33.75 98.7L33.6 98.25L34.8 96.3L35.85 94.8L36.45 93.45H36.75L36.9 92.1V91.65L36.3 91.35V91.05L35.55 90.75V90.45L34.8 90.15L34.5 89.55L33.75 89.4L33.15 88.95V88.65L32.7 88.8L32.25 89.55L31.2 90.6L30.45 90.45L30.3 90L28.8 89.25L28.95 89.85L29.7 90.9L30 91.05V91.95H29.25L28.05 90.75L27.45 90.6L28.2 91.95L28.65 92.4V93.3L28.05 93.15L27.3 92.4L26.25 91.8L26.1 92.25L26.85 93.15L27.45 93.75L27.6 94.5L26.55 94.35L25.5 93.3H25.05L25.35 94.05L26.1 94.95L26.25 95.4H25.95L25.65 96H24L22.65 97.35L21.9 97.65V97.95L20.85 98.4L20.4 98.55L20.1 99.15L19.05 100.2L17.85 101.7L17.25 101.85V101.25L18.9 99.45L19.95 98.4L21 97.2L22.05 95.85L22.65 95.7L22.95 94.65L23.25 94.2H22.5L22.95 93.3L24.3 91.95H24.6L24.9 91.2L25.5 90.9L27.3 89.1L27.9 88.35H28.2V88.05L29.4 87L30.3 86.25L30.45 85.8L29.85 85.5L28.35 83.4L27.3 82.2V81.9L26.4 82.2L25.65 82.95L25.05 82.8L24.75 82.5L24.9 81.9L26.1 80.85V80.1L25.5 79.2V78.75H25.2L24.3 76.95L23.7 76.35L23.55 75.9L23.1 75.75L22.95 76.2H22.35L21.75 74.55H21.45L21.6 75.6L21.9 76.65L21.15 77.1L20.7 76.65L19.95 74.85V74.55H19.65V75.6L20.25 77.25V77.7H19.2L18.45 75.9L18 75.75L18.45 77.7L18.3 78.3L17.4 78.6L16.8 76.95L16.2 76.65L16.65 78.45V79.05L15.75 79.2L15 77.7V77.4L14.55 77.55L14.7 78.45L15 79.05V79.8L13.65 79.95L13.2 79.65H11.85L11.7 79.8L9.3 79.95V80.25L8.4 80.7L7.05 80.85L7.65 80.4L9.75 79.35H10.05V79.05L10.8 78.3L12.3 77.7V76.5L13.65 76.2L15.6 75.3L16.95 74.7L19.2 73.8H19.65V73.5H20.85L21.15 73.05L22.2 72.6V71.55L21.75 70.5L21.15 67.8L18.45 67.95H16.65V68.25L15 68.55H14.25L14.4 68.1L16.35 67.8L17.7 67.5L17.85 67.35L19.35 67.2L19.5 66.75H19.95V66.45H20.85L20.25 62.25V61.05H19.05L18.9 60.75L18.75 58.5L18.45 58.65L18.3 61.05L17.55 61.2L17.25 61.05L16.95 58.8H16.8L16.65 61.05L16.5 61.2H15.3V59.1L15.45 58.8L14.85 59.1L14.7 61.05H13.65L13.5 60.9V58.8H13.05L12.9 61.05L11.85 61.2L11.55 60.9V59.1H11.25L11.1 61.05L9.3 61.2L9.15 61.05V60.15H7.8L6.3 59.55L1.8 59.4L0 59.25L0.15 58.95H6.45L6.75 58.5L8.7 58.35L9 58.5V57.75L9.3 57.45H20.25V55.95L20.7 51.9L20.55 51.75L20.25 52.2H19.5L19.05 51.75L16.8 51L14.25 50.55V50.4H15.6L19.35 51.15V50.55L19.95 50.7V51H20.85L21.45 49.35L21.9 47.7L22.05 46.65H22.35V45.75H21.75L21.45 45.15L21.9 43.5L21.75 42.75L21.6 42.6L21 45L19.95 44.85L18.15 44.1L17.85 43.8L18.6 41.85L17.85 42.15L17.4 43.5L16.35 43.2L16.5 42.3L16.8 41.55L16.65 41.25L16.2 41.4L15.75 43.05L14.7 42.75L14.85 40.8L14.4 40.95L14.1 42.15L13.05 42V41.7L12.3 41.55L12.45 40.5L9.9 39.3L9.6 39V38.55L8.7 38.25L6 37.2L4.65 36.75V36.45H5.4V36.75H6.15V37.05L7.5 37.35L9.3 37.95L9.6 38.25L11.55 38.4L12.45 38.85H13.2L13.35 38.4L14.55 38.55L16.8 39.45L17.7 39.75L19.35 40.35L20.7 40.95L22.2 41.55L23.25 42H24L25.35 39.6L26.4 37.5L25.8 37.2L24.15 35.55L23.1 35.1L21.45 33.9L20.25 33L20.7 32.85L22.2 33.6L24.45 35.1L24.9 35.55L26.7 36.3L27.45 36.15L28.95 34.35L30.45 32.4V32.1L29.85 31.95L30 31.2L30.6 30.45L29.55 30.6V30.9L28.65 30.75L28.5 30.15L29.25 29.4H29.55L29.85 28.5L29.1 28.65L28.05 29.55L27.3 29.4L27.45 28.8L28.5 27.75L28.65 27.15L27.6 27.6L26.85 28.35H26.1L25.8 28.05L25.65 27.15L24.6 26.85V26.25H24L23.4 25.5L23.25 24.75L22.8 24.6L23.1 24L22.95 23.25L22.5 22.65L22.05 22.5L21.9 21.45H21.6L21.15 20.55L19.65 19.35V19.05L19.05 18.75L17.25 16.95V16.65L18 16.8L20.1 18.75L20.55 19.35L21.3 19.8L22.5 20.7L22.65 21.15L23.25 21.3V21.6L24 21.9L24.15 22.2H25.65L26.1 22.65L26.25 23.1L27.15 23.85L27.9 24.3L30 26.4L31.05 27.6L31.95 28.5V28.8L32.55 29.1V29.4L33.15 29.55L33.9 28.95L34.65 28.65L35.25 28.35V28.05L36.15 27.45L36.6 26.85L36.45 25.8L35.25 23.7L34.2 22.35L33.9 22.05L33.6 21L33.75 20.4L34.8 21.9L35.7 23.25L36.45 24.45L37.65 25.5V25.8L39.45 25.2L40.05 25.05V24.75L40.5 24.6L40.95 24.15L42.3 23.85V22.65L42.9 21.75L43.95 21.45L44.1 21.15L42.3 21.6L41.55 21.3L41.7 20.1H41.4L40.95 19.35L40.65 19.2L40.8 18.6L42 18.3L42.3 17.55L41.25 18L40.2 17.85L40.05 17.25L41.55 16.5H41.85V15.9L40.35 16.35H39.45L39.6 15.3L40.65 15H40.95L40.65 14.55L39.6 14.85H39L38.55 13.8V13.05L38.85 12.75V11.7L38.55 10.65L38.25 8.7L37.8 7.8V7.5H37.5L36.3 4.8L36.15 3.45L36.6 3.6L38.25 7.2L38.7 8.55L39.15 9.45L40.05 10.5L40.35 11.55H40.95V11.85L41.7 12L42 12.75H42.3L43.8 16.5L45.45 20.4L45.75 21V21.45H46.05V21.75L48.9 21L51.45 20.25H51.75V19.35H51.45V17.4L51.15 15.75V14.7H51.3L51.75 16.95L52.35 18.45L52.65 19.8H54.15L57.15 19.5L58.05 19.2L58.5 18.15H59.7L59.85 18L58.95 17.7L58.2 17.4V16.5L58.35 16.35L59.4 16.2L59.25 15.45H58.35L58.05 14.85V12.9L58.2 12.75H60.3V12.15L58.5 12L58.05 11.7L58.2 10.95L60.3 10.8L60.15 10.5L58.2 10.2L58.05 9.3L58.65 8.7H58.05V8.4L59.25 8.1V6.75L59.7 5.55H60V0Z" fill="#F48625"/>
<path d="M60 0H60.45L60.6 5.55L60.9 8.1L61.95 8.4V19.35L65.25 19.8L67.5 19.95L67.65 18.9L68.55 15.75H68.85L69.15 14.25L69.45 12.9H69.75L69.45 14.4L68.85 16.35L68.55 18L68.7 20.25L70.95 21L72.15 21.3L73.95 21.9L74.1 20.7H74.4L74.55 19.8L75 19.05L75.75 16.95L77.1 13.95L77.7 12.15L78 11.85L79.35 11.7L80.1 10.2L80.85 9.45L82.2 6.3L82.5 5.25H82.8L83.1 3.75L83.55 3.3L83.25 4.8L82.8 6H82.5L82.35 6.75L81.45 8.85L81.15 10.8L81 11.1V12.6L81.15 12.9V13.95L80.85 14.55L78.3 14.7L78.15 15L80.4 15.3L80.1 16.35L79.2 16.2H77.7L78.45 16.8L79.65 17.1V17.85L78.75 18L77.55 17.85V18.3L79.05 18.9L78.75 19.5L78.45 19.65H76.8L76.35 19.5V20.1L77.55 20.4L78.3 20.7L78.15 21.3L77.1 21.45L76.35 21H76.05L76.2 21.45L77.55 22.35L77.4 23.4L78.9 24.15L80.55 25.05V25.35L81.45 25.5L82.5 24.3L83.25 23.55L84 22.35H84.3L84.6 21.75L84.75 22.2L83.55 23.7L83.25 24.3L83.1 25.5L82.65 25.95L82.8 26.55L85.35 28.5L85.95 28.8L86.4 29.4H87.15L87.45 28.8L88.2 28.2L89.25 27L91.05 25.2H91.5L91.65 24.6L92.85 23.55L94.2 22.05L94.95 22.2L95.25 22.65V23.1L95.7 22.8L96.15 22.05L96.9 21.6L97.05 21.15L97.8 21L98.4 20.25L99 20.1L98.7 20.7L98.1 21.45L97.35 22.65H97.05L96.75 23.25L96.6 24L96.9 24.15L96.75 24.9H96.3V25.2H96L95.85 25.8H95.4L94.8 24.9L94.05 24.75L94.35 25.65L94.95 25.95V26.7H94.65L94.5 27L93.15 25.95L92.4 25.8L93.45 27L93.75 27.45L93.6 28.2H93L92.25 27.45L91.5 27.15L92.25 28.65V29.25H91.95V29.55L92.25 29.7L91.35 29.55L90.6 28.8L89.7 28.5L90.45 29.55L91.05 30.15V30.9L90.3 30.75L89.4 30L88.95 29.85L89.1 30.6L90 31.2L89.85 31.95L89.55 32.1V32.7L90.45 33.45L90.9 33.9L91.05 34.65L91.65 34.95L92.1 35.4V35.85H92.4L92.55 36.3L93.3 36.15L93.9 36V35.7H95.1L95.25 35.25L96.9 34.2L97.65 33.6L98.55 33L99 33.15L97.65 34.35L95.55 35.85L94.5 36.75H94.2V37.05L93.45 37.35L94.5 39.45L94.95 39.9L95.4 40.95L95.85 41.85V42.15L97.65 41.85V41.55L99.6 40.8L101.7 40.05L102.75 39.6L105.75 38.4L106.5 38.55L106.65 38.85L108.3 38.7V38.4L110.1 38.1L114.6 36.3L115.35 36.15L115.2 36.75L112.35 37.95L110.25 38.7L109.95 39.15L109.2 39.3V39.6H108.75V39.9L108 40.2L107.1 40.5L107.25 41.7L106.35 42.15H105.6L105.15 40.95H104.7L104.85 41.85L105.15 42.45L104.7 42.9L104.1 42.75L103.5 41.1L103.05 40.95L103.35 42.45V43.35L102.45 43.65L101.85 42.15L101.4 41.85L101.7 43.5L101.55 44.25L100.65 44.4L100.2 42.9H99.9V44.85L98.85 45L98.4 43.2L97.95 43.5L98.1 44.4L98.25 44.7V45.6L97.5 45.9L97.65 46.65L98.4 48.3L98.7 49.65L99 50.55H100.8L103.65 50.25H104.4L103.95 50.55L102.75 50.7V51L99.9 51.75H99.45L99.75 57.45H110.25L110.85 57.75L111 58.05L112.2 58.5L114 58.8L114.75 58.95L119.7 59.1V59.25L114 59.4L113.4 59.85L111.3 60.15L111 60.3L110.7 61.05H108.9L108.75 58.65H108.45L108.3 61.2H107.25L106.95 58.8H106.65L106.5 61.05L106.35 61.2L105.3 61.05V58.65L104.85 58.8L104.7 61.05L103.8 61.2L103.5 61.05L103.35 58.65L103.05 58.5L102.9 61.05L102.75 61.2L101.7 61.05L101.55 58.65L101.25 58.5V61.05L100.05 61.2L99.45 64.95V66.15L101.25 66.75L102.75 67.35L105.3 67.8V67.95H103.95L101.85 67.5H99L97.8 72.15L97.65 72.75L99.15 73.2L99.6 73.5L100.95 73.95L103.65 75.15L105.45 75.9L107.7 76.8L107.55 77.7L108.75 78.3V78.6L109.35 78.75L110.25 79.35V79.65L111.6 80.1L112.65 80.55L114 81L115.65 81.9L116.25 82.35H115.05L113.1 81.45L110.55 80.1L109.5 79.8L108 79.65V79.35L106.95 79.65L106.35 79.95H105.45L104.55 79.65V78.75L105.45 77.25L104.7 77.55L103.8 79.2L103.05 79.05L103.2 77.85L103.65 76.65L102.9 76.95L102.6 77.85L102.3 78.45H101.25L101.1 77.85L101.55 77.25L102 75.75L101.25 76.2L100.5 77.55L100.35 77.7H99.45L99.75 76.95L100.2 75.6V75.3H99.75L99.6 75.9L99.3 77.25L97.95 76.8L97.8 76.2L98.1 75L97.95 74.4L97.65 74.85L97.5 76.35L96.3 76.05L94.95 78.45L94.05 79.95L93.9 81L95.1 82.05L95.4 82.8L94.05 82.35L92.85 81.9L92.55 82.5L91.5 83.55L90.15 85.2L89.55 85.95L89.4 86.25L90 86.55L91.05 87.75L92.1 88.65L93.15 89.85L94.05 90.6V90.9H94.35V91.2L94.95 91.5L95.1 92.25L96 92.55L96.75 93.3L97.05 93.75V94.8L97.35 95.85L97.95 96.15L98.85 97.5L99.75 98.55L100.5 99.3L100.8 99.9L101.4 100.2V100.5L102 100.65L102.45 101.55H101.7L101.1 100.65L100.65 100.2V99.9L100.05 99.6L98.85 98.25L98.1 97.65L96.3 96.75L95.85 96.3V96H94.2L93.6 95.85V94.95L93.9 94.5H94.2V94.2L94.65 93.9L94.8 93.3L93.6 94.35L93.3 94.65L91.95 94.35L91.8 93.6L91.2 93.45V93.15H90.9L91.05 92.4L92.1 91.2L92.55 91.05L92.7 90.45L91.95 90.6L90.75 91.65L90.45 91.95L89.85 91.8L89.7 91.05L91.2 89.55L91.35 89.25L89.85 90L89.4 90.15L89.1 90.75L88.2 90.45L88.35 89.55L90 88.2L90.15 87.9L89.25 88.35L88.65 88.8H88.35V89.1H87.75V89.4H87.15V88.65H86.55L86.25 89.25L85.8 89.7L85.05 90.15L84.6 90.6H84.3L84.15 91.05L83.4 91.5L83.25 92.1H83.55L84.3 94.05V94.65H84V94.05L83.1 93.75V93.45L82.5 93.15L82.35 92.7L81.45 92.85L79.95 93.75L79.05 94.2L78.15 94.8H77.55V95.7L78.45 97.5L79.35 99.75L80.1 101.55L80.85 103.5L81.3 104.7V105.6L80.85 105.75L81.9 109.5L82.8 111.9L83.25 112.35L83.85 114.75H83.25L83.1 114.45V113.55H82.8L82.35 112.5L81.75 110.55L80.7 108.45H80.4L80.25 108L79.8 107.7L79.65 107.1L79.2 106.8V106.35H78.3V106.05L77.85 105.9L77.55 104.55L77.4 104.1L76.8 103.95V103.2L78 102.75L78.3 102.15L77.55 102.45L77.1 102.6L76.05 102.15L76.2 101.55L77.4 100.95H77.7L78 100.05L77.1 100.65L76.95 100.8H75.9L75.3 100.5V99.75L76.95 99.15L77.25 98.7L75.45 99.15H74.85V98.1L75.15 97.8L76.5 97.65L76.35 97.35L74.25 97.5L74.1 96.75L73.95 96.6L70.8 97.65L68.55 98.1L68.85 99.3L68.7 99.6V101.4L68.85 102.9H69.15L69.45 104.7V105.45H69L68.4 101.85L68.1 100.5L67.35 100.2V98.55L62.1 99L61.95 109.95L61.65 110.4H60.75V112.2L60.3 113.4H60L59.85 112.65L59.25 112.35L59.1 111.75V110.4L58.05 109.95V108.3H59.25V107.7L58.2 107.4V106.35L58.35 106.2L60.45 106.05V105.75L58.35 105.6L58.2 105.45V104.55L60.3 104.4V103.95L59.4 104.1V103.8H58.2V102.75L59.1 102.6L60.3 102.75V102.15L58.2 101.85V100.8H60.45L60.3 100.5L59.85 100.35L58.2 100.2L58.05 99.9L57.9 99.15L57.6 99L53.4 98.55H52.35L52.2 99.3H51.9L51.75 100.2L51.45 100.8L50.7 104.85L50.55 105.3H50.25L50.4 103.05L50.85 100.65V98.55L51 98.1L50.25 97.95L45.9 96.6L45.6 97.35L45 97.65L43.95 97.2H43.05L43.65 97.8L45 98.25L44.7 99L43.5 98.85L42.9 98.4H42.6L42.75 99L43.8 99.75L44.25 99.9L44.1 100.65L43.35 100.8L42.6 100.05L42.45 100.2L42.15 100.8L41.55 100.95V101.25L43.05 101.4L43.65 102L43.35 102.3L42.3 102.15L41.7 102L41.55 102.6H41.1L40.95 102.9L42.45 103.2L42.9 103.5L42.75 104.1L42 104.25L40.65 103.5V104.25L41.25 104.7L42.15 104.85L41.7 106.2L41.1 107.1H40.8L40.2 106.2L40.05 106.65L39.9 107.7L38.4 109.65L37.8 111L37.5 112.05L36.75 113.85L36.3 114.75H36L36.15 113.55L37.5 110.4L38.1 109.05L38.7 106.35V105.75L38.25 105.45L38.4 104.7L39 102.9L40.2 100.2L41.1 98.25L42.15 95.55H42.45L42.3 95.1L42 94.95V94.65L41.25 94.5L40.2 93.9V93.6H39.6V93.3L38.7 93L37.95 92.7L37.65 93.75L36.6 94.65L35.7 96L34.65 97.35L33.75 98.7L33.6 98.25L34.8 96.3L35.85 94.8L36.45 93.45H36.75L36.9 92.1V91.65L36.3 91.35V91.05L35.55 90.75V90.45L34.8 90.15L34.5 89.55L33.75 89.4L33.15 88.95V88.65L32.7 88.8L32.25 89.55L31.2 90.6L30.45 90.45L30.3 90L28.8 89.25L28.95 89.85L29.7 90.9L30 91.05V91.95H29.25L28.05 90.75L27.45 90.6L28.2 91.95L28.65 92.4V93.3L28.05 93.15L27.3 92.4L26.25 91.8L26.1 92.25L26.85 93.15L27.45 93.75L27.6 94.5L26.55 94.35L25.5 93.3H25.05L25.35 94.05L26.1 94.95L26.25 95.4H25.95L25.65 96H24L22.65 97.35L21.9 97.65V97.95L20.85 98.4L20.4 98.55L20.1 99.15L19.05 100.2L17.85 101.7L17.25 101.85V101.25L18.9 99.45L19.95 98.4L21 97.2L22.05 95.85L22.65 95.7L22.95 94.65L23.25 94.2H22.5L22.95 93.3L24.3 91.95H24.6L24.9 91.2L25.5 90.9L27.3 89.1L27.9 88.35H28.2V88.05L29.4 87L30.3 86.25L30.45 85.8L29.85 85.5L28.35 83.4L27.3 82.2V81.9L26.4 82.2L25.65 82.95L25.05 82.8L24.75 82.5L24.9 81.9L26.1 80.85V80.1L25.5 79.2V78.75H25.2L24.3 76.95L23.7 76.35L23.55 75.9L23.1 75.75L22.95 76.2H22.35L21.75 74.55H21.45L21.6 75.6L21.9 76.65L21.15 77.1L20.7 76.65L19.95 74.85V74.55H19.65V75.6L20.25 77.25V77.7H19.2L18.45 75.9L18 75.75L18.45 77.7L18.3 78.3L17.4 78.6L16.8 76.95L16.2 76.65L16.65 78.45V79.05L15.75 79.2L15 77.7V77.4L14.55 77.55L14.7 78.45L15 79.05V79.8L13.65 79.95L13.2 79.65H11.85L11.7 79.8L9.3 79.95V80.25L8.4 80.7L7.05 80.85L7.65 80.4L9.75 79.35H10.05V79.05L10.8 78.3L12.3 77.7V76.5L13.65 76.2L15.6 75.3L16.95 74.7L19.2 73.8H19.65V73.5H20.85L21.15 73.05L22.2 72.6V71.55L21.75 70.5L21.15 67.8L18.45 67.95H16.65V68.25L15 68.55H14.25L14.4 68.1L16.35 67.8L17.7 67.5L17.85 67.35L19.35 67.2L19.5 66.75H19.95V66.45H20.85L20.25 62.25V61.05H19.05L18.9 60.75L18.75 58.5L18.45 58.65L18.3 61.05L17.55 61.2L17.25 61.05L16.95 58.8H16.8L16.65 61.05L16.5 61.2H15.3V59.1L15.45 58.8L14.85 59.1L14.7 61.05H13.65L13.5 60.9V58.8H13.05L12.9 61.05L11.85 61.2L11.55 60.9V59.1H11.25L11.1 61.05L9.3 61.2L9.15 61.05V60.15H7.8L6.3 59.55L1.8 59.4L0 59.25L0.15 58.95H6.45L6.75 58.5L8.7 58.35L9 58.5V57.75L9.3 57.45H20.25V55.95L20.7 51.9L20.55 51.75L20.25 52.2H19.5L19.05 51.75L16.8 51L14.25 50.55V50.4H15.6L19.35 51.15V50.55L19.95 50.7V51H20.85L21.45 49.35L21.9 47.7L22.05 46.65H22.35V45.75H21.75L21.45 45.15L21.9 43.5L21.75 42.75L21.6 42.6L21 45L19.95 44.85L18.15 44.1L17.85 43.8L18.6 41.85L17.85 42.15L17.4 43.5L16.35 43.2L16.5 42.3L16.8 41.55L16.65 41.25L16.2 41.4L15.75 43.05L14.7 42.75L14.85 40.8L14.4 40.95L14.1 42.15L13.05 42V41.7L12.3 41.55L12.45 40.5L9.9 39.3L9.6 39V38.55L8.7 38.25L6 37.2L4.65 36.75V36.45H5.4V36.75H6.15V37.05L7.5 37.35L9.3 37.95L9.6 38.25L11.55 38.4L12.45 38.85H13.2L13.35 38.4L14.55 38.55L16.8 39.45L17.7 39.75L19.35 40.35L20.7 40.95L22.2 41.55L23.25 42H24L25.35 39.6L26.4 37.5L25.8 37.2L24.15 35.55L23.1 35.1L21.45 33.9L20.25 33L20.7 32.85L22.2 33.6L24.45 35.1L24.9 35.55L26.7 36.3L27.45 36.15L28.95 34.35L30.45 32.4V32.1L29.85 31.95L30 31.2L30.6 30.45L29.55 30.6V30.9L28.65 30.75L28.5 30.15L29.25 29.4H29.55L29.85 28.5L29.1 28.65L28.05 29.55L27.3 29.4L27.45 28.8L28.5 27.75L28.65 27.15L27.6 27.6L26.85 28.35H26.1L25.8 28.05L25.65 27.15L24.6 26.85V26.25H24L23.4 25.5L23.25 24.75L22.8 24.6L23.1 24L22.95 23.25L22.5 22.65L22.05 22.5L21.9 21.45H21.6L21.15 20.55L19.65 19.35V19.05L19.05 18.75L17.25 16.95V16.65L18 16.8L20.1 18.75L20.55 19.35L21.3 19.8L22.5 20.7L22.65 21.15L23.25 21.3V21.6L24 21.9L24.15 22.2H25.65L26.1 22.65L26.25 23.1L27.15 23.85L27.9 24.3L30 26.4L31.05 27.6L31.95 28.5V28.8L32.55 29.1V29.4L33.15 29.55L33.9 28.95L34.65 28.65L35.25 28.35V28.05L36.15 27.45L36.6 26.85L36.45 25.8L35.25 23.7L34.2 22.35L33.9 22.05L33.6 21L33.75 20.4L34.8 21.9L35.7 23.25L36.45 24.45L37.65 25.5V25.8L39.45 25.2L40.05 25.05V24.75L40.5 24.6L40.95 24.15L42.3 23.85V22.65L42.9 21.75L43.95 21.45L44.1 21.15L42.3 21.6L41.55 21.3L41.7 20.1H41.4L40.95 19.35L40.65 19.2L40.8 18.6L42 18.3L42.3 17.55L41.25 18L40.2 17.85L40.05 17.25L41.55 16.5H41.85V15.9L40.35 16.35H39.45L39.6 15.3L40.65 15H40.95L40.65 14.55L39.6 14.85H39L38.55 13.8V13.05L38.85 12.75V11.7L38.55 10.65L38.25 8.7L37.8 7.8V7.5H37.5L36.3 4.8L36.15 3.45L36.6 3.6L38.25 7.2L38.7 8.55L39.15 9.45L40.05 10.5L40.35 11.55H40.95V11.85L41.7 12L42 12.75H42.3L43.8 16.5L45.45 20.4L45.75 21V21.45H46.05V21.75L48.9 21L51.45 20.25H51.75V19.35H51.45V17.4L51.15 15.75V14.7H51.3L51.75 16.95L52.35 18.45L52.65 19.8H54.15L57.15 19.5L58.05 19.2L58.5 18.15H59.7L59.85 18L58.95 17.7L58.2 17.4V16.5L58.35 16.35L59.4 16.2L59.25 15.45H58.35L58.05 14.85V12.9L58.2 12.75H60.3V12.15L58.5 12L58.05 11.7L58.2 10.95L60.3 10.8L60.15 10.5L58.2 10.2L58.05 9.3L58.65 8.7H58.05V8.4L59.25 8.1V6.75L59.7 5.55H60V0ZM57.45 28.2L54.15 28.65L50.85 29.55L47.85 30.6L45.45 31.8L44.4 32.25V32.55L43.65 32.85L41.7 34.2L39.3 36.15L37.8 37.5L36.75 38.55L35.25 40.5L34.05 42.15L33 43.8L31.35 46.95L29.85 51.45L29.25 54.75L29.1 55.8V63.45L30 67.5L31.05 70.65L32.1 72.9L32.7 74.1H33L33.3 75.15L33.75 75.9H34.05L34.2 76.5L34.8 77.55L35.1 77.7L35.25 78.15L35.55 78.3L35.85 78.9H36.15L36.45 79.65L37.65 80.85H37.95V81.15L39.15 82.2L39.9 82.8L40.65 83.55L41.25 84H41.55V84.3L42.9 85.2L43.65 85.65H44.1V85.95L48.15 88.05L51.75 89.25L54.3 89.85L56.1 90.15H63.75L67.05 89.55L70.95 88.35V88.05L72.45 87.75L72.75 87.6V87.3L73.95 87L74.25 86.85V86.55H74.85V86.25L76.2 85.8L76.95 85.35V85.05L77.55 84.9L78.15 84.45V84.15H78.6V83.85L79.2 83.7L79.95 83.1V82.8H80.4V82.5L80.85 82.35L82.65 80.55L83.7 79.35L85.05 77.85V77.4H85.35L85.5 76.8H85.8L86.55 75.6V75.15H86.85L87.15 74.1H87.45L88.8 71.25L89.85 68.25L90.45 66L91.05 62.1V56.55L90.6 53.1L89.85 50.1L89.25 48.3L88.35 46.35L87.15 43.95L86.1 42.3L84.3 39.9L82.65 37.95L80.85 36.15L79.2 34.8L78.6 34.5V34.2L75.6 32.4L72.9 30.9L70.65 30L67.8 29.1L64.8 28.5L62.4 28.2H57.45Z" fill="#F48625"/>
<path d="M78.5984 52.1992L79.1984 52.3492L82.0484 53.2492L83.2484 53.8492L83.9984 54.4492L84.5984 55.0492L85.1984 56.5492L85.6484 58.1992L85.7984 61.0492L85.9484 69.8992L86.0984 70.6492L85.6484 70.7992H81.2984L81.1484 58.9492L80.9984 58.1992H80.6984L79.9484 57.4492L79.1984 56.9992L77.3984 56.8492V57.1492L76.6484 57.4492L75.5984 58.3492L75.2984 59.2492L75.1484 70.7992H70.7984V59.2492H70.4984L69.8984 57.8992L68.6984 57.1492L68.2484 56.9992H67.0484L65.5484 57.7492L65.0984 58.3492L64.6484 59.9992L64.4984 70.7992H60.1484V53.0992L60.2984 52.9492H63.8984L64.4984 53.9992L65.2484 53.8492L65.8484 53.6992V53.3992H66.2984V53.0992L67.0484 52.6492L67.1984 52.4992H69.5984L70.9484 52.9492V53.2492L71.6984 53.5492L72.2984 53.8492V54.1492L73.0484 54.4492L73.7984 54.5992L74.8484 53.6992L76.1984 52.9492L78.2984 52.4992L78.5984 52.1992Z" fill="#FEFBF9"/>
<path d="M57.4516 28.1992H62.4016L66.4516 28.7992L69.3016 29.5492L71.8516 30.4492L74.2516 31.6492L76.9516 33.1492L78.6016 34.1992V34.4992L79.2016 34.7992L81.3016 36.5992L83.2516 38.5492L84.9016 40.6492L86.1016 42.2992L87.3016 44.2492L88.5016 46.6492L89.4016 48.7492L90.3016 51.7492L90.9016 55.0492L91.0516 56.5492V62.0992L90.3016 66.7492L89.2516 70.0492L88.5016 71.9992L87.4516 74.0992H87.1516L86.8516 75.1492H86.5516L86.4016 75.7492L85.8016 76.7992H85.5016L85.3516 77.3992H85.0516L84.9016 77.9992L83.2516 79.7992L82.2016 80.9992L81.0016 82.0492L80.7016 82.4992H80.4016V82.7992H79.9516L79.6516 83.3992L79.0516 83.8492H78.6016V84.1492H78.1516L77.8516 84.7492L77.4016 85.0492H76.9516V85.3492L75.1516 86.2492H74.8516V86.5492H74.2516V86.8492L73.0516 87.2992H72.7516V87.5992L71.2516 88.0492H70.9516V88.3492L67.0516 89.5492L63.7516 90.1492H56.1016L52.8016 89.5492L49.0516 88.3492L47.2516 87.5992L44.1016 85.9492V85.6492L43.3516 85.4992L41.8516 84.4492L41.5516 84.2992V83.9992L40.8016 83.6992L40.0516 83.0992L38.2516 81.2992L37.9516 81.1492V80.8492L37.3516 80.5492L36.6016 79.7992L36.1516 79.1992V78.8992L35.7016 78.7492L35.5516 78.2992L35.2516 78.1492L35.1016 77.6992L34.5016 77.0992L34.0516 76.3492V75.8992H33.7516L33.0016 74.3992V74.0992H32.7016L31.3516 71.3992L30.4516 68.9992L29.7016 66.2992L29.1016 63.4492V55.7992L29.7016 52.1992L30.6016 49.0492L31.6516 46.3492L33.3016 43.1992L34.8016 41.0992L36.4516 38.9992L37.8016 37.4992L38.8516 36.4492L40.9516 34.7992L42.9016 33.2992L44.1016 32.5492H44.4016V32.2492L46.8016 31.0492L49.5016 29.9992L52.3516 29.0992L55.0516 28.4992L57.4516 28.1992ZM56.8516 29.6992L53.7016 30.1492L50.5516 31.0492L47.5516 32.2492L46.0516 32.9992L45.4516 33.1492V33.4492L44.7016 33.7492L43.0516 34.7992L42.4516 35.0992L42.3016 35.3992L41.8516 35.5492L40.5016 36.8992L39.7516 37.3492L39.6016 37.6492L38.8516 38.0992V38.3992L38.2516 38.6992L37.3516 39.8992L36.9016 40.3492V40.7992L36.3016 41.0992L36.0016 41.9992H35.7016L33.9016 45.1492L32.7016 47.3992L31.3516 51.5992L30.6016 55.1992L30.4516 56.5492V61.7992L30.9016 64.9492L31.8016 68.6992L32.2516 69.8992L33.1516 71.9992L34.2016 73.9492L35.1016 75.5992L36.3016 77.2492L37.5016 78.7492L38.1016 79.0492L38.4016 79.6492L40.6516 81.8992L42.7516 83.5492H43.2016V83.8492H43.6516V84.1492H44.1016V84.4492L45.1516 85.0492H45.6016V85.3492L48.9016 86.8492L52.2016 88.0492L56.4016 88.7992L58.2016 88.9492H61.6516L64.5016 88.6492L67.3516 88.0492L70.2016 87.2992L70.6516 86.9992L72.1516 86.5492L73.3516 85.9492V85.6492L74.7016 85.1992L76.3516 84.1492L78.9016 82.3492L81.4516 79.9492L83.1016 78.1492L84.7516 75.8992L86.2516 73.3492L87.1516 71.5492L88.3516 68.3992L88.9516 66.1492L89.7016 62.0992V56.6992L89.4016 54.5992L88.5016 50.8492L87.1516 47.0992L85.8016 44.5492L85.6516 44.0992H85.3516L85.2016 43.3492H84.9016V42.8992H84.6016L84.4516 42.2992L83.5516 41.0992L83.4016 40.7992H83.1016L82.9516 40.1992H82.6516L82.3516 39.4492L81.9016 39.2992L81.6016 38.6992L80.4016 37.4992L79.2016 36.4492L78.4516 35.8492H78.1516V35.5492L75.9016 34.0492L74.5516 33.2992L72.9016 32.3992L71.7016 31.9492L70.3516 31.3492L67.6516 30.4492L64.5016 29.8492L63.0016 29.6992H56.8516Z" fill="#FEF5EE"/>
<path d="M38.5516 52.8008L39.1516 52.9508L39.9016 54.6008L40.8016 56.8508L41.7016 59.5508L42.4516 61.3508L42.6016 62.5508L42.9016 62.4008L45.0016 57.4508L46.3516 54.3008L46.8016 53.1008L47.4016 52.9508L51.4516 53.1008L51.3016 54.3008L50.1016 57.3008L49.6516 58.3508L48.1516 61.9508L47.7016 63.0008L46.9516 64.6508L46.2016 66.7508L45.6016 67.9508L45.1516 69.3008H44.8516L44.5516 70.6508L44.4016 70.9508H41.4016L40.9516 70.3508L40.5016 68.8508L39.9016 67.6508L39.0016 65.1008L38.4016 63.9008L37.6516 61.9508L36.9016 60.1508L35.8516 57.6008L35.1016 55.3508L34.3516 53.5508V52.9508L38.5516 52.8008Z" fill="#FEFBF8"/>
<path d="M53.0992 52.9492H57.2992V70.7992H52.9492V53.2492L53.0992 52.9492Z" fill="#FEFBFA"/>
<path d="M93.4492 90.1504L94.0492 90.6004V90.9004H94.3492V91.2004L94.9492 91.5004L95.0992 92.2504L95.9992 92.5504L96.7492 93.3004L97.0492 93.7504V94.8004L97.3492 95.8504L97.9492 96.1504L98.8492 97.5004L99.7492 98.5504L100.499 99.3004L100.799 99.9004L101.399 100.2V100.5L101.999 100.65L102.449 101.55H101.699L101.099 100.65L100.649 100.2V99.9004L100.049 99.6004L98.8492 98.2504L98.0992 97.6504L96.2992 96.7504L95.8492 96.3004V96.0004H94.1992L93.5992 95.8504V94.9504L93.8992 94.5004H94.1992V94.2004L94.6492 93.9004L94.7992 93.3004L93.5992 94.3504L93.2992 94.6504L91.9492 94.3504L91.7992 93.6004L91.1992 93.4504L91.3492 92.7004H91.7992L92.0992 92.1004L93.1492 91.2004L93.4492 90.1504Z" fill="#F48728"/>
<path d="M25.5 90.9004L26.1 91.0504L26.85 91.9504L26.25 91.8004L26.1 92.2504L26.85 93.1504L27.45 93.7504L27.6 94.5004L26.55 94.3504L25.5 93.3004H25.05L25.35 94.0504L26.1 94.9504L26.25 95.4004H25.95L25.65 96.0004H24L22.65 97.3504L21.9 97.6504V97.9504L20.85 98.4004L20.4 98.5504L20.1 99.1504L19.05 100.2L17.85 101.7L17.25 101.85V101.25L18.9 99.4504L19.95 98.4004L21 97.2004L22.05 95.8504L22.65 95.7004L22.95 94.6504L23.25 94.2004H22.5L22.95 93.3004L24.3 91.9504H24.6L24.9 91.2004L25.5 90.9004Z" fill="#F48728"/>
<path d="M52.9492 47.5508H57.2992V51.1508L57.1492 51.3008L55.0492 51.4508H53.0992L52.9492 51.3008V47.5508Z" fill="#FEF8F4"/>
<path d="M90.7492 87.5996L91.7992 88.4996L92.5492 89.2496L93.4492 89.9996V90.7496V91.1996L91.9492 92.3996L91.7992 92.6996L91.3492 92.8496L91.1992 93.1496H90.8992L91.0492 92.3996L92.0992 91.1996L92.5492 91.0496L92.6992 90.4496L91.9492 90.5996L90.7492 91.6496L90.4492 91.9496L89.8492 91.7996L89.6992 91.0496L91.1992 89.5496L91.3492 89.2496L89.8492 89.9996L89.3992 90.1496L89.0992 90.7496L88.1992 90.4496L88.3492 89.5496L89.8492 88.3496L90.5992 88.1996L90.7492 87.5996Z" fill="#F38525"/>
<path d="M27.5984 89.0996L28.3484 89.3996L29.0984 90.1496L29.6984 90.8996L29.9984 91.0496V91.9496H29.2484L28.0484 90.7496L27.4484 90.5996L28.1984 91.9496L28.6484 92.3996V93.2996L28.0484 93.1496L26.5484 91.6496L25.6484 90.8996V90.5996L26.3984 90.1496L26.6984 89.5496L27.5984 89.0996Z" fill="#F08324"/>
<path d="M58.0484 99.3008L58.1984 99.9008V100.051L59.8484 100.201L60.4484 100.501V100.801H58.1984V101.851H59.3984L60.2984 102.151V102.751H58.1984V103.801H59.3984V104.101L60.2984 103.951V104.401L59.8484 104.551H58.1984L58.3484 105.451L60.4484 105.751V106.051L58.3484 106.351V107.401L59.2484 107.701V108.301H58.0484L58.1984 108.001H58.0484V106.201L58.4984 105.901L58.0484 105.601V104.401H58.3484V104.101H58.0484V102.001L57.8984 101.701V100.801L58.0484 100.351L57.8984 99.7508L58.0484 99.3008Z" fill="#FECF9E"/>
<path d="M60.7516 110.4H60.9016L61.0516 112.35H60.7516L60.6016 114.45L60.4516 120L60.0016 119.85L59.7016 117.45V113.25L59.1016 112.5L59.2516 112.05L59.4016 112.35L60.0016 112.65V113.4H60.3016L60.6016 111.75L60.7516 110.4Z" fill="#FDC286"/>
<path d="M21.45 96.5996L21.9 96.7496L21.75 97.4996L21.6 97.6496L21.9 97.9496L20.85 98.3996L20.4 98.5496L20.1 99.1496L19.05 100.2L17.85 101.7L17.25 101.85V101.25L18.9 99.4496L19.95 98.3996L21 97.1996L21.45 96.5996Z" fill="#FDC892"/>
<path d="M115.201 36.1504L115.351 36.6004L113.551 37.5004L110.551 38.5504L109.801 39.1504L109.951 38.5504H108.301V38.4004L110.101 38.1004L114.601 36.3004L115.201 36.1504Z" fill="#FDC388"/>
<path d="M17.25 16.6504L18 16.8004L20.1 18.7504L20.55 19.3504L21.3 19.8004L22.5 20.7004L21.9 21.0004V20.7004L21.45 20.5504L19.65 19.3504V19.0504L19.05 18.7504L17.25 16.9504V16.6504Z" fill="#FCBE80"/>
<path d="M102.3 16.5H102.6L102.3 17.25L101.7 18L100.2 19.2L99.15 20.4L98.85 20.25L98.25 20.4L98.55 19.8L101.1 17.4L102.3 16.5Z" fill="#FDC48A"/>
<path d="M25.0484 24.9004H25.7984L25.9484 25.2004L24.7484 25.9504L24.8984 26.4004L24.7484 26.7004H25.9484L26.6984 26.1004L27.4484 26.2504L27.1484 26.7004H26.8484L26.6984 27.1504L25.9484 27.3004L26.2484 28.3504L25.7984 28.0504L25.6484 27.1504L24.5984 26.8504V26.2504H23.9984L23.3984 25.5004L23.5484 25.2004L24.2984 25.8004L24.4484 25.9504L24.5984 25.2004L25.0484 24.9004Z" fill="#FDC790"/>
<path d="M60.0016 0H60.4516V5.85H59.8516L60.0016 0Z" fill="#F39542"/>
<path d="M36.1484 3.44922L36.5984 3.59922L38.2484 7.19922L38.0984 7.49922L37.7984 7.04922L37.4984 7.49922L36.2984 4.79922L36.1484 3.44922Z" fill="#FCBB7C"/>
<path d="M84.1484 93.75L84.4484 93.9L84.8984 94.95L85.4984 95.7L86.2484 96.45L86.6984 98.1L86.2484 97.95L86.0984 97.65L85.6484 97.5L85.0484 96.3L84.5984 95.7L84.1484 94.65V93.75Z" fill="#FECD9A"/>
<path d="M26.0992 90.75L26.8492 91.05L27.8992 91.5L28.6492 92.4V93.3L28.0492 93.15L26.5492 91.65L25.9492 90.9L26.0992 90.75Z" fill="#E37820"/>
<path d="M98.1008 20.4004V20.8504L97.3508 21.3004L97.0508 21.1504L96.9008 21.7504L96.0008 22.3504L95.5508 23.1004H95.2508L94.8008 22.0504L95.8508 21.7504L96.1508 21.1504L96.9008 20.7004L97.3508 20.8504L98.1008 20.4004Z" fill="#FECD9A"/>
<path d="M20.25 32.8496L21.15 32.9996L23.85 34.6496L24.45 35.2496H23.25L20.25 32.9996V32.8496Z" fill="#FDC389"/>
<path d="M33.6016 20.4004L34.2016 21.0004L35.5516 23.1004L36.1516 23.8504L36.0016 24.7504L35.4016 24.0004L34.3516 22.5004L33.9016 22.0504L33.6016 21.0004V20.4004Z" fill="#FDC890"/>
<path d="M92.9992 91.6504H93.2992V91.9504H93.7492L93.5992 92.5504L92.3992 93.6004L92.2492 94.3504H91.9492L91.7992 93.6004L91.1992 93.3004L92.3992 92.2504L92.9992 91.6504Z" fill="#FDBE7F"/>
<path d="M26.2492 91.6504L27.7492 92.5504L28.0492 93.1504L28.3492 93.3004L27.7492 93.6004L27.5992 94.2004L27.1492 93.6004V93.3004L26.5492 93.0004L25.9492 92.1004L26.2492 91.6504Z" fill="#FED09F"/>
<path d="M91.5 27.1504L92.25 27.3004L93 28.0504L93.45 28.2004L93.9 27.7504L93.75 28.3504L92.85 28.8004H92.55L92.4 29.7004L91.95 29.5504V29.2504H92.25L91.8 28.2004L91.5 27.6004V27.1504Z" fill="#FECD9A"/>
<path d="M28.6484 89.0996L29.8484 89.6996L30.8984 90.5996L30.5984 90.7496L30.2984 91.3496L29.9984 91.7996V91.0496L29.3984 90.7496L28.6484 89.6996V89.0996Z" fill="#FECC99"/>
<path d="M93.2984 90.1504L93.4484 90.7504V91.2004L91.9484 92.4004L91.7984 92.7004L91.3484 92.8504L91.1984 93.1504H90.8984L91.0484 92.4004L92.0984 91.2004L92.9984 90.6004L93.2984 90.1504Z" fill="#DE751F"/>
<path d="M41.6992 98.8496L42.4492 98.9996L44.2492 99.8996L44.0992 100.65L43.3492 100.8L42.5992 100.05L42.1492 99.4496V99.1496H41.6992V98.8496Z" fill="#DF7620"/>
<path d="M98.5508 33L99.0008 33.15L97.6508 34.35L95.5508 35.85L95.1008 36.3L94.8008 36.15L95.2508 35.4L96.0008 34.8L97.2008 33.9L98.5508 33Z" fill="#FDC58D"/>
<path d="M36.1516 94.0508L36.7516 94.3508L35.8516 95.8508L34.9516 96.9008L33.9016 98.5508L33.6016 98.7008L33.7516 97.9508L34.8016 96.3008L35.8516 94.8008L36.1516 94.0508Z" fill="#FAAE66"/>
<path d="M77.7008 16.0508H79.2008L80.1008 16.3508L80.2508 16.0508L80.1008 16.8008L79.8008 17.5508L79.6508 17.1008L78.4508 16.9508L77.5508 16.3508L77.7008 16.0508Z" fill="#FECD9A"/>
<path d="M42.3008 99.9004L42.9008 100.2L43.3508 100.65H43.9508L44.2508 100.35L44.1008 100.95L43.6508 101.4L43.5008 101.85L42.4508 101.4L41.5508 101.25V100.95L42.1508 100.8V100.2L42.3008 99.9004Z" fill="#FED09F"/>
<path d="M42.5992 98.25L43.1992 98.55L44.0992 98.85H44.8492L44.3992 100.35L44.2492 99.9L43.4992 99.75L42.4492 98.85L42.5992 98.25Z" fill="#FED09F"/>
<path d="M90.9016 89.25H91.3516L91.0516 89.85L89.8516 91.05L89.5516 91.65L89.4016 91.05L88.6516 90.9V90.6L88.3516 90.45L89.1016 90.6L89.8516 89.85L90.9016 89.25Z" fill="#FECE9B"/>
<path d="M92.1 90.3008H92.85L92.55 91.0508L91.35 92.1008L90.9 92.5508L90.6 92.1008L90 91.9508L90.75 91.5008L92.1 90.3008Z" fill="#FED1A1"/>
<path d="M19.65 74.5508H19.95L20.55 75.7508L21 77.2508L20.25 77.5508L19.5 75.6008L19.65 74.5508Z" fill="#FED09F"/>
<path d="M42.7516 97.6504H43.5016L45.0016 98.2504L44.7016 99.0004L43.5016 98.8504L42.6016 98.1004L42.7516 97.6504Z" fill="#DE751F"/>
<path d="M57.8984 8.40039L58.6484 8.70039L58.3484 9.30039H58.0484L58.1984 10.2004L60.1484 10.3504L60.4484 10.9504L58.0484 11.1004V10.8004L58.4984 10.3504L57.8984 10.2004V8.40039Z" fill="#FECB96"/>
<path d="M113.101 80.6992L114.451 81.1492L115.951 82.0492L116.251 82.3492H115.051L113.101 81.4492L112.801 81.1492H113.251L113.101 80.6992Z" fill="#FDC68E"/>
<path d="M78.7492 19.3496V19.7996L78.4492 19.9496V20.3996L78.2992 21.1496L77.8492 20.6996L77.2492 20.3996L76.1992 20.0996L76.3492 19.4996H78.4492L78.7492 19.3496Z" fill="#FDBF81"/>
<path d="M41.5492 101.85L42.5992 102.15H43.3492L43.6492 102L43.3492 102.6H42.8992L42.7492 103.35L40.9492 102.9L41.0992 102.45L41.5492 102.6V101.85Z" fill="#FECB96"/>
<path d="M20.7 98.0996L21 98.2496L20.4 98.5496L20.1 99.1496L19.05 100.2L17.85 101.7L17.25 101.85V101.25L18.75 99.8996L20.25 98.3996L20.7 98.0996Z" fill="#FCBB7B"/>
<path d="M28.05 27.1504H28.65L28.5 27.9004L27.45 28.9504V29.5504H27.15V28.6504L26.25 28.5004L26.85 28.2004L28.05 27.1504Z" fill="#FECA94"/>
<path d="M50.85 100.65L51.15 100.95L51.3 101.85L50.55 105.3H50.25L50.4 103.05L50.85 100.65Z" fill="#FCC083"/>
<path d="M28.5008 27.75H29.1008L29.2508 28.5L28.0508 29.55L27.3008 29.4L27.4508 28.8L28.5008 27.75Z" fill="#E67B21"/>
<path d="M24.3 82.6504L24.45 83.1004L23.7 83.5504H23.4L23.25 84.0004L21.3 85.2004L20.25 85.5004V85.2004L23.25 83.4004H23.55L23.7 82.9504L24.3 82.6504Z" fill="#FBB673"/>
<path d="M18.0016 75.5996L18.6016 75.8996L19.2016 77.3996V77.6996H19.9516V77.8496L18.4516 77.9996L17.8516 76.0496L18.0016 75.5996Z" fill="#FECF9D"/>
<path d="M19.95 42.4492L20.4 42.7492V43.4992L19.8 44.6992L18.75 44.3992V44.0992L19.35 43.9492V43.0492L19.95 42.4492Z" fill="#FCBE80"/>
<path d="M83.4008 3.30078L83.5508 3.75078L83.1008 5.25078L82.8008 6.00078H82.5008L82.3508 6.75078L81.4508 8.85078L81.1508 9.60078L80.5508 9.90078L81.1508 8.70078L82.2008 6.30078L82.5008 5.25078H82.8008L83.1008 3.75078L83.4008 3.30078Z" fill="#E37920"/>
<path d="M30.4484 88.0508L31.1984 88.3508L31.7984 89.1008V89.4008L32.2484 89.5508L31.4984 90.3008L31.1984 90.4508L31.0484 89.5508L30.1484 88.6508V88.3508H30.4484V88.0508Z" fill="#FDC082"/>
<path d="M21.6008 42.4492L22.0508 43.0492L21.7508 44.6992L21.6008 45.2992L21.7508 45.5992L20.5508 44.9992H21.0008L21.1508 44.0992L21.4508 42.5992L21.6008 42.4492Z" fill="#FECB97"/>
<path d="M29.2492 28.3496L29.8492 28.4996L29.6992 29.0996L28.3492 30.4496L28.0492 29.8496L27.4492 29.5496L28.1992 29.2496L29.2492 28.3496Z" fill="#FECC99"/>
<path d="M80.8484 14.25L80.9984 14.7L80.8484 15H80.5484L80.3984 15.6V15.3L78.4484 15.15L78.1484 15L78.2984 14.55H80.8484V14.25Z" fill="#FEC994"/>
<path d="M90.2992 90.4492L91.0492 90.5992L91.6492 90.4492L91.3492 91.0492L90.4492 91.9492L89.8492 91.7992L89.6992 91.0492L90.2992 90.4492Z" fill="#E07620"/>
<path d="M58.0508 13.0508L58.2008 13.6508L60.3008 13.8008L60.4508 14.1008H60.1508L60.3008 14.5508L58.0508 14.7008V13.0508Z" fill="#FDBE7F"/>
<path d="M27.4508 90.4492L28.2008 90.7492L29.2508 91.7992L29.8508 92.0992L28.5008 92.3992L27.7508 91.4992L27.3008 90.5992L27.4508 90.4492Z" fill="#FDBE7F"/>
<path d="M101.7 75.75H102L101.85 76.8L101.4 77.7L100.95 78.15L100.8 77.55L100.5 77.4L101.25 76.05L101.7 75.75Z" fill="#FECC98"/>
<path d="M82.3516 112.051H82.9516L83.2516 112.351L83.8516 114.751H83.2516L83.1016 114.451V113.551H82.8016L82.3516 112.501V112.051Z" fill="#F9A95E"/>
<path d="M58.0484 99.3008L58.1984 99.9008V100.051L59.8484 100.201L60.4484 100.501V100.801H58.1984V101.851L57.8984 101.701V100.801L58.0484 100.351L57.8984 99.7508L58.0484 99.3008Z" fill="#FECB96"/>
<path d="M40.65 103.5L41.55 103.8L42.15 104.1L42.75 104.25L42.45 104.55L42.15 105.15V104.85H41.25L40.5 104.1L40.65 103.5Z" fill="#FECD9A"/>
<path d="M25.0484 93.1504L25.6484 93.3004L26.3984 93.9004L26.8484 94.5004L26.0984 95.2504L25.7984 94.6504L25.1984 94.0504L24.8984 93.3004L25.0484 93.1504Z" fill="#FEC993"/>
<path d="M43.3508 97.0508L44.4008 97.2008L45.3008 97.5008L45.6008 97.3508L45.0008 98.5508L44.8508 98.2508L43.5008 97.8008L43.0508 97.5008V97.2008L43.3508 97.0508Z" fill="#FECD9A"/>
<path d="M58.0508 14.8496L58.5008 15.2996H59.4008V16.1996H60.3008V16.3496L58.3508 16.4996V17.2496L58.0508 16.9496V14.8496Z" fill="#FDBE7F"/>
<path d="M14.5484 77.4004H14.9984L15.7484 79.0504L16.3484 79.3504L14.9984 79.6504L14.3984 78.0004L14.5484 77.4004Z" fill="#FED09F"/>
<path d="M37.5 110.4L37.65 110.85L37.05 112.5L37.2 112.8L36.45 114.6L36 114.75L36.15 113.55L37.5 110.4Z" fill="#FCBC7E"/>
<path d="M103.051 40.9492L103.651 41.0992L104.251 42.8992L103.351 43.3492L103.051 41.9992V40.9492Z" fill="#FECF9D"/>
<path d="M58.0508 11.6992L60.3008 12.1492V12.7492L58.0508 12.8992V12.5992H58.3508L58.0508 11.6992Z" fill="#FED1A2"/>
<path d="M77.55 17.6992L79.5 17.8492V18.1492L79.2 18.2992V19.1992L78.9 19.3492V18.8992L77.55 18.4492L77.25 17.8492L77.55 17.6992Z" fill="#FECE9B"/>
<path d="M41.4008 16.6504L41.8508 16.8004L41.7008 17.2504V17.7004L41.2508 18.0004L40.2008 17.8504L40.0508 17.2504L41.4008 16.6504Z" fill="#E27923"/>
<path d="M95.8516 83.0996L96.6016 83.2496L97.0516 83.5496V83.8496L97.6516 83.9996L99.0016 84.8996L99.3016 85.4996L98.2516 85.0496V84.7496H97.8016V84.4496L97.2016 84.2996V83.9996L96.4516 83.8496L95.8516 83.2496V83.0996Z" fill="#F39D4F"/>
<path d="M89.6992 28.5L90.5992 28.65L91.6492 29.55L92.2492 29.85L90.8992 30.15L90.7492 29.7L90.1492 29.4L89.6992 28.8V28.5Z" fill="#FECE9C"/>
<path d="M4.64844 36.4492H5.39844V36.7492H6.14844V37.0492L7.49844 37.3492L9.29844 37.9492L9.44844 38.2492L8.39844 38.0992L5.99844 37.1992L4.64844 36.7492V36.4492Z" fill="#F08E39"/>
<path d="M41.2492 15.9004H41.8492V16.5004L40.6492 17.1004L40.0492 17.2504V16.6504L39.4492 16.3504L41.2492 15.9004Z" fill="#FECE9B"/>
<path d="M41.3984 101.25H42.4484L43.4984 101.7V102.15L43.3484 102.3L42.2984 102.15L41.8484 102V101.7L41.3984 101.55V101.25Z" fill="#E07720"/>
<path d="M18 41.8496H18.6L18.3 43.1996L17.85 43.9496L17.25 43.6496L17.7 42.1496L18 41.8496Z" fill="#FECD9A"/>
<path d="M16.3516 41.0996L16.8016 41.2496L16.9516 41.6996L16.3516 43.1996H15.6016L16.0516 41.3996L16.3516 41.0996Z" fill="#FECB96"/>
<path d="M41.3984 20.5508L41.6984 20.7008V21.3008L42.4484 21.4508L43.1984 21.1508H44.0984L43.9484 21.6008L42.7484 22.0508L42.4484 22.3508H41.8484L41.9984 21.7508L41.3984 21.4508V20.5508Z" fill="#FECC98"/>
<path d="M58.0508 12.9004H60.4508L60.7508 13.0504L60.6008 13.6504H59.7008L59.4008 13.5004H58.2008L58.0508 12.9004Z" fill="#DB731F"/>
<path d="M40.8008 103.051L42.4508 103.201L42.9008 103.501L42.7508 104.101L42.0008 104.251L41.1008 103.651V103.351H40.8008V103.051Z" fill="#E17720"/>
<path d="M105.3 77.0996L105.6 77.3996L104.7 78.7496L104.55 79.4996L104.4 78.8996H104.1L103.95 79.3496L103.5 79.1996L103.95 78.7496L104.55 77.5496L105.3 77.0996Z" fill="#FECD9A"/>
<path d="M21.4508 74.4004L21.9008 74.5504L22.3508 75.7504V76.2004L22.8008 76.3504L22.2008 76.5004L22.0508 76.8004L21.7508 76.6504L21.3008 75.1504L21.4508 74.4004Z" fill="#FECF9E"/>
<path d="M103.051 76.6504H103.651L103.501 77.5504L103.051 79.0504L102.751 78.4504L102.301 78.1504L102.601 77.7004L102.901 76.8004L103.051 76.6504Z" fill="#FECE9C"/>
<path d="M58.1992 100.801L60.4492 100.951L60.7492 101.101L60.5992 101.701L58.4992 101.401V101.101H58.1992V100.801Z" fill="#DB731F"/>
<path d="M94.0508 24.75H94.8008L95.5508 25.8L95.4008 26.1H95.1008V27L94.5008 27.15L94.6508 26.7H94.9508L94.6508 25.8L94.0508 25.2V24.75Z" fill="#FECE9D"/>
<path d="M103.05 58.5L103.5 58.65V61.05L103.2 60.9L103.05 61.2L102.75 61.05L102.9 58.8L103.05 58.5Z" fill="#FECC97"/>
<path d="M104.701 40.8008L105.301 40.9508L105.601 41.7008V42.1508L106.201 42.3008L105.001 42.7508L104.851 42.1508L104.551 41.5508L104.701 40.8008Z" fill="#FEE2C6"/>
<path d="M15 58.8008H15.45L15.3 60.4508L14.85 61.2008H13.5L13.65 60.9008L14.7 61.0508V59.1008L15 58.8008Z" fill="#FECB97"/>
<path d="M106.652 58.6504L107.102 58.8004L107.252 61.0504L106.802 60.6004L106.652 61.2004L106.352 61.0504L106.502 58.8004L106.652 58.6504Z" fill="#FECA95"/>
<path d="M107.698 40.0508H108.448L108.148 40.8008L107.698 40.6508V41.5508H107.398L107.248 42.0008L106.648 41.8508L107.098 41.7008L106.948 40.5008L107.698 40.0508Z" fill="#FECB96"/>
<path d="M76.0484 20.8496L76.7984 21.1496L77.8484 21.2996V21.7496L77.6984 21.8996V22.6496L75.8984 21.2996L76.0484 20.8496Z" fill="#FECA95"/>
<path d="M89.7 87.9004H90.15L89.85 88.5004L88.5 89.5504L88.2 90.0004L88.05 89.4004L87.75 89.1004H88.35V88.8004L89.7 87.9004Z" fill="#FECC98"/>
<path d="M99.75 75.3008H100.2L100.35 75.7508L99.75 77.1008L99.3 77.5508L99 77.2508H99.3V76.2008L99.75 75.3008Z" fill="#FECE9D"/>
<path d="M79.6508 10.3496H79.9508L79.5008 11.6996L79.3508 11.8496H78.3008L79.2008 10.4996L79.6508 10.3496Z" fill="#FED8B1"/>
<path d="M58.5 102.6L59.4 102.75L60.6 102.9V103.5L58.8 103.35L58.5 103.2V102.6Z" fill="#DC741F"/>
<path d="M11.2508 58.9492L11.7008 59.0992V60.8992L11.8508 61.1992H11.2508H10.0508V61.0492H11.1008V59.0992L11.2508 58.9492Z" fill="#FECA95"/>
<path d="M97.9492 74.25L98.2492 74.4L98.0992 75.9L97.7992 76.65L97.1992 76.35H97.4992V74.85L97.9492 74.25Z" fill="#FDE6CE"/>
<path d="M76.5 98.6992H77.25L76.95 99.2992L75.75 99.7492H75.45V99.2992L75 99.1492L76.5 98.6992Z" fill="#FECD9A"/>
<path d="M13.0492 58.8008H13.4992V60.7508H13.1992L13.0492 61.2008L12.4492 61.0508H12.8992V59.4008L13.0492 58.8008Z" fill="#FECD9A"/>
<path d="M76.9492 18.1504L78.2992 18.6004L79.0492 18.9004L78.8992 19.3504L77.5492 19.2004V18.9004L77.0992 18.7504L76.9492 18.1504Z" fill="#DD751F"/>
<path d="M58.1992 10.9492H59.3992L60.4492 11.0992L60.2992 11.6992L58.1992 11.5492V10.9492Z" fill="#DB731F"/>
<path d="M101.398 41.8496L101.998 42.1496L102.448 43.1996V43.6496L101.548 43.4996L101.398 43.0496V41.8496Z" fill="#FED0A0"/>
<path d="M69.4516 12.9004H69.7516L69.4516 14.4004L68.8516 16.3504H68.5516L68.4016 17.2504L68.1016 17.5504L68.4016 16.2004L68.5516 15.7504H68.8516L69.1516 14.2504L69.4516 12.9004Z" fill="#F6A65C"/>
<path d="M93 81.5996L94.2 81.8996V81.5996L94.95 81.8996L95.4 82.7996L94.05 82.3496L93 81.7496V81.5996Z" fill="#E17822"/>
<path d="M58.2008 106.051H59.4008V106.201L58.3508 106.351V107.401L59.2508 107.701V108.301H58.0508L58.2008 108.001H58.0508V106.201L58.2008 106.051Z" fill="#FDC58B"/>
<path d="M88.9508 29.8496L89.7008 29.9996L90.4508 30.8996L89.7008 31.1996L88.9508 30.5996L88.8008 30.1496L88.9508 29.8496Z" fill="#FED1A1"/>
<path d="M92.3984 25.8008H93.1484L94.1984 26.7008L93.5984 27.1508L92.5484 26.2508L92.3984 25.8008Z" fill="#FEC994"/>
<path d="M17.25 16.6504L18 16.8004L19.2 17.8504L18.6 18.3004L17.25 16.9504V16.6504Z" fill="#FDC084"/>
<path d="M40.65 14.4004L40.95 14.5504V15.0004L39.75 15.3004L39.6 16.0504L39.3 15.4504V15.1504H39V14.8504L40.65 14.4004Z" fill="#FECA95"/>
<path d="M16.7984 58.6504L17.0984 58.8004L17.2484 59.7004V61.0504L16.9484 60.7504L16.6484 60.9004V58.8004L16.7984 58.6504Z" fill="#FECF9E"/>
<path d="M41.9984 17.5508H42.2984L42.1484 18.3008L41.6984 18.6008L40.6484 18.7508L40.7984 18.0008L41.9984 17.5508Z" fill="#FECE9B"/>
<path d="M58.5 104.551H60.45L60.6 105.301H59.85L58.8 105.001V104.701L58.5 104.551Z" fill="#DC741F"/>
<path d="M75.45 97.1992H76.35L76.5 97.6492L75.15 97.9492L74.85 98.6992H74.7V97.9492L74.85 97.7992L74.25 97.4992L75.45 97.1992Z" fill="#FED1A1"/>
<path d="M58.1992 17.4004L59.5492 17.7004L59.9992 18.0004L59.6992 18.3004H58.4992L58.1992 18.9004V17.4004Z" fill="#FEC994"/>
<path d="M77.6984 100.051H77.9984L77.8484 100.651L77.3984 101.101L76.6484 101.551L76.3484 101.401L76.4984 100.951L75.8984 100.801L76.9484 100.651L77.6984 100.051Z" fill="#FECC98"/>
<path d="M14.3984 40.8008H14.8484V42.0008L14.6984 42.6008H14.3984V42.3008H13.6484L14.0984 42.1508L14.2484 40.9508L14.3984 40.8008Z" fill="#FED09F"/>
<path d="M22.5 34.1992L23.4 34.3492L24.45 35.0992L24 35.2492H23.25L22.5 34.6492V34.1992Z" fill="#FCBC7E"/>
<path d="M77.8484 104.1L79.4984 104.25L79.1984 104.7L77.9984 104.85L77.6984 105.15L77.3984 104.25L77.8484 104.1Z" fill="#FDC185"/>
<path d="M6.74922 80.8496L7.04922 80.9996L4.94922 82.0496L3.89922 82.4996L3.44922 82.3496L5.09922 81.4496L6.74922 80.8496Z" fill="#F9AD67"/>
<path d="M42.8984 19.3496H43.3484L43.1984 19.9496L41.8484 20.5496L41.6984 20.0996L41.3984 19.9496L42.2984 19.6496L42.8984 19.3496Z" fill="#FDC185"/>
<path d="M58.1992 14.5508L60.5992 14.7008L60.4492 15.3008L58.1992 15.0008V14.5508Z" fill="#DB731F"/>
<path d="M103.651 50.25H104.401L103.951 50.55L102.751 50.7V51L101.851 51.15V50.7L101.551 50.55L103.651 50.25Z" fill="#F39949"/>
<path d="M50.5508 12.9004H51.0008L51.3008 14.1004L51.1508 15.7504H51.0008L50.5508 12.9004Z" fill="#FDC68E"/>
<path d="M58.0508 104.551H58.2008L58.3508 105.451L60.4508 105.751V106.051L59.7008 106.201L58.5008 106.051L58.0508 105.601V104.551Z" fill="#FDC68D"/>
<path d="M113.101 80.6992L114.451 81.1492V81.7492L113.251 81.5992L112.801 81.1492H113.251L113.101 80.6992Z" fill="#FBB571"/>
<path d="M9.15078 79.6504L9.60078 79.8004L9.30078 79.9504V80.2504L8.40078 80.7004L7.05078 80.8504L7.65078 80.4004L9.15078 79.6504Z" fill="#F39643"/>
<path d="M18.4508 58.5H18.7508L18.9008 59.1V60.45L18.6008 60.15L18.4508 61.05H18.3008V58.65L18.4508 58.5Z" fill="#FECF9D"/>
<path d="M77.7 102.15H78.3L78 102.9L76.95 103.2L76.8 102.75L76.5 102.45H77.4L77.7 102.15Z" fill="#FECB97"/>
<path d="M96.4508 34.5L96.7508 34.65L96.4508 35.25L95.2508 36.15H94.8008L95.2508 35.4L96.0008 34.8L96.4508 34.5Z" fill="#FBB774"/>
<path d="M26.6992 26.0996L27.4492 26.2496L27.1492 26.6996H26.8492L26.6992 27.1496L25.9492 27.2996L26.0992 26.6996L26.6992 26.0996Z" fill="#FCBC7C"/>
<path d="M58.9492 101.85L60.2992 102.15V102.75H59.0992L58.9492 101.85Z" fill="#FDBE7F"/>
<path d="M77.25 19.8008H78.45L78.6 20.2508L78.3 21.1508L77.25 20.1008V19.8008Z" fill="#FED1A2"/>
<path d="M20.7 98.0996L21 98.2496L20.4 98.5496L20.1 99.1496L18.9 100.35L18.75 99.8996L20.25 98.3996L20.7 98.0996Z" fill="#F58727"/>
<path d="M77.4016 56.8496H79.2016L80.1016 57.4496L79.8016 57.5996L78.9016 57.2996H77.1016L77.4016 57.1496V56.8496Z" fill="#E68635"/>
<path d="M94.5008 93.3008H94.8008L94.6508 94.0508L94.2008 94.2008V94.5008L93.6008 94.9508L93.3008 94.5008L94.2008 93.7508L94.5008 93.3008Z" fill="#FDC58C"/>
<path d="M28.0508 91.5H28.9508L29.2508 91.8L29.8508 92.1L28.5008 92.4L28.0508 91.95V91.5Z" fill="#FED09F"/>
<path d="M16.1992 76.6504L16.7992 76.8004L17.2492 77.7004L17.0992 78.1504L16.4992 77.8504L16.1992 77.4004V76.6504Z" fill="#FECD99"/>
<path d="M69.0016 102.9H69.1516L69.4516 104.7V105.45H69.0016L68.8516 103.8L69.0016 102.9Z" fill="#FCB979"/>
<path d="M43.5008 98.0996L44.1008 98.3996H45.0008L44.7008 98.9996L43.5008 98.8496L43.0508 98.3996H43.5008V98.0996Z" fill="#F58625"/>
<path d="M90.7492 87.5996L91.0492 87.7496V88.1996L90.1492 88.7996L89.3992 89.2496L88.9492 89.3996L89.2492 88.7996L90.2992 88.1996H90.5992L90.7492 87.5996Z" fill="#DD751F"/>
<path d="M25.0484 21.9004L25.7984 22.0504L27.4484 23.8504H26.9984L26.0984 23.1004V22.6504L25.6484 22.5004V22.2004H24.8984L25.0484 21.9004Z" fill="#FDC58B"/>
<path d="M60.7492 110.4H60.8992L61.0492 112.35H60.7492L60.5992 114.45H60.4492V112.65L60.5992 111.75L60.7492 110.4Z" fill="#FECC97"/>
<path d="M24.3 82.6504L24.45 83.1004L23.7 83.5504H23.4L23.25 84.0004L22.5 84.1504L22.65 83.7004L23.55 83.4004L23.7 82.9504L24.3 82.6504Z" fill="#F6A65D"/>
<path d="M104.548 58.5H104.848L104.698 61.05L103.798 61.2L103.648 60.9H104.548L104.398 59.55V58.65L104.548 58.5Z" fill="#DD741F"/>
<path d="M101.25 58.5L101.7 58.65V61.05H101.55V60H101.25V58.5Z" fill="#FECD9A"/>
<path d="M83.4016 3.30078L83.5516 3.75078L83.1016 5.25078L82.8016 6.00078L82.3516 5.70078L82.5016 5.25078H82.8016L83.1016 3.75078L83.4016 3.30078Z" fill="#F7B170"/>
<path d="M25.0492 24.9004H25.7992L25.9492 25.2004L24.4492 25.9504L24.5992 25.2004L25.0492 24.9004Z" fill="#FDC58C"/>
<path d="M58.5 103.801H59.4V104.101L60.3 103.951V104.401L59.85 104.551H58.5V104.401H59.25V103.951H58.5V103.801Z" fill="#FDBE7F"/>
<path d="M91.7992 92.8496L92.5492 93.1496L92.2492 93.7496V94.3496H91.9492L91.7992 93.5996L91.1992 93.2996L91.7992 92.8496Z" fill="#FECF9D"/>
<path d="M104.849 58.6504H105.299V59.5504L104.999 59.8504L104.849 61.0504H104.699V58.8004L104.849 58.6504Z" fill="#FECC99"/>
<path d="M35.6992 57.5996H35.9992L36.7492 59.2496L37.0492 60.2996H36.7492L36.1492 59.2496L35.6992 57.5996Z" fill="#DE7622"/>
<path d="M58.9484 10.3496H60.1484L60.4484 10.9496H58.6484L59.2484 10.7996V10.4996L58.9484 10.3496Z" fill="#FDBE7F"/>
<path d="M36.45 112.801H36.6L36.75 113.851L36.3 114.751H36L36.15 113.551L36.45 112.801Z" fill="#FDC389"/>
<path d="M77.8516 105.9L78.3016 106.05V106.35H79.2016L79.3516 106.95H79.0516V106.65H78.7516V107.1L78.3016 106.95V106.65H78.0016L77.8516 105.9Z" fill="#FECB96"/>
<path d="M42.3008 99.9004L42.9008 100.2L43.0508 100.65H42.3008V101.25H41.5508V100.95L42.1508 100.8V100.2L42.3008 99.9004Z" fill="#FDBE7F"/>
<path d="M92.8492 91.5V91.95L91.4992 93.3H91.1992L91.3492 92.7H91.7992L92.0992 92.1L92.8492 91.5Z" fill="#F58625"/>
<path d="M30.45 30.3008L30.75 30.4508L30 31.3508L29.7 31.8008L29.55 31.2008L29.25 30.9008H29.55V30.6008L30.45 30.3008Z" fill="#FED0A0"/>
<path d="M83.2516 112.801L83.5516 113.401L83.8516 114.751H83.2516L83.1016 113.851L83.2516 113.701V112.801Z" fill="#FDC68D"/>
<path d="M84.1484 93.75L84.4484 93.9L84.8984 94.95L85.1984 95.55L85.0484 96L84.8984 95.4L84.2984 95.1L84.1484 94.05V93.75Z" fill="#FBB673"/>
<path d="M91.3516 88.1992L92.1016 88.6492L93.1516 89.8492H92.7016L92.1016 90.1492L92.2516 89.3992L91.9516 89.2492V88.7992L91.3516 88.6492V88.1992Z" fill="#DB731F"/>
<path d="M15.75 67.9492L16.65 68.0992V68.2492L15 68.5492H14.25L14.4 68.0992L15.75 67.9492Z" fill="#F6AC67"/>
<path d="M76.0508 20.25H77.2508L77.4008 20.7L77.1008 21L76.6508 21.15L76.0508 20.25Z" fill="#DF7620"/>
<path d="M20.8516 19.5L22.0516 20.4L22.5016 20.85L21.9016 21V20.7L21.4516 20.55L20.8516 20.1V19.5Z" fill="#FDC790"/>
<path d="M59.1016 12L60.3016 12.15V12.75H59.4016L59.1016 12Z" fill="#FDBE7F"/>
<path d="M92.0984 90.3008H92.8484L92.5484 91.0508L91.9484 91.3508L91.6484 91.0508V90.6008L92.0984 90.3008Z" fill="#FDBE7F"/>
<path d="M78 15.1504H79.5L80.4 15.3004V15.6004L78.3 15.4504L78 15.1504Z" fill="#E37920"/>
<path d="M34.3516 96.9004H34.8016L34.5016 97.6504L33.7516 98.7004L33.6016 98.2504L34.3516 96.9004Z" fill="#FDC48A"/>
<path d="M33.6016 20.4004L34.2016 21.0004L34.6516 22.2004L34.0516 21.9004L33.6016 21.0004V20.4004Z" fill="#FBB674"/>
<path d="M58.0508 14.8496L58.6508 15.4496V16.1996L58.3508 16.6496L58.2008 17.2496L58.0508 16.3496V14.8496Z" fill="#FECD9A"/>
<path d="M26.2492 91.6504L27.1492 92.1004L26.6992 92.7004L26.0992 92.4004L25.9492 92.1004L26.2492 91.6504Z" fill="#FDBE7F"/>
<path d="M84.5984 21.75L84.7484 22.2L83.6984 23.55H83.3984L83.6984 22.8L83.9984 22.35H84.2984L84.5984 21.75Z" fill="#EE9547"/>
<path d="M19.7984 18.9004L20.3984 19.2004L20.8484 19.5004L20.6984 20.1004L19.6484 19.3504L19.7984 18.9004Z" fill="#F58B2E"/>
<path d="M17.6984 67.5H18.4484L18.2984 67.8L16.6484 68.1H15.8984L16.3484 67.8L17.6984 67.5Z" fill="#E37920"/>
<path d="M85.8 19.6504L86.1 19.8004L85.65 20.8504H85.35L85.05 21.6004L84.75 21.7504L85.05 21.0004L85.5 20.1004L85.8 19.6504Z" fill="#F6AC67"/>
<path d="M76.9492 18.9004L78.7492 19.3504L78.4492 19.6504H77.2492L77.3992 19.2004H76.9492V18.9004Z" fill="#F7963E"/>
<path d="M59.1016 112.051L60.0016 112.651V114.451H59.8516L59.5516 112.951L59.1016 112.501V112.051Z" fill="#FECB96"/>
<path d="M50.4 103.5H50.7V104.85L50.55 105.3H50.25L50.4 103.5Z" fill="#FBB571"/>
<path d="M58.0508 103.65L59.2508 103.95V104.4L58.0508 104.55L58.3508 104.4V104.1H58.0508V103.65Z" fill="#FFD4A6"/>
<path d="M89.9992 90.75L90.2992 91.2L90.5992 91.8L89.9992 91.95L89.6992 91.65L89.8492 90.9L89.9992 90.75Z" fill="#F28324"/>
<path d="M90.9008 89.25H91.3508L91.0508 89.85L90.4508 90.3L90.3008 89.55L90.9008 89.25Z" fill="#FDBE7F"/>
<path d="M97.9508 84.3008L98.7008 84.6008L99.3008 85.2008L99.1508 85.5008L98.2508 85.0508V84.7508L97.8008 84.6008L97.9508 84.3008Z" fill="#FCBA7B"/>
<path d="M63.8984 53.0996L64.3484 53.5496L64.4984 53.9996L64.9484 54.2996L64.7984 54.4496H64.0484L63.8984 54.2996V53.0996Z" fill="#FDC790"/>
<path d="M98.85 20.0996V20.5496L98.1 21.4496L97.5 21.2996L98.4 20.2496L98.85 20.0996Z" fill="#F58828"/>
<path d="M59.3992 5.55078H59.6992L59.5492 6.15078L59.2492 8.10078L58.9492 7.95078L59.0992 5.70078L59.3992 5.55078Z" fill="#FEC993"/>
<path d="M80.6992 103.801H80.9992L81.2992 104.701V105.601H80.9992L80.6992 104.401V103.801Z" fill="#E07620"/>
<path d="M42.75 100.051H43.65V100.501H43.95V100.801L43.05 100.651L42.75 100.051Z" fill="#F58625"/>
<path d="M42.5992 98.25L43.1992 98.55L43.4992 98.85L43.0492 99L42.8992 99.3L42.4492 98.85L42.5992 98.25Z" fill="#FDBE7F"/>
<path d="M35.25 23.25L35.85 23.4L36.15 24.15L35.85 24.75L35.4 24L35.25 23.25Z" fill="#FCBA7A"/>
<path d="M58.0508 13.0508L58.2008 13.6508L58.8008 13.8008L58.6508 14.4008L58.0508 14.7008V13.0508Z" fill="#FECB96"/>
</svg>
