<svg width="122" height="120" viewBox="0 0 122 120" fill="none" xmlns="http://www.w3.org/2000/svg">
<path d="M67.9801 52.4805L71.8164 53.0943L75.3458 53.8615L79.4891 55.0892L83.3254 56.6237L87.0083 58.4651L89.4635 59.9996L92.0722 61.9945L94.0671 63.8359L96.062 65.9843L97.9035 68.7464L99.1311 71.2017L100.052 73.9638L100.512 76.419V79.3346L100.052 81.6364L98.9776 84.7055L97.75 87.1607L95.9086 89.7694L94.2206 91.6108L92.5326 93.2988L90.0773 95.1402L87.1617 96.9816L83.3254 98.9765L79.4891 100.511L76.1131 101.585L70.8957 102.813L66.2921 103.427L64.2972 103.58H56.778L50.333 102.813L45.1156 101.585L40.2051 99.8972L36.2153 98.0558L32.8393 96.0609L30.2306 94.2195L28.6961 92.9919L27.4685 91.9177V91.6108L27.0081 91.4574L25.9339 90.2297L23.939 87.4676L22.4045 84.552L21.4838 81.7899L21.0234 79.4881V76.2656L21.4838 73.8103L22.558 70.5878L24.246 67.6722L25.627 65.8308L27.315 63.9894L28.8495 62.4549L30.3841 61.2273L32.5324 59.6927L35.2946 58.0048L37.7498 56.7771L39.8982 55.8564L42.8138 54.7823L47.7243 53.4012L52.3279 52.6339H53.709L53.8624 64.2963L53.709 79.1812L52.7882 79.6415L50.7933 80.4088L48.3381 81.6364L46.4967 82.864L44.9621 84.2451L43.581 86.24L42.9672 87.6211L42.6603 89.0021V91.4574L43.1207 93.2988L44.0414 94.9868L45.7294 96.8282L47.1105 98.0558L49.5657 99.4369L51.7141 100.358L54.6297 101.278L58.466 101.739H62.9161L66.7525 101.278L69.3612 100.511L72.1233 99.2834L74.2717 98.0558L76.2666 96.3678L77.8011 94.373L78.4149 93.1453L78.8753 90.6901V89.4625L78.4149 87.3141L77.4942 85.6262L76.42 84.2451L75.1924 83.0175L72.8906 81.483L70.2819 80.2553L69.0543 79.795L67.9801 79.4881L67.8266 79.3346V52.6339L67.9801 52.4805Z" fill="#008F3A"/>
<path d="M60.0019 0L61.2295 0.153452L63.2244 1.22762L64.759 2.45524V2.76214H65.0659L66.4469 4.91047L67.2142 6.7519L67.5211 8.13297V10.4348L67.0608 12.4296L65.5262 15.3452L63.9917 16.8798L62.4572 17.9539H62.1502V20.5626L62.9175 19.9488L63.5313 19.1815L65.6797 17.4936L67.828 16.2659L70.4367 15.1918L74.7334 14.1176L76.1145 13.9642H78.7232L80.2577 14.2711L81.1784 14.8849L81.3319 15.1918V16.8798L80.5646 19.0281L79.6439 20.7161L77.8025 22.5575L76.5748 23.6317L74.58 24.8593L71.3574 26.3938L67.6746 27.6214L64.1451 28.2352H61.9968L62.1502 31.3043V32.8388L64.1451 30.8439L66.4469 29.3094L68.9022 28.0818L70.5902 27.468L72.5851 26.8542L75.3472 26.2403H79.0301L80.5646 26.7007L81.3319 27.3145V29.1559L80.4112 31.6112L79.0301 33.6061L77.1887 35.4475L74.8869 36.982L71.3574 38.67L67.6746 39.8976L63.8382 40.5114H61.9968L62.1502 45.115L64.452 42.8132L67.2142 41.1252L69.9764 39.8976L73.8127 38.8234L75.3472 38.5165H79.1835L80.8715 39.1303L81.3319 39.5907V41.4321L80.4112 43.8874L79.4905 45.2684L78.1094 46.803L76.4214 48.184L74.4265 49.4117L71.9712 50.6393L68.1349 52.0203L64.9124 52.6342L62.1502 52.7876V92.0714L61.9968 95.9077H59.0812L58.9277 94.987V52.9411L55.3983 52.4807L53.0965 52.1738L48.9533 50.6393L46.498 49.4117L44.81 48.3375L43.2755 47.1099L41.741 45.5753L40.6668 44.0408L40.053 42.3528L39.8995 41.5856V39.4373L40.3599 38.9769L41.8944 38.5165H45.5773L48.9533 39.2838L51.7154 40.2045L54.0172 41.2787L56.319 42.8132L57.8536 44.1943L58.1605 44.8081L59.0812 45.115L58.9277 44.0408V40.6649L55.7052 40.358L52.6362 39.7442L48.7998 38.3631L46.3446 37.1355L44.6566 36.0613L42.6617 34.3733L41.5875 33.1457L40.3599 31.1508L39.8995 29.4628V27.1611L40.6668 26.5473L41.8944 26.2403H45.2704L48.3395 26.8542L51.7154 27.9283L54.3241 29.1559L56.4725 30.6905L58.007 32.0715L58.9277 32.8388V28.3887L55.2449 27.9283L52.7896 27.468L50.0275 26.5473L47.5722 25.4731L45.7308 24.5524L43.8893 23.1713L42.0479 21.4833L40.6668 19.4884L40.053 17.9539L39.7461 15.6521L40.2065 14.578L41.1272 14.1176L42.3548 13.9642H44.6566L46.9584 14.2711L50.9482 15.3452L54.0172 16.7263L56.1656 18.1074L57.7001 19.4884L58.4674 20.2557L58.9277 20.5626L58.7743 18.1074L57.0863 16.8798L55.8587 15.8056L54.938 14.4245L54.1707 12.89L53.7103 11.202V7.21226L54.3241 5.21738L55.7052 3.06905L57.2397 1.53452L58.9277 0.460357L60.0019 0Z" fill="#008F3A"/>
<path d="M92.6834 106.65L93.2972 106.804L95.4456 109.413L98.5146 113.402L98.8215 113.709V106.804L103.425 106.65L103.579 106.804V119.54L103.425 119.694H99.1284L98.5146 119.54L97.287 118.006L95.2921 115.397L93.4507 112.942L93.2972 112.635V116.471L93.1438 119.694H88.3867V106.804L92.6834 106.65Z" fill="#010604"/>
<path d="M108.03 106.65L114.168 106.804L116.776 107.264L118.618 108.031L119.845 108.952L120.766 110.18L121.227 111.254V114.937L120.613 116.471L119.539 117.699L118.311 118.62L116.776 119.233L115.242 119.54L112.48 119.694H107.876L107.723 119.08V111.868L107.876 106.804L108.03 106.65Z" fill="#010503"/>
<path d="M35.5999 106.65L42.6587 106.804L44.9605 107.264L46.495 108.185L47.2623 108.952L47.8761 110.026V111.254L46.9554 112.788L45.5743 113.709H45.2674L45.7278 114.783L47.8761 118.313L48.6434 119.54L48.4899 119.694H43.7329L43.1191 118.927L41.4311 116.164L40.2035 114.17L40.05 119.54L39.8966 119.694H35.293V106.804L35.5999 106.65Z" fill="#010303"/>
<path d="M23.6308 106.342H26.0861L27.9275 106.802L29.769 107.723L30.8431 108.644L31.3035 109.411L29.9224 109.871L27.7741 110.485L26.8534 110.638L25.6257 109.718L25.1654 109.564H24.0912L22.8636 110.025L22.4032 110.638L22.2498 111.713V114.782L22.7101 116.009L23.3239 116.623L23.9377 116.777H25.4723L26.393 116.623L26.6999 115.856L26.8534 115.089H25.0119L24.8585 114.782V113.247L25.1654 112.326H31.7639L31.9173 112.48V115.856L31.457 117.083L30.0759 118.618L28.3879 119.539L26.5465 119.999H23.017L20.7152 119.385L19.1807 118.465L18.1065 117.39L17.1858 115.549L16.8789 114.168V112.326L17.1858 110.792L18.1065 108.95L19.1807 107.876L21.329 106.802L23.6308 106.342Z" fill="#010503"/>
<path d="M80.2557 106.65L80.8695 106.804L82.5575 110.64L85.1662 116.932L86.0869 119.233V119.694H81.3299L80.7161 117.852L75.6521 117.699L75.3452 119.08L74.7314 119.694H70.4347L70.2812 119.08L71.5089 116.318L73.5038 111.561L75.0383 107.878L75.6521 106.804L80.2557 106.65Z" fill="#010503"/>
<path d="M4.9105 106.803H10.2814L11.0486 108.337L12.4297 111.713L14.7315 117.391L15.6522 119.539L15.4988 119.693H10.7417L10.4348 119.232L10.1279 117.698L5.06395 117.851L4.60359 119.539L4.29669 119.693H0.920719L0 119.539L0.153453 118.312L2.14834 113.401L4.45014 107.877L4.9105 106.803Z" fill="#010503"/>
<path d="M60.6144 106.803H65.0645L65.218 115.55L65.3714 116.624H68.9009V119.539L68.594 119.693H60.6144L60.4609 119.386V106.956L60.6144 106.803Z" fill="#010805"/>
<path d="M51.5597 106.65H56.0098L56.1633 106.804V119.54L55.8564 119.694H51.4062V106.804L51.5597 106.65Z" fill="#010704"/>
<path d="M68.135 52.7891H68.7488L68.9023 53.5563L68.4419 55.0908L68.7488 59.2341L68.9023 62.61L69.0558 64.9118V68.1343L68.9023 70.5895V76.7276L68.7488 77.0345V78.4156L69.2092 79.1829L69.0558 79.6432H68.135L67.8281 79.3363V53.8632L68.135 52.7891Z" fill="#008234"/>
<path d="M112.637 109.564L114.171 109.718L115.245 110.178L115.859 110.946L116.166 111.713L116.32 112.634V114.168L115.706 115.703L114.785 116.47L113.097 116.93H112.637V109.564Z" fill="#FEFEFE"/>
<path d="M79.0287 89.3086L79.3357 89.462L79.6426 91.9173L79.3357 93.7587L78.4149 95.6001L77.8011 95.907L77.6477 96.2139H77.1873L77.0339 96.9812L76.727 97.2881L76.8804 97.595L75.6528 98.3623H75.3459V98.6692L73.6579 99.4364H73.0441L72.8906 98.8226L74.4252 97.9019L76.1131 96.5209L77.8011 94.3725L78.4149 93.1449L78.8753 90.6897L79.0287 89.3086Z" fill="#008335"/>
<path d="M78.1076 110.18H78.4145L78.7215 111.561L79.6422 114.783V115.244H77.3404L76.7266 115.09L77.3404 112.635L78.1076 110.18Z" fill="#FEFEFE"/>
<path d="M7.51891 110.025L7.82581 110.332L8.74653 113.862L9.05344 115.089H5.98438L7.05855 111.713L7.51891 110.025Z" fill="#FEFEFE"/>
<path d="M23.1719 85.7793L23.7857 85.9327L23.9391 86.8535H24.246L24.3995 87.4673H24.7064L25.4737 88.6949L25.934 89.4622L26.2409 89.6156L26.7013 90.3829L27.7755 91.6105L28.2358 91.7639L29.1565 92.8381L30.3842 93.7588L30.8445 93.9123V94.2192L31.7653 94.3726L32.686 95.1399V95.4468H33.1463V95.7537H33.9136L34.067 96.3675L34.9878 96.6744L36.0619 97.2882V97.7486L35.1412 97.4417L32.3791 95.7537L30.2307 94.2192L28.6962 92.9916L27.4686 91.9174V91.6105L27.0082 91.457L25.934 90.2294L23.9391 87.4673L23.1719 86.0862V85.7793Z" fill="#007E33"/>
<path d="M40.2042 109.258L42.0457 109.565L42.9664 110.332V111.253L42.0457 112.02L41.125 112.327H40.2042L40.0508 112.173V109.411L40.2042 109.258Z" fill="#FEFEFE"/>
<path d="M59.5402 86.0859H59.6936L60.0005 90.5361V93.2982L59.6936 94.0655L59.3867 93.4516V86.3928L59.5402 86.0859Z" fill="#008134"/>
<path d="M25.4731 65.9844L25.9335 66.1378L25.6265 67.212H25.3196L25.0127 67.9793H24.7058L24.5524 68.9L23.9386 69.5138L23.7851 70.1276L23.3248 70.5879L23.1713 71.2018H22.8644L22.7109 71.5087V70.4345L23.9386 68.1327L25.4731 65.9844Z" fill="#008435"/>
<path d="M29.7695 93.6074L30.3833 93.7609L30.8437 93.9143V94.2212L31.7644 94.3747L32.6851 95.1419V95.4488H33.1455V95.7558H33.9128L34.0662 96.3696L34.9869 96.6765L36.0611 97.2903V97.7506L35.1404 97.4437L32.3782 95.7558L30.2299 94.2212L29.7695 93.9143V93.6074Z" fill="#00732E"/>
<path d="M23.1719 85.7793L23.7857 85.9327L23.9391 86.8535H24.246L24.3995 87.4673H24.7064L25.4737 88.6949L25.7806 89.3087L25.6271 89.7691L23.9391 87.4673L23.1719 86.0862V85.7793Z" fill="#008535"/>
<path d="M63.6836 2.30078H64.144V2.60769L64.7578 2.45423V2.76114H65.0647L65.8319 3.8353L66.1388 4.90947L65.525 4.60257L64.6043 3.37495L63.9905 2.76114V2.45423L63.6836 2.30078Z" fill="#008535"/>
<path d="M46.0362 53.8613H47.1104L47.7242 54.1682L47.1104 54.4751H46.1897L45.5759 54.782L44.8086 54.4751V54.1682L46.0362 53.8613Z" fill="#008335"/>
<path d="M36.0625 97.5957L37.1367 97.9026L39.5919 99.1302L40.2057 99.5906L39.1316 99.4371L36.216 98.0561L36.0625 97.5957Z" fill="#008536"/>
<path d="M40.3566 42.0469H40.6635L40.9704 43.121V43.8883H41.2773L41.7377 44.9625L41.1238 44.809L40.2031 42.9676L40.3566 42.0469Z" fill="#008334"/>
<path d="M44.8086 96.3672L45.8828 97.2879L46.4966 97.5948L47.7242 98.5155L47.1104 98.669L46.3431 98.3621L45.5759 97.5948L44.8086 96.6741V96.3672Z" fill="#008234"/>
<path d="M74.1183 53.709L75.3459 53.8624L76.5735 54.3228V54.7832L75.6528 54.6297L73.9648 54.0159L74.1183 53.709Z" fill="#008536"/>
<path d="M59.5402 79.4883L59.8471 79.9486V81.9435L59.6936 82.8642L59.3867 82.2504V79.6417L59.5402 79.4883Z" fill="#008134"/>
<path d="M93.6055 63.9883L94.2193 64.2952L94.9865 64.7555L95.9073 66.1366L95.7538 66.4435L95.2935 65.9832V65.6763H94.9865L93.9124 64.4486L93.6055 63.9883Z" fill="#008334"/>
<path d="M42.5078 92.3789H42.8147L43.582 94.2203L43.7354 94.9876L43.1216 94.3738L42.5078 92.9927V92.3789Z" fill="#008636"/>
<path d="M40.3594 43.1211L40.8197 43.5815V43.8884H41.2801L41.7405 44.9625L41.1266 44.8091L40.3594 43.428V43.1211Z" fill="#008837"/>
</svg>
