<svg width="180" height="100" viewBox="0 0 180 100" fill="none" xmlns="http://www.w3.org/2000/svg">
<path d="M119.798 22.8418L120.814 23.0956L125.636 26.3951L127.92 28.1717L126.397 30.456L122.844 35.5322L119.798 39.8469L117.007 42.8926L114.722 44.923L111.169 47.2073L107.616 48.7301L103.555 49.7453L101.778 49.9992H97.4634L92.3873 48.9839L88.3264 47.2073L84.2655 44.6692L78.4279 40.6083L73.8594 37.3088L74.1132 36.2936L77.4127 31.4712L78.6817 29.6946L80.2046 29.9484L85.0269 33.2479L89.5954 36.5474L93.1487 38.5778L95.433 39.5931L97.7172 40.1007H102.032L105.078 39.3393L108.377 37.5626L111.423 34.7707L114.722 30.2022L117.514 26.1413L119.798 22.8418Z" fill="#214A8A"/>
<path d="M77.412 0H82.2343L87.3104 1.01523L91.1175 2.79188L93.9094 4.31472L99.4932 8.12183L103.808 11.1675L106.092 12.6904L105.585 13.7056L102.285 18.5279L100.762 20.5584L99.747 20.0508L96.7013 18.0203L93.148 15.4822L88.8333 12.4365L85.5338 10.6599L82.2343 9.89848H77.412L73.8587 10.9137L70.813 12.6904L67.7673 15.736L64.7216 20.0508L61.9297 24.1117L59.8993 26.9036H59.1378L56.0922 24.8731L52.7927 22.5888L52.0312 22.0812L52.2851 20.8122L54.8231 17.2589L58.1226 12.6904L60.6607 9.39086L63.7064 6.09137L67.0059 3.5533L71.0668 1.52284L74.3663 0.507614L77.412 0Z" fill="url(#paint0_linear_2411_1188)"/>
<path d="M124.618 72.8418H127.917L131.217 73.857L133.501 75.6337L135.278 78.1717L136.039 80.456L136.293 82.4865V89.8469L135.785 93.4002L135.024 95.4306L133.247 97.7149L130.709 99.2377L127.664 99.9992L123.603 99.7453L120.557 98.4763L118.273 96.4459L117.258 94.6692L117.511 93.654H120.811L122.08 94.4154L123.349 95.4306L125.379 95.9382H127.41L129.44 95.1768L130.709 93.9078L131.471 91.8773L131.725 89.5931L129.44 90.8621L128.171 91.6235L127.156 91.8773H123.603L120.811 90.8621L118.273 88.5778L117.004 86.5474L116.496 84.7707V80.456L117.511 77.6641L119.542 75.1261L121.826 73.6032L124.618 72.8418Z" fill="#93999D"/>
<path d="M28.9344 72.8418H32.4877L35.0258 73.6032L37.0563 74.8723L38.3253 76.1413L40.1019 78.4256L40.8634 81.2174V83.5017L39.8481 86.8012L38.0715 89.3393L36.041 90.8621L33.503 91.8773L32.4877 92.1311H29.1882L26.6502 91.3697L24.3659 89.8469L22.3354 87.5626L21.3202 85.5322L21.0664 84.5169V80.456L22.0816 77.6641L24.1121 75.1261L26.3964 73.6032L28.9344 72.8418Z" fill="#93999D"/>
<path d="M91.115 72.8418H94.9221L97.4602 73.857L99.2368 75.6337V76.1413H99.7444L100.252 75.1261L101.521 73.857L104.059 72.8418H107.612L109.897 73.6032L111.927 75.3799L113.196 77.6641L113.45 78.6794L113.704 82.4865V90.6083L113.45 91.6235H109.135L108.882 79.9484L108.12 78.1717L106.09 77.1565L103.805 77.4103L102.536 78.6794L102.029 79.4408L101.775 91.6235H97.4602L97.2064 91.3697V82.4865L96.9526 79.4408L96.1911 78.1717L95.1759 77.4103L94.4145 77.1565H92.6378L91.115 77.9179L90.3536 79.187L90.0998 80.2022L89.846 91.6235H85.5312V78.9332L86.5465 76.1413L88.3231 74.1108L90.3536 73.0956L91.115 72.8418Z" fill="#93999D"/>
<path d="M146.954 72.8418H150.253L152.538 73.3494L155.076 74.8723L156.852 76.6489L158.121 78.6794L158.629 80.2022V84.0093L143.908 84.2631L144.162 85.2783L145.685 87.055L147.208 87.8164L149.746 88.0702L153.553 86.5474L155.076 86.2936H157.614L157.868 86.8012L157.106 88.0702L156.091 89.3393L153.553 91.1159L150.761 92.1311H146.954L144.162 91.1159L142.639 90.1007L141.37 89.0855L139.847 86.8012L139.086 85.0245L138.832 83.7555V81.2174L139.847 78.1717L141.37 75.8875L143.401 74.1108L145.939 73.0956L146.954 72.8418Z" fill="#93999D"/>
<path d="M7.1066 72.8418H10.9137L13.4518 73.6032L15.4822 75.1261L17.2589 77.4103L18.0203 79.4408L18.2741 82.2327V90.3545L18.0203 91.6235H13.7056L13.4518 80.7098L12.9442 79.187L11.6751 77.6641L9.89848 77.1565H8.12183L6.09137 77.9179L5.07614 79.187L4.56853 80.7098L4.31472 91.3697L4.06091 91.6235H0V80.456L0.507614 78.1717L2.03046 75.6337L4.06091 73.857L7.1066 72.8418Z" fill="#92989C"/>
<path d="M168.528 72.8418H172.082L174.112 73.3494L176.396 74.6184L178.173 76.6489L179.188 78.4256L179.696 81.2174V91.3697L179.442 91.6235H175.381L175.127 83.5017L174.874 79.9484L173.858 78.1717L172.589 77.4103L170.305 77.1565L168.275 77.6641L167.006 78.6794L166.244 80.2022L165.99 82.7403V91.3697L165.737 91.6235H161.422V80.9636L161.929 78.1717L163.452 75.6337L165.483 73.857L168.528 72.8418Z" fill="#93999D"/>
<path d="M63.707 73.3496H68.2756V82.9943L68.7832 85.5324L69.7984 87.0552L71.5751 87.8166H73.6055L75.636 87.0552L76.6512 85.7862L77.1588 84.2633L77.4126 73.6034L77.6664 73.3496H81.7273V85.0247L80.9659 87.5628L79.9507 89.0857L77.9202 90.8623L75.636 91.8775L74.3669 92.1313H71.0674L68.5294 91.3699L66.2451 89.8471L64.7223 87.5628L63.9608 85.5324L63.707 84.2633V73.3496Z" fill="#93999D"/>
<path d="M41.625 73.3496H46.4473L47.4626 75.8877L50.7621 85.2785L51.5235 87.0552L52.5387 84.7709L56.5996 73.3496H61.1681L60.9143 74.6186L58.1225 81.7252L55.3306 88.578L54.0615 91.3699L53.8077 91.6237H48.9854L48.224 90.3547L41.625 73.8572V73.3496Z" fill="#93999D"/>
<path d="M30.2012 76.9043L32.7393 77.1581L34.7698 78.4271L35.785 79.6962L36.2926 81.219V83.5033L35.5312 85.5337L34.2622 87.0566L32.2317 88.0718H29.186L27.6632 87.3104L25.8865 85.2799L25.3789 83.7571V81.219L26.3941 79.1886L27.6632 77.9195L29.186 77.1581L30.2012 76.9043Z" fill="#FDFDFD"/>
<path d="M125.635 76.9043L128.173 77.1581L130.203 78.4271L131.472 80.2038L131.726 81.4728V83.5033L130.965 85.5337L128.934 87.3104L127.665 87.818H124.873L123.097 87.0566L121.828 85.7875L121.066 84.2647L120.812 83.2495V81.4728L122.082 78.9348L124.112 77.4119L125.635 76.9043Z" fill="#FDFDFD"/>
<path d="M59.3917 10.9141H60.1531L59.1378 13.4521L58.1226 14.975L57.8688 15.9902L58.3764 16.4978L59.6455 16.7516L59.8993 17.0054V18.7821L60.6607 20.3049V21.8278V22.3354L62.1835 22.0816L63.1988 21.574L62.945 22.5892L60.9145 25.6349L59.6455 27.1577L56.8536 25.3811L52.7927 22.5892L52.0312 22.0816L52.2851 20.8125L54.8231 17.2592L58.1226 12.6907L59.3917 10.9141Z" fill="#244C8B"/>
<path d="M95.4297 5.83789L96.4449 6.0917L99.4906 8.12215L103.805 11.1678L106.09 12.6907L105.582 13.7059L102.282 18.5282L100.76 20.5587L99.7444 20.0511L96.6987 18.0206L95.4297 16.7516L98.2216 17.0054L97.9678 15.4826L97.4601 14.4673V12.6907L98.2216 10.4064L98.983 10.1526L98.4754 9.13738L97.4601 8.12215L96.6987 6.85312L95.4297 5.83789Z" fill="#244C8B"/>
<path d="M147.717 76.9043H150.509L152.032 77.6657L153.809 79.4424L154.062 80.2038L153.809 80.4576H143.656L143.91 79.4424L145.179 78.1733L146.956 77.1581L147.717 76.9043Z" fill="#FDFDFD"/>
<path d="M65.9901 4.31445L66.4977 4.56826L65.2287 5.8373L63.7058 7.10633H63.1982V7.61395H62.6906V8.12156H62.183L61.9292 9.13679L60.6602 10.152V9.39059L63.7058 6.0911L65.9901 4.31445Z" fill="#486590"/>
<defs>
<linearGradient id="paint0_linear_2411_1188" x1="61.9297" y1="10.9137" x2="98.4779" y2="13.4518" gradientUnits="userSpaceOnUse">
<stop stop-color="#244C8B"/>
<stop offset="0.5" stop-color="#7FCCFF"/>
<stop offset="1" stop-color="#244C8B"/>
</linearGradient>
</defs>
</svg>
