<svg width="110" height="120" viewBox="0 0 110 120" fill="none" xmlns="http://www.w3.org/2000/svg">
<path d="M53.1308 0H56.4953L59.4392 0.420561L61.8224 0.981308L63.9252 1.68224L67.4299 3.36449L69.3925 4.62617L70.9346 5.88785L72.3364 7.14953L73.7383 8.5514L75.2804 10.514L76.6822 12.6168L77.8037 14.8598L78.6449 16.9626L79.486 19.7664L79.9065 21.5888L80.0467 22.7103L80.1869 25.3738H108.925L109.206 25.514L108.925 26.3551L107.664 28.4579L105.981 31.4019L104.86 33.2243L104.019 34.7664L101.916 38.4112L99.6729 42.3364L97.7103 45.7009L96.1682 48.3645L95.0467 50.3271L93.0841 53.6916L91.2617 56.9159L89.0187 60.8411L88.1776 62.243L86.215 65.6075L84.6729 68.1308L83.8318 69.6729L81.729 73.4579L80.1869 75.9813L78.5047 78.9252L77.6635 80.6075L75.8411 83.5514L73.8785 87.0561L72.757 88.8785L70.9346 92.1028L68.972 95.4673L67.1495 98.6916L65.0467 102.336L63.2243 105.561L61.8224 107.804L59.7196 111.589L58.5981 113.551L56.7757 116.636L55.6542 118.598L54.8131 120H54.3925L52.7103 116.916L50.7477 113.551L49.0654 110.607L47.6635 108.224L46.4019 105.981L44.4393 102.617L43.1776 100.514L41.6355 97.7103L37.7103 90.9813L35.8878 87.757L35.0467 86.3551L33.9252 84.3925L31.9626 81.028L30.7009 78.785L29.2991 76.4019L27.757 73.7383L25.9346 70.514L24.1121 67.4299L23.271 65.8879L21.3084 62.5234L17.1028 55.2336L15.1402 51.8692L12.8972 47.9439L10.9346 44.5794L9.25234 41.6355L7.28972 38.271L5.46729 35.0467L4.20561 32.8037L2.52336 30L1.1215 27.4766L0 25.7944V25.514L5.74766 25.3738H29.0187L29.5794 20.8879L30 18.9252L30.9813 15.9813L31.9626 13.7383L33.2243 11.6355L34.9065 9.25234L36.1682 7.99065L37.1495 6.86916L38.6916 5.60748L40.6542 4.06542L43.3178 2.52336L45.9813 1.40187L49.3458 0.560748L51.8692 0.140187L53.1308 0Z" fill="#00914C"/>
<path d="M5.74766 25.373H29.1589L29.2991 28.317L29.8598 31.6815L31.1215 35.1861L32.5234 38.1301L34.0654 40.373L35.3271 41.9151L36.8692 43.5973L37.9907 44.7188L38.8318 44.9992L38.6916 46.4011L38.271 48.3637L37.7103 48.0833L32.8037 45.1394L30.2804 43.4572L28.8785 41.6347L27.8972 40.0927L26.4953 37.9899L24.8131 35.6067L22.4299 32.102L21.028 30.1394L20.0467 28.8777L19.0654 28.4572L18.3645 28.5973L17.9439 29.2983V30.7002L18.6449 33.7843L20.7477 42.1955L21.8692 47.102L22.7103 50.3263L23.6916 52.2889L24.8131 53.4104L26.3551 54.6721L27.3364 55.6534L28.8785 56.9151L29.8598 57.8964L31.4019 59.1581L33.0841 60.7001L34.6262 61.9618L35.4673 62.803L35.1869 64.2048L33.3645 73.1768L32.3832 77.803L32.243 78.7843V80.1861L32.3832 80.8871L36.4486 81.0273L44.2991 80.8871L44.8598 80.6067L45 80.1861L45.1402 72.0553V50.6067L45.2804 49.2048L45.4206 49.4852L48.9252 50.1861L52.2897 50.7469L54.1122 51.0273L54.5327 51.4478L54.6729 52.8497L54.8131 56.7749L55.2336 56.9151L60.1402 57.1955L60.2804 57.3357V67.8497L60 68.1301H56.4953L54.6729 68.2702V107.382L54.8131 119.158L54.9533 119.719L54.8131 119.999H54.3925L52.7103 116.915L50.7477 113.551L49.0654 110.607L47.6636 108.224L46.4019 105.981L44.4393 102.616L43.1776 100.513L41.6355 97.7095L37.7103 90.9805L35.8879 87.7562L35.0467 86.3544L33.9252 84.3917L31.9626 81.0273L30.7009 78.7843L29.2991 76.4011L27.757 73.7375L25.9346 70.5132L24.1122 67.4291L23.271 65.8871L21.3084 62.5226L17.1028 55.2329L15.1402 51.8684L12.8972 47.9431L10.9346 44.5787L9.25234 41.6347L7.28972 38.2702L5.46729 35.0459L4.20561 32.803L2.52336 29.9992L1.1215 27.4759L0 25.7936V25.5132L5.74766 25.373Z" fill="#02528F"/>
<path d="M40.0966 6.16797L40.6573 6.30816L40.9377 8.13059L41.7788 9.81283L43.0405 11.2147L45.5638 12.7568L46.5452 12.8969L47.1059 12.7568H48.5078L48.7881 12.8969H50.19L53.5545 11.7754H55.6573L57.4797 12.3362L58.7414 12.8969H59.8629L60.704 12.7568H62.2461L63.3676 12.8969L64.9096 12.0558L66.4517 11.0745L67.7134 9.53245L68.4143 8.13059L68.6947 6.44834L68.8349 6.16797L69.3956 6.44834L70.2367 7.85021L70.3769 8.41096V10.5138L69.8162 12.4764L68.8349 14.1586L67.5732 15.5605L66.8723 16.2614L65.6106 17.1025L63.648 18.0839H63.3676L64.0685 18.7848L64.6293 19.2054L65.891 19.3455L68.2741 18.224L69.676 17.8035H70.6573L73.3209 18.5044L75.4237 19.6259L76.6853 20.6072L76.9657 21.4483L76.405 22.2895L74.7227 24.1119L73.3209 25.0932L71.6386 25.7941L71.2181 25.9343H69.9564L68.4143 25.3736L67.2928 25.2334L66.3115 25.654L65.3302 27.3362L65.19 31.682L64.4891 34.0652L63.3676 36.4483L61.9657 38.6913L61.6853 39.5325L61.5452 43.1773L60.8442 44.0184L58.7414 45.4203L56.7788 46.2614L55.5171 46.5418H53.6947L52.1526 46.1212L49.9096 44.9997L48.5078 44.0184L47.947 43.4577L47.8068 43.0371L47.6667 39.953L47.2461 38.5511L45.5638 35.6072L44.7227 33.6446L44.162 31.682L44.0218 27.3362L43.0405 25.7941L42.7601 25.3736L42.3396 25.2334H40.9377L38.8349 26.0745L37.8536 25.9343L35.7508 24.953L34.2087 23.8315L32.947 22.4297L32.2461 21.3082L32.3863 20.7474L33.648 19.7661L36.3115 18.3642L38.2741 17.8035H39.3956L41.6386 18.5044L42.9003 19.2054L44.3022 19.3455L45.5638 18.6446L45.704 18.0839L43.461 16.9624L42.1994 16.1212L40.7975 14.7194L39.676 12.8969L38.9751 10.7941V8.27077L39.9564 6.30816L40.0966 6.16797Z" fill="#FCFDFD"/>
<path d="M18.6458 28.3164L19.6271 28.4566L20.6084 29.2977L22.1505 31.5407L23.5524 33.5033L24.9542 35.6061L26.7766 38.1295L28.0383 40.0921L29.4402 42.1949L30.4215 43.4566L33.5056 45.4192L36.5897 47.2416L38.272 48.3631L38.4122 47.1015L39.5337 41.3538L39.9542 40.2323L40.6552 39.6715L42.3374 38.9706L43.8795 38.5501H44.7206L45.0009 38.8304L45.1411 39.3912L45.2813 45.8398V72.0547L45.1411 80.1856L44.7206 80.8865L44.3 81.0267L35.3281 81.1669L32.6645 81.0267L32.3841 80.8865L32.1038 80.1856V78.7837L32.9449 74.4379L34.2066 68.2697L35.1879 63.6435L35.3281 62.8024L34.3467 61.8211L32.8047 60.5594L31.2626 59.1575L29.7206 57.8958L28.7393 56.9145L27.1972 55.6529L26.2159 54.6715L24.6738 53.4099L23.5524 52.2884L22.571 50.3258L20.8888 43.5968L20.0477 39.9519L18.0851 32.1015L17.8047 30.6996V29.2977L18.3654 28.4566L18.6458 28.3164Z" fill="#FCFDFD"/>
<path d="M89.8569 28.3164L90.8382 28.4566L91.5391 29.2977L91.6793 30.4192L90.2775 35.7463L88.455 43.3164L86.7728 49.9052L86.0718 51.7276L85.5111 52.5687L83.969 53.9706L82.8475 54.9519L81.3055 56.3538L79.7634 57.6155L78.0812 59.1575L76.5391 60.4192L74.8569 61.9613L74.156 62.522L74.0158 63.2229L74.8569 67.008L75.5578 70.793L77.0999 78.0828L77.2401 78.6435V80.1856L76.6793 80.8865L76.3989 81.0267H64.9036L64.3429 80.6061L64.0625 79.4846V46.2603L64.2027 39.3912L64.6232 38.5501H65.7447L68.1279 39.3912L69.3896 40.2323L69.8102 41.2136L70.5111 45.279L70.9317 47.2416V48.2229L71.913 47.8024L74.5765 46.1201L76.6793 44.8585L78.6419 43.5968L79.6232 42.4753L80.7447 40.793L82.427 38.4099L83.6887 36.5874L85.6513 33.7837L87.8943 30.4192L89.0158 29.0173L89.8569 28.3164Z" fill="#FCFDFD"/>
<path d="M54.3932 0H56.496L59.4399 0.420561L61.8231 0.981308L63.9259 1.68224L67.4306 3.36449L69.3932 4.62617L70.9353 5.88785L72.3371 7.14953L73.739 8.5514L75.2811 10.514L76.6829 12.6168L77.8044 14.8598L78.6456 16.9626L79.4867 19.7664L79.9072 21.5888L80.0474 22.7103L80.1876 25.514L79.9072 29.1589L79.2063 32.3832L78.0848 35.6075L76.9633 37.8505L75.5614 40.0935L74.1596 41.9159L72.8979 43.3178L71.9166 44.2991L70.7951 45L70.6549 45.7009L70.3745 45.2804L69.6736 41.215L69.1128 40.0935L67.4306 39.2523L65.7484 38.6916H64.6269L64.3465 39.3925L64.2063 46.2617L64.0661 49.486L61.8231 50.0467L58.1783 50.7477L55.7951 51.028H54.954L54.6736 50.4673L54.5334 47.8037L54.3932 46.8224L53.9727 46.5421L56.2156 46.2617L58.1783 45.5607L60.0007 44.4393L61.2624 43.4579L61.4026 43.1776L61.5427 39.5327L62.1035 38.271L63.6456 35.6075L64.4867 33.6449L65.0474 31.6822L65.1876 27.3364L66.1689 25.6542L66.7297 25.2336L67.9913 25.0935L69.6736 25.6542L69.954 25.7944H71.2156L73.0381 25.0935L74.5801 24.1122L75.7016 22.9907L76.6829 21.729L76.8231 21.1682L76.4026 20.4673L74.4399 19.2056L72.8979 18.5047L70.6549 17.9439H69.6736L67.9913 18.5047L65.8885 19.486L64.6269 19.3458L63.3652 18.3645V18.0841L66.5895 16.4019L67.2904 15.8411L68.5521 14.2991L69.3932 13.0374L70.0942 11.215L70.2343 10.514V8.41121L69.6736 7.00935L69.1128 6.30841L68.8325 6.16822L68.6923 7.71028L68.1315 9.11215L67.2904 10.2336L66.4493 11.215L64.4867 12.4766L63.3652 13.0374L62.2437 12.8972H60.7016L59.8605 13.0374H58.739L56.7764 12.1963L54.5334 11.7757L54.6736 4.34579V0.140187L54.3932 0Z" fill="#02528F"/>
<path d="M52.7074 57.0566H57.6139L60.1373 57.1968L60.2775 57.337V67.851L59.9971 68.1314H49.2027L49.0625 67.9912V57.337L49.2027 57.1968L52.7074 57.0566Z" fill="#FCFDFD"/>
<path d="M51.168 68.1309H55.0932L54.6726 68.271V107.383L54.8128 119.299H54.5325L53.9717 115.654L54.1119 114.673L53.9717 110.467L53.8315 103.598L53.9717 99.3925V95.7477L53.8315 83.5514V69.1122L54.1119 68.4112L51.168 68.271V68.1309Z" fill="#055C8A"/>
<path d="M79.9103 22.7109H80.0505L80.1907 25.5147L79.9103 29.1595L79.2094 32.3838L78.0879 35.6081L76.9664 37.8511L75.5645 40.0941L74.1627 41.9165L72.901 43.3184L71.9197 44.2997L71.2188 44.5801L71.3589 44.1595H71.6393L71.7795 43.4586L74.3029 40.3745L75.2842 38.8324L76.2655 37.1502L77.2468 35.1876L78.2281 32.8044L78.929 30.281L79.0692 28.3184V26.496H79.3496V25.5147L79.9103 25.2343V22.7109Z" fill="#055C8A"/>
<path d="M29.0178 25.373L29.158 25.6534L29.2982 28.317L29.8589 31.6815L31.1206 35.1861L32.5225 38.1301L34.0645 40.373L35.3262 41.9151L36.8682 43.5973L37.9897 44.7188L38.8309 44.9992L38.6907 46.4011H38.5505V45.56L37.2888 45.1394L35.7468 43.317L35.3262 43.0366V42.7562L34.7654 42.4759L33.0832 40.2329L32.1019 38.6908L31.2608 37.1487L30.4196 35.3263L29.9991 34.0646V33.2235H29.7187L29.158 31.6815L28.8776 29.9992L28.5972 28.8777L28.457 27.8964V26.4945L28.5972 25.9338H28.8776V25.6534L28.457 25.5132L29.0178 25.373Z" fill="#055C8A"/>
<path d="M64.0661 39.5312H64.2063V46.2602L64.0661 49.4845L61.8231 50.0453L58.1783 50.7462L55.7951 51.0266H54.954L54.6736 50.4658L54.5334 47.8023L54.3932 46.821L53.9727 46.5406H55.2343L54.954 47.1013L55.0942 50.3256V50.7462L57.197 50.1855L58.5988 50.0453L59.7203 49.7649L59.8605 49.6247L60.982 49.4845L61.6829 49.6247L61.9633 49.4845H62.8044L62.9446 49.2041L63.7857 48.7836L63.9259 45.6995L64.0661 39.5312Z" fill="#055C8A"/>
<path d="M46.9648 49.9062L47.9462 50.0464L52.2919 50.7474L54.1144 51.0277L54.5349 51.4483L54.6751 52.8502L54.8153 56.7754L55.2359 57.0558H53.834L54.3947 56.6352L54.1144 54.8128V52.1492L53.6938 51.5885L53.1331 51.4483V51.1679H50.8901L49.2078 50.8876L47.3854 50.467L46.9648 50.0464V49.9062Z" fill="#055C8A"/>
<path d="M54.3945 0H54.8151L54.9553 2.38318L55.0955 9.95327L54.9553 11.6355L55.3758 11.7757H54.5347L54.6749 4.34579V0.140187L54.3945 0Z" fill="#055C8A"/>
</svg>
