<svg width="203" height="100" viewBox="0 0 203 100" fill="none" xmlns="http://www.w3.org/2000/svg">
<path d="M108.333 0L108.631 0.595238L105.952 4.46429L103.274 7.7381L99.7024 12.5L96.4286 17.2619L95.8333 18.75L97.9167 17.5595L102.976 13.3929L105.655 10.7143L108.333 7.44048L111.905 2.97619L113.69 0.595238L114.881 0L114.583 2.08333L113.095 4.7619L110.417 8.33333L105.952 13.0952L100.893 18.1548L95.2381 22.3214L92.2619 25L90.1786 28.5714L86.6071 36.3095L83.631 44.3452L83.3333 45.8333V47.9167L87.7976 54.7619L90.4762 59.2262L92.8571 63.0952L93.4524 63.3929L94.0476 64.881V65.7738L94.6429 66.0714L95.5357 69.0476L99.1071 77.9762L102.976 89.2857L104.762 95.5357L105.357 98.5119V100L104.464 98.8095L100.298 87.5L97.0238 79.4643L92.5595 70.5357L88.6905 63.6905L84.8214 57.1429L81.8452 52.381L80.9524 55.9524L80.3571 61.0119V67.2619L81.25 72.9167L83.0357 79.1667L84.2262 82.4405V83.9286L82.7381 83.3333L81.8452 81.8452L79.7619 76.1905L78.5714 71.7262L77.6786 65.1786V53.869L78.2738 47.9167L72.9167 41.369L69.3452 37.5L67.8571 36.3095L58.631 39.2857L48.5119 41.9643L41.6667 43.4524L33.631 44.6429H31.8452L31.25 44.0476L35.119 42.8571L45.8333 40.1786L53.869 37.7976L65.1786 33.9286V33.3333L61.6071 30.6548L57.1429 27.9762L50.8929 25L39.2857 21.4286L38.9881 20.2381L41.6667 20.5357L48.8095 22.3214L55.0595 24.7024L61.9048 28.2738L66.369 31.25L68.75 32.4405L73.8095 30.3571L81.8452 26.7857L87.5 24.1071L89.2857 22.619L91.369 19.3452L94.9405 14.5833L97.3214 11.6071L100.893 7.44048L105.357 2.67857L107.44 0.595238L108.333 0Z" fill="#B5D457"/>
<path d="M90.7753 25L91.6682 25.2976L91.3705 26.4881L88.9896 30.9524L85.4182 39.2857L83.6324 44.3452L83.3348 45.8333V47.9167L87.7991 54.7619L90.4777 59.2262L92.8586 63.0952L93.4539 63.3929L94.0491 64.881V65.7738L94.6443 66.0714L95.5372 69.0476L99.1086 77.9762L102.978 89.2857L104.763 95.5357L105.359 98.5119V100L104.466 98.8095L100.299 87.5L97.0253 79.4643L92.561 70.5357L88.692 63.6905L84.8229 57.1429L81.8467 52.381L80.9539 55.9524L80.3586 61.0119V67.2619L81.2515 72.9167L83.0372 79.1667L84.2277 82.4405V83.9286L82.7396 83.3333L81.8467 81.8452L79.7634 76.1905L78.5729 71.7262L77.6801 65.1786V53.869L78.2753 47.9167L72.9182 41.369L69.3467 37.5L68.1562 36.0119L70.5372 34.8214H71.1324L72.6205 36.3095L76.192 39.5833L78.5729 42.2619L79.1682 43.1548H79.7634L82.1443 36.0119L84.8229 30.0595L86.0134 27.9762L87.5015 26.7857L89.8824 25.2976L90.7753 25Z" fill="#4FB199"/>
<path d="M0 40.7734H4.46429L4.7619 41.0711L5.05952 51.7853H25.5952V42.5592L25.8929 40.7734H29.7619L30.6548 41.3687V67.8568L30.3571 68.1544L26.1905 68.452L25.8929 68.1544L25.5952 59.5234L25.2976 56.2496H13.6905L4.7619 56.5472V68.1544L2.97619 68.452H0V40.7734Z" fill="#B5D457"/>
<path d="M114.286 43.4531H136.607V46.7269L136.31 47.0246L118.75 47.3222V52.3817H128.869L129.167 52.6793V55.9531L118.75 56.2507V62.2031H136.607L136.905 62.5007V65.4769L136.607 65.7746L123.512 66.0722H114.286L113.988 65.7746V47.6198L114.286 43.4531Z" fill="#16A6DA"/>
<path d="M83.928 42.8574L108.035 43.155V46.7265L107.738 47.0241L97.9161 47.3217L97.6185 47.6193V66.0717L96.7256 66.3693L94.0471 65.7741L93.4518 64.286V63.3931L92.559 63.0955L89.8804 58.6312L86.0113 52.3812L83.0352 47.9169V45.8336L83.928 42.8574Z" fill="#B5D457"/>
<path d="M155.059 43.1543L165.178 43.4519L167.261 45.2376L168.154 47.6186V49.7019L167.261 51.19L165.773 51.4876H163.69V47.0233L148.511 47.321V62.2019L163.392 61.9043L163.69 57.44L163.987 57.1424L166.666 57.44L167.856 58.0352L168.154 58.6305V62.2019L166.964 64.5829L164.88 65.7733H146.725L145.237 64.8805L144.344 63.0948L144.047 61.9043V46.7257L144.94 44.6424L147.321 43.4519L155.059 43.1543Z" fill="#15A6DC"/>
<path d="M177.38 43.4531H181.249L181.547 52.0841H198.214L198.809 43.4531H202.976V65.7746H198.809L198.511 65.4769V55.9531L181.547 56.2507L181.249 65.7746H177.083L176.785 65.4769V44.6436L177.38 43.4531Z" fill="#15A6DB"/>
<path d="M82.7366 48.2148L83.9271 48.8101L87.7961 54.7625L90.4747 59.2267L92.8557 63.0958L93.4509 63.3934L94.0461 64.8815V65.7744L94.6414 66.072L95.5342 69.0482L99.1057 77.9767L102.975 89.2863L104.76 95.5363L105.356 98.5125V100.001L104.463 98.8101L100.296 87.5006L97.0223 79.4648L92.558 70.5363L88.689 63.691L84.8199 57.1434L81.8438 52.3815L82.1414 49.7029L82.7366 48.2148Z" fill="#18A7D7"/>
<path d="M44.3451 45.834H46.726V67.8578L44.9403 68.1554H42.5593L42.2617 67.8578L42.5593 46.1316L44.3451 45.834Z" fill="#13A6DD"/>
<path d="M84.8233 28.2734H85.7161L85.1209 30.0592L81.8471 37.4996L80.0614 43.1544H78.8709L76.7876 40.4758L73.8114 37.4996L71.1328 35.4163V34.8211L77.3828 32.1425L82.4423 29.7615L84.8233 28.2734Z" fill="#FEFFFE"/>
<path d="M83.3328 46.7266L92.559 47.0242L92.8566 47.3218L93.1542 57.7385L93.4518 63.3932L92.559 63.0956L89.8804 58.6313L86.0113 52.3813L83.0352 47.917L83.3328 46.7266Z" fill="#FEFFFE"/>
<path d="M108.335 0L108.633 0.595238L105.954 4.46429L103.276 7.7381L99.7042 12.5L96.4304 17.2619L94.3471 19.6429L91.9661 21.7262L90.7757 22.619H89.8828L90.1804 21.131L93.1566 16.9643L95.8352 13.3929L99.4066 9.22619L101.49 6.84524L105.061 2.97619L107.442 0.595238L108.335 0Z" fill="#51B297"/>
<path d="M38.9883 20.2383L41.6669 20.5359L48.8097 22.3216L55.0597 24.7026L61.9049 28.274L66.3692 31.2502L68.4526 32.143L68.1549 33.0359L65.774 33.9288L63.393 31.8454L57.7383 28.274L50.893 25.0002L39.2859 21.4288L38.9883 20.2383Z" fill="#19A7D6"/>
<path d="M70.5372 34.8223H71.1324L72.6205 36.3104L76.192 39.5842L78.5729 42.2627L79.4658 43.4532L79.1682 46.4294L78.8705 47.0246L77.3824 46.727L74.1086 42.858L71.4301 39.5842L68.1562 36.3104L69.0491 35.4175L70.5372 34.8223Z" fill="#17A6D9"/>
</svg>
