<svg width="238" height="100" viewBox="0 0 238 100" fill="none" xmlns="http://www.w3.org/2000/svg">
<path d="M47.2937 0H49.6133L51.0308 0.386598L52.0617 0.902062L53.3504 1.93299L54.3813 3.35051L54.8967 4.25258L55.4122 5.79897V7.34536L54.7679 9.02062L53.9947 10.3093L52.8349 11.5979L51.5462 12.3711L50.1287 12.8866L48.5823 13.1443L48.0669 15.0773L45.7473 25.5155L44.3298 32.0876L43.6854 35.1804V35.9536L45.103 37.5L45.8761 37.2423L50.1287 35.0515L52.4483 33.7629L56.1854 31.701L58.7627 30.1546L60.8246 29.2526L62.2421 28.7371L62.3709 25.9021L62.8864 24.8711L64.0462 23.5825L64.5617 23.1959L65.7215 22.8093H66.8812L68.041 22.9381L69.4585 23.4536L70.3606 24.2268L71.1338 25.3866L71.6493 27.0619V28.3505L71.2627 29.2526L70.4895 30.2835L70.1029 30.6701L70.3606 31.1856L71.6493 32.3454L72.9379 33.634L74.3554 35.4381L75.773 37.1134L77.0616 38.7887L78.4791 40.335L79.6389 41.7526L80.9276 42.268L82.7317 42.1392L83.376 42.5258L84.0204 43.4278L84.6647 45.3608V46.134L83.7626 47.2938L82.6028 48.1959L81.8296 48.5825L80.6699 48.4536L78.8657 47.2938L78.3503 46.5206L78.2214 44.3299L75.3864 40.7216L73.84 38.7887L72.5513 37.1134L71.0049 35.4381L69.8451 34.0206L69.2008 33.2474L68.1699 32.3454L67.139 31.8299L64.6905 31.701L64.5617 31.5722H63.5307L61.9843 32.2165L58.505 34.2783L53.6081 37.3711L50.5153 39.3041L47.8091 40.9794L47.1648 41.366L47.0359 44.4588L46.9071 45.7474L46.3916 47.0361L45.4896 48.3247L44.4586 49.7423L42.9122 51.0309L40.8504 52.1907L39.8195 52.7062V53.866L38.5308 59.2783L37.1133 65.335L36.9844 66.4948L39.304 67.0103L44.8452 68.0412L49.3555 68.5567L51.1596 68.6856H56.572L60.6957 68.4278L64.6905 67.9124L68.041 67.268L71.1338 66.366L73.9688 65.335L77.7059 63.5309L80.1544 61.9845L81.443 60.9536L82.9894 59.6649L83.6338 59.2783L83.376 60.4381L82.3451 62.5L81.1853 64.3041L79.8967 65.9794L78.7369 67.268L76.9328 69.0722L74.3554 71.0051L71.1338 72.9381L68.2988 74.3557L65.0771 75.6443L61.5977 76.6752L58.1184 77.4484L55.4122 77.835L53.3504 77.9639H49.4844L45.8761 77.7062L42.0102 77.1907L35.6958 76.1598H34.7937L34.4071 77.1907L34.2782 77.7062L34.6648 78.6082L36.0824 79.6392L36.9844 80.5412L38.2731 82.4742L39.304 84.6649L39.9483 86.4691L40.0772 87.1134V89.5618L39.4329 92.5258L38.4019 94.5876L37.371 96.0051L36.2112 97.1649L34.1494 98.5825L32.603 99.3557L30.2834 100H27.1906L25.1288 99.6134L23.7113 99.0979L22.036 98.1959L20.2319 96.6495L18.8144 95.1031L18.0412 93.8144L17.5257 92.6546L16.8814 90.4639V86.9845L17.268 84.9227L17.7835 83.5051L18.4278 82.3453L19.5876 81.0567L21.6494 78.9948L23.4535 77.835L24.6133 77.3196L26.804 76.6752H27.3195L27.7061 75V73.9691L26.6752 73.1959L23.0669 71.2629L19.5876 69.3299L15.7216 66.7526L13.9175 65.335L12.5 64.1752L9.92265 61.8557L8.2474 60.0515L6.57214 57.8608L5.28349 56.0567L3.7371 53.4794L2.19071 50.5155L1.03092 47.5515L0.386597 45.1031L0.128866 43.5567L0 41.8814V40.4639L0.257731 37.7577L0.773193 35.567L1.80412 32.9897L2.96391 30.799L4.25256 28.866L5.41235 27.4484L7.08761 25.7732L8.50513 24.6134L10.4381 23.1959L12.8866 21.6495L15.8505 20.1031L18.4278 19.0722L21.5206 18.1701L24.7422 17.5258L27.9638 17.1392L31.4432 16.8814H38.9174L39.5617 17.1392V18.299L39.0463 18.6856L38.0153 18.9433L30.2834 19.7165L26.6752 20.232L23.0669 21.0052L20.6185 21.7783L18.0412 22.8093L15.0773 24.3557L13.0154 25.9021L11.0824 27.7062L10.1804 28.7371L8.50513 30.9278L7.08761 33.3763L6.31441 35.3093L5.79895 37.8866V40.8505L6.31441 43.4278L7.21647 45.7474L8.2474 47.8093L9.79378 50.1289L11.2113 51.933L13.1443 53.9948L15.0773 55.799L16.8814 57.2165L19.201 58.8917L21.9072 60.567L25.6443 62.5L30.2834 64.433L30.7989 62.3711L33.1185 53.3505L33.5051 52.1907V51.6752L32.3453 50.9021L31.1855 50L30.1545 48.8402L29.1236 46.7783L28.6082 45.1031L28.4793 44.201V42.0103L28.9948 39.5618L29.768 38.0155L32.0875 35.6959L33.7628 34.6649L35.5669 34.0206L36.5978 33.7629H38.5308L38.6597 32.2165L39.4329 28.7371L42.0102 18.8144L43.17 14.433L43.8143 11.4691V10.6959L42.9122 9.14948L42.2679 7.73196L42.139 7.21649V5.92783L42.6545 4.25258L43.17 3.09278L44.5875 1.54639L45.8761 0.64433L47.2937 0Z" fill="#A9AAAA"/>
<path d="M103.867 30.7991L104.125 30.9279L105.413 34.5362L106.831 38.1444L108.764 42.7836L111.212 48.5826L112.63 51.6754L113.532 53.2217L114.95 54.7681L115.723 55.2836L117.011 55.4125L119.718 54.6393L120.491 54.1238L120.748 53.4795L120.877 49.8712V37.8867L120.748 33.8919L120.362 32.9898L118.3 32.3455L117.269 32.0877L117.14 31.7011H123.841L124.614 32.9898L126.547 36.9846L128.48 41.2372L129.898 44.4589L132.217 49.8712L132.604 50.6444L134.15 47.165L136.212 42.7836L137.63 39.8197L140.078 34.9228L141.238 32.3455L141.625 31.83L145.491 31.5723H150.903L161.47 31.83L164.305 32.2166L165.723 32.7321L167.14 33.763L168.171 34.9228L169.202 36.8558L169.46 38.0156V39.0465L168.944 40.2063L167.913 41.6238L167.011 42.5259L166.109 43.1702L166.238 43.5568L167.913 44.4589L169.202 45.6187L169.975 46.9073L170.491 48.5826V50.3867L169.717 51.9331L168.686 53.2217L167.784 54.1238L165.98 55.1547L164.949 55.4125L161.212 55.6702H150.13L148.97 55.5413L149.614 55.0259L150.13 54.7681L151.676 54.5104L152.449 54.1238L152.578 53.0929L152.707 50.0001V37.629L152.578 33.8919L152.321 32.9898L150.516 32.3455L149.099 32.2166L147.037 32.3455L145.362 32.7321L144.846 33.2475L144.589 34.0207V44.5877L144.717 53.8661L144.975 54.5104L146.65 54.7681L146.779 55.2836L148.455 55.4125V55.6702H139.047L138.145 55.4125L138.403 54.897L140.98 53.9949H141.238V41.6238L141.367 36.2114L140.98 36.3403L139.047 40.3352L136.986 44.9743L135.568 48.0671L133.764 51.9331L133.12 53.6083L132.604 55.1547L131.96 55.2836L131.315 54.7681L130.156 52.5774L126.934 45.4898L125.903 43.4279L124.486 40.0774L123.326 37.3712L122.681 36.3403L122.553 36.2114V53.7372L122.939 54.1238L124.614 55.0259L125.13 55.5413V55.7991L116.109 55.9279L113.661 55.7991L111.599 55.5413L109.795 55.7991H107.733L107.218 55.6702V55.4125L108.506 54.5104L109.537 53.7372L109.666 53.0929L108.764 50.7733L107.733 48.196L107.346 47.6805H98.3258L96.6506 51.4176L95.8774 53.6083L95.7485 54.2527L97.0372 54.6393L98.7124 55.5413L98.8413 55.7991H95.8774L94.0733 55.6702H91.6248L91.1094 55.7991V55.5413L92.1403 55.0259L93.5578 53.8661L94.5887 52.062L96.7795 47.165L99.099 41.6238L100.259 38.9176L102.192 34.6651L103.48 31.5723L103.867 30.7991Z" fill="#15224D"/>
<path d="M47.2948 0H49.6144L51.0319 0.386598L52.0629 0.902062L53.3515 1.93299L54.3825 3.35052L54.8979 4.25258L55.4134 5.79897V7.34536L54.769 9.02062L53.9959 10.3093L52.8361 11.5979L51.5474 12.3711L50.1299 12.8866L48.5835 13.1443L48.068 15.0773L45.7485 25.5155L44.3309 32.0876L43.6866 35.1804V35.9536L45.1041 37.5L45.8773 37.2423L50.1299 35.0515L52.4495 33.7629L56.1866 31.701L58.7639 30.1546L60.8257 29.2526L62.2433 28.7371L62.3721 25.9021L62.8876 24.8711L64.0474 23.5825L64.5628 23.1959L65.7226 22.8093H66.8824L68.0422 22.9381L69.4597 23.4536L70.3618 24.2268L71.135 25.3866L71.6504 27.0619V28.3505L71.2638 29.2526L70.4907 30.2835L70.1041 30.6701L70.3618 31.1856L71.6504 32.3454L72.9391 33.634L74.3566 35.4381L75.7741 37.1134L77.0628 38.7887L78.4803 40.335L79.6401 41.7526L80.9288 42.268L82.7329 42.1392L83.3772 42.5258L84.0215 43.4278L84.6659 45.3608V46.134L83.7638 47.2938L82.604 48.1959L81.8308 48.5825L80.671 48.4536L78.8669 47.2938L78.3515 46.5206L78.2226 44.3299L75.3875 40.7216L73.8412 38.7887L72.5525 37.1134L71.0061 35.4381L69.8463 34.0206L69.202 33.2474L68.1711 32.3454L67.1401 31.8299L64.6917 31.701L64.5628 31.5722H63.5319L61.9855 32.2165L58.5061 34.2783L53.6093 37.3711L50.5165 39.3041L47.8103 40.9794L47.166 41.366L47.0371 44.4588L46.9082 45.7474L46.3928 47.0361L45.4907 48.3247L44.4598 49.7423L42.9134 51.0309L40.8516 52.1907L38.6608 52.835L36.599 52.7062L34.4083 52.1907L33.764 51.933V51.6753L33.1196 51.4175L32.3464 50.9021L31.1866 50L30.1557 48.8402L29.1248 46.7783L28.6093 45.1031L28.4805 44.201V42.0103L28.9959 39.5619L29.7691 38.0155L32.0887 35.6959L33.764 34.6649L35.5681 34.0206L36.599 33.7629H38.532L38.6608 32.2165L39.434 28.7371L42.0114 18.8144L43.1711 14.433L43.8155 11.4691V10.6959L42.9134 9.14948L42.2691 7.73196L42.1402 7.21649V5.92783L42.6557 4.25258L43.1711 3.09278L44.5887 1.54639L45.8773 0.64433L47.2948 0Z" fill="#094FA1"/>
<path d="M27.3209 76.5464L30.4137 76.6753L32.7333 77.1907L34.1508 77.835L34.6663 78.6082L36.0838 79.6392L36.9858 80.5412L38.2745 82.4742L39.3054 84.6649L39.9498 86.4691L40.0786 87.1134V89.5618L39.4343 92.5258L38.4034 94.5876L37.3724 96.0051L36.2127 97.1649L34.1508 98.5825L32.6044 99.3557L30.2848 100H27.1921L25.1302 99.6134L23.7127 99.0979L22.0374 98.1959L20.2333 96.6495L18.8158 95.1031L18.0426 93.8144L17.5271 92.6546L16.8828 90.4639V86.9845L17.2694 84.9227L17.7849 83.5051L18.4292 82.3454L19.589 81.0567L21.6508 78.9948L23.455 77.835L24.6147 77.3196L27.3209 76.5464Z" fill="#094FA1"/>
<path d="M145.488 31.5723H150.9L161.467 31.83L164.302 32.2166L165.719 32.7321L167.137 33.763L168.168 34.9228L169.199 36.8558L169.457 38.0156V39.0465L168.941 40.2063L167.91 41.6238L167.008 42.5259L166.106 43.1702L166.235 43.5568L167.91 44.4589L169.199 45.6187L169.972 46.9073L170.488 48.5826V50.3867L169.714 51.9331L168.683 53.2217L167.781 54.1238L165.977 55.1547L164.946 55.4125L161.209 55.6702H150.127L148.967 55.5413L149.611 55.0259L150.127 54.7681L151.673 54.5104L152.446 54.1238L152.575 53.0929L152.704 50.0001V37.629L152.575 33.8919L152.317 32.9898L150.513 32.3455L149.096 32.2166H147.292L146.132 32.0877L146.003 31.9589L143.297 31.83V31.7011L145.488 31.5723Z" fill="#15224E"/>
<path d="M47.2941 0H49.6137L51.0312 0.386598L52.0621 0.902062L53.3508 1.93299L54.3817 3.35051L54.8972 4.25258L55.4126 5.79897V7.34536L54.7683 9.02062L53.9951 10.3093L52.8353 11.5979L51.5467 12.3711L50.1292 12.8866L48.5828 13.1443L48.0673 15.0773L45.7477 25.5155L44.3302 32.0876L43.557 35.8247L41.3663 34.7938L39.1756 34.0206L38.5312 33.7629L38.6601 32.2165L39.4333 28.7371L42.0106 18.8144L43.1704 14.433L43.8147 11.4691V10.6959L42.9127 9.14948L42.2684 7.73196L42.1395 7.21649V5.92783L42.6549 4.25258L43.1704 3.09278L44.5879 1.54639L45.8766 0.64433L47.2941 0Z" fill="#0A4FA1"/>
<path d="M65.724 22.8093H66.8838L68.0435 22.9382L69.4611 23.4537L70.3631 24.2269L71.1363 25.3866L71.6518 27.0619V28.3506L71.2652 29.2526L70.492 30.2836L70.1054 30.6702L70.3631 31.1856L71.6518 32.3454L72.9404 33.6341L74.358 35.4382L75.7755 37.1134L77.0641 38.7887L78.4817 40.3351L79.6414 41.7526L80.9301 42.2681L82.7342 42.1392L83.3785 42.5258L84.0229 43.4279L84.6672 45.3609V46.1341L83.7651 47.2939L82.6054 48.1959L81.8322 48.5825L80.6724 48.4537L78.8683 47.2939L78.3528 46.5207L78.2239 44.3299L75.3889 40.7217L73.8425 38.7887L72.5538 37.1134L71.0075 35.4382L69.8477 34.0207L69.2033 33.2475L68.1724 32.3454L67.1415 31.8299L64.693 31.7011L64.5642 31.5722H63.5332L61.9869 32.2165L58.5075 34.2784L53.6106 37.3712L50.5178 39.3042L47.8116 40.9794L47.1673 41.366L47.0385 44.4588L46.9096 45.7475H46.7807V41.6238L46.0075 39.5619L45.1055 37.6289L50.1312 35.0516L52.4508 33.7629L56.1879 31.7011L58.7652 30.1547L60.8271 29.2526L62.2446 28.7372L62.3735 25.9021L62.8889 24.8712L64.0487 23.5825L64.5642 23.1959L65.724 22.8093Z" fill="#5299C0"/>
<path d="M149.096 32.0876L150.513 32.2165L152.317 32.8608L152.704 33.8918L152.833 37.6289V50L152.704 53.0928L152.575 54.1237L152.059 54.5103L151.157 54.7681L149.74 55.0258L149.224 55.4124L150.126 55.5413L160.693 55.6701V55.799H142.395V55.6701L146.647 55.5413L148.451 55.6701V55.4124H147.163L146.776 55.2835L146.647 54.8969L144.972 54.6392L144.714 54.3815L144.585 53.866L144.456 44.5876V34.0206L144.843 32.9897L145.358 32.6031L147.034 32.2165L149.096 32.0876Z" fill="#FBFBFB"/>
<path d="M103.867 30.7991L104.125 30.9279L105.413 34.5362L106.831 38.1444L108.764 42.7836L111.212 48.5826L112.63 51.6754L113.532 53.2217L114.95 54.7681L115.723 55.2836L117.011 55.4125L119.331 54.7681L119.846 54.897V55.1547L121.393 55.2836L124.614 55.4125L125.13 55.7991L116.109 55.9279L113.661 55.7991L111.599 55.5413L109.795 55.7991H107.733L107.218 55.6702V55.4125L108.506 54.5104L109.537 53.7372L109.666 53.0929L108.764 50.7733L107.733 48.196L107.346 47.6805H98.3258L96.6506 51.4176L95.8774 53.6083L95.7485 54.2527L97.0372 54.6393L98.7124 55.5413L98.8413 55.7991H95.8774L94.0733 55.6702H91.6248L91.1094 55.7991V55.5413L92.1403 55.0259L93.5578 53.8661L94.5887 52.062L96.7795 47.165L99.099 41.6238L100.259 38.9176L102.192 34.6651L103.48 31.5723L103.867 30.7991Z" fill="#14214C"/>
<path d="M220.875 31.3145L221.262 31.4433L221.777 32.4742L224.097 38.5309L226.416 44.0722L228.478 49.098L230.024 52.3196L231.055 53.7371L232.344 54.7681L233.504 55.6701L233.633 55.9279H224.354L224.612 55.4124L225.643 54.3815L226.416 53.7371V52.1907L225.256 48.7114L224.87 47.8093L224.354 47.6804H215.463L214.689 49.2268L213.787 51.2887L213.143 52.8351L213.272 53.6083L214.561 54.7681L215.334 55.6701V55.9279L214.174 55.799L213.53 55.6701H210.695L209.664 55.799H208.504L209.277 54.8969L210.566 53.6083L211.597 51.8041L213.014 48.9691L214.818 44.9742L216.88 39.9485L218.813 35.6959L219.973 33.1186L220.488 31.7011L220.875 31.3145Z" fill="#14214D"/>
<path d="M139.949 61.8557L140.851 61.9846L141.109 62.1134H143.3L143.815 62.3712L145.362 65.3351L147.037 68.9433L148.97 73.3248L149.872 74.8712L150.387 73.8402L151.934 70.4897L152.965 68.4279L153.996 66.2372L154.769 64.9485L155.671 62.7578L156.186 62.2423L156.959 62.1134H159.408L159.15 62.7578L158.377 63.7887L158.119 64.3042L158.248 77.4485L158.764 78.2217L159.15 78.4794H162.372L163.403 78.2217L164.047 77.5774L164.176 76.5464V66.4949L164.047 63.9176L163.66 62.8866V62.5L162.758 62.2423L162.501 61.8557L163.532 61.9846L163.789 62.1134L168.171 61.9846L168.042 62.3712L166.882 63.1444H166.624V77.3196L167.14 77.8351L168.042 78.4794L168.171 78.866L167.913 78.9949H153.609L153.094 78.866V78.6083L153.867 78.3506L155.155 78.0928L155.671 77.7062L155.8 75.7732L155.929 68.8145V65.9794L155.8 65.7217H155.542L154.124 68.4279L153.222 70.4897L151.676 73.8402L150.516 76.031L149.614 78.2217L149.228 78.4794L148.712 78.3506L148.197 77.0619L147.295 74.8712L144.975 69.8454L143.557 66.8815L142.655 65.464L142.398 65.2062L142.527 65.9794L142.655 77.964L143.042 78.2217L144.46 78.4794L144.588 78.866L144.202 78.9949H139.949V78.7372L140.594 78.2217L140.98 77.4485L141.238 74.6134L141.367 68.1701L141.496 64.1753L140.207 62.3712L139.949 61.8557Z" fill="#15224E"/>
<path d="M195.103 61.8557H195.49L196.263 63.0155L198.711 69.3299L200.386 73.3248L201.675 76.2887L202.577 77.5774L203.35 78.4794H206.185L207.345 77.7062L207.474 74.8712V71.5207L207.345 65.3351L207.216 63.4021L206.701 62.3712L205.412 62.1134L205.283 61.8557L208.118 62.1134L211.598 62.2423L211.855 62.5L210.825 62.6289L209.922 63.1444L209.794 64.1753V76.031L209.922 77.3196L210.051 77.5774L210.825 77.7062H214.69L216.237 77.4485L217.397 76.6753L219.201 73.9691L219.33 74.4846L218.428 77.1908L217.912 78.2217L217.139 78.6083L215.721 78.866L210.309 78.9949H203.737L201.16 79.1238H198.582L198.067 78.9949V78.7372L199.227 77.8351V76.8042L198.711 74.8712L198.196 73.5825L198.067 73.1959L197.294 73.3248H192.912L191.366 73.1959L189.948 77.4485L190.077 77.964L190.85 78.6083V78.9949H186.984L187.242 78.3506L188.66 76.2887L189.562 74.3557L190.979 70.7475L192.783 66.8815L194.072 64.433L194.716 62.3712L195.103 61.8557Z" fill="#15224E"/>
<path d="M156.315 58.1184H219.33L235.18 58.2473L236.855 58.3761L237.242 58.505L237.113 59.4071H234.536L231.443 59.2782L216.108 59.1493H194.845L187.758 59.2782L171.65 59.1493H112.242L96.9075 59.0205H92.0106L89.4333 58.7627L88.4023 58.505V58.3761L93.0415 58.2473L156.315 58.1184Z" fill="#2A3041"/>
<path d="M196.391 31.3145H198.84L200.901 31.8299L202.963 32.8608L203.994 33.5052L204.381 32.3454L205.025 31.7011L205.541 31.8299L206.056 32.4742L206.185 32.8608V35.8248L206.572 39.3041L205.798 39.1753L205.025 37.1134L204.123 35.4382L203.479 34.665L202.19 33.7629L200.386 32.9897L198.711 32.6031H196.907L194.974 33.2474L193.298 34.1495L192.01 35.3093L191.108 36.598L190.334 38.1443L189.69 40.4639L189.432 42.6547V45.232L189.69 47.165L190.334 48.8402L191.494 51.0309L192.912 52.5773L194.2 53.4794L196.005 54.2526L197.164 54.5103H199.613L201.159 53.9949L202.577 53.2217L203.865 52.1907L204.252 52.0619L204.51 51.5464L205.541 50.6443L206.443 49.7423L207.087 49.6134L206.958 50.3866L206.185 51.4175L204.767 52.9639L203.092 54.2526L201.546 55.1547L199.871 55.799L198.968 56.0567H196.005L193.814 55.6701L192.525 55.2835L191.108 54.5103L189.819 53.4794L188.788 52.5773L187.371 50.6443L186.34 48.5825L185.953 47.4227L185.695 45.4897V42.9124L185.953 41.1083L186.726 38.7887L187.757 36.7268L189.046 35.0516L190.077 34.0206L191.494 32.9897L193.298 32.0876L194.974 31.5722L196.391 31.3145Z" fill="#15224E"/>
<path d="M43.9436 10.8247L46.0055 11.8556L47.9384 13.0154L48.325 13.402L48.1962 14.433L46.6498 21.3917L44.8457 29.6391L43.557 35.8247L41.3663 34.7938L39.1756 34.0206L38.5312 33.7628L38.6601 32.2165L39.4333 28.7371L42.0106 18.8144L43.1704 14.433L43.9436 10.8247Z" fill="#529AC1"/>
<path d="M156.187 43.9434H159.022L161.858 44.0722L163.146 44.33L164.435 45.1032L165.852 46.3918L166.497 47.4227L167.012 48.9691L166.883 50.1289L166.239 51.4176L165.079 52.7062L163.79 53.6083L162.115 54.2526L160.955 54.3815H157.089L156.059 54.1238L155.93 53.866V44.33L156.187 43.9434Z" fill="#FAFAFA"/>
<path d="M106.574 61.8557H109.023L109.796 62.1134L110.827 61.8557H111.986L111.858 62.2423L110.569 62.3712L110.053 63.1444L109.925 69.8454L117.656 69.5877V67.5258L117.528 63.7887L117.27 62.6289L116.368 62.2423V61.9846L116.11 61.8557L117.27 61.9846L120.105 62.2423L120.62 62.3712L120.234 64.433V71.3918L120.363 77.5774L120.749 78.3506L121.265 78.7372V78.9949H119.074L115.595 78.866L115.466 78.6083L115.595 78.3506H115.852V77.964L117.012 77.8351L117.528 77.5774L117.656 77.3196L117.785 75.9021V70.8763L116.626 70.7475L110.053 70.8763V77.4485L110.955 78.2217L111.342 78.866L110.827 78.9949H106.059V78.6083L106.703 78.0928L107.218 77.8351L107.476 76.933L107.605 75V63.4021L106.703 62.5L106.574 61.8557Z" fill="#202E54"/>
<path d="M141.624 31.8298H146.005L146.134 31.9587L147.294 32.0876L147.036 32.3453L145.361 32.7319L144.846 33.2474L144.588 34.0206V44.5876L144.717 53.8659L144.974 54.5102L146.65 54.768L146.779 55.2834L148.454 55.4123V55.67H139.047L138.145 55.4123L138.402 54.8968L140.98 53.9948H141.237V41.6236L141.366 36.2113L140.98 36.3401L140.593 36.8556L140.206 36.9845L139.562 38.2731L139.304 38.1443L139.691 37.2422H139.433L139.175 37.7577L138.789 37.4999L140.593 33.7628L141.495 31.9587L141.624 31.8298Z" fill="#14214D"/>
<path d="M33.6357 51.6753L33.7645 51.933L35.9552 52.4485L37.6305 52.7062H38.6614L39.9501 52.3196L40.3367 52.4485L39.8212 52.8351V53.866L38.5326 59.2784L37.115 65.3351L36.8573 66.366L35.5686 66.2371L32.347 65.3351L30.2852 64.5619L30.5429 63.2732L32.7336 54.8969L33.3779 52.4485L33.6357 51.6753Z" fill="#519AC1"/>
<path d="M173.453 31.5723H183.247L183.118 32.2166L181.443 32.7321L180.025 33.2475L179.896 34.4073L179.768 51.8042L179.896 53.2217L180.798 53.9949L182.86 55.0259L183.118 55.2836V55.6702L182.731 55.7991L178.737 55.9279H173.711L173.582 55.6702L175 54.7681L176.159 53.9949H176.417L176.675 53.3506L176.804 52.5774V32.9898L175.773 32.8609L173.711 32.2166L173.453 32.0877V31.5723Z" fill="#15224E"/>
<path d="M156.059 33.1187H158.894L161.729 33.3764L163.404 33.8918L164.821 34.9228L165.852 36.2114L166.239 37.2424V38.6599L165.595 39.9485L164.177 41.6238L162.888 42.2681L161.213 42.5259L156.187 42.7836L155.93 42.5259V33.3764L156.059 33.1187Z" fill="#FAFAFA"/>
<path d="M139.949 61.8557L140.851 61.9846L141.109 62.1134H143.3L143.815 62.3712L145.362 65.3351L147.037 68.9433L148.97 73.3248L149.872 74.8712L150.387 73.8402L151.934 70.4897L152.965 68.4279L153.996 66.2372L154.769 64.9485L155.671 62.7578L156.186 62.2423L156.959 62.1134H159.408L159.15 62.7578L158.377 63.7887L158.248 63.531L157.346 63.9176L156.186 65.0774L155.8 64.9485V65.2062L156.186 65.464H155.929L155.8 65.7217H155.542L154.124 68.4279L153.222 70.4897L151.676 73.8402L150.516 76.031L149.614 78.2217L149.228 78.4794L148.712 78.3506L148.197 77.0619L147.295 74.8712L144.975 69.8454L143.557 66.8815L142.655 65.464L142.398 65.2062L142.527 65.9794L142.655 77.964L143.042 78.2217L144.46 78.4794L144.588 78.866L144.202 78.9949H139.949V78.7372L140.594 78.2217L140.98 77.4485L141.238 74.6134L141.367 68.1701L141.496 64.1753L140.207 62.3712L139.949 61.8557Z" fill="#16153A"/>
<path d="M125.644 61.9846H136.469L136.855 63.0155L136.984 63.4021V64.3042L136.211 65.5929L135.953 65.8506L135.824 63.6599L135.309 63.1444L132.989 63.0155H129.51L128.737 63.1444L128.479 63.9176V69.33H131.701L134.02 69.2011L134.793 68.5568L135.438 67.6547H135.695L135.567 68.9434L135.18 70.6186L134.793 71.9073L134.278 71.6496L133.634 70.8764L132.86 70.6186L130.025 70.4898L128.994 70.3609L128.866 70.6186H128.608V77.1908L128.737 77.7063L128.994 77.8351H132.474L134.407 77.7063L135.567 77.1908L136.726 75.7733L137.886 74.2269H138.015L137.886 75.2578L136.984 77.4485L136.469 78.2217L135.695 78.8661L134.793 78.9949H127.706L124.355 78.8661L123.711 78.6083L123.84 78.0929L125.902 77.8351L126.031 77.7063V67.1393L125.902 62.2424H125.644V61.9846Z" fill="#212F55"/>
<path d="M60.8271 29.2524L62.6312 29.3813L64.5642 31.3143V31.4432L63.1467 31.7009L61.0848 32.7318L58.5075 34.2782L53.6106 37.371L50.5178 39.304L47.8116 40.9792L47.1673 41.3658L47.0385 44.4586L46.9096 45.7473H46.7807V41.6236L46.0075 39.5617L45.1055 37.6287L50.1312 35.0514L52.4508 33.7627L56.1879 31.7009L58.7652 30.1545L60.8271 29.2524Z" fill="#529AC1"/>
<path d="M106.574 61.7268H135.956L136.729 61.9845L137.115 63.2732V64.1753H136.986L136.729 63.0155L136.471 62.1134L125.646 61.9845V62.2423L121.007 62.3711L120.621 62.5L118.559 62.2423L116.368 61.9845V62.2423L117.141 62.3711L117.528 62.8866L117.657 63.7887L117.786 67.5258V69.5876L117.657 69.7165L113.017 69.8454H109.925V63.1443L110.44 62.3711L110.569 62.2423H111.858V61.9845H110.827L109.538 62.2423L109.023 61.9845L106.574 61.8557V61.7268Z" fill="#FCFCFC"/>
<path d="M65.7212 22.8093H66.881L68.0408 22.9382L69.4583 23.4537L70.3604 24.2269L71.1336 25.3866L71.649 27.0619V28.3506L71.2625 29.2526L70.4893 30.2836L70.1027 30.6702L70.2315 31.3145L68.5563 31.4433L67.7831 31.7011H64.6903L63.5305 30.4124L62.6285 29.6392V29.3815H61.2109L61.3398 29.1238L62.2419 28.7372L62.3707 25.9021L62.8862 24.8712L64.046 23.5825L64.5614 23.1959L65.7212 22.8093Z" fill="#0A50A1"/>
<path d="M225.643 61.469H226.803L228.607 61.8556L230.54 62.6288L230.927 62.8865L230.798 62.6288V61.8556H231.184L231.313 62.1133L231.571 64.5618L231.829 65.8504V66.6236L231.313 66.3659L230.025 64.6906L229.123 63.6597L227.834 62.8865L226.03 62.7577L224.999 63.2731L223.839 64.304L223.324 65.335L223.71 66.4948L224.999 67.6546L229.509 70.2319L230.927 71.2628L231.829 72.1649L232.602 73.7113V75.1288L231.7 76.9329L230.669 77.9638L229.38 78.737L228.221 79.1236H225.643L224.097 78.6082L222.293 78.3504L221.777 77.9638L221.648 77.5772V73.3247L222.164 73.1958L222.808 75.7731L223.453 76.9329L224.612 77.7061L225.385 77.9638L226.674 78.0927L228.092 77.835L229.38 77.1906L230.154 76.2886L230.54 75.3865L230.411 74.3556L229.509 73.3247L228.607 72.5515L226.159 71.1339L223.839 69.7164L222.422 68.4278L221.648 67.1391L221.52 66.7525V65.335L222.035 63.9174L223.195 62.6288L224.355 61.8556L225.643 61.469Z" fill="#15214B"/>
<path d="M177.58 61.5979H180.157L182.992 62.2422L184.796 62.3711L184.925 62.5L185.312 65.4639L185.441 65.8505V67.268L184.796 66.6237L183.765 65.2061L182.606 63.9175L182.219 63.5309L180.673 62.7577L180.028 62.6288H178.997L177.064 63.1443L175.647 64.1752L174.745 65.2061L173.714 67.0103L173.327 68.4278L173.198 69.201V71.134L173.585 73.5824L174.616 75.6443L175.647 76.8041L176.935 77.5773L178.095 77.9639L178.868 78.0927H180.028L181.703 77.5773L182.863 76.8041L183.636 76.1598L184.539 75L185.441 74.2268L185.569 74.7422L184.925 76.0309L183.765 77.3195L182.606 78.2216L181.575 78.7371L179.771 79.2525L179.126 79.3814H177.58L175.776 78.8659L174.1 77.9639L172.812 76.8041L171.781 75.3866L171.008 73.8402L170.492 71.7783V69.8453L170.75 68.1701L171.265 66.7525L172.039 65.335L173.198 63.9175L175.002 62.5L176.42 61.8556L177.58 61.5979Z" fill="#15224D"/>
<path d="M89.6906 58.1184H156.314V58.2473L93.0411 58.3761L88.6596 58.505L90.206 58.7627L92.0101 58.8916H97.8091L112.242 59.0205H171.649L189.046 59.1493L194.845 59.0205H216.108L231.443 59.1493L236.984 59.4071V59.5359H171.907L130.67 59.4071H125.644L89.4328 59.5359L87.2421 59.4071L86.9844 58.7627L87.1132 58.2473L89.6906 58.1184Z" fill="#AAABAB"/>
<path d="M95.7479 61.7268H99.2273L100.903 62.2423H102.964L103.351 63.0155L103.609 64.9485L103.738 67.1392L103.093 66.4948L101.805 64.433L101.418 64.0464V63.7887L100.903 63.5309L99.7428 63.0155L99.0984 62.8866H97.0366L95.4902 63.1443L94.3304 63.9175L93.4283 64.8196L92.3974 66.4948L91.882 68.1701L91.7531 69.0722V72.165L92.1397 73.9691L92.9129 75.5155L94.0727 76.8041L95.3613 77.5773L97.1654 78.0928H98.4541L99.8716 77.5773L101.16 76.8041L102.578 75.6443L103.48 74.6134L103.866 74.2268H104.124L103.995 74.8711L103.222 76.0309L102.578 76.8041L100.903 78.0928L99.8716 78.6082L98.9696 78.9948L97.6809 79.2526H95.7479L93.6861 78.4794L91.882 77.3196L90.7222 76.0309L89.8201 74.4845L89.1758 72.2938V69.4588L89.6912 67.1392L90.7222 65.0773L92.1397 63.5309L93.5572 62.5L95.2325 61.8557L95.7479 61.7268Z" fill="#161F3B"/>
<path d="M103.867 30.7991L104.125 30.9279L105.413 34.5362L106.831 38.1444V38.7888L106.573 38.4022L106.187 37.7578L105.671 36.4692L104.769 35.5671L104.64 34.5362L103.867 34.6651L103.094 34.4073V35.3094L102.063 37.5001L101.676 38.6599L101.547 39.3042L101.676 39.8197L100.259 43.0413L99.2279 45.6187L98.9702 46.1341L104.898 46.263L105.285 46.6496V47.0362L105.8 46.6496V46.3919H106.831V46.6496L107.218 46.7785L107.346 47.4228L107.089 47.2939L105.929 47.4228L105.156 47.5516L98.3258 47.6805L96.6506 51.4176L95.8774 53.6083L95.7485 54.2527L97.0372 54.6393L98.7124 55.5413L98.8413 55.7991H95.8774L94.0733 55.6702H91.6248L91.1094 55.7991V55.5413L92.1403 55.0259L93.5578 53.8661L94.5887 52.062L96.7795 47.165L99.099 41.6238L100.259 38.9176L102.192 34.6651L103.48 31.5723L103.867 30.7991Z" fill="#15224D"/>
<path d="M205.281 61.8557L208.116 62.1134L211.596 62.2423L211.853 62.5L210.822 62.6289L209.92 63.1444L209.792 64.1753V76.031L209.92 77.3196L210.049 77.5774L210.822 77.7062H214.688L216.235 77.4485L217.395 76.6753L219.199 73.9691L219.328 74.4846L218.426 77.1908L217.91 78.2217L217.137 78.6083L216.621 78.7372H211.467L209.405 78.4794L209.276 78.3506H207.987V78.6083L208.245 78.866H206.183L206.57 78.2217L207.343 77.7062L207.472 74.8712V71.5207L207.343 65.3351L207.214 63.4021L206.699 62.3712L205.41 62.1134L205.281 61.8557Z" fill="#15234F"/>
<path d="M219.071 35.1804L219.329 35.3093V35.567L219.844 35.8247V36.0825L220.102 36.2113V37.1134L219.071 39.1753L217.396 43.0412L216.236 45.7474L215.978 46.2629L217.782 46.3918L218.169 46.7784L218.684 47.165L218.555 47.5516L215.463 47.6804L214.689 49.2268L213.787 51.2887L213.143 52.8351L213.272 53.6083L214.561 54.768L215.334 55.6701V55.9278L214.174 55.799L213.53 55.6701H210.695L209.664 55.799H208.504L209.277 54.8969L210.566 53.6083L211.597 51.8041L213.014 48.9691L214.818 44.9742L216.88 39.9485L218.813 35.6959L219.071 35.1804Z" fill="#15214B"/>
<path d="M106.574 61.8557H109.023L109.796 62.1134L110.827 61.8557H111.986L111.858 62.2423L110.569 62.3712L110.053 63.1444V77.4485L110.955 78.2217L111.342 78.866L110.827 78.9949H106.059V78.6083L106.703 78.0928L107.218 77.8351L107.476 76.933L107.605 75V63.4021L106.703 62.5L106.574 61.8557Z" fill="#151E3A"/>
<path d="M220.229 36.7268L220.616 37.1134L221.389 39.1753L222.42 42.0103L224.224 45.8763L224.353 46.2629H215.977L216.234 45.4897L217.781 41.8814L219.198 38.6598L220.1 36.8557L220.229 36.7268Z" fill="#F9F9F9"/>
<path d="M102.967 36.8555H103.225L103.87 38.4019L105.158 41.8812L106.447 44.8452L106.962 46.005V46.2627H98.8438L100.132 43.041L102.194 38.273L102.967 36.8555Z" fill="#F8F9F9"/>
<path d="M162.504 61.8557L163.535 61.9846L163.793 62.1134L168.174 61.9846L168.045 62.3712L166.885 63.1444H166.628V77.3196L166.885 77.8351H166.628L166.499 78.0928L165.468 77.964H164.179L164.05 77.5774L164.179 76.5464V66.4949L164.05 63.9176L163.664 62.8866V62.5L162.762 62.2423L162.504 61.8557Z" fill="#15214C"/>
<path d="M156.96 62.1133H159.409L159.151 62.7576L158.378 63.7885L158.249 63.5308L157.347 63.9174L156.187 65.0772L155.801 64.9483V65.2061L156.187 65.4638H155.929L155.801 65.7215H155.543L154.125 68.4277L153.223 70.4896L151.677 73.8401L150.517 76.0308L149.615 78.2215L149.228 78.4793L148.713 78.3504L148.198 77.0617L148.584 75.9019H148.842L147.811 73.8401L144.976 68.0411L143.945 65.9793H143.816L143.43 64.8195L142.914 63.9174V63.5308L143.558 63.6597L144.332 64.6906L145.62 67.1391L146.265 68.6854L146.78 69.3298L147.424 70.6184L147.553 70.3607L149.486 74.2267L149.873 74.871L150.388 73.8401L151.935 70.4896L152.966 68.4277L153.997 66.237L154.77 64.9483L155.672 62.7576L156.187 62.2421L156.96 62.1133Z" fill="#14204B"/>
<path d="M173.453 31.5723H183.247L183.118 32.2166L181.443 32.7321L180.025 33.2475L179.639 37.8867L179.381 41.4949L179.123 49.3558L179.252 51.1599L179.51 52.4486L179.381 52.964L178.994 51.9331L178.35 50.5156L178.092 48.9692V42.397L177.963 40.9795L178.092 37.8867L178.221 36.8558V34.665L178.35 34.4073L177.963 34.0207L177.448 33.8919L176.804 33.2475V32.9898L175.773 32.8609L173.711 32.2166L173.453 32.0877V31.5723Z" fill="#151238"/>
<path d="M82.3463 42.2681H83.1195L83.7638 43.0413L84.2793 44.2011L84.6659 45.3608V46.134L83.7638 47.2938L82.604 48.1959L81.8308 48.5825L80.671 48.4536L78.8669 47.2938L78.3514 46.5206L78.2226 44.3299L77.9648 44.0722L78.0937 43.6856L79.2535 43.5567L79.8978 42.7835L80.4133 42.5258L80.671 42.7835H81.9597L82.0885 42.3969L82.3463 42.2681Z" fill="#0C51A2"/>
<path d="M103.865 30.7991L104.123 30.9279L105.411 34.5362L106.829 38.1444V38.7888L106.571 38.4022L106.185 37.7578L105.669 36.4692L104.767 35.5671L104.638 34.5362L103.865 34.6651L103.092 34.4073V35.3094L102.061 37.5001L101.674 38.6599L101.545 39.3042L101.674 39.8197L100.257 43.0413L99.3547 45.2321H99.097L98.8393 45.7475L98.7104 45.4898L99.2259 43.5568L99.9991 41.8815L100.257 40.8506L99.4836 42.7836L98.8393 44.0723L98.3238 45.3609L97.5506 46.6496L97.164 46.9073L97.0352 46.5207L99.097 41.6238L100.257 38.9176L102.19 34.6651L103.478 31.5723L103.865 30.7991Z" fill="#151438"/>
<path d="M122.292 38.6599H122.421L122.55 43.0414V53.7372L122.936 54.1238L124.612 55.0259L125.127 55.6702L124.612 55.5414L119.457 55.2836L119.844 55.1548V54.897L119.586 54.7682L120.875 53.8661H121.132L121.261 43.5568L121.519 42.2682L121.648 40.7218H121.905V39.4331L122.292 38.6599Z" fill="#151E3A"/>
<path d="M91.3668 69.5876H91.4956L91.7534 72.165L92.14 73.9691L92.9132 75.5155L94.073 76.8041L95.3616 77.5773L97.1657 78.0928H98.4544L99.8719 77.5773L101.161 76.8041L102.578 75.6443L103.48 74.6134L103.867 74.2268H104.124L103.996 74.8712L103.222 76.0309L102.578 76.8041L100.903 78.0928L99.8719 78.6083L98.9699 78.9949L97.6812 79.2526H95.7482L93.6864 78.4794L91.8822 77.3196L90.7225 76.0309L90.0781 75L90.207 74.6134L90.5936 75L90.8513 74.7423L91.2379 74.6134L91.109 72.0361V70.6186L91.2379 70.4897L91.3668 69.5876Z" fill="#15214B"/>
<path d="M106.574 61.8557H109.023L109.796 62.1134L110.827 61.8557H111.986L111.858 62.2423L110.569 62.3712L109.925 63.4021L109.796 69.9743H109.538L109.409 69.7165V63.9176H108.765L108.378 64.3042L108.249 65.9794V69.0722L108.378 70.7475V72.5516L108.249 76.933L107.992 77.1908L108.12 77.4485L110.182 78.3506V78.0928L110.569 77.964L111.213 78.6083L111.342 78.866L110.827 78.9949H106.059V78.6083L106.703 78.0928L107.218 77.8351L107.476 76.933L107.605 75V63.4021L106.703 62.5L106.574 61.8557Z" fill="#14224D"/>
<path d="M194.714 65.5928L195.229 65.8505L196.003 67.6546L197.42 71.6495V72.0361L196.518 72.1649H192.137L191.879 72.0361L192.266 70.8763L193.168 68.8144L194.456 65.9794L194.714 65.5928Z" fill="#F8F8F8"/>
<path d="M141.624 64.4331L142.14 64.6908L142.398 65.0774L142.527 65.9795L142.655 77.964L143.042 78.2218L144.46 78.4795L144.588 78.8661L144.202 78.995H139.949V78.7372L140.594 78.2218L140.98 77.4486L141.238 74.6135L141.367 68.1702L141.496 64.562L141.624 64.4331Z" fill="#14224E"/>
<path d="M225.643 61.469H226.803L228.607 61.8556L230.54 62.6288L230.927 62.8865L230.798 62.6288V61.8556H231.184L231.313 62.1133L231.571 64.5618L231.829 65.8504V66.6236L231.313 66.3659L230.025 64.6906L229.123 63.6597L227.834 62.8865L226.03 62.7577L224.999 63.2731L223.839 64.304L223.324 65.335L223.453 66.3659L223.195 66.4948V66.237L222.679 66.1082L222.422 65.5927L222.55 64.6906L222.164 65.2061L222.035 66.237L221.777 66.8814L221.52 66.7525V65.335L222.035 63.9174L223.195 62.6288L224.355 61.8556L225.643 61.469Z" fill="#16224C"/>
<path d="M120.359 31.9587L121.906 32.0876L122.292 32.2165L122.808 33.2474L123.581 33.7629L124.87 34.2783L125.772 36.2113L125.643 36.469L124.999 35.8247L124.483 35.567L124.354 34.7938H123.066L122.292 34.6649V35.4381L122.421 35.9536H122.163L122.035 38.6598L121.906 39.0464L121.648 42.268L121.39 43.5567L121.261 52.5773L121.133 53.866L120.617 53.9948L120.746 53.4794L120.875 49.8711V37.8866L120.746 33.8917L120.488 32.9897V32.2165L120.359 31.9587Z" fill="#212F54"/>
<path d="M222.422 64.5618L222.679 64.8195L222.55 65.7216L222.679 66.1082L223.324 66.3659L223.581 66.237L224.483 67.268L226.288 68.4277L228.865 69.8453L228.736 70.4896L229.252 71.2628L229.509 71.7783L229.38 71.9071L229.638 72.1649L228.349 72.036L226.932 71.2628L225.257 70.6185L223.71 69.5875L222.422 68.4277L221.648 67.1391L221.906 65.9793L222.035 65.0772H222.293L222.422 64.5618Z" fill="#151339"/>
<path d="M125.645 61.9846H136.469L136.856 63.0155L136.985 63.4021V64.3042L136.212 65.5929L135.954 65.8506L135.825 63.6599L135.309 63.1444L132.99 63.0155H129.51L128.737 63.1444L128.48 63.9176H128.222V64.6908L127.578 64.3042H126.804V64.5619H126.547L126.418 65.7217H126.16L125.902 62.2424H125.645V61.9846Z" fill="#142350"/>
<path d="M205.025 31.7009L205.541 31.8298L206.056 32.4741L206.185 32.8607V35.8246L206.572 39.304L205.798 39.1752L205.025 37.1133L204.123 35.438L203.479 34.6648L202.19 33.7628L200.386 32.9896L198.453 32.4741V32.3453L199.871 32.2164L200.128 31.8298L201.546 32.0875L203.479 33.1185L203.994 33.5051L204.381 32.3453L205.025 31.7009Z" fill="#15204A"/>
<path d="M221.777 73.1958H222.164L222.808 75.7731L223.453 76.9329L224.612 77.7061L225.386 77.9638L226.674 78.0927L228.092 77.835L229.38 77.1906L230.154 76.5463L230.025 77.0618L229.638 77.7061L230.411 77.1906L231.184 77.0618V77.4484L230.282 78.2216L228.994 78.8659L228.221 79.1236H225.643L224.097 78.6082L222.293 78.3504L221.777 77.9638L221.648 77.5772V73.3247L221.777 73.1958Z" fill="#16153C"/>
<path d="M96.518 62.2422L99.353 62.3711L99.6108 62.2422L100.255 62.3711L100.899 62.2422H102.961L103.348 63.0154L103.606 64.9484L103.734 67.1391L103.09 66.4948L101.801 64.4329L101.415 64.0463V63.7886L100.899 63.5308L99.7396 63.0154L99.0953 62.8865H97.0334L95.4871 63.1442L94.3273 63.9174L93.4252 64.8195L92.9097 65.4638L92.7809 64.9484L91.75 65.7216L91.6211 65.335L92.652 63.9174L93.1675 63.2731L95.1005 62.6288L96.518 62.2422Z" fill="#182752"/>
<path d="M207.992 64.0464L208.636 64.1753L209.281 64.433L209.41 65.8505L209.281 69.7165L209.023 72.1649V74.0979L209.152 76.5464L208.894 76.6753V75.5155H208.636L208.379 75.1289L208.121 75.5155L207.863 66.4948L207.477 66.6237V65.7216L207.992 65.4639L207.734 64.5619L207.605 65.0773L207.477 64.1753L207.992 64.433V64.0464Z" fill="#141E3A"/>
<path d="M27.9647 74.2268H28.609L29.8977 74.7423L34.408 75.9021L34.6657 76.2887L34.2791 77.7062L34.1502 78.0928V77.8351L33.5059 77.7062L32.3461 77.1907L30.4131 76.8041L27.4492 76.6753V76.2887L27.7069 75L27.9647 74.2268Z" fill="#529AC1"/>
<path d="M213.272 51.2886L213.401 51.6752L212.885 52.7061V53.3504H213.143L214.045 54.3814L215.334 55.67V55.9277L214.174 55.7989L213.53 55.67H210.695L209.664 55.7989H208.504L209.277 54.8968L210.566 53.6082L211.597 51.804H212.241H212.628L213.272 51.2886Z" fill="#162550"/>
<path d="M96.0063 49.0979L96.1351 49.3556L95.4908 51.0309V51.4175H95.7485L95.6197 52.3195L95.8774 52.0618L96.0063 52.1907L96.3929 51.6752L96.1351 52.835L95.7485 54.2525L97.0372 54.6391L98.7124 55.5412L98.8413 55.7989H95.8774L94.0733 55.6701H91.6248L91.1094 55.7989V55.5412L92.1403 55.0257L93.5578 53.8659L94.5887 52.0618L95.8774 49.2268L96.0063 49.0979Z" fill="#14204A"/>
<path d="M219.069 35.1804L219.327 35.3093V35.567L219.843 35.8247V36.0825L220.1 36.2113V37.1134L219.069 39.1753L217.91 41.7526H217.652L217.265 42.9124L216.879 43.1701L216.75 42.6546L217.394 41.1083L218.167 39.0464L217.265 41.1083L216.492 42.9124H215.977L216.105 41.7526L218.554 36.2113L219.069 35.1804Z" fill="#161F3C"/>
<path d="M140.463 36.7268L140.592 37.1134L139.046 40.3351L136.984 44.9742L136.855 44.4588L137.113 43.8144L136.597 44.3299L136.082 45.232L135.953 44.9742L136.211 44.201V43.6856L135.824 43.9433L135.953 43.299L137.757 39.5619L138.788 37.6289H139.175L139.561 36.9845L139.819 37.3711L139.432 38.1443L139.561 38.0155L140.206 36.8557L140.463 36.7268Z" fill="#16143A"/>
<path d="M229.901 52.3196L230.416 52.9639L231.318 53.9948L233.38 55.5412L233.638 55.9278H224.359L224.617 55.4124L225.648 54.3814L226.421 53.7371L226.55 52.835H226.679L226.937 53.866L227.323 54.6392V54.8969L228.225 55.1546H229.385L228.354 54.768L227.581 53.7371L227.323 53.2216L226.937 52.835L227.323 52.7062L228.483 53.866L229.127 54.3814L230.416 55.0258L231.962 55.2835L231.447 54.5103L230.545 53.7371L229.901 52.7062V52.3196Z" fill="#1F2D53"/>
<path d="M173.453 31.5723H183.247L183.118 32.2166L181.443 32.7321L180.025 33.2475L179.768 35.0516H179.639L179.51 33.3764L178.994 33.1187V32.8609L176.804 32.6032L176.675 32.9898L175.257 32.7321L173.711 32.2166L173.453 32.0877V31.5723Z" fill="#15234F"/>
<path d="M101.03 37.1133L101.417 37.371L101.288 38.2731L100.901 39.0463V39.5617L101.288 38.9174L101.674 39.304L101.545 40.0772L100.128 43.4277L99.3547 45.2318H99.097L98.8393 45.7473L98.7104 45.4896L99.2259 43.5566L99.9991 41.8813L100.257 40.8504L99.4836 42.7834L98.8393 44.072L98.3238 45.3607L97.5506 46.6494L97.164 46.9071L97.0352 46.5205L99.097 41.6236L100.257 38.9174L101.03 37.1133Z" fill="#161539"/>
<path d="M106.574 61.7268H135.956L136.729 61.9845L137.115 63.2732V64.1753H136.986L136.729 63.0155L136.471 62.1134L125.646 61.9845V62.2423L121.007 62.3711L120.621 62.5L118.559 62.2423L116.368 61.9845L115.981 62.1134H111.858V61.9845H110.827L109.538 62.2423L109.023 61.9845L106.574 61.8557V61.7268Z" fill="#8AA5B3"/>
<path d="M176.417 53.7373L176.675 53.995V54.3816L177.19 54.6394L177.706 55.026L178.608 55.1548H179.896L180.799 54.7682V54.5105L180.154 54.2528L179.896 53.7373L181.056 54.1239L182.86 55.026L183.118 55.2837V55.6703L182.731 55.7992L178.737 55.928H173.711L173.582 55.6703L175 54.7682L176.159 53.995H176.417V53.7373Z" fill="#2A3C77"/>
<path d="M135.439 67.6545H135.697L135.568 68.9432L135.181 70.6185L134.795 71.9071L134.279 71.6494L133.635 70.8762L132.862 70.6185L130.027 70.4896L128.996 70.3607L128.738 70.6185L128.609 69.7164L128.48 69.4587L134.022 69.2009L134.795 68.5566L135.439 67.6545Z" fill="#15224D"/>
<path d="M185.438 74.2268L185.567 74.7423L184.923 76.0309L183.763 77.3196L182.603 78.2217L181.572 78.7371L179.768 79.2526L179.124 79.3814H177.578L175.773 78.6082L175.902 77.7062H176.547L177.062 78.2217L180.541 78.3505L181.701 78.0928L182.088 77.3196L182.861 76.8041L183.634 76.1598L184.536 75L185.438 74.2268Z" fill="#11539F"/>
<path d="M156.96 62.1133H159.408L159.151 62.7576L158.378 63.7885L158.249 63.5308L157.347 63.9174L156.187 65.0772L155.8 64.9483V65.2061L156.187 65.4638H155.929L155.8 65.7215H155.542L155.027 66.6236L154.64 66.3659H154.254L153.996 66.4947L154.254 65.8504L155.156 64.0463L155.671 62.7576L156.187 62.2421L156.96 62.1133Z" fill="#15234F"/>
<path d="M101.163 46.2629H104.9L105.287 46.6495V47.0361L105.802 46.6495V46.3918H106.833V46.6495L107.22 46.7784L107.349 47.4227L107.091 47.2939L105.931 47.4227L105.158 47.5516H98.7148L98.5859 47.0361L98.8437 46.6495L99.3591 46.3918L99.8746 46.5207L99.3591 46.6495L99.488 47.0361L99.8746 46.9073L99.7457 46.6495L101.163 46.2629Z" fill="#14214D"/>
<path d="M116.109 61.8557L117.269 61.9846L120.104 62.2423L120.62 62.3712L120.233 64.1753L119.589 64.5619L119.202 65.2062H118.429L118.3 65.7217L118.042 66.4949H117.785L117.398 62.8866L116.883 62.3712L116.367 62.2423V61.9846L116.109 61.8557Z" fill="#14214C"/>
<path d="M117.141 31.7009H123.842L124.615 32.9896L126.548 36.9844L126.419 37.4999L125.775 36.0824V35.8246H125.517L125.001 34.9226L124.744 34.2782L123.068 33.6339L122.553 33.1185L122.295 32.2164L120.491 32.0875L120.62 32.2164V32.9896L119.202 32.603L117.269 32.0875L117.141 31.7009Z" fill="#16224B"/>
<path d="M144.461 33.2476H144.719L144.59 34.0208V52.4486L144.332 52.7063L144.074 52.1909V34.1496L144.461 33.2476Z" fill="#254080"/>
<path d="M110.566 48.3247L111.211 48.5824L112.628 51.6752L113.53 53.2216L114.948 54.768H114.561L114.175 54.5103L114.303 54.8969L113.788 55.1546H113.401L113.273 55.4123L113.144 54.8969L112.628 54.3814L112.113 53.7371L110.953 51.0309L110.438 49.8711V49.4845H110.824L110.566 48.3247Z" fill="#222F52"/>
<path d="M103.868 74.2268H104.126L103.997 74.8711L103.224 76.0309L102.58 76.8041L100.905 78.0928L99.8736 78.6082L98.9716 78.9948L97.6829 79.2526H95.7499L95.4922 78.7371H96.0076L96.1365 78.2217L96.5231 77.9639L97.1674 78.0928H98.4561L99.8736 77.5773L101.162 76.8041L102.58 75.6443L103.482 74.6134L103.868 74.2268Z" fill="#2D437D"/>
<path d="M221.648 33.634L222.164 33.8918L222.937 35.4382L224.354 39.1753L226.674 44.7165L226.803 45.7474L226.159 45.4897L225.901 44.201L225.257 42.7835L224.612 41.7526L223.968 39.8196L223.581 39.3041L222.679 37.3711L222.293 36.4691L222.164 36.2114V35.1804L222.293 34.9227L221.519 34.665L221.133 34.1495L221.648 33.634Z" fill="#171538"/>
<path d="M179.64 36.8555H179.769V49.8709L179.64 52.9637L179.383 52.4483L179.125 51.1596L178.996 49.2266L179.254 41.4946L179.512 37.8864L179.64 36.8555Z" fill="#13295B"/>
<path d="M113.015 69.7166H117.525L117.138 69.9743V70.4897L117.654 70.7475H110.051V69.8454L113.015 69.7166Z" fill="#2A447F"/>
<path d="M156.574 54.2524H162.115L161.986 54.5102H161.6L161.471 55.0256L161.342 55.2834L163.533 55.4122V55.5411L161.213 55.67H155.543L155.93 55.4122L157.218 55.0256L156.96 54.5102L156.574 54.2524Z" fill="#293E7A"/>
<path d="M120.617 33.3762L120.875 33.8917L121.004 37.8865V49.8711L120.875 53.4793L120.617 53.8659V33.3762Z" fill="#9EA8AD"/>
<path d="M196.522 72.0361H197.166L197.811 72.8093V73.1959L197.295 73.3248H192.914L191.625 73.1959L191.496 72.9382L191.754 72.2939L192.398 72.165L196.522 72.0361Z" fill="#293E7B"/>
<path d="M219.201 73.969L219.33 74.4845L218.428 77.1906L217.912 78.2216L217.655 78.3504L215.851 78.4793H212.5L212.758 78.2216L214.691 77.7061L216.237 77.4484L217.397 76.6752L218.686 74.7422L219.201 73.969Z" fill="#16153B"/>
<path d="M141.621 34.2783L141.879 34.5361L142.008 38.402L141.879 40.5928L141.621 43.0412L141.492 50.902L141.363 53.3505H141.234V41.6237L141.363 36.2113L141.105 36.0824L141.363 34.9227L141.621 34.2783Z" fill="#4D618C"/>
<path d="M142.398 72.8093H142.527L142.655 77.964L143.042 78.2217L144.46 78.4794L144.588 78.866L144.202 78.9949H139.949V78.7372L140.594 78.2217L140.98 77.4485L141.109 76.5464H141.496L141.753 75.9021L142.269 75.7732L142.398 72.8093Z" fill="#202F55"/>
<path d="M166.88 77.7061L168.04 78.4793L168.169 78.8658L167.911 78.9947H159.02L159.535 78.6081L162.37 78.4793L163.401 78.2215L163.916 77.8349H166.107H166.623L166.88 77.7061Z" fill="#202E55"/>
<path d="M213.788 48.1958L213.917 48.4535L214.819 48.1958L214.948 48.7113L213.788 51.2886L213.144 52.835L212.886 53.3504L212.757 52.7061L213.273 51.6752L213.144 51.5463L212.371 52.0618L212.242 51.804H211.727L211.984 51.0309L213.144 48.5824L213.788 48.1958Z" fill="#161F3C"/>
<path d="M137.888 74.2268H138.017L137.888 75.2577L136.986 77.4485L136.471 78.2217L136.084 78.4794L134.538 78.6082L130.414 78.4794V78.3505L133.765 77.9639L135.311 77.3196L135.955 76.6753L136.728 75.7732L137.888 74.2268Z" fill="#15224E"/>
<path d="M120.746 33.634L121.133 33.7629L121.648 36.3402V38.4021L121.39 39.433L121.262 42.1392L121.133 53.866L120.617 53.9949L120.746 53.4794L120.875 49.8711V37.8866L120.746 33.634Z" fill="#273F7C"/>
<path d="M221.777 73.1958H222.164L222.808 75.7731L223.453 76.9329L223.968 77.3195L223.839 77.5772L223.581 77.4484L223.71 78.0927L222.808 78.2216H222.035L221.648 77.5772V73.3247L221.777 73.1958Z" fill="#16153B"/>
<path d="M96.518 62.2422L98.7087 62.3711L99.2242 62.6288L99.6108 62.8865H97.0334L95.4871 63.1442L94.3273 63.9174L93.4252 64.8195L92.9097 65.4638L92.7809 64.9484L91.75 65.7216L91.6211 65.335L92.652 63.9174L93.1675 63.2731L95.1005 62.6288L96.518 62.2422Z" fill="#212F53"/>
<path d="M128.867 77.8352H134.151L133.764 78.0929L131.187 78.3507L134.924 78.4795L136.084 78.3507V78.6084L135.697 78.8661L134.795 78.995H128.738L128.867 77.8352Z" fill="#2B417C"/>
<path d="M119.33 54.7681L119.845 54.8969V55.1547L121.392 55.2835L124.613 55.4124L125.129 55.799L116.108 55.9279L113.66 55.799L112.887 55.6701V55.5413H115.206L115.077 55.2835L115.464 55.1547L116.237 55.4124L117.655 55.2835L119.33 54.7681Z" fill="#094FA1"/>
<path d="M122.297 39.8196H122.426L122.554 41.6237L122.426 51.933L122.297 53.4794L122.039 53.2216V50.7732L121.91 47.5515V43.0412L122.039 40.9794L122.168 40.2062L122.297 39.8196Z" fill="#162553"/>
<path d="M205.023 31.7009L205.539 31.8298L206.054 32.4741L206.183 32.8607V36.7267H206.054L205.925 36.0824L205.667 35.9535L205.281 35.0514L204.637 34.2782H205.023V34.0205H204.379L204.121 33.6339L204.25 32.4741L205.023 31.7009Z" fill="#2A3E77"/>
<path d="M120.875 53.866L121.39 54.1237V54.3814L121.905 54.5103L122.163 54.6392L122.292 53.9948L123.452 54.3814L124.612 55.0258L125.127 55.6701L124.612 55.5412L119.457 55.2835L119.844 55.1546V54.8969L119.586 54.768L120.875 53.866Z" fill="#14214C"/>
<path d="M217.785 46.3916H223.842L223.713 46.6493L222.682 46.9071L222.424 47.4225H218.429V47.0359L217.785 46.6493V46.3916Z" fill="#141238"/>
<path d="M97.679 47.9382L97.9367 48.4537L96.5192 51.8042L95.8748 52.3197L95.4882 52.4485L95.746 51.4176L95.3594 51.5465L95.4882 50.6444L96.0037 49.3558V48.9692L96.7769 48.7114V49.098L97.0346 49.2269L97.1635 48.7114L97.679 47.9382Z" fill="#151F3B"/>
<path d="M175.644 54.3813H175.902L175.644 54.8968H175.386L175.515 55.2834L176.675 55.4123H182.345L183.118 55.5411L182.731 55.7989L178.737 55.9277H173.711L173.582 55.67L175 54.7679L175.644 54.3813Z" fill="#2E66A5"/>
<path d="M119.976 64.4331H120.105L120.234 71.3919V76.5465H120.105L119.976 74.2269L119.719 73.4537L119.59 71.5207V68.428L119.719 65.3352L119.976 64.4331Z" fill="#2A3D7A"/>
<path d="M146.647 54.7681H150.126L149.482 55.2835V55.4124L150.126 55.5413L160.693 55.6701V55.799H142.395V55.6701L146.647 55.5413L148.451 55.6701V55.4124H147.163L146.776 55.2835L146.647 54.7681Z" fill="#A2A9AD"/>
<path d="M93.0415 58.2476H96.1343V58.3764L94.0724 58.5053L97.5518 58.763V58.8919L96.9075 59.0208H92.0106L89.4333 58.763L88.4023 58.5053V58.3764L93.0415 58.2476Z" fill="#2C3D78"/>
<path d="M139.433 54.5103L140.464 54.768L141.753 55.4123H144.459L146.392 55.2834L146.779 54.8969V55.2834L148.454 55.4123V55.67H139.047L138.145 55.4123L138.402 54.8969L139.433 54.5103Z" fill="#2F467D"/>
<path d="M103.867 30.7991L104.124 30.9279L105.413 34.5362L105.542 35.0516L105.155 34.6651L104.769 33.6341H104.382L103.738 33.763L103.222 33.8919L102.836 34.0207V34.2785L102.449 34.4073L102.578 33.763L103.738 30.9279L103.867 30.7991Z" fill="#16224B"/>
<path d="M226.55 52.835H226.679L226.808 53.737L226.421 54.1236L226.55 54.6391L226.808 55.4123L230.932 55.5411L231.834 55.67V55.7989L224.359 55.9277L224.617 55.4123L225.648 54.3814L226.421 53.737L226.55 52.835Z" fill="#3168A5"/>
<path d="M103.866 74.2268H104.124L103.995 74.8711L103.222 76.0309L102.577 76.8041L100.902 78.0928L100.258 78.4794H100L99.8711 77.5773L101.16 76.8041L102.577 75.6443L103.479 74.6134L103.866 74.2268Z" fill="#1558A3"/>
<path d="M223.582 77.4485L224.355 77.5774L225.386 77.964L226.417 78.0928V78.2217L227.319 78.4794V78.9949H228.221V79.1237H225.643L224.097 78.6083L222.293 78.3505L222.164 78.0928H223.71L223.582 77.4485Z" fill="#192855"/>
<path d="M200.128 31.8298L201.546 32.0876L201.932 32.4742L201.675 32.603L202.577 32.8608L203.092 33.3762L203.865 33.8917L203.737 34.2783L203.092 34.1494L201.417 33.3762L200 32.8608L198.453 32.4742V32.3453L199.871 32.2164L200.128 31.8298Z" fill="#15143B"/>
<path d="M99.4836 40.5928H99.7413V41.4948L99.8702 41.7526L98.9681 43.9433L97.9372 46.0051L97.4218 46.7783H97.0352L97.4218 45.6185L99.3547 40.9794L99.4836 40.5928Z" fill="#16203E"/>
<path d="M154.511 66.1084L154.898 66.495L154.769 67.1393L153.867 69.0723L153.351 70.1032L152.836 70.2321L152.965 69.5878H152.578L152.707 68.9434L153.738 66.7527L154.511 66.1084Z" fill="#16153C"/>
<path d="M127.062 38.7886H127.32L129.124 42.6546L131.057 47.1649L131.186 47.9381L130.671 47.4226L129.511 44.9741L129.253 43.8143L128.867 43.6855L128.093 41.8814L127.191 39.304L127.062 38.7886Z" fill="#18183B"/>
<path d="M208.51 78.2217H209.283L209.412 78.3505L211.473 78.6083L215.726 78.7371V78.866L210.314 78.9949H201.68V78.866L203.484 78.7371V78.6083L206.319 78.4794V78.7371H207.865L207.994 78.3505L208.51 78.2217Z" fill="#2E538E"/>
<path d="M122.426 61.7268H135.957L136.73 61.9845L137.116 63.2732V64.1753H136.988L136.73 63.0155L136.472 62.1134L126.163 61.9845H122.426V61.7268Z" fill="#AAABAB"/>
<path d="M109.277 53.9949L109.663 54.3815V54.6392H109.921L110.05 55.4124L111.854 55.2835L112.627 55.4124V55.5413H111.596L109.792 55.799H107.73L107.215 55.6701V55.4124L108.503 54.5103L109.277 53.9949Z" fill="#2A3D7A"/>
<path d="M219.074 35.1804L219.332 35.3093V35.567L219.847 35.8247V36.0825L220.105 36.2113V37.1134L219.976 37.3711L219.46 37.5L219.074 38.4021L218.558 39.1753L218.43 38.9175L218.816 37.6289V37.3711L218.301 37.8866L218.043 37.7577L218.172 37.1134L219.074 35.1804Z" fill="#151339"/>
<path d="M145.488 31.5723H150.9L151.415 31.7011V31.9589L150.256 32.2166H147.292L146.132 32.0877L146.003 31.9589L143.297 31.83V31.7011L145.488 31.5723Z" fill="#294380"/>
<path d="M126.289 61.9846H136.469L136.856 63.0155L136.985 63.4021V64.3042L136.212 65.5929L135.954 65.8506V63.7887L136.341 63.531V62.3712L135.825 62.2424L126.289 62.1135V61.9846Z" fill="#1C458A"/>
<path d="M189.558 47.9382H189.945L191.234 50.6444L192.265 51.9331L193.038 52.8351L192.78 52.964L191.749 52.0619L191.234 51.8042L191.105 51.2887H190.847L190.589 50.3867H190.332L189.945 49.6135L189.172 49.2269L189.558 47.9382Z" fill="#212D4F"/>
<path d="M95.7485 54.2524L97.0372 54.639L98.7124 55.5411L98.8413 55.7988H95.8774L94.0733 55.67H91.6248L91.1094 55.7988V55.5411L91.8826 55.1545L93.0424 55.2834H95.3619L95.4908 55.1545H96.1351V55.4122L97.1661 55.2834L96.9083 55.0256L96.1351 54.7679L95.7485 54.2524Z" fill="#2F67A4"/>
<path d="M48.9688 19.2009L50.1285 19.3298L52.7059 19.8453L54.8966 20.2319L56.1852 20.6185L56.3141 21.0051L54.8966 20.7473L51.2883 20.2319L49.0976 19.5875L48.9688 19.2009Z" fill="#386FA7"/>
<path d="M119.59 72.0361H119.719L119.976 74.098L120.105 74.2269L120.234 77.3196L119.719 77.4485L119.461 77.1908L119.332 76.6753V73.4537L119.461 72.8093L119.59 72.0361Z" fill="#14214D"/>
<path d="M141.625 64.4331L142.14 64.6908L142.398 65.0774L142.527 65.9795V69.0723H142.398L142.14 68.1702L141.883 68.0414L141.496 66.6238V64.562L141.625 64.4331Z" fill="#2C417B"/>
<path d="M131.702 69.3298H133.506V69.4587L131.316 69.7164L131.573 70.4896H130.027L128.996 70.3608L128.738 70.6185L128.609 69.7164L128.48 69.4587L131.702 69.3298Z" fill="#4374A8"/>
<path d="M154.125 39.5618L154.511 39.6906L154.64 40.2061H154.382L153.996 41.3659L153.867 43.5566V46.2628L153.609 47.2937L153.352 46.7783V45.7473L153.223 45.3607H153.48L153.352 44.2009L153.223 43.5566L153.352 43.0411L153.48 41.7525L153.738 40.335L153.867 39.8195H154.125V39.5618Z" fill="#212F54"/>
<path d="M120.875 44.7163H121.004V49.8709L120.875 53.4792L120.617 53.8658V44.8452L120.875 44.7163Z" fill="#AAABAB"/>
<path d="M222.426 64.5618L222.683 64.8195L222.554 65.7216L222.683 66.1082L223.328 66.3659L223.585 66.237L224.487 67.268L224.874 67.6546L224.23 67.5257L223.843 67.268L223.585 67.7834L222.941 67.5257V67.1391H222.297L222.554 66.7525L222.297 66.4948H221.91V65.5927L222.039 65.0772H222.297L222.426 64.5618Z" fill="#141D3D"/>
<path d="M109.664 70.8762H109.922V77.3195H109.664L109.406 76.1597V73.7113L109.535 71.134L109.664 70.8762Z" fill="#1A2856"/>
<path d="M107.73 77.1907H107.988L108.117 77.4484L110.179 78.3505V78.0927L110.566 77.9639L111.21 78.6082L111.339 78.8659L110.823 78.9948H108.761L108.633 78.7371L108.761 78.4793H108.504V78.2216L107.73 77.9639V77.1907Z" fill="#172450"/>
<path d="M107.605 76.6753H107.734V77.964L108.249 78.0928L108.507 78.2217V78.4794H108.765V78.9949H106.059V78.6083L106.703 78.0928L107.218 77.8351L107.605 76.6753Z" fill="#203159"/>
<path d="M226.676 53.7373L227.062 54.1239L227.32 54.8971L228.222 55.1548L231.444 55.4126L232.732 55.7992V55.928H231.959L231.83 55.7992L230.928 55.6703L226.805 55.5414L226.289 54.5105L226.418 53.995L226.676 53.7373Z" fill="#2E417B"/>
<path d="M107.347 45.4897L107.733 45.8763L107.862 46.2629V47.2939L107.476 47.6805L105.156 47.5516V47.4227L106.316 47.165H107.089V46.7784L106.831 46.6495V46.3918H105.8L105.929 46.7784L105.156 47.165V46.3918L104.898 46.2629H106.96L107.218 45.6186L107.347 45.4897Z" fill="#202F54"/>
<path d="M168.816 38.9175L168.944 39.3041L169.331 39.4329L168.558 40.8505L167.14 42.3969L166.625 42.7835L166.367 42.6546L166.625 41.7525L167.269 41.2371H167.656L167.785 40.7216L168.429 39.5618H168.687L168.816 38.9175Z" fill="#202D51"/>
<path d="M141.492 66.6238L141.75 67.1392L142.008 69.0722L142.394 69.7166V71.7784L142.136 71.6496V71.3918L141.879 71.263L141.621 69.8454L141.492 71.9073H141.363V68.1702L141.492 66.6238Z" fill="#1F315C"/>
<path d="M155.8 53.3506L156.058 53.866V54.1238L156.445 54.2526L156.058 54.897L155.285 55.1547L154.383 55.0258L154.125 54.7681L154.383 53.9949L155.414 53.6083H155.671L155.8 53.3506Z" fill="#202E54"/>
<path d="M155.156 78.0928L155.671 78.3505L156.831 78.4794L157.217 78.7371L157.346 78.9948H153.609L153.094 78.866V78.6082L153.867 78.3505L155.156 78.0928Z" fill="#2B3D78"/>
<path d="M205.023 31.7009L205.539 31.8298L205.281 31.9587L205.41 32.7319L205.152 34.4071L204.765 34.536L204.637 34.2782H205.023V34.0205H204.379L204.121 33.6339L204.25 32.4741L205.023 31.7009Z" fill="#243565"/>
<path d="M102.965 62.3711L103.222 62.6288L103.48 63.6598L103.609 65.7216L103.48 65.335H102.965L102.32 63.7886V63.0154L102.707 63.1443L102.965 62.3711Z" fill="#212E55"/>
<path d="M196.78 72.6804H197.682L197.811 73.1959L197.295 73.3247H192.914L191.625 73.1959L192.012 72.8093L195.104 73.067L196.78 72.6804Z" fill="#1D5DA4"/>
<path d="M142.012 35.8247L142.269 36.0824L142.785 37.2422V41.2371L142.527 40.8505L142.398 39.6907L142.141 38.5309L142.012 35.8247Z" fill="#212F54"/>
<path d="M132.218 69.4587H133.378L133.636 70.6185L133.378 70.7474L131.574 70.4897L131.445 70.1031L131.188 69.9742L131.316 69.7165L132.218 69.4587Z" fill="#2A3D79"/>
<path d="M123.583 55.4124L124.227 55.5412L124.485 55.799L115.465 55.9278L114.82 55.799V55.6701L117.398 55.5412H123.068L123.583 55.4124Z" fill="#5F9CBE"/>
<path d="M228.094 50L228.609 50.1289L229.511 51.8041L229.898 52.0619L230.156 52.8351L230.413 53.4794L230.027 53.3505L229.511 52.8351V52.5773H229.253L228.223 51.1598L227.965 50.3866L228.094 50Z" fill="#151C3A"/>
<path d="M121.004 42.1392H121.133V53.866L120.617 53.9948L120.746 53.4794L120.875 49.8711L121.004 42.1392Z" fill="#233F7D"/>
<path d="M151.159 54.6392L151.933 54.8969V55.0258L150.257 55.1546V55.4124L152.835 55.2835V55.5412H154.381V55.6701H150.129L148.969 55.5412L149.613 55.0258L150.129 54.768L151.159 54.6392Z" fill="#164891"/>
<path d="M135.437 67.6545H135.695L135.566 68.9432L135.179 70.6185L134.535 70.4896L134.406 70.103L134.793 69.2009L134.277 69.4587L134.02 69.2009L134.793 68.5566L135.437 67.6545Z" fill="#2F4781"/>
<path d="M117.785 69.3298L118.558 69.7164L118.687 69.8453L118.558 70.8762H118.3V71.5206L117.914 71.6494L117.656 70.7474L117.141 70.4896V69.9742L116.883 69.8453L117.656 69.5876L117.785 69.3298Z" fill="#14214D"/>
<path d="M218.3 39.3042L218.429 39.6908L218.3 40.2063L218.429 40.5929L217.914 41.7527H217.656L217.269 42.9124L216.883 43.1702L216.754 42.6547L218.043 39.5619L218.3 39.3042Z" fill="#15143A"/>
<path d="M128.351 70.8762H128.609L128.48 76.8041H128.351L128.094 74.4845V71.2628L128.351 70.8762Z" fill="#2A3D79"/>
<path d="M146.648 54.7681H150.128L149.483 55.2835V55.4124L150.128 55.5413V55.6701H148.453V55.4124H147.164L146.777 55.2835L146.648 54.7681Z" fill="#A1A9AD"/>
<path d="M98.456 61.8557H99.4869L100.647 62.2423L100.26 62.3712L100.131 62.6289V62.3712H99.4869L99.3581 62.5L97.0385 62.3712H95.2344L95.3632 62.1134L96.6519 61.9846L98.456 61.8557Z" fill="#161D3B"/>
<path d="M101.68 64.0464L102.324 64.3041V64.5619L102.839 64.6907L102.968 65.335H103.484L103.742 66.366V67.1392L103.097 66.4948L101.809 64.433L101.68 64.0464Z" fill="#161B3F"/>
<path d="M102.707 36.3403H103.093L103.222 36.8558H102.964L102.707 37.5001L101.805 39.562L101.418 39.4331L101.547 38.6599L101.933 37.5001L102.449 36.5981L102.707 36.3403Z" fill="#1B2750"/>
<path d="M151.805 31.7009H157.217L161.47 31.8298V31.9587L159.923 32.0875H156.444L151.805 31.8298V31.7009Z" fill="#234181"/>
<path d="M123.198 61.8557H126.162L125.647 61.9846V62.2423L121.008 62.3712L120.621 62.5L120.105 62.2423L121.008 61.9846L123.198 61.8557Z" fill="#3067A4"/>
<path d="M142.398 78.0928L144.46 78.4794L144.589 78.866L144.202 78.9948H141.496V78.7371L142.14 78.4794L142.398 78.0928Z" fill="#162655"/>
<path d="M197.937 71.2629L198.195 71.5207L198.71 73.0671L198.839 73.9691L198.582 74.3557L198.066 73.4537V73.1959H197.808L197.422 72.5516L197.164 72.0361L198.066 72.165L197.937 71.2629Z" fill="#16153B"/>
<path d="M122.937 54.3813L123.71 54.5102L124.741 55.1545L125.128 55.67L124.613 55.5411L122.164 55.4123L122.293 55.1545L122.808 54.8968L122.937 54.3813Z" fill="#233666"/>
<path d="M156.059 69.4587H156.187L156.445 72.0361L156.316 76.933L155.93 77.0618V73.969H156.059V69.4587Z" fill="#151238"/>
<path d="M101.031 37.1133L101.417 37.371L101.289 38.2731L100.387 40.0772H100L99.8711 39.8195L101.031 37.1133Z" fill="#272C3F"/>
<path d="M99.613 42.7837L100.128 43.0414L99.9996 43.8146L99.3553 45.2321H99.0975L98.8398 45.7476L98.7109 45.4899L99.2264 43.5569L99.613 42.7837Z" fill="#161F3D"/>
<path d="M205.152 61.7268H206.699L208.245 61.9845H212.498L212.24 62.5L211.596 62.3711L208.116 62.2423L206.054 61.9845L205.152 61.8557V61.7268Z" fill="#AAABAB"/>
<path d="M106.574 61.7268H114.435V61.8557L110.827 61.9845L109.538 62.2423L109.023 61.9845L106.574 61.8557V61.7268Z" fill="#A2A9AD"/>
<path d="M157.73 63.531H158.245L158.116 64.0465L157.859 64.1753L157.601 64.6908H156.957L156.699 65.2063L155.668 65.3351L155.797 64.9485L156.57 64.8197L156.828 64.1753L157.73 63.531Z" fill="#151238"/>
<path d="M90.4645 65.4639L90.7222 65.5927L90.3357 67.268L89.5625 69.201H89.4336V68.1701L89.9491 66.4948L90.4645 65.4639Z" fill="#17234C"/>
<path d="M108.504 43.1702H108.891L109.406 44.8454L109.921 46.0052L110.308 47.165L109.921 47.0361L109.277 45.4898L108.891 44.8454L108.504 43.5568V43.1702Z" fill="#202E52"/>
<path d="M111.467 55.2834L112.627 55.4123V55.5412H111.596L109.792 55.7989H107.73L107.215 55.67V55.4123H110.179L111.467 55.2834Z" fill="#366DA6"/>
<path d="M229.898 52.3196L230.414 52.9639L231.316 53.9948L233.378 55.5412L233.636 55.9278L232.862 55.799V55.4124L232.347 55.2835L232.218 55.0258L231.574 54.6392L230.543 53.7371L229.898 52.7062V52.3196Z" fill="#2B303D"/>
<path d="M143.297 31.7009H148.065L148.967 31.9587V32.0875L147.292 32.2164L146.132 32.0875L146.003 31.9587L143.297 31.8298V31.7009Z" fill="#283E7C"/>
<path d="M162.37 78.4795L162.885 78.6084V78.995H159.02L159.535 78.6084L162.37 78.4795Z" fill="#5285B0"/>
<path d="M162.371 61.7268H163.402L163.917 61.8557H168.299L168.17 62.1134L163.789 62.2423L163.144 61.9845L162.371 62.1134V61.7268Z" fill="#A4A9AC"/>
<path d="M95.7461 54.2524L97.0347 54.639L98.71 55.5411L98.8389 55.7988L96.9059 55.67L96.777 55.4122L97.1636 55.2834L96.9059 55.0256L96.1327 54.7679L95.7461 54.2524Z" fill="#1354A0"/>
<path d="M117.141 31.7009H119.718L119.46 31.9587L119.718 32.0875V32.3453L118.816 32.4741L117.269 32.0875L117.141 31.7009Z" fill="#283B72"/>
<path d="M206.058 37.1133L206.316 37.4999L206.574 38.7885V39.304L205.801 39.1751L205.414 37.7576H205.93L206.058 37.1133Z" fill="#161840"/>
<path d="M107.218 77.8352L107.605 78.3507L107.863 78.995H106.059V78.6084L106.703 78.0929L107.218 77.8352Z" fill="#335C94"/>
<path d="M132.475 77.8352H134.151L133.764 78.0929L132.862 78.2218H129.254L128.996 77.9641L132.475 77.8352Z" fill="#094FA1"/>
<path d="M129.512 44.4587H129.898L131.187 47.4227L131.058 47.9381L130.543 47.0361L129.512 44.9742V44.4587Z" fill="#191A3B"/>
<path d="M115.851 77.9639H116.753L116.625 78.2216L117.913 78.6082V78.8659H115.594L115.465 78.6082L115.594 78.3505H115.851V77.9639Z" fill="#1E5BA2"/>
<path d="M131.316 48.0669L131.574 48.4535L132.089 49.6133L131.832 50.2576L131.059 49.9999L130.93 49.3556L131.059 48.8401H131.316V48.0669Z" fill="#222E4F"/>
<path d="M144.976 54.6392L146.652 54.768L146.394 55.4124H144.976L144.461 55.2835L144.074 55.1546L144.976 54.768V54.6392Z" fill="#1D2B53"/>
<path d="M219.461 37.3711H219.847L219.589 38.0154L218.558 40.335L218.172 40.2061L218.558 39.0464L219.074 38.2732L219.461 37.3711Z" fill="#172149"/>
<path d="M128.996 78.6082H130.285L130.929 78.737L134.795 78.8659V78.9948H128.738L128.996 78.6082Z" fill="#6D9FBA"/>
<path d="M95.7497 61.7268H99.229L98.8424 61.9845L96.2651 62.1134L94.7188 62.3711L94.8476 61.9845L95.7497 61.7268Z" fill="#15214B"/>
<path d="M184.664 62.8865L184.922 63.0153L185.179 64.9483L184.793 65.0772L184.148 64.0463L184.02 63.5308H184.535L184.664 62.8865Z" fill="#094FA1"/>
<path d="M127.449 69.4587L128.609 69.5876L128.738 69.7165V70.6185H127.836L127.449 69.8453V69.4587Z" fill="#152046"/>
<path d="M127.062 40.7217L127.449 41.2371L128.48 43.4279L129.382 45.6186L129.253 46.0052L127.191 41.4949L127.062 40.7217Z" fill="#2C3D78"/>
<path d="M219.074 35.1804L219.332 35.3093V35.567L219.847 35.8247L219.589 36.3402H219.332L219.203 36.9845L218.687 36.5979L218.559 36.8557L218.301 36.7268L219.074 35.1804Z" fill="#171F3B"/>
<path d="M102.062 62.2422H102.964L102.835 63.402L102.32 63.0154L102.191 63.2731L101.418 62.8865L101.289 62.4999L102.062 62.2422Z" fill="#151D44"/>
<path d="M156.445 43.428H157.605L158.507 43.5568V43.8146L158.765 43.9434L156.187 44.0723L155.93 44.33L156.059 43.8146L156.445 43.428Z" fill="#334A83"/>
<path d="M168.812 38.9175L168.941 39.3041L169.328 39.4329L168.554 40.8505L168.168 41.1082V40.8505L167.91 40.5927L168.168 39.9484L168.426 39.5618H168.683L168.812 38.9175Z" fill="#212F54"/>
<path d="M172.426 69.072H172.941V69.7164L173.07 69.8452V71.005L172.812 71.2627L172.426 70.7473V69.072Z" fill="#1F2D53"/>
<path d="M90.4647 68.9434L90.7225 69.0722V70.6186L90.5936 71.6495H90.3359L90.0781 70.1032L90.4647 68.9434Z" fill="#14214D"/>
<path d="M96.5193 62.2422L98.71 62.3711L99.2255 62.6288L99.6121 62.8865H97.0347L95.7461 63.0154L95.875 62.7577L96.777 62.6288L96.5193 62.4999V62.2422Z" fill="#3E628C"/>
<path d="M106.574 61.8557H109.023L109.538 62.2423H107.605L107.347 62.3712V63.0155L106.703 62.5L106.574 61.8557Z" fill="#283A74"/>
<path d="M122.035 35.9536L122.293 36.3402L122.422 38.6598L122.035 39.433L121.906 40.7217H121.777V39.0464L121.906 38.6598L122.035 35.9536Z" fill="#14214D"/>
<path d="M124.359 32.8608L124.746 33.2474L126.55 36.9846L126.421 37.5L125.777 36.0825V35.8248H125.519L125.004 34.9227L124.746 33.8918L124.359 33.1186V32.8608Z" fill="#1A1C3C"/>
<path d="M153.867 78.3503H154.64V78.7369L157.346 78.8658V78.9947H153.609L153.094 78.8658V78.6081L153.867 78.3503Z" fill="#5681AA"/>
<path d="M118.816 31.8298H120.363L120.621 32.2164V32.9896L119.203 32.603V32.3453H119.718V32.0876L118.816 31.9587V31.8298Z" fill="#152350"/>
<path d="M183.375 62.7578L184.019 63.0155L184.406 63.1444L184.664 62.8867L184.535 63.7887H184.148L184.793 64.9485H185.179L185.05 65.3351L184.406 64.9485L183.375 63.0155V62.7578Z" fill="#2C3D78"/>
<path d="M119.331 54.7681L119.847 54.8969V55.1547L121.393 55.2835V55.4124L117.27 55.5413L117.656 55.2835L119.331 54.7681Z" fill="#293E7A"/>
<path d="M179.64 53.4795L179.898 53.8661V54.3816L179.124 54.6393L177.707 54.3816L177.32 54.1238L177.449 53.8661L179.124 54.1238L179.382 54.2527L179.64 53.4795Z" fill="#212F54"/>
<path d="M124.871 77.9639H125.515L125 78.4793V78.7371H125.902V78.8659H124.355L123.711 78.6082L123.84 78.0927L124.871 77.9639Z" fill="#6D9FBA"/>
<path d="M136.726 63.0156L136.984 63.4022V64.3043L136.211 65.5929L135.953 65.8507V64.3043L136.597 64.0466L136.726 63.0156Z" fill="#2360A4"/>
<path d="M158.379 78.0928L159.023 78.3505L159.667 78.7371V78.866L159.023 78.9948H157.348L157.863 78.6082V78.2216L158.379 78.3505V78.0928Z" fill="#1A3165"/>
<path d="M119.972 54.5103H120.875L121.519 55.2834H119.457L119.844 55.1546V54.8969L119.586 54.768L119.972 54.5103Z" fill="#14214D"/>
<path d="M217.785 76.1599V76.5465L217.656 77.5774L217.269 77.8352L216.109 77.7063L216.625 77.1908L217.398 76.6754L217.785 76.1599Z" fill="#16224D"/>
<path d="M137.886 74.2268H138.015L137.886 75.2577L137.5 76.2887H137.113L136.855 75.5155L137.886 74.2268Z" fill="#254077"/>
<path d="M145.488 31.5723H150.901V31.7011L149.483 31.83L149.225 31.9589H148.066V31.7011H145.488V31.5723Z" fill="#3870A9"/>
<path d="M224.613 62.7578L224.999 63.0155L224.355 63.4021H224.097V63.6599L224.355 63.7887L223.582 64.6908L223.453 64.9485L223.066 64.8197L223.84 63.2733L224.613 62.7578Z" fill="#212F53"/>
<path d="M133.117 50.1289L133.246 50.6444L133.375 51.4176L133.117 51.8042H132.602L132.473 50.7732L132.859 50.2578L132.988 50.3866L133.117 50.1289Z" fill="#2B3C77"/>
<path d="M147.809 71.5205L148.195 72.036L148.582 72.938L148.968 73.3246L149.097 74.2267H148.711L148.066 72.938L147.937 72.1648L147.809 71.5205Z" fill="#151339"/>
<path d="M121.652 40.7217H121.781V42.7835L121.394 45.6186H121.266V43.5567L121.523 42.2681L121.652 40.7217Z" fill="#14214D"/>
<path d="M117.269 77.7061L117.527 78.2215L118.171 78.4793L118.944 78.6081L119.073 78.8658H117.914V78.6081L116.883 78.4793L116.238 78.3504L116.754 77.9638L117.269 77.7061Z" fill="#2A3D79"/>
<path d="M226.027 43.428L226.285 43.8146L226.672 44.7166L226.8 45.7476L226.156 45.4898L225.898 43.8146L226.027 43.428Z" fill="#171C39"/>
<path d="M191.367 51.031L193.042 52.7063L192.785 52.964L191.754 52.0619L191.238 51.8042L191.367 51.031Z" fill="#293560"/>
<path d="M98.8398 46.2629H101.159V46.3918L99.8707 46.7784V47.165L99.3553 47.0361V46.6495H99.2264H98.8398L98.7109 46.9073L98.8398 46.2629Z" fill="#223564"/>
<path d="M128.863 77.8352L128.992 78.0929L131.183 78.2218L130.796 78.4795V78.7373H128.863V77.8352Z" fill="#224283"/>
<path d="M139.949 61.8557L140.851 61.9846L141.238 62.8866L141.109 63.4021L140.465 62.7578L139.949 62.1134V61.8557Z" fill="#162756"/>
<path d="M218.171 38.9175L218.3 39.1752L217.269 41.6237L216.883 42.6546H216.625L216.754 42.0103L218.043 39.0463L218.171 38.9175Z" fill="#14214D"/>
<path d="M178.094 78.3503H180.413V78.6081L179.898 78.8658H178.738L178.094 78.3503Z" fill="#2B3C77"/>
<path d="M128.609 42.5259L129.125 42.6547L129.769 44.2011V44.4589L129.383 44.33L129.254 43.8145L128.867 43.6857L128.48 42.6547L128.609 42.5259Z" fill="#181A3E"/>
<path d="M141.621 34.2783H141.75V35.6958L141.621 37.1134H141.492L141.363 36.2113L141.105 36.0824L141.363 34.9227L141.621 34.2783Z" fill="#549AC1"/>
<path d="M169.328 50.7732H169.457V52.3196L168.684 52.5773L168.426 52.4485L169.328 50.7732Z" fill="#1F2E55"/>
<path d="M198.968 78.0928L199.097 78.4794L198.84 78.866L201.159 78.9948V79.1237H198.582L198.066 78.9948V78.7371L198.968 78.0928Z" fill="#58739A"/>
<path d="M167.652 61.9846H168.167L168.038 62.3712L167.136 62.8867V62.3712L165.074 62.2424V62.1135L167.652 61.9846Z" fill="#224A8C"/>
<path d="M95.6211 53.9949L95.8788 54.3815L96.2654 54.6392L97.0386 55.0258L97.4252 55.4124H96.1366L96.0077 54.7681H95.75L95.6211 53.9949Z" fill="#263972"/>
<path d="M115.335 55.1548L116.237 55.4125V55.6702L115.464 55.7991H113.66L112.887 55.6702V55.5414H115.206L115.077 55.2837L115.335 55.1548Z" fill="#35629A"/>
<path d="M146.648 54.897L146.777 55.2836L148.452 55.4124V55.6702H146.648L145.875 55.5413L146.39 55.2836L146.648 54.897Z" fill="#0D4C9B"/>
<path d="M92.1403 65.335L92.398 65.4638L91.6248 66.3659L91.3671 67.0102H90.9805L91.1093 66.237L91.4959 65.4638L91.8825 65.5927L92.1403 65.335Z" fill="#14204B"/>
<path d="M140.851 78.0928L141.238 78.6082L141.496 78.7371V78.9948H139.949V78.7371L140.851 78.0928Z" fill="#21315F"/>
<path d="M125.515 77.9639H125.902L126.031 78.6082L126.804 78.7371V78.8659L125 78.7371L124.871 78.3505L125.515 77.9639Z" fill="#18468E"/>
<path d="M107.601 62.1133H109.148L109.792 62.2421L109.406 62.4999L108.632 62.6287L107.344 62.371L107.601 62.1133Z" fill="#212F55"/>
<path d="M110.824 61.8557H111.984L111.855 62.2423L110.566 62.3712L110.18 62.6289L110.051 62.2423L109.793 62.1134L110.824 61.8557Z" fill="#1E579D"/>
<path d="M217.269 41.4949L217.656 41.6237L217.527 42.2681L217.141 43.0413H216.754L217.012 41.8815L217.269 41.4949Z" fill="#151A39"/>
<path d="M166.883 77.9639L167.527 78.0927L168.171 78.7371V78.8659H167.269L166.883 78.7371L167.012 78.4793L166.883 77.9639Z" fill="#16234F"/>
<path d="M211.469 77.8352H214.175V77.9641L213.144 78.2218H212.242L211.469 77.9641V77.8352Z" fill="#283044"/>
<path d="M221.91 67.5259H222.168L222.426 67.9125L222.812 68.0413V68.2991L223.328 68.5568L223.457 69.2011L222.941 68.9434L222.039 67.9125L221.91 67.5259Z" fill="#19254D"/>
<path d="M123.195 54.6392H123.969L124.742 55.1546V55.2835H123.453L123.195 54.6392Z" fill="#17244D"/>
<path d="M102.195 34.665L102.839 35.0516L102.968 35.3094L102.324 35.696L102.066 35.9537H101.68L101.937 35.1805L102.195 34.665Z" fill="#17203C"/>
<path d="M181.703 77.5774L181.96 77.7063V78.0929L180.414 78.4795L180.027 78.0929L181.703 77.5774Z" fill="#17295A"/>
<path d="M173.453 73.5825L173.711 73.9691L174.613 75.6444L174.871 76.031L174.355 75.9021L173.582 74.6134L173.453 73.5825Z" fill="#283046"/>
<path d="M150.644 73.1958H151.16L151.031 73.8401L150.516 74.6133L150.129 74.7422L150.516 73.4535L150.644 73.1958Z" fill="#1E305A"/>
<path d="M110.184 61.7268H114.436V61.8557L110.828 61.9845L110.184 62.1134V61.7268Z" fill="#9FA8AD"/>
<path d="M163.535 78.0928V78.4794L163.793 78.7371L164.823 78.866V78.9948H162.891L162.504 78.7371L163.535 78.0928Z" fill="#25407F"/>
<path d="M123.581 55.4124L124.226 55.5412L124.483 55.799H120.875V55.6701L123.066 55.5412L123.581 55.4124Z" fill="#7FA2B5"/>
<path d="M54.5116 20.2319L55.8003 20.4897L56.3158 20.7474V21.0051L54.8982 20.7474L54.2539 20.6185L54.5116 20.2319Z" fill="#447CAD"/>
<path d="M151.16 54.6392L151.933 54.8969V55.0258L151.16 55.1546H150.129V54.768L151.16 54.6392Z" fill="#283E7C"/>
<path d="M205.023 31.7009L205.539 31.8298L205.281 31.9587L205.152 32.603H204.508L204.379 32.8607L204.25 32.4741L205.023 31.7009Z" fill="#27386A"/>
<path d="M136.469 63.0156H136.726V64.0466L136.211 64.3043L136.082 64.562L135.953 63.7888L136.34 63.5311L136.469 63.0156Z" fill="#2A3D7A"/>
<path d="M95.6167 62.2422H96.5187L96.1321 62.4999L95.1012 62.7577L93.9414 63.1442V62.7577L95.6167 62.2422Z" fill="#14214D"/>
<path d="M148.195 55.1548L149.226 55.2837L149.741 55.4125L150.128 55.6702H148.453V55.4125H147.422V55.2837L148.195 55.1548Z" fill="#519AC2"/>
<path d="M205.668 32.8608L206.055 32.9897L205.926 35.567L205.668 35.1804V32.8608Z" fill="#0C52A2"/>
<path d="M52.4492 20.1033H54.3822L54.6399 20.4899H53.2224L52.4492 20.2321V20.1033Z" fill="#245D9D"/>
<path d="M231.828 54.897L232.344 55.0258L232.472 55.2836L232.859 55.4124V55.799L233.117 55.9279L231.957 55.6702L231.699 55.2836H231.957L231.828 54.897Z" fill="#1F2F58"/>
<path d="M104.898 46.2629H106.703V46.3918H105.8L105.929 46.7784L105.156 47.165V46.3918L104.898 46.2629Z" fill="#212F54"/>
<path d="M197.684 72.4226L198.328 72.5515L198.457 72.8092V73.5824L198.07 73.4535V73.1958H197.812L197.555 72.5515L197.684 72.4226Z" fill="#142350"/>
<path d="M209.148 77.7061L209.792 77.8349L209.535 77.9638L209.406 78.3504V78.0927L208.246 78.2215L207.859 78.3504L207.602 78.737L207.73 78.0927L208.504 77.8349L209.148 77.7061Z" fill="#212F54"/>
<path d="M132.476 77.8352H134.151L133.765 78.0929L132.863 78.2218H131.316V78.0929H132.476V77.8352Z" fill="#254080"/>
<path d="M223.457 66.2371L224.101 66.8814L224.875 67.5257L224.488 67.6546L223.457 66.8814L223.328 66.3659L223.457 66.2371Z" fill="#2A2F3E"/>
<path d="M117.523 78.2217L119.199 78.3505L119.714 78.6083L119.585 78.866L118.941 78.7371L117.781 78.4794L117.523 78.2217Z" fill="#14214D"/>
<path d="M189.305 77.8352H189.949L190.464 78.6084L189.949 78.4795L189.691 78.3507L189.434 78.6084L189.305 78.4795V77.8352Z" fill="#293D78"/>
<path d="M106.312 47.1648H107.085L107.343 47.5514H105.152V47.4225L106.312 47.1648Z" fill="#263F7E"/>
<path d="M101.676 38.2732H102.191L102.062 38.9175L101.805 39.5619L101.418 39.433L101.547 38.6598L101.676 38.2732Z" fill="#2A2F40"/>
<path d="M218.687 36.469L218.816 36.7267L218.687 37.6288L218.301 37.8865L218.043 37.7577L218.172 37.1133L218.301 36.8556H218.558L218.687 36.469Z" fill="#161438"/>
<path d="M27.578 75.6443L28.2224 76.0309L29.2533 76.4175L28.8667 76.5463L27.8358 76.4175L27.3203 76.5463L27.578 75.6443Z" fill="#A7AAAB"/>
<path d="M96.0075 49.0979L96.1364 49.3556L95.4921 51.0309L95.1055 51.1598L95.4921 50L96.0075 49.0979Z" fill="#19244B"/>
<path d="M130.41 46.2629H130.668L131.183 47.4227L131.054 47.9382L130.539 47.0361L130.281 46.3918L130.41 46.2629Z" fill="#1A1939"/>
<path d="M205.023 32.603L205.41 32.7319L205.152 34.4072L204.766 34.536L204.637 34.2783H205.023V34.0206L204.766 33.8917H205.023V32.603Z" fill="#212F54"/>
<path d="M116.109 61.8557L117.269 61.9846L118.558 62.1134V62.2423L116.883 62.3712L116.367 62.2423V61.9846L116.109 61.8557Z" fill="#1C4E93"/>
<path d="M91.8826 55.1548L93.0424 55.2837L93.1712 55.5414L91.6248 55.6702L91.1094 55.7991V55.5414L91.8826 55.1548Z" fill="#3E6A99"/>
<path d="M146.004 54.7681H146.648L146.39 55.4124H145.488L145.359 55.1547L146.004 55.0258V54.7681Z" fill="#162350"/>
<path d="M205.926 33.7627H206.055L206.183 36.7266H206.055L205.926 36.0823L205.668 35.9534V35.5668H205.926V33.7627Z" fill="#283E7B"/>
<path d="M95.7497 61.7268H96.394L96.2651 62.1134L94.7188 62.3711L94.8476 61.9845L95.7497 61.7268Z" fill="#17234B"/>
<path d="M232.348 54.897L232.863 55.1547L233.636 55.799L233.121 55.9279L232.863 55.799V55.4124L232.348 55.2836V54.897Z" fill="#192044"/>
<path d="M126.16 77.5774L126.547 77.964L126.418 78.3506L126.16 78.4795L126.418 78.7372L125.902 78.6083L125.773 78.2217L126.16 77.5774Z" fill="#16234C"/>
<path d="M102.836 65.4639L103.48 66.1082V66.7525L102.836 66.1082L102.707 65.5927L102.836 65.4639Z" fill="#18244C"/>
<path d="M92.2651 63.4021V63.7887L90.9765 65.2062L90.7188 65.0774L92.1363 63.531L92.2651 63.4021Z" fill="#1D2745"/>
<path d="M119.976 54.5103H120.878L121.523 55.2834L121.007 55.1546L120.492 54.8969H119.59L119.976 54.5103Z" fill="#202E55"/>
<path d="M84.4062 44.9741L84.6639 45.3607V46.1339L84.4062 46.3916L84.1484 46.005L84.2773 45.2319L84.4062 44.9741Z" fill="#549AC1"/>
<path d="M142.269 32.603H143.043L142.914 32.9896L142.269 33.3762L142.012 33.2474L142.269 32.8608L141.754 32.7319L142.269 32.603Z" fill="#151238"/>
<path d="M115.594 78.3503L116.109 78.6081L117.913 78.7369V78.8658H115.594L115.465 78.6081L115.594 78.3503Z" fill="#619DBD"/>
<path d="M152.449 55.2834H152.836V55.5412H154.382V55.67H152.062V55.4123L152.449 55.2834Z" fill="#2C3D78"/>
<path d="M106.059 37.1133H106.445L106.832 38.1442V38.7885L106.574 38.4019L106.187 37.7576L106.059 37.1133Z" fill="#1A1939"/>
<path d="M144.461 33.2476H144.719L144.332 34.794H144.074L144.203 33.763L144.461 33.2476Z" fill="#293E7B"/>
<path d="M148.453 77.7061H148.711V77.9638L149.613 78.0927L149.226 78.4793L148.711 78.3504L148.453 77.7061Z" fill="#192349"/>
<path d="M230.801 61.8557H231.187L231.316 62.1134V63.2732H231.187L231.059 62.6289H230.801V61.8557Z" fill="#224181"/>
</svg>
