<svg width="234" height="100" viewBox="0 0 234 100" fill="none" xmlns="http://www.w3.org/2000/svg">
<path d="M29.3482 0.308594H34.6278L37.4228 0.774438L40.5285 1.70613L43.6341 2.94838L46.895 4.65648L47.0503 4.81176V16.9237L45.9633 16.7684L43.3235 15.6815L39.5968 14.5945L36.3359 14.1286H32.6091L29.814 14.7498L27.1743 15.6815L25.4662 16.6131L23.7581 17.8554L21.7394 19.7188H21.4288L21.1183 20.3399L19.7207 22.048L18.1679 24.6878L17.081 27.1723L16.1493 30.2779L15.5281 33.3835L15.3729 34.7811V38.042L15.8387 41.7687L16.9257 46.1166L18.3232 49.5328L19.5655 51.7068L21.5841 54.3465L23.1369 55.8994L24.845 57.1416L27.019 58.5391L30.2799 59.7814L32.7644 60.2472H36.3359L39.7521 59.4708L42.0813 58.5391L45.1869 56.9863L46.7397 56.0546H47.0503V68.7877L46.2739 69.4088L43.013 70.9617L39.2862 72.3592L36.0253 73.1356L33.075 73.6014L29.6588 73.7567L25.4662 73.2909L22.8264 72.6698L19.7207 71.5828L16.1493 69.7194L13.5095 67.856L11.6461 66.1479L10.4039 64.9057L9.00632 63.1976L7.45351 61.1789L6.05598 58.8497L4.50316 55.8994L2.79507 51.5515L1.24225 45.8061L0.310563 40.9923L0 38.3526V36.0233L0.931689 30.2779L1.86338 26.3959L3.10563 22.6691L4.50316 19.4082L6.36654 15.8367L7.91935 13.5075L9.47217 11.4889L11.6461 9.15964L13.8201 6.9857L16.1493 5.2776L19.4102 3.25894L22.2052 2.01669L25.0003 1.085L28.1059 0.463875L29.3482 0.308594Z" fill="#FEE82A"/>
<path d="M187.271 2.01953H210.407L212.737 2.33009L215.066 3.1065L216.774 4.03819L218.637 5.43572L220.035 6.83326L221.122 8.54135L221.898 10.2494L222.519 12.734L222.675 14.2868V16.4607L222.364 18.0135L221.432 20.3427L220.345 22.2061L218.482 24.2248L217.24 25.3118L215.376 26.2434L212.116 27.3304V27.641L213.668 30.1255L216.153 34.0075L217.395 36.0262L219.259 38.9765L221.277 42.0821L225.78 48.9145L230.284 55.5916L232.147 58.542L233.389 60.0948L232.768 60.4054L230.439 60.5606H219.724L218.948 60.0948L218.172 59.1631L216.619 56.8339L214.911 54.1941L213.513 52.0202L211.805 49.5357L209.165 45.4983L206.991 42.0821L203.109 36.1815L201.091 33.0758L198.917 29.6596L197.985 27.9515V46.5853L194.724 46.8959H188.047L186.96 46.7406L186.805 46.5853V41.3057L186.96 2.33009L187.271 2.01953Z" fill="#F37438"/>
<path d="M64.4412 0L68.0127 0.155281L69.8761 0.621126L72.3606 1.86338L73.7581 2.79507L75.7768 4.50316L77.3296 6.21126L78.7271 8.22992L80.5905 11.8014L81.6775 15.0623L82.4539 18.6338L82.7645 22.3605L82.6092 26.2426L82.2986 28.7271L81.3669 32.1433L80.1247 35.0936L78.7271 37.7334L76.8638 40.2179L74.6898 42.3918L72.5159 43.9447L70.0314 45.1869L67.7022 45.808L66.7705 45.9633H64.7518L61.8015 45.3422L59.317 44.2552L57.4536 43.013L55.4349 41.3049L54.1927 39.9073L52.6398 37.5781L51.3976 35.2489L50.3106 32.2985L49.5342 29.6588L48.9131 26.7084L48.7578 24.5345V20.6524L49.3789 16.9257L50.1553 13.8201L51.087 11.3355L52.3293 8.85104L53.4163 7.14295L54.6585 5.59013L55.9008 4.1926L57.6089 2.79507L59.7828 1.39753L61.6462 0.621126L64.4412 0Z" fill="#FDC136"/>
<path d="M127.331 0.154297H131.213L133.542 0.775423L136.027 2.01767L137.735 3.25993L139.288 4.65746L140.375 5.74443L141.927 7.91837L143.48 10.7134L144.412 12.8874L145.344 16.1483L145.965 19.2539L146.12 21.1173V24.2229L145.809 27.6391L145.188 30.5895L144.257 33.3845L142.393 37.2666L141.151 39.1299L140.064 40.5275L138.356 42.2356L136.182 43.7884L134.629 44.7201L132.61 45.4965L130.436 45.9623H127.797L125.157 45.3412L123.294 44.5648L120.964 43.1673L119.101 41.4592L118.014 40.3722L115.995 37.5771L114.753 35.2479L113.511 31.8317L112.579 28.105L112.269 26.3969L112.113 24.5335V21.1173L112.734 17.08L113.511 13.8191L114.443 11.4898L115.685 8.85006L116.772 7.14196L118.014 5.58915L119.722 3.88105L122.051 2.17296L124.381 0.930704L126.554 0.309578L127.331 0.154297Z" fill="#F37438"/>
<path d="M151.865 54.6582H164.288L165.685 56.211L167.083 57.9191L169.101 60.2483L170.499 61.9564L172.052 63.6645L173.76 65.8385L175.623 67.8571L176.71 69.0994H177.021L179.195 66.7702L180.903 64.7515L182.3 63.0434L183.543 61.8012L184.94 60.0931L186.338 58.5402L187.735 56.8321L189.599 54.8135L192.394 54.6582H202.487L202.176 55.2793L200.468 57.298L199.071 59.0061L197.052 61.3353L193.325 65.6832L191.928 67.3913L190.53 68.9441L189.133 70.6522L187.58 72.3603L186.493 73.6025L185.095 75.1554L184.009 76.3976L183.543 77.0187L183.853 77.6399L185.717 79.6585L186.804 80.9008L188.201 82.4536L189.599 84.1617L190.996 85.7145L192.394 87.4226L199.847 96.1184L202.021 98.4476L202.953 99.0687V99.3793L199.692 99.5345H190.064L189.288 99.0687L187.425 97.05L186.027 95.3419L184.319 93.3233L182.922 91.6152L181.213 89.5965L179.816 87.8884L178.108 86.0251L177.331 84.6275L175.779 86.0251L173.76 88.199L172.673 89.4413L170.81 91.6152L169.412 93.3233L165.996 97.3606L165.064 98.6029L164.598 99.3793L158.542 99.5345H155.747L152.021 99.3793L151.555 99.224L151.865 98.6029L153.884 96.1184L155.592 94.0997L156.834 92.5469L158.232 90.9941L159.629 89.286L161.027 87.7332L162.114 86.4909L163.667 84.7828L164.754 83.5406L166.462 81.5219L167.859 79.8138L169.723 77.6399L169.878 76.8635L168.946 75.6212L167.549 74.0684L166.462 72.8261L164.598 70.6522L162.89 68.6335L161.493 66.9254L159.94 65.2173L158.542 63.5092L156.679 61.3353L155.281 59.6272L153.418 57.4533L151.71 55.4346L151.555 54.8135L151.865 54.6582Z" fill="#F37438"/>
<path d="M150.155 2.01953H160.87L161.025 31.523L161.336 33.2311L161.957 34.3181L163.199 35.2498L164.441 35.7156H166.46L168.013 35.2498L169.255 34.3181L169.876 33.3864L170.187 31.9889L170.342 2.01953H181.212L181.367 2.17481L181.212 33.8522L180.435 36.492L179.193 39.1318L177.795 41.1505L176.087 43.0138L174.224 44.4114L171.584 45.8089L169.565 46.43L166.46 46.8959H164.441L161.18 46.2747L159.162 45.4983L157.298 44.5667L155.59 43.3244L153.261 40.9952L151.863 38.666L150.776 36.1815L150.155 33.697L150 32.4547V2.17481L150.155 2.01953Z" fill="#F37438"/>
<path d="M123.602 61.3359H149.223L149.379 69.5659L147.205 69.7211L129.968 69.8764L129.658 76.3982L129.968 76.243H143.478L143.633 76.3982V83.0753L143.478 84.4729L143.323 84.6282H130.279L129.813 84.4729V86.4915L129.658 90.9947L147.515 91.15L149.379 91.3053L149.223 97.5165L149.068 99.3799L144.254 99.5352H119.875L118.633 99.3799L118.788 61.6465L118.943 61.4912L123.602 61.3359Z" fill="#F37438"/>
<path d="M52.1719 54.6582H79.3461L79.5014 54.8135V60.4036L79.3461 62.7328L79.1909 62.8881L63.3521 63.0434L63.1969 73.6025H76.2405L76.3958 78.1057V80.5902L76.2405 83.23L75.4641 83.3853H63.1969V99.3793L52.793 99.5345L52.1719 99.224V54.6582Z" fill="#FDBF37"/>
<path d="M86.0254 2.01953H96.8951L97.0504 2.79594L96.8951 36.6473L96.7398 37.2684H110.405L110.56 37.4237L110.715 39.9082V43.0138L110.56 46.5853L110.405 46.7406L109.007 46.8959H85.8701L85.7148 45.4983V29.6596L85.8701 3.1065L86.0254 2.01953Z" fill="#FDBF37"/>
<path d="M86.0264 54.6582H96.5855L96.8961 54.8135V89.9071L110.25 89.7518L110.561 89.9071V99.224L110.095 99.5345H86.0264L85.8711 99.3793V54.9688L86.0264 54.6582Z" fill="#FDBF37"/>
<path d="M29.349 0.308594H34.6286L37.4236 0.774438L40.5293 1.70613L43.6349 2.94838L46.8958 4.65647L47.0511 4.81176V16.9237L45.9641 16.7684L43.3243 15.6815L39.5976 14.5945L36.3367 14.1286L33.5416 13.9734V13.8181L34.4733 13.6628L34.318 13.5075L30.9018 13.197L27.7962 13.3522L27.1751 13.5075H22.2061L22.0508 12.8864L22.5166 12.11L22.9825 11.7994L23.293 10.2466L24.2247 8.38323V7.60682L23.293 6.83041V5.74344L24.0694 4.96704L25.6223 3.5695L26.8645 2.48253L27.3304 1.39556L27.0198 1.24028L27.6409 0.92972L27.1751 0.619157L29.349 0.308594Z" fill="#FEDB30"/>
<path d="M46.7376 56.0566H47.0482V68.7897L46.5823 68.3239L46.4271 68.6344L44.5637 69.4108L42.2345 70.1873L39.5947 71.4295L37.4207 72.0506L33.8493 72.5165H28.8803V72.3612L26.8616 72.0506L25.4641 71.2742L24.6877 70.4978V70.1873L24.2218 70.032V69.7214H23.9113V69.4108L23.2901 69.1003L22.2032 68.0133L21.8926 66.6158L21.7373 66.3052L21.582 64.5971L21.8926 64.1313L22.0479 61.9573L22.669 61.4915L24.2218 61.8021L25.1535 62.1126H27.638L27.9486 61.9573L29.6567 61.8021L32.1412 61.6468L34.9362 61.4915L37.7313 60.7151L40.2158 59.7834H40.5264L40.6817 59.1623L44.5637 57.2989L46.7376 56.0566Z" fill="#FEDB30"/>
<path d="M64.9045 10.4023H66.4574L67.389 10.8682L68.1654 11.4893L69.2524 13.1974L70.0288 15.0608L70.8052 18.1664L71.1158 20.6509V25.3094L70.8052 27.6386L70.1841 30.2784L69.4077 32.297L68.476 34.0051L67.0785 35.2474L66.4574 35.5579H65.2151L63.8176 34.9368L62.7306 33.6946L61.7989 31.8312L60.8672 28.7256L60.2461 24.2224V22.359L60.5567 19.0981L61.1778 15.9925L62.2648 13.0421L63.3517 11.4893L64.594 10.5576L64.9045 10.4023Z" fill="white"/>
<path d="M128.416 10.248L129.814 10.4033L131.211 11.335L132.298 12.5773L133.23 14.4406L134.006 17.2357L134.472 20.0308V25.9315L134.006 28.5713L133.075 31.6769L131.988 33.6955L130.745 35.0931L129.193 35.7142L127.95 35.4036L127.019 34.7825L126.087 33.5403L125 31.3663L124.224 28.416L123.758 24.9998V19.7202L124.379 16.6146L125.311 13.8195L126.242 12.1114L127.64 10.7139L128.416 10.248Z" fill="white"/>
<path d="M96.7408 37.2656H110.406L110.561 37.4209L110.716 39.9054V43.011L110.561 46.5825L110.406 46.7378L109.008 46.8931H85.8711V46.7378L96.7408 46.5825L94.5669 46.272L92.0824 45.8061L91.3059 45.0297L91.6165 43.9427L92.8588 43.3216H93.1693L93.4799 42.7005L94.7221 40.5265L95.3433 40.216H95.8091L95.9644 40.6818L96.5855 40.8371L97.2066 40.3713L98.7595 39.5948L98.4489 39.2843L100.623 38.1973L102.641 37.5762L96.7408 37.4209V37.2656Z" fill="#FCAA3A"/>
<path d="M109.939 89.752L110.561 89.9072V99.2241L110.095 99.5347H102.952L102.02 99.3794V99.0688L101.399 99.2241L99.3803 98.9136L95.9641 98.603L94.256 97.9819L93.4796 97.3607L93.0138 96.7396L92.8585 96.1185L93.4796 95.9632V95.3421L92.5479 95.6526H91.4609L91.7715 94.8762H92.0821L92.3926 94.0998L93.0138 92.8576L94.7218 92.547L96.5852 92.2365L98.138 91.6153L99.5356 90.8389L101.088 90.5284L102.331 90.2178L97.6722 90.0625V89.9072L109.939 89.752Z" fill="#FCAB3A"/>
<path d="M198.294 10.5586H203.729L206.058 11.335L206.99 11.9561L207.921 13.0431L208.387 14.5959L207.921 16.7699L207.3 17.8568L206.524 18.4779L204.816 19.2544L203.418 19.5649H197.828V11.9561L197.983 10.7139L198.294 10.5586Z" fill="white"/>
<path d="M124.07 1.08594L124.691 1.24122L122.828 2.32819L121.43 4.03629L119.722 5.89966L118.48 7.76304L116.927 11.3345L115.84 13.1979L114.908 17.2352L114.443 19.0986L113.821 22.2042L113.511 23.6018L113.356 23.9123V26.2415L114.132 30.1236L114.753 32.6081L115.374 34.0056L115.84 35.4031L117.082 37.5771L118.014 38.9746L118.946 40.2169L119.412 40.5274V40.838H119.722L120.809 42.0802L122.517 43.7883L121.741 43.6331L120.033 42.3908L118.014 40.3722L115.995 37.5771L114.753 35.2479L113.511 31.8317L112.579 28.1049L112.269 26.3968L112.113 24.5334V21.1172L112.734 17.0799L113.511 13.819L114.443 11.4898L115.685 8.85001L116.772 7.14191L118.014 5.5891L119.722 3.881L122.051 2.17291L124.07 1.08594Z" fill="#FCA83A"/>
<path d="M57.4545 3.57031V4.03616L56.9887 4.81256L55.2806 7.29707L54.3489 8.84988L54.1936 9.62629L53.5725 11.3344L52.4855 14.7506L51.5538 17.5456L50.7774 20.9618L50.001 23.4463L49.6905 24.378H49.3799L49.2246 26.2414H49.0693L48.9141 23.7569V19.5643L49.5352 16.1481L50.4669 12.8872L51.5538 10.4027L52.4855 8.53932L53.8831 6.52066L55.9017 4.81256L56.6781 3.88088L57.4545 3.57031Z" fill="#FEDB30"/>
<path d="M61.8039 13.043H61.9592V14.1299L61.0275 17.2356L60.5616 20.3412L60.4063 22.3599V24.2232L61.0275 28.7264L61.9592 31.832L62.8909 33.6954L63.8225 34.7824L64.7542 35.2482L64.9095 35.7141L64.4437 35.8693L63.2014 35.0929L62.425 34.4718L61.0275 31.9873L60.0958 30.1239L58.8535 26.2419L58.543 24.8444V23.2915L59.4747 19.4095H59.6299L59.7852 17.2356L60.7169 14.4405L61.8039 13.043Z" fill="#FED430"/>
<path d="M48.7578 20.6523H48.9131L49.0684 23.758V26.2425L49.6895 26.0872L50.1553 26.553L50.3106 27.64L50.1553 28.2611L50.6212 29.1928L50.7765 29.814L51.5529 31.522L52.4846 34.0065L52.7951 35.0935L53.5715 37.2675L54.6585 38.8203L55.5902 40.2178L56.6772 41.6153L57.2983 42.0812V42.3918L57.9194 42.7023V43.0129L57.2983 42.8576L55.5902 41.4601L54.1927 39.9072L52.6398 37.578L51.3976 35.2488L50.3106 32.2985L49.5342 29.6587L48.9131 26.7083L48.7578 24.5344V20.6523Z" fill="#FDCC31"/>
<path d="M144.255 99.3789H148.914V99.6895L148.448 99.8448L145.963 100H119.1L118.789 99.8448V99.5342L144.255 99.3789Z" fill="white"/>
<path d="M52.3281 54.8125H53.1045L53.2598 55.5889L54.0362 55.2783L54.9679 55.4336L55.7443 54.8125H58.8499V54.9678L56.8313 55.1231L55.4338 55.4336L55.2785 56.0548L54.9679 56.5206L54.6573 56.3653L54.0362 56.9864L53.1045 57.4523L52.9493 59.9368L52.794 60.8685V63.5083L53.1045 66.6139L52.9493 66.9245V72.6699L52.794 72.8252L52.6387 74.2227H52.4834L52.3281 61.0238V54.8125Z" fill="#FFDD30"/>
<path d="M101.09 99.3789H105.593L110.096 99.5342L109.785 99.8448L108.233 100H89.2883L86.0273 99.8448V99.5342L101.09 99.3789Z" fill="white"/>
<path d="M40.9922 2.01953L41.7686 2.17481L44.8742 3.57235L47.0482 4.8146V16.9266H46.8929L46.7376 8.69663L46.427 8.38607L45.9612 5.43572L45.8059 4.96988L41.1475 2.64066L40.9922 2.01953Z" fill="#FABF2F"/>
<path d="M109.937 89.752L110.558 89.9072V99.2241L110.403 99.3794H107.297V99.2241L110.092 98.7583V96.5843L109.626 92.0812L109.316 90.6836L109.16 90.2178L108.85 90.0625L109.937 89.752Z" fill="#FBAD37"/>
<path d="M32.6078 13.9746H36.3345L39.5955 14.4405L43.7881 15.6827L44.7197 16.1486L44.4092 16.3038L39.5955 14.9063L37.4215 14.5957L33.85 14.4405L31.2103 14.751L28.2599 15.5274L26.3965 16.3038L25.4648 16.6144L25.9307 16.1486L27.9493 15.2169L30.8997 14.2852L32.6078 13.9746Z" fill="white"/>
<path d="M53.5694 99.3789H63.1969L62.8863 99.8448L62.1099 100H57.1409L52.3272 99.8448L52.1719 99.5342L53.5694 99.3789Z" fill="white"/>
<path d="M62.8868 84.4727H63.0421V99.2244H61.0234V99.0691L62.5763 98.7586L62.7315 97.9821L62.5763 97.2057V89.5969L62.8868 84.4727Z" fill="#FFDD30"/>
<path d="M199.692 99.3789H202.798L202.642 99.6895L202.021 99.8448L197.829 100H192.704L189.909 99.8448L189.754 99.5342L199.692 99.3789Z" fill="white"/>
<path d="M54.9699 5.58984L55.1252 5.90041L54.0383 7.6085L53.7277 7.91907L53.1066 9.47188L52.3302 10.7141L51.709 11.4905L51.2432 12.2669L50.7773 12.4222L51.2432 11.0247L52.4854 8.54019L53.883 6.52153L54.9699 5.58984Z" fill="#FDD92C"/>
<path d="M46.4289 56.2109H46.8947V59.4718L46.5842 59.9377L46.2736 59.006L46.1183 57.919L45.0313 58.2296L43.168 58.5402L43.3233 57.919L45.6525 56.6768L46.4289 56.2109Z" fill="#FDDE2C"/>
<path d="M109.941 37.4219H110.563L110.718 39.9064V43.012L110.563 46.5835H109.32L109.941 45.9624L110.097 43.3226V40.6828L109.941 38.3536L109.786 37.5772L109.941 37.4219Z" fill="#FBAC38"/>
<path d="M197.983 10.7129L198.605 10.8682L198.449 11.0235V11.7999L198.605 11.9551L198.76 14.5949L198.294 15.0608V17.5453L198.449 19.5639H197.828V11.9551L197.983 10.7129Z" fill="white"/>
<path d="M125.156 13.5098L125.312 14.1309L124.38 17.0812L123.914 19.721L123.759 20.0316L123.604 24.69H123.448L123.293 22.8267V19.0999L123.759 16.7707L124.535 14.5967L125.156 13.5098Z" fill="#FBAA39"/>
<path d="M165.217 98.1367L165.528 98.292L164.596 99.6895L163.975 99.8448H155.745L153.727 99.6895V99.5343L164.596 99.2237L165.217 98.1367Z" fill="white"/>
<path d="M164.598 54.8125L165.374 55.1231L166.15 55.7442L166.927 57.297L168.48 59.0051L169.722 60.5579L170.654 61.9554L170.033 61.6449L168.635 59.9368L164.908 55.5889L164.598 54.8125Z" fill="white"/>
<path d="M116.923 7.29688V7.76272L115.525 11.0236L114.594 12.5764L113.973 12.887L114.439 11.4895L115.681 8.84969L116.457 7.60744L116.923 7.29688Z" fill="#FBAE37"/>
<path d="M162.113 67.7031L162.89 68.3243L164.132 69.8771L166.151 72.2063L167.548 73.7591L168.635 75.0014L169.877 76.5542L169.722 77.02L168.79 75.933L167.859 74.6908L166.772 73.4485L165.995 72.6721L164.287 70.8088L163.045 69.1007L162.113 68.0137V67.7031Z" fill="white"/>
<path d="M116.148 37.8887L116.925 38.6651L118.478 40.6837L120.341 42.5471L122.67 44.0999L124.689 45.0316L125.31 45.3422L124.844 45.4975L122.36 44.4105L119.875 42.7024L118.322 41.1496L116.459 38.6651L116.148 37.8887Z" fill="white"/>
<path d="M19.7227 71.584L20.4991 71.7393L23.9153 72.8262L26.555 73.2921L30.7476 73.7579V73.9132H27.7973L24.0705 73.2921L20.3438 72.0498L19.7227 71.584Z" fill="white"/>
<path d="M123.914 27.6387H124.225L125.001 30.8996L125.933 33.0735L126.399 33.8499L126.243 34.3158L125.312 32.9182L124.38 30.8996L123.914 28.7256V27.6387Z" fill="#F99B3A"/>
<path d="M59.3167 1.86328L59.4719 2.17384L57.4533 3.72666L56.6769 4.03722L55.5899 5.27947L54.3477 6.36644V5.9006L55.9005 4.1925L57.6086 2.79497L58.6955 2.01856L59.3167 1.86328Z" fill="#FCC930"/>
<path d="M139.133 41.3047L139.444 41.46L137.58 43.1681L136.183 44.0998L133.698 45.342L132.301 45.6526L132.611 45.342L135.251 44.255L137.115 43.0128L138.823 41.6153L139.133 41.3047Z" fill="white"/>
<path d="M181.212 33.5391L181.523 34.1602L181.367 35.5577L180.901 36.1788L180.591 36.9553L179.659 38.5081L179.504 38.1975L180.28 36.4894L181.212 33.5391Z" fill="white"/>
<path d="M62.8887 65.2168H63.044V72.9809L62.7334 73.602L62.5781 71.7386L62.7334 70.4964L62.8887 65.2168Z" fill="#FFDD30"/>
<path d="M54.6602 40.5273L55.7471 41.459L57.6105 43.0118L59.6292 44.2541L60.095 44.7199L59.3186 44.5647L56.9894 43.0118L55.4366 41.6143L54.6602 40.8379V40.5273Z" fill="white"/>
<path d="M205.281 11.1797L206.058 11.335L206.989 11.9561L207.921 13.0431L208.387 14.5959L208.076 14.9064V14.5959H207.766L207.61 13.8195L207.3 13.6642L207.145 12.5772L205.902 11.6455L205.281 11.1797Z" fill="white"/>
<path d="M128.418 10.248L129.816 10.4033L131.213 11.335L131.99 12.1114L131.834 12.422L130.747 11.335L129.816 10.8692H128.573L127.176 11.335L127.952 10.5586L128.418 10.248Z" fill="white"/>
<path d="M110.247 96.7402H110.403V99.38H107.297V99.2247L110.092 98.7589V96.8955L110.247 96.7402Z" fill="#FDC037"/>
<path d="M118.945 61.4902H120.964L120.809 61.8008L119.722 61.9561L119.411 62.7325L119.256 63.6642H118.945V61.4902Z" fill="#FBA63A"/>
<path d="M82.4522 27.0195H82.6075L82.4522 29.6593L81.3653 32.7649L81.0547 32.9202L81.5205 31.2121L82.2969 27.7959L82.4522 27.0195Z" fill="white"/>
<path d="M19.4073 22.3594L19.5626 22.6699L18.0098 25.6203L17.3887 27.1731H17.0781L17.2334 26.3967L18.4757 23.9122L19.4073 22.3594Z" fill="white"/>
<path d="M120.809 43.0117L122.517 43.9434L125.312 45.3409L124.846 45.4962L122.361 44.4093L120.809 43.3223V43.0117Z" fill="white"/>
<path d="M197.828 27.6387L198.294 28.1045L198.915 29.3468V29.6573H198.449L198.139 31.0549H197.983L197.828 27.6387Z" fill="white"/>
<path d="M110.252 43.3223H110.407V46.5832H109.32L109.941 45.9621L110.097 43.4775L110.252 43.3223Z" fill="#FEC237"/>
<path d="M120.498 3.25977H120.809V3.57033L119.567 4.6573L117.703 6.36539V5.89955L119.722 3.88089L120.498 3.25977Z" fill="#F9A237"/>
<path d="M125.158 13.5098L125.314 14.1309L124.537 16.6154H124.382L124.227 15.3731L125.158 13.5098Z" fill="#F99A39"/>
<path d="M167.395 73.9121L168.482 74.8438L169.879 76.5519L169.724 77.0177L168.792 75.9308L167.86 74.6885L167.395 74.2227V73.9121Z" fill="white"/>
<path d="M41.3047 15.0625L42.7022 15.3731L44.5656 15.9942L44.7209 16.3048L42.2364 15.6836L41.3047 15.3731V15.0625Z" fill="white"/>
<path d="M77.6406 7.29688L78.5723 7.918L79.1934 9.47082V9.78138H78.8829L77.9512 8.07328L77.6406 7.29688Z" fill="#FDD22F"/>
<path d="M134.004 27.9492H134.315L134.004 29.8126L133.538 31.2101H133.383L133.538 29.6573L134.004 27.9492Z" fill="#F99639"/>
<path d="M112.889 16.3027H113.355L113.199 17.7003L112.733 18.7872H112.578L112.733 17.0791L112.889 16.3027Z" fill="#F9A037"/>
<path d="M46.584 15.5273L46.8946 15.8379V16.9249L45.9629 16.7696L45.6523 16.459L46.2735 16.3038L46.584 15.5273Z" fill="#FDD62D"/>
<path d="M132.922 31.6758H133.233L132.922 32.6075L131.99 34.1603L131.68 34.3156L131.835 33.6944L132.922 31.6758Z" fill="#F89439"/>
<path d="M60.5567 17.3906H60.7119V19.0987L60.5567 20.341H60.2461V18.9434L60.5567 17.3906Z" fill="#FBC030"/>
<path d="M62.7325 11.8008L62.8878 12.2666L62.1113 13.8194H61.9561L61.8008 12.8878L62.7325 11.8008Z" fill="#FCC431"/>
<path d="M114.287 12.5762L114.442 12.8867L113.821 14.2843L113.355 14.9054L113.511 13.8184L113.821 12.8867L114.287 12.5762Z" fill="#F9A237"/>
<path d="M69.0987 33.3848V33.8506L68.3223 34.7823L67.7012 35.2481L67.3906 35.0929L68.3223 34.0059L69.0987 33.3848Z" fill="#FDD42D"/>
<path d="M70.0303 30.2793L70.3409 30.9004L70.0303 31.5215L69.875 32.298L69.2539 32.6085L69.7198 31.211L70.0303 30.2793Z" fill="#FAB631"/>
<path d="M76.707 6.05469L77.3282 6.20997L78.2598 7.45222L78.1046 7.76278L77.1729 6.98638L76.707 6.05469Z" fill="#FBC032"/>
<path d="M176.086 68.3223L177.173 68.4775L177.639 68.3223L177.328 68.9434L176.862 69.4092L176.086 68.6328V68.3223Z" fill="white"/>
<path d="M50.001 14.2852H50.1563V15.6827L49.8457 16.6144V16.9249H49.5352L49.6904 15.5274L50.001 14.2852Z" fill="#FAB931"/>
<path d="M62.8868 98.293H63.0421V99.2247H61.0234V99.0694L62.5763 98.7588L62.8868 98.293Z" fill="#FFDF2F"/>
<path d="M69.5635 32.2988L69.7188 32.6094L69.4083 33.3858L68.4766 34.0069L68.7871 33.2305L69.0977 32.6094L69.5635 32.2988Z" fill="#FBC62F"/>
<path d="M78.8789 8.84961L79.3448 9.31545L79.9659 10.5577L79.8106 11.0236L79.3448 10.4024L78.8789 8.84961Z" fill="#FBBD32"/>
</svg>
