<svg width="105" height="120" viewBox="0 0 105 120" fill="none" xmlns="http://www.w3.org/2000/svg">
<path d="M24.1367 0H49.3645L49.6372 0.136364L49.7736 11.1818L50.1827 13.2273L51.0009 14.5909L52.0918 15.6818L53.1828 16.6364L53.7282 17.7273L53.5919 18.5455L53.0464 19.3637L52.2282 20.0455L51.41 20.3182H48.0008L46.9099 20.1818H44.8644L43.5008 20.5909L42.2735 21.5455L41.4553 22.9091L41.1825 23.8637V25.3637L41.5916 26.5909L42.4098 27.5455L43.7735 28.2273L45.1372 28.5H47.0463L50.7282 27.9546L56.1828 26.7273L58.6374 26.1818H59.7284L61.2284 26.7273L62.0466 27.2728L62.7284 28.0909V29.3182L62.183 30.2728L60.9557 31.0909L60.0011 31.3637H57.1374L54.9555 31.0909L51.6827 30.4091L49.6372 30.2728L48.2736 30.5455L46.9099 31.2273L46.0917 32.3182L45.819 32.8637V33.9546L46.3644 35.0455L47.4554 35.8637L48.5463 36.2728H50.3191L53.7282 35.4546L55.3646 35.3182L56.0465 35.7273L56.4556 36.4091V37.0909L55.9101 37.7728L54.5464 38.5909L51.1373 39.9546L50.4554 40.5L50.0463 41.3182V42.8182L51.0009 45.1364V45.4091L50.7282 45.5455L45.4099 45.6819L45.2735 66.9546H24.2731L24.1367 39.4091V0Z" fill="#FE5F00"/>
<path d="M51.0012 0H57.4105L60.6833 0.409091L63.8197 1.09091L66.6834 2.18182L69.5471 3.68182L71.0471 4.77273L72.9562 6.4091L74.5926 8.18183L75.8199 9.95455L77.1836 12.4091L78.1382 14.8636L78.9564 18.1364L79.2291 20.7273V24.8182L78.9564 27L78.1382 30.2728L77.32 32.4546L75.9563 35.0455L74.4563 37.0909L72.9562 38.7273L72.0017 39.6819L69.5471 41.4546L67.2288 42.8182L65.3197 43.6364L63.4106 44.3182L60.0014 45.1364L58.0923 45.4091L55.0922 45.5455H52.2285L51.4103 44.3182L51.1376 43.2273L51.274 42.1364L51.9558 40.9091L53.0467 39.9546L55.2286 39.1364L56.5923 38.5909L57.4105 37.9091L57.5468 37.6364V36L56.865 34.9091L56.3195 34.6364L54.4104 34.5L51.8194 34.9091L49.5012 35.3182L48.2739 35.1819L47.5921 34.7728L46.9102 33.9546V33L47.3193 32.3182L48.4103 31.5L49.3648 31.0909L51.1376 31.2273L57.0014 32.1818H59.1832L61.0924 31.7728L62.456 30.9546L63.2742 30L63.6833 29.1818V27.5455L63.1379 26.5909L62.456 26.0455L60.4105 25.5L58.365 25.3637L55.365 25.7728L52.774 26.3182L49.0921 27.2728L47.3193 27.5455L45.5466 27.4091L43.9102 26.8637L42.8193 26.0455L42.4102 25.3637V23.8637L42.8193 23.1818L43.5011 22.5L44.4557 22.2273L46.092 22.3637L48.9557 23.0455L51.0012 23.5909L52.9104 23.8637H54.4104L56.3195 23.4546L58.2287 22.5L59.5923 21.2727L60.6833 19.6364L61.3651 17.4546V15.1364L60.6833 12.9546L59.7287 11.4546L58.6378 10.3636L57.2741 9.68183H55.6377L54.274 10.5L53.7286 11.4546L53.5922 11.7273L53.4558 13.7727L53.3195 13.9091H52.3649L51.6831 13.2273L51.274 12.2727L51.0012 7.36364V0Z" fill="#075D66"/>
<path d="M24.957 0H49.3666L49.6394 0.136364L49.7757 11.1818L50.1848 13.2273L51.003 14.5909L52.094 15.6818L53.1849 16.6364L53.7303 17.7273L53.594 18.5455L53.0485 19.3637L52.2303 20.0455L51.4121 20.3182H48.003L46.912 20.1818H44.8665L43.5029 20.5909L42.2756 21.5455L41.4574 22.9091L41.1846 23.8637V25.3637L41.5937 26.5909L42.4119 27.5455L43.7756 28.2273L45.1393 28.5H47.0484L50.7303 27.9546L56.1849 26.7273L58.6395 26.1818H59.7305L61.2305 26.7273L62.0487 27.2728L62.7305 28.0909V29.3182L62.1851 30.2728L60.9578 31.0909L60.0032 31.3637H57.1395L54.9576 31.0909L51.6849 30.4091L49.6394 30.2728L48.2757 30.5455L46.912 31.2273L46.0938 32.3182L45.8211 32.8637V33.9546L46.3666 35.0455L47.4575 35.8637L48.5484 36.2728H50.3212L53.7303 35.4546L55.3667 35.3182L56.0486 35.7273L56.4577 36.4091V37.0909L55.9122 37.7728L54.5485 38.5909L51.1394 39.9546L50.4576 40.5L50.0485 41.3182V42.8182L51.003 45.1364V45.4091L50.7303 45.5455H47.8666L47.0484 45L46.6393 43.0909L45.9575 39.9546L45.2756 38.1819L45.1393 37.7728L37.7755 37.6364L37.6391 37.5L37.5027 32.1818V15.8182L37.6391 12.2727L38.3209 11.5909L39.9573 11.0455L45.2756 9.81819L46.2302 9.4091L46.3666 8.18183V1.77273L46.6393 0.136364H24.957V0Z" fill="#FE8007"/>
<path d="M51.0012 0H54.6831L54.5468 0.272728L54.6831 0.545455L54.5468 3V4.77273L54.9559 5.45455L55.9104 6.00001L58.9105 6.81819L61.2287 7.09092L62.7288 6.81819L63.4106 6.68182H64.9106L65.7288 7.50001L65.8652 8.45455L66.0015 13.6364V20.4546L66.2743 23.5909L66.8197 25.5L67.5016 27.6818V29.8637L66.9561 31.0909L65.8652 32.5909L65.3197 32.8637V33.1364L63.5469 34.5L62.3197 35.4546L61.5015 37.0909L60.956 38.8637L60.4105 39.9546L59.3196 41.1819L57.4105 42.2728L55.5013 43.0909L55.365 43.2273L55.2286 45L55.0922 45.5455H52.2285L51.4103 44.3182L51.1376 43.2273L51.274 42.1364L51.9558 40.9091L53.0467 39.9546L55.2286 39.1364L56.5923 38.5909L57.4105 37.9091L57.5468 37.6364V36L56.865 34.9091L56.3195 34.6364L54.4104 34.5L51.8194 34.9091L49.5012 35.3182L48.2739 35.1819L47.5921 34.7728L46.9102 33.9546V33L47.3193 32.3182L48.4103 31.5L49.3648 31.0909L51.1376 31.2273L57.0014 32.1818H59.1832L61.0924 31.7728L62.456 30.9546L63.2742 30L63.6833 29.1818V27.5455L63.1379 26.5909L62.456 26.0455L60.4105 25.5L58.365 25.3637L55.365 25.7728L52.774 26.3182L49.0921 27.2728L47.3193 27.5455L45.5466 27.4091L43.9102 26.8637L42.8193 26.0455L42.4102 25.3637V23.8637L42.8193 23.1818L43.5011 22.5L44.4557 22.2273L46.092 22.3637L48.9557 23.0455L51.0012 23.5909L52.9104 23.8637H54.4104L56.3195 23.4546L58.2287 22.5L59.5923 21.2727L60.6833 19.6364L61.3651 17.4546V15.1364L60.6833 12.9546L59.7287 11.4546L58.6378 10.3636L57.2741 9.68183H55.6377L54.274 10.5L53.7286 11.4546L53.5922 11.7273L53.4558 13.7727L53.3195 13.9091H52.3649L51.6831 13.2273L51.274 12.2727L51.0012 7.36364V0Z" fill="#078080"/>
<path d="M23.5934 72.1362H32.4572L35.1845 72.409L36.8209 72.9544L38.4573 73.909L39.2755 74.5908L40.3665 76.0908L41.0483 77.7271L41.321 79.0908V80.7271L40.9119 82.7726L39.821 84.6817L38.4573 86.0453L37.0937 86.8635L37.6391 87.6817L39.2755 89.8635L40.9119 92.1817L42.8211 94.7726L43.7756 96.2726V96.409H38.321L36.5482 94.0908L35.1845 92.1817L33.8209 90.409L32.4572 88.4999L32.0481 87.9544H28.3662L28.2299 96.409H23.457V72.2726L23.5934 72.1362Z" fill="#003439"/>
<path d="M78.4095 71.5911H79.6367L80.1822 72.1365L81.6822 74.0456L82.9095 75.5456L84.8187 78.0002L85.9096 79.3638L87.2733 81.1365L88.7733 83.0456L89.8642 84.4093V84.682L90.5461 84.2729L92.0461 82.2274L93.6825 80.182L95.4553 77.8638L96.6826 76.3638L98.5917 73.9092L100.364 71.5911H102.001V96.4093H96.9553V83.7274L96.2735 84.4093L94.7734 86.3184L93.8189 87.5456L92.1825 89.5911L90.9552 91.0911H89.3188L87.8187 89.4547L86.4551 87.682L84.6823 85.5002L83.455 83.8638L83.0459 83.5911L83.1823 84.1365V96.4093H78.2731L78.1367 96.2729V71.8638L78.4095 71.5911Z" fill="#00353A"/>
<path d="M6.68192 72.1362H10.6366L12.5457 72.2726L14.5912 72.818L16.3639 73.7726L17.5912 74.8635L18.8185 76.7726L19.364 78.5453V81.2726L18.8185 83.0453L17.864 84.6817L16.6367 85.909L15.1366 86.8635L13.5002 87.5453L12.1366 87.8181H6.40919V94.0908L6.27282 96.409H1.5V72.2726L6.68192 72.1362Z" fill="#00353A"/>
<path d="M64.5009 71.5911H65.8646L67.5009 71.8638L69.6828 72.682L70.9101 73.5002L72.2738 74.7274L73.092 75.9547V76.5002L71.4556 77.7274L70.0919 78.8183L69.5464 78.5456L68.3191 77.182L66.6828 76.3638L65.4555 76.0911L64.2282 76.2274L62.8645 76.9093L62.1827 78.0002V78.9547L62.5918 79.6365V79.9093L63.1372 80.182L64.5009 81.0002L68.0464 82.5002L70.3646 83.7274L71.7283 84.8183L72.6829 85.7729L73.6374 87.682L73.7738 88.3638V90.8184L73.3647 92.182L72.5465 93.682L71.1828 95.0456L69.4101 96.1365L67.2282 96.682H63.2736L61.0917 96.1365L58.7735 94.9093L57.4098 93.682L56.3189 92.3184L55.7734 91.3638L57.5462 90.1365L58.9099 89.0456H59.4553L60.819 90.682L62.0463 91.6365L63.2736 92.0456L63.9554 92.182H66.5464L67.6373 91.7729L68.3191 91.0911L68.5919 90.2729V89.182L68.1828 88.3638L67.3646 87.682L65.1827 86.5911L62.0463 85.2274L59.7281 83.7274L58.6371 82.7729L57.6826 81.4093L57.2735 80.182L57.1371 79.5002V77.5911L57.5462 75.9547L58.3644 74.5911L59.1826 73.6365L60.6826 72.682L62.319 72.0002L64.5009 71.5911Z" fill="#00343A"/>
<path d="M48.9557 72.1362H51.9557V96.409H46.9102V72.2726L48.9557 72.1362Z" fill="#00363B"/>
<path d="M28.3668 76.5H33.1397L34.367 76.7727L35.4579 77.5909L36.1397 78.9545L36.2761 80.1818L35.867 81.6818L35.1852 82.6364L34.367 83.1818L33.4124 83.4546H28.3668L28.2305 83.3182V76.7727L28.3668 76.5Z" fill="#F1F1F2"/>
<path d="M6.54617 76.5H11.1826L12.2736 76.7727L13.2281 77.3182L13.91 78.1364L14.3191 79.5L14.1827 81.1364L13.6372 82.2273L12.5463 83.1818L11.8645 83.4546L6.54617 83.5909L6.27344 83.3182V77.3182L6.54617 76.5Z" fill="#F1F1F2"/>
<path d="M19.5 101.455H21.9546L23.591 101.727L24.5456 102.273L25.3638 103.364L25.7729 104.591V105.818L25.3638 106.909L24.4092 108L23.1819 108.546L22.3637 108.682H19.5V101.455Z" fill="#262321"/>
<path d="M43.5 101.455H46.2273L47.591 101.727L48.4092 102.409L48.6819 103.091V104.318L48.1365 105.136L47.4546 105.682L47.7274 106.227L48.9547 108L49.3638 108.546V108.818L48.1365 108.682L47.0455 107.318L46.3637 106.364V105.955L44.5909 105.818V108.682L44.1818 108.818L43.5 108.682V101.455Z" fill="#262321"/>
<path d="M90.1367 101.455H93.0004L94.2277 101.727L94.9095 102.409L95.3186 103.5L95.1823 104.455L94.6368 105.273L94.0913 105.818L95.0459 107.318L95.8641 108.409V108.818L94.5004 108.546L92.864 106.227V105.955H91.364L91.2277 108.682H90.1367V101.455Z" fill="#262321"/>
<path d="M99.6826 102.546H101.592L102.683 103.227L103.228 104.046L103.364 104.455V105.818L102.683 106.909L101.728 107.591L101.183 107.727H99.8189L98.728 107.182L98.0462 106.364L97.7734 105.682V104.455L98.3189 103.364L99.0007 102.818L99.6826 102.546Z" fill="#F1F1F2"/>
<path d="M0.272733 101.455H3.00006L4.09099 101.727L4.90919 102.409L5.18192 103.227V104.182L4.77282 105L3.95463 105.682L3.54553 105.818H1.09093V108.682H0V101.591L0.272733 101.455Z" fill="#262321"/>
<path d="M72.5466 101.455L73.092 101.727L74.4557 104.727L75.683 107.591L75.9557 108.273V108.818L74.7284 108.546L74.4557 107.727H71.0466L70.6375 108.682H69.4102L69.8193 107.455L71.592 103.5L72.4102 101.591L72.5466 101.455Z" fill="#252422"/>
<path d="M100.093 101.455L101.729 101.591L102.82 102L103.502 102.546L104.32 103.909L104.456 104.455V105.955L103.911 107.046L103.366 107.727L102.275 108.409L101.32 108.682H99.5473L98.1836 108.136L96.9563 106.773L96.6836 105.955V104.455L97.0927 103.227L97.9109 102.273L99.2746 101.591L100.093 101.455ZM99.6837 102.546L98.5927 103.091L97.9109 104.046L97.7745 104.455V105.682L98.32 106.773L99.1382 107.455L99.82 107.727H101.184L102.138 107.318L102.956 106.636L103.366 105.818V104.455L102.82 103.364L102.138 102.818L101.593 102.546H99.6837Z" fill="#252422"/>
<path d="M32.9997 101.455L33.5452 101.591L33.9543 102.682L35.8634 107.046L36.4089 108.409V108.818L35.3179 108.682L34.7725 107.727L31.3633 107.591L31.0906 108.682L30.136 108.818L29.8633 108.546L30.9542 105.955L32.5906 102.136L32.9997 101.455Z" fill="#262321"/>
<path d="M8.17975 101.455L8.72521 101.591L9.81615 103.909L11.5889 108L11.7253 108.682H10.6343L10.2252 107.727L6.67972 107.591L6.40699 108.546L6.27062 108.682H5.17969L5.31605 108L6.81608 104.727L7.63428 102.682L8.17975 101.455Z" fill="#252422"/>
<path d="M64.3669 101.455L66.1397 101.591L67.2306 102.136L67.9124 102.818V103.227L67.367 103.364L65.8669 102.682H64.2305L63.276 103.091L62.7305 103.773L62.4578 105.273L62.8669 106.5L63.5487 107.318L64.2305 107.591H66.0033L66.8215 107.182L67.2306 106.636L67.367 105.955L65.0487 105.818L64.9124 105.136L65.3215 105H68.4579V106.636L67.9124 107.591L66.6851 108.409L65.7306 108.682H63.9578L62.5941 108L61.7759 107.046L61.2305 105.818V104.455L61.7759 103.091L62.5941 102.136L63.6851 101.591L64.3669 101.455Z" fill="#252322"/>
<path d="M20.5934 102.546H22.7753L23.7298 102.955L24.548 104.046L24.6844 105.546L24.2753 106.637L23.5935 107.318L22.5025 107.727L20.7298 107.864L20.457 107.727V102.818L20.5934 102.546Z" fill="#F0F0F1"/>
<path d="M13.0938 101.455H17.8666L18.0029 101.727L17.8666 102.409H14.1847V104.455H17.0484V105.273L14.1847 105.409L14.321 107.727H18.0029L18.1393 107.864V108.546L18.0029 108.682H13.0938V101.455Z" fill="#262321"/>
<path d="M56.5888 101.455L57.9525 101.591L59.0434 102L59.8616 102.682V103.364L59.1798 103.5L58.498 102.955L57.8161 102.682H56.0434L55.0888 103.227L54.5434 104.046L54.407 104.455V105.955L55.0888 107.046L56.1797 107.591H57.5434L58.498 107.182L59.3162 106.636L59.8616 106.773V107.455L58.9071 108.273L57.6798 108.682H56.0434L54.6797 108.136L53.7252 107.182L53.1797 105.955V104.455L53.5888 103.364L54.1343 102.546L54.8161 102L55.7706 101.591L56.5888 101.455Z" fill="#262321"/>
<path d="M33.8186 111.409H34.3641V117.546L33.955 117.682V117.409L32.7277 117.818L31.364 117.682L30.5458 117L30.1367 115.773L30.4095 114.546L31.364 113.727L31.6367 113.591H32.864L33.5459 114V114.273H33.8186V111.409Z" fill="#EFEFF0"/>
<path d="M79.4979 101.455L80.7252 101.591L81.8161 102.273V102.955L81.2707 103.091L79.907 102.546L78.9525 102.682L78.5434 103.091L78.6797 103.773L81.2707 105.136L82.0889 106.091L82.2252 107.046L81.8161 107.727L80.8616 108.546L80.4525 108.682H79.0888L77.9979 108.273L77.1797 107.591V106.909L77.7252 106.773L78.6797 107.455L80.0434 107.727L80.8616 107.182L80.9979 107.046V106.364L79.6343 105.546L78.2706 104.864L77.3161 103.773L77.4524 102.682L78.1343 101.864L78.6797 101.591L79.4979 101.455Z" fill="#262322"/>
<path d="M94.3672 114.136L94.6399 114.273L94.7763 114.682L95.3218 114.409L95.7309 114.136H97.2309L97.9127 114.682L98.4582 115.636V116.727L97.9127 117.682L97.2309 118.227L96.14 118.364L95.049 117.954H94.7763V119.727H94.3672V114.136Z" fill="#F0F0F1"/>
<path d="M73.7756 111.409H74.0484V117.136L72.2756 117.818L70.9119 117.546L70.2301 116.591L70.0938 116.182V115.227L70.6392 114.136L71.4574 113.591H72.8211L73.6393 114.273V111.546L73.7756 111.409Z" fill="#F0F0F1"/>
<path d="M90.8193 114L92.0466 114.273L93.0011 115.364L93.1375 115.636V116.591L92.8648 117.273L92.3193 117.955L91.5011 118.364H90.5466L89.7284 117.955L89.1829 117.273L88.9102 116.727V115.636L89.592 114.545L90.2738 114.136L90.8193 114Z" fill="#F0F0F1"/>
<path d="M76.7735 114.136H78.2735L79.2281 114.954L79.5008 115.773V116.864L78.9553 117.818L77.8644 118.364L76.6371 118.227L75.8189 117.545L75.2734 116.591L75.4098 115.5L75.9553 114.682L76.7735 114.136Z" fill="#EFEFF0"/>
<path d="M82.7731 101.455H88.7732V102.409L86.455 102.546L86.3186 108.682H85.0913V102.409H82.7731L82.6367 101.591L82.7731 101.455Z" fill="#252523"/>
<path d="M36.1364 101.455H42.2729V102.409L39.8183 102.545V108.682L38.8637 108.818L38.7273 108.682L38.591 102.545L36.1364 102.409L36 101.591L36.1364 101.455Z" fill="#252422"/>
<path d="M12.4095 114.273H13.5004L14.5913 115.091L14.8641 115.773V116.591L14.455 116.727H11.1822L11.5913 117.546L12.2731 118.091L12.5458 118.227L13.7731 118.091L14.7277 117.546L14.455 118.227L13.0913 118.909L11.864 118.5L11.1822 117.955L10.6367 117L10.7731 115.773L11.4549 114.818L12.4095 114.273Z" fill="#222929"/>
<path d="M26.8616 112.773L27.2706 112.909L28.4979 115.637L29.3161 117.818L29.1798 118.364L28.4979 117H25.6343L25.0888 118.091H24.6797L24.9524 117.273L25.4979 116.182L26.3161 114L26.8616 112.773Z" fill="#252524"/>
<path d="M27.2734 101.455H28.3644L28.5007 101.591V108.682L27.2734 108.818V101.455Z" fill="#252524"/>
<path d="M54.8203 114.136H56.184L57.1386 114.954L57.4113 115.636V116.182H53.8658L54.4112 117.409L54.9567 117.818L55.7749 117.954L56.8658 117.409L57.2749 117.273L57.1386 117.818L55.9113 118.364L54.684 118.227L54.0021 117.818L53.4567 116.864L53.3203 115.773L54.1385 114.545L54.8203 114.136Z" fill="#242625"/>
<path d="M40.7749 114.136H42.1385L42.8204 114.682L43.0931 115.909L42.9567 118.091L41.4567 118.364L40.2294 118.227L39.8203 117.818V116.727L40.5021 116.182L41.4567 116.045H42.4113L42.2749 114.954L41.8658 114.682H41.0476L40.093 115.091L40.3658 114.409L40.7749 114.136Z" fill="#252423"/>
<path d="M50.5938 101.455H51.5483L51.6847 101.591V108.682L51.5483 108.818H50.7301L50.5938 108.682V101.455Z" fill="#242524"/>
<path d="M1.09375 102.409H3.27561L3.95744 102.818L4.09381 103.091V104.318L3.54835 104.864L3.00288 105H1.09375V102.409Z" fill="#EFEEF0"/>
<path d="M44.5938 102.409H46.6392L47.4574 102.818L47.5938 103.091V104.182L46.912 104.864L46.5029 105H44.5938V102.409Z" fill="#EEEEEF"/>
<path d="M91.2305 102.409H93.1396L93.9578 102.818L94.2305 103.227V104.182L93.4123 104.864L93.0032 105H91.2305V102.409Z" fill="#EEEEEF"/>
<path d="M33.8186 111.409H34.3641V117.546L33.955 117.682V117.409L32.7277 117.818L31.364 117.682L30.5458 117L30.1367 115.773L30.4095 114.546L31.364 113.727L31.6367 113.591H32.864L33.5459 114V114.273H33.8186V111.409ZM31.7731 114L30.9549 114.546L30.5458 115.5L30.6822 116.318L31.6367 117.409L32.5913 117.546L33.2731 117.136L33.8186 116.455V114.955L33.5459 114.409L32.7277 114H31.7731Z" fill="#232726"/>
<path d="M94.3672 114.136L94.6399 114.273L94.7763 114.682L95.3218 114.409L95.7309 114.136H97.2309L97.9127 114.682L98.4582 115.636V116.727L97.9127 117.682L97.2309 118.227L96.14 118.364L95.049 117.954H94.7763V119.727H94.3672V114.136ZM95.8672 114.545L94.7763 115.227V117.136L95.5945 117.818L96.2763 118.091L97.0945 117.954L97.9127 117L98.0491 115.909L97.64 114.954L96.9581 114.545H95.8672Z" fill="#252524"/>
<path d="M73.7756 111.409H74.0484V117.136L72.2756 117.818L70.9119 117.546L70.2301 116.591L70.0938 116.182V115.227L70.6392 114.136L71.4574 113.591H72.8211L73.6393 114.273V111.546L73.7756 111.409ZM71.4574 114L70.7756 114.546L70.5028 115.091V116.182L70.9119 116.864L71.4574 117.409L72.1392 117.546L73.0938 117.136L73.6393 116.591L73.7756 115.364L73.5029 114.546L72.6847 114H71.4574Z" fill="#232828"/>
<path d="M61.0934 112.636H64.5026L64.3662 112.909L61.5025 113.045V115.091H63.8207L63.6844 115.5H61.5025L61.6389 117.954H64.5026V118.227H60.957V112.773L61.0934 112.636Z" fill="#242625"/>
<path d="M90.8193 114L92.0466 114.273L93.0011 115.364L93.1375 115.636V116.591L92.8648 117.273L92.3193 117.955L91.5011 118.364H90.5466L89.7284 117.955L89.1829 117.273L88.9102 116.727V115.636L89.592 114.545L90.2738 114.136L90.8193 114ZM90.5466 114.545L89.8647 114.955L89.3193 115.636L89.1829 116.455L89.8647 117.545L90.8193 118.091L91.6375 117.955L92.3193 117.409L92.592 117V115.5L91.9102 114.682L91.5011 114.545H90.5466Z" fill="#252524"/>
<path d="M76.7735 114.136H78.2735L79.2281 114.954L79.5008 115.773V116.864L78.9553 117.818L77.8644 118.364L76.6371 118.227L75.8189 117.545L75.2734 116.591L75.4098 115.5L75.9553 114.682L76.7735 114.136ZM77.0462 114.545L76.3644 114.954L75.8189 115.636V116.727L76.3644 117.545L76.9098 117.954L77.728 118.091L78.4099 117.682L79.0917 117V115.5L78.4099 114.682L78.0008 114.545H77.0462Z" fill="#242624"/>
<path d="M66.821 114.136H68.1847L68.5938 114.682L68.8665 115.636V118.227H68.4574L68.3211 115.773L68.0483 114.818L67.912 114.682H66.9574L66.4119 114.818L66.2756 115.091L66.1392 118.227L65.5938 117.954V114.409L66.821 114.136Z" fill="#222928"/>
<path d="M33.0011 103.636H33.2738L34.3648 106.364V106.773H32.0465L31.9102 106.5L33.0011 103.636Z" fill="#EBEAEC"/>
<path d="M102.682 114H102.955L102.819 114.682L101.591 117.545L101.046 119.182L99.8186 119.864H99.1367L99.2731 119.455L100.228 119.182L100.773 118.636L100.637 117.818L100.091 116.727L99.1367 114.409V114.136H99.5458L100.5 116.318L100.909 117.409L101.182 117.545L101.591 116.318L102.546 114.136L102.682 114Z" fill="#242726"/>
<path d="M45.548 114.136H46.9116L47.5935 114.818L47.7298 115.227L47.8662 118.227H47.4571L47.3207 116.045L47.048 114.954L46.6389 114.682H45.6843L45.1389 114.954L45.0025 116.182V118.227L44.457 118.091V114.409L45.548 114.136Z" fill="#232827"/>
<path d="M72.548 103.773L72.9571 103.909L74.048 106.637H71.457L71.8661 105.409L72.548 103.773Z" fill="#EEEEEF"/>
<path d="M8.31749 103.773L8.72659 104.182L9.68116 106.227L9.54479 106.773L7.22656 106.637L7.36293 105.955L8.18113 103.909L8.31749 103.773Z" fill="#EEEDEF"/>
<path d="M81.8207 114L82.6389 114.136L83.1844 114.545L83.048 114.955L82.3662 114.682H81.548L81.2752 114.955L81.1389 115.5L81.8207 115.773L83.048 116.455L83.3207 116.727L83.4571 117.545L83.1844 117.955L82.3662 118.364L81.2752 118.227L80.457 117.682L80.5934 117.136L81.8207 117.955L82.6389 117.682L82.7753 117L81.1389 115.909L80.5934 115.5L80.7298 114.818L81.4116 114.136L81.8207 114Z" fill="#242625"/>
<path d="M26.8647 113.727L27.2738 113.864L28.2284 116.045V116.455H25.9102L26.0465 115.5L26.7284 113.864L26.8647 113.727Z" fill="#ECECED"/>
<path d="M50.8658 114L51.9567 114.273L52.6386 114.955L52.5022 115.227L51.9567 114.818L51.5476 114.682H50.4567L49.6385 115.227L49.5021 115.636V116.864L49.9112 117.409V117.682L50.7294 117.955L51.684 117.818L52.7749 117L52.5022 117.682L51.8204 118.227L50.5931 118.364L49.7749 117.955L48.9567 117L48.8203 115.909L49.2294 114.955L50.0476 114.273L50.8658 114Z" fill="#242726"/>
<path d="M0.136719 112.909H0.682184V118.227H3.40951L3.54588 118.5L3.27315 118.636H0.273085L0.136719 118.5V112.909Z" fill="#232928"/>
<path d="M12.5434 114.682H13.3616L14.1797 115.364L14.4525 116.182L13.3616 116.318H11.3161L11.1797 116.046L11.5888 115.364L12.2706 114.818L12.5434 114.682Z" fill="#EEEDEF"/>
<path d="M86.1833 114L87.2742 114.136L88.2288 114.955L88.0924 115.227L87.0015 114.682H85.9105L85.3651 115.091H85.0923L84.956 115.636V116.727L85.5014 117.682L86.1833 117.955L87.4106 117.682L88.0924 117.136L88.3651 117.273L87.6833 117.955L86.8651 118.364L85.6378 118.227L84.8196 117.545L84.5469 117.136V115.364L85.0923 114.545L86.1833 114Z" fill="#242726"/>
<path d="M9.81826 114.273H10.091L9.68189 115.5L8.72733 117.682L8.31823 118.637L7.77276 118.364L6.13637 114.682L6 114.409L6.54547 114.546L6.95456 115.227L7.90913 117.409L8.0455 117.818L8.31823 117.682L9.13643 115.5L9.68189 114.409L9.81826 114.273Z" fill="#242726"/>
<path d="M21.6793 111.409H21.9521V120H21.543V111.546L21.6793 111.409Z" fill="#212B2B"/>
<path d="M55.0906 114.546L56.3179 114.682L56.8633 115.364V115.909H53.8633L53.9996 115.364L54.6815 114.682L55.0906 114.546Z" fill="#E9E8EA"/>
<path d="M35.457 114.136L36.0025 114.682L36.8207 116.454L37.0934 117.545L37.5025 117.136L38.5935 114.545L38.8662 114.136H39.1389L39.0026 114.954L37.9116 117.273L37.5025 118.227L36.9571 118.091L36.2752 116.454L35.5934 114.954L35.457 114.136Z" fill="#252524"/>
<path d="M17.7301 114.273H18.2756L18.1392 114.818L16.6392 115.227V118.5H16.0938V114.546L17.1847 114.682L17.7301 114.273Z" fill="#262322"/>
<path d="M41.8665 116.455L42.5483 116.591L42.412 117.545L41.7301 117.955H40.5028L40.0938 117.273L40.3665 116.727L41.8665 116.455Z" fill="#EDEDEE"/>
<path d="M95.7287 114.136H97.2287L97.9106 114.682L98.456 115.636V116.727L97.9106 117.682L97.2287 118.227V117.818L97.7742 117L97.9106 115.909L97.5015 114.954L96.956 114.682H95.8651L95.0469 115.091L95.3196 114.545L95.7287 114.136Z" fill="#242625"/>
<path d="M41.3203 116.046H42.5476L42.4113 116.455L40.3658 116.864L40.2294 117.273L40.5021 117.818H42.0022V118.227L40.6385 118.364L39.9567 117.955L39.8203 117.818V116.727L40.5021 116.182L41.3203 116.046Z" fill="#212B2B"/>
<path d="M4.49965 114.409L5.04511 114.546V118.5L4.49965 118.636L4.36328 114.546L4.49965 114.409Z" fill="#252524"/>
<path d="M9.8207 114.273H10.0934L9.68433 115.5L8.72976 117.682L8.45703 117.546L8.5934 116.864L9.54796 114.546L9.8207 114.273Z" fill="#232928"/>
<path d="M80.457 117.136L81.8207 117.954L82.3662 118.091V118.364L81.2752 118.227L80.457 117.682V117.136Z" fill="#212B2B"/>
<path d="M94.3672 117.955H94.6399L94.7763 118.227V119.727H94.3672V117.955Z" fill="#1E3132"/>
<path d="M65.7301 116.727L66.1392 116.864V118.227L65.5938 117.955L65.7301 116.727Z" fill="#242524"/>
<path d="M88.0941 117.136L88.3669 117.273L87.685 117.954L86.7305 118.364L87.0032 117.818L87.9578 117.273L88.0941 117.136Z" fill="#222A29"/>
<path d="M68.5934 116.318H68.7298L68.8661 118.227H68.457L68.5934 116.318Z" fill="#1B3739"/>
<path d="M17.7252 114.273H18.2706L18.1343 114.818L17.1797 114.955L17.7252 114.273Z" fill="#1F2F30"/>
</svg>
