<svg width="246" height="100" viewBox="0 0 246 100" fill="none" xmlns="http://www.w3.org/2000/svg">
<path d="M31.028 17.1953H43.9252L44.1121 54.0177L44.2991 54.5785L45.2336 52.3355L46.5421 50.2794L48.2243 48.2234L50.0935 46.3542L52.8972 44.2981L55.8879 42.8028L58.8785 41.8682L61.1215 41.4944H66.5421L69.7196 42.0551L73.0841 43.1766L75.8878 44.6719L77.5701 45.9804L79.2523 47.4757L80.9346 49.7187L82.0561 51.5878L82.9907 53.8308V42.6159L83.1776 42.429H91.028L96.2617 42.6159V47.6626L97.5701 46.1673L99.2523 44.485L101.869 42.8028L104.112 41.8682L105.794 41.4944H109.346L112.15 42.0551L112.71 42.242L116.262 42.429H125.607L125.794 46.3542L127.29 44.8589L130.28 42.9897L132.336 42.0551L134.579 41.4944H138.879L142.056 42.242L144.299 43.1766L146.542 44.485L148.598 46.5411L149.533 47.8495V48.2234L150.467 47.2888L151.776 45.7934L154.393 43.7374L157.196 42.242L160 41.4944H164.673L167.664 42.242L169.907 43.1766L171.963 44.485L173.832 46.1673L175.14 48.0364L176.075 50.2794L176.636 52.5224L176.822 52.7093L178.131 50.0925L179.813 47.8495L181.308 46.1673L183.925 44.1112L186.729 42.6159L189.159 41.8682L191.402 41.4944H196.262L199.065 42.0551L201.495 42.9897L203.925 44.2981L205.794 45.7934H205.981V42.6159L207.664 42.429H222.991V28.5972H236.075L236.262 42.429H243.925V52.5224H236.075L236.262 65.6065L236.636 67.4757L237.383 68.7841L238.318 69.3448H239.813L241.869 68.5972H242.43L245.421 78.5037L245.234 79.0645L242.43 80.3729L239.252 81.1205L237.757 81.3075H234.953L231.402 80.7467L229.159 79.8121L227.103 78.3168L225.607 76.6346L224.112 73.6439L223.364 71.0271L222.991 67.6626V52.5224H219.065V79.9991L218.879 80.186H206.355L206.168 79.9991V76.0738L204.673 77.3822L202.43 79.0645L200 80.186L197.57 80.9336L196.449 81.1205H191.028L187.664 80.3729L185.421 79.4383L182.991 77.943L181.121 76.2607L179.439 74.5785L178.131 72.7093L177.009 70.4663L176.822 70.2794V73.457L176.636 79.9991L176.449 80.186H163.738L163.551 69.1579V60.3729L163.364 57.0084L162.43 54.5785L161.869 54.0177V53.6439L159.252 52.3355L158.318 52.1486H155.888L154.206 52.7093L152.71 53.8308L151.402 56.4477L151.215 79.9991L151.028 80.186H138.131L137.944 57.943L137.57 56.0738L136.449 54.0177L134.766 52.7093L132.897 52.1486H130.28L128.598 52.7093L127.477 53.457L126.355 55.1392L125.794 56.8215L125.607 80.186H112.71L112.523 79.9991V53.2701L112.71 50.8402L112.15 51.4009L111.215 53.6439L110.654 54.5785L109.533 54.3916L107.664 53.457L105.981 53.0832H101.869L99.8131 53.8308L98.5047 54.7654L97.3832 56.4477L96.4486 58.6906L96.2617 59.4383L96.0748 80.186H83.1776L82.9907 79.9991L82.8037 72.1486L81.3084 74.2047L78.8785 76.6346L76.0748 78.5037L73.0841 79.8121L70.6542 80.5598L67.1028 81.1205H61.1215L57.9439 80.5598L54.9533 79.4383L52.1495 77.943L50.2804 76.4477L48.4112 74.7654L46.5421 72.5224L45.2336 70.4663L44.486 68.971L44.2991 68.2234L44.1121 69.3448L43.9252 79.9991L43.7383 80.186H31.215L31.028 79.9991V76.0738L30.0935 77.0084L28.785 78.1299L26.3551 79.6252L24.1122 80.5598L21.4953 81.1205L19.8131 81.3075H17.5701L14.5794 80.9336L11.5888 79.9991L8.59813 78.5037L6.72897 77.0084L4.6729 74.9523L2.61682 71.9617L1.1215 68.7841L0.186916 65.2327L0 63.5505V58.8776L0.560748 55.7L1.68224 52.7093L3.17757 49.9056L5.23364 47.2888L7.28972 45.2327L9.71963 43.5505L11.7757 42.6159L14.0187 41.8682L16.0748 41.4944H21.1215L23.9252 42.0551L26.9159 43.1766L29.5327 44.8589L30.8411 45.9804V22.6159L31.028 17.1953Z" fill="#010101"/>
<path d="M228.223 0H231.213L233.83 0.747664L236.073 2.05607L237.755 3.73832L239.251 6.35514L239.998 9.15888V11.215L239.251 14.2056L238.129 16.2617L236.634 17.9439L234.765 19.2523L232.522 20.1869L230.839 20.5607H228.596L226.166 20L223.737 18.6916L221.68 16.8224L220.185 14.3925L219.624 12.7103L219.438 11.7757V8.78505L220.185 6.16822L221.494 3.92523L223.363 2.05607L225.98 0.560748L228.223 0Z" fill="#010101"/>
<path d="M195.698 52.7109H199.623L201.679 53.4586L203.361 54.5801L205.044 56.4493L205.978 58.5053L206.352 60.3745V62.6175L205.791 64.8605L204.857 66.5427L203.174 68.4119L200.558 69.7203L198.501 70.0941H196.072L194.015 69.5334L192.52 68.7857L190.838 67.2904L189.716 65.4212L188.969 63.3651V59.4399L189.716 57.3838L190.838 55.5147L192.52 54.0193L194.389 53.0848L195.698 52.7109Z" fill="white"/>
<path d="M20.3741 52.7109H24.6732L26.5423 53.4586L28.5984 54.767L29.7199 56.0754L30.8414 58.3184L31.2152 59.8137V62.8044L30.6545 64.8605L29.533 66.9165L28.0376 68.4119L25.7946 69.5334L23.3647 70.0941H21.3087L18.8788 69.5334L17.1965 68.5988L15.8881 67.4773L14.7666 65.795L14.0189 63.739L13.832 62.9913V59.6268L14.5797 57.3838L15.7012 55.5147L17.3834 54.0193L19.8133 52.8979L20.3741 52.7109Z" fill="white"/>
<path d="M149.157 95.5137H159.437L159.624 96.2613L159.064 96.6352L150.092 96.8221L36.0729 98.5043L14.7645 98.6912L14.3906 98.5043V97.5697L20.7458 97.3828L65.9794 96.6352L117.942 95.8875L149.157 95.5137Z" fill="#010101"/>
<path d="M56.8197 63.1777H82.988V71.2151L81.8665 70.8413L77.5674 68.5983L74.5767 67.103L73.6422 66.9161L72.7076 67.8506L71.0253 69.346L69.1562 70.2805L67.8478 70.6544L66.3524 70.8413H63.5487L61.3057 70.2805L59.2496 69.159L57.9412 67.8506L56.8197 65.6076L56.6328 64.6731V63.3647L56.8197 63.1777Z" fill="white"/>
<path d="M199.809 89.5312H203.36L205.23 90.092L206.164 90.8397L207.099 92.5219L207.286 93.2696V96.2602L206.725 97.9425L205.79 99.064L204.295 99.8116L203.173 99.9985H199.435L198.688 99.6247V89.7182L199.809 89.5312Z" fill="#010101"/>
<path d="M63.5499 49.9062L66.1667 50.0932L68.0358 50.8408L69.905 52.5231L71.0265 54.7661L71.2134 55.8876H57.0078L57.1947 54.3922L58.1293 52.5231L59.4377 51.2147L61.3069 50.2801L63.5499 49.9062Z" fill="white"/>
<path d="M235.514 89.5312L236.262 89.7182L236.822 90.6527L238.505 94.578L240.187 98.877L240.374 99.9985L239.065 99.8116L237.944 97.5686L233.458 97.3817L232.897 99.064L232.336 99.9985H231.402L231.215 99.4378L234.019 92.5219L235.14 89.9051L235.514 89.5312Z" fill="#010101"/>
<path d="M178.316 89.7188L179.625 89.9057L181.868 92.7094L184.111 95.7001L185.045 96.8216L185.232 89.9057L185.419 89.7188H186.541V99.9991L185.232 99.6253L183.363 97.3823L181.681 95.1393L179.812 92.7094L179.625 99.6253L179.438 99.8122H178.316V89.7188Z" fill="#010101"/>
<path d="M200.374 91.0273H203.738L205.047 91.775L205.607 92.8965L205.794 93.6442V95.8872L205.421 97.1956L204.486 98.1301L203.738 98.504L202.617 98.6909H200.374L200 97.7563V93.8311L200.187 91.2143L200.374 91.0273Z" fill="white"/>
<path d="M218.878 89.7188H220.187V99.8122H218.691V91.401L218.878 89.7188Z" fill="#010101"/>
<path d="M164.859 89.7188H166.167V99.8122H164.859L164.672 99.6253V91.7748L164.859 89.7188Z" fill="#010101"/>
<path d="M235.512 91.9629H235.885L237.007 94.5797L237.381 95.8881L236.259 96.075H234.203L234.39 95.1405L235.512 91.9629Z" fill="white"/>
</svg>
