<svg width="300" height="100" viewBox="0 0 300 100" fill="none" xmlns="http://www.w3.org/2000/svg">
<path d="M135.226 0H160.983L171.968 1.13637L183.332 3.03032L192.801 5.30307L202.65 8.33339L206.438 9.84855L206.817 10.6061L207.953 10.2273L210.604 11.3637L213.635 12.5001V13.2577L214.771 12.8789L217.044 14.0152L218.938 14.7728V15.5304L220.832 15.9092L223.104 16.6668V17.4244L226.135 18.1819V18.9395L228.407 19.6971L234.089 22.7274L235.226 23.8638L239.771 26.1365V26.8941L241.665 27.6517L245.832 30.3032L251.135 34.0911L255.68 37.5003L262.12 42.8033L271.211 51.1367L275.756 55.6822L278.408 58.7125L283.332 64.0156L287.498 69.3186L292.044 75.0005L296.589 81.4399L299.998 86.3642V87.1218H277.65L275.377 85.2279L272.347 81.4399L268.18 76.1369L262.877 70.455L259.468 66.6671L252.271 59.4701L249.241 56.8186L245.074 53.0307L239.771 48.864L236.362 46.2124V45.4549L234.468 44.6973L231.438 42.8033L229.544 41.6669V40.9094L227.271 40.1518L226.514 39.3942L223.862 37.879L222.347 36.7427L219.695 35.2275L218.18 34.4699L217.423 33.7123L209.089 29.5457L199.62 25.0002L187.12 20.0759L174.998 16.288L163.635 13.6365L157.574 12.5001L149.62 11.3637L140.15 10.6061H121.589L112.119 11.3637L100.756 12.8789L97.3468 13.6365L86.3619 15.9092L77.271 18.5607L63.6346 23.1062L54.5437 26.8941L48.4831 29.5457L41.2861 33.3336L33.7104 37.5003L29.5437 40.1518L23.1043 44.3185L20.4528 45.8336H19.3164L19.6952 43.9397L24.6194 40.1518H25.377V39.3942L29.5437 36.7427L34.0891 33.7123L40.1498 29.9244L49.6195 24.2426L55.6801 21.2123L65.9073 16.288L76.8922 11.7425L89.3922 7.57581L99.6195 4.92428L115.15 1.89395L126.892 0.37879L135.226 0Z" fill="url(#paint0_linear_2413_9008)"/>
<path d="M0.378788 56.0605H15.5303L19.3182 57.1969L22.3485 59.8485L23.8637 62.8788V67.8031L21.9697 70.4546L20.4546 70.8334L20.8333 72.3485L23.8637 75.0001L24.6212 76.894V82.5759L23.4849 85.2274L20.8333 87.5002L17.4243 88.6365H0V56.4393L0.378788 56.0605Z" fill="#042579"/>
<path d="M111.743 62.8789L113.637 63.2577L114.773 65.9092V67.4244L112.122 68.182L112.879 71.5911V75.0002L111.743 78.4093L109.849 80.3033L106.061 82.1972L104.167 82.576H97.7278V84.0912L107.576 85.2275L113.258 86.3639L113.637 87.8791L113.258 93.9397L111.364 96.97L108.713 98.4852L106.44 99.2428L101.137 99.6216L95.0762 99.2428L92.0459 98.1064L89.7732 96.2125L89.0156 94.6973V91.667L89.7732 89.3942L90.9096 88.6367V86.3639L90.152 85.6063L90.5308 82.576L91.6671 81.4396H92.4247L92.0459 79.1669L90.5308 76.8942L90.152 75.0002V70.8335L91.2884 67.8032L94.3187 65.1516L96.9702 64.0153L98.8641 63.6365H103.788L107.955 64.3941L111.743 62.8789Z" fill="#04277A"/>
<path d="M83.7118 55.6816L85.2269 56.0604V88.6364H78.7875L78.4087 87.1213L76.136 87.5L74.6209 88.6364L73.1057 89.0152H68.1815L64.3936 87.1213L62.8784 85.2273L61.7421 82.5758L61.3633 79.9242V73.106L62.1209 69.3181L63.636 66.6666L65.9087 64.7726L69.3178 63.6362H72.7269L75.7572 64.7726L77.2724 65.5302V56.4392L77.6512 56.0604L83.7118 55.6816Z" fill="#04277A"/>
<path d="M226.516 63.6367H229.547L233.335 64.3943L236.365 65.9095L238.638 68.561L239.395 70.4549V78.4095L239.016 78.7883L231.819 79.1671H224.622V81.0611L227.274 82.1975H232.198L237.122 81.4399L239.016 85.2278V86.7429L235.607 88.2581L232.198 89.0157H226.138L221.592 87.8793L218.562 85.6066L217.047 83.3338L216.289 79.5459V73.4853L217.047 68.9398L218.941 66.667L221.971 64.7731L226.516 63.6367Z" fill="#04277A"/>
<path d="M181.817 63.6367H185.226L188.635 64.3943L191.665 66.2883L193.181 68.561L193.559 69.6974L193.938 74.2429V81.0611L193.559 88.6369L191.665 89.0157H188.256L186.741 87.8793L184.847 88.2581L182.575 89.0157H177.272L174.241 87.8793L172.347 85.9854L171.59 84.4702L171.211 82.1975V77.2732L171.969 75.3792L185.226 73.4853V71.5913L183.711 70.8337H180.681L176.514 71.9701H174.62L172.726 67.8034L173.484 66.2883L176.893 64.7731L181.817 63.6367Z" fill="#04277A"/>
<path d="M127.274 63.6367H131.062L134.471 64.3943L137.88 66.2883L140.153 69.6974L140.532 70.4549V78.4095L139.774 78.7883L125.38 79.1671L126.517 81.8187L128.789 82.1975H132.956L135.229 81.8187H138.259L140.153 85.2278L139.774 86.7429L136.744 88.2581L133.335 89.0157H126.895L121.971 87.5005L119.699 85.9854L118.183 84.0914L117.426 81.4399V71.2125L118.562 68.1822L121.592 65.5307L125.38 64.0155L127.274 63.6367Z" fill="#04277A"/>
<path d="M153.411 56.0605H163.26L166.669 57.5757L168.184 58.7121L167.805 60.9848L165.533 64.3939L162.502 63.2576L160.23 62.8788H156.442L154.548 64.0151L153.411 65.9091V79.1668L154.927 81.4395L155.684 81.8183H162.502L165.533 81.0607L166.669 82.5759L168.184 85.6062L167.427 87.1214L164.018 88.6365L162.124 89.0153H153.79L150.002 87.5002L146.972 84.8486L145.457 81.8183L145.078 74.2425L145.457 63.6364L146.593 60.9848L148.487 58.7121L152.275 56.4393L153.411 56.0605Z" fill="#04277A"/>
<path d="M42.0468 63.6367H44.6983L45.4559 64.0155L45.0771 68.561L44.3195 71.5913L42.0468 71.9701L39.0165 72.3489L37.8801 73.4853L37.5013 88.6369H29.5468L29.168 87.1217V64.7731L29.5468 64.3943L34.0922 64.0155L35.9862 64.3943L36.3649 67.0458L37.8801 66.2883L38.6377 64.7731L42.0468 63.6367Z" fill="#04277A"/>
<path d="M210.605 63.6367L214.015 64.0155L214.393 65.1519L213.257 71.5913L207.954 72.3489L206.439 73.8641L206.06 88.6369L203.787 89.0157L198.484 88.6369L198.105 68.9398L198.484 64.3943L201.136 64.0155H204.166L204.924 66.667L207.196 65.5307L209.09 64.0155L210.605 63.6367Z" fill="#04277A"/>
<path d="M49.2421 64.0156H56.439V88.637H48.8633V64.3944L49.2421 64.0156Z" fill="#04277A"/>
<path d="M72.7256 70.0762L75.7559 70.455L77.2711 71.5913L77.6499 73.8641V79.5459L76.5135 82.1975L74.6196 82.955H71.5893L69.6953 81.0611V71.5913L70.8317 70.455L72.7256 70.0762Z" fill="#FEFEFE"/>
<path d="M7.95691 75H14.0175L15.9115 76.1364L17.0478 78.0303L16.669 81.4394L13.2599 82.5758H7.95691L7.57812 82.197V75.3788L7.95691 75Z" fill="#FCFDFE"/>
<path d="M7.95691 62.502H12.8812L15.5327 63.2595L15.9115 64.3959V67.4262L15.5327 68.5626L13.6387 69.3202H7.95691L7.57812 68.9414V62.8807L7.95691 62.502Z" fill="#FEFEFE"/>
<path d="M54.5451 55.6816H56.439V60.9847H48.8633V56.0604L54.5451 55.6816Z" fill="#05297B"/>
<path d="M100.003 70.4551H102.655L104.549 71.9702L104.928 74.6218L103.791 76.5157L103.034 76.8945H100.003L98.4882 75.7581L98.1094 72.349L100.003 70.4551Z" fill="#FEFEFE"/>
<path d="M97.3474 90.1523L104.923 90.5311L105.302 92.4251L104.166 93.5615H98.105L96.9686 93.1827L96.5898 90.9099L97.3474 90.1523Z" fill="#FEFEFE"/>
<path d="M128.409 70.0762L132.576 70.8338L133.333 71.9701V73.4853L132.576 73.8641H125.758L125.379 73.4853V71.5913L126.515 70.455L128.409 70.0762Z" fill="#FEFEFE"/>
<path d="M225.757 70.4551H230.682L231.818 71.2127L232.197 73.1066L231.06 73.8642H224.621L224.242 71.9702L225.757 70.4551Z" fill="#FEFEFE"/>
<path d="M182.956 78.7891H185.228L185.607 80.3042L184.85 82.1982L183.713 82.9558H180.304L178.789 81.0618L179.547 79.5466L182.956 78.7891Z" fill="#FBFDFE"/>
<path d="M193.182 69.6992H193.561L193.94 74.2447V81.0629L193.561 88.6387L191.667 89.0175L189.016 88.6387V88.26L193.182 87.8812V69.6992Z" fill="#11498C"/>
<path d="M298.864 85.2266L300.001 86.3629V87.1205H277.652L278.031 86.3629H288.258L298.864 86.7417V85.2266Z" fill="#1B619E"/>
<path d="M91.6675 81.4414L92.4251 81.8202L91.6675 83.3354L90.9099 85.9869L90.1523 85.6081L90.5311 82.5778L91.6675 81.4414Z" fill="#11498C"/>
<defs>
<linearGradient id="paint0_linear_2413_9008" x1="19.3164" y1="43.5609" x2="299.998" y2="43.5609" gradientUnits="userSpaceOnUse">
<stop stop-color="#57FBFD"/>
<stop offset="1" stop-color="#04277A"/>
</linearGradient>
</defs>
</svg>
