<svg width="99" height="120" viewBox="0 0 99 120" fill="none" xmlns="http://www.w3.org/2000/svg">
<path d="M31.8336 22.0039H34.3304L37.1393 22.6281L39.6361 23.7204L40.8845 24.5006L41.0406 24.9688L41.3527 32.9271L41.5087 41.9778L41.9769 42.4459L45.8781 44.3185L47.7507 45.4108L49.6233 46.8152L50.4036 47.4394L51.1838 48.2196L52.7443 50.0922L54.3048 52.4329L55.5532 54.9296L56.6455 58.2066L57.1137 60.5473L57.2697 61.6396V66.321L57.1137 67.7254L59.1423 63.044L61.327 57.8945L62.4194 55.0856L63.0436 53.8373V41.3536L62.4194 40.7294L62.5754 39.169L63.3557 38.3887L64.6041 37.7645L65.2283 37.6085L67.2569 37.4525H74.5913L77.4002 37.7645L78.8046 38.2327L79.8969 39.169L80.2091 40.1052L79.5849 41.3536V53.6812L81.4575 58.5187L83.9542 64.4484L85.6708 68.6616L90.3523 79.897L91.1325 82.2376V84.2662L90.5083 85.8267L89.1039 87.3872L87.8555 88.4795L85.5147 89.7279L82.2377 90.8202L79.5849 91.4444L74.7473 92.0685L70.2219 92.2246L66.6327 91.9125L63.0436 91.2883L59.9226 90.352L57.1137 89.2597L54.1488 87.6993L52.7443 86.4509L51.9641 84.7344L51.1838 85.5146L50.0915 86.4509L47.5947 87.6993L45.2539 88.4795L41.6648 89.2597L38.3877 89.7279L34.6425 90.0399H25.9038L18.2573 89.4158L13.4198 88.7916L8.42618 87.8553L5.92939 87.0751L3.74469 85.9827L2.80839 85.0465L2.65234 83.9542L3.43259 82.7058L4.83704 81.7695L6.86569 80.9893L10.6109 80.053L14.8242 79.2728L13.8879 77.5563L12.6395 75.3716L11.3911 72.4067L10.6109 69.754L10.1427 66.633V61.7956L10.6109 58.8308L11.3911 56.178L12.1714 54.4615L12.9516 52.901L14.6682 50.4043L16.6968 48.0636L18.4134 46.5031L20.5981 44.9427L23.0949 43.5382L25.7477 42.2899L25.9038 42.1338L26.2159 25.593L26.84 24.6567L27.9324 23.5644L30.1171 22.472L31.8336 22.0039Z" fill="#52A1A6"/>
<path d="M65.5397 39.4805H76.6192L77.8676 39.7926L77.7115 40.4167V53.8367L78.6478 56.3334L80.9886 61.9511L82.7051 66.1643L85.6701 73.3424L88.0108 78.9601L89.1032 81.6129L89.4153 83.1733L89.1032 84.4217L88.1669 85.8261L86.6064 87.0745L84.1096 88.3229L80.9886 89.2591L76.7752 90.0394L75.2147 90.1954H68.0365L64.6034 89.7273L61.0142 88.791L58.0493 87.6987L55.0843 86.1382L53.992 84.8898L53.8359 84.1096V82.5492L54.7722 79.1161L56.8009 73.6545L59.9219 65.8522L62.7308 59.1423L64.4473 55.2411L65.0715 54.1488V40.7288L64.4473 40.4167L64.2913 40.1047L64.7594 39.6365L65.5397 39.4805Z" fill="#FCFCFC"/>
<path d="M27.6202 26.3711L28.4004 26.5271L30.7412 27.6195L32.9259 28.0876H34.7985L37.4513 27.4634L39.1679 26.5271L39.636 26.6832L39.9481 41.8196L40.1042 43.068L41.3526 43.8482L44.9417 45.5647L47.2825 46.9692L49.3111 48.6857L50.7156 50.0901L52.2761 52.1187L53.8365 54.9275L54.7728 57.2682L55.397 59.6089L55.7091 61.3254V67.2551L55.0849 70.3761L53.8365 73.497L52.5882 75.9937L51.6519 77.3981L50.2474 79.2707L48.843 80.8311L48.3748 81.1432L47.2825 80.9872L46.3462 80.519L47.1264 79.7388L48.6869 78.3344L50.2474 76.3058L51.964 73.0288L52.7442 70.3761L53.2123 68.0354L53.3684 66.631V61.4814L53.2123 59.921L52.4321 60.7012L50.0914 62.8858L48.0627 64.1342L47.4385 64.2903L47.1264 66.4749L46.9704 66.787H46.1901L44.7857 65.8507L44.6296 65.6947H43.2252L39.7921 66.3189L35.7348 66.787H28.8686L25.5915 66.3189L23.2508 65.6947L21.2222 64.9144L20.2859 64.4463L19.9738 63.9782L20.1298 63.1979H21.2222L23.4069 63.9782L26.8399 64.7584L29.3367 65.0705H36.9832L41.0405 64.6024L44.3175 64.1342L43.6933 61.4814L42.9131 59.921L41.6647 58.2045L39.9481 56.3319L38.6997 55.2396V54.4594L39.48 53.6791H40.4163L41.9768 54.6154L43.5373 56.0198L44.6296 57.2682L46.3462 60.077L47.1264 61.9496L47.2825 62.5738L48.6869 62.1056L50.5595 60.7012L51.3398 59.6089L51.8079 58.3605V56.3319L51.0277 54.9275L49.7793 53.8352L47.2825 52.5868L44.3175 51.4945L41.3526 50.5582L37.7634 49.934L36.6711 49.778H29.9609L26.0597 50.4022L23.5629 51.1824L21.0661 52.1187L18.1012 53.8352L16.6967 55.2396L15.9165 56.8001L14.9802 59.921L14.512 62.8858L14.356 64.4463V66.3189L14.6681 68.9716L15.6044 72.0926L17.0088 74.7453L18.5693 76.7739L20.2859 78.4904L20.4419 79.1146H17.3209L16.5407 78.8025L15.4483 77.2421L14.0439 74.7453L12.7955 71.6244L12.0152 68.6595L11.7031 66.787V61.4814L12.1713 58.9847L13.1076 56.1759L14.356 53.6791L15.6044 51.8066L16.8528 50.2461L19.5056 47.5933L21.6903 46.0329L24.1871 44.6285L26.8399 43.3801L27.4641 43.068L27.6202 27.4634V26.3711Z" fill="#FCFCFC"/>
<path d="M60.7035 67.8789H61.9519L68.6621 68.8152L73.3436 69.1273L76.9327 68.9712L79.2734 68.5031L80.8339 67.8789H81.3021L83.6428 73.3405L85.6715 78.1779L87.388 82.3912L87.5441 83.6395L86.1396 84.8879L83.1747 86.4484L79.4295 87.6967L75.6843 88.3209L73.0315 88.477H70.8468L65.6971 88.1649L61.9519 87.5407L59.2991 86.7605L56.8023 85.5121L55.3978 84.4198L54.9297 83.6395L55.0857 82.0791L56.022 78.9582L57.4265 75.057L58.2067 73.1845L59.9233 69.4394L60.7035 67.8789Z" fill="#093A5B"/>
<path d="M67.2569 37.4512H74.5913L77.4002 37.7633L78.8046 38.2314L79.8969 39.1677L80.2091 40.104L79.5849 41.3523V53.68L81.4575 58.5174L83.9542 64.4471L85.6708 68.6604L90.3523 79.8957L91.1325 82.2364V84.265L90.5083 85.8254L89.1039 87.3859L87.8555 88.4782L85.5147 89.7266L82.2377 90.8189L79.5849 91.4431L74.7473 92.0673L70.2219 92.2233L66.6327 91.9112L63.0436 91.287L59.9226 90.3507L57.1137 89.2584L54.1488 87.698L52.7443 86.4496L51.9641 84.7331L51.1838 85.5133L50.0915 86.4496L47.5947 87.698L45.2539 88.4782L41.6648 89.2584L38.3877 89.7266L34.6425 90.0387H25.9038L18.2573 89.4145L13.4198 88.7903L8.42618 87.854L5.92939 87.0738L3.74469 85.9815L2.80839 85.0452L2.65234 83.9529L3.43259 82.7045L4.83704 81.7682L6.86569 80.988L10.6109 80.0517L13.7319 79.4275H15.2924L16.3847 80.8319L18.1013 82.5485L19.8178 83.9529L22.0025 85.3573L24.9675 86.7617L27.6203 87.5419L30.5852 88.0101H35.5788L39.168 87.5419L42.289 86.6056L44.9418 85.3573L47.9068 83.4847L49.6233 82.0803L50.4036 81.9243L51.652 82.8605L51.808 83.0166L52.5883 80.2078L53.0564 78.4913H53.3685L53.6806 76.7748L55.2411 72.5615L57.5818 66.6318L59.1423 63.0427L61.327 57.8932L62.4194 55.0844L63.0436 53.836V41.3523L62.4194 40.7281L62.5754 39.1677L63.3557 38.3874L64.6041 37.7633L65.2283 37.6072L67.2569 37.4512ZM65.5404 39.4798L64.448 39.7919L64.292 40.26L64.7601 40.7281H65.0722V54.1481L63.8238 56.6448L62.1073 60.546L59.9226 65.8515L58.05 70.5329L55.8653 76.1506L54.4608 80.0517L53.8367 82.5485V84.1089L54.1488 85.2012L55.5532 86.4496L58.8302 88.0101L62.5754 89.2584L66.4767 90.0387L68.0372 90.1947H75.2155L78.6486 89.7266L82.2377 88.9463L85.2026 87.854L87.0752 86.7617L88.3236 85.6694L89.2599 84.1089L89.416 82.8605L88.7918 80.6759L87.3873 77.555L84.8905 71.4692L82.7058 66.1636L80.2091 60.0778L78.0244 54.7723L77.7123 53.836V40.416L77.8683 39.7919L76.6199 39.4798H65.5404Z" fill="#0C3E5E"/>
<path d="M48.9965 0L51.0251 0.156046L52.5856 0.78023L54.1461 2.18464L55.2385 3.90115L55.5506 4.99347V7.49021L54.6143 9.36276L53.3659 10.9232L53.5219 11.8595L55.3945 15.6046L56.799 18.7255L57.2671 18.8816H58.5155L60.076 19.3497L61.4805 20.7541L62.1047 22.0025L62.4168 23.4069L64.9136 24.6553L67.8785 26.0597L68.5027 25.9036L69.5951 24.6553L71.1556 23.5629L72.0919 23.2508H75.3689L76.9294 23.875L78.1778 24.8113L79.4262 26.5278L80.0504 28.2443V30.2729L79.4262 31.8334L78.4899 33.0817L77.0854 34.3301L75.681 34.9543L74.9007 35.1103H72.56L70.8435 34.4862L69.283 33.2378L68.1906 31.6773L67.7225 30.2729L67.5664 28.0883L66.0059 27.7762L62.4168 25.9036L61.6365 25.5915L61.3244 26.2157L60.2321 27.152L58.9837 27.7762L57.7353 27.9322L56.6429 27.7762H55.2385L54.4582 28.5564L53.3659 29.8048L52.2735 30.8971L52.4296 32.1455L52.7417 32.9257V34.7982L52.2735 36.0466L50.8691 37.6071L49.7767 38.2313L48.9965 38.3873H47.592L46.3437 38.0752L45.0953 37.295L44.159 36.2027L43.5348 34.6422V32.9257L44.159 31.5213L45.2513 30.2729L46.8118 29.4927H50.713L51.0251 28.8685L53.2098 26.5278L53.5219 26.2157L53.3659 25.2794L52.8977 23.719V22.6267L53.5219 21.0662L54.1461 20.286L54.6143 19.9739L54.4582 19.0376L52.1175 13.8881L51.1812 12.1716L48.2162 12.0155L46.4997 11.3914L45.2513 10.4551L44.0029 9.05067L43.3787 7.64625L43.2227 6.70998V5.46161L43.5348 4.05719L44.315 2.65278L45.5634 1.24837L47.2799 0.312092L48.9965 0Z" fill="#51A0A5"/>
<path d="M31.8354 22.0039H34.3322L37.1411 22.6281L39.6379 23.7204L40.8863 24.5006L41.0424 24.9688L41.3545 32.9271L41.5105 41.9778L41.9787 42.4459L45.8799 44.3185L47.7525 45.4108L49.6251 46.8152L50.4054 47.4394L51.1856 48.2196L52.7461 50.0922L54.3066 52.4329L55.555 54.9296L56.6473 58.2066L57.1155 60.5473L57.2715 61.6396V66.321L57.1155 67.8814L56.6473 69.2858L55.3989 72.5628L53.8385 76.776L53.3703 78.4925H53.0582L52.9022 79.5849L51.9659 83.1739L50.7175 82.2376L49.7812 82.0816L48.5328 83.1739L46.192 84.7344L43.6952 86.1388L41.8226 86.919L39.1698 87.6992L35.5806 88.1674H30.587L27.6221 87.6992L24.9693 86.919L21.6922 85.3586L19.1954 83.6421L16.6986 81.3014L15.2942 79.7409V79.4288H14.5139L14.826 79.2728L13.8897 77.5563L12.6413 75.3716L11.3929 72.4067L10.6127 69.754L10.1445 66.633V61.7956L10.6127 58.8307L11.3929 56.178L12.1732 54.4615L12.9534 52.901L14.67 50.4043L16.6986 48.0636L18.4152 46.5031L20.5999 44.9427L23.0967 43.5382L25.7495 42.2899L25.9056 42.1338L26.2177 25.593L26.8419 24.6567L27.9342 23.5644L30.1189 22.472L31.8354 22.0039ZM27.6221 26.3732V30.2743L27.466 43.0701L22.4725 45.5668L21.068 46.5031L19.1954 47.9075L16.3865 50.7164L14.5139 53.3691L13.2655 55.8659L12.4853 57.8945L11.8611 60.3912L11.705 61.4835V66.7891L12.3292 70.0661L13.4216 73.343L14.67 75.9958L16.0744 78.1804L16.8547 78.9607L17.3228 79.1167V79.5849L19.6636 81.9255L21.8483 83.486L24.033 84.7344L26.2177 85.6707L28.7144 86.2948L30.7431 86.6069H35.4246L38.3895 86.2948L41.5105 85.3586L44.3194 84.1102L47.2844 82.2376L48.0646 81.6135V81.3014L49.313 80.3651L50.8735 78.4925L52.1219 76.776L53.3703 74.5914L54.6187 71.6265L55.3989 69.1298L55.711 67.2572V61.3275L55.0868 58.2066L53.9945 55.2417L52.5901 52.5889L51.1856 50.7164L49.4691 48.8438L47.9086 47.4394L45.5678 45.8789L40.2621 43.2262L40.1061 43.0701L39.95 41.8217L39.6379 26.6853L39.1698 26.5292L37.4532 27.4655L34.8004 28.0897H32.9278L30.7431 27.6216L28.2463 26.3732H27.6221Z" fill="#52A1A6"/>
<path d="M21.6903 96.5918H26.8399L28.2444 96.9039L29.4928 97.8402L30.273 99.4006L30.4291 100.337V104.55L29.9609 105.955L29.3367 106.891L28.0883 107.671L26.6839 107.983H22.1585L19.6617 107.515L18.5693 106.579L17.9451 105.174L17.7891 104.55V100.337L18.2572 98.4643L19.1935 97.372L20.598 96.7478L21.6903 96.5918Z" fill="#0C3D5D"/>
<path d="M77.0883 96.5918H81.9259L83.3303 96.9039L84.2666 97.5281L85.2029 98.9325L85.515 100.649V104.394L85.2029 105.799L84.2666 107.047L82.7061 107.827L81.4577 107.983H77.0883L74.7476 107.515L73.8113 106.891L73.1871 105.642L72.875 103.302V101.273L73.1871 99.0885L73.8113 97.8402L74.5915 97.216L75.6839 96.7478L77.0883 96.5918Z" fill="#0C3E5E"/>
<path d="M1.2484 92.8477L1.8726 93.0037L2.65285 93.4718L4.99359 95.6565L6.39804 97.2169L9.05088 99.8697L10.1432 101.118L11.5477 102.679L12.3279 103.459L12.484 93.1597L13.1082 93.0037H14.9808L15.1368 93.1597V106.424L14.6687 107.672L14.3566 107.984H13.4203L12.0158 106.892L8.89483 103.771V103.459H8.58273L7.49039 102.21L4.36939 99.0895V98.7774L3.74519 98.4653L3.27704 97.9972V97.6851H2.80889V107.828H0.15605L0 107.672V96.7488L0.15605 94.096L0.624199 93.3158L1.2484 92.8477Z" fill="#0C3D5D"/>
<path d="M49.1564 96.75H55.7104L56.9588 97.0621L57.583 97.3742L58.3633 98.6226L58.6754 100.027V104.552L58.2072 106.113L57.1149 107.361L56.0225 107.829L54.7741 107.985H50.0926L48.3761 107.673L46.9717 106.581L46.3475 105.489L46.1914 103.928L46.6596 102.368L47.4398 101.275L48.6882 100.651L49.4685 100.495H54.6181L54.7741 100.651V102.836L54.6181 102.992L49.9366 103.148L49.1564 103.46L49.0003 104.24L49.4685 104.864L50.5608 105.176H55.0862L55.7104 104.864L56.0225 104.084V100.495L55.8665 99.4028L54.306 99.2467H49.3124L49.0003 99.0907V96.906L49.1564 96.75Z" fill="#0C3E5E"/>
<path d="M87.8549 96.5918H96.4376L97.9981 96.7478L98.4662 97.372V98.3083L97.842 99.2446L96.1255 101.117L92.8485 104.394L92.3803 105.174L98.4662 105.33V107.827L98.3102 107.983H90.5077L88.0109 107.827L87.3867 107.203L87.5428 105.955L88.9472 104.394L92.2243 101.117L93.0045 100.181L93.7848 99.5567L88.167 99.4006L87.5428 99.2446L87.6988 96.7478L87.8549 96.5918Z" fill="#0D3F5F"/>
<path d="M39.4789 53.6816H40.4152L41.9757 54.6179L43.5362 56.0223L44.6285 57.2707L46.3451 60.0795L47.1253 61.9521L47.2814 63.0444L47.5935 63.3565L48.8419 63.5125L48.3737 63.9807L47.4374 64.2928L47.1253 66.4774L46.9693 66.7895H46.189L44.7846 65.8532L44.6285 65.6972H43.2241L39.791 66.3214L35.7337 66.7895H28.8675L25.5904 66.3214L23.2497 65.6972L21.2211 64.9169L20.2848 64.4488L19.9727 63.9807L20.1287 63.2004H21.2211L23.4058 63.9807L26.8388 64.7609L29.3356 65.073H36.9821L41.0394 64.6049L44.3164 64.1367L43.6922 61.4839L42.912 59.9235L41.6636 58.207L39.947 56.3344L38.6986 55.2421V54.4619L39.4789 53.6816Z" fill="#FBFCFC"/>
<path d="M18.2564 79.1152H20.7532L23.5621 80.9878L26.8391 82.7043L29.9601 83.6406L32.769 84.1087H36.5142L39.3231 83.6406L41.8199 82.8603L45.097 81.2999L46.0333 80.6757L47.2817 80.8317L48.0619 81.2999V81.612L45.8772 83.1724L43.0683 84.7329L40.1034 85.8252L38.3868 86.2933L35.4219 86.6054H30.7404L27.7754 86.1373L24.9665 85.201L22.3137 83.7966L20.129 82.2362L18.5685 80.8317L17.1641 79.4273V79.2713L18.2564 79.1152Z" fill="#08385A"/>
<path d="M34.6421 96.5918L35.2663 96.7478L35.4224 96.9039V105.33L37.451 104.55L39.1676 103.302L40.7281 101.429L42.4446 98.7764L43.3809 97.216L43.8491 96.7478L44.3172 96.5918H45.8777V97.6841L45.2535 99.7127L43.693 102.522L41.8204 104.55L40.572 105.642L38.5434 106.891L36.6708 107.671L36.0466 107.827H33.5498L33.0816 107.671L32.7695 106.891V96.7478L34.6421 96.5918Z" fill="#0B3C5D"/>
<path d="M65.5403 92.8477H66.3205L66.6326 93.94V96.5928H71.3141V99.2455L67.2568 99.4016L66.7887 99.5576L66.6326 106.268L66.4766 107.828H63.8237V99.4016L60.3906 99.2455V96.7488L62.1072 96.5928H63.6677L63.8237 93.6279L64.4479 93.0037L65.5403 92.8477Z" fill="#0C3E5E"/>
<path d="M72.8745 24.9688H74.7471L76.1515 25.4369L77.3999 26.5292L78.0241 27.4655L78.1802 28.0897V30.1183L77.712 31.2106L76.7757 32.3029L74.9031 33.2392L73.4987 33.3952L72.0943 33.0831L71.158 32.459L70.3777 31.8348L69.5975 30.4304L69.4414 29.8062V28.2457L70.2217 26.6853L71.314 25.5929L72.8745 24.9688Z" fill="#FCFCFC"/>
<path d="M48.6868 1.87305H49.9352L51.3396 2.18514L52.2759 2.80932L53.3683 4.05769L53.8364 5.15001V6.55443L53.2122 8.11488L52.1199 9.36325L51.0275 9.98744L50.4033 10.1435H48.0626L46.8142 9.5193L45.8779 8.73907L45.0977 7.17861V4.99397L45.8779 3.43351L46.9703 2.49723L48.6868 1.87305Z" fill="#FCFCFC"/>
<path d="M76.9318 99.2461H81.1451L82.3935 99.5582L82.7056 99.8703L82.8617 100.651V103.459L82.5496 104.708L81.7693 105.176L80.833 105.332H76.7757L75.9955 105.02L75.6834 104.552L75.5273 103.771V101.587L75.8394 99.7142L76.1515 99.4021L76.9318 99.2461Z" fill="#FBFCFC"/>
<path d="M21.8459 99.2461H26.0592L27.1515 99.5582L27.6197 100.182L27.7757 102.523L27.4636 104.552L26.8394 105.176L26.3713 105.332H21.8459L20.7535 104.864L20.4414 103.771V100.338L20.7535 99.5582L21.8459 99.2461Z" fill="#F2FCFB"/>
<path d="M44.1604 62.7305L44.4725 63.1986L44.6285 64.2909L44.0043 64.7591V65.2272H44.6285V65.5393L41.6636 66.0074L37.2942 66.6316L35.7337 66.7877H28.8675L25.5904 66.3195L23.2497 65.6953L21.2211 64.9151L20.2848 64.447L19.9727 63.9788L20.1287 63.1986H21.2211L23.4058 63.9788L26.8388 64.7591L29.3356 65.0712H36.9821L41.0394 64.603L44.3164 64.1349L44.1604 62.7305Z" fill="#FCFCFC"/>
<path d="M75.5282 75.0586H76.7766L78.3371 75.6828L79.1174 76.9311L79.2734 77.5553V78.6477L78.6492 79.896L77.5569 80.8323L76.1524 81.1444L74.904 80.8323L73.8117 79.896L73.1875 78.4916L73.3435 76.9311L74.2798 75.6828L75.5282 75.0586Z" fill="#FCFCFC"/>
<path d="M40.2613 111.574H41.1976L41.9779 112.823L44.0065 117.036L44.3186 117.816L44.4747 111.73L45.2549 111.574L45.411 111.73V119.689H44.1626L43.3823 118.44L42.6021 116.568L41.3537 114.071L41.0416 113.915V119.689H39.9492V114.227L40.1053 111.73L40.2613 111.574Z" fill="#0F2A3F"/>
<path d="M57.2667 20.9102L58.6712 21.0662L59.7635 22.0025L60.0756 22.6267V24.0311L59.4514 24.9674L58.5151 25.7476L57.4228 25.9036L56.0183 25.4355L55.2381 24.4992L55.082 24.0311V22.6267L55.8623 21.5343L57.2667 20.9102Z" fill="#FBFCFC"/>
<path d="M79.1169 100.025H80.0532L81.3016 100.806L81.7697 101.742L81.6137 102.834L81.1455 103.614L79.7411 104.239L78.9608 104.551H79.429L79.8971 105.019L80.8334 105.175V105.331H76.7761L75.9959 105.019L75.8398 104.551H78.1806L77.4003 103.77L76.7761 102.522L76.9322 101.43L77.4003 100.65L79.1169 100.025Z" fill="#F2FCFB"/>
<path d="M47.7513 31.3672L48.9997 31.5232L49.936 32.1474L50.7162 33.0837V34.4881L50.092 35.4244L49.1558 36.2046L48.6876 36.3607H47.5953L46.5029 35.7365L45.8787 34.9562L45.7227 34.6442V33.0837L46.815 31.8353L47.7513 31.3672Z" fill="#FBFCFC"/>
<path d="M21.8459 99.2461H26.0592L27.1515 99.5582L27.6197 100.182L27.7757 102.523L27.4636 104.552L26.8394 105.176H24.8108L24.4987 104.552L25.9031 103.927L26.6834 103.303L26.9955 102.835L27.3076 103.459V102.211L26.9955 101.899L26.5273 101.275L25.9031 100.651L25.1229 100.338H23.2503L22.158 100.494L21.6898 101.119L21.5338 102.679L22.0019 103.615V104.084L22.6261 104.24L22.7822 104.708L20.9096 105.02L20.4414 103.771V100.338L20.7535 99.5582L21.8459 99.2461Z" fill="#FBFCFC"/>
<path d="M33.5508 111.574H38.0762L38.2323 111.73V112.51H34.6431V115.007H38.0762V115.944L34.7992 116.1L34.6431 118.752H38.2323V119.689H33.5508V111.574Z" fill="#071429"/>
<path d="M14.6685 111.416H15.7608L17.1653 111.884L17.3213 112.508L16.6971 112.664L16.0729 112.508H14.3564L13.5761 113.133V114.069L14.3564 114.693L16.8532 115.785L17.4774 116.566L17.7895 117.346L17.6334 118.282L16.6971 119.374L15.1366 119.842H13.4201L12.3277 119.686L12.0156 118.906L12.1717 118.75H15.4487L16.385 118.282V116.878L14.6685 116.097L13.108 115.317L12.3277 114.381V113.289L12.7959 112.352L14.0443 111.572L14.6685 111.416Z" fill="#112D42"/>
<path d="M54.1523 111.729H59.1459L58.9899 112.509H57.2733V118.751H59.1459V119.687H54.3084L54.1523 119.375L54.4644 118.595H55.8689V112.665L54.3084 112.509L54.1523 111.729Z" fill="#1C546E"/>
<path d="M55.7099 102.211L56.022 102.679L56.1781 102.991V104.083L55.7099 105.02L55.0857 105.332H50.5603L49.3119 104.864L48.8438 104.24L49.1558 103.303L49.9361 102.991L55.2418 102.835H55.5539L55.7099 102.211Z" fill="#FCFCFC"/>
<path d="M68.3514 111.574H70.6921L73.1889 111.73L73.0329 112.354L72.7208 112.51H71.3163V118.596H72.8768L73.1889 119.533L73.0329 119.689H68.3514L68.1953 119.533V118.752L68.8195 118.596H69.9119L70.0679 112.667L68.3514 112.51L68.1953 111.73L68.3514 111.574Z" fill="#184F6B"/>
<path d="M77.871 111.416H78.9633L80.3678 111.884L80.5238 112.508L79.8996 112.82L79.1194 112.508H77.871L76.7786 113.133L76.3105 113.757L76.1544 114.537V117.034L76.7786 118.282L77.5589 118.75H80.5238L80.3678 119.53L79.7436 119.842H77.2468L75.9984 119.218L75.0621 117.814L74.75 116.722V115.005L75.2181 113.289L76.1544 112.04L77.871 111.416Z" fill="#133247"/>
<path d="M26.5271 111.729H31.3647V112.509L31.2086 112.665L29.4921 112.509V118.751H31.3647L31.5207 119.531L31.3647 119.687H26.6832L26.3711 118.907L26.5271 118.751L28.2437 118.595V112.821L28.0876 112.665L26.5271 112.509V111.729Z" fill="#0F263A"/>
<path d="M44.1602 62.7305L44.4723 63.1986L44.6283 64.2909L44.0041 64.7591V65.2272H44.6283V65.5393L41.6634 66.0074L37.294 66.6316H35.8895L36.5137 66.3195H38.0742V66.0074L36.8258 65.8514L36.0456 66.1635L34.329 66.0074H32.3004L29.0233 65.3832L25.9023 64.9151V64.7591L27.931 64.9151L29.3354 65.0712H36.9819L41.0392 64.603L44.3162 64.1349L44.1602 62.7305Z" fill="#F2FCFB"/>
<path d="M61.6365 111.574H66.0059V112.51L65.6938 112.667L62.7289 112.51V115.163H65.8499L66.0059 115.944L65.8499 116.1H62.7289L62.5728 119.689H61.4805V111.73L61.6365 111.574Z" fill="#10415E"/>
<path d="M22.1562 111.416L23.8727 111.572L24.4969 111.884V112.976L23.4045 112.508H21.8441L20.7517 113.133L20.2836 114.537V116.566L20.9078 118.438H21.2199V118.75H23.7166L24.4969 118.594L24.6529 119.062L24.1848 119.842H21.688L20.4396 119.374L19.5033 118.126L19.0352 117.034V114.537L19.6594 112.82L20.7517 111.884L22.1562 111.416Z" fill="#0F2A3F"/>
<path d="M46.8164 111.729H52.9023L52.7463 112.509H50.4055V119.687H49.1572L49.0011 112.665L46.9725 112.509L46.8164 111.729Z" fill="#29667B"/>
<path d="M33.5499 24.3418H35.4225L37.139 24.8099L37.9193 25.2781L37.7632 25.7462L35.5785 26.3704H32.3015L30.2728 25.7462L29.8047 25.2781L31.2091 24.6539L33.5499 24.3418Z" fill="#FBFCFC"/>
<path d="M40.2613 111.574H41.1976L41.9779 112.823L42.7581 114.383L42.6021 114.695L41.9779 114.227H41.5097L41.0416 113.915V119.689H39.9492V114.227L40.1053 111.73L40.2613 111.574Z" fill="#091E35"/>
<path d="M82.5529 81.1445H83.6452L84.7376 82.0808L84.8936 83.4852L84.4255 84.2655L83.1771 84.8896L82.0847 84.5775L81.1484 83.4852V82.5489L81.7726 81.6127L82.5529 81.1445Z" fill="#FCFCFC"/>
<path d="M78.8068 70.5332L80.2112 70.6892L80.9915 71.4695L81.1475 72.7178L80.5233 73.8102L79.2749 74.2783L78.1826 73.8102L77.5584 73.0299L77.4023 72.0937L77.7144 71.1574L78.8068 70.5332Z" fill="#FCFCFC"/>
<path d="M41.0394 113.912L41.6636 114.224L42.2878 115.473L42.7559 116.565L43.068 117.501L41.8196 117.345L41.5075 117.813L41.6636 119.218L41.0394 119.998H39.1668L38.2305 119.53L38.3865 119.062L39.3228 118.906L39.791 117.501H39.947V119.686H41.0394V113.912Z" fill="#EEF9F8"/>
<path d="M79.1152 100.65L80.2075 100.806L80.9878 101.587L80.8317 102.523L79.8954 103.147L78.647 103.459L77.8668 103.147L77.5547 102.055L77.8668 101.275L79.1152 100.65Z" fill="#FDFDFD"/>
<path d="M50.0892 99.0879H54.3026L55.8631 99.4L56.1752 100.492V102.989L55.707 102.677L55.551 103.145L54.7707 102.833L54.6147 100.648L54.3026 100.18V99.4L52.2739 99.556L49.6211 99.4L50.0892 99.0879Z" fill="#FBFCFC"/>
<path d="M35.27 46.0332L36.6745 46.1892V47.4376L36.3624 47.7497L34.9579 47.9058H32.9293L32.6172 47.2816V46.3453L35.27 46.0332Z" fill="#52A1A6"/>
<path d="M44.1618 62.7305L44.4739 63.1986L44.6299 64.2909L44.0057 64.7591V65.2272H44.6299V65.5393L41.665 66.0074H39.3242V65.3832L39.9484 65.2272L40.1045 64.7591L43.8497 64.1349H44.3178L44.1618 62.7305Z" fill="#F2FCFB"/>
<path d="M71.0025 111.885H72.8751L72.7191 112.509L71.1586 112.665L70.8465 113.289V112.665L70.5344 112.977L71.0025 113.601H70.6904L71.0025 114.069V117.815H70.6904L71.1586 118.907L69.9102 119.063L70.0662 118.751V112.197L71.0025 112.041V111.885Z" fill="#071429"/>
<path d="M53.055 78.0234L53.211 78.4916L51.9626 83.173L50.7142 82.2367L50.2461 81.9246L50.4021 81.3004L51.9626 79.5839L53.055 78.0234Z" fill="#F2FCFB"/>
<path d="M33.5508 112.197L34.175 112.509L34.331 113.446L34.175 114.694L34.331 116.411V118.127H34.0189L34.175 119.063L34.0189 119.375L38.0762 119.531V118.751H38.2323V119.687H33.5508V112.197Z" fill="#245F76"/>
<path d="M46.0344 111.574L46.8146 111.73L46.9707 112.354L48.9993 112.51L48.5312 112.823L47.5949 113.135L46.5025 112.979L46.1904 113.135L46.0344 113.603L45.8783 117.192L45.7223 117.348L45.5662 119.689H45.4102V111.73L46.0344 111.574Z" fill="#F2FCFB"/>
<path d="M54.1523 111.729H59.1459L58.9899 112.509L57.2733 112.665L57.1173 115.63L56.9612 116.722H56.8052L56.6491 114.537L56.8052 112.977V112.665L54.3084 112.509L54.1523 111.729Z" fill="#07182F"/>
<path d="M46.8164 111.729H52.9023L52.7463 112.509L50.4055 112.665L50.2495 112.977H49.9374L49.6253 112.665L46.9725 112.509L46.8164 111.729Z" fill="#07192F"/>
<path d="M44.6326 111.574H45.2568V118.128L45.1008 118.596L45.2568 119.22H44.9447L44.6326 118.44L44.4766 111.73L44.6326 111.574Z" fill="#08172C"/>
<path d="M68.8203 54.9277H75.2184V55.3959L74.4381 55.708L73.5018 55.864H71.005L69.1324 55.2398L68.8203 54.9277Z" fill="#52A1A6"/>
<path d="M34.3314 116.1H34.4875L34.6435 118.752H38.0766V119.533H34.0193L33.8633 118.752L34.0193 118.128H34.3314L34.1754 116.256L34.3314 116.1Z" fill="#071930"/>
<path d="M49.9367 113.758H50.0927L50.2488 116.255V119.532L50.0927 119.688H49.3125V116.255L49.6246 115.942L49.7806 115.318L49.9367 113.758Z" fill="#072E4C"/>
<path d="M73.8131 54.459L76.622 54.615L77.0901 54.9271H76.778L76.622 55.3953L74.7494 55.8634L74.4373 55.5513L75.2175 55.3953V54.9271L73.1889 55.0832H69.1316L69.9119 55.3953L69.2877 55.5513L68.1953 54.9271V54.7711L70.8482 54.615H73.8131V54.459Z" fill="#F2FCFB"/>
<path d="M68.3514 111.574H70.6921L73.1889 111.73L72.8768 112.354L72.7208 112.042L72.2526 112.198L70.224 112.354V117.348H70.0679V112.667L68.3514 112.51L68.1953 111.73L68.3514 111.574Z" fill="#246077"/>
<path d="M51.9648 51.9629L52.589 52.5871L53.9935 55.2399L55.0858 58.2047L54.9298 58.8289L54.3056 57.2685L53.6814 56.6443L52.9011 54.6157L52.1209 53.2113L51.9648 51.9629Z" fill="#F2FCFB"/>
<path d="M57.1127 112.666H57.2687V118.752H58.9853V119.532H57.5808V119.22L57.1127 119.376L56.6445 118.752V116.879L56.8006 116.723L56.9566 115.631L57.1127 112.666Z" fill="#1A3E51"/>
<path d="M17.4762 115.941L18.2564 116.566H19.0367L19.8169 118.438L20.5972 119.53L19.973 119.374L19.0367 118.282L18.4125 118.126L17.4762 118.438L17.6322 117.346L17.1641 116.097L17.4762 115.941Z" fill="#EDF9F8"/>
<path d="M61.6365 111.574H66.0059V112.51L65.6938 112.667L63.041 112.51L62.7289 112.198L62.8849 112.042H64.4454V112.198L65.8499 112.354V111.886L62.4168 112.042L62.1047 112.51L61.9486 112.198L61.7926 112.51V119.689H61.4805V111.73L61.6365 111.574Z" fill="#337586"/>
<path d="M45.2525 111.729H45.4086V119.687H44.1602L44.7844 119.375L44.3162 118.751L44.1602 117.814H44.3162L44.4723 112.041H44.6283L44.7844 118.438L44.9404 119.219V118.595L45.0965 118.126L45.2525 111.729Z" fill="#2C6C7F"/>
<path d="M52.9001 58.8301L53.5243 58.9861L53.8364 59.6103V64.2917L53.6804 66.6324H53.5243L53.3683 61.4829L53.2122 59.9224L51.4957 61.6389L51.1836 61.4829L52.588 60.0784L52.9001 58.8301Z" fill="#F2FCFB"/>
<path d="M28.3997 112.82H28.5558L28.7118 118.594L28.8679 119.218L28.0876 119.374V119.686H26.6832L26.3711 118.906L26.5271 118.75L28.2437 118.594L28.3997 112.82Z" fill="#0F3C58"/>
<path d="M41.665 64.7598L42.4452 64.9158L42.2892 65.696L41.665 66.0081H39.3242V65.3839L39.9484 65.0719L41.1968 64.9158L41.665 64.7598Z" fill="#FCFCFC"/>
<path d="M14.9805 76.1504L15.6047 76.7746V77.0867L16.0728 77.2427L16.8531 78.4911L18.2575 78.8032L18.5696 78.6471V78.9592L18.8817 78.8032L19.1938 77.8669L19.3499 77.5548L20.4422 78.8032V79.1153H17.3212L16.541 78.8032L15.4486 77.2427L14.9805 76.4625V76.1504Z" fill="#F2FCFB"/>
<path d="M34.8008 115.004H38.0778V115.94H34.9568L35.2689 115.628L34.8008 115.316V115.004Z" fill="#2E6E81"/>
<path d="M34.7978 45.8789H37.1385V46.8152L36.6704 47.7515L35.8901 48.0635L34.1736 48.2196L32.7691 48.0635L32.457 47.5954V46.191L34.7978 45.8789ZM35.2659 46.035L32.6131 46.347L32.7691 47.7515L32.9252 47.9075H34.9538L36.3583 47.7515L36.6704 47.4394V46.191L35.2659 46.035Z" fill="#F2FCFB"/>
<path d="M28.2474 112.82H28.4034V118.594L28.2474 118.75L26.2188 118.906V118.438L26.6869 118.282V118.594L27.6232 117.814L28.0913 116.878L28.2474 112.82Z" fill="#F2FCFB"/>
<path d="M29.1785 118.75H31.3632L31.5192 119.53L31.3632 119.686H28.2422V119.53L29.1785 119.374V118.75Z" fill="#1B4154"/>
<path d="M39.791 117.504H39.947V119.689L41.1954 119.533L41.0394 120.001H39.1668L38.2305 119.533L38.3865 119.064L39.3228 118.908L39.791 117.504Z" fill="#F2FCFB"/>
<path d="M49.4638 100.494H54.6135L54.7695 101.118L54.3014 101.274L53.6772 100.962H48.6836V100.65L49.4638 100.494Z" fill="#113148"/>
<path d="M40.2613 111.574H41.1976L40.7295 111.886H40.2613L40.4174 112.823L40.2613 118.44L40.1053 119.689H39.9492V114.227L40.1053 111.73L40.2613 111.574Z" fill="#2A697D"/>
<path d="M26.3711 66.1641H27.4634L29.4921 66.4762H31.6768V66.3201H32.7691V66.4762H35.578L35.7341 66.7882H28.8679L26.3711 66.4762V66.1641Z" fill="#F2FCFB"/>
<path d="M50.0892 99.0879H54.3026L55.551 99.2439V99.4H54.7707L54.6147 100.492L54.3026 100.18V99.4L52.2739 99.556L49.6211 99.4L50.0892 99.0879Z" fill="#F2FCFB"/>
<path d="M88.9499 86.6055H89.4181V87.0736L88.3257 88.1659L87.0773 88.9462L86.4531 88.7901H86.7652L87.0773 88.1659H87.3894L87.7015 87.5417L88.9499 86.6055Z" fill="#0E293F"/>
<path d="M24.0318 118.596L24.656 118.752L24.3439 119.688L24.1878 119.844H23.0955L23.2515 119.22H22.1592L21.3789 118.908L21.8471 118.752H23.7197L24.0318 118.596Z" fill="#1C4C64"/>
<path d="M46.8164 111.729H52.9023L52.7463 112.509H51.3418V112.353L52.2781 112.197L51.6539 112.041L49.6253 111.885V112.197H49.1572V111.885H46.9725L46.8164 112.353V111.729Z" fill="#0F4261"/>
<path d="M70.0679 117.346H70.224V118.75L69.7558 119.374L68.9756 119.686L68.1953 119.53V118.75L68.8195 118.594H69.9119L70.0679 117.346Z" fill="#0F2E46"/>
<path d="M34.4879 112.666H34.6439L34.8 115.007L35.2681 115.475L35.8923 115.787L34.8 116.099L34.6439 118.44H34.4879L34.3318 116.099L34.1758 115.943V115.163H34.4879V112.666Z" fill="#082843"/>
<path d="M44.3191 115.318H44.4752V117.971L44.007 117.503L43.3828 115.943L44.007 115.786V115.474L44.3191 115.318Z" fill="#F2FCFB"/>
<path d="M61.7967 116.566H61.9527L62.2648 118.127L62.4209 118.283V119.219L62.1088 119.531H61.6406V117.191L61.7967 116.566Z" fill="#07182F"/>
<path d="M62.2656 111.885H65.8548V112.353H63.6701V112.197H62.8898L63.0459 112.509L62.4217 112.665L62.2656 111.885Z" fill="#071429"/>
<path d="M33.5508 111.574H38.0762L38.2323 111.73V112.51H36.6718V112.354H38.0762V111.886H34.175V112.198H33.5508V111.574Z" fill="#114563"/>
<path d="M56.0218 100.494H56.1779V102.991L55.7097 102.679L55.5537 103.147L54.7734 102.835L55.5537 101.899L56.0218 100.494Z" fill="#F2FCFB"/>
<path d="M13.7344 114.381L16.8554 115.785L17.3235 116.409L16.6993 116.253L15.2949 115.629L14.0465 115.005L13.7344 114.381Z" fill="#205A72"/>
<path d="M40.8867 112.82L41.3549 113.444V113.913H41.0428V119.686H40.8867V112.82Z" fill="#52A1A6"/>
<path d="M20.4414 100.338H20.5975L20.7535 101.742L21.0656 101.898L21.2217 102.679L20.7535 103.147L21.3777 103.459L21.2217 103.927V103.615L20.4414 103.771V100.338Z" fill="#F2FCFB"/>
<path d="M47.285 63.1992L48.8455 63.5113L48.3773 63.9794L47.441 64.2915L47.285 65.3839H47.1289V63.3553L47.285 63.1992Z" fill="#F2FCFB"/>
<path d="M51.3396 81.6113L52.1199 81.7674L51.9638 83.1718L51.1836 82.5476V81.7674L51.3396 81.6113Z" fill="#F9FCFC"/>
<path d="M71.1592 112.508L71.3152 112.82L71.1592 116.409H71.0031L70.8471 114.224L70.691 113.6L70.3789 112.82L71.1592 112.508Z" fill="#0B3C5D"/>
<path d="M54.1523 111.729H59.1459L58.9899 112.353V111.885L56.6491 112.041L56.0249 112.197V111.885H54.3084L54.1523 112.197V111.729Z" fill="#134866"/>
<path d="M62.8861 111.105L65.2269 111.262L65.8511 111.73H63.0422L62.418 111.262L62.8861 111.105Z" fill="#F2FCFB"/>
<path d="M1.2492 92.8477L1.8734 93.0037L2.4976 93.3158L2.34155 93.6279H0.78105L0.625 93.94L0.78105 93.1597L1.2492 92.8477Z" fill="#112F44"/>
<path d="M57.4252 65.541L57.8933 65.6971L57.7373 66.6333L57.1131 67.8817H56.957L57.1131 66.3212L57.4252 65.541Z" fill="#F7FCFC"/>
<path d="M43.2264 118.438H43.5385L44.1627 119.53L45.4111 119.686V119.998L44.0066 119.842L43.2264 119.53L43.0703 119.062L43.2264 118.438Z" fill="#F2FCFB"/>
<path d="M24.9667 101.742L25.2788 101.898V102.21L24.4986 102.678H23.4062L23.7183 102.054L24.8107 101.898L24.9667 101.742Z" fill="#FCFCFC"/>
<path d="M56.9566 113.133H57.1127V115.63L56.9566 116.722H56.8006L56.6445 114.537L56.9566 113.133Z" fill="#071429"/>
<path d="M86.1406 71.002H86.6088L87.389 72.8745L87.233 73.4987L86.7648 72.8745L86.6088 71.7822L86.2967 71.6261L86.1406 71.002Z" fill="#123045"/>
<path d="M49.9369 116.566H50.0929V119.531H49.4688V118.751L49.7808 118.283L49.9369 116.566Z" fill="#071429"/>
<path d="M33.5508 111.262H34.6431L34.7992 111.418L37.6081 111.574V111.73H34.0189L33.5508 111.574V111.262Z" fill="#F2FCFB"/>
<path d="M50.4062 114.227L50.8744 114.539L50.7183 115.943L50.8744 116.723L50.4062 116.879V114.227Z" fill="#F2FCFB"/>
<path d="M62.8904 112.039H64.4509V112.195L65.8554 112.351L65.6993 112.663L63.0465 112.507L62.7344 112.195L62.8904 112.039Z" fill="#0A3859"/>
<path d="M54.6168 118.906H55.7091L55.8652 119.374L55.5531 119.53H54.4607L54.3047 119.062L54.6168 118.906Z" fill="#07162B"/>
<path d="M13.5779 113.602L14.0461 113.914V114.226H14.3582V114.538L15.2945 114.85L15.4505 115.162L14.0461 114.694L13.4219 114.07L13.5779 113.602Z" fill="#F2FCFB"/>
<path d="M88.324 75.8379H88.6361L89.2603 77.2423V78.0225L88.6361 77.2423L88.168 75.9939L88.324 75.8379Z" fill="#122F44"/>
<path d="M12.3281 118.906H13.2644L13.8886 119.53H12.4842L12.3281 118.906Z" fill="#071429"/>
<path d="M72.4088 118.596L73.033 118.752L73.189 119.532L73.033 119.688H71.3164V119.532L72.7209 119.376L72.8769 118.908H71.3164V118.752L72.4088 118.596Z" fill="#2E6E81"/>
<path d="M36.5156 115.162H38.0761L37.9201 115.786H36.8277V115.474L36.5156 115.162Z" fill="#07182F"/>
<path d="M71.0039 111.885H72.8765L72.7205 112.509H71.316L71.6281 112.197L71.0039 111.885Z" fill="#07182F"/>
<path d="M15.4503 118.75L15.7624 118.906L14.9822 119.218L13.5777 119.374L13.2656 118.906L15.4503 118.75Z" fill="#266379"/>
<path d="M23.7188 65.541L26.2155 66.0092V66.3212L24.8111 66.1652L23.7188 65.8531V65.541Z" fill="#F2FCFB"/>
<path d="M68.1953 111.729L68.9756 111.885L69.9119 112.197V112.353H68.1953V111.729Z" fill="#11293C"/>
<path d="M51.964 111.729H52.9003L52.7443 112.509H51.3398V112.353L52.2761 112.197L51.6519 112.041H51.964V111.729Z" fill="#154A67"/>
<path d="M71.3164 118.906H72.8769V119.374H71.6285L71.3164 118.906Z" fill="#071429"/>
<path d="M27.4644 100.182H27.6205L27.7765 102.522H27.6205V101.742H27.3084L27.1523 100.65H27.4644V100.182Z" fill="#F2FCFB"/>
</svg>
