<svg width="88" height="100" viewBox="0 0 88 100" fill="none" xmlns="http://www.w3.org/2000/svg">
<path d="M44.9043 50.1821H45.0864L45.147 59.5875L45.2077 61.1045L45.3291 61.5899L45.6325 61.7113L60.499 61.7719H83.7999L83.8606 61.8326L83.9213 63.7137V73.8472L83.7393 74.1506L83.1325 74.5147L81.6762 75.2428L80.5232 75.8496L78.9456 76.6991L77.8533 77.3059L76.5184 78.0341L75.4262 78.6409L74.3946 79.187L73.0597 79.9151L68.5694 82.403L67.7198 82.8884L66.749 83.4346L66.0208 83.7986L65.414 84.1627L62.6228 85.6797L59.7708 87.2574L58.7999 87.8035L57.647 88.4103L56.7368 88.9564L55.1592 89.8059L54.3097 90.2914L52.8533 91.0802L51.5791 91.8083L50.1228 92.5972L49.0305 93.204L47.8776 93.8714L46.5427 94.5996L45.3898 95.2064L44.1155 95.8132L43.7514 95.8739L43.3266 95.6918L42.1131 95.0244L41.5063 94.721L39.0184 93.2647L37.2587 92.2938L36.5305 91.869L35.5597 91.3836L34.164 90.5947L33.1325 90.0486L30.4019 88.5316L29.0669 87.8035L27.6713 87.0147L26.5184 86.4079L25.5475 85.8617L24.2126 85.1336L23.1203 84.5268L21.7854 83.7986L20.3898 83.0098L18.9334 82.221L17.5378 81.4321L16.1422 80.704L14.7465 79.9151L13.2902 79.1263L10.5597 77.6093L9.2247 76.8812L7.82907 76.0923L6.97956 75.6676L5.88733 75.0608L4.43101 74.3326L4.06694 74.0899L3.94558 73.8472L3.8849 73.1797L3.82422 61.8933V56.4321H3.8849L3.94558 58.1312L4.00626 61.7113H13.0475L13.1082 61.6506L13.2296 53.1554L13.2902 53.0948L14.4432 53.0341H35.7417L36.8946 52.9734L37.6228 52.7914L38.897 52.3059L40.1106 51.8812L42.7198 50.971L44.3582 50.3642L44.9043 50.1821Z" fill="#575758"/>
<path d="M43.7501 4.12622L44.0535 4.1869L44.903 4.7937L46.5414 5.76457L47.9977 6.61408L49.3326 7.40292L51.0317 8.37379L52.488 9.22331L54.8545 10.6189L55.7647 11.1651L57.5244 12.1966L59.1627 13.1675L61.1045 14.3204L64.0171 16.0194L64.8666 16.5049L65.7768 17.051L66.6263 17.5364L67.5365 18.0825L68.9928 18.932L71.0559 20.1456L72.2695 20.8738L73.4224 21.5413L74.8788 22.3908L76.4564 23.301L77.2453 23.7864L78.7016 24.6359L80.2186 25.4854L81.6749 26.335L83.1919 27.1238L83.5559 27.4272L83.738 27.7913V33.9806L83.6773 53.034L83.6166 53.5801H54.9152V52.1845L54.9758 49.5146L55.2186 42.6578L55.4006 35.8617L55.522 32.4636L55.5826 30.1578V28.7015L55.4613 28.4587L55.2186 28.3374H45.0851L44.9637 28.3981L44.903 28.7621V32.0995L44.6603 32.0388L43.9928 31.6748L43.204 31.1893L41.4443 30.3398L39.988 29.6723L38.471 28.9442L37.5001 28.5194L36.954 28.3374L36.5292 28.2767H33.7987L28.7622 28.3374H8.55594L5.0972 28.2767L3.64089 28.1553L3.51953 27.7306L3.82293 27.3665L4.67244 26.8811L6.43215 25.8495L7.64574 25.1214L9.22341 24.2112L10.4977 23.483L11.8933 22.6942L13.3496 21.8447L14.2598 21.2985L20.0851 17.9005L20.9953 17.3544L22.5729 16.4442L24.2113 15.4733L25.4855 14.7452L26.0923 14.3811L27.4273 13.5922L28.8836 12.7427L30.0365 12.0752L30.9467 11.5291L32.5244 10.6189L33.8593 9.8301L35.437 8.91991L37.0754 7.94904L38.4103 7.1602L39.6239 6.43205L41.2622 5.46117L42.4152 4.7937L43.7501 4.12622Z" fill="#575758"/>
<path d="M43.4469 22.5728H45.6314L47.1484 22.7548L48.6047 22.9975L50.3037 23.3616L52.1848 23.9077L54.43 24.7572L56.0076 25.4854L57.3426 26.2135L58.4348 27.0024L59.2236 27.6092L60.0125 28.2766L60.4979 28.7014L61.1047 29.2475L61.7722 29.9757L62.3183 30.5825L63.0465 31.5533L63.896 32.7669L64.4421 33.6771L64.9275 34.5266L65.595 35.9829L66.1411 37.4393L66.6266 38.8956L66.93 40.1698L67.1727 41.5048L67.4154 43.5072L67.4761 44.2354L67.5368 47.0266L67.4761 48.7863L67.3547 49.9999L67.1727 51.3956L66.7479 53.3373L66.6266 53.4587L66.2018 53.5194L55.1581 53.58V52.1844L55.2188 49.5145L55.4615 42.6577L55.6435 35.8616L55.7649 32.4635L55.8256 30.1577V28.7014L55.7042 28.4587L55.4615 28.3373H45.328L45.2067 28.398L45.146 28.7621V32.0995L44.9033 32.0388L44.2358 31.6747L43.4469 31.1893L41.6872 30.3397L40.2309 29.6723L38.7139 28.9441L37.7431 28.5194L37.1969 28.3373L36.7722 28.2766H29.5513L29.3086 28.1553L29.794 27.9126L30.4615 27.4271L31.1897 26.8203L32.1605 26.2742L33.0707 25.7888L34.0416 25.3033L35.1945 24.7572L36.8935 24.0291L38.2892 23.6043L40.2309 23.1189L42.5367 22.6941L43.4469 22.5728Z" fill="#EE562C"/>
<path d="M44.9022 50.1821H45.0843L45.1449 59.5875L45.2056 61.1045L45.327 61.5899L45.6304 61.7113L60.4969 61.7719L61.7712 61.8326L61.5891 61.954L60.9216 62.3181L60.3148 62.8642L59.4653 63.5923L58.7372 64.1991L57.7056 64.8666L56.1886 65.6554L53.8828 66.6263L51.759 67.4151L49.9993 67.9613L48.1182 68.386L46.7833 68.5681L45.9945 68.6287H44.2954L42.3537 68.4467L40.776 68.204L39.5017 67.9006L37.8634 67.4151L36.4678 66.9297L34.8294 66.2622L33.8585 65.7768L32.7663 65.17L31.6741 64.4418L30.7032 63.7137L30.0357 63.1676L29.2469 62.4394L28.0333 61.2258L27.6085 60.7404L26.8197 59.7695L25.3634 57.8278L24.5746 56.4928L23.6037 54.7938L22.9969 53.7622L22.6328 53.1554V53.0948L23.8464 53.0341H35.7396L36.8925 52.9734L37.6207 52.7914L38.8949 52.3059L40.1085 51.8812L42.7178 50.971L44.3561 50.3642L44.9022 50.1821Z" fill="#EE562C"/>
<path d="M43.75 0L44.1141 0.0606796L44.8422 0.485437L45.8738 1.09223L47.2694 1.88107L48.7864 2.79126L53.1553 5.33981L54.915 6.37136L57.8883 8.13107L59.466 9.04126L60.3762 9.58738L63.2888 11.2864L64.8665 12.1966L66.6262 13.2282L73.0583 16.9903L75.5461 18.4466L78.7621 20.3277L80.2791 21.2379L81.8568 22.1481L83.5558 23.1189L86.2257 24.6966L87.2573 25.3641L87.5 25.6068L87.4393 29.0049L87.3786 40.534V75L87.318 75.9102L87.1966 76.2136L86.7112 76.5777L84.6481 77.6699L83.0704 78.5194L81.7961 79.1869L80.9466 79.6723L79.915 80.2184L78.5801 80.9466L77.0024 81.7961L75.6068 82.585L74.4539 83.1917L73.1189 83.9199L72.1481 84.466L70.9345 85.1335L68.3252 86.5898L67.1723 87.1966L66.2015 87.7427L65.4733 88.1675L64.6238 88.5922L63.3495 89.3204L62.318 89.8665L61.3471 90.4126L60.6796 90.7767L59.8301 91.2621L57.1602 92.7184L52.7913 95.1456L51.8204 95.6917L50.9709 96.1772L49.9393 96.7233L49.3325 97.0874L47.6335 97.9976L46.2985 98.7257L44.8422 99.5146L43.8714 99.9393L43.4466 100L42.9612 99.6966L41.9296 99.1505L40.9587 98.665L39.5631 97.8762L37.8034 96.9053L36.8325 96.3592L35.1942 95.449L33.7379 94.6602L31.9782 93.6893L30.5218 92.9005L29.1869 92.1723L28.0947 91.5655L26.5777 90.716L25.182 89.9272L23.483 89.017L20.6917 87.5L19.7816 86.9539L18.932 86.5291L17.4757 85.6796L16.0194 84.8908L14.6845 84.1626L13.2888 83.3738L11.7718 82.585L10.6189 81.9175L9.64806 81.432L8.85922 80.9466L6.73544 79.7937L5.46116 79.0655L4.49029 78.5194L3.82282 78.1553L2.79126 77.6092L2.06311 77.2451L0.667476 76.4563L0.303398 76.2136L0.182039 76.0316L0.121359 75.7282L0.0606796 74.8786V28.2767L0.121359 25.7888H0L0.0606796 25.4854L0.546116 25.0607L2.24515 24.1505L3.39806 23.483L4.97573 22.5728L5.82524 22.0874L6.61408 21.6019L8.13107 20.6917L9.58738 19.8422L10.4369 19.3568L11.2257 18.8714L12.6214 18.0825L13.2282 17.7184L16.1408 16.0194L17.415 15.2913L18.2039 14.8058L19.6602 13.9563L22.3908 12.3786L22.9976 12.0146L24.5752 11.1044L26.2136 10.1335L28.7621 8.67718L29.733 8.07039L30.4005 7.70631L32.0388 6.73544L33.4345 5.9466L34.5267 5.27913L35.801 4.55097L36.5898 4.06553L38.0461 3.21602L40.716 1.63835L41.5049 1.15291L42.9612 0.364078L43.568 0.0606796L43.75 0ZM43.568 0.970874L42.9005 1.33495L41.4442 2.18447L40.2913 2.91262L36.8932 4.85437L35.1335 5.88592L33.6165 6.79612L30.7039 8.49515L29.6117 9.10194L28.7621 9.64806L27.4879 10.3762L26.4563 10.983L25.182 11.7112L23.9684 12.4393L22.8155 13.1068L22.0267 13.5922L20.3277 14.5631L18.9927 15.3519L18.0218 15.8981L17.1723 16.4442L16.2015 16.9903L14.5631 17.9612L13.1675 18.75L12.0752 19.4175L10.7403 20.2063L7.34223 22.2087L5.6432 23.2403L4.12621 24.0898L2.9733 24.6966L1.27427 25.6675L1.09223 25.8495L1.03155 26.2743L0.970874 28.216V72.2694L1.03155 75L1.09223 75.5461L1.39563 75.9102L2.48786 76.517L3.5801 77.1845L5.03641 77.9733L6.37136 78.7015L7.76699 79.4903L8.49515 79.8544L9.10194 80.2184L10.5583 81.0073L13.4102 82.585L15.4733 83.6772L16.7476 84.4053L17.7791 84.9515L18.8714 85.5583L20.1456 86.2864L21.1772 86.8325L22.2694 87.4393L23.9684 88.3495L26.335 89.6238L27.4272 90.2306L28.0947 90.5947L28.9442 91.0801L29.733 91.5049L30.7039 92.051L32.3422 92.9612L34.5267 94.1141L36.0437 94.9636L36.9539 95.449L37.8641 95.9951L38.5922 96.3592L39.199 96.7233L40.3519 97.3301L41.3228 97.8762L42.2937 98.3616L43.3252 98.9684L43.5073 99.1505L43.75 99.0898L43.8714 98.9684L44.4782 98.7257L46.3592 97.7549L47.4515 97.1481L48.7864 96.4199L50.4248 95.5097L51.3349 95.0243L52.1845 94.5388L54.8544 93.0825L56.6748 92.1116L58.0097 91.3835L59.7087 90.4733L60.801 89.8665L63.4709 88.4102L64.9879 87.5607L66.8083 86.5898L68.1432 85.8616L69.5995 85.0728L70.8131 84.4053L72.9976 83.1917L74.3325 82.4636L75.3034 81.9175L77.1238 80.9466L78.216 80.3398L79.551 79.6116L80.6432 79.0049L83.3131 77.5485L84.7087 76.8204L86.1044 76.0316L86.5291 75.6675L86.5898 75.182L86.5291 74.7573L86.5898 58.6165V26.1529L86.2864 25.7888L85.3762 25.182L84.1019 24.4539L82.767 23.7257L80.2791 22.2694L79.0655 21.5413L77.3665 20.5704L76.1529 19.8422L74.3932 18.8107L71.9053 17.3544L71.0558 16.8689L69.7209 16.0801L68.8107 15.534L67.3544 14.6845L65.6553 13.7136L64.8665 13.2282L63.2888 12.318L61.9539 11.5291L61.1044 11.0437L58.4951 9.5267L57.1602 8.73786L55.7039 7.88835L54.1262 6.97816L53.3374 6.49272L52.0024 5.70388L50.7888 4.97573L47.8762 3.2767L46.5413 2.48786L45.6311 1.94175L43.9927 0.970874H43.568Z" fill="#434146"/>
<path d="M10.6807 37.1965H16.506L35.9841 37.3179L36.8337 37.4393L37.4405 37.682L37.7439 37.9247L38.1686 38.5315L38.472 39.199L38.654 39.8058V40.8373L38.2293 41.9902L37.5618 43.2645L37.0764 43.932L36.5909 44.4174L36.2269 44.4781L35.074 44.5388L32.1613 44.5994H4.12735L4.00599 45.0242H3.94531V37.2572L10.6807 37.1965Z" fill="#575758"/>
<path d="M38.7144 74.0291L39.2605 74.0897L39.6853 74.2718L40.11 74.5752L40.4134 74.8786L40.7775 75.1213L41.9304 75.364L43.8722 75.6674L44.9037 75.7281L45.1464 75.7888L45.9353 75.8494L46.36 76.0922L46.8455 76.5776L46.9061 77.063L47.7557 77.0024L48.1197 76.9417H48.7872L49.0906 77.1237L49.6367 77.063L50.0615 76.8203L50.3649 76.7596H50.7896L51.3964 76.9417L51.7605 77.1844L52.0639 77.6698L52.1853 78.4587L51.9425 78.9441L51.4571 79.3082L50.4256 79.7936L49.9401 80.2791L49.6974 80.6431L49.5154 80.8252H49.394L49.2726 81.1286L48.7872 81.9174L48.3624 82.4028L48.1197 82.5849H47.9984L48.059 82.7062L48.1804 84.1019L48.1197 84.83L47.877 85.4368H47.7557V85.6189L47.877 85.6795L47.7557 86.0436L47.5129 86.2257H47.3916L47.2702 86.5897L46.7241 86.7718L46.4207 86.9538L46.1173 87.2572H45.9959L45.9353 87.4999L45.5712 87.7426L45.3891 87.9247H45.2678L45.0857 88.2888H44.9644V88.4101H44.843V88.5315H44.7217V88.6528H44.6003V88.7742H44.479L44.4183 89.1383L43.8722 89.4417L43.6901 89.6237H43.5688V89.7451L43.0226 89.8664L42.7799 89.9271L42.2945 89.8664V90.2305L42.1124 90.3519L41.8697 90.0485L41.7484 89.8664V89.4417L41.445 89.3203L41.2023 89.0169L40.9595 87.864L40.7168 87.1965V85.6795L40.8989 84.9514H41.2629L41.3843 84.5266L41.0809 83.5558L41.0202 83.0096L40.6561 82.8276L39.8066 82.6456L39.5639 82.4635V82.3422L39.3212 82.2815V82.1601L39.0785 82.0388L38.6537 81.432V81.0072L39.1998 81.1892L39.2605 81.3713L39.1391 80.7645H38.8964L38.9571 80.2184L39.0178 79.3689L38.9571 79.1868L38.7144 79.1261V79.0048H38.593L38.5323 78.7621V78.398L38.1683 77.9732L37.9862 77.7305V77.6091L37.8042 77.5485V77.1844L37.5615 77.063L37.4401 76.881L37.2581 76.3349L37.1367 75.6674L37.3188 75.0606L37.5615 74.6965L38.0469 74.3931L38.4717 74.3325L38.593 74.0897L38.7144 74.0291Z" fill="#67686C"/>
<path d="M22.9378 37.2573H25.4257L35.9839 37.318L36.8334 37.4394L37.4402 37.6821L37.7436 37.9248L38.1684 38.5316L38.4718 39.1991L38.6538 39.8059V40.8374L38.2291 41.9903L37.5616 43.2646L37.0762 43.9321L36.5907 44.4175L36.2266 44.4782L35.0737 44.5389L32.1611 44.5996H24.8796L21.9062 44.5389L22.0883 43.2039L22.6344 39.6238L22.8771 37.6821L22.9985 37.3787L22.9378 37.2573Z" fill="#EE562C"/>
<path d="M43.7495 0L44.1135 0.0606796L44.8417 0.485437L45.8733 1.09223L47.2689 1.88107L48.7859 2.79126L53.1548 5.33981L54.9145 6.37136L57.8878 8.13107L59.4655 9.04126L60.3757 9.58738L63.2883 11.2864L64.866 12.1966L66.6257 13.2282L73.0577 16.9903L75.5456 18.4466L78.7616 20.3277L80.2786 21.2379L81.8563 22.1481L83.5553 23.1189L86.2252 24.6966L87.2568 25.3641L87.3174 25.6675H87.1354H87.014H86.8927L87.2568 26.335L86.7106 26.2743L86.4072 25.9709L85.6791 25.4248L84.2228 24.5752L82.7665 23.7864L80.2786 22.3301L79.065 21.6019L77.366 20.6311L76.1524 19.9029L74.3927 18.8714L71.9048 17.415L71.0553 16.9296L69.7203 16.1408L68.8102 15.5947L67.3538 14.7451L65.6548 13.7743L64.866 13.2888L63.2883 12.3786L61.9534 11.5898L61.1038 11.1044L58.4946 9.58738L57.1597 8.79854L55.7034 7.94903L54.1257 7.03884L53.3368 6.5534L52.0019 5.76456L50.7883 5.03641L47.8757 3.33738L46.5407 2.54854L45.6305 2.00243L43.9922 1.03155H43.5674L42.9 1.39563L41.4436 2.24515L40.2907 2.9733L36.8927 4.91505L35.133 5.9466L33.616 6.8568L30.7034 8.55583L29.6111 9.16262L28.7616 9.70874L27.4873 10.4369L26.4558 11.0437L25.1815 11.7718L23.9679 12.5L22.815 13.1675L22.0262 13.6529L20.3271 14.6238L18.9922 15.4126L18.0213 15.9587L17.1718 16.5049L16.2009 17.051L14.5626 18.0218L13.1669 18.8107L12.0747 19.4782L10.7398 20.267L7.3417 22.2694L5.64267 23.301L4.12568 24.1505L2.97277 24.7573L1.3951 25.6675L0.788304 25.7888L0.727624 25.7282L0.242188 25.6675L0.302867 25.4248H0.424226L0.484906 25.1214L1.33442 24.6359L2.66937 23.9078L3.51889 23.4223L4.9752 22.5728L5.82471 22.0874L6.61355 21.6019L8.13054 20.6917L9.58685 19.8422L10.4364 19.3568L11.2252 18.8714L12.6208 18.0825L13.2276 17.7184L16.1402 16.0194L17.4145 15.2913L18.2034 14.8058L19.6597 13.9563L22.3902 12.3786L22.997 12.0146L24.5747 11.1044L26.2131 10.1335L28.7616 8.67718L29.7325 8.07039L30.4 7.70631L32.0383 6.73544L33.4339 5.9466L34.5262 5.27913L35.8004 4.55097L36.5893 4.06553L38.0456 3.21602L40.7155 1.63835L41.5043 1.15291L42.9606 0.364078L43.5674 0.0606796L43.7495 0Z" fill="#221D22"/>
<path d="M0.547671 25.1821L0.669031 25.2428L0.608351 25.4248L0.486992 25.4855L0.426312 25.6676H0.911749L1.15447 25.7282L1.45787 25.6676L1.33651 25.8496L1.27583 26.2744L1.21515 28.2161V72.2695L1.27583 75.0001L1.33651 75.5462L1.57922 75.8496L2.00398 76.0923L1.76126 76.2137L1.70058 76.0923L1.39719 75.971V75.7889L1.21515 75.9103L1.82194 76.2744L2.79282 76.8205L3.39961 77.1846L4.12777 77.6093L4.79524 77.9734L5.5234 78.3375L5.94816 78.5802L6.97971 79.1263L7.95058 79.6724L9.58893 80.5826L10.4991 81.068L11.7734 81.7962L13.2297 82.585L14.5647 83.3132L15.4749 83.7986L16.203 84.1627L17.5986 84.9515L18.2661 85.3156L19.7831 86.1651L20.4506 86.5292L21.9676 87.3787L24.0307 88.471L24.8802 88.9564L25.8511 89.4418L26.5792 89.8666L28.5817 90.9588L29.7346 91.6263L30.402 91.9904L31.3729 92.5365L32.7079 93.2646L33.5574 93.7501L33.9215 93.9321L35.0744 94.5389L36.652 95.3884L37.2588 95.7525L40.5962 97.5729L40.7176 97.6336V97.7549L41.021 97.8156L41.3244 98.1797L41.6884 98.3617L41.4457 98.4224L40.6569 98.119L39.9894 97.6943L39.3219 97.3302L38.4724 96.8447L37.5622 96.3593L36.8341 95.9345L36.652 95.8132V95.6918L36.288 95.6311L35.4384 95.1457V95.0244L35.0137 94.9637L34.4069 94.5996L33.4967 94.1142L32.4045 93.5074V93.386L32.1011 93.3253L30.0986 92.2331V92.1117L29.6739 91.9904L29.5525 91.9297V91.8083H29.2491L28.6423 91.4443L27.7928 90.9588V90.8375H27.4894L26.8219 90.4127L26.1545 90.0486L25.1229 89.5025L24.152 88.9564L23.4239 88.5923L22.271 87.9248L20.936 87.1967L20.5113 86.954L18.8122 86.0438L17.4166 85.2549L15.7176 84.3447L14.8681 83.8593L13.5331 83.1312L12.7443 82.7064L11.7734 82.1603L10.5598 81.4928L9.64961 81.0074L8.25398 80.2185L6.1302 79.0656L5.22 78.5195L4.55253 78.1554L3.64233 77.67L3.52097 77.5486L3.09622 77.3666L2.00398 76.7598L1.33651 76.335L0.72971 76.0923L0.669031 76.335L0.365633 76.0316L0.304953 75.7282L0.244273 74.8787V28.2768L0.304953 25.7889H0.183594L0.244273 25.4855L0.547671 25.1821Z" fill="#575758"/>
<path d="M87.5019 25.4854L87.6839 25.6067L87.6232 29.0048L87.5625 40.5339V74.9999L87.5019 75.9101L87.3805 76.2135L87.2591 76.2742L87.1378 76.2135V75.9708H87.0164L86.8344 75.6674H86.713V75.182L86.6523 74.7572L86.713 58.6164L86.7737 26.1528L87.1378 26.2742H87.3805L87.0771 25.7887L87.1378 25.546L87.4412 25.6674L87.5019 25.4854Z" fill="#424045"/>
<path d="M83.8595 0H84.3449L84.709 0.303398L84.6483 0.788835V2.24515L84.709 7.88835L84.7697 8.43447L84.6483 8.49515H83.9202V5.27913L84.0415 1.88107V1.21359L83.9808 1.03155L83.4954 1.88107L83.1313 2.79126L82.7066 4.30825L81.493 7.94903L81.3716 8.37379L80.8255 8.49515H80.4008L80.0974 8.13107L79.3085 6.25L78.5804 4.06553L78.1556 2.48786L77.7308 0.728155L77.6702 0.667476L77.1847 0.728155L77.2454 1.57767L77.5488 4.55097L77.6702 6.73544V8.49515H76.6993L76.5779 8.37379L76.6386 7.94903L76.6993 2.00243L76.8207 1.75971L76.8813 0.788835L76.0318 0.910194L74.3935 0.970874H72.6338L72.8158 1.88107L72.8765 8.49515L72.8158 8.55583L71.7842 8.49515V1.03155H69.0537L68.7503 0.788835L68.6289 0.364078L68.993 0.242718L78.2163 0.182039L78.5197 0.606796L79.0051 2.06311L79.6726 4.30825L80.2187 6.18932L80.5221 7.09951L80.7648 7.58495L80.9469 7.34223L81.675 5.21845L82.2818 3.2767L82.8279 1.94175L83.3134 0.788835L83.5561 0.242718L83.8595 0Z" fill="#59595A"/>
<path d="M86.7712 75.6067L87.0139 75.8494V75.9708H87.1352V76.2135H87.2566L87.1959 76.3955L86.1037 77.0023L84.4653 77.8518L83.3731 78.4586L81.9775 79.1868L81.128 79.6722L80.0964 80.2183L78.7615 80.9465L77.1838 81.796L75.7882 82.5848L74.6352 83.1916L73.3003 83.9198L72.3294 84.4659L71.1158 85.1334L68.5066 86.5897L67.3537 87.1965L66.3828 87.7426L65.6547 88.1674L64.8051 88.5921L63.5309 89.3203L62.4993 89.8664L61.5284 90.4125L60.861 90.7766L60.0115 91.262L57.3416 92.7183L54.0649 94.5387H53.8828V94.296L54.1862 93.9926L55.1571 93.5072H55.5212V93.3251L55.9459 93.2645V93.0824H55.8246V92.9611H55.7032V93.0824L55.5212 93.1431V92.9611L55.8852 92.7183L56.1886 92.597L56.2493 92.3543L57.7663 91.5654L58.8585 90.9586L60.4362 90.1091L61.1644 89.6844L62.0139 89.2596L62.8634 88.7742L64.1983 88.046L65.2906 87.4392L66.9896 86.529L68.3246 85.8009L69.7809 85.012L70.9945 84.3446L73.1789 83.131L74.5139 82.4028L75.4848 81.8567L77.3051 80.8858L78.3974 80.279L79.7323 79.5509L80.8246 78.9441L83.4945 77.4878L84.8901 76.7596L86.2857 75.9708L86.7712 75.6067Z" fill="#242024"/>
<path d="M9.4656 24.2112L9.64764 24.2719L9.769 24.5146L10.1938 24.6359V24.5146H10.3151L10.2544 24.3325L10.3151 24.2112L10.8612 24.2719V24.3932L10.6185 24.6359L10.5578 24.7573L10.8612 24.818L10.8006 25.3641L10.6792 25.6068L11.2253 25.6675L11.286 25.9102H11.1646V26.0316L11.5894 25.9102V25.7889H11.7714V26.335L12.0748 26.4563L12.1962 26.517L12.1355 26.699L12.2569 26.9418V27.1238L12.6816 27.0631L12.8637 26.9418L13.1671 27.1845L13.5311 27.3058L13.7132 27.4879L14.1379 27.5486H14.684L14.9874 27.6699L15.7763 27.7306V27.9126L15.4122 27.9733L15.0481 27.9126L15.1088 28.0947H16.019L16.0797 27.9126L16.2617 28.0947L17.9001 28.1554H18.9316L19.1137 28.216H23.604L26.3952 28.1554L28.0336 28.0947L28.8224 28.034L28.8831 27.9126L29.6719 27.7913H29.854L29.7933 27.9733L29.4899 28.1554L29.5506 28.2767L29.0044 28.3374H8.79813L5.33939 28.2767L3.88308 28.1554L3.76172 27.7306L4.06512 27.3665L4.91463 26.8811L6.67434 25.8495L7.88793 25.1214L9.4656 24.2112Z" fill="#67686C"/>
<path d="M83.8594 0H84.3448L84.7089 0.303398L84.6482 0.788835V2.24515L84.7089 7.88835L84.7696 8.43447L84.6482 8.49515H83.9201V5.27913L84.0414 1.88107V1.21359L83.9807 1.03155L83.4953 1.88107L83.1312 2.79126L82.7065 4.30825L81.4929 7.94903L81.3715 8.37379L80.8254 8.49515H80.4006L80.0972 8.13107L79.3084 6.25L78.5802 4.06553L78.1555 2.48786L77.7307 0.606796L77.6094 0.485437L77.6701 0.242718H78.1555L78.3375 0.303398L78.5802 0.788835L79.0657 2.30583L79.6725 4.30825L80.2186 6.18932L80.522 7.09951L80.7647 7.58495L80.9468 7.34223L81.6749 5.21845L82.2817 3.2767L82.8278 1.94175L83.3133 0.788835L83.556 0.242718L83.8594 0Z" fill="#242025"/>
<path d="M87.6232 25.6067L87.6839 25.7887L87.6232 29.0047L87.5625 40.5339V74.9999L87.5019 75.9101L87.3805 76.2135L87.2591 76.2742L87.1378 76.2135V75.9708H87.0164L86.8344 75.6674H86.713V75.1819L86.6523 74.7572L86.713 58.6164L86.7737 26.2742L86.9557 26.5169V27.245L87.0164 28.2766H87.0771L87.1378 29.0654V30.4004L87.0771 31.6747V31.7353V32.1601H87.0164L86.8951 32.9489L86.8344 59.7693L86.8951 66.4441L86.9557 66.2014V65.4125H87.0771L87.1378 66.6261L87.2591 66.8081L87.3198 65.9586L87.3805 56.614L87.3198 50.9101V47.0266L87.3805 33.131L87.4412 27.063L87.5019 26.9416V26.1528L87.3805 25.9708V25.7887L87.6232 25.728V25.6067Z" fill="#575758"/>
<path d="M39.9258 79.187H40.7753L41.3821 79.4297L41.6855 79.7331L41.8069 80.1579V80.8254L41.3821 81.6749L41.4428 82.2817L41.8676 82.8278L42.2316 83.7987L42.535 84.5268L42.8991 85.1336L43.2025 85.4977L43.5059 85.6797L44.052 85.8618L44.5375 86.2865L45.0229 87.136L44.9622 87.4394L44.5375 87.9856L43.688 88.471L43.3239 88.5924L42.8384 88.5317L42.353 88.1676L42.171 87.6215L42.0496 87.0147V86.4686L42.2316 86.1652V85.5584L42.0496 85.1336L41.6248 84.6482L41.3821 84.1627L41.2001 83.5559L41.1394 83.0098L40.9574 82.7064V82.403L40.1685 82.1603L39.5617 81.6749L39.1977 81.0681L39.0156 80.6433L39.0763 80.0365L39.319 79.6118L39.6831 79.3084L39.9258 79.187Z" fill="#FDFDFD"/>
<path d="M50.3627 76.7598H50.7875L51.3943 76.9418L51.7583 77.1845L52.0617 77.67L52.1831 78.4588L51.9404 78.9442L51.4549 79.3083L50.4234 79.7937L49.938 80.2792L49.6952 80.6433L49.5132 80.8253H49.3918L49.2705 81.1287L48.785 81.9175L48.3603 82.403L48.1176 82.585H47.9962L48.0569 82.7064L48.1782 84.102L48.1176 84.8302L47.9355 85.1942L47.3287 85.5583L46.7826 85.7403L46.3579 85.6797L45.8724 85.4369L45.4477 84.9515L45.2656 84.4661V83.6772L45.5083 83.3738L46.3579 82.9491L47.7535 82.4636L48.1176 81.9782L48.5423 81.1894L48.9671 80.6433L49.0278 80.2185L49.4525 79.369L49.6346 79.1263L49.5739 78.8836L49.2705 78.5802L49.0884 78.2161L49.1491 77.6093L49.3918 77.2452L50.0593 76.8204L50.3627 76.7598Z" fill="#FDFDFD"/>
<path d="M38.0469 74.3933L38.6537 74.454L39.1391 74.636L39.6246 75.0001V75.1215L39.8673 75.2428L40.4741 75.8496L40.8382 76.2744L41.3236 76.5171L42.3552 76.5778L43.3867 76.7598L43.8115 76.9419L43.7508 77.2453L43.8722 77.3059V77.1846L44.3576 76.8812L44.5396 76.8205H45.1464L46.1173 77.0025L46.6634 77.3666L46.8455 77.7307V78.2161L46.7241 78.7622L46.4814 79.1263L46.178 79.3084L45.6925 79.4904H44.661L44.2362 79.3084L43.9328 78.5802L43.8115 77.7307L43.6901 77.4273L43.4474 77.5487H42.962L41.7484 77.3059L40.2921 76.5171H39.9887L39.3212 76.9419L38.9571 77.2453H38.2896L37.7435 77.0025L37.4401 76.7598L37.1974 76.153L37.1367 75.6676L37.3188 75.0608L37.5615 74.6967L38.0469 74.3933Z" fill="#FDFDFD"/>
<path d="M0.486461 75.5461L1.09326 75.6068L1.21462 75.5461L1.2753 75.6675L1.70005 75.9102L2.00345 76.1529L1.76073 76.2136L1.70005 76.0923L1.39666 75.9709V75.7889L1.21462 75.9102L1.82141 76.2743L2.79229 76.8204L3.39908 77.1845L4.12724 77.6092L4.79471 77.9733L5.52287 78.3374L5.94763 78.5801L6.97918 79.1262L7.95005 79.6724L9.5884 80.5826L10.4986 81.068L11.7729 81.7961L13.2292 82.585L14.5641 83.3131L15.4743 83.7986L16.2025 84.1626L17.5981 84.9515L18.2656 85.3156L19.7826 86.1651L20.4501 86.5292L21.967 87.3787L24.0301 88.4709L24.8797 88.9563L25.8505 89.4418L26.5787 89.8665L28.5811 90.9588L29.734 91.6262L30.4015 91.9903L31.3724 92.5364L32.7073 93.2646L33.5569 93.75L33.9209 93.9321L35.0738 94.5389L36.6515 95.3884L37.2583 95.7525L40.5957 97.5728L40.717 97.6335V97.7549L41.0204 97.8156L41.3238 98.1796L41.6879 98.3617L41.4452 98.4224L40.6564 98.119L39.9889 97.6942L39.3214 97.3301L38.4719 96.8447L37.5617 96.3592L36.8335 95.9345L36.6515 95.8131V95.6918L36.2874 95.6311L35.4379 95.1457V95.0243L35.0132 94.9636L34.4064 94.5995L33.4962 94.1141L32.4039 93.5073V93.3859L32.1005 93.3253L30.0981 92.233V92.1117L29.6734 91.9903L29.552 91.9296V91.8083H29.2486L28.6418 91.4442L27.7923 90.9588V90.8374H27.4889L26.8214 90.4126L26.1539 90.0486L25.1224 89.5025L24.1515 88.9563L23.4234 88.5923L22.2704 87.9248L20.9355 87.1966L20.5107 86.9539L18.8117 86.0437L17.4161 85.2549L15.717 84.3447L14.8675 83.8592L13.5326 83.1311L12.7437 82.7063L11.7729 82.1602L10.5593 81.4927L9.64908 81.0073L8.25345 80.2185L6.12966 79.0656L5.21947 78.5194L4.55199 78.1554L3.6418 77.6699L3.52044 77.5486L3.09568 77.3665L2.00345 76.7597L1.33598 76.335L0.729179 76.0923L0.6685 76.335L0.425781 76.0923V75.6675L0.486461 75.5461Z" fill="#565558"/>
<path d="M0.726562 76.0923L1.02996 76.153L1.75812 76.517L2.54695 77.0025L3.21443 77.3666L3.5785 77.5486L4.42802 78.034L5.03481 78.3981L5.76297 78.7622L6.36977 79.1263L7.21928 79.6117L9.34307 80.7646L10.678 81.4928L12.0736 82.2816L12.7411 82.6457L14.1368 83.3738L14.9863 83.8593L16.0785 84.4661L16.928 84.9515L17.7775 85.3763L18.8091 85.9831L19.962 86.5899L20.8722 87.0753L21.9037 87.6821L22.9353 88.2282L23.9669 88.835L24.8164 89.2598L25.7872 89.8059L26.6368 90.2913L27.3042 90.6554L27.4863 90.7768L27.7897 90.8374V90.9588L28.0931 91.0801L28.8212 91.5049L29.246 91.7476L29.5494 91.8083V91.9297L30.0955 92.1117L30.2775 92.2937L31.7945 93.0826L32.1586 93.3253L32.4013 93.386V93.5073L32.7047 93.6287L33.6149 94.1141L34.5858 94.6602L35.1926 94.9636L35.4353 95.0243L35.6173 95.2064L36.4062 95.6311L36.6489 95.6918V95.8132L36.9523 95.9345L37.377 96.1772L38.1052 96.602L38.8334 96.9661L39.3795 97.3302L40.411 97.8763L41.0178 98.2403L42.0494 98.7865L42.4741 98.9685L43.0809 99.2112L43.1416 99.4539L43.0203 99.5146L42.4135 99.3326L41.2605 98.7258L39.5008 97.7549L38.1052 96.9661L35.3746 95.4491L33.9183 94.6602L32.1586 93.6894L30.7023 92.9005L29.3673 92.1724L28.2751 91.5656L26.7581 90.7161L25.3625 89.9272L23.6635 89.017L20.8722 87.5001L19.962 86.9539L19.1125 86.5292L17.6562 85.6797L16.1999 84.8908L14.8649 84.1627L13.4693 83.3738L11.9523 82.585L10.7994 81.9175L9.8285 81.4321L9.03967 80.9467L6.91588 79.7937L5.64161 79.0656L4.67074 78.5195L4.00326 78.1554L2.97171 77.6093L2.24355 77.2452L0.847922 76.4564L0.726562 76.3957V76.0923Z" fill="#262227"/>
<path d="M1.15234 75.7888H1.39506L1.45574 75.9709L1.75914 76.0922V76.2136L2.12322 76.1529L3.15477 76.7597L4.00429 77.2451L5.64263 78.1553L7.34166 79.0655L7.94846 79.4296L8.67662 79.7937L9.28341 80.1578L10.7397 80.9466L13.5917 82.5243L15.6548 83.6165L16.929 84.3446L17.9606 84.8908L19.0528 85.4976L20.3271 86.2257L21.3587 86.7718L22.4509 87.3786L24.1499 88.2888L26.5164 89.5631L27.6087 90.1699L28.2761 90.534L29.1256 91.0194L29.9145 91.4442L30.8854 91.9903L32.5237 92.9005L34.7082 94.0534L36.2252 94.9029L37.1354 95.3883L38.0455 95.9344L38.7737 96.2985L39.3805 96.6626L40.5334 97.2694L41.5043 97.8155L41.6256 98.1189L41.3829 98.0582L40.7155 97.7548V97.6335L40.3514 97.5121L38.8951 96.7233L36.1038 95.1456L34.4655 94.2961L33.9193 93.9927L32.5844 93.2645L31.6135 92.7184L30.946 92.3544L29.9145 91.7476L29.1863 91.3835L26.8198 90.0485L25.4849 89.3204L24.2106 88.6529L22.8756 87.9247L21.1766 87.0145L20.4485 86.5898L19.781 86.2257L18.264 85.3762L17.5965 85.0121L15.8368 84.0412L14.4412 83.3131L13.4703 82.767L12.7421 82.4029L10.2543 81.0073L8.91933 80.2791L7.8271 79.6723L6.43147 78.8835L5.58196 78.4587L5.27856 78.2767L4.36836 77.7912L3.39749 77.2451L2.24458 76.5777L1.63778 76.2136L1.21302 75.9709L1.15234 75.7888Z" fill="#2C282D"/>
<path d="M72.5134 0.66748L72.9382 0.72816V0.78884L73.4843 0.849519L73.9697 0.78884L76.0328 0.849519V0.910199L74.3945 0.970879H72.6348L72.8168 1.88107L72.8775 8.49515L72.8168 8.55583L71.7853 8.49515V1.03156H69.0547V0.970879L69.9649 0.849519H71.7246L71.9673 0.970879L72.0887 0.72816L72.3921 0.78884L72.5134 0.66748Z" fill="#67686C"/>
<path d="M45.8125 1.39575L46.4193 1.63847V1.75983L46.662 1.82051L47.2688 2.12391L47.997 2.60934L48.4217 2.85206L48.7251 3.0341L49.8174 3.70158L50.5455 4.06565L51.3343 4.55109L51.9411 4.91517L53.0941 5.52197L53.6402 5.88604L54.8538 6.55352L55.7033 7.09964L56.4314 7.52439L56.9775 7.88847L57.3416 8.07051V8.19187L57.645 8.25255L58.98 8.9807L59.5261 9.34478L60.1936 9.70886L60.4363 9.8909L61.1038 10.255L61.5892 10.5584L63.1062 11.4686L63.4703 11.6506L63.713 11.8326L64.4411 12.1967L64.7445 12.3181L65.1086 12.6215L65.7761 12.9856L66.0188 13.1069L66.0795 13.2283L66.8076 13.5924L67.3538 13.9564L67.7178 14.1385L68.5674 14.6846L68.9314 14.8666L69.9023 15.4127L70.2057 15.5341V15.6555L70.5698 15.7768L70.8732 15.9589L71.6013 16.3836L71.7834 16.4443L72.0261 16.687L72.6936 17.0511L73.3004 17.4152L73.4824 17.4758V17.5972L73.7858 17.7186L74.514 18.1433L74.9387 18.386L75.9703 18.9928L76.8198 19.539L77.6086 19.903V20.0244L77.9727 20.1458L78.3975 20.4492L78.8829 20.6919L79.5504 21.1166L80.0965 21.4807L79.9751 21.5414L79.1256 21.1166L78.5795 20.7525L77.912 20.3885L76.5164 19.539L75.8489 19.1749L74.9994 18.6894L74.6353 18.5074V18.386L74.2712 18.2647L73.6038 17.8399L73.0576 17.5365L72.0868 16.9904V16.8691L71.7834 16.8084L71.5407 16.687L71.1766 16.5657L70.8732 16.2623L69.8416 15.6555L69.1742 15.2914L68.5067 14.8666L67.8999 14.5025L67.5358 14.3205L66.8683 13.8958L66.2615 13.5924V13.471L66.0188 13.4103L65.3513 13.0462L64.8659 12.7428L64.5018 12.5608L64.1984 12.4394L64.0164 12.2574L63.3489 11.8933L63.1669 11.8326V11.7113L62.9242 11.6506L61.8926 11.0438L61.1038 10.5584L60.2542 10.0729L59.6475 9.83022L59.3441 9.52682L58.7979 9.22342L57.9484 8.79867L57.8877 8.67731L57.5843 8.55595L56.6742 7.94915L55.8853 7.52439L54.8538 6.9176H54.7324L54.5504 6.73556L53.2154 5.94672L52.5479 5.58265L51.8805 5.15789L51.2737 4.85449L50.9703 4.61177L49.3926 3.70158L48.6038 3.21614L47.3295 2.48799L45.9945 1.63847L45.8125 1.51711V1.39575Z" fill="#424045"/>
<path d="M56.067 92.4758L56.2491 92.5365L56.1277 92.7185L55.7029 92.9006L55.5209 93.0826H55.7029V92.9613H55.8243V93.0826H55.9457L56.0063 93.2647L55.8243 93.3253H55.5209L55.5816 93.5074L55.4602 93.5681L55.0355 93.6287L54.1859 94.0535L54.0039 94.2962H53.8825L53.9432 94.5996L52.0015 95.6918L51.152 96.1773L50.1204 96.7234L49.5136 97.0875L48.4821 97.6336L48.2393 97.5729L48.5427 97.4516L48.6034 97.2695L48.9675 97.1482L49.1495 96.7841L49.2709 96.602H49.1495V96.7234L48.9068 96.7841V96.9054L48.6034 96.8448V96.9661L48.2393 97.0875L47.8753 97.3909L47.7539 97.1482L47.8753 97.0268L48.1787 96.9661L48.3 96.7234L49.635 95.9952L50.7272 95.3885L51.516 94.9637L52.3656 94.4783L55.0355 93.0219L56.067 92.4758Z" fill="#434146"/>
<path d="M87.6198 25.6067L87.6805 25.7887L87.6198 29.0047L87.5591 40.5339V74.9999H87.4984L87.4378 73.1795L87.3771 56.614L87.3164 50.9101V47.0266L87.3771 33.131L87.4378 27.063L87.4984 26.9416V26.1528L87.3771 25.9708V25.7887L87.6198 25.728V25.6067Z" fill="#626366"/>
<path d="M77.6701 0.242676H78.1555L78.3375 0.303355L78.5802 0.788792L79.0657 2.30578L79.6725 4.30821L80.2186 6.18928L80.4613 6.97811L80.4006 7.16015L80.0366 6.91743V6.79607H79.9152L79.4904 5.8252L79.2477 5.5218L79.0657 4.97569L78.8836 5.03637L78.3375 3.21598L77.7914 0.970831L77.7307 0.606753L77.6094 0.485394L77.6701 0.242676Z" fill="#413F44"/>
<path d="M0.242188 28.2766H0.302867L0.363547 49.0897H0.424226L0.484906 51.4562L0.545586 51.7596V54.5509L0.424226 54.915L0.545586 54.9756H0.424226L0.484906 55.4004L0.424226 60.3761L0.363547 60.4368H0.424226V61.5897V61.7111V62.3786H0.363547V74.7572L0.424226 75.4247L0.363547 75.7281H0.302867L0.242188 74.8786V28.2766Z" fill="#67686C"/>
<path d="M0.486461 75.5461L1.09326 75.6068L1.21462 75.5461L1.2753 75.6675L1.70005 75.9102L2.00345 76.1529L1.76073 76.2136L1.70005 76.0923L1.39666 75.9709V75.7889L1.21462 75.9102L1.82141 76.2743L2.79229 76.8204L3.39908 77.1845L4.12724 77.6092L4.79471 77.9733L5.52287 78.3374L5.94763 78.5801L6.97918 79.1262L7.95005 79.6724L9.5884 80.5826L10.4986 81.068L11.7729 81.7961L13.2292 82.585L14.5641 83.3131L14.8068 83.4952L14.6248 83.5559L14.3821 83.4345H14.1394L12.9258 82.8277L12.2583 82.4029L11.5302 82.0389L10.5593 81.4927L9.64908 81.0073L8.25345 80.2185L6.12966 79.0656L5.21947 78.5194L4.552 78.1554L3.6418 77.6699L3.52044 77.5486L3.09568 77.3665L2.00345 76.7597L1.33598 76.335L0.729179 76.0923L0.6685 76.335L0.425781 76.0923V75.6675L0.486461 75.5461Z" fill="#525254"/>
<path d="M1.15234 75.7888H1.39506L1.45574 75.9709L1.75914 76.0922V76.2136L2.12322 76.1529L3.15477 76.7597L4.00429 77.2451L5.64263 78.1553L7.34166 79.0655L7.94846 79.4296L8.67662 79.7937L9.28341 80.1578L10.7397 80.9466L13.5917 82.5243L15.6548 83.6165L16.929 84.3446L17.9606 84.8908L18.264 85.0728L18.3854 85.3762L18.0213 85.2548L16.3829 84.3446L15.6548 83.9199L14.6839 83.4344L13.4703 82.767L12.7421 82.4029L10.2543 81.0073L8.91933 80.2791L7.8271 79.6723L6.43147 78.8835L5.58196 78.4587L5.27856 78.2767L4.36836 77.7912L3.39749 77.2451L2.24458 76.5777L1.63778 76.2136L1.21302 75.9709L1.15234 75.7888Z" fill="#2B272C"/>
<path d="M51.9424 77.4272L52.2458 77.7306L52.4885 77.6093L52.6705 78.1554L52.5492 78.4588L52.3064 78.5802L51.9424 79.1263L51.8817 79.369L51.821 79.6724H51.6996V79.7938L51.3962 79.9758H51.2749L51.1535 80.2185L50.9715 80.4005H50.7894L50.6681 80.7039L50.4254 81.0073L50.304 81.2501L49.8186 81.4928L49.5758 81.4321L49.4545 81.7962L49.2118 82.0996L49.0904 82.2209L49.0297 82.4637L48.605 82.5243V82.403H48.4836L48.3623 82.7064L48.3016 83.0098V83.3738L48.7263 83.4952L48.787 83.8593L48.8477 83.9806L48.6657 84.3447L48.4229 84.4054H48.3016L48.2409 84.9515L48.0589 85.1942H47.9375L48.1195 84.4661L48.0589 83.4345L47.9982 82.585L48.3623 82.3423L48.7263 81.9175L49.3938 80.8253L49.7579 80.5219L50.0006 80.1578L50.4254 79.7331L51.5783 79.187L51.9424 78.8836L52.1244 78.3981L52.003 77.67L51.9424 77.4272Z" fill="#68696D"/>
<path d="M86.7716 26.2742L86.9537 26.5169V27.245L87.0143 28.2766H87.075L87.1357 29.0654V30.4004L87.075 31.6747V31.7353V32.1601H87.0143L86.893 32.9489L86.8323 59.7086L86.7716 74.6358H86.7109V58.6164L86.7716 26.2742Z" fill="#5B5C5D"/>
<path d="M3.82422 56.4321H3.8849L3.94558 58.1312L4.00626 61.7113L13.0475 61.7719V61.8326L7.1616 61.8933L5.28053 61.954L4.12762 61.8933L4.24898 62.5608L4.1883 63.653L4.06694 63.7744L4.12762 64.1991L4.06694 64.2598V66.4443L4.12762 68.9321L4.1883 72.0268L4.24898 73.3011L4.37034 73.6045L4.43101 73.7865H4.30966V73.9079L4.1883 74.0292L4.24898 74.1506L4.06694 74.0899L3.94558 73.8472L3.8849 73.1797L3.82422 61.8933V56.4321Z" fill="#68696D"/>
<path d="M68.993 0.242676H74.7575L75.425 0.303355V0.364035L74.8789 0.485394L75.5464 0.546074L75.4857 0.667433H75.3643V0.788792H76.0318V0.849472H73.6653L73.3619 0.910151L72.8158 0.849472L72.5731 0.728113L72.3304 0.849472L72.0876 0.788792L71.9663 0.970831L71.4202 0.910151H69.9639L69.6605 0.970831H68.9323L68.6896 0.667433L68.6289 0.364035L68.993 0.242676Z" fill="#434146"/>
<path d="M14.3203 83.3738L14.7451 83.4951L15.0485 83.5558L16.2014 84.1626L17.597 84.9514L18.2645 85.3155L19.7815 86.165L20.449 86.5291L21.9659 87.3786L24.0291 88.4709L24.8786 88.9563L25.8494 89.4417L26.0315 89.6238L25.9101 89.6845L25.546 89.5631L26.0315 89.8058V89.9272L25.6674 89.8058L25.0606 89.4417L24.3931 89.0777L23.4223 88.5922L22.2693 87.9248L20.9344 87.1966L20.5096 86.9539L18.8106 86.0437L17.415 85.2548L15.7159 84.3447L14.8664 83.8592L14.3203 83.5558V83.3738Z" fill="#515153"/>
<path d="M10.6807 37.1965H16.506V37.2572L12.8652 37.3179L7.28269 37.3786L6.0691 37.4393L5.1589 37.4999L4.30939 37.3786L4.06667 37.3179V41.2014L4.12735 44.4781L5.21958 44.4174H7.28269L7.40405 44.4781H17.7803L19.9647 44.4174H21.7851L21.9065 44.4781L22.6953 44.5388V44.5994H4.12735L4.00599 45.0242H3.94531V37.2572L10.6807 37.1965Z" fill="#68696D"/>
<path d="M1.15261 26.3958H1.21329V75.0001H1.15261L1.09193 72.6336L1.03125 65.5948V65.0487L1.09193 64.8666V27.9127L1.15261 26.3958Z" fill="#68696D"/>
<path d="M45.8125 1.39575L46.4193 1.63847V1.75983L46.662 1.82051L47.2688 2.12391L47.997 2.60934L48.4217 2.85206L48.7251 3.0341L49.8174 3.70158L50.5455 4.06565L51.3343 4.55109L51.9411 4.91517L53.0941 5.52197L53.6402 5.88604L54.8538 6.55352L55.7033 7.09964L56.4314 7.52439L56.9775 7.88847L57.3416 8.07051V8.19187L57.645 8.25255L58.98 8.9807L59.5261 9.34478L59.9508 9.5875L60.0115 9.83022L59.3441 9.52682L58.7979 9.22342L57.9484 8.79867L57.8877 8.67731L57.5843 8.55595L56.6742 7.94915L55.8853 7.52439L54.8538 6.9176H54.7324L54.5504 6.73556L53.2154 5.94672L52.5479 5.58265L51.8805 5.15789L51.2737 4.85449L50.9703 4.61177L49.3926 3.70158L48.6038 3.21614L47.3295 2.48799L45.9945 1.63847L45.8125 1.51711V1.39575Z" fill="#444347"/>
<path d="M18.2656 85.1335L18.569 85.2549L19.4792 85.7403L20.5715 86.3471L23.2414 87.8034L25.0617 88.7743L26.154 89.3811L28.2778 90.534L28.8846 90.8981L29.0059 91.2015L28.6418 91.0801L27.671 90.534L26.8215 90.0486L25.4865 89.3204L24.2122 88.653L22.8773 87.9248L21.1782 87.0146L20.4501 86.5899L19.7826 86.2258L18.387 85.4369L18.2656 85.1335Z" fill="#2C292D"/>
<path d="M77.6701 0.242676H78.1555L78.3375 0.303355L78.5802 0.788792L79.0657 2.30578L79.4298 3.4587L79.3691 4.00481L79.2477 4.06549L78.9443 3.03394L78.6409 2.18442L78.5196 1.69899L78.3982 1.57763L78.4589 2.30578L78.7016 3.21598L78.8836 3.94413V4.61161L78.823 4.49025H78.7016L78.2162 2.73054L77.7914 0.970831L77.7307 0.606753L77.6094 0.485394L77.6701 0.242676Z" fill="#231F24"/>
<path d="M78.5789 76.699L78.6396 76.881L77.0619 77.7305L75.5449 78.58L74.392 79.1868L73.057 79.915L68.5667 82.4029L66.8677 83.3737L66.625 83.3131L66.8677 83.131H66.9891V83.0097L67.4138 82.8276L68.324 82.2815L69.1735 81.8567L70.2658 81.1286L70.8726 80.8859L71.2367 80.7038H71.358V80.5825L71.8434 80.3398L72.0862 80.097L72.5716 79.8543L73.057 79.6723L73.2998 79.4296L74.2706 78.9441L74.7561 78.7621L75.3022 78.4587H75.4235V78.3373L76.0303 78.0339H76.2124V77.9126L77.3653 77.3665L78.0328 77.0024L78.5789 76.699Z" fill="#47464B"/>
<path d="M77.6079 0.182129H78.2147V0.364168L78.1541 0.242809L77.7293 0.303488V0.546207V0.728245L77.6686 0.667566L77.1832 0.728245L77.2439 1.57776L77.3652 2.66999V3.88359L77.1832 3.94426L77.0618 3.15543L77.0011 2.30592L76.8798 1.88116L76.8191 1.7598L76.8798 0.788925L76.5157 0.849605L75.3628 0.788925V0.667566L75.4841 0.606886L75.1807 0.546207H74.6953L74.8774 0.424847L74.9987 0.364168L74.756 0.242809L77.6079 0.182129Z" fill="#585859"/>
<path d="M0.486461 75.5461L1.09326 75.6068L1.21462 75.5461L1.2753 75.6675L1.70005 75.9102L2.00345 76.1529L1.76073 76.2136L1.70005 76.0923L1.39666 75.9709V75.7889L1.21462 75.9102L1.82141 76.2743L2.79229 76.8204L3.39908 77.1845L4.12724 77.6092L4.79471 77.9733L5.52287 78.3374L5.94763 78.5801L6.6151 78.9442L6.49374 79.0049L5.70491 78.6408L5.52287 78.7015L4.06656 77.9126L3.52044 77.5486L3.09568 77.3665L2.00345 76.7597L1.33598 76.335L0.729179 76.0923L0.6685 76.335L0.425781 76.0923V75.6675L0.486461 75.5461Z" fill="#444247"/>
<path d="M25.4844 89.5024L25.9698 89.6238L26.2732 89.6845L26.9407 90.0486L28.0329 90.6554L29.5499 91.5049L30.0353 91.8083V91.9903L30.3387 92.1117L30.7635 92.2937V92.4151L30.8849 92.4757L30.6421 92.5364L30.096 92.233V92.1117L29.6713 91.9903L29.5499 91.9296V91.8083H29.2465L28.6397 91.4442L27.7902 90.9588V90.8374H27.4868L26.8193 90.4126L26.1519 90.0486L26.0305 89.9879V89.8058L25.6057 89.6845L25.4844 89.5024Z" fill="#535254"/>
<path d="M66.4439 83.3738V83.5558L65.5337 84.1019L64.138 84.8301L63.5312 85.1942L61.9536 86.0437L60.5579 86.8325L59.1016 87.6214L58.2521 88.1068L57.4633 88.5315H57.2812L57.3419 88.3495L57.5846 88.2281H57.7667V88.1068L58.2521 87.8641L58.6769 87.682L58.9196 87.5607V87.4393L59.3444 87.2573L59.4657 87.1359H59.7084V87.0146L60.4366 86.6505H60.6793V86.5291L61.1041 86.2864L61.8322 85.801L62.439 85.5582L63.1065 85.1942L63.5312 84.8301L64.3201 84.5267L64.5628 84.466V84.3447L65.291 83.9806L65.7157 83.7379L65.9584 83.6165L66.0798 83.4951L66.4439 83.3738Z" fill="#48474B"/>
<path d="M37.0742 95.6917L37.4383 95.813L38.4698 96.4198L40.715 97.6334V97.7548L41.0184 97.8154L41.3218 98.1795L41.6859 98.3616L41.4432 98.4222L40.6543 98.1188L39.9868 97.6941L39.3194 97.33L38.4698 96.8446L37.5597 96.3591L37.0742 96.0557L37.2563 95.995V96.1164L37.681 96.1771L37.1956 95.9344L37.0742 95.6917Z" fill="#525254"/>
<path d="M1.15234 75.7888H1.39506L1.45574 75.9709L1.75914 76.0922V76.2136L2.12322 76.1529L3.15477 76.7597L4.00429 77.2451L5.64263 78.1553L6.97759 78.8835L6.91691 79.0655L6.61351 79.0048L5.58196 78.4587L5.27856 78.2767L4.36836 77.7912L3.39749 77.2451L2.24458 76.5777L1.63778 76.2136L1.21302 75.9709L1.15234 75.7888Z" fill="#29252A"/>
<path d="M86.7737 71.7234L86.8951 71.9661L87.0164 72.8763L87.0771 74.3326L87.1985 74.3933V74.5753L87.3198 74.636V74.818L87.3805 75.6069H87.4412V76.153L87.2591 76.2744L87.1378 76.2137V75.971H87.0164L86.8344 75.6676H86.713V75.1821L86.6523 74.7574L86.713 74.636L86.7737 71.7234Z" fill="#434146"/>
<path d="M21.844 87.3787L22.2081 87.5L23.543 88.2282L24.696 88.835L26.0309 89.5631L25.9095 89.6845L25.5455 89.5631L26.0309 89.8058V89.9272L25.6668 89.8058L25.06 89.4418L24.3926 89.0777L23.4217 88.5923L22.2688 87.9248L21.7227 87.6214L21.844 87.3787Z" fill="#505052"/>
<path d="M49.5136 96.0559L49.817 96.1166V96.2986L49.6957 96.4807H49.817V96.3593H50.4238L50.3631 96.602L49.3923 97.1481L48.4821 97.6336L48.2393 97.5729L48.5427 97.4515L48.6034 97.2695L48.9675 97.1481L49.1495 96.7841L49.2709 96.602H49.1495V96.7234L48.9068 96.7841V96.9054L48.6034 96.8447V96.9661L48.2393 97.0875L47.8753 97.3909L47.7539 97.1481L47.8753 97.0268L48.1787 96.9661L48.3 96.7234L49.5136 96.0559Z" fill="#262226"/>
<path d="M40.8359 93.9321H41.2L41.3214 94.0535L41.7461 94.1748L42.2922 94.4782H42.7777L43.0204 94.5389L43.5058 94.5996L43.8699 94.903L43.8092 95.085L43.3845 95.2064L43.2024 95.3278V95.2064L43.0204 95.1457L42.8384 95.2064L42.1102 94.8423L41.9889 94.721L41.6855 94.6603V94.5389L41.3214 94.4176L40.8359 94.0535V93.9321Z" fill="#67686C"/>
<path d="M4.67191 27.0024L4.91463 27.0631L4.97531 27.1845L4.85395 27.3058L4.91463 27.5486L4.97531 27.7306L6.00686 27.9733V28.0947L5.64279 28.1554H3.88308L3.76172 27.7306L4.06512 27.3665L4.67191 27.0024Z" fill="#585859"/>
<path d="M41.505 97.8762L41.869 97.9976L42.5972 98.3617L43.204 98.7257L43.5681 98.9685L43.5074 99.0898H43.386L43.3254 98.9685L43.1433 99.3325L43.022 99.2112L42.4758 99.0291L41.9297 98.7864L41.0195 98.301L41.2016 98.2403L41.4443 98.301L41.0802 97.9976L41.2016 97.9369L41.505 98.0583V97.8762Z" fill="#444348"/>
<path d="M78.3359 1.51709H78.518L78.6393 1.82049L78.7607 2.30592L79.1855 3.64088L79.3068 4.00495L79.4282 3.70156L79.5495 3.88359L79.4282 4.49039L79.5495 4.91515V5.58262L79.3675 5.33991L79.1248 4.67243L78.9427 4.12631V3.88359H78.8214L78.5787 2.9734L78.3359 1.94185V1.51709Z" fill="#504F51"/>
<path d="M53.3381 94.5388H53.8236L53.7629 94.7209L52.1852 95.5704L51.3964 96.0558L50.7896 96.3592L50.5469 96.2985L50.7289 96.2378L50.6682 95.9951H50.7896V95.8738L50.9716 95.6917V95.5704L51.2144 95.6311L51.5177 95.5097L51.5784 95.3883L52.1245 95.2063H52.4279V95.0243L52.7313 94.8422L52.9741 94.7815V94.6602L53.3381 94.5388Z" fill="#252125"/>
<path d="M6.85547 78.9441L7.21955 79.0048L7.9477 79.4295L8.67586 79.7936L9.28265 80.1577L10.739 80.9465L11.1637 81.1892L10.921 81.2499L10.5569 81.1892L9.70741 80.7038L8.37246 79.9756L7.6443 79.5509L6.97683 79.1868L6.85547 79.0655V78.9441Z" fill="#2D2A2E"/>
<path d="M86.6512 75.6675V75.8495L86.4692 76.2136V76.335H86.1658L85.9231 76.3956V76.517L85.6197 76.6384L85.7411 76.699V76.8204L85.3163 76.9418V76.8204L84.6488 77.1238L84.3454 77.2452L84.1634 77.3058L84.1027 77.4272H83.7993L83.6779 77.8519L83.6173 77.7306L83.2532 77.7913L83.1925 77.9733L82.525 78.216L82.2216 78.3981L81.7969 78.4587L82.0396 78.2767L85.4377 76.4563L86.4692 75.8495L86.6512 75.6675Z" fill="#48474B"/>
<path d="M22.2695 83.9199L22.5729 83.9806L23.1797 84.284L24.3326 84.8908L25.0001 85.3156L25.4249 85.5583L26.3957 86.0437L27.0025 86.4078L27.1846 86.6505L26.8812 86.5898L25.4249 85.801L23.7865 84.8908L22.4516 84.1626L22.2695 83.9199Z" fill="#4B494E"/>
<path d="M80.4609 21.7839L80.7643 21.8446L80.8857 21.966L81.3105 22.148L81.9779 22.5121L82.524 22.8762L83.2522 23.2402L83.7983 23.6043L84.6478 24.0291L85.1939 24.3932L85.8007 24.6966L86.4682 25.182L86.5289 25.3034L86.2255 25.2427L84.8905 24.3932L84.041 23.9684L83.7376 23.7864V23.665L83.3736 23.5436L82.9488 23.3616L82.6454 23.1189L81.7352 22.6335L81.4925 22.4514L80.7643 22.0873V21.966L80.4609 21.8446V21.7839Z" fill="#424045"/>
<path d="M11.4062 81.6748L11.7703 81.7962L13.2266 82.585L14.5616 83.3132L14.8043 83.4952L14.6223 83.5559L14.3796 83.4345H14.1368L12.9232 82.8277L12.2558 82.403L11.5276 82.0389L11.5883 81.8568H11.4669L11.4062 81.6748Z" fill="#505052"/>
<path d="M76.9417 4.24756L77.063 4.4296L77.1237 5.76455V6.18931L77.1844 6.55338V6.97814L77.2451 7.64562L77.1844 8.00969L76.9417 7.94901L76.8203 7.4029V6.00727L76.881 5.09707L76.9417 4.24756Z" fill="#68696D"/>
<path d="M71.2367 80.7039L71.4187 80.8252L69.9624 81.6141L68.9308 82.2208L67.8993 82.767L67.2925 83.131L66.8677 83.3738L66.625 83.3131L66.8677 83.131H66.9891V83.0097L67.4138 82.8276L68.324 82.2815L69.1735 81.8568L70.2658 81.1286L70.8726 80.8859L71.2367 80.7039Z" fill="#49484C"/>
<path d="M18.9943 85.8616L19.419 85.9829L20.2079 86.4077L21.5428 87.1358L21.8462 87.3179L21.7855 87.5606L21.4821 87.4999L20.6933 87.0145L19.7224 86.529L19.055 86.165L18.9336 85.9223L18.9943 85.8616Z" fill="#535255"/>
<path d="M2.60938 76.7598L3.33753 77.1238L3.88365 77.4879L4.49044 77.7913L5.522 78.3374L5.94675 78.5802L6.61423 78.9442L6.49287 79.0049L5.70404 78.6408L5.522 78.7015L4.06569 77.9127L3.51957 77.5486L3.21617 77.4272L3.39821 77.3666L2.60938 76.9418V76.7598Z" fill="#434146"/>
<path d="M45.8125 1.39575L46.4193 1.63847V1.75983L46.662 1.82051L47.2688 2.12391L47.997 2.60934L48.4217 2.85206L48.7251 3.0341L49.8174 3.70158L49.9994 3.82294L49.696 3.88362L48.9072 3.39818L47.4508 2.54866L46.1766 1.75983L45.8125 1.51711V1.39575Z" fill="#454348"/>
<path d="M18.2656 85.1335L18.569 85.2549L19.4792 85.7403L20.5715 86.3471L21.5423 86.8933L21.421 87.0753L21.1176 86.9539L20.086 86.4078L18.6904 85.619L18.387 85.4369L18.2656 85.1335Z" fill="#2D292E"/>
<path d="M49.8164 3.82275L50.2412 3.88343L51.03 4.36887L51.9402 4.91499L52.6077 5.27906L52.6683 5.52178L52.9717 5.58246L53.1538 5.64314V5.7645L53.4572 5.82518V5.94654L53.5785 6.00722L53.2145 5.94654L52.547 5.58246L51.8795 5.15771L51.2727 4.85431L50.9693 4.61159L49.8164 3.94411V3.82275Z" fill="#48474B"/>
<path d="M87.6216 25.6067L87.6823 25.7887L87.6216 29.0047L87.5609 29.4902L87.5003 33.0096H87.4396V27.063L87.5003 26.9416V26.1528L87.3789 25.9708V25.7887L87.6216 25.728V25.6067Z" fill="#575758"/>
<path d="M5.64453 78.5801L6.49405 78.9442L6.97948 79.1262L7.95036 79.6723L8.79987 80.1577L8.67851 80.2184L8.31443 80.0364H8.19307V80.1577L7.88968 80.0364L6.9188 79.4903L5.82657 78.8835L5.64453 78.7621V78.5801Z" fill="#515052"/>
<path d="M78.5812 76.699L78.6418 76.881L77.0642 77.7305L75.5472 78.58L74.637 79.0655H74.5156L74.637 78.8228L75.3045 78.4587H75.4258V78.3373L76.0326 78.0339H76.2147V77.9126L77.3676 77.3665L78.035 77.0024L78.5812 76.699Z" fill="#4A484D"/>
<path d="M34.7695 94.7209H35.1336L35.3156 94.8423L35.7404 94.903L37.0754 95.6311L37.1967 95.8739L37.7428 96.1773L37.5608 96.2379L37.2574 96.1166V95.9952L36.8326 95.9345L36.6506 95.8132V95.6918L36.2865 95.6311L35.437 95.1457V95.0243L35.0122 94.9637L34.7695 94.7209Z" fill="#545456"/>
<path d="M72.5134 0.66748L72.9382 0.72816V0.78884L73.4843 0.849519L73.9697 0.78884L76.0328 0.849519V0.910199L74.3945 0.970879H72.9382L72.5134 0.910199L72.4527 1.03156L72.1493 0.970879L71.7853 1.03156H69.0547V0.970879L69.9649 0.849519H71.7246L71.9673 0.970879L72.0887 0.72816L72.3921 0.78884L72.5134 0.66748Z" fill="#5F6062"/>
<path d="M77.1255 1.39575L77.2469 1.57779L77.3682 2.67002V3.88362L77.1862 3.9443L77.0649 3.15546L77.0042 2.30595L76.8828 1.94187L77.0042 1.51711L77.1255 1.39575Z" fill="#464449"/>
<path d="M79.4885 4.06543H79.6099L80.2167 6.18922V6.55329L80.0347 6.49261L79.8526 6.18922L79.7919 5.88582L79.3672 4.49019L79.4279 4.18679L79.4885 4.06543Z" fill="#282429"/>
<path d="M60.922 86.4077L61.1041 86.5291L59.6478 87.3179L58.3735 88.0461L57.4633 88.5315H57.2812L57.3419 88.3495L57.5846 88.2281H57.7667V88.1067L58.2521 87.864L58.6769 87.682L58.9196 87.5606V87.4393L59.3444 87.2572L59.4657 87.1359H59.7084V87.0145L60.4366 86.6504H60.6793V86.5291L60.922 86.4077Z" fill="#4B4A4E"/>
<path d="M27.2461 86.5898L27.5495 86.7112L28.5204 87.2573L29.1272 87.5L29.2485 87.6821L29.6733 87.8641L30.1587 88.1675L30.2194 88.2889L29.8553 88.2282L28.399 87.4394L27.3068 86.8326L27.2461 86.5898Z" fill="#4B4A4E"/>
<path d="M26.6974 89.7451L27.0615 89.8665L28.2751 90.534L28.8819 90.898L29.0032 91.2014L28.6391 91.0801L27.6683 90.534L26.8188 90.0485L26.7581 89.8665L26.6367 89.8058L26.6974 89.7451Z" fill="#1C171C"/>
<path d="M57.6445 8.43457L58.13 8.49525L59.9504 9.58748L60.011 9.8302L59.3436 9.5268L58.7974 9.22341L57.9479 8.79865L57.8872 8.67729L57.7052 8.61661L57.6445 8.43457Z" fill="#454448"/>
<path d="M30.0352 91.8083L30.7633 92.1724L31.4308 92.5972L32.1589 92.9613L32.341 93.0826V93.204L31.9769 93.1433L32.0376 93.2647L31.7949 93.1433L30.7633 92.5972V92.4151V92.2938L30.3386 92.1724L30.0352 91.9904V91.8083Z" fill="#535355"/>
<path d="M83.9786 3.70142H84.0393V6.18928L84.1 6.79608V7.88831L83.9786 8.43443H84.6461V8.49511H83.918V5.27909L83.9786 3.70142Z" fill="#504F53"/>
<path d="M17.0508 81.0073L17.2935 81.068L17.8396 81.3714L17.961 81.4928L18.2644 81.6141L19.2352 82.0996L19.9634 82.5243V82.6457L19.5993 82.585L17.8396 81.6141L17.1115 81.1894L17.0508 81.0073Z" fill="#4C4B4F"/>
<path d="M20.207 82.7671L20.5104 82.8884L21.2386 83.1918L21.9667 83.5559V83.6773L22.3308 83.738L22.5129 83.92L22.3915 83.9807L22.4522 84.102L22.1488 83.9807L20.4497 83.0705L20.207 82.8278V82.7671Z" fill="#545457"/>
<path d="M86.6503 75.6675V75.8495L86.4683 76.2136V76.335H86.1649L85.9222 76.3956V76.517L85.6188 76.6384L85.7401 76.699V76.8204L85.3154 76.9418V76.8204L85.0727 76.9418L84.8906 76.8811L85.194 76.5777L86.4683 75.8495L86.6503 75.6675Z" fill="#47454A"/>
<path d="M53.3362 94.5388H53.8217L53.761 94.7209L52.426 95.449L52.3047 95.3883L52.426 95.2063V95.0243L52.7294 94.8422L52.9722 94.7815V94.6602L53.3362 94.5388Z" fill="#272328"/>
<path d="M43.2659 98.9077L43.63 99.1504V99.2718L44.0547 99.3932V99.5145H44.1761L44.1154 99.8179L43.812 99.8786L43.63 99.8179V99.6965L43.2052 99.6359L43.3872 99.5752L43.1445 99.2718L43.2659 98.9077Z" fill="#1C171C"/>
<path d="M47.8164 6.49268L48.1198 6.55336L49.5761 7.40287L50.6077 8.00967L50.547 8.13103L50.3043 8.07035V7.94899L49.9402 7.88831L49.5154 7.52423L49.1514 7.40287L48.848 7.16015L48.7266 7.22083V7.09947H48.6052V6.97811L48.2412 6.91743L48.1805 6.73539L47.9378 6.67471L47.8164 6.61404V6.49268Z" fill="#4A494E"/>
<path d="M31.918 93.0825L32.4641 93.1432L33.4956 93.6893V93.8714L33.6777 94.0534L33.1922 93.932L32.4034 93.5073V93.3859L32.1 93.3252L31.918 93.0825Z" fill="#59595C"/>
<path d="M37.0742 95.6917L37.4383 95.813L38.4698 96.4198L38.5912 96.5412H38.4092L38.3485 96.6018L38.4092 96.7232L37.8631 96.5412L37.3776 96.2378L37.0742 96.0557L37.2563 95.995V96.1164L37.681 96.1771L37.1956 95.9344L37.0742 95.6917Z" fill="#504F52"/>
<path d="M69.0522 81.9175L69.2342 82.0388L67.8993 82.767L67.2925 83.1311L66.8677 83.3738L66.625 83.3131L66.8677 83.1311H66.9891V83.0097L67.4138 82.8277L68.324 82.2816L69.0522 81.9175Z" fill="#4B4A4E"/>
<path d="M10.1948 23.7864H10.3162L10.2555 24.0291H10.4375L10.4982 24.1505H10.3162L10.3769 24.3325L10.3162 24.5145H10.1948V24.6359L9.6487 24.5752V24.3932V24.2718L9.52734 24.2111L10.1948 23.7864Z" fill="#585859"/>
<path d="M17.7773 85.1941L18.0807 85.2548L18.9303 85.6795L19.2337 85.9222H19.0516V86.1043L18.6875 85.9829L17.7773 85.4368V85.2548V85.1941Z" fill="#505052"/>
<path d="M56.1901 7.40283L56.8576 7.76691L57.343 8.07031V8.19167L57.6464 8.25235L57.9498 8.49506L57.5857 8.55574L56.6756 7.94895L55.8867 7.52419L56.0081 7.46351L56.1901 7.52419V7.40283Z" fill="#424045"/>
<path d="M25.0625 88.9563L25.4873 89.017L26.5188 89.5631L26.7008 89.6845L26.7615 89.9272L26.5188 89.8665L25.1232 89.1383L25.0625 88.9563Z" fill="#2B282C"/>
<path d="M45.8125 1.39575L46.4193 1.63847V1.75983L46.662 1.82051L47.2688 2.12391L47.8756 2.54866L47.6329 2.67002L46.1766 1.75983L45.8125 1.51711V1.39575Z" fill="#424045"/>
<path d="M1.63672 76.3955H2.06148L2.60759 76.6989V76.9416L2.91099 77.063L3.39643 77.3057L3.45711 77.4271L3.03235 77.3057L2.30419 76.9416L1.63672 76.5169V76.3955Z" fill="#505052"/>
<path d="M0.547406 25.1821L0.668765 25.2428L0.608086 25.4248L0.486726 25.4855L0.426047 25.6676H0.911484L1.1542 25.7282L1.4576 25.6676L1.21488 25.9103L1.1542 26.0923L0.911484 26.2744L0.850804 26.0316H0.547406L0.365367 25.7889L0.304688 25.4248L0.547406 25.1821Z" fill="#444247"/>
<path d="M74.2725 78.9441H74.5152V79.1261L73.1802 79.8543L72.9375 79.7936L73.2409 79.4902L74.2725 78.9441Z" fill="#464449"/>
<path d="M10.2539 81.0073L10.5573 81.1287L11.4068 81.6141L11.4675 81.8568H11.5889V81.9782L11.2248 81.8568L10.5573 81.4928L10.2539 81.3107V81.1287V81.0073Z" fill="#515052"/>
<path d="M62.8048 85.3762L62.9868 85.4976L61.2878 86.4078L60.9844 86.4685L61.2878 86.1651L61.8339 85.801L62.4407 85.5583L62.8048 85.3762Z" fill="#49474C"/>
<path d="M29.4904 91.5654L29.7331 91.6261L30.0365 91.8081V91.9902L30.3399 92.1115L30.7646 92.2936V92.4149L30.886 92.4756L30.6433 92.5363L30.0972 92.2329V92.1115L29.6724 91.9902L29.551 91.9295V91.8081H29.4297L29.4904 91.5654Z" fill="#5D5D61"/>
<path d="M28.3359 90.8979L28.6393 91.0193L29.5495 91.5047V91.6868H29.4282V91.8081L29.1855 91.7475L28.518 91.3834L28.7607 91.3227L28.5787 91.2013V91.08L28.3359 91.0193V90.8979Z" fill="#525153"/>
<path d="M34.2852 90.4734L34.5279 90.5947L35.074 90.8375L35.9235 91.3229L36.2876 91.5656L36.0449 91.6263L34.4672 90.7768L34.2852 90.6554V90.4734Z" fill="#4B4A4F"/>
<path d="M66.4451 83.3738V83.5558L65.5349 84.1019L64.8675 84.466H64.7461L64.8675 84.2233H64.9888V84.1019L65.9597 83.6165L66.081 83.4951L66.4451 83.3738Z" fill="#49484C"/>
<path d="M78.3359 1.51709H78.518L78.6393 1.82049L78.7607 2.30592L78.8821 2.85204L78.6393 2.67V2.9734H78.5787L78.3359 1.94185V1.51709Z" fill="#424045"/>
<path d="M38.2266 96.4805L38.712 96.5411L38.8334 96.8445L39.6829 97.2693L39.7436 97.3907H39.3795L38.5906 96.9052L38.2872 96.6018L38.2266 96.4805Z" fill="#5C5C60"/>
<path d="M30.4023 88.3496L30.8271 88.471L31.1912 88.653V88.7744L31.4946 88.8957L32.0407 89.2598L31.798 89.3205L30.4023 88.5316V88.3496Z" fill="#4B4A4F"/>
<path d="M21.1758 82.949L21.4792 83.0703L22.1467 83.4344L22.7535 83.7378L22.6928 83.9198L22.3894 83.8592L21.9646 83.6771L21.7826 83.4951L21.4185 83.3131L21.3578 83.1917L21.1758 83.0703V82.949Z" fill="#67686C"/>
<path d="M23.3008 84.1626L23.6649 84.2233L24.5751 84.7694L24.393 84.8908L23.8469 84.7087L23.4221 84.466L23.3008 84.1626Z" fill="#656669"/>
<path d="M78.58 76.699L78.6407 76.881L77.063 77.7305L76.8203 77.7912L76.9417 77.5485L77.9125 77.0631L78.58 76.699Z" fill="#4B4A4E"/>
<path d="M68.9927 0.303467H70.6917V0.364146H69.2961L69.3568 0.667544L69.1141 0.728224L69.0534 0.849583L68.8107 0.728224L68.75 0.546185L68.8107 0.364146L68.9927 0.303467Z" fill="#1C171C"/>
<path d="M27.3047 90.5339L27.6081 90.5946L28.579 91.0801L28.8217 91.3835L28.2756 91.2621L27.7901 90.9587V90.8373L27.5474 90.7767V90.6553L27.3047 90.5339Z" fill="#5F6063"/>
<path d="M87.6216 25.6067L87.6823 25.7887L87.6216 29.0047H87.5609L87.5003 26.1528L87.3789 25.9708V25.7887L87.6216 25.728V25.6067Z" fill="#646568"/>
<path d="M36.4688 95.449L36.9542 95.5703L37.0755 95.631L37.1969 95.8737L37.743 96.1771L37.561 96.2378L37.2576 96.1165V95.9951L36.8328 95.9344L36.6508 95.8131V95.6917H36.5294L36.4688 95.449Z" fill="#606165"/>
<path d="M38.7734 96.6021L39.6836 97.0875L39.987 97.2695V97.3909H39.8657L39.9264 97.6336L39.623 97.5122L39.5016 97.3909L39.6836 97.3302L39.0162 96.9661L38.7734 96.7234V96.6021Z" fill="#515052"/>
<path d="M36.4062 91.687L36.7096 91.7477L37.3164 92.1118L38.0446 92.5365V92.6579L37.6805 92.5365L36.5276 91.8691V91.7477L36.4062 91.687Z" fill="#4B4A4E"/>
<path d="M80.4019 75.7283H80.5232V75.8496L79.0669 76.6385L78.8242 76.5778L79.1276 76.4564V76.3351L79.8558 76.0317L80.4019 75.7283Z" fill="#4C4B50"/>
<path d="M73.6657 0.788818L76.0322 0.849498V0.910178L74.3938 0.970857H72.9375V0.910178L73.6657 0.788818Z" fill="#606163"/>
<path d="M32.6445 89.6238L32.8872 89.6845L33.9188 90.2306L34.1615 90.4733L33.7974 90.4126L32.8266 89.8665L32.6445 89.6238Z" fill="#4C4B50"/>
<path d="M18.8711 81.9783L19.2352 82.0996L19.9633 82.5244V82.6457L19.5992 82.5851L18.8711 82.1603V81.9783Z" fill="#4A494D"/>
<path d="M46.0547 5.46118L46.3581 5.52186L47.693 6.3107V6.43206L47.3896 6.37138V6.25002L47.1469 6.18934L46.9649 6.12866V6.0073L46.6615 5.88594L46.176 5.64322V5.52186L46.0547 5.46118Z" fill="#4A494D"/>
<path d="M30.3398 88.1067L30.7039 88.1674V88.2887L31.068 88.3494L31.3714 88.5314L31.5534 88.5921V88.7135L31.1894 88.7742L31.0073 88.5921L30.7039 88.5314L30.4005 88.228L30.3398 88.1067Z" fill="#67686B"/>
<path d="M77.0024 0.728271H77.1237L77.1844 1.39575L77.0024 1.57779L76.881 1.88118L76.8203 1.75982L76.881 0.788951L77.0024 0.728271Z" fill="#606164"/>
<path d="M20.207 82.7671L20.5104 82.8884L21.2386 83.1918L21.542 83.4952L20.9959 83.3739L20.2677 82.9491L20.207 82.7671Z" fill="#4B494E"/>
<path d="M81.3703 7.52417H81.5524L81.431 8.19165L81.3703 8.37368L80.8242 8.43436L81.1883 8.00961L81.3703 7.52417Z" fill="#48474B"/>
<path d="M72.5115 0.66748L72.9362 0.72816V0.78884L73.361 0.849519V0.910199H72.5115L72.4508 1.03156L72.1474 0.970879L71.7833 1.03156L71.7227 0.910199L71.9654 0.970879L72.0867 0.72816L72.3901 0.78884L72.5115 0.66748Z" fill="#575758"/>
<path d="M42.5352 99.3325L42.8386 99.3932L43.0813 99.4539L43.2026 99.3325L43.3847 99.4539V99.6359L43.6274 99.6966V99.818L44.0521 99.8786L43.8094 100L43.5667 99.9393L42.5352 99.3932V99.3325Z" fill="#58585C"/>
<path d="M52.3047 5.27905H52.6081L52.6688 5.52177L52.9722 5.58245L53.1542 5.64313V5.76449L53.4576 5.82517V5.94653L53.579 6.00721L53.2149 5.94653L52.5474 5.58245L52.3047 5.40041V5.27905Z" fill="#4E4E50"/>
<path d="M15.3516 80.0364L15.655 80.1577L16.5045 80.6432L16.6865 80.8252L16.1404 80.7039L15.4122 80.2791L15.3516 80.0364Z" fill="#4B4A4F"/>
<path d="M12.2581 82.0996L13.229 82.585L14.0178 83.0098L13.7751 83.0705L13.1076 82.7064L12.1367 82.221L12.2581 82.0996Z" fill="#424045"/>
<path d="M0.363547 60.8616H0.424226V61.5897V61.7111V62.1358L0.242188 62.1965V60.9223L0.363547 60.8616Z" fill="#656669"/>
<path d="M79.125 3.03394L79.307 3.09462L79.4284 3.45869L79.3677 4.00481L79.2464 4.06549L79.125 3.64073V3.03394Z" fill="#2B272C"/>
<path d="M84.9519 76.699L85.0732 76.7597L84.8912 77.0024L84.4058 77.2451L84.163 77.3058L84.1024 77.4271H83.7383L84.0417 77.1844L84.9519 76.699Z" fill="#4D4C50"/>
<path d="M47.8164 6.49268L48.1198 6.55336L48.848 6.97811L48.7266 7.22083V7.09947H48.6052V6.97811L48.2412 6.91743L48.1805 6.73539L47.9378 6.67471L47.8164 6.61404V6.49268Z" fill="#48474B"/>
<path d="M13.4727 79.0654L13.8367 79.1868L14.5042 79.5509L14.6256 79.7329L14.2615 79.6722L13.5333 79.2475L13.4727 79.0654Z" fill="#4D4C50"/>
<path d="M10.1927 23.7864H10.3141L10.2534 24.0291H10.4355L10.4961 24.1505L9.7073 24.2718L9.58594 24.1505L10.1927 23.7864Z" fill="#66676B"/>
<path d="M43.7482 4.24756L43.9302 4.30824L44.1729 4.67232V4.79368L43.8089 4.85435L43.6875 4.61164L43.7482 4.24756Z" fill="#68696D"/>
<path d="M40.7148 97.6335H41.1396L41.5037 97.8156L41.625 98.119L41.3823 98.0583L40.7148 97.7549V97.6335Z" fill="#282429"/>
<path d="M56.8558 88.6528H57.0378L56.9771 88.8349L56.0669 89.3203L55.8242 89.2596L56.4917 88.8956L56.8558 88.6528Z" fill="#4E4D51"/>
<path d="M29.3086 87.7427L29.6727 87.864L30.1581 88.1674L30.2188 88.2888L29.8547 88.2281L29.3086 87.9247V87.7427Z" fill="#48474B"/>
<path d="M71.9044 8.1311H72.0258L72.0865 8.31314L72.4505 8.37382L72.5112 8.19178L72.8146 8.25246L72.7539 8.49518L71.8438 8.4345L71.9044 8.1311Z" fill="#575758"/>
<path d="M26.6974 89.7451L27.0615 89.8665L27.6076 90.1699L27.4256 90.2306L27.0008 90.1699L26.7581 89.9878V89.8665L26.6367 89.8058L26.6974 89.7451Z" fill="#403E42"/>
<path d="M18.9943 85.8616L19.419 85.9829L19.6617 86.1043L19.5404 86.347L19.055 86.165L18.9336 85.9223L18.9943 85.8616Z" fill="#5B5B5E"/>
<path d="M51.0938 76.6384L51.5185 76.6991L51.5792 76.8811L51.8219 76.9418V77.2452L51.0938 76.8811V76.6384Z" fill="#66676B"/>
<path d="M51.6388 4.7937L51.9422 4.91506L52.4883 5.21846L52.3063 5.33982L52.0029 5.21846L51.5781 4.97574L51.6388 4.7937Z" fill="#424145"/>
<path d="M39.8047 97.3301L40.2294 97.3908L40.4722 97.5121V97.7548L39.926 97.6335L39.8047 97.5121V97.3301Z" fill="#5C5C5E"/>
<path d="M25.4844 89.5024L26.0305 89.6238V89.7452L26.3946 89.8665V89.9879L26.6373 90.1092L26.5159 90.1699L26.2732 89.9879L26.0305 89.9272V89.8058L25.6057 89.6845L25.4844 89.5024Z" fill="#66676B"/>
<path d="M48.3 96.7839L48.6034 96.8446V96.966L48.2393 97.0873L47.8753 97.3907L47.7539 97.148L47.8753 97.0267L48.1787 96.966L48.3 96.7839Z" fill="#1C181D"/>
<path d="M41.5039 94.5996L41.9893 94.6603L42.2927 94.9637L42.1107 95.0244L41.5039 94.721V94.5996Z" fill="#515054"/>
<path d="M17.9609 81.5535L18.2643 81.6141L18.8105 81.9175L18.8711 82.0996L18.5071 81.9782L17.9609 81.6748V81.5535Z" fill="#4D4C50"/>
<path d="M77.6091 77.2451L77.7305 77.3665L76.9417 77.7912H76.8203L76.9417 77.5485L77.6091 77.2451Z" fill="#4D4C50"/>
<path d="M38.8945 96.8447L39.6834 97.2695L39.744 97.3908H39.38L39.0766 97.2088L38.8945 96.9661V96.8447Z" fill="#5B5B5F"/>
<path d="M60.9216 86.4077L61.1037 86.5291L60.2542 87.0145H60.1328L60.2542 86.7718L60.4362 86.6504H60.6789V86.5291L60.9216 86.4077Z" fill="#4D4C50"/>
<path d="M6.85547 78.9441L7.21955 79.0048L7.46226 79.1868L7.40159 79.3688L7.03751 79.2475L6.85547 79.0655V78.9441Z" fill="#312E32"/>
<path d="M82.7071 77.9126L82.8284 77.9733L82.7071 78.1553L82.2216 78.398L81.7969 78.4587L82.0396 78.2767L82.7071 77.9126Z" fill="#4D4C50"/>
<path d="M44.9023 4.73291L45.1451 4.79359L45.9339 5.27903V5.40039H45.7519V5.27903L45.4485 5.15767L44.963 4.91495L44.9023 4.73291Z" fill="#49474C"/>
<path d="M47.7539 2.60913L48.1787 2.66981L48.4821 2.91253V3.03389L48.1787 2.97321L47.7539 2.73049V2.60913Z" fill="#49484C"/>
<path d="M49.5154 96.0559L49.6368 96.1166L49.5154 96.3593H49.212L49.0906 96.602L48.7266 96.5413L48.9693 96.3593L49.5154 96.0559Z" fill="#48464B"/>
<path d="M62.8024 85.3762L62.9844 85.4976L62.1956 85.9223H62.0742L62.1956 85.6796L62.8024 85.3762Z" fill="#4C4B4F"/>
<path d="M8.13281 79.9758L8.43621 80.0365L8.80029 80.2792L8.86097 80.4006L8.43621 80.3399L8.13281 80.0365V79.9758Z" fill="#606164"/>
<path d="M37.0742 95.6917L37.4383 95.813L37.9237 96.1164L37.7417 96.2378L37.1349 95.8737L37.0742 95.6917Z" fill="#525254"/>
<path d="M30.4023 88.3496L30.8271 88.471L31.1912 88.653L30.9485 88.7744L30.6451 88.653L30.4023 88.5316V88.3496Z" fill="#515053"/>
<path d="M49.1523 3.3374L49.4557 3.45876L50.0019 3.76216L49.8198 3.88352L49.5164 3.76216L49.213 3.51944L49.1523 3.3374Z" fill="#424045"/>
<path d="M28.9453 87.3787H29.3094L29.4307 87.4393V87.5607L29.7341 87.6214V87.8034L29.1274 87.5607L28.9453 87.3787Z" fill="#68696D"/>
<path d="M35.4961 91.1409L36.1029 91.4443L36.2849 91.6263L35.9209 91.5656L35.4961 91.3229V91.1409Z" fill="#4C4B50"/>
<path d="M11.4062 81.6748L11.7703 81.7962L12.1344 81.9782L12.0737 82.0996L11.7703 82.0389L11.649 82.0996L11.5276 81.9782L11.5883 81.8568H11.4669L11.4062 81.6748Z" fill="#424045"/>
<path d="M77.6081 0.182129H78.2149V0.364168L78.1542 0.242809L77.7294 0.303488V0.546207V0.728245L77.3047 0.546207L77.4867 0.485527V0.364168H77.6081V0.182129Z" fill="#4D4B50"/>
<path d="M19.6607 86.165L20.0248 86.2864L20.2068 86.4684L20.0248 86.5291L19.7214 86.4078L19.6 86.4684L19.418 86.2864L19.6607 86.165Z" fill="#4F4F51"/>
<path d="M55.582 7.22095H55.9461L56.2495 7.52435L56.1281 7.58502L55.582 7.34231V7.22095Z" fill="#4B4A4D"/>
<path d="M37.2578 92.1116L37.7432 92.3543L38.0466 92.5363V92.6577L37.6826 92.5363L37.2578 92.2936V92.1116Z" fill="#4D4C51"/>
<path d="M63.5308 88.4102L63.6521 88.4708V88.5922L63.3487 88.7136L63.0453 88.8956L62.8633 88.7742L63.5308 88.4102Z" fill="#4A494D"/>
<path d="M21.4203 83.313L21.7844 83.4343L21.9664 83.6164L21.6024 83.6771L21.2383 83.495L21.481 83.4343L21.4203 83.313Z" fill="#58595A"/>
<path d="M42.5352 99.3325L42.8386 99.3932L43.0813 99.4539L43.2026 99.3325L43.3847 99.4539V99.5752L43.0206 99.6359L42.5352 99.3932V99.3325Z" fill="#4C4B4F"/>
<path d="M66.4427 83.3738V83.5558L65.9573 83.8592H65.8359L65.9573 83.6165L66.0787 83.4951L66.4427 83.3738Z" fill="#4B494E"/>
<path d="M14.0156 83.0703L14.319 83.1917L14.8045 83.4344L14.7438 83.5557L14.3797 83.4344L14.0156 83.1917V83.0703Z" fill="#424045"/>
<path d="M49.8164 3.82275L50.2412 3.88343L50.4232 4.18683L50.1198 4.12615L49.8164 3.94411V3.82275Z" fill="#4A494C"/>
<path d="M30.0352 91.8083L30.7633 92.1724V92.2938L30.3386 92.1724L30.0352 91.9904V91.8083Z" fill="#525254"/>
<path d="M27.6094 90.2305L27.9735 90.3518L28.6409 90.7766L28.3982 90.8373L27.9128 90.4732L27.6094 90.2911V90.2305Z" fill="#57565A"/>
<path d="M16.082 84.0413L16.5068 84.1019L16.6888 84.284L16.3854 84.3447L16.082 84.1626V84.0413Z" fill="#2D2A2E"/>
<path d="M74.9404 78.6409L75.1831 78.7622L74.637 79.0656H74.5156L74.637 78.8229L74.9404 78.6409Z" fill="#4C4A4F"/>
<path d="M81.3117 75.2427H81.4938V75.364L81.0083 75.6068L80.7656 75.5461L81.1297 75.3034L81.3117 75.2427Z" fill="#4C4B4F"/>
<path d="M59.3438 9.40527L59.7685 9.46595L60.0112 9.70867L59.9505 9.83003L59.3438 9.52663V9.40527Z" fill="#4D4C4F"/>
<path d="M58.918 9.1626H59.1L59.3427 9.22328L59.5854 9.466H59.1607L58.918 9.28396V9.1626Z" fill="#424045"/>
<path d="M80.7031 7.58496L80.9458 7.64564L81.0672 7.767V8.00972H80.8245L80.7031 7.767V7.58496Z" fill="#444246"/>
<path d="M44.2344 4.24756L44.5378 4.36892L44.7805 4.55096V4.67232L44.5378 4.61164L44.4164 4.67232L44.2344 4.4296V4.24756Z" fill="#48474B"/>
<path d="M38.2891 92.7185L38.5318 92.7792L39.0172 93.0826L38.7745 93.1433L38.3497 92.9005L38.2891 92.7185Z" fill="#4B4A4E"/>
<path d="M28.457 90.8374L28.8818 90.8981L29.0031 91.2015L28.6391 91.0801L28.457 90.9588V90.8374Z" fill="#241F24"/>
<path d="M13.8344 83.0703H14.0164L14.3198 83.3737V83.4951L14.0164 83.3737L13.6523 83.1917L13.8344 83.0703Z" fill="#4E4D50"/>
<path d="M66.9891 83.0098H67.2318L67.1711 83.1918L66.8677 83.3738L66.625 83.3132L66.8677 83.1311H66.9891V83.0098Z" fill="#47464A"/>
<path d="M83.1925 77.6699L83.3138 77.7306L83.1925 77.9733L82.707 78.0947L82.8284 77.852L83.1925 77.6699Z" fill="#464549"/>
<path d="M57.6445 8.43457L58.0086 8.55593L58.312 8.73797V8.79865H57.8872V8.67729L57.7052 8.61661L57.6445 8.43457Z" fill="#4E4D50"/>
<path d="M1.15234 75.7888H1.39506L1.45574 75.9709L1.75914 76.0922L1.81982 76.2743L1.45574 76.1529L1.15234 75.9102V75.7888Z" fill="#1C171C"/>
<path d="M69.0518 81.9175L69.2339 82.0388L68.6878 82.3422H68.5664L68.6878 82.0995L69.0518 81.9175Z" fill="#4E4D51"/>
<path d="M57.4651 8.19165L57.9505 8.43437L57.7078 8.55573L57.4044 8.43437L57.3438 8.25233L57.4651 8.19165Z" fill="#444247"/>
<path d="M52.6094 5.33984L52.8521 5.40052L53.4589 5.7646L53.3375 5.82528L53.1555 5.7646V5.64324L52.6701 5.52188L52.6094 5.33984Z" fill="#424045"/>
<path d="M50.3633 4.00488L50.9094 4.30828L50.6667 4.42964L50.3633 4.18692V4.00488Z" fill="#424045"/>
</svg>
