<svg width="162" height="120" viewBox="0 0 162 120" fill="none" xmlns="http://www.w3.org/2000/svg">
<path d="M44.1509 0H49.8113L53.2076 1.13208L55.4717 2.83019L57.4528 4.81132L61.6981 11.0377L69.6226 22.3585L74.1509 28.8679L77.5472 33.6792L80.0943 37.3585L81.5094 35.9434L85.1887 30.566L101.038 7.92453L103.302 4.81132L105.849 2.54717L108.679 0.849057L111.226 0H116.887L119.717 0.849057L122.83 2.83019L125.094 4.81132L128.774 9.90566L131.887 14.434L135.849 20.0943L140.377 26.6038L144.34 32.2641L147.736 37.0755L152.264 43.5849L156.226 49.2453L159.057 53.4906L160.472 56.8868L161.038 61.4151L160.189 65.9434L158.491 69.0566L156.509 71.3208L153.679 73.0189L151.415 73.8679L150.283 74.1509H145.472L141.509 72.7358L138.396 70.7547L136.132 68.4906L132.453 63.1132L128.491 57.4528L123.962 50.9434L120 45.283L116.604 40.4717L114.34 37.0755L113.774 36.7924L113.208 38.2075L109.528 43.3019L105.849 48.6792L102.453 53.4906L98.4906 59.1509L93.9623 65.6604L91.6981 68.7736L88.8679 71.6038L86.0377 73.3019L82.9245 74.434H78.1132L74.434 73.3019L71.3208 71.3208L69.0566 69.3396L65.6604 64.5283L61.1321 58.0189L57.1698 52.3585L54.3396 48.3962L51.7925 44.717L47.8302 39.0566L46.9811 37.6415L45.8491 38.2075L39.6226 47.2641L32.8302 56.8868L29.717 61.4151L27.1698 65.0943L24.0566 69.3396L23.2075 69.6226V70.1887L20.3774 72.1698L17.2642 73.5849L15.283 74.1509H10.1887L6.79245 72.7358L4.24528 71.0377L2.26415 68.7736L0.849057 65.9434L0 62.5472V59.1509L0.849057 55.7547L3.11321 51.5094L6.79245 46.4151L11.3208 39.9057L14.434 35.3774L17.8302 30.566L22.3585 24.0566L25.7547 19.2453L28.8679 14.717L32.2642 9.90566L35.0943 5.9434L37.6415 3.11321L40.7547 1.13208L42.7359 0.283019L44.1509 0Z" fill="#010101"/>
<path d="M44.1509 0H49.8113L53.2076 1.13208L55.4717 2.83019L57.4528 4.81132L61.6981 11.0377L69.6226 22.3585L74.1509 28.8679L77.5472 33.6792H76.6981L72.7359 31.1321L69.6226 30H63.3962L60.8491 31.1321L58.3019 32.8302L56.6038 34.8113L54.9057 38.2076L54.0566 41.8868L54.3396 44.717L55.4717 48.6792L55.1887 49.5283L53.2076 46.6981L49.8113 41.8868L46.9811 37.6415L45.8491 38.2076L39.6226 47.2642L32.8302 56.8868L29.717 61.4151L27.1698 65.0943L24.0566 69.3396L23.2075 69.6226V70.1887L20.3774 72.1698L17.2642 73.5849L15.283 74.1509H10.1887L6.79245 72.7359L4.24528 71.0377L2.26415 68.7736L0.849057 65.9434L0 62.5472V59.1509L0.849057 55.7547L3.11321 51.5094L6.79245 46.4151L11.3208 39.9057L14.434 35.3774L17.8302 30.566L22.3585 24.0566L25.7547 19.2453L28.8679 14.717L32.2642 9.90566L35.0943 5.9434L37.6415 3.11321L40.7547 1.13208L42.7359 0.283019L44.1509 0Z" fill="#FF120E"/>
<path d="M123.394 3.67969L124.526 4.24573L127.357 7.92497L130.47 12.4533L133.866 17.2646L137.828 22.925L142.357 29.4344L145.753 34.2457L149.715 39.9061L154.243 46.4155L158.206 52.0759L160.187 56.0382L160.753 58.0193L161.036 61.4155L160.187 65.9438L158.489 69.057L156.508 71.3212L153.677 73.0193L151.413 73.8684L150.281 74.1514H145.47L141.508 72.7363L138.394 70.7552L136.13 68.491L132.451 63.1136L128.489 57.4533L123.96 50.9438L119.998 45.2835L116.602 40.4721L114.055 36.7929L114.621 35.3778L117.451 31.4155L123.677 22.3589L125.941 18.3967L126.791 15.2835V12.4533L126.224 9.62308L124.809 6.22686L123.394 3.67969Z" fill="#FF120E"/>
<path d="M19.5259 90H23.2052L26.3184 91.1321L28.5825 93.1132V93.6792H29.1486L29.7146 92.5472L31.1297 91.4151L33.6769 90.283L35.092 90H38.7712L42.4505 91.1321L44.9976 93.1132L46.6958 95.9434L47.5448 98.4906L47.8278 100.472V115.189L47.5448 119.151H39.3373L39.0542 101.604L38.4882 99.6226L37.3561 98.4906L36.5071 98.2075H33.6769L32.2618 99.0566L31.1297 101.038L30.8467 118.868L30.5637 119.151H22.3561L22.0731 101.038L21.2241 99.3396L20.375 98.4906L19.5259 98.2075H16.9788L15.2807 98.7736L14.7146 99.9057L14.1486 101.321L13.8656 119.151H5.375V90.8491H13.8656L14.1486 92.8302L16.1297 91.1321L18.1108 90.283L19.5259 90Z" fill="#020101"/>
<path d="M63.961 90H67.6403L71.3195 91.1321L74.1497 93.1132V90.8491H82.6403V118.868L82.3572 119.151H74.1497V116.887L71.3195 118.868L68.7723 119.717L64.8101 120L60.8478 119.151L57.4516 117.17L54.9044 114.34L52.9233 110.377L52.0742 106.415V103.302L53.2063 98.7736L54.9044 95.6604L57.4516 92.8302L60.2818 91.1321L63.961 90Z" fill="#020101"/>
<path d="M109.527 79.5273H118.301L118.584 102.452L122.829 96.2255L125.659 91.9802L126.508 90.8481H136.414L135.282 92.8292L131.603 97.9236L127.641 103.301L126.791 104.433L127.075 105.848L134.999 116.603L136.414 118.584V119.15H127.075L119.716 108.961L118.584 107.263H118.301V114.339L118.018 119.15H109.81L109.527 102.452V79.5273Z" fill="#050101"/>
<path d="M146.603 90H150.565L153.961 90.8491L157.074 92.8302L159.056 94.8113L159.622 96.2264L153.395 99.6226L152.263 99.9057L150.848 98.2075L149.999 97.9245H147.169L146.603 98.4906L146.886 99.9057L149.716 101.038L154.244 102.453L157.074 103.868L159.056 106.132L160.188 108.962V111.792L159.339 114.906L157.357 117.17L155.942 118.302L153.112 119.434L149.999 120H146.886L143.49 119.434L140.659 118.302L138.112 116.321L136.414 113.774L136.697 112.925L141.508 110.094L142.923 109.245L144.056 109.811L145.471 111.509L147.169 112.075H149.716L151.131 111.792V110.094L148.867 108.962L142.923 106.981L140.093 105.283L138.395 103.302L137.546 101.038V97.6415L138.678 94.5283L140.659 92.2642L144.056 90.566L146.603 90Z" fill="#020101"/>
<path d="M103.869 90.2832H105.85V99.6228L105.567 99.9058L102.171 100.189L99.6237 101.321L97.9256 103.585L97.6425 104.151L97.0765 119.151H88.869L88.5859 107.264V90.8492H97.3595L97.6425 94.5285L100.19 91.6983L102.737 90.5662L103.869 90.2832Z" fill="#080101"/>
<path d="M65.3777 98.207H69.34L71.6041 99.3391L73.3023 101.32L74.1513 103.584V106.698L72.7362 109.528L70.7551 111.226L69.057 111.792H65.3777L63.1136 110.66L61.4155 108.679L60.5664 106.415V103.584L61.6985 101.037L63.3966 99.0561L65.3777 98.207Z" fill="#FEFEFD"/>
</svg>
