<svg width="144" height="120" viewBox="0 0 144 120" fill="none" xmlns="http://www.w3.org/2000/svg">
<path d="M67.6794 27.2578H68.9498L69.1808 27.3733V36.4975L69.0653 36.613L66.1779 37.1904L63.637 37.9989L61.9046 38.6919L60.0567 39.7313L58.4397 40.7708L57.2848 41.8103L55.5523 43.3117L54.3974 44.4667L53.9354 45.1596L52.665 46.8921L51.3945 49.0865L50.1241 52.2049L49.5466 54.1683L49.0846 57.1712L48.9691 58.4416V60.5205L49.4311 63.8699L49.8931 65.8333L50.9325 68.6052L52.3185 71.3771L53.0114 72.4166L54.5129 74.38L56.3608 76.3434L57.0538 76.9209V77.1519L57.6313 77.3829V77.6139L58.2087 77.8449V78.0759L58.7862 78.3069L60.7496 79.4618L62.5976 80.3858L64.6765 81.1943L67.3329 81.8872L69.0653 82.2337L69.1808 82.3492V90.7804L69.0653 91.4734H66.9864L64.4455 91.2424L60.8651 90.5494L58.9017 89.9719L56.1298 88.9325L53.9354 87.893L51.741 86.6226L50.4705 85.6986L49.0846 84.7746L47.8141 83.7352L46.7747 82.8112L45.9662 81.8872L45.0422 81.0788L44.0028 79.8083L43.1943 78.8843L42.2704 77.4984L41.6929 76.6899L40.9999 75.4195L40.1914 74.0335L39.383 72.3011L38.69 70.5687L38.3435 69.4137L37.997 68.3742L37.535 66.7573L36.9576 63.7544L36.7266 61.2135V57.2867L37.073 54.5148L37.766 51.1654L38.5745 48.509L39.2675 46.6611L40.7689 43.7737L42.2704 41.2328L43.0788 40.1933L44.2338 38.8074L45.2732 37.5369L46.7747 36.151L47.4677 35.3425L49.0846 34.0721L51.1635 32.5706L53.5889 31.0692L55.5523 30.0297L59.1327 28.7593L61.7891 28.0663L65.254 27.4888L67.6794 27.2578Z" fill="#7A5349"/>
<path d="M74.8398 27.2578L77.8427 27.3733L80.7301 27.7198L84.0795 28.5283L86.3894 29.3367L88.5838 30.2607L91.3557 31.6466L93.4346 33.0326L94.8206 34.0721L95.9755 35.1115L97.477 36.2665L98.5164 37.4214L98.9784 38.1144L99.9024 38.9229L102.212 42.1567L103.252 44.0047L104.522 46.4301L105.677 49.433L106.601 52.8978L106.486 53.5908L105.677 54.5148L102.559 57.6332L101.635 58.4416L101.057 59.0191L100.711 59.5966L101.173 59.8276L102.443 61.098L103.252 62.022L105.446 64.2164L106.024 64.6784L106.601 65.2559L106.486 66.4108L106.024 68.1433L105.331 70.3377L104.06 73.3406L102.905 75.535L101.981 77.0364L100.826 78.6534L99.7869 79.9238L98.8629 80.9633H98.6319L98.4009 81.4252L97.939 82.0027L97.1305 82.6957L95.7445 84.0816L93.8966 85.4676L92.0487 86.738L90.2008 87.7775L88.0063 88.817L85.5809 89.7409L84.7725 90.0874L81.6541 90.8959L79.4597 91.2424L77.1498 91.4734H74.8398V82.2337L77.8427 81.6562L79.6907 81.0788L80.9611 80.5013L82.809 79.6928L83.3865 79.5773V79.3463L83.733 79.1153H84.0795V78.8843L85.3499 78.0759L86.7359 76.9209L87.6599 76.1124L89.7388 74.0335L91.1247 72.0701L91.8177 71.0306L93.3191 67.9123L93.8966 66.1798L94.1276 65.3714L93.3191 64.4474L90.2008 61.329L89.1613 60.405V60.1741H88.9303L88.4683 59.4811L88.5838 59.0191L89.3923 58.0951L90.3163 57.2867L91.7022 55.9007L92.6262 55.0923L93.4346 54.2838L93.5501 54.0528H93.7811L93.8966 53.7063H94.1276L93.7811 52.0894L92.6262 49.3175L92.1642 48.3935L91.2402 46.8921L90.5472 46.0836L89.9698 45.1596L88.9303 44.0047L88.1218 43.0807L86.8514 41.9258L85.5809 40.8863L83.6175 39.6158L81.8851 38.6919L79.6907 37.7679L77.4962 37.0749L74.8398 36.613V27.2578Z" fill="#7A5349"/>
<path d="M72.414 0L72.9915 0.115496L73.9155 0.923965L74.493 1.50144L75.1859 2.07892L76.3409 3.69586L77.2649 5.1973L77.8423 6.81424L78.3043 8.54667V10.6256L77.9578 12.358L77.4958 13.513L75.9944 16.2849L74.9549 17.9018L73.8 19.1723L73.107 20.2117L72.2985 20.0962L71.6056 18.5948L71.0281 16.1694L70.9126 15.5919V10.7411L70.4506 12.7045V16.0539L71.0281 18.3638L71.9521 20.5582L72.2985 21.3667V23.0991H72.5295L72.414 23.9076V38.922L72.5295 44.2348L77.4958 45.2743L78.5353 45.7363L78.6508 50.8181L79.2283 51.28L79.5748 51.3955L82.1157 51.511L83.1551 52.3195L83.7326 53.4745L83.9636 54.2829L83.8481 54.9759L83.2706 56.1309L82.1157 56.9393L80.8452 57.2858L80.2677 57.1703L78.7663 56.0154L78.3043 54.9759L78.1888 54.7449V53.2435H78.6508L77.7268 51.973L77.3803 51.742L77.1494 51.1646L77.0339 51.0491L76.9184 46.6602L75.5324 46.5447L72.9915 45.9673L72.414 45.8518V48.1617L73.107 48.3927L75.0704 48.9701L75.4169 49.0856L75.5324 56.1309L75.6479 57.8633L75.9944 58.4408L77.3803 59.9422L77.9578 60.5197L78.6508 60.7507L79.8058 60.4042H80.4987L81.8847 61.0972L82.5776 62.1366L82.9241 63.1761L82.3467 65.024L81.7692 65.717L80.4987 66.179H79.4593L78.4198 65.8325L77.6113 64.9085L77.2649 63.9846V62.5986L77.4958 62.2521L75.9944 60.7507L75.1859 59.8267L74.7239 59.4802L74.3775 59.1338V58.9028L73.9155 58.4408L73.8 50.3561L73.338 50.1251L72.5295 50.0096V68.4889L73.569 69.1819L74.262 70.1058L74.7239 71.1453L74.493 72.1848L74.031 72.8777L72.9915 73.9172L72.5295 74.1482H71.1436L70.3351 73.8017L69.7576 73.2242L69.0647 72.6467L68.9492 71.9538V70.4523L69.5266 69.4129L70.6816 68.6044L70.9126 68.4889V53.359L70.7971 52.435L69.1802 52.897L69.0647 63.5226L68.8337 64.3311L67.3322 65.717L66.4083 66.641L66.0618 67.2184L65.8308 69.0664L65.3688 70.5678L64.2138 71.1453L63.8674 71.3763H62.5969L61.5574 70.7988L60.6335 69.8748L60.4025 68.8354V68.0269L60.8645 66.641L61.9039 65.8325L62.9434 65.717L65.2533 65.8325L65.4843 65.3705L66.7548 63.9846L67.5632 62.9451L67.6787 51.8575H68.0252L68.1407 51.511L70.4506 50.9336L70.7971 50.8181V47.9307L69.0647 48.6236L66.9857 49.3166L66.0618 49.6631L65.2533 49.8941L65.1378 56.7083L64.9068 57.5168L63.1744 59.2492L63.2899 59.8267L63.4054 59.9422V61.5592L63.1744 62.9451L61.7884 63.5226L61.3265 63.7536H59.594L58.3236 62.5986L57.7461 61.6747L57.8616 60.5197L58.0926 59.7112L58.5546 58.7873L58.901 58.4408L60.6335 58.0943L61.7884 58.2098L63.5209 56.8238L63.6364 56.2464L63.7519 49.6631L63.8674 48.7391L65.9463 47.9307L70.1041 46.5447L71.0281 46.3137V20.9047L70.7971 19.7497L69.4111 18.3638L68.7182 17.7863L67.9097 16.7469L66.6393 14.437L66.4083 13.3975V11.2031L66.7548 9.58614L68.6027 5.89028L69.4111 4.61982L70.6816 3.11838L71.7211 1.73243L71.9521 0.692974H72.183L72.414 0Z" fill="#8FC04D"/>
<path d="M69.5301 38.8066H70.454L70.5695 40.3081L66.9892 41.0011L65.1412 41.5785L62.3694 42.849L61.2144 43.542L59.3665 44.9279L57.634 46.6603L55.5551 49.2012L54.1692 51.8576L53.0142 55.9L52.6677 58.4409V60.0578L53.0142 63.0607L53.7072 65.6016L54.9776 68.6045L55.9016 69.9904L56.8256 71.2609L57.865 72.4159L59.251 73.8018L60.9834 75.0723L61.5609 75.5342L64.5638 77.0357L67.5667 77.9596L69.7611 78.3061H73.2259L76.3443 77.8442L78.3077 77.2667L80.9641 76.1117L82.1191 75.1878L83.8515 73.9173L85.353 72.5314L86.2769 71.4919L87.7784 69.413L88.4714 68.3735L89.0488 66.9876L89.2798 66.1791L89.1643 65.6016L85.4685 61.9058L84.66 60.9818L83.6205 60.1733L83.3895 59.8268V59.2494L84.66 57.9789L85.584 57.1704L88.8178 53.9366L89.0488 53.3591L89.6263 53.2436L89.1643 51.6267L88.1249 49.7787L86.3924 47.2378L85.9305 46.6603L85.0065 45.8519L83.6205 44.5814L82.1191 43.4265L80.1557 42.387L77.2683 41.232L74.6119 40.6546L73.1104 40.4236L72.9949 40.3081L72.8794 38.9221L72.9949 38.8066L74.6119 38.9221L76.5753 39.2686L78.5387 39.8461L80.6177 40.7701L82.8121 41.925L84.429 43.08L85.6995 44.2349L86.6234 45.0434L87.5474 45.9674L88.8178 47.8153L90.2038 50.2407L91.0123 51.7421L91.3587 53.1281L91.2433 53.8211L89.5108 55.669L87.6629 57.4014L86.6234 58.4409L86.0459 58.9029L85.6995 59.3649L85.815 59.8268L88.9333 62.9452L89.8573 63.7537L91.1278 65.1396L91.3587 65.4861L91.2433 66.4101L90.3193 68.6045L88.5869 71.4919L87.4319 72.8778L87.0854 73.4553L86.6234 74.0328L85.9305 74.3793L84.7755 75.5342L83.3895 76.5737L80.8486 77.9596L78.5387 78.9991L76.4598 79.5766L74.6119 79.9231L73.4569 80.0386H69.5301L66.1807 79.4611L63.6398 78.5371L60.6369 76.9202L58.558 75.4187L57.403 74.3793L56.5946 73.5708L55.5551 72.3004L54.7466 71.3764L53.0142 68.6045L52.0902 66.1791L51.5128 63.9847L51.0508 61.6748V57.1704L51.6283 54.283L52.8987 50.5872L53.8227 48.8548L55.2086 46.8913L56.1326 45.7364L56.7101 45.1589H56.9411L57.172 44.6969L57.9805 43.8884L59.5975 42.618L60.7524 41.8095L62.0229 41.1166L63.4088 40.4236L66.5272 39.3841L69.5301 38.8066Z" fill="#C1896C"/>
<path d="M72.9944 38.8066L74.6113 38.9221L76.5748 39.2686L78.5382 39.8461L80.6171 40.7701L82.8115 41.925L84.4285 43.08L85.6989 44.2349L86.6229 45.0434L87.5468 45.9674L88.8173 47.8153L90.2032 50.2407L91.0117 51.7421L91.3582 53.1281L91.2427 53.8211L89.5103 55.669L87.6623 57.4014L86.6229 58.4409L86.0454 58.9029L85.6989 59.3649L85.8144 59.8268L88.9328 62.9452L89.8568 63.7537L91.1272 65.1396L91.3582 65.4861L91.2427 66.4101L90.3187 68.6045L88.5863 71.4919L87.4314 72.8778L87.0849 73.4553L86.6229 74.0328L85.9299 74.3793L84.775 75.5342L83.389 76.5737L80.8481 77.9596L78.5382 78.9991L76.4593 79.5766L75.9973 79.4611L77.0367 78.9991L78.7692 78.4216L80.5016 77.6132L82.465 76.5737L82.927 76.3427L82.8115 76.1117L81.8876 75.9962V75.7652L81.4256 75.8807L82.0031 75.3032L83.851 73.9173L85.3524 72.5314L86.2764 71.4919L87.7778 69.413L88.4708 68.3735L89.0483 66.9876L89.2793 66.1791L89.1638 65.6016L85.4679 61.9058L84.6595 60.9818L83.62 60.1733L83.389 59.8268V59.2494L84.6595 57.9789L85.5834 57.1704L88.8173 53.9366L89.0483 53.3591L89.6258 53.2436L89.1638 51.6267L88.1243 49.7787L86.3919 47.2378L85.9299 46.6603L85.0059 45.8519L83.62 44.5814L82.1186 43.4265L80.1551 42.387L77.2677 41.232L74.6113 40.6546L73.1099 40.4236L72.9944 40.3081L72.8789 38.9221L72.9944 38.8066Z" fill="#CA9276"/>
<path d="M64.4468 17.4395H65.7173L66.8722 17.6704L68.2582 18.3634L69.4131 19.2874L70.4526 20.4423L70.5681 20.6733V21.7128L70.3371 22.1748L69.6441 22.6368L68.8356 23.4452L68.1427 24.2537L66.9877 25.1777L66.6412 25.2932L66.5257 25.6396L63.8693 26.4481H62.3679L60.52 25.8706L59.134 25.2932L58.0945 24.4847L56.9396 23.4452L56.0156 22.5213V22.1748L57.8636 21.2508L59.365 19.9804L61.0974 18.8254L63.6383 17.5549L64.4468 17.4395Z" fill="#8FC04D"/>
<path d="M86.9676 98.6328H88.238V101.751H96.0917V109.72H86.6211V98.7483L86.9676 98.6328Z" fill="#654937"/>
<path d="M10.9727 101.752H20.5588V109.721H10.9727V101.752Z" fill="#674A39"/>
<path d="M58.3264 101.752H67.7971V109.721H58.2109V101.867L58.3264 101.752Z" fill="#644837"/>
<path d="M100.828 101.867H110.299V109.721H100.828V101.867Z" fill="#644836"/>
<path d="M77.844 18.248L80.7314 18.71L83.1568 19.403L84.1963 19.5185L84.0808 20.096L83.1568 21.9439L82.4639 22.9834L81.3089 24.1383L79.3455 25.1778L78.8835 25.2933H77.6131L75.7651 24.7158L73.6862 23.9073V23.6763H73.1087L72.8777 23.0989H72.5312V22.5214H72.8777L72.7622 21.9439L72.9932 21.2509L73.2242 21.1354L73.8017 19.9805L74.3792 19.634V19.403L75.5341 18.71L75.9961 18.479L77.7286 18.3635L77.844 18.248Z" fill="#8FC04D"/>
<path d="M122.773 101.752H132.244L132.36 101.867V103.369H124.39V104.87H132.36V106.603H124.506V107.989H132.36V109.721H122.773V101.752Z" fill="#694C3A"/>
<path d="M33.0312 101.752H42.6174V103.369H34.7637V104.87H42.6174V106.603H34.7637V108.104H42.6174V109.721H33.0312V101.752Z" fill="#684B39"/>
<path d="M44.1211 101.752H53.5917V103.369H45.738V104.87H53.5917V109.721H44.1211V108.104H51.9748V106.603H44.1211V101.752Z" fill="#684B39"/>
<path d="M111.801 98.6328H113.418V101.751H121.271V103.368H113.418V108.103L117.345 107.988H121.271L121.387 108.334V109.72H111.801V98.6328Z" fill="#664A38"/>
<path d="M22.0586 98.6328H23.6755V101.751H31.5292V109.72H29.9123V103.368H23.6755V109.72H22.0586V98.6328Z" fill="#644836"/>
<path d="M0 101.752H9.58613V103.369H1.61694L1.73243 107.989L9.58613 108.104V109.721H0V101.752Z" fill="#654937"/>
<path d="M133.859 101.867H143.33V103.369H135.476L135.592 103.6V107.988H143.33V109.721H133.859V101.867Z" fill="#674B38"/>
<path d="M69.2969 101.752H77.2661V103.369H78.883V109.721H77.1506V103.369L71.0293 103.484L70.9138 109.721H69.2969V101.752Z" fill="#664A38"/>
<path d="M59.9436 103.369H66.1804V107.989L66.0649 108.104H59.9436L59.8281 107.989V103.485L59.9436 103.369Z" fill="white"/>
<path d="M69.5286 38.8066H70.4526L70.5681 40.3081L66.9877 41.0011L65.1398 41.5785L62.3679 42.849L61.213 43.542L59.365 44.9279L57.6326 46.6603L55.5537 49.2012L54.1677 51.8576L53.0128 55.9L52.7818 57.4014H52.6663L52.5508 56.362L53.5902 52.4351L54.0522 51.3957L55.5537 48.6238L56.5931 47.3533L57.5171 46.3139L57.6326 45.7364L57.2861 45.9674H56.9396V45.7364L56.3621 45.9674L55.9002 46.6603L54.5142 48.6238L53.0128 51.3957L52.5508 51.8576L52.7818 50.8182L53.8212 48.8548L55.2072 46.8913L56.1311 45.7364L56.7086 45.1589H56.9396L57.1706 44.6969L57.9791 43.8884L59.596 42.618L60.751 41.8095L62.0214 41.1166L63.4074 40.4236L66.5257 39.3841L69.5286 38.8066Z" fill="#CA9276"/>
<path d="M12.7031 103.369H18.8244V108.104H12.7031V103.369Z" fill="white"/>
<path d="M88.2383 103.369H94.475V107.989H88.2383V103.369Z" fill="white"/>
<path d="M102.445 103.369H108.567V107.989H102.445V103.369Z" fill="white"/>
<path d="M112.494 102.676H112.725L112.84 102.907L113.071 102.791V103.253H113.418L113.187 103.831V106.834L113.302 108.104L117.345 107.989H121.271L121.387 108.335V109.721H111.801L112.147 109.49L111.916 109.144V104.986H112.147V103.022H112.378L112.494 102.676Z" fill="#684C3A"/>
<path d="M96.7852 114.918H98.9796L99.9035 115.149L100.135 115.264V115.495H100.366L100.828 116.766V118.267L100.712 118.845H100.481L100.25 119.422L99.5571 119.769L99.0951 119.884H96.7852V114.918Z" fill="#694C3A"/>
<path d="M84.544 114.918H85.3525V119.769H84.4285L84.313 116.65L83.7356 119.191L83.5046 119.884H82.4651L81.8876 117.805L81.7721 117.112L81.6566 119.884H80.6172V115.033H82.1186L82.4651 116.073L82.9271 117.574L83.1581 117.112L83.7356 115.033L84.544 114.918Z" fill="#694C3A"/>
<path d="M105.102 101.982H109.606L110.068 102.444V104.408L109.953 107.18V109.143L109.722 109.374H109.144V109.143H108.913L108.798 108.335H108.567V108.104H102.445V107.988H108.567L108.451 103.484H103.254L103.716 103.137L104.755 102.791L105.91 102.56L105.217 102.329L105.102 101.982Z" fill="#835A4E"/>
<path d="M48.0469 115.033H51.3962L52.0892 115.842V116.766L51.7427 117.343L51.3962 117.574H51.0498L51.9737 118.729L52.3202 119.422V119.884H51.2808L50.8188 119.307L50.1258 118.267L49.8948 118.036L49.0863 117.921V119.884H48.0469V115.033Z" fill="#684B39"/>
<path d="M69.5305 38.8066H70.4545L70.57 40.3081L66.9896 41.0011L65.1417 41.5785L63.5248 42.2715L61.4458 42.9645L61.2148 42.7335L61.7923 42.0405L62.2543 41.5785L62.3698 41.1166L62.4853 40.8856L63.4093 40.4236L66.5276 39.3841L69.5305 38.8066Z" fill="#C1896C"/>
<path d="M58.2109 101.867H58.3264V109.605L58.7884 109.49L58.5574 108.912V102.445H58.6729L58.7884 103.831H59.3659L59.5969 103.715L59.4814 106.141L59.5969 107.642L59.7124 108.219L60.6363 108.335V108.566L60.4054 108.681L61.2138 109.143V109.259H64.2167V109.028L64.5632 108.912L64.7942 108.45L66.2956 108.335L66.5266 107.411L66.8731 107.295H67.2196L67.3351 106.949H67.4506V109.143L67.2196 109.374L66.1801 109.49H65.2562L67.6816 109.605V108.566H67.7971V109.721H58.2109V101.867Z" fill="#82594D"/>
<path d="M97.7109 101.752H99.5589L99.3279 101.867V109.721H97.7109V101.752Z" fill="#6B4D3A"/>
<path d="M55.0898 101.752H56.7068V109.721H55.0898V101.752Z" fill="#795248"/>
<path d="M60.6348 115.033H61.7897L62.2517 115.957L63.5222 119.076L63.7532 119.884H62.5982L62.3672 119.653L62.1362 118.96H60.2883L59.8263 119.884H59.0178L58.9023 119.769L59.0178 118.845L60.1728 116.073L60.6348 115.033Z" fill="#6C4E3C"/>
<path d="M88.6999 75.5352L88.8154 75.8816L89.1619 75.9971L89.0464 76.5746H88.8154V76.9211H88.4689L88.238 77.3831H88.007V77.6141L87.314 78.1916H86.852V78.4225L86.2745 78.3071L85.8125 79L85.2351 79.462L84.3111 79.8085V80.155L83.9646 80.2705L83.8491 80.9634L83.1561 81.4254L82.5787 81.8874L81.5392 82.2339L80.4998 82.4649H79.9223L79.8068 82.2339H80.2688L80.1533 81.8874H80.3843V81.6564H79.3448L78.9983 81.7719L78.8828 81.3099L80.4998 80.7325L82.8097 79.693L83.3871 79.5775V79.3465L83.7336 79.1155H84.0801V78.8845L84.4266 78.6535L85.4661 78.4225L86.0435 78.0761L86.39 77.4986L87.083 77.0366L88.6999 75.5352Z" fill="#674B38"/>
<path d="M43.543 115.033H46.5459L47.1233 115.726L47.2388 115.957V117.112L46.8923 117.69L45.8529 118.036H44.5824V119.884H43.543V115.033Z" fill="#674A38"/>
<path d="M68.2578 115.033H71.8382V115.842H69.2973V116.881H71.7227V117.805H69.2973V118.96H72.0692V119.884H68.2578V115.033Z" fill="#6A4C3A"/>
<path d="M92.2812 115.033H95.8616V115.842H93.3207V116.881H95.7461V117.805H93.3207V118.96H95.9771V119.884H92.2812V115.033Z" fill="#694C3A"/>
<path d="M52.7818 62.3672H52.8973L53.4747 64.9081L54.1677 66.756L55.0917 68.8349L56.7086 71.1449L57.9791 72.5308L59.2495 73.8013L60.982 75.0717L61.5594 75.5337L64.5623 77.0351L67.5652 77.9591L69.7596 78.3056V78.4211H67.7962L66.4103 78.1901L64.3313 77.4971L61.3284 76.1112L60.1735 75.3027L58.672 74.2632L58.0946 73.6858L57.4016 72.8773L56.7086 71.9533V71.7223H56.4776L56.3621 71.2603H56.1311L54.3987 68.4885L53.2438 65.6011L52.6663 63.6376L52.5508 62.8292L52.7818 62.3672Z" fill="#CB9377"/>
<path d="M54.2852 114.918H55.5556L55.7866 115.842L56.1331 117.112L56.5951 118.152L56.9416 117.343L57.519 115.38L57.75 115.033H58.7895L58.5585 115.957L58.212 117.112L57.6345 118.498L57.1725 119.769V120L56.0176 119.884L55.4401 118.614L54.6316 116.304L54.2852 115.264V114.918Z" fill="#6D4E3C"/>
<path d="M87.3168 46.3145L87.7788 46.7764L89.0492 48.6244L90.5507 51.3963L91.0127 52.7822V53.4752L90.3197 54.2836L89.5112 54.1682H88.8182L89.0492 53.3597L89.6267 53.2442L89.1647 51.6273L88.2408 50.0103L87.8943 49.2018L86.2773 46.6609L86.5083 46.5454L87.0858 47.1229L88.0098 48.3934H88.3563L87.4323 46.7764L87.2013 46.6609L87.3168 46.3145Z" fill="#C1896D"/>
<path d="M52.0898 65.832L52.3208 66.063L53.0138 67.68L53.5913 68.8349L55.4392 71.6068L57.0562 73.3392L58.2111 74.4942L60.059 75.7647L61.3295 76.5731L63.7549 77.9591L66.5268 78.883L66.9888 78.9985V79.345L68.1437 79.576L69.8762 79.807H73.2255L75.189 79.6915V79.807L73.4565 80.038H69.5297L66.1803 79.4605L63.6394 78.5365L60.6365 76.9196L58.5576 75.4182L57.4026 74.3787L56.5942 73.5702L55.5547 72.2998L54.7462 71.3758L53.0138 68.6039L52.0898 66.1785V65.832Z" fill="#CB9377"/>
<path d="M78.7671 103.369H78.8826V109.721L78.6516 109.375L78.5361 109.49L77.4966 109.375L77.3811 109.144V106.257L77.2656 105.217V103.947L77.3811 103.6L78.4206 103.485L78.6516 103.716L78.7671 103.369Z" fill="#80574B"/>
<path d="M112.492 102.676H112.723L112.838 102.907L113.069 102.791V103.253H113.416L113.185 103.831V106.834L113.416 108.104V108.451L113.646 109.259L113.877 109.49H112.145L111.914 109.144V104.986H112.145V103.022H112.376L112.492 102.676Z" fill="#795248"/>
<path d="M87.7773 115.033H91.7042V115.842L90.4337 115.957L90.3182 119.884H89.1633V115.842H87.7773V115.033Z" fill="#674A39"/>
<path d="M88.3547 54.3984H88.5857L88.4702 54.9759L88.0082 55.8999L86.5068 57.0548L86.1603 57.5168L85.8138 58.4408H86.0448V58.6718L85.1208 58.7873V59.1338L85.3518 59.2493L85.2363 59.8267H85.0053L85.2363 60.4042L86.6223 61.9057V62.1366L86.9688 62.2521L87.7772 63.1761L87.8927 63.5226L87.4308 63.2916L86.7378 62.7141L86.2758 62.1366L85.3518 61.3282L83.9659 59.9422L83.8504 59.4802L83.5039 59.3647H83.7349L83.8504 58.7873L84.6589 57.9788L85.5828 57.1703L88.3547 54.3984Z" fill="#C1896C"/>
<path d="M74.6094 115.033H75.6488V118.96H78.1897V119.884H74.6094V115.033Z" fill="#6F503E"/>
<path d="M63.7539 115.033H67.6808V115.842H66.2948V119.884H65.2553V115.842H63.7539V115.033Z" fill="#654938"/>
<path d="M52.8967 114.918H53.9362V119.884H52.7812V115.033L52.8967 114.918Z" fill="#72513F"/>
<path d="M97.8242 115.842H98.9792L99.5567 116.188L99.7876 116.65V118.267L99.4412 118.845L99.2102 118.96H97.8242V115.842Z" fill="white"/>
<path d="M86.1602 115.033H87.3151V119.884H86.1602V115.033Z" fill="#775642"/>
<path d="M78.6523 115.033H79.8073V119.884H78.6523V115.033Z" fill="#785742"/>
<path d="M67.3326 106.949H67.4481V109.144L67.2171 109.375L66.1776 109.49H63.6367L63.7522 109.259H64.2142V109.028L64.5607 108.913L64.7917 108.451L66.2931 108.335L66.5241 107.411L66.8706 107.296H67.2171L67.3326 106.949Z" fill="#795248"/>
<path d="M55.0898 101.752H56.7068V109.721H55.0898V101.752ZM55.4363 101.983L55.2053 102.56V105.217H55.4363V106.487L55.3208 107.296V108.566L55.5518 109.375H56.2448L56.4758 108.682L56.5913 103.946V102.56L56.3603 101.983H55.4363Z" fill="#654938"/>
<path d="M49.2011 102.098H52.8969L53.3589 102.56L53.1279 103.137L48.2771 103.253H46.6602L47.0066 103.022L48.8546 102.56L49.0856 102.444H50.125L50.9335 102.791L51.8575 102.906L51.973 102.675H52.2039L52.3194 102.444H50.818L49.3166 102.329L49.2011 102.098Z" fill="#795248"/>
<path d="M88.6994 75.5352L88.8149 75.8816L89.1613 75.9971L89.0459 76.5746H88.8149V76.9211H88.4684L88.2374 77.3831H88.0064V77.6141L87.3134 78.1916H86.8514V78.4225L86.043 78.3071L86.274 77.6141L87.1979 76.9211L88.6994 75.5352Z" fill="#634836"/>
<path d="M19.8665 104.293H19.982L20.213 105.101L20.0975 109.144H19.4046L19.2891 108.797H19.5201V107.18L19.2891 105.679V104.639L19.8665 104.293Z" fill="#795248"/>
<path d="M77.0374 102.906L77.2684 103.253L78.7698 103.368V103.946L78.4233 103.599H77.3839V105.563L77.4994 106.371V109.374H78.5388L78.6543 104.87H78.7698V109.72H77.1529V103.368L76.9219 103.253L77.0374 102.906Z" fill="#634836"/>
<path d="M57.4016 46.6602V47.0066L56.3621 48.1616L55.5537 49.2011L54.1677 51.8575L53.0128 55.8998L52.7818 57.4012H52.6663L52.5508 56.3618L53.5902 52.4349L54.0522 51.3955L55.5537 48.6236L56.5931 47.4686L57.4016 46.6602Z" fill="#CB9377"/>
<path d="M55.0898 98.6328H56.7068V100.25H55.0898V98.6328Z" fill="#644837"/>
<path d="M51.7438 53.9355L51.8593 54.3975L51.7438 55.3215L51.3973 57.1694V60.5188L51.6283 62.4822L51.5128 63.5217H51.3973L51.0508 61.6738V57.1694L51.6283 54.282L51.7438 53.9355Z" fill="#CB9377"/>
<path d="M74.8398 82.3477H75.3018V82.5786H75.0708L75.1863 90.8943L75.3018 91.4718H74.8398V82.3477Z" fill="#644836"/>
<path d="M97.7109 98.6328H99.2124V100.134H97.7109V98.6328Z" fill="#634836"/>
<path d="M65.488 20.4434H67.6824L69.5304 20.6744L70.1079 20.9053L70.2234 21.3673L68.3754 21.0208L67.2205 20.9053H63.8711L64.2176 20.6744L65.488 20.4434Z" fill="#FEE8CB"/>
<path d="M68.9528 83.9648H69.0682V91.4721H66.9893L66.5273 91.3566V91.1256L68.7218 91.2411V89.2776L68.8373 86.3903V84.6578L68.9528 83.9648Z" fill="#6C4E3B"/>
<path d="M75.766 101.982H76.921H77.2675V103.253L76.69 103.368L74.7266 103.137V102.906H74.9576L75.073 102.675L75.6505 102.56L75.997 102.213L75.766 101.982Z" fill="#795248"/>
<path d="M49.0859 115.842H50.7029L50.9339 116.188L50.8184 116.881L50.5874 116.997H49.0859V115.842Z" fill="white"/>
<path d="M44.582 115.842H45.8525L46.199 116.188V116.881L45.968 117.112H44.582V115.842Z" fill="white"/>
<path d="M37.3047 64.4473H37.4202L37.7667 65.8332L38.6906 69.0671L38.8061 69.9911L38.5751 70.222L38.1132 68.9516L37.4202 66.1797L37.3047 65.3712V64.4473Z" fill="#735240"/>
<path d="M91.3581 72.1855H91.4736L91.7046 73.8025L91.3581 74.7264L91.0116 75.0729L90.8961 74.9574L90.5496 75.4194L90.6651 74.611L91.2426 73.5715L91.1271 73.1095L90.8961 73.5715L90.3186 73.8025L90.2031 74.0335L90.3186 73.456L91.0116 72.532H91.2426L91.3581 72.1855Z" fill="#654937"/>
<path d="M94.1292 67.2188L94.2447 67.5652L93.2052 69.9906L92.6277 71.1456H92.3967L92.2812 70.1061L92.8587 68.9512L93.5517 68.4892L94.1292 67.2188Z" fill="#694C3A"/>
<path d="M88.4701 70.2207H88.7011L88.4701 70.7982L87.7771 71.8376L86.5066 73.4546L86.1602 73.6856L86.2757 72.9926L87.1996 71.7221L87.4306 71.3757H87.6616L87.8926 70.7982H88.1236L88.3546 70.3362L88.4701 70.2207Z" fill="#C1896C"/>
<path d="M69.4141 116.996H71.6085V117.689H69.4141V116.996Z" fill="#634836"/>
<path d="M55.0898 101.867H56.0138V101.983H55.4363L55.3208 102.56L55.2053 105.217H55.4363L55.5518 106.487L55.3208 108.45H55.2053L55.0898 107.411V101.867Z" fill="#634836"/>
<path d="M70.107 119.076H71.955V119.885L69.4141 119.769L69.7605 119.538H70.107V119.076Z" fill="#634836"/>
<path d="M113.301 103.254H113.417V108.105L113.186 107.758L113.07 106.834V103.831L113.301 103.254Z" fill="#634836"/>
<path d="M40.0781 73.4551L40.6556 73.5706L41.0021 74.2635L41.3486 74.4945L41.6951 75.303V75.765H41.4641L41.3486 75.996L40.1936 74.0326L40.0781 73.4551Z" fill="#684B3A"/>
<path d="M76.8069 20.9043H77.7309V21.0198L75.9985 21.4818L74.266 22.4057L73.4576 22.9832H73.2266L73.4576 22.5212L73.804 22.1747L75.5365 21.2508L76.8069 20.9043Z" fill="#FEE8CB"/>
<path d="M69.5296 38.8066H70.4535L70.569 40.3081L70.2225 40.1926V39.9616L69.5296 39.7306L69.4141 38.9221L69.5296 38.8066Z" fill="#CB9377"/>
<path d="M61.0987 116.305L61.3297 116.42L61.7917 117.922H60.6367L61.0987 116.305Z" fill="white"/>
<path d="M36.7266 57.2852H36.8421V60.75H37.073V62.598L36.8421 62.9444L36.7266 61.212V57.2852Z" fill="#A2745D"/>
<path d="M91.5871 56.0156V56.3621L90.0857 57.8636L89.1617 59.0185L88.4688 59.2495L89.1617 58.3255L90.5477 57.0551L91.5871 56.0156Z" fill="#C48C71"/>
<path d="M50.125 102.328H51.8574L52.3194 102.444L52.0884 102.906H51.8574H50.9335L50.125 102.559V102.328Z" fill="#634836"/>
<path d="M112.032 104.754L112.147 104.985H111.916L112.032 109.143L112.147 109.374L113.649 109.489V109.605H111.801V104.869L112.032 104.754Z" fill="#634836"/>
<path d="M86.7391 76.9199L86.9701 77.0354L86.2771 77.7284L86.0461 78.1904L85.2376 78.6524H84.6602L85.1221 78.1904L86.1616 77.3819L86.7391 76.9199Z" fill="#966958"/>
<path d="M78.6538 104.869H78.7693V109.72H77.1523V109.604L78.4228 109.489L78.5383 109.373L78.6538 104.869Z" fill="#684A3A"/>
<path d="M62.3672 116.535L62.5982 116.882L63.5221 119.076V119.423L63.1757 119.307L62.3672 116.997V116.535Z" fill="#9B6C5A"/>
<path d="M70.453 108.451H70.5685V109.144L70.453 109.375H69.76L69.6445 109.26V108.682L70.453 108.451Z" fill="#7A5349"/>
<path d="M0.347656 107.527H0.463152L0.578647 108.451L0.925134 108.567L1.38712 109.144L0.694143 109.375L0.463152 109.26L0.347656 108.913V107.527Z" fill="#7A5349"/>
<path d="M69.2991 119.191H70.1076V119.538L69.7611 119.653L71.84 119.769V119.884H69.1836L69.2991 119.191Z" fill="#9B6C59"/>
<path d="M55.0898 101.752H56.7068V103.946H56.5913L56.4758 102.56L56.3603 101.983L55.0898 101.867V101.752Z" fill="#694B3B"/>
<path d="M90.0885 57.748H90.3195L90.204 58.21L89.2801 59.365H88.9336L89.5111 58.441L90.0885 57.748Z" fill="#674A39"/>
<path d="M56.5938 88.8164L58.9037 89.6249V89.8559L57.6332 89.5094L56.5938 89.0474V88.8164Z" fill="#785644"/>
<path d="M84.3108 58.9023L84.7728 59.0178L85.0038 59.5953L84.8883 59.8263L84.4263 59.7108L84.1953 59.2488L84.3108 58.9023Z" fill="#CB9377"/>
<path d="M33.3772 108.682L34.0702 109.144V109.375L33.8392 109.49L33.9547 109.721L33.3772 109.606L33.2617 109.49L33.3772 108.682Z" fill="#7A5349"/>
<path d="M49.2031 102.098H51.282V102.444L49.3186 102.329L49.2031 102.098Z" fill="#7A5349"/>
<path d="M84.0813 89.8555H84.4277V90.0865L83.5038 90.4329H82.6953L82.8108 90.202L84.0813 89.8555Z" fill="#6D4F3D"/>
<path d="M40.0781 73.4551L40.6556 73.5706L40.8866 74.61L40.3091 74.2635L40.0781 73.4551Z" fill="#6E4E3D"/>
<path d="M89.8555 44.8125L90.4329 45.2745L91.3569 46.6604L91.2414 46.8914L90.5484 46.083L89.971 45.159L89.8555 44.8125Z" fill="#C89074"/>
<path d="M92.3967 102.791L94.5912 103.022V103.368L92.8587 103.138L92.2812 103.022L92.3967 102.791Z" fill="#7A5349"/>
<path d="M42.9632 75.9961L43.5406 76.1116L43.1941 77.0356L42.9632 76.9201L42.8477 76.1116L42.9632 75.9961Z" fill="#634836"/>
<path d="M50.9336 117.689L51.7421 118.382L52.204 119.191V119.422H51.9731L51.3956 118.382L50.9336 117.92V117.689Z" fill="#BA846B"/>
<path d="M91.0128 72.9941L91.3593 73.2251L91.2438 73.8026L90.7818 74.1491L90.5508 74.0336L90.7818 73.5716H91.0128L90.8973 73.1096L91.0128 72.9941Z" fill="#755045"/>
<path d="M89.7383 65.3711L90.0848 65.4866L90.3158 65.8331L90.2003 66.2951L89.7383 66.1796V65.3711Z" fill="#C1896C"/>
<path d="M109.605 101.867H110.298V102.791H110.067L109.836 102.214L109.605 102.098V101.867Z" fill="#654938"/>
<path d="M89.5094 74.6094H89.6249L89.5094 75.5333L89.0474 75.7643L88.8164 75.3023L89.3939 75.0714L89.5094 74.6094Z" fill="#634836"/>
<path d="M42.2717 101.982L42.6182 102.098V102.906L42.3872 103.253H42.1562L42.2717 102.329V101.982Z" fill="#765146"/>
</svg>
