<svg width="250" height="100" viewBox="0 0 250 100" fill="none" xmlns="http://www.w3.org/2000/svg">
<path d="M178.503 46.5723H181.774L183.332 47.0396L184.578 47.8184L185.668 49.0645L186.447 50.6221L187.226 53.2701L188.316 56.3854L189.718 60.1237L190.964 63.862L192.678 68.5349L193.301 70.8713L194.235 73.2078L195.326 76.4788L195.949 79.1268L197.35 79.5941L197.039 78.0365L196.883 76.3231L196.727 69.6252V47.1953L197.35 46.8838L199.687 46.5723H202.802L204.516 47.1953L205.762 48.1299L206.852 49.8433L209.5 54.2047L211.992 58.2545L213.861 61.5255L215.107 63.5505L216.198 64.4851L215.886 61.0583L215.731 47.1953L216.198 46.8838L218.534 46.5723H221.026L222.584 47.0396L223.83 47.9741L224.765 49.0645L225.232 50.1548V81.7748H217.6L216.665 80.6844L214.329 76.9461L212.148 73.6751L210.279 70.7156L207.008 65.5754L206.073 64.7966L205.762 64.6408L206.073 66.51L206.229 68.5349L206.385 78.6595V81.619L206.073 81.7748H187.382L186.759 81.4633L186.135 78.5038L184.578 74.2981L184.266 73.8309L175.544 73.6751L175.232 75.7L174.142 78.348L173.207 80.8402L172.584 81.7748H163.55L163.238 81.4633L165.886 74.2981L168.223 67.4446L169.157 64.9523L170.871 59.9679L172.428 55.6065L173.207 52.9586L174.765 49.0645L175.699 47.3511L176.478 46.8838L178.503 46.5723ZM180.061 59.5006L179.282 60.2794L178.659 62.6159L177.724 65.4196V65.8869L178.036 66.0427L179.438 66.1984H182.241L181.93 64.7966L181.307 62.3044L180.995 60.1237L180.372 59.5006H180.061Z" fill="#C43333"/>
<path d="M10.9034 42.3672H31.62L32.3988 43.146L34.2679 46.7286L35.9813 49.3765L37.539 52.336L38.7851 54.361L40.4985 57.4762L42.0561 59.6569L42.5234 60.4357L42.3676 61.2146L40.9658 63.0837L38.9408 66.822L37.539 69.0027L35.8256 72.2738L34.4237 74.4544L33.1776 76.7909L31.9315 78.8158L31.7757 78.9716H10.7477L9.65733 77.4139L8.41122 75.2333L6.3863 71.6507L4.51714 68.3797L3.11527 66.0432L1.40187 62.928L0.46729 61.6818L0 61.2146V60.1242L0.623053 59.8127L0.93458 59.0339L2.02492 57.4762L3.89408 53.8937L4.98443 52.1803L6.3863 49.6881L8.56699 45.794L9.81309 43.6133L10.5919 42.523L10.9034 42.3672Z" fill="#C33133"/>
<path d="M46.8839 21.0293L67.4447 21.1851L68.3792 22.5869L70.7157 26.481L72.8964 30.3751L75.3886 34.5807L76.9462 37.5402L78.0366 39.0978L78.1923 39.5651L77.2578 41.1228L75.7001 44.0823L73.9867 46.886L71.6503 50.9359L70.0926 53.7396L68.535 56.2318L67.4447 57.7894L67.2889 57.9452H46.8839L46.1051 57.1664L45.1705 55.7645L43.7686 53.2723L42.3668 50.9359L40.9649 48.2879L39.4073 45.7957L38.0054 43.3035L36.292 40.344L35.9805 39.4094L36.7593 37.8517L38.94 34.1134L40.9649 30.6866L42.3668 28.1944L43.4571 26.1695L45.0147 23.5215L46.4166 21.3408L46.8839 21.0293Z" fill="#F1993A"/>
<path d="M82.3995 0H103.428L105.608 3.73832L109.658 10.9034L111.839 14.6418L113.552 17.6013L113.864 18.0686V18.8474L112.929 20.2492L110.748 23.9876L109.502 26.324L108.1 28.5047L106.699 31.1527L105.297 33.4891L103.739 36.1371L103.116 36.7602H82.5553L81.4649 35.3583L78.817 30.8411L76.4805 26.7913L74.9229 23.9876L73.6768 21.9626L72.2749 19.4704L71.4961 18.3801L71.9634 17.6013L72.898 16.3552L74.4556 13.3956L76.0132 11.0592L77.2593 8.56699L78.6612 6.23054L80.5304 2.9595L81.6207 1.24611L82.3995 0Z" fill="#24AE5D"/>
<path d="M46.4166 63.5508H67.6004L68.8465 65.7315L70.5599 68.3794L72.4291 71.8062L73.6752 73.9869L74.6098 75.7003L76.0117 77.881L77.4135 80.529L78.0366 81.4636L77.8808 82.3981L76.7905 84.1115L75.5444 86.6038L73.9867 89.096L72.2733 92.2112L71.0272 94.3919L69.4696 97.0399L67.6004 99.9994H46.2608L44.7032 97.1957L42.5225 93.4573L40.9649 90.6536L38.94 87.2268L36.6035 83.177L35.9805 81.9309L36.292 80.8405L38.3169 77.4137L39.563 75.3888L40.6534 73.3639L42.0552 71.1832L43.3013 68.691L44.859 66.1988L46.2608 63.7065L46.4166 63.5508Z" fill="#0A65AC"/>
<path d="M122.272 46.5723H125.232L126.634 46.8838L128.191 47.8184L129.281 49.2202L130.06 50.7779L130.839 53.2701L132.864 59.0333L134.266 63.2389L135.979 67.7561L137.848 73.3636L139.562 78.348L140.808 81.3075V81.7748H131.151L130.528 81.619L129.593 78.1922L127.88 73.8309L119.001 73.6751L118.69 75.7L117.755 78.348L116.82 80.8402L116.197 81.7748H108.565L106.852 81.619L107.319 80.0614L108.565 76.6346L109.967 72.8963L111.68 67.7561L112.615 65.2639L113.394 62.7717L115.419 57.3199L116.976 52.647L118.534 48.4414L119.313 47.1953L120.247 46.8838L122.272 46.5723ZM123.362 59.5006L122.895 59.9679L122.428 62.1486L121.338 64.9523V65.8869L122.272 66.1984H125.855L125.543 64.7966L124.764 62.1486L124.453 59.9679L123.986 59.5006H123.362Z" fill="#C33333"/>
<path d="M139.566 46.5723H142.525L144.239 47.1953L145.485 48.1299L146.264 49.0645L147.043 50.7779L148.444 55.7623L150.002 60.591L151.404 65.8869L152.027 67.4446L152.494 67.2888L153.585 62.9274L155.298 57.7872L156.7 52.8028L157.79 49.8433L158.413 48.5972L159.348 47.5068L160.594 46.8838L161.84 46.5723H164.332L168.226 47.0396L168.382 47.6626L167.448 50.1548L163.709 61.3698L161.529 67.6003L160.594 70.5598L158.881 75.3885L157.635 79.2826L156.7 81.619L156.233 82.0863H147.51L147.043 81.4633L143.772 71.6502L141.591 65.4196L140.812 62.6159L139.41 58.8776L137.23 52.1797L135.672 47.9741V47.3511L139.566 46.5723Z" fill="#C43333"/>
<path d="M90.813 46.5723H99.0685L101.872 46.8838L104.832 47.6626L106.857 48.9087L107.947 49.8433L109.193 51.4009L110.128 52.9586L110.595 54.8277L110.751 55.9181V59.3449L110.283 62.1486L109.66 63.7062L107.48 66.6657L106.078 67.7561L103.118 69.158L101.249 69.781L98.2897 70.2483L95.4859 70.4041L95.6417 74.1424V81.619L95.4859 81.7748H86.2959L85.9844 81.619V47.1953L86.919 46.8838L90.813 46.5723ZM96.2648 53.7374L95.4859 54.2047V62.4601L95.6417 62.6159H96.8878L98.4454 62.3044L100.003 61.5255L100.938 60.4352L101.405 58.8776V56.8526L100.938 55.9181L100.159 55.1393L98.9127 54.2047L97.5109 53.7374H96.2648Z" fill="#E32D31"/>
<path d="M82.3995 0H103.428L105.608 3.73832L109.658 10.9034L111.839 14.6418L112.773 16.1994L112.618 16.6667L112.15 17.134L111.527 17.2897L110.748 16.9782L108.568 17.6013V17.9128L108.1 18.0686H101.247L100.001 18.2243L99.5335 18.0686L96.2624 18.2243L86.1378 18.3801L85.6705 18.2243L80.8419 18.0686L78.6612 17.6013L77.4151 16.9782L76.0132 16.1994L75.2344 16.0436L74.2998 14.9533V14.6418H73.9883L74.144 14.0187L75.7017 11.5265L77.2593 8.56699L78.6612 6.23054L80.5303 2.9595L81.6207 1.24611L82.3995 0Z" fill="#8DC358"/>
<path d="M199.531 47.8184H202.647L203.893 48.4414L205.139 49.8433L207.164 53.1143L209.189 56.5411L211.837 60.9025L213.55 63.7062L214.796 65.7311L216.665 68.8464L217.444 69.781V49.0645L217.6 47.9741H221.338L222.584 48.5972L223.363 49.5318L223.519 49.8433V80.2171H218.534L217.756 79.5941L215.575 76.1673L214.017 73.6751L211.992 70.5598L208.098 64.6408L206.229 61.6813L204.983 59.8121H204.671V66.1984L204.516 80.2171H199.687L198.285 80.0614V48.5972L198.597 47.9741L199.531 47.8184Z" fill="#C33333"/>
<path d="M46.8849 21.0293L67.4456 21.1851L68.3802 22.5869L70.7167 26.481L72.8974 30.3751L75.3896 34.5807L76.9472 37.5402L77.8818 38.7863L77.726 39.0978L76.4799 38.6306L75.7011 38.0075L75.3896 37.5402L74.7665 37.3844V37.0729L73.9877 36.7614L72.7416 35.9826L71.807 35.6711L70.7167 35.5153V35.2038H70.4051V35.6711H69.4706V35.3595L68.0687 35.6711H65.4207L61.9939 36.2941H61.5266L61.3709 36.9172L58.5671 37.0729H56.3864L53.8942 37.3844H48.754L47.8195 37.2287H45.6388L45.483 37.696L43.7696 37.5402L43.9254 36.9172H41.4332L39.564 37.8517L38.1621 38.9421L37.0718 39.0978L36.4487 38.7863L36.293 39.0978L36.4487 38.319L37.6948 36.2941L40.0313 32.2443L41.4332 29.9078L43.4581 26.1695L45.0157 23.5215L46.4176 21.3408L46.8849 21.0293Z" fill="#FDB939"/>
<path d="M178.503 46.5723H181.774L183.332 47.0396L184.578 47.8184L185.668 49.0645L186.447 50.6221L187.226 53.2701L188.316 56.3854L189.718 60.1237L190.964 63.862L192.678 68.5349L193.301 70.8713L194.235 73.2078L195.326 76.4788L195.949 79.1268L197.35 79.5941L197.039 78.0365L196.883 76.3231L196.727 69.6252V47.1953L197.35 46.8838L199.687 46.5723H202.802L204.516 47.1953L205.762 48.1299L206.852 49.8433L209.5 54.2047L211.992 58.2545L213.861 61.5255L215.107 63.5505L216.198 64.4851L215.886 61.0583L215.731 47.1953L216.198 46.8838L218.534 46.5723H221.026L222.584 47.0396L223.83 47.9741L224.765 49.0645L225.232 50.1548V81.7748H217.6L216.665 80.6844L214.329 76.9461L212.148 73.6751L210.279 70.7156L207.008 65.5754L206.073 64.7966L205.762 64.6408L206.073 66.51L206.229 68.5349L206.385 78.6595V81.619L206.073 81.7748H187.382L186.759 81.4633L186.135 78.5038L184.578 74.2981L184.266 73.8309L175.544 73.6751L175.232 75.7L174.142 78.348L173.207 80.8402L172.584 81.7748H163.55L163.238 81.4633L165.886 74.2981L168.223 67.4446L169.157 64.9523L170.871 59.9679L172.428 55.6065L173.207 52.9586L174.765 49.0645L175.699 47.3511L176.478 46.8838L178.503 46.5723ZM179.126 47.8184L177.569 48.1299L176.634 48.753L176.011 49.6875L172.428 60.2794L170.248 66.3542L168.067 72.5847L165.575 79.5941L165.419 80.0614L165.73 80.2172H171.961L173.363 75.7L174.453 72.8963L174.765 72.5847H185.512L186.135 73.8309L187.537 78.6595L188.16 79.9056L188.783 80.2172H195.17L195.014 79.2826L193.301 75.2327L189.874 65.1081L187.849 59.5006L185.512 52.647L184.266 49.8433L182.864 48.2857L181.463 47.8184H179.126ZM199.531 47.8184L198.441 48.1299L198.285 48.5972V80.0614L199.687 80.2172H204.516L204.671 66.1984V59.8122H204.983L206.541 62.1486L208.254 64.9523L211.992 70.5598L213.706 73.2078L215.575 76.1673L217.755 79.5941L218.534 80.2172H223.519V49.8433L222.896 48.9087L222.117 48.2857L221.338 47.9741H217.6L217.444 49.0645V69.781L216.354 68.3791L214.173 64.6408L212.615 62.1486L209.967 57.7872L205.762 50.7779L204.204 48.753L203.425 48.1299L202.646 47.8184H199.531Z" fill="#FCFEFE"/>
<path d="M46.4171 63.5508H67.6009L68.847 65.7315L70.5604 68.3794L72.4296 71.8062L73.6757 73.9869L74.6102 75.7003L76.0121 77.881L75.8563 78.1925L74.4545 78.0368L72.5853 77.1022H70.7162L70.2489 77.258H68.6912L67.4451 77.5695L61.8376 77.4137L58.8781 77.1022L53.2707 77.5695L50.4669 77.7252H42.8345L41.5884 77.258L38.9404 77.1022L38.6289 77.258L38.9404 76.4791L40.6538 73.3639L42.0557 71.1832L43.3018 68.691L44.8594 66.1988L46.2613 63.7065L46.4171 63.5508Z" fill="#0187C9"/>
<path d="M66.1995 90.1855L67.4456 90.3413L67.9129 90.6528L69.782 91.1201L70.2493 91.5874V91.8989L70.8724 92.0547L71.6512 92.522L71.8069 92.9893L69.782 96.5718L68.3802 98.7525L67.6013 99.9986H46.2618L44.7041 97.1949L42.5234 93.4566L43.1465 92.522L44.5484 91.8989L45.4829 91.5874L47.3521 91.1201L49.377 90.9644L51.5577 91.1201L53.4269 90.9644L57.944 90.8086L59.0344 90.4971H62.4611L63.24 90.6528L66.1995 90.1855Z" fill="#2F4D9B"/>
<path d="M139.566 46.5723H142.525L144.239 47.1953L145.485 48.1299L146.264 49.0645L147.043 50.7779L148.444 55.7623L150.002 60.591L151.404 65.8869L152.027 67.4446L152.494 67.2888L153.585 62.9274L155.298 57.7872L156.7 52.8028L157.79 49.8433L158.413 48.5972L159.348 47.5068L160.594 46.8838L161.84 46.5723H164.332L168.226 47.0396L168.382 47.6626L167.448 50.1548L163.709 61.3698L161.529 67.6003L160.594 70.5598L158.881 75.3885L157.635 79.2826L156.7 81.619L156.233 82.0863H147.51L147.043 81.4633L143.772 71.6502L141.591 65.4196L140.812 62.6159L139.41 58.8776L137.23 52.1797L135.672 47.9741V47.3511L139.566 46.5723ZM138.787 47.9741L137.697 48.2857L138.32 50.9336L140.501 57.3199L147.354 77.8807L147.977 80.2172L148.444 80.5287H155.454L156.388 78.0365L158.102 73.052L160.438 66.3542L162.307 60.591L163.709 56.6969L165.267 52.024L166.357 49.2202V48.2857L164.955 47.9741H161.996L160.438 48.5972L159.348 49.8433L158.413 52.3355L157.167 56.5411L155.61 61.6813L154.363 65.7312L152.962 69.9368L152.339 72.5847L151.716 71.6502L149.535 64.3293L147.821 58.7218L146.108 52.9586L145.173 50.4663L144.083 48.753L143.304 48.1299L142.837 47.9741H138.787Z" fill="#FDFEFE"/>
<path d="M53.4264 70.8711H66.199L67.4451 71.0269L68.847 71.1826L69.4701 71.4941L70.2489 72.273L71.6507 73.3633L72.5853 74.1421L73.9872 74.6094L75.7006 77.4132L76.0121 78.192L74.4545 78.0362L72.5853 77.1016H70.7162L70.2489 77.2574H68.6912L67.4451 77.5689L61.8376 77.4132L58.8781 77.1016L53.2707 77.5689L50.4669 77.7247H42.8345L41.5884 77.2574L38.9404 77.1016L38.6289 77.2574L38.9404 76.4786L40.6538 73.3633L41.8999 71.4941L42.2115 71.6499V71.9614L43.4576 71.8057H47.8189L50.6227 71.3384L51.713 71.0269L53.4264 70.8711Z" fill="#037BBD"/>
<path d="M179.129 47.8184H181.466L182.868 48.2856L183.958 49.376L185.204 51.8682L185.672 53.1143L185.827 55.1392L185.36 55.7623L184.893 55.9181V57.3199L185.204 59.3448L184.893 60.1237L184.114 59.6564H183.335L183.179 60.4352L183.024 61.5255H182.712L182.401 61.214L183.647 64.9523L184.114 66.6657V67.4445L183.802 67.6003H175.703L176.014 66.0427L177.572 61.6813L178.195 59.8121V59.1891L177.728 59.3448L177.416 59.9679L176.793 61.5255L176.482 62.6159L176.326 63.2389H176.014L175.703 64.0177L174.612 65.5754L174.301 66.51H173.989L173.678 67.133L172.276 67.9118L171.964 67.6003L172.12 66.6657L171.03 66.8215L170.718 67.4445V65.8869L170.562 65.4196L173.055 58.4103L176.014 49.6875L176.637 48.7529L177.572 48.1299L179.129 47.8184ZM180.064 59.5006L179.285 60.2794L178.662 62.6159L177.728 65.4196V65.8869L178.039 66.0427L179.441 66.1984H182.245L181.933 64.7966L181.31 62.3044L180.999 60.1237L180.376 59.5006H180.064Z" fill="#E32C31"/>
<path d="M122.272 46.5723H125.232L126.634 46.8838L128.191 47.8184L129.281 49.2202L130.06 50.7779L130.839 53.2701L132.864 59.0333L134.266 63.2389L135.979 67.7561L137.848 73.3636L139.562 78.348L140.808 81.3075V81.7748H131.151L130.528 81.619L129.593 78.1922L127.88 73.8309L119.001 73.6751L118.69 75.7L117.755 78.348L116.82 80.8402L116.197 81.7748H108.565L106.852 81.619L107.319 80.0614L108.565 76.6346L109.967 72.8963L111.68 67.7561L112.615 65.2639L113.394 62.7717L115.419 57.3199L116.976 52.647L118.534 48.4414L119.313 47.1953L120.247 46.8838L122.272 46.5723ZM124.141 47.8184L121.805 47.9741L120.403 48.4414L119.78 49.2202L119.157 50.7779L117.599 55.7623L116.509 58.7218L114.017 65.5754L112.148 71.1829L110.278 76.4788L109.032 79.5941L108.876 80.0614L109.188 80.2172H115.419L117.288 74.6097L118.222 72.5847H129.126L129.749 73.8309L130.839 77.4134L131.462 79.4383L131.929 80.0614L132.397 80.2172L138.783 80.3729L138.316 78.971L136.602 74.6097L133.799 66.51L131.929 60.9025L129.593 54.2047L128.035 50.3106L127.101 48.9087L126.166 48.1299L124.141 47.8184Z" fill="#FCFEFE"/>
<path d="M124.145 47.8184L126.17 48.1299L127.416 49.2202L128.662 51.7124L128.818 53.1143L128.662 53.8931L128.194 54.5162L128.35 55.1392V57.3199L128.662 57.4757L128.506 58.566L128.662 58.8776L128.35 60.2794H127.883L126.793 59.9679V61.0582L126.481 61.6813L126.014 61.3698L127.26 64.7966L127.883 67.4445L127.727 67.6003H119.316L119.16 67.133L120.874 62.6159L121.497 60.4352H120.406L120.095 61.214L119.316 61.9928L118.537 63.2389L117.603 63.7062L116.512 63.862L115.889 64.6408L115.733 65.4196L115.266 66.0427H114.799L114.487 66.6657L114.176 66.51L114.487 65.1081L115.578 61.9928L116.045 60.7467L116.201 59.5006L117.603 55.7623L119.472 49.8433L120.251 48.5972L121.029 48.1299L121.808 47.9741L124.145 47.8184ZM123.366 59.5006L122.899 59.9679L122.431 62.1486L121.341 64.9523V65.8869L122.275 66.1984H125.858L125.547 64.7966L124.768 62.1486L124.456 59.9679L123.989 59.5006H123.366Z" fill="#E42C31"/>
<path d="M67.4456 30.5293L68.2245 30.6851L68.6917 31.1524L70.0936 31.6196L71.184 32.5542L72.7416 33.6446L74.7665 35.2022L75.3896 35.6695L76.1684 35.981L77.2587 38.0059L77.8818 38.7848L77.726 39.0963L76.4799 38.629L75.7011 38.0059L75.3896 37.5386L74.7665 37.3829V37.0714L73.9877 36.7598L72.7416 35.981L71.807 35.6695L70.7167 35.5137V35.2022H70.4051V35.6695H69.4706V35.358L68.0687 35.6695H65.4207L61.9939 36.2925H61.5266L61.3709 36.9156L58.5671 37.0714H56.3864L53.8942 37.3829H48.754L47.8195 37.2271H45.6388L45.483 37.6944L43.7696 37.5386L43.9254 36.9156H41.4332L39.564 37.8502L38.1621 38.9405L37.0718 39.0963L36.4487 38.7848L36.293 39.0963L36.4487 38.3175L37.2275 37.5386L39.4082 35.6695L40.1871 34.8907L41.7447 33.9561L43.6138 32.8657L45.483 32.2427H48.5983L49.3771 32.0869H51.8693L54.5173 31.6196H56.0749L57.7883 31.9312L59.3459 31.7754L59.8132 31.4639L60.4363 31.6196V31.9312H61.2151L61.3709 31.3081H61.6824L61.8382 31.7754H62.4612L62.7727 30.9966H65.1092L66.5111 30.8408L67.4456 30.5293Z" fill="#FDAF3B"/>
<path d="M93.4576 57.4766H93.6133L93.7691 61.9937L94.2364 63.8629L94.3922 64.0186H96.7286L98.5978 63.7071H99.3766L99.5324 63.8629L100.934 63.7071L101.246 63.8629L101.09 64.1744H101.402V64.6417L102.492 64.9532L103.271 65.109L104.517 64.9532L105.14 64.1744H105.451L105.607 63.8629L105.763 64.1744L106.074 63.7071H106.386V64.3302L106.697 64.4859V64.6417L107.009 64.4859L106.853 65.109L105.763 66.1993L104.049 67.2897L102.492 67.9127L99.3766 68.5358L97.9747 68.6915L93.9249 68.8473V80.218H87.5386L87.3828 79.9065V64.0186H87.5386L87.6943 70.7164L88.0059 70.5607L88.3174 67.1339L88.4732 64.3302L89.0962 62.461L89.252 62.1495L90.0308 61.9937L90.9654 60.9034L91.4327 59.9688L91.9 59.5015L92.9903 59.19L93.3018 58.0996L93.4576 57.4766Z" fill="#C33533"/>
<path d="M90.813 46.5723H99.0685L101.872 46.8838L104.832 47.6626L106.857 48.9087L107.947 49.8433L109.193 51.4009L110.128 52.9586L110.595 54.8277L110.751 55.9181V59.3449L110.283 62.1486L109.66 63.7062L107.48 66.6657L106.078 67.7561L103.118 69.158L101.249 69.781L98.2897 70.2483L95.4859 70.4041L95.6417 74.1424V81.619L95.4859 81.7748H86.2959L85.9844 81.619V47.1953L86.919 46.8838L90.813 46.5723ZM89.4112 47.9741L87.542 48.1299L87.3862 48.4414V79.9056L87.542 80.2172H93.9283V68.8464L97.9782 68.6907L101.249 68.2234L103.741 67.4446L105.299 66.51L106.857 65.1081L107.947 63.5505L108.882 61.5255L109.349 59.6564L109.505 57.1642L109.193 55.295L108.57 53.4259L107.324 51.4009L105.766 49.8433L103.586 48.753L101.249 48.1299L100.003 47.9741H89.4112Z" fill="#FCFEFE"/>
<path d="M198.441 48.2871H198.597L198.752 64.4865L198.908 65.4211L199.064 64.6423L199.375 64.4865V63.5519L199.687 62.4616H199.999L200.31 61.6828H200.622L200.933 61.0597L202.491 59.8136L203.425 59.3463L204.516 59.5021L204.671 59.8136V66.1999L204.516 80.2186H199.687L198.285 80.0628V48.5986L198.441 48.2871Z" fill="#C13533"/>
<path d="M199.532 47.8184H202.647L203.893 48.4414L205.139 49.8433L207.164 53.1143L209.189 56.5411L209.501 57.3199L209.189 57.7872L207.631 56.5411H207.164L207.943 58.8776V59.8121L207.008 60.1237L206.853 60.9025L206.23 61.214L205.139 60.1237L204.983 59.8121L204.049 59.5006L203.114 59.6564L201.868 60.4352L200.778 61.3698L200.155 62.1486L199.999 62.4601H199.688V63.3947L199.532 64.1735L199.376 64.7966L199.064 65.4196L198.909 66.1984H198.753L198.597 64.485L198.441 48.1299L199.532 47.8184Z" fill="#E42B31"/>
<path d="M161.992 47.9746H164.951L166.353 48.2861L166.197 49.688L164.796 53.4263L162.459 60.2799L162.148 61.0587L161.836 60.903L161.213 61.0587L161.369 61.526L160.278 61.8375L159.967 62.6164H159.655L159.5 63.0837H159.188V63.3952L158.253 64.0182L157.475 63.7067L157.319 62.4606L156.696 62.3048H156.384L156.229 62.7721L155.917 62.4606L155.605 62.3048L155.761 61.2145L157.319 56.0743L159.032 50.4668L159.811 49.2207L160.746 48.4419L161.992 47.9746Z" fill="#E42D31"/>
<path d="M126.168 86.1367L127.258 86.2925L127.726 87.8501L128.349 89.4077L129.751 92.0557L130.997 95.171L131.308 95.3268L132.554 92.6788L133.8 89.5635L135.202 86.9155L135.825 86.2925L136.293 86.4482L136.916 89.7193L138.629 96.5729L139.096 99.8439L138.941 99.9997H137.227L136.604 98.442L135.981 94.5479L135.825 93.1461L135.514 92.2115L134.735 92.9903L133.022 96.5729L132.087 98.9093L131.464 99.8439L130.685 99.9997L130.374 98.5978L129.283 96.1056L127.57 92.8345L127.103 92.2115L126.635 93.6134L126.168 96.8844L125.233 99.5324L124.922 99.9997H123.676L123.832 97.5074L124.455 93.4576L125.545 88.6289L126.012 86.2925L126.168 86.1367Z" fill="#2D2B2C"/>
<path d="M166.977 86.1367H173.363L174.92 86.4482L176.322 87.3828L177.101 88.1616L177.724 88.9405L178.347 90.3423L178.503 90.9654V94.7037L177.88 96.4171L176.478 98.1305L174.92 99.2208L173.207 99.8439L170.871 99.9997H169.157L167.444 99.6881L167.288 99.9997L166.977 99.2208V86.1367ZM170.092 88.1616L169.157 88.4732L169.313 97.1959L170.248 97.5074H172.584L173.83 97.1959L174.92 96.5729L175.544 95.794L176.167 94.3922L176.322 93.4576V91.9L175.855 90.3423L174.92 88.7847L173.674 88.3174L172.117 88.1616H170.092Z" fill="#2D2C2C"/>
<path d="M151.711 85.8242L152.646 86.1357L153.892 87.2261L156.695 90.0298L157.941 91.1202L159.811 92.9893L160.901 94.2354L161.68 95.17V86.1357H164.016L164.172 86.2915L164.328 99.8429L163.549 99.9987L162.459 98.7526L158.409 94.7027L157.163 93.6124L155.138 91.5875L154.359 90.6529L154.047 90.4971V93.9239L153.892 99.9987L152.334 99.6872V99.9987H152.022L151.867 99.5314V88.0049L151.711 87.6934V85.8242Z" fill="#2E2C2C"/>
<path d="M100.624 85.9805H102.337L102.649 86.292V91.1207H109.191L109.035 86.1362H111.372L111.527 86.292V99.0646L111.372 99.9992L109.347 99.6876L109.191 99.5319L109.035 93.3013H102.649V97.9742L102.493 99.9992H100.624L100.312 98.9088V86.1362L100.624 85.9805Z" fill="#302D2C"/>
<path d="M138.786 47.9746H142.836L143.77 48.4419L144.86 49.8438L145.795 52.0245L146.574 54.3609L146.418 55.4513L145.951 55.607L145.172 55.2955V56.8531L145.328 58.7223V59.6569H145.016L144.86 61.0587H144.393L143.303 60.903L143.147 62.1491L143.459 63.3952L143.614 65.4201L143.147 65.2643L138.474 51.2456L137.695 48.5977L137.851 48.1304L138.786 47.9746Z" fill="#E42C31"/>
<path d="M189.875 85.9805H192.055L192.211 86.1362L192.367 87.3823V95.0147L192.055 96.5724L191.121 98.13L190.03 99.2204L188.784 99.9992H184.423L183.021 99.0646L181.775 97.8185L181.152 96.7281L180.996 96.1051V86.1362H183.177L183.333 86.292V95.3263L183.8 96.7281L184.579 97.3512L186.448 97.6627L188.161 97.507L189.096 97.0397L189.563 96.4166L189.719 95.9493L189.875 85.9805Z" fill="#2E2C2C"/>
<path d="M215.577 85.9805H218.536L220.561 86.292L221.496 86.915L222.586 88.1612L222.898 88.7842V90.8091L222.274 91.7437L220.717 93.3013L220.094 93.7686L220.405 94.3917L221.807 96.1051L223.365 97.9742L224.144 99.5319V99.9992H222.274L220.405 97.6627L218.38 94.859L217.757 94.0802L217.134 93.7686V95.0147L217.29 96.1051V99.2204L216.979 99.9992H215.421L215.265 99.8434L215.109 97.1954V88.6284L215.421 86.1362L215.577 85.9805ZM218.069 88.0054L217.29 88.7842V90.9649L217.602 91.588L218.225 91.8995L219.627 91.588L220.561 90.8091L220.717 90.4976V89.4073L220.094 88.4727L219.315 88.0054H218.069Z" fill="#2D2C2C"/>
<path d="M217.598 47.9746H221.336L222.582 48.5977L223.361 49.5322L223.517 49.8438V70.2488H223.361L223.205 57.7877H222.738L222.582 58.0992L222.115 57.7877V57.4762H221.803L220.713 59.6569L219.934 60.2799L219.155 60.1242H218.376H217.909L217.753 59.8126L217.598 57.7877V47.9746Z" fill="#E32A31"/>
<path d="M231.156 85.9805H235.984L238.477 86.1362L238.632 86.292V87.8496L238.165 88.1612H233.025L233.181 91.1207L238.632 91.2764V93.3013L237.386 93.4571H233.025V97.3512H238.165L238.477 97.507L238.632 99.2204L238.321 99.8434L236.607 99.9992H232.402L231.467 99.6876V99.9992H231.156L231 99.6876V86.1362L231.156 85.9805Z" fill="#302D2C"/>
<path d="M114.64 85.9805H117.288L122.117 86.1362L122.273 86.292L122.117 88.0054L121.494 88.1612H116.509L116.665 91.1207L122.117 91.2764V93.3013L121.805 93.4571H116.509L116.665 97.3512H118.69L121.805 97.507L121.961 98.13L121.649 99.9992H116.198L115.73 99.6876H114.952L115.419 99.9992H114.484V86.1362L114.64 85.9805Z" fill="#2F2D2C"/>
<path d="M92.6793 85.5137H94.2369L96.1061 85.981L97.3522 86.7598L97.8195 87.2271L98.131 88.1616V89.0962L96.7291 88.7847L94.3927 88.0059H92.5235L90.8101 88.6289L89.564 89.7193L88.9409 90.9654L88.7852 91.7442V93.9249L89.2525 95.3268L90.1871 96.5729L91.7447 97.3517L92.5235 97.5075H94.86L96.1061 97.0402L97.6637 96.2613L97.9752 96.7286L97.6637 98.1305L97.0406 99.0651L95.7945 99.9997H91.2774L89.7198 99.0651L88.1621 97.6632L87.0718 96.2613L86.4487 94.7037L86.293 93.9249V91.5884L86.916 89.7193L87.8506 88.3174L89.0967 87.0713L90.9659 85.981L92.6793 85.5137Z" fill="#2D2C2C"/>
<path d="M199.69 46.5723H202.805L204.519 47.1953L205.765 48.1299L206.855 49.8433L209.503 54.2047L211.995 58.2545L213.864 61.5255L215.111 63.5505L216.201 64.4851L215.889 61.0583V56.3854L216.668 57.0084L217.447 57.1642L217.603 62.4601V69.9368L216.824 69.3137L215.111 66.51L213.241 63.3947L211.684 60.9025L208.724 55.9181L205.297 50.3106L203.896 48.5972L202.649 47.9741H199.534L198.6 48.1299L198.288 49.2202H197.042L196.886 49.6875H196.73V47.1953L197.354 46.8838L199.69 46.5723Z" fill="#FDFEFE"/>
<path d="M244.082 85.5137H245.328L247.042 86.1367L248.288 86.9155L248.599 87.5386V88.4732L248.443 88.6289H247.042L245.328 87.8501H243.771L242.992 88.6289L242.836 89.4078L243.303 90.3423L246.263 92.0557L248.755 93.9249L249.222 94.2364V97.3517L246.73 99.6881L246.419 99.9997H242.369L241.278 98.7536L240.655 98.1305L240.344 97.5075V96.7286L240.655 96.4171H241.901L243.147 97.1959L244.082 97.5075H245.484L246.574 96.7286L246.73 95.6383L245.795 94.5479L242.992 92.9903L241.59 91.9L240.655 90.6539L240.5 90.1866V88.9405L241.123 87.5386L242.524 86.1367L244.082 85.5137Z" fill="#2D2C2C"/>
<path d="M198.752 85.5137L200.465 85.8252L201.4 86.2925L202.179 87.0713L202.49 87.8501L202.335 88.6289H201.088L200.31 88.3174L199.842 87.8501L199.375 87.6944H198.285L197.35 88.3174L196.883 89.252L197.194 90.0308L198.285 90.9654L200.777 92.2115L202.335 93.6134L202.958 94.3922L203.425 95.7941L202.802 97.5075L201.4 99.2208L200.621 99.9997H196.727L194.858 98.2863L194.391 97.1959L194.546 96.4171L195.325 96.2613L198.129 97.5075H199.687L200.621 96.8844L200.933 96.4171V95.4825L200.31 94.7037L197.039 92.9903L195.481 91.5884L194.702 90.0308V88.9405L195.481 87.3828L196.26 86.4483L197.817 85.6694L198.752 85.5137Z" fill="#2D2B2C"/>
<path d="M204.047 85.9805H213.081L213.237 86.1362V88.0054L210.122 88.3169H209.81V99.6876L209.031 99.8434L208.408 99.6876V99.9992L207.629 99.8434L207.474 88.3169H204.514L204.047 87.3823V85.9805Z" fill="#2D2C2C"/>
<path d="M96.5733 52.6484H97.9751L100.156 53.1157L101.402 54.0503L102.181 55.1407L102.648 56.5425V59.1905L102.025 61.2154L100.623 62.7731L99.0655 63.7076L96.729 64.1749H94.3926L93.9253 63.3961L93.7695 62.4615V55.4522L93.9253 53.1157L94.2368 52.8042L96.5733 52.6484ZM96.2617 53.7388L95.4829 54.2061V62.4615L95.6387 62.6173H96.8848L98.4424 62.3058L100 61.5269L100.935 60.4366L101.402 58.879V56.854L100.935 55.9195L100.156 55.1407L98.9097 54.2061L97.5079 53.7388H96.2617Z" fill="#FCFEFE"/>
<path d="M180.22 54.3613L180.688 54.9844L181.934 59.813L183.647 64.9532L184.114 66.6666V67.4454L183.803 67.6012H175.703L176.015 66.0436L177.572 61.6822L179.13 56.8535L179.753 54.8286L180.22 54.3613ZM180.064 59.5015L179.286 60.2803L178.663 62.6168L177.728 65.4205V65.8878L178.04 66.0436L179.441 66.1993H182.245L181.934 64.7975L181.311 62.3053L180.999 60.1246L180.376 59.5015H180.064Z" fill="#FCFEFE"/>
<path d="M123.677 54.5176H123.989L124.456 55.7637L125.235 58.879L126.793 63.5519L127.571 66.0441L127.883 67.4459L127.727 67.6017H119.316L119.16 67.1344L120.874 62.6173L122.743 56.854L123.366 54.8291L123.677 54.5176ZM123.366 59.502L122.898 59.9693L122.431 62.15L121.341 64.9537V65.8883L122.275 66.1998H125.858L125.546 64.798L124.768 62.15L124.456 59.9693L123.989 59.502H123.366Z" fill="#FCFEFE"/>
<path d="M86.2959 48.7539L87.3862 49.2212V75.701L87.0747 76.4798L86.4517 76.6355L86.2959 76.1683H85.9844V48.9097L86.2959 48.7539Z" fill="#ECFFFF"/>
<path d="M146.882 85.9805L148.907 86.1362L149.063 86.6035V92.6783L148.907 99.8434L148.128 99.9992H146.726L146.57 99.6876V86.1362L146.882 85.9805Z" fill="#2F2C2C"/>
<path d="M197.042 49.2207H198.288V77.1023H198.132L197.977 70.2488L197.509 71.8064H197.354L197.042 68.6911L196.886 65.8874H196.73V49.688L197.042 49.2207Z" fill="#ECFFFF"/>
<path d="M225.854 85.9805L227.879 86.1362V99.8434L227.101 99.9992H225.699L225.543 94.5475V86.1362L225.854 85.9805Z" fill="#302E2C"/>
<path d="M171.184 61.2148L171.962 61.3706L171.807 62.461L170.249 66.8223L169.314 69.4703H169.003V69.7818H168.691L168.536 70.5606L167.913 71.651H167.445V70.4049L168.224 68.0684L168.38 67.1339L169.938 62.6167L170.405 62.461L170.716 61.6821L171.184 61.2148Z" fill="#EEFEFE"/>
<path d="M216.198 47.9746L216.977 48.1304L217.6 48.5977L217.444 57.1646L216.354 57.0089L215.887 56.3858V48.7534L216.198 47.9746Z" fill="#ECFEFE"/>
<path d="M138.005 50L138.316 50.3115L141.276 59.19L141.12 59.5016L139.407 58.2555V57.7882H139.095L137.07 51.8692L137.226 50.9346L137.693 50.4673H138.005V50Z" fill="#ECFEFE"/>
<path d="M10.9029 42.3672H31.6194V42.523L12.9278 42.6787L12.4605 42.8345L12.149 43.3018L11.3702 43.7691L9.96829 45.0152L8.87795 46.2613H8.56642L8.25489 47.0401L7.63184 48.1304L7.32031 47.9747L8.72218 45.4825L10.1241 43.146L10.9029 42.3672Z" fill="#E42D31"/>
<path d="M105.45 64.9531L106.229 65.2647L106.073 65.8877L104.359 67.1338L102.49 67.9126L99.375 68.5357H98.1289L98.5962 68.0684L99.2192 67.7569L101.4 67.1338L103.425 66.1992L104.827 65.5762L105.45 64.9531Z" fill="#E43331"/>
<path d="M7.94531 74.2988H8.4126L9.34718 75.3892L9.50295 75.8565L9.81447 76.0122L10.2818 77.4141L10.9048 78.6602L31.7771 78.816V78.9717H10.7491L9.65871 77.4141L8.4126 75.2334L7.94531 74.2988Z" fill="#E85234"/>
<path d="M109.502 78.5039L110.281 78.6597V79.5942L109.969 79.9058L115.421 80.0615V80.2173H109.19L108.879 79.9058L109.502 78.5039Z" fill="#E85F36"/>
<path d="M166.357 74.4551L166.825 74.6108L166.98 76.1685L166.669 76.9473H165.734L165.89 75.5454L166.357 74.4551Z" fill="#ECFEFE"/>
<path d="M116.822 54.5176L117.29 54.6733L117.601 55.2964L117.445 56.5425L116.511 56.6983L116.199 55.7637L116.511 54.6733L116.822 54.5176Z" fill="#ECFEFE"/>
<path d="M4.98438 68.8457L5.60743 69.4688L5.91896 69.936L6.54201 70.2476V71.0264L7.16506 71.8052L7.32083 72.4283L8.09964 73.8301V74.1417H7.78812L5.60743 70.2476L4.98438 69.1572V68.8457Z" fill="#E53532"/>
<path d="M115.888 60.4355H116.2L115.888 61.8374L115.265 63.2393L114.331 66.043L113.863 66.3546L114.331 64.6412L115.888 60.4355Z" fill="#D24734"/>
<path d="M108.878 55.7617L109.19 56.229L109.501 57.1636V58.0982L109.19 58.877H108.878L108.723 57.7866V56.0732L108.878 55.7617Z" fill="#C93E33"/>
<path d="M127.727 72.4297H129.128L129.751 73.3643L129.596 73.6758L128.038 72.897V72.5855L127.727 72.4297Z" fill="#EDFEFE"/>
<path d="M142.523 63.707L142.834 63.8628L143.302 65.5762L142.679 65.732L142.367 65.2647V64.0186L142.523 63.707Z" fill="#EDFEFE"/>
<path d="M76.6338 41.5879L76.7896 42.0552L75.855 43.6128H75.6992V42.6782L76.0107 42.0552L76.6338 41.5879Z" fill="#FDB13B"/>
<path d="M165.889 78.6602L166.045 78.9717H166.356V79.2832L166.668 79.439V79.7505L165.422 80.062L165.889 78.6602Z" fill="#E13131"/>
<path d="M115.888 60.4355H116.199L115.888 61.8374L115.265 63.2393H114.953L115.42 61.6817L115.888 60.4355Z" fill="#CB4F37"/>
<path d="M108.881 59.8125H109.037V61.0586L108.881 61.5259H108.57L108.414 60.7471L108.881 59.8125Z" fill="#CC3B33"/>
</svg>
