<svg width="209" height="120" viewBox="0 0 209 120" fill="none" xmlns="http://www.w3.org/2000/svg">
<path d="M116.048 4.25391H116.503L116.351 5.01339L115.44 7.29185L113.465 11.2412L111.339 14.5829L109.82 16.7095L107.845 18.9879L104.807 22.0259L102.681 23.6968L99.6426 25.6714L96.4528 27.3423L92.6553 28.8613L87.6426 30.5321L80.0477 32.6587L75.6426 34.0258L71.6933 35.3929L67.592 37.0637L63.4908 39.1903L61.9718 40.1017H61.668L62.1237 36.9118L63.4908 27.4942L63.6427 25.0638L63.7945 24.9119L64.7059 18.0766L65.4654 13.0639L65.7692 12.3045L66.3768 12.0007L70.9338 11.2412L72.7566 11.0893H75.7945L82.63 11.6969L89.0097 12.4564L90.6806 12.6083H97.0604L101.617 11.8488L106.63 10.1779L111.643 8.20324L113.162 7.44375L115.136 5.46908L116.048 4.25391Z" fill="#33BDFD"/>
<path d="M103.291 54.6836H108.456L111.949 55.1393L115.595 55.8988L118.025 56.6583L119.089 57.114L118.937 58.9367L115.899 80.2023L115.291 84.1517L114.835 84.9112L113.62 85.3668L109.975 86.2782L105.266 87.0377L103.595 87.1896H101.013L98.7341 86.8858L96.3037 86.2782L93.8734 85.0631L92.0506 83.3922L90.9873 81.8732L90.2278 80.3542L89.6202 78.3796L89.3164 76.7087V71.5442L89.7721 68.2025L90.3797 65.924L91.2911 63.4936L92.5063 61.2152L93.8734 59.3924L95.2405 58.0253L96.7594 56.9621L99.1898 55.7469L101.468 54.9874L103.291 54.6836Z" fill="#4F4F53"/>
<path d="M39.3414 54.6836H43.2908L46.1769 55.1393L48.6072 56.0507L50.2781 57.114L51.7971 58.6329L53.0123 60.7595L53.7718 62.7342L54.2275 65.3164V69.1138L53.6199 73.2151L53.0123 75.4935L52.2528 77.772L50.8857 80.3542L49.3667 82.3289L47.6958 83.9998L45.5693 85.3668L42.6832 86.582L40.7085 87.0377L39.4933 87.1896H36.7591L33.8731 86.7339L31.5946 85.9744L29.9237 85.0631L28.4047 83.8479L27.3414 82.6327L26.43 80.9618L25.6705 78.9872L25.3667 77.3163L25.2148 74.5821L25.3667 71.3923L25.8224 68.3544L26.7338 65.1645L27.7971 62.7342L29.1642 60.3038L30.8351 58.481L32.2022 57.2658L34.6326 55.8988L36.6072 55.1393L39.3414 54.6836Z" fill="#4F4F53"/>
<path d="M69.2655 42.3789L69.7212 42.5308L68.506 52.4041L68.2022 55.1383L71.9997 54.6826H77.3161L79.8984 55.1383L82.025 55.8978L83.3921 56.8091L84.4554 57.8724L85.3668 59.3914L85.9744 61.2142L86.1263 61.9737V66.2268L83.3921 85.2139L83.0883 86.2772L82.9364 86.4291H75.4934L75.6453 84.4545L77.468 71.6951L78.2275 66.0749V64.2521L77.7718 63.0369L76.7085 61.8218L75.6453 61.3661L74.7339 61.2142H70.4807L67.5946 61.6699L67.1389 62.7331L64.4048 81.7203L63.6453 86.2772L63.4934 86.4291H56.2022L55.8984 86.1253L58.025 70.1761L58.9364 63.1888L60.4554 51.7965L61.063 47.3915L61.5187 46.1763L64.4048 44.5055L68.0503 42.8346L69.2655 42.3789Z" fill="#4F4F53"/>
<path d="M195.036 54.6836H198.53L200.504 54.9874L202.783 55.7469L204.605 56.8102L206.276 58.481L207.34 60.3038L207.947 62.1266L208.099 63.0379V66.6835L207.492 69.8733L206.732 71.9999L206.124 72.4556L202.175 72.6075H188.808L188.504 72.9113V75.6454L189.112 77.6201L190.023 78.8353L190.935 79.5948L192.302 80.2023L194.428 80.658H197.922L201.416 80.2023L203.542 79.8985L203.694 80.0504V85.6706L202.479 86.1263L198.833 86.8858L196.707 87.1896H193.213L190.327 86.7339L187.897 85.9744L185.77 84.9112L184.403 83.8479L183.34 82.7846L181.973 80.658L181.213 78.6834L180.605 75.6454V71.6961L181.061 68.5062L181.821 65.6202L182.884 63.0379L184.099 61.0633L185.314 59.5443L186.074 58.7848L187.593 57.4177L189.871 56.0507L192.302 55.1393L195.036 54.6836Z" fill="#4F4F53"/>
<path d="M60.0032 0H67.75L71.8513 0.455692L76.8639 1.36708L83.6993 3.18984L89.1677 4.70882L94.0285 5.7721L97.0664 6.22779L98.8892 6.37969H102.839L106.636 6.07589L110.282 5.4683L115.446 4.40502L116.054 4.55692L113.927 6.83538L112.712 7.89866L108.611 9.56953L104.509 11.0885L101.623 11.9999L97.0664 12.7594H90.6867L83.6993 11.9999L77.7753 11.3923L75.8006 11.2404H72.7626L68.8133 11.6961L65.9272 12.3037L65.6234 13.0632L64.4082 21.2656L63.9525 24.9112L62.5854 25.3669L59.5475 26.582L57.4209 27.7972L56.0538 28.8605L55.75 28.7086L56.3576 26.1263L57.4209 18.8353L58.6361 9.72143L59.8513 0.151897L60.0032 0Z" fill="#FAD41A"/>
<path d="M136.402 54.6836H142.326L145.212 55.1393L147.643 56.0507L149.314 57.114L150.377 58.3291L151.44 60.4557L151.896 62.4304V65.7721L151.288 70.329L149.465 82.9365L148.858 86.2782L148.706 86.4301H141.263L141.415 84.3036L143.997 66.0759V64.405L143.389 62.886L142.478 61.8228L141.415 61.3671L140.655 61.2152H136.25L133.364 61.6709L133.06 61.9747L131.541 71.9999L129.567 85.8225L129.263 86.4301H121.668L121.972 83.8479L123.339 74.1264L125.617 58.1772L125.921 57.114L129.111 56.0507L133.06 55.1393L136.402 54.6836Z" fill="#4F4F53"/>
<path d="M111.945 8.05078L112.553 8.20268L111.945 9.26596L110.578 10.7849L109.819 11.5444L108.148 13.0634L105.414 15.0381L101.92 17.1646L98.4263 18.9874L95.2364 20.2026L92.1985 21.1139L88.0972 22.0253L81.8694 22.9367L71.9959 23.8481L66.9833 24.3038L63.9453 24.9114V23.5443L65.0086 15.9494L65.6162 12.4558L66.3757 12.0001L70.9326 11.2406L72.7554 11.0887H75.7934L82.6288 11.6963L89.0086 12.4558L90.6795 12.6077H97.0592L101.616 11.8482L106.629 10.1773L111.641 8.20268L111.945 8.05078Z" fill="#117549"/>
<path d="M169.364 54.6836H173.618L176.656 55.1393L179.39 56.0507L180.453 56.6583L179.238 59.8481L178.326 62.1266L178.023 62.2785L175.44 61.519L174.377 61.3671H169.972L168.149 61.9747L166.478 63.1898L165.415 64.405L164.2 66.5316L163.44 68.9619L162.985 71.6961V74.734L163.592 77.1644L164.2 78.3796L164.959 79.291L166.782 80.2023L168.909 80.658H171.187L174.225 80.2023L175.592 80.0504L175.896 81.7213L176.2 84.3036V85.8225L174.529 86.4301L171.491 87.0377L170.276 87.1896H167.086L164.2 86.7339L161.769 85.9744L159.795 84.9112L158.276 83.696L157.061 82.177L155.845 79.7467L155.238 77.4682L155.086 76.4049V71.5442L155.694 67.5949L156.909 63.9493L158.124 61.6709L159.643 59.5443L160.858 58.3291L162.681 56.9621L165.111 55.7469L167.542 54.9874L169.364 54.6836Z" fill="#4F4F53"/>
<path d="M14.5823 54.6836H18.5316L21.7215 55.1393L24.4557 56.0507L25.3671 56.5064L25.2152 57.4177L23.3924 62.1266L23.0886 62.2785L20.5063 61.519L19.5949 61.3671H15.038L12.9114 62.1266L11.3924 63.3417L10.0253 65.0126L8.81012 67.5949L8.20253 70.1771L8.05063 71.2404V75.0378L8.65822 77.3163L9.56961 78.8353L10.6329 79.7467L12.1519 80.3542L13.8228 80.658H16.2532L19.2911 80.2023L20.6582 80.0504L21.4177 85.6706L20.0506 86.2782L17.4683 86.8858L15.3418 87.1896H12.1519L9.26582 86.7339L6.83544 85.9744L5.01265 85.0631L3.34177 83.696L2.12658 82.177L0.911392 79.7467L0.303797 77.6201L0 75.1897V73.2151L0.303797 70.0252L0.911392 67.1392L1.97468 63.9493L3.34177 61.3671L4.86076 59.3924L6.07594 58.1772L8.05063 56.8102L10.481 55.595L12.6076 54.9874L14.5823 54.6836Z" fill="#4F4F53"/>
<path d="M60.0032 0H67.75L69.5728 0.151897V0.303795L67.75 0.455692L68.0538 1.51897L68.5095 1.67087V1.97467L69.269 2.27846L70.788 3.34174V3.64554L71.5475 3.94933L71.8513 4.70882L73.2183 6.53158H73.5221L73.8259 7.29107L73.9778 8.50625V9.72143L72.4588 10.7847L70.788 10.9366L70.4842 11.0885L70.9399 11.3923L66.3829 12.1518L65.7753 12.4556L65.0158 17.0125L64.1044 23.5441L63.9525 24.9112L62.5854 25.3669L59.5475 26.582L57.4209 27.7972L56.0538 28.8605L55.75 28.7086L56.3576 26.1263L57.4209 18.8353L58.6361 9.72143L59.8513 0.151897L60.0032 0Z" fill="#C0D146"/>
<path d="M39.493 61.0605H42.3791L43.8981 61.5162L45.1133 62.4276L46.0247 63.7947L46.4804 65.4656V70.0225L46.0247 73.0604L45.2652 75.4908L44.05 77.9211L42.6829 79.4401L41.1639 80.3515L39.9487 80.8072H37.2145L35.5437 80.1996L34.3285 79.1363L33.7209 78.2249L33.1133 76.0984V71.3896L33.569 68.5035L34.3285 66.0732L35.3918 63.9466L36.7588 62.4276L37.5183 61.82L38.8854 61.2124L39.493 61.0605Z" fill="#FEFEFE"/>
<path d="M104.05 61.0605H106.936L110.126 61.3643L110.581 61.6681L110.43 64.0985L108.151 79.8958L107.695 80.3515L106.328 80.6553L104.809 80.8072H101.923L100.1 80.3515L98.7334 79.4401L97.822 78.2249L97.0625 75.3389V72.1491L97.5182 68.6554L98.1258 66.5289L98.8853 64.858L99.7967 63.4909L101.164 62.1238L102.683 61.3643L104.05 61.0605Z" fill="#FEFEFE"/>
<path d="M34.6331 103.291L37.0635 103.443L38.5825 104.051L39.6458 105.114L40.4053 106.785L40.5572 107.392V110.126L40.1015 111.493L39.4939 111.949L29.6204 112.101V114.531L30.228 116.202L31.1394 117.266L32.6584 117.873L33.5698 118.025H35.5445L37.823 117.569H38.5825L38.4306 118.785L37.5192 119.544L35.0888 120H32.0508L30.0761 119.392L28.7091 118.481L27.4939 116.81L26.8863 114.835L26.7344 113.164L27.0382 110.43L27.7977 108.152L28.7091 106.481L30.0761 104.962L31.747 103.899L33.266 103.443L34.6331 103.291Z" fill="#4F4F53"/>
<path d="M85.5146 103.291L87.4893 103.443L89.0082 104.202L90.2234 105.569L90.6791 106.785L90.831 107.544V109.367L90.5272 111.342L89.9196 111.949L79.8943 112.101L79.7424 112.405V113.772L80.0462 115.139L80.8057 116.506L81.869 117.417L83.0842 117.873L84.2994 118.025H85.6665L87.945 117.569L88.5526 117.417L88.7045 117.569V118.633L88.4007 119.24L87.4893 119.696L85.2108 120H82.6285L80.8057 119.544L79.4386 118.785L78.3753 117.721L77.464 115.898L77.1602 114.076V111.949L77.6159 109.519L78.3753 107.696L79.2867 106.177L80.8057 104.658L82.0209 103.899L83.5399 103.443L85.5146 103.291Z" fill="#4F4F53"/>
<path d="M130.329 103.291L132.607 103.443L134.126 104.051L135.493 105.418L136.101 106.937V109.823L135.645 111.797L135.493 111.949H127.747L125.164 112.101V114.228L125.772 116.05L126.835 117.266L128.202 117.873L129.114 118.025H131.544L133.215 117.569L133.823 117.417L134.126 117.721L133.974 118.481L133.367 119.392L131.848 119.848L130.785 120H127.747L125.772 119.392L124.557 118.633L123.493 117.417L122.734 115.747L122.582 114.987V111.19L123.342 108.304L124.405 106.481L125.772 104.962L127.443 103.899L128.962 103.443L130.329 103.291Z" fill="#4F4F53"/>
<path d="M67.5938 0.302734H70.7836L73.6697 0.758426L73.214 0.910324V1.21412H74.1254L75.4925 1.9736L76.5558 2.73309L78.5305 3.49258L81.4165 4.55586L83.695 5.46724L83.9988 5.77104L86.1254 6.68242L86.2773 7.13811L87.1887 7.59381L87.0368 8.20139L87.6444 8.50519L87.3406 8.65709L87.4925 9.26468L87.1887 9.72037V10.1761H86.733L87.0368 10.7836L86.5811 10.9355L86.733 11.2393L84.3026 11.5431L82.6317 11.8469L75.7963 11.2393H70.176L70.7836 10.7836L72.4545 10.6318L73.8216 9.72037V7.8976L73.5178 6.83432L72.7583 6.07483L71.3912 4.25206L70.6317 3.34068L68.5051 1.9736L68.0494 1.51791V1.21412L67.7456 1.06222L67.5938 0.302734Z" fill="#F2E120"/>
<path d="M59.9991 0H67.7459L69.5687 0.151897V0.303795L67.7459 0.455692L68.0497 1.51897L68.5054 1.67087V1.97466L69.2649 2.27846L70.7839 3.34174V3.64553L71.5434 3.94933L71.8472 4.70882L73.2143 6.53158H73.5181L73.8219 7.29107L73.9738 8.50625V9.72143L72.4548 10.7847L70.7839 10.9366L70.4801 11.0885L70.9358 11.3923L67.2902 11.9999H65.9232L66.227 11.2404L66.0751 9.87332L65.4675 8.35435L65.3156 7.59486L63.4928 5.7721L62.5814 5.4683L62.2776 5.31641V4.86071H61.8219L60.9105 3.64553L60.6067 3.18984L59.6953 3.34174V1.21518L59.8472 0.151897L59.9991 0Z" fill="#D5DC36"/>
<path d="M100.553 103.291L103.287 103.443L104.806 104.051L106.022 105.114L106.781 106.633L106.933 107.24V109.215L106.022 115.747L105.262 119.696L105.11 119.848H103.135L102.832 119.696L102.984 117.721L104.047 110.126L104.199 107.848L103.895 106.785L103.135 106.025L101.92 105.569H99.6418L96.4519 106.025L95.9962 109.519L94.7811 117.721L94.3254 119.848H92.1988L92.0469 119.696L92.1988 117.569L94.0216 104.658L94.4773 104.202L98.2747 103.443L100.553 103.291Z" fill="#4F4F53"/>
<path d="M24.3024 97.0605H26.5809L28.0999 97.3643L28.2518 97.9719L27.4923 99.339L26.7328 99.1871H24.7581L23.6948 99.7947L22.9353 101.314L22.6315 102.681V103.44L26.8847 103.592L26.5809 105.567L26.429 105.871H22.3277L22.0239 106.934L20.9606 114.073L20.2011 119.086L19.8973 119.845H17.6189L17.467 119.541L19.1379 107.845L19.2898 105.871L17.0113 105.567L16.8594 104.807L17.1632 103.744L17.467 103.592L19.5936 103.44L20.353 100.25L20.9606 99.0352L21.872 97.9719L23.391 97.2124L24.3024 97.0605Z" fill="#4F4F53"/>
<path d="M48.7573 103.291H50.1244L52.4029 103.595L53.9219 104.051L54.0738 104.658L53.6181 106.025L50.8839 105.569H48.4535L46.6307 106.025L45.7193 106.633L45.4155 107.392L45.5674 108.456L46.3269 109.215L48.4535 110.278L51.1877 111.493L52.5548 112.557L53.3143 113.924L53.6181 114.987V116.05L53.1624 117.266L51.9472 118.633L49.8206 119.696L47.8459 120L44.8079 119.848L42.3776 119.24L41.9219 118.785L42.0738 117.873L42.5295 117.266L43.4409 117.569L44.6561 117.873L47.2383 118.025L49.3649 117.721L50.5801 116.81L50.8839 116.202L50.732 114.835L50.1244 114.076L47.9978 113.012L45.1117 111.645L43.5928 110.278L42.9852 109.215L42.8333 108.607V107.392L43.289 105.873L44.3523 104.658L45.7193 103.899L47.2383 103.443L48.7573 103.291Z" fill="#4F4F53"/>
<path d="M142.481 103.443H146.582L148.861 104.051L149.468 104.507L149.165 105.266L148.709 105.874L147.19 105.722L145.063 105.418L143.089 105.57L141.57 106.178L140.81 106.785L140.658 107.089V108.304L141.114 109.064L143.24 110.127L146.43 111.494L147.646 112.557L148.253 113.469L148.557 114.38V116.355L147.949 117.722L146.734 118.937L144.759 119.696L144 119.848H140.051L137.468 119.241L137.316 119.089V117.722L137.62 117.266L138.38 117.418L139.443 117.874L140.506 118.026H143.544L145.063 117.57L145.823 116.962L146.278 116.051L146.127 114.988L145.367 114.076L143.24 113.013L140.658 111.798L139.291 110.734L138.532 109.823L138.076 108.608V107.545L138.532 106.026L139.139 105.114L140.202 104.203L141.721 103.595L142.481 103.443Z" fill="#4F4F53"/>
<path d="M64.101 103.291L66.3794 103.443L68.2022 104.051L68.506 104.658L67.8984 105.873L66.5313 105.721L65.62 105.569H62.8858L61.3668 106.329L60.6073 106.937L59.544 108.456L58.9364 110.278L58.6326 112.405V114.076L58.9364 115.747L59.8478 116.962L61.063 117.721L62.582 118.025H64.5567L66.3794 117.721L66.5313 118.329L65.9237 119.544L65.1643 119.848L63.7972 120H61.063L59.3921 119.544L58.1769 118.936L57.1136 117.873L56.506 116.962L56.0503 115.595L55.8984 114.835V112.101L56.3541 109.671L57.1136 107.696L58.1769 106.025L59.544 104.658L60.7592 103.899L62.4301 103.443L64.101 103.291Z" fill="#4F4F53"/>
<path d="M115.899 103.443H120.001L121.52 103.899L121.823 104.203V105.418L121.368 106.026L119.545 105.57H116.811L115.292 106.178L114.076 107.241L113.165 108.608L112.558 110.279L112.254 111.646V114.38L112.709 115.899L113.621 117.114L115.14 117.874L115.747 118.026H118.178L119.241 117.722H119.849V119.089L119.697 119.544L118.937 119.848L117.418 120H114.684L113.013 119.544L111.646 118.785L110.583 117.57L109.823 116.051L109.52 114.38V112.709L109.975 109.823L110.583 108L111.494 106.329L112.861 104.81L114.38 103.899L115.899 103.443Z" fill="#4F4F53"/>
<path d="M194.882 60.7598H197.464L198.983 61.2155L200.047 61.9749L200.654 62.8863L200.958 64.1015V65.7724L200.654 67.1395L200.047 67.4432H190.173L189.262 67.1395L189.717 65.3167L190.629 63.6458L191.996 62.1268L193.363 61.2155L194.882 60.7598Z" fill="#FEFEFE"/>
<path d="M4.40427 97.5176H6.68275V98.8847L4.55617 113.771L3.64478 119.543L3.49288 119.846H1.3663L1.0625 119.695L1.5182 116.201L3.34098 103.442L4.25237 97.6695L4.40427 97.5176Z" fill="#4F4F53"/>
<path d="M11.3918 103.594H13.8221L13.974 104.201L12.3032 115.746L11.6956 119.543L11.5437 119.847H9.41708L9.11328 119.695L9.41708 117.113L11.2399 104.505L11.3918 103.594Z" fill="#4F4F53"/>
<path d="M72.3015 103.594H74.7318L74.58 105.568L72.9091 117.113L72.4534 119.695L72.3015 119.847H70.3268L69.8711 119.543L71.8458 105.72L72.1496 103.746L72.3015 103.594Z" fill="#4F4F53"/>
<path d="M84.4563 105.264H86.1272L87.6462 105.871L88.4057 106.783L88.7094 107.694V109.821L87.6462 110.124H80.355L80.2031 109.365L80.8107 107.998L81.7221 106.783L82.7854 105.871L84.4563 105.264Z" fill="#FEFEFE"/>
<path d="M129.566 105.264H131.693L132.908 105.871L133.667 106.631L133.819 107.086V109.972L133.515 110.124H125.617L125.465 109.517L126.072 107.998L126.984 106.783L128.047 105.871L129.566 105.264Z" fill="#FEFEFE"/>
<path d="M34.1746 105.264H35.5417L37.0607 105.719L37.8202 106.327L38.2759 107.542V109.821L37.6683 110.124H30.3771L29.7695 109.972L29.9214 109.213L30.8328 107.39L32.048 106.175L33.567 105.416L34.1746 105.264Z" fill="#FEFEFE"/>
<path d="M13.3662 97.9746L14.4295 98.1265L14.7333 98.4303V99.9493L14.1257 100.861L13.67 101.013H12.6067L11.8472 100.557L11.6953 99.6455L12.151 98.2784L13.3662 97.9746Z" fill="#505054"/>
<path d="M73.9726 97.9746L75.1877 98.1265L75.6434 98.886L75.3396 100.253L74.5802 100.861L73.6688 101.013L72.9093 100.709L72.6055 100.253V98.886L72.9093 98.2784L73.9726 97.9746Z" fill="#535457"/>
<path d="M56.2057 26.7344L56.8133 27.342H57.8766L57.1171 28.1015L56.0538 28.8609L55.75 28.709L56.2057 26.7344Z" fill="#117549"/>
<path d="M106.932 10.0234H107.843L107.236 10.4791L106.172 10.9348L104.957 11.0867V10.7829L106.932 10.0234Z" fill="#2BADD3"/>
<path d="M59.9956 0H63.945V0.151897L60.6032 0.303795L60.1475 0.455692L59.9956 1.21518H59.8438V0.151897L59.9956 0Z" fill="#C1D247"/>
<path d="M70.9375 0.455078L72.7603 0.606975L73.6717 0.758873L73.216 1.06267L71.697 0.91077L70.9375 0.758873V0.455078Z" fill="#E4D52B"/>
<path d="M69.4183 11.0879L70.9373 11.2398V11.3917L69.7221 11.5436H68.2031V11.3917L69.4183 11.0879Z" fill="#E4DD2B"/>
</svg>
