<svg width="300" height="77" viewBox="0 0 300 77" fill="none" xmlns="http://www.w3.org/2000/svg">
<path d="M115.591 4.73633H124.916L125.952 5.03233L126.692 5.92034L127.58 7.99237L129.208 13.1724L130.54 17.6125L133.352 26.7886L140.012 48.5449L141.788 54.465L141.936 54.909V56.389L141.196 57.129L140.752 57.425H130.54L129.8 56.981L129.06 55.205L127.432 49.2849L127.284 49.1369H111.891L111.447 50.4689L110.263 54.909L109.671 56.537L108.931 57.277L108.635 57.425H98.7192L97.9792 57.129L97.5352 56.241L97.6832 54.613L98.8672 50.9129L100.643 44.9929L104.047 33.8927L107.303 23.2366L109.523 15.9845L111.447 9.62039L112.631 6.21635L113.223 5.32834L113.815 4.88433L115.591 4.73633ZM119.439 20.2765L118.847 20.8685L116.035 32.4127L114.407 38.6288V38.9248H124.62L124.768 38.6288L123.88 34.7807L121.363 24.8646L120.327 20.8685L119.883 20.2765H119.439Z" fill="#084C7B"/>
<path d="M242.723 16.873H246.571L249.827 17.3171L252.935 18.3531L255.155 19.5371L256.783 20.8691L258.115 22.3491L259.151 23.9771L260.187 26.3452L260.779 28.7132L260.927 30.0452L261.075 33.8933V42.3294L260.927 45.5854L260.483 48.2495L259.595 50.6175L258.707 52.2455L257.523 53.7255L256.339 54.9096L254.711 56.0936L252.639 57.1296L249.679 57.8696L246.127 58.3136H243.167L239.319 57.8696L237.099 57.2776L235.175 56.5376L233.547 55.3536L231.771 53.5775L230.587 51.5055L229.699 48.8415L229.551 47.8055V43.3654L229.995 41.1454L230.883 39.0733L232.215 37.2973L233.251 36.2613L235.323 34.9293L237.691 34.0413L239.763 33.5973L242.575 33.3013L249.679 33.1533L249.531 31.2292L249.087 29.7492L248.199 28.2692L247.163 27.3812L245.683 26.7892L244.647 26.6412H241.983L239.467 27.2332L235.767 29.0092L235.027 28.8612L233.843 27.2332L231.623 23.2371L230.883 21.7571L231.771 20.5731L233.399 19.5371L236.211 18.2051L239.319 17.3171L241.095 17.021L242.723 16.873ZM243.759 40.7014L242.575 41.2934L241.687 42.0334L240.947 43.2174L240.651 44.2534V45.4374L241.243 47.0654L242.131 48.2495L242.871 48.6935L243.315 48.8415H246.127L247.311 48.3975L248.791 47.0654L249.531 45.5854L249.827 43.9574V40.7014H243.759Z" fill="#084C7B"/>
<path d="M281.947 16.873H285.351L287.867 17.1691L290.679 17.9091L293.195 19.0931L294.823 20.2771L296.155 21.6091L297.487 23.5331L298.227 25.0132L299.115 27.6772L299.263 28.5652L299.411 31.6732V54.3175L299.263 56.5376L297.931 57.4256H289.495L288.607 56.9816L288.163 56.2416L288.015 31.5252L287.719 29.7492L286.831 27.9732L285.795 27.0852L284.611 26.6412H282.539L281.059 27.2332L280.171 28.2692L279.579 29.7492L279.431 30.4892L279.283 33.0053L279.135 56.5376L277.951 57.2776L277.803 57.4256H269.219L268.479 56.9816L267.887 55.9456V29.8972L268.183 27.6772L269.367 24.1251L270.403 22.4971L272.031 20.7211L273.067 19.6851L275.139 18.5011L277.359 17.6131L279.135 17.1691L281.947 16.873Z" fill="#084D7B"/>
<path d="M144.894 17.7598H153.182L154.366 18.3518L154.958 19.0918L155.698 21.4598L157.178 27.6759L160.138 39.3681L160.73 41.8841L161.174 42.6241L161.766 42.7721L162.358 40.1081L164.578 31.2279L167.242 20.7198L167.834 18.9438L169.018 17.9078L169.314 17.7598H177.307L178.195 18.2038L178.639 18.7958V19.8318L177.455 24.1239L175.234 31.2279L172.422 40.5521L170.35 47.2122L168.574 53.1322L167.686 55.6483L166.946 56.8323L166.502 57.2763L166.058 57.4243H155.846L154.81 56.2403L153.922 54.1683L151.85 47.3602L150.37 42.4761L147.854 34.336L146.078 28.4159L143.858 21.3118L143.414 19.0918L143.858 18.2038L144.894 17.7598Z" fill="#084C7B"/>
<path d="M49.2836 17.6113L50.1716 17.9073L52.3916 19.0913L54.1676 20.4234L55.9436 22.0514L57.5717 23.8274L59.4957 26.9355L60.3837 29.0075L60.9757 31.0795L61.2717 33.5955V36.7036L60.9757 39.5156L60.2357 42.3277L59.3477 44.5477L58.0157 47.0637L56.8317 48.5437L55.2036 50.3198L53.7236 51.7998L51.3556 53.4278L48.8395 54.7598L47.6555 55.2038H46.7675L46.0275 54.7598L45.8795 53.7238L47.2115 52.0958L49.2836 49.2838L50.3196 47.6557L51.5036 45.1397L52.5396 41.4396L52.6876 40.1076V38.1836L52.2436 35.9636L51.6516 34.4836L50.4676 32.7075L49.2836 31.3755L47.8035 30.3395L45.7315 29.3035L43.5115 28.7115L42.4755 28.5635H40.4034L38.3314 29.0075L36.4074 29.7475L34.7794 30.6355L33.0033 32.2635L31.9673 33.2995L27.9713 33.1515L24.4192 33.5955L21.4592 34.4836L19.8312 35.0756H19.5352V33.8915L20.4232 30.7835L21.6072 27.9715L23.0872 25.3074L24.4192 23.5314L26.4912 21.4594L27.5273 20.2754L30.1913 18.3513L30.9313 17.9073H31.6713L34.0393 20.2754L35.6674 21.3114L37.4434 22.0514L38.7754 22.3474H42.1795L44.2515 21.7554L45.8795 20.8674L47.5075 19.6834L48.5435 18.6473L49.2836 17.6113Z" fill="#094C7B"/>
<path d="M27.8262 35.0762H29.6022L32.7103 35.3722L35.2263 35.9642L38.0383 37.0002L40.4064 38.3322L42.0344 39.5162L42.6264 40.4042V41.2923L42.0344 41.8843H40.8504L37.5943 41.2923L35.6703 41.1443H34.1903L31.2302 41.4403L27.6782 42.3283L25.6062 43.3643L23.9781 44.5483L22.4981 46.0283L21.3141 48.3963L20.7221 50.0244L20.4261 52.0964L20.5741 54.4644L21.3141 56.8325L22.3501 58.9045L23.6821 60.6805L24.8662 61.7165L26.9382 62.9005L28.8622 63.6406L30.6382 64.2326L31.3782 64.9726L32.4143 67.0446L34.3383 69.7086L35.5223 71.1887L36.8543 72.3727L38.0383 73.4087L38.3343 73.7047L38.1863 74.4447L36.1143 75.0367L32.5623 75.6287L30.7862 75.7767H28.2702L25.0142 75.3327L22.9421 74.7407L19.8341 73.4087L17.9101 72.3727L17.7621 71.9287L18.5021 69.8566L18.6501 69.1166V65.7126L18.0581 63.4925L16.874 61.2725L15.394 59.6445L13.914 58.6085L11.99 57.7205L9.02994 56.9805L8.73394 56.6845L8.58594 54.9084V52.6884L9.17795 49.7284L10.214 46.6203L11.842 43.6603L13.026 42.1803L14.654 40.4042L16.282 39.0722L17.7621 38.0362L20.1301 36.8522L21.9061 36.1122L25.0142 35.3722L27.8262 35.0762Z" fill="#34979F"/>
<path d="M63.1985 38.1836L64.2345 38.7756L65.2705 39.8116L66.3065 40.9956L67.7865 42.7717L69.2665 45.1397L70.4506 47.6557L71.4866 50.9118L71.9306 53.4278L72.0786 54.7598V56.8318L69.7105 57.4238L67.4905 58.3119L65.8625 59.3479L64.3825 60.8279L63.0505 62.8999L62.3104 64.8239L62.1624 65.712V68.82L62.7545 71.04L62.9025 72.372L60.9784 73.8521L58.6104 75.0361L56.3904 75.7761L54.0223 76.2201L52.6903 76.3681H50.4703L47.2142 75.9241L44.8462 75.1841L42.4782 74.1481L40.2582 72.8161L38.7781 71.632L37.7421 70.744L36.7061 69.56L35.5221 68.228L34.0421 66.008L32.5621 62.8999L31.674 60.0879L31.082 56.5358V53.8718L31.378 52.3918L31.97 51.5038L32.5621 50.9118L33.3021 51.0598L33.8941 51.9478L35.5221 56.2398L36.7061 58.3119L38.1861 60.3839L39.5181 61.8639L41.1462 63.4919L43.2182 64.8239L44.9942 65.564L46.7702 65.86H49.1383L51.5063 65.416L53.2823 64.6759L54.9104 63.6399L56.5384 62.0119L58.1664 59.6439L58.9064 58.0159L59.2024 56.6838L59.3504 54.4638L59.0544 51.6518L58.6104 49.8757L58.7584 49.1357L59.6464 47.5077L61.1264 44.9917L62.0144 42.7717L62.7545 39.8116L63.0505 38.3316L63.1985 38.1836Z" fill="#81A244"/>
<path d="M215.197 16.873H219.045L222.005 17.3171L224.669 18.2051L226.446 19.0931L227.186 19.6851L227.482 20.1291V21.0171L225.113 25.7532L224.077 27.3812L223.485 27.8252L222.597 27.6772L220.229 26.7892L219.489 26.6412H217.121L215.789 27.2332L215.049 27.8252L214.161 29.6012L214.013 30.1932L213.865 39.8134L213.717 56.3896L212.977 57.1296L212.385 57.4256H203.949L203.061 56.8336L202.617 56.2416V29.7492L203.061 27.2332L203.801 24.7172L204.837 22.6451L206.021 21.0171L207.353 19.6851L209.721 18.2051L211.793 17.4651L213.865 17.021L215.197 16.873Z" fill="#084C7B"/>
<path d="M184.855 17.7598H193.143L194.327 18.4998L194.623 18.9438V56.0923L194.179 56.8323L193.143 57.4243H184.855L183.819 56.8323L183.375 56.0923V18.7958L184.855 17.7598Z" fill="#094D7B"/>
<path d="M39.0724 3.84766H42.0324L44.4005 4.58767L45.8805 5.62368L47.0645 6.8077L48.2485 8.58372L48.8405 10.2117L48.9885 10.9518V13.7638L48.3965 15.5398L47.5085 17.1678L45.8805 18.9439L43.8085 20.1279L42.4765 20.5719L41.5884 20.7199H39.2204L37.0004 20.1279L35.5204 19.2399L34.0403 17.9078L33.0043 16.4278L32.2643 14.9478L31.8203 13.0238V11.3958L32.2643 9.47173L33.0043 7.99171L34.0403 6.65969L34.7804 5.77168L36.2604 4.73567L38.3324 3.99566L39.0724 3.84766Z" fill="#094C7B"/>
<path d="M71.4856 58.9043H73.4096L75.1856 59.3483L76.9617 60.2363L78.5897 61.5683L79.7737 63.1964L80.5137 64.8244L80.8097 66.0084V68.9684L80.3657 70.4485L79.4777 72.0765L78.1457 73.5565L76.9617 74.5925L75.4817 75.3325L73.7056 75.7765H70.7456L68.9696 75.1845L67.3415 74.1485L65.5655 72.3725L64.6775 70.8925L63.9375 68.5244V66.0084L64.6775 63.7884L65.7135 62.1603L67.0455 60.8283L68.6736 59.7923L70.1536 59.2003L71.4856 58.9043Z" fill="#81A244"/>
<path d="M7.6961 58.9043H9.47213L11.2481 59.3483L13.3202 60.3843L15.0962 62.0123L16.2802 63.9364L16.7242 65.2684L16.8722 66.0084V68.9684L16.2802 70.8925L15.2442 72.5205L13.4682 74.2965L12.2842 75.0365L10.5081 75.6285L7.99211 75.9245L6.21608 75.6285L4.44006 74.8885L3.25604 74.0005L1.62802 72.3725L0.74001 70.8925L0.296004 69.5604L0 67.0444L0.444006 64.6764L1.62802 62.3083L2.96004 60.9763L5.03207 59.6443L6.80809 59.0523L7.6961 58.9043Z" fill="#34979F"/>
<path d="M187.817 0H189.741L191.369 0.296004L192.849 1.03601L193.737 1.77602L194.773 3.25604L195.365 5.03207V7.6961L194.773 9.32412L193.737 10.6561L192.553 11.6922L191.221 12.2842L188.853 12.5802L186.485 12.2842L184.857 11.2481L183.821 10.2121L182.785 8.14011L182.637 7.5481V5.03207L183.377 2.96004L184.413 1.62802L185.597 0.74001L187.077 0.148002L187.817 0Z" fill="#094D7B"/>
<path d="M140.753 65.416L141.641 65.712L142.233 66.304L142.825 66.156L144.01 65.564L144.602 65.416H146.082L147.266 65.86L148.006 66.452L148.746 66.304L149.93 65.564L150.67 65.416H152.002L153.334 65.86L154.37 66.896L154.814 67.932L154.962 71.0401V74.0001L154.814 75.7762H153.63L152.89 75.4801V68.3761L152.446 67.34L151.262 66.896H150.226L149.042 67.636L148.894 67.784L148.746 70.5961V75.6282L148.598 75.7762L147.118 75.6282L146.97 75.4801V68.9681L146.674 67.784L146.082 67.192L144.898 66.896L143.714 67.044L142.825 67.636L142.529 68.3761L142.381 75.6282L142.085 75.7762H140.901L140.605 75.4801V68.0801L140.753 65.416Z" fill="#858787"/>
<path d="M203.652 65.2695L205.428 66.1575L206.168 66.0095L207.648 65.4175H209.128L210.608 66.0095L211.2 66.4535L211.792 66.3055L212.976 65.5655L213.568 65.4175H215.048L216.381 65.8615L217.565 67.1936L217.861 68.0816V75.6297L217.713 75.7777L216.233 75.6297L216.085 68.2296L215.641 67.4896L214.9 67.0456L213.42 66.8976L212.384 67.3416L211.94 67.6376L211.792 68.2296V75.6297H210.016L209.868 75.3337V68.2296L209.276 67.3416L208.832 67.0456L207.796 66.8976L206.316 67.3416L205.428 68.3776L205.28 75.6297L205.132 75.7777H203.8L203.652 75.6297V65.2695Z" fill="#858787"/>
<path d="M292.304 60.5332L293.636 60.8292L294.376 61.1252V75.6294L293.488 75.7774L292.896 75.6294H291.86L290.528 76.0734H288.604L287.568 75.6294L286.532 74.7414L285.496 72.6694L285.348 71.9294V70.3013L285.644 68.8213L286.236 67.4893L286.976 66.4533L288.456 65.5653H290.676L292.304 66.1573V60.5332ZM289.344 66.8973L288.16 67.6373L287.568 68.6733L287.42 69.2653V72.0774L288.012 73.7054L288.752 74.4454L289.64 74.7414H290.824L291.712 74.2974L292.156 73.8534L292.304 73.2614L292.452 68.6733L292.008 67.6373L291.268 67.0453L290.824 66.8973H289.344Z" fill="#858787"/>
<path d="M228.072 61.2734H230.588L232.364 61.5694L233.696 62.1614L234.732 63.3455L235.028 64.2335V66.8975L234.436 68.0815L233.4 69.1175L232.216 69.7095L229.996 70.0056H227.776V75.6296L227.628 75.7776H226.148L226 75.6296V61.7174L227.036 61.4214L228.072 61.2734ZM228.516 62.6055L227.924 62.9015V68.5255L229.256 68.6735L231.18 68.3775L232.364 67.7855L233.104 66.8975L233.252 66.4535V64.9735L232.66 63.7895L231.772 63.0495L230.588 62.6055H228.516Z" fill="#858787"/>
<path d="M109.078 60.6816L110.558 60.8296L110.854 61.1256L111.002 66.4537L112.186 65.7137L113.37 65.4177L115.294 65.5657L116.182 66.0097L117.07 67.0457L117.514 68.2297V75.6298L117.366 75.7778H116.182L115.59 75.4818V68.8217L115.294 67.3417L113.666 66.8977L112.334 67.0457L111.15 67.7857L111.002 68.2297L110.854 75.6298L110.558 75.7778H109.226L109.078 74.7418V60.6816Z" fill="#858787"/>
<path d="M98.2743 61.4199H102.566L104.194 61.8639L105.526 63.0479L106.118 64.232L106.266 64.972V66.008L105.822 67.488L104.786 68.82L103.306 69.708L102.862 69.856L100.79 70.004H99.0143V75.7761H97.3863L97.2383 73.4081V61.8639L97.5343 61.5679L98.2743 61.4199ZM99.1623 62.6039L99.0143 62.7519V68.524L99.1623 68.672H101.53L103.158 68.08L104.194 66.896L104.342 66.452V64.824L103.75 63.64L102.862 62.8999L101.974 62.6039H99.1623Z" fill="#858787"/>
<path d="M180.121 60.5332L181.157 60.6812L182.045 61.1252V66.4533L183.821 65.5653L184.561 65.4173H185.745L187.077 65.8613L188.261 66.8973L188.705 67.7853L188.853 75.4814L188.261 75.7774L187.077 75.6294L186.929 75.4814V68.5253L186.337 67.3413L185.153 66.8973H184.117L183.081 67.3413L182.341 68.0813L182.193 68.3773L182.045 75.6294L180.417 75.7774L180.269 75.6294L180.121 60.5332Z" fill="#858787"/>
<path d="M161.026 65.416H163.098L164.43 65.86L165.466 66.748L165.91 67.784L166.058 69.1161L166.206 74.4441L166.946 75.3321V75.7762H165.614L164.578 75.1841L163.838 75.3321L162.654 75.9242L162.21 76.0722H159.99L159.102 75.6282L158.214 74.5921L157.918 73.8521V72.3721L158.51 71.1881L159.694 70.1521L161.174 69.5601L164.282 69.4121L163.986 67.784L163.246 67.044L162.654 66.896L160.73 67.044L159.102 67.784H158.51V66.896L159.25 66.156L160.434 65.564L161.026 65.416ZM161.766 70.5961L160.434 71.0401L159.694 71.9281L159.546 72.2241V73.2601L159.99 74.1481L160.73 74.7401H162.358L163.542 74.0001L164.134 73.2601L164.282 72.9641V71.1881L163.986 70.7441L163.542 70.5961H161.766Z" fill="#858787"/>
<path d="M124.473 65.416L126.397 65.564L127.581 66.156L128.321 67.044L128.617 67.932L128.765 74.4441L129.505 75.0361L129.653 75.7762H128.173L127.285 75.1841L125.953 75.6282L124.769 76.0722H122.549L121.513 75.4801L120.921 74.7401L120.625 73.8521V72.2241L121.217 71.0401L122.253 70.1521L123.141 69.7081L125.657 69.4121H126.989L126.545 67.488L125.805 67.044H123.437L121.809 67.784H121.365L121.217 66.896L121.661 66.156L122.993 65.564L124.473 65.416ZM124.473 70.5961L123.141 71.0401L122.401 71.9281L122.253 72.2241V73.2601L122.845 74.4441L123.437 74.7401H124.917L126.101 74.1481L126.841 73.2601L126.989 72.9641V71.1881L126.841 70.7441L126.545 70.5961H124.473Z" fill="#858787"/>
<path d="M195.661 65.416H196.993L198.473 65.86L199.657 66.896L200.397 68.3761L200.545 68.8201V70.4481L200.397 70.7441L197.733 70.8921H193.737L194.033 72.3721L194.625 73.5561L195.661 74.4441L196.105 74.5921H198.029L199.805 73.5561H200.397L200.249 74.5921L199.805 75.3321L198.621 75.9242L198.177 76.0722H195.365L194.329 75.6282L193.145 74.5921L192.257 73.1121L191.961 72.0761V69.4121L192.701 67.636L193.589 66.452L194.625 65.712L195.661 65.416ZM195.661 66.896L194.773 67.488L194.033 68.3761L193.885 69.7081H198.473L198.621 69.5601V68.3761L197.881 67.192L197.289 66.896H195.661Z" fill="#868888"/>
<path d="M267.145 61.2734L268.773 61.5694L268.921 61.7174V74.2976L274.989 74.4456L275.137 75.7776H267.293L267.145 75.6296V61.2734Z" fill="#858787"/>
<path d="M173.46 65.416H174.792L176.124 65.712L177.012 66.304L177.308 66.748V67.932L176.864 68.0801L175.384 67.192L174.792 67.044H173.46L172.276 67.636L171.388 68.9681L171.092 70.1521V71.3361L171.536 72.8161L172.424 74.0001L173.312 74.5921H175.088L177.012 73.4081L177.308 73.5561V74.7401L176.716 75.4801L175.236 76.0722H172.72L171.536 75.6282L170.648 74.8881L169.612 73.2601L169.168 71.4841V70.3001L169.612 68.5241L170.5 67.044L171.684 66.008L172.72 65.564L173.46 65.416Z" fill="#858787"/>
<path d="M245.981 65.2695L246.277 65.4175L246.129 66.3055L244.501 70.7456L242.725 74.8897L242.281 75.6297L241.245 75.7777L240.505 75.3337L239.321 72.3736L237.101 66.3055L236.953 65.4175H237.989L238.729 66.0095L239.913 68.8216L241.393 73.2616H241.689L242.577 71.0416L243.761 67.6376L244.501 66.0095L245.389 65.4175L245.981 65.2695Z" fill="#858787"/>
<path d="M248.941 62.457L250.421 62.605L250.569 62.753V65.8611H253.529L253.973 66.1571V66.8971L253.825 67.0451L250.717 67.1931V73.5572L251.013 74.5932H252.789L253.973 73.8532L254.565 74.0012L254.417 75.0372L253.677 75.7772L252.937 76.0732H250.865L249.681 75.4812L249.089 74.5932L248.793 72.5212V62.605L248.941 62.457Z" fill="#858787"/>
<path d="M278.097 62.457L279.577 62.753L279.725 62.901V65.8611H281.797L282.981 66.0091L283.129 66.1571V67.0451H279.725L279.873 74.0012L280.021 74.4452L280.317 74.5932H281.797L282.981 73.8532L283.425 74.0012V74.8892L282.685 75.7772L281.797 76.0732H279.725L278.837 75.6292L278.245 74.8892L277.949 73.5572V62.605L278.097 62.457Z" fill="#858787"/>
<path d="M132.758 65.416L133.646 65.712L134.386 66.008L135.126 65.86L135.57 65.564H137.79L138.086 66.452L137.79 67.044H135.57L134.682 67.488L134.534 67.784L134.386 75.6282L133.35 75.7762L132.758 75.6282V65.416Z" fill="#858787"/>
<path d="M257.374 73.4082H259.002L259.15 75.4802L259.002 75.7762L258.558 75.9242H257.226L256.93 75.6282V73.8522L257.374 73.4082Z" fill="#868888"/>
<path d="M298.373 73.4082H299.409L300.001 73.8522V75.6282L299.705 75.9242H298.669L297.929 75.4802L297.781 74.1482L298.373 73.4082Z" fill="#838788"/>
<path d="M119.288 19.3887H120.028L120.324 19.6847V20.8687L119.88 20.4247L118.992 20.5727L119.14 19.5367L119.288 19.3887Z" fill="#858787"/>
<path d="M161.915 42.0332H162.063L161.915 43.6612L161.619 44.1052L161.027 43.8092V42.6252L161.767 42.7732L161.915 42.0332Z" fill="#878989"/>
</svg>
