<svg width="300" height="105" viewBox="0 0 300 105" fill="none" xmlns="http://www.w3.org/2000/svg">
<path d="M44.8641 0H46.301L46.6203 3.99149L47.2589 7.02501L48.5362 10.2182L49.4942 11.8148L50.7714 13.4114L52.2083 15.008L53.6453 16.4449L54.9225 17.5625L57.1578 19.6381L58.435 20.7557L62.9055 25.2262L64.5021 27.6211L65.6197 30.1756L65.939 31.2932V36.7217L65.1407 39.7552L64.1827 42.1501L62.9055 43.9063L61.3089 45.1836L58.7543 46.6205L55.8805 47.8978L52.2083 49.4944L49.6538 50.9313L46.9396 52.8473L45.5027 53.9649L43.4271 55.7211L41.0322 57.9564L39.9146 59.074L38.3181 61.1496L36.7215 63.8638L36.0828 65.3007V67.8552L36.4021 69.9308L37.0408 70.8888L40.234 72.8047L42.6288 73.7626L45.822 74.7206L49.0152 75.3592L51.889 75.6786L54.6032 75.8382H66.8969V76.4769L66.0986 77.1155L64.3424 77.9138L63.8634 78.0734L57.1578 78.3928H51.7294L45.6623 77.9138L39.755 76.9558L40.5533 78.3928L42.3095 80.628L44.2254 82.7036L45.343 83.9808L47.5782 86.2161L48.8555 87.3337L50.6118 88.9303L52.847 90.6865L55.7208 92.9218L58.7543 94.8377L61.9475 96.9133L64.1827 98.1905L64.981 98.8292L64.5021 100.585L63.2248 104.258L62.7458 104.417L59.872 102.661L54.9225 99.3081L52.6873 97.7116L50.4521 95.9553L48.0572 93.8797L46.1413 92.1235L43.1078 89.0899L41.6709 87.3337L40.0743 85.4178L37.8391 82.0649L36.2425 79.0314L35.2845 75.9979L34.8056 75.1996L32.251 73.9223L30.3351 72.4854L28.5789 71.0484L27.3016 69.6115L25.8647 67.0569L25.0664 64.6621L24.7471 62.7461V60.3513L25.3857 57.7967L26.3437 56.0405L27.9402 54.1245L29.8561 52.6876L32.73 50.9313L36.0828 49.3348L40.234 47.8978L43.4271 46.4609L46.4606 44.8643L48.6959 43.2677L49.8135 41.9904L50.9311 39.7552L51.2504 38.6376L51.4101 37.3603V34.8057L50.7714 32.8898L49.6538 31.4529L48.6959 30.6546L46.78 29.6966L45.0237 29.2177L39.1163 28.4194L32.73 28.579L32.0914 28.7387H27.142L23.3101 28.4194L18.5204 27.6211L14.5289 26.5035L11.4954 25.3858L8.94088 24.1086L7.18463 22.991L5.42839 21.554L3.51249 19.6381L1.9159 17.2432L0.798293 14.6887L0.159659 12.2938L0 10.6972L0.319317 8.78127L0.957951 8.46195L3.99146 7.82331L5.10907 7.50399H5.90737L6.06703 7.82331L6.546 11.3358L7.50395 14.6887L8.4619 16.6046L10.0585 18.8398L11.4954 20.1171L13.571 21.554L16.4448 23.1506L20.117 24.5875L23.7891 25.5455L28.4192 26.1841L30.0158 26.3438H33.209L36.5618 26.1841H44.7044L49.0152 26.6631L51.7294 27.3018L53.9646 28.2597L55.5612 29.537L56.6788 30.8143L57.4771 32.4109L57.6367 33.0495V35.604L56.9981 37.6796L56.0401 39.4359L54.2839 41.9904L53.9646 42.7887L55.4015 42.4694L60.1913 40.2342L62.4265 38.9569L63.2248 38.1586H63.5441L64.1827 36.8813L64.0231 35.4444L62.7458 32.8898L61.4685 31.1336L59.5526 29.058L57.1578 26.6631L55.4015 25.2262L53.6453 23.6296L51.889 22.1927L49.4942 19.7978L48.0572 17.7222L46.78 15.3273L45.822 12.4534L44.8641 8.62161L44.5447 6.70569V1.59659L44.7044 0.159659L44.8641 0ZM47.8976 45.6626L43.4271 46.9399L40.3936 48.0575L37.9987 49.3348L36.0828 50.612L33.8476 52.3683L32.5703 53.6456L31.6124 55.2422L30.8141 57.4774L30.6544 58.116V61.7882L31.1334 63.7041L32.0914 65.9393L33.3686 67.8552L34.4862 68.6535L34.9652 66.578L35.2845 64.1831L36.2425 60.9899L37.6794 57.637L38.9567 55.7211L40.8726 53.1666L43.2675 50.612L45.5027 48.6961L47.7379 47.0995L48.6959 46.1416V45.6626H47.8976Z" fill="#FE7E66"/>
<path d="M101.703 34.646H116.551L119.106 35.125L121.341 36.2426L122.618 37.6795L123.417 39.2761L123.896 41.0324V43.4273L123.257 45.5028L121.82 47.7381L120.224 49.175L118.467 50.2926L117.19 50.9313L117.509 51.7295L122.299 58.1159L124.055 60.5108L125.652 62.5864L126.131 62.9057L126.61 62.1074L127.887 59.2335L129.643 55.0824L131.879 49.8136L134.433 43.7466L136.668 38.4778L138.105 34.9653L138.425 34.646H143.853L144.651 35.2846L146.727 40.3937L149.441 46.6205L153.592 56.2L156.626 63.0654V63.3847H150.878L149.601 60.8301L148.164 57.3176L147.365 55.721H138.744L137.946 55.5614L138.105 54.6034L139.702 51.2506L140.021 50.9313H145.45L144.013 47.4187L141.937 42.15L141.458 41.0324H140.979L140.181 42.629L136.668 51.4102L134.273 57.3176L132.358 62.1074L131.719 63.3847L130.601 63.5443H119.904L119.106 63.3847L117.509 61.1495L115.434 58.2756L114.156 56.3597L110.644 51.2506L110.165 49.8136L110.325 48.8557L111.123 48.3767L113.518 47.7381L115.434 46.7801L116.871 45.6625L117.829 44.2256L118.148 43.1079L117.988 41.5113L117.19 40.0744L116.392 39.7551L113.997 39.5954L107.291 39.4358L107.451 63.225L107.291 63.3847H101.863L101.703 63.225V34.646Z" fill="#C6392E"/>
<path d="M193.833 34.4866H198.623L201.337 34.9656L203.892 35.9235L205.488 36.8815L207.404 38.6377L208.841 40.7133L209.799 43.1082L210.278 45.1838L210.438 46.6207V51.4105L209.959 54.444L209.16 56.8389L207.883 58.9145L206.446 60.5111L205.169 61.6287L202.774 62.7463L200.379 63.3849L197.984 63.7042H193.833L190.959 63.2253L188.724 62.427L186.808 61.3093L185.052 59.7128L183.455 57.3179L182.498 54.923L181.859 52.3684L181.699 51.2508V46.1417L182.178 43.5872L183.136 41.0326L184.254 39.1167L185.371 37.8394L187.607 36.2428L189.682 35.2849L192.396 34.6462L193.833 34.4866ZM194.632 39.1167L192.396 39.5957L190.8 40.394L189.203 41.8309L188.086 43.7468L187.447 45.8224L187.287 47.0997V51.2508L187.766 53.486L188.565 55.402L189.682 56.8389L190.959 57.7968L192.716 58.5951L194.791 59.0741H197.026L199.421 58.5951L201.018 57.9565L202.455 56.8389L203.572 55.402L204.371 53.486L204.69 51.8894V46.3014L204.211 44.2258L202.934 41.9906L201.976 40.8729L200.22 39.7553L198.304 39.2764L196.867 39.1167H194.632Z" fill="#C6392E"/>
<path d="M241.09 34.646H246.518L246.678 34.8057V46.6205L260.568 46.4608L260.728 34.646H265.518L266.156 34.8057V63.225L265.997 63.3847H260.728V51.2506H246.518L246.678 63.225L246.518 63.3847H241.09V34.646Z" fill="#C6392E"/>
<path d="M223.844 34.4866H228.953L232.785 34.9656L235.339 35.7638L235.658 36.0832V41.0326L233.264 40.0747L229.751 39.436L227.516 39.2764H225.121L222.566 39.5957L220.65 40.5536L219.852 41.5116L219.373 42.6292V43.9065L220.171 45.5031L221.129 46.3014L221.768 46.461L229.591 46.6207L231.827 47.0997L233.742 48.0576L235.339 49.4946L236.297 51.0911L236.776 52.8474L236.936 53.965V55.402L236.616 57.3179L235.339 59.8724L234.062 61.3093L232.306 62.427L229.911 63.2253L226.717 63.7042H221.768L217.138 63.0656L215.382 62.5866L215.062 62.1076L214.903 61.3093V57.6372L215.222 57.4775L219.054 58.4355L223.205 58.9145H226.079L227.995 58.5951L229.911 57.6372L230.869 56.5196L231.348 55.2423L231.188 53.8054L230.549 52.5281L229.272 51.7298L221.129 51.5701L218.735 51.0911L217.138 50.2929L215.541 48.8559L214.583 47.419L213.945 45.6627L213.785 44.3855V42.7889L214.104 40.8729L214.903 38.957L216.02 37.5201L217.298 36.4025L219.214 35.4445L221.608 34.8059L223.844 34.4866Z" fill="#C6392E"/>
<path d="M282.117 34.646H287.226L288.024 35.4443L288.823 37.3602L291.537 43.5869L293.932 49.0153L295.688 53.1665L297.604 57.6369L299.679 62.2671L299.999 63.3847H294.411L293.612 62.1074L291.537 57.158L290.738 55.721H282.436L281.319 55.5614L281.478 54.7631L283.235 51.0909L283.394 50.9313H288.823L287.226 46.9398L284.991 41.192L284.352 41.0324L283.714 42.4693L280.68 49.8136L278.924 54.2841L276.369 60.5108L275.411 62.9057L275.092 63.3847H269.504L269.664 62.746L270.941 60.0318L273.974 52.8472L276.21 47.5784L278.604 41.9903L281.159 35.7636L281.798 34.8057L282.117 34.646Z" fill="#C63A2E"/>
<path d="M5.10907 7.50391H5.90737L6.06703 7.82323L6.546 11.3357L7.50395 14.6886L8.4619 16.6045L10.0585 18.8397L11.4954 20.117L13.571 21.5539L16.4448 23.1505L20.117 24.5875L23.7891 25.5454L28.4192 26.1841L30.0158 26.3437H33.209L36.5618 26.1841H44.7044L49.0152 26.663L51.7294 27.3017L53.9646 28.2596L55.5612 29.5369L56.6788 30.8142L57.4771 32.4108L57.6367 33.0494V35.604L56.9981 37.6795L56.0402 39.4358L54.2839 41.9903L53.9646 42.7886H54.9225L54.1243 43.4273L50.9311 45.1835L48.3765 46.7801H47.8976L48.5362 46.1415L48.6959 45.6625L44.3851 46.7801L40.3936 48.217L37.9987 49.4943L37.0408 49.9733L36.0828 49.4943L36.5618 49.175L40.234 47.8977L43.4271 46.4608L46.4606 44.8642L48.6959 43.2676L49.8135 41.9903L50.9311 39.7551L51.2504 38.6375L51.4101 37.3602V34.8057L50.7714 32.8897L49.6538 31.4528L48.6959 30.6545L46.78 29.6966L45.0237 29.2176L39.1163 28.4193L32.73 28.5789L32.0914 28.7386H27.142L23.3102 28.4193L18.5204 27.621L14.5289 26.5034L11.4954 25.3858L8.94088 24.1085L7.18464 22.9909L5.42839 21.5539L3.51249 19.638L1.9159 17.2431L0.798293 14.6886L0.159659 12.2937L0 10.6971L0.319317 8.78118L0.957951 8.46186L3.99146 7.82323L5.10907 7.50391Z" fill="#FEF67D"/>
<path d="M76.4766 34.646H91.1651L93.0811 34.9653L94.997 35.7636L96.5935 37.2005L97.5515 38.6375L98.1901 40.5534L98.3498 41.671V43.7466L97.8708 46.1415L96.9129 48.0574L95.1566 49.9733L94.039 50.9313L91.8038 52.0489L89.4089 52.8472L86.6947 53.4858H86.0561L85.7368 52.2085L85.5771 50.7716V48.5364L88.451 47.8977L90.0475 47.0994L91.4845 45.8222L92.4424 43.9062V41.9903L91.8038 40.3937L91.0055 39.7551L89.8879 39.5954H81.7453L81.905 49.3347V63.225L81.7453 63.3847H76.4766V34.646Z" fill="#C6392E"/>
<path d="M153.914 34.646H159.821L160.779 35.9233L162.216 38.6375L163.653 41.0324L166.048 45.1835L167.645 48.0574H168.124L169.401 45.8222L170.678 43.2676L172.594 39.9148L174.989 35.4443L175.628 34.646H181.216L180.896 35.4443L178.661 39.2761L176.905 42.4693L175.468 44.8642L174.031 47.4187L171.636 51.5699L170.678 53.1665V63.225L170.519 63.3847H165.09V53.6455L163.813 51.2506L161.737 47.8977L159.023 43.2676L157.107 40.0744L154.872 36.2426L153.914 34.646Z" fill="#C6392E"/>
<path d="M34.1719 74.7205L35.1298 74.8801L38.0037 75.6784L40.3986 76.796L39.7599 76.9557L40.5582 78.3926L42.3145 80.6279L44.2304 82.7034L45.348 83.9807L47.5832 86.2159L48.8605 87.3336L50.6167 88.9301L52.8519 90.6864L55.7258 92.9216L58.7593 94.8375L61.9525 96.9131L64.1877 98.1904L64.986 98.829L64.507 100.585L63.2297 104.257L62.7508 104.417L59.8769 102.661L54.9275 99.308L52.6923 97.7114L50.457 95.9552L48.0622 93.8796L46.1463 92.1233L43.1128 89.0898L41.6758 87.3336L40.0792 85.4176L37.844 82.0648L36.2474 79.0313L35.2895 75.9977L34.8105 75.1994L34.1719 74.7205Z" fill="#FEF77B"/>
<path d="M44.8662 0H46.3031L46.6224 3.99148L47.2611 7.02501L48.5383 10.2182L49.4963 11.8148L50.7736 13.4114L52.2105 15.008L53.6474 16.4449L54.9247 17.5625L57.1599 19.6381L58.4372 20.7557L62.9076 25.2262L64.5042 27.6211L65.6218 30.1756L65.9411 31.2932V36.7217L65.1428 39.7552H64.9832L64.8235 37.6796L63.8656 38.1586H63.5462L64.1849 36.8813L64.0252 35.4444L62.748 32.8898L61.4707 31.1336L59.5548 29.058L57.1599 26.6631L55.4037 25.2262L53.6474 23.6296L51.8912 22.1927L49.4963 19.7978L48.0594 17.7222L46.7821 15.3273L45.8241 12.4534L44.8662 8.62161L44.5469 6.70569V1.59659L44.7065 0.159659L44.8662 0ZM63.2269 38.1586L63.5462 38.3183H63.0673L63.2269 38.1586Z" fill="#FEF77B"/>
<path d="M5.10907 7.50391H5.90737L6.06703 7.82323L6.546 11.3357L7.50395 14.6886L8.4619 16.6045L10.0585 18.8397L11.4954 20.117L13.571 21.5539L16.4448 23.1505L19.159 24.2681L19.9573 24.7471L22.1925 25.7051L23.6295 26.1841L23.9488 26.3437V26.663L24.5874 26.9824L24.4278 27.7806L23.9488 28.1H21.0749L17.2431 27.3017L13.092 26.0244L9.73917 24.5875L7.34429 23.1505L5.26873 21.3943L3.51249 19.638L1.9159 17.2431L0.798293 14.6886L0.159659 12.2937L0 10.6971L0.319317 8.78118L0.957951 8.46186L3.99146 7.82323L5.10907 7.50391Z" fill="#FE9068"/>
<path d="M64.5091 37.6797H64.8284L64.988 38.3183V40.2342L64.1897 42.1502L62.9125 43.9064L61.3159 45.1837L58.7614 46.6206L55.8875 47.8979L52.2154 49.4945L49.6608 50.9314L46.9466 52.8473L45.5097 53.9649L43.4341 55.7212L41.0393 57.9564L39.9216 59.074L38.3251 61.1496L37.3671 62.5866L36.8881 62.4269V61.9479L36.2495 61.7883L36.0898 60.99L37.5268 57.6371L38.804 55.7212L40.7199 53.1666L43.1148 50.6121L44.7114 49.1752L47.7449 46.9399L48.8625 46.3013L52.375 44.2257L54.6102 42.9484H54.9296V42.6291L59.5597 40.5536L61.9545 39.2763L62.9125 38.478L64.5091 37.6797Z" fill="#FE5E56"/>
<path d="M38.9593 13.4114H40.0769L41.6735 14.05L42.4718 14.6887L43.5894 16.1256L44.228 17.4029L44.5473 18.5205V20.2767L44.0684 21.554L42.7911 22.9909L41.9928 23.4699H40.0769L38.64 22.6716L37.5224 21.7137L36.5644 20.2767L35.9258 18.5205V16.6046L36.5644 15.008L37.3627 14.2097L38.3207 13.571L38.9593 13.4114Z" fill="#FF5D56"/>
<path d="M44.8662 0H46.3031L46.6224 3.99148L47.2611 7.02501L48.5383 10.2182L49.4963 11.8148L50.7736 13.4114L51.5719 14.6887L52.3701 16.1256L53.0088 17.4029L53.1684 18.6801L52.5298 19.3188L51.4122 19.4784L49.4963 18.5205L48.0594 17.2432L46.9418 15.1676V14.8483H46.6224L45.8241 12.4534L44.8662 8.62161L44.5469 6.70569V1.59659L44.7065 0.159659L44.8662 0Z" fill="#FEC274"/>
<path d="M147.371 71.5273H155.194L155.673 72.0063L155.992 74.5609L159.345 74.7205L159.505 71.687L159.664 71.5273H161.101L161.261 72.3256L161.101 79.3507L160.622 79.67L159.664 79.5103L159.505 79.191L159.345 76.1575H157.429L155.833 75.9978L155.673 79.3507L155.513 79.5103H154.236L154.076 79.3507L153.917 72.9643L153.597 72.4853L152.001 72.8046L151.362 72.9643V78.8717L151.043 79.5103L150.085 79.67L149.606 78.8717L149.446 75.5188V73.7626L149.127 73.1239L147.69 72.645L147.211 71.8467L147.371 71.5273Z" fill="#B39505"/>
<path d="M212.987 71.3677H215.861L219.533 71.5273L219.693 72.166L219.054 72.8046L217.777 73.1239L217.617 78.0734L217.458 79.3506L217.298 79.5103H215.861L215.542 79.3506V73.2836L215.223 72.9643L214.584 72.8046H213.307L212.828 73.9222L210.752 78.3927L210.113 79.3506L209.156 79.67L208.357 79.191L206.601 75.3592L205.164 72.166V71.5273H206.761L207.399 72.0063L208.357 74.8802L208.996 76.6364L209.635 76.4768L210.592 74.5609L211.391 72.0063L211.87 71.5273L212.987 71.3677Z" fill="#B39506"/>
<path d="M237.896 71.3677H239.971L241.408 71.687L242.686 72.8046L243.165 73.9222V76.6364L242.686 77.9137L241.568 79.0313L240.61 79.5103L238.056 79.8296L236.459 79.5103L235.98 78.712L235.82 78.0734V74.0819L235.98 71.8467L236.778 71.5273L237.896 71.3677ZM238.375 72.645L237.736 72.9643L237.417 74.0819V76.6364L237.896 77.9137L238.215 78.233H239.652L240.77 77.5944L241.408 76.6364L241.568 75.0398L241.089 73.6029L240.131 72.8046L239.492 72.645H238.375Z" fill="#B49607"/>
<path d="M183.129 71.3677H186.323L187.6 71.8467L188.238 73.1239L188.079 74.4012L186.961 75.8381V76.7961L188.079 78.233L189.196 79.191V79.5103L188.717 79.67H187.44L186.642 79.191L184.886 76.7961L184.726 75.8381L186.323 74.2415V73.2836L185.844 72.8046H183.928L183.768 73.7626V76.7961L183.608 79.3506L183.449 79.5103H182.171L182.012 78.712V72.3256L182.491 71.5273L183.129 71.3677Z" fill="#B49506"/>
<path d="M119.91 71.5273H121.506L121.666 74.7205H123.262L125.178 74.8802L125.338 71.5273H126.615L126.935 72.166V79.5103H125.498L125.338 79.191L125.178 76.1575L121.666 75.9978L121.506 79.5103H120.069L119.91 79.3507L119.75 77.5944V71.687L119.91 71.5273Z" fill="#B49607"/>
<path d="M176.428 71.3677H177.386L178.184 72.166L179.142 74.0819L180.1 76.7961L181.218 78.8717V79.3506L181.058 79.5103H179.94L178.663 78.233V77.9137L177.546 77.5944L176.747 76.9558L176.907 76.1575L177.705 75.0398V74.2415L176.907 73.9222H176.588L176.109 75.5188L175.151 77.9137L174.352 79.191L173.394 79.67H172.437L172.117 79.3506L173.394 77.5944L174.352 75.3592L175.63 72.166L176.428 71.3677Z" fill="#B39505"/>
<path d="M138.426 71.3677H139.384L140.182 72.166L142.577 77.9137L143.215 78.712L144.333 79.3506L144.014 79.5103H141.778L141.14 79.191L140.341 77.5944L140.022 77.4347L137.787 77.1154L137.947 76.4768L139.064 75.9978H139.543L139.224 74.2415L138.905 73.7626L138.426 73.9222L137.468 76.7961L136.669 78.5523L136.19 79.3506L135.711 79.67L134.594 79.5103L134.913 78.5523L136.35 75.1995L137.627 72.166L138.426 71.3677Z" fill="#B59607"/>
<path d="M191.272 71.3677H194.944L195.263 71.687V72.8046H191.911L191.432 73.2836V74.5609L194.944 74.7205V75.8381L194.784 75.9978L191.272 76.1575L191.432 77.5944L192.07 78.233L193.826 78.3927L195.104 77.9137L195.263 78.233V79.3506L194.944 79.67H190.793L189.995 79.191L189.516 77.9137V73.7626L189.675 71.8467L189.995 71.5273L191.272 71.3677Z" fill="#B39505"/>
<path d="M130.123 71.3677H133.955L134.115 72.3256L133.796 72.9643L132.838 72.8046H130.602L130.283 72.9643L130.123 74.4012V74.7205H133.636V75.9978L133.476 76.1575L130.922 75.9978L130.123 76.3171L130.283 77.9137L130.602 78.233L131.241 78.3927H133.796L134.115 78.712L133.955 79.5103L133.636 79.67H129.165L128.527 78.712L128.367 78.0734V75.0398L128.527 72.0063L128.846 71.5273L130.123 71.3677Z" fill="#B59608"/>
<path d="M201.012 71.3677H202.768L204.046 71.687L204.525 72.3256L205.004 73.4432V74.5609L204.365 75.5188L202.928 76.6364L202.289 76.9558H201.172L201.331 76.3171L202.928 74.5609L203.088 73.6029L202.768 72.9643L202.449 72.8046H200.693L200.533 72.9643L200.373 74.2415V76.6364L200.693 79.3506L200.373 79.5103H199.096L198.777 79.0313L198.617 76.1575V73.7626L198.777 71.8467L199.096 71.5273L201.012 71.3677Z" fill="#B49607"/>
<path d="M19.3203 24.428L21.8748 25.0666L24.7487 25.7053L30.0174 26.3439H35.1265L36.2441 26.6632L35.7651 27.1422L35.2862 27.3018L33.2106 27.4615L32.4123 28.4195H31.135V28.7388H27.1436L23.3118 28.4195L22.0345 28.2598V28.1001L23.9504 27.9405L24.4294 27.6212L24.2697 26.8229L23.9504 26.6632V26.3439L22.1942 25.8649L19.48 24.7473L19.3203 24.428Z" fill="#FEC476"/>
<path d="M167.801 71.5273H171.952L172.431 72.166L172.271 72.9643H168.918L167.801 73.6029L167.162 74.5609V75.9978L167.801 77.1154L168.759 77.9137L169.557 78.233H170.674L171.632 77.7541H171.952L171.792 79.0313L171.313 79.67L170.834 79.8296H168.918L167.481 79.3507L166.523 78.712L165.565 77.2751L165.246 75.9978V74.7205L165.885 72.9643L167.002 71.8467L167.801 71.5273Z" fill="#B49506"/>
<path d="M64.5033 37.6797H64.8226L64.9823 38.3183V40.2342L64.184 42.1502L62.9067 43.9064L61.3101 45.1837L58.7556 46.6206L55.8817 47.8979L52.2096 49.4945L49.655 50.9314L46.9408 52.8473L45.5039 53.8053L45.8232 53.1666H46.1425V52.8473L46.9408 52.2087H47.2602L47.4198 51.7297L48.6971 50.7718L49.4954 50.4524L49.8147 49.8138L51.092 48.6962L51.8902 48.3769V48.0575L53.1675 47.5786L56.0414 46.6206L59.2345 45.982L60.0328 45.1837L60.9908 44.545L61.7891 43.7467L63.0663 42.6291L63.226 42.1502L63.705 41.6712H64.0243L64.3436 40.2342H64.0243L63.5453 38.957H62.9067V39.2763L59.3942 41.1922L58.1169 41.6712L56.5203 42.4695L55.0834 43.1081L54.1255 43.4274L54.6044 42.9484H54.9238V42.6291L59.5539 40.5536L61.9487 39.2763L62.9067 38.478L64.5033 37.6797Z" fill="#FF7F66"/>
<path d="M39.1167 74.2415L41.0326 74.4011L43.2678 74.8801L46.3013 75.6784L47.4189 75.838L48.2172 76.317L49.9735 77.1153L50.1331 77.5943L49.4945 77.9136H45.6627L41.1923 76.796L39.436 75.6784L38.957 74.5608L39.1167 74.2415Z" fill="#FF5D56"/>
<path d="M34.1719 74.7205L35.1298 74.8801L38.0037 75.6784L40.3986 76.796L39.7599 76.9557L40.2389 78.3926L40.8775 79.3506L40.5582 80.6279L39.9196 81.5858L39.1213 81.7455L37.0457 79.6699V79.3506L36.5668 79.1909L36.2474 77.4347L35.9281 76.796H35.6088L34.8105 75.1994L34.1719 74.7205Z" fill="#FEC274"/>
<path d="M233.583 71.3677H234.701L235.18 71.5273L235.339 72.0063L234.701 72.4853L233.264 73.2836L233.104 78.233L232.945 79.3506L232.785 79.5103L231.348 79.3506L231.188 78.0734V73.6029L231.029 73.2836L229.432 72.645L228.953 71.8467L229.272 71.5273L233.583 71.3677Z" fill="#B59608"/>
<path d="M225.604 71.5273L227.041 71.687L227.201 71.8467L227.36 76.9558L227.839 78.0734L228.478 78.233L230.553 78.3927L230.713 79.191L229.595 79.67H226.243L225.444 79.0313L225.285 78.3927L225.125 71.8467L225.604 71.5273Z" fill="#B39505"/>
<path d="M38.9593 13.4114H40.0769L41.6735 14.05L42.4718 14.6887L43.5894 16.1256L44.228 17.4029L44.5473 18.5205V20.2767L44.0684 21.554L42.7911 22.9909L41.9928 23.4699H40.0769L38.64 22.6716L37.5224 21.7137L36.5644 20.2767L35.9258 18.5205V16.6046L36.5644 15.008L37.3627 14.2097L38.3207 13.571L38.9593 13.4114ZM38.64 14.3693L37.3627 15.008L36.7241 15.9659L36.5644 16.4449V17.8818L37.203 19.9574H37.5224L37.682 20.9154H38.0013L38.3207 21.7137L38.7996 22.1926H39.119L39.4383 22.8313L39.9172 23.1506L41.5138 23.3103L42.3121 22.8313L42.4718 22.3523L43.1104 21.8733V21.554H43.4297L43.9087 20.1171V19.1591L43.4297 17.2432H43.1104L42.9508 16.4449L41.9928 15.6466H41.5138L41.3542 15.1676L39.9172 14.529L38.64 14.3693Z" fill="#FE896B"/>
<path d="M144.175 71.5273H145.292L145.771 71.8467L145.931 72.645L146.091 77.2751L146.57 78.0734L146.889 78.233H148.326L148.805 78.0734L148.965 78.233V79.3507L148.486 79.67H145.292L144.654 79.3507L144.175 78.0734L143.855 73.6029V71.687L144.175 71.5273Z" fill="#B6970A"/>
<path d="M29.0623 53.9648H30.9783L31.2976 54.2842L30.8186 56.2001L30.0203 57.7967H29.701V58.2756H29.3817L29.0623 59.0739L28.1044 60.5109L27.7851 60.8302L26.9868 60.6705L26.5078 59.5529L26.8271 57.3177L27.3061 55.7211L27.9447 55.0825L28.4237 54.1245L29.0623 53.9648Z" fill="#FF5D56"/>
<path d="M35.7632 49.4944L36.8808 49.654L37.0405 50.133L34.8052 51.7296L32.8893 53.4859L31.9314 54.9228L31.1331 56.8387L30.8138 58.116L30.6541 60.6705H30.4945V57.7967L30.8138 56.2001L30.6541 55.8808L31.1331 54.2842L30.9734 54.1245H29.0575L27.9399 54.6035L27.4609 54.9228L27.7803 54.2842L29.3768 53.0069L32.4104 51.091L35.7632 49.4944Z" fill="#FE876D"/>
<path d="M29.0556 64.1829L29.8539 64.9812V65.3005H30.1732L31.1312 66.7374V67.2164H31.4505L32.4084 68.9726L32.5681 69.6113L31.9295 70.0903L30.9715 70.2499V69.9306L30.3329 70.0903L29.5346 69.292L28.8959 68.4937L28.2573 68.0147L28.417 66.5778L28.0977 66.2584V65.1408L28.5766 64.9812V64.6618L29.0556 64.1829Z" fill="#FF5D56"/>
<path d="M64.5028 37.6797H64.8221L64.9818 38.3183V40.2342L64.1835 42.1502L62.9062 43.9064L61.3096 45.1837L60.8307 45.3433L61.15 44.7047H61.4693L61.629 44.0661L63.0659 42.6291L63.2255 42.1502L63.7045 41.6712H64.0238L64.3431 40.2342H64.0238L63.5449 38.957H62.9062V39.2763L59.3937 41.1922L58.1165 41.6712L56.5199 42.4695L55.083 43.1081L54.125 43.4274L54.604 42.9484H54.9233V42.6291L59.5534 40.5536L61.9483 39.2763L62.9062 38.478L64.5028 37.6797Z" fill="#FF8367"/>
<path d="M60.6697 75.8381H66.8964V76.4768L66.0981 77.1154L64.9805 77.5944L62.5856 77.4347L61.6277 77.1154V76.6364L57.4766 76.1575V75.9978L60.6697 75.8381Z" fill="#FEC47D"/>
<path d="M35.9257 61.4688H36.245L36.4047 61.7881L36.8837 61.9477L37.0433 62.4267L37.3626 62.746L36.0854 65.3006V67.8551L36.245 69.771L35.2871 68.9727L34.9678 68.0148V67.5358H34.6484L35.1274 64.183L35.9257 61.4688Z" fill="#FF9669"/>
<path d="M35.928 73.124L36.7263 73.2837L38.3229 74.4013L39.1212 75.8382L39.9195 76.6365L38.9616 76.3172L37.6843 75.6786L35.1298 75.0399L33.0542 74.4013L32.8945 74.082L34.8104 73.9223L35.6087 73.2837L35.928 73.124Z" fill="#FF8E68"/>
<path d="M37.5268 57.637L37.6864 58.1159V58.5949L38.4847 59.3932L38.6444 59.8722L39.283 59.3932L39.6023 59.5529L38.3251 61.1495L37.3671 62.5864L36.8881 62.4267V61.9478L36.2495 61.7881L36.0898 60.9898L37.5268 57.637Z" fill="#FF7F66"/>
<path d="M37.0434 14.3694L37.3627 14.529L37.0434 15.008L36.7241 16.445V17.8819L37.203 19.4785V19.9575H37.5224L37.682 20.9154H38.0013L38.64 21.8734L39.4383 22.6717L39.9172 22.991L41.6735 23.1507V23.47H40.0769L38.64 22.6717L37.5224 21.7137L36.5644 20.2768L35.9258 18.5205V16.6046L36.5644 15.008L37.0434 14.3694Z" fill="#FE8C6A"/>
<path d="M53.168 75.8381L57.4788 75.9978L61.6299 76.4768L61.9492 76.9558L61.7895 77.1154L62.5878 77.2751V77.4347H58.1174V77.1154H57.7981V76.7961L55.7225 76.3171L53.168 76.1575V75.8381Z" fill="#FF8F68"/>
<path d="M35.7634 49.4944L36.881 49.654L37.0407 50.133L34.8055 51.7296L33.8475 52.3683L34.0072 51.7296L32.5702 51.8893H31.293L32.0913 51.2506L35.7634 49.4944Z" fill="#FE9269"/>
<path d="M45.35 45.5029L45.6694 45.6626L45.829 46.3012L44.3921 46.7802L40.4006 48.2171L38.0057 49.4944L37.0478 49.9734L36.0898 49.4944L36.5688 49.1751L40.241 47.8978L43.4341 46.4609L45.35 45.5029Z" fill="#FDFDFD"/>
<path d="M35.766 65.4604H35.9257L36.245 69.7713L35.2871 68.973L34.9678 68.015V67.536H34.6484L34.9678 65.6201L35.766 65.4604Z" fill="#FDFDFD"/>
<path d="M48.5372 46.4609L48.8565 46.6206L47.2599 48.0575L45.0247 49.6541L43.9071 50.6121L43.4281 50.7717L42.7895 51.57L41.6719 52.3683L41.9912 51.7297L43.4281 50.2928L45.1844 48.8558L47.7389 46.9399L48.5372 46.4609Z" fill="#FF8C68"/>
<path d="M64.345 41.0325L64.5047 41.5114L63.5467 43.108L62.4291 44.3853L60.9922 45.3433V44.8643L61.4712 44.7046L61.6308 44.066L63.0677 42.6291L63.2274 42.1501L63.7064 41.6711H64.0257L64.345 41.0325Z" fill="#FF8868"/>
<path d="M220.81 77.7542L221.448 77.9138L221.927 78.7121L221.767 79.3507L221.608 79.5104H220.011L219.852 78.7121L220.49 77.9138L220.81 77.7542Z" fill="#B69609"/>
<path d="M35.7651 49.4944L36.8827 49.654L37.0423 50.133L35.2861 51.4103H34.9668V50.7717L35.9247 50.4523L36.0844 50.133L34.4878 50.4523L34.3281 50.133L35.7651 49.4944Z" fill="#FEC77E"/>
<path d="M38.804 48.377H39.4427V48.6963L37.2075 49.9735L36.0898 49.4946L36.5688 49.1753L38.804 48.377Z" fill="#FDFCFB"/>
<path d="M36.4057 63.7041L36.725 63.8638L35.767 65.7797L34.9688 65.62L35.1284 64.1831L36.4057 63.7041Z" fill="#FEC377"/>
<path d="M48.5364 46.4609L48.8557 46.6206L47.2592 48.0575L45.5029 49.3348L45.1836 49.1751L45.9819 48.2172L47.7381 46.9399L48.5364 46.4609Z" fill="#FF8066"/>
<path d="M60.1889 77.5945H62.9031L63.3821 77.9138L62.9031 78.0735H59.3906L59.5503 77.7541L60.1889 77.5945Z" fill="#C5382D"/>
<path d="M34.1718 27.9402H37.0457L37.2053 28.2595L36.2474 28.4192H32.8945V28.2595L34.1718 27.9402Z" fill="#FFC274"/>
<path d="M61.1522 44.2256H61.4715V44.7046L60.9925 45.0239L60.8329 45.5029L58.5977 46.6205L58.7573 46.1415L59.5556 45.6625L60.3539 44.8642L60.9925 44.5449L61.1522 44.2256Z" fill="#FF8167"/>
<path d="M37.0434 14.3694L37.3627 14.529L37.0434 15.008L36.7241 16.445L36.2451 16.9239L36.0854 18.5205H35.9258V16.6046L36.5644 15.008L37.0434 14.3694Z" fill="#FDD6BD"/>
<path d="M63.8647 37.5198H65.142L65.3016 37.8391L65.4613 38.6374L65.142 39.755H64.9823L64.8227 37.6794L63.8647 38.1584H63.5454L63.8647 37.5198ZM63.2261 38.1584L63.5454 38.3181H63.0664L63.2261 38.1584Z" fill="#FECA81"/>
<path d="M5.11221 7.50391H5.9105L6.07016 7.82323V8.94084L5.59119 8.3022L3.51562 8.14254L3.9946 7.82323L5.11221 7.50391Z" fill="#FEDAAD"/>
<path d="M57.4778 41.5115L57.7971 41.6711L56.0409 42.7887L54.4443 43.4274L54.125 43.2677L54.9233 42.9484V42.6291L57.4778 41.5115Z" fill="#FE8E6E"/>
<path d="M44.5469 3.99146L45.1855 4.63009V6.22669L44.5469 5.90737V3.99146Z" fill="#FF8E68"/>
<path d="M62.9102 77.4348H64.9857L64.8261 77.7541L63.8681 78.0735H62.9102V77.4348Z" fill="#FF7B62"/>
<path d="M45.8237 8.46191L46.622 8.78123L46.7817 9.26021L46.4624 9.89885H45.9834L45.6641 8.78123L45.8237 8.46191Z" fill="#FF8E68"/>
<path d="M63.0658 42.9485L63.5448 43.1081L62.4272 44.3854L61.6289 44.8644L61.9482 44.2258L63.0658 42.9485Z" fill="#FEB786"/>
<path d="M3.35547 10.3777L3.9941 10.5373L4.47308 11.655L3.83444 11.8146L3.35547 10.3777Z" fill="#FF7B66"/>
<path d="M43.4281 50.2927L43.7474 50.4524L42.7895 51.57L41.6719 52.3683L41.9912 51.7297L43.4281 50.2927Z" fill="#FF9B6C"/>
<path d="M58.9136 77.5945H60.1908L59.5522 77.9138L61.3084 78.0735V78.2331H59.2329L58.7539 77.7541L58.9136 77.5945Z" fill="#FF6E5C"/>
<path d="M181.535 79.1912H181.854L181.695 79.5105L181.535 79.1912Z" fill="#CBA328"/>
</svg>
