<svg width="159" height="100" viewBox="0 0 159 100" fill="none" xmlns="http://www.w3.org/2000/svg">
<path d="M17.5312 0H40.0004L40.988 0.987654L42.0991 2.34568L43.5806 4.07407L44.6917 5.4321L46.2967 7.28395L47.7781 9.01234L49.1362 10.6173L50.6177 12.3457L51.7288 13.7037L52.8399 14.9383L53.8275 16.1728L55.4325 18.0247L56.7905 19.6296L58.272 21.358L59.3831 22.716L60.3707 23.8271V24.0741H60.6176L61.6053 25.3086L64.5683 28.7654L65.6794 30.1234L68.6423 33.5802L68.8892 33.9506L69.0127 0.123457L69.1362 0H140.988L141.111 0.246913V1.48148L140.865 3.7037L140.371 5.67901L139.63 7.65432L138.889 9.1358L137.531 11.1111L136.173 12.5926L134.939 13.7037L133.704 14.5679L131.852 15.5555L129.877 16.2963L127.655 16.7901L126.42 16.9136L103.334 17.037L101.482 17.2839L98.6423 18.0247L96.2966 19.0123L94.1979 20.2469L92.5929 21.4815L91.1115 22.8395L90.2473 23.8271L88.7658 25.9259L87.5312 28.1481L86.7905 30.1234L86.4201 31.9753L86.2966 32.8395V37.2839L86.667 39.8765L87.4078 42.4691L88.5189 45.0617L89.63 47.037L90.6176 48.2716L91.7287 49.5061L92.346 50.1234L93.704 51.358L95.6794 52.5926L97.6547 53.5802L100.247 54.4444L102.223 54.8148L103.334 54.9382H106.79L109.136 54.5679L111.605 53.8271L113.457 52.9629L115.062 52.0987L116.667 50.9876L118.025 49.7531L119.507 48.2716L119.63 48.0247H119.877L120.124 47.5308L120.618 46.7901L101.852 46.6666V43.8271L102.346 41.4815L103.087 39.5062L104.074 37.6543L105.062 36.2963L106.173 35.0617L107.284 33.9506L109.136 32.5926L111.111 31.6049L113.087 30.8642L115.556 30.3704H140.247L140.494 31.6049L140.618 32.8395L140.741 36.2963L140.618 39.0123L140.247 41.8518L139.63 44.8148L138.889 47.4074L138.025 49.7531L137.161 51.7284L135.803 54.1975L134.445 56.2963L132.84 58.395L131.852 59.6296H131.605L131.358 60.1234L130.618 60.9876L130.124 61.4814H129.877V61.7284L128.889 62.5926L127.284 63.9506L125.679 65.1852L122.963 66.9135L120.124 68.395L117.531 69.5061L114.568 70.4938L111.358 71.2345L108.766 71.6049L107.284 71.7284H102.346L101.358 71.6049L92.2226 71.4814L89.0127 71.2345L85.4324 70.7407L82.346 70L79.7534 69.1358L77.1608 68.0247L74.3213 66.5432L71.7288 64.8148L70.4942 63.8271L68.8892 62.4691L65.9263 59.5061L65.0621 58.5185L63.951 57.1605L62.2226 54.9382L61.1115 53.4568L59.7534 51.8518L58.3954 50.1234L56.9139 48.395L55.5559 46.6666L54.1979 45.0617L53.2102 43.8271L51.4818 41.7284L48.272 37.7778L46.5436 35.679L45.1856 34.0741L43.8275 32.3457L42.4695 30.7407L41.6053 29.6296L40.2473 28.0247L40.1238 71.4814L40.0004 71.6049H37.7782L34.6917 70.9876L32.593 70.1234L30.988 69.2592L29.5066 68.1481L28.0251 66.7901L27.0374 65.679L25.5559 63.4568L24.5683 61.1111L23.951 58.7654L23.7041 56.5432V7.77777L21.9757 5.67901L17.5312 0.246913V0Z" fill="#F88A3D"/>
<path d="M17.5312 0H40.0004L40.988 0.987654L42.0991 2.34568L43.5806 4.07407L44.6917 5.4321L46.2967 7.28395L47.7781 9.01234L49.1362 10.6173L50.6176 12.3457L51.7288 13.7037L52.8399 14.9383L53.8275 16.1728L55.4325 18.0247L56.7905 19.6296L58.272 21.358L59.3831 22.716L60.3707 23.8271V24.0741H60.6176L61.6053 25.3086L64.5683 28.7654L65.6794 30.1234L68.6423 33.5802L68.8892 33.9506L69.1362 33.7037V36.7901L69.2596 39.1358L69.7534 42.5926L70.4942 45.679L71.6053 49.0123L72.5929 51.2345L73.5806 53.2098L74.9386 55.4321V55.679H75.1855L75.6794 56.5432L77.4078 58.7654L78.7658 60.2469V60.4938H79.0127L79.8769 61.4814L80.7411 62.3456L83.4571 64.5679L84.9386 65.5555L86.667 66.6666L88.3954 67.6543L91.3584 69.0123L93.704 69.8765L96.9139 70.7407L98.5189 71.1111L99.5065 71.2345V71.4814H92.2226L89.0127 71.2345L85.4324 70.7407L82.346 70L79.7534 69.1358L77.1608 68.0247L74.3213 66.5432L71.7287 64.8148L70.4942 63.8271L68.8892 62.4691L65.9263 59.5061L65.0621 58.5185L63.951 57.1605L62.2226 54.9382L61.1115 53.4568L59.7534 51.8518L58.3954 50.1234L56.9139 48.395L55.5559 46.6666L54.1979 45.0617L53.2102 43.8271L51.4818 41.7284L48.272 37.7778L46.5436 35.679L45.1856 34.0741L43.8275 32.3457L42.4695 30.7407L41.6053 29.6296L40.2473 28.0247L40.1238 71.4814L40.0004 71.6049H37.7782L34.6917 70.9876L32.593 70.1234L30.988 69.2592L29.5066 68.1481L28.0251 66.7901L27.0374 65.679L25.5559 63.4568L24.5683 61.1111L23.951 58.7654L23.7041 56.5432V7.77777L21.9757 5.67901L17.5312 0.246913V0Z" fill="#17795C"/>
<path d="M69.1352 0H140.987L141.11 0.246913V1.48148L140.864 3.7037L140.37 5.67901L139.629 7.65432L138.888 9.1358L137.53 11.1111L136.172 12.5926L134.938 13.7037L133.703 14.5679L131.851 15.5555L129.876 16.2963L127.654 16.7901L126.419 16.9136H74.5673L73.5796 18.5185L72.4685 20.6173L71.1105 24.0741L70.4932 25.9259L69.7525 29.1358L69.2586 32.3457L69.1352 33.5802H69.0117V0.123457L69.1352 0Z" fill="#00AB5D"/>
<path d="M23.7031 7.90039L24.197 8.1473L25.555 9.8757L25.9253 10.2461V10.493H26.1723L27.2834 11.9745L28.6414 13.5794L29.7525 14.9374L30.7402 16.172L32.9624 18.888L33.4562 19.5053V19.7522H33.7031L34.6908 20.9868L36.0488 22.5917L37.4068 24.3201V24.567L37.7772 24.6905L39.1352 26.4189L39.7525 27.1596V27.4066H40.1229L40.2463 27.7769L40.1229 71.4806L39.9994 71.6041H37.7772L34.6908 70.9868L32.592 70.1226L30.9871 69.2584L29.5056 68.1473L28.0241 66.7892L27.0365 65.6781L25.555 63.4559L24.5673 61.1102L23.95 58.7646L23.7031 56.5423V7.90039Z" fill="#00AB5D"/>
<path d="M115.555 30.3711H140.247L140.494 31.6057L140.617 32.8402L140.74 36.297L140.617 39.0131L140.247 41.8526L139.629 44.8155L139.135 46.5439L139.012 46.6674H101.852V43.8279L102.345 41.4822L103.086 39.5069L104.074 37.655L105.061 36.297L106.173 35.0624L107.284 33.9513L109.136 32.5933L111.111 31.6057L113.086 30.8649L115.555 30.3711Z" fill="#16795D"/>
<path d="M17.5312 0H40.0004L40.1238 0.246913V26.7901L40.0004 27.4074H39.7535L38.3954 25.679L37.6547 24.6913L37.0374 24.0741L35.6794 22.3457L34.1979 20.6173L33.7041 20V19.7531H33.4572L32.7164 18.7654L29.3831 14.6913L28.0251 13.0864L26.667 11.358L26.1732 10.7407V10.4938H25.9263L23.7041 7.77777L21.9757 5.67901L17.5312 0.246913V0Z" fill="#F88A3D"/>
<path d="M123.333 30.3711H140.247L140.494 31.6057L140.617 32.8402L140.74 36.297L140.617 39.0131L140.247 41.8526L139.629 44.8155L139.135 46.5439L139.012 46.6674H101.852V46.5439L120.987 46.4205L122.345 43.8279L123.086 42.0995L123.456 40.9884L123.703 39.1365L123.95 37.902V34.0748L123.827 32.5933L123.456 31.2353L123.333 30.3711Z" fill="#00AB5D"/>
<path d="M69.0117 0.123047H102.222V0.246504L98.6413 0.616874L98.5179 0.740331L96.5426 1.1107L93.7031 1.85144L92.0981 2.46872H91.7278V2.71564L90.4932 3.08601L88.6413 3.95021L86.1722 5.43169L85.4315 5.80206H85.1845V6.04897L83.5796 7.16008L82.9623 7.65391L82.0981 8.27119L81.7278 8.64156L81.2339 8.76502L80.987 9.25884L80.4932 9.50576V9.75267L79.5055 10.6169L78.5179 11.6045L77.5302 12.8391L76.2957 14.3206L75.9253 14.9379L75.308 15.6786L74.9376 16.2959H74.6907L74.8142 16.7897L74.3204 17.2835L73.3327 19.0119L72.3451 20.9872L71.1105 24.0737L70.4932 25.9255L69.7525 29.1354L69.2586 32.3453L69.1352 33.5798H69.0117V0.123047Z" fill="#16795C"/>
<path d="M0.246913 90H1.11111L1.48148 90.3704L3.45679 97.6543L3.58024 98.0247L5.55555 90.2469L6.04938 90H6.79012L7.16049 90.3704L9.25925 98.0247L10.8642 92.0988L11.358 90.2469L11.7284 90H12.4691L12.716 90.1235L12.5926 91.2346L10.2469 99.3827L10.1235 99.7531L9.87654 99.8765H8.51851L8.14814 99.3827L6.29629 92.5926L4.5679 99.3827L4.32098 99.8765H2.8395L2.59259 99.7531L0 90.7407V90.1235L0.246913 90Z" fill="#48514B"/>
<path d="M108.272 90.123H111.976L113.087 90.6169L113.704 91.2342L114.074 91.9749V93.3329L113.581 94.3206L112.469 95.0613L113.21 95.9255L114.198 98.1477L114.692 99.5058L114.568 99.8761H113.334L112.84 98.8885L111.852 96.4193L111.605 95.9255L110.988 95.6786L109.506 95.5551V99.6292L109.383 99.8761H108.272L108.148 99.7527V90.2465L108.272 90.123Z" fill="#48514B"/>
<path d="M24.5688 90.123H28.2725L29.3836 90.6169L30.0009 91.2342L30.3712 92.0984V93.2095L30.0009 94.0737L29.507 94.6909L28.7663 95.0613L29.507 95.9255L30.1243 97.2835L30.9885 99.5058L30.8651 99.8761H29.6305L29.1367 98.8885L28.149 96.4193L27.9021 95.9255L27.2848 95.6786L25.9268 95.5551L25.8033 99.7527L25.6799 99.8761H24.5688L24.4453 99.7527V90.2465L24.5688 90.123Z" fill="#4A4E4B"/>
<path d="M127.53 90.123H131.11L132.221 90.4934L132.838 91.1107L133.209 91.728L133.332 92.2218V93.2095L132.962 94.0737L132.715 94.444H132.468V94.6909L131.727 95.0613L132.468 95.9255L133.579 98.5181L133.826 99.1354V99.8761H132.591L132.098 98.8885L131.11 96.5428L130.493 95.8021L130.246 95.6786L128.888 95.5551L128.764 99.7527L128.641 99.8761H127.53L127.406 99.7527V90.2465L127.53 90.123Z" fill="#47504B"/>
<path d="M17.5293 91.1113H18.6404L19.7515 91.4817L20.6157 92.4694L20.9861 93.7039V96.1731L20.4922 97.5311L19.7515 98.3953L18.8873 98.7656H17.1589L16.1712 98.2718L15.6774 97.6545L15.3071 96.7903L15.1836 96.1731V93.8274L15.554 92.5928L16.1712 91.7286L17.0354 91.2348L17.5293 91.1113Z" fill="#FEFEFE"/>
<path d="M63.7051 91.1113H64.9396L66.1742 91.6052L66.9149 92.5928L67.1618 93.3335L67.2853 94.1977V95.6792L66.9149 97.1607L66.4211 97.9014L65.5569 98.6422L65.1865 98.7656H63.4581L62.4705 98.2718L61.8532 97.5311L61.4828 96.42L61.3594 94.5681L61.6063 93.0866L62.1001 92.099L62.9643 91.3582L63.7051 91.1113Z" fill="#FEFEFE"/>
<path d="M91.3574 91.1113H92.592L93.5796 91.4817L94.1969 92.099L94.6907 93.0866L94.9376 94.9385L94.8142 96.2965L94.3204 97.6545L93.3327 98.5187L92.7154 98.7656H90.987L89.8759 98.1484L89.2586 97.0373L89.0117 95.9261V94.0743L89.2586 92.9632L89.8759 91.9755L90.8636 91.2348L91.3574 91.1113Z" fill="#FEFEFE"/>
<path d="M63.2099 90H65.679L66.9136 90.4938L67.6543 91.1111L68.3951 92.3457L68.642 93.3333V96.4197L68.1481 97.9012L67.2839 99.0123L66.4197 99.6296L65.0617 100H63.3333L62.0988 99.6296L61.1111 98.8889L60.3704 97.7778L60 96.4197V93.7037L60.4938 92.0988L61.2346 91.1111L62.2222 90.3704L63.2099 90ZM63.7037 91.1111L62.5926 91.6049L61.8519 92.4691L61.4815 93.5802L61.358 95.4321L61.6049 96.9136L62.0988 97.9012L62.8395 98.5185L63.4568 98.7654H65.1852L65.9259 98.3951L66.7901 97.4074L67.1605 96.4197L67.2839 95.679V94.1975L67.037 92.963L66.5432 91.9753L65.9259 91.4815L64.9383 91.1111H63.7037Z" fill="#48504B"/>
<path d="M90.8646 90H93.2103L94.4448 90.4938L95.4325 91.358L96.0498 92.5926L96.2967 93.5802V96.0494L95.9263 97.5309L95.0621 98.8889L93.951 99.6296L92.8399 100H90.988L89.7535 99.6296L89.0127 99.1358L88.1485 98.1481L87.6547 96.6667L87.5312 94.5679L87.7782 92.963L88.5189 91.4815L89.3831 90.6173L90.3708 90.1235L90.8646 90ZM91.3584 91.1111L90.4942 91.4815L89.63 92.2222L89.1362 93.3333L89.0127 94.0741V95.9259L89.3831 97.4074L89.8769 98.1481L90.988 98.7654H92.7164L93.7041 98.2716L94.4448 97.4074L94.8152 96.2963L94.9387 94.9383L94.6917 93.0864L94.0745 91.8519L93.0868 91.2346L92.593 91.1111H91.3584Z" fill="#49504B"/>
<path d="M17.0365 90H19.3821L20.6167 90.4938L21.6044 91.358L22.2216 92.5926L22.4686 94.0741V95.679L22.0982 97.4074L21.4809 98.5185L20.3698 99.5062L19.5056 99.8765L18.8883 100H17.1599L15.8019 99.6296L14.8142 98.8889L14.0735 97.6543L13.7031 95.9259V94.4444L14.0735 92.4691L14.8142 91.2346L15.9253 90.3704L17.0365 90ZM17.5303 91.1111L16.5426 91.4815L15.9253 92.0988L15.4315 92.8395L15.1846 93.8272V96.1728L15.555 97.4074L16.0488 98.1481L16.7895 98.642L17.1599 98.7654H18.8883L19.876 98.2716L20.4932 97.5309L20.9871 96.1728V93.7037L20.6167 92.4691L19.7525 91.4815L18.6414 91.1111H17.5303Z" fill="#48514C"/>
<path d="M40.3704 90L41.358 90.1235L41.4815 90.2469V94.1975H45.679V90.2469L46.1728 90L47.037 90.1235V99.8765H45.8025L45.679 99.6296V95.3086H41.4815V99.6296L41.2346 99.8765H40.1235L40 99.5062L40.1235 90.1235L40.3704 90Z" fill="#4A514B"/>
<path d="M98.6438 90L99.6315 90.1235L99.7549 96.7901L100.125 97.9012L100.866 98.5185L101.113 98.642H102.841L103.582 98.1481L103.952 97.6543L104.199 96.6667L104.323 90.1235L105.31 90L105.681 90.2469V96.7901L105.434 97.9012L104.693 99.0123L103.952 99.6296L102.718 100H101.113L99.8784 99.6296L98.8907 98.7654L98.3969 97.6543L98.2734 97.1605V90.1235L98.6438 90Z" fill="#47514C"/>
<path d="M136.05 90L136.914 90.1235L137.038 90.2469L137.161 97.037L137.655 98.0247V98.2716L138.272 98.5185L138.519 98.642H140.124L140.865 98.2716L141.359 97.6543L141.606 96.5432L141.729 90.1235L142.717 90L143.087 90.2469V96.9136L142.717 98.1481L141.976 99.1358L140.988 99.7531L140.124 100H138.519L137.285 99.6296L136.297 98.7654L135.803 97.6543L135.68 97.1605V90.1235L136.05 90Z" fill="#46534C"/>
<path d="M147.037 90H148.889L150 90.4938L150.247 90.7407V91.7284H149.63L149.012 91.358L148.519 91.2346H147.284L146.667 91.6049L146.543 91.8519V92.963L147.161 93.5802L149.136 94.5679L150.124 95.3086L150.617 95.9259L150.741 96.2963V98.0247L150.124 99.0123L149.136 99.7531L148.272 100H146.667L145.432 99.6296L144.815 99.1358L144.691 98.2716L144.815 98.0247L145.432 98.1481L146.543 98.642H148.272L149.012 98.1481L149.259 97.6543L149.136 96.5432L148.395 95.9259L146.049 94.6914L145.185 93.7037L144.938 92.963V91.9753L145.432 90.9877L146.296 90.2469L147.037 90Z" fill="#48524C"/>
<path d="M17.5312 0H23.7041L23.8275 0.123457V7.53086L23.5806 7.65432L22.2226 5.92592L20.7411 4.19753L19.7535 2.96296L17.5312 0.246913V0Z" fill="#17795C"/>
<path d="M70.8641 90.123H75.6789L75.8024 90.2465V91.1107L75.6789 91.2342L72.0987 91.3576V94.3206L75.432 94.444L75.6789 94.8144L75.5555 95.5551L72.0987 95.6786V99.6292L71.8518 99.8761H70.7406L70.6172 99.6292V90.6169L70.8641 90.123Z" fill="#48534C"/>
<path d="M48.7664 90H49.6306L50.001 90.1235L51.7294 93.7037L51.9763 94.5679H52.2232L52.3467 93.9506L54.1985 90.1235L55.3097 90L55.5566 90.1235L55.4331 90.8642L53.5813 94.5679L52.8405 95.9259L52.7171 99.7531L52.5936 99.8765H51.4825L51.359 99.7531L51.2356 95.9259L48.5195 90.4938V90.1235L48.7664 90Z" fill="#48524C"/>
<path d="M80.3719 90H81.2361L81.7299 90.4938L83.088 93.2099L83.5818 94.321V94.5679H83.8287L83.9522 93.9506L85.4336 90.7407L85.804 90.1235L86.0509 90H86.9151L87.162 90.1235L87.0386 90.7407L84.446 95.9259L84.3225 99.7531L84.1991 99.8765H83.088L82.9645 99.7531L82.841 95.9259L80.6188 91.4815L80.125 90.6173V90.1235L80.3719 90Z" fill="#494F4B"/>
<path d="M151.358 90.123H158.518L158.642 90.8638L158.518 91.2342L155.679 91.3576L155.555 99.7527L155.432 99.8761H154.321L154.197 99.7527V91.2342H151.358L151.234 90.37L151.358 90.123Z" fill="#48514B"/>
<path d="M118.766 90.123H125.926L126.05 90.2465V91.1107L125.926 91.2342H123.087V99.7527L122.963 99.8761H121.852L121.729 99.7527V91.2342H118.766V90.123Z" fill="#46504C"/>
<path d="M31.4828 90.123H38.6433L38.7668 90.4934L38.6433 91.2342L35.8038 91.3576V99.6292L35.6804 99.8761H34.5692L34.4458 99.7527L34.3223 91.3576L31.4828 91.2342L31.3594 90.37L31.4828 90.123Z" fill="#534F4A"/>
<path d="M109.508 91.2344H111.36L112.347 91.7282L112.594 92.0986V93.4566L112.1 94.0739L111.113 94.4442H109.508V91.2344Z" fill="#FEFEFE"/>
<path d="M25.8047 91.2344H27.6565L28.5207 91.6047L28.8911 92.222V93.3331L28.5207 93.9504L27.9035 94.3208L27.2862 94.4442H25.8047V91.2344Z" fill="#FEFEFE"/>
<path d="M128.766 91.2344H130.617L131.605 91.7282L131.852 92.222V93.3331L131.358 94.0739L130.247 94.4442H128.766V91.2344Z" fill="#FEFEFE"/>
</svg>
