<svg width="300" height="84" viewBox="0 0 300 84" fill="none" xmlns="http://www.w3.org/2000/svg">
<path d="M47.9631 0.152344H73.9303L74.0831 0.457841V73.0134H63.0852L63.2379 11.4557H57.8917V73.0134L57.739 73.4717L48.5741 73.3189L48.4213 72.5552V68.1255L47.1993 69.1947L45.2136 71.1804L44.1443 72.4024L42.0059 74.6936L39.7146 77.1376L38.3399 78.5124L37.2707 79.7344L35.2849 81.7201L34.6739 82.4838L33.1464 83.7058L32.5354 83.4003L31.1607 81.8728L29.786 80.1926L27.953 78.0541L27.1892 76.9849L28.1057 75.7629L29.786 73.7772L31.1607 72.0969L34.5212 68.1255L35.8959 66.4452L37.4234 64.765L38.6454 63.2375L40.6311 60.7935L42.7696 58.1968L44.6026 56.0583L46.2828 53.9198L46.7411 53.1561L47.8103 52.0869V48.1154L47.6576 47.5044L46.8938 48.2681L44.9081 50.4066L43.2278 52.5451L39.5619 56.8221L38.1871 58.5023L36.3542 60.6408L34.3684 62.932L32.5354 65.0705L31.1607 66.7507L29.786 68.2782L28.4112 69.9585L26.8838 71.6387L25.8145 72.8607L24.898 73.6244L23.2178 71.7914L22.1485 70.5694L19.7046 67.9727L18.3298 66.4452L16.0386 64.0013L14.9694 62.932L13.9001 61.71L11.9144 59.5715L10.8451 58.3496L8.55392 55.9056L7.17918 54.3781L5.80445 53.0034L4.73521 51.7814L2.29123 49.1846L0.458246 47.1989L0 46.7407L0.152749 45.8242L2.13848 43.3802L3.51322 41.7L5.6517 39.4087L6.26269 39.7142L7.63743 41.089L8.70667 42.311L10.2342 43.9912L11.3034 45.2132L12.9836 47.0462L14.3584 48.7264L16.4968 51.0176L17.8716 52.6979L19.7046 54.6836L20.7738 55.9056L21.9958 57.1276L23.2178 58.6551L23.9815 58.8078L25.0508 57.1276L26.5783 55.2946L30.8552 49.4901L32.2299 47.6572L32.8409 46.8934L32.6882 46.1297L30.7025 43.8384L27.953 40.478L25.9673 38.034L24.5925 36.3538L22.454 33.757L20.7738 31.7713L19.0936 29.6328L18.6353 29.0218L18.9408 28.2581L20.3156 26.8833L21.6903 25.2031L23.5233 23.0646L24.5925 21.8426L25.0508 21.2316L25.6618 21.3844L26.8838 22.6064L27.953 23.8284L29.786 25.8141L30.8552 27.0361L32.2299 28.5636L33.2992 29.7856L34.6739 31.3131L35.7432 32.535L37.5762 34.5208L38.9509 36.201L41.3949 38.7977L42.4641 40.0197L46.5883 44.6022L47.6576 45.8242L47.8103 45.6714V28.8691L47.0466 29.6328L45.8246 31.0076L44.6026 32.535L42.7696 34.6735L42.1586 35.2845L41.5476 34.979L39.8674 33.146L38.7981 31.924L36.3542 29.3273L34.9794 27.7998L33.6047 26.1196L32.5354 25.0504L31.4662 23.8284L29.6332 21.8426L28.2585 20.3152L26.4255 18.3294L25.3563 17.1074L25.0508 16.4964L24.287 17.2602L22.9123 19.0932L21.3848 20.9262L19.8573 22.9119L18.1771 24.8976L16.4968 27.0361L15.5804 28.1053L15.7331 28.7163L17.1078 30.2438L18.3298 31.7713L20.0101 33.9098L21.2321 35.4373L22.6068 37.1175L24.5925 39.5615L25.6618 40.9362L27.342 42.9219L29.175 45.0604L29.9387 46.1297L29.6332 46.8934L27.8002 49.1846L25.8145 51.7814L24.287 53.7671L23.676 54.2253L21.843 52.0869L20.4683 50.4066L18.4826 48.1154L17.1078 46.4352L15.1221 44.1439L13.2891 42.0055L11.9144 40.3252L10.5397 38.7977L9.16492 37.1175L7.17918 34.8263L5.3462 32.6878L3.97146 31.0076L2.13848 28.8691L0.763743 27.4943L0.610994 27.0361L1.68023 25.8141L3.81871 23.5229L5.6517 21.5371L6.72094 20.4679L8.09567 18.7877L9.31766 17.5657L10.3869 16.3437L11.6089 15.1217L12.6781 13.8997L14.3584 12.2195L15.4276 10.9975L17.5661 8.70626L18.9408 7.17878L20.6211 5.3458L21.9958 3.66556L24.7453 0.916087L25.3563 1.06884L27.0365 2.90182L28.4112 4.58205L29.786 6.10954L31.1607 7.78977L32.8409 9.62276L33.9102 10.8447L35.4377 12.525L36.8124 14.2052L38.6454 16.1909L40.0201 17.8712L41.7004 19.7042L42.7696 20.9262L44.6026 23.0646L45.9773 24.5921L47.3521 26.2724L47.9631 26.7306V0.152344Z" fill="#DC6762"/>
<path d="M86.3036 37.2715H299.999V38.799L299.846 38.9517H83.5542L81.1102 38.799L80.8047 38.3407V37.4242L86.3036 37.2715Z" fill="#DDAB86"/>
<path d="M159.014 2.59766H165.277L167.11 3.0559L168.637 4.12514L169.707 5.34713L170.623 7.18011L171.081 8.7076V12.6791L170.623 14.6648L169.859 16.0395L168.943 17.1088L167.11 18.0253L164.666 18.4835L160.389 18.6363V29.7869H156.57V2.90315L156.876 2.7504L159.014 2.59766Z" fill="#524542"/>
<path d="M85.8489 2.13867H88.7511L90.1259 2.74967L91.3478 3.66616L92.2643 4.7354L93.1808 6.26288V7.33212L92.1116 7.63762L91.8061 7.33212L91.3478 6.11014L89.9731 4.58265L89.0566 4.1244H87.0709L85.8489 5.04089L84.9324 6.56838L84.6269 7.63762V9.62335L85.0851 10.8453L86.0016 12.0673L87.8346 13.4421L89.9731 14.6641L91.6533 15.886L92.7226 16.9553L93.6391 18.6355L93.9446 19.552L94.0973 20.774V23.9817L93.3336 26.4257L92.2643 27.9532L91.3478 29.0224L89.9731 29.9389L88.2929 30.5499H85.6961L83.8632 29.6334L82.0302 27.9532L81.2664 26.7312V25.8147L81.8774 25.3565L82.6412 25.5092L83.5577 27.0367L84.7797 28.1059L85.6961 28.4114H87.2236L88.4456 27.8004L89.6676 26.4257L90.1259 25.3565L90.2786 24.5927V22.3015L89.2094 20.163L87.6819 18.7883L84.4742 16.9553L82.4884 15.2751L81.4192 13.7476L80.9609 12.2201V7.63762L81.8774 5.34639L82.9467 3.97165L84.3214 2.74967L85.8489 2.13867Z" fill="#504341"/>
<path d="M85.693 43.9922H88.2898L89.8173 44.4504L91.803 45.9779L92.8722 47.3527L93.1777 48.1164V48.8801L92.2612 49.0329L90.4283 46.7417L89.2063 45.9779L88.5953 45.8252H87.2205L85.693 46.7417L84.7766 48.1164L84.4711 49.1856V50.8659L84.9293 52.0879L86.1513 53.4626L87.8315 54.5318L90.581 56.0593L92.1085 57.2813L93.025 58.3506L93.4832 59.1143L94.0942 61.4055V64.0023L93.4832 66.1407L92.2612 67.9737L90.8865 69.1957L89.359 69.9594L87.0678 70.4177L85.3875 70.2649L83.5546 69.5012L82.0271 68.1265L81.2633 67.0572L81.1106 65.8352L81.2633 65.6825H82.1798L82.9436 66.4462L83.8601 67.6682L84.9293 68.2792L85.693 68.5847H86.915L87.9843 68.1265L89.2063 67.0572L90.1228 65.5297V62.4748L89.359 60.9473L88.137 59.878L85.693 58.5033L83.8601 57.4341L82.3326 56.2121L81.1106 54.5318L80.6523 52.8516V49.6439L81.5688 47.1999L82.4853 45.9779L83.8601 44.7559L85.693 43.9922Z" fill="#504341"/>
<path d="M215.683 45.8242H218.89L221.029 46.8935L222.251 47.9627L223.32 49.6429L223.167 50.4067L223.014 50.5594H222.098L221.181 49.0319L220.112 48.1154L218.738 47.5045H217.057L215.377 48.5737L214.461 50.1012L214.308 50.5594V52.3924L215.072 53.9199L216.446 54.9891L218.89 56.2111L221.029 57.4331L222.556 58.6551L223.473 59.8771L224.084 61.0991L224.389 62.1683V64.4595L223.931 65.987L223.014 67.5145L221.64 69.042L220.265 69.9585L218.279 70.5695H215.53L214.002 70.1112L212.628 69.1948L211.253 67.9728L210.795 67.0563L210.947 66.2925L211.711 66.1398L212.628 66.9035L213.391 67.9728L214.766 68.7365L215.377 68.8893H216.905L218.279 68.2783L219.349 67.3618L220.112 66.1398L220.265 65.376V63.5431L219.807 62.4738L218.738 61.2518L216.752 60.0298L214.308 58.8078L212.628 57.7386L211.406 56.6694L210.489 54.9891L210.184 53.7671V51.7814L210.795 49.7957L211.864 48.1154L212.933 47.0462L214.461 46.1297L215.683 45.8242Z" fill="#504341"/>
<path d="M173.371 0H175.968V18.9408L176.732 18.7881H181.162V11.7616H183.911V29.9387H181.314L181.162 29.786V20.6211L175.968 20.7738L175.815 29.786H173.219V2.74947L173.371 0Z" fill="#564744"/>
<path d="M97.3008 0H99.8975V18.7881L105.091 18.6353L105.244 11.7616H107.84V29.786H105.244L105.091 20.6211L99.8975 20.4683V29.786H97.3008V0Z" fill="#4F4341"/>
<path d="M97.3008 42.0059H99.8975L100.05 42.3114V59.5719L105.244 59.4192L105.396 52.851H108.146V69.8061H105.549L105.396 69.6534L105.244 61.2522H100.203L100.05 61.5577L99.8975 69.8061H97.3008V42.0059Z" fill="#514442"/>
<path d="M222.706 11.3027L224.081 11.4555L224.998 12.2192L225.761 13.7467V29.9381H223.47L223.317 29.7853L223.165 14.3577L222.859 13.8995L222.248 15.2742L221.179 19.7039L219.804 26.7303L219.346 29.3271L219.04 29.7853H217.971L217.666 28.7161L215.985 21.0786L215.527 18.9402L214.763 15.8852L214.152 14.3577L214 14.0522V29.7853H212.625V13.4412L213.236 12.0665L214.152 11.4555H215.68L216.444 12.372L217.055 13.8995L218.277 19.0929L219.04 22.3006V22.6061H219.346L219.499 21.6896L220.721 15.8852L221.637 12.6775L222.248 11.761L222.706 11.3027Z" fill="#4F4341"/>
<path d="M232.79 11.457H234.623L235.692 12.679L236.303 14.6648L236.914 17.567L237.22 18.9417L238.594 25.0517L238.9 26.4264L239.511 29.9396H236.609L235.539 25.0517L235.234 24.4407L230.346 24.2879L229.277 29.6341L229.124 29.7869H228.055L228.36 27.1901L229.124 23.8297L229.582 21.2329L230.957 14.8175L231.873 12.3735L232.484 11.6098L232.79 11.457Z" fill="#504441"/>
<path d="M191.549 11.3027L192.771 11.4555L193.535 12.2192L194.146 13.594L195.521 19.3984L195.826 20.7731L196.437 23.0644L196.896 25.6611L197.201 27.0358L197.659 29.1743V29.7853H194.91L194.452 27.9523L193.688 24.7446L193.535 24.4391H188.647L188.342 25.3556L187.731 28.1051L187.425 29.7853H186.203L186.967 25.8139L187.425 23.3699L188.342 18.1764L189.258 14.3577L190.022 12.372L191.091 11.4555L191.549 11.3027Z" fill="#4F4341"/>
<path d="M113.799 11.7617H117.77L119.298 12.22L120.52 13.2892L121.283 14.5112L121.589 15.7332V18.1772L121.131 19.2464L120.367 20.0101L118.992 21.0794L119.145 22.1486L120.672 25.3563L122.353 29.3278L122.505 29.9388L119.145 29.7861L117.006 24.2871L116.09 21.3849V20.9266L117.465 20.4684L118.381 19.3991L118.839 18.4827V15.7332L117.923 13.9002L117.006 13.2892L116.243 13.1365H114.715L114.562 29.7861H111.813L111.66 12.0672L111.813 11.9145L113.799 11.7617Z" fill="#504441"/>
<path d="M202.851 11.7617H205.448L207.128 12.0672L208.35 12.9837L209.267 14.2057L209.725 15.5804V18.4827L208.961 19.7046L207.281 21.0794L207.128 21.6904L208.35 24.1344L209.267 26.4256L209.878 27.6476L210.642 29.6333V29.9388H207.892L207.281 29.6333L205.601 25.2036L204.532 22.3014L204.226 21.0794L206.059 20.1629L206.976 18.7882L207.128 18.3299V15.8859L206.517 14.3584L205.448 13.442L204.99 13.2892H202.699V29.7861H200.102L199.949 27.3421V11.9145L202.851 11.7617Z" fill="#524542"/>
<path d="M262.27 53.0039H264.255L265.019 54.2259L266.852 58.3501L268.838 63.0853L269.601 64.46V53.0039H271.74V69.959H269.601L269.143 69.5008L267.157 65.2238L265.172 60.6413L264.408 59.2666L264.255 70.1117H262.422L262.27 69.959V53.0039Z" fill="#534543"/>
<path d="M275.102 7.33203H276.477L276.782 7.48478L276.63 27.4948L276.171 27.8003L275.255 27.9531H272.964L270.825 26.8838L269.756 25.5091L269.145 24.1344L268.992 23.2179V19.8574L269.45 18.3299L270.214 17.1079L271.589 15.886L272.964 15.4277L274.949 15.275V7.48478L275.102 7.33203Z" fill="#3B2F2E"/>
<path d="M114.867 52.8516H117.617L119.45 53.3098L120.824 54.379L121.741 55.7538L122.046 56.6703V58.8088L121.13 60.1835L119.908 61.2527L119.297 61.711L119.45 62.4747L121.283 66.1407L122.81 69.6539V69.8067H119.755L119.297 69.3484L117.006 63.8495L116.395 62.1692L116.7 61.4055L117.922 60.7945L118.839 59.7252L119.144 58.9615V56.6703L118.38 55.1428L117.311 54.379L114.867 54.2263L114.714 69.8067H111.965V53.0043L114.867 52.8516Z" fill="#514442"/>
<path d="M253.87 52.8516H258.758L258.605 54.0736L258.453 54.2263L251.579 54.379L251.732 60.6417H257.383L257.536 60.7945L257.383 62.1692L251.579 62.322V68.1264L251.732 69.1957L259.216 69.3484V70.4176L254.787 70.5704H250.815L249.593 70.2649L248.829 69.6539L248.371 68.2792V54.6845L248.982 53.7681L249.746 53.1571L250.357 53.0043L253.87 52.8516Z" fill="#504341"/>
<path d="M161.613 3.9707H163.293L164.668 4.2762L166.042 5.34544L166.806 6.56743L167.417 8.55316V11.6081L166.806 14.0521L165.89 15.5796L164.668 16.4961L163.14 16.8016H160.391V4.2762L160.543 4.12345L161.613 3.9707Z" fill="white"/>
<path d="M157.18 43.6855H159.165V66.1396H164.817V70.5693H157.18V43.6855Z" fill="#564744"/>
<path d="M190.479 52.6992H198.575L198.269 53.7685L193.687 53.9212H191.243L191.09 60.3366H197.2V61.8641H191.243L191.396 68.7378L191.548 68.8906L198.88 69.0433V69.9598L198.575 70.1126H190.479L189.104 69.8071L188.188 68.7378L188.035 67.8213V54.685L188.493 53.6157L189.104 53.0047L190.479 52.6992Z" fill="#534543"/>
<path d="M288.849 53.3086H297.098L296.945 54.0723L296.792 54.3778H289.919V60.7933L295.723 60.946V62.3208L289.919 62.4735V69.4999H297.403L297.556 69.6527V70.4164L297.098 70.7219H288.849L287.475 70.2637L286.864 69.1944L286.711 68.5835V55.4471L287.016 54.3778L287.78 53.6141L288.849 53.3086Z" fill="#504441"/>
<path d="M279.379 53.1562H280.754L282.129 53.7672L282.893 54.3782L283.809 55.9057L284.42 57.586L284.267 58.197L283.504 58.6552H282.282L281.365 56.8222L280.601 56.2112H279.227L278.463 56.975L277.699 58.197L277.241 59.4189L277.088 60.1827V63.6959L277.546 65.6816L278.616 67.3619L279.379 67.8201L280.449 67.6674L281.365 66.9036L282.129 65.3761L282.434 64.4596L283.504 64.6124L284.267 65.2234L284.42 65.9871L283.809 67.8201L282.893 69.1948L281.823 70.2641L280.754 70.7223H279.227L278.005 70.2641L276.783 69.1948L275.713 67.5146L275.255 66.2926L274.797 64.1541V60.1827L275.408 57.1277L276.477 55.142L277.546 53.92L278.31 53.4617L279.379 53.1562Z" fill="#514441"/>
<path d="M231.57 53.1562H233.251L234.625 53.7672L235.695 54.8365L236.458 56.364L236.611 56.8222V58.197L235.236 58.6552L234.625 58.5024L233.709 56.8222L232.792 56.0585H231.57L230.807 56.6695L230.043 58.0442L229.737 58.8079L229.432 60.7937V63.0849L229.737 65.0706L230.348 66.5981L231.112 67.5146L231.57 67.8201H232.64L233.403 67.0564L234.014 66.2926L234.931 64.4596L236 64.6124L236.611 65.2234V66.4454L235.847 68.4311L234.473 69.9586L232.945 70.7223H231.876L230.348 70.2641L229.126 69.1948L227.904 67.0564L227.293 65.2234L227.141 63.3904V60.7937L227.293 59.1134L228.057 56.5167L228.974 54.8365L230.043 53.7672L231.57 53.1562Z" fill="#504441"/>
<path d="M126.02 11.9141H133.352L133.046 12.9833L127.242 13.1361V19.7042H132.282V21.2317L131.977 21.3845H127.242L127.394 28.1054L127.7 28.5637H133.657L133.81 28.7164V29.7856L129.686 29.9384H126.631L125.256 29.4801L124.798 28.7164L124.492 27.3417V13.8998L125.256 12.3723L126.02 11.9141Z" fill="#504341"/>
<path d="M130.91 52.8516H133.813V54.2263L127.55 54.379V60.3362H132.896L132.743 61.8637L127.703 62.0165V68.2792L127.855 68.4319L134.118 68.5847L134.271 69.5012L134.118 69.8067H127.092L125.564 69.1957L125.106 68.4319L124.953 67.3627V54.6845L125.259 53.9208L126.175 53.1571L126.939 53.0043L130.91 52.8516Z" fill="#514442"/>
<path d="M138.24 11.9141H144.961L144.808 12.6778L144.503 12.9833L139.615 13.1361L138.851 13.2888V19.7042H143.739L143.892 19.857V21.079L143.739 21.2317L138.851 21.3845V28.5637H145.266V29.6329L145.114 29.7856H137.476L136.407 28.8692L136.102 27.4944V14.0525L136.407 12.9833L137.171 12.2196L138.24 11.9141Z" fill="#4F4341"/>
<path d="M138.697 53.0039H145.57L145.418 53.9204L145.265 54.2259L139.46 54.3786V60.3358L144.654 60.4886L144.501 61.7106L139.308 61.8633L139.46 68.4315L145.723 68.5843L145.876 68.737V69.6535L145.723 69.8062H138.697L137.475 69.348L136.864 68.5843L136.711 67.9733V54.6841L137.169 53.7676L137.627 53.3094L138.697 53.0039Z" fill="#4F4341"/>
<path d="M100.815 37.4238H183.146L193.991 37.5766L196.435 37.7293L196.741 37.8821V38.3403H178.258L174.44 38.1876L171.996 37.8821H163.136L161.914 38.0348H160.845L159.47 37.7293H146.028L141.293 38.0348L134.267 38.1876H131.212L127.546 38.3403H97.1488L96.9961 37.7293L97.3016 37.5766L100.815 37.4238Z" fill="#B88875"/>
<path d="M178.41 53.6152H186.048L185.895 56.0592L185.742 56.3647H180.396L180.549 60.3362L185.284 60.4889L185.131 63.2384H180.396L180.549 70.5703H178.41V53.6152Z" fill="#4F4341"/>
<path d="M241.192 53.4629H244.858V55.7541L244.552 56.2124L243.33 56.3651L243.483 67.363L244.858 67.974V70.2652L244.705 70.418H240.122L239.664 70.2652V67.8213L239.817 67.6685L240.886 67.5158L241.039 66.4465L241.192 56.3651L239.97 56.2124L239.664 55.9069V53.6156L241.192 53.4629Z" fill="#534542"/>
<path d="M169.86 53.3086H174.748L174.9 53.4613V55.9053L174.442 56.2108H173.526V67.3615L174.442 67.667L174.748 67.9725V69.9582L174.595 70.2637H170.013L169.86 70.1109V67.667L171.235 67.3615L171.387 56.0581L170.013 55.9053L169.86 55.7526L169.707 53.4613L169.86 53.3086Z" fill="#4F4340"/>
<path d="M254.938 9.31836H257.229L257.381 9.47111V27.8009H254.938V9.31836Z" fill="#584945"/>
<path d="M285.798 15.2754H287.02L287.478 16.0391L288.7 20.9271L289.769 26.426L290.075 27.8008H288.394L287.936 26.5788L287.631 23.9821H284.117L283.812 26.5788L283.506 27.648H282.59L283.354 23.8293L284.117 19.2469L284.881 16.4974L285.492 15.5809L285.798 15.2754Z" fill="#3D3130"/>
<path d="M223.78 11.457L224.544 11.7625L225.46 12.9845L225.766 13.7483V29.9396H223.475L223.322 29.7869L223.169 14.3593L222.711 13.901L223.016 12.5263L223.78 12.2208V11.457Z" fill="#524442"/>
<path d="M252.19 8.85938H252.648L252.495 9.62312L251.12 11.4561L250.204 12.9836L249.44 15.2748L248.982 18.6353V23.065L249.287 25.9672L249.898 28.5639L250.968 30.7024L252.342 32.3827L252.648 33.2991L251.731 33.1464L250.357 32.0772L249.287 30.8552L248.065 28.4112L247.607 27.0365L247.149 24.5925L246.996 23.2177V19.2463L247.302 16.4968L247.913 14.2056L249.135 11.7616L250.204 10.2341L251.884 9.01212L252.19 8.85938Z" fill="#3A2E2D"/>
<path d="M260.744 15.4277H261.66L262.73 16.3442L265.785 22.6069L266.243 23.5234V15.5805L266.396 15.4277H267.159L267.312 27.9531L266.243 27.8004L265.785 27.0366L263.646 22.4542L262.424 19.7047L261.508 17.8717L261.049 17.5662V27.6476H260.133V17.5662L260.591 15.5805L260.744 15.4277Z" fill="#3C2F2E"/>
<path d="M291.141 9.01172L292.21 9.16447L293.738 10.5392L294.654 11.6084L295.723 13.8997L296.334 16.3436L296.64 17.8711V23.5228L296.182 26.5778L295.571 28.7163L294.501 30.702L293.127 32.2295L292.21 32.9932L291.599 33.2987H290.988L291.294 32.535L292.058 31.7713L293.127 30.3965L293.891 28.5635L294.501 25.8141L294.654 24.7448L294.807 22.1481V20.1624L294.654 17.1074L294.196 14.5107L293.432 12.5249L292.363 10.9975L291.141 9.62271V9.01172Z" fill="#2D2121"/>
<path d="M274.185 16.0391H274.948V26.7315L274.643 27.1897L273.421 27.037L272.504 26.426L271.588 25.3567L270.977 23.8292L270.824 22.9127V20.1633L270.977 18.7885L271.893 17.2611L272.963 16.3446L274.185 16.0391Z" fill="white"/>
<path d="M157.18 43.6855H159.013V59.5714L158.707 60.0296L158.554 60.1824L158.096 63.5429L157.638 65.6813L157.485 70.111L159.165 70.4165V70.5693H157.18V43.6855Z" fill="#382C2B"/>
<path d="M274.949 7.79102H275.102V26.5791H275.408V26.2736L276.019 26.4263L276.171 27.3428L275.713 27.4956L276.171 27.8011L275.255 27.9538H272.964L270.825 26.8846L269.756 25.5098L269.145 24.1351L268.992 23.2186V19.8582L269.45 18.3307L270.214 17.1087L271.589 15.8867L272.964 15.4284L274.949 15.2757V7.79102ZM274.186 16.0394L272.658 16.4977L271.436 17.8724L270.978 18.7889L270.825 20.1636V22.9131L271.283 24.7461L272.047 25.9681L273.116 26.8846L274.033 27.1901L274.797 27.0373L274.949 26.7318V16.0394H274.186Z" fill="#504341"/>
<path d="M198.268 37.7285L199.184 37.8813H207.433L211.251 37.7285H232.178L235.08 38.034L234.927 38.4923L234.316 38.645H204.378L198.726 38.4923L197.504 38.3395L197.809 37.8813L198.268 37.7285Z" fill="#B58574"/>
<path d="M191.092 13.4414L191.55 13.8997L192.161 16.3436L192.925 20.1623L193.23 21.8426V22.4536L192.619 22.6063H189.106L188.953 21.9953L189.87 17.2601L190.481 14.6634L191.092 13.4414Z" fill="white"/>
<path d="M169.86 53.3086H174.748L174.9 53.4613V55.9053L174.442 56.2108H173.526V67.2087H173.373L173.067 65.3757L172.609 65.223L172.457 61.2515V58.0438L172.762 56.5163V55.9053H171.693L170.471 56.0581L169.86 55.7526L169.707 53.4613L169.86 53.3086Z" fill="#584945"/>
<path d="M159.93 37.4238H183.147L193.993 37.5766L196.437 37.7293L196.742 37.8821V38.3403H178.26L174.441 38.1876L171.997 37.8821H163.137L161.915 38.0348H160.846L159.93 37.7293V37.4238Z" fill="#B58574"/>
<path d="M232.943 13.4414L233.401 14.0524L234.012 16.8019L234.929 21.6898V22.4536H230.805L230.957 20.9261L231.721 17.4129L232.179 14.9689L232.638 13.8997L232.943 13.4414Z" fill="white"/>
<path d="M285.795 15.2754H287.017L287.475 16.0391L288.697 20.9271L289.766 26.426L290.072 27.8008H288.392L287.933 26.5788L287.628 24.4403L287.17 22.3018L286.559 18.6359L286.1 17.1084L285.642 16.8029L285.489 17.4139H285.184L285.031 16.1919L285.795 15.2754Z" fill="#2E2222"/>
<path d="M280.445 15.4277H280.903V27.8004H279.375L279.223 15.5805L280.445 15.4277Z" fill="#2E2322"/>
<path d="M171.693 55.7539L172.762 55.9067L172.915 56.6704L172.609 58.0451V61.2529L172.762 65.2243L173.22 65.3771L173.373 67.0573L172.762 66.7518L172.304 67.5155H171.54L171.387 56.5176L171.234 55.9067L171.693 55.7539Z" fill="#392D2C"/>
<path d="M215.682 45.8242H218.889L221.028 46.8935L222.25 47.9627L223.319 49.6429L223.166 50.4067L223.014 50.5594H222.097L221.181 49.0319L220.111 48.1154L218.737 47.5045L216.904 47.3517V47.0462L215.987 46.7407L214.918 46.2825V45.977L215.682 45.8242Z" fill="#2D2222"/>
<path d="M262.426 60.6406H262.884L263.495 62.0154L263.648 64.7648L264.106 67.9726V69.3473L263.801 69.8055L264.259 69.6528V70.111H262.426V60.6406Z" fill="#392D2C"/>
<path d="M86.3012 2.13867H88.7452L90.1199 2.74967L91.3419 3.66616L92.2584 4.7354L93.1749 6.26288V7.33212L92.1056 7.63762L91.8001 7.33212L91.3419 6.11013L89.9672 4.58265L89.0507 4.1244L88.2869 3.97165L88.1342 3.51341L86.3012 2.74967L86.1484 2.29142L86.3012 2.13867Z" fill="#3B2F2E"/>
<path d="M285.644 16.8027L286.255 17.1082L286.866 19.3995L287.324 22.3017V22.9127H284.422L284.575 21.0797L285.338 17.5665L285.644 16.8027Z" fill="white"/>
<path d="M252.191 8.85938H252.65L252.497 9.62312L251.122 11.4561L250.206 12.9836L249.442 15.2748L249.136 17.1078L248.678 17.2605L248.373 16.1913V15.2748L247.762 15.5803L247.914 14.2056L249.136 11.7616L250.206 10.2341L251.886 9.01212L252.191 8.85938Z" fill="#2E2322"/>
<path d="M86.0004 44.1445H88.9026L89.9719 44.6028L91.6521 45.8248L92.7213 47.0468L93.1796 48.116V48.8797L92.2631 49.0325L90.4301 46.7413L89.2081 45.9775L87.6806 45.3665L86.3059 45.061L86.1532 44.6028H85.8477L86.0004 44.1445Z" fill="#2F2323"/>
<path d="M81.2621 65.6816H82.1786L82.9424 66.4454L83.8588 67.6674L84.9281 68.2784L85.9973 68.7366L87.3721 69.0421V69.3476L87.8303 69.5004V69.8059L86.7611 69.9586L86.3028 69.8059L86.4556 70.2641H85.3863L83.5534 69.5004L82.0259 68.1256L81.2621 67.0564L81.1094 65.8344L81.2621 65.6816Z" fill="#2D2121"/>
<path d="M269.602 53.0039H271.587L271.282 54.0731L270.976 54.5314L270.824 55.4479L270.671 58.8084L270.365 61.7106L270.213 63.8491L269.907 64.1546L269.602 62.9326V53.0039Z" fill="#3D3130"/>
<path d="M138.236 11.9141H144.957L144.804 12.6778L144.498 12.9833L139.61 13.1361L138.083 13.4415L137.014 13.5943L136.555 15.1218L136.403 16.6493H136.25V13.2888L136.861 12.3723L138.236 11.9141Z" fill="#332726"/>
<path d="M248.984 69.3477L249.137 69.6532H251.581V69.3477H259.219V70.4169L254.789 70.5696H250.817L249.595 70.2641L248.984 69.8059V69.3477Z" fill="#302423"/>
<path d="M266.392 15.4277H267.156L267.309 27.9531L266.698 27.8004L267.003 27.6476L266.545 27.3421L266.239 26.4256L265.781 22.9124L266.239 23.5234V15.5805L266.392 15.4277Z" fill="#4F4340"/>
<path d="M190.481 52.6992H198.576L198.271 53.7685L193.688 53.9212H191.092L190.481 53.7685H188.953L189.106 53.0047L190.481 52.6992Z" fill="#3C2F2E"/>
<path d="M272.964 15.4277H274.491V16.0387L272.658 16.6497L271.589 17.8717L270.825 19.2464L269.909 19.3992L269.756 19.7047V23.9817L268.992 23.2179V19.8574L269.45 18.33L270.214 17.108L271.589 15.886L272.964 15.4277Z" fill="#3C302F"/>
<path d="M260.438 15.8867H260.591V16.956L261.202 17.2615L261.355 17.567H261.049V27.6484H260.133V17.567L260.438 15.8867Z" fill="#5D4D48"/>
<path d="M211.098 66.1406L212.015 66.2934L212.931 67.3626L213.695 68.1264L214.764 68.7374L216.445 69.1956V69.9593L216.903 70.2648L216.75 70.5703H215.528L214.001 70.1121L212.626 69.1956L211.251 67.9736L210.793 67.0571L210.946 66.2934L211.098 66.1406Z" fill="#2E2222"/>
<path d="M127.548 68.4316L134.116 68.5844L134.269 69.5009L134.116 69.8064H127.09L125.715 69.3481V69.0426L127.395 68.7371L127.548 68.4316Z" fill="#483937"/>
<path d="M274.948 7.79102H275.101V26.5791H275.406V26.2736L276.017 26.4263L276.17 27.3428L275.712 27.4956L276.17 27.8011L275.254 27.9538H272.962L270.824 26.8846L269.755 25.5098L269.449 24.8989V24.1351L270.213 24.8989L270.824 26.1208L271.893 26.8846L272.504 27.0373V26.5791L274.032 27.0373H274.643L274.795 26.7318L274.948 16.0394H274.49L274.337 15.5812L273.879 15.2757H274.948V7.79102Z" fill="#413432"/>
<path d="M139.308 68.584H145.723L145.876 68.7367V69.6532L145.723 69.806H138.697L138.238 69.3477H138.544L138.697 68.8895L139.308 68.584Z" fill="#372A29"/>
<path d="M81.8727 25.3555L82.6365 25.5082L83.5529 27.0357L84.7749 28.1049L85.2332 28.2577L85.3859 29.0214L85.2332 29.4797L84.7749 29.9379L84.1639 29.7852L82.7892 28.7159L81.5672 27.3412L81.2617 26.7302V25.8137L81.8727 25.3555Z" fill="#403231"/>
<path d="M288.851 53.3086H297.1L296.947 54.0723L296.794 54.2251H287.477V53.7668L288.851 53.3086Z" fill="#2A1F1F"/>
<path d="M295.268 69.5H297.407L297.559 69.6527V70.4165L297.101 70.722H289.922V70.2637V69.6527L295.268 69.5Z" fill="#2D2221"/>
<path d="M256.466 60.6406H257.382L257.535 60.7934L257.382 62.1681H252.341L251.73 62.0154L251.883 60.9461L252.036 60.7934L256.466 60.6406Z" fill="#312525"/>
<path d="M275.102 15.8867L275.407 16.4977L275.713 24.7461H276.018L276.171 20.4692L276.324 19.0944H276.476V27.6484H275.56L275.713 27.3429H276.171L275.865 26.4264L275.407 26.2736V26.5791H275.102V15.8867Z" fill="#291E1E"/>
<path d="M292.056 60.9473H295.722V62.322H290.681L290.07 62.0165L290.223 61.1L292.056 60.9473Z" fill="#2A1F1F"/>
<path d="M143.278 19.7051L143.889 19.8578V21.0798L143.736 21.2326H138.848L138.695 19.8578L143.278 19.7051Z" fill="#2A1F1F"/>
<path d="M287.626 17.2598L287.932 17.718L288.848 21.8422L289.306 24.1335L289.154 24.5917L288.39 24.7444L288.084 24.1335L287.779 21.8422L287.321 20.0092L287.168 17.718L287.626 17.2598Z" fill="#3B2F2E"/>
<path d="M126.021 11.9141H133.353L133.047 12.9833H128.77L129.228 12.5251H127.548L126.173 12.9833L125.562 12.6778L125.868 12.0668L126.021 11.9141Z" fill="#392D2C"/>
<path d="M222.707 11.3027H223.624L223.776 11.4555V12.2192L223.165 12.5247L221.943 16.3434L221.638 17.7182L221.332 17.8709L221.18 14.0522L221.943 12.0665L222.707 11.3027Z" fill="#3A2E2D"/>
<path d="M178.563 63.2383H178.716L179.174 65.835L179.479 67.5152L180.09 69.1955H180.396L180.549 70.5702H178.41L178.563 63.2383Z" fill="#392D2C"/>
<path d="M138.697 53.0039H145.571L145.418 53.9204L145.266 54.2259L142.211 54.0731L141.905 53.7676H139.308L137.934 53.9204L138.239 53.1567L138.697 53.0039Z" fill="#312625"/>
<path d="M171.693 55.7539H172.304L172.151 65.2243L171.693 66.1408H171.54L171.387 56.5176L171.234 55.9067L171.693 55.7539Z" fill="#291E1E"/>
<path d="M144.957 28.5645H145.263V29.6337L145.11 29.7864H137.473V29.4809L139.458 29.3282H140.375L139.306 29.1754L139.153 28.87L144.957 28.5645Z" fill="#312524"/>
<path d="M89.3594 3.81836L90.2759 3.97111L90.7341 4.12386V4.42935L91.3451 4.27661V3.97111L91.9561 4.27661L93.0253 5.95684L93.1781 6.26234V7.33158L92.1088 7.63707L91.8034 7.33158L91.3451 6.10959L89.9704 4.5821L89.3594 4.27661V3.81836Z" fill="#312424"/>
<path d="M262.579 62.7793L262.884 63.0848L263.19 66.4453L263.495 68.431L263.801 69.1947V69.8057L264.259 69.653V70.1112H262.426V62.932L262.579 62.7793Z" fill="#2E2221"/>
<path d="M260.746 15.4277H261.663L262.732 16.3442L263.19 17.2607V17.5662H262.732L262.885 19.2464L262.274 19.3992L261.51 17.8717L260.899 17.108L260.594 16.9552V15.5805L260.746 15.4277Z" fill="#2E2222"/>
<path d="M130.907 52.8516H133.81V54.2263H132.893L132.588 53.9208V53.4626L128.158 53.6153L126.783 54.0736L126.172 54.2263L126.02 53.4626L126.172 53.1571L126.936 53.0043L130.907 52.8516Z" fill="#4E3C37"/>
<path d="M196.741 60.3359H197.199V61.7107H192.617V61.5579L193.839 61.4052V60.9469L192.006 60.7942L191.242 60.6414V60.4887L196.741 60.3359Z" fill="#392D2C"/>
<path d="M279.532 9.4707H280.907L281.06 9.62345V12.0674L279.991 12.3729L279.227 12.0674L279.074 11.7619V10.2344L279.532 9.4707Z" fill="#2E2222"/>
<path d="M284.875 16.4961L285.18 16.9543V17.4126L285.486 17.5653L284.722 21.0786L284.416 22.9115L284.111 23.3698L283.958 23.6753H283.5L283.805 20.7731L284.722 16.9543L284.875 16.4961Z" fill="#4F4240"/>
<path d="M204.684 38.4922H215.071L230.804 38.6449V38.7977L206.517 38.9504L204.531 38.7977L204.684 38.4922Z" fill="#DEAC87"/>
<path d="M248.371 28.7168H248.677L249.746 30.2443L250.204 30.5498L250.815 30.397L252.037 32.0773L252.495 32.5355L252.648 33.2993L251.732 33.1465L250.357 32.0773L249.288 30.8553L248.371 29.175V28.7168Z" fill="#302423"/>
<path d="M191.09 68.8887L198.88 69.0414V69.9579H194.298L194.909 69.4997L191.701 69.3469L191.09 69.1942V68.8887Z" fill="#362A29"/>
<path d="M139.461 60.4883H144.654L144.349 61.5575H139.919L140.072 61.0993L139.461 60.4883Z" fill="#291E1E"/>
<path d="M275.102 7.33203H276.477L276.782 7.48478L276.629 8.55402L276.477 9.77601L275.713 9.01227L275.56 9.62326L275.407 14.9695L275.102 15.275L274.949 7.48478L275.102 7.33203Z" fill="#2F2222"/>
<path d="M269.148 38.3398H275.716L279.229 38.4926L279.688 38.7981H264.871V38.6453L266.551 38.4926L269.148 38.3398Z" fill="#B58574"/>
<path d="M247.302 18.6348H247.454L247.607 20.6205L247.76 24.1337L247.913 25.6612L248.218 27.1887V27.9524L247.76 27.6469L247.149 24.592L246.996 23.2172V19.2458L247.302 18.6348Z" fill="#312525"/>
<path d="M268.38 66.5977L269.143 66.7504L269.754 67.5141L270.518 68.8889L270.671 69.4999L270.976 69.6526V69.9581H269.602L269.143 69.4999L268.074 67.2087L268.227 66.7504L268.38 66.5977Z" fill="#3B2E2D"/>
<path d="M84.7759 68.2793L85.9979 68.7375L87.3726 69.043V69.3485L87.8308 69.5013V69.8068L86.7616 69.9595L86.3034 69.8068L86.4561 70.265H85.3869L83.8594 69.654V68.8903L84.1649 68.5848H84.7759V68.2793Z" fill="#3C2F2E"/>
<path d="M262.27 53.0039H264.255L265.019 54.2259L265.935 56.2116L265.783 56.8226L265.019 55.6006L264.408 55.4479L263.644 54.3786L262.881 53.9204L262.27 53.7676V53.0039Z" fill="#3B2F2D"/>
<path d="M137.627 53.3086H138.085L137.933 53.9196L139.307 53.6141H141.904L142.209 53.9196L144.348 54.0723V54.2251L139.46 54.3778L139.307 54.5306L137.322 54.8361V55.1416H136.863V54.2251L137.627 53.3086Z" fill="#3B2F2D"/>
<path d="M272.966 15.4277H274.493V16.0387L272.66 16.6497L271.896 17.4135H271.591L271.285 17.108H270.98L270.674 17.719L269.758 18.33L269.911 17.4135L270.98 16.3442L272.049 15.7332L272.966 15.4277Z" fill="#312524"/>
<path d="M279.989 17.4141L280.447 17.5668V19.3998L280.6 20.3163V23.3713L280.294 24.8987H279.989L279.836 24.2877V18.1778L279.989 17.4141Z" fill="#392D2C"/>
<path d="M132.74 68.584H134.114L134.267 69.5005L134.114 69.6532H131.212L131.67 69.5005V69.195H128.004L127.852 68.7367L132.74 68.584Z" fill="#2A1F1F"/>
<path d="M128.157 19.8574H132.281V21.2322H127.852V21.0794L129.99 20.7739L130.296 20.6212V20.3157L128.157 20.0102V19.8574Z" fill="#362A29"/>
<path d="M250.356 53.0039H256.924V53.1567L254.174 53.4622L251.883 53.6149L250.967 53.9204L249.134 54.0731L248.828 54.2259L249.134 53.6149L249.745 53.1567L250.356 53.0039Z" fill="#3A2E2D"/>
<path d="M252.036 60.793L255.396 60.9457L256.466 61.2512L255.855 61.7095L251.73 62.015L251.883 60.9457L252.036 60.793Z" fill="#392D2C"/>
<path d="M136.861 12.373H137.625V12.6785L139.763 12.5258L139.916 12.984L138.541 13.4423L137.014 13.595L136.555 15.1225L136.403 16.65H136.25V13.2895L136.861 12.373Z" fill="#3C302E"/>
<path d="M156.723 20.6211H156.875L157.028 29.175L157.181 29.3278H159.93L160.083 24.5926H160.236V29.786H156.723V20.6211Z" fill="#362A2A"/>
<path d="M274.948 7.79102H275.101V26.5791H274.948V16.0394H274.49L274.337 15.5812L273.879 15.2757H274.948V7.79102Z" fill="#514442"/>
<path d="M157.18 43.6855H159.013V44.9075L158.707 45.213H158.249L157.943 46.1295L157.485 45.824L157.18 46.1295V43.6855Z" fill="#291E1E"/>
<path d="M257.075 16.9551H257.228L257.38 27.8002H255.395L255.547 27.342L256.617 27.1892L256.922 23.3705L257.075 16.9551Z" fill="#3A2E2C"/>
<path d="M191.547 11.3027H192.311L192.464 11.6082H192.006V11.9137L191.395 12.0665L191.089 12.983L190.784 14.3577L190.325 14.9687L190.173 14.5105V13.2885H189.867L190.02 12.372L191.089 11.4555L191.547 11.3027Z" fill="#3B2E2D"/>
<path d="M289.922 69.6543L290.533 69.807L290.991 69.9598L294.963 70.1125V70.418L297.101 70.5708V70.7235H289.922V70.2653V69.6543Z" fill="#3B2F2E"/>
<path d="M222.709 11.3027H223.626L223.778 11.4555V12.2192L223.167 12.5247L222.556 14.3577L221.945 13.8995L222.098 12.6775L221.945 12.0665L222.709 11.3027Z" fill="#2F2424"/>
<path d="M169.855 53.3086H174.743V54.0723H173.063L171.841 53.9196H170.314V53.6141H169.855V53.3086Z" fill="#443634"/>
<path d="M269.602 53.1562H271.282L270.365 54.2255L270.213 57.4332L269.907 58.9607H269.754L269.602 53.1562Z" fill="#291E1E"/>
<path d="M86.0004 44.1445H88.9026L89.8191 44.45V44.6028H88.1389L88.4444 45.5193L86.6114 45.2138L86.1532 44.9083V44.6028H85.8477L86.0004 44.1445Z" fill="#3B2F2D"/>
<path d="M232.789 11.457H234.011L233.4 11.9153H232.942V13.5955L232.025 14.0538H231.414L231.567 13.1373L232.178 11.9153L232.789 11.457Z" fill="#3F3130"/>
<path d="M195.368 52.6992H198.575L198.27 53.6157H195.826L195.979 53.0047H195.215L195.368 52.6992Z" fill="#2A1F1E"/>
<path d="M133.2 28.5645H133.658V29.6337H131.367L131.672 29.0227H129.992L130.145 28.7172L133.2 28.5645Z" fill="#392D2C"/>
<path d="M215.682 45.8242L216.293 45.977L217.973 46.588V47.0462L218.278 47.3517H216.904V47.0462L215.987 46.7407L214.918 46.2825V45.977L215.682 45.8242Z" fill="#3B2F2E"/>
<path d="M215.075 68.8887L216.45 69.1942V69.9579L216.908 70.2634L216.755 70.5689H215.533L214.77 70.4162V69.4997L215.075 68.8887Z" fill="#3B2E2D"/>
<path d="M254.938 9.31836H257.229V11.1513H256.923L256.618 10.0821L255.701 10.2349L255.243 10.0821L255.09 10.5403L254.938 9.31836Z" fill="#332726"/>
<path d="M244.551 68.7363H244.704V70.4166H240.121L239.969 70.1111L240.274 69.9583H244.398L244.551 68.7363Z" fill="#413433"/>
<path d="M185.284 53.6152H186.048L185.895 56.0592L185.743 56.3647L185.284 56.212V54.99L184.979 54.5317L184.062 54.2262L184.215 53.768L185.284 53.6152Z" fill="#3B2F2E"/>
<path d="M126.936 53.0039H129.991L129.838 53.4622L127.394 53.7676L126.478 54.2259L126.02 54.0731L126.172 53.1567L126.936 53.0039Z" fill="#3F3331"/>
<path d="M288.088 53.4629L288.699 53.6156L292.823 53.7684V54.2266H287.477V53.7684L288.088 53.4629Z" fill="#392D2C"/>
<path d="M178.41 53.6152L182.076 53.768V54.0735H179.785L178.868 54.379L178.716 57.8922H178.563L178.41 55.7537V53.6152Z" fill="#382C2B"/>
<path d="M97.3008 0H99.7448V1.22199L99.592 0.916491H97.4535L97.3008 0Z" fill="#372B2A"/>
<path d="M173.371 0H175.815V1.06924L175.51 0.916491V0.610994L174.288 1.06924H173.829V0.763743H173.371V0Z" fill="#392D2C"/>
<path d="M196.741 60.3359H197.199V61.7107H196.283V60.7942L191.242 60.6414V60.4887L196.741 60.3359Z" fill="#2D2221"/>
<path d="M138.542 27.9531L138.847 28.1059V28.5641L142.666 28.7169V28.8696L139.306 29.0224L140.528 29.1751L140.375 29.4806H137.473L137.625 29.1751L138.236 29.0224L138.542 27.9531Z" fill="#413433"/>
<path d="M283.506 24.8984L283.965 25.2039L283.659 27.4952L283.506 27.6479H282.59L283.048 25.5094H283.354L283.506 24.8984Z" fill="#574844"/>
<path d="M196.742 69.1953H198.88V69.9591H195.52V69.8063L196.589 69.5008L196.742 69.1953Z" fill="#291E1E"/>
<path d="M264.715 24.1348L265.326 24.2875L265.937 25.204L266.09 27.037H265.784L264.715 24.7458V24.1348Z" fill="#2D2121"/>
<path d="M157.332 66.293H157.485V70.1117L159.165 70.4172V70.5699H157.18V66.4457L157.332 66.293Z" fill="#332726"/>
<path d="M139.461 60.4883H140.377L142.058 60.9465V61.4048L141.905 61.5575H139.919L140.072 61.0993L139.461 60.4883Z" fill="#392D2C"/>
<path d="M229.888 24.7461H230.04V25.8153L229.277 29.634L229.124 29.7868H228.055L228.207 29.1758L228.818 29.3286L229.429 26.8846L229.735 25.0516L229.888 24.7461Z" fill="#403433"/>
<path d="M290.223 61.0996L292.209 61.2524L292.667 61.5579L291.445 62.0161L290.07 62.1688L290.223 61.0996Z" fill="#392D2C"/>
<path d="M139.766 53.7676H142.058L142.21 53.9203L144.349 54.0731V54.2258H139.461V53.9203L139.766 53.7676Z" fill="#594A46"/>
<path d="M262.879 53.0039H264.254L264.865 53.9204L264.712 54.3786L264.407 54.0731L264.254 54.3786L263.185 53.6149V53.3094L262.727 53.4622L262.879 53.0039Z" fill="#2C2121"/>
<path d="M170.316 53.6152H174.746L174.593 54.0735H173.066L171.844 53.9207H170.316V53.6152Z" fill="#392D2C"/>
<path d="M268.992 68.584L270.367 69.0422L270.52 69.6532L270.825 69.9587H269.603L269.145 69.5005L268.992 68.584Z" fill="#2C2120"/>
<path d="M136.863 64.3066H137.016L137.322 66.1396V67.8199L137.016 68.4309L136.863 68.1254V64.3066Z" fill="#372B2A"/>
<path d="M163.749 66.1406H164.818L164.666 67.6681L164.36 67.0571L163.902 66.5989L159.625 66.4461V66.2934L163.749 66.1406Z" fill="#372B2A"/>
<path d="M128.617 60.4883H132.741V61.4048L132.589 61.5575H131.825L131.978 60.7938L128.617 60.641V60.4883Z" fill="#362A29"/>
<path d="M219.347 27.1895H219.5V28.5642L219.195 29.6334L219.042 29.7862H217.973V29.3279L218.889 28.8697L219.347 27.1895Z" fill="#3C302F"/>
<path d="M181.164 11.7617H183.914V12.5255L183.761 12.22H181.317L181.164 11.7617Z" fill="#3F3231"/>
<path d="M252.496 53.0039H256.926V53.1567L253.565 53.4622L252.496 53.3094V53.0039Z" fill="#322626"/>
<path d="M138.695 19.8574L139.612 20.0102L140.223 20.6212L139.765 20.9267L138.848 21.0794L138.695 19.8574Z" fill="#392D2C"/>
<path d="M248.984 69.3477L249.137 69.6532H251.581L251.428 70.1114H249.901L249.595 70.2641L248.984 69.8059V69.3477Z" fill="#392D2C"/>
<path d="M234.774 57.7383H236.301L236.149 58.3493L234.774 58.6548L234.621 58.0438L234.774 57.7383Z" fill="#3E3130"/>
<path d="M234.93 64.459L235.999 64.6117L236.458 65.07L236.305 65.3755H235.083L234.777 65.2227L234.93 64.459Z" fill="#3D3130"/>
<path d="M97.457 42.1582H99.7483L99.5955 42.6164L97.9153 42.7692L97.457 42.9219V42.1582Z" fill="#332827"/>
<path d="M174.44 68.8887H174.593V70.2634H170.469V69.9579H174.135L174.44 68.8887Z" fill="#3B2E2D"/>
<path d="M81.2621 65.6816H82.1786L82.6369 66.1399L82.4841 66.4454L81.1094 66.5981V65.8344L81.2621 65.6816Z" fill="#4F403D"/>
<path d="M186.661 28.5645L187.12 29.0227L187.425 28.5645V29.7864H186.203L186.509 28.7172L186.661 28.5645Z" fill="#3B2F2E"/>
<path d="M263.035 20.6211L263.646 20.9266L263.799 21.9958H264.104L264.257 23.0651H263.952L263.035 20.9266V20.6211Z" fill="#312625"/>
<path d="M195.213 69.1953L196.741 69.3481L196.283 69.8063L195.519 69.9591H194.297L194.908 69.3481L195.213 69.1953Z" fill="#392D2C"/>
<path d="M188.188 23.0645H188.494L188.647 23.9809L188.952 24.1337L188.647 24.4392H187.883L188.036 23.2172L188.188 23.0645Z" fill="#392D2C"/>
<path d="M222.251 12.5254L222.404 12.9836H222.709V14.0529L222.404 14.3584L221.945 13.9001L222.098 12.6781L222.251 12.5254Z" fill="#2A1F1F"/>
<path d="M175.51 29.1758L175.815 29.7868H173.371L173.524 29.4813L174.44 29.3285H175.357L175.51 29.1758Z" fill="#352928"/>
<path d="M223.319 11.6094H223.777V12.2204L223.166 12.5259L222.861 13.4424L222.708 12.9841H222.402L222.555 12.2204L223.013 12.3731L223.319 11.6094Z" fill="#392D2C"/>
<path d="M289.922 69.6543L290.533 69.807L290.991 69.9598L293.435 70.1125V70.2653H289.922V69.6543Z" fill="#392D2C"/>
<path d="M183.607 28.1055H183.76V29.7857H181.621L181.927 29.4802H183.454L183.607 28.1055Z" fill="#362A2A"/>
<path d="M173.371 0H175.815L175.662 0.305497L174.593 0.458246L173.829 0.610994L173.371 0.458246V0Z" fill="#2B2020"/>
<path d="M257.995 52.8516H258.759L258.606 54.0736L257.842 54.2263L256.926 54.0736V53.9208L258.148 53.7681L258.301 53.1571L257.842 53.0043L257.995 52.8516Z" fill="#3C302F"/>
<path d="M169.855 67.668H170.925L170.466 68.1262L170.161 69.501H170.008L169.855 68.7372V67.668Z" fill="#382C2B"/>
<path d="M133.199 28.5645H133.658V29.4809L132.894 29.3282V29.0227L131.672 28.87V28.7172L133.199 28.5645Z" fill="#2C2121"/>
<path d="M137.172 68.7363H138.394L138.699 69.0418L138.241 69.5001L137.477 69.3473L137.172 68.7363Z" fill="#3E312F"/>
<path d="M229.124 28.4121H229.277V29.6341L229.124 29.7868H228.055L228.207 29.1759L228.818 29.3286L229.124 28.4121Z" fill="#3D3130"/>
<path d="M221.337 68.125H221.643V68.4305H221.948L221.643 69.0415L221.032 69.1942L220.879 68.736L221.337 68.125Z" fill="#3B2F2E"/>
<path d="M254.938 9.31836H257.229V9.47111L256.159 9.62386L256.007 9.77661H254.938V9.31836Z" fill="#483936"/>
<path d="M98.5238 0H99.7458V1.22199L99.5931 0.610994L98.3711 0.458246L98.5238 0Z" fill="#2A1F1E"/>
<path d="M214.154 11.457H215.376L214.765 11.9153L213.391 12.2208L213.543 11.7625L214.154 11.457Z" fill="#3A2E2D"/>
<path d="M284.875 16.4961L285.181 16.9543V17.4126L285.486 17.5653L285.181 18.3291L284.723 17.7181L284.875 16.4961Z" fill="#4A3A37"/>
</svg>
