<svg width="136" height="120" viewBox="0 0 136 120" fill="none" xmlns="http://www.w3.org/2000/svg">
<path d="M12.5779 92.3794H15.4675L17.2522 92.6344L18.7819 93.0593L20.4817 93.8242L21.8414 94.589L23.2012 95.6089L24.561 96.8836L25.4958 97.9885L26.5157 99.6032L27.1956 100.963L27.7905 102.748L28.0454 104.107L28.1304 104.702V107.337L27.8755 109.037L27.3655 110.821L26.6007 112.606L25.7508 113.966L25.0709 114.816L24.306 115.665L23.1162 116.855L21.4165 118.045L20.0567 118.725L18.7819 119.235L17.3372 119.66L15.8074 120H0V105.127L0.254958 103.598L0.679889 101.813L1.18981 100.538L2.12465 98.7533L3.14449 97.3936L3.90936 96.5437L5.09917 95.4389L6.54393 94.4191L7.73374 93.7392L9.00853 93.2293L10.2833 92.8043L11.3032 92.5494L12.5779 92.3794Z" fill="#635E5C"/>
<path d="M34.0799 92.8044H36.7145L38.5841 92.8894L39.689 95.9489L41.3887 100.708L42.4935 103.768L44.0233 108.017L45.0431 110.906L45.383 111.841V112.096H45.553L45.638 111.586L46.7428 108.442L47.6777 105.892L49.2074 101.643L50.6522 97.5636L52.0969 93.5693L52.3519 92.8894H59.4058L59.4907 92.9744V118.045L59.4058 119.405L59.0658 119.49H54.2216L54.1366 119.405V117.025L54.3066 100.708L54.1366 100.623L53.9666 101.388L53.0318 104.108L52.2669 106.147L50.8222 110.227L49.2924 114.476L47.7626 118.81L47.5077 119.405L46.7428 119.49H43.5133L43.3434 119.405L42.2386 116.261L40.7088 112.011L37.9043 104.193L36.8844 101.388L36.6295 100.793V100.538L36.5445 100.623L36.6295 101.473L36.7145 108.782V119.49H31.7003L31.4453 119.405V92.8894L34.0799 92.8044Z" fill="#635F5D"/>
<path d="M94.6776 92.3794H97.9921L100.032 92.7193L101.816 93.3142L103.516 94.1641L104.536 94.844L105.641 95.7788L106.406 96.5437L107.256 97.6485L108.19 99.1783L108.785 100.368V100.623H102.326L101.901 100.113L100.967 99.3482L100.032 98.7533L98.9269 98.2434L97.5671 97.9035L95.6974 97.8185L94.0827 97.9885L92.8929 98.3284L91.6181 99.0083L90.5983 99.7732L89.4935 100.878L88.7286 101.983L88.2187 103.088L87.8787 104.277L87.7087 105.637V106.997L88.0487 108.697L88.5586 109.971L89.0685 110.906L89.8334 111.841L90.7682 112.776L91.9581 113.541L93.3178 114.136L94.7626 114.476L95.4425 114.561H96.6323L97.9921 114.391L99.5218 113.881L100.882 113.116L101.731 112.436L102.496 111.671L103.346 110.396L103.601 109.886L92.8929 109.801V105.297H110.06V107.507L109.72 109.632L109.295 110.991L108.615 112.521L107.85 113.796L107.001 114.901L106.236 115.75L105.216 116.77L103.941 117.705L102.751 118.385L101.731 118.895L99.6918 119.575L98.332 119.915L97.7371 120H94.7626L92.9779 119.745L91.6181 119.405L89.8334 118.725L88.4736 117.96L87.2838 117.11L86.094 116.09L84.9042 114.816L83.8844 113.371L83.2045 112.096L82.4396 110.056L82.0147 108.102L81.9297 107.507V104.702L82.2696 102.833L82.7795 101.303L83.7144 99.3482L84.3943 98.3284L85.0742 97.4785L85.839 96.6287L86.8589 95.6089L88.3886 94.504L89.8334 93.6542L91.6181 92.9743L92.9779 92.6344L94.6776 92.3794Z" fill="#635E5C"/>
<path d="M120.171 92.8894H124.845L125.27 93.8242L126.375 96.7138L127.565 99.6883L128.925 103.173L132.494 112.266L134.789 118.13L135.214 119.235L135.299 119.405L134.789 119.49H130.284L129.52 119.405L129.095 118.47L127.735 114.901L127.48 114.221V113.966H117.367L116.942 114.986L116.007 117.365L115.242 119.405L115.072 119.49H110.313L109.633 119.405L110.483 117.195L111.503 114.731L112.777 111.416L113.797 108.952L114.902 106.147L118.471 97.2237L119.746 93.9942L120.171 92.8894Z" fill="#635E5C"/>
<path d="M63.9922 92.8894H78.6948V97.5636L76.9101 97.6486H69.2613L69.3463 103.598H78.6098L78.6948 103.683V108.272H69.2613V114.731H75.8053L78.6948 114.816V119.405L78.6098 119.49H64.4171L63.9922 119.405V92.8894Z" fill="#635E5C"/>
<path d="M13.0891 97.8186H15.3837L16.9135 98.1585L17.9333 98.5835L18.9531 99.1784L19.803 99.8583L20.8228 100.878L21.5877 101.983L22.0976 103.173L22.4376 104.363L22.5226 105.042V106.912L22.3526 108.102L22.0126 109.207L21.5877 110.142L21.0778 111.076L20.058 112.266L19.0381 113.116L17.6784 113.881L16.5735 114.306L15.2987 114.561H13.0891L11.8993 114.306L10.6245 113.796L9.51969 113.201L8.66983 112.521L8.41487 112.351V112.181L8.15991 112.096L7.39504 111.161L6.63016 109.972L6.20523 109.037L5.86528 107.847L5.69531 106.827V105.297L5.86528 104.023L6.20523 103.003L6.88512 101.643L7.64999 100.708L8.75481 99.6033L10.0296 98.7534L11.3894 98.1585L13.0891 97.8186Z" fill="#F5F8F9"/>
<path d="M67.0547 0H69.5193L70.6241 1.35977L72.8337 4.41926L73.9386 5.86402L75.0434 7.39376L76.0632 8.75353L76.9131 9.94333L78.0179 11.4731L79.2077 13.0028L80.2275 14.4476L81.4173 16.0623L82.3522 17.3371L83.457 18.8668L84.3069 19.9717L85.4117 21.5014L87.1964 23.881L87.7063 24.6459L88.5562 25.7507L89.661 27.2804L90.5958 28.4702L91.7007 30L92.6355 31.2748L93.8253 32.8895L94.5902 33.9943L96.6299 36.7138L97.4797 37.9036L101.049 42.7478L101.899 43.8526L103.429 46.1473L103.514 46.5722L103.089 48.7818H102.749L101.899 47.4221L99.5194 44.1926L98.8395 43.2577L97.9896 42.1529L96.7148 40.4532L96.035 39.4334L94.9301 37.9036L93.9103 36.6289L92.8055 35.0991L91.8706 33.8243L91.1058 32.8045L90.2559 31.6147L89.1511 30.085L88.3012 28.9801L87.6213 28.0453L86.4315 26.4306L85.4967 25.2408L84.8168 24.2209L84.0519 23.2011L82.9471 21.6714L81.6723 19.9717L80.4825 18.3569L79.5476 17.0821L78.6978 15.8923L78.0179 15.0425L76.9981 13.5977L75.9782 12.2379L74.9584 10.7932L73.8536 9.43342L73.1737 8.41359L72.2388 7.1388L70.4541 4.7592L69.4343 3.31444L68.2445 1.69972L67.3946 0.5949L67.0547 0.169972V0Z" fill="#3FBCF8"/>
<path d="M29.1514 36.0339L29.4064 36.1189L30.5112 37.7337L33.3157 41.473L34.2506 42.7478L35.1004 43.9376L35.8653 44.9574L37.0551 46.5722L38.2449 48.2719L39.0098 49.2917L40.1996 50.8215L41.3044 52.3512L43.684 55.5807L44.7888 57.1104L45.6387 58.2152L46.6585 59.66L47.5084 60.7648L48.6132 62.2945L49.4631 63.3993L50.3129 64.5891L51.3328 66.0339L53.0325 68.2435L54.2223 69.9433L55.3271 71.473L56.347 72.8328L57.5368 74.4475L58.3016 75.5523L59.4065 76.9971L60.4263 78.3568L60.8512 78.9517V82.2662L60.5113 82.0962L59.5764 80.7364L57.1968 77.507L56.007 75.9772L55.2421 74.8724L54.5622 73.9376L52.1826 70.7081L51.1628 69.2634L49.803 67.4787L49.0381 66.4588L46.6585 63.2294L45.6387 61.7846L44.7888 60.6798L41.2194 55.8356L40.4545 54.8158L39.3497 53.2011L38.7548 52.4362L37.82 51.2464L36.5452 49.5467L35.4404 47.9319L34.2506 46.4022L33.1457 44.8725L32.1259 43.5127L31.1061 42.0679L29.8313 40.3682L29.1514 39.4334L29.0664 39.2634V37.0538L29.1514 36.0339Z" fill="#3FBCF8"/>
<path d="M29.1523 43.1726L29.4923 43.3426L31.022 45.3822L31.6169 46.2321L32.8067 47.8468L33.8266 49.1216L34.7614 50.4814L35.6963 51.7562L36.8861 53.3709L38.2459 55.1556L39.2657 56.6004L40.0306 57.6202L41.1354 59.1499L42.3252 60.7647L43.26 61.9545L44.2799 63.3142L45.6397 65.2689L46.4895 66.4587L47.6793 67.9884L48.5292 69.1782L49.634 70.708L50.9088 72.4077L54.4782 77.2519L55.583 78.7816L56.4329 79.8865L57.6227 81.5862L58.8125 83.1159L60.0023 84.7306L60.5972 85.5805L60.8522 86.0904V87.1952L60.5122 87.5352H59.5774L59.1524 87.1102L58.4726 86.2604L57.7927 85.3255L56.9428 84.1357L55.753 82.521L54.4782 80.8213L53.2884 79.2066L52.2686 77.7618L51.5037 76.827L50.8238 75.8921L49.889 74.6173L48.7841 73.0876L47.5093 71.3879L46.5745 70.1131L45.3847 68.4984L44.2799 66.9686L43.345 65.6938L42.4952 64.504L41.3054 62.8893L40.2005 61.3596L39.4357 60.3397L38.8408 59.5749L38.0759 58.555L36.8861 56.9403L35.7813 55.4106L35.1014 54.4757L34.0815 53.1159L33.4017 52.1811L32.6368 51.1613L31.447 49.5465L30.4271 48.1868L29.9172 47.4219L29.5773 46.3171L29.3223 44.1075L29.1523 43.1726Z" fill="#3FBCF8"/>
<path d="M72.3242 0.339844L73.429 0.42483L74.0239 0.509815L74.8738 0.594801L75.3837 0.934744L76.1486 1.86959L78.5282 5.09905L79.633 6.62879L80.3129 7.56363L81.1628 8.75343L82.0976 9.94323L82.9475 11.133L84.0523 12.6628L85.0721 14.1075L85.922 15.2124L86.8568 16.4022L87.9617 17.9319L88.9815 19.3767L90.1713 20.9064L91.1062 22.1812L92.041 23.541L93.2308 25.0707L94.3356 26.6004L95.2705 27.8752L96.1203 29.065L97.0552 30.2548L98.16 31.7846L99.2648 33.3993L100.455 34.929L101.814 36.7137L102.834 38.1585L103.939 39.6882V42.3228L103.854 42.9177L103.429 42.4928L101.644 40.1132L100.285 38.3285L99.6048 37.3936L98.415 35.7789L97.5651 34.5891L96.5453 33.1443L95.3555 31.5296L93.9957 29.7449L92.296 27.3653L91.1062 25.7506L90.1713 24.5608L89.3214 23.371L88.2166 21.8412L85.667 18.4418L84.8172 17.252L83.7973 15.8073L82.7775 14.4475L81.5877 12.8327L80.5679 11.473L79.3781 9.85825L78.2732 8.41349L76.5735 6.03389L75.2137 4.24919L74.1089 2.71944L73.0891 1.27469L72.3242 0.42483V0.339844Z" fill="#3FBCF8"/>
<path d="M29.9132 30.1699L30.1682 30.2549L32.0379 32.8045L32.8877 33.9943L33.9076 35.3541L35.0124 36.7988L36.2022 38.4985L37.477 40.1982L38.4968 41.643L39.6866 43.2577L40.5365 44.3625L41.8113 46.0623L44.0209 49.1217L45.1257 50.5665L45.8056 51.5013L46.9104 53.0311L47.7603 54.3059L48.6951 56.0056L49.2051 57.2804L50.0549 58.8951L51.1597 60.9348L51.8396 61.9546L52.6895 63.0594L53.3694 63.9093L54.1343 64.7591L54.7292 65.439L55.494 66.2889L56.2589 67.0537L57.1938 67.8186L58.6385 69.1784L59.4884 70.1132L60.4232 71.303L60.8482 71.8979V75.3823L60.4232 74.9574L59.3184 73.4277L58.6385 72.4928L57.7887 71.388L55.2391 67.8186L54.3892 66.7138L53.2844 65.1841L52.0946 63.5693L50.3099 61.1897L49.46 59.9999L47.0804 56.7705L46.0606 55.4107L44.9558 53.9659L44.0209 52.6062L42.6611 50.8215L41.6413 49.3767L40.5365 47.9319L39.5166 46.5722L38.8368 45.6373L37.6469 44.0226L36.5421 42.4929L35.5223 41.0481L34.6724 39.9433L33.5676 38.4135L31.5279 35.694L30.1682 33.9093L29.5733 33.0594L29.4883 32.7195L29.9132 30.1699Z" fill="#3FBCF8"/>
<path d="M78.2734 1.44458L78.8683 1.52957L81.078 2.20945L81.7579 2.63438L82.3528 3.31427L83.4576 4.84401L85.3273 7.39358L86.5171 9.00831L87.7069 10.5381L88.6417 11.8978L89.6616 13.2576L90.8514 14.8723L93.061 17.9318L93.9109 19.0366L95.0157 20.6514L96.0355 21.9261L96.8004 22.946L98.1602 24.7307L99.095 26.0904L100.2 27.6202L102.579 30.8497L103.514 32.2094L103.684 32.5494L103.854 34.929V35.9488L103.429 35.5239L102.579 34.3341L101.9 33.4842L101.05 32.2944L100.37 31.3596L99.605 30.3397L98.5001 28.895L97.5653 27.6202L96.4605 26.0904L95.4406 24.7307L94.2508 23.1159L93.231 21.6712L92.1262 20.1414L91.0214 18.6967L90.0015 17.2519L89.2366 16.2321L88.1318 14.7873L87.197 13.5975L86.5171 12.5777L85.6672 11.3879L84.9873 10.4531L84.2225 9.43324L83.3726 8.32843L82.5227 7.13863L80.653 4.58905L78.8683 2.20945L78.2734 1.52957V1.44458Z" fill="#3FBCF8"/>
<path d="M31.3594 53.031L31.7843 53.286L33.2291 55.4106L34.4189 56.9404L36.6285 59.9998L37.6483 61.3596L38.4982 62.5494L39.518 63.9092L41.8977 67.1386L42.8325 68.4134L43.8523 69.7732L44.7872 71.048L45.722 72.4078L46.7419 73.7675L47.9317 75.2973L49.1215 76.997L50.4813 78.7817L52.8609 82.0111L53.7107 83.2009L54.7306 84.5607L55.9204 86.1754L56.7702 87.2803L56.8552 87.5352L56.4303 87.6202L54.3056 87.5352L51.926 84.3058L51.0762 83.2009L48.8665 80.1415L48.0167 79.0366L45.637 75.8072L44.5322 74.2774L43.6824 73.1726L43.0025 72.2378L42.4076 71.4729L41.7277 70.5381L41.6427 70.2831L42.8325 70.1981L42.5775 69.7732L41.7277 69.0933L40.6229 67.9885L40.1129 67.5636L39.3481 66.6287L38.2433 65.3539L37.2234 64.0792L36.0336 62.3794L34.9288 60.6797L33.569 58.2151L32.3792 55.6656L31.7843 54.2208L31.3594 53.3709V53.031Z" fill="#3FBCF8"/>
<path d="M83.3714 60.8499L83.7113 60.9348L84.4762 62.2096L85.4111 63.3994L86.6859 65.0991L88.8955 68.1586L90.0853 69.7734L91.1901 71.2181L92.04 72.4079L93.2298 74.0226L94.3346 75.5524L96.6292 78.6119L97.7341 80.1416L99.7737 82.8612L100.794 84.1359L101.898 85.7507L102.918 87.1954L103.173 87.4504V87.6204L100.709 87.5354L100.114 86.9405L99.3488 85.9206L98.244 84.3909L97.3091 83.1161L96.7992 82.4362L94.4196 79.2068L93.6547 78.1869L92.5499 76.5722L91.3601 75.0425L90.3403 73.6827L88.4706 71.1331L84.9011 66.2889L83.8813 64.8442L82.6915 63.3144L82.6065 63.0595H82.4365L82.3516 62.7195L83.2864 61.1048L83.3714 60.8499Z" fill="#3FBCF8"/>
<path d="M84.6484 27.7053H84.8184L85.9232 29.1501L87.028 30.6798L88.3028 32.3795L89.3227 33.8243L90.0876 34.8441L91.2774 36.4589L92.3822 37.9036L93.232 39.0934L94.4218 40.6232L95.1017 41.643L95.9516 42.8328L98.2462 45.8923L99.351 47.422L100.541 49.0367L101.646 50.3965L102.411 51.6713L102.241 52.6061L101.816 54.0509L101.476 53.9659L100.796 52.9461L99.606 51.3314L98.6712 50.0566L98.1612 49.3767L97.3114 48.1869L96.2066 46.8271L95.1017 45.2124L94.3369 44.1926L93.317 42.7478L92.5521 41.813L91.6173 40.4532L90.4275 38.8385L89.2377 37.3087L88.3878 36.1189L87.7079 35.1841L86.6881 33.7393L86.0932 31.6147L85.4983 29.66L85.0734 28.7252L84.6484 27.8753V27.7053Z" fill="#3FBCF8"/>
<path d="M81.2474 64.7593L81.5874 65.0992L82.1823 66.0341L83.0322 67.1389L83.882 68.3287L85.1568 70.0284L86.0067 71.2182L87.0265 72.578L87.8764 73.7678L89.2361 75.5525L90.341 77.0822L91.2758 78.357L92.1257 79.4618L93.3155 81.0765L94.4203 82.6063L95.4401 84.051L97.7348 87.1105L97.9047 87.5355L97.5648 87.6204L95.5251 87.5355L95.1002 87.1955L94.3353 86.0907L93.3155 84.6459L92.2107 83.1162L91.4458 82.0964L90.256 80.4816L88.8962 78.6969L87.7914 77.1672L86.6016 75.6375L85.7517 74.5326L84.7319 73.0879L83.797 71.7281L82.4373 69.9434L81.4174 68.4987L80.3126 67.0539L79.9727 66.544L80.1426 66.204L80.9925 65.0992L81.2474 64.7593Z" fill="#3FBCF8"/>
<path d="M31.3596 25.1558L31.6995 25.3257L32.5494 26.5155L33.7392 28.1303L34.759 29.49L35.7789 30.9348L36.9687 32.5495L37.9885 33.8243L38.8384 35.0141L39.9432 36.6288L40.878 37.8186L43.4276 41.2181L44.2775 42.4079L45.2973 43.9376L45.8072 44.9574L46.0622 47.0821L46.1472 47.507V48.5268L45.8072 48.1019L44.7874 46.7421L43.6826 45.1274L42.7477 43.9376L41.8979 42.8328L40.793 41.2181L39.9432 40.1133L39.2633 39.1784L38.4134 38.0736L37.5636 36.8838L36.8837 35.949L35.9488 34.6742L34.589 32.8895L33.5692 31.4447L31.7845 29.0651L31.1046 28.2152L30.6797 27.6203L30.7647 26.9405L31.1896 25.5807L31.3596 25.1558Z" fill="#3FBCF8"/>
<path d="M58.2148 40.4531H64.3338L66.4585 40.5381V46.0622L66.3735 46.1472L62.9741 46.4021L60.7644 46.8271L59.8296 47.082H59.4046L58.8947 45.3823L58.2998 42.4078L58.2148 41.6429V40.4531Z" fill="#A6A6A5"/>
<path d="M78.4418 68.2434L78.7818 68.4134L79.5466 69.4332L80.3965 70.623L81.5013 72.0678L82.2662 73.0876L83.201 74.3624L85.2407 77.0819L86.4305 78.7816L87.5353 80.3114L88.5552 81.5862L89.575 83.0309L90.4249 84.2207L92.1246 86.4304L92.7195 87.2802L92.6345 87.5352H90.5098L89.9149 87.0253L89.32 86.2604L88.4702 85.0706L87.8753 84.2207L86.7705 82.776L85.5806 81.1612L84.4758 79.6315L83.626 78.4417L82.2662 76.657L81.2464 75.2972L80.1415 73.7675L78.9517 72.1528L77.9319 70.793L77.252 69.8581L77.082 69.4332L77.8469 68.8383L78.4418 68.2434Z" fill="#3FBCF8"/>
<path d="M85.6641 4.33423L86.089 4.5042L88.0437 5.694L89.0635 6.37389L90.7632 7.90363L91.5281 8.83847L92.463 10.1133L93.3128 11.3031L94.1627 12.4079L95.3525 14.0226L96.4573 15.5523L97.0522 16.4022L97.9021 17.507L99.9417 20.2266L100.622 21.3314L101.302 22.9461L101.981 24.9858L102.491 26.9404L102.406 27.1954L101.811 26.3455L100.962 25.1557L100.112 24.0509L99.0919 22.6062L98.412 21.6713L97.2222 20.0566L95.8624 18.2719L94.7576 16.7421L93.7377 15.3824L92.6329 13.8526L91.6131 12.4929L90.5083 10.9631L89.7434 9.94329L88.5536 8.32856L87.7887 7.30873L86.8539 6.11893L86.174 5.18409L85.6641 4.58919V4.33423Z" fill="#3FBCF8"/>
<path d="M87.1953 38.1584L87.5353 38.3284L88.3851 39.5182L89.5749 41.048L90.4248 42.2378L91.5296 43.7675L92.7194 45.3822L93.8242 46.912L95.524 49.1216L96.3738 50.3114L97.3087 51.6712L98.3285 53.031L99.1784 54.1358L99.9432 55.2406L100.878 56.5154L100.963 57.1103L100.198 58.725H99.8582L99.0084 57.4502L97.7336 55.7505L96.7987 54.4757L95.7789 53.031L94.9291 51.9261L92.3795 48.5267L91.2746 46.997L90.4248 45.8072L89.6599 44.7873L88.81 43.6825L87.8752 42.4927L87.3653 41.7278L87.2803 38.9233L87.1953 38.1584Z" fill="#3FBCF8"/>
<path d="M70.5397 40.4531H76.0638L76.1488 40.7931L75.8088 43.2577L75.3839 45.2123L74.619 47.7619L74.364 47.8469L72.7493 47.252L70.5397 46.6571L68.585 46.2322L68.5 40.5381L70.5397 40.4531Z" fill="#A6A6A5"/>
<path d="M63.8247 0L64.4196 0.0849857L64.9295 0.679886L65.7794 1.7847L67.0542 3.48442L68.244 5.18413L69.6038 6.96883L70.6236 8.41359L71.7284 9.94333L72.5783 11.1331L73.5981 12.4079L74.363 13.4277L76.5726 16.4872L77.2525 17.3371L77.9324 18.2719L78.4423 18.8668L78.3574 19.1218L77.8474 18.8668L77.0826 18.3569L75.5528 17.5071L74.278 16.8272L73.4282 15.8073L72.3233 14.1926L71.3035 12.8328L70.1137 11.2181L69.0939 9.77336L68.244 8.66855L66.7143 6.62889L64.3346 3.39943L63.3148 2.03966L62.38 0.849857L62.125 0.509915V0.339943L63.8247 0Z" fill="#3FBCF8"/>
<path d="M59.4896 32.0396L62.3792 32.6345L64.4188 32.8894L66.4585 32.9744V38.2435L66.3735 38.3285H58.2148V37.3937L58.4698 35.609L59.0647 33.1444L59.4046 32.1245L59.4896 32.0396Z" fill="#A6A6A5"/>
<path d="M33.3167 20.7366L33.8266 21.1615L34.3365 21.9264L35.6113 23.6261L36.8011 25.2408L37.906 26.7706L39.0958 28.3853L39.9456 29.5751L40.9655 31.0198L41.8153 32.1247L42.6652 33.3145L43.77 34.7592L44.6199 35.949L45.3847 36.8839L45.6397 37.2238L45.5547 40.3683L45.3847 40.5383L44.025 38.6686L43.1751 37.5638L42.0703 35.949L40.8805 34.4193L39.6907 32.8045L38.8408 31.6997L38.1609 30.7649L37.0561 29.2351L34.6765 26.0057L33.8266 24.8159L33.1467 23.881L32.3819 22.8612L32.2969 22.4363L32.9768 21.2465L33.3167 20.7366Z" fill="#3FBCF8"/>
<path d="M38.2456 70.1133H38.9255L39.2655 70.5382L40.4553 72.1529L41.8151 73.9376L42.6649 75.1274L43.3448 76.0623L44.5346 77.677L45.4695 79.0368L46.8292 80.8215L47.6791 82.0113L48.8689 83.541L49.3788 84.3059L50.4837 85.8356L51.5035 87.1954L51.6735 87.6203H50.5686L49.1239 87.5354L48.7839 87.1104L48.0191 86.0056L46.6593 84.2209L45.7244 82.8611L44.9596 81.8413L42.5799 78.6119L41.4751 77.0821L40.2853 75.4674L39.0955 73.9376L37.9907 72.4079L36.8859 70.9631L36.4609 70.4532V70.2833L38.2456 70.1133Z" fill="#3FBCF8"/>
<path d="M10.9668 70.1982H13.1765L13.9414 71.0481L15.0462 72.5778L15.8111 73.6827L16.9159 75.0424L17.8507 76.4022L18.9555 77.847L19.9754 79.2917L21.0802 80.8215L22.1 82.1812L22.8649 83.1161L23.7148 84.3909L24.9046 85.9206L25.6694 86.9404L25.9244 87.3654V87.5353H23.4598L23.1199 87.1104L22.27 85.9206L21.4201 84.8158L20.2303 83.2011L18.8706 81.4164L17.1708 79.0368L16.066 77.507L14.2813 75.1274L11.9017 71.898L10.8819 70.5382L10.7969 70.2832L10.9668 70.1982Z" fill="#3FBCF8"/>
<path d="M0.510767 70.1982H2.80539L3.14534 70.3682L4.33514 71.9829L5.35498 73.4277L6.37481 74.7025L7.30966 76.0623L9.68927 79.2917L10.9641 80.9914L11.8139 82.1812L13.1737 83.9659L14.3635 85.5807L15.3833 87.0254L15.6383 87.3654V87.5353H13.1737L12.5788 86.7705L11.7289 85.5807L11.049 84.7308L10.1992 83.541L9.00938 81.9263L8.15952 80.8215L7.47963 79.8866L6.88473 79.0368L6.03487 77.847L4.93005 76.4022L3.91021 74.9574L3.06035 73.8526L0.765726 70.7931L0.425781 70.3682L0.510767 70.1982Z" fill="#3FBCF8"/>
<path d="M22.5219 70.1982H23.3718L24.0517 70.7931L24.6466 71.643L25.7514 73.1727L26.5163 74.1926L27.6211 75.6373L28.471 76.8271L29.4058 78.1019L30.5956 79.7166L31.3605 80.7365L32.1254 81.8413L34.505 85.0707L35.5248 86.4305L36.2897 87.3654L36.2047 87.6203H33.9101L33.4851 87.1954L32.2953 85.5807L30.9356 83.796L28.556 80.5665L27.5361 79.1217L26.5163 77.762L25.4115 76.2322L24.4766 74.9574L23.2868 73.3427L22.437 72.2379L21.4171 70.8781L20.9922 70.4532V70.2832L22.5219 70.1982Z" fill="#3FBBF7"/>
<path d="M5.60938 70.1982H8.07397L8.83885 71.1331L10.0287 72.7478L12.2383 75.8073L13.2581 77.1671L14.193 78.3569L15.3828 79.9716L16.4876 81.5013L18.8672 84.7308L19.887 86.1756L20.7369 87.3654V87.5353L20.5669 87.6203H18.6972L18.1873 87.4503L17.0825 85.8356L16.4026 84.9858L15.6377 83.8809L14.4479 82.2662L13.3431 80.8215L12.2383 79.2917L11.3034 78.0169L10.2836 76.7421L8.24395 73.8526L7.39408 72.6628L6.37425 71.3031L5.60938 70.3682V70.1982Z" fill="#3FBCF8"/>
<path d="M31.2734 70.1982H33.993L34.5879 71.1331L35.6077 72.5778L37.9024 75.6373L40.112 78.6968L41.3018 80.3115L43.5114 83.371L44.5313 84.7308L45.3811 85.8356L46.316 87.1104L46.486 87.5353H44.1063L43.3415 86.6855L42.3216 85.2407L41.1318 83.541L40.197 82.3512L39.1771 80.9914L38.3273 79.8866L37.5624 78.7818L36.7126 77.677L35.5227 75.9773L34.5029 74.6175L33.653 73.4277L32.5482 71.898L31.7834 70.9631L31.2734 70.3682V70.1982Z" fill="#3FBBF7"/>
<path d="M28.0455 70.1982L28.6404 70.2832L29.0653 70.7082L29.7452 71.558L30.5101 72.6628L31.6999 74.2776L33.9945 77.337L34.8444 78.5268L35.9492 80.0566L36.969 81.4164L37.8189 82.6062L39.0937 84.3059L40.1135 85.7506L40.9634 86.8554L41.3033 87.3654V87.5353L40.3685 87.6203H39.0087L38.3288 86.8554L37.139 85.2407L36.1192 83.796L34.3345 81.4164L30.765 76.5722L29.9152 75.3824L28.7254 73.7676L27.9605 72.7478L27.2806 71.813L26.4307 70.7082L26.1758 70.4532V70.2832L28.0455 70.1982Z" fill="#3FBCF8"/>
<path d="M15.8906 70.1982H18.2702L18.7802 70.6232L19.715 71.9829L20.8198 73.5127L22.0096 75.0424L22.6895 75.9773L23.7093 77.337L24.7292 78.7818L26.089 80.5665L27.1088 82.0113L27.8737 83.0311L28.9785 84.5608L29.8284 85.6656L30.8482 87.0254L31.1881 87.4503V87.6203H29.8284L28.7235 87.5353L28.1286 86.9404L27.2788 85.7506L26.7689 85.0707L25.834 83.796L24.7292 82.2662L22.4346 79.2067L21.5847 78.1019L20.4799 76.5722L19.63 75.3824L18.5252 73.8526L17.8453 72.9178L16.6555 71.3031L15.8906 70.3682V70.1982Z" fill="#3FBCF8"/>
<path d="M74.2761 31.3596L74.616 31.4446L74.956 32.3794L75.5509 34.5891L76.0608 37.4786V38.3285H68.582V32.8894L70.7067 32.4644L72.3214 32.0395L74.2761 31.3596Z" fill="#A6A6A5"/>
<path d="M95.6081 70.6233L96.033 70.7933L96.8829 72.068L97.9027 73.3428L98.9225 74.7876L99.6024 75.7224L100.622 77.0822L101.472 78.272L102.577 79.7168L104.787 82.7763L105.806 84.136L106.996 85.6658L107.676 86.6006L108.186 87.3655V87.5355H105.721L105.042 86.6856L104.277 85.5808L103.087 83.9661L101.982 82.5213L101.132 81.4165L100.197 80.1417L99.2625 78.7819L98.1577 77.3372L95.778 74.1077L94.6732 72.578L93.5684 71.1332L93.3984 70.7083L95.6081 70.6233Z" fill="#3FBCF8"/>
<path d="M108.781 70.7083H111.331L111.671 71.0482L112.351 72.068L113.455 73.5978L114.305 74.7026L115.325 76.0624L116.345 77.5071L117.45 79.0369L118.555 80.4816L120.934 83.7111L121.784 84.9009L122.719 86.0907L123.569 87.1955L123.739 87.5354L123.654 87.6204H122.464L121.104 87.5354L120.254 86.3456L119.065 84.8159L118.3 83.7961L117.195 82.1813L116.09 80.6516L115.325 79.6318L114.475 78.442L113.116 76.6573L110.736 73.4278L109.376 71.6431L108.781 70.8782V70.7083Z" fill="#3FBCF8"/>
<path d="M98.585 70.7083H100.965L101.39 71.1332L103.429 73.8527L104.789 75.8074L105.894 77.2522L106.914 78.6119L108.018 80.1417L109.038 81.5864L109.888 82.6912L110.653 83.7111L112.013 85.4958L112.693 86.4306L113.288 87.3655V87.5354L113.118 87.6204H111.163L110.568 87.2805L109.718 86.0907L108.868 84.8159L107.848 83.3711L106.829 82.0114L106.149 81.0765L105.044 79.6318L103.854 78.017L102.749 76.5723L101.899 75.3825L100.88 74.0227L99.6898 72.408L98.67 71.0482L98.5 70.7932L98.585 70.7083Z" fill="#3FBCF8"/>
<path d="M104.875 70.6233H106.065L106.66 71.3032L108.87 74.3627L109.72 75.4675L111.929 78.527L112.694 79.5468L113.884 81.0765L115.074 82.6913L116.094 84.136L117.113 85.4958L117.963 86.6006L118.473 87.3655V87.5355H116.094L115.669 87.1105L114.819 85.9207L114.224 85.1559L113.119 83.6261L112.609 82.8612L111.249 81.0765L110.4 79.9717L109.55 78.7819L108.36 77.1672L107.51 75.9774L106.66 74.8726L105.47 73.2578L104.45 71.9831L103.856 71.2182L103.516 70.7933V70.7083L104.875 70.6233Z" fill="#3FBCF8"/>
<path d="M119.747 70.7083H121.532L121.957 71.1332L122.892 72.408L124.082 74.0227L127.396 78.442L128.586 80.0567L129.181 80.9065L130.201 82.3513L131.305 83.7961L132.41 85.4108L133.345 86.6856L133.77 87.3655V87.5354H131.475L130.88 86.7706L129.691 85.1558L128.671 83.7961L127.481 82.1813L126.461 80.8216L125.611 79.6318L124.506 78.187L123.827 77.2522L122.977 76.0624L120.682 73.0029L119.832 71.8131L119.152 70.8782V70.7932L119.747 70.7083Z" fill="#3FBBF7"/>
<path d="M113.883 70.7083H116.517L117.282 71.7281L118.302 73.1728L119.152 74.3626L120.342 75.9774L121.192 77.0822L122.211 78.442L123.401 80.0567L124.251 81.2465L125.271 82.6912L126.376 84.136L127.226 85.3258L128.755 87.3655L128.84 87.5354L128.5 87.6204H126.971L126.291 87.5354L125.526 86.6006L124.846 85.5808L123.826 84.221L122.806 82.7762L121.022 80.3966L117.452 75.5524L116.687 74.5326L115.837 73.3428L114.818 71.983L113.883 70.8782V70.7083Z" fill="#3FBCF8"/>
<path d="M0 107.592H0.0849861L0.594903 109.887L1.18981 111.671L2.03967 113.286L2.80454 114.391L3.56942 115.326L4.41928 116.261L5.35413 117.025L6.54393 117.875L7.90371 118.64L9.68842 119.32L11.4731 119.745L12.323 119.915V120H0V107.592Z" fill="#F5F8F9"/>
<path d="M75.2131 70.8782L75.6381 70.9632L76.6579 72.4929L77.5078 73.5977L78.6976 75.2124L79.7174 76.6572L81.0772 78.4419L82.267 80.0566L83.2018 81.4164L85.2415 84.136L86.3463 85.6657L87.6211 87.3654V87.6204H86.6863L85.1565 87.5354L84.4766 86.6855L83.5418 85.3258L82.182 83.5411L80.9922 81.9263L80.2273 80.9065L78.8675 79.1218L78.0177 77.932L76.8279 76.4022L75.978 75.1275L74.8732 73.5977L74.4483 72.9178L74.3633 72.5779V71.3881L74.6182 71.1331L75.2131 70.8782Z" fill="#3FBCF8"/>
<path d="M35.4408 16.6572L35.7807 16.8272L36.8855 18.4419L38.0753 20.0567L39.0952 21.4164L40.285 23.0312L41.3048 24.3909L43.6844 27.6204L44.7042 29.0651L45.5541 30.2549L46.5739 31.5297L46.6589 32.2096L46.319 33.4844L46.149 34.4192L45.8941 34.3343L43.8544 31.4447L43.0045 30.2549L42.1547 29.1501L40.8799 27.4504L39.86 26.0057L37.4804 22.7762L36.3756 21.2465L35.4408 20.0567L34.5909 18.8669L34.3359 18.5269L34.5059 18.187L35.0158 17.4221L35.4408 16.6572Z" fill="#3FBCF8"/>
<path d="M87.2784 45.1274L87.5334 45.2124L88.8931 47.2521L89.743 48.3569L90.5929 49.5467L91.4427 50.6515L92.5475 52.1813L93.7373 53.711L94.4172 54.7308L95.2671 55.8356L96.2869 57.1954L97.4767 58.8951L98.3266 59.9999L99.0915 60.8498L99.1765 61.1897L98.4966 62.5495L98.2416 63.1444L97.9017 62.9744L97.2218 62.0396L96.3719 60.9348L95.2671 59.3201L94.3322 58.1303L93.6524 57.1954L92.8025 56.0056L91.6127 54.3909L90.5079 52.8611L89.573 51.6713L88.2982 49.9716L87.1934 48.5269L87.0234 48.2719V47.1671L87.2784 45.1274Z" fill="#3FBCF8"/>
<path d="M59.4019 0.679932H59.8268L60.7617 2.0397L61.7815 3.31449L62.8863 4.84423L63.9062 6.28899L64.756 7.39381L66.1158 9.17851L67.1356 10.6233L68.1555 11.983L69.0053 13.1728L69.6852 14.1077L70.7051 15.4675L70.79 15.9774L69.3453 15.7224L68.3254 15.5524L67.9005 15.2125L66.7957 13.6828L65.9458 12.5779L65.011 11.3032L64.2461 10.2833L63.3962 9.09352L62.2064 7.47879L60.8467 5.69409L60.2518 4.84423L59.4019 3.65443L58.1271 1.95472L57.6172 1.18985L57.9571 1.01987L59.4019 0.679932Z" fill="#3FBCF8"/>
<path d="M37.9017 13.2578L38.3266 13.5128L38.9215 14.1927L39.9414 15.6374L40.7912 16.7422L41.6411 17.932L42.8309 19.5468L43.9357 20.9915L44.9555 22.4363L45.6354 23.3711L46.9952 25.1558L48.015 26.5156L48.44 27.1105L47.7601 28.7252L47.5901 29.2351L47.2502 29.0652L46.4003 27.9603L45.5504 26.7705L44.3606 25.1558L43.5108 24.051L42.8309 23.0312L41.4711 21.2465L40.2813 19.6317L39.5164 18.6119L38.1567 16.7422L36.9668 15.2125L36.7969 14.9575L36.8819 14.6176L37.5618 13.6827L37.9017 13.2578Z" fill="#3FBCF8"/>
<path d="M86.6018 51.0764L86.8567 51.3314L88.2165 53.286L89.4063 54.9008L90.7661 56.6855L91.361 57.5353L92.4658 59.0651L93.6556 60.5948L94.5055 61.7846L95.6953 63.3993L96.5451 64.5042L96.9701 65.1841L96.8851 65.609L96.0352 66.7988L95.7803 66.9688L95.1004 66.2039L93.9106 64.5891L92.5508 62.7195L91.361 61.1047L90.3412 59.66L88.3015 56.9404L87.7066 56.1756L86.9417 55.1557L86.2618 54.2209L85.9219 53.796L86.0069 53.1161L86.5168 51.1614L86.6018 51.0764Z" fill="#3FBCF8"/>
<path d="M55.2408 1.78467L55.5807 1.86965L56.2606 2.8045L57.3654 4.33424L58.5552 5.94897L59.3201 7.05378L61.6997 10.2832L62.8046 11.728L63.9944 13.3427L65.0992 14.8725L65.4391 15.4674V15.6373L63.8244 15.8073H63.3145L62.8895 15.3824L61.7847 13.9376L60.9349 12.7478L59.83 11.2181L58.9802 10.1133L57.8754 8.58353L57.1105 7.5637L56.1756 6.28891L55.3258 5.1841L54.221 3.65435L53.5411 2.71951L53.3711 2.37957L54.136 2.03963L55.2408 1.78467Z" fill="#3FBCF8"/>
<path d="M40.9652 10.1133L41.3052 10.2833L42.41 11.983L43.4298 13.3427L45.4695 16.2323L46.5743 17.592L47.5092 18.8668L48.359 20.0566L49.4639 21.5864L50.3137 22.6912L50.6537 23.2011L50.5687 23.541L49.5488 25.0708L49.2089 24.7308L48.699 23.966L47.8491 22.9461L46.9993 21.7563L45.8095 20.1416L44.7046 18.6119L43.4298 16.9121L42.325 15.3824L41.4752 14.2776L40.2854 12.6629L39.6055 11.728V11.3031L40.7103 10.2833L40.9652 10.1133Z" fill="#3FBBF7"/>
<path d="M51.2456 3.22949L51.5856 3.39946L52.6054 4.84422L54.985 8.07368L56.0049 9.43345L56.8547 10.6233L59.2343 13.8527L60.3392 15.2975L60.9341 16.2323L60.8491 16.4023L59.9992 16.6572L59.2343 16.9972L58.8094 16.9122L57.9596 15.6374L57.0247 14.4476L55.8349 12.8329L55.07 11.8131L53.8802 10.1983L52.8604 8.83855L51.9255 7.47878L50.7357 5.86405L49.8009 4.67425L49.4609 4.33431L49.5459 3.99436L50.9907 3.31448L51.2456 3.22949Z" fill="#3FBBF7"/>
<path d="M44.0219 7.39355L44.3619 7.47854L45.2117 8.75333L46.3166 10.2831L47.1664 11.4729L49.2061 14.1924L49.886 15.1273L50.9058 16.572L52.2656 18.3567L53.1155 19.6315L53.6254 20.2264L53.1155 20.8213L52.4356 21.4162L52.0956 21.5862L51.1608 20.3964L50.056 18.8666L49.2061 17.7618L48.0163 16.1471L47.0814 14.8723L45.9766 13.3426L45.1268 12.2377L43.767 10.453L42.9171 9.26324L42.4922 8.75333L42.8321 8.3284L43.767 7.64851L44.0219 7.39355Z" fill="#3FBCF8"/>
<path d="M78.527 40.4531H82.2664V41.303L82.0114 42.7477L81.5015 44.5324L80.8216 46.2322L79.8868 47.9319L79.0369 49.0367L78.1871 50.0565L77.5921 49.7166L76.4023 48.9517L76.5723 48.1868L77.3372 45.8072L77.8471 43.3426L78.1871 40.5381L78.527 40.4531Z" fill="#A6A6A5"/>
<path d="M47.4204 5.09912L47.7603 5.26909L48.4402 6.20394L49.8 7.98864L50.8198 9.51838L51.7547 10.7082L52.6045 11.813L53.7093 13.3427L54.7292 14.7875L55.579 15.8923L56.5989 17.1671L57.0238 17.932L56.1739 18.5269L55.2391 19.0368L54.6442 18.1869L53.7943 17.0821L52.6895 15.5524L51.6697 14.1076L49.2901 10.8782L48.3552 9.60337L47.5903 8.58354L46.7405 7.47872L45.8906 6.28892L45.9756 5.94898L47.1654 5.26909L47.4204 5.09912Z" fill="#3FBCF8"/>
<path d="M0 73.4275L0.424931 73.7674L2.12465 75.9771L4.50427 79.2065L5.5241 80.5663L6.28897 81.6711L6.62892 82.096L7.39379 83.1159L8.5836 84.7306L9.51845 86.0054L10.4533 87.3652V87.6201H8.75357L8.07368 87.5351L7.39379 86.6003L6.54393 85.5805L5.86404 84.6456L3.6544 81.5861L2.71956 80.3113L1.69972 78.9516L0.764875 77.7618L0.254958 77.1669V76.9969L0 76.9119V73.4275Z" fill="#3FBCF8"/>
<path d="M84.9836 56.2605L85.3236 56.4305L85.9185 57.3653L90.6777 63.8242L91.7825 65.354L92.7174 66.6288L93.9072 68.1585L94.3321 68.7534L94.2471 69.1783L93.2273 70.2831L93.1423 70.4531L92.8024 70.2831L90.5927 67.2237L89.4029 65.6089L88.723 64.6741L87.1933 62.6344L86.3434 61.5296L85.3236 60.0849L84.4737 58.98L84.2188 58.6401L84.3887 57.8752L84.8986 56.3455L84.9836 56.2605Z" fill="#3FBCF8"/>
<path d="M77.9291 29.2351L78.3541 29.3201L79.034 30.085L79.9688 31.4447L80.7337 32.8045L81.3286 34.0793L81.8385 35.779L82.2634 37.8187V38.3286H78.779L78.1841 38.2436L77.7592 35.2691L77.3342 33.2294L76.8243 31.4447L76.4844 30.5099L76.5694 30.17L77.9291 29.2351Z" fill="#A6A6A5"/>
<path d="M52.0117 40.4531H56.0061L56.0911 40.5381L56.346 42.9177L56.686 44.7874L57.3658 47.337L57.4508 48.0169L56.431 48.5268L55.5811 49.0367L55.2412 48.9517L54.6463 48.2718L53.9664 47.167L53.1165 45.5523L52.5216 43.9375L52.0967 42.1528L52.0117 41.5579V40.4531Z" fill="#A6A6A5"/>
<path d="M125.864 70.6233H126.459L126.884 70.8782L128.073 72.408L128.923 73.5978L130.028 75.1275L132.833 78.8669L133.683 80.0567L133.767 80.3967V82.0114L133.683 83.5411H133.513L132.408 81.9264L131.388 80.5666L130.368 79.1219L129.263 77.5921L127.224 74.8726L126.544 73.9377L125.354 72.323L124.504 71.2182L124.164 70.8782V70.7083L125.864 70.6233Z" fill="#3FBCF8"/>
<path d="M55.2412 30.085L55.7511 30.2549L57.4508 31.1898L57.2809 32.0396L56.686 34.2493L56.261 36.6289L56.0911 38.3286H52.2667L52.0117 38.2436L52.0967 37.3088L52.5216 35.3541L53.1165 33.7393L53.7964 32.2946L54.9012 30.5099L55.2412 30.085Z" fill="#A6A6A5"/>
<path d="M65.5249 48.2717H66.4598V54.1357L66.3748 54.7306H65.015L64.0802 54.3907L62.8054 53.1159L61.6156 51.5012L60.5958 49.7165L60.4258 49.3765V49.1216L61.1907 48.8666L63.4853 48.4417L65.5249 48.2717Z" fill="#A6A6A5"/>
<path d="M65.9499 24.3909H66.4598V29.49L66.3748 30.8498L66.2898 30.9348L64.93 30.8498L62.8904 30.5948L60.5958 30.0849L60.4258 29.9999L60.6807 29.2351L61.5306 27.8753L62.4654 26.5155L63.2303 25.5807L63.9102 24.8158L64.5901 24.5608L65.9499 24.3909Z" fill="#A6A6A5"/>
<path d="M122.383 100.708L122.638 100.878L123.488 103.258L124.592 106.147L125.612 108.782V108.952H119.238L119.323 108.357L120.938 104.193L122.043 101.388L122.383 100.708Z" fill="#F5F8F9"/>
<path d="M74.4483 76.5723L74.8732 76.9972L75.6381 78.017L76.6579 79.4618L79.0375 82.6912L80.1423 84.136L81.0772 85.4958L82.097 86.8555L82.522 87.3655V87.6204L80.0574 87.5354L79.4625 86.8555L78.6976 85.7507L76.148 82.3513L75.2131 81.0765L74.4483 80.1417L74.3633 79.8867V76.6573L74.4483 76.5723Z" fill="#3FBCF8"/>
<path d="M68.5 24.4758L69.7748 24.5608L70.2847 24.8158L71.3045 25.8356L72.4943 27.4503L73.2592 28.7251L73.4292 29.15L73.3442 29.575L70.9646 30.2549L69.3499 30.5948H68.585L68.5 24.4758Z" fill="#A6A6A5"/>
<path d="M68.582 48.5271L69.6019 48.6121L71.7265 49.122L73.4262 49.7169L73.3413 50.2268L72.8313 51.1617L71.8115 52.6064L70.8767 53.7112L70.5367 54.1362L69.6869 54.5611L68.582 54.7311V48.5271Z" fill="#A6A6A5"/>
<path d="M0 80.3965L0.424931 80.8214L1.18981 81.6713L2.29463 83.286L3.14449 84.3908L5.43911 87.4503V87.6203H4.16432L2.80454 87.5353L2.03967 86.4305L1.27479 85.4106L0.169972 83.9659L0 83.7959V80.3965Z" fill="#3FBCF8"/>
<path d="M129.348 70.7083H131.897L132.237 71.0482L133.342 72.6629L133.682 73.3428V76.3173H133.427L132.662 75.2975L131.812 74.1927L129.603 71.1332L129.348 70.7083Z" fill="#3FBCF8"/>
<path d="M74.3633 83.4558L74.7882 83.8807L75.978 85.4955L76.9129 86.6853L77.4228 87.4501L77.3378 87.6201L75.2131 87.5351L74.7032 87.2802L74.4483 87.0252L74.3633 86.6853V83.4558Z" fill="#3FBCF8"/>
<path d="M59.912 26.1755L60.082 26.2605L58.9772 28.2152L58.5522 28.8951L58.4673 29.15L58.0423 29.0651L56.9375 28.4702L57.1075 28.1302L58.3823 27.1104L59.2321 26.5155L59.912 26.1755Z" fill="#A6A6A5"/>
<path d="M58.0423 49.9717H58.3823L59.4871 52.0113L59.997 52.8612L59.827 52.9462L58.7222 52.2663L57.7024 51.5014L56.9375 50.8215L57.3624 50.3966L58.0423 49.9717Z" fill="#A6A6A5"/>
<path d="M74.1094 26.1755L75.2992 26.7704L76.319 27.4503L76.404 27.7053L75.6391 28.2152L75.2992 28.1302L74.6193 26.9404L74.2793 26.4305L74.1094 26.3455V26.1755Z" fill="#A6A6A5"/>
<path d="M75.2972 50.9915L75.7221 51.0764L76.317 51.4164L76.232 51.7563L75.1272 52.5212L74.4473 52.8611L74.2773 52.7762L75.0422 51.4164L75.2972 50.9915Z" fill="#A6A6A5"/>
<path d="M0.169972 103.938H0.254958V107.507L0.339945 108.102V108.782L0.169972 108.442L0 107.592V105.127L0.169972 103.938Z" fill="#A6A6A5"/>
</svg>
