<svg width="300" height="68" viewBox="0 0 300 68" fill="none" xmlns="http://www.w3.org/2000/svg">
<path d="M70.7077 17.1992H72.141V29.1431L64.0191 32.0919L48.2532 39.1759L35.3539 45.3867L27.7098 48.2533L16.2437 52.0753L9.55509 55.4196L9.07734 55.8974L27.232 62.5859L32.4873 63.5414L35.8316 63.0637L64.0191 48.731L65.9302 46.82L57.8083 35.2221L64.0191 32.0919L73.0965 42.5202V51.1198L68.7967 53.9863L54.464 60.1971L38.6981 66.8857L35.8316 67.8412H32.0096L15.2882 63.5414L5.2553 61.1527L0.955509 59.2416L0 57.8084V47.2978L2.86653 45.3867L12.8994 41.5647L27.7098 35.3539L63.5414 20.0657L70.7077 17.1992Z" fill="#155300"/>
<path d="M70.7104 0H71.1882L71.6659 2.86653V11.9439L66.4106 14.3326L43.0006 24.3655L35.8343 27.7098L24.846 32.4873L5.73577 40.6091L0.958223 41.5647L0.480469 40.6091V32.0096L0.958223 29.6208L16.7241 22.4545L31.0568 16.2437L51.1225 7.64408L68.3216 0.955509L70.7104 0Z" fill="#D35F1C"/>
<path d="M100.459 1.90402V31.4553H95.1055V1.90402H100.459Z" fill="#D35F1C"/>
<path d="M136.229 1.90402V31.4553H131.467L117.543 11.3264H117.298V31.4553H111.944V1.90402H116.735L130.645 22.0474H130.904V1.90402H136.229Z" fill="#D35F1C"/>
<path d="M157.764 31.4553H147.751V1.90402H157.967C160.9 1.90402 163.421 2.49562 165.527 3.67883C167.644 4.85241 169.269 6.54064 170.405 8.74352C171.54 10.9464 172.107 13.5822 172.107 16.6508C172.107 19.729 171.535 22.3744 170.39 24.5869C169.255 26.7994 167.615 28.4973 165.47 29.6805C163.334 30.8637 160.766 31.4553 157.764 31.4553ZM153.104 26.8235H157.505C159.563 26.8235 161.28 26.4483 162.656 25.698C164.032 24.938 165.066 23.8077 165.758 22.3071C166.451 20.7968 166.797 18.9114 166.797 16.6508C166.797 14.3902 166.451 12.5144 165.758 11.0234C165.066 9.5227 164.041 8.40203 162.685 7.66132C161.338 6.911 159.664 6.53583 157.663 6.53583H153.104V26.8235Z" fill="#D35F1C"/>
<path d="M182.882 31.4553V1.90402H194.195C196.33 1.90402 198.105 2.24071 199.519 2.91407C200.943 3.57782 202.006 4.48687 202.708 5.64121C203.42 6.79556 203.776 8.10382 203.776 9.56599C203.776 10.7684 203.545 11.7977 203.083 12.6539C202.621 13.5004 202.001 14.1882 201.222 14.7173C200.443 15.2463 199.572 15.6263 198.61 15.8572V16.1458C199.659 16.2035 200.664 16.5257 201.626 17.1125C202.597 17.6897 203.391 18.5074 204.007 19.5655C204.622 20.6237 204.93 21.9031 204.93 23.4037C204.93 24.9332 204.56 26.3088 203.819 27.5305C203.078 28.7426 201.963 29.6997 200.472 30.4019C198.98 31.1042 197.105 31.4553 194.844 31.4553H182.882ZM188.235 26.9822H193.993C195.936 26.9822 197.336 26.6118 198.192 25.8711C199.057 25.1208 199.49 24.1588 199.49 22.9853C199.49 22.1099 199.274 21.3211 198.841 20.6188C198.408 19.907 197.792 19.3491 196.994 18.945C196.196 18.5314 195.243 18.3246 194.137 18.3246H188.235V26.9822ZM188.235 14.472H193.531C194.455 14.472 195.287 14.3036 196.027 13.9669C196.768 13.6206 197.35 13.1348 197.773 12.5096C198.206 11.8747 198.423 11.1244 198.423 10.2586C198.423 9.11387 198.019 8.17115 197.211 7.43045C196.412 6.68974 195.224 6.31939 193.646 6.31939H188.235V14.472Z" fill="#D35F1C"/>
<path d="M215.276 31.4553V1.90402H234.496V6.39154H220.629V14.4142H233.5V18.9018H220.629V26.9677H234.611V31.4553H215.276Z" fill="#D35F1C"/>
<path d="M261.706 10.0277C261.571 8.76757 261.003 7.78637 260.003 7.08415C259.012 6.38192 257.723 6.03081 256.136 6.03081C255.02 6.03081 254.063 6.19915 253.265 6.53583C252.466 6.87252 251.855 7.32944 251.432 7.90662C251.009 8.48379 250.792 9.14273 250.783 9.88344C250.783 10.4991 250.922 11.033 251.201 11.4851C251.49 11.9372 251.879 12.322 252.37 12.6394C252.86 12.9473 253.404 13.207 254 13.4186C254.597 13.6302 255.198 13.8082 255.804 13.9525L258.574 14.6451C259.69 14.9048 260.763 15.256 261.792 15.6985C262.831 16.1409 263.759 16.6989 264.577 17.3723C265.404 18.0456 266.059 18.8585 266.539 19.8108C267.02 20.7631 267.261 21.879 267.261 23.1584C267.261 24.8899 266.818 26.4146 265.933 27.7325C265.048 29.0408 263.769 30.0652 262.095 30.8059C260.431 31.537 258.416 31.9026 256.049 31.9026C253.75 31.9026 251.754 31.5467 250.061 30.8348C248.378 30.123 247.06 29.084 246.108 27.7181C245.165 26.3521 244.655 24.6879 244.578 22.7255H249.845C249.922 23.7548 250.239 24.611 250.797 25.2939C251.355 25.9769 252.081 26.4868 252.976 26.8235C253.88 27.1601 254.89 27.3285 256.006 27.3285C257.17 27.3285 258.19 27.1553 259.065 26.809C259.95 26.4531 260.643 25.9625 261.143 25.3372C261.643 24.7023 261.898 23.9616 261.908 23.1151C261.898 22.3456 261.672 21.7107 261.229 21.2104C260.787 20.7006 260.167 20.2774 259.368 19.9407C258.579 19.5944 257.656 19.2865 256.598 19.0172L253.236 18.1514C250.802 17.5262 248.878 16.5786 247.464 15.3089C246.059 14.0295 245.357 12.3316 245.357 10.2153C245.357 8.47417 245.829 6.94947 246.771 5.64121C247.724 4.33296 249.017 3.31809 250.653 2.59663C252.288 1.86554 254.14 1.5 256.208 1.5C258.305 1.5 260.142 1.86554 261.72 2.59663C263.307 3.31809 264.553 4.32334 265.457 5.61236C266.362 6.89176 266.828 8.36355 266.857 10.0277H261.706Z" fill="#D35F1C"/>
<path d="M276.423 6.39154V1.90402H300.001V6.39154H290.867V31.4553H285.557V6.39154H276.423Z" fill="#D35F1C"/>
<path d="M93.4609 59.3925V46.4639H95.803V51.9371H101.794V46.4639H104.142V59.3925H101.794V53.9004H95.803V59.3925H93.4609Z" fill="#3A444A"/>
<path d="M107.401 59.3925V46.4639H115.809V48.4272H109.743V51.9371H115.374V53.9004H109.743V57.4292H115.86V59.3925H107.401Z" fill="#3A444A"/>
<path d="M120.57 59.3925H118.07L122.622 46.4639H125.513L130.071 59.3925H127.571L124.118 49.1153H124.017L120.57 59.3925ZM120.652 54.3233H127.47V56.2046H120.652V54.3233Z" fill="#3A444A"/>
<path d="M132.485 59.3925V46.4639H134.827V57.4292H140.521V59.3925H132.485Z" fill="#3A444A"/>
<path d="M141.047 48.4272V46.4639H151.363V48.4272H147.367V59.3925H145.043V48.4272H141.047Z" fill="#3A444A"/>
<path d="M154.062 59.3925V46.4639H156.404V51.9371H162.395V46.4639H164.743V59.3925H162.395V53.9004H156.404V59.3925H154.062Z" fill="#3A444A"/>
<path d="M179.068 50.826H176.707C176.64 50.4388 176.516 50.0958 176.335 49.797C176.154 49.494 175.929 49.2373 175.659 49.0269C175.39 48.8164 175.083 48.6586 174.738 48.5534C174.397 48.444 174.028 48.3893 173.633 48.3893C172.93 48.3893 172.307 48.566 171.764 48.9196C171.221 49.2689 170.796 49.7823 170.489 50.4599C170.182 51.1333 170.028 51.956 170.028 52.9282C170.028 53.9172 170.182 54.7505 170.489 55.4281C170.8 56.1015 171.226 56.6107 171.764 56.9558C172.307 57.2967 172.928 57.4671 173.627 57.4671C174.014 57.4671 174.376 57.4166 174.712 57.3156C175.053 57.2104 175.358 57.0568 175.628 56.8548C175.901 56.6528 176.131 56.4045 176.316 56.1099C176.505 55.8153 176.636 55.4786 176.707 55.0998L179.068 55.1124C178.98 55.7269 178.788 56.3035 178.494 56.8422C178.203 57.3809 177.822 57.8564 177.351 58.2689C176.88 58.6771 176.328 58.9969 175.697 59.2284C175.066 59.4557 174.365 59.5693 173.595 59.5693C172.459 59.5693 171.444 59.3063 170.552 58.7802C169.66 58.2541 168.957 57.4945 168.444 56.5013C167.93 55.508 167.674 54.317 167.674 52.9282C167.674 51.5352 167.932 50.3442 168.45 49.3551C168.968 48.3619 169.673 47.6023 170.565 47.0762C171.457 46.5501 172.467 46.2871 173.595 46.2871C174.315 46.2871 174.984 46.3881 175.602 46.5901C176.221 46.7921 176.772 47.0888 177.256 47.4802C177.74 47.8674 178.138 48.343 178.45 48.9069C178.765 49.4667 178.971 50.1064 179.068 50.826Z" fill="#3A444A"/>
<path d="M183.428 59.3925H180.928L185.48 46.4639H188.371L192.929 59.3925H190.429L186.976 49.1153H186.875L183.428 59.3925ZM183.51 54.3233H190.328V56.2046H183.51V54.3233Z" fill="#3A444A"/>
<path d="M195.343 59.3925V46.4639H200.191C201.184 46.4639 202.018 46.6364 202.691 46.9815C203.369 47.3266 203.88 47.8106 204.225 48.4335C204.574 49.0521 204.749 49.7739 204.749 50.5988C204.749 51.4279 204.572 52.1475 204.219 52.7578C203.869 53.3638 203.354 53.833 202.672 54.1655C201.99 54.4938 201.153 54.6579 200.16 54.6579H196.706V52.7136H199.844C200.425 52.7136 200.9 52.6336 201.271 52.4737C201.641 52.3095 201.914 52.0718 202.091 51.7603C202.272 51.4447 202.363 51.0575 202.363 50.5988C202.363 50.14 202.272 49.7486 202.091 49.4246C201.91 49.0963 201.635 48.848 201.264 48.6797C200.894 48.5071 200.416 48.4208 199.831 48.4208H197.685V59.3925H195.343ZM202.022 53.5342L205.222 59.3925H202.609L199.465 53.5342H202.022Z" fill="#3A444A"/>
<path d="M207.616 59.3925V46.4639H216.025V48.4272H209.958V51.9371H215.589V53.9004H209.958V57.4292H216.075V59.3925H207.616Z" fill="#3A444A"/>
<path d="M224.246 59.3925V46.4639H229.094C230.087 46.4639 230.92 46.649 231.594 47.0194C232.271 47.3897 232.783 47.899 233.128 48.5471C233.477 49.191 233.652 49.9233 233.652 50.744C233.652 51.5731 233.477 52.3095 233.128 52.9535C232.778 53.5974 232.263 54.1045 231.581 54.4748C230.899 54.841 230.06 55.0241 229.062 55.0241H225.849V53.0986H228.747C229.327 53.0986 229.803 52.9976 230.173 52.7956C230.544 52.5936 230.817 52.3159 230.994 51.9623C231.175 51.6088 231.265 51.2027 231.265 50.744C231.265 50.2852 231.175 49.8812 230.994 49.5319C230.817 49.1826 230.542 48.9111 230.167 48.7175C229.797 48.5197 229.319 48.4208 228.734 48.4208H226.588V59.3925H224.246Z" fill="#3A444A"/>
<path d="M238.127 46.4639L241.492 56.6401H241.624L244.983 46.4639H247.558L243 59.3925H240.109L235.557 46.4639H238.127Z" fill="#3A444A"/>
<path d="M249.404 48.4272V46.4639H259.719V48.4272H255.723V59.3925H253.4V48.4272H249.404Z" fill="#3A444A"/>
<path d="M267.539 59.3925V46.4639H269.881V57.4292H275.576V59.3925H267.539Z" fill="#3A444A"/>
<path d="M276.102 48.4272V46.4639H286.417V48.4272H282.421V59.3925H280.098V48.4272H276.102Z" fill="#3A444A"/>
<path d="M293.498 59.3925H289.117V46.4639H293.586C294.87 46.4639 295.973 46.7227 296.894 47.2403C297.82 47.7538 298.531 48.4924 299.028 49.4561C299.525 50.4199 299.773 51.5731 299.773 52.9156C299.773 54.2623 299.522 55.4197 299.022 56.3876C298.525 57.3556 297.807 58.0984 296.869 58.6161C295.935 59.1337 294.811 59.3925 293.498 59.3925ZM291.459 57.3661H293.384C294.285 57.3661 295.036 57.202 295.638 56.8737C296.24 56.5412 296.692 56.0467 296.995 55.3902C297.298 54.7295 297.45 53.9046 297.45 52.9156C297.45 51.9266 297.298 51.1059 296.995 50.4536C296.692 49.797 296.244 49.3067 295.651 48.9827C295.061 48.6544 294.329 48.4903 293.454 48.4903H291.459V57.3661Z" fill="#3A444A"/>
</svg>
