<svg width="300" height="47" viewBox="0 0 300 47" fill="none" xmlns="http://www.w3.org/2000/svg">
<path d="M167.224 0H168.548L171.198 0.441609L173.406 1.03042L175.173 1.17763H180.914L192.248 1.03042H226.399L233.465 1.17763L234.495 1.03042H283.956L299.854 1.17763L300.001 1.32483V32.2375L299.854 32.3847H284.692L284.397 32.6791H266.586L265.997 32.3847H259.078L258.931 32.6791H258.048L257.165 32.3847H237.292L236.998 32.6791H233.907L233.612 32.3847H226.841L226.546 32.6791H223.602L223.455 32.5319H205.055L201.816 32.6791H191.218L190.629 32.3847H174.289L172.965 32.8263L170.315 33.2679L168.843 33.4151H167.076L163.838 32.9735L162.072 32.5319L145.732 32.3847L145.438 32.6791H142.493L142.052 32.3847H117.175L117.027 32.2375V17.8116L118.499 15.1619L120.119 12.8067L122.179 9.2738L123.21 7.65456L127.037 1.47203L127.332 1.17763L145.143 1.03042H162.66L166.046 0.147203L167.224 0Z" fill="#FEFEFE"/>
<path d="M234.052 1.03125H283.954L299.852 1.17845L299.999 1.32566V32.2383L299.852 32.3855H284.69L284.396 32.6799H266.584L265.995 32.3855H259.077L258.93 32.6799H258.046L257.163 32.3855H237.291L236.996 32.6799H233.905L233.758 32.3855V1.17845L234.052 1.03125Z" fill="#FEFEFE"/>
<path d="M142.641 1.03125L161.63 1.17845L161.041 1.76727L158.98 2.94489L157.214 4.26972L155.447 5.88895L154.123 7.65539L152.798 10.4523L151.914 12.9547L151.473 15.7516V18.254L151.914 20.9037L152.798 23.4061L153.975 25.7614L155.153 27.3806L155.742 28.1166L156.919 29.1471L158.539 30.4719L160.599 31.6495L161.483 32.2383V32.3855H145.732L145.438 32.6799H142.493L142.052 32.3855H117.175L117.027 32.2383V17.8124L118.499 15.1628L120.119 12.8075L122.179 9.27463L123.21 7.65539L127.037 1.47286L127.332 1.17845L142.641 1.03125Z" fill="#542A78"/>
<path d="M284.691 1.17773H299.852L300 1.32494V32.2376L299.852 32.3848H284.543L284.396 29.5879L269.823 29.4407L269.676 29.2935V17.2229L271.589 17.0757H284.396V14.1316L269.676 13.9844V4.269L269.823 4.1218L284.543 3.97459L284.691 1.17773Z" fill="#542A78"/>
<path d="M223.602 1.03125H226.399L233.759 1.17845L233.906 1.47286V32.3855H226.841L226.546 32.6799H223.602L223.455 32.5327L206.379 32.3855L206.527 32.0911L209.471 31.2079L211.531 30.1775L213.151 28.8526L214.328 27.675L215.948 25.1726L216.978 22.6701L217.567 20.0205L217.714 18.6956V15.8988L217.272 12.8075L216.536 10.4523L215.506 8.39141L213.887 6.03616L212.562 4.85853L210.501 3.3865L208.293 2.35608L205.496 1.47286V1.17845L223.602 1.03125Z" fill="#542A78"/>
<path d="M166.046 3.5332H170.167L172.67 4.12202L175.025 5.15244L177.086 6.77167L178.263 7.9493L180.03 10.4518L180.913 12.3654L181.502 15.015V18.4007L181.06 20.756L180.177 22.964L178.705 25.1721L177.38 26.6441L176.203 27.6745L173.847 28.9993L171.345 29.8826L169.284 30.3242H166.929L164.426 29.8826L162.218 28.9993L160.599 28.1161L159.127 26.9385L157.802 25.7609L156.477 23.7L155.594 21.9336L155.005 20.1672L154.711 18.5479V15.4567L155.153 13.2486L156.036 10.8934L157.213 8.83252L158.98 6.91888L160.157 5.88845L161.777 4.85803L164.426 3.82761L166.046 3.5332Z" fill="#542A78"/>
<path d="M268.202 1.03125H283.953L284.689 1.17845V3.97531L284.542 4.12252L269.821 4.26972L269.674 13.9851H284.395L284.542 14.2795L284.395 17.0764L269.674 17.2236L269.821 29.2943L284.395 29.4415L284.542 29.5887V32.5327L284.395 32.6799H266.583L265.994 32.3855H258.928L258.781 20.4621V9.42183L258.928 1.17845L268.202 1.03125Z" fill="#542A78"/>
<path d="M194.16 4.12109H198.135L202.698 4.4155L206.084 4.85711L207.85 5.59313L209.322 6.47634L210.794 7.80117L211.825 8.83159L213.149 10.7452L213.885 12.3645L214.327 14.7197L214.474 16.0445V18.2526L214.033 21.4911L213.297 23.4047L212.119 25.1711L210.794 26.6432L209.175 27.8208L206.967 28.704L205.053 29.1456L201.962 29.44L195.043 29.5872L194.16 29.44V4.12109Z" fill="#542A78"/>
<path d="M191.659 1.03125H198.136L205.496 1.17845V1.47286L206.527 1.62006L209.324 2.65048L211.237 3.68091L213.592 5.59455L214.476 6.62497L216.242 9.42183L217.125 11.6299L217.714 14.4267L217.861 15.8988V18.6956L217.42 21.6397L216.684 23.8477L215.653 25.9086L214.181 27.9694L212.709 29.4415L211.237 30.4719L209.471 31.3551L206.527 32.2383L206.379 32.3855L205.055 32.5327L201.816 32.6799H191.218L191.07 32.3855V1.17845L191.659 1.03125ZM194.162 4.12252V29.4415L195.192 29.5887L201.963 29.4415L205.055 29.1471L207.41 28.5582L209.471 27.675L211.384 26.0558L212.562 24.5838L213.592 22.8173L214.034 21.4925L214.476 18.254V16.046L214.034 12.9547L213.445 11.3355L212.415 9.56903L210.648 7.65539L209.176 6.33056L206.968 5.15294L205.202 4.71133L201.227 4.26972L198.136 4.12252H194.162Z" fill="#FEFEFE"/>
<path d="M174.73 1.17773H191.07L191.217 3.82739V32.3848H174.73V32.0904L177.675 30.4712L179.735 28.7047L181.355 27.0855L182.827 24.7302L183.71 22.8166L184.299 20.7558L184.593 18.8421V14.8676L184.004 11.7764L183.121 9.56831L181.796 7.21306L180.177 5.44663L178.263 3.68019L176.203 2.35536L174.73 1.47214V1.17773Z" fill="#542A78"/>
<path d="M145.729 1.17773H161.627L161.038 1.76655L158.978 2.94417L157.211 4.269L155.445 5.88823L154.12 7.65467L152.795 10.4515L151.912 12.954L151.47 15.7508V18.2533L151.912 20.903L152.795 23.4054L153.973 25.7607L155.15 27.3799L155.739 28.1159L156.917 29.1463L158.536 30.4712L160.597 31.6488L161.48 32.2376V32.3848H145.876L145.729 32.2376L145.582 20.1669V1.76655L145.729 1.17773Z" fill="#542A78"/>
<path d="M0.147203 1.03125H18.2532L18.4004 1.17845V4.12252L17.2228 4.26972H3.53288L3.68008 13.9851H18.2532L18.4004 14.2795L18.2532 17.0764H3.53288V29.4415H18.2532L18.4004 29.7359V32.5327L18.2532 32.6799H0.147203L0 32.5327V1.17845L0.147203 1.03125Z" fill="#542A78"/>
<path d="M235.082 1.17773H255.543L255.69 24.8774L255.102 24.583L254.071 23.4054L252.452 21.639L251.422 20.4613L249.802 18.5477L248.036 16.4869L246.122 14.426L244.797 12.8068L243.473 11.3348L242.148 9.71552L240.087 7.50747L238.762 5.88823L236.112 2.94417L235.082 1.47214V1.17773Z" fill="#542A78"/>
<path d="M237.145 8.97852L237.733 9.27292L239.5 11.3338L240.53 12.5114L241.855 13.9834L243.18 15.6027L244.799 17.3691L245.83 18.5467L247.596 20.6076L249.068 22.2268L250.393 23.846L251.423 24.8765L252.748 26.4957L254.662 28.7037L256.723 30.9118L257.606 32.2366L257.164 32.3838H237.439L237.145 32.2366V8.97852Z" fill="#542A78"/>
<path d="M268.204 1.03125H283.955L284.691 1.17845V3.97531L284.543 4.12252L269.823 4.26972L269.676 13.9851H284.396L284.543 14.2795L284.396 17.0764L269.676 17.2236L269.823 29.2943L284.396 29.4415L284.543 29.5887V32.5327L284.396 32.6799H266.585L266.438 32.3855V1.17845L268.204 1.03125Z" fill="#FDFDFD"/>
<path d="M84.1983 1.03125L84.9343 1.17845L85.3759 1.91447L86.4064 4.41692L87.8784 7.21378L89.792 11.3355L91.4113 14.8683L93.1777 18.5484L95.0913 22.6701L96.269 25.1726L97.5938 28.1166L99.6546 32.2383L99.8018 32.6799H96.4162L95.6802 31.5023L94.5025 29.1471L92.7361 25.3198L91.5585 22.8173L91.2641 22.3757H77.7214L75.9549 25.7614L74.1885 29.5887L72.8637 32.3855L72.5693 32.6799H69.1836L69.3308 31.9439L70.5084 29.7359L72.4221 25.6142L74.7773 20.6093L76.5438 16.9292L77.7214 14.5739L79.1934 11.1883L81.107 7.36099L83.0207 3.2393L84.0511 1.17845L84.1983 1.03125ZM84.3455 7.9498L83.1679 10.305L81.4015 14.1323L80.0766 16.9292L79.0462 18.8428V19.1372H89.792L89.6448 18.4012L87.8784 14.5739L86.4064 11.7771L84.9343 8.39141L84.6399 7.9498H84.3455Z" fill="#542A78"/>
<path d="M45.9258 1.03125H49.1643V12.8075L50.1947 11.9243L50.7835 11.1883L51.9611 10.1578L54.1692 8.097L56.6716 5.74175L58.5853 3.97531L60.0573 2.65048L61.6765 1.03125H65.9454L65.651 1.62006L64.4734 2.65048L62.1181 4.85853L60.6461 6.18336L59.6157 7.21378L58.438 8.2442L56.6716 9.86344L54.758 11.6299L52.8443 13.5435L50.9307 15.0155L51.2251 15.6044L53.1387 17.518L54.1692 18.6956L56.5244 21.0509L57.5548 22.2285L59.3213 24.1421L60.9405 25.7614L61.9709 26.939L64.179 29.1471L65.2094 30.3247L66.387 31.5023L67.2702 32.6799H63.1486L61.9709 31.6495L60.4989 30.0303L59.4685 28.8526L57.2604 26.6446V26.3502H56.966L55.9356 25.1726L53.7275 22.9645L52.6971 21.7869L51.5195 20.6093L50.4891 19.4316L49.3115 18.1068H49.1643V32.6799H45.9258V1.03125Z" fill="#542A78"/>
<path d="M226.691 1.17773H233.757L233.904 1.47214V32.3848H227.575L226.691 32.2376V1.17773Z" fill="#542A78"/>
<path d="M29.1445 0.146484H31.3525L33.7078 0.8825L35.327 1.76572L38.5655 5.00419L38.7127 5.4458L37.3879 6.47622L36.3574 7.35944L35.7686 7.06503L34.591 5.593L32.8246 4.26817L31.7941 3.82656L30.9109 3.67936H29.4389L28.1141 4.12097L26.9364 5.00419L26.2004 6.03461L25.906 7.21224L26.0532 8.83147L26.9364 10.4507L28.8501 12.3643L31.4997 14.278L32.8246 15.3084L35.1798 17.222L36.2102 18.2525L37.2407 19.4301L38.2711 20.9021L39.1543 23.1102L39.3015 23.8462V25.907L38.8599 27.6735L37.9767 29.2927L36.6518 30.7647L35.4742 31.9424L33.7078 32.8256L31.9413 33.2672L29.7333 33.4144L27.6725 33.12L25.906 32.5312L23.8452 31.0591L22.3731 29.4399L20.7539 27.0847L20.9011 26.4958L22.962 25.171H23.5508L24.1396 26.3486L25.3172 27.8207L25.4644 28.2623L26.0532 28.5567L27.2308 29.4399L28.5557 30.0287L29.1445 30.1759H30.7637L32.6774 29.5871L34.1494 28.5567L35.1798 27.3791L35.6214 26.2014V23.8462L35.0326 22.3742L34.1494 21.1965L32.5302 19.4301L30.6165 17.9581L28.9973 16.6332L26.9364 15.014L24.8756 13.2476L23.698 11.6283L22.962 10.0091L22.6675 8.83147V6.47622L23.1092 5.00419L23.8452 3.53216L25.3172 1.91292L26.9364 0.8825L29.1445 0.146484Z" fill="#542A78"/>
<path d="M102.012 1.03125H105.692L106.281 1.76727L107.753 4.41692L109.519 7.06658L111.138 9.71624L113.346 13.2491L113.788 13.9851H114.082L115.407 11.6299L117.174 8.83302L118.646 6.18336L120.707 3.09209L121.884 1.03125H125.417L125.27 1.76727L123.503 4.56413L121.884 7.21378L120.412 9.71624L118.94 11.9243L116.879 15.4572L115.702 17.3708L115.554 17.9596V32.5327L115.407 32.6799H112.316L112.169 17.518L110.255 14.2795L108.636 11.7771L106.722 8.68581L105.103 6.03616L103.631 3.68091L102.453 1.76727L102.012 1.03125Z" fill="#542A78"/>
<path d="M223.6 1.03125H226.397L226.692 1.17845L226.839 32.3855L226.544 32.6799H223.6L223.453 32.5327V1.17845L223.6 1.03125Z" fill="#FEFEFE"/>
<path d="M142.638 1.03125H145.141L145.729 1.17845V32.3855L145.435 32.6799H142.491L142.344 32.3855L142.491 1.17845L142.638 1.03125Z" fill="#FEFEFE"/>
<path d="M74.7792 38.2734L75.368 38.5678L76.5456 40.9231L78.3121 44.0144L78.7537 44.7504L80.5201 41.5119L81.6977 39.1567L82.2865 38.2734L82.7282 38.4206L83.4642 43.8672L83.7586 45.928V46.664H82.8754L82.581 45.4864L82.1393 41.5119L81.9921 40.9231L80.0785 44.456L78.9009 46.5168L78.3121 46.3696L75.9568 41.8063L75.368 40.7759L74.7792 45.928L74.4848 46.664H73.7488L73.6016 45.928L74.3376 40.7759L74.632 38.5678L74.7792 38.2734Z" fill="#542A78"/>
<path d="M107.017 37.9785H108.784L111.139 38.2729L112.464 39.0089L113.494 40.1866L114.083 41.8058V43.1306L113.641 44.6027L112.611 45.9275L111.581 46.5163L111.139 46.6635L109.52 46.8107H107.606L106.428 46.6635L106.281 46.5163V38.1257L107.017 37.9785ZM107.312 39.0089L107.164 39.4505V45.7803H110.845L111.875 45.1915L112.611 44.4555L112.905 43.5722L113.053 42.2474L112.758 40.9226L111.728 39.745L110.697 39.1561L110.109 39.0089H107.312Z" fill="#552B78"/>
<path d="M10.4511 37.9785H12.3647L13.8367 38.2729L14.72 39.0089L15.1616 39.8922V41.0698L14.1311 42.2474L13.2479 42.689L12.3647 42.8362L12.6591 43.5722L13.9839 45.0443L15.0144 46.3691V46.8107L13.9839 46.6635L12.6591 45.1915L11.0399 42.9834L10.3039 42.689L10.4511 42.9834V46.6635L9.71505 46.8107L9.27344 46.5163V38.2729L9.42064 38.1257L10.4511 37.9785ZM10.4511 39.0089V41.953H12.8063L13.8367 41.3642L14.1311 40.9226V40.0394L13.6895 39.3033L13.1007 39.0089H10.4511Z" fill="#542A78"/>
<path d="M99.214 37.9785H103.336L103.483 38.1257V38.8617L103.336 39.0089H99.214V41.5114H103.336L103.483 42.5418H99.214V45.7803H103.336L103.483 46.6635L102.894 46.8107H98.9196L98.1836 46.6635V38.1257L99.214 37.9785Z" fill="#552B78"/>
<path d="M51.3727 37.9785H55.936V39.0089H51.6671V41.5114H55.7888L55.936 41.6586V42.5418H51.5199L51.6671 43.1306V45.6331L55.7888 45.7803L55.936 45.9275V46.6635L55.2 46.8107L50.6367 46.6635V38.1257L51.3727 37.9785Z" fill="#562C79"/>
<path d="M1.62047 37.9785H3.0925L4.85894 38.2729L5.74216 39.0089L6.18377 39.745V41.0698L5.59495 41.953L4.71174 42.5418L4.12292 42.689L1.47327 42.8362V46.5163L1.32606 46.6635H0.295641L0.148438 46.5163V38.1257L1.62047 37.9785ZM1.47327 39.0089L1.32606 39.1561V40.6282L1.47327 41.953H3.82852L4.85894 41.3642L5.15334 41.0698V40.0394L4.71174 39.3033L4.27013 39.0089H1.47327Z" fill="#552C79"/>
<path d="M36.5045 37.9785L37.0933 38.5673L39.8902 44.161L40.9206 46.3691V46.6635L40.479 46.8107L39.743 46.5163L38.7125 44.161H34.7381L33.5604 46.3691L32.9716 46.8107H32.3828L32.53 46.0747L35.3269 40.481L36.3573 38.1257L36.5045 37.9785ZM36.5045 40.0394L35.4741 42.2474L35.1797 43.1306H38.2709L37.0933 40.6282L36.5045 40.0394Z" fill="#542A78"/>
<path d="M22.082 37.9785L23.1125 38.1257L24.2901 40.481L25.3205 42.8362L25.9093 44.3083V44.6027H26.2037L26.4981 43.7194L28.1174 40.3338L29.0006 38.1257L29.295 37.9785H30.1782L30.031 38.7145L29.1478 40.6282L27.5285 44.161L26.2037 46.6635H25.7621L24.1429 42.8362L22.2292 38.5673L22.082 37.9785Z" fill="#552B79"/>
<path d="M47.5464 37.9785L47.988 38.1257V38.8617L46.0744 39.0089V46.6635H45.044L44.8968 46.0747V39.0089H42.9831L42.8359 38.2729L42.9831 38.1257L47.5464 37.9785Z" fill="#542A78"/>
<path d="M62.2656 38.125H63.4433V43.1299L63.296 45.7796L66.6817 45.9268L66.8289 46.6628H62.4128L62.2656 46.074V38.125Z" fill="#552B78"/>
<path d="M90.3828 38.125H95.5349V38.861L94.5045 39.0082H93.3269V46.6628H92.4437L92.2965 44.0131V41.5107L92.4437 39.0082H90.53L90.3828 38.861V38.125Z" fill="#542A78"/>
<path d="M70.068 37.9785L70.5097 38.1257V46.5163L70.3625 46.6635H69.4792L69.332 46.5163V38.1257L70.068 37.9785Z" fill="#542A78"/>
<path d="M86.8516 38.125H87.882L88.0292 38.5666V46.5156L87.882 46.6628H86.9988L86.8516 46.5156V38.125Z" fill="#542A78"/>
<path d="M18.2539 38.125H19.2843V46.6628H18.2539V38.125Z" fill="#542A78"/>
</svg>
