<svg width="183" height="100" viewBox="0 0 183 100" fill="none" xmlns="http://www.w3.org/2000/svg">
<path d="M127.357 0H129.84V0.0993049H128.45V0.297915L127.953 0.496524L127.159 0.695134L126.364 1.39027L125.669 1.68818L125.47 1.9861L124.378 2.28401L123.484 2.18471L123.683 1.9861L125.173 1.39027L126.662 0.595829L127.357 0Z" fill="#FE9F1C"/>
<path d="M124.974 1.49023H125.47L125.173 1.88745L124.577 1.98676L124.477 2.28467H123.981L123.882 2.18537L123.484 2.08606L124.974 1.49023Z" fill="#FE9918"/>
<path d="M5.73241 88.877C6.36278 88.877 6.9045 88.9626 7.35758 89.1339C7.81066 89.3051 8.22434 89.5469 8.59862 89.8592C8.70696 89.9499 8.80546 89.9952 8.8941 89.9952C8.9926 89.9952 9.07139 89.9247 9.13049 89.7836C9.18959 89.6325 9.23391 89.4008 9.26346 89.0885H9.60327C9.56387 89.8038 9.54417 91.0631 9.54417 92.8664H9.20436C9.13542 92.0705 9.00737 91.4409 8.82023 90.9775C8.63309 90.514 8.30806 90.1211 7.84513 89.7988C7.63829 89.6577 7.39698 89.5469 7.12119 89.4663C6.85525 89.3857 6.58932 89.3454 6.32338 89.3454C5.61422 89.3454 5.03802 89.6023 4.59479 90.1161C4.16142 90.6198 3.85116 91.2596 3.66402 92.0353C3.48672 92.811 3.39808 93.622 3.39808 94.4682C3.39808 96.2212 3.60492 97.5309 4.0186 98.3973C4.44213 99.2637 5.02817 99.6969 5.77673 99.6969C6.08207 99.6969 6.32338 99.6364 6.50067 99.5155C6.70751 99.3644 6.81093 99.1126 6.81093 98.7599V97.2488C6.81093 96.7451 6.77153 96.3773 6.69274 96.1456C6.61394 95.9039 6.47112 95.7427 6.26428 95.6621C6.06729 95.5714 5.75211 95.516 5.31873 95.4958V95.1936C5.9885 95.2238 6.92913 95.2389 8.14062 95.2389C9.15511 95.2389 9.91353 95.2238 10.4159 95.1936V95.4958C10.2386 95.516 10.1056 95.5563 10.0169 95.6167C9.93815 95.6772 9.88398 95.793 9.85443 95.9643C9.82488 96.1356 9.81011 96.4126 9.81011 96.7954V99.7875H9.51462C9.50477 99.576 9.46045 99.3795 9.38165 99.1982C9.30286 99.0168 9.19451 98.9262 9.05662 98.9262C8.84978 98.9262 8.5149 99.042 8.05197 99.2737C7.06702 99.7573 6.23474 99.9991 5.55512 99.9991C3.72311 99.9991 2.33926 99.5256 1.40355 98.5786C0.467851 97.6316 0 96.2816 0 94.5287C0 93.4205 0.241313 92.4383 0.723938 91.5819C1.21641 90.7256 1.89603 90.0607 2.76279 89.5872C3.62954 89.1137 4.61942 88.877 5.73241 88.877Z" fill="#FE7C0B"/>
<path d="M17.3429 88.877C18.4559 88.877 19.431 89.0936 20.2682 89.5268C21.1054 89.96 21.7555 90.5896 22.2184 91.4157C22.6813 92.2317 22.9128 93.2089 22.9128 94.3474C22.9128 95.4555 22.6764 96.4378 22.2036 97.2941C21.7309 98.1504 21.0709 98.8154 20.2239 99.2889C19.3768 99.7623 18.4116 99.9991 17.3281 99.9991C16.2151 99.9991 15.24 99.7825 14.4028 99.3493C13.5656 98.9161 12.9155 98.2915 12.4526 97.4755C11.9897 96.6494 11.7582 95.6671 11.7582 94.5287C11.7582 93.4205 11.9946 92.4383 12.4674 91.5819C12.9402 90.7256 13.6001 90.0607 14.4471 89.5872C15.2942 89.1137 16.2595 88.877 17.3429 88.877ZM17.2838 89.149C16.8012 89.149 16.3727 89.3756 15.9984 89.829C15.634 90.2723 15.3533 90.8969 15.1563 91.7028C14.9593 92.5088 14.8608 93.4306 14.8608 94.4682C14.8608 95.516 14.9741 96.4378 15.2006 97.2337C15.4272 98.0296 15.7325 98.6441 16.1166 99.0773C16.5008 99.5105 16.9243 99.7271 17.3872 99.7271C17.8698 99.7271 18.2934 99.5055 18.6578 99.0622C19.0321 98.6088 19.3177 97.9792 19.5147 97.1732C19.7117 96.3673 19.8102 95.4455 19.8102 94.4078C19.8102 93.3601 19.6969 92.4383 19.4704 91.6424C19.2439 90.8465 18.9385 90.232 18.5544 89.7988C18.1703 89.3656 17.7467 89.149 17.2838 89.149Z" fill="#FE7C0B"/>
<path d="M30.1544 88.877C31.2674 88.877 32.2425 89.0936 33.0797 89.5268C33.9169 89.96 34.5669 90.5896 35.0299 91.4157C35.4928 92.2317 35.7243 93.2089 35.7243 94.3474C35.7243 95.4555 35.4879 96.4378 35.0151 97.2941C34.5423 98.1504 33.8824 98.8154 33.0354 99.2889C32.1883 99.7623 31.223 99.9991 30.1396 99.9991C29.0266 99.9991 28.0515 99.7825 27.2143 99.3493C26.3771 98.9161 25.727 98.2915 25.2641 97.4755C24.8012 96.6494 24.5697 95.6671 24.5697 94.5287C24.5697 93.4205 24.8061 92.4383 25.2789 91.5819C25.7516 90.7256 26.4116 90.0607 27.2586 89.5872C28.1057 89.1137 29.0709 88.877 30.1544 88.877ZM30.0953 89.149C29.6126 89.149 29.1842 89.3756 28.8099 89.829C28.4455 90.2723 28.1648 90.8969 27.9678 91.7028C27.7708 92.5088 27.6723 93.4306 27.6723 94.4682C27.6723 95.516 27.7856 96.4378 28.0121 97.2337C28.2386 98.0296 28.544 98.6441 28.9281 99.0773C29.3122 99.5105 29.7358 99.7271 30.1987 99.7271C30.6813 99.7271 31.1048 99.5055 31.4693 99.0622C31.8436 98.6088 32.1292 97.9792 32.3262 97.1732C32.5232 96.3673 32.6217 95.4455 32.6217 94.4078C32.6217 93.3601 32.5084 92.4383 32.2819 91.6424C32.0553 90.8465 31.75 90.232 31.3659 89.7988C30.9817 89.3656 30.5582 89.149 30.0953 89.149Z" fill="#FE7C0B"/>
<path d="M42.0674 89.0885C44.1062 89.0885 45.6329 89.5368 46.6474 90.4334C47.6619 91.32 48.1692 92.6146 48.1692 94.3171C48.1692 95.4152 47.918 96.3773 47.4157 97.2035C46.9232 98.0195 46.2091 98.6542 45.2734 99.1075C44.3377 99.5609 43.2247 99.7875 41.9344 99.7875L41.0184 99.7724C40.4274 99.7523 39.9941 99.7422 39.7183 99.7422C38.5659 99.7422 37.709 99.7573 37.1476 99.7875V99.4853C37.4627 99.4652 37.6893 99.4249 37.8272 99.3644C37.9749 99.304 38.0734 99.1881 38.1227 99.0168C38.1719 98.8456 38.1965 98.5685 38.1965 98.1857V90.6903C38.1965 90.3075 38.167 90.0305 38.1079 89.8592C38.0586 89.6879 37.9651 89.5721 37.8272 89.5116C37.6893 89.4512 37.4627 89.4109 37.1476 89.3907V89.0885C37.6006 89.1187 38.2704 89.1339 39.1569 89.1339H39.6887L40.3388 89.1187C41.1662 89.0986 41.7424 89.0885 42.0674 89.0885ZM42.289 89.3605C41.9837 89.3605 41.7522 89.3958 41.5946 89.4663C41.4469 89.5368 41.3434 89.6628 41.2843 89.8441C41.2253 90.0254 41.1957 90.2974 41.1957 90.6601V98.2159C41.1957 98.5786 41.2253 98.8506 41.2843 99.032C41.3434 99.2133 41.4469 99.3392 41.5946 99.4097C41.7522 99.4803 41.9886 99.5155 42.3038 99.5155C43.2789 99.5155 43.9831 99.0874 44.4165 98.231C44.8499 97.3646 45.0666 96.0802 45.0666 94.3776C45.0666 92.675 44.84 91.4157 44.3869 90.5997C43.9437 89.7736 43.2444 89.3605 42.289 89.3605Z" fill="#FE7C0B"/>
<path d="M62.8275 89.1339C63.2904 89.1339 63.6697 89.1187 63.9651 89.0885V89.3907C63.384 89.6829 62.926 90.3881 62.5911 91.5064L60.1091 99.7875C59.7939 99.7674 59.5329 99.7573 59.326 99.7573C59.129 99.7573 58.8729 99.7674 58.5578 99.7875L56.6371 93.7882L54.5539 99.7875C54.2388 99.7674 53.9777 99.7573 53.7709 99.7573C53.5739 99.7573 53.3178 99.7674 53.0026 99.7875L49.575 90.3579C49.4568 90.0355 49.3189 89.7988 49.1613 89.6476C49.0037 89.4865 48.8511 89.4008 48.7033 89.3907V89.0885C49.4125 89.1187 50.2842 89.1339 51.3184 89.1339C52.2147 89.1339 52.8697 89.1187 53.2833 89.0885V89.3907C53.0174 89.4411 52.8844 89.6426 52.8844 89.9952C52.8844 90.2068 52.9288 90.4284 53.0174 90.6601L55.1597 96.8257L56.4598 93.2291L55.4552 90.101C55.3764 89.8491 55.2779 89.6728 55.1597 89.5721C55.0415 89.4713 54.8888 89.4109 54.7017 89.3907V89.0885C55.3616 89.1187 56.2136 89.1339 57.2576 89.1339C58.282 89.1339 59.0453 89.1187 59.5476 89.0885V89.3907C59.1931 89.4008 58.937 89.4462 58.7794 89.5268C58.6218 89.6073 58.543 89.7534 58.543 89.965C58.543 90.1564 58.5922 90.3881 58.6907 90.6601L60.6409 96.7199L61.7785 92.9873C62.0445 92.0907 62.1775 91.3855 62.1775 90.8717C62.1775 90.368 62.0642 90.0002 61.8376 89.7685C61.621 89.5368 61.3058 89.4109 60.8921 89.3907V89.0885C61.6308 89.1187 62.276 89.1339 62.8275 89.1339Z" fill="#FE7C0B"/>
<path d="M72.7069 98.5182C72.8349 98.8405 72.9728 99.0823 73.1206 99.2435C73.2782 99.3946 73.4308 99.4752 73.5786 99.4853V99.7875C72.8694 99.7573 71.9731 99.7422 70.8896 99.7422C69.7668 99.7422 68.9394 99.7573 68.4076 99.7875V99.4853C68.7819 99.4652 69.0478 99.4198 69.2054 99.3493C69.363 99.2687 69.4418 99.1327 69.4418 98.9413C69.4418 98.7599 69.3827 98.5182 69.2645 98.2159L68.3928 95.7376H65.4084L65.1572 96.4176C64.8322 97.274 64.6697 97.9288 64.6697 98.3822C64.6697 98.7952 64.783 99.0773 65.0095 99.2284C65.236 99.3795 65.5709 99.4652 66.0141 99.4853V99.7875C65.2754 99.7573 64.6303 99.7422 64.0787 99.7422C63.6158 99.7422 63.2366 99.7573 62.9411 99.7875V99.4853C63.1873 99.445 63.4188 99.2889 63.6355 99.0168C63.8522 98.7448 64.0738 98.3116 64.3003 97.7172L67.5802 89.0885C67.8954 89.1087 68.1564 89.1187 68.3633 89.1187C68.5602 89.1187 68.8163 89.1087 69.1315 89.0885L72.7069 98.5182ZM68.2894 95.4354L66.9449 91.6575L65.5266 95.4354H68.2894Z" fill="#FE7C0B"/>
<path d="M81.4505 89.1187C81.9134 89.1187 82.2926 89.1036 82.5881 89.0734V89.3756C82.0858 89.6275 81.5637 90.2974 81.022 91.3855L79.648 94.166V98.1857C79.648 98.5685 79.6726 98.8456 79.7219 99.0168C79.781 99.1881 79.8795 99.304 80.0174 99.3644C80.1553 99.4249 80.3818 99.4652 80.697 99.4853V99.7875C80.1257 99.7573 79.2787 99.7422 78.1558 99.7422C76.9837 99.7422 76.1317 99.7573 75.5999 99.7875V99.4853C75.915 99.4652 76.1416 99.4249 76.2795 99.3644C76.4272 99.304 76.5257 99.1881 76.575 99.0168C76.6242 98.8456 76.6488 98.5685 76.6488 98.1857V95.4052L73.9156 90.237C73.758 89.9448 73.6053 89.7333 73.4576 89.6023C73.3099 89.4613 73.1769 89.3907 73.0587 89.3907V89.0734C73.6694 89.1339 74.349 89.1641 75.0975 89.1641C75.9446 89.1641 77.028 89.1339 78.3479 89.0734V89.3907C77.9539 89.3907 77.6584 89.4109 77.4614 89.4512C77.2644 89.4915 77.1659 89.5872 77.1659 89.7383C77.1659 89.8088 77.1856 89.8844 77.225 89.965L79.3378 94.1056L80.0026 92.7455C80.4655 91.7985 80.697 91.048 80.697 90.4939C80.697 89.7786 80.303 89.4059 79.515 89.3756V89.0734C80.2538 89.1036 80.8989 89.1187 81.4505 89.1187Z" fill="#FE7C0B"/>
<path d="M93.2878 88.877C93.8787 88.877 94.3811 88.9626 94.7947 89.1339C95.2084 89.3051 95.6122 89.5469 96.0062 89.8592C96.1047 89.9499 96.1983 89.9952 96.2869 89.9952C96.4839 89.9952 96.612 89.693 96.6711 89.0885H97.0109C96.9715 89.8038 96.9518 91.0631 96.9518 92.8664H96.612C96.543 92.0605 96.415 91.4258 96.2278 90.9624C96.0407 90.4989 95.7157 90.1111 95.2527 89.7988C94.7898 89.4965 94.3318 89.3454 93.8787 89.3454C92.8544 89.3454 92.1354 89.8491 91.7217 90.8566C91.308 91.864 91.1012 93.0679 91.1012 94.4682C91.1012 95.8686 91.308 97.0725 91.7217 98.0799C92.1354 99.0874 92.8544 99.5911 93.8787 99.5911C94.3318 99.5911 94.7898 99.44 95.2527 99.1377C95.7157 98.8456 96.0407 98.4527 96.2278 97.959C96.415 97.4654 96.543 96.7652 96.612 95.8585H96.9518C96.9518 97.7424 96.9715 99.0521 97.0109 99.7875H96.6711C96.6415 99.4652 96.5972 99.2385 96.5381 99.1075C96.4889 98.9665 96.415 98.896 96.3165 98.896C96.2377 98.896 96.1343 98.9362 96.0062 99.0168C95.563 99.3392 95.1395 99.586 94.7356 99.7573C94.3318 99.9185 93.8443 99.9991 93.273 99.9991C92.16 99.9991 91.1849 99.7825 90.3477 99.3493C89.5105 98.9161 88.8604 98.2915 88.3975 97.4755C87.9346 96.6494 87.7031 95.6671 87.7031 94.5287C87.7031 93.4205 87.9395 92.4383 88.4123 91.5819C88.885 90.7256 89.5449 90.0607 90.392 89.5872C91.2391 89.1137 92.2043 88.877 93.2878 88.877Z" fill="#FE7C0B"/>
<path d="M110.187 89.3907C109.871 89.4109 109.64 89.4512 109.492 89.5116C109.354 89.5721 109.261 89.6879 109.211 89.8592C109.162 90.0305 109.138 90.3075 109.138 90.6903V98.1857C109.138 98.5685 109.162 98.8456 109.211 99.0168C109.271 99.1881 109.369 99.304 109.507 99.3644C109.645 99.4249 109.871 99.4652 110.187 99.4853V99.7875C109.655 99.7573 108.827 99.7422 107.704 99.7422C106.572 99.7422 105.7 99.7573 105.089 99.7875V99.4853C105.405 99.4652 105.631 99.4249 105.769 99.3644C105.917 99.304 106.015 99.1881 106.064 99.0168C106.114 98.8456 106.138 98.5685 106.138 98.1857V94.5589H102.814V98.1857C102.814 98.5685 102.839 98.8456 102.888 99.0168C102.947 99.1881 103.046 99.304 103.184 99.3644C103.321 99.4249 103.548 99.4652 103.863 99.4853V99.7875C103.292 99.7573 102.469 99.7422 101.396 99.7422C100.204 99.7422 99.3274 99.7573 98.766 99.7875V99.4853C99.0812 99.4652 99.3077 99.4249 99.4456 99.3644C99.5934 99.304 99.6919 99.1881 99.7411 99.0168C99.7904 98.8456 99.815 98.5685 99.815 98.1857V90.6903C99.815 90.3075 99.7854 90.0305 99.7263 89.8592C99.6771 89.6879 99.5835 89.5721 99.4456 89.5116C99.3077 89.4512 99.0812 89.4109 98.766 89.3907V89.0885C99.3274 89.1187 100.204 89.1339 101.396 89.1339C102.46 89.1339 103.282 89.1187 103.863 89.0885V89.3907C103.548 89.4109 103.316 89.4512 103.169 89.5116C103.031 89.5721 102.937 89.6879 102.888 89.8592C102.839 90.0305 102.814 90.3075 102.814 90.6903V94.2567H106.138V90.6903C106.138 90.3075 106.109 90.0305 106.05 89.8592C106 89.6879 105.907 89.5721 105.769 89.5116C105.631 89.4512 105.405 89.4109 105.089 89.3907V89.0885C105.7 89.1187 106.572 89.1339 107.704 89.1339C108.827 89.1339 109.655 89.1187 110.187 89.0885V89.3907Z" fill="#FE7C0B"/>
<path d="M120.057 97.2488C120.057 98.2764 120.092 99.1226 120.161 99.7875C119.491 99.7573 118.363 99.7422 116.777 99.7422C114.473 99.7422 112.749 99.7573 111.606 99.7875V99.4853C111.922 99.4652 112.148 99.4249 112.286 99.3644C112.434 99.304 112.532 99.1881 112.581 99.0168C112.631 98.8456 112.655 98.5685 112.655 98.1857V90.6903C112.655 90.3075 112.626 90.0305 112.567 89.8592C112.517 89.6879 112.424 89.5721 112.286 89.5116C112.148 89.4512 111.922 89.4109 111.606 89.3907V89.0885C112.749 89.1187 114.473 89.1339 116.777 89.1339C118.225 89.1339 119.254 89.1187 119.865 89.0885C119.796 90.0355 119.762 90.8818 119.762 91.6273C119.762 92.0907 119.777 92.4534 119.806 92.7153H119.466C119.289 91.5467 118.959 90.7105 118.476 90.2068C117.994 89.693 117.418 89.4361 116.748 89.4361H116.556C116.29 89.4361 116.093 89.4613 115.965 89.5116C115.847 89.5519 115.763 89.6376 115.714 89.7685C115.674 89.8894 115.654 90.096 115.654 90.3881V94.2567H115.802C116.314 94.2567 116.753 94.0502 117.117 93.6371C117.482 93.2241 117.713 92.7657 117.812 92.262H118.151C118.122 92.6851 118.107 93.1586 118.107 93.6824V94.4078C118.107 94.9216 118.137 95.6369 118.196 96.5537H117.856C117.767 95.9794 117.536 95.5059 117.161 95.1332C116.797 94.7503 116.344 94.5589 115.802 94.5589H115.654V98.4879C115.654 98.7801 115.674 98.9917 115.714 99.1226C115.763 99.2435 115.847 99.3292 115.965 99.3795C116.093 99.4198 116.29 99.44 116.556 99.44H117.043C117.615 99.44 118.156 99.1579 118.668 98.5937C119.181 98.0195 119.545 97.1077 119.762 95.8585H120.102C120.072 96.2212 120.057 96.6846 120.057 97.2488Z" fill="#FE7C0B"/>
<path d="M135.236 89.3907C134.921 89.4109 134.689 89.4512 134.542 89.5116C134.404 89.5721 134.31 89.6879 134.261 89.8592C134.212 90.0305 134.187 90.3075 134.187 90.6903V98.1857C134.187 98.5685 134.212 98.8456 134.261 99.0168C134.32 99.1881 134.419 99.304 134.557 99.3644C134.694 99.4249 134.921 99.4652 135.236 99.4853V99.7875C134.635 99.7573 133.764 99.7422 132.621 99.7422C131.429 99.7422 130.553 99.7573 129.991 99.7875V99.4853C130.346 99.4652 130.602 99.4249 130.76 99.3644C130.927 99.304 131.04 99.1881 131.099 99.0168C131.158 98.8456 131.188 98.5685 131.188 98.1857V90.4637L127.627 99.7724H127.391L123.225 90.0708V96.8257C123.225 97.5712 123.254 98.1101 123.313 98.4426C123.372 98.765 123.5 99.0017 123.697 99.1528C123.904 99.304 124.244 99.4148 124.717 99.4853V99.7875C124.313 99.7573 123.761 99.7422 123.062 99.7422C122.54 99.7422 122.131 99.7573 121.836 99.7875V99.4853C122.141 99.4148 122.368 99.309 122.516 99.168C122.663 99.0168 122.762 98.7902 122.811 98.4879C122.86 98.1857 122.885 97.7324 122.885 97.1279V90.6903C122.885 90.3075 122.855 90.0305 122.796 89.8592C122.747 89.6879 122.653 89.5721 122.516 89.5116C122.378 89.4512 122.151 89.4109 121.836 89.3907V89.0885C122.131 89.1187 122.54 89.1339 123.062 89.1339C124.244 89.1339 125.264 89.1187 126.12 89.0885L128.913 95.511L131.336 89.1339H132.621C133.764 89.1339 134.635 89.1187 135.236 89.0885V89.3907Z" fill="#FE7C0B"/>
<path d="M141.749 89.3907C141.434 89.4109 141.203 89.4512 141.055 89.5116C140.917 89.5721 140.823 89.6879 140.774 89.8592C140.725 90.0305 140.7 90.3075 140.7 90.6903V98.1857C140.7 98.5685 140.725 98.8456 140.774 99.0168C140.833 99.1881 140.932 99.304 141.07 99.3644C141.208 99.4249 141.434 99.4652 141.749 99.4853V99.7875C141.178 99.7573 140.356 99.7422 139.282 99.7422C138.09 99.7422 137.214 99.7573 136.652 99.7875V99.4853C136.967 99.4652 137.194 99.4249 137.332 99.3644C137.48 99.304 137.578 99.1881 137.627 99.0168C137.677 98.8456 137.701 98.5685 137.701 98.1857V90.6903C137.701 90.3075 137.672 90.0305 137.612 89.8592C137.563 89.6879 137.47 89.5721 137.332 89.5116C137.194 89.4512 136.967 89.4109 136.652 89.3907V89.0885C137.214 89.1187 138.09 89.1339 139.282 89.1339C140.346 89.1339 141.168 89.1187 141.749 89.0885V89.3907Z" fill="#FE7C0B"/>
<path d="M148.76 88.877C149.351 88.877 149.854 88.9626 150.267 89.1339C150.681 89.3051 151.085 89.5469 151.479 89.8592C151.577 89.9499 151.671 89.9952 151.76 89.9952C151.957 89.9952 152.085 89.693 152.144 89.0885H152.484C152.444 89.8038 152.424 91.0631 152.424 92.8664H152.085C152.016 92.0605 151.888 91.4258 151.701 90.9624C151.513 90.4989 151.188 90.1111 150.725 89.7988C150.263 89.4965 149.805 89.3454 149.351 89.3454C148.327 89.3454 147.608 89.8491 147.194 90.8566C146.781 91.864 146.574 93.0679 146.574 94.4682C146.574 95.8686 146.781 97.0725 147.194 98.0799C147.608 99.0874 148.327 99.5911 149.351 99.5911C149.805 99.5911 150.263 99.44 150.725 99.1377C151.188 98.8456 151.513 98.4527 151.701 97.959C151.888 97.4654 152.016 96.7652 152.085 95.8585H152.424C152.424 97.7424 152.444 99.0521 152.484 99.7875H152.144C152.114 99.4652 152.07 99.2385 152.011 99.1075C151.962 98.9665 151.888 98.896 151.789 98.896C151.71 98.896 151.607 98.9362 151.479 99.0168C151.036 99.3392 150.612 99.586 150.208 99.7573C149.805 99.9185 149.317 99.9991 148.746 99.9991C147.633 99.9991 146.658 99.7825 145.82 99.3493C144.983 98.9161 144.333 98.2915 143.87 97.4755C143.407 96.6494 143.176 95.6671 143.176 94.5287C143.176 93.4205 143.412 92.4383 143.885 91.5819C144.358 90.7256 145.018 90.0607 145.865 89.5872C146.712 89.1137 147.677 88.877 148.76 88.877Z" fill="#FE7C0B"/>
<path d="M163.281 98.5182C163.409 98.8405 163.547 99.0823 163.694 99.2435C163.852 99.3946 164.005 99.4752 164.152 99.4853V99.7875C163.443 99.7573 162.547 99.7422 161.463 99.7422C160.34 99.7422 159.513 99.7573 158.981 99.7875V99.4853C159.356 99.4652 159.621 99.4198 159.779 99.3493C159.937 99.2687 160.015 99.1327 160.015 98.9413C160.015 98.7599 159.956 98.5182 159.838 98.2159L158.966 95.7376H155.982L155.731 96.4176C155.406 97.274 155.243 97.9288 155.243 98.3822C155.243 98.7952 155.357 99.0773 155.583 99.2284C155.81 99.3795 156.145 99.4652 156.588 99.4853V99.7875C155.849 99.7573 155.204 99.7422 154.652 99.7422C154.189 99.7422 153.81 99.7573 153.515 99.7875V99.4853C153.761 99.445 153.992 99.2889 154.209 99.0168C154.426 98.7448 154.647 98.3116 154.874 97.7172L158.154 89.0885C158.469 89.1087 158.73 89.1187 158.937 89.1187C159.134 89.1187 159.39 89.1087 159.705 89.0885L163.281 98.5182ZM158.863 95.4354L157.519 91.6575L156.1 95.4354H158.863Z" fill="#FE7C0B"/>
<path d="M170.015 89.3907C169.661 89.4109 169.4 89.4512 169.232 89.5116C169.075 89.5721 168.966 89.6879 168.907 89.8592C168.848 90.0305 168.819 90.3075 168.819 90.6903V98.4879C168.819 98.77 168.838 98.9765 168.878 99.1075C168.917 99.2385 168.986 99.3292 169.085 99.3795C169.183 99.4198 169.346 99.44 169.572 99.44H170.06C170.404 99.44 170.779 99.2637 171.183 98.9111C171.586 98.5585 171.951 98.095 172.276 97.5208C172.601 96.9365 172.818 96.332 172.926 95.7074H173.266C173.236 96.0701 173.221 96.5335 173.221 97.0977C173.221 98.1857 173.256 99.0823 173.325 99.7875C172.655 99.7573 171.527 99.7422 169.942 99.7422C167.637 99.7422 165.913 99.7573 164.771 99.7875V99.4853C165.086 99.4652 165.312 99.4249 165.45 99.3644C165.598 99.304 165.696 99.1881 165.746 99.0168C165.795 98.8456 165.82 98.5685 165.82 98.1857V90.6903C165.82 90.3075 165.79 90.0305 165.731 89.8592C165.682 89.6879 165.588 89.5721 165.45 89.5116C165.312 89.4512 165.086 89.4109 164.771 89.3907V89.0885C165.332 89.1187 166.209 89.1339 167.4 89.1339C168.533 89.1339 169.405 89.1187 170.015 89.0885V89.3907Z" fill="#FE7C0B"/>
<path d="M178.658 88.877C179.219 88.877 179.673 88.9324 180.017 89.0432C180.372 89.1439 180.717 89.29 181.051 89.4814C181.16 89.5419 181.253 89.5922 181.332 89.6325C181.421 89.6728 181.495 89.693 181.554 89.693C181.642 89.693 181.711 89.6426 181.761 89.5419C181.81 89.431 181.849 89.2598 181.879 89.0281H182.219C182.169 89.7534 182.145 90.9825 182.145 92.7153H181.805C181.766 92.1411 181.637 91.592 181.421 91.0681C181.204 90.5443 180.909 90.1161 180.534 89.7836C180.16 89.4512 179.727 89.285 179.234 89.285C178.781 89.285 178.417 89.4109 178.141 89.6628C177.865 89.9045 177.727 90.2471 177.727 90.6903C177.727 91.0329 177.801 91.3301 177.949 91.5819C178.097 91.8338 178.313 92.0806 178.599 92.3224C178.885 92.5541 179.352 92.9017 180.002 93.3651C180.062 93.3953 180.116 93.4306 180.165 93.4709C180.224 93.5112 180.278 93.5515 180.328 93.5918C180.869 93.9746 181.303 94.3171 181.628 94.6194C181.953 94.9115 182.214 95.2541 182.411 95.647C182.618 96.0399 182.721 96.4932 182.721 97.007C182.721 97.6618 182.539 98.2159 182.174 98.6693C181.82 99.1126 181.337 99.445 180.726 99.6666C180.116 99.8883 179.441 99.9991 178.702 99.9991C178.102 99.9991 177.599 99.9487 177.195 99.848C176.801 99.7472 176.432 99.6112 176.087 99.44C175.871 99.2989 175.703 99.2284 175.585 99.2284C175.496 99.2284 175.427 99.2838 175.378 99.3946C175.329 99.4954 175.289 99.6616 175.26 99.8933H174.92C174.96 99.2083 174.979 97.7475 174.979 95.511H175.319C175.388 96.7098 175.634 97.682 176.058 98.4275C176.481 99.173 177.131 99.5457 178.008 99.5457C178.55 99.5457 178.978 99.4148 179.293 99.1528C179.618 98.8909 179.781 98.5282 179.781 98.0648C179.781 97.4906 179.604 97.002 179.249 96.599C178.904 96.1859 178.363 95.7276 177.624 95.2238C177.033 94.8209 176.56 94.4682 176.206 94.166C175.851 93.8638 175.56 93.5162 175.334 93.1233C175.107 92.7203 174.994 92.2569 174.994 91.733C174.994 91.0984 175.161 90.5695 175.496 90.1463C175.831 89.7131 176.274 89.3958 176.826 89.1943C177.387 88.9827 177.998 88.877 178.658 88.877Z" fill="#FE7C0B"/>
<path d="M49.7021 12.7109L50.4965 12.8102L55.4618 14.2998L59.0368 15.4915L62.4131 16.7824L65.1937 17.9741L67.1798 18.9671L68.1728 19.6623L68.2721 19.9602L67.7756 20.9532L67.2791 22.2442L66.7825 23.2373L66.0874 25.5213L65.3923 28.5997L65.1937 30.1886L65.0944 31.7775V35.4518L65.3923 38.0337L65.7895 40.1191L66.3853 42.3038L66.6832 43.2968L67.2791 44.4885L67.6763 45.4815L67.7756 45.8788H67.9742L68.6693 47.269L69.4638 48.6593L70.0596 49.7517L70.4568 50.2482L70.7547 50.7447L71.0527 51.0426L71.8471 51.6384L73.1381 52.9294L73.9325 53.8232L74.3297 54.2204L75.0249 55.0148L75.9186 56.1072L77.2096 57.696L79.3943 60.4766L80.3873 61.7675L81.3804 63.1578L82.6713 64.9453L84.7567 68.2224L85.9484 70.2085L87.2393 72.4925L88.431 74.6772L89.6227 76.564L89.722 76.9612L90.0199 77.0605L90.2185 77.7556L90.1192 78.1528L89.8213 78.4508V78.9473L90.0199 79.0466V79.2452L88.8282 79.0466L87.5373 78.7487H86.6435L86.5442 78.6494L85.5512 78.5501L85.3526 78.4508L85.0546 78.3515L84.5581 78.2522H83.5651V78.0535L82.6713 78.1528L82.572 78.0535L80.5859 77.8549H79.1957L78.997 77.7556L74.429 77.557H69.6624L64.002 77.8549L60.0298 78.2522L54.866 79.0466L54.0715 79.3445L52.3833 79.4438L51.1917 79.1459L49.1063 78.4508L47.1202 77.6563L43.9424 76.0674L42.3535 75.1737L40.9633 74.1807L39.6723 73.1876L39.0765 72.6911L38.3814 71.8966L37.6862 71.2015L36.3953 69.5133L35.4022 68.1231L34.5085 66.6335L33.0189 63.7536L32.2245 61.7675L31.3307 59.4835L30.6356 57.4974L29.146 53.2273L28.5502 51.3405L28.3516 50.3475L28.4509 49.7517L28.9474 49.2551L29.4439 48.9572L30.1391 48.7586L31.0328 48.4607L32.0258 48.1628L33.8133 47.7656L34.9057 47.5669L35.1043 47.6663V47.4676L36.0973 47.3683L36.4946 47.269L37.1897 47.1697V47.0704L37.8848 47.1697V46.9711H38.6793V46.8718L40.864 46.6732L43.4459 46.5739H52.8799V46.6732L56.1569 46.8718L57.6465 47.0704L59.5333 47.4676L62.9097 48.2621L64.2999 48.6593L66.0874 49.1558L67.577 49.4537L69.1659 49.9503L69.6624 50.1489L69.5631 49.6523L67.9742 48.8579L64.4985 47.0704L62.1152 46.276L59.9305 45.6802L55.9583 44.7864L53.1778 44.2899L50.5959 43.992L49.9007 42.8996L48.4111 38.7288L47.5174 36.2462L46.9216 33.9622L46.5244 31.3803V29.1955L46.9216 25.9185L47.8153 20.2581L48.6098 16.2859L49.2056 13.704L49.7021 12.7109Z" fill="#FCFCFD"/>
<path d="M124.379 7.8457L124.777 7.94501L125.174 8.54084L125.869 10.5269L126.564 12.4137L127.756 16.4852L128.451 19.0672L129.245 22.94L129.642 25.4227L130.04 29.0969L130.238 32.2747V38.9281L129.94 41.7087L129.444 44.3899L128.649 47.4683L127.656 49.8517L126.465 52.1357L125.372 53.7246L124.28 55.1148L123.386 56.1079L122.493 57.2002L120.308 59.3849H120.109V59.5835L119.315 60.2787L118.322 61.1724H118.123V61.371L117.13 62.1655L116.137 63.0592L115.045 63.953L113.754 65.0453L110.179 67.7265L108.491 68.8189L107.001 69.7126L104.916 70.9043L103.525 71.8973L102.433 72.7911L101.837 73.7841L101.738 73.9827L103.327 73.7841L104.916 73.1883L107.2 71.9967L110.477 70.3085L112.065 69.3154L114.052 67.9251L115.839 66.6342L117.428 65.3432L118.52 64.4495L119.712 63.3571L120.506 62.662L120.904 62.4634L121.003 62.1655L121.797 61.4703L123.386 59.9808L124.578 58.6898L125.273 57.9947L126.167 56.9023L127.259 55.7107L128.153 54.6183L128.947 53.6252L130.437 51.3412L131.43 49.6531L132.423 47.7663L133.217 45.7802L133.615 45.6809L133.913 45.5816L136.296 45.6809L141.063 45.9788L145.333 46.376L149.007 46.8725L151.192 47.2697L152.483 47.4683L154.071 47.9649L154.667 48.3621L154.866 48.7593L154.667 49.7524L153.972 51.8378L152.88 54.7176L151.49 58.4912L150.794 60.4773L149.702 62.9599L148.908 64.5488L148.014 66.1377L147.021 67.6272L145.829 69.2161L144.935 70.3085L143.744 71.5994L142.751 72.4932L141.658 73.3869L139.871 74.5786L137.785 75.6709L135.899 76.4654L132.82 77.5577L131.827 77.7563H129.841L119.811 76.7633L117.031 76.5647H111.47L105.511 76.8626L102.036 77.1605L97.6663 77.657L94.7864 78.1535H93.8927L93.2969 77.8556L93.3962 77.2598L94.7864 75.2737L95.8788 73.3869L96.9712 71.1029L97.9642 69.1168L99.2552 66.9321L100.248 65.4425L100.844 64.3502L101.638 63.2578L102.632 61.7682L103.327 60.8745L104.22 59.5835L105.313 58.1933L106.207 57.1009L107.299 55.81L107.994 55.0155L109.186 53.6252L110.377 52.3343L111.072 51.5398L112.363 49.951L113.356 48.66L114.35 47.1704L115.144 45.8795L115.938 44.4892L117.031 41.9073L117.428 40.4177L118.024 36.7434L118.222 34.7573V31.381L118.024 28.6004L117.627 26.515L116.733 23.6352L115.839 21.4505L114.548 18.7692L113.356 16.5845L112.363 15.095L112.165 14.6977V13.804H112.363V13.3075L113.952 12.513L116.832 11.3214L119.215 10.229L120.407 9.63319L122.79 8.54084L123.982 7.94501L124.379 7.8457Z" fill="#FCFCFD"/>
<path d="M99.4549 10.7246L99.9514 10.8239L100.647 11.6184L101.441 12.9093L102.037 13.8031L102.732 14.4982L103.427 15.2926L104.321 16.0871L104.42 16.7822L104.718 17.378V17.5766L105.115 17.7753L105.81 18.5697L106.803 19.662L107.896 21.2509L109.385 23.8329L110.776 26.6134L111.57 28.5995L112.166 30.387L112.563 32.1745L112.861 34.5578L112.96 35.8487V39.7216L112.662 42.5022L112.265 44.2897L111.669 45.9778L110.875 47.5667L109.584 49.4535L108.392 50.8438L107.697 51.6382L106.803 52.6313L105.91 53.7236L104.619 55.2132L103.427 56.6035L102.533 57.6958L101.143 59.5826L99.9514 61.3701L99.0577 62.6611L97.9653 64.3492L96.5751 66.6332L95.7806 68.0235L93.9931 71.2013L92.2057 74.6769L91.3119 76.1665L91.1133 76.7623L90.9147 76.5637L90.8154 75.7693L90.4182 74.4783L89.6237 72.8895L87.9355 69.6124L86.8432 67.6263L85.155 64.8458L83.9634 63.0583L82.7717 61.3701L81.58 59.7812L80.6863 58.6889L79.4946 57.2986L78.2037 55.809L77.2106 54.7167L76.5155 53.9222L75.6217 52.9292L74.728 51.8368L73.6356 50.5459L72.3447 48.6591L71.5502 47.0702L70.8551 45.1834L70.16 42.8001L69.6635 40.6154L69.4648 38.9272V35.2529L69.7628 33.0682L70.3586 30.387L70.9544 28.5002L71.4509 27.4078L71.9475 26.1169L72.2454 25.6203L72.5433 24.8259H72.7419L72.8412 24.3294L73.5363 23.1377L73.6356 22.9391L74.1322 23.0384L75.4231 24.0315L77.012 25.3224L78.2037 26.3155L79.1967 27.1099L80.6863 28.5002L81.9773 29.6918L83.4668 31.2807L84.162 32.0752L85.2543 33.664L86.5453 36.0473L87.1411 37.239L87.9355 39.4237L88.4321 41.1119L89.2265 45.9778L90.021 51.1417L90.2196 52.6313L90.5175 55.3125L90.6168 58.6889L90.5175 61.4694L90.3189 63.8527L90.2196 64.4485V66.5339L90.4182 67.7256L90.8154 68.1228L91.1133 68.0235V67.8249L91.4112 67.527H91.6098L91.8084 67.0305L92.5036 65.243L92.8015 63.7534L93.0001 60.8736L93.0994 58.5896V55.0146L92.9008 52.1347L92.5036 49.1556L91.8084 44.8855L91.3119 41.807L90.6168 38.9272L89.5244 35.3522L88.6307 33.2668L87.8362 31.6779L86.8432 29.8904L86.2474 28.9967L85.155 27.3085L84.2613 26.1169L83.1689 24.9252L82.2752 24.0315L81.4807 23.3363L79.0974 20.953L78.303 20.2579L76.6148 18.5697L76.7141 18.1725L77.1113 17.6759L77.6078 17.1794L78.0051 16.9808L78.2037 16.5836L78.5016 16.1864H78.7002L78.8988 15.6899L79.3953 15.094H79.5939L79.7926 14.6968L80.6863 13.5051L81.9773 11.519L82.2752 11.1218L82.871 11.2211L84.2613 12.3135L85.4529 13.4058V13.6045L85.8501 13.8031L86.7439 14.5975V14.7961L87.1411 14.9947L87.5383 15.2926V15.4912L87.9355 15.6899L88.5314 16.385L89.5244 16.8815L89.8223 17.0801H89.6237V17.6759L88.9286 18.8676L87.9355 20.1586L86.446 22.3433L85.6515 23.9322L84.7578 25.6203L84.8571 26.1169L85.3536 26.2162L86.1481 25.4217L87.0418 24.2301L88.3328 22.5419L89.5244 20.953L90.4182 19.96L91.2126 19.2648H91.5105L92.4043 20.6551V20.8537H92.6029L93.3973 21.9461L93.6952 22.244V22.4426H93.8938L94.0925 22.9391H94.2911L95.1848 24.2301L96.3765 25.8189L97.0716 26.812V27.1099H97.2702L97.4688 27.7057H97.6674L98.2633 28.6988L98.8591 29.8904L99.7528 31.4793L101.044 34.1606L101.838 36.0473L102.732 38.4307L103.725 41.2112L104.321 43.5945L104.817 45.6799L105.413 47.1695V47.4674L105.711 47.1695L106.009 46.4744L106.208 44.6869V43.7931L105.91 42.1049L105.314 39.8209L104.122 36.246L103.03 33.5647L101.838 30.6849L100.845 28.5002L100.349 27.5071L99.6535 25.9183L98.2633 23.9322L97.2702 22.5419L96.5751 21.4495L95.6813 20.2579L94.6883 18.8676L93.5959 17.4773L93.1987 17.0801L93.5959 16.4843L94.3904 15.5905L95.1848 14.8954L96.7737 13.3065L97.5681 12.6114L99.4549 10.7246Z" fill="#FCFCFD"/>
<path d="M79.5942 3.87305L80.19 4.07166L81.2824 4.8661L82.9706 6.15706L83.8643 6.9515L84.9567 7.84524L86.4462 9.23551L87.7372 10.5265L88.4323 11.3209L89.9219 12.9098L91.3122 14.3001L91.4115 14.7966L91.1136 15.2931L91.0143 15.7896L90.4184 16.2862L89.8226 16.9813L89.2268 16.882L88.333 16.2862L87.7372 15.591L87.5386 15.4917V15.2931L87.1414 15.0945L86.6449 14.598L85.6518 13.7042L85.1553 13.2077L84.0629 12.2147L82.8713 11.3209L82.2754 11.2216L80.9845 13.2077L80.0907 14.3994L79.5942 15.0945H79.3956L79.197 15.4917L78.7005 16.1869H78.5019L78.3032 16.5841L77.8067 17.0806L77.3102 17.6764L76.8137 18.1729L76.7144 18.5702L78.8991 20.7549L79.6935 21.45L81.6796 23.4361L83.1692 24.8264L84.0629 25.7201L85.2546 27.309L86.3469 28.9972L87.4393 30.7847L88.4323 32.5722L89.5247 35.0548L90.3191 37.6367L91.0143 40.02L91.6101 42.8999L92.1066 46.1769L92.8018 50.447L93.0997 53.3269L93.199 55.0151V58.59L93.0004 62.4629L92.8018 64.3497L92.4045 65.8393L91.908 67.0309L91.6101 67.5275H91.4115L91.3122 67.8254H91.1136V68.024L90.7164 68.2226L90.3191 67.7261L90.1205 66.5344V64.449L90.3191 62.8601L90.4184 61.4699L90.5177 58.59L90.4184 55.313L90.0212 51.5394L89.4254 47.9644L88.4323 41.6089L88.0351 40.02L87.0421 37.2395L86.2476 35.6506L84.8574 33.168L83.5664 31.4798L82.4741 30.3874L81.7789 29.593L80.0907 28.0041L78.8991 26.9118L77.6081 25.9187L76.2178 24.7271L74.5297 23.4361L73.9338 23.0389L73.6359 23.1382L72.8415 24.5285L72.7422 24.8264H72.5436L72.2457 25.8194L71.9477 26.3159L71.4512 27.6069L70.8554 28.9972L70.1602 31.5791L69.6637 34.2603L69.5644 35.2534V38.9277L69.8623 41.0131L70.5575 43.8929L71.5505 46.8721L72.345 48.4609L73.0401 49.5533L74.2317 51.1422L75.4234 52.5324L76.3172 53.5255L77.0123 54.3199L78.2039 55.7102L79.2963 56.9018L80.19 57.9942L81.0838 58.9873L82.0768 60.2782L83.3678 62.0657L84.7581 64.0518L85.9497 66.0379L86.7442 67.3289L87.6379 68.9177L88.8296 71.2018L89.8226 73.0885L90.6171 74.6774L91.0143 76.2663V77.2593L90.7164 78.5503L90.915 79.8413L91.4115 80.9336L91.5108 81.1322V81.7281L91.0143 81.8274H89.7233L89.4254 81.7281L88.8296 81.6288H88.333L88.1344 81.5295L87.0421 81.4302L86.7442 81.3308L86.049 81.2315H85.5525L85.3539 81.1322L85.056 81.0329H85.2546V80.8343L83.1692 80.9336L82.9706 80.8343H81.7789L78.2039 80.6357L75.5227 80.5364L75.3241 80.4371L63.4075 80.5364L60.2298 80.735H59.0381V80.8343H58.0451V80.9336L56.8534 81.1322H55.8603V81.2315H54.9666L54.5694 81.3308L54.0729 81.4302L53.8742 81.5295L52.2854 81.4302V81.6288H50.4979V81.5295H49.4055L49.0083 81.3308L48.5118 81.2315H47.618L47.3201 81.0329L46.3271 80.9336L46.2278 80.735L44.1424 80.0399L42.1563 79.2454L38.5813 77.458V77.2593L38.0848 77.16L37.5882 76.8621V76.6635L37.0917 76.5642L35.9994 75.8691L35.8008 75.7698V75.5712L35.4035 75.3726L34.4105 74.6774L33.914 74.1809L33.1195 73.4858L32.623 72.8899L32.1265 72.3934L30.9348 71.1024L30.2397 70.2087L30.0411 69.8115H29.8425L28.7501 68.2226L28.1543 67.3289L26.764 64.9455L25.9696 63.3567L25.4731 62.2643L24.9765 60.9733L24.5793 60.0796L23.8842 58.0935L23.5863 57.2991L21.8981 52.3338L20.8057 49.0568L20.5078 47.9644L20.6071 47.4679L22.0967 46.7728L24.0828 46.0776L28.055 45.0846L30.4383 44.588L33.914 44.0915L38.482 43.595L39.9716 43.4957H43.9438L45.7312 43.595L47.0222 43.6943L49.2069 43.8929L48.4125 42.5026L47.2208 40.8145L46.5257 39.8214L45.7312 38.5304L44.9368 36.9416L44.2417 35.1541L43.3479 32.4728L42.7521 29.9902L42.3549 27.1104L42.2556 26.018V21.6486L42.5535 18.3716L43.05 15.2931L44.1424 9.73203L45.0361 5.36262L45.2347 4.9654H46.7243L49.6041 5.46192L52.0868 6.05775L53.9736 6.65358L55.9597 7.34872L58.5416 8.34177L62.0172 9.83134L65.4929 11.5195L67.3797 12.5126L69.5644 13.7042L71.5505 14.6973L71.9477 14.598L72.047 14.2008L72.9408 12.6119L73.8345 11.2216L73.9338 11.023H74.1324L74.3311 10.5265L74.9269 9.73203L75.0262 9.53342H75.2248L75.4234 9.13621L76.6151 7.64663L76.7144 7.44802H76.913L77.1116 7.0508L78.0053 5.85914H78.2039L78.4025 5.46192L79.3956 4.17096L79.5942 3.87305ZM49.7034 12.7112L49.2069 13.7042L48.2139 18.1729L47.4194 22.6417L46.625 28.1034L46.5257 29.1958V31.3805L46.9229 33.9624L47.5187 36.2464L48.6111 39.3249L49.9021 42.8999L50.5972 43.9922L53.8742 44.3894L55.9597 44.7867L59.0381 45.4818L61.4214 46.0776L63.4075 46.6734L64.8971 47.2693L68.77 49.2554L69.6637 49.7519V50.1491L68.2735 49.6526L66.6846 49.2554L64.5992 48.7588L63.3082 48.3616L60.4284 47.6665L58.1444 47.17L57.1513 46.9714L54.9666 46.7728L52.8812 46.6734V46.5741H43.4472L40.8653 46.6734L38.6806 46.8721L38.5813 46.9714H37.8862V47.17L37.191 47.0707L37.0917 47.17L36.198 47.2693L35.9001 47.3686L35.1056 47.4679V47.6665L34.7084 47.5672L32.0272 48.163L30.2397 48.6595L29.9418 48.8582L29.2466 49.0568L28.5515 49.5533L28.3529 50.1491L28.4522 50.8442L29.048 52.9297L30.0411 55.8095L31.1334 58.9873L31.4313 59.7817L32.7223 63.0588L33.4174 64.5483L34.7084 67.0309L36.0987 69.1163L37.0917 70.4073L37.9855 71.4997L38.6806 72.2941L40.2695 73.6844L41.7591 74.7767L43.7452 75.9684L46.9229 77.5573L48.5118 78.2524L50.5972 78.9475L51.4909 79.1461L52.3847 79.4441L54.0729 79.3447L54.8673 79.0468L60.8256 78.1531L64.0033 77.8552L69.6637 77.5573H74.4304L78.9984 77.7559L79.2963 77.8552H80.5873L82.5734 78.0538L82.772 78.1531L83.5664 78.0538V78.2524H84.5595L85.056 78.3517L85.3539 78.451L85.9497 78.5503L86.6449 78.6496V78.7489H87.5386L89.2268 79.1461L90.0212 79.2454V79.0468L89.8226 78.9475L89.9219 78.2524L90.1205 78.1531L90.2198 77.6566L89.9219 76.9614H89.7233L89.5247 76.3656L88.333 74.4788L87.1414 72.2941L85.8504 70.0101L84.4601 67.7261L82.9706 65.4421L82.1761 64.2504L80.7859 62.3636L79.6935 60.874L77.5088 58.0935L76.1185 56.4053L75.0262 55.0151L74.2317 54.1213L73.5366 53.3269L72.7422 52.6317L72.047 51.8373L71.1533 51.0429L70.7561 50.8442L70.5575 50.447L70.1602 49.8512L69.763 49.1561L68.8693 47.5672L68.1741 46.3755L67.9755 45.879H67.7769L67.5783 45.2832L67.0818 44.0915L66.6846 43.1978L66.2874 41.9068L65.7908 40.1193L65.4929 38.6298L65.195 36.3457L65.0957 34.7569V30.9833L65.2943 29.1958L65.6915 27.2097L66.0887 25.4222L66.7839 23.2375L67.479 21.7479L67.8762 20.8542L68.2735 19.8611L67.7769 19.3646L66.3867 18.5702L64.1026 17.4778L61.4214 16.3855L58.7402 15.3924L55.1652 14.2008L50.4979 12.8105L49.7034 12.7112Z" fill="#649C1B"/>
<path d="M103.326 3.77344L103.723 3.97205L105.907 6.75258L106.702 7.74563L107.794 9.1359L108.489 9.93034L108.688 10.0296L108.986 10.5262L109.88 11.4199L110.674 12.413L111.766 13.9025L112.362 14.8956L113.256 16.2859L114.15 17.8747L115.639 20.7546L116.732 23.3365L117.526 25.8191L117.923 27.408L118.122 28.5997L118.321 31.3802V34.7566L118.023 37.3385L117.526 40.4169L117.129 41.9065L116.235 43.9919L115.441 45.5808L114.448 47.1697L113.653 48.3613L112.66 49.6523L111.568 51.0426L110.575 52.1349L109.681 53.2273L108.986 53.9224L108.092 55.0148L107.099 56.1071L105.312 58.2918L104.319 59.5828L103.326 60.973L102.73 61.7675L101.042 64.2501L100.446 65.2432L99.7506 66.3355L98.9562 67.6265L97.9631 69.3147L95.4805 74.2799L94.4874 75.8688L93.4944 77.259L93.3951 77.8549L93.8916 78.0535H94.7853L98.3603 77.4576L102.829 76.9611L107.496 76.6632L111.469 76.4646H117.03L120.903 76.7625L129.84 77.6563H131.826L133.415 77.259L136.692 76.0674L139.572 74.6771L141.359 73.4855L142.253 72.7903L143.445 71.698L144.239 71.0028L145.133 70.0098L146.424 68.3216L147.616 66.6334L148.807 64.548L149.602 62.9591L150.495 60.973L151.29 58.8876L152.084 56.6036L153.772 52.0356L154.368 50.4467L154.765 49.0565L154.666 48.5599L154.269 48.1627L153.177 47.7655L150.396 47.0704L147.218 46.5738L142.65 46.0773L139.175 45.7794L135.004 45.3822L134.706 45.1836L134.607 44.5877L135.004 44.0912L135.699 43.5947L136.891 43.2968H142.551L146.424 43.5947L150.694 44.0912L154.07 44.687L156.752 45.2829L160.525 46.3752L162.611 47.0704L163.008 47.269L162.908 48.262L161.717 51.837L159.731 57.2988L158.44 60.8737L157.447 63.2571L156.255 65.6404L155.361 67.1299L154.368 68.6195L153.276 70.0098L152.184 71.3008L150.992 72.5917L149.502 74.0813L148.41 74.975L147.119 75.9681L145.431 77.0604L143.048 78.3514L140.565 79.5431L138.877 80.1389L136.096 80.834L134.706 81.0326H130.336L122.69 80.3375L116.93 80.0396H111.469L105.61 80.3375L102.134 80.6354L98.6582 81.0326L95.5798 81.5292L94.5867 81.7278L93.4944 81.8271H92.402L91.6076 81.5292L91.1111 80.5361L90.8132 79.841L90.6145 78.55L91.1111 76.4646L91.5083 75.6702L92.3027 74.2799L93.2958 72.2938L94.4874 70.1091L95.0833 69.116L95.6791 68.0237L96.5728 66.4348L97.6652 64.6473L98.6582 63.1577L99.3534 62.0654L100.049 61.0723L101.042 59.5828L102.432 57.696L103.723 56.2064L104.617 55.1141L105.907 53.6245L107.099 52.2342L108.192 51.0426L109.085 49.9502L109.979 48.7585L110.873 47.3683L111.667 45.7794L112.362 43.5947L112.66 41.7079L112.859 39.7218V35.8489L112.561 32.7705L112.164 30.7844L111.568 28.8976L110.873 27.1101L109.681 24.6275L108.688 22.7407L107.496 20.7546L106.503 19.4636L105.61 18.4706L104.914 17.6761L104.517 17.2789L104.319 16.7824L104.219 16.0872L102.73 14.697L102.035 13.9025L101.637 13.406L100.744 11.9164L100.049 11.0227L99.8499 10.8241L99.3534 10.9234L97.268 13.0088H97.0694L96.9701 13.3067L96.1756 14.0018L94.0902 16.0872L93.2958 16.981L93.3951 17.2789L93.8916 17.6761L94.8847 18.9671L95.7784 20.258L96.9701 21.8469L97.9631 23.4358L98.9562 24.7268L99.9492 26.3156L100.843 28.401L101.637 29.9899L102.63 32.3732L103.921 35.4517L105.014 38.5301L105.808 41.2114L106.205 42.9989L106.305 43.7933V44.687L106.106 46.4745L105.61 47.4676H105.411L104.716 45.6801L104.219 43.5947L103.524 40.9135L102.134 37.0406L101.141 34.6573L99.8499 31.8767L98.8568 29.9899L98.261 28.9969L97.7645 28.0038L97.6652 27.7059H97.4666L97.268 27.1101H97.0694L96.6721 26.4149L95.6791 25.0247L94.5867 23.5351L94.2888 23.1379V22.9393H94.0902L93.8916 22.4428H93.693L92.6006 21.0525V20.8539H92.402L91.5083 19.4636V19.265L90.8132 19.6622L89.8201 20.6553L88.4298 22.5421L87.0396 24.3295L86.0465 25.6205L85.3514 26.3156L84.8549 26.2163L84.6562 26.0177L84.7556 25.5212L86.3444 22.3434L87.6354 20.4567L88.8271 18.8678L89.5222 17.6761L89.6215 17.0803H89.8201L90.0187 16.6831L90.6145 15.9879L91.6076 15.1935L92.3027 14.4984L94.0902 12.3137L95.0833 11.3206L95.7784 10.5262L96.1756 10.1289H96.3742L96.5728 9.73173L97.268 9.0366L98.0624 8.34146L98.7575 7.64633L99.552 6.95119L100.446 6.15675L101.538 5.26301L102.928 4.07135L103.326 3.77344Z" fill="#2FA2FE"/>
<path d="M79.5925 3.87305L80.1884 4.07166L81.2807 4.8661L82.9689 6.15706L83.8626 6.9515L84.955 7.84524L86.4446 9.23551L87.7355 10.5265L88.4307 11.3209L89.9202 12.9098L91.3105 14.3001L91.4098 14.7966L91.1119 15.2931L91.0126 15.7896L90.4168 16.2862L89.8209 16.9813L89.2251 16.882L88.3314 16.2862L87.7355 15.591L87.5369 15.4917V15.2931L87.1397 15.0945L86.6432 14.598L85.6501 13.7042L85.1536 13.2077L84.0613 12.2147L82.8696 11.3209L82.2738 11.2216L80.9828 13.2077L80.0891 14.3994L79.5925 15.0945H79.3939L79.1953 15.4917L78.6988 16.1869H78.5002L78.3016 16.5841L77.805 17.0806L77.3085 17.6764L76.812 18.1729L76.7127 18.5702L78.8974 20.7549L79.6918 21.45L81.6779 23.4361L83.1675 24.8264L84.0613 25.7201L85.2529 27.309L86.3453 28.9972L87.4376 30.7847L88.4307 32.5722L89.523 35.0548L90.3175 37.6367L91.0126 40.02L91.6084 42.8999L92.1049 46.1769L92.8001 50.447L93.098 53.3269L93.1973 55.0151V58.59L92.9987 62.4629L92.8001 64.3497L92.4029 65.8393L91.9063 67.0309L91.6084 67.5275H91.4098L91.3105 67.8254H91.1119V68.024L90.7147 68.2226L90.3175 67.7261L90.1189 66.5344V64.449L90.3175 62.8601L90.4168 61.4699L90.5161 58.59L90.4168 55.313L90.0196 51.5394L89.4237 47.9644L88.4307 41.6089L88.0335 40.02L87.0404 37.2395L86.246 35.6506L84.8557 33.168L83.5647 31.4798L82.4724 30.3874L81.7772 29.593L80.0891 28.0041L78.8974 26.9118L77.6064 25.9187L76.2162 24.7271L74.528 23.4361L73.9322 23.0389L73.237 22.741L72.3433 21.9465L70.6551 20.9535L68.3711 19.7618L67.8746 19.5632L66.9808 18.9674L64.7961 17.875L61.4197 16.4848L58.7385 15.4917L55.1635 14.3001L50.4962 12.9098L49.7018 12.8105L49.2052 14.1014L48.3115 18.1729L47.5171 22.6417L46.7226 28.1034L46.6233 29.1958V31.3805L47.0205 33.9624L47.6164 36.2464L48.7087 39.3249L49.9997 42.8999L50.5955 43.9922L50.3969 44.0915H49.7018L49.2052 43.8929L48.4108 42.5026L47.2191 40.8145L46.524 39.8214L45.7296 38.5304L44.9351 36.9416L44.24 35.1541L43.3463 32.4728L42.7504 29.9902L42.3532 27.1104L42.2539 26.018V21.6486L42.5518 18.3716L43.0483 15.2931L44.1407 9.73203L45.0344 5.36262L45.2331 4.9654H46.7226L49.6025 5.46192L52.0851 6.05775L53.9719 6.65358L55.958 7.34872L58.5399 8.34177L62.0156 9.83134L65.4912 11.5195L67.378 12.5126L69.5627 13.7042L71.5488 14.6973L71.9461 14.598L72.0454 14.2008L72.9391 12.6119L73.8329 11.2216L73.9322 11.023H74.1308L74.3294 10.5265L74.9252 9.73203L75.0245 9.53342H75.2231L75.4217 9.13621L76.6134 7.64663L76.7127 7.44802H76.9113L77.1099 7.0508L78.0037 5.85914H78.2023L78.4009 5.46192L79.3939 4.17096L79.5925 3.87305Z" fill="#FD8E0F"/>
<path d="M127.359 0H129.842L130.139 0.695134L131.331 4.27011L132.523 8.143L133.317 11.0228L134.112 14.3992L134.509 16.3853L135.204 20.7547L135.701 25.2234L135.8 26.6137V33.1678L135.502 36.3456L134.807 39.9206L133.913 43.8927L133.317 45.7795L132.324 48.1629L131.133 50.3476L130.04 52.1351L128.749 54.0218L127.657 55.3128L126.465 56.7031L125.472 57.7954L124.777 58.5899L123.883 59.4836L123.188 60.2781L122.493 60.9732L121.699 61.6683L121.003 62.2641L120.507 62.7607L118.918 64.2502L117.826 65.144L116.237 66.435L114.747 67.5273L113.357 68.5204L110.974 70.1092L107.796 71.7974L104.221 73.5849L102.831 73.9821H101.738L101.937 73.3863L102.533 72.5919L104.022 71.4002L105.115 70.7051L106.505 69.9106L108.69 68.6197L110.576 67.3287L111.768 66.435L113.456 65.144L115.144 63.7537L117.925 61.3704H118.124V61.1718L118.918 60.4767L119.911 59.5829H120.11V59.3843L120.904 58.6892L122.493 57.1003L123.387 56.0079L124.38 54.9156L125.571 53.3267L126.564 51.7378L127.756 49.4538L128.551 47.4677L129.345 44.3893L129.842 41.708L130.139 38.9275V32.2741L129.842 28.004L129.345 24.0318L128.65 20.4568L127.955 17.4777L126.664 13.1082L125.969 11.0228L125.274 9.23535L124.876 8.143L124.678 7.94439L123.685 8.143L121.798 9.13605L119.315 10.2284L117.726 11.0228L112.86 13.1082L112.364 13.4062L112.265 13.6048L111.768 13.5055L111.073 12.8103L110.08 11.5194L108.988 10.2284L109.087 9.93049L110.08 9.33466L111.073 8.63952L112.563 7.74578L114.946 6.35551L117.329 5.06455L119.017 4.1708L120.606 3.37637L124.181 1.78749L125.373 1.29096L126.664 0.595829L127.359 0Z" fill="#FE8E0F"/>
<path d="M103.326 3.77344L103.723 3.97205L105.907 6.75258L106.702 7.74563L107.794 9.1359L108.489 9.93034L108.688 10.0296L108.986 10.5262L109.88 11.4199L110.674 12.413L111.766 13.9025L112.362 14.8956L113.256 16.2859L114.15 17.8747L115.639 20.7546L116.732 23.3365L117.526 25.8191L117.923 27.408L118.122 28.5997L118.321 31.3802V34.7566L118.023 37.3385L117.526 40.4169L117.129 41.9065L116.235 43.9919L115.441 45.5808L114.944 46.3752L114.845 46.0773L115.242 45.4815L115.639 44.1905L115.838 43.8926V43.2968L115.441 43.4954L114.746 44.0912L114.15 43.8926L113.653 43.3961H113.157L112.859 43.694L112.561 44.4884L112.462 44.687H112.263L112.164 45.3822L111.469 46.9711L110.575 48.3613L109.383 49.9502L108.887 50.546L108.688 50.4467L109.78 49.0565L110.773 47.5669L111.568 45.978L112.362 43.5947L112.66 41.7079L112.859 39.7218V35.8489L112.561 32.7705L112.164 30.7844L111.568 28.8976L110.873 27.1101L109.681 24.6275L108.688 22.7407L107.496 20.7546L106.503 19.4636L105.61 18.4706L104.914 17.6761L104.517 17.2789L104.319 16.7824L104.219 16.0872L102.73 14.697L102.035 13.9025L101.637 13.406L100.744 11.9164L100.049 11.0227L99.8499 10.8241L99.3534 10.9234L97.268 13.0088H97.0694L96.9701 13.3067L96.1756 14.0018L94.0902 16.0872L93.2958 16.981L93.3951 17.2789L93.8916 17.6761L94.8847 18.9671L95.7784 20.258L96.9701 21.8469L97.9631 23.4358L98.9562 24.7268L99.9492 26.3156L100.843 28.401L101.637 29.9899L102.63 32.3732L103.921 35.4517L105.014 38.5301L105.808 41.2114L106.205 42.9989L106.305 43.7933V44.687L106.106 46.4745L105.61 47.4676H105.411L104.716 45.6801L104.219 43.5947L103.524 40.9135L102.134 37.0406L101.141 34.6572L99.8499 31.8767L98.8568 29.9899L98.261 28.9969L97.7645 28.0038L97.6652 27.7059H97.4666L97.268 27.1101H97.0694L96.6721 26.4149L95.6791 25.0247L94.5867 23.5351L94.2888 23.1379V22.9393H94.0902L93.8916 22.4428H93.693L92.6006 21.0525V20.8539H92.402L91.5083 19.4636V19.265L90.8132 19.6622L89.8201 20.6553L88.4298 22.5421L87.0396 24.3295L86.0465 25.6205L85.3514 26.3156L84.8549 26.2163L84.6562 26.0177L84.7556 25.5212L86.3444 22.3434L87.6354 20.4567L88.8271 18.8678L89.5222 17.6761L89.6215 17.0803H89.8201L90.0187 16.6831L90.6145 15.9879L91.6076 15.1935L92.3027 14.4984L94.0902 12.3137L95.0833 11.3206L95.7784 10.5262L96.1756 10.1289H96.3742L96.5728 9.73173L97.268 9.0366L98.0624 8.34146L98.7575 7.64633L99.552 6.95119L100.446 6.15675L101.538 5.26301L102.928 4.07135L103.326 3.77344Z" fill="#30A3FE"/>
<path d="M68.1738 19.6621L68.7697 19.8607L71.0537 21.0524L72.444 21.9461L73.6356 22.9392L73.5363 23.3364L72.8412 24.528L72.7419 24.826H72.5433L72.2453 25.819L71.9474 26.3155L71.4509 27.6065L70.8551 28.9968L70.1599 31.5787L69.6634 34.2599L69.5641 35.253V38.9273L69.862 41.0127L70.5572 43.8925L71.5502 46.8716L72.3447 48.4605L73.0398 49.5529L74.2314 51.1418L75.4231 52.532L76.3168 53.5251L77.012 54.3195L78.2036 55.7098L79.296 56.9014L80.1897 57.9938L81.0835 58.9868L82.0765 60.2778L83.3675 62.0653L84.7578 64.0514L85.9494 66.0375L86.7439 67.3284L87.6376 68.9173L88.8293 71.2013L89.8223 73.0881L90.6168 74.677L90.8154 75.4714V77.6562L90.6168 78.1527L90.3188 77.8548V77.6562L90.0209 77.5568L89.9216 77.0603L89.6237 76.7624L88.432 74.7763L87.2404 72.6909L86.148 70.7048L84.8571 68.5201L83.4668 66.3354L82.4738 64.8458L81.2821 63.1576L79.8918 61.2709L78.6009 59.5827L77.3099 57.9938L76.2175 56.6035L75.1252 55.3126L74.4301 54.5181L74.1321 54.1209V53.9223L73.7349 53.7237L73.1391 53.0285L72.6426 52.6313L71.9474 51.8369L71.4509 51.4397L71.0537 51.1418L70.5572 50.7445V50.5459L69.7627 49.4536L69.2662 48.4605L68.0745 46.3751L67.9752 45.8786H67.7766L67.2801 44.8855L66.9822 44.0911L66.585 43.1974L66.1878 41.9064L65.6912 40.1189L65.3933 38.6293L65.0954 36.3453L64.9961 34.7564V30.9829L65.1947 29.1954L65.5919 27.2093L65.9891 25.4218L66.6843 23.2371L67.3794 21.7475L67.7766 20.8538L68.1738 19.8607V19.6621Z" fill="#649D1C"/>
<path d="M79.5912 3.87305L80.187 4.07166L81.2794 4.8661L82.9675 6.15706L83.8613 6.9515L84.9536 7.84524L86.4432 9.23551L87.7342 10.5265L88.4293 11.3209L89.9189 12.9098L91.3092 14.3001L91.4085 14.7966L91.1105 15.2931L91.0112 15.7896L90.4154 16.2862L89.8196 16.9813L89.2237 16.882L88.33 16.2862L87.7342 15.591L87.5356 15.4917V15.2931L87.1383 15.0945L86.6418 14.598L85.6488 13.7042L85.1523 13.2077L84.0599 12.2147L82.8682 11.3209L82.2724 11.2216L80.9814 13.2077L80.0877 14.3994L79.5912 15.0945H79.3926L79.194 15.4917L78.6974 16.1869H78.4988L78.3002 16.5841L77.8037 17.0806L77.3072 17.6764L76.8106 18.1729L76.612 18.4709L76.1155 18.2723L74.328 16.9813L73.0371 15.9882L71.8454 15.0945L71.7461 14.598H71.9447L72.044 14.2008L72.9378 12.6119L73.8315 11.2216L73.9308 11.023H74.1294L74.328 10.5265L74.9238 9.73203L75.0232 9.53342H75.2218L75.4204 9.13621L76.612 7.64663L76.7113 7.44802H76.9099L77.1086 7.0508L78.0023 5.85914H78.2009L78.3995 5.46192L79.3926 4.17096L79.5912 3.87305Z" fill="#649C1B"/>
<path d="M115.642 43.1973L115.939 43.2966V43.8924L115.642 44.3889L115.344 45.4813L114.946 46.0771L114.748 46.6729L113.655 48.3611L112.662 49.6521L111.57 51.0423L110.577 52.1347L109.683 53.2271L108.988 53.9222L108.094 55.0145L107.101 56.1069L105.314 58.2916L104.321 59.5826L103.328 60.9728L102.732 61.7673L101.044 64.2499L100.448 65.2429L99.7528 66.3353L98.9584 67.6263L97.9653 69.3144L95.4827 74.2797L94.7876 75.372L94.291 75.8686L93.5959 76.7623L92.9008 77.5567L92.1063 78.1526L91.6098 78.4505L91.1133 78.3512L91.3119 76.8616L91.9077 75.9679L92.1063 75.2727L92.3049 75.0741L92.6029 74.1804L93.0994 72.9887L93.8938 71.2012L94.9862 69.2151L95.8799 67.6263L97.0716 65.6402L97.866 64.3492L98.9584 62.661L99.8521 61.3701L101.044 59.5826L102.434 57.6958L103.725 56.2062L104.619 55.1138L105.91 53.6243L107.101 52.234L108.194 51.0423L108.591 50.5458H108.889L109.087 50.1486L110.081 48.9569L110.478 48.3611L111.371 46.9709L112.067 45.382L112.265 44.6868H112.464L112.762 43.6938L113.159 43.2966H113.655L114.251 43.8924L114.748 43.9917L115.642 43.1973Z" fill="#0889FD"/>
<path d="M82.2737 11.123L82.8695 11.2224L84.2598 12.3147L85.4514 13.4071V13.6057L85.8486 13.8043L86.7424 14.5987V14.7973L87.1396 14.9959L87.5368 15.2939V15.4925L87.934 15.6911L88.5299 16.3862L89.5229 16.8827L89.8208 17.0813H89.6222V17.6772L88.9271 18.8688L87.934 20.1598L86.4445 22.3445L85.65 23.9334L84.7563 25.6216L84.8556 26.1181L85.3521 26.2174L85.9479 25.7209L85.7493 26.1181L85.3521 26.7139L84.9549 26.6146L84.1605 25.8202L83.366 25.125L82.2737 24.0327L81.4792 23.3375L79.0959 20.9542L78.3015 20.2591L76.6133 18.5709L76.7126 18.1737L77.1098 17.6772L77.6063 17.1806L78.0035 16.982L78.2022 16.5848L78.5001 16.1876H78.6987L78.8973 15.6911L79.3938 15.0952H79.5924L79.791 14.698L80.6848 13.5064L81.9757 11.5203L82.2737 11.123Z" fill="#FCFCFD"/>
<path d="M93.1976 17.0801L93.8928 17.6759L94.8858 18.9669L95.7796 20.2578L96.9712 21.8467L97.9643 23.4356L98.9573 24.7266L99.9504 26.3154L100.844 28.4008L101.639 29.9897L102.632 32.373L103.923 35.4515L105.015 38.5299L105.809 41.2112L106.207 42.9986L106.306 43.7931V44.6868L106.107 46.4743L105.611 47.4674H105.412L104.717 45.6799L104.22 43.5945L103.525 40.9132L102.135 37.0404L101.142 34.657L99.8511 31.8765L98.858 29.9897L98.2622 28.9967L97.7657 28.0036L97.6664 27.7057H97.4678L97.2691 27.1099H97.0705L96.6733 26.4147L95.6803 25.0245L94.5879 23.5349L94.29 23.1377V22.9391H94.0914L93.8928 22.4425H93.6942L92.6018 21.0523V20.8537H92.4032L91.4102 19.2648L91.5095 19.0662H91.7081L91.9067 18.5697L92.5025 17.8745H92.7011L92.8997 17.4773L93.1976 17.0801Z" fill="#669E1E"/>
<path d="M72.6417 49.1562L73.1382 49.6528L74.1312 51.043L75.4222 52.5326L76.3159 53.5257L77.0111 54.3201L78.2027 55.7104L79.2951 56.902L80.1888 57.9944L81.0826 58.9874L82.0756 60.2784L83.3666 62.0659L84.7569 64.052L85.9485 66.0381L86.743 67.329L87.6367 68.9179L88.8284 71.2019L89.8214 73.0887L90.6158 74.6776L90.8145 75.472V77.6567L90.6158 78.1533L90.3179 77.8554V77.6567L90.02 77.5574L89.9207 77.0609L89.6228 76.763L88.4311 74.7769L87.2395 72.6915L86.1471 70.7054L84.8562 68.5207L83.4659 66.336L82.4728 64.8464L81.2812 63.1582L79.8909 61.2714L78.6 59.5833L77.309 57.9944L76.2166 56.6041L75.1243 55.3132L74.4292 54.5187V54.2208L74.8264 54.618L74.6278 54.1215L73.9326 53.3271V53.1284H73.734V52.9298H73.4361L73.1382 52.5326V52.2347H72.9396L72.6417 51.6389V50.9437L72.3438 50.8444L72.5424 49.3549L72.6417 49.1562Z" fill="#89B924"/>
<path d="M87.1406 37.2402L87.4385 37.6375L88.6302 40.8152L88.9281 42.0069L89.1267 42.5034L89.3253 43.1985L89.7226 44.4895L89.8219 44.5888L90.517 44.6881L90.9142 45.2839L91.1128 45.7805L91.6093 45.8798V44.8867L91.2121 42.2055L90.6163 39.5242L90.1198 37.8361V37.2402L90.3184 37.6375L91.0135 40.0208L91.6093 42.9006L92.1059 46.1777L92.801 50.4478L93.0989 53.3276L93.1982 55.0158V58.5908L92.9996 62.4637L92.801 64.3505L92.4038 65.84L91.9073 67.0317L91.6093 67.5282H91.4107L91.3114 67.8261H91.1128V68.0247L90.7156 68.2234L90.3184 67.7268L90.1198 66.5352V64.4498L90.3184 62.8609L90.4177 61.4706L90.517 58.5908L90.4177 55.3137L90.0205 51.5401L89.4246 47.9652L88.4316 41.6096L88.0344 40.0208L87.1406 37.5381V37.2402Z" fill="#FFB540"/>
<path d="M103.326 3.77344L103.723 3.97205L104.617 5.16371L104.914 5.66023L104.716 6.05745L104.12 5.85884L103.723 5.56093L102.73 5.46162L102.233 5.85884L101.737 6.35536L101.24 6.75258L100.545 7.94424L100.247 8.54007L99.9492 9.0366L100.049 9.43381V10.1289L99.552 10.6255L99.3534 10.7248L99.0555 11.2213L97.268 13.0088H97.0694L96.9701 13.3067L96.1756 14.0018L94.0902 16.0872L93.2958 16.981L92.6999 17.8747H92.5013L92.3027 18.2719L91.7069 19.0664L90.6145 19.8608L89.8201 20.6553L88.4298 22.5421L87.0396 24.3295L86.0465 25.6205L85.3514 26.3156L84.8549 26.2163L84.6562 26.0177L84.7556 25.5212L86.3444 22.3434L87.6354 20.4567L88.8271 18.8678L89.5222 17.6761L89.6215 17.0803H89.8201L90.0187 16.6831L90.6145 15.9879L91.6076 15.1935L92.3027 14.4984L94.0902 12.3137L95.0833 11.3206L95.7784 10.5262L96.1756 10.1289H96.3742L96.5728 9.73173L97.268 9.0366L98.0624 8.34146L98.7575 7.64633L99.552 6.95119L100.446 6.15675L101.538 5.26301L102.928 4.07135L103.326 3.77344Z" fill="#0D92FE"/>
<path d="M43.0483 15.293L43.247 15.6902L43.0483 16.8818L43.247 17.1798L43.1477 18.4707L43.0483 19.3645V24.1311L43.1477 27.4082L43.247 28.2026H43.3463L43.247 26.9116L43.1477 26.0179V21.6485L43.4456 19.9603H43.5449L43.7435 22.4429L43.6442 25.1242V27.1102L43.8428 28.5998L44.24 30.3873L44.7365 31.1817L45.531 31.3804L45.8289 32.2741H46.2261L46.4247 31.4797L46.3254 31.3804V29.8908L46.2261 27.8054L46.524 27.5075L46.4247 26.713L46.1268 25.9186V25.2235L46.3254 24.3297H46.8219L47.0205 24.8262L47.1198 25.2235L46.7226 28.1033L46.6233 29.1956V31.3804L47.0205 33.9623L47.6164 36.2463L48.7087 39.3247L49.9997 42.8997L50.5955 43.9921L50.3969 44.0914H49.7018L49.2052 43.8928L48.4108 42.5025L47.2191 40.8143L46.524 39.8213L45.7296 38.5303L44.9351 36.9414L44.24 35.1539L43.3463 32.4727L42.7504 29.9901L42.3532 27.1102L42.2539 26.0179V21.6485L42.5518 18.3714L43.0483 15.293Z" fill="#FE9C15"/>
<path d="M115.642 43.1973L115.94 43.2966V43.8924L115.642 44.3889L115.344 45.4813L114.947 46.0771L114.748 46.6729L113.656 48.3611L112.663 49.6521L111.57 51.0424L110.577 52.1347L110.081 52.6312L110.18 51.7375L110.875 51.0424L110.974 50.5458L110.577 50.943L110.478 51.3403L109.286 52.3333L108.293 53.3264L107.201 54.3194L106.506 55.1138L105.711 55.9083L104.917 56.6034L103.328 57.8944L102.236 58.7881H101.938L101.739 59.2847L101.143 59.7812L100.746 60.1784L100.945 59.6819L102.931 57.0999L104.222 55.6104L105.116 54.518L106.009 53.525L106.903 52.4326L108.194 51.0424L108.591 50.5458H108.889L109.088 50.1486L110.081 48.9569L110.478 48.3611L111.372 46.9709L112.067 45.382L112.265 44.6868H112.464L112.762 43.6938L113.159 43.2966H113.656L114.252 43.8924L114.748 43.9917L115.642 43.1973Z" fill="#0D92FE"/>
<path d="M116.932 62.2637L117.031 62.4623H116.833L116.634 62.8595L115.74 63.7532L115.144 64.2498L115.244 64.647H115.442L115.542 65.0442L115.343 65.7393L114.946 66.3352L114.35 67.1296H114.151V67.5268H113.953L113.853 67.924L113.953 68.1227L111.569 69.7115L110.278 70.506L106.406 72.4921L104.916 73.2865L103.327 73.8823L102.831 73.9816H101.738L101.937 73.3858L102.533 72.5914L104.022 71.3997L105.115 70.7046L106.505 69.9101L108.69 68.6192L110.576 67.3282L111.768 66.4345L113.456 65.1435L115.144 63.7532L116.535 62.5616L116.932 62.2637Z" fill="#FFB43F"/>
<path d="M80.0892 60.6758L80.4865 60.8744L80.8837 61.4702L81.8767 62.4633L82.4726 63.357L83.0684 63.8535V64.0521H83.3663L83.6642 64.3501L83.9621 64.4494V64.648L84.8559 64.9459L85.1538 65.1445V65.3431H85.3524V65.641L85.8489 65.8396L87.3385 68.3223L88.8281 71.2021L89.8211 73.0889L90.6156 74.6778L90.8142 75.4722V77.6569L90.6156 78.1534L90.3176 77.8555V77.6569L90.0197 77.5576L89.9204 77.0611L89.6225 76.7632L88.4308 74.7771L87.2392 72.6917L86.1468 70.7056L84.8559 68.5209L83.4656 66.3362L82.4726 64.8466L81.2809 63.1584L79.8906 61.2716L79.9899 60.8744L80.0892 60.6758Z" fill="#68A022"/>
<path d="M87.6356 31.2812L88.0328 31.7778L89.3238 34.5583L90.1182 36.9416L90.3168 38.2326L90.9126 40.318L91.5085 43.2971L91.7071 44.886V45.8791L91.2105 45.9784L90.9126 45.6805L90.6147 44.886L90.5154 44.7867L89.8203 44.6874L89.5224 44.1909L89.2245 43.1978L89.0258 42.5027L88.6286 41.2117L87.9335 39.2256L87.2384 37.4382V37.2395H87.0397L86.2453 35.6507L85.3516 34.0618V33.8632L85.8481 33.9625L86.0467 33.466L86.146 33.8632L86.6425 33.9625L86.7418 34.1611L86.6425 34.3597L86.9404 34.2604L87.3377 34.459L87.7349 34.1611L87.9335 32.5722L87.7349 31.8771L87.6356 31.2812Z" fill="#FE9B14"/>
<path d="M101.341 29.5938L101.639 29.991L102.632 32.3743L103.923 35.4527L105.015 38.5312L105.81 41.2124L106.207 42.9999L106.306 43.7943V44.6881L106.108 46.4756L105.611 47.4686H105.412L104.717 45.6811L104.221 43.5957L103.526 40.9145L102.135 37.0416L101.142 34.6583L99.8514 31.8778L99.1562 30.5868L99.2556 30.3882L99.8514 31.2819L100.844 33.3673L101.44 34.1618H101.738H101.937L102.036 33.8639H102.235L102.334 32.8708L102.135 31.9771L102.036 31.6792V31.1826H101.837L101.341 29.8917V29.5938Z" fill="#9ACE4B"/>
<path d="M126.367 9.43359L126.665 9.73151L126.963 10.3273L127.261 11.1218L128.452 14.7961L128.85 15.8884L129.545 18.8676L129.743 19.3641L130.141 21.1516L130.339 21.8467L130.637 24.23L130.736 24.9252V26.4147L130.836 27.1099L130.736 27.5071L130.637 28.8973L130.538 29.1953V30.9827L130.736 34.657V37.5369L130.538 38.1327L130.24 41.4098L129.843 43.7931L129.048 46.7722L128.154 49.0562L127.956 49.1555L128.254 48.1625L128.75 46.7722L129.545 43.4952L129.942 40.9132L130.141 38.9271V32.2737L129.843 28.0036L129.346 24.0314L128.651 20.4564L127.956 17.4773L126.665 13.1079L125.97 11.0225L125.672 10.0294L125.97 10.1287V9.93012L126.168 9.73151L126.367 9.43359Z" fill="#FE9B14"/>
<path d="M126.069 52.334L126.267 52.4333L125.076 54.1215L123.785 55.7103L122.692 56.902L121.997 57.6964L120.309 59.3846H120.111V59.5832L119.316 60.2784L118.323 61.1721H118.124V61.3707L117.131 62.1652L116.138 63.0589L115.046 63.9527L113.755 65.045L110.18 67.7262L108.492 68.8186L105.513 70.6061L105.215 70.5068L105.612 70.1096V69.8116L106.605 69.0172L107.797 68.2228L109.386 67.1304L110.478 66.336L112.067 65.045L113.358 64.052L115.344 62.0659H115.543L115.741 61.6686L116.138 60.7749L117.032 60.3777L117.628 60.0798L118.124 59.9805L118.72 59.4839L119.316 59.2853L119.912 58.4909L120.111 58.0937V57.8951L120.309 57.3985L120.806 56.6041H121.004L121.203 56.1076L121.898 55.0152L122.593 54.4194L122.891 54.9159L123.388 54.8166L123.785 54.618L124.281 54.0222L124.679 53.6249H124.877L125.076 53.2277L125.572 53.1284L125.771 52.7312L126.069 52.334Z" fill="#F9F6FA"/>
<path d="M124.876 54.2207L124.975 54.6179L124.677 55.1144L124.082 55.8096L123.784 56.2068H123.585L123.386 56.7033L122.493 57.7957L122.096 58.1929V58.5901L122.592 58.3915L122.294 59.2853L121.4 60.4769L120.507 61.47L119.812 62.2644L118.223 63.8533L118.024 64.4491L118.421 64.5484L117.925 65.0449L116.634 66.1373L115.045 67.3289L114.052 68.0241L113.754 67.9248L113.953 67.5276H114.151V67.1303H114.35L114.548 66.7331L115.144 65.9387L115.343 65.6408L115.442 64.6477L115.045 64.5484L115.144 64.1512L115.442 64.0519L115.541 63.754L116.336 63.0588L116.832 62.463H117.031L117.13 62.0658L117.925 61.3707H118.123V61.172L118.918 60.4769L119.911 59.5832H120.109V59.3846L120.904 58.6894L122.493 57.1005L123.386 56.0082L124.38 54.9158L124.876 54.2207Z" fill="#FE9B14"/>
<path d="M103.921 16.584H104.219V16.7826L104.517 16.8819L104.715 17.577L105.112 17.7756L105.311 18.4708L104.517 19.6624L103.226 21.2513L102.034 22.9395L101.24 23.9325L100.544 24.6277L100.048 24.727L99.75 24.4291V23.7339L100.445 21.3506L100.942 20.159L101.438 19.3645L102.133 18.3715L102.928 17.3784L103.821 16.6833L103.921 16.584Z" fill="#FFB540"/>
<path d="M97.8633 23.4355L98.3598 23.9321L99.5515 25.6203L100.346 27.2091L100.842 28.4008L101.339 29.3938L101.637 30.2876L101.835 30.7841V31.1813H102.034L102.133 31.8765L102.332 32.2737L102.431 33.0681L102.233 33.8626H102.034L101.935 34.2598L101.637 34.3591L101.14 33.9619L100.644 33.1674L99.6508 31.082L99.2535 30.4862L98.9556 30.1883L98.2605 28.9966L98.1612 28.5001H98.5584V28.6987H98.757V28.1029L98.5584 27.1098L98.4591 26.4147L98.3598 26.1168L98.6577 25.3223L98.3598 24.6272L97.8633 23.9321V23.4355Z" fill="#8AB821"/>
<path d="M80.6851 28.6992L81.1817 28.8978L82.4726 30.1888L83.1678 30.9832L83.8629 31.6784L84.9552 33.1679L84.8559 33.5652L84.7566 33.3665L83.4657 33.0686L83.0685 32.7707H82.3733L81.8768 33.2672L80.8837 35.3526L80.0893 36.9415L78.5997 40.2186L78.2025 40.6158H78.0039L78.1032 39.9207L78.7983 37.6367L79.5928 35.0547L80.3872 32.9693L80.9831 31.877V31.0825L80.7844 30.0895V28.9971L80.6851 28.6992Z" fill="#B0DBFE"/>
<path d="M101.342 63.3574H101.54L101.342 63.8539L100.647 64.847L100.051 65.9393L99.3556 66.9324L98.2632 68.8192L97.0716 71.1032L95.8799 73.5858L94.8869 75.274L94.3903 75.7705L93.5959 76.7636L92.9008 77.558L92.1063 78.1538L91.6098 78.4518L91.1133 78.3525L91.3119 76.8629L91.9077 75.9691L92.1063 75.274L92.3049 75.0754L92.6029 74.1817L93.0994 72.99L93.7945 71.4011H93.8938V72.6921L94.6883 72.5928L94.589 73.5858L94.1917 74.5789L93.5959 75.4726L93.1987 76.2671H93.4966V76.0684L93.8938 75.8698L94.0924 75.0754L94.589 74.1817H94.7876L94.9862 73.5858L95.2841 73.1886H95.4827L95.7806 72.2949L96.1778 71.7983H96.3764V71.5997L96.575 71.5004L96.873 70.5074L97.4688 69.5143L97.6674 68.8192L98.0646 68.6206L98.1639 68.2234L98.5611 67.4289L98.8591 67.131L99.0577 66.138L99.6535 65.4428L100.051 64.6484L100.349 64.1519L100.944 63.6553L101.342 63.3574Z" fill="#0C91FE"/>
<path d="M128.352 44.1914H128.948L129.147 44.39L129.047 45.4824L128.65 46.7733L128.551 46.9719L127.161 46.674H125.175L123.685 46.8726L122.593 47.1706L120.607 47.5678H118.62L118.422 47.1706L118.819 46.7733L120.507 46.2768L125.671 44.9858L128.154 44.2907L128.352 44.1914Z" fill="#AEDAFE"/>
<path d="M153.08 69.6133L153.378 69.7126L153.179 69.9112L152.98 70.4077L151.888 71.5994L151.193 72.3938L149.505 74.082L148.412 74.9757L147.121 75.9688L145.433 77.0611L143.05 78.3521L140.567 79.5438L139.574 79.941L137.985 80.1396H137.688L137.886 79.7424L138.482 79.2459L139.475 78.9479L140.667 78.2528L141.958 77.657L142.951 77.2598L143.546 76.8625L144.54 76.4653L146.228 75.5716L146.625 75.2737H146.824V75.075L147.221 74.8764L147.32 74.6778L147.817 74.4792L148.313 73.8834L148.81 73.6848V73.4862L149.902 72.5924L150.399 71.9966L150.994 71.3015L151.392 71.1029V70.9042H151.59V70.7056L152.484 70.0105L152.782 69.9112L153.08 69.6133Z" fill="#0E92FF"/>
<path d="M101.836 36.0469L102.134 36.4441L102.928 38.4302L103.822 40.6149L104.021 41.1114L104.319 41.2107L104.716 40.6149L104.815 39.7212V38.8274L104.418 37.5364L104.517 37.1392L105.411 39.8205L105.808 41.2107L106.205 42.9982L106.305 43.7927V44.6864L106.106 46.4739L105.61 47.4669H105.411L104.716 45.6794L104.219 43.594L103.524 40.9128L102.134 37.0399L101.836 36.3448V36.0469Z" fill="#98C97E"/>
<path d="M89.5222 17.6758L89.7208 17.9737L90.7138 17.8744V18.4702L90.4159 18.8674L90.0187 18.9667L89.3236 19.8605L89.2243 20.1584H89.0257L88.8271 20.5556L88.3305 21.648V22.2438H88.5291L88.3305 22.641L87.0396 24.3292L86.0465 25.6202L85.3514 26.3153L84.8549 26.216L84.6562 26.0174L84.7556 25.5209L86.3444 22.3431L87.6354 20.4563L88.8271 18.8674L89.5222 17.6758Z" fill="#0E92FF"/>
<path d="M89.4256 49.2559H89.5249L89.8228 51.0433L90.0214 52.5329L90.22 54.9162V62.1655L90.1207 62.9599L89.9221 62.7613L89.7235 64.0523L89.6242 65.4426V67.0314L89.8228 67.6273V68.0245H89.6242L89.5249 68.2231L89.0284 67.528L88.7305 66.1377L89.1277 64.7474V63.953L89.3263 63.8537L89.4256 62.1655V56.1079L89.3263 53.9232L89.4256 53.3274L89.3263 52.5329H89.5249L89.3263 51.7385L89.227 50.7454V49.5538L89.4256 49.2559Z" fill="#F9F6FA"/>
<path d="M94.7864 75.2734L94.8858 75.472L94.3892 76.3658L94.4885 77.7561L95.7795 77.6568L98.2621 77.1602L102.433 76.6637L105.909 76.3658L110.079 76.2665H116.336L119.315 76.4651L122.095 76.763L125.273 77.0609L129.245 77.4581L131.728 77.5574L132.721 77.3588L133.118 77.4581L131.827 77.7561H129.841L119.811 76.763L117.031 76.5644H111.47L105.511 76.8623L102.036 77.1602L97.6663 77.6568L94.7864 78.1533H93.8927L93.2969 77.8554L93.3962 77.2595L94.7864 75.2734Z" fill="#B2DCFE"/>
<path d="M91.011 15.8887H91.5075L92.302 16.4845L92.4013 16.981L92.5999 17.4775L92.5006 18.0734L91.8054 18.8678L91.4082 19.265L90.5145 19.9602L89.8193 20.6553L88.6277 22.2442H88.3298L88.2305 21.6484L88.8263 20.4567L89.0249 20.1588H89.2235L89.3228 19.7616L90.018 18.8678H90.4152L90.6138 18.4706L90.7131 17.8748L89.72 18.0734L89.6207 17.9741V17.0803H89.8193L90.018 16.6831L90.6138 15.988L91.011 15.8887Z" fill="#098AFD"/>
<path d="M134.21 42.9004H137.09L140.466 42.9997L145.332 43.3969V43.4962H144.24L142.552 43.3969H136.891L135.7 43.6948L134.806 44.39L134.707 44.6879L134.806 45.1844L135.799 45.383L141.658 45.8795L145.531 46.2768L149.205 46.7733L151.688 47.2698V47.3691L150.695 47.2698L146.921 46.674L143.446 46.2768L138.282 45.8795L134.707 45.6809H133.912L133.316 45.8795L133.416 45.2837L133.912 43.4962H134.111L134.21 42.9004Z" fill="#B3DCFE"/>
<path d="M71.8477 21.5488L72.3442 21.6481L72.6421 21.946L73.6351 21.8467L74.3303 22.0454L74.7275 22.5419V22.7405L75.9192 23.5349V23.7335L76.2171 23.8328L76.515 24.1308L77.4087 24.7266L78.3025 25.6203L78.6997 26.2162L79.5934 26.812L80.2886 27.4078V27.6064H80.4872L81.3809 28.6988L81.9768 29.096L82.6719 29.8904L83.1684 30.4863L83.5656 30.8835L83.6649 31.4793L82.9698 30.8835L81.4802 29.2946L78.8983 26.9113L77.6073 25.9182L76.2171 24.7266L74.5289 23.4356L73.9331 23.0384L73.2379 22.7405L72.3442 21.946L71.8477 21.5488Z" fill="#FE9C16"/>
<path d="M127.855 16.8809L128.054 17.0795L128.749 19.7607L129.444 23.0378L130.04 26.9107L130.437 31.2801L130.537 33.0676V38.1321L130.239 41.4092L129.842 43.7925L129.047 46.7716L128.153 49.0556L127.955 49.1549L128.253 48.1619L128.749 46.7716L129.544 43.4946L129.941 40.9126L130.139 38.9265V32.2731L129.842 28.003L129.345 24.0308L128.65 20.4558L127.955 17.4767L127.855 16.8809Z" fill="#FFB540"/>
<path d="M48.7098 15.4922L48.8091 15.8894L48.0147 19.7623L47.3195 23.9331H47.2202L47.1209 23.238L46.5251 23.4366L46.4258 22.8407L46.6244 22.0463L46.9223 19.9609L47.2202 18.8686L47.5181 17.4783L47.7167 17.0811L47.816 16.088L48.0147 15.8894L48.5112 15.9887L48.7098 15.4922Z" fill="#FE9C15"/>
<path d="M92.7985 49.752L93.0964 49.8513L93.3944 51.2415V51.8374H93.1957V52.8304L93.295 52.1353H93.3944L93.4937 52.9297L93.6923 56.604V58.7887L93.4937 61.9665L93.0964 64.2505L92.8978 64.1512V62.463L93.0964 58.5901V55.0151L92.8978 52.1353L92.6992 50.4471L92.7985 49.752Z" fill="#F9F6FA"/>
<path d="M121.399 2.78125L121.697 2.88055L121.3 3.17847L119.711 3.97291L117.824 4.86665L116.036 5.8597L115.441 5.95901L113.554 6.95205L112.461 7.15066L112.064 7.05136L112.461 6.85275L111.965 6.65414L112.163 6.45553L113.256 6.15762L114.15 5.56179L115.143 5.26387L118.122 4.07221L119.015 3.8736L120.009 3.27777L121.399 2.78125Z" fill="#F9F6FA"/>
<path d="M87.7347 20.3574V20.6553L86.9403 21.847L87.0396 22.3435L87.3375 22.6414L87.1389 23.138L86.7417 23.6345V24.3296L86.9403 24.4289L86.0465 25.6206L85.3514 26.3157L84.8549 26.2164L84.6562 26.0178L84.7556 25.5213L86.3444 22.3435L87.6354 20.4567L87.7347 20.3574Z" fill="#30A3FF"/>
<path d="M79.9883 22.0449L80.3855 22.1442L81.6765 23.4352L83.166 24.8255L84.0598 25.7192L84.3577 26.315V26.9109L83.6626 26.8116L83.0667 26.4143L82.4709 25.5206L82.0737 25.0241L81.5772 24.5275L81.2792 24.1303V23.9317L80.882 23.7331V23.5345H80.6834V23.3359H80.4848V23.1373H80.2862L80.0876 22.4421L79.9883 22.0449Z" fill="#FE7E0D"/>
<path d="M104.023 16.7832L104.519 16.8825L104.718 17.5776L105.115 17.7763L105.314 18.4714L104.519 19.663L103.725 20.6561H103.526L103.228 19.663V19.0672L103.129 18.8686V18.2728L103.526 17.6769L103.824 17.1804L104.023 16.7832Z" fill="#FE9C16"/>
<path d="M127.459 46.0781H128.75L128.65 46.7733L128.551 46.9719L127.161 46.674H125.175L123.685 46.8726L122.593 47.1705L120.607 47.5677H118.62L118.422 47.1705L118.819 46.7733L120.507 46.2767L120.904 46.376L119.216 46.8726L119.117 47.1705L119.713 47.2698L121.302 46.9719L122.99 46.674L125.175 46.2767L127.459 46.0781Z" fill="#BFE2FF"/>
<path d="M43.0483 15.293L43.247 15.6902L42.949 17.2791L42.7504 19.0666L42.6511 21.3506V25.9186L42.949 29.6922L43.3463 31.6783L43.247 32.0755L42.7504 29.9901L42.3532 27.1102L42.2539 26.0179V21.6485L42.5518 18.3714L43.0483 15.293Z" fill="#FFB540"/>
<path d="M111.866 29.791L112.065 30.0889L112.462 31.5785L112.76 33.5646L112.959 35.8486V39.7215L112.661 42.502L112.264 44.2895L111.668 45.9777L110.873 47.5666L109.582 49.4534L109.086 50.0492V49.7513L110.079 48.361L110.774 47.2687L111.569 45.4812L112.065 43.9916L112.462 41.7076L112.661 39.4236V36.0472L112.462 33.1674L112.164 31.2806L111.866 30.1882V29.791Z" fill="#B3DCFE"/>
<path d="M82.4711 30.3867L83.1662 30.9825L83.8613 31.6777L84.9537 33.1673L84.8544 33.5645L84.7551 33.3659L83.4641 33.068L83.0669 32.77H82.3718L81.8753 33.2666L80.8822 35.352L80.6836 35.4513L80.8822 34.8554L82.3718 31.777L82.9676 31.2805L82.769 30.8832L82.4711 30.5853V30.3867Z" fill="#C1E2FE"/>
<path d="M101.339 63.3574H101.538L101.339 63.8539L100.644 64.847L100.048 65.9393L99.3531 66.9324L98.2608 68.8192L97.0691 71.1032L96.7712 71.699H96.6719V71.0039L97.1684 70.0108L97.4663 69.5143L97.6649 68.8192L98.0621 68.6206L98.1614 68.2234L98.5587 67.4289L98.8566 67.131L99.0552 66.138L99.651 65.4428L100.048 64.6484L100.346 64.1519L100.942 63.6553L101.339 63.3574Z" fill="#1294FF"/>
<path d="M57.7452 80.7344L60.6251 80.8337V80.933L59.4334 81.1316L56.7522 81.3302L55.8585 81.5288L53.1772 81.8267L52.6807 81.926H50.6946L48.3113 81.5288L47.9141 81.4295V81.2309H49.0064L49.6022 81.3302L49.7016 81.4295H50.7939V81.5288L52.2835 81.6281V81.4295H53.5744V81.3302H54.1703L54.5675 81.2309L54.7661 81.1316H55.5605V81.0323H56.8515L57.7452 80.8337V80.7344Z" fill="#C0E2FE"/>
<path d="M90.7148 75.4727L90.9134 75.7706L91.0127 76.565V77.2601L90.7148 78.5511L90.9134 79.8421L91.4099 80.9344L91.5093 81.3316L91.2113 81.2323L90.6155 80.0407L89.7218 79.6435L88.1329 79.2462L86.6433 78.9483L86.2461 78.849V78.6504L86.9412 78.5511L87.1398 78.6504L88.0336 78.7497L89.2252 79.0476L89.8211 79.1469L90.0197 79.2462V79.0476L89.7218 78.9483L89.8211 78.2532L90.119 78.1539L90.2183 77.6574L90.5162 78.0546L90.7148 77.6574V75.4727Z" fill="#9ECC85"/>
<path d="M88.5312 70.8047L88.9285 71.3012L90.6167 74.6776L90.8153 75.472L90.6167 75.8692L89.6236 75.472L89.3257 75.1741V74.2804L89.425 73.8831L88.9285 72.6915L88.5312 71.4998V70.8047Z" fill="#93B924"/>
<path d="M122.79 8.54102L122.988 8.64032L122.691 8.93824L122.293 9.03754L121.995 9.33545L120.307 10.1299H119.811L119.711 10.5271L118.52 11.0236L116.037 12.116L115.044 12.5132H114.448L114.25 12.9104L113.157 13.3076H112.959L112.859 13.0097L115.143 12.0167L117.725 10.9243L119.314 10.1299L122.591 8.64032L122.79 8.54102Z" fill="#F9F6FA"/>
<path d="M139.77 79.7422L140.068 79.8415L138.976 80.2387L136.593 80.9338L134.507 81.2318H130.734L124.775 80.7352L123.286 80.6359L121.598 80.5366V80.4373L123.981 80.338L130.336 80.9338H134.706L136.593 80.6359L138.579 80.1394L139.77 79.7422Z" fill="#B5DDFE"/>
<path d="M111.966 80.1387H116.534L121.4 80.3373V80.4366H119.315L113.059 80.3373L106.008 80.6352L102.632 80.9331L100.546 81.1317L99.454 81.3303H98.4609V81.231L100.149 80.9331L105.512 80.4366L111.966 80.1387Z" fill="#BFE2FF"/>
<path d="M117.825 26.9121L118.024 27.3093L118.322 28.9975L118.52 30.785V34.8565L118.322 36.644L117.726 40.3183L117.229 42.1058L116.931 42.7016L116.832 42.4037L117.229 41.3113L117.726 38.7294L118.024 36.7433L118.222 34.7572V31.3808L118.024 28.6003L117.825 27.4086V26.9121Z" fill="#AEDAFE"/>
<path d="M44.637 46.6738H51.5884L51.6877 46.8724L50.5953 46.9717L46.4245 47.071H43.644L41.7572 46.9717L41.5586 46.7731L44.637 46.6738Z" fill="#B7DEFE"/>
<path d="M59.7305 10.3281L60.4256 10.4274L61.9152 11.0233L63.5041 11.8177L64.4971 12.4135L64.9936 12.8107L64.795 13.0094L64.3978 12.8107L63.2061 12.5128L62.2131 11.917V11.7184L61.6173 11.5198L60.5249 11.1226L59.7305 10.5267V10.3281Z" fill="#FF7A0A"/>
<path d="M133.814 76.7617L134.509 76.861L134.211 77.0596L133.417 77.3575L131.729 77.6555L129.246 77.5562L127.161 77.3575V77.1589L125.473 77.0596V76.9603L126.764 76.861L126.962 76.9603L127.359 76.861L128.75 77.0596V77.1589H131.63L133.814 76.7617Z" fill="#FBF9FC"/>
<path d="M46.3275 24.3301H46.824L47.0227 24.8266L47.122 25.2238L46.7247 28.1037L46.5261 31.0828H46.4268L46.2282 27.8057L46.5261 27.5078L46.4268 26.7134L46.1289 25.919V25.2238L46.3275 24.3301Z" fill="#FE9D18"/>
<path d="M111.869 31.082H111.968L112.266 32.6709L112.465 34.2598L112.365 34.5577H112.564V38.3313L112.465 39.1257V40.6153L112.266 42.2042L112.067 43.0979V43.9917L111.968 44.1903H111.77L111.869 42.5021L112.167 40.0195V33.2667L111.869 31.6779V31.082Z" fill="#F9F6FA"/>
<path d="M112.362 33.168H112.561L112.759 36.0478V39.4242L112.561 41.7082L112.163 43.9922L111.965 43.6943V42.8998L112.263 41.6089L112.362 40.5165V38.8283L112.461 37.736L112.561 34.5582H112.362V33.168Z" fill="#FDFDFE"/>
<path d="M80.684 28.6992L81.1805 28.8978L81.6771 29.4937H81.4785L81.5778 30.0895L81.6771 31.3805L81.0812 32.3735L80.5847 33.0686L80.2868 33.7638L80.1875 33.4659L80.9819 31.877V31.0825L80.7833 30.0895V28.9971L80.684 28.6992Z" fill="#C2E3FE"/>
<path d="M93.3977 72.1953L93.497 72.3939L92.9012 73.5856L92.8019 74.1814H92.6033L92.4047 75.0752L92.1068 75.4724L91.8088 76.3661L91.4116 76.8626L91.1137 78.3522L90.9151 78.5508L90.8158 79.1467L90.6172 78.8487L90.8158 77.7564L91.213 76.1675L92.1068 74.6779L93.2984 72.2946L93.3977 72.1953Z" fill="#30A3FF"/>
<path d="M64.8972 17.5762L65.5924 17.6755L66.4861 17.9734L67.5785 18.2713V18.4699H67.7771L67.9757 18.7678V19.2644L67.6778 19.3637L64.9965 17.9734L64.5 17.7748L64.8972 17.5762Z" fill="#FE9C18"/>
<path d="M98.1647 10.5254H98.562L98.6613 11.0219L98.2641 11.717L97.7675 12.2136L96.6752 12.7101L96.4766 12.6108V12.3129L96.9731 11.8164H97.1717L97.3703 11.3198L97.7675 11.1212L97.8668 10.724L98.1647 10.5254Z" fill="#0688FD"/>
<path d="M130.438 39.127H130.537L130.636 41.1131L130.438 42.0068L130.338 42.1061L130.239 43.4964L129.842 44.7873L129.445 45.7804L129.246 45.979L129.345 45.3832L129.743 43.7943L130.14 41.411L130.338 39.4249L130.438 39.127Z" fill="#FE9A12"/>
<path d="M66.582 48.4609L67.2772 48.5602L68.1709 48.8582L69.6605 49.6526L69.7598 49.9505L69.6605 50.1491L68.6674 49.8512L67.873 49.454L67.1779 49.1561L66.6813 48.7589L66.582 48.4609Z" fill="#FFB540"/>
<path d="M151.887 46.7734H153.277L153.972 47.1707L154.469 47.3693L154.568 47.8658L153.873 47.9651L153.575 47.8658V47.6672L152.582 47.4686L151.986 47.27L151.887 46.7734Z" fill="#0C91FF"/>
<path d="M98.9559 67.1309L99.0552 67.4288L97.8635 69.5142L96.7712 71.6989H96.6719V71.0037L97.1684 70.0107L97.4663 69.5142L97.6649 68.819L98.0621 68.6204L98.1614 68.2232L98.658 67.4288L98.9559 67.1309Z" fill="#1696FF"/>
<path d="M69.4626 13.7031L71.3494 14.5969L71.8459 14.8948V15.0934L72.2431 15.292L73.1369 15.9871L72.7396 16.0864L72.0445 15.6892L71.4487 15.0934H70.6542L70.4556 14.5969L69.4626 14.1003L69.3633 13.8024L69.4626 13.7031Z" fill="#FC9D18"/>
<path d="M52.8808 46.5742H55.1648L58.0447 46.9714L60.9245 47.6666V47.7659L59.9315 47.6666L58.144 47.2694L57.1509 47.0707L54.9662 46.8721L51.5898 46.7728V46.6735L52.8808 46.5742Z" fill="#98C97E"/>
<path d="M133.811 76.7617L134.507 76.861L134.209 77.0596L133.414 77.3575L132.719 77.4569H129.74L129.641 77.2582L131.627 77.1589L133.811 76.7617Z" fill="#F2F4FA"/>
<path d="M96.9723 9.73242H97.3695L97.4688 10.3283L96.7737 11.0234L96.3765 11.5199L95.582 11.6192L95.6813 11.3213L95.8799 11.1227L96.0786 10.7255L96.3765 10.4276L96.5751 10.3283L96.7737 9.93103L96.9723 9.73242Z" fill="#0688FD"/>
<path d="M121.203 61.2715L121.402 61.5694L121.203 61.8673V62.1652L119.614 63.5555L119.416 63.4562L119.316 63.059L120.012 62.3638H120.309L120.508 61.9666L121.005 61.3708L121.203 61.2715Z" fill="#FE9A17"/>
<path d="M108.988 10.2285L109.485 10.6257L110.18 11.5195L111.471 13.1084L111.868 13.5056L112.265 13.6049L112.365 13.4063L112.265 14.3L112.067 14.4986L111.074 13.1084L110.379 12.2146L109.485 11.1223L108.988 10.6257V10.2285Z" fill="#E9F1FB"/>
<path d="M61.8164 46.2754H62.5115L64.6962 47.0698L67.5761 48.5594L67.4768 48.758L66.583 48.3608L64.8949 47.5664L63.8025 47.0698L61.8164 46.3747V46.2754Z" fill="#86B732"/>
<path d="M148.016 43.3965H148.512L148.909 43.4958L150.2 43.6944L150.3 43.893L150.697 44.0916L149.108 43.9923L145.434 43.5951V43.4958H147.42L148.016 43.3965Z" fill="#D4E9FC"/>
<path d="M85.6491 23.4355L85.7484 23.7335L84.954 25.223L84.7554 25.6203L84.8547 26.1168L85.3512 26.2161L85.947 25.7196L85.7484 26.1168L85.3512 26.7126L84.954 26.6133L84.0602 25.7196L83.9609 25.4216L84.7554 25.0244L85.3512 24.0314L85.6491 23.4355Z" fill="#B3DCFE"/>
<path d="M98.2639 8.14258V8.44049L97.0723 9.63215L96.5758 10.3273L96.0792 10.6252L93.8945 12.8099V12.512L95.0862 11.3203L95.7813 10.5259L96.1785 10.1287H96.3772L96.5758 9.73146L97.2709 9.03632L98.0653 8.34119L98.2639 8.14258Z" fill="#229CFF"/>
<path d="M81.9743 77.9551H82.5701L82.7687 78.0544H83.5632V78.253L83.7618 78.1537H84.5562L85.2514 78.253L85.3507 78.3523H85.8472L85.9465 78.4516H86.443L86.2444 78.7495L85.3507 78.6502L82.1729 78.253L81.875 78.0544L81.9743 77.9551Z" fill="#9CCB83"/>
<path d="M69.7621 32.373H69.9608L69.7621 33.5647L69.5635 35.2529V38.232L69.4642 38.8279H69.3649L69.2656 37.8348V35.948L69.4642 33.7633L69.6628 32.5717L69.7621 32.373Z" fill="#8CBD3B"/>
<path d="M93.8945 17.875L94.3911 18.3715L95.1855 19.3646L95.682 20.0597L95.5827 20.2583L94.9869 19.8611L94.689 19.7618L94.2918 19.3646L94.0931 18.6694L93.8945 18.2722V17.875Z" fill="#90BB29"/>
<path d="M73.8331 22.7402L74.4289 22.9388L75.0247 23.3361L75.7199 23.9319V24.1305L76.1171 24.3291L76.9115 24.9249V25.1236L77.3087 25.3222V25.6201L75.9185 24.5277L74.4289 23.3361L73.9324 23.0381L73.5352 22.8395L73.8331 22.7402Z" fill="#FFB43E"/>
<path d="M89.4252 49.2559H89.5245L89.8224 51.0433V53.4267L89.6238 53.0294L89.4252 50.944L89.2266 50.7454V49.5538L89.4252 49.2559Z" fill="#FAF9FB"/>
<path d="M57.7474 80.7344L60.6272 80.8337V80.933L59.4356 81.1316L56.2578 81.3302L56.3571 81.1316L57.7474 80.8337V80.7344Z" fill="#BFE2FE"/>
<path d="M85.5508 27.8047L85.948 28.0033L86.6431 28.9963L87.1397 29.3936L87.4376 30.2873L87.8348 31.1811L87.6362 31.2804L86.7424 29.7908L85.5508 27.904V27.8047Z" fill="#F9F6FA"/>
<path d="M124.876 54.2207L124.975 54.6179L124.677 55.1144L124.081 55.8096L123.784 56.2068H123.585V56.4054L122.791 57.1005L122.195 57.6964L121.996 57.5971L123.188 56.3061L123.883 55.5117L124.876 54.2207Z" fill="#FE9A12"/>
<path d="M111.866 44.4883H111.966V45.1834L111.469 46.3751L110.774 47.7653L109.582 49.4535L109.086 50.0494V49.7514L110.079 48.3612L110.774 47.2688L111.569 45.4813L111.866 44.4883Z" fill="#B5DDFE"/>
<path d="M80.2887 80.3379H81.2818L82.672 80.5365L82.5727 80.8344L80.1894 80.7351V80.5365H78.8984V80.4372L80.2887 80.3379Z" fill="#B9DAA8"/>
<path d="M91.111 39.9199H91.2103L91.8062 42.3032L91.9055 42.9984V43.7928L91.6075 43.6935L91.2103 41.4095L91.0117 40.5158V40.0192L91.111 39.9199Z" fill="#F9F6FA"/>
<path d="M87.5391 15.3926L88.0356 15.4919L88.6314 15.8891L89.0286 16.2863L89.6245 16.4849H90.2203L89.8231 16.9815L89.2272 16.8822L88.3335 16.2863L87.7377 15.5912L87.5391 15.3926Z" fill="#8FBF3F"/>
<path d="M48.7079 15.4922L48.8072 15.8894L48.5093 17.2797L48.1121 16.9818L48.0128 17.1804V16.8825L47.7148 16.7832L47.9135 15.8894L48.5093 15.9887L48.7079 15.4922Z" fill="#FE9D17"/>
<path d="M103.226 15.3926L103.722 15.8891L104.12 16.3856V16.5842L103.226 17.2794L103.027 17.1801L103.226 16.0877V15.3926Z" fill="#F9F6FA"/>
<path d="M87.8337 31.2812L88.2309 31.7778L89.0253 33.3667L89.4226 34.459L89.9191 35.75V35.9486H89.7205L89.1246 34.3597L87.933 31.7778L87.7344 31.3806L87.8337 31.2812Z" fill="#F9F6FA"/>
<path d="M135.7 30.8848H135.8V33.1688L135.601 35.4528L135.402 35.0556V34.1618L135.502 33.1688V32.275L135.7 30.8848Z" fill="#FFA626"/>
<path d="M121.398 2.78125L121.696 2.88055L121.299 3.17847L119.71 3.97291L118.816 4.27082L119.015 3.8736L120.008 3.27777L121.398 2.78125Z" fill="#FAF7FB"/>
<path d="M64.9961 31.7773H65.0954V34.5579H65.294L65.3933 36.0475V37.7356H65.294L64.9961 35.4516V31.7773Z" fill="#91C258"/>
<path d="M130.041 30.6855H130.14L130.239 32.2744V34.9557L129.941 34.6577V30.8842L130.041 30.6855Z" fill="#F9F6FA"/>
<path d="M138.879 42.502L141.461 42.6013L142.553 42.8992V42.9985H140.964V42.7999L140.567 42.8992L139.177 42.7999L138.879 42.502Z" fill="#F9F6FA"/>
<path d="M46.6238 27.3086H46.7231L46.5245 31.0822H46.4252L46.2266 27.8051L46.6238 27.3086Z" fill="#FEA424"/>
<path d="M73.3352 22.9395L73.6331 23.0388L73.4345 23.5353L72.8386 24.5283L72.7393 24.8262L72.4414 24.7269L72.5407 24.3297V23.3367L72.8386 23.0388H73.0372L73.1365 23.436L73.3352 22.9395Z" fill="#80B21D"/>
<path d="M110.376 47.1699L110.574 47.2692L110.276 48.163L109.482 49.3546L109.085 49.8512L108.886 50.2484L108.688 50.1491L108.886 49.6525L109.482 48.7588L110.177 47.6664L110.376 47.1699Z" fill="#F7F7FB"/>
<path d="M53.1797 44.2891H53.8748L55.9602 44.6863L57.3505 44.9842V45.0835H56.4567L53.1797 44.4877V44.2891Z" fill="#8FC04B"/>
<path d="M111.074 8.63867L111.272 8.73798L110.776 9.2345L109.683 10.0289L109.584 10.5255L109.683 10.9227L109.187 10.4262L108.988 10.0289L110.081 9.33381L111.074 8.63867Z" fill="#FFAA2E"/>
<path d="M55.5603 81.0332L56.3548 81.1325L56.2555 81.4304L54.8652 81.629H54.17L53.5742 81.4304V81.3311H54.17L54.5673 81.2318L54.7659 81.1325H55.5603V81.0332Z" fill="#C9E6FE"/>
<path d="M100.547 59.6816H100.944L100.746 60.1782L99.7527 61.6677L99.4548 61.9657L99.3555 61.4691L99.9513 60.5754H100.15L100.349 59.9796L100.547 59.6816Z" fill="#E9F1FC"/>
<path d="M89.9215 77.3594L90.1201 77.4587L90.2194 77.7566L90.1201 78.1538L89.8222 78.4517V78.9483L90.0208 79.0476V79.2462L88.8292 79.0476L88.5312 78.8489H89.2264L89.425 78.3524L89.8222 77.8559L89.9215 77.3594Z" fill="#FDFDFE"/>
<path d="M64.1016 48.5605L64.896 48.6599L66.187 48.9578L67.8751 49.355L68.471 49.6529L68.2724 49.7522L66.6835 49.355L64.5981 48.8585L64.1016 48.6599V48.5605Z" fill="#98C97D"/>
<path d="M116.93 23.834L117.327 24.2312L117.923 26.2173L117.823 26.9124L117.625 26.5152L116.93 24.2312V23.834Z" fill="#D7EAFC"/>
<path d="M89.8203 12.9102L90.5154 13.506L91.1113 14.2011L91.4092 14.3997L91.3099 14.8963L91.1113 14.9956V14.6976L90.7141 14.499L90.3168 13.9032L90.1182 13.4067L89.8203 13.1088V12.9102Z" fill="#98BC29"/>
<path d="M47.3203 4.96484H48.3134L49.505 5.16345L50.2002 5.46137L50.1008 5.65998L47.3203 5.16345V4.96484Z" fill="#F9F7FA"/>
<path d="M91.9071 74.4785H92.1057L92.0064 75.0743L91.3113 76.1667L91.1127 76.7625L90.9141 76.5639L91.0134 76.0674L91.5099 75.3723L91.212 75.5709L90.9141 75.4716L91.5099 75.0743L91.7085 74.7764H91.9071V74.4785Z" fill="#EFF4FB"/>
<path d="M112.96 12.8105L113.357 12.9099L112.364 13.4064L112.265 13.605L111.768 13.5057L111.371 13.0092L112.96 12.8105Z" fill="#FEA323"/>
<path d="M130.735 50.4473L130.835 50.8445L129.941 52.2348H129.742L129.841 51.5396L130.04 51.2417H130.239L130.437 50.5466L130.735 50.4473Z" fill="#FE8512"/>
<path d="M108.988 10.2285L109.485 10.6257L110.18 11.5195L110.974 12.5125L110.875 12.8104L109.485 11.1223L108.988 10.6257V10.2285Z" fill="#F4F7FC"/>
<path d="M94.1908 76.3652L94.3894 76.6631L94.4887 77.7555H95.5811V77.8548L94.3894 77.9541L94.0915 77.8548L93.9922 76.7625L94.1908 76.3652Z" fill="#BFE2FF"/>
<path d="M47.9141 81.2305H49.0064L49.6022 81.3298L49.7016 81.4291H50.7939L50.496 81.6277H49.0064L48.212 81.5284L47.9141 81.4291V81.2305Z" fill="#CCE7F6"/>
<path d="M90.1211 36.9414H90.3197L90.9155 39.0268L91.1141 39.424L91.0148 40.0199L90.8162 39.7219L90.1211 37.2393V36.9414Z" fill="#F9F6FA"/>
<path d="M69.5625 48.7578L69.9597 49.155L70.6549 50.2474L70.9528 50.7439L71.5486 51.2404L71.35 51.439L71.0521 51.1411L70.5555 50.7439V50.5453L69.7611 49.4529L69.5625 48.7578Z" fill="#9CCB84"/>
<path d="M133.713 43.5957H133.912L133.713 44.5888L133.415 45.4825L133.216 45.1846L133.415 44.6881L133.316 44.3901H133.117V44.1915H133.316V43.8936L133.713 43.5957Z" fill="#FEA220"/>
<path d="M44.9363 5.75977H45.0356L45.1349 6.4549L44.837 8.04378L44.7377 8.34169H44.5391L44.6384 7.24934L44.9363 5.75977Z" fill="#FEA220"/>
<path d="M120.309 62.2637L120.508 62.5616H120.21L120.012 63.0581L119.912 63.356L119.515 63.5546L119.316 63.0581L120.012 62.363L120.309 62.2637Z" fill="#FE9B15"/>
<path d="M97.5673 64.6484L97.6666 64.847L96.7728 66.3366L96.5742 66.138L96.6735 65.6415L96.9714 65.0457H97.17V64.847L97.5673 64.6484Z" fill="#E6F1FC"/>
<path d="M148.016 43.3965H148.512L148.909 43.5951V43.7937L146.427 43.6944L145.434 43.5951V43.4958H147.42L148.016 43.3965Z" fill="#DEEDFC"/>
<path d="M69.3649 35.3516H69.4642L69.5635 36.2453V38.2314L69.4642 38.8272H69.3649L69.2656 37.8342V35.9474L69.3649 35.3516Z" fill="#98C97E"/>
<path d="M99.1577 61.8672L99.4556 61.9665L98.7605 63.1582L98.3633 63.6547V62.8602L98.5619 62.6616H98.8598L98.7605 62.3637L99.1577 61.8672Z" fill="#E4EFFC"/>
<path d="M86.4453 29.3945L86.9418 29.8911L87.637 31.0827L87.5377 31.2813L87.3391 30.8841L86.9418 30.6855L86.5446 30.0897L86.4453 29.3945Z" fill="#FFA524"/>
<path d="M123.087 80.3379H123.981L124.577 80.4372V80.6358H123.286L121.598 80.5365V80.4372L123.087 80.3379Z" fill="#B7DEFE"/>
<path d="M89.8222 77.3594H89.9215V77.8559L89.3257 78.6503L89.2264 78.8489H88.5312L88.8292 78.6503H89.0278L89.2264 78.1538L89.425 77.7566L89.8222 77.6573V77.3594Z" fill="#BFE2FF"/>
<path d="M123.98 76.8613H125.867V76.9606L127.158 77.1592V77.2585H126.066L124.179 77.0599L123.98 76.8613Z" fill="#FDFDFE"/>
<path d="M43.2461 43.4961L45.7287 43.5954L46.4238 43.6947V43.794L44.835 43.8933V43.794L43.2461 43.6947V43.4961Z" fill="#98C977"/>
<path d="M43.347 13.8027H43.4464L43.5457 14.2993V15.193L43.347 15.9874H43.2477L43.1484 14.8951L43.347 13.8027Z" fill="#FEA424"/>
<path d="M48.5117 81.0332H49.5048L50.7957 81.3311V81.4304L49.4055 81.5297L49.0082 81.3311L48.5117 81.2318V81.0332Z" fill="#98C97B"/>
<path d="M90.6166 79.0469L90.8152 79.3448L91.1131 80.2385L91.5103 81.1323V81.3309L91.2124 81.2316L90.7159 80.2385L90.5173 79.742L90.418 79.5434H90.6166V79.0469Z" fill="#D3E7C9"/>
<path d="M128.353 44.1914H128.949L129.048 44.39L126.962 44.8865L126.168 44.9858L126.466 44.7872L128.154 44.2907L128.353 44.1914Z" fill="#BFE2FF"/>
<path d="M150.795 43.8926L152.086 43.9919L152.185 44.2898L153.079 44.3891V44.4884L151.986 44.3891L150.695 44.1905L150.795 43.8926Z" fill="#D7EAFC"/>
<path d="M65.294 28.7988H65.3933V30.0898L65.294 31.4801L65.0954 31.5794L64.9961 30.9835L65.1947 29.196L65.294 28.7988Z" fill="#90C150"/>
<path d="M84.5563 78.252H85.2515L85.3508 78.3513H85.8473L85.9466 78.4506H86.4431L86.2445 78.7485L84.457 78.5499L84.5563 78.252Z" fill="#98C97E"/>
<path d="M91.3097 81.3301H91.5083V81.7273L91.0118 81.8266H89.7208L89.125 81.628L89.2243 81.5287H91.2104L91.3097 81.3301Z" fill="#98C97E"/>
<path d="M102.034 57.7949L102.233 58.0928L101.439 59.1852L101.339 58.9866L101.141 58.8873H101.339L101.439 58.3908L102.034 57.7949Z" fill="#E4EFFC"/>
<path d="M67.082 48.2617L67.5786 48.361L68.0751 48.5596L68.5716 48.6589L68.6709 49.0562L69.0681 49.2548H68.7702L67.082 48.361V48.2617Z" fill="#F9F6FA"/>
<path d="M133.416 45.2832L134.905 45.4818L136.196 45.5811V45.6804H133.912L133.316 45.879L133.416 45.2832Z" fill="#C5E4FE"/>
<path d="M103.126 72.0957L103.623 72.195L103.424 72.5922L102.63 72.9894L102.332 73.1881L102.531 72.7908L103.126 72.0957Z" fill="#FF9C15"/>
<path d="M123.982 55.4121V55.71L123.088 56.7031L122.393 57.4975L121.996 57.6961L122.592 56.9017L123.982 55.4121Z" fill="#FFB540"/>
<path d="M44.4385 8.3418L44.7365 8.54041L44.4385 10.03L44.1406 10.2286L44.2399 9.23554L44.4385 8.3418Z" fill="#FEA323"/>
<path d="M153.376 44.3887L154.468 44.488L154.965 44.6866V44.8852L154.071 44.7859L153.078 44.5873L153.376 44.3887Z" fill="#DEECFC"/>
<path d="M95.3829 14.6973V14.9952L93.4961 16.882V16.5841L94.3898 15.591L95.1843 14.8959L95.3829 14.6973Z" fill="#CBE7FE"/>
<path d="M124.578 80.4375L127.061 80.6361V80.7354H124.777L124.578 80.6361V80.4375Z" fill="#B1DBFE"/>
<path d="M126.267 76.8613H126.764L126.962 76.9606L127.359 76.8613L127.459 77.1592L128.055 77.2585V77.3579H127.161V77.1592L125.473 77.0599V76.9606L126.267 76.8613Z" fill="#FAF7FB"/>
<path d="M129.941 39.0273L130.139 39.1266L130.04 40.9141L129.742 41.1127L129.941 39.0273Z" fill="#F9F6FA"/>
<path d="M69.4626 13.7031L70.7535 14.299V14.4976L69.9591 14.3983L69.4626 14.1003L69.3633 13.8024L69.4626 13.7031Z" fill="#FEA120"/>
<path d="M86.6417 81.1328H87.5354L88.5285 81.3314L88.1312 81.53L87.0389 81.4307L86.741 81.3314L86.3438 81.2321L86.6417 81.1328Z" fill="#9FCC87"/>
<path d="M73.3374 22.9395L73.6353 23.0388L73.4367 23.5353L72.8409 24.5283L72.7416 24.8262H72.543L72.8409 23.9325L73.3374 22.9395Z" fill="#98C97E"/>
<path d="M73.1367 16.0879L73.5339 16.2865L74.8249 17.2795L74.527 17.3789L74.2291 17.1802V16.9816H73.9312V16.783L73.5339 16.6837L73.3353 16.5844L73.1367 16.0879Z" fill="#FFA322"/>
<path d="M135.601 33.2676H135.7V34.5585L135.601 35.4523L135.402 35.0551V34.1613L135.601 33.2676Z" fill="#FFA728"/>
<path d="M82.4727 30.3867L83.1678 30.9825L83.8629 31.6777L84.1608 32.0749L84.0615 32.2735L83.1678 31.3798L82.4727 30.5853V30.3867Z" fill="#FCFBFD"/>
<path d="M47.4184 21.4492H47.617V22.045H47.4184L47.2198 22.4423L47.0212 22.1444L46.9219 21.6478L47.4184 21.4492Z" fill="#FE9111"/>
<path d="M130.14 36.7422H130.239V38.9269H130.041L129.941 37.4373H130.14V36.7422Z" fill="#F9F6FA"/>
<path d="M111.071 8.63867L111.269 8.73798L110.773 9.2345L110.078 9.73103L109.879 9.63172L110.375 9.1352L111.071 8.63867Z" fill="#FFA728"/>
<path d="M82.6696 80.5371L84.6557 80.7357V80.835L83.9606 80.9343H83.1661L82.9675 80.835L82.5703 80.7357L82.6696 80.5371Z" fill="#98C97E"/>
<path d="M81.5798 80.4375H82.2749L82.6721 80.5368L82.5728 80.8347H81.7784L81.4805 80.6361L81.5798 80.4375Z" fill="#AAD295"/>
<path d="M118.621 60.7754V61.0733L117.826 61.8677L117.23 62.265V61.967L117.926 61.3712H118.124V61.1726L118.621 60.7754Z" fill="#FFB037"/>
<path d="M48.7109 42.8008L49.2075 43.2973L49.4061 43.7938L50.2998 43.8931L50.3991 44.0917H49.704L49.2075 43.8931L48.7109 42.9994V42.8008Z" fill="#FFB540"/>
<path d="M65.0938 47.2695L65.5903 47.3688L66.9805 47.9647L67.0798 48.1633L66.3847 48.064L65.0938 47.3688V47.2695Z" fill="#F9F7FA"/>
<path d="M100.348 21.0527H100.447L100.348 21.9465L100.05 22.443L99.8516 22.6416L99.9509 21.8472L100.348 21.0527Z" fill="#F9F7FA"/>
<path d="M100.546 59.6816H100.943L100.744 60.1782L100.347 60.774L100.148 60.3768L100.546 59.6816Z" fill="#E0EEFC"/>
<path d="M61.8164 46.2754H62.5115L63.6039 46.6726L63.5046 46.8712L62.4122 46.5733L61.8164 46.3747V46.2754Z" fill="#8DBE41"/>
<path d="M99.5516 23.0391L99.6509 23.2377L99.2537 23.7342L98.8565 24.1314L98.5586 24.0321L99.1544 23.337L99.5516 23.0391Z" fill="#F9F6FA"/>
<path d="M84.6561 80.7344L85.2519 80.8337V81.0323L84.6561 81.1316L83.9609 81.0323V80.8337L84.6561 80.7344Z" fill="#BBDBAB"/>
<path d="M89.8203 51.1426H90.0189L90.1182 51.5398V52.6322L89.9196 52.5328L89.8203 52.0363V51.1426Z" fill="#FDFDFE"/>
<path d="M110.375 47.1699L110.574 47.2692L110.276 48.163L109.978 48.4609L109.879 48.0637L110.276 47.3685L110.375 47.1699Z" fill="#F9F7FA"/>
<path d="M135.404 76.2656L135.9 76.3649L135.602 76.5635L134.609 76.8615V76.5635L135.404 76.2656Z" fill="#DDECFC"/>
<path d="M91.7085 75.1738L91.8078 75.3724L91.3113 76.1669L91.1127 76.7627L90.9141 76.5641L91.0134 76.0676L91.7085 75.1738Z" fill="#C0E2FA"/>
<path d="M112.364 7.8457L112.563 7.94501L111.768 8.64014L111.371 8.73945V8.44153L112.364 7.8457Z" fill="#FFA82A"/>
<path d="M53.1797 44.2891H53.8748L54.4707 44.4877L54.57 44.6863L53.5769 44.587L53.1797 44.4877V44.2891Z" fill="#8DBE40"/>
<path d="M44.0424 10.2285L44.3403 10.4271L44.1417 11.5195L43.8438 11.6188L43.9431 10.725L44.0424 10.2285Z" fill="#FFA525"/>
<path d="M49.0078 78.252L50.2988 78.4506L50.696 78.7485H50.0009L49.0078 78.3513V78.252Z" fill="#F9F7FA"/>
<path d="M91.9062 45.1836L92.3035 45.3822V46.1766H92.0056L91.9062 45.1836Z" fill="#F9F6FA"/>
<path d="M108.988 10.2285L109.485 10.6257L109.783 11.023L109.683 11.3209L108.988 10.6257V10.2285Z" fill="#E4EEFB"/>
<path d="M44.9369 5.75977H45.0362L45.1355 6.4549L45.0362 7.15003L44.7383 7.24934L44.8376 6.25629L44.9369 5.75977Z" fill="#FEA728"/>
<path d="M116.732 5.36328H116.931L116.732 5.85981L116.137 5.95911L115.839 6.15772L115.441 6.05842L116.732 5.36328Z" fill="#FEA425"/>
<path d="M143.644 71.2012L143.942 71.3998L143.148 72.0949L142.949 71.9956V71.797L143.644 71.2012Z" fill="#DCEBFC"/>
<path d="M73.6328 50.5469L74.1293 51.0434L74.5266 51.5399L74.4273 51.7385L74.1293 51.5399L73.6328 50.7455V50.5469Z" fill="#A1CC4D"/>
<path d="M80.9819 32.1738V32.4717L80.4854 33.3655L80.1875 33.7627L80.2868 33.1669L80.7833 32.3724L80.9819 32.1738Z" fill="#BFE2FF"/>
<path d="M103.624 15.9883L104.022 16.1869L104.121 16.5841L103.624 16.9813L103.426 16.882L103.624 16.6834V15.9883Z" fill="#FAF9FB"/>
<path d="M91.4083 75.2734L91.6069 75.3727L91.1104 76.0679H90.9118L90.8125 75.472L91.309 75.3727L91.4083 75.2734Z" fill="#FDFDFE"/>
<path d="M46.6238 43.6934L48.1134 43.7927V43.892L46.2266 43.9913L46.6238 43.6934Z" fill="#98CB6C"/>
<path d="M77.9062 19.9609L78.3035 20.1595L79.1972 20.954L79.0979 21.2519L77.9062 20.0602V19.9609Z" fill="#FE8910"/>
<path d="M90.8125 14.002L91.4083 14.3992L91.309 14.8957L91.1104 14.995L90.8125 14.002Z" fill="#C2C34C"/>
<path d="M96.1785 77.5566H96.9729V77.7553L95.8806 77.8546L95.7812 77.6559L96.1785 77.5566Z" fill="#B2DCFE"/>
<path d="M124.876 54.2207L124.976 54.6179L124.579 55.1144L124.082 55.4124L124.281 55.0151L124.876 54.2207Z" fill="#FEA424"/>
<path d="M87.6367 31.2812L88.0339 31.7778L88.2325 32.3736L87.9346 32.4729L87.6367 31.5792V31.2812Z" fill="#FEA322"/>
<path d="M42.3555 28.5L42.6534 28.6986V29.791L42.4548 29.493L42.3555 28.5Z" fill="#FAF8FB"/>
<path d="M68.1723 19.9609H68.3709L68.2716 20.4575L67.7751 21.3512L67.6758 20.954L68.1723 19.9609Z" fill="#98C97E"/>
<path d="M104.816 17.5762L105.114 17.7748L105.313 18.4699L105.114 18.5692L104.916 18.4699L104.816 17.5762Z" fill="#FEC05D"/>
<path d="M49.0056 13.7031H49.2042L49.1049 14.5969L49.0056 15.0934H48.9062V13.8024L49.0056 13.7031Z" fill="#FFAB2E"/>
<path d="M117.628 4.66797L118.025 4.76727L116.734 5.46241L116.535 5.3631L116.932 5.06519L117.628 4.66797Z" fill="#FCFCFD"/>
</svg>
