<svg width="300" height="100" viewBox="0 0 300 100" fill="none" xmlns="http://www.w3.org/2000/svg">
<path d="M0 25.6895H30.3449L33.4484 26.2067L35.345 26.3791L38.276 27.4136L39.8277 27.7584L40.8622 28.4481L42.414 29.1377L44.1381 30.3446L45.1726 31.0342L46.0347 31.7239L47.9312 33.2756L48.7933 33.9652L49.3105 34.3101L49.8278 35.1721L51.7243 37.4135L52.9312 39.31L54.483 42.0686L55.345 44.4824L55.8623 46.0341L56.8968 50.5168L57.0692 54.9996L56.8968 57.9306L55.8623 62.4133L55.5174 63.7926L54.8278 65.3443L54.3105 66.5512L53.1036 68.965L51.8967 70.5167L50.1726 72.9305L48.7933 74.4822L47.7588 75.1718L46.7243 76.3787L44.1381 78.1028L43.6209 78.6201L42.0691 79.3097L37.2415 81.5511L33.9656 82.2407L30.3449 82.9304H26.5518L22.9311 82.2407L21.7242 81.8959L19.4828 81.5511L16.7242 80.1718L15.1725 79.4821L13.1035 78.2752L12.4138 77.758L11.3794 77.2408L9.13797 75.1718L7.93106 74.1373L6.72416 72.758L5.68968 71.5512L5.00002 70.5167L3.6207 68.2753L2.4138 66.034L1.72414 64.8271L0.517243 60.6892L0 56.034V25.6895Z" fill="#023732"/>
<path d="M71.3828 25.6895H92.4174L96.7277 26.2067L99.314 26.3791L100.521 26.7239L101.383 27.2412L102.935 27.7584L105.521 29.4825L106.038 30.3446L106.9 31.0342L107.935 32.5859L108.624 33.448L109.486 35.8618L110.004 37.4135V42.9307L109.659 44.31L108.969 45.6893L108.452 47.0686L107.59 47.7582L106.9 49.1375L105.866 49.8272L105.004 50.5168L102.59 51.7237L100.521 52.241L100.866 52.7582L102.073 53.2754L103.797 53.6203L105.004 54.4823L105.866 54.9996L107.59 56.2064L108.797 57.2409L110.004 59.1375L111.038 61.034L111.728 63.7926L112.073 65.3443L112.245 68.1029L111.728 71.0339L111.038 74.1373L110.176 75.3442L109.831 76.3787L108.107 78.2752L105.521 79.9994L102.245 81.5511L98.1071 82.4131L93.6243 82.9304H75.1759L73.4518 82.0683L72.4173 81.2062L71.3828 78.7925V25.6895Z" fill="#023732"/>
<path d="M150.691 25.6895H158.795L158.967 25.8619V67.9305L159.14 77.4132L159.657 78.6201L161.554 79.3097L165.174 79.4821L165.347 79.6545V82.758L165.174 82.9304H155.002L153.278 82.4131L151.898 81.5511L150.864 79.1373L150.691 78.2752V25.6895Z" fill="#023732"/>
<path d="M123.622 44.8262H143.967L144.14 45.171L143.967 47.5848L143.795 47.7572L129.139 47.9296L127.76 48.7917L127.07 49.9985L126.898 60.5157H140.691L140.864 60.6881V63.7915L140.691 64.1364L126.898 64.3088L127.07 77.4121L127.76 78.619L129.139 79.1362L130.002 79.3087L143.967 79.4811L144.14 81.2052L143.967 82.7569L143.795 82.9293H122.415L120.864 82.4121L119.484 81.55L118.967 79.9983L118.45 78.619L118.277 77.4121V50.3434L118.622 48.102L119.657 46.0331L120.691 45.3434L123.622 44.8262Z" fill="#023732"/>
<path d="M265.346 44.8262H285.346V47.5848L285.174 47.7572L270.691 47.9296L269.139 48.6192L268.449 49.8261L268.277 51.2054V60.5157H282.07L282.243 60.6881V62.9295L282.07 64.1364L268.277 64.3088V76.2052L268.622 77.9294L269.484 78.7914L271.553 79.3087L285.346 79.4811V82.7569L285.174 82.9293H263.794L262.415 82.4121L261.208 81.55L260.173 79.8259L259.656 77.7569V49.6537L260.173 47.5848L261.208 46.0331L261.898 45.3434L265.346 44.8262Z" fill="#023732"/>
<path d="M196.036 44.8262H216.381V47.5848L216.209 47.7572L201.554 47.9296L199.829 48.6192L198.967 49.6537V60.3433L212.588 60.5157V63.9639L212.416 64.1364L200.691 64.3088L198.967 64.4812V77.5845L199.657 78.619L201.209 79.1362L202.243 79.3087L216.381 79.4811V82.7569L216.036 82.9293H194.657L193.105 82.4121L191.553 81.3776L190.691 79.8259V47.5848L191.381 46.3779L192.243 45.8606L192.588 45.3434L196.036 44.8262Z" fill="#023732"/>
<path d="M221.898 44.8262H230.692L231.209 46.2055L231.898 48.9641L232.933 51.3778L233.278 53.4468L234.14 55.6882L234.657 57.7571L235.347 59.826L235.692 61.3778L236.554 63.9639L236.898 65.5157L238.278 68.9639L238.45 70.5156L239.485 73.2742L239.83 74.9983L240.692 77.0673L240.864 77.4121H242.071L242.761 74.6535L243.45 72.9294L243.795 70.8604L244.657 68.7915L245.002 66.7225L245.864 64.4812L246.209 62.9295L247.071 60.6881L247.588 59.3088L247.933 57.4123L248.795 55.1709L249.14 53.4468L249.83 51.5503L250.174 49.6537L251.209 47.0675L251.726 45.6882L251.899 44.8262H255.347L255.002 46.3779L254.312 48.102L253.968 49.9985L253.105 52.2399L252.761 54.1364L251.899 56.5502L251.381 58.6192L250.519 60.5157L250.174 61.3778L249.83 63.2743L249.14 64.9984L248.45 67.9294L247.933 69.1363L247.416 71.3777L246.209 74.3087L245.692 76.5501L243.967 79.9983L242.933 81.3776L240.174 82.7569L239.485 82.9293H237.761L235.864 82.2397L234.312 81.2052L233.795 80.1707L233.105 79.8259L232.416 77.9294L231.381 76.2052L231.036 74.1363L230.002 71.3777L229.657 69.6536L228.967 68.1018L228.45 65.5157L227.243 62.7571L226.726 60.3433L225.864 57.9295L225.519 56.2054L224.829 54.4813L224.14 51.7227L223.105 49.3089L222.416 46.5503L221.898 45.3434V44.8262Z" fill="#023732"/>
<path d="M81.899 54.6543H90.8645L94.1404 55.6888L95.5197 56.0336L97.0714 56.8957L97.9335 57.7577L99.4853 59.137L100.002 59.9991L100.52 60.6887L101.037 62.7577L101.727 64.8266V70.8611L101.209 72.5852L100.347 74.6541L99.6577 75.3438L99.3128 76.3783L98.1059 76.8955L97.2439 77.5851L94.3128 78.6196L93.2783 78.792L89.1404 78.9644H82.0714L81.7266 78.6196V54.8267L81.899 54.6543Z" fill="#FEFEFE"/>
<path d="M82.2438 29.1367H86.5542L89.83 29.4815L93.4507 30.3436L95.0025 30.6884L96.037 31.5505L97.0714 32.2401L99.1404 34.4815L99.8301 37.2401L100.175 39.6539L100.002 42.0676L99.1404 46.0331L98.4508 46.378L98.1059 47.0676L96.2094 49.309L93.1059 50.5159L87.2438 51.0331H82.0714L81.7266 50.6883V29.4815L82.2438 29.1367Z" fill="#FEFEFE"/>
<path d="M172.415 44.8262H177.242L179.311 45.5158L180.69 47.4124L181.208 48.6192V82.7569L180.863 82.9293H172.415L172.242 82.7569V44.9986L172.415 44.8262Z" fill="#023732"/>
<path d="M8.44831 0H11.2069L13.9656 0.68965L16.3794 2.06895L17.9311 3.79307L18.9656 5.5172L19.4828 7.41373L19.6552 8.62062L19.8277 16.2068V19.655L19.6552 19.8274H9.31038L6.03451 19.3102L3.96553 18.1033L2.24139 16.724L1.03449 14.8275L0.344829 12.9309L0 11.2068V8.79303L0.689658 5.68961L1.89656 3.79307L3.96553 1.72412L6.20692 0.517237L8.44831 0Z" fill="#FA9133"/>
<path d="M293.104 30.5176H295.173L296.898 31.0348L298.277 32.0693L299.311 33.621L300.001 35.5175V36.7244L299.139 38.9658L298.449 40.0003L297.242 41.0347L295.346 41.7244L293.794 41.8968L292.242 41.552L290.518 40.6899L289.484 39.483L288.622 37.5865L288.449 36.8968V35.1727L289.139 33.2762L290.346 31.7245L292.07 30.69L293.104 30.5176Z" fill="#FEFEFE"/>
<path d="M175.516 30.5176H177.412L179.136 31.3796L180.343 32.5865L181.033 33.7934L181.205 34.4831V39.8278L181.033 40.0003H175.861L174.654 39.483L172.93 37.9313L171.895 36.2072L171.723 34.4831L172.412 32.9314L173.619 31.7245L175.516 30.5176Z" fill="#FA9133"/>
<path d="M112.414 91.3789H116.552L118.104 91.8961L118.966 92.7582L119.138 94.3099L118.276 95.6892L118.621 96.3789L118.966 97.5858L119.138 99.6547L118.276 99.4823L118.104 99.1375L117.759 96.3789H113.966V98.2754L113.793 99.6547H112.414V91.3789Z" fill="#023732"/>
<path d="M293.104 30.5176H295.173L296.898 31.0348L298.277 32.0693L299.311 33.621L300.001 35.5175V36.7244L299.139 38.9658L298.449 40.0003L297.242 41.0347L295.346 41.7244L293.794 41.8968L292.242 41.552L290.518 40.6899L289.484 39.483L288.622 37.5865L288.449 36.8968V35.1727L289.139 33.2762L290.346 31.7245L292.07 30.69L293.104 30.5176ZM293.277 31.5521L291.553 32.0693L290.173 33.621L289.484 35.1727V36.8968L290.691 39.3106L291.553 40.1727L293.104 40.6899H295.173L297.242 39.8278L298.277 38.4485L298.966 36.8968V35.3451L298.277 33.621L297.242 32.4141L295.863 31.7245L295.001 31.5521H293.277Z" fill="#023732"/>
<path d="M167.932 92.2402H169.828L170.863 92.9299L171.552 93.9644L171.725 94.4816V96.3781L171.035 97.7574L170.173 98.7919L169.483 99.1367H168.277L166.897 98.4471L166.208 97.2402L166.035 96.723V94.654L166.552 93.2747L167.242 92.5851L167.932 92.2402Z" fill="#FEFEFE"/>
<path d="M236.555 91.3789H237.935L239.141 95.3444L240.004 97.9306L240.176 98.103L241.383 94.4823L242.59 91.5513L242.762 91.3789H243.797L243.969 91.5513V99.6547H243.107V93.2754H242.762L242.072 96.2065L240.521 99.4823L239.831 99.8271L239.141 98.103L237.59 93.6203L237.245 93.2754V98.6202L237.072 99.6547H236.383V91.5513L236.555 91.3789Z" fill="#023732"/>
<path d="M280.172 92.2402H282.069L283.448 92.7575L284.138 93.4471L284.31 93.7919V97.0678L283.621 98.2747L282.759 98.7919L282.069 98.9643H280V92.4126L280.172 92.2402Z" fill="#FEFEFE"/>
<path d="M125.001 91.207L125.863 91.7243L127.415 93.6208L128.105 95.0001L129.139 96.7242L129.829 97.5863L130.001 92.0691L130.174 91.3794H131.036L131.208 94.6553L131.036 99.6552L129.829 99.4828L128.967 98.6208L128.105 96.8966L127.07 95.3449L126.036 94.138L125.691 99.6552H124.829L124.656 98.4484V93.276L124.829 91.3794L125.001 91.207Z" fill="#023732"/>
<path d="M192.932 91.207L193.794 91.7243L194.656 93.7932L195.174 95.3449L196.38 98.1035V99.6552L195.518 99.4828L195.001 98.7932L194.484 97.4139H191.553L190.346 99.6552L189.656 99.8277L189.829 98.6208L191.208 94.8277L192.242 92.7587L192.76 91.3794L192.932 91.207Z" fill="#023732"/>
<path d="M139.483 91.3789L140.345 91.5513L141.035 92.7582L141.552 94.6547L142.242 96.3789L142.931 98.7926L143.276 99.8271L142.414 99.6547L141.897 98.7926L141.207 97.4133H138.276L137.759 98.2754L137.242 99.3099L136.724 99.8271H136.207L136.724 98.103L137.414 95.8616L138.104 94.1375L138.621 92.4134L139.483 91.3789Z" fill="#023732"/>
<path d="M278.965 91.3789H282.241L283.965 91.8961L284.827 92.5858L285.345 93.7927V97.2409L284.655 98.6202L283.793 99.3099L282.414 99.6547H278.793V91.5513L278.965 91.3789ZM280.172 92.241L280 92.4134V98.9651H282.069L283.276 98.4478L284.138 97.5858L284.31 97.0685V93.7927L283.793 92.9306L282.759 92.4134L282.069 92.241H280.172Z" fill="#023732"/>
<path d="M78.4459 91.3789L79.4803 91.5513L80.5148 93.103L81.7217 94.9996L83.2735 97.5858L83.6183 97.7582V91.5513L84.3079 91.3789L84.4804 91.5513V99.4823L84.3079 99.6547H83.4459L82.4114 98.103L81.2045 96.2065L79.9976 94.6547L79.4803 93.4479L79.1355 93.2754V99.4823L78.2734 99.6547V91.5513L78.4459 91.3789Z" fill="#023732"/>
<path d="M167.931 91.207H169.655L171.035 91.8967L172.069 93.1036L172.759 94.8277V96.207L171.897 98.2759L171.035 99.3104L169.655 99.8277H167.759L166.034 98.9656L165.345 97.9311L165 96.5518V94.8277L165.517 92.9312L166.207 92.0691L167.931 91.207ZM167.931 92.2415L166.724 92.9312L166.207 93.9656L166.034 94.6553V96.7242L166.724 98.2759L167.759 98.9656L168.276 99.138H169.483L170.517 98.4484L171.379 97.2415L171.724 96.3794V94.4829L171.207 93.4484L170.517 92.5863L169.828 92.2415H167.931Z" fill="#023732"/>
<path d="M291.723 32.9316H295.171L296.033 33.6213L296.378 34.3109V35.3454L295.861 36.2075L295.171 36.7247L295.861 37.4144L296.378 38.4488L296.55 39.1385L295.861 39.3109L295.343 39.1385L294.654 37.5868V37.0695L292.93 36.8971L292.757 39.3109L291.895 39.1385L291.723 38.7937V32.9316Z" fill="#023732"/>
<path d="M178.274 91.3789H179.136L179.826 92.241L181.205 94.4823L183.274 97.5858H183.446L183.619 91.5513L184.308 91.3789L184.481 93.4479V98.2754L184.308 99.4823L184.136 99.6547H183.274L182.24 97.9306L181.377 96.8961L180.343 95.172L179.481 93.6203L178.964 93.2754V99.6547H178.102V92.0686L178.274 91.3789Z" fill="#023732"/>
<path d="M267.762 91.3789H273.279V92.0686L273.107 92.241H268.796V95.3444H272.934V96.034H268.796L268.969 98.7926H273.279L273.451 99.4823L273.279 99.6547H267.762V91.3789Z" fill="#023732"/>
<path d="M101.379 91.3789H106.896V92.241L102.413 92.4134L102.241 95.3444H106.896L106.724 96.034H102.241L102.413 98.7926H106.896V99.6547H101.379V91.3789Z" fill="#023732"/>
<path d="M145.864 91.3789H152.071L152.416 91.5513L152.071 92.241L150.002 92.4134L149.829 99.4823L149.657 99.6547H148.622L148.45 92.5858L148.278 92.4134L145.864 92.241L145.691 91.5513L145.864 91.3789Z" fill="#023732"/>
<path d="M89.4849 91.3789H96.0367L96.3815 91.5513V92.0686L96.0367 92.241L93.6229 92.4134L93.4504 99.4823L93.278 99.6547H92.416L92.2435 92.4134L89.6573 92.241L89.3125 91.5513L89.4849 91.3789Z" fill="#023732"/>
<path d="M114.141 92.2402H116.727L117.589 92.5851L118.107 93.1023V94.654L117.589 95.1712L117.072 95.3437H114.314L113.969 95.1712V92.4126L114.141 92.2402Z" fill="#FEFEFE"/>
<path d="M255.863 91.3789H259.312L262.415 91.5513L262.07 92.241L259.829 92.4134L259.656 92.5858L259.484 99.6547L258.622 99.4823L258.449 92.5858L258.277 92.4134L256.208 92.241L255.863 92.0686V91.3789Z" fill="#023732"/>
<path d="M202.071 91.3789L202.933 91.5513L203.105 98.7926H206.898L207.071 99.4823L205.519 99.6547H201.898V91.5513L202.071 91.3789Z" fill="#023732"/>
<path d="M158.277 91.5508H159.484L159.657 91.8956V98.2749L159.484 99.4818L159.312 99.6542H158.277V91.5508Z" fill="#023732"/>
<path d="M219.481 91.3789L220.171 91.5513L220.343 98.7926L224.481 98.9651V99.4823L222.929 99.6547H219.481L219.309 99.4823V91.5513L219.481 91.3789Z" fill="#023732"/>
<path d="M250.176 91.5508L251.038 91.7232V98.2749L250.866 99.4818L250.176 99.6542L250.004 99.4818V91.7232L250.176 91.5508Z" fill="#023732"/>
<path d="M229.484 91.5508H230.346V99.4818L229.657 99.6542L229.484 99.4818V91.5508Z" fill="#023732"/>
<path d="M71.3828 91.5508H72.2449V99.4818H71.3828V91.5508Z" fill="#023732"/>
<path d="M139.484 93.1016H139.829L141.208 96.0326L141.036 96.5498H138.967L138.277 96.3774L138.795 94.8257L139.484 93.1016Z" fill="#FEFEFE"/>
<path d="M192.932 92.7578L193.45 92.9302L194.139 95.5164L194.312 96.5509H192.243L192.07 95.8612L192.76 93.275L192.932 92.7578Z" fill="#FEFEFE"/>
<path d="M293.279 33.9648H294.486L295.176 34.6545L295.003 35.5166L294.486 35.8614H293.107L292.762 35.5166V34.4821L293.279 33.9648Z" fill="#FEFEFE"/>
</svg>
