<svg width="115" height="100" viewBox="0 0 115 100" fill="none" xmlns="http://www.w3.org/2000/svg">
<path d="M57.7176 0H58.2102L58.867 0.492611L59.688 1.39573L61.4122 3.69458L62.2332 4.7619L63.3005 6.23974L64.2857 7.88177L65.353 9.68801L66.092 10.9195L67.0772 12.7258L67.4877 13.6289L68.555 12.9721L70.6897 11.7406L73.4811 10.3448L75.78 9.2775L78.8998 7.88177L80.4598 7.22496L81.445 6.89655L82.3481 6.73235L82.8407 9.1133L83.087 11.0837L83.3333 14.2036L83.4154 16.092V20.0328L83.2512 22.1675L82.8407 25.1232L82.3481 27.3399L81.7734 29.3924L81.5271 29.8851L81.2808 30.2135L80.8703 30.3777L80.4598 30.4598V30.2956L80.2135 30.4598L79.4746 30.5419L77.7504 31.0345L75.6979 31.6092L75.2874 31.6913V31.445L75.0411 31.6092L75.1232 31.7734L74.6306 31.8555L74.3842 32.0197L73.3169 32.3481L72.0033 32.8407H71.757V33.0049L70.4434 33.6617L69.5402 34.1544L68.6371 34.8112L68.2266 35.1396L67.734 35.468L67.0772 36.4532L66.7488 36.7816L65.8457 38.2594L65.1888 39.6552L64.3678 40.8046L63.2184 42.3645L62.1511 43.8424L61.248 44.9918L60.0985 46.3875L59.4417 47.2085L58.7028 48.0296L58.046 48.6864H57.8818L57.7176 49.0148L56.6503 49.4253L56.2397 49.5074L56.0755 49.4253L55.9934 49.179L55.5829 48.7685L55.3366 48.1938L55.0082 47.619V47.4548H54.844L54.5977 47.1264V46.8801H54.4335L53.7767 45.8128L53.3662 44.9918L52.7915 44.0066L52.2989 43.1034L51.8883 42.3645L51.3136 41.4614L50.5747 40.4762L49.4253 39.2447L49.179 38.9984V38.8342H49.0148L48.6864 38.4236L48.5222 38.3415L48.7685 38.67L48.6864 38.8342L47.1264 38.0131L44.9918 37.0279L43.1856 36.3711L40.3941 35.7143L39.3268 35.6322H36.1248L34.0723 35.7964L32.4302 36.0427L30.2135 36.6174L26.8473 37.6847L25.6158 38.1773L24.8769 38.4236L24.959 38.8342L25.6979 40.1478L26.4368 41.0509L27.5041 42.2824L28.243 43.1034L28.8177 43.7603L29.7209 44.7455L30.3777 45.4023L31.5271 46.3054L32.7586 47.2085L34.3186 48.1938L36.0427 49.0969L38.1773 49.9179L39.9836 50.3284L42.6929 50.6568L44.4171 50.9031L44.5813 51.0673H44.9918L44.7455 51.2315L43.514 51.4778L42.0361 51.642L40.3941 51.7241H39.1626L37.2742 51.642L34.8112 51.3136L32.5123 50.9031L29.803 50L27.0936 48.6864L25.78 47.9475L24.22 46.8801L23.2348 46.1412L22.0854 45.156L21.1823 44.4171L18.4729 41.7077L17.8982 41.0509L16.9951 39.9836L15.9278 38.67L15.2709 37.7668L15.1067 37.6847L15.0246 37.4384L14.8604 37.3563L14.6141 36.9458L13.7931 35.8785L13.6289 35.468L14.6141 34.9754L17.3235 33.908L20.2792 33.0049L23.0706 32.266L25.3695 31.8555L27.5041 31.6092L29.1461 31.5271H32.5944L34.0723 31.6092L36.4532 32.0197L38.5058 32.5944L40.6404 33.4154L42.6108 34.3186L43.9245 34.9754L45.4023 35.8785L46.5517 36.6174V36.7816L47.2085 37.11L47.8654 37.7668L48.1117 37.8489L47.8654 37.4384L47.6191 36.8637V36.6174L47.537 36.1248L47.6191 35.3859L47.4548 34.647L47.0443 33.087L46.3875 29.3103L46.2233 28.0788L46.1412 27.2578V24.4663L46.2233 22.9064V21.1002L45.3202 20.5255L44.4992 20.0328L41.7898 18.8834L40.8867 18.555L40.8046 19.5402L40.3941 21.3465L40.0657 23.5632L39.9836 24.6305V26.3547L40.312 30.5419L40.3941 31.3629L39.9015 31.2808L38.4237 30.7882L36.5353 30.2135L35.9606 29.8851L35.3859 27.9967L34.8933 26.0263L34.3186 23.0706L34.0723 21.0181L33.9902 19.8686V16.5846L34.2365 13.5468L34.7291 10.2627L34.9754 8.86699L35.1396 8.62069L35.8785 8.78489L37.931 9.60591L40.7225 10.9195L42.3645 11.7406L44.1708 12.7258L45.8128 13.6289L46.6338 14.2036L47.7012 14.8604L47.8654 14.532L48.1938 13.7931L48.358 13.0542L48.6043 13.1363L48.7685 12.6437L49.7537 10.8374L50.5747 9.35961L51.2315 8.29228L52.381 6.56814L53.4483 5.17241L54.5977 3.61248L55.7471 2.21675L56.6503 1.06732L57.4713 0.164204L57.7176 0Z" fill="#FB5F04"/>
<path d="M46.879 58.0459H55.0892L60.2616 58.128L63.5457 58.2101L64.2846 58.2922L64.5309 58.7027L65.0235 60.6732L65.5983 62.5615L65.9267 63.6288H66.173L66.9119 61.33L67.4045 59.6879L68.0613 58.4564L68.4718 58.2922L74.7937 58.3743L84.2354 58.6206L85.3848 58.7027L85.4669 58.7848V63.3825L85.3848 75.5336L85.3027 81.2807L85.2206 83.5796L84.8101 83.7438H74.3011L72.5769 83.6617L72.3306 83.5796L72.1664 80.5418L71.838 80.706L71.6738 80.6239L71.5917 80.7881V80.6239H71.3454L71.1812 82.2659L70.8528 83.2512L70.6886 83.4154L69.6212 83.5796L62.0679 83.6617L61.329 83.5796L60.9185 82.2659L60.2616 80.1313L60.1795 79.885L60.0974 80.2955L59.8511 80.3776L59.6869 80.2955V83.3333L59.5227 83.4154H50.2452L47.2075 83.3333L46.7148 83.2512V69.458L46.7969 61.9047L46.879 58.0459Z" fill="#FB7504"/>
<path d="M80.9538 30.2134L81.2001 30.2955H85.0589L87.5219 30.4597L90.3134 30.8702L92.5301 31.3628L95.3216 32.1838L97.7846 33.0869L100.166 34.0722L102.875 35.3037L104.024 35.8784L104.271 36.2068L104.106 36.6994L103.285 38.0131L102.464 39.0804L101.808 39.9835L100.74 41.2971L100.083 42.1181L99.0162 43.2676L98.4415 43.9244L96.471 45.8948L95.5679 46.6337L94.829 47.2906L93.4332 48.3579L92.1196 49.3431L91.0523 49.9999L89.2461 50.9851L87.6861 51.7241L85.7157 52.463L83.7452 53.1198L81.6106 53.6124L79.1475 53.9408L78.1623 54.0229H74.2214L71.6763 53.7766L69.7058 53.4482L67.5712 52.9556L65.1081 52.2167L62.6451 51.3135L59.7715 50.082L58.4579 49.5073L57.4727 49.0968L57.8832 48.6863L58.54 48.1116L59.1968 47.4548L60.0999 46.3053L61.003 45.238L62.0704 43.8423L63.1377 42.3644L64.3692 40.7224L65.1081 39.6551L65.9291 37.9309L66.6681 36.7815L67.2428 36.1247L67.8175 35.3037L68.5564 34.8111L69.2953 34.2364L69.9521 33.8259L71.5942 33.0048H71.7584V32.8406L73.9751 32.0196L74.5498 31.8554L74.9603 31.6912L75.1245 31.4449H75.2887V31.6912L76.6024 31.2807L78.9833 30.6239L79.8864 30.3776L80.4612 30.2955V30.4597L80.8717 30.2955L80.9538 30.2134Z" fill="#181F2C"/>
<path d="M1.23153 57.7175H7.96388L11.2479 57.7996L12.1511 57.9638L12.5616 58.3743L13.6289 59.9343L14.532 61.4121L14.8604 61.8226L15.353 62.8078L16.0099 63.711V63.8752H16.2562V59.1954L16.3383 57.8817L16.5846 57.7996L22.7422 57.8817L28.3251 58.0459L28.8998 58.128L28.9819 58.2101V62.972L28.8998 70.6896L28.8177 82.266L28.7356 83.2512L28.3251 83.3333H22.7422L18.555 83.2512L16.913 83.087L16.3383 82.8407L15.6814 82.1018L14.532 80.1313L13.4647 78.243L12.7258 77.0936V81.6092L12.5616 82.8407L12.4795 82.9228H4.02299L1.80624 82.8407L0.0821018 82.6765L0 82.5944V81.0344L0.0821018 76.3546L0.164204 65.6814L0.246305 61.0016L0.328407 58.6206L0.492611 57.7996L1.23153 57.7175Z" fill="#FB7504"/>
<path d="M33.9064 6.15771L35.0558 6.40402L37.1084 7.14294L39.1609 8.04606L43.4302 10.0986L44.9901 10.9196L46.7143 11.9048L47.5353 12.4796L48.0279 12.7259L48.2742 12.808L48.3563 13.2185L48.1921 13.9574L47.8637 14.6142L47.6995 14.8605L47.289 14.6963L46.1396 13.9574L45.0723 13.3006L43.1018 12.2332L40.3924 10.8375L37.7652 9.60599L35.8768 8.86707L35.1379 8.70287L34.8916 9.77019L34.4811 12.3975L34.2348 14.2858L34.0706 16.5846V19.8687L34.3169 22.5781L34.7274 24.8769L35.3021 27.4221L35.959 29.7209L36.2053 29.9672L37.2726 30.3777L39.7356 31.1167L40.3924 31.363L40.2282 30.542L39.8998 26.3548V24.6306L40.064 22.9886L40.3924 21.0181L40.803 19.0477L40.8851 18.5551L41.4598 18.6372L43.1018 19.3761L44.8259 20.115L45.7291 20.6897L46.1396 21.0181L46.3038 20.936V22.9065L46.2217 24.4664V27.2579L46.3859 28.982L46.7964 31.2809L47.289 33.826L47.6995 35.1397V35.7965L47.6174 36.4533V36.6996L47.8637 37.1101L48.11 37.849L47.7816 37.7669L47.6174 37.4385L47.2069 37.2743V37.1101L46.7964 36.9459L46.5501 36.7817V36.6175L46.1396 36.4533L44.7438 35.5502L43.0197 34.5649L40.4745 33.4155L38.2578 32.5945L36.1232 32.0198L34.0706 31.6914L32.5928 31.6093H29.1445L26.5993 31.7735L23.89 32.184L21.4269 32.7587L18.6355 33.5797L16.665 34.2365L14.4483 35.1397L13.7915 35.4681H13.6273L14.4483 36.6175L14.8588 37.1101V37.3564L15.1051 37.4385V37.6848L15.3514 37.7669L16.0082 38.67L16.9113 39.7374L17.6502 40.6405L18.4713 41.5436L19.046 42.2004L21.3448 44.4993L22.2479 45.2382L23.3974 46.2234L24.2184 46.7981L25.532 47.7012L26.9278 48.5222L29.0624 49.5896L30.7044 50.2464L32.8391 50.9032L36.4516 51.4779L37.2726 51.56L39.1609 51.6421H40.3924L42.0345 51.56L44.087 51.3137L44.5796 51.1495L44.4154 50.9853L42.6913 50.739L39.9819 50.4106L38.1757 50.0001L35.8768 49.097L34.1527 48.1938L32.1823 46.8802L30.8686 45.895L29.6371 44.7456L28.9803 44.0887L28.4056 43.4319L27.5846 42.5288L26.8456 41.6257L26.1067 40.8047L25.532 39.9837L24.7931 38.67L24.8752 38.3416L26.6814 37.6848L29.1445 36.8638L31.1149 36.2891L32.4286 35.9607L34.0706 35.7144L36.1232 35.5502H39.3251L40.803 35.7144L43.4302 36.3712L45.1544 37.028L47.289 38.0132L48.6847 38.7521L48.5205 38.3416L48.8489 38.5058L49.0131 38.8342H49.1773L49.7521 39.491L50.8194 40.6405L51.3941 41.4615L51.9688 42.3646L52.7077 43.6782L53.2824 44.6635L53.8571 45.8129L54.4319 46.716V46.8802H54.5961L54.8424 47.2907V47.4549H55.0066L55.5813 48.4401L55.7455 48.9328L56.0739 49.1791V49.4254H56.2381V49.5896L53.8571 50.6569L52.6256 51.1495L49.0131 52.2989L46.5501 52.8736L43.3481 53.3663L41.5419 53.5305H37.2726L35.3021 53.2842L32.3465 52.7915L30.7044 52.2989L28.4056 51.3958L26.0246 50.2464L23.9721 49.0149L22.4943 47.9475L21.0985 46.7981L20.1954 46.0592L18.3892 44.253L17.8144 43.5961L16.8292 42.5288L16.0903 41.6257L15.1872 40.5584L14.1199 39.1626L13.4631 38.3416L12.3136 36.7817L11.5747 35.6323L11 34.9754L11.0821 34.647L12.3957 33.9902L14.6125 32.9229L17.2397 31.8556L20.1954 30.8704L22.8227 30.2135L25.0394 29.803L26.7635 29.6388L27.913 29.5567H32.4286L33.9064 29.6388L33.6601 28.8178L33.1675 26.519L32.5928 24.0559L32.3465 22.4139L32.1823 19.7866V17.9804L32.3465 14.45L32.5928 12.069L33.0854 9.03128L33.6601 6.65033L33.9064 6.15771Z" fill="#810404"/>
<path d="M88.6697 58.7029H97.3725L101.724 58.785L105.829 58.9492L108.374 59.2776L109.934 59.6881L111.248 60.1807L112.151 60.6733L112.972 61.3301L113.629 61.987L114.203 62.8901L114.532 63.629L114.778 64.7784L114.86 66.7489V68.8014L114.696 70.1971L114.45 71.1003L114.039 71.9213L113.382 72.7423L112.725 73.3991L111.658 74.0559L110.509 74.5485L108.949 74.8769L107.553 75.0411L105.911 75.1232H101.478L101.395 82.1019L101.313 83.4976L101.149 83.9902H87.356L86.7813 83.9081L86.6992 83.4155V69.9508L86.7813 61.987L86.8634 58.8671L86.9455 58.785L88.6697 58.7029Z" fill="#FB7504"/>
<path d="M30.6251 57.8818H39.2458L42.6941 57.9639L44.5003 58.046L45.0751 58.2102L45.1572 58.785L45.0751 73.317L44.993 79.5567L44.9109 83.0871L44.8288 83.1692L35.7155 83.2513L30.4609 83.0871V71.2644L30.543 62.89L30.6251 57.8818Z" fill="#FB7504"/>
<path d="M82.2675 32.1018H85.3874L88.0147 32.3481L90.1493 32.6765L92.2839 33.1691L94.5007 33.8259L96.5532 34.5649L98.5237 35.3859L100.412 36.289L101.397 36.7816L101.479 37.1921L100.987 37.931L100.248 38.9163L99.3447 39.9836L98.6058 40.8867L97.8669 41.7077L97.2922 42.3645L96.3069 43.4319L95.4859 44.2529L94.8291 44.8276L93.8439 45.7307L92.4481 46.798L90.8882 47.8654L88.9178 49.0148L87.3578 49.8358L86.1263 50.4105L83.9096 51.2315L81.4465 51.8883L78.9014 52.2989L77.9982 52.381H75.2889L72.6616 52.1346L70.0344 51.7241L68.7207 51.4778L68.6386 51.3136L70.3628 51.2315L74.3036 50.821L76.3562 50.4926L77.834 50.0821L80.0508 49.179L81.6928 48.2759L82.9243 47.4548L84.0738 46.6338L84.9769 45.8949L85.9621 44.9918L86.2905 44.6634H86.4547V44.4992L86.701 44.2529H86.8652L87.0294 43.9245L87.7683 43.1856L88.5073 42.2824L89.4925 41.133L90.1493 40.312L90.5598 39.5731L90.0672 39.4089L87.6862 38.3415L85.4695 37.5205L83.4991 36.9458L81.4465 36.5353L79.1477 36.2069H75.4531L72.9079 36.5353L71.2659 36.9458L70.2807 37.3563L68.8849 37.931L67.0787 38.9163L66.5861 39.2447H66.4219L66.5861 38.9163L67.0787 38.3415L68.7207 37.11L71.0196 35.7143L72.4974 34.8933L74.7963 33.8259L76.7667 33.087L79.3119 32.4302L80.9539 32.1839L82.2675 32.1018Z" fill="white"/>
<path d="M29.1461 31.5271H32.5944L34.0723 31.6092L36.4532 32.0197L38.5058 32.5944L40.6404 33.4154L42.6108 34.3186L43.9245 34.9754L45.4023 35.8785L46.5517 36.6174V36.7816L47.2085 37.11L48.7685 38.67L48.6864 38.8342L47.1264 38.0131L44.9918 37.0279L43.1856 36.3711L40.3941 35.7143L39.3268 35.6322H36.1248L34.0723 35.7964L32.4302 36.0427L30.2135 36.6174L26.8473 37.6847L25.6158 38.1773L24.8769 38.4237L24.959 38.8342L25.6979 40.1478L26.4368 41.0509L27.5041 42.2824L28.243 43.1035L28.8177 43.7603L29.7209 44.7455L30.3777 45.4023L31.5271 46.3054L32.7586 47.2085L34.3186 48.1938L36.0427 49.0969L38.1773 49.9179L39.9836 50.3284L42.6929 50.6568L44.4171 50.9031L44.5813 51.0673H44.9918L44.7455 51.2315L43.514 51.4778L42.0361 51.642L40.3941 51.7241H39.1626L37.2742 51.642L34.8112 51.3136L32.5123 50.9031L29.803 50L27.0936 48.6864L25.78 47.9475L24.22 46.8801L23.2348 46.1412L22.0854 45.156L21.1823 44.4171L18.4729 41.7077L17.8982 41.0509L16.9951 39.9836L15.9278 38.67L15.2709 37.7668L15.1067 37.6847L15.0246 37.4384L14.8604 37.3563L14.6141 36.9458L13.7931 35.8785L13.6289 35.468L14.6141 34.9754L17.3235 33.9081L20.2792 33.0049L23.0706 32.266L25.3695 31.8555L27.5041 31.6092L29.1461 31.5271Z" fill="white"/>
<path d="M57.8835 2.46313L58.2119 2.54524L59.115 3.69466L60.1823 5.09039L62.1528 7.88185L63.2201 9.60599L64.2053 11.248L65.1905 13.3827L66.0115 15.5994L66.7505 18.0625L67.161 19.8687L67.4894 22.3318L67.5715 23.317V25.0411L67.3252 27.1758L66.9147 29.3104L66.0936 32.1019L65.601 33.4155L65.1905 34.0723L64.9442 33.9902L64.8621 34.4007L64.6979 34.7291L64.5337 34.647L64.78 33.0871L64.8621 32.1019V28.4073L64.4516 25.9443L63.959 24.138L63.5485 22.9065L63.138 22.0855L62.317 20.3613L61.4138 18.8835V18.6372H61.2496V18.3909H61.0854L60.1823 16.9131L59.936 16.5846V16.4204H59.7718L59.1971 15.6815L58.2119 14.3679L57.8835 14.2858L57.3909 14.5321L56.8161 15.3531L56.1593 16.1741H55.9951L55.913 16.5025L55.1741 17.4057L54.5994 18.2267L53.8605 19.3761L52.7932 21.1823L52.2184 22.496L51.8079 23.4812L50.9869 25.9443L50.4943 27.9968L50.3301 29.1462V31.6093L50.6585 34.5649L50.7406 35.8786L50.8227 36.0428V36.5354H50.7406L49.5091 32.8408L48.7702 30.0493L48.2776 27.0116L48.0312 24.7948V23.4812L48.1955 21.5929L48.6881 19.2119L49.2628 17.2415L49.8375 15.5994L51.069 12.8901L51.6437 11.7406L52.7932 9.8523L53.5321 8.70287L55.092 6.40402L56.1593 4.84409L56.8982 3.94097L57.473 3.11995L57.8835 2.46313Z" fill="white"/>
<path d="M46.879 58.0459H55.0892L60.2616 58.128L63.5457 58.2101L64.2846 58.2922L64.5309 58.7027L65.0235 60.6732L65.5983 62.5615L65.9267 63.6288H66.173L66.9119 61.33L67.4045 59.6879L68.0613 58.4564L68.4718 58.2922L74.7937 58.3743L84.2354 58.6206L85.3848 58.7027L85.4669 58.7848V63.3825L85.3848 75.5336L85.3027 81.2807L85.2206 83.5796L84.8101 83.7438H74.3011L72.5769 83.6617L72.3306 83.5796L72.1664 80.5418L71.838 80.706L71.6738 80.6239L71.5917 80.7881V80.6239H71.3454L71.1812 82.2659L70.8528 83.2512L70.6886 83.4154L69.6212 83.5796L62.0679 83.6617L61.329 83.5796L60.9185 82.2659L60.2616 80.1313L60.1795 79.885L60.0974 80.2955L59.8511 80.3776L59.6869 80.2955V83.3333L59.5227 83.4154H50.2452L47.2075 83.3333L46.7148 83.2512V69.458L46.7969 61.9047L46.879 58.0459ZM48.3569 59.77L48.2748 60.2626L48.1927 65.353L48.1106 79.2282V82.0196L48.1927 82.1017L49.5884 82.1838L56.9776 82.348H58.2912L58.4554 82.2659L58.5375 74.22L58.6196 69.458L58.8659 69.0475H59.0301L59.2764 70.197L59.8511 73.1526L60.9185 77.3398L61.7395 79.885L61.9858 81.0344L62.0679 82.1838L62.5605 82.348L65.1056 82.4301H68.2255L69.7855 82.348L69.9497 81.527L70.3602 79.3924L70.7707 77.9145L71.2633 76.4367L71.838 74.1379L72.1664 72.66L72.8232 69.9507L72.9874 69.1296H73.1516V79.4745L73.2337 82.4301L73.3158 82.5122L77.503 82.5943H82.7575L83.6607 82.5122L83.7428 82.1838L83.6607 82.1017V76.4367L83.7428 71.3464L83.8249 62.2331V60.0984L83.7428 60.0163L77.0104 59.8521L68.9644 59.77L68.5539 61.0016L68.3897 61.5763V61.9047H68.2255L67.8971 63.2183L67.4045 64.8603L67.1582 65.5172L66.994 66.0919L66.3372 68.5549L66.173 68.9654L66.0909 69.2117L65.6804 69.0475L65.5162 68.5549L65.2699 67.2413L64.3667 63.7109L63.5457 61.0016L63.2173 59.8521L62.8889 59.77H48.3569Z" fill="#181F2C"/>
<path d="M1.23153 57.7175H7.96388L11.2479 57.7996L12.1511 57.9638L12.5616 58.3743L13.6289 59.9343L14.532 61.4121L14.8604 61.8226L15.353 62.8078L16.0099 63.711V63.8752H16.2562V59.1954L16.3383 57.8817L16.5846 57.7996L22.7422 57.8817L28.3251 58.0459L28.8998 58.128L28.9819 58.2101V62.972L28.8998 70.6896L28.8177 82.266L28.7356 83.2512L28.3251 83.3333H22.7422L18.555 83.2512L16.913 83.087L16.3383 82.8407L15.6814 82.1018L14.532 80.1313L13.4647 78.243L12.7258 77.0936V81.6092L12.5616 82.8407L12.4795 82.9228H4.02299L1.80624 82.8407L0.0821018 82.6765L0 82.5944V81.0344L0.0821018 76.3546L0.164204 65.6814L0.246305 61.0016L0.328407 58.6206L0.492611 57.7996L1.23153 57.7175ZM2.05255 59.0312L1.72414 59.1133L1.64204 59.5238L1.55993 61.8226L1.31363 74.0558V81.3629L4.4335 81.445L4.6798 81.5271H11.33L11.4122 75.4515L11.33 74.0558L11.4122 73.8095L11.4943 72.6601L11.5764 72.3317L12.1511 73.0706L12.8079 74.1379L14.2036 76.4367L15.8456 79.3103L16.9951 81.6092L17.8161 81.7734L25.9442 81.9376H27.0936L27.1757 67.3234L27.2578 62.3152L27.3399 60.9195V59.4417L27.0936 59.3596L22.4138 59.2775H17.8161L17.734 59.3596L17.6519 60.0164V68.3087L17.1593 67.9803L16.5846 67.0771L16.2562 66.7487L16.1741 66.5024H16.0099L15.8456 66.0919L15.2709 65.0246L14.9425 64.532H14.7783L14.6141 64.1215L14.2036 63.3826L14.0394 63.1362H13.8752L13.711 62.5615L12.9721 61.4121H12.8079L12.7258 61.0016H12.5616V60.7553H12.3974V60.509H12.2332L12.1511 60.0985L11.5764 59.3596L11.1658 59.1954L9.85222 59.1133L6.32184 59.0312H2.05255Z" fill="#181F2C"/>
<path d="M35.1377 8.62061L35.8766 8.78481L37.9292 9.60583L40.7206 10.9195L42.3627 11.7405L44.1689 12.7257L45.8109 13.6288L46.632 14.2035L47.3709 14.6961L47.6172 15.0245L47.5351 15.6814L47.1246 17.1592L46.632 19.2938L46.2215 21.1001L45.3183 20.5254L44.4973 20.0328L41.788 18.8833L40.8848 18.5549L40.8027 19.5401L40.3922 21.3464L40.0638 23.5631L39.9817 24.6305V26.3546L40.3101 30.5418L40.3922 31.3628L39.8996 31.2807L38.4218 30.7881L36.5334 30.2134L35.9587 29.885L35.384 27.9966L34.8914 26.0262L34.3167 23.0705L34.0704 21.018L33.9883 19.8686V16.5845L34.2346 13.5467L34.7272 10.2626L34.9735 8.86691L35.1377 8.62061Z" fill="white"/>
<path d="M80.7884 9.35962H81.0347L81.3631 10.8375L81.4452 11.4943L81.5273 13.1363V21.4286L81.281 23.6453L80.8705 26.0263L80.2136 29.1462L79.8852 30.2956L79.4747 30.5419L77.7506 31.0345L75.698 31.6092L75.2875 31.6913L75.4517 28.4893V23.6453L75.2875 21.0181L75.0412 19.2118L74.3023 19.2939L71.7572 20.3613L70.033 21.1823L69.4583 21.3465L69.1299 21.0181L68.7194 18.9655L67.9805 15.7636V15.5994L69.0478 14.9425L71.0182 13.7931L72.7424 12.8079L74.7128 11.8227L76.8475 10.9196L80.1315 9.60592L80.7884 9.35962Z" fill="white"/>
<path d="M88.6697 58.7029H97.3725L101.724 58.785L105.829 58.9492L108.374 59.2776L109.934 59.6881L111.248 60.1807L112.151 60.6733L112.972 61.3301L113.629 61.987L114.203 62.8901L114.532 63.629L114.778 64.7784L114.86 66.7489V68.8014L114.696 70.1971L114.45 71.1003L114.039 71.9213L113.382 72.7423L112.725 73.3991L111.658 74.0559L110.509 74.5485L108.949 74.8769L107.553 75.0411L105.911 75.1232H101.478L101.395 82.1019L101.313 83.4976L101.149 83.9902H87.356L86.7813 83.9081L86.6992 83.4155V69.9508L86.7813 61.987L86.8634 58.8671L86.9455 58.785L88.6697 58.7029ZM88.7518 60.0165L88.6697 60.427V61.8227L88.5876 65.0247L88.5055 73.0707L88.4234 77.5863V82.4303L89.1623 82.5945L93.5958 82.6766H100.082V82.3482H99.9176V74.5485L99.8355 74.4664L99.7534 73.8917H106.239L108.046 73.8096L109.441 73.5633L110.837 72.9886L111.658 72.4139L112.397 71.675L113.054 70.6076L113.382 69.7045L113.547 68.8835L113.629 67.8983V66.2562L113.464 64.7784L113.136 63.7111L112.643 62.8901L111.822 62.1512L111.248 61.6585L110.098 61.0838L108.292 60.5091L107.06 60.2628L105.008 60.0986L88.7518 60.0165Z" fill="#181F2C"/>
<path d="M30.6251 57.8818H39.2458L42.6941 57.9639L44.5003 58.046L45.0751 58.2102L45.1572 58.785L45.0751 73.317L44.993 79.5567L44.9109 83.0871L44.8288 83.1692L35.7155 83.2513L30.4609 83.0871V71.2644L30.543 62.89L30.6251 57.8818ZM32.1851 59.1955L32.103 59.2776L32.0209 73.7275L31.9388 81.7735L32.3493 81.8556L32.924 81.9377H43.3509L43.5151 81.7735V72.4139L43.5972 62.069V59.2776L32.1851 59.1955Z" fill="#181F2C"/>
<path d="M74.5495 19.1296H75.0421L75.2063 19.7044L75.3705 21.018L75.5347 23.6452V28.4892L75.3705 31.2807L75.0421 31.6091L75.1242 31.7733L74.6316 31.8554L74.3853 32.0196L73.3179 32.348L72.0043 32.8406H71.758V33.0048L70.4444 33.6617L69.5412 34.1543L68.6381 34.8111L68.2276 35.1395L67.735 35.4679L67.4066 35.7142L66.9961 35.6321L67.1603 34.2364L67.6529 32.7585L68.0634 31.2807L68.2276 30.2955L68.4739 29.2282L68.7202 27.0114L68.8844 22.9884L68.9665 21.6748L69.1307 21.018L69.2949 21.1001V21.2643L70.0339 21.1001L72.4969 19.9507L74.5495 19.1296Z" fill="#FB7504"/>
<path d="M40.8876 18.5549L41.4623 18.637L43.1043 19.3759L44.8285 20.1149L45.7316 20.6896L46.1421 21.018L46.2242 21.1822V22.4958L46.1421 23.7273V27.6682L46.4705 30.2134L46.6347 31.2807V32.2659L46.3884 33.0048L46.1421 33.1691L46.06 33.908L45.5674 33.7438L42.9401 32.5122L42.3654 32.2659L41.6265 32.0196L41.4623 31.9375V31.7733L41.0518 31.6912L40.4771 31.4449V31.1165H40.3129L40.0665 28.4893L39.9023 26.3546V24.6305L40.0665 22.9884L40.395 21.018L40.8055 19.0475L40.8876 18.5549Z" fill="#007B16"/>
<path d="M33.9077 6.15771L35.0572 6.40402L37.1097 7.14294L39.1622 8.04606L43.4315 10.0986L44.9915 10.9196L46.7156 11.9048L47.5366 12.4796L48.0292 12.7259L48.2755 12.808L48.3576 13.2185L48.1934 13.9574L47.865 14.6142L47.7008 14.8605L47.2903 14.6963L46.1409 13.9574L45.0736 13.3006L43.1031 12.2332L40.3938 10.8375L37.7665 9.60599L35.8782 8.86707L35.1393 8.70287L34.893 9.77019L34.4824 12.3975L34.2361 14.2858L34.0719 16.5846V19.8687L34.3182 22.5781L34.7287 24.8769L35.3035 27.4221L35.9603 29.7209L36.2066 29.9672L37.2739 30.3777L36.9455 30.4599L35.3856 30.1314L34.8109 30.0493V29.8851L34.0719 29.803L33.8256 29.4746L33.0867 26.2727L32.5941 24.0559L32.3478 22.4139L32.1836 19.7866V17.9804L32.3478 14.45L32.5941 12.069L33.0867 9.03128L33.6614 6.65033L33.9077 6.15771Z" fill="#007B16"/>
<path d="M109.113 86.6174H110.18L110.345 86.7816L110.427 87.1921V99.5074L110.345 99.7537L110.098 99.8358H109.031L108.374 99.7537L107.225 100H106.486L105.911 99.6716L105.419 98.8506L105.008 97.7012L104.844 96.716L104.762 95.4844V94.4992L104.844 93.1856L105.172 91.8719L105.665 91.0509L106.075 90.312L106.486 90.1478L107.717 90.312L108.621 90.6404L108.703 87.7669L108.785 86.7816L109.113 86.6174Z" fill="#181F2C"/>
<path d="M67.9808 86.1248H71.1006L72.0858 86.3711L72.9069 86.9458L73.3174 87.5205L73.5637 88.3415L73.6458 88.9983V91.4614L73.4816 92.4466L73.1532 93.1855L72.6606 93.596L71.5111 94.1707L70.7722 94.3349H69.4586V99.5073L69.3765 99.5895H67.7344L67.6523 99.5073V90.2298L67.7344 86.6174L67.6523 86.289L67.9808 86.1248Z" fill="#181F2C"/>
<path d="M1.31278 84.8113H2.46221L2.79061 85.1397L2.87272 90.1479L3.36533 90.23L5.66418 90.3121L5.74628 85.1397L6.32099 85.0576H7.63462L7.71672 85.1397L7.63462 86.3712V97.0444L7.55252 98.0297L7.38832 98.276L6.8136 98.4402H6.23889L5.74628 98.1939L5.66418 98.0297L5.74628 92.3646H3.94004L2.79061 92.2825V94.4172L2.70851 98.276L2.46221 98.3581H1.47699L0.984375 98.276V88.8343L1.06648 85.4681L1.14858 84.8934L1.31278 84.8113Z" fill="#181F2C"/>
<path d="M47.4554 89.3267H48.3585L49.1795 89.573L49.6721 89.9014L50.0005 90.394L50.3289 91.5434L50.4931 94.0886V98.5221L50.3289 99.0968L50.0005 99.261L49.2616 99.1789L49.0974 98.6863L48.6048 98.7684L47.4554 99.261L46.6344 99.3431L45.8954 99.0968L45.3207 98.5221L44.9923 97.8652L44.8281 97.0442V95.4022L45.0744 94.7454L45.7312 94.1707L46.5523 93.6781L47.7838 93.1854L48.4406 92.857H48.6048L48.5227 91.4613L48.3585 91.1329L48.1943 91.0508L47.2912 91.1329L46.5523 91.7076L45.8954 92.3644L45.3207 92.5286L45.1565 92.2002V91.6255L45.4849 90.7224L45.9776 90.0656H46.1418V89.9014L46.9628 89.4088L47.4554 89.3267Z" fill="#181F2C"/>
<path d="M59.1938 89.573H60.179L60.9179 89.8193L61.4927 90.3119L62.0674 91.215L62.3137 92.1182L62.3958 93.3497L62.56 94.417L62.3958 95.0738H61.3285L60.6716 95.238L58.7833 95.4022L58.4549 95.5664L58.3728 96.2232L58.7833 97.2906L59.1938 97.619L59.7685 97.7011L60.5074 97.2085L61.4106 96.2232L61.6569 95.9769L62.0674 96.2232L62.2316 96.7159V97.4548L61.9032 98.1937L61.3285 98.8505L60.5895 99.3431L60.0148 99.5073H59.2759L58.3728 99.1789L57.716 98.6863L57.1413 97.8653L56.7308 96.9622L56.4844 95.7306L56.4023 94.9917V93.8423L56.6486 92.5287L56.9771 91.7076L57.716 90.4761L58.3728 89.9014L58.8654 89.6551L59.1938 89.573Z" fill="#181F2C"/>
<path d="M18.803 88.752H19.624L20.6092 88.9983L21.1018 89.3267L21.5944 89.9014L21.8407 90.7224L21.9228 92.2002L22.0049 96.6337L22.1691 97.8653V98.3579L22.0049 98.6042H21.1839L20.7734 98.44L20.6913 97.8653L20.7734 97.6189L19.9524 98.2758L19.1314 98.6042H17.7356L17.0788 98.2758L16.5862 97.5368L16.3399 96.88L16.2578 96.3874V94.9096L16.5041 94.3349L17.243 93.596L18.0641 93.1855L19.9524 92.5286L20.1166 92.4465L20.1987 92.2002V91.3792L19.9524 90.5582L19.1314 90.4761L18.5567 90.8866L17.982 91.5434L17.5714 91.7076H16.9146L16.7504 91.3792V90.5582L17.1609 89.8193L17.5714 89.4088L18.2283 88.9162L18.803 88.752Z" fill="#181F2C"/>
<path d="M32.102 85.55H33.1693L33.4156 85.6322L33.5798 85.9606V87.11L33.4156 88.5057V89.2446L33.4977 89.4088L33.744 89.573L33.4156 89.7372L33.2514 89.6551L33.4156 90.2299L33.1693 90.7225V90.9688L33.4977 90.1477L33.9903 89.4909L34.8113 89.0804H35.5503L36.2071 89.573L36.6997 90.1477L36.8639 90.4762L36.946 95.8949L37.0281 98.3579L36.946 98.6042L36.125 98.8505H35.5503L35.304 98.6863L35.2219 98.44L35.1398 90.8867L34.8113 91.0509L33.4977 91.7898L33.4156 93.3497L33.3335 98.2758L33.2514 98.7684L32.102 98.9326H31.6915L31.6094 95.4023V89.4088L31.6915 85.9606L32.102 85.55Z" fill="#181F2C"/>
<path d="M11.9047 88.6699H12.6437L13.3826 88.9162L13.8752 89.2446L14.4499 89.9836L14.8604 90.9688L15.4351 94.0886L15.353 94.1707L13.7931 94.2528L12.2332 94.417L11.0016 94.4992V95.0739L11.33 96.3054L11.6584 96.798L12.151 96.9622L12.6437 96.7159L12.9721 96.1412L13.3826 95.4844L14.0394 95.3202L14.532 95.5665L14.8604 95.977V96.7159L14.4499 97.3727L13.6289 98.1937L12.89 98.6042H11.7405L11.0016 98.3579L10.1806 97.7011L9.60589 96.798L9.27748 95.7307L9.11328 94.0065L9.27748 92.1182L9.68799 90.7225L10.2627 89.6551L11.0016 88.9983L11.4942 88.752L11.9047 88.6699Z" fill="#181F2C"/>
<path d="M94.6645 86.4531H95.7318L96.1423 86.6173L96.0602 87.5204L95.9781 97.7832L95.896 97.9474L97.1275 97.8653H99.919L100.001 97.9474V98.9326L99.919 99.5894L99.6727 99.7536H94.3361L94.1719 99.6715V97.7011L94.254 90.4761L94.3361 86.7815L94.6645 86.4531Z" fill="#181F2C"/>
<path d="M40.8848 89.1626L41.7879 89.2447L42.5268 89.6552L42.9373 90.0657L43.4299 90.7225L43.6762 91.6257V92.2825L43.7584 92.693L42.9373 92.6109L42.2805 92.2825L41.7879 91.5436L41.4595 91.133H40.8027L40.6385 91.5436L40.3101 92.4467L40.228 93.3498V94.8276L40.3922 96.3055L40.6385 97.1265V97.3728L41.4595 97.2086L41.87 96.5518L42.2805 95.8128L42.7731 95.4844L43.5941 95.3202L43.7584 96.3055L43.5941 97.3728L43.2657 98.0296L42.4447 98.7685L41.7879 99.0969L40.9669 99.179L40.228 98.9327L39.5712 98.358L39.1607 97.8654L38.8322 96.9623L38.668 96.2234L38.5859 94.9918V93.4319L38.7501 91.872L39.0785 90.8046L39.5712 90.0657L40.3101 89.4089L40.8848 89.1626Z" fill="#181F2C"/>
<path d="M102.463 87.1921H102.873L103.037 87.3563V87.9311L102.873 88.9984L102.463 90.1478L103.366 90.0657L104.023 90.312L104.105 90.3941V91.954L103.694 92.2003L102.873 92.2825V96.798L103.037 98.0296L103.94 98.358L104.105 98.5222L104.187 98.8506V99.5074L103.94 99.8358L103.284 100H102.052L101.56 99.8358L101.149 98.6043L101.067 97.8654V93.1035L101.149 92.2003L100.738 92.1182L100.492 91.7898L100.574 90.8046L101.149 88.9163L101.56 87.9311L102.298 87.2742L102.463 87.1921Z" fill="#181F2C"/>
<path d="M82.8417 87.1921H83.2523L83.5807 87.6847V88.8342L83.4165 89.491L83.4986 89.8194L83.827 89.9836L83.9091 89.7373L84.648 90.4762V91.4614L84.2375 91.8719L83.4986 92.0361V96.2233L83.5807 97.6191L83.9912 97.7833L84.4838 98.5222L84.648 99.2611L84.5659 99.6716L84.3196 99.7537H83.0881L82.267 99.4253L81.9386 98.9327L81.6923 98.2759L81.6102 91.8719L81.5281 91.6256L80.625 91.3793L80.7892 91.2972V91.0509H80.9534V90.8046H81.2818L81.3639 90.8867V90.1478L81.9386 88.1774L82.4312 87.4384L82.8417 87.1921Z" fill="#181F2C"/>
<path d="M79.6407 89.8193L80.2975 89.9014L80.7901 90.1477L80.708 90.394H80.3796V90.7225H80.9543L80.708 91.0509H80.3796L80.1333 91.8719L79.8049 93.6781L79.3123 95.6486L78.7376 98.1116L78.327 99.4252L77.9986 99.5895H77.3418L76.9313 99.4252L76.685 99.0147L76.2745 97.3727L75.6177 93.9244L75.043 90.8046V90.1477L75.3714 89.9014H76.0282L76.3566 90.1477L77.0955 93.8423L77.4239 95.8128V96.2233H77.5881L77.7523 95.4844L77.9986 94.8275L78.7376 91.0509L79.066 89.9835L79.6407 89.8193Z" fill="#181F2C"/>
<path d="M28.818 86.3711H29.2285L29.3927 86.6174L29.4748 87.4384V88.6699L30.2137 89.2447L30.46 89.5731L30.5421 90.5583L30.2958 90.9688L29.8032 91.133L29.3106 91.2151V92.2003L29.3927 93.7603L29.4748 96.9622L29.7211 97.2085L30.5421 97.619V98.6864L30.1316 98.9327H28.6538L28.1611 98.6864L27.7506 97.7011L27.6685 97.2085L27.5864 91.2151L27.0117 90.3941V89.6552L27.5043 88.6699L27.8327 87.11L28.4896 86.5353L28.818 86.3711Z" fill="#181F2C"/>
<path d="M24.4653 85.1396H25.2043L25.6148 85.6323L25.6969 86.2891V88.9163L25.6148 98.5222L25.2864 98.6864H24.3832L23.9727 98.6043L23.8906 98.358V88.3416L23.9727 86.207L24.0548 85.5502L24.4653 85.1396Z" fill="#181F2C"/>
<path d="M69.4584 88.0952L71.3467 88.1773L71.7572 88.4236L72.0035 88.8341V90.4762L71.8393 91.7077L71.593 92.0361L72.1677 92.1182L72.5782 92.6929L72.4961 93.1855L72.0856 93.5139L71.7572 93.6781L71.0183 94.0065H69.3763L69.2121 93.9244L69.0479 94.4992V95.6486L68.9658 96.7159L68.7195 97.3727L68.2268 97.2906L68.0626 96.9622L67.9805 95.8128L67.8984 95.4023L68.0626 94.9097L67.9805 94.6634L67.8984 93.3497L68.1447 91.3793L68.391 90.9688L68.7195 90.8046L68.8837 90.9688L69.0479 91.7077H69.2942L69.4584 88.0952Z" fill="#181F2C"/>
<path d="M52.8717 89.4089H53.2822L53.5285 89.7373L53.7748 89.8194V90.1479L54.1854 89.9836L54.5959 89.6552L55.3348 89.4089L55.9916 89.491L56.0737 89.5731V90.4763L55.7453 91.4615L55.3348 91.872L55.0064 91.9541L54.1033 91.7078L53.9391 95.895L53.7748 98.9327L53.6106 99.2612L53.4464 99.3433H52.6254L52.2149 99.0969L52.1328 99.0148V92.2004L52.2149 90.4763L52.3791 89.6552L52.8717 89.4089Z" fill="#181F2C"/>
<path d="M100.246 64.2036H101.806L102.874 64.532L103.366 64.9425L103.53 65.353V67.3235L103.284 68.7192L103.038 69.2939L102.299 69.4581L101.314 69.5402H99.918V64.532L100.246 64.2036Z" fill="#181F2C"/>
<path d="M59.5222 91.0508L60.0148 91.1329L60.5074 91.5434L60.7537 92.2002L60.8358 93.4317L60.3432 93.8422L60.5895 94.0885L60.6716 94.417L60.4253 94.8275L59.6864 94.9096H58.9475L58.1265 95.1559L57.9623 95.4843V96.4695L58.3728 97.1263L58.6191 97.4547L58.9475 98.1115V98.2757H59.1117V98.522L59.4401 98.6862V98.9326L58.9475 99.0147L58.2907 98.9326L58.0444 98.7684L57.9623 98.9326L57.2234 98.0294L56.7308 96.9621L56.4844 95.7306L56.4023 94.9917V93.8422L57.1413 93.7601L57.4697 93.5959L57.7981 93.2675L58.2086 92.4465L58.6191 91.7076H58.8654L59.0296 91.3792L59.5222 91.0508Z" fill="#181F2C"/>
<path d="M109.114 86.6174H110.181L110.345 86.7816L110.428 87.1921L110.345 97.537H110.263L110.181 94.9918L109.935 95.4844L109.853 95.8949V97.7012L109.689 98.4401L109.278 98.358L109.032 98.1938L109.114 97.6191V94.6634L109.032 92.2004L108.786 91.7077L108.539 91.3793L108.375 90.6404H108.621L108.703 87.7669L108.786 86.7816L109.114 86.6174Z" fill="#181F2C"/>
<path d="M67.9808 86.1248H71.1006L72.0858 86.3711L72.9069 86.9458L73.3174 87.5205L73.5637 88.3415L73.6458 88.9983V91.4614L73.5637 92.1182H73.3995L73.1532 91.133L72.989 90.8867V90.6404L72.4142 90.7225L72.1679 90.4762L72.0858 88.9162L71.9216 88.4236L71.5932 88.0131V87.7668H71.3469V87.6026H71.5111V87.3563L69.2944 87.2742L69.3765 88.3415V89.3267L69.1302 89.573L68.8018 89.3267L68.4734 89.2446L68.3092 89.1625V88.9983H68.145L67.8986 90.8867L67.7344 91.0509V86.6174L67.6523 86.289L67.9808 86.1248Z" fill="#181F2C"/>
<path d="M47.4551 89.3267H48.3582L49.1792 89.573L49.6718 89.9014L50.0003 90.394L50.3287 91.5434L50.4929 94.0886V98.5221L50.3287 99.0968L49.754 99.1789L49.3434 99.0968L49.4255 98.6863L49.754 98.3579H49.9182L49.8361 98.1116L49.9182 96.7979L50.0003 93.9244L49.9182 93.2675L49.6718 92.6928L49.3434 92.4465L48.7687 92.3644L48.4403 91.215L48.194 91.0508L47.2909 91.1329L46.552 91.7076L45.8952 92.3644L45.3205 92.5286L45.1562 92.2002V91.6255L45.4847 90.7224L45.9773 90.0656H46.1415V89.9014L46.9625 89.4088L47.4551 89.3267Z" fill="#181F2C"/>
<path d="M106.813 91.9541H107.47L108.537 92.3646L108.619 92.6109L108.701 93.7603V97.2086L108.455 97.7833L107.716 98.1117L107.141 98.1938L106.813 98.0296L106.649 97.4549L106.484 95.7308V93.9245L106.649 92.2825L106.813 91.9541Z" fill="white"/>
<path d="M39.4107 94.335L39.5749 94.4171L39.7391 95.5665L39.9033 95.7307L40.0675 96.4696L40.3138 96.5517L40.3959 96.3054L40.6422 97.1264V97.3727L41.4632 97.2085L41.8737 96.5517L42.2842 95.8128L42.7768 95.4844L43.5978 95.3202L43.762 96.3054L43.5978 97.3727L43.2694 98.0295L42.4484 98.7685L41.7916 99.0969L40.9706 99.179L40.2317 98.9327L39.5749 98.3579L39.1643 97.8653L38.8359 96.9622L38.918 96.6338L39.1643 96.798L39.2464 94.9097L39.4107 94.335Z" fill="#181F2C"/>
<path d="M49.016 58.6206H52.3001L55.1737 58.7027L56.3231 58.7848L57.2262 58.8669L58.2115 59.1132H58.9504L58.8683 59.4416L58.3757 59.6058L58.7862 59.6879L62.8913 59.77V59.8521H48.6055V59.77L50.4118 59.6879L49.5087 59.6058H48.5234V59.0311L48.7697 58.7027L49.016 58.6206Z" fill="#181F2C"/>
<path d="M75.3714 89.9014H76.0282L76.3566 90.1477L77.0955 93.8423L77.3418 95.3201V96.4695L77.2597 98.1115L77.0134 98.9326L76.8492 98.8505L76.7671 98.3579L76.4387 98.0294L76.0282 96.059L75.4535 93.1033L75.043 90.8045V90.1477L75.3714 89.9014Z" fill="#181F2C"/>
<path d="M6.32088 85.0574H7.63451L7.71661 85.1395L7.63451 86.371V97.0442L7.5524 98.0295L7.3882 98.2758L6.81349 98.44H6.23878L5.99247 98.3579V98.1937L6.81349 97.7832L6.97769 96.9621L7.224 94.7454L7.3061 93.596V89.6551L7.05979 88.6699L6.97769 88.4235L6.48508 88.2593L6.23878 88.5056L5.91037 89.9835H5.66406L5.74616 85.1395L6.32088 85.0574Z" fill="#181F2C"/>
<path d="M11.9863 90.312H12.561L12.8894 90.6404L13.382 91.954V92.6109L12.9715 92.8572L13.2178 93.1035L13.0536 93.5961H12.6431V93.7603H12.4789L12.3968 93.514H12.6431L12.4789 93.0214L12.1505 93.1856L11.74 93.514V93.6782L10.919 94.1708L10.7548 94.0887L10.6727 94.2529L10.4263 94.335L10.3442 94.9097L10.5084 95.4844L10.919 96.4696L11.2474 96.716L11.4116 97.537V97.7833L11.0832 97.8654V97.7012L10.7548 97.537L10.4263 97.2907V97.1265L10.18 97.0444L9.93373 96.3875L9.85163 94.5813L9.76953 94.0066L9.85163 93.4319L10.5905 92.9393L10.919 92.5288L11.3295 91.0509L11.6579 90.5583L11.9863 90.312Z" fill="#181F2C"/>
<path d="M2.46221 91.9541L2.95482 92.0362L3.36533 92.1183V92.2004H2.79061V94.4172L2.70851 98.2759L2.46221 98.358H1.47699L0.984375 98.2759L1.06648 94.5814L1.14858 94.4172V93.7603L1.31278 93.2677L1.47699 92.9393L1.64119 92.2825L2.1338 92.2004V92.0362L2.46221 91.9541Z" fill="#181F2C"/>
<path d="M69.457 88.0952L71.3454 88.1773L71.7559 88.4236L72.0022 88.8341V90.4762L71.838 91.7077L71.5917 91.954L71.3454 92.0361L69.457 92.1182V88.0952Z" fill="white"/>
<path d="M32.1837 59.1953L43.5959 59.2774V62.0689L43.5138 72.4137V81.7733L43.4317 81.8554H42.3644V81.6912L42.6928 81.527H43.1854L43.2675 80.8702V73.481L43.3496 61.0837L43.4317 59.5237L41.5433 59.6058H32.5942L32.2658 59.5237V67.8981L32.1837 74.8768L32.1016 76.8472H32.0195V73.7273L32.1016 59.2774L32.1837 59.1953Z" fill="#FB7504"/>
<path d="M35.0592 89.6553L35.3876 89.7374L35.716 89.9016L36.0445 90.23L36.2908 90.9689V91.872L36.2087 92.6109V93.7604L36.2908 94.4172V96.9623L36.3729 97.4549V98.1118L36.0445 98.4402L35.5518 98.6044V98.7686L35.3055 98.6865L35.2234 98.4402L35.1413 90.8868H34.895L34.8129 90.6405L34.6487 90.5584V90.3942L34.3203 90.4763L34.4845 89.9016L35.0592 89.6553Z" fill="#181F2C"/>
<path d="M1.31278 84.8113H2.46221L2.79061 85.1397L2.87272 90.3121H2.46221L2.1338 89.9016L1.72329 89.8195L1.64119 90.0658H1.39488V90.23H1.23068L1.14858 90.9689H1.06648L0.984375 89.8195L1.06648 85.4681L1.14858 84.8934L1.31278 84.8113Z" fill="#181F2C"/>
<path d="M47.7838 93.1855H48.2764L48.3585 93.514L47.7838 93.9245H47.6196V94.1708L48.2764 94.4171L48.3585 94.7455L47.2091 95.0739L46.7986 95.3202L46.5523 95.7307L46.3881 96.1412L46.306 97.1264H46.0597L45.8133 97.0443L45.567 96.798L45.4849 97.2906L45.3207 97.619L45.4028 97.9475L45.9776 98.6043L46.3881 98.8506V99.0148L46.7986 99.0969L46.9628 99.2611L45.8954 99.0969L45.3207 98.5222L44.9923 97.8653L44.8281 97.0443V95.4023L45.0744 94.7455L45.7312 94.1708L46.5523 93.6782L47.7838 93.1855Z" fill="#181F2C"/>
<path d="M81.6914 91.9541H81.7735L81.8556 93.1856L82.2661 93.1035L82.7587 93.3498L83.005 94.0887L83.0871 95.8129L82.9229 97.0444L82.8408 97.8654L82.9229 98.1938V99.0149L82.2661 99.3433L82.0198 99.097L81.6914 98.2759V91.9541Z" fill="#181F2C"/>
<path d="M46.879 58.4565H46.9611V77.7505H47.1254L47.2896 78.8178L47.3717 81.3629V82.5945L47.2896 83.1692L52.9546 83.3334V83.4155H50.2452L47.2075 83.3334L46.7148 83.2513V69.4582L46.7969 61.9048L46.879 58.4565Z" fill="#181F2C"/>
<path d="M71.7578 86.3711L72.2504 86.4532L72.9072 86.9458L73.3177 87.5205L73.5641 88.3415L73.6462 88.9984V91.4614L73.5641 92.1182H73.3998L73.1535 91.133L72.9893 90.8867V90.6404L72.4146 90.7225L72.1683 90.4762L72.0041 88.0952L71.922 87.6847V86.6995L71.7578 86.3711Z" fill="#181F2C"/>
<path d="M47.7824 94.8276H48.3572L48.6035 95.0739V96.9623L48.3572 97.3728L47.6182 97.7012H47.0435L46.5509 97.4549L46.3867 96.8802L46.4688 95.7308L46.8793 95.156L47.7824 94.8276Z" fill="white"/>
<path d="M20.033 94.1707L20.2793 94.2528V95.4022L19.9509 96.6337L19.3762 97.0442L18.6373 97.1263L18.2268 96.88L17.9805 96.4695V95.8127L18.391 94.8275L18.8836 94.417L19.2941 94.2528L20.033 94.1707Z" fill="white"/>
<path d="M44.9926 58.7849H45.0747V73.3169L44.9926 79.3925H44.9105L44.8284 74.5485L44.5 74.6306V70.936L44.5821 70.115L44.6642 68.4729L44.7463 67.8982V67.6519V66.913L44.8284 66.3383V65.8457L44.7463 65.4352L44.8284 64.9425L44.9105 60.7554V59.5238L44.9926 58.7849Z" fill="#181F2C"/>
<path d="M59.5244 91.0508L60.017 91.1329L60.5096 91.5434L60.7559 92.2002L60.838 93.4317L60.5096 93.678L60.0991 93.7601H59.3602L58.7033 93.678L58.5391 93.5138L58.457 93.1854V92.5286L58.7033 91.7897L59.1959 91.215L59.5244 91.0508Z" fill="white"/>
<path d="M11.9853 90.312H12.56L12.8884 90.6404L13.381 91.954V92.6109L12.9705 92.8572L12.6421 92.9393H11.2464L10.918 92.6109L11.3285 91.0509L11.6569 90.5583L11.9853 90.312Z" fill="white"/>
<path d="M109.114 86.6174H110.181L110.345 86.7816V88.0953L110.263 88.7521L110.099 89.2447H109.935V88.9984L109.442 88.9163L109.196 89.3268L109.032 90.312L108.785 90.8046L108.457 90.7225L108.621 90.3941L108.703 87.7669L108.785 86.7816L109.114 86.6174Z" fill="#181F2C"/>
<path d="M19.9518 92.8572H20.116L20.4444 93.2677L20.3623 94.0066L20.2802 94.2529L18.556 94.335L18.1455 94.7455L17.6529 95.4023L17.4066 95.977L17.0782 95.8949L16.9961 95.6486V95.0739L17.3245 94.335L17.6529 93.8424L17.8171 93.4319L18.8023 93.3498L19.9518 92.8572Z" fill="#181F2C"/>
<path d="M33.0046 10.0986H33.0867L33.1688 10.6733L33.0867 10.9197V11.8228L32.8404 12.5617L32.5941 15.1068L32.512 17.4057V18.8014L32.6762 22.0034L32.8404 23.317V24.877H32.7583L32.3478 22.4139L32.1836 19.7866V17.9804L32.3478 14.45L32.5941 12.0691L32.8404 10.427L33.0046 10.0986Z" fill="#007B16"/>
<path d="M96.142 98.1116H96.6346L96.9631 98.2758V98.44L98.6051 98.3579L98.9335 98.6863L99.0156 99.0147L98.6872 99.3431H94.9105L94.6642 99.261L94.5 98.8505V98.6863H94.6642V98.5221L94.9926 98.6042L95.1568 98.7684L95.6494 98.6863L95.8136 98.3579L96.142 98.1116Z" fill="#181F2C"/>
<path d="M77.9153 95.156L77.9974 95.4844L78.3258 95.6486L78.4079 95.977L78.5721 96.8801L78.3258 97.7833L77.9974 98.358H77.5048V99.179L77.3406 99.5074L76.9301 99.4253L76.6838 99.0148L76.4375 98.0296L76.6017 98.1117V98.2759L76.848 98.358L76.9301 98.8506L77.1764 98.1117L77.2585 96.4696L77.3406 95.8128H77.4227V96.2233H77.5869L77.7511 95.4844L77.9153 95.156Z" fill="#181F2C"/>
<path d="M86.8638 97.2085L87.6027 97.2906L87.9311 97.619V99.4252L87.6027 99.5894H86.5354L86.3712 99.5073L86.2891 99.1789V97.4548L86.4533 97.2906L86.8638 97.2085Z" fill="#181F2C"/>
<path d="M101.066 93.1035H101.149L101.231 94.1708L101.723 93.8424L101.97 93.7603L102.216 94.2529L102.298 95.9771L102.134 97.3728L101.887 97.9475L101.641 97.8654L101.477 96.716L101.231 95.7308L101.149 97.8654H101.066V93.1035Z" fill="#181F2C"/>
<path d="M55.337 89.4089L55.9938 89.491L56.0759 89.5731V90.4763L55.8296 91.2973H55.4191L55.337 91.7078L55.1728 91.6257L55.0907 91.7899L54.7623 91.7078H54.9265L54.516 91.1331L54.1876 91.051L54.1055 90.5584L54.1876 89.9836L54.5981 89.6552L55.337 89.4089Z" fill="#181F2C"/>
<path d="M113.547 97.5369L114.204 97.7011L114.368 97.9474V99.6715L114.04 99.9178H113.219L112.891 99.5894V98.1937L113.137 97.7011L113.547 97.5369Z" fill="#181F2C"/>
<path d="M46.7969 77.4221L46.9611 77.7505H47.1253L47.2895 78.8178L47.3716 81.363V82.5945L47.2895 83.1692L52.9545 83.3334V83.4156H50.2452L47.2074 83.3334L46.7969 83.2513V77.4221Z" fill="#181F2C"/>
<path d="M13.2989 94.2529H14.6126L14.5304 94.4171L13.9557 94.4992L13.6273 94.7455L13.4631 94.6634L13.381 94.9097L13.1347 94.8276L12.8063 94.9918L12.6421 94.9097V94.7455L12.3137 94.9097L11.739 94.8276L11.4106 95.4845L11.3285 95.9771H11.4927L11.739 96.3876V96.5518L12.2316 96.6339L12.6421 96.1413L12.7242 95.895L13.0526 95.8129V95.4024L13.381 95.3203L13.2989 95.7308L12.8063 96.6339L12.3958 96.9623L12.0674 97.0444L11.6569 96.8802L11.3285 96.4697L11.0822 95.8129L10.918 95.0739V94.4992L11.0001 94.4171L13.2989 94.2529Z" fill="white"/>
<path d="M72.0862 88.9163H72.1683L72.2504 90.4762L72.4967 90.6404H72.9893L73.3177 91.3793L73.482 92.1182L73.3998 92.6929L73.0714 93.2677L72.8251 93.514L72.4967 93.4319L72.6609 93.2677L72.743 92.6108L72.0862 91.954L71.7578 91.8719L71.8399 91.2972L72.0041 91.133L72.0862 88.9163Z" fill="#181F2C"/>
<path d="M43.3489 95.3203H43.5952L43.7594 96.3055L43.5952 97.3729L43.2668 98.0297L42.8563 98.4402H42.61L42.6921 98.1118L43.0205 97.6192L42.9384 96.8802L42.5279 96.716L41.8711 96.8802L41.9532 96.3876L42.2816 95.8129L42.7742 95.4845L43.3489 95.3203Z" fill="#181F2C"/>
<path d="M48.6025 91.7078H48.6846L48.7667 92.1183V92.8572L49.0951 92.9393L49.2593 93.1035L49.3414 93.6782V94.4171L48.8488 95.0739H48.7667L48.6846 96.4697H48.6025L48.5204 94.9097L47.9457 94.8276V94.7455H48.3562L48.192 94.4171L47.6173 94.2529L47.5352 94.0887L47.9457 93.6782L48.3562 93.514L48.2741 93.1856L48.0278 93.1035L48.4383 92.8572H48.6025V91.7078Z" fill="#181F2C"/>
<path d="M69.2109 87.1921L71.5098 87.2742L71.5919 87.4384L71.5098 87.6026H71.3456V87.7669H71.5919L71.7561 88.1774L72.0845 88.5058V91.133L71.9203 91.2151V88.8342L71.7561 88.4237L71.3456 88.2595L69.5393 88.1774L69.4572 89.9015H69.3751L69.293 88.3416L69.2109 87.1921Z" fill="#181F2C"/>
<path d="M99.6719 73.5632L99.9183 73.6453L99.8361 73.8916V74.4664L99.9183 74.5485L100 82.5944H99.6719L99.5898 82.1018V75.9442L99.6719 73.5632Z" fill="#FB7504"/>
<path d="M58.6191 91.7078L58.7833 91.7899L58.537 92.5288V93.1856L58.7012 93.6782L58.4549 93.7603L58.6191 94.0887L58.1265 94.2529L57.3055 94.4171L56.9771 94.5813L56.8129 95.156L56.5665 95.7308H56.4844L56.4023 94.9918V93.8424L57.1413 93.7603L57.4697 93.5961L57.7981 93.2677L58.2086 92.4467L58.6191 91.7078Z" fill="#181F2C"/>
<path d="M7.47002 92.2004H7.55212L7.63422 97.0444L7.55212 98.0297L7.38792 98.276L6.81321 98.4402H6.23849L5.99219 98.3581V98.1939L6.81321 97.7834L6.97741 96.9623L7.22371 94.7456L7.30582 93.6783L7.38792 93.5962L7.47002 92.2004Z" fill="#181F2C"/>
<path d="M31.6094 89.4089H31.6915L31.7736 94.7456L31.9378 94.8277L32.3483 94.0066L32.5125 94.1708L32.5946 94.6635L32.5125 95.2382L32.2662 95.7308H31.9378L31.7736 96.2234L32.1841 96.3055L32.2662 97.8654L32.102 98.1117L31.8557 98.0296L31.7736 98.8506L32.102 98.9327H31.6915L31.6094 95.4024V89.4089Z" fill="#181F2C"/>
<path d="M16.1758 41.1331L16.7505 41.6257L17.4073 42.3646L17.982 43.0214L20.1167 45.156L20.2809 45.2381V45.4024L20.6093 45.5666L21.3482 46.2234L21.2661 46.3876L20.7735 46.5518L19.7062 45.5666L19.3778 45.2381L19.1314 44.8276L18.3925 43.9245L17.4894 42.9393L16.9147 42.2004L16.8326 41.9541H16.6684L16.1758 41.2973V41.1331Z" fill="#810404"/>
<path d="M83.4142 69.5403H83.4963L83.5784 73.0707H83.6605V76.4368L83.4963 82.184L83.25 82.1019L83.4142 69.5403Z" fill="#FB7504"/>
<path d="M81.4453 36.6174H82.4305L84.7294 37.1921L86.864 37.9311L87.2745 38.0953V38.3416L87.7672 38.67L87.5208 38.7521L87.1924 38.5879V38.4237L86.6177 38.2595L86.5356 38.1774L85.222 37.9311L84.1547 37.6027V37.4384L83.6621 37.3563L83.0052 37.1921H82.4305L81.4453 36.6995V36.6174Z" fill="#181F2C"/>
<path d="M67.4863 35.55L67.6505 35.6322L66.9936 36.5353L66.7473 36.7816L65.8442 38.2594L65.1874 39.6551L64.3664 40.8046L63.217 42.3645L62.1496 43.8423L61.2465 44.9918L60.7539 45.5665V45.3202L61.4107 44.4991L62.3959 43.1855L63.5454 41.5435L64.3664 40.312L65.1053 39.0804L65.8442 37.5205H66.0084L66.1726 37.11H66.3368L66.501 36.6995L66.9936 36.0427L67.4042 35.6322L67.4863 35.55Z" fill="#810404"/>
<path d="M108.458 98.1938L109.033 98.6044H109.279L109.115 99.4254V99.6717L110.1 99.7538V99.8359H109.033L108.376 99.7538L107.555 99.8359V99.5896H107.391V99.3433H107.555L107.473 98.7686L107.719 98.6865V98.5223L108.13 98.2759L108.458 98.1938Z" fill="#181F2C"/>
<path d="M52.1328 94.9097H52.2149L52.297 97.2085L52.5433 97.3727V97.2085L52.7896 97.1264L53.0359 97.7011L53.2001 98.8506V99.2611L53.6106 99.179L53.4464 99.3432H52.6254L52.2149 99.0969L52.1328 99.0148V94.9097Z" fill="#181F2C"/>
<path d="M102.298 89.8193L102.462 89.9014V90.1477L103.365 90.0656L103.694 90.2298L103.119 90.4762H102.626L102.544 90.5583V91.2972L102.216 91.3793L102.134 91.6256L101.559 91.8719H100.902L100.984 91.4614L101.231 91.2151L101.313 90.8046H101.477L101.559 90.4762H101.723L101.805 90.2298L102.298 89.8193Z" fill="#181F2C"/>
<path d="M109.36 90.6404H109.688L109.934 91.2151L110.016 91.7077V92.4466L109.852 93.1855L109.606 93.4318L109.36 93.3497L109.113 92.0361L109.031 91.4614L109.195 90.7225L109.36 90.6404Z" fill="#181F2C"/>
<path d="M60.0996 93.6782L60.428 93.7603V93.9245L60.6743 94.335L60.5101 94.7455L60.1817 94.9097H58.9501L58.1291 95.1561L57.9649 95.4845L57.8828 95.3203L58.047 95.074H58.2112V94.8276H58.3754L58.4575 94.5813L58.7859 94.4992L58.7038 94.2529L59.3606 94.0066L59.9354 93.8424L60.0996 93.6782Z" fill="#181F2C"/>
<path d="M65.1886 39.491L65.4349 39.5731V39.8194L65.6812 39.9015L64.4497 42.1182L64.0392 42.6929H63.875L63.9571 42.2824L64.2855 41.7898V41.4614L63.9571 41.3793L64.2855 40.8046L65.1886 39.491Z" fill="#181F2C"/>
<path d="M58.8675 91.7898L59.1138 91.954V92.2824L58.8675 93.0213L59.278 93.1034L59.4423 93.1855L60.3454 93.0213V93.1855L60.7559 93.2676L60.6738 93.596L60.0991 93.7602H59.3602L58.7033 93.6781L58.5391 93.5139L58.457 93.1855V92.5287L58.6212 91.954L58.8675 91.7898Z" fill="white"/>
<path d="M35.3869 90.5583L35.7153 90.6405L35.8795 91.5436L35.7974 92.2004L35.8795 93.1856L35.7153 93.9245L35.5511 94.4171L35.3048 94.0887L35.2227 90.6405L35.3869 90.5583Z" fill="#181F2C"/>
<path d="M52.7931 91.6257H52.9573L53.2036 92.3646L53.2857 92.9394V93.7604L53.0394 94.7456V95.2382L52.7931 95.4845L52.6289 95.074V92.2004L52.7931 91.6257Z" fill="#181F2C"/>
<path d="M39.8205 32.4302L40.231 32.5123L40.3131 32.6765L40.7236 32.7586V32.9228L41.2984 33.0049V33.1691L41.6268 33.2512L41.7089 33.5796L42.612 33.9901L43.6793 34.729L43.9256 34.9753L43.433 34.8111L42.1194 34.1543L40.231 33.3333L39.9026 33.0049L39.5742 32.8407V32.5944L39.8205 32.4302Z" fill="#810404"/>
<path d="M19.7868 97.2085L20.1974 97.2906L20.2795 97.7832L20.4437 97.8653L19.7868 98.3579L19.4584 98.5221L19.13 98.44L18.9658 98.2758L17.9806 98.1116L17.8164 97.8653V97.619L18.7195 97.7011L19.4584 97.5369V97.3727L19.7868 97.2085Z" fill="#181F2C"/>
<path d="M71.7582 77.7505L72.0866 77.8326V79.1462L72.0045 79.2283L72.2508 80.1314V80.5419L71.8403 80.7062L71.6761 80.6241L71.594 80.7883V80.6241L71.3477 80.5419L71.5119 80.2956V80.0493L71.3477 79.9672L71.5119 79.1462L71.594 78.8178L71.5119 78.7357L71.594 77.8326L71.7582 77.7505Z" fill="#181F2C"/>
<path d="M3.44922 90.312H5.33756L5.25546 90.4762L5.00915 90.5583L5.33756 90.7225L5.50176 91.2151L5.33756 91.4614L4.59864 91.2972L3.85973 91.2151L3.53132 90.8867V90.5583L3.44922 90.312Z" fill="#181F2C"/>
<path d="M43.3485 73.4812H43.4306L43.5127 81.7735L43.4306 81.8556H42.3633V81.6914L42.6917 81.5272H43.1843L43.2664 80.8704V73.5633L43.3485 73.4812Z" fill="#FB7504"/>
<path d="M95.155 44.2529L95.3192 44.335L94.4161 45.2382L93.513 45.9771L92.4456 46.7981L90.8857 47.8654L88.9153 49.0148L87.8479 49.5895L87.5195 49.5074L88.9153 48.7685L89.9826 48.1117L91.132 47.3728L92.1172 46.716L93.1025 45.9771L94.9087 44.4992L95.155 44.2529Z" fill="white"/>
<path d="M40.9694 91.0508H41.462L41.8725 91.5434L41.462 92.4465H41.2157L40.4768 92.3644V92.5286H40.3126V93.0212H40.2305V92.4465L40.5589 91.5434L40.8052 91.1329L40.9694 91.0508Z" fill="white"/>
<path d="M44.9924 58.7849H45.0745V67.3235L44.9924 67.8161L44.7461 67.6519V66.913L44.8282 66.3383V65.8457L44.7461 65.4352L44.8282 64.9425L44.9103 60.7554V59.5238L44.9924 58.7849Z" fill="#181F2C"/>
<path d="M54.1059 90.0657H54.188V91.0509L54.5985 91.133L54.9269 91.5435V91.7077L55.0911 91.7898L55.1732 91.5435L55.3374 91.6256L55.4195 91.2972L55.6658 91.2151L55.7479 91.4614L55.3374 91.8719L55.009 91.954L54.1059 91.7077L54.0238 93.1855H53.9417L53.8596 91.4614L53.6133 90.7225V90.3941H53.7775V90.1478L54.1059 90.0657Z" fill="#181F2C"/>
<path d="M20.1964 94.2529H20.2785V95.4024L20.1964 95.2382H20.0322L19.9501 95.4024H19.7038L19.6217 95.6487L19.047 95.9771L18.8828 95.6487V95.3203H19.047L18.8828 94.8276H19.047V94.5813L19.2112 94.4992H19.9501L20.1143 94.5813L20.1964 94.2529Z" fill="white"/>
<path d="M86.863 43.9246L86.9451 44.0888L86.863 44.253H86.6988L86.6167 44.4993H86.4525V44.6635L85.7957 45.2382L84.7283 46.2234L83.4147 47.2086L82.9221 47.537H82.6758V47.3728L83.0863 47.2086L83.2505 46.8802H83.4147V46.716L83.661 46.6339L84.0715 46.2234L84.9746 45.5666L85.3851 45.1561L85.7957 44.9098L86.2883 44.4993V44.3351L86.5346 44.253L86.863 43.9246Z" fill="#181F2C"/>
<path d="M83.0866 89.1626H83.415V89.7373L83.6613 89.9836H83.2508L83.415 90.6404L83.1687 91.2151L82.9224 91.2972L82.3477 91.0509V90.4762L82.7582 90.2299H82.9224V89.4089L83.0866 89.1626Z" fill="#181F2C"/>
<path d="M33.0045 10.0986H33.0866L33.1687 10.6733L33.0866 10.9197V11.8228L32.8403 12.5617L32.594 15.1068L32.3477 15.1889L32.4298 13.3827L32.8403 10.427L33.0045 10.0986Z" fill="#007B16"/>
<path d="M88.4219 77.5862H88.504L88.5861 78.4072V82.0197L90.7207 82.3481L91.4596 82.4302V82.5123H88.9966L88.4219 82.4302V77.5862Z" fill="#FB7504"/>
<path d="M84.8942 52.2988H85.3047V52.463L85.4689 52.5451L83.7447 53.1198L81.6101 53.6125L80.7891 53.6946L81.0354 53.5304L81.9385 53.3662H82.349V53.2019L83.3342 52.7914L84.8942 52.2988Z" fill="#181F2C"/>
<path d="M69.5391 90.394L69.6212 90.5582L69.8675 90.6403L70.1138 91.5435L71.099 91.7077V91.8719H71.3453V92.0361L69.5391 92.1182V90.394Z" fill="white"/>
<path d="M32.1017 74.877H32.1838V81.6914H33.0869L34.2364 81.7735V81.8556H32.1017L31.9375 81.7735L32.0196 76.8474L32.1017 74.877Z" fill="#FB7504"/>
<path d="M54.1055 91.7078L54.6803 91.7899L55.0087 91.9541H54.8445L54.9266 92.1183V92.693L54.8445 92.8572H54.6803V93.0214L54.4339 93.1856V93.4319H54.2697V93.1856H54.1055L54.0234 93.514V92.2004L54.1055 91.7078Z" fill="white"/>
<path d="M101.395 65.7637L101.805 65.9279L101.97 66.2563L101.887 66.9952L101.559 67.4878L101.231 67.4057L101.066 66.3384V65.8458L101.395 65.7637Z" fill="#181F2C"/>
<path d="M41.6265 90.1477L41.9549 90.2298L42.037 90.7224L41.6265 90.8045L41.5444 90.6403L41.4623 91.0508L40.8055 91.1329L40.7234 91.2971V90.9687L40.0665 91.2971H39.9023L40.0665 90.8866L40.8055 90.3119L41.6265 90.1477Z" fill="#181F2C"/>
<path d="M59.3594 76.5188H59.5236L59.6878 77.0114L59.9341 77.2577L60.0983 78.6534L60.1804 79.064L59.6057 78.9819L59.5236 78.7355L59.4415 78.1608L59.3594 77.2577V76.5188Z" fill="#181F2C"/>
<path d="M107.473 60.427L108.294 60.5091L110.1 61.0838L111.249 61.6585L112.07 62.3974L112.563 62.9722H112.317L112.07 62.808V62.6438L111.578 62.3974V62.2332L111.167 62.069L110.839 61.8227V61.6585L110.428 61.5764L109.936 61.248L108.212 60.6733L107.473 60.5091V60.427Z" fill="#FB7504"/>
<path d="M77.3406 96.5518H77.5048L77.4227 98.358L77.5048 99.179L77.3406 99.5074L76.9301 99.4253L76.6838 99.0148L76.4375 98.0296L76.6017 98.1117V98.2759L76.848 98.358L76.9301 98.8506L77.1764 98.1117L77.3406 96.5518Z" fill="#181F2C"/>
<path d="M31.6914 96.2234L32.184 96.3055L32.2661 97.8654L32.1019 98.1117L31.8556 98.0296L31.7735 98.8506L32.1019 98.9327H31.6914V96.2234Z" fill="#181F2C"/>
<path d="M90.3112 39.8193L90.3933 40.0656L89.8186 40.8046L88.9155 41.8719L88.1766 42.775L87.4376 43.596H87.2734L87.4376 43.1855L87.5197 43.0213H87.6839V42.8571L88.2587 42.3645L88.5871 41.7077H88.8334V41.5435L89.0797 41.2972H89.2439L89.326 40.8867L89.4902 40.6404H89.7365V40.4762H89.9007L90.0649 40.1477L90.3112 39.8193Z" fill="#181F2C"/>
<path d="M13.3017 96.8801H13.6301V97.4548L13.3017 97.7832L12.3986 98.0296V97.8653H12.2344L12.4807 97.1264L12.6449 97.2085L12.8091 97.0443L12.9733 97.1264V96.9622L13.3017 96.8801Z" fill="#181F2C"/>
<path d="M76.3556 95.9771L76.684 96.0592L76.7661 96.3055L76.8482 96.9623V97.7833L76.7661 98.2759H76.6019L76.3556 97.7012L76.1914 96.7981H76.3556L76.4377 96.4697L76.3556 95.9771Z" fill="#181F2C"/>
<path d="M100 97.7832L100.411 97.8653V98.1116H100.575L100.493 98.7684L100.329 99.3431L100.082 99.9179H99.6719L99.8361 99.5894L100 97.7832Z" fill="white"/>
<path d="M82.3472 47.6191H82.5935V47.7833L80.9515 48.7686L79.6378 49.4254L78.4884 49.918H78.3242V49.7538L79.8842 49.097L80.7052 48.6044L81.8546 47.8654L82.3472 47.6191Z" fill="#181F2C"/>
<path d="M59.6055 79.1462L60.016 79.2283L60.2624 79.4746L60.0982 80.2957L59.8518 80.3778L59.6876 80.2957V82.7587H59.6055L59.5234 81.8556V79.2283L59.6055 79.1462Z" fill="#181F2C"/>
<path d="M59.4415 73.6453L59.6879 73.7274L59.9342 74.4663V75.2873L59.5236 75.3694L59.2773 75.2052V74.5484L59.3594 74.3021L59.4415 73.6453Z" fill="#181F2C"/>
<path d="M57.6338 92.8572H57.9622L57.798 93.4319L57.4696 93.6782L56.7307 93.9245H56.4844V93.1856L56.6486 93.514L57.0591 93.1035L57.6338 92.8572Z" fill="#181F2C"/>
<path d="M48.0278 93.1035H48.4383L48.5204 93.4319V94.8277H47.9457V94.7456H48.3562L48.192 94.4171L47.6173 94.2529L47.5352 94.0887L47.9457 93.6782L48.3562 93.514L48.2741 93.1856L48.0278 93.1035Z" fill="#181F2C"/>
<path d="M98.2746 98.3579L98.6851 98.44L98.9314 98.6863L99.0135 99.0147L98.6851 99.3431H98.0283L98.2746 99.1789L98.5209 99.0968V98.9326L98.0283 98.7684L97.2072 98.6863L96.9609 98.44L98.2746 98.3579Z" fill="#181F2C"/>
<path d="M71.6761 79.3923L72.0045 79.5565L72.2508 80.1313V80.5418L71.8403 80.706L71.6761 80.6239L71.594 80.7881V80.6239L71.3477 80.5418L71.5119 80.2955V80.0491L71.3477 79.967L71.4298 79.5565L71.6761 79.3923Z" fill="#181F2C"/>
<path d="M61.6603 95.074H62.3992L62.3171 96.1413L62.235 96.3876H62.0708V96.2234L61.4961 96.0592V95.5666L61.6603 95.6487L61.7424 95.895L61.6603 95.074Z" fill="white"/>
<path d="M29.2275 88.6699L29.5559 88.752L29.7201 88.9983L29.1454 89.2446L28.7349 89.3267L28.8991 89.6551L28.817 89.9836L28.2423 90.0657L28.1602 89.7372L28.3244 89.4088L28.8991 88.8341H29.1454L29.2275 88.6699Z" fill="#181F2C"/>
<path d="M40.3125 33.4155L40.8051 33.4976L42.4471 34.2365L43.7608 34.8934L44.1713 35.1397V35.3039L43.6787 35.1397L42.365 34.4829L40.3125 33.4976V33.4155Z" fill="white"/>
<path d="M48.8516 92.2825L49.5084 92.4467L49.8369 92.7751L50.0011 93.2677L50.0832 94.5813L50.0011 95.2381H49.919L49.8369 93.9245L49.5905 93.0214L49.0979 92.693L48.7695 92.6109L48.8516 92.2825Z" fill="#181F2C"/>
<path d="M13.1379 95.3203H13.3842L13.3021 95.7308L12.8095 96.6339L12.399 96.9623L12.0706 97.0445L11.7422 96.8802V96.5518L12.2348 96.6339L12.6453 96.1413L12.7274 95.895L13.0558 95.8129V95.4024L13.1379 95.3203Z" fill="white"/>
<path d="M58.6217 91.7078L58.7859 91.7899L58.5396 92.5288V93.514L58.4575 93.5961H57.9649L57.8828 93.0214L58.6217 91.7078Z" fill="#181F2C"/>
<path d="M20.6063 97.6191H20.7705L20.8526 98.4402L21.181 98.6044H20.0316L19.6211 98.4402L20.0316 98.1118L20.6063 97.6191Z" fill="white"/>
<path d="M54.1059 90.0657L54.188 90.312L54.0238 90.6404H53.8596L54.188 91.2151L54.2701 91.7077H54.1059L54.0238 93.1855H53.9417L53.8596 91.4614L53.6133 90.7225V90.3941H53.7775V90.1478L54.1059 90.0657Z" fill="#181F2C"/>
<path d="M65.6798 63.1362L65.844 63.3825L66.0082 63.7109L66.2545 63.4646L66.4187 63.1362L66.3366 63.7109L66.0082 64.4499L65.7619 65.8456L65.5977 65.7635V65.1067L65.7619 63.8751L65.6798 63.1362Z" fill="#181F2C"/>
<path d="M11.0822 92.2825L11.4927 92.693L12.9705 92.5288L13.2989 92.4467L13.2168 92.7751L12.6421 92.9393H11.2464L10.918 92.6109L11.0822 92.2825Z" fill="white"/>
<path d="M71.758 91.7078L71.9222 91.872L72.2506 92.0362L72.6611 92.4467L72.8253 92.7751L72.6611 93.3498V93.5961L72.0864 93.9245H71.9222L72.0864 93.514L72.4148 93.1856L72.4969 92.693L72.1685 92.2004L71.5938 92.0362L71.758 91.7078Z" fill="#181F2C"/>
<path d="M42.1994 90.6404L42.6099 90.8867L42.8562 91.7077L42.6099 91.954L42.1994 92.2003V91.954L42.2815 91.133L42.0352 91.0509L42.1994 90.6404Z" fill="#181F2C"/>
<path d="M58.7009 89.2446H58.8651V89.4088L58.3725 89.6551L57.7978 90.1477L57.5515 90.5583L57.3873 90.8867L57.141 91.133L56.8126 91.8719L56.7305 91.6256L57.141 90.6404L57.6336 89.9835L58.2904 89.4088L58.7009 89.2446Z" fill="white"/>
<path d="M52.7075 97.1265L52.8717 97.2086L53.0359 97.7012L53.118 98.6043L52.8717 98.2759L52.6254 97.8654L52.2148 97.9475V97.2086L52.5433 97.3728V97.2086L52.7075 97.1265Z" fill="#181F2C"/>
<path d="M83.2501 89.9836H83.8249L83.907 90.5584H83.7428V90.7226L83.5785 90.8047L83.4143 91.3794L83.0859 91.2152L83.3322 90.5584L83.168 90.1478L83.2501 89.9836Z" fill="#181F2C"/>
<path d="M46.9609 58.1282H52.1334V58.2103L48.3567 58.2924L47.8641 58.3745L47.1251 58.2924L46.9609 58.3745V58.1282Z" fill="#181F2C"/>
<path d="M89.9821 40.5583L90.1463 40.6405L89.4895 41.5436H89.3253L89.1611 41.9541L88.7506 42.3646L88.3401 42.8572L88.0938 42.7751L89.079 41.6257L89.8179 40.7226L89.9821 40.5583Z" fill="white"/>
<path d="M79.9689 29.6387L80.7899 29.885L80.872 30.2134L80.4615 30.3776L79.8868 30.4597L79.8047 30.2955L79.9689 29.6387Z" fill="#810404"/>
<path d="M33.7428 89.1626H34.0712L33.907 89.6552L33.4143 90.4762L33.168 91.2151H33.0859L33.168 90.4762L33.3322 90.0657L33.2501 89.6552L33.6607 89.5731L33.4143 89.3268L33.7428 89.1626Z" fill="white"/>
<path d="M85.9611 37.6848L86.3716 37.7669L87.2747 38.0953V38.3416L87.7673 38.67L87.521 38.7521L87.1926 38.5879V38.4237L86.6179 38.2595L86.5358 38.1774L85.7969 38.0132V37.849H86.0432L85.9611 37.6848Z" fill="#181F2C"/>
<path d="M20.0333 91.9541H20.1975V92.4467L19.5407 92.7751L18.0629 93.2677H17.6523L17.8165 93.1035L19.5407 92.5288H19.7049V92.3646H20.0333V91.9541Z" fill="white"/>
<path d="M41.7072 33.7439L42.5282 33.9081L43.5134 34.647L43.9239 34.8933L43.7597 34.9754L42.4461 34.3186L41.543 33.9081L41.7072 33.7439Z" fill="#810404"/>
<path d="M12.6449 92.8572L13.0554 92.9393L13.2196 93.2677L13.0554 93.5961H12.6449V93.7603H12.4807L12.3986 93.514H12.6449L12.4807 93.0214L12.2344 92.9393L12.6449 92.8572Z" fill="#181F2C"/>
<path d="M113.545 72.4958L113.709 72.578L113.381 72.9885L112.724 73.5632L111.821 74.1379L111.328 74.3842H111.164V74.22L112.231 73.6453L112.97 73.0706L113.545 72.4958Z" fill="white"/>
<path d="M73.3171 92.2004H73.3992L73.3171 92.9394L72.8245 93.5141L72.4961 93.432L72.9887 92.6931L73.0708 92.3646L73.3171 92.2004Z" fill="#181F2C"/>
<path d="M46.961 77.7505H47.1252L47.2894 78.8178L47.2073 79.3104L47.1252 79.1462H46.961L46.8789 79.3104V78.161L46.961 77.7505Z" fill="#181F2C"/>
<path d="M57.6336 92.8572H57.962L57.8799 93.2677L56.9768 93.514H56.7305L57.141 93.0214L57.6336 92.8572Z" fill="#181F2C"/>
<path d="M70.0322 50.9851L71.5101 51.0672V51.1493L71.0175 51.2314H68.8828V51.1493L70.0322 50.9851Z" fill="#181F2C"/>
<path d="M108.95 98.9326V99.1789L108.54 99.6715L107.801 99.8357H107.637V99.5894H108.211L108.129 99.261L108.95 98.9326Z" fill="#810404"/>
<path d="M48.192 93.5139H48.3562L48.192 94.3349L47.6173 94.2528L47.5352 94.0886L47.9457 93.6781L48.192 93.5139Z" fill="#181F2C"/>
<path d="M59.5234 79.9673L60.0982 80.0494V80.2957L59.8518 80.3778L59.6876 80.2957V82.7587H59.6055L59.5234 81.8556V79.9673Z" fill="#181F2C"/>
<path d="M96.7981 42.6108L96.8802 42.8571L95.5666 44.1708L95.3203 44.0887L96.7981 42.6108Z" fill="white"/>
<path d="M108.95 99.0969H109.114V99.6716L110.099 99.7537V99.8358H109.032L108.539 99.6716L108.703 99.3432H108.867L108.95 99.0969Z" fill="#181F2C"/>
<path d="M72.0045 80.0493L72.2508 80.1314V80.5419L71.8403 80.7061L71.6761 80.624L71.594 80.7882V80.624L71.3477 80.5419L71.6761 80.1314L72.0045 80.0493Z" fill="#181F2C"/>
<path d="M82.2658 90.5583H82.3479V91.051L82.9226 91.2152L82.6763 91.3794L82.5121 91.7078L82.1837 91.6257L82.1016 91.2152L82.1837 91.1331L82.2658 90.5583Z" fill="#181F2C"/>
<path d="M43.3485 81.2808L43.5127 81.5271L43.4306 81.8555H42.3633V81.6913L42.6917 81.5271H43.1843L43.3485 81.2808Z" fill="#FB7504"/>
<path d="M40.3945 31.5271L41.0513 31.6092L41.4619 31.7734V31.9376L41.9545 32.1018L42.4471 32.3481L42.2008 32.4302L40.6408 31.7734L40.3945 31.5271Z" fill="#810404"/>
<path d="M77.34 96.5518H77.5042L77.4221 98.1938L77.2579 98.7685H77.1758L77.2579 97.3728L77.34 96.5518Z" fill="#810404"/>
<path d="M53.0396 98.6042H53.2038V99.2611L53.6143 99.179L53.4501 99.3432H52.629L52.4648 99.0969L52.9575 98.9327L53.0396 98.6042Z" fill="#181F2C"/>
<path d="M35.5509 95.7307H35.633L35.7972 96.3054L35.7151 97.0443H35.4688L35.3867 96.3875L35.5509 95.7307Z" fill="#181F2C"/>
<path d="M69.375 87.8489L69.7034 88.0131L71.1812 88.0952V88.1773H69.5392L69.4571 89.9014H69.375V87.8489Z" fill="#810404"/>
<path d="M77.3399 95.8127H77.422V96.2233H77.5862V96.059H77.7504L77.5862 97.2906L77.422 97.4548L77.5041 96.5517H77.3399V97.3727H77.2578V96.4696L77.3399 95.8127Z" fill="#181F2C"/>
<path d="M88.3408 42.2825L88.4229 42.5288L87.4376 43.5961H87.2734L87.4376 43.1856L87.5197 43.0214H87.6839V42.8572L88.3408 42.2825Z" fill="#181F2C"/>
<path d="M108.457 98.1938L109.032 98.6044L109.114 98.7686L108.539 98.9328L108.375 98.4402L108.047 98.3581L108.457 98.1938Z" fill="#181F2C"/>
<path d="M95.1575 44.2529L95.3217 44.335L94.4186 45.2382L93.8439 45.7308H93.6797L93.8439 45.4024L94.6649 44.6634L95.1575 44.2529Z" fill="white"/>
<path d="M40.969 8.94922L41.7901 9.27763L41.6258 9.35973L41.5437 9.68814L41.4616 9.52393L41.0511 9.44183V9.27763H40.8048V9.11342L40.6406 9.03132L40.969 8.94922Z" fill="#181F2C"/>
<path d="M11.1641 95.7307L11.3283 95.8128V95.977H11.4925L11.903 96.798L11.6567 96.8801L11.3283 96.4696L11.1641 96.1412V95.7307Z" fill="white"/>
<path d="M40.0664 93.5139H40.1485L40.3127 95.5665V96.2233L40.1485 95.8949L40.0664 95.6486V93.5139Z" fill="#181F2C"/>
<path d="M28.4886 89.491H28.817L28.8991 89.9015L28.4065 90.0657L28.1602 89.9836L28.2423 89.5731L28.4886 89.491Z" fill="white"/>
<path d="M69.2931 96.6338H69.3752V98.7684L69.2931 98.44H69.1289V97.619H69.2931V96.6338Z" fill="#181F2C"/>
<path d="M11.0822 92.2825L11.5748 92.7751L12.6421 92.8572V92.9393H11.2464L10.918 92.6109L11.0822 92.2825Z" fill="white"/>
<path d="M54.3523 89.573L54.5986 89.7372L54.106 90.1477H53.7776V89.8193L53.5312 89.7372L54.3523 89.573Z" fill="white"/>
<path d="M82.9222 88.9983L83.1685 89.0804L83.0043 89.573L82.9222 90.2298L82.5117 90.3119L82.6759 90.2298V89.4909L82.9222 88.9983Z" fill="#181F2C"/>
<path d="M65.7619 64.2036L65.9261 64.4499L65.844 65.5993L65.6798 65.8456L65.5977 65.7635V65.1067L65.7619 64.2036Z" fill="#181F2C"/>
<path d="M79.9663 49.0149L80.2126 49.097L79.8842 49.3433L78.4884 49.918H78.3242V49.7538L79.8842 49.097L79.9663 49.0149Z" fill="#181F2C"/>
<path d="M81.3648 48.4402H81.529V48.6044L80.6258 49.097L80.0511 49.4254H79.6406L79.8869 49.2612L81.3648 48.4402Z" fill="white"/>
<path d="M74.629 36.2068H76.4353V36.2889L75.6143 36.371L75.2859 36.4531H74.629L74.4648 36.2889L74.629 36.2068Z" fill="#181F2C"/>
<path d="M71.9224 93.4319L72.0866 93.514L71.9224 94.0066L71.5119 94.1708H71.2656L71.4298 93.7603L71.9224 93.4319Z" fill="#181F2C"/>
<path d="M54.1057 91.2151H54.1878L54.2699 91.7077H54.1057L54.0236 93.1855H53.9415L53.8594 91.2972L54.1057 91.2151Z" fill="#181F2C"/>
<path d="M4.02393 91.2971H4.51654L4.76285 91.4613V91.6255L4.35234 91.5434V91.6255L3.77763 91.7897L3.61342 91.9539V91.7897L3.44922 91.7076L3.61342 91.5434L3.94183 91.4613L4.02393 91.2971Z" fill="#181F2C"/>
<path d="M42.6094 34.4827L43.1841 34.5648L44.1693 35.1395V35.3037L43.6767 35.1395L42.6094 34.5648V34.4827Z" fill="white"/>
<path d="M19.5391 90.4761L19.9496 90.5582L20.1959 91.0508V91.6255L20.0317 91.5434L19.8675 90.8866H19.7033L19.5391 90.4761Z" fill="white"/>
<path d="M102.629 89.491L103.286 89.9836L103.04 90.1478H102.465L102.547 89.7373L102.629 89.491Z" fill="white"/>
<path d="M93.5947 45.5664L93.6768 45.8127L92.6915 46.6337H92.5273L92.6915 46.3053L93.5947 45.5664Z" fill="white"/>
<path d="M89.0788 41.2971H89.243L89.1609 41.6255L88.504 42.3644L88.3398 42.2002L88.5861 41.7076H88.8325V41.5434L89.0788 41.2971Z" fill="#181F2C"/>
<path d="M100.574 35.7964L100.985 35.8785L101.395 36.1248L101.313 36.4532L100.985 36.3711L100.574 35.9606V35.7964Z" fill="#181F2C"/>
<path d="M32.9219 52.7915H33.9071L34.8102 53.0378V53.1199L33.7429 53.0378L32.9219 52.8736V52.7915Z" fill="#810404"/>
<path d="M40.5586 96.7981H40.7228V96.9623L41.4617 97.2086L41.2154 97.3728H40.6407L40.5586 96.7981Z" fill="white"/>
<path d="M14.2852 89.6553L14.6136 89.9837L14.942 90.7226L15.0241 91.3794L14.8599 91.2973L14.5315 90.3121L14.2852 89.8195V89.6553Z" fill="white"/>
<path d="M92.4462 46.4697L92.5283 46.716L91.4609 47.4549V47.2086L92.4462 46.4697Z" fill="white"/>
<path d="M43.5943 91.6257H43.6764V92.2825L43.7585 92.6931L42.9375 92.611L43.2659 92.4468L43.348 92.2825H43.5122L43.5943 91.6257Z" fill="#181F2C"/>
<path d="M67.5703 52.7095L68.3913 52.8737L68.8839 53.0379V53.12H68.145L67.5703 52.9558V52.7095Z" fill="#181F2C"/>
<path d="M44.418 35.468L44.9106 35.5501L45.7316 36.1248L45.6495 36.289L44.9106 35.8785L44.418 35.5501V35.468Z" fill="white"/>
<path d="M48.5238 91.4614H48.6059L48.688 92.693L48.5238 92.6109V92.4466L48.1133 92.2824L48.2775 91.954L48.4417 92.2003L48.5238 91.4614Z" fill="white"/>
<path d="M46.9609 58.1282H48.4388L48.3567 58.2924L47.8641 58.3745L47.1251 58.2924L46.9609 58.3745V58.1282Z" fill="#181F2C"/>
<path d="M80.2152 30.0493H80.872V30.2135L80.4615 30.3777L79.8868 30.4598L79.8047 30.2956L79.9689 30.1314L80.2152 30.0493Z" fill="#181F2C"/>
<path d="M18.966 92.6929L19.1302 92.775L18.7197 93.0213L18.0629 93.2676H17.6523L17.8165 93.1034L18.966 92.6929Z" fill="white"/>
<path d="M91.2155 47.2905H91.3797L91.2976 47.6189L90.6408 48.0294H90.4766L90.6408 47.701L91.2155 47.2905Z" fill="white"/>
<path d="M89.079 41.7898L89.1611 41.954L88.7506 42.3645L88.3401 42.8571L88.0938 42.775L88.6685 42.1182L89.079 41.7898Z" fill="white"/>
<path d="M104.926 97.9475L105.172 98.0296L105.5 98.8506L105.418 99.179L105.008 98.358L104.926 97.9475Z" fill="white"/>
<path d="M15.2695 92.8572L15.5158 93.1856V94.0066H15.3516L15.2695 93.6782V92.8572Z" fill="white"/>
<path d="M71.5938 78.8176L71.8401 79.0639L72.0864 79.146L72.0043 79.5565L71.6759 79.4744L71.5117 79.5565V78.9818L71.5938 78.8176Z" fill="#181F2C"/>
<path d="M59.6055 78.3252L59.6876 78.6536L60.0982 78.7357L60.1803 79.0641L59.6055 78.982L59.5234 78.7357L59.6055 78.3252Z" fill="#181F2C"/>
<path d="M68.4729 51.2314H70.3612V51.3135L68.7192 51.3956L68.3908 51.4778L68.2266 51.3135L68.4729 51.2314Z" fill="#810404"/>
<path d="M58.2933 47.9475L58.5396 48.0296L58.3754 48.358L58.1291 48.6043H57.8828L58.047 48.1938L58.2933 47.9475Z" fill="#810404"/>
<path d="M20.0319 94.1707L20.1961 94.2528V94.6633L19.293 94.4991L19.3751 94.3349L20.0319 94.1707Z" fill="white"/>
<path d="M55.5825 91.2151L55.7467 91.2972L55.5825 91.7077L55.172 91.954L55.0078 91.8719L55.172 91.5435L55.3362 91.6256L55.4183 91.2972L55.5825 91.2151Z" fill="#181F2C"/>
<path d="M16.4221 64.1216H16.5042L16.5863 65.1068L16.1758 65.1889V64.7784H16.4221V64.1216Z" fill="#181F2C"/>
<path d="M86.8641 43.9246L86.9462 44.0888L86.8641 44.253H86.6999L86.6178 44.4993H86.4535V44.6635L85.9609 44.9919L86.2893 44.3351L86.5357 44.253L86.8641 43.9246Z" fill="#181F2C"/>
<path d="M85.0586 37.5205H85.7154L85.9617 37.6026V37.7668L86.1259 37.8489L85.9617 37.931L85.387 37.7668L85.0586 37.5205Z" fill="#181F2C"/>
<path d="M83.5781 97.8652H83.7423L83.8244 98.0294L84.0707 98.1115L84.1528 97.9473L84.317 98.3578L83.9065 98.4399L83.5781 98.1115V97.8652Z" fill="#181F2C"/>
<path d="M58.0469 93.1035L58.3754 93.2677L58.5396 93.1856L58.4575 93.5961H57.9648L58.0469 93.1035Z" fill="#181F2C"/>
<path d="M59.8516 91.2151L60.2621 91.2972L60.5084 91.5435V91.8719H60.3442L59.9337 91.4614L59.8516 91.2151Z" fill="white"/>
<path d="M57.5552 90.5583L57.6373 90.7226L57.1447 91.6257L56.9805 91.3794L57.2268 90.8868H57.391L57.5552 90.5583Z" fill="white"/>
<path d="M59.2773 75.3694L59.4415 75.4515L59.5236 76.4367H59.2773V75.3694Z" fill="#181F2C"/>
<path d="M40.3125 33.4155L40.8051 33.4976L41.544 33.826L41.4619 33.9902L40.9693 33.826L40.3125 33.4976V33.4155Z" fill="white"/>
<path d="M99.0984 39.9836L99.1805 40.2299L98.4415 41.051L98.2773 40.9689L99.0984 39.9836Z" fill="white"/>
<path d="M68.0632 34.9753V35.2216L67.4885 35.6322H67.2422L67.4064 35.3037L68.0632 34.9753Z" fill="#FB7504"/>
<path d="M20.6914 97.5369L20.9377 97.619L21.0198 98.2758L20.9377 98.44L21.184 98.5221L20.7735 98.44L20.6914 97.5369Z" fill="#181F2C"/>
<path d="M68.1446 98.6863H68.473V99.0968L68.1446 99.1789L68.0625 98.7684L68.1446 98.6863Z" fill="#181F2C"/>
<path d="M40.8048 96.1411L41.2153 96.2232L41.2974 96.4695L41.2153 96.5516H40.8048L40.7227 96.2232L40.8048 96.1411Z" fill="white"/>
<path d="M96.7974 42.6108L96.8795 42.8571L96.2227 43.514L96.1406 43.2677L96.7974 42.6108Z" fill="white"/>
<path d="M80.7896 48.5222H81.0359L80.9538 48.7685L80.2148 49.0969V48.9327L80.7896 48.5222Z" fill="#181F2C"/>
<path d="M69.1289 21.0181L69.2931 21.1002V21.2644L70.032 21.1823L69.7036 21.4286L69.1289 21.5928V21.0181Z" fill="#FB7504"/>
</svg>
