<svg width="276" height="100" viewBox="0 0 276 100" fill="none" xmlns="http://www.w3.org/2000/svg">
<path d="M140.697 0H143.459L148.255 0.726732L151.598 1.59881L155.523 3.05227L159.447 4.94178L161.482 6.10455L163.226 7.26732L165.115 8.72078L166.86 10.3196L168.022 11.4824L169.33 13.0812L170.784 15.116L172.673 18.6043L173.691 20.9299L174.708 23.9821L175.29 26.8891L175.435 28.1972L175.58 32.4122L175.435 35.4645L174.854 39.3889L174.127 42.4411L172.964 45.6388L171.365 48.5457L170.203 50.1445L168.749 52.034L167.296 53.6328L166.278 54.7956L164.534 56.3944L162.499 57.9932L160.319 59.4467L156.976 61.1908L153.488 62.4989L150.29 63.371L146.947 63.9524L144.186 64.2431H139.825L136.046 63.8071L132.558 63.0803L129.07 62.0629L125.145 60.1734L122.965 58.8653L121.221 57.5572L119.767 56.3944L118.023 54.7956L117.006 53.7782L115.116 51.3073L113.808 49.2724L111.773 45.0574L110.465 40.9877L109.593 37.354L109.157 34.3017L109.012 31.9762V29.6507L109.302 26.5984L109.884 23.6915L111.047 20.2031L112.936 16.2788L114.826 13.5172L116.57 11.4824L118.75 9.30217L120.639 7.8487L123.11 6.10455L125.872 4.50574L128.633 3.19762L132.267 1.8895L135.755 0.872078L138.662 0.290693L140.697 0Z" fill="#05A2DB"/>
<path d="M27.4705 3.92578H30.232L33.2843 4.21647L37.2087 4.94321L41.133 6.25132L44.0399 7.55944L46.6562 9.0129L48.691 10.4664L50.2898 11.7745L52.034 13.3733L53.3421 14.8268L55.0863 17.443L56.3944 19.7685L57.5572 22.2394L58.5746 25.2917L59.0106 27.3265L59.156 28.6347V34.3032L58.4292 38.0822L57.4118 41.8612L56.249 44.7681L55.0863 46.803L53.3421 49.2738L51.8886 50.8727L50.8712 52.0354L49.5631 53.3435L47.9643 54.6517L45.9294 56.1051L43.8946 57.2679L41.8597 58.14L38.8075 59.1574L35.3192 59.8841L32.5576 60.3202L31.1041 60.4655H26.8891L23.5461 60.0295L20.2031 59.3027L16.5695 57.9946L14.2439 56.8319L12.2091 55.6691L10.3196 54.2156L8.57543 52.6168L6.83128 50.582L4.94178 47.9657L3.34297 45.2041L2.03485 42.1519L1.01742 38.9543L0.290693 35.3206L0 33.1404V29.6521L0.581385 25.437L1.30812 22.6755L2.47089 19.9139L3.34297 18.3151L4.79643 16.1349L6.39524 14.1L8.86613 11.6291L10.901 10.0303L13.3719 8.28617L16.7148 6.54202L19.4764 5.52459L22.3833 4.65251L24.4182 4.21647L27.4705 3.92578Z" fill="#05A2DB"/>
<path d="M190.694 5.52344H193.31L194.764 5.95948L196.217 7.26759L197.671 8.8664L199.56 11.3373L201.305 13.3721L203.921 16.5698L205.52 18.4593L207.409 20.9302L209.444 23.401L210.897 25.2905L212.496 27.3254L214.386 29.7963L215.839 31.6858L217.583 33.866L218.891 35.4648L220.49 37.2089L221.798 38.081L221.944 24.8545V5.95948L222.089 5.81413H235.461L235.606 5.95948V17.5872L235.461 33.866L235.316 58.7202L235.17 58.8656H224.269L222.089 58.7202L221.072 57.7028L219.764 56.104L216.857 52.4703L214.822 49.7087L212.787 47.0925L210.897 44.767L209.589 43.0228L207.845 40.8426L206.392 38.9531L204.502 36.6276L202.467 33.866L200.868 31.8311L199.27 29.9416L198.252 28.9242L197.235 27.7614L196.072 26.744L195.2 26.308L195.345 31.8311V58.4295L195.2 58.5749L188.223 59.0109L184.444 59.1562H182.264L182.119 59.0109L181.973 54.2145L181.828 35.9008V29.9416L181.973 6.9769L182.264 6.10482L182.7 5.66878H182.991V5.95948H184.444L190.694 5.52344Z" fill="#05A2DB"/>
<path d="M106.541 5.37695H108.14L106.977 7.70249L105.669 10.028L103.634 13.2257L101.454 16.8593L99.8553 19.4755L97.5298 23.2546L96.2217 25.2894L94.4775 28.051L90.9892 33.8648L88.2276 38.5159L86.0474 42.0042L84.0126 45.4925L83.1405 47.2367L82.9952 47.8181H105.524L105.96 57.4109V58.8644L105.669 59.0098H86.1928L72.5302 58.8644L63.0827 58.7191L60.3211 58.5737L60.1758 58.283L62.6467 54.6494L65.8443 49.8529L67.4431 47.382L69.0419 44.7658L72.0942 39.6787L73.693 37.0625L76.1639 32.9928L77.472 30.9579L79.2162 28.1963L81.687 24.1266L83.5765 21.0744L85.1754 18.0221L85.466 17.15L84.1579 17.0047H64.3908V9.73734L64.5362 5.81299L64.6815 5.66765L72.9663 5.5223H102.908L106.541 5.37695Z" fill="#05A2DB"/>
<path d="M247.524 5.66992H274.994L275.14 7.70477V17.0069H259.006L258.861 17.2976V26.3091L259.006 26.4544H274.268L274.413 26.5998L274.558 29.216V37.7915H258.57L258.716 47.3843L258.861 47.675H274.994V58.7213L268.454 58.8667L254.065 59.012H245.489L245.344 58.8667V5.96061L245.489 5.81527L247.524 5.66992Z" fill="#05A2DB"/>
<path d="M140.697 0H143.459L148.255 0.726732L151.598 1.59881L155.523 3.05227L159.447 4.94178L161.482 6.10455L163.226 7.26732L165.115 8.72078L166.86 10.3196L168.022 11.4824L169.33 13.0812L170.784 15.116L172.673 18.6043L173.691 20.9299L174.708 23.9821L175.29 26.8891L175.435 28.1972L175.58 32.4122L175.435 35.4645L174.854 39.3889L174.127 42.4411L172.964 45.6388L171.365 48.5457L170.203 50.1445L168.749 52.034L167.296 53.6328L166.278 54.7956L164.534 56.3944L162.499 57.9932L160.319 59.4467L156.976 61.1908L153.488 62.4989L150.29 63.371L146.947 63.9524L144.186 64.2431H139.825L136.046 63.8071L132.558 63.0803L129.07 62.0629L125.145 60.1734L122.965 58.8653L121.221 57.5572L119.767 56.3944L118.023 54.7956L117.006 53.7782L115.116 51.3073L113.808 49.2724L111.773 45.0574L110.465 40.9877L109.593 37.354L109.157 34.3017L109.012 31.9762V29.6507L109.302 26.5984L109.884 23.6915L111.047 20.2031L112.936 16.2788L114.826 13.5172L116.57 11.4824L118.75 9.30217L120.639 7.8487L123.11 6.10455L125.872 4.50574L128.633 3.19762L132.267 1.8895L135.755 0.872078L138.662 0.290693L140.697 0ZM139.534 5.52316L136.337 5.9592L133.285 6.68593L130.523 7.8487L128.633 8.86613L126.017 10.6103L124.564 11.7731L123.11 13.0812L121.075 15.116L119.186 17.5869L117.151 20.6392L115.988 22.9647L114.971 25.7263L114.535 28.0518L114.39 29.36V33.7204L114.971 37.6447L115.843 40.697L116.715 42.8772L118.314 45.9295L119.622 47.6736L121.221 49.5631L122.82 51.3073L124.273 52.7607L126.163 54.2142L128.924 55.813L131.395 56.9758L134.302 57.9932L136.482 58.5746L139.68 59.0106H144.912L147.674 58.5746L151.308 57.5572L154.36 56.3944L156.831 55.2316L159.592 53.3421L161.046 52.1793L163.662 49.5631L164.679 48.255L166.569 45.2027L167.877 42.4411L169.04 38.8075L169.621 35.9006L169.766 34.4471V28.1972L169.185 24.7089L168.604 22.5287L167.296 19.6218L165.842 17.4416L164.389 15.5521L163.081 14.0986L162.063 13.0812L160.755 12.0637L158.284 10.1742L156.104 8.86613L153.633 7.55801L149.709 6.24989L145.93 5.66851L144.331 5.52316H139.534Z" fill="#05A2DB"/>
<path d="M139.965 15.1152H143.744L146.797 15.6966L149.413 16.5687L152.174 18.0222L154.064 19.3303L155.953 20.9291L157.262 22.2372L158.279 23.836L159.296 26.0162L160.023 28.7778V32.7021L159.587 35.6091L158.86 37.9346L157.552 40.6962L155.808 43.0217L154.064 44.7659L152.901 45.7833L150.43 47.6728L149.413 48.2542L148.105 48.8356L146.215 49.417L144.326 49.7077L142.582 49.853H140.983L138.512 49.5623L135.896 48.6902L133.57 47.5275L131.681 46.074L129.646 44.3298L128.628 43.3124L127.175 41.2776L125.721 38.2253L124.849 34.737L124.559 32.4114V30.8126L124.995 27.7604L125.721 25.5802L126.593 23.9814L127.902 22.2372L129.646 20.3477L131.681 18.6035L133.861 17.1501L136.186 16.1327L139.093 15.2606L139.965 15.1152Z" fill="#FDFDFE"/>
<path d="M28.0581 16.8594H31.401L33.5812 17.1501L35.9068 17.8768L38.2323 19.1849L39.6858 20.3477L41.1392 21.6558L42.5927 23.2546L43.9008 25.1441L44.7729 26.8883L45.3543 29.2138L45.4996 29.9405V33.1382L45.0636 35.3184L44.0462 38.0799L42.7381 40.4055L41.4299 42.1496L40.1218 43.6031L38.9591 44.7659L36.7789 46.3647L34.744 47.2368L32.4185 47.8181L30.8197 47.9635H28.2034L26.1686 47.6728L23.6977 46.9461L20.9361 45.4926L19.4826 44.3298L17.4478 42.295L16.4304 40.8415L15.2676 38.8067L14.5409 37.2079L13.8141 34.5916L13.5234 32.2661V30.2312L13.9595 27.7604L14.9769 25.4348L15.9943 23.836L17.5931 22.0918L18.9013 20.7837L21.0814 19.1849L23.1163 18.1675L25.7325 17.2954L28.0581 16.8594Z" fill="#FCFDFE"/>
<path d="M139.536 5.52344H144.332L148.111 5.95948L150.727 6.54086L153.634 7.55829L156.686 9.1571L158.867 10.6106L160.756 12.064L162.646 13.6628L164.099 15.1163L166.279 18.0232L167.587 20.2034L168.605 22.529L169.186 24.7092L169.768 28.1975V34.4474L169.332 37.645L168.314 41.1333L167.442 43.4588L165.989 46.2204L164.68 48.2553L163.372 49.8541L160.611 52.6157L158.14 54.3598L156.25 55.5226L152.907 56.976L149.419 58.1388L147.094 58.7202L144.913 59.0109H139.681L136.483 58.5749L133.722 57.8481L130.088 56.3947L127.326 54.9412L125.582 53.7784L123.693 52.1796L121.658 50.1448L120.35 48.546L118.896 46.8018L117.443 44.3309L116.28 41.86L115.408 39.3891L114.827 36.9183L114.391 33.7206V29.3602L114.827 26.4533L115.553 23.9824L116.571 21.8022L117.588 19.9127L119.332 17.4418L120.641 15.6977L122.239 13.9535L124.129 12.064L126.6 10.1745L129.361 8.43036L132.123 7.12225L134.303 6.39552L138.082 5.66878L139.536 5.52344ZM138.663 8.28502L135.321 8.8664L133.14 9.44779L129.797 10.9013L128.199 11.9187L126.454 13.2268L124.565 14.8256L122.821 16.5698L121.367 18.4593L119.914 21.0755L119.042 22.8197L117.734 26.5987L117.298 28.6335L117.007 31.6858V34.8834L117.443 37.645L118.315 40.2612L119.478 42.5868L120.931 45.0576L122.821 47.6739L125.001 49.9994L126.164 51.0168L128.78 52.761L131.396 54.2145L134.448 55.3772L136.919 56.104L139.39 56.54L141.28 56.6854H143.024L146.367 56.3947L149.71 55.6679L152.762 54.5052L155.233 53.197L157.268 51.7436L159.157 50.2901V49.9994L159.739 49.7087L162.064 47.3832L163.663 45.203L164.971 42.8775L166.134 40.4066L167.151 36.9183L167.442 35.3194L167.587 32.2672L167.297 28.1975L166.715 25.4359L165.698 22.3836L164.826 20.7848L163.372 18.75L162.21 17.2965L159.884 14.971L157.413 13.0814L155.814 12.064L153.343 10.6106L151.163 9.73848L149.274 9.1571L145.64 8.43036L143.896 8.28502H138.663Z" fill="#A9FDFF"/>
<path d="M261.769 83.4297H265.984L269.182 83.8657L270.926 84.5925L272.234 85.6099L273.251 86.6273L274.269 88.2261L274.85 89.6796L274.996 90.5517V91.7144L274.56 93.7493L273.687 95.4934L272.379 97.0922L270.635 98.4004L268.891 99.1271L267.583 99.4178H262.786L261.188 99.1271L260.752 98.255L260.461 96.6562V90.1156L260.752 86.0459L261.188 84.0111L261.769 83.4297Z" fill="#0D1014"/>
<path d="M66.5731 83.8633L67.7359 84.0086L68.4626 84.7354L69.6254 87.0609L70.7881 89.2411L71.9509 91.5666L73.259 93.6015V93.8922L73.9858 93.7468L74.8578 92.4387L76.4566 89.5318L77.6194 87.2062L78.4915 85.7528L79.2182 84.2993L79.7996 83.8633H80.6717L81.1077 84.2993V87.3516L82.7065 95.3456V98.5433L82.5612 99.4153H81.3984L80.5263 99.1246L80.0903 96.6538L79.3636 90.9853V90.4039L78.6368 91.1306L77.6194 92.4387L75.7299 95.7817L74.5671 98.5433L74.1311 98.9793L72.9683 98.834L71.8056 96.5084L69.9161 93.0201L68.1719 90.5492L68.0266 90.4039L67.7359 92.7294L67.4452 96.3631L67.0091 98.834L66.7184 99.27H65.4103L64.6836 98.9793V96.7991L65.1196 93.0201L65.9917 87.6423L66.2824 84.154L66.5731 83.8633Z" fill="#0D1114"/>
<path d="M52.1817 83.4297H55.9607L57.7048 83.8657L59.449 84.7378L60.6117 85.7552L61.3385 87.0633V88.8075L60.7571 89.9703L59.885 90.697L59.1583 91.4237L57.2688 92.5865L56.9781 93.1679L57.7048 94.1853L58.8676 95.2027L60.1757 96.6562L61.1931 98.6911L61.0478 99.2724L60.7571 99.4178H59.7397L58.4315 98.6911L57.2688 97.5283L55.2339 95.2027L54.0712 93.6039L53.1991 92.8772H52.9084L52.763 93.1679V95.6388L52.9084 96.6562V98.6911L52.6177 99.1271H51.1642L50.8735 97.9643L50.5828 95.9295V90.9877L50.4375 90.1156V87.354L50.7282 85.1738L51.3096 83.8657L51.6003 83.575L52.1817 83.4297Z" fill="#0D1014"/>
<path d="M5.08906 83.1387H6.97856L9.44945 83.7201L11.0483 84.5921L11.775 85.3189L12.211 85.9003L12.6471 87.3537V89.0979L11.9203 90.5513L10.1762 91.8595L8.72272 92.4408L7.70529 92.5862L4.79837 92.7315L4.65302 93.3129L4.50767 98.6907L4.21698 99.1268L3.19956 99.2721L2.03679 99.1268L1.74609 98.8361V86.3363L2.03679 84.7375L2.61817 83.8654L4.07164 83.284L5.08906 83.1387Z" fill="#0D1013"/>
<path d="M176.741 82.9941H179.066L180.811 83.4302L183.136 84.593L184.444 85.6104L184.88 86.1918L185.026 87.7906L184.735 88.372L183.863 88.2266L182.264 87.3545L180.665 86.3371L179.066 85.7557H177.032L175.578 86.1918L174.125 87.0638L172.962 88.0813L172.09 89.5347L171.799 90.8428L171.945 92.2963L172.671 94.0405L173.398 95.0579L174.997 96.2207L176.741 96.9474L177.322 97.0927H178.485L180.375 96.5114L181.828 95.7846L183.282 94.9125L184.154 94.6218H184.88L185.026 94.7672V95.7846L184.299 96.9474L183.282 97.9648L181.392 99.1276L179.793 99.709L178.34 99.9997L176.305 99.8543L174.706 99.2729L173.107 98.4009L171.363 96.802L170.346 95.6393L169.328 93.8951L168.602 91.7149L168.747 90.1161L169.474 88.2266L170.491 86.6278L172.526 84.593L174.851 83.4302L176.741 82.9941Z" fill="#0D1013"/>
<path d="M110.903 82.9941H113.373L115.554 83.5755L117.879 84.7383L118.897 85.9011L119.187 86.9185V88.372L119.042 88.6626L118.315 88.372L116.716 87.3545L114.827 86.1918L113.519 85.7557H111.048L109.594 86.3371L107.705 87.9359L106.542 89.5347L106.251 90.9882L106.397 92.2963L106.978 93.8951L107.996 95.2032L109.013 96.0753L110.176 96.6567L111.193 96.9474H113.083L115.408 96.2207L118.025 94.6218L118.606 94.3312H119.187L119.333 95.6393L118.606 97.0927L117.152 98.2555L114.827 99.4183L113.519 99.8543H110.757L109.013 99.1276L107.269 98.1102L105.525 96.5114L104.217 94.6218L103.49 93.1684L103.199 91.5696L103.345 89.6801L103.926 88.0813L104.943 86.4825L106.542 85.029L108.432 83.8662L110.321 83.1395L110.903 82.9941Z" fill="#0D1014"/>
<path d="M17.0088 83.5762H18.1716L18.753 83.8669L19.0436 84.4482V89.2447H24.4215L25.7296 89.0993L25.5842 85.0296L25.4389 84.0122L26.4563 83.5762H27.7644L28.3458 83.8669L28.4912 84.4482V96.8027L28.3458 98.8375L28.0551 99.2736H26.6017L25.7296 98.8375V92.1516H19.0436L18.8983 97.8201L18.6076 99.1282L18.0262 99.2736H17.0088L16.4274 98.9829L16.2821 98.2562V85.9017L16.1367 84.0122L17.0088 83.5762Z" fill="#0D1318"/>
<path d="M39.2455 83.8633H40.1176L40.8443 84.7354L42.0071 87.4969L43.3152 89.8225L45.6407 94.6189L47.2396 97.9619L47.3849 99.1246L46.5128 99.5607L45.0594 99.27L44.1873 98.2526L43.0245 95.927L42.0071 94.4736L41.7164 94.3282H38.3734L37.0653 94.0375L36.3386 94.7643L35.4665 96.0724L34.3037 98.5433L33.577 99.27H32.1235L31.6875 99.1246L31.8328 97.9619L32.5596 95.927L34.7398 91.712L36.0479 88.8051L37.6467 85.7528L38.2281 84.59L38.9548 84.0086L39.2455 83.8633Z" fill="#0D1013"/>
<path d="M195.203 83.8633L196.22 84.0086L196.947 84.7354L198.4 87.7876L199.563 90.1132L200.871 92.8748L202.034 95.3456L202.906 97.0898L203.342 98.2526V99.27L202.179 99.5607L201.307 99.1246L200.435 98.1072L199.708 96.6538L198.255 94.3282L197.964 94.1829L196.511 94.3282H194.476L192.877 94.1829L191.86 95.927L190.987 97.3805L190.115 98.9793L189.679 99.27H188.517L187.645 98.834L187.79 97.8165L189.389 94.4736L190.551 92.148L192.441 88.5144L193.749 86.1888L194.33 84.4447L195.203 83.8633Z" fill="#0D1013"/>
<path d="M92.5868 83.7188L93.3135 83.8641L94.331 84.4455L96.0751 88.0791L97.3832 90.2593L98.6914 93.1663L100.436 96.7999L101.162 98.5441L101.017 99.2708L100.581 99.4162H99.2727L98.4007 98.8348L96.6565 95.4918L96.0751 94.6197L95.3484 94.329H91.1334L90.1159 94.9104L89.0985 96.5092L87.9357 98.6894L87.3543 99.2708L86.1916 99.4162L85.4648 99.2708L85.6102 98.108L86.3369 96.2185L87.4997 93.7476L88.9532 90.9861L91.7147 85.4629L92.5868 83.7188Z" fill="#0D1014"/>
<path d="M128.05 83.2812H130.52L132.701 83.4266L133.137 83.5719V86.3335L131.683 86.0428H126.741L126.16 86.1882L126.015 87.0603V89.3858H132.555L132.846 89.6765L132.991 90.2579V91.7113L132.846 92.1474L126.015 92.2927L125.724 93.1648V94.6183L126.015 96.0717L126.16 96.2171H130.811L132.991 95.9264L133.137 96.0717V99.124L132.991 99.2693H125.433L123.98 98.9787L123.689 98.8333L123.398 97.3798V86.0428L123.689 84.008L123.98 83.7173L126.015 83.4266L128.05 83.2812Z" fill="#0D1013"/>
<path d="M136.921 83.7188H139.247L139.537 84.4455L139.392 86.771L139.247 92.2942L139.537 94.329L140.41 96.0732L141.282 96.6546L141.718 96.7999H142.88L144.334 96.0732L144.915 94.9104L145.206 93.0209V85.8989L144.915 84.1548L145.933 83.7188H147.532L148.258 84.1548V89.5326L148.113 94.1837L147.677 95.7825L146.95 97.0906L145.497 98.6894L143.753 99.5615L143.026 99.7068H141.718L140.41 99.4162L138.956 98.5441L137.939 97.5267L137.067 96.0732L136.485 93.7476L136.34 90.8407L136.485 84.0094L136.921 83.7188Z" fill="#0D1014"/>
<path d="M221.221 83.2812H222.965L224.418 83.8626L225.145 84.444L226.017 85.8975V88.223L224.709 87.3509L223.255 86.3335L222.674 86.0428L221.657 85.8975L220.93 86.1882L220.639 86.6242V87.4963L221.221 88.3684L223.401 90.2579L224.854 91.566L225.872 92.5834L226.598 94.3276L226.744 95.4903L226.308 96.7985L225.29 98.1066L223.401 99.4147L222.238 99.8507H220.639L219.476 99.2693L217.878 97.8159L217.006 96.3624L216.715 94.4729L217.442 94.6183L219.476 95.6357L221.075 96.6531L221.657 96.7985L223.11 96.2171L223.691 95.345V94.4729L223.11 93.6008L221.221 92.1474L219.476 90.5486L218.459 89.3858L217.732 87.9323V86.1882L218.314 85.0254L219.622 83.8626L221.221 83.2812Z" fill="#0D1013"/>
<path d="M264.245 85.9023L267.442 86.193L269.187 86.7744L270.785 87.9372L271.657 89.2453L272.094 90.5534V91.8615L271.512 93.751L270.495 95.0592L268.896 96.0766L267.733 96.5126L266.861 96.658H264.535L263.518 96.3673L263.082 95.4952V91.5709L263.227 87.7918L263.518 86.3384L264.245 85.9023Z" fill="#FEFEFE"/>
<path d="M14.2439 7.84961L14.9707 7.99496L15.5521 7.84961L15.9881 8.1403V8.72169L14.9707 9.15773L14.3893 10.1752L13.9533 10.6112V10.3205H13.5172V10.6112H13.2265L13.3719 10.9019L14.2439 10.7565L13.5172 11.4833H13.0812V11.774H12.6451V12.0647L11.9184 12.3553V12.646L10.3196 13.8088L9.88355 13.9542V14.2448L8.72078 15.2623L7.55801 16.425L6.54059 17.2971L6.24989 17.7332H5.9592L5.66851 18.3145L4.21504 20.3494L2.61623 23.4017L2.03485 25.0005H1.74416L1.59881 26.3086L1.16277 29.5062V33.2852L1.45346 35.6108L1.74416 36.7735L2.32554 38.9537L2.1802 39.5351L2.47089 39.6805L2.61623 40.6979L2.90693 40.8432L3.05227 41.8607L3.77901 43.7502L4.94178 46.0757L5.81385 47.5292V47.8199H6.10455L6.24989 48.5466H6.54059L7.41266 50.0001L7.70336 50.1454L7.99405 50.7268H8.28474L8.57543 51.3082V51.5989L9.44751 52.3256L10.0289 52.907V53.1977L10.6103 53.4884L11.4824 54.2151V54.5058L12.0637 54.6511V54.9418L12.6451 55.0872V55.3779L13.2265 55.5232L13.9533 55.9593L14.0986 56.5406L13.2265 56.2499L11.6277 55.2325L10.1742 54.0698L8.72078 52.7616L6.83128 50.5814L4.94178 47.9652L3.34297 45.2036L2.03485 42.1513L1.01742 38.9537L0.290693 35.3201L0 33.1399V29.6516L0.581385 25.4365L1.30812 22.6749L2.47089 19.9134L3.34297 18.3145L4.79643 16.1344L6.39524 14.0995L8.86613 11.6286L10.901 10.0298L13.3719 8.28565L14.2439 7.84961Z" fill="#028BCC"/>
<path d="M152.033 83.2812L156.103 83.4266H160.318L160.463 83.5719V84.5894L160.027 85.6068L159.155 86.0428L157.411 86.1882L157.12 87.4963V96.7985L156.975 98.688L156.539 99.2693L155.231 99.4147L154.359 99.124L154.213 98.9787L154.068 96.7985L153.923 89.8218L153.777 86.3335L151.306 85.7521L151.016 85.3161V84.008L151.452 83.4266L152.033 83.2812Z" fill="#0D1216"/>
<path d="M249.849 83.4297H257.116L257.843 83.575L257.988 84.3018L257.552 85.7552L256.535 86.0459L254.791 86.1913L254.645 86.3366L254.5 96.0748L254.355 99.1271L254.209 99.2724H251.884L251.738 99.1271L251.593 95.2027V86.1913L249.267 85.9006L248.686 85.6099L248.25 84.4471L248.395 83.7204L249.849 83.4297Z" fill="#0D1318"/>
<path d="M131.535 2.61719L132.117 2.76253L131.681 3.34392H132.989L133.425 3.63461L134.152 3.48927H134.588L135.314 3.05323L136.186 3.34392V3.63461H135.75V3.9253L134.588 4.50669L134.006 4.216H133.716L133.279 4.50669L133.134 4.07065L132.553 4.216L131.971 4.07065L131.099 4.50669L129.355 4.94273L128.338 5.66946H127.902V5.96015L126.884 6.25085V6.54154L125.285 7.41362L123.251 8.57639L120.925 10.4659L119.908 11.4833L118.745 12.5007L117.437 14.0995L115.838 16.2797L114.53 18.1692H114.239L113.658 19.332L112.931 20.0587L112.35 20.9308L112.204 21.3669L111.623 21.5122L111.332 22.2389L110.751 22.3843L110.605 22.2389L110.751 20.9308L112.059 18.0239L113.222 15.8437L114.821 13.5182L116.565 11.4833L118.745 9.30312L120.634 7.84966L123.105 6.1055L125.867 4.50669L127.175 4.07065H128.047V3.77996L130.227 3.34392L131.099 2.76253L131.535 2.61719Z" fill="#028BCC"/>
<path d="M85.3226 19.043L85.468 19.6244L85.3226 21.0778L84.7413 22.5313L84.3052 23.6941L83.4331 25.1475L81.8343 27.7638L80.0902 29.9439L78.6367 32.1241L77.6193 33.723L76.3112 35.4671H76.0205L75.7298 36.3392L74.2763 38.9554H73.9856L73.8403 39.6822L73.4042 39.8275L73.2589 40.6996H72.9682L72.6775 41.4263L72.3868 42.0077H72.0961L71.8054 42.8798L71.224 43.7519L71.0787 44.1879H70.788L70.6427 45.06H70.352L70.0613 45.932L69.3345 47.2402L68.8985 47.8215H68.6078L68.4625 48.5483H68.1718L67.8811 49.4204L65.8462 52.4726H65.5555L65.2648 53.1994L64.5381 54.2168L63.9567 54.7982H63.666V55.0889L62.5033 55.9609L61.9219 56.2516L62.0672 55.5249L65.2648 50.7285L67.445 47.3855L69.0438 44.7693L72.0961 39.6822L73.6949 37.0659L76.1658 32.9962L77.4739 30.9614L79.2181 28.1998L81.689 24.1301L82.7064 22.9673L83.5785 21.5139L84.3052 20.7871L84.8866 19.915L85.0319 19.479H85.3226V19.043Z" fill="#028BCD"/>
<path d="M239.099 83.7188H240.989V85.1722L240.844 85.8989V95.4918L240.989 96.6546H243.314L245.349 96.3639H246.221L246.512 97.0906V98.6894L246.221 99.2708H239.39L238.373 98.8348L238.082 97.3813V84.0094L239.099 83.7188Z" fill="#0D1115"/>
<path d="M207.849 83.5762H208.721L209.302 84.1576L209.157 85.3203V95.4946L209.448 96.3667L210.029 96.6573H214.244L214.825 97.8201V98.6922L214.099 99.2736L207.413 99.4189L206.977 99.2736L206.686 97.3841L206.395 94.4771L206.25 84.4483L206.831 83.8669L207.849 83.5762Z" fill="#0D1216"/>
<path d="M163.947 83.5762H165.691L165.837 83.7215V86.7738L165.691 92.1516V94.7678L165.837 99.2736L165.546 99.4189H164.092L163.366 98.9829L163.075 96.8027L162.93 94.9132V89.0993L163.22 83.8669L163.947 83.5762Z" fill="#0D1319"/>
<path d="M55.6693 45.0566L55.8147 45.4927L54.7973 47.2368L53.3438 49.2717L51.8903 50.8705L50.8729 52.0333L49.5648 53.3414L47.966 54.6495L45.9311 56.103L43.8963 57.2657L41.8614 58.1378L38.8092 59.1552L35.3209 59.882L31.5418 60.1727H29.6523L29.7977 59.7366L32.9953 59.1552L36.4836 58.2832L40.2626 56.8297L40.844 56.6843L41.4254 56.3937L41.7161 56.539V56.103L44.0416 54.9402L45.3498 54.2135H45.6404V54.5042L46.2218 54.0681H46.6579L46.8032 53.3414L47.2393 53.196L47.966 52.6147L48.5474 52.1786H48.8381V51.8879L50.1462 50.8705L50.4369 50.7251L51.309 49.7077L52.0357 48.8356L52.7624 48.2543L53.1985 47.6729H53.4891L54.2159 46.8008L54.5066 46.5101H54.9426L55.088 45.638L55.3786 45.202L55.6693 45.3473V45.0566Z" fill="#028CCD"/>
<path d="M246.36 20.9297H246.506V34.4469L246.796 40.8421L246.942 44.4758L246.796 50.2897L246.506 52.3245V57.7023L247.668 58.5744L247.523 58.8651L245.488 59.0104V39.098L245.634 27.9063L245.924 26.0168V24.7087L246.215 23.2552L246.36 20.9297Z" fill="#028ACC"/>
<path d="M200.727 31.252L201.453 31.9787L202.616 33.2868L204.215 35.467L205.378 36.9205L207.122 39.246L208.43 40.6995L209.447 42.0076L210.319 42.7343L210.61 43.461H210.901L212.645 45.7866L213.662 47.0947L214.389 47.8214L215.407 48.6935L216.569 50.147V50.4377H216.86L218.023 51.8911L219.767 54.2167L221.511 56.2515L222.092 57.1236V57.5596H222.383L223.11 58.5771H221.947L220.348 56.8329L218.75 54.7981L217.296 53.0539L215.261 50.2923L213.808 48.4028L212.209 46.368L210.319 44.0424L209.157 42.4436L207.267 40.1181L205.814 38.2286L204.07 36.0484L202.035 33.2868L200.727 31.688V31.252Z" fill="#028BCC"/>
<path d="M53.6346 85.7539H55.3788L56.6869 86.0446L57.8497 86.7713L58.2857 87.3527V88.8062L57.4136 89.5329L55.6695 90.1143H54.652L53.1986 89.5329L52.7625 88.9515L52.6172 87.4981L53.0532 86.1899L53.6346 85.7539Z" fill="#FEFEFE"/>
<path d="M168.169 49.418L168.46 49.5633V49.854H168.896L168.605 51.3075L168.024 52.0342L167.733 52.9063L167.297 53.633L166.134 54.5051L164.681 55.6679L164.245 56.2492H163.954V56.5399L162.646 57.2667L161.483 57.412V57.1213L160.756 57.412L160.32 57.1213H160.611L160.756 56.5399L161.628 55.5225H161.919L162.064 55.0865L163.227 54.0691L164.826 52.7609L165.407 52.4702L165.698 51.8889L166.716 50.7261H167.006L167.297 49.9994H167.588L167.733 49.7087H168.169V49.418Z" fill="#028ACC"/>
<path d="M6.25197 85.6074L7.99612 85.8981L9.1589 86.6248L9.74028 87.4969L9.59493 88.805L8.8682 89.5318L7.26939 89.9678H5.52524L4.65316 89.2411L4.50781 88.5143V87.2062L4.94385 86.1888L5.52524 85.7528L6.25197 85.6074Z" fill="#FEFEFE"/>
<path d="M273.837 47.6738H274.854V58.5748H272.238L270.639 58.4295L270.785 57.9934L272.965 57.412L273.401 56.8306L273.837 54.0691L273.982 51.8889L273.837 50.4354L273.401 49.2726L273.11 49.1273V48.8366L270.639 48.4006L269.913 48.2552V48.1099H271.802L269.477 47.9645V47.8192L273.837 47.6738Z" fill="#028ACC"/>
<path d="M266.57 5.66992H275L275.146 7.70477V17.0069H273.838L273.111 16.8616L273.547 15.5535L273.838 13.2279L274.128 11.6291H274.274L274.419 10.0303V8.7222L273.838 7.26873L273.692 6.83269L272.966 6.542L272.53 6.39665V6.10596L272.093 6.25131L271.948 6.10596L266.57 5.81527V5.66992Z" fill="#028CCD"/>
<path d="M141.136 3.92578L144.189 4.21647L146.66 4.36182L147.968 4.50717L150.439 4.94321L152.037 5.52459L151.747 6.39667L150.293 6.10598L147.968 5.66994L145.206 5.37924L144.625 5.2339H139.538L137.939 5.37924L137.212 5.2339V4.94321H136.631V4.50717H135.759L135.613 4.21647L136.195 4.07113H136.631L137.212 4.36182L138.52 4.07113H139.974L141.136 3.92578Z" fill="#028ACC"/>
<path d="M64.6813 5.66992H67.0069L66.7162 5.96061H65.8441L65.5534 6.542L65.2627 7.70477L65.408 8.4315V9.73962L65.5534 11.0477V14.9721L65.408 15.5535H65.6987V15.2628H65.9894V16.4256L65.6987 16.8616H64.3906V9.73962L64.536 5.81527L64.6813 5.66992Z" fill="#028BCD"/>
<path d="M106.546 5.37695H108.144L106.982 7.70249L105.674 10.028L104.365 12.0629H104.075L104.511 10.4641L105.092 9.15596L104.947 7.26646L104.365 6.24903L103.929 5.95834L101.895 5.81299V5.66765L102.912 5.5223L106.546 5.37695Z" fill="#028CCD"/>
<path d="M111.195 42.2969L111.631 42.5876L111.922 42.4422L112.067 43.4596H112.358L112.939 45.3491L113.521 46.5119V46.8026L113.812 46.948L114.102 47.82L114.393 48.8375H114.684L115.265 50.1456L116.282 52.0351L116.573 52.7618H116.864L117.736 53.7792L119.771 55.8141V56.1048H120.061V56.3955L119.48 56.1048L118.317 55.0874L117.009 53.7792L115.12 51.3083L113.812 49.2735L111.777 45.0585L111.195 43.3143V42.2969Z" fill="#028DCE"/>
<path d="M162.935 12.791L163.517 12.9364L163.953 13.2271V13.5177L164.534 13.8084L166.278 15.8433L167.15 17.0061L167.732 18.1688V19.913H167.296L165.842 17.5874L164.243 15.5526L163.081 14.2445L162.645 13.5177V13.0817H162.935V12.791Z" fill="#028DCE"/>
<path d="M182.706 5.66992H182.997V5.96061H184.451L188.084 5.66992H191.282L190.846 5.96061L189.683 6.25131L189.392 6.39665L187.648 6.68735L185.323 6.97804L183.724 6.83269L183.142 7.12339L182.852 7.70477L182.561 9.88497L182.416 10.1757H182.125V6.25131L182.706 5.66992Z" fill="#028BCD"/>
<path d="M116.427 31.1035H116.718L116.863 36.4813L115.991 36.6267L115.846 37.9348L115.41 38.3708L114.973 36.6267L114.828 34.4465L115.41 33.8651H115.846L116.136 32.8477L116.282 31.3942L116.427 31.1035Z" fill="#FEFEFE"/>
<path d="M156.098 20.2051H156.389L156.535 21.2225L157.116 21.3678V21.6585L157.988 21.8039L158.86 22.9667L160.023 24.8562L160.314 25.8736L160.459 26.7457V27.6177L160.023 28.1991L159.877 27.4724H159.587L158.86 25.2922L157.552 22.8213L156.098 21.2225L155.953 20.3504L156.098 20.2051Z" fill="#028BCD"/>
<path d="M195.203 88.6621L195.784 88.8075L196.656 89.8249L197.237 90.9877V91.4237L196.656 91.569H193.895L194.04 90.5516L194.621 89.3888L195.203 88.6621Z" fill="#FEFEFE"/>
<path d="M93.0238 88.8086L93.7505 89.0993L94.3319 89.826L94.9133 91.1341V91.4248L93.0238 91.7155H91.5703L92.0064 90.2621L93.0238 88.8086Z" fill="#FEFEFE"/>
<path d="M139.97 15.1152H143.749L146.802 15.6966L149.418 16.5687L152.179 18.0222L154.069 19.3303L155.813 20.7837H155.377L152.615 18.7489L150.581 17.5861L148.4 16.5687L146.075 15.842L144.331 15.5513H139.825L136.773 16.278L134.302 17.2954L133.43 17.5861L133.866 17.1501L136.191 16.1327L139.098 15.2606L139.97 15.1152Z" fill="#A9FDFF"/>
<path d="M221.947 6.25195H222.093V24.8563L221.947 36.92L221.802 38.0828L221.075 37.7921L220.203 37.0654H220.639L221.511 37.5014L221.657 33.4317L221.802 24.2749L221.947 6.25195Z" fill="#A9FDFF"/>
<path d="M38.9518 88.8086L39.5332 88.9539L40.4053 90.1167L40.9867 91.1341V91.4248L39.6786 91.5702H38.3704L37.7891 91.4248L37.9344 90.2621L38.8065 88.9539L38.9518 88.8086Z" fill="#FEFEFE"/>
<path d="M222.09 5.81445H235.462V6.10515L234.59 6.25049H222.962L222.09 6.39584V5.81445Z" fill="#028ACC"/>
<path d="M154.066 17.0039L154.793 17.1493L155.956 18.0213L156.392 18.312V18.6027H156.683L157.119 19.6201L156.973 20.0562L157.264 20.3469L156.683 20.2015L155.811 19.6201L154.066 17.2946V17.0039Z" fill="#028ACC"/>
<path d="M200.727 31.252L201.453 31.9787L202.616 33.2868L204.215 35.467L205.378 36.9205L206.831 38.81V39.1007L206.25 38.81L204.651 36.7751L202.325 33.7228L200.872 31.8333L200.727 31.252Z" fill="#028FCF"/>
<path d="M245.786 5.81445H248.984V5.9598L246.803 6.25049L246.222 6.54118L245.786 7.8493H245.641V5.9598L245.786 5.81445Z" fill="#028ACC"/>
<path d="M194.473 7.41406H195.2L195.927 8.14079L195.782 8.72218L195.055 8.86753L194.473 8.57683L194.328 7.70476L194.473 7.41406Z" fill="#028ACC"/>
<path d="M45.4938 34.5918L46.0752 34.7371L46.2205 35.1732L45.7845 36.772L45.3485 36.6266L45.2031 35.1732L45.4938 34.5918Z" fill="#028ACC"/>
<path d="M273.977 36.3359L274.413 36.4813V37.6441H273.541L273.25 37.4987L273.541 36.9173L273.977 36.3359Z" fill="#028ACC"/>
<path d="M222.09 5.81445H224.997L224.706 6.10515L222.962 6.25049L222.09 6.39584V5.81445Z" fill="#0395D3"/>
<path d="M182.118 6.68555H182.263V8.13901L182.118 10.1739H182.409L182.263 11.1913L181.973 11.3366V6.97624L182.118 6.68555Z" fill="#06A3DC"/>
<path d="M182.997 9.1582H183.142V10.0303L182.706 11.1931H182.416V11.4837H182.125L182.27 10.4663L182.997 9.1582Z" fill="#028ACC"/>
<path d="M117.877 10.1738V10.6099L117.005 11.6273V12.0633L116.133 12.4994V11.918L117.877 10.1738Z" fill="#05A1DB"/>
<path d="M213.367 29.0684L214.53 29.9404L214.675 30.5218L213.949 30.3765L213.367 29.5044V29.0684Z" fill="#028ECE"/>
<path d="M43.4609 24.2754L44.1877 24.7114L44.6237 26.0195L44.1877 25.8742L43.4609 24.7114V24.2754Z" fill="#028FCF"/>
<path d="M55.672 45.0566L55.8174 45.4927L55.0907 46.8008H54.9453V46.0741L55.236 45.202L55.672 45.3473V45.0566Z" fill="#0393D2"/>
<path d="M34.7383 15.5547L36.0464 15.7L36.6278 16.1361L36.0464 16.2814L34.7383 15.7V15.5547Z" fill="#028ACC"/>
<path d="M182.706 5.66992H182.997V5.96061H184.015V6.10596L182.706 6.39665L182.125 6.542L182.416 5.96061L182.706 5.66992Z" fill="#06A3DC"/>
<path d="M119.473 8.7207L119.764 8.86605L119.909 9.15674L119.182 9.44743L118.31 10.1742L118.02 10.0288L119.473 8.7207Z" fill="#06A3DC"/>
</svg>
