<svg width="300" height="79" viewBox="0 0 300 79" fill="none" xmlns="http://www.w3.org/2000/svg">
<path d="M30.1522 0.376953H44.4738L47.112 3.392L50.5039 9.42211L53.1421 13.9447L52.7652 16.206L48.9964 22.2361L42.5894 33.1656L40.3281 35.8038L36.9361 36.5576L34.2979 35.8038L32.4135 33.9194L29.0216 28.2662V26.0049L33.5442 18.4673L34.6748 18.8441L36.5592 22.613L37.6899 22.9898L38.4437 21.1054L42.2125 15.0753L41.4587 12.814L37.313 6.40706H36.5592L34.6748 10.1759L30.5291 16.9597L24.8758 26.7587L20.7301 33.5425L18.4688 36.1807L8.29297 36.5576L9.04674 34.6732L14.7 24.8742L20.7301 14.6984L27.1371 4.14577L29.3985 0.753835L30.1522 0.376953Z" fill="#030506"/>
<path d="M71.9832 0H79.8978L81.7822 3.01505L88.943 17.7134L93.8424 28.2661L97.2344 35.4269L96.8575 36.1806L88.5661 35.8037L87.4354 33.9193L85.1741 28.643L84.7972 28.2661H67.0837L63.6918 35.4269L62.938 36.1806H58.7923L55.0234 35.8037L56.1541 32.4118L62.938 18.0903L69.345 4.89946L71.6063 0.376881L71.9832 0Z" fill="#0660A9"/>
<path d="M275.124 0H283.038L284.546 1.50753L289.069 11.6833L292.084 17.7134L296.983 28.2661L299.621 33.1656L299.998 33.5424V36.1806H292.084L290.953 34.6731L288.315 28.643L287.938 28.2661H270.224L266.832 35.8037L266.456 36.1806H258.164L258.541 33.9193L265.325 19.9747L269.471 11.3064L273.993 1.88441L275.124 0Z" fill="#0660A9"/>
<path d="M103.643 0H111.557L111.934 22.9898L112.688 26.3817L113.441 28.2661L115.326 29.0199L116.457 29.3968H119.472L122.864 27.8892L124.748 24.1204L125.125 0.753763L125.879 0H133.416V24.8742L132.286 29.3968L130.401 32.4118L127.386 35.05L123.617 36.5575L121.356 36.9344H116.08L110.803 35.8037L107.411 33.5424L104.773 30.1505L103.643 26.0048L103.266 23.3666V0.376881L103.643 0Z" fill="#0660A9"/>
<path d="M140.201 0H149.623L153.392 4.1457L156.784 8.29139L159.045 10.9296L160.553 9.42204L164.322 4.52258L168.09 0H177.513L176.759 1.50753L172.613 6.78387L168.844 11.3064L164.322 16.9597L165.075 18.8441L170.352 25.2511L174.121 30.1505L178.266 35.4269V36.1806H169.975L166.96 33.5424L162.814 28.643L159.799 24.8742L158.292 24.1204L157.538 25.6279L149.246 35.4269L148.116 36.1806L139.824 35.8037L140.578 33.9193L144.724 29.0199L153.015 18.4672L153.392 16.5828L150.377 13.1909L147.739 9.79892L143.593 4.52258L140.201 0.753763V0Z" fill="#0660A9"/>
<path d="M202.765 0H210.303L210.68 0.376881L211.057 28.2661L225.002 28.643V35.8037H202.389L202.012 32.0349V0.376881L202.765 0Z" fill="#0660A9"/>
<path d="M232.158 0H240.073L240.45 3.39193V28.643H254.771V35.05L254.394 35.8037H231.781V0.376881L232.158 0Z" fill="#0660A9"/>
<path d="M184.297 0H192.588L192.965 3.39193V35.8037L184.674 36.1806L184.297 35.8037V0Z" fill="#0660A9"/>
<path d="M8.29144 0.376953H22.2361L24.1206 1.13072L23.7437 3.01512L20.7286 8.29146L19.2211 10.5528L17.7135 9.79899L15.8291 6.03017L15.0753 6.40706L12.814 10.9296L10.1759 14.3216L9.04521 14.6984H0L0.376884 12.814L3.39195 7.91458L6.40702 2.63824L8.29144 0.376953Z" fill="#040609"/>
<path d="M54.6484 41.457H63.3168L66.3318 42.9646L67.4625 44.849L67.8394 47.4871L67.0856 50.8791L65.2012 52.3866L63.3168 53.1404L57.6635 53.5172L57.2866 61.0549L55.4022 61.4317L54.6484 61.0549V41.457Z" fill="#292D33"/>
<path d="M123.24 45.9785H125.125L125.878 47.486L128.893 45.9785H131.532L132.662 47.1092L134.17 46.7323L134.924 45.9785H139.446L141.331 47.1092L142.084 48.6167L142.461 50.878V61.0538L142.084 61.4307H140.2L139.823 61.0538L139.446 49.7473L139.069 48.9936H135.3L134.547 49.3704L134.17 50.5011L133.793 61.0538L131.908 61.4307L131.532 61.0538L131.155 50.878L130.401 48.9936H127.386L126.255 49.7473L125.878 61.0538L123.994 61.4307L122.863 61.0538V47.1092L123.24 45.9785Z" fill="#252D37"/>
<path d="M96.1046 45.9785H99.1197L101.004 47.1092L102.512 49.3704L102.889 52.3855V59.9231L102.512 61.0538H94.5971L92.3358 59.1694L91.582 56.9081L91.9589 53.5161L93.4664 51.6317L94.5971 51.2549H100.25L99.8735 49.3704L98.3659 48.6167L93.8433 48.9936L93.4664 47.1092L96.1046 45.9785Z" fill="#252F3B"/>
<path d="M188.441 45.6016H191.833L194.094 47.1091L195.601 49.3704L195.978 50.501V55.0236L186.556 55.4005L187.687 57.6618L189.194 58.4155H191.833L194.094 58.0387L194.471 59.5462L193.34 60.6768L190.325 61.4306L186.933 60.6768L185.049 58.7924L183.918 55.7774V52.0085L185.426 48.2397L187.31 46.3553L188.441 45.6016Z" fill="#222B35"/>
<path d="M153.394 45.9785H156.786L158.67 47.1092L159.801 48.2398L160.555 51.6317V60.6769L159.801 61.4307L158.293 61.0538V59.9231L155.655 61.0538H152.263L150.379 59.5462L149.625 58.0387V53.5161L151.509 51.6317L152.64 51.2549H157.916L157.163 49.3704L156.032 48.6167L151.886 48.9936L151.133 48.6167L151.509 47.1092L153.394 45.9785Z" fill="#22282F"/>
<path d="M266.079 45.9785H269.094L271.356 47.1092L272.486 48.2398L272.863 49.3704V61.0538H264.949L263.818 60.6769L262.31 58.4156L261.934 54.2699L263.064 52.3855L264.949 51.2549L267.587 50.878L270.602 51.2549L269.848 48.9936L269.094 48.6167H266.079L264.572 48.9936L263.818 48.6167L264.195 46.7323L266.079 45.9785Z" fill="#242B33"/>
<path d="M293.593 45.9785H296.985L299.623 47.1092L300 47.486V58.7925H299.246L298.869 59.9231L296.231 61.0538H292.462L290.578 60.3L290.201 58.4156L290.578 58.0387L295.854 58.4156L297.362 57.6618L297.739 56.1543L295.854 54.6468L292.462 53.5161L290.578 52.0086L289.824 49.7473L290.955 47.486L292.462 46.3554L293.593 45.9785Z" fill="#252C34"/>
<path d="M75.3767 41.457H76.8843L77.2612 47.4871L78.7687 46.3565L82.1606 45.9796L84.0451 47.1103L85.1757 49.3715L85.5526 61.0549H82.5375V55.0248L82.1606 49.7484L81.03 48.6178L78.7687 48.9947L77.2612 50.1253L76.8843 61.0549L74.9999 61.4317L74.2461 61.0549V42.9646L75.3767 41.457Z" fill="#262E38"/>
<path d="M203.141 45.9785H205.779L206.156 56.9081L206.533 58.0387H209.171L211.055 57.285L211.432 46.3554L211.809 45.9785H213.693L214.07 46.3554V61.0538L212.94 61.4307L211.432 60.3L208.794 61.0538H205.779L203.894 59.5462L203.141 56.9081V45.9785Z" fill="#272E37"/>
<path d="M75.376 9.42188L76.8836 10.1756L80.6524 18.0901L81.4062 19.5977V20.7283L71.2303 21.1052L70.4766 20.7283L71.2303 18.467L74.2454 12.06L75.376 9.42188Z" fill="#FEFEFE"/>
<path d="M278.894 9.42188L280.024 9.79876L283.039 16.5826L284.547 19.5977V20.7283H273.617L275.125 16.9595L278.894 9.42188Z" fill="#FEFEFE"/>
<path d="M224.247 42.2109L225.755 42.5878L225.378 44.4722L225.001 45.6029L228.393 46.3566V48.241L228.016 48.6179H225.378V58.4168H228.77L228.393 60.6781L226.509 61.4319L223.871 60.6781L223.117 59.9244L222.74 58.4168V48.6179L220.855 48.241V46.7335L222.74 45.6029V42.9647L224.247 42.2109Z" fill="#252C34"/>
<path d="M171.482 45.9785H175.25L176.758 46.7323L177.135 48.6167L175.25 48.9936L172.612 48.6167L170.728 50.1242L170.351 50.878V56.1543L171.482 58.0387L174.12 58.4156L176.381 58.0387L177.512 58.7925L177.135 60.3L174.12 61.4307L170.728 61.0538L168.843 59.5462L167.336 56.5312V50.878L168.843 47.8629L170.728 46.3554L171.482 45.9785Z" fill="#232B34"/>
<path d="M249.495 45.9785H252.51L254.772 47.1092L254.395 48.9936L250.249 48.6167L248.365 50.5011L247.988 51.6317V54.6468L249.118 58.0387L249.872 58.4156L254.772 58.0387L255.149 59.5462L254.018 60.6769L250.626 61.4307L247.988 60.6769L245.726 58.0387L244.973 55.4006V51.6317L246.103 48.6167L247.988 46.7323L249.495 45.9785Z" fill="#252B32"/>
<path d="M282.287 41.457H283.417V61.0549L281.533 61.4317L280.402 61.0549V42.5877L282.287 41.457Z" fill="#2A2B2F"/>
<path d="M57.662 44.0957H63.6922L65.1997 45.9801V48.9952L63.6922 50.5027L60.3002 50.8796L57.662 50.5027L57.2852 49.7489V44.4726L57.662 44.0957Z" fill="#FEFEFE"/>
<path d="M143.971 69.3477H148.493L150.378 70.8552V73.4934L149.247 74.624V76.5084L150.001 77.2622V78.3928L148.116 78.0159L147.363 75.7546L145.478 75.0009V78.3928H143.971L143.594 78.0159V71.6089L143.971 69.3477Z" fill="#1F2B37"/>
<path d="M110.803 45.6016L112.687 46.3553L114.195 46.7322L115.325 45.9784H117.21L116.833 48.2397L114.572 49.3704H113.064L112.687 61.0537L110.803 61.4306L110.426 61.0537V45.9784L110.803 45.6016Z" fill="#292D34"/>
<path d="M133.792 69.3477L134.546 69.7245V78.3928L130.777 78.7697L128.893 77.639L128.516 74.624L129.646 72.3627L131.154 71.2321L133.038 70.1014L133.792 69.3477Z" fill="#1C252E"/>
<path d="M233.291 69.3477H237.814L239.321 70.8552V73.4934L237.814 75.0009L234.798 75.7546L234.422 78.3928H232.914V69.7245L233.291 69.3477Z" fill="#232D37"/>
<path d="M235.551 45.9785H237.812L238.189 47.486V61.0538H235.551V45.9785Z" fill="#262F38"/>
<path d="M112.689 69.3477L114.573 69.7245L115.327 70.4783L116.835 76.1315L117.588 78.3928H115.704L115.327 76.8853L111.935 78.0159L110.051 78.3928L110.805 75.0009L112.689 69.3477Z" fill="#172430"/>
<path d="M171.857 71.2305H174.495L176.003 72.738V75.3762L174.872 78.3912L171.857 78.7681L170.35 77.6375L169.973 74.9993L171.103 71.6074L171.857 71.2305Z" fill="#111D28"/>
<path d="M156.033 70.8535L158.294 71.6073L159.425 73.4917L159.048 75.753L157.917 78.3911H154.525L153.395 76.8836V74.2454L154.525 71.6073L156.033 70.8535Z" fill="#1F3346"/>
<path d="M180.904 71.2305L183.165 71.6074L184.296 72.738L184.673 77.2606L184.296 78.3912L183.165 78.7681H180.15L179.02 78.0143L179.396 74.6224L180.15 71.6074L180.904 71.2305Z" fill="#091824"/>
<path d="M298.868 53.8945L299.998 54.2714V58.794H299.244L298.868 59.9246L296.229 61.0553H292.461L290.576 60.3015L290.199 58.4171L290.576 58.0402L295.852 58.4171L297.36 57.6633L297.737 55.0252L298.868 53.8945Z" fill="#0E1318"/>
<path d="M188.441 45.6016H191.833L194.095 47.1091L195.602 49.3704L195.979 50.501V55.0236L193.341 54.6467L193.718 52.7623L192.21 52.3854L193.718 52.0085L192.587 49.3704L191.079 48.2397L188.441 47.8629L189.195 47.1091L187.688 47.486L188.441 45.6016Z" fill="#21272E"/>
<path d="M153.771 53.1406L157.163 53.5175L157.917 54.2713V57.2863L156.409 58.417L154.148 58.7938L152.264 58.0401L151.887 57.2863V54.6482L153.017 53.5175L153.771 53.1406Z" fill="#FEFEFE"/>
<path d="M299.624 47.8633H300V54.2703L295.101 52.009L292.84 50.8783L292.086 49.7477L293.217 48.617L295.855 48.2402L297.739 48.9939H298.87L299.624 47.8633Z" fill="#FEFEFE"/>
<path d="M266.459 53.1406L269.851 53.5175L270.604 54.6482L270.227 57.6632L269.097 58.417H265.705L264.951 58.0401L264.574 56.9094V54.2713L266.459 53.1406Z" fill="#FEFEFE"/>
<path d="M96.1071 53.1406H98.3684L100.253 54.2713V56.9094L99.1221 58.0401L98.3684 58.417H95.3533L94.5995 57.6632L94.2227 55.025L94.9764 53.5175L96.1071 53.1406Z" fill="#FEFEFE"/>
<path d="M189.197 47.8633L191.835 48.2402L193.719 50.5015L194.096 52.3859L192.212 52.7627H187.689L186.559 52.009L187.312 49.7477L189.197 47.8633Z" fill="#FEFEFE"/>
<path d="M201.635 69.3477L203.142 70.1014V70.8552L205.78 71.6089L206.911 73.1165L207.288 75.0009V78.0159L205.404 78.3928V74.624L204.273 72.7396L203.519 71.9858L203.142 78.3928L202.012 78.7697L201.635 78.3928L201.258 69.7245L201.635 69.3477Z" fill="#1F2227"/>
<path d="M121.355 71.2305H124.37L125.501 72.3611L125.878 78.3912H123.993V74.6224L123.616 73.1149L122.109 72.738L121.732 78.3912L119.848 78.0143L120.601 71.6074L121.355 71.2305Z" fill="#121D27"/>
<path d="M163.943 71.2305H166.204L166.958 71.9842V73.1149L163.943 72.738V73.8686L166.204 74.6224L167.335 76.1299L166.958 78.0143L165.074 78.7681H162.812L162.059 77.2606L165.451 76.8837V76.1299L162.435 75.3762V72.3611L163.943 71.2305Z" fill="#141E27"/>
<path d="M266.082 45.9785H269.097L271.358 47.1092L272.489 48.2398V51.6317L271.735 50.5011L271.358 49.7473L270.981 50.878L269.85 48.9936L269.097 48.6167H266.082L264.574 48.9936L263.82 48.6167L264.197 46.7323L266.082 45.9785Z" fill="#0E1114"/>
<path d="M195.226 71.2305H197.864L198.241 72.738L195.603 73.4918L194.849 75.3762L195.226 76.5068L198.241 76.8837L197.864 78.3912L196.357 78.7681L194.095 78.0143L193.342 77.2606L192.965 74.6224L194.472 71.6074L195.226 71.2305Z" fill="#212D39"/>
<path d="M215.957 69.3477H217.465V76.8853H220.857L221.61 77.2622L221.233 78.3928H215.957V69.3477Z" fill="#232427"/>
<path d="M114.573 71.6074L115.704 71.9843L116.835 76.13L117.588 78.3913H115.704L115.327 76.8838L111.935 78.0144L110.051 78.3913L110.428 76.5069L111.935 74.9994L112.312 76.13L114.573 75.7531V71.6074Z" fill="#111C27"/>
<path d="M224.621 69.3477L226.129 69.7245L226.506 76.8853L229.897 77.2622V78.3928H224.621V69.3477Z" fill="#112232"/>
<path d="M186.557 52.3867L193.717 52.7636L193.34 54.648L194.094 55.0249L187.31 55.4018L186.18 54.648V52.7636L186.557 52.3867Z" fill="#212225"/>
<path d="M174.872 72.7383H176.003V75.3765L174.872 78.3915L171.857 78.7684L170.35 77.6377L169.973 74.9996L171.103 73.1152L171.48 74.2458L170.726 75.3765H171.857L172.234 76.884H174.872V76.1302H174.118V73.8689H174.872V72.7383Z" fill="#0E1B27"/>
<path d="M188.441 71.2305H191.079L190.703 72.738L189.572 73.1149V78.3912L188.064 78.7681L187.688 78.3912V72.738L188.441 71.2305Z" fill="#1F2833"/>
<path d="M203.141 45.9785H205.779L205.402 54.6468H205.025L204.648 48.2398L204.271 47.8629L203.894 56.9081H203.141V45.9785Z" fill="#0F151C"/>
<path d="M188.441 45.6016H191.833L194.095 47.1091L195.602 49.3704V51.6317L194.848 50.1241L194.471 48.6166L192.964 47.8629L192.587 47.1091V48.2397V49.3704L191.079 48.2397L188.441 47.8629L189.195 47.1091L187.688 47.486L188.441 45.6016Z" fill="#0C0F13"/>
<path d="M133.794 69.3477L134.548 69.7245L134.171 75.3778L133.04 75.0009L132.663 72.3627L130.779 74.2471L128.895 75.0009L129.271 72.7396L131.156 71.2321L133.04 70.1014L133.794 69.3477Z" fill="#1A2129"/>
<path d="M156.031 70.8535L158.292 71.6073L159.423 73.4917L159.046 75.753L158.292 76.5067L157.538 73.8686L157.161 72.7379H155.277L154.9 74.6223L153.77 74.9992V72.7379L154.9 71.2304L156.031 70.8535Z" fill="#0D141A"/>
<path d="M235.174 69.7246H238.566L239.319 70.8553V73.4934L237.812 75.0009H235.927L236.304 73.8703L237.435 73.1165L237.812 71.2321L234.043 70.8553V70.1015L235.174 69.7246Z" fill="#09151F"/>
<path d="M290.576 58.0391L295.852 58.4159L296.983 58.7928V59.5466L295.476 60.3004L290.953 60.6772L290.199 59.9235L290.576 58.0391Z" fill="#1F252C"/>
<path d="M193.343 58.0391L194.474 58.4159L194.097 60.3004L190.328 61.431L189.197 60.6772L188.82 58.7928L193.343 58.0391Z" fill="#0B1219"/>
<path d="M132.662 71.9844H133.039V76.8838L131.154 77.2607L130.4 76.8838L130.023 75.3763L131.154 73.115L132.662 71.9844Z" fill="#FEFEFE"/>
<path d="M264.574 46.3555L266.458 46.7324H269.097L270.604 47.4861H269.85V48.6168H266.082L264.574 48.9936L263.82 48.6168L264.197 46.7324L264.574 46.3555Z" fill="#24292F"/>
<path d="M165.074 74.623L166.581 74.9999L167.335 76.1306L166.958 78.015L165.074 78.7687H162.812L162.059 77.2612L165.451 76.8843L165.074 74.623Z" fill="#101E2B"/>
<path d="M234.799 70.4785L237.06 70.8554L237.814 71.2323V73.1167L235.929 73.8704H234.422V70.8554L234.799 70.4785Z" fill="#FEFEFE"/>
<path d="M133.416 49.748H133.793V61.0545L131.908 61.4314L131.531 60.6776L131.908 56.9088L132.662 58.0394H133.416V49.748Z" fill="#02080C"/>
<path d="M145.478 70.8535H147.74L149.247 71.9842L148.87 73.1148L148.117 73.4917H145.478L145.102 71.6073L145.478 70.8535Z" fill="#FEFEFE"/>
<path d="M129.646 74.2461H130.4V76.8843H131.154V78.0149L133.038 78.3918V78.7687L129.646 78.3918L128.516 76.5074V74.623L129.646 74.2461Z" fill="#1D354B"/>
<path d="M216.332 75.375L217.086 75.7519V76.8825H220.855L221.608 77.2594L221.232 78.3901H216.332V75.375Z" fill="#06090C"/>
<path d="M113.441 71.2305H114.195L114.572 71.9842V75.753L112.688 76.1299L113.064 71.6074L113.441 71.2305Z" fill="#FEFEFE"/>
<path d="M235.928 40.7031L237.812 41.08L238.189 41.4569V43.3413L237.812 43.7182H235.551V41.08L235.928 40.7031Z" fill="#131619"/>
<path d="M125.127 72.3613H125.504L125.881 78.3914H123.996L124.75 73.492L125.127 72.3613Z" fill="#1C2630"/>
<path d="M111.935 75L112.312 76.1306L113.82 76.5075L113.443 77.2613L111.558 78.3919H110.051L110.428 76.5075L111.935 75Z" fill="#0C0F12"/>
<path d="M224.621 69.3477L226.129 69.7245L225.752 75.3778L225.375 74.624H224.621V69.3477Z" fill="#13161A"/>
<path d="M145.853 69.7246H149.245L150.376 70.8553L149.999 73.1165L149.622 71.9859L147.738 71.2321V70.4784H145.477L145.853 69.7246Z" fill="#0A0D11"/>
<path d="M143.969 69.3477H148.491V69.7245L145.853 70.1014L147.738 70.4783V70.8552H145.476L145.099 74.2471L144.346 73.8702V71.6089H143.969V69.3477Z" fill="#1C232B"/>
<path d="M182.412 73.8691L183.166 74.6229V76.5073L181.658 77.638L180.527 77.2611L180.904 75.3767L182.412 73.8691Z" fill="#FEFEFE"/>
<path d="M188.443 71.2305H191.081L190.705 72.738L189.574 73.1149V73.8686L188.066 74.2455V71.6074L188.443 71.2305Z" fill="#141C24"/>
<path d="M153.77 76.5059L157.161 76.8827H158.292L157.915 78.3903H154.523L153.77 77.6365V76.5059Z" fill="#131416"/>
<path d="M202.387 71.9844L203.14 72.7381V78.3914L202.01 78.7682L201.633 78.3914V76.507H202.01V72.3613L202.387 71.9844Z" fill="#101113"/>
<path d="M179.773 72.7383H182.412L182.035 74.6227L180.527 76.1302L179.773 74.6227V72.7383Z" fill="#596A79"/>
<path d="M238.945 70.8535H239.322V73.4917L237.814 74.9992H235.93L236.307 73.8686L238.568 71.9842L238.945 70.8535Z" fill="#141A20"/>
<path d="M112.687 69.3477L114.572 69.7245L115.326 70.4783V71.6089L114.195 71.9858V71.2321L112.687 71.6089L111.934 72.3627L112.31 70.4783L112.687 69.3477Z" fill="#0F2030"/>
<path d="M156.031 70.8535L156.785 71.2304V72.361L155.277 72.7379L154.9 74.6223L153.77 74.9992V72.7379L154.9 71.2304L156.031 70.8535Z" fill="#10202D"/>
<path d="M174.871 72.7383H176.002V75.3765L175.625 76.1302H174.117V73.8689H174.871V72.7383Z" fill="#0A131C"/>
<path d="M206.156 74.2461L207.287 74.9999V78.0149L205.402 78.3918L205.779 74.623L206.156 74.2461Z" fill="#192E41"/>
<path d="M144.724 75H145.101L145.478 78.3919H143.971L143.594 78.0151V75.3769L144.724 75Z" fill="#062035"/>
<path d="M195.226 71.2305H197.865L198.241 72.738H194.473V71.6074L195.226 71.2305Z" fill="#101D28"/>
<path d="M194.095 58.416L194.472 59.5467L193.341 60.6773L189.949 60.3004V59.5467L193.718 59.1698L194.095 58.416Z" fill="#262F39"/>
<path d="M158.291 54.6484L159.044 56.156V58.4173L158.291 59.5479L157.537 59.171L157.914 58.4173L156.406 58.7941V58.0404L158.291 57.2866V54.6484Z" fill="#081016"/>
<path d="M194.473 76.5059L198.241 76.8827L197.865 78.3903L196.357 78.7671L194.473 76.8827V76.5059Z" fill="#0A1D2D"/>
<path d="M155.656 75.375H157.541V76.8825L157.164 77.2594H155.279L154.902 75.7519L155.656 75.375Z" fill="#FEFEFE"/>
<path d="M172.613 75L174.121 75.3769V76.1306H174.874V76.8844L172.236 77.2613L171.859 75.7538H172.613V75Z" fill="#FEFEFE"/>
<path d="M180.902 71.2305L183.164 71.6074L183.54 72.3611H182.787L182.41 73.8686V72.738L180.148 73.1149V71.6074L180.902 71.2305Z" fill="#161D25"/>
<path d="M110.801 56.1543H111.178L111.555 58.0387H112.308V60.6769L111.931 61.4306H110.801V56.1543Z" fill="#020A11"/>
<path d="M211.81 45.9785H213.695V46.7323L212.564 47.1092L212.187 54.6468H211.81L211.434 46.3554L211.81 45.9785Z" fill="#070C11"/>
<path d="M156.033 72.3613L157.541 72.7382V74.2457L155.279 74.6226L154.902 73.492L156.033 72.3613Z" fill="#FEFEFE"/>
<path d="M134.17 69.7246L134.547 70.8553L134.17 75.3778L133.039 75.0009V70.8553L134.17 69.7246Z" fill="#030303"/>
<path d="M172.613 72.3613L174.498 72.7382V73.8689L172.236 74.6226L171.859 73.1151L172.613 72.3613Z" fill="#FEFEFE"/>
<path d="M171.48 73.1152L172.234 74.2459L174.119 73.869V75.3765L172.611 74.9996V75.7534L170.727 75.3765L171.48 73.1152Z" fill="#253342"/>
<path d="M224.248 42.2109L225.755 42.5878L225.378 44.4722L223.117 43.7185V42.5878L224.248 42.2109Z" fill="#202F3D"/>
<path d="M220.48 76.8828L221.611 77.2597L221.234 78.3903H218.219V77.2597L220.48 76.8828Z" fill="#15181B"/>
<path d="M205.779 72.3613H206.533L206.91 73.1151V76.8839H206.533L206.156 74.6226H205.402V72.7382L205.779 72.3613Z" fill="#080B0E"/>
<path d="M193.342 47.1094L194.849 47.8631L195.603 49.3707V51.632L194.849 50.1244L194.472 48.6169L192.965 47.8631L193.342 47.1094Z" fill="#0A0D10"/>
</svg>
