<svg width="160" height="100" viewBox="0 0 160 100" fill="none" xmlns="http://www.w3.org/2000/svg">
<path d="M55.2262 0H57.4103L59.2824 0.156006L60.9984 0.468019L65.5226 0.624025L65.6786 0.780031L65.8346 4.36818L66.1466 17.3167L66.3027 33.8534L66.1466 34.0094L61.6225 34.1654H36.6615L34.7894 34.0094V67.0827H62.5585L65.9906 67.5507L66.9267 68.1747L67.0827 68.3307V73.6349L66.7707 94.2278L66.6147 99.688L66.3027 99.844L55.5382 100H40.0936L36.1934 99.844V99.532L35.2574 99.376L34.7894 98.5959L34.3214 98.1279L34.1654 93.4477V78.4711L34.3214 68.1747L34.4774 67.5507H4.36817L3.90016 67.3947V67.0827L2.96412 66.7707L1.71607 65.9906L0.624025 64.4306L0 63.9626V36.9735L0.936037 36.1935L1.56006 35.2574L2.80811 34.3214L3.27613 34.1654L7.33229 34.0094L9.20437 33.8534H34.4774L34.3214 32.1373V20.9048L34.4774 10.7644L34.6334 4.52418L34.9454 2.96412L35.8814 1.56006L36.1934 0.624025L37.5975 0.468019L46.3339 0.312012L49.298 0.156006L55.2262 0Z" fill="url(#paint0_linear_2417_22791)"/>
<path d="M7.33229 34.0098H29.9532L34.4774 34.1658V67.2391H3.90016L1.87207 66.147L1.24805 65.367L0.624025 64.431L0 63.963V36.9739L0.936037 36.1939L1.56006 35.2578L2.80811 34.3218L3.27613 34.1658L7.33229 34.0098Z" fill="#41A4AB"/>
<path d="M84.711 38.0664H87.8311L90.7952 38.2224L93.4473 39.0024L95.1634 39.9385L96.8795 41.3425L97.9715 42.7466L98.2835 43.6826V46.1787L97.8155 47.7388L97.0355 48.5188L96.2554 49.4549L94.8514 50.3909L94.0713 50.7029V51.0149L95.7874 51.951L96.8795 53.199L97.0355 53.511L97.3475 57.4112L98.1275 59.9073L98.5955 62.4034L98.4395 63.3394L97.8155 63.6514H96.0994L95.3194 62.8714L94.3834 60.9993L94.0713 59.1272L93.9153 54.9151L92.9793 53.355L92.3553 52.887L90.3272 52.107L89.2351 51.951H75.5066L75.3506 62.8714L73.7905 63.8074L73.0105 63.6514L72.3865 63.3394L72.2305 62.8714V40.8745L72.5425 40.0945L73.9465 38.8464L74.8826 38.3784L75.6626 38.2224L84.711 38.0664Z" fill="#44A5AC"/>
<path d="M114.042 37.9102H117.474L121.687 38.0662L123.871 38.3782L126.211 39.1582L127.927 40.0942L128.863 40.7183L129.331 41.1863L129.799 41.9663L130.267 42.5903V42.9024H130.579L131.203 44.9304V46.1785L130.267 48.0506L129.019 49.1426L127.615 50.3907L125.275 51.4827L122.311 52.1067L109.362 52.4187L109.206 52.7307L109.05 62.7151L107.49 63.9632L106.086 63.0272V40.5623L106.554 39.7822L107.802 38.8462L108.582 38.3782L110.298 38.0662L114.042 37.9102Z" fill="#FCFCFC"/>
<path d="M63.0264 37.5977H64.1185L65.2105 38.0657L65.5225 38.5337L63.9625 39.7817L58.6582 43.5259L57.0982 44.6179L54.9141 46.178L52.574 47.7381L52.106 48.3621H51.794L52.574 49.1421L54.9141 51.3262L56.0061 52.5743L57.8782 54.4463L59.5943 55.8504L62.7144 58.9705L64.4305 60.3746L65.5225 61.4666L66.9266 62.2466V62.7147L66.1465 63.3387L65.2105 63.9627L64.4305 63.6507L62.4024 61.9346L61.1544 60.8426L60.3743 59.9065L59.5943 59.4385L58.3462 58.1905L57.0982 57.0984L55.8501 55.8504L54.1341 54.4463L52.73 53.0423L52.106 52.7303L51.0139 51.4822L49.6099 50.0782L48.6739 50.3902L46.4898 51.7942L44.6177 53.1983L43.2136 54.1343L43.0576 62.4026L42.9016 63.1827L42.1216 63.6507H40.5615L39.9375 63.1827V37.7537H42.9016L43.2136 37.9097L43.3696 50.5462L44.6177 50.3902L47.2698 48.5181L49.7659 46.802L52.574 44.7739L54.4461 43.5259L57.4102 41.4978L58.8143 40.4058L61.7784 38.3777L63.0264 37.5977Z" fill="#43A5AC"/>
<path d="M77.2236 39.9375H88.3001L90.6402 40.2495L92.3562 40.8735L93.7603 41.8096L94.5403 42.7456L95.3204 44.3057L95.4764 45.8657L95.3204 46.1777H95.0084L94.6963 47.1138L94.0723 48.0498L92.3562 49.2979L91.5762 49.6099L90.1722 49.9219H75.5076L75.3516 49.7659V40.7175L76.1316 40.0935L77.2236 39.9375Z" fill="#FDFDFD"/>
<path d="M114.042 37.9102H117.474L121.687 38.0662L123.871 38.3782L126.211 39.1582L127.927 40.0942L128.863 40.7183L129.331 41.1863L129.799 41.9663L130.267 42.5903V42.9024H130.579L131.203 44.9304V46.1785L130.267 48.0506L129.019 49.1426L127.615 50.3907L125.275 51.4827L122.311 52.1067L109.362 52.4187L109.206 52.7307L109.05 62.7151L107.49 63.9632L106.086 63.0272V40.5623L106.554 39.7822L107.802 38.8462L108.582 38.3782L110.298 38.0662L114.042 37.9102ZM113.262 39.9382L110.61 40.0942L109.206 40.4063L109.05 40.7183V49.7666L109.362 50.2346H121.999L124.183 49.7666L125.431 49.1426L126.835 47.8946L127.771 46.1785L127.927 44.9304L127.459 43.5264L126.523 42.1223L125.431 41.1863L123.871 40.4063L121.999 40.0942L120.126 39.9382H113.262Z" fill="#46A5AD"/>
<path d="M138.847 37.7539H140.095L141.499 38.2219V60.8428L141.655 60.9988L143.215 61.1548L159.752 61.3109V63.0269L155.54 63.1829H144.931L141.343 63.0269L139.315 61.9349L138.535 61.1548L138.379 49.2984V38.0659L138.847 37.7539Z" fill="#43A5AC"/>
<path d="M35.4117 2.18359L35.5677 2.49561L35.0997 3.43164L34.9437 4.67969L34.7877 33.8529H36.6597V34.0089H34.7877V67.0822L36.8158 67.2382V67.3942L34.7877 67.5502L34.6317 95.7873V98.4394L34.3197 98.1274L34.1636 93.4473V78.4706L34.3197 68.1742L34.4757 67.5502H4.36646L3.89844 67.2382H34.4757V34.1649H29.9515L9.20265 34.0089V33.8529H34.4757L34.3197 32.1368V20.9043L34.4757 10.7639L34.6317 4.52369L34.9437 2.96362L35.4117 2.18359Z" fill="#AED4D8"/>
<path d="M1.56006 35.2578L1.71607 35.8818L1.40406 37.4419L1.09204 40.718L0.936037 56.6307V60.9988L0.780031 62.7149L0.468019 63.1829V64.119L0 63.963V36.9739L0.936037 36.1938L1.56006 35.2578Z" fill="#62AFB8"/>
<path d="M77.2236 39.9375H88.3001L90.6402 40.2495L92.3562 40.8735L93.7603 41.8096L94.5403 42.7456L95.3204 44.3057L95.4764 45.8657L95.3204 46.1777H95.0084L94.6963 47.1138L94.0723 48.0498L92.3562 49.2979L91.5762 49.6099L90.1722 49.9219H75.5076L75.3516 49.7659V40.7175L76.1316 40.0935L77.2236 39.9375ZM75.9756 40.4055L75.6636 40.7175L75.5076 49.1419L75.6636 49.6099H90.1722L92.0442 49.1419L93.4483 48.2058L94.2283 47.5818L94.8523 46.1777L95.1644 45.5537L95.0084 44.3057L94.0723 42.4336L92.9803 41.4976L91.1082 40.5615L90.4842 40.4055H75.9756Z" fill="#B4D7DB"/>
<path d="M75.5059 40.25L75.8179 40.406L75.5059 40.718V49.7664H90.1704L92.0425 49.2984L92.3545 49.4544L91.7305 49.9224L89.8584 50.3904H75.6619L74.5698 49.9224V47.8943L74.4138 47.1143V46.0222L74.2578 45.5542V41.6541L74.7258 40.718L75.5059 40.25Z" fill="#62AFB8"/>
<path d="M76.9102 37.9102H89.7027L91.7308 38.2222L93.9148 39.0022L95.6309 39.9382L97.503 41.6543L98.283 42.9024L98.595 43.9944V46.0225L98.127 47.1145L97.971 46.4905L98.127 46.1785V43.6824L97.503 42.2783L96.4109 41.0303L94.3829 39.6262L92.5108 38.8462L90.7947 38.3782L87.8306 38.2222H84.7105L75.6621 38.3782L74.2581 38.8462L72.854 39.9382L72.542 40.2502L72.386 40.8743V62.8712L72.542 63.3392L73.322 63.6512L74.1021 63.4952L74.7261 63.3392L74.2581 63.8072L73.946 63.9632H72.854L72.074 63.3392L71.918 62.8712V40.8743L72.386 39.7822L73.946 38.5342L75.1941 38.0662L76.9102 37.9102Z" fill="#B4D7DB"/>
<path d="M111.233 37.7539H120.126L123.246 38.0659L123.87 38.3779L121.686 38.2219L117.474 38.0659H114.042L110.297 38.2219L108.581 38.5339L106.865 39.626L106.397 40.094L106.241 40.562V63.0269L107.489 63.8069L108.425 63.0269L108.737 63.1829L107.801 64.119L106.865 63.963L105.617 62.8709V44.7742L105.773 40.406L106.865 39.158L108.425 38.2219L109.673 37.9099L111.233 37.7539Z" fill="#B4D7DB"/>
<path d="M113.259 39.9375H120.123L123.399 40.2495L124.96 40.8735L125.116 41.1855L123.711 40.7175L122.931 40.5615H110.451L109.515 40.7175L109.359 43.2136V49.9219H113.883L122.619 49.7659L124.335 49.2979L125.74 48.5178L126.988 46.9578L127.456 45.8657V43.8377L127.768 44.1497L127.924 45.5537L127.3 47.1138L126.364 48.3618L124.96 49.4539L122.931 50.0779L121.995 50.2339H109.359L109.047 49.7659V40.7175L109.203 40.4055L110.607 40.0935L113.259 39.9375Z" fill="#B4D7DB"/>
<path d="M75.5066 51.7949H89.2351L90.6392 52.1069L92.6673 52.887L93.6033 53.979L94.0713 54.915L94.2273 59.1272L94.6954 61.4673L95.4754 62.8714L95.6314 63.3394L96.0994 63.4954L95.7874 63.6514L95.0074 62.8714L94.0713 60.9993L93.6033 58.6592L93.4473 54.603L92.5113 53.199L90.1712 52.2629L75.8186 52.1069L75.6626 62.5594L75.3506 63.1834L74.7266 63.3394L75.1946 62.8714L75.3506 51.9509L75.5066 51.7949Z" fill="#B4D7DB"/>
<path d="M34.4761 68.1738H34.6321V98.439L34.3201 98.127L34.1641 93.4468V78.4702L34.3201 68.3298L34.4761 68.1738Z" fill="#B4D7DB"/>
<path d="M39.9375 37.7539H42.9016L43.2136 37.9099L43.3696 50.5464H44.3057L43.8377 51.0144L43.2136 51.4825H42.5896L42.4336 49.4544V42.2781L42.2776 38.8459L42.4336 38.2219L42.2776 38.0659L39.9375 37.9099V37.7539Z" fill="#72B6BF"/>
<path d="M96.2573 48.9863L96.5693 49.1423L94.8533 50.3904L94.0732 50.7024V51.0144L95.7893 51.9504L96.8814 53.1985L97.0374 53.5105L97.3494 57.4107L98.1294 59.9068L98.5974 62.4029L98.4414 63.3389L98.1294 63.4949L97.6614 61.9348L97.1934 61.7788L96.5693 60.5308V53.3545L95.6333 52.2625L93.4492 51.1704V50.7024L96.2573 48.9863Z" fill="#70B5BE"/>
<path d="M138.378 37.7539L138.846 37.9099L138.534 38.0659V50.0784L138.69 61.1548L139.314 61.9349L138.69 61.6229L138.222 60.9988L138.066 52.1065V38.2219L138.378 37.7539Z" fill="#B4D7DB"/>
<path d="M127.768 50.0781L128.08 50.2341L126.676 51.1702L124.647 51.9502L122.619 52.4182L121.371 52.5742L109.359 52.7302V62.4026L109.047 62.7146V52.7302L109.359 52.2622L122.307 51.9502L125.272 51.3262L127.768 50.0781Z" fill="#B4D7DB"/>
<path d="M54.9141 51.4824L55.5381 51.7944L57.5662 53.8225L58.8142 54.9146L60.3743 56.3186L62.2464 58.0347L63.3384 59.1267L65.0545 60.5308L66.3025 61.6228L67.2386 62.2469L67.3946 62.5589L66.6145 63.3389L65.3665 64.2749L64.7425 64.1189L62.5584 62.4029L60.9983 60.9988L58.5022 58.6587L58.0342 58.0347L58.6582 58.3467L59.9063 59.5947L60.6863 60.0628L62.0903 61.6228L64.2744 63.3389L64.8985 63.8069L65.6785 63.4949L66.9265 62.5589L66.7705 62.2469L65.5225 61.6228L64.2744 60.3748L62.5584 58.9707L59.4382 55.8506L57.2542 53.9785L54.9141 51.6384V51.4824Z" fill="#B4D7DB"/>
<path d="M92.0442 49.2988L92.3562 49.4548L91.7322 49.9229L89.8601 50.3909H75.6636L75.3516 50.2349L75.5076 49.7668H90.1722L92.0442 49.2988Z" fill="#74B7BF"/>
<path d="M1.56006 35.2578L1.71607 35.8818L1.40406 37.4419L1.09204 40.718L0.780031 41.3421L0.468019 41.03L0 39.47V36.9739L0.936037 36.1938L1.56006 35.2578Z" fill="#72B6BE"/>
<path d="M90.3281 51.9492H92.3562V52.4172H92.8242L93.4482 53.0413V53.3533H93.7603L94.3843 54.7573V58.3455L94.6963 60.0615L95.0083 60.9976L95.6323 61.7776L96.1004 63.0257L95.9443 63.4937L95.1643 62.7136L94.3843 60.9976L94.0723 59.1255L93.9163 54.9133L92.9802 53.3533L92.3562 52.8853L90.3281 52.1052V51.9492Z" fill="#6AB2BB"/>
<path d="M0.624025 56.7871H0.780031L0.936037 58.3472V60.9993L0.780031 62.7153L0.468019 63.1834V64.1194L0 63.9634V57.2551L0.624025 57.0991V56.7871Z" fill="#62AFB8"/>
<path d="M39.9375 37.7539H42.9016L43.2136 37.9099L43.3696 50.5464H44.3057L43.8377 51.0144L43.0576 51.1704L42.9016 51.0144V38.2219L42.7456 38.0659L39.9375 37.9099V37.7539Z" fill="#B4D7DB"/>
<path d="M96.2573 48.9863L96.5693 49.1423L94.8533 50.3904L94.0732 50.7024V51.0144L95.7893 51.9504L96.8814 53.1985L97.0374 53.5105L97.3494 57.4107L98.1294 59.9068L98.5974 62.4029L98.4414 63.3389L98.1294 63.4949V62.0909L97.5054 59.1267L96.8814 57.7227L96.5693 53.3545L95.6333 52.2625L93.4492 51.1704V50.7024L96.2573 48.9863Z" fill="#B4D7DB"/>
<path d="M75.3508 51.6387H85.1792V51.7947L75.5068 51.9507L75.3508 62.8711L74.8828 62.4031V60.843L75.0388 59.907V55.6948L74.8828 54.2908V52.7307L75.3508 51.6387Z" fill="#6AB3BB"/>
<path d="M138.535 37.9102L138.847 38.0662V42.4343L138.691 60.6871H138.535L138.379 49.2986V38.0662L138.535 37.9102Z" fill="#6BB3BB"/>
<path d="M110.919 51.7949H123.088V51.9509L122.308 52.1069L117.16 52.2629H109.359L109.671 51.9509L110.919 51.7949Z" fill="#75B8C0"/>
<path d="M75.1943 40.7168H75.3503L75.5063 42.9009L75.3503 49.7652L75.0383 49.4531V46.333L74.5703 44.773V41.9648L75.1943 40.7168Z" fill="#75B8C0"/>
<path d="M94.3828 42.4336H94.6948L95.0068 43.2136L95.7869 43.5256L96.0989 44.1497V45.7097L95.6309 46.9578L95.0068 46.8018L94.6948 46.9578L95.0068 46.1777H95.3188V44.9297L94.8508 43.5256L94.3828 42.7456V42.4336Z" fill="#6EB4BD"/>
<path d="M130.421 42.9023L130.733 43.2144L131.201 44.9304V46.1785L130.265 48.0505L130.109 47.7385L129.953 46.4905L130.265 45.2424H130.733L130.421 43.5264V42.9023Z" fill="#8CC3CA"/>
<path d="M58.0352 58.0352L58.6592 58.3472L59.9072 59.5952L60.6873 60.0632L62.0913 61.6233L64.2754 63.3394L64.8994 63.8074L65.8355 63.4954L65.5235 64.1194L64.8994 64.2754L62.4033 62.2473L61.1553 61.1553L58.5032 58.6592L58.0352 58.0352Z" fill="#B4D7DB"/>
<path d="M114.042 37.9102H117.474V38.0662L112.793 38.3782L112.325 38.5342L111.857 38.3782L109.049 38.6902L108.113 38.8462L108.581 38.3782L110.297 38.0662L114.042 37.9102Z" fill="#6CB3BC"/>
<path d="M75.3516 49.7656L80.3438 49.9216V50.2336L80.0317 50.3896H75.6636L75.3516 50.2336V49.7656Z" fill="#6FB5BD"/>
<path d="M0.312012 54.6016L0.780031 54.7576L0.936037 56.6296L0.624025 57.0977L0 57.2537V54.7576L0.312012 54.6016Z" fill="#72B6BE"/>
<path d="M36.3501 0.779297H38.8462V0.935303L37.5981 1.09131L36.9741 1.71533L36.0381 2.33936L35.4141 2.80738L35.7261 1.71533L36.1941 1.55933L36.3501 0.779297Z" fill="#41A4AB"/>
<path d="M52.1045 47.8945L52.4165 48.0505L51.7925 48.3625L52.5725 49.1426L54.9126 51.3267H54.4446L52.7285 50.0786L51.6365 48.9866L51.4805 48.3625L52.1045 47.8945Z" fill="#9ACAD0"/>
<path d="M110.919 51.7949L114.82 51.9509L114.508 52.2629H109.359L109.671 51.9509L110.919 51.7949Z" fill="#70B5BE"/>
<path d="M90.3281 51.9492H92.3562V52.4172H92.8242L93.4482 53.0413L93.6043 53.9773L92.8242 53.1973L91.5762 52.5732L90.3281 52.1052V51.9492Z" fill="#73B7BF"/>
<path d="M138.535 37.9102L138.847 38.0662V42.4343L138.535 42.9024L138.379 42.4343V38.0662L138.535 37.9102Z" fill="#74B7BF"/>
<path d="M42.4336 44.6172L42.7456 44.7732L42.9016 50.7014L43.3696 51.3255L42.5896 51.4815L42.4336 49.4534V44.6172Z" fill="#63AFB8"/>
<path d="M53.8203 50.8574L54.4443 51.1694L56.0044 52.5735L57.8765 54.4456H57.4085L56.6284 53.6655L55.5364 52.7295L54.7563 51.9495L53.8203 50.8574Z" fill="#70B5BE"/>
<path d="M66.3045 62.0898L66.9285 62.2458V62.7139L66.1484 63.3379L65.2124 63.9619L64.4324 63.6499L63.6523 62.8699L64.4324 63.0259L64.5884 63.3379L65.2124 63.4939L66.6165 62.5579L66.3045 62.0898Z" fill="#6FB5BD"/>
<path d="M62.8696 37.4414H64.2737L65.5217 37.9094L65.9898 38.2214L65.8338 38.6895L65.2097 38.8455L65.3657 38.3774L64.7417 37.9094L63.4937 37.7534L62.7136 37.9094L61.9336 38.2214L62.5576 37.5974L62.8696 37.4414Z" fill="#B4D7DB"/>
<path d="M2.96289 34.0098H7.33107V34.1658L3.27491 34.3218L1.71484 35.2578L2.02686 34.6338L2.96289 34.0098Z" fill="#A3CFD4"/>
<path d="M94.3828 42.4336H94.6948L95.0068 43.2136L95.7869 43.5256L96.0989 44.1497V44.6177H95.6309L95.3188 43.9937L94.6948 43.3696L94.3828 42.4336Z" fill="#65B0B9"/>
<path d="M0.780762 41.498H0.936769L1.09277 43.3701L0.780762 44.3062L0.46875 43.9941V42.2781L0.780762 41.498Z" fill="#71B6BE"/>
<path d="M93.4492 53.3535H93.7612L94.3853 54.7576V57.2537H94.2292L94.0732 55.0696L93.6052 54.2896L93.4492 53.3535Z" fill="#64B0B9"/>
<path d="M0 63.9629L0.780031 64.4309L1.40406 65.3669L1.24805 65.679L0.624025 65.0549L0 64.7429V63.9629Z" fill="#B4D7DB"/>
<path d="M58.0352 58.0352L58.6592 58.3472L59.9072 59.5952L60.6873 60.0632L60.8433 60.3752L60.2192 60.2192L58.9712 59.1272L58.0352 58.0352Z" fill="#9CCBD1"/>
<path d="M42.4336 42.4336L42.9016 42.7456V44.6177L42.5896 44.7737L42.4336 43.9937V42.4336Z" fill="#6BB3BB"/>
<path d="M96.8789 59.2832L97.3469 59.4392L97.5029 59.7512V60.6873L97.1909 60.9993L96.8789 60.5313V59.2832Z" fill="#B4D7DB"/>
<path d="M1.56006 35.2578L1.71607 35.8818L0.624025 37.1299L0 37.2859V36.9739L0.936037 36.1938L1.56006 35.2578Z" fill="#A9D1D6"/>
<path d="M61.3086 60.8418L61.9326 61.1538L63.1807 62.0898V62.4019L63.6487 62.5579L63.4927 62.8699L61.4646 61.1538L61.3086 60.8418Z" fill="#68B2BA"/>
<path d="M36.3501 0.779297H36.5061L36.3501 1.87134L35.5701 2.80738L35.4141 2.49537L35.8821 1.55933H36.1941L36.3501 0.779297Z" fill="#7ABAC2"/>
<defs>
<linearGradient id="paint0_linear_2417_22791" x1="67.0827" y1="28.146" x2="26.5211" y2="24.025" gradientUnits="userSpaceOnUse">
<stop stop-color="#B3D6DA"/>
<stop offset="1" stop-color="#41A4AB"/>
</linearGradient>
</defs>
</svg>
