<svg width="133" height="120" viewBox="0 0 133 120" fill="none" xmlns="http://www.w3.org/2000/svg">
<path d="M84.0518 95.7968C86.2203 96.074 88.4148 96.0805 90.5849 95.8162V99.1127C90.7976 98.8849 90.9223 98.7666 91.0276 98.6357C92.2911 97.054 93.9052 95.9858 95.878 95.5648C97.969 95.1177 99.9655 95.3863 101.721 96.7359C102.381 97.2434 102.917 97.8955 103.286 98.6421C103.427 98.9172 103.554 99.1923 103.711 99.5275C104.154 98.9988 104.536 98.4938 104.971 98.036C106.281 96.6629 107.831 95.7388 109.75 95.4658C110.924 95.3109 112.117 95.367 113.272 95.6313C115.38 96.0847 116.842 97.3161 117.579 99.3685C118.012 100.603 118.228 101.904 118.217 103.213C118.223 108.126 118.223 113.041 118.217 117.953V118.078C118.202 118.617 118.204 118.598 117.632 118.551C116.663 118.467 115.69 118.361 114.718 118.357C113.891 118.357 113.066 118.48 112.243 118.559C111.727 118.606 111.716 118.615 111.714 118.089V105.476C111.728 104.295 111.599 103.116 111.329 101.966C111.195 101.355 110.914 100.786 110.509 100.31C109.681 99.3725 108.626 99.235 107.489 99.3876C105.269 99.6883 104.648 101.13 104.474 102.832C104.388 103.694 104.364 104.569 104.362 105.439C104.352 109.54 104.362 113.64 104.362 117.742V118.179C104.347 118.591 104.337 118.593 103.939 118.561C103.008 118.484 102.078 118.361 101.147 118.355C100.277 118.374 99.4089 118.436 98.5448 118.544C97.9024 118.606 97.9024 118.621 97.9024 117.953V104.964C97.9236 103.801 97.7544 102.643 97.4018 101.534C96.9868 100.299 96.1852 99.4952 94.8658 99.3639C93.5205 99.2222 92.3534 99.6284 91.552 100.795C90.8299 101.848 90.6258 103.062 90.6193 104.294C90.5977 108.79 90.6129 113.285 90.6129 117.783V117.906C90.6129 118.615 90.6129 118.595 89.9036 118.531C88.9753 118.45 88.0426 118.353 87.1121 118.353C86.2869 118.353 85.4617 118.477 84.6365 118.559C84.0496 118.617 84.0412 118.621 84.0412 118.03V96.2994C84.0218 96.1362 84.0412 95.9732 84.0518 95.7968ZM24.7841 95.8224C26.9478 96.0653 29.1319 96.0653 31.2957 95.8224V99.1041C31.4933 98.9042 31.5922 98.8204 31.6738 98.7171C32.9417 97.1142 34.5579 96.0223 36.5522 95.5712C38.6776 95.0962 40.6847 95.4078 42.4576 96.7487C43.2871 97.3762 43.8567 98.2209 44.2649 99.1706C44.3122 99.2803 44.3788 99.3834 44.4519 99.5209C44.8236 99.0784 45.1611 98.6592 45.5155 98.2552C46.848 96.7403 48.4662 95.743 50.5036 95.4701C51.9022 95.2769 53.3263 95.401 54.6704 95.8332C56.7379 96.4909 57.9242 97.9737 58.4829 100.007C58.7476 100.969 58.8806 101.962 58.8783 102.96C58.8697 107.934 58.8697 112.908 58.8783 117.882C58.8783 118.57 58.9944 118.632 58.182 118.533C57.3397 118.422 56.4914 118.361 55.6418 118.353C54.7736 118.353 53.9055 118.469 53.0372 118.553C52.4141 118.611 52.4097 118.626 52.4097 118.003V104.889C52.42 103.893 52.2964 102.9 52.0422 101.936C51.8944 101.328 51.61 100.762 51.2105 100.28C50.4348 99.39 49.4011 99.2673 48.3094 99.3685C48.0407 99.3966 47.7752 99.4498 47.5164 99.5275C46.3817 99.8583 45.6533 100.604 45.3888 101.747C45.2336 102.391 45.1485 103.05 45.1352 103.712C45.1138 108.437 45.1246 113.163 45.1246 117.887C45.1246 118.613 45.1246 118.596 44.424 118.531C43.5365 118.452 42.6467 118.351 41.7571 118.351C40.908 118.351 40.0571 118.458 39.2169 118.54C38.5442 118.602 38.5442 118.619 38.5442 117.921V104.307C38.5442 103.31 38.3722 102.319 38.035 101.38C37.4504 99.7595 36.0664 99.1127 34.4117 99.4156C33.062 99.665 32.239 100.484 31.7813 101.713C31.4484 102.61 31.2802 103.559 31.2848 104.515V117.88C31.2848 118.602 31.2848 118.589 30.5863 118.527C29.6364 118.45 28.6847 118.351 27.7303 118.355C26.9073 118.355 26.0821 118.497 25.2569 118.568C24.8314 118.609 24.7927 118.587 24.7819 118.157C24.7733 117.824 24.7819 117.491 24.7819 117.165V96.7445L24.7841 95.8224ZM73.498 106.338C72.0624 106.825 70.6742 107.197 69.43 107.911C68.5352 108.419 67.8742 109.256 67.5883 110.245C67.3411 111.044 67.3346 111.848 67.3884 112.654C67.4141 113.27 67.541 113.876 67.7581 114.455C68.1298 115.353 68.8067 115.931 69.8596 115.933C71.291 115.933 72.2988 115.286 72.8706 113.949C73.3025 112.946 73.4464 111.878 73.4873 110.806C73.5368 109.54 73.498 108.268 73.498 107V106.338ZM73.4787 115.768C73.0876 116.212 72.7329 116.675 72.3225 117.074C71.7216 117.68 71.0069 118.161 70.2195 118.49C69.4321 118.818 68.5875 118.988 67.7342 118.989C66.5846 119.006 65.4607 118.933 64.3732 118.501C62.5896 117.794 61.4161 116.537 60.9714 114.665C60.6102 113.163 60.6296 111.659 61.1777 110.193C61.6547 108.919 62.6111 108.093 63.7823 107.47C65.2265 106.703 66.7887 106.288 68.3533 105.873C69.2945 105.624 70.238 105.386 71.1749 105.115C71.5512 104.999 71.9165 104.85 72.2666 104.67C72.7118 104.446 73.0712 104.082 73.2897 103.634C73.5083 103.186 73.5739 102.679 73.4765 102.19C73.0511 99.8024 70.5968 98.1176 68.1404 98.5046C66.6554 98.7255 65.2638 99.3642 64.1282 100.346C63.8447 100.589 63.6384 100.907 63.3826 101.176C63.3458 101.218 63.3007 101.253 63.2501 101.277C63.1995 101.302 63.1444 101.315 63.0882 101.317C63.0086 101.3 62.9162 101.163 62.8926 101.062C62.7249 100.353 62.5874 99.6456 62.409 98.9451C62.3037 98.5411 62.5295 98.3219 62.7937 98.109C63.8013 97.3094 64.936 96.6847 66.1505 96.2609C67.8847 95.6145 69.7295 95.3172 71.5789 95.3862C73.5882 95.4788 75.5354 95.8591 77.2802 96.9444C78.9435 97.9737 79.9322 99.4265 79.96 101.429C79.9881 103.574 79.9923 105.717 79.9967 107.859V114.663C79.9928 114.974 80.0326 115.283 80.1148 115.583C80.3191 116.253 80.7852 116.589 81.4946 116.629H81.6213C81.8404 116.653 82.223 116.621 82.2574 116.713C82.3368 117.008 82.3605 117.317 82.3284 117.62C82.3284 117.713 82.1973 117.829 82.1005 117.876C80.5661 118.606 78.9822 119.197 77.2482 118.953C75.8297 118.753 74.7639 117.96 74.0116 116.748C73.8226 116.43 73.6636 116.094 73.4787 115.768ZM11.6535 107.67C11.0239 107.752 10.4413 107.773 9.88697 107.911C8.21507 108.328 7.2954 109.469 6.93854 111.111C6.6807 112.284 6.76249 113.453 7.03757 114.62C7.46301 116.397 9.01663 117.676 10.8433 117.755C11.271 117.788 11.7008 117.792 12.1307 117.77C14.0905 117.611 15.6507 115.301 15.7088 113.812C15.725 113.465 15.725 113.118 15.7088 112.772C15.6744 112.054 15.3606 111.463 14.8708 110.945C14.6648 110.742 14.4921 110.508 14.3591 110.251C14.1979 109.905 14.46 109.576 14.8469 109.598C14.9924 109.615 15.1349 109.652 15.2704 109.707C17.342 110.444 19.4137 111.184 21.4832 111.923C21.5391 111.949 21.5969 111.97 21.6572 111.99C21.956 112.065 22.0269 112.211 21.9409 112.531C21.4355 114.356 20.4201 115.998 19.014 117.266C17.6079 118.534 15.8693 119.375 14.0023 119.69C10.9335 120.231 7.88645 120.087 4.91197 119.073C3.75818 118.701 2.70483 118.071 1.83279 117.229C0.933842 116.35 0.337705 115.208 0.130626 113.969C-0.144786 112.509 0.0174644 111.001 0.596969 109.634C1.04567 108.596 1.82247 107.733 2.80839 107.178C2.91585 107.115 3.01891 107.051 3.12014 106.982C3.13499 106.971 3.13719 106.944 3.12857 106.963C2.62574 106.593 2.10988 106.256 1.64134 105.856C0.932194 105.265 0.614391 104.44 0.485289 103.567C0.22947 101.842 0.768983 100.333 1.92301 99.0329C3.20816 97.5996 4.87566 96.854 6.69171 96.3746C8.66436 95.8545 10.6803 95.7515 12.696 95.8804C14.7591 96.0115 16.7083 96.6455 18.3523 97.9348C19.9382 99.1749 20.7376 100.83 20.5313 102.895C20.5248 103.102 20.5077 103.308 20.4799 103.514C20.123 105.138 18.9195 106.148 17.2197 106.23C15.2597 106.37 13.5577 104.893 13.4182 102.936C13.3793 102.388 13.4676 101.838 13.676 101.33C13.8162 100.96 14.0361 100.625 14.3202 100.35C14.6043 100.074 14.9456 99.8645 15.3199 99.7356C15.6423 99.624 15.6553 99.5831 15.4618 99.321C14.8429 98.4872 13.9661 98.0465 12.9861 97.8811C12.0269 97.7068 11.042 97.7331 10.0935 97.9585C8.51618 98.3474 7.51253 99.3296 7.13219 100.907C6.99281 101.451 6.91712 102.009 6.90663 102.57C6.90663 103.655 7.50189 104.446 8.30768 105.095C9.16958 105.789 10.1795 106.159 11.2561 106.331C11.5871 106.383 11.6709 106.501 11.6537 106.8C11.6344 107.098 11.6537 107.38 11.6537 107.67M129.807 95.799V117.96C129.807 118.063 129.796 118.168 129.807 118.271C129.832 118.531 129.689 118.602 129.467 118.581C128.767 118.514 128.068 118.428 127.367 118.377C126.871 118.337 126.372 118.33 125.874 118.355C125.152 118.4 124.432 118.497 123.712 118.572C123.269 118.615 123.246 118.591 123.233 118.166V95.7968C125.415 96.0779 127.624 96.0787 129.807 95.799ZM122.844 86.2271C122.1 86.2766 121.357 86.0918 120.718 85.7008C120.087 85.2988 119.848 84.4457 120.035 83.7171C120.12 83.3618 120.314 83.042 120.59 82.8026C120.866 82.5632 121.21 82.4164 121.574 82.3826C122.425 82.2988 123.009 82.6984 123.474 83.3432C123.757 83.7301 124.006 84.1362 124.29 84.5187C124.451 84.7335 124.632 84.9328 124.83 85.114C124.918 85.2054 125.037 85.2619 125.163 85.2729C125.29 85.284 125.416 85.2489 125.519 85.1741C125.745 85.0324 125.891 84.8238 125.831 84.5446C125.769 84.3034 125.689 84.0671 125.593 83.8374C125.339 83.1606 125.044 82.4965 124.83 81.8066C124.462 80.6247 125.231 79.2277 127.004 79.5222C127.518 79.6082 127.832 79.9908 128.09 80.3948C128.399 80.8804 128.554 81.4091 128.3 81.9851C128.025 82.6104 127.754 83.2379 127.488 83.8697C127.393 84.0997 127.301 84.3318 127.226 84.5682C127.185 84.6772 127.183 84.7968 127.219 84.9073C127.255 85.0178 127.328 85.1126 127.425 85.1763C127.529 85.2504 127.656 85.2839 127.782 85.2705C127.909 85.257 128.026 85.1975 128.111 85.1033C128.231 84.9894 128.337 84.8625 128.429 84.725C128.777 84.2308 129.104 83.7322 129.465 83.24C129.916 82.6319 130.486 82.2602 131.296 82.2343C132.512 82.1976 133.052 83.0746 132.987 84.1275C132.927 85.1118 132.265 85.7952 131.193 85.9821C130.52 86.1004 129.835 86.1519 129.155 86.2121C128.603 86.2616 128.36 86.3905 128.328 86.7021C128.294 87.0138 128.528 87.2007 129.076 87.2779C129.693 87.3641 130.312 87.4198 130.92 87.5016C131.208 87.5445 131.492 87.6069 131.771 87.6887C132.974 88.0345 133.187 89.0574 132.865 90.1319C132.643 90.8627 131.565 91.4515 130.718 91.0389C130.172 90.7787 129.703 90.381 129.358 89.8849C129.093 89.4871 128.809 89.102 128.509 88.7308C128.15 88.3224 127.853 88.243 127.593 88.3912C127.31 88.5526 127.236 88.7802 127.434 89.3325C127.675 89.9945 127.965 90.6391 128.266 91.2731C128.481 91.7516 128.526 92.289 128.395 92.7968C128.145 93.9099 126.835 94.4493 125.833 93.8755C125.334 93.5919 125.135 93.1234 125.089 92.5819C125.05 92.0649 125.135 91.5459 125.339 91.069C125.562 90.5316 125.797 89.9987 125.981 89.4486C126.057 89.2186 126.063 88.9736 126.003 88.7394C125.889 88.3569 125.599 88.2731 125.274 88.5009C125.126 88.6119 124.998 88.7478 124.896 88.9027C124.54 89.4143 124.198 89.9364 123.847 90.4522C123.351 91.185 122.663 91.5373 121.776 91.4663C121.401 91.4281 121.052 91.2581 120.791 90.9866C120.529 90.7151 120.373 90.3597 120.349 89.9837C120.261 88.5803 120.998 87.9722 122.191 87.7917C122.784 87.7013 123.379 87.6175 123.97 87.5209C124.133 87.502 124.292 87.4539 124.438 87.3791C124.492 87.3509 124.539 87.3125 124.577 87.2661C124.615 87.2197 124.644 87.1663 124.661 87.1088C124.679 87.0513 124.685 86.991 124.679 86.9312C124.673 86.8713 124.656 86.8132 124.628 86.7602C124.615 86.7343 124.597 86.7107 124.58 86.687C124.495 86.5549 124.38 86.4454 124.243 86.3679C124.106 86.2904 123.953 86.2473 123.796 86.2421C123.527 86.2185 123.257 86.2273 122.844 86.2273" fill="#005C9E"/>
<path d="M73.4971 106.338V107.004C73.4971 108.279 73.5358 109.544 73.4865 110.81C73.4456 111.882 73.3017 112.951 72.8698 113.954C72.3024 115.286 71.2901 115.938 69.859 115.938C68.806 115.938 68.129 115.357 67.7572 114.459C67.5376 113.88 67.4113 113.27 67.3832 112.652C67.3274 111.85 67.3382 111.046 67.583 110.243C67.8691 109.254 68.531 108.416 69.427 107.909C70.6734 107.198 72.0614 106.826 73.4971 106.338Z" fill="white"/>
<mask id="mask0_2418_26227" style="mask-type:luminance" maskUnits="userSpaceOnUse" x="3" y="0" width="128" height="90">
<path d="M3.33984 0H130.424V89.1242H3.33984V0Z" fill="white"/>
</mask>
<g mask="url(#mask0_2418_26227)">
<mask id="mask1_2418_26227" style="mask-type:luminance" maskUnits="userSpaceOnUse" x="3" y="0" width="128" height="89">
<path d="M3.60938 44.5629C3.60938 68.907 31.9101 88.6414 66.8232 88.6414C101.734 88.6414 130.036 68.907 130.036 44.5629C130.036 20.2188 101.734 0.484375 66.8232 0.484375C31.9101 0.484375 3.60938 20.2188 3.60938 44.5629Z" fill="white"/>
</mask>
<g mask="url(#mask1_2418_26227)">
<path d="M130.036 88.6408H3.60938V0.484375H130.036V88.6408Z" fill="url(#paint0_linear_2418_26227)"/>
</g>
</g>
<path d="M67.2456 0.484375C73.4843 6.29542 72.775 14.6571 69.9404 19.0519C69.9404 19.0519 45.8457 43.0049 43.1507 45.6975C40.4581 48.3903 38.049 52.3574 41.7346 56.4685C45.4201 60.5796 72.3495 89.9181 72.3495 89.9181L67.2456 90.4853L39.0418 59.303C39.0418 59.303 35.0725 56.1848 32.8053 49.0996C30.5382 42.012 33.5145 36.3429 36.349 33.0829C39.1836 29.8227 67.2454 0.484375 67.2454 0.484375" fill="white"/>
<path d="M80.7089 14.9395C80.7089 14.9395 54.2048 41.3015 51.2285 45.838C48.2522 50.3725 46.6918 64.4056 56.0465 68.9401C56.0465 68.9401 52.0773 61.5688 66.3941 49.5235C80.7088 37.4741 92.898 28.6868 80.7089 14.9395ZM93.6074 29.3959C93.6074 29.3959 67.1012 55.758 64.1249 60.2945C61.1506 64.8312 59.5904 78.862 68.9451 83.3965C68.9451 83.3965 64.976 76.0275 79.2905 63.9799C93.6072 51.9328 105.797 43.1454 93.6074 29.3959Z" fill="white"/>
<defs>
<linearGradient id="paint0_linear_2418_26227" x1="66.8619" y1="88.5823" x2="66.8619" y2="0.46844" gradientUnits="userSpaceOnUse">
<stop stop-color="#B54D87"/>
<stop offset="0.004" stop-color="#B14C87"/>
<stop offset="0.008" stop-color="#AD4B87"/>
<stop offset="0.012" stop-color="#A84A87"/>
<stop offset="0.016" stop-color="#A34987"/>
<stop offset="0.02" stop-color="#9E4786"/>
<stop offset="0.023" stop-color="#994686"/>
<stop offset="0.027" stop-color="#944586"/>
<stop offset="0.031" stop-color="#8F4486"/>
<stop offset="0.035" stop-color="#8A4386"/>
<stop offset="0.039" stop-color="#854286"/>
<stop offset="0.043" stop-color="#804086"/>
<stop offset="0.047" stop-color="#7B3F86"/>
<stop offset="0.051" stop-color="#763E85"/>
<stop offset="0.055" stop-color="#713D85"/>
<stop offset="0.059" stop-color="#6C3C85"/>
<stop offset="0.063" stop-color="#673A85"/>
<stop offset="0.066" stop-color="#623985"/>
<stop offset="0.07" stop-color="#5D3885"/>
<stop offset="0.074" stop-color="#583785"/>
<stop offset="0.078" stop-color="#533685"/>
<stop offset="0.082" stop-color="#4E3485"/>
<stop offset="0.086" stop-color="#493384"/>
<stop offset="0.09" stop-color="#443284"/>
<stop offset="0.094" stop-color="#3F3184"/>
<stop offset="0.098" stop-color="#3B3185"/>
<stop offset="0.102" stop-color="#373185"/>
<stop offset="0.105" stop-color="#383487"/>
<stop offset="0.109" stop-color="#38378A"/>
<stop offset="0.113" stop-color="#393B8C"/>
<stop offset="0.117" stop-color="#393E8E"/>
<stop offset="0.121" stop-color="#3A4190"/>
<stop offset="0.125" stop-color="#3A4593"/>
<stop offset="0.129" stop-color="#3B4895"/>
<stop offset="0.133" stop-color="#3B4C97"/>
<stop offset="0.137" stop-color="#3C4F9A"/>
<stop offset="0.141" stop-color="#3D529C"/>
<stop offset="0.145" stop-color="#3D569E"/>
<stop offset="0.148" stop-color="#3E59A0"/>
<stop offset="0.152" stop-color="#3E5DA3"/>
<stop offset="0.156" stop-color="#3F60A5"/>
<stop offset="0.16" stop-color="#3F63A7"/>
<stop offset="0.164" stop-color="#4067A9"/>
<stop offset="0.168" stop-color="#406AAC"/>
<stop offset="0.172" stop-color="#416DAE"/>
<stop offset="0.176" stop-color="#4171B0"/>
<stop offset="0.18" stop-color="#4274B3"/>
<stop offset="0.184" stop-color="#4278B5"/>
<stop offset="0.188" stop-color="#437BB7"/>
<stop offset="0.191" stop-color="#437EB9"/>
<stop offset="0.195" stop-color="#4482BC"/>
<stop offset="0.199" stop-color="#4485BE"/>
<stop offset="0.203" stop-color="#4588C0"/>
<stop offset="0.207" stop-color="#468CC2"/>
<stop offset="0.211" stop-color="#468FC5"/>
<stop offset="0.215" stop-color="#4793C7"/>
<stop offset="0.219" stop-color="#4796C9"/>
<stop offset="0.223" stop-color="#4899CC"/>
<stop offset="0.227" stop-color="#489DCE"/>
<stop offset="0.23" stop-color="#49A0D0"/>
<stop offset="0.234" stop-color="#49A3D2"/>
<stop offset="0.238" stop-color="#4AA7D5"/>
<stop offset="0.242" stop-color="#4AAAD7"/>
<stop offset="0.246" stop-color="#4BAED9"/>
<stop offset="0.25" stop-color="#4BB1DC"/>
<stop offset="0.254" stop-color="#4CB4DE"/>
<stop offset="0.258" stop-color="#4CB8E0"/>
<stop offset="0.262" stop-color="#4DBBE2"/>
<stop offset="0.266" stop-color="#4EBEE5"/>
<stop offset="0.27" stop-color="#4EC2E7"/>
<stop offset="0.273" stop-color="#4FC5E9"/>
<stop offset="0.277" stop-color="#4DC6E7"/>
<stop offset="0.281" stop-color="#4CC6E4"/>
<stop offset="0.285" stop-color="#49C5DF"/>
<stop offset="0.289" stop-color="#46C4D9"/>
<stop offset="0.293" stop-color="#43C2D4"/>
<stop offset="0.297" stop-color="#40C1CE"/>
<stop offset="0.301" stop-color="#3DC0C8"/>
<stop offset="0.305" stop-color="#3ABEC3"/>
<stop offset="0.309" stop-color="#38BDBD"/>
<stop offset="0.313" stop-color="#35BCB8"/>
<stop offset="0.316" stop-color="#32BAB2"/>
<stop offset="0.32" stop-color="#2FB9AC"/>
<stop offset="0.324" stop-color="#2CB8A7"/>
<stop offset="0.328" stop-color="#29B6A1"/>
<stop offset="0.332" stop-color="#26B59C"/>
<stop offset="0.336" stop-color="#24B496"/>
<stop offset="0.34" stop-color="#21B290"/>
<stop offset="0.344" stop-color="#1EB18B"/>
<stop offset="0.348" stop-color="#1BB085"/>
<stop offset="0.352" stop-color="#18AE80"/>
<stop offset="0.355" stop-color="#15AD7A"/>
<stop offset="0.359" stop-color="#13AC74"/>
<stop offset="0.363" stop-color="#10AA6F"/>
<stop offset="0.367" stop-color="#0DA969"/>
<stop offset="0.371" stop-color="#0AA864"/>
<stop offset="0.375" stop-color="#07A65E"/>
<stop offset="0.379" stop-color="#04A558"/>
<stop offset="0.383" stop-color="#01A453"/>
<stop offset="0.387" stop-color="#03A451"/>
<stop offset="0.391" stop-color="#04A44F"/>
<stop offset="0.395" stop-color="#07A54E"/>
<stop offset="0.398" stop-color="#09A64D"/>
<stop offset="0.402" stop-color="#0CA64C"/>
<stop offset="0.406" stop-color="#0EA74C"/>
<stop offset="0.41" stop-color="#11A84B"/>
<stop offset="0.414" stop-color="#13A94A"/>
<stop offset="0.418" stop-color="#16AA49"/>
<stop offset="0.422" stop-color="#19AA48"/>
<stop offset="0.426" stop-color="#1BAB47"/>
<stop offset="0.43" stop-color="#1EAC47"/>
<stop offset="0.434" stop-color="#20AD46"/>
<stop offset="0.438" stop-color="#23AD45"/>
<stop offset="0.441" stop-color="#26AE44"/>
<stop offset="0.445" stop-color="#28AF43"/>
<stop offset="0.449" stop-color="#2BB043"/>
<stop offset="0.453" stop-color="#2DB042"/>
<stop offset="0.457" stop-color="#30B141"/>
<stop offset="0.461" stop-color="#33B240"/>
<stop offset="0.465" stop-color="#35B33F"/>
<stop offset="0.469" stop-color="#38B33E"/>
<stop offset="0.473" stop-color="#3AB43E"/>
<stop offset="0.477" stop-color="#3DB53D"/>
<stop offset="0.48" stop-color="#3FB63C"/>
<stop offset="0.484" stop-color="#42B63B"/>
<stop offset="0.488" stop-color="#45B73A"/>
<stop offset="0.492" stop-color="#47B83A"/>
<stop offset="0.496" stop-color="#4AB939"/>
<stop offset="0.5" stop-color="#4CBA38"/>
<stop offset="0.504" stop-color="#4FBA37"/>
<stop offset="0.508" stop-color="#52BB36"/>
<stop offset="0.512" stop-color="#54BC35"/>
<stop offset="0.516" stop-color="#57BD35"/>
<stop offset="0.52" stop-color="#59BD34"/>
<stop offset="0.523" stop-color="#5CBE33"/>
<stop offset="0.527" stop-color="#5FBF32"/>
<stop offset="0.531" stop-color="#61C031"/>
<stop offset="0.535" stop-color="#64C031"/>
<stop offset="0.539" stop-color="#66C130"/>
<stop offset="0.543" stop-color="#69C22F"/>
<stop offset="0.547" stop-color="#6BC32E"/>
<stop offset="0.551" stop-color="#6EC32D"/>
<stop offset="0.555" stop-color="#71C42D"/>
<stop offset="0.559" stop-color="#73C52C"/>
<stop offset="0.563" stop-color="#76C62B"/>
<stop offset="0.566" stop-color="#78C72A"/>
<stop offset="0.57" stop-color="#7BC729"/>
<stop offset="0.574" stop-color="#7EC828"/>
<stop offset="0.578" stop-color="#80C928"/>
<stop offset="0.582" stop-color="#83CA27"/>
<stop offset="0.586" stop-color="#85CA26"/>
<stop offset="0.59" stop-color="#88CB25"/>
<stop offset="0.594" stop-color="#8BCC24"/>
<stop offset="0.598" stop-color="#8DCD24"/>
<stop offset="0.602" stop-color="#90CD23"/>
<stop offset="0.605" stop-color="#92CE22"/>
<stop offset="0.609" stop-color="#95CF21"/>
<stop offset="0.613" stop-color="#97D020"/>
<stop offset="0.617" stop-color="#9AD01F"/>
<stop offset="0.621" stop-color="#9DD11F"/>
<stop offset="0.625" stop-color="#9FD21E"/>
<stop offset="0.629" stop-color="#A2D31D"/>
<stop offset="0.633" stop-color="#A4D41C"/>
<stop offset="0.637" stop-color="#A7D41B"/>
<stop offset="0.641" stop-color="#AAD51B"/>
<stop offset="0.645" stop-color="#ACD61A"/>
<stop offset="0.648" stop-color="#AFD719"/>
<stop offset="0.652" stop-color="#B1D718"/>
<stop offset="0.656" stop-color="#B4D817"/>
<stop offset="0.66" stop-color="#B7D917"/>
<stop offset="0.664" stop-color="#B9DA16"/>
<stop offset="0.668" stop-color="#BCDA15"/>
<stop offset="0.672" stop-color="#BEDB14"/>
<stop offset="0.676" stop-color="#C1DC13"/>
<stop offset="0.68" stop-color="#C3DD12"/>
<stop offset="0.684" stop-color="#C6DD12"/>
<stop offset="0.688" stop-color="#C9DE11"/>
<stop offset="0.691" stop-color="#CBDF10"/>
<stop offset="0.695" stop-color="#CEE00F"/>
<stop offset="0.699" stop-color="#D0E10E"/>
<stop offset="0.703" stop-color="#D3E10E"/>
<stop offset="0.707" stop-color="#D6E20D"/>
<stop offset="0.711" stop-color="#D8E30C"/>
<stop offset="0.715" stop-color="#DBE40B"/>
<stop offset="0.719" stop-color="#DDE40A"/>
<stop offset="0.723" stop-color="#E0E509"/>
<stop offset="0.727" stop-color="#E3E609"/>
<stop offset="0.73" stop-color="#E5E708"/>
<stop offset="0.734" stop-color="#E8E707"/>
<stop offset="0.738" stop-color="#EAE806"/>
<stop offset="0.742" stop-color="#EDE905"/>
<stop offset="0.746" stop-color="#EFEA05"/>
<stop offset="0.75" stop-color="#F2EA04"/>
<stop offset="0.754" stop-color="#F5EB03"/>
<stop offset="0.758" stop-color="#F7EC02"/>
<stop offset="0.762" stop-color="#FAED01"/>
<stop offset="0.766" stop-color="#FCEE00"/>
<stop offset="0.77" stop-color="#FDEB01"/>
<stop offset="0.773" stop-color="#FEE901"/>
<stop offset="0.777" stop-color="#FDE502"/>
<stop offset="0.781" stop-color="#FDE103"/>
<stop offset="0.785" stop-color="#FDDE04"/>
<stop offset="0.789" stop-color="#FCDA05"/>
<stop offset="0.793" stop-color="#FCD605"/>
<stop offset="0.797" stop-color="#FCD206"/>
<stop offset="0.801" stop-color="#FBCE07"/>
<stop offset="0.805" stop-color="#FBCB08"/>
<stop offset="0.809" stop-color="#FBC709"/>
<stop offset="0.813" stop-color="#FAC30A"/>
<stop offset="0.816" stop-color="#FABF0B"/>
<stop offset="0.82" stop-color="#FABC0B"/>
<stop offset="0.824" stop-color="#F9B80C"/>
<stop offset="0.828" stop-color="#F9B40D"/>
<stop offset="0.832" stop-color="#F9B00E"/>
<stop offset="0.836" stop-color="#F8AD0F"/>
<stop offset="0.84" stop-color="#F8A910"/>
<stop offset="0.844" stop-color="#F8A511"/>
<stop offset="0.848" stop-color="#F8A111"/>
<stop offset="0.852" stop-color="#F79E12"/>
<stop offset="0.855" stop-color="#F79A13"/>
<stop offset="0.859" stop-color="#F79614"/>
<stop offset="0.863" stop-color="#F69215"/>
<stop offset="0.867" stop-color="#F68F16"/>
<stop offset="0.871" stop-color="#F68B17"/>
<stop offset="0.875" stop-color="#F58717"/>
<stop offset="0.879" stop-color="#F58318"/>
<stop offset="0.883" stop-color="#F58019"/>
<stop offset="0.887" stop-color="#F47C1A"/>
<stop offset="0.891" stop-color="#F4781B"/>
<stop offset="0.895" stop-color="#F4741C"/>
<stop offset="0.898" stop-color="#F3711D"/>
<stop offset="0.902" stop-color="#F36D1D"/>
<stop offset="0.906" stop-color="#F3691E"/>
<stop offset="0.91" stop-color="#F2651F"/>
<stop offset="0.914" stop-color="#F26220"/>
<stop offset="0.918" stop-color="#F25E21"/>
<stop offset="0.922" stop-color="#F15A22"/>
<stop offset="0.926" stop-color="#F15623"/>
<stop offset="0.93" stop-color="#F15323"/>
<stop offset="0.934" stop-color="#F14F24"/>
<stop offset="0.938" stop-color="#F04B25"/>
<stop offset="0.941" stop-color="#F04726"/>
<stop offset="0.945" stop-color="#F04427"/>
<stop offset="0.949" stop-color="#EF4028"/>
<stop offset="0.953" stop-color="#EF3C28"/>
<stop offset="0.957" stop-color="#EF3829"/>
<stop offset="0.961" stop-color="#EE342A"/>
<stop offset="0.965" stop-color="#EE332B"/>
<stop offset="0.969" stop-color="#EE312B"/>
<stop offset="1" stop-color="#EE312B"/>
</linearGradient>
</defs>
</svg>
