<svg width="300" height="59" viewBox="0 0 300 59" fill="none" xmlns="http://www.w3.org/2000/svg">
<path d="M0 0H1.70649L4.60751 0.853243L7.33789 2.04778L9.21503 3.24232L10.9215 4.77816L12.4574 6.6553L13.8225 9.38568L14.5051 11.6041L14.6758 13.1399L14.8464 16.7236V58.8738L13.9932 58.7031L9.89762 57.5086L6.99659 56.1434L4.60751 54.2663L3.41297 52.9011L2.04778 50.512L1.02389 47.7816L0.511946 45.0512L0.341297 43.5154L0.170649 14.8464L0 0Z" fill="#0E418F"/>
<path d="M127.645 14.8477H141.467L143.686 15.5303L145.733 16.5541L147.61 18.09L149.317 20.1378L150.682 22.5268L151.706 25.4279L152.047 27.1344V31.4006L151.365 34.4722L149.829 37.7146L148.293 39.7624L146.245 41.6395L143.856 43.0047L141.467 43.6873H134.641L135.153 41.8101L137.03 37.032L137.201 36.8613L140.784 36.6907L142.491 35.8374L143.344 34.9842L144.539 33.4484L145.221 31.5712L145.392 30.5473V27.817L144.709 25.5985L143.686 23.7214L142.491 22.6975L140.955 22.0149L140.273 21.8443H134.129V43.0047L133.959 43.6873H127.645V14.8477Z" fill="#0E418F"/>
<path d="M106.145 14.6758L106.998 14.8464L108.534 17.0649L109.899 19.1126L113.483 24.4028L117.408 30.2048L118.602 31.57L118.773 31.2287V14.8464H124.746V43.6861H119.285L118.09 42.3209L115.701 38.9079L113.483 35.6656L112.118 33.7884L109.558 30.0342L108.705 29.0103L108.363 28.8396L108.534 30.5461V38.0546L108.363 43.6861H102.391V14.8464L106.145 14.6758Z" fill="#0E418F"/>
<path d="M160.07 14.8477H175.428L174.063 18.4313L172.868 21.6736L172.527 21.8443H161.264L160.411 22.6975L160.582 23.7214L161.435 24.5746L164.677 25.7692L168.773 27.1344L171.674 28.6702L173.551 30.3767L174.575 32.0832L175.428 34.131L175.599 34.9842V36.8613L175.087 38.5678L173.892 40.6156L172.698 41.9808L171.162 43.0047L169.114 43.6873H152.902L153.073 42.6634L154.609 38.2265L155.121 37.032L155.291 36.8613L168.602 36.6907L168.773 35.3255L168.09 34.4722L166.213 33.619L161.093 32.0832L158.363 30.8886L156.657 29.6941L155.462 28.4995L154.268 26.2811L153.926 24.7453V21.8443L154.438 19.7965L155.462 17.9193L156.998 16.3835L159.046 15.189L160.07 14.8477Z" fill="#0E418F"/>
<path d="M84.6419 14.8477H88.7375L89.7614 17.0661L93.5157 26.4518L96.5874 33.9603L98.4645 38.5678L100.342 43.346V43.6873H93.5157L92.8331 42.3221L90.444 36.1787L88.2256 30.5473L86.8604 26.9637L86.5191 26.7931L86.0071 28.3289L84.13 33.1071L82.4235 37.032H88.9082L90.1027 39.4211L91.8092 43.6873H72.8672L73.2085 42.6634L75.5976 36.6907L78.1573 30.5473L81.5703 22.0149L84.4713 15.0183L84.6419 14.8477Z" fill="#0E418F"/>
<path d="M239.076 14.6758H242.659L243.342 15.529L245.39 20.4778L247.437 25.5973L249.826 31.3993L254.605 43.3448V43.6861H248.12L247.437 43.0035L244.707 35.8362L242.83 31.2287L241.294 27.1331L241.123 26.7918H240.782L239.246 31.0581L237.028 36.3482L236.686 37.0308H243.171L243.683 37.884L245.901 43.5154V43.6861H227.471L227.301 43.1741L229.861 36.8601L232.42 30.7168L233.785 27.3038L237.028 19.2833L238.905 14.8464L239.076 14.6758Z" fill="#73AD43"/>
<path d="M26.7919 41.6387H30.2049L33.9592 41.98L36.5189 42.6626L39.2493 43.8571L41.1264 45.2223L42.6623 46.7581L43.8568 48.4646L45.5633 52.0482L47.0991 56.9971V57.6796L41.1264 58.5329L39.2493 58.7035H33.4472L30.3755 58.1916L27.8158 57.509L25.0854 56.1438L23.2083 54.7786L21.1605 52.7308L19.7953 50.5124L18.9421 48.6353L18.0888 46.0755L17.4062 43.0039V42.1506L17.5769 41.98L26.7919 41.6387Z" fill="#0E418F"/>
<path d="M187.031 14.8477H201.024L200.512 16.5541L198.805 21.1617L198.464 21.6736H188.566L187.031 22.1855L185.495 23.2094L184.471 24.5746L183.618 26.4518L183.276 27.9876V30.718L183.959 32.9364L185.154 34.9842L186.348 36.0081L187.713 36.6907L201.024 36.8613L200.512 38.5678L198.464 43.1753L198.123 43.6873H188.908L186.689 43.5166L184.642 42.834L182.764 41.6395L181.058 40.1037L179.863 38.9091L178.328 36.52L177.474 34.3016L176.792 31.2299L176.621 30.0354V28.4995L177.133 25.2572L177.986 22.6975L179.01 20.8204L180.546 18.7726L182.252 17.0661L184.471 15.7009L187.031 14.8477Z" fill="#72AC43"/>
<path d="M31.3982 12.1172H32.0808L32.2515 16.0421V21.6735L31.9102 26.281L31.2276 29.694L30.2037 32.595L29.0091 34.6428L27.132 36.6906L25.9375 37.7145L23.3777 39.0797L20.1354 39.9329L17.5757 40.2742L17.405 40.1036L17.2344 37.2025V28.1582L17.7463 24.7452L18.4289 22.1855L19.2822 20.1377L20.3061 18.2605L21.6712 16.5541L23.3777 15.0182L25.7668 13.653L28.1559 12.7998L31.3982 12.1172Z" fill="#73AD43"/>
<path d="M277.816 14.8477H300L298.806 18.2606L297.611 21.3323L297.27 21.6736H290.956L290.785 43.6873H284.642L284.471 43.5166V21.6736H276.11L275.598 21.503L276.11 19.7965L277.816 14.8477Z" fill="#73AD43"/>
<path d="M256.145 14.8477H275.257L274.745 16.3835L273.039 21.3323L272.868 21.6736H262.629L262.459 43.6873H256.315L256.145 14.8477Z" fill="#73AD43"/>
<path d="M219.282 14.8477H225.596V43.6873H219.452V32.7658L209.555 32.5951L210.067 31.0593L211.944 26.2811L212.114 25.9398H219.452L219.282 21.8443V14.8477Z" fill="#73AD43"/>
<path d="M51.3633 14.8477H57.8479V43.6873H51.3633V14.8477Z" fill="#0E418F"/>
<path d="M202.559 14.8477H208.873V43.6873H202.729L202.559 14.8477Z" fill="#73AD43"/>
<path d="M61.2631 36.8594H72.3552L71.8433 38.5659L70.1368 43.6853H58.1914L59.2153 41.2962L60.7511 37.542L61.2631 36.8594Z" fill="#0E418F"/>
<path d="M263.823 25.7695H269.625L274.574 25.9402L273.721 28.1586L271.843 32.5955L270.82 32.7661H267.065L263.652 32.5955V25.9402L263.823 25.7695Z" fill="#73AD43"/>
</svg>
