<svg width="300" height="72" viewBox="0 0 300 72" fill="none" xmlns="http://www.w3.org/2000/svg">
<path d="M47.112 2.53516L49.2246 2.95769L54.0838 4.43656L57.8866 6.12671L61.0556 7.81685L63.3796 9.50699L66.126 11.8309L68.8725 14.5774L71.1965 17.5352L72.8866 20.2816L74.9993 24.7183L76.2669 28.5211L76.6894 30.845L76.9007 33.169V38.2394L76.2669 43.0985L74.9993 46.4788L72.6753 51.338L71.4077 53.4506L70.5627 55.1408L70.1401 54.9295V54.0845H69.7176L69.5063 53.2394L68.8725 53.0281L67.3937 51.1267V50.7042H66.9711L65.0697 48.169L62.957 45.6337L60.2106 41.8309L57.8866 39.0845L55.3514 35.7042L55.1401 34.8591L58.5204 31.2676L60.8444 28.7323L62.7458 26.6197L64.2246 24.9295L66.7599 22.183L68.2387 20.4929L69.0838 19.4366H69.5063V19.014L68.2387 19.2253L66.3373 19.4366H51.126L49.2246 21.338L47.5345 22.8168L44.9993 26.1971L42.0415 29.1549L40.3514 31.4788H39.9289L39.5063 32.3239L38.0275 33.5915L39.2951 35.4929L40.9852 37.6056L43.5204 41.1971L46.2669 44.9999L48.3796 48.169L50.9148 51.7605L53.0275 54.9295L54.7176 57.2535L55.1401 58.0985L56.1965 59.1549L58.5204 62.9577L58.943 64.014L58.7317 64.8591L55.7739 66.338L51.3373 67.8168L47.3232 68.6619L43.3091 69.0844H36.5486L31.9007 68.6619L27.8866 67.8168L24.7176 66.7605L21.3373 65.0704L19.0134 63.8028L15.4218 61.2676L12.8866 58.9436L10.9852 57.2535L9.7176 55.5633L8.02745 53.4506L5.06971 48.3802L4.01337 45.2112L3.1683 40.9859L2.95703 39.2957V31.6901L3.37957 28.0985L4.4359 24.0845L6.54858 20.0704L8.44999 17.3239L10.1401 15.2112L12.4641 12.676L14.1542 10.9859L16.9007 8.87318L19.8584 6.97178L23.0275 5.28164L26.1965 4.01403L29.1542 3.16896L31.2669 2.74642L31.0556 4.2253L29.9993 6.97178L28.7317 10.9859L27.8866 13.0985L26.8303 16.2676L25.7739 18.8028L24.7176 22.183L22.3937 29.3661L21.5486 31.4788L17.957 42.0422L16.6894 45.6337L15.8444 47.3239L15.6331 48.3802L31.0556 48.169L32.3232 45.6337L34.8584 38.0281L36.126 34.014L39.2951 25.7746L41.1965 19.6478L43.0979 15.2112L44.3655 11.8309L45.4218 8.45065L46.6894 4.2253L47.112 2.53516Z" fill="#01015F"/>
<path d="M179.579 5.28125H190.987L191.621 5.91505L193.734 13.3094L196.269 22.6052L197.325 26.408L198.593 29.9996L199.438 27.0418L200.917 20.7038L202.607 14.3658L204.086 9.08407L204.931 5.70379L205.987 5.28125H217.184L217.396 5.49252L217.607 9.29533V43.0982L216.973 43.3094H210.001L209.79 34.8587V16.4784L207.677 22.8165L207.044 24.9291L206.199 29.1545L204.508 35.7038L202.184 42.6756L201.762 43.3094H195.001L194.156 42.6756L193.734 40.7742L190.353 28.9432L188.875 23.0277L187.818 18.5911L186.973 16.4784L186.551 43.0982L185.706 43.3094H179.156V5.49252L179.579 5.28125Z" fill="#020461"/>
<path d="M264.297 5.28125H280.987L287.114 5.70379L290.283 6.33759L293.241 7.81646L294.719 9.08407L295.987 11.1967L296.621 13.0982L296.832 14.577V18.1686L295.987 20.9151L294.508 23.0277L292.818 24.5066L290.917 25.5629L290.283 25.7742L287.536 25.9855L290.283 28.9432L292.184 31.2672L294.297 33.8024L297.043 38.239L298.733 40.5629L300.001 43.0982L290.494 43.3094L288.804 41.1967L286.691 38.4503L283.522 33.8024L281.832 31.6897L279.508 28.9432L277.818 27.8869L277.184 27.6756L272.325 27.4643V43.0982L268.733 43.3094H264.508L264.297 42.8869V5.28125Z" fill="#010360"/>
<path d="M237.886 5.28125H244.013L245.069 6.33759L246.336 8.45026L248.238 12.6756L250.562 18.5911L252.463 22.8165L254.998 28.9432L256.9 33.5911L257.956 35.9151L259.646 40.3517L260.491 42.6756V43.0982L259.013 43.3094H251.829L250.984 42.0418L249.717 38.4503L248.872 36.1263L248.238 34.8587H232.604L230.914 39.7179L229.646 42.2531L229.013 43.0982L228.379 43.3094H221.196L220.984 42.2531L222.463 37.8165L223.731 35.07L226.477 28.732L227.534 25.7742L228.801 22.3939L230.28 19.2249L232.815 13.0982L234.083 9.71787L235.984 6.12632L236.618 5.49252L237.886 5.28125Z" fill="#010360"/>
<path d="M100.774 5.28125H107.535L108.591 5.49252V21.3376L110.281 19.8587L113.661 16.6897L117.042 13.0982L120.422 9.71787L121.901 8.02773L124.014 5.91505L124.647 5.49252L125.704 5.28125H134.788L135.422 5.70379L134.154 7.39393L130.985 10.3517L125.281 16.0559L123.591 17.5348L121.267 19.8587L121.478 20.9151L123.591 24.0841L125.915 27.4643L127.605 29.9996L130.14 33.5911L133.521 38.6615L135.845 42.2531L136.267 43.3094H126.126L124.859 41.8305L122.323 37.8165L120.633 35.07L118.732 31.901L116.619 28.732L115.563 26.408L114.295 26.8305L111.971 28.732L109.859 30.6334L108.802 31.901L108.591 43.0982H100.563L100.352 42.8869V5.49252L100.774 5.28125Z" fill="#010260"/>
<path d="M36.9708 1.68945H43.5201L46.0553 1.90072L47.1117 2.32326L46.9004 4.22466L45.2103 10.1402L43.5201 14.788L42.4638 17.112L40.7737 21.5486L39.5061 25.774L35.9145 35.0697L34.2244 40.5627L32.323 46.0556L31.2666 48.1683L31.0553 48.3796H15.6328L15.8441 46.9007L17.1117 43.943L19.6469 36.3373L21.7596 30.4218L24.2948 22.8162L25.3511 19.4359L26.4075 16.4782L27.0413 14.788L27.8863 12.4641L28.9427 9.50635L30.6328 4.6472L31.0553 3.59086L31.2666 2.32326L33.8018 1.90072L36.9708 1.68945Z" fill="#FBFCFC"/>
<path d="M68.6615 18.8027H69.7178L69.5065 19.4365H69.084L68.6615 20.2816L67.1826 21.7605L65.7037 23.4506L63.8023 25.5633L61.4784 28.0985L59.9995 29.7886L57.4643 32.5351L55.3516 34.8591L55.7742 35.9154L58.3094 39.2957L60.6333 42.0422L62.746 44.9999L66.9713 50.2816V50.7041H67.3939L68.2389 51.9717L69.084 53.0281L69.7178 53.6619V54.0844H70.1403L70.3516 55.1408L68.4502 57.4647L65.915 59.9999L65.0699 60.6337H64.6474L64.2249 61.4788L60.8446 63.8027L59.7882 64.4365H58.9432L57.4643 61.4788L56.408 59.9999L55.5629 58.521L54.7178 57.8872L54.084 56.6196L51.9713 53.6619L49.6474 50.2816L46.6896 46.0563L44.9995 43.521L42.0418 39.507L39.9291 36.5492L38.2389 34.4365L37.8164 33.5915L39.7178 31.9013L39.9291 31.4788H40.3516L40.7742 30.6337L42.4643 28.521L45.2108 25.7746L47.3234 22.8168L48.8023 21.3379L50.4925 19.8591L51.1263 19.2253H66.3375L68.2389 19.014L68.6615 18.8027Z" fill="#FAFBFC"/>
<path d="M139.648 5.49219H147.677L147.888 5.70346L148.099 28.7316L148.31 32.1119L148.944 33.802L150.212 35.2809L152.536 36.5485L153.592 36.7598H157.817L160.564 35.9147L162.043 34.6471L162.677 33.3795L162.888 31.9006L163.099 7.60486L163.31 5.49219H171.339V33.3795L170.494 36.7598L169.015 39.0837L167.113 40.9851L164.155 42.6753L161.62 43.5204L158.663 43.9429H153.592L149.155 43.3091L146.409 42.2527L144.085 40.7739L141.761 38.4499L140.705 36.3373L140.071 33.802L139.648 29.788V5.49219Z" fill="#020461"/>
<path d="M33.3803 0H45.2113L50.2817 1.05634L54.7183 2.32394L58.9437 4.01408L62.5352 5.91549L65.9155 8.4507L68.662 10.9859L70.7747 13.5211L71.6197 14.5775L72.4648 15.8451V16.2676H72.8873L74.1549 18.5915L75 19.8592L76.9014 23.8732L77.5352 25.1408L78.3803 28.3099L78.8028 30.8451L79.0141 33.169V40.7746L78.3803 44.7887L77.3239 47.9577L75.2113 51.7606L73.7324 54.0845L72.4648 55.7746L70.5634 57.8873L68.0282 60.6338L66.338 62.1127L63.169 64.6479L60 66.7606L56.4085 68.662L52.8169 69.9296L46.9014 71.4084L43.9437 71.6197L42.8873 71.831H35.7042L34.8592 71.6197L32.1127 71.4084L28.7324 70.5634L23.4507 69.0845L18.5915 66.7606L14.1549 63.8028L10.9859 61.0563L8.66197 58.7324L5.91549 55.1408L5.28169 53.8732V53.4507H4.85915L2.95775 49.4366L1.90141 47.3239L0.84507 43.7324L0.211268 41.1972L0 38.8732V34.4366L0.422535 30.4225L1.05634 27.2535L1.69014 25.3521L2.95775 21.9718L4.64789 18.8028L6.76056 15.8451L9.08451 13.0986L13.0986 9.08451L16.6901 6.33803L18.5915 5.07042L20.9155 3.80282L23.2394 2.74648L26.831 1.47887L31.2676 0.422535L33.3803 0ZM36.9718 1.69014L31.9014 2.11268L31.2676 2.32394V2.74648L27.4648 3.59155L24.0845 4.85915L20.7042 6.5493L17.7465 8.23944L15 10.3521L12.4648 12.6761L10.7746 14.3662L8.4507 17.3239L6.97183 19.4366L5.07042 22.8169L4.01408 25.3521L3.16901 29.3662L2.95775 31.6901V39.2958L3.80282 44.3662L4.85915 47.7465L6.33803 50.7042L8.66197 54.2958L10.7746 56.831L14.5775 60.6338L17.7465 62.9577L20.493 64.6479L23.8732 66.338L26.4085 67.3944L29.5775 68.2394L33.8028 68.8732L36.5493 69.0845H43.3099L48.5915 68.4507L52.8169 67.3944L57.2535 65.7042L58.9437 64.6479L60.4225 64.0141L62.7465 62.5352L64.6479 61.0563V60.6338L65.493 60.2113L67.1831 58.7324L68.662 57.2535L70.1408 55.5634V55.1408L70.7747 54.9296L72.4648 51.5493L74.5775 47.5352L75.8451 44.3662L76.4789 42.0423L76.9014 38.2394V33.169L76.4789 29.3662L75.4225 25.9859L74.1549 22.8169L71.831 18.3803L69.7183 15.6338L67.1831 12.8873L65.2817 10.9859L62.3239 8.66197L59.1549 6.76056L55.1408 4.85915L50.7042 3.38028L46.6901 2.11268L46.0563 1.90141L43.5211 1.69014H36.9718Z" fill="#1B76C5"/>
<path d="M158.872 48.8027H164.154L167.111 49.4365L170.069 50.9154L172.182 52.8168L173.449 54.7182L174.295 56.6196L174.717 58.521V62.1126L173.872 64.2253L171.971 66.5492L169.647 68.4506L167.956 69.2957L164.576 69.9295H157.816L155.28 69.2957L153.59 68.4506L151.478 66.5492L150.21 65.0703L148.731 62.1126L148.309 60.845V58.3098L149.154 55.5633L150.633 53.0281L152.534 51.1267L154.647 49.8591L157.604 49.014L158.872 48.8027Z" fill="#9ACAFE"/>
<path d="M69.5068 19.6484L71.4082 20.071L72.4646 21.1273L73.5209 22.6062L74.1547 22.8175L75.8449 27.0428L76.4787 29.3667L76.9012 33.1696V38.24L76.2674 43.0991L74.9998 46.4794L72.6758 51.3386L71.4082 53.4513L70.5632 55.1414L70.1406 54.9301V54.0851H69.7181L69.5068 53.24L68.873 53.0287L67.3941 51.1273V50.7048H66.9716L65.0702 48.1696L62.9575 45.6344L60.211 41.8315L57.8871 39.0851L55.3519 35.7048L55.1406 34.8597L58.5209 31.2682L60.8449 28.7329L62.7463 26.6203L64.2251 24.9301L66.7603 22.1836L68.2392 20.4935L69.0843 19.8597L69.5068 19.6484Z" fill="#01015F"/>
<path d="M178.098 49.2246H190.774L193.732 49.6471L196.267 50.7035L197.957 52.3936L199.436 54.7176L200.07 56.619L200.281 58.7317V62.957L199.225 65.0697L196.901 67.6049L195 68.8725L192.465 69.5063L188.028 69.7176H177.887L177.676 69.5063V54.7176L177.887 49.4359L178.098 49.2246Z" fill="#9ACAFE"/>
<path d="M47.1115 2.53516L49.2242 2.95769L54.0834 4.43656L57.8862 6.12671L61.0552 7.81685L63.3791 9.50699L66.1256 11.8309L68.8721 14.5774L71.196 17.5352L72.8862 20.2816L73.9425 22.3943V22.8168L73.0974 22.3943L72.0411 20.7042L70.1397 19.8591L69.0833 20.0704V19.4366H69.5059V19.014L68.2383 19.2253L66.3369 19.4366H51.1256L49.2242 21.338L47.5341 22.8168L44.9988 26.1971L42.0411 29.1549L40.351 31.4788H39.9284L39.5059 32.3239L38.6608 32.1126L38.2383 31.4788L38.4495 29.5774L38.2383 28.5211L39.7172 24.2957L41.4073 19.2253L43.0974 15.2112L44.365 11.8309L45.4214 8.45065L46.689 4.2253L47.1115 2.53516Z" fill="#020334"/>
<path d="M47.7446 47.7461L48.8009 48.8024L51.5474 52.6052L53.0262 54.9292L54.7164 57.2531L55.1389 58.0982L56.1953 59.1545L58.5192 62.9574L58.9417 64.0137L58.7305 64.8588L55.7727 66.3376L51.3361 67.8165L47.322 68.6616L43.3079 69.0841H36.5474L31.8995 68.6616L27.8854 67.8165L24.7164 66.7602L21.3361 65.07L19.0122 63.8024L15.4206 61.2672L13.7305 59.3658L14.3643 58.9433H16.2657L19.4347 60.2109L21.9699 61.056H23.66L28.3079 60.4221L30.6319 60.2109L32.9558 59.3658L35.9136 58.732L38.66 58.5207L41.4065 58.0982L45.2093 57.0419L47.7446 55.7743L47.9558 55.3517V52.8165L47.5333 50.4926V48.1686L47.7446 47.7461Z" fill="#020232"/>
<path d="M123.59 49.2246H139.224L141.759 49.4359L143.449 50.7035L145.35 53.2387L145.984 54.7176L145.773 55.9852L143.872 58.7317L142.604 59.5767L140.491 60.2105H139.857L140.703 61.2669L141.759 62.1119L143.238 63.8021L145.562 66.5486L147.674 69.295V69.7176H140.703L138.59 66.9711L135.632 63.8021L133.942 62.1119L132.463 61.4781H129.717L129.928 66.5486V69.9288H124.646L123.59 69.7176V49.2246Z" fill="#9ACAFE"/>
<path d="M99.2972 49.0137H107.959L114.508 49.2249L116.621 49.8587L117.889 50.7038L119.156 52.1827L119.79 53.8728V57.8869L118.945 59.1545L117.044 60.8447L115.354 61.4785L111.762 61.901H105.213V69.9292L99.2972 69.7179L99.0859 69.5066V61.6897L99.2972 49.0137Z" fill="#9ACAFE"/>
<path d="M285 49.0137H291.338L293.451 49.4362L295.564 50.4925L297.254 52.1827L298.31 54.2954L298.099 54.9292L297.676 55.1404H293.662L292.183 54.5066L291.338 53.8728V53.0278L289.437 52.6052H286.69L284.578 53.0278L283.31 53.4503L283.521 54.5066L284.366 55.1404L287.747 56.1968L293.662 57.2531L295.775 58.3094L297.887 60.2109L298.944 62.1123L299.155 64.2249L298.521 65.9151L296.62 68.0278L294.507 69.2954L292.395 69.9292L290.704 70.1404H286.057L282.676 69.5066L279.718 68.0278L278.24 66.5489L277.395 64.2249V62.1123L278.451 61.901L282.465 62.3235L282.887 62.5348L283.521 64.6475L284.366 65.2813L286.69 65.9151H289.859L291.972 65.07L292.183 64.6475V62.7461L291.338 61.901L284.789 60.6334L282.042 59.5771L279.93 58.3094L278.451 56.6193L278.028 55.3517L278.451 53.4503L279.507 51.5489L280.986 50.2813L283.521 49.2249L285 49.0137Z" fill="#9ACAFE"/>
<path d="M30.844 2.74609H31.2666L31.0553 4.22497L29.999 6.97145L28.7313 10.9855L27.8863 13.0982L26.8299 16.2672L25.7736 18.8024L24.7173 22.1827L22.3933 29.3658L21.7595 29.7883L20.7032 27.8869L20.9144 24.5067L21.1257 21.9714L20.7032 19.4362L19.8581 18.5912L19.2243 18.8024L15.844 18.5912L12.2525 19.6475L10.3511 20.9151L8.02712 23.2391L5.91445 26.6193L4.64684 29.1545L3.80177 31.4785L3.37924 33.3799H3.16797V29.3658L4.01304 25.3517L5.06938 22.8165L6.97079 19.4362L9.08346 16.4785L11.6187 13.5207L14.1539 10.9855L16.9004 8.87285L19.8581 6.97145L23.0271 5.28131L26.1961 4.0137L29.1539 3.16863L30.844 2.74609Z" fill="#020233"/>
<path d="M204.508 49.0137H209.368L209.579 49.2249L209.79 61.901L210.213 64.4362L211.058 65.2813L212.114 65.7038L213.382 65.9151L216.762 65.7038L218.452 64.8587L219.297 63.5911L219.72 61.6897L219.931 59.7883L220.354 49.0137L225.213 49.2249L225.424 50.7038V64.2249L224.79 66.1263L223.311 67.8165L221.621 69.0841L220.142 69.7179L215.917 70.1404H213.382L210.001 69.7179L207.677 68.8728L205.776 67.6052L204.508 65.4925L204.086 63.3799V49.2249L204.508 49.0137Z" fill="#9ACAFE"/>
<path d="M240.212 48.8027H243.592L246.973 49.4365L249.085 50.4929L251.198 52.3943L252.254 54.0844V54.7182L248.663 55.7746L247.184 55.5633L244.86 53.6619L242.959 52.8168H240.001L238.099 53.4506L236.409 54.9295L235.564 56.8309L235.353 57.676V61.4788L236.198 63.8027L237.043 64.8591L238.733 65.7041L239.367 65.9154H242.747L244.649 65.0703L246.339 63.5915L247.818 61.6901L249.719 62.1126L252.043 63.3802L252.254 63.5915L252.043 65.0703L250.142 67.183L247.818 68.8732L245.283 69.7182L244.015 69.9295H238.311L235.776 69.2957L233.452 68.0281L231.55 66.3379L230.071 64.014L229.438 61.9013V57.676L230.283 54.9295L231.55 53.0281L232.607 51.7605L234.719 50.2816L237.466 49.2253L240.212 48.8027Z" fill="#9ACAFE"/>
<path d="M265.776 49.0137H269.579L275.494 49.2249L275.706 49.4362L275.917 52.6052L269.79 52.8165L268.1 53.0278L267.889 69.9292L262.184 69.7179V52.8165L254.79 52.6052L254.368 52.394L254.156 51.7602V49.4362L256.058 49.2249L265.776 49.0137Z" fill="#9ACAFE"/>
<path d="M160.142 52.6055H163.522L165.635 53.2393L167.747 55.1407L168.592 56.8308L168.804 58.0984V60.4224L168.17 62.535L166.691 64.4365L165.001 65.4928L163.945 65.9153L162.677 66.1266H160.353L157.607 65.2815L156.339 64.4365L155.283 63.1688L154.438 60.8449V57.8872L155.283 55.7745L156.973 53.8731L158.663 53.028L160.142 52.6055Z" fill="#FDFDFD"/>
<path d="M47.5365 1.68945L52.1844 1.90072L52.8182 1.68945L57.0435 3.16833L61.4801 5.281L64.8604 7.60495L67.8182 10.1402L70.3534 12.8866L70.9872 13.943L71.621 14.5768L72.4661 15.8444V16.2669H72.8886L74.1562 18.5909L75.0013 19.8585L76.9027 23.8726L77.5365 25.1402L78.3815 28.3092L78.8041 30.8444L79.0154 33.1683V40.774L78.3815 44.788L77.3252 47.9571L75.2125 51.7599L73.7337 54.0838L72.8886 55.3514L72.4661 55.1402L72.8886 53.8726L73.7337 51.7599L75.6351 46.4782L75.8463 43.7317L76.4801 40.3514L76.6914 38.2388V33.1683L76.2689 29.3655L75.2125 25.9852L73.9449 22.8162L71.621 18.3796L69.5083 15.6331L66.9731 12.8866L65.283 11.1965L62.3252 8.87255L59.1562 6.97114L55.1421 5.06973L50.7055 3.59086L46.6914 2.32326L47.5365 1.68945Z" fill="#6DB1E8"/>
<path d="M272.324 12.2539H284.366L286.479 12.8877L287.535 14.1553L288.169 15.6342V17.7469L287.324 19.6483L286.268 20.7046L285 21.1271L276.55 21.3384H272.324V12.2539Z" fill="#FAFBFC"/>
<path d="M183.59 52.8164H189.294L191.829 53.2389L193.097 54.084L193.942 55.9854L194.153 57.0418V61.6896L193.308 64.2249L192.252 65.2812L190.562 65.7037H184.012L183.801 65.4925L183.59 60.6333V52.8164Z" fill="#FDFDFD"/>
<path d="M33.3801 0H45.211L50.2815 1.05634L52.3941 1.69014L52.6054 2.11268H50.2815L47.7463 1.90141V2.11268L43.5209 1.90141H36.9716L31.2674 2.32394V2.74648L30.4223 3.16901L26.8308 4.01408L24.0843 5.07042L20.704 6.76056L17.7463 8.4507L14.9998 10.5634L12.4646 12.8873L10.9857 14.3662L10.5632 15H10.1406L10.3519 13.7324V13.0986L11.8308 11.4085L13.0984 10.1408L11.8308 10.9859L12.042 10.1408L14.1547 8.23944L17.535 5.70423L19.4364 4.64789L22.1829 3.16901L25.5632 1.90141L29.366 0.84507L33.3801 0Z" fill="#5098DE"/>
<path d="M55.7763 12.2539H59.1566L61.6918 12.8877L64.227 13.7328L65.4946 14.5778L66.1284 15.2117V16.268L65.2833 16.9018L63.5932 17.1131L59.3678 16.6905L58.3115 16.4793L52.8186 16.268L50.2833 16.9018L47.9594 18.3807L46.9031 19.6483L46.6918 20.4933L48.5932 21.1271V21.7609L46.9031 23.6624H45.4242L44.7904 22.8173L43.9453 22.3948L44.1566 21.1271L45.2129 20.2821H45.6355L46.2693 16.6905L47.3256 15.6342L49.4383 14.3666L50.7059 13.7328H51.1284L51.5509 14.1553L52.8186 13.3102L54.72 12.8877L54.9312 12.4652L55.7763 12.2539Z" fill="#01015F"/>
<path d="M75.6328 44.3652H75.8441V46.4779L74.3652 50.7033L73.3089 53.661L72.6751 54.7173L72.4638 55.7737L70.5624 57.8864L68.0272 60.6328L66.337 62.1117L63.168 64.6469L59.999 66.7596L56.4075 68.661L52.8159 69.9286L46.9004 71.4075H45.8441L45.6328 70.5624L47.5342 69.7173L48.3793 69.5061L48.8018 68.661L49.8582 68.2385H50.492V67.8159L54.0835 66.7596L58.0976 65.0695L58.9427 64.4357L60.4215 63.8019L62.7455 62.323L64.4356 61.0554L65.492 59.999L67.1821 58.5202L69.9286 55.5624L70.7737 54.5061L72.2525 51.5483L74.3652 47.5342L75.6328 44.3652Z" fill="#4C95DD"/>
<path d="M239.788 16.0566L240.844 16.4792L242.534 19.8595L244.013 24.0848L245.069 27.2538V28.0989H235.773L235.985 26.62L238.942 17.958L239.365 16.2679L239.788 16.0566Z" fill="#F6F9FC"/>
<path d="M130.353 52.8164H138.593L139.226 53.2389V56.8305L137.959 57.253L135.635 57.4643H129.931L129.508 57.0418L129.297 54.9291L129.508 53.4502L130.353 52.8164Z" fill="#FDFDFD"/>
<path d="M105.422 52.6055H109.014L112.605 52.8167L113.45 53.2393V56.8308L112.394 57.8872L108.802 58.3097H105.633L105.422 58.0984L105.211 55.1407V52.8167L105.422 52.6055Z" fill="#FDFDFD"/>
<path d="M30.8449 2.74609H31.2674L31.0561 4.22497L29.9998 6.97145L29.1547 9.50666L28.5209 9.71792L28.3096 9.29539L28.0984 6.76018L27.4646 6.33764L25.5632 6.12638L23.6618 6.54891L21.1265 7.81652L17.9575 9.92919L14.5772 12.0419L12.2533 13.732L10.1406 15.8447V15.2109L12.4646 12.6757L14.1547 10.9855L16.9012 8.87285L19.8589 6.97145L23.0279 5.28131L26.197 4.0137L29.1547 3.16863L30.8449 2.74609Z" fill="#000006"/>
<path d="M0.211268 31.9023H0.422535L0.633803 39.0854L1.47887 43.3108L3.38028 48.5925L5.07042 51.9728L6.5493 54.2967L8.66197 57.2545L9.29577 57.8883L9.92958 58.9446L10.5634 59.5784L11.6197 60.0009L13.5211 62.1136L17.3239 64.6488L19.8592 66.1277L23.4507 68.0291L28.9437 69.9305L29.3662 70.5643L27.0423 70.1418L23.0282 68.8742L18.5915 66.7615L14.1549 63.8038L10.9859 61.0573L8.66197 58.7333L5.91549 55.1418L5.28169 53.8742V53.4516H4.85915L2.95775 49.4376L1.90141 47.3249L0.84507 43.7333L0.211268 41.1981L0 38.8742V34.4376L0.211268 31.9023Z" fill="#539ADF"/>
<path d="M56.6192 64.0137H57.8868L58.5206 64.6475V65.07L55.1403 66.5489L51.3375 67.8165L47.3234 68.6616L43.3093 69.0841H36.5487L31.9009 68.6616L27.8868 67.8165L25.3516 66.9714V66.3376L28.9431 67.1827L33.3797 67.6052L35.2811 67.8165H44.7882L48.1685 67.1827L54.2952 66.1263L55.9854 65.2813L56.6192 64.0137Z" fill="#000011"/>
<path d="M76.4771 36.9727H76.6884V40.3529L76.0546 43.7332L74.9982 46.4797L72.6743 51.3389L71.4067 53.4515L70.5616 55.1417L70.1391 54.9304V54.0853H69.7165L69.5053 53.2403L68.8715 53.029L67.3926 51.1276V50.7051H66.9701L66.125 49.4374L66.3363 49.0149L67.1813 49.6487L69.294 49.86H71.4067L72.463 48.3811L75.2095 42.8881L76.4771 36.9727Z" fill="#020336"/>
<path d="M23.873 4.4375H24.9294L24.0843 5.0713L20.704 6.76144L17.7463 8.45158L14.9998 10.5643L12.4646 12.8882L10.9857 14.3671L10.5632 15.0009H10.1406L10.3519 13.7333V13.0995L11.8308 11.4093L13.0984 10.1417L11.8308 10.9868L12.042 10.1417L14.1547 8.24032L17.3237 5.91637L17.9575 6.12764L17.3237 6.76144L19.4364 6.12764L21.7603 5.0713L23.873 4.4375Z" fill="#318AD3"/>
<path d="M35.7061 0H45.2131L50.2836 1.05634L52.3962 1.69014L52.6075 2.11268H50.2836L47.7483 1.90141V2.11268L43.523 1.90141L35.7061 1.69014V1.47887L36.9737 1.26761V0.84507L33.8047 0.422535V0.211268L35.7061 0Z" fill="#318BD3"/>
<path d="M1.05568 27.2539H1.26695V29.7891L0.84441 33.3807V36.7609L1.26695 39.93L2.11202 43.099L3.37962 46.9018L5.4923 51.7609L7.39371 54.7187L9.92892 57.8877L11.1965 59.7891L10.3515 59.5778L9.29511 58.5215L8.66131 57.4652L7.18244 55.5638L5.06976 52.3947L3.37962 49.0145L2.11202 45.8455L0.84441 41.6201L0.421875 39.0849V30.4229L1.05568 27.2539Z" fill="#308AD3"/>
<path d="M60.8441 63.5918H62.1117L61.0553 64.4369L58.9427 65.0707L58.7314 65.9157L56.1962 66.9721L51.9708 68.451L51.1258 69.296L50.492 70.5636L47.323 71.1974L45.8441 71.4087L45.6328 70.5636L47.5342 69.7186L48.3793 69.5073L48.8018 68.6622L49.8582 68.2397H50.492V67.8171L54.0835 66.7608L58.0976 65.0707L58.9427 64.4369L60.4215 63.8031L60.8441 63.5918Z" fill="#318AD3"/>
<path d="M51.5508 2.53516L53.4522 2.74642L57.0437 3.59149L58.9451 4.01403L62.5367 5.91544L65.0719 7.81685L65.2832 8.87318L64.4381 9.08445L61.6916 7.39431L57.8888 5.28164L55.3536 4.01403L51.5508 2.74642V2.53516Z" fill="#99C9FD"/>
<path d="M12.043 60.6348L12.888 61.0573L15.0007 62.7474L19.2261 65.2827L23.2402 67.1841L25.7754 68.4517L28.0993 69.0855L32.1134 69.7193L34.0148 70.5643L33.8035 71.4094H32.1134L29.5782 70.7756L28.9444 70.1418L23.4514 68.2404L19.4373 66.1277L17.3247 64.8601L14.1556 62.7474L12.043 60.846V60.6348Z" fill="#338BD4"/>
<path d="M0.211268 31.9023H0.422535L0.633803 39.0854L1.47887 43.3108L3.38028 48.5925L5.07042 51.9728L6.5493 54.2967L8.66197 57.2545L9.29577 57.8883L9.08451 58.3108L7.39437 56.6207L6.12676 54.7192L5.28169 53.8742V53.4516H4.85915L2.95775 49.4376L1.90141 47.3249L0.84507 43.7333L0.211268 41.1981L0 38.8742V34.4376L0.211268 31.9023Z" fill="#5BA0E3"/>
<path d="M26.8313 1.90234H28.0989L27.2538 2.74741L25.1411 3.59248L24.9299 4.22629L25.5637 4.43755L23.2397 4.86009L20.282 5.91643L18.3806 6.7615H17.3242L17.5355 5.70516L21.3383 3.59248L22.6059 3.38122L26.8313 1.90234Z" fill="#6DB2E8"/>
<path d="M38.0267 29.1543L38.6605 29.5768L38.4493 31.4782L38.6605 32.112L39.2943 32.3233L38.238 33.3796V34.0135L39.5056 35.7036L41.6183 38.4501L42.2521 39.7177L41.6183 39.5064L39.9281 37.1825L38.8718 36.3374L38.4493 35.7036L36.5479 35.9149L35.9141 35.4923L36.1253 34.0135L38.0267 29.1543Z" fill="#03093F"/>
<path d="M23.8739 4.4375H24.9302L24.0852 5.0713L20.7049 6.76144L17.7471 8.45158L17.3246 8.87412L16.6908 8.66285H16.057L14.5781 9.08539L14.7894 7.81778L17.3246 5.91637L17.9584 6.12764L17.3246 6.76144L19.4373 6.12764L21.7612 5.0713L23.8739 4.4375Z" fill="#4993DB"/>
<path d="M45.2097 0.210938L47.5336 0.422205L52.3928 1.68981L52.604 2.11235H50.2801L47.7449 1.90108V2.11235L43.5195 1.90108V1.68981H45.2097L44.9984 0.633473L45.2097 0.210938Z" fill="#4C96DD"/>
<path d="M179.156 13.7324H179.368L179.579 42.6761L182.959 42.8874V43.0986L181.48 43.3099H179.156V13.7324Z" fill="#020232"/>
<path d="M179.579 5.28125H190.987L191.41 5.70379L191.199 6.33759L190.565 5.91505H180.846L179.79 6.12632L179.579 7.18266L179.368 10.9855H179.156V5.49252L179.579 5.28125Z" fill="#102D67"/>
<path d="M5.70312 54.5078L6.5482 54.9303L8.02707 57.043L13.7313 62.7472L15.844 64.2261L16.0552 64.8599L14.9989 64.4374L12.675 62.536L10.1397 60.212L8.66087 58.7332L5.91439 55.1416L5.70312 54.5078Z" fill="#7DBAF0"/>
<path d="M38.0293 29.1543L38.6631 29.5768L38.4519 31.4782L38.6631 32.112L39.2969 32.3233L38.2406 33.3796L37.6068 33.5909V33.1684L36.7617 32.7458L37.3955 30.6332L38.0293 29.1543Z" fill="#040E69"/>
<path d="M205.986 5.28125H217.183L216.972 6.12632L216.549 5.91505H205.141V5.49252L205.986 5.28125Z" fill="#113A78"/>
<path d="M9.50858 15.4219L9.71985 15.8444L7.60717 18.8022L5.70577 21.9712L4.22689 24.9289L4.01562 24.2951L5.07196 21.9712L5.70577 20.4923L6.7621 18.8022L7.60717 17.3233L8.87478 16.2669L9.50858 15.4219Z" fill="#2A85CF"/>
<path d="M40.3539 22.1836H40.9877V23.8737L40.1426 27.254L39.2975 27.6766L38.875 27.4653L39.0863 26.1977L40.1426 23.2399L40.3539 22.1836Z" fill="#050D61"/>
<path d="M56.6211 64.0137H57.8888L58.5226 64.6475V65.07L55.1423 66.5489L54.0859 66.7602L54.2972 66.1263L55.9873 65.2813L56.6211 64.0137Z" fill="#00000B"/>
<path d="M70.9847 16.2676L71.8298 16.6901L73.3086 19.0141L74.7875 21.7605L74.5763 22.1831L72.8861 19.2253H72.041L70.7734 17.3239L70.9847 16.2676Z" fill="#4F98DD"/>
<path d="M163.309 5.49219H171.337V5.91472H163.942L163.52 8.23867H163.309V5.49219Z" fill="#010132"/>
<path d="M100.774 5.28125H107.535L108.38 5.49252V5.91505H100.563L100.352 5.49252L100.774 5.28125Z" fill="#193C77"/>
<path d="M74.7891 20.2812L75.4229 20.9151L77.113 24.0841L77.7468 26.1967L77.5355 26.8305L75.8454 23.4503L74.7891 20.7038V20.2812Z" fill="#4F97DE"/>
<path d="M43.0977 40.9863L44.154 42.0427L46.6892 45.6342L47.5343 47.1131L46.9005 46.9018L45.6329 45.2117L45.4216 44.5779H44.9991L43.0977 41.4089V40.9863Z" fill="#051147"/>
<path d="M63.3815 18.3809H64.8604L65.4942 19.0147L66.3393 19.4372H61.6914V19.2259H62.7477L62.959 18.5921L63.3815 18.3809Z" fill="#112D85"/>
<path d="M12.043 60.6348L12.888 61.0573L15.0007 62.7474L18.381 64.8601L18.5923 65.2827L17.3247 64.8601L14.1556 62.7474L12.043 60.846V60.6348Z" fill="#308AD3"/>
<path d="M72.4642 51.3379H72.6755V52.8168L70.9854 55.352L70.3516 55.1407L72.253 51.5492L72.4642 51.3379Z" fill="#2B86D0"/>
<path d="M59.1562 6.75977L60.4239 6.97103L62.3253 8.23864L64.4379 9.92878L65.283 10.9851L64.4379 10.5626L62.3253 8.87244L59.1562 6.97103V6.75977Z" fill="#3D8CD6"/>
<path d="M16.0547 64.8594L17.3223 65.0706L20.28 66.9721L20.7026 67.1833V67.6059L19.435 67.1833L16.266 65.2819L16.0547 64.8594Z" fill="#83BEF3"/>
<path d="M9.5082 15.4219L9.71947 15.8444L7.60679 18.8022L6.97299 19.436L6.76172 18.8022L7.60679 17.3233L8.87439 16.2669L9.5082 15.4219Z" fill="#2C86D0"/>
<path d="M14.155 10.9863L14.5776 11.1976L12.8874 12.8877L11.4086 14.5779L9.92969 15.8455L10.3522 15.0004L12.2536 12.8877L14.155 10.9863Z" fill="#00001B"/>
<path d="M179.156 41.1973H179.579V42.6761L182.959 42.8874V43.0987L181.48 43.3099H179.156V41.1973Z" fill="#01013C"/>
<path d="M1.05568 27.2539H1.26695V29.7891L0.84441 31.9018L0.421875 32.1131V30.4229L1.05568 27.2539Z" fill="#4E9CDE"/>
<path d="M30.8464 2.74609H31.2689L31.0577 4.22497L30.4239 5.07004V4.0137H30.0013V3.59116L29.1562 3.16863L30.8464 2.74609Z" fill="#071157"/>
<path d="M60.8435 63.5918H62.1111L61.0547 64.4369L58.5195 65.0707L58.9421 64.4369L60.4209 63.8031L60.8435 63.5918Z" fill="#2F87D1"/>
<path d="M76.6914 29.7891H76.9027L77.3252 32.7468V34.6482H77.1139L76.6914 33.1693V29.7891Z" fill="#7EB8F1"/>
<path d="M70.7734 13.9434L71.4072 14.1546L72.4636 15.8448V16.2673H72.8861L73.3086 17.5349L72.2523 16.4786L70.7734 14.3659V13.9434Z" fill="#549BE0"/>
<path d="M13.3086 62.957L14.3649 63.1683L15.8438 64.2246L16.0551 64.8584L14.9987 64.4359L13.3086 63.1683V62.957Z" fill="#85BFF4"/>
<path d="M53.8714 56.4082L54.7165 57.2533L55.139 58.0983L54.9278 58.7321L53.8714 57.4645L53.6602 56.6195L53.8714 56.4082Z" fill="#0D247D"/>
</svg>
