<svg width="154" height="100" viewBox="0 0 154 100" fill="none" xmlns="http://www.w3.org/2000/svg">
<path d="M95.6247 0H125.941L130.617 0.301657L134.086 0.754142L136.65 1.35746L139.516 2.56408L141.024 3.61988L142.231 4.82651L143.438 6.93811L144.192 9.50219L144.343 11.463L143.136 13.8762L141.326 16.2895L139.667 18.0994L138.46 19.306L136.801 20.6635L134.388 22.4734L131.07 24.585L127.902 26.395L123.981 28.3558L119.456 30.3165L114.328 32.2773L108.898 34.0872L102.864 35.8972L95.323 37.8579L90.6473 38.9137L84.4633 40.1204L78.7318 41.0253L74.6594 41.4778L72.2461 41.6287L72.5478 40.8745L74.961 36.5005L76.1677 34.5397L88.3848 34.3889L91.0998 33.9364L94.2672 32.8806L96.6805 31.674L98.3396 30.6182L99.8479 29.4116L101.205 28.2049L102.714 26.2442L103.769 24.1326L104.071 22.9259V20.6635L103.619 19.4569L102.412 18.0994L100.3 17.0436L98.9429 16.742L88.0832 16.5911L86.2732 16.4403L87.1782 14.7812L89.139 11.1613L90.4965 8.74805L92.6081 4.97734L94.5689 1.50828L95.4738 0.150828L95.6247 0Z" fill="#035193"/>
<path d="M80.9943 9.35156L81.1451 9.80405L79.3352 13.1223L77.5252 16.2897L76.7711 16.5913L63.3473 16.7422L60.6323 17.3455L58.2191 18.2504L55.8058 19.4571L53.5433 20.9654L51.7334 22.6245L50.5267 23.8311L49.3201 25.7919L48.7168 27.3001L48.566 28.0543V30.4675L49.1693 31.825L50.2251 33.0316L51.8842 33.9366L54.1467 34.3891L67.2688 34.5399L66.3638 36.3499L64.5539 39.5173L62.4423 43.288L61.0848 45.7012L58.8224 49.7736L58.2191 50.8294L57.9174 50.9802H23.6791L19.7575 50.5277L17.0426 49.9244L15.0818 49.1703L13.4227 48.2653L12.0652 47.2095L10.7078 45.5504L9.50112 43.288L8.44531 40.2714V39.3664L9.50112 37.7073L10.7078 36.199L12.0652 34.5399L14.1768 32.4283L17.4951 29.7134L20.0592 27.9035L23.8299 25.641L27.9023 23.5294L31.6731 21.7195L35.7455 20.0604L41.1753 18.0996L47.3593 16.1388L53.9958 14.3289L60.3307 12.8206L66.213 11.614L73.1512 10.4074L77.3744 9.80405L80.391 9.50239L80.9943 9.35156Z" fill="#6CB34C"/>
<path d="M147.36 2.41406L148.114 2.56489L150.226 4.224L152.036 6.03395L153.243 7.99472L153.846 9.20134V12.5196L152.639 14.9328L151.734 16.4411L150.075 18.5527L147.662 20.966L145.098 22.9267L143.59 23.9825L141.327 25.4908L140.573 25.7925L140.271 26.6974L138.31 29.5632L136.35 32.1273L134.691 34.088L133.333 35.7472L129.412 39.6687L127.752 41.0262L125.792 42.5344L123.529 44.0427L120.211 45.8527L117.345 47.2101L113.876 48.4167L110.709 49.3217L106.485 50.2267L100.301 50.9808L96.3799 51.1317H89.5926L89.2909 51.8858L87.1793 55.6565L85.2185 59.1256L83.2577 62.7455L82.0511 64.7062L81.7494 64.8571H61.9908L59.125 64.7062L60.03 62.8963L62.1416 59.2764L64.404 55.204L65.7615 52.7908L67.8731 49.0201L69.6831 45.8527L70.7389 44.0427L70.8897 43.5902H68.4764L65.7615 43.4394L64.404 43.1378L64.5549 42.8361L66.214 42.5344L73.9063 42.082L79.6378 41.4786L85.9727 40.5737L95.6257 38.9146L102.715 37.4063L109.502 35.5963L113.876 34.2389L118.853 32.5798L124.585 30.3173L128.054 28.809L130.467 27.6024L134.238 25.6416L137.255 23.8317L139.668 22.1726L141.629 20.6643L143.74 18.8544L145.701 16.8936L147.511 14.4803L148.718 12.0671L149.321 9.95549L149.472 9.20134V7.54223L149.019 5.43063L148.265 3.92235L147.36 2.71572V2.41406Z" fill="#035193"/>
<path d="M53.092 0.453125H86.1236L85.9728 1.20727L84.6153 3.62052L82.6546 7.08958L82.0512 8.14538L87.4811 8.29621L87.0286 8.44703V8.74869L83.2579 8.89952L82.8054 9.05035L74.2081 9.80449L68.3258 10.5586L61.6893 11.6144L55.5053 12.8211L49.4721 14.1785L42.6847 15.9885L37.4057 17.6476L32.2775 19.4575L27.9035 21.2675L24.8869 22.6249L22.0211 23.9824L18.7029 25.7923L16.7421 26.9989L14.6305 28.3564L12.9713 29.563L11.1614 30.9205L9.35143 32.5796L8.74811 32.8812L8.44645 33.4846H8.14479L7.84313 34.0879L6.48567 35.5962L4.97737 37.8586L4.0724 39.8194L3.46908 41.931V45.2492L3.92157 46.7575L4.67571 48.2657L5.27903 49.3215L5.1282 49.6232L2.11161 46.6066L0.754147 44.3442L0 42.8359V39.216L1.35747 36.1995L2.71493 34.0879L4.52488 31.9763L5.73152 30.7696L6.93816 29.7138L9.65309 27.6022L11.7647 26.094L12.9713 23.6807L15.0829 20.5133L16.7421 18.4017L18.0995 16.8934L19.1553 15.6868L20.2112 14.631L21.4178 13.5752L23.6802 11.6144L26.546 9.50283L29.1101 7.84372L32.2775 6.03378L34.6908 4.82715L36.9532 3.77135L41.1765 2.26307L44.6455 1.3581L48.1146 0.754782L49.4721 0.603953L53.092 0.453125Z" fill="#6CB34C"/>
<path d="M98.0377 77.8281H101.054L103.468 78.4314L105.277 79.4872L106.786 80.9955L107.992 83.2579L108.445 84.9171L108.596 87.1795L108.294 89.7436L107.54 92.3077L106.182 94.8717L104.976 96.38L103.92 97.4358L101.808 98.7933L99.6968 99.6983L98.1885 99.9999H95.0211L93.0603 99.5474L91.4012 98.6425L89.742 97.1342L88.5354 95.0226L87.9321 93.0618L87.7812 92.006V90.1961L88.2337 87.4811L88.9879 85.2187L90.0437 83.1071L91.4012 81.2972L92.457 80.2414L94.1161 79.1856L95.6244 78.4314L98.0377 77.8281Z" fill="#045292"/>
<path d="M126.393 78.1289H129.56L132.275 78.4306L134.236 79.1847L135.744 80.5422L136.649 81.7488L137.403 83.2571L137.856 84.9162L138.007 86.1228V87.9328L137.554 90.7985L136.649 93.2118L135.442 95.3234L133.632 97.2841L132.124 98.3399L129.862 99.2449L127.147 99.6974H117.795L117.645 99.3957L119.153 92.156L121.566 80.5422L122.019 78.4306L122.169 78.2797L126.393 78.1289Z" fill="#055292"/>
<path d="M147.359 2.41406L148.113 2.56489L150.224 4.224L152.034 6.03395L153.241 7.99472L153.844 9.20134V12.5196L152.638 14.9328L151.733 16.4411L150.073 18.5527L147.66 20.966L145.096 22.9267L143.588 23.9825L141.325 25.4908L140.571 25.7925L140.42 26.245L139.214 26.8483L137.555 27.9041L133.181 30.1665L128.807 32.2781L124.282 34.088L118.701 36.0488L112.366 37.8588L108.294 38.9146L101.205 40.272L95.4732 41.3278L90.1942 42.0819L85.066 42.6853L77.6753 43.2886L73.6029 43.5902H71.0388L70.888 43.8919V43.5902H68.4747L65.7598 43.4394L64.4023 43.1377L64.5532 42.8361L66.2123 42.5344L73.9046 42.0819L79.6361 41.4786L85.971 40.5737L95.624 38.9146L102.713 37.4063L109.5 35.5963L113.874 34.2389L118.852 32.5798L124.583 30.3173L128.052 28.809L130.466 27.6024L134.236 25.6416L137.253 23.8317L139.666 22.1726L141.627 20.6643L143.739 18.8544L145.699 16.8936L147.509 14.4803L148.716 12.0671L149.319 9.95549L149.47 9.20134V7.54223L149.018 5.43063L148.264 3.92235L147.359 2.71572V2.41406Z" fill="#6CB34C"/>
<path d="M77.0733 78.1289H78.8832L81.4473 78.2797L82.8048 78.5814L84.3131 79.4864L85.2181 80.693L85.8214 82.2013L85.9722 83.1062V84.6145L85.5197 86.4245L84.7656 87.9328L83.559 89.1394L81.749 90.0444L80.2407 90.4968H79.6374L80.9949 92.4576L82.654 95.625L84.1623 99.2449V99.6974H79.6374L79.1849 98.9432L77.6766 95.0217L76.47 92.4576L75.565 91.4018L74.2075 90.9493L71.4926 90.7985L70.7385 94.72L69.6826 99.5466L69.5318 99.6974H65.3086L65.4594 98.0383L68.3252 84.4637L69.5318 78.4306L69.6826 78.2797L77.0733 78.1289Z" fill="#055392"/>
<path d="M82.0512 8.14453L87.4811 8.29536L87.0286 8.44619V8.74785L83.2579 8.89867L82.8054 9.0495L74.2081 9.80364L68.3258 10.5578L61.6893 11.6136L55.5053 12.8202L49.4721 14.1777L42.6847 15.9876L37.4057 17.6467L32.2775 19.4567L27.9035 21.2666L24.8869 22.6241L22.0211 23.9815L18.7029 25.7915L16.7421 26.9981L14.6305 28.3555L12.9713 29.5622L11.1614 30.9196L9.35143 32.5787L8.74811 32.8804L8.44645 33.4837H8.14479L7.84313 34.087L6.48567 35.5953L4.97737 37.8577L4.0724 39.8185L3.46908 41.9301V45.2483L3.92157 46.7566L4.67571 48.2649L5.27903 49.3207L5.1282 49.6224L2.11161 46.6058L0.754147 44.3434L0 42.8351V39.2152L1.35747 36.1986L2.71493 34.087L4.52488 31.9754L5.73152 30.7688L6.93816 29.713L9.65309 27.6014L11.7647 26.0931L14.178 24.5848L15.9879 23.6799L18.8537 22.1716L22.7753 20.3616L26.9985 18.7025L30.7692 17.3451L35.7466 15.686L39.5173 14.6302L42.2323 13.876L46.1538 12.971L49.9246 12.0661L56.4102 10.8594L61.0859 10.1053L68.4766 9.20033L74.6606 8.59702L80.9954 8.29536L82.0512 8.14453Z" fill="#055391"/>
<path d="M58.6724 78.1289L59.1249 78.2797L59.5774 80.2405L62.4431 98.1891L62.594 99.6974H58.5216L58.2199 98.9432L57.6166 95.1725L57.3149 95.0217H49.4718L48.7177 96.2283L46.9077 99.5466L46.606 99.6974H42.3828L42.6845 98.7924L44.4944 95.4742L46.4552 92.0051L48.5668 88.2344L50.0751 85.5195L52.1867 81.7488L54.1475 78.4306L54.2983 78.2797L58.6724 78.1289Z" fill="#055292"/>
<path d="M15.6843 77.8281H18.7009L20.5109 78.2806L22.3208 79.1856L23.5275 80.2414L24.5833 81.9005L25.3374 83.8613V84.7662L25.0358 84.9171L22.0192 85.2187H21.1142L20.5109 83.5596L19.7567 82.5038L18.3993 81.9005H15.986L14.3269 82.5038L12.8186 83.8613L11.9136 85.2187L11.1595 86.8778L10.707 88.6878L10.5561 89.7436V92.006L11.0086 93.8159L11.9136 95.1734L13.1202 95.9275L13.7236 96.0784H15.6843L17.1926 95.4751L18.7009 94.1176L19.7567 92.006L20.2092 91.8552L24.1308 92.4585L24.2816 92.911L22.9242 95.4751L21.7175 96.9833L20.3601 98.19L18.5501 99.2458L16.7401 99.8491L15.8352 99.9999H12.9694L11.0086 99.5474L9.3495 98.6425L8.14286 97.5867L7.23789 96.2292L6.48374 94.4193L6.03125 92.006V89.7436L6.33291 87.3303L7.08706 84.9171L8.14286 82.8055L9.65116 80.8447L11.1595 79.6381L12.6677 78.7331L14.9302 77.979L15.6843 77.8281Z" fill="#055392"/>
<path d="M98.1894 81.5977H100.301L101.659 82.0501L102.865 82.9551L103.77 84.4634L104.072 85.3684V88.3849L103.619 90.3457L102.714 92.4573L101.508 94.1164L100.452 95.1722L98.6419 96.0772L96.6811 96.3788L94.8712 95.9264L93.6645 95.0214L92.7596 93.8148L92.3071 92.6081L92.1562 91.7032V90.1949L92.6087 87.7816L93.3629 85.8209L94.4187 84.1617L95.6253 82.8043L96.832 82.0501L98.1894 81.5977Z" fill="#FDFDFD"/>
<path d="M30.3194 78.2812H34.8443L32.7326 88.3868L31.3752 94.7216L31.0735 95.9282H41.9332L41.6316 97.4365L41.0283 99.6989H25.9453L26.0961 98.3414L30.1685 78.7337L30.3194 78.2812Z" fill="#055392"/>
<path d="M125.942 81.75H129.261L131.071 82.0517L132.428 82.9566L133.333 84.7666L133.484 85.3699V88.3865L133.031 90.6489L132.126 92.6096L131.221 93.9671L130.015 95.1737L128.808 95.777L127.451 96.0787H122.926L123.077 94.5704L125.641 82.2025L125.942 81.75Z" fill="#FDFDFD"/>
<path d="M113.724 78.2812H118.098L117.797 80.0912L116.59 85.8227L114.327 96.6823L113.724 99.3972L113.573 99.6989H109.35L109.199 99.3972L111.16 89.895L113.573 78.4321L113.724 78.2812Z" fill="#055392"/>
<path d="M73.4551 81.75L79.79 81.9008L80.8458 82.3533L81.4491 83.1075L81.5999 84.1633L80.9966 85.6715L80.3933 86.4257L79.0358 87.1798L77.3767 87.4815H72.2485L72.0977 87.1798L73.3043 81.9008L73.4551 81.75Z" fill="#FDFDFD"/>
<path d="M55.6562 83.1074H55.9578L56.2595 84.314L57.0136 89.593V91.2522H50.9805L51.2821 90.498L54.1479 85.6715L55.6562 83.1074Z" fill="#FDFDFD"/>
<path d="M133.934 29.4121L134.236 29.5629L131.37 31.0712L127.75 32.7303L122.622 34.6911L117.192 36.501L112.365 37.8585L111.008 38.0093L111.46 37.7077L117.946 35.7469L123.527 33.7861L129.258 31.5237L132.727 30.0154L133.934 29.4121Z" fill="#FDFDFD"/>
<path d="M83.4062 8.29492H87.4786L87.0262 8.44575V8.74741H84.7637L83.4062 8.44575V8.29492Z" fill="#68AF4E"/>
</svg>
