<svg width="300" height="70" viewBox="0 0 300 70" fill="none" xmlns="http://www.w3.org/2000/svg">
<path d="M201.507 35.6328H205.708L206.953 36.5664L208.664 38.1224L209.909 39.2116L211.776 40.9233L214.888 43.7241L216.756 45.1245L217.067 45.2801V35.7884H224.847V54.9274H218.467L217.378 53.8382L215.666 52.4378L214.577 51.3486L212.865 49.9482L211.776 48.8589L210.531 47.7697L208.975 46.3693L207.575 45.2801L207.419 52.749L207.264 54.9274H199.484L199.328 54.7718V35.7884L201.507 35.6328Z" fill="#4FACE6"/>
<path d="M139.574 35.7891H147.509L147.665 42.4799H156.534V35.7891H164.625V54.7725L164.47 54.9281H156.534L156.379 47.6148H147.665L147.509 54.9281H139.574L139.418 54.4613V36.2559L139.574 35.7891Z" fill="#4EABE5"/>
<path d="M0.155602 35.7891H7.93568L8.09128 42.4799H17.2718V35.7891H25.2075V54.9281H17.2718L16.9606 47.6148H7.93568V54.9281H0.155602L0 54.6169V39.3679L0.155602 35.7891Z" fill="#4EABE5"/>
<path d="M67.2209 35.6328L72.9782 35.7884L73.9118 37.5L75.4678 40.1453L76.4014 41.7013L77.0238 42.9461L78.2686 44.9689L80.7583 49.4814L82.6255 52.749L83.7147 54.6162L83.5591 54.9274H75.9346L75.1566 54.7718L74.223 53.0602L73.6006 52.2822H63.4865L63.3309 53.0602L62.8641 53.6826L62.3973 54.7718L61.7749 54.9274H53.6836L53.8392 54.305L54.306 53.8382L54.7728 52.749H55.084L55.5508 51.3486L56.1732 50.1038L56.64 49.7926L57.1068 48.5477L57.5736 48.0809L57.8848 47.1473L58.3516 46.8361L58.6628 45.7469L59.1296 45.5913L59.4409 44.5021L59.9077 44.1909L60.2189 42.9461H60.6857L61.1525 41.5457H61.6193L61.7749 40.4565L62.3973 39.6785L62.7085 38.7448L63.1753 38.5892L63.4865 37.5L63.9533 37.1888L64.4201 35.944L64.5757 35.7884L67.2209 35.6328Z" fill="#4EABE5"/>
<path d="M257.055 35.166H260.323L262.812 35.4772L264.991 35.944L267.325 36.722L269.347 37.8112L271.059 39.0561L272.304 40.3009L273.082 41.3901L273.549 42.3237L273.704 42.9461L272.771 43.1017H265.924L264.991 42.6349V42.0125L264.213 41.7013L262.657 40.9233L261.101 40.4565H257.522L255.343 41.0789L253.787 42.0125L253.009 42.7905L252.387 44.0353V46.3693L253.165 47.9253L254.41 49.0146L256.277 49.7926L258.455 50.1038L260.945 49.9482L262.345 49.637L264.213 48.7034L265.924 47.3029H273.86L273.704 48.0809L272.771 49.7926L271.059 51.6598L269.503 52.749L267.325 53.8382L264.213 54.7718L262.034 55.083L260.167 55.2386H257.833L254.565 54.9274L251.609 54.1494L249.742 53.3714L248.03 52.4378L246.007 50.5706L244.918 49.0146L244.14 46.9917L243.984 46.2137V44.1909L244.762 41.5457L245.852 40.1453L247.096 38.7449L249.275 37.3444L250.52 36.722L253.32 35.7884L255.654 35.3216L257.055 35.166Z" fill="#4FACE6"/>
<path d="M286.15 35.166H289.573L291.907 35.4772L294.086 35.944L296.264 36.8776L297.976 38.1224L298.754 38.9005L299.065 39.3673L299.532 40.7677L299.687 41.5457L299.532 41.7013H292.841L291.752 41.5457L291.44 40.3009L289.884 39.6785L288.951 39.5229H287.239L285.527 40.1453L285.372 40.4565V41.7013L286.617 42.3237L288.173 42.7905L293.152 43.7241L294.864 44.1909L296.886 44.9689L298.598 46.0581L299.687 47.3029L299.998 48.3921V50.415L299.532 51.5042L298.131 53.0602L296.886 53.8382L294.086 54.7718L290.818 55.2386H286.928L283.971 54.9274L281.482 54.1494L279.926 53.3714L278.525 52.2822L277.592 51.0374L277.125 50.1038V48.859L277.592 48.7034H282.882L285.061 48.859L285.372 49.9482L286.928 50.7262L287.395 50.8818H290.04L291.596 50.2594L291.752 49.3258L291.44 48.5478L290.196 47.9253L288.484 47.4585L283.971 46.6805L280.704 45.5913L278.837 44.5021L277.747 43.2573L277.125 41.5457L277.281 39.9897L278.059 38.4336L278.837 37.6556L280.393 36.5664L282.727 35.7884L284.905 35.3216L286.15 35.166Z" fill="#4FACE6"/>
<path d="M31.4329 35.7891H50.5719V39.9903H39.213V42.9467H49.6383V47.3036H39.213V50.4156L51.1943 50.5712V54.9281H31.4329L31.2773 47.926V35.9447L31.4329 35.7891Z" fill="#4EABE5"/>
<path d="M109.543 35.7891H135.062V40.6127L134.906 40.7683H126.348V54.9281H118.412V40.7683H114.367L109.543 40.6127V35.7891Z" fill="#4EABE5"/>
<path d="M87.4492 35.7891H95.5405V49.9488H107.055V54.9281H87.6048L87.4492 52.1272V35.7891Z" fill="#4EABE5"/>
<path d="M178.631 43.1016L179.098 43.2572L179.565 44.9688L180.031 45.7468L180.498 47.1472L180.809 47.4584L180.965 49.17H182.365V47.7696L182.988 47.4584L183.299 46.2136L183.766 46.058L184.077 44.6576L184.388 44.502L185.322 45.28L185.789 45.4356L191.235 45.5912L194.347 46.836L195.592 47.614L196.214 48.2364L194.814 49.7924L193.102 51.8153L192.168 52.2821L190.457 52.1265L186.567 50.726L185.944 50.5704L185.789 54.7717L185.633 54.9273H177.542L177.386 54.4605L176.919 54.3049L176.764 51.6596L176.919 50.5704L173.652 51.6596L171.94 52.2821H170.851L169.451 51.504L167.739 49.6368L166.961 48.5476V47.7696L168.361 46.836L170.073 46.2136L170.851 46.058L176.608 45.9024L176.919 45.1244L178.631 43.1016Z" fill="#4FACE6"/>
<path d="M180.654 35.166H183.922L184.855 35.4772L185.789 36.0996V39.9897L190.146 38.4336L190.924 38.1224L192.324 38.278L193.724 39.2117L195.125 40.9233L196.214 42.1681L195.903 42.7905L194.502 43.7241L192.168 44.6577L190.924 44.9689H187.189L186.256 44.6577L185.633 44.3465L185.166 43.4129L184.544 42.7905H184.233L183.922 43.5685L183.455 43.8797L183.144 44.9689L182.677 45.2801L182.21 46.8361L181.587 46.5249L181.121 45.7469L180.809 45.5913L180.343 43.7241L180.031 43.4129L179.565 41.8569L178.942 41.2345H178.631L178.32 42.0125L177.542 42.7905L175.83 45.1245H171.94L168.828 43.8797L167.117 42.9461L166.961 41.8569L167.739 40.9233L168.206 40.4565H168.517L168.673 39.6785L169.451 38.9005L170.851 38.1224H171.94L176.608 39.8341L176.764 36.2552L177.386 35.944L178.009 35.3216L180.654 35.166Z" fill="#4FACE6"/>
<path d="M231.382 35.7891H239.162V54.9281H233.405L231.382 54.7725L231.227 51.5048V35.9447L231.382 35.7891Z" fill="#4FACE6"/>
<path d="M141.908 7.78125H143.93L145.331 8.24805L146.264 9.02606L146.42 10.4265L145.953 11.3601L144.397 12.2937L143.93 12.4493H141.908L140.352 11.6713L139.574 11.0489L139.418 10.7377V9.80407L140.352 8.55926L141.441 7.93685L141.908 7.78125Z" fill="#FA9D3A"/>
<path d="M154.204 7.46875H155.449L157.471 8.24676L158.249 8.86916L158.716 9.80277L158.405 10.7364L157.627 11.5144L155.76 12.448H154.515L152.337 11.3588L151.559 10.4252V9.33597L153.27 7.93555L154.204 7.46875Z" fill="#3270B5"/>
<path d="M160.891 4.82422H161.98L163.536 5.29102L164.47 5.91343L164.781 6.69144V7.93625L164.158 8.71426L162.602 9.49227L161.202 9.64787L158.868 8.86986L158.09 7.93625V6.38023L158.868 5.44663L160.891 4.82422Z" fill="#3271B6"/>
<path d="M136.307 4.97852L137.863 5.13412L138.952 5.60092L140.041 6.53453L140.352 7.15694L140.197 7.77934L139.73 8.24615L139.419 9.02416L137.863 9.64656H135.684L133.661 8.40175L133.506 7.93495L133.039 7.46814L133.817 5.91213L135.217 5.13412L136.307 4.97852Z" fill="#FA9D3A"/>
<path d="M153.737 13.8496L155.604 14.0052L157.316 14.6276L158.094 15.7168L158.249 16.4948L157.783 17.4284L156.849 18.3621L155.76 18.6733H154.359L152.492 18.2065L151.714 17.584L151.559 17.2728V15.25L152.803 14.472L153.737 13.8496Z" fill="#FA9D3A"/>
<path d="M147.976 10.7363H149.999L151.71 11.3587L152.488 12.2923V13.8484L151.866 14.4708L151.71 14.9376L149.843 15.4044L148.132 15.2488L146.264 14.4708L145.953 14.1596V12.1367L147.042 11.2031L147.976 10.7363Z" fill="#3271B6"/>
<path d="M141.755 14.0039H144.711L146.111 14.7819L146.734 15.7155L146.889 16.4935L146.267 17.4271L144.867 18.3608L142.999 18.5164L141.599 18.2051L140.354 17.4271L140.043 16.8047V15.7155L140.51 14.9375L141.755 14.0039Z" fill="#3270B5"/>
<path d="M129.772 2.49023L131.172 2.80144L132.728 3.57945L133.195 4.04625V5.91347L132.417 6.69148L131.95 7.00268L129.46 7.15828L128.371 7.00268L127.904 6.53588L127.126 6.06907V5.60227L126.504 5.29106L126.66 4.51305L126.815 4.20185H127.126L127.438 3.57945L128.838 2.80144L129.772 2.49023Z" fill="#FA9D3A"/>
<path d="M159.49 17.2715H161.357L163.536 18.3607L163.847 18.8275V20.3835L162.136 21.6283H159.023L157.312 20.3835L157.156 19.4499L157.934 18.0495L159.49 17.2715Z" fill="#FA9D3A"/>
<path d="M135.841 17.2715H138.486L140.042 17.8939L140.665 18.6719L140.976 19.1387L140.82 19.7611L139.731 21.0059L138.486 21.6283H136.464L134.596 20.5391L134.285 19.9167L134.441 18.5163L135.219 17.5827L135.841 17.2715Z" fill="#3271B6"/>
<path d="M167.273 2.64453H168.83L170.386 3.26694L171.164 3.88934V5.60096L170.386 6.37897L169.141 7.00138H166.651L165.251 6.06777L164.473 4.97856L164.628 4.35615L165.406 3.57814L166.029 3.11134L167.273 2.64453Z" fill="#3372B7"/>
<path d="M173.808 0.933594H175.675L177.387 1.556L178.476 2.80081L178.32 3.42322L177.542 3.73442V4.51243L175.831 5.29044H174.43L172.563 4.51243L171.941 3.89002L171.785 2.64521L172.719 1.556L173.808 0.933594Z" fill="#3270B5"/>
<path d="M68.4649 42.3242L69.0873 42.6354L69.7097 43.4134L70.1765 44.5026L70.6433 45.125L71.8881 47.6147L72.0437 48.0815L71.4213 48.2371H65.6641L65.9753 46.8367L66.5977 45.9031L66.9089 44.9694L67.3757 44.5026L67.6869 43.569L68.1537 43.2578L68.4649 42.3242Z" fill="#FEFEFE"/>
<path d="M122.77 0.777344L124.326 1.24415L125.57 1.86655L126.348 2.80016L126.193 3.57817L125.726 4.51178L124.014 5.28979H122.147L120.28 4.20058L119.969 3.88938V2.80016L120.28 2.02216L121.525 1.24415L122.77 0.777344Z" fill="#FA9D3A"/>
<path d="M165.404 20.5391H167.583L169.45 21.6283L169.606 22.7175L169.294 23.6511L168.516 24.4291L166.96 24.8959H166.027L163.848 23.8067L163.537 23.4955V22.5619L163.07 22.4063H163.537L163.693 21.3171L164.938 20.6947L165.404 20.5391Z" fill="#FA9D3A"/>
<path d="M130.863 20.3848L132.886 20.5404L134.598 21.6296L134.753 21.7852V23.03L133.975 23.6524L133.353 24.2748L132.108 24.586L130.241 24.4304L128.841 23.4968L128.685 23.03L128.062 22.4076L128.374 22.0964H128.841L128.996 21.3184L129.93 20.5404L130.863 20.3848Z" fill="#3474B9"/>
<path d="M114.99 0H115.924L117.324 0.311203L118.569 1.24481V2.80083L117.791 3.42323L116.235 4.20124H115.146L113.59 3.42323L112.812 2.64523L112.656 1.86722L113.279 1.24481L113.59 0.466805L114.99 0Z" fill="#FA9D3A"/>
<path d="M124.791 23.1855L126.036 23.3411L127.903 24.2748L128.214 24.586V25.9864L127.592 26.2976L126.969 26.92L126.658 27.0756H123.857L122.613 26.2976L122.457 25.9864V24.586L124.013 23.4968L124.791 23.1855Z" fill="#3371B6"/>
<path d="M171.939 23.4961H173.028L174.584 23.9629L175.362 24.5853V25.0521L175.829 25.2077L175.206 26.4525L173.962 27.2305L172.406 27.5417L171.005 26.9193L170.072 26.2969L169.449 25.8301L169.605 25.0521L170.538 24.1185L171.939 23.4961Z" fill="#FA9D3A"/>
<path d="M181.9 0L183.767 0.311203L184.701 0.933609L185.323 1.86722L185.012 2.64523L183.923 3.57884L183.145 3.89004H181.744L180.499 3.42323L179.566 2.64523L179.41 1.71162L180.499 0.466805L181.9 0Z" fill="#3576BA"/>
<path d="M189.366 0L191.078 0.311203L192.167 1.08921L192.322 2.02282L192.011 2.95643L191.233 3.57884L190.766 3.73444H189.21L187.343 2.64523L187.188 1.55602L188.277 0.311203L189.366 0Z" fill="#3372B7"/>
<path d="M178.477 25.9844H179.721L180.655 26.4512L181.589 26.7624L181.744 27.2292V28.474L180.499 29.4076L179.877 29.7188H178.788L177.387 29.0964L176.609 28.474V27.3848L178.01 26.2956L178.477 25.9844Z" fill="#FA9D3A"/>
<path d="M194.504 62.084H195.438L195.904 62.3952L197.149 65.196L198.394 67.3744L198.55 62.084H199.172L199.328 68.9305H198.083L197.305 67.0632L195.593 63.3288L195.282 63.1732V69.0861L194.504 68.9305V62.084Z" fill="#438CCA"/>
<path d="M107.678 0.15625L109.234 0.311852L110.479 1.08986L111.102 1.86787L110.79 2.49027L109.546 3.57948L109.234 3.73509H107.523L106.434 3.11268L105.5 2.17907L105.656 1.55666L106.9 0.467453L107.678 0.15625Z" fill="#FA9D3A"/>
<path d="M117.949 25.9844H119.66L120.905 26.7624L121.372 27.5404L121.061 28.3184L120.283 29.0964L119.193 29.4076L117.637 29.252L116.548 28.6296L115.926 27.8516L116.081 27.2292L117.637 26.14L117.949 25.9844Z" fill="#3372B7"/>
<path d="M100.054 1.40039H101.61L103.166 2.1784V3.42321L101.921 4.35682L100.832 4.51242L99.1204 4.04562L98.9648 3.89002V2.1784L100.054 1.40039Z" fill="#FA9D3A"/>
<path d="M185.011 28.1641H187.034L188.434 29.2533V29.7201L187.968 30.8093L186.256 31.1205L185.011 30.9649L184.544 30.4981L183.922 30.1869V29.0977L184.389 28.6309L185.011 28.1641Z" fill="#FA9D3A"/>
<path d="M196.525 1.40039H197.615L199.171 2.0228L199.482 2.334V3.42321L198.393 4.20122H195.592L195.125 3.57881L195.281 2.1784L196.525 1.40039Z" fill="#387ABD"/>
<path d="M176.918 62.084H181.275V62.3952L178.007 62.7064V65.196L180.652 65.3516V65.6628L178.007 65.8184V67.9968L178.163 68.4636L181.275 68.6193V68.9305L177.074 69.0861L176.918 68.9305V62.084Z" fill="#68A6D8"/>
<path d="M110.632 28.1641H112.655L113.433 28.6309L113.744 28.9421V30.0313L112.811 30.8093L112.344 30.9649H110.788L110.01 30.4981L109.543 30.0313V28.9421L110.632 28.1641Z" fill="#3474B8"/>
<path d="M146.422 61.9297L147.822 62.0853L148.912 63.0189L149.223 63.9525L148.445 64.1081L148.289 63.1745L147.356 62.5521L146.111 62.7077L145.488 63.3301V67.5313L145.8 68.1538L146.422 68.465H147.511L148.289 67.6869L148.445 66.5977H149.067V67.6869L148.134 68.7762L147.356 69.0874H146.266L145.021 68.465L144.555 67.6869V63.1745L145.333 62.3965L146.422 61.9297Z" fill="#4187C6"/>
<path d="M128.527 61.9297L129.772 62.0853L130.706 62.7077L131.328 63.4857L131.017 63.6413L129.772 62.7077L128.527 62.5521L127.594 63.1745L127.438 63.7969V64.1081L128.061 64.4193L130.239 65.9753L131.173 66.9089V67.8425L129.928 68.9318L129.461 69.0874H128.216L127.283 68.465L126.66 67.6869V67.0645L127.283 67.2201L127.749 67.9981L128.527 68.465H129.461L130.395 67.6869L130.239 66.9089L128.061 65.3529L126.816 64.2637L126.66 64.1081L126.816 63.0189L127.905 62.0853L128.527 61.9297Z" fill="#3779BC"/>
<path d="M109.543 62.084H113.589V62.3952L112.033 62.5508H110.321V65.3516H112.966V65.6628H110.321V68.6193H113.589V68.9305L109.699 69.0861L109.543 68.9305V62.084Z" fill="#3879BB"/>
<path d="M162.293 62.084H163.538V68.9305L162.449 69.0861L162.293 68.9305V62.084Z" fill="#4FACE6"/>
<path d="M131.174 21.1621L132.263 21.3177L133.041 22.2513L133.663 22.5625V23.0293H133.352V23.3405L132.419 23.4961L132.574 23.9629L132.263 24.1185L132.885 24.4297L131.329 24.5853L130.24 24.4297L130.707 24.1185L130.085 23.3405L129.773 22.7181L129.929 21.6289L131.018 21.3177L131.174 21.1621Z" fill="#3879BC"/>
<path d="M230.758 62.084H234.959V62.3952L231.691 62.5508V65.3516H234.181V65.6628H231.691V68.6193H234.959V68.9305L231.225 69.0861L230.758 68.7749V62.084Z" fill="#3F86C6"/>
<path d="M167.738 3.57812H168.516L168.828 3.88933L169.761 4.20053V4.51173H170.072V5.13414H169.761V5.60095L168.983 5.91215L168.828 6.37895L167.738 6.22335L167.116 6.06775L166.338 5.60095L165.871 5.13414L166.027 4.20053L166.805 3.73373L167.738 3.57812Z" fill="#3777BA"/>
<path d="M213.951 62.084H215.818L216.908 63.0176L217.219 63.9512L216.596 64.1068L216.13 63.0176L215.352 62.5508L213.951 62.7064L213.329 63.3288V66.9076L213.64 67.9968L214.262 68.4636H215.507L216.285 67.6856L216.596 66.5964H217.063V67.53L216.441 68.4636L215.818 68.9305L214.418 69.0861L213.173 68.4636L212.706 67.9968L212.551 67.53V63.3288L213.484 62.2396L213.951 62.084Z" fill="#4594D1"/>
<path d="M249.272 62.084H250.984L251.917 62.7064L252.229 63.0176L252.073 63.4844L251.606 63.3288L251.139 62.7064L249.739 62.5508L248.805 62.862V63.9512L249.583 64.7292L251.451 65.974L252.229 66.9076V67.8412L251.451 68.7749L250.673 69.0861H249.583L248.494 68.4636L248.027 67.8412V67.0632H248.494L248.961 67.9968L249.583 68.4636H250.828L251.451 67.8412V66.9076L250.361 65.974L248.65 64.8848L248.027 64.2624V63.1732L248.65 62.3952L249.272 62.084Z" fill="#4189C7"/>
<path d="M92.2734 62.084H96.3191V62.3952L93.3626 62.5508L93.207 65.3516H95.6967V65.8184H93.207L93.3626 68.9305L92.7402 69.0861L92.2734 68.9305V62.084Z" fill="#428CCA"/>
<path d="M60.2188 62.084H61.4636V62.862L60.9968 63.9512L61.4636 65.3516V68.4636L64.42 68.6193V68.9305L63.3308 69.0861H61.1524L60.3744 68.9305L60.2188 62.084Z" fill="#4FACE6"/>
<path d="M154.981 8.71289L156.07 8.86849L157.159 9.6465L157.003 10.5801L155.603 11.3581H154.202L153.58 11.0469L153.113 10.1133V9.3353L153.424 9.02409H154.514L154.981 8.71289Z" fill="#3777BA"/>
<path d="M142.686 15.0938H143.775L144.864 15.7162L145.486 16.3386L144.708 17.1166H144.242V17.4278L143.464 17.739L142.219 17.4278L141.596 17.1166L141.285 16.183L142.374 15.2494L142.686 15.0938Z" fill="#3777BA"/>
<path d="M137.242 18.3613L138.798 18.5169L139.421 19.1393L139.265 20.0729L137.398 21.0066L136.309 20.5398V20.2285L135.686 20.0729L135.375 19.4505H135.686L135.997 18.6725L137.242 18.3613Z" fill="#3777BA"/>
<path d="M161.204 6.06836H162.137L162.915 6.37956V6.69077L163.382 6.84637L163.071 7.46877V7.77998L162.137 8.40238H160.737L159.959 7.93558L159.492 7.15757L159.648 6.53516L159.803 6.22396L161.204 6.06836Z" fill="#3777BA"/>
<path d="M124.792 24.1191L126.037 24.4303L127.281 25.2084L127.437 25.6752L126.815 26.2976L125.414 26.6088L124.169 26.4532L123.702 25.9864L123.547 24.8971L124.014 24.7415L124.169 24.2747L124.792 24.1191Z" fill="#3777BA"/>
<path d="M77.8008 62.084H78.7344V69.0861L77.8008 68.9305V62.084Z" fill="#4490CD"/>
<path d="M192.945 29.5645L194.19 29.7201L195.279 30.3425L195.435 31.1205L194.501 31.8985L194.035 32.0541H192.945L192.012 31.2761V30.0313L192.945 29.5645Z" fill="#FA9D3A"/>
<path d="M104.1 29.2539L105.189 29.4095L106.278 30.0319L106.434 30.6543L105.5 31.4323L105.033 31.5879H103.633L103.01 31.2767L102.699 30.4987L103.477 29.5651L104.1 29.2539Z" fill="#3F84C3"/>
<path d="M93.3594 4.20117H95.5378L95.849 4.51238V5.60159L95.071 6.22399L94.7598 6.37959H93.515L92.5814 5.75719L92.4258 4.97918L93.0482 4.35677L93.3594 4.20117Z" fill="#FA9D3A"/>
<path d="M194.504 62.084H195.438L195.749 62.2396V62.7064H195.282V69.0861L194.504 68.9305V62.084Z" fill="#438DCB"/>
<path d="M118.257 26.6074H119.346L120.28 27.0742L120.591 27.6966L119.969 28.6302L119.191 28.7858L117.79 28.6302L117.168 28.0078L117.324 27.2298L117.635 26.9186H118.257V26.6074Z" fill="#3777BA"/>
<path d="M202.906 4.20117H204.929L205.863 4.97918L205.24 5.60159L204.462 6.22399L203.529 6.37959L202.595 5.91279L201.973 5.29038L202.128 4.82358H202.595L202.906 4.20117Z" fill="#499EDA"/>
<path d="M190.77 0.933594L191.393 1.2448L191.237 1.8672L191.548 2.17841L191.237 2.80081L190.459 3.11202L188.903 2.80081L188.125 2.33401V1.4004L188.747 1.0892H190.459L190.77 0.933594Z" fill="#3777BA"/>
<path d="M148.757 11.9824L149.846 12.2936L150.624 12.916L150.78 13.5384L149.691 14.1608H148.602L148.135 13.8496V13.5384L147.668 13.3828V12.7604H147.979L147.824 12.2936L148.757 11.9824Z" fill="#4186C5"/>
<path d="M148.754 11.6699L149.843 11.8255L150.777 12.2923L151.088 12.7591L150.932 13.6927L150.31 14.3151L149.065 14.782L148.91 14.3151L147.82 14.1595L147.042 13.6927L146.887 12.9147L147.665 12.1367L148.754 11.6699ZM148.754 11.9811L147.82 12.2923L147.976 12.7591H147.665L147.82 13.5371H148.132L148.287 14.0039L149.065 14.1595L150.154 14.0039L150.777 13.5371L150.466 12.7591L149.376 12.1367L148.754 11.9811Z" fill="#3777BA"/>
<path d="M198.549 62.084H199.172V67.9968L198.549 68.308L198.238 67.3744L198.394 66.9076L198.549 62.084Z" fill="#4CA4DF"/>
<path d="M182.208 1.08984L183.453 1.55665L183.92 1.86785V2.33466H183.609L183.453 2.80146L182.208 2.95706L180.964 2.64586V2.33466L180.652 2.17905L181.43 1.24545L182.208 1.08984Z" fill="#4084C3"/>
<path d="M167.894 3.89062H168.828L169.45 4.51303V5.29104L168.516 5.75784H167.738L166.805 4.97984V4.35743L167.894 3.89062Z" fill="#4084C3"/>
<path d="M110.944 28.7871H112.967L113.434 29.0983L113.745 28.9427V29.7207H112.967L112.5 30.3431H110.944L110.633 29.8763V29.0983L110.944 28.7871Z" fill="#3F83C2"/>
<path d="M173.963 2.33398H175.83L176.453 2.64519L176.141 3.26759L175.675 4.0456L174.274 3.89L173.963 3.7344V3.4232H173.652L173.496 2.95639L173.963 2.33398Z" fill="#4084C3"/>
<path d="M137.242 18.3613L138.331 18.5169L138.798 19.2949L138.487 19.7617H138.176V20.0729L137.865 20.2285H136.931L136.309 19.7617V18.8281L137.242 18.3613Z" fill="#4084C3"/>
<path d="M92.2734 62.084H92.7402L92.8958 62.862V68.7749L92.2734 68.9305V62.084Z" fill="#4FACE6"/>
<path d="M154.98 9.18164L156.225 9.33724L156.38 10.2709L155.602 10.8933L154.669 11.0489L154.046 10.7377L153.891 9.64845L154.046 9.49284H154.98V9.18164Z" fill="#3F83C2"/>
<path d="M251.295 66.4414L252.229 66.9082V67.8418L251.451 68.7754L250.673 69.0866H249.583L248.494 68.4642L248.027 67.8418V67.0638H248.494L248.961 67.9974L249.583 68.4642H250.828L251.451 67.8418V66.9082L251.295 66.4414Z" fill="#3A7DBF"/>
<path d="M174.74 1.86719H176.14L176.451 2.02279L176.762 2.9564V3.5788H176.451L176.296 4.04561L174.74 4.51241L173.962 4.04561H173.65L173.184 3.112L173.339 2.48959L174.117 2.02279L174.74 1.86719ZM173.962 2.33399L173.495 3.112L173.65 3.4232H173.962V3.73441L175.362 4.04561L175.984 3.73441L176.296 3.112L176.451 2.6452L175.829 2.33399H173.962Z" fill="#3777BA"/>
<path d="M77.8008 62.084L78.2676 62.2396V68.4636L78.112 68.9305H77.8008V62.084Z" fill="#4FACE6"/>
<path d="M96.6289 29.875L97.4069 30.0306L98.1849 30.4974L98.3405 30.9642L98.0293 31.431H96.0065L95.6953 31.2754L95.8509 30.4974L96.6289 29.875Z" fill="#397CBE"/>
<path d="M143 15.4043L144.4 15.8711L144.556 16.4935L143.467 17.1159H142.533V16.8047H142.222L142.066 15.8711L143 15.4043Z" fill="#4084C3"/>
<path d="M209.285 7.46875L210.374 7.62435L210.685 7.93555V8.86916L209.751 9.18037L208.973 8.86916L208.195 8.40236V8.09116L209.129 7.62435L209.285 7.46875Z" fill="#3C80C1"/>
<path d="M146.423 61.9297L147.823 62.0853L148.912 63.0189L149.223 63.9525L148.445 64.1081L148.29 63.1745L147.356 62.5521L146.111 62.7077L144.711 63.3301L145.022 62.5521L145.8 62.0853L146.423 61.9297Z" fill="#377ABD"/>
<path d="M125.258 24.4297L126.036 24.7409L126.814 25.5189L126.347 25.6745V25.9857L125.102 26.2969L124.324 25.3633L124.48 24.8965H124.791V24.5853L125.258 24.4297Z" fill="#3F83C2"/>
<path d="M109.855 62.084H113.59V62.3952L112.034 62.5508H110.322V65.3516L109.855 64.8848V62.084Z" fill="#3678BC"/>
<path d="M189.056 1.24414H190.301L190.612 1.39974V1.71095H190.923V2.48895L189.834 2.80016V2.48895H189.056V2.17775H188.589L188.434 1.55534L189.056 1.24414Z" fill="#4084C3"/>
<path d="M131.484 21.7852L131.64 22.0964L132.418 22.252L132.729 22.4076L132.885 23.1856L130.862 23.4968L130.551 23.1856V22.4076L131.484 21.7852Z" fill="#4084C3"/>
<path d="M200.26 30.3418H201.972L202.128 30.9642L201.661 31.7422H200.727L199.949 31.2754L200.105 30.4974L200.26 30.3418Z" fill="#FA9D3A"/>
<path d="M195.749 2.95703L196.06 3.57944H198.394L199.016 2.95703L199.483 3.11263L199.328 3.57944L198.394 4.20184H195.593L195.438 4.04624V3.26823L195.749 2.95703Z" fill="#3575B9"/>
<path d="M88.2279 7.46875H89.1615L89.4727 7.93555L89.3171 8.86916L89.1615 9.02477H87.7611L87.6055 8.86916L87.7611 7.77995L88.2279 7.46875Z" fill="#FA9D3A"/>
<path d="M230.913 62.3965H231.225L231.38 62.8633L231.225 68.7761H230.758L230.913 62.3965Z" fill="#4FACE6"/>
<path d="M230.758 62.084H234.959V62.3952L231.691 62.5508V65.3516L231.38 64.7292L231.225 62.3952L230.758 62.2396V62.084Z" fill="#3C82C3"/>
<path d="M109.699 62.084L110.01 62.3952V64.8848L110.166 65.3516H112.967V65.6628L110.322 65.8184L110.01 65.974L109.855 67.9968H109.699V62.084Z" fill="#316EB3"/>
<path d="M196.526 2.49023H197.771L198.393 2.95704V3.42384L197.304 3.73505L196.215 3.57945V2.80144L196.526 2.49023Z" fill="#4084C3"/>
<path d="M213.954 62.084H215.821L216.91 63.0176L217.221 63.9512L216.599 64.1068L216.132 63.0176L215.354 62.5508L213.176 62.7064L213.487 62.2396L213.954 62.084Z" fill="#3A7FC1"/>
<path d="M148.443 66.5977H149.066V67.6869L148.132 68.7761L147.354 69.0873H146.265L146.109 68.6205L147.51 68.4649L148.288 67.6869L148.443 66.5977Z" fill="#3779BC"/>
<path d="M161.36 6.53516L162.294 6.69076L162.605 7.00196L162.449 7.62437L162.138 7.77997L160.582 7.62437V6.69076L161.36 6.53516Z" fill="#4084C3"/>
<path d="M118.568 27.0742L119.968 27.541L119.813 28.1634L119.657 28.4746L118.101 28.319L117.945 27.541L118.568 27.0742Z" fill="#4084C3"/>
<path d="M202.906 4.20117H204.151L203.995 4.66798L204.462 4.82358L203.84 5.13478L203.529 4.97918V5.29038L202.751 5.44598L202.439 5.75719L201.973 5.29038L202.128 4.82358H202.595L202.906 4.20117Z" fill="#5CB2E7"/>
<path d="M126.66 67.0645L127.283 67.2201L127.749 67.9981L128.527 68.4649L129.461 68.6205L129.305 68.9317H127.905L126.816 67.9981L126.66 67.0645Z" fill="#3677BB"/>
<path d="M105.811 30.0312H106.278L106.434 30.6537L105.5 31.4317L105.033 31.5873H103.633L103.944 30.9649L104.566 31.1205L105.5 30.4981H105.811V30.0312Z" fill="#3576BA"/>
<path d="M145.174 63.0195H145.486L145.33 67.0652H145.019L144.863 63.7975L145.174 63.0195Z" fill="#4FACE6"/>
<path d="M203.527 4.97852H204.461L204.305 5.28972L203.683 5.60092L204.305 5.75652V6.06773L203.527 6.37893L202.594 5.91213V5.28972L203.216 5.13412L203.527 5.28972V4.97852Z" fill="#4289C7"/>
<path d="M196.527 1.40039H197.616L198.083 1.8672L197.927 2.0228L196.06 2.1784L195.904 2.6452H195.438L195.749 2.0228L196.216 1.55599L196.527 1.40039Z" fill="#3474B9"/>
<path d="M60.9954 68.6211H64.4187V68.9323L63.3295 69.0879H61.151L60.8398 68.7767L60.9954 68.6211Z" fill="#397EC0"/>
<path d="M249.272 62.084H250.984L251.917 62.7064L252.229 63.0176L252.073 63.4844L251.606 63.3288L251.139 62.7064L249.739 62.5508H248.961V62.2396L249.272 62.084Z" fill="#3779BC"/>
<path d="M210.063 7.625L210.685 7.9362V8.86981L209.751 9.18102L209.596 8.55861L209.129 8.40301L209.44 7.9362L210.063 7.625Z" fill="#4491CE"/>
<path d="M104.098 29.2539L105.187 29.4095V30.0319L103.786 30.1875L103.631 30.6543H103.32L103.164 29.8763L104.098 29.2539Z" fill="#3474B8"/>
<path d="M251.296 66.4414L252.229 66.9082V67.8418L251.451 68.7754L250.984 68.931L251.296 68.153L251.451 67.8418V66.9082L251.296 66.4414Z" fill="#3779BB"/>
<path d="M216.597 66.5977H217.064V67.5313L216.441 68.4649L215.819 68.9317H215.508V68.4649L216.286 67.6869L216.597 66.5977Z" fill="#387ABD"/>
<path d="M231.382 68.6211H234.96V68.9323L231.226 69.0879L231.07 68.7767L231.382 68.6211Z" fill="#3373B7"/>
<path d="M177.543 62.3965H179.41V62.5521L178.01 62.7077L177.854 65.1973L177.543 65.6641V62.3965Z" fill="#4DA8E3"/>
<path d="M195.749 2.95703L196.06 3.57944L196.838 3.73504L197.305 4.20184H195.593L195.438 4.04624V3.26823L195.749 2.95703Z" fill="#316EB4"/>
<path d="M92.7383 62.084H96.3171V62.3952L93.0495 62.5508L92.7383 62.3952V62.084Z" fill="#3574B8"/>
<path d="M110.167 62.5527H110.322V65.3536L109.855 64.8868V62.8639L110.167 62.5527Z" fill="#4593D0"/>
<path d="M213.173 62.707L213.64 62.8626L213.018 63.1738L212.862 65.5079L212.551 65.6635V63.3294L213.173 62.707Z" fill="#4593D0"/>
<path d="M135.219 17.584L135.53 17.7396L134.908 18.362L134.752 20.5404L134.441 20.3848L134.285 18.9844L134.752 18.0508L135.219 17.584Z" fill="#4594D1"/>
<path d="M213.954 62.084H215.821L215.665 62.3952L213.954 62.7064H213.176L213.487 62.2396L213.954 62.084Z" fill="#3677BA"/>
<path d="M197.926 1.55664L198.859 1.86784L199.482 2.33465V3.11266L198.704 2.64585L198.548 2.17905L198.081 2.02345L197.926 1.55664Z" fill="#397DC0"/>
<path d="M96.9408 29.875L97.7188 30.1862L98.3412 30.8086L98.03 31.431L97.252 31.2754L97.7188 31.1198L97.252 30.3418L96.7852 30.0306L96.9408 29.875Z" fill="#3678BC"/>
<path d="M110.011 65.8184H110.322V68.4636L109.855 67.9968V65.974L110.011 65.8184Z" fill="#4187C5"/>
<path d="M181.586 0.933594H183.453V1.4004H183.764L183.92 1.8672L182.986 1.556L182.208 1.2448L181.586 1.4004V0.933594Z" fill="#3777BA"/>
<path d="M96.7826 30.1875L97.405 30.3431L97.7162 30.9655L96.4714 31.1211L96.1602 30.8099L96.7826 30.1875Z" fill="#4086C5"/>
<path d="M103.01 30.0312L103.322 30.3425V30.8093L103.788 30.9649V31.4317L103.01 31.2761L102.699 30.4981L103.01 30.0312Z" fill="#3C81C2"/>
<path d="M103.944 30.9648L104.566 31.1204L105.189 30.9648L105.033 31.5873H103.633L103.944 30.9648Z" fill="#387ABC"/>
<path d="M158.09 8.86914L158.557 9.49155L158.712 10.114L158.401 10.7364H158.09V8.86914Z" fill="#4696D3"/>
<path d="M120.746 26.9199H121.057L121.369 27.8535L121.057 28.3203H120.746V26.9199Z" fill="#4492D0"/>
</svg>
