<svg width="120" height="120" viewBox="0 0 120 120" fill="none" xmlns="http://www.w3.org/2000/svg">
<path d="M99.3783 35.0391L99.8434 35.1941L99.6884 36.5895L98.293 42.791L96.7426 48.3724L94.7271 53.7988L93.0217 57.6747L91.1612 61.0856L89.4558 63.8763L87.5954 66.5119L85.5798 68.9925L83.7194 71.0081L80.3085 74.4189L78.138 76.1243L76.1225 77.6747L73.4868 79.3801L71.1612 80.7755L66.9752 82.946L64.3395 84.0313L62.4791 84.4964L61.3938 84.6515H58.6031L55.6574 84.0313L52.4016 82.791L50.5411 81.8608L49.6109 80.6205L49.3008 79.3801L49.4558 75.3491L50.076 71.6282L51.0062 68.5274L52.2465 65.4267L53.6419 62.791L55.0372 60.6205L56.5876 58.4499L58.6031 55.9693L60.4636 53.9538L61.5488 52.7135L63.0992 51.1631L64.3395 50.0778L66.045 48.5274L68.6806 46.5119L70.8512 44.9615L73.7969 43.1011L77.2078 41.2406L80.1535 39.8453L84.1845 38.2949L86.9752 37.3646L91.6264 36.1243L95.9674 35.3491L99.3783 35.0391Z" fill="#13468A"/>
<path d="M60.4652 0L61.0854 0.155039L62.4807 2.0155L64.1861 4.34109L66.2016 7.44186L68.0621 10.6977L70.0776 14.8837L71.783 19.3798L73.0233 23.5659L74.2637 28.5271L75.0389 32.5581V35.0388L74.4187 36.5891L73.3334 37.8295L71.628 39.2248L68.2171 41.3953L65.2714 43.5659L62.6357 45.7364L60.1551 47.5969L58.7598 46.6667L55.659 44.4961L50.3877 40.7752L47.9071 39.0698L46.9768 38.2946L46.5117 37.0543V35.1938L46.9768 30.6977L47.752 26.2015L48.8373 21.8605L50.5427 16.8992L52.5582 12.2481L54.1086 9.30233L56.2792 5.73643L58.1396 3.10078L60.1551 0.465116L60.4652 0Z" fill="#13478A"/>
<path d="M20.3086 35.1934H22.014L26.9753 35.9686L31.0063 36.8988L34.5722 37.9841L38.6032 39.5344L43.2543 41.705L47.5954 44.1856L50.6962 46.3561L52.7117 47.9065L55.3474 50.0771L56.5877 51.1624L56.2776 51.7825L54.7272 53.4879L52.7117 56.1236L50.3861 59.6895L49.1458 61.86L47.5954 65.2709L46.5101 68.3717L45.5799 71.6275L44.8047 76.4337L44.6497 78.1391L44.3396 78.2941L42.1691 76.5887L39.6884 74.2631L37.828 72.5577L36.2776 71.0073V70.6972H35.9675L34.5722 68.9918L32.7117 66.8213L30.5412 63.8755L28.8357 61.0848L26.9753 57.829L25.2698 54.2631L23.5644 49.922L22.3241 46.0461L21.2388 41.5499L20.3086 35.9686V35.1934Z" fill="#41B1DC"/>
<path d="M97.8314 58.4492L99.0717 58.6043L101.862 59.5345L106.358 61.395L109.769 63.1004L113.49 65.2709L116.591 67.4415L118.917 69.1469L119.847 69.9221L119.537 70.5422L116.901 72.4027L114.731 73.9531L111.785 75.8136L108.994 77.3639L104.808 79.3795L100.622 80.9298L96.5911 82.1701L92.405 83.1004L85.7383 84.0306H77.2112L76.7461 83.8756L77.0562 83.2554L79.0717 81.705L80.6221 80.3097L81.8624 79.2244L84.498 76.7438L86.8236 74.4182L88.219 72.7128L88.8391 71.9376H89.1492L89.4593 71.3174L90.6996 69.767L92.7151 66.9764L94.5756 64.0306L96.281 61.0849L97.6763 58.6043L97.8314 58.4492Z" fill="#41B1DC"/>
<path d="M21.0853 57.3652L21.7054 57.6753L23.7209 61.5513L25.7364 64.8071L27.7519 67.7528L30.2326 71.0086L32.2481 73.3342L34.4186 75.6598L35.969 77.2102L37.2093 78.2955L39.2248 80.0009L42.1705 82.1714L42.9457 82.7916V83.1017L42.3256 83.2567H34.2636L30.0775 82.7916L26.3566 82.1714L22.6357 81.2412L19.5349 80.311L15.814 78.9156L12.093 77.2102L8.83721 75.5048L6.04651 73.7993L3.10078 71.7838L0.310078 69.7683L0 69.4583L0.155039 68.8381L2.32558 67.1327L4.65116 65.4272L8.06202 63.2567L11.1628 61.5513L14.8837 59.8459L19.2248 58.1404L21.0853 57.3652Z" fill="#13478B"/>
<path d="M31.3164 14.7285L34.4172 16.1239L39.2234 18.4494L42.7893 20.1549L44.0296 20.775L43.8745 22.6355L41.859 34.7285L41.704 35.5037L40.4637 35.3487L34.7273 33.3332L32.8668 32.558L31.7815 31.6277L31.3164 30.8525V14.7285Z" fill="#14488C"/>
<path d="M88.9924 15.0391H89.6126V26.822L89.4575 31.1631L89.1474 31.7832L86.8219 32.7135L81.2405 34.5739L79.8451 34.729L79.38 32.8685L78.1397 26.5119L77.5195 22.946V21.2406L78.2947 20.4654L80.3102 19.2251L84.0312 17.3646L87.5971 15.6592L88.9924 15.0391Z" fill="#41B1DC"/>
<path d="M24.03 94.2637H30.6967L32.7122 94.5737L34.5727 95.504L35.3479 96.1241L36.7432 97.9846L37.3634 99.69L37.5184 100.465V102.791L37.0533 104.496L35.968 106.202L34.4176 107.597L32.8672 108.372L31.782 108.682L30.2316 108.837H23.875V94.4187L24.03 94.2637Z" fill="#175091"/>
<path d="M61.7058 94.2637H64.1864L65.2717 95.504L68.9926 100.465L71.1632 103.411L71.4733 103.721L71.6283 96.2792L71.7833 94.2637H74.264L74.419 94.4187V108.837L74.264 108.992L71.9384 108.837L70.6981 107.442L68.6826 104.806L66.2019 101.55L64.8066 99.535V99.2249H64.4965V104.496L64.3415 108.837H61.8609L61.5508 108.682V94.4187L61.7058 94.2637Z" fill="#175193"/>
<path d="M86.9753 94.1094L88.6807 94.2644L89.4559 94.1094L89.921 94.7295L93.1768 102.326L95.5024 107.598L95.8125 108.683L95.6574 108.838L92.7117 108.683L92.0915 107.133L91.6264 106.047L91.3163 105.892H84.6497L83.8745 107.443L83.2543 108.838H80.6187L80.3086 108.528L82.6342 103.412L84.6497 98.7605L85.735 96.2799L86.6652 94.2644L86.9753 94.1094Z" fill="#154D8F"/>
<path d="M42.1719 94.1094L44.9626 94.2644L45.5827 94.8846L46.513 96.59L48.5285 100.156L49.1486 100.776L50.3889 98.2954L51.3192 96.745L52.5595 94.7295L53.0246 94.2644L53.6447 94.1094L55.5052 94.2644L55.3502 95.1946L53.4897 98.4505L52.4044 100.621L50.854 103.412L50.544 103.877V107.443L50.3889 108.838H47.9083L47.5982 108.683L47.4432 104.032L45.1176 99.8458L43.1021 96.1249L42.3269 94.8846L42.1719 94.1094Z" fill="#164E90"/>
<path d="M26.978 96.7441H28.6835L31.1641 96.8992L32.7145 97.5193L33.7998 98.6046L34.5749 100.155V102.791L33.6447 104.651L32.4044 105.736L31.3191 106.202L28.9936 106.357H26.978L26.668 106.202V96.8992L26.978 96.7441Z" fill="#FDFDFD"/>
<path d="M66.9779 113.488H69.1485L70.5438 114.419L71.164 115.349L71.474 116.279V117.364L70.8539 118.605L69.6136 119.535L68.5283 120H67.288L65.7376 119.07L64.8074 117.674L64.6523 117.209V116.124L65.4275 114.574L66.5128 113.643L66.9779 113.488Z" fill="#2BB9F2"/>
<path d="M36.4337 113.488H38.4492L39.3795 114.108L39.6896 114.574L39.5345 115.194L38.7593 115.039L37.6741 114.574L36.2787 114.884L35.5035 115.504L35.1934 116.279L35.3485 117.519L36.1237 118.45L36.8989 118.76H37.8291L38.4492 118.45L38.7593 117.829L38.9144 116.744L39.6896 116.589L39.8446 116.744V118.45L39.3795 119.225L38.4492 119.845L37.9841 120H36.7438L35.5035 119.38L34.7283 118.605L34.1082 117.674L33.9531 116.434L34.4182 115.039L35.1934 114.108L36.4337 113.488Z" fill="#29BAF5"/>
<path d="M82.4816 113.488H84.342L85.4273 113.953L85.2723 114.729L84.6521 115.039L83.5668 114.574H82.6366L82.1715 114.884L82.3265 115.659L84.4971 116.434L85.5823 117.364L85.7374 117.984L85.1172 119.07L84.0319 119.845L83.5668 120H82.4816L80.7761 119.07L80.6211 118.294L80.9312 117.984L81.5513 118.139L82.0164 118.605L83.2568 118.76L84.187 118.294L84.0319 117.674L82.9467 117.209L81.3963 116.434L80.7761 115.659L80.9312 114.729L81.7064 113.798L82.4816 113.488Z" fill="#2AB9F4"/>
<path d="M67.286 114.574H68.9914L70.0767 115.504L70.2317 115.97V117.365L69.1464 118.605L68.3712 118.915L67.286 118.76L66.3557 118.14L65.8906 117.365V115.97L66.5108 115.039L67.286 114.574Z" fill="#FDFDFD"/>
<path d="M87.9088 97.6738L88.529 98.294L90.3894 102.635V103.255L86.6685 103.41L85.7383 103.255L85.8933 102.325L87.2887 99.0692L87.9088 97.6738Z" fill="#FDFDFD"/>
<path d="M59.0717 113.488H61.0872L62.0174 114.108L62.4825 114.729V115.194H61.5523L60.467 114.574H59.5368L58.6066 115.194H58.2965L57.9864 115.969V117.209L58.6066 118.139L59.2267 118.605L60.312 118.76L61.8624 118.139L62.4825 118.294L62.3275 119.07L60.467 120H59.3818L57.8314 119.07L56.9011 117.829L56.7461 117.364V115.969L57.5213 114.419L58.6066 113.643L59.0717 113.488Z" fill="#2BB9F3"/>
<path d="M74.8819 113.488L75.8121 113.643V118.605H78.2927L78.4478 119.225L78.1377 119.845L77.6726 120H75.0369L74.2617 119.69V113.643L74.8819 113.488Z" fill="#2BB9F3"/>
<path d="M43.8755 113.488L44.4957 113.798V118.45L46.9763 118.605L47.1314 119.07L46.8213 119.845L46.6662 120H43.7205L43.1004 119.69L42.9453 119.38V113.798L43.8755 113.488Z" fill="#3EB2DF"/>
<path d="M49.1484 113.488H50.0787L50.6988 114.263L51.6291 116.124L52.0942 116.279L53.1794 114.263L53.9546 113.488L54.7298 113.643L54.4198 114.574L53.3345 116.279L52.7143 117.364L52.5593 119.845L51.6291 120L51.1639 119.69L51.319 117.829L50.6988 116.589L49.1484 113.953V113.488Z" fill="#2CB8F1"/>
<path d="M31.3164 14.7285L32.2466 15.1936L32.5567 15.9688L32.0916 16.1239L31.9366 17.2091L32.2466 18.2944L32.4017 20.775L32.2466 21.3952V26.0463L32.4017 26.9766L32.2466 27.1316L32.0916 30.6975L31.6265 31.0076L31.4714 30.3874L31.3164 14.7285Z" fill="#0C3885"/>
<path d="M39.0701 116.59L39.8453 116.745V118.45L39.3801 119.226L38.4499 119.846L37.9848 120.001H36.7445L35.5042 119.381L35.6592 119.07L35.0391 118.76L35.1941 117.83L35.8143 118.14L36.4344 118.605L37.8298 118.76L38.4499 118.45L38.76 117.83L38.915 116.745L39.0701 116.59Z" fill="#2BB9F3"/>
<path d="M66.9774 113.488H69.1479L70.5433 114.419L70.8533 115.039H70.3882V115.969H70.0782L69.613 115.194L68.9929 114.729H67.2875L66.5123 115.039L66.2022 114.574H66.5123V114.263L65.582 114.574L66.3572 113.798L66.9774 113.488Z" fill="#2AB9F4"/>
<path d="M43.8755 113.488H44.1856V115.969L43.8755 116.589H43.4104L43.7205 119.38H44.0306V119.69L43.2554 119.535L42.9453 119.38V113.798L43.8755 113.488Z" fill="#29BAF5"/>
<path d="M89.1474 36.7441L89.9226 36.8992L89.4575 37.2093L89.7676 37.5193L88.3722 37.6744L87.7521 37.8294H87.2869V38.1395L85.7366 38.4496V38.7596L84.3412 38.9147L83.8761 39.3798L82.1707 39.5348L82.0156 39.0697L86.0466 37.6744L89.1474 36.7441Z" fill="#13478F"/>
<path d="M57.6758 117.209H57.9859L58.606 118.139L59.2262 118.604L60.3114 118.759L61.8618 118.139L62.482 118.294L62.3269 119.069L60.4665 120H59.3812L58.451 119.535V119.069L58.7611 118.914L57.9859 118.294L57.6758 117.674V117.209Z" fill="#2BB9F3"/>
<path d="M75.0405 113.643H75.8157V118.604L77.6762 118.759L77.2111 119.069H76.746V119.379L75.5057 119.224L75.0405 118.759L74.7305 117.519L74.8855 114.883L75.5057 113.798L75.0405 113.643Z" fill="#3DB2E0"/>
<path d="M82.4825 113.488H84.343L85.4282 113.953L85.2732 114.729L84.653 115.039L83.5678 114.574H82.6375L82.0174 115.039L81.3972 114.884L81.2422 114.263L82.0174 113.643L82.4825 113.488Z" fill="#2BB9F2"/>
<path d="M35.1934 114.418L35.6586 114.573V115.348L35.1934 116.278L35.3485 118.449H35.0384V118.759L35.8136 118.914L35.6586 119.224L34.8834 118.914L34.1082 117.674L33.9531 116.433L34.4182 115.193H34.7283L35.0384 114.573L35.1934 114.418Z" fill="#3BB3E2"/>
<path d="M71.9363 94.5742H73.9518V95.0393H73.4867L72.8665 94.8843L72.4014 95.6595L72.2464 101.861L72.0913 102.636H71.9363L71.7812 100.776V94.7293L71.9363 94.5742Z" fill="#0C3884"/>
<path d="M49.1484 113.488H50.0787L50.6988 114.263L51.319 115.349V115.969L50.6988 115.814V116.124L51.0089 116.279V116.589L50.5438 116.434L49.1484 113.953V113.488Z" fill="#2BB9F3"/>
<path d="M66.2019 8.2168H66.667L68.2174 11.0075L69.1477 12.868V13.178L68.6825 13.023L68.5275 12.5579L68.2174 12.2478L68.3725 11.9377L67.7523 11.6276L67.4422 10.8525L67.2872 10.2323L66.8221 10.0773L66.512 9.14703L66.0469 8.68191L66.2019 8.2168Z" fill="#134A91"/>
<path d="M52.4044 117.365H52.5594V119.846L51.6292 120.001L51.1641 119.691L51.3191 118.451L52.0943 117.675L52.2493 117.83L52.4044 117.365Z" fill="#29BAF5"/>
<path d="M64.03 4.80664L64.6502 4.96168L66.3556 7.75238L66.5107 8.21749L65.7355 8.06245V7.59734H65.4254L64.8052 6.82214V6.20199L64.4952 6.04695V5.58183L63.875 5.27176L64.03 4.80664Z" fill="#11458D"/>
<path d="M57.2085 116.434H57.5186V116.744H57.8287V117.674L58.1387 118.294L58.9139 119.069H58.4488L58.2938 119.379L57.3636 118.604L56.8984 117.829L57.2085 116.434Z" fill="#3EB2E0"/>
<path d="M50.0792 106.977H50.2343V108.682H48.2188V108.217L49.6141 107.752L49.9242 107.132L50.0792 106.977Z" fill="#0C3784"/>
<path d="M24.0312 98.4492H24.3413L24.4964 101.55L24.3413 104.806H24.1863L24.0312 103.565V98.4492Z" fill="#0C3884"/>
<path d="M60.4645 0L61.0846 0.155039L61.7048 1.24031L60.7745 1.08527L59.3792 2.0155H58.9141L60.1544 0.465116L60.4645 0Z" fill="#12478E"/>
<path d="M64.0311 107.441L64.3412 107.751V108.837L62.3257 108.682L62.0156 108.372L63.566 107.751H64.0311V107.441Z" fill="#0C3884"/>
<path d="M50.6992 115.814H51.4744L52.2496 116.59L51.9395 116.9L51.7845 116.59V117.21L51.9395 117.985L51.4744 118.605L51.0093 117.055L50.6992 116.125V115.814Z" fill="#3FB2DE"/>
<path d="M96.5885 35.3496H98.7591V35.8147L95.5032 35.9698H94.418V35.8147L96.5885 35.3496Z" fill="#0C3884"/>
<path d="M95.0369 107.287H95.347L95.8121 108.682L95.6571 108.837H94.7268V108.527L94.2617 108.372L94.7268 107.597H95.0369V107.287Z" fill="#164F95"/>
<path d="M70.3894 115.039H71.0096L71.3196 115.814V116.279H70.6995L70.3894 117.21H70.2344V115.349L70.3894 115.039Z" fill="#3EB2DF"/>
<path d="M57.673 4.18555L57.983 4.34059L57.673 4.8057V5.42586L56.8978 5.73593L55.9675 6.82121L55.8125 6.51113L57.2078 4.34059L57.673 4.18555Z" fill="#185396"/>
<path d="M44.4961 118.605H46.9767L47.1318 119.071L46.8217 119.846L45.8914 119.691L46.2015 118.761H44.4961V118.605Z" fill="#2BB9F3"/>
<path d="M43.2554 117.365L43.5655 117.675L43.7205 119.381H44.0306V119.691L43.2554 119.536L42.9453 119.381V117.52L43.2554 117.365Z" fill="#27BBF8"/>
<path d="M82.3248 113.799L82.9449 114.109L83.41 114.419L82.4798 114.729L82.0147 115.039L81.3945 114.884L81.5496 114.264L81.8596 114.109L82.1697 114.264L82.3248 113.799Z" fill="#3EB2DF"/>
<path d="M24.0312 107.752L25.4266 108.062L26.3568 108.372V108.527L24.0312 108.682V107.752Z" fill="#0C3784"/>
<path d="M80.9312 117.984L81.5513 118.139L81.8614 118.76L81.5513 119.38L80.7761 119.07L80.6211 118.294L80.9312 117.984Z" fill="#33B6EA"/>
<path d="M83.2559 38.6055H83.8761V39.3807L82.1707 39.5357L82.0156 39.0706L83.2559 38.6055Z" fill="#154D93"/>
<path d="M51.938 14.2637H52.0931L51.938 15.3489L51.3179 16.5893H51.0078L51.4729 14.7288L51.938 14.2637Z" fill="#0F3E88"/>
<path d="M41.0847 82.3262L42.015 82.4812L42.4801 82.6362L42.325 83.1014H40.9297L41.0847 82.3262Z" fill="#0C3784"/>
<path d="M36.7461 113.488H38.4515L39.2267 113.953L38.7616 114.108L37.9864 113.953L37.3662 114.108V113.798L36.7461 113.488Z" fill="#40B1DD"/>
<path d="M42.1719 94.1094L44.9626 94.2644V94.4195L42.482 94.5745L42.3269 94.8846L42.1719 94.1094Z" fill="#3FB1DE"/>
<path d="M81.2388 39.3789L81.859 39.5339L81.7039 39.9991L80.3086 40.3091L80.6187 39.689L81.2388 39.3789Z" fill="#154B92"/>
<path d="M79.8436 40L80.1537 40.155L79.6886 40.7752L78.6033 40.9302L78.2932 41.2403L77.8281 40.9302L79.8436 40Z" fill="#19599D"/>
<path d="M30.2332 71.4727L31.0084 71.9378L31.6285 72.713L31.3184 72.868V72.5579H30.6983V72.2479H30.3882V71.9378H30.0781L30.2332 71.4727Z" fill="#154D94"/>
<path d="M42.7891 20.4648L43.8743 20.6199L43.7193 21.3951L43.0991 21.24L42.7891 20.93V20.4648Z" fill="#0F3F89"/>
<path d="M60.4645 0L60.9296 0.155039L59.9993 0.930233L60.3094 0.155039L60.4645 0ZM59.8443 0.930233L59.9993 1.55039L59.2241 2.17054L58.9141 2.0155L59.8443 0.930233Z" fill="#216AA8"/>
<path d="M14.5733 60H15.3485L15.0384 60.6202L14.1082 60.7752L13.9531 60.4651H14.2632V60.155L14.5733 60Z" fill="#10418A"/>
<path d="M55.5045 7.44141L55.6595 7.90652L55.1944 8.83676L54.5742 9.45691L54.7293 8.37164L55.1944 7.90652L55.5045 7.44141Z" fill="#0C3884"/>
</svg>
