<svg width="270" height="120" viewBox="0 0 270 120" fill="none" xmlns="http://www.w3.org/2000/svg">
<path d="M130.786 33.2031H135.168L138.033 33.8773L140.561 34.8885L140.73 35.3941L141.741 35.7312L143.258 36.911V33.7087H148.483V60.1694L147.977 64.2144L147.303 66.4054L145.281 68.7649L143.932 69.9447L142.584 70.7874L139.382 71.9672L136.348 72.6413L132.134 72.8099L129.438 72.6413L125.73 71.7986L123.707 70.9559L121.516 69.7762L121.179 68.9335L120.505 68.5964L119.494 67.0795L118.988 65.5627V63.7087L121.854 63.8773L124.55 64.2144L125.056 64.3829L126.067 66.4054L126.741 67.2481L128.427 67.9222L129.269 68.4278L129.943 68.5964H136.179L138.033 67.9222L140.224 66.7425L141.573 64.8885L142.247 63.3717L142.584 61.3492L142.752 58.1469L140.898 59.3267L138.539 60.675L135.505 61.3492L134.157 61.5177H131.123L126.741 60.8436L124.382 59.4953L122.359 57.9784L121.179 56.7986L119.831 55.1132L119.157 54.102L117.977 50.3941L117.809 49.3829V45.5065L118.314 43.484L119.325 40.2818L121.179 37.9222L122.022 36.911L125.393 34.5514L127.247 33.8773L130.786 33.2031Z" fill="#8D2B2C"/>
<path d="M94.7192 33.2031H99.7754L104.157 34.0458L106.18 35.0571L107.865 36.0683L109.382 37.0795L110.562 38.4278L111.573 39.7762L112.753 42.8099L113.259 44.6638L113.427 46.0121V48.3717L113.09 51.0683L111.742 55.1132L110.73 56.7986L109.719 57.6413L108.877 58.484L106.686 59.8323L104.663 60.8436L102.304 61.5177L99.7754 62.0233H94.0451L92.0226 61.6863L90.0001 61.0121L88.8204 60.8436L87.135 59.6638L86.1237 59.1582L83.2586 56.293L81.5732 53.4278L81.0675 51.7425L80.7305 49.72V45.675L81.2361 42.6413L82.5844 39.9447L83.5956 38.5964L83.9327 37.9222L84.944 37.2481L86.1237 35.8998L87.472 35.3941L88.8204 34.5514L91.6855 33.7087L94.7192 33.2031Z" fill="#8D2B2C"/>
<path d="M23.764 11.6289H27.1348L29.1573 12.1345L31.1798 13.1458L32.5281 14.8312L33.3708 16.5165L33.7079 18.7076L33.5393 20.5615L27.1348 20.8986L23.5955 21.4042L20.2247 22.4154L18.5393 22.7525L17.0225 23.4267L15.5056 23.9323L12.9775 25.2806L12.4719 25.7862L10.4494 26.7974L9.60674 27.6401L8.42697 28.4828L7.75281 29.8312L7.07865 30.6739L6.23596 32.6963V34.8873L6.91011 36.5727L8.08989 38.2581L8.42697 39.1008L9.94382 40.4491L11.7978 41.7974L14.3258 43.4828L15.5056 43.9885L17.0225 44.6626L21.9101 46.1795L23.2584 46.8536L26.4607 47.8649L30 49.2132L31.6854 49.7188L35.5618 51.2356L37.2472 51.5727L38.764 53.0896L38.5955 54.6064L37.7528 55.4491L36.236 56.2918H34.0449L31.6854 55.4491L30 55.1121L24.1011 53.0896L22.0787 52.584L20.7303 51.9098L20.0562 51.7413H18.3708L15.6742 52.921L13.3146 53.7637L10.7865 54.775L9.60674 55.2806L8.25843 55.6177L6.91011 56.2918L6.06742 56.6289L5.39326 56.4604L4.04494 54.775L1.51685 50.0559L0.674157 46.8536L0 43.3143V38.5952L0.842697 34.3817L1.51685 31.8536L2.86517 29.157L4.21348 26.7974L5.39326 25.2806L6.06742 24.2694L7.75281 22.2469L8.59551 20.8986L9.94382 19.8873L10.618 18.8761L12.4719 17.5278L13.1461 16.6851L14.4944 15.6739L15.6742 14.4941L17.6966 13.4828L18.5393 12.9772L21.7416 11.966L23.764 11.6289Z" fill="#D82A21"/>
<path d="M55.2826 30H56.1253L57.8107 32.6966L58.8219 34.2135L59.8331 37.0787L61.0129 40.7865L61.1814 41.6292L61.35 43.9888V47.191L61.0129 50.2247L59.4961 55.1124L58.8219 56.7978L57.8107 58.4831L56.1253 61.0112L54.777 62.8652L53.9343 63.7079L52.7545 65.2247L51.2376 66.9101L49.8893 68.0899L47.8668 69.9438L46.0129 71.4607L44.6646 72.4719L41.968 73.6517L40.4511 74.3258L37.923 74.6629H33.8781L31.6871 74.1573L30.0017 72.9775L28.9904 71.7978L27.9792 69.7753L27.8107 69.1011V66.0674L27.9792 65.8989H30.6758L34.0466 65.5618L40.114 64.5506L42.8107 63.5393L45.8444 62.5281L49.8893 60.3371L51.2376 59.3258L52.5859 58.1461L53.9343 56.2921L54.777 54.7753L54.9455 54.1011V50.8989L54.1028 49.2135L52.5859 47.0225L50.732 45.3371L49.3837 44.4944L48.7095 43.8202L47.3612 43.3146L45.8444 42.3034L40.2826 40.4494L38.0916 39.6067L36.4062 39.1011L34.5522 38.2584L32.1927 37.5843L31.1814 37.0787L29.6646 36.7416L27.6421 35.8989L25.4511 35.2247L23.2601 34.0449L22.7545 33.5393L22.5859 32.191L23.7657 30.8427L24.9455 30.1685H27.6421L29.496 31.0112L33.7095 32.191L38.2601 33.7079L41.7994 34.7191L42.9792 34.5506L45.5073 33.7079L46.6871 33.2022L49.5522 32.0225L52.7545 31.0112L53.9343 30.1685L55.2826 30Z" fill="#2A156D"/>
<path d="M169.383 33.2031H175.282L179.496 33.8773L181.181 34.3829L182.866 35.3941L184.046 36.2368L185.226 37.9222L185.732 39.102L185.9 41.4616L186.069 54.6076L186.406 57.8099L186.911 60.0009L187.586 61.0121L187.754 61.5177H181.687L181.013 60.675L180.338 58.3155L179.496 58.6526L178.147 59.4953L176.125 60.5065L175.619 60.8436L172.923 61.5177L171.743 61.8548L170.226 62.0233H164.327L162.305 61.5177L159.777 60.8436L158.428 59.8323L157.248 58.9896L155.9 56.6301L155.395 54.7762V53.4278L156.069 51.4054L156.911 49.72L158.428 48.3717L160.114 47.3604L162.136 46.6863L163.653 46.0121L171.406 45.1694L173.597 44.8323L175.956 44.6638L179.159 43.8211L179.833 43.6526L179.664 41.1245L178.99 39.6076L178.147 38.4278L175.114 37.4166L172.08 37.0795H170.395L168.035 37.4166L165.17 38.2593H164.833L164.496 38.9335L163.484 40.1132L162.473 42.3042L158.597 41.9672L156.574 41.6301L156.743 40.4503L157.586 38.2593L158.765 37.0795L159.608 36.4054L160.114 35.8998L161.799 35.0571L163.316 34.2144L165.844 33.7087L169.383 33.2031Z" fill="#8D2C2C"/>
<path d="M269.326 57.9766L269.663 58.4822L269.495 61.6844L268.989 64.5496L267.978 67.9204L266.63 70.4485L265.619 72.4709L263.428 75.1676L260.394 78.5384L259.045 79.7181L257.36 81.235L255.169 82.9204L252.135 85.1114L250.281 86.2912L247.922 87.808L245.225 89.3249L244.214 89.999L243.203 90.3361L239.158 92.5271L235.281 94.2125L232.416 95.5608L230.225 96.4035L226.854 97.7518L224.832 98.426L221.63 99.6058L215.562 101.628L210.843 103.145L207.135 104.156L204.944 104.83L197.023 106.853L195.169 107.359L192.641 107.864L185.899 109.381L175.619 111.404L172.248 111.909L169.045 112.583L155.731 114.606L150.843 115.28L142.416 116.291L136.517 116.965L130.956 117.302L122.192 118.145L110.057 118.988L101.124 119.493L82.9219 119.999H67.9219V119.83L70.6185 119.662L83.7646 119.325L94.5511 118.819L107.697 117.977L116.967 117.134L123.708 116.628L131.293 115.617L135.506 115.111L139.888 114.606L151.349 112.92L155.057 112.415L159.27 111.572L163.147 111.066L172.585 109.213L178.315 108.033L182.192 107.19L186.911 106.01L192.978 104.662L196.686 103.482L198.371 103.314L202.416 101.965L207.135 100.617L211.349 99.2687L213.371 98.5945L218.09 96.9091L221.461 95.7294L223.989 94.7181L227.529 93.3698L231.742 91.5159L233.933 90.5047L236.967 89.1563L239.495 87.808L241.854 86.6282L244.383 85.2799L245.731 84.4372L247.922 83.0889L250.619 81.4035L252.978 79.7181L255.169 78.0327L256.517 76.853L258.034 75.6732L263.09 70.617L265.787 66.9091L267.81 62.8642L269.326 57.9766Z" fill="#E97D21"/>
<path d="M136.516 0H148.988L153.033 0.674157L157.078 1.17978L169.887 3.53933L175.112 4.7191L178.82 5.39326L183.033 6.40449L187.415 7.41573L190.28 8.25843L191.291 8.59551L193.145 8.76404L196.011 9.77528L198.539 10.4494L204.1 12.1348L207.977 13.3146L209.831 14.1573L211.853 14.6629L214.887 15.8427L217.752 16.8539L220.28 18.0337L224.494 19.8876L227.527 21.236L228.539 22.0787L230.056 22.5843L231.404 23.427L233.763 24.7753L235.954 26.2921L238.314 27.9775L239.999 29.3258L244.044 33.3708L246.235 36.573L246.909 37.9213L247.752 41.7978V45.1685L246.741 49.2135L245.224 51.573L243.539 53.764L240.842 56.4607L240.505 56.2921L241.516 55.1124L243.202 52.4157L244.213 50.0562L244.55 46.6854L244.381 44.1573L243.876 42.1348L242.022 38.764L240.505 36.573L238.651 34.382L236.629 32.5281L234.775 31.1798L232.921 29.6629L229.718 27.6404L224.831 24.7753L222.134 23.427L220.617 22.5843L218.763 21.9101L217.078 21.0674L213.033 19.382L208.988 17.8652L207.134 17.0225L200.056 14.6629L197.527 13.9888L195.336 13.1461L190.449 11.7978L185.224 10.2809L182.022 9.4382L180.505 8.93258L177.977 8.59551L175.28 7.75281L167.19 6.06742L163.651 5.22472L159.775 4.55056L155.224 3.53933L149.157 2.52809L141.404 1.17978L137.19 0.674157L136.348 0.337079L136.516 0Z" fill="#EA7F22"/>
<path d="M208.821 33.2031H213.372L217.248 34.0458L219.271 35.0571L220.788 36.2368L222.305 38.5964L222.642 39.4391L222.81 40.4503L222.979 43.1469V53.5964L222.81 61.5177H216.911L216.743 61.3492L216.574 42.8099L215.9 40.1132L214.383 38.4278L211.687 37.5851L211.012 37.4166H208.484L204.776 38.2593L202.417 39.9447L201.574 41.6301L201.069 43.8211L200.9 45.1694L200.731 61.3492L200.563 61.5177H194.833L194.664 39.4391V34.8885L194.833 33.7087H200.057V37.4166L201.406 36.2368L202.248 35.5627L203.934 34.3829L205.451 33.8773L208.821 33.2031Z" fill="#8D2C2C"/>
<path d="M95.0553 37.0781H99.2688L101.123 37.7523L102.64 38.2579L104.662 39.7748L105.673 41.2916L106.685 42.977L107.022 43.9882L107.19 45.5051V49.3815L106.853 51.5725L106.179 53.0894L105.168 54.4377L104.494 55.6174L102.808 56.7972L99.7744 57.977L99.1002 58.1455H95.0553L91.516 56.9658L90.1677 55.786L88.9879 54.9433L87.6396 52.5837L86.9654 50.0557L86.7969 48.8759V46.1792L87.6396 42.6399L88.6508 40.786L89.8306 39.6062L91.1789 38.4264L93.2014 37.5837L95.0553 37.0781Z" fill="#FEFEFE"/>
<path d="M133.991 36.9102L136.013 37.2472L138.541 38.2585L140.395 39.6068L141.575 40.9551L142.418 42.3034L142.923 43.6517L143.092 44.8315V49.7191L142.755 51.5731L141.912 53.2585L140.901 54.6068L140.058 55.4495L137.699 56.9663L135.17 57.472H131.968L129.272 56.9663L127.081 55.4495L126.238 54.9439L125.732 53.9326L124.721 52.4158L124.215 50.8989L124.047 49.8877V44.663L124.552 42.472L125.732 40.618L126.406 39.6068L127.923 38.5955L129.609 37.7529L131.294 37.0787L133.991 36.9102Z" fill="#FEFEFE"/>
<path d="M68.0904 23.2578H73.8208L73.9893 23.5949V60.505L73.8208 61.5162H68.0904L67.9219 61.3477V23.4264L68.0904 23.2578Z" fill="#8E2E2C"/>
<path d="M179.324 47.5273H179.83V51.0667L179.324 53.2577L178.313 54.9431L176.459 56.4599L175.279 57.1341L173.763 57.6397L172.414 58.1453L170.055 58.4824H167.864L164.999 57.9768L162.808 56.797L161.965 55.1116V52.9206L162.808 51.5723L163.987 50.5611L165.336 50.0554L167.527 49.5498L174.1 48.7071L178.313 47.8644L179.324 47.5273Z" fill="#FEFEFE"/>
<path d="M74.4928 75.5059L78.8748 75.6744L80.2231 76.8542V78.0339L79.5489 78.5396V79.0452L80.5602 79.8879V81.2362L80.0546 82.0789L78.8748 82.416H74.3242V75.6744L74.4928 75.5059Z" fill="#0782BE"/>
<path d="M51.9102 75.5059H52.9214L53.2585 76.5171L54.2697 80.3935V80.8991H54.7753L55.2809 78.8766L56.4607 75.6744L56.6293 75.5059H57.809L58.4832 77.0227L59.4944 80.225L59.8315 80.3935L61.3484 75.6744L61.5169 75.5059H62.3596L62.1911 76.8542L60.3371 82.2474L59.3259 82.416L58.9888 82.0789L58.3147 79.8879L57.3034 76.8542L56.9663 77.3598L55.618 81.2362L55.1124 82.2474L54.9439 82.416H54.1012L53.427 80.8991L52.4158 77.1913L51.9102 76.0115V75.5059Z" fill="#0780BC"/>
<path d="M129.103 75.5059H130.114L130.788 76.3486L131.631 77.6969L131.968 77.8654V78.2025L132.642 78.5396L133.99 80.3935H134.327V75.8429L134.665 75.5059H135.507L135.676 75.6744V82.416L133.822 82.2474L133.148 80.8991L131.294 78.8766L130.451 77.6969L130.282 77.8654L130.114 82.2474L129.945 82.416L128.766 82.2474V77.5283L128.934 75.6744L129.103 75.5059Z" fill="#0782BE"/>
<path d="M142.751 76.5176H145.448L146.459 77.1917L146.965 78.203V80.0569L146.291 80.8996L145.448 81.0681L144.268 80.8996L144.942 81.4052L144.774 81.9108H143.425L142.414 81.2367L141.571 80.5625L141.234 79.8884V78.203L141.74 77.3603L142.751 76.5176Z" fill="#FEFEFE"/>
<path d="M143.597 75.3379H144.946L146.968 76.3491L147.811 77.3604L147.979 77.866V80.3941L147.305 81.4053L147.137 81.9109L147.979 82.4165L148.148 82.9222L147.137 82.7536L146.463 82.4165L145.114 82.5851H143.26L141.406 81.9109L140.732 81.0682L140.227 79.5514L140.395 78.0345L140.732 76.6862L142.418 75.675L143.597 75.3379ZM142.755 76.5177L141.406 77.6974L141.238 78.2031V79.8885L141.912 80.8997L143.429 81.9109H144.777V81.2368L144.272 80.8997L145.957 81.0682L146.8 80.3941L146.968 80.057V78.2031L146.294 77.0233L145.451 76.5177H142.755Z" fill="#0782BE"/>
<path d="M114.773 75.5059H121.009V76.3486L120.841 76.5171L116.29 76.6856V78.371L120.672 78.5396V79.3823L120.335 79.5508L116.29 79.7193V81.5733L121.009 81.7418L121.178 82.416H116.29L114.773 82.2474V75.5059Z" fill="#0781BD"/>
<path d="M160.28 75.5059H161.292L162.134 76.8542L163.988 81.0677L164.325 81.7418V82.416L163.146 82.2474L162.64 80.7306L161.629 80.562H158.932L158.258 82.2474L157.078 82.416L157.247 81.4047L160.112 75.6744L160.28 75.5059Z" fill="#0782BE"/>
<path d="M82.2467 75.5059H88.1455L88.3141 76.3486L88.1455 76.5171H83.2579L83.4264 78.371L87.8085 78.5396V79.3823L87.6399 79.5508H83.9321L83.4264 79.3823V81.5733L88.1455 81.7418L88.3141 82.416H82.2467L82.0781 82.2474L82.2467 75.5059Z" fill="#0782BE"/>
<path d="M64.0441 75.5059H69.4374V76.5171H64.8868L65.0553 78.371L69.2688 78.5396V79.5508H64.8868V81.5733L69.6059 81.7418L69.7744 82.2474L69.6059 82.416H63.707V75.6744L64.0441 75.5059Z" fill="#0782BE"/>
<path d="M99.606 75.5059H105.336V76.3486L105.168 76.5171L100.617 76.6856V78.371L104.999 78.5396V79.3823L104.831 79.5508H100.617L100.449 81.7418H105.336L105.505 82.416H99.7746L99.4375 82.2474V75.6744L99.606 75.5059Z" fill="#0782BE"/>
<path d="M149.833 75.5059H150.338L150.675 80.562L151.012 81.2362L152.024 81.7418H153.54L154.552 81.2362L154.889 80.562V75.6744L155.057 75.5059H155.9L156.069 75.6744L156.237 77.5283V80.0564L155.731 81.5733L155.057 82.2474L153.54 82.5845H152.024L150.17 82.2474L149.664 79.8879V76.5171L149.833 75.5059Z" fill="#0782BE"/>
<path d="M174.606 75.5059H181.179L181.348 75.8429L181.011 76.5171L178.651 76.6856L178.482 82.2474H177.134L176.966 76.6856L174.606 76.5171L174.438 75.6744L174.606 75.5059Z" fill="#0782BE"/>
<path d="M106.516 75.5059L107.358 75.6744L108.201 77.0227L109.549 79.8879L110.055 81.2362L110.561 80.7306L112.246 76.3486L112.752 75.5059H113.931L113.763 76.3486L112.92 77.6969L112.077 79.5508L111.066 82.0789L110.392 82.416L109.549 82.2474L107.527 78.5396L106.516 76.0115V75.5059Z" fill="#0781BD"/>
<path d="M181.516 75.5059H182.695L184.381 77.6969L184.886 78.5396L185.561 78.371L187.077 76.3486L187.583 76.18L187.752 75.6744L188.763 75.5059V76.0115L187.246 77.8654L185.898 79.5508L185.729 79.8879V82.0789L185.223 82.416L184.549 82.2474L184.381 81.7418V79.7193L183.032 77.8654L181.853 76.18L181.516 75.5059Z" fill="#0780BD"/>
<path d="M166.178 75.5059L166.684 75.6744V81.7418H170.56V82.416H165.672L165.504 82.2474V75.6744L166.178 75.5059Z" fill="#0782BE"/>
<path d="M172.078 75.5059H173.258L173.426 75.6744V82.2474L173.258 82.416H172.078V75.5059Z" fill="#0782BE"/>
<path d="M90.0006 75.5059L90.8433 75.6744L91.0118 81.7418H94.8882V82.416H90.0006L89.832 82.2474L90.0006 75.5059Z" fill="#0782BE"/>
<path d="M75.841 79.3828L78.8747 79.5514L79.3803 80.2255L79.2118 81.2367L78.5376 81.7424H75.6724L75.5039 81.4053V79.5514L75.841 79.3828Z" fill="#FEFEFE"/>
<path d="M96.5748 75.5059H97.586L97.7546 77.3598L97.586 82.416H96.5748L96.4062 81.4047V76.3486L96.5748 75.5059Z" fill="#0781BD"/>
<path d="M126.235 75.5059L127.078 75.6744V82.2474L126.235 82.416L126.066 82.2474V75.6744L126.235 75.5059Z" fill="#0781BD"/>
<path d="M75.6724 76.5176H78.7062L79.0432 76.8547V78.203L78.8747 78.3715L77.5264 78.5401H75.841L75.5039 78.3715V76.6861L75.6724 76.5176Z" fill="#FEFEFE"/>
<path d="M160.617 76.5176L161.291 77.1917L162.134 79.2142V79.7198H159.606L159.438 79.2142L160.449 76.6861L160.617 76.5176Z" fill="#FEFEFE"/>
</svg>
