<svg width="176" height="100" viewBox="0 0 176 100" fill="none" xmlns="http://www.w3.org/2000/svg">
<path d="M7.40741 0H151.462L175.049 0.194932V100H138.012H0.389864L0 99.8051V0.389864L0.194932 0.194932L7.40741 0Z" fill="#0A4998"/>
<path d="M79.7256 5.45898H97.6594L98.0492 5.65392L97.8543 6.82351L96.4898 8.38296V19.8839L97.0746 20.4687L97.6594 21.8333L98.8289 23.5876L100.778 27.0964L102.143 29.0457L103.702 31.7748L104.677 33.5292L108.576 39.767L109.55 41.1315L109.94 42.691L110.33 43.2757V46.3947L109.16 48.344L108.186 49.1237L106.431 49.9034L104.287 50.0984H71.5385L70.174 49.7085L67.8348 47.5642L67.25 46.3947L67.4449 42.691L69.7841 38.0126L72.903 33.3342H73.2929L73.6827 31.9697L75.4371 29.0457L77.1915 25.9268L79.3358 22.2231L81.0902 19.8839L81.2851 19.689V8.77282L80.7003 7.79817L79.7256 7.01844L79.5307 5.65392L79.7256 5.45898Z" fill="#FEFEFE"/>
<path d="M144.834 50.6816L145.224 50.8766L145.419 51.6563V78.167L145.029 79.3366L144.639 79.5315L142.495 79.7265L142.3 80.3113L141.91 80.5062L139.961 80.7011L138.986 81.6758H137.232L135.672 82.4555L130.019 82.6505L128.265 82.0657L126.316 81.091L123.781 78.9467L122.612 77.5822L121.832 76.2177L120.663 74.0735L120.468 72.3191L119.883 71.7343V65.4965L120.273 64.5218H120.663V62.9623L122.027 60.6232L124.171 58.284L126.9 56.5296L130.604 55.1651L133.138 54.3853L135.672 53.8005L136.842 53.4107H138.206L138.596 52.631L141.52 51.8512L143.859 51.2664L144.834 50.6816Z" fill="#FEFEFE"/>
<path d="M47.1748 56.1406H55.5569L56.3366 56.7254L60.0403 56.9204L61.4049 57.5051L64.9136 57.7001L68.0325 58.4798L68.2275 58.6747L68.4224 66.8619V86.55L68.0325 86.7449H66.668L62.7694 85.9652L59.8454 85.5753L58.8707 85.1855L56.9214 84.7956L54.5822 84.0159L53.0228 83.0412L51.8532 82.4564L48.7343 79.1426L46.785 76.8034L45.6154 75.049L45.4205 73.8794L44.4458 72.9048L44.0559 71.3453L43.6661 70.7605L43.2762 68.2264L42.8863 67.6416L42.6914 65.6923L42.8863 61.4038L43.6661 60.4291L43.861 58.6747L46.3951 56.5305L47.1748 56.1406Z" fill="#FEFEFE"/>
<path d="M22.8072 36.4531L23.9768 36.6481L27.2906 38.0126L30.0196 39.3771L33.9183 40.7416L37.0372 41.9112L38.5966 42.3011V73.4902L38.2068 75.0496L37.8169 76.2192L37.4271 78.1685L36.0625 80.8976L34.1132 83.0418L32.1639 84.2114L30.4095 84.6013L29.6298 84.9911H23.7818L22.8072 82.8469L20.6629 77.1939L20.0781 76.2192L20.2731 75.4395L22.8072 75.0496L25.5362 74.075L26.5109 73.2952L27.6805 70.9561V47.3693L25.7311 46.3946L24.7565 45.6149L23.5869 45.2251L20.468 43.6656L20.6629 42.8859L21.2477 40.9366L21.6376 40.3518L22.0274 38.2075L22.8072 36.4531Z" fill="#FEFEFE"/>
<path d="M70.9567 58.6738H72.906L75.8299 59.0637L76.6097 59.2586L81.0931 59.4536L81.483 59.6485L81.6779 61.9877L82.2627 62.5725L82.4576 64.5218L83.0424 65.6914L83.4323 67.8356L84.0171 68.6153L84.212 70.7596L84.9917 71.7343L85.1867 73.4886L85.5765 73.6836L85.7715 71.5393L86.3563 70.5647L86.7461 68.6153L87.5259 68.4204V66.861L88.3056 65.1066L89.4752 61.2079L90.2549 59.6485L90.4498 59.4536H99.2218L99.4167 59.8434L98.0522 63.7421L96.6876 67.4458L95.1282 71.9292L94.7383 72.9038L94.3485 74.2684L93.7637 75.243L93.1789 77.1923L92.2042 79.5315L91.4245 82.0656L90.8397 84.015L90.2549 85.1845L89.4752 87.3288L88.8904 89.2781L88.1106 91.6173L87.3309 93.5666L86.5512 93.9565V95.321L85.7715 97.0754L85.5765 97.2703H76.2198L76.0249 96.6855L76.9995 94.7362L78.3641 90.8376L79.3387 88.1085L79.9235 86.3541L80.3134 86.1592L80.5083 84.7947L80.1184 83.6251L79.3387 82.0656L77.1945 76.2177L75.8299 72.3191L74.8553 69.7849L72.906 64.9116L71.9313 62.7674L70.7617 59.2586L70.9567 58.6738Z" fill="#FEFEFE"/>
<path d="M160.431 44.4453L161.016 44.6402V68.4219L160.236 70.7611V73.1003L159.651 74.6597L159.261 76.6091L157.702 80.1178L156.337 82.2621L155.168 84.4063L154.388 85.7708L153.608 85.9658L151.659 85.1861L149.32 84.7962L148.735 84.4063L147.37 84.2114L146.98 83.6266L147.565 83.2367L147.955 81.8722L148.54 80.8976L149.125 79.533L149.904 77.9736L150.489 77.5837L150.684 75.8293L151.269 75.2445L151.464 48.5389L156.727 46.1997L159.846 44.6402L160.431 44.4453Z" fill="#FEFEFE"/>
<path d="M114.231 57.8945H117.155L117.35 58.0895V65.107L117.155 65.4969L115.206 66.0817L113.061 66.8614L111.892 68.4208L111.502 69.2006L111.307 86.3546L109.748 86.9394L106.434 87.5242L102.535 87.7191V59.6489L102.73 59.454L106.044 58.8692L106.629 58.6743H110.917L111.307 59.6489L113.451 58.4793L114.231 57.8945Z" fill="#FEFEFE"/>
<path d="M135.476 61.5977L136.451 61.7926V71.1493L136.256 74.0733L135.866 74.6581H134.307L133.137 74.0733V73.6834L131.578 72.9037L129.629 70.7594L129.434 69.0051V66.276L130.018 63.9368L131.188 63.1571L132.553 62.3774L134.502 61.9875L135.476 61.5977Z" fill="#0A4A99"/>
<path d="M53.9962 63.9375H56.1404L58.8695 64.9122L59.2594 65.302V74.2689L59.0644 77.7777L57.1151 76.803L54.3861 74.4638L52.8266 71.5398L52.2418 68.226L52.0469 67.2513L52.6317 65.1071L53.9962 63.9375Z" fill="#0A4998"/>
<path d="M160.623 34.8926L161.013 35.0875V42.1051L157.894 43.6645L152.631 45.8088L151.656 46.5885L151.461 46.3936V38.7912L153.8 37.8166L158.868 35.6723L160.623 34.8926Z" fill="#FEFEFE"/>
<path d="M89.4719 27.291H94.1503L94.5401 27.8758V29.0454L94.3452 29.2403H92.3959L92.006 29.4353L91.8111 30.6049L92.006 32.944L92.5908 33.3339L94.3452 33.5288L94.93 33.9187V34.6984L93.7604 35.0883L92.2009 35.2832L92.006 35.6731V40.5464L92.3959 41.716L93.5655 42.4957L94.5401 42.6906L94.3452 44.445L93.3705 44.6399L91.0313 43.4704L89.4719 41.9109L89.277 41.3261L89.082 35.4782L89.277 27.4859L89.4719 27.291Z" fill="#2CE13C"/>
<path d="M81.8707 27.291H87.5237L87.7187 36.6477L87.5237 41.521L86.9389 42.4957L85.1846 43.8602L83.82 44.445H82.4555L82.2606 44.2501V43.0805L84.2099 42.1058H84.5998L84.7947 39.7666V36.6477L84.5998 33.5288L84.7947 32.944V29.4353L82.6504 29.0454L81.8707 28.6555L81.6758 27.4859L81.8707 27.291Z" fill="#2CE13C"/>
</svg>
