<svg width="170" height="100" viewBox="0 0 170 100" fill="none" xmlns="http://www.w3.org/2000/svg">
<path d="M0 0H169.492V100H0V0Z" fill="#033767"/>
<path d="M58.6868 38.1348H61.0173L63.3478 38.5585L65.4664 39.8297L66.5258 40.889L66.7376 41.3127L66.5258 43.2195L65.2546 44.2788L64.8308 44.4907H63.1359L61.0173 43.6432H59.3224L57.6274 44.4907L56.78 46.1856V48.3043L57.8393 49.9992L59.3224 50.6348H61.6529L61.8647 48.0924L62.7122 46.8212L64.1952 46.1856L65.4664 46.3975L66.5258 47.2449L66.9495 48.9399V52.9653L66.3139 54.4483L64.1952 55.5076L62.9241 55.9314L61.441 56.1432H58.8986L56.5681 55.5076L54.6613 54.2365L53.1783 52.5415L51.9071 50.4229L51.6952 54.0246L50.8478 55.7195L49.3647 56.1432L47.458 55.9314L46.8224 54.6602L46.1868 51.4822L44.7037 49.7873L44.0681 49.1517L43.6444 54.6602L43.0088 55.7195L41.9495 56.1432H40.2546L39.1952 55.0839L38.7715 53.8127V49.9992H38.3478L38.1359 51.0585L36.6529 53.389L34.7461 55.0839L32.6274 56.1432L31.3563 56.3551H29.2376L26.6952 55.7195L24.5766 54.4483L22.8817 52.5415L21.8224 50.211L21.6105 49.5754V45.3382L22.2461 43.4314L21.6105 43.8551L19.0681 44.067V52.9653L18.6444 55.0839L17.3732 56.1432L15.8902 56.3551L14.619 55.9314L13.9834 55.0839L13.7715 54.0246L13.5597 44.067L10.8054 43.8551L9.95796 42.7958L9.74609 42.3721V40.2534L10.3817 38.9822L12.5003 38.5585H18.4325L21.8224 38.9822L22.458 39.6178L22.8817 40.6771L23.0936 41.9483L24.5766 40.2534L26.6952 38.9822L29.2376 38.3466L32.2037 38.5585L34.1105 39.1941L36.0173 40.6771L37.2885 42.1602L38.3478 44.2788L38.7715 40.6771L39.4071 39.406L40.0427 38.7704L41.7376 38.5585L43.0088 39.406L44.9156 41.5246L46.1868 43.4314L46.6105 43.6432V41.1009L47.458 39.406L48.5173 38.7704H50.0003L51.0597 39.406L51.6952 40.6771V44.7026L53.1783 41.7365L54.6613 40.0415L56.9919 38.5585L58.6868 38.1348Z" fill="#F2F65C"/>
<path d="M79.6604 37.9238H82.6265L84.5333 38.3476L86.6519 39.6187L87.4994 40.6781L87.7113 41.1018L87.4994 43.0086L86.2282 44.0679L85.8045 44.2798H84.1096L82.4147 43.4323H80.0842L78.6011 44.2798L77.7536 45.9747V48.0933L78.3892 49.1526V49.5764L79.2367 50.0001L80.9316 50.6357L82.2028 50.4238L83.0503 47.6696L84.1096 46.3984L84.5333 46.1865L86.4401 46.3984L87.4994 47.4577L87.9231 50.0001L88.135 52.7543L90.2536 47.4577L93.0079 41.3137L94.4909 38.5594L95.3384 38.1357L96.8214 38.3476L98.3045 39.6187L100.635 44.4916L102.966 49.5764L104.237 52.7543L104.449 54.2374L102.542 55.5086H100.847L99.5757 54.6611L98.9401 53.3899H93.4316L92.3723 55.0848L90.8892 55.7204L88.9825 55.2967L87.7113 54.2374L87.4994 53.8137L86.2282 54.873L84.3214 55.7204L83.0503 55.9323H80.5079L77.9655 55.2967L75.8469 54.0255L74.7875 52.9662L73.9401 51.9069L73.0926 50.212L72.457 47.2459L72.6689 44.7035L73.5164 42.5848L74.7875 40.6781L76.4825 39.195L77.9655 38.3476L79.6604 37.9238Z" fill="#F2F65D"/>
<path d="M119.281 38.1348H125.637L128.603 39.1941L130.298 40.4653L131.569 41.9483L132.416 44.2788L132.628 46.1856V48.9398L131.993 51.4822L130.51 53.389L128.815 54.6602L127.544 55.2958L126.484 55.5076H118.645L118.01 54.8721L117.586 53.6009V39.8297L118.645 38.3466L119.281 38.1348Z" fill="#F3F65B"/>
<path d="M145.975 38.5586H147.882L149.153 39.4061L151.907 43.0077L152.331 43.2196L152.755 39.8298L153.179 38.9823L154.662 38.5586L156.992 38.7705L157.416 39.4061V54.8722L156.568 55.7196L155.933 55.9315H153.814L152.967 55.084L152.119 51.4823L150.636 49.7874L149.789 48.9399V52.1179L149.365 54.8722L148.941 55.5077L148.306 55.7196H145.763L144.916 55.084L144.704 54.4484L144.492 52.1179V40.4654L145.128 39.1942L145.975 38.5586Z" fill="#F2F65C"/>
<path d="M105.297 38.3477H111.653L113.559 38.9832L115.042 40.6782L115.89 42.7968V45.1273L115.042 46.8222L114.407 47.8816L114.619 48.9409L116.102 50.8477L116.949 52.3307L117.161 53.1782V54.8731L115.678 55.5087H113.771L112.076 54.0256L109.958 51.0595V50.6358L109.322 50.8477V53.1782L108.687 55.2968L107.839 55.7205H105.932L104.873 55.0849L104.449 52.9663V40.2544L104.873 38.5595L105.297 38.3477Z" fill="#F3F65B"/>
<path d="M95.3371 38.1348L96.8202 38.3466L98.3032 39.6178L100.634 44.4907L102.964 49.5754L104.235 52.7534L104.447 54.2365L102.541 55.5076H100.846L99.5744 54.6602L98.9388 53.389H93.4303L92.371 55.0839L90.888 55.7195L88.9812 55.2958L87.9219 54.4483L88.1337 52.7534L90.2524 47.4568L93.0066 41.3127L94.4897 38.5585L95.3371 38.1348Z" fill="#F2F65C"/>
<path d="M135.17 38.3477H141.526L143.009 38.7714L143.433 39.407V42.1612L142.374 43.2205L141.738 43.4324L138.56 43.6443L138.772 44.2799L141.314 44.9155L142.162 45.551V48.3053L141.314 49.1527L139.62 49.5765H138.136L138.348 50.4239L143.009 50.8477L143.433 51.4832L143.645 52.5426V54.4494L142.586 55.5087H134.535L133.475 54.6612L133.052 53.1782L132.84 51.4832V42.3731L133.264 40.0426L134.111 38.7714L135.17 38.3477Z" fill="#F2F65C"/>
<path d="M12.5003 38.5586H18.4325L21.8224 38.9823L22.458 39.6179L22.8817 40.6772V42.1603L21.6105 43.8552L19.0681 44.0671V52.9654L18.6444 55.084L17.3732 56.1433L15.8902 56.3552L14.619 55.9315L13.9834 55.084L13.7715 54.0247L13.5597 44.0671L10.8054 43.8552L9.95796 42.7959L9.74609 42.3722V40.2535L10.3817 38.9823L12.5003 38.5586Z" fill="#F2F65C"/>
<path d="M29.0238 43.4316H31.3543L32.6255 44.0672L33.4729 45.1266L33.8967 45.974L34.1085 47.4571L33.6848 49.152L32.8373 50.4232L31.778 51.2706L31.1424 51.4825H29.4475L27.7526 50.8469L26.6933 49.5757L26.2695 48.5164V46.3977L27.117 44.7028L28.3882 43.6435L29.0238 43.4316Z" fill="#033767"/>
<path d="M122.67 43.0078H125.212L126.483 43.6434L127.543 44.9146L127.966 46.1858V47.8807L127.119 49.5756L126.06 50.4231L125.424 50.6349H122.67L122.246 49.1519V44.0671L122.67 43.0078Z" fill="#033767"/>
<path d="M109.322 42.584H110.593L111.017 42.7958L111.229 43.8552L110.805 44.7026L109.746 44.9145L109.11 44.2789L108.898 43.2196L109.322 42.584Z" fill="#033767"/>
<path d="M95.7636 46.6094L96.611 47.0331L96.8229 48.3043L96.3992 48.728L95.3398 48.5162V47.245L95.7636 46.6094Z" fill="#033767"/>
<path d="M40.6797 70.2686V65.3215H43.7766V66.1839H41.6686V67.3627H43.571V68.225H41.6686V70.2686H40.6797Z" fill="white"/>
<path d="M45.4307 65.3215V70.2686H44.4418V65.3215H45.4307Z" fill="white"/>
<path d="M46.0662 66.1839V65.3215H49.9076V66.1839H48.4756V70.2686H47.4981V66.1839H46.0662Z" fill="white"/>
<path d="M52.0287 70.2686V65.3215H55.1256V66.1839H53.0176V67.3627H54.9201V68.225H53.0176V70.2686H52.0287Z" fill="white"/>
<path d="M60.089 67.7951C60.089 68.3345 59.9923 68.7935 59.799 69.1719C59.6071 69.5504 59.3452 69.8394 59.0133 70.0391C58.6829 70.2372 58.3114 70.3362 57.8988 70.3362C57.4831 70.3362 57.1101 70.2364 56.7797 70.0367C56.4493 69.837 56.1882 69.548 55.9963 69.1695C55.8045 68.7911 55.7086 68.3329 55.7086 67.7951C55.7086 67.2556 55.8045 66.7966 55.9963 66.4182C56.1882 66.0398 56.4493 65.7515 56.7797 65.5534C57.1101 65.3537 57.4831 65.2539 57.8988 65.2539C58.3114 65.2539 58.6829 65.3537 59.0133 65.5534C59.3452 65.7515 59.6071 66.0398 59.799 66.4182C59.9923 66.7966 60.089 67.2556 60.089 67.7951ZM59.0864 67.7951C59.0864 67.4456 59.0369 67.1509 58.9379 66.911C58.8405 66.671 58.7027 66.4891 58.5246 66.3651C58.3464 66.2411 58.1378 66.1791 57.8988 66.1791C57.6597 66.1791 57.4512 66.2411 57.273 66.3651C57.0949 66.4891 56.9563 66.671 56.8574 66.911C56.7599 67.1509 56.7112 67.4456 56.7112 67.7951C56.7112 68.1445 56.7599 68.4392 56.8574 68.6792C56.9563 68.9191 57.0949 69.1011 57.273 69.2251C57.4512 69.3491 57.6597 69.4111 57.8988 69.4111C58.1378 69.4111 58.3464 69.3491 58.5246 69.2251C58.7027 69.1011 58.8405 68.9191 58.9379 68.6792C59.0369 68.4392 59.0864 68.1445 59.0864 67.7951Z" fill="white"/>
<path d="M60.8216 70.2686V65.3215H62.6669C63.0201 65.3215 63.3216 65.3884 63.5713 65.522C63.8225 65.6541 64.0136 65.8417 64.1446 66.0849C64.277 66.3264 64.3433 66.6106 64.3433 66.9375C64.3433 67.2661 64.2763 67.5487 64.1423 67.7854C64.0083 68.0205 63.8142 68.2009 63.5599 68.3265C63.3071 68.4521 63.0011 68.5149 62.6418 68.5149H61.4062V67.6743H62.4819C62.6707 67.6743 62.8275 67.6469 62.9524 67.5922C63.0772 67.5374 63.1701 67.4553 63.231 67.3458C63.2934 67.2363 63.3247 67.1002 63.3247 66.9375C63.3247 66.7733 63.2934 66.6348 63.231 66.5221C63.1701 66.4093 63.0765 66.324 62.9501 66.266C62.8253 66.2064 62.6677 66.1766 62.4773 66.1766H61.8105V70.2686H60.8216ZM63.3475 68.0173L64.51 70.2686H63.4183L62.2809 68.0173H63.3475Z" fill="white"/>
<path d="M67.3368 70.2686H66.2771L67.8918 65.3215H69.1662L70.7786 70.2686H69.7189L68.5473 66.452H68.5107L67.3368 70.2686ZM67.2706 68.3241H69.7737V69.1405H67.2706V68.3241Z" fill="white"/>
<path d="M75.2486 67.0535H74.2483C74.2301 66.9166 74.1927 66.795 74.1364 66.6887C74.0801 66.5809 74.0078 66.4891 73.9194 66.4134C73.8311 66.3377 73.7291 66.2797 73.6134 66.2395C73.4992 66.1992 73.3751 66.1791 73.2411 66.1791C72.9991 66.1791 72.7882 66.2427 72.6085 66.3699C72.4289 66.4955 72.2895 66.6791 72.1906 66.9206C72.0916 67.1606 72.0421 67.4521 72.0421 67.7951C72.0421 68.1477 72.0916 68.4441 72.1906 68.684C72.2911 68.9239 72.4311 69.1051 72.6108 69.2275C72.7905 69.3499 72.9983 69.4111 73.2343 69.4111C73.3668 69.4111 73.4893 69.3926 73.602 69.3555C73.7162 69.3185 73.8174 69.2645 73.9057 69.1937C73.9941 69.1212 74.0671 69.0334 74.125 68.9304C74.1844 68.8273 74.2255 68.7098 74.2483 68.5777L75.2486 68.5825C75.2228 68.8096 75.1581 69.0286 75.0545 69.2396C74.9525 69.4489 74.8147 69.6365 74.6411 69.8024C74.4691 69.9667 74.2635 70.0971 74.0245 70.1937C73.787 70.2887 73.5183 70.3362 73.2183 70.3362C72.8011 70.3362 72.4281 70.2364 72.0992 70.0367C71.7719 69.837 71.513 69.548 71.3227 69.1695C71.1339 68.7911 71.0395 68.3329 71.0395 67.7951C71.0395 67.2556 71.1354 66.7966 71.3273 66.4182C71.5191 66.0398 71.7795 65.7515 72.1084 65.5534C72.4372 65.3537 72.8072 65.2539 73.2183 65.2539C73.4893 65.2539 73.7405 65.2942 73.972 65.3747C74.2049 65.4552 74.4112 65.5728 74.5909 65.7274C74.7706 65.8803 74.9167 66.0679 75.0294 66.2902C75.1436 66.5124 75.2167 66.7668 75.2486 67.0535Z" fill="white"/>
<path d="M75.7796 66.1839V65.3215H79.6211V66.1839H78.1891V70.2686H77.2116V66.1839H75.7796Z" fill="white"/>
<path d="M81.2426 65.3215V70.2686H80.2537V65.3215H81.2426Z" fill="white"/>
<path d="M82.9013 65.3215L84.0318 69.0801H84.0752L85.208 65.3215H86.3042L84.6918 70.2686H83.4174L81.8027 65.3215H82.9013Z" fill="white"/>
<path d="M86.8672 70.2686V65.3215H90.0189V66.1839H87.8561V67.3627H89.8567V68.225H87.8561V69.4062H90.028V70.2686H86.8672Z" fill="white"/>
<path d="M92.2936 70.2686V65.3215H93.2825V69.4062H95.2877V70.2686H92.2936Z" fill="white"/>
<path d="M96.9315 65.3215V70.2686H95.9426V65.3215H96.9315Z" fill="white"/>
<path d="M97.7452 70.2686V65.3215H100.842V66.1839H98.7341V67.3627H100.637V68.225H98.7341V70.2686H97.7452Z" fill="white"/>
<path d="M101.507 70.2686V65.3215H104.659V66.1839H102.496V67.3627H104.497V68.225H102.496V69.4062H104.668V70.2686H101.507Z" fill="white"/>
<path d="M107.983 66.7443C107.964 66.5494 107.886 66.3981 107.747 66.2902C107.609 66.1823 107.421 66.1283 107.183 66.1283C107.022 66.1283 106.886 66.1525 106.774 66.2008C106.663 66.2475 106.578 66.3127 106.519 66.3965C106.461 66.4802 106.432 66.5752 106.432 66.6815C106.429 66.7701 106.446 66.8474 106.484 66.9134C106.524 66.9794 106.578 67.0366 106.646 67.0849C106.715 67.1316 106.794 67.1727 106.884 67.2081C106.974 67.2419 107.07 67.2709 107.172 67.2951L107.592 67.4013C107.796 67.4496 107.983 67.5141 108.154 67.5946C108.324 67.6751 108.472 67.7741 108.597 67.8917C108.722 68.0093 108.818 68.1477 108.887 68.3072C108.957 68.4666 108.993 68.6494 108.994 68.8555C108.993 69.1583 108.92 69.4207 108.775 69.643C108.632 69.8636 108.425 70.0351 108.154 70.1575C107.884 70.2783 107.559 70.3387 107.179 70.3387C106.801 70.3387 106.472 70.2775 106.192 70.1551C105.913 70.0327 105.696 69.8515 105.539 69.6116C105.384 69.37 105.302 69.0713 105.294 68.7154H106.251C106.262 68.8813 106.307 69.0198 106.386 69.1309C106.467 69.2404 106.574 69.3233 106.708 69.3797C106.844 69.4344 106.997 69.4618 107.167 69.4618C107.335 69.4618 107.48 69.436 107.603 69.3845C107.728 69.333 107.825 69.2613 107.893 69.1695C107.962 69.0777 107.996 68.9723 107.996 68.8531C107.996 68.742 107.965 68.6486 107.903 68.5729C107.842 68.4972 107.752 68.4328 107.633 68.3796C107.516 68.3265 107.372 68.2782 107.201 68.2347L106.692 68.0994C106.298 67.998 105.986 67.8394 105.758 67.6236C105.53 67.4078 105.416 67.1171 105.418 66.7516C105.416 66.452 105.492 66.1903 105.644 65.9665C105.798 65.7427 106.009 65.5679 106.276 65.4423C106.544 65.3167 106.849 65.2539 107.19 65.2539C107.537 65.2539 107.84 65.3167 108.099 65.4423C108.359 65.5679 108.562 65.7427 108.707 65.9665C108.851 66.1903 108.926 66.4496 108.93 66.7443H107.983Z" fill="white"/>
<path d="M109.481 66.1839V65.3215H113.323V66.1839H111.891V70.2686H110.913V66.1839H109.481Z" fill="white"/>
<path d="M113.681 65.3215H114.789L115.856 67.4521H115.901L116.968 65.3215H118.075L116.369 68.5197V70.2686H115.387V68.5197L113.681 65.3215Z" fill="white"/>
<path d="M118.616 70.2686V65.3215H119.604V69.4062H121.61V70.2686H118.616Z" fill="white"/>
<path d="M122.265 70.2686V65.3215H125.416V66.1839H123.254V67.3627H125.254V68.225H123.254V69.4062H125.425V70.2686H122.265Z" fill="white"/>
</svg>
