<svg width="120" height="120" viewBox="0 0 120 120" fill="none" xmlns="http://www.w3.org/2000/svg">
<path d="M50.2556 0H51.3383L52.5113 0.270677L53.9549 0.992481L55.218 1.80451L56.5714 2.70677L58.1053 3.60902L60.1805 4.96241L61.8045 5.95489L62.797 6.58647L64.0602 7.3985L66.2256 8.75188L67.4887 9.56391L68.4812 10.1955L69.9248 11.0977L71.5489 12.0902L72.3609 12.6316L74.4361 13.8947L75.8797 14.797L78.2256 16.2406L79.7594 17.2331L82.1053 18.6767L83.188 19.3985L84.1805 20.0301L85.8947 21.0226L87.3383 21.9248L89.6842 23.3684L91.4887 24.5414L92.8421 25.3534L94.8271 26.6165L96.9925 28.0602L98.4361 29.4135L99.1579 30.2256L99.8797 31.3083L100.06 32.1203L100.15 32.6617L100.782 33.3835L101.594 33.8346L102.767 34.9173L104.12 36.3609L105.203 37.5338L105.835 38.1654L106.466 38.8872L116.12 48.5414L116.842 49.1729L119.098 51.4286L119.82 52.0602L120 52.3308L119.91 52.8722L119.278 53.594L118.556 54.2256L116.842 55.9398L114.677 58.2857L112.962 60L112.331 60.7218L111.519 61.6241L109.263 63.8797L108.541 64.5113L108.09 65.0526L107.549 65.5038L106.917 66.2256L105.744 67.3985L105.113 68.1203L103.85 69.4737L103.218 70.1955H103.038L102.857 70.6466L102.496 71.8195V84.9023L102.135 85.5338L101.684 85.4436L100.962 85.3534L100.15 85.8947L100.06 86.7068L100.15 86.797V87.7895L99.9699 88.8722L99.6992 89.594L98.7068 90.8571L98.0752 91.5789L97.3534 92.2105L96.1805 93.1128L94.8271 94.015L93.8346 94.5564L93.1128 95.0977L91.8496 95.8195L89.3233 97.3534L88.4211 97.985L86.6165 99.0677L84.6316 100.331L82.9173 101.414L81.2932 102.406L80.3008 103.038L78.3158 104.211L76.6015 105.383L75.609 105.925L73.8947 107.008L72.4511 107.91L71.5489 108.451L70.5564 109.083L69.2932 109.895L67.3985 111.068L66.4962 111.609L65.0526 112.602L63.0677 113.774L62.1654 114.316L60.7218 115.218L59.6391 115.85L58.015 116.932L57.1128 117.474L55.218 118.556L54.6767 118.827L53.8647 119.368L52.8722 119.729H51.0677L50.4361 120L49.1729 119.82L48.4511 119.639L47.0075 118.827L46.4662 118.466L45.6541 118.015L44.6617 117.293L43.6692 116.752L42.5865 116.03L41.4135 115.308L40.5113 114.677L39.6992 114.226L39.0677 113.774L38.5263 113.504L37.985 113.143V112.962L37.5338 112.872L36.5414 112.241L36.1805 111.88L35.0977 111.429L34.2857 110.797L33.0226 110.075L32.0301 109.444L31.4887 108.992L31.0376 108.812L30.3158 108.271L29.5038 107.82L29.2331 107.549L27.9699 106.917L27.1579 106.376L25.985 105.654L24.9925 105.023L24.7218 104.842V104.662L24.0902 104.481L23.3684 104.03L22.7368 103.579L22.3759 103.398V103.218L21.9248 103.038L21.203 102.677L20.3008 102.135L18.7669 101.143L17.9549 100.692L17.1429 100.06L16.5113 99.7895L15.7895 99.2481L15.1579 98.8872L14.7068 98.5263L13.6241 97.985L13.1729 97.6241L13.0827 97.4436L12.3609 97.1729L11.188 96.4511L10.7368 96.1805L9.74436 95.6391L8.1203 94.5564L6.85714 93.7444L6.22556 93.3835L5.41353 92.8421L4.69173 92.3008L3.78947 91.4887L3.24812 91.0376L2.52632 90.0451L1.98496 89.3233L1.80451 88.4211L1.89474 87.5188L1.71429 86.1654L1.44361 85.7143L0.541353 85.3534L0.360902 85.2632L0.0902256 84.1805L0 83.4586V35.4586L0.180451 34.5564L0.631579 34.1053L1.26316 33.7444H1.44361L1.62406 33.3835L1.80451 32.9323L2.16541 31.0376L2.52632 30.406L2.79699 30.3158L2.88722 29.9549L3.33835 29.5038L4.15038 28.782L4.42105 28.5113L5.68421 27.5188L7.03759 26.5263L9.02256 25.2632L10.7368 24.1805L12.5414 23.0977L14.5263 21.8346L15.6992 21.1128L17.6842 19.8496L19.8496 18.4962L21.9248 17.2331L23.6391 16.1504L24.9925 15.3383L26.3459 14.4361L28.1504 13.3534L31.5789 11.188L33.203 10.1955L34.1955 9.56391L36.2707 8.30075L37.8045 7.30827L39.3383 6.40601L42.2256 4.51128L43.8496 3.5188L45.5639 2.43609L47.4586 1.26316L48.7218 0.541353L49.8045 0.0902256L50.2556 0ZM50.7068 5.14286L49.8947 5.59399L47.188 7.3985L45.4737 8.4812L44.5714 9.02256L43.7594 9.56391L42.5865 10.2857L41.6842 10.8271L40.8722 11.3684L39.2481 12.3609L37.4436 13.4436L36.5414 14.0752L35.188 14.8872L35.0075 15.1579L34.4662 15.3383L33.6541 15.8797L32.8421 16.3308L30.4962 17.7744L29.4135 18.4962L27.9699 19.3985L25.8947 20.6617L24.9925 21.2932L23.0075 22.4662L22.015 23.0977L20.6617 24L19.7594 24.5414L18.6767 25.1729L17.7744 25.8045L17.6842 25.985L16.9624 26.2556L15.609 27.1579L14.3459 27.8797L13.0827 28.782L12.0902 29.3233L11.2782 29.8647L11.188 30.0451L10.5564 30.3158L9.65413 30.8571L7.7594 32.0301L7.12782 32.5714L6.85714 33.1128L6.94737 33.6541L7.3985 34.015L9.65413 34.1955L9.83459 34.2857L9.92481 35.0075V38.4361L9.83459 49.985L9.92481 50.797L10.015 50.9774L10.6466 50.8872L11.5489 50.3459L12 49.8947L12.9023 49.1729L15.2481 47.188L16.4211 46.2857L17.5038 45.4737L18.7669 44.4812L19.7594 43.6692L20.9323 42.6767L21.4737 42.2256L22.3759 41.5038L23.6391 40.5113L24.812 39.5188L27.3383 37.5338L28.2406 36.7218L29.3233 35.9098L30.1353 35.188L31.1278 34.3759L32.3008 33.3835L33.203 32.6617L33.7444 32.3008L34.7368 31.4887L35.4586 30.9474L35.7293 30.7669V30.5865L36.6316 30.406H37.1729L37.4436 30.6767H37.6241L37.8045 31.218L38.6165 32.2105L39.1579 32.9323H39.3383L39.5188 33.2932L40.9624 34.8271L41.5038 35.4586L41.7744 36.0902L41.6842 36.6316L41.594 36.9023H41.4135L40.8722 37.5338L40.1504 38.1654L38.8872 39.4286L38.1654 40.0602L37.4436 40.782L36.812 41.5038L35.188 43.1278L34.5564 43.8496L32.9323 45.4737L32.2105 46.1053L31.218 47.0977L30.4962 47.7293L28.6015 49.6241L27.8797 50.2556L25.4436 52.6917L24.812 53.4135L23.6391 54.5865L22.9173 55.218L18.4962 59.6391L17.7744 60.2707L16.6917 61.3534L15.9699 61.985L15.7895 62.2556V62.797L16.2406 63.2481L17.0526 63.8797L18.0451 64.5113L19.3083 65.5038L20.6617 66.5865L22.4662 67.8496L23.4586 68.5714L24.6316 69.4737L25.6241 70.1955L26.5263 70.9173L27.7895 71.7293L28.8722 72.5414L30.4962 73.7143L31.5789 74.5263L33.1128 75.609L34.1955 76.3308L35.3684 77.2331L36.7218 78.2256L38.4361 79.3985L39.4286 80.1203L41.1429 81.3835L42.2256 82.1955L43.5789 83.0075L44.0301 83.4586L44.7519 84L44.6617 84.7218V84.9925L44.391 85.5338L43.8496 85.985L43.4887 86.6165L43.1278 87.0677L42.5865 88.0602L41.594 89.5038L40.782 90.406L40.6015 90.6767L39.7895 90.5865L38.1654 89.594L37.4436 89.0526L36.6316 88.5113L35.6391 87.8797L34.8271 87.3383L33.9248 86.797L32.9323 86.1654L31.7594 85.3534L30.7669 84.812L30.1353 84.2707L29.3233 83.8195L28.4211 83.188H28.2406V83.0075L27.5188 82.5564L26.9774 82.2857L25.8947 81.5639L25.1729 81.1128L24.2707 80.4812L23.7293 80.1203L23.0075 79.6692L22.2857 79.3083L21.3835 78.6767L20.5714 78.1353L19.3083 77.3233L17.7744 76.4211L16.9624 75.8797L16.3308 75.4286L15.2481 74.8872L14.2556 74.1654L13.3534 73.6241L11.9098 72.5414L11.188 72.0902L10.2857 71.7293H9.92481L9.83459 71.9098L9.74436 73.0827L9.83459 74.3459V82.9173L9.74436 84.2707L9.47368 84.9023L8.8421 85.3534L7.48872 85.4436L6.76692 85.985L6.58647 86.2556L6.67669 86.8872L7.03759 87.609L7.3985 88.1504L8.75188 89.1429L10.2857 90.0451L11.6391 91.0376L13.985 92.4812L15.0677 93.1128L16.4211 94.015L17.594 94.7368L19.0376 95.6391L20.391 96.5414L21.203 96.9925L22.3759 97.7143L23.7293 98.6165L24.9023 99.3383L26.1654 100.06L27.7895 101.143L29.5038 102.135L31.3083 103.308L32.1203 103.85L33.6541 104.662L34.5564 105.293L36.5414 106.556L38.0752 107.459L39.4286 108.361L41.0526 109.353L42.8571 110.526L44.5714 111.519L45.4737 112.06L47.0075 113.053L48.0902 113.684L49.3534 114.496L50.3459 115.218L50.5263 115.308H51.1579L52.3308 114.677L53.8647 113.684L54.8571 113.053L56.7519 111.88L58.5564 110.707L60.2707 109.624L61.8947 108.632L63.3383 107.729L64.5113 107.008L65.5038 106.376L66.6767 105.654L68.7519 104.391L70.1955 103.489L71.9098 102.406L73.5338 101.414L74.9774 100.511L76.1504 99.7895L78.2256 98.4361L79.7594 97.5338L80.7519 96.9023L81.9248 96.1805L84.0902 94.8271L85.0827 94.1955L86.5263 93.2932L87.6992 92.5714L88.6917 91.9398L90.4962 90.7669L91.4887 90.1353L93.0226 89.2331L94.015 88.6015L95.0075 87.7895L95.2782 87.3383V86.3459L95.0977 85.7143L94.7368 85.4436L93.1128 85.2632L92.8421 85.1729L92.6617 84.6316L92.5714 82.7368V63.7895L92.4812 61.8947L92.2105 61.2632L91.7594 60.812H91.1278L90.4962 61.1729L89.5038 61.985L88.8722 62.6165L88.3308 63.0677L87.6992 63.7895L83.0977 68.391L82.3759 69.0226L81.6541 69.8346L81.1128 70.2857L80.4812 71.0075L78.7669 72.7218L78.1353 73.2632L77.5038 73.985L66.406 85.0827L65.2331 86.1654L64.6015 86.8872L61.6241 89.8647L60.812 90.4962L60.1805 91.218L59.3684 91.8496L58.9173 92.3008V92.4812L57.9248 92.5714H57.7444V92.391L57.203 92.1203L55.6692 90.5865H55.4887V90.406L54.1353 89.0526L53.5038 88.2406L52.8722 87.609H52.6917L52.5113 87.2481L52.0602 86.5263V86.0752L53.1429 84.9925L54.0451 84.2707L55.4887 82.9173L55.8496 82.6466V82.4662L56.2105 82.2857L57.7444 80.7519L58.4662 80.1203L58.9173 79.6692L60.1805 78.4962L61.0827 77.7744L61.8947 76.9624L62.6165 76.3308L63.609 75.3383L64.3308 74.7068L65.5038 73.6241L66.8571 72.4511L67.3083 72L68.5714 70.8271L69.4737 70.1053L70.1053 69.4737L71.0977 68.6617L71.8195 67.9398L72.4511 67.4887L72.9925 66.8571L73.7143 66.2256L74.3459 65.6842L76.6015 63.4286L77.3233 62.797L78.5865 61.7143L79.3083 61.0827L79.3985 60.9023V60.1805L78.9474 59.8195L77.4135 58.7368L76.3308 57.7444L74.5263 56.3008L73.5338 55.3985L73.0827 55.1278H72.9023V54.9474L72.0902 54.3158L71.0977 53.5038L70.1955 52.782L69.203 51.8797L68.391 51.2481L67.4887 50.5263L65.5038 49.0827L64.782 48.4511L64.0602 47.9098H63.8797V47.7293L62.9774 47.0075L61.985 46.1053L60.812 45.203L59.4586 44.2105L59.0075 43.7594L58.4662 43.3985L57.6541 42.7669L56.9323 42.2256L55.9398 41.4135L54.8571 40.4211L53.9549 39.7895L53.1429 39.1579L52.1504 38.3459L51.609 37.8947L50.797 37.3534L50.0752 36.6316L49.0827 35.9098L48.5414 35.188V34.4662L49.1729 33.5639V33.3835H49.3534L49.8947 32.4812L50.4361 31.4887L51.4286 29.594L52.2406 28.3308L52.6015 27.609L53.0526 27.2481H53.594L54.406 27.609L55.7594 28.6917L57.0226 29.6842L58.1955 30.6767L59.9098 31.9398L61.1729 32.8421L61.985 33.5639L62.797 34.1955L63.8797 35.0977L64.6015 35.6391L65.6842 36.5414L66.406 37.0827L67.9398 38.1654L69.3835 39.3383L70.1955 39.9699L71.7293 41.2331L72.9925 42.2256L74.7068 43.4887L75.609 44.2105L76.6015 45.0226L77.8647 46.015L78.9474 46.9173L80.2105 47.8195L81.203 48.5414L82.2857 49.4436L83.4586 50.3459L84.0902 50.8872L85.8947 52.2406L87.1579 53.1429L88.2406 53.9549L89.1429 54.6767L90.0451 55.218L90.9474 55.5789L91.8496 55.6692L92.3008 55.3083L92.391 54.8571L92.5714 41.4135L92.4812 36.5414V34.8271L92.6617 34.3759L93.8346 34.2857L94.7368 34.015L95.188 33.5639V33.0226L94.7368 32.5714L93.8346 31.8496L92.7519 31.1278L92.0301 30.6767L91.218 30.2256L90.406 29.6842L88.6015 28.5113L87.609 27.8797L86.797 27.4286L85.4436 26.5263L84.2707 25.8045L83.3684 25.1729L81.4737 24L80.6617 23.4586L79.5789 22.8271L78.9474 22.3759L77.594 21.5639L76.782 21.1128L75.9699 20.5714L75.4286 20.3008L74.797 19.8496L74.3459 19.5789L73.7143 19.1278L72.9925 18.7669L71.8195 17.9549L71.0075 17.5038L69.9248 16.782L68.9323 16.1504L68.1203 15.6992L67.3985 15.1579L66.5865 14.7068L64.8722 13.6241L63.9699 13.0827L62.4361 12.0902L61.6241 11.6391L60.5414 10.9173L59.2782 10.1053L58.3759 9.65413L57.6541 9.11278L56.5714 8.4812L56.2105 8.21053L55.3985 7.7594L54.4962 7.12782L53.3233 6.40601L52.3308 5.77444L52.0602 5.68421L51.8797 5.32331L51.5188 5.14286H50.7068Z" fill="#F41319"/>
</svg>
