<svg width="286" height="100" viewBox="0 0 286 100" fill="none" xmlns="http://www.w3.org/2000/svg">
<path d="M213.947 0H233.612L243.933 0.69735L249.512 1.25523L257.322 2.51046L261.506 3.34728L265.272 4.32357L270.153 5.85774L273.78 7.39191L276.987 9.06555L279.498 10.7392L280.893 11.855L282.706 13.8075L284.658 16.4575L285.635 17.8522V25.802L284.937 26.4993L282.985 30.1255L281.59 32.2176L280.056 34.0307L278.801 35.5649L274.338 40.0279L272.803 41.2831L271.13 42.6778L269.874 43.6541L267.364 45.4672L262.343 48.8145L256.764 52.1618L253.138 54.2538L247.699 57.0432L245.328 58.2985L242.12 59.8326L237.936 61.7852L233.054 63.8773L227.755 66.1088L223.989 67.643L220.363 69.0377L216.318 70.5718L213.947 71.5481L210.6 72.6639L206.416 74.198L191.632 78.94L184.519 81.0321L176.848 83.1241L170.99 84.6583L161.925 86.8898L154.114 88.7029L144.212 90.795L130.823 93.3054L119.805 95.1185L112.831 96.0948L104.184 97.2106L96.3738 98.0474L85.6346 99.0237L73.6402 99.7211L67.5035 100H55.2301L47.4198 99.5816L40.7252 99.0237L34.728 98.3264L29.1492 97.4895L24.1283 96.5132L20.5021 95.6764L16.0391 94.2817L13.5286 93.3054L10.7392 92.0502L8.92608 90.9344L7.25244 89.9582L5.29986 88.424L3.90516 87.1688L2.7894 86.053L1.81311 84.7978L0 82.1478V73.7796L0.55788 73.5007L1.25523 72.3849L2.51046 70.0139L3.90516 67.9219L5.02092 66.3877L6.83403 64.2957L8.08926 63.0404L8.78661 62.2036L9.90237 61.2273L10.8787 60.251L12.4128 58.9958L14.5049 57.3222L17.2943 55.2301L19.6653 53.5565L23.2915 51.1855L26.0809 49.5119L28.5914 47.9777L31.9386 46.0251L36.5411 43.6541L39.1911 42.2594L43.3752 40.1674L47.6987 38.2148L49.7908 37.2385L53.5565 35.5649L58.5774 33.4728L64.4351 31.2413L69.0377 29.4282L72.3849 28.1729L77.4059 26.3598L86.1925 23.431L91.2134 21.8968L100.418 19.1074L107.671 17.0153L117.294 14.5049L125.105 12.5523L133.752 10.5997L141.841 8.92608L149.651 7.39191L157.462 5.99721L168.619 4.1841L180.195 2.64993L186.611 1.95258L196.374 0.97629L201.534 0.55788L210.6 0.13947L213.947 0Z" fill="#E13224"/>
<path d="M95.3957 32.2175H114.503L119.385 32.357L122.871 32.7754L126.079 33.4728L127.892 34.1701L129.426 35.0069L131.24 36.6806L132.216 37.9358L132.774 39.3305L133.053 40.4463V42.5383L132.634 45.3277L131.797 47.8382L130.821 49.7908L129.147 52.0223L127.892 53.2775L126.219 54.5327L123.987 55.6485L121.337 56.4853L118.408 57.0432L114.782 57.4616L105.298 57.6011L104.74 60.3905L103.485 65.1325L102.927 67.9219L101.811 68.3403H87.8643L86.1907 68.2008L85.6328 67.7824L85.7723 66.5272L86.4696 64.2956L87.8643 58.8563L89.3985 52.3012L91.3511 43.933L93.4431 35.5648L94.001 33.1938L94.5589 32.4965L95.3957 32.2175Z" fill="#FEFEFE"/>
<path d="M151.042 32.2175H161.781L166.523 32.357L169.87 32.6359L173.218 33.3333L175.449 34.1701L177.123 35.1464L178.936 36.82L179.912 38.2147L180.61 39.7489L180.889 40.8647V42.1199L180.61 44.0725L179.912 46.5829L178.936 48.8145L177.82 50.6276L176.704 52.0223L175.031 53.6959L173.078 54.9511L170.847 55.9274L168.894 56.4853L166.105 57.0432L162.479 57.4616L159.131 57.6011L153.134 57.7405L151.879 62.0641L151.321 64.2956L150.763 67.7824L149.926 68.2008L136.816 68.3403L133.887 68.2008L133.469 67.7824L133.608 66.5272L134.863 61.7852L136.398 55.3696L137.513 50.4881L138.211 47.5592L139.048 43.3751L141.419 34.0306L141.837 32.7754L142.255 32.357L151.042 32.2175Z" fill="#FEFEFE"/>
<path d="M192.612 32.2175H206.559L206.42 33.6122L205.444 37.5174L203.212 47.0014L201.399 53.9749L200.562 56.7643L202.375 56.9037H217.438L217.577 57.3221L216.183 63.1799L215.625 65.2719L215.346 66.9456L214.928 68.0613L214.23 68.3403H185.081L181.734 68.2008L181.315 68.0613L181.176 67.7824V66.6666L182.57 61.9246L184.663 52.8591L185.778 47.9776L186.476 45.0488L187.312 41.1436L188.707 35.5648L189.265 33.0543L189.962 32.357L192.612 32.2175Z" fill="#FEFEFE"/>
<path d="M80.3354 32.0781H84.5195V33.1939L83.4038 37.9359L82.288 42.3989L80.7539 49.0935L78.9407 56.9038L77.6855 62.0642L76.2908 67.7824L75.8724 68.2009L69.0384 68.3403H61.3675L59.2755 68.2009L58.5781 67.5035L58.9965 66.1088L60.8096 59.5537L61.9254 54.5328L62.9017 50.4882L64.1569 45.0488L66.1095 37.378L66.8069 34.7281L67.0858 33.3334L67.5042 32.636L67.6437 32.4965L69.3173 32.3571L80.3354 32.0781Z" fill="#FEFEFE"/>
<path d="M213.949 0H233.614L243.935 0.69735L249.514 1.25523L257.324 2.51046L261.508 3.34728L265.274 4.32357L270.155 5.85774L273.782 7.39191L276.989 9.06555L279.5 10.7392L280.895 11.855L281.731 12.6918L281.592 13.1102H280.616L280.058 12.8312V12.5523L279.36 12.4128L278.942 11.9944L279.081 11.576L278.105 11.2971L277.268 10.5997H276.85L275.316 9.90237L274.618 9.7629L273.921 9.34449V9.06555L273.224 8.92608V8.64714H272.526L272.108 8.3682L271.55 8.08926L270.574 7.67085V7.39191L269.737 7.25244L269.458 7.53138V7.25244H269.179V6.9735H268.9V7.25244L267.924 7.11297V6.83403L266.808 6.69456L266.39 6.27615H265.832V5.99721L264.716 6.13668L264.577 5.85774H264.158V5.5788L263.74 5.71827H263.182H262.485L262.206 5.16039L261.648 5.02092L261.508 5.43933L260.95 5.29986L260.532 4.74198H260.253V4.46304L258.998 4.74198V4.46304L258.579 4.60251H258.161H257.603L257.324 4.1841L255.79 4.04463L255.65 3.76569L255.232 3.90516H254.953H254.535L254.256 3.76569V3.48675L253.698 3.62622L253.001 3.48675H252.303V3.20781L251.885 3.34728L249.932 3.06834L249.235 3.20781L248.398 3.06834L247.98 3.20781H247.422L247.282 2.7894V3.20781L246.724 3.06834L246.445 2.92887L245.051 2.7894L244.353 2.92887L244.214 2.37099L242.959 2.7894L241.982 2.64993V2.23152H241.425V2.51046L241.146 2.64993H240.309L240.727 2.23152H239.193L238.775 1.81311H238.077L237.519 1.3947L237.24 1.25523V1.53417H236.961L236.822 0.97629L237.101 0.83682L235.288 0.97629H234.869H233.754L233.893 1.53417L233.475 1.67364L233.196 1.25523L233.475 0.83682H232.22L232.498 0.97629V1.81311L231.662 1.67364V1.3947L231.941 1.25523L231.801 0.83682L231.522 0.97629V0.69735L231.243 0.83682L231.522 1.11576V1.67364H230.406L230.825 1.25523L229.849 0.97629L229.57 0.83682V1.11576L229.012 0.97629L229.291 1.3947L228.035 1.81311L227.756 1.95258L227.059 1.67364L227.338 1.25523L226.92 1.11576V0.83682L226.362 0.97629L226.78 1.3947L226.641 1.81311L226.222 1.95258L225.664 1.53417L225.525 1.81311L225.107 1.67364L224.13 1.53417L222.875 1.81311L222.178 1.67364L221.899 1.53417V1.81311H220.644L220.365 1.95258L219.667 1.67364V1.95258L218.412 1.81311H217.575L217.296 1.67364L215.902 1.95258L215.204 1.67364L214.507 1.81311H213.949L213.531 2.23152L212.415 2.09205L211.717 2.23152L211.578 2.64993L209.904 2.37099L209.765 2.64993H208.928H208.51L207.115 2.51046L206.975 2.7894L205.999 2.51046L205.72 2.64993H204.744L204.604 2.51046H203.907L203.349 2.37099L203.21 2.64993H202.791V2.37099H202.512L202.373 2.64993H201.397V2.23152H200.699L200.42 2.37099L200.281 2.09205L198.886 2.23152H198.189L197.91 1.95258L197.77 2.23152H196.376L196.236 2.51046L195.399 2.7894L194.981 2.51046V2.7894L193.586 3.06834L193.447 2.92887L193.168 3.20781L191.913 2.92887L190.797 3.20781L189.821 3.06834V2.7894H189.542V3.06834L188.984 3.20781L188.565 2.7894L188.426 3.20781H187.031L186.473 3.34728L186.334 3.06834L186.055 3.20781V2.92887L185.358 3.34728H184.242L183.963 3.48675H182.847L182.15 3.62622L181.871 3.34728L181.173 3.62622L179.779 3.76569H179.081L178.663 3.62622V3.34728L177.966 3.76569L177.129 3.90516L176.989 4.32357L176.85 4.46304H175.455L175.316 4.1841L173.642 4.32357L172.945 4.46304H172.526H172.247L171.968 4.74198L171.69 4.46304L170.992 4.74198L170.016 4.88145L169.876 4.74198L169.319 4.88145L168.761 5.43933L168.342 5.5788L167.924 5.43933L167.366 5.5788L166.808 5.29986L166.111 5.5788V5.16039H165.832L165.692 5.43933L164.995 5.5788L164.716 5.43933V5.16039L163.461 5.5788L162.066 5.71827L161.508 6.13668H159.556L159.137 6.55509H158.719L158.579 6.41562L158.021 6.69456V6.41562L157.603 6.55509H156.766V6.83403V7.39191L156.487 7.25244L156.348 7.39191L156.069 7.25244V6.9735L155.093 7.25244L154.953 6.9735H153.837L153.14 7.25244L151.466 7.39191L149.793 7.81032L149.514 7.94979L148.398 8.08926L144.911 8.64714L142.261 9.20502L141.006 9.48396L139.611 9.90237L138.496 10.0418L137.24 10.3208L135.706 10.4603L135.567 10.8787H135.148H134.172L131.522 11.4365L130.825 11.855H129.709L128.035 12.2734L125.943 12.6918L119.667 14.2259L117.575 14.7838L113.67 15.7601H112.973L113.531 15.4812L123.293 12.9707L132.498 10.8787L141.006 9.06555L149.653 7.39191L157.464 5.99721L168.621 4.1841L180.197 2.64993L186.613 1.95258L196.376 0.97629L201.536 0.55788L210.602 0.13947L213.949 0Z" fill="#F13A2E"/>
<path d="M191.63 30.8228L191.77 31.1017L193.304 30.8228L193.862 30.9622L194.559 30.8228L196.651 30.9622H197.767L199.162 31.1017L199.301 31.3806L199.859 31.2412L200.556 31.1017L201.254 31.2412V31.5201L201.812 31.3806L202.648 31.6596H204.322V31.9385H206.275L206.832 32.2175L206.554 33.6122L206.414 33.0543L206.554 32.2175L192.607 32.3569L189.957 32.4964L189.399 33.0543L188.701 36.1226L187.028 42.9566L186.051 47.5592L184.936 52.1617L184.099 55.9274L183.123 59.972L182.286 63.4587L181.449 65.9692L181.309 66.6665V68.0612L185.633 68.2007H214.224L214.922 67.9218L215.34 66.3876L215.759 64.1561L217.293 58.0194L217.432 57.0431H202.369L200.556 56.7642L200.696 55.7879L201.951 51.3248L203.904 43.5145L204.88 39.3304H205.019L204.88 40.7251L203.346 47.4197L202.509 50.6275L203.067 50.488V51.0459L203.346 50.9064L203.206 50.488L203.485 49.5117L204.183 48.8144L204.322 49.0933L204.183 49.3723V51.1854L203.904 51.8827L203.764 52.9985L203.625 54.2537L204.322 54.8116H205.856L206.972 55.23L207.948 55.3695L208.227 55.5089L209.064 55.6484L210.459 56.2063L216.316 56.4852L217.572 56.6247L217.851 56.9036L217.711 58.1589L217.293 59.8325V60.3904L217.851 60.5299L217.572 61.3667H217.293L217.153 61.6456L216.874 61.5062L216.735 62.7614L216.316 63.8771L216.038 65.8297L216.177 66.1087L216.038 66.3876L216.735 66.2481L216.874 66.806L216.735 67.3639L216.177 67.5034V67.2244L215.619 67.3639L215.201 68.3402L213.527 68.8981L212.551 69.177H208.785H208.367L207.809 69.3165H206.135L204.601 69.4559H200.975L200.556 69.3165V69.7349L200.835 69.8744L200.417 70.2928H199.859L199.72 70.5717L200.696 70.4322L200.556 71.1296L200.696 71.4085H200.417L200.556 71.6875L201.114 71.9664L200.835 72.2453L200.417 72.1059L199.859 72.3848V71.9664L199.301 72.5243L197.906 72.8032L198.185 73.0822L196.93 73.7795L196.512 74.1979L195.814 74.0585L195.675 74.3374H195.396V74.6163L194.42 74.8953L193.443 75.4532L192.885 75.5926L191.77 76.1505L189.957 76.5689L189.399 76.7084L188.422 76.8479L188.562 76.5689L190.793 75.4532L191.77 74.8953L192.188 74.1979L194.001 73.5006L194.42 73.3611V73.0822L194.838 72.8032L195.117 72.6638L195.396 72.1059H195.675L195.535 71.6875L195.814 71.1296H196.093L196.372 70.2928L196.651 70.0138L197.488 69.7349L196.512 69.5954V69.3165L195.675 69.4559H193.304L192.049 69.3165H190.096L186.47 69.177L184.657 69.3165L184.238 69.177H182.844L182.425 68.8981L181.588 68.7586L181.449 69.0375L180.752 68.7586L180.473 68.3402V67.085L180.891 65.6903L181.17 64.714V63.4587L181.588 60.9483H181.867L181.728 60.2509L182.146 59.4141L182.286 57.7405L182.704 56.9036L182.565 55.6484V55.23V54.8116H182.844L182.704 54.2537L183.123 53.6958L182.983 53.138L183.262 52.5801L183.402 51.6038L183.68 51.0459L183.541 50.488L183.82 50.3486V49.7907L184.099 49.6512L184.238 48.2565L184.517 48.117V47.4197L184.238 47.2802L184.657 45.8855L184.796 45.1882L185.075 44.9092V44.0724L185.773 43.3751H185.494V42.9566H185.215L185.494 42.2593H185.912L186.33 40.3067H186.609L186.33 39.4699L186.609 39.0515V38.7725L186.888 38.6331L186.749 37.9357H187.028V37.6568L186.749 37.3778L187.167 37.0989L187.307 36.1226L187.725 35.9831L187.586 35.4253L188.004 34.7279L188.283 34.0306L188.701 33.1937H188.422L188.562 32.7753H188.841L189.399 32.2175L190.236 32.078V31.6596L190.793 31.1017L191.63 30.8228Z" fill="#F13A2E"/>
<path d="M144.77 30.6833L145.746 30.8228H148.396L149.652 30.6833H151.325L151.744 30.8228L152.58 30.6833H153.836V30.9623H154.115V30.6833H155.091L155.509 30.8228L156.625 30.6833L156.904 30.8228L157.462 30.6833L158.02 30.8228L158.857 30.6833H160.67L161.367 30.9623L162.064 30.8228H163.459H164.017L165.551 30.9623H166.806L168.062 31.1018L170.293 31.3807L170.991 31.5202L171.688 31.3807L173.362 31.9386L174.059 32.078L174.338 32.357L175.035 32.4965L174.756 32.6359L175.035 33.0543L175.872 33.4727L176.988 33.6122L177.685 33.7517L178.243 34.5885L177.825 35.0069L177.964 35.5648L178.801 36.2621L179.917 37.6569L180.893 39.3305L181.172 40.0278L180.753 38.6331L180.614 37.9358L181.172 38.2147L181.311 38.7726L181.59 39.3305L181.73 40.5857L182.148 41.1436L182.427 42.1199V43.2357L182.288 44.6304L181.451 47.2803L181.311 47.9776L180.753 49.0934L180.614 49.6513L180.335 49.7907L179.638 51.1854L178.522 52.5801L177.825 53.2775L177.127 53.5564V53.8354L176.29 54.2538H175.872V54.5327H175.035V54.8117H174.477V55.2301H174.059L173.919 55.788H173.501V56.0669L172.246 56.3458L171.688 56.7642H170.433L169.596 57.0432L168.898 57.3221V57.0432L167.504 57.6011H166.946L165.97 57.7405L164.854 57.88V58.1589L162.483 58.2984L161.646 58.5774L159.972 58.7168H155.649L154.812 58.5774L154.254 58.7168H153.278L153.138 59.2747H152.859L152.58 60.8089L151.883 62.9009L151.604 64.1562L151.325 66.8061L150.907 68.0613L149.931 68.4797L148.675 68.7587H135.844L133.752 68.6192L133.055 67.9218L133.194 66.1087L133.892 63.8772L134.17 63.0404L134.031 62.7615H134.449L134.17 61.7852V61.0878L134.589 60.6694L134.31 60.5299L134.589 60.3905L134.449 59.6931L134.589 58.5774L134.449 58.1589L134.589 56.6248L134.868 56.3458L135.007 54.8117L135.426 53.9748H135.147L135.426 52.9986L135.565 52.3012H135.984L135.844 51.6039H136.123V50.767H136.541L136.262 49.9302V49.5118L136.82 48.9539H136.402L136.541 48.396L136.82 48.2566L136.541 47.6987V47.1408H136.82V46.1645L137.099 45.1882L137.657 44.9093L137.936 45.4672H137.518L137.797 45.8856L137.936 45.6066L138.215 45.7461L138.494 43.933L138.633 43.6541L138.355 43.7935L138.215 44.0725L137.936 43.933L138.076 43.2357L138.355 42.8172L138.076 42.6778L138.355 41.841L138.633 39.191L139.191 37.9358L139.749 36.5411L140.028 35.0069L139.889 34.1701L140.447 33.4727L140.865 32.9149L141.423 32.357L142.12 32.2175L142.678 31.7991V31.5202H142.957L143.236 30.9623L144.491 30.8228L144.77 30.6833ZM151.046 32.2175L142.26 32.357L141.702 33.0543L141.144 35.1464L138.912 43.933L137.797 49.5118L136.96 52.8591L135.705 58.2984L133.473 67.2245L133.613 67.9218L133.892 68.2008L137.936 68.3403L149.931 68.2008L150.767 67.7824L151.465 63.5983L153.138 57.7405L159.136 57.6011L162.483 57.4616L166.109 57.0432L169.596 56.3458L172.246 55.3695L174.059 54.3933L175.454 53.2775L177.127 51.6039L178.104 50.2092L179.08 48.5355L180.056 46.1645L180.753 43.3751L180.893 42.1199V40.8647L180.335 39.0515L179.359 37.3779L178.104 35.9832L176.709 34.8674L174.477 33.7517L172.664 33.1938L169.875 32.6359L166.527 32.357L161.786 32.2175H151.046Z" fill="#F13A2E"/>
<path d="M270.437 41.2832H270.716L270.437 41.8411L269.74 42.399L269.321 42.8174L268.763 43.0963L268.206 43.7937L269.321 43.9331L268.763 44.491L265.974 46.4436L262.348 48.8146L256.769 52.1619L253.143 54.2539L247.703 57.0433L245.332 58.2985L242.125 59.8327L237.941 61.7853L233.059 63.8773L227.759 66.1089L223.994 67.643L220.367 69.0377L216.323 70.5719L213.952 71.5482L210.604 72.664L206.42 74.1981L199.447 76.4296L197.355 77.127L196.797 76.9875L206.839 73.6402L212.696 71.5482L215.207 70.7114L217.578 69.7351L221.344 68.3404L226.922 66.1089L231.106 64.2958L231.804 64.0168V63.7379L231.385 63.5984L230.967 63.8773H230.409L230.27 64.2958L229.293 64.5747L229.014 64.7142L228.736 64.5747V64.8536L228.038 64.9931V65.272L226.783 65.4115V65.6905L224.97 66.2483L223.854 66.6667L223.157 66.8062L222.878 67.0852L222.041 67.2246L221.901 67.0852L221.483 67.2246L221.204 67.0852V66.8062L221.901 66.5273L222.459 66.1089L224.691 65.4115L225.667 64.8536L226.504 64.5747L227.48 63.8773L228.457 63.7379L229.014 63.4589L230.549 63.0405H230.828V62.7616L231.525 62.3432L231.106 62.2037V62.4826L230.409 62.7616L229.851 62.9011L229.154 63.3195L227.899 63.5984L226.504 64.0168H226.086L225.946 64.2958L225.249 64.5747H224.133L223.575 64.2958V64.0168H223.017V64.2958L222.32 64.9931H219.949L219.67 64.4352L218.694 63.5984L217.996 62.2037L218.136 60.9485L218.415 60.809L218.694 61.5064V61.9248H219.112V62.2037L220.367 61.9248L220.925 62.0642L221.204 62.6221H222.599L223.575 62.9011V63.18L224.133 63.0405V62.7616L225.388 62.6221L226.225 63.0405H227.341L229.572 62.4826L231.106 61.7853L232.083 61.3669L233.059 61.0879L234.454 60.5301L234.872 60.2511H235.43V59.9722L236.406 59.6932L236.964 59.2748L239.056 58.5775L240.312 57.8801L241.706 57.1828L242.961 56.6249L243.659 56.067L244.635 55.9276L245.053 55.6486H245.472V55.3697L250.214 52.9987L251.051 52.4408L252.166 51.8829L253.143 51.4645L255.095 50.4882L255.514 50.2093H256.072L256.211 49.7909H256.63V49.5119L258.303 48.6751L258.582 48.3962L259.558 47.9778L260.953 47.2804L263.185 46.0252L263.742 45.8857L263.882 45.4673L266.392 43.7937L267.229 43.6542L267.648 43.2358H267.927V42.9568L268.903 42.8174L269.042 42.2595H269.461V41.9806L270.437 41.2832Z" fill="#F13A2E"/>
<path d="M96.5131 29.9861H97.9078V30.265H102.231L102.092 30.6834H99.5814L99.3025 30.544V30.8229L102.65 30.6834L103.208 30.4045H103.905L104.184 30.265L104.044 30.6834L103.347 30.8229H103.626H105.439L105.858 30.9624V30.6834H104.881L105.021 30.4045L106.555 30.544V30.9624H106.973V31.2413L107.671 30.9624L109.205 31.1018V31.3808L111.436 31.1018H112.552L112.831 31.2413H115.481L115.342 30.8229H117.155L117.573 31.1018L116.597 31.2413H118.131L118.27 30.9624L118.828 31.3808L118.968 31.5203L119.526 31.2413L120.083 31.1018L121.199 31.3808V31.2413H121.897V31.5203H122.176L122.315 31.2413L122.454 31.5203L122.733 31.3808H123.71L124.268 31.6597L125.662 31.9387L126.081 32.3571V32.7755L126.918 33.0544L127.057 33.4728L128.87 33.7518V33.3334H129.289L129.567 34.0307L129.846 34.5886L129.986 35.4254L130.544 35.7044L131.52 36.1228L131.66 36.8201L131.938 36.9596L132.078 36.2622L132.775 36.9596L133.612 38.2148L134.309 39.6095L134.17 40.0279L133.473 39.8885L133.612 40.3069V40.7253V42.2594L133.473 44.0726L133.194 45.4673V46.4435L132.775 46.862L132.496 47.8382L132.078 48.3961L131.799 48.954H131.52V49.7908H131.241L130.962 50.3487L130.265 51.0461L129.428 52.7197L129.289 53.2776L129.986 52.7197L130.823 51.7434H131.102V51.325L131.66 50.9066H131.938L132.217 49.6514L132.915 48.2567L133.054 47.5593L133.194 46.7225L133.752 46.583L134.031 45.1883L134.17 45.0488L134.309 43.6541L134.588 43.9331L134.449 45.8857L133.891 47.1409L133.752 47.6988H133.473L133.333 48.6751L132.915 49.9303L132.217 50.6276L131.66 52.0223L131.381 52.5802L130.683 53.2776L129.846 53.9749L129.149 54.2539L128.452 54.3933V54.1144L128.173 53.9749L128.033 53.8355L127.894 54.2539L127.196 54.3933L127.057 54.9512H126.639V55.2302L125.802 55.3696L125.662 55.788H125.383V56.067H124.965V55.788H124.547L123.989 56.3459L122.873 56.4854L122.315 56.7643H121.618L121.199 57.0433L120.92 56.9038V57.1827L119.526 57.4617L118.968 57.6011L117.155 57.8801L117.015 58.2985H115.76V58.5774L113.249 58.8564H109.902L108.647 58.5774L107.531 58.7169L106.694 58.5774L105.997 58.7169V58.2985L105.579 59.4143L105.16 59.8327L104.602 61.6458L104.184 63.7378L104.044 64.7141H103.766L103.905 65.8299L103.487 66.8062L103.208 67.9219L102.929 68.3403L101.952 68.6193L98.8841 68.7587H95.1184L87.0291 68.6193L85.6344 68.3403L85.3555 68.0614V67.0851L86.0528 65.1325L86.4712 63.3194L87.0291 61.3668L87.4475 59.1353L87.1686 59.6932L86.7502 59.5537V58.5774L87.1686 57.7406L87.587 57.6011L87.7265 57.8801L88.0054 57.6011L88.4238 55.2302L88.5633 53.9749V53.5565L88.4238 53.417L88.2843 52.8592L88.4238 52.3013H88.7027L88.4238 51.1855V50.7671L88.7027 49.9303L88.9817 49.3724H89.4001L89.5396 48.954L89.679 49.0935L89.8185 48.8145H90.0974V47.8382L90.3764 47.1409L90.6553 45.0488V44.491H90.9343L90.5159 43.0963L90.6553 42.3989L91.0737 41.4226L91.7711 41.0042L92.1895 39.3306L92.329 38.3543L92.1895 36.9596L92.4684 36.5412L92.1895 36.4017V35.8438L92.329 35.1465L92.1895 34.3097V33.8912H92.6079L92.7474 33.3334H93.0263L92.8868 32.7755L92.329 32.4965L92.4684 32.2176L92.8868 32.3571L93.1658 32.0781L93.3053 31.5203L93.5842 31.1018H94.0026V30.8229H94.2815L94.421 30.544L95.1184 30.6834L95.3973 30.1256L96.5131 29.9861ZM95.3973 32.2176L94.421 32.636L94.0026 33.1939L93.3053 36.1228L91.0737 44.9094L89.5396 51.8829L88.7027 55.2302L87.587 60.1116L86.0528 65.8299L85.6344 67.0851V67.7825L86.1923 68.2009L87.8659 68.3403H101.813L102.929 67.9219L103.766 64.0168L105.021 59.2748L105.3 57.6011L114.784 57.4617L118.41 57.0433L121.339 56.4854L124.268 55.5091L126.22 54.5328L127.475 53.5565L128.87 52.3013L129.846 51.1855L131.241 49.0935L132.357 46.3041L132.915 43.7936L133.054 42.5384V40.4463L132.496 38.4938L131.52 36.9596L130.125 35.5649L128.731 34.5886L126.918 33.7518L124.407 33.0544L120.781 32.4965L119.386 32.3571L114.505 32.2176H95.3973Z" fill="#F13A2E"/>
<path d="M85.3591 24.1284L85.917 24.2679L85.6381 24.6863L84.8012 24.8258V25.1047L84.1039 25.2442H83.6855H83.1276V25.5231H82.1513L81.175 25.8021H80.3382L79.083 26.2205L78.1067 26.6389L75.7357 27.3362L72.9463 28.452L72.6673 28.7309L71.6911 28.8704L70.2964 29.2888L69.7385 29.7072L69.8779 30.1256L70.0174 30.4046H70.5753L73.0858 30.544L73.3647 30.4046L74.2015 30.823L75.5962 30.9624L76.5725 31.5203V31.7993L77.2699 31.5203L78.2461 31.3809L78.804 31.2414H80.0593L80.4777 30.9624L81.5934 31.1019L81.8724 30.9624L82.2908 31.1019V31.3809L82.8487 31.2414L82.9881 31.3809L83.9644 31.5203L84.8012 31.9387L84.6618 33.7518L84.1039 36.1228L83.546 38.3544L83.4065 39.0517L83.546 39.1912L83.8249 38.9122L84.1039 38.4938H84.3828V38.2149L84.8012 38.3544L84.6618 39.8885L84.2434 41.1438V41.8411H83.9644L83.8249 43.2358L83.2671 45.4673V45.8857H82.9881L82.8487 46.862L82.7092 48.2567L82.2908 49.3725V50.0698H82.0118L81.7329 51.604L81.454 52.1619L81.175 53.8355V54.2539H80.8961V55.6486L80.1987 58.438L79.9198 58.5775V59.5538L79.7803 60.1117L79.3619 62.0643L79.083 62.4827L78.9435 63.8774L78.5251 64.9931L78.2461 66.5273H77.9672L77.8277 65.83H77.2699L77.1304 66.8062V67.5036L77.6883 67.0852H77.9672V67.5036H77.6883L77.5488 67.922L76.712 67.7825L76.0146 68.4799L73.6436 68.7588H62.2071L58.9993 68.4799L58.4414 68.2009V67.0852L59.1388 64.9931L60.2545 60.5301L60.8124 58.0196L61.2308 55.6486L61.3703 54.6723L61.5097 53.975L61.3703 53.6961H61.7887L61.6492 52.7198L61.7887 52.0224V51.1856L62.3466 50.6277L62.765 49.3725L62.6255 49.0935L62.9044 48.8146L63.3229 47.0015L63.4623 45.7463L63.3229 45.0489L63.7413 44.77V44.0726L63.4623 43.5147H63.7413L63.4623 42.8174L63.8807 42.12L64.5781 41.4227L64.857 40.8648L64.5781 39.6096L64.7176 38.9122L64.5781 38.3544L64.2991 37.3781L64.1597 37.2386L63.7413 37.3781L63.3229 37.2386V36.9597H63.6018V36.6807H63.8807V36.4018L64.9965 35.8439L64.857 36.5412L65.4149 36.4018V35.9834V35.7044H65.6938V35.0071L66.1123 34.5887L66.3912 34.0308L65.9728 33.8913L66.1123 33.4729H66.3912L66.6701 32.7756L67.507 32.2177V30.9624H67.228V30.6835L65.136 31.3809L62.9044 32.2177L61.0913 32.915L60.115 33.0545L60.394 32.7756L66.9491 30.2651L70.8542 28.7309L76.9909 26.4994L79.7803 25.5231L81.8724 24.8258H83.2671L83.8249 24.5468L84.8012 24.4074L84.9407 24.5468L85.3591 24.1284ZM80.3382 32.0782L69.3201 32.3571L67.6464 32.4966L67.228 32.915L66.9491 33.7518L66.3912 36.5412L65.5544 39.4701L63.1834 49.0935L62.3466 52.8592L61.0913 58.1591L60.2545 61.6459L58.9993 66.1089L58.5809 67.5036L59.2782 68.2009L61.3703 68.3404H70.2964L75.8752 68.2009L76.2936 67.7825L78.5251 58.717L82.1513 43.0963L83.2671 38.3544L84.1039 35.0071L84.5223 33.194V32.0782H80.3382Z" fill="#F13A2E"/>
<path d="M0 79.4978L0.69735 79.6373L0.83682 80.0557H1.11576V80.3346H1.3947V80.8925L2.09205 81.032L2.23152 81.4504L1.95258 81.7293L2.37099 82.4267L3.06834 84.2398L3.34728 84.9371H3.62622L3.76569 85.774L4.1841 86.3318L4.60251 87.4476L5.5788 87.866L6.41562 88.9818L6.9735 89.1212L7.67085 89.8186L8.50767 90.3765H9.34449L10.0418 91.2133L10.8787 91.3528L11.576 91.6317H11.855V91.9106L12.6918 92.0501L12.9707 91.9106L14.7838 92.1896V92.4685L15.4812 92.608L17.0153 93.4448L18.2706 93.5843L19.2469 93.8632L20.9205 94.2816L23.8494 94.979L25.9414 95.5369L28.1729 95.9553L30.265 96.2342L31.9386 96.6526L32.636 96.7921L32.9149 97.071V96.7921L33.8912 97.071L33.3333 97.35L32.4965 97.4894L34.8675 97.7684L36.6806 98.0473L37.2385 98.1868L39.6095 98.3263L40.4463 98.4657L41.4226 98.6052L44.0725 98.7447V99.0236H45.8856L50.3487 99.442L55.788 99.721H55.9275L54.1144 99.5815L53.9749 99.3025L54.5328 99.1631L54.1144 98.8841L53.417 99.0236H52.8591L52.7197 98.4657L53.8354 98.3263H55.0907L55.5091 98.4657L59.4142 98.6052L59.6932 98.4657V98.7447L60.3905 98.6052L60.9484 98.7447L62.4826 98.6052H64.1562L65.1325 98.7447L65.272 98.6052H65.9693V98.8841L66.3877 98.7447L67.5035 99.0236L68.0614 99.3025L68.2008 99.5815H66.1088H65.6904L64.993 99.442H62.0642L61.0879 99.3025L59.9721 99.442L59.6932 99.721L67.5035 99.8604V99.9999H55.2301L47.4198 99.5815L40.7252 99.0236L34.728 98.3263L29.1492 97.4894L24.1283 96.5131L20.5021 95.6763L16.0391 94.2816L13.5286 93.3053L10.7392 92.0501L8.92608 90.9343L7.25244 89.9581L5.29986 88.4239L3.90516 87.1687L2.7894 86.0529L1.81311 84.7977L0 82.1477V79.4978Z" fill="#F13A2E"/>
<path d="M24.5467 51.325L24.9651 51.4644V51.8828L25.6625 51.6039L26.0809 52.0223L25.523 52.3012V52.0223L25.1046 52.1618L24.6862 52.5802H24.4073L24.2678 52.8591L23.2915 53.2775L22.5941 53.5565V53.8354L22.0363 53.9749L21.8968 54.2538L20.9205 54.5328L20.6416 55.0906H20.3626V55.3696L18.41 56.3459L17.7127 56.2064L17.5732 56.7643L17.1548 56.6248L17.0153 57.1827L16.7364 57.6011H16.4575L16.1785 57.0432H16.4575V56.7643H16.0391V57.0432L15.4812 57.1827L15.3417 57.6011L14.3654 58.0195L13.6681 58.7169L13.5286 58.9958L13.947 58.5774L14.7838 58.2985L15.4812 58.4379L14.6444 59.2747H14.3654L14.5049 59.6932L13.8075 59.8326L13.6681 60.251L12.9707 60.9484L12.4128 61.0879L12.1339 61.7852L11.2971 62.2036L10.8787 62.901L10.3208 63.4588H9.90237V63.8773L9.34449 64.0167L8.92608 64.8535H8.64714V65.1325L7.53138 66.1088L6.41562 67.5035H6.13668L5.99721 67.9219H5.71827L5.02092 69.3166L4.74198 69.735H4.46304L4.60251 70.7113L4.1841 70.8508L4.32357 71.4086L3.34728 72.9428L3.06834 73.7796L2.7894 74.7559H2.51046L2.37099 75.1743L2.09205 75.3138L2.23152 75.4533L2.09205 76.4296L1.53417 76.7085L1.25523 77.2664L0.69735 77.4058V77.1269L0.27894 77.2664L0 76.9874V73.7796L0.55788 73.5007L1.25523 72.3849L2.51046 70.0139L3.90516 67.9219L5.02092 66.3877L6.83403 64.2957L8.08926 63.0404L8.78661 62.2036L9.90237 61.2273L10.8787 60.251L12.4128 58.9958L14.5049 57.3222L17.2943 55.2301L19.6653 53.5565L20.9205 52.7197L21.1994 52.8591L21.06 53.2775H20.781V53.6959L19.9442 54.2538L19.3863 54.3933V54.6722L19.1074 54.8117L19.6653 54.6722L19.9442 54.3933H20.6416L21.1994 53.5565L22.4547 52.9986L22.7336 53.1381L22.8731 52.5802L23.5704 52.4407V52.0223H23.8494V51.7434L24.5467 51.325Z" fill="#F13A2E"/>
<path d="M84.3828 38.2148L84.8012 38.3543L84.6618 39.8885L84.2434 41.1437V41.8411H83.9644L83.8249 43.2358L83.2671 45.4673V45.8857H82.9881L82.8487 46.862L82.7092 48.2567L82.2908 49.3724V50.0698H82.0118L81.7329 51.604L81.454 52.1618L81.175 53.8355V54.2539H80.8961V55.6486L80.1987 58.438L79.9198 58.5775V59.5538L79.7803 60.1116L79.3619 62.0642L79.083 62.4826L78.9435 63.8773L78.5251 64.9931L78.2461 66.5273H77.9672L77.8277 65.8299H77.2699L77.1304 66.8062V67.5035L77.6883 67.0851H77.9672V67.5035H77.6883L77.5488 67.922L76.712 67.7825L76.0146 68.4798L73.6436 68.7588H62.2071L58.9993 68.4798L58.4414 68.2009V67.0851L58.7203 66.3878L58.8598 66.8062L58.7203 67.5035L59.2782 68.0614L61.3703 68.2009H70.2964L76.1541 68.0614L76.712 65.551L78.3856 58.7169L82.0118 43.0963L82.8487 39.4701L83.1276 38.9122L83.546 39.1911L83.8249 38.9122L84.1039 38.4938H84.3828V38.2148Z" fill="#F13A2E"/>
<path d="M110.601 41.9805H111.856L114.227 42.2594L115.482 42.8173L116.319 43.7936L116.458 44.0725V45.1883L116.04 46.0251L114.785 47.1409L113.111 48.1171L110.322 48.5356H107.951L107.672 48.3961V47.4198L108.369 44.4909L109.067 42.8173L109.764 42.2594L110.601 41.9805Z" fill="#F13A2E"/>
<path d="M157.742 42.1199H161.508L162.763 42.5383L163.46 43.2356L163.879 43.933L164.018 44.3514V45.6066L163.042 46.7224L161.508 47.8381L161.229 47.9776L159.416 48.2566L157.742 48.5355H156.068L155.371 48.2566V46.7224L156.208 43.933L156.766 42.6778L157.324 42.2593L157.742 42.1199Z" fill="#F13A2E"/>
<path d="M59.6969 33.0544L60.1153 33.1939V33.4729H60.5337H60.8126V33.7518L60.3942 34.0307L60.2547 34.4491V34.1702H59.9758L59.8363 34.7281L59.139 34.8676L58.9995 35.1465L58.3022 35.286L58.0232 35.1465L57.6048 35.5649L57.0469 35.8438L56.768 36.2623L55.7917 36.4017L55.3733 36.6807H54.8154L54.397 37.0991L53.4207 37.378L53.0023 37.7964L52.8628 38.2148L52.1655 38.4938L52.026 38.3543L51.7471 38.6332L51.4681 38.3543V38.6332L50.7708 38.7727L50.4918 38.6332V38.9122L48.6787 39.4701L46.8656 40.4464L45.0525 41.1437L44.3552 41.4226L43.6578 41.5621V41.8411L41.5658 42.8173L40.8684 43.0963L39.6132 43.7936H39.1948V44.0726L38.079 44.6305L37.2422 44.7699L37.3817 44.212H37.8001L37.9395 43.7936L39.4737 43.2358L40.3105 42.6779L40.8684 42.5384L41.2868 42.3989V42.12L42.4026 41.7016H42.821L42.9605 41.4226L43.7973 41.1437L45.0525 40.4464L46.1683 39.749L48.6787 38.7727L49.2366 38.3543L49.655 38.0754H50.2129V37.7964H50.7708V37.5175L51.7471 37.378L52.026 36.6807L53.4207 36.2623V36.5412L54.2575 35.8438H54.6759H54.9549V35.4254L54.5365 35.1465L58.9995 33.3334L59.6969 33.0544Z" fill="#F13A2E"/>
<path d="M270.429 41.2832H270.708L270.429 41.8411L269.731 42.399L269.313 42.8174L268.755 43.0963L268.197 43.7937L269.313 43.9331L268.755 44.491L265.966 46.4436L262.339 48.8146L261.224 49.5119L260.945 49.3725L260.805 49.0935L260.247 49.3725L259.968 49.9303L259.69 49.7909L259.968 49.233L259.69 49.6514H259.411L259.55 49.0935L258.992 49.233L259.132 48.3962L259.829 47.8383L260.945 47.2804L263.176 46.0252L263.734 45.8857L263.874 45.4673L266.384 43.7937L267.221 43.6542L267.639 43.2358H267.918V42.9568L268.895 42.8174L269.034 42.2595H269.452V41.9806L270.429 41.2832Z" fill="#F03A2E"/>
<path d="M218.275 60.8088L218.554 61.2272L218.693 61.9246H219.112V62.2035L220.367 61.9246L220.925 62.0641L221.204 62.6219H222.599L223.575 62.9009V63.1798L224.133 63.0404V62.7614L225.388 62.6219L226.225 63.0404H227.341L229.572 62.4825L231.106 61.7851L232.083 61.3667L233.059 61.2272V61.6457H232.64L232.501 61.9246L231.385 62.343L231.106 62.2035V62.4825L230.409 62.7614L229.851 62.9009L229.154 63.3193L227.898 63.5982L226.504 64.0166H226.085L225.946 64.2956L225.249 64.5745H224.133L223.575 64.2956V64.0166H223.017V64.2956L222.32 64.9929H219.949L219.67 64.4351L218.693 63.5982L217.996 62.2035L218.136 60.9483L218.275 60.8088Z" fill="#F13A2E"/>
<path d="M160.385 43.2356L160.943 43.3751L161.361 44.4908V44.7698L161.919 44.6303L162.059 45.3276L162.477 45.1882L162.896 45.3276L163.035 46.4434L161.78 47.4197L161.361 47.6986L159.548 47.9776L157.875 48.2565H156.898L157.038 47.5592L157.317 47.4197L157.596 45.8855H157.875L158.014 45.3276L158.433 44.7698H158.99L159.13 44.3514H159.409L159.688 43.7935L160.385 43.2356Z" fill="#E13224"/>
<path d="M80.4777 50.2092H80.6171L80.4777 51.4645L79.5014 55.6486L78.1067 61.3668L77.6883 63.3194L78.3856 63.5983V62.6221L78.6646 61.9247L78.9435 61.7852L79.083 60.9484L78.804 60.8089L79.083 59.9721L79.6408 59.6932L79.7803 60.1116L79.3619 62.0642L79.083 62.4826L78.9435 63.8773L78.5251 64.993L78.2461 66.5272H77.9672L77.8277 65.8299H77.2699L77.1304 66.8062V67.5035L77.6883 67.0851H77.9672V67.5035H77.6883L77.5488 67.9219L76.712 67.7824L76.0146 68.4798L73.6436 68.7587H62.2071L58.9993 68.4798L58.4414 68.2009V67.0851L58.7203 66.3878L58.8598 66.8062L58.7203 67.5035L59.2782 68.0614L61.3703 68.2009H70.2964L76.1541 68.0614L76.712 65.5509L78.3856 58.7169L80.3382 50.3487L80.4777 50.2092Z" fill="#F13A2E"/>
<path d="M111.991 43.2356L112.688 43.3751V43.654L113.804 43.5145L113.944 44.0724L113.665 44.4908L113.804 45.3276L114.222 45.1882L115.059 45.4671V45.7461L115.338 45.8855L114.92 46.8618L112.828 47.9776L109.899 48.2565L109.48 47.8381L109.899 47.6986L110.178 46.7223L110.038 46.025L110.317 45.4671L111.015 45.1882V44.9092L111.712 44.4908L111.851 44.0724L111.712 43.5145L111.991 43.2356Z" fill="#E13224"/>
<path d="M134.167 91.7712L136.678 91.9107L136.817 92.1897L129.983 93.4449L119.802 95.1185L117.849 95.3975H117.013L116.594 94.9791H116.176L116.315 94.5606H117.431L117.71 94.7001H118.407L118.686 94.2817H118.965L118.826 94.8396H119.384L119.105 94.7001L119.244 94.1422L120.22 94.0028L120.499 94.1422V93.8633H121.476L122.173 93.7238L123.428 93.4449L124.962 93.3054H125.381L126.078 93.0265H127.054L127.333 93.1659L128.728 93.3054L128.31 92.887L129.007 92.7475L129.704 93.0265L129.844 92.887H131.378L131.239 92.3291L131.657 92.1897L131.936 92.3291V92.6081H132.215V92.3291L133.888 92.1897L134.167 91.7712Z" fill="#F03A2E"/>
<path d="M24.5524 51.325L24.9708 51.4644V51.8828L25.6682 51.6039L26.0866 52.0223L25.5287 52.3012V52.0223L25.1103 52.1618L24.6919 52.5802H24.4129L24.2735 52.8591L23.2972 53.2775L22.5998 53.5565V53.8354L22.0419 53.9749L21.9025 54.2538L20.9262 54.5328L20.6472 55.0906H20.3683V55.3696L18.4157 56.3459L17.7184 56.2064L17.5789 56.7643L17.1605 56.6248L17.021 57.1827L16.7421 57.6011H16.4631L16.1842 57.0432H16.4631V56.7643H16.0447V57.0432L15.4869 57.1827L15.3474 57.6011L14.3711 58.0195L14.5106 57.4616L15.7658 56.3459L18.2763 54.5328L20.9262 52.7197L21.2051 52.8591L21.0657 53.2775H20.7867V53.6959L19.9499 54.2538L19.392 54.3933V54.6722L19.1131 54.8117L19.671 54.6722L19.9499 54.3933H20.6472L21.2051 53.5565L22.4604 52.9986L22.7393 53.1381L22.8788 52.5802L23.5761 52.4407V52.0223H23.8551V51.7434L24.5524 51.325Z" fill="#F13A2E"/>
<path d="M154.256 6.55518H154.953V6.83412L153.419 7.11306L153.14 7.25253L151.466 7.392L149.793 7.81041L149.514 7.94988L148.398 8.08935L144.911 8.64723L142.261 9.20511L141.006 9.48405L139.611 9.90246L138.496 10.0419L137.24 10.3209L135.706 10.4603L135.567 10.8787H135.148H134.172L131.522 11.4366L130.825 11.855H129.709L128.035 12.2734L125.943 12.6919L119.667 14.226L117.575 14.7839L113.67 15.7602H112.973L113.531 15.4813L123.293 12.9708L132.498 10.8787L141.006 9.06564L149.653 7.392L154.256 6.55518Z" fill="#F23B2F"/>
<path d="M104.742 60.251L104.881 60.8089L104.184 63.4588L104.044 64.714H103.766L103.905 65.8298L103.487 66.8061L103.208 67.9218L102.929 68.3402L101.952 68.6192L98.8841 68.7586H95.1184L87.0291 68.6192L85.6344 68.3402L85.3555 68.0613V67.085L86.0528 65.1324L86.4712 63.3193L87.1686 61.0878L87.308 61.6457L86.1923 65.8298L85.7739 67.085V67.7824L86.1923 68.0613L87.8659 68.2008H101.813L102.789 67.9218L103.626 64.0167L104.602 60.3904L104.742 60.251Z" fill="#F23B2F"/>
<path d="M80.8942 49.512L81.1731 50.0698L81.3126 50.6277L81.1731 51.3251L80.4757 52.7198H80.7547V53.4171V53.8355H80.0573V54.5329L80.3363 54.8118L80.0573 55.7881L79.7784 55.9276L79.6389 56.4855L79.9179 57.0433V57.7407L79.4995 57.8802V58.2986V59.6933L79.36 59.9722H79.081L78.9416 60.809L79.2205 61.3669L78.8021 62.0643L78.5232 62.6221L78.3837 63.5984L77.6863 63.459L77.5469 63.0406L78.8021 57.8802L79.6389 54.5329L80.6152 50.2093L80.8942 49.512Z" fill="#E13224"/>
<path d="M85.2212 28.0334H86.1975L86.337 28.4519L86.8949 28.7308L86.6159 29.0097V29.5676H86.8949V29.8466H87.1738L86.8949 30.5439L86.337 31.2413L85.9186 31.9386L84.9423 32.0781L84.8028 31.7991L85.2212 31.2413L85.3607 30.8228L84.2449 30.265L84.1055 29.8466L84.3844 29.1492L84.8028 28.8703V28.4519H85.0818L85.2212 28.0334Z" fill="#F13A2E"/>
<path d="M91.6351 97.3501L92.7508 97.629V98.0474L93.1693 98.3264L87.172 98.8843H85.7773L86.0563 98.6053L85.7773 98.1869L87.5905 97.908H88.1483H88.7062L88.8457 97.4896L89.4036 97.629L91.6351 97.3501Z" fill="#EF392D"/>
<path d="M59.6908 33.0544L60.1092 33.1939V33.4729H60.5276H60.8065V33.7518L60.3881 34.0307L60.2486 34.4491V34.1702H59.9697L59.8302 34.7281L59.1329 34.8676L58.9934 35.1465L58.2961 35.286L58.0171 35.007L56.204 35.1465V35.4254L55.5067 35.5649L55.3672 35.007L56.6224 34.5886V34.3097L59.6908 33.0544Z" fill="#F13A2E"/>
<path d="M202.09 52.4407L203.346 52.7196V52.9986H203.067L203.346 53.5564L203.067 54.3933H203.346L203.764 55.2301L205.577 55.3695L206.972 55.6485L206.832 55.9274H205.298L205.159 56.3458L204.88 56.0669L204.043 56.2064L203.067 55.6485L202.788 54.2538L202.09 54.6722V54.3933H201.811L201.672 53.8354L201.951 52.5801L202.09 52.4407Z" fill="#E13224"/>
<path d="M39.6059 98.4658L41.419 98.6053L44.069 98.7448V99.0237H45.8821L50.3451 99.4421L58.8528 99.8605V100H55.2266L47.4162 99.5816L40.7217 99.0237L39.327 98.8842L39.1875 98.6053L39.6059 98.4658Z" fill="#F23B2F"/>
<path d="M108.925 95.5369L110.181 95.6763L110.459 95.9553L110.32 96.0947L110.599 96.3737L104.183 97.2105H103.207L103.904 96.6526H104.183V96.9316L105.02 96.7921V96.0947L105.578 95.9553L105.857 96.0947L107.112 95.8158H108.507L108.925 95.5369Z" fill="#F13A2E"/>
<path d="M97.4845 21.0601H97.9029L98.0424 21.4785L96.2293 22.0363L94.4162 22.7337L91.9057 23.2916L91.2084 23.5705L90.0926 23.71L89.9531 23.1521L91.2084 22.7337L92.0452 22.3153H93.0215L94.4162 21.8969L96.5082 21.339L97.4845 21.0601Z" fill="#F13A2E"/>
<path d="M180.336 46.583L180.475 47.1409L180.894 47.5593L180.754 47.6988L181.033 47.8382V48.1172H180.754V48.5356L180.475 48.8145L180.196 48.954L180.336 49.3724L180.196 49.6513H179.917L179.778 50.4882L179.499 50.6276L179.081 51.4645H178.662V51.8829H178.383L178.244 52.3013L177.965 52.1618V51.325H178.244L178.104 50.9066L178.523 49.9303L179.499 49.6513L179.36 49.3724L179.917 49.2329V48.3961L180.196 47.8382L179.917 47.5593L180.336 46.583Z" fill="#E13224"/>
<path d="M4.04358 68.8982L4.32252 69.3166L4.18305 69.8745L3.90411 70.2929L4.04358 70.7113L3.62517 71.1297L2.78835 72.9428H2.50941L2.36994 73.3612L2.23047 71.9665L2.50941 70.5718L3.20676 70.014L3.76464 69.5955L4.04358 68.8982Z" fill="#E13224"/>
<path d="M236.405 61.3667H237.242L237.381 61.6456L236.684 62.064L236.126 62.343L233.755 63.3193H232.918V63.5982L232.5 63.4587L233.058 62.7614H233.476V62.4825L234.871 62.2035L235.847 61.5062L236.405 61.3667Z" fill="#E13224"/>
<path d="M134.308 43.6541L134.587 43.933L134.448 45.8856L133.89 47.1408L133.751 47.6987H133.472L133.332 48.675L132.914 49.9302L132.216 50.6276L131.938 50.767L132.216 49.6513L132.914 48.2566L133.053 47.5592L133.193 46.7224L133.751 46.5829L134.03 45.1882L134.169 45.0488L134.308 43.6541Z" fill="#F23B2F"/>
<path d="M152.584 59.6931H152.723L152.584 60.8089L151.886 62.9009L151.607 64.1562L151.328 66.8061L150.91 68.0613L150.352 68.3403L149.934 68.2008L150.631 67.7824L151.328 63.5983L152.165 60.6694L152.584 59.6931Z" fill="#F23B2F"/>
<path d="M85.3569 24.1284L85.9147 24.2679L85.6358 24.6863L84.799 24.8258V25.1047L84.1016 25.2442H83.6832H83.1253V25.5231H82.149L81.1728 25.8021H80.3359V25.3836L81.8701 24.8258H83.2648L83.8227 24.5468L84.799 24.4074L84.9384 24.5468L85.3569 24.1284Z" fill="#F03A2D"/>
<path d="M262.2 46.7224L262.758 46.8619L262.479 47.4198H262.2V47.8382L261.503 48.5355L261.224 48.9539H260.666L260.247 49.0934L259.968 49.6513L259.69 49.5118L259.968 48.9539L259.69 49.3723H259.411L259.55 48.8145L258.992 48.9539L259.132 48.2566H259.55L259.69 47.9776L260.387 48.1171V48.5355L260.945 47.9776L261.084 47.4198L261.503 47.2803L261.224 47.9776L261.921 47.5592L262.061 47.2803L261.782 47.1408L262.2 46.7224Z" fill="#E13224"/>
<path d="M265.269 45.0488L265.687 45.3278L265.408 45.7462H265.129V46.0251H265.548L265.408 46.4435L264.99 46.583L264.85 46.3041L263.874 47.5593H263.177L262.479 48.2566L262.34 47.9777H262.619L262.898 47.4198L263.316 47.0014V46.3041L263.874 46.0251L264.292 46.3041L264.571 45.8856L264.292 45.6067L265.129 45.1883L265.269 45.0488Z" fill="#E23225"/>
<path d="M88.1447 57.4617L88.2842 57.7406L87.4474 61.0879H87.1684L87.3079 59.8327V59.2748L87.1684 59.6932L86.75 59.5537V58.5774L87.1684 57.7406L87.5868 57.6011L87.7263 57.8801L88.1447 57.4617Z" fill="#F13A2E"/>
<path d="M8.2253 63.4587L8.64371 63.8772L8.36477 64.2956L8.64371 64.435H8.2253L7.94636 64.9929L7.66742 65.4113H7.24901L7.10954 65.8297L6.69113 65.9692L6.41219 66.3876L6.13325 66.2481L5.99378 66.806L5.71484 66.6666V66.2481H5.99378L6.13325 65.6903H6.41219L6.69113 65.1324L7.38848 64.435L8.2253 63.4587Z" fill="#E13224"/>
<path d="M61.087 57.4617H61.2265L61.087 58.8564L60.1107 62.6221L59.1344 66.1088L58.8555 66.3878L59.1344 64.9931L60.2502 60.53L60.808 58.0195L61.087 57.4617Z" fill="#F23B2F"/>
<path d="M283.961 15.76L284.658 16.4574L285.635 17.8521V18.5494L284.658 18.2705L284.1 17.7126L283.961 15.76Z" fill="#F13A2E"/>
<path d="M2.79181 82.4268H3.21022L3.62863 83.1241L4.60492 84.1004V84.5188H4.88386L5.02333 85.0767L5.30227 85.3556L5.02333 85.6346L4.60492 85.4951V85.2162H4.32598L3.90757 84.6583V84.2399L3.48916 83.9609V83.682L3.07075 83.2636V82.8452L2.65234 82.7057L2.79181 82.4268Z" fill="#F23B2F"/>
<path d="M246.72 55.2302L247.139 55.3697L246.441 55.9276L244.768 56.4855V56.7644L244.21 56.9039V57.1828L242.815 57.4617V57.7407L241.839 58.0196L241.699 57.7407L242.536 57.3223L243.233 57.1828L243.373 56.9039L245.883 55.6486H246.302V55.3697L246.72 55.2302Z" fill="#E13224"/>
<path d="M87.5879 25.2441L88.0063 25.3836L87.4484 25.9415H87.03L86.8905 26.3599L86.6116 26.2204H86.3326L85.9142 26.3599V26.7783L85.3564 26.9178L85.2169 27.1967L84.5195 26.9178L84.659 26.6388L85.4958 26.3599L85.6353 25.802L86.6116 25.6626L86.7511 25.3836L87.5879 25.2441Z" fill="#F23B2F"/>
<path d="M181.315 41.1436L181.734 41.7014L182.013 42.2593L182.152 43.2356L181.873 44.6303L181.315 44.4908L181.176 43.933L181.315 43.7935V41.1436Z" fill="#E13224"/>
<path d="M36.6805 44.7698L36.9594 45.0487L36.4015 45.1882L36.2621 45.4671L34.5884 46.4434L33.4727 46.7224L33.7516 46.1645L34.8674 45.4671L36.6805 44.7698Z" fill="#F13A2E"/>
<path d="M58.4355 33.7517L58.7145 34.3096L58.1566 34.728L57.0408 35.1464H56.204V35.4253L55.5067 35.5648L55.3672 35.0069L56.6224 34.5885V34.3096L57.0408 34.4491L56.7619 34.8675L57.3198 34.4491L57.8776 34.3096L57.7382 34.0306L58.4355 33.7517Z" fill="#E43426"/>
<path d="M89.6782 23.2915L89.8176 23.7099L89.1203 24.1283L87.865 24.5467L86.1914 24.8257L86.4703 24.2678L87.7256 23.8494L89.6782 23.2915Z" fill="#F13A2E"/>
<path d="M54.1178 35.2859H54.9546L55.0941 35.5648L54.5362 36.1227L54.1178 35.9832L53.6994 36.5411H52.8626L52.5836 36.6806L52.3047 36.4016V36.1227L54.1178 35.2859Z" fill="#E93629"/>
<path d="M84.5197 33.0544H84.6592L84.5197 34.1702L83.8224 37.5175L83.4039 38.9122H83.125L83.2645 37.9359L84.3802 33.1939L84.5197 33.0544Z" fill="#F23B2F"/>
<path d="M108.931 95.5369L110.186 95.6763L110.465 95.9553L110.325 96.0947L110.604 96.3737L109.488 96.5132H108.094L108.512 95.8158L108.931 95.5369Z" fill="#EE392C"/>
<path d="M26.0807 49.512L26.3596 49.6514L24.5465 50.7672V51.0461L23.8491 51.1856L23.2913 51.883L22.315 52.1619L21.4782 52.7198L21.1992 52.5803L23.2913 51.1856L26.0807 49.512Z" fill="#F13A2E"/>
<path d="M82.2927 42.2595L82.5716 42.8174L82.2927 44.2121H82.0138L81.8743 46.0252L81.7348 46.5831L81.3164 46.7226L81.4559 45.6068L82.1532 42.399L82.2927 42.2595Z" fill="#F23B2F"/>
<path d="M59.6984 33.0544L60.1168 33.1939L59.5589 34.0307H59.1405V33.7518H58.8616V34.1702L58.3037 34.0307L57.8853 34.1702L58.0248 34.4491L56.7695 34.8676L56.909 34.1702L59.6984 33.0544Z" fill="#E63427"/>
<path d="M65.417 30.8228L65.8355 30.9622L65.1381 31.3806L62.9066 32.2175L61.0935 32.9148L60.1172 33.0543L60.3961 32.7753L65.417 30.8228Z" fill="#F23B2F"/>
<path d="M96.5119 29.9861H97.9066L98.0461 30.4045H97.4882V30.6834L96.7908 30.544L96.0935 30.6834H95.1172L95.3961 30.1256L96.5119 29.9861Z" fill="#F23B2F"/>
<path d="M87.3115 97.908H87.5905L87.8694 98.4658L88.9852 98.6053V98.7448L87.172 98.8842H85.7773L86.0563 98.6053L85.7773 98.1869L87.3115 97.908Z" fill="#F13A2E"/>
<path d="M236.261 61.9248H236.958V62.2037L232.634 64.0169L232.355 63.8774L232.913 63.5984V63.3195L234.169 63.0406L236.121 62.2037L236.261 61.9248Z" fill="#F23B2F"/>
<path d="M82.286 43.5146H82.4255V44.4909H82.7044L82.565 45.1883H82.286L82.0071 46.583L81.7282 47.2803L81.4492 47.1409V46.583H81.7282L81.5887 46.1646L81.8676 45.1883L82.0071 44.212H82.286V43.5146Z" fill="#E13224"/>
<path d="M84.9401 23.8494L85.498 23.9888L85.3586 24.2678H85.0796L84.9401 24.6862L84.6612 24.5467L83.406 24.8257L83.2665 24.9651H82.4297V24.6862L84.9401 23.8494Z" fill="#E53427"/>
<path d="M204.045 31.6597H204.324V31.9386H206.277L206.834 32.2175L206.555 33.6122L206.416 33.0544L206.555 32.2175H203.487L203.348 31.7991L204.045 31.6597Z" fill="#F23B2F"/>
<path d="M96.6502 30.4045L97.487 30.6835V30.4045L98.6028 30.544L98.8817 30.823L95.395 30.9624L94.9766 31.1019L95.116 30.6835L96.0923 30.544L96.6502 30.4045Z" fill="#E13224"/>
<path d="M93.9981 97.2107L94.556 97.4896L95.2534 97.3502L95.6718 97.6291L94.1376 97.908L93.8587 97.7686V98.0475H94.6955V98.187H93.4403L93.3008 97.908L93.4403 97.7686V97.3502L93.9981 97.2107Z" fill="#F23B2F"/>
<path d="M278.942 35.1465V35.5649L277.547 36.9596L277.129 36.6807L277.408 36.2622H277.687L277.547 35.7044L277.966 35.4254L278.524 35.5649L278.942 35.1465Z" fill="#EE392C"/>
<path d="M235.568 60.53V60.9484L234.592 61.0879V61.3668L232.5 62.0642L232.639 61.6458H233.058L233.197 61.3668H233.755L233.895 61.0879L234.732 60.809L235.568 60.53Z" fill="#E13224"/>
<path d="M32.0748 46.7224H32.3538L32.4932 47.1408L31.9354 47.4198H31.5169L31.3775 47.8382L30.9591 47.6987V47.9776L30.2617 48.2566V47.8382L30.9591 47.2803L31.9354 46.8619L32.0748 46.7224Z" fill="#F23B2F"/>
<path d="M137.514 44.9094L137.932 45.3278L137.514 45.4673L137.653 45.8857L137.374 46.4436H137.095V47.1409H136.816V46.1647L137.095 45.1884L137.514 44.9094Z" fill="#F23B2F"/>
<path d="M79.4942 59.6931L79.7732 59.8326L79.4942 61.2273H79.0758V60.9483L78.7969 60.8089L79.0758 59.9721L79.4942 59.6931Z" fill="#F23B2F"/>
<path d="M270.435 41.2832H270.714L270.435 41.8411L269.738 42.399L269.32 42.8174L268.762 42.9568L269.041 42.2595H269.459V41.9806L270.435 41.2832Z" fill="#F23B2F"/>
<path d="M134.311 40.4463L134.59 40.7252L134.73 42.2594V43.2357L134.451 43.3752L134.311 42.1199L134.172 40.5858L134.311 40.4463Z" fill="#F23B2F"/>
<path d="M54.5376 35.2859L55.0955 35.4254L54.956 35.8438L54.3982 36.1227H53.9798L53.7008 36.5411H53.4219L53.5613 35.8438L54.5376 35.2859Z" fill="#E13224"/>
<path d="M266.525 44.3516L266.943 44.491V44.77L267.083 44.6305L267.501 44.491V44.77H267.222L266.943 45.4673H266.386H266.246V44.77L266.525 44.3516Z" fill="#E13224"/>
<path d="M132.222 92.3291H133.616L133.895 92.4686V92.7475L132.082 92.887L132.222 92.3291Z" fill="#EF392D"/>
<path d="M58.4338 33.7517L58.7127 34.3096L58.1548 34.728L57.5969 35.0069L57.0391 34.8675L57.318 34.4491L57.8759 34.3096L57.7364 34.0306L58.4338 33.7517Z" fill="#E13224"/>
<path d="M104.183 30.2649H104.602V30.5438L105.857 30.6833V30.9622H103.625H103.207L103.347 30.6833L104.044 30.5438L104.183 30.2649Z" fill="#E63427"/>
<path d="M110.878 95.5369L111.436 95.6763L112.83 95.9553V96.0947L110.738 96.2342L110.878 95.5369Z" fill="#F13A2E"/>
<path d="M58.5826 33.4729L59.0011 33.6124L57.8853 34.1703L58.0248 34.4492L56.7695 34.8676L56.909 34.1703L58.5826 33.4729Z" fill="#EE392C"/>
<path d="M82.7059 98.0474L83.6822 98.1868L83.8216 98.4658L84.24 98.6052V98.7447H83.2638L82.5664 98.3263L82.7059 98.0474Z" fill="#F13A2E"/>
<path d="M6.55859 89.1213H6.977L7.67435 89.8187L8.65064 90.516L8.3717 90.6555L6.83753 89.6792L6.55859 89.1213Z" fill="#F23B2F"/>
<path d="M240.028 58.438L240.586 58.5775L239.888 58.9959L238.633 59.5537L238.215 59.4143L239.47 58.7169L240.028 58.438Z" fill="#E13224"/>
<path d="M82.7086 41.7014L82.8481 42.1198L83.127 42.2593L82.9876 42.3988L83.127 42.8172H82.8481L82.5692 43.5145H82.4297V42.2593L82.7086 41.7014Z" fill="#E13224"/>
<path d="M96.3688 97.2107H96.7872V97.7686L97.3451 97.6291H98.8792V97.7686L96.3688 97.908L96.0898 97.6291L96.3688 97.3502V97.2107Z" fill="#F13A2E"/>
<path d="M131.378 92.1897L131.936 92.3292L132.075 92.887L132.354 93.0265L131.238 93.166V92.7476L131.378 92.1897Z" fill="#F23B2F"/>
<path d="M92.4719 38.7727L92.6114 39.3306L92.193 41.0042H91.9141V40.1674L92.4719 38.7727Z" fill="#F23B2F"/>
<path d="M83.6849 24.2678L84.2428 24.4073L83.2665 24.9652H82.4297V24.6862L83.6849 24.2678Z" fill="#E83528"/>
<path d="M251.606 52.5801H252.164V52.859H251.885V53.138L251.187 53.2774L250.769 53.5564L250.211 53.4169L251.466 52.7195L251.606 52.5801Z" fill="#E13224"/>
<path d="M180.75 48.1172H181.029L180.89 48.954L180.332 49.3724V48.8145L180.472 48.5356H180.75V48.1172Z" fill="#F23B2F"/>
</svg>
