<svg width="185" height="120" viewBox="0 0 185 120" fill="none" xmlns="http://www.w3.org/2000/svg">
<path d="M42.871 2.80643C41.1774 4.35482 37.6452 7.54837 34.9839 9.91933C32.3226 12.2903 26.7581 17.2742 22.6452 21.0484C18.5323 24.7742 13.2097 29.5645 10.7903 31.6935C8.37097 33.8226 6.33871 35.6613 6.19355 35.8064C6.04839 35.9516 4.59677 37.3064 3 38.8064L0 41.5645L3 44.3709C10.0645 51 30.629 70.5 39.1452 78.7258L43.7903 83.2258H92.129H140.468L143.855 79.9354C146.903 77.0322 161.952 63 170.903 54.6774C172.79 52.9355 175.936 49.9838 177.968 48.0967C179.952 46.2096 182.323 44.0322 183.242 43.2097L184.839 41.8064L176.226 34.1129C171.436 29.8548 164.419 23.5645 160.548 20.0806C156.677 16.5968 150 10.6451 145.742 6.87095L137.903 -1.52588e-05H91.8871H45.871L42.871 2.80643ZM63.6774 5.1774C64.1129 5.61288 65.8548 5.80643 69.1452 5.80643C72.871 5.80643 74.0323 5.9516 74.2258 6.48386C74.371 6.87095 75.0484 7.30643 75.7258 7.49998C76.6936 7.74192 76.8387 7.93546 76.4032 8.37095C75.7742 8.99998 70.7903 9.14514 67.7903 8.5645C66.4839 8.37095 65.7097 8.41933 65.7097 8.70966C65.7097 9.72579 68.129 10.3548 73.1129 10.5484C78.9194 10.7903 79.9839 11.5645 76.0161 12.6774C73.3549 13.4516 72.7742 14.8064 75.1452 14.6613C77.3226 14.5645 83.7581 15.4355 84.2419 15.9193C85.2097 16.8871 84.0484 18.2903 81.9194 18.8226C80.7097 19.1129 79.7419 19.5968 79.7419 19.8387C79.7419 20.4677 82.9839 21.2903 85.5968 21.2903C88.0645 21.2903 90.871 22.1129 90.871 22.7903C90.871 23.0806 90.1452 23.5645 89.3226 23.9516L87.7258 24.629L90.3871 24.6774C93.9194 24.6774 95.2742 25.1129 95.129 26.0806C94.9355 27.1935 98.0807 27.3387 104.371 26.4193C111.339 25.3548 117.145 25.4032 120.726 26.5161C123.145 27.2903 123.823 27.3387 125.226 26.8064C126.145 26.4677 128.806 26.1774 131.129 26.1774C134.516 26.129 136.016 26.3709 138.581 27.3387C142.258 28.7419 144.242 28.8387 146.613 27.8709C148.403 27.0968 149.371 27.2419 154.5 28.9355C156.097 29.4677 157.984 30.0484 158.758 30.1935C159.484 30.3871 160.065 30.7258 160.065 30.9677C160.065 31.7419 156.726 32.0806 154.597 31.4516C151.016 30.3871 148.403 30.3871 145.548 31.3548L142.887 32.2742L150.048 32.5161C157.548 32.758 159.29 33.2419 157.452 34.5967C155.177 36.2903 147.823 36.0967 136.936 34.1129C129.194 32.6613 124.355 32.5161 123.919 33.6774C123.774 34.1129 124.113 36.4838 124.694 38.9032C125.274 41.3226 125.855 44.4193 126 45.7258L126.29 48.1935L129.871 48.7742C134.71 49.5484 135.194 49.8387 136.113 53.0806C136.887 55.7903 138.823 59.2742 141.097 62.1774C142.113 63.4355 142.548 63.629 144.919 63.629C147.145 63.6774 147.726 63.8709 148.5 64.8387C150 66.8709 149.661 67.9355 146.758 70.1129C145.306 71.1774 144 72.0967 143.806 72.0967C143.613 72.0967 143.565 71.9516 143.758 71.8064C144.436 71.129 142.984 68.758 141.532 68.2742C139.306 67.5 138.436 66.5322 135.532 61.5484C132.387 56.2258 131.516 55.6451 128.226 56.6129C123 58.1129 120.242 57.8709 116.855 55.5967C114.968 54.3387 114.532 54.2419 113.661 54.7742C111.774 55.9355 111.484 57.2419 112.113 60.9677C113.032 66.0967 112.161 66.629 105.871 64.9838C102.726 64.2096 102.677 64.2096 99.6774 65.3709C98.0323 66 96.5807 66.8709 96.4839 67.258C96.3871 67.6451 96.1452 68.5161 96 69.1935C95.7097 70.5967 91.8871 72.9677 90.871 72.3387C89.5645 71.5645 92.129 65.3225 95.0323 62.2742C97.2581 59.9516 98.6129 59.4193 102 59.5645C104.565 59.6613 104.661 59.6613 104.565 58.4516C104.516 57.8225 103.935 56.4193 103.258 55.4032C102.581 54.3871 101.758 52.7419 101.516 51.7742C101.226 50.758 100.694 49.6935 100.258 49.3548C99.4839 48.6774 99.0968 48.8226 94.0161 51.7742C90.9194 53.6129 86.8065 54.9677 81.871 55.7903C79.6936 56.1774 77.7097 56.6129 77.4194 56.8064C76.7419 57.1935 74.9032 61.3064 74.9032 62.3225C74.9032 62.9516 75.6774 63 80.2258 62.7096C84.4839 62.4677 85.5484 62.5645 85.5484 63.0484C85.5484 63.6774 73.7419 69.1935 72.3871 69.1935C70.7419 69.1935 69.9194 67.4032 69.871 63.4838C69.8226 58.6451 69.1936 57.7258 64.9355 55.9838C63.0968 55.2096 60.7258 54.1935 59.6613 53.6613C56.5161 52.1613 55.1129 52.4032 51.3871 55.3064C49.5484 56.7096 47.4194 58.8871 46.5968 60.0967C45.0968 62.4677 43.7419 63.3871 41.7581 63.3871C41.129 63.3871 40.5484 63.6774 40.4032 63.9677C40.3065 64.3064 40.0161 64.4516 39.8226 64.2096C39.5807 64.0161 40.1613 62.4193 41.0807 60.629C42.4355 57.9193 43.5968 56.6129 48.0968 52.7419C54.4839 47.2258 56.2742 46.4516 61.0161 47.3226C63.0484 47.7096 64.3548 48.2903 65.3226 49.1613C66.0484 49.8871 66.7742 50.4193 66.871 50.2742C67.0161 50.1774 66.6774 48.7742 66.1452 47.1774C65.6129 45.5806 64.9355 42.0967 64.6452 39.4355C63.8226 30.7742 62.6129 27.2419 59.5645 23.9032C58.0645 22.3064 54.3387 22.3548 48.9194 24C45.5323 25.0645 44.6613 25.2097 43.5968 24.7258C42.4839 24.1935 42.3871 23.9516 42.5807 21.7742C42.8226 19.4516 43.0161 19.1613 47.2742 15.0968C49.7419 12.7742 52.2581 10.6451 52.8387 10.4032C54.871 9.48386 57.871 6.77418 58.1613 5.5645C58.4516 4.49998 58.6936 4.40321 60.7742 4.4516C62.0323 4.49998 63.3387 4.83869 63.6774 5.1774ZM150.484 37.6451C151.403 38.5645 150.339 39.1935 147.774 39.1935C145.258 39.1935 144.097 38.6129 144.097 37.3548C144.097 36.7742 144.677 36.6774 147.048 36.9193C148.694 37.0645 150.242 37.4032 150.484 37.6451ZM89.5161 58.0645C89.4194 58.7419 88.9839 59.8548 88.5484 60.5806C87.9194 61.6935 87.4355 61.9355 85.9355 61.9355C83.8065 61.9355 83.1774 61.0645 84.0484 59.2258C84.629 57.9193 87.1452 56.5645 88.6936 56.758C89.4194 56.8064 89.6129 57.1451 89.5161 58.0645Z" fill="#2E388F"/>
<path d="M50.2602 120L43.332 94.6627H46.4497L51.7448 115.299H51.9922L57.3863 94.6627H60.8504L66.2444 115.299H66.4919L71.7869 94.6627H74.9046L67.9765 120H64.8093L59.2173 99.8093H59.0194L53.4273 120H50.2602Z" fill="#3D9D55"/>
<path d="M78.7275 120V94.6627H81.7957V105.946H95.3055V94.6627H98.3737V120H95.3055V108.667H81.7957V120H78.7275Z" fill="#B7353D"/>
<path d="M104.516 120V94.6627H113.077C115.065 94.6627 116.69 95.0215 117.952 95.7391C119.222 96.4484 120.162 97.4092 120.773 98.6217C121.383 99.8341 121.688 101.187 121.688 102.68C121.688 104.172 121.383 105.529 120.773 106.75C120.171 107.971 119.239 108.944 117.977 109.67C116.715 110.387 115.098 110.746 113.127 110.746H106.991V108.024H113.028C114.389 108.024 115.482 107.789 116.307 107.319C117.131 106.849 117.729 106.214 118.1 105.414C118.48 104.605 118.67 103.694 118.67 102.68C118.67 101.665 118.48 100.758 118.1 99.9578C117.729 99.1578 117.127 98.5309 116.294 98.0773C115.461 97.6154 114.356 97.3845 112.979 97.3845H107.584V120H104.516Z" fill="#3B3D8A"/>
<path d="M126.631 120V94.6627H129.699V117.278H141.477V120H126.631Z" fill="#1F1F1F"/>
</svg>
