<svg width="300" height="99" viewBox="0 0 300 99" fill="none" xmlns="http://www.w3.org/2000/svg">
<path d="M299.358 37.2856H300.001V37.9285L292.287 43.7142L287.787 47.1428L283.716 50.1428L279.858 53.1428L277.073 55.2857L271.073 59.7857L269.573 61.0714V66.4285L269.787 86.3571V91.2857L269.573 98.1428L268.716 97.7143L266.787 95.3571L264.216 92.3571L262.287 90L259.716 87L258.001 84.8571L255.644 82.0714L253.93 79.9285L251.358 76.9285L250.501 75.8571L249.644 76.0714L243.858 80.5714L241.287 82.7142L235.287 87.4285L231.43 90.4285L228.215 93L225.43 95.1428L223.501 96.8571L222.43 97.2857L222.644 96.2143L227.358 89.1428L230.787 84.2142L232.715 81.2142L237.43 74.1428L240.644 69.4285L244.501 63.6428L246.001 61.2857L248.144 58.2857L250.93 53.9999L256.93 44.9999L260.573 39.6428L261.858 39.2142L292.073 37.7142L299.358 37.2856Z" fill="url(#paint0_linear_2228_7692)"/>
<path d="M250.072 0H250.5L252 3.85715L254.143 9.64286L258.214 20.5714L261.429 29.1429L261.214 30.6429L258.429 35.1429L254.786 41.1429L248.786 51L246.214 55.2858L244.5 58.0715L240.857 64.0715L238.714 67.5L235.929 72.2143L232.714 77.1429L230.786 80.5715L228.214 84.6429L226.5 87.4286L223.929 91.5001L221.143 96.2143L220.286 97.5001L219.643 97.7143L219.857 96.0001L221.571 91.2858L223.286 85.9286L225.214 79.5001L227.143 73.2858L229.286 66.4286L230.571 62.3572L230.786 60.6429L228.857 57.4286L226.714 54.2143L224.143 50.1429L218.786 42L217.071 39.4286L216 37.9286V37.5L238.071 37.2857L239.143 34.7143L243.429 21L245.786 13.2857L247.929 6.64286L249.643 1.07143L250.072 0Z" fill="url(#paint1_linear_2228_7692)"/>
<path d="M273.215 16.2856L275.786 16.4999L278.358 17.3571L280.072 18.6428L281.786 20.3571L283.286 23.3571L283.501 24.2142V27.8571L282.643 30.2142L281.358 31.9285L280.286 32.9999L279.001 34.0714L276.858 35.1428L274.929 35.5714H272.572L270.429 34.9285L268.286 33.6428L266.572 32.1428L265.286 30.2142L264.429 27.8571L264.215 25.0714L265.072 22.0714L266.143 20.1428L267.429 18.6428L270.429 16.9285L271.715 16.4999L273.215 16.2856Z" fill="url(#paint2_linear_2228_7692)"/>
<path d="M9.21709 37.2856H20.5743L24.2171 37.9285L26.36 38.7856L27.86 40.2856L28.7171 41.9999L28.9314 43.0714V45.4285L28.0743 48.6428L26.7886 50.7857L25.2886 52.0714L24.86 52.2857V52.7142L27.0029 53.5714L28.5029 55.0714L29.36 56.9999L29.5743 57.8571V60.4285L28.7171 63.8571L27.4314 66L25.7171 67.7142L22.7171 69.2142L19.7171 70.0714L18.4314 70.2857H3.85994L2.57422 70.0714L3.00279 67.0714L5.78851 49.4999L7.28852 40.2856L7.71709 37.7142L9.21709 37.2856Z" fill="#09428D"/>
<path d="M103.287 47.1431H106.715L109.501 48.0002L111.43 49.5002L111.858 47.7859H120.001L119.573 51.4288L118.073 61.2859L116.573 69.8574L116.358 70.2859H108.43L108.644 68.3574L107.358 69.2145L105.001 70.5002L103.287 70.9288H99.4297L97.2868 70.2859L95.144 69.0002L93.644 67.2859L92.3583 64.7145L91.9297 63.2145V58.9288L92.7868 55.7145L94.0726 53.3574L95.5726 51.4288L97.0726 49.9288L99.2154 48.4288L102.215 47.3574L103.287 47.1431Z" fill="#09428D"/>
<path d="M45.8589 47.1431H50.3589L53.1446 47.7859L54.8589 48.6431L57.0017 50.5716L58.2875 53.1431L58.9303 55.7145V58.0716L58.5017 60.2145L58.2875 60.4288L41.7874 60.6431V62.1431L42.4303 63.6431L42.6446 64.2859L43.716 64.7145L44.3588 64.9288H46.9303L48.6446 64.2859L49.5017 63.8574L49.716 63.2145L54.6446 63.0002H57.6446L57.4303 64.2859L55.716 66.6431L54.216 68.1431L51.6446 69.6431L49.2874 70.5002L47.1446 70.9288H42.4303L39.8588 70.2859L37.2874 69.0002L35.3588 67.2859L34.0731 64.9288L33.6445 63.0002V59.3574L34.5017 55.9288L36.216 52.7145L38.1445 50.5716L40.2874 49.0716L42.4303 48.0002L45.8589 47.1431Z" fill="#09438E"/>
<path d="M179.357 47.7856H189.643L191.357 49.9285L192.643 51.6428V52.0714L193.714 51.4285L197.357 47.7856H207.857L207.429 48.6428L204.857 50.9999L201.643 53.9999L199.286 56.3571L197.571 57.8571V58.4999L199.714 61.0714L206.143 69.6428V70.2857H195.857L194.143 68.1428L192.214 65.3571L191.143 64.0714L190.286 64.4999L184.929 69.8571L184.286 70.2857H174L174.429 69.4285L177.643 66.4285L179.786 64.2857L181.5 62.7857L183.214 61.0714L184.929 59.5714L186.429 58.2857L186.214 57.2142L184.5 55.0714L182.143 51.6428L180 48.8571L179.357 47.7856Z" fill="#09438E"/>
<path d="M67.9297 34.0718H75.8583L75.644 36.6432L72.644 55.5004L70.2869 69.8575L70.0726 70.2861H62.144L61.9297 69.6432L65.7868 45.6432L67.5011 35.1432L67.9297 34.0718Z" fill="#09438E"/>
<path d="M82.9258 34.0718H90.6401L90.8544 34.7146L88.9258 46.5004L85.4972 68.3575L85.0687 70.2861H77.1401L76.9258 69.2147L79.7115 51.8575L82.4972 34.2861L82.9258 34.0718Z" fill="#09438E"/>
<path d="M128.57 41.1431H136.713V42.6431L135.856 47.7859H140.356L139.284 54.2145L139.07 54.6431H135.427L134.784 54.8574L132.641 67.9288L131.998 70.2859H124.07L124.284 67.7145L125.784 57.8574L126.213 55.7145V54.6431L124.07 54.4288L123.855 54.0002L124.713 48.4288L125.141 47.7859L127.498 47.5716L128.355 41.7859L128.57 41.1431Z" fill="#09438E"/>
<path d="M158.142 47.5713H161.142V49.2856L160.285 54.857L160.071 55.2856L157.928 54.857H155.571L153.428 55.4999L152.357 56.357L150.857 59.357L149.571 66.2142L148.928 69.857L148.714 70.2856H141.642L140.785 70.0713L140.999 67.2856L143.571 50.7856L143.999 47.9999L144.214 47.7856H152.357L152.571 48.2141L151.928 50.9999H152.357L152.785 50.1427L154.499 48.857L156.214 47.9999L158.142 47.5713Z" fill="#09438E"/>
<path d="M165.643 47.7856H173.786L173.572 50.5714L170.572 69.6428L170.358 70.2857H162.858L162.215 70.0714L162.643 66.6428L165.429 48.6428L165.643 47.7856Z" fill="#09448F"/>
<path d="M177.428 77.5713H183.428L184.714 78.2141L185.571 79.2856L185.785 79.7141V81.857L184.928 83.5713L183.857 84.4284L182.999 84.6427L183.642 86.1427L184.928 88.2856L185.357 88.9284V89.7856H181.714L180.642 88.0713L179.571 85.9284L179.142 85.7142V87.857L178.714 89.5713L178.499 89.7856H175.928L175.285 89.5713L175.714 86.9999L177.214 77.7856L177.428 77.5713Z" fill="#094994"/>
<path d="M98.5731 77.5713H101.787L101.573 79.7141L101.145 82.2856L105.43 82.0713L105.645 79.4999L106.073 77.7856L106.287 77.5713H109.502L109.287 79.4999L107.573 89.5713L106.716 89.7856L104.145 89.5713L104.359 87.2142L104.787 84.857L103.716 85.0713H100.502L100.287 87.6427L99.8588 89.5713H96.6445V88.0713L98.3588 77.7856L98.5731 77.5713Z" fill="#094893"/>
<path d="M2.14286 77.5713H5.14287L4.92859 79.9284L4.50001 82.2856H8.78574L9.21431 78.6427L9.64288 77.5713H12.8572L12.6429 79.7141L10.9286 89.5713L10.7143 89.7856L7.71431 89.5713L7.92859 86.7856L8.14288 85.0713L4.07144 84.857L3.42858 89.5713L2.78572 89.7856H0.214286L0 89.5713V87.857L1.07143 82.2856L1.71429 78.2141L2.14286 77.5713Z" fill="#094893"/>
<path d="M158.998 77.5713H162.427L162.855 77.9999L165.213 88.7142L165.427 89.5713L164.141 89.7856H161.784L160.927 87.857H157.284L156.427 88.9284L155.998 89.5713L152.355 89.7856L154.07 86.357L156.855 81.4284L158.784 77.7856L158.998 77.5713Z" fill="#094792"/>
<path d="M45.8583 77.5713H49.2869L49.9297 79.2856L51.8583 88.2856L52.0726 89.5713L50.7869 89.7856H48.644L47.7869 87.857H44.144L43.2868 88.9284L42.8583 89.5713L39.4297 89.7856V89.1427L41.5726 85.0713L43.5011 81.6427L45.4297 77.9999L45.8583 77.5713Z" fill="#094893"/>
<path d="M104.999 54.2144H107.142L108.857 54.8572L110.357 56.5715L110.571 58.5001L109.928 60.8572L108.642 62.5715L106.714 63.6429L105.857 63.8572H103.071L101.357 63.0001L100.499 61.7144L100.285 60.8572V59.3572L100.928 57.4286L101.785 56.1429L103.285 54.8572L104.999 54.2144Z" fill="#FDFDFD"/>
<path d="M197.569 77.5713H204.641L204.426 79.2856L203.998 80.357L203.784 80.5713L200.569 80.7856L200.355 82.0713L203.784 82.2856L203.569 83.7856L203.141 85.0713L201.212 85.2856H199.712L199.498 86.7856H202.926L203.141 87.4284L202.712 89.5713L202.283 89.7856H196.283L195.641 89.5713V88.0713L197.355 77.7856L197.569 77.5713Z" fill="#084B95"/>
<path d="M24.2132 77.5713H31.0703L30.8561 79.9284L30.6418 80.357L27.856 80.5713L26.9989 80.7856V82.0713L30.2132 82.2856L29.9989 84.4284L29.7846 85.0713L26.9989 85.2856L26.356 85.4999L25.9275 86.7856H29.5703L29.356 89.357L28.4989 89.7856H22.2846L22.0703 89.1427L23.5703 79.7141L23.9989 77.7856L24.2132 77.5713Z" fill="#084994"/>
<path d="M140.14 77.3569H142.926L144.212 77.9998L143.783 81.6427L142.926 81.2141L142.283 80.7855H139.926L138.854 81.4284L138.212 81.6427L137.783 82.7141L137.569 83.1427V85.2855L138.426 86.3569L138.854 86.5712H140.997L142.926 85.9284L143.14 86.9998L142.283 89.1427L141.426 89.7855L140.783 89.9998H137.997L135.854 88.9284L134.354 87.2141L133.926 86.1427V83.3569L134.997 80.7855L136.926 78.6426L139.069 77.5712L140.14 77.3569Z" fill="#084994"/>
<path d="M170.79 34.9282H172.932L174.218 35.5711L175.29 36.8568L175.718 37.7139V40.0711L174.861 41.7854L173.147 43.2854L171.861 43.9282L169.718 44.1425L167.575 43.0711L166.718 41.5711L166.504 40.9282V39.2139L167.147 37.7139L168.004 36.4282L170.147 35.1425L170.79 34.9282Z" fill="#09448F"/>
<path d="M79.7137 77.5713H88.0709L87.8566 79.7141L87.6423 80.357L85.2852 80.5713L83.9995 87.857L83.7852 89.357L83.5709 89.5713L80.7852 89.7856L80.1423 89.5713L81.428 81.857L81.6423 80.357H79.2852V78.857L79.7137 77.5713Z" fill="#084993"/>
<path d="M64.2874 77.5713H67.5017L67.2874 79.7141L66.216 86.7856H69.4303V89.357L68.1445 89.7856H62.5731L62.1445 89.5713L63.4302 81.2141L64.0731 77.7856L64.2874 77.5713Z" fill="#084A95"/>
<path d="M13.716 56.7856H17.1445L19.0731 57.2142L20.3588 58.0714L20.7874 58.7142L20.5731 60.6428L19.716 62.1428L18.8588 62.7856L16.716 63.4285H12.6445V61.9285L13.5017 56.9999L13.716 56.7856Z" fill="#FDFDFD"/>
<path d="M15.8566 44.1426L19.0709 44.5711L20.3566 45.4283V47.5712L19.7137 48.8569L18.428 49.9283L15.2137 50.3569L14.7852 50.1426V48.4283L15.428 44.7854L15.8566 44.1426Z" fill="#FDFDFD"/>
<path d="M46.284 52.5H48.8555L50.3555 53.3571L51.4269 54.4286L51.6412 55.5L51.2126 55.7143H42.8555L43.0698 54.8571L44.5698 53.3571L46.284 52.5Z" fill="#FDFDFD"/>
<path d="M180.214 80.3574H181.714L182.357 81.0003L182.142 82.0717L181.071 82.9289H179.999L179.785 82.0717L179.999 80.5717L180.214 80.3574Z" fill="#FDFDFD"/>
<path d="M159.642 82.0718H160.07L160.499 83.1432V84.8575L160.285 85.0718H158.57L158.999 83.7861L159.642 82.0718Z" fill="#FDFDFD"/>
<path d="M46.5011 82.0718H46.9297L47.3583 83.5718V85.0718H45.4297L46.0725 83.1432L46.5011 82.0718Z" fill="#FDFDFD"/>
<path d="M203.145 83.7856H203.359V84.8571L202.502 85.2856L200.145 85.0714L200.359 84.6428H203.145V83.7856Z" fill="#0578BF"/>
<path d="M0.428573 85.7144L0.857145 86.3572L0.642859 88.0715H0.214286L0 88.9286L0.214286 87.0001L0.428573 85.7144Z" fill="#047CC3"/>
<defs>
<linearGradient id="paint0_linear_2228_7692" x1="222.43" y1="82.3948" x2="300.001" y2="53.0336" gradientUnits="userSpaceOnUse">
<stop stop-color="#009CDC"/>
<stop offset="1" stop-color="#273D93"/>
</linearGradient>
<linearGradient id="paint1_linear_2228_7692" x1="216" y1="50.2285" x2="261.429" y2="47.4858" gradientUnits="userSpaceOnUse">
<stop stop-color="#009CDC"/>
<stop offset="1" stop-color="#273D93"/>
</linearGradient>
<linearGradient id="paint2_linear_2228_7692" x1="263.143" y1="33.8571" x2="283.501" y2="19.3533" gradientUnits="userSpaceOnUse">
<stop stop-color="#009CDC"/>
<stop offset="1" stop-color="#273D93"/>
</linearGradient>
</defs>
</svg>
