<svg width="99" height="120" viewBox="0 0 99 120" fill="none" xmlns="http://www.w3.org/2000/svg">
<path d="M12.0234 27.2759L12.6997 27.351L13.3008 27.6516L14.3528 28.5533L15.029 29.3047L15.555 29.9058L16.081 30.4318L16.9075 31.1081L17.8843 31.8595L18.6357 32.4606L19.4623 33.1369L20.4391 33.9634L24.2712 36.5182L25.9243 37.5702L27.1265 38.3216L28.5541 39.073L30.8083 40.0498L32.9122 41.0267L35.5421 42.3041L37.7212 43.2809L40.5765 44.2577L44.2583 45.3848L46.5876 46.2114L50.0441 47.5639L52.148 48.3905L53.5756 48.8413L55.1535 49.2922L57.4077 50.1187L58.9105 50.795L61.6907 51.7718L63.7946 52.6735L66.4245 53.8758L67.8521 54.6272L69.4301 55.5289L71.1583 56.4306L72.2854 57.1068L73.6379 58.0085L74.9152 58.9102L76.1926 59.887L77.8457 61.0141L78.8976 61.8407L80.2502 63.1932L80.8513 63.9446L81.9032 65.0718L82.88 65.9734L83.6314 66.8L84.6083 68.0774L85.4348 69.2045L86.4116 70.6322L87.0879 71.7593L88.215 73.8632L89.7177 76.8689L90.6946 78.9728L91.5962 81.0768L92.0471 82.3542L92.8736 85.2847L94.0007 89.7931L94.5267 91.8219L95.2029 94.9027L95.5786 97.1569L95.6538 97.9083V98.7349L95.2029 98.3592L94.6018 97.6078L94.0758 96.9315L93.3244 95.9547L92.7233 95.2033L91.7465 94.001L91.2205 93.3247L90.2437 92.1976L89.6426 91.5965L89.1166 90.9954L87.9895 89.9434L86.5619 88.5157L84.458 86.8626L83.5563 86.2615L81.8281 85.1344L80.175 84.0824L79.1982 83.4061L77.0192 82.279L75.1407 81.3773L74.0136 80.8513L71.8345 79.8745L69.3549 78.8977L67.251 78.2214L65.5228 77.7706L64.4709 77.6203L61.0896 76.6435L59.5868 76.1175L57.9337 75.5915L56.1304 75.2158L55.1535 74.9152L52.9745 74.2389L51.096 73.6378L49.4429 73.2621L49.1424 73.187H48.3158L47.339 72.8864H46.8882L46.2119 72.5858L43.9578 71.8344L42.6052 71.3085L39.6748 70.4068L37.4957 69.3548L35.467 68.4531L34.2647 67.9271L33.2128 67.326L32.5365 66.8751L31.4846 66.274L30.5829 65.8232L29.7564 65.3723L28.7796 64.6961L28.0282 64.0198L26.2248 62.3667L25.4734 61.7656L24.4966 60.8639L23.4447 59.8119L22.0921 58.1588L21.1905 57.1068L20.8148 56.5808V56.4306L20.5893 56.3554L19.6877 55.078L19.0114 53.8006L18.0346 51.6967L16.9826 49.743L16.5318 48.691L15.4047 45.3848L14.6533 42.9803L14.503 42.4543V41.8532H14.3528L13.9019 39.7493L13.2257 35.6165L12.6246 32.8363L12.4743 31.5589L12.324 28.7036L12.0234 27.4262V27.2759Z" fill="#0097AB"/>
<path d="M0 60.6387L0.826535 60.7138L1.57793 61.0895L2.47961 61.9161L3.08072 62.4421L4.13268 63.2686L5.18463 64.02L6.462 64.9217L7.66424 65.6731L7.73938 65.8234L8.26535 66.0488L8.49077 66.1991V66.3494L8.86647 66.4245L9.09189 66.5748V66.7251L9.46759 66.8002L9.693 66.9505V67.1008L10.3693 67.3262L10.8201 67.6268L11.0455 67.8522L11.5715 68.1528L12.0975 68.3782L12.3229 68.6036L12.8489 68.829L13.5251 69.2799L14.5771 69.881L15.1782 70.1816V70.3318L16.0047 70.5573L16.155 70.6324V70.7827L16.681 70.8578L16.9064 71.0081V71.1584L17.3572 71.2335L18.5595 71.8347V71.9849L19.2357 72.2104L20.2125 72.6612L21.9408 73.3375L22.6922 73.5629L23.3684 73.8635V74.0138L24.2701 74.2392L24.4204 74.3143V74.4646L25.0966 74.6149V74.7652L25.848 74.9154L27.2757 75.5917V75.742L28.0271 75.8923L29.079 76.268L32.0846 77.1697L33.2868 77.4702L34.1885 77.6205V77.7708L34.7896 77.8459L37.5698 78.6725L40.0494 79.3488L42.7544 80.1002L45.1589 80.7013L46.7368 81.1521L49.5921 81.7533L52.5226 82.3544L55.1524 82.7301L57.4066 83.3312L59.3603 83.8572L61.2387 84.4583L64.0189 85.1346L65.5217 85.5855V85.7357L66.3482 85.886V86.0363L67.0245 86.1866L69.0533 86.8628L70.8566 87.3888L72.3594 88.2154L73.4114 88.8165L75.2147 89.7182L76.3418 90.3945L78.1451 91.5967L78.3706 91.6719L78.6711 91.9724L79.122 92.1979L79.4977 92.5736L80.4745 93.325L81.827 94.3018L82.8038 95.0532L83.6303 95.8046L84.1563 96.4057L84.9828 97.2323L85.5088 97.8334L86.3354 98.66L86.7862 99.186L87.3122 99.7119L87.5376 100.238L87.9133 100.689L88.2139 100.914L88.4393 101.44L89.0404 102.192L89.7918 103.168L90.1675 103.469L90.5432 104.22L91.2946 105.348L91.8205 106.249L92.046 106.475L92.7222 107.977L94.3002 111.133L95.0516 112.561L96.6295 115.642L97.2306 117.069L97.8317 118.647L98.1323 119.699L98.0571 120L97.6814 119.549L97.1555 118.948L96.6295 118.422V118.272L96.3289 118.121V117.971L96.0284 117.821L95.0516 116.844L94.4504 116.318L93.4736 115.492L92.8725 114.966L92.046 114.289L91.52 113.838L90.994 113.538L89.6415 112.636V112.486L89.2658 112.411V112.26L88.7398 112.11L88.5895 112.035V111.885H88.289V111.734L87.9133 111.659L87.3122 111.359V111.208L86.4856 110.983V110.833L85.6591 110.607L85.5088 110.532V110.382L84.9828 110.307V110.157L84.4569 110.081V109.931L83.7806 109.781L83.0292 109.48V109.33L82.353 109.105L81.0756 108.654V108.503L80.6248 108.428L79.7231 108.128L78.5209 107.827L77.2435 107.451L74.0876 106.7L72.66 106.475L68.9781 106.099L66.0477 105.723L63.4178 105.423L60.9382 105.122L56.8055 104.671L55.0773 104.596L53.4994 104.446L47.8639 104.07L44.1821 103.845L41.1013 103.469L39.2229 103.168L36.2924 102.567L34.0382 101.966L31.3332 101.215L30.5818 100.914V100.764H30.131L29.9807 100.689V100.538L29.2293 100.388L28.2525 100.013V99.8622L27.4259 99.7119V99.5617L26.9751 99.4865L26.5994 99.3362L25.6977 99.1108V98.9605L25.1718 98.8854L24.5706 98.7351L24.4204 98.66V98.5097L23.669 98.3594L23.4435 98.2091V98.0588L23.0678 97.9837V97.8334L22.3165 97.608L22.0159 97.3826V97.2323H21.7905V97.082L21.2645 96.9317V96.7814L20.8137 96.6312L20.5882 96.4809V96.3306H20.3628V96.1803L19.9871 96.03L19.3109 95.4289L18.7849 95.1283V94.9781H18.6346V94.8278L17.8832 94.4521L17.8081 94.3018L17.4324 94.1515V94.0012H17.207V93.8509H16.9815L16.6058 93.4752L16.2301 93.2498L15.7793 92.7238L15.3285 92.4233L14.8025 91.8221L13.3748 90.3945L13.1494 90.2442L12.924 89.8685L12.0975 88.9668L11.2709 87.8397V87.6894L11.0455 87.6143L10.745 87.0883L9.84328 85.9612L8.94161 84.7589L8.26535 83.7069L7.28854 81.8284L6.91284 80.9267V80.7764H6.76256L6.462 79.8747L5.56033 77.9211L4.88407 76.6437L4.20782 74.8403L3.45642 72.8866L2.70502 71.0081L2.25419 69.4302L1.65307 66.5748L1.27737 65.2223L1.12709 64.8466L0.901675 63.9449L0.826535 63.494H0.676256L0.375698 62.4421L0.0751396 61.4652L0 60.6387Z" fill="#01858C"/>
<path d="M39.6737 0L39.9743 0.150282L40.5754 0.676268L41.4771 1.72824L42.0782 2.47965L42.8296 3.53162L43.8815 4.80902L44.2572 5.18472V5.335L44.5578 5.48529V5.63557L44.8583 5.78585L45.5346 6.46212L46.3611 7.13839L47.1125 7.8898L47.7136 8.41578L48.6905 9.31747L49.517 9.99374L50.569 10.8203L51.9966 11.8723L53.4243 12.8491L54.5513 13.6756L58.2332 16.0802L60.8631 17.8084L62.5161 18.8604L63.7184 19.6118L65.3714 20.7389L66.3483 21.4152L68.377 22.7677L70.1052 23.8948L71.0069 24.5711L71.6832 25.0971L72.5848 25.8485L73.1108 26.2242V26.3745L73.4865 26.5247L74.4633 27.2761L75.2899 27.9524L76.2667 28.779L76.8678 29.305L79.4225 31.8597L79.9485 32.4609L80.6248 33.2123L81.4513 34.1891L82.1276 35.0157L82.879 35.9925L83.4049 36.7439L84.3066 38.0213L85.058 39.1484L85.584 39.975L86.6359 41.7783L87.4625 43.5066L88.289 45.5354L89.0404 47.6393L89.8669 49.8936L90.6183 52.2229L91.0692 53.9512L91.52 55.9048L91.9709 58.6099L92.1963 60.3382L92.3465 62.2918L92.7974 66.0489L92.8725 67.2511L92.7222 67.5517L92.1963 66.8754L90.5432 64.3958L89.0404 62.2918L88.1387 61.0896L87.5376 60.263L86.5608 59.0608L85.5088 57.8585L84.9077 57.3325L83.8558 56.4308L82.8038 55.6043L81.6016 54.6274L80.1739 53.5755L78.8966 52.6738L77.6192 51.8472L76.0413 50.8704L74.3131 49.7433L72.66 48.7664L70.7815 47.7145L67.0245 45.6857L65.2963 44.7088L63.3427 43.6569L59.736 41.5529L58.4586 40.8015L56.505 39.5993L54.7768 38.397L53.8751 37.7207L52.8231 36.8942L51.6209 35.9174L50.6441 35.0908L49.8176 34.4145L47.6385 32.2355L46.9623 31.4089L45.9103 30.0564L44.8583 28.4784L44.107 27.201L42.9799 25.0971L42.0782 23.2185L41.2516 21.1897L40.5754 19.0107L40.1997 17.3575L39.8991 15.4039L39.6737 13.2999L39.5234 9.9186V7.13839L39.6737 0Z" fill="#7DBBD8"/>
<path d="M34.3398 101.966L34.941 102.041L37.3454 102.567L39.6748 103.018L42.2295 103.393L43.9577 103.619L47.2638 103.844H49.0672V103.995L49.2175 103.919L50.8705 103.995H51.9225L53.0496 104.07H56.6563L59.1359 104.37L59.4365 104.445L61.1647 104.596L63.1934 104.896L65.0719 105.122L65.8233 105.272L66.8001 105.347L68.6035 105.648V105.798H69.7306L71.1582 105.948L72.3605 106.023L74.3892 106.399L75.1406 106.549L75.2158 106.625L75.7417 106.7V106.85L76.2677 106.925L76.7937 107.075L77.7705 107.226L78.4468 107.526L79.4236 107.902L79.4987 108.052L78.7473 107.902L77.2445 107.451L74.0887 106.7L72.661 106.474L68.9792 106.099L66.0487 105.723L63.4189 105.422L60.9392 105.122L56.8066 104.671L55.0784 104.596L53.5004 104.445L47.865 104.07L44.1831 103.844L41.1024 103.469L39.2239 103.168L36.2935 102.567L34.3398 102.041V101.966Z" fill="#1E9FB5"/>
<path d="M94.1533 110.983L94.4538 111.359L95.0549 112.561L96.6329 115.642L97.234 117.069L97.8351 118.647L98.1357 119.699L98.0605 120L97.76 119.624L97.8351 119.549L97.4594 118.948L96.4075 117.896V117.445L96.2572 117.37L96.182 116.994L95.9566 116.468L95.5809 116.543L95.4306 116.017L95.2804 115.416L95.3555 115.266L95.1301 114.89L94.8295 114.139L94.7544 113.763L94.8295 113.463L94.6041 113.012V112.561L94.3035 111.885L94.0781 111.208L94.1533 110.983Z" fill="#0A99AE"/>
<path d="M0 60.6387L0.826535 60.7138L1.57793 61.0895L2.47961 61.9161L3.08072 62.4421L4.13268 63.2686L5.18463 64.02L6.462 64.9217L7.66424 65.6731L7.73937 65.8234L8.26535 66.0488L8.49077 66.1991V66.3494L8.86647 66.4245L9.09189 66.6499H8.56591L7.88965 66.2742L7.73937 66.1991V66.0488H7.43882V65.8985L6.98798 65.7483V65.598H6.8377V65.4477L6.0863 65.1471L5.93603 64.8466L5.71061 64.7714V64.6211L5.18463 64.4709L5.03435 64.2454L4.35809 64.02L3.83212 63.6443V63.494H3.6067V63.3437H3.45642V63.1935L3.231 63.2686L2.8553 63.1183L2.62988 63.0432L2.40447 62.5172L2.10391 62.2918V62.1415L1.72821 62.0663L1.57793 61.7658L1.35251 61.6155L1.27737 61.2398L1.12709 61.1647L0.676256 61.2398V61.3901L0.375698 61.6155H0.225419L0.150279 61.7658L0 60.6387Z" fill="#189DB2"/>
<path d="M41.4023 79.7246L42.0035 79.7998L45.2345 80.5512L47.1881 81.0771L52.2224 82.1291L54.7772 82.5048L56.3551 82.9557L57.7076 83.3314L57.4071 83.4065L55.1529 82.8054L52.1473 82.3545L48.9163 81.6783L47.4886 81.3777L46.2113 81.0771L44.0322 80.476L41.6278 79.8749L41.4023 79.7246Z" fill="#7DBBD8"/>
<path d="M91.2969 80.5513L91.4472 80.7016L91.9731 82.0541L92.8748 85.2851L94.0019 89.7936L94.5279 91.8224L95.2041 94.9032L95.5798 97.1574L95.655 97.9088V98.7354L95.2041 98.3597L95.129 98.1342L95.3544 98.2094V98.3597H95.5047L94.9787 94.828L94.5279 92.5738L93.7765 89.7185L93.1002 87.0134L92.6494 85.2851L91.8229 82.2044L91.2969 80.7767V80.5513Z" fill="#7DBBD8"/>
<path d="M34.3398 101.966L34.941 102.041L37.3454 102.567L39.6748 103.018L42.2295 103.393L43.9577 103.619L48.0904 103.919L48.9921 103.995V104.07H47.865L44.1831 103.844L41.1024 103.469L39.2239 103.168L36.2935 102.567L34.3398 102.041V101.966Z" fill="#7DBBD8"/>
<path d="M3.67969 72.6616L3.98025 72.8119V72.9622H4.13052L4.43108 73.5633L4.6565 74.1644L4.95706 75.1413L5.18248 75.8175L5.25762 76.4187L5.7836 77.0198L5.93387 77.5458L6.15929 78.222L6.00901 78.3723L5.7836 77.9966L4.88192 76.1932V75.7424H4.73164L4.50622 74.9158L4.35594 74.3899L3.98025 73.5633V73.413L3.82997 73.3379L3.67969 72.6616Z" fill="#0097AB"/>
<path d="M27.1992 75.8174L27.6501 75.9677V75.8174L28.0258 75.8925L29.0777 76.2682L32.0833 77.1699L33.2855 77.4705L34.1872 77.6208V77.6959L33.2104 77.6208L30.9562 77.0196L29.228 76.4937L29.1528 76.5688V76.6439H28.6269L27.8755 76.4185L27.1992 75.8925V75.8174Z" fill="#42A8C0"/>
<path d="M90.1666 112.486L90.8429 112.786L91.5191 113.237L91.97 113.688V113.914L91.6694 113.838L91.444 113.688H91.2186L89.6406 112.636L89.866 112.561L90.1666 112.486Z" fill="#1099AC"/>
<path d="M81.2227 93.8506L81.5984 94.0009L82.4249 94.602L83.2514 95.2783L83.9277 95.9545L84.4537 96.5557L85.8062 97.9082L86.3321 98.5093L86.257 98.6596L84.9796 97.3822L84.4537 96.7811L83.6271 95.9545L83.1763 95.4285L82.3497 94.7523L81.2227 93.9257V93.8506Z" fill="#7DBBD8"/>
<path d="M6.39062 65.0718L6.84146 65.1469L7.668 65.6729L7.74314 65.8232L8.26911 66.0486L8.49453 66.1989V66.3492L8.87023 66.4243L9.09565 66.6497H8.56967L7.89342 66.274L7.74314 66.1989V66.0486H7.44258V65.8983L6.99174 65.748V65.5978H6.84146V65.4475L6.46576 65.2972L6.39062 65.0718Z" fill="#1A9CB0"/>
<path d="M0 60.6387L0.826535 60.7138L1.42765 61.0144L1.20223 61.2398H0.901675H0.676256V61.3901L0.375698 61.6155H0.225419L0.150279 61.7658L0 60.6387Z" fill="#189CB1"/>
<path d="M13.2236 69.2046L13.6744 69.3549L14.4258 69.8057L15.1772 70.1814L14.8766 70.3317H14.5761L13.975 70.1063L13.6744 70.0311V69.8809L13.3739 69.7306L13.2987 69.5052H13.1484L13.2236 69.2046Z" fill="#1C9DB1"/>
<path d="M32.611 101.29H32.9867L33.5127 101.515L34.1889 101.591L34.79 101.891L34.8652 102.041L34.0386 101.966L32.1602 101.44V101.365L32.611 101.29Z" fill="#1C9EB4"/>
<path d="M76.9451 107.151H77.5462L78.4479 107.527L79.4247 107.902L79.4998 108.053L78.7484 107.902L77.2456 107.451L76.6445 107.301L76.9451 107.151Z" fill="#25A1B8"/>
<path d="M93.1737 109.029L93.3991 109.33L94.0003 110.532V110.682H93.85L93.7748 110.833L93.324 110.006L93.0234 109.555L93.0986 109.18L93.1737 109.029Z" fill="#1D9EB3"/>
<path d="M34.9414 101.891L35.4674 101.966L35.6928 102.041V102.192L35.9934 102.117V102.267L36.6696 102.192L36.7448 102.267L37.4962 102.417L37.7967 102.643L36.9702 102.567L34.9414 102.117V101.891Z" fill="#0097AB"/>
<path d="M4.73438 76.1182L4.95979 76.1933L5.86147 77.9967V78.2221H5.71119L4.88465 76.6442L4.73438 76.1182Z" fill="#008892"/>
<path d="M32.611 101.29H32.9867L33.5878 101.591V101.741L32.9867 101.666L32.1602 101.44V101.365L32.611 101.29Z" fill="#33A5BD"/>
<path d="M7.89062 66.0488L8.4166 66.124L8.49174 66.3494L8.86744 66.4245L9.09286 66.65H8.56688L7.89062 66.2743V66.0488Z" fill="#189AAD"/>
<path d="M5.48438 64.3208L5.78493 64.4711L6.61147 64.9971L6.46119 65.2225L6.08549 65.1474L5.93521 64.8468L5.70979 64.7716V64.6214L5.48438 64.3959V64.3208Z" fill="#23A0B7"/>
<path d="M34.9414 101.891L35.4674 101.966L35.6928 102.041V102.192L35.9934 102.117V102.267H36.5945V102.342H35.9182L34.9414 102.117V101.891Z" fill="#0094A7"/>
<path d="M30.582 100.839L31.2583 100.914L31.4086 100.99V101.14L31.8594 101.065L32.16 101.365L31.634 101.29L30.8826 101.065L30.582 100.839Z" fill="#44AAC3"/>
<path d="M78.2927 107.526L79.0441 107.752L79.495 107.977L79.2696 108.052L77.9922 107.677L78.2927 107.526Z" fill="#3BA8C0"/>
<path d="M92.6484 107.978L92.8739 108.203L93.1744 108.879V109.03L92.7987 108.954L92.7236 108.504L92.6484 107.978Z" fill="#33A4BB"/>
<path d="M14.2773 40.6514L14.4276 40.9519L14.653 41.7785V42.1542H14.5028L14.2773 41.1774V40.6514Z" fill="#008B97"/>
</svg>
