<svg width="172" height="120" viewBox="0 0 172 120" fill="none" xmlns="http://www.w3.org/2000/svg">
<path d="M0 0L1.97183 1.69014L10.1408 9.85914V10.4225H10.7042L12.6761 12.676L15.7746 23.6619L25.0704 57.7464L28.7324 71.2675L33.2394 89.2957L36.338 102.253V103.098H33.2394L29.2958 89.859L25.0704 76.6196L22.5352 68.7323L20.2817 70.4224L16.338 73.521L16.0563 73.8027V78.8731L17.4648 82.5351L19.4366 87.8872L20.2817 90.4224L20.8451 99.1548L21.4084 101.408L22.2535 102.535V103.098L23.3803 103.662V104.225L21.6901 103.944L18.5915 102.253L18.3099 101.127L18.5915 100.845V99.1548L17.4648 96.3379L16.9014 95.2111L12.9577 99.1548L12.3944 100.563L12.1127 103.38L11.2676 103.098L10.1408 99.1548L10.4225 97.7463L12.1127 97.183L14.0845 93.521L16.0563 91.5492L16.6197 91.2675L16.0563 89.859L14.0845 87.0421L13.2394 85.6337V85.0703L11.831 84.5069L10.9859 83.0985V79.7182L9.29577 75.4929V71.2675L7.60563 70.9858L6.19718 69.2957L6.47887 67.3239L7.88732 66.4788L9.29577 66.7605L11.2676 68.1689L11.831 69.8591L12.1127 70.9858L13.8028 70.4224L17.7465 68.1689L19.7183 66.1971L20.5634 64.2253L20.2817 61.9717L13.8028 42.2535L5.35211 16.9014L0.28169 1.40845L0 0Z" fill="#334E99"/>
<path d="M54.9294 81.4082H75.211L76.9012 82.535L78.873 84.7885V92.3941L78.0279 93.8026L76.6195 94.3659H56.3378L56.9012 96.6195L57.4646 97.1828L78.5913 97.4645V102.535H55.7744L53.2392 101.408L51.2674 99.4363L50.1406 96.6195V86.7603L50.704 85.0702L52.3941 82.8167L54.9294 81.4082Z" fill="#334E99"/>
<path d="M147.044 81.4082H170.424V86.1969L167.889 86.4786H151.269V88.4504L151.833 89.0138L168.734 89.2955L170.424 90.1406L171.269 91.2673L171.551 92.1124V100.281L170.424 101.972L169.297 102.535H143.945V97.4645L144.227 97.1828L165.072 96.9011V94.6476L163.945 94.3659L147.044 94.0842L145.072 92.3941L144.79 91.8307V83.6617L146.481 81.6899L147.044 81.4082Z" fill="#334E99"/>
<path d="M86.1945 80.8452H88.7298L90.9833 81.6903L92.3917 82.817L94.9269 85.9156L98.5889 90.141L101.687 93.8029L103.378 95.7748H104.786L105.068 81.4086H110.983V99.4367L109.293 101.972L107.04 103.099H103.378L101.406 101.972L98.3072 98.31L93.2368 92.1128L90.1382 88.4508L89.0114 87.3241H88.1664L87.8847 87.8875L87.603 102.535H81.6875V85.0706L82.8143 82.817L84.5044 81.4086L86.1945 80.8452Z" fill="#334E99"/>
<path d="M114.648 81.4082H120.564L120.846 94.6476L121.691 96.0561L122.817 96.9011H133.522L135.212 95.211L135.493 81.4082H141.691V97.7462L140.282 100.281L138.31 101.972L137.184 102.535H120.282L117.747 101.408L115.775 99.4363L114.648 96.6195V81.4082Z" fill="#334E99"/>
<path d="M38.875 39.4365L40.2835 40.5633L40.5651 41.1267L42.8187 64.2252L44.2271 83.3801L44.5088 88.4505L44.7905 88.7322L48.1708 74.6477L52.6778 53.8027L53.8046 54.3661L56.0581 56.6196L54.9313 61.69L50.706 77.7463L45.6356 96.3379L45.0722 98.5914V103.098H44.5088L42.537 76.9013L40.5651 56.6196L38.875 41.1267V39.4365Z" fill="#334E99"/>
<path d="M15.7734 16.0566L17.7453 17.7468L18.872 18.8735L24.5058 42.2538L27.8861 56.0566L32.9565 78.0284L36.6185 95.4931L38.0269 103.099H37.1819L36.0551 98.5917L32.1115 80.8453L28.1678 64.789L23.0974 44.789L18.3086 26.4792L15.7734 16.62V16.0566Z" fill="#334E99"/>
<path d="M21.6875 21.9722L23.6593 23.6623L24.2227 24.2257L26.7579 35.775L30.7016 54.6482L35.772 80.0003L38.8706 97.7467L39.434 101.409V103.099H38.8706L38.0255 99.7185L35.2086 84.5073L31.5466 66.7608L26.1945 42.8172L23.096 29.0144L21.6875 23.0989V21.9722Z" fill="#334E99"/>
<path d="M26.7617 27.3242L28.7335 29.0144L29.2969 30.1411L34.649 59.7185L37.7476 78.3101L40.2828 95.7748L41.1279 103.099H40.2828L36.6209 80.0002L32.1138 55.2115L28.1702 35.2115L26.7617 28.1693V27.3242Z" fill="#334E99"/>
<path d="M31.2656 31.8311L33.2375 33.5212L34.0825 38.0282L37.4628 60.5634L39.7163 76.9014L41.6882 93.8028L42.5332 101.972V103.099H41.6882L39.4346 84.7887L36.6177 65.3521L32.3924 39.4367L31.2656 32.9578V31.8311Z" fill="#334E99"/>
<path d="M35.2109 35.7744L37.1828 37.4646L40.2814 62.8166L42.2532 81.6898L43.9433 101.972V103.098H43.0983L41.1264 82.5349L38.5912 61.4082L35.2109 36.6195V35.7744Z" fill="#334E99"/>
<path d="M99.7188 111.549H101.691L101.972 111.831L102.254 116.056L104.507 111.549H106.198L106.479 112.394L106.761 115.774L108.169 112.676V111.549H110.423L110.141 112.957L107.043 119.436L106.761 119.718H104.789L104.507 118.873L104.226 115.774L102.254 119.718H100.282L100 119.436L99.7188 111.549Z" fill="#334E99"/>
<path d="M58.3117 86.1973L72.1145 86.479L72.9596 87.0423V89.5775H56.3398V87.8874L57.4666 86.479L58.3117 86.1973Z" fill="#FDFDFD"/>
<path d="M147.889 111.549H152.114L153.523 112.957L153.241 114.647L152.678 115.492L152.959 115.774V118.028L152.114 119.436L151.551 119.718H146.48L146.762 117.183L147.889 111.549Z" fill="#334E99"/>
<path d="M137.746 111.549H140.563L141.69 112.676L141.126 114.084L140 114.366L139.718 113.239H138.591L138.873 114.647L139.718 115.774L140.281 115.211H142.253L141.971 116.338H141.126L141.408 117.746L142.535 118.028V119.436L142.253 119.718H140.281H139.718H136.056L135.211 118.591L135.493 115.774L136.619 114.366V112.676L137.746 111.549Z" fill="#334E99"/>
<path d="M26.1984 113.521H30.1421L30.7054 114.084L30.1421 117.465L29.5787 119.718H27.6068H27.0435L25.635 120L24.5083 119.436L24.2266 117.746L25.0716 116.056L26.1984 115.493H28.4519V114.648H26.1984V113.521Z" fill="#334E99"/>
<path d="M156.054 113.521H159.998L160.279 113.803V115.775L159.434 119.718H157.462H156.899L155.49 120L154.082 119.155L154.364 116.62L155.209 115.775L155.772 115.493H158.307V114.648H155.772L156.054 113.521Z" fill="#334E99"/>
<path d="M89.0161 113.239H90.9879L92.1147 113.803L92.3964 115.774L91.833 116.901L88.4527 117.183L88.171 118.31L91.5513 118.028L91.2696 119.718L90.1429 120H87.6077L86.4809 119.436L86.1992 118.873L86.4809 116.056L87.6077 113.803L89.0161 113.239Z" fill="#334E99"/>
<path d="M122.254 113.239L124.79 113.521L125.353 114.084V116.338L124.79 116.901H121.409V118.31H124.508L124.226 119.718L123.381 120H120.846L119.438 119.155V116.338L120.283 114.366L121.128 113.521L122.254 113.239Z" fill="#40599F"/>
<path d="M82.254 113.239H84.2258L85.6342 114.084V116.056L85.0709 116.901H81.6906V118.028L84.7892 118.31L84.5075 119.718L83.6624 120H80.8455L79.7188 119.155V116.338L80.5638 114.366L81.4089 113.521L82.254 113.239Z" fill="#415AA0"/>
<path d="M48.1685 113.239L50.7037 113.521L51.2671 114.084V116.056L50.7037 116.901H47.3234V118.028L50.422 118.31L50.1403 119.718L49.0135 120H46.4783L45.3516 119.155V116.338L46.1966 114.366L47.0417 113.521L48.1685 113.239Z" fill="#415AA0"/>
<path d="M15.2119 111.549H18.8738L18.5922 112.957L18.0288 113.239L15.4936 113.521V114.366L17.4654 115.211L18.0288 116.056L17.7471 118.309L16.6203 119.718H12.1133L12.395 117.746L12.9584 118.028H15.7753L15.4936 116.619L13.8034 115.774L13.5217 115.492V113.239L14.3668 111.831L15.2119 111.549Z" fill="#334E99"/>
<path d="M70.4189 111.549H74.0809L73.7992 112.957L73.2358 113.239H70.7006L70.4189 114.366L72.9541 115.211L73.2358 115.774V117.746L72.3907 119.436L71.8274 119.718H67.602L67.3203 118.591L67.602 118.028H70.9823V116.619L69.0105 115.774L68.7288 115.211L69.0105 112.676L69.8555 111.831L70.4189 111.549Z" fill="#334E99"/>
<path d="M38.8738 113.239L40.8456 113.521L41.409 114.648L40.2822 119.718H38.3104L38.8738 116.338V114.929L37.747 115.211L36.902 119.436V119.718H34.9301L34.6484 119.155L35.7752 113.521H37.747H38.3104L38.8738 113.239Z" fill="#334E99"/>
<path d="M59.9992 113.521H63.3795L63.0978 114.648L60.8442 114.929L60.5626 115.493L62.2527 115.775L63.3795 116.62V118.31L62.8161 119.436L62.2527 119.718H58.309L58.0273 118.873L58.309 118.31H61.4076L61.1259 117.465L59.1541 116.62L58.8724 116.338L59.1541 114.366L59.9992 113.521Z" fill="#334E99"/>
<path d="M53.5183 113.521H57.1802L56.8985 114.648L54.645 114.929L54.3633 115.493L55.7718 115.775L57.1802 116.62L56.8985 118.873L56.0535 119.718H52.1098L51.8281 118.591L52.1098 118.31H55.2084L54.9267 117.465L52.9549 116.62L52.6732 116.338L52.9549 114.084L53.5183 113.521Z" fill="#334E99"/>
<path d="M167.886 113.521H171.548L170.984 114.648L168.731 114.929L168.449 115.493L170.139 115.775L171.266 116.62V118.31L170.703 119.436L170.139 119.718H166.196L165.914 118.873L166.477 118.028H169.294L169.013 117.465L167.041 116.62L166.759 115.493L167.323 113.803L167.886 113.521Z" fill="#334E99"/>
<path d="M127.886 113.521H131.548L130.984 114.648L128.731 114.929L128.449 115.493L130.139 115.775L131.266 116.62L130.984 118.873L130.139 119.718H126.196L125.914 118.591L126.477 118.028H129.294L129.013 117.465L127.041 116.62L126.759 115.211L127.323 113.803L127.886 113.521Z" fill="#334E99"/>
<path d="M21.9692 112.112H22.5326V113.521H23.9411L23.6594 114.648L22.2509 114.929L21.4059 118.309L23.096 118.028L22.8143 119.718H19.434L19.1523 118.591L19.9974 114.929L19.7157 113.802L21.4059 112.957L21.9692 112.112Z" fill="#334E99"/>
<path d="M77.1836 112.112L78.0287 112.394L77.747 113.521H79.1555L78.8738 114.648L77.4653 114.929L76.902 118.028H78.5921L78.0287 119.718H74.9301L74.6484 119.436L74.9301 116.338L75.4935 114.648H74.9301L75.2118 113.521L76.6203 112.957L77.1836 112.112Z" fill="#334E99"/>
<path d="M94.3655 111.549H96.3373L96.0556 114.084L94.9289 119.436V119.718H92.957L93.2387 116.901L94.0838 113.521L94.3655 111.549Z" fill="#334E99"/>
<path d="M43.0999 111.549H45.0717L45.3534 112.676L43.6632 119.718H41.6914L42.2548 116.619L43.0999 112.957V111.549Z" fill="#334E99"/>
<path d="M164.51 113.239H166.481L166.2 114.648L163.665 114.929L163.101 118.31L162.819 119.718H160.848L161.129 117.465L161.974 113.521H164.228L164.51 113.239Z" fill="#334E99"/>
<path d="M118.03 113.239H119.72L119.438 114.648L117.466 114.929L116.621 117.465L116.339 119.718H114.086L115.213 113.521H117.466L118.03 113.239Z" fill="#334E99"/>
<path d="M111.83 113.521H113.802L112.957 117.746L112.675 119.718H110.703L110.985 116.901L111.83 113.521Z" fill="#334E99"/>
<path d="M32.3924 113.521H34.3642L33.2375 119.436V119.718H31.2656L31.5473 116.901L32.3924 113.521Z" fill="#334E99"/>
<path d="M149.298 116.056H150.988V117.746L150.143 118.309H148.734L149.016 116.337L149.298 116.056Z" fill="#FDFDFD"/>
<path d="M137.466 116.056H138.029L139.156 118.027L138.874 118.309H137.184L136.902 116.901L137.466 116.056Z" fill="#FDFDFD"/>
<path d="M149.86 112.958H151.268L151.55 114.366L151.268 114.648H149.578L149.86 112.958Z" fill="#FDFDFD"/>
<path d="M112.109 111.549H114.081L114.363 112.394L114.081 112.957H112.109V111.549Z" fill="#334E99"/>
<path d="M32.6758 111.549H34.6476L34.9293 112.112L34.6476 112.957H32.6758V111.549Z" fill="#334E99"/>
<path d="M156.336 116.901H158.027L157.463 118.592L156.055 118.31L156.336 116.901Z" fill="#FDFDFD"/>
<path d="M21.4063 66.1973H21.9697L21.4063 67.6057L19.4345 69.2959L18.8711 69.0142L21.4063 66.1973Z" fill="#FDFDFD"/>
<path d="M26.7626 116.901H28.171L27.8894 118.31H26.4809L26.1992 117.746L26.7626 116.901Z" fill="#FDFDFD"/>
<path d="M89.0161 114.648H90.7062L90.4245 115.775H88.7344L89.0161 114.648Z" fill="#FDFDFD"/>
<path d="M122.254 114.648H123.944L123.663 115.775H121.973L122.254 114.648Z" fill="#FDFDFD"/>
<path d="M82.2504 114.648H83.9406L83.6589 115.775H81.9688L82.2504 114.648Z" fill="#FDFDFD"/>
<path d="M48.1684 114.648H49.8585L49.5769 115.775H47.8867L48.1684 114.648Z" fill="#FDFDFD"/>
</svg>
