<svg width="300" height="85" viewBox="0 0 300 85" fill="none" xmlns="http://www.w3.org/2000/svg">
<path d="M260.783 7.38525H262.311L263.33 8.14926L264.349 12.4786L266.132 21.1374L267.15 23.4295L267.66 23.1748L268.933 17.572L270.461 9.42261L271.225 7.89459L272.244 7.38525H273.772L275.3 9.16794L275.045 10.9506L274.281 12.988L274.026 14.516L273.772 21.1374L274.026 36.1629L274.536 39.219L275.3 41.2563L275.045 42.7844L273.772 43.803H270.716L269.697 43.2937L269.442 42.7844V40.4923L269.952 38.455V27.2495H268.933L268.169 30.3055L266.386 40.747L265.877 41.7657L264.603 35.3989L263.33 27.2495V26.2308H261.802L262.057 28.0135V38.7096L262.821 41.0017V42.7844L261.802 43.803H260.019L259.001 43.2937L258.746 42.7844V40.747L259.51 39.7283L260.019 30.3055L260.274 19.1001L260.019 13.4973L258.746 10.696V8.91327L260.019 7.63992L260.783 7.38525Z" fill="#DA741F"/>
<path d="M249.321 7.64014H251.613L253.141 8.65882L254.414 10.6962L254.923 13.2429V19.6096L254.159 22.6657L253.395 23.939V26.231L254.923 28.7777L255.433 31.3244L255.942 37.1818L256.451 39.2192L257.215 40.2379V42.7846L255.942 44.0579L255.433 44.3126H253.905L252.631 43.0392L251.867 40.2379L250.594 30.3057L249.575 28.0137H248.557L248.047 29.5417V36.6725L248.557 39.2192L249.066 40.4925V42.5299L247.793 43.8032H244.737L243.209 42.5299L242.699 41.0019L243.718 38.2005L243.973 35.9085V13.7522L243.463 11.9695L242.699 10.1868L242.954 8.40415L243.463 7.89481H248.302L249.321 7.64014Z" fill="#DA741F"/>
<path d="M167.829 7.64014L169.611 7.89481H171.649L172.668 7.64014H175.214L176.997 9.16816L178.016 11.4602L178.525 14.2616V17.5723L178.016 21.1376L176.742 24.703L176.997 26.7404L178.016 28.0137L178.525 29.5417L179.544 37.6912L180.053 39.2192L180.817 41.2565L180.562 42.7846L179.544 44.0579L179.034 44.3126H177.506L176.233 43.2939L175.469 40.2379L174.196 30.3057L173.432 28.2684L172.413 27.7591L171.649 28.5231L171.394 29.2871V36.1632L171.904 38.9645L172.668 40.4925V42.5299L171.14 43.8032H168.083L166.81 42.7846L166.301 41.7659L166.555 39.7285L167.319 37.6912L167.574 33.6165V15.7896L167.065 12.2242L166.301 10.1868L166.555 8.40415L167.829 7.64014Z" fill="#DA741F"/>
<path d="M102.376 7.13086H102.885L103.394 9.42289L103.649 12.9883V15.535L102.885 15.2803L101.357 12.4789L99.8291 11.4602H98.3011L97.0278 12.7336L96.7731 14.0069V20.6284L97.2824 22.9204L97.5371 23.1751H98.8104L99.3198 22.411L99.8291 19.355L100.593 18.591L100.848 19.355V28.5231L100.593 31.3245L99.5745 28.7778L98.8104 27.2498L97.7918 26.9951L97.0278 28.5231V36.9272L97.7918 39.2193L98.0464 39.4739H100.593L101.866 38.2006L102.885 36.1632L103.649 33.1072L104.668 32.5978L104.413 37.9459L103.394 43.5486L102.63 43.8033L100.848 43.5486L92.189 43.294L91.9344 43.0393V41.2566L92.6984 39.4739L93.2077 35.9085V18.8457L92.953 14.0069L92.4437 11.7149L91.6797 9.67756L91.9344 8.14954L98.8104 7.89487L101.102 7.6402L102.376 7.13086Z" fill="#DA741F"/>
<path d="M121.731 7.38525H123.768L125.042 8.14926L125.551 8.91327V10.9506L124.532 12.988L124.278 14.2613V20.6281L124.787 21.9014L125.042 22.1561H127.843L128.352 21.6468V13.4973L127.334 10.1866L127.588 8.6586L128.862 7.63992L129.626 7.38525H131.918L133.446 8.40393L133.955 9.67728L133.446 11.9693L132.682 13.4973L132.427 16.2987V35.9083L132.937 38.455L133.701 40.4923V42.0203L133.191 43.039L131.663 43.803H129.116L127.843 42.7844L127.334 41.7657L127.588 39.983L128.098 38.7096L128.352 37.1816V27.7588L127.588 27.2495L125.296 27.5042L124.278 28.5228V36.9269L125.296 40.2377V41.7657L124.278 43.2937L123.514 43.803H120.712L119.439 42.7844L118.93 40.747L119.694 38.9643L120.203 37.1816L120.458 32.3429V25.2121L120.203 14.0067L119.184 11.46V9.67728L119.948 8.40393L121.731 7.38525Z" fill="#DA741F"/>
<path d="M212.395 7.38525H214.432L215.706 8.14926L216.215 8.91327V10.9506L215.196 13.2427L214.942 14.2613V20.6281L215.706 22.1561H218.507L219.271 21.1374V14.516L218.762 12.4786L217.998 10.696L218.253 8.91327L219.526 7.63992L220.29 7.38525H222.327L223.601 8.14926L224.619 9.42261V10.9506L223.346 13.2427L223.091 19.3547V36.4176L223.601 38.7096L224.365 40.4923L224.11 42.275L223.091 43.5484L222.582 43.803H219.781L218.507 42.7844L217.998 41.7657L218.253 39.983L219.017 37.691L219.271 35.1443V28.5228L218.507 27.2495H216.725L215.451 27.7588L214.687 30.0509L214.942 36.9269L216.215 40.747L215.96 42.0203L214.687 43.5484L214.178 43.803H211.631L210.358 43.039L209.594 41.7657V40.2377L210.612 37.9456L210.867 35.3989L211.122 27.7588V23.9388L210.867 13.752L209.848 10.9506L210.103 9.16794L211.376 7.89459L212.395 7.38525Z" fill="#DA741F"/>
<path d="M42.782 47.8779H299.744L299.998 49.1513H42.5273L42.782 47.8779Z" fill="#020106"/>
<path d="M203.226 7.64014L204.754 7.89481L206.027 8.91349L207.046 10.9508L207.81 14.2616L208.065 17.3176V20.3736L207.555 24.4483L206.537 27.5044L205.009 29.2871L203.99 29.7964L201.443 29.5417L201.189 30.5604V37.4365L201.953 39.7285L202.462 40.4925V42.0206L201.189 43.5486L200.679 43.8032H197.878L196.605 43.0392L196.095 42.0206V40.4925L197.114 38.9645V12.9882L195.586 10.1868V8.91349L196.095 8.40415L200.425 8.14948L203.226 7.64014Z" fill="#DA741F"/>
<path d="M232.513 7.13086L233.531 7.38553L234.55 8.65888L235.824 13.4976L238.116 25.9764L240.153 37.6912L241.172 39.9833L241.681 41.0019V42.2753L239.898 43.8033H236.078L234.805 43.0393L234.55 42.7846V40.4926L235.314 39.2193L235.569 37.1819L235.059 35.1445L233.531 34.6352H231.239L229.966 35.3992L229.457 36.6726V38.9646L230.73 41.0019L230.475 42.7846L229.457 43.8033H226.91L225.637 42.53L225.891 40.7473L227.165 38.4552L228.183 33.3618L229.202 27.2498L230.221 20.3737L230.73 16.299L230.985 9.42289L231.749 7.6402L232.513 7.13086Z" fill="#DA741F"/>
<path d="M283.192 7.13086L284.466 7.38553L285.485 9.42289L287.013 16.0443L289.559 30.5605L291.087 38.4552L291.597 39.7286L292.361 40.2379V42.2753L291.087 43.5486L290.578 43.8033H286.758L285.485 43.0393L285.23 42.53V40.7473L286.249 38.2006L285.994 36.1632L284.721 34.8899L283.956 34.6352H281.919L280.646 35.3992L280.136 36.9272V38.7099L280.9 40.2379L281.41 41.0019L281.155 42.7846L280.136 43.8033H277.59L276.316 42.53V41.0019L277.59 39.2193L278.354 36.1632L279.882 26.9951L280.391 22.9204L281.155 19.1003L281.664 12.4789L281.919 8.65888L283.192 7.13086Z" fill="#DA741F"/>
<path d="M156.114 7.13086L157.133 7.38553L157.897 8.40421L159.17 13.2429L161.717 26.9951L163.5 36.9272L164.264 39.2193L165.282 41.0019L165.028 42.53L163.754 43.5486L163.245 43.8033H159.425L158.152 43.0393L157.897 42.53V40.7473L158.916 38.9646V36.4179L158.152 35.1445L156.624 34.6352H154.841L153.568 35.1445L153.058 36.6726V39.2193L154.332 41.0019L154.077 42.7846L153.058 43.8033H150.257L149.238 42.7846V41.0019L150.766 37.9459L152.04 31.5792L154.077 18.0817L154.586 9.67756L155.35 7.6402L156.114 7.13086Z" fill="#DA741F"/>
<path d="M110.781 7.13086L112.309 7.38553L114.092 8.40421H115.62L116.384 9.93223L116.893 12.4789V18.0817L115.874 17.5723L113.837 13.4976L112.564 12.4789L111.545 12.2243L110.781 14.5163V17.5723L112.054 19.6097L115.365 22.9204L116.384 24.9577L116.893 27.2498L117.148 29.5418V35.1445L116.129 39.7286L115.11 41.7659L113.582 43.5486L112.309 44.058H110.526L107.98 42.7846L106.961 41.2566L106.197 37.9459L105.688 34.3805V31.5792L105.942 31.0698H106.706L107.98 36.1632L109.508 38.4552L111.036 38.9646L112.054 38.4552L112.818 36.9272V34.1259L112.054 32.5978L109.762 30.0511L107.98 27.2498L106.961 24.4484L106.452 22.1564V15.535L107.216 11.9696L108.998 8.40421L110.781 7.13086Z" fill="#DA7420"/>
<path d="M53.9918 7.13086L55.5199 7.38553L57.3025 8.40421L59.0852 8.91355L59.8492 11.9696L60.1039 17.063L59.8492 18.0817H59.3399L57.3025 13.7523L56.0292 12.4789L54.7558 12.7336L53.9918 14.2616V17.5723L55.2652 19.6097L58.0665 22.411L59.3399 24.7031L60.1039 28.2684L60.3586 30.8151V33.1072L59.5946 38.4552L58.3212 41.7659L57.3025 43.0393L55.2652 44.058L52.9732 43.8033L50.6811 42.2753L49.6624 40.2379L48.8984 34.3805V31.0698H49.6624L51.1905 36.4179L52.2091 37.9459V38.4552L54.2465 38.9646L55.5199 37.6912L56.0292 36.4179V34.6352L55.2652 32.8525L53.4825 30.5605L51.6998 28.5231L50.4265 25.7218L49.4078 21.1377V15.535L50.4265 11.7149L51.9545 8.65888L53.4825 7.38553L53.9918 7.13086Z" fill="#DA741F"/>
<path d="M64.4287 7.38525H66.2114L67.9941 8.14926L68.7581 9.16794V10.9506L67.4848 13.4973L67.2301 28.5228L67.7395 33.6162L68.7581 36.4176L69.7768 37.4363L71.0502 37.691L72.5782 36.4176L73.3422 34.8896L73.5969 33.6162V12.4786L72.3235 10.1866L72.5782 8.40393L73.8515 7.38525H75.6342L77.1622 8.40393L77.4169 9.93195L76.1436 12.4786L75.8889 28.7775L75.6342 34.8896L75.1249 38.2003L73.8515 41.2563L71.8142 43.5484L70.5408 44.0577H68.7581L66.7208 43.039L65.1928 41.0017L64.1741 38.7096L63.6647 35.9083L63.4101 33.1069L63.1554 13.752L62.1367 10.9506V8.91327L63.6647 7.63992L64.4287 7.38525Z" fill="#DA741F"/>
<path d="M137.523 7.38525H139.561L141.598 8.40393L142.107 9.16794L141.853 10.9506L141.343 12.4786V16.044L142.871 24.1935L143.126 24.9575L144.145 25.2121L145.418 19.6094L146.182 15.28V11.9693L145.418 10.1866L145.673 8.40393L146.437 7.63992L147.201 7.38525H148.983L150.257 8.14926L150.766 9.16794L150.511 10.4413L149.238 11.7146L148.219 15.7894L144.654 34.6349L142.871 43.803H141.598L140.834 39.7283L138.797 27.2495L136.759 15.0253L135.741 12.4786L134.977 11.46L135.231 9.16794L136.505 7.89459L137.523 7.38525Z" fill="#DA741F"/>
<path d="M81.4928 7.38525H83.2755L85.3128 8.14926L86.0768 9.16794V10.4413L84.5488 13.4973V35.3989L85.0582 37.9456L85.8222 38.9643H87.3502L88.8782 36.9269L89.6422 32.5976H90.4062V39.219L89.6422 43.5484L88.8782 43.803L87.0955 43.5484L79.4554 43.2937L78.9461 42.7844L79.2007 41.2563L80.2194 38.9643L80.4741 36.6723V20.1187L80.2194 13.2427L78.6914 10.696L78.9461 9.16794L80.2194 7.89459L81.4928 7.38525Z" fill="#DA741F"/>
<path d="M184.891 7.38525H186.929L188.711 8.40393L189.221 9.16794L188.966 10.9506L187.947 12.988L187.693 14.2613V34.3803L187.947 37.4363L189.221 39.983V41.7657L187.947 43.2937L186.929 43.803H183.873L182.854 43.2937L182.345 42.275L182.599 39.983L183.363 37.9456L183.618 34.1256V17.3174L183.109 13.2427L182.09 10.696V9.42261L183.363 8.14926L184.891 7.38525Z" fill="#DA741F"/>
<g clip-path="url(#clip0_2239_152)">
<path d="M156.562 20.1187L157.581 20.3733L158.345 22.4107L159.109 25.976V29.2868L158.345 29.7961H156.308L155.289 29.2868L155.544 25.7214L156.562 20.1187Z" fill="#F6F5F4"/>
<path d="M157.327 22.9131H157.581L158.091 27.2425L157.072 27.4971L156.562 27.2425L157.072 23.4224L157.327 22.9131Z" fill="#D9721D"/>
</g>
<g clip-path="url(#clip1_2239_152)">
<path d="M283.418 20.1187L284.437 20.3733L285.201 22.4107L285.965 25.976V29.2868L285.201 29.7961H283.163L282.145 29.2868L282.399 25.7214L283.418 20.1187Z" fill="#F6F5F4"/>
<path d="M284.182 22.9131H284.437L284.946 27.2425L283.927 27.4971L283.418 27.2425L283.927 23.4224L284.182 22.9131Z" fill="#D9721D"/>
</g>
<g clip-path="url(#clip2_2239_152)">
<path d="M232.918 20.1187L233.937 20.3733L234.701 22.4107L235.465 25.976V29.2868L234.701 29.7961H232.663L231.645 29.2868L231.899 25.7214L232.918 20.1187Z" fill="#F6F5F4"/>
<path d="M233.682 22.9131H233.937L234.446 27.2425L233.427 27.4971L232.918 27.2425L233.427 23.4224L233.682 22.9131Z" fill="#D9721D"/>
</g>
<path d="M200.955 12.813L202.229 13.0677L203.247 14.341L203.757 15.3597L204.011 17.1424V22.9998L203.247 25.2918L201.974 26.5652L200.446 26.0558L200.191 24.7825V14.0863L200.955 12.813Z" fill="#F7F6F5"/>
<path d="M201.066 14.7197L202.34 14.9744L202.849 16.5024V23.1238L202.085 24.9065L201.066 24.6518V23.8878V17.5211V14.7197Z" fill="#DA741F"/>
<path d="M171.463 11.1973L172.737 11.4519L173.755 12.7253L174.265 13.744L174.519 15.5267V21.3841L173.755 23.6761L172.482 24.9494L170.954 24.4401L170.699 23.1667V12.4706L171.463 11.1973Z" fill="#F7F6F5"/>
<path d="M171.574 13.1035L172.848 13.3582L173.357 14.8862V21.5076L172.593 23.2903L171.574 23.0356V22.2716V15.9049V13.1035Z" fill="#DA741F"/>
<path d="M247.823 11.6011L249.096 11.8557L250.115 13.1291L250.624 14.1478L250.879 15.9305V21.7879L250.115 24.0799L248.841 25.3532L247.313 24.8439L247.059 23.5706V12.8744L247.823 11.6011Z" fill="#F7F6F5"/>
<path d="M247.93 13.5073L249.203 13.762L249.712 15.29V21.9114L248.948 23.6941L247.93 23.4394V22.6754V16.3087V13.5073Z" fill="#DA741F"/>
<path d="M20.8829 0H25.467L28.523 1.52802L30.3057 3.05604L32.5977 6.11207L34.6351 9.93212L36.4178 14.7708L37.9458 21.6469L38.7098 28.2683L38.9645 33.3617V39.2191L38.4551 45.3312L37.1818 52.7166L35.6538 59.0834L33.1071 66.4688L30.3057 72.3262L27.2497 77.1649L25.2123 79.7116L23.1749 81.749L20.6283 83.5317L18.0816 84.5504L17.0629 84.805H14.7708L12.2241 84.041L9.42278 82.2583L7.38542 79.9663L5.60273 77.1649L3.56538 72.8355L2.03736 68.2515L0.764009 61.6301L0 55.0087V44.5672L0.764009 37.4365L2.29203 29.287L4.58406 21.3923L6.62141 16.0442L9.42278 10.4415L11.4601 7.38542L13.4975 4.83873L15.5349 2.80137L18.0816 1.01868L20.8829 0Z" fill="#DA741F"/>
<path d="M21.9017 2.29199L25.9764 2.54666L25.7217 3.31067L23.4297 4.58402L21.3923 6.62138L19.6097 9.42275L16.299 15.7895L14.5163 21.9016L13.7523 27.759V35.6537L14.7709 45.0765L15.2803 51.9526V56.282L14.7709 61.3754L13.4976 67.2328L12.2242 70.5435L10.6962 72.5809L8.65886 74.3635L7.13084 75.1275H6.36683L4.58414 71.5622L3.3108 67.7421L2.03745 61.3754L1.52811 57.3007L1.27344 52.9713V47.3685L1.78278 40.4925L3.05613 32.343L4.58414 25.9763L6.87617 19.1002L9.1682 14.0068L11.4602 10.1868L13.4976 7.64006L16.299 4.83869L18.591 3.31067L21.9017 2.29199Z" fill="#FCFCFB"/>
<path d="M28.7775 4.58398L30.3055 5.85733L32.5975 9.16804L34.6349 13.7521L36.1629 19.3548L36.9269 23.9389L37.1816 26.7403V41.2564L36.6722 46.3498L35.3989 53.9899L33.6162 60.866L31.5788 66.2141L28.7775 72.0715L25.7214 76.4009L22.92 79.2022L19.864 81.2396L18.336 81.7489L15.5346 82.0036L12.7333 81.4942L10.4412 80.2209L7.89453 77.6742L8.65854 77.4195H12.4786L15.5346 75.8915L17.3173 74.1088L19.3547 70.7981L21.9014 65.4501L23.1747 60.866L23.4294 61.63L30.8148 61.3753L31.0695 60.866L29.5415 60.6113L29.0321 60.102L28.7775 48.1325L29.0321 47.8778L31.8335 47.6232L33.3615 46.8592L34.3802 45.5858L35.3989 43.2938L35.6535 42.2751V37.1817L34.6349 34.3803L33.3615 32.8523L31.5788 32.0883L29.7961 31.8336L23.4294 31.579L24.4481 32.5977L25.4667 33.3617V60.102L24.1934 60.6113L23.4294 60.3567L23.9387 55.5179L24.1934 50.6792L24.4481 49.6605L24.7027 49.4059H24.4481L24.1934 46.3498V44.5671H23.9387L22.92 36.163L22.156 30.815L21.9014 28.5229L21.6467 21.1375L22.156 16.5535L23.1747 12.7334L25.2121 8.6587L27.5041 6.112L28.7775 4.58398Z" fill="#BCB9B6"/>
<path d="M23.4297 31.5791H29.7964L32.3431 32.0884L33.8711 33.1071L34.8898 34.3805L35.9085 37.1818V42.2752L34.8898 45.0766L33.8711 46.6046L32.5978 47.6233L31.8338 47.878L29.0324 48.1326L29.2871 60.1021L31.0698 60.8661L30.8151 61.6301H23.4297V60.6115L25.2124 60.1021V33.3618L23.4297 32.0884V31.5791Z" fill="#1B0E48"/>
<path d="M28.7792 4.58398L30.3072 5.85733L32.5992 9.16804L33.3632 10.9507H32.8539L32.5992 12.7334L30.3072 14.0068L29.2885 15.2801L28.2699 17.5721L27.5058 21.6469L27.2512 23.9389L26.9965 30.3056L25.9778 31.3243V31.579H23.4311L24.4498 32.5977L25.4685 33.3617V60.102L24.1951 60.6113L23.4311 60.3567L23.9405 55.5179L24.1951 50.6792L24.4498 49.6605L24.7045 49.4059H24.4498L24.1951 46.3498V44.5671H23.9405L22.9218 36.163L22.1578 30.815L21.9031 28.5229L21.6484 21.1375L22.1578 16.5535L23.1765 12.7334L25.2138 8.6587L27.5058 6.112L28.7792 4.58398Z" fill="#BDBAB7"/>
<path d="M32.8541 10.9507L33.6181 11.2054L35.1461 15.2801L36.4195 20.6281L37.1835 26.7402V41.2564L36.1648 43.5484H35.9101L35.6555 37.1817L34.6368 34.3803L33.3634 32.8523L31.5807 32.0883L24.1953 31.3243V31.0696L26.4873 30.5603L26.742 30.3056L26.9967 23.9388L27.7607 18.5908L28.7794 15.7894L29.798 14.2614L31.0714 13.2427L32.5994 12.7334L32.8541 10.9507Z" fill="#FBFBFB"/>
<path d="M21.9019 2.29199L25.9766 2.54666L25.7219 3.31067L23.4299 4.58402L21.3925 6.62138L19.6098 9.42275L16.2991 15.7895L14.5164 21.9016L14.0071 25.2123H13.7524L13.4978 23.9389L12.7338 24.4483H11.7151L11.2057 25.9763L9.93239 27.2496L8.91371 29.5417L8.65904 28.523L9.67772 24.9576L10.4417 23.9389L11.4604 23.6843L11.9697 22.9202L11.2057 22.1562H9.67772L8.65904 23.1749L7.38569 26.4856L6.62168 28.7776L6.11234 31.0697L5.603 32.0884L5.34833 34.1257H4.83899L4.07498 36.1631L3.82031 35.1444L5.09366 28.7776L5.85767 25.7216L6.62168 23.4296L7.64036 20.6282L7.89503 18.0815L7.38569 18.3362L7.89503 16.8082L9.93239 12.7335L12.2244 9.16808L14.5164 6.62138L16.2991 4.83869L18.5912 3.31067L21.9019 2.29199Z" fill="#F7EFEA"/>
<path d="M21.8993 2.29199L25.974 2.54666L25.7193 3.31067L23.4273 4.58402L21.3899 6.62138L19.6072 9.42275L16.2965 15.7895L15.7872 17.3175L15.2778 17.0628L14.5138 17.8268L12.9858 17.5722L12.7311 16.5535L12.9858 16.2988L12.4765 14.7708L11.9671 14.5161L11.7125 15.2801L11.2031 15.0255L11.4578 12.9881L12.9858 10.1868L15.2778 7.13072L15.5325 6.62138L15.0232 6.11204L17.3152 4.07468L19.8619 2.80133L21.8993 2.29199Z" fill="#FCEFE0"/>
<path d="M21.9031 18.0815H22.1578L23.4311 26.995V30.5604L23.1765 31.3244H25.9778V31.579H23.4311L24.4498 32.5977L25.4685 33.3617V60.1021L24.1951 60.6114L23.4311 60.3567L23.9405 55.518L24.1951 50.6793L24.4498 49.6606L24.7045 49.4059H24.4498L24.1951 46.3499V44.5672H23.9405L22.9218 36.1631L22.1578 30.815L21.9031 28.523L21.6484 21.1376L21.9031 18.0815Z" fill="#A29F9C"/>
<path d="M3.56479 53.2256L4.07413 54.2443V56.791L3.56479 58.0643V60.8657H4.58347L5.85682 65.9591L7.38484 69.0151L8.14885 69.5245V69.0151H7.63951L6.11149 65.9591L5.60215 63.667L6.36616 61.8844H6.62083L6.8755 65.1951L8.14885 68.2511L8.65819 68.7604V69.5245L10.1862 70.0338L10.6955 70.2885L10.9502 71.5618L11.4596 71.8165L9.16753 74.1085L7.13017 75.1272H6.36616L4.58347 71.5618L3.31012 67.7418L2.80078 65.4497L3.05545 64.4311L3.31012 64.1764L3.05545 62.903L2.80078 57.8096L3.31012 53.9896L3.56479 53.2256Z" fill="#F7EFEA"/>
<path d="M23.1729 60.8657L23.4275 61.6297H26.7382L25.7196 62.1391L26.4836 62.3937L26.7382 63.6671L26.2289 64.6858H25.7196L25.4649 65.7044L23.9369 68.2511L21.8995 72.3259L20.3715 74.6179L18.8435 76.4006L17.3155 77.1646H16.0421L15.0234 76.1459L17.0608 74.3632L19.3528 70.7978L21.8995 65.4498L23.1729 60.8657Z" fill="#A29F9C"/>
<path d="M28.7773 33.1069L30.3054 33.3616L31.5787 34.635L32.0881 35.6536L32.3427 37.4363V42.5297L31.5787 45.0764L30.56 46.0951L29.032 46.3498L28.7773 45.5858V33.1069Z" fill="#B8B5B2"/>
<path d="M30.5603 66.4688H30.8149V67.9968L28.2682 72.8355L25.7215 76.4009L22.9202 79.2022L21.3922 80.2209L20.8828 79.9662L22.9202 78.1836L24.7029 74.6182V73.8542L24.4482 73.3448L26.4855 69.0154L27.5042 67.4874L28.7776 66.7234L28.2682 67.9968L27.7589 68.7608L29.0322 67.7421H29.5416L29.7963 66.9781L30.5603 66.4688Z" fill="#F5ECE6"/>
<path d="M20.8823 4.07471L21.901 4.58405L21.6463 6.36673L20.6276 7.64008L17.0622 10.4415L16.5529 10.6961L15.5342 14.0068L14.0062 15.0255V14.0068L13.2422 14.2615L13.4969 12.2241L13.7515 10.4415L15.0249 8.65876L15.7889 7.38541L17.0622 6.6214L17.8262 6.87607L19.0996 5.34806L20.3729 4.32938L20.8823 4.07471Z" fill="#F7EFEA"/>
<path d="M32.0885 9.42236L32.8526 9.67703L33.3619 10.9504H32.8526L32.5979 12.7331L30.3059 14.0064L29.2872 15.2798L28.2685 17.5718L27.5045 21.6465L27.2498 23.9385L26.9952 30.3053L25.9765 31.0693H24.7031L25.7218 29.7959L25.9765 21.6465L26.9952 16.5531L28.5232 13.2424L31.0699 11.2051L32.0885 10.6957L32.3432 11.2051V9.9317L32.0885 9.42236Z" fill="#D7D6D5"/>
<path d="M18.0828 1.01855L18.5921 1.27322L16.3001 3.05591L15.5361 4.07459V5.85728L12.9894 8.40398L10.4427 12.224L8.40531 16.2987L7.38663 17.5721L6.36795 19.3548L6.11328 18.5908L7.13196 15.0254L10.188 9.16799L13.244 5.09327L15.5361 2.80124L18.0828 1.01855Z" fill="#D36B17"/>
<path d="M25.2124 33.3613H25.467V60.1017L24.1937 60.611L23.4297 60.3563L23.939 55.5176L24.1937 50.6789L24.4484 49.6602H24.9577V44.5668L25.2124 33.3613Z" fill="#A29F9C"/>
<path d="M32.0882 6.1123H32.5976L34.6349 9.93235L36.4176 14.7711L37.1816 17.8271L36.927 19.8645L35.9083 19.3551L34.3803 13.7524L32.3429 9.16834L31.3242 7.64032L31.5789 6.62164L32.0882 6.1123Z" fill="#D26B17"/>
<path d="M13.4952 25.4668H13.7499V35.6536L14.7686 45.0764L15.2779 51.9525V56.2818H15.0233L14.5139 48.6417V46.6044L13.4952 46.095V45.331L13.7499 45.5857L13.4952 44.3124L12.9859 43.2937L12.7312 40.4923L12.4766 40.2376V38.455L12.7312 37.4363L12.9859 34.8896V29.2868L13.4952 25.4668Z" fill="#F4ECE4"/>
<path d="M23.6836 32.5977L24.9569 32.8523L25.2116 33.107V44.5671L24.9569 49.1512L24.4476 49.4059L24.1929 46.3498V38.7097L23.6836 35.399V32.5977Z" fill="#BCB9B6"/>
<path d="M36.9265 26.7402H37.1811V41.2564L36.1624 43.5484H35.9078L35.6531 37.1817L35.3984 35.399L35.6531 34.3803L35.9078 33.107L36.6718 32.8523L36.9265 26.7402Z" fill="#F0E8E0"/>
<path d="M30.5613 66.4688L30.816 67.4874L30.052 67.7421L28.2693 69.7795L26.7412 72.3262L25.2132 75.3822L24.4492 75.8915L24.7039 74.6182V73.8542L24.4492 73.3448L26.4866 69.0154L27.5053 67.4874L28.7786 66.7234L28.2693 67.9968L27.7599 68.7608L29.0333 67.7421H29.5426L29.7973 66.9781L30.5613 66.4688Z" fill="#D5D5D4"/>
<path d="M4.58594 70.7983L4.84061 71.3077L6.87797 71.053L8.91532 71.817L9.42466 73.5997L8.66065 74.3637L7.13264 75.1277H6.36863L4.58594 71.5623V70.7983Z" fill="#FBEEDF"/>
<path d="M29.0312 33.3613L30.8139 33.616L32.0873 35.6534V41.5108H31.8326L30.8139 37.436L30.0499 36.4174L29.2859 36.1627L29.0312 36.672V33.3613Z" fill="#D4D4D3"/>
<path d="M12.989 40.2378H13.4984V42.0205L13.7531 43.0392L14.0077 41.0018H14.2624L15.0264 47.3685L15.2811 51.9526V56.282H15.0264L14.5171 48.6419V46.6045L13.4984 46.0952V45.3312L13.7531 45.5859L13.4984 44.3125L12.989 43.2938L12.7344 40.7471L12.989 40.2378Z" fill="#ECE4DE"/>
<path d="M10.696 17.0625L11.7147 17.3172L12.224 18.5905L11.7147 19.3545V20.1185L10.696 21.1372H9.42264L9.16797 19.6092L9.42264 19.0999L10.696 18.8452L10.4413 18.0812L10.696 17.0625Z" fill="#FDFDFD"/>
<path d="M29.0312 33.3613L30.8139 33.616L31.8326 35.144V37.1814L31.3233 36.1627L29.7953 34.8893L29.0312 34.6347V33.3613Z" fill="#EFEFEF"/>
<path d="M3.56479 53.2256L4.07413 54.2443V56.791L3.56479 58.0643V61.1203H3.05545L2.80078 57.8096L3.31012 53.9896L3.56479 53.2256Z" fill="#F8F0EB"/>
<path d="M35.6531 33.3613L36.1624 34.1253L36.6718 36.672V38.2001L36.4171 38.4547L36.1624 42.0201H35.9078L35.6531 37.1814L35.3984 35.3987L35.6531 34.38V33.3613Z" fill="#D9D5D2"/>
<path d="M11.9679 14.5161L12.7319 14.7708L13.2412 16.5535H12.7319V17.3175L11.4586 16.8081L10.9492 15.5348L11.4586 15.0255L11.9679 14.5161Z" fill="#FDFDFD"/>
<path d="M10.4428 12.2241L10.6974 12.7335L9.93342 14.2615H9.42408L8.91474 16.8082L8.4054 17.8269L7.38672 18.3362L7.89606 16.8082L9.93342 12.7335L10.4428 12.2241Z" fill="#F9EDDF"/>
<path d="M18.0817 1.01855L18.591 1.27322L16.299 3.05591L12.9883 6.11195V5.34794L15.535 2.80124L18.0817 1.01855Z" fill="#D56E19"/>
<path d="M4.58432 32.0884L5.34833 32.343V34.1257H4.83899L4.07498 36.1631L3.82031 35.1444L4.58432 32.0884Z" fill="#F8F1EC"/>
<path d="M32.8523 10.9507L33.6163 11.2054L34.1257 12.988L32.5977 14.2614V13.4974V12.7334L32.8523 10.9507Z" fill="#F6F0EC"/>
<path d="M35.9102 33.3613H36.6742L36.9288 35.908V38.2001H36.6742L36.1648 34.6347L35.9102 33.3613Z" fill="#FDFDFD"/>
<path d="M13.4969 39.7285L14.0062 40.7472V43.0392L13.4969 43.2939L13.2422 41.0019L13.4969 39.7285Z" fill="#FCFBFA"/>
<defs>
<clipPath id="clip0_2239_152">
<rect width="4.444" height="10.1" fill="white" transform="translate(154.945 20.085)"/>
</clipPath>
<clipPath id="clip1_2239_152">
<rect width="4.444" height="10.1" fill="white" transform="translate(281.801 20.085)"/>
</clipPath>
<clipPath id="clip2_2239_152">
<rect width="4.444" height="10.1" fill="white" transform="translate(231.301 20.085)"/>
</clipPath>
</defs>
</svg>
