<svg width="300" height="91" viewBox="0 0 300 91" fill="none" xmlns="http://www.w3.org/2000/svg">
<path d="M41.1501 0L41.4483 0.149105L42.3429 2.23657L43.3867 3.72762L45.9214 8.94629L47.2634 11.332L49.4999 16.2524L51.2892 19.5327L53.0784 23.1112L54.2713 25.646L55.4641 27.7335L57.5516 32.2066L59.7881 36.5307L61.4283 40.1092L63.0684 42.9422L65.4541 47.8626L67.2433 50.8447H67.8398L69.0326 50.5465L71.4183 50.8447L74.5494 51.8885L77.2333 53.6777L78.277 54.7215L79.4699 55.7652L80.8118 57.7035L82.3029 60.3874L83.1975 63.0713L83.3466 63.6677V69.1846L82.6011 72.3158L82.0047 73.6578L80.3645 76.4907L79.0226 78.1309L76.1896 80.2184L73.953 81.5603L70.9709 82.3058L69.0326 82.604H66.796L64.4104 82.1567L62.0247 81.2621L59.9372 79.9202L57.4025 77.5345L56.0605 75.447L54.2713 71.2721L53.824 69.781L53.6749 68.7373V63.2204L53.824 62.7731L54.8677 62.3258V61.8785V60.6856L55.1659 60.3874L55.4641 59.6419H55.7623V57.8527L54.8677 56.5107L53.6749 55.0197L52.0347 52.3358L50.2455 49.801L49.2017 48.3099L47.5616 45.1787L45.325 41.8984L43.9831 39.811L43.6849 39.2146L43.3867 39.0655L43.2376 39.811L42.3429 41.1529L40.8519 43.9859L38.9135 48.0117L38.0189 49.5028L36.5279 52.7831L35.335 54.8706L33.844 57.2562L32.2038 60.6856L31.4583 62.3258L31.011 63.6677L30.8619 63.2204L30.4146 63.3695L29.8182 64.7115L29.3709 66.2025L28.6253 67.0971L26.3888 67.2463L25.1959 66.948H24.0031L23.5558 67.2463L24.0031 65.9043V64.7115L23.7049 63.9659L24.1522 64.1151L24.7486 65.0097L25.0468 65.3079L25.9415 65.1588L26.9852 64.2642L27.2834 63.6677V62.4749L26.8361 60.9839L25.9415 60.8347L25.7924 60.6856H24.8977L23.854 61.5803L23.4067 63.3695L22.0648 62.9222H19.8282L18.9336 62.0276L19.8282 61.5803L20.2755 61.4312L20.5737 60.2383L22.363 60.5365L23.2576 59.9401L23.854 59.6419L24.0031 59.0455L24.1522 58.1509L23.7049 56.8089L22.8103 56.0634L21.9157 55.7652L21.1701 55.9143L20.7228 56.0634L20.4246 55.3179L20.2755 54.8706L19.6791 54.5723L18.3372 53.9759L17.4425 53.5286L16.697 53.9759L15.5042 54.7215L15.0569 55.3179L14.3113 55.7652L13.7149 57.7035V58.7473L12.8203 59.4928L12.2239 59.791H9.83821L9.3909 59.4928L8.34717 60.9839L7.45254 63.0713V64.2642L8.19807 65.7552V66.0534L12.373 66.3516L12.9694 66.0534L13.4167 65.3079L14.1622 66.0534V66.3516L14.9078 66.6498L15.5042 67.2463L16.1006 67.3954V67.6936L15.0569 68.5882L14.7587 69.3337L14.9078 71.7194L15.0569 72.7631H14.7587L14.6095 72.4649L14.0131 72.1667L14.6095 72.0176L14.1622 69.6319L14.0131 69.3337H13.2676L13.1185 69.6319H12.8203L12.5221 70.2283L11.9257 70.9739L10.4346 71.8685L9.3909 73.0613L9.24179 73.5087H8.94359L9.24179 72.614L9.83821 71.8685L11.4784 70.8248L12.6712 69.4828L12.8203 69.1846H13.1185L12.9694 68.1409H12.6712L12.0748 67.0971L11.1802 66.7989H8.79448L8.64538 67.6936L7.89986 67.8427L7.45254 68.1409H6.25971L5.06688 68.8864L4.02315 69.781L3.87404 70.6757L5.51419 72.614L5.36509 72.9122L4.61956 72.0176L3.57583 71.2721L2.68121 71.123L1.48838 71.7194L0.742854 73.2104L0.59375 72.7631L1.93569 69.6319L4.02315 66.5007L5.8124 63.0713L6.70702 61.2821L8.19807 58.7473L9.83821 55.6161L11.6275 52.634L12.8203 50.5465L14.1622 47.7135L15.0569 46.5207L16.3988 43.9859L17.8898 41.1529L18.9336 39.5128L19.8282 38.0217L21.021 35.636L22.2139 33.3995L23.2576 32.0575L25.4942 27.7335L27.2834 24.7514L29.2218 21.0238L30.1164 19.2345L30.8619 18.489L32.8003 14.7614L34.4404 11.7793L35.4841 10.2882L37.5716 6.2624L38.168 5.21867L38.7644 4.62225L39.9573 2.23657L41.1501 0Z" fill="url(#paint0_linear_2241_1318)"/>
<path d="M17.4438 53.3794L18.4875 53.9758L19.6803 54.4231L20.7241 55.4669V56.0633L21.3205 55.616L22.3642 55.7651L23.2588 56.2124L24.0044 57.107L24.3026 58.1507L24.1535 59.0454L23.8553 59.6418L22.6624 60.5364L21.9169 60.6855L20.7241 60.3873L20.2768 61.4311L19.233 62.1766L19.8294 62.6239V62.9221L20.575 62.773H22.066L23.1097 63.2203L23.4079 63.3694L23.557 61.8784L24.6008 60.6855L24.899 60.5364H25.7936L26.8373 60.9837L27.4338 62.4748V63.6676L26.8373 64.5623L25.9427 65.3078L25.0481 65.4569L24.1535 64.4131H24.0044L24.1535 64.7114V65.9042L23.7062 67.097L24.0044 66.7988H25.1972L26.5391 67.097L27.1355 67.2461L26.9864 67.3952V68.7372L27.2847 70.8247V71.5702L25.7936 71.8684L23.7062 72.0175V72.9121L23.4079 72.3157L22.6624 71.7193L21.7678 71.5702L19.9785 72.4648L19.0839 73.5085L19.9785 76.1924L20.2768 76.4906L21.0223 76.6397H22.9606L23.2588 76.0433L23.557 75.8942L23.2588 76.4906L22.6624 77.0871H20.7241L20.4259 76.9379L20.575 77.5344L19.9785 79.7709L19.233 80.5165L18.9348 80.6656L17.2947 80.8147V80.5165L14.4617 79.92L13.418 79.6218L12.6724 79.7709L11.7778 81.4111L11.6287 82.1566L12.076 83.7968L12.2251 83.9459H14.7599L15.2072 83.7968L15.6545 82.753L15.8036 83.3495L15.2072 84.2441L14.909 84.3932H11.7778L11.4796 85.1387L10.7341 85.7351L9.09394 86.1824L8.34842 86.0333L7.6029 84.8405L7.752 84.2441L8.34842 85.4369V85.7351L10.1377 85.586L11.0323 85.1387L11.4796 84.3932L11.6287 83.6477L11.0323 82.1566L10.4359 81.7093L9.39215 81.262L8.05021 81.4111L8.79573 80.6656L9.69036 79.3236L9.39215 78.2799L8.49752 76.4906L8.19931 74.8505L8.05021 74.4032L7.6029 74.2541L8.64663 73.9559L8.94483 76.6397L9.69036 78.1308L10.4359 78.7272L11.3305 79.0254H13.7162L14.0144 79.1745L14.909 78.1308H15.2072L15.5054 77.5344L15.6545 77.3853V74.7014L15.2072 73.5085L15.3563 73.0612L15.9527 74.105L17.1456 74.2541L18.6366 73.3594L19.6803 72.1666V71.8684V71.5702H20.2768V71.8684L21.7678 71.1229L21.9169 70.8247L22.066 69.4827L22.8115 67.9917L20.575 68.2899L19.9785 68.5881L19.5312 69.6318L19.0839 69.0354L18.9348 68.439L16.9965 67.8426L15.9527 67.9917L14.909 68.8863L15.2072 68.2899L15.8036 67.6935H16.1018V67.3952L15.2072 67.2461L13.418 65.4569L12.9706 66.2024L12.3742 66.5006L8.49752 66.2024L8.05021 65.7551L7.30469 64.264V63.0712L8.19931 60.9837L9.39215 59.3436L9.83946 59.6418H12.2251L13.418 58.8963L13.5671 58.1507L13.8653 56.5106L14.3126 55.616L15.0581 55.1687L15.8036 54.274L16.6983 53.8267L17.4438 53.3794Z" fill="#C2C2C3"/>
<path d="M9.54267 66.6499H11.1828L12.2265 67.0972L12.6739 67.8427V68.1409H12.9721L13.1212 69.1847H12.823L12.5248 69.9302L11.3319 71.123L9.84088 72.0177L8.94625 73.5087H9.24446L9.39357 72.9123L10.4373 71.7195L11.6301 70.9739H11.9283L12.2265 70.3775L12.823 69.632H13.1212L13.2703 69.1847H14.0158L14.314 69.632L14.6122 71.123V72.0177L14.1649 72.1668L14.7613 72.465V72.7632H15.0595L14.7613 71.7195L14.6122 69.3338L14.7613 68.8865L16.2524 67.6936L17.5943 67.8427L19.0853 68.4392L19.5327 69.4829L19.98 68.4392L20.5764 68.1409L22.8129 67.9918L22.6638 68.5883L22.2165 69.4829L22.0674 70.8248L21.471 71.4213L20.5764 71.8686H20.2782V71.5704H19.6818L19.98 71.7195L19.6818 72.3159L18.638 73.5087L17.147 74.4033L15.9542 74.2542L15.3577 73.2105L15.805 74.7016V77.3854L15.2086 78.131L14.314 78.8765L14.0158 79.3238L13.4194 79.1747H11.3319L9.98998 78.5783L9.39357 77.8328L8.79715 76.6399L8.64804 75.7453V73.956L8.05163 74.4033L8.34984 74.8507L8.79715 76.9381L9.84088 79.0256L9.54267 79.9202L8.49894 81.1131H8.64804L9.84088 81.2622L11.0337 82.0077L11.6301 83.2005L11.7792 84.0952L11.3319 84.9898L10.8846 85.4371L10.1391 85.7353L8.64804 85.8844L8.20073 85.4371L7.75342 84.5425V84.2443H7.45521L7.30611 83.3496H7.0079L6.70969 83.9461L6.11327 84.5425L6.41148 83.7969L6.85879 82.7532L6.70969 82.0077L4.92044 79.1747H2.68388L1.34194 78.4292L0.447313 77.2363L0 76.0435V74.2542L0.447313 73.2105H0.745521L1.04373 72.3159L1.64015 71.4213L2.68388 70.9739L3.5785 71.123L4.92044 72.1668L5.06954 72.3159L3.72761 70.6757L3.87671 69.7811L5.36775 68.4392L6.26238 67.9918H7.45521L8.20073 67.5445L8.64804 67.6936L8.79715 66.799L9.54267 66.6499Z" fill="#FBFBFB"/>
<path d="M16.2567 67.6934L17.5986 67.8425L19.0896 68.4389L19.537 69.4826L19.9843 68.4389L20.5807 68.1407L22.8172 67.9916L22.6681 68.588L22.2208 69.4826L22.0717 70.8246L21.4753 71.421L20.5807 71.8683H20.2825V71.5701H19.6861L19.9843 71.7192L19.6861 72.3156L18.6423 73.5084L17.1513 74.4031L15.9585 74.254L15.362 73.2102L15.8093 74.7013V77.3852L15.2129 78.1307L14.3183 78.8762L14.0201 79.3235L13.4237 79.1744H11.3362L9.99428 78.578L9.39786 77.8325L8.80145 76.6396L8.65234 75.745V73.9558L8.95055 73.5084H9.24876L9.39786 72.912L10.4416 71.7192L11.6344 70.9737H11.9326L12.2308 70.3772L12.8273 69.6317H13.1255L13.2746 69.1844H14.0201L14.3183 69.6317L14.6165 71.1228V72.0174L14.1692 72.1665L14.7656 72.4647V72.7629H15.0638L14.7656 71.7192L14.6165 69.3335L14.7656 68.8862L16.2567 67.6934Z" fill="#FCFCFB"/>
<path d="M16.8474 53.6777H17.742L17.8911 54.125L19.5312 54.5724L20.575 55.6161L20.4259 57.7036V60.0892L20.1277 61.133L19.6803 61.5803H16.4L15.8036 61.133V60.6857H15.5054L15.3563 61.2821L14.4617 61.8785L13.418 61.7294L12.8215 61.4312L13.418 62.7731V64.1151L12.8215 66.2025L12.3742 66.5007L8.49752 66.2025L8.05021 65.7552L7.30469 64.2642V63.0713L8.19931 60.9839L9.39215 59.3437L9.83946 59.6419H12.2251L13.418 58.8964L13.5671 58.1509L13.8653 56.5107L14.3126 55.6161L15.0581 55.1688L15.8036 54.2742L16.6983 53.8268L16.8474 53.6777Z" fill="#FDFDFD"/>
<path d="M70.3741 66.7993H72.0143L73.3562 67.2466L74.4 68.1413L75.2946 69.6323L75.5928 70.8251V73.2108L74.8473 75.5965L73.9526 76.342L72.4616 77.2366L72.0143 77.3858H70.0759L68.2867 76.4911L67.0938 75.2983L66.4974 74.1054L66.1992 72.9126L66.3483 70.9742L66.9447 69.3341L67.6903 68.5886L68.1376 67.6939V67.3957L68.734 67.0975L70.3741 66.7993Z" fill="#FDFDFD"/>
<path d="M2.68388 70.9736L3.5785 71.1227L4.92044 72.1665L5.36775 72.7629L5.81506 72.912L6.70969 74.2539L6.56059 76.4905L6.11327 77.3851L5.06954 78.7271L6.11327 80.3672L7.30611 82.4547L7.45521 83.7966L7.30611 83.3493H7.0079L6.70969 83.9457L6.11327 84.5422L6.41148 83.7966L6.85879 82.7529L6.70969 82.0074L4.92044 79.1744H2.68388L1.34194 78.4289L0.447313 77.236L0 76.0432V74.2539L0.447313 73.2102H0.745521L1.04373 72.3156L1.64015 71.4209L2.68388 70.9736Z" fill="#FAF6F6"/>
<path d="M16.2534 67.6934L17.5954 67.8425L19.0864 68.4389L19.5337 69.4826L19.981 68.4389L20.5775 68.1407L22.814 67.9916L22.6649 68.588L22.2176 69.4826L22.0685 70.8246L21.4721 71.421L20.5775 71.8683H20.2792V71.5701H19.6828L19.981 71.7192L19.6828 72.3156L18.6391 73.5084L17.1481 74.4031L15.9552 74.254L15.3588 73.2102L15.0606 73.0611L14.7624 71.7192L14.6133 69.3335L14.7624 68.8862L16.2534 67.6934Z" fill="#FDFDFD"/>
<path d="M8.35099 73.9561H8.6492L8.94741 76.6399L9.69293 78.131L10.4384 78.7274L11.3331 79.0256H13.7187L14.017 79.1747L14.9116 78.131L15.8062 77.6837L16.1044 78.4292V78.131L15.9553 77.2364L16.2535 76.1926L16.7008 76.0435H18.0428L19.5338 76.3417L20.2793 76.9381L20.1302 78.2801L19.832 79.622L19.0865 80.3676H17.4463L14.4643 79.9202L13.4205 79.622L12.675 79.7711L11.7804 81.4113L11.6313 82.1568L12.0786 83.797L12.2277 83.9461H14.7625L15.2098 83.797L15.6571 82.7532L15.8062 83.3497L15.2098 84.2443L14.9116 84.3934H11.7804L11.4822 85.1389L10.7367 85.7353L9.09651 86.1826L8.35099 86.0335L7.60547 84.8407L7.75457 84.2443L8.35099 85.4371V85.7353L10.1402 85.5862L11.0349 85.1389L11.4822 84.3934L11.6313 83.6479L11.0349 82.1568L10.4384 81.7095L9.39472 81.2622L8.05278 81.4113L8.7983 80.6658L9.69293 79.3238L9.39472 78.2801L8.50009 76.4908L8.20189 74.8507L8.05278 74.4034L7.60547 74.2543L8.35099 73.9561Z" fill="#FBF8F8"/>
<path d="M9.09394 59.791L10.585 59.9401H11.6287L12.8215 61.4312L13.418 62.7731V64.1151L12.8215 66.2025L12.3742 66.5007L8.49752 66.2025L8.05021 65.7552L7.30469 64.2642V63.0713L8.19931 60.9839L9.09394 59.791Z" fill="#FDFDFD"/>
<path d="M24.9016 60.5361H25.7962L26.8399 60.9834L27.4363 62.4745V63.6673L26.8399 64.562L25.9453 65.3075L25.0507 65.4566L24.1561 64.4129H24.0069L24.1561 64.7111V65.9039L23.5596 67.2458L22.8141 67.6932H21.3231L19.9811 67.395L19.832 67.0967V65.0093L20.2793 63.3691L20.7267 62.9218H22.665L23.4105 63.3691L23.5596 61.8781L24.6034 60.6852L24.9016 60.5361Z" fill="#FCFCFC"/>
<path d="M15.6583 61.7295H17.4476L19.5351 62.6241L19.6842 63.0714L18.9386 66.5008L17.7458 67.2464H16.1057L14.9128 66.3517L14.6146 65.6062L14.3164 64.5625V63.6679L14.4655 63.2205L14.7637 62.6241L15.3601 61.8786L15.6583 61.7295Z" fill="#FEFEFE"/>
<path d="M24.0041 66.7993H25.1969L26.0916 67.0975L26.5389 68.2904L26.8371 70.0796V71.2725L26.0916 71.5707L23.2586 71.8689L22.5131 70.9742L22.2148 69.9305L23.4077 67.5448L24.0041 66.7993Z" fill="#FDFDFD"/>
<path d="M24.9025 60.5361H25.7972L26.8409 60.9834L27.4373 62.4745V63.6673L26.8409 64.562L25.9463 65.3075L25.0516 65.4566L24.157 64.4129L24.0079 64.1146L23.4115 63.9655L23.1133 63.3691H23.4115L23.5606 61.8781L24.6043 60.6852L24.9025 60.5361Z" fill="#F9F9F9"/>
<path d="M8.35099 73.9561H8.6492L8.94741 76.6399L9.69293 78.131L10.4384 78.7274L11.3331 79.0256H13.7187L14.017 79.1747L14.9116 78.131L15.2098 78.2801L14.3152 79.3238L14.1661 79.622H12.8241L12.3768 80.3676L11.6313 81.5604L11.7804 82.6041L12.2277 83.9461H14.7625L15.2098 83.797L15.6571 82.7532L15.8062 83.3497L15.2098 84.2443L14.9116 84.3934H11.7804L11.4822 85.1389L10.7367 85.7353L9.09651 86.1826L8.35099 86.0335L7.60547 84.8407L7.75457 84.2443L8.35099 85.4371V85.7353L10.1402 85.5862L11.0349 85.1389L11.4822 84.3934L11.6313 83.6479L11.0349 82.1568L10.4384 81.7095L9.39472 81.2622L8.05278 81.4113L8.7983 80.6658L9.69293 79.3238L9.39472 78.2801L8.50009 76.4908L8.20189 74.8507L8.05278 74.4034L7.60547 74.2543L8.35099 73.9561Z" fill="#F8F8F8"/>
<path d="M21.476 55.7651L22.8179 55.9142L23.2652 56.2125L23.8617 57.2562L24.0108 57.8526V58.8963L23.4143 59.6419L22.6688 60.0892H21.6251L20.8796 59.6419L20.7305 58.5981L21.0287 56.8089L21.3269 55.9142L21.476 55.7651Z" fill="#FCFCFC"/>
<path d="M44.4336 39.811L45.7755 40.2583L46.8193 40.5566L48.1612 41.153L48.7576 42.1967L49.354 43.5387L49.5031 44.5824H48.4594L47.7139 44.2842L46.6702 42.9422L46.5211 43.2404H46.2228L44.4336 40.5566V39.811Z" fill="#ED7346"/>
<path d="M19.2332 66.7993L19.8296 67.5448L20.4261 67.6939H21.9171L23.7064 67.2466L22.5135 69.4832L22.3644 70.2287L22.9608 71.4216L23.259 71.7198L26.092 71.4216L26.6884 71.2725V70.0796L26.3902 68.2904L26.092 67.0975H27.1358L26.9866 67.3957V68.7377L27.2849 70.8251V71.5707L25.7938 71.8689L23.7064 72.018V72.9126L23.4081 72.3162L22.6626 71.7198L22.2153 71.5707L22.0662 70.8251V69.4832L22.8117 67.9922L20.4261 68.1413L19.6805 68.4395L19.3823 68.5886L19.2332 68.2904L17.7422 67.6939L18.1895 67.3957L19.0841 67.2466L19.2332 66.7993Z" fill="#CABBB2"/>
<path d="M17.8914 52.9321L19.6806 53.0812L20.7244 53.5285L21.1717 54.5723L21.9172 55.0196L22.9609 55.4669L23.11 56.0633L21.9172 55.7651L21.1717 55.9142L20.7244 56.0633L20.4262 55.3178L20.2771 54.8705L19.6806 54.5723L18.3387 53.9759L17.4441 53.5285L16.8477 53.6777V53.3794L17.8914 52.9321Z" fill="#F46143"/>
<path d="M56.9584 31.312L57.4057 31.9084L59.4931 35.9343V36.3816H59.1949L59.0458 36.978L58.8967 36.5307H58.5985L58.4494 35.7852L58.0021 35.6361L57.853 35.0396H57.4057L56.8093 32.9522L56.6602 31.9084L56.9584 31.312Z" fill="#ED7446"/>
<path d="M18.3427 73.8071L18.9391 74.1053L19.5355 76.0437L16.8517 75.8946L16.1061 76.0437L15.957 75L16.2552 74.7018L17.299 74.4035L18.3427 73.8071Z" fill="#FEFEFE"/>
<path d="M12.2277 79.9204L12.3768 80.3677L11.6313 81.5606L11.7804 82.6043L12.2277 83.9462H14.7625L15.2098 83.7971L15.6571 82.7534L15.8062 83.3498L15.2098 84.2444L14.9116 84.3936H11.7804L11.4822 85.1391L10.7367 85.7355L9.09651 86.1828L8.35099 86.0337L7.60547 84.8409L7.75457 84.2444L8.35099 85.4373V85.7355L10.1402 85.5864L11.0349 85.1391L11.4822 84.3936L11.6313 83.648L11.0349 82.157L10.4384 81.7097L9.84203 81.4115L10.2893 81.2624L11.3331 81.4115L12.2277 79.9204Z" fill="#C59694"/>
<path d="M21.9206 70.8247L22.3679 70.9738L22.2188 71.4211L20.1314 72.3158L19.0876 73.3595L19.6841 75.447V75.8943H19.3859L18.9385 74.5523V74.105L18.3421 73.9559L17.1493 74.7014L16.1056 74.9996L15.8074 75.447L15.2109 73.5086L15.36 73.0613L15.9565 74.105L17.1493 74.2541L18.6403 73.3595L19.6841 72.1666V71.8684V71.5702H20.2805V71.8684L21.7715 71.1229L21.9206 70.8247Z" fill="#BEB2B1"/>
<path d="M43.2411 38.7671L43.6884 39.0653H43.3902L43.2411 39.8108L42.3465 41.1528L41.1537 43.2402H40.8555L41.0046 42.3456L41.601 40.8546L42.3465 39.6617L43.2411 38.7671Z" fill="#F46143"/>
<path d="M8.35099 73.9561H8.6492L8.94741 76.6399L9.69293 78.131L10.2893 78.8765L10.1402 79.4729L9.54382 80.3676L9.84203 81.2622H8.6492L8.05278 81.4113L8.7983 80.6658L9.69293 79.3238L9.39472 78.2801L8.50009 76.4908L8.20189 74.8507L8.05278 74.4034L7.60547 74.2543L8.35099 73.9561Z" fill="#CA9992"/>
<path d="M26.094 67.0972H27.1378L26.9887 67.3954V68.7373L27.2869 70.8248V71.5703L25.7958 71.8685L24.0066 72.0176L23.5593 72.1667L23.4102 71.8685L24.9012 71.5703L26.6904 71.2721V70.0793L26.3922 68.29L26.094 67.0972Z" fill="#C6B7AF"/>
<path d="M37.1246 50.0991H37.5719L37.1246 51.4411L35.9318 53.8267L34.8881 55.4669H34.5898L34.7389 54.7214L35.9318 52.6339L37.1246 50.0991Z" fill="#ED8446"/>
<path d="M5.66834 77.5342V77.9815L5.07193 78.8761L5.66834 79.6216L7.01028 81.8582L7.4576 83.2002L7.30849 83.7966V83.3493H7.01028L6.71207 83.9457L6.11566 84.5421L6.41387 83.7966L6.86118 82.7528L6.71207 82.0073L4.92282 79.1743H2.68626L2.08984 78.8761L2.38805 78.727L2.98447 78.8761H4.1773L5.07193 78.2797L5.66834 77.5342Z" fill="#CF847B"/>
<path d="M8.35156 66.0537L12.3774 66.3519L12.8247 66.2028L12.6756 67.2465L12.8247 68.1412L12.3774 67.5448L11.781 66.9483L11.1845 66.7992H8.79888L8.64977 67.6939L8.50067 67.2465L8.35156 66.0537Z" fill="#C9B9AF"/>
<path d="M20.4278 62.0273H23.1117L23.2608 62.6238H22.9626V62.922L19.9805 62.7729L20.4278 62.0273Z" fill="#ED7546"/>
<path d="M50.545 49.0557L50.8432 49.2048L51.5887 50.5467L52.4833 51.8887V52.7833L51.8869 52.1869L50.6941 50.3976L50.0977 49.6521L50.2468 49.3539L50.545 49.0557Z" fill="#ED8446"/>
<path d="M19.2332 66.7993L19.8296 67.5448L21.9171 67.843V67.9922L19.8296 68.2904L19.3823 68.5886L19.2332 68.2904L17.7422 67.6939L18.1895 67.3957L19.0841 67.2466L19.2332 66.7993Z" fill="#ED8447"/>
<path d="M44.8802 7.15723L45.3276 7.75365L47.1168 11.034L46.9677 11.3322L46.6695 10.5866L46.0731 10.2884L44.8802 8.35006L44.582 7.30633L44.8802 7.15723Z" fill="#EC573B"/>
<path d="M15.8074 75.4468L16.1056 76.0432L16.8511 75.745H17.8948L19.0876 76.0432V76.3414L18.0439 76.1923H16.702L16.2547 76.3414L16.1056 77.6833L16.4038 78.4289L16.2547 78.8762L15.6583 77.8325L15.2109 78.1307L15.5091 77.5342L15.6583 77.3851L15.8074 75.4468Z" fill="#BAB6B7"/>
<path d="M15.2109 73.0615L15.6583 73.5088L15.9565 74.1053L17.1493 74.2544L18.193 73.6579L18.9385 73.807V74.1053L18.3421 73.9562L17.1493 74.7017L16.1056 74.9999L15.8074 75.4472L15.2109 73.5088V73.0615Z" fill="#C0BAB9"/>
<path d="M9.39586 59.3438L9.84318 59.642H12.2288L13.1235 59.3438L12.6762 59.7911V61.133L11.6324 60.0893H9.69407L9.09766 59.642L9.39586 59.3438Z" fill="#C3C4C5"/>
<path d="M23.7116 63.9658L24.1589 64.1149L25.0535 65.4569L24.6062 65.606L24.308 66.6497L24.9044 66.7988L23.8607 67.097L23.5625 67.2461L24.0098 65.9042V64.7113L23.7116 63.9658Z" fill="#EC7E44"/>
<path d="M47.5632 12.3755L48.0105 12.9719L48.9051 15.0594L48.756 15.3576L47.8614 14.3139L47.4141 13.2701V12.5246L47.5632 12.3755Z" fill="#EB563A"/>
<path d="M14.9093 78.1309L15.2075 78.28L14.3129 79.3237L14.1638 79.6219H12.8218L12.3745 79.9201V79.4728L10.7344 79.1746L11.3308 79.0255H13.7165L14.0147 79.1746L14.9093 78.1309Z" fill="#CE8178"/>
<path d="M12.822 69.1846L13.1202 69.6319H12.822L12.5238 70.2283L11.9274 70.9738L10.4364 71.8685L9.39263 73.0613L9.24352 73.5086H8.94531L9.24352 72.614L9.83994 71.8685L11.4801 70.8247L12.6729 69.4828L12.822 69.1846Z" fill="#CEA494"/>
<path d="M7.45446 67.9917H7.75267L8.64729 69.781L8.9455 70.5265H9.24371L9.54192 70.9738L9.98923 71.1229V71.4211L9.24371 71.272L8.64729 70.5265V70.2283H8.34908L7.45446 68.5881L7.15625 68.1408L7.45446 67.9917Z" fill="#CDAC9C"/>
<path d="M5.96551 73.5088L6.71103 74.2543L6.56193 76.4909L6.11461 77.3855L5.81641 77.5346L6.11461 76.7891V74.9998L5.96551 73.5088Z" fill="#CF9081"/>
<path d="M12.2294 79.9204L12.3785 80.3677L11.633 81.5606V82.7534H11.3348L10.7384 81.8588L9.84375 81.4115L10.2911 81.2624L11.3348 81.4115L12.2294 79.9204Z" fill="#C7938F"/>
<path d="M55.767 58.3003L55.9161 58.5985L56.5125 58.7476L56.6616 58.8967V59.9404L56.0652 60.0896L55.4688 59.6422H55.767V58.3003Z" fill="#ED8C45"/>
<path d="M14.612 69.0352L14.7611 69.3334L14.9103 71.719L15.0594 72.7628H14.7611L14.612 72.4646L14.0156 72.1664L14.612 72.0173L14.3138 70.8244L14.4629 69.1843L14.612 69.0352Z" fill="#CCB9AE"/>
<path d="M26.8396 70.8247H27.2869V71.5702L25.7958 71.8684L24.0066 72.0175L23.5593 72.1667L23.4102 71.8684L24.9012 71.5702L26.6904 71.272L26.8396 70.8247Z" fill="#BDBEBF"/>
<path d="M19.8272 79.4727L19.9763 79.7709L19.2308 80.5164L18.9325 80.6655L17.2924 80.8146V80.5164L16.5469 80.3673V80.2182H19.0816L19.8272 79.4727Z" fill="#C49F9D"/>
<path d="M21.9163 70.8247L22.3636 70.9738L22.2145 71.4211L20.127 72.3158L19.6797 72.1666V71.8684V71.5702H20.2761V71.8684L21.7671 71.1229L21.9163 70.8247Z" fill="#BEB9B9"/>
<path d="M9.69483 79.4727L9.84394 79.7709L9.54573 80.5164L9.84394 81.2619H8.6511L8.05469 81.411L8.80021 80.6655L9.69483 79.4727Z" fill="#D2857F"/>
<path d="M22.0664 69.7808L22.3646 70.2281L22.961 71.4209L23.7066 72.1664V72.912L23.4083 72.3155L22.6628 71.7191L22.2155 71.57L22.0664 70.8245V69.7808Z" fill="#D08B7B"/>
<path d="M13.5684 48.9062L13.8666 49.0554V49.5027H14.1648L14.3139 50.3973H13.5684L13.4193 49.95L13.1211 50.0991L13.4193 49.2045L13.5684 48.9062Z" fill="#F45A41"/>
<path d="M8.20255 66.0537L8.64987 66.6501L8.50076 67.6939L7.90434 67.843H7.45703V67.5448L8.05345 66.9483L8.20255 66.0537Z" fill="#ED7B46"/>
<path d="M9.24676 77.5342L9.84318 78.2797L10.2905 78.8761L10.1414 79.4725H9.69407L9.54497 78.5779L9.09766 77.6833L9.24676 77.5342Z" fill="#BEB8B7"/>
<path d="M15.2085 67.9917V68.439L14.612 69.1845L14.4629 69.9301L14.0156 69.3336L14.3138 68.7372H14.612L14.9103 68.1408L15.2085 67.9917Z" fill="#ED8B45"/>
<path d="M3.72656 70.8247H4.02477L5.36671 72.4649V72.9122L4.62119 72.0175L3.72656 71.272V70.8247Z" fill="#E75A3C"/>
<path d="M27.4364 63.3696L27.5855 63.8169L27.1381 64.7116L26.3926 65.308L25.9453 65.1589L26.989 64.2643L27.4364 63.3696Z" fill="#ED8846"/>
<path d="M15.8074 77.0869L16.1056 77.6833L16.4038 78.4289L16.2547 78.8762L15.6583 77.8324L15.2109 78.1306L15.5091 77.5342L15.8074 77.0869Z" fill="#CB8580"/>
<path d="M7.45446 67.9917H7.75267L8.34908 69.4827L8.05088 69.6319L7.15625 68.1408L7.45446 67.9917Z" fill="#C1C2C3"/>
<path d="M271.52 3.64795L288.816 3.79705L291.649 4.24437L294.183 5.2881L295.674 6.63004L296.569 8.12109L297.315 9.76124L298.209 13.3398L298.358 14.6817V16.9183L297.911 19.4531L297.165 21.9878L295.824 24.0753L295.078 24.8208L293.587 25.7155L293.438 26.0137L293.885 26.7592L295.078 28.2502L295.824 29.8904L297.165 34.3635L298.06 37.7929L299.104 40.9241L299.849 43.3098L299.998 44.2044H294.034L293.14 43.9062L292.841 42.8625L292.096 39.7313L290.008 33.618L289.412 31.6796L288.517 30.1886L287.623 29.4431L285.237 27.952H278.975L277.931 27.8029L277.782 33.0216V44.2044H271.52V3.64795Z" fill="#E94C36"/>
<path d="M131.809 3.79688H145.974L148.956 4.24419L151.193 4.6915L153.28 5.73524L154.92 7.22628L156.411 10.0593L157.306 12.445L157.604 14.5324V17.6636L157.306 19.9002L156.411 22.5841L155.219 24.6715L154.175 26.0135L153.28 26.759L150.895 27.9518L148.211 28.6974L145.08 29.1447L140.606 29.2938H138.072L137.923 44.2043H131.809L131.66 26.3117V6.18255L131.809 3.79688Z" fill="#E94C36"/>
<path d="M239.461 3.64795H263.616L264.212 3.79705V10.9541H245.872V18.7075L246.022 19.4531L262.87 19.6022V26.9083H245.872V37.3456H265.107V40.775L264.958 44.2044L239.61 44.3535L239.461 42.8625V3.64795Z" fill="#E94D36"/>
<path d="M187.573 2.90234H191.599L193.687 3.49876L195.625 4.39339L197.713 5.43712L199.054 6.92817L200.247 8.41922L201.142 9.76116L202.037 12.445L202.484 14.5325V15.4271L201.738 15.7254H196.818L196.221 15.4271L195.625 13.4888L195.029 12.5942L194.134 11.4013L192.643 10.6558L191.301 10.2085H188.17L186.679 10.6558L184.442 11.9977L183.697 13.787V15.7254L184.144 16.62L185.337 17.3655L186.082 17.8128L187.275 18.2601L188.17 18.7074L189.959 19.1548L192.047 19.6021L194.73 20.6458L196.818 21.3913L198.756 22.7333L200.993 24.5225L202.037 26.0136L202.782 27.9519L203.229 30.1885V34.2143L202.782 36.4509L201.887 38.8366L200.695 40.4767L198.905 42.1169L196.371 43.757L192.792 44.8008L192.047 44.9499H188.468L186.082 44.3535L183.697 43.3097L181.609 42.1169L179.969 40.775L178.627 38.6875L177.733 36.6L176.689 32.8724L176.391 30.3376L182.504 30.4867L182.802 30.6358V31.6796L183.846 34.2143L184.74 35.5563L186.082 36.6L187.126 37.3455L189.363 37.7929H191.748L193.985 37.1964L194.88 36.7491L196.52 35.4072L197.116 33.767V31.9778L196.818 30.6358L195.923 29.5921L193.836 28.2502L191.599 27.5046L188.468 26.61L184.442 25.2681L183.1 24.6716L180.864 23.1806L179.82 22.286L178.925 21.0931L178.329 19.9003L177.882 18.4092L177.583 15.8745V14.0852L177.882 11.2522L178.478 9.46295L179.373 7.8228L180.715 6.33175L182.355 4.98981L184.89 3.79697L186.977 3.05145L187.573 2.90234Z" fill="#E94C36"/>
<path d="M108.103 3.64795H114.365L116.751 11.4014L118.54 16.471L120.777 23.7771L122.417 27.952L124.952 35.8546L126.294 39.4331L127.486 43.4589V44.2044H120.777L120.329 43.7571L118.093 36.0037L117.496 34.0653L116.751 32.7234L105.419 32.5743L104.823 35.1091L103.63 39.5822L102.288 44.0553L102.139 44.2044H96.3236L95.5781 43.9062V43.1607L96.1745 41.9679L97.3674 38.0911L98.7093 34.0653L100.2 28.8467L103.033 20.3477L105.121 13.3398L106.91 7.97199L107.954 3.79705L108.103 3.64795Z" fill="#E94C36"/>
<path d="M224.551 3.64795H232.901L234.094 3.79705V10.805L230.515 10.9541L223.955 11.1032L223.806 44.2044H217.543V19.6022L217.394 11.2523L217.245 11.1032L215.009 10.9541H207.106L206.957 10.5068V8.2702L207.106 3.79705L224.551 3.64795Z" fill="#E94D36"/>
<path d="M169.683 3.64795L169.981 3.79705V44.2044L163.868 44.3535L163.719 43.0116V3.79705L169.683 3.64795Z" fill="#E94D36"/>
<path d="M227.98 54.3433H230.515L231.558 55.5361L233.199 58.0709L234.988 61.053L236.926 64.3333L238.417 66.5699L238.715 66.8681L238.865 54.4924L239.759 54.3433H242.294L242.443 73.7269H239.461L238.715 72.9814L236.777 69.8502L231.708 62.2458L230.962 61.2021V60.9039H230.664V73.5778H227.383L227.234 71.9376V54.4924L227.98 54.3433Z" fill="#C2C3C4"/>
<path d="M149.108 54.3433H150.45V57.4745L148.81 57.6236L140.013 57.7727V62.0967H150.003L150.152 65.377L139.864 65.5261L140.013 67.7627V70.1484H147.17L150.897 70.2975L151.046 73.5778H136.285V64.1842L136.434 54.4924L149.108 54.3433Z" fill="#C2C3C4"/>
<path d="M266.453 54.4922H280.618L280.469 57.6234L270.032 57.7725L269.883 62.0965H279.873V65.3768H269.883V70.1482H280.618L280.767 70.2973L280.916 73.5776L270.181 73.7267H266.453V54.4922Z" fill="#C2C3C4"/>
<path d="M209.195 54.4922H223.211V57.6234L212.923 57.7725L212.774 62.0965H222.316V65.3768H212.774V70.1482H223.062L223.658 70.2973V73.5776H209.344L209.195 54.4922Z" fill="#C2C3C4"/>
<path d="M169.384 54.0449H171.173L173.559 54.6413L174.901 55.3869L176.243 56.5797L177.585 58.6672L178.032 59.86L177.287 60.1582L174.901 60.0091L173.708 58.6672L171.919 57.6234L171.024 57.3252H169.235L167.893 57.7725L167.297 58.369L167.148 58.8163V60.4564L168.34 61.0528L173.857 62.9912L176.243 64.184L177.436 65.2278L178.032 66.2715L178.181 67.017V68.8063L177.585 70.4464L176.392 71.9375L175.05 72.9812L173.708 73.5776L172.963 73.7267H169.831L167.595 73.1303L165.806 72.2357L164.315 70.8938L163.271 68.8063L162.973 67.4643V66.7188L165.806 67.4643H166.7L166.849 68.9554L167.595 69.7009L169.086 70.5956L170.279 71.0429H171.919L173.261 70.2973L174.454 69.1045L174.901 68.0608L174.752 67.3152L173.708 66.4206L172.068 65.6751L167.893 64.4823L165.806 63.5876L164.165 62.3948L163.867 62.0966L163.718 61.3511V57.9216L164.165 56.8779L165.209 55.8342L167.148 54.6413L169.384 54.0449Z" fill="#C2C3C4"/>
<path d="M277.782 10.3574H286.579L288.965 10.8047L290.456 11.5503L291.5 12.4449L292.096 13.6377L292.245 14.2341V17.0671L291.649 18.8564L290.605 19.751L289.71 20.4965L288.517 20.7948H277.782L277.633 20.3474V12.2958L277.782 10.3574Z" fill="#FBFBFB"/>
<path d="M289.71 54.0449H291.946L294.034 54.4922L295.226 55.0887L296.121 55.8342L297.463 57.7725L298.209 59.2636V60.0091H295.077L294.928 59.7109L294.779 58.8163L293.885 57.7725L292.393 57.027H290.008L288.815 57.6234L287.771 58.8163V60.1582L288.368 60.9037L290.306 61.6493L294.183 62.8421L295.376 63.2894L295.525 62.693L296.568 63.5876L297.91 65.2278L298.507 66.5697L298.656 67.3152L298.507 69.2536L297.91 70.5956L297.314 71.4902L296.121 72.683L294.481 73.4285L292.543 73.7267H290.455L288.368 73.2794L286.28 72.2357L285.236 71.192L284.342 69.7009L283.895 67.9117V67.1661L285.236 67.017L286.429 67.6135L287.92 69.2536L290.008 70.5956L291.201 71.0429H292.244L294.183 70.2973L295.525 69.1045L295.972 68.359L295.823 67.3152L295.077 66.7188L293.139 65.8242L287.622 64.184L285.833 63.2894L284.938 62.0966L284.64 61.0528V58.5181L285.236 57.027L286.131 55.6851L287.026 54.9396L288.815 54.194L289.71 54.0449Z" fill="#C2C3C4"/>
<path d="M138.071 10.9536H146.719L148.508 11.2518L149.999 12.4447L150.894 13.9357L151.043 14.5321V17.8124L150.745 19.1544L149.85 20.4963L147.763 21.5401L145.675 21.8383H138.22L137.922 21.0927V15.1285L138.071 10.9536Z" fill="#FCFCFC"/>
<path d="M254.373 54.1938H256.162L257.653 54.4921L259.74 55.5358L261.381 57.1759L262.573 59.5616V60.158L262.275 60.3071H260.784L259.144 60.0089L258.846 59.8598L258.1 58.3688L257.056 57.4742L255.864 57.0268H254.373L252.882 57.6233L251.54 58.667L250.347 60.3071L249.601 62.0964L249.452 62.991V64.7803L249.899 66.8678L250.794 68.657L252.285 70.1481L253.776 70.8936L254.373 71.0427H255.416L256.907 70.2972L257.802 69.5516L258.995 67.9115L259.442 67.4642L261.828 67.166H262.722L262.126 69.5516L261.231 71.1918L259.889 72.5337L258.1 73.4284L255.715 73.8757H253.925L252.136 73.5775L250.347 72.6828L248.856 71.3409L247.812 70.1481L246.917 68.657L246.321 66.8678L246.172 65.824V63.1401L246.47 61.0527L247.216 58.9652L248.408 57.1759L249.75 55.834L251.54 54.7903L253.18 54.343L254.373 54.1938Z" fill="#C2C3C4"/>
<path d="M188.764 54.1938H190.553L192.79 54.6412L194.43 55.5358L196.07 57.0268L196.965 58.5179L197.263 59.2634L197.114 59.8598L196.368 60.158H195.175L194.132 59.7107L193.088 58.5179L191.746 57.4742L190.553 57.0268H189.211L187.72 57.6233L186.229 58.9652L185.036 60.9036L184.589 62.2455V65.0785L185.185 67.4642L185.931 68.8061L187.273 70.2972L188.764 71.0427H189.957L192.044 70.2972L193.386 69.4025L193.982 68.5079L194.579 67.3151L195.026 67.166H197.114V68.657L196.517 70.2972L195.623 71.49L194.281 72.6828L192.79 73.2793L190.106 73.7266H187.869L185.931 73.1302L184.589 72.2355L183.396 71.0427L182.203 68.9552L181.607 67.4642L181.309 65.9731V62.991L181.756 60.7545L182.501 58.5179L183.545 56.8777L184.887 55.5358L186.527 54.6412L188.764 54.1938Z" fill="#C2C3C4"/>
<path d="M119.734 54.4922H132.706V57.6234H123.313L123.164 62.2456H131.365L131.514 62.3947V65.5259H123.164V73.7267H119.734V54.4922Z" fill="#C2C3C4"/>
<path d="M96.4733 54.3433H99.1572L99.7536 54.4924L99.9027 70.1484H108.253V73.5778H96.3242L96.4733 54.3433Z" fill="#C2C3C4"/>
<path d="M111.828 54.3433H115.407V73.5778H111.828V54.3433Z" fill="#C3C4C5"/>
<path d="M201.739 54.3433H205.168L205.317 73.5778L203.528 73.7269H201.59V56.878L201.739 54.3433Z" fill="#C3C4C5"/>
<path d="M111.086 13.6372L111.385 14.0845L113.174 19.7505L114.516 23.4781L114.963 24.9692L115.112 25.1183V25.8638L114.665 26.0129H107.806L107.508 25.8638L107.657 24.671L109.297 19.1541L110.341 16.3211L110.937 13.7863L111.086 13.6372Z" fill="#FBFBFB"/>
<path d="M187.572 2.90234H191.598L193.685 3.49876L195.624 4.39339L197.711 5.43712L199.053 6.92817L200.246 8.41922L201.14 9.76116L202.035 12.445L202.482 14.5325V15.4271L202.035 15.5762L202.184 14.8307L201.588 13.6379L201.439 12.1468L200.991 10.5067L200.693 9.76116L200.246 9.01564L199.5 8.56832L198.009 6.48086L197.413 5.73533L194.431 4.5425L192.791 3.79697L192.045 3.64787L190.554 3.94608H188.019L186.379 4.24429L184.739 4.84071L183.844 5.13892L182.801 5.43712L181.459 6.48086L180.415 7.6737L180.117 8.12101H179.819L179.669 9.31385H179.371L179.222 10.0594L179.073 10.3576H178.775L178.626 11.4013L178.328 12.2959V12.8924L178.029 13.1906V15.5762L178.328 16.7691L178.178 17.3655L178.477 17.8128L178.924 19.453L179.52 20.6458L179.222 21.3913L178.626 20.6458L177.88 18.4092L177.582 15.8745V14.0852L177.88 11.2522L178.477 9.46295L179.371 7.8228L180.713 6.33175L182.353 4.98981L184.888 3.79697L186.976 3.05145L187.572 2.90234Z" fill="#F55B42"/>
<path d="M169.682 4.09521H169.831V42.1169H169.682L169.533 38.2402L169.384 37.7929V37.3456L169.533 37.1965H169.384L169.235 33.4689V29.443L169.086 28.8466L169.235 26.0136V14.3834L169.384 13.1906V10.8049L169.533 9.61209V5.58626L169.682 4.09521Z" fill="#E23D34"/>
<path d="M224.551 3.64795H232.901V3.79705L230.366 4.09526L208.15 4.24437L207.703 4.39347V4.69168H207.404L207.553 7.52467L207.703 9.46303L208.001 10.5068L207.852 10.6559L211.43 10.805V10.9541H207.106L206.957 10.5068V8.2702L207.106 3.79705L224.551 3.64795Z" fill="#F16E44"/>
<path d="M245.276 10.8047H245.873V15.8742L245.724 19.4528L244.829 19.1546L244.68 17.6635L244.232 17.8126L243.785 15.4269L243.934 13.6377L244.978 11.8484L245.276 10.8047Z" fill="#E24235"/>
<path d="M181.161 41.0728L181.906 41.371L183.248 42.1165L184.59 42.7129L185.783 43.1602L187.125 43.6075L188.318 43.9057L190.554 44.0548L193.089 43.7566H193.984L193.835 44.5022L192.045 44.9495H188.467L186.081 44.3531L183.696 43.3093L181.608 42.1165L181.012 41.5201L181.161 41.0728Z" fill="#F65942"/>
<path d="M245.576 26.7588H245.725V37.047L245.427 36.7488L245.278 36.0033L244.831 35.8542L244.533 34.6613L244.234 31.5301V30.1882L244.682 28.8463L244.98 28.1007L245.278 26.9079L245.576 26.7588Z" fill="#E23D34"/>
<path d="M180.865 22.4346L181.76 22.7328L183.102 23.7765L184.295 24.3729L184.742 24.522V24.8202L185.189 24.6711L186.68 25.2676L188.32 25.864L189.364 26.3113L189.812 26.4604L191.004 26.7586L191.75 27.0568L193.092 27.2059L194.881 28.1006L196.074 28.9952L196.372 29.5916L196.969 30.0389L197.416 31.0826V33.6174H197.267L196.969 30.9335L196.372 30.0389L195.03 28.9952L193.539 28.1006L190.408 27.2059L185.189 25.5658L183.251 24.8202L180.865 23.1801L180.418 22.7328H180.865V22.4346Z" fill="#F55C42"/>
<path d="M96.3236 41.3711H97.0692L97.5165 42.2657L98.1129 42.4148L98.8584 42.1166L99.0075 42.5639L99.6039 42.8621L100.349 43.3095V43.6077H100.648V43.9059L102.139 44.055V44.2041H96.3236L95.5781 43.9059V43.1604L96.1745 41.9675L96.3236 41.3711Z" fill="#F65A42"/>
<path d="M126.591 41.9678H127.038L127.486 43.4588V44.2043H120.776L120.329 43.757L120.18 42.7133L120.627 42.5642L121.373 43.0115L124.653 43.1606L126.293 43.0115L126.591 41.9678Z" fill="#F65842"/>
<path d="M271.52 3.64795L288.816 3.79705L291.649 4.24437L294.183 5.2881L294.332 5.73542L293.587 5.58631L291.947 4.84079L290.008 4.69168L288.07 4.39347L285.237 4.24437L271.967 4.09526L271.52 3.94616V3.64795Z" fill="#F36543"/>
<path d="M239.758 3.79688H264.211V10.6557H264.062V4.09508H261.527L259.589 4.24419L239.907 4.09508L239.758 3.79688Z" fill="#F75742"/>
<path d="M287.921 54.4922L288.517 54.6413L287.026 55.3868H286.728L286.579 56.4305L285.386 58.0707L285.088 58.8162V61.0528L285.386 62.0965L285.983 62.3947L287.325 63.2894L289.71 64.3331L294.183 65.8241L295.376 66.5697L295.078 66.7188L293.14 65.8241L287.623 64.184L285.833 63.2894L284.939 62.0965L284.641 61.0528V58.518L285.237 57.027L286.132 55.685L287.026 54.9395L287.921 54.4922Z" fill="#B7B8B9"/>
<path d="M131.805 3.79688H145.97L148.952 4.24419L151.188 4.6915L153.276 5.73524L154.618 6.92807L154.319 7.07718L153.425 6.33166L150.89 5.13882L149.101 4.84061L147.908 4.5424L146.417 4.39329L143.584 4.09508H132.103L131.805 3.79688Z" fill="#F55E42"/>
<path d="M183.697 12.5942H183.995L183.697 13.7871V15.7254L184.144 16.6201L185.337 17.3656L186.082 17.8129L187.275 18.2602L188.17 18.7075L189.959 19.1548L192.046 19.6022L194.73 20.6459L196.818 21.3914L197.116 21.6896L195.923 21.5405L195.029 21.2423L193.538 20.795L190.705 19.6022H189.81L189.512 19.4531L188.319 19.304L187.126 18.8566L184.144 17.5147L183.548 16.7692L183.398 16.1728V13.638L183.697 12.5942Z" fill="#F46143"/>
<path d="M289.713 55.9834H292.099L293.441 56.5798L294.633 57.4744L295.528 58.3691L295.379 58.6673L294.932 58.3691L295.081 58.8164H294.783L293.888 57.7727L292.397 57.0271H290.011L289.117 57.4744L288.52 57.3253L288.371 56.7289L289.266 56.1325L289.713 55.9834Z" fill="#B6B7B8"/>
<path d="M196.819 34.8105L196.968 35.2579L195.924 36.4507L195.179 37.3453L193.539 37.9417L191.899 38.24H188.171L187.127 37.9417L185.636 37.0471V36.7489L185.04 36.5998L183.996 35.407L184.294 34.9597L185.04 35.7052L186.829 37.1962L188.32 37.6435L189.364 37.7926H191.75L193.986 37.1962L194.881 36.7489L196.521 35.407L196.819 34.8105Z" fill="#F46143"/>
<path d="M207.255 3.9458H219.482V4.09491L208.15 4.24401L207.703 4.39312V4.69132H207.404L207.553 7.52432L207.703 9.46268L208.001 10.5064L207.852 10.6555L211.43 10.8046V10.9537H207.106L206.957 10.5064V8.26984L207.106 7.82253L207.255 3.9458Z" fill="#F75742"/>
<path d="M292.691 41.3711H293.139L294.033 42.8621L295.524 43.1604H296.568L297.314 43.9059V44.2041H294.033L293.139 43.9059L292.841 42.8621L292.691 41.3711Z" fill="#F55C42"/>
<path d="M108.103 3.64795H113.322L113.172 4.09526L111.831 4.69168H108.55L107.954 4.98989L107.805 4.24437L108.103 3.64795Z" fill="#F65742"/>
<path d="M131.805 31.2319H131.954L132.103 43.1603L134.19 43.3094L134.936 43.6076V43.9058L137.918 44.0549V44.204H131.805V31.2319Z" fill="#F26644"/>
<path d="M163.57 69.1045L164.167 69.85L165.658 71.192L167.596 72.3848L169.236 73.1303L169.833 73.2794L173.113 73.4285L172.964 73.7267H169.833L167.596 73.1303L165.807 72.2357L164.316 70.8937L163.57 69.5518V69.1045Z" fill="#B7B8B9"/>
<path d="M271.52 37.9414H271.669L271.967 41.9672L272.116 42.4145H272.414L272.861 42.8619L274.054 43.3092V44.2038H271.52V37.9414Z" fill="#F75742"/>
<path d="M189.362 9.46289L190.555 9.612L191.748 9.46289L192.195 9.612L192.344 9.9102L193.686 10.3575L193.984 10.9539L194.58 11.2521L194.73 11.8486L193.388 10.9539L191.3 10.2084H188.169L186.678 10.6557L185.187 11.5504L184.441 11.8486L184.591 11.2521H184.889L185.187 10.6557L187.125 10.0593L189.064 9.612L189.362 9.46289Z" fill="#F55E42"/>
<path d="M295.078 7.52441L295.824 7.67352L296.569 8.86636L297.016 9.01546L297.762 11.4011L297.613 11.6993L297.166 11.252L296.867 10.8047L296.122 10.9538V10.5065V10.0592L296.42 9.46278L296.122 9.61188L295.973 10.3574L295.675 10.2083L295.525 9.46278L295.227 8.86636L295.078 7.52441Z" fill="#E24034"/>
<path d="M197.266 5.2876L197.862 5.58581L199.651 7.67327L200.993 9.46253L201.888 11.8482L202.484 14.5321V15.4267L202.037 15.5758L202.186 14.8303L201.59 13.6375L201.441 12.1464L200.993 10.5063L200.695 9.76074L200.248 9.01522L199.502 8.5679L197.266 5.4367V5.2876Z" fill="#F45F43"/>
<path d="M176.391 30.3374L182.504 30.4865V30.6356L179.82 31.232L177.434 31.0829L177.285 32.7231L176.689 32.8722L176.391 30.3374Z" fill="#F46243"/>
<path d="M190.856 56.2817L191.601 56.4308L192.048 57.1764H192.496L193.539 58.071L194.732 59.1147L195.329 59.562L196.671 59.7111L196.969 59.8603L196.372 60.1585H195.18L194.136 59.7111L193.092 58.5183L191.75 57.4746L189.961 56.7291V56.5799L190.856 56.2817Z" fill="#B7B8BA"/>
<path d="M289.708 54.0449H291.944L294.032 54.4922L295.225 55.0887L296.119 55.8342L297.461 57.7725L298.207 59.2636V59.86H295.225V59.7109L296.417 59.5618H297.759L297.163 58.0708L295.97 56.2815L294.628 55.2378L292.988 54.6413L292.243 54.4922H288.664L288.813 54.194L289.708 54.0449Z" fill="#B8B9BB"/>
<path d="M277.482 10.5063H277.632V20.6455L277.333 20.4964L277.035 18.4089V15.8741L277.184 14.0849V10.6555L277.482 10.5063Z" fill="#E23D34"/>
<path d="M254.372 54.1938H256.161L257.653 54.4921L258.398 54.7903V55.0885L256.609 54.7903H253.925L251.539 55.5358L249.75 56.1322V55.834L251.539 54.7903L253.179 54.343L254.372 54.1938Z" fill="#B8B9BA"/>
<path d="M278.082 10.2085H287.625L289.414 10.3576L289.861 10.5067V10.8049L290.756 11.1031L291.501 11.8486L291.651 12.7433L290.607 11.8486L289.414 11.1031L287.774 10.6558L286.581 10.5067L278.082 10.3576V10.2085Z" fill="#F46043"/>
<path d="M279.121 27.3555H282.699L285.085 27.6537V27.8028L278.972 27.9519L277.928 27.8028L277.779 33.0215H277.63L277.48 27.8028L278.375 27.5046L279.121 27.3555Z" fill="#F46143"/>
<path d="M277.486 31.9775H277.635L277.784 44.2041H277.486L277.188 37.9417V34.3632L277.486 31.9775Z" fill="#E23D34"/>
<path d="M137.775 30.188H137.924V42.5637H137.775L137.626 41.6691V38.0905L137.477 34.3629V32.1264L137.626 30.3371L137.775 30.188Z" fill="#E23D34"/>
<path d="M137.775 11.5503H137.924V21.093H137.626L137.477 19.602V14.9797L137.626 11.6994L137.775 11.5503Z" fill="#E23D34"/>
<path d="M192.049 27.0571L193.54 27.3553L195.776 28.6973L196.373 29.5919L196.969 30.0392L197.417 31.083V33.6177H197.268L196.969 30.9339L196.373 30.0392L195.031 28.9955L193.54 28.1009L191.602 27.5044L192.049 27.0571Z" fill="#F55E42"/>
<path d="M286.129 71.7886L286.874 72.0868L288.515 72.8323L290.155 73.2796H292.689L295.075 72.8323L296.417 71.9377L296.715 72.0868L295.821 72.8323L294.479 73.4287L292.54 73.7269H290.453L288.365 73.2796L286.278 72.2359L286.129 71.7886Z" fill="#B9BABC"/>
<path d="M188.768 54.1938H190.558L192.794 54.6412L194.434 55.5358L196.074 57.0268L196.969 58.5179L196.82 58.9652L195.627 57.1759L194.434 55.9831L192.943 55.2376L190.856 54.6412L188.172 54.4921L188.768 54.1938Z" fill="#B8B9BB"/>
<path d="M138.219 10.8047H147.463L149.402 11.252L149.998 11.8484V12.1466L150.445 12.2957L150.893 13.4886L150.744 13.9359L149.849 12.4448L148.507 11.4011L146.718 11.1029L138.219 10.9538V10.8047Z" fill="#F17044"/>
<path d="M261.082 19.6021H262.871V26.9082L262.424 26.61V20.0494L261.082 19.7512V19.6021Z" fill="#E23D34"/>
<path d="M157.308 17.8125H157.457V19.3035L156.414 22.5839L155.221 24.6713L154.923 24.9695L154.773 24.5222L155.966 21.9874H156.264L156.414 20.6455L156.861 19.3035L157.308 17.8125Z" fill="#F55F42"/>
<path d="M297.466 11.5503L297.913 11.9976L298.211 13.3396L298.36 14.6815V16.9181L298.062 17.5145H297.764L297.615 16.6199L297.764 14.5324L297.615 13.936V12.594L297.316 11.8485L297.466 11.5503Z" fill="#E44837"/>
<path d="M207.255 7.82227L207.553 8.26958L207.852 9.90973L208.001 10.5062L207.852 10.6553L211.43 10.8044V10.9535H207.106L206.957 10.5062V8.26958L207.255 7.82227Z" fill="#F36543"/>
<path d="M164.164 62.0967L164.76 62.3949L167.593 63.5877L168.786 64.3333L169.83 64.6315V64.7806H168.786L166.401 63.8859L164.313 62.544L164.164 62.0967Z" fill="#B7B8BA"/>
<path d="M223.362 42.415H223.511L223.66 44.0552L223.511 44.2043H217.547V42.5641L217.696 43.1606L218.74 43.3097L218.889 43.9061L223.362 44.0552V42.415Z" fill="#F55E42"/>
<path d="M164.165 43.3096L166.402 43.4587L166.849 43.7569L166.7 43.906L168.042 44.0551V44.2042L163.867 44.3533L164.016 43.6078L164.165 43.3096Z" fill="#F65841"/>
<path d="M177.883 17.0669L178.33 17.216V17.8124H178.479L178.927 19.4526L179.523 20.6454L179.225 21.3909L178.628 20.6454L177.883 18.4088V17.0669Z" fill="#F65A42"/>
<path d="M291.944 17.6636L292.093 18.26L291.348 19.751L290.751 20.0493L290.453 20.6457L288.813 20.9439H283.445V20.7948L288.515 20.6457L290.006 20.3475L290.304 19.751L291.497 18.8564L291.944 17.6636Z" fill="#F26A44"/>
<path d="M196.82 34.8105L196.969 35.2579L195.925 36.4507L195.179 37.3453L193.539 37.9417L192.197 38.0909L191.75 37.7926L193.987 37.1962L194.881 36.7489L196.521 35.407L196.82 34.8105Z" fill="#F36943"/>
<path d="M248.406 57.1763L248.705 57.3254L248.257 58.6673L247.065 60.6057L246.766 61.3512H246.617L246.766 60.0093L247.661 58.22L248.406 57.1763Z" fill="#B6B7B9"/>
<path d="M149.254 4.39307L151.192 4.69128L153.28 5.73501L154.622 6.92785L154.323 7.07695L153.429 6.33143L150.894 5.13859L149.552 4.84038V4.54217L149.254 4.39307Z" fill="#F46043"/>
<path d="M188.02 9.91016H191.151V10.0593L188.169 10.2084L186.678 10.6557L185.187 11.5503L184.441 11.8485L184.591 11.2521H184.889L185.187 10.6557L187.125 10.0593L188.02 9.91016Z" fill="#F36843"/>
<path d="M292.99 56.4307L293.736 56.7289L295.227 58.0708L295.525 58.6672L294.929 58.369L295.078 58.8163H294.78L293.885 57.7726L293.139 57.1762L292.543 56.5798L292.99 56.4307Z" fill="#B8B9BB"/>
<path d="M116.75 32.5737L117.496 32.7228L117.943 33.1701L118.39 34.2139L118.539 35.5558L117.943 35.4067L117.346 33.7666L116.75 32.5737Z" fill="#F55D42"/>
<path d="M286.427 28.1011L287.173 28.3993L287.769 28.6975V28.9957L288.365 29.2939L289.26 30.4868V30.785L288.813 30.6359L287.918 29.5921L286.129 28.5484L286.427 28.3993V28.1011Z" fill="#F55C42"/>
<path d="M196.52 67.9121L196.669 68.5085L196.818 68.3594H196.967L196.818 69.7014L196.072 71.0433H195.774L196.072 69.9996L195.625 70.4469L196.072 69.1049L196.52 67.9121Z" fill="#B6B7B9"/>
<path d="M244.383 14.085H244.831L244.98 16.0233V17.0671L244.533 17.5144L244.383 16.3215L244.234 14.8305H244.533L244.383 14.085Z" fill="#E84B35"/>
<path d="M290.457 34.6616L290.904 35.1089L291.501 36.1527L291.948 37.1964L292.097 38.091H291.799L291.65 38.3892L290.457 34.9598V34.6616Z" fill="#F46142"/>
<path d="M243.785 28.3994L243.934 28.8467L243.785 30.0396L243.486 31.9779L243.188 32.2761L243.039 31.3815L243.337 29.5923L243.785 28.3994Z" fill="#E23D34"/>
<path d="M155.812 9.16455L156.26 9.76097L157.304 12.4449V13.1904L156.856 12.594L156.558 11.6993L156.26 11.5502L156.111 10.5065L155.812 9.16455Z" fill="#F36543"/>
<path d="M286.129 71.7886L286.874 72.0868L288.515 72.8323L289.857 73.2796V73.5778L288.365 73.2796L286.278 72.2359L286.129 71.7886Z" fill="#B7B8BA"/>
<path d="M193.539 20.4966L194.732 20.6457L196.819 21.3912L197.118 21.6894L195.925 21.5403L195.03 21.2421L193.539 20.7948V20.4966Z" fill="#F46043"/>
<path d="M200.992 27.8027L201.589 27.9518L201.887 28.1009V28.3992H202.185V29.2938L202.036 29.592H201.589L201.141 28.5483L200.992 27.8027Z" fill="#E23E34"/>
<path d="M108.102 3.64795H113.321V3.79705L109.295 3.94616L109.146 4.09526H107.953L108.102 3.64795Z" fill="#ED8646"/>
<path d="M244.978 26.3115L247.662 26.7588V26.9079H245.873V28.399H245.723V26.7588L244.68 26.9079L244.978 26.3115Z" fill="#E75E3C"/>
<path d="M193.987 37.1958L194.583 37.3449L194.136 37.7922L192.794 38.0904L191.75 37.9413V37.7922L193.987 37.1958Z" fill="#F26B44"/>
<path d="M155.966 21.9873H156.115V23.031L155.072 24.9694L154.773 24.8203L155.072 23.9257L155.966 21.9873Z" fill="#F55D42"/>
<path d="M201.739 12.8921H202.037L202.484 14.5322V15.4269L202.037 15.576L202.186 14.8305L201.59 13.6376L201.739 12.8921Z" fill="#F46343"/>
<path d="M164.316 67.3154L165.807 67.4645L165.957 68.5083L166.106 68.8065L165.509 68.5083L164.316 67.4645V67.3154Z" fill="#B6B7B9"/>
<path d="M239.609 43.3096L240.504 43.4587L240.653 44.0551L240.951 44.3533H239.609V43.3096Z" fill="#F05C3F"/>
<path d="M156.706 20.3477H157.004L156.706 21.8387L156.258 22.7333H156.109L156.258 21.3914L156.557 20.4968L156.706 20.3477Z" fill="#ED8646"/>
<path d="M150.597 19.1548L150.746 19.6021L149.852 20.944L148.659 21.3914L148.062 21.2423L149.852 20.3476L150.597 19.1548Z" fill="#F36643"/>
<path d="M177.582 14.085H177.731V15.576L178.178 15.7251V16.4706V16.918L177.731 17.3653L177.582 15.8742V14.085Z" fill="#F36943"/>
<path d="M148.809 11.4014L149.405 11.6996L150.449 12.296L150.896 13.4888L150.747 13.9361L149.852 12.4451L148.809 11.5505V11.4014Z" fill="#F17144"/>
<path d="M196.52 29.8896L196.967 30.0388L197.414 31.0825V33.6173H197.265L196.967 30.9334L196.52 30.1879V29.8896Z" fill="#F16F44"/>
<path d="M201.145 10.6558H201.443L202.039 12.445V12.8923L201.592 12.7432L201.145 11.1031V10.6558Z" fill="#F55E42"/>
<path d="M297.761 59.1147L298.209 59.2639V59.8603H295.227V59.7112L296.419 59.5621H297.761V59.1147Z" fill="#B8AEB0"/>
<path d="M233.943 4.24414H234.092V6.62982L233.645 6.0334V5.43698L233.794 4.39325L233.943 4.24414Z" fill="#E23D34"/>
<path d="M166.102 68.8062L166.847 68.9553L167.593 69.7008L168.189 70.1481L168.04 70.4463L167.145 69.8499L166.102 68.9553V68.8062Z" fill="#B7B8BA"/>
<path d="M290.306 64.6313L292.095 65.0787L292.393 65.3769L291.052 65.2278L290.008 64.9296L290.306 64.6313Z" fill="#B7B8BA"/>
<path d="M291.951 17.6636L292.1 18.26L291.354 19.751L290.758 19.9001V19.4528L291.503 18.8564L291.951 17.6636Z" fill="#F36843"/>
<path d="M193.539 20.4966L194.732 20.6457L195.179 21.093L194.732 21.2421L193.539 20.7948V20.4966Z" fill="#F55D42"/>
<path d="M266.777 81.707H271.979L273.828 81.8581L275.216 82.3112L276.371 83.0664L277.065 83.9726L277.412 85.1809V87.2954L276.949 88.2772L276.14 89.1079L274.984 89.8631L273.713 90.2407L271.517 90.4672L269.552 90.5427H266.893L266.777 89.2589V81.707Z" fill="#6A6A6A"/>
<path d="M231.054 81.5557H234.175V85.1806L234.059 90.6179H231.863L231.747 85.6337L231.632 85.4071L230.707 86.842L229.667 88.9565L228.973 90.4669L228.626 90.6179H227.123L225.274 86.842L224.465 85.1806L224.118 84.954L224.234 87.2951V90.6179H222.153L222.037 90.5424L221.922 81.6312H225.274L226.777 85.4071L228.048 87.8992V88.0503H228.279L228.395 87.5217L229.204 85.4071L230.707 82.3864L231.054 81.5557Z" fill="#6A6A6A"/>
<path d="M130.957 81.6313H137.777L139.626 81.7069L140.204 82.0845L141.245 83.3683L141.476 83.8969V84.5766L141.129 85.4073L140.32 86.0114L139.742 86.3135L139.973 86.9932L141.476 89.5608L141.938 90.3915V90.5426L141.129 90.6181H139.742L139.395 90.0139L138.355 88.428L137.546 87.4463L136.968 86.9932L136.274 86.9177L133.384 86.8421V90.6181H130.957V81.6313Z" fill="#6A6A6A"/>
<path d="M118.473 81.6313H125.293L126.564 81.8579L127.72 82.5376L128.298 83.2928L128.414 83.6704V84.8031L127.951 85.7849L127.373 86.389L126.68 86.7666L125.524 87.0687L122.634 87.2197L121.016 87.2953L120.9 90.6181H118.588L118.473 81.6313Z" fill="#6A6A6A"/>
<path d="M187.133 81.707H196.842L196.611 81.9336L196.496 83.0664L189.329 83.1419V85.1809H196.149L196.265 85.3319V86.6158H189.329V89.0324H196.842L196.958 89.1834L197.074 90.5427L196.727 90.6183H188.173L187.133 90.5427V81.707Z" fill="#6A6A6A"/>
<path d="M254.522 81.707H264L263.885 83.0664L259.955 83.1419H256.602L256.718 85.1809L263.191 85.2564L263.307 86.5402L263.191 86.6158H256.718V89.0324L260.879 88.9568H264.232V90.5427L259.955 90.6183H254.522L254.406 81.7826L254.522 81.707Z" fill="#6A6A6A"/>
<path d="M166.212 81.4805H168.177L168.755 82.0846L169.68 83.595L171.76 87.2954L173.147 89.4099L173.725 90.2407L174.072 90.6182H171.067L170.258 88.8058L169.911 87.9751H165.056L164.016 89.9386L163.669 90.6182H161.473L162.86 88.0506L164.131 85.785L165.403 83.2174L166.096 81.556L166.212 81.4805Z" fill="#6A6A6A"/>
<path d="M148.988 81.5557L151.185 81.6312L151.531 82.0843L152.918 84.803L154.19 87.0685L154.999 88.2768L156.271 85.9358L157.542 83.8212L158.698 81.7067L158.814 81.5557H161.01L159.854 83.4436L157.311 88.2768L156.617 89.4851L155.924 90.3914L155.461 90.6179H154.19L153.612 90.3914L152.225 87.6727L150.838 85.2561L149.682 83.1416L148.988 81.7067V81.5557Z" fill="#6A6A6A"/>
<path d="M269.092 83.0664H271.866L273.6 83.2174L274.409 83.5195L274.987 84.1237L275.219 84.5768L275.334 85.1809V87.2199L274.987 87.9751L274.525 88.4282L273.831 88.8058L272.791 88.9569L271.52 89.0324H269.208L269.092 88.4282L268.977 83.2174L269.092 83.0664Z" fill="white"/>
<path d="M241.812 81.6313H252.447V83.1417L250.482 83.2172H248.17V90.5426L248.054 90.6181H246.205L246.089 90.5426V83.1417H241.812V81.6313Z" fill="#6A6A6A"/>
<path d="M205.629 81.4805L207.941 81.556V88.9568H211.177L213.72 89.0324V90.5427L213.489 90.6182H205.629V81.4805Z" fill="#6A6A6A"/>
<path d="M176.732 81.6313H184.824V83.0662L183.899 83.1417H180.547V90.6181H178.813L178.697 83.2172L174.305 83.1417V81.7069L176.732 81.6313Z" fill="#6A6A6A"/>
<path d="M216.488 81.4805L218.916 81.556L219.031 82.9153V88.1261L218.916 90.6182H216.604L216.488 90.5427V81.4805Z" fill="#6A6A6A"/>
<path d="M144.48 81.5557H146.792L146.677 90.6179H144.48V81.5557Z" fill="#6A6A6A"/>
<path d="M237.418 81.4805H238.921L239.614 81.556V89.4855L239.499 90.6182H237.418V81.4805Z" fill="#6A6A6A"/>
<path d="M133.498 82.9907L137.313 83.0662L138.469 83.2173L139.047 83.5949V84.8032L138.816 85.0297L138.353 85.1052L138.006 85.4073H135.579L133.383 85.3318V83.0662L133.498 82.9907Z" fill="white"/>
<path d="M121.131 83.1416H123.096L125.293 83.2171L125.87 83.2926L125.986 83.4437V84.5009L125.755 85.3316L125.177 85.5582L124.252 85.6337L121.131 85.7092L121.016 85.6337V83.2171L121.131 83.1416Z" fill="white"/>
<path d="M266.777 81.707H271.979L273.828 81.8581L275.216 82.3112L276.371 83.0664L277.065 83.9726L277.412 85.1809V87.2954L276.949 88.2772L276.14 89.1079L274.984 89.8631L273.713 90.2407L271.517 90.4672L269.552 90.5427H266.893V86.2382H267.009L267.124 88.0506V90.3917L272.788 90.1651L274.175 89.9386L275.331 89.41L275.909 88.9568L276.14 88.3527L276.603 87.2954L276.718 86.0116L276.487 84.4257L276.025 83.444L275.562 82.8398L274.753 82.3867L273.713 82.1601L271.17 82.0091H267.355L267.009 82.0846L266.893 82.4622H266.777V81.707Z" fill="#6A6A6A"/>
<path d="M269.091 82.7642H272.558L273.714 82.9152L274.523 83.2173L275.448 83.8969L275.795 84.6521L276.026 86.3891L275.795 87.5218L275.332 88.277L274.755 88.7301L273.021 89.1077L271.98 89.1833H269.206V89.0322L272.789 88.8812L273.83 88.7301L274.639 88.277L275.101 87.5974L275.217 87.2198V85.1808L274.986 84.3501L274.523 83.7459L274.408 83.5193L273.945 83.3683L273.136 83.2173L271.865 83.1418L269.091 83.0662L268.859 83.3683V82.9907H269.091V82.7642Z" fill="#6A6A6A"/>
<path d="M145.867 81.5557H146.792L146.676 90.6179H145.983V88.4279L146.098 81.7067H145.867V81.5557Z" fill="#6A6A6A"/>
<path d="M167.368 83.9722L167.831 84.2742L168.64 85.7091L168.987 86.5398L168.871 86.6153H165.75L165.866 86.2377L167.137 84.1987L167.368 83.9722Z" fill="white"/>
<path d="M187.133 81.707H196.842L196.727 81.8581H187.364L187.48 86.9933V90.3917L191.988 90.4672V90.5427H187.133V81.707Z" fill="#6A6A6A"/>
<path d="M166.212 81.4805L166.443 81.556L165.75 83.1419L164.594 85.634L163.322 87.8996L162.282 90.0896L161.819 90.6182L161.473 90.5427L162.282 89.1834L163.322 87.2199L164.362 85.3319L165.403 83.2174L166.096 81.556L166.212 81.4805Z" fill="#6A6A6A"/>
<path d="M148.988 81.5557L149.566 81.6312L150.375 83.066L150.953 84.4254L151.3 85.4826L152.225 87.1441V87.2951H151.994L150.838 85.2561L149.682 83.1416L148.988 81.7067V81.5557Z" fill="#6A6A6A"/>
<path d="M254.522 81.707H264L263.885 81.9336H260.764L254.753 82.0091L254.637 84.0481H254.522L254.406 81.7826L254.522 81.707Z" fill="#6A6A6A"/>
<path d="M150.719 81.6313L151.297 81.7069L152.684 84.4255L153.609 86.087L153.493 86.389L152.337 84.7276L151.181 82.7641L150.719 81.8579V81.6313Z" fill="#6A6A6A"/>
<path d="M165.17 87.144L165.286 87.3706L164.015 89.9382L163.783 90.5424H163.09L163.668 89.2586L164.477 87.8237L164.939 87.5216L165.17 87.144Z" fill="#6A6A6A"/>
<path d="M160.666 81.5557L161.012 81.6312L160.319 82.6884L159.163 84.7275L158.469 86.0868L158.238 86.1623L158.469 85.4071L159.279 83.7457L159.972 82.5374L160.55 81.7822L160.666 81.5557Z" fill="#6A6A6A"/>
<path d="M163.091 87.8999L163.207 88.1265L162.282 90.0899L161.819 90.6186L161.473 90.5431L162.282 89.1837L162.86 88.0509L163.091 87.8999Z" fill="#6A6A6A"/>
<path d="M157.08 84.6519H157.311L156.964 85.407L155.808 87.3705L155.346 88.2012H155.23L155.346 87.5971L156.733 85.1805L157.08 84.6519Z" fill="#6A6A6A"/>
<path d="M144.598 87.0688H144.713L144.829 87.7485L144.944 90.3917L145.06 90.5427H144.598V87.0688Z" fill="#6A6A6A"/>
<path d="M233.951 87.5977H234.066V90.6184H233.488L233.719 90.2408L233.951 87.5977Z" fill="#6A6A6A"/>
<path d="M159.394 83.7456H159.625L159.279 84.5008L158.469 86.0867L158.238 86.1622L158.469 85.407L159.163 83.9722L159.394 83.7456Z" fill="#6A6A6A"/>
<path d="M274.868 89.6362L274.983 89.8628L273.712 90.2404L271.515 90.4669H270.938L271.4 90.2404L273.481 90.0893L274.521 89.7873L274.868 89.6362Z" fill="#6A6A6A"/>
<path d="M140.781 88.7305L141.128 88.957L141.937 90.3919V90.5429H141.359L140.897 89.7122L141.012 89.4857L141.475 90.1653L140.781 88.8815V88.7305Z" fill="#6A6A6A"/>
<path d="M164.36 85.6338L164.475 85.8603L163.435 87.6728L163.319 87.8994L162.973 87.9749L163.319 87.2197L164.129 85.7848L164.36 85.6338Z" fill="#6A6A6A"/>
<path d="M138.473 88.3525L138.935 88.7301L139.629 89.8629L139.86 90.316L140.438 90.4671V90.5426H139.629L139.051 89.4098L138.473 88.5791V88.3525Z" fill="#6A6A6A"/>
<path d="M271.515 88.957H272.209L271.977 89.1836H269.203V89.0326L271.515 88.957Z" fill="#6A6A6A"/>
<path d="M246.202 87.748H246.317L246.433 90.4667L246.779 90.5422H246.086L246.202 87.748Z" fill="#6A6A6A"/>
<path d="M180.316 87.9751H180.431L180.547 90.5427H179.969L180.2 90.1651L180.316 87.9751Z" fill="#6A6A6A"/>
<path d="M196.729 90.165L196.96 90.2406L197.076 90.5426L196.729 90.6182L193.492 90.5426V90.4671L196.729 90.3916V90.165Z" fill="#6A6A6A"/>
<path d="M140.895 89.4854L141.126 89.6364L141.472 90.2405H141.819L141.935 90.5426H141.357L140.895 89.7119V89.4854Z" fill="#6A6A6A"/>
<path d="M165.17 87.144L165.286 87.3706L164.939 88.1258L164.477 87.9748L164.708 87.6727L164.939 87.5216L165.17 87.144Z" fill="#6A6A6A"/>
<path d="M290.011 20.7949L290.16 21.2422L289.117 21.5404H288.669V21.2422L288.371 21.0931H289.415L290.011 20.7949Z" fill="#E23D34"/>
<defs>
<linearGradient id="paint0_linear_2241_1318" x1="34.933" y1="19.2896" x2="69.3459" y2="82.6039" gradientUnits="userSpaceOnUse">
<stop stop-color="#E94C36"/>
<stop offset="1" stop-color="#FEB34B"/>
</linearGradient>
</defs>
</svg>
