<svg width="186" height="100" viewBox="0 0 186 100" fill="none" xmlns="http://www.w3.org/2000/svg">
<path d="M45.0086 27.3203H49.562L52.3641 28.0208L54.8159 29.2468L56.3921 30.4727L57.618 31.8737L59.0191 34.3256L59.7196 36.4271L60.0699 38.3536V42.7319L59.1942 46.7599L58.1434 49.3869L56.7424 51.8387L55.3413 53.59L53.0646 55.8667L50.2625 57.618L47.9858 58.6688L45.534 59.3693L44.4832 59.5445H40.28L36.9525 58.6688L34.6758 57.4429L32.5742 55.5165L31.5235 54.1154L30.1224 51.3133L29.597 48.8615L29.4219 45.8842L29.9473 42.0313L30.8229 39.0541L32.224 36.252L33.4499 34.3256L34.8509 32.5743L36.4271 30.9981L38.879 29.4219L41.5059 28.196L43.9578 27.4954L45.0086 27.3203Z" fill="#062B50"/>
<path d="M91.2447 0H93.5214V0.175131L89.1431 1.22592L85.6405 2.62697L81.9627 4.55342L77.5845 7.18039L74.6072 8.9317L70.9295 10.683L67.9522 11.5587L65.3253 12.0841L58.8454 12.4343L50.9645 12.7846L45.01 13.31L39.0556 14.3608L34.6773 15.5867L31.1747 16.8126L28.1974 18.3888L26.4461 19.6147L24.6948 21.1909L23.1186 23.2925L21.8927 26.0946L21.7176 27.3205L22.7684 27.4956H31.1747L30.9995 29.2469L30.1239 32.9247L29.4233 33.8004L20.1414 33.9755L18.9155 38.3538L15.0626 53.4151L13.4864 57.9685L11.9102 61.296L10.1589 63.7478L8.23245 65.8494L6.65627 66.9002L4.90496 67.7758L3.50391 67.951L6.13088 57.4431L9.45837 44.4834L13.3113 29.4221L14.5372 25.2189L15.9382 22.2417L17.5144 20.1401L19.0906 18.3888L21.7176 16.4623L24.5197 15.0613L27.1466 14.0105L30.8244 13.1349L35.5529 12.4343L39.7561 12.0841H48.1624L52.5407 12.2592L54.1169 11.9089L57.0941 10.8581L61.4724 8.75657L65.5004 6.47986L70.0538 3.85289L73.3813 2.27671L77.5845 1.05079L79.686 0.700525L87.7421 0.175131L91.2447 0Z" fill="#062A4F"/>
<path d="M95.795 27.3203H99.823L102.625 28.0208L104.552 29.0716L106.303 30.6478L107.529 32.5743L108.054 34.5007V37.3028L107.354 39.9298L106.128 41.6811L104.727 43.0821L102.625 44.3081L100.348 45.1837L97.3712 45.8842L95.0945 46.2345L89.8406 46.5848H88.2644L88.0892 47.2853L88.6146 49.3869L89.3152 50.7879L90.7162 52.189L92.2924 52.8895L93.8686 53.2397H96.1453L98.7723 52.8895L101.224 52.189L103.501 51.3133L103.676 51.4884L104.026 54.6408V57.2678L101.574 58.3186L98.0717 59.1942L95.2696 59.5445H91.9421L88.9649 59.0191L86.6882 58.1434L84.9369 57.0926L83.0104 55.1662L81.9596 53.4149L81.084 51.4884L80.5586 48.8615V44.4832L81.2591 40.9806L82.3099 38.1785L83.711 35.5515L85.2871 33.4499L87.2136 31.3483L88.6146 30.2975L90.8913 28.8965L92.8178 28.0208L95.795 27.3203Z" fill="#062A4F"/>
<path d="M151.314 27.3203H155.692L158.144 28.0208L160.07 29.0716L161.472 30.2975L162.873 32.3991L163.398 33.9753V38.1785L162.697 40.1049L161.647 41.6811L160.421 42.907L158.144 44.3081L155.867 45.1837L152.715 45.8842L150.263 46.2345L146.936 46.4096H143.608L143.783 48.5112L144.659 50.6128L145.885 52.0138L147.286 52.7144L149.212 53.2397H151.839L154.992 52.7144L157.619 51.8387L159.02 51.3133L159.37 52.8895L159.72 56.9175L159.37 57.4429L155.167 58.844L152.014 59.3693L148.687 59.5445L145.359 59.1942L142.557 58.3186L140.456 57.0926L138.529 55.1662L137.303 53.2397L136.428 50.7879L135.902 48.1609V45.7091L136.077 43.6075L137.128 39.9298L138.529 36.7774L140.105 34.1504L142.032 32.0489L143.783 30.4727L146.41 28.8965L148.337 28.0208L151.314 27.3203Z" fill="#062B4F"/>
<path d="M138.879 27.8457H139.404L139.229 28.5462L136.252 34.1504L133.975 38.1785L131.874 42.0313L130.298 44.8334L127.496 49.7371L125.394 53.7651L123.818 56.3921L122.592 58.3186L122.066 58.844H115.937L114.711 58.4937L114.361 57.4429L112.434 46.2345L110.683 36.0769L109.457 29.0716V28.0208H117.338L118.214 33.4499L119.615 44.6583L120.14 49.9123L120.315 50.2625L122.767 44.4832L124.343 41.1557L126.095 37.8282L128.021 33.8002L129.422 30.9981L130.998 28.196L131.173 28.0208L138.879 27.8457Z" fill="#062C50"/>
<path d="M81.9598 27.1455L83.0106 27.3206L82.8354 29.5973L81.9598 33.8005L81.4344 35.0264H78.8074L76.881 35.7269L75.1297 36.9529L73.5535 38.8793L71.9773 41.8565L71.1016 44.6586L69.1752 54.2909L68.2995 58.3189L67.9493 58.8443H62.5202L60.7689 58.6692L60.5938 57.7935L61.8197 51.6639L63.571 42.0317L64.0964 39.2296L64.972 33.8005L65.6726 28.3714L65.8477 28.0212H72.5027L72.1524 32.0492V33.4502L73.9037 30.9984L75.655 29.2471L77.7566 28.0212L80.0333 27.3206L81.9598 27.1455Z" fill="#072D51"/>
<path d="M182.837 27.1455H185.639L185.464 29.2471L184.238 34.3259L183.888 34.8513L181.261 35.0264L179.335 35.7269L177.934 36.7777L176.708 38.0037L175.482 39.9301L174.606 41.6814L173.731 44.4835L171.104 57.6184L170.753 58.8443H163.923L163.223 58.6692L163.398 57.093L164.974 48.8618L166.55 40.2804L167.251 36.0772L168.301 28.3714L168.827 28.0212H174.956L174.781 33.2751L176.358 31.3487L177.408 30.1227L179.51 28.5466L182.137 27.3206L182.837 27.1455Z" fill="#062B50"/>
<path d="M45.5326 33.4502H47.459L49.2104 33.9756L50.6114 35.0264L51.4871 36.4274L52.0125 38.3539V41.3311L51.6622 43.9581L50.6114 47.1104L49.3855 49.5623L48.1596 51.1385L46.4083 52.7146L44.8321 53.4152H41.8548L39.7533 52.3644L38.5274 50.9633L37.8268 49.5623L37.4766 47.6358V45.0089L38.002 41.8565L39.0527 39.0544L40.6289 36.4274L42.2051 34.8512L44.3067 33.8005L45.5326 33.4502Z" fill="white"/>
<path d="M91.2425 0H93.5192V0.175131L89.1409 1.22592L85.6383 2.62697L81.9606 4.55342L77.5823 7.18039L74.605 8.9317L70.9273 10.683L67.9501 11.5587L65.3231 12.0841L58.8432 12.4343L50.9623 12.7846L49.211 12.9597H46.7592V12.6095H46.4089V12.2592H39.7539V12.0841H48.1602L52.5385 12.2592L54.1147 11.9089L57.0919 10.8581L61.4702 8.75657L65.4982 6.47986L70.0516 3.85289L73.3791 2.27671L77.5823 1.05079L79.6839 0.700525L87.7399 0.175131L91.2425 0Z" fill="#22B4B6"/>
<path d="M169.005 66.9004H170.406L170.056 69.002L169.005 75.1316L167.954 80.2104L167.779 81.4363L167.429 81.7866H166.553L166.028 81.086V80.7358L163.751 81.9617H162.175L161.124 81.2612L160.249 80.2104L159.898 79.1596V77.058L160.599 74.9564L161.65 73.3802L163.226 72.1543L164.452 71.6289L165.503 71.4538H166.904L167.779 71.8041L168.655 67.0755L169.005 66.9004Z" fill="#22B4B6"/>
<path d="M117.686 67.6006H120.838L122.414 68.3011L123.64 69.7022L123.99 71.2783L123.465 73.3799L122.414 74.781L120.838 75.8318L119.437 76.182H117.16L116.635 76.0069L115.759 80.5603L115.234 81.7862L115.059 81.9614H114.183L114.008 81.7862V80.0349L115.059 74.4307L115.759 70.5778L116.285 67.9508L116.46 67.7757L117.686 67.6006Z" fill="#22B4B6"/>
<path d="M96.8451 33.0996L98.9467 33.4499L99.9975 34.1504L100.698 35.0261V37.1276L99.6472 38.5287L98.2462 39.4043L95.9694 40.1049L92.2917 40.4551H88.9642L88.7891 39.9297L90.1901 37.1276L91.5912 35.3763L92.9922 34.3255L94.9187 33.4499L96.8451 33.0996Z" fill="white"/>
<path d="M151.314 33.2749H153.591L155.167 33.8003L156.043 34.676L156.218 35.0262V37.1278L155.167 38.5288L153.766 39.4045L151.314 40.105L147.987 40.4553H144.66L144.484 40.2802V39.4045L146.061 36.7775L147.637 35.0262L149.213 33.9754L151.314 33.2749Z" fill="white"/>
<path d="M136.431 69.3521H136.956L136.781 70.2277L136.256 71.8039L137.132 71.6288H138.533L138.883 71.979L138.708 72.8547L137.832 73.2049L136.256 72.8547L135.38 77.9335L135.205 79.8599L135.38 80.2102L136.606 80.7356L136.781 81.261L136.431 81.7864H134.68L133.979 81.4361L133.279 80.5605V78.8091L134.329 74.0806L134.505 72.8547H132.578L130.477 76.8827L128.2 80.9107L127.499 81.6112L126.098 81.7864L125.923 81.6112L125.573 78.4589L124.522 72.6795L124.172 71.979V71.4536L126.098 71.6288L126.974 77.0578L127.149 78.9843L127.499 79.5097L129.076 76.1822L130.827 72.8547L131.527 71.6288H135.03L135.205 70.0526L135.906 69.5272L136.431 69.3521Z" fill="#21B4B6"/>
<path d="M157.092 91.2437H159.544L160.594 91.769L161.295 92.6447V94.396L160.594 97.023L159.894 98.424L158.668 99.4748L157.617 99.8251H154.99L154.115 99.4748L153.414 98.5992V96.1473L153.939 94.0458L154.815 92.4696L155.866 91.5939L157.092 91.2437Z" fill="#083A5B"/>
<path d="M121.365 91.2437H123.992L125.043 91.769L125.568 92.2944L125.744 92.8198V94.2209L125.218 96.6727L124.342 98.424L123.117 99.4748L121.891 99.8251H119.789L118.563 99.2997L117.863 98.5992L117.688 97.3732L118.038 95.4468L118.913 92.8198L120.314 91.5939L121.365 91.2437Z" fill="#07385A"/>
<path d="M105.605 71.4536H107.882L108.932 72.1541L109.808 73.5552V75.1314L108.582 76.3573L106.656 77.0578L102.978 77.4081L103.328 78.9843L103.854 80.035L104.554 80.3853H106.656L108.407 80.035L108.582 80.9107L107.356 81.7864L106.656 81.9615H104.379L103.153 81.261L101.927 79.8599L101.227 78.1086L101.752 76.007L102.452 74.2557L103.854 72.5044L105.079 71.6287L105.605 71.4536Z" fill="#22B4B6"/>
<path d="M51.3164 71.4536H53.418L54.8191 72.3293L55.3445 73.2049V74.606L54.8191 75.6568L53.5931 76.7076L51.8418 77.2329L48.8646 77.4081V78.9843L49.39 79.8599L50.0905 80.3853L50.6159 80.5604H51.8418L53.9434 80.035V80.9107L53.0677 81.6112L51.8418 81.9615H50.0905L48.6895 81.4361L47.6387 80.2102L47.2884 79.3345L47.1133 78.2837V76.8827L47.8138 74.606L48.6895 73.2049L50.2656 71.8039L51.3164 71.4536Z" fill="#20B3B6"/>
<path d="M79.3308 71.4536H80.9069L81.9577 71.979L82.8334 73.0298L83.0085 74.2557L82.4831 75.4816L81.0821 76.7076L79.681 77.2329H76.1784L76.5287 79.1594L77.2292 80.035L78.6302 80.5604L80.0313 80.3853L80.5567 80.2102H81.7826L81.6075 81.0858L80.5567 81.7864L80.0313 81.9615H77.5794L76.1784 81.261L75.3027 80.2102L74.7773 78.9843V76.3573L75.653 74.4308L76.7038 72.8547L78.1048 71.8039L79.3308 71.4536Z" fill="#22B4B6"/>
<path d="M75.4798 91.4185H79.683L80.9089 92.119L81.084 93.1698L80.2084 95.7967L79.5079 99.1242L79.1576 99.6496H78.1068L78.4571 96.6724H74.9544L74.6042 99.2994L73.9037 99.6496L73.2031 99.4745V98.2486L74.429 92.8195L74.9544 91.7687L75.4798 91.4185Z" fill="#07395A"/>
<path d="M90.0176 71.2783L91.0684 71.4535L92.1192 72.3291L92.4695 73.0296V75.1312L91.9441 78.6338L91.4187 81.4359L91.2435 81.7862H89.8425L89.6674 81.6111V80.3852L90.543 76.3571L90.7181 74.0804L90.3679 73.2048L90.0176 73.0296H88.7917L87.2155 74.0804L86.1647 75.4815L85.2891 79.6846L84.7637 81.9613L83.1875 81.7862L83.3626 80.21L84.7637 73.555L84.9388 71.9788L85.2891 71.4535L86.1647 71.6286L86.515 72.3291V72.8545L88.0912 71.9788L89.142 71.4535L90.0176 71.2783Z" fill="#22B4B6"/>
<path d="M95.6198 91.4185H99.4727L100.699 91.9439L101.049 92.9946L100.523 95.0962L100.173 96.147L99.6478 98.774L99.1224 99.6496H98.0716L98.597 96.6724H95.0944L94.3939 99.4745H93.168L93.3431 97.7232L94.569 92.8195L95.0944 91.7687L95.6198 91.4185Z" fill="#073658"/>
<path d="M32.3991 67.7759H33.8002L33.625 69.1769L31.6986 79.3345V79.8599L36.252 80.0351L36.9525 80.2102L36.7774 81.6113L36.6023 81.7864H29.597L29.4219 81.6113L29.597 80.0351L31.3483 71.1034L32.0488 68.3013L32.3991 67.7759Z" fill="#22B4B6"/>
<path d="M148.513 67.7759H150.089L149.914 69.3521L148.163 77.9335L147.637 80.2102L152.191 80.0351L153.417 80.2102L153.242 81.4361L152.891 81.7864H146.587L145.711 81.4361L147.637 70.9282L148.338 67.951L148.513 67.7759Z" fill="#22B4B6"/>
<path d="M165.501 72.6797H166.727L167.427 73.03L167.252 74.9564L166.551 77.5834L165.501 79.5098L164.275 80.5606L163.049 80.7357L162.348 80.3855L161.473 78.6342V77.2331L162.173 75.1315L163.749 73.3802L164.8 72.8548L165.501 72.6797Z" fill="white"/>
<path d="M61.1218 92.4692L62.6979 92.6444L63.0482 93.1698L63.3985 94.2206L63.7487 94.5708L64.099 95.2713H65.5L66.0254 95.7967L65.6752 96.8475L64.6244 98.4237L64.2741 99.6496H63.0482L62.5228 99.2994L62.8731 98.5988L63.3985 97.7232V96.6724H62.6979L61.9974 97.7232L61.1218 98.4237L60.5964 98.5988H59.1953L58.3197 98.0734L58.1445 97.0227L58.6699 94.2206L59.3705 93.1698L60.071 92.6444L61.1218 92.4692Z" fill="white"/>
<path d="M47.8112 66.5498L49.0372 66.7249L49.7377 67.4255V67.9509L49.2123 68.126L47.2858 68.3011L46.4102 69.1768L45.8848 70.9281L45.7097 71.6286H47.1107L48.1615 71.8037L47.8112 72.6794L47.461 73.0297L45.7097 73.2048L45.1843 74.6058L43.7832 81.7862L42.9076 81.9614L42.207 81.7862L42.3822 79.6847L43.433 74.4307V73.2048L42.5573 72.6794L42.7324 71.8037L43.7832 71.4535L44.834 68.6514L45.8848 67.2503L47.8112 66.5498Z" fill="#22B4B6"/>
<path d="M49.2103 91.4185L50.4362 91.5936L51.487 93.6952L52.8881 97.3729L53.2383 97.5481L53.5886 95.0962L54.4642 91.7687L55.3399 91.4185L55.8653 91.9439L55.3399 94.3957L54.4642 98.0734L53.9388 99.2994L53.5886 99.6496H52.5378L51.8373 98.774L49.7357 93.52L49.3854 94.0454L48.6849 97.7232L48.1595 99.2994L47.9844 99.4745H46.9336L47.1087 97.8983L48.3346 92.6444L48.86 91.5936L49.2103 91.4185Z" fill="#083D5E"/>
<path d="M164.452 91.4185H165.503L166.203 92.6444L167.254 95.0962L168.13 97.1978V97.5481L168.48 97.3729L169.356 93.1698L169.881 91.5936L170.757 91.4185L170.932 91.5936V92.8195L169.706 98.0734L169.005 99.2994L168.655 99.6496L167.779 99.4745L167.079 98.5988L165.152 94.0454L164.802 93.3449L163.751 98.4237L163.226 99.4745H162.175L162 98.9491L163.401 93.3449L163.926 91.7687L164.452 91.4185Z" fill="#073859"/>
<path d="M69.1732 91.4185H70.0489L70.5743 92.2941L71.4499 98.774L71.2748 99.6496H70.3991L70.0489 99.2994L69.6986 98.0734H66.3711L65.4955 99.2994L64.7949 99.6496H64.2695L64.4447 98.4237L65.8457 96.147L68.2976 92.2941L69.1732 91.4185Z" fill="#083C5D"/>
<path d="M45.5339 91.4185L46.0593 91.5936L48.8614 91.7687L48.1608 94.0454L46.9349 99.4745H47.8106V99.6496L46.9349 99.8248H45.3587L43.2572 99.4745L43.082 99.1242L44.4831 93.1698L45.0085 91.7687L45.5339 91.4185Z" fill="white"/>
<path d="M30.2962 91.2437H32.7481L33.974 91.769L34.3243 92.4696L34.1491 93.6955L33.6237 94.2209L33.0983 94.0458L32.7481 92.6447H30.8216L29.4206 93.3452L29.2455 94.396L29.946 94.7463L32.3978 94.9214L33.2735 95.2717L33.6237 95.7971V97.1981L32.9232 98.5992L31.8724 99.4748L30.6465 99.8251H29.2455L27.6693 99.2997L26.9688 98.5992V97.1981L27.1439 96.8479L28.1947 96.4976L28.3698 97.8986L28.8952 98.424H30.8216L31.6973 97.8986L32.0476 97.1981V96.4976L30.1211 96.1473L28.3698 95.7971L27.8444 95.0965V93.6955L28.5449 92.2944L29.5957 91.4188L30.2962 91.2437Z" fill="#083D5E"/>
<path d="M124.172 71.4536L126.098 71.6287L126.974 77.0578L127.149 78.9843L127.499 79.5097L129.076 76.1822L130.827 72.8547L131.527 72.1541H132.053L132.228 73.0298L131.703 74.606L128.9 79.6848L127.85 81.261L126.974 81.7864H126.098L125.923 81.6112L125.573 78.4589L124.522 72.6795L124.172 71.979V71.4536Z" fill="#0CA5AF"/>
<path d="M99.2995 71.2783H100.525L101.576 71.8037L101.751 73.0296L101.401 73.2048L99.2995 73.0296L97.7233 73.555L96.3223 74.7809L95.6218 76.182L95.4466 76.8825V78.6338L96.3223 80.0349L97.0228 80.3852H98.9493L100.35 80.21L100.525 80.9105L99.8249 81.6111L98.7741 81.9613H96.6725L95.2715 81.2608L94.2207 80.0349L93.6953 78.809V77.0577L94.571 74.6058L95.7969 72.8545L97.5482 71.8037L99.2995 71.2783Z" fill="#0BA5AF"/>
<path d="M60.5951 91.2437H62.8718L63.9226 91.5939L64.448 92.995L64.2728 94.0458L63.3972 94.396L63.0469 94.0458L62.6967 92.8198L61.1205 92.6447L59.7194 92.995L59.0189 93.8706L58.4935 95.7971L58.3184 97.5484L58.6686 98.2489L59.194 98.424H60.5951L61.6459 97.8986L62.3464 97.023L62.8718 96.3225L63.5723 96.6727V97.7235L62.8718 98.7743L61.4707 99.65L60.5951 99.8251H58.6686L57.4427 99.2997L56.7422 98.5992V96.4976L57.4427 93.8706L58.1432 92.4696L59.7194 91.4188L60.5951 91.2437Z" fill="#073C5D"/>
<path d="M157.443 69.1768L158.143 69.3519L158.318 70.0524L157.968 71.6286H159.719L160.42 72.3291L159.895 73.2048L157.968 72.8545L157.443 74.6058L156.742 79.1592V80.0349L158.318 80.7354L158.494 81.6111L158.318 81.9613H156.742L155.867 81.6111L154.991 80.7354V77.7582L156.042 73.7302L156.217 73.3799L155.166 73.0296L154.641 72.154L155.166 71.6286H156.217L156.742 70.0524L157.443 69.1768Z" fill="#22B4B6"/>
<path d="M105.779 91.2437L108.931 91.4188L109.106 92.2944L108.756 92.8198H105.078L104.553 93.8706V94.7463L108.055 94.9214L107.88 96.1473H104.027L103.677 97.3732V98.2489L107.53 98.424L107.355 99.2997L107.005 99.65H102.451L101.926 99.2997L102.101 97.7235L103.152 93.3452L103.677 91.769L104.202 91.4188L105.779 91.2437Z" fill="#073E5E"/>
<path d="M8.5814 91.4185H9.28192L9.45705 92.119L8.93166 94.9211L12.7845 94.746L13.4851 92.119L14.0105 91.5936H14.8861L14.711 93.1698L13.1348 99.4745L12.9597 99.6496H11.9089L12.084 97.8983L12.4343 96.147H8.5814L7.88087 98.774L7.70574 99.4745H6.30469L6.65495 97.3729L7.70574 92.8195L8.23113 91.7687L8.5814 91.4185Z" fill="#083C5D"/>
<path d="M67.7741 71.4536H69.7006L70.5762 71.979L70.7514 72.1541V73.0298H67.599L66.1979 73.7303L65.1472 75.1314L64.6218 76.5324V78.8091L65.3223 80.035L66.5482 80.5604L67.9493 80.3853L69.5254 79.8599L69 81.4361L68.4746 81.7864L67.599 81.9615H65.8477L64.4466 81.4361L63.2207 80.035L62.6953 78.4589V76.8827L63.571 74.606L64.2715 73.5552L65.1472 72.6795L67.0736 71.6287L67.7741 71.4536Z" fill="#22B4B6"/>
<path d="M36.9492 91.4185H37.6498L37.8249 91.7687L37.6498 94.746H38.1752L39.4011 93.3449L41.6778 91.5936L42.9037 91.4185L43.0788 92.119L42.3783 92.9946L40.2767 94.3957L39.2259 95.6216L40.9773 98.0734L41.6778 99.1242V99.6496L40.4519 99.4745L39.5762 98.774L37.6498 96.3221H37.1244L36.2487 99.1242L36.0736 99.4745H34.8477L35.0228 97.8983L36.0736 93.6952L36.7741 91.5936L36.9492 91.4185Z" fill="#083E5E"/>
<path d="M140.806 91.4185L141.507 91.5936L141.682 91.7687V93.1698L140.631 97.5481L139.755 98.9491L138.354 99.6496L137.654 99.8248H135.552L134.676 99.4745L133.801 98.4237V96.6724L135.027 91.9439L135.377 91.5936H136.603L136.253 93.52L135.377 96.8475V98.0734L135.902 98.4237H137.654L138.704 97.8983L139.23 96.8475L140.456 91.7687L140.806 91.4185Z" fill="#073A5B"/>
<path d="M19.4395 91.2437H21.3659L22.767 91.4188L22.5918 92.4696L22.4167 92.8198H18.9141L18.3887 93.3452L18.2136 93.6955V94.7463H21.8913L21.7162 95.9722L21.5411 96.1473L17.6882 96.3225L17.3379 97.023V98.2489L21.1908 98.424L21.0157 99.2997L20.6654 99.65H16.2871L15.7617 99.2997L15.9369 97.1981L17.3379 92.1193L17.6882 91.4188L19.4395 91.2437Z" fill="#073F5F"/>
<path d="M84.0625 91.4185H88.9662L89.1413 91.7687L88.6159 92.8195H85.1133L84.5879 93.1698L84.2376 94.746L88.0905 94.9211L87.7403 96.147L83.8874 96.3221L83.362 97.5481L83.1869 98.2486H87.2149L87.39 98.5988L87.0397 99.4745L86.8646 99.6496H82.3112L81.9609 99.4745V97.8983L83.362 92.119L84.0625 91.4185Z" fill="#07395A"/>
<path d="M59.7227 71.4536H61.474L61.9994 71.979L62.1745 73.0298L61.6491 73.2049L60.2481 72.8547L59.0222 73.0298L58.3216 73.7303V74.7811L59.1973 75.6568L60.9486 77.2329L61.2989 77.9335V79.5097L60.5983 80.7356L59.5476 81.6112L58.847 81.9615H56.3952L55.8698 81.4361L55.5195 80.9107V80.035L57.2708 80.5604L58.4968 80.3853L59.5476 79.6848L59.7227 79.5097V78.2837L58.1465 76.8827L56.9206 75.8319L56.5703 75.1314L56.7455 73.5552L57.2708 72.6795L58.3216 71.8039L59.7227 71.4536Z" fill="#0CA6AF"/>
<path d="M121.542 92.6445H123.818L124.344 93.1699L124.169 95.4466L123.468 97.3731L122.768 98.2487L121.717 98.599H120.141L119.265 98.0736L119.09 97.8985V96.6726L119.966 93.6953L120.841 92.8197L121.542 92.6445Z" fill="white"/>
<path d="M118.739 68.8267L121.016 69.1769L122.066 70.0526L122.242 70.4028V72.1542L121.541 73.3801L120.315 74.4309L118.914 74.7811H116.988L116.812 74.2557L117.688 69.8774L118.214 69.0018L118.739 68.8267Z" fill="white"/>
<path d="M156.917 92.6445H159.194L159.719 92.9948V95.0964L159.194 96.8477L158.318 98.2487L157.268 98.599H155.516L154.816 98.0736L154.641 97.0228L154.991 95.2715L155.691 93.5202L156.567 92.8197L156.917 92.6445Z" fill="white"/>
<path d="M35.1999 92.2944L36.4258 92.6447L36.2507 93.6955L34.8496 99.4748H35.9004V99.65H34.4994L32.2227 99.2997L33.0983 98.0738L33.4486 97.1981V95.7971L33.0983 95.2717L32.3978 95.0965L29.946 94.9214L29.0703 94.396L29.2454 93.3452L30.2962 92.6447L30.8216 92.4696H32.3978L32.9232 92.995L33.0983 94.0457H33.974L34.3243 92.6447L35.1999 92.2944Z" fill="white"/>
<path d="M111.033 91.4185L112.084 91.5936L112.434 94.3957L112.785 96.8475L113.31 97.0227L113.66 96.147L115.937 92.2941L116.988 91.4185H117.688L117.513 92.6444L116.112 94.9211L114.01 98.4237L113.135 99.4745L112.259 99.6496L111.559 99.2994L111.208 98.0734L110.683 93.1698L110.508 91.5936L111.033 91.4185Z" fill="#073758"/>
<path d="M14.8841 91.5938H16.8106L17.336 92.1191L16.9857 93.8705L16.11 97.198L15.9349 99.2995L16.2852 99.6498H14.1836L13.1328 99.2995L13.4831 97.3731L14.5339 93.1699L14.8841 91.5938Z" fill="white"/>
<path d="M0.350263 91.4185H6.47986L6.65499 92.2941L6.1296 92.8195H4.02802L3.50263 94.746L2.45184 98.9491L1.92644 99.4745H0.875657L0.700525 98.9491L1.75131 95.2713L2.27671 92.9946L0.700525 92.8195L0 92.2941L0.175131 91.5936L0.350263 91.4185Z" fill="#07385A"/>
<path d="M165.503 71.4536H166.904L167.779 71.979L167.604 72.5044L164.802 72.6795V73.0298L163.576 73.7303L162.35 75.1314H162L161.65 76.1822L161.124 77.5832L161.299 80.035L162.701 80.7356L163.401 80.9107L163.751 81.4361V81.9615H162.175L161.124 81.261L160.249 80.2102L159.898 79.1594V77.0578L160.599 74.9562L161.65 73.3801L163.226 72.1541L164.452 71.6287L165.503 71.4536Z" fill="#0CA5AF"/>
<path d="M143.608 91.4185H149.563L149.738 92.119L149.387 92.8195L148.862 92.9946L147.111 93.1698L146.76 93.6952L145.359 99.2994L145.184 99.4745H143.958L144.133 98.0734L145.359 92.8195H143.258V91.7687L143.608 91.4185Z" fill="#073F5F"/>
<path d="M79.3308 71.4536H80.9069L81.9577 71.979L82.8334 73.0298L83.0085 74.2557L82.4831 75.4816L81.6075 76.3573H80.9069L81.2572 75.4816L81.7826 74.9562V73.9055L81.4323 73.2049V72.6795H78.6302V73.0298L77.4043 74.0806L76.8789 74.9562L76.3535 75.4816L75.653 76.7076V78.2837L76.7038 80.3853L77.0541 80.5604L77.2292 81.261L76.5287 81.4361L75.4779 80.5604L74.7773 78.9843V76.3573L75.653 74.4308L76.7038 72.8547L78.1048 71.8039L79.3308 71.4536Z" fill="#0CA5AF"/>
<path d="M39.7539 71.6289H40.9798L41.3301 71.804L41.155 73.3802L39.9291 79.5098L39.2285 81.7865H37.6523L38.8783 75.3067L39.7539 71.6289Z" fill="#22B4B6"/>
<path d="M81.6126 92.2944H82.4883L82.8386 92.6447L83.0137 94.2209L82.138 97.8986L81.9629 99.4748L82.3132 99.6499L81.7878 99.8251H80.2116L79.3359 99.4748L80.0365 95.7971L81.0873 92.6447L81.6126 92.2944Z" fill="white"/>
<path d="M169.004 66.9004H170.405L170.055 69.002L169.004 75.1316L168.479 77.5834H168.128L167.603 75.8321V73.9056L167.253 73.03L166.727 72.8549H164.801L165.326 72.5046L167.603 72.3295L167.778 71.9792L167.428 71.8041H167.778L168.654 67.0755L169.004 66.9004Z" fill="#23B5B7"/>
<path d="M128.894 91.4185L129.594 91.5936V92.8195L128.544 97.0227L128.369 98.2486H131.871L132.046 99.1242L131.346 99.6496H127.493L126.617 99.2994L126.967 97.1978L128.193 92.2941L128.544 91.5936L128.894 91.4185Z" fill="#073B5C"/>
<path d="M73.0306 71.4536H74.0814L74.2565 71.8039L73.556 74.4308L72.5052 80.3853L71.9798 81.6112L71.2793 81.9615H70.7539L71.1042 78.4589L72.3301 72.8547L72.8555 71.6287L73.0306 71.4536Z" fill="#0BA5AF"/>
<path d="M49.5638 93.3452L50.0892 93.8706L52.1908 99.1245L52.541 99.6499L51.14 99.8251L50.6146 99.6499H47.8125L48.513 97.7235L49.3887 93.5203L49.5638 93.3452Z" fill="white"/>
<path d="M61.1192 92.4692L62.6953 92.6444L63.0456 93.1698L63.3959 94.2206L63.7461 94.5708L64.0964 95.2713H65.4974L66.0228 95.7967L65.6726 96.8475L64.6218 98.4237L64.2715 99.6496H63.0456L62.5202 99.2994L62.8705 98.5988L63.3959 97.7232V96.6724L62.6953 96.4973L62.3451 95.9719V95.0962V94.3957L61.2943 93.6952L60.0684 93.52L59.543 92.9946L60.0684 92.6444L61.1192 92.4692Z" fill="white"/>
<path d="M90.5436 73.2051H92.2949V76.7077L91.7695 79.3347L91.4193 81.4363L91.2442 81.7865H89.8431L89.668 81.6114V80.3855L90.5436 76.3574L90.7188 74.0807L90.5436 73.2051Z" fill="#0CA6AF"/>
<path d="M105.604 72.6797H107.355L108.231 73.3802L108.406 74.6061L107.88 75.4818L106.304 76.0072L102.977 76.3574L103.502 74.7813L104.728 73.2051L105.604 72.6797Z" fill="#FBFEFE"/>
<path d="M156.043 74.606L156.218 74.9562L157.094 75.1314V76.5324L156.744 79.1594V80.035L158.32 80.7356L158.495 81.6112L158.32 81.9615H156.744L155.868 81.6112L154.992 80.7356V77.7583L155.693 75.1314L156.043 74.606Z" fill="#20B3B6"/>
<path d="M147.637 78.8091L147.813 79.5096L147.637 80.2101L152.191 80.035L153.417 80.2101L153.242 81.4361L152.891 81.7863H146.587L145.711 81.4361L146.236 79.1593L146.411 79.6847L146.236 80.035L147.462 79.3345L147.637 78.8091Z" fill="#23B5B7"/>
<path d="M51.4863 72.6797H52.7123L53.7631 73.2051L53.9382 73.5553V74.6061L52.8874 75.4818L51.4863 76.0072L49.0345 76.1823L48.8594 75.4818L49.735 73.9056L50.961 72.8548L51.4863 72.6797Z" fill="white"/>
<path d="M78.6315 72.8545H80.7331L81.4336 73.555L81.6088 74.4307L81.0834 75.3063L78.8067 76.0069L76.1797 76.182L77.2305 74.0804L78.6315 72.8545Z" fill="white"/>
<path d="M124.172 71.4536L126.098 71.6287L126.974 77.0578V78.8091L126.799 80.035L125.923 79.5097H125.748L124.522 72.6795L124.172 71.979V71.4536Z" fill="#22B4B6"/>
<path d="M67.7754 71.4536H69.7019L70.5775 71.979L70.7527 72.1541V73.0298H67.6003L66.1992 73.7303L64.6231 75.8319V75.4816H63.7474V76.1822L63.0469 76.3573L63.222 75.3065L64.0977 73.7303L64.9733 72.8547L66.3744 71.979L67.7754 71.4536Z" fill="#22B4B6"/>
<path d="M151.313 91.4185H152.188L152.363 91.5936L152.188 93.52L150.787 99.2994L150.612 99.4745H149.211L149.561 97.5481L151.137 91.5936L151.313 91.4185Z" fill="#07395B"/>
<path d="M27.6693 94.0454H27.8444L28.1947 95.4465L28.8952 95.7967L31.5222 96.147L32.2227 96.4972L32.0476 97.548L31.1719 98.4237L30.8216 98.5988H28.8952L28.1947 97.8983L28.0195 96.6724L27.319 96.8475L26.9688 96.3221L27.1439 95.4465L27.4941 94.9211L27.6693 94.0454Z" fill="white"/>
<path d="M45.5339 91.4185L46.2344 91.7687L46.0593 93.1698L44.8333 97.8983L44.308 99.4745H43.2572L43.082 99.1242L44.4831 93.1698L45.0085 91.7687L45.5339 91.4185Z" fill="#083D5E"/>
<path d="M59.7207 71.4536H61.472L61.9974 71.979L62.1726 73.0298L61.6472 73.2049L60.2461 72.8547L59.0202 73.0298L58.3197 73.7303V74.7811L60.071 76.5324L59.1953 77.0578L57.7943 76.007L57.444 75.1314L57.2689 74.606L57.6191 73.9055L57.0938 72.8547L58.3197 71.8039L59.7207 71.4536Z" fill="#21B4B6"/>
<path d="M76.7057 92.6445H78.4571L79.5078 92.9948V94.2207L78.9824 95.2715H75.655L75.3047 94.571L75.8301 92.9948L76.7057 92.6445Z" fill="white"/>
<path d="M101.928 92.1191L102.628 92.2943L103.329 92.9948L102.979 94.571L102.628 94.3958L101.928 95.972L101.402 98.7741L100.702 99.1244L100.352 98.599V97.1979L100.702 96.3223L100.877 94.9212L100.702 94.0456L101.052 92.8197L101.577 92.6445L101.928 92.1191Z" fill="white"/>
<path d="M104.029 72.6797L104.204 73.3802V74.0807L102.978 75.8321L102.628 76.5326V77.7585L103.153 80.0352L103.854 80.5606L104.204 81.6114L103.328 81.4363L102.102 80.2103L101.227 78.1088L101.752 76.0072L102.452 74.2559L103.153 73.3802L104.029 72.6797Z" fill="#0BA5AF"/>
<path d="M85.1133 92.6445H87.9154L88.6159 92.8197L88.2657 94.571L88.0905 94.9212H84.2376L84.0625 94.2207L84.5879 92.9948L85.1133 92.6445Z" fill="white"/>
<path d="M18.9108 92.6445H20.8373L22.4134 92.8197L22.2383 94.2207L22.0632 95.0964L21.7129 94.9212H18.2103L18.0352 94.7461V93.6953L18.5606 92.8197L18.9108 92.6445Z" fill="white"/>
<path d="M97.0208 92.8198H99.1224L99.6478 92.995V94.2209L99.1224 95.0965L98.4219 95.2717H95.7949L95.2695 94.7463L95.9701 93.3452L97.0208 92.8198Z" fill="white"/>
<path d="M105.079 92.6445L108.757 92.8197V94.3958L108.407 94.7461L108.232 95.6218L108.057 94.9212H104.554L104.379 94.7461L104.554 93.3451L105.079 92.6445Z" fill="white"/>
<path d="M71.2793 76.8828L71.4545 77.5833L70.7539 81.9616L71.2793 82.1368L70.9291 82.3119H69.3529L67.6016 81.9616V81.7865L68.8275 81.4362L69.3529 80.0352L69.0026 79.86L69.3529 78.6341L70.5788 77.2331L71.2793 76.8828Z" fill="white"/>
<path d="M39.2273 73.2051L39.4024 73.9056L38.0014 80.5606L37.8262 81.6114L39.2273 81.7865V81.9616H29.9453V81.7865L36.6003 81.6114L36.9506 80.2103L36.25 80.0352L36.9506 79.8601L37.6511 77.9336L38.0014 76.1823L38.5267 74.0807L39.2273 73.2051Z" fill="white"/>
<path d="M101.578 44.3081L102.103 44.4832L100.352 45.1838L97.3744 45.8843L95.0977 46.2346L89.8438 46.5848H88.2676L88.0925 47.2853L88.6178 49.3869L89.3184 50.788L90.7194 52.189L92.2956 52.8895L93.8718 53.2398H96.1485L98.7755 52.8895H99.6511L98.9506 53.2398L96.849 53.5901H93.3464L91.5951 53.0647L89.8438 52.0139L88.6178 50.4377L87.9173 48.6864L87.7422 46.4097L88.0925 46.0594L93.8718 45.8843L97.7247 45.3589L101.052 44.4832L101.578 44.3081Z" fill="#18ADB3"/>
<path d="M96.6732 73.9053L97.0235 74.0804L96.1478 75.1312L95.6224 76.182L95.4473 76.8825V78.6338L96.3229 80.0349L97.0235 80.3851H98.9499L100.351 80.21L100.526 80.9105L99.8256 81.6111L98.7748 81.9613H96.6732L97.0235 81.6111L96.3229 81.0857V80.7354L95.6224 80.3851L95.097 79.6846L94.9219 77.4079L95.4473 75.4815L96.4981 74.0804L96.6732 73.9053Z" fill="#23B5B7"/>
<path d="M167.423 73.3799L167.773 74.0804V75.8317L168.298 77.583L168.123 79.3343L167.773 81.4359L166.897 81.6111L167.072 78.1084L166.547 78.6338V77.0576L167.423 73.3799Z" fill="#0BA5AF"/>
<path d="M99.2969 71.2783H100.523L101.574 71.8037L101.749 73.0296L101.398 73.2048L99.2969 73.0296L97.3704 73.555L97.1953 71.9788L98.5964 71.4535L99.2969 71.2783Z" fill="#23B5B7"/>
<path d="M59.7227 79.5098L59.8978 79.86V80.3854H60.7735L59.8978 81.4362L58.847 81.9616H56.3952L55.8698 81.4362L55.5195 80.9108V80.0352L57.2708 80.5606L58.4968 80.3854L59.5476 79.6849L59.7227 79.5098Z" fill="#22B4B6"/>
<path d="M43.0853 75.4814L43.2604 76.182L42.2096 81.7862L42.9102 81.9613L41.334 82.1364L40.8086 81.611L40.9837 80.3851L41.6843 78.4587L42.0345 76.8825L42.9102 76.0068L43.0853 75.4814Z" fill="white"/>
<path d="M53.9408 78.9844H54.9916L55.5169 79.3346L55.6921 80.9108L56.0423 81.7865L58.8444 81.9616L58.319 82.3119H56.918L53.2402 81.7865L52.7148 81.6113L53.7656 80.9108L53.9408 80.0352H53.5905L53.7656 79.1595L53.9408 78.9844Z" fill="white"/>
<path d="M84.5886 74.2559L85.2891 74.431L84.9388 76.0072L84.4134 79.3347L84.5886 80.2103H84.9388L84.7637 81.9616L83.1875 81.7865L83.3626 80.2103L84.5886 74.2559Z" fill="#0CA6AF"/>
<path d="M29.9487 32.2241L30.1238 32.9246L29.4233 33.8003L20.1413 33.9754L18.9154 38.3537L17.3392 44.4833L17.1641 43.7828L19.4408 34.8511L19.9662 33.6252L20.3164 33.2749H29.2481L29.7735 32.7495L29.9487 32.2241Z" fill="#1AAFB4"/>
<path d="M129.245 76.0068L129.421 76.5322L128.545 78.2835L128.37 79.8597L128.195 80.21L128.02 81.0856L127.494 81.611L126.093 81.7862L125.918 81.611V79.3343L126.618 79.8597L126.794 78.8089L127.144 78.9841L127.494 79.5095L129.07 76.182L129.245 76.0068Z" fill="#0DA6AF"/>
<path d="M67.7754 71.4536H69.7018L70.5775 71.979L70.7526 72.1541V73.0298H67.6003L66.3744 73.2049L66.7246 73.0298V72.6795L66.1992 72.5044L66.3744 71.979L67.7754 71.4536Z" fill="#21B3B6"/>
<path d="M43.0788 96.147L43.7793 96.3221L43.4291 98.4237L43.2539 99.2993L44.3047 99.4745V99.6496L43.2539 99.8247H41.1523L41.6777 99.6496L41.5026 98.9491H41.8529V97.1978L43.0788 96.147Z" fill="white"/>
<path d="M161.295 97.1978L161.82 97.3729L162.171 98.2485V99.4745L161.295 99.6496H160.069L159.544 99.9999L157.617 99.8247L158.318 99.4745L159.369 98.7739L160.069 98.0734H160.77L161.12 97.3729L161.295 97.1978Z" fill="white"/>
<path d="M69.3509 93.52H69.5261L69.7012 95.0962V96.8475H67.0742L67.4245 95.7967L68.6504 94.0454L69.3509 93.52Z" fill="white"/>
<path d="M153.24 96.6724H153.415L153.591 98.5988L154.291 99.6496L154.116 99.8247H152.89L150.613 99.4745L150.788 98.4237H151.314L152.014 97.3729L152.715 97.548L153.065 98.0734L153.24 96.6724Z" fill="white"/>
<path d="M61.9968 76.3574H62.8724V78.459L63.2227 80.0352L63.0475 80.2103H62.1719L61.2962 79.5098L61.1211 77.7585L61.4714 77.5833L61.9968 76.3574Z" fill="white"/>
<path d="M139.055 79.1592H140.106L140.456 79.5094V81.2608L139.931 81.7861H138.705L138.18 80.9105L138.355 79.8597L139.055 79.1592Z" fill="#23B5B7"/>
<path d="M170.579 79.1592L171.454 79.3343L171.805 79.6846L171.63 81.4359L171.279 81.9613H170.053L169.703 81.2608L169.878 79.8597L170.579 79.1592Z" fill="#23B5B7"/>
<path d="M30.2976 31.1733H30.4727V32.3993L30.1225 33.6252L29.2468 34.3257H22.0664L20.14 34.1506L19.9648 34.5008L20.14 33.8003L29.4219 33.6252L29.9473 32.9247L30.2976 31.1733Z" fill="white"/>
<path d="M55.6927 95.9722H56.043L56.2181 96.4976V98.2489L55.8679 98.9494L54.8171 99.2997H53.9414L54.6419 96.6727H55.1673L55.6927 95.9722Z" fill="white"/>
<path d="M174.96 28.021H175.135L175.31 29.7723L176.361 30.4728L176.536 31.3485L174.96 33.2749L174.609 33.4501L174.785 29.5972L174.96 28.021Z" fill="white"/>
<path d="M135.023 78.9844L135.374 79.5098L135.899 80.0352L136.95 80.5606L137.65 79.86L138.526 79.3346H139.051L138.526 79.86L138.351 80.9108L138.701 81.6113L139.927 81.7865V81.9616H137.475L136.424 81.7865L136.6 81.086L136.424 80.7357L135.199 80.2103L135.023 78.9844Z" fill="white"/>
<path d="M39.7539 12.084H48.1602L50.7872 12.2591V12.6094L49.211 12.9596H46.7592V12.6094H46.4089V12.2591H39.7539V12.084Z" fill="#0BA5AF"/>
<path d="M75.655 93.52L76.3555 93.8703L76.5306 94.0454L79.1576 94.5708L78.9824 95.2713H75.655L75.3047 94.5708L75.655 93.52Z" fill="#FBFEFE"/>
<path d="M123.993 70.9282L124.869 71.2785L124.169 71.4536L124.694 72.6795L125.044 74.606V75.4816L124.869 74.9562L124.169 74.606L123.293 73.7303L123.993 70.9282Z" fill="white"/>
<path d="M40.9805 67.7759L42.0313 67.951L42.3815 68.6515L41.681 69.7023L40.8053 69.8775L39.9297 69.0018L40.1048 68.3013L40.9805 67.7759Z" fill="#23B5B7"/>
<path d="M112.262 92.9946H112.437V94.2205H113.313L113.838 94.9211L114.013 95.9719L113.313 97.0226H112.612L112.262 94.3957V92.9946Z" fill="white"/>
<path d="M21.7142 26.0947H21.8893L22.0645 27.1455H31.3464L31.5215 27.6709L31.3464 28.5466H31.1713V27.4958L22.0645 27.6709L21.5391 27.3206L21.7142 26.0947Z" fill="white"/>
<path d="M73.556 67.7759L74.4317 67.951L74.957 68.3013L74.7819 69.1769L73.9063 70.0526L73.0306 69.5272L72.8555 69.3521V68.3013L73.556 67.7759Z" fill="#23B5B7"/>
<path d="M95.9727 96.4976H97.5488L98.5996 96.6727V98.0737L98.2494 98.7743L97.724 97.1981L95.6224 97.5483H94.9219L95.097 96.6727L95.9727 96.4976Z" fill="white"/>
<path d="M161.996 75.1313L162.171 75.6567L161.646 77.2329V78.634L162.346 80.035V80.3853L163.397 80.7356L162.697 80.9107L161.296 80.2102L161.12 80.035L160.945 77.5832L161.646 75.8319L161.996 75.1313Z" fill="#23B5B7"/>
<path d="M72.1524 78.2837V78.8091V79.5096H72.5026L72.3275 81.0858L71.9772 81.6112H71.2767L71.1016 81.2609L71.2767 79.1593L72.1524 78.2837Z" fill="#0AA4AE"/>
<path d="M119.789 46.7603L120.139 47.1105L121.015 47.2856V47.811H121.365L120.84 49.3872L120.314 50.438L119.964 49.9126L119.789 46.7603Z" fill="white"/>
<path d="M29.9486 32.2241L30.1238 32.9246L29.4232 33.8003H23.6439L21.0169 33.6252L20.3164 33.2749H29.2481L29.7735 32.7495L29.9486 32.2241Z" fill="#09A4AE"/>
<path d="M72.5052 72.3291H72.6804L72.5052 73.7302L71.9798 76.3571L71.8047 76.7074L72.155 76.8825L71.6296 78.9841L71.2793 80.21V81.6111L71.8047 81.7862L70.7539 81.9613L71.1042 78.4587L72.3301 72.8545L72.5052 72.3291Z" fill="#23B5B7"/>
<path d="M49.3848 74.4307L49.5599 74.7809H50.961L51.4863 75.4815L52.0117 75.8317L51.4863 76.0068L49.0345 76.182L48.8594 75.4815L49.3848 74.4307Z" fill="white"/>
<path d="M37.1276 96.147L37.8281 96.3221L38.7038 97.548V98.4237L38.0033 98.5988L37.3027 98.2485L36.7773 97.548L36.9525 96.3221L37.1276 96.147Z" fill="white"/>
<path d="M56.9167 73.0298L57.6172 73.38L57.7923 74.0806H57.4421V74.9562L57.7923 75.3065L58.1426 76.1821L58.668 77.0578L57.7923 76.7075L56.7415 75.4816L56.5664 74.4308L56.9167 73.0298Z" fill="#0FA7B0"/>
<path d="M61.1218 54.6411L61.2969 55.3416L60.7715 57.7935V58.494L62.5228 58.6691H67.9519L68.3021 58.3189L68.127 59.0194H61.1218L60.2461 58.6691L60.5964 56.5676L61.1218 54.6411Z" fill="white"/>
<path d="M135.378 96.147L136.254 96.6724L136.779 97.7232L136.604 98.4237H137.655V98.5988H135.904L135.203 98.0734V96.8475L135.378 96.147Z" fill="white"/>
<path d="M73.7298 71.4536L74.2552 71.6287L73.5547 74.4308L73.3796 75.4816L72.8542 75.3065L73.0293 75.1314L72.679 74.7811L72.5039 73.9055L72.8542 72.8547H73.2044L73.3796 72.1541L73.7298 71.4536Z" fill="#22B4B6"/>
<path d="M168.828 28.021H174.958L174.783 33.2749L175.133 33.0998L174.783 33.8003H174.257L174.607 28.7215L174.783 28.1961H168.828V28.021Z" fill="#14ABB2"/>
<path d="M45.1843 33.0996H47.6361L49.3874 33.8001L49.5625 34.1504L47.461 33.625H45.5345L43.433 34.3255L42.5573 34.8509L42.207 34.6758L43.6081 33.625L45.1843 33.0996Z" fill="#1AAFB4"/>
<path d="M72.3301 97.373L73.3809 97.7233L73.2057 99.4746L73.9063 99.6498H72.3301L71.8047 99.1244L72.155 97.5482L72.3301 97.373Z" fill="white"/>
<path d="M27.6693 94.0454H27.8444L28.1947 95.4465L28.8952 95.7967L30.1211 95.9719V96.147L28.8952 96.3221L28.1947 96.8475H27.6693H27.319L26.9688 96.3221L27.1439 95.4465L27.4941 94.9211L27.6693 94.0454Z" fill="white"/>
<path d="M89.3164 50.9634L90.5423 52.0142L92.2936 52.8898L93.8698 53.2401H96.1465L98.7735 52.8898H99.6492L98.9486 53.2401L96.8471 53.5903H93.3444L91.5931 53.065L89.8418 52.0142L89.3164 51.3136V50.9634Z" fill="#1AAFB4"/>
<path d="M142.559 91.4185L143.435 91.5936L143.26 92.8195H145.011V92.9946L142.209 93.1698L141.684 92.9946V91.7687L142.559 91.4185Z" fill="white"/>
<path d="M151.141 32.9248H153.592L154.994 33.4502L154.468 33.6253L153.592 33.4502H151.316L149.214 34.1507L148.339 34.6761L147.988 34.501L148.864 33.8005L150.44 33.0999L151.141 32.9248Z" fill="#1AAFB4"/>
<path d="M120.843 75.6567L121.193 75.8319L119.792 76.7075H116.99L116.64 76.5324L116.465 76.8827L116.64 76.007H119.442L120.843 75.6567Z" fill="white"/>
<path d="M83.5378 79.3345H83.7129L84.0632 80.5604L84.9388 80.3853L84.7637 81.9614L83.1875 81.7863L83.3626 80.2101L83.5378 79.3345Z" fill="#23B5B7"/>
<path d="M129.249 76.0068L129.424 76.5322L128.549 78.2835L128.374 79.8597L127.848 80.3851H127.323H126.973V78.9841L127.498 79.5095L129.074 76.182L129.249 76.0068Z" fill="#23B5B7"/>
<path d="M156.921 92.6445H159.198L159.723 92.9948V94.2207L159.023 93.3451L159.198 93.1699L157.622 93.3451L156.221 93.5202L155.695 93.8705L156.046 93.1699L156.921 92.6445Z" fill="white"/>
<path d="M55.8665 91.9438H57.0925L57.4427 92.119L57.6179 93.8703L57.0925 93.52V92.4692L56.0417 92.119L56.5671 92.6444L56.9173 92.8195L56.5671 94.0454L55.8665 93.8703L55.6914 92.119L55.8665 91.9438Z" fill="white"/>
<path d="M155.343 80.0352L156.044 80.2103L156.394 81.0859L157.97 81.4362L158.145 81.7865H156.044L155.168 80.9108L155.343 80.0352Z" fill="#0BA5AF"/>
<path d="M67.0749 71.6289H68.1257V72.5046L67.6003 72.6797V73.03L66.3744 73.2051L66.7246 73.03V72.6797L66.1992 72.5046L66.3744 71.9792L67.0749 71.6289Z" fill="#0CA5AF"/>
<path d="M63.7474 75.4814H64.6231L64.2728 76.182L63.5723 77.0576L63.3971 77.7582L63.9225 77.9333L64.0977 78.6338L63.222 78.4587L63.0469 78.8089V76.3571L63.7474 76.182V75.4814Z" fill="#08A3AE"/>
<path d="M96.5 92.4692H99.3021L99.8275 92.8195V94.2206H99.6524V92.9946H97.0254L95.9746 93.52L95.4492 94.2206L95.6244 93.3449L96.5 92.4692Z" fill="#1DB1B5"/>
<path d="M137.482 71.8037H138.708L138.883 72.6794L138.182 73.2048L136.956 73.0296L136.781 72.5042L137.482 72.3291V71.8037Z" fill="#08A3AE"/>
<path d="M134.5 80.0352L134.85 80.5606V80.9108H136.426L136.777 81.2611L136.426 81.7865H134.675L134.5 80.0352Z" fill="#0DA6AF"/>
<path d="M47.9824 72.1543L48.1576 72.5046L47.9824 73.03H48.8581L48.3327 73.9056L47.6322 73.5553H45.8809L45.3555 73.7305L45.7057 73.03L47.457 72.8548L47.9824 72.1543Z" fill="white"/>
<path d="M81.6101 33.8003L81.7852 34.5008L81.4349 35.0262H78.808L76.8815 35.7267L75.8307 36.4273L75.4805 36.2521L76.3561 35.5516L77.9323 34.8511L78.6328 34.6759L81.2598 34.5008L81.6101 33.8003Z" fill="#17ADB3"/>
<path d="M165.673 80.7354H166.023L166.548 81.611L167.424 81.7861V81.9613H163.746L164.447 81.4359L165.673 80.7354Z" fill="white"/>
<path d="M68.8249 80.3853L69.1752 80.5604L68.6498 81.436L67.7741 81.7863H66.0228L65.8477 80.9106L66.7233 81.2609H68.1244L68.4746 80.5604L68.8249 80.3853Z" fill="#08A3AE"/>
<path d="M96.847 94.5708L98.9486 94.7459V95.0962L98.4232 95.2713H95.7962L95.6211 94.9211L96.847 94.5708Z" fill="#F9FEFE"/>
<path d="M41.3307 71.8037L41.681 72.154L42.3815 72.3291L42.5567 71.9788L42.7318 72.8545L41.8561 73.555H41.1556L40.9805 73.9053L41.3307 71.8037Z" fill="white"/>
<path d="M132.574 72.6797L134.5 72.8548L134.325 75.1315H134.15L133.975 73.3802L132.398 73.2051L132.574 72.6797Z" fill="white"/>
<path d="M88.2656 30.4727L88.6159 30.6478L85.1133 34.1504V33.625L87.2149 31.3483L88.2656 30.4727Z" fill="#0E8192"/>
<path d="M53.0658 76.7075L53.5912 76.8827L52.7155 77.408L48.8626 77.5832V78.9842H48.6875V77.408L48.8626 77.2329L51.8399 77.0578L53.0658 76.7075Z" fill="white"/>
<path d="M54.1133 73.7305H54.2884L54.4636 74.7813L54.9889 74.9564L54.8138 75.6569L53.4128 76.3574L53.0625 76.1823L53.9382 75.1315L54.1133 73.7305Z" fill="#0AA4AE"/>
<path d="M37.6517 92.8198L37.8268 93.1701L38.3522 93.3452L38.5274 94.396L38.1771 94.9214L37.4766 94.7463L37.6517 92.8198Z" fill="white"/>
<path d="M136.43 69.3521H136.955L136.78 70.2277H136.43L136.255 70.578H135.379L135.554 69.7023L136.43 69.3521Z" fill="#0FA7B0"/>
<path d="M121.544 92.6445H123.82L123.295 92.9948L121.193 93.3451L120.668 92.9948L121.544 92.6445Z" fill="white"/>
<path d="M78.987 72.5044H81.4388L81.614 73.2049H81.0886L80.7383 73.0298L78.6367 72.8547L78.987 72.5044Z" fill="#23B5B7"/>
<path d="M71.6283 72.3291H72.5039L72.1537 74.2555L71.6283 73.555L71.4531 72.6794L71.6283 72.3291Z" fill="white"/>
<path d="M104.553 96.8477L107.005 97.0228L107.355 97.5482H106.305V97.1979L104.378 97.5482L104.203 97.0228L104.553 96.8477Z" fill="white"/>
<path d="M135.378 85.8145H135.729L135.553 86.6901L134.503 87.0404L134.152 86.8652L134.327 86.1647L135.378 85.8145Z" fill="white"/>
<path d="M49.5599 48.5112L49.735 48.8615L48.5091 50.7879L47.1081 52.189L46.7578 52.0139L47.9837 50.7879L49.2097 49.0366L49.5599 48.5112Z" fill="white"/>
<path d="M112.262 94.396H112.437L112.787 96.8478L113.313 97.023L112.962 97.7235L112.437 97.8986L112.262 96.3224V94.396Z" fill="#1CB0B4"/>
<path d="M136.604 91.5938L136.779 91.944H137.13L137.305 92.8197L136.954 93.3451H136.254L136.604 91.5938Z" fill="white"/>
<path d="M44.4837 33.2749L45.0091 33.45L44.834 33.8003L42.7324 34.676H42.207L43.6081 33.6252L44.4837 33.2749Z" fill="#1DB1B5"/>
<path d="M108.232 80.21L108.583 80.3851L108.408 81.0856L107.707 81.611H106.656L107.532 80.9105L108.232 80.21Z" fill="#0EA7B0"/>
<path d="M76.8802 74.7812L77.2305 75.4818L77.0553 75.832H78.8067V76.0072L76.1797 76.1823L76.8802 74.7812Z" fill="white"/>
<path d="M134.503 74.7812H134.853L135.203 76.0072L134.678 76.5326L134.503 76.1823H134.152L134.503 74.7812Z" fill="#08A3AE"/>
<path d="M109.984 32.2241H110.16L110.685 35.2014V36.077L110.335 35.3765L109.984 34.3257V32.2241Z" fill="white"/>
<path d="M146.935 78.8091H147.635L147.46 79.5096L146.585 80.035H146.234L146.585 78.9842L146.935 78.8091Z" fill="#08A3AE"/>
<path d="M119.09 96.6724L119.265 97.3729L120.141 97.548V98.4237L119.44 98.2485L119.09 97.8983V96.6724Z" fill="white"/>
<path d="M73.026 71.4536L73.7266 71.6287L73.3763 72.3293L73.2012 72.8547H72.6758V71.8039L73.026 71.4536Z" fill="#0DA6AF"/>
<path d="M88.2643 0.875488H89.3151L89.14 1.22575L87.7389 1.75115H86.8633L87.7389 1.05062L88.2643 0.875488Z" fill="#0EA7B0"/>
<path d="M83.1856 80.21L83.3607 80.9105L83.1856 81.7861H84.0612V81.9613H83.0104L82.6602 81.611L82.8353 80.5602H83.1856V80.21Z" fill="white"/>
<path d="M72.502 77.7583L72.8522 77.9334L72.6771 79.6847L72.1517 79.5096L71.9766 78.634H72.3268L72.502 77.7583Z" fill="#23B5B7"/>
<path d="M138.704 71.979L138.88 72.6795L138.179 73.2049L136.953 73.0298L137.479 72.6795L138.704 72.5044V71.979Z" fill="#23B5B7"/>
</svg>
