<svg width="300" height="77" viewBox="0 0 300 77" fill="none" xmlns="http://www.w3.org/2000/svg">
<path d="M26.3343 15.5903L26.9398 15.7417L27.848 16.8012L29.513 19.5258L32.843 24.6722L34.508 27.3967L37.2325 31.4835L39.3516 34.8135L44.498 42.5331L46.0116 44.9549L47.828 47.6794L50.2498 51.6149L51.7634 54.0367L53.2771 56.3072L53.4284 56.7612L46.9198 56.9126H0.148438L0.451165 56.1558L2.26753 53.2799L3.6298 51.1608L6.05162 47.2253L7.56526 44.9549L9.83571 41.4735L11.5007 38.9003L16.6471 31.0294L18.3121 28.4562L20.1284 25.5803L21.7934 22.8558L23.7612 19.8285L25.5775 16.9526L26.3343 15.5903Z" fill="#626262"/>
<path d="M111.702 22.4019H145.91L146.062 22.5532L145.91 27.5482L145.759 27.6996H117.605V36.3273H140.613L141.521 36.63V41.0196L141.067 41.3223H117.454V51.9178H145.91L146.062 52.0691L145.91 56.61L145.759 56.7614L137.888 56.9128H112.459L111.702 56.7614L111.551 22.7046L111.702 22.4019Z" fill="#626262"/>
<path d="M200.555 22.4019H220.837L225.53 22.7046L227.8 23.1587L230.373 24.3696L232.19 26.0346L233.098 27.0941L234.309 29.3646L234.612 30.4241L234.763 32.8459L234.309 34.965L233.401 36.7814L231.736 38.7491L230.071 39.8087L227.952 40.7169L226.287 41.3223L227.952 43.5928L230.676 47.6796L234.309 53.4314L235.822 55.7019L236.277 56.7614L235.671 56.9128H230.525L229.768 56.61L228.406 54.7937L226.589 51.9178L224.319 48.1337L222.351 44.955L220.686 42.2305L220.535 41.9278L219.929 41.7764L206.004 41.625V56.7614H200.706L200.555 56.61V22.4019ZM206.004 27.6996L205.852 36.63L206.004 36.7814L223.562 36.63L225.984 36.0246L227.346 35.1164L228.406 33.9055L228.86 32.6946L228.708 31.1809L228.103 29.8187L227.346 28.9105L225.681 28.1537L224.016 27.8509L221.292 27.6996H206.004Z" fill="#626262"/>
<path d="M60.0928 22.4019H65.3905L65.6932 22.5532V36.3273H94.4523V24.2182L94.6037 22.4019H97.1769L99.9014 22.5532L100.204 22.7046V45.7119L100.053 56.7614H94.755L94.6037 56.61L94.4523 54.0369V51.1609L94.6037 41.4737H65.5419L65.6932 41.7764V56.7614H60.0928L59.9414 56.61V22.5532L60.0928 22.4019Z" fill="#626262"/>
<path d="M28.7562 27.2456L29.8157 27.397L29.9671 27.5483V33.7542L30.1184 35.1165L31.6321 37.8411L35.2648 43.2902L38.7462 48.4365L40.4112 51.0097L41.6221 53.1288L41.9248 54.037L41.7734 55.0965L40.7139 56.6102L46.9198 56.7615V56.9129H0.148438L0.299801 56.6102H13.0143L12.2575 55.8533L11.8034 55.2479L11.9548 53.8856L13.0143 51.4638L14.528 49.042L16.0416 46.7715L18.0093 43.7442L22.5503 36.9329L23.3071 35.722L23.6098 34.2083L23.4584 27.8511L23.6098 27.5483L24.0639 27.397L28.7562 27.2456Z" fill="white"/>
<path d="M156.655 22.4019H176.181L180.873 22.5532L183.598 22.8559L185.566 23.4614L187.231 24.3696L188.896 26.0346L189.955 27.6996L190.712 29.3646L191.015 31.3323V32.9973L190.712 34.965L190.107 36.3273L189.047 37.9923L187.685 39.3546L185.566 40.5655L183.295 41.1709L180.571 41.4737L177.392 41.625H162.256L162.407 41.9278V48.4364L162.256 56.7614H156.655L156.504 56.4587V52.9773L156.655 41.9278L156.807 36.7814L156.958 36.63H179.814L181.933 36.3273L184.052 35.2678L184.658 34.2082L184.96 32.6946V31.3323L184.506 29.8187L183.901 28.9105L182.69 28.1537L181.176 27.8509L156.655 27.6996L156.504 26.64V22.5532L156.655 22.4019Z" fill="#626262"/>
<path d="M265.035 20.7368L265.64 20.8882L267.608 24.2182L270.03 28.1536L273.36 33.1486L274.419 34.8136L282.139 46.62L284.258 49.95L286.226 53.1286L287.891 55.7018L288.345 56.7614L287.436 56.9127H282.139L281.231 56.1559L279.566 53.5827L277.749 50.7068L276.236 48.285L273.814 44.5009L272.754 42.9873L270.635 39.6573L268.667 36.63L265.489 31.635L264.883 31.4836L263.672 33.4514L262.159 35.7218L261.099 37.3868L260.04 38.9005L258.526 41.3223L257.466 42.8359L255.953 45.2577L254.439 47.5282L251.109 52.9773L250.05 54.4909L248.99 56.1559L248.385 56.7614L242.179 56.9127L242.027 56.4586L243.087 54.7936L244.146 53.28L245.66 50.7068L247.628 47.5282L248.839 45.7118L253.985 37.8409L256.71 33.7541L258.223 31.3323L260.645 27.5482L263.975 22.0991L265.035 20.7368Z" fill="#626262"/>
<path d="M34.2056 47.5283H36.1733L37.2328 47.9824L38.2924 49.3447L39.9574 52.0692L41.0169 53.5829L41.1683 54.491L40.5628 55.3992L39.5033 55.8533L35.4165 56.0047H19.5233L14.831 55.8533L13.6201 55.702L13.0146 54.9451L12.8633 54.6424L13.0146 53.2801L14.6796 50.2529L15.8906 48.4365L16.496 48.1338L18.161 48.2851L19.826 48.7392L21.7937 49.042H25.5778L30.1187 48.2851L32.9946 47.6797L34.2056 47.5283Z" fill="#9CC35C"/>
<path d="M160.747 29.062H169.072L181.03 29.2134L182.392 29.6675L182.997 30.2729L183.3 31.0297V33.7543L182.543 34.6625L181.484 35.1166L179.213 35.4193H163.472L158.931 35.2679L157.72 34.8138L157.114 34.3597L156.66 32.9975V31.4838L157.266 30.1216L158.174 29.3647L158.477 29.2134L160.747 29.062Z" fill="#9CC35C"/>
<path d="M288.795 0H291.973L293.638 0.454091L295.152 1.21091L296.514 2.27045L298.179 3.93545L299.39 5.90318L299.844 7.26545L299.996 8.325V11.8064L299.542 14.2282L298.482 16.3473L296.968 18.0123L295.303 19.0718L293.638 19.8286L292.276 20.1314L290.914 20.2827H289.552L287.432 19.98L285.616 19.0718L283.951 17.7095L282.589 16.1959L281.529 14.5309L280.924 12.8659L280.621 11.0495V9.38455L281.075 7.26545L282.135 5.14636L283.497 3.33L285.011 1.81636L286.978 0.605455L288.038 0.151364L288.795 0ZM289.249 2.11909L287.584 2.57318L286.373 3.17864L284.708 4.69227L283.648 6.35727L283.043 7.87091L282.74 9.53591V11.5036L283.194 13.32L284.405 15.4391L285.919 16.9527L288.038 18.0123L289.4 18.315H291.973L294.244 17.5582L295.909 16.3473L297.12 14.8336L297.877 13.1686L298.331 11.0495V9.68727L297.877 7.26545L297.12 5.75182L295.757 4.23818L294.395 3.17864L292.73 2.42182L291.671 2.11909H289.249Z" fill="#626262"/>
<path d="M221.29 66.7515L223.106 66.9028L224.014 67.5083L224.62 68.8706L224.771 70.3842V76.136L224.62 76.2874H223.106L222.803 75.9846L222.652 70.2328L222.501 69.1733L221.895 68.5678L221.593 68.4165H219.928L219.625 68.5678L219.473 70.2328L219.322 76.136L219.171 76.2874H217.506L217.354 76.136L217.203 69.3246L216.9 68.7192L216.143 68.4165H214.176L214.024 70.3842L213.873 76.2874H212.359L211.905 75.9846L211.754 71.141V66.9028H217.657L219.473 67.811L219.776 67.2056L221.29 66.7515Z" fill="#0099E2"/>
<path d="M172.252 29.3647L182.242 29.5161L182.999 30.2729L183.301 31.0297V33.7543L182.545 34.6625L181.485 35.1166H177.096L171.495 34.9652L171.344 34.8138V32.6947L171.495 30.4243L171.949 29.5161L172.252 29.3647Z" fill="white"/>
<path d="M0.151364 63.1187H1.51364L1.96773 63.27L2.11909 63.8755V68.4164L6.05455 68.5677L7.11409 68.7191V66.6L7.26546 63.27H9.23318V76.1359L8.93046 76.4387L7.41682 76.2873L7.26546 75.9846L7.11409 70.2327H3.17864L2.11909 70.0814V73.5627L1.96773 76.1359L1.81636 76.2873H0.454091L0.151364 76.1359L0 75.0764V66.4487L0.151364 63.1187Z" fill="#0099E2"/>
<path d="M286.978 62.5132H288.038L288.492 62.9673L288.643 65.3891V75.6818L288.189 76.1359H286.07L284.859 76.4386H283.043L282.135 75.9845L280.924 74.6223L280.167 72.9573L280.016 71.1409L280.318 69.6273L281.227 68.1136L282.437 67.0541L283.346 66.7514H286.524L286.373 62.8159L286.978 62.5132ZM283.951 68.1136L283.043 68.7191L282.437 69.6273L282.135 70.5355V72.5032L282.892 74.0168L283.8 74.4709H285.465L286.222 73.8655L286.524 72.5032V70.2327L286.07 68.7191L285.313 68.1136H283.951Z" fill="#0099E2"/>
<path d="M82.9443 62.6646H84.6093L84.7607 62.9673V67.2055L85.5175 66.9027H88.5448L89.7557 67.5082L90.2098 68.1136L90.5125 69.4759L90.6639 72.9573V75.9846L90.2098 76.2873H88.9989L88.6962 76.1359L88.5448 75.0764L88.3934 69.6273L88.0907 68.8705L87.4852 68.5677L85.6689 68.4164H85.2148L84.9121 71.1409V75.8332L84.6093 76.2873H83.0957L82.793 75.8332V62.8159L82.9443 62.6646Z" fill="#0099E2"/>
<path d="M265.791 66.6001H267.759L268.97 67.2056L270.029 68.4165L270.483 69.6274L270.635 70.3842V71.5951L270.332 71.8978L268.364 72.0492H265.791L265.185 71.7465L264.731 72.3519L264.883 73.2601L265.64 74.0169L266.85 74.6224H267.91L269.272 74.3196H270.332L270.18 75.0765L269.424 75.9846L267.91 76.5901H265.942L264.429 75.8333L263.218 74.471L262.612 73.1087L262.461 72.5033V70.2328L262.915 69.0219L263.975 67.6596L264.883 66.9028L265.791 66.6001ZM266.094 67.9624L265.185 68.5678L264.883 69.1733V70.3842L265.337 70.5356H267.759L268.364 70.0815L268.213 68.8706L267.607 68.1137L267.305 67.9624H266.094Z" fill="#0099E2"/>
<path d="M23.3075 66.4487H24.3671L25.7293 66.9028L26.7889 67.9624L27.3943 69.1733L27.6971 70.2328V71.4437L27.0916 71.8978L25.578 72.0492H21.9453L21.7939 72.2005L21.9453 73.2601L22.5507 74.0169L23.4589 74.471L24.5184 74.6224L27.243 74.1683L26.9403 75.3792L26.1834 76.136L24.8212 76.5901H23.1562L21.6425 75.9846L20.583 74.9251L19.6748 73.1087L19.5234 72.5033V70.6869L20.1289 68.7192L21.1884 67.3569L22.5507 66.6001L23.3075 66.4487ZM23.0048 67.811L22.248 68.4165L21.7939 69.9301V70.3842L22.0966 70.5355L24.8212 70.6869L25.2753 70.5355L25.4266 69.7787L24.9725 68.4165L24.3671 67.811H23.0048Z" fill="#0099E2"/>
<path d="M152.574 66.4487H153.936L154.996 66.9028L156.055 67.811L156.964 69.6274L157.115 70.2328V71.5951L156.51 71.8978L154.239 72.0492H151.969L151.515 71.8978L151.363 70.8383H151.06L151.212 73.1087L151.817 74.0169L152.877 74.471H154.693L156.055 74.1683H156.661L156.207 75.5305L155.299 76.2874L154.088 76.5901H152.423L151.212 76.136L150.001 74.9251L149.244 73.7142L148.941 72.6546V70.5355L149.547 68.7192L150.909 67.2055L151.969 66.6001L152.574 66.4487ZM152.574 67.811L151.515 68.7192L151.212 69.6274V70.5355L151.666 70.6869H154.088L154.542 70.5355L154.693 70.2328L154.542 68.8705L154.088 68.1137L153.785 67.811H152.574Z" fill="#0099E2"/>
<path d="M39.8095 66.6001H41.9286L42.9881 67.0542L44.0477 68.4165L44.3504 69.476L44.6531 73.8656V75.5306L44.199 76.136L41.4745 76.4387H39.0527L38.1445 75.8333L37.3877 74.9251L37.085 74.1683L36.9336 72.806L37.3877 71.8978L38.4472 70.9896L40.869 70.2328L41.9286 69.9301V68.7192L41.6259 68.1137H37.9931V67.3569L38.4472 66.9028L39.8095 66.6001ZM41.4745 71.2924L39.5068 71.8978L38.9013 72.6546V73.5628L39.5068 74.471L40.5663 74.9251L41.6259 74.7737L42.2313 74.0169L42.3827 73.4115V71.5951L42.2313 71.2924H41.4745Z" fill="#0099E2"/>
<path d="M119.879 66.6001L121.847 66.7515L123.057 67.3569L123.814 68.5678L124.117 69.476L124.268 71.2924V74.9251L123.966 75.8333L123.512 76.136L120.938 76.4387H118.971L118.062 75.9846L117.154 74.9251L116.852 74.3196V72.3519L117.76 71.2924L119.425 70.5356L121.847 69.9301L121.544 68.4165L121.392 68.2651H117.608L117.457 67.811L117.911 67.0542L118.819 66.7515L119.879 66.6001ZM121.392 71.2924L119.576 71.7465L118.668 72.5033V73.4115L119.273 74.3196L120.03 74.7737H121.241L122.149 74.0169L122.301 73.4115V72.2006L121.998 71.4437L121.392 71.2924Z" fill="#0099E2"/>
<path d="M29.8193 5.44922L31.1815 5.60058L32.5438 6.3574L33.6034 7.41695L34.0574 8.47649V9.6874L33.452 10.8983L32.0897 11.9579L30.5761 12.7147L29.2138 12.5633L28.0029 11.6551L26.9434 10.4442L26.6406 9.6874V8.47649L27.2461 7.26558L28.1543 6.20604L29.2138 5.60058L29.8193 5.44922Z" fill="#0199E2"/>
<path d="M182.389 63.27H184.054L184.356 63.4214V74.3196L189.351 74.4709L189.654 75.0764L189.503 75.8332L189.2 76.1359L188.292 76.2873H183.145L182.237 75.9846L182.086 63.7241L182.389 63.27Z" fill="#0099E2"/>
<path d="M289.703 4.99512H292.428L293.639 5.44921L294.395 6.20603L294.849 7.41694V8.32512L293.941 9.68739L293.184 10.1415L293.336 10.8983L294.849 13.3201L295.304 13.9256L295.152 14.531L294.547 14.6824L293.639 14.2283L291.822 11.3524L291.065 10.7469L289.552 10.2928H289.249L288.795 11.5038L288.644 14.3797L288.341 14.6824L287.584 14.531L287.281 13.9256V6.66012L287.735 5.75194L288.341 5.29784L289.703 4.99512ZM289.703 5.9033L288.946 6.35739L288.644 7.41694V8.77921L288.946 9.2333L291.368 9.53603H292.428L292.882 8.93057L293.033 8.47648V7.26557L292.579 6.35739L291.822 5.9033H289.703Z" fill="#626262"/>
<path d="M249.752 64.6323L250.509 64.7837L251.114 65.9946V66.6001L252.476 66.9028L253.233 67.5082L253.082 67.9623L251.568 68.4164L250.963 68.5678V72.9573L251.266 73.8655L252.931 75.0764L253.082 76.136L252.325 76.4387H250.811L249.752 75.9846L249.146 74.7737L248.844 73.2601L248.541 68.7191L247.784 68.1137L247.633 67.3569L248.844 65.8432L249.752 64.6323Z" fill="#0099E2"/>
<path d="M69.6259 64.6323L70.2314 64.9351L70.6855 65.8432V66.6001L72.0477 66.9028L72.8046 67.5082V67.9623L71.2909 68.4164H70.5341V72.5032L70.8368 73.8655L72.3505 74.7737L72.8046 75.5305L72.6532 76.136L71.5937 76.4387L69.7773 76.2873L69.1718 75.6819L68.7177 74.6223L68.415 72.2005L68.2637 68.8705L67.3555 67.811V67.0541L68.415 66.146L69.1718 64.9351L69.6259 64.6323Z" fill="#0099E2"/>
<path d="M104.287 66.7515H106.557L107.314 67.2056L107.466 67.811L107.163 68.1137L104.741 68.2651L103.53 68.8706L102.773 69.7787L102.622 70.2328V72.5033L103.076 73.4115L103.984 74.1683L104.741 74.471H107.314V75.6819L106.709 76.2874L105.195 76.5901L103.682 76.4387L102.471 75.8333L101.26 74.471L100.503 72.6546L100.352 70.8383L100.806 69.3246L101.714 68.1137L102.925 67.2056L104.287 66.7515Z" fill="#0099E2"/>
<path d="M55.249 62.6646H57.2167V76.2873H55.5517L55.249 75.9846L55.0977 72.3518V68.1136L55.249 62.6646Z" fill="#0099E2"/>
<path d="M134.863 66.9028H136.68L136.982 67.0542V75.9847L136.831 76.2874H135.317L134.863 75.5306V66.9028Z" fill="#0099E2"/>
<path d="M236.129 66.9028H237.643V76.136L237.491 76.2874H235.826L235.523 75.9847V67.3569L235.675 67.0542L236.129 66.9028Z" fill="#0099E2"/>
<path d="M199.798 66.9028H200.857L201.463 67.2056V74.0169L201.311 76.2874H199.798L199.344 75.9847V67.2056L199.798 66.9028Z" fill="#0099E2"/>
<path d="M34.663 15.439H35.8739L36.6308 16.0444L36.7821 16.4985V18.0121L36.0253 18.9203L35.1171 19.2231L34.0576 19.0717L33.1494 18.3149L32.6953 17.2553V16.3471L33.3008 15.8931L34.663 15.439Z" fill="#0199E2"/>
<path d="M139.254 66.4487H142.887L143.492 66.9028V67.811L142.887 68.4165L140.616 68.7192H137.438L137.589 67.2055L138.194 66.6001L139.254 66.4487Z" fill="#0099E2"/>
<path d="M140.312 66.4487H142.886L143.491 66.9028V67.811L142.886 68.4165L140.312 68.7192V66.4487Z" fill="#9DC35E"/>
<path d="M236.427 63.1187H237.335L237.638 63.7241V65.2377L237.486 65.3891H236.275L235.519 64.935L235.367 63.8755L235.973 63.27L236.427 63.1187Z" fill="#0099E2"/>
<path d="M199.949 63.1187H200.857L201.311 63.4214L201.463 63.8755V64.935L201.311 65.3891L200.403 65.5405L199.646 65.2377L199.344 64.935V63.8755L199.949 63.1187Z" fill="#0099E2"/>
<path d="M26.1865 31.1812H27.2461L27.8515 31.7866L27.5488 33.1489L27.3974 33.3002H26.3379L25.5811 32.6948L25.4297 32.0893L25.8838 31.3325L26.1865 31.1812Z" fill="#0099E2"/>
<path d="M27.2461 22.4019L28.0029 22.5532L28.457 23.1587V24.3696L28.1543 24.6723H27.3974L26.792 24.0669L26.6406 23.31L27.2461 22.4019Z" fill="#1AA3E4"/>
</svg>
