<svg width="106" height="100" viewBox="0 0 106 100" fill="none" xmlns="http://www.w3.org/2000/svg">
<path d="M22.8216 0H58.5062L58.2988 1.86722L57.4689 4.77178L57.0539 5.80913L54.9793 12.0332L53.9419 15.5602L52.9046 18.6722L51.8672 21.1618L49.7925 27.5934L48.9627 29.6681L42.9461 47.7178L42.1162 50.4149L40.8714 54.3568L40.0415 56.4315L39.0042 59.751L38.3817 61.2033L36.722 66.1826L36.0996 67.8423L35.4772 69.2946L34.4398 73.2365L33.8174 74.4813L33.195 76.7635L32.5726 78.6307L31.3278 81.9502L31.1203 84.2324L32.9876 85.4772L34.6473 86.0996V86.5145L36.5145 86.9295L38.7967 87.7593L43.5685 88.5892L46.473 89.0042H55.3942C61.58 88.2639 64.9164 87.3021 70.9544 85.0622L74.2739 82.9876L77.5934 80.4979L80.2905 78.0083L82.7801 75.3112L85.2697 71.7842L86.3071 69.7095H86.722L87.1369 68.4647L87.9668 66.5975L89.0042 63.9004L89.834 60.3734L90.249 59.1286L90.4564 56.8465V51.2448L90.249 45.8506L89.834 43.361L89.2116 41.7012L87.9668 38.1743L86.3071 34.6473L85.8921 34.2324V33.61H85.4772V32.9876H85.0622V32.3651H84.6473L83.4025 30.4979L83.195 29.8755H82.7801L82.3651 29.0456L81.7427 28.4232L80.2905 26.7635L79.2531 25.7261V25.3112L78.4232 24.8963L76.971 23.6515L74.2739 21.5768L69.917 18.8797L68.0498 17.8423L65.1452 16.805L64.5228 16.39L62.4481 15.7676L59.751 14.5228L59.9585 13.0705L60.3734 12.0332H60.7884L61.2033 9.95851L62.4481 6.639L63.0705 5.18672L64.1079 1.65975L64.9378 0H87.1369L96.2656 0.207469L100.207 0.622407L103.527 1.65975L104.564 2.28216L104.772 3.11203L105.187 12.8631L105.394 64.7303L105.602 88.5892V95.8506H105.187L104.979 96.888L103.734 98.5477L101.867 99.3776L99.5851 100H23.029L10.166 99.7925L5.39419 99.3776L2.90456 98.5477L1.65975 97.0954L1.03734 95.8506L0.622407 93.7759L0.414938 89.6266L0.207469 79.4606L0 26.971V5.80913L0.622407 4.14938L1.86722 2.28216L3.73444 1.03734L5.80913 0.414938L7.26141 0.207469L22.8216 0Z" fill="#7F0400"/>
<path d="M46.4724 14.3154H47.5097L47.3023 15.5602L46.2649 18.0499L45.6425 20.332L45.0201 21.5768L44.3977 24.0665L43.3604 26.971L42.9454 27.5934L42.5305 29.0457L41.0782 32.1578L40.4558 33.1951L38.1736 34.4399L36.099 36.3071L32.9869 39.6266L31.1197 42.9461L30.0824 45.6432L29.2525 48.9627L29.045 50.83V53.3196L29.6674 57.469L30.2898 59.1287L30.9122 61.4109V64.5229L30.4973 65.5602L29.8749 67.4275L28.6301 71.5768L27.8002 73.2366L26.9703 76.5561H26.5554L26.3479 78.2158L25.7255 79.8756H24.8956V79.4607L23.6508 79.2532L21.9911 77.8009L21.7836 77.1785L20.7463 76.3486L20.5388 75.7262L19.5014 74.6889L18.2566 73.2366V72.6142L17.4268 72.1992L16.8043 71.1619V70.5395H16.3894L15.9745 69.7096V69.0872H15.5595L14.3147 66.5976L13.6923 65.1453L12.8624 62.8631L12.24 59.9586L11.6176 56.4316L11.4102 53.942V49.3777L11.6176 46.6806L11.8251 46.4731L12.24 43.3611L13.0699 40.4565L14.1073 37.9669L15.3521 35.4773H15.767L16.1819 34.025L17.8417 31.1204L19.0865 29.4607H19.5014L19.7089 28.6308L21.3687 26.7636L22.406 25.7262L24.0658 24.2739L24.8956 23.4441L26.9703 21.7843L30.0824 19.7096L32.3645 18.2573L33.8168 17.4275H34.6467V17.0125L40.0409 15.3528L44.3977 14.5229L46.4724 14.3154Z" fill="white"/>
<path d="M54.7706 30.7056L56.2229 30.913L58.7125 31.9504L62.6545 33.4027L63.4843 33.8176V34.2325L64.3142 34.44L65.3515 35.0624V35.4774L66.3889 35.8923L69.086 38.5894L70.9532 41.4939L72.613 45.0209L73.2354 47.3031L73.4428 48.5479V53.9421L72.8204 56.8466L72.198 59.3363L70.7457 62.4483L70.1233 63.9006H69.7084V64.523H69.2935L68.8785 65.3529L68.0486 66.3902L66.5964 67.635L65.974 68.4649L64.5217 69.2948L63.6918 69.7097V70.1247L62.6545 70.3321V70.7471L57.8827 72.6143L54.9781 73.2367H48.754L43.7748 72.4068L41.7001 71.5769L41.2852 71.3695V69.9172L42.3225 65.9753L42.7374 65.1454L43.1524 63.2782L43.7748 62.0334L44.1897 60.5811L45.0196 58.2989L45.4345 56.4317H45.8495L46.2644 54.1495L48.1316 48.5479L48.9615 46.2657L50.2063 42.7388L50.6213 41.9089L51.0362 40.2491L51.4511 39.4193L51.8661 37.552L52.4885 36.3072L52.9034 34.8549L53.9408 32.3653L54.7706 30.7056Z" fill="#7F0400"/>
</svg>
