<svg width="171" height="120" viewBox="0 0 171 120" fill="none" xmlns="http://www.w3.org/2000/svg">
<path d="M137.07 73.3892L137.489 73.4728V74.3097L137.238 75.9833L137.154 76.9875V77.8243L137.74 78.4938V78.6611H137.907L137.991 79.2469L137.824 81.339L137.991 79.9164L138.075 78.4101L138.577 77.4896L139.246 76.9038L139.916 76.4854L140.669 76.2343L141.171 76.1507H142.175L142.845 76.4017L143.263 76.8201L143.765 78.159V80.7532L143.347 83.0963L142.677 85.6904L142.51 86.1925L143.263 85.7741L144.267 84.7699L145.522 84.1005L147.614 83.18L148.953 82.5942L151.464 81.6737L152.133 81.339L152.217 81.5063L151.715 83.0963L151.631 83.18L151.547 84.5189L151.296 85.5231L150.711 86.6946L150.125 87.3641L149.121 88.1172L147.949 89.1214L147.029 89.7072L146.192 90.3766L144.853 91.3808L143.932 92.3013L143.347 93.1381L143.096 93.5565L142.845 94.8118L142.342 96.5691L141.84 98.8285L141.338 100.502L140.753 101.674L139.916 102.845L139.748 103.264L140.501 104.017L141.087 104.854L141.422 106.025L141.673 108.703L141.924 112.385L142.091 114.644L142.008 115.23L141.84 115.565L141.589 115.481L141.004 114.644L140.334 113.305L139.999 112.552L139.163 112.385H131.464L131.129 112.552L130.711 113.389L130.46 114.561L130.543 115.146V117.239L130.376 117.573L130.041 117.406L129.372 116.067L128.702 115.146L128.451 114.895L128.117 114.979L129.121 116.987L129.455 117.49L130.041 117.908L129.79 118.661L129.288 119.08H128.368L127.447 118.494L126.61 117.657L126.443 117.239L127.029 116.234L127.531 114.477L127.865 112.301H33.8906L31.7985 112.218L31.7148 112.134V109.791L31.7985 109.54L37.3215 109.456L128.2 109.372L127.949 108.368L127.698 107.699L127.447 106.109V105.439L127.782 104.435L127.698 103.598L126.945 101.841L126.359 101.088L125.941 100.586L125.773 100.335V100L127.029 99.6653H127.196L127.029 96.9038L126.61 92.8034L126.192 90.1256V88.2009L126.276 87.7825V86.7783L126.192 86.5272V84.5189L126.359 82.9289L126.778 81.2553L127.363 79.6653L128.368 77.9917L128.953 77.0712L129.623 75.7323L130.041 74.9791L130.46 74.5607L130.878 74.226L131.129 74.3097L130.962 75.7323L130.627 77.2385L130.041 78.6611L129.288 80L128.702 81.4226L128.2 83.0126L127.698 84.3515L126.945 86.7783L126.778 87.3641L127.28 88.4519L127.531 89.8745V90.544L127.782 91.3808L128.117 92.2176L128.2 92.8034L128.284 94.477L128.619 95.1465L129.288 96.067L129.623 96.5691L129.958 96.9038V97.7406L130.041 97.908L130.209 100.167L130.46 101.841L130.627 102.176L131.129 102.427L131.547 102.343L131.966 101.841L131.715 102.008L131.464 102.092L131.045 101.841L130.794 101.506V99.5816L130.543 98.2427V97.2385L130.794 97.1549L131.296 97.4059L131.799 97.9917L132.217 99.0795H132.468V97.6569L132.384 97.2385L131.882 97.0712L131.129 96.7364L130.878 96.4854L130.794 96.067L130.627 93.8913L130.292 92.9708L129.79 92.2176L129.121 91.3808L129.204 92.3013L129.455 92.7197L129.706 92.9708L130.125 94.9791V95.4812L129.706 95.3138L129.204 94.8954L129.037 94.3933L128.87 92.8871L128.619 92.3013L128.451 91.3808L128.033 90.6277L127.949 89.8745H128.2V90.0419L128.619 89.7908L129.121 89.8745L129.79 90.544L129.958 90.9624L130.376 91.1297L130.962 91.6318L131.631 93.1381L131.799 93.7239L131.882 95.0628L131.966 95.3975V96.4017H132.384L132.217 94.3097L131.882 92.636L131.715 92.0502L131.631 90.2929L131.547 89.7072L131.045 88.3682V87.7825L130.962 87.6151L130.376 87.5314L130.041 88.1172L129.623 88.7866L129.204 88.6193L128.535 87.8661L128.117 87.0293L127.949 86.0251V84.8536L128.535 83.5147L128.953 82.1758L129.623 81.6737L129.79 80.5858L130.627 78.9959L131.213 78.6611L131.715 78.7448V79.9164L131.38 81.59L131.129 82.0084L130.794 82.2595L131.296 82.3431L131.547 82.8452V84.8536L131.715 86.0251V87.6151L131.882 88.2846V86.6946L131.799 85.272V84.0168L131.882 81.0042L132.217 79.749L132.301 79.4979L131.882 78.7448L131.799 78.159V76.7364L131.966 75.3975V73.8076L132.133 73.6402L132.719 73.7239L133.472 74.477L133.64 74.8954L133.723 75.8996L133.054 77.4059L132.97 77.8243L133.305 77.4896L133.974 76.318L134.225 76.067L134.56 76.1507L134.811 76.5691L134.978 77.6569L135.146 77.4059L135.229 77.1549L134.978 76.318L135.062 75.7323L135.899 74.6444L136.568 73.8076L137.07 73.3892ZM135.983 78.4938L135.481 79.1632L135.062 79.6653L134.978 80L135.481 79.8327L135.732 79.9164L135.815 79.4979L136.066 78.7448L135.983 78.4938ZM132.552 79.6653L132.719 80L133.137 80.4184L133.305 80.3348L132.635 79.6653H132.552ZM135.732 80L135.899 80.5021L136.066 80.1674L135.732 80ZM133.305 80.4184L133.472 80.7532L133.64 81.0042V81.6737L133.388 82.1758L133.221 82.5942H133.472L133.388 84.1005L132.97 85.1883L132.635 86.1088L132.719 86.2762L133.137 86.1925L133.974 84.9373L134.225 84.1841L134.309 81.4226L134.225 80.5858L134.058 80.9205L133.556 80.5858L133.305 80.4184ZM137.573 82.9289L137.322 83.431V83.9331L137.573 83.5984L137.656 82.9289H137.573ZM137.238 84.1841V84.6862H137.322V84.1841H137.238ZM137.154 84.7699L137.07 85.4394L137.238 85.5231V84.7699H137.154ZM129.372 85.6904L129.121 85.9415L128.87 86.5272V87.0293L129.204 87.5314L129.455 87.6151L130.041 87.4477L130.125 87.0293L130.46 86.9456L130.543 86.6946L130.292 86.1088L129.706 85.6904H129.372ZM137.238 85.9415L137.07 87.9498L136.903 89.1214L137.154 88.954L137.322 88.3682V85.9415H137.238ZM146.527 85.5231L146.192 85.6904L145.857 86.3599L145.355 86.6109H144.937L144.853 86.0251L144.267 85.9415L143.598 86.1925V86.3599L144.351 86.6109L144.937 86.9456L145.188 87.3641L145.606 87.113L146.778 86.1088L146.861 85.7741L146.61 85.5231H146.527ZM134.142 86.6946L133.891 87.1967L133.723 87.3641L133.891 88.3682L134.058 90.7113H134.393L134.476 90.544V89.7072L134.142 87.7825L134.225 86.6946H134.142ZM146.192 88.703L145.188 88.954L143.849 89.4561L142.342 89.8745V90.2092L143.263 90.795L144.602 90.4603L145.188 90.1256L145.69 89.7908L146.694 89.2887L146.861 88.954L146.61 88.703H146.192ZM141.171 93.0544L141.087 93.1381V93.5565L141.422 93.3892L141.506 93.0544H141.171ZM137.322 97.4059L136.485 98.0754L136.317 98.4101H136.652L136.736 98.159L137.07 97.9917L137.322 97.908L137.489 98.159L137.824 97.5733V97.4059H137.322ZM132.301 99.4143L132.133 100.335L132.05 101.674L132.301 101.423L132.384 101.255V99.4143H132.301ZM140.334 99.749L140.25 100.084L140.418 100L140.334 99.749ZM127.112 99.8327V100.084H127.28V99.8327H127.112ZM140.167 100.084L139.999 100.335L140.083 100.586L140.25 100.084H140.167ZM139.916 100.586L139.748 100.921L139.832 101.172L139.999 100.837L139.916 100.586ZM139.497 104.77V105.356L139.748 105.774L139.999 106.109L139.581 106.36L139.163 106.444V106.276L138.66 105.941L138.409 105.69L137.74 105.774V106.109L138.744 106.527L139.163 106.946L139.414 107.28H140.083L140.92 106.946L141.338 106.527L141.255 106.193L140.92 105.69L140.669 105.774L140.334 105.439L140.083 104.937L139.832 104.77H139.497ZM131.296 104.937L131.045 105.188V105.356L129.455 105.021H128.953L129.204 105.188L130.878 105.607H131.296L131.631 105.523L131.799 105.607L131.715 105.188L131.547 104.937H131.296ZM133.472 105.188L133.723 105.356L134.644 105.523L134.476 105.272L134.225 105.188H133.472ZM134.644 105.523L134.978 105.858H135.146L135.062 105.607L134.644 105.523ZM135.146 105.858L135.397 106.276H134.978H134.644H133.556L133.388 106.193H132.886V106.527L134.058 107.029L134.727 107.197L135.732 107.28L135.899 107.448L135.983 107.866L136.234 107.699L136.317 107.364L136.903 107.448L137.656 107.95L138.409 108.703L138.995 109.121L139.163 109.038L138.828 108.536L137.907 107.531L136.903 106.695L136.066 106.193L135.899 105.858V106.109L135.397 105.941L135.146 105.858ZM136.401 108.787L136.317 109.289L135.229 109.54V109.707H135.983L137.07 109.54V109.205L136.736 109.038L136.568 108.787H136.401ZM139.581 109.707L139.748 110.46H139.832L139.748 109.791L139.581 109.707ZM129.121 112.385L129.037 112.72L129.372 113.557H129.79L130.209 114.393L130.292 114.142L129.958 113.054L129.623 112.552L129.455 112.385H129.121Z" fill="#714825"/>
<path d="M75.1486 41.8408H76.7386L77.9101 42.0082L78.9143 42.3429L79.8348 43.0124L80.4206 43.6818L80.6716 44.2676L80.588 44.8534L80.0022 45.5228L78.8306 46.276L77.408 46.9454L76.8223 47.1128L76.4039 47.0291L76.3202 46.9454V44.8534L76.0691 44.0166L75.567 43.4308L75.1486 43.2634H74.1445L73.0566 43.5145L72.0524 44.0166L70.6298 44.9371L69.5419 45.7739L68.5378 46.6944L67.2825 47.9496L66.5294 48.8701L65.9436 49.5396L64.6884 51.2132L63.7679 52.3848L61.5921 55.6484L60.6716 57.0709L59.4164 59.0793L58.4122 60.6693L57.408 62.3429L56.6549 63.4308L55.9018 64.6023L55.2323 65.5228L53.8934 67.2802L53.0566 68.368L52.3034 69.2885L51.3829 70.2927L50.2114 71.6316L49.7093 72.05L49.2909 72.5521L48.6214 73.1379L47.6173 74.0584L46.6968 74.8115L45.1905 75.8157L43.8516 76.5689L42.3453 77.0709L41.8432 77.1546H40.4206L39.5838 76.8199L38.998 76.4015L38.5796 75.8157L38.3286 74.8952V74.2258L38.6633 72.5521L39.1654 70.8785L39.7511 69.2048L41.2574 65.6902L43.3495 60.4182L44.1863 57.9078L44.6047 56.2341L44.8557 54.3094V51.2969L44.6047 50.209L43.9352 48.8701L43.4332 48.117L42.7637 47.3638L41.7595 46.6107L40.5043 45.9412L39.2491 45.6065L38.6633 45.5228H36.8223L35.2323 45.7739L33.8934 46.276L32.5545 47.0291L31.2993 47.9496L30.2114 49.0375L29.1235 50.5437L28.2867 52.3011L27.7846 53.9747L27.5336 55.5647V57.9078L27.7846 58.8283L28.2867 59.7488L28.6214 60.1672L29.5419 60.753L30.3788 61.004H31.2156L32.4708 60.8366L32.6382 60.9203V61.4224L31.885 62.845L31.2993 63.5981L30.6298 64.1002L29.6256 64.5186L28.7051 64.6023L27.5336 64.435L26.5294 64.0166L25.7762 63.4308L25.1905 62.845L24.6047 61.9245L24.1863 61.004L23.9352 59.9161L23.8516 59.2467V57.4057L24.1863 55.3136L24.8557 53.3053L25.5252 51.8827L26.4457 50.5437L27.1152 49.7069L27.952 48.7864L28.6214 48.2007L29.8767 47.1965L31.1319 46.3596L33.0566 45.3555L34.2281 44.8534L36.0691 44.2676L37.7428 43.9329L38.6633 43.8492H41.9269L43.3495 44.0166L44.4373 44.2676L46.1947 45.0207L47.4499 45.8576L48.2867 46.527L48.9562 47.1965L49.7093 48.368L50.2114 49.4559L50.5461 50.7111L50.6298 51.5479V53.2216L50.5461 54.3931L50.1277 56.4852L49.4583 58.7446L48.2867 61.7571L46.111 66.7781L45.1905 69.1212L44.3537 71.6316L44.1863 72.3011L44.27 73.2216L44.521 73.64L45.1905 74.0584L45.6089 73.9747L46.8641 73.1379L47.952 72.2174L50.2114 69.958L50.7972 69.2885L51.8014 68.117L53.8097 65.4391L54.8976 63.9329L56.1528 62.0919L58.4959 58.4099L59.0817 57.4057L61.0901 54.2258L61.7595 53.2216L62.3453 52.3848L63.5168 50.7948L64.4373 49.6232L65.6089 48.2007L66.5294 47.1128L67.7846 45.7739L68.4541 45.1044L69.3746 44.3513L70.8809 43.2634L72.3034 42.5103L73.5587 42.0919L75.1486 41.8408Z" fill="#B57945"/>
<path d="M128.2 109.121L128.702 109.288L128.953 109.456L130.125 109.707L133.054 109.791L135.146 109.874L135.229 109.707L136.568 109.54L136.736 109.707L138.326 109.874L138.744 110.125L138.911 110.711L139.163 111.464L139.497 112.217L139.748 112.385H131.464L131.129 112.552L130.711 113.389L130.46 114.56L130.543 115.146V117.238L130.376 117.573L130.041 117.406L129.372 116.067L128.702 115.146L128.451 114.895L128.117 114.979L129.121 116.987L129.455 117.489L130.041 117.908L129.79 118.661L129.288 119.079H128.368L127.447 118.493L126.61 117.657L126.443 117.238L127.029 116.234L127.531 114.477L127.865 112.301H33.8906L31.7985 112.217L31.7148 112.134V109.791L31.7985 109.54L37.3215 109.456L128.2 109.372V109.121ZM129.121 112.385L129.037 112.719L129.372 113.556H129.79L130.209 114.393L130.292 114.142L129.958 113.054L129.623 112.552L129.455 112.385H129.121Z" fill="#B47843"/>
<path d="M82.5929 42.4268L83.6808 42.5104L84.8523 42.8452L85.5218 43.2636L85.6891 43.682V45.2719L85.2707 47.113L84.3502 49.7071L82.9276 53.0544L82.0908 54.8117L81.254 56.4017L80.9193 57.2385L81.5051 56.9874L82.5092 56.2343L83.3461 55.4812L84.2666 54.728L85.1034 53.9749L86.0239 53.2217L87.7812 51.4644L88.7017 50.2929L88.9527 50.0418L89.4548 50.2092L90.1243 50.8786L90.6264 51.8828L90.7101 52.2176V52.8033L90.459 53.5565L89.9569 54.2259L89.2875 54.8954L88.1996 55.6485L86.8607 56.4017L85.2707 57.2385L83.4297 57.9916L82.9276 58.159L83.4297 59.0795L84.5176 61.0042L85.3544 62.5104L86.4423 64.4351L87.1954 65.774L88.2833 67.5314L89.1201 68.7029L89.9569 69.7908L90.7101 70.6276L91.2122 71.2134L92.1327 71.9665L92.8021 72.3849L93.7226 72.8033L94.6431 73.0544L94.7268 73.3891L94.0574 74.3096L93.3042 74.9791L92.3 75.4812L91.7143 75.6485H91.1285L89.7896 75.2301L89.1201 74.8954L88.2833 74.1422L87.5302 73.3054L86.526 71.7155L85.6055 69.9581L84.936 68.3682L83.7645 65.2719L82.9276 62.8452L82.0071 60.4184L81.4214 59.2468L81.3377 59.1632L80.6682 59.2468L79.9988 59.4979L79.413 60.4184L78.9109 61.4226L77.823 64.0167L77.0699 66.0251L76.6515 67.6987L76.4841 68.4519L76.2331 68.7866H75.4799L74.6431 68.3682L73.89 67.615L73.6389 67.0293V66.2761L73.9737 64.6025L74.6431 62.4268L75.1452 61.4226L75.0615 61.2552L74.6431 61.6736L74.2247 62.5104L73.6389 63.4309L72.8021 64.7699L72.049 65.8577L71.1285 66.8619L70.3753 67.615L69.0364 68.4519L68.1996 68.7029H67.6138L66.9444 68.4519L66.2749 67.8661L65.8565 67.1966L65.6892 66.4435L65.6055 65.523L65.8565 63.933L66.2749 62.2594L67.1117 59.9163L68.8691 55.6485L69.2875 54.3933L69.4548 53.0544L69.7896 52.4686H70.7101L71.7979 52.8033L72.3 53.0544L72.9695 53.8075L73.2205 54.3096V55.0627L72.8858 56.569L72.1327 58.5774L71.2122 60.5021L70.3753 62.092L69.4548 63.7657L68.7854 65.1046L68.4507 66.0251V66.9456L68.5343 67.0293L69.2875 66.9456L69.9569 66.5272L70.7101 65.774L71.4632 64.7699L72.3837 63.5146L73.3042 62.0083L73.9737 60.8368L75.3126 58.6611L76.1494 57.9916H76.3168L76.4841 57.4895L77.1536 56.1506L78.2415 53.6401L79.3293 51.046L80.1661 49.0376L80.8356 47.4477L81.5887 45.4393L82.2582 42.7615L82.5929 42.4268Z" fill="#B47945"/>
<path d="M85.8565 0L86.1075 0.083682L86.6096 1.42259L87.2791 3.59833L88.367 6.94561L89.2875 9.53975L89.3711 9.62343L90.2916 9.70711H100.166L99.9988 10.0418L98.6598 10.9623L97.0699 12.1339L95.8983 12.9707L94.141 14.3096L92.4674 15.4812L91.5469 16.1506L91.4632 16.4017L92.4674 19.4142L93.8063 23.5983L94.3084 25.1046L94.7268 26.1925L94.6431 26.3598L93.89 26.1088L92.7184 25.272L91.2958 24.2678L89.7059 23.0962L88.1996 22.0084L86.8607 21.0042L86.0239 20.4184L85.5218 20.5858L84.7686 21.0879L83.2624 22.1757L81.8398 23.1799L78.6598 25.523L77.572 26.2761L77.2373 26.3598V25.7741L78.9946 20.251L79.664 18.0753L80.1661 16.569L80.0824 16.1506L78.0741 14.6444L76.6515 13.6402L74.9778 12.3849L73.3879 11.2971L72.4674 10.6276L71.7142 10.0418L71.5469 9.70711L82.0908 9.62343L82.5092 9.45607L83.2624 7.02929L84.2665 4.01674L85.4381 0.585774L85.8565 0Z" fill="#FEB361"/>
<path d="M93.6385 49.1211L94.3079 49.2048L95.0611 49.7069L95.5632 50.2926L95.7305 50.6274V52.05L95.3958 53.7236L97.1531 53.5562L97.9899 53.3052L98.9941 52.7194L99.831 52.6357L100.668 52.8031L101.421 53.3052L101.839 53.891L102.09 54.5604V55.8157L101.17 58.5772L100.166 60.6692L98.9105 63.096L97.7389 65.3554L97.4042 66.1085L97.3205 66.9454V67.1127L98.1573 67.029L98.9105 66.527L99.831 65.5228L100.919 64.1002L102.007 62.5102L102.676 61.5897L103.513 59.9998L104.015 58.9956L105.019 57.3219L106.274 55.4809L107.195 54.4767L107.781 53.891L108.952 53.1378L109.956 52.7194L111.379 52.4684H112.634L113.304 52.6357L113.89 52.9705L114.392 53.6399L114.81 54.6441V55.1462L114.308 55.8157L113.722 56.1504H113.136L112.885 55.8157L112.802 55.5646V53.9747L112.718 53.8073H112.216L111.546 54.3094L110.877 54.9788L109.956 56.2341L108.701 58.4935L107.697 60.6692L107.111 62.4265L106.86 63.4307L106.777 64.3512V65.2717L107.195 66.4433L107.53 66.9454L107.864 67.1127H108.45L109.036 66.8617L109.705 66.2759L110.626 65.0207L111.044 64.3512L113.053 60.3345L113.89 58.5772L114.894 56.4014L115.647 54.142L115.898 52.8031L116.233 52.4684H117.153L117.99 52.7194L118.743 53.1378L119.161 53.8073L119.329 54.3931V55.3136L119.161 56.4014L118.576 58.1588L117.572 60.2508L116.484 62.3429L115.731 63.5981L115.396 64.3512L114.81 65.6064L114.726 65.9412V66.9454L115.061 67.029L115.814 66.6943L116.735 65.9412L117.488 65.0207L118.408 63.8491L119.078 62.8449L119.747 61.7571L120.751 59.9998L121.505 58.5772L121.839 57.9914H122.174L122.425 58.2424L122.341 58.9956L121.756 60.2508L121.337 61.0876L120.668 62.2592L120.082 63.1797L119.245 64.5186L118.492 65.5228L117.572 66.6106L116.567 67.6148L115.312 68.368L114.81 68.619L113.89 68.7027L113.053 68.368L112.383 67.6148L112.049 66.8617L111.714 65.3554L111.546 65.2717L111.379 65.6901L110.793 66.6106L109.873 67.6148L109.203 68.1169L108.199 68.5353L107.195 68.7027H106.526L105.354 68.368L104.433 67.6985L103.68 66.8617L103.262 65.9412L103.095 65.4391V64.1839L103.262 63.1797L102.844 63.347L102.09 64.4349L101.421 65.4391L100.333 66.6943L99.2452 67.7822L98.0736 68.5353L97.4042 68.7027H96.3163L95.7305 68.4516L95.0611 67.6985L94.6427 66.527L94.559 66.0249V65.1044L94.81 63.7654L95.3958 61.7571L96.2326 59.4977L97.3205 57.0709L97.9899 55.6483L98.3247 54.7278L98.1573 54.8115L95.2284 54.9788L94.9774 55.0625L94.3916 56.4014L93.3874 58.6608L92.969 59.414L92.6343 59.7487L92.2996 59.665L92.1322 59.414L92.2159 58.6608L92.718 57.3219L93.5548 55.1462V54.6441L92.8853 53.7236L92.2996 52.8868L91.9648 52.1336V51.3805L92.2996 50.2926L92.6343 49.7905L93.3874 49.2048L93.6385 49.1211Z" fill="#B57A46"/>
<path d="M140.921 51.4644L141.758 51.6317L142.595 52.3849L143.181 53.5564L143.264 53.8075V55.4811L142.846 57.5731L142.26 59.3305L141.256 61.5062L140.587 62.8451L139.917 64.3514L139.666 64.8535V65.774L139.917 65.9413L140.419 66.025L141.089 65.774L141.758 65.1045L142.679 63.933L143.683 62.5941L144.269 61.6736L145.105 60.4183L145.942 58.9121L146.612 57.5731L147.03 57.1547L147.532 57.2384L147.616 57.9079L146.946 59.2468L146.026 60.9204L145.356 62.0083L144.269 63.5982L143.264 64.9372L141.925 66.3598L141.089 67.1129L140.252 67.615L139.499 67.7823L138.494 67.6987L137.992 67.3639L137.49 66.6945L137.072 65.5229L136.988 65.1045V63.3472L137.574 61.1715L138.746 58.2426L139.582 56.4853L140.168 55.3137L140.503 53.9748L140.419 53.0543L139.833 53.138L138.662 53.9748L137.909 54.8116L137.072 55.8995L135.817 57.7405L134.561 59.9162L133.306 62.2593L132.553 63.933L131.967 65.5229L131.549 66.8618L131.298 67.6987L131.13 67.7823H130.21L129.289 67.4476L128.787 67.1129L128.202 66.4434L128.034 65.9413V64.8535L128.369 63.4309L128.871 62.092L129.457 60.7531L130.126 59.4141L130.963 57.8242L131.633 56.4853L132.218 55.23L132.553 54.0585V53.3054L132.469 53.138L132.051 53.2217L131.214 53.5564L130.294 54.3095L129.541 55.23L128.787 56.2342L127.867 57.6568L127.114 58.9957L126.444 60.3346L125.691 61.7572L124.436 64.5187L123.934 65.774L123.766 66.4434L123.683 67.4476L123.348 67.7823L122.679 67.866L122.009 67.615L121.34 67.0292L120.838 66.2761L120.754 65.9413V64.5187L121.172 62.9288L121.842 61.0878L122.511 59.4978L123.264 57.9079L123.85 56.4016L124.687 54.3095L125.022 52.9706L125.189 51.8828L125.44 51.6317L126.444 51.548L127.197 51.7154L127.867 52.0501L128.369 52.7196L128.871 54.0585V54.3095L129.624 53.7238L130.21 53.0543L131.214 52.2175L132.135 51.7154L132.804 51.548H133.557L134.394 51.9664L134.98 52.8033L135.315 53.8911V55.3974L134.896 56.569V56.9037L135.649 56.0669L136.821 54.4769L137.741 53.4727L138.662 52.5522L139.75 51.7991L140.419 51.548L140.921 51.4644Z" fill="#B57A45"/>
<path d="M13.7247 25.6904L14.1431 25.7741L14.6452 26.1088L15.9841 27.5314L16.7373 28.5356L17.2393 30.0419L17.323 30.544V32.385L17.072 34.0586L16.8209 35.0628L17.4904 34.7281L18.4109 33.8076L19.5824 33.1381L20.5866 32.8034L21.0887 32.7197H22.2603L23.7665 32.9708L24.8544 33.3892L26.1933 34.0586L26.3607 34.226L26.277 34.6444L25.1055 36.2344L24.436 36.9038L24.0176 37.4059L23.0971 38.159L21.9255 38.8285L20.6703 39.2469L19.5824 39.4143H18.4946L17.2393 39.2469L16.0678 38.9122L14.4778 38.159L13.5573 37.4896L12.7205 36.7365L12.0511 35.9833L11.4653 34.8118L11.1306 33.5565L11.0469 33.1381V32.1339L11.549 29.8745L12.0511 28.5356L12.7205 27.1967L13.4737 25.9415L13.7247 25.6904Z" fill="#FEB361"/>
<path d="M156.486 25.6069L156.821 25.6906L157.323 26.2764L158.16 27.8663L158.913 29.6237L159.332 31.381L159.415 32.971L159.164 34.3935L158.83 35.3977L157.993 36.4856L157.323 37.1551L155.817 38.2429L154.394 38.9124L152.804 39.3308L151.382 39.4145L149.959 39.3308L148.871 38.9961L147.784 38.4103L146.696 37.4061L145.44 36.1509L144.855 35.4814L144.102 34.4772L144.353 34.0588L145.943 33.222L147.03 32.8873L147.533 32.8036H149.625L150.963 33.1383L151.884 33.6404L152.804 34.3935L153.725 35.2304L153.39 33.8915L153.223 33.0546L153.139 31.1299L153.307 30.2931L153.809 28.7868L154.394 27.699L155.064 26.8622L156.068 25.858L156.486 25.6069Z" fill="#FEB361"/>
<path d="M19.162 92.9707H19.5804L19.9151 93.3891L20.3335 94.5607L20.8356 96.6527L20.9193 97.2385V98.9121L20.5845 100.335L19.9151 101.674L19.3293 102.51L18.9109 103.013L17.9904 103.766L16.2331 104.686L14.4758 105.272L13.4716 105.439H12.049L10.8774 105.188L9.70589 104.603L8.86907 103.933L8.03225 103.096L6.94438 101.59L6.27492 100.418L5.60547 99.0795V98.5774L6.02388 98.159L8.03225 97.7406L9.03643 97.6569L10.6264 97.9916L11.5469 98.3264L12.7184 98.9121L13.7226 99.8326L14.3084 100.502L14.8942 101.255L15.1452 101.339L14.9779 100.837L14.8105 99.4979V98.6611L15.0615 97.1548L15.4799 96.0669L16.1494 95.0628L16.8189 94.3933L17.6557 93.8075L18.7435 93.1381L19.162 92.9707Z" fill="#FEB361"/>
<path d="M150.962 92.8872L152.05 93.3056L153.054 93.8914L153.891 94.6445L154.644 95.3977L155.23 96.5692L155.481 97.5734L155.565 99.247L155.397 100.921L155.314 101.339L155.983 100.753L156.987 99.6654L157.992 98.9123L159.163 98.2429L160.502 97.8244L161.423 97.6571H162.343L164.435 98.1592L164.937 98.5776L164.686 99.5818L164.017 100.921L163.012 102.427L162.259 103.347L161.339 104.268L160.167 104.937L159.079 105.272L157.573 105.44L156.402 105.356L155.146 105.021L153.724 104.435L152.72 103.85L151.883 103.18L151.213 102.511L150.46 101.423L149.874 100.168L149.707 99.4981V96.5692L150.042 94.8956L150.544 93.3893L150.795 92.9709L150.962 92.8872Z" fill="#FEB361"/>
<path d="M162.093 35.1465L162.428 35.2302L162.762 35.8159L163.432 37.4896L163.85 38.9959L164.018 40L164.101 41.0042V42.1758L163.85 43.5147L163.264 44.6862L162.344 45.6904L161.34 46.5272L160.503 47.0293L158.746 47.6988L157.825 47.9498L157.239 48.0335H155.064L153.808 47.6988L152.804 47.2804L151.716 46.5272L150.963 45.7741L149.959 44.3515L148.955 42.5942L148.871 42.4268V41.9247L149.206 41.6737L151.298 41.0879L151.716 41.0042H153.557L154.729 41.339L155.984 42.0084L156.57 42.5105L157.323 43.431L157.49 43.9331L157.909 44.1005L158.076 44.1841L157.909 42.6779V41.2553L158.243 39.5816L158.913 38.0754L159.582 37.1549L160.252 36.4854L161.34 35.6486L162.093 35.1465Z" fill="#FEB361"/>
<path d="M8.1167 35.1465L8.61879 35.3138L9.45561 35.8159L10.4598 36.6528L11.2129 37.5733L11.7987 38.4101L12.1334 39.1632L12.3845 40.5021L12.4682 41.5063V43.8494L12.5518 44.2678L13.1376 43.5984L13.8908 42.6779L14.8949 41.841L15.8991 41.339L16.9033 41.0042L17.9075 40.9205L19.4138 41.0879L21.0037 41.59L21.5058 41.841L21.6732 42.0084L21.5895 42.5942L21.0874 43.5984L19.9159 45.3557L18.9954 46.3599L18.4096 46.862L17.5728 47.3641L16.2339 47.8661L15.4807 48.0335H13.1376L11.6313 47.6988L10.2087 47.113L8.86984 46.3599L8.03302 45.6067L7.53092 45.021L7.02883 44.1841L6.52674 42.9289L6.35938 42.0921V40.7532L6.77779 38.5774L7.1962 37.0712L7.86565 35.4812L8.1167 35.1465Z" fill="#FEB361"/>
<path d="M16.7365 84.519L16.9875 84.6027L17.2385 85.3559L17.5733 87.5316L17.657 89.0379L17.4896 90.2094L16.9875 91.7157L16.4854 92.5525L15.7323 93.473L14.7281 94.3098L13.6402 94.9793L12.0503 95.5651L10.2093 95.9835L9.70716 96.0672H8.6193L7.28038 95.6488L6.35988 95.2303L5.43938 94.6446L4.68624 93.8914L3.84942 92.6362L3.17997 91.2973L2.67787 90.1257L2.17578 88.5358L2.25946 87.95L2.84524 87.8663L5.02097 87.7826L6.35988 87.95L7.36407 88.2847L8.36825 88.8705L9.45612 89.791L10.2093 90.7952L10.795 91.7994L11.2134 92.1341V91.1299L11.3808 89.4563L11.9666 87.699L12.636 86.6948L13.6402 85.858L15.2302 84.9375L16.318 84.6027L16.7365 84.519Z" fill="#FEB361"/>
<path d="M4.09958 45.272L4.68536 45.3557L6.10795 46.1925L7.11214 47.0293L7.78159 47.6151L8.53473 48.7866L9.03682 50.1255L9.28787 51.2134L9.53892 53.2218L9.6226 53.5565L9.95733 53.3891L10.6268 52.0502L11.3799 51.1297L12.0494 50.5439L12.8862 50.0418L14.0577 49.7071L15.564 49.6234L17.0703 49.7908L18.0745 50.0418L18.4092 50.3766L18.1582 51.1297L17.5724 52.636L16.5682 54.3096L15.8987 55.1465L15.2293 55.8159L14.3925 56.4017L13.472 56.8201L12.4678 57.1548L11.631 57.2385H9.78996L8.61841 56.9875L6.94477 56.4854L5.77323 55.9833L4.85272 55.3138L4.09958 54.3933L3.51381 53.2218L3.0954 51.8829L3.01172 51.6318V49.0377L3.26276 47.364L3.84854 45.6067L4.09958 45.272Z" fill="#FEB361"/>
<path d="M153.807 84.519L154.56 84.6864L156.067 85.3559L157.071 85.9416L157.74 86.5274L158.242 87.2805L158.661 88.1174L158.996 89.3726L159.079 89.8747L159.247 91.8831L159.33 92.2178L159.749 91.7994L160.334 90.7115L161.255 89.6236L161.924 89.0379L163.096 88.3684L163.849 87.95L164.519 87.7826H166.945L168.201 88.0337L168.368 88.2847L168.284 89.0379L167.447 91.2136L166.778 92.4688L165.941 93.7241L165.188 94.5609L164.435 95.1467L163.18 95.7324L162.259 95.9835L160.92 96.0672L159.498 95.8161L158.075 95.4814L156.569 94.8119L155.732 94.2262L154.895 93.473L154.226 92.8036L153.724 92.0504L153.138 90.5441L152.887 89.2889L153.054 86.4437L153.305 84.7701L153.807 84.519Z" fill="#FEB361"/>
<path d="M155.147 75.9834L156.319 76.0671L157.909 76.4855L159.164 77.1549L160.168 78.0754L160.838 79.1633L161.256 80.0838L161.423 81.088V81.9248L161.34 82.5106L161.842 82.4269L162.009 82.0085L162.846 80.7533L163.432 79.8328L164.436 78.8286L165.189 78.2428L166.528 77.5734L167.114 77.406L167.951 77.3223H169.792L170.21 77.4897L170.294 77.9081L169.875 80.0001L169.206 82.0085L168.369 83.5985L167.616 84.519L166.946 85.1047L166.11 85.6905L165.022 86.1089L163.85 86.2763L161.172 86.1089L159.499 85.6905L157.909 84.9374L156.905 84.1842L156.319 83.5985L155.482 82.0922L155.147 81.0043L154.812 79.6654V76.5692L154.98 76.0671L155.147 75.9834Z" fill="#FEB361"/>
<path d="M166.028 45.272H166.446L166.697 45.523L167.116 47.113L167.534 49.4561V51.2971L167.283 52.4686L166.697 53.8912L166.112 54.728L165.358 55.4812L164.02 56.2343L161.76 56.9875L161.007 57.1548L160.254 57.2385H158.748L157.743 57.0711L156.823 56.7364L155.902 56.2343L154.815 55.3138L154.061 54.3933L153.392 53.3054L152.722 52.0502L152.22 50.7113L152.137 50.2092L152.639 49.9582L153.894 49.7071H156.237L157.492 49.9582L158.162 50.2929L159.082 50.9623L159.835 51.7992L160.338 52.7197L161.007 53.5565L161.174 53.8075V50.9623L161.844 48.954L162.43 48.0335L163.434 46.9456L164.271 46.3598L165.442 45.6904L165.861 45.3557L166.028 45.272Z" fill="#FEB361"/>
<path d="M1.42006 55.8159L2.00583 55.8996L3.34475 56.4017L4.68366 57.0711L5.60416 57.7406L6.18994 58.4101L6.85939 59.6653L7.36148 60.9205L7.77989 63.1799L7.86358 63.431L8.1983 62.7615L8.78408 61.4226L9.36985 60.5858L9.95563 59.9163L10.8761 59.2469L11.7129 58.7448L12.8008 58.4101H15.4786L16.1481 58.7448V59.5816L15.7297 61.3389L15.1439 62.6778L14.5581 63.7657L13.7213 64.8536L12.8008 65.6067L11.5456 66.1925L9.95563 66.6109L9.03512 66.6946H7.19412L5.26943 66.2762L4.09789 65.8578L3.26107 65.272L2.42424 64.4352L1.83847 63.5147L1.16901 61.9247L0.917969 60.5858V57.9917L1.08533 56.4017L1.42006 55.8159Z" fill="#FEB361"/>
<path d="M14.7292 75.9834L15.5661 76.1508L15.7334 76.4018V79.3307L15.4824 80.6696L14.9803 82.1759L14.4782 83.0964L13.5577 84.1006L12.6372 84.8537L11.2146 85.6068L9.45728 86.0252L8.11836 86.1926L6.27736 86.2763L5.27318 86.0252L3.93426 85.3558L3.01376 84.6863L2.34431 83.8495L1.59117 82.5106L0.921712 80.837L0.335938 78.4102L0.41962 77.7407L0.586984 77.406L1.17276 77.3223H2.17694L3.34849 77.4897L4.6874 77.9081L5.6079 78.4102L6.69577 79.3307L7.36523 80.1675L8.28573 81.7575L8.78782 82.5106L9.03887 82.5943L9.12255 80.837L9.37359 79.9165L9.95937 78.7449L10.5451 77.9081L11.1309 77.3223L12.3025 76.6529L13.8087 76.1508L14.7292 75.9834Z" fill="#FEB361"/>
<path d="M168.704 55.7324H169.123L169.29 55.8998L169.625 57.7408L169.708 59.5818L169.374 61.7575L169.039 62.7617L168.62 63.5985L167.951 64.519L167.449 65.1048L166.361 65.8579L164.855 66.36L163.516 66.6111H160.085L158.83 66.1927L157.742 65.6069L156.654 64.6027L155.984 63.6822L155.315 62.5107L154.646 60.837L154.395 59.4981L154.562 58.745L154.897 58.4102H156.654L157.993 58.5776L159.248 58.996L160.001 59.4981L160.922 60.2513L161.759 61.4228L162.344 63.1801L162.595 63.0964L163.097 61.0044L163.6 59.7492L164.102 58.745L164.855 57.9082L165.273 57.4897L166.445 56.7366L167.365 56.3182L168.118 56.0671L168.704 55.7324Z" fill="#FEB361"/>
<path d="M0 66.6943H1.42259L2.84519 67.0291L4.43515 67.7822L5.43933 68.7027L6.10879 69.4558L6.69456 70.3763L7.53138 72.3847L7.78243 72.8868L7.94979 72.9705L8.20084 71.4642L8.53556 70.46L9.03766 69.7069L9.70711 68.8701L10.4603 68.1169L11.1297 67.7822L12.636 67.3638L13.3891 67.2801H14.477L15.1464 67.4475L15.3138 67.6148L15.2301 69.0374L14.8954 70.9621L14.2259 72.7194L13.6402 73.6399L12.9707 74.4768L12.0502 75.2299L10.795 75.8157L9.70711 76.1504L8.53556 76.3178H5.85774L4.60251 76.1504L3.59833 75.732L2.76151 75.1462L2.17573 74.6441L1.42259 73.6399L0.669456 72.2173L0.334728 71.2968L0 70.209V66.6943Z" fill="#FEB361"/>
<path d="M169.371 66.6943H170.459L170.626 67.1127V68.2843L170.543 69.5395L170.208 71.1295L169.538 72.8868L168.869 74.142L167.781 75.2299L166.861 75.8157L165.94 76.1504L164.685 76.3178H161.84L160.501 76.0667L159.246 75.6483L157.907 74.8952L157.237 74.2257L156.4 72.8868L155.815 71.4642L155.396 69.9579L155.312 69.3722L155.396 67.7822L155.731 67.2801L155.815 67.1964L156.986 67.2801L158.158 67.4475L159.497 67.9496L160.333 68.4517L161.338 69.4558L161.923 70.2927L162.342 71.2968L162.593 72.5521V72.9705H162.928L163.179 72.1337L163.848 70.46L164.266 69.7069L165.02 68.7864L165.605 68.2843L166.024 67.8659L166.861 67.2801L167.865 66.9454L169.371 66.6943Z" fill="#FEB361"/>
<path d="M64.8523 11.5483L65.1033 11.7157L65.6054 13.0546L66.1912 15.063L66.777 16.6529L66.9443 16.904L70.5427 16.9877L71.7979 17.0714L72.3837 17.3224L72.3 17.5734L70.5427 18.5776L69.6222 19.2471L68.4506 20.0839L68.1159 20.586L68.3669 21.5902L69.1201 24.017L69.6222 25.3559V25.9416L69.1201 25.7743L68.0322 25.0211L66.9443 24.1843L65.5218 23.1801L64.8523 22.8454L64.0992 23.2638L63.2623 23.8496L62.1745 24.6864L61.1703 25.5232L60.6682 25.858H60.4172L60.3335 25.2722L61.1703 22.427L61.6724 20.837L61.5887 20.4186L61.1703 20.0002L59.664 18.9124L58.7435 18.2429L57.7393 17.7408L57.4883 17.4898L57.572 17.155L57.7393 17.0714L62.1745 16.9877L63.0113 16.904L63.2623 16.2345L63.6807 14.8119L64.5176 12.0504L64.8523 11.5483Z" fill="#B57A45"/>
<path d="M107.448 11.6318L107.782 11.9666L108.117 12.8871L109.038 16.318L109.289 16.9038L112.887 16.9875L114.226 17.0712L114.979 17.2385L114.895 17.5733L113.054 18.5774L111.548 19.6653L110.879 20.1674L110.628 20.5858L111.381 23.18L112.05 25.1883V25.8578L111.883 25.9415L110.962 25.3557L109.958 24.5189L107.615 22.8452L107.197 22.9289L105.356 24.1841L103.933 25.272L103.096 25.7741H102.762L102.845 25.1046L103.515 23.0126L104.184 21.0879V20.5021L103.598 19.9164L102.176 18.9122L100.921 18.0754L100.167 17.6569L100 17.4896L100.084 17.0712L100.753 16.9875H104.351L105.356 16.9038L105.607 16.5691L107.113 12.0502L107.448 11.6318Z" fill="#B57A45"/>
<path d="M142.511 20.4185L144.185 20.7532L145.691 21.2553L147.114 21.9247L148.118 22.5942L148.955 23.3473L149.791 24.3515L150.461 25.5231L151.13 27.2804L151.298 28.0335L151.465 30.4603V31.1298L151.298 31.2971H150.712L149.038 30.6277L147.365 29.7072L146.277 28.8703L145.273 27.9498L144.436 26.862L143.85 25.8578L143.181 24.2678L142.678 22.5105L142.344 21.1716V20.5858L142.511 20.4185Z" fill="#FEB361"/>
<path d="M27.6153 20.4185H28.1174V21.339L27.699 23.0963L27.0296 25.1046L26.1091 26.862L25.5233 27.6151L24.8538 28.3682L23.9333 29.1214L22.6781 29.9582L21.3392 30.6277L20.4187 31.0461L19.3308 31.4645H19.1635L18.9961 30.9624V29.7908L19.4145 27.2804L20.0003 25.5231L20.8371 24.2678L21.5902 23.431L22.3434 22.6779L23.5986 21.8411L25.0212 21.1716L26.5275 20.6695L27.6153 20.4185Z" fill="#FEB361"/>
<path d="M18.2427 104.77L18.5775 104.854L19.0796 105.439L20.0837 107.029L21.0042 108.368L22.0921 109.875L23.2637 111.381L23.9331 112.218L24.6863 113.138L25.6904 114.31L26.4436 115.23L27.0294 115.816L27.6151 116.486L28.3683 117.239L28.954 117.992L28.8704 118.327L27.4478 119.749L27.1967 119.916L26.862 119.833L26.1925 119.331L24.9373 117.992L24.3515 117.322L23.5147 116.402L22.7616 115.481L21.8411 114.393L21.0042 113.306L20.0837 112.134L18.9959 110.628L16.8201 107.364L16.2344 106.444V106.276L16.9875 105.774L18.1591 104.854L18.2427 104.77Z" fill="#FEB361"/>
<path d="M151.886 104.77L152.388 104.937L153.309 105.607L154.145 106.193L154.062 106.695L152.974 108.536L152.388 109.456L151.384 110.879L150.296 112.385L149.459 113.473L148.288 114.896L147.284 116.067L146.53 116.904L145.945 117.573L145.191 118.327L144.02 119.665L143.518 120L143.016 119.833L142.346 119.247L141.928 118.829L141.426 118.243L141.593 117.908L142.681 116.904L143.35 116.234L144.104 115.314L145.108 114.142L145.861 113.222L147.032 111.799L148.288 110.126L149.292 108.703L150.463 107.029L151.384 105.439L151.886 104.77Z" fill="#FEB361"/>
<path d="M91.5516 86.6943H94.3131L95.0663 86.8617L95.7357 87.2801L96.2378 87.8659L96.5725 88.7027L96.4889 89.8743L96.1541 91.0458L95.5684 91.9663L94.8152 92.8031L93.8947 93.5563L93.811 93.891L94.5642 96.3178L94.8989 97.9914V98.6609L94.6478 98.7445H93.9784L93.56 98.3261L93.3089 97.6567L92.5558 95.1462L92.2211 94.142L91.8027 93.6399L91.2169 93.5563L90.8822 94.3931L90.2127 97.1546L89.878 98.6609L89.2922 98.8282H88.6227L88.5391 98.7445L88.6227 97.6567L89.2085 95.0625L89.878 91.6316L90.6311 88.2843L90.8822 87.1127L91.3006 86.778L91.5516 86.6943ZM92.8068 87.8659L92.2211 88.1169L91.97 88.9538L91.3843 91.2132L91.3006 91.9663L91.6353 92.301L92.3048 92.4684H93.2253L93.9784 92.05L94.6478 91.2968L94.9826 90.7111L95.0663 90.3763V88.9538L94.7315 88.2843L94.2294 87.9496L93.8947 87.8659H92.8068Z" fill="#744B27"/>
<path d="M112.971 86.6108L113.64 86.6945L113.724 87.1129L113.054 89.7908L112.803 91.1297L112.72 91.8828L113.64 91.9665L115.899 92.0502L116.067 91.1297L116.653 88.9539L117.071 87.1966L117.406 86.6945L117.657 86.6108H118.243L118.577 86.7782L118.494 87.5313L117.992 89.7071L117.238 93.4728L116.569 96.4853L116.067 98.661L115.816 98.8284L114.979 98.9121L114.728 98.661V98.0753L115.648 94.0585L115.732 93.3054L114.812 93.2217H112.469L112.134 94.3096L111.548 97.0711L111.213 98.4937L110.879 98.8284H109.874L109.707 98.661L109.791 97.8242L110.125 96.4016L110.879 92.7196L111.464 89.8744L112.217 87.1129L112.552 86.6945L112.971 86.6108Z" fill="#744C28"/>
<path d="M82.4297 86.6108H83.0992L83.4339 86.7782L83.5176 87.1129L83.6849 90.5439L83.936 96.0669V98.4937L83.6849 98.7447H82.9318L82.5971 98.41L82.4297 95.1464L80.6724 95.0627H79.4172L79.2498 95.4811L78.5803 96.82L77.9946 98.159L77.7435 98.5774L77.6598 98.661L76.6556 98.7447L76.4883 98.661L76.572 97.9916L78.0782 94.8117L78.9987 92.887L80.0029 90.7949L81.2582 88.0334L82.0113 86.8619L82.4297 86.6108ZM82.2623 88.7029L82.0113 89.2887L80.8397 91.8828L80.0866 93.6401L80.1703 93.8912L81.2582 93.9749H82.346L82.4297 93.8912V91.9665L82.346 88.7029H82.2623Z" fill="#734B27"/>
<path d="M60.5026 86.6943H61.5905L62.3436 86.9454L62.9294 87.3638L63.3478 88.2006L63.5152 89.2048L63.2641 89.7069H62.9294L62.4273 89.3722L61.8415 88.7027L61.5068 88.2843L61.0047 88.0332H60.1679L59.6658 88.2843L59.2474 88.7864L58.9126 89.6232V90.3763L59.2474 91.1295L60.0842 91.7989L61.0047 92.5521L61.6741 93.2215L62.0926 93.9747L62.1762 94.3094V95.0625L62.0089 95.8994L61.6741 96.7362L61.1721 97.4056L60.2516 98.3261L59.4147 98.7445L59.1637 98.8282H57.5737L56.7369 98.4098L56.1511 97.7404L55.8164 96.9035V95.732L56.1511 95.2299L56.3185 95.1462H56.8206L57.1553 95.4809L57.49 96.9872L57.8248 97.4056L58.1595 97.573H59.08L59.9168 97.0709L60.4189 96.3178L60.5863 95.732V94.5604L60.3352 94.0584L59.8331 93.4726L58.5779 92.5521L57.7411 91.7989L57.4064 91.0458L57.49 89.7906L57.7411 88.8701L58.4105 87.8659L59.08 87.2801L60.0842 86.778L60.5026 86.6943Z" fill="#744B27"/>
<path d="M104.101 86.6943H104.938L105.775 86.8617L106.444 87.2801L106.946 87.9496L107.03 88.1169V88.7027L106.779 89.2885L106.528 89.3722L105.942 89.0374L105.105 88.2006L104.352 87.9496L103.516 88.1169L103.013 88.4517L102.762 88.5353L102.595 88.8701L101.926 90.0416L101.507 91.1295L100.754 93.9747L100.67 94.6441V95.732L100.838 96.4851L101.172 96.9872L101.758 97.4893L102.511 97.573L103.348 97.2383L104.101 96.6525L104.854 96.1504L105.357 96.0667L105.524 96.1504L105.44 96.7362L104.938 97.4893L104.269 98.1588L103.264 98.6609L102.679 98.8282H101.172L100.503 98.4935L100.085 98.0751L99.7498 97.6567L99.3314 96.6525L99.1641 95.4809L99.2477 93.891L99.5825 92.3847L100.001 91.0458L100.67 89.5395L101.256 88.619L102.009 87.6985L103.181 86.9454L103.599 86.778L104.101 86.6943Z" fill="#744B27"/>
<path d="M68.8699 86.6943H73.2213L75.0624 86.778L75.3134 86.8617V87.3638L74.895 87.8659L74.5603 87.9496L72.7193 88.0332L72.4682 88.368L71.3803 93.3889L70.8783 95.732L70.4598 97.573L70.2088 98.6609L70.1251 98.7445H68.8699L68.7862 98.5772L68.8699 97.7404L69.5393 94.6441L70.2925 91.2132L70.9619 88.1169L68.9536 88.0332L68.5352 87.7822L68.6188 87.0291L68.8699 86.6943Z" fill="#734A26"/>
<path d="M128.45 112.134L129.203 112.217L129.119 112.72L129.37 113.473H129.789L130.207 114.31L129.956 113.222L129.538 112.552L129.287 112.217L130.458 112.301L130.709 112.385L130.877 112.636L130.793 113.138L130.458 114.393L130.542 115.146V117.238L130.374 117.573L130.04 117.406L129.37 116.067L128.701 115.146L128.45 114.895L128.115 114.979L129.119 116.987L129.454 117.489L130.04 117.908L129.789 118.661L129.287 119.079H128.366L127.446 118.494L126.609 117.657L126.441 117.238L127.027 116.234L127.529 114.477L127.78 112.887L128.031 112.301L128.45 112.134Z" fill="#734A27"/>
<path d="M72.1329 45.7739L72.8861 45.8576L73.6392 46.3597L74.3923 46.9455L74.8108 47.6149V48.2844L74.1413 49.8743L73.5555 51.2969L73.3882 51.3806L72.1329 50.7948L71.2124 50.2091L70.7103 49.7907L70.543 49.4559L70.7103 48.2844L71.2124 47.1128L71.5472 46.5271L71.8819 46.025L72.1329 45.7739Z" fill="#B57A47"/>
<path d="M130.627 97.1548L131.212 97.3221L131.798 97.9916L132.217 99.0795L132.384 99.4142L132.217 100.335L132.133 101.423L131.882 101.841L131.463 102.092L131.045 101.841L130.794 101.506V99.5816L130.543 98.2427V97.2385L130.627 97.1548Z" fill="#734A26"/>
<path d="M129.289 112.218L130.461 112.301L130.712 112.385L130.879 112.636L130.795 113.138L130.377 114.561H130.293L129.875 113.055L129.54 112.553L129.289 112.218Z" fill="#784E2A"/>
<path d="M68.8699 86.6943H73.2213V86.778L70.2088 86.8617L68.8699 87.1127H68.7025L68.6188 87.7822H68.5352L68.6188 87.0291L68.8699 86.6943Z" fill="#B67D4A"/>
<path d="M130.545 86.7783L131.047 87.1967V87.6151L130.378 87.5315L130.126 87.6151H129.457V87.5315L129.959 87.4478L130.043 87.0294L130.461 86.862L130.545 86.7783Z" fill="#B47B48"/>
<path d="M105.106 96.0669L105.524 96.1506L105.44 96.7364L105.189 96.6527V96.82L104.102 96.7364L104.52 96.3179L105.106 96.0669Z" fill="#B98150"/>
<path d="M137.073 73.3892L137.492 73.4728V74.3097L137.408 74.0586L136.655 73.9749L136.32 74.226L136.488 73.8913L137.073 73.3892Z" fill="#AB7747"/>
<path d="M102.26 98.5776H103.264L103.013 98.745L102.678 98.8287H101.172V98.745L102.26 98.5776Z" fill="#B98150"/>
<path d="M134.896 105.774L135.314 106.025L135.398 106.276L134.979 106.36L134.645 106.276L134.728 105.941L134.896 105.774Z" fill="#915F33"/>
<path d="M131.547 87.5312L131.714 87.6149L131.882 88.2844H131.965V88.7865L131.882 88.9538H131.714L131.547 87.866V87.5312Z" fill="#BB8656"/>
<path d="M58.2399 98.5776H59.1604L59.4115 98.745L59.1604 98.8287H58.1562L58.2399 98.5776Z" fill="#B67B48"/>
<path d="M130.46 87.0293L130.795 87.113L130.962 87.2803V87.5314L130.293 87.4477V87.1967H130.46V87.0293Z" fill="#754B26"/>
<path d="M56.3175 95.1465H56.8195L56.6522 95.5649L56.3175 95.4812L56.0664 95.3138L56.3175 95.1465Z" fill="#B47843"/>
<path d="M94.8125 88.4517L95.1472 88.619V90.0416H95.0635L94.9799 88.9538L94.8125 88.4517Z" fill="#C5966E"/>
<path d="M135.898 106.527L136.149 106.778L136.233 107.28H136.066L135.898 106.527Z" fill="#9B6638"/>
<path d="M127.865 89.2051L127.949 89.4561H127.781L127.865 89.2051Z" fill="#A77F5C"/>
</svg>
