<svg width="184" height="100" viewBox="0 0 184 100" fill="none" xmlns="http://www.w3.org/2000/svg">
<path d="M145.623 28.647H147.745L151.989 29.4427L155.438 30.769L158.621 32.891L161.538 35.8088L163.395 38.7265L165.252 42.9706L166.048 46.9494V52.5197L165.252 56.4984L163.926 59.9467L162.069 62.8645L159.682 65.517L157.56 67.3738L153.846 69.4958L150.928 70.5568L147.745 71.0873H145.093L140.583 70.2915L137.666 69.2305V93.899L137.4 99.204L136.87 99.7345L134.748 99.9998H127.586L125.199 99.4693L124.934 98.4082V30.769L125.729 29.9732L127.851 29.708H132.095L133.422 32.3605V33.6868L136.605 31.83L139.257 30.2385L142.44 29.1775L145.623 28.647Z" fill="#5C5B5B"/>
<path d="M73.7401 28.647H76.1273L80.3714 29.4427L84.6154 31.5647L87.7984 34.4825L88.8594 33.952L90.7162 32.3605L94.4297 30.2385L97.3475 29.1775L100.796 28.647L105.305 28.9122L108.488 29.708L112.732 31.83L114.854 33.6868L117.241 37.4003L118.568 40.5833L119.363 44.2968L119.629 48.0104V66.0475L119.363 69.2305L118.302 70.0263L111.406 70.2915L107.958 69.761L107.427 68.7L107.162 46.1536L106.366 43.5011L105.305 41.9096L103.448 40.5833L101.061 40.0528H98.6737L96.0212 40.8486L93.3687 42.4401L92.0424 43.7663V63.9255L91.7772 68.7L90.4509 70.0263H81.6976L80.9019 69.761L80.3714 68.4348L80.1061 45.6231L78.7798 42.4401L76.9231 40.8486L74.5358 40.0528H71.8833L68.9655 41.1138L67.1088 42.4401L65.5173 44.8273L65.252 45.6231L64.9867 68.1695L63.9257 69.761L63.6605 70.0263H54.1114L52.7852 68.7V30.769L53.3157 29.9732L56.7639 29.708H59.4165L60.7427 31.83L61.2732 34.2173L62.8647 33.1563L66.313 30.769L69.496 29.4427L73.7401 28.647Z" fill="#5C5B5B"/>
<path d="M13.7931 28.647H16.1804L20.4244 29.1775L24.1379 30.2385L27.321 31.83L28.382 32.891L28.1167 35.2783L25.9947 39.5223L24.9337 40.8486H23.3422L18.8329 39.2571L15.3846 38.7265H13.7931L12.2016 39.5223L11.9363 41.3791L13.2626 42.7053L21.4854 46.1536L25.9947 48.8061L28.382 51.1934L29.7082 53.5807L30.504 55.7027V61.0077L29.443 63.9255L27.5862 66.3128L25.1989 68.4348L21.7507 70.0263L18.3024 70.822L16.4456 71.0873H13.5279L9.01857 70.5568L4.50928 69.2305L1.59151 67.639L0.530504 66.3128L0.795756 64.456L2.91777 60.212L3.97878 58.6204L6.36605 58.8857L10.6101 60.4772L12.9973 61.0077H16.1804L18.0371 59.4162L17.7719 57.8247L16.4456 56.4984L12.2016 54.3764L7.95756 52.5197L5.03979 50.6629L3.18302 49.0714L1.32626 46.4189L0.265252 43.5011L0 41.9096V39.7876L0.795756 36.6045L2.12202 33.952L3.18302 32.6258L5.83554 30.769L8.75332 29.4427L13.7931 28.647Z" fill="#5C5B5B"/>
<path d="M171.882 0H183.288L183.553 0.265252L183.818 9.01857V67.6393L183.288 69.496L182.492 70.0265H172.678L171.617 69.2308L171.352 65.7825V35.0133L171.617 0.265252L171.882 0Z" fill="#5C5B5B"/>
<path d="M35.0149 29.9736H46.1555L46.9512 31.8304V67.9047L46.4207 69.2309L45.3597 70.0267H36.6064L35.0149 69.4962L34.4844 68.7004V31.0346L35.0149 29.9736Z" fill="#5C5B5B"/>
<path d="M38.1958 0H42.9704L45.6229 1.06101L47.7449 2.65252L49.3364 4.50928L50.6627 7.1618L50.9279 8.22281V11.9363L49.8669 15.1194L48.0102 17.5066L45.6229 19.3634L42.7051 20.4244H38.7263L36.0738 19.6286L33.1561 17.5066L31.2993 14.8541L30.5035 12.4668L30.2383 9.81432L30.7688 6.89655L32.3603 3.71353L34.2171 1.85676L37.4001 0.265252L38.1958 0Z" fill="#5C5B5B"/>
<path d="M143.768 39.7876H146.155L149.073 40.5834L151.46 42.4401L153.052 44.5621L154.113 47.2147V52.2544L153.052 54.907L150.93 57.8247L147.747 59.4162L145.89 59.9467H142.972L139.524 59.151L137.402 58.09L137.137 57.8247V45.3579L138.198 43.2359L140.054 41.3791L142.707 40.0528L143.768 39.7876Z" fill="white"/>
</svg>
