<svg width="126" height="120" viewBox="0 0 126 120" fill="none" xmlns="http://www.w3.org/2000/svg">
<path d="M57.0999 2.50977H61.9106L66.7213 2.71893L67.558 3.13725L67.7672 4.60139L67.1397 5.43804L65.048 5.85637L65.2572 23.426L67.7672 27.6093L72.7871 35.5575L78.6436 45.179L81.1536 49.1531L83.036 52.2905L83.2452 53.5455L82.1994 54.3821L81.5719 54.5913H42.0401L40.7852 53.5455L40.9943 52.0813L44.5501 46.2248L47.06 42.2507L49.9883 37.4399L53.3349 32.0017L55.8449 28.0276L58.3548 23.8444L58.7732 22.1711L58.564 5.85637L56.6815 5.22888L56.054 4.18307L56.2632 3.13725L57.0999 2.50977Z" fill="#FDFDFD"/>
<path d="M102.072 44.5518L102.281 45.1792L101.444 48.3167L99.9799 52.2908L98.5158 55.6374L96.8425 58.984L94.7508 62.5398L91.8226 66.5138L89.3126 69.233L87.221 71.3246L83.2469 74.2529L78.6453 76.7628L73.4162 78.8545L69.0238 79.9003L65.8864 80.5278L63.7948 80.7369H61.9123L61.7031 79.9003L61.9123 79.6911L62.1215 76.3445L62.9581 72.9979L64.8406 69.6513L67.1414 67.1413L69.6513 65.0497L74.0437 62.1214L78.227 59.8206L81.5736 58.3565L83.8744 56.8924L84.9202 55.8465L86.1752 54.1732L86.8027 52.7091L87.6393 52.4999V54.3824L87.0118 57.3107L85.7568 60.6573L85.5477 61.9123L86.8027 61.2848L89.7309 58.984L91.8226 57.1015L93.4959 55.6374L96.4241 52.7091L99.3524 48.735L101.653 44.9701L102.072 44.5518Z" fill="#A9CD46"/>
<path d="M20.707 44.1333H21.3345L23.217 47.0616L24.6811 49.5715L26.3544 51.8723L28.2369 53.964L29.701 55.6373L32.0018 57.7289L34.9301 60.0297L37.6492 61.9121L38.4859 62.3305L37.2309 59.193L36.1851 56.2647L35.7667 54.3823V52.2906L36.3942 52.4998L37.6492 54.8006L39.5317 56.8922L41.6233 58.3564L47.4799 61.0755L50.4081 62.7488L53.7547 65.0496L55.8464 66.932L58.3563 69.442L60.0296 72.1611L61.0754 74.6711L61.2846 75.5077V80.5276H57.7288L52.0814 79.4818L47.689 78.0177L43.9241 76.1352L42.46 75.5077V75.0894L41.6233 74.8802L39.5317 73.6253L36.8126 71.5336L34.7209 69.6512L32.0018 66.932L29.701 64.0038L27.6094 60.8663L24.8903 55.6373L21.962 48.1074L20.9162 45.3883L20.707 44.1333Z" fill="#A9CD46"/>
<path d="M53.5441 36.6035H54.7991L57.309 37.231L60.4464 37.8585L65.048 38.2768L69.6496 38.486L71.5321 38.6951L72.3687 39.1135L73.8329 41.2051L78.0161 47.48L80.3169 50.8266L80.7352 51.6632V52.709L80.5261 52.9182L74.8787 53.1274H52.2891L43.0859 52.9182L43.5043 51.6632L46.0142 47.6891L48.315 44.3425L51.0341 40.1593L53.1257 37.0218L53.5441 36.6035Z" fill="#A9CD46"/>
<path d="M57.3087 0H61.7011L67.1393 0.209163L68.8126 1.04581L69.4401 2.09163V5.64739L68.6035 7.11153L67.3485 7.94819L67.5576 22.5896L70.0676 26.7728L72.9959 31.3744L76.3425 36.8126L81.3624 44.7608L84.0815 49.1533L85.1273 51.2449V52.9182L84.4998 55.219L83.6632 56.4739L82.8265 56.8923L80.1074 57.1014H46.6414L40.994 56.8923L39.9482 56.0556L39.1115 54.3823L38.9023 53.1273V51.0357L40.3665 48.1074L42.8764 44.1333L51.2429 30.7469L53.9621 26.3545L56.2629 22.5896L56.472 21.7529V7.52986L54.7987 6.48405L54.3804 5.43823V2.09163L55.0079 1.04581L56.2629 0.209163L57.3087 0ZM57.0995 2.50995L56.0537 3.55577L56.2629 4.81074L57.0995 5.43823L58.5636 5.85656L58.7728 22.3804L57.9362 24.6812L55.8445 28.0278L53.3346 32.0019L49.7788 37.8585L47.0597 42.2509L43.9223 47.2708L41.4123 51.454L40.7848 52.709L40.994 53.7548L42.0398 54.5915H81.5715L82.8265 53.964L83.2449 53.1273L82.6174 51.6632L79.8982 47.0616L76.97 42.46L74.2509 37.8585L69.2309 29.9103L65.8843 24.472L65.2569 23.4262L65.0477 5.85656L67.1393 5.43823L67.7668 4.60158L67.5576 3.13744L66.721 2.71912L61.9102 2.50995H57.0995Z" fill="#0F6EB6"/>
<path d="M72.7873 89.731H75.9247L78.0164 90.5676L79.0622 91.4043L80.108 93.0776L80.3172 94.7509H77.598L76.9706 93.705L76.1339 92.4501L74.8789 92.0317L72.9965 92.4501L71.9507 93.4959L71.114 95.7967V99.3524L71.9507 101.444L72.9965 102.49L73.624 102.699H76.3431L76.9706 101.862L77.1797 99.9799L76.9706 99.7708H74.6698L74.2514 99.1433V97.2608L74.6698 97.0517H79.0622L80.5263 97.2608L80.3172 102.908L79.8988 103.745L77.598 105L76.7614 105.209H72.9965L71.5323 104.582L69.859 103.536L69.6499 102.699H69.2315L68.3949 100.817L67.9766 98.9341V95.1692L68.8132 92.6592L70.6957 90.5676L72.7873 89.731Z" fill="#A9CD46"/>
<path d="M9.41232 89.731L12.3406 89.9401V105.209L9.83065 105L9.41232 104.791L9.20316 98.5158L3.13744 98.3066V105H0.209163L0 104.163V89.9401H3.13744L3.3466 95.5875L3.55577 95.7967H9.20316V89.9401L9.41232 89.731Z" fill="#A9CD46"/>
<path d="M55.4279 89.1035H58.3562L58.5654 94.5417L60.0295 93.7051L62.1211 93.4959L63.7944 94.1234L65.0494 96.0059L65.2586 97.47V103.117L65.0494 105H62.1211L61.912 104.163V96.8425L61.2845 96.215H59.6112L58.7745 96.4242L58.5654 97.47L58.3562 105H55.4279L55.2188 104.791V101.026L55.4279 89.1035Z" fill="#0F6EB6"/>
<path d="M32.0032 93.4956H34.5132L36.1865 94.3323L37.2323 95.3781L37.6506 96.633L37.8598 102.28V105H35.1407L34.9315 104.372L32.4215 105.418L30.7482 105.209L29.4933 104.581L28.4474 103.326L28.2383 102.908V100.607L29.0749 99.143L30.7482 98.3063L34.5132 97.888L34.304 96.633L33.4674 96.2147H32.2124L30.7482 97.0514L28.4474 97.2605L28.6566 95.7964L29.9116 94.3323L32.0032 93.4956Z" fill="#0F6EB6"/>
<path d="M87.6403 93.4956H89.7319L91.4052 94.1231L92.8694 95.7964L93.4968 97.2605L93.706 98.3063V100.398L91.6144 100.607H86.5945L87.0128 101.862L88.0586 102.699H90.3594L91.4052 102.071L92.8694 102.28L93.2877 102.908L93.0785 103.745L92.0327 104.581L90.7777 105.209L89.7319 105.418H88.0586L85.967 104.581L84.5028 103.326L83.6662 101.653L83.457 101.025V98.0972L84.0845 96.4239L84.9212 95.1689L86.3853 93.9139L87.6403 93.4956Z" fill="#0F6EB6"/>
<path d="M20.0781 93.4956H21.7514L23.6339 94.3323L25.0981 96.0056L25.7255 97.6789V100.607H18.614L18.8232 101.444L19.869 102.49L20.2873 102.699H22.5881L23.6339 101.862L24.6797 102.071L25.3072 102.908L25.0981 103.745L23.4247 105L21.5423 105.418L19.4507 105.209L17.7774 104.372L16.3132 102.908L15.4766 100.816V98.0972L16.3132 96.0056L17.7774 94.3323L20.0781 93.4956Z" fill="#0F6EB6"/>
<path d="M96.6314 93.4956H98.5139L98.9322 94.1231V94.7506H99.5597L99.7688 94.1231L101.233 93.4956H103.325L104.58 94.1231L105.416 95.1689L105.835 96.633L106.044 99.3522V105H102.906L102.697 96.8422L102.07 96.2147H100.187L99.3505 96.633L99.1413 104.79L98.9322 105H96.2131L96.0039 104.163L96.2131 93.7048L96.6314 93.4956Z" fill="#0F6EB6"/>
<path d="M119.222 93.4956H121.732L123.615 94.7506L124.661 96.4239L124.87 98.0972H122.987L122.36 97.888L121.523 96.633L120.686 96.0056L119.431 96.2147L118.386 97.4697L118.177 98.0972V101.235L119.013 102.49L119.85 102.908L120.896 102.699L122.569 101.235H125.079L124.451 103.117L123.406 104.372L121.732 105.209L120.896 105.418H119.431L117.34 104.581L115.876 102.908L115.248 101.653L115.039 100.607V98.0972L115.876 95.7964L116.712 94.7506L117.967 93.9139L119.222 93.4956Z" fill="#0F6EB6"/>
<path d="M49.1548 90.7769H50.8281L51.2465 93.496H52.7106L52.9198 95.1693L52.7106 95.5876H51.0373V102.281L51.2465 102.699L52.7106 102.908L52.9198 103.117L52.7106 105.209L52.2923 105.418H50.2007L48.7365 104.582L47.8999 103.327L47.6907 95.7968L46.4357 95.5876L46.2266 95.1693V93.7051L47.6907 93.2868V91.6135L47.8999 90.986L49.1548 90.7769Z" fill="#0F6EB6"/>
<path d="M40.9943 89.1035H43.7134L43.9226 104.791L43.7134 105H40.9943L40.7852 104.791V89.3127L40.9943 89.1035Z" fill="#0F6EB6"/>
<path d="M109.182 93.4956H111.901L112.11 93.7048V105H109.182L108.973 104.79V93.7048L109.182 93.4956Z" fill="#0F6EB6"/>
<path d="M110.021 88.6851L111.485 88.8942L112.112 89.7309V90.9858L111.276 92.0317H110.021L108.975 91.4042L108.766 90.1492L109.602 88.8942L110.021 88.6851Z" fill="#0F6EB6"/>
<path d="M20.4997 95.7964L21.5455 96.0055L22.5913 96.8422L22.8004 98.3063L20.918 98.5155H19.0355L18.6172 98.3063L18.8264 97.0514L19.8722 96.0055L20.4997 95.7964Z" fill="#FDFDFD"/>
<path d="M32.6282 100.189H34.0923L34.7198 100.607V102.071L34.0923 102.699L33.674 102.908H31.7916L31.1641 102.281V101.026L31.7916 100.398L32.6282 100.189Z" fill="#FDFDFD"/>
<path d="M88.0579 96.0059H89.522L90.5678 97.0517L90.777 98.0975L90.5678 98.3066L87.0121 98.5158L86.5938 98.3066L86.8029 97.0517L88.0579 96.0059Z" fill="#FDFDFD"/>
<path d="M7.93838 113.994H6.89943C6.83798 113.697 6.73046 113.436 6.57685 113.212C6.42603 112.987 6.2417 112.799 6.02386 112.646C5.8088 112.491 5.57001 112.374 5.30748 112.297C5.04495 112.219 4.77125 112.18 4.48637 112.18C3.9669 112.18 3.49629 112.311 3.07457 112.571C2.65564 112.832 2.32189 113.216 2.07332 113.723C1.82755 114.231 1.70466 114.853 1.70466 115.591C1.70466 116.329 1.82755 116.951 2.07332 117.459C2.32189 117.966 2.65564 118.35 3.07457 118.611C3.49629 118.871 3.9669 119.002 4.48637 119.002C4.77125 119.002 5.04495 118.963 5.30748 118.885C5.57001 118.808 5.8088 118.693 6.02386 118.54C6.2417 118.385 6.42603 118.195 6.57685 117.97C6.73046 117.743 6.83798 117.482 6.89943 117.188H7.93838C7.86018 117.624 7.71774 118.013 7.51107 118.357C7.3044 118.701 7.04745 118.993 6.74023 119.235C6.43301 119.473 6.08809 119.655 5.70547 119.78C5.32564 119.904 4.91927 119.967 4.48637 119.967C3.75464 119.967 3.10389 119.789 2.53415 119.434C1.9644 119.079 1.51614 118.575 1.18937 117.92C0.862603 117.266 0.699219 116.489 0.699219 115.591C0.699219 114.693 0.862603 113.916 1.18937 113.262C1.51614 112.607 1.9644 112.103 2.53415 111.748C3.10389 111.393 3.75464 111.215 4.48637 111.215C4.91927 111.215 5.32564 111.278 5.70547 111.402C6.08809 111.527 6.43301 111.71 6.74023 111.951C7.04745 112.19 7.3044 112.481 7.51107 112.825C7.71774 113.166 7.86018 113.556 7.93838 113.994Z" fill="#424242"/>
<path d="M11.2977 116.007V119.85H10.309V111.332H11.2977V114.46H11.3815C11.5323 114.13 11.7585 113.868 12.0601 113.673C12.3646 113.477 12.7695 113.378 13.275 113.378C13.7135 113.378 14.0975 113.465 14.4271 113.64C14.7567 113.812 15.0122 114.077 15.1938 114.435C15.3781 114.79 15.4703 115.242 15.4703 115.791V119.85H14.4816V115.857C14.4816 115.35 14.3489 114.957 14.0836 114.68C13.8211 114.4 13.4566 114.26 12.9902 114.26C12.6662 114.26 12.3757 114.328 12.1188 114.464C11.8646 114.6 11.6635 114.798 11.5155 115.059C11.3703 115.319 11.2977 115.635 11.2977 116.007Z" fill="#424242"/>
<path d="M20.8027 119.983C20.1827 119.983 19.6479 119.847 19.1982 119.576C18.7513 119.301 18.4064 118.919 18.1634 118.428C17.9233 117.934 17.8032 117.36 17.8032 116.706C17.8032 116.051 17.9233 115.474 18.1634 114.975C18.4064 114.473 18.7444 114.082 19.1773 113.802C19.613 113.52 20.1213 113.378 20.7022 113.378C21.0373 113.378 21.3683 113.434 21.695 113.544C22.0218 113.655 22.3193 113.836 22.5874 114.085C22.8555 114.332 23.0692 114.659 23.2283 115.067C23.3875 115.474 23.4671 115.976 23.4671 116.573V116.989H18.507V116.14H22.4617C22.4617 115.78 22.3891 115.458 22.2439 115.175C22.1014 114.892 21.8975 114.669 21.6322 114.505C21.3697 114.342 21.0597 114.26 20.7022 114.26C20.3084 114.26 19.9676 114.357 19.68 114.551C19.3951 114.742 19.1759 114.992 19.0223 115.3C18.8686 115.608 18.7918 115.938 18.7918 116.29V116.855C18.7918 117.338 18.8756 117.747 19.0432 118.082C19.2136 118.415 19.4496 118.669 19.7512 118.844C20.0528 119.016 20.4033 119.102 20.8027 119.102C21.0625 119.102 21.2971 119.066 21.5065 118.993C21.7188 118.919 21.9017 118.808 22.0553 118.661C22.2089 118.511 22.3276 118.325 22.4114 118.103L23.3666 118.369C23.266 118.691 23.0971 118.974 22.8597 119.218C22.6223 119.459 22.329 119.648 21.9799 119.784C21.6308 119.917 21.2384 119.983 20.8027 119.983Z" fill="#424242"/>
<path d="M25.7969 119.85V113.461H26.7521V114.46H26.8359C26.9699 114.118 27.1864 113.854 27.4852 113.665C27.784 113.474 28.1429 113.378 28.5619 113.378C28.9864 113.378 29.3397 113.474 29.6218 113.665C29.9066 113.854 30.1287 114.118 30.2879 114.46H30.3549C30.5197 114.13 30.7668 113.868 31.0964 113.673C31.426 113.477 31.8212 113.378 32.282 113.378C32.8573 113.378 33.3279 113.557 33.6938 113.915C34.0597 114.27 34.2426 114.823 34.2426 115.574V119.85H33.2539V115.574C33.2539 115.103 33.124 114.766 32.8643 114.564C32.6046 114.361 32.2987 114.26 31.9468 114.26C31.4944 114.26 31.1439 114.396 30.8953 114.668C30.6468 114.937 30.5225 115.278 30.5225 115.691V119.85H29.517V115.474C29.517 115.111 29.3983 114.819 29.1609 114.597C28.9235 114.372 28.6177 114.26 28.2435 114.26C27.9865 114.26 27.7463 114.328 27.5229 114.464C27.3023 114.6 27.1235 114.788 26.9867 115.029C26.8526 115.268 26.7856 115.544 26.7856 115.857V119.85H25.7969Z" fill="#424242"/>
<path d="M36.8761 119.85V113.461H37.8648V119.85H36.8761ZM37.3788 112.396C37.1861 112.396 37.0199 112.331 36.8803 112.201C36.7434 112.071 36.675 111.914 36.675 111.731C36.675 111.548 36.7434 111.391 36.8803 111.261C37.0199 111.131 37.1861 111.065 37.3788 111.065C37.5715 111.065 37.7363 111.131 37.8731 111.261C38.0128 111.391 38.0826 111.548 38.0826 111.731C38.0826 111.914 38.0128 112.071 37.8731 112.201C37.7363 112.331 37.5715 112.396 37.3788 112.396Z" fill="#424242"/>
<path d="M43.1156 119.983C42.5123 119.983 41.9928 119.842 41.5571 119.559C41.1214 119.276 40.7863 118.887 40.5517 118.39C40.3171 117.894 40.1998 117.327 40.1998 116.689C40.1998 116.04 40.3199 115.468 40.5601 114.971C40.803 114.472 41.141 114.082 41.5739 113.802C42.0096 113.52 42.5179 113.378 43.0988 113.378C43.5512 113.378 43.959 113.461 44.3221 113.628C44.6852 113.794 44.9826 114.027 45.2144 114.326C45.4462 114.626 45.5901 114.975 45.6459 115.375H44.6572C44.5818 115.083 44.4142 114.826 44.1545 114.601C43.8976 114.374 43.5512 114.26 43.1156 114.26C42.7301 114.26 42.3922 114.36 42.1017 114.559C41.8141 114.756 41.5892 115.035 41.4273 115.395C41.2681 115.753 41.1885 116.173 41.1885 116.656C41.1885 117.149 41.2667 117.579 41.4231 117.945C41.5823 118.311 41.8057 118.595 42.0934 118.798C42.3838 119 42.7245 119.102 43.1156 119.102C43.3725 119.102 43.6057 119.057 43.8152 118.968C44.0246 118.88 44.202 118.752 44.3472 118.586C44.4924 118.419 44.5958 118.22 44.6572 117.987H45.6459C45.5901 118.364 45.4518 118.704 45.2312 119.006C45.0133 119.305 44.7243 119.544 44.364 119.721C44.0065 119.896 43.5903 119.983 43.1156 119.983Z" fill="#424242"/>
<path d="M49.8106 120C49.4028 120 49.0328 119.924 48.7004 119.771C48.3681 119.616 48.1042 119.393 47.9087 119.102C47.7132 118.808 47.6154 118.453 47.6154 118.037C47.6154 117.671 47.688 117.374 47.8332 117.147C47.9785 116.916 48.1726 116.736 48.4156 116.606C48.6585 116.476 48.9267 116.378 49.2199 116.315C49.516 116.248 49.8134 116.195 50.1122 116.157C50.5032 116.107 50.8202 116.069 51.0632 116.044C51.309 116.017 51.4877 115.971 51.5994 115.907C51.714 115.843 51.7712 115.732 51.7712 115.574V115.541C51.7712 115.131 51.6581 114.812 51.4319 114.584C51.2084 114.357 50.8691 114.243 50.4139 114.243C49.9419 114.243 49.5718 114.346 49.3037 114.551C49.0356 114.756 48.8471 114.975 48.7381 115.208L47.7997 114.876C47.9673 114.487 48.1907 114.185 48.47 113.969C48.7521 113.75 49.0593 113.597 49.3917 113.511C49.7268 113.422 50.0564 113.378 50.3804 113.378C50.587 113.378 50.8244 113.403 51.0925 113.453C51.3635 113.5 51.6246 113.599 51.8759 113.748C52.1301 113.898 52.341 114.124 52.5085 114.426C52.6761 114.729 52.7599 115.133 52.7599 115.641V119.85H51.7712V118.985H51.7209C51.6539 119.124 51.5422 119.272 51.3858 119.43C51.2294 119.588 51.0213 119.723 50.7616 119.834C50.5018 119.945 50.1849 120 49.8106 120ZM49.9614 119.118C50.3524 119.118 50.682 119.042 50.9501 118.889C51.221 118.737 51.4249 118.54 51.5617 118.299C51.7014 118.058 51.7712 117.804 51.7712 117.538V116.639C51.7293 116.689 51.6372 116.735 51.4947 116.776C51.3551 116.815 51.1931 116.85 51.0088 116.88C50.8272 116.908 50.6499 116.933 50.4767 116.955C50.3063 116.975 50.1681 116.991 50.062 117.005C49.805 117.038 49.5648 117.093 49.3414 117.167C49.1208 117.239 48.942 117.349 48.8052 117.496C48.6711 117.64 48.6041 117.837 48.6041 118.087C48.6041 118.428 48.7312 118.686 48.9853 118.86C49.2423 119.032 49.5676 119.118 49.9614 119.118Z" fill="#424242"/>
<path d="M56.3789 111.332V119.85H55.3903V111.332H56.3789Z" fill="#424242"/>
<path d="M63.5736 114.892L62.6854 115.142C62.6296 114.995 62.5472 114.852 62.4382 114.713C62.3321 114.572 62.1869 114.455 62.0026 114.364C61.8182 114.272 61.5822 114.227 61.2946 114.227C60.9008 114.227 60.5726 114.317 60.3101 114.497C60.0503 114.674 59.9205 114.9 59.9205 115.175C59.9205 115.419 60.0098 115.612 60.1886 115.753C60.3673 115.895 60.6466 116.012 61.0264 116.107L61.9816 116.34C62.5569 116.478 62.9856 116.69 63.2677 116.976C63.5498 117.259 63.6909 117.624 63.6909 118.07C63.6909 118.436 63.5847 118.763 63.3725 119.052C63.163 119.34 62.8698 119.567 62.4927 119.734C62.1157 119.9 61.6772 119.983 61.1773 119.983C60.5209 119.983 59.9777 119.842 59.5476 119.559C59.1175 119.276 58.8452 118.863 58.7307 118.32L59.6691 118.087C59.7585 118.43 59.9274 118.688 60.176 118.86C60.4274 119.032 60.7555 119.118 61.1605 119.118C61.6213 119.118 61.9872 119.021 62.2581 118.827C62.5318 118.63 62.6687 118.394 62.6687 118.12C62.6687 117.898 62.5905 117.712 62.4341 117.563C62.2777 117.41 62.0375 117.296 61.7135 117.221L60.641 116.972C60.0517 116.833 59.6188 116.618 59.3423 116.327C59.0686 116.033 58.9318 115.666 58.9318 115.225C58.9318 114.864 59.0337 114.546 59.2376 114.268C59.4443 113.991 59.725 113.773 60.0797 113.615C60.4371 113.457 60.8421 113.378 61.2946 113.378C61.9313 113.378 62.4313 113.517 62.7943 113.794C63.1602 114.071 63.4199 114.437 63.5736 114.892Z" fill="#424242"/>
<path d="M70.2827 119.85V111.332H73.1817C73.8548 111.332 74.405 111.452 74.8323 111.694C75.2625 111.932 75.5808 112.255 75.7875 112.663C75.9942 113.07 76.0975 113.525 76.0975 114.027C76.0975 114.529 75.9942 114.985 75.7875 115.395C75.5836 115.806 75.268 116.133 74.8407 116.377C74.4134 116.618 73.866 116.739 73.1985 116.739H71.1206V115.824H73.165C73.6258 115.824 73.9959 115.745 74.2752 115.587C74.5545 115.429 74.7569 115.215 74.8826 114.946C75.0111 114.674 75.0753 114.368 75.0753 114.027C75.0753 113.686 75.0111 113.381 74.8826 113.112C74.7569 112.843 74.5531 112.632 74.271 112.48C73.9889 112.324 73.6146 112.247 73.1482 112.247H71.3217V119.85H70.2827Z" fill="#424242"/>
<path d="M78.9489 111.332L81.496 118.503H81.5965L84.1436 111.332H85.2329L82.0825 119.85H81.01L77.8596 111.332H78.9489Z" fill="#424242"/>
<path d="M86.9258 112.247V111.332H93.3607V112.247H90.6627V119.85H89.6238V112.247H86.9258Z" fill="#424242"/>
<path d="M99.9337 119.85V111.332H100.973V118.935H104.961V119.85H99.9337Z" fill="#424242"/>
<path d="M105.786 112.247V111.332H112.22V112.247H109.523V119.85H108.484V112.247H105.786Z" fill="#424242"/>
<path d="M117.297 119.85H114.65V111.332H117.415C118.247 111.332 118.959 111.502 119.551 111.843C120.143 112.182 120.597 112.668 120.913 113.303C121.228 113.935 121.386 114.693 121.386 115.574C121.386 116.462 121.227 117.226 120.909 117.866C120.59 118.504 120.127 118.995 119.518 119.339C118.909 119.68 118.169 119.85 117.297 119.85ZM115.689 118.935H117.23C117.94 118.935 118.528 118.799 118.994 118.528C119.46 118.256 119.808 117.869 120.037 117.367C120.266 116.865 120.381 116.268 120.381 115.574C120.381 114.887 120.268 114.295 120.041 113.798C119.815 113.299 119.477 112.916 119.028 112.65C118.578 112.381 118.018 112.247 117.348 112.247H115.689V118.935Z" fill="#424242"/>
<path d="M67.3519 41.8325L68.3977 42.0417L68.6069 42.2508V43.5058H67.5611L66.9336 42.8783L67.1428 42.0417L67.3519 41.8325Z" fill="#FDFDFD"/>
<path d="M70.0703 41.2051H71.3253L71.5345 42.6692L70.6978 42.8784L70.0703 42.0417V41.2051Z" fill="#FDFDFD"/>
</svg>
