<svg width="200" height="100" viewBox="0 0 200 100" fill="none" xmlns="http://www.w3.org/2000/svg">
<path d="M88.5016 71.0708V81.9065H86.7242V77.1668H81.626V81.9065H79.8486V71.0708H81.626V75.7169H86.7242V71.0708H88.5016ZM92.6188 72.5051V75.6857H96.3607V77.1356H92.6188V80.4565H96.8284V81.9065H90.8415V71.0552H96.8284V72.5051H92.6188ZM105.55 79.6925H101.013L100.234 81.9065H98.3784L102.261 71.0552H104.319L108.201 81.9065H106.33L105.55 79.6925ZM105.051 78.2426L103.29 73.2067L101.512 78.2426H105.051ZM111.666 80.4721H115.33V81.9065H109.889V71.0708H111.666V80.4721ZM123.817 71.0708V72.5207H120.933V81.9065H119.155V72.5207H116.255V71.0708H123.817ZM134.27 71.0708V81.9065H132.492V77.1668H127.394V81.9065H125.617V71.0708H127.394V75.7169H132.492V71.0708H134.27ZM136.017 76.4652C136.017 75.4051 136.261 74.454 136.75 73.6121C137.249 72.7702 137.919 72.1154 138.761 71.6476C139.613 71.1695 140.543 70.9305 141.552 70.9305C142.705 70.9305 143.729 71.2163 144.623 71.788C145.527 72.3492 146.182 73.1496 146.588 74.189H144.452C144.171 73.6173 143.781 73.1911 143.282 72.9105C142.783 72.6299 142.206 72.4896 141.552 72.4896C140.834 72.4896 140.195 72.6507 139.634 72.9729C139.073 73.2951 138.631 73.7576 138.309 74.3605C137.997 74.9633 137.841 75.6649 137.841 76.4652C137.841 77.2656 137.997 77.9672 138.309 78.57C138.631 79.1729 139.073 79.6406 139.634 79.9732C140.195 80.2954 140.834 80.4565 141.552 80.4565C142.206 80.4565 142.783 80.3162 143.282 80.0356C143.781 79.7549 144.171 79.3288 144.452 78.7571H146.588C146.182 79.7965 145.527 80.5968 144.623 81.1581C143.729 81.7194 142.705 82 141.552 82C140.533 82 139.603 81.7661 138.761 81.2984C137.919 80.8203 137.249 80.1603 136.75 79.3184C136.261 78.4765 136.017 77.5254 136.017 76.4652ZM155.201 79.6925H150.664L149.884 81.9065H148.029L151.911 71.0552H153.969L157.851 81.9065H155.98L155.201 79.6925ZM154.702 78.2426L152.94 73.2067L151.163 78.2426H154.702ZM165.168 81.9065L162.673 77.5722H161.317V81.9065H159.539V71.0708H163.281C164.113 71.0708 164.814 71.2163 165.386 71.5073C165.968 71.7984 166.399 72.1881 166.68 72.6766C166.971 73.1652 167.116 73.7108 167.116 74.3137C167.116 75.0205 166.909 75.6649 166.493 76.247C166.087 76.8186 165.459 77.2084 164.606 77.4163L167.288 81.9065H165.168ZM161.317 76.1534H163.281C163.946 76.1534 164.445 75.9871 164.778 75.6545C165.121 75.3219 165.292 74.875 165.292 74.3137C165.292 73.7524 165.126 73.3159 164.793 73.0041C164.461 72.6818 163.957 72.5207 163.281 72.5207H161.317V76.1534ZM171.168 72.5051V75.6857H174.909V77.1356H171.168V80.4565H175.377V81.9065H169.39V71.0552H175.377V72.5051H171.168Z" fill="#3A444A"/>
<path d="M35.2059 46.5593C35.2059 48.0283 34.8594 49.4141 34.1665 50.7168C33.4735 52.0195 32.3649 53.0866 30.8404 53.9182C29.316 54.722 27.3619 55.1239 24.9782 55.1239H19.7396V66.8482H15V37.9531H24.9782C27.1956 37.9531 29.0665 38.3411 30.591 39.1172C32.1431 39.8656 33.2934 40.8911 34.0417 42.1938C34.8178 43.4965 35.2059 44.9517 35.2059 46.5593ZM24.9782 51.2573C26.7798 51.2573 28.1241 50.8554 29.0111 50.0516C29.898 49.2201 30.3415 48.056 30.3415 46.5593C30.3415 43.3995 28.5537 41.8196 24.9782 41.8196H19.7396V51.2573H24.9782ZM44.4244 37.9531V56.3711C44.4244 58.5608 44.9926 60.21 46.129 61.3186C47.2931 62.4273 48.9007 62.9817 50.9518 62.9817C53.0306 62.9817 54.6382 62.4273 55.7746 61.3186C56.9387 60.21 57.5208 58.5608 57.5208 56.3711V37.9531H62.2604V56.288C62.2604 58.6439 61.7477 60.6396 60.7221 62.2749C59.6966 63.9102 58.3246 65.1297 56.6061 65.9335C54.8876 66.7373 52.989 67.1392 50.9102 67.1392C48.8314 67.1392 46.9328 66.7373 45.2143 65.9335C43.5236 65.1297 42.1793 63.9102 41.1815 62.2749C40.1836 60.6396 39.6847 58.6439 39.6847 56.288V37.9531H44.4244ZM92.1713 66.8482H87.4317L73.1711 45.2704V66.8482H68.4315V37.9115H73.1711L87.4317 59.4477V37.9115H92.1713V66.8482ZM103.135 37.9531V66.8482H98.3954V37.9531H103.135ZM118.879 67.1392C116.939 67.1392 115.193 66.8066 113.64 66.1414C112.088 65.4485 110.869 64.4784 109.982 63.2311C109.095 61.9839 108.651 60.5287 108.651 58.8657H113.724C113.835 60.1129 114.32 61.1385 115.179 61.9423C116.066 62.7461 117.299 63.148 118.879 63.148C120.514 63.148 121.789 62.7599 122.704 61.9838C123.619 61.1801 124.076 60.1545 124.076 58.9072C124.076 57.9371 123.785 57.1472 123.203 56.5374C122.649 55.9277 121.942 55.4565 121.083 55.1239C120.251 54.7913 119.087 54.4309 117.59 54.0429C115.705 53.544 114.167 53.0451 112.975 52.5462C111.811 52.0195 110.813 51.2157 109.982 50.1348C109.15 49.0538 108.735 47.6125 108.735 45.8109C108.735 44.1479 109.15 42.6927 109.982 41.4454C110.813 40.1982 111.977 39.2419 113.474 38.5767C114.971 37.9115 116.703 37.5789 118.671 37.5789C121.471 37.5789 123.757 38.2857 125.531 39.6993C127.333 41.0851 128.331 42.9976 128.525 45.4367H123.286C123.203 44.3835 122.704 43.4827 121.789 42.7343C120.875 41.9859 119.669 41.6117 118.172 41.6117C116.814 41.6117 115.705 41.9582 114.846 42.6511C113.987 43.3441 113.557 44.3419 113.557 45.6446C113.557 46.5315 113.821 47.266 114.347 47.8481C114.902 48.4024 115.595 48.8459 116.426 49.1785C117.258 49.5111 118.394 49.8715 119.835 50.2595C121.748 50.7861 123.3 51.3127 124.492 51.8394C125.711 52.366 126.737 53.1837 127.568 54.2923C128.428 55.3733 128.857 56.8285 128.857 58.6578C128.857 60.1268 128.455 61.5127 127.652 62.8154C126.875 64.1181 125.725 65.1713 124.201 65.9751C122.704 66.7512 120.93 67.1392 118.879 67.1392ZM150.373 66.8482L139.189 53.9182V66.8482H134.449V37.9531H139.189V51.1326L150.414 37.9531H156.36L143.804 52.4214L156.568 66.8482H150.373ZM178.179 60.9445H166.081L164.002 66.8482H159.054L169.407 37.9115H174.895L185.247 66.8482H180.258L178.179 60.9445ZM176.849 57.0779L172.151 43.649L167.411 57.0779H176.849Z" fill="#3A444A"/>
<path d="M171.5 17L172.232 17.4524L173.938 21.7506L175.889 25.5963L177.108 26.5012L180.765 28.3109L185.642 29.8945V30.5731L184.179 31.2517L181.008 32.1566L177.108 33.9664L176.133 34.1925L174.67 31.478L174.182 30.7993L174.426 29.6682L175.889 26.5012L174.182 26.9536L172.475 28.0847H171.256L167.599 26.0487L168.087 24.6914L169.793 21.0719L171.012 17.6787L171.5 17Z" fill="#3A444A"/>
<path d="M171.5 32.3827L172.963 32.8351L175.889 34.1923L175.158 36.2283L172.963 40.7527L171.987 43.0149L171.256 42.7886L168.575 36.6807L167.355 34.8711V34.4186L171.5 32.3827Z" fill="#3A444A"/>
<path d="M166.867 26.2751H167.355L168.818 28.9896L169.306 29.6683L169.061 31.2518L167.112 33.9664L165.649 33.514L162.235 32.1567L157.846 30.5731L158.09 29.8945L160.772 28.9896L165.161 27.1799L166.867 26.2751Z" fill="#3A444A"/>
</svg>
