<svg width="200" height="100" viewBox="0 0 200 100" fill="none" xmlns="http://www.w3.org/2000/svg">
<g clip-path="url(#clip0_262_13)">
<path d="M21.624 25.215H24.2266L26.3286 25.541L28.2305 26.0843L29.832 26.7363L31.7339 27.823L32.835 28.6924L33.6357 29.4531L34.6367 30.8658L35.7378 32.9305L36.2383 34.3433L36.8389 37.1687L36.939 38.7987L36.3384 39.0161H27.1294L26.5288 36.734L25.8281 35.6473L24.8271 34.8866L23.5259 34.5606H21.2236L19.6221 34.9953L18.3208 35.756L17.3198 36.734L16.519 37.712L15.3179 40.2114L14.8174 41.8415L14.3169 44.4496L14.2168 45.4276V48.905L14.7173 50.7524L15.2178 51.8391L16.1187 52.9258L16.9194 53.4692L18.521 54.0125L19.6221 54.2299L21.3237 54.1212L22.9253 53.6865L23.9263 53.1432L25.0273 52.1651L25.9282 50.8611L26.0283 50.4264L25.9282 50.3177L21.3237 50.2091L21.4238 49.6657L21.9243 47.601L22.9253 42.7108L23.0254 42.6022L23.7261 42.4935H36.6387L36.2383 44.6669L35.3374 49.1224L33.936 56.4033L32.9351 61.5108L32.6348 62.4888H26.5288L26.1284 62.2715L26.5288 59.5547V59.12L26.0283 59.3374L25.0273 60.5327L23.2256 61.8368L21.7241 62.5975L20.8232 62.9235L17.6201 63.3582L15.0176 63.1408L12.8154 62.7061L11.2139 62.0541L9.6123 61.0761L8.61133 60.2067L7.61035 59.2287L6.60938 57.816L5.7085 56.1859L5.00781 54.5559L4.30713 52.0565L3.90674 49.8831L3.80664 48.579L3.90674 45.7536L4.30713 42.9282L4.90771 40.2114L5.7085 37.6034L6.50928 35.756L7.61035 33.6912L8.61133 32.2785L9.51221 31.1918L10.8135 29.7791L12.415 28.4751L14.5171 27.171L16.519 26.3017L19.3218 25.541L21.624 25.215Z" fill="#3A444A"/>
<path d="M175.174 34.6692H178.277L180.479 35.1039L182.081 35.6472L183.682 36.5166L184.683 37.2773L185.684 38.364L186.585 39.7767L187.186 41.0807L187.686 42.8194L187.986 44.8842L188.086 46.9489L187.786 49.883L187.286 52.1651L186.485 54.3385L185.484 56.4032L184.183 58.2506L183.182 59.446L181.88 60.5327L180.279 61.5107L178.978 62.1627L176.976 62.8147L175.774 63.0321H171.971L170.269 62.7061L168.267 61.9454L166.866 61.076L165.564 59.8806L164.764 58.7939L164.063 57.5986L163.462 55.9685L162.962 53.9038L162.762 52.8171L162.662 51.6217V50.4263L162.862 48.579L163.362 46.1882L163.863 44.4495L164.864 42.1674L165.665 40.8634L166.666 39.4507L167.967 38.038L169.668 36.7339L171.17 35.8646L172.872 35.2125L174.473 34.7779L175.174 34.6692Z" fill="#3A444A"/>
<path d="M141.541 35.4299H156.055L157.457 35.6473L158.958 36.1906L160.059 36.9513L160.86 37.9293L161.36 38.7987L161.661 39.9941V42.7108L161.46 43.6889L160.56 45.5362L159.859 46.4056L158.658 47.275L157.457 47.8183L157.557 48.1443L158.958 48.905L159.759 49.7744L160.56 51.2958L160.86 52.0564L160.96 53.3605L160.86 54.9905L160.459 56.4033L159.659 58.142L158.658 59.5547L157.657 60.424L156.255 61.2934L154.654 61.9454L152.151 62.3801L150.95 62.4888H137.537L136.236 62.3801L136.636 60.5327L137.437 56.5119L139.439 46.0796L141.241 36.5166L141.541 35.4299Z" fill="#3A444A"/>
<path d="M92.4929 35.43H99.9001L100.401 37.1687L101.702 41.2982L104.304 49.7744L104.605 49.9918L106.707 38.7987L107.407 35.43H114.615L114.514 36.2993L112.713 45.5363L111.311 52.4912L110.01 59.5547L109.409 62.3801L109.309 62.4888H102.002L101.702 61.6195L100.1 56.512L98.8992 52.5998L98.1985 50.2091L97.4978 47.927L97.1975 47.601L96.9973 48.3617L96.697 50.6438L95.9963 54.4472L94.595 61.2934L94.2947 62.4888L93.9944 62.5975L86.9875 62.4888L87.5881 59.8807L89.49 49.8831L91.0916 41.4068L91.8923 37.386L92.4929 35.43Z" fill="#3A444A"/>
<path d="M66.8682 35.4299H74.3755L74.6758 36.1906L75.877 40.1027L77.2783 44.4495L78.5796 48.579L78.98 49.6657L79.2803 49.883L80.0811 44.8842L81.4824 37.4947L81.9829 35.5386L82.1831 35.4299H89.29L88.3892 39.3421L86.9878 46.8403L85.6865 53.5778L84.1851 61.1847L83.7847 62.3801L83.6846 62.4888H76.5776L76.2773 61.9454L75.2764 58.468L72.0732 48.0357L71.6729 47.601L71.4727 49.1224L70.5718 53.6865L69.0703 61.6194L68.77 62.3801L68.5698 62.4888H63.1646L61.563 62.3801L62.3638 58.5767L63.4648 52.5998L64.8662 45.4276L66.668 36.082L66.8682 35.4299Z" fill="#3A444A"/>
<path d="M117.918 35.4299H138.438L138.238 36.6253L137.237 41.6241L137.037 42.0588H124.224L123.724 44.7756L123.523 45.9709L130.53 45.8623H136.336L136.036 47.1663L135.235 50.8611L135.035 51.2958L122.522 51.4044L122.322 51.9478L122.022 53.6865L121.521 55.7512L129.529 55.6426H134.434L134.334 56.6206L133.333 61.5107L133.133 62.3801L133.033 62.4888H112.813L112.513 62.2714L113.213 59.2287L114.114 54.5559L115.516 47.4923L117.518 36.9513L117.818 35.5386L117.918 35.4299Z" fill="#3A444A"/>
<path d="M48.3501 35.3214L48.7505 35.43L48.1499 38.1468L46.8486 45.1017L45.8477 50.3178L45.5474 52.5999V53.9039L45.7476 54.882L46.1479 55.534L47.1489 56.0773L47.5493 56.186H49.0508L50.3521 55.7513L51.2529 54.9906L51.8535 54.1213L52.4541 52.7086L52.8545 51.1872L55.2568 38.9075L55.8574 36.1907L56.1577 35.43H63.665L63.4648 36.4081L62.9644 38.6901L61.6631 45.5363L60.8623 49.7745L59.9614 54.2299L59.4609 55.86L58.6602 57.49L57.8594 58.6854L56.9585 59.7721L56.0576 60.6415L54.6562 61.5108L53.5552 62.0542L51.7534 62.7062L49.8516 63.0322H46.1479L44.0459 62.7062L42.4443 62.1628L40.8428 61.2935L39.5415 60.2068L38.7407 59.1201L38.1401 58.0334L37.6396 56.4033L37.4395 55.208L37.5396 53.6866L38.2402 49.8831L40.3423 38.6901L40.9429 36.082L41.2432 35.43L48.3501 35.3214Z" fill="#3A444A"/>
<path d="M175.674 41.5155H177.176L178.177 41.8415L179.178 42.4935L179.878 43.4716L180.279 44.5583L180.479 45.645V47.3837L180.079 50.1004L179.478 52.0565L178.677 53.6865L177.776 54.7732L176.976 55.5339L175.975 56.0773L175.074 56.2946H173.372L172.171 55.8599L171.17 54.8819L170.669 53.7952L170.369 52.7085V49.6658L170.87 46.949L171.37 45.4276L172.171 44.0149L173.072 42.9282L173.973 42.1675L174.773 41.7328L175.674 41.5155Z" fill="white"/>
<path d="M192.291 35.3214L193.692 35.43L194.593 35.756L195.594 36.7341L196.194 37.8208L196.395 38.5815V39.6682L195.994 40.9722L195.293 41.9502L194.493 42.6022L193.392 43.0369H191.89L190.689 42.4936L189.988 41.8416L189.388 40.7549L189.188 40.1028L189.087 38.9075L189.388 37.6034L190.088 36.5167L190.889 35.756L191.69 35.43L192.291 35.3214Z" fill="white"/>
<path d="M146.146 50.9697H151.25L152.251 51.2957L152.952 51.8391L153.353 52.7084V53.5778L152.852 54.6645L152.452 55.2079L151.451 55.7512L150.75 55.9685L145.245 56.0772L145.044 55.9685L145.145 54.8818L145.845 51.1871L146.146 50.9697Z" fill="white"/>
<path d="M100.401 72.3779H102.303L103.304 72.9213L103.904 73.8993V75.0947L103.404 76.9421L103.104 78.6808L102.903 79.2241L103.003 79.7675L103.604 80.0935L103.704 80.3108L103.604 80.8542L103.104 80.9629L102.403 80.6369L102.002 79.8762L100.901 80.6369L100.401 80.8542L99.2998 80.9629L98.3989 80.8542L97.7983 80.4195L97.0977 79.3328L96.9976 78.4635L97.6982 77.1594L98.3989 76.6161L99.7002 76.1814L102.103 75.8554L102.803 75.5294L103.003 75.0947V74.2253L102.703 73.682L102.203 73.356H100.701L99.9004 73.682L99.3999 74.334L99.0996 74.8773L98.3989 74.986L98.2988 74.5513L98.6992 73.682L99.3999 72.9213L100.401 72.3779Z" fill="#3A444A"/>
<path d="M130.43 72.3779H132.032L132.732 72.8126L133.533 73.7906L133.934 74.8773L134.034 75.964L133.833 76.8334L133.633 76.9421L129.129 77.0507L127.928 77.1594L128.128 78.5721L128.628 79.4415L129.129 79.8762L130.03 80.0935L130.931 79.9848L131.731 79.5502L132.732 78.3548L132.833 78.1374L133.333 78.2461V78.8981L132.632 79.8762L131.832 80.5282L131.031 80.8542L129.83 80.9629L128.829 80.7455L128.128 80.3108L127.427 79.3328L127.127 78.5721L127.027 78.0288V77.0507L127.227 75.8554L127.928 74.334L128.829 73.2473L129.729 72.5953L130.43 72.3779Z" fill="#3A444A"/>
<path d="M118.919 72.3779H120.521L121.421 72.7039L122.122 73.5733L122.222 73.8993V75.4207L121.521 78.4635L121.321 79.1155L121.421 79.6588L122.022 80.0935V80.8542L121.822 80.9629L120.921 80.8542L120.621 79.7675L119.92 80.2022L119.119 80.7455L118.318 80.9629H117.518L116.717 80.7455L116.216 80.4195L115.616 79.3328L115.516 78.4635L115.916 77.3768L116.617 76.7247L117.718 76.2901L119.82 75.964L121.121 75.638L121.421 75.312V74.2253L121.121 73.5733L120.721 73.356L119.82 73.2473L118.619 73.4646L117.818 74.2253L117.317 74.986L116.617 74.8773L116.717 74.334L117.317 73.4646L118.118 72.7039L118.919 72.3779Z" fill="#3A444A"/>
<path d="M157.356 73.2472H158.658L159.258 73.6819L159.759 74.3339L160.059 75.2033V76.616L159.659 77.92L158.958 79.1154L158.157 79.8761L157.557 80.0934H156.155L155.455 79.6587L154.854 78.7894L154.654 78.1373V76.8333L155.054 75.4206L155.755 74.3339L156.556 73.5732L157.356 73.2472Z" fill="white"/>
<path d="M84.3853 73.2472H85.6865L86.3872 73.6819L86.8877 74.2252L87.0879 74.7686V76.942L86.6875 78.246L86.0869 79.1154L85.2861 79.8761L84.7856 80.0934H83.2842L82.5835 79.6587L81.9829 78.7894L81.8828 78.3547V76.5073L82.1831 75.4206L82.8838 74.2252L83.6846 73.5732L84.3853 73.2472Z" fill="white"/>
<path d="M172.571 73.2472H173.772L174.673 73.8992L175.174 74.7686V76.1813L174.773 77.92L174.273 78.898L173.372 79.7674L172.671 80.0934L171.67 80.2021L170.87 79.9847L170.369 79.5501L169.869 78.4634V76.942L170.169 75.6379L170.87 74.4426L171.67 73.6819L172.571 73.2472Z" fill="white"/>
<path d="M149.148 41.8416H150.65L152.652 41.9502L153.353 42.2762L153.853 42.8196L154.053 43.1456V44.341L153.753 44.8843L152.952 45.645L152.352 45.8624L150.95 45.971H146.946L147.046 44.993L147.547 42.1676L147.647 41.9502L149.148 41.8416Z" fill="white"/>
<path d="M153.052 72.4865L153.553 72.5952L153.453 73.2472L152.452 75.4206L151.451 77.4853L149.949 80.4194L149.549 80.8541L149.148 80.9627L148.848 80.6367L148.548 77.594L148.348 74.9859V74.1165H148.147L147.947 74.6599L146.746 77.3766L145.945 79.1154L145.145 80.6367L144.744 80.9627L144.344 80.8541L144.043 79.4414L143.643 76.0726L143.443 73.6819V72.5952L144.244 72.7038L144.444 73.3558L144.844 78.6807V79.224H145.044L145.245 78.6807L147.247 74.3339L148.147 72.7038L148.848 72.5952L149.048 73.2472L149.549 78.898V79.224L149.949 78.7893L151.951 74.3339L152.652 72.9212L153.052 72.4865Z" fill="#3A444A"/>
<path d="M176.675 69.5524H177.376L176.275 74.9859L175.574 78.4634L175.074 80.7455L174.673 80.9628L174.473 80.7455L174.373 79.8761L173.873 80.0934L172.972 80.7455L172.671 80.8541H170.77L170.169 80.5281L169.468 79.7674L169.068 78.7894L168.968 78.3547V77.268L169.368 75.5293L169.869 74.4426L170.77 73.3559L171.27 72.9212L172.071 72.4865L172.471 72.3779H173.772L174.573 72.8125L175.474 73.8992L175.975 71.6172L176.275 69.9871L176.675 69.5524ZM172.571 73.2472L171.67 73.6819L170.77 74.5513L170.169 75.638L169.869 76.942V78.4634L170.369 79.5501L170.87 79.9848L171.67 80.2021L172.671 80.0934L173.472 79.6588L174.373 78.7894L174.874 77.7027L175.174 76.1813V74.7686L174.573 73.7906L173.772 73.2472H172.571Z" fill="#3A444A"/>
<path d="M78.0791 69.4439H79.7808L81.8828 69.5525L81.7827 70.5306L81.6826 70.6392H75.9771L75.4766 73.8993L75.3765 74.4427H80.2812V75.3121L80.1812 75.4207L75.0762 75.5294L74.1753 80.2022L73.9751 80.7456L73.0742 80.8542L73.4746 78.7895L74.9761 70.8566L75.2764 69.5525L78.0791 69.4439Z" fill="#3A444A"/>
<path d="M157.156 72.3779H158.658L159.458 72.7039L160.259 73.4646L160.86 74.7687V76.7247L160.459 78.1374L159.859 79.3328L159.058 80.2022L158.057 80.7455L157.757 80.8542H155.755L154.954 80.4195L154.153 79.4415L153.753 78.3548V76.6161L154.153 75.2034L154.854 74.008L155.655 73.1386L156.756 72.4866L157.156 72.3779ZM157.356 73.2473L156.556 73.5733L155.555 74.5513L154.954 75.7467L154.654 76.8334V78.1374L154.954 79.0068L155.555 79.7675L156.155 80.0935H157.557L158.458 79.6588L159.258 78.6808L159.859 77.3768L160.059 76.6161V75.2034L159.659 74.1167L158.858 73.356L158.658 73.2473H157.356Z" fill="#3A444A"/>
<path d="M84.3853 72.3779H85.6865L86.5874 72.7039L87.3882 73.4646L87.9888 74.7687V76.6161L87.6885 77.9201L87.0879 79.2241L86.187 80.2022L85.186 80.7455L84.8857 80.8542H82.8838L82.083 80.4195L81.3823 79.5502L80.9819 78.3548V76.7247L81.2822 75.4207L81.7827 74.334L82.6836 73.2473L83.6846 72.5953L84.3853 72.3779ZM84.3853 73.2473L83.1841 73.8993L82.3833 74.986L81.9829 75.964L81.8828 76.5074V78.3548L82.1831 79.1155L82.6836 79.7675L83.2842 80.0935H84.7856L85.5864 79.6588L86.3872 78.7895L86.8877 77.7028L87.0879 76.9421V74.7687L86.7876 74.1167L85.9868 73.356L85.6865 73.2473H84.3853Z" fill="#3A444A"/>
<path d="M192.291 35.3214L193.692 35.43L194.593 35.756L195.594 36.7341L196.194 37.8208L196.395 38.5815V39.6682L195.994 40.9722L195.293 41.9502L194.493 42.6022L193.392 43.0369H191.89L190.689 42.4936L189.988 41.8416L189.388 40.7549L189.188 40.1028L189.087 38.9075L189.388 37.6034L190.088 36.5167L190.889 35.756L191.69 35.43L192.291 35.3214ZM192.09 36.2994L191.29 36.6254L190.589 37.2774L190.088 38.4728V39.6682L190.389 40.7549L191.189 41.7329L192.19 42.1676H193.091L193.992 41.8416L194.893 41.0809L195.293 40.4288L195.394 40.1028V38.1468L194.993 37.2774L194.192 36.5167L193.692 36.2994H192.09Z" fill="#3A444A"/>
<path d="M111.612 72.3779H113.113L113.914 72.7039L114.615 73.356L115.115 74.334V74.8773L114.815 75.0947L114.415 74.986L113.914 74.008L113.414 73.4646L112.713 73.2473L111.612 73.356L110.911 73.7906L110.611 74.2253V75.0947L111.111 75.5294L113.714 76.9421L114.214 77.3768L114.515 77.9201L114.615 78.7895L114.214 79.7675L113.414 80.5282L112.312 80.9629H111.011L110.11 80.7455L109.109 79.7675L108.809 79.1155V78.2461L109.109 77.9201L109.51 78.2461L110.01 79.3328L110.811 79.9848L111.312 80.0935H112.212L112.913 79.7675L113.414 79.2241L113.614 78.7895L113.514 78.0288L113.013 77.5941L111.512 76.8334L110.511 76.2901L109.81 75.5294L109.61 75.0947L109.71 74.008L110.311 73.1386L111.011 72.5953L111.612 72.3779Z" fill="#3A444A"/>
<path d="M127.127 69.5524L128.128 69.6611V70.3131L128.028 70.4218L126.927 70.5305L126.426 70.8565L126.226 71.5085L126.026 72.5952L127.427 72.7039L127.327 73.2472L127.027 73.5732L125.926 73.4646L125.325 75.8553L124.524 79.5501L124.324 80.7455L123.924 80.9628L123.523 80.8541L123.924 78.0287L124.725 74.1166V73.6819L123.824 73.4646L123.724 72.8125L124.224 72.5952H125.125L125.525 70.8565L125.926 70.2045L126.426 69.7698L127.127 69.5524Z" fill="#3A444A"/>
<path d="M120.521 76.5073H121.121L120.921 77.8113L120.42 78.898L119.62 79.7674L118.619 80.2021H117.618L117.017 79.8761L116.517 79.224L116.417 78.246L116.817 77.4853L117.718 77.0506L120.521 76.5073Z" fill="white"/>
<path d="M102.503 76.5073H102.603L102.503 77.7027L102.203 78.572L101.302 79.6587L100.501 80.0934L100.101 80.2021H99.3999L98.5991 79.8761L98.0986 79.224L97.9985 79.0067V78.3547L98.5991 77.3767L99.5 77.0506L102.503 76.5073Z" fill="white"/>
<path d="M130.53 73.2472H131.832L132.432 73.6819L132.833 74.2252L133.133 74.8772L133.233 75.9639L133.133 76.0726H128.128L128.228 75.5293L128.929 74.4426L129.83 73.5732L130.53 73.2472Z" fill="white"/>
<path d="M168.367 69.4439L168.968 69.5525L168.868 70.8566L167.767 76.5074L166.866 80.7456L166.565 80.9629L166.065 80.8542L166.265 79.1155L167.767 71.6173L168.167 69.6612L168.367 69.4439Z" fill="#3A444A"/>
<path d="M93.0937 72.3779H93.6943V73.4646L92.4932 73.682L91.6924 74.1167L90.7915 74.986L90.3911 76.3987L89.5903 80.3108L89.29 80.8542L88.4893 80.7455L89.0898 78.1374L89.7905 74.5513L90.1909 72.7039L90.6914 72.5953L90.8916 72.7039L90.7915 74.1167L92.0928 72.8126L93.0937 72.3779Z" fill="#3A444A"/>
<path d="M165.865 72.3779H166.365L166.565 72.5953L166.465 73.2473L165.164 73.8993L163.763 74.66L163.562 75.2034L163.262 76.2901L162.361 80.6369L162.261 80.8542H161.561L161.46 80.5282L162.061 77.4854L162.562 75.0947L162.962 73.0299L163.362 72.5953L163.863 72.7039L163.663 73.2473L163.562 74.2253L164.063 73.682L165.064 72.8126L165.865 72.3779Z" fill="#3A444A"/>
<path d="M138.838 72.3779L139.339 72.4866L139.539 72.7039L139.439 73.2473L137.637 73.8993L136.836 74.5513L136.336 75.2034L135.936 76.6161L135.335 79.7675L134.935 80.8542L134.634 80.9629L134.234 80.7455L134.434 79.5502L135.035 76.6161L135.735 72.9213L135.936 72.5953L136.436 72.7039L136.336 74.1167L137.237 73.2473L138.438 72.4866L138.838 72.3779Z" fill="#3A444A"/>
<path d="M192.19 37.06H192.891L193.992 37.4946L194.393 38.1467L194.292 38.7987L193.792 39.342V40.1027L194.292 41.2981L193.892 41.4068L193.292 40.6461L192.591 39.7767L192.09 39.4507L192.19 40.9721L191.99 41.1894L191.59 41.0808L191.39 40.7547L191.29 40.1027V38.364L191.49 37.4946L191.89 37.1686L192.19 37.06Z" fill="#3A444A"/>
<path d="M192.591 37.7122L193.492 38.0382L193.592 38.5815L193.392 38.7989H192.19L192.09 38.6902L192.19 37.9295L192.591 37.7122Z" fill="white"/>
</g>
<defs>
<clipPath id="clip0_262_13">
<rect width="200" height="100" fill="white"/>
</clipPath>
</defs>
</svg>
