<svg width="43" height="27" viewBox="0 0 43 27" fill="none" xmlns="http://www.w3.org/2000/svg">
<path fill-rule="evenodd" clip-rule="evenodd" d="M0 13.5C0 13.1022 0.161788 12.7208 0.449772 12.4395C0.737755 12.1582 1.12835 12.0002 1.53562 12.0002H37.7547L28.0895 2.56354C27.8011 2.28191 27.6392 1.89996 27.6392 1.50168C27.6392 1.10341 27.8011 0.721453 28.0895 0.439833C28.3778 0.158212 28.7689 9.3836e-09 29.1767 0C29.5845 -9.3836e-09 29.9756 0.158212 30.2639 0.439833L42.5489 12.4381C42.6919 12.5775 42.8053 12.743 42.8827 12.9252C42.9602 13.1074 43 13.3027 43 13.5C43 13.6973 42.9602 13.8926 42.8827 14.0748C42.8053 14.257 42.6919 14.4225 42.5489 14.5619L30.2639 26.5602C29.9756 26.8418 29.5845 27 29.1767 27C28.7689 27 28.3778 26.8418 28.0895 26.5602C27.8011 26.2785 27.6392 25.8966 27.6392 25.4983C27.6392 25.1 27.8011 24.7181 28.0895 24.4365L37.7547 14.9998H1.53562C1.12835 14.9998 0.737755 14.8418 0.449772 14.5605C0.161788 14.2792 0 13.8978 0 13.5Z" fill="black"/>
</svg>
