<svg width="500" height="634" viewBox="0 0 500 634" fill="none" xmlns="http://www.w3.org/2000/svg">
<path d="M96.4726 250.847C99.9534 257.065 103.245 262.954 106.506 268.79C104.115 270.431 102.911 269.021 101.612 268.427C94.5712 265.206 92.641 265.474 87.1305 271.162C83.5142 274.895 79.8086 278.238 74.5737 279.698C63.4097 282.811 53.6124 278.808 44.1001 273.952C23.3174 263.342 12.3575 245.43 7.2739 223.312C2.65537 203.217 0.0647203 182.931 0.000923654 162.248C-0.097662 130.291 7.70275 100.169 19.9791 70.9973C29.838 47.5704 40.7151 24.6671 55.7897 4.01911C56.5973 2.91284 57.3788 1.78282 58.259 0.736694C58.5556 0.384179 59.1209 0.257739 59.6173 0C61.9752 1.41771 61.012 3.71009 61.0342 5.56743C61.2157 20.7276 62.8121 35.7055 67.4759 50.1738C73.2112 67.9662 83.8791 82.4798 98.2055 94.3355C117.384 110.206 133.696 128.627 147.255 149.462C156.449 163.589 165.359 178.082 167.679 195.106C170.816 218.129 167.709 239.66 148.752 256.008C142.271 261.597 135.145 264.107 126.468 261.338C119.554 259.131 118.643 259.986 117.458 267.099C117.235 268.438 117.163 269.853 114.626 271.478C85.1307 224.075 55.3067 177.061 48.0213 119.833C47.5284 127.959 49.5278 135.655 51.1573 143.406C58.5483 178.562 73.8544 210.48 91.2806 241.532C92.9584 244.521 94.6159 247.522 96.4726 250.847Z" fill="#06770C"/>
<path d="M280.041 572.597C275.418 572.622 270.982 570.754 266.299 571.295C256.376 572.44 248.75 577.681 242.153 584.758C239.114 588.018 236.261 591.46 233.111 594.606C226.372 601.338 218.356 605.664 208.809 606.956C207.02 607.198 205.112 607.148 203.448 608.322C251.008 627.098 338.445 627.394 407.202 570.184C483.692 506.54 506.104 403.494 467.302 315.32C442.741 259.508 400.903 220.837 343.719 199.874C286.608 178.939 230.05 182.754 174.675 208.072C173.15 204.078 173.021 200.512 172.687 196.985C172.422 194.177 174.254 193.229 176.468 192.265C195.112 184.151 214.524 178.839 234.591 175.656C267.45 170.445 300.127 171.719 331.795 181.535C416.282 207.725 471.758 263.47 492.856 349.556C510.944 423.358 494.444 491.187 446.067 550.068C411.076 592.656 365.706 619.043 311.404 629.153C282.88 634.463 254.048 634.759 225.576 628.753C141.328 610.981 84.3075 560.707 52.9067 481.249C43.4902 457.421 39.9631 432.206 39.591 406.284C38.9997 365.091 48.686 326.903 68.208 290.926C71.4036 285.037 81.5202 280.281 88.7007 281.344C89.3808 283.093 88.1692 284.266 87.3604 285.524C71.8702 309.617 61.5053 335.819 56.4146 363.926C52.0887 387.81 51.7224 411.795 55.475 435.983C61.095 472.209 75.1507 504.567 96.777 533.966C117.643 562.331 144.792 582.139 177.661 594.212C187.317 597.759 197.356 599.899 207.845 599.442C222.611 598.799 236.717 586.809 239.192 572.184C239.836 568.378 240.117 564.414 237.201 560.831C234.35 562.368 233.519 565.821 230.195 566.687C221.966 568.83 215.469 565.474 210.384 559.886C202.622 551.354 199.382 540.418 198.389 529.286C197.395 518.142 194.528 508.487 185.445 501.372C184.511 500.64 183.7 499.731 182.925 498.824C182.631 498.481 182.6 497.912 182.456 497.468C183.587 495.788 185.288 496.185 186.713 496.29C210.828 498.073 232.319 505.355 248.085 525.101C252.559 530.705 254.616 536.708 253.482 543.708C252.712 548.462 251.024 552.851 245.562 553.903C242.781 554.439 242.081 557.619 238.306 557.652C243.938 562.958 242.869 569.25 243.376 575.878C249.384 572.534 254.474 568.622 260.871 567.703C267.698 566.722 274.12 567.364 279.828 572.313C280.014 572.623 280.041 572.597 280.041 572.597Z" fill="#06770C"/>
<path d="M71.4069 407.522C74.4033 385.401 83.3942 366.089 94.4845 347.557C100.029 338.292 105.427 328.944 108.682 318.523C112.871 305.111 112.575 291.532 110.639 277.853C110.499 276.866 109.905 275.875 111.069 274.766C113.722 274.9 113.812 277.407 114.197 279.083C118.719 298.751 117.26 317.807 108.44 336.2C102.144 349.328 94.437 361.784 89.5609 375.587C88.3933 378.892 86.5871 382.091 87.1164 385.9C89.2497 385.904 89.8407 384.271 90.7548 383.15C99.1813 372.815 108.82 363.949 120.736 357.698C125.951 354.962 125.881 352.506 120.797 349.419C115.688 346.317 113.251 336.794 115.61 329.3C118.593 319.828 124.645 312.807 133.142 307.959C144.868 301.267 157.488 297.135 170.894 295.309C183.917 293.535 193.645 286.427 201.304 276.058C202.68 274.196 203.364 271.68 205.822 270.667C208.304 271.5 207.975 273.691 207.96 275.401C207.66 309.798 199.891 341.305 172.979 365.379C164.966 372.547 155.714 374.86 145.305 372.692C141.128 371.822 137.001 370.006 135.827 365.692C134.523 360.902 131.678 358.176 127.871 356.493C112.263 368.464 97.8846 381.29 90.4347 401.47C98.7479 398.412 105.907 395.881 113.78 396.248C127.685 396.897 140.338 406.738 143.683 419.695C144.757 423.853 143.487 425.564 139.32 425.45C137.264 425.394 135.198 425.309 133.148 425.437C129.378 425.673 127.014 424.559 125.148 420.745C120.15 410.53 104.946 409.492 97.8218 418.535C91.1069 427.057 90.3721 444.438 96.339 453.611C100.487 459.988 108.261 462.863 116.796 460.987C122.711 459.687 126.442 456.032 127.7 450.028C127.832 449.398 127.718 448.715 127.718 447.917C124.07 446.615 120.448 447.258 116.922 447.257C113.431 447.255 111.794 445.986 112.076 442.402C112.21 440.698 112.147 438.972 112.079 437.259C111.968 434.449 113.244 433.219 116.072 433.245C124.646 433.322 133.221 433.328 141.796 433.301C144.415 433.293 145.488 434.516 145.478 437.069C145.433 448.559 145.436 460.049 145.434 471.54C145.433 473.633 144.875 475.501 142.471 475.557C139.229 475.631 135.54 477.321 133.084 473.56C132.448 472.585 132.593 471.15 130.956 470.379C127.14 472.014 123.769 475.031 119.523 476.421C104.96 481.187 87.1515 474.088 78.9058 459.786C71.2003 446.421 68.9795 431.881 70.4861 416.663C70.7731 413.765 71.0454 410.866 71.4069 407.522Z" fill="#06770C"/>
<path d="M310.981 378.833C310.068 378.734 309.528 378.526 309.052 378.625C302.88 379.912 299.222 377.706 298.515 371.212C298.471 370.808 297.926 370.459 297.385 369.811C283.066 381.308 266.441 382.499 249.152 380.657C225.377 378.123 210.995 364.367 207.857 340.752C205.509 323.075 208.641 306.835 222.188 294.076C231.156 285.628 242.329 281.75 254.425 281.15C266.23 280.565 278.086 280.552 289.379 285.175C302.858 290.693 311.588 300.01 314.246 315.551C304.879 315.551 296.063 315.598 287.248 315.508C285.686 315.492 285.154 313.942 284.517 312.718C278.565 301.287 268.868 299.234 259.019 300.685C248.237 302.273 239.61 308.103 236.79 319.412C233.601 332.204 233.86 344.582 244.157 354.755C253.838 364.319 280.189 364.963 286.748 349.421C288.784 344.598 288.383 343.51 283.09 342.872C279.498 342.439 275.917 342.426 272.315 342.802C268.955 343.153 267.225 341.852 267.349 338.152C267.808 324.419 264.515 324.725 280.335 324.621C289.766 324.56 299.199 324.7 308.629 324.571C312.584 324.516 314.439 325.614 314.48 330.095C314.616 344.997 315.161 359.894 314.764 374.802C314.701 377.156 314.178 378.895 310.981 378.833Z" fill="#06770C"/>
<path d="M390.904 281.141C401.517 282.564 411.239 285.205 419.422 291.666C434.641 303.681 438.409 320.263 436.157 338.271C432.742 365.59 416.544 379.19 386.595 381.171C377.156 381.796 367.781 381.35 358.523 379.037C336.191 373.459 322.563 354.055 323.686 329.649C324.449 313.051 329.325 298.626 344.119 289.276C352.245 284.14 361.38 281.747 370.882 281.162C377.371 280.764 383.907 281.115 390.904 281.141ZM392.371 359.37C402.233 354.94 406.573 346.521 408.872 336.599C411.75 324.18 404.687 308.762 393.198 303.202C382.317 297.937 366.468 299.974 358.412 309.724C349.7 320.267 348.718 338.095 356.424 349.674C363.752 360.684 376.939 364.438 392.371 359.37Z" fill="#06770C"/>
<path d="M384.515 398.467C388.43 398.434 390.021 400.833 391.601 403.388C398.899 415.191 406.238 426.97 413.601 438.733C414.492 440.155 415.099 441.845 417.018 442.869C419.127 441.339 418.555 438.981 418.567 436.936C418.633 425.968 418.742 414.997 418.533 404.033C418.453 399.819 419.887 398.257 424.153 398.324C437.706 398.54 435.756 397.255 435.799 409.732C435.866 429.44 435.659 449.15 435.899 468.855C435.96 473.903 434.472 475.532 429.304 475.944C421.138 476.595 416.09 474.051 412.06 466.576C405.895 455.139 398.431 444.402 391.484 433.389C390.78 432.272 390.31 430.902 387.49 429.743C387.49 440.324 387.491 450.316 387.489 460.308C387.489 461.165 387.474 462.022 387.465 462.879C387.341 475.144 387.335 474.993 375.264 475.467C371.267 475.624 370.205 474.133 370.246 470.456C370.375 458.804 370.285 447.149 370.279 435.495C370.274 425.041 370.421 414.584 370.188 404.135C370.093 399.875 371.625 398.148 375.834 398.429C378.564 398.61 381.316 398.455 384.515 398.467Z" fill="#06770C"/>
<path d="M218.633 475.606C215.998 475.629 213.776 475.698 211.554 475.732C206.095 475.816 203.927 474.084 203.686 468.623C203.497 464.337 203.136 460.095 202.545 455.855C201.719 449.937 198.764 446.83 192.89 446.449C188.452 446.162 183.983 446.397 179.531 446.294C176.383 446.222 175.349 447.795 175.388 450.746C175.477 457.598 175.256 464.457 175.473 471.303C175.583 474.767 174.129 475.879 170.945 475.837C154.951 475.623 157.367 477.221 157.285 463.178C157.171 443.646 157.345 424.113 157.169 404.582C157.128 399.995 158.509 398.137 163.338 398.26C174.296 398.539 185.271 398.556 196.23 398.289C207.408 398.018 216.417 401.653 220.515 412.523C224.296 422.552 221.042 431.316 212.513 438.851C223.82 447.648 219.895 460.983 222.547 472.481C223.134 475.027 221.191 475.658 218.633 475.606ZM202.496 426.605C203.115 424.637 203.596 422.726 203.057 420.577C201.601 414.776 198.863 413.272 189.206 413.295C174.601 413.331 174.601 413.331 175.387 427.954C175.406 428.296 175.411 428.64 175.413 428.982C175.425 431.02 176.351 432.289 178.474 432.281C184.125 432.258 189.786 432.346 195.422 432.016C198.404 431.842 201.056 430.476 202.496 426.605Z" fill="#06770C"/>
<path d="M360.643 466.937C360.63 476.968 360.731 474.938 352.549 475.331C338.152 476.022 323.756 475.66 309.359 475.733C302.048 475.77 301.657 475.342 301.653 468.329C301.64 447.756 301.642 427.182 301.676 406.608C301.69 398.556 301.877 398.412 310.109 398.418C323.825 398.428 337.541 398.435 351.257 398.466C360.512 398.486 360.511 398.504 360.324 407.975C360.314 408.489 360.283 409.006 360.316 409.517C360.548 413.09 358.764 414.357 355.336 414.311C347.451 414.205 339.563 414.29 331.677 414.302C320.418 414.319 320.418 414.321 320.455 422.032C320.486 428.377 320.486 428.367 331.398 428.341C338.084 428.325 344.775 428.488 351.456 428.292C355.319 428.178 357.016 429.171 356.76 433.511C356.193 443.125 356.408 443.143 346.632 443.16C339.602 443.171 332.571 443.275 325.544 443.126C321.805 443.047 320.328 444.52 320.386 448.284C320.597 462.074 319.099 459.988 331.565 460.11C339.108 460.184 346.666 460.355 354.191 459.975C359.241 459.72 361.777 461.055 360.643 466.937Z" fill="#06770C"/>
<path d="M233.512 463.478C233.495 443.59 233.606 424.21 233.374 404.834C233.315 399.909 234.936 398.225 239.871 398.306C254.959 398.553 270.055 398.558 285.142 398.339C289.965 398.269 292.298 399.686 291.595 404.75C291.432 405.928 291.445 407.161 291.582 408.346C292.099 412.843 290.142 414.401 285.677 414.3C276.251 414.085 266.807 414.54 257.386 414.229C251.042 414.019 252.376 418.247 252.19 421.828C251.996 425.562 252.181 428.591 257.419 428.404C265.811 428.104 274.227 428.514 282.623 428.286C287.002 428.167 288.745 429.535 288.629 434.152C288.402 443.181 288.627 443.187 279.762 443.186C272.388 443.184 265.009 443.328 257.641 443.122C253.745 443.013 252.16 444.243 252.097 448.37C251.917 460.094 251.76 460.082 263.485 460.081C271.374 460.08 279.266 460.251 287.149 460.068C291.009 459.979 292.686 461.095 292.675 465.281C292.648 475.724 292.82 475.723 282.422 475.739C268.874 475.761 255.326 475.79 241.778 475.804C233.508 475.812 233.508 475.803 233.51 467.589C233.51 466.389 233.511 465.188 233.512 463.478Z" fill="#06770C"/>
<path d="M280.002 572.638C281.071 572.017 281.685 571.045 282.189 569.912C285.671 562.098 291.411 560.229 299.044 564.353C309.256 569.869 315.417 578.629 318.978 589.405C320.006 592.517 321.72 595.586 321.035 598.926C320.37 599.133 320.126 599.28 320.055 599.221C312.502 592.914 303.481 593.158 294.409 593.239C291.178 593.268 288.022 592.069 285.067 590.671C276.996 586.851 275.185 580.84 279.906 572.946C280.041 572.597 280.014 572.623 280.002 572.638Z" fill="#06770C"/>
</svg>
