<svg width="35" height="48" viewBox="0 0 35 48" fill="none" xmlns="http://www.w3.org/2000/svg">
<path d="M16.5794 24.0094C16.1237 22.5094 16.1328 19.6125 16.3971 19.6125C17.1628 19.6125 17.0898 23.0719 16.5794 24.0094ZM16.4245 28.4344C15.7227 30.3281 14.8477 32.4938 13.8359 34.3125C15.5039 33.6562 17.3906 32.7 19.569 32.2594C18.4115 31.3594 17.2995 30.0656 16.4245 28.4344ZM7.84766 40.1344C7.84766 40.2094 9.05078 39.6281 11.0286 36.3656C10.418 36.9562 8.3763 38.6625 7.84766 40.1344ZM22.6042 15H35V45.75C35 46.9969 34.0247 48 32.8125 48H2.1875C0.97526 48 0 46.9969 0 45.75V2.25C0 1.00312 0.97526 0 2.1875 0H20.4167V12.75C20.4167 13.9875 21.401 15 22.6042 15ZM21.875 31.1062C20.0521 29.9625 18.8398 28.3875 17.9831 26.0625C18.3932 24.3281 19.0404 21.6938 18.5482 20.0438C18.1198 17.2875 14.6836 17.5594 14.1914 19.4062C13.7357 21.1219 14.1549 23.5406 14.9297 26.625C13.8724 29.2125 12.3138 32.6812 11.2109 34.6687C11.2018 34.6687 11.2018 34.6781 11.1927 34.6781C8.72266 35.9813 4.48438 38.85 6.22526 41.0531C6.73568 41.7 7.68359 41.9906 8.1849 41.9906C9.81641 41.9906 11.4388 40.3031 13.7539 36.1969C16.1055 35.4 18.6849 34.4062 20.9544 34.0219C22.9323 35.1281 25.2474 35.85 26.7878 35.85C29.4492 35.85 29.6315 32.85 28.5833 31.7812C27.3164 30.5063 23.6341 30.8719 21.875 31.1062ZM34.362 9.84375L25.4297 0.65625C25.0195 0.234375 24.4635 0 23.8802 0H23.3333V12H35V11.4281C35 10.8375 34.7721 10.2656 34.362 9.84375ZM27.6081 33.7781C27.9818 33.525 27.3802 32.6625 23.707 32.9344C27.0885 34.4156 27.6081 33.7781 27.6081 33.7781Z" fill="#222831"/>
</svg>
