<svg width="328" height="70" viewBox="0 0 328 70" fill="none" xmlns="http://www.w3.org/2000/svg">
<path d="M234.821 12.2327H228.167V57.8036H234.821V12.2327Z" fill="#4B63AE"/>
<path fill-rule="evenodd" clip-rule="evenodd" d="M155.575 18.0181C146.526 18.0181 139.375 25.621 139.375 35.1795C139.375 39.5468 141.109 43.7353 144.198 46.8235C147.286 49.9117 151.474 51.6466 155.842 51.6466C160.209 51.6466 164.397 49.9117 167.486 46.8235C170.574 43.7353 172.309 39.5468 172.309 35.1795C172.274 25.3548 165.099 18.0181 155.575 18.0181ZM155.842 11.827C160.409 11.8431 164.87 13.2104 168.662 15.7566C172.454 18.3028 175.408 21.9142 177.152 26.1359C178.895 30.3576 179.351 35.0008 178.461 39.4809C177.571 43.9609 175.375 48.0774 172.15 51.312C168.925 54.5466 164.815 56.7547 160.338 57.6581C155.86 58.5615 151.216 58.1198 146.989 56.3888C142.762 54.6577 139.142 51.7146 136.584 47.9302C134.027 44.1458 132.646 39.6892 132.616 35.1217C132.581 32.0586 133.157 29.0192 134.311 26.1814C135.464 23.3437 137.173 20.7647 139.335 18.5954C141.498 16.4261 144.072 14.7101 146.907 13.5479C149.741 12.3857 152.778 11.8007 155.842 11.827Z" fill="#4B63AE"/>
<path fill-rule="evenodd" clip-rule="evenodd" d="M15.5298 17.4393C11.3638 17.4393 7.73017 20.3091 8.23934 24.6371C8.35836 25.5211 8.68592 26.364 9.19499 27.0965C9.70405 27.8289 10.38 28.4297 11.1671 28.8493C12.0645 29.3342 13.0111 29.7222 13.9907 30.0065C15.2983 30.481 16.8837 31.0133 18.5154 31.5804C21.7671 32.7376 25.1231 34.0568 26.5464 35.3991C27.7676 36.4953 28.7433 37.8373 29.4094 39.337C30.0755 40.8368 30.417 42.4604 30.4115 44.1014C30.4115 52.711 23.4682 58.4623 15.3678 58.4623C7.26728 58.4623 0.208298 52.7804 0 44.4485H6.42253C7.25572 50.142 10.8431 52.6647 15.3678 52.6647C19.5569 52.6647 23.8733 50.0263 23.8733 45.0966C23.8949 43.8565 23.561 42.6363 22.9109 41.5801C22.2608 40.524 21.3217 39.6761 20.2049 39.1369C19.3594 38.7086 18.481 38.3488 17.578 38.0607C16.5018 37.6789 15.2636 37.2854 13.9907 36.9035C11.6209 36.2096 9.31993 35.2993 7.11684 34.1841C5.49171 33.2458 4.14213 31.8964 3.20368 30.2714C2.26523 28.6463 1.77095 26.8029 1.77053 24.9264C1.77053 17.2541 7.6376 11.6648 15.9001 11.6648C22.4152 11.6648 29.1039 16.7218 29.5205 24.0469H22.9822C22.8124 22.2047 21.9474 20.4963 20.5631 19.2689C19.1788 18.0415 17.3791 17.3873 15.5298 17.4393Z" fill="#4B63AE"/>
<path fill-rule="evenodd" clip-rule="evenodd" d="M194.561 12.2437H216.086V18.3537H196.783V33.1544H216.086V39.2529H196.783V57.7683H190.129V16.6642C190.129 16.0827 190.244 15.5069 190.467 14.9699C190.69 14.4328 191.017 13.9449 191.428 13.5343C191.84 13.1237 192.329 12.7983 192.866 12.5768C193.404 12.3554 193.98 12.2421 194.561 12.2437Z" fill="#4B63AE"/>
<path fill-rule="evenodd" clip-rule="evenodd" d="M92.9703 22.8547V57.8025H86.3163V16.4438C86.3163 15.2162 86.804 14.0388 87.6721 13.1707C88.5402 12.3027 89.7175 11.815 90.9452 11.815C91.7362 11.7883 92.5194 11.9778 93.2107 12.3632C93.9019 12.7486 94.475 13.3152 94.8681 14.0021C101.476 24.7063 113.615 44.9343 114.934 47.1561V12.22H121.588V53.5787C121.588 54.8063 121.1 55.9837 120.232 56.8517C119.364 57.7198 118.187 58.2075 116.959 58.2075C116.166 58.2326 115.38 58.0412 114.687 57.6539C113.994 57.2666 113.419 56.6978 113.025 56.0088C106.429 45.3162 94.278 25.0766 92.9703 22.8547Z" fill="#4B63AE"/>
<path fill-rule="evenodd" clip-rule="evenodd" d="M56.3213 20.6098L49.6095 39.0095H63.0332L56.3213 20.6098ZM47.4224 44.9691L42.701 57.8026H35.7577L52.1091 14.6849C52.4431 13.8419 53.0228 13.1187 53.7728 12.6092C54.5229 12.0996 55.4088 11.8271 56.3155 11.8271C57.2223 11.8271 58.1082 12.0996 58.8582 12.6092C59.6083 13.1187 60.188 13.8419 60.522 14.6849L76.885 57.8026H69.9417L65.2319 44.9575L47.4224 44.9691Z" fill="#4B63AE"/>
<path d="M326.356 24.4403C315.085 7.88059 302.46 22.4267 289.765 20.6215C277.071 18.8162 276.747 1.58539 292.242 0.0810131C292.612 0.0810131 292.994 0.0115721 293.399 0C300.767 0.0823925 307.92 2.48983 313.839 6.87877C319.757 11.2677 324.138 17.4139 326.356 24.4403Z" fill="#CFAB7A"/>
<path fill-rule="evenodd" clip-rule="evenodd" d="M326.669 25.4351C327.541 28.554 327.982 31.7781 327.976 35.0168C327.981 41.657 326.094 48.1612 322.537 53.7682C318.98 59.3753 313.899 63.8533 307.89 66.6783C301.881 69.5033 295.191 70.5584 288.604 69.7201C282.017 68.8819 275.805 66.185 270.694 61.945C273.131 62.8492 275.71 63.3078 278.309 63.299C309.993 63.461 296.465 21.3386 326.669 25.4351Z" fill="#4B63AE"/>
<path fill-rule="evenodd" clip-rule="evenodd" d="M280.23 59.098C275.844 61.7711 268.889 60.9726 264.029 54.3534C263.003 52.9549 262.097 51.4723 261.321 49.9213C259.127 45.2674 257.993 40.1847 258 35.0396C258.002 33.6433 258.087 32.2484 258.254 30.8621C265.88 41.1497 274.664 40.8372 280.241 44.1815C281.509 44.97 282.555 46.0687 283.28 47.3736C284.005 48.6786 284.386 50.1468 284.386 51.6397C284.386 53.1326 284.005 54.6009 283.28 55.9059C282.555 57.2109 281.509 58.3095 280.241 59.098H280.23Z" fill="#B2BB1E"/>
</svg>
