<svg width="282" height="75" viewBox="0 0 282 75" fill="none" xmlns="http://www.w3.org/2000/svg">
<path d="M43.9453 6.14756C46.9901 9.61283 48.0589 13.7037 48.1454 18.2059C43.371 18.2059 38.6548 18.2059 33.9173 18.2059C33.8391 17.7875 33.7719 17.3896 33.6898 16.9948C33.1004 14.1621 31.2018 12.5328 28.3198 12.2683C23.8601 11.8592 20.4263 13.6002 18.1548 17.3639C15.1769 22.2979 14.352 27.6987 15.5902 33.3109C16.3359 36.691 18.813 38.5476 22.2829 38.8697C24.3832 39.0646 26.4225 38.8867 28.3661 38.0405C30.2062 37.2392 31.5026 35.8712 32.3266 34.0493C32.3753 33.9415 32.3875 33.8172 32.4451 33.5877C31.2824 33.5877 30.1915 33.5877 29.1007 33.5877C28.0056 33.5877 26.9105 33.5877 25.6897 33.5877C26.4327 30.0512 27.1536 26.6196 27.8774 23.1742C34.546 23.1742 41.1647 23.1742 47.9023 23.1742C46.0202 32.1266 44.1509 41.0179 42.2736 49.9475C39.1037 49.9475 35.9705 49.9475 32.7373 49.9475C32.8661 48.4037 32.9921 46.8935 33.1275 45.2702C32.9466 45.3815 32.8495 45.4123 32.7961 45.4784C30.2757 48.6001 26.958 50.3295 23.0431 50.8886C18.9241 51.4768 14.8614 51.1535 11.0057 49.494C5.6029 47.1686 2.53047 42.8645 0.962661 37.3406C-0.345544 32.7313 -0.191933 28.0853 0.657761 23.4357C1.57189 18.4336 3.41871 13.822 6.57892 9.78692C10.7604 4.44779 16.2805 1.41554 22.9297 0.403605C28.1014 -0.383474 33.1896 -0.0996033 38.0728 1.97111C40.3143 2.9216 42.2889 4.26917 43.9453 6.14756Z" fill="#018FD0"/>
<path d="M216.617 49.8948C213.349 49.9336 210.153 49.9796 206.956 49.9918C202.887 50.0074 198.819 49.9956 194.75 49.9956C194.474 49.9956 194.198 49.9956 193.813 49.9956C193.929 49.3753 194.017 48.8548 194.124 48.338C196.247 38.0566 198.372 27.7756 200.498 17.4946C200.726 16.3938 200.963 15.2949 201.184 14.1927C201.256 13.8369 201.351 13.5941 201.807 13.5967C208.689 13.6358 215.572 13.6182 222.453 13.7222C223.755 13.7419 225.084 14.1198 226.339 14.5247C228.87 15.3417 230.436 17.1153 230.787 19.7762C231.223 23.087 230.817 26.2187 228.021 28.4811C227.109 29.219 225.938 29.6381 224.882 30.1953C224.709 30.2862 224.516 30.3375 224.255 30.4363C228.256 31.4803 229.91 35.2707 229.718 38.5756C229.36 44.7346 225.229 48.3997 219.345 49.5445C218.47 49.7147 217.574 49.7756 216.617 49.8948ZM218.391 38.3308C218.627 35.9489 217.814 34.7918 215.446 34.6227C213.107 34.4555 210.749 34.5379 208.399 34.5517C208.226 34.5527 207.954 34.8592 207.9 35.0679C207.647 36.0563 207.453 37.06 207.238 38.0583C207.015 39.0925 206.792 40.1267 206.563 41.1883C209.472 41.1883 212.257 41.2979 215.026 41.1463C216.634 41.0583 217.945 40.218 218.391 38.3308ZM211.911 27.7883C213.088 27.7881 214.269 27.8533 215.439 27.7666C216.343 27.6996 217.285 27.5734 218.115 27.2387C219.371 26.7322 219.876 25.5238 219.604 24.2058C219.355 22.9999 218.626 22.4014 217.151 22.3647C215.106 22.3139 213.059 22.3346 211.013 22.3478C210.827 22.349 210.504 22.4868 210.475 22.6139C210.089 24.2971 209.745 25.9897 209.368 27.7883C210.236 27.7883 210.997 27.7883 211.911 27.7883Z" fill="#0290D0"/>
<path d="M117.287 49.4643C117.053 49.6821 116.839 49.9732 116.623 49.9751C113.296 50.004 109.97 49.9822 106.643 50.0083C106.09 50.0126 106.04 49.6643 105.922 49.305C103.859 43.0171 101.796 36.7294 99.7328 30.4417C99.6617 30.2253 99.5864 30.0103 99.3724 29.775C99.1336 30.8795 98.8869 31.9824 98.6572 33.0888C97.5299 38.5199 96.4067 43.9519 95.2835 49.3838C95.2135 49.7225 95.1511 50.0062 94.6787 50.0034C91.378 49.9836 88.0772 49.9875 84.7765 49.9813C84.7289 49.9812 84.6813 49.95 84.5284 49.8964C84.7899 48.5995 85.0491 47.2851 85.3203 45.9731C87.5076 35.3915 89.6995 24.8108 91.8782 14.2273C91.9721 13.7712 92.1484 13.592 92.6341 13.5948C95.9349 13.6139 99.2362 13.6243 102.537 13.5877C103.175 13.5807 103.294 13.9383 103.449 14.3887C105.491 20.3328 107.539 26.275 109.586 32.2173C109.691 32.5197 109.808 32.8177 110.096 33.11C110.164 32.8269 110.24 32.5455 110.299 32.2605C111.541 26.2321 112.776 20.2024 114.039 14.1784C114.085 13.9594 114.393 13.6323 114.582 13.6306C117.882 13.6005 121.183 13.6129 124.484 13.6203C124.554 13.6205 124.623 13.6714 124.786 13.7353C124.535 14.9443 124.285 16.1612 124.03 17.377C121.789 28.0525 119.547 38.7278 117.287 49.4643Z" fill="#0190D0"/>
<path d="M126.908 49.9957C125.198 49.9957 123.564 49.9957 121.784 49.9957C121.936 49.1747 122.059 48.4364 122.212 47.7043C124.515 36.6502 126.829 25.5985 129.11 14.54C129.266 13.7849 129.565 13.5753 130.316 13.5864C133.335 13.631 136.355 13.6356 139.374 13.5836C140.143 13.5703 140.481 13.7954 140.728 14.5252C142.767 20.5521 144.847 26.5649 146.917 32.5812C146.999 32.8196 147.103 33.0503 147.291 33.5193C147.593 32.0783 147.855 30.858 148.104 29.6351C149.139 24.5504 150.175 19.4658 151.196 14.3783C151.305 13.8318 151.494 13.5789 152.13 13.5871C155.174 13.6266 158.22 13.6041 161.265 13.6063C161.491 13.6065 161.716 13.6279 162.063 13.6456C161.8 14.9375 161.554 16.1769 161.294 17.4133C159.064 28.0131 156.824 38.611 154.615 49.2151C154.481 49.8602 154.226 50.0167 153.603 50.0103C150.481 49.9784 147.359 49.975 144.238 50.0131C143.606 50.0208 143.346 49.8109 143.157 49.2337C141.13 43.0417 139.08 36.8574 137.035 30.6714C136.955 30.4321 136.867 30.1959 136.634 29.929C136.57 30.1728 136.495 30.4144 136.444 30.661C135.165 36.8916 133.878 43.1208 132.627 49.3571C132.52 49.8917 132.308 50.0105 131.821 50.0039C130.21 49.9821 128.597 49.9957 126.908 49.9957Z" fill="#0190D0"/>
<path d="M247.783 50.8054C244.446 50.6379 241.315 49.9845 238.554 48.1341C235.232 45.9076 233.393 42.6883 232.795 38.8138C231.829 32.5462 232.837 26.6141 236.435 21.2959C240.134 15.8289 245.408 13.0782 251.956 12.7599C254.993 12.6122 257.987 12.9248 260.857 14.0259C265.045 15.6325 267.764 18.6474 268.726 22.974C270.491 30.9126 269.132 38.2521 263.694 44.5145C260.571 48.1112 256.496 50.0946 251.761 50.6413C250.471 50.7902 249.16 50.7558 247.783 50.8054ZM243.729 35.8855C243.743 36.1154 243.751 36.3458 243.771 36.575C244.014 39.2494 245.491 41.154 247.848 41.6094C250.903 42.1998 253.459 41.2026 255.251 38.685C257.883 34.9865 258.568 30.7644 257.995 26.3468C257.734 24.3357 256.663 22.7699 254.591 22.1024C251.927 21.2446 248.792 22.1653 246.93 24.4933C244.3 27.7823 243.671 31.6786 243.729 35.8855Z" fill="#0190D0"/>
<path d="M190.641 22.4936C186.036 22.4689 181.508 22.4572 176.98 22.4044C176.34 22.3969 176.085 22.5801 175.972 23.2157C175.71 24.6963 175.366 26.1623 175.033 27.7382C181.274 27.7382 187.419 27.7382 193.684 27.7382C193.166 30.2084 192.67 32.5693 192.16 34.9976C191.814 34.9976 191.512 34.9976 191.21 34.9976C185.58 34.9977 179.95 35.0096 174.32 34.9813C173.679 34.9781 173.425 35.1649 173.311 35.7861C173.044 37.2417 172.707 38.6844 172.405 40.1336C172.354 40.3782 172.334 40.6291 172.285 40.9776C178.592 40.9776 184.817 40.9776 191.125 40.9776C190.72 42.927 190.338 44.7729 189.953 46.6183C189.76 47.5442 189.551 48.4669 189.375 49.3959C189.297 49.8074 189.141 50.0054 188.675 50.0048C178.976 49.9926 169.277 49.9955 159.578 49.9928C159.454 49.9927 159.33 49.9598 159.112 49.9287C159.418 48.4554 159.716 47.0121 160.018 45.5699C161.986 36.1937 163.955 26.8177 165.923 17.4415C166.149 16.3674 166.382 15.2947 166.589 14.2169C166.673 13.7736 166.858 13.5927 167.348 13.5935C176.97 13.6087 186.593 13.6046 196.215 13.607C196.389 13.607 196.563 13.6382 196.854 13.666C196.652 14.6771 196.468 15.6435 196.266 16.6064C195.909 18.3088 195.509 20.003 195.195 21.7131C195.076 22.3644 194.797 22.5348 194.172 22.5078C193.022 22.4582 191.869 22.4937 190.641 22.4936Z" fill="#0290D0"/>
<path d="M86.3483 18.5367C85.0802 24.684 83.8023 30.7628 82.564 36.8497C81.9971 39.6367 81.1201 42.2857 79.3816 44.5766C77.0671 47.6266 73.9565 49.4388 70.2486 50.2104C65.3482 51.2301 60.4791 51.1924 55.7828 49.2594C52.3598 47.8505 50.0555 45.3885 49.2828 41.6635C48.849 39.5723 49.3126 37.5425 49.7317 35.5177C51.1871 28.4852 52.6638 21.457 54.1345 14.4275C54.1863 14.1801 54.26 13.9372 54.3329 13.6558C58.0651 13.6558 61.7855 13.6558 65.5838 13.6558C65.1148 15.8915 64.6566 18.0627 64.2041 20.2352C63.1675 25.2126 62.1218 30.1881 61.1107 35.1706C60.9493 35.966 60.8819 36.7941 60.8841 37.6067C60.892 40.4366 62.4616 41.8756 65.2916 41.7678C67.4175 41.6869 68.987 40.7139 70.088 38.9307C71.2816 36.9974 71.7383 34.8139 72.1915 32.634C73.4544 26.5595 74.7129 20.4841 75.9474 14.4039C76.0722 13.7889 76.2967 13.5798 76.9474 13.5876C80.1204 13.6259 83.2941 13.6042 86.4676 13.6064C86.7179 13.6065 86.9681 13.6274 87.342 13.6441C87.004 15.2965 86.6793 16.8841 86.3483 18.5367Z" fill="#0190D0"/>
<path d="M215.367 71.2512C214.923 72.0939 214.509 72.8874 214.089 73.6781C213.509 74.7716 213.507 74.7707 212.102 74.5993C211.851 71.7073 211.599 68.7958 211.33 65.6848C211.125 66.0231 211.003 66.1952 210.911 66.3823C209.727 68.7915 208.549 71.2043 207.364 73.613C206.792 74.7749 206.785 74.7718 205.353 74.6009C204.941 71.0517 204.526 67.482 204.104 63.8457C204.605 63.8457 205.046 63.8457 205.517 63.8457C205.794 66.7944 206.07 69.7381 206.362 72.8532C206.547 72.5842 206.67 72.4471 206.747 72.2882C207.936 69.8531 209.12 67.4155 210.303 64.9777C210.909 63.7272 210.908 63.7265 212.461 63.824C212.701 66.7354 212.942 69.6633 213.183 72.5913C213.234 72.6021 213.284 72.6129 213.335 72.6237C213.456 72.4166 213.589 72.2154 213.697 72.0014C214.916 69.5805 216.131 67.1581 217.346 64.7352C217.884 63.6634 217.882 63.6625 219.23 63.8779C217.944 66.3328 216.669 68.7668 215.367 71.2512Z" fill="#221F23"/>
<path d="M250.881 73.2879C250.851 73.4514 250.843 73.5542 250.821 73.6538C250.582 74.7396 250.581 74.7395 249.334 74.608C249.409 74.1803 249.484 73.7535 249.593 73.1388C249.301 73.404 249.15 73.5244 249.018 73.6639C248.244 74.4883 247.281 74.902 246.164 74.9832C243.572 75.1718 241.834 73.7573 241.673 71.1674C241.495 68.3019 242.437 65.8755 244.896 64.2142C246.109 63.3954 247.489 63.3004 248.879 63.6003C249.934 63.8278 250.677 64.506 251.153 65.7545C251.616 63.5702 252.026 61.6317 252.447 59.6462C252.88 59.6462 253.298 59.6462 253.808 59.6462C252.831 64.2067 251.864 68.7162 250.881 73.2879ZM243.315 68.4321C243.209 69.2125 243.008 69.9939 243.015 70.7733C243.037 73.1139 244.801 74.3705 247.024 73.6335C247.587 73.4469 248.15 73.1128 248.582 72.7068C250.085 71.2927 250.693 69.4701 250.602 67.4526C250.505 65.3182 248.762 64.139 246.683 64.7078C244.827 65.2155 243.958 66.6474 243.315 68.4321Z" fill="#232024"/>
<path d="M186.648 69.5865C185.164 69.5866 183.757 69.6067 182.351 69.5762C181.838 69.565 181.691 69.7733 181.666 70.2419C181.576 71.9151 182.41 73.2877 183.79 73.6881C185.45 74.17 187.188 73.4366 188.039 71.8956C188.541 70.9855 188.541 70.9855 189.639 71.1942C189.352 73.2741 187.418 74.889 185.092 74.9893C182.212 75.1134 180.534 73.5983 180.335 70.6939C180.138 67.8327 181.589 65.0773 183.875 63.9675C185.053 63.3958 186.294 63.3079 187.537 63.6224C189.113 64.0209 190.041 65.1123 190.271 66.6871C190.405 67.6069 190.295 68.5624 190.295 69.5865C189.068 69.5865 187.897 69.5865 186.648 69.5865ZM187.138 64.7688C184.761 64.1096 182.318 65.8244 182.029 68.4011C184.334 68.4011 186.634 68.4011 188.925 68.4011C189.205 66.6517 188.672 65.5221 187.138 64.7688Z" fill="#252226"/>
<path d="M139.469 68.7426C140.621 68.6206 141.709 68.4913 142.801 68.3978C144.469 68.255 145.012 67.743 145.042 66.3C145.059 65.4891 144.701 64.9765 143.936 64.7702C142.786 64.4601 141.607 64.4578 140.616 65.1321C140.027 65.5329 139.651 66.2469 139.18 66.8201C139.226 66.8743 139.272 66.9285 139.318 66.9827C138.924 66.9827 138.53 66.9827 138.137 66.9827C138.066 65.6915 138.987 64.3994 140.396 63.8535C141.807 63.307 143.25 63.3238 144.673 63.7853C146.065 64.2365 146.629 65.1824 146.351 66.6252C145.984 68.5278 145.552 70.4178 145.156 72.3149C144.899 73.5487 144.927 73.5807 146.192 73.6672C146.151 73.9842 146.11 74.299 146.07 74.6048C144.558 75.0735 144.065 74.8184 143.626 73.3037C142.557 74.4929 141.242 75.067 139.668 74.9862C137.176 74.8585 135.832 72.913 136.727 70.708C137.21 69.5167 138.273 69.075 139.469 68.7426ZM138.556 73.3352C138.908 73.4772 139.249 73.6913 139.615 73.7499C142.278 74.1764 144.303 72.4713 144.398 69.1272C143.731 69.2153 143.05 69.2895 142.374 69.3981C141.32 69.5675 140.228 69.6355 139.229 69.9725C137.753 70.4701 137.439 72.0635 138.556 73.3352Z" fill="#242125"/>
<path d="M170.789 68.2225C171.76 67.7752 172.13 67.0156 171.953 65.9332C171.828 65.1724 171.261 64.6386 170.293 64.6595C169.397 64.6788 168.476 64.8311 167.625 65.1071C167.203 65.2439 166.722 65.7373 166.605 66.1623C166.352 67.0787 165.811 67.1388 164.988 66.9582C165.11 65.7458 165.664 64.7728 166.707 64.1803C168.47 63.1782 170.323 63.2086 172.147 64.0324C172.991 64.4139 173.459 65.1482 173.305 66.0844C173.02 67.8185 172.649 69.5386 172.31 71.2637C172.236 71.6386 172.133 72.0078 172.061 72.3831C171.839 73.5501 171.878 73.5965 173.153 73.6559C173.089 74.0005 173.027 74.333 172.968 74.6483C171.317 74.9889 170.939 74.7784 170.597 73.3311C170.197 73.6564 169.834 74.0126 169.415 74.279C168.379 74.9374 167.237 75.1152 166.029 74.9141C164.531 74.6646 163.683 73.8581 163.469 72.4668C163.247 71.022 163.817 69.7349 165.194 69.2239C166.345 68.7965 167.606 68.6522 168.826 68.4293C169.451 68.3152 170.095 68.3034 170.789 68.2225ZM171.423 69.2764C171.341 69.2063 171.249 69.0667 171.178 69.0768C170.502 69.1735 169.829 69.2939 169.155 69.4109C168.156 69.5845 167.128 69.6659 166.165 69.9617C165.127 70.2807 164.714 71.113 164.831 72.1793C164.92 72.9977 165.553 73.5806 166.554 73.767C168.549 74.1383 170.351 73.061 170.969 71.1052C171.145 70.5483 171.26 69.9721 171.423 69.2764Z" fill="#232024"/>
<path d="M110.783 60.8817C109.222 60.8818 107.737 60.8671 106.253 60.8984C106.042 60.9029 105.689 61.0957 105.65 61.26C105.27 62.8717 104.943 64.4959 104.577 66.2262C107.017 66.2262 109.38 66.2262 111.743 66.2262C111.701 67.5037 111.701 67.5038 110.566 67.5039C108.774 67.504 106.981 67.551 105.192 67.482C104.421 67.4523 104.197 67.7252 104.069 68.4316C103.758 70.1421 103.353 71.8355 102.985 73.5354C102.712 74.7927 102.711 74.7925 101.265 74.5955C102.338 69.6055 103.41 64.6226 104.485 59.6228C107.713 59.6228 110.878 59.6228 114.043 59.6228C114.047 60.8816 114.047 60.8817 112.856 60.8817C112.191 60.8818 111.525 60.8817 110.783 60.8817Z" fill="#282529"/>
<path d="M224.741 74.9036C221.37 75.3741 219.313 73.6128 219.387 70.2637C219.448 67.5145 220.448 65.2307 223.072 63.949C224.242 63.3776 225.499 63.3271 226.741 63.5974C228.458 63.9711 229.613 65.3154 229.756 67.1252C229.905 69.002 229.537 70.7896 228.498 72.3932C227.624 73.7428 226.416 74.6199 224.741 74.9036ZM221.719 66.777C221.391 67.8917 220.895 68.9881 220.77 70.1252C220.531 72.2966 221.775 73.7293 223.792 73.8284C224.989 73.8873 225.997 73.4141 226.765 72.5073C228.052 70.9871 228.584 69.2104 228.344 67.2367C228.146 65.6085 227.022 64.6579 225.379 64.606C223.744 64.5543 222.643 65.4069 221.719 66.777Z" fill="#242225"/>
<path d="M115.827 64.2833C117.134 63.4789 118.51 63.3311 119.933 63.551C121.568 63.8037 122.866 65.0602 123.085 66.7695C123.395 69.175 122.896 71.4172 121.212 73.2496C119.684 74.913 117.743 75.3235 115.604 74.7648C114.232 74.4065 113.395 73.4437 113 72.0991C112.189 69.3414 113.4 65.9613 115.827 64.2833ZM119.21 73.3192C121.135 71.9541 122.212 69.1576 121.686 66.892C121.396 65.6448 120.497 64.7952 119.276 64.6385C117.886 64.46 116.696 64.8695 115.761 65.9234C114.681 67.1392 114.173 68.5843 114.15 70.1988C114.107 73.2093 116.386 74.6661 119.21 73.3192Z" fill="#232024"/>
<path d="M157.659 73.8251C158.362 73.6789 159.059 73.6389 159.629 73.349C160.912 72.6961 160.955 71.1494 159.732 70.3814C159.155 70.0197 158.482 69.8148 157.858 69.526C157.211 69.2263 156.523 68.9828 155.937 68.5887C154.319 67.4994 154.361 65.2568 156.019 64.2308C157.579 63.2659 159.266 63.1983 160.946 63.8561C162.288 64.3817 162.706 65.5304 162.722 66.9424C162.276 66.9424 161.857 66.9424 161.437 66.9424C160.983 64.799 159.21 63.9528 157.173 64.9026C155.94 65.4777 155.773 66.9126 156.918 67.6434C157.641 68.1055 158.482 68.3838 159.266 68.7525C159.75 68.98 160.258 69.1745 160.701 69.4669C162.366 70.5675 162.433 72.7619 160.863 74.0112C159.348 75.2172 156.515 75.343 154.926 74.2449C153.851 73.5023 153.394 72.4543 153.497 71.1134C153.931 71.1134 154.329 71.1134 154.798 71.1134C154.873 72.89 155.91 73.7006 157.659 73.8251Z" fill="#242125"/>
<path d="M274.233 23.4356C271.883 22.3038 270.729 20.1452 271.163 17.7791C271.588 15.4669 273.443 13.7744 275.801 13.5487C278.295 13.3099 280.612 14.6319 281.383 16.8389C282.054 18.76 281.819 20.6026 280.415 22.1395C278.957 23.7353 277.089 24.1234 275.019 23.6835C274.771 23.6308 274.532 23.5329 274.233 23.4356ZM278.883 21.7033C279.305 21.0321 279.896 20.4117 280.115 19.6799C280.692 17.7509 279.686 15.7484 277.914 14.9884C276.17 14.2401 274.151 14.8672 273.152 16.4675C272.159 18.0564 272.376 20.2381 273.658 21.5702C274.86 22.8195 276.817 23.1054 278.295 22.2174C278.507 22.0898 278.633 21.8186 278.793 21.6177C278.793 21.6177 278.789 21.6246 278.883 21.7033Z" fill="#0B94D2"/>
<path d="M177.864 67.6843C177.414 69.7167 176.977 71.6858 176.535 73.6536C176.274 74.8133 176.266 74.8142 174.964 74.565C175.665 71.3812 176.365 68.1986 177.087 64.9218C176.428 64.9218 175.855 64.9218 175.277 64.9218C175.361 63.7853 175.365 63.7337 176.358 63.8007C177.114 63.8517 177.508 63.6259 177.546 62.8448C177.559 62.5935 177.647 62.3456 177.704 62.0969C178.198 59.9503 179.689 59.1054 181.939 59.7722C181.886 60.0981 181.83 60.4358 181.777 60.7628C179.313 60.8848 178.905 61.2904 178.791 63.764C179.443 63.764 180.094 63.764 180.749 63.764C180.661 64.9206 180.661 64.9205 179.608 64.9208C178.443 64.921 178.442 64.9208 178.203 66.0478C178.092 66.5717 177.984 67.0962 177.864 67.6843Z" fill="#242225"/>
<path d="M241.292 59.5934C241.982 59.596 241.721 60.0178 241.662 60.2952C241.136 62.7707 240.594 65.2429 240.06 67.7166C239.608 69.8117 239.16 71.9079 238.707 74.0029C238.664 74.201 238.599 74.3942 238.534 74.6273C238.129 74.6273 237.733 74.6273 237.229 74.6273C237.473 73.4342 237.702 72.2705 237.951 71.1112C238.724 67.5185 239.523 63.9313 240.264 60.332C240.392 59.7114 240.645 59.4999 241.292 59.5934Z" fill="#242125"/>
<path d="M232.903 70.0597C232.572 71.617 232.25 73.1106 231.921 74.6326C231.49 74.6326 231.089 74.6326 230.573 74.6326C231.347 71.0078 232.114 67.4157 232.882 63.8201C233.312 63.8201 233.663 63.8201 234.08 63.8201C233.993 64.3874 233.912 64.9132 233.844 65.3519C234.731 64.8026 235.558 64.1856 236.474 63.764C236.968 63.5371 237.615 63.6454 238.202 63.6018C238.151 64.8911 238.149 64.869 237.016 64.9721C235.238 65.1341 234.144 66.2042 233.521 67.7859C233.242 68.4928 233.11 69.2575 232.903 70.0597Z" fill="#221F23"/>
<path d="M197.755 64.9651C195.541 64.9788 194.039 66.1704 193.447 68.466C193.014 70.1446 192.694 71.8528 192.335 73.5503C192.082 74.7482 192.091 74.75 190.764 74.6035C190.983 73.5347 191.194 72.4716 191.419 71.4114C191.89 69.1897 192.366 66.9692 192.843 64.7488C193.06 63.7378 193.062 63.7383 194.246 63.8383C194.145 64.4181 194.045 64.9952 193.945 65.5724C195.12 64.1345 196.535 63.3999 198.461 63.6884C198.158 64.0882 198.617 64.8053 197.755 64.9651Z" fill="#221F23"/>
<path d="M125.581 67.1227C125.832 65.9915 126.063 64.9221 126.299 63.8236C126.704 63.8236 127.075 63.8236 127.497 63.8236C127.38 64.4566 127.268 65.0633 127.156 65.6701C128.297 64.1596 129.714 63.4094 131.677 63.6897C131.587 64.1157 131.504 64.5044 131.414 64.9291C130.985 64.9516 130.576 64.9388 130.178 64.9997C128.483 65.2589 127.377 66.3056 126.915 67.8717C126.341 69.8213 125.973 71.8319 125.515 73.8159C125.452 74.0864 125.382 74.3551 125.314 74.6284C124.875 74.6284 124.474 74.6284 123.984 74.6284C124.518 72.1093 125.04 69.6469 125.581 67.1227Z" fill="#221F23"/>
<path d="M278.796 21.6157C277.842 21.7772 277.282 21.3295 276.959 20.4592C276.836 20.1282 276.659 19.7986 276.432 19.5308C276.256 19.3227 275.966 19.2116 275.56 18.9506C275.56 19.9547 275.56 20.7115 275.56 21.4467C274.459 21.7447 274.354 21.674 274.353 20.6935C274.351 19.2635 274.367 17.8333 274.345 16.4036C274.338 15.9378 274.493 15.7622 274.963 15.7875C275.751 15.8301 276.551 15.7651 277.33 15.8658C278.272 15.9877 278.714 16.4807 278.786 17.2718C278.868 18.1665 278.559 18.6343 277.642 19.0091C277.574 19.0368 277.512 19.0791 277.398 19.142C277.853 19.9429 278.302 20.7334 278.77 21.5742C278.789 21.6246 278.793 21.6177 278.796 21.6157ZM276.757 18.1804C277.302 18.1014 277.703 17.8812 277.549 17.2378C277.427 16.7265 276.653 16.5682 275.598 16.8085C275.598 17.254 275.598 17.6978 275.598 18.2018C275.978 18.2018 276.303 18.2018 276.757 18.1804Z" fill="#0E95D2"/>
</svg>
