<svg width="244" height="75" viewBox="0 0 244 75" fill="none" xmlns="http://www.w3.org/2000/svg">
<path d="M96.5257 74.9963V59.345H110.816C111.772 59.3497 112.688 59.7316 113.364 60.4077C114.04 61.0838 114.422 61.9993 114.426 62.9554V65.9413C114.422 66.8974 114.04 67.813 113.364 68.489C112.688 69.1651 111.772 69.547 110.816 69.5517H101.317V74.9674L96.5257 74.9963ZM106.837 65.9485H108.642C108.889 65.9561 109.131 65.8794 109.327 65.731C109.524 65.5826 109.665 65.3715 109.726 65.1325V63.9591C109.721 63.6733 109.605 63.4005 109.403 63.1984C109.201 62.9963 108.928 62.8807 108.642 62.876H101.313V65.9521L106.837 65.9485Z" fill="#717170"/>
<path d="M130.446 74.9927V68.9344H122.034V74.9927H117.329V59.345H122.034V65.3131H130.446V59.345H135.241V74.9927H130.446Z" fill="#717170"/>
<path d="M172.241 74.9963L166.995 69.5806H164.37V74.9963H159.676V59.345H173.97C174.926 59.3497 175.842 59.7316 176.518 60.4077C177.194 61.0838 177.576 61.9993 177.581 62.9554V65.9413C177.576 66.8974 177.194 67.813 176.518 68.489C175.842 69.1651 174.926 69.547 173.97 69.5517H172.613L177.772 74.9674L172.241 74.9963ZM169.89 65.9485H171.696C171.942 65.9561 172.184 65.8794 172.381 65.731C172.578 65.5826 172.718 65.3715 172.779 65.1325V63.9591C172.774 63.6733 172.658 63.4005 172.456 63.1984C172.254 62.9963 171.981 62.8807 171.696 62.876H164.366V65.9521L169.89 65.9485Z" fill="#717170"/>
<path d="M151.434 74.9962V70.5625H143.021V74.9962H138.227V62.9625C138.232 62.4816 138.332 62.0065 138.521 61.5644C138.711 61.1223 138.985 60.722 139.33 60.3865C139.675 60.051 140.082 59.7869 140.529 59.6094C140.976 59.4318 141.454 59.3444 141.934 59.352H152.52C153.476 59.3568 154.392 59.7387 155.068 60.4147C155.744 61.0908 156.126 62.0064 156.131 62.9625V74.9962H151.434ZM151.434 66.9448V63.959C151.434 63.6717 151.32 63.3962 151.116 63.1931C150.913 62.9899 150.638 62.8758 150.35 62.8758H144.108C143.822 62.8805 143.549 62.9961 143.347 63.1982C143.145 63.4004 143.03 63.6732 143.025 63.959V66.9448H151.434Z" fill="#717170"/>
<path d="M220.188 74.9962V70.5625H211.775V74.9962H206.981V62.9625C206.986 62.4816 207.086 62.0065 207.275 61.5644C207.465 61.1223 207.74 60.722 208.084 60.3865C208.429 60.051 208.836 59.7869 209.283 59.6094C209.73 59.4318 210.208 59.3444 210.689 59.352H221.271C222.227 59.3568 223.142 59.7387 223.819 60.4147C224.495 61.0908 224.876 62.0064 224.881 62.9625V74.9962H220.188ZM220.188 66.9448V63.959C220.182 63.6734 220.066 63.4012 219.864 63.1992C219.662 62.9973 219.39 62.8814 219.104 62.8758H212.858C212.571 62.8758 212.296 62.9899 212.092 63.1931C211.889 63.3962 211.775 63.6717 211.775 63.959V66.9448H220.188Z" fill="#717170"/>
<path d="M198.936 74.9964V63.9592C198.916 63.6789 198.795 63.4153 198.596 63.2166C198.397 63.0178 198.134 62.897 197.853 62.8761H194.604V75H189.791V62.8725H186.542C186.256 62.878 185.984 62.9939 185.782 63.1959C185.58 63.3978 185.464 63.6701 185.459 63.9556V74.9928H180.765V62.9628C180.77 62.0067 181.152 61.0911 181.828 60.415C182.504 59.7389 183.419 59.357 184.375 59.3523H200.02C200.977 59.3523 201.895 59.7327 202.573 60.4098C203.25 61.0869 203.63 62.0052 203.63 62.9628V74.9964H198.936Z" fill="#717170"/>
<path fill-rule="evenodd" clip-rule="evenodd" d="M127.449 11.142C126.303 10.0247 124.956 9.13517 123.478 8.52083C122.052 7.8993 120.509 7.59031 118.954 7.61461H118.784C117.23 7.59923 115.689 7.90785 114.26 8.52083C112.771 9.11314 111.419 10.0053 110.289 11.142C109.165 12.2177 108.271 13.5113 107.664 14.9438C107.045 16.3693 106.737 17.9103 106.761 19.4641C106.746 21.0475 107.053 22.6173 107.664 24.0783C108.284 25.5039 109.175 26.7952 110.289 27.8801C111.46 28.966 112.802 29.8516 114.26 30.5013C115.708 31.0364 117.24 31.3078 118.784 31.3028H118.965C120.506 31.3019 122.034 31.0256 123.478 30.4869C124.937 29.8377 126.279 28.9521 127.449 27.8657C128.609 26.8219 129.507 25.5194 130.071 24.0639C130.653 22.5927 130.965 21.0283 130.991 19.4461C130.97 17.9256 130.662 16.4228 130.085 15.0161C129.495 13.5503 128.596 12.2289 127.449 11.142ZM123.647 24.7138C123.058 25.3806 122.337 25.9176 121.529 26.2905C120.72 26.6635 119.844 26.8642 118.954 26.88C116.965 26.88 115.426 26.0641 114.069 24.7138C113.406 24.0106 112.889 23.183 112.548 22.2788C112.208 21.3746 112.049 20.4118 112.083 19.4461C112.056 18.4967 112.219 17.5514 112.564 16.6664C112.909 15.7814 113.428 14.9746 114.091 14.294C114.701 13.6141 115.453 13.0765 116.294 12.7191C117.135 12.3616 118.044 12.193 118.958 12.2252C119.845 12.2033 120.726 12.3785 121.538 12.7381C122.349 13.0977 123.071 13.6327 123.651 14.3048C124.324 14.9797 124.856 15.7819 125.216 16.6647C125.575 17.5474 125.755 18.493 125.745 19.4461C125.774 21.4028 125.024 23.2909 123.662 24.6957" fill="#717170"/>
<path fill-rule="evenodd" clip-rule="evenodd" d="M101.591 0.0900879H96.5257V8.32194H79.4266V12.8459H96.5257V30.4866H101.591V12.8459H105.48V8.32194H101.591V0.0900879Z" fill="#717170"/>
<path fill-rule="evenodd" clip-rule="evenodd" d="M165.637 8.6869C165.638 8.67491 165.636 8.66294 165.631 8.65176C165.627 8.64058 165.62 8.63042 165.612 8.62193C165.603 8.61345 165.593 8.60682 165.582 8.60247C165.571 8.59811 165.559 8.59613 165.547 8.59664C164.954 8.26197 164.314 8.01855 163.648 7.87454C162.969 7.6961 162.27 7.60511 161.568 7.60376C160.211 7.60376 159.128 7.96481 158.319 8.6869C157.315 9.33678 156.694 10.4199 156.048 11.8641V8.32585H151.073V30.4869H156.048V20.717C156.048 17.6408 156.409 15.3807 157.225 14.0232C157.857 12.6656 159.03 11.9435 160.835 11.9435C161.395 11.9669 161.946 12.0892 162.464 12.3046C162.967 12.3823 163.438 12.6014 163.821 12.9364L165.54 8.86742L165.637 8.6869Z" fill="#717170"/>
<path fill-rule="evenodd" clip-rule="evenodd" d="M212.317 10.6762C211.632 9.6695 210.696 8.85927 209.602 8.32576C208.275 7.81873 206.863 7.57352 205.443 7.60367C203.721 7.55456 202.013 7.92636 200.467 8.68681C199.034 9.41986 197.84 10.5473 197.027 11.9362V8.32576H192.232V30.4868H197.286V20.4461C197.286 18.547 197.286 17.1967 197.467 16.4746C197.526 15.7299 197.774 15.0127 198.189 14.3913C198.782 13.6492 199.519 13.0351 200.355 12.5861C201.388 12.1565 202.488 11.912 203.605 11.864C205.327 11.864 206.591 12.4056 207.316 13.3082C208.038 14.3011 208.309 16.2904 208.309 19.0849V30.4832H213.364V17.0089C213.364 15.1098 213.364 13.662 213.18 12.8461C213.012 12.0753 212.707 11.3413 212.277 10.6798" fill="#717170"/>
<path fill-rule="evenodd" clip-rule="evenodd" d="M224.892 8.32194V0.0900879H219.917V8.32194H216.115V12.8459H219.917V30.4866H224.892V12.8459H243.345V8.32194H224.892Z" fill="#717170"/>
<path fill-rule="evenodd" clip-rule="evenodd" d="M145.466 7.60013C144.257 7.55421 143.071 7.93795 142.119 8.68327C141.124 9.5071 140.398 10.6099 140.035 11.8496V8.31861H134.981V30.4832H140.035V20.7169C140.035 17.6408 140.396 15.3807 141.119 14.0231C141.44 13.3705 141.945 12.826 142.572 12.4565C143.198 12.0871 143.919 11.9088 144.646 11.9435C145.235 11.9671 145.816 12.0891 146.365 12.3046C146.889 12.3981 147.384 12.6146 147.809 12.9364L149.614 8.68688C148.98 8.28324 148.274 8.00615 147.534 7.87091C146.857 7.68646 146.157 7.59536 145.455 7.60013" fill="#717170"/>
<path fill-rule="evenodd" clip-rule="evenodd" d="M177.126 7.60023H177.035C173.786 7.60023 170.898 8.77724 168.804 11.0374C166.904 12.8426 165.915 15.2003 165.554 17.8973C165.554 18.3522 165.464 18.9804 165.464 19.4353C165.464 20.0708 165.554 20.6123 165.554 21.1539C165.915 24.0423 166.912 26.2086 168.721 28.1221C170.71 30.2017 173.515 31.2885 177.025 31.2885H177.115C179.559 31.2885 181.729 30.8336 183.538 29.6602C185.465 28.4496 187.053 26.7686 188.152 24.7752L183.819 22.3309C183.212 23.6833 182.242 24.8416 181.018 25.6778C179.831 26.3577 178.493 26.73 177.126 26.761H176.945C176.136 26.7876 175.33 26.6403 174.583 26.3288C173.835 26.0174 173.163 25.5492 172.613 24.9557C171.427 23.6376 170.75 21.9403 170.703 20.1683H188.343V19.1718C188.343 15.5613 187.35 12.7488 185.455 10.6691C183.375 8.67976 180.66 7.59302 177.133 7.59302M171.154 16.7383C171.515 15.2003 172.15 13.933 173.147 13.1279C174.322 12.3331 175.7 11.8931 177.118 11.8606C178.608 11.8076 180.074 12.2536 181.281 13.1279C182.34 14.0539 183.017 15.3408 183.18 16.7383H171.154Z" fill="#717170"/>
<path d="M224.892 42.9717H96.5257V47.0407H224.892V42.9717Z" fill="#363678"/>
<path d="M59.977 0H15.0159L0 14.9293V59.8831L15.0159 74.9026H59.977L74.9026 59.8831V14.9293L59.977 0ZM59.977 29.9452H44.9611V44.9611H59.977V59.8831H44.9611V44.9611H29.9416V59.8831H15.0159V44.9611H29.9416V29.9452H15.0159V14.9293H29.9416V29.9452H44.9611V14.9293H59.977V29.9452Z" fill="#363678"/>
</svg>
