<svg width="180" height="75" viewBox="0 0 180 75" fill="none" xmlns="http://www.w3.org/2000/svg">
<path fill-rule="evenodd" clip-rule="evenodd" d="M37.5162 0H142.315C152.255 0.0341857 161.777 3.99785 168.805 11.0261C175.834 18.0544 179.797 27.5768 179.831 37.5162C179.797 47.4526 175.833 56.9718 168.803 63.9949C161.774 71.018 152.252 74.9744 142.315 75H37.5162C27.5798 74.9744 18.0573 71.018 11.0281 63.9949C3.99891 56.9718 0.0342306 47.4526 0 37.5162C0.0341857 27.5768 3.99785 18.0544 11.0261 11.0261C18.0544 3.99785 27.5768 0.0341857 37.5162 0ZM37.5162 6.90663H142.315C150.422 6.93232 158.19 10.1666 163.92 15.9024C169.649 21.6382 172.875 29.4089 172.892 37.5162C172.875 45.6205 169.648 53.388 163.918 59.1186C158.187 64.8492 150.419 68.0762 142.315 68.0934H37.5162C29.4089 68.0763 21.6382 64.8503 15.9024 59.1206C10.1666 53.3909 6.93232 45.6235 6.90663 37.5162C6.93228 29.406 10.1653 21.6351 15.9002 15.9002C21.6351 10.1653 29.406 6.93228 37.5162 6.90663Z" fill="#0061AA"/>
<path fill-rule="evenodd" clip-rule="evenodd" d="M20.6221 20.8176H34.2084C33.5379 21.2878 32.9925 21.9147 32.6196 22.6437C32.2466 23.3728 32.0573 24.1818 32.0684 25.0006V49.7088C32.0601 50.5271 32.2506 51.3352 32.6233 52.0637C32.9961 52.7923 33.5399 53.4195 34.2084 53.8916H20.6221C21.3248 53.3864 21.8873 52.7103 22.2561 51.9274C22.6248 51.1444 22.7879 50.2804 22.7298 49.4169V25.2924C22.791 24.4285 22.6292 23.5634 22.2602 22.7799C21.8912 21.9964 21.3271 21.3207 20.6221 20.8176ZM37.3862 20.8176H47.8271L63.4237 41.3754V26.784C63.4968 25.6936 63.3252 24.6005 62.9212 23.585C62.5173 22.5695 61.8913 21.6573 61.0892 20.915H70.8168C69.3442 22.6162 68.5378 24.7934 68.547 27.0435V55.1238C66.0623 54.7129 63.6866 53.8029 61.5634 52.4487C59.4401 51.0944 57.6132 49.3241 56.1929 47.2444L45.5897 33.2691V46.6933C45.4192 47.9937 45.5245 49.3154 45.8989 50.5725C46.2732 51.8295 46.908 52.9937 47.7622 53.989H38.0345C38.9408 53.1357 39.6311 52.0789 40.0483 50.9061C40.4655 49.7334 40.5976 48.4784 40.434 47.2444V27.7892C40.4098 25.1319 39.3378 22.5916 37.4509 20.7205L37.3862 20.8176ZM74.7726 20.8176H75.7129H99.1241L97.4055 28.4053C96.4003 26.2003 93.8712 25.9084 90.6611 26.4921V47.3416C90.5721 48.5478 90.7239 49.7597 91.108 50.9065C91.4921 52.0534 92.1009 53.1121 92.8985 54.0212H79.2473C79.903 53.4624 80.4349 52.7729 80.809 51.9968C81.1831 51.2207 81.3911 50.3753 81.4198 49.5143V26.4921C79.9339 26.1791 78.3983 26.188 76.9162 26.518C75.434 26.848 74.0398 27.4915 72.8272 28.4053L74.7726 20.688V20.8176ZM107.198 20.8176H119.422L129.961 49.4169C130.807 51.1524 131.999 52.6971 133.463 53.9565H118.19C118.673 53.7435 119.106 53.432 119.462 53.042C119.818 52.652 120.089 52.192 120.256 51.6915C120.424 51.1909 120.486 50.661 120.437 50.1353C120.388 49.6096 120.231 49.0999 119.974 48.6387L118.32 43.8398H108.333L106.485 49.2223C106.139 50.0493 106.103 50.9733 106.383 51.8248C106.663 52.6764 107.24 53.3985 108.009 53.8591H97.6974C98.8809 52.721 99.8188 51.3527 100.453 49.8384L109.014 24.9357C109.254 24.1544 109.221 23.3144 108.921 22.5541C108.62 21.7938 108.07 21.1587 107.36 20.7529L107.198 20.8176ZM109.565 39.2353H116.374L113.132 29.2159L109.662 39.2353H109.565ZM135.278 26.2651C132.587 32.9447 137.094 37.3547 144.552 40.7918C145.711 41.2468 146.801 41.8577 147.795 42.6076C150.162 44.5531 150.583 47.4714 147.795 48.6712C143.968 50.6815 138.067 48.8657 133.754 45.4286L135.441 52.6594C144.455 55.902 155.998 55.2535 158.56 46.8553C161.608 33.5934 146.984 33.6582 144.358 29.6375C142.218 26.3949 146.465 22.2121 155.285 27.238V21.369C147.6 18.5804 137.516 19.3586 135.052 26.1679L135.278 26.2651Z" fill="#0061AA"/>
</svg>
