<svg width="252" height="87" viewBox="0 0 252 87" fill="none" xmlns="http://www.w3.org/2000/svg">
<path d="M102.475 71.7625V86.8696H99.9974V80.2616H92.8895V86.8696H90.4115V71.7625H92.8895V78.2401H99.9974V71.7625H102.475Z" fill="#8F8E93"/>
<path d="M108.216 73.7623V78.1966H113.432V80.2182H108.216V84.8481H114.085V86.8696H105.738V71.7408H114.085V73.7623H108.216Z" fill="#8F8E93"/>
<path d="M126.244 83.783H119.919L118.832 86.8696H116.245L121.658 71.7408H124.527L129.94 86.8696H127.331L126.244 83.783ZM125.549 81.7615L123.093 74.7405L120.615 81.7615H125.549Z" fill="#8F8E93"/>
<path d="M134.771 84.8698H139.879V86.8696H132.293V71.7625H134.771V84.8698Z" fill="#8F8E93"/>
<path d="M151.711 71.7625V73.7841H147.69V86.8696H145.212V73.7841H141.169V71.7625H151.711Z" fill="#8F8E93"/>
<path d="M166.285 71.7625V86.8696H163.807V80.2616H156.699V86.8696H154.221V71.7625H156.699V78.2401H163.807V71.7625H166.285Z" fill="#8F8E93"/>
<path d="M168.721 79.2835C168.721 77.8054 169.062 76.4794 169.743 75.3056C170.438 74.1318 171.373 73.2189 172.547 72.5668C173.735 71.9002 175.032 71.5669 176.438 71.5669C178.046 71.5669 179.473 71.9654 180.72 72.7624C181.98 73.5449 182.893 74.6608 183.459 76.1099H180.481C180.089 75.3129 179.546 74.7187 178.85 74.3275C178.155 73.9362 177.35 73.7406 176.438 73.7406C175.438 73.7406 174.546 73.9652 173.764 74.4144C172.981 74.8636 172.365 75.5085 171.916 76.349C171.482 77.1895 171.264 78.1676 171.264 79.2835C171.264 80.3993 171.482 81.3774 171.916 82.2179C172.365 83.0584 172.981 83.7105 173.764 84.1743C174.546 84.6235 175.438 84.8481 176.438 84.8481C177.35 84.8481 178.155 84.6525 178.85 84.2612C179.546 83.8699 180.089 83.2758 180.481 82.4788H183.459C182.893 83.9279 181.98 85.0437 180.72 85.8263C179.473 86.6088 178.046 87 176.438 87C175.017 87 173.72 86.674 172.547 86.0219C171.373 85.3553 170.438 84.4351 169.743 83.2613C169.062 82.0875 168.721 80.7616 168.721 79.2835Z" fill="#8F8E93"/>
<path d="M195.467 83.783H189.141L188.054 86.8696H185.468L190.88 71.7408H193.75L199.162 86.8696H196.554L195.467 83.783ZM194.771 81.7615L192.315 74.7405L189.837 81.7615H194.771Z" fill="#8F8E93"/>
<path d="M209.362 86.8696L205.884 80.8268H203.993V86.8696H201.515V71.7625H206.732C207.891 71.7625 208.87 71.9654 209.667 72.3712C210.478 72.7769 211.079 73.3203 211.471 74.0014C211.877 74.6825 212.079 75.4433 212.079 76.2838C212.079 77.2692 211.79 78.1676 211.21 78.9792C210.645 79.7762 209.768 80.3196 208.58 80.6094L212.318 86.8696H209.362ZM203.993 78.8487H206.732C207.66 78.8487 208.355 78.6169 208.819 78.1532C209.297 77.6894 209.536 77.0663 209.536 76.2838C209.536 75.5013 209.304 74.8926 208.841 74.4579C208.377 74.0087 207.674 73.7841 206.732 73.7841H203.993V78.8487Z" fill="#8F8E93"/>
<path d="M217.727 73.7623V78.1966H222.944V80.2182H217.727V84.8481H223.596V86.8696H215.249V71.7408H223.596V73.7623H217.727Z" fill="#8F8E93"/>
<path d="M28.1709 37.5883C28.1709 39.6364 27.6878 41.5685 26.7217 43.3848C25.7557 45.201 24.2099 46.6888 22.0846 47.8481C19.9592 48.9687 17.2349 49.529 13.9115 49.529H6.60798V65.8751H0V25.5896H13.9115C17.003 25.5896 19.6114 26.1306 21.7368 27.2126C23.9008 28.2559 25.5045 29.6857 26.5479 31.502C27.6299 33.3182 28.1709 35.347 28.1709 37.5883ZM13.9115 44.1383C16.4233 44.1383 18.2975 43.578 19.5341 42.4573C20.7707 41.298 21.389 39.675 21.389 37.5883C21.389 33.183 18.8965 30.9803 13.9115 30.9803H6.60798V44.1383H13.9115Z" fill="#04A9AD"/>
<path d="M41.0232 25.5896V51.268C41.0232 54.3208 41.8154 56.6201 43.3997 58.1658C45.0228 59.7115 47.2641 60.4844 50.1237 60.4844C53.0219 60.4844 55.2632 59.7115 56.8476 58.1658C58.4706 56.6201 59.2821 54.3208 59.2821 51.268V25.5896H65.8901V51.1521C65.8901 54.4367 65.1752 57.219 63.7454 59.499C62.3156 61.7789 60.4027 63.4793 58.0069 64.5999C55.611 65.7206 52.9639 66.2809 50.0657 66.2809C47.1674 66.2809 44.5204 65.7206 42.1245 64.5999C39.7673 63.4793 37.8931 61.7789 36.5019 59.499C35.1108 57.219 34.4152 54.4367 34.4152 51.1521V25.5896H41.0232Z" fill="#04A9AD"/>
<path d="M107.592 65.8751H100.984L81.1017 35.7914V65.8751H74.4938V25.5316H81.1017L100.984 55.5574V25.5316H107.592V65.8751Z" fill="#04A9AD"/>
<path d="M122.877 25.5896V65.8751H116.269V25.5896H122.877Z" fill="#04A9AD"/>
<path d="M144.827 66.2809C142.122 66.2809 139.687 65.8172 137.523 64.8897C135.359 63.9236 133.659 62.5711 132.422 60.8322C131.186 59.0932 130.567 57.0645 130.567 54.7459H137.639C137.794 56.4848 138.47 57.9146 139.668 59.0353C140.904 60.1559 142.624 60.7163 144.827 60.7163C147.107 60.7163 148.884 60.1753 150.159 59.0932C151.435 57.9726 152.072 56.5428 152.072 54.8038C152.072 53.4513 151.667 52.35 150.855 51.4998C150.082 50.6497 149.097 49.9928 147.899 49.529C146.74 49.0653 145.117 48.563 143.03 48.022C140.402 47.3264 138.257 46.6308 136.596 45.9352C134.973 45.201 133.582 44.0803 132.422 42.5733C131.263 41.0662 130.683 39.0567 130.683 36.5449C130.683 34.2263 131.263 32.1975 132.422 30.4586C133.582 28.7197 135.205 27.3865 137.291 26.459C139.378 25.5316 141.793 25.0679 144.537 25.0679C148.44 25.0679 151.628 26.0533 154.101 28.0241C156.613 29.9562 158.004 32.6226 158.275 36.0232H150.971C150.855 34.5548 150.159 33.2989 148.884 32.2555C147.609 31.2121 145.928 30.6905 143.841 30.6905C141.948 30.6905 140.402 31.1735 139.204 32.1396C138.006 33.1057 137.407 34.4968 137.407 36.3131C137.407 37.5496 137.774 38.5737 138.509 39.3852C139.281 40.1581 140.248 40.7763 141.407 41.2401C142.566 41.7038 144.15 42.2061 146.16 42.7472C148.826 43.4814 150.99 44.2156 152.652 44.9498C154.352 45.684 155.782 46.824 156.941 48.3697C158.139 49.8768 158.738 51.9056 158.738 54.4561C158.738 56.5041 158.178 58.4363 157.057 60.2525C155.975 62.0688 154.372 63.5372 152.246 64.6579C150.159 65.7399 147.686 66.2809 144.827 66.2809Z" fill="#04A9AD"/>
<path d="M188.736 65.8751L173.143 47.8481V65.8751H166.535V25.5896H173.143V43.9644L188.794 25.5896H197.083L179.577 45.7613L197.373 65.8751H188.736Z" fill="#04A9AD"/>
<path d="M227.503 57.6441H210.636L207.737 65.8751H200.84L215.273 25.5316H222.924L237.357 65.8751H230.402L227.503 57.6441ZM225.649 52.2534L219.099 33.5307L212.491 52.2534H225.649Z" fill="#04A9AD"/>
<path d="M231.476 0L232.496 0.630786L234.875 6.62325L237.594 11.9849L239.294 13.2465L244.393 15.7696L251.191 17.9774V18.9236L249.152 19.8697L244.733 21.1313L239.294 23.6545L237.934 23.9699L235.895 20.1851L235.215 19.239L235.555 17.662L237.594 13.2465L235.215 13.8773L232.835 15.4542H231.136L226.037 12.6157L226.717 10.7234L229.096 5.67707L230.796 0.946178L231.476 0Z" fill="#ED008C"/>
<path d="M231.475 21.4463L233.515 22.0771L237.594 23.9694L236.574 26.808L233.515 33.1158L232.155 36.2698L231.136 35.9544L227.396 27.4388L225.697 24.9156V24.2848L231.475 21.4463Z" fill="#ED008C"/>
<path d="M225.017 12.9312H225.697L227.737 16.7159L228.416 17.662L228.076 19.8698L225.357 23.6545L223.318 23.0237L218.559 21.1314L212.44 18.9236L212.78 17.9774L216.519 16.7159L222.638 14.1927L225.017 12.9312Z" fill="#ED008C"/>
</svg>
