<svg width="273" height="75" viewBox="0 0 273 75" fill="none" xmlns="http://www.w3.org/2000/svg">
<path fill-rule="evenodd" clip-rule="evenodd" d="M229.18 6.60132L272.841 41.4427L226.605 71.9507L260.1 45.1759L236.039 25.9165C237.316 19.6363 236.081 13.0281 229.194 6.60132" fill="#0075BB"/>
<path fill-rule="evenodd" clip-rule="evenodd" d="M234.476 29.3984L254.35 45.3223L217.931 74.9999L244.999 47.7367L228.629 34.8343C230.785 33.3969 232.899 32.0431 234.49 29.3984" fill="#4CA12F"/>
<path fill-rule="evenodd" clip-rule="evenodd" d="M44.478 50.8L45.6224 42.4264H42.887L43.1382 40.647H50.5978L50.3605 42.4264H47.8135L46.6831 50.8H44.478Z" fill="#4CA12F"/>
<path d="M46.718 50.8423H44.4292V50.7934L45.5736 42.4686H42.8382V42.4198L43.0964 40.6055H50.6327V40.6543L50.3884 42.4686H47.8484L46.718 50.8423ZM44.5199 50.7585H46.6133L47.7996 42.3849H50.3466L50.5699 40.6892H43.1731L42.915 42.3849H45.7062V42.4267L44.5199 50.7585Z" fill="#4CA12F"/>
<path fill-rule="evenodd" clip-rule="evenodd" d="M53.0261 43.7801C53.9964 43.7289 54.9481 44.0596 55.6778 44.7012C56.0095 45.0182 56.269 45.4028 56.4388 45.8291C56.6086 46.2553 56.6846 46.7131 56.6617 47.1714C56.6787 47.693 56.5835 48.2121 56.3824 48.6937C56.1814 49.1752 55.8792 49.608 55.4964 49.9626C55.0965 50.3357 54.6267 50.6259 54.1141 50.8163C53.6015 51.0068 53.0562 51.0937 52.5098 51.0721C51.5504 51.1207 50.6104 50.7899 49.893 50.151C49.5699 49.837 49.3166 49.4585 49.1495 49.0401C48.9824 48.6217 48.9052 48.1728 48.923 47.7226C48.9053 47.195 48.9986 46.6695 49.197 46.1803C49.3953 45.691 49.6943 45.2489 50.0744 44.8826C50.4666 44.5091 50.9302 44.2189 51.4375 44.0295C51.9448 43.84 52.4852 43.7551 53.0261 43.7801ZM53.0261 45.5664C52.7556 45.5574 52.4862 45.6049 52.2351 45.7058C51.984 45.8067 51.7567 45.9589 51.5677 46.1526C51.1883 46.5829 50.9885 47.1424 51.0095 47.7157C50.9924 48.1383 51.14 48.5511 51.4212 48.867C51.5725 49.0106 51.7512 49.1223 51.9466 49.1954C52.142 49.2685 52.3502 49.3016 52.5586 49.2927C52.8279 49.3008 53.096 49.2528 53.3458 49.1519C53.5957 49.051 53.8218 48.8994 54.01 48.7066C54.2008 48.5034 54.349 48.2642 54.446 48.0029C54.5431 47.7417 54.587 47.4638 54.5753 47.1853C54.5906 46.9711 54.5619 46.756 54.4911 46.5532C54.4203 46.3504 54.3089 46.1642 54.1635 46.0061C54.0148 45.8579 53.8369 45.7424 53.641 45.6667C53.4452 45.591 53.2358 45.5569 53.0261 45.5664Z" fill="#4CA12F"/>
<path d="M52.5098 51.1144C51.5485 51.1584 50.6086 50.8226 49.893 50.1793C49.5656 49.862 49.3088 49.4793 49.1393 49.056C48.9698 48.6328 48.8913 48.1786 48.9091 47.723C48.8918 47.1907 48.9859 46.6606 49.1853 46.1667C49.3848 45.6728 49.6853 45.2261 50.0674 44.8551C50.4598 44.4826 50.922 44.1916 51.4274 43.9988C51.9328 43.8059 52.4715 43.7151 53.0122 43.7316C53.9938 43.6769 54.9572 44.0131 55.6917 44.6667C56.0274 44.9872 56.2902 45.3762 56.4624 45.8072C56.6346 46.2382 56.712 46.7012 56.6896 47.1648C56.7063 47.6938 56.6098 48.2203 56.4064 48.7089C56.203 49.1975 55.8975 49.637 55.5103 49.9979C55.1062 50.3734 54.6318 50.6654 54.1145 50.857C53.5971 51.0486 53.047 51.1361 52.4958 51.1144M53.0261 43.8153C52.4945 43.7935 51.964 43.8793 51.4664 44.0675C50.9687 44.2558 50.5143 44.5426 50.1302 44.9109C49.7581 45.2723 49.4649 45.7069 49.2691 46.1873C49.0733 46.6678 48.9793 47.1835 48.9928 47.7021C48.9742 48.1459 49.0498 48.5887 49.2146 49.0012C49.3793 49.4137 49.6296 49.7867 49.9488 50.0956C50.6498 50.724 51.5693 51.0522 52.5098 51.0097C53.0507 51.0366 53.5916 50.9555 54.1008 50.771C54.61 50.5865 55.0773 50.3023 55.4754 49.9351C55.8572 49.5803 56.1578 49.1472 56.3565 48.6655C56.5552 48.1837 56.6474 47.6646 56.6268 47.1439C56.6511 46.6909 56.577 46.238 56.4096 45.8164C56.2422 45.3948 55.9853 45.0144 55.6568 44.7016C54.9398 44.0682 54.0024 43.7423 53.0471 43.7944M52.5795 49.3001C52.3663 49.3091 52.1534 49.2755 51.9533 49.2012C51.7532 49.1269 51.5699 49.0134 51.4142 48.8674C51.1262 48.5435 50.9738 48.1213 50.9885 47.6882C50.9671 47.1039 51.1721 46.5339 51.5607 46.0972C51.7525 45.8984 51.9839 45.7423 52.24 45.6389C52.4961 45.5355 52.7711 45.4872 53.0471 45.4971C53.2628 45.4876 53.4781 45.5237 53.6789 45.603C53.8797 45.6824 54.0615 45.8032 54.2124 45.9576C54.3615 46.1192 54.4756 46.3098 54.5476 46.5175C54.6197 46.7253 54.6481 46.9456 54.6311 47.1648C54.6429 47.4464 54.5991 47.7276 54.5021 47.9922C54.4051 48.2568 54.2569 48.4997 54.0659 48.707C53.8727 48.9034 53.6408 49.0575 53.385 49.1596C53.1291 49.2617 52.8548 49.3096 52.5795 49.3001ZM53.0471 45.5808C52.7876 45.5753 52.5298 45.6233 52.2897 45.7217C52.0496 45.8202 51.8324 45.967 51.6515 46.153C51.277 46.5747 51.0795 47.1246 51.1002 47.6882C51.083 48.0991 51.2284 48.5002 51.5049 48.8046C51.6499 48.9466 51.8227 49.0571 52.0124 49.1292C52.2022 49.2012 52.4047 49.2333 52.6074 49.2233C52.8669 49.2292 53.1249 49.1814 53.365 49.083C53.6052 48.9845 53.8224 48.8375 54.0031 48.6511C54.3745 48.2471 54.5725 47.7134 54.5543 47.1648C54.5696 46.9554 54.5415 46.7451 54.4719 46.547C54.4022 46.3489 54.2925 46.1672 54.1496 46.0134C54.0071 45.8671 53.8351 45.7529 53.645 45.6783C53.4548 45.6037 53.251 45.5704 53.0471 45.5808Z" fill="#4CA12F"/>
<path fill-rule="evenodd" clip-rule="evenodd" d="M60.5624 43.9965L60.1786 46.8435C60.1786 46.9273 60.1786 47.0389 60.1367 47.1994C60.0784 47.4892 60.0434 47.7832 60.0321 48.0786C60.0164 48.421 60.134 48.7561 60.36 49.0137C60.6201 49.2402 60.9576 49.3577 61.3021 49.3417C61.5384 49.3582 61.7753 49.3188 61.9935 49.2266C62.2117 49.1345 62.4052 48.9922 62.5581 48.8113C62.9135 48.1668 63.1231 47.4522 63.1722 46.7179L63.542 43.9895H65.5726L65.1609 46.9621C65.0848 47.6735 64.9352 48.3751 64.7143 49.0556C64.561 49.4656 64.3233 49.8388 64.0165 50.1511C63.6819 50.4708 63.2785 50.7095 62.8373 50.8489C62.3314 51.0184 61.8006 51.101 61.2672 51.0931C60.4159 51.1356 59.5751 50.8898 58.8807 50.3953C58.5976 50.184 58.3698 49.9074 58.2168 49.5891C58.0637 49.2708 57.9898 48.9201 58.0015 48.5671C58.0015 48.3787 58.0015 48.1275 58.0433 47.7995C58.0852 47.4715 58.1341 47.0319 58.2038 46.4946L58.5458 44.0035H60.5764" fill="#4CA12F"/>
<path d="M61.2532 51.1142C60.3957 51.1539 59.5492 50.9085 58.8458 50.4164C58.5566 50.2015 58.3236 49.9198 58.1669 49.5954C58.0101 49.271 57.9342 48.9134 57.9456 48.5533C57.9456 48.3672 57.9596 48.109 57.9875 47.7787C58.0224 47.4438 58.0782 46.9902 58.148 46.4738L58.4969 43.9548H60.5903L60.2065 46.8367V46.9623V47.1926C60.1534 47.483 60.1208 47.7768 60.1088 48.0718C60.0904 48.4025 60.2004 48.7275 60.4159 48.9789C60.6691 49.1968 60.9963 49.3091 61.33 49.2929C61.5593 49.3109 61.7897 49.2741 62.002 49.1855C62.2143 49.0969 62.4025 48.9592 62.5511 48.7836C62.9036 48.1383 63.1108 47.4238 63.1582 46.6901L63.5351 43.8989H65.6285V43.9408L65.2168 46.9134C65.1391 47.624 64.9919 48.3251 64.7771 49.0069C64.6241 49.4211 64.3864 49.799 64.0793 50.1164C63.7389 50.4355 63.3311 50.674 62.8861 50.8142C62.3751 50.9822 61.8399 51.0648 61.3021 51.0584M58.6155 43.9827L58.2666 46.4878C58.1968 47.0111 58.134 47.4647 58.1061 47.7996C58.0782 48.1346 58.0643 48.3719 58.0643 48.5603C58.0532 48.9078 58.126 49.2529 58.2767 49.5663C58.4273 49.8797 58.6512 50.1521 58.9295 50.3606C59.6167 50.848 60.4463 51.0935 61.2881 51.0584C61.8164 51.0668 62.3424 50.9866 62.8442 50.8211C63.2808 50.6804 63.6794 50.4418 64.0096 50.1233C64.3156 49.8159 64.5534 49.4473 64.7074 49.0417C64.918 48.3732 65.0652 47.6863 65.147 46.9902L65.5517 44.0664H63.5699L63.2071 46.7599C63.1543 47.4954 62.9399 48.2103 62.5791 48.8533C62.4232 49.0386 62.2254 49.184 62.0021 49.2774C61.7788 49.3709 61.5364 49.4097 61.2951 49.3906C60.9404 49.4106 60.592 49.2903 60.3251 49.0557C60.091 48.7914 59.9706 48.4453 59.9902 48.0927C60.0016 47.7927 60.0366 47.4941 60.0949 47.1995V46.9693V46.8576L60.4717 44.0664L58.6155 43.9827Z" fill="#4CA12F"/>
<path fill-rule="evenodd" clip-rule="evenodd" d="M72.5228 46.2018C72.2547 45.9812 71.9562 45.8002 71.6366 45.6645C71.3678 45.5486 71.078 45.4892 70.7852 45.4901C70.4941 45.477 70.2035 45.5249 69.9319 45.6306C69.6603 45.7364 69.4139 45.8976 69.2082 46.1041C69.0061 46.3181 68.8489 46.5703 68.7459 46.8459C68.6428 47.1216 68.596 47.4151 68.6081 47.7091C68.597 47.9337 68.635 48.158 68.7193 48.3665C68.8037 48.575 68.9324 48.7626 69.0966 48.9163C69.4618 49.2198 69.927 49.3765 70.4015 49.3559C70.7166 49.3568 71.03 49.3073 71.3295 49.2094C71.6962 49.1086 72.0516 48.9707 72.3902 48.7977L72.0483 50.6748C71.76 50.8131 71.4551 50.914 71.1411 50.9748C70.8013 51.0439 70.4551 51.0767 70.1084 51.0725C69.1555 51.122 68.2212 50.7963 67.5056 50.1654C67.18 49.8503 66.9252 49.4696 66.758 49.0485C66.5907 48.6274 66.5149 48.1756 66.5356 47.723C66.5187 47.1961 66.6117 46.6715 66.8088 46.1825C67.0058 45.6935 67.3025 45.251 67.68 44.883C68.0644 44.5123 68.5196 44.2231 69.0184 44.0324C69.5172 43.8418 70.0493 43.7537 70.5829 43.7735C71.02 43.7671 71.4554 43.8283 71.8738 43.9549C72.283 44.0723 72.6681 44.2613 73.0112 44.5131L72.5228 46.2018Z" fill="#4CA12F"/>
<path d="M70.1293 51.1141C69.166 51.1611 68.2222 50.8307 67.4986 50.193C67.1698 49.8738 66.9122 49.4887 66.7426 49.063C66.5731 48.6373 66.4954 48.1806 66.5147 47.7227C66.4974 47.1904 66.5915 46.6603 66.791 46.1664C66.9904 45.6725 67.2909 45.2258 67.6731 44.8548C68.0605 44.4795 68.5199 44.1865 69.0236 43.9934C69.5273 43.8004 70.0648 43.7112 70.6038 43.7313C71.0437 43.7255 71.4817 43.7891 71.9017 43.9197C72.3132 44.0367 72.7006 44.2257 73.0461 44.478L72.5437 46.2294H72.4949C72.2312 46.0098 71.9375 45.8288 71.6226 45.6921C71.3574 45.5812 71.0727 45.5243 70.7853 45.5247C70.5006 45.5121 70.2165 45.559 69.951 45.6623C69.6855 45.7657 69.4444 45.9231 69.2431 46.1248C69.0413 46.3314 68.8844 46.5776 68.7823 46.8478C68.6802 47.118 68.6352 47.4064 68.65 47.6948C68.6385 47.9135 68.6743 48.132 68.7549 48.3355C68.8356 48.5391 68.9593 48.7228 69.1175 48.8741C69.4757 49.175 69.9343 49.3295 70.4015 49.3068C70.7113 49.3048 71.0193 49.2578 71.3156 49.1672C71.6786 49.0624 72.0313 48.9246 72.3693 48.7555H72.446L72.0902 50.7303C71.7981 50.873 71.4883 50.9763 71.1691 51.0373C70.8267 51.1049 70.4783 51.1377 70.1293 51.135M70.6108 43.836C70.0827 43.8173 69.5563 43.9047 69.0625 44.0929C68.5687 44.281 68.1176 44.5662 67.7359 44.9315C67.3646 45.2933 67.0725 45.7281 66.8779 46.2086C66.6833 46.689 66.5905 47.2046 66.6054 47.7227C66.5825 48.1691 66.6561 48.6152 66.821 49.0306C66.986 49.4461 67.2385 49.8211 67.5614 50.1302C68.268 50.757 69.1931 51.0803 70.1363 51.0303C70.4784 51.0331 70.8198 51.0003 71.1551 50.9326C71.4618 50.8767 71.7598 50.7805 72.0413 50.6465L72.3623 48.8741C72.0432 49.0274 71.7117 49.1535 71.3714 49.2509C71.0663 49.345 70.7487 49.392 70.4294 49.3905C69.945 49.4128 69.4697 49.2535 69.0966 48.9439C68.9275 48.7859 68.795 48.5928 68.7082 48.3783C68.6215 48.1638 68.5825 47.9329 68.5942 47.7018C68.5818 47.4034 68.6299 47.1056 68.7354 46.8262C68.8409 46.5469 69.0017 46.2917 69.2082 46.0759C69.4151 45.8642 69.6644 45.6988 69.9399 45.5905C70.2153 45.4823 70.5106 45.4337 70.8062 45.4479C71.1077 45.4498 71.4061 45.509 71.6854 45.6223C71.9872 45.756 72.2708 45.9272 72.5298 46.1317L72.9903 44.5268C72.6577 44.2852 72.2842 44.1055 71.8878 43.9965C71.4763 43.8711 71.0479 43.8099 70.6178 43.815" fill="#4CA12F"/>
<path fill-rule="evenodd" clip-rule="evenodd" d="M73.5206 50.8004L74.993 40.0542H77.0097L76.4654 44.0735C76.442 44.2501 76.407 44.4249 76.3607 44.5969C76.3346 44.7393 76.29 44.8777 76.2281 45.0086C76.5809 44.6259 76.9992 44.3093 77.4632 44.0735C77.8764 43.8734 78.33 43.7708 78.7891 43.7735C79.428 43.7281 80.0614 43.9194 80.5685 44.3108C80.782 44.4972 80.9502 44.7298 81.0602 44.991C81.1702 45.2522 81.2192 45.5351 81.2035 45.8181C81.1883 46.2317 81.1486 46.6442 81.0848 47.0532V47.1997L80.5964 50.8004H78.5658L79.0821 47.0113C79.0821 46.8648 79.0821 46.7531 79.0821 46.6554V46.4112C79.0921 46.274 79.0723 46.1362 79.0241 46.0074C78.9759 45.8785 78.9005 45.7616 78.803 45.6645C78.581 45.4793 78.296 45.3868 78.0075 45.4064C77.7536 45.3916 77.4993 45.4278 77.2596 45.5129C77.0199 45.598 76.7997 45.7302 76.6119 45.9018C76.2466 46.3457 76.0273 46.8916 75.9839 47.4649L75.5233 50.8004H73.4927" fill="#4CA12F"/>
<path d="M80.5964 50.8422H78.503L79.0193 47.0043V46.7949V46.6554V46.4111C79.0229 46.2825 79.0006 46.1545 78.9539 46.0347C78.9071 45.9148 78.8369 45.8056 78.7472 45.7133C78.5313 45.538 78.2571 45.4508 77.9796 45.4691C77.7334 45.4565 77.4871 45.4926 77.2548 45.5752C77.0226 45.6578 76.8088 45.7854 76.6259 45.9506C76.267 46.3896 76.0504 46.9275 76.0048 47.4927L75.5512 50.8631H73.4578V50.8143L74.9372 40.0332H77.0306L76.4793 44.0944C76.4545 44.2753 76.4196 44.4547 76.3746 44.6317L76.3118 44.862C76.6378 44.5367 77.0121 44.2636 77.4214 44.0526C77.84 43.854 78.2978 43.7515 78.7611 43.7525C79.4108 43.7081 80.0541 43.9043 80.5685 44.3038C80.7863 44.4934 80.958 44.7303 81.0704 44.9963C81.1829 45.2623 81.2332 45.5505 81.2174 45.8389C81.2011 46.2548 81.1614 46.6695 81.0988 47.081V47.2276L80.5964 50.8422ZM78.5797 50.7584H80.5266L81.0081 47.1927V47.0461C81.0709 46.6393 81.1105 46.2293 81.1267 45.818C81.1423 45.5421 81.0951 45.2663 80.9887 45.0113C80.8824 44.7563 80.7196 44.5287 80.5126 44.3456C80.0122 43.9627 79.3899 43.7742 78.7611 43.8153C78.3073 43.812 77.8586 43.9123 77.4493 44.1084C76.9901 44.3457 76.5748 44.6596 76.2211 45.0365L76.1583 44.9876C76.2171 44.8603 76.2615 44.7269 76.2909 44.5899C76.3361 44.418 76.3687 44.2431 76.3886 44.0665L76.9259 40.089H75.0139L73.5695 50.7584H75.5164L75.9699 47.4578C76.0166 46.8765 76.2407 46.3236 76.6119 45.8738C76.9923 45.5275 77.4935 45.3446 78.0075 45.3644C78.3054 45.3474 78.599 45.4419 78.8309 45.6296C78.9329 45.7312 79.0119 45.8536 79.0624 45.9885C79.113 46.1233 79.134 46.2675 79.124 46.4111V46.6554V46.8089V47.0112L78.5797 50.7584Z" fill="#4CA12F"/>
<path fill-rule="evenodd" clip-rule="evenodd" d="M82.5572 50.8003L83.4713 43.9967H85.481L84.5669 50.8003H82.5363M83.6109 41.3729C83.6087 41.219 83.6387 41.0663 83.6987 40.9245C83.7588 40.7828 83.8477 40.6551 83.9598 40.5495C84.1868 40.3328 84.4904 40.2149 84.8041 40.2216C84.9585 40.2176 85.1122 40.2447 85.256 40.301C85.3998 40.3573 85.5309 40.4418 85.6415 40.5495C85.7536 40.6551 85.8425 40.7828 85.9026 40.9245C85.9627 41.0663 85.9926 41.219 85.9904 41.3729C85.9924 41.5248 85.9623 41.6754 85.9022 41.8148C85.8421 41.9543 85.7532 42.0795 85.6415 42.1824C85.4162 42.4011 85.1146 42.5234 84.8007 42.5234C84.4867 42.5234 84.1851 42.4011 83.9598 42.1824C83.847 42.0804 83.7575 41.9553 83.6973 41.8156C83.6371 41.676 83.6076 41.525 83.6109 41.3729Z" fill="#4CA12F"/>
<path d="M84.6227 50.8423H82.5293V50.7935L83.4504 43.962H85.5438V44.0039L84.6227 50.8423ZM82.6061 50.7586H84.5529L85.4531 44.0387H83.5062L82.6061 50.7586ZM84.8251 42.5664C84.6631 42.5698 84.5021 42.5399 84.3521 42.4787C84.2021 42.4175 84.0662 42.3262 83.9528 42.2105C83.8357 42.1052 83.7427 41.9759 83.68 41.8314C83.6174 41.6869 83.5867 41.5306 83.59 41.3731C83.5871 41.2147 83.6179 41.0575 83.6805 40.9119C83.7431 40.7663 83.8359 40.6357 83.9528 40.5288C84.0689 40.4181 84.2057 40.3315 84.3554 40.2741C84.5051 40.2166 84.6648 40.1893 84.8251 40.1938C84.9843 40.1895 85.1428 40.2168 85.2914 40.2743C85.4399 40.3318 85.5756 40.4183 85.6904 40.5288C85.8071 40.6373 85.8998 40.7692 85.9623 40.9159C86.0248 41.0625 86.0558 41.2207 86.0532 41.3801C86.0551 41.5374 86.0238 41.6933 85.9612 41.8376C85.8987 41.9819 85.8064 42.1113 85.6904 42.2175C85.5785 42.3334 85.4439 42.4248 85.295 42.4861C85.1461 42.5473 84.9861 42.577 84.8251 42.5734M83.6737 41.3871C83.6705 41.5327 83.6988 41.6773 83.7566 41.811C83.8144 41.9446 83.9004 42.0643 84.0086 42.1616C84.1152 42.2691 84.2426 42.3536 84.383 42.41C84.5234 42.4664 84.6738 42.4935 84.8251 42.4896C84.9742 42.4933 85.1225 42.466 85.2606 42.4096C85.3987 42.3531 85.5236 42.2687 85.6275 42.1616C85.7371 42.0616 85.8247 41.9398 85.8846 41.8041C85.9445 41.6683 85.9754 41.5215 85.9754 41.3731C85.9754 41.2247 85.9445 41.078 85.8846 40.9422C85.8247 40.8064 85.7371 40.6847 85.6275 40.5846C85.522 40.4807 85.3964 40.3994 85.2585 40.3454C85.1206 40.2914 84.9731 40.266 84.8251 40.2706C84.5225 40.2653 84.2297 40.3779 84.0086 40.5846C83.9009 40.6869 83.8154 40.8103 83.7578 40.9473C83.7001 41.0842 83.6715 41.2316 83.6737 41.3801V41.3871Z" fill="#4CA12F"/>
<path fill-rule="evenodd" clip-rule="evenodd" d="M86.5905 50.8003L87.5116 43.9967H89.3957L89.2352 45.0643C89.6038 44.6673 90.0382 44.3368 90.5192 44.0874C90.9317 43.8772 91.3889 43.7695 91.852 43.7734C92.4909 43.7281 93.1243 43.9193 93.6314 44.3107C93.8461 44.4961 94.0152 44.7286 94.1253 44.99C94.2354 45.2514 94.2837 45.5348 94.2664 45.818C94.2511 46.2316 94.2115 46.6441 94.1477 47.0531V47.1996L93.6662 50.8003H91.6356L92.145 47.0112C92.1648 46.8935 92.1764 46.7746 92.1799 46.6553V46.4111C92.1885 46.274 92.1681 46.1367 92.12 46.008C92.0719 45.8794 91.9972 45.7623 91.9008 45.6644C91.6774 45.4817 91.3935 45.3896 91.1053 45.4063C90.8513 45.3907 90.5968 45.4265 90.357 45.5117C90.1172 45.5968 89.897 45.7295 89.7097 45.9017C89.3419 46.3447 89.1201 46.8907 89.0747 47.4648L88.6211 50.8003H86.5905Z" fill="#4CA12F"/>
<path d="M93.6732 50.8416H91.5798L92.0962 47.0037V46.7944V46.6548V46.4106C92.1027 46.2816 92.0818 46.1528 92.0349 46.0325C91.988 45.9122 91.9161 45.8033 91.8241 45.7128C91.6113 45.5367 91.339 45.4492 91.0635 45.4685C90.8172 45.4556 90.5708 45.4915 90.3385 45.5741C90.1062 45.6567 89.8925 45.7845 89.7097 45.95C89.3457 46.386 89.1284 46.9256 89.0887 47.4922L88.6281 50.8626H86.5347L87.4698 43.9822H89.4376L89.291 44.9661C89.6364 44.6012 90.0425 44.2989 90.4912 44.0729C90.9099 43.858 91.3744 43.7479 91.845 43.7519C92.4948 43.7069 93.1383 43.9032 93.6523 44.3032C93.8714 44.4918 94.044 44.7285 94.1565 44.9948C94.2691 45.2611 94.3186 45.5498 94.3013 45.8384C94.2852 46.2543 94.2456 46.669 94.1826 47.0805V47.227L93.6732 50.8416ZM91.6496 50.7579H93.6035L94.078 47.1921V47.0456C94.1414 46.6389 94.181 46.2288 94.1966 45.8174C94.2122 45.5416 94.165 45.2658 94.0586 45.0108C93.9523 44.7557 93.7895 44.5281 93.5825 44.3451C93.0833 43.9598 92.4601 43.7711 91.831 43.8147C91.3708 43.8087 90.9159 43.914 90.5052 44.1218C90.0304 44.3714 89.601 44.6993 89.2352 45.0917H89.1654L89.3189 44.0729H87.5744L86.6324 50.7579H88.5862L89.0328 47.4573C89.0776 46.8768 89.2992 46.3239 89.6678 45.8733C90.0498 45.5296 90.5499 45.347 91.0635 45.3639C91.3612 45.3482 91.6542 45.4426 91.8869 45.629C91.9865 45.7321 92.0635 45.8549 92.1127 45.9895C92.162 46.1241 92.1825 46.2675 92.173 46.4106V46.6548V46.8083V47.0107L91.6496 50.7579Z" fill="#4CA12F"/>
<path fill-rule="evenodd" clip-rule="evenodd" d="M101.405 43.9969H103.373L102.626 49.5793V49.7956C102.417 51.3308 102.124 52.3217 101.754 52.7753C101.43 53.1666 101.002 53.4571 100.519 53.6126C99.9116 53.8135 99.2738 53.9056 98.6346 53.8848C97.794 53.9364 96.958 53.7268 96.2412 53.2847C95.955 53.0683 95.7186 52.7932 95.5477 52.4779C95.3767 52.1625 95.2753 51.8142 95.2503 51.4564L97.1274 51.2889C97.186 51.6221 97.3678 51.9211 97.6368 52.1263C97.9579 52.3138 98.3258 52.4058 98.6974 52.3915C98.9606 52.4123 99.2249 52.3692 99.4679 52.2659C99.7109 52.1627 99.9253 52.0023 100.093 51.7984C100.461 51.1639 100.64 50.4377 100.609 49.7049C100.363 50.041 100.04 50.3136 99.6674 50.5004C99.2648 50.6753 98.8292 50.761 98.3904 50.7516C98.0041 50.7724 97.6177 50.711 97.2568 50.5715C96.896 50.432 96.5688 50.2175 96.297 49.9422C95.7659 49.2994 95.499 48.4787 95.5503 47.6464C95.5112 46.6189 95.8514 45.613 96.5063 44.8203C96.8031 44.4674 97.1755 44.1858 97.5958 43.9961C98.0161 43.8065 98.4737 43.7138 98.9347 43.7248C99.4012 43.7148 99.8633 43.8177 100.281 44.0248C100.686 44.221 101.029 44.5253 101.272 44.904L101.419 43.9481M101.035 46.8649C101.056 46.6482 101.03 46.4294 100.957 46.2242C100.884 46.019 100.767 45.8325 100.613 45.6778C100.46 45.5232 100.275 45.4043 100.07 45.3297C99.8655 45.255 99.647 45.2264 99.4301 45.246C99.1676 45.2314 98.9052 45.2772 98.6633 45.3801C98.4213 45.4829 98.2062 45.64 98.0345 45.8391C97.6635 46.3155 97.4798 46.9112 97.5181 47.5138C97.5081 47.7254 97.5441 47.9367 97.6236 48.1331C97.7031 48.3294 97.8243 48.5062 97.9787 48.6512C98.1335 48.801 98.3174 48.9173 98.5191 48.993C98.7208 49.0686 98.9359 49.1019 99.151 49.0909C99.4152 49.1082 99.6797 49.0622 99.9224 48.9566C100.165 48.851 100.379 48.6889 100.547 48.4838C100.906 48.0235 101.085 47.4477 101.049 46.8649" fill="#4CA12F"/>
<path d="M98.6067 53.9402C97.7566 53.9888 96.9119 53.777 96.1853 53.3331C95.9011 53.1124 95.6666 52.8343 95.497 52.5169C95.3275 52.1995 95.2268 51.8499 95.2014 51.4909V51.456H95.2503L97.1553 51.2816V51.3165C97.2133 51.6407 97.3899 51.9317 97.6507 52.1329C97.9666 52.3138 98.3266 52.4032 98.6904 52.3911C98.9527 52.4159 99.217 52.3761 99.4603 52.2752C99.7036 52.1742 99.9185 52.0151 100.086 51.8119C100.424 51.2299 100.596 50.566 100.581 49.8929C100.343 50.1845 100.046 50.4224 99.7092 50.5907C99.3006 50.7706 98.8576 50.8587 98.4113 50.8489C98.0151 50.8724 97.6185 50.8111 97.2479 50.6691C96.8773 50.5271 96.5412 50.3077 96.2621 50.0255C95.7229 49.3755 95.451 48.5448 95.5015 47.7018C95.4626 46.6647 95.8052 45.6494 96.4645 44.8478C96.7672 44.492 97.1453 44.2079 97.5713 44.016C97.9973 43.8241 98.4606 43.7293 98.9277 43.7383C99.4112 43.7228 99.891 43.8283 100.323 44.0454C100.7 44.2294 101.024 44.5054 101.265 44.8478L101.405 43.9686H103.456V44.0105L102.71 49.5929V49.8022C102.507 51.3304 102.214 52.3422 101.838 52.8098C101.506 53.2041 101.071 53.4987 100.581 53.6611C99.9692 53.8606 99.3271 53.9527 98.6835 53.9332M95.3619 51.5119C95.3898 51.8537 95.4886 52.1859 95.652 52.4875C95.8154 52.789 96.0398 53.0533 96.3109 53.2633C97.0234 53.6964 97.8513 53.901 98.6835 53.8495C99.3174 53.868 99.9498 53.7783 100.554 53.5843C101.03 53.427 101.453 53.1394 101.775 52.7539C102.287 51.8478 102.581 50.8348 102.633 49.7953V49.5789L103.38 44.0314H101.489L101.342 44.9525H101.272C101.033 44.5822 100.698 44.2833 100.302 44.0872C99.8872 43.8865 99.4307 43.7861 98.9696 43.7941C98.5148 43.7843 98.0636 43.8756 97.6485 44.0614C97.2333 44.2473 96.8647 44.523 96.5691 44.8688C95.9248 45.6533 95.5876 46.6453 95.6201 47.66C95.5749 48.4839 95.8387 49.295 96.3598 49.9348C96.6334 50.2064 96.9614 50.417 97.3222 50.5529C97.683 50.6887 98.0684 50.7468 98.4532 50.7233C98.8874 50.732 99.3183 50.6463 99.7162 50.4721C100.082 50.2897 100.398 50.0216 100.637 49.6906H100.714C100.742 50.4239 100.56 51.15 100.191 51.784C100.017 51.9982 99.7926 52.1662 99.5383 52.2733C99.2839 52.3804 99.0071 52.4232 98.7323 52.3981C98.3522 52.4135 97.9759 52.3164 97.6507 52.1189C97.379 51.92 97.1921 51.626 97.1274 51.2955L95.3619 51.5119ZM99.2277 49.1742C99.0063 49.1841 98.7852 49.149 98.5777 49.0711C98.3702 48.9931 98.1807 48.8739 98.0206 48.7206C97.8642 48.5709 97.7416 48.3894 97.6609 48.1885C97.5803 47.9875 97.5435 47.7716 97.553 47.5553C97.5076 46.9542 97.6811 46.3569 98.0415 45.8736C98.2135 45.6739 98.4283 45.5157 98.6699 45.4105C98.9115 45.3054 99.1738 45.2562 99.4371 45.2665C99.6595 45.2471 99.8834 45.2768 100.093 45.3536C100.303 45.4304 100.493 45.5523 100.65 45.7108C100.807 45.8693 100.927 46.0605 101.002 46.2707C101.077 46.4809 101.105 46.7051 101.084 46.9273C101.112 47.5082 100.931 48.08 100.575 48.5392C100.406 48.7439 100.192 48.9065 99.9499 49.0143C99.7077 49.1221 99.4438 49.172 99.1789 49.1603M99.4441 45.3084C99.1897 45.2963 98.9359 45.3428 98.7024 45.4445C98.4688 45.5461 98.2618 45.7001 98.0973 45.8945C97.7312 46.3624 97.55 46.9485 97.5879 47.5413C97.5775 47.747 97.6113 47.9525 97.6871 48.1439C97.763 48.3353 97.8791 48.5082 98.0275 48.6509C98.1806 48.7962 98.3615 48.9088 98.5595 48.982C98.7574 49.0552 98.9682 49.0873 99.1789 49.0765C99.433 49.0888 99.6864 49.0416 99.9191 48.9387C100.152 48.8357 100.357 48.6798 100.519 48.4834C100.869 48.03 101.043 47.4645 101.007 46.8924V46.8505C101.019 46.6451 100.988 46.4394 100.918 46.2462C100.847 46.053 100.737 45.8763 100.595 45.7271C100.442 45.5833 100.26 45.4722 100.062 45.4002C99.8646 45.3283 99.6543 45.297 99.4441 45.3084Z" fill="#4CA12F"/>
<path fill-rule="evenodd" clip-rule="evenodd" d="M108.878 50.8L110.26 40.647H112.465L111.321 48.9997H114.97L114.719 50.8H108.878Z" fill="#4CA12F"/>
<path d="M114.789 50.8423H108.864V50.7934L110.26 40.6055H112.549V40.6543L111.411 48.9582H115.061V49.0001L114.789 50.8423ZM108.927 50.7585H114.684L114.921 49.0419H111.3V48.9931L112.444 40.6892H110.316L108.927 50.7585Z" fill="#4CA12F"/>
<path fill-rule="evenodd" clip-rule="evenodd" d="M115.954 50.8004L116.868 43.9968H118.899L117.985 50.8004H115.954ZM117.029 41.3731C117.027 41.2185 117.057 41.0652 117.119 40.9233C117.18 40.7814 117.271 40.6541 117.385 40.5497C117.496 40.4426 117.627 40.3585 117.771 40.3022C117.914 40.2459 118.068 40.2186 118.222 40.2217C118.376 40.217 118.53 40.2436 118.674 40.3C118.818 40.3564 118.949 40.4413 119.059 40.5497C119.171 40.6542 119.261 40.7806 119.322 40.921C119.383 41.0615 119.414 41.213 119.414 41.3661C119.414 41.5193 119.383 41.6708 119.322 41.8112C119.261 41.9517 119.171 42.0781 119.059 42.1826C118.836 42.4025 118.535 42.5257 118.222 42.5257C117.909 42.5257 117.608 42.4025 117.385 42.1826C117.27 42.0818 117.178 41.9571 117.117 41.8173C117.056 41.6774 117.025 41.5258 117.029 41.3731Z" fill="#4CA12F"/>
<path d="M118.02 50.8418H115.926V50.7929L116.847 43.9614H118.941V44.0033L118.02 50.8418ZM116.003 50.758H117.95L118.85 44.0382H116.882L116.003 50.758ZM118.222 42.5658C118.06 42.5692 117.899 42.5394 117.749 42.4782C117.599 42.417 117.463 42.3257 117.35 42.2099C117.233 42.1046 117.14 41.9753 117.077 41.8308C117.014 41.6863 116.984 41.53 116.987 41.3726C116.988 41.2167 117.02 41.0627 117.083 40.9199C117.145 40.7771 117.236 40.6486 117.35 40.5422C117.585 40.32 117.898 40.1996 118.222 40.2072C118.381 40.2029 118.54 40.2302 118.688 40.2877C118.837 40.3452 118.972 40.4317 119.087 40.5422C119.205 40.6504 119.299 40.782 119.362 40.9287C119.426 41.0753 119.458 41.2336 119.457 41.3935C119.458 41.5512 119.425 41.7073 119.361 41.8516C119.298 41.9958 119.204 42.1251 119.087 42.2309C118.976 42.3478 118.842 42.4399 118.693 42.5013C118.544 42.5626 118.383 42.5917 118.222 42.5867M117.071 41.4144C117.071 41.5582 117.101 41.7002 117.16 41.8313C117.219 41.9624 117.305 42.0796 117.413 42.175C117.518 42.2823 117.644 42.3668 117.783 42.4232C117.922 42.4796 118.072 42.5068 118.222 42.503C118.372 42.5064 118.521 42.479 118.661 42.4226C118.8 42.3662 118.926 42.282 119.031 42.175C119.139 42.0739 119.225 41.9517 119.284 41.8161C119.342 41.6805 119.373 41.5343 119.373 41.3865C119.373 41.2388 119.342 41.0926 119.284 40.9569C119.225 40.8213 119.139 40.6992 119.031 40.598C118.924 40.4946 118.797 40.4136 118.658 40.3597C118.519 40.3057 118.371 40.28 118.222 40.284C117.921 40.2775 117.63 40.3904 117.413 40.598C117.302 40.6988 117.215 40.8219 117.156 40.959C117.097 41.0961 117.068 41.2443 117.071 41.3935V41.4144Z" fill="#4CA12F"/>
<path fill-rule="evenodd" clip-rule="evenodd" d="M121.53 50.7999L119.75 43.9963H121.941L122.639 47.5761C122.681 47.8343 122.709 48.0785 122.737 48.2739C122.765 48.4693 122.737 48.6856 122.737 48.874V49.0275C122.821 48.7376 122.924 48.4533 123.044 48.1762C123.114 47.9552 123.203 47.7405 123.309 47.5342L125.116 43.9963H127.461L123.644 50.7999H121.467" fill="#4CA12F"/>
<path d="M123.735 50.8421H121.502L119.673 43.9617H121.948L122.646 47.5415C122.646 47.7159 122.702 47.8834 122.723 48.0299V48.2393V48.5603V48.7487C122.8 48.5184 122.876 48.3091 122.953 48.1276C123.028 47.9097 123.119 47.6975 123.225 47.4926L125.04 43.9338H127.482V43.9897L123.735 50.8421ZM121.564 50.7584H123.658L127.419 44.0385H125.179L123.379 47.5275C123.277 47.7334 123.189 47.9455 123.114 48.1625C123.016 48.3998 122.911 48.6859 122.807 49.0139H122.73V48.8603V48.5812V48.2602V48.0579C122.73 47.9113 122.688 47.7438 122.66 47.5694L121.962 44.0246H119.869L121.564 50.7584Z" fill="#4CA12F"/>
<path fill-rule="evenodd" clip-rule="evenodd" d="M129.666 47.8344V47.9669C129.658 48.1688 129.693 48.3701 129.77 48.5568C129.848 48.7435 129.964 48.9113 130.113 49.0485C130.463 49.3248 130.902 49.466 131.348 49.4463C131.681 49.4505 132.009 49.3713 132.304 49.216C132.617 49.0389 132.892 48.8018 133.113 48.5182L134.509 49.6068C134.173 50.0839 133.715 50.4622 133.183 50.7023C132.578 50.9567 131.927 51.0826 131.271 51.0722C130.316 51.1171 129.382 50.7864 128.668 50.1511C128.337 49.8392 128.077 49.4596 127.906 49.0381C127.735 48.6166 127.657 48.1632 127.677 47.7088C127.667 47.1906 127.763 46.6758 127.958 46.1959C128.154 45.7159 128.445 45.281 128.815 44.9175C129.188 44.5494 129.632 44.2611 130.12 44.0704C130.609 43.8796 131.131 43.7903 131.655 43.808C132.112 43.7843 132.569 43.8537 132.998 44.012C133.428 44.1704 133.821 44.4143 134.153 44.7291C134.767 45.4279 135.08 46.3406 135.025 47.2691C135.036 47.4434 135.036 47.6182 135.025 47.7925V47.8344H129.694M129.799 46.683H133.127C133.139 46.4872 133.111 46.2911 133.045 46.1064C132.979 45.9217 132.877 45.7523 132.743 45.6084C132.603 45.4741 132.436 45.3706 132.253 45.3045C132.071 45.2384 131.876 45.2112 131.683 45.2246C131.253 45.2002 130.83 45.3315 130.489 45.5944C130.148 45.8745 129.903 46.2556 129.792 46.683H129.799Z" fill="#4CA12F"/>
<path d="M131.243 51.1139C130.277 51.1594 129.333 50.8236 128.612 50.1788C128.275 49.8652 128.01 49.4816 127.837 49.0549C127.663 48.6282 127.585 48.1687 127.607 47.7086C127.593 47.1799 127.687 46.6538 127.884 46.1629C128.081 45.672 128.376 45.2267 128.752 44.8546C129.13 44.4844 129.579 44.1942 130.072 44.0012C130.564 43.8082 131.091 43.7163 131.62 43.7311C132.084 43.7052 132.548 43.7748 132.983 43.9357C133.419 44.0965 133.817 44.3452 134.153 44.6662C134.47 45.0177 134.713 45.429 134.869 45.876C135.025 46.323 135.09 46.7966 135.06 47.269C135.071 47.4456 135.071 47.6227 135.06 47.7993V47.8761H129.736V47.9668C129.726 48.1635 129.759 48.36 129.834 48.5422C129.909 48.7244 130.023 48.8877 130.168 49.0205C130.513 49.286 130.941 49.4218 131.376 49.4043C131.701 49.4083 132.022 49.3316 132.311 49.181C132.619 49.0031 132.89 48.766 133.106 48.4832V48.4483L134.502 49.5648C134.159 50.0459 133.694 50.4266 133.155 50.6673C132.547 50.9277 131.89 51.0562 131.229 51.0441M131.613 43.7451C131.094 43.7258 130.577 43.813 130.094 44.0014C129.611 44.1897 129.171 44.4751 128.802 44.84C128.433 45.2049 128.143 45.6415 127.95 46.1229C127.756 46.6043 127.664 47.1202 127.677 47.6388C127.655 48.0864 127.731 48.5334 127.898 48.949C128.065 49.3646 128.321 49.739 128.647 50.0462C129.355 50.6772 130.282 51.0054 131.229 50.9604C131.878 50.9709 132.521 50.8474 133.12 50.5975C133.633 50.3652 134.078 50.0048 134.411 49.5508L133.106 48.5041C132.888 48.7882 132.615 49.0256 132.304 49.2019C132.005 49.3602 131.672 49.4417 131.334 49.4392C130.877 49.4567 130.429 49.3107 130.071 49.0275C129.916 48.8885 129.795 48.7167 129.715 48.5248C129.635 48.3328 129.599 48.1255 129.61 47.9179V47.7225H134.941C134.952 47.5483 134.952 47.3735 134.941 47.1992C134.97 46.7371 134.906 46.2739 134.754 45.8366C134.602 45.3993 134.364 44.9967 134.055 44.6522C133.726 44.3421 133.337 44.1018 132.913 43.9459C132.488 43.79 132.037 43.7217 131.585 43.7451M133.092 46.6549H129.729H129.687C129.802 46.2209 130.045 45.8317 130.385 45.5384C130.733 45.2689 131.167 45.135 131.606 45.1616C131.805 45.1496 132.004 45.1787 132.192 45.2471C132.379 45.3156 132.55 45.4218 132.694 45.5594C132.829 45.7083 132.933 45.8823 133 46.0716C133.067 46.2608 133.096 46.4614 133.085 46.6619L133.092 46.6549ZM129.785 46.5712H133.008C133.016 46.3876 132.987 46.2043 132.924 46.0319C132.86 45.8594 132.763 45.7012 132.639 45.5663C132.503 45.4357 132.342 45.3347 132.165 45.2698C131.989 45.205 131.801 45.1776 131.613 45.1895C131.193 45.1656 130.779 45.2945 130.448 45.5524C130.131 45.8189 129.9 46.1735 129.785 46.5712Z" fill="#4CA12F"/>
<path fill-rule="evenodd" clip-rule="evenodd" d="M136.791 48.6162C137.006 48.924 137.281 49.185 137.6 49.3838C137.861 49.5595 138.165 49.6586 138.479 49.6699C138.691 49.6786 138.898 49.6118 139.065 49.4815C139.137 49.43 139.195 49.3618 139.234 49.2827C139.273 49.2036 139.292 49.1161 139.289 49.028C139.289 48.7419 139.01 48.4627 138.465 48.1627C138.242 48.0301 138.081 47.9324 137.949 47.8626C137.547 47.6366 137.193 47.333 136.909 46.9694C136.71 46.67 136.608 46.3169 136.616 45.9576C136.613 45.6534 136.681 45.3527 136.815 45.0799C136.95 44.807 137.147 44.5698 137.391 44.3876C137.957 43.958 138.656 43.7407 139.365 43.7735C139.846 43.7666 140.322 43.8642 140.761 44.0596C141.206 44.2514 141.607 44.5316 141.94 44.883L140.733 45.9297C140.509 45.6986 140.258 45.4948 139.986 45.3226C139.76 45.1961 139.506 45.1267 139.247 45.1203C139.05 45.1115 138.857 45.1734 138.703 45.2947C138.636 45.3438 138.582 45.408 138.546 45.4821C138.51 45.5561 138.492 45.6378 138.493 45.7204C138.493 45.9716 138.863 46.2856 139.603 46.6833L140.084 46.9555C140.427 47.1284 140.719 47.3853 140.935 47.7021C141.13 48.0029 141.227 48.3561 141.215 48.7139C141.226 49.0349 141.163 49.3542 141.031 49.647C140.899 49.9398 140.702 50.1984 140.454 50.4026C139.9 50.8584 139.196 51.0921 138.479 51.0586C137.947 51.0683 137.419 50.9562 136.937 50.7306C136.433 50.4979 135.978 50.1711 135.597 49.7676L136.791 48.6162Z" fill="#4CA12F"/>
<path d="M138.514 51.1004C137.975 51.1058 137.442 50.9939 136.951 50.7724C136.444 50.535 135.987 50.2035 135.604 49.7955L136.825 48.6092H136.86C137.073 48.9122 137.344 49.1706 137.656 49.3698C137.91 49.5413 138.208 49.638 138.514 49.649C138.718 49.6635 138.919 49.6013 139.079 49.4745C139.145 49.4243 139.197 49.3598 139.234 49.286C139.27 49.2122 139.289 49.1311 139.289 49.0489C139.289 48.7837 139.024 48.5115 138.479 48.2185L138.298 48.1138L137.97 47.9184C137.556 47.6913 137.193 47.3827 136.902 47.0113C136.704 46.7037 136.602 46.3442 136.609 45.9785C136.607 45.6682 136.677 45.3617 136.814 45.0831C136.951 44.8046 137.151 44.5617 137.398 44.3736C137.974 43.9417 138.681 43.7222 139.4 43.7525C139.881 43.7486 140.356 43.8461 140.796 44.0386C141.246 44.2341 141.652 44.519 141.989 44.876L140.719 45.9785C140.497 45.7449 140.246 45.5409 139.973 45.3714C139.758 45.2542 139.519 45.1874 139.275 45.176C139.088 45.1715 138.904 45.2278 138.751 45.3365C138.692 45.3845 138.645 45.4452 138.612 45.514C138.579 45.5828 138.563 45.6581 138.563 45.7343C138.563 45.9646 138.919 46.2716 139.645 46.6624L139.777 46.7321L140.133 46.9345C140.482 47.1126 140.78 47.3768 140.998 47.7021C141.195 48.0075 141.294 48.365 141.284 48.7279C141.296 49.0552 141.232 49.3809 141.097 49.6797C140.963 49.9785 140.762 50.2425 140.51 50.4514C139.952 50.9253 139.238 51.1741 138.507 51.1492M135.716 49.8164C136.088 50.2027 136.528 50.5173 137.014 50.7445C137.493 50.9638 138.015 51.0734 138.542 51.0655C139.248 51.0993 139.942 50.8707 140.489 50.4235C140.732 50.2215 140.926 49.9671 141.056 49.6795C141.187 49.3919 141.25 49.0785 141.243 48.7627C141.25 48.4142 141.153 48.0714 140.963 47.7788C140.751 47.4661 140.463 47.2118 140.126 47.0392L139.77 46.8368L139.645 46.767C138.877 46.3553 138.514 46.0343 138.514 45.7692C138.513 45.6803 138.533 45.5925 138.571 45.5125C138.61 45.4326 138.667 45.3628 138.737 45.3086C138.903 45.1879 139.105 45.1265 139.31 45.1342C139.574 45.1389 139.832 45.2084 140.063 45.3365C140.33 45.5013 140.577 45.6982 140.796 45.9227L141.94 44.9248C141.618 44.5936 141.234 44.3282 140.81 44.1433C140.371 43.9496 139.894 43.8544 139.414 43.8642C138.713 43.8323 138.023 44.0444 137.46 44.4643C137.221 44.6437 137.027 44.8766 136.894 45.1444C136.761 45.4121 136.692 45.7073 136.693 46.0064C136.687 46.3579 136.787 46.703 136.979 46.9973C137.263 47.3542 137.614 47.6528 138.012 47.8765L138.347 48.0719L138.528 48.1766C139.093 48.4836 139.372 48.7837 139.372 49.0768C139.375 49.1713 139.355 49.2651 139.314 49.3501C139.272 49.4352 139.211 49.509 139.135 49.5652C138.961 49.7014 138.742 49.7685 138.521 49.7536C138.198 49.7431 137.885 49.6441 137.614 49.4675C137.309 49.27 137.042 49.0195 136.825 48.7279L135.716 49.8164Z" fill="#4CA12F"/>
<path fill-rule="evenodd" clip-rule="evenodd" d="M151.11 43.7799C152.078 43.7298 153.027 44.0604 153.754 44.701C154.086 45.0179 154.345 45.4026 154.515 45.8289C154.685 46.2551 154.761 46.7129 154.738 47.1712C154.755 47.6921 154.66 48.2105 154.46 48.6918C154.26 49.1731 153.96 49.6063 153.58 49.9624C152.769 50.7114 151.696 51.1101 150.593 51.0719C149.641 51.1142 148.71 50.7838 147.997 50.1508C147.674 49.8368 147.421 49.4583 147.254 49.0399C147.087 48.6215 147.01 48.1726 147.027 47.7224C147.01 47.1948 147.103 46.6693 147.301 46.1801C147.5 45.6908 147.799 45.2487 148.179 44.8824C148.564 44.5158 149.019 44.2296 149.516 44.0403C150.013 43.851 150.543 43.7625 151.075 43.7799M151.075 45.5662C150.804 45.5559 150.534 45.6028 150.283 45.7038C150.032 45.8048 149.804 45.9576 149.616 46.1524C149.234 46.5812 149.034 47.1417 149.058 47.7155C149.042 48.1367 149.187 48.5483 149.463 48.8668C149.614 49.0104 149.793 49.1221 149.988 49.1952C150.184 49.2683 150.392 49.3014 150.6 49.2925C150.87 49.3007 151.14 49.2528 151.391 49.1519C151.642 49.0511 151.869 48.8994 152.059 48.7063C152.437 48.2923 152.638 47.7459 152.617 47.1851C152.632 46.9709 152.603 46.7558 152.533 46.553C152.462 46.3502 152.35 46.164 152.205 46.0058C152.056 45.8577 151.878 45.7422 151.683 45.6665C151.487 45.5908 151.277 45.5567 151.068 45.5662H151.075Z" fill="#4CA12F"/>
<path d="M150.593 51.1144C149.63 51.1573 148.688 50.8217 147.969 50.1793C147.642 49.862 147.385 49.4793 147.216 49.056C147.046 48.6328 146.968 48.1786 146.985 47.723C146.968 47.19 147.062 46.6592 147.263 46.1651C147.464 45.671 147.766 45.2247 148.151 44.8551C148.539 44.4847 148.996 44.1948 149.497 44.002C149.998 43.8092 150.531 43.7173 151.068 43.7316C152.049 43.6769 153.013 44.0131 153.747 44.6667C154.083 44.9872 154.346 45.3762 154.518 45.8072C154.69 46.2382 154.768 46.7012 154.745 47.1648C154.762 47.6938 154.665 48.2203 154.462 48.7089C154.258 49.1975 153.953 49.637 153.566 49.9979C153.162 50.3726 152.689 50.664 152.173 50.8556C151.657 51.0472 151.108 51.1351 150.558 51.1144M151.11 43.8153H151.075C150.543 43.7935 150.012 43.8793 149.515 44.0675C149.017 44.2558 148.563 44.5426 148.179 44.9109C147.807 45.2723 147.513 45.7069 147.318 46.1873C147.122 46.6678 147.028 47.1835 147.041 47.7021C147.023 48.1459 147.098 48.5887 147.263 49.0012C147.428 49.4137 147.678 49.7867 147.997 50.0956C148.7 50.725 149.623 51.0533 150.565 51.0097C151.105 51.0324 151.645 50.9472 152.151 50.7591C152.658 50.5709 153.122 50.2837 153.517 49.9141C153.899 49.5594 154.199 49.1263 154.398 48.6445C154.597 48.1627 154.689 47.6437 154.668 47.1229C154.691 46.6701 154.616 46.2178 154.449 45.7965C154.281 45.3751 154.025 44.9946 153.698 44.6806C152.99 44.0515 152.063 43.7258 151.116 43.7735M150.621 49.2792C150.408 49.2889 150.195 49.2557 149.994 49.1814C149.794 49.107 149.611 48.9931 149.456 48.8465C149.171 48.5212 149.021 48.0993 149.037 47.6672C149.011 47.0823 149.217 46.5107 149.609 46.0762C149.799 45.8773 150.03 45.721 150.285 45.6176C150.54 45.5141 150.814 45.4659 151.089 45.4761C151.303 45.4672 151.517 45.5036 151.717 45.5829C151.916 45.6623 152.097 45.7828 152.247 45.9367C152.396 46.0983 152.51 46.2889 152.582 46.4966C152.654 46.7043 152.683 46.9247 152.666 47.1439C152.677 47.4255 152.634 47.7066 152.537 47.9713C152.44 48.2359 152.291 48.4788 152.1 48.686C151.907 48.8824 151.675 49.0366 151.42 49.1387C151.164 49.2408 150.889 49.2886 150.614 49.2792M151.089 45.5599C150.829 45.5548 150.572 45.6029 150.331 45.7014C150.091 45.7998 149.874 45.9464 149.693 46.1321C149.317 46.553 149.12 47.1034 149.142 47.6672C149.124 48.0781 149.27 48.4793 149.546 48.7837C149.691 48.9257 149.864 49.0362 150.054 49.1083C150.244 49.1803 150.446 49.2124 150.649 49.2024C150.908 49.2083 151.166 49.1605 151.407 49.062C151.647 48.9636 151.864 48.8166 152.045 48.6302C152.416 48.2262 152.614 47.6924 152.596 47.1439C152.61 46.9351 152.583 46.7255 152.514 46.5276C152.446 46.3298 152.338 46.1478 152.198 45.9925C152.054 45.846 151.881 45.7317 151.69 45.6571C151.498 45.5826 151.294 45.5494 151.089 45.5599Z" fill="#4CA12F"/>
<path fill-rule="evenodd" clip-rule="evenodd" d="M157.285 50.7999L155.506 43.9963H157.697L158.395 47.5761C158.443 47.8343 158.471 48.0785 158.499 48.2739C158.527 48.4693 158.499 48.6856 158.499 48.874V49.0275C158.589 48.7385 158.694 48.4543 158.813 48.1762C158.885 47.9566 158.971 47.7421 159.071 47.5342L160.886 43.9963H163.223L159.448 50.7999H157.285Z" fill="#4CA12F"/>
<path d="M159.483 50.842H157.25L155.457 43.9896H157.739L158.436 47.5693C158.436 47.7507 158.492 47.9252 158.513 48.0787V48.2671V48.5881V48.7765C158.597 48.5393 158.674 48.3369 158.75 48.1555C158.827 47.939 158.915 47.727 159.016 47.5205L160.837 43.9617H163.272L163.237 44.0175L159.483 50.842ZM157.313 50.7583H159.448L163.209 44.0384H160.962L159.169 47.5274C159.065 47.732 158.976 47.9443 158.904 48.1625C158.786 48.4402 158.683 48.7245 158.597 49.0138H158.513V48.8603V48.5811V48.2601V48.0717C158.513 47.9182 158.471 47.7507 158.436 47.5693L157.739 44.0245H155.645L157.313 50.7583Z" fill="#4CA12F"/>
<path fill-rule="evenodd" clip-rule="evenodd" d="M165.421 47.8344V47.967C165.412 48.1683 165.447 48.3693 165.523 48.556C165.599 48.7427 165.714 48.9107 165.861 49.0486C166.212 49.3238 166.65 49.4648 167.096 49.4463C167.429 49.4505 167.758 49.3713 168.052 49.2161C168.367 49.0408 168.642 48.8034 168.862 48.5182L170.257 49.6068C169.922 50.082 169.467 50.46 168.938 50.7024C168.334 50.9567 167.682 51.0827 167.026 51.0722C166.069 51.1182 165.133 50.7876 164.417 50.1511C164.088 49.8378 163.83 49.4578 163.66 49.0365C163.49 48.6152 163.413 48.1625 163.433 47.7088C163.423 47.1913 163.518 46.6772 163.712 46.1975C163.906 45.7177 164.196 45.2823 164.563 44.9176C164.937 44.5504 165.381 44.2628 165.87 44.0721C166.358 43.8815 166.879 43.7916 167.403 43.8081C167.861 43.7842 168.32 43.8535 168.75 44.0118C169.181 44.1701 169.575 44.4142 169.908 44.7292C170.219 45.0786 170.458 45.4859 170.611 45.9277C170.764 46.3695 170.829 46.8372 170.802 47.3041C170.816 47.4782 170.816 47.6533 170.802 47.8274V47.8693H165.477M165.582 46.7179H168.903C168.915 46.5222 168.888 46.326 168.822 46.1413C168.756 45.9566 168.653 45.7872 168.52 45.6433C168.38 45.5099 168.214 45.407 168.033 45.3409C167.852 45.2749 167.659 45.2471 167.466 45.2595C167.037 45.2352 166.613 45.3665 166.273 45.6293C165.931 45.9095 165.687 46.2905 165.575 46.7179H165.582Z" fill="#4CA12F"/>
<path d="M166.992 51.1141C166.026 51.1596 165.081 50.8238 164.361 50.1791C164.026 49.8639 163.763 49.4799 163.591 49.0534C163.419 48.627 163.341 48.1683 163.363 47.7089C163.346 47.1799 163.439 46.653 163.636 46.1618C163.833 45.6705 164.129 45.2255 164.507 44.8548C164.886 44.4847 165.334 44.1945 165.827 44.0015C166.32 43.8084 166.846 43.7166 167.375 43.7314C167.839 43.7067 168.303 43.7769 168.738 43.9377C169.174 44.0985 169.572 44.3465 169.908 44.6664C170.225 45.018 170.469 45.4293 170.625 45.8763C170.78 46.3232 170.845 46.7968 170.815 47.2693C170.826 47.4459 170.826 47.623 170.815 47.7996V47.8763H165.491V47.9671C165.482 48.163 165.515 48.3588 165.588 48.5407C165.662 48.7227 165.774 48.8864 165.917 49.0207C166.263 49.2847 166.689 49.4203 167.124 49.4045C167.452 49.4085 167.775 49.3319 168.066 49.1812C168.373 49.0031 168.641 48.7659 168.855 48.4834V48.4485H168.89L170.285 49.565C169.945 50.0459 169.483 50.4267 168.945 50.6676C168.335 50.9288 167.676 51.0572 167.012 51.0444M167.403 43.7453C166.888 43.7305 166.375 43.8199 165.896 44.0081C165.416 44.1964 164.979 44.4796 164.612 44.8409C164.245 45.2051 163.957 45.6407 163.765 46.1208C163.572 46.6009 163.481 47.1153 163.496 47.6321C163.472 48.0798 163.547 48.5272 163.714 48.9431C163.882 49.3589 164.138 49.7331 164.465 50.0395C165.171 50.6701 166.095 50.9983 167.04 50.9537C167.691 50.9648 168.337 50.8412 168.938 50.5908C169.45 50.3586 169.892 49.998 170.222 49.5441L168.917 48.4974C168.702 48.7812 168.431 49.0186 168.122 49.1952C167.82 49.3525 167.485 49.4339 167.145 49.4324C166.688 49.45 166.241 49.304 165.882 49.0207C165.731 48.8793 165.612 48.707 165.534 48.5155C165.456 48.324 165.42 48.1179 165.428 47.9112V47.7158H170.753C170.778 47.5426 170.789 47.3676 170.788 47.1925C170.815 46.7299 170.751 46.2664 170.597 45.8291C170.444 45.3918 170.205 44.9895 169.894 44.6455C169.567 44.3352 169.179 44.0948 168.756 43.9389C168.332 43.7829 167.882 43.7147 167.431 43.7384M168.938 46.6482H165.575V46.6133H165.533C165.651 46.1905 165.894 45.8134 166.231 45.5317C166.577 45.2632 167.008 45.1293 167.445 45.1549C167.645 45.1423 167.846 45.1711 168.034 45.2396C168.223 45.308 168.395 45.4146 168.541 45.5526C168.675 45.7015 168.779 45.8756 168.846 46.0649C168.913 46.2541 168.942 46.4547 168.931 46.6552L168.938 46.6482ZM165.631 46.5645H168.855C168.862 46.3809 168.833 46.1976 168.77 46.0252C168.706 45.8527 168.61 45.6945 168.485 45.5596C168.347 45.4302 168.185 45.33 168.007 45.2652C167.83 45.2005 167.641 45.1724 167.452 45.1828C167.033 45.1601 166.619 45.2889 166.287 45.5457C165.969 45.8103 165.74 46.1659 165.631 46.5645Z" fill="#4CA12F"/>
<path fill-rule="evenodd" clip-rule="evenodd" d="M171.806 50.8002L172.734 43.9966H174.8L174.619 45.1899C174.818 44.7684 175.121 44.4037 175.498 44.1292C175.854 43.8895 176.276 43.7653 176.705 43.7733H177.047L177.34 43.8291L176.942 45.79C176.803 45.7457 176.661 45.713 176.517 45.6923L176.119 45.6504C175.875 45.64 175.632 45.684 175.408 45.7794C175.183 45.8748 174.983 46.019 174.821 46.2017C174.469 46.6996 174.257 47.2827 174.207 47.8904L173.823 50.7862L171.806 50.8002Z" fill="#4CA12F"/>
<path d="M173.872 50.8424H171.778L172.72 43.962H174.814V44.0039L174.667 44.9878C174.873 44.6308 175.157 44.3253 175.498 44.0946C175.861 43.8512 176.289 43.7246 176.726 43.7317H176.796H177.068L177.368 43.7945H177.403L176.998 45.7972H176.956C176.819 45.7577 176.679 45.7274 176.537 45.7065L176.147 45.6646C175.908 45.6532 175.67 45.6955 175.45 45.7886C175.231 45.8816 175.035 46.0229 174.877 46.202C174.529 46.6933 174.322 47.2697 174.277 47.8697L173.872 50.8424ZM171.855 50.7586H173.802L174.179 47.8976C174.228 47.2833 174.446 46.6943 174.807 46.195C174.97 46.0065 175.173 45.8572 175.401 45.7581C175.629 45.659 175.877 45.6128 176.126 45.6228L176.537 45.6646L176.921 45.7554L177.305 43.8713L177.054 43.8294H176.789H176.719C176.299 43.8219 175.888 43.9438 175.54 44.1783C175.152 44.4446 174.837 44.8047 174.625 45.225H174.549L174.716 44.0737H172.769L171.855 50.7586Z" fill="#4CA12F"/>
<path d="M37.493 45.4971H0V46.5787H37.493V45.4971Z" fill="#0075BB"/>
<path fill-rule="evenodd" clip-rule="evenodd" d="M191.17 69.5992L189.635 64.7146H191.491L192.099 67.436C192.14 67.5547 192.175 67.8198 192.252 68.2106V68.399C192.301 68.2385 192.364 68.078 192.419 67.9036C192.475 67.7291 192.587 67.5756 192.671 67.4081L194.206 64.7146H196.188L191.477 72.2509H189.51L191.143 69.6202" fill="#0075BB"/>
<path d="M191.547 72.2295H189.517V72.1876L191.143 69.5709L189.607 64.6374H191.547L192.154 67.3658C192.191 67.4963 192.219 67.6292 192.238 67.7635L192.308 68.1334V68.2171L192.399 67.9589L192.447 67.8264L192.615 67.4844L192.699 67.3239L194.234 64.6165H196.278V64.6583L191.547 72.2295ZM189.614 72.1737H191.519L196.195 64.6932H194.276L192.747 67.3728L192.671 67.5263L192.503 67.8682L192.454 68.0008L192.329 68.3637H192.245V68.1683L192.175 67.7984C192.158 67.6667 192.132 67.5362 192.099 67.4077L191.491 64.7002H189.691L191.219 69.5848L189.614 72.1737Z" fill="#0075BB"/>
<path fill-rule="evenodd" clip-rule="evenodd" d="M198.03 67.582V67.7007C198.023 67.8579 198.054 68.0145 198.119 68.1576C198.185 68.3007 198.283 68.4263 198.407 68.5241C198.712 68.7389 199.08 68.8468 199.453 68.8311C199.732 68.8308 200.008 68.7714 200.263 68.6567C200.53 68.5212 200.767 68.3338 200.961 68.1054L202.119 68.9358C201.824 69.3087 201.437 69.5974 200.996 69.7731C200.478 69.9679 199.929 70.0626 199.377 70.0523C198.581 70.0939 197.798 69.846 197.172 69.3545C196.899 69.1289 196.682 68.8434 196.538 68.5202C196.394 68.197 196.327 67.8449 196.341 67.4913C196.334 67.0851 196.417 66.6823 196.582 66.3111C196.747 65.9399 196.991 65.6092 197.297 65.3421C197.964 64.7668 198.824 64.4652 199.705 64.4977C200.465 64.4581 201.213 64.7073 201.798 65.1956C202.086 65.5104 202.302 65.8851 202.428 66.2928C202.555 66.7006 202.59 67.1313 202.531 67.5541H198.016M198.107 66.6819H200.898C200.906 66.5297 200.881 66.3776 200.826 66.2356C200.771 66.0937 200.686 65.9651 200.577 65.8585C200.325 65.6497 200.003 65.5449 199.677 65.5654C199.32 65.5481 198.968 65.646 198.672 65.8445C198.392 66.0537 198.186 66.3472 198.086 66.6819" fill="#0075BB"/>
<path d="M199.363 70.0801C198.563 70.1238 197.774 69.8759 197.144 69.3823C196.866 69.156 196.644 68.8677 196.498 68.5405C196.351 68.2133 196.283 67.8564 196.299 67.4982C196.29 67.0879 196.372 66.6807 196.539 66.3056C196.705 65.9305 196.952 65.5967 197.262 65.328C197.934 64.7512 198.798 64.4474 199.684 64.4767C200.46 64.4301 201.226 64.6795 201.826 65.1745C202.088 65.4296 202.292 65.7379 202.424 66.0786C202.557 66.4192 202.614 66.7844 202.593 67.1493C202.605 67.284 202.605 67.4194 202.593 67.554V67.6098H198.086V67.7006C198.079 67.8534 198.109 68.0056 198.172 68.145C198.235 68.2844 198.329 68.407 198.449 68.503C198.752 68.7115 199.114 68.8168 199.481 68.8031C199.756 68.8053 200.028 68.7456 200.277 68.6286C200.545 68.4979 200.783 68.3125 200.975 68.0844L202.154 68.9357C201.856 69.3081 201.466 69.5967 201.023 69.773C200.502 69.9704 199.948 70.0675 199.391 70.0591M199.712 64.4767C198.841 64.4424 197.99 64.7419 197.332 65.3141C197.025 65.5761 196.78 65.9029 196.615 66.2709C196.45 66.6389 196.368 67.039 196.376 67.4424C196.36 67.793 196.427 68.1424 196.572 68.4624C196.716 68.7824 196.933 69.0641 197.206 69.2846C197.827 69.7724 198.602 70.0201 199.391 69.9824C199.941 69.993 200.488 69.8983 201.002 69.7033C201.427 69.5322 201.802 69.2561 202.091 68.9008L200.975 68.0983C200.783 68.3249 200.545 68.508 200.277 68.6356C200.021 68.7556 199.743 68.8176 199.46 68.8171C199.08 68.8328 198.704 68.7224 198.393 68.503C198.268 68.402 198.168 68.2728 198.103 68.1261C198.038 67.9793 198.008 67.8192 198.016 67.6587V67.5191H202.524C202.532 67.3844 202.532 67.2492 202.524 67.1144C202.546 66.7569 202.49 66.3988 202.36 66.065C202.23 65.7312 202.028 65.4298 201.77 65.1815C201.187 64.6895 200.438 64.4398 199.677 64.4837M200.954 66.6957H198.072C198.173 66.3557 198.381 66.0572 198.665 65.8444C198.967 65.6418 199.327 65.5415 199.691 65.5583C200.022 65.5403 200.348 65.6474 200.605 65.8584C200.718 65.9667 200.807 66.0982 200.864 66.2439C200.922 66.3897 200.948 66.5462 200.94 66.7027L200.954 66.6957ZM198.162 66.6469H200.912C200.917 66.503 200.891 66.3596 200.837 66.2262C200.783 66.0927 200.702 65.9722 200.598 65.8723C200.352 65.6686 200.037 65.5663 199.719 65.5862C199.377 65.5575 199.036 65.6472 198.752 65.8403C198.469 66.0335 198.261 66.3183 198.162 66.6469Z" fill="#0075BB"/>
<path fill-rule="evenodd" clip-rule="evenodd" d="M209.278 69.8434H207.597L207.694 69.2712C207.493 69.5266 207.232 69.728 206.934 69.8573C206.597 69.9935 206.236 70.0599 205.873 70.0527C205.548 70.0721 205.222 70.0245 204.916 69.9129C204.61 69.8013 204.33 69.628 204.094 69.4038C203.872 69.1579 203.701 68.87 203.592 68.5573C203.483 68.2445 203.438 67.9131 203.459 67.5825C203.431 66.7639 203.721 65.9663 204.268 65.3565C204.536 65.0718 204.861 64.8474 205.222 64.6982C205.583 64.549 205.971 64.4785 206.362 64.4912C206.748 64.484 207.131 64.5602 207.485 64.7145C207.816 64.8711 208.1 65.1117 208.308 65.4123L208.406 64.7145H210.123L209.341 69.8922M208.134 67.0173C208.142 66.8437 208.114 66.6703 208.051 66.5082C207.989 66.346 207.894 66.1986 207.771 66.0752C207.491 65.833 207.129 65.7081 206.759 65.7263C206.542 65.7172 206.325 65.7556 206.124 65.8387C205.922 65.9218 205.742 66.0478 205.594 66.2078C205.288 66.5763 205.135 67.0487 205.168 67.5267C205.161 67.6969 205.191 67.8667 205.258 68.0236C205.324 68.1806 205.425 68.3207 205.552 68.4338C205.851 68.6652 206.221 68.7838 206.599 68.7688C206.809 68.776 207.017 68.7358 207.209 68.6513C207.402 68.5667 207.572 68.4399 207.708 68.2803C208.007 67.9292 208.159 67.4772 208.134 67.0173Z" fill="#0075BB"/>
<path d="M205.838 70.0808C205.509 70.1 205.179 70.051 204.869 69.937C204.559 69.8229 204.276 69.6462 204.038 69.4179C203.814 69.1699 203.642 68.88 203.532 68.5649C203.422 68.2497 203.376 67.9158 203.396 67.5826C203.368 66.7563 203.66 65.9512 204.212 65.3357C204.481 65.0519 204.806 64.8276 205.167 64.6774C205.527 64.5271 205.915 64.4542 206.306 64.4634C206.695 64.4551 207.081 64.5338 207.436 64.6937C207.751 64.8319 208.024 65.0481 208.232 65.3217L208.329 64.6239H210.102L209.313 69.8296H207.527L207.604 69.355C207.415 69.5783 207.176 69.7531 206.906 69.8644C206.567 70.0035 206.204 70.0724 205.838 70.0668M206.299 64.4844C205.917 64.4737 205.538 64.5441 205.185 64.6908C204.833 64.8375 204.516 65.0573 204.254 65.3357C203.711 65.9415 203.423 66.7344 203.452 67.5477C203.432 67.8745 203.477 68.2019 203.585 68.5109C203.693 68.82 203.861 69.1046 204.08 69.3481C204.313 69.5701 204.59 69.7417 204.892 69.8522C205.195 69.9626 205.517 70.0096 205.838 69.99C206.197 69.9979 206.553 69.9314 206.885 69.7947C207.18 69.6691 207.439 69.4725 207.639 69.2225H207.687L207.59 69.7598H209.258L210.032 64.6309H208.364L208.267 65.3287H208.225C208.018 65.0291 207.737 64.7886 207.408 64.6309C207.059 64.4773 206.68 64.4011 206.299 64.4076M206.536 68.6363C206.153 68.6508 205.778 68.5298 205.475 68.2944C205.344 68.1794 205.24 68.0363 205.171 67.8757C205.102 67.715 205.07 67.5409 205.078 67.3663C205.066 66.9104 205.217 66.4653 205.503 66.1103C205.654 65.9486 205.839 65.8218 206.043 65.7386C206.248 65.6555 206.469 65.618 206.69 65.6288C207.065 65.6121 207.434 65.7366 207.722 65.9777C207.847 66.1039 207.945 66.2546 208.008 66.4204C208.072 66.5861 208.101 66.7633 208.092 66.9406C208.114 67.398 207.962 67.8467 207.667 68.1967C207.529 68.3604 207.355 68.4903 207.159 68.5762C206.963 68.6621 206.75 68.7018 206.536 68.6921M206.697 65.6497C206.482 65.6409 206.269 65.678 206.07 65.7587C205.872 65.8393 205.693 65.9616 205.545 66.1172C205.249 66.4852 205.099 66.9503 205.127 67.4221C205.118 67.5894 205.148 67.7564 205.215 67.9101C205.281 68.0638 205.383 68.2001 205.51 68.3083C205.802 68.5363 206.166 68.6526 206.536 68.6363C206.733 68.6433 206.93 68.6084 207.113 68.5338C207.296 68.4592 207.461 68.3467 207.597 68.2037C207.891 67.8562 208.041 67.4092 208.015 66.9546C208.021 66.7892 207.992 66.6245 207.931 66.4708C207.87 66.3171 207.777 66.1777 207.66 66.0614C207.386 65.823 207.031 65.7004 206.669 65.7195" fill="#0075BB"/>
<path fill-rule="evenodd" clip-rule="evenodd" d="M210.876 69.8429L211.658 64.6651H213.382L213.228 65.5723C213.415 65.2404 213.684 64.9618 214.01 64.7628C214.319 64.5772 214.675 64.4828 215.035 64.4907H215.321L215.573 64.5395L215.238 66.0259L214.875 65.9561H214.533C214.331 65.9463 214.129 65.9791 213.94 66.0524C213.751 66.1258 213.58 66.238 213.437 66.3817C213.143 66.7506 212.962 67.1963 212.914 67.6657L212.593 69.8708L210.876 69.8429Z" fill="#0075BB"/>
<path d="M212.621 69.8713H210.842L211.63 64.6656H213.403L213.27 65.4681C213.449 65.1878 213.687 64.9498 213.968 64.7703C214.282 64.5852 214.642 64.491 215.007 64.4982H215.294L215.531 64.54L215.196 66.0613L214.833 65.9915L214.498 65.9566C214.3 65.9449 214.102 65.9755 213.916 66.0465C213.731 66.1175 213.563 66.2272 213.423 66.3683C213.134 66.7368 212.955 67.1794 212.907 67.6453L212.621 69.8713ZM210.904 69.8154H212.572L212.893 67.6383C212.935 67.16 213.12 66.7053 213.423 66.3334C213.568 66.188 213.741 66.0744 213.933 65.9999C214.124 65.9254 214.328 65.8916 214.533 65.9008L214.875 65.9357L215.217 66.0054L215.538 64.568H215.335H215.035C214.682 64.5608 214.334 64.6526 214.031 64.8331C213.705 65.0291 213.436 65.3055 213.249 65.6356H213.2L213.347 64.7634H211.679L210.904 69.8154Z" fill="#0075BB"/>
<path fill-rule="evenodd" clip-rule="evenodd" d="M216.431 68.2031C216.625 68.4384 216.862 68.6349 217.129 68.7823C217.355 68.9175 217.612 68.992 217.875 68.9986C218.054 69.0098 218.231 68.9607 218.378 68.859L218.559 68.5171C218.559 68.2938 218.322 68.0775 217.861 67.8542L217.429 67.6239C217.09 67.4531 216.788 67.2158 216.543 66.9261C216.378 66.7042 216.29 66.4348 216.291 66.1585C216.293 65.919 216.354 65.6835 216.47 65.4738C216.585 65.2641 216.752 65.0868 216.954 64.9583C217.447 64.6296 218.031 64.4658 218.622 64.4908C219.432 64.4808 220.214 64.7832 220.806 65.3351L219.766 66.1097C219.577 65.9255 219.364 65.7682 219.131 65.6421C218.938 65.5471 218.726 65.4948 218.51 65.4886C218.347 65.481 218.185 65.5276 218.05 65.6212L217.875 65.9422C217.875 66.1376 218.189 66.3748 218.81 66.6819C218.985 66.7656 219.124 66.8284 219.222 66.8842C219.498 67.0149 219.738 67.2114 219.92 67.4564C220.084 67.678 220.168 67.9486 220.157 68.224C220.163 68.4759 220.107 68.7255 219.994 68.9506C219.881 69.1758 219.714 69.3696 219.508 69.515C219.025 69.866 218.437 70.0409 217.841 70.0104C217.394 70.0165 216.95 69.9335 216.536 69.7662C216.116 69.5885 215.731 69.3381 215.398 69.0265L216.41 68.1542" fill="#0075BB"/>
<path d="M217.861 70.0664C217.409 70.0761 216.96 69.9905 216.543 69.8152C216.12 69.6383 215.733 69.3879 215.398 69.0755L216.424 68.1823C216.615 68.421 216.852 68.6182 217.122 68.7615C217.333 68.8892 217.573 68.9634 217.82 68.9778C217.991 68.987 218.161 68.9378 218.301 68.8382L218.476 68.5172C218.476 68.3149 218.252 68.1055 217.778 67.8822L217.645 67.8055L217.345 67.652C217.005 67.48 216.701 67.2429 216.452 66.9542C216.282 66.729 216.192 66.4544 216.194 66.1726C216.2 65.9262 216.266 65.6851 216.388 65.4708C216.51 65.2565 216.683 65.0757 216.892 64.9445C217.392 64.6176 217.982 64.4542 218.58 64.477C218.988 64.4699 219.394 64.5434 219.773 64.6933C220.146 64.8376 220.488 65.0533 220.778 65.3283L219.739 66.1377C219.546 65.9616 219.333 65.8094 219.104 65.6842C218.915 65.5877 218.708 65.5352 218.496 65.5306C218.338 65.5245 218.182 65.5685 218.05 65.6562L217.882 65.9563C217.882 66.1377 218.189 66.368 218.803 66.6541L218.887 66.696L219.215 66.8634C219.503 66.994 219.754 67.1928 219.948 67.4426C220.112 67.6695 220.198 67.944 220.192 68.2242C220.198 68.4804 220.14 68.7341 220.024 68.9629C219.909 69.1917 219.739 69.3885 219.529 69.536C219.043 69.8916 218.449 70.069 217.847 70.0385M215.447 69.0266C215.769 69.3238 216.143 69.5602 216.55 69.7244C216.961 69.8936 217.403 69.9767 217.847 69.9687C218.438 69.9996 219.022 69.8272 219.501 69.4802C219.702 69.3353 219.864 69.1441 219.974 68.923C220.085 68.7019 220.141 68.4574 220.136 68.2102C220.144 67.9427 220.063 67.68 219.906 67.4636C219.726 67.2184 219.485 67.0237 219.208 66.8983L218.88 66.7309L218.796 66.689C218.148 66.375 217.847 66.1308 217.847 65.9284C217.846 65.8599 217.863 65.7922 217.896 65.7322C217.929 65.6722 217.977 65.6219 218.036 65.5865C218.175 65.4907 218.341 65.4418 218.51 65.4469C218.73 65.4544 218.946 65.5066 219.145 65.6004C219.37 65.7266 219.578 65.8789 219.766 66.054L220.75 65.2864C220.465 65.0326 220.136 64.8317 219.78 64.6933C219.408 64.5435 219.009 64.4699 218.608 64.477C218.022 64.4529 217.443 64.6141 216.954 64.9375C216.755 65.0634 216.592 65.2376 216.478 65.4437C216.365 65.6499 216.305 65.8814 216.305 66.1168C216.303 66.3857 216.389 66.648 216.55 66.8634C216.79 67.1524 217.087 67.3898 217.422 67.5612L217.729 67.7148L217.861 67.7915C218.343 68.0218 218.559 68.2521 218.559 68.4893C218.559 68.5612 218.541 68.6318 218.507 68.6951C218.473 68.7583 218.424 68.8123 218.364 68.8522C218.213 68.9573 218.031 69.0089 217.847 68.9987C217.579 68.9939 217.317 68.9194 217.087 68.7824C216.82 68.6374 216.584 68.4432 216.389 68.2102L215.447 69.0266Z" fill="#0075BB"/>
<path fill-rule="evenodd" clip-rule="evenodd" d="M216.438 41.7848C220.764 41.7848 223.674 45.7414 222.914 50.5911C222.153 55.4408 218.029 59.4044 213.689 59.4044C209.348 59.4044 206.459 55.4478 207.213 50.5911C207.967 45.7344 212.098 41.7848 216.438 41.7848ZM216.71 39.9077C222.411 39.9077 226.284 44.6807 225.335 50.5353C224.386 56.3898 218.957 61.1628 213.263 61.1628C207.569 61.1628 203.689 56.3898 204.638 50.5353C205.587 44.6807 211.009 39.9077 216.71 39.9077Z" fill="#0075BB"/>
<path fill-rule="evenodd" clip-rule="evenodd" d="M180.459 44.2341C186.328 43.6968 188.24 42.6012 189.3 39.9077H190.773L187.409 61.1489H184.702L187.081 45.7135L180.271 45.6088C180.313 45.1482 180.417 44.6877 180.459 44.2132" fill="#0075BB"/>
<path fill-rule="evenodd" clip-rule="evenodd" d="M210.981 44.7784C211.787 46.5837 212.03 48.5898 211.679 50.5353C211.313 52.6671 210.405 54.6689 209.041 56.348L208.888 56.1317L208.706 55.8386L208.539 55.5315L208.392 55.2106L208.253 54.8826L208.134 54.5407L208.022 54.1918C208.637 53.0783 209.055 51.8674 209.258 50.612C209.45 49.4367 209.412 48.2351 209.146 47.0742L209.362 46.7253L209.592 46.3833L209.837 46.0484L210.088 45.7274L210.36 45.4134L210.632 45.1203L210.918 44.8342H210.953M203.054 39.9496C205.234 39.8997 207.353 40.6691 208.992 42.1058L208.888 42.1895L208.441 42.5663L208.015 42.9571L207.611 43.3618L207.332 43.6549C206.74 43.0548 206.033 42.5799 205.254 42.2586C204.475 41.9373 203.639 41.7762 202.796 41.7848C198.476 41.7848 194.331 45.7414 193.571 50.5911C192.81 55.4408 195.72 59.4044 200.047 59.4044C201.931 59.3592 203.748 58.6891 205.21 57.4994L205.308 57.6668L205.587 58.0785L205.894 58.4763L206.215 58.8531L206.299 58.9368C204.355 60.3487 202.023 61.126 199.621 61.1628C193.92 61.1628 190.047 56.3898 190.996 50.5353C191.945 44.6807 197.367 39.9077 203.068 39.9077" fill="#0075BB"/>
<path fill-rule="evenodd" clip-rule="evenodd" d="M188.798 5.28238L190.054 0H200.444L199.223 5.28238H188.798ZM96.3738 32.0502L101.258 9.99256H111.3L110.644 13.4816C112.221 11.109 117.301 8.82025 120.776 9.05751C126.791 9.47619 127.803 11.2765 129.017 14.2771C130.803 11.5626 134.655 9.2808 139.352 9.16915C146.33 9.00167 149.365 12.3721 148.346 16.9566L145.011 32.0222H135.025L138.214 17.466C138.437 16.4682 136.818 14.5283 134.118 14.5283C132.325 14.5283 128.926 17.4172 128.661 18.6314L125.668 32.0222H115.759L118.648 18.9733C118.763 18.4661 118.767 17.9397 118.657 17.4311C118.548 16.9224 118.329 16.4439 118.015 16.029C117.701 15.6141 117.3 15.2729 116.841 15.0293C116.381 14.7857 115.874 14.6457 115.354 14.619C112.563 14.619 109.834 17.4102 109.388 19.4269L106.52 32.0222L96.3738 32.0502ZM49.7325 32.0502L57.3037 0H67.7219L60.1507 32.0502H49.7325ZM230.813 23.3346C229.871 25.8885 227.191 29.6567 224.184 31.0104C221.066 32.261 217.767 33.0031 214.414 33.2085C208.748 33.7249 201.324 32.0013 199.851 29.4892C197.8 27.8912 196.132 22.232 199.544 17.5219C200.629 16.0002 201.871 14.5968 203.249 13.335C205.042 11.88 207.112 10.8066 209.334 10.181C211.843 9.41232 214.456 9.04032 217.08 9.07844C221.302 9.07844 225.768 9.77624 228.308 11.2765C229.582 11.9439 230.596 13.0177 231.19 14.3273C231.784 15.637 231.924 17.1076 231.587 18.5058L221.462 18.4639C221.218 16.9078 220.89 14.7097 217.973 14.2771C215.559 13.9142 213.87 14.7376 212.16 15.882C210.953 16.6775 208.804 19.8525 208.909 22.6438C208.832 29.6706 214.589 27.7238 215.677 27.6051C218.113 27.326 220.381 24.6534 220.353 23.3834L230.813 23.3346ZM19.6502 20.0968H32.2107L28.7216 6.83848L19.6502 20.0968ZM0.579193 32.0502L24.6325 0H37.3325L47.7368 32.0502H35.5741L34.0389 26.1328H15.2401L10.9904 32.0502H0.579193ZM76.1025 18.5756H87.5116C87.721 17.3614 87.8954 15.6517 86.6952 14.6748C85.6396 13.9127 84.3817 13.4804 83.0806 13.4327C81.4408 13.4643 79.8382 13.9264 78.4332 14.7725C77.3012 15.7936 76.4913 17.1224 76.1025 18.5965M96.1574 25.093C93.3662 30.8429 84.8111 34.2622 75.5164 32.727C69.934 32.0292 64.6725 31.0942 64.6725 23.7463C64.9307 15.7494 71.0155 10.1531 82.0478 9.1552C91.3565 8.30388 97.0716 11.8976 97.3297 17.0823C97.4344 19.0291 96.7227 21.1156 96.4156 23.209H75.0419C74.4836 25.7071 75.8374 28.596 79.2915 28.596C81.9362 28.596 84.5529 26.9004 85.4322 25.107L96.1574 25.093ZM169.218 14.2701C167.539 13.9588 165.805 14.2288 164.3 15.0356C162.796 15.8424 161.611 17.1378 160.942 18.7081C155.799 28.4774 167.843 31.3035 171.758 22.8182C173.656 18.7012 172.127 14.9051 169.218 14.2701ZM147.216 32.0502L154.78 0H164.598L161.611 13.2025C164.354 10.474 168.59 9.14821 173.474 9.14821C183.578 9.14821 184.639 17.6614 182.546 23.1601C180.62 28.3378 174.228 33.7319 166.999 33.0271C164.803 32.8869 162.655 32.3279 160.669 31.3803C159.585 30.7992 158.715 29.8873 158.185 28.7774L157.529 32.0502H147.216ZM182.713 32.0502L187.912 9.89487H198.316L193.089 32.0502H182.713Z" fill="#0075BB"/>
</svg>
