<svg width="89" height="120" viewBox="0 0 89 120" fill="none" xmlns="http://www.w3.org/2000/svg">
<path d="M65.2436 12.3794C72.9162 17.7254 76.4631 26.334 75.1407 35.4532C74.048 42.5386 69.1327 48.7576 62.8268 52.5718C57.8536 60.5183 48.6425 64.4414 39.1539 62.7496C32.4975 61.5242 26.3789 57.0174 22.8983 50.9787C15.0113 45.7809 11.255 37.0616 12.4822 27.6769C13.7365 20.4928 18.0987 13.4687 25.1721 10.3609C30.3513 2.57941 39.4024 -1.296 48.7327 0.388966C55.4368 1.72162 61.6695 6.02253 65.2436 12.3794Z" fill="black"/>
<path d="M63.4975 11.0616C54.7016 6.58023 44.5186 7.97245 39.3089 11.8462C32.2848 16.5777 28.9676 23.9524 28.6272 32.1117C28.8485 36.3105 30.7224 40.0412 33.888 43.0316C26.8435 39.3298 22.0984 31.7287 21.952 23.92C21.8261 15.4833 25.9398 8.03032 33.374 3.62729C37.7328 1.21217 42.8422 -0.0779343 48.1847 0.997723C54.3731 1.99849 59.9965 5.59818 63.4975 11.0616Z" fill="#F58220"/>
<path d="M63.4975 11.0616C54.7016 6.58023 44.5186 7.97245 39.3089 11.8462C32.2848 16.5777 28.9676 23.9524 28.6272 32.1117C28.8485 36.3105 30.7224 40.0412 33.888 43.0316C26.8435 39.3298 22.0984 31.7287 21.952 23.92C21.8261 15.4833 25.9398 8.03032 33.374 3.62729C37.7328 1.21217 42.8422 -0.0779326 48.1847 0.997721C54.3731 1.99849 59.9965 5.59818 63.4975 11.0616Z" stroke="black" stroke-width="0.719642" stroke-miterlimit="2.613" stroke-linejoin="bevel"/>
<path d="M72.349 21.8438C75.8602 28.5122 75.256 38.1811 70.8223 44.2606C69.2089 46.6128 66.9605 49.05 64.382 50.3741C66.6644 45.4775 67.5818 38.9096 65.8696 33.5602C64.028 25.9558 56.6227 19.0457 49.0914 17.1616C42.8792 15.3218 35.8568 17.017 31.7227 22.0582C33.6408 17.0442 38.4983 12.3944 43.5838 10.3197C51.4367 7.50118 61.1925 9.09594 67.1597 14.9082C69.3569 16.9217 71.2257 19.2908 72.349 21.8438Z" fill="#FDD1B0"/>
<path d="M72.349 21.8438C75.8602 28.5122 75.256 38.1811 70.8223 44.2606C69.2089 46.6128 66.9605 49.05 64.382 50.3741C66.6644 45.4775 67.5818 38.9096 65.8696 33.5602C64.028 25.9558 56.6227 19.0457 49.0914 17.1616C42.8792 15.3218 35.8568 17.017 31.7227 22.0582C33.6408 17.0442 38.4983 12.3944 43.5838 10.3197C51.4367 7.50118 61.1925 9.09594 67.1597 14.9082C69.3569 16.9217 71.2257 19.2908 72.349 21.8438Z" stroke="black" stroke-width="0.719642" stroke-miterlimit="2.613" stroke-linejoin="bevel"/>
<path d="M24.0633 11.8415C20.176 18.8826 20.3326 29.4145 25.0079 35.9672C29.9998 42.53 37.0086 47.2258 45.5304 46.4207C49.559 45.8267 53.22 43.7537 55.9738 40.4451C52.8932 48.5091 44.2574 54.0763 35.664 53.935C27.3822 53.9622 19.9326 49.7753 15.8104 42.5096C11.809 36.2956 12.0933 26.7203 15.6402 20.348C17.5022 16.9032 20.4653 13.6541 24.0633 11.8415Z" fill="#FDD1B0"/>
<path d="M24.0633 11.8415C20.176 18.8826 20.3326 29.4145 25.0079 35.9672C29.9998 42.53 37.0086 47.2258 45.5304 46.4207C49.559 45.8267 53.22 43.7537 55.9738 40.4451C52.8932 48.5091 44.2574 54.0763 35.664 53.935C27.3822 53.9622 19.9326 49.7753 15.8104 42.5096C11.809 36.2956 12.0933 26.7203 15.6402 20.3481C17.5022 16.9032 20.4653 13.6541 24.0633 11.8415Z" stroke="black" stroke-width="0.719642" stroke-miterlimit="2.613" stroke-linejoin="bevel"/>
<path d="M57.097 26.4999C59.2926 31.5514 57.6978 37.8862 53.8207 41.6799C50.9273 44.4609 47.4025 45.6472 43.5441 45.8804C38.5471 45.4974 33.9364 43.0857 31.3494 38.6486C28.6568 34.2082 28.7454 27.1926 32.054 23.118C33.0071 21.5267 34.624 20.5361 36.0349 19.4315C40.0857 16.7441 46.2145 16.4326 50.4542 18.8852C53.4037 20.5055 55.8869 23.421 57.097 26.4999Z" fill="white"/>
<path d="M57.097 26.4999C59.2926 31.5514 57.6978 37.8862 53.8207 41.6799C50.9273 44.4609 47.4025 45.6472 43.5441 45.8804C38.5471 45.4974 33.9364 43.0857 31.3494 38.6486C28.6568 34.2082 28.7454 27.1926 32.054 23.118C33.0071 21.5267 34.624 20.5361 36.0349 19.4315C40.0857 16.7441 46.2145 16.4326 50.4542 18.8852C53.4037 20.5055 55.8869 23.421 57.097 26.4999Z" stroke="black" stroke-width="0.719642" stroke-miterlimit="2.613" stroke-linejoin="bevel"/>
<path d="M65.2604 34.3252C65.4459 34.8239 65.4731 34.9039 65.5429 35.2783C67.4764 44.8247 63.0836 54.2043 55.1013 59.2184C48.7835 63.3457 38.752 63.5738 32.3032 59.4754C29.2992 57.9045 26.5964 55.2443 24.6953 52.2981C26.3411 52.7781 27.7265 53.4691 29.386 53.9269C39.3698 56.5242 49.3247 52.47 54.9464 44.0758C58.5512 39.1214 60.1476 31.2157 57.4483 25.4646C56.4713 23.2316 54.5907 21.2284 52.6997 19.4856L52.7559 19.3835C58.8405 21.899 63.7371 28.1453 65.2604 34.3252Z" fill="#F58220"/>
<path d="M65.2604 34.3252C65.4459 34.8239 65.4731 34.9039 65.5429 35.2783C67.4764 44.8247 63.0836 54.2043 55.1013 59.2184C48.7835 63.3457 38.752 63.5738 32.3032 59.4754C29.2992 57.9045 26.5964 55.2443 24.6953 52.2981C26.3411 52.7781 27.7265 53.4691 29.386 53.9269C39.3698 56.5242 49.3247 52.47 54.9464 44.0758C58.5512 39.1214 60.1476 31.2157 57.4483 25.4646C56.4713 23.2316 54.5907 21.2284 52.6997 19.4856L52.7559 19.3835C58.8405 21.899 63.7371 28.1453 65.2604 34.3252Z" stroke="black" stroke-width="0.719642" stroke-miterlimit="2.613" stroke-linejoin="bevel"/>
<path d="M61.9166 90.3854C61.9166 92.8908 62.1821 94.797 62.7148 96.1024C63.2475 97.4095 64.0968 98.2418 65.2508 98.5924C65.5622 98.6894 65.9877 98.7592 66.5256 98.8035C67.3085 98.8732 67.7016 99.0894 67.7016 99.4553C67.7016 99.6766 67.6182 99.84 67.4463 99.9319C67.2812 100.022 66.9408 100.066 66.4268 100.066H56.94C56.4702 100.066 56.1537 100.022 55.9937 99.9319C55.832 99.84 55.7486 99.6766 55.7486 99.4553C55.7486 99.0894 56.0856 98.8783 56.7596 98.8239C56.9928 98.8086 57.1578 98.7984 57.2668 98.7813C58.385 98.555 59.2394 97.7329 59.8249 96.3135C60.4103 94.894 60.7048 92.9435 60.7048 90.4722V72.4108C60.1414 71.359 59.0164 70.7905 57.3502 70.7054C56.957 70.6884 56.6507 70.668 56.4379 70.6407C56.1384 70.6288 55.9154 70.5692 55.7605 70.462C55.6039 70.3599 55.5273 70.2084 55.5273 70.0076C55.5273 69.771 55.609 69.6025 55.7809 69.5004C55.946 69.4034 56.2575 69.3557 56.7017 69.3557H66.934C67.1723 69.3557 67.3646 69.3762 67.4991 69.4204C67.6336 69.463 67.7476 69.5327 67.8412 69.6315C67.8718 69.657 67.9654 69.9055 68.1254 70.365C68.2871 70.8297 68.4828 71.2228 68.7109 71.5479L82.2876 92.6848V78.7235C82.2876 76.3032 82.0238 74.4583 81.5013 73.1937C80.9737 71.9308 80.1397 71.1428 78.9892 70.8297C78.6947 70.748 78.2641 70.6833 77.6957 70.6407C76.9026 70.5863 76.5043 70.3752 76.5043 70.0076C76.5043 69.771 76.5979 69.6025 76.7783 69.5004C76.9604 69.4034 77.2906 69.3557 77.7791 69.3557H87.4259C87.8701 69.3557 88.1816 69.4034 88.362 69.5004C88.5441 69.6025 88.636 69.771 88.636 70.0076C88.6207 70.3752 88.2854 70.5863 87.6268 70.6407C87.3834 70.656 87.2081 70.668 87.0991 70.6833C85.8618 70.9369 84.9495 71.7096 84.3709 73.0048C83.7905 74.2949 83.4994 76.1909 83.4994 78.6792V94.0566C83.9198 94.6081 84.4781 95.0285 85.1776 95.3195C85.8771 95.6173 86.2294 95.8658 86.2294 96.0599C86.2294 96.2011 85.8516 96.4598 85.0959 96.8326C84.3436 97.2036 83.6816 97.6104 83.1165 98.041C82.4953 98.5056 81.8945 99.0894 81.3039 99.7957C80.7184 100.499 80.3882 100.849 80.3048 100.849C80.0938 100.849 79.7925 100.546 79.4147 99.9421C79.3466 99.84 79.3007 99.7685 79.2751 99.731L61.9166 72.455V90.3854Z" fill="black"/>
<path d="M81.7648 116.045V114.497H84.2174L81.7818 108.655L81.7648 108.692V106.757H82.9664L88.8298 120H86.5099L84.8437 116.045H81.7648ZM81.7648 106.757V108.692L79.3122 114.497H81.7648V116.045H78.6536L76.9754 120H74.7612L80.6075 106.757H81.7648ZM49.5565 114.329V112.801H49.5769C50.8959 112.801 51.8269 112.618 52.3733 112.259C52.9162 111.9 53.1902 111.303 53.1902 110.462C53.1902 109.676 52.9349 109.123 52.4209 108.798C51.9069 108.476 50.9589 108.312 49.5769 108.312H49.5565V106.757H49.9309C50.9181 106.757 51.6482 106.794 52.1146 106.864C52.5809 106.939 53.0013 107.058 53.3689 107.223C54.0327 107.531 54.5348 107.957 54.882 108.5C55.2292 109.046 55.3994 109.688 55.3994 110.425C55.3994 111.139 55.2173 111.75 54.8564 112.258C54.4922 112.763 53.9527 113.16 53.2345 113.447C53.8421 113.592 54.2812 113.835 54.5399 114.176C54.7986 114.516 54.9586 115.097 55.0249 115.91L55.2071 118.095C55.2428 118.562 55.316 118.911 55.4249 119.14C55.5389 119.372 55.7023 119.537 55.9253 119.632V120H53.4557C53.2566 119.724 53.117 119.135 53.0404 118.23V118.187L52.9094 116.45C52.8362 115.563 52.6149 114.989 52.2354 114.726C51.8729 114.47 50.9776 114.338 49.5565 114.329ZM60.3232 108.718V120H58.3574V106.757H61.4125L65.31 116.889C65.4241 117.176 65.5075 117.401 65.5585 117.561C65.613 117.718 65.6538 117.859 65.6828 117.978C65.7406 117.757 65.7951 117.558 65.8547 117.386C65.9125 117.21 65.9704 117.045 66.0368 116.889L70.0773 106.757H73.1392V120H71.0678V108.718C71.0168 108.908 70.9623 109.102 70.8976 109.298C70.8347 109.492 70.7649 109.684 70.6934 109.875L66.6461 120H64.6258L60.6755 109.875C60.604 109.71 60.5411 109.529 60.4832 109.339C60.4236 109.145 60.3743 108.939 60.3232 108.718ZM49.5565 106.757V108.312H45.9227V112.801H49.5565V114.329H49.405H45.9449V120H43.8293V106.757H49.5565ZM35.139 116.045V114.497H37.5915L35.156 108.655L35.139 108.692V106.757H36.3406L42.2039 120H39.8841L38.2179 116.045H35.139ZM6.3346 112.819H6.45203C7.69789 112.819 8.571 112.649 9.06288 112.316C9.55815 111.979 9.80664 111.403 9.80664 110.588C9.80664 109.802 9.56155 109.237 9.06968 108.896C8.57781 108.556 7.76086 108.384 6.61202 108.384H6.3346V106.757H6.51671C7.4579 106.757 8.17274 106.798 8.66461 106.874C9.15308 106.951 9.59389 107.079 9.97684 107.261C10.6185 107.555 11.1121 107.987 11.4508 108.564C11.7929 109.14 11.9648 109.814 11.9648 110.588C11.9648 111.323 11.7929 111.975 11.4508 112.54C11.1121 113.102 10.6117 113.553 9.95471 113.886C9.58028 114.081 9.13436 114.215 8.62377 114.295C8.15061 114.373 7.38812 114.412 6.3346 114.417V112.819ZM35.139 106.757V108.692L32.6864 114.497H35.139V116.045H32.0277L30.3496 120H28.137L33.9816 106.757H35.139ZM14.0684 120V106.757H16.2061V112.198H24.3654V106.757H26.5133V120H24.3654V113.798H16.2061V120H14.0684ZM2.86255 112.819H6.3346V114.417H6.10823H2.86255V120H0.726562V106.757H6.3346V108.384H2.86255V112.819Z" fill="black"/>
<path d="M28.3555 79.2034C28.3555 75.8999 28.1904 73.7826 27.8585 72.8533C27.5266 71.9257 26.9309 71.2824 26.0714 70.9147C25.7464 70.7752 25.217 70.6782 24.4818 70.6186C23.7465 70.5641 23.3789 70.3429 23.3789 69.965C23.3789 69.7438 23.4572 69.5821 23.6121 69.4902C23.767 69.3983 24.0631 69.3557 24.492 69.3557H38.9555C39.4678 69.3557 39.8099 69.3983 39.9852 69.4902C40.1622 69.5821 40.2507 69.7438 40.2507 69.965C40.2507 70.3327 39.7996 70.5539 38.8942 70.6407C38.4381 70.6833 38.0653 70.7326 37.7794 70.7854C36.5523 70.9964 35.7081 71.5904 35.2536 72.5623C34.7924 73.529 34.5643 75.7484 34.5643 79.2034V91.6926C34.5643 93.015 34.6375 94.0345 34.7873 94.7527C34.9371 95.471 35.1805 96.1024 35.5175 96.6539C36.0808 97.5933 36.9301 98.3065 38.0653 98.7813C39.1988 99.2613 40.5877 99.4996 42.2335 99.4996C45.2936 99.4996 47.5096 98.732 48.8763 97.1985C50.2498 95.6667 50.9323 93.1665 50.9323 89.6893V78.5941C50.9323 76.2011 50.6634 74.3766 50.1256 73.1069C49.5861 71.844 48.7521 71.0832 47.6339 70.8297C47.2969 70.748 46.868 70.6833 46.3404 70.6407C45.5166 70.5692 45.1013 70.3429 45.086 69.965C45.086 69.7438 45.1694 69.5821 45.3294 69.4902C45.4911 69.3983 45.8008 69.3557 46.2621 69.3557H55.8272C56.3395 69.3557 56.6799 69.3983 56.8467 69.4902C57.0169 69.5821 57.1003 69.7438 57.1003 69.965C57.1003 70.3157 56.7786 70.5165 56.1319 70.5539C55.8306 70.5863 55.6094 70.6135 55.463 70.6407C54.3976 70.8348 53.5789 71.6177 53.0036 72.9844C52.4284 74.3442 52.1441 76.1909 52.1441 78.5073V90.3412C52.1441 94.0736 51.2336 96.7509 49.4159 98.3916C47.593 100.029 44.6043 100.849 40.4515 100.849C38.4278 100.849 36.605 100.616 34.9796 100.153C33.3576 99.6885 32.0012 99.0128 30.9238 98.1278C29.9809 97.3551 29.3188 96.47 28.9308 95.471C28.5478 94.4736 28.3555 92.9503 28.3555 90.9148V79.2034Z" fill="black"/>
<path d="M22.8576 76.3489C22.941 76.5701 22.9921 76.7437 23.0176 76.8612C23.0449 76.9854 23.0602 77.0824 23.0602 77.1692C23.0602 77.3956 23.0176 77.5692 22.941 77.6866C22.8576 77.8058 22.7385 77.8653 22.5734 77.8653C22.2517 77.8653 21.6918 77.2067 20.8953 75.8842C20.4647 75.183 20.1123 74.6094 19.8434 74.1771C18.9839 72.8547 17.8027 71.7586 16.3067 70.8957C14.8056 70.0311 13.3197 69.6005 11.8322 69.6005C9.95831 69.6005 8.44184 70.0753 7.28109 71.0251C6.12203 71.9697 5.54166 73.2002 5.54166 74.7013C5.54166 75.4196 5.69143 76.0629 5.98588 76.6348C6.28202 77.2016 6.74156 77.7258 7.36448 78.2006C7.88699 78.6108 10.2017 79.3937 14.3035 80.5442C15.3808 80.8523 16.2131 81.094 16.8088 81.2625C19.4401 82.0182 21.3871 83.1193 22.6551 84.5507C23.9248 85.9855 24.5562 87.7998 24.5562 89.992C24.5562 93.0436 23.4533 95.5489 21.2476 97.5079C19.0469 99.4686 16.1927 100.451 12.7036 100.451C11.7709 100.451 10.777 100.366 9.72003 100.187C8.65799 100.013 8.05719 99.9213 7.90742 99.9213C7.2079 99.9213 6.59689 100.304 6.0897 101.072C5.5774 101.839 5.24551 102.222 5.09574 102.222C4.9766 102.222 4.87278 102.18 4.79449 102.086C4.71279 101.994 4.61918 101.807 4.51026 101.526L0.284233 91.5969C0.228067 91.4557 0.1719 91.3042 0.103821 91.1527C0.0374434 90.9961 0 90.8991 0 90.8566C0 90.6455 0.0476568 90.4787 0.139564 90.3494C0.238279 90.2251 0.362523 90.1605 0.527616 90.1605C0.782913 90.1605 1.29521 90.7272 2.0611 91.8658C2.8321 93.0045 3.62012 94.0052 4.42856 94.863C5.831 96.3795 7.23003 97.4807 8.62736 98.1666C10.0196 98.8474 11.548 99.1878 13.2108 99.1878C15.1102 99.1878 16.6641 98.6704 17.8708 97.6373C19.0775 96.6008 19.6834 95.2783 19.6834 93.6631C19.6834 91.1323 16.7475 88.9946 10.8808 87.2501C10.4655 87.1258 10.1557 87.0339 9.9532 86.9743C6.44711 85.9055 4.01838 84.7073 2.67212 83.378C1.32074 82.0505 0.646754 80.2855 0.646754 78.0764C0.646754 75.36 1.69858 73.0759 3.80053 71.2242C5.90929 69.3673 8.52864 68.438 11.6722 68.438C12.6049 68.438 13.6601 68.5521 14.8362 68.7852C16.0174 69.0167 16.7322 69.1341 16.9739 69.1341C17.6479 69.1341 18.1244 68.8057 18.3984 68.1419C18.6742 67.4832 18.8954 67.1547 19.0571 67.1547C19.149 67.1547 19.2426 67.2126 19.3311 67.3317C19.4196 67.4509 19.5115 67.667 19.6205 67.9751L22.8576 76.3489Z" fill="black"/>
</svg>
