<svg width="160" height="100" viewBox="0 0 160 100" fill="none" xmlns="http://www.w3.org/2000/svg">
<path d="M109.882 10.9727H110.426L110.893 11.2061L111.127 11.5174V41.3228H157.663L158.13 41.6341L158.286 41.9454V42.4123L157.897 42.8793L157.741 42.9571H109.648L109.259 42.568L109.181 18.0544L107.936 21.8676L106.847 25.2139L105.446 29.4941L104.201 33.3073L103.111 36.6536L101.788 40.7003L100.699 44.0466L99.298 48.3267L98.2085 51.673L97.2747 54.5524L96.8077 54.9415L96.6521 55.0193H96.1074L95.6404 54.7859L95.407 54.4746L95.3292 37.1983L90.7378 53.2295L90.3486 54.5524L89.9595 54.9415L89.7261 55.0193H89.1813L88.6366 54.708L88.481 54.3968L88.4031 37.1983L87.2358 41.3228L83.5004 54.3968L83.267 54.7859L82.8001 55.0193H82.2553L81.7884 54.7859L81.5549 54.3968L81.4771 37.2761L76.8857 53.3851L76.4966 54.5524L76.1075 54.9415L75.874 55.0193H75.3293L74.8624 54.708L74.6289 54.3189V19.3773L74.8624 18.9104L75.2515 18.6769H75.9519L76.341 18.9104L76.5744 19.2217L76.6522 46.926L81.2436 30.8948L81.6328 29.5719L82.0997 29.1828L82.7222 29.1049L83.1892 29.3384L83.5004 29.7275L83.5783 46.926L84.7456 42.8014L88.1697 30.817L88.5588 29.5719L89.0257 29.1828L89.6483 29.1049L90.1152 29.3384L90.3486 29.5719L90.4265 29.8053L90.5043 46.8481L95.0957 30.7392L95.4848 29.5719L95.7961 29.2606L96.1852 29.1049L96.8077 29.1828L97.1969 29.4941L97.3525 29.8832L97.4303 47.7042L99.1424 42.4902L100.232 39.1439L101.477 35.3306L102.566 31.9843L103.967 27.7042L105.212 23.8909L106.302 20.5446L107.703 16.2645L108.792 12.9182L109.259 11.5174L109.57 11.1283L109.882 10.9727Z" fill="#1696C9"/>
<path d="M68.4042 10.9727H68.949L69.4159 11.2061L69.6494 11.5174V42.3345L69.2603 42.8014L69.1046 42.8793H68.3264L67.8595 42.568L67.7038 42.1011V18.21L67.7817 18.0544H67.626L67.4704 18.8326L66.3031 22.3345L65.2136 25.6808L56.4977 52.3734L55.7973 54.5524L55.3304 54.9415L55.1747 55.0193H54.63L54.1631 54.7859L53.9296 54.4746L53.8518 33.6964L52.6845 35.7976L51.595 37.6653L50.5055 39.6108L49.416 41.4785L48.7935 42.568L48.4044 42.8793H0.622564L0.155641 42.568L0 42.3345V41.7898L0.389103 41.3228L0.933846 41.1672H47.3149L47.7818 40.4668L48.9491 38.3656L50.0386 36.4979L51.1281 34.5524L52.2176 32.6847L53.307 30.7392L54.0853 29.4162L54.3965 29.1828L55.0969 29.1049L55.5638 29.3384L55.7973 29.6497L55.8751 29.8832L55.9529 47.7042L57.5094 42.9571L58.5988 39.6108L59.9996 35.3306L61.0891 31.9843L62.412 27.9376L63.5015 24.5913L64.9023 20.3112L65.9918 16.9649L67.3147 12.9182L67.7817 11.5174L68.0929 11.1283L68.4042 10.9727Z" fill="#1696C9"/>
<path d="M88.0155 87.3926H89.8053L89.8832 94.7856L90.2723 95.019H92.5291V92.4509L92.8403 91.5949L93.3851 90.9723L94.1633 90.5832L94.3968 90.5054H98.0543V92.2953L94.6302 92.3731L94.3968 92.6066V94.7078L94.5524 94.9412L94.7859 95.019H100.545L100.934 94.6299L101.012 87.3926H102.724V95.019L102.412 95.7972L102.101 96.1863L101.401 96.6533L100.934 96.8089H89.8053L89.105 96.4976L88.7937 96.4198L88.2489 96.7311L87.9377 96.8089H75.7198L75.0973 96.5755L74.786 96.4976L74.0856 96.8089H57.8211L57.0429 96.4976L56.576 96.1085L56.1091 95.3303L56.0312 95.0969V92.2175L56.4204 91.4393L56.9651 90.8945L57.5877 90.5832L57.8989 90.5054H60.6227L61.323 90.8167L61.9456 91.3614L62.3347 91.984L62.4125 92.2175V95.0969L73.6187 95.019L73.93 94.7078L74.0078 90.5054H75.7977L75.8755 94.7856L76.1089 95.019L78.9105 95.0969V92.4509L79.2218 91.5949L79.7665 90.9723L80.4669 90.5832L80.7782 90.5054H83.5019L84.2801 90.8167L84.9027 91.3614L85.2918 92.0618L85.3696 92.3731V95.019H87.5486L87.8598 94.9412L87.9377 94.7078L88.0155 87.3926ZM58.0546 92.2953L57.7433 92.6844V94.6299L58.0546 95.019L58.2102 95.0969H60.2336L60.5448 94.9412L60.7005 94.6299V92.6844L60.3892 92.2953H58.0546ZM81.0116 92.2953L80.7003 92.6066V95.0969H83.1128L83.5019 94.8634L83.5797 94.7856V92.5288L83.3462 92.2953H81.0116Z" fill="#1696C9"/>
<path d="M28.4051 87.3926H30.195L30.2728 90.5054H34.4751L35.2533 90.8167L35.8759 91.3614L36.1871 91.8284L36.3428 92.2953V95.0969L39.0665 95.019L39.3778 94.8634L39.4556 94.7078L39.5334 87.3926H41.3233V94.7078L41.0898 95.5638L40.5451 96.2642L39.7669 96.7311L39.4556 96.8089H25.2923L24.5919 96.4976L24.2806 96.5755L23.658 96.8089H19.9227L19.3001 96.5755L18.9888 96.4976L18.2884 96.8089H2.02394L1.24574 96.4976L0.700994 96.0307L0.234071 95.0969L0.15625 94.6299V92.6844L0.311891 91.984L0.778814 91.2058L1.55702 90.6611L2.10176 90.5054H4.74766L5.44804 90.7389L6.22625 91.4393L6.53753 91.984L6.61535 92.2953V95.0969L17.8215 95.019L18.1328 94.7078L18.2106 90.5054H20.0005L20.0783 94.8634L20.3118 95.019H23.1911L23.4246 94.9412L23.5024 94.7856L23.5802 90.5054H25.3701L25.4479 94.7856L25.7592 95.019L28.4051 95.0969V87.3926ZM2.2574 92.2953L1.94612 92.6844V94.7078L2.2574 95.019L2.41304 95.0969H4.43638L4.74766 94.9412L4.9033 94.6299V92.6844L4.59202 92.2953H2.2574ZM30.4284 92.2953L30.195 92.6066V95.0969H34.086L34.4751 94.8634L34.6307 94.5521V92.7622L34.3973 92.3731L34.3195 92.2953H30.4284Z" fill="#1696C9"/>
<path d="M144.434 61.8677H156.029L157.041 62.1011L157.741 62.4902L158.286 63.035L158.675 63.8132L158.83 64.5136V69.8832L158.597 70.6614L158.13 71.4397L157.507 71.9844L156.885 72.2957L155.64 72.5292H152.449L153.305 73.7743L154.395 75.3307L155.251 76.5758L156.34 78.1323L157.196 79.3774L158.13 80.7004V80.7782H154.862L154.317 80.0778L153.694 79.1439L149.881 73.5408L149.648 73.1517L149.57 72.607L149.725 71.7509L150.114 71.1284L150.659 70.8171L150.971 70.7393L154.161 70.6614L155.017 70.3502L155.484 70.0389L155.873 69.3385L155.951 69.105V66.07L155.562 65.2918L155.017 64.8249L154.317 64.5136L153.928 64.4358L147.157 64.3579V80.7782H144.434V61.8677Z" fill="#0F293B"/>
<path d="M66.5352 61.8677H69.3367V70.0389H78.753V61.8677H81.4767V80.7782H78.753V72.5292H69.3367V80.7782H66.5352V61.8677Z" fill="#0F2A3C"/>
<path d="M129.102 61.8677H139.297V64.3579L130.892 64.4358L130.036 64.7471L129.413 65.2918L129.102 65.9144L129.024 66.2257L128.946 70.0389H139.297V72.5292H128.946L129.024 76.3424L129.335 77.1984L129.725 77.6653L130.658 78.1323L131.048 78.2101L139.297 78.2879V80.7782H129.802L128.713 80.6225L127.779 80.3112L127.157 79.9221L126.612 79.3774L126.3 78.677L126.223 78.2879V64.6692L126.456 63.8132L126.845 63.035L127.468 62.4124L128.324 62.0233L129.102 61.8677Z" fill="#0F293B"/>
<path d="M51.4419 61.8677H61.4029V64.3579L53.0761 64.4358L52.3757 64.6692L51.7531 65.214L51.5197 65.6031L51.4419 65.9922V68.249L51.7531 68.9494L52.1422 69.4163L52.9204 69.8054L53.6987 69.9611L58.6792 70.0389L59.613 70.2723L60.2356 70.5836L60.6247 70.8949L61.0916 71.5953L61.4029 72.607V78.0544L61.0916 79.0661L60.7803 79.533L60.2356 80.0778L59.3017 80.5447L58.2122 80.7782H48.6403L48.5625 80.7004V78.3657L48.6403 78.2879L56.578 78.2101L57.434 77.8988L57.901 77.5875L58.2901 77.1206L58.5235 76.5758V74.0856L58.2901 73.5408L57.8231 72.9961L57.1228 72.6848L56.8115 72.607L51.6753 72.5292L50.6637 72.2957L50.0411 71.9844L49.2629 71.284L48.796 70.5058L48.6403 70.1167L48.5625 69.572V64.8249L48.796 63.7354L49.2629 62.9572L49.8076 62.4124L50.6637 62.0233L51.4419 61.8677Z" fill="#0F293C"/>
<path d="M93.773 61.7119H95.3294L96.1855 62.0232L96.8858 62.6458L97.2749 63.2683L98.131 65.603L99.6874 70.0388L101.01 73.7742L102.722 78.5991L103.423 80.5446V80.7781H100.543L99.5317 77.9765L98.987 76.4201V76.2644H90.1155L89.882 77.0426L88.6369 80.6224L88.559 80.7781H85.6797L85.7575 80.3111L87.3139 75.8753L88.4812 72.6069L90.1933 67.782L91.6719 63.6574L92.061 62.8792L92.6835 62.1788L93.4617 61.7897L93.773 61.7119ZM94.4734 62.4901L92.6057 68.638L91.0493 73.852V74.0076H98.131L97.9753 73.2294L96.5746 68.7936L94.8625 63.2683L94.629 62.4901H94.4734Z" fill="#0F293C"/>
<path d="M8.09333 61.7119H9.72756L10.4279 61.9454L11.1283 62.4901L11.6731 63.3462L12.5291 65.6808L14.1633 70.35L15.3306 73.6185L16.8092 77.8209L17.8209 80.6224V80.7781H14.9415L14.5524 79.8442L13.3851 76.4979V76.2644L4.51359 76.3423L3.34628 79.6886L2.95718 80.7781H0L0.233462 79.9998L1.71205 75.7975L2.87936 72.529L5.36962 65.5251L6.14782 63.424L6.53692 62.7236L7.15949 62.101L8.09333 61.7119ZM8.87154 62.4123L7.70423 66.2255L6.30346 70.8948L5.44744 73.7742V74.0076H12.5291L12.2956 73.0738L10.5836 67.6263L9.02718 62.6458L8.87154 62.4123Z" fill="#0F293C"/>
<path d="M118.444 90.5059H120.234V95.0973H130.973L130.817 94.5526V93.5409L131.129 92.9183L131.751 92.3736L130.817 92.2957V90.5059H136.109L136.887 90.8171L137.354 91.2062L137.821 91.9845L137.977 92.607V94.7082L137.899 95.0973L143.658 95.0195L143.969 94.8638L144.047 94.7082V92.607L143.813 92.3736L140.389 92.2957V90.5059H144.047L144.825 90.8171L145.448 91.3619L145.837 92.1401L145.915 92.4514V94.8638L145.603 95.7199L144.981 96.4203L144.358 96.7315L144.125 96.8094H120.234V97.7432L120 98.6771L119.533 99.2996L118.911 99.7666L118.522 99.9222L118.055 100H116.187L116.109 99.9222V98.2101L118.055 98.1323L118.366 97.821L118.444 90.5059ZM134.164 92.2957L134.631 92.9183L134.864 93.3074L134.942 93.6187V94.5526L134.786 95.0973H135.72L136.109 94.8638L136.187 94.7082V92.6848L135.876 92.2957H134.164ZM132.685 93.4631L132.296 93.8522V94.3191L132.607 94.6304L132.996 94.7082L133.386 94.4747L133.541 94.2413L133.463 93.6965L133.152 93.4631H132.685Z" fill="#1696C9"/>
<path d="M111.129 41.3232H157.666L158.132 41.6345L158.288 41.9458V42.4127L157.899 42.8797L157.743 42.9575H111.129V41.3232Z" fill="#0F293B"/>
<path d="M21.9453 61.8677H24.669L24.7469 76.498L24.9803 77.2762L25.3694 77.7432L25.992 78.0544L26.6145 78.2101L34.9413 78.2879V80.7782H25.8363L24.3577 80.5447L23.3461 80.1556L22.5679 79.4552L22.1788 78.677L21.9453 77.5875V61.8677Z" fill="#0F293B"/>
<path d="M0.933846 41.1675H39.2215L39.2994 41.2453V42.8795H0.622564L0.155641 42.5683L0 42.3348V41.79L0.389103 41.3231L0.933846 41.1675Z" fill="#0F2D41"/>
<path d="M118.287 61.8677H121.477L121.322 62.2568L120.154 64.1245L118.909 66.1478L115.874 71.0506L116.03 71.4397L117.119 73.2295L118.131 74.8638L119.221 76.6537L120.232 78.2879L121.322 80.0778L121.711 80.7782H118.442L117.197 78.7548L116.108 77.0428L114.94 75.1751L114.007 73.6965L113.073 72.14L112.684 71.284L112.761 70.8171L113.306 69.8832L114.24 68.4046L115.485 66.3813L117.508 63.1128L118.287 61.8677Z" fill="#E7222B"/>
<path d="M80.8563 0H81.4011L81.868 0.311284L82.0236 0.700389L81.9458 1.24514L81.5567 1.63424L79.0665 2.9572L77.3544 3.89105L75.4867 4.90272L73.4634 5.99222L71.7513 6.92607L67.8603 9.02723L65.837 10.1167L64.1249 11.0506L58.3662 14.1634L56.3429 15.2529L54.6308 16.1868L52.6075 17.2763L52.1406 17.5097L51.5958 17.4319L51.2067 17.1206L51.1289 16.965V16.3424L51.3624 15.9533L55.5647 13.6965L57.2767 12.7626L63.0354 9.6498L65.0588 8.56031L66.7708 7.62646L70.6619 5.52529L72.6852 4.4358L74.3972 3.50194L80.156 0.389105L80.8563 0Z" fill="#E7222B"/>
<path d="M107.551 61.8677H110.352V80.7782H107.551V61.8677Z" fill="#0F293B"/>
<path d="M152.375 87.3926H154.165V95.019H156.811L157.2 94.7856L157.278 94.5521L157.356 87.3926H159.068V95.019L158.756 95.7194L158.212 96.342L157.745 96.6533L157.278 96.8089H147.395V95.0969L151.908 95.019L152.219 94.8634L152.297 94.7078L152.375 87.3926Z" fill="#1696C9"/>
<path d="M48.715 90.5059H51.3609L52.1391 90.8171L52.7617 91.3619L53.1508 92.0623L53.2286 92.3736V98.0545L52.9952 98.7549L52.5282 99.3775L51.75 99.8444L51.1275 100H49.1041V98.2101L51.0497 98.1323L51.3609 97.8989L51.4388 97.6654V96.8872L48.5594 96.8094L47.6256 96.3424L47.0808 95.7199L46.7695 94.8638V92.4514L47.0808 91.5954L47.5477 91.0506L48.1703 90.6615L48.715 90.5059ZM48.8707 92.2957L48.5594 92.607V94.7082L48.7929 95.0195L49.0263 95.0973H51.4388L51.5166 95.0195V92.8405L51.3609 92.4514L51.1275 92.2957H48.8707Z" fill="#1696C9"/>
<path d="M110.66 90.5059H113.306L114.084 90.8171L114.785 91.4397L115.096 92.0623L115.174 92.2957V95.0195L114.863 95.7199L114.318 96.3424L113.851 96.6537L113.384 96.8094H110.505L109.571 96.3424L109.026 95.7199L108.793 95.1751L108.715 94.786V92.5292L108.948 91.751L109.493 91.0506L110.116 90.6615L110.66 90.5059ZM110.816 92.2957L110.505 92.607V94.7082L110.816 95.0195L110.972 95.0973H112.917L113.306 94.8638L113.462 94.5526V92.7627L113.228 92.3736L113.151 92.2957H110.816Z" fill="#1696C9"/>
<path d="M104.203 87.3926H105.993V96.8089H104.203V87.3926Z" fill="#1696C9"/>
<path d="M42.8008 87.3926H44.5128V96.8089H42.8008V87.3926Z" fill="#1696C9"/>
<path d="M96.1853 22.2568H97.2748L98.053 22.6459L98.5199 23.1907L98.7534 23.7354L98.8312 24.5136L98.5978 25.2919L98.1308 25.9144L97.4304 26.3035L97.197 26.3813H96.1853L95.4071 25.9922L94.8624 25.3697L94.6289 24.7471V23.8911L94.9402 23.1129L95.4849 22.5681L96.1853 22.2568Z" fill="#E7222B"/>
<path d="M89.3377 22.2568H90.4271L91.0497 22.5681L91.4388 22.8794L91.8279 23.502L91.9836 24.358L91.8279 25.1362L91.361 25.8366L90.8162 26.2257L90.3493 26.3813H89.3377L88.5595 25.9922L88.0147 25.3697L87.7812 24.8249V23.8133L88.1704 23.035L88.8707 22.4125L89.3377 22.2568Z" fill="#E7222B"/>
<path d="M82.49 22.2568H83.5017L84.2021 22.5681L84.5912 22.8794L84.9803 23.5798L85.0581 23.8133V24.8249L84.7468 25.5253L84.2021 26.0701L83.5017 26.3813H82.49L81.7118 25.9922L81.1671 25.3697L80.9336 24.8249V23.8133L81.2449 23.1129L81.7896 22.5681L82.49 22.2568Z" fill="#E7222B"/>
<path d="M147.547 87.3926H149.259V93.8517H147.547V87.3926Z" fill="#1696C9"/>
<path d="M110.427 87.3149L111.05 87.3928L111.439 87.704L111.516 87.8597V88.6379L111.127 89.027L110.583 89.1826L110.038 88.9492L109.804 88.7157L109.727 88.0153L109.96 87.6262L110.193 87.3928L110.427 87.3149Z" fill="#1696C9"/>
<path d="M1.94648 87.3149L2.49122 87.3928L2.95814 87.7819L3.03597 88.4823L2.72468 88.9492L2.17994 89.1826L1.55738 89.027L1.24609 88.6379V87.8597L1.55738 87.4706L1.94648 87.3149Z" fill="#1696C9"/>
<path d="M142.412 98.21H142.956L143.423 98.5212L143.579 98.8325V99.3773L143.268 99.8442L142.956 99.9998H142.334L141.867 99.6107L141.789 99.4551V98.7547L142.178 98.2878L142.412 98.21Z" fill="#1696C9"/>
<path d="M75.8729 98.21H76.5733L77.0402 98.5991L77.118 99.2995L76.8845 99.7664L76.4176 99.9998H75.9507L75.4838 99.6886L75.3281 99.4551V98.7547L75.5616 98.3656L75.8729 98.21Z" fill="#1696C9"/>
<path d="M24.2046 98.21H24.8272L25.2941 98.5991L25.3719 98.7547V99.4551L24.9828 99.922L24.8272 99.9998H24.2046L23.7377 99.6886L23.582 99.2995L23.6599 98.6769L24.049 98.2878L24.2046 98.21Z" fill="#1696C9"/>
<path d="M57.7434 87.3149L58.3659 87.3928L58.755 87.7819L58.8328 88.4823L58.5994 88.8714L58.2881 89.1048L57.899 89.1826L57.4321 89.027L57.1208 88.7157L57.043 88.5601V87.8597L57.3543 87.4706L57.7434 87.3149Z" fill="#1696C9"/>
<path d="M20.076 98.21H20.7764L21.1655 98.5212L21.3211 98.8325L21.2433 99.5329L20.8542 99.922L20.1538 99.9998L19.6869 99.6886L19.5312 99.4551V98.7547L19.7647 98.3656L20.076 98.21Z" fill="#1696C9"/>
<path d="M17.4315 98.21H18.1318L18.5209 98.5212L18.6766 98.8325L18.5988 99.5329L18.2097 99.922L17.5093 99.9998L17.0424 99.6886L16.8867 99.4551V98.7547L17.1202 98.3656L17.4315 98.21Z" fill="#1696C9"/>
<path d="M113.153 87.3149L113.698 87.3928L114.087 87.704L114.165 87.8597V88.6379L113.854 89.027L113.231 89.1826L112.686 88.9492L112.453 88.6379L112.375 88.0153L112.686 87.5484L113.153 87.3149Z" fill="#1696C9"/>
<path d="M60.3918 87.3149L61.0144 87.3928L61.4813 87.9375V88.4823L61.2478 88.8714L60.9365 89.1048L60.5474 89.1826L60.0805 89.027L59.7692 88.7157L59.6914 88.5601V87.9375L59.9249 87.5484L60.3918 87.3149Z" fill="#1696C9"/>
<path d="M4.59101 87.3149L5.13575 87.3928L5.60268 87.7819L5.6805 88.4823L5.44704 88.8714L5.13575 89.1048L4.74665 89.1826L4.27973 89.027L3.96845 88.7157L3.89062 88.5601V87.8597L4.20191 87.4706L4.59101 87.3149Z" fill="#1696C9"/>
<path d="M148.251 84.7471H149.34L149.418 84.8249V85.2918L149.34 85.3696H148.251L148.328 86.1478L149.418 86.2257V86.7704H147.395V86.2257H147.628V85.4475L147.861 84.9805L148.251 84.7471Z" fill="#1696C9"/>
<path d="M73.2283 98.21H73.9287L74.3178 98.5212L74.4735 98.8325L74.3956 99.5329L74.0065 99.922L73.3062 99.9998L72.8392 99.6886L72.6836 99.4551V98.7547L73.0727 98.2878L73.2283 98.21Z" fill="#1696C9"/>
<path d="M119.064 87.3149L119.764 87.3928L120.153 87.7819L120.231 88.4823L119.92 88.9492L119.687 89.1048H118.986L118.519 88.7157L118.441 88.5601V87.8597L118.753 87.4706L119.064 87.3149Z" fill="#1696C9"/>
</svg>
