<svg width="300" height="80" viewBox="0 0 300 80" fill="none" xmlns="http://www.w3.org/2000/svg">
<path d="M37.6368 0H53.5L58.7877 0.311042L63.9199 0.777604L66.0971 1.08865L67.3413 1.86625L68.2744 2.9549L68.741 4.51011L69.3631 10.8865L69.6741 16.7963V25.6609L69.3631 32.5039L68.741 39.3468L68.2744 40.902L67.1858 42.1462L65.9416 42.9238L62.6757 43.3903L60.0318 43.5458H56.9214L55.5217 43.0793L53.6555 41.8351L51.9447 40.902V40.5909L51.0116 40.4354V40.7465L51.7892 41.0575L55.3662 43.5458L57.0769 44.9455L59.2542 46.6563L60.8094 48.056L62.5202 49.4556L63.7643 50.6998L65.0085 51.7884L70.1407 56.9206L70.4517 57.5427H57.699L57.2325 56.9206L55.9883 54.4323L54.5886 51.944L52.4113 48.8336L50.8561 47.1228L49.7675 45.8787L48.3678 44.479L46.346 42.9238L44.0132 41.5241L41.6804 40.5909L39.5031 40.1244H36.5482L34.0598 40.7465L31.8826 41.8351L30.1718 43.0793H27.3724L24.8841 42.9238L24.5731 42.7682L24.7286 42.3017L26.4393 41.213L29.2387 39.0357L31.8826 37.014L32.0381 36.7029L31.416 36.8584V37.1695L30.9494 37.4805H30.4829V37.7916L28.9277 38.8802L26.4393 40.5909L24.7286 41.8351L24.262 42.4572L23.4844 42.3017L22.3958 40.902L22.0847 39.9689L21.6182 36.2364L21.1516 29.86L20.9961 26.9051V15.8631L21.4627 8.86469L22.0847 3.7325L22.7068 2.33281L23.951 1.24417L26.5948 0.777604L34.2154 0.155521L37.6368 0Z" fill="#DADBDC"/>
<path d="M66.2538 9.95312L66.4093 10.4197L65.6317 14.7743L64.8541 15.5519L60.1885 18.3513L56.767 20.5285L54.4342 22.2393L51.9459 24.1055L50.2352 25.5052L47.9023 27.527L45.8806 29.3932L44.4809 31.2595L44.0143 32.5037V34.3699L44.4809 35.6141L45.8806 37.1693L47.9023 38.7245L50.0796 39.9687L53.8121 42.457L55.5229 43.7012L57.7002 45.4119L59.4109 46.8116L61.5882 48.6778L65.3207 52.0993L70.1418 56.9204L70.4529 57.5425H57.7002L57.2336 56.9204L55.9894 54.4321L54.5897 51.9438L52.4125 48.8333L50.8572 47.1226L49.7686 45.8784L48.3689 44.4788L46.3471 42.9236L44.0143 41.5239L41.6815 40.5907L39.5042 40.1242H36.5493L34.061 40.7463L31.8837 41.8349L30.173 43.0791H27.3736L24.8853 42.9236L24.5742 42.768L24.7297 42.3015L26.4405 41.2128L29.2398 39.0355L31.8837 37.0138L33.9055 35.303L35.4607 33.9033L36.7048 32.8147L37.7935 31.5705L39.1932 29.8598L40.2818 27.9935L40.5929 27.0604V25.1942L39.8153 23.95L38.5711 23.1724L36.7048 22.3948L34.6831 21.6172L32.1947 20.373L29.3954 18.8178L26.907 17.2626L26.4405 15.8629L26.1294 13.8411L26.907 14.1522L30.6395 16.174L34.2165 17.7292L38.5711 18.9733L41.9926 19.4399H44.9475L47.5913 19.1289L51.3238 18.1957L54.2787 17.1071L57.8557 15.3964L61.2771 13.3746L64.5431 11.1973L66.2538 9.95312Z" fill="#3B348C"/>
<path d="M208.708 10.4194H211.196V27.8378L211.041 27.9933H208.552L208.397 27.8378L208.552 18.04L208.708 13.8409H208.397L208.241 15.0851L207.93 16.6403L207.464 19.5952L206.064 27.3712L205.909 27.8378L204.975 27.9933L204.198 27.8378L202.954 21.1504L201.865 14.6185H201.554L201.71 17.1068V27.8378L201.554 27.9933H199.532L198.91 27.8378V10.575H203.576L203.887 11.5081L204.975 19.7507L205.131 20.3728L205.598 16.4847L206.375 12.2857L206.686 10.575L208.708 10.4194Z" fill="#3B348C"/>
<path d="M2.33281 60.3423H16.9518L16.6407 61.1199L15.3966 62.6751L13.2193 65.7855L11.1975 68.5849L10.2644 69.9846H17.2628L16.9518 71.3843L16.1742 73.5616L15.7076 74.0281H0L0.311042 73.406L2.33281 70.6067L4.04354 68.1183L5.59875 65.941L6.6874 64.3858H1.08865L1.24417 63.2972L2.17729 60.4978L2.33281 60.3423Z" fill="#3B348C"/>
<path d="M113.531 10.5752H118.197L119.13 15.7074L119.597 20.5285L120.219 16.796L121.152 10.8862L121.307 10.5752H125.817V27.527L125.662 27.9935H123.174L123.018 27.838V14.7743L122.24 18.3512L121.463 23.0169L120.53 27.838L119.13 27.9935L118.819 27.838L118.352 25.8162L116.486 14.6187L116.331 13.8411H116.02L116.175 15.0853V27.838L115.864 27.9935H113.842L113.531 27.838V10.5752Z" fill="#3B348C"/>
<path d="M54.7453 63.7637H58.9443L61.5882 64.2302L63.7655 65.3189L64.8541 66.4075L65.6317 67.9627L65.7872 69.5179L65.1652 71.0732L64.0765 72.3173L62.6768 73.2504L60.344 74.028L58.3222 74.3391H55.3673L52.7235 73.8725L50.7017 73.0949L48.991 71.8508L48.0579 70.2955L47.9023 69.829V68.1183L48.6799 66.563L49.9241 65.3189L51.7904 64.3858L53.6566 63.9192L54.7453 63.7637Z" fill="#3B348C"/>
<path d="M135.77 42.457H140.124L141.68 42.6126L142.613 43.2346L143.235 44.0122L143.701 45.2564L143.857 46.8116V56.4539L143.546 58.0091L142.768 59.2533L141.524 59.8754L140.746 60.0309H134.992V42.6126L135.77 42.457Z" fill="#3B348C"/>
<path d="M126.751 42.3018H129.706L130.95 42.9238L132.039 44.168L132.35 44.9456L132.505 47.9005V56.4542L132.194 58.0094L131.261 59.2535L129.706 60.1867L129.239 60.3422H126.907L125.351 59.5646L124.263 58.3204L123.796 56.7652L123.641 55.21V51.0109L123.796 45.5677L124.263 44.0125L125.351 42.9238L126.129 42.4573L126.751 42.3018Z" fill="#3B348C"/>
<path d="M205.912 42.3018H208.711L209.955 42.7683L211.044 43.857L211.511 44.9456L211.666 53.4993V56.4542L211.355 58.0094L210.733 58.9425L209.489 59.8756L208.4 60.3422H206.067L204.512 59.5646L203.424 58.3204L202.957 57.0762V45.4122L203.424 44.0125L204.512 42.9238L205.912 42.3018Z" fill="#3B348C"/>
<path d="M105.602 10.2642H107.779L109.334 10.7307L110.423 11.6638L110.89 12.7525L111.045 13.9967V25.0386L110.579 26.4383L109.49 27.527L107.935 28.1491H105.757L104.202 27.6825L103.269 26.9049L102.647 25.8162L102.336 24.261V14.7743L102.491 13.0635L103.269 11.5083L104.669 10.5752L105.602 10.2642Z" fill="#3B348C"/>
<path d="M41.2148 63.6079H43.081L44.6363 63.919L45.5694 64.3855L46.347 65.3186L46.658 66.2518V74.0278L46.5025 74.1833L40.4372 74.0278L40.2817 67.807L39.8151 67.3404L38.5709 67.4959L38.4154 67.6515L38.2599 74.0278H32.0391V64.0745H37.7933L37.9489 64.6966L38.7265 64.3855L40.4372 63.7634L41.2148 63.6079Z" fill="#3B348C"/>
<path d="M25.039 63.9189H30.6378L30.4822 64.8521L29.2381 67.6514L28.1494 69.8287L26.1277 74.3388L23.7948 79.471L23.6393 79.6266L21.3065 79.7821L17.1074 79.6266L18.0406 77.9158L20.2179 73.8723L20.8399 72.7836L20.5289 71.8505L19.4403 70.1398L16.7964 65.6297L15.8633 64.23V64.0745H22.0841L22.8617 65.3186L23.4838 67.1849L23.9504 67.4959L24.5725 65.0076L25.039 63.9189Z" fill="#3B348C"/>
<path d="M188.183 10.4194H193.315L194.87 10.7305L195.648 11.197L196.27 12.2857L196.581 13.8409V16.9513L195.959 18.04L195.181 18.5065L195.337 18.9731L196.114 19.5952L196.425 21.4614L196.581 27.8378L196.425 27.9933H194.093L193.471 27.8378L193.315 21.1504L193.004 20.3728L192.537 20.2172H190.982V27.8378L190.827 27.9933H188.338L188.027 27.8378V10.575L188.183 10.4194Z" fill="#3B348C"/>
<path d="M113.062 42.457H119.128L120.216 42.9236L121.15 44.0122L121.461 44.7898L121.616 45.8785V48.6779L121.305 49.611L120.061 50.8552L121.15 51.6328L121.305 52.0993L121.616 60.0309H118.817L118.506 59.8754L118.35 53.499L118.039 52.5659L117.573 52.2548L116.017 52.0993L115.862 60.0309H113.529L113.062 59.8754V42.457Z" fill="#3B348C"/>
<path d="M139.191 10.4194H142.301L142.768 11.6636L144.789 18.9731L145.567 22.239L145.412 16.1737V10.4194H148.055L148.211 10.575V27.6823L148.055 27.9933H145.256L144.789 27.5267L143.856 24.5718L142.612 19.9062L141.835 16.4847L141.523 15.8627L141.679 19.1286V27.8378L141.368 27.9933H139.191L139.035 27.8378V10.575L139.191 10.4194Z" fill="#3B348C"/>
<path d="M167.186 10.4194H169.053L169.208 10.575V17.5734H171.852V10.575L172.785 10.4194H174.651L174.807 11.5081V27.8378L174.651 27.9933H172.474L171.852 27.8378V20.0617L169.208 20.2172V27.8378H166.253L166.098 26.9046V10.575L167.186 10.4194Z" fill="#3B348C"/>
<path d="M85.0697 63.6079H88.8022L90.824 64.0745L91.7571 64.6966L92.2236 65.3186L92.3792 65.9407V73.8723L91.9126 74.0278L88.0246 73.8723L87.8691 73.0947L85.8473 74.0278L85.3807 74.1833H83.2034L81.6482 73.5612L80.4041 72.4726L79.9375 71.5395V69.8287L80.4041 68.8956L81.4927 67.9625L83.0479 67.3404H85.6918L87.7135 67.9625L87.247 66.8738L86.4694 66.4073L84.4476 66.2518L81.4927 66.7183L81.9593 65.1631L82.4258 64.0745L83.5145 63.7634L85.0697 63.6079Z" fill="#3B348C"/>
<path d="M65.4766 64.0747H71.6974L72.786 68.7403L73.0971 69.829L73.4081 69.9845L73.8747 67.4962L74.9633 64.0747H81.0286L80.7176 65.0078L79.7845 67.3406L78.0738 72.0063L77.4517 73.5615L77.1406 73.8725H69.0535L67.4983 69.829L65.6321 64.6968L65.4766 64.0747Z" fill="#3B348C"/>
<path d="M146.5 42.457H149.299L149.455 56.6094L149.921 57.387L150.233 57.6981H151.166L151.943 56.9205L152.099 42.6126L152.254 42.457H155.054V57.5426L154.432 58.7867L153.343 59.7199L152.099 60.3419L151.321 60.4975H149.921L148.366 59.8754L147.122 58.7867L146.5 57.5426V42.457Z" fill="#3B348C"/>
<path d="M246.192 10.4194H248.213L248.369 10.575V23.4832L248.68 25.3494L249.302 25.6605L250.391 25.505L250.857 25.3494L251.013 18.1955V10.575L251.479 10.4194L253.968 10.575V25.3494L253.501 26.4381L252.724 27.3712L251.168 28.1488L250.391 28.3043H248.836L247.436 27.8378L246.192 26.9046L245.57 25.816L245.414 25.1939V10.575L246.192 10.4194Z" fill="#3B348C"/>
<path d="M216.799 10.4194H219.754L220.065 11.197L220.998 16.9513L222.398 24.8829L222.864 27.8378L222.709 27.9933H220.065L219.754 26.9046L219.287 24.1053V23.3277H216.643L216.021 27.6823L215.71 27.9933H213.066L213.377 25.505L215.244 14.1519L215.866 10.575L216.799 10.4194Z" fill="#3B348C"/>
<path d="M182.115 10.4194H183.048L183.359 10.575L184.292 15.5516L186.159 26.4381L186.314 27.9933H183.515L183.359 27.8378L182.737 23.4832L182.582 23.3277L180.093 23.1721L179.627 27.2157L179.316 27.9933H176.672L176.827 26.2826L177.916 19.4396L179.316 10.886L179.471 10.575L182.115 10.4194Z" fill="#3B348C"/>
<path d="M130.483 10.5752H134.371L134.838 12.597L136.082 19.7509L137.326 27.0604V27.9935H134.527L134.371 27.838L133.749 23.3279H131.261L130.483 27.838L130.327 27.9935H127.839L127.684 27.3715L128.928 19.7509L130.016 13.0635L130.483 10.5752Z" fill="#3B348C"/>
<path d="M286.158 10.4194H287.402L287.713 11.0415L288.646 16.6403L290.513 27.5267L290.357 27.9933H287.869L287.402 26.7491L286.936 23.7942L286.78 23.3277H284.292L283.825 27.0602L283.514 27.9933H280.715L281.026 26.127L282.27 18.351L283.514 10.7305L283.67 10.575L286.158 10.4194Z" fill="#3B348C"/>
<path d="M102.644 42.457H108.865L110.109 43.0791L110.731 43.8567L111.042 44.9454L111.197 46.1895V48.5223L110.886 50.0776L110.42 51.0107L109.487 51.7883L107.62 52.2548H105.599L105.443 60.0309H102.644L102.488 59.7198V42.6126L102.644 42.457Z" fill="#3B348C"/>
<path d="M155.835 10.4194H159.723L162.212 10.575L163.145 11.0415L163.767 11.8191L164.233 13.2188L164.389 14.6185V16.4847L163.922 18.351L162.989 19.5952L162.056 20.0617L160.967 20.2172H158.635V27.8378L158.168 27.9933H156.613L155.68 27.8378V10.575L155.835 10.4194Z" fill="#3B348C"/>
<path d="M180.096 42.3018H182.895L184.139 42.9238L184.917 43.7014L185.539 44.9456L185.694 45.7232V47.9005L185.539 48.2116H182.895L182.739 48.056V46.8119L182.428 45.5677L181.806 44.9456L180.718 45.1011L180.251 45.8787V46.9674L180.873 48.056L182.584 49.7668L183.828 50.8554L185.072 52.0996L185.85 53.6548L186.005 54.2769V57.0762L185.539 58.4759L184.917 59.2535L183.517 60.1867L182.584 60.4977H180.562L178.696 59.5646L177.607 58.3204L177.296 57.5428L177.141 56.4542V53.8103L177.296 53.6548H179.94L180.096 56.2986L180.562 57.2318L181.184 57.5428H182.117L182.895 56.9207L183.05 56.4542V55.0545L182.584 54.1213L181.651 53.0327L180.407 51.9441L178.851 50.5444L177.918 49.3002L177.296 47.9005V45.2567L177.763 44.0125L178.54 43.0794L180.096 42.3018Z" fill="#3B348C"/>
<path d="M195.334 42.3018H198.6L199.844 43.0794L200.777 44.168L201.088 44.9456L201.244 45.8787V48.056L201.088 48.2116H198.6L198.289 48.056L198.133 45.5677L197.667 44.7901L196.578 44.6346L195.8 45.1011L195.645 45.5677V56.7652L195.956 57.3873L196.578 57.6983L197.667 57.5428L197.978 57.2318L198.133 56.4542L198.289 53.6548H201.088V57.3873L200.31 58.9425L199.222 59.8756L198.289 60.3422L197.511 60.4977H196.111L194.712 60.0311L193.312 58.9425L192.69 57.6983L192.379 55.6766V47.745L192.69 44.9456L193.468 43.3904L194.867 42.4573L195.334 42.3018Z" fill="#3B348C"/>
<path d="M161.587 42.146L163.608 42.3015L164.852 42.9236L165.941 44.1678L166.252 45.4119V48.2113H163.608L163.453 48.0558L163.297 45.5675L162.675 44.7899L161.742 44.6343L160.964 45.1009L160.653 46.6561V56.1429L160.964 57.076L161.587 57.6981H162.52L163.142 57.076L163.297 56.4539L163.453 53.8101L163.608 53.6545H166.097L166.252 53.8101V57.2315L165.786 58.4757L165.008 59.4088L163.297 60.3419L162.675 60.4975H161.275L159.876 60.0309L158.632 59.0978L157.854 58.0091L157.543 56.6094V46.9671L157.698 45.1009L158.476 43.5457L159.565 42.6126L160.342 42.3015L161.587 42.146Z" fill="#3B348C"/>
<path d="M227.371 10.2642H230.015L231.259 10.7307L232.037 11.3528L232.815 12.908L232.97 13.6856V16.174H230.171L230.015 13.6856L229.549 12.908L229.082 12.597H228.149L227.527 13.3746L227.371 14.1522V24.261L227.838 25.3497L228.305 25.6607H229.082L229.86 25.0386L230.015 24.5721L230.171 21.6172H232.97V24.261L232.659 26.1273L231.57 27.3715L230.637 27.9935L229.704 28.3046H227.527L226.127 27.6825L224.883 26.5939L224.261 24.8831L224.105 21.7727V17.4181L224.261 14.1522L224.728 12.2859L225.35 11.3528L226.127 10.7307L227.371 10.2642Z" fill="#3B348C"/>
<path d="M274.185 10.2642H276.828L278.073 10.7307L279.006 11.5083L279.628 12.7525L279.783 13.2191V16.174H277.14L276.984 16.0184L276.828 13.8411L276.517 12.908L275.895 12.597L274.807 12.7525L274.34 13.3746L274.185 16.3295V23.4834L274.34 24.8831L274.807 25.5052L275.74 25.6607L276.517 25.1942L276.828 23.95V21.7727L276.984 21.6172H279.783V24.7276L279.317 26.4383L278.695 27.2159L277.14 28.1491L276.517 28.3046H274.496L272.94 27.6825L272.007 26.9049L271.23 25.3497L271.074 24.4166V14.7743L271.385 12.7525L272.007 11.5083L273.252 10.5752L274.185 10.2642Z" fill="#3B348C"/>
<path d="M234.992 10.5752H243.079V13.2191L237.947 13.3746V17.5736L242.768 17.7292V19.1288L242.613 20.2175H237.792L237.947 25.1942L243.235 25.3497V27.838L243.079 27.9935H234.992V10.5752Z" fill="#3B348C"/>
<path d="M262.521 10.4194H264.232L264.387 10.575V13.0633L264.232 13.2188H261.277V27.8378L260.81 27.9933H258.478L258.322 27.8378V13.2188H255.523L255.367 13.0633V10.575L262.521 10.4194Z" fill="#3B348C"/>
<path d="M46.1881 6.37598H47.5878L48.5209 6.84254L49.2985 7.77566L49.9206 9.17535L50.0761 9.79744V11.5082L49.2985 14.152L48.3654 15.7072L47.2767 16.7959L46.1881 17.2624H44.4773L43.2332 16.4848L42.4556 15.2407L42.1445 14.152V11.8192L43.0777 9.01983L44.1663 7.62014L45.4105 6.68702L46.1881 6.37598Z" fill="#3B348C"/>
<path d="M167.34 42.457H176.36V45.1009L173.405 45.2564L173.25 60.0309H170.45L170.295 45.2564L167.495 45.1009L167.34 44.9454V42.457Z" fill="#3B348C"/>
<path d="M292.223 10.5752H295.178V25.3497H299.999V27.838L298.443 27.9935H292.378L292.223 25.6607V10.5752Z" fill="#3B348C"/>
<path d="M265.784 10.4194H268.428L268.584 10.575V27.2157L268.428 27.9933H265.94L265.629 27.3712V10.575L265.784 10.4194Z" fill="#3B348C"/>
<path d="M36.5494 39.9688H39.5043L42.1482 40.5908L44.17 41.524L45.8807 42.4571L46.5028 43.0792L46.3472 43.7013L45.8807 44.0123H42.7703L36.3939 43.8568L32.1948 43.5457L31.2617 43.3902V43.0792H31.5728V42.7681L33.439 41.524L34.0611 40.7464L34.3721 40.4353L36.5494 39.9688Z" fill="#DADBDC"/>
<path d="M137.793 44.79H139.659L140.437 45.2566L140.903 46.3452V55.832L140.592 57.0762L140.126 57.5428L138.882 57.8538H137.948L137.793 57.6983V44.79Z" fill="#F8F9F9"/>
<path d="M106.222 12.4419H107.311L108.088 13.2195L108.244 13.6861V24.2615L107.933 25.1946L107.311 25.8167H106.378L105.6 25.1946L105.289 24.106V13.6861L105.911 12.7529L106.222 12.4419Z" fill="#F9F9F9"/>
<path d="M206.843 44.479H207.776L208.553 45.2566L208.709 45.5676V56.7652L208.087 57.6983L207.309 58.0093L206.376 57.5428L205.909 56.7652L205.754 55.832V46.3453L206.065 45.1011L206.843 44.479Z" fill="#F9F9F9"/>
<path d="M127.683 44.479H128.616L129.394 45.2566L129.549 45.7232V56.2986L129.238 57.3872L128.772 57.8538L128.15 58.0093L127.217 57.5428L126.75 56.9207V45.4121L127.528 44.6345L127.683 44.479Z" fill="#F8F8F8"/>
<path d="M65.1657 15.2412H65.4768L65.3213 15.7078H65.0102V16.1743H64.6992V16.4854L63.2995 17.263H62.8329V17.574L60.6556 18.8182L59.878 19.4403L57.3897 20.9955L54.2793 23.1728L52.5685 24.4169L51.7909 24.728V25.039L50.0802 26.4387L48.6805 27.5274L45.7256 30.4823L44.7925 31.8819H44.4815V34.0592L45.4146 35.77L45.7256 36.3921L46.3477 36.7031L47.5919 37.7917V38.1028L48.214 38.2583L48.836 39.0359L47.9029 38.8804L45.8811 37.3252L44.637 36.081L44.0149 34.9924L43.8594 34.3703V32.504L44.4815 31.1043L45.7256 29.3936L47.1253 27.9939L48.3695 26.9053L50.5468 25.039L52.8796 23.1728L55.679 21.151L58.4783 19.2848L60.5001 18.0406L62.8329 16.6409L65.1657 15.2412Z" fill="#F7F7F7"/>
<path d="M105.756 44.79L107.623 44.9456L108.089 45.4121L108.245 45.8787V48.6781L107.467 49.6112L107.156 49.7667H105.601L105.445 49.4557V45.1011L105.756 44.79Z" fill="#F8F8F8"/>
<path d="M158.788 12.7529H160.033L160.81 13.064L161.277 13.8416L161.432 14.6192V16.1744L160.966 17.263L160.655 17.5741L160.033 17.7296H158.788L158.633 17.5741V12.9085L158.788 12.7529Z" fill="#F7F7F8"/>
<path d="M116.019 44.9453H118.041L118.663 45.8784V48.5223L118.041 49.4554L117.107 49.7665L116.019 49.6109L115.863 49.4554V45.1008L116.019 44.9453Z" fill="#F8F8F8"/>
<path d="M191.135 12.7529H192.379L193.157 13.064L193.624 13.6861L193.779 14.4637L193.624 16.641L193.002 17.4186L192.69 17.5741H190.98L190.824 17.4186L190.98 12.9085L191.135 12.7529Z" fill="#F8F8F8"/>
<path d="M56.2989 67.1851H57.3875L58.4761 68.1182L58.6317 68.4292V69.3624L57.6985 70.451L56.2989 70.6065L55.5213 70.14L55.0547 69.0513L55.3657 67.9627L56.2989 67.1851Z" fill="#F8F8F8"/>
<path d="M213.375 56.7646H216.019V60.0306H213.531L213.375 59.8751V56.7646Z" fill="#3B348C"/>
<path d="M132.192 13.2192H132.503L132.814 14.3079L133.281 19.129L133.437 20.6842L133.281 20.8398H131.881L131.57 20.6842L131.726 18.0404L132.192 13.2192Z" fill="#F2F3F3"/>
<path d="M285.383 13.2192H285.694L286.161 16.4852L286.627 20.6842L286.472 20.8398H284.761L284.605 20.2177L285.072 16.6407L285.383 13.2192Z" fill="#F3F3F4"/>
<path d="M181.185 13.2192L181.496 13.3748L181.962 16.1741L182.429 20.6842L182.273 20.8398H180.874L180.562 20.6842L180.718 18.1959L181.029 13.9968L181.185 13.2192Z" fill="#F5F5F6"/>
<path d="M217.731 13.686L218.042 14.1526L218.508 17.1075L218.819 19.5958V20.6845L218.664 20.84H217.42L216.953 20.6845L217.109 18.6627L217.575 13.9971L217.731 13.686Z" fill="#F5F6F6"/>
<path d="M44.0149 32.0371H44.1704L44.4815 34.0589L45.4146 35.7696L45.7256 36.3917L46.3477 36.7027L47.5919 37.7914V38.1024L48.214 38.2579L48.836 39.0355L47.9029 38.88L45.8811 37.3248L44.637 36.0807L44.0149 34.992L43.8594 34.3699V32.5037L44.0149 32.0371Z" fill="#F3F4F4"/>
<path d="M112.91 42.457H113.066V59.8754L115.865 60.0309V52.0993H116.021V60.1864L113.377 60.3419L112.91 60.0309V42.457Z" fill="#DADBDC"/>
<path d="M40.1246 27.6826L40.2802 28.3047L38.8805 30.482L37.0142 32.5038L36.3921 33.2814L35.148 34.37L34.6814 34.8366L34.2148 34.6811L35.459 33.4369L36.2366 32.5038L37.3253 31.5706L38.4139 29.8599L39.036 29.2378L39.6581 28.1492L40.1246 27.6826Z" fill="#F5F5F5"/>
<path d="M85.8479 69.3623H86.781L87.4031 69.8289V70.9175L86.781 71.5396H85.8479L85.0703 70.6065L85.2258 69.9844L85.8479 69.3623Z" fill="#F4F5F5"/>
<path d="M65.9396 9.64209H66.2506V10.1087L63.4513 12.1304L60.4964 13.9967L59.7188 14.1522L60.3408 13.5301L61.7405 12.597L63.2957 11.3528L65.3175 9.95313L65.9396 9.64209Z" fill="#F6F7F7"/>
<path d="M36.2383 22.395L37.638 22.5505L39.6597 23.6392L40.4373 24.5723L40.5929 25.661H40.2818V25.3499H39.9708L39.1932 24.2613L37.0159 22.8616L36.2383 22.5505V22.395Z" fill="#F5F6F6"/>
<path d="M116.019 13.8413H116.33L116.796 15.241V16.1741H116.641L116.485 15.3965L116.33 27.9937L115.863 27.8382H116.174L116.019 13.8413Z" fill="#DADBDC"/>
<path d="M123.018 14.3081H123.174V27.9939H122.863V16.0188L122.707 15.3968L123.018 14.3081Z" fill="#DADBDC"/>
<path d="M118.352 53.499H118.507V59.8754L121.618 60.0309V59.2533H121.773V60.3419H118.663L118.352 60.1864V53.499Z" fill="#DADBDC"/>
<path d="M26.1289 14.9302H26.4399L26.9065 17.263L27.6841 17.574L30.1724 19.1292L30.0169 19.4403L27.8396 18.3516L27.6841 18.0406L26.751 17.574L26.1289 16.3299V14.9302Z" fill="#EDEEEE"/>
<path d="M27.5273 14.3081L28.4605 14.4636V14.7747H28.927V15.0857L29.5491 15.2412L31.7264 16.3299V16.4854L30.6378 16.3299L27.6829 14.7747L27.5273 14.3081Z" fill="#F0F1F1"/>
<path d="M145.413 16.1743H145.569L145.724 22.3952L145.413 22.2396L145.258 20.6844L145.413 16.1743Z" fill="#DADBDC"/>
<path d="M31.7273 36.7031H32.0384L31.7273 37.3252L29.3945 39.0359V38.5694L30.1721 37.7918H30.4832V37.4807L31.4163 37.1697V36.8586L31.7273 36.7031Z" fill="#F2F2F3"/>
<path d="M44.0122 7.30908H44.3233L44.0122 7.93117L43.0791 9.33085L42.9236 9.79742H42.6126L42.457 10.1085L42.6126 9.17533L43.2346 7.93117L44.0122 7.30908Z" fill="#F4F4F4"/>
<path d="M208.398 13.8413H208.709V18.0404H208.553L208.398 15.0855L208.242 14.4634L208.398 13.8413Z" fill="#DADBDC"/>
<path d="M48.9883 7.15381H49.2993L50.0769 8.5535L50.2324 9.79766H49.9214L49.2993 8.08693L48.9883 7.15381Z" fill="#EEEEEF"/>
<path d="M181.183 13.2192L181.494 13.3748L181.649 13.9968V15.0855L181.494 14.4634H181.183V16.3297H181.027V13.9968L181.183 13.2192Z" fill="#DADBDC"/>
<path d="M61.585 12.7529L62.0516 13.064L60.1853 14.1526L59.7188 13.9971L60.9629 13.064L61.585 12.7529Z" fill="#F3F3F3"/>
<path d="M27.8398 18.0405L28.6174 18.196L30.1727 19.1292L30.0171 19.4402L27.8398 18.3516V18.0405Z" fill="#F1F1F1"/>
<path d="M119.908 17.8848H120.063L119.908 19.9065L119.752 20.6841L119.441 20.5286V19.1289L119.752 18.6624L119.908 17.8848Z" fill="#DADBDC"/>
<path d="M53.3443 17.1074H53.8108V17.4185L52.7222 17.885H51.7891L52.4111 17.4185L53.3443 17.1074Z" fill="#EFEFF0"/>
<path d="M48.8326 15.2412V15.7078L48.0549 16.4854L47.2773 16.9519L47.5884 16.3299L48.8326 15.2412Z" fill="#F3F3F3"/>
<path d="M217.73 13.686L218.041 14.1526L218.196 15.7078L217.885 15.0857L217.574 15.5523V13.9971L217.73 13.686Z" fill="#DADBDC"/>
</svg>
