<svg width="300" height="82" viewBox="0 0 300 82" fill="none" xmlns="http://www.w3.org/2000/svg">
<path d="M36.4349 0L36.8756 0.146915L38.1978 1.76298L39.8139 3.9667L42.0176 7.34574L43.7806 10.1371L46.1312 13.6631L48.188 16.6014L50.0979 19.2458L53.3301 24.094L55.5338 27.3262L58.3252 31.4398L62.2919 37.3164L66.1116 43.046L67.287 44.6621L68.0215 45.5436V45.8374L68.6092 46.1312L68.1685 42.4584L67.7277 37.0225L66.4055 19.0989L65.6709 8.66797L65.0832 3.81978V3.08521L65.524 3.23213L66.8462 5.14202L67.7277 6.905L69.6376 11.0186L71.4006 14.2507L73.1636 17.3359L75.6611 22.1841L77.1303 24.9755L79.334 29.0891L81.2439 32.762L83.0069 35.9941L84.476 38.7855L86.239 41.43L87.5612 43.046L88.8834 43.9275L90.4995 44.0744L94.0255 44.2214H95.9353L89.618 43.9275L88.8834 43.3399L87.2674 41.2831L85.7982 39.2262V38.7855H119.442L119.589 38.9324L119.882 41.5769L120.029 45.3967H110.186L111.508 45.5436L119.882 45.6905V47.1596L119.148 50.8325L118.413 53.1832L117.532 55.3869L115.769 58.7659L113.712 61.7042L112.39 63.1734L111.361 64.3487L108.864 66.8462L107.248 68.1685L105.191 69.7845L102.547 71.5475L100.343 72.8697L96.9638 74.6327L94.1724 75.9549L90.3526 77.4241L86.6797 78.5994L81.9784 79.7747L77.4241 80.6562L70.8129 81.5377L69.6376 81.6846H59.5005L52.8893 80.8031L47.4535 79.7747L42.6053 78.5994L37.0225 76.6895L33.3497 75.0735L30.999 73.8981L28.0607 72.2821L25.1224 70.3722L22.7718 68.6092L21.3026 67.287L20.1273 66.2586L17.6298 63.761L16.3075 62.145L14.8384 60.2351L13.0754 57.2968L11.6063 54.2116L10.5779 50.9794L9.84329 47.3066V46.572L19.9804 46.4251L20.4212 47.4535L21.4496 51.2733L22.6249 54.0646L23.9471 56.4153L25.7101 58.7659L27.3261 60.5289L28.2076 61.5573L29.383 62.5857L31.2928 64.2018L34.525 66.4055L37.0225 67.8746L39.3732 69.05L42.3115 70.3722L45.5436 71.5475L51.1263 73.0167L55.3869 73.7512L60.8227 74.3389L63.1734 74.4858H66.8462L70.9598 74.192L77.2772 73.3105L82.5661 71.9883L86.5328 70.666L89.618 69.3438L92.4094 68.0216L95.6415 66.1117L98.1391 64.3487L99.7551 63.0264L101.665 61.2635L103.281 59.6474L104.897 57.5906L105.926 56.1215L107.248 53.7708L108.276 51.2733L109.305 47.6004L109.598 45.6905L109.158 45.8374L97.5514 45.9843H84.1822L83.4476 45.5436L81.5377 43.6337L80.5093 42.4584L78.5994 40.5485L76.5426 38.1978L74.9265 37.0225L75.3673 39.667L76.2488 49.8041L76.9833 58.619L77.7179 66.9931L78.1587 71.1068H77.571L76.5426 69.9314L75.0735 67.7277L73.4574 65.2302L69.1969 58.7659L68.1685 57.2968L61.998 48.0411L57.7375 41.7238L53.477 35.2596L50.5387 30.8521L49.2164 29.383L48.9226 29.0891L49.2164 30.4114L50.2449 35.5534L51.5671 43.193L52.1547 45.5436L52.0078 46.1312L27.0323 46.2782H8.66797L5.87659 46.4251H1.76298V46.2782L0 46.1312V45.9843L2.64447 45.6905L7.9334 45.2498L11.9001 45.1028L18.8051 44.5152L24.3879 43.9275L41.2831 42.7522L44.0744 42.6053L42.0176 30.999L40.8423 24.2409L39.9608 18.5113L39.2262 14.1038L37.904 7.19882L36.8756 1.90989L36.4349 0Z" fill="#43B056"/>
<path d="M36.4349 0L36.8756 0.146915L38.1978 1.76298L39.8139 3.9667L42.0176 7.34574L43.7806 10.1371L46.1312 13.6631L48.1881 16.6014L50.0979 19.2458L53.3301 24.094L55.5338 27.3262L58.3252 31.4398L62.2919 37.3164L66.1117 43.046L67.287 44.6621L68.0216 45.5436V45.8374L68.6092 46.1312L68.1685 42.4584L67.7277 37.0225L66.4055 19.0989L65.6709 8.66797L65.0833 3.81978V3.08521L65.524 3.23213L66.8462 5.14202L67.7277 6.905L69.6376 11.0186L71.4006 14.2507L73.1636 17.3359L75.6611 22.1841L77.1303 24.9755L79.334 29.0891L81.2439 32.762L83.0069 35.9941L84.476 38.7855L86.239 41.43L87.5612 43.046L88.8835 43.9275L90.4995 44.0744L99.4613 44.3683L105.485 44.809L108.423 44.9559L109.892 45.2498L109.598 45.6905L109.158 45.8374L97.5514 45.9843H84.1822L83.4476 45.5436L81.5377 43.6337L80.5093 42.4584L78.5994 40.5485L76.5426 38.1978L74.9265 37.0225L75.3673 39.667L76.2488 49.8041L76.9834 58.619L77.7179 66.9931L78.1587 71.1068H77.571L76.5426 69.9314L75.0735 67.7277L73.4574 65.2302L69.1969 58.7659L68.1685 57.2968L61.998 48.0411L57.7375 41.7238L53.477 35.2596L50.5387 30.8521L49.2165 29.383L48.9226 29.0891L49.2165 30.4114L50.2449 35.5534L51.5671 43.193L52.1548 45.5436L52.0078 46.1312L27.0323 46.2782H8.66797L5.87659 46.4251H1.76298V46.2782L0 46.1312V45.9843L2.64447 45.6905L7.9334 45.2498L11.9001 45.1028L18.8051 44.5152L24.3879 43.9275L41.2831 42.7522L44.0744 42.6053L42.0176 30.999L40.8423 24.2409L39.9608 18.5113L39.2262 14.1038L37.904 7.19882L36.8756 1.90989L36.4349 0Z" fill="#2D2F92"/>
<path d="M36.8745 11.7534H37.4622L38.0499 14.3979L38.9314 18.6584L38.7844 19.393L35.5523 21.3029L32.7609 23.0659L30.1165 25.1227L28.3535 26.7387L26.4436 28.6486L24.5337 31.1462L22.9176 33.7906L21.5954 36.582L20.8608 38.9327L20.1263 42.6055L19.9793 43.6339L19.8324 43.7808L16.3065 44.0747L12.0459 44.3685H9.84223L9.69531 43.487V42.1648L10.283 38.4919L11.1645 35.4067L12.4867 32.3215L13.8089 29.8239L14.9842 28.061L16.8941 25.5634L18.6571 23.6535L20.7139 21.5967L22.33 20.2745L24.9745 18.2177L27.9127 16.3078L30.998 14.5448L35.6992 12.1942L36.8745 11.7534Z" fill="#43B156"/>
<path d="M133.25 21.4497H136.923L141.477 21.5966L141.624 21.7435L142.065 29.8239L142.212 30.8523L143.534 29.53L145.591 26.7386L147.354 24.2411L148.676 22.4781L149.264 21.7435L150.292 21.4497H154.846L158.372 21.5966L156.609 26.8856L154.112 34.819L153.377 36.7288H147.648L147.501 36.435L149.117 32.4683L151.614 25.8572L150.88 26.5917L149.704 27.914L147.794 30.5584L145.297 34.2313L143.681 36.2881L143.093 36.7288L142.506 36.8758H140.008L138.245 36.7288L137.951 36.435L137.51 29.6769L137.07 26.4448L136.629 26.2979L136.041 28.9424L134.278 35.9943L133.838 36.7288H127.961L128.108 35.9943L129.136 33.2029L131.046 27.1794L132.368 22.7719L132.956 21.5966L133.25 21.4497Z" fill="#010103"/>
<path d="M236.532 47.3066H250.489L252.105 47.6005L253.427 48.335L254.602 49.5104L254.896 50.098V51.7141L254.308 52.5956L252.839 53.7709L251.517 54.5055L251.958 54.9462L253.574 55.9746L254.455 57.003L254.602 57.5907L253.721 59.3537L252.252 60.9697L251.076 61.5574L250.636 61.7043L250.489 61.9981L249.46 62.2919L246.963 62.4389H231.831L231.684 61.9981L232.859 58.9129L236.385 47.4536L236.532 47.3066ZM242.555 50.3919L241.821 52.1548L241.674 53.1832H245.347L247.403 53.0363L247.844 52.7425L248.138 51.5672V50.3919H242.555ZM241.38 55.9746L240.498 56.7092L239.911 57.8845V59.2067L240.205 59.3537H242.702L245.347 59.2067L246.816 58.6191L247.403 58.1783V57.003L246.816 56.2684L245.787 55.9746H241.38Z" fill="#010103"/>
<path d="M185.702 21.4497H194.517L197.455 21.5966L199.806 22.0374L202.01 23.2127L203.332 24.5349L204.066 26.0041L204.36 27.3263V28.9424L203.773 30.8523L202.744 32.6152L201.128 34.3782L199.512 35.4066L197.896 36.1412L195.545 36.5819L193.782 36.7288H180.707L181.148 35.2597L182.911 29.9708L184.821 23.5065L185.408 21.7435L185.702 21.4497ZM192.754 24.9757L191.726 25.2695L191.138 26.0041L190.55 27.6201L189.816 30.1177L189.081 32.1745V33.2029L189.228 33.3498H192.46L194.223 32.9091L195.692 31.8807L196.868 30.1177L197.455 28.3547V26.8856L196.868 26.0041L195.692 25.2695L194.076 24.9757H192.754Z" fill="#010103"/>
<path d="M255.044 21.3027H259.304L261.508 21.5966L263.271 22.1842L264.887 23.2126L266.356 24.6818L267.091 26.2978L267.238 28.3546L266.944 29.8238L265.915 31.8806L264.593 33.3497L263.124 34.672L260.773 35.8473L259.157 36.435L257.101 36.8757L256.072 37.0226H251.077L248.58 36.5819L246.817 35.8473L245.347 34.8189L244.319 33.7905L243.731 32.6152L243.438 31.2929V30.1176L243.878 28.2077L244.613 26.7386L245.641 25.4163L246.963 24.0941L249.02 22.7719L251.224 21.8904L253.575 21.4496L255.044 21.3027ZM256.072 24.6818L254.456 24.9756L252.987 25.7102L251.812 26.8855L250.783 28.6485L250.342 30.1176V31.146L250.93 32.3213L251.959 33.2028L253.281 33.6436H254.897L256.807 33.0559L258.276 32.0275L259.157 30.9991L260.186 28.9423L260.333 28.3546V27.0324L259.745 26.004L258.57 25.1225L256.807 24.6818H256.072Z" fill="#000003"/>
<path d="M217.58 47.0127H222.869L225.514 47.4534L227.864 48.6288L229.333 49.951L230.215 51.4201L230.509 52.5955V54.3584L230.068 56.1214L229.187 57.5906L227.864 59.2066L226.101 60.5289L223.751 61.7042L221.841 62.2918L218.609 62.7326H214.789L212.144 62.2918L210.235 61.5573L208.765 60.5289L207.737 59.5005L206.855 57.7375V55.093L207.296 53.6239L208.325 51.8609L209.647 50.3917L210.822 49.3633L212.879 48.188L215.083 47.4534L217.58 47.0127ZM218.756 50.3917L217.286 50.8325L215.817 51.8609L214.936 52.8893L213.76 55.2399L213.614 56.4152L213.907 57.5906L214.936 58.619L216.258 59.2066L216.846 59.3535L218.756 59.2066L220.372 58.619L221.547 57.7375L222.428 56.7091L223.163 55.3868L223.604 54.0646V52.5955L223.016 51.714L222.135 50.9794L221.253 50.5387L220.665 50.3917H218.756Z" fill="#000003"/>
<path d="M172.626 47.0127H177.474L179.972 47.4534L181.735 48.188L183.351 49.3633L184.085 49.951L184.967 51.2732V51.714L180.412 52.0078L179.531 52.1547H178.355L176.152 50.8325L175.123 50.5387H173.213L171.744 50.9794L170.275 51.8609L169.1 53.1831L168.365 54.6523L168.071 55.5338V56.5622L168.659 57.7375L169.981 58.619L171.01 59.0597L171.744 59.2066H173.507L175.27 58.7659L176.299 58.1782L176.592 57.5906V57.1498L176.152 57.0029H172.92L172.626 56.856V55.8276L173.067 54.3584L173.801 53.9177H177.18L183.938 54.0646L183.644 55.5338L182.028 60.3819L181.147 61.1165L178.209 61.998L174.389 62.5857L172.773 62.7326H169.1L166.455 62.2918L164.692 61.5573L163.076 60.5289L161.901 59.2066L161.166 57.5906L161.02 57.0029V55.3868L161.607 53.4769L162.342 52.1547L163.664 50.5387L165.133 49.3633L167.337 48.188L169.688 47.4534L172.626 47.0127Z" fill="#010103"/>
<path d="M162.929 21.4497H180.852L181.293 21.5966L180.852 23.0658L180.118 24.8287H168.805L168.071 27.3263H178.942L178.795 28.3547L178.208 30.1177L177.767 30.4115L167.189 30.5584L166.308 32.3214L166.161 33.2029L178.355 33.3498L178.208 34.672L177.62 36.2881L177.179 36.7288H157.934L158.081 35.8474L159.256 32.6152L162.047 23.5065L162.782 21.5966L162.929 21.4497Z" fill="#010105"/>
<path d="M266.355 47.3066H273.995L275.023 51.7141L276.345 57.4438L277.374 61.5574L277.52 62.2919L277.374 62.4389H270.909L270.615 62.2919L270.322 60.6759V59.9413L263.123 60.0882L261.948 61.5574L261.36 62.4389H253.867L254.161 61.7043L256.071 59.6475L257.393 58.0314L259.009 56.1215L260.625 54.0647L261.948 52.5956L263.27 50.9795L265.18 48.6289L266.355 47.3066ZM269.293 51.5672L268.118 52.5956L266.208 55.24L265.327 56.5623V56.8561L265.767 57.003L269.881 56.8561L269.734 54.2116L269.44 51.5672H269.293Z" fill="#010104"/>
<path d="M230.216 21.3027H234.33L236.681 21.7435L238.444 22.4781L240.06 23.5065L241.088 24.6818L241.676 25.8571V26.5917L241.382 26.7386L236.681 27.0324H235.652L234.33 25.5633L233.302 24.9756L232.714 24.8287H231.539L229.776 25.2694L228.453 26.004L227.278 27.1793L226.397 28.6485L225.956 30.1176V31.146L226.397 32.1744L227.572 33.2028L228.453 33.4967H230.216L231.832 32.909L233.155 31.8806L234.036 30.8522L234.477 30.7053L240.06 31.2929L240.647 31.4399L240.353 32.1744L239.178 33.6436L237.562 34.9658L235.358 36.1411L233.155 36.7288L231.245 37.0226H226.25L224.046 36.5819L221.695 35.4066L220.226 34.0843L219.345 32.7621L219.051 31.8806V29.383L219.785 27.1793L221.108 25.2694L222.283 24.0941L224.34 22.7719L226.397 21.8904L228.747 21.4496L230.216 21.3027Z" fill="#010103"/>
<path d="M190.693 47.3066H197.892L197.452 48.9227L194.807 57.003L194.219 58.6191L205.238 58.766L205.091 60.0882L204.503 61.8512L204.063 62.4389H186.139L185.992 62.145L188.343 54.9462L190.547 47.7474L190.693 47.3066Z" fill="#010104"/>
<path d="M285.015 47.3066H291.92L291.626 48.6289L289.716 54.5055L288.688 57.4438L288.1 58.766H298.972L300 58.9129V59.3537H299.118L298.678 60.9697L298.531 62.2919L298.384 62.4389H280.166L280.02 62.145L281.783 56.8561L283.105 52.7425L284.427 48.482L285.015 47.3066Z" fill="#010104"/>
<path d="M61.1161 6.7583H64.789L64.9359 6.90522L65.3767 11.9003V13.6633L62.7322 13.9571L57.0025 14.3979L52.742 14.9855L49.363 15.7201L48.7753 15.5732L46.4247 12.0472L44.8086 9.84351V9.40277L46.5716 8.81511L51.5667 7.7867L57.0025 7.05213L61.1161 6.7583Z" fill="#43B156"/>
<path d="M210.236 21.5967H217.582L217.435 22.3313L216.848 23.8004L214.497 30.9992L213.028 35.7005L212.44 36.7289L212.146 36.8758L205.535 36.7289L205.829 35.4067L207.592 30.1177L210.09 21.8905L210.236 21.5967Z" fill="#000002"/>
<path d="M68.6094 6.90479H70.0785L74.7798 7.34553L81.8317 8.37393L82.5663 8.66776L82.7132 8.96159L82.5663 10.2838L81.6848 11.6061L80.2156 12.9283L78.0119 13.9567L76.3959 14.3974L75.3675 14.5444H73.6045L72.5761 14.2505L71.5477 12.7814L69.7847 9.40234L68.6094 7.19861V6.90479Z" fill="#43B156"/>
<path d="M7.34574 45.6904H9.69638V45.8373L7.05191 46.1312H5.87659V46.425H1.76298V46.2781L0 46.1312V45.9843L1.32223 45.8373H5.28893L7.34574 45.6904Z" fill="#FEFEFE"/>
</svg>
