<svg width="100" height="120" viewBox="0 0 100 120" fill="none" xmlns="http://www.w3.org/2000/svg">
<path d="M47.9981 3.29242H49.2978L49.3844 3.72563V7.01805L49.9909 6.4982L50.8573 5.71841L51.6371 5.2852H52.8501L53.8898 5.80505L54.4097 6.4982L54.583 7.10469L54.4963 7.71119L53.9765 8.49098L54.0631 8.92419L54.4097 9.44404L54.4963 10.2238L54.1498 10.917L53.5433 11.5235L53.1967 11.6968H51.8971L50.944 11.3502L50.0776 10.7437L49.5577 10.1372L49.3844 10.0505V15.3357L49.9043 14.9892L51.0306 13.8628L52.2436 12.9097L53.1101 12.6498H54.1498L55.0162 12.9097L55.796 13.4296L56.4025 14.0361L56.749 14.9025V15.6823L56.4025 16.4621L55.796 17.2419L56.0559 17.6751L56.4891 18.2816L56.6624 18.8881L56.5758 19.7545L56.1425 20.4477L55.4494 21.0542L54.6696 21.4007L54.0631 21.4874H53.1101L52.3303 21.2274L51.2906 20.7076L50.1642 19.7545L49.6443 19.148L49.4711 19.0614L49.3844 25.2996L49.9043 24.9531L51.2039 23.6534L52.2436 22.8736L53.0234 22.6137H54.2364L55.1895 22.9603L55.7093 23.3069L56.1425 23.6534L56.6624 24.5199L56.749 24.8664V25.6462L56.3158 26.426L55.796 27.1191L55.9693 27.4657L56.5758 28.4188L56.6624 29.1986L56.4891 29.8917L56.1425 30.4116L55.4494 31.0181L54.6696 31.3646L54.323 31.4513H53.0234L51.8971 31.0181L50.944 30.4116L50.0776 29.6318L49.5577 28.9386L49.3844 28.852L49.4711 35.2635L49.9043 35.0036L51.2906 33.6173L52.2436 32.9242L53.0234 32.6643H54.2364L55.1895 33.0108L55.9693 33.5307L56.4891 34.2238L56.749 34.917V35.6968L56.3158 36.4765L55.796 37.2563L56.5758 38.4693L56.6624 39.2491L56.4891 39.9422L55.9693 40.6354L55.2761 41.1552L54.6696 41.4152L54.2364 41.5018H53.0234L51.8971 41.0686L50.8573 40.3755L50.0776 39.6823L49.5577 38.9892L49.3844 38.9025L49.4711 44.0144L49.3844 45.0542L49.8176 44.7942L51.2906 43.4079L52.3303 42.6282L53.37 42.3682L54.323 42.4549L55.2761 42.8014L56.0559 43.4079L56.5758 44.1011L56.749 44.7076V45.4874L56.3158 46.3538L55.796 47.0469L56.3158 47.8267L56.5758 48.2599L56.6624 48.9531L56.4891 49.7329L55.9693 50.426L55.1028 51.1191L54.8429 51.2058H52.7635L51.3772 50.5126L50.5108 49.8195L49.9909 49.3863L49.5577 48.8664L49.4711 55.1913L50.3375 54.4982L51.2906 53.5451L52.157 52.852L53.0234 52.5054L53.8898 52.4188L54.9295 52.6787L55.796 53.1986L56.4025 53.8051L56.749 54.7581V55.4513L56.4891 56.1444L55.8826 56.9242L55.9693 57.3574L56.4891 58.1372L56.6624 59.0036L56.4891 59.7834L55.9693 60.4765L55.1028 61.1697L54.8429 61.2563H52.7635L51.3772 60.5632L50.5974 59.9567L49.5577 58.917L49.4711 62.0361L49.3844 62.1227H48.1714L48.0848 58.7437L47.1317 59.4368L46.5252 60.0433L45.2256 60.9097L44.3591 61.2563L43.7527 61.4296L42.7129 61.343L41.9332 61.083L41.0667 60.3032L40.7202 59.6101L40.6335 58.8303L40.8934 58.0505L41.4133 57.3574L41.3267 56.9242L40.7202 56.0578L40.5469 55.6245V54.7581L41.0667 53.7184L41.7599 53.1119L42.7129 52.6787L43.4061 52.5054L44.5324 52.5921L45.7454 53.1986L46.7851 54.1516L47.8249 55.0181L48.1714 55.1913V48.6931L47.305 49.213L46.5252 49.9928L45.2256 50.8592L44.4458 51.2058L43.5794 51.3791L42.6263 51.2924L41.9332 51.0325L41.0667 50.2527L40.7202 49.5596L40.6335 48.6931L40.9801 47.9134L41.4133 47.3069L41.3267 46.8736L40.8068 46.1805L40.5469 45.574V44.7076L40.9801 43.8412L41.3267 43.4079L42.2797 42.8014L43.0595 42.5415L43.9259 42.4549L44.7924 42.6282L45.7454 43.148L46.8718 44.1877L47.9981 45.0542V38.9025L47.4783 39.2491L46.6119 40.0289L45.3989 40.8953L44.7057 41.2419L43.9259 41.5018H42.7129L41.4999 40.8953L40.8934 40.2022L40.6335 39.4224L40.7202 38.6426L41.1534 37.8628L41.4999 37.4296L41.3267 36.9964L40.7202 36.13L40.5469 35.7834V34.917L40.9801 34.0505L41.4133 33.6173L42.1064 33.0975L43.0595 32.7509H44.3591L45.3122 33.0975L46.1786 33.704L47.0451 34.4838L48.0848 35.2635V28.7653L47.1317 29.4585L46.4386 30.1516L45.1389 31.0181L43.9259 31.4513H42.7996L41.9332 31.1047L41.4133 30.7581L40.8934 30.1516L40.6335 29.3718L40.7202 28.5921L41.1534 27.8123L41.4999 27.3791L41.3267 26.9458L40.7202 26.1661L40.5469 25.7329V24.7798L40.9801 23.9134L41.3267 23.4801L42.1064 22.9603L43.0595 22.6137L43.7527 22.5271L44.7924 22.787L46.0054 23.4801L47.1317 24.5199L48.0848 25.213L47.9981 24.9531V19.4079L48.0848 18.9747L47.5649 19.2347L46.4386 20.1877L45.5721 20.7942L44.5324 21.3141L43.4927 21.574L42.7129 21.4874L41.8465 21.1408L40.9801 20.361L40.7202 19.8412L40.6335 18.9747L40.8934 18.2816L41.4133 17.5884V17.1552L40.8934 16.5487L40.5469 15.8556V14.9025L40.8934 14.2094L41.5866 13.4296L42.7996 12.8231L43.2328 12.7365H44.1859L45.0523 12.9964L46.092 13.6029L47.305 14.7292L47.9115 15.1625L47.9981 9.9639L47.305 10.5704L46.5252 11.1769L45.3989 11.6968H44.2725L43.4061 11.2635L42.9729 10.7437L42.7996 10.1372L42.8862 9.44404L43.3194 8.83755L43.2328 8.31769L42.7996 7.71119L42.7129 6.93141L43.0595 6.23827L43.7527 5.63177L44.6191 5.2852H45.5721L46.5252 5.80505L47.7382 6.84477L47.9115 7.01805L47.9981 3.29242Z" fill="#00AA4F"/>
<path d="M92.5346 97.1263H97.6465L99.6393 97.213V119.653H92.7079L92.2747 119.22L88.8956 114.542L88.0292 113.329L86.9029 111.769L86.2964 110.989L86.2097 110.903L86.1231 113.502L86.0364 119.48L85.9498 119.653H77.8054L77.7188 119.567V97.2996L77.8054 97.213H85.5166L85.7765 97.4729L86.9029 99.1191L89.3289 102.585L90.3686 104.058L91.7549 106.051L92.2747 106.83H92.448V97.2996L92.5346 97.1263Z" fill="#00AA4F"/>
<path d="M18.6296 97.1263H22.182L26.6874 97.213L26.774 97.2996V107.177L26.6874 110.556L26.8607 111.942L27.3805 112.982L28.1603 113.502L28.9401 113.675L29.7199 113.588L30.2397 113.242L30.6729 112.722L30.9329 112.202L31.1061 111.336L31.1928 110.469L31.2794 97.213H39.3372V111.249L39.1639 112.722L38.8173 114.195L38.2975 115.581L37.691 116.621L37.0845 117.401L36.3047 118.094L35.0917 118.874L33.7054 119.48L31.7993 119.913L31.1061 120H26.9473L24.608 119.567L23.5682 119.22L22.0953 118.527L21.1422 117.747L20.3625 116.967L19.756 116.014L19.3228 115.061L18.8895 113.588L18.6296 112.029L18.543 110.816V97.213L18.6296 97.1263Z" fill="#00AA4F"/>
<path d="M43.4961 97.213H56.4058L58.5719 97.6462L59.6983 98.0794L60.8246 98.8592L61.7777 99.8123L62.5575 100.939L63.2506 102.325L63.6838 103.971V105.791L63.3372 107.264L62.7307 108.65L61.8643 109.863L61.2578 110.556L60.1315 111.422L58.8318 112.029L58.2253 112.202L57.5322 112.289H51.2939L51.3806 119.567L51.2939 119.653H43.4961V97.213ZM51.2939 103.191V106.397L51.3806 106.484H54.1531L55.0196 106.224L55.6261 105.704L55.886 105.011L55.7993 104.144L55.2795 103.451L54.8463 103.191H51.2939Z" fill="#00AA4F"/>
<path d="M20.3601 0L76.7644 0.0866426V91.6679L76.6778 91.7545H20.3601L20.2734 84.6498V12.3899L20.3601 0ZM24.5189 1.03971L21.3998 1.12635V90.6282L27.5514 90.7148L75.6381 90.6282V1.12635L75.4648 1.03971H24.5189Z" fill="#00BD46"/>
<path d="M0.0866426 97.213H8.05776V113.935H17.4152L17.5018 119.567L17.4152 119.74H0.0866426L0 119.653V97.2997L0.0866426 97.213Z" fill="#00AA4F"/>
<path d="M66.6296 97.1263L74.1675 97.213L74.2542 97.2996V119.567L74.1675 119.653H66.6296L66.543 119.567V97.213L66.6296 97.1263Z" fill="#00AA4F"/>
<path d="M75.6385 31.1913H75.7251L75.8118 39.6823V46.5271L75.8984 49.6462L76.0717 51.0325H76.245L76.3316 47.1336L76.4183 46.2672H76.5049L76.5916 47.0469H76.6782L76.7649 58.1372V91.6679L76.6782 91.7545H21.6602V91.6679L23.393 91.5812V91.3213H23.5663V91.0614L22.8732 90.8881H22.6132L22.4399 91.4946L21.8334 91.5812L21.7468 91.4946L21.6602 90.7148L22.3533 90.6282H75.6385L75.5519 60.3033V56.491L75.6385 31.1913Z" fill="#00AA4F"/>
<path d="M39.8563 66.3682L40.896 66.5415L41.9357 67.148L43.062 68.1877L44.0151 69.2274L45.2281 70.8736L46.6144 72.6931L47.8274 74.3393L48.0873 74.8592V75.1191L47.8274 75.2058L44.1018 75.2924H40.8093L38.0368 75.2058L36.9104 74.7726L36.2173 74.2527L35.6974 73.4729L35.4375 72.6065V71.6534L35.7841 70.3538L36.4772 68.9675L37.0837 68.0144L37.5169 67.4946L38.3833 66.8881L39.0765 66.5415L39.8563 66.3682Z" fill="#00AA4F"/>
<path d="M57.186 66.3682L58.399 66.6282L59.2654 67.148L60.1318 67.9278L60.9982 69.2274L61.5181 70.4404L61.778 71.3069L61.8647 72.4332L61.6914 73.213L61.2582 73.9928L60.6517 74.5993L59.9585 74.9458L59.5253 75.1191L59.0055 75.2058L56.5795 75.2924H54.4134L49.3881 75.2058L49.2148 75.1191L49.3015 74.5993L50.5145 72.8664L51.7275 71.3069L52.7672 69.9206L53.4603 69.0541L54.4134 68.0144L55.1065 67.3213L56.2329 66.6282L56.5795 66.4549L57.186 66.3682Z" fill="#00AA4F"/>
<path d="M38.5566 75.9855H47.8274L48.0873 76.1588L48.0007 76.592L47.1343 77.805L45.748 79.6245L44.535 81.2707L43.5819 82.3971L42.4556 83.6101L41.4158 84.3899L40.4628 84.8231H39.7696L38.6433 84.4765L37.8635 83.9567L36.9971 83.0902L36.3039 81.9639L35.7841 80.8375L35.4375 79.6245V78.5848L35.7841 77.6317L36.3906 76.852L37.1704 76.3321L37.8635 76.0722L38.5566 75.9855Z" fill="#00AA4F"/>
<path d="M49.5582 75.9855H58.3958L59.6954 76.1588L60.5618 76.592L61.255 77.2852L61.7748 78.3249L61.8615 79.3646L61.5149 80.7509L61.0817 81.7906L60.2153 83.1769L59.4355 83.9567L58.569 84.4765L57.4427 84.8231H56.8362L55.9698 84.4765L55.0167 83.7834L53.6304 82.3971L52.6773 81.1841L51.2911 79.3646L50.5113 78.3249L49.3849 76.7653L49.125 76.2455L49.5582 75.9855Z" fill="#00AA4F"/>
<path d="M48.6077 76.7653L48.9543 76.9386L49.994 78.5848L51.3802 81.0108L52.6799 83.3502L53.1997 84.5632L53.373 85.4296L53.2864 86.5559L52.7665 87.5956L51.9867 88.2888L50.8604 88.8086L50.2539 88.9819L48.521 89.1552H47.6546L46.7882 88.9819L45.7485 88.5487L44.9687 88.0289L44.3622 87.2491L44.0156 86.296V85.1697L44.4488 83.6967L45.142 82.3104L46.5283 80.0577L47.8279 77.8917L48.6077 76.7653Z" fill="#00AA4F"/>
<path d="M47.9145 62.2094H49.3875L50.6871 62.4693L51.8135 62.9026L52.5066 63.4224L52.9398 63.9423L53.2864 64.8087L53.373 65.6751L53.1997 66.6282L52.8532 67.6679L52.0734 69.1408L51.207 70.6137L50.5138 71.8267L49.5608 73.4729L48.8676 74.5127H48.6077L48.2611 74.0794L45.3153 69.2275L44.5355 67.8412L44.1023 66.5415L44.0156 66.1083V64.8953L44.4488 63.8556L44.9687 63.2491L45.7485 62.7293L47.1348 62.2961L47.9145 62.2094Z" fill="#00AA4F"/>
<path d="M70.7851 0.0866699H76.7634V58.1372H76.6768L76.5901 47.1336H76.4169L76.3302 49.9928L76.2436 51.0325H76.0703L75.8104 49.5596L75.7237 46.5271V38.0361L75.6371 31.1914L75.5504 1.12638H71.3049V1.03974L71.7382 0.953096L69.832 0.779811L68.619 0.693168L67.0595 0.606526H65.9331L65.3266 0.519883H64.2869L63.8537 0.43324L63.5938 0.173313L70.7851 0.0866699Z" fill="#00BD46"/>
<path d="M75.6392 31.1913H75.7258L75.8125 39.6823V46.5271L75.8991 49.6462L76.0724 51.0325H76.2457L76.3323 47.1336L76.419 46.2672H76.5056L76.5923 47.0469H76.6789L76.7656 58.1372V91.6679L76.6789 91.7545H71.4804V91.6679L72.1735 91.5812V91.4079L69.7475 91.3213L69.5742 91.2347V91.0614L70.0074 90.8881L71.567 90.8014H72.6934L73.6464 90.7148H75.1193V90.6282H75.6392L75.5526 60.3033V56.491L75.6392 31.1913Z" fill="#00AA4F"/>
<path d="M21.0554 0.0866699H70.7882V0.173313L64.2034 0.259955L64.2901 0.43324H65.4164L66.5428 0.519883H67.6691L69.2287 0.606526L70.1817 0.693168L71.7413 0.866453L71.828 1.03974L70.8749 1.12638H36.6511L21.6619 1.03974V0.953096L22.1817 0.779811L22.2684 0.519883L22.4417 0.43324V0.259955H21.402L21.2287 0.606526H21.0554L20.9688 0.173313L21.0554 0.0866699Z" fill="#00AA4F"/>
<path d="M66.8899 60.2166H71.5686L72.8682 60.4765L73.4747 60.9964L73.8213 61.6029V62.8159L73.3014 64.1155L72.6949 64.982L71.9151 65.5018L71.3953 65.6751H70.7021L69.9224 65.3285L69.0559 64.5487L68.2761 63.6823L67.1498 62.1228L66.1101 60.6498L66.0234 60.3899L66.1101 60.3033L66.8899 60.2166Z" fill="#00AA4F"/>
<path d="M32.7517 60.2166H37.2571L38.7301 60.4765L39.2499 60.8231L39.6831 61.343L39.8564 62.2094L39.5965 63.3357L38.99 64.5487L38.4701 65.1552L37.8636 65.5018L37.1705 65.6751L36.3907 65.5885L35.6976 65.2419L34.5712 64.1155L33.3582 62.4693L32.4052 61.1697L32.0586 60.6498L32.1452 60.3033L32.7517 60.2166Z" fill="#00AA4F"/>
<path d="M59.784 54.3249H60.5637L61.2569 54.5848L62.2966 55.4512L63.0764 56.4043L64.4627 58.2238L65.3291 59.4368V59.6967L63.8562 59.7834H59.6973L58.7442 59.6967L58.0511 59.2635L57.6179 58.7437L57.5312 58.3971V57.1841L57.8778 56.231L58.571 55.1913L59.2641 54.5848L59.784 54.3249Z" fill="#00AA4F"/>
<path d="M25.8198 60.2166H29.8054L31.1917 60.3033L31.2783 60.5632L30.4119 61.7762L29.0256 63.5957L28.3325 64.4621L27.726 65.0686L27.0328 65.5018L26.5996 65.6751H25.9065L25.04 65.3285L24.6068 64.982L24.0003 64.0289L23.5671 63.0758L23.4805 62.7292V61.6029L23.827 60.9964L24.3469 60.5632L24.6935 60.3899L25.8198 60.2166Z" fill="#00AA4F"/>
<path d="M59.8706 60.2166H64.2027L65.2424 60.3033L65.3291 60.5632L64.376 61.8628L63.3363 63.2491L62.7298 64.0289L61.95 64.8953L61.2569 65.4152L60.6504 65.6751L59.6973 65.5885L58.8309 65.1552L58.2244 64.3755L57.7045 63.3357L57.5312 62.7292V61.6029L57.8778 60.9964L58.3977 60.5632L58.8309 60.3899L59.8706 60.2166Z" fill="#00AA4F"/>
<path d="M25.7332 54.3249H26.513L27.2927 54.6715L28.2458 55.4512L29.0256 56.4043L29.892 57.5307L31.0184 59.0902L31.2783 59.4368V59.6967L29.8054 59.7834H25.3866L24.6068 59.6967L23.827 59.0902L23.4805 58.3971V57.1841L23.827 56.231L24.4335 55.278L25.2133 54.5848L25.7332 54.3249Z" fill="#00AA4F"/>
<path d="M70.7021 54.3249H71.4819L72.3483 54.7581L72.9548 55.3646L73.5613 56.4043L73.8213 57.1841V58.4837L73.3014 59.2635L72.8682 59.6101L72.6083 59.6967L67.0631 59.7834L66.0234 59.6967L66.1101 59.3502L67.2364 57.7906L68.2761 56.4043L69.3159 55.1913L70.2689 54.4982L70.7021 54.3249Z" fill="#00AA4F"/>
<path d="M30.7584 51.7256H32.4913L33.4443 52.0722L34.1375 52.5054L34.484 53.1119L34.5707 53.9784L34.3108 54.9314L33.6176 56.3177L32.4913 58.2238L31.7981 59.2636H31.5382L30.1519 57.0975L29.3721 55.7978L28.9389 54.8448L28.7656 54.2383V53.1986L29.1988 52.5054L29.7187 52.0722L30.7584 51.7256Z" fill="#00AA4F"/>
<path d="M36.6514 54.3249H37.4311L38.2976 54.7581L38.9041 55.3646L39.5106 56.4043L39.8571 57.7906L39.6838 58.7437L39.0773 59.4368L38.5575 59.6967H31.9727L32.0593 59.3502L33.9654 56.7509L34.7452 55.7978L35.3517 55.1047L36.2181 54.4982L36.6514 54.3249Z" fill="#00AA4F"/>
<path d="M64.8092 51.7256H66.4554L67.4951 52.0722L68.2749 52.5921L68.5348 53.1986L68.6215 53.8051L68.3615 55.0181L67.5817 56.491L66.2821 58.6571L65.7623 59.3502L65.4157 59.0036L64.376 57.3574L63.4229 55.7978L62.9897 54.8448L62.8164 54.1516V53.2852L63.163 52.5921L63.6828 52.1589L64.4626 51.8123L64.8092 51.7256Z" fill="#00AA4F"/>
<path d="M31.6248 60.7365L32.058 61.1697L32.8378 62.5559L33.7043 64.0289L34.3974 65.5018L34.5707 66.1083V66.7148L34.2241 67.4079L33.4443 68.1011L32.6645 68.361H30.4985L29.7187 68.0144L29.0256 67.4079L28.7656 66.7148V65.935L29.1988 64.722L29.9786 63.3357L30.845 61.9494L31.4515 60.9097L31.6248 60.7365Z" fill="#00AA4F"/>
<path d="M65.6756 60.7365L66.1088 61.1697L66.8886 62.5559L67.755 64.0289L68.3615 65.3285L68.6215 66.1949L68.5348 66.9747L67.9283 67.7545L67.0619 68.2744L66.6287 68.361H64.4626L63.5962 67.9278L62.9897 67.2346L62.8164 66.8014V65.935L63.2496 64.722L63.9428 63.509L64.7225 62.2094L65.589 60.8231L65.6756 60.7365Z" fill="#00AA4F"/>
<path d="M76.6789 68.1877H76.7656V91.6679L76.6789 91.7545H71.4804V91.6679L72.1735 91.5812V91.408L69.7475 91.3213L69.5742 91.2347V91.0614L70.0074 90.8881L71.567 90.8015H72.6934L73.6464 90.7148H75.1193V90.6282H75.6392V84.9964L75.7258 79.4513L75.8125 77.9784V71.5668L76.1591 71.4802L76.2457 71.6534L76.419 73.6462L76.5056 77.3719L76.5923 79.5379V76.6787L76.6789 68.1877Z" fill="#00BD46"/>
<path d="M74.1658 97.2996H74.2524V119.48L74.1658 119.22L73.8192 119.393L73.4727 119.307L73.8192 118.527L73.7326 116.188L73.6459 113.502V101.805L73.7326 99.7256L73.8192 99.2058V97.7328L73.9059 97.5595H74.1658V97.2996Z" fill="#00BE46"/>
<path d="M51.2042 113.069H51.2908L51.3774 119.567L51.2908 119.394L50.6843 119.567L50.5977 119.307L50.8576 118.614V117.834L50.9442 116.708V116.014L50.8576 115.755V114.282L51.0309 113.155L51.2042 113.069Z" fill="#00BD46"/>
<path d="M63.2509 106.051L63.5108 106.137V106.31L63.4242 107.004L62.9043 108.303L62.3845 109.17L61.4314 110.383L61.0849 110.643L60.7383 110.469L61.1715 109.949H61.5181L61.6047 109.603L62.2112 108.823L62.8177 107.177L63.0776 106.224L63.2509 106.051Z" fill="#00BC46"/>
<path d="M24 0.0866699H39.6823V0.173313L29.2852 0.259955L29.0253 0.346598H28.7653V0.173313H28.4188L28.3321 0.346598L28.1588 0.259955L24 0.173313V0.0866699Z" fill="#00BE46"/>
<path d="M19.4961 115.408L19.9293 115.495L20.4492 116.361L21.0557 116.968L21.4889 117.574L21.4022 117.921L20.7957 117.401L20.1026 116.621L19.4961 115.408Z" fill="#00BD46"/>
<path d="M87.0756 111.596L87.5088 111.769L87.6821 112.115H87.8554L88.1153 112.549L88.3753 113.328L88.4619 113.762L88.0287 113.328L86.9023 111.769L87.0756 111.596Z" fill="#00BD46"/>
<path d="M62.903 101.978L63.2496 102.325L63.6828 103.971L63.5962 104.318L63.4229 104.578L63.2496 104.231L63.163 103.538V103.018L62.903 102.931L62.8164 102.585L62.903 101.978Z" fill="#00BD46"/>
<path d="M24.6931 90.6282H27.2924V90.7148L25.5595 90.8015L25.3862 90.9747V91.2347H25.2129V91.0614L24.6064 91.2347L24.5198 91.0614L24.1732 90.9747L23.9999 91.0614L23.74 90.8881L23.0469 90.8015V90.7148L24.6931 90.6282Z" fill="#00BD46"/>
<path d="M44.8817 87.2491L44.9684 87.4224L45.2283 87.509V87.7689L45.5749 87.8556L46.0081 88.2888L45.9214 88.5487L45.4016 88.3754L44.7084 87.7689L44.5352 87.4224L44.8817 87.2491Z" fill="#00BD46"/>
<path d="M75.5539 0.606506L75.9871 0.693149L76.0737 1.03972L75.8138 1.29965V1.12636L73.7344 1.03972L74.0809 0.866434H74.4275V0.693149L75.034 0.779792L75.3806 0.866434L75.5539 0.606506Z" fill="#00AC4E"/>
<path d="M52.7663 86.7292L53.1128 86.9025L52.7663 87.5957L51.9865 88.2888L51.7266 88.2022L51.8132 88.0289H51.9865L52.1598 87.6823L52.6796 86.9892L52.7663 86.7292Z" fill="#00BC46"/>
<path d="M39.2489 110.383H39.3356V111.249L39.1623 112.722L38.989 112.809L38.9023 111.076L39.2489 110.903V110.383Z" fill="#00BD46"/>
<path d="M19.4961 115.408L19.9293 115.495L20.4492 116.361L20.5358 116.794H20.2759L19.756 116.014L19.4961 115.408Z" fill="#00BA47"/>
<path d="M69.2266 64.6354L70.0063 64.8087V64.9819L70.5262 65.1552V65.3285L71.1327 65.5884V65.6751L70.4396 65.5884L69.6598 65.1552L69.2266 64.6354Z" fill="#00BD46"/>
<path d="M51.2912 103.538L51.3778 103.798V105.617L51.2912 105.271H51.1179L51.0312 105.011V104.144L51.2912 103.538Z" fill="#00BE46"/>
<path d="M36.9961 82.7437L37.4293 82.9169V83.0902H37.6026L38.0358 83.5234V83.7834L37.6026 83.6967L36.9961 83.0902V82.7437Z" fill="#00BC46"/>
<path d="M85.864 114.022H86.0373V115.408L85.864 115.755L85.7773 115.495V114.282L85.864 114.022Z" fill="#00BC46"/>
<path d="M74.4275 0.693115L75.034 0.779758L75.2939 1.03969H73.7344L74.0809 0.8664H74.4275V0.693115Z" fill="#00AA50"/>
<path d="M88.7234 114.022L89.3299 114.542L89.5031 115.148H89.3299L88.6367 114.195L88.7234 114.022Z" fill="#00BC46"/>
<path d="M73.0408 64.2021L73.2141 64.2888L72.6942 64.9819L72.3477 65.1552L72.4343 64.722H72.6076L72.7809 64.3754L73.0408 64.2021Z" fill="#00BE46"/>
<path d="M90.9766 117.314H91.4098L91.6697 118.007L91.5831 118.267L90.9766 117.401V117.314Z" fill="#00BC46"/>
<path d="M89.5866 115.235L89.9332 115.321L90.1931 115.581V115.841L89.7599 115.755L89.5 115.321L89.5866 115.235Z" fill="#00BD46"/>
<path d="M75.6381 89.935L75.8981 90.0216L75.9847 90.6281L75.6381 90.8014L75.4648 90.6281H75.6381V89.935Z" fill="#00AA50"/>
</svg>
