<svg width="300" height="83" viewBox="0 0 300 83" fill="none" xmlns="http://www.w3.org/2000/svg">
<path fill-rule="evenodd" clip-rule="evenodd" d="M251.991 7.2583L299.999 45.5678L249.16 79.1126L285.989 49.6727L259.534 28.4962C260.938 21.5908 259.58 14.3248 252.007 7.2583" fill="#0075BB"/>
<path fill-rule="evenodd" clip-rule="evenodd" d="M257.813 32.3248L279.664 49.8338L239.621 82.4655L269.383 52.4885L251.383 38.3018C253.754 36.7212 256.079 35.2328 257.828 32.3248" fill="#4CA12F"/>
<path fill-rule="evenodd" clip-rule="evenodd" d="M48.9056 55.8568L50.1639 46.6496H47.1562L47.4325 44.6931H55.6345L55.3736 46.6496H52.5731L51.3302 55.8568H48.9056Z" fill="#4CA12F"/>
<path d="M51.3714 55.9031H48.8548V55.8494L50.1131 46.6959H47.1055V46.6422L47.3894 44.6473H55.6758V44.7011L55.4072 46.6959H52.6144L51.3714 55.9031ZM48.9546 55.811H51.2564L52.5607 46.6039H55.3612L55.6067 44.7394H47.4738L47.1899 46.6039H50.2589V46.6499L48.9546 55.811Z" fill="#4CA12F"/>
<path fill-rule="evenodd" clip-rule="evenodd" d="M58.3072 48.138C59.3741 48.0818 60.4205 48.4453 61.2228 49.1508C61.5875 49.4993 61.8729 49.9223 62.0596 50.391C62.2463 50.8597 62.3299 51.363 62.3047 51.8669C62.3234 52.4404 62.2187 53.0112 61.9976 53.5407C61.7765 54.0702 61.4443 54.546 61.0233 54.9359C60.5837 55.3462 60.0672 55.6652 59.5035 55.8746C58.9399 56.084 58.3403 56.1796 57.7394 56.1559C56.6846 56.2094 55.651 55.8456 54.8622 55.1431C54.507 54.7978 54.2285 54.3816 54.0448 53.9216C53.861 53.4616 53.7762 52.968 53.7957 52.473C53.7762 51.8929 53.8788 51.3151 54.0969 50.7771C54.315 50.2392 54.6437 49.7531 55.0617 49.3503C55.4929 48.9396 56.0027 48.6206 56.5605 48.4122C57.1183 48.2039 57.7124 48.1106 58.3072 48.138ZM58.3072 50.1022C58.0098 50.0923 57.7136 50.1444 57.4375 50.2554C57.1614 50.3664 56.9115 50.5337 56.7036 50.7467C56.2865 51.2198 56.0668 51.835 56.0898 52.4654C56.0711 52.9301 56.2334 53.3839 56.5425 53.7313C56.709 53.8892 56.9054 54.012 57.1203 54.0924C57.3351 54.1728 57.564 54.2092 57.7932 54.1994C58.0893 54.2082 58.384 54.1555 58.6587 54.0446C58.9334 53.9336 59.1821 53.7669 59.3891 53.5549C59.5988 53.3315 59.7618 53.0684 59.8685 52.7812C59.9752 52.494 60.0235 52.1884 60.0105 51.8822C60.0274 51.6467 59.9959 51.4101 59.9181 51.1872C59.8402 50.9642 59.7176 50.7595 59.5579 50.5856C59.3943 50.4227 59.1986 50.2956 58.9834 50.2124C58.7681 50.1292 58.5378 50.0917 58.3072 50.1022Z" fill="#4CA12F"/>
<path d="M57.7352 56.2024C56.6783 56.2508 55.6448 55.8815 54.858 55.1742C54.498 54.8253 54.2157 54.4045 54.0293 53.9391C53.8429 53.4738 53.7566 52.9744 53.7761 52.4735C53.7571 51.8881 53.8606 51.3053 54.0799 50.7622C54.2992 50.2192 54.6296 49.728 55.0498 49.32C55.4812 48.9105 55.9894 48.5905 56.5452 48.3785C57.1009 48.1665 57.6931 48.0666 58.2877 48.0847C59.367 48.0245 60.4263 48.3942 61.2339 49.1129C61.603 49.4653 61.892 49.893 62.0813 50.3669C62.2706 50.8408 62.3558 51.3499 62.3311 51.8597C62.3495 52.4413 62.2434 53.0202 62.0197 53.5575C61.7961 54.0947 61.4602 54.578 61.0344 54.9748C60.5901 55.3877 60.0685 55.7087 59.4997 55.9194C58.9308 56.13 58.326 56.2262 57.7199 56.2024M58.303 48.1768C57.7185 48.1528 57.1351 48.2471 56.588 48.4541C56.0408 48.6611 55.5411 48.9765 55.1189 49.3814C54.7097 49.7788 54.3873 50.2567 54.172 50.7849C53.9568 51.3131 53.8533 51.8802 53.8682 52.4505C53.8478 52.9385 53.9309 53.4253 54.112 53.8789C54.2932 54.3324 54.5684 54.7425 54.9194 55.0822C55.6901 55.7731 56.7012 56.134 57.7352 56.0873C58.33 56.1169 58.9247 56.0277 59.4846 55.8248C60.0445 55.6219 60.5583 55.3095 60.9961 54.9057C61.4159 54.5157 61.7464 54.0394 61.9649 53.5097C62.1834 52.98 62.2848 52.4092 62.2621 51.8367C62.2888 51.3386 62.2074 50.8406 62.0232 50.377C61.8391 49.9134 61.5568 49.4952 61.1956 49.1512C60.4072 48.4548 59.3764 48.0965 58.326 48.1538M57.8119 54.2075C57.5775 54.2174 57.3434 54.1804 57.1234 54.0987C56.9033 54.017 56.7018 53.8923 56.5306 53.7318C56.214 53.3756 56.0464 52.9114 56.0626 52.4351C56.039 51.7927 56.2644 51.166 56.6917 50.6858C56.9026 50.4672 57.1571 50.2956 57.4386 50.1819C57.7202 50.0682 58.0226 50.0151 58.326 50.0259C58.5632 50.0155 58.7999 50.0552 59.0207 50.1424C59.2415 50.2297 59.4414 50.3625 59.6073 50.5323C59.7713 50.71 59.8968 50.9196 59.976 51.148C60.0552 51.3764 60.0864 51.6186 60.0677 51.8597C60.0807 52.1693 60.0326 52.4784 59.9259 52.7694C59.8193 53.0604 59.6563 53.3275 59.4462 53.5553C59.2338 53.7713 58.9789 53.9408 58.6976 54.053C58.4163 54.1653 58.1147 54.2179 57.8119 54.2075ZM58.326 50.118C58.0407 50.1119 57.7573 50.1647 57.4933 50.2729C57.2293 50.3812 56.9904 50.5426 56.7915 50.7471C56.3797 51.2108 56.1626 51.8154 56.1854 52.4351C56.1664 52.8869 56.3263 53.328 56.6304 53.6627C56.7898 53.8189 56.9798 53.9404 57.1884 54.0196C57.397 54.0988 57.6198 54.1341 57.8426 54.1231C58.128 54.1296 58.4115 54.077 58.6756 53.9688C58.9397 53.8605 59.1785 53.6988 59.3772 53.4939C59.7856 53.0497 60.0033 52.4628 59.9833 51.8597C60.0001 51.6294 59.9692 51.3981 59.8927 51.1803C59.8161 50.9625 59.6955 50.7628 59.5383 50.5937C59.3816 50.4328 59.1925 50.3072 58.9834 50.2252C58.7744 50.1431 58.5503 50.1066 58.326 50.118Z" fill="#4CA12F"/>
<path fill-rule="evenodd" clip-rule="evenodd" d="M66.5906 48.3761L66.1686 51.5065C66.1686 51.5986 66.1686 51.7213 66.1226 51.8978C66.0584 52.2165 66.0199 52.5398 66.0075 52.8646C65.9903 53.241 66.1195 53.6095 66.3681 53.8927C66.6541 54.1418 67.0251 54.2709 67.4039 54.2533C67.6637 54.2715 67.9242 54.2282 68.1641 54.1268C68.4041 54.0255 68.6168 53.8691 68.785 53.6702C69.1757 52.9616 69.4062 52.1758 69.4602 51.3684L69.8668 48.3684H72.0995L71.6469 51.6369C71.5632 52.4191 71.3986 53.1905 71.1558 53.9387C70.9872 54.3896 70.7258 54.8 70.3885 55.1434C70.0206 55.4948 69.577 55.7573 69.0919 55.9106C68.5357 56.097 67.952 56.1877 67.3655 56.1792C66.4295 56.2258 65.505 55.9555 64.7415 55.4119C64.4303 55.1796 64.1798 54.8754 64.0115 54.5254C63.8431 54.1754 63.7619 53.7898 63.7748 53.4017C63.7748 53.1945 63.7748 52.9183 63.8208 52.5577C63.8668 52.197 63.9205 51.7137 63.9973 51.1229L64.3732 48.3838H66.6059" fill="#4CA12F"/>
<path d="M67.3529 56.2022C66.41 56.2458 65.4793 55.976 64.7058 55.4349C64.3878 55.1986 64.1317 54.8889 63.9593 54.5322C63.787 54.1755 63.7035 53.7823 63.7161 53.3863C63.7161 53.1817 63.7314 52.8978 63.7621 52.5347C63.8005 52.1664 63.8619 51.6677 63.9386 51.0999L64.3222 48.3301H66.624L66.202 51.4989V51.637V51.8902C66.1436 52.2095 66.1077 52.5325 66.0946 52.8569C66.0743 53.2205 66.1952 53.5779 66.4322 53.8544C66.7107 54.0939 67.0704 54.2174 67.4373 54.1996C67.6895 54.2194 67.9427 54.1789 68.1762 54.0815C68.4096 53.9841 68.6166 53.8326 68.78 53.6395C69.1676 52.9301 69.3954 52.1445 69.4475 51.3377L69.8618 48.2687H72.1636V48.3147L71.7109 51.5833C71.6256 52.3645 71.4637 53.1355 71.2276 53.8851C71.0592 54.3405 70.7979 54.756 70.4603 55.105C70.086 55.4559 69.6376 55.7181 69.1483 55.8723C68.5865 56.0571 67.998 56.1478 67.4066 56.1408M64.4526 48.3607L64.069 51.1152C63.9923 51.6907 63.9232 52.1894 63.8925 52.5577C63.8619 52.926 63.8465 53.1868 63.8465 53.394C63.8343 53.7761 63.9144 54.1556 64.08 54.5002C64.2457 54.8447 64.4919 55.1443 64.7979 55.3735C65.5535 55.9095 66.4657 56.1794 67.3913 56.1408C67.9722 56.15 68.5505 56.0618 69.1023 55.8799C69.5823 55.7252 70.0206 55.4628 70.3836 55.1127C70.7201 54.7746 70.9816 54.3694 71.1508 53.9234C71.3824 53.1883 71.5443 52.4331 71.6342 51.6677L72.0792 48.4528H69.9002L69.5012 51.4145C69.4432 52.2232 69.2075 53.0092 68.8107 53.7163C68.6394 53.92 68.4219 54.0798 68.1763 54.1826C67.9308 54.2853 67.6643 54.328 67.3989 54.307C67.0089 54.329 66.6258 54.1967 66.3324 53.9388C66.0749 53.6481 65.9426 53.2676 65.9642 52.8799C65.9767 52.5501 66.0152 52.2217 66.0792 51.8978V51.6446V51.5219L66.4936 48.4528L64.4526 48.3607Z" fill="#4CA12F"/>
<path fill-rule="evenodd" clip-rule="evenodd" d="M79.7391 50.8009C79.4443 50.5582 79.1161 50.3593 78.7647 50.2101C78.4691 50.0827 78.1505 50.0174 77.8286 50.0183C77.5085 50.0039 77.1889 50.0566 76.8904 50.1728C76.5918 50.2891 76.3207 50.4664 76.0946 50.6935C75.8724 50.9287 75.6996 51.206 75.5863 51.5091C75.4729 51.8122 75.4214 52.1349 75.4348 52.4582C75.4226 52.7051 75.4643 52.9518 75.5571 53.181C75.6498 53.4102 75.7913 53.6165 75.9719 53.7855C76.3735 54.1193 76.8849 54.2916 77.4066 54.2689C77.7532 54.2699 78.0977 54.2155 78.4271 54.1078C78.8302 53.997 79.221 53.8453 79.5933 53.6551L79.2174 55.719C78.9004 55.8712 78.5651 55.9821 78.2199 56.049C77.8463 56.125 77.4656 56.161 77.0844 56.1564C76.0367 56.2108 75.0094 55.8527 74.2225 55.1589C73.8645 54.8125 73.5843 54.3939 73.4005 53.9309C73.2166 53.4679 73.1333 52.9711 73.156 52.4735C73.1374 51.8941 73.2397 51.3173 73.4563 50.7796C73.673 50.242 73.9992 49.7554 74.4143 49.3507C74.837 48.9432 75.3375 48.6251 75.8859 48.4155C76.4343 48.2059 77.0194 48.1091 77.6061 48.1308C78.0867 48.1238 78.5655 48.1911 79.0256 48.3303C79.4754 48.4594 79.8989 48.6672 80.2762 48.9441L79.7391 50.8009Z" fill="#4CA12F"/>
<path d="M77.1104 56.2021C76.0511 56.2539 75.0135 55.8906 74.2178 55.1894C73.8563 54.8384 73.573 54.415 73.3866 53.9469C73.2002 53.4788 73.1148 52.9766 73.136 52.4732C73.117 51.8879 73.2204 51.305 73.4398 50.762C73.6591 50.219 73.9894 49.7277 74.4096 49.3198C74.8357 48.9071 75.3408 48.585 75.8946 48.3727C76.4484 48.1604 77.0395 48.0624 77.6321 48.0845C78.1158 48.0781 78.5974 48.148 79.0593 48.2916C79.5116 48.4203 79.9377 48.6281 80.3176 48.9055L79.7651 50.8313H79.7114C79.4215 50.5897 79.0985 50.3908 78.7523 50.2405C78.4607 50.1185 78.1477 50.0559 77.8316 50.0564C77.5187 50.0426 77.2063 50.0941 76.9143 50.2077C76.6224 50.3213 76.3573 50.4945 76.136 50.7162C75.9141 50.9434 75.7416 51.2141 75.6293 51.5112C75.5171 51.8083 75.4675 52.1254 75.4838 52.4425C75.4711 52.6829 75.5105 52.9232 75.5992 53.147C75.6879 53.3708 75.8239 53.5728 75.9979 53.7392C76.3917 54.07 76.8959 54.2399 77.4096 54.2149C77.7503 54.2128 78.0889 54.1611 78.4147 54.0615C78.8139 53.9462 79.2017 53.7947 79.5733 53.6088H79.6577L79.2664 55.7801C78.9453 55.9371 78.6047 56.0506 78.2536 56.1177C77.8772 56.1921 77.4941 56.2281 77.1104 56.2251M77.6398 48.1996C77.0592 48.1791 76.4803 48.2751 75.9374 48.482C75.3944 48.6889 74.8985 49.0025 74.4787 49.4042C74.0705 49.8019 73.7493 50.2801 73.5353 50.8083C73.3214 51.3366 73.2194 51.9035 73.2357 52.4732C73.2106 52.9641 73.2914 53.4545 73.4728 53.9113C73.6542 54.3681 73.9319 54.7804 74.2869 55.1203C75.0639 55.8095 76.0809 56.165 77.1181 56.1101C77.4942 56.1131 77.8696 56.0771 78.2383 56.0026C78.5755 55.9411 78.9031 55.8353 79.2127 55.6881L79.5656 53.7392C79.2148 53.9078 78.8503 54.0464 78.4761 54.1535C78.1406 54.2569 77.7914 54.3087 77.4403 54.307C76.9077 54.3315 76.3851 54.1564 75.9749 53.8159C75.789 53.6422 75.6433 53.43 75.5479 53.1941C75.4525 52.9582 75.4096 52.7043 75.4224 52.4502C75.4089 52.1221 75.4617 51.7947 75.5777 51.4875C75.6937 51.1803 75.8706 50.8997 76.0976 50.6625C76.325 50.4297 76.5992 50.2478 76.9021 50.1288C77.2049 50.0098 77.5296 49.9563 77.8547 49.972C78.1861 49.9741 78.5142 50.0392 78.8214 50.1638C79.1532 50.3107 79.4651 50.4989 79.7498 50.7239L80.2562 48.9592C79.8904 48.6935 79.4798 48.496 79.0439 48.376C78.5914 48.2382 78.1204 48.1709 77.6475 48.1766" fill="#4CA12F"/>
<path fill-rule="evenodd" clip-rule="evenodd" d="M80.8393 55.8571L82.4582 44.0413H84.6756L84.0771 48.4607C84.0514 48.6548 84.013 48.8471 83.962 49.0361C83.9333 49.1927 83.8843 49.3449 83.8163 49.4888C84.2042 49.0681 84.6641 48.7199 85.1743 48.4607C85.6286 48.2406 86.1273 48.1278 86.6321 48.1308C87.3347 48.0809 88.0311 48.2912 88.5886 48.7216C88.8234 48.9265 89.0083 49.1823 89.1293 49.4695C89.2503 49.7567 89.3042 50.0677 89.2868 50.3789C89.2701 50.8337 89.2266 51.2872 89.1564 51.7369V51.898L88.6193 55.8571H86.3866L86.9544 51.6909C86.9544 51.5298 86.9544 51.407 86.9544 51.2996V51.031C86.9653 50.8802 86.9435 50.7287 86.8906 50.587C86.8376 50.4453 86.7547 50.3168 86.6475 50.2101C86.4033 50.0064 86.09 49.9047 85.7728 49.9262C85.4936 49.9099 85.214 49.9498 84.9504 50.0433C84.6869 50.1369 84.4447 50.2823 84.2383 50.4709C83.8366 50.959 83.5954 51.5593 83.5477 52.1896L83.0413 55.8571H80.8086" fill="#4CA12F"/>
<path d="M88.6186 55.9029H86.3168L86.8846 51.6829V51.4527V51.2993V51.0307C86.8885 50.8893 86.864 50.7486 86.8126 50.6168C86.7613 50.485 86.684 50.3649 86.5854 50.2635C86.348 50.0707 86.0465 49.9748 85.7414 49.9949C85.4707 49.9811 85.1999 50.0207 84.9445 50.1116C84.6891 50.2024 84.4541 50.3427 84.2529 50.5243C83.8583 51.0071 83.6201 51.5985 83.57 52.22L83.0713 55.9259H80.7695V55.8722L82.3961 44.0179H84.6979L84.0918 48.4834C84.0645 48.6823 84.0261 48.8796 83.9767 49.0742L83.9076 49.3274C84.266 48.9697 84.6775 48.6695 85.1276 48.4374C85.5879 48.2191 86.0912 48.1064 86.6007 48.1075C87.3151 48.0586 88.0224 48.2744 88.5879 48.7136C88.8275 48.9221 89.0162 49.1826 89.1399 49.4751C89.2636 49.7676 89.3188 50.0845 89.3015 50.4016C89.2835 50.8589 89.24 51.3148 89.1711 51.7673V51.9284L88.6186 55.9029ZM86.4012 55.8108H88.5419L89.0713 51.8901V51.7289C89.1403 51.2816 89.1839 50.8308 89.2017 50.3786C89.2189 50.0752 89.167 49.772 89.05 49.4916C88.9331 49.2112 88.7541 48.9609 88.5265 48.7596C87.9764 48.3386 87.2921 48.1314 86.6007 48.1765C86.1017 48.1729 85.6084 48.2831 85.1583 48.4988C84.6534 48.7597 84.1968 49.1048 83.8079 49.5192L83.7388 49.4655C83.8034 49.3256 83.8523 49.1789 83.8846 49.0282C83.9343 48.8392 83.9702 48.6469 83.992 48.4527L84.5828 44.0793H82.4805L80.8923 55.8108H83.033L83.5317 52.1816C83.583 51.5425 83.8294 50.9345 84.2376 50.4399C84.6558 50.0592 85.2069 49.858 85.7721 49.8798C86.0996 49.8611 86.4224 49.965 86.6775 50.1714C86.7896 50.2832 86.8764 50.4178 86.932 50.566C86.9876 50.7143 87.0107 50.8728 86.9997 51.0307V51.2993V51.4681V51.6906L86.4012 55.8108Z" fill="#4CA12F"/>
<path fill-rule="evenodd" clip-rule="evenodd" d="M90.773 55.857L91.7781 48.3762H93.9878L92.9827 55.857H90.75M91.9316 45.4913C91.9292 45.322 91.9621 45.1541 92.0281 44.9982C92.0942 44.8423 92.192 44.7019 92.3152 44.5859C92.5648 44.3476 92.8986 44.2179 93.2436 44.2253C93.4134 44.221 93.5823 44.2506 93.7404 44.3126C93.8985 44.3745 94.0426 44.4674 94.1643 44.5859C94.2876 44.7019 94.3853 44.8423 94.4514 44.9982C94.5174 45.1541 94.5503 45.322 94.5479 45.4913C94.5501 45.6582 94.517 45.8238 94.4509 45.9771C94.3848 46.1305 94.2872 46.2682 94.1643 46.3813C93.9166 46.6217 93.585 46.7562 93.2398 46.7562C92.8946 46.7562 92.5629 46.6217 92.3152 46.3813C92.1912 46.2691 92.0928 46.1316 92.0266 45.978C91.9604 45.8244 91.928 45.6584 91.9316 45.4913Z" fill="#4CA12F"/>
<path d="M93.044 55.9031H90.7422V55.8494L91.755 48.3378H94.0568V48.3839L93.044 55.9031ZM90.8266 55.811H92.9672L93.957 48.4222H91.8164L90.8266 55.811ZM93.2665 46.8033C93.0884 46.807 92.9114 46.7743 92.7464 46.707C92.5815 46.6397 92.4321 46.5393 92.3074 46.412C92.1786 46.2962 92.0763 46.1541 92.0075 45.9952C91.9386 45.8363 91.9048 45.6644 91.9084 45.4913C91.9052 45.3171 91.9392 45.1442 92.008 44.9842C92.0768 44.8241 92.1788 44.6805 92.3074 44.5629C92.435 44.4412 92.5855 44.346 92.7501 44.2828C92.9147 44.2196 93.0902 44.1896 93.2665 44.1946C93.4416 44.1898 93.6159 44.2199 93.7792 44.2831C93.9426 44.3463 94.0917 44.4415 94.2179 44.5629C94.3463 44.6823 94.4481 44.8273 94.5169 44.9885C94.5856 45.1498 94.6197 45.3237 94.6169 45.499C94.619 45.6719 94.5845 45.8433 94.5157 46.002C94.447 46.1606 94.3455 46.303 94.2179 46.4197C94.0949 46.5471 93.9469 46.6477 93.7832 46.715C93.6194 46.7824 93.4435 46.8151 93.2665 46.811M92.0005 45.5067C91.997 45.6668 92.0281 45.8257 92.0916 45.9727C92.1552 46.1197 92.2497 46.2512 92.3688 46.3583C92.4859 46.4764 92.626 46.5694 92.7804 46.6314C92.9347 46.6934 93.1002 46.7232 93.2665 46.7189C93.4305 46.7229 93.5935 46.693 93.7454 46.6309C93.8972 46.5688 94.0346 46.476 94.1488 46.3583C94.2693 46.2483 94.3656 46.1144 94.4314 45.9651C94.4973 45.8158 94.5313 45.6545 94.5313 45.4913C94.5313 45.3281 94.4973 45.1668 94.4314 45.0175C94.3656 44.8682 94.2693 44.7343 94.1488 44.6243C94.0327 44.5101 93.8947 44.4206 93.743 44.3613C93.5914 44.3019 93.4293 44.2739 93.2665 44.279C92.9338 44.2732 92.6118 44.397 92.3688 44.6243C92.2503 44.7367 92.1564 44.8725 92.093 45.023C92.0296 45.1736 91.9981 45.3356 92.0005 45.499V45.5067Z" fill="#4CA12F"/>
<path fill-rule="evenodd" clip-rule="evenodd" d="M95.207 55.8568L96.2198 48.376H98.2914L98.115 49.5499C98.5203 49.1133 98.9979 48.75 99.5267 48.4758C99.9804 48.2446 100.483 48.1262 100.992 48.1305C101.695 48.0806 102.391 48.2909 102.949 48.7213C103.185 48.9251 103.371 49.1807 103.492 49.4682C103.613 49.7557 103.666 50.0672 103.647 50.3786C103.63 50.8334 103.587 51.2869 103.516 51.7366V51.8978L102.987 55.8568H100.754L101.314 51.6906C101.336 51.5612 101.349 51.4304 101.353 51.2993V51.0308C101.362 50.88 101.34 50.729 101.287 50.5875C101.234 50.4461 101.152 50.3174 101.046 50.2098C100.8 50.0089 100.488 49.9075 100.171 49.9259C99.8919 49.9088 99.6121 49.9482 99.3484 50.0418C99.0847 50.1354 98.8427 50.2813 98.6367 50.4706C98.2322 50.9578 97.9884 51.5581 97.9385 52.1893L97.4398 55.8568H95.207Z" fill="#4CA12F"/>
<path d="M102.998 55.9025H100.696L101.264 51.6825V51.4523V51.2989V51.0303C101.271 50.8886 101.248 50.7469 101.196 50.6147C101.145 50.4824 101.066 50.3626 100.964 50.2631C100.73 50.0694 100.431 49.9733 100.128 49.9945C99.8572 49.9803 99.5863 50.0197 99.3309 50.1106C99.0754 50.2014 98.8404 50.3419 98.6395 50.5239C98.2392 51.0033 98.0003 51.5966 97.9566 52.2196L97.4502 55.9255H95.1484L96.1766 48.3603H98.3402L98.1791 49.4421C98.5589 49.0408 99.0054 48.7085 99.4988 48.46C99.9591 48.2237 100.47 48.1026 100.987 48.1071C101.702 48.0575 102.409 48.2733 102.975 48.7132C103.215 48.9206 103.405 49.1809 103.529 49.4737C103.653 49.7664 103.707 50.0839 103.688 50.4012C103.67 50.8585 103.627 51.3145 103.558 51.7669V51.928L102.998 55.9025ZM100.772 55.8104H102.921L103.443 51.8897V51.7285C103.512 51.2813 103.556 50.8304 103.573 50.3782C103.59 50.0748 103.538 49.7716 103.421 49.4912C103.304 49.2108 103.125 48.9605 102.898 48.7592C102.349 48.3356 101.664 48.1281 100.972 48.1761C100.466 48.1695 99.9658 48.2853 99.5142 48.5137C98.9921 48.7882 98.52 49.1488 98.1177 49.5802H98.041L98.2098 48.46H96.2917L95.2559 55.8104H97.4042L97.8952 52.1812C97.9444 51.5429 98.1881 50.9351 98.5934 50.4395C99.0134 50.0616 99.5633 49.8609 100.128 49.8794C100.455 49.8622 100.778 49.966 101.033 50.171C101.143 50.2843 101.228 50.4193 101.282 50.5673C101.336 50.7153 101.358 50.8731 101.348 51.0303V51.2989V51.4677V51.6902L100.772 55.8104Z" fill="#4CA12F"/>
<path fill-rule="evenodd" clip-rule="evenodd" d="M111.498 48.3764H113.661L112.84 54.5145V54.7523C112.61 56.4403 112.288 57.5298 111.881 58.0285C111.526 58.4588 111.055 58.7783 110.523 58.9493C109.856 59.1701 109.154 59.2714 108.452 59.2485C107.527 59.3053 106.608 59.0748 105.82 58.5886C105.505 58.3508 105.245 58.0483 105.057 57.7016C104.87 57.3548 104.758 56.9719 104.73 56.5784L106.794 56.3943C106.859 56.7606 107.059 57.0893 107.355 57.315C107.708 57.5212 108.112 57.6223 108.521 57.6066C108.81 57.6294 109.101 57.582 109.368 57.4685C109.635 57.355 109.871 57.1786 110.055 56.9544C110.46 56.2568 110.657 55.4583 110.623 54.6526C110.352 55.0221 109.997 55.3219 109.587 55.5273C109.145 55.7195 108.666 55.8138 108.183 55.8035C107.758 55.8264 107.334 55.7588 106.937 55.6054C106.54 55.452 106.18 55.2162 105.881 54.9135C105.297 54.2066 105.004 53.3043 105.06 52.3892C105.017 51.2594 105.391 50.1533 106.112 49.2817C106.438 48.8937 106.847 48.584 107.309 48.3755C107.772 48.167 108.275 48.065 108.782 48.0771C109.295 48.0662 109.803 48.1794 110.262 48.4071C110.708 48.6228 111.085 48.9573 111.352 49.3738L111.513 48.3227M111.091 51.5298C111.115 51.2916 111.085 51.051 111.005 50.8254C110.925 50.5998 110.796 50.3947 110.628 50.2246C110.459 50.0546 110.255 49.9239 110.03 49.8418C109.805 49.7597 109.565 49.7283 109.326 49.7498C109.038 49.7337 108.749 49.7841 108.483 49.8972C108.217 50.0103 107.981 50.183 107.792 50.4019C107.384 50.9257 107.182 51.5808 107.224 52.2434C107.213 52.4761 107.253 52.7083 107.34 52.9243C107.427 53.1402 107.561 53.3345 107.73 53.494C107.901 53.6587 108.103 53.7866 108.325 53.8698C108.546 53.9529 108.783 53.9896 109.019 53.9774C109.31 53.9965 109.601 53.9459 109.868 53.8298C110.135 53.7136 110.37 53.5354 110.554 53.3099C110.949 52.8038 111.146 52.1707 111.106 51.5298" fill="#4CA12F"/>
<path d="M108.424 59.3095C107.489 59.3629 106.56 59.13 105.762 58.642C105.449 58.3993 105.191 58.0935 105.005 57.7445C104.818 57.3955 104.708 57.0111 104.68 56.6164V56.578H104.733L106.828 56.3862V56.4246C106.892 56.7811 107.086 57.1011 107.373 57.3223C107.72 57.5212 108.116 57.6195 108.516 57.6062C108.804 57.6335 109.095 57.5897 109.363 57.4787C109.63 57.3677 109.866 57.1928 110.051 56.9693C110.423 56.3294 110.611 55.5994 110.595 54.8594C110.333 55.18 110.006 55.4415 109.636 55.6266C109.187 55.8243 108.7 55.9213 108.209 55.9105C107.773 55.9363 107.337 55.8689 106.93 55.7128C106.522 55.5566 106.153 55.3154 105.846 55.0051C105.253 54.2904 104.954 53.3771 105.01 52.4502C104.967 51.3098 105.344 50.1934 106.068 49.312C106.401 48.9208 106.817 48.6084 107.285 48.3974C107.754 48.1864 108.263 48.0822 108.777 48.0921C109.309 48.075 109.836 48.1911 110.311 48.4297C110.725 48.632 111.082 48.9355 111.347 49.312L111.501 48.3453H113.756V48.3913L112.935 54.5294V54.7596C112.713 56.4399 112.391 57.5525 111.976 58.0665C111.611 58.5001 111.133 58.8241 110.595 59.0026C109.922 59.222 109.216 59.3232 108.508 59.3018M104.856 56.6394C104.887 57.0153 104.996 57.3806 105.175 57.7122C105.355 58.0437 105.602 58.3343 105.9 58.5653C106.683 59.0414 107.593 59.2664 108.508 59.2098C109.205 59.2301 109.901 59.1315 110.565 58.9182C111.089 58.7453 111.554 58.429 111.907 58.0052C112.47 57.0088 112.793 55.8949 112.851 54.7519V54.5141L113.672 48.4144H111.593L111.432 49.4271H111.355C111.091 49.02 110.723 48.6913 110.288 48.4757C109.832 48.255 109.33 48.1447 108.823 48.1535C108.323 48.1426 107.827 48.243 107.37 48.4474C106.914 48.6517 106.508 48.9549 106.184 49.3351C105.475 50.1977 105.104 51.2884 105.14 52.4041C105.09 53.3101 105.38 54.202 105.953 54.9054C106.254 55.204 106.615 55.4355 107.012 55.585C107.408 55.7344 107.832 55.7983 108.255 55.7724C108.733 55.7819 109.206 55.6877 109.644 55.4962C110.046 55.2956 110.393 55.0008 110.657 54.6369H110.741C110.772 55.4432 110.572 56.2416 110.166 56.9387C109.974 57.1741 109.728 57.3589 109.448 57.4767C109.169 57.5944 108.864 57.6415 108.562 57.6139C108.144 57.6308 107.73 57.5241 107.373 57.3069C107.074 57.0882 106.869 56.765 106.797 56.4016L104.856 56.6394ZM109.107 54.0691C108.863 54.08 108.62 54.0414 108.392 53.9557C108.164 53.87 107.955 53.7389 107.779 53.5704C107.607 53.4057 107.473 53.2062 107.384 52.9852C107.295 52.7642 107.255 52.5269 107.265 52.289C107.215 51.6281 107.406 50.9713 107.802 50.4399C107.992 50.2204 108.228 50.0464 108.493 49.9308C108.759 49.8152 109.047 49.7611 109.337 49.7724C109.581 49.751 109.828 49.7837 110.058 49.8681C110.289 49.9526 110.498 50.0867 110.67 50.261C110.843 50.4352 110.976 50.6454 111.058 50.8766C111.141 51.1077 111.171 51.3542 111.148 51.5985C111.179 52.2372 110.98 52.8659 110.588 53.3709C110.402 53.5959 110.167 53.7747 109.901 53.8932C109.635 54.0117 109.344 54.0667 109.053 54.0537M109.345 49.8184C109.065 49.8051 108.786 49.8563 108.529 49.9681C108.272 50.0798 108.045 50.2492 107.864 50.4629C107.461 50.9774 107.262 51.6218 107.304 52.2737C107.292 52.4998 107.329 52.7257 107.413 52.9362C107.496 53.1467 107.624 53.3368 107.787 53.4936C107.955 53.6534 108.154 53.7773 108.372 53.8578C108.59 53.9382 108.821 53.9736 109.053 53.9617C109.332 53.9752 109.611 53.9233 109.867 53.8101C110.123 53.6969 110.348 53.5254 110.526 53.3095C110.912 52.811 111.103 52.1892 111.063 51.5601V51.5141C111.076 51.2882 111.043 51.0621 110.965 50.8496C110.887 50.6372 110.766 50.4429 110.611 50.2788C110.441 50.1208 110.242 49.9985 110.025 49.9194C109.807 49.8403 109.576 49.806 109.345 49.8184Z" fill="#4CA12F"/>
<path fill-rule="evenodd" clip-rule="evenodd" d="M119.715 55.8568L121.234 44.6931H123.659L122.4 53.8773H126.413L126.137 55.8568H119.715Z" fill="#4CA12F"/>
<path d="M126.213 55.9031H119.699V55.8494L121.234 44.6473H123.75V44.7011L122.5 53.8315H126.513V53.8775L126.213 55.9031ZM119.768 55.811H126.098L126.359 53.9236H122.377V53.8699L123.635 44.7394H121.295L119.768 55.811Z" fill="#4CA12F"/>
<path fill-rule="evenodd" clip-rule="evenodd" d="M127.496 55.8572L128.501 48.3763H130.734L129.729 55.8572H127.496ZM128.678 45.4914C128.675 45.3215 128.709 45.1529 128.776 44.9969C128.844 44.8408 128.944 44.7008 129.069 44.5861C129.191 44.4683 129.335 44.3758 129.493 44.3139C129.651 44.2521 129.82 44.222 129.99 44.2254C130.16 44.2203 130.329 44.2495 130.487 44.3115C130.645 44.3735 130.789 44.4669 130.91 44.5861C131.034 44.7009 131.132 44.8399 131.199 44.9943C131.266 45.1488 131.301 45.3154 131.301 45.4838C131.301 45.6521 131.266 45.8187 131.199 45.9732C131.132 46.1276 131.034 46.2666 130.91 46.3815C130.665 46.6232 130.334 46.7588 129.99 46.7588C129.645 46.7588 129.314 46.6232 129.069 46.3815C128.943 46.2706 128.842 46.1335 128.775 45.9798C128.707 45.826 128.674 45.6594 128.678 45.4914Z" fill="#4CA12F"/>
<path d="M129.767 55.9027H127.465V55.849L128.478 48.3375H130.779V48.3835L129.767 55.9027ZM127.549 55.8106H129.69L130.68 48.4219H128.516L127.549 55.8106ZM129.989 46.803C129.811 46.8067 129.634 46.7739 129.469 46.7066C129.304 46.6393 129.155 46.5389 129.03 46.4117C128.901 46.2959 128.799 46.1537 128.73 45.9948C128.661 45.8359 128.627 45.6641 128.631 45.4909C128.632 45.3196 128.668 45.1502 128.736 44.9932C128.805 44.8362 128.905 44.6949 129.03 44.5779C129.289 44.3336 129.633 44.2012 129.989 44.2096C130.164 44.2048 130.339 44.2349 130.502 44.2981C130.665 44.3613 130.814 44.4564 130.941 44.5779C131.07 44.6969 131.173 44.8416 131.243 45.0028C131.313 45.1641 131.349 45.3382 131.347 45.514C131.348 45.6874 131.312 45.859 131.242 46.0176C131.172 46.1762 131.069 46.3183 130.941 46.4347C130.818 46.5632 130.671 46.6646 130.507 46.732C130.343 46.7994 130.166 46.8314 129.989 46.826M128.723 45.537C128.723 45.695 128.757 45.8512 128.822 45.9954C128.886 46.1395 128.981 46.2683 129.099 46.3733C129.215 46.4912 129.354 46.5841 129.507 46.6461C129.66 46.7082 129.824 46.738 129.989 46.7339C130.154 46.7376 130.318 46.7075 130.471 46.6455C130.624 46.5835 130.763 46.4908 130.879 46.3733C130.998 46.2621 131.092 46.1278 131.157 45.9786C131.221 45.8295 131.254 45.6688 131.254 45.5063C131.254 45.3438 131.221 45.183 131.157 45.0339C131.092 44.8848 130.998 44.7505 130.879 44.6393C130.761 44.5256 130.622 44.4365 130.469 44.3772C130.316 44.3179 130.153 44.2896 129.989 44.294C129.658 44.2869 129.338 44.411 129.099 44.6393C128.978 44.7501 128.882 44.8854 128.817 45.0362C128.752 45.187 128.72 45.3498 128.723 45.514V45.537Z" fill="#4CA12F"/>
<path fill-rule="evenodd" clip-rule="evenodd" d="M133.624 55.8567L131.668 48.3759H134.077L134.844 52.3119C134.89 52.5958 134.921 52.8644 134.952 53.0792C134.983 53.294 134.952 53.5319 134.952 53.739V53.9078C135.045 53.5891 135.158 53.2765 135.289 52.9718C135.367 52.7288 135.464 52.4927 135.581 52.2659L137.568 48.3759H140.146L135.949 55.8567H133.555" fill="#4CA12F"/>
<path d="M136.048 55.9028H133.592L131.582 48.3376H134.083L134.851 52.2736C134.851 52.4655 134.912 52.6496 134.935 52.8107V53.0409V53.3938V53.601C135.019 53.3478 135.104 53.1176 135.188 52.9181C135.271 52.6785 135.371 52.4452 135.487 52.2199L137.482 48.3069H140.168V48.3683L136.048 55.9028ZM133.661 55.8107H135.963L140.099 48.422H137.636L135.656 52.2583C135.545 52.4847 135.447 52.7179 135.365 52.9565C135.257 53.2174 135.142 53.532 135.027 53.8926H134.943V53.7238V53.4169V53.0639V52.8414C134.943 52.6803 134.897 52.4961 134.866 52.3043L134.099 48.4066H131.797L133.661 55.8107Z" fill="#4CA12F"/>
<path fill-rule="evenodd" clip-rule="evenodd" d="M142.573 52.5959V52.7417C142.564 52.9637 142.603 53.185 142.688 53.3903C142.773 53.5956 142.901 53.7801 143.064 53.931C143.45 54.2348 143.932 54.39 144.422 54.3683C144.788 54.3729 145.149 54.2859 145.473 54.1151C145.817 53.9204 146.12 53.6596 146.363 53.3479L147.898 54.5448C147.528 55.0694 147.025 55.4853 146.44 55.7494C145.775 56.029 145.059 56.1675 144.338 56.156C143.288 56.2054 142.261 55.8419 141.476 55.1433C141.112 54.8004 140.826 54.383 140.638 53.9195C140.45 53.4561 140.364 52.9575 140.386 52.4578C140.375 51.8881 140.48 51.3221 140.695 50.7944C140.91 50.2667 141.231 49.7884 141.637 49.3888C142.047 48.984 142.536 48.667 143.073 48.4573C143.61 48.2475 144.184 48.1494 144.76 48.1688C145.262 48.1427 145.765 48.219 146.237 48.3931C146.709 48.5672 147.141 48.8355 147.506 49.1816C148.182 49.9499 148.526 50.9535 148.466 51.9745C148.477 52.1661 148.477 52.3583 148.466 52.5499V52.5959H142.604M142.719 51.33H146.379C146.392 51.1147 146.361 50.899 146.289 50.6959C146.216 50.4929 146.103 50.3066 145.957 50.1484C145.802 50.0007 145.619 49.887 145.418 49.8143C145.217 49.7416 145.003 49.7117 144.79 49.7264C144.318 49.6996 143.852 49.844 143.478 50.133C143.103 50.441 142.834 50.86 142.711 51.33H142.719Z" fill="#4CA12F"/>
<path d="M144.31 56.2018C143.248 56.2519 142.21 55.8826 141.418 55.1737C141.047 54.8288 140.756 54.407 140.565 53.9379C140.374 53.4687 140.288 52.9635 140.313 52.4576C140.297 51.8763 140.4 51.2978 140.617 50.758C140.833 50.2183 141.158 49.7286 141.571 49.3195C141.987 48.9125 142.48 48.5934 143.022 48.3811C143.564 48.1689 144.143 48.0679 144.725 48.0842C145.234 48.0557 145.745 48.1323 146.224 48.3091C146.703 48.486 147.141 48.7594 147.51 49.1123C147.858 49.4988 148.126 49.9511 148.297 50.4426C148.469 50.934 148.54 51.4548 148.507 51.9742C148.519 52.1684 148.519 52.3631 148.507 52.5573V52.6417H142.653V52.7415C142.642 52.9577 142.679 53.1738 142.761 53.3741C142.843 53.5745 142.969 53.7541 143.129 53.9C143.508 54.192 143.978 54.3414 144.456 54.322C144.814 54.3265 145.167 54.2421 145.484 54.0765C145.823 53.8809 146.121 53.6202 146.359 53.3093V53.2709L147.893 54.4985C147.517 55.0275 147.006 55.4461 146.413 55.7108C145.744 55.9971 145.022 56.1384 144.295 56.1251M144.717 48.0995C144.147 48.0784 143.578 48.1743 143.047 48.3813C142.515 48.5884 142.032 48.9022 141.626 49.3034C141.221 49.7046 140.902 50.1847 140.689 50.714C140.476 51.2433 140.374 51.8106 140.39 52.3809C140.365 52.873 140.448 53.3644 140.632 53.8214C140.816 54.2784 141.097 54.6901 141.456 55.0279C142.234 55.7217 143.253 56.0825 144.295 56.033C145.008 56.0446 145.716 55.9088 146.374 55.6341C146.938 55.3787 147.427 54.9823 147.794 54.4832L146.359 53.3323C146.119 53.6447 145.819 53.9056 145.476 54.0995C145.148 54.2736 144.782 54.3632 144.41 54.3604C143.908 54.3797 143.415 54.2191 143.021 53.9077C142.851 53.7549 142.718 53.5661 142.63 53.355C142.542 53.144 142.503 52.916 142.515 52.6878V52.4729H148.377C148.389 52.2813 148.389 52.0891 148.377 51.8975C148.408 51.3894 148.338 50.8801 148.171 50.3993C148.004 49.9185 147.742 49.4758 147.402 49.097C147.04 48.7559 146.613 48.4918 146.146 48.3203C145.679 48.1489 145.183 48.0738 144.686 48.0995M146.343 51.299H142.645H142.599C142.725 50.8218 142.993 50.3939 143.366 50.0714C143.749 49.775 144.226 49.6278 144.709 49.6571C144.928 49.6438 145.147 49.6758 145.353 49.7511C145.559 49.8263 145.747 49.9432 145.906 50.0944C146.054 50.2581 146.168 50.4495 146.242 50.6576C146.316 50.8657 146.348 51.0863 146.336 51.3067L146.343 51.299ZM142.707 51.2069H146.251C146.26 51.0051 146.228 50.8036 146.158 50.614C146.088 50.4244 145.982 50.2504 145.845 50.1021C145.696 49.9584 145.519 49.8474 145.324 49.7761C145.13 49.7047 144.923 49.6747 144.717 49.6878C144.256 49.6614 143.8 49.8032 143.436 50.0867C143.087 50.3798 142.833 50.7697 142.707 51.2069Z" fill="#4CA12F"/>
<path fill-rule="evenodd" clip-rule="evenodd" d="M150.406 53.4554C150.643 53.7938 150.945 54.0808 151.296 54.2994C151.582 54.4926 151.917 54.6015 152.263 54.614C152.495 54.6235 152.724 54.5501 152.907 54.4068C152.986 54.3502 153.049 54.2751 153.092 54.1882C153.135 54.1012 153.156 54.005 153.153 53.9081C153.153 53.5935 152.846 53.2866 152.247 52.9567C152.002 52.8109 151.825 52.7035 151.679 52.6268C151.237 52.3782 150.849 52.0444 150.536 51.6447C150.318 51.3155 150.205 50.9272 150.214 50.5322C150.21 50.1977 150.285 49.867 150.433 49.567C150.581 49.2671 150.798 49.0062 151.066 48.8058C151.688 48.3335 152.456 48.0946 153.237 48.1306C153.765 48.123 154.289 48.2304 154.771 48.4452C155.261 48.6562 155.702 48.9642 156.068 49.3506L154.741 50.5015C154.494 50.2473 154.219 50.0233 153.92 49.834C153.671 49.6949 153.392 49.6185 153.107 49.6114C152.891 49.6019 152.678 49.6699 152.508 49.8033C152.435 49.8572 152.376 49.9278 152.336 50.0093C152.296 50.0907 152.276 50.1806 152.278 50.2713C152.278 50.5475 152.685 50.8928 153.498 51.3301L154.027 51.6294C154.404 51.8195 154.726 52.1019 154.963 52.4503C155.177 52.7811 155.284 53.1694 155.27 53.5629C155.283 53.9158 155.214 54.2668 155.069 54.5888C154.924 54.9107 154.706 55.195 154.434 55.4196C153.824 55.9208 153.051 56.1778 152.263 56.1409C151.677 56.1516 151.097 56.0283 150.567 55.7803C150.013 55.5244 149.513 55.165 149.094 54.7214L150.406 53.4554Z" fill="#4CA12F"/>
<path d="M152.301 56.1869C151.709 56.1929 151.122 56.0698 150.582 55.8263C150.025 55.5653 149.523 55.2008 149.102 54.7522L150.444 53.4478H150.483C150.717 53.7809 151.014 54.065 151.357 54.2841C151.637 54.4727 151.964 54.579 152.301 54.591C152.525 54.607 152.747 54.5386 152.923 54.3992C152.994 54.344 153.052 54.2731 153.092 54.192C153.132 54.1108 153.153 54.0216 153.153 53.9312C153.153 53.6396 152.861 53.3404 152.263 53.0181L152.063 52.9031L151.703 52.6882C151.248 52.4385 150.849 52.0992 150.529 51.6908C150.311 51.3526 150.199 50.9573 150.206 50.5552C150.204 50.214 150.282 49.877 150.432 49.5707C150.582 49.2645 150.802 48.9974 151.073 48.7905C151.707 48.3156 152.485 48.0744 153.275 48.1077C153.803 48.1034 154.326 48.2106 154.81 48.4222C155.305 48.6372 155.751 48.9504 156.122 49.3429L154.726 50.5552C154.482 50.2984 154.206 50.0741 153.905 49.8877C153.668 49.7588 153.406 49.6853 153.137 49.6729C152.931 49.6679 152.73 49.7298 152.562 49.8493C152.497 49.9021 152.445 49.9688 152.409 50.0445C152.373 50.1202 152.354 50.2029 152.355 50.2867C152.355 50.5399 152.746 50.8775 153.544 51.3071L153.69 51.3839L154.081 51.6064C154.465 51.8022 154.792 52.0927 155.032 52.4504C155.248 52.7862 155.358 53.1792 155.347 53.5782C155.359 53.9382 155.289 54.2962 155.141 54.6248C154.994 54.9533 154.773 55.2436 154.495 55.4734C153.883 55.9944 153.097 56.268 152.293 56.2406M149.224 54.7752C149.633 55.1999 150.117 55.5458 150.651 55.7956C151.178 56.0367 151.752 56.1573 152.332 56.1486C153.108 56.1858 153.871 55.9343 154.472 55.4427C154.739 55.2205 154.953 54.9409 155.096 54.6246C155.24 54.3084 155.31 53.9638 155.301 53.6166C155.31 53.2334 155.203 52.8564 154.994 52.5348C154.76 52.1909 154.444 51.9113 154.073 51.7215L153.682 51.499L153.544 51.4222C152.7 50.9695 152.301 50.6166 152.301 50.325C152.3 50.2274 152.321 50.1308 152.364 50.0429C152.407 49.955 152.469 49.8782 152.547 49.8186C152.729 49.686 152.95 49.6184 153.176 49.6268C153.466 49.632 153.751 49.7084 154.004 49.8493C154.298 50.0305 154.569 50.247 154.81 50.4938L156.068 49.3967C155.713 49.0325 155.291 48.7406 154.825 48.5373C154.342 48.3244 153.819 48.2196 153.291 48.2304C152.52 48.1954 151.761 48.4286 151.142 48.8903C150.879 49.0876 150.666 49.3437 150.52 49.6381C150.373 49.9325 150.297 50.2571 150.298 50.5859C150.292 50.9724 150.402 51.3519 150.613 51.6754C150.926 52.0679 151.311 52.3962 151.749 52.6422L152.117 52.857L152.316 52.9721C152.938 53.3097 153.245 53.6396 153.245 53.9619C153.248 54.0658 153.226 54.1689 153.18 54.2624C153.135 54.356 153.067 54.4371 152.984 54.499C152.792 54.6487 152.552 54.7224 152.309 54.7061C151.954 54.6945 151.609 54.5857 151.311 54.3915C150.976 54.1744 150.682 53.8989 150.444 53.5782L149.224 54.7752Z" fill="#4CA12F"/>
<path fill-rule="evenodd" clip-rule="evenodd" d="M166.147 48.1378C167.212 48.0828 168.255 48.4463 169.055 49.1506C169.42 49.4991 169.706 49.9221 169.892 50.3908C170.079 50.8594 170.162 51.3628 170.137 51.8667C170.155 52.4394 170.051 53.0094 169.832 53.5386C169.612 54.0679 169.282 54.5442 168.864 54.9357C167.973 55.7592 166.792 56.1977 165.58 56.1557C164.533 56.2022 163.509 55.8389 162.725 55.1429C162.37 54.7976 162.092 54.3814 161.908 53.9214C161.724 53.4613 161.639 52.9678 161.659 52.4728C161.639 51.8926 161.742 51.3149 161.96 50.7769C162.178 50.239 162.507 49.7528 162.925 49.35C163.349 48.947 163.849 48.6322 164.395 48.4241C164.942 48.216 165.525 48.1187 166.109 48.1378M166.109 50.102C165.812 50.0906 165.515 50.1421 165.239 50.2532C164.962 50.3642 164.712 50.5323 164.506 50.7465C164.086 51.218 163.866 51.8343 163.892 52.4651C163.874 52.9283 164.033 53.3809 164.337 53.7311C164.503 53.889 164.7 54.0118 164.915 54.0922C165.129 54.1726 165.358 54.209 165.587 54.1991C165.885 54.2081 166.181 54.1555 166.457 54.0446C166.733 53.9337 166.983 53.7669 167.191 53.5546C167.607 53.0994 167.828 52.4986 167.805 51.882C167.822 51.6464 167.79 51.4099 167.712 51.1869C167.634 50.964 167.512 50.7593 167.352 50.5853C167.189 50.4225 166.993 50.2954 166.778 50.2122C166.562 50.129 166.332 50.0914 166.101 50.102H166.109Z" fill="#4CA12F"/>
<path d="M165.583 56.2024C164.524 56.2495 163.488 55.8805 162.698 55.1742C162.338 54.8253 162.056 54.4045 161.869 53.9391C161.683 53.4738 161.596 52.9744 161.616 52.4735C161.597 51.8874 161.701 51.3037 161.921 50.7605C162.142 50.2172 162.475 49.7264 162.897 49.32C163.324 48.9128 163.827 48.5941 164.378 48.3821C164.928 48.1701 165.515 48.069 166.104 48.0847C167.184 48.0245 168.243 48.3942 169.051 49.1129C169.42 49.4653 169.709 49.893 169.898 50.3669C170.087 50.8408 170.173 51.3499 170.148 51.8597C170.166 52.4413 170.06 53.0202 169.837 53.5575C169.613 54.0947 169.277 54.578 168.851 54.9748C168.408 55.3867 167.888 55.7072 167.32 55.9179C166.753 56.1285 166.149 56.2252 165.544 56.2024M166.151 48.1768H166.112C165.528 48.1528 164.944 48.2471 164.397 48.4541C163.85 48.6611 163.35 48.9765 162.928 49.3814C162.519 49.7788 162.196 50.2567 161.981 50.7849C161.766 51.3131 161.662 51.8802 161.677 52.4505C161.657 52.9385 161.74 53.4253 161.921 53.8789C162.102 54.3324 162.377 54.7425 162.729 55.0822C163.502 55.7743 164.516 56.1352 165.552 56.0873C166.146 56.1122 166.739 56.0185 167.296 55.8117C167.853 55.6049 168.364 55.289 168.798 54.8827C169.217 54.4926 169.548 54.0164 169.766 53.4867C169.985 52.9569 170.086 52.3862 170.064 51.8136C170.088 51.3158 170.006 50.8184 169.822 50.3551C169.638 49.8918 169.357 49.4734 168.997 49.1282C168.218 48.4365 167.199 48.0783 166.158 48.1308M165.613 54.1845C165.379 54.1952 165.145 54.1587 164.924 54.0769C164.704 53.9952 164.503 53.87 164.332 53.7088C164.019 53.351 163.854 52.8872 163.872 52.4121C163.843 51.7689 164.069 51.1404 164.501 50.6627C164.71 50.444 164.963 50.2722 165.243 50.1584C165.524 50.0447 165.825 49.9917 166.127 50.0029C166.363 49.993 166.599 50.0331 166.818 50.1203C167.038 50.2076 167.236 50.3401 167.401 50.5093C167.565 50.687 167.691 50.8966 167.77 51.1249C167.849 51.3533 167.88 51.5956 167.862 51.8366C167.875 52.1463 167.826 52.4554 167.72 52.7464C167.613 53.0374 167.45 53.3044 167.24 53.5323C167.028 53.7483 166.773 53.9178 166.491 54.03C166.21 54.1423 165.908 54.1949 165.606 54.1845M166.127 50.095C165.842 50.0894 165.559 50.1423 165.295 50.2506C165.031 50.3588 164.792 50.5199 164.593 50.7241C164.18 51.187 163.962 51.7921 163.987 52.4121C163.968 52.8639 164.128 53.305 164.432 53.6397C164.591 53.7959 164.781 53.9173 164.99 53.9966C165.198 54.0758 165.421 54.111 165.644 54.1001C165.929 54.1066 166.213 54.054 166.477 53.9458C166.741 53.8375 166.98 53.6758 167.179 53.4709C167.587 53.0267 167.805 52.4398 167.785 51.8366C167.801 51.6071 167.77 51.3766 167.695 51.1591C167.62 50.9415 167.502 50.7414 167.347 50.5707C167.189 50.4096 166.999 50.2839 166.788 50.2019C166.578 50.1199 166.353 50.0835 166.127 50.095Z" fill="#4CA12F"/>
<path fill-rule="evenodd" clip-rule="evenodd" d="M172.937 55.8567L170.98 48.3759H173.39L174.157 52.3119C174.211 52.5958 174.241 52.8644 174.272 53.0792C174.303 53.294 174.272 53.5319 174.272 53.739V53.9078C174.371 53.59 174.486 53.2776 174.617 52.9718C174.696 52.7303 174.791 52.4945 174.901 52.2659L176.896 48.3759H179.466L175.315 55.8567H172.937Z" fill="#4CA12F"/>
<path d="M175.357 55.9029H172.902L170.93 48.3683H173.439L174.206 52.3044C174.206 52.5039 174.267 52.6957 174.29 52.8645V53.0717V53.4246V53.6318C174.382 53.3709 174.467 53.1484 174.551 52.9489C174.635 52.7108 174.732 52.4777 174.843 52.2507L176.845 48.3376H179.523L179.485 48.399L175.357 55.9029ZM172.971 55.8108H175.318L179.454 48.422H176.983L175.012 52.2584C174.897 52.4833 174.799 52.7167 174.72 52.9566C174.59 53.262 174.477 53.5745 174.382 53.8926H174.29V53.7238V53.4169V53.064V52.8568C174.29 52.688 174.244 52.5039 174.206 52.3044L173.439 48.4067H171.137L172.971 55.8108Z" fill="#4CA12F"/>
<path fill-rule="evenodd" clip-rule="evenodd" d="M181.885 52.596V52.7418C181.875 52.9632 181.913 53.1841 181.997 53.3894C182.08 53.5947 182.207 53.7795 182.369 53.931C182.755 54.2336 183.236 54.3887 183.727 54.3684C184.093 54.373 184.454 54.2859 184.778 54.1152C185.124 53.9225 185.426 53.6614 185.668 53.3479L187.202 54.5449C186.834 55.0674 186.334 55.483 185.752 55.7495C185.087 56.0291 184.371 56.1676 183.65 56.1561C182.598 56.2067 181.568 55.8431 180.78 55.1433C180.419 54.7988 180.135 54.3809 179.949 53.9178C179.762 53.4546 179.677 52.9568 179.699 52.4579C179.688 51.8889 179.792 51.3236 180.006 50.7961C180.22 50.2686 180.538 49.7899 180.942 49.3888C181.353 48.9851 181.841 48.6689 182.378 48.4592C182.915 48.2496 183.488 48.1508 184.064 48.1689C184.568 48.1426 185.072 48.2188 185.545 48.3929C186.019 48.567 186.452 48.8353 186.819 49.1817C187.161 49.5659 187.423 50.0137 187.592 50.4995C187.76 50.9853 187.831 51.4996 187.801 52.0129C187.817 52.2044 187.817 52.3968 187.801 52.5883V52.6344H181.947M182.062 51.3684H185.714C185.727 51.1531 185.696 50.9375 185.624 50.7344C185.551 50.5313 185.438 50.345 185.292 50.1868C185.139 50.0402 184.956 49.9269 184.757 49.8543C184.558 49.7817 184.345 49.7512 184.133 49.7648C183.661 49.738 183.196 49.8824 182.821 50.1714C182.446 50.4795 182.177 50.8984 182.054 51.3684H182.062Z" fill="#4CA12F"/>
<path d="M183.615 56.2021C182.553 56.2521 181.514 55.8828 180.722 55.1739C180.354 54.8274 180.065 54.4051 179.876 53.9362C179.686 53.4673 179.601 52.9629 179.625 52.4578C179.606 51.8761 179.708 51.2969 179.925 50.7567C180.142 50.2165 180.468 49.7272 180.883 49.3197C181.299 48.9127 181.793 48.5936 182.335 48.3814C182.876 48.1691 183.455 48.0681 184.037 48.0844C184.547 48.0573 185.057 48.1345 185.535 48.3113C186.014 48.4881 186.452 48.7607 186.822 49.1125C187.171 49.499 187.438 49.9513 187.61 50.4428C187.781 50.9343 187.852 51.455 187.819 51.9744C187.831 52.1686 187.831 52.3634 187.819 52.5575V52.6419H181.965V52.7417C181.955 52.9572 181.991 53.1724 182.072 53.3725C182.153 53.5725 182.276 53.7526 182.433 53.9003C182.814 54.1905 183.283 54.3396 183.761 54.3223C184.121 54.3267 184.477 54.2424 184.796 54.0767C185.133 53.8808 185.428 53.6201 185.663 53.3095V53.2711H185.702L187.236 54.4987C186.863 55.0275 186.354 55.4462 185.763 55.711C185.092 55.9982 184.368 56.1395 183.638 56.1253M184.068 48.0997C183.501 48.0834 182.937 48.1817 182.41 48.3887C181.883 48.5957 181.403 48.9072 180.999 49.3044C180.595 49.7048 180.278 50.1838 180.067 50.7117C179.856 51.2395 179.755 51.8051 179.771 52.3734C179.745 52.8657 179.827 53.3576 180.011 53.8149C180.196 54.2721 180.478 54.6836 180.837 55.0205C181.613 55.7138 182.63 56.0747 183.669 56.0256C184.384 56.0378 185.095 55.902 185.756 55.6266C186.318 55.3713 186.804 54.9748 187.167 54.4757L185.733 53.3248C185.496 53.6369 185.198 53.8979 184.858 54.0921C184.526 54.265 184.158 54.3545 183.784 54.353C183.282 54.3722 182.789 54.2117 182.395 53.9003C182.229 53.7448 182.098 53.5553 182.012 53.3448C181.926 53.1342 181.887 52.9076 181.896 52.6803V52.4655H187.75C187.778 52.2749 187.791 52.0826 187.789 51.89C187.819 51.3814 187.748 50.8718 187.58 50.391C187.411 49.9101 187.148 49.4677 186.807 49.0895C186.446 48.7484 186.021 48.484 185.555 48.3125C185.089 48.1411 184.594 48.0661 184.098 48.0921M185.756 51.2916H182.057V51.2532H182.011C182.141 50.7883 182.408 50.3736 182.779 50.0639C183.159 49.7687 183.633 49.6215 184.114 49.6496C184.334 49.6358 184.554 49.6675 184.761 49.7427C184.969 49.818 185.158 49.9352 185.318 50.087C185.466 50.2507 185.58 50.4421 185.654 50.6501C185.728 50.8582 185.76 51.0788 185.748 51.2992L185.756 51.2916ZM182.119 51.1995H185.663C185.672 50.9976 185.64 50.7961 185.57 50.6065C185.501 50.4169 185.394 50.243 185.257 50.0946C185.105 49.9523 184.927 49.8422 184.732 49.7709C184.536 49.6997 184.329 49.6689 184.121 49.6803C183.66 49.6554 183.205 49.797 182.84 50.0793C182.491 50.3703 182.239 50.7612 182.119 51.1995Z" fill="#4CA12F"/>
<path fill-rule="evenodd" clip-rule="evenodd" d="M188.906 55.8569L189.927 48.376H192.198L191.998 49.6881C192.218 49.2247 192.55 48.8237 192.965 48.5218C193.357 48.2583 193.82 48.1217 194.292 48.1305H194.668L194.991 48.1919L194.553 50.3479C194.401 50.2993 194.244 50.2633 194.085 50.2405L193.648 50.1945C193.38 50.183 193.113 50.2314 192.866 50.3363C192.619 50.4412 192.399 50.5998 192.221 50.8006C191.834 51.3481 191.601 51.9892 191.546 52.6574L191.124 55.8415L188.906 55.8569Z" fill="#4CA12F"/>
<path d="M191.177 55.9031H188.875L189.911 48.3379H192.213V48.3839L192.051 49.4657C192.277 49.0732 192.589 48.7373 192.965 48.4836C193.363 48.2161 193.835 48.0769 194.315 48.0847H194.392H194.691L195.021 48.1537H195.059L194.614 50.3558H194.568C194.417 50.3124 194.263 50.279 194.108 50.256L193.678 50.21C193.416 50.1974 193.154 50.244 192.913 50.3462C192.671 50.4485 192.455 50.6039 192.282 50.8008C191.9 51.341 191.672 51.9748 191.622 52.6345L191.177 55.9031ZM188.959 55.811H191.1L191.514 52.6652C191.569 51.9897 191.808 51.3421 192.205 50.7931C192.384 50.5859 192.607 50.4217 192.858 50.3127C193.109 50.2038 193.382 50.1529 193.655 50.164L194.108 50.21L194.53 50.3097L194.952 48.2381L194.676 48.1921H194.384H194.307C193.846 48.1839 193.393 48.3178 193.011 48.5757C192.584 48.8685 192.238 49.2644 192.005 49.7266H191.921L192.105 48.4606H189.965L188.959 55.811Z" fill="#4CA12F"/>
<path d="M41.225 50.0258H0V51.215H41.225V50.0258Z" fill="#0075BB"/>
<path fill-rule="evenodd" clip-rule="evenodd" d="M210.197 76.5271L208.509 71.1562H210.55L211.218 74.1486C211.264 74.279 211.302 74.5706 211.386 75.0002V75.2074C211.44 75.0309 211.509 74.8545 211.571 74.6627C211.632 74.4708 211.755 74.302 211.847 74.1179L213.535 71.1562H215.714L210.535 79.4427H208.371L210.167 76.5501" fill="#0075BB"/>
<path d="M210.612 79.4193H208.379V79.3733L210.167 76.496L208.479 71.0715H210.612L211.279 74.0715C211.32 74.215 211.35 74.3611 211.371 74.5088L211.448 74.9155V75.0075L211.548 74.7237L211.601 74.5779L211.786 74.2019L211.878 74.0255L213.566 71.0485H215.814V71.0945L210.612 79.4193ZM208.486 79.3579H210.581L215.722 71.1329H213.612L211.931 74.0792L211.847 74.248L211.663 74.6239L211.609 74.7697L211.471 75.1687H211.379V74.9538L211.302 74.5472C211.283 74.4023 211.255 74.2588 211.218 74.1175L210.55 71.1405H208.571L210.251 76.5114L208.486 79.3579Z" fill="#0075BB"/>
<path fill-rule="evenodd" clip-rule="evenodd" d="M217.742 74.3094V74.4398C217.734 74.6127 217.768 74.7849 217.84 74.9422C217.912 75.0996 218.02 75.2376 218.156 75.3452C218.492 75.5814 218.897 75.7001 219.307 75.6828C219.614 75.6825 219.917 75.6171 220.197 75.491C220.491 75.3421 220.751 75.136 220.964 74.8848L222.238 75.7979C221.914 76.2079 221.488 76.5254 221.003 76.7186C220.434 76.9327 219.83 77.0369 219.223 77.0255C218.348 77.0712 217.487 76.7987 216.798 76.2582C216.498 76.0102 216.26 75.6963 216.101 75.3409C215.943 74.9855 215.869 74.5984 215.885 74.2096C215.878 73.763 215.968 73.3201 216.149 72.9119C216.331 72.5037 216.599 72.1401 216.936 71.8465C217.67 71.2139 218.615 70.8823 219.583 70.9181C220.42 70.8745 221.242 71.1485 221.885 71.6853C222.202 72.0315 222.439 72.4435 222.578 72.8918C222.717 73.3402 222.756 73.8138 222.691 74.2787H217.726M217.826 73.3196H220.895C220.904 73.1523 220.877 72.9851 220.816 72.829C220.755 72.6729 220.662 72.5315 220.542 72.4142C220.265 72.1847 219.911 72.0694 219.552 72.092C219.161 72.073 218.773 72.1806 218.448 72.3989C218.14 72.6289 217.914 72.9516 217.803 73.3196" fill="#0075BB"/>
<path d="M219.207 77.0559C218.327 77.104 217.46 76.8313 216.767 76.2886C216.461 76.0398 216.218 75.7228 216.057 75.363C215.895 75.0033 215.821 74.6108 215.839 74.217C215.829 73.7659 215.919 73.3182 216.102 72.9057C216.285 72.4933 216.556 72.1263 216.897 71.8308C217.636 71.1965 218.586 70.8625 219.56 70.8947C220.414 70.8435 221.255 71.1177 221.915 71.662C222.203 71.9425 222.427 72.2814 222.573 72.656C222.719 73.0306 222.782 73.4321 222.759 73.8334C222.771 73.9815 222.771 74.1303 222.759 74.2784V74.3398H217.803V74.4395C217.795 74.6075 217.828 74.7749 217.897 74.9282C217.966 75.0814 218.071 75.2163 218.202 75.3218C218.535 75.5511 218.933 75.6668 219.337 75.6518C219.639 75.6542 219.938 75.5886 220.212 75.46C220.507 75.3162 220.768 75.1124 220.979 74.8615L222.276 75.7976C221.948 76.2071 221.52 76.5244 221.033 76.7183C220.46 76.9353 219.85 77.0421 219.237 77.0329M219.59 70.8947C218.633 70.857 217.697 71.1863 216.974 71.8155C216.637 72.1035 216.367 72.4629 216.186 72.8675C216.004 73.2722 215.914 73.7121 215.923 74.1556C215.906 74.5412 215.979 74.9254 216.138 75.2772C216.297 75.6291 216.536 75.9387 216.836 76.1812C217.518 76.7176 218.371 76.99 219.237 76.9485C219.842 76.9602 220.444 76.856 221.01 76.6415C221.477 76.4534 221.889 76.1498 222.207 75.7592L220.979 74.8768C220.768 75.126 220.507 75.3273 220.212 75.4676C219.931 75.5996 219.624 75.6677 219.314 75.6671C218.896 75.6844 218.483 75.563 218.14 75.3218C218.003 75.2107 217.894 75.0687 217.822 74.9074C217.75 74.746 217.717 74.5699 217.726 74.3935V74.24H222.682C222.691 74.0918 222.691 73.9432 222.682 73.795C222.707 73.4018 222.645 73.0081 222.502 72.6411C222.359 72.2741 222.138 71.9427 221.854 71.6697C221.213 71.1288 220.389 70.8542 219.552 70.9024M220.956 73.3346H217.787C217.899 72.9607 218.127 72.6326 218.44 72.3986C218.772 72.1758 219.167 72.0656 219.567 72.084C219.932 72.0642 220.291 72.182 220.573 72.4139C220.697 72.533 220.795 72.6776 220.858 72.8379C220.922 72.9981 220.95 73.1702 220.941 73.3423L220.956 73.3346ZM217.887 73.2809H220.91C220.916 73.1227 220.888 72.9651 220.828 72.8183C220.769 72.6716 220.679 72.539 220.565 72.4293C220.294 72.2053 219.949 72.0928 219.598 72.1147C219.222 72.0831 218.847 72.1817 218.536 72.3941C218.224 72.6065 217.995 72.9196 217.887 73.2809Z" fill="#0075BB"/>
<path fill-rule="evenodd" clip-rule="evenodd" d="M230.108 76.7955H228.258L228.366 76.1663C228.145 76.4471 227.857 76.6686 227.53 76.8108C227.159 76.9605 226.763 77.0336 226.363 77.0256C226.006 77.047 225.648 76.9947 225.311 76.8719C224.974 76.7492 224.667 76.5586 224.407 76.3121C224.163 76.0417 223.975 75.7253 223.855 75.3813C223.735 75.0374 223.686 74.673 223.709 74.3095C223.678 73.4094 223.997 72.5325 224.599 71.862C224.893 71.549 225.25 71.3022 225.647 71.1382C226.044 70.9741 226.471 70.8965 226.9 70.9105C227.325 70.9026 227.746 70.9864 228.136 71.1561C228.499 71.3283 228.811 71.5928 229.041 71.9233L229.148 71.1561H231.036L230.177 76.8492M228.849 73.6881C228.858 73.4972 228.827 73.3066 228.758 73.1283C228.69 72.95 228.585 72.7879 228.45 72.6522C228.143 72.3859 227.744 72.2485 227.338 72.2686C227.099 72.2586 226.86 72.3007 226.639 72.3922C226.417 72.4836 226.219 72.6221 226.056 72.798C225.72 73.2032 225.552 73.7226 225.588 74.2481C225.58 74.4353 225.614 74.622 225.687 74.7946C225.76 74.9672 225.87 75.1212 226.01 75.2456C226.339 75.5 226.746 75.6304 227.161 75.6139C227.392 75.6219 227.621 75.5777 227.833 75.4847C228.044 75.3917 228.231 75.2523 228.381 75.0768C228.709 74.6908 228.877 74.1938 228.849 73.6881Z" fill="#0075BB"/>
<path d="M226.327 77.0566C225.965 77.0778 225.602 77.024 225.261 76.8985C224.921 76.7731 224.61 76.5788 224.348 76.3277C224.102 76.0552 223.913 75.7363 223.792 75.3898C223.67 75.0434 223.62 74.6762 223.642 74.3098C223.611 73.4013 223.933 72.5161 224.54 71.8392C224.835 71.5272 225.192 71.2806 225.589 71.1154C225.985 70.9502 226.412 70.87 226.841 70.8802C227.269 70.871 227.694 70.9575 228.084 71.1334C228.43 71.2853 228.731 71.523 228.959 71.8239L229.066 71.0566H231.015L230.148 76.7804H228.184L228.268 76.2587C228.061 76.5042 227.798 76.6963 227.501 76.8188C227.129 76.9717 226.73 77.0474 226.327 77.0413M226.834 70.9032C226.414 70.8914 225.997 70.9688 225.609 71.1302C225.222 71.2915 224.873 71.5332 224.586 71.8392C223.988 72.5054 223.672 73.3771 223.703 74.2715C223.681 74.6307 223.731 74.9907 223.85 75.3306C223.968 75.6704 224.153 75.9833 224.394 76.251C224.65 76.4952 224.954 76.6838 225.287 76.8053C225.62 76.9267 225.974 76.9783 226.327 76.9569C226.722 76.9656 227.113 76.8924 227.478 76.7421C227.802 76.604 228.087 76.3878 228.307 76.1129H228.36L228.253 76.7037H230.087L230.938 71.0643H229.105L228.997 71.8316H228.951C228.724 71.5021 228.414 71.2376 228.054 71.0643C227.669 70.8954 227.253 70.8116 226.834 70.8188M227.095 75.4684C226.674 75.4844 226.261 75.3512 225.928 75.0924C225.783 74.966 225.669 74.8087 225.593 74.632C225.518 74.4554 225.483 74.264 225.491 74.072C225.479 73.5707 225.644 73.0813 225.959 72.6909C226.125 72.5132 226.327 72.3737 226.553 72.2823C226.778 72.1909 227.02 72.1496 227.263 72.1615C227.676 72.1432 228.081 72.2801 228.399 72.5451C228.536 72.6839 228.643 72.8497 228.713 73.0319C228.783 73.2141 228.815 73.4089 228.805 73.604C228.829 74.1069 228.662 74.6002 228.337 74.985C228.186 75.1651 227.995 75.3078 227.779 75.4023C227.564 75.4967 227.33 75.5404 227.095 75.5298M227.271 72.1845C227.035 72.1748 226.801 72.2156 226.582 72.3043C226.364 72.393 226.167 72.5274 226.005 72.6986C225.679 73.1032 225.515 73.6146 225.545 74.1334C225.535 74.3173 225.568 74.5009 225.642 74.6699C225.715 74.8389 225.826 74.9888 225.967 75.1078C226.288 75.3584 226.688 75.4863 227.095 75.4684C227.311 75.4761 227.528 75.4377 227.729 75.3557C227.93 75.2737 228.111 75.15 228.261 74.9927C228.584 74.6107 228.749 74.1191 228.721 73.6193C228.727 73.4375 228.695 73.2564 228.628 73.0873C228.561 72.9183 228.459 72.7651 228.33 72.6372C228.029 72.3751 227.639 72.2402 227.24 72.2612" fill="#0075BB"/>
<path fill-rule="evenodd" clip-rule="evenodd" d="M231.863 76.7952L232.723 71.1021H234.618L234.449 72.0996C234.655 71.7346 234.951 71.4283 235.308 71.2095C235.648 71.0054 236.039 70.9016 236.436 70.9103H236.751L237.027 70.964L236.659 72.5983L236.26 72.5216H235.884C235.661 72.5108 235.439 72.5469 235.232 72.6275C235.024 72.7081 234.836 72.8315 234.679 72.9896C234.356 73.3951 234.156 73.8853 234.104 74.4013L233.751 76.8259L231.863 76.7952Z" fill="#0075BB"/>
<path d="M233.785 76.8263H231.828L232.695 71.1025H234.644L234.498 71.9849C234.696 71.6767 234.957 71.4149 235.265 71.2176C235.612 71.0141 236.007 70.9105 236.409 70.9184H236.723L236.984 70.9644L236.616 72.637L236.217 72.5603L235.849 72.522C235.631 72.5091 235.413 72.5428 235.209 72.6208C235.005 72.6989 234.82 72.8195 234.667 72.9746C234.349 73.3798 234.152 73.8665 234.099 74.3787L233.785 76.8263ZM231.897 76.7649H233.731L234.084 74.3711C234.13 73.8451 234.333 73.3452 234.667 72.9363C234.826 72.7764 235.017 72.6515 235.227 72.5696C235.437 72.4877 235.662 72.4505 235.887 72.4606L236.263 72.4989L236.639 72.5757L236.992 70.9951H236.769H236.439C236.051 70.9872 235.668 71.0882 235.335 71.2867C234.977 71.5022 234.681 71.8061 234.475 72.169H234.421L234.583 71.2099H232.749L231.897 76.7649Z" fill="#0075BB"/>
<path fill-rule="evenodd" clip-rule="evenodd" d="M237.975 74.992C238.189 75.2508 238.449 75.4668 238.743 75.6289C238.991 75.7776 239.274 75.8595 239.564 75.8667C239.76 75.8791 239.954 75.825 240.116 75.7133L240.316 75.3373C240.316 75.0918 240.055 74.8539 239.548 74.6084L239.073 74.3552C238.7 74.1674 238.368 73.9064 238.098 73.588C237.917 73.3439 237.82 73.0478 237.822 72.744C237.823 72.4806 237.891 72.2217 238.018 71.9911C238.145 71.7605 238.329 71.5656 238.551 71.4243C239.092 71.0628 239.734 70.8828 240.385 70.9102C241.275 70.8992 242.135 71.2317 242.786 71.8386L241.643 72.6903C241.435 72.4877 241.2 72.3147 240.945 72.1762C240.732 72.0717 240.499 72.0141 240.262 72.0074C240.082 71.999 239.904 72.0503 239.755 72.1532L239.564 72.5061C239.564 72.7209 239.909 72.9818 240.592 73.3194C240.784 73.4115 240.937 73.4805 241.044 73.5419C241.348 73.6856 241.611 73.9016 241.812 74.1711C241.992 74.4146 242.084 74.7123 242.073 75.0151C242.079 75.2921 242.018 75.5664 241.893 75.814C241.769 76.0615 241.585 76.2746 241.359 76.4345C240.828 76.8205 240.181 77.0128 239.525 76.9793C239.034 76.986 238.546 76.8947 238.09 76.7107C237.629 76.5153 237.206 76.24 236.84 75.8974L237.952 74.9383" fill="#0075BB"/>
<path d="M239.548 77.0408C239.051 77.0515 238.557 76.9574 238.098 76.7646C237.634 76.5701 237.208 76.2948 236.84 75.9513L237.968 74.9692C238.177 75.2317 238.438 75.4485 238.735 75.606C238.968 75.7465 239.231 75.8281 239.502 75.8439C239.691 75.854 239.878 75.7999 240.032 75.6904L240.223 75.3375C240.223 75.115 239.978 74.8848 239.456 74.6393L239.31 74.5549L238.981 74.3861C238.606 74.197 238.272 73.9363 237.998 73.6188C237.812 73.3713 237.712 73.0693 237.715 72.7595C237.721 72.4886 237.795 72.2235 237.928 71.9878C238.062 71.7522 238.252 71.5534 238.482 71.4091C239.033 71.0497 239.681 70.87 240.339 70.895C240.787 70.8873 241.233 70.9681 241.651 71.1329C242.061 71.2916 242.436 71.5288 242.755 71.8311L241.612 72.7211C241.4 72.5275 241.166 72.3601 240.914 72.2224C240.707 72.1163 240.479 72.0586 240.246 72.0536C240.072 72.0469 239.901 72.0952 239.755 72.1917L239.571 72.5216C239.571 72.7211 239.909 72.9743 240.584 73.2889L240.676 73.3349L241.037 73.5191C241.353 73.6626 241.63 73.8812 241.842 74.1559C242.023 74.4054 242.118 74.7072 242.111 75.0152C242.117 75.297 242.054 75.576 241.927 75.8275C241.799 76.079 241.612 76.2955 241.382 76.4577C240.847 76.8487 240.194 77.0437 239.533 77.0101M236.894 75.8976C237.248 76.2244 237.659 76.4843 238.106 76.6649C238.558 76.8508 239.044 76.9422 239.533 76.9334C240.183 76.9674 240.824 76.7779 241.351 76.3963C241.572 76.237 241.75 76.0268 241.872 75.7837C241.993 75.5406 242.054 75.2717 242.05 74.9999C242.059 74.7057 241.969 74.4169 241.796 74.1789C241.598 73.9093 241.334 73.6953 241.029 73.5574L240.668 73.3733L240.576 73.3273C239.863 72.982 239.533 72.7135 239.533 72.4909C239.531 72.4156 239.55 72.3412 239.586 72.2752C239.623 72.2092 239.676 72.154 239.74 72.115C239.893 72.0097 240.076 71.9559 240.262 71.9615C240.504 71.9698 240.741 72.0272 240.96 72.1303C241.207 72.2691 241.436 72.4365 241.643 72.629L242.725 71.7851C242.411 71.5059 242.05 71.2851 241.658 71.1329C241.249 70.9682 240.811 70.8873 240.369 70.895C239.725 70.8686 239.089 71.0458 238.551 71.4014C238.332 71.5399 238.152 71.7313 238.027 71.9581C237.903 72.1848 237.837 72.4393 237.837 72.6981C237.835 72.9938 237.929 73.2822 238.106 73.5191C238.371 73.8368 238.697 74.0978 239.065 74.2863L239.402 74.4551L239.548 74.5395C240.078 74.7927 240.316 75.0459 240.316 75.3068C240.315 75.3858 240.295 75.4635 240.258 75.533C240.22 75.6026 240.166 75.6619 240.101 75.7058C239.935 75.8214 239.735 75.8781 239.533 75.8669C239.238 75.8617 238.95 75.7797 238.697 75.6291C238.404 75.4696 238.143 75.2561 237.929 74.9999L236.894 75.8976Z" fill="#0075BB"/>
<path fill-rule="evenodd" clip-rule="evenodd" d="M237.983 45.9441C242.74 45.9441 245.94 50.2945 245.103 55.6269C244.267 60.9594 239.732 65.3175 234.96 65.3175C230.188 65.3175 227.011 60.9671 227.84 55.6269C228.669 50.2868 233.211 45.9441 237.983 45.9441ZM238.282 43.8801C244.551 43.8801 248.809 49.1282 247.766 55.5656C246.722 62.0029 240.753 67.251 234.492 67.251C228.231 67.251 223.965 62.0029 225.009 55.5656C226.052 49.1282 232.014 43.8801 238.282 43.8801Z" fill="#0075BB"/>
<path fill-rule="evenodd" clip-rule="evenodd" d="M198.422 48.6372C204.875 48.0464 206.977 46.8418 208.143 43.8801H209.762L206.064 67.2356H203.087L205.703 50.2638L198.215 50.1487C198.261 49.6423 198.376 49.1359 198.422 48.6141" fill="#0075BB"/>
<path fill-rule="evenodd" clip-rule="evenodd" d="M231.979 49.2356C232.865 51.2206 233.133 53.4264 232.747 55.5656C232.344 57.9096 231.346 60.1106 229.846 61.9569L229.678 61.719L229.478 61.3968L229.294 61.0592L229.133 60.7062L228.979 60.3456L228.849 59.9697L228.726 59.586C229.402 58.3618 229.861 57.0303 230.084 55.65C230.296 54.3576 230.254 53.0364 229.961 51.7599L230.199 51.3763L230.453 51.0003L230.721 50.6321L230.997 50.2791L231.296 49.9338L231.596 49.6116L231.91 49.297H231.949M223.263 43.9262C225.66 43.8713 227.99 44.7173 229.793 46.297L229.678 46.3891L229.187 46.8034L228.719 47.2331L228.273 47.6781L227.967 48.0003C227.316 47.3405 226.539 46.8183 225.682 46.4651C224.825 46.1118 223.906 45.9346 222.979 45.9441C218.23 45.9441 213.672 50.2945 212.836 55.6269C212 60.9594 215.199 65.3175 219.956 65.3175C222.029 65.2678 224.026 64.531 225.634 63.2229L225.742 63.407L226.048 63.8597L226.386 64.297L226.739 64.7114L226.831 64.8034C224.694 66.3558 222.13 67.2106 219.488 67.251C213.22 67.251 208.961 62.0029 210.005 55.5656C211.048 49.1282 217.01 43.8801 223.279 43.8801" fill="#0075BB"/>
<path fill-rule="evenodd" clip-rule="evenodd" d="M207.59 5.80819L208.971 0H220.396L219.053 5.80819H207.59ZM105.966 35.2404L111.337 10.9872H122.378L121.657 14.8235C123.391 12.2148 128.977 9.69823 132.798 9.9591C139.411 10.4195 140.524 12.399 141.859 15.6982C143.823 12.7136 148.058 10.2046 153.222 10.0818C160.895 9.89771 164.232 13.6036 163.112 18.6445L159.445 35.2097H148.465L151.971 19.2046C152.217 18.1074 150.437 15.9744 147.468 15.9744C145.496 15.9744 141.759 19.1509 141.468 20.486L138.176 35.2097H127.281L130.457 20.8619C130.585 20.3042 130.588 19.7254 130.468 19.1662C130.348 18.6069 130.107 18.0807 129.762 17.6245C129.417 17.1683 128.976 16.7931 128.471 16.5253C127.965 16.2575 127.407 16.1035 126.836 16.0742C123.767 16.0742 120.767 19.1432 120.276 21.3606L117.122 35.2097L105.966 35.2404ZM54.6826 35.2404L63.0074 0H74.4627L66.1379 35.2404H54.6826ZM253.787 25.6573C252.751 28.4655 249.805 32.6087 246.498 34.0972C243.07 35.4722 239.443 36.2882 235.756 36.5141C229.526 37.0819 221.363 35.1867 219.744 32.4246C217.488 30.6676 215.654 24.445 219.406 19.266C220.599 17.5928 221.965 16.0498 223.48 14.6624C225.451 13.0625 227.728 11.8823 230.171 11.1944C232.929 10.3492 235.803 9.9402 238.687 9.98211C243.329 9.98211 248.24 10.7494 251.033 12.399C252.433 13.1328 253.549 14.3135 254.202 15.7535C254.855 17.1935 255.009 18.8105 254.639 20.3478L243.506 20.3018C243.237 18.5908 242.877 16.1739 239.669 15.6982C237.015 15.2993 235.158 16.2046 233.278 17.4629C231.951 18.3376 229.588 21.8287 229.703 24.8977C229.618 32.6241 235.948 30.4834 237.145 30.353C239.823 30.0461 242.317 27.1074 242.286 25.711L253.787 25.6573ZM21.606 22.0972H35.4167L31.5804 7.51919L21.606 22.0972ZM0.636719 35.2404L27.0842 0H41.0484L52.4883 35.2404H39.1149L37.4269 28.734H16.7569L12.0843 35.2404H0.636719ZM83.6775 20.4246H96.2222C96.4524 19.0895 96.6442 17.2097 95.3245 16.1356C94.1638 15.2975 92.7807 14.8223 91.3501 14.7698C89.5471 14.8046 87.7849 15.3126 86.2401 16.243C84.9954 17.3657 84.1049 18.8268 83.6775 20.4476M105.729 27.5908C102.66 33.9131 93.2529 37.6727 83.033 35.9847C76.8949 35.2174 71.1097 34.1893 71.1097 26.11C71.3936 17.3171 78.0841 11.1637 90.2145 10.0665C100.45 9.13045 106.734 13.0819 107.018 18.7826C107.133 20.9233 106.35 23.2174 106.012 25.5192H82.5112C81.8974 28.266 83.3859 31.4425 87.1839 31.4425C90.0918 31.4425 92.969 29.578 93.9358 27.6062L105.729 27.5908ZM186.061 15.6906C184.215 15.3483 182.308 15.6452 180.654 16.5323C179 17.4194 177.697 18.8437 176.961 20.5704C171.306 31.3121 184.549 34.4195 188.854 25.0895C190.941 20.5627 189.26 16.3888 186.061 15.6906ZM161.869 35.2404L170.186 0H180.982L177.698 14.5166C180.713 11.5166 185.37 10.0588 190.741 10.0588C201.851 10.0588 203.017 19.4195 200.716 25.4655C198.598 31.1586 191.57 37.0895 183.621 36.3146C181.207 36.1605 178.845 35.5459 176.662 34.5039C175.47 33.8649 174.513 32.8623 173.93 31.642L173.209 35.2404H161.869ZM200.9 35.2404L206.616 10.8798H218.056L212.309 35.2404H200.9Z" fill="#0075BB"/>
</svg>
