<svg width="180" height="100" viewBox="0 0 180 100" fill="none" xmlns="http://www.w3.org/2000/svg">
<path d="M179.748 80.2617H88.957V81.2508H179.748V80.2617Z" fill="#ED1C24"/>
<path d="M72.7303 80.2617H1.22656V81.2508H72.7303V80.2617Z" fill="#ED1C24"/>
<path d="M28.2566 88.8386V90.3809H25.8002V97.5687H24.1126V90.3809H21.6484V88.8386H28.2566Z" fill="#241F21"/>
<path d="M31.293 97.5656V88.8386H32.9806V92.1669H36.1479V88.8386H37.8433V97.5656H36.1479V93.6592H32.9806V97.5656H31.293Z" fill="#241F21"/>
<path d="M47.4737 90.3637H43.2548V92.2388H47.1175V93.731H43.247V96.003H47.6722V97.5656H41.5781V88.8386H47.4753L47.4737 90.3637Z" fill="#241F21"/>
<path d="M55.0744 88.864H51.168V97.591H52.8227V94.1455H54.4775C54.8268 94.1046 55.1781 94.2041 55.4541 94.4221C55.6686 94.7525 55.7649 95.1457 55.7276 95.5378V96.3769C55.7275 96.6329 55.7527 96.8883 55.8026 97.1394C55.831 97.298 55.8696 97.4546 55.9182 97.6082H57.7933V97.391C57.7065 97.3353 57.6328 97.2615 57.5772 97.1747C57.5217 97.0878 57.4856 96.99 57.4714 96.8878C57.4267 96.611 57.4099 96.3305 57.4214 96.0503V95.4628C57.4453 94.9961 57.3663 94.5299 57.1902 94.0971C57.0046 93.7773 56.7117 93.5337 56.3636 93.4095C56.5723 93.3406 56.7652 93.231 56.9313 93.0869C57.0973 92.9429 57.2331 92.7674 57.3308 92.5704C57.5168 92.1891 57.6156 91.7712 57.6199 91.3469C57.6227 91.0328 57.5698 90.7207 57.4636 90.425C57.372 90.1705 57.2441 89.9305 57.0839 89.7125C56.8821 89.4535 56.6211 89.2467 56.3229 89.1093C55.9158 88.9469 55.4797 88.8698 55.0416 88.8828M54.6947 90.375C54.9644 90.3564 55.2342 90.4103 55.476 90.5313C55.6448 90.6503 55.7777 90.8133 55.8604 91.0025C55.943 91.1918 55.9722 91.4001 55.9448 91.6048C55.9684 91.7994 55.9357 91.9967 55.8507 92.1734C55.7657 92.35 55.6319 92.4987 55.4651 92.6017C55.2027 92.7065 54.9205 92.7524 54.6385 92.7361H52.8337V90.3641L54.6947 90.375Z" fill="#241F21"/>
<path d="M66.7925 88.864H69.2723V97.591H67.6519V90.3063L66.1049 97.6332H64.4517L62.9141 90.3063V97.6332H61.3516V88.864H63.8329L65.3549 95.705L66.7925 88.864Z" fill="#241F21"/>
<path d="M80.3578 93.1779C80.4096 92.5264 80.3269 91.8711 80.1148 91.2529C79.9028 90.6346 79.5658 90.0666 79.1249 89.584C78.3906 88.9262 77.4395 88.5625 76.4537 88.5625C75.4679 88.5625 74.5167 88.9262 73.7824 89.584C73.3401 90.0659 73.0018 90.6337 72.7883 91.2519C72.5749 91.8702 72.4909 92.5258 72.5417 93.1779C72.4978 93.8312 72.585 94.4866 72.798 95.1057C73.0111 95.7247 73.3458 96.295 73.7824 96.7828C74.5192 97.4355 75.4694 97.7958 76.4537 97.7958C77.4379 97.7958 78.3882 97.4355 79.1249 96.7828C79.5602 96.2943 79.8934 95.7238 80.1052 95.1048C80.3169 94.4857 80.4028 93.8306 80.3578 93.1779ZM76.4623 96.2718C76.1383 96.2827 75.8167 96.2117 75.5275 96.0653C75.2382 95.9189 74.9906 95.7018 74.8075 95.4343C74.4118 94.738 74.2037 93.9508 74.2037 93.1498C74.2037 92.3489 74.4118 91.5617 74.8075 90.8653C74.9906 90.5978 75.2382 90.3807 75.5275 90.2343C75.8167 90.0879 76.1383 90.0169 76.4623 90.0278C76.7787 90.0206 77.0918 90.0936 77.3724 90.2401C77.653 90.3865 77.892 90.6016 78.067 90.8653C78.4568 91.5637 78.6614 92.3501 78.6614 93.1498C78.6614 93.9495 78.4568 94.736 78.067 95.4343C77.892 95.698 77.653 95.9131 77.3724 96.0595C77.0918 96.206 76.7787 96.279 76.4623 96.2718Z" fill="#241F21"/>
<path d="M96.325 90.9496C96.5452 90.3651 96.822 89.8035 97.1516 89.273L97.5407 88.6948H98.4345C98.034 89.4587 97.6913 90.2516 97.4095 91.0668C97.0929 92.1185 96.9396 93.2125 96.9548 94.3107C96.9498 95.027 97.0079 95.7422 97.1282 96.4483C97.3045 97.4452 97.6251 98.4111 98.0798 99.3156L98.4111 99.9782H97.4939C96.9434 99.1758 96.4937 98.3089 96.1547 97.3968C95.7969 96.4477 95.6122 95.4422 95.6094 94.4279C95.6172 93.2254 95.8559 92.0355 96.3125 90.923" fill="#241F21"/>
<path d="M103.377 88.8386H101.707V97.5656H103.377V88.8386Z" fill="#241F21"/>
<path d="M106.957 88.8386H108.71L111.885 94.8999V88.8386H113.448V97.5656H111.77L108.52 91.3794V97.5656H106.957V88.8386Z" fill="#241F21"/>
<path d="M120.509 88.864H117.043V97.591H120.509C121.067 97.6122 121.619 97.4695 122.096 97.1804C122.574 96.8913 122.956 96.4685 123.196 95.9644C123.651 95.0486 123.873 94.0347 123.842 93.0127C123.841 92.5277 123.788 92.0443 123.686 91.5704C123.586 91.0677 123.395 90.5875 123.123 90.1531C122.799 89.6467 122.316 89.262 121.749 89.0593C121.35 88.9254 120.93 88.8604 120.509 88.8671M120.228 90.3594C120.525 90.3212 120.826 90.3687 121.097 90.4964C121.369 90.624 121.597 90.8264 121.757 91.0797C122.05 91.723 122.183 92.4273 122.146 93.133C122.159 93.7031 122.07 94.271 121.882 94.8096C121.798 95.1826 121.587 95.5149 121.285 95.7501C120.984 95.9853 120.61 96.1091 120.228 96.1003H118.681V90.3578L120.228 90.3594Z" fill="#241F21"/>
<path d="M128.647 88.8386H126.984V97.5656H128.647V88.8386Z" fill="#241F21"/>
<path d="M131.66 97.566H133.438L133.984 95.7643H136.935L137.465 97.566H139.276L136.473 88.864H134.571L131.66 97.566ZM135.473 90.8594L136.49 94.2971H134.431L135.473 90.8594Z" fill="#241F21"/>
<path d="M144.046 91.0465C144.462 92.0689 144.679 93.1615 144.684 94.2654C144.67 95.5079 144.411 96.7355 143.923 97.878C143.71 98.4264 143.433 98.9473 143.096 99.4297L142.716 100H141.566C141.961 99.2596 142.295 98.4889 142.566 97.6952C142.9 96.6092 143.062 95.4778 143.046 94.3419C143.051 93.6257 142.993 92.9104 142.873 92.2043C142.698 91.2101 142.377 90.2471 141.921 89.3464L141.59 88.6838H142.765C143.263 89.419 143.682 90.2046 144.015 91.0277" fill="#241F21"/>
<path d="M152.828 88.8386H154.499V96.0062H158.5V97.5687H152.828V88.8386Z" fill="#241F21"/>
<path d="M165.961 88.8386V90.3809H163.547V97.5687H161.877V90.3809H159.453V88.8386H165.961Z" fill="#241F21"/>
<path d="M172.415 88.8639H168.949V97.5909H172.415C172.974 97.6114 173.527 97.4684 174.005 97.1795C174.484 96.8906 174.868 96.4682 175.11 95.9642C175.562 95.0477 175.781 94.0339 175.748 93.0125C175.743 92.5278 175.691 92.0448 175.592 91.5703C175.493 91.0659 175.3 90.5849 175.021 90.153C174.714 89.6415 174.246 89.2464 173.69 89.0295C173.287 88.8962 172.865 88.8312 172.44 88.8373M172.167 90.3296C172.464 90.2924 172.765 90.3403 173.036 90.4679C173.307 90.5954 173.536 90.7972 173.696 91.0499C173.981 91.6953 174.111 92.3985 174.076 93.1031C174.091 93.6728 174.004 94.2406 173.82 94.7798C173.735 95.1528 173.524 95.485 173.223 95.7203C172.921 95.9555 172.547 96.0792 172.165 96.0705H170.602V90.328L172.167 90.3296Z" fill="#241F21"/>
<path d="M179.075 95.7876H177.438V97.5642H179.075V95.7876Z" fill="#241F21"/>
<path d="M80.1586 15.1992V5.55808L88.1059 0.964109L96.2845 5.64246L96.5079 15.2086L88.3372 19.8775L80.1586 15.1992ZM88.0981 0L79.332 5.07212V15.6976L88.3388 20.837L97.3533 15.6898L97.1048 5.144L88.0981 0Z" fill="#ED1C24"/>
<path d="M83.625 13.1444L88.1815 15.743L88.3378 15.8352L89.1644 15.357L92.9693 13.1851L92.8458 7.72699L88.0909 5.02686L83.625 7.61761V13.1444ZM88.3394 16.8165L87.769 16.4899L82.9969 13.7648L82.7812 13.6476V7.08477L88.094 4.01587L93.6928 7.21759L93.849 13.6648L93.6334 13.7898L89.605 16.0868L88.3394 16.8165Z" fill="#ED1C24"/>
<path d="M85.3579 12.1319L88.3268 13.8085L90.916 12.3241L91.2472 12.1397L91.1644 8.71922L88.1705 7.00039L85.3579 8.62703V12.1319ZM88.3268 14.7883L88.1205 14.6711L84.7453 12.7413L84.5391 12.6241V8.15826L88.1611 6.05347L88.3674 6.17066L91.816 8.12388L92.0223 8.23326L92.1301 12.6429L91.3613 13.071L88.508 14.6726L88.3268 14.7883Z" fill="#ED1C24"/>
<path d="M81.893 14.1679L88.3762 17.8728L94.7437 14.2507L94.564 6.70663L88.0136 2.96738L81.893 6.53006V14.1679ZM88.3762 18.8291L81.0664 14.6367V6.04253L88.0465 2.00171L95.4156 6.1941L95.614 14.6773L88.3762 18.8291Z" fill="#ED1C24"/>
<path d="M78.0213 5.70972L74.1914 7.68794L73.7227 23.834L83.2544 30.1718L83.4857 36.669L87.6296 38.4129V22.1011L78.2541 16.3196L78.0213 5.70972Z" fill="#ED1C24"/>
<path d="M98.2349 5.75024L102.098 7.65346L102.879 24.1605L93.4846 30.3217L93.3768 36.8189L89.2672 38.6472L88.9453 22.3417L98.2005 16.3726L98.2349 5.75024Z" fill="#ED1C24"/>
<path d="M90.6275 10.3084C90.6283 10.7689 90.4935 11.2195 90.2397 11.6038C89.986 11.9882 89.6247 12.2892 89.2009 12.4695C88.7786 12.6461 88.313 12.6919 87.8645 12.6008C87.4159 12.5097 87.005 12.2859 86.6851 11.9585C86.3621 11.6282 86.1431 11.2104 86.055 10.7569C85.967 10.3034 86.0138 9.83398 86.1898 9.40681C86.3627 8.98172 86.6584 8.61786 87.0392 8.36177C87.42 8.10568 87.8685 7.96901 88.3274 7.96924C88.6308 7.96966 88.931 8.03055 89.2106 8.14833C89.4901 8.26611 89.7434 8.43843 89.9556 8.65521C90.3888 9.09612 90.6303 9.69031 90.6275 10.3084Z" fill="#ED1C24"/>
<path d="M13.4237 45.6977C11.9768 42.3444 8.97506 43.4085 8.97506 42.1772C8.96619 42.0678 8.98193 41.9579 9.02114 41.8554C9.06035 41.7529 9.12203 41.6605 9.20164 41.585C9.28079 41.5102 9.37604 41.4545 9.48005 41.4223C9.58407 41.3901 9.69409 41.3821 9.80167 41.399H20.9335C21.2804 41.399 21.7601 41.6256 21.7601 41.96C21.8101 43.0413 18.113 42.7991 18.113 44.8023C18.1433 45.5558 18.32 46.2962 18.6334 46.9821L24.0009 62.5423C25.2666 65.5018 25.6556 66.7846 26.3088 66.7846C26.962 66.7846 27.062 65.8877 27.3432 65.2221L34.0998 48.715C34.6704 47.5348 34.9537 46.2364 34.9264 44.9258C34.9264 42.3522 31.2372 43.4163 31.2372 42.1334C31.2372 41.5725 31.5263 41.4037 32.106 41.4037H40.3767C41.0018 41.4037 41.3533 41.6303 41.3533 42.1334C41.3533 43.3569 39.6986 41.9662 38.1204 45.7055L26.962 71.1317C26.3244 72.524 25.9197 74.3678 25.0509 74.3678C24.1821 74.3678 23.4383 72.024 22.9164 70.8552L13.4237 45.6977Z" fill="#241F21"/>
<path d="M42.9565 55.3293C42.9565 51.976 39.7813 53.4339 39.7813 52.2698C39.7792 52.1207 39.8305 51.9757 39.9259 51.8611C40.0213 51.7465 40.1546 51.6697 40.3016 51.6448C43.9987 50.6478 45.1456 48.8618 46.4801 48.8618C46.6844 48.9002 46.8671 49.0134 46.9925 49.1792C47.1179 49.3451 47.177 49.5517 47.1582 49.7587V69.791C47.1582 72.6333 51.7147 71.4082 51.7147 72.8599C51.7147 73.3036 51.3678 73.4724 50.6209 73.4724C49.413 73.4724 47.6192 73.2552 45.2535 73.2552C43.4096 73.2552 40.6298 73.4724 39.9938 73.4724C39.525 73.4724 39.1672 73.4224 39.125 72.8599C39.125 71.4676 42.9455 73.5896 42.9455 68.5096L42.9565 55.3293Z" fill="#241F21"/>
<path d="M61.0786 63.5453V68.9518C61.0786 72.8082 65.8664 71.1816 65.8664 72.691C65.8664 73.3614 65.4117 73.4723 64.5429 73.4723C63.6741 73.4723 62.5834 73.2551 59.2301 73.2551C56.5737 73.2551 54.7236 73.4723 54.0283 73.4723C53.933 73.4825 53.8366 73.4705 53.7467 73.4375C53.6567 73.4044 53.5756 73.3511 53.5095 73.2817C53.4426 73.212 53.3921 73.1283 53.3616 73.0367C53.3311 72.9451 53.3213 72.8479 53.3329 72.752C53.3329 71.9129 56.8643 72.0816 56.8643 69.6831V45.7116C56.8643 42.3583 52.5313 43.8084 52.5313 42.6427C52.5292 42.4936 52.5805 42.3486 52.6759 42.234C52.7713 42.1194 52.9046 42.0426 53.0517 42.0177C57.8957 41.0114 59.0551 40.0566 60.3786 40.0566C60.5846 40.0912 60.7703 40.2016 60.899 40.3661C61.0277 40.5307 61.0901 40.7375 61.0739 40.9457V60.5436C64.06 56.5028 64.8241 54.5824 69.2947 49.804C74.2575 44.4803 78.3921 42.5771 83.1564 42.9708C87.5894 43.3396 88.4332 46.6601 86.9519 48.0008C85.4706 49.3415 83.5439 47.8664 80.6828 47.1617C76.1513 46.0554 70.7588 50.3978 67.5743 54.312L92.8881 97.7876H88.4379L65.0085 57.6294C63.5772 59.5013 62.2651 61.4615 61.0802 63.4984" fill="#241F21"/>
<path d="M92.1356 68.5672C92.1356 73.7566 97.4703 71.083 97.4703 72.8596C97.4703 73.3628 97.1578 73.4722 96.5108 73.4722C95.6842 73.4722 94.2279 73.255 90.8699 73.255C86.851 73.255 84.493 73.4722 84.0805 73.4722C83.668 73.4722 83.4102 73.305 83.4102 72.9768C83.4102 71.8033 87.7526 72.0205 87.7526 69.7407V55.3291C87.7526 51.9758 83.4352 53.4337 83.4352 52.2602C83.4352 51.9242 83.9149 51.6992 84.2164 51.6477C88.8308 50.6414 89.998 49.3257 91.4043 49.3257C91.6164 49.3527 91.81 49.4599 91.9454 49.6253C92.0808 49.7906 92.1478 50.0016 92.1325 50.2148V53.929H92.2481C93.4982 52.3118 95.6217 49.5694 99.3282 49.4351C100.578 49.3929 102.372 50.2742 102.503 51.5805C102.619 52.779 102.239 53.8603 101.114 53.9947C98.9469 54.2462 98.1859 53.0384 96.028 53.0384C95.1138 53.099 94.2429 53.45 93.5422 54.0403C92.8414 54.6305 92.3476 55.4292 92.1325 56.3198L92.1356 68.5672Z" fill="#241F21"/>
<path d="M119.022 60.6687C115.159 61.45 108.048 62.8141 108.056 67.1409C108.056 70.327 109.545 72.2458 112.744 72.2458C114.919 72.2458 119.021 70.6833 119.021 67.7269L119.022 60.6687ZM119.022 55.6388C119.022 52.7386 116.541 50.6088 112.811 50.7854C111.864 50.7712 110.95 51.133 110.27 51.7915C109.589 52.4499 109.198 53.3513 109.181 54.2981C109.181 55.1372 109.115 56.9716 107.403 57.4842C107.081 57.5579 106.747 57.562 106.424 57.4963C106.101 57.4305 105.795 57.2964 105.528 57.1029C105.258 56.9074 105.032 56.6573 104.866 56.3691C104.699 56.0808 104.594 55.7606 104.559 55.4294C104.353 52.9136 107.197 49.1666 113.895 49.3353C117.633 49.3353 123.427 50.3416 123.427 55.0778V66.6065C123.427 68.5019 123.583 71.7958 126.735 71.7958C126.974 71.7958 127.562 71.6786 127.76 71.6786C127.959 71.6786 128.541 71.6786 128.541 72.0724C128.541 73.2459 125.233 73.4646 124.34 73.4646C123.355 73.5515 122.368 73.3229 121.522 72.812C120.676 72.301 120.015 71.5341 119.633 70.6223C117.094 72.6255 115.275 74.11 110.403 73.8584C106.482 73.6568 103.787 71.2177 103.885 67.2612C103.968 63.7235 104.903 61.5016 119.028 59.3218L119.022 55.6388Z" fill="#241F21"/>
<path d="M138.799 68.9532C138.799 72.8097 143.365 71.183 143.365 72.6925C143.365 73.3628 142.951 73.4738 142.355 73.4738C141.587 73.4738 139.625 73.2566 137.136 73.2566C134.647 73.2566 132.174 73.4738 131.463 73.4738C131.366 73.4843 131.269 73.4729 131.178 73.4405C131.087 73.408 131.004 73.3553 130.936 73.2862C130.868 73.2166 130.816 73.1327 130.784 73.0405C130.752 72.9484 130.741 72.8503 130.752 72.7534C130.752 71.9143 134.456 72.0831 134.456 69.6845V55.3291C134.456 51.9758 130.719 53.4337 130.719 52.2696C130.72 52.1201 130.775 51.9761 130.874 51.8637C130.973 51.7513 131.108 51.678 131.256 51.6571C135.532 50.6508 136.714 48.8647 138.079 48.8647C138.289 48.8939 138.48 49.0021 138.614 49.1672C138.747 49.3323 138.813 49.5421 138.797 49.7539V52.9915C139.664 51.9323 140.738 51.0601 141.952 50.4275C143.166 49.795 144.495 49.4154 145.86 49.3116C147.394 49.1754 148.934 49.4879 150.294 50.2111C151.653 50.9344 152.773 52.0372 153.517 53.3853C154.417 52.0401 155.655 50.9554 157.106 50.2404C158.558 49.5253 160.173 49.205 161.788 49.3116C170.571 49.3116 170.282 57.5699 170.282 59.5231V68.9548C170.282 72.8112 174.848 71.1846 174.848 72.694C174.848 73.3644 174.434 73.4753 173.838 73.4753C173.069 73.4753 171.108 73.2581 168.611 73.2581C166.114 73.2581 163.889 73.4753 163.178 73.4753C163.082 73.4859 162.985 73.4745 162.893 73.442C162.802 73.4095 162.72 73.3568 162.652 73.2878C162.583 73.2181 162.532 73.1342 162.5 73.0421C162.468 72.95 162.457 72.8519 162.467 72.755C162.467 71.9159 165.941 72.0846 165.941 69.6861V58.859C165.941 55.4557 164.577 51.3805 159.772 51.3805C156.976 51.3805 154.545 53.6697 154.545 54.5056V68.9501C154.545 72.8065 158.68 71.1799 158.68 72.6893C158.68 73.3597 158.258 73.4706 157.662 73.4706C156.894 73.4706 155.397 73.2534 152.907 73.2534C150.418 73.2534 148.063 73.4706 147.349 73.4706C147.253 73.4812 147.156 73.4698 147.064 73.4373C146.973 73.4049 146.891 73.3521 146.823 73.2831C146.755 73.2135 146.703 73.1295 146.671 73.0374C146.639 72.9453 146.628 72.8472 146.638 72.7503C146.638 71.9112 150.232 72.0799 150.232 69.6814V57.9449C150.232 53.5353 147.445 51.4149 144.451 51.4149C142.796 51.4149 138.81 52.4212 138.81 56.3276L138.799 68.9532Z" fill="#241F21"/>
<path d="M9.98907 41.4301C9.98907 41.4301 3.03557 40.7097 0.84327 44.9084C0.299187 45.7996 0.00774594 46.822 0.00015228 47.8661C-0.00744138 48.9102 0.269099 49.9367 0.800161 50.8357C1.33122 51.7348 2.09681 52.4724 3.01494 52.9697C3.93307 53.467 4.96917 53.7052 6.01229 53.6588C10.1969 53.7432 10.6766 51.2274 10.3625 50.3055C9.99063 49.2492 9.06402 47.8319 5.63259 49.2914C3.32465 50.3055 2.49804 47.3038 2.78712 46.0225C3.0762 44.7412 5.67321 42.0317 11.0579 43.3067L9.98907 41.4301Z" fill="#241F21"/>
<path d="M47.9907 44.6162C48.0006 45.1576 47.8501 45.6898 47.5581 46.1458C47.2662 46.6018 46.8458 46.9612 46.35 47.1789C45.8558 47.3917 45.309 47.4507 44.7807 47.3482C44.2525 47.2456 43.7675 46.9862 43.3889 46.6038C43.0059 46.2192 42.7444 45.7305 42.6369 45.1985C42.5294 44.6665 42.5806 44.1146 42.7842 43.6115C43.0159 43.0281 43.4439 42.5437 43.9942 42.2418C44.5446 41.9399 45.1831 41.8393 45.7996 41.9573C46.4162 42.0754 46.9723 42.4047 47.3722 42.8886C47.7722 43.3725 47.9909 43.9807 47.9907 44.6084" fill="#241F21"/>
<path d="M131.698 37.0111C132.064 37.1985 132.469 37.299 132.881 37.3049C133.054 37.3255 133.229 37.3082 133.395 37.2543C133.561 37.2003 133.714 37.1109 133.842 36.9924C133.97 36.8729 134.072 36.7276 134.14 36.566C134.208 36.4044 134.241 36.2302 134.237 36.0548C134.237 35.3595 133.807 34.9313 133.154 34.4923C132.501 34.0532 131.616 33.3688 131.616 32.3968C131.619 32.1194 131.678 31.8454 131.79 31.5917C131.903 31.338 132.066 31.11 132.27 30.9218C132.472 30.7354 132.712 30.5936 132.972 30.5056C133.233 30.4176 133.51 30.3853 133.784 30.4108C134.186 30.4008 134.583 30.499 134.934 30.6952L134.703 31.4327C134.411 31.2569 134.076 31.167 133.735 31.1733C133.587 31.1595 133.437 31.1769 133.295 31.2242C133.154 31.2716 133.024 31.3479 132.913 31.4484C132.802 31.5498 132.712 31.673 132.65 31.8103C132.588 31.9476 132.555 32.0962 132.552 32.2468C132.552 33.0016 132.982 33.2953 133.76 33.8094C134.17 34.0137 134.517 34.3233 134.767 34.7064C135.017 35.0896 135.16 35.5323 135.182 35.9892C135.182 36.2843 135.12 36.5761 135.002 36.8464C134.883 37.1166 134.71 37.3594 134.493 37.5596C134.278 37.758 134.023 37.9088 133.746 38.0022C133.469 38.0956 133.175 38.1296 132.884 38.1018C132.407 38.0903 131.94 37.9666 131.52 37.7409L131.698 37.0111Z" fill="#241F21"/>
<path d="M136.193 32.5783H137.131V38.0099H136.193V32.5783ZM136.632 31.6564C136.554 31.6575 136.476 31.6422 136.404 31.6115C136.331 31.5808 136.266 31.5355 136.212 31.4783C136.158 31.4203 136.116 31.3519 136.089 31.2772C136.062 31.2025 136.051 31.1231 136.056 31.0439C136.055 30.9227 136.091 30.8041 136.158 30.7031C136.225 30.6022 136.321 30.5234 136.432 30.4767C136.544 30.4311 136.666 30.4202 136.784 30.4453C136.901 30.4704 137.009 30.5303 137.092 30.6173C137.175 30.7056 137.23 30.8161 137.252 30.9354C137.273 31.0547 137.259 31.1776 137.212 31.2892C137.165 31.4 137.085 31.4941 136.984 31.5592C136.882 31.6244 136.764 31.6577 136.643 31.6549L136.632 31.6564Z" fill="#241F21"/>
<path d="M138.429 33.9768C138.441 33.5074 138.424 33.0377 138.379 32.5704H139.205L139.255 33.2236C139.394 32.9917 139.592 32.8011 139.829 32.6714C140.067 32.5418 140.334 32.4778 140.604 32.4861C141.431 32.4861 142.026 33.047 142.026 34.3612V38.0098H141.109V34.5049C141.109 33.8674 140.968 33.222 140.282 33.222C140.061 33.2403 139.853 33.3334 139.692 33.486C139.531 33.6386 139.428 33.8415 139.398 34.0611C139.384 34.2228 139.384 34.3854 139.398 34.5471V37.9676H138.46L138.429 33.9768Z" fill="#241F21"/>
<path d="M146.215 37.8627C145.913 38.0062 145.582 38.0753 145.248 38.0643C143.957 38.0643 143.09 37.1174 143.09 35.3235C143.09 33.761 143.916 32.4984 145.413 32.4984C145.698 32.493 145.98 32.5501 146.24 32.6656L146.059 33.3781C145.85 33.2766 145.621 33.2232 145.388 33.2219C144.451 33.2219 144.032 34.2532 144.032 35.3173C144.032 36.583 144.552 37.3486 145.413 37.3486C145.648 37.3458 145.879 37.2925 146.092 37.1924L146.215 37.8627Z" fill="#241F21"/>
<path d="M149.46 34.7312C149.46 33.6499 149.03 33.1686 148.583 33.1686C147.97 33.1686 147.656 34.0077 147.616 34.7312H149.46ZM147.606 35.3687C147.606 37.0453 148.325 37.3891 149.003 37.3891C149.342 37.397 149.677 37.3225 149.98 37.1719L150.12 37.8172C149.714 37.9945 149.273 38.0804 148.83 38.0688C147.423 38.0688 146.695 37.0125 146.695 35.3531C146.695 33.6936 147.522 32.4951 148.672 32.4951C149.822 32.4951 150.327 33.6608 150.327 34.8921V35.3687H147.606Z" fill="#241F21"/>
<path d="M154.902 31.597H154.88L153.564 32.2924L153.383 31.622L155.045 30.7251H155.827V38.0098H154.909L154.902 31.597Z" fill="#241F21"/>
<path d="M159.632 31.3031C159.163 31.3031 158.623 31.7719 158.623 32.9798C158.623 34.0532 159.062 34.5642 159.69 34.5642C159.897 34.5586 160.098 34.4951 160.27 34.381C160.443 34.267 160.58 34.1069 160.667 33.9189C160.726 33.77 160.751 33.61 160.742 33.4501C160.742 31.925 160.262 31.2625 159.648 31.2625L159.632 31.3031ZM158.152 37.3565C158.347 37.3543 158.541 37.3318 158.731 37.2893C159.136 37.1985 159.509 37.0017 159.813 36.719C160.339 36.1445 160.665 35.4146 160.74 34.6392C160.59 34.8345 160.397 34.9925 160.176 35.1009C159.956 35.2093 159.713 35.2652 159.466 35.2642C158.482 35.2642 157.738 34.4251 157.738 33.1016C157.703 32.8082 157.727 32.5108 157.809 32.2268C157.891 31.9429 158.029 31.6782 158.215 31.4485C158.401 31.2188 158.631 31.0287 158.891 30.8894C159.152 30.75 159.438 30.6644 159.732 30.6375C161.081 30.6375 161.717 31.9453 161.717 33.5626C161.767 34.7684 161.395 35.954 160.667 36.9159C160.209 37.4884 159.566 37.8831 158.848 38.0316C158.63 38.0631 158.411 38.0762 158.191 38.0706L158.152 37.3565Z" fill="#241F21"/>
<path d="M164.366 31.2701C163.845 31.2701 163.497 31.7389 163.497 32.3936C163.509 32.6954 163.606 32.9876 163.777 33.2365C163.949 33.4854 164.187 33.6807 164.464 33.7999C164.702 33.6601 164.902 33.4638 165.047 33.2284C165.191 32.9929 165.275 32.7255 165.291 32.4498C165.291 31.7451 164.969 31.2764 164.414 31.2764L164.366 31.2701ZM164.366 37.4563C164.944 37.4563 165.433 37.0376 165.433 36.1313C165.539 35.8928 165.564 35.626 165.504 35.3719C165.444 35.1179 165.302 34.8906 165.1 34.725C164.901 34.5613 164.653 34.4692 164.395 34.4632C164.137 34.4573 163.885 34.5379 163.678 34.6921C163.47 34.8483 163.319 35.068 163.248 35.318C163.177 35.5679 163.189 35.8343 163.283 36.0766C163.283 36.9157 163.688 37.4517 164.35 37.4517L164.366 37.4563ZM164.449 30.6326C164.669 30.6262 164.889 30.6644 165.095 30.745C165.3 30.8255 165.488 30.9467 165.646 31.1013C165.804 31.2585 165.929 31.4455 166.015 31.6515C166.1 31.8575 166.144 32.0784 166.144 32.3014C166.133 32.6552 166.029 33 165.844 33.3015C165.658 33.603 165.397 33.8508 165.086 34.0202C165.454 34.2191 165.761 34.5126 165.977 34.8703C166.193 35.228 166.31 35.6369 166.314 36.0547C166.321 36.3243 166.272 36.5923 166.171 36.8424C166.07 37.0925 165.92 37.3195 165.728 37.5095C165.539 37.6977 165.312 37.8445 165.063 37.9406C164.813 38.0366 164.547 38.0798 164.28 38.0673C164.027 38.0842 163.773 38.0483 163.535 37.9619C163.297 37.8756 163.079 37.7407 162.895 37.5657C162.71 37.3894 162.563 37.177 162.462 36.9416C162.362 36.7062 162.311 36.4528 162.313 36.1969C162.333 35.767 162.462 35.3494 162.69 34.9839C162.917 34.6185 163.234 34.3174 163.611 34.1093C163.311 33.9405 163.058 33.6981 162.877 33.4048C162.696 33.1115 162.593 32.7769 162.577 32.4327C162.573 32.1902 162.618 31.9496 162.71 31.7251C162.801 31.5006 162.937 31.2969 163.109 31.1263C163.28 30.9571 163.484 30.825 163.708 30.7381C163.933 30.6513 164.172 30.6116 164.413 30.6216L164.449 30.6326Z" fill="#241F21"/>
<path d="M170.702 31.4877H168.581L168.25 33.4237C168.349 33.4105 168.449 33.4105 168.549 33.4237C169.098 33.435 169.627 33.6297 170.053 33.9769C170.279 34.1913 170.454 34.4526 170.567 34.7424C170.68 35.0322 170.727 35.3432 170.706 35.6535C170.728 35.9814 170.681 36.3102 170.569 36.6192C170.457 36.9281 170.283 37.2106 170.056 37.4489C169.832 37.6852 169.56 37.8716 169.259 37.9957C168.958 38.1198 168.634 38.179 168.308 38.1693C167.846 38.1716 167.389 38.0645 166.977 37.8567L167.183 37.1614C167.52 37.3432 167.894 37.4438 168.277 37.4552C168.488 37.4562 168.697 37.4124 168.89 37.3264C169.083 37.2405 169.255 37.1144 169.395 36.9567C169.537 36.7974 169.644 36.6104 169.709 36.4075C169.774 36.2046 169.796 35.9904 169.774 35.7785C169.774 34.6222 169.013 34.1441 167.988 34.1441C167.78 34.127 167.571 34.127 167.363 34.1441L167.867 30.7908H170.696L170.702 31.4877Z" fill="#241F21"/>
<path d="M174.52 48.9243H175.529C175.7 48.9284 175.87 48.9058 176.034 48.8571C176.147 48.8183 176.244 48.7416 176.307 48.6399C176.372 48.5434 176.407 48.4297 176.407 48.3133C176.408 48.2348 176.392 48.157 176.361 48.0849C176.329 48.0128 176.284 47.948 176.226 47.8946C176.058 47.7755 175.853 47.7201 175.648 47.7383H174.523L174.52 48.9243ZM174.051 50.9369V47.332H175.623C175.869 47.3212 176.116 47.3551 176.351 47.432C176.52 47.4956 176.661 47.6175 176.748 47.7758C176.845 47.9373 176.894 48.1233 176.888 48.3118C176.894 48.5521 176.808 48.7857 176.648 48.9649C176.439 49.1577 176.17 49.273 175.887 49.2915C175.99 49.3351 176.087 49.3913 176.176 49.4587C176.324 49.6021 176.455 49.7626 176.565 49.9369L177.177 50.9182H176.59L176.121 50.1634C176.018 49.9919 175.905 49.8265 175.782 49.6681C175.716 49.5773 175.635 49.4982 175.543 49.4337C175.479 49.3853 175.406 49.3512 175.327 49.3337H174.526V50.9353L174.051 50.9369Z" fill="#241F21"/>
<path d="M175.344 45.9836C174.709 45.975 174.085 46.1555 173.552 46.5022C173.02 46.8489 172.602 47.3462 172.353 47.9308C172.104 48.5154 172.035 49.1609 172.153 49.7852C172.272 50.4094 172.574 50.9843 173.02 51.4366C173.467 51.8889 174.037 52.1983 174.66 52.3253C175.283 52.4523 175.929 52.3912 176.517 52.1499C177.105 51.9085 177.607 51.4978 177.961 50.9699C178.315 50.442 178.504 49.8208 178.504 49.1854C178.509 48.3419 178.179 47.5307 177.587 46.9303C176.994 46.3299 176.187 45.9894 175.344 45.9836ZM175.344 52.7746C174.631 52.7854 173.931 52.5839 173.333 52.1957C172.734 51.8074 172.265 51.25 171.985 50.5943C171.704 49.9386 171.625 49.2144 171.758 48.5137C171.89 47.8129 172.228 47.1675 172.729 46.6594C173.229 46.1513 173.869 45.8035 174.568 45.6603C175.266 45.5172 175.992 45.5851 176.652 45.8554C177.312 46.1257 177.876 46.5863 178.274 47.1784C178.671 47.7706 178.883 48.4675 178.883 49.1807C178.893 50.1361 178.524 51.0567 177.858 51.7417C177.531 52.0785 177.14 52.3465 176.708 52.53C176.276 52.7136 175.812 52.8089 175.342 52.8105" fill="#241F21"/>
</svg>
