<svg width="200" height="100" viewBox="0 0 200 100" fill="none" xmlns="http://www.w3.org/2000/svg">
<path d="M103.085 92.9566C106.466 93.0774 113.204 92.4253 119.846 91.3868C131.245 89.6238 142.282 86.5325 152.908 81.9921C164.331 77.0895 175.054 71.0759 184.208 62.5265C187.226 59.7009 189.98 56.6579 191.743 52.8179C192.564 51.0307 192.564 49.2919 191.743 47.4806C190.342 44.3893 188.192 41.8534 185.85 39.4625C179.015 32.4829 170.925 27.2663 162.327 22.7742C151.121 16.9539 139.335 12.8241 126.97 10.2158C120.57 8.86336 114.098 7.92148 107.601 7.55921C98.3513 7.0279 89.1257 7.39016 79.9725 8.83921C71.1333 10.24 62.4873 12.4135 54.0345 15.4324C44.4466 18.8618 35.3176 23.2573 26.7924 28.8361C20.9961 32.6278 15.5864 36.8783 11.1668 42.2398C9.83846 43.8579 8.77582 45.7417 7.73734 47.6013C6.8196 49.2436 6.86791 51.0066 7.73734 52.7213C8.2445 53.7356 8.67922 54.8224 9.37959 55.6918C11.3117 58.0586 13.1954 60.4737 15.3932 62.5748C22.1071 68.999 29.932 73.9016 38.2157 78.0797C57.5605 87.8366 78.0404 92.7875 103.085 92.9808M99.9211 0C109.895 0.28981 119.749 1.35245 129.506 3.47772C141.992 6.18262 153.922 10.3607 165.249 16.2294C174.499 21.0112 183.193 26.6142 190.583 34.0527C193.602 37.0957 196.307 40.3561 198.143 44.2926C199.93 48.1326 200.002 51.9485 198.263 55.8126C196.138 60.4979 192.854 64.3137 189.158 67.7673C180.295 76.0752 169.983 82.1612 159.018 87.1604C148.078 92.1596 136.63 95.6615 124.796 97.8109C119.483 98.777 114.146 99.5256 108.736 99.6947C104.196 99.8154 99.6313 100.105 95.1151 99.9603C82.9431 99.5739 71.0126 97.5936 59.2994 94.1158C47.8036 90.7106 36.8874 86.0253 26.6233 79.8668C19.4746 75.568 12.7607 70.6895 7.18187 64.4345C5.44301 62.4782 3.89735 60.3288 2.47245 58.1311C-0.860366 52.8904 -0.763762 47.5772 2.4 42.264C5.2015 37.5546 8.94488 33.6904 13.0747 30.1886C22.3003 22.3395 32.7335 16.495 43.8187 11.7615C51.6677 8.40449 59.7583 5.82035 68.0661 3.91244C73.814 2.60829 79.5861 1.49735 85.4789 1.08679C90.2849 0.748676 95.1151 0.386414 99.9211 0.0483019" fill="#293276"/>
<path d="M28.146 63.0337C28.0011 60.2805 28.146 59.8458 30.1505 57.4065C32.155 58.8556 34.2803 60.0873 36.792 60.5703C38.241 60.836 39.6176 60.8118 40.9942 60.4012C42.9987 59.7975 44.3753 58.5658 44.641 56.4163C44.9066 54.3394 43.8682 52.8179 42.1776 51.8035C41.0425 51.1273 39.7384 50.6443 38.5067 50.1613C36.9852 49.5575 35.4395 49.0745 33.9422 48.4466C30.2471 46.8526 28.2667 44.0511 28.2667 39.9938C28.2667 36.033 29.9814 33.0383 33.5799 31.2512C36.6712 29.7055 39.9557 29.3191 43.3127 29.9229C45.0274 30.2368 46.7421 30.744 48.3844 31.3719C49.2779 31.8308 50.1474 32.4829 50.8236 32.9417C50.9444 35.1395 50.6787 35.6708 49.0847 37.8443C48.1187 37.3372 47.1285 36.8542 46.1625 36.3228C44.158 35.2119 41.9844 35.0187 39.7625 35.2602C38.0478 35.4534 36.6471 36.2021 35.8742 37.6511C35.1256 40.4043 36.3331 42.0707 38.555 43.1092C40.487 44.0028 42.4916 44.7032 44.4478 45.5243C45.3655 45.9107 46.2832 46.273 47.1527 46.7802C50.4372 48.6639 51.9104 51.562 51.6689 55.2813C51.2342 61.7295 47.2251 65.642 40.7285 65.9801C37.2508 66.1733 33.749 66.1733 30.5127 64.5793C29.6433 64.1446 28.8705 63.565 28.0977 63.082" fill="#293276"/>
<path d="M69.4899 64.9657C69.4899 61.5846 69.4899 58.3242 69.4899 55.0639C69.4899 52.9386 69.5382 50.7892 69.4416 48.6639C69.3691 46.6352 68.2099 45.5726 66.2054 45.4277C64.0318 45.2828 62.6794 45.8382 60.9163 47.7945V65.0382H54.2266V28.3772C55.2409 28.3772 56.3035 28.3289 57.342 28.3772C59.6605 28.4979 60.8439 29.7055 60.8922 32.024C60.9405 34.7289 60.8922 37.4337 60.8922 40.1386V42.5054C61.4477 42.2156 61.7858 42.0949 62.0997 41.8775C65.3842 39.4383 69.0069 39.39 72.6295 40.7183C75.0929 41.6118 75.9865 43.8579 76.2521 46.3213C76.3729 47.4563 76.3487 48.5914 76.3487 49.7265C76.3487 54.3393 76.3487 58.9763 76.3729 63.5891C76.3729 63.9997 76.3246 64.4344 76.3004 64.9899H69.4899V64.9657Z" fill="#293276"/>
<path d="M124.289 40.7908C127.187 39.8972 129.24 40.501 130.834 42.747C131.003 42.6746 131.245 42.6504 131.365 42.5297C134.36 39.6316 137.958 39.535 141.726 40.2837C143.948 40.7184 145.349 42.1916 146.001 44.2927C146.363 45.5002 146.629 46.8044 146.653 48.0602C146.725 53.3976 146.677 58.7349 146.653 64.0481C146.653 64.3137 146.604 64.5794 146.556 64.9658H139.963C139.915 64.3862 139.818 63.7824 139.818 63.1787C139.818 59.4836 139.818 55.7885 139.818 52.0934C139.818 50.8134 139.721 49.5334 139.552 48.2776C139.311 46.418 138.321 45.5485 136.437 45.4278C134.505 45.307 132.766 45.6934 131.22 47.5531V64.99H124.289V40.7908Z" fill="#293276"/>
<path d="M163.679 59.1212V53.2767C161.577 53.0835 159.863 53.2767 158.341 53.808C157.182 54.2186 156.192 54.8707 155.588 56.0058C154.308 58.3484 155.805 61.1257 158.438 61.2948C160.539 61.4397 162.35 60.8359 163.703 59.1212M171.479 65.1106C167.712 66.4631 166.19 66.0767 163.944 63.3235C162.374 64.5552 160.636 65.4487 158.631 65.7627C156.771 66.0525 154.912 65.9559 153.173 65.3038C150.661 64.3619 149.164 62.5265 148.802 59.7733C148.029 53.808 151.724 51.248 156.747 50.1854C158.945 49.7265 161.239 49.6782 163.485 49.4609C164.137 46.8284 163.244 45.3794 160.708 44.8722C158.607 44.4617 156.626 44.8722 154.694 45.7175C153.728 46.1281 152.786 46.6111 151.627 47.1424C151.096 45.9832 150.565 44.8481 150.178 44.0269C150.347 42.602 151.12 42.0224 151.99 41.7085C153.583 41.1288 155.177 40.5492 156.844 40.2353C159.356 39.7281 161.916 39.7522 164.451 40.3319C168.026 41.153 169.982 43.3266 170.223 46.9975C170.441 50.3303 170.441 53.6631 170.465 56.9959C170.489 59.7491 170.32 62.5265 171.528 65.1106" fill="#293276"/>
<path d="M93.3987 52.9388C91.6599 53.1803 90.1625 53.2286 88.7618 53.5908C87.7716 53.8565 86.7814 54.3878 85.9844 55.0399C84.8735 55.9576 84.5354 57.2859 84.8977 58.7108C85.2599 60.0391 86.0569 61.0293 87.4818 61.2225C89.8727 61.5365 91.9738 60.981 93.3987 59.0006V52.9388ZM101.079 65.1591C97.0697 66.4391 95.524 66.0527 93.6644 63.2995C92.0222 64.507 90.235 65.4731 88.158 65.7629C85.9361 66.0768 83.7626 65.9078 81.758 64.821C79.7294 63.7342 78.6909 61.9712 78.4011 59.7252C77.6282 53.784 81.4199 51.1999 86.395 50.1856C88.5927 49.7509 90.8871 49.6784 93.1089 49.461C93.7369 46.7803 92.8191 45.3795 90.2591 44.8965C88.0856 44.486 86.0327 44.9207 84.0524 45.8143C83.2071 46.2007 82.4101 46.6354 81.4682 47.0943C80.309 46.2731 80.1641 44.8965 79.7777 43.7131C80.2607 41.9018 81.8063 41.4671 83.1588 41.0082C86.3467 39.9215 89.6795 39.6316 93.0365 40.163C98.1565 40.9599 99.678 43.6165 100.04 48.5433C100.209 50.9342 100.04 53.3735 100.064 55.7886C100.064 58.9523 99.7746 62.1644 101.055 65.1832" fill="#293276"/>
<path d="M110.307 65.5453H105.139C104.439 65.5453 103.594 65.0623 103.618 63.734V28.3772C104.632 28.3772 105.695 28.3289 106.733 28.3772C108.907 28.4979 110.138 29.633 110.38 31.7825C110.404 32.0723 110.38 32.3621 110.38 32.6277C110.38 43.1575 110.38 53.6631 110.38 64.1929C110.38 64.531 110.332 64.8933 110.307 65.5212" fill="#293276"/>
<path d="M113.661 40.4526C114.82 40.4526 115.882 40.3318 116.921 40.4526C119.408 40.7907 120.519 42.0707 120.568 44.5824C120.616 46.2246 120.568 47.8428 120.568 49.485C120.568 54.0254 120.568 58.5899 120.568 63.1302V65.497C119.312 65.497 118.201 65.6419 117.09 65.5453C114.651 65.328 113.902 64.531 113.588 62.1159C113.54 61.7053 113.54 61.2706 113.516 60.8359C113.516 54.3635 113.516 47.8911 113.516 41.4428C113.516 41.2254 113.564 41.0322 113.661 40.4284" fill="#293276"/>
<path d="M120.643 32.1689C120.643 34.2217 118.88 35.9364 116.827 35.9123C114.702 35.8881 113.011 34.1976 113.035 32.1689C113.06 30.0678 114.75 28.4014 116.827 28.4014C118.856 28.4014 120.643 30.1644 120.619 32.1689" fill="#293276"/>
</svg>
