<svg width="300" height="50" viewBox="0 0 300 50" fill="none" xmlns="http://www.w3.org/2000/svg">
<path d="M131.973 35.3606V32.1943C132.889 33.0758 133.776 33.5165 134.635 33.5165C135.273 33.5165 135.818 33.2904 136.27 32.838C136.722 32.3857 136.949 31.8406 136.949 31.2027C136.949 30.6576 136.821 29.9965 136.566 29.2194C136.311 28.4424 135.621 27.01 134.496 24.9224C133.382 22.8231 132.657 21.2342 132.321 20.1556C131.985 19.077 131.816 18.1259 131.816 17.3025C131.816 15.7019 132.269 14.3971 133.173 13.3881C134.09 12.3675 135.255 11.8572 136.67 11.8572C137.47 11.8572 138.323 12.0659 139.228 12.4835V15.3714C138.392 14.8727 137.679 14.6233 137.088 14.6233C135.545 14.6233 134.774 15.383 134.774 16.9023C134.774 17.459 134.901 18.1317 135.157 18.9204C135.423 19.6975 136.113 21.124 137.227 23.2001C138.352 25.2645 139.077 26.8418 139.402 27.9321C139.738 29.0107 139.906 29.9675 139.906 30.8026C139.906 32.4263 139.448 33.7485 138.532 34.7691C137.627 35.7781 136.45 36.2826 135 36.2826C133.956 36.2826 132.947 35.9753 131.973 35.3606Z" fill="black"/>
<path d="M154.093 35.9695V25.0963L150.353 12.1703H153.501L155.554 21.5125H155.624L157.799 12.1703H160.982L157.172 25.0963V35.9695H154.093Z" fill="black"/>
<path d="M172.647 35.9695V12.1703H175.134L180.406 26.8534H180.475V12.1703H183.294V35.9695H180.806L175.535 21.1472H175.465V35.9695H172.647Z" fill="black"/>
<path d="M205.849 31.7246V34.9431C204.7 35.8361 203.488 36.2826 202.213 36.2826C200.171 36.2826 198.594 35.2388 197.481 33.1512C196.367 31.0635 195.81 28.0828 195.81 24.2091C195.81 20.3353 196.367 17.3083 197.481 15.1278C198.606 12.9474 200.206 11.8572 202.282 11.8572C203.28 11.8572 204.376 12.2689 205.57 13.0924V16.189C204.55 15.1916 203.529 14.6929 202.508 14.6929C201.279 14.6929 200.386 15.4178 199.829 16.8675C199.284 18.3057 199.012 20.7065 199.012 24.0699C199.012 27.3986 199.29 29.7935 199.847 31.2549C200.403 32.7163 201.325 33.4469 202.613 33.4469C203.494 33.4469 204.573 32.8728 205.849 31.7246Z" fill="black"/>
<path d="M217.896 35.9695V12.1703H220.958V22.6434H225.481V12.1703H228.543V35.9695H225.481V25.4965H220.958V35.9695H217.896Z" fill="black"/>
<path d="M242.016 35.9695V12.1703H244.574C246.615 12.1703 248.169 12.7734 249.236 13.9796C250.315 15.1742 250.854 16.7689 250.854 18.7638C250.854 21.0254 250.031 22.7245 248.384 23.8611C249.659 24.7658 250.744 27.1724 251.637 31.0809L252.733 35.9695H249.532L248.61 31.8638C247.949 28.9875 247.375 27.1608 246.888 26.3837C246.4 25.5951 245.797 25.2413 245.078 25.3225V35.9695H242.016ZM245.078 22.4694H245.217C246.934 22.4694 247.792 21.269 247.792 18.8682C247.792 16.3166 246.888 15.035 245.078 15.0234V22.4694Z" fill="black"/>
<path d="M269.808 36.2826C267.929 36.2826 266.398 35.1982 265.215 33.0294C264.032 30.849 263.44 27.8625 263.44 24.0699C263.44 20.4861 263.997 17.5576 265.111 15.2844C266.236 12.9996 267.801 11.8572 269.808 11.8572C271.756 11.8572 273.305 12.9938 274.453 15.267C275.613 17.5402 276.193 20.4745 276.193 24.0699C276.193 27.8973 275.584 30.8896 274.366 33.0468C273.148 35.204 271.629 36.2826 269.808 36.2826ZM269.773 14.6929C268.764 14.6929 267.987 15.528 267.442 17.1981C266.908 18.8566 266.642 21.1472 266.642 24.0699C266.642 27.097 266.92 29.4166 267.477 31.0287C268.033 32.6409 268.822 33.4469 269.843 33.4469C270.817 33.4469 271.582 32.6235 272.139 30.9765C272.707 29.3296 272.991 27.0274 272.991 24.0699C272.991 21.066 272.707 18.7522 272.139 17.1285C271.571 15.5048 270.782 14.6929 269.773 14.6929Z" fill="black"/>
<path d="M288.762 35.9695V12.1703H291.249L296.521 26.8534H296.59V12.1703H299.409V35.9695H296.921L291.649 21.1472H291.58V35.9695H288.762Z" fill="black"/>
<path d="M132.53 47.8767C132.003 47.8767 131.591 47.8025 131.294 47.654C130.997 47.5056 130.789 47.2829 130.67 46.986C130.552 46.6891 130.492 46.3217 130.492 45.8837V43.4008C130.492 42.6882 130.652 42.1649 130.971 41.8309C131.29 41.4894 131.81 41.3187 132.53 41.3187H135.881C136.393 41.3187 136.783 41.3484 137.05 41.4078C137.325 41.4598 137.462 41.5154 137.462 41.5748L137.239 42.4989C137.113 42.4767 136.738 42.4544 136.115 42.4321C135.499 42.4024 134.601 42.3876 133.42 42.3876H132.853C132.259 42.3876 131.962 42.6511 131.962 43.1781V46.0173C131.962 46.2697 132.025 46.4664 132.151 46.6074C132.285 46.741 132.519 46.8078 132.853 46.8078H133.309C134.022 46.8078 134.623 46.8041 135.113 46.7967C135.603 46.7819 136.007 46.7707 136.326 46.7633V45.2491L135.658 45.2602L134.2 45.3715V44.2804H137.785V47.4091L137.896 47.6429C137.896 47.7023 137.74 47.758 137.429 47.8099C137.117 47.8544 136.59 47.8767 135.848 47.8767H132.53Z" fill="#C7579F"/>
<path d="M141.035 47.8767C140.538 47.8767 140.167 47.7765 139.922 47.5761C139.684 47.3757 139.566 47.0491 139.566 46.5963V44.3138C139.566 44.2025 139.573 44.0688 139.588 43.913C139.61 43.7497 139.662 43.5901 139.744 43.4342C139.833 43.2783 139.978 43.1484 140.178 43.0445C140.386 42.9406 140.672 42.8886 141.035 42.8886H144.108C144.479 42.8886 144.765 42.9406 144.966 43.0445C145.166 43.1484 145.307 43.2783 145.389 43.4342C145.478 43.5901 145.53 43.7497 145.545 43.913C145.567 44.0688 145.578 44.2025 145.578 44.3138V46.4515C145.578 46.5852 145.567 46.7336 145.545 46.8969C145.53 47.0602 145.478 47.2161 145.389 47.3645C145.3 47.513 145.155 47.6355 144.955 47.732C144.754 47.8285 144.472 47.8767 144.108 47.8767H141.035ZM141.458 46.9192H143.685C144.049 46.9192 144.231 46.7707 144.231 46.4738V44.2915C144.231 43.9946 144.049 43.8462 143.685 43.8462H141.458C141.102 43.8462 140.924 43.9946 140.924 44.2915V46.4738C140.924 46.7707 141.102 46.9192 141.458 46.9192Z" fill="#C7579F"/>
<path d="M148.603 47.8767C148.105 47.8767 147.734 47.7765 147.489 47.5761C147.252 47.3757 147.133 47.0491 147.133 46.5963V44.3138C147.133 44.2025 147.14 44.0688 147.155 43.913C147.177 43.7497 147.229 43.5901 147.311 43.4342C147.4 43.2783 147.545 43.1484 147.745 43.0445C147.953 42.9406 148.239 42.8886 148.603 42.8886H151.676C152.047 42.8886 152.333 42.9406 152.533 43.0445C152.733 43.1484 152.874 43.2783 152.956 43.4342C153.045 43.5901 153.097 43.7497 153.112 43.913C153.134 44.0688 153.145 44.2025 153.145 44.3138V46.4515C153.145 46.5852 153.134 46.7336 153.112 46.8969C153.097 47.0602 153.045 47.2161 152.956 47.3645C152.867 47.513 152.722 47.6355 152.522 47.732C152.321 47.8285 152.039 47.8767 151.676 47.8767H148.603ZM149.026 46.9192H151.253C151.616 46.9192 151.798 46.7707 151.798 46.4738V44.2915C151.798 43.9946 151.616 43.8462 151.253 43.8462H149.026C148.669 43.8462 148.491 43.9946 148.491 44.2915V46.4738C148.491 46.7707 148.669 46.9192 149.026 46.9192Z" fill="#C7579F"/>
<path d="M156.17 47.8767C155.799 47.8767 155.513 47.8285 155.313 47.732C155.112 47.6355 154.967 47.513 154.878 47.3645C154.797 47.2161 154.745 47.0602 154.722 46.8969C154.708 46.7336 154.7 46.5852 154.7 46.4515V44.3138C154.7 44.2025 154.708 44.0688 154.722 43.913C154.745 43.7497 154.797 43.5901 154.878 43.4342C154.967 43.2783 155.112 43.1484 155.313 43.0445C155.52 42.9406 155.806 42.8886 156.17 42.8886H156.738C157.421 42.8886 157.97 42.9035 158.386 42.9332C158.809 42.9554 159.132 42.9814 159.354 43.0111V40.8177H160.713V47.8767H159.8L159.365 47.654C159.054 47.706 158.679 47.758 158.241 47.8099C157.803 47.8544 157.298 47.8767 156.727 47.8767H156.17ZM156.593 46.9192H159.009C159.165 46.9192 159.261 46.9006 159.299 46.8635C159.336 46.8264 159.354 46.7336 159.354 46.5852V43.9241C159.102 43.9093 158.783 43.8944 158.397 43.8796C158.011 43.8573 157.599 43.8462 157.161 43.8462H156.593C156.237 43.8462 156.059 43.9946 156.059 44.2915V46.4738C156.059 46.7707 156.237 46.9192 156.593 46.9192Z" fill="#C7579F"/>
<path d="M166.969 47.8767C166.464 47.8767 166.093 47.8544 165.855 47.8099C165.618 47.7654 165.499 47.7134 165.499 47.654L165.944 46.6854C166.115 46.7151 166.538 46.7447 167.214 46.7744C167.897 46.7967 168.832 46.8078 170.019 46.8078H170.231C170.55 46.8078 170.777 46.7522 170.91 46.6408C171.044 46.5221 171.111 46.3254 171.111 46.0507V45.828C171.111 45.5682 171.055 45.3827 170.944 45.2713C170.84 45.16 170.602 45.1043 170.231 45.1043H167.648C166.898 45.1043 166.353 44.967 166.011 44.6924C165.67 44.4103 165.499 43.9538 165.499 43.3229V43.1447C165.499 42.8181 165.558 42.5175 165.677 42.2429C165.803 41.9682 166.015 41.7492 166.312 41.5859C166.609 41.4152 167.017 41.3299 167.537 41.3299H170.565C171.07 41.3299 171.478 41.3558 171.79 41.4078C172.102 41.4598 172.257 41.5154 172.257 41.5748L172.035 42.5101C171.842 42.4878 171.404 42.4655 170.721 42.4433C170.038 42.4136 169.121 42.3987 167.971 42.3987L167.848 42.3876C167.507 42.3876 167.277 42.4581 167.158 42.5991C167.039 42.7328 166.976 42.9035 166.969 43.1113V43.3006C166.969 43.5455 167.035 43.7311 167.169 43.8573C167.31 43.9761 167.54 44.0354 167.859 44.0354H170.331C170.806 44.0354 171.211 44.0837 171.545 44.1802C171.879 44.2767 172.135 44.4548 172.313 44.7146C172.491 44.967 172.58 45.3418 172.58 45.8392V46.0173C172.58 46.574 172.436 47.0231 172.146 47.3645C171.864 47.706 171.37 47.8767 170.665 47.8767H166.969Z" fill="#C7579F"/>
<path d="M175.719 47.8767C175.347 47.8767 175.062 47.8285 174.861 47.732C174.661 47.6355 174.516 47.513 174.427 47.3645C174.345 47.2161 174.293 47.0602 174.271 46.8969C174.256 46.7336 174.249 46.5852 174.249 46.4515V44.3138C174.249 44.2025 174.256 44.0688 174.271 43.913C174.293 43.7497 174.345 43.5901 174.427 43.4342C174.516 43.2783 174.661 43.1484 174.861 43.0445C175.069 42.9406 175.355 42.8886 175.719 42.8886H177.266C178.194 42.8886 178.851 42.9146 179.237 42.9666C179.63 43.0111 179.827 43.0594 179.827 43.1113L179.604 43.9575C179.397 43.9427 179.133 43.9278 178.814 43.913C178.495 43.8907 178.149 43.8759 177.778 43.8684C177.415 43.8536 177.058 43.8462 176.709 43.8462H176.142C175.785 43.8462 175.607 43.9946 175.607 44.2915V46.4738C175.6 46.7707 175.778 46.9192 176.142 46.9192H176.709C177.11 46.9192 177.5 46.9155 177.879 46.908C178.265 46.8932 178.617 46.8784 178.936 46.8635C179.255 46.8412 179.512 46.8227 179.705 46.8078L180.15 47.5316C180.15 47.7617 179.419 47.8767 177.956 47.8767H175.719Z" fill="#C7579F"/>
<path d="M182.163 42.1872C181.889 42.1872 181.688 42.1315 181.562 42.0202C181.436 41.9088 181.373 41.7233 181.373 41.4635C181.373 41.1962 181.432 41.0107 181.551 40.9068C181.677 40.7954 181.881 40.7397 182.163 40.7397C182.446 40.7397 182.65 40.7954 182.776 40.9068C182.902 41.0107 182.965 41.1962 182.965 41.4635C182.965 41.7158 182.902 41.9014 182.776 42.0202C182.65 42.1315 182.446 42.1872 182.163 42.1872ZM181.484 47.8767V42.8886H182.843V47.8767H181.484Z" fill="#C7579F"/>
<path d="M186.102 47.8767C185.73 47.8767 185.445 47.8285 185.244 47.732C185.044 47.6355 184.899 47.513 184.81 47.3645C184.728 47.2161 184.676 47.0602 184.654 46.8969C184.639 46.7336 184.632 46.5852 184.632 46.4515V44.3138C184.632 44.2025 184.639 44.0688 184.654 43.913C184.676 43.7497 184.728 43.5901 184.81 43.4342C184.899 43.2783 185.044 43.1484 185.244 43.0445C185.452 42.9406 185.738 42.8886 186.102 42.8886H188.495C188.985 42.8886 189.368 42.9369 189.642 43.0334C189.924 43.1224 190.121 43.2709 190.232 43.4787C190.351 43.6866 190.41 43.9649 190.41 44.3138V45.9616H188.462C187.794 45.9616 187.248 45.9468 186.825 45.9171C186.41 45.8874 186.131 45.8689 185.99 45.8614V46.4738C185.983 46.7707 186.161 46.9192 186.525 46.9192H187.092C187.493 46.9192 187.883 46.9155 188.262 46.908C188.648 46.8932 189 46.8784 189.319 46.8635C189.638 46.8412 189.895 46.8227 190.088 46.8078L190.533 47.5316C190.533 47.7617 189.802 47.8767 188.339 47.8767H186.102ZM185.99 45.0041H189.052V44.2915C189.052 44.1431 189.034 44.0392 188.996 43.9798C188.967 43.9204 188.87 43.8833 188.707 43.8684C188.544 43.8536 188.265 43.8462 187.872 43.8462H186.525C186.168 43.8462 185.99 43.9946 185.99 44.2915V45.0041Z" fill="#C7579F"/>
<path d="M192.093 47.8767V42.8886H193.006L193.451 43.1113C193.763 43.0519 194.138 43 194.576 42.9554C195.014 42.9109 195.515 42.8886 196.079 42.8886H196.636C197.007 42.8886 197.293 42.9406 197.493 43.0445C197.693 43.1484 197.834 43.2783 197.916 43.4342C198.005 43.5901 198.057 43.7497 198.072 43.913C198.094 44.0688 198.105 44.2025 198.105 44.3138V47.8767H196.747V44.2915C196.747 43.9946 196.569 43.8462 196.213 43.8462H193.785C193.644 43.8462 193.552 43.861 193.507 43.8907C193.47 43.913 193.451 43.9798 193.451 44.0911V47.8767H192.093Z" fill="#C7579F"/>
<path d="M201.193 47.8767C200.821 47.8767 200.536 47.8285 200.335 47.732C200.135 47.6355 199.99 47.513 199.901 47.3645C199.819 47.2161 199.767 47.0602 199.745 46.8969C199.73 46.7336 199.723 46.5852 199.723 46.4515V44.3138C199.723 44.2025 199.73 44.0688 199.745 43.913C199.767 43.7497 199.819 43.5901 199.901 43.4342C199.99 43.2783 200.135 43.1484 200.335 43.0445C200.543 42.9406 200.829 42.8886 201.193 42.8886H202.74C203.668 42.8886 204.325 42.9146 204.711 42.9666C205.104 43.0111 205.301 43.0594 205.301 43.1113L205.078 43.9575C204.871 43.9427 204.607 43.9278 204.288 43.913C203.969 43.8907 203.624 43.8759 203.252 43.8684C202.889 43.8536 202.532 43.8462 202.184 43.8462H201.616C201.259 43.8462 201.081 43.9946 201.081 44.2915V46.4738C201.074 46.7707 201.252 46.9192 201.616 46.9192H202.184C202.584 46.9192 202.974 46.9155 203.353 46.908C203.739 46.8932 204.091 46.8784 204.41 46.8635C204.73 46.8412 204.986 46.8227 205.179 46.8078L205.624 47.5316C205.624 47.7617 204.893 47.8767 203.431 47.8767H201.193Z" fill="#C7579F"/>
<path d="M208.205 47.8767C207.834 47.8767 207.548 47.8285 207.348 47.732C207.148 47.6355 207.003 47.513 206.914 47.3645C206.832 47.2161 206.78 47.0602 206.758 46.8969C206.743 46.7336 206.736 46.5852 206.736 46.4515V44.3138C206.736 44.2025 206.743 44.0688 206.758 43.913C206.78 43.7497 206.832 43.5901 206.914 43.4342C207.003 43.2783 207.148 43.1484 207.348 43.0445C207.556 42.9406 207.842 42.8886 208.205 42.8886H210.599C211.089 42.8886 211.471 42.9369 211.746 43.0334C212.028 43.1224 212.225 43.2709 212.336 43.4787C212.455 43.6866 212.514 43.9649 212.514 44.3138V45.9616H210.566C209.898 45.9616 209.352 45.9468 208.929 45.9171C208.513 45.8874 208.235 45.8689 208.094 45.8614V46.4738C208.087 46.7707 208.265 46.9192 208.628 46.9192H209.196C209.597 46.9192 209.987 46.9155 210.365 46.908C210.751 46.8932 211.104 46.8784 211.423 46.8635C211.742 46.8412 211.998 46.8227 212.191 46.8078L212.637 47.5316C212.637 47.7617 211.906 47.8767 210.443 47.8767H208.205ZM208.094 45.0041H211.156V44.2915C211.156 44.1431 211.137 44.0392 211.1 43.9798C211.071 43.9204 210.974 43.8833 210.811 43.8684C210.647 43.8536 210.369 43.8462 209.976 43.8462H208.628C208.272 43.8462 208.094 43.9946 208.094 44.2915V45.0041Z" fill="#C7579F"/>
<path d="M215.21 47.8767C214.935 47.8767 214.735 47.821 214.609 47.7097C214.483 47.5984 214.42 47.4128 214.42 47.153C214.42 46.8858 214.479 46.7002 214.598 46.5963C214.724 46.485 214.928 46.4293 215.21 46.4293C215.492 46.4293 215.696 46.485 215.822 46.5963C215.949 46.7002 216.012 46.8858 216.012 47.153C216.012 47.4054 215.949 47.5909 215.822 47.7097C215.696 47.821 215.492 47.8767 215.21 47.8767Z" fill="#C7579F"/>
<path d="M223.054 47.8767C222.527 47.8767 222.115 47.8025 221.818 47.654C221.521 47.5056 221.313 47.2829 221.194 46.986C221.075 46.6891 221.016 46.3217 221.016 45.8837V43.4008C221.016 42.6882 221.176 42.1649 221.495 41.8309C221.814 41.4894 222.334 41.3187 223.054 41.3187H226.405C226.917 41.3187 227.307 41.3484 227.574 41.4078C227.849 41.4598 227.986 41.5154 227.986 41.5748L227.763 42.4989C227.637 42.4767 227.262 42.4544 226.639 42.4321C226.023 42.4024 225.125 42.3876 223.944 42.3876H223.376C222.783 42.3876 222.486 42.6511 222.486 43.1781V46.0173C222.486 46.2697 222.549 46.4664 222.675 46.6074C222.809 46.741 223.042 46.8078 223.376 46.8078H223.833C224.546 46.8078 225.147 46.8041 225.637 46.7967C226.127 46.7819 226.531 46.7707 226.85 46.7633V45.2491L226.182 45.2602L224.724 45.3715V44.2804H228.309V47.4091L228.42 47.6429C228.42 47.7023 228.264 47.758 227.953 47.8099C227.641 47.8544 227.114 47.8767 226.372 47.8767H223.054Z" fill="#C7579F"/>
<path d="M231.559 47.8767C231.062 47.8767 230.691 47.7765 230.446 47.5761C230.208 47.3757 230.089 47.0491 230.089 46.5963V44.3138C230.089 44.2025 230.097 44.0688 230.112 43.913C230.134 43.7497 230.186 43.5901 230.268 43.4342C230.357 43.2783 230.501 43.1484 230.702 43.0445C230.91 42.9406 231.195 42.8886 231.559 42.8886H234.632C235.003 42.8886 235.289 42.9406 235.49 43.0445C235.69 43.1484 235.831 43.2783 235.913 43.4342C236.002 43.5901 236.054 43.7497 236.068 43.913C236.091 44.0688 236.102 44.2025 236.102 44.3138V46.4515C236.102 46.5852 236.091 46.7336 236.068 46.8969C236.054 47.0602 236.002 47.2161 235.913 47.3645C235.824 47.513 235.679 47.6355 235.478 47.732C235.278 47.8285 234.996 47.8767 234.632 47.8767H231.559ZM231.982 46.9192H234.209C234.573 46.9192 234.755 46.7707 234.755 46.4738V44.2915C234.755 43.9946 234.573 43.8462 234.209 43.8462H231.982C231.626 43.8462 231.448 43.9946 231.448 44.2915V46.4738C231.448 46.7707 231.626 46.9192 231.982 46.9192Z" fill="#C7579F"/>
<path d="M239.126 47.8767C238.629 47.8767 238.258 47.7765 238.013 47.5761C237.776 47.3757 237.657 47.0491 237.657 46.5963V44.3138C237.657 44.2025 237.664 44.0688 237.679 43.913C237.701 43.7497 237.753 43.5901 237.835 43.4342C237.924 43.2783 238.069 43.1484 238.269 43.0445C238.477 42.9406 238.763 42.8886 239.126 42.8886H242.199C242.571 42.8886 242.856 42.9406 243.057 43.0445C243.257 43.1484 243.398 43.2783 243.48 43.4342C243.569 43.5901 243.621 43.7497 243.636 43.913C243.658 44.0688 243.669 44.2025 243.669 44.3138V46.4515C243.669 46.5852 243.658 46.7336 243.636 46.8969C243.621 47.0602 243.569 47.2161 243.48 47.3645C243.391 47.513 243.246 47.6355 243.046 47.732C242.845 47.8285 242.563 47.8767 242.199 47.8767H239.126ZM239.55 46.9192H241.776C242.14 46.9192 242.322 46.7707 242.322 46.4738V44.2915C242.322 43.9946 242.14 43.8462 241.776 43.8462H239.55C239.193 43.8462 239.015 43.9946 239.015 44.2915V46.4738C239.015 46.7707 239.193 46.9192 239.55 46.9192Z" fill="#C7579F"/>
<path d="M246.694 47.8767C246.323 47.8767 246.037 47.8285 245.836 47.732C245.636 47.6355 245.491 47.513 245.402 47.3645C245.321 47.2161 245.269 47.0602 245.246 46.8969C245.231 46.7336 245.224 46.5852 245.224 46.4515V44.3138C245.224 44.2025 245.231 44.0688 245.246 43.913C245.269 43.7497 245.321 43.5901 245.402 43.4342C245.491 43.2783 245.636 43.1484 245.836 43.0445C246.044 42.9406 246.33 42.8886 246.694 42.8886H247.262C247.944 42.8886 248.494 42.9035 248.909 42.9332C249.333 42.9554 249.655 42.9814 249.878 43.0111V40.8177H251.236V47.8767H250.323L249.889 47.654C249.577 47.706 249.203 47.758 248.765 47.8099C248.327 47.8544 247.822 47.8767 247.25 47.8767H246.694ZM247.117 46.9192H249.533C249.689 46.9192 249.785 46.9006 249.822 46.8635C249.86 46.8264 249.878 46.7336 249.878 46.5852V43.9241C249.626 43.9093 249.307 43.8944 248.921 43.8796C248.535 43.8573 248.123 43.8462 247.685 43.8462H247.117C246.761 43.8462 246.582 43.9946 246.582 44.2915V46.4738C246.582 46.7707 246.761 46.9192 247.117 46.9192Z" fill="#C7579F"/>
<path d="M256.357 47.8767V42.2206L256.246 41.3187H261.178C261.653 41.3187 262.024 41.3818 262.291 41.508C262.566 41.6342 262.766 41.8012 262.893 42.009C263.026 42.2094 263.112 42.4247 263.149 42.6548C263.186 42.8849 263.204 43.1039 263.204 43.3117V43.9686C263.204 44.1394 263.178 44.3324 263.126 44.5476C263.074 44.7555 262.978 44.9596 262.837 45.16C262.696 45.353 262.492 45.5163 262.225 45.6499C261.957 45.7761 261.608 45.8392 261.178 45.8392H260.042C259.575 45.8392 259.137 45.828 258.728 45.8058C258.328 45.7835 258.027 45.7649 257.827 45.7501V47.8767H256.357ZM257.827 44.7703H260.855C261.189 44.7703 261.419 44.6886 261.545 44.5253C261.672 44.362 261.735 44.1653 261.735 43.9352V43.2338C261.735 42.9963 261.672 42.7958 261.545 42.6325C261.419 42.4692 261.193 42.3876 260.866 42.3876H257.827V44.7703Z" fill="#C7579F"/>
<path d="M266.34 47.8767C265.969 47.8767 265.683 47.8285 265.483 47.732C265.283 47.6355 265.138 47.513 265.049 47.3645C264.967 47.2161 264.915 47.0602 264.893 46.8969C264.878 46.7336 264.871 46.5852 264.871 46.4515V44.3138C264.871 44.2025 264.878 44.0688 264.893 43.913C264.915 43.7497 264.967 43.5901 265.049 43.4342C265.138 43.2783 265.283 43.1484 265.483 43.0445C265.691 42.9406 265.977 42.8886 266.34 42.8886H268.734C269.224 42.8886 269.606 42.9369 269.881 43.0334C270.163 43.1224 270.36 43.2709 270.471 43.4787C270.59 43.6866 270.649 43.9649 270.649 44.3138V45.9616H268.701C268.033 45.9616 267.487 45.9468 267.064 45.9171C266.648 45.8874 266.37 45.8689 266.229 45.8614V46.4738C266.221 46.7707 266.4 46.9192 266.763 46.9192H267.331C267.732 46.9192 268.122 46.9155 268.5 46.908C268.886 46.8932 269.239 46.8784 269.558 46.8635C269.877 46.8412 270.133 46.8227 270.326 46.8078L270.772 47.5316C270.772 47.7617 270.04 47.8767 268.578 47.8767H266.34ZM266.229 45.0041H269.291V44.2915C269.291 44.1431 269.272 44.0392 269.235 43.9798C269.205 43.9204 269.109 43.8833 268.946 43.8684C268.782 43.8536 268.504 43.8462 268.111 43.8462H266.763C266.407 43.8462 266.229 43.9946 266.229 44.2915V45.0041Z" fill="#C7579F"/>
<path d="M273.69 47.8767C273.193 47.8767 272.822 47.7765 272.577 47.5761C272.339 47.3757 272.22 47.0491 272.22 46.5963V44.3138C272.22 44.2025 272.228 44.0688 272.243 43.913C272.265 43.7497 272.317 43.5901 272.398 43.4342C272.488 43.2783 272.632 43.1484 272.833 43.0445C273.041 42.9406 273.326 42.8886 273.69 42.8886H276.763C277.134 42.8886 277.42 42.9406 277.62 43.0445C277.821 43.1484 277.962 43.2783 278.044 43.4342C278.133 43.5901 278.185 43.7497 278.199 43.913C278.222 44.0688 278.233 44.2025 278.233 44.3138V46.4515C278.233 46.5852 278.222 46.7336 278.199 46.8969C278.185 47.0602 278.133 47.2161 278.044 47.3645C277.954 47.513 277.81 47.6355 277.609 47.732C277.409 47.8285 277.127 47.8767 276.763 47.8767H273.69ZM274.113 46.9192H276.34C276.704 46.9192 276.886 46.7707 276.886 46.4738V44.2915C276.886 43.9946 276.704 43.8462 276.34 43.8462H274.113C273.757 43.8462 273.579 43.9946 273.579 44.2915V46.4738C273.579 46.7707 273.757 46.9192 274.113 46.9192Z" fill="#C7579F"/>
<path d="M279.899 49.9477V42.8886H280.812L281.09 43.0334C281.424 42.9963 281.821 42.9629 282.282 42.9332C282.749 42.9035 283.28 42.8886 283.874 42.8886H284.442C284.813 42.8886 285.099 42.9369 285.299 43.0334C285.499 43.1299 285.64 43.2523 285.722 43.4008C285.811 43.5493 285.863 43.7051 285.878 43.8684C285.9 44.0317 285.911 44.1802 285.911 44.3138V46.4515C285.911 46.5629 285.9 46.7002 285.878 46.8635C285.863 47.0194 285.811 47.1753 285.722 47.3311C285.64 47.487 285.499 47.6169 285.299 47.7208C285.099 47.8248 284.813 47.8767 284.442 47.8767H283.874C283.31 47.8767 282.809 47.8619 282.371 47.8322C281.933 47.8025 281.562 47.7728 281.257 47.7431V49.9477H279.899ZM281.602 46.9192H284.019C284.16 46.9192 284.282 46.8821 284.386 46.8078C284.497 46.7336 284.553 46.6223 284.553 46.4738V44.2915C284.56 44.1282 284.52 44.0132 284.431 43.9464C284.349 43.8796 284.212 43.8462 284.019 43.8462H283.462C282.987 43.8462 282.564 43.8573 282.193 43.8796C281.829 43.8944 281.517 43.913 281.257 43.9352V46.574C281.257 46.7373 281.272 46.8375 281.302 46.8746C281.339 46.9043 281.439 46.9192 281.602 46.9192Z" fill="#C7579F"/>
<path d="M287.697 47.8767V41.7084L287.586 40.8177H289.056V47.8767H287.697Z" fill="#C7579F"/>
<path d="M292.195 47.8767C291.824 47.8767 291.538 47.8285 291.338 47.732C291.137 47.6355 290.992 47.513 290.903 47.3645C290.822 47.2161 290.77 47.0602 290.747 46.8969C290.733 46.7336 290.725 46.5852 290.725 46.4515V44.3138C290.725 44.2025 290.733 44.0688 290.747 43.913C290.77 43.7497 290.822 43.5901 290.903 43.4342C290.992 43.2783 291.137 43.1484 291.338 43.0445C291.545 42.9406 291.831 42.8886 292.195 42.8886H294.589C295.079 42.8886 295.461 42.9369 295.736 43.0334C296.018 43.1224 296.214 43.2709 296.326 43.4787C296.444 43.6866 296.504 43.9649 296.504 44.3138V45.9616H294.555C293.887 45.9616 293.342 45.9468 292.919 45.9171C292.503 45.8874 292.225 45.8689 292.084 45.8614V46.4738C292.076 46.7707 292.254 46.9192 292.618 46.9192H293.186C293.587 46.9192 293.976 46.9155 294.355 46.908C294.741 46.8932 295.093 46.8784 295.413 46.8635C295.732 46.8412 295.988 46.8227 296.181 46.8078L296.626 47.5316C296.626 47.7617 295.895 47.8767 294.433 47.8767H292.195ZM292.084 45.0041H295.145V44.2915C295.145 44.1431 295.127 44.0392 295.09 43.9798C295.06 43.9204 294.964 43.8833 294.8 43.8684C294.637 43.8536 294.359 43.8462 293.965 43.8462H292.618C292.262 43.8462 292.084 43.9946 292.084 44.2915V45.0041Z" fill="#C7579F"/>
<path d="M299.2 47.8767C298.925 47.8767 298.724 47.821 298.598 47.7097C298.472 47.5984 298.409 47.4128 298.409 47.153C298.409 46.8858 298.468 46.7002 298.587 46.5963C298.713 46.485 298.917 46.4293 299.2 46.4293C299.482 46.4293 299.686 46.485 299.812 46.5963C299.938 46.7002 300.001 46.8858 300.001 47.153C300.001 47.4054 299.938 47.5909 299.812 47.7097C299.686 47.821 299.482 47.8767 299.2 47.8767Z" fill="#C7579F"/>
<path d="M43.8584 0L128.041 47.32L12.8047 21.1548L43.8584 0Z" fill="#FA931C"/>
<path d="M43.8595 0L116.352 15.5878L0 21.7115L43.8595 0Z" fill="#13C2F7"/>
<path d="M43.8605 0L111.342 5.01035L16.9805 18.928L43.8605 0Z" fill="#C7579F"/>
</svg>
