<svg width="300" height="93" viewBox="0 0 300 93" fill="none" xmlns="http://www.w3.org/2000/svg">
<path d="M0 14.3164V28.6709L2.77216 25.8228C4.32912 24.2658 10.6709 17.8101 16.8988 11.4683L28.2152 -2.47955e-05H14.1266H0V14.3164Z" fill="#00003E"/>
<path d="M38.66 8.99999C43.4828 13.9747 49.8245 20.4304 52.7486 23.3544L58.103 28.6709V14.3164V-2.47955e-05H44.0144H29.9258L38.66 8.99999Z" fill="#00003E"/>
<path d="M24.9109 5.24041C24.7969 5.43029 25.4805 6.3037 26.3919 7.2151L28.1007 8.88599L29.8096 7.2151C30.9488 6.11383 31.4045 5.43029 31.1387 5.16446C30.8729 4.89864 30.3033 5.20244 29.4299 6.07586L28.1007 7.367L26.8476 6.15181C25.5185 4.86066 25.2147 4.74674 24.9109 5.24041Z" fill="#0081FF"/>
<path d="M21.4573 8.73411C20.7358 9.53158 20.7737 9.56956 24.4193 13.2151L28.1029 16.8987L31.7864 13.2151L35.5079 9.49361L34.6345 8.65816L33.7991 7.82272L30.951 10.6329L28.1029 13.443L25.3307 10.7088C23.8117 9.22779 22.4826 7.97462 22.3687 7.97462C22.2548 7.97462 21.837 8.31639 21.4573 8.73411Z" fill="#0081FF"/>
<path d="M17.1269 12.6836C16.4434 13.4052 15.9118 14.1647 15.9877 14.3545C16.0637 14.5444 18.8358 17.4685 22.1016 20.8862L28.1016 27.0381L34.3295 20.6583L40.5953 14.2406L39.0763 12.7216L37.5953 11.2026L32.8485 15.9495L28.1016 20.6963L23.4308 16.0254C20.8864 13.4811 18.6839 11.3925 18.57 11.3925C18.4561 11.3925 17.8105 11.9621 17.1269 12.6836Z" fill="#0081FF"/>
<path d="M34.9735 23.3925L28.0621 30.5317L21.3406 23.8102C17.657 20.1266 14.4291 17.0887 14.2393 17.0887C14.0114 17.0887 12.9481 18.0001 11.8848 19.0634L9.91016 21.076L19.0241 30.3039L28.138 39.5317L37.252 30.4558C42.2267 25.4431 46.3279 21.1899 46.3279 21.0001C46.3279 20.8102 45.3406 19.671 44.1254 18.4937L41.8849 16.2912L34.9735 23.3925Z" fill="#0081FF"/>
<path d="M5.73201 26.7342L2.92188 29.5823L11.3143 38.2405C15.9092 42.9874 21.6434 48.8355 24.0738 51.2279L28.4409 55.595L41.2764 42.7975L54.1118 30.038L50.9599 26.8861L47.77 23.7342L37.9346 33.7595L28.0611 43.8228L27.1877 42.8734C18.8713 34.1013 8.99783 23.924 8.76998 23.924C8.65606 23.924 7.25099 25.2152 5.73201 26.7342Z" fill="#0081FF"/>
<path d="M0 44.3544V58.481H13.8608C21.4937 58.481 27.7216 58.367 27.7216 58.1772C27.7216 58.0253 21.4937 51.6835 13.8608 44.0506L0 30.1898V44.3544Z" fill="#00003E"/>
<path d="M43.8592 44.4303L29.8086 58.481H43.9732H58.0998V44.4303C58.0998 36.6835 58.0618 30.3797 57.9858 30.3797C57.9479 30.3797 51.5681 36.6835 43.8592 44.4303Z" fill="#00003E"/>
<path d="M79.5579 0.873329C79.4439 1.10118 79.406 8.24043 79.4439 16.7088L79.5579 32.0886L81.7224 32.2025L83.9249 32.3164L84.0009 24.9113L84.1148 17.4683L92.3553 24.9113L100.634 32.3164L103.748 32.2025L106.824 32.0886L98.4313 24.7215C93.7984 20.6961 90.0009 17.2784 90.0009 17.2025C90.0009 17.0885 93.7984 13.2531 98.4693 8.69613L106.9 0.417633L104.165 0.379658H101.431L92.6971 8.77207L83.9249 17.1265V8.77207V0.379658H81.8363C80.5072 0.379658 79.6718 0.569532 79.5579 0.873329Z" fill="#00003E"/>
<path d="M112.862 0.835464C112.52 1.17724 112.406 5.20256 112.406 16.595V31.9368L114.609 31.8228L116.773 31.7089L116.887 18.3038L116.963 4.93674H127.596H138.229V18.4178V31.8988H140.508H142.786V16.8608C142.786 7.25319 142.634 1.59496 142.406 1.10129C142.027 0.417742 141.457 0.379766 127.672 0.379766C117.001 0.379766 113.204 0.49369 112.862 0.835464Z" fill="#00003E"/>
<path d="M149.242 16.329V32.3164L151.445 32.2025L153.609 32.0886L153.723 19.2911L153.799 6.49359L154.9 5.73409C155.926 5.01258 156.533 4.93663 162.989 4.93663C167.926 4.93663 170.128 5.08852 170.432 5.39232C170.774 5.73409 170.888 9.26575 170.888 18.8734V31.8987H172.976H175.065V18.4177V4.93663H184.179H193.293L193.369 18.3037L193.483 31.7088L195.685 31.8227L197.85 31.9367V16.5949C197.85 5.20245 197.736 1.17713 197.394 0.835356C197.052 0.493582 193.635 0.379658 184.331 0.379658C173.014 0.379658 171.685 0.455608 171.495 0.987253C171.268 1.59485 171.192 1.59485 170.584 0.987253C169.976 0.455608 168.837 0.379658 162.989 0.379658C156.23 0.379658 156.116 0.379658 154.976 1.32903L153.837 2.31637L153.723 1.44295C153.609 0.683456 153.381 0.569532 151.445 0.455608L149.242 0.341684V16.329Z" fill="#00003E"/>
<path d="M202.785 16.3292V32.2786H205.254H207.722V18.6077V4.93678H213.722H219.684L221.697 6.68361C223.292 8.08868 223.785 8.8102 224.279 10.5191C224.962 12.8355 224.811 15.2659 223.899 17.0507C223.064 18.6457 220.102 21.3798 217.861 22.633C216.152 23.5824 215.355 23.7343 212.013 23.9241L208.102 24.114L225.038 41.2786L241.975 58.4811C242.634 58.4811 247.975 58.6047 247.975 58.2533C247.975 58.1394 241.14 51.0761 232.785 42.6077L217.595 27.152L220.14 25.9748C223.481 24.4178 225.95 21.8735 227.279 18.6077C228.57 15.4178 228.836 13.1393 228.266 10.1773C227.659 7.21526 226.481 5.08867 224.241 3.11399C221.431 0.64563 220.178 0.379807 210.874 0.379807H202.785V16.3292Z" fill="#00003E"/>
<path d="M234.267 1.29105C233.356 1.93662 232.824 2.62016 232.634 3.45561C232.52 4.10118 232.406 9.83536 232.406 16.1392C232.406 22.443 232.52 28.1772 232.634 28.8227C232.824 29.6582 233.356 30.3417 234.267 30.9873L235.634 31.8987H248.47C260.887 31.8987 261.381 31.8607 262.444 31.1012C264.647 29.5442 264.685 29.2405 264.685 16.1392C264.685 3.03788 264.647 2.73409 262.444 1.17712C261.381 0.417627 260.887 0.379652 248.47 0.379652H235.634L234.267 1.29105ZM258.875 5.16447L259.938 5.96194V16.1392V26.3164L258.951 27.0379C258.039 27.7215 257.28 27.7594 248.697 27.7594C243.609 27.7594 239.318 27.7215 239.166 27.7215C239.052 27.7215 238.406 27.2658 237.761 26.7341L236.583 25.7468V16.1392V6.49359L238.027 5.31637L239.432 4.13915L248.621 4.25307C257.28 4.367 257.849 4.40497 258.875 5.16447Z" fill="#00003E"/>
<path d="M247.328 13.6709C246.303 14.0886 245.695 15.1898 245.695 16.6329C245.695 18.1899 246.759 19.3291 248.429 19.5949C249.569 19.7848 249.986 19.6709 250.784 18.8734C253.404 16.2531 250.746 12.3038 247.328 13.6709Z" fill="#00003E"/>
<path d="M270.191 0.873327C270.077 1.10118 270.039 8.16447 270.077 16.5189L270.191 31.7088H272.279H274.368L274.482 18.8354C274.52 10.1012 274.71 5.77207 274.975 5.43029C275.317 5.05055 277.482 4.93662 285.039 4.93662H294.684V18.4177V31.8987H296.963H299.241V17.1265C299.241 8.4303 299.089 1.93662 298.862 1.367L298.482 0.379656H286.938C276.95 0.379656 275.355 0.455605 274.9 0.987251C274.482 1.5189 274.406 1.5189 274.102 0.987251C273.684 0.227757 270.456 0.151808 270.191 0.873327Z" fill="#00003E"/>
<path d="M126.074 13.7848C124.061 14.8101 124.251 18.6076 126.34 19.405C127.631 19.8987 129.606 19.5569 130.289 18.7215C130.973 17.924 130.897 14.924 130.213 14.2405C129.416 13.443 127.175 13.2152 126.074 13.7848Z" fill="#00003E"/>
<path d="M78.2266 48.4177V58.481H102.037H125.885L115.822 48.4177L105.758 38.3543H92.0114H78.2266V48.4177Z" fill="#0081FF"/>
<path d="M118.672 41.848C120.57 43.7847 124.975 48.3417 128.545 51.9113L135.001 58.481H186.381C215.127 58.481 237.722 58.3291 237.646 58.1392C237.608 57.9873 233.241 53.4303 228.001 48.0759L218.469 38.3543H166.862H115.254L118.672 41.848Z" fill="#0081FF"/>
<path d="M233.736 40.329C234.761 41.4303 239.204 45.9873 243.609 50.3923L251.584 58.481H274.824H298.103V48.4177V38.3543H264.989H231.875L233.736 40.329Z" fill="#0081FF"/>
<path d="M1.51953 92.6706V74.069H5.27994V82.2708H5.51442L11.9149 74.069H16.4222L9.82196 82.398L16.5004 92.6706H12.0018L7.12975 85.0229L5.27994 87.3844V92.6706H1.51953Z" fill="#00003E"/>
<path d="M22.1149 92.934C21.2638 92.934 20.5054 92.7796 19.8396 92.4708C19.1738 92.1559 18.6469 91.6927 18.259 91.0811C17.8769 90.4635 17.6858 89.6945 17.6858 88.7741C17.6858 87.999 17.8219 87.3481 18.094 86.8213C18.3661 86.2945 18.7366 85.8706 19.2056 85.5497C19.6746 85.2288 20.2072 84.9866 20.8036 84.8231C21.4057 84.6596 22.0368 84.5445 22.6968 84.4779C23.4726 84.3931 24.0979 84.3144 24.5727 84.2418C25.0474 84.163 25.3919 84.048 25.6061 83.8966C25.8203 83.7452 25.9275 83.5212 25.9275 83.2245V83.17C25.9275 82.5948 25.7538 82.1497 25.4064 81.8348C25.0648 81.52 24.5785 81.3625 23.9474 81.3625C23.2816 81.3625 22.7518 81.5169 22.3581 81.8257C21.9644 82.1285 21.7039 82.51 21.5765 82.9702L18.1548 82.6795C18.3285 81.8318 18.6701 81.0991 19.1796 80.4815C19.6891 79.8578 20.3462 79.3794 21.1509 79.0464C21.9615 78.7073 22.8994 78.5378 23.9647 78.5378C24.7058 78.5378 25.4151 78.6286 26.0925 78.8103C26.7756 78.9919 27.3807 79.2735 27.9075 79.655C28.4402 80.0364 28.8599 80.5269 29.1668 81.1264C29.4736 81.7198 29.6271 82.4313 29.6271 83.2608V92.6706H26.1185V90.736H26.0143C25.8001 91.1719 25.5135 91.5564 25.1545 91.8895C24.7956 92.2165 24.3642 92.4738 23.8605 92.6615C23.3568 92.8432 22.775 92.934 22.1149 92.934ZM23.1744 90.2637C23.7187 90.2637 24.1992 90.1516 24.6161 89.9276C25.0329 89.6975 25.3601 89.3887 25.5974 89.0011C25.8348 88.6136 25.9535 88.1746 25.9535 87.6841V86.2036C25.8377 86.2824 25.6785 86.355 25.4759 86.4216C25.279 86.4822 25.0561 86.5397 24.8071 86.5942C24.5582 86.6427 24.3092 86.6881 24.0603 86.7304C23.8113 86.7668 23.5855 86.8001 23.3829 86.8304C22.9487 86.897 22.5694 87.0029 22.2452 87.1483C21.921 87.2936 21.6691 87.4904 21.4896 87.7386C21.3102 87.9808 21.2204 88.2836 21.2204 88.6469C21.2204 89.1737 21.4028 89.5764 21.7676 89.8549C22.1381 90.1274 22.6071 90.2637 23.1744 90.2637Z" fill="#00003E"/>
<path d="M32.4973 92.6706V78.7194H36.0232V81.1809H36.1796C36.4575 80.3634 36.9206 79.7185 37.5691 79.2462C38.2175 78.7739 38.9934 78.5378 39.8965 78.5378C40.8113 78.5378 41.59 78.7769 42.2327 79.2553C42.8753 79.7276 43.3038 80.3695 43.518 81.1809H43.657C43.9291 80.3816 44.4212 79.7428 45.1333 79.2644C45.8512 78.78 46.6994 78.5378 47.6779 78.5378C48.9227 78.5378 49.933 78.9526 50.7088 79.7821C51.4904 80.6056 51.8812 81.7743 51.8812 83.2881V92.6706H48.1903V84.051C48.1903 83.276 47.9934 82.6947 47.5997 82.3071C47.206 81.9196 46.7139 81.7258 46.1234 81.7258C45.4518 81.7258 44.9278 81.9499 44.5515 82.398C44.1751 82.84 43.987 83.4243 43.987 84.1509V92.6706H40.4002V83.9693C40.4002 83.285 40.2121 82.7401 39.8358 82.3344C39.4652 81.9287 38.976 81.7258 38.3681 81.7258C37.957 81.7258 37.5865 81.8348 37.2564 82.0528C36.9322 82.2647 36.6746 82.5645 36.4835 82.952C36.2925 83.3335 36.1969 83.7816 36.1969 84.2963V92.6706H32.4973Z" fill="#00003E"/>
<path d="M54.8036 92.6706V78.7194H58.3903V81.1536H58.5292C58.7724 80.2877 59.1806 79.6338 59.7538 79.1917C60.3269 78.7436 60.987 78.5196 61.7338 78.5196C61.9191 78.5196 62.1189 78.5317 62.3331 78.5559C62.5473 78.5802 62.7355 78.6135 62.8976 78.6558V82.0891C62.7239 82.0346 62.4836 81.9862 62.1768 81.9438C61.8699 81.9014 61.5891 81.8802 61.3344 81.8802C60.7901 81.8802 60.3038 82.0044 59.8753 82.2526C59.4527 82.4948 59.1169 82.8339 58.8679 83.2699C58.6248 83.7059 58.5032 84.2085 58.5032 84.7776V92.6706H54.8036Z" fill="#00003E"/>
<path d="M70.2165 92.9431C68.8675 92.9431 67.7008 92.6433 66.7166 92.0439C65.7381 91.4384 64.9826 90.5967 64.4499 89.5189C63.9173 88.435 63.651 87.1785 63.651 85.7495C63.651 84.3084 63.9173 83.0489 64.4499 81.9711C64.9826 80.8872 65.7381 80.0455 66.7166 79.446C67.7008 78.8405 68.8675 78.5378 70.2165 78.5378C71.5655 78.5378 72.7292 78.8405 73.7077 79.446C74.6919 80.0455 75.4504 80.8872 75.983 81.9711C76.5157 83.0489 76.782 84.3084 76.782 85.7495C76.782 87.1785 76.5157 88.435 75.983 89.5189C75.4504 90.5967 74.6919 91.4384 73.7077 92.0439C72.7292 92.6433 71.5655 92.9431 70.2165 92.9431ZM70.2338 89.9458C70.8475 89.9458 71.3599 89.7641 71.771 89.4008C72.1821 89.0314 72.4918 88.5288 72.7002 87.893C72.9145 87.2573 73.0216 86.5337 73.0216 85.7223C73.0216 84.9109 72.9145 84.1873 72.7002 83.5515C72.4918 82.9157 72.1821 82.4131 71.771 82.0437C71.3599 81.6744 70.8475 81.4897 70.2338 81.4897C69.6143 81.4897 69.0933 81.6744 68.6706 82.0437C68.2538 82.4131 67.9382 82.9157 67.724 83.5515C67.5156 84.1873 67.4114 84.9109 67.4114 85.7223C67.4114 86.5337 67.5156 87.2573 67.724 87.893C67.9382 88.5288 68.2538 89.0314 68.6706 89.4008C69.0933 89.7641 69.6143 89.9458 70.2338 89.9458Z" fill="#00003E"/>
<path d="M82.8872 84.6051V92.6706H79.1876V78.7194H82.7135V81.1809H82.8699C83.1651 80.3695 83.6601 79.7276 84.3549 79.2553C85.0497 78.7769 85.8921 78.5378 86.8821 78.5378C87.8085 78.5378 88.6161 78.7497 89.3051 79.1736C89.9941 79.5974 90.5296 80.2029 90.9117 80.9901C91.2939 81.7712 91.4849 82.7037 91.4849 83.7876V92.6706H87.7853V84.4779C87.7911 83.6241 87.5827 82.9581 87.16 82.4797C86.7374 81.9953 86.1555 81.7531 85.4144 81.7531C84.9165 81.7531 84.4765 81.8651 84.0944 82.0891C83.718 82.3132 83.4228 82.6402 83.2085 83.0701C83.0001 83.4939 82.893 84.0056 82.8872 84.6051Z" fill="#00003E"/>
<path d="M100.13 92.6706V74.069H103.891V89.428H111.516V92.6706H100.13Z" fill="#00003E"/>
<path d="M117.74 92.934C116.889 92.934 116.131 92.7796 115.465 92.4708C114.799 92.1559 114.272 91.6927 113.885 91.0811C113.502 90.4635 113.311 89.6945 113.311 88.7741C113.311 87.999 113.447 87.3481 113.72 86.8213C113.992 86.2945 114.362 85.8706 114.831 85.5497C115.3 85.2288 115.833 84.9866 116.429 84.8231C117.031 84.6596 117.662 84.5445 118.322 84.4779C119.098 84.3931 119.723 84.3144 120.198 84.2418C120.673 84.163 121.017 84.048 121.232 83.8966C121.446 83.7452 121.553 83.5212 121.553 83.2245V83.17C121.553 82.5948 121.379 82.1497 121.032 81.8348C120.69 81.52 120.204 81.3625 119.573 81.3625C118.907 81.3625 118.377 81.5169 117.984 81.8257C117.59 82.1285 117.329 82.51 117.202 82.9702L113.78 82.6795C113.954 81.8318 114.296 81.0991 114.805 80.4815C115.315 79.8578 115.972 79.3794 116.776 79.0464C117.587 78.7073 118.525 78.5378 119.59 78.5378C120.331 78.5378 121.041 78.6286 121.718 78.8103C122.401 78.9919 123.006 79.2735 123.533 79.655C124.066 80.0364 124.485 80.5269 124.792 81.1264C125.099 81.7198 125.253 82.4313 125.253 83.2608V92.6706H121.744V90.736H121.64C121.426 91.1719 121.139 91.5564 120.78 91.8895C120.421 92.2165 119.99 92.4738 119.486 92.6615C118.982 92.8432 118.401 92.934 117.74 92.934ZM118.8 90.2637C119.344 90.2637 119.825 90.1516 120.242 89.9276C120.658 89.6975 120.986 89.3887 121.223 89.0011C121.46 88.6136 121.579 88.1746 121.579 87.6841V86.2036C121.463 86.2824 121.304 86.355 121.101 86.4216C120.905 86.4822 120.682 86.5397 120.433 86.5942C120.184 86.6427 119.935 86.6881 119.686 86.7304C119.437 86.7668 119.211 86.8001 119.008 86.8304C118.574 86.897 118.195 87.0029 117.871 87.1483C117.547 87.2936 117.295 87.4904 117.115 87.7386C116.936 87.9808 116.846 88.2836 116.846 88.6469C116.846 89.1737 117.028 89.5764 117.393 89.8549C117.764 90.1274 118.233 90.2637 118.8 90.2637Z" fill="#00003E"/>
<path d="M128.192 92.6706V74.069H131.892V81.0628H132.005C132.167 80.6874 132.401 80.3059 132.708 79.9184C133.021 79.5248 133.426 79.1978 133.924 78.9374C134.428 78.671 135.053 78.5378 135.8 78.5378C136.773 78.5378 137.67 78.8042 138.492 79.3371C139.314 79.8639 139.971 80.6601 140.464 81.7258C140.956 82.7855 141.202 84.1146 141.202 85.7132C141.202 87.2694 140.962 88.5833 140.481 89.6551C140.006 90.7208 139.358 91.5292 138.536 92.0802C137.719 92.6252 136.805 92.8977 135.791 92.8977C135.073 92.8977 134.463 92.7735 133.959 92.5253C133.461 92.277 133.053 91.9652 132.734 91.5897C132.416 91.2083 132.173 90.8238 132.005 90.4362H131.84V92.6706H128.192ZM131.814 85.695C131.814 86.5246 131.924 87.2482 132.144 87.8658C132.364 88.4834 132.682 88.9648 133.099 89.31C133.516 89.6491 134.023 89.8186 134.619 89.8186C135.221 89.8186 135.731 89.646 136.147 89.3009C136.564 88.9497 136.88 88.4653 137.094 87.8476C137.314 87.2239 137.424 86.5064 137.424 85.695C137.424 84.8897 137.317 84.1812 137.103 83.5696C136.888 82.9581 136.573 82.4797 136.156 82.1346C135.739 81.7894 135.227 81.6168 134.619 81.6168C134.017 81.6168 133.507 81.7834 133.09 82.1164C132.679 82.4494 132.364 82.9217 132.144 83.5333C131.924 84.1449 131.814 84.8654 131.814 85.695Z" fill="#00003E"/>
<path d="M149.697 92.9431C148.348 92.9431 147.182 92.6433 146.198 92.0439C145.219 91.4384 144.464 90.5967 143.931 89.5189C143.398 88.435 143.132 87.1785 143.132 85.7495C143.132 84.3084 143.398 83.0489 143.931 81.9711C144.464 80.8872 145.219 80.0455 146.198 79.446C147.182 78.8405 148.348 78.5378 149.697 78.5378C151.046 78.5378 152.21 78.8405 153.189 79.446C154.173 80.0455 154.931 80.8872 155.464 81.9711C155.997 83.0489 156.263 84.3084 156.263 85.7495C156.263 87.1785 155.997 88.435 155.464 89.5189C154.931 90.5967 154.173 91.4384 153.189 92.0439C152.21 92.6433 151.046 92.9431 149.697 92.9431ZM149.715 89.9458C150.329 89.9458 150.841 89.7641 151.252 89.4008C151.663 89.0314 151.973 88.5288 152.181 87.893C152.395 87.2573 152.503 86.5337 152.503 85.7223C152.503 84.9109 152.395 84.1873 152.181 83.5515C151.973 82.9157 151.663 82.4131 151.252 82.0437C150.841 81.6744 150.329 81.4897 149.715 81.4897C149.095 81.4897 148.574 81.6744 148.152 82.0437C147.735 82.4131 147.419 82.9157 147.205 83.5515C146.997 84.1873 146.892 84.9109 146.892 85.7223C146.892 86.5337 146.997 87.2573 147.205 87.893C147.419 88.5288 147.735 89.0314 148.152 89.4008C148.574 89.7641 149.095 89.9458 149.715 89.9458Z" fill="#00003E"/>
<path d="M158.669 92.6706V78.7194H162.255V81.1536H162.394C162.637 80.2877 163.046 79.6338 163.619 79.1917C164.192 78.7436 164.852 78.5196 165.599 78.5196C165.784 78.5196 165.984 78.5317 166.198 78.5559C166.412 78.5802 166.6 78.6135 166.763 78.6558V82.0891C166.589 82.0346 166.349 81.9862 166.042 81.9438C165.735 81.9014 165.454 81.8802 165.199 81.8802C164.655 81.8802 164.169 82.0044 163.74 82.2526C163.318 82.4948 162.982 82.8339 162.733 83.2699C162.49 83.7059 162.368 84.2085 162.368 84.7776V92.6706H158.669Z" fill="#00003E"/>
<path d="M172.097 92.934C171.246 92.934 170.488 92.7796 169.822 92.4708C169.156 92.1559 168.629 91.6927 168.241 91.0811C167.859 90.4635 167.668 89.6945 167.668 88.7741C167.668 87.999 167.804 87.3481 168.076 86.8213C168.348 86.2945 168.719 85.8706 169.188 85.5497C169.657 85.2288 170.189 84.9866 170.786 84.8231C171.388 84.6596 172.019 84.5445 172.679 84.4779C173.455 84.3931 174.08 84.3144 174.555 84.2418C175.03 84.163 175.374 84.048 175.588 83.8966C175.802 83.7452 175.91 83.5212 175.91 83.2245V83.17C175.91 82.5948 175.736 82.1497 175.389 81.8348C175.047 81.52 174.561 81.3625 173.93 81.3625C173.264 81.3625 172.734 81.5169 172.34 81.8257C171.947 82.1285 171.686 82.51 171.559 82.9702L168.137 82.6795C168.311 81.8318 168.652 81.0991 169.162 80.4815C169.671 79.8578 170.328 79.3794 171.133 79.0464C171.944 78.7073 172.882 78.5378 173.947 78.5378C174.688 78.5378 175.397 78.6286 176.075 78.8103C176.758 78.9919 177.363 79.2735 177.89 79.655C178.422 80.0364 178.842 80.5269 179.149 81.1264C179.456 81.7198 179.609 82.4313 179.609 83.2608V92.6706H176.101V90.736H175.996C175.782 91.1719 175.496 91.5564 175.137 91.8895C174.778 92.2165 174.346 92.4738 173.843 92.6615C173.339 92.8432 172.757 92.934 172.097 92.934ZM173.157 90.2637C173.701 90.2637 174.181 90.1516 174.598 89.9276C175.015 89.6975 175.342 89.3887 175.58 89.0011C175.817 88.6136 175.936 88.1746 175.936 87.6841V86.2036C175.82 86.2824 175.661 86.355 175.458 86.4216C175.261 86.4822 175.038 86.5397 174.789 86.5942C174.54 86.6427 174.291 86.6881 174.042 86.7304C173.793 86.7668 173.568 86.8001 173.365 86.8304C172.931 86.897 172.552 87.0029 172.227 87.1483C171.903 87.2936 171.651 87.4904 171.472 87.7386C171.292 87.9808 171.203 88.2836 171.203 88.6469C171.203 89.1737 171.385 89.5764 171.75 89.8549C172.12 90.1274 172.589 90.2637 173.157 90.2637Z" fill="#00003E"/>
<path d="M189.575 78.7194V81.6259H181.542V78.7194H189.575ZM183.365 75.377H187.065V88.3835C187.065 88.7408 187.117 89.0193 187.221 89.2191C187.325 89.4129 187.47 89.5491 187.655 89.6279C187.846 89.7066 188.066 89.7459 188.315 89.7459C188.489 89.7459 188.663 89.7308 188.837 89.7005C189.01 89.6642 189.143 89.6369 189.236 89.6188L189.818 92.498C189.633 92.5586 189.372 92.6282 189.036 92.7069C188.7 92.7917 188.292 92.8432 187.812 92.8613C186.92 92.8977 186.139 92.7735 185.467 92.4889C184.801 92.2043 184.283 91.7623 183.912 91.1629C183.542 90.5634 183.359 89.8065 183.365 88.8922V75.377Z" fill="#00003E"/>
<path d="M197.868 92.9431C196.519 92.9431 195.353 92.6433 194.369 92.0439C193.39 91.4384 192.635 90.5967 192.102 89.5189C191.569 88.435 191.303 87.1785 191.303 85.7495C191.303 84.3084 191.569 83.0489 192.102 81.9711C192.635 80.8872 193.39 80.0455 194.369 79.446C195.353 78.8405 196.519 78.5378 197.868 78.5378C199.217 78.5378 200.381 78.8405 201.36 79.446C202.344 80.0455 203.102 80.8872 203.635 81.9711C204.168 83.0489 204.434 84.3084 204.434 85.7495C204.434 87.1785 204.168 88.435 203.635 89.5189C203.102 90.5967 202.344 91.4384 201.36 92.0439C200.381 92.6433 199.217 92.9431 197.868 92.9431ZM197.886 89.9458C198.5 89.9458 199.012 89.7641 199.423 89.4008C199.834 89.0314 200.144 88.5288 200.352 87.893C200.566 87.2573 200.674 86.5337 200.674 85.7223C200.674 84.9109 200.566 84.1873 200.352 83.5515C200.144 82.9157 199.834 82.4131 199.423 82.0437C199.012 81.6744 198.5 81.4897 197.886 81.4897C197.266 81.4897 196.745 81.6744 196.323 82.0437C195.906 82.4131 195.59 82.9157 195.376 83.5515C195.168 84.1873 195.063 84.9109 195.063 85.7223C195.063 86.5337 195.168 87.2573 195.376 87.893C195.59 88.5288 195.906 89.0314 196.323 89.4008C196.745 89.7641 197.266 89.9458 197.886 89.9458Z" fill="#00003E"/>
<path d="M206.84 92.6706V78.7194H210.426V81.1536H210.565C210.808 80.2877 211.217 79.6338 211.79 79.1917C212.363 78.7436 213.023 78.5196 213.77 78.5196C213.955 78.5196 214.155 78.5317 214.369 78.5559C214.583 78.5802 214.771 78.6135 214.934 78.6558V82.0891C214.76 82.0346 214.52 81.9862 214.213 81.9438C213.906 81.9014 213.625 81.8802 213.37 81.8802C212.826 81.8802 212.34 82.0044 211.911 82.2526C211.489 82.4948 211.153 82.8339 210.904 83.2699C210.661 83.7059 210.539 84.2085 210.539 84.7776V92.6706H206.84Z" fill="#00003E"/>
<path d="M216.846 92.6706V78.7194H220.546V92.6706H216.846ZM218.705 76.921C218.155 76.921 217.683 76.7303 217.289 76.3488C216.901 75.9613 216.707 75.4981 216.707 74.9591C216.707 74.4263 216.901 73.9691 217.289 73.5876C217.683 73.2001 218.155 73.0063 218.705 73.0063C219.255 73.0063 219.724 73.2001 220.112 73.5876C220.505 73.9691 220.702 74.4263 220.702 74.9591C220.702 75.4981 220.505 75.9613 220.112 76.3488C219.724 76.7303 219.255 76.921 218.705 76.921Z" fill="#00003E"/>
<path d="M229.589 92.9431C228.217 92.9431 227.036 92.6524 226.045 92.0711C225.061 91.4838 224.303 90.6542 223.77 89.5824C223.237 88.5046 222.971 87.23 222.971 85.7586C222.971 84.3235 223.237 83.064 223.77 81.9801C224.303 80.8963 225.053 80.0516 226.019 79.446C226.992 78.8405 228.133 78.5378 229.441 78.5378C230.321 78.5378 231.14 78.6861 231.899 78.9828C232.663 79.2735 233.329 79.7125 233.896 80.2998C234.469 80.8872 234.915 81.6259 235.234 82.516C235.552 83.4001 235.711 84.4355 235.711 85.6223V86.685H224.448V84.2872H232.229C232.229 83.7301 232.113 83.2366 231.881 82.8067C231.65 82.3768 231.329 82.0407 230.917 81.7985C230.512 81.5502 230.04 81.4261 229.502 81.4261C228.94 81.4261 228.442 81.5623 228.008 81.8348C227.58 82.1013 227.244 82.4615 227.001 82.9157C226.758 83.3638 226.633 83.8633 226.627 84.4143V86.6941C226.627 87.3844 226.749 87.9808 226.992 88.4834C227.241 88.986 227.591 89.3735 228.043 89.646C228.495 89.9185 229.03 90.0548 229.65 90.0548C230.061 90.0548 230.437 89.9942 230.779 89.8731C231.12 89.752 231.413 89.5703 231.656 89.3281C231.899 89.0859 232.084 88.7892 232.212 88.438L235.633 88.6742C235.46 89.534 235.103 90.2849 234.565 90.9267C234.032 91.5625 233.343 92.059 232.498 92.4163C231.659 92.7675 230.689 92.9431 229.589 92.9431Z" fill="#00003E"/>
<path d="M249.225 82.6977L245.838 82.9157C245.78 82.6129 245.655 82.3404 245.464 82.0982C245.273 81.85 245.021 81.6532 244.709 81.5078C244.402 81.3565 244.034 81.2808 243.606 81.2808C243.032 81.2808 242.549 81.4079 242.155 81.6623C241.762 81.9105 241.565 82.2436 241.565 82.6614C241.565 82.9944 241.692 83.276 241.947 83.5061C242.202 83.7362 242.639 83.9208 243.258 84.0601L245.673 84.5687C246.969 84.8473 247.936 85.2954 248.573 85.913C249.21 86.5306 249.528 87.342 249.528 88.3472C249.528 89.2615 249.271 90.0638 248.756 90.7541C248.246 91.4444 247.546 91.9833 246.654 92.3709C245.768 92.7523 244.746 92.9431 243.588 92.9431C241.822 92.9431 240.415 92.5586 239.368 91.7896C238.325 91.0145 237.715 89.9609 237.535 88.6288L241.174 88.4289C241.284 88.9921 241.55 89.422 241.973 89.7187C242.396 90.0093 242.937 90.1547 243.597 90.1547C244.245 90.1547 244.766 90.0245 245.16 89.7641C245.56 89.4977 245.762 89.1556 245.768 88.7377C245.762 88.3865 245.62 88.0989 245.343 87.8749C245.065 87.6448 244.636 87.4692 244.057 87.3481L241.747 86.8667C240.444 86.5942 239.475 86.1219 238.838 85.4498C238.207 84.7776 237.891 83.9208 237.891 82.8793C237.891 81.9832 238.123 81.2111 238.586 80.5632C239.055 79.9153 239.712 79.4158 240.557 79.0646C241.408 78.7134 242.404 78.5378 243.545 78.5378C245.23 78.5378 246.555 78.9102 247.522 79.655C248.495 80.3997 249.062 81.414 249.225 82.6977Z" fill="#00003E"/>
<path d="M257.588 92.6706V74.069H261.348V89.428H268.973V92.6706H257.588Z" fill="#00003E"/>
<path d="M277.94 78.7194V81.6259H269.907V78.7194H277.94ZM271.731 75.377H275.43V88.3835C275.43 88.7408 275.482 89.0193 275.586 89.2191C275.691 89.4129 275.835 89.5491 276.021 89.6279C276.212 89.7066 276.432 89.7459 276.681 89.7459C276.854 89.7459 277.028 89.7308 277.202 89.7005C277.375 89.6642 277.509 89.6369 277.601 89.6188L278.183 92.498C277.998 92.5586 277.737 92.6282 277.402 92.7069C277.066 92.7917 276.658 92.8432 276.177 92.8613C275.285 92.8977 274.504 92.7735 273.832 92.4889C273.166 92.2043 272.648 91.7623 272.278 91.1629C271.907 90.5634 271.725 89.8065 271.731 88.8922V75.377Z" fill="#00003E"/>
<path d="M285.122 92.8977C284.109 92.8977 283.191 92.6252 282.369 92.0802C281.553 91.5292 280.904 90.7208 280.424 89.6551C279.949 88.5833 279.712 87.2694 279.712 85.7132C279.712 84.1146 279.958 82.7855 280.45 81.7258C280.942 80.6601 281.596 79.8639 282.413 79.3371C283.235 78.8042 284.135 78.5378 285.113 78.5378C285.86 78.5378 286.483 78.671 286.981 78.9374C287.484 79.1978 287.89 79.5248 288.196 79.9184C288.509 80.3059 288.746 80.6874 288.909 81.0628H289.021V74.069H292.712V92.6706H289.065V90.4362H288.909C288.735 90.8238 288.489 91.2083 288.17 91.5897C287.858 91.9652 287.45 92.277 286.946 92.5253C286.448 92.7735 285.84 92.8977 285.122 92.8977ZM286.295 89.8186C286.891 89.8186 287.395 89.6491 287.806 89.31C288.222 88.9648 288.541 88.4834 288.761 87.8658C288.987 87.2482 289.1 86.5246 289.1 85.695C289.1 84.8654 288.99 84.1449 288.77 83.5333C288.55 82.9217 288.231 82.4494 287.814 82.1164C287.397 81.7834 286.891 81.6168 286.295 81.6168C285.687 81.6168 285.174 81.7894 284.757 82.1346C284.34 82.4797 284.025 82.9581 283.811 83.5696C283.597 84.1812 283.489 84.8897 283.489 85.695C283.489 86.5064 283.597 87.2239 283.811 87.8476C284.031 88.4653 284.346 88.9497 284.757 89.3009C285.174 89.646 285.687 89.8186 286.295 89.8186Z" fill="#00003E"/>
<path d="M297.917 92.9068C297.343 92.9068 296.851 92.6948 296.44 92.271C296.035 91.841 295.832 91.3263 295.832 90.7269C295.832 90.1335 296.035 89.6248 296.44 89.201C296.851 88.7771 297.343 88.5652 297.917 88.5652C298.472 88.5652 298.959 88.7771 299.376 89.201C299.792 89.6248 300.001 90.1335 300.001 90.7269C300.001 91.1265 299.902 91.4929 299.706 91.8259C299.515 92.1529 299.263 92.4163 298.95 92.6161C298.637 92.8099 298.293 92.9068 297.917 92.9068Z" fill="#00003E"/>
</svg>
