<svg width="284" height="100" viewBox="0 0 284 100" fill="none" xmlns="http://www.w3.org/2000/svg">
<path d="M29.1844 0.157104C19.4767 1.57024 13.3941 4.8266 8.97036 10.8478C4.48518 16.869 3.44068 20.3711 3.37924 28.6656C3.37924 34.9326 3.56357 36.1 4.91526 38.8034C8.66315 46.4835 14.5615 49.8013 31.7649 53.8564C51.4874 58.5873 55.7882 60.1848 58.5531 63.8098C62.9154 69.5852 62.301 77.7568 57.2014 82.795C50.1357 89.8607 33.9153 91.4581 22.9174 86.1128C15.7288 82.7335 12.2267 77.5725 11.5509 69.5238L11.3051 67.0661L5.65255 66.8818L0 66.6975V70.2611C0 83.9009 10.5064 96.1276 24.7606 99.0768C27.1568 99.5683 32.3179 99.9984 36.1886 99.9984C55.3582 100.121 68.1378 93.1785 71.9472 80.706C73.0531 77.2039 73.2374 75.3606 72.9917 69.831C72.7459 63.8712 72.5001 62.7653 70.7798 59.2017C67.6463 52.8119 62.3624 48.8182 54.0679 46.4835C51.5488 45.8076 43.5001 43.8415 36.2501 42.1212C18.8623 38.0661 16.036 36.3457 14.9916 29.4029C14.0699 23.1974 17.6335 16.1932 23.2861 13.3669C26.7882 11.5851 32.6865 10.6635 38.2776 11.0321C49.9514 11.7694 57.3243 17.5448 58.676 26.9453L59.106 29.8944H64.9429H70.7798L70.3497 26.0237C68.8751 12.9982 61.2565 4.33508 48.4153 1.32448C44.4831 0.402863 32.5022 -0.334427 29.1844 0.157104Z" fill="#024E95"/>
<path d="M79.0746 5.13383C78.8289 5.31815 78.6445 26.3309 78.6445 51.8288V98.0938H84.4814H90.3183V78.8628C90.3183 67.6191 90.6255 58.0958 90.9941 56.0068C92.2844 49.1254 96.2166 43.5958 101.931 40.8309C105.863 38.8648 115.386 38.8034 118.52 40.6466C124.234 44.0258 124.725 46.6678 124.725 75.1763V98.0938H130.623H136.46L136.276 71.7971C136.03 41.5682 135.969 41.4453 130.869 35.8542C127.183 31.8606 123.619 30.1402 116.676 29.1572C107.337 27.8669 100.149 29.9559 94.0047 35.7928L90.3183 39.2949V22.03V4.70374H84.9115C81.9009 4.70374 79.2589 4.88806 79.0746 5.13383Z" fill="#024E95"/>
<path d="M241.154 28.3585C232.183 29.956 225.917 35.1784 223.643 42.7356C221.493 50.2314 221.308 49.8628 227.33 49.8628H232.491L232.859 48.0196C233.597 44.7017 235.931 41.0153 238.266 39.4178C245.332 34.7483 259.77 36.653 263.273 42.7971C264.747 45.439 264.809 51.2759 263.334 53.5492C262.044 55.5153 259.832 56.0683 245.7 57.7886C232.122 59.4475 228.743 60.6149 224.319 64.9772C220.141 69.2166 219.035 72.1658 219.035 79.6616C219.035 85.1298 219.219 86.4815 220.387 88.5705C221.739 91.151 226.101 95.5133 228.62 96.865C233.228 99.3841 242.506 100.06 249.08 98.3396C253.503 97.2336 257.19 95.2061 261.491 91.5811L264.624 88.9391L265.362 91.3353C266.406 94.8374 268.802 97.3565 271.751 98.1552C274.332 98.8311 281.275 98.6468 282.565 97.848C282.934 97.6023 283.241 95.6362 283.241 93.4243V89.3692L280.906 89.7993C279.124 90.1065 278.203 89.9222 277.158 89.062L275.806 87.9561L275.622 65.223C275.561 48.3882 275.315 41.8755 274.701 40.0322C273.533 36.4687 268.372 31.6149 264.071 30.0174C257.128 27.4369 249.203 26.8839 241.154 28.3585ZM264.194 69.9539C264.194 75.6065 263.948 77.2654 262.904 79.4158C261.306 82.8565 258.173 85.4984 253.135 87.8946C249.571 89.615 248.527 89.7993 243.304 89.7993C238.266 89.7993 237.16 89.615 235.194 88.3862C231.078 85.8056 229.05 78.4942 231.262 74.2548C233.597 69.7696 236.546 68.4793 249.571 66.3903C255.101 65.5302 260.446 64.4242 261.429 63.9942C262.474 63.5641 263.457 63.134 263.764 63.134C264.01 63.0725 264.194 66.1446 264.194 69.9539Z" fill="#024E95"/>
<path d="M146.168 29.0956C146.168 29.4028 146.106 32.2906 146.045 35.5469L145.922 41.5681H151.636H157.288V35.1168V28.6655H151.759C148.748 28.6655 146.229 28.8499 146.168 29.0956Z" fill="#024E95"/>
<path d="M160.668 29.71C160.852 30.3244 164.968 41.7524 169.699 55.0851C174.43 68.4177 179.776 83.4707 181.557 88.5703L184.814 97.7864L190.958 97.9708C196.365 98.0936 197.102 98.0322 197.532 97.0492C198.024 95.7589 203.553 80.8902 211.295 59.6931C214.428 51.2143 218.176 41.0766 219.712 37.0215C221.187 33.0278 222.416 29.5257 222.416 29.2185C222.416 28.9113 219.712 28.6656 216.456 28.6656H210.435L200.911 56.9283C195.689 72.4728 191.265 85.1911 191.081 85.1911C190.896 85.1911 190.098 82.9178 189.237 80.0915C188.439 77.3267 184.568 64.6699 180.636 52.0131L173.509 28.9728L166.873 28.7884C160.668 28.6656 160.237 28.727 160.668 29.71Z" fill="#024E95"/>
<path d="M145.922 73.1487V98.0322L151.636 98.2166L157.288 98.4009V73.333V48.3266H151.636H145.922V73.1487Z" fill="#024E95"/>
</svg>
