<svg width="260" height="100" viewBox="0 0 260 100" fill="none" xmlns="http://www.w3.org/2000/svg">
<path d="M42.4274 0.177505C40.986 0.565559 40.2469 0.935135 33.5575 4.77873C26.9606 8.56689 11.3645 17.5106 4.21317 21.5945L0 24.0152L0.0554365 36.5993L0.110873 49.1833L0.609801 50.6062C1.33048 52.6389 2.51312 54.5052 3.89903 55.8172C4.84145 56.7042 6.31976 57.6282 10.6438 60.1043C13.6928 61.8598 18.6821 64.7056 21.7311 66.461C24.7801 68.2165 30.102 71.2655 33.5575 73.2613C37.0131 75.2385 40.173 77.0125 40.5795 77.1972C40.986 77.382 41.7437 77.5483 42.2611 77.5483C43.4991 77.5483 44.3122 77.0125 44.922 75.7929L45.384 74.8689L45.4394 62.4881L45.4949 50.1073L44.4231 49.479C40.5056 47.2246 26.7019 39.2972 25.7225 38.7613C22.7105 37.0612 21.8604 35.3242 23.0985 33.3655C23.7083 32.3861 23.9301 32.2383 30.5085 28.4871C33.2988 26.8794 38.0849 24.1445 41.1339 22.389C44.1829 20.6336 50.3733 17.0856 54.9006 14.4986C64.2693 9.12125 64.5465 8.95495 64.4726 8.89951C64.4357 8.88103 62.4215 7.71687 59.9823 6.31248C57.5431 4.90808 54.4756 3.1526 53.1636 2.39497C49.5972 0.325333 48.858 0.0851135 45.846 0.0111923C44.2013 -0.0257645 43.0372 0.0296707 42.4274 0.177505Z" fill="#E20015"/>
<path d="M47.3978 22.74C46.6402 23.0727 45.9195 24.0336 45.6608 25.0684C45.5314 25.6412 45.476 29.6142 45.513 37.9666L45.5684 50.0333L50.0033 52.5833C52.4425 53.9877 56.1383 56.1128 58.2264 57.3139C60.3145 58.515 62.8831 59.9933 63.9548 60.6031C65.0266 61.2129 66.2647 61.9706 66.7267 62.3217C67.6321 62.9684 68.3898 64.225 68.3898 65.0565C68.3898 65.8327 67.6876 67.1077 66.9484 67.699C66.5788 67.9947 63.807 69.6393 60.8134 71.3578C57.8199 73.0579 53.736 75.4047 51.7588 76.5319C44.201 80.8744 31.4321 88.192 29.1223 89.504C27.8103 90.2617 26.6461 90.9454 26.5722 91.0193C26.3874 91.2041 40.0248 99.0206 41.5031 99.575C42.464 99.9446 42.9814 100 45.3836 100C47.8598 100 48.2848 99.9446 49.3566 99.5565C50.0218 99.3163 53.0893 97.6532 56.1937 95.8792C59.2982 94.1053 64.9157 90.8899 68.6669 88.7279C72.4366 86.5659 78.9227 82.8517 83.0804 80.4679L90.6567 76.1254L90.7122 63.9478C90.7676 50.1811 90.7676 50.255 89.4002 47.5571C88.2175 45.2288 86.462 43.5472 83.45 41.8287C80.4379 40.1101 72.2333 35.398 66.5419 32.1273C49.3011 22.2226 49.7816 22.4813 48.562 22.4813C48.2478 22.4998 47.7119 22.6107 47.3978 22.74Z" fill="#006096"/>
<path d="M119.024 49.5895C116.215 49.8298 113.683 50.92 112.242 52.4907C110.727 54.1538 110.45 54.9114 110.431 57.4061C110.431 59.2724 110.487 59.6235 110.856 60.3072C112.15 62.7465 114.09 63.7997 119.948 65.2596C124.457 66.3868 125.879 67.3107 125.898 69.1216C125.935 70.563 124.9 71.7272 123.2 72.2261C122.017 72.5587 119.283 72.5033 118.155 72.1152C117.084 71.7641 115.661 70.6184 115.347 69.8423C115.236 69.5651 115.069 68.9553 114.995 68.4934L114.848 67.6618L112.113 67.6064L109.359 67.5509L109.47 68.8629C109.766 72.3924 112.501 75.2751 116.622 76.3838C118.322 76.8458 123.052 76.8458 124.752 76.3653C127.598 75.5892 129.631 74.0185 130.702 71.8565C131.275 70.6923 131.312 70.5076 131.312 68.5858C131.312 66.7379 131.275 66.4607 130.795 65.4998C130.167 64.2248 128.67 62.8019 127.247 62.1182C126.693 61.8595 125.122 61.3421 123.773 60.991C117.213 59.2355 116.548 58.9768 116.012 57.9604C115.365 56.7039 115.975 55.1701 117.416 54.394C118.063 54.0614 118.488 53.9875 120.04 53.9875C121.685 53.9875 121.999 54.0429 122.904 54.4864C124.032 55.0408 124.678 55.8354 124.974 57.018L125.159 57.7757H127.82H130.481V57.055C130.481 56.0202 129.889 54.2832 129.206 53.2668C128.097 51.6592 125.732 50.2732 123.366 49.8482C122.11 49.645 119.985 49.5156 119.024 49.5895Z" fill="#006096"/>
<path d="M167.917 49.9411C165.367 50.5509 163.076 52.2879 162.023 54.4314C161.487 55.5217 161.431 55.7804 161.431 57.3881C161.431 58.9588 161.487 59.2914 161.949 60.1968C162.54 61.4164 163.87 62.7284 165.146 63.3752C166.347 63.9665 168.564 64.6872 170.966 65.2416C174.754 66.1285 176.658 67.1449 176.99 68.4569C177.157 69.1406 176.935 70.2678 176.51 70.8776C175.309 72.5592 171.17 73.0396 168.583 71.8015C167.141 71.0993 166.421 70.1754 166.106 68.6601L165.885 67.5699H163.261C161.801 67.5699 160.581 67.6438 160.507 67.7362C160.304 68.0873 160.803 70.4526 161.339 71.5983C161.986 72.9657 163.39 74.444 164.887 75.294C165.46 75.6266 166.753 76.1071 167.751 76.3658C169.396 76.7908 169.802 76.8278 172.241 76.7539C175.069 76.6615 176.51 76.3658 178.284 75.4788C179.448 74.906 181.314 73.0581 181.813 71.9678C182.442 70.6004 182.7 68.6971 182.423 67.2557C181.776 63.6893 179.707 62.1556 173.535 60.6403C168.287 59.3468 166.883 58.5707 166.883 56.9815C166.883 55.3184 168.342 54.0988 170.56 53.9325C172.075 53.8401 173.904 54.2651 174.791 54.9488C175.457 55.4478 176.103 56.6489 176.122 57.3511C176.122 57.7761 176.14 57.7761 178.912 57.7761H181.721L181.592 56.7598C181.407 55.1152 180.816 53.8032 179.725 52.6205C177.785 50.5509 175.216 49.6269 171.336 49.6639C170.005 49.6639 168.546 49.7933 167.917 49.9411Z" fill="#006096"/>
<path d="M134.785 59.4758C134.859 69.6022 134.84 69.4544 135.986 71.8751C137.076 74.2404 139.515 75.922 142.657 76.5503C144.837 76.9753 148.718 76.8275 150.529 76.2546C152.968 75.497 154.779 74.0741 155.906 72.0784C157.033 70.0827 157.089 69.4544 157.089 59.2911V50.1995H154.317H151.545V58.6443C151.545 67.8652 151.453 68.9 150.603 70.249C149.79 71.5425 148.496 72.0784 146.186 72.0969C143.913 72.0969 142.786 71.7273 141.788 70.6186C141.382 70.1936 140.938 69.5098 140.809 69.1218C140.624 68.5859 140.55 66.0173 140.513 59.2911L140.439 50.1995H137.575H134.711L134.785 59.4758Z" fill="#006096"/>
<path d="M186.285 63.2273V76.2549H189.057H191.829V70.6188V64.9828H197.28H202.731V70.6188V76.2549H205.503H208.275V70.5634C208.293 67.4405 208.33 61.5827 208.386 57.5358L208.497 50.1997H205.614H202.731V55.189V60.1783H197.28H191.829V55.189V50.1997H189.057H186.285V63.2273Z" fill="#006096"/>
<path d="M213.449 63.2273V76.2549H223.428H233.406V73.8526V71.4504H226.292H219.178V68.2166V64.9828H225.553H231.928V62.7653V60.5479H225.553H219.159L219.215 57.7206L219.27 54.9118L226.163 54.8564L233.037 54.8194V52.5096V50.1997H223.243H213.449V63.2273Z" fill="#006096"/>
<path d="M237.473 63.2273V76.2549H240.152H242.832V67.5698C242.832 62.7838 242.887 58.8848 242.979 58.8848C243.072 58.8848 251.535 72.2819 253.549 75.6451L253.919 76.2549H256.783H259.647V63.2273V50.1997H257.06C255.637 50.1997 254.455 50.2552 254.455 50.3291C254.436 50.4215 254.399 54.339 254.381 59.0326C254.344 63.7447 254.288 67.6253 254.251 67.6622C254.214 67.6992 252.939 65.722 251.387 63.2643C249.853 60.8066 247.507 57.0369 246.158 54.9118C244.809 52.7683 243.626 50.8465 243.515 50.6063C243.33 50.2182 243.257 50.1997 240.392 50.1997H237.473V63.2273Z" fill="#006096"/>
<path d="M146.28 83.6278C146.224 83.6648 146.188 86.3627 146.188 89.5965V95.4912L146.89 95.4358L147.573 95.3803L147.629 89.541L147.666 83.6832L147.019 83.6093C146.649 83.5724 146.317 83.5724 146.28 83.6278Z" fill="#E20015"/>
<path d="M156.588 83.6093L155.978 83.6647V85.4387C155.978 87.1757 155.978 87.1941 155.571 87.0648C154.888 86.843 153.428 86.7322 152.726 86.8615C151.34 87.1387 150.194 88.7094 149.954 90.6866C149.824 91.8693 150.231 93.7356 150.804 94.5487C151.635 95.7129 153.594 96.0085 155.035 95.1955C155.996 94.6411 155.978 94.6411 155.978 95.1031C155.978 95.4172 156.107 95.4727 156.717 95.4727H157.456V89.5779C157.456 86.3256 157.401 83.6462 157.327 83.6093C157.234 83.5723 156.902 83.5723 156.588 83.6093ZM155.664 88.3029C155.959 88.4507 155.978 88.7279 155.941 91.0008L155.886 93.5324L155.054 93.9389C153.65 94.6596 152.245 94.3824 151.746 93.3106C151.34 92.4237 151.266 90.5942 151.617 89.6703C151.986 88.7094 152.43 88.2659 153.243 88.0811C153.908 87.9333 155.146 88.0442 155.664 88.3029Z" fill="#E20015"/>
<path d="M121.238 89.7259V95.5098L124.158 95.4359C127.577 95.3619 128.371 95.1032 129.24 93.7728C130.256 92.2021 129.794 90.2433 128.186 89.3563L127.318 88.8759L127.78 88.5617C128.5 88.0998 128.87 87.2313 128.759 86.2888C128.574 84.6073 127.687 84.2007 123.973 84.0529L121.238 83.9605V89.7259ZM126.246 85.4942C127.041 85.716 127.447 86.4551 127.244 87.3052C127.022 88.3215 126.579 88.5432 124.546 88.5987L122.717 88.6726V86.991V85.3095H124.158C124.934 85.3095 125.876 85.4018 126.246 85.4942ZM127.724 90.6314C128.334 91.3151 128.427 92.2021 127.965 93.089C127.54 93.9206 126.726 94.1793 124.564 94.1793H122.717V92.0357V89.8922L124.953 89.9661L127.188 90.0216L127.724 90.6314Z" fill="#E20015"/>
<path d="M141.75 84.7735V85.5127L142.545 85.4573C143.302 85.4018 143.321 85.3833 143.376 84.6996L143.432 84.0159H142.6H141.75V84.7735Z" fill="#E20015"/>
<path d="M160.23 84.7735V85.5127L161.025 85.4573C161.783 85.4018 161.801 85.3833 161.857 84.6996L161.912 84.0159H161.08H160.23V84.7735Z" fill="#E20015"/>
<path d="M190.074 84.2191C190.019 84.367 190 86.9355 190.019 89.9291L190.074 95.3803L190.758 95.4358L191.442 95.4912L191.497 93.4031L191.552 91.315L193.123 91.1856C193.992 91.1302 194.952 90.9824 195.248 90.853C197.207 90.1139 198.094 87.379 196.93 85.6235C196.228 84.5702 195.1 84.1822 192.476 84.0528C190.61 83.9789 190.148 84.0159 190.074 84.2191ZM194.454 85.4942C195.396 85.7529 195.895 86.4551 195.895 87.4714C195.895 89.2269 194.916 89.9845 192.809 89.8921L191.552 89.8367L191.497 87.8225C191.478 86.6953 191.497 85.679 191.534 85.5496C191.663 85.2539 193.456 85.217 194.454 85.4942Z" fill="#E20015"/>
<path d="M215.424 84.4964C215.35 84.5703 215.295 85.1616 215.295 85.8084C215.295 86.9356 215.277 86.9726 214.833 86.9726C214.445 86.9726 214.371 87.065 214.371 87.5269C214.371 87.9889 214.445 88.0813 214.833 88.0813H215.295V90.7053C215.295 92.1651 215.387 93.6619 215.48 94.0315C215.831 95.288 217.124 95.8609 218.788 95.5467C219.564 95.3989 219.638 95.325 219.693 94.8076L219.748 94.2163L218.566 94.3087C216.847 94.4565 216.773 94.3087 216.773 90.8162V88.0813H218.252H219.73V87.5269V86.9726H218.252H216.792L216.736 85.716C216.681 84.4779 216.681 84.4779 216.127 84.4225C215.812 84.3855 215.498 84.4225 215.424 84.4964Z" fill="#E20015"/>
<path d="M167.066 87.2496C166.05 87.8039 165.958 87.8039 165.958 87.342C165.958 87.0463 165.828 86.9724 165.311 86.9724H164.664V91.2225V95.4727H165.311H165.958V92.3682C165.958 88.9312 165.939 89.0235 167.196 88.3768C167.861 88.0442 169.136 87.9887 169.653 88.2659C170.226 88.5801 170.392 89.504 170.392 92.5345V95.4727H171.039H171.686V92.1465C171.686 88.3768 171.538 87.767 170.54 87.1572C169.672 86.6213 168.157 86.6767 167.066 87.2496Z" fill="#E20015"/>
<path d="M176.086 87.1571C174.718 87.8962 174.09 89.2082 174.09 91.3148C174.09 93.0518 174.663 94.2899 175.771 94.8997C176.751 95.4541 178.525 95.3986 179.393 94.7704C179.707 94.5486 180.022 94.3638 180.095 94.3638C180.28 94.3638 180.04 96.1747 179.818 96.5813C179.356 97.4313 177.638 97.727 176.012 97.228C174.811 96.8585 174.829 96.8585 174.829 97.5976C174.829 98.115 174.921 98.2813 175.254 98.4107C176.086 98.7248 177.712 98.8172 178.71 98.5955C179.929 98.3368 180.964 97.4128 181.278 96.3041C181.389 95.8606 181.481 93.8279 181.481 91.2594V86.9538L180.52 86.9723C179.985 86.9723 178.913 86.9353 178.155 86.8799C176.991 86.806 176.658 86.8429 176.086 87.1571ZM179.763 88.2843C180.188 88.4506 180.206 88.4691 180.151 90.7789C180.095 93.0703 180.077 93.1257 179.597 93.4953C179.079 93.8834 177.564 94.1236 176.788 93.9203C175.476 93.5877 174.995 90.4648 176.012 88.9495C176.677 87.9702 178.229 87.693 179.763 88.2843Z" fill="#E20015"/>
<path d="M199.959 86.9354C199.367 87.0463 199.312 87.1202 199.257 87.7854C199.201 88.4507 199.22 88.4876 199.626 88.3768C202.38 87.6007 204.209 87.9887 204.209 89.3561V89.8736L202.601 89.9844C199.829 90.1877 198.48 91.1671 198.48 92.978C198.48 94.5302 199.441 95.5096 201.086 95.6205C202.047 95.6944 202.749 95.4911 204.043 94.7889C204.117 94.752 204.209 94.8813 204.264 95.1031C204.338 95.3802 204.505 95.4726 205.04 95.4726H205.706L205.65 91.9801C205.595 88.7648 205.558 88.4322 205.207 87.9518C205.003 87.6746 204.578 87.305 204.283 87.1572C203.71 86.8615 201.068 86.7322 199.959 86.9354ZM204.209 92.2943V93.5508L203.377 93.9574C202.269 94.4933 200.846 94.5117 200.31 93.9759C200.033 93.6987 199.959 93.4215 199.996 92.8486C200.088 91.6475 201.086 91.0932 203.248 91.0562L204.209 91.0377V92.2943Z" fill="#E20015"/>
<path d="M224.166 87.0833C223.815 87.2312 223.39 87.4899 223.205 87.6562C222.891 87.9334 222.873 87.9149 222.873 87.4714C222.873 87.0094 222.817 86.9725 222.134 86.9725H221.395V91.2226V95.4727H222.134H222.873V92.2574V89.0421L223.557 88.6171C224.499 88.0258 225.959 87.9334 226.569 88.4138C227.031 88.7834 227.031 88.8388 227.123 92.0911L227.215 95.3803L227.918 95.4358L228.601 95.4912V92.2205C228.601 89.2638 228.564 88.8573 228.213 88.1366C227.991 87.6931 227.585 87.2127 227.289 87.0649C226.624 86.7138 224.998 86.7138 224.166 87.0833Z" fill="#E20015"/>
<path d="M233.222 87.0833C231.836 87.6747 231.005 88.9682 230.876 90.7606C230.709 92.7563 231.411 94.2901 232.834 95.0847C233.962 95.7129 235.902 95.8053 237.288 95.3249C238.286 94.9923 238.304 94.9553 238.36 94.1977C238.415 93.4216 238.415 93.4216 237.99 93.6987C237.158 94.2531 235.477 94.5488 234.497 94.3455C233.185 94.0683 232.114 92.7378 232.335 91.6476C232.391 91.3519 232.668 91.315 235.495 91.2595L238.581 91.2226V90.5204C238.581 88.9312 237.787 87.5268 236.604 87.0464C235.809 86.7138 234.035 86.7322 233.222 87.0833ZM236.308 88.266C236.881 88.5986 237.417 89.7628 237.177 90.1508C237.121 90.2247 236.013 90.2986 234.682 90.2986C232.483 90.2986 232.298 90.2802 232.298 89.9475C232.298 89.4671 233.056 88.4138 233.592 88.1366C234.294 87.7855 235.625 87.841 236.308 88.266Z" fill="#E20015"/>
<path d="M248.817 86.991C248.484 87.0834 247.967 87.453 247.653 87.8041C247.172 88.3584 247.08 88.6171 247.08 89.3933C247.08 90.8716 247.782 91.389 250.646 91.9618C253.252 92.4792 252.383 94.826 249.704 94.4749C249.039 94.3825 248.281 94.1054 247.025 93.4771C246.932 93.4401 246.895 93.7727 246.932 94.1977C246.988 94.9923 247.006 95.0108 247.912 95.3434C249.076 95.75 251.312 95.6761 252.217 95.2141C253.03 94.7891 253.548 93.9021 253.548 92.9412C253.548 91.8879 252.919 91.1672 251.755 90.8531C249.187 90.1878 248.928 90.0954 248.632 89.6335C247.671 88.1921 250.369 87.3606 252.513 88.4508L253.196 88.7835L253.141 88.0258C253.086 87.3051 253.03 87.2497 252.346 87.0464C251.478 86.7693 249.63 86.7508 248.817 86.991Z" fill="#E20015"/>
<path d="M131.808 90.3357C131.864 94.1054 132.012 94.6044 133.12 95.3066C133.989 95.8424 135.707 95.7316 136.742 95.0478L137.5 94.5489V95.0109C137.5 95.4359 137.574 95.4729 138.239 95.4729H138.978V91.2227V86.9726H138.239H137.5L137.463 90.2434L137.407 93.4956L136.576 93.9206C136.114 94.1609 135.43 94.3641 135.061 94.3641C133.416 94.3641 133.25 93.9576 133.25 90.0216V86.9726H132.492H131.734L131.808 90.3357Z" fill="#E20015"/>
<path d="M141.938 91.2225V95.4727H142.584H143.231V91.2225V86.9724H142.584H141.938V91.2225Z" fill="#E20015"/>
<path d="M160.414 91.2225V95.4727H161.061H161.708V91.2225V86.9724H161.061H160.414V91.2225Z" fill="#E20015"/>
<path d="M208.461 91.2225V95.4727H209.2H209.939V92.4237V89.3746L210.715 88.8757C211.344 88.4507 211.676 88.3583 212.656 88.3583H213.82V87.6561V86.9724H212.951C212.064 86.9724 210.66 87.4898 210.42 87.8779C210.179 88.2659 209.939 88.0811 209.939 87.5268C209.939 87.0094 209.902 86.9724 209.2 86.9724H208.461V91.2225Z" fill="#E20015"/>
<path d="M240.797 91.2225V95.4727H241.536H242.275V92.3497V89.2083L243.292 88.7094C244.142 88.3029 244.474 88.229 245.232 88.3214L246.156 88.4322V87.7116V86.9724H245.25C244.604 86.9724 244.049 87.1202 243.31 87.5083L242.275 88.0626V87.5083C242.275 87.0094 242.238 86.9724 241.536 86.9724H240.797V91.2225Z" fill="#E20015"/>
</svg>
