<svg width="301" height="53" viewBox="0 0 301 53" fill="none" xmlns="http://www.w3.org/2000/svg">
<path d="M279.772 0.497314H288.858V2.10943L286.806 2.54909L286.513 2.98876L286.367 7.09232V9.29065L294.134 9.43721L293.987 3.72154L293.694 2.54909L291.789 2.25598L291.496 1.96287V0.64387L291.643 0.497314H300.436V2.25598L298.677 2.54909L298.384 2.98876V18.5237L298.677 18.9633L300.436 19.2564V21.0151H291.643L291.496 20.8685V19.403L291.643 19.2564L293.694 18.9633L293.987 17.7909L294.134 11.7821H286.22L286.513 18.5237L286.806 18.9633L288.711 19.2564L288.858 19.403V21.0151H279.625V19.403L279.772 19.2564L281.823 18.9633L281.97 18.6702L282.116 15.446V4.89398L281.97 2.69565L281.384 2.40254L279.772 2.25598L279.625 2.10943V0.64387L279.772 0.497314Z" fill="#D71908"/>
<path d="M164.289 0.497314H173.229L175.574 0.64387L177.919 1.23009L179.677 2.25598L180.557 3.28187L181.143 4.60087L181.29 5.33365V6.79921L180.85 8.26476L179.971 9.43721L178.798 10.17L180.264 11.0493L181.436 12.2218L182.022 13.3942L182.315 14.5667L182.169 16.6184L181.29 18.3771L179.971 19.6961L178.358 20.4289L176.6 20.8685L175.281 21.0151H164.289V19.2564L166.634 18.9633L166.927 18.2305V3.42843L166.634 2.54909L164.436 2.25598L164.289 2.10943V0.497314ZM171.177 2.69565V9.1441H174.548L176.16 8.55787L176.893 7.67854L177.186 6.79921V5.62676L176.746 4.30776L176.16 3.57498L174.988 2.98876L173.669 2.69565H171.177ZM171.177 11.3424V18.5237L171.763 18.8168H173.815L175.867 18.3771L176.746 17.7909L177.479 16.9115L177.772 16.0322V14.2735L177.039 12.808L176.014 12.0752L174.695 11.6355L171.177 11.3424Z" fill="#D71908"/>
<path d="M108.887 0.497314H117.68L119.878 0.64387L122.077 1.23009L123.689 2.10943L124.715 3.13532L125.448 4.74743L125.594 6.50609L125.301 8.11821L124.422 9.58376L122.81 10.7562L121.344 11.3424H120.758L121.637 12.5149L123.689 15.0063L126.327 18.2305L127.206 18.9633L128.818 19.403V21.0151H123.249L121.491 18.8168L119.585 16.3253L117.973 14.2735L116.508 12.3683L116.214 12.0752L115.482 11.9287L115.628 18.3771L115.921 18.9633L117.973 19.2564L118.12 19.403V21.0151H108.887V19.403L109.033 19.2564L110.938 18.9633L111.232 17.9374V3.42843L110.938 2.54909L109.18 2.25598L108.887 2.10943V0.497314ZM115.628 2.69565L115.482 2.8422V9.87687L117.68 9.73032L119.585 9.1441L120.465 8.55787L121.051 7.53198L121.197 6.94576V5.18709L120.758 4.1612L120.025 3.42843L118.559 2.8422L117.387 2.69565H115.628Z" fill="#D61807"/>
<path d="M131.461 0.497314H140.108L142.599 0.64387L144.797 1.08354L146.849 1.81632L148.315 2.69565L149.78 4.01465L150.66 5.04054L151.686 7.09232L152.125 9.1441V12.2218L151.539 14.5667L150.66 16.3253L149.634 17.6443L148.608 18.6702L146.556 19.8427L144.211 20.5754L142.599 20.8685L140.987 21.0151H131.461V19.403L131.607 19.2564L133.806 18.9633V2.8422L133.659 2.54909L131.607 2.25598L131.461 2.10943V0.497314ZM138.349 2.69565L138.056 2.98876V18.5237L138.349 18.8168H140.547L143.039 18.3771L144.358 17.7909L145.677 16.9115L146.703 15.7391L147.436 14.127L147.875 12.0752V9.73032L147.436 7.67854L146.556 5.91987L145.237 4.45432L143.625 3.42843L142.306 2.98876L140.401 2.69565H138.349Z" fill="#D71908"/>
<path d="M43.2325 0.497314H48.9482L50.1206 1.81632L51.7327 3.86809L53.6379 6.21298L55.2501 8.26476L57.1553 10.6097L58.7674 12.6614L59.3536 13.3942V5.33365L59.2071 3.42843L58.7674 2.54909L58.3277 2.40254L56.7156 2.25598L56.5691 2.10943V0.64387L56.7156 0.497314H64.4831L64.6296 0.64387V2.10943L64.4831 2.25598L62.5778 2.54909L62.1382 3.28187L61.9916 4.45432L61.8451 21.1617L61.6985 21.3082H60.5261L58.7674 19.2564L57.1553 17.2047L55.1035 14.7132L53.9311 13.2477L52.0258 10.9028L50.4137 8.85098L48.5085 6.50609V17.2047L48.8016 18.6702L49.0947 18.9633L50.8534 19.2564L51.1465 19.403V20.8685L50.9999 21.0151H43.2325L43.0859 20.8685V19.403L43.2325 19.2564L45.2843 18.9633L45.7239 18.2305L45.8705 13.1011V3.57498L44.9912 2.54909L44.698 2.40254L43.2325 2.25598L43.0859 2.10943V0.64387L43.2325 0.497314Z" fill="#D71908"/>
<path d="M238.736 0.497314H255.297L255.444 1.81632V5.77332H253.685L253.392 4.74743L252.952 3.28187L251.926 2.98876L249.875 2.8422L245.331 2.69565V9.1441L250.021 8.99754L251.34 8.70443L251.78 7.38543L251.926 6.35954H253.685L253.832 14.127L253.245 14.2735H252.22L251.926 13.9804L251.34 11.6355L245.331 11.3424V18.6702H249.875L252.366 18.2305L253.539 17.4978L254.418 16.3253L255.297 14.8598H257.056L256.763 16.4719L255.59 20.722L255.444 21.0151H238.736L238.59 20.8685V19.403L238.736 19.2564L240.788 18.9633L241.081 17.6443V3.72154L240.788 2.54909L238.883 2.25598L238.59 1.81632V0.64387L238.736 0.497314Z" fill="#D71908"/>
<path d="M204.444 0.204163H207.961L210.306 0.790385L212.211 1.81627L213.97 3.42839L215.142 5.0405L215.875 6.79917L216.315 8.41128L216.461 9.58372V12.0752L216.021 14.2735L215.289 16.1787L213.97 18.0839L212.944 19.1098L211.332 20.1357L209.72 20.8685L207.961 21.3082H204.444L202.099 20.5754L200.193 19.5495L198.581 18.0839L197.555 16.6184L196.823 15.0063L196.236 12.8079L196.09 10.1699L196.383 7.97161L197.116 5.77328L198.288 3.86805L199.461 2.54905L201.366 1.23005L203.125 0.497274L204.444 0.204163ZM205.469 2.25594L203.857 2.84216L202.685 3.7215L201.659 5.18705L200.926 7.38539L200.633 8.85094V12.8079L201.219 15.1528L201.952 16.9115L203.125 18.2305L204.883 19.1098L206.935 19.2564L208.401 18.8167L209.72 17.9374L210.599 16.9115L211.185 15.7391L211.771 13.5407L212.064 10.6096L211.771 7.6785L211.039 5.33361L210.013 3.86805L208.987 2.98872L207.668 2.4025L207.082 2.25594H205.469Z" fill="#D71908"/>
<path d="M94.967 0.204163H98.4843L100.683 0.790385L102.441 1.66972L104.347 3.28183L105.666 5.18705L106.545 7.38539L106.838 8.9975V12.6614L106.252 15.0063L105.226 17.0581L103.907 18.6702L102.148 19.9892L100.536 20.7219L98.3377 21.3082H94.967L93.2083 20.8685L90.8634 19.6961L89.1047 18.0839L88.0788 16.7649L87.1995 14.8597L86.6133 12.3683V9.29061L87.0529 7.09228L87.9323 5.0405L89.1047 3.42839L90.2772 2.25594L91.8893 1.23005L93.648 0.497274L94.967 0.204163ZM95.8463 2.25594L94.2342 2.84216L92.7686 4.16116L92.0358 5.33361L91.3031 7.6785L91.0099 9.87683V11.7821L91.3031 13.9804L92.0358 16.1787L93.0617 17.7908L94.3807 18.6702L95.4066 19.1098L97.3118 19.2564L98.924 18.8167L100.096 17.9374L101.269 16.6184L102.002 14.5666L102.441 12.0752V9.29061L102.002 6.79917L101.269 5.0405L100.39 3.7215L98.924 2.69561L97.605 2.25594H95.8463Z" fill="#D71908"/>
<path d="M29.1641 0.204163H32.6815L35.0264 0.790385L36.9316 1.81627L38.3972 3.13527L39.423 4.30772L40.5955 6.65261L41.1817 9.14406V12.5148L40.5955 14.8597L39.423 17.2046L37.8109 18.9633L36.3454 19.9892L34.8798 20.7219L32.6815 21.3082H29.1641L26.8193 20.5754L25.2071 19.6961L23.595 18.3771L22.276 16.6184L21.3967 14.5666L20.957 12.6614V8.9975L21.3967 6.94572L22.5691 4.60083L23.4485 3.42839L24.914 1.96283L26.6727 0.936941L28.4314 0.350718L29.1641 0.204163ZM30.19 2.25594L28.5779 2.84216L27.2589 3.86805L26.3796 5.33361L25.7934 6.79917L25.3537 9.29061V12.3683L25.7934 14.7132L26.5261 16.6184L27.552 17.9374L28.871 18.8167L29.6038 19.1098L30.4831 19.2564H31.6556L33.1211 18.8167L34.2936 18.0839L35.466 16.7649L36.1988 15.0063L36.6385 12.8079L36.785 11.7821V9.58372L36.3454 6.94572L35.6126 5.0405L34.7333 3.86805L33.7074 2.98872L32.3884 2.4025L31.8021 2.25594H30.19Z" fill="#D71908"/>
<path d="M82.9476 0.0576172H84.2666L84.4132 0.204173L84.5598 3.72151V7.82507H83.0942L82.508 6.50606L81.4821 4.45429L80.3096 3.4284L78.8441 2.69562L78.1113 2.54906H76.0595L74.1543 3.13529L72.8353 4.16117L71.8094 5.62673L71.0766 7.53195L70.7835 9.43718V11.7821L71.0766 13.6873L71.6629 15.446L72.5422 16.9115L73.5681 17.7908L75.0336 18.5236L76.3526 18.8167H78.551L80.3096 18.3771L82.0683 17.3512L83.2408 16.3253H83.5339L83.6804 15.8856L84.2666 16.0322L85.146 16.9115L84.8529 17.6443L83.2408 19.2564L81.189 20.4288L79.5769 21.0151L78.2579 21.3082H74.594L72.3956 20.722L70.3439 19.6961L68.5852 18.084L67.4128 16.4718L66.5334 14.2735L66.0938 11.7821V10.0234L66.3869 7.97162L66.9731 6.21295L67.999 4.30773L69.6111 2.54906L71.6629 1.23006L73.4215 0.497284L74.7405 0.204173H78.4044L82.3614 1.08351L82.6545 0.350728L82.9476 0.0576172Z" fill="#D71908"/>
<path d="M17.1448 0.0576172H18.4638L18.757 1.08351L18.9035 5.18706V7.82507H17.2914L16.4121 5.48018L15.3862 4.01462L14.0672 3.13529L13.0413 2.69562L12.3085 2.54906H10.2567L8.79117 2.98873L7.47217 3.86806L6.44628 5.04051L5.7135 6.50606L5.12728 8.85095V12.3683L5.7135 14.8597L6.59284 16.6184L7.61873 17.6443L9.37739 18.5236L10.5498 18.8167H12.8947L14.9465 18.2305L16.5586 17.2046L18.0242 15.8856L18.6104 16.1787L19.4897 16.9115L19.1966 17.4977L17.8776 18.9633L15.8258 20.2823L13.9206 21.0151L12.6016 21.3082H8.93773L7.0325 20.8685L4.68761 19.6961L3.22206 18.3771L2.19617 17.2046L1.02372 14.8597L0.584056 13.1011L0.4375 12.0752V9.73029L0.877167 7.23884L1.7565 5.18706L2.78239 3.72151L4.10139 2.40251L5.7135 1.37662L7.32561 0.64384L9.08428 0.204173H12.7482L15.8258 0.936951H16.5586L17.1448 0.0576172Z" fill="#D71908"/>
<path d="M275.67 0.0576172H276.843L277.136 0.204173L277.429 7.67851L277.282 7.82507H275.817L275.231 6.50606L274.205 4.45429L273.032 3.4284L271.567 2.69562L270.834 2.54906H268.636L266.877 3.13529L265.558 4.16117L264.532 5.62673L263.799 7.53195L263.506 9.29062V11.9286L263.946 14.2735L264.679 16.0322L265.705 17.3512L267.317 18.3771L269.075 18.8167H271.274L273.032 18.3771L274.791 17.3512L276.257 16.0322L276.843 15.8856L277.869 16.9115L277.576 17.6443L275.963 19.2564L273.912 20.4288L272.3 21.0151L270.981 21.3082H267.317L265.118 20.722L263.067 19.6961L261.308 18.084L260.282 16.6184L259.549 15.1528L258.963 12.9545L258.816 10.6096L259.11 7.97162L259.696 6.21295L260.722 4.30773L262.187 2.69562L264.092 1.37662L265.705 0.64384L267.463 0.204173H271.127L274.351 0.936951H275.084L275.67 0.0576172Z" fill="#D71908"/>
<path d="M218.512 0.497314H235.952L236.099 0.64387L236.245 3.86809V6.50609L236.099 6.65265H234.633L234.34 6.21298L233.754 4.1612L233.314 3.42843L232.435 3.13532L229.357 2.8422V16.3253L229.504 18.6702L229.797 18.9633L231.995 19.2564L232.142 19.403V20.8685L231.995 21.0151H222.469L222.322 20.2823L222.469 19.2564L224.814 18.9633L224.96 18.5237L225.107 15.2994V2.98876H223.055L221.443 3.28187L220.857 3.86809L219.977 6.50609L219.831 6.65265H218.365L218.219 6.50609V4.01465L218.365 0.64387L218.512 0.497314Z" fill="#D71908"/>
<path d="M184.365 0.497314H194.038V2.10943L193.891 2.25598L191.986 2.40254L191.4 2.98876V18.5237L191.693 18.9633L194.038 19.2564V21.0151H184.365L184.219 20.8685V19.403L184.365 19.2564L186.71 18.9633L187.003 17.7909V3.72154L186.71 2.54909L186.271 2.40254L184.365 2.25598L184.219 2.10943V0.64387L184.365 0.497314Z" fill="#D71908"/>
<path d="M177.477 34.4982H177.77L177.33 35.9637L175.572 42.4122L174.546 46.8088H177.037L176.891 47.3951L176.598 47.5416L173.52 47.3951L172.494 47.5416L172.934 45.9295L174.546 39.7742L174.839 38.4552L173.08 40.8001L171.029 44.0243L169.123 47.3951L168.684 47.5416L168.097 39.0414L167.951 38.4552L167.218 41.6794L166.339 44.1708L165.313 45.9295L164.58 46.8088L163.261 47.6882L162.382 47.9813H161.063L160.477 47.3951L160.623 46.8088L160.916 46.5157H163.261L164.434 45.6364L165.606 43.5846L166.339 41.3863L167.072 37.8689L167.365 35.9637L165.02 36.4034L163.701 37.1362L162.821 38.1621L162.675 39.4811L163.408 40.8001L163.261 41.3863L162.382 41.5328L161.796 40.8001L161.649 40.3604V38.8948L162.089 37.7224L163.115 36.5499L165.166 35.5241L166.778 35.2309L169.416 35.0844L170.003 43.7312L170.442 43.2915L172.201 40.5069L174.253 37.7224L176.011 35.8172L177.477 34.4982Z" fill="#060606"/>
<path d="M79.5797 34.9379H81.1918L82.9504 35.3775L83.9763 36.2569L84.2694 36.8431V38.3086L83.6832 39.3345L82.6573 40.2139L82.0711 40.3604V40.6535L82.9504 40.8001L83.8298 41.5329L84.2694 42.5588V43.5846L83.6832 45.0502L82.6573 46.2226L80.6056 47.2485L79.8728 47.3951H74.1571L74.4502 46.8089L75.7692 46.3692L76.3554 45.1968L77.3813 41.3863L78.2607 37.7224L77.6744 37.4293V37.1362L78.8469 36.8431L80.3124 36.6965L79.8728 38.4552L79.4331 40.0673V40.507L81.0452 40.2139L82.0711 39.4811L82.6573 38.3086V36.9896L82.3642 36.2569L81.0452 35.8172H79.2866L77.5279 36.2569L76.0623 36.9896L74.5968 38.3086L73.7174 39.7742L73.4243 40.507L73.2778 41.826L73.5709 42.7053L74.8899 44.0243L74.5968 44.7571L74.3037 44.9036L73.2778 44.3174L72.545 42.9984L72.3984 41.5329L72.6915 40.0673L73.5709 38.3086L74.8899 36.8431L76.7951 35.6706L78.7003 35.0844L79.5797 34.9379ZM78.9934 41.2398L77.9676 45.0502L77.3813 46.5158L77.5279 46.6623L79.2866 46.8089L80.7521 46.3692L81.6314 45.6364L82.2177 44.464L82.3642 44.0243V42.5588L81.778 41.6794L80.6056 41.2398H78.9934Z" fill="#070707"/>
<path d="M202.39 33.0327H204.002L204.441 33.4723L204.295 34.0585L203.855 34.4982L201.51 34.3517L200.924 34.6448L200.338 36.2569L199.459 39.9208V40.3604L200.924 39.188L201.95 38.7483H203.269L203.855 39.3345L204.002 39.6277V40.6535L203.416 41.5329L202.536 42.2657L201.51 42.7053L199.898 42.9984L201.364 44.3174L202.536 46.5158L203.562 48.8607L204.588 50.0331L205.174 50.3262H206.493L206.786 50.1797V48.7141L207.519 48.421L208.105 48.8607V49.74L207.519 50.6193L206.347 51.2056H204.881L203.709 50.7659L202.536 49.74L201.364 47.6882L200.045 44.7571L199.165 43.4381L198.726 43.145L197.846 47.102L197.7 47.2485H196.234L196.527 45.6364L198.579 37.1362L199.312 35.3775L200.191 34.2051L201.51 33.3258L202.39 33.0327ZM201.657 39.6277L200.778 40.0673L199.312 41.3863L198.872 41.826L199.019 42.4122H200.191L201.657 41.9725L202.39 41.3863L202.683 40.3604L202.39 39.7742L201.657 39.6277Z" fill="#070707"/>
<path d="M229.65 33.0327H231.115L231.555 33.4723L231.408 34.2051L231.115 34.4982H228.184L227.598 35.8172L225.986 42.4122L225.4 45.0502L225.253 46.2227L226.719 45.4899L227.012 45.1968L227.598 45.3433L226.719 46.3692L225.106 47.3951L224.667 47.5417H223.641L223.494 47.3951L223.641 46.2227L223.934 45.6364L222.322 46.9554L221.149 47.5417H219.977L219.391 46.9554L219.098 45.6364L219.537 43.5847L220.856 41.0932L222.029 39.7742L223.494 38.8949L223.934 38.7483H225.253L225.693 36.9897L226.719 34.9379L227.451 34.2051L228.184 33.6189L229.65 33.0327ZM223.494 39.7742L222.468 40.3604L221.589 41.6794L221.003 43.145L220.71 44.3174V45.3433L221.149 46.0761L221.882 46.2227L223.055 45.4899L223.934 44.464L224.52 42.5588L224.96 40.6535V39.9208L224.667 39.7742H223.494Z" fill="#070707"/>
<path d="M124.279 32.886L125.305 33.0326L125.598 33.3257V34.0585L125.158 34.4982H122.374L121.934 35.0844L120.468 40.9466L121.348 40.3604L122.667 39.3345L123.839 38.7483H124.718L125.158 39.1879V40.3604L123.693 45.6364V46.3692L124.718 45.7829L125.598 45.0502L125.891 45.1967L125.744 45.7829L124.425 46.9554L123.253 47.5416H122.52L122.08 47.1019V45.4898L123.399 40.5069L123.546 40.0673L122.227 40.5069L120.761 41.8259L120.175 42.8518L119.589 45.0502L119.149 47.1019L119.003 47.2485H117.391L119.003 40.6535L119.882 36.9896L120.615 35.2309L121.934 33.7654L123.546 33.0326L124.279 32.886Z" fill="#050505"/>
<path d="M142.159 32.886L143.478 33.0326L143.917 33.4723L143.771 34.205L143.478 34.4982H142.305L140.693 34.3516L139.814 35.0844L139.081 36.9896L138.495 39.3345H141.133L140.986 40.0673L140.84 40.2138H138.348L137.908 41.6794L136.589 46.9554L135.857 49.0072L134.831 50.4727L134.245 51.2055L132.632 52.2314L131.167 52.6711H130.141L129.262 51.9383L129.555 51.2055L129.701 51.0589H132.779L133.658 50.6193L134.245 49.4468L136.589 40.0673L134.391 40.2138L134.245 39.7742L134.391 39.3345H136.883L137.322 37.5758L138.055 35.8172L139.081 34.4982L140.4 33.4723L142.159 32.886Z" fill="#080808"/>
<path d="M212.652 38.7483H213.678L213.824 39.0414L213.385 40.9466L214.557 40.0673L216.023 39.0414L216.609 38.7483H217.635L218.074 39.188V40.2138L216.609 45.4898L216.462 46.3692L217.195 46.0761L218.221 45.1967L218.807 45.3433L218.514 45.9295L217.048 47.102L216.169 47.5416H215.29L214.85 46.6623L214.997 45.3433L216.169 41.0932L216.316 40.0673L215.143 40.507L213.678 41.6794L212.945 43.145L212.066 46.9554L211.919 47.2485H210.307L212.066 39.9207L211.186 40.3604L210.307 41.0932H209.867L210.16 40.3604L211.626 39.188L212.652 38.7483Z" fill="#060606"/>
<path d="M189.64 38.7483H190.812L190.666 39.9207L190.519 40.9466L192.278 39.4811L193.597 38.7483H194.623L195.063 39.188V40.3604L193.744 45.0502L193.45 46.3692L194.476 45.9295L195.356 45.1967H195.795L195.649 45.783L194.33 46.9554L193.304 47.5416H192.425L191.985 47.102V45.6364L193.45 40.0673L192.425 40.3604L191.106 41.3863L190.373 42.2656L189.787 43.8777L189.054 47.102L188.907 47.2485H187.442L187.735 45.6364L188.907 40.8001L189.054 39.9207L188.028 40.507L187.442 41.0932L186.855 40.9466L187.881 39.7742L189.2 38.8948L189.64 38.7483Z" fill="#060606"/>
<path d="M185.832 38.3087H186.125L185.832 39.6277L184.952 42.7053L184.22 46.2227L185.392 45.6364L186.271 45.0502L186.565 45.1968L186.271 45.783L185.099 46.8089L183.633 47.5417H182.608L182.461 46.8089L182.901 45.6364L181.289 46.9554L180.116 47.5417H178.944L178.357 46.8089L178.211 46.5158V44.7571L178.797 42.9984L179.823 41.3863L181.142 39.9208L182.901 39.0414L185.246 38.7483L185.832 38.3087ZM182.461 40.0673L181.582 40.507L180.702 41.5329L179.97 43.145L179.676 44.464L179.823 45.783L180.263 46.2227L181.289 46.0761L182.461 45.0502L183.047 44.1709L184.073 40.507V40.0673H182.461Z" fill="#050505"/>
<path d="M94.0861 38.7483H95.5516L96.4309 39.188L97.1637 40.3604L97.3103 40.9466V42.5587L96.7241 44.464L95.5516 46.0761L94.0861 47.2485L93.2067 47.5416H91.448L90.5687 46.9554L89.9825 46.0761L89.8359 44.1708L90.2756 42.4122L91.1549 40.8001L92.1808 39.6276L93.4998 38.8948L94.0861 38.7483ZM93.9395 39.4811L93.0602 39.9207L92.1808 41.0932L91.7412 42.2656L91.5946 43.145V45.0502L92.1808 46.3692L92.9136 46.8089L93.9395 46.5157L94.8188 45.4898L95.4051 44.0243L95.5516 42.9984V41.5328L95.2585 40.3604L94.6723 39.6276L93.9395 39.4811Z" fill="#050505"/>
<path d="M144.649 38.7483H146.114L147.14 39.3345L147.726 40.3604L147.873 41.0932V42.5587L147.287 44.464L146.114 46.0761L144.649 47.2485L143.769 47.5416H142.011L141.131 46.9554L140.545 46.0761L140.398 45.4898V44.1708L140.838 42.4122L141.717 40.8001L142.743 39.6276L144.062 38.8948L144.649 38.7483ZM144.502 39.4811L143.623 39.9207L142.743 41.0932L142.304 42.2656L142.157 43.145V44.9036L142.45 45.9295L143.036 46.6623L143.769 46.8089L144.649 46.3692L145.381 45.4898L145.968 44.0243L146.114 42.9984V41.5328L145.821 40.3604L145.235 39.6276L144.502 39.4811Z" fill="#060606"/>
<path d="M107.865 38.7483H109.477L110.21 39.4811V40.8001L109.331 41.9725L107.719 42.9984L105.667 44.0243V45.4898L105.813 45.9295L106.839 46.0761L108.305 45.3433L109.184 44.7571L109.624 44.9036L109.331 45.4898L108.158 46.5157L106.546 47.3951L105.96 47.5416H104.788L104.055 46.9554L103.762 46.0761L103.908 44.0243L104.494 42.2656L105.52 40.507L106.4 39.4811L107.865 38.7483ZM107.426 39.6276L106.4 40.8001L105.667 42.9984L106.107 43.145L107.865 41.9725L108.745 40.9466L108.598 39.9207L108.305 39.6276H107.426Z" fill="#070707"/>
<path d="M101.709 36.55H102.002L101.416 39.0414L101.269 39.3345H103.321V40.0673L103.174 40.2139H100.976L100.83 41.3863L99.9502 44.9037V46.0761L100.683 45.9295L102.588 44.7571L103.174 44.9037L102.881 45.4899L100.243 47.2485L99.5105 47.5417H98.6312L98.1915 47.102V45.3433L99.5105 40.0673L99.0709 40.2139H98.045L97.8984 39.7742L98.045 39.3345H99.6571L100.243 37.2828L100.976 36.8431L101.709 36.55Z" fill="#090909"/>
<path d="M154.909 38.1621L155.642 38.3087L155.935 38.8949L155.789 39.3346L153.444 40.507L152.418 41.5329L151.539 43.2916L150.513 47.2486H148.901L149.487 44.7571L150.659 39.9208L149.487 40.6536L148.754 41.2398L148.461 41.0932L148.754 40.3604L150.366 39.188L151.392 38.7483H152.271V39.7742L151.978 41.0932L153.151 39.6277L154.323 38.4552L154.909 38.1621Z" fill="#080808"/>
<path d="M115.045 38.7483H116.511L117.39 39.3345L117.243 40.2138L116.804 40.507L115.924 40.3604L115.045 39.9207L114.019 40.0673L113.286 40.9466L112.7 42.4122L112.407 44.0243V45.0502L112.847 46.0761L113.286 46.3692L114.605 46.0761L116.071 45.1967H116.511L116.364 45.783L115.192 46.6623L113.726 47.3951L113.14 47.5416H111.674L110.942 46.8089L110.648 45.9295L110.795 43.7312L111.821 41.3863L112.847 40.0673L113.873 39.188L115.045 38.7483Z" fill="#070707"/>
<path d="M88.0795 38.6017L89.1054 38.8949L88.9589 40.0673L87.7864 44.3174L87.3468 46.3692L88.3727 45.783L89.1054 45.1967H89.5451L89.3986 45.783L88.0795 46.9554L87.0537 47.5416H86.0278L85.7347 47.102V45.9295L86.7605 41.826L87.3468 39.9207L86.4674 40.3604L85.5881 41.0932L85.1484 40.9466L85.4415 40.2139L86.7605 39.188L88.0795 38.6017Z" fill="#080808"/>
<path d="M208.105 38.6017L208.984 38.8949L208.838 40.2139L207.519 45.0502L207.226 46.3692L208.105 45.9295L208.984 45.1967H209.571L209.277 45.9295L207.812 47.102L206.933 47.5416H206.053L205.614 46.9554L205.76 45.4899L206.933 41.0932L207.372 39.9207L206.2 40.507L205.467 41.0932L205.027 40.9466L205.32 40.3604L206.639 39.188L208.105 38.6017Z" fill="#050505"/>
<path d="M235.955 45.0502L236.981 45.1967L237.421 45.9295L237.274 46.8088L236.688 47.5416H235.809L235.223 46.9554L235.369 45.6364L235.955 45.0502Z" fill="#070707"/>
<path d="M228.92 45.0502L229.946 45.1967L230.386 45.7829L230.239 46.9554L229.653 47.5416H228.774L228.188 46.8088L228.334 45.7829L228.92 45.0502Z" fill="#020202"/>
<path d="M232.436 45.0502L233.462 45.1967L233.901 45.9295L233.755 46.8088L233.169 47.5416H232.289L231.703 46.9554V46.0761L232.289 45.1967L232.436 45.0502Z" fill="#060606"/>
<path d="M209.135 34.3516L209.868 34.4982L210.308 34.9378L210.161 35.6706L209.575 36.2568H208.842L208.402 35.6706L208.549 34.9378L209.135 34.3516Z" fill="#0A0A0A"/>
<path d="M89.2523 34.3516L89.9851 34.4982L90.2782 34.7913L90.1316 35.8172L89.692 36.2568L88.6661 36.1103L88.5195 35.0844L89.2523 34.3516Z" fill="#060606"/>
</svg>
