<svg width="229" height="100" viewBox="0 0 229 100" fill="none" xmlns="http://www.w3.org/2000/svg">
<path d="M43.7258 11.2648C36.8444 18.3502 30.7483 25.7584 26.6798 34.6335C22.1146 44.592 24.0203 53.5257 31.1116 61.553C38.6092 70.0401 48.5509 74.2132 59.1256 77.2231C60.5211 77.6203 61.9404 77.9331 63.3458 78.2963C63.5307 78.3441 63.6982 78.4596 63.9402 78.5757C63.9402 85.5086 63.9402 92.4703 63.9402 99.854C44.4886 82.3084 25.3217 65.0196 5.96881 47.563C13.1865 38.0935 20.3889 28.6439 27.9116 18.7743C18.4622 18.7743 9.49372 18.7743 0 18.7743C5.24592 12.4685 10.1102 6.57948 15.0531 0.757065C15.4629 0.274379 16.4031 0.0346389 17.0981 0.0322995C29.6613 -0.0100768 42.2247 0.00142343 53.3554 0.00142343C50.5995 3.23131 47.2351 7.17425 43.7258 11.2648Z" fill="#E44004"/>
<path d="M36.9532 33.2278C27.2138 48.0189 39.3457 62.862 53.3884 65.5237C56.8106 66.1724 60.2756 66.5956 63.9069 67.151C63.9069 68.5335 63.9069 70.0223 63.9069 71.6974C54.8943 70.7814 46.3773 68.9 38.8013 63.9276C29.6592 57.9273 25.255 46.7473 30.4855 35.6902C35.6233 24.8295 43.401 16.1338 52.0057 8.03382C54.1741 5.99262 56.4309 4.0454 58.9704 1.76465C59.6734 5.58673 58.9463 8.0878 56.3668 10.4866C49.0894 17.2546 42.1619 24.3818 36.9532 33.2278Z" fill="#0C0C0C"/>
<path d="M70.6519 63.3839C74.3638 59.2974 74.6544 54.2989 75.3776 49.2827C77.7234 49.2827 80.1299 49.2827 82.917 49.2827C80.911 56.4103 76.8632 61.6385 69.9727 65.1998C70.229 64.4276 70.3742 63.9904 70.6519 63.3839Z" fill="#0B0B0B"/>
<path d="M75.9327 46.9198C75.5573 46.7532 75.3013 46.6282 75.2998 46.5003C75.2751 44.3655 75.2822 42.2303 75.2822 39.8618C77.8748 39.8618 80.3304 39.8618 82.8989 39.8618C82.8989 42.2141 82.8989 44.4194 82.8989 46.9599C80.5553 46.9599 78.3629 46.9599 75.9327 46.9198Z" fill="#0B0B0B"/>
<path d="M91.207 43.4662V42.6533L98.9187 29.5851H97.168C96.4315 29.5851 95.7993 29.6755 95.2713 29.8561C94.7572 30.0367 94.3195 30.3146 93.9582 30.6898C93.597 31.0511 93.2913 31.5165 93.0412 32.0862C92.7911 32.6559 92.5687 33.3229 92.3742 34.0871H91.5405C91.6517 33.1978 91.735 32.3085 91.7906 31.4193C91.8462 30.5161 91.8809 29.6129 91.8948 28.7098C92.3395 28.7237 92.8327 28.7376 93.3746 28.7514C93.9165 28.7653 94.4515 28.7723 94.9795 28.7723C95.5214 28.7723 96.0147 28.7723 96.4593 28.7723C97.4875 28.7723 98.5783 28.7723 99.7316 28.7723C100.885 28.7584 101.962 28.7376 102.962 28.7098V29.5226L95.2505 42.5908H96.4802C97.3 42.5908 98.0155 42.5005 98.6269 42.3198C99.2522 42.1253 99.7941 41.8335 100.253 41.4445C100.711 41.0415 101.114 40.5482 101.461 39.9647C101.809 39.3672 102.115 38.6655 102.379 37.8596H103.212C103.115 38.8322 103.039 39.791 102.983 40.7358C102.941 41.6668 102.927 42.5769 102.941 43.4662C102.399 43.4384 101.795 43.4245 101.128 43.4245C100.461 43.4106 99.7941 43.4036 99.1271 43.4036C98.4741 43.4036 97.8766 43.4036 97.3347 43.4036C96.362 43.4036 95.3338 43.4106 94.25 43.4245C93.1662 43.4245 92.1519 43.4384 91.207 43.4662Z" fill="#E44004"/>
<path d="M112.075 43.758C110.616 43.758 109.344 43.4523 108.261 42.8409C107.177 42.2156 106.336 41.3402 105.739 40.2148C105.155 39.0754 104.863 37.7415 104.863 36.213C104.863 34.6568 105.162 33.2951 105.76 32.1279C106.371 30.9607 107.218 30.0506 108.302 29.3976C109.386 28.7445 110.644 28.418 112.075 28.418C112.797 28.418 113.409 28.4874 113.909 28.6264C114.423 28.7514 114.854 28.9112 115.201 29.1058C115.548 29.2864 115.847 29.4462 116.097 29.5851C116.347 29.7102 116.584 29.7727 116.806 29.7727C117.014 29.7727 117.181 29.6755 117.306 29.4809C117.431 29.2864 117.522 28.9668 117.577 28.5222H118.411C118.383 29.0085 118.362 29.5087 118.348 30.0228C118.334 30.523 118.327 31.1066 118.327 31.7736C118.327 32.4267 118.327 33.2465 118.327 34.233H117.473C117.334 33.2187 117.063 32.3572 116.66 31.6485C116.271 30.926 115.771 30.3841 115.159 30.0228C114.548 29.6477 113.853 29.4601 113.075 29.4601C111.658 29.4601 110.56 30.0367 109.782 31.19C109.004 32.3294 108.615 33.9551 108.615 36.0671C108.615 38.1792 109.004 39.8257 109.782 41.0068C110.574 42.1739 111.686 42.7575 113.117 42.7575C113.895 42.7575 114.59 42.5699 115.201 42.1948C115.812 41.8196 116.313 41.2708 116.702 40.5482C117.091 39.8257 117.355 38.9573 117.494 37.9429H118.327C118.327 38.8878 118.327 39.6937 118.327 40.3607C118.341 41.0276 118.348 41.6181 118.348 42.1323C118.362 42.6464 118.383 43.1535 118.411 43.6538H117.577C117.522 43.1952 117.431 42.8756 117.306 42.695C117.195 42.5144 117.028 42.4241 116.806 42.4241C116.57 42.4241 116.327 42.4935 116.076 42.6325C115.84 42.7575 115.548 42.9104 115.201 43.091C114.868 43.2716 114.444 43.4245 113.93 43.5495C113.43 43.6885 112.811 43.758 112.075 43.758Z" fill="#E44004"/>
<path d="M120.24 43.4662V42.6533C120.88 42.6255 121.345 42.5699 121.637 42.4866C121.942 42.3893 122.137 42.2156 122.22 41.9655C122.318 41.7154 122.366 41.3472 122.366 40.8609V31.3151C122.366 30.8009 122.318 30.4258 122.22 30.1896C122.123 29.9395 121.922 29.7727 121.616 29.6894C121.324 29.5921 120.866 29.5365 120.24 29.5226V28.7098C120.796 28.7237 121.414 28.7376 122.095 28.7514C122.776 28.7653 123.492 28.7723 124.242 28.7723C125.229 28.7723 126.083 28.7653 126.806 28.7514C127.542 28.7376 128.14 28.7237 128.598 28.7098V29.5226C127.834 29.5365 127.264 29.5921 126.889 29.6894C126.514 29.7866 126.264 29.9603 126.139 30.2104C126.014 30.4466 125.951 30.8148 125.951 31.3151V41.1735C125.951 41.5626 125.979 41.8613 126.035 42.0697C126.104 42.2782 126.236 42.4171 126.431 42.4866C126.625 42.5561 126.931 42.5908 127.348 42.5908H127.764C128.348 42.5908 128.883 42.4935 129.369 42.299C129.856 42.1045 130.293 41.8057 130.682 41.4028C131.071 40.9998 131.419 40.5066 131.725 39.923C132.044 39.3255 132.336 38.6377 132.6 37.8596H133.434C133.336 38.8461 133.26 39.8049 133.204 40.7358C133.163 41.6668 133.149 42.5769 133.163 43.4662C132.565 43.4384 131.843 43.4245 130.995 43.4245C130.147 43.4106 129.098 43.4036 127.848 43.4036C126.167 43.4036 124.68 43.4106 123.388 43.4245C122.109 43.4245 121.06 43.4384 120.24 43.4662Z" fill="#E44004"/>
<path d="M98.7103 71.952C97.2513 71.952 95.9799 71.6463 94.8961 71.035C93.8123 70.4097 92.9717 69.5343 92.3742 68.4088C91.7906 67.2694 91.4988 65.9355 91.4988 64.4071C91.4988 62.8509 91.7976 61.4892 92.395 60.322C93.0064 59.1548 93.854 58.2447 94.9378 57.5916C96.0216 56.9386 97.2791 56.612 98.7103 56.612C99.4328 56.612 100.044 56.6815 100.544 56.8205C101.059 56.9455 101.489 57.1053 101.837 57.2998C102.184 57.4805 102.483 57.6403 102.733 57.7792C102.983 57.9043 103.219 57.9668 103.442 57.9668C103.65 57.9668 103.817 57.8695 103.942 57.675C104.067 57.4805 104.157 57.1609 104.213 56.7162H105.046C105.019 57.2026 104.998 57.7028 104.984 58.2169C104.97 58.7171 104.963 59.3007 104.963 59.9677C104.963 60.6207 104.963 61.4405 104.963 62.4271H104.108C103.97 61.4127 103.699 60.5512 103.296 59.8426C102.907 59.1201 102.406 58.5782 101.795 58.2169C101.184 57.8417 100.489 57.6542 99.7107 57.6542C98.2934 57.6542 97.1957 58.2308 96.4176 59.3841C95.6395 60.5235 95.2505 62.1492 95.2505 64.2612C95.2505 66.3732 95.6395 68.0198 96.4176 69.2008C97.2096 70.368 98.3212 70.9516 99.7524 70.9516C100.531 70.9516 101.225 70.764 101.837 70.3889C102.448 70.0137 102.948 69.4648 103.337 68.7423C103.726 68.0198 103.99 67.1513 104.129 66.137H104.963C104.963 67.0819 104.963 67.8878 104.963 68.5547C104.977 69.2217 104.984 69.8122 104.984 70.3263C104.998 70.8404 105.019 71.3476 105.046 71.8478H104.213C104.157 71.3893 104.067 71.0697 103.942 70.8891C103.831 70.7084 103.664 70.6181 103.442 70.6181C103.205 70.6181 102.962 70.6876 102.712 70.8265C102.476 70.9516 102.184 71.1044 101.837 71.2851C101.503 71.4657 101.079 71.6186 100.565 71.7436C100.065 71.8826 99.4467 71.952 98.7103 71.952Z" fill="#E44004"/>
<path d="M116.484 71.6602V70.8474C117.054 70.8196 117.471 70.764 117.735 70.6806C118.013 70.5973 118.2 70.4305 118.298 70.1804C118.395 69.9303 118.443 69.5552 118.443 69.0549V59.5091C118.443 58.995 118.395 58.6199 118.298 58.3836C118.214 58.1474 118.034 57.9807 117.756 57.8834C117.478 57.7862 117.054 57.7306 116.484 57.7167V56.9038C116.887 56.9177 117.415 56.9316 118.068 56.9455C118.735 56.9594 119.472 56.9664 120.278 56.9664C121.153 56.9664 121.924 56.9594 122.591 56.9455C123.258 56.9316 123.779 56.9177 124.154 56.9038V57.7167C123.529 57.7306 123.063 57.7862 122.758 57.8834C122.466 57.9668 122.271 58.1335 122.174 58.3836C122.077 58.6199 122.028 58.995 122.028 59.5091V69.0549C122.028 69.5552 122.077 69.9303 122.174 70.1804C122.271 70.4166 122.466 70.5834 122.758 70.6806C123.063 70.764 123.529 70.8196 124.154 70.8474V71.6602C123.779 71.6324 123.258 71.6186 122.591 71.6186C121.924 71.6047 121.153 71.5977 120.278 71.5977C119.472 71.5977 118.735 71.6047 118.068 71.6186C117.415 71.6186 116.887 71.6324 116.484 71.6602ZM106.876 71.6602V70.8474C107.501 70.8196 107.96 70.764 108.251 70.6806C108.557 70.5973 108.759 70.4305 108.856 70.1804C108.953 69.9303 109.002 69.5552 109.002 69.0549V59.5091C109.002 58.995 108.953 58.6199 108.856 58.3836C108.759 58.1474 108.557 57.9807 108.251 57.8834C107.96 57.7862 107.501 57.7306 106.876 57.7167V56.9038C107.265 56.9177 107.807 56.9316 108.502 56.9455C109.196 56.9594 109.988 56.9664 110.878 56.9664C111.656 56.9664 112.364 56.9594 113.004 56.9455C113.643 56.9316 114.15 56.9177 114.525 56.9038V57.7167C113.969 57.7306 113.552 57.7862 113.274 57.8834C112.997 57.9668 112.809 58.1335 112.712 58.3836C112.628 58.6199 112.587 58.995 112.587 59.5091V69.0549C112.587 69.5552 112.628 69.9303 112.712 70.1804C112.809 70.4166 112.997 70.5834 113.274 70.6806C113.552 70.764 113.969 70.8196 114.525 70.8474V71.6602C114.15 71.6324 113.636 71.6186 112.983 71.6186C112.33 71.6047 111.607 71.5977 110.815 71.5977C109.926 71.5977 109.141 71.6047 108.46 71.6186C107.793 71.6186 107.265 71.6324 106.876 71.6602ZM111.128 64.6572V63.8443H119.902V64.6572H111.128Z" fill="#E44004"/>
<path d="M125.313 71.6602V70.8474C125.939 70.8196 126.397 70.764 126.689 70.6806C126.995 70.5973 127.196 70.4305 127.293 70.1804C127.391 69.9303 127.439 69.5552 127.439 69.0549V59.5091C127.439 59.0089 127.391 58.6407 127.293 58.4045C127.196 58.1544 126.995 57.9807 126.689 57.8834C126.397 57.7862 125.939 57.7306 125.313 57.7167V56.9038C126.064 56.9177 127.05 56.9316 128.273 56.9455C129.496 56.9594 130.92 56.9664 132.546 56.9664C133.199 56.9664 133.81 56.9664 134.38 56.9664C134.949 56.9525 135.477 56.9455 135.964 56.9455C136.45 56.9316 136.888 56.9177 137.277 56.9038C137.277 57.7097 137.305 58.5087 137.36 59.3007C137.416 60.0788 137.499 60.85 137.61 61.6142H136.777C136.582 60.711 136.318 59.9816 135.985 59.4258C135.665 58.8561 135.269 58.4392 134.797 58.1752C134.338 57.9112 133.782 57.7792 133.129 57.7792H131.024V69.3676C131.024 69.7705 131.059 70.0762 131.128 70.2846C131.198 70.4931 131.33 70.632 131.524 70.7015C131.733 70.7571 132.032 70.7849 132.421 70.7849H132.837C133.588 70.7849 134.262 70.6181 134.859 70.2846C135.457 69.9512 135.985 69.437 136.443 68.7423C136.902 68.0337 137.312 67.1374 137.673 66.0536H138.507C138.409 67.0819 138.333 68.0615 138.277 68.9924C138.236 69.9095 138.222 70.7988 138.236 71.6602C137.541 71.6324 136.721 71.6186 135.776 71.6186C134.831 71.6047 133.713 71.5977 132.421 71.5977C130.823 71.5977 129.426 71.6047 128.231 71.6186C127.036 71.6186 126.064 71.6324 125.313 71.6602ZM130.357 64.6364V63.8443H134.192V64.6364H130.357ZM134.505 67.3667C134.435 66.7414 134.296 66.2273 134.088 65.8244C133.893 65.4214 133.623 65.1227 133.275 64.9281C132.942 64.7336 132.525 64.6364 132.025 64.6364V63.8443C132.692 63.8443 133.227 63.6151 133.629 63.1565C134.046 62.6841 134.317 62.0033 134.442 61.114H135.234C135.179 61.9338 135.151 62.566 135.151 63.0106C135.165 63.4553 135.172 63.8652 135.172 64.2403C135.172 64.5182 135.172 64.8031 135.172 65.0949C135.186 65.3728 135.2 65.6924 135.213 66.0536C135.241 66.4149 135.269 66.8526 135.297 67.3667H134.505Z" fill="#E44004"/>
<path d="M148.565 71.8061L143.271 58.467H143V68.2212C143 68.8882 143.049 69.4093 143.146 69.7844C143.257 70.1457 143.487 70.4027 143.834 70.5556C144.195 70.7084 144.737 70.8057 145.46 70.8474V71.6602C145.168 71.6324 144.765 71.6186 144.251 71.6186C143.737 71.6047 143.195 71.5977 142.625 71.5977C142.097 71.5977 141.604 71.6047 141.145 71.6186C140.687 71.6186 140.319 71.6324 140.041 71.6602V70.8474C140.638 70.8057 141.09 70.7084 141.395 70.5556C141.701 70.4027 141.903 70.1526 142 69.8053C142.111 69.4579 142.167 68.9785 142.167 68.3671V59.5091C142.167 58.995 142.118 58.6199 142.021 58.3836C141.923 58.1474 141.722 57.9807 141.416 57.8834C141.125 57.7862 140.666 57.7306 140.041 57.7167V56.9038C140.346 56.9177 140.749 56.9316 141.25 56.9455C141.764 56.9594 142.319 56.9664 142.917 56.9664C143.612 56.9664 144.265 56.9594 144.876 56.9455C145.488 56.9316 146.036 56.9177 146.523 56.9038L150.587 67.3042L149.899 67.7836L153.713 56.9038C154.255 56.9316 154.755 56.9525 155.214 56.9664C155.673 56.9664 156.145 56.9664 156.631 56.9664C157.326 56.9664 157.986 56.9594 158.611 56.9455C159.25 56.9316 159.758 56.9177 160.133 56.9038V57.7167C159.507 57.7306 159.042 57.7862 158.736 57.8834C158.445 57.9668 158.25 58.1335 158.153 58.3836C158.055 58.6199 158.007 58.995 158.007 59.5091V69.0549C158.007 69.5552 158.055 69.9303 158.153 70.1804C158.25 70.4166 158.451 70.5834 158.757 70.6806C159.063 70.764 159.521 70.8196 160.133 70.8474V71.6602C159.702 71.6324 159.146 71.6186 158.465 71.6186C157.785 71.6047 157.041 71.5977 156.235 71.5977C155.388 71.5977 154.623 71.6047 153.943 71.6186C153.262 71.6186 152.727 71.6324 152.338 71.6602V70.8474C152.935 70.8196 153.38 70.764 153.672 70.6806C153.977 70.5834 154.179 70.4166 154.276 70.1804C154.373 69.9303 154.422 69.5552 154.422 69.0549V58.1335H154.13L149.316 71.8061H148.565Z" fill="#E44004"/>
<path d="M161.28 71.6602V70.8474C161.905 70.8196 162.363 70.764 162.655 70.6806C162.961 70.5973 163.162 70.4305 163.26 70.1804C163.357 69.9303 163.406 69.5552 163.406 69.0549V59.5091C163.406 58.995 163.357 58.6199 163.26 58.3836C163.162 58.1335 162.961 57.9668 162.655 57.8834C162.363 57.7862 161.905 57.7306 161.28 57.7167V56.9038C161.669 56.9177 162.204 56.9316 162.885 56.9455C163.579 56.9594 164.378 56.9664 165.281 56.9664C166.115 56.9664 166.865 56.9594 167.532 56.9455C168.199 56.9316 168.727 56.9177 169.116 56.9038V57.7167C168.491 57.7306 168.026 57.7862 167.72 57.8834C167.428 57.9668 167.234 58.1335 167.136 58.3836C167.039 58.6199 166.991 58.995 166.991 59.5091V69.0549C166.991 69.5552 167.039 69.9303 167.136 70.1804C167.234 70.4166 167.435 70.5834 167.741 70.6806C168.047 70.764 168.505 70.8196 169.116 70.8474V71.6602C168.727 71.6324 168.199 71.6186 167.532 71.6186C166.865 71.6047 166.115 71.5977 165.281 71.5977C164.378 71.5977 163.579 71.6047 162.885 71.6186C162.204 71.6186 161.669 71.6324 161.28 71.6602Z" fill="#E44004"/>
<path d="M177.597 71.952C176.138 71.952 174.866 71.6463 173.783 71.035C172.699 70.4097 171.858 69.5343 171.261 68.4088C170.677 67.2694 170.385 65.9355 170.385 64.4071C170.385 62.8509 170.684 61.4892 171.282 60.322C171.893 59.1548 172.74 58.2447 173.824 57.5916C174.908 56.9386 176.166 56.612 177.597 56.612C178.319 56.612 178.931 56.6815 179.431 56.8205C179.945 56.9455 180.376 57.1053 180.723 57.2998C181.071 57.4805 181.369 57.6403 181.619 57.7792C181.869 57.9043 182.106 57.9668 182.328 57.9668C182.536 57.9668 182.703 57.8695 182.828 57.675C182.953 57.4805 183.044 57.1609 183.099 56.7162H183.933C183.905 57.2026 183.884 57.7028 183.87 58.2169C183.856 58.7171 183.849 59.3007 183.849 59.9677C183.849 60.6207 183.849 61.4405 183.849 62.4271H182.995C182.856 61.4127 182.585 60.5512 182.182 59.8426C181.793 59.1201 181.293 58.5782 180.681 58.2169C180.07 57.8417 179.375 57.6542 178.597 57.6542C177.18 57.6542 176.082 58.2308 175.304 59.3841C174.526 60.5235 174.137 62.1492 174.137 64.2612C174.137 66.3732 174.526 68.0198 175.304 69.2008C176.096 70.368 177.208 70.9516 178.639 70.9516C179.417 70.9516 180.112 70.764 180.723 70.3889C181.335 70.0137 181.835 69.4648 182.224 68.7423C182.613 68.0198 182.877 67.1513 183.016 66.137H183.849C183.849 67.0819 183.849 67.8878 183.849 68.5547C183.863 69.2217 183.87 69.8122 183.87 70.3263C183.884 70.8404 183.905 71.3476 183.933 71.8478H183.099C183.044 71.3893 182.953 71.0697 182.828 70.8891C182.717 70.7084 182.55 70.6181 182.328 70.6181C182.092 70.6181 181.849 70.6876 181.599 70.8265C181.362 70.9516 181.071 71.1044 180.723 71.2851C180.39 71.4657 179.966 71.6186 179.452 71.7436C178.952 71.8826 178.333 71.952 177.597 71.952Z" fill="#E44004"/>
<path d="M184.714 71.6602V70.8474C185.186 70.764 185.589 70.6181 185.922 70.4097C186.27 70.2013 186.589 69.8886 186.881 69.4718C187.173 69.041 187.472 68.4852 187.777 67.8044L192.655 56.7579H193.405L199.241 68.9716C199.56 69.6385 199.901 70.111 200.262 70.3889C200.637 70.6668 201.13 70.8196 201.742 70.8474V71.6602C201.269 71.6324 200.686 71.6186 199.991 71.6186C199.296 71.6047 198.497 71.5977 197.594 71.5977C196.594 71.5977 195.739 71.6047 195.031 71.6186C194.322 71.6186 193.78 71.6324 193.405 71.6602V70.8474C194.1 70.8335 194.614 70.764 194.947 70.639C195.295 70.5 195.489 70.2916 195.531 70.0137C195.572 69.7358 195.482 69.3676 195.26 68.909L191.341 60.6346L191.883 60.4262L189.028 66.9707C188.653 67.8044 188.458 68.5061 188.444 69.0758C188.444 69.6455 188.625 70.0762 188.986 70.368C189.361 70.6598 189.938 70.8196 190.716 70.8474V71.6602C190.188 71.6463 189.723 71.6394 189.32 71.6394C188.917 71.6255 188.549 71.6186 188.215 71.6186C187.896 71.6047 187.562 71.5977 187.215 71.5977C186.742 71.5977 186.305 71.6047 185.902 71.6186C185.499 71.6186 185.103 71.6324 184.714 71.6602ZM188.507 67.0958L188.861 66.2829H195.239L195.614 67.0958H188.507Z" fill="#E44004"/>
<path d="M201.954 71.6602V70.8474C202.593 70.8196 203.058 70.764 203.35 70.6806C203.656 70.5834 203.85 70.4097 203.934 70.1596C204.031 69.9095 204.079 69.5413 204.079 69.0549V59.5091C204.079 58.995 204.031 58.6199 203.934 58.3836C203.836 58.1335 203.635 57.9668 203.329 57.8834C203.037 57.7862 202.579 57.7306 201.954 57.7167V56.9038C202.509 56.9177 203.128 56.9316 203.809 56.9455C204.489 56.9594 205.205 56.9664 205.955 56.9664C206.942 56.9664 207.796 56.9594 208.519 56.9455C209.255 56.9316 209.853 56.9177 210.311 56.9038V57.7167C209.547 57.7306 208.977 57.7862 208.602 57.8834C208.227 57.9807 207.977 58.1544 207.852 58.4045C207.727 58.6407 207.664 59.0089 207.664 59.5091V69.3676C207.664 69.7566 207.692 70.0554 207.748 70.2638C207.817 70.4722 207.949 70.6112 208.144 70.6806C208.338 70.7501 208.644 70.7849 209.061 70.7849H209.478C210.061 70.7849 210.596 70.6876 211.083 70.4931C211.569 70.2985 212.007 69.9998 212.396 69.5968C212.785 69.1939 213.132 68.7006 213.438 68.117C213.757 67.5196 214.049 66.8318 214.313 66.0536H215.147C215.05 67.0402 214.973 67.9989 214.918 68.9299C214.876 69.8608 214.862 70.771 214.876 71.6602C214.278 71.6324 213.556 71.6186 212.708 71.6186C211.861 71.6047 210.812 71.5977 209.561 71.5977C207.88 71.5977 206.393 71.6047 205.101 71.6186C203.822 71.6186 202.773 71.6324 201.954 71.6602Z" fill="#E44004"/>
<path d="M222.648 71.952C221.829 71.952 221.134 71.8687 220.564 71.7019C220.008 71.5352 219.55 71.3754 219.189 71.2225C218.841 71.0697 218.549 70.9933 218.313 70.9933C218.146 70.9933 218.007 71.0628 217.896 71.2017C217.799 71.3268 217.723 71.5421 217.667 71.8478H216.833C216.861 71.4865 216.875 71.0628 216.875 70.5764C216.889 70.0901 216.896 69.4787 216.896 68.7423C216.91 67.992 216.917 67.0471 216.917 65.9077H217.75C217.931 67.5751 218.417 68.8535 219.209 69.7427C220.001 70.6181 221.044 71.0558 222.336 71.0558C223.183 71.0558 223.843 70.8613 224.316 70.4722C224.802 70.0693 225.045 69.5204 225.045 68.8257C225.045 68.3671 224.92 67.9572 224.67 67.596C224.434 67.2347 224.038 66.8943 223.482 66.5747C222.94 66.2412 222.225 65.9077 221.335 65.5743C220.335 65.1852 219.515 64.7614 218.876 64.3029C218.237 63.8443 217.764 63.3302 217.459 62.7605C217.153 62.177 217 61.5239 217 60.8014C217 59.9538 217.202 59.2173 217.605 58.5921C218.007 57.9668 218.57 57.4805 219.293 57.1331C220.029 56.7857 220.891 56.612 221.877 56.612C222.641 56.612 223.274 56.6954 223.774 56.8621C224.274 57.0289 224.684 57.1956 225.004 57.3624C225.337 57.5152 225.622 57.5916 225.858 57.5916C226.039 57.5916 226.178 57.5222 226.275 57.3832C226.372 57.2443 226.449 57.0219 226.504 56.7162H227.338C227.31 57.0497 227.289 57.411 227.275 57.8001C227.261 58.1891 227.248 58.6963 227.234 59.3215C227.234 59.9468 227.234 60.7666 227.234 61.7809H226.4C226.219 60.4748 225.747 59.4327 224.983 58.6546C224.232 57.8765 223.308 57.4874 222.211 57.4874C221.488 57.4874 220.918 57.668 220.502 58.0293C220.099 58.3767 219.897 58.863 219.897 59.4883C219.897 59.919 220.015 60.3081 220.251 60.6555C220.488 60.9889 220.891 61.3155 221.46 61.635C222.03 61.9407 222.808 62.2881 223.795 62.6772C225.295 63.2469 226.379 63.9208 227.046 64.6989C227.727 65.477 228.067 66.4149 228.067 67.5126C228.067 68.8882 227.581 69.972 226.608 70.764C225.636 71.556 224.316 71.952 222.648 71.952Z" fill="#E44004"/>
<path d="M91.2904 99.8543V99.0415C91.9296 99.0137 92.395 98.9581 92.6868 98.8747C92.9925 98.7774 93.1871 98.6038 93.2704 98.3537C93.3677 98.1035 93.4163 97.7353 93.4163 97.249V87.7032C93.4163 87.1891 93.3677 86.8139 93.2704 86.5777C93.1732 86.3276 92.9717 86.1609 92.666 86.0775C92.3742 85.9802 91.9157 85.9246 91.2904 85.9107V85.0979C91.8462 85.1118 92.4645 85.1257 93.1454 85.1396C93.8262 85.1535 94.5418 85.1604 95.2921 85.1604C96.2787 85.1604 97.1332 85.1535 97.8558 85.1396C98.5922 85.1257 99.1897 85.1118 99.6482 85.0979V85.9107C98.884 85.9246 98.3143 85.9802 97.9391 86.0775C97.564 86.1748 97.3138 86.3484 97.1888 86.5985C97.0637 86.8348 97.0012 87.203 97.0012 87.7032V97.5616C97.0012 97.9507 97.029 98.2494 97.0846 98.4579C97.1541 98.6663 97.2861 98.8052 97.4806 98.8747C97.6751 98.9442 97.9808 98.9789 98.3977 98.9789H98.8145C99.3981 98.9789 99.933 98.8817 100.419 98.6871C100.906 98.4926 101.343 98.1939 101.732 97.7909C102.121 97.388 102.469 96.8947 102.775 96.3111C103.094 95.7136 103.386 95.0258 103.65 94.2477H104.484C104.386 95.2342 104.31 96.193 104.254 97.124C104.213 98.0549 104.199 98.965 104.213 99.8543C103.615 99.8265 102.893 99.8126 102.045 99.8126C101.197 99.7987 100.148 99.7918 98.8979 99.7918C97.2166 99.7918 95.7298 99.7987 94.4376 99.8126C93.1593 99.8126 92.1102 99.8265 91.2904 99.8543Z" fill="#E44004"/>
<path d="M105.412 99.8543V99.0415C106.037 99.0137 106.496 98.9581 106.788 98.8747C107.093 98.7913 107.295 98.6246 107.392 98.3745C107.489 98.1244 107.538 97.7492 107.538 97.249V87.7032C107.538 87.1891 107.489 86.8139 107.392 86.5777C107.295 86.3276 107.093 86.1609 106.788 86.0775C106.496 85.9802 106.037 85.9246 105.412 85.9107V85.0979C105.801 85.1118 106.336 85.1257 107.017 85.1396C107.712 85.1535 108.511 85.1604 109.414 85.1604C110.247 85.1604 110.998 85.1535 111.665 85.1396C112.332 85.1257 112.86 85.1118 113.249 85.0979V85.9107C112.623 85.9246 112.158 85.9802 111.852 86.0775C111.561 86.1609 111.366 86.3276 111.269 86.5777C111.171 86.8139 111.123 87.1891 111.123 87.7032V97.249C111.123 97.7492 111.171 98.1244 111.269 98.3745C111.366 98.6107 111.567 98.7774 111.873 98.8747C112.179 98.9581 112.637 99.0137 113.249 99.0415V99.8543C112.86 99.8265 112.332 99.8126 111.665 99.8126C110.998 99.7987 110.247 99.7918 109.414 99.7918C108.511 99.7918 107.712 99.7987 107.017 99.8126C106.336 99.8126 105.801 99.8265 105.412 99.8543Z" fill="#E44004"/>
<path d="M122.935 100L117.641 86.6611H117.37V96.4153C117.37 97.0823 117.418 97.6033 117.516 97.9785C117.627 98.3398 117.856 98.5968 118.203 98.7497C118.565 98.9025 119.107 98.9998 119.829 99.0415V99.8543C119.537 99.8265 119.134 99.8126 118.62 99.8126C118.106 99.7987 117.564 99.7918 116.995 99.7918C116.467 99.7918 115.973 99.7987 115.515 99.8126C115.056 99.8126 114.688 99.8265 114.41 99.8543V99.0415C115.008 98.9998 115.459 98.9025 115.765 98.7497C116.071 98.5968 116.272 98.3467 116.369 97.9993C116.481 97.652 116.536 97.1726 116.536 96.5612V87.7032C116.536 87.1891 116.487 86.8139 116.39 86.5777C116.293 86.3415 116.091 86.1748 115.786 86.0775C115.494 85.9802 115.035 85.9246 114.41 85.9107V85.0979C114.716 85.1118 115.119 85.1257 115.619 85.1396C116.133 85.1535 116.689 85.1604 117.286 85.1604C117.981 85.1604 118.634 85.1535 119.246 85.1396C119.857 85.1257 120.406 85.1118 120.892 85.0979L124.956 95.4982L124.269 95.9776L128.083 85.0979C128.625 85.1257 129.125 85.1465 129.583 85.1604C130.042 85.1604 130.514 85.1604 131.001 85.1604C131.695 85.1604 132.355 85.1535 132.981 85.1396C133.62 85.1257 134.127 85.1118 134.502 85.0979V85.9107C133.877 85.9246 133.411 85.9802 133.106 86.0775C132.814 86.1609 132.619 86.3276 132.522 86.5777C132.425 86.8139 132.376 87.1891 132.376 87.7032V97.249C132.376 97.7492 132.425 98.1244 132.522 98.3745C132.619 98.6107 132.821 98.7774 133.127 98.8747C133.432 98.9581 133.891 99.0137 134.502 99.0415V99.8543C134.071 99.8265 133.516 99.8126 132.835 99.8126C132.154 99.7987 131.411 99.7918 130.605 99.7918C129.757 99.7918 128.993 99.7987 128.312 99.8126C127.631 99.8126 127.096 99.8265 126.707 99.8543V99.0415C127.305 99.0137 127.749 98.9581 128.041 98.8747C128.347 98.7774 128.548 98.6107 128.646 98.3745C128.743 98.1244 128.791 97.7492 128.791 97.249V86.3276H128.5L123.685 100H122.935Z" fill="#E44004"/>
<path d="M135.649 99.8543V99.0415C136.274 99.0137 136.733 98.9581 137.025 98.8747C137.33 98.7913 137.532 98.6246 137.629 98.3745C137.726 98.1244 137.775 97.7492 137.775 97.249V87.7032C137.775 87.1891 137.726 86.8139 137.629 86.5777C137.532 86.3276 137.33 86.1609 137.025 86.0775C136.733 85.9802 136.274 85.9246 135.649 85.9107V85.0979C136.038 85.1118 136.573 85.1257 137.254 85.1396C137.949 85.1535 138.748 85.1604 139.651 85.1604C140.485 85.1604 141.235 85.1535 141.902 85.1396C142.569 85.1257 143.097 85.1118 143.486 85.0979V85.9107C142.861 85.9246 142.395 85.9802 142.089 86.0775C141.798 86.1609 141.603 86.3276 141.506 86.5777C141.409 86.8139 141.36 87.1891 141.36 87.7032V97.249C141.36 97.7492 141.409 98.1244 141.506 98.3745C141.603 98.6107 141.805 98.7774 142.11 98.8747C142.416 98.9581 142.875 99.0137 143.486 99.0415V99.8543C143.097 99.8265 142.569 99.8126 141.902 99.8126C141.235 99.7987 140.485 99.7918 139.651 99.7918C138.748 99.7918 137.949 99.7987 137.254 99.8126C136.573 99.8126 136.038 99.8265 135.649 99.8543Z" fill="#E44004"/>
<path d="M146.627 99.8543V99.0415C147.433 99.0275 148.038 98.9789 148.441 98.8956C148.844 98.7983 149.115 98.6177 149.253 98.3537C149.392 98.0758 149.462 97.6589 149.462 97.1031V85.9733H149.003C148.378 85.9733 147.829 86.1261 147.357 86.4318C146.898 86.7375 146.502 87.2238 146.169 87.8908C145.835 88.5577 145.544 89.4192 145.293 90.4752H144.439C144.564 89.586 144.654 88.6967 144.71 87.8074C144.765 86.9042 144.8 86.0011 144.814 85.0979C145.439 85.1118 146.127 85.1257 146.877 85.1396C147.642 85.1535 148.406 85.1604 149.17 85.1604C149.934 85.1604 150.636 85.1604 151.275 85.1604C151.887 85.1604 152.574 85.1604 153.339 85.1604C154.103 85.1604 154.867 85.1535 155.631 85.1396C156.395 85.1257 157.09 85.1118 157.715 85.0979C157.715 86.015 157.743 86.9181 157.799 87.8074C157.868 88.6967 157.959 89.586 158.07 90.4752H157.236C157.042 89.6832 156.826 89.0024 156.59 88.4327C156.354 87.863 156.083 87.3975 155.777 87.0362C155.485 86.675 155.152 86.411 154.777 86.2442C154.402 86.0636 153.978 85.9733 153.505 85.9733H153.047V97.1031C153.047 97.6589 153.116 98.0758 153.255 98.3537C153.394 98.6177 153.665 98.7983 154.068 98.8956C154.485 98.9789 155.096 99.0275 155.902 99.0415V99.8543C155.402 99.8404 154.735 99.8265 153.901 99.8126C153.082 99.7987 152.22 99.7918 151.317 99.7918C150.358 99.7918 149.462 99.7987 148.628 99.8126C147.795 99.8265 147.128 99.8404 146.627 99.8543Z" fill="#E44004"/>
<path d="M159.021 99.8543V99.0415C159.647 99.0137 160.105 98.9581 160.397 98.8747C160.703 98.7913 160.904 98.6246 161.001 98.3745C161.099 98.1244 161.147 97.7492 161.147 97.249V87.7032C161.147 87.203 161.099 86.8348 161.001 86.5985C160.904 86.3484 160.703 86.1748 160.397 86.0775C160.105 85.9802 159.647 85.9246 159.021 85.9107V85.0979C159.772 85.1118 160.758 85.1257 161.981 85.1396C163.204 85.1535 164.628 85.1604 166.254 85.1604C166.907 85.1604 167.518 85.1604 168.088 85.1604C168.657 85.1465 169.185 85.1396 169.672 85.1396C170.158 85.1257 170.596 85.1118 170.985 85.0979C170.985 85.9038 171.013 86.7028 171.068 87.4948C171.124 88.2729 171.207 89.0441 171.318 89.8083H170.485C170.29 88.9051 170.026 88.1756 169.693 87.6198C169.373 87.0501 168.977 86.6333 168.505 86.3693C168.046 86.1053 167.49 85.9733 166.837 85.9733H164.732V97.5616C164.732 97.9646 164.767 98.2703 164.836 98.4787C164.906 98.6871 165.038 98.8261 165.232 98.8956C165.441 98.9511 165.74 98.9789 166.129 98.9789H166.545C167.296 98.9789 167.97 98.8122 168.567 98.4787C169.165 98.1452 169.693 97.6311 170.151 96.9364C170.61 96.2277 171.02 95.3315 171.381 94.2477H172.215C172.117 95.2759 172.041 96.2555 171.985 97.1865C171.944 98.1035 171.93 98.9928 171.944 99.8543C171.249 99.8265 170.429 99.8126 169.484 99.8126C168.539 99.7987 167.421 99.7918 166.129 99.7918C164.531 99.7918 163.134 99.7987 161.939 99.8126C160.744 99.8126 159.772 99.8265 159.021 99.8543ZM164.065 92.8304V92.0384H167.9V92.8304H164.065ZM168.213 95.5608C168.143 94.9355 168.004 94.4214 167.796 94.0184C167.601 93.6155 167.33 93.3167 166.983 93.1222C166.65 92.9277 166.233 92.8304 165.733 92.8304V92.0384C166.4 92.0384 166.934 91.8091 167.337 91.3506C167.754 90.8782 168.025 90.1973 168.15 89.3081H168.942C168.887 90.1279 168.859 90.7601 168.859 91.2047C168.873 91.6493 168.88 92.0592 168.88 92.4344C168.88 92.7123 168.88 92.9972 168.88 93.2889C168.894 93.5668 168.908 93.8864 168.921 94.2477C168.949 94.609 168.977 95.0467 169.005 95.5608H168.213Z" fill="#E44004"/>
<path d="M173.749 99.8543V99.0415C174.374 99.0137 174.832 98.9581 175.124 98.8747C175.43 98.7913 175.631 98.6246 175.729 98.3745C175.826 98.1244 175.875 97.7492 175.875 97.249V87.7032C175.875 87.203 175.826 86.8348 175.729 86.5985C175.631 86.3484 175.43 86.1748 175.124 86.0775C174.832 85.9802 174.374 85.9246 173.749 85.9107V85.0979C174.179 85.1118 174.707 85.1257 175.333 85.1396C175.972 85.1396 176.75 85.1396 177.667 85.1396C178.056 85.1396 178.459 85.1396 178.876 85.1396C179.293 85.1257 179.682 85.1187 180.043 85.1187C180.404 85.1048 180.703 85.0979 180.939 85.0979C183.857 85.0979 186.06 85.6954 187.546 86.8903C189.047 88.0853 189.797 89.8361 189.797 92.1426C189.797 93.7544 189.443 95.137 188.734 96.2903C188.026 97.4296 187.004 98.312 185.671 98.9372C184.351 99.5486 182.766 99.8543 180.918 99.8543C180.557 99.8543 180.119 99.8474 179.605 99.8335C179.091 99.8057 178.452 99.7918 177.688 99.7918C176.826 99.7918 176.041 99.7987 175.333 99.8126C174.624 99.8265 174.096 99.8404 173.749 99.8543ZM181.106 99.0623C182.815 99.0623 184.066 98.5343 184.858 97.4783C185.664 96.4084 186.067 94.734 186.067 92.4553C186.067 90.1626 185.671 88.4952 184.879 87.4531C184.087 86.411 182.815 85.8899 181.064 85.8899H179.459V97.2907C179.459 97.777 179.501 98.1522 179.585 98.4162C179.682 98.6663 179.849 98.84 180.085 98.9372C180.321 99.0206 180.661 99.0623 181.106 99.0623Z" fill="#E44004"/>
</svg>
