<svg width="258" height="121" viewBox="0 0 258 121" fill="none" xmlns="http://www.w3.org/2000/svg">
<path d="M128.662 0.0332031H131.424L135.19 0.660817L138.83 1.53948L141.34 2.41814L143.851 3.54784L145.859 4.67754L147.742 5.93277L149.75 7.43905L151.006 8.56875L152.01 9.44741L153.516 10.9537L154.897 12.711L156.152 14.3428L157.784 16.9788L159.29 19.9913L160.545 23.2549L161.298 26.1419L161.801 28.7779L162.177 32.5436V35.8072L161.801 39.1963L161.047 42.8365L160.294 45.3469L159.541 47.3553L158.035 50.4933L156.78 52.6272L155.022 55.1377L153.516 56.895L152.135 58.4013L151.257 59.2799L149.876 60.4096L148.37 61.6649L145.859 63.2967L143.851 64.4264L141.842 65.4306L138.83 66.5603L136.068 67.3134L134.436 67.69L131.173 68.1921H127.031L125.524 67.69L124.144 66.9368L123.265 66.0582L122.512 64.6774V63.1711L123.265 61.6649L124.018 60.7862L125.775 59.6565L126.905 59.1544L127.658 59.0289L131.675 58.7778L133.558 58.5268L135.064 58.0247L136.319 57.5226L138.077 56.5184L139.583 55.3887L140.838 54.1335L142.093 52.2507L142.972 50.3678L143.474 48.485L143.725 46.8532V44.3427L143.349 42.2088L142.721 40.4515L141.717 38.5687L140.713 37.3135L139.583 36.1838L137.7 35.0541L135.566 34.3009L134.436 34.0499H132.679L130.545 33.7988L128.537 33.1712L126.78 32.2925L125.775 31.4139L125.022 30.2842L124.646 29.28L124.771 28.1503L125.524 26.7695L126.78 25.5143L128.913 24.3846L130.796 23.757L134.687 23.0039L135.943 22.3763L137.575 21.121L138.453 20.2424L139.583 18.7361L140.336 17.1043L140.587 15.7235V14.3428L140.211 12.8365L139.206 10.8282L138.202 9.57293L137.449 8.69427L136.445 7.81561L135.19 6.68591L132.679 4.92859L130.043 3.29679L128.662 2.54366L128.035 1.91604L128.16 1.28843L128.662 0.0332031Z" fill="#0282C0"/>
<path d="M120.255 0.912109H121.51L123.016 1.66525L124.146 2.66943L125.15 4.30122L125.778 5.93302L126.28 8.44347V12.2092L125.527 16.8535L124.648 20.6192L123.895 23.1296L122.389 26.0167L120.757 28.7782L118.623 32.4183L117.368 34.5522L115.234 38.1924L113.225 41.5815L112.096 42.8367L111.217 43.3388L110.715 43.4643H109.836L109.083 43.0878L108.455 42.0836L108.33 41.5815V39.1965L109.585 35.4309L111.217 30.912L113.476 24.6359L113.979 23.0041L114.104 22.251L113.1 22.7531L111.468 24.1338L109.46 26.1422L107.953 28.1505L106.824 30.0334L105.568 32.6694L104.815 35.1798L104.439 36.9371L104.188 39.3221V41.5815L104.564 44.0919L105.317 46.7279L106.196 48.8618L107.2 50.7446L108.33 52.3764L109.585 54.0082L110.715 55.389L111.468 56.8953L111.594 57.2718V58.276L110.966 59.2802L110.087 60.0333L109.209 60.4099H107.451L106.071 59.5312L103.435 56.8953L102.054 55.1379L100.799 53.5061L99.1668 50.8702L98.037 48.7363L96.7818 45.5982L95.9031 42.8367L95.2755 39.8242L94.7734 36.184V32.1673L95.2755 28.1505L95.9031 25.2635L96.9073 21.9999L98.1626 19.1129L99.6688 16.2259L101.426 13.5899L102.807 11.8326L103.937 10.5774L104.941 9.44766L105.945 8.569L107.326 7.31377L109.585 5.68197L111.719 4.30122L114.355 2.92047L117.117 1.79077L119.376 1.16315L120.255 0.912109Z" fill="#6C9E02"/>
<path d="M128.534 37.439H130.417L132.3 37.8155L134.308 38.8197L135.312 39.5729L136.065 40.2005L137.07 41.5812L137.948 43.3385L138.325 44.4682L138.45 45.2214V47.4808L138.199 48.9871L137.572 50.4933L136.693 51.9996L135.438 53.3804L133.68 54.5101L131.672 55.2632L131.044 55.3887H127.781L126.149 54.8866L124.643 54.1335L123.011 52.7527L122.007 51.4975L121.003 49.4891L120.501 47.6063L120.375 46.1L120.877 43.8406L121.756 41.8323L122.509 40.8281L123.262 39.9494L124.266 39.0708L125.521 38.3176L127.153 37.69L128.534 37.439Z" fill="#0382C0"/>
<path d="M0 79.9912H4.01675L4.64436 80.6188L5.64855 82.5017L9.41425 90.033L9.6653 90.2841V79.9912H11.4226L13.9331 80.1167V99.4472H9.6653L8.53559 97.4389L5.3975 91.1627L4.51884 89.5309L4.39332 89.1544H4.14227L4.26779 89.782V99.4472L3.26361 99.5728L0 99.4472V79.9912Z" fill="#0282C0"/>
<path d="M16.5708 79.9912H24.2278L26.4872 80.1167L27.3658 80.4933L28.37 81.623L28.9976 82.8782L29.3742 84.6356L29.2487 86.1418L28.6211 87.6481L27.4914 88.9033V89.2799L28.6211 90.1586L29.2487 90.9117L29.8763 92.2924L30.0018 94.0498L29.7508 95.9326L28.8721 97.6899L27.9935 98.6941L26.8638 99.1962L25.3575 99.4472L16.8219 99.5728L16.5708 99.4472L16.4453 80.1167L16.5708 79.9912ZM21.0897 83.8824L20.9642 84.7611V87.3971L21.5918 87.6481H22.847L24.1022 87.3971L24.6043 86.895L24.7299 86.5184V84.7611L24.2278 84.1335L23.8512 84.0079L22.3449 83.8824H21.0897ZM21.0897 91.2883L20.9642 91.4138V94.8029L21.2152 95.305H23.8512L24.7299 94.9284L25.2319 94.3008L25.3575 93.9242V92.5435L24.8554 91.7903L24.2278 91.4138L23.7257 91.2883H21.0897Z" fill="#0382C0"/>
<path d="M39.0357 79.8657L43.3035 79.9912L43.429 80.1168V86.7695L48.0734 86.895V80.1168L48.1989 79.9912H52.7177V99.4473H48.1989V91.6649H43.3035L43.429 92.0414V99.4473H38.9102V79.9912L39.0357 79.8657Z" fill="#6C9E02"/>
<path d="M167.95 79.8657L175.858 79.9912L177.49 80.2423L178.243 80.7444L179.121 81.7486L179.749 83.0038L180.126 84.8866V87.0205L179.874 88.5268L179.372 89.782L178.494 90.9117L177.49 91.7904L176.234 92.167L175.105 92.2925H172.971L172.343 92.167L172.469 99.3217L172.343 99.4473L167.95 99.5728L167.824 99.4473V79.9912L167.95 79.8657ZM172.594 83.8825L172.343 84.008V88.1502L172.594 88.2757H174.226L174.979 87.8992L175.607 87.2716L175.732 86.7695V85.5142L175.356 84.6356L174.728 84.1335L173.849 83.8825H172.594Z" fill="#6C9E02"/>
<path d="M246.149 79.8657L250.165 79.9912L250.291 80.2423V99.3218L250.165 99.4473L246.651 99.5728L246.4 99.4473V98.0665L245.898 98.192L244.768 99.4473L244.015 99.8238L243.387 99.9494H242.508L241.379 99.5728L240.375 98.6941L239.496 97.1879L238.743 94.9285L238.617 93.7987V90.9117L238.868 89.1544L239.496 87.5226L240.249 86.3929L241.379 85.3887L242.257 85.0122L243.011 84.8866L244.391 85.2632L246.023 86.2674V79.9912L246.149 79.8657ZM244.015 89.0289L243.136 89.782L242.759 90.6607L242.634 91.5393V93.5477L243.011 95.054L243.638 95.6816L244.015 95.9326H244.642L245.521 95.1795L246.023 94.1753L246.149 93.0456V91.7904L245.898 90.5352L245.395 89.6565L244.642 89.0289H244.015Z" fill="#6C9E02"/>
<path d="M97.9062 79.8657L101.923 79.9912V86.0163L101.797 86.7695L102.927 86.0163L103.931 85.2632L104.559 85.0122H106.191L107.321 85.5142L108.199 86.5184L108.701 87.5226L108.952 88.6523L109.078 90.5352V99.3217L108.952 99.4473H104.936L104.81 90.6607L104.182 89.4055L104.057 89.2799H103.429L102.3 90.2841L102.049 90.7862L101.923 99.4473L98.0318 99.5728L97.9062 99.4473V79.8657Z" fill="#6C9E02"/>
<path d="M103.932 38.1924H104.184V41.5815L104.56 44.092L105.313 46.7279L106.192 48.8618L107.196 50.7447L108.326 52.3765L109.581 54.0082L110.711 55.389L111.464 56.8953L111.589 57.2718V58.276L110.962 59.2802L110.083 60.0333L109.204 60.4099H107.447L106.066 59.5312L103.43 56.8953L102.05 55.138L100.794 53.5062L99.1626 50.8702L98.0329 48.7363L96.7776 45.5982L95.899 42.8367L95.7734 42.0836H96.0245L96.15 42.7112H96.4011V43.0878L96.6521 43.2133V43.4643L97.4052 43.8409H97.6563L98.0329 42.5857L98.786 42.0836H99.7902L101.296 41.3305L102.05 41.2049L102.301 40.9539L102.552 41.2049L102.803 42.0836L103.179 42.2091V40.5773L103.556 38.9455L103.932 38.1924Z" fill="#90AC02"/>
<path d="M72.8001 85.0122H75.9382L77.57 85.3888L78.6997 86.2674L79.4528 87.5227L79.8294 88.5268L79.9549 89.28L80.0804 96.9369L80.206 99.4473H76.6913L76.1892 98.3176L75.6871 98.4431L74.6829 99.3218L73.4277 99.8239L71.7959 99.9494L70.7917 99.8239L69.9131 99.3218L69.0344 98.4431L68.4068 97.1879L68.2812 96.6858V94.803L68.9089 93.1712L70.0386 92.167L71.7959 91.4139L74.4319 90.6607L75.6871 90.0331L75.9382 89.7821L75.8127 89.1545L75.5616 88.5268L74.8085 88.2758L73.8043 88.4013L72.298 89.9076L71.7959 90.0331L70.7917 89.7821L68.7833 89.531L68.6578 89.4055V88.5268L69.1599 87.2716L70.2896 86.0164L71.2938 85.3888L72.8001 85.0122ZM75.3106 93.0457L73.8043 93.6733L72.549 94.5519L72.298 94.9285L72.4235 95.8072L72.9256 96.5603L73.3022 96.9369H74.0553L75.0595 96.1837L75.6871 95.4306L76.0637 94.0498V93.0457H75.3106Z" fill="#6C9E02"/>
<path d="M128.538 85.0122H131.801L133.559 85.3888L134.814 86.5185L135.442 87.5227L135.818 88.7779L135.944 97.8155L136.32 99.3218L136.195 99.4473L132.931 99.5728L132.429 99.4473L132.178 98.1921L131.299 98.6942L130.17 99.5728L129.417 99.8239L128.412 99.9494H127.283L126.404 99.6984L125.149 98.5687L124.396 97.3134L124.145 96.3093L124.27 94.4264L125.023 92.9201L126.153 92.0415L128.036 91.2883L129.04 91.0373L130.923 90.4097L131.801 89.9076L131.927 89.4055L131.425 88.6524L130.546 88.2758L129.668 88.4013L128.789 89.28L128.161 90.0331L125.902 89.6565L124.772 89.531L124.521 89.28L124.647 88.2758L125.4 86.895L126.153 86.0164L127.408 85.2633L128.538 85.0122ZM131.55 92.9201L130.044 93.5478L128.412 94.5519L128.161 94.9285L128.287 95.6816L128.663 96.4348L129.291 96.9369L130.17 96.8113L131.048 96.1837L131.801 94.9285L131.927 94.4264V93.0457L131.55 92.9201Z" fill="#6C9E02"/>
<path d="M59.747 85.0122H62.0064L63.6382 85.3888L64.7679 86.1419L65.6466 87.1461L66.3997 88.6524L66.9018 90.6607L67.1529 92.418V93.7988H58.7428L59.3704 95.3051L60.1235 96.3093L60.7512 96.6858L61.6298 96.5603L62.634 95.6816L62.8851 95.3051L64.5169 95.4306L66.9018 95.6816L66.7763 96.1837L65.6466 97.941L64.7679 98.9452L63.2616 99.6984L61.8809 99.9494H59.8725L58.6173 99.6984L57.362 98.9452L56.2323 97.69L55.3537 95.9327L54.9771 94.4264L54.8516 93.5478V91.0373L55.2281 89.1545L56.2323 87.2716L56.9855 86.393L58.2407 85.5143L59.2449 85.1377L59.747 85.0122ZM60.7512 88.1503L59.8725 88.6524L59.1194 89.9076L58.9938 90.1586V91.0373L59.6214 91.2883H62.0064L63.0106 91.0373V90.2842L62.2574 88.9034L61.5043 88.2758L60.7512 88.1503Z" fill="#6C9E02"/>
<path d="M152.006 85.0122H153.638L155.395 85.2633L156.65 86.0164L157.529 86.895L158.533 88.9034L158.91 90.1586L159.161 92.6691V93.6733L158.91 93.7988H150.751L151.755 95.9327L152.382 96.4348L153.01 96.6858L153.638 96.5603L154.642 95.6816L155.018 95.3051L158.91 95.5561L159.035 95.8072L158.031 97.5645L156.776 98.9452L155.269 99.6984L153.889 99.9494H151.88L150.625 99.6984L149.37 98.9452L148.366 97.8155L147.361 95.8072L146.859 93.6733V91.6649L147.11 90.0331L147.738 88.2758L148.617 86.7695L149.621 85.8909L150.751 85.2633L152.006 85.0122ZM152.759 88.1503L152.006 88.5268L151.127 89.9076L151.002 90.1586V91.0373L152.131 91.2883H154.391L155.018 91.0373V90.2842L154.391 89.0289L153.763 88.4013L153.261 88.1503H152.759Z" fill="#6C9E02"/>
<path d="M217.027 79.9912H221.546V94.8029H228.45L228.575 99.3217L228.45 99.4472H217.027V79.9912Z" fill="#6C9E02"/>
<path d="M115.731 85.0122H117.991L119.372 85.2633L120.376 85.7653L121.631 87.0206L122.51 88.5268L122.761 89.28V89.9076L119.748 90.6607L119.12 90.5352L117.991 89.0289L117.489 88.7779L116.359 88.9034L115.731 89.531L115.355 90.0331L114.978 91.1628L114.853 91.7904V93.2967L115.355 94.9285L115.857 95.6816L116.861 96.1837L117.614 96.0582L118.367 95.5561L118.869 94.803L119.246 93.9243L119.497 93.7988L120.627 94.1754L122.384 94.3009L123.012 94.4264L122.886 95.4306L121.882 97.439L121.129 98.4431L120.125 99.3218L118.869 99.8239L117.991 99.9494H115.857L114.351 99.5728L113.221 98.8197L112.342 97.941L111.338 96.1837L110.836 94.1754V90.5352L111.213 89.1545L112.217 87.1461L113.346 86.0164L114.602 85.2633L115.731 85.0122Z" fill="#6C9E02"/>
<path d="M234.98 79.8657L235.231 80.1168L235.106 84.8866L234.98 85.2632H237.114L237.365 85.5142V89.1544L237.239 89.2799L235.231 89.4055L235.106 95.8071L237.114 95.9326L237.365 96.3092L237.491 98.8197L237.239 99.4473L236.361 99.8238L233.85 99.9494L232.721 99.6983L231.591 98.4431L231.089 97.1879L230.963 96.4347V89.4055H229.834L229.457 89.1544V87.146L229.583 85.3887L230.963 85.1377V84.008L230.838 83.1293L231.465 82.5017L232.721 81.4975L234.729 79.9912L234.98 79.8657Z" fill="#6D9E02"/>
<path d="M181.004 85.2627H184.77L185.272 85.5137L186.15 89.656L186.778 92.9196L186.904 93.6727L187.406 93.1706L188.033 90.0326L188.786 86.8945L189.037 85.3882L189.163 85.2627H193.431L193.18 85.8903L192.05 89.5305L190.669 94.1748L189.163 98.6936L188.786 99.4468L188.284 99.5723L185.397 99.4468L184.895 98.4426L183.891 95.43L181.757 88.4008L181.004 85.7648V85.2627Z" fill="#6D9E02"/>
<path d="M198.956 79.8657H199.332V84.1335L199.207 85.2632H201.341L201.466 85.3887V89.1544L201.341 89.2799H199.332V95.9326L201.466 95.8071L201.592 99.4473L201.215 99.6983L200.085 99.8238H197.324L196.194 98.9452L195.441 97.69L195.315 97.1879L195.19 95.5561V89.4055L193.684 89.1544V88.0247L193.935 85.3887L194.06 85.2632H195.315L195.19 83.0038L195.817 82.3762L197.575 80.9954L198.956 79.8657Z" fill="#6D9E02"/>
<path d="M93.5142 79.8657H93.7652V85.2632H95.8991L96.0246 85.3887V89.1544L95.8991 89.2799H93.7652L93.8907 95.8071L96.0246 95.9326V99.5728L94.7694 99.8238H91.7568L90.7527 98.9452L89.9995 97.8155L89.7485 96.6858L89.6229 89.4055L88.3677 89.2799L88.2422 89.1544V87.146L88.3677 85.3887L89.4974 85.2632L89.7485 85.1377V82.8783L90.6271 82.1251L92.3845 80.8699L93.5142 79.8657Z" fill="#6C9E02"/>
<path d="M82.4693 79.8657L86.3605 79.9912L86.486 80.1168V99.4473H82.4693L82.3438 99.3217V79.9912L82.4693 79.8657Z" fill="#6D9E02"/>
<path d="M138.325 85.2627H141.84L142.091 85.7648L142.216 86.5179L142.844 86.3924L143.221 85.2627H145.982L146.359 85.3882L146.233 86.769L145.48 89.2794L144.978 89.5305L144.476 89.4049H143.597L142.97 90.0326L142.719 90.7857L142.468 92.4175L142.342 93.9238V99.3212L142.216 99.4468H138.2L138.074 85.3882L138.325 85.2627Z" fill="#6C9E02"/>
<path d="M36.0219 109.866H37.2772L38.6579 110.242L39.7876 110.995L40.5408 112L40.9174 112.753L41.0429 113.38V114.259L40.6663 115.514L39.7876 116.644L38.6579 117.523L37.6537 117.899H35.7709L34.6412 117.523L33.637 116.644L32.8839 115.514L32.6328 114.761V113.004L33.386 111.498L34.3901 110.493L35.3943 109.991L36.0219 109.866ZM36.0219 110.995L35.0178 111.498L34.2646 112.376L33.888 113.38V114.51L34.2646 115.514L35.1433 116.393L36.0219 116.769H37.5282L38.6579 116.142L39.4111 115.138L39.6621 114.133L39.5366 112.878L39.0345 112.125L38.0303 111.246L37.2772 110.995H36.0219Z" fill="black"/>
<path d="M197.196 111.749L198.326 111.874L199.205 112.627L199.707 112.502L200.334 112L200.836 111.749H202.092L203.096 112.125L203.723 112.878L204.1 113.882V117.272L203.974 117.774L203.347 117.899L202.845 117.774L202.719 114.008L202.343 113.255L201.841 112.878H200.836L200.209 113.506L199.832 114.636L199.707 117.774H198.577V114.259L198.2 113.38L197.698 113.004L196.82 112.878L196.066 113.255L195.69 114.008L195.564 114.51L195.439 117.774H194.309L194.184 117.272V111.874L195.062 112L195.439 112.125L197.196 111.749Z" fill="black"/>
<path d="M252.551 93.9243L257.07 94.0498V99.4473H252.551L252.426 94.0498L252.551 93.9243Z" fill="#6C9E02"/>
<path d="M48.3253 109.866H50.0826L51.2123 110.493L51.9655 111.372L52.3421 112.251L52.4676 112.878V114.636L52.091 115.765L51.2123 116.895L50.4592 117.523L49.5805 117.899H47.6977L46.9445 117.523L46.568 116.895V116.393L47.3211 116.518L48.5763 116.769L49.8316 116.518L50.8358 115.64L51.3379 114.761L51.4634 114.133L49.8316 114.887H48.1998L47.4466 114.51L46.4425 113.38L46.1914 112.753L46.3169 111.749L47.0701 110.619L47.9487 109.991L48.3253 109.866ZM49.0784 110.744L48.1998 111.121L47.5722 111.749L47.4466 112.627L47.9487 113.38L48.9529 113.882L50.0826 113.631L50.7102 113.129L50.8358 112.878L50.7102 111.749L50.0826 110.995L49.455 110.744H49.0784Z" fill="black"/>
<path d="M56.612 109.866H57.9928L58.997 110.242L59.7501 110.87L60.3777 111.874L60.7543 113.38L60.6288 115.012L60.1267 116.267L59.248 117.272L58.2438 117.899L57.7417 118.025H56.7376L55.8589 117.648L55.2313 117.146L54.3526 115.765L54.1016 114.887V113.004L54.6037 111.623L55.3568 110.619L56.2355 109.991L56.612 109.866ZM56.7376 110.995L55.8589 111.749L55.4823 112.502L55.3568 113.004V114.887L55.8589 116.016L56.612 116.644L57.1141 116.895L57.8673 116.769L58.6204 116.267L59.248 115.263L59.3735 114.636V113.004L58.7459 111.749L57.9928 111.121L57.7417 110.995H56.7376Z" fill="black"/>
<path d="M203.348 94.0498H207.615L207.741 94.1753V99.3218L207.615 99.4473L203.473 99.5728L203.348 99.4473V94.0498Z" fill="#6D9E02"/>
<path d="M206.613 111.874H210.881L211.885 112.376L212.764 113.631L212.889 114.133V115.389L212.513 116.393L211.76 117.272L210.881 117.774H208.873L207.743 117.397L207.869 118.025V120.033H206.864L206.739 119.531L206.613 117.272V111.874ZM208.998 112.878L208.371 113.255L207.994 113.757L207.869 115.012L208.245 116.142L208.873 116.644L209.626 116.895L210.505 116.769L211.383 116.016L211.634 115.389V114.51L211.258 113.506L210.63 113.004L210.379 112.878H208.998Z" fill="black"/>
<path d="M170.208 109.489H171.087L171.338 109.615V117.648L170.836 117.774H169.33L168.828 117.899H167.321L166.317 117.397L165.564 116.519L165.188 115.64V114.134L165.815 112.878L166.819 112L167.572 111.749H168.577L169.832 112.125L170.083 112.251V109.615L170.208 109.489ZM167.698 112.753L166.945 113.255L166.317 114.259L166.192 114.887L166.694 116.016L167.321 116.644L168.451 116.895L169.33 116.519L169.957 115.891L170.208 115.263V114.385L169.832 113.632L168.953 112.878L168.577 112.753H167.698Z" fill="black"/>
<path d="M96.3982 109.866H97.2769L98.5321 110.242L99.5363 111.246L100.164 112.502L100.289 113.129V114.51L100.038 115.64L99.2853 116.895L98.2811 117.648L97.6535 117.899H96.0217L95.2685 117.523L94.6409 116.895L94.0133 116.016L93.6367 114.636V113.255L94.0133 112L94.7664 110.87L95.6451 110.117L96.3982 109.866ZM96.5238 110.995L95.7706 111.498L95.143 112.251L94.892 113.129V114.761L95.394 115.891L95.8961 116.518L96.3982 116.769H97.4024L98.1556 116.267L98.6577 115.64L98.9087 114.761V112.878L98.2811 111.623L97.6535 111.121L97.4024 110.995H96.5238Z" fill="#010100"/>
<path d="M65.0193 109.866H65.898L67.2787 110.368L68.2829 111.498L68.785 112.753V115.138L68.4085 116.142L67.2787 117.397L66.2746 117.899H64.6428L63.7641 117.397L62.8854 116.393L62.3833 115.389L62.2578 115.012V113.004L62.7599 111.623L63.513 110.619L64.5172 109.991L65.0193 109.866ZM64.8938 110.995L64.0151 111.749L63.513 113.129V114.761L64.0151 116.016L64.7683 116.644L65.6469 116.895L66.5256 116.518L67.1532 115.765L67.4043 114.887V112.627L67.0277 111.874L66.4001 111.246L66.0235 110.995H64.8938Z" fill="black"/>
<path d="M27.1115 109.866H29.1199L30.3751 110.368L30.6262 110.744V111.498L29.622 111.372L28.3667 110.995H27.237L26.6094 111.372L26.3584 111.623V112.376L27.1115 113.004L29.3709 113.631L30.1241 114.008L30.7517 114.51L31.0027 115.012V115.891L30.3751 116.895L29.3709 117.774L28.6178 118.025H27.3626L25.9818 117.648L24.9776 116.769L24.7266 116.267V115.891L25.4797 116.016L26.986 116.644L27.4881 116.769H28.6178L29.4964 116.142L29.622 115.263L29.1199 114.887L26.7349 114.259L25.4797 113.506L24.9776 112.753V111.749L25.6052 110.744L26.7349 109.991L27.1115 109.866Z" fill="#010100"/>
<path d="M108.706 54.7612L109.082 54.8868V55.1378H109.333L109.459 54.8868L109.71 55.0123L109.835 54.7612L110.463 55.3888V55.7654H110.714L110.965 56.2675L111.342 56.5185L111.593 57.2717V58.2759L110.965 59.28L110.087 60.0332L109.208 60.4098H107.702V60.1587L107.451 60.0332L106.697 58.9035L106.195 57.7738V57.5227L106.823 57.0206L107.199 56.393H107.576V55.7654L108.455 55.5144L108.58 55.1378H108.831L108.706 54.7612Z" fill="#6C9E02"/>
<path d="M121.382 109.866H122.638L124.269 110.368L124.771 110.995L124.897 111.498L124.646 112L124.018 111.874L123.014 111.246L122.638 111.121H121.257L120.253 111.623L119.5 112.502L119.248 113.129V114.636L119.751 115.64L120.629 116.393L121.257 116.644H122.763L124.269 115.891L124.897 115.64L125.023 116.016L124.646 116.769L123.642 117.648L123.014 117.899H120.755L119.5 117.272L118.621 116.393L117.868 114.887L117.742 114.385V113.255L118.244 112L119.374 110.744L120.378 110.117L121.382 109.866Z" fill="black"/>
<path d="M181.007 109.866H182.137L183.643 110.242L184.271 110.744L184.396 111.749L184.271 112L183.643 111.874L182.89 111.372L182.012 111.121H180.882L179.627 111.749L178.999 112.627L178.748 113.38V114.51L179.376 115.765L180.003 116.267L180.756 116.644H182.388L183.643 116.016L184.02 115.765L184.522 115.891L184.396 116.518L183.643 117.397L182.514 117.899H180.38L179.125 117.272L178.12 116.267L177.493 115.012L177.367 114.51V113.38L177.869 112L178.999 110.744L180.003 110.117L181.007 109.866Z" fill="black"/>
<path d="M128.537 111.749H130.043L131.298 112.376L132.051 113.38L132.428 114.259V115.138L132.302 115.263L127.784 115.389L127.909 115.891L128.537 116.518L129.039 116.769H130.169L132.177 115.765L132.051 116.518L131.173 117.523L130.42 117.899L129.792 118.025H128.788L127.784 117.648L126.779 116.518L126.277 115.263V114.259L126.905 113.004L127.407 112.376L128.16 111.874L128.537 111.749ZM129.039 112.627L128.286 113.004L127.533 114.008V114.51L130.671 114.385L131.047 114.008L130.545 113.255L129.918 112.753L129.039 112.627Z" fill="black"/>
<path d="M159.79 111.749H161.422L162.426 112.251L163.179 113.129L163.556 114.133V115.138L163.305 115.389H158.911L159.288 116.142L159.916 116.644L160.292 116.769H161.547L162.552 116.267L163.43 115.514L163.305 116.393L162.552 117.397L161.799 117.899L161.171 118.025L159.539 117.899L158.786 117.397L157.907 116.393L157.656 115.64V114.133L158.158 112.878L159.163 112L159.79 111.749ZM160.167 112.627L159.414 113.004L158.911 113.757L158.786 114.51L162.05 114.385L162.175 114.008L161.673 113.004L161.045 112.627H160.167Z" fill="black"/>
<path d="M88.6193 109.866H89.6235L91.0043 110.368L91.7574 111.372L91.8829 111.749V112.753L91.1298 113.882L88.6193 116.393H88.3683V116.644H91.8829L92.134 116.895V117.774L92.0084 117.899H87.9917L86.4854 117.774L86.3599 117.397L86.7365 116.769L87.6151 115.891L88.2427 115.138L89.2469 114.259L90.2511 113.129L90.5022 112.627L90.3766 111.874L89.8746 111.246L89.6235 111.121H88.4938L86.862 111.749L86.2344 111.623L86.3599 110.995L87.113 110.368L88.6193 109.866Z" fill="black"/>
<path d="M107.57 110.117H112.089L111.963 110.87L111.838 110.995L108.574 111.121L108.449 112.753L109.327 113.004L110.834 113.255L111.712 113.757L112.34 114.51L112.465 114.887V115.765L111.963 116.769L111.085 117.523L110.206 117.899H108.449L107.319 117.523L106.691 116.895V116.016L107.445 116.142L108.449 116.644L108.951 116.769H109.955L110.959 116.142L111.085 115.891V115.012L110.457 114.384L108.574 114.133L107.068 114.008V112.878L107.445 110.368L107.57 110.117Z" fill="black"/>
<path d="M215.775 111.874H218.411L219.289 112.627L219.666 113.38L219.792 113.882V117.02L219.415 117.648L218.16 117.899H215.9L215.147 117.397L214.52 116.393V115.389L215.147 114.761L216.528 114.384L218.411 114.133L218.285 113.38L217.909 112.878H216.528L215.273 113.38L214.771 113.506V112.753L215.273 112L215.775 111.874ZM217.909 115.138L215.9 115.389L215.649 115.514L215.775 116.267L216.277 116.895L216.653 117.02H217.532L218.411 116.518L218.536 116.267V115.263L217.909 115.138Z" fill="black"/>
<path d="M188.409 111.749H189.413L190.417 112L191.17 112.502L191.798 113.255L192.175 114.259V115.514L191.673 116.518L190.668 117.523L189.915 117.899H187.907L187.154 117.397L186.275 116.393L185.898 115.389V114.133L186.526 112.878L187.53 112L188.409 111.749ZM188.66 112.753L187.781 113.129L187.279 113.757L187.028 115.012L187.405 116.016L188.283 116.769L188.534 116.895H189.539L190.543 116.142L190.794 115.765L190.919 114.51L190.543 113.631L189.915 113.004L188.66 112.753Z" fill="black"/>
<path d="M235.23 111.498H235.858L235.732 112.502L234.351 115.64L233.222 118.025L231.966 120.033H229.833L229.707 119.657V118.527L230.46 118.652L231.088 118.903L231.59 118.778L231.966 118.025V117.272L231.088 115.389L229.707 111.874V111.749H230.586L231.088 112.251L231.841 114.008L232.469 115.891V116.142L232.971 115.64L234.728 112.125L235.23 111.498Z" fill="black"/>
<path d="M222.301 111.874H226.569L227.196 112.251L227.824 113.004L228.075 114.008V117.523L227.824 117.899L226.945 117.774L226.82 117.648V114.384L226.443 113.38L225.941 113.004H224.56L223.933 113.506L223.807 113.757L223.682 117.774H222.552L222.426 117.648L222.301 111.874Z" fill="black"/>
<path d="M150.754 109.489H152.512L152.763 109.74V110.368L152.135 110.493H151.006L150.88 110.619L150.754 111.874H152.261L152.512 112V112.753L150.754 112.878V117.774H149.625L149.499 117.523V112.878L148.746 112.753V112.125L149.374 111.749L149.876 110.242L150.378 109.615L150.754 109.489Z" fill="black"/>
<path d="M18.4537 109.364H18.9558L18.8303 110.117L18.3282 111.372L17.9516 113.004V116.393L18.4537 118.401L18.9558 119.782V120.033H17.8261L16.9474 117.899L16.5708 116.393L16.4453 115.514V114.008L16.6964 112.251L17.324 110.493L18.2026 109.489L18.4537 109.364Z" fill="#000100"/>
<path d="M237.114 109.238L237.867 109.489L238.495 110.242L239.122 111.623L239.373 112.753L239.499 113.883V115.389L239.248 117.146L238.495 119.406L238.118 120.033H237.239L237.49 118.904L237.992 116.77L238.118 115.891V113.883L237.741 111.498L237.365 110.494L236.988 109.74L237.114 109.238Z" fill="black"/>
<path d="M101.422 110.117H104.435L104.56 110.242V117.648L104.435 117.899H103.556L103.18 117.648V111.246L101.799 111.121L101.422 110.87L101.297 110.368L101.422 110.117Z" fill="black"/>
<path d="M140.462 110.619H141.089L141.34 110.87L141.466 111.748L142.847 111.874L143.098 111.999V112.627L142.972 112.753L141.466 112.878V116.518L141.717 116.644L143.223 116.769L143.349 116.895V117.648L143.223 117.773H141.215L140.587 117.397L140.211 116.644L140.085 115.514V112.878L139.332 112.627L139.458 111.999L139.96 111.497L140.336 110.744L140.462 110.619Z" fill="black"/>
<path d="M70.168 110.117H72.9295L73.1805 110.242L73.055 117.774L72.3019 117.899L71.7998 117.648L71.6742 111.246L70.5445 111.121L70.168 110.87V110.117Z" fill="black"/>
<path d="M21.3365 109.991L22.2151 110.117L22.5917 110.368V117.523L22.4662 117.899H21.462L21.2109 117.648V111.623L21.3365 109.991Z" fill="black"/>
<path d="M134.438 111.874L135.191 112H136.32L137.701 111.874L137.952 112L137.827 112.627L136.069 113.506L135.944 113.757L135.818 115.012V117.648L135.693 117.774H134.689L134.438 117.02V111.874Z" fill="black"/>
<path d="M154.27 111.874H155.525V114.008L155.4 117.774L155.274 117.899H154.396L154.145 117.648V112.753L154.27 111.874Z" fill="#000100"/>
<path d="M145.983 111.874H146.611L146.736 112.502L146.611 117.774H145.607L145.481 117.648L145.355 116.644V112L145.983 111.874Z" fill="black"/>
<path d="M79.7086 111.874H80.4617L80.8383 112.251V113.129L80.7128 113.38L80.0852 113.506L79.4576 113.129L79.332 112.878V112.125L79.7086 111.874Z" fill="#010100"/>
<path d="M80.0818 116.142L80.7094 116.267L80.8349 116.393V117.522L80.0818 117.773L79.2031 117.397L79.4542 116.644L79.8307 116.267L80.0818 116.142Z" fill="black"/>
<path d="M154.145 109.489H155.526L155.651 110.117L155.526 110.619H154.145L154.02 110.493V109.74L154.145 109.489Z" fill="black"/>
<path d="M145.352 109.489H146.607L146.733 109.74V110.619L145.854 110.744L145.352 110.493L145.227 109.615L145.352 109.489Z" fill="#010100"/>
<path d="M111.213 58.5269L111.338 58.7779L110.46 59.7821L109.832 60.0331L110.585 59.1545L111.213 58.5269Z" fill="#8FAC02"/>
<path d="M111.09 56.5186H111.341L111.592 57.2717V58.2759H111.466L111.341 57.5227H111.09V56.8951V56.5186Z" fill="#8FAC02"/>
</svg>
