<svg width="300" height="82" viewBox="0 0 300 82" fill="none" xmlns="http://www.w3.org/2000/svg">
<path d="M31.0773 0H64.6409L65.4696 0.414365V65.0553H49.3094V15.3315L29.4199 15.7459L25.6906 16.5746L22.3757 18.6464L19.8895 20.7182L17.4033 25.2762L16.5746 28.1768V37.2928L18.232 41.4365L20.3039 44.7514L23.2044 47.2376L26.5193 48.895L28.5912 49.3094L47.2376 49.7238V65.0553H28.5912L23.2044 64.2265L17.4033 62.1547L12.8453 59.2541L9.11602 55.9392L4.55801 50.1381L2.48619 45.9945L0.828729 41.0221L0 35.221V29.8343L1.24309 22.7901L3.72928 16.5746L6.62983 12.0166L12.4309 6.21547L16.5746 3.31492L21.547 1.24309L25.2762 0.414365L31.0773 0Z" fill="#009C99"/>
<path d="M83.7017 16.1602H115.193L115.608 16.9889L115.193 27.7624L84.116 28.1767L82.0442 30.2486L82.4586 33.9778L83.7017 34.3922L115.193 34.8066L115.608 36.0497L115.193 46.4088L83.7017 46.8231L82.4586 47.2375L82.0442 50.5524L83.2873 52.6242L84.5304 53.0386L115.193 53.453V65.0552H83.7017L78.7293 63.8121L75 61.3259L71.6851 57.5966L70.0276 53.453L69.6133 48.895L70.442 44.7513L72.5138 41.022L71.6851 38.9502L70.442 36.464L70.0276 34.8066V27.7624L71.6851 23.6187L75.8288 19.0607L79.558 16.9889L83.7017 16.1602Z" fill="#1C67AF"/>
<path d="M268.506 16.1602H299.998V27.7624L268.921 28.1767L267.263 29.0055L266.849 29.8342V32.7347L268.506 34.3922L287.567 34.8066L291.296 36.0497L295.026 38.5358L297.926 41.8508L299.584 45.58L299.998 48.0662V51.7955L298.341 57.1823L295.026 61.3259L290.882 63.8121L285.91 65.0552H254.418V53.453L285.91 53.0386L287.567 51.3811V48.4806L285.91 46.8231L267.263 46.4088L263.948 45.58L259.805 43.0939L256.904 40.1933L255.247 37.2928L254.418 34.3922V29.0055L255.661 24.8618L258.976 20.3038L262.291 17.8176L266.02 16.5745L268.506 16.1602Z" fill="#1B67AF"/>
<path d="M225.415 16.1602H251.106L251.52 16.5745V65.0552H239.503V27.7624L224.172 28.1767L220.443 29.4198L217.542 31.906L215.056 36.8784L214.642 40.6077L215.47 45.1657L217.128 48.4806L218.785 50.5524L222.1 52.6242L224.172 53.0386L237.846 53.453V65.0552H225.415L219.2 64.2265L215.056 62.569L211.327 60.0828L208.012 56.7679L205.111 52.2099L203.454 48.0662L202.625 43.9226V37.2928L204.282 30.6629L207.183 25.6905L210.912 21.5469L215.056 18.6463L219.2 16.9889L225.415 16.1602Z" fill="#1B68AF"/>
<path d="M118.508 16.1602H130.939L132.596 19.8894L137.154 31.906L142.541 46.4088V47.6519H143.37L144.198 43.9226L147.099 36.464L150.828 26.5193L154.972 16.1602H167.403L166.988 19.0607L155.801 48.895L150 64.2265L149.585 65.0552H136.74L134.668 60.9115L130.11 48.4806L124.309 33.1491L118.922 18.6463L118.508 16.1602Z" fill="#1B68AE"/>
<path d="M172.789 42.6797H195.579V59.2543L194.336 63.3979L191.435 66.7128L189.364 67.9559L186.463 68.7847H181.905L178.176 67.5416L176.104 66.2985L173.618 62.5692L172.789 60.4974V42.6797Z" fill="#1B68AF"/>
<path d="M181.905 12.8452H186.877L190.607 14.5027L193.922 17.4032L195.165 19.8894L195.579 21.9612V38.9502H173.203L172.789 38.1215V21.9612L174.032 18.232L176.518 15.3314L180.248 13.2596L181.905 12.8452Z" fill="#009B99"/>
<path d="M281.77 72.0996H292.543L294.615 73.7571V78.7294L293.786 80.3869L292.958 80.8013H281.355V74.1714L281.77 72.0996Z" fill="#009C99"/>
<path d="M223.758 72.0996H227.073L229.559 75.8289L229.973 77.9007L231.631 76.2433L234.117 72.0996H249.034V74.1714L245.305 74.5858L244.89 80.8013H241.99V74.1714H237.846L237.432 72.9283L236.189 75.0002L232.874 80.8013H228.73L226.244 77.072L223.758 72.9283V72.0996Z" fill="#009B99"/>
<path d="M178.176 72.0996H188.949L190.192 73.3427V76.6576V77.9007V80.8013H187.292V78.7294H181.491V80.8013H178.59L178.176 77.4863V72.0996Z" fill="#009B99"/>
<path d="M211.324 72.0996H221.683L222.926 73.7571V77.072L221.269 78.7294L214.639 79.1438L214.225 80.8013H211.324V72.0996Z" fill="#009B99"/>
<path d="M153.315 71.6851H159.945L162.017 72.9282L162.431 73.3425V75.4143L159.116 75V74.1712H153.315V77.0718L153.729 78.3149H158.702L159.53 77.4862H162.431L162.017 80.3867L159.945 81.2154H152.901L150.414 79.9724L150 79.1436V73.7569L151.657 72.0994L153.315 71.6851Z" fill="#009C99"/>
<path d="M87.8438 72.0996H98.6172V74.1714H91.1587V75.4145H98.2029V77.4863H91.1587V78.7294H98.6172V80.8013H87.8438V72.0996Z" fill="#009A99"/>
<path d="M192.266 72.0996H203.039V74.1714H195.166V75.4145H202.21L202.625 77.072L202.21 77.4863H195.166V78.7294H203.039V80.8013H192.266V72.0996Z" fill="#009B99"/>
<path d="M168.23 72.0996H172.374L176.103 78.3151L176.932 79.5582V80.8013H174.031L173.203 79.9725H166.987L166.573 80.8013H163.258L164.087 78.7294L167.816 72.514L168.23 72.0996Z" fill="#009B99"/>
<path d="M104.422 72.0996H108.98L113.538 79.9725V80.8013H110.223L109.808 79.9725H103.593L103.179 80.8013H99.4492L102.764 75.0002L104.422 72.0996Z" fill="#009C99"/>
<path d="M73.7578 72.0996H77.0727V75.0002L82.8738 75.4145V72.0996H86.1888V80.8013H82.8738V77.4863L77.0727 77.9007V80.8013H73.7578V72.0996Z" fill="#009B99"/>
<path d="M135.91 72.0996H138.811L139.225 75.0002L145.026 75.4145V72.0996H147.927V80.8013H145.026V77.4863L139.225 77.9007L138.811 80.8013H135.91V72.0996Z" fill="#009B99"/>
<path d="M268.922 72.0996H280.11V74.1714H276.38V80.8013H273.066V74.1714H269.336L268.922 72.0996Z" fill="#009A99"/>
<path d="M123.48 72.0996H134.668V74.1714H130.525V80.8013H127.624L127.21 80.3869V74.5858L123.48 74.1714V72.0996Z" fill="#009A99"/>
<path d="M260.637 72.0996H263.952V78.7294H270.167V80.8013H260.637V72.0996Z" fill="#009C99"/>
<path d="M115.195 72.0996H118.096V78.7294H124.726V80.8013H115.195V72.0996Z" fill="#009C99"/>
<path d="M284.668 74.1714H290.469L291.298 75.0001V78.315L290.883 78.7294H284.668V74.1714Z" fill="#FEFEFE"/>
<path d="M181.492 74.1714H186.879L187.293 75.8288L186.879 76.2432H181.492V74.1714Z" fill="#FEFEFE"/>
<path d="M214.641 74.1714H219.613V76.2432H214.227L214.641 74.1714Z" fill="#FEFEFE"/>
<path d="M297.098 78.3149H299.998V80.8011H297.098V78.3149Z" fill="#009C99"/>
<path d="M248.203 78.3149H251.104V80.8011H248.203V78.3149Z" fill="#02989A"/>
<path d="M169.888 74.5854L171.959 76.6573L171.545 77.486L168.645 77.0716L169.888 74.5854Z" fill="#FEFEFE"/>
<path d="M106.493 74.1714L108.151 76.2432L108.565 77.0719H105.25L106.079 75.0001L106.493 74.1714Z" fill="#FEFEFE"/>
</svg>
