<svg width="289" height="100" viewBox="0 0 289 100" fill="none" xmlns="http://www.w3.org/2000/svg">
<path d="M5.08806 0H67.1233L69.0802 0.587084L70.2544 1.36986L71.4286 2.73973L71.82 3.5225V97.0646L70.6458 98.6301L69.4716 99.4129L68.8845 99.6086L65.1663 99.8043H4.30528L2.73973 99.4129L1.17417 97.8474L0.195695 95.6947L0 93.7378V8.80626L0.195695 4.89237L0.782779 3.13112L1.56556 1.95695L2.93542 0.782779L4.10959 0.195695L5.08806 0ZM33.2681 6.26223L32.4853 6.65362L29.9413 7.04501L27.2016 8.02348L25.2446 9.58904L23.2877 11.546L21.9178 13.6986L21.3307 15.2642L21.135 16.6341V23.092L21.3307 25.2446V39.726L20.9393 46.9667L20.5479 49.3151L17.4168 51.0763L15.6556 52.4462L15.0685 53.229L14.8728 55.1859L15.6556 57.3386L17.2211 59.2955L18.591 60.8611L18.9824 61.4481L18.7867 62.818L18.1996 65.9491L17.4168 69.863L16.2427 72.407L16.047 73.9726L15.8513 79.0607V82.9746L16.4384 85.3229L17.4168 86.4971L19.1781 87.2798L21.135 87.4755L21.9178 86.4971L23.092 82.3875L24.6575 74.364L26.2231 68.8845L26.8102 67.319L28.7671 68.2975L32.4853 71.0372L37.7691 74.5597L41.4873 77.1037L44.6184 79.2564L48.1409 81.8004L50.6849 83.7573L54.4031 86.3014L57.9256 88.2583L62.0352 90.2153L66.3405 90.6067H68.1018V89.8239L66.5362 87.8669L64.1879 84.3444L62.0352 81.0176L60.274 79.0607L57.7299 77.1037L54.9902 74.7554L52.2505 72.6027L45.9883 67.5147L44.0313 65.9491L42.0744 64.1879L40.1174 62.6223L37.5734 60.274L36.0078 58.9041L34.2466 56.9472L33.0724 54.9902L32.8767 54.5988V53.4247L33.8552 52.2505L37.3777 50.6849L40.5088 49.9022L43.6399 48.1409L45.7926 47.5538L48.728 45.9883L50.4892 45.2055L52.0548 44.0313L55.773 42.4658L60.274 40.1174L63.6008 37.9648L65.5577 36.2035L66.9276 34.8337L68.1018 32.8767L68.8845 30.3327V26.4188L68.1018 23.4834L66.5362 20.5479L64.3836 18.1996L62.2309 16.2427L59.4912 14.2857L56.1644 12.5245L50.6849 10.3718L47.3581 9.19765L45.2055 8.41487L39.726 7.2407L33.2681 6.26223Z" fill="#850616"/>
<path d="M247.165 6.45801H248.926L249.904 7.04509L250.296 7.63218V9.39343L249.317 11.3504L247.556 13.6987L245.403 16.047L236.206 25.2447L234.64 26.6146L232.488 28.5715L230.335 30.3328L228.574 32.094L226.421 33.8553L224.073 36.0079L222.507 37.3778L219.963 39.5304L217.419 41.4874L214.679 43.8357L212.135 45.9883L209.396 48.3367L208.221 49.3152V51.6635L209.591 50.8807L212.722 48.3367L216.049 45.9883L219.572 43.4443L221.724 42.0744L226.812 38.7476L230.335 36.3993L232.488 35.0294L237.38 32.4854L239.728 31.7026H242.859L244.816 32.6811L246.186 34.2467L246.969 36.3993L247.165 38.3562L246.578 40.5089L245.599 42.4658L244.425 43.8357L242.272 45.597L240.315 46.9668L233.466 50.685L230.531 52.2506L227.008 53.8161H226.617L227.987 55.9688L229.748 57.5343L230.922 57.9257H234.836L237.184 57.3386L240.902 55.7731L245.403 53.4247L248.926 51.0764L249.709 49.5108L253.623 46.7711L257.145 44.2271L259.885 42.2701L262.233 40.5089L265.364 37.9649L268.3 35.2251L269.865 32.094L271.235 29.7457L272.409 28.7672L273.975 28.1801H276.91L277.889 28.7672L278.476 29.55L279.454 34.4424L280.824 39.7261V43.64L280.041 46.184L279.259 47.7496L277.693 49.7065L274.758 52.642L271.235 55.186L269.474 56.3602L268.104 57.1429L267.908 57.5343L269.083 57.73H271.235L274.758 57.1429L277.497 56.1645L281.803 54.0118L286.304 51.2721L288.065 49.9022H288.456V52.4463L288.065 53.8161L285.325 55.5774L282.39 57.5343L278.867 59.687L274.171 62.231L271.039 63.6009L266.343 64.5793H261.45L257.341 63.6009L254.21 62.0353L252.448 60.8611L251.079 59.0999L250.687 58.1214V55.5774L251.47 54.2075L253.231 53.0333L254.21 52.642H256.362L258.319 53.0333L261.646 54.5989L262.82 55.3817L263.799 55.186L266.147 53.6204L267.908 52.0549L269.083 50.0979L270.061 47.9453L270.257 46.5754V43.4443L269.67 38.9433L268.887 39.139L266.734 40.7046L264.19 42.6615L260.668 45.4013L256.949 48.141L253.818 50.2936L250.687 52.642L250.492 53.6204L248.143 55.3817L244.425 58.1214L241.881 59.8827L238.163 62.231L233.662 64.3836L231.509 65.1664L228.574 65.5578L225.834 65.3621L223.094 63.9923L221.137 62.4267L219.18 60.6654L217.615 59.0999L215.071 55.5774L214.679 54.9903H213.701L211.94 56.7515L210.374 58.7085L208.417 61.4482L206.852 62.8181L206.264 63.0138H204.699L203.525 62.0353L202.742 60.2741L201.959 56.3602L201.764 54.9903H201.176L198.437 56.9472L194.914 59.4913L190.022 62.4267L186.304 64.3836L184.542 65.1664L182.585 65.5578H181.216L179.846 65.1664L178.867 64.188L177.889 62.6224V59.2956L178.867 56.3602L180.824 52.0549L180.237 51.8592L177.889 53.6204L174.366 56.3602L168.495 60.2741L163.603 62.8181L162.233 63.2095H159.885L157.928 62.231L156.362 60.6654L154.405 57.73L153.231 55.186L152.84 54.0118V50.2936L153.623 48.3367L154.797 46.5754L157.341 44.0314L161.059 41.2917L165.169 38.9433L172.214 35.4208L177.889 33.2682L182.585 31.8983L187.282 30.9198L190.413 30.7242L192.762 31.1155L195.11 32.4854L196.088 33.8553L196.284 35.2251L195.306 36.2036L193.544 37.1821L194.523 37.9649L195.501 39.139L195.697 40.5089L195.306 42.0744L193.936 43.8357L190.805 47.1625L189.239 48.7281L188.065 50.4893L186.891 52.8377V54.7946L187.674 55.7731L188.848 56.3602H191.783L194.327 55.3817L196.871 54.0118L200.198 51.8592L201.568 50.8807L202.742 47.7496L204.112 44.6185L205.873 41.6831L207.634 39.3347L209.396 37.1821L211.353 34.638L213.505 32.2897L214.875 30.7242L215.854 29.55H216.245L216.636 28.7672L218.006 27.3973L219.572 26.0275L223.486 22.505L225.247 20.9394L227.987 18.7868L230.922 16.4384L234.249 14.0901L238.163 11.3504L241.685 9.00204L244.425 7.43648L246.382 6.6537L247.165 6.45801ZM185.717 39.3347L181.216 40.5089L174.758 42.6615L170.257 44.6185L166.538 46.3797L163.603 48.141L161.646 49.9022L160.668 51.8592L160.276 53.8161V55.7731L160.668 56.7515L162.233 57.1429L163.994 56.7515L167.321 55.186L171.431 52.642L173.779 50.8807L175.736 49.3152L178.476 47.1625L181.216 44.8142L183.955 42.6615L186.304 40.3132L186.695 39.5304L185.717 39.3347ZM236.01 40.1175L234.249 40.5089L231.313 41.6831L227.4 43.8357L224.268 46.184L221.529 48.141L220.355 49.1195L220.55 49.7065L222.116 50.4893L223.094 51.2721L224.268 51.6635L226.812 50.0979L230.726 47.7496L232.488 46.5754L234.445 45.2056L236.793 43.0529L237.576 41.4874L237.38 40.5089L236.989 40.1175H236.01Z" fill="#850616"/>
<path d="M125.246 3.91406H138.162L143.054 4.30545L146.968 4.89254L151.469 6.0667L154.992 7.63226L157.144 9.19782L158.71 10.7634L160.08 13.5031V16.8299L159.101 20.1567L157.536 23.6792L155.579 26.6146L153.817 28.5716L151.665 30.3328L148.925 31.8984L145.794 33.2683L140.315 34.8338L135.814 36.008L130.53 37.1822L121.332 38.7477L106.264 40.9004L104.307 41.2918L104.698 41.6831L107.046 42.4659L112.526 43.8358L119.571 45.7927L124.463 47.1626L130.138 48.9238L135.814 50.8808L142.272 53.2291L145.598 54.7947L146.968 55.9689L148.142 58.3172L148.534 60.6655V63.601L147.947 65.3622L147.164 66.145H144.033L139.923 64.7751L134.835 62.8182L125.442 59.4914L118.397 57.143L110.96 54.599L105.285 53.0334L100.589 51.4679L97.066 50.6851V51.0765L96.0876 52.055L94.522 54.0119L92.3694 56.5559L90.2167 59.2957L88.6512 61.4483V62.8182L87.8684 64.3837L87.0856 65.3622L85.3243 66.5364L83.3674 67.3191L80.8234 67.7105L79.6492 67.1235L79.2578 66.3407V64.9708L80.0406 62.6225L81.9975 59.2957L84.5416 55.7732L87.2813 52.2507L89.2382 49.3152L89.8253 48.3368L88.0641 47.554L86.4985 46.5755L85.9114 45.9884L85.52 44.4229L85.9114 42.6616L86.6942 41.4874L87.6727 40.3133L90.4124 38.552L92.7607 37.5736L97.8488 36.2037L98.4359 36.008L100.589 35.8123L101.567 34.8338L104.111 31.7027L109.395 25.2448L111.352 22.7008L113.896 19.1783L115.266 17.2213L111.743 17.6127L103.915 18.9826L99.023 20.1567L95.8919 21.3309L95.3048 21.918H98.0445L100.98 22.5051L101.763 23.0921L101.567 23.8749L98.8273 24.462L92.3694 25.2448L85.7157 26.0276H82.3889L80.8234 25.2448L80.2363 24.462V21.918L81.2148 19.1783L82.5846 16.8299L84.5416 14.2859L85.7157 12.916L87.477 11.5462L90.4124 9.9806L93.7392 8.61074L99.6101 7.04518L105.285 5.87101L113.113 4.69684L120.158 4.10976L125.246 3.91406ZM136.401 15.0687L130.138 15.4601L121.724 16.2428L121.332 16.4385L120.549 19.5696L119.375 21.5266L116.636 25.2448L114.287 28.3759L111.743 31.7027L110.765 33.2683V33.6597H112.722L120.354 32.2898L125.637 31.1156L133.074 29.1587L139.532 27.2017L143.641 25.6362L147.751 23.4835L149.904 21.7223L151.469 20.3524L152.643 18.3955L152.448 17.417L151.469 16.4385L148.142 15.4601L143.054 15.0687H136.401Z" fill="#850616"/>
<path d="M26.811 67.123L28.768 68.1015L32.4862 70.8412L37.7699 74.3638L41.4881 76.9078L44.6192 79.0604L48.1417 81.6045L50.6858 83.5614L54.404 86.1054L57.9265 88.0624L62.0361 90.0193L66.3414 90.4107H68.494L70.0596 91.9763L71.8208 94.1289L71.6251 95.4988L70.8423 97.26L69.6682 98.6299L68.6897 99.0213L46.1848 99.217H7.04586L4.30613 98.6299L2.74057 97.26L1.56641 95.3031L1.7621 93.5418L3.13196 91.3892L5.28461 88.2581L6.65447 86.6925L7.43725 85.5184L9.00281 83.3657L11.7425 79.2561L14.0909 75.9293L14.8736 74.7551L15.8521 73.581L16.2435 73.1896L16.0478 79.0604V82.9743L16.6349 85.3227L17.4177 86.3011L19.1789 87.0839L21.1359 87.2796L21.723 86.4968L22.8971 82.3872L24.4627 74.3638L26.0282 68.8843L26.811 67.123Z" fill="#AAAAAD"/>
<path d="M29.7475 18.1997H31.5088L32.683 18.3954L33.0743 18.1997L35.4227 18.3954L41.8806 19.3739L45.9902 20.3523L49.317 21.5265L52.4481 23.0921L54.7965 25.2447L56.362 26.8103L57.7319 28.9629L57.9276 30.3328L57.1448 31.5069L54.9922 33.8553L52.6438 35.8122L50.4912 37.3778L47.5558 39.139L45.5988 40.1175L44.816 40.9003L41.8806 41.8788L39.1409 43.2486L37.5753 43.8357L34.0528 44.2271L33.0743 45.7927L31.5088 46.3797H30.726L30.9217 44.6185L31.9002 40.7046L33.0743 36.7907L33.4657 34.8338L34.0528 33.4639L34.4442 30.3328L35.227 28.1801V26.4189L34.0528 24.2662L32.8787 23.4835L31.7045 23.2878L29.5518 24.4619L27.9863 25.6361L27.2035 26.0275L27.0078 20.7437L27.7906 19.1782L28.9648 18.3954L29.7475 18.1997Z" fill="#850616"/>
<path d="M79.4519 86.4971H164.383V90.411L164.188 90.6067H78.4734L78.082 89.6282V86.8885L79.4519 86.4971Z" fill="#850616"/>
<path d="M78.2773 96.0859H164.383L164.187 99.8041L163.992 99.9998H153.228L79.4515 99.8041L78.473 99.6084L78.2773 99.0214V96.0859Z" fill="#20171A"/>
<path d="M40.5075 49.7065L41.4859 50.0979L42.073 50.685L42.8558 52.2506L44.4214 54.4032L46.3783 57.3386L47.7482 59.2956L49.7051 62.4267L51.075 64.3836L51.8578 65.9492L54.2061 69.6674L56.3587 72.7985L57.1415 73.9727L60.0769 78.4737L59.8813 79.0608L57.3372 76.9081L54.0104 74.1684L51.2707 72.0157L49.118 70.2545L45.9869 67.7105L44.03 66.1449L42.073 64.3836L40.1161 62.8181L37.5721 60.4698L36.0065 59.0999L34.0496 56.9472L32.8754 54.9903L32.6797 54.5989V53.4247L33.8539 52.0549L37.3764 50.4893L40.5075 49.7065Z" fill="#AAAAAD"/>
<path d="M246.184 34.6382L246.575 35.0296L247.162 37.3779L246.967 39.3349L246.38 41.0961L246.184 40.3133L245.988 38.9435L246.184 38.3564V34.6382Z" fill="#850717"/>
<path d="M220.158 38.1606H220.745L220.549 38.9434L218.396 40.7047H217.418L217.614 40.1176L219.179 39.3348L220.158 38.1606Z" fill="#78081A"/>
<path d="M215.851 41.4873L216.438 41.683L216.242 42.4658L215.851 42.8572L214.872 43.2486H214.285L214.677 42.4658L215.851 41.4873Z" fill="#760617"/>
<path d="M277.886 48.728H278.277L277.886 49.5108L276.712 50.685H276.32L276.516 49.9022L276.907 49.3151H277.494V48.9237L277.886 48.728Z" fill="#780617"/>
<path d="M235.421 25.0488H235.813L235.421 25.8316L234.247 27.0058L233.66 26.8101L234.443 25.8316H234.834V25.4402L235.421 25.0488Z" fill="#780617"/>
<path d="M195.11 39.3345H195.501L195.697 40.5086L195.501 41.2914L194.914 41.0957V39.7259L195.11 39.3345Z" fill="#781223"/>
<path d="M172.891 98.7254V79.895H179.603C181.068 79.895 182.281 80.1617 183.244 80.6949C184.206 81.2282 184.926 81.9577 185.404 82.8832C185.882 83.8027 186.122 84.8386 186.122 85.991C186.122 87.1495 185.879 88.1915 185.395 89.1171C184.917 90.0366 184.194 90.766 183.225 91.3054C182.263 91.8387 181.052 92.1053 179.593 92.1053H174.978V89.6964H179.336C180.262 89.6964 181.012 89.537 181.589 89.2183C182.165 88.8934 182.588 88.452 182.857 87.8942C183.127 87.3364 183.262 86.702 183.262 85.991C183.262 85.2799 183.127 84.6486 182.857 84.0969C182.588 83.5452 182.162 83.1131 181.579 82.8005C181.003 82.4879 180.243 82.3316 179.299 82.3316H175.732V98.7254H172.891Z" fill="#AAAAAD"/>
<path d="M193.275 90.34V98.7254H190.526V79.895H193.239V86.9012H193.413C193.744 86.1412 194.25 85.5374 194.93 85.0899C195.611 84.6425 196.5 84.4187 197.597 84.4187C198.565 84.4187 199.411 84.6179 200.134 85.0164C200.864 85.4148 201.428 86.0094 201.826 86.8001C202.231 87.5847 202.433 88.5654 202.433 89.7423V98.7254H199.684V90.0733C199.684 89.0374 199.417 88.2344 198.884 87.6644C198.351 87.0882 197.609 86.8001 196.659 86.8001C196.009 86.8001 195.427 86.938 194.912 87.2139C194.403 87.4897 194.002 87.8942 193.707 88.4275C193.419 88.9547 193.275 89.5922 193.275 90.34Z" fill="#AAAAAD"/>
<path d="M211.506 99.038C210.611 99.038 209.802 98.8725 209.079 98.5415C208.356 98.2044 207.782 97.7171 207.359 97.0796C206.943 96.4421 206.734 95.6605 206.734 94.735C206.734 93.9381 206.887 93.2822 207.194 92.7673C207.5 92.2524 207.914 91.8448 208.435 91.5445C208.956 91.2441 209.539 91.0173 210.182 90.8641C210.826 90.7108 211.482 90.5944 212.15 90.5147C212.996 90.4166 213.682 90.3369 214.209 90.2756C214.737 90.2082 215.12 90.1009 215.359 89.9538C215.598 89.8067 215.717 89.5676 215.717 89.2366V89.1723C215.717 88.3693 215.491 87.7471 215.037 87.3058C214.589 86.8645 213.921 86.6438 213.033 86.6438C212.107 86.6438 211.377 86.8491 210.844 87.2598C210.317 87.6644 209.952 88.1149 209.75 88.6114L207.166 88.023C207.473 87.1648 207.92 86.4722 208.509 85.945C209.103 85.4117 209.787 85.0256 210.559 84.7865C211.332 84.5413 212.144 84.4187 212.996 84.4187C213.56 84.4187 214.157 84.4861 214.789 84.621C215.426 84.7497 216.021 84.9888 216.572 85.3382C217.13 85.6876 217.587 86.1871 217.942 86.8369C218.298 87.4805 218.476 88.3172 218.476 89.347V98.7254H215.791V96.7945H215.681C215.503 97.1501 215.236 97.4995 214.881 97.8427C214.525 98.186 214.068 98.471 213.511 98.6978C212.953 98.9246 212.285 99.038 211.506 99.038ZM212.104 96.8313C212.864 96.8313 213.514 96.6811 214.053 96.3808C214.599 96.0804 215.012 95.6881 215.294 95.2039C215.582 94.7135 215.726 94.1894 215.726 93.6316V91.8111C215.628 91.9092 215.438 92.0011 215.156 92.0869C214.881 92.1666 214.565 92.2371 214.209 92.2984C213.854 92.3536 213.508 92.4057 213.17 92.4547C212.833 92.4976 212.551 92.5344 212.325 92.5651C211.791 92.6325 211.304 92.7459 210.863 92.9053C210.427 93.0646 210.078 93.2945 209.814 93.5948C209.557 93.8891 209.428 94.2814 209.428 94.7717C209.428 95.4521 209.68 95.967 210.182 96.3164C210.685 96.6597 211.325 96.8313 212.104 96.8313Z" fill="#AAAAAD"/>
<path d="M223.432 98.7254V84.6026H226.089V86.8461H226.236C226.494 86.086 226.947 85.4883 227.597 85.0531C228.253 84.6118 228.995 84.3911 229.822 84.3911C229.994 84.3911 230.196 84.3973 230.429 84.4095C230.668 84.4218 230.855 84.4371 230.99 84.4555V87.0851C230.88 87.0545 230.683 87.0208 230.401 86.984C230.119 86.9411 229.837 86.9196 229.556 86.9196C228.906 86.9196 228.326 87.0575 227.818 87.3334C227.315 87.6031 226.917 87.9801 226.622 88.4643C226.328 88.9424 226.181 89.488 226.181 90.1009V98.7254H223.432Z" fill="#AAAAAD"/>
<path d="M234.664 98.7254V84.6026H237.302V86.9012H237.477C237.771 86.1228 238.252 85.5159 238.921 85.0807C239.589 84.6394 240.389 84.4187 241.32 84.4187C242.264 84.4187 243.055 84.6394 243.693 85.0807C244.336 85.5221 244.811 86.1289 245.118 86.9012H245.265C245.602 86.1473 246.138 85.5466 246.874 85.0991C247.609 84.6455 248.486 84.4187 249.503 84.4187C250.785 84.4187 251.83 84.8202 252.639 85.6232C253.454 86.4262 253.862 87.6368 253.862 89.255V98.7254H251.113V89.5125C251.113 88.5563 250.852 87.8636 250.331 87.4345C249.81 87.0054 249.188 86.7909 248.464 86.7909C247.57 86.7909 246.874 87.0667 246.377 87.6184C245.881 88.164 245.633 88.8658 245.633 89.724V98.7254H242.893V89.3378C242.893 88.5716 242.654 87.9555 242.175 87.4897C241.697 87.0238 241.075 86.7909 240.309 86.7909C239.788 86.7909 239.307 86.9288 238.865 87.2047C238.43 87.4744 238.078 87.8513 237.808 88.3356C237.544 88.8198 237.413 89.3807 237.413 90.0182V98.7254H234.664Z" fill="#AAAAAD"/>
<path d="M262.951 99.038C262.056 99.038 261.247 98.8725 260.524 98.5415C259.8 98.2044 259.227 97.7171 258.804 97.0796C258.387 96.4421 258.179 95.6605 258.179 94.735C258.179 93.9381 258.332 93.2822 258.639 92.7673C258.945 92.2524 259.359 91.8448 259.88 91.5445C260.401 91.2441 260.983 91.0173 261.627 90.8641C262.271 90.7108 262.926 90.5944 263.595 90.5147C264.44 90.4166 265.127 90.3369 265.654 90.2756C266.181 90.2082 266.564 90.1009 266.803 89.9538C267.042 89.8067 267.162 89.5676 267.162 89.2366V89.1723C267.162 88.3693 266.935 87.7471 266.482 87.3058C266.034 86.8645 265.366 86.6438 264.477 86.6438C263.552 86.6438 262.822 86.8491 262.289 87.2598C261.762 87.6644 261.397 88.1149 261.195 88.6114L258.611 88.023C258.918 87.1648 259.365 86.4722 259.953 85.945C260.548 85.4117 261.232 85.0256 262.004 84.7865C262.776 84.5413 263.588 84.4187 264.44 84.4187C265.004 84.4187 265.602 84.4861 266.233 84.621C266.871 84.7497 267.465 84.9888 268.017 85.3382C268.575 85.6876 269.032 86.1871 269.387 86.8369C269.743 87.4805 269.92 88.3172 269.92 89.347V98.7254H267.236V96.7945H267.125C266.947 97.1501 266.681 97.4995 266.325 97.8427C265.97 98.186 265.513 98.471 264.955 98.6978C264.397 98.9246 263.729 99.038 262.951 99.038ZM263.549 96.8313C264.309 96.8313 264.958 96.6811 265.498 96.3808C266.043 96.0804 266.457 95.6881 266.739 95.2039C267.027 94.7135 267.171 94.1894 267.171 93.6316V91.8111C267.073 91.9092 266.883 92.0011 266.601 92.0869C266.325 92.1666 266.01 92.2371 265.654 92.2984C265.299 92.3536 264.952 92.4057 264.615 92.4547C264.278 92.4976 263.996 92.5344 263.769 92.5651C263.236 92.6325 262.749 92.7459 262.307 92.9053C261.872 93.0646 261.523 93.2945 261.259 93.5948C261.002 93.8891 260.873 94.2814 260.873 94.7717C260.873 95.4521 261.124 95.967 261.627 96.3164C262.13 96.6597 262.77 96.8313 263.549 96.8313Z" fill="#AAAAAD"/>
</svg>
