<svg width="300" height="100" viewBox="0 0 300 100" fill="none" xmlns="http://www.w3.org/2000/svg">
<path d="M32.2249 18.7974H40.6647L42.9665 20.3319L44.501 22.25L44.8846 23.4009V63.2984L43.3501 69.4364L41.0483 73.2727L37.5957 76.3417L31.8412 79.0272L25.3195 80.5617H18.4142L12.2761 79.0272L8.43985 77.109L5.37081 74.4236L2.30178 69.0528L0.767259 63.682L0 57.1603L0.383629 50.6386L1.91815 44.5005L4.60355 39.1297L8.82348 34.5262L14.1943 31.8408L16.1124 31.4571H22.6341L26.4704 32.608L30.6904 35.677L31.8412 37.2116L32.2249 18.7974Z" fill="#274178"/>
<path d="M64.068 31.4575H72.5079L78.2623 32.992L81.715 34.9102L85.5513 38.3628L87.853 42.1991L89.3876 46.0354L90.1548 49.4881L90.5384 52.9408V59.4625L60.2317 59.8461L60.6153 62.9151L62.5335 66.7514L62.9171 67.9023L64.8353 68.6695L67.9043 69.4368L72.5079 69.0532L74.8096 67.9023L76.7278 65.6005L80.1805 64.4496H89.7712L89.3876 67.135L87.0858 71.7386L83.6331 75.5749L80.1805 77.8766L75.5769 79.7948L71.7406 80.5621H65.2189L59.0808 79.0275L55.2445 76.7258L53.71 75.5749V74.8076H52.9428L49.4901 69.8204L47.9556 65.9841L46.8047 60.2297V51.4062L47.9556 45.6518L49.8737 41.0482L52.5591 37.5956L56.3954 34.1429L60.999 32.2248L64.068 31.4575Z" fill="#194E96"/>
<path d="M198.336 31.4575H207.159L213.681 32.992L217.901 35.2938L220.203 37.9792L221.737 40.6646L222.121 42.5828V64.066L220.97 69.4368L219.052 72.8895L216.75 75.5749L211.379 78.6439L206.392 80.1784L202.556 80.5621H195.651L191.047 79.4112L187.211 77.493L184.142 74.424L182.607 71.355L181.84 64.8333L182.607 60.6133L184.142 57.1607L185.676 55.2425L189.896 52.5571L194.116 51.0226L205.241 49.1045L209.078 47.5699L209.461 46.8027V43.7337L206.009 42.1991H199.103L196.801 43.35L195.651 44.8845H183.374L183.758 42.1991L185.293 38.7465L187.978 35.6774L191.431 33.3757L196.034 31.8411L198.336 31.4575Z" fill="#A9CE52"/>
<path d="M242.452 31.4575H248.973L254.728 32.992L259.331 35.2938L262.784 38.3628L264.702 42.1991L265.853 46.4191L266.237 50.2553V78.2603L265.853 79.4112H257.413L254.344 77.1094L253.577 75.5749L253.193 72.1222V53.708L252.81 46.4191L251.275 44.1173L247.439 42.1991H243.603L239.766 44.1173L238.615 46.0354L238.232 46.8027L237.848 54.8589L237.464 79.4112H224.805V48.3372L225.956 42.5828L228.257 38.3628L231.326 35.6774L237.464 32.6084L242.452 31.4575Z" fill="#77BC50"/>
<path d="M155.371 31.4575H162.66L168.415 32.992L172.635 35.2938L174.936 37.212L177.622 41.0482L179.924 46.4191V47.1863H166.88L165.346 44.8845L163.427 43.35L161.509 42.5828H157.289L154.22 43.7337L152.302 45.6518L150.768 49.4881L150 54.4753L150.384 60.997L151.919 65.2169L153.453 67.5187L156.139 69.0532L157.673 69.4368H161.509L165.346 67.9023L168.798 64.8333H180.307L179.156 68.6695L177.238 72.1222L174.169 75.5749L169.949 78.2603L164.195 80.1784L161.509 80.5621H156.139L150.768 79.4112L145.397 76.7258L141.561 72.8895L139.259 68.6695L137.724 64.066L136.957 58.6952V52.1735L138.108 45.6518L141.177 39.5137L144.63 35.6774L148.466 33.3757L153.069 31.8411L155.371 31.4575Z" fill="#20A2D8"/>
<path d="M109.717 31.4575H117.773L123.528 32.992L127.748 35.2938L131.201 38.7465L134.27 44.5009L134.653 47.1863H121.993L119.692 44.1173L116.239 42.5828H112.019L109.334 43.7337L107.415 45.6518L106.265 47.5699L105.114 52.5571V59.0788L106.265 63.6824L107.799 66.7514L109.717 68.2859L113.17 69.4368H115.855L119.692 68.2859L122.377 65.6005L123.528 64.8333L125.83 64.4496H135.037L134.653 67.135L131.968 72.5058L128.131 76.3421L124.295 78.6439L119.308 80.1784L117.006 80.5621H110.485L105.881 79.4112L100.51 76.7258L97.0575 73.2731L94.3721 68.6695L92.8376 64.066L92.0703 57.9279L92.4539 49.8717L93.6048 45.2682L95.523 40.6646L98.2084 37.212L102.045 34.1429L106.265 32.2248L109.717 31.4575Z" fill="#3462A7"/>
<path d="M276.982 0H282.353L285.422 0.383629L285.806 3.06903L283.12 9.59073L281.586 13.8107V15.7288L283.504 13.8107L286.573 6.90533L288.491 3.06903L290.409 2.30178L295.013 6.5217L297.698 9.2071L297.314 10.7416L295.78 12.2761L286.189 16.4961L284.655 18.0306L288.875 17.2633L296.547 14.1943H299.233L300 15.7288V23.4014L299.616 25.3195L298.849 25.7032H296.164L288.107 22.2505L284.655 21.8669L286.189 23.4014L295.78 27.6213L297.314 29.1558L296.931 31.074L291.176 36.8284L289.258 37.212L287.34 35.2939L283.887 27.2377L282.353 24.9359L281.969 24.5523V27.6213L285.806 36.4448V38.7465L285.422 39.5138L284.271 39.8974H275.448L274.297 39.1302L273.913 36.8284L276.598 30.3067L277.749 27.6213V24.5523L276.215 26.0868L272.762 34.143L271.611 36.4448L270.844 37.212L268.926 36.8284L265.09 33.3757L262.404 30.3067L262.788 28.7722L264.322 27.2377L272.762 23.785L274.68 21.8669L271.611 22.2505L262.788 25.7032L260.102 25.3195L259.719 24.9359V14.9615L260.87 14.1943L264.322 14.5779L271.995 17.6469H275.064L273.146 16.1124L263.171 11.8925L262.021 9.97436L262.788 8.43984L268.926 2.30178L270.844 2.6854L272.379 4.60355L275.831 13.0434L278.517 15.3452L276.982 9.97436L274.297 3.83629L273.913 1.91815L274.297 0.383629L276.982 0Z" fill="#A8CD52"/>
<path d="M20.7156 42.583H24.1682L27.2373 43.7339L29.9227 46.0357L31.4572 49.1047L32.2244 52.941V59.0791L31.0736 64.0662L29.1554 67.1353L27.2373 68.6698L25.7027 69.4371L22.2501 69.8207L18.7974 69.0534L16.4956 67.5189L14.9611 65.6008L13.4266 62.1481L13.043 59.8463V51.7901L14.1939 47.9538L15.7284 45.652L18.4138 43.3503L20.7156 42.583Z" fill="#FEFEFD"/>
<path d="M209.462 56.3931H210.23V61.7639L209.462 65.2165L207.161 68.2856L203.324 70.2037L198.721 70.5873L196.035 69.8201L194.501 68.2856L194.117 67.1347V63.2984L195.268 61.3802L198.337 59.4621L206.01 57.544L209.462 56.3931Z" fill="#FEFEFD"/>
<path d="M277.75 19.5654H281.97V27.6216L285.807 36.4451V38.7469L285.423 39.5141L284.272 39.8978H275.449L274.298 39.1305L273.914 36.8287L276.599 30.307L277.75 27.6216V19.5654Z" fill="#3364A8"/>
<path d="M66.753 42.1987H70.2056L73.6583 43.3496L75.9601 46.035L77.111 49.4877V51.0222H60.2313L59.8477 49.4877L61.3822 45.6514L64.4512 42.966L66.753 42.1987Z" fill="#FEFEFD"/>
<path d="M209.459 56.3931H210.226V61.7639H209.843V58.3112L207.541 57.9276L204.855 58.3112L206.006 57.544L209.459 56.3931Z" fill="#FEFFF6"/>
<path d="M85.4355 92.7663H89.7675V93.7983H85.4355V92.7663ZM85.5555 97.1943H84.3555V88.7943H90.2835V89.8383H85.5555V97.1943Z" fill="#737374"/>
<path d="M91.8046 97.1943V90.8343H92.9566V97.1943H91.8046ZM92.3806 89.6103C92.1566 89.6103 91.9686 89.5383 91.8166 89.3943C91.6726 89.2503 91.6006 89.0743 91.6006 88.8664C91.6006 88.6504 91.6726 88.4704 91.8166 88.3264C91.9686 88.1824 92.1566 88.1104 92.3806 88.1104C92.6046 88.1104 92.7886 88.1824 92.9326 88.3264C93.0846 88.4624 93.1606 88.6344 93.1606 88.8423C93.1606 89.0583 93.0886 89.2423 92.9446 89.3943C92.8006 89.5383 92.6126 89.6103 92.3806 89.6103Z" fill="#737374"/>
<path d="M98.5522 90.7743C99.0722 90.7743 99.5282 90.8743 99.9202 91.0743C100.32 91.2743 100.632 91.5783 100.856 91.9863C101.08 92.3943 101.192 92.9103 101.192 93.5343V97.1943H100.04V93.6663C100.04 93.0503 99.8882 92.5863 99.5842 92.2743C99.2882 91.9623 98.8682 91.8063 98.3242 91.8063C97.9162 91.8063 97.5602 91.8863 97.2562 92.0463C96.9522 92.2063 96.7162 92.4423 96.5482 92.7543C96.3882 93.0663 96.3082 93.4543 96.3082 93.9183V97.1943H95.1562V90.8343H96.2602V92.5503L96.0802 92.0943C96.2882 91.6783 96.6082 91.3543 97.0402 91.1223C97.4722 90.8903 97.9762 90.7743 98.5522 90.7743Z" fill="#737374"/>
<path d="M106.156 97.2663C105.476 97.2663 104.876 97.1263 104.356 96.8463C103.844 96.5663 103.444 96.1823 103.156 95.6943C102.876 95.2063 102.736 94.6463 102.736 94.0143C102.736 93.3823 102.872 92.8223 103.144 92.3343C103.424 91.8463 103.804 91.4663 104.284 91.1943C104.772 90.9143 105.32 90.7743 105.928 90.7743C106.544 90.7743 107.088 90.9103 107.56 91.1823C108.032 91.4543 108.4 91.8383 108.664 92.3343C108.936 92.8223 109.072 93.3943 109.072 94.0503C109.072 94.0983 109.068 94.1543 109.06 94.2183C109.06 94.2823 109.056 94.3423 109.048 94.3983H103.636V93.5703H108.448L107.98 93.8583C107.988 93.4503 107.904 93.0863 107.728 92.7663C107.552 92.4463 107.308 92.1983 106.996 92.0223C106.692 91.8383 106.336 91.7463 105.928 91.7463C105.528 91.7463 105.172 91.8383 104.86 92.0223C104.548 92.1983 104.304 92.4503 104.128 92.7783C103.952 93.0983 103.864 93.4663 103.864 93.8823V94.0743C103.864 94.4983 103.96 94.8783 104.152 95.2143C104.352 95.5423 104.628 95.7983 104.98 95.9823C105.332 96.1663 105.736 96.2583 106.192 96.2583C106.568 96.2583 106.908 96.1943 107.212 96.0663C107.524 95.9383 107.796 95.7463 108.028 95.4903L108.664 96.2343C108.376 96.5703 108.016 96.8263 107.584 97.0023C107.16 97.1783 106.684 97.2663 106.156 97.2663Z" fill="#737374"/>
<path d="M117.818 97.2903C117.178 97.2903 116.586 97.1863 116.042 96.9783C115.506 96.7623 115.038 96.4623 114.638 96.0783C114.246 95.6863 113.938 95.2303 113.714 94.7103C113.49 94.1903 113.378 93.6183 113.378 92.9943C113.378 92.3703 113.49 91.7983 113.714 91.2783C113.938 90.7583 114.25 90.3063 114.65 89.9223C115.05 89.5303 115.518 89.2303 116.054 89.0223C116.598 88.8064 117.19 88.6984 117.83 88.6984C118.478 88.6984 119.074 88.8104 119.618 89.0343C120.17 89.2503 120.638 89.5743 121.022 90.0063L120.242 90.7623C119.922 90.4263 119.562 90.1783 119.162 90.0183C118.762 89.8503 118.334 89.7663 117.878 89.7663C117.406 89.7663 116.966 89.8463 116.558 90.0063C116.158 90.1663 115.81 90.3903 115.514 90.6783C115.218 90.9663 114.986 91.3103 114.818 91.7103C114.658 92.1023 114.578 92.5303 114.578 92.9943C114.578 93.4583 114.658 93.8903 114.818 94.2903C114.986 94.6823 115.218 95.0223 115.514 95.3103C115.81 95.5983 116.158 95.8223 116.558 95.9823C116.966 96.1423 117.406 96.2223 117.878 96.2223C118.334 96.2223 118.762 96.1423 119.162 95.9823C119.562 95.8143 119.922 95.5583 120.242 95.2143L121.022 95.9703C120.638 96.4023 120.17 96.7303 119.618 96.9543C119.074 97.1783 118.474 97.2903 117.818 97.2903Z" fill="#737374"/>
<path d="M125.962 90.7743C126.482 90.7743 126.938 90.8743 127.33 91.0743C127.73 91.2743 128.042 91.5783 128.266 91.9863C128.49 92.3943 128.602 92.9103 128.602 93.5343V97.1943H127.45V93.6663C127.45 93.0503 127.298 92.5863 126.994 92.2743C126.698 91.9623 126.278 91.8063 125.734 91.8063C125.326 91.8063 124.97 91.8863 124.666 92.0463C124.362 92.2063 124.126 92.4423 123.958 92.7543C123.798 93.0663 123.718 93.4543 123.718 93.9183V97.1943H122.566V88.2904H123.718V92.5503L123.49 92.0943C123.698 91.6783 124.018 91.3543 124.45 91.1223C124.882 90.8903 125.386 90.7743 125.962 90.7743Z" fill="#737374"/>
<path d="M133.566 97.2663C132.886 97.2663 132.286 97.1263 131.766 96.8463C131.254 96.5663 130.854 96.1823 130.566 95.6943C130.286 95.2063 130.146 94.6463 130.146 94.0143C130.146 93.3823 130.282 92.8223 130.554 92.3343C130.834 91.8463 131.214 91.4663 131.694 91.1943C132.182 90.9143 132.73 90.7743 133.338 90.7743C133.954 90.7743 134.498 90.9103 134.97 91.1823C135.442 91.4543 135.81 91.8383 136.074 92.3343C136.346 92.8223 136.482 93.3943 136.482 94.0503C136.482 94.0983 136.478 94.1543 136.47 94.2183C136.47 94.2823 136.466 94.3423 136.458 94.3983H131.046V93.5703H135.858L135.39 93.8583C135.398 93.4503 135.314 93.0863 135.138 92.7663C134.962 92.4463 134.718 92.1983 134.406 92.0223C134.102 91.8383 133.746 91.7463 133.338 91.7463C132.938 91.7463 132.582 91.8383 132.27 92.0223C131.958 92.1983 131.714 92.4503 131.538 92.7783C131.362 93.0983 131.274 93.4663 131.274 93.8823V94.0743C131.274 94.4983 131.37 94.8783 131.562 95.2143C131.762 95.5423 132.038 95.7983 132.39 95.9823C132.742 96.1663 133.146 96.2583 133.602 96.2583C133.978 96.2583 134.318 96.1943 134.622 96.0663C134.934 95.9383 135.206 95.7463 135.438 95.4903L136.074 96.2343C135.786 96.5703 135.426 96.8263 134.994 97.0023C134.57 97.1783 134.094 97.2663 133.566 97.2663Z" fill="#737374"/>
<path d="M146.038 90.7743C146.55 90.7743 147.002 90.8743 147.394 91.0743C147.786 91.2743 148.09 91.5783 148.306 91.9863C148.53 92.3943 148.642 92.9103 148.642 93.5343V97.1943H147.49V93.6663C147.49 93.0503 147.346 92.5863 147.058 92.2743C146.77 91.9623 146.366 91.8063 145.846 91.8063C145.462 91.8063 145.126 91.8863 144.838 92.0463C144.55 92.2063 144.326 92.4423 144.166 92.7543C144.014 93.0663 143.938 93.4543 143.938 93.9183V97.1943H142.786V93.6663C142.786 93.0503 142.642 92.5863 142.354 92.2743C142.074 91.9623 141.67 91.8063 141.142 91.8063C140.766 91.8063 140.434 91.8863 140.146 92.0463C139.858 92.2063 139.634 92.4423 139.474 92.7543C139.314 93.0663 139.234 93.4543 139.234 93.9183V97.1943H138.082V90.8343H139.186V92.5263L139.006 92.0943C139.206 91.6783 139.514 91.3543 139.93 91.1223C140.346 90.8903 140.83 90.7743 141.382 90.7743C141.99 90.7743 142.514 90.9263 142.954 91.2303C143.394 91.5263 143.682 91.9783 143.818 92.5863L143.35 92.3943C143.542 91.9063 143.878 91.5143 144.358 91.2183C144.838 90.9223 145.398 90.7743 146.038 90.7743Z" fill="#737374"/>
<path d="M150.762 97.1943V90.8343H151.914V97.1943H150.762ZM151.338 89.6103C151.114 89.6103 150.926 89.5383 150.774 89.3943C150.63 89.2503 150.558 89.0743 150.558 88.8664C150.558 88.6504 150.63 88.4704 150.774 88.3264C150.926 88.1824 151.114 88.1104 151.338 88.1104C151.562 88.1104 151.746 88.1824 151.89 88.3264C152.042 88.4624 152.118 88.6344 152.118 88.8423C152.118 89.0583 152.046 89.2423 151.902 89.3943C151.758 89.5383 151.57 89.6103 151.338 89.6103Z" fill="#737374"/>
<path d="M156.885 97.2663C156.237 97.2663 155.657 97.1263 155.145 96.8463C154.641 96.5663 154.245 96.1823 153.957 95.6943C153.669 95.2063 153.525 94.6463 153.525 94.0143C153.525 93.3823 153.669 92.8223 153.957 92.3343C154.245 91.8463 154.641 91.4663 155.145 91.1943C155.657 90.9143 156.237 90.7743 156.885 90.7743C157.461 90.7743 157.973 90.8903 158.421 91.1223C158.877 91.3463 159.229 91.6823 159.477 92.1303L158.601 92.6943C158.393 92.3823 158.137 92.1543 157.833 92.0103C157.537 91.8583 157.217 91.7823 156.873 91.7823C156.457 91.7823 156.085 91.8743 155.757 92.0583C155.429 92.2423 155.169 92.5023 154.977 92.8383C154.785 93.1663 154.689 93.5583 154.689 94.0143C154.689 94.4703 154.785 94.8663 154.977 95.2023C155.169 95.5383 155.429 95.7983 155.757 95.9823C156.085 96.1663 156.457 96.2583 156.873 96.2583C157.217 96.2583 157.537 96.1863 157.833 96.0423C158.137 95.8903 158.393 95.6583 158.601 95.3463L159.477 95.8983C159.229 96.3383 158.877 96.6783 158.421 96.9183C157.973 97.1503 157.461 97.2663 156.885 97.2663Z" fill="#737374"/>
<path d="M164.917 97.1943V95.8503L164.857 95.5983V93.3063C164.857 92.8183 164.713 92.4423 164.425 92.1783C164.145 91.9063 163.721 91.7703 163.153 91.7703C162.777 91.7703 162.409 91.8343 162.049 91.9623C161.689 92.0823 161.385 92.2463 161.137 92.4543L160.657 91.5903C160.985 91.3263 161.377 91.1263 161.833 90.9903C162.297 90.8463 162.781 90.7743 163.285 90.7743C164.157 90.7743 164.829 90.9863 165.301 91.4103C165.773 91.8343 166.009 92.4823 166.009 93.3543V97.1943H164.917ZM162.829 97.2663C162.357 97.2663 161.941 97.1863 161.581 97.0263C161.229 96.8663 160.957 96.6463 160.765 96.3663C160.573 96.0783 160.477 95.7543 160.477 95.3943C160.477 95.0503 160.557 94.7383 160.717 94.4583C160.885 94.1783 161.153 93.9543 161.521 93.7863C161.897 93.6183 162.401 93.5343 163.033 93.5343H165.049V94.3623H163.081C162.505 94.3623 162.117 94.4583 161.917 94.6503C161.717 94.8423 161.617 95.0743 161.617 95.3463C161.617 95.6583 161.741 95.9103 161.989 96.1023C162.237 96.2863 162.581 96.3783 163.021 96.3783C163.453 96.3783 163.829 96.2823 164.149 96.0903C164.477 95.8983 164.713 95.6183 164.857 95.2503L165.085 96.0423C164.933 96.4183 164.665 96.7183 164.281 96.9423C163.897 97.1583 163.413 97.2663 162.829 97.2663Z" fill="#737374"/>
<path d="M168.14 97.1943V88.2904H169.292V97.1943H168.14Z" fill="#737374"/>
<path d="M173.316 97.2663C172.788 97.2663 172.284 97.1943 171.804 97.0503C171.332 96.9063 170.96 96.7303 170.688 96.5223L171.168 95.6103C171.44 95.7943 171.776 95.9503 172.176 96.0783C172.576 96.2063 172.984 96.2703 173.4 96.2703C173.936 96.2703 174.32 96.1943 174.552 96.0423C174.792 95.8903 174.912 95.6783 174.912 95.4063C174.912 95.2063 174.84 95.0503 174.696 94.9383C174.552 94.8263 174.36 94.7423 174.12 94.6863C173.888 94.6303 173.628 94.5823 173.34 94.5423C173.052 94.4943 172.764 94.4383 172.476 94.3743C172.188 94.3023 171.924 94.2063 171.684 94.0863C171.444 93.9583 171.252 93.7863 171.108 93.5703C170.964 93.3463 170.892 93.0503 170.892 92.6823C170.892 92.2983 171 91.9623 171.216 91.6743C171.432 91.3863 171.736 91.1663 172.128 91.0143C172.528 90.8543 173 90.7743 173.544 90.7743C173.96 90.7743 174.38 90.8263 174.804 90.9303C175.236 91.0263 175.588 91.1663 175.86 91.3503L175.368 92.2623C175.08 92.0703 174.78 91.9383 174.468 91.8663C174.156 91.7943 173.844 91.7583 173.532 91.7583C173.028 91.7583 172.652 91.8423 172.404 92.0103C172.156 92.1703 172.032 92.3783 172.032 92.6343C172.032 92.8503 172.104 93.0183 172.248 93.1383C172.4 93.2503 172.592 93.3383 172.824 93.4023C173.064 93.4663 173.328 93.5223 173.616 93.5703C173.904 93.6103 174.192 93.6663 174.48 93.7383C174.768 93.8023 175.028 93.8943 175.26 94.0143C175.5 94.1343 175.692 94.3023 175.836 94.5183C175.988 94.7343 176.064 95.0223 176.064 95.3823C176.064 95.7663 175.952 96.0983 175.728 96.3783C175.504 96.6583 175.188 96.8783 174.78 97.0383C174.372 97.1903 173.884 97.2663 173.316 97.2663Z" fill="#737374"/>
<path d="M182.202 99.5223C181.746 98.7943 181.394 97.9543 181.146 97.0023C180.898 96.0423 180.774 95.0103 180.774 93.9063C180.774 92.8023 180.898 91.7703 181.146 90.8103C181.394 89.8423 181.746 89.0023 182.202 88.2904H183.294C182.814 89.1383 182.462 90.0263 182.238 90.9543C182.014 91.8743 181.902 92.8583 181.902 93.9063C181.902 94.9543 182.014 95.9423 182.238 96.8703C182.462 97.7903 182.814 98.6743 183.294 99.5223H182.202Z" fill="#737374"/>
<path d="M184.937 97.1943V88.7943H186.137V97.1943H184.937Z" fill="#737374"/>
<path d="M191.88 90.7743C192.4 90.7743 192.856 90.8743 193.248 91.0743C193.648 91.2743 193.96 91.5783 194.184 91.9863C194.408 92.3943 194.52 92.9103 194.52 93.5343V97.1943H193.368V93.6663C193.368 93.0503 193.216 92.5863 192.912 92.2743C192.616 91.9623 192.196 91.8063 191.652 91.8063C191.244 91.8063 190.888 91.8863 190.584 92.0463C190.28 92.2063 190.044 92.4423 189.876 92.7543C189.716 93.0663 189.636 93.4543 189.636 93.9183V97.1943H188.484V90.8343H189.588V92.5503L189.408 92.0943C189.616 91.6783 189.936 91.3543 190.368 91.1223C190.8 90.8903 191.304 90.7743 191.88 90.7743Z" fill="#737374"/>
<path d="M199.28 97.2663C198.664 97.2663 198.112 97.1303 197.624 96.8583C197.144 96.5863 196.764 96.2063 196.484 95.7183C196.204 95.2303 196.064 94.6623 196.064 94.0143C196.064 93.3663 196.204 92.8023 196.484 92.3223C196.764 91.8343 197.144 91.4543 197.624 91.1823C198.112 90.9103 198.664 90.7743 199.28 90.7743C199.816 90.7743 200.3 90.8943 200.732 91.1343C201.164 91.3743 201.508 91.7343 201.764 92.2143C202.028 92.6943 202.16 93.2943 202.16 94.0143C202.16 94.7343 202.032 95.3343 201.776 95.8143C201.528 96.2943 201.188 96.6583 200.756 96.9063C200.324 97.1463 199.832 97.2663 199.28 97.2663ZM199.376 96.2583C199.776 96.2583 200.136 96.1663 200.456 95.9823C200.784 95.7983 201.04 95.5383 201.224 95.2023C201.416 94.8583 201.512 94.4623 201.512 94.0143C201.512 93.5583 201.416 93.1663 201.224 92.8383C201.04 92.5023 200.784 92.2423 200.456 92.0583C200.136 91.8743 199.776 91.7823 199.376 91.7823C198.968 91.7823 198.604 91.8743 198.284 92.0583C197.964 92.2423 197.708 92.5023 197.516 92.8383C197.324 93.1663 197.228 93.5583 197.228 94.0143C197.228 94.4623 197.324 94.8583 197.516 95.2023C197.708 95.5383 197.964 95.7983 198.284 95.9823C198.604 96.1663 198.968 96.2583 199.376 96.2583ZM201.548 97.1943V95.4783L201.62 94.0023L201.5 92.5263V88.2904H202.652V97.1943H201.548Z" fill="#737374"/>
<path d="M204.832 97.1943V90.8343H205.984V97.1943H204.832ZM205.408 89.6103C205.184 89.6103 204.996 89.5383 204.844 89.3943C204.7 89.2503 204.628 89.0743 204.628 88.8664C204.628 88.6504 204.7 88.4704 204.844 88.3264C204.996 88.1824 205.184 88.1104 205.408 88.1104C205.632 88.1104 205.816 88.1824 205.96 88.3264C206.112 88.4624 206.188 88.6344 206.188 88.8423C206.188 89.0583 206.116 89.2423 205.972 89.3943C205.828 89.5383 205.64 89.6103 205.408 89.6103Z" fill="#737374"/>
<path d="M212.131 97.1943V95.8503L212.071 95.5983V93.3063C212.071 92.8183 211.927 92.4423 211.639 92.1783C211.359 91.9063 210.935 91.7703 210.367 91.7703C209.991 91.7703 209.623 91.8343 209.263 91.9623C208.903 92.0823 208.599 92.2463 208.351 92.4543L207.871 91.5903C208.199 91.3263 208.591 91.1263 209.047 90.9903C209.511 90.8463 209.995 90.7743 210.499 90.7743C211.371 90.7743 212.043 90.9863 212.515 91.4103C212.987 91.8343 213.223 92.4823 213.223 93.3543V97.1943H212.131ZM210.043 97.2663C209.571 97.2663 209.155 97.1863 208.795 97.0263C208.443 96.8663 208.171 96.6463 207.979 96.3663C207.787 96.0783 207.691 95.7543 207.691 95.3943C207.691 95.0503 207.771 94.7383 207.931 94.4583C208.099 94.1783 208.367 93.9543 208.735 93.7863C209.111 93.6183 209.615 93.5343 210.247 93.5343H212.263V94.3623H210.295C209.719 94.3623 209.331 94.4583 209.131 94.6503C208.931 94.8423 208.831 95.0743 208.831 95.3463C208.831 95.6583 208.955 95.9103 209.203 96.1023C209.451 96.2863 209.795 96.3783 210.235 96.3783C210.667 96.3783 211.043 96.2823 211.363 96.0903C211.691 95.8983 211.927 95.6183 212.071 95.2503L212.299 96.0423C212.147 96.4183 211.879 96.7183 211.495 96.9423C211.111 97.1583 210.627 97.2663 210.043 97.2663Z" fill="#737374"/>
<path d="M215.739 99.5223H214.647C215.135 98.6743 215.491 97.7903 215.715 96.8703C215.939 95.9423 216.051 94.9543 216.051 93.9063C216.051 92.8583 215.939 91.8743 215.715 90.9543C215.491 90.0263 215.135 89.1383 214.647 88.2904H215.739C216.211 89.0023 216.567 89.8423 216.807 90.8103C217.055 91.7703 217.179 92.8023 217.179 93.9063C217.179 95.0103 217.055 96.0423 216.807 97.0023C216.567 97.9543 216.211 98.7943 215.739 99.5223Z" fill="#737374"/>
<path d="M222.801 97.1943V88.7943H226.077C226.813 88.7943 227.441 88.9103 227.961 89.1423C228.481 89.3743 228.881 89.7103 229.161 90.1503C229.441 90.5903 229.581 91.1143 229.581 91.7223C229.581 92.3303 229.441 92.8543 229.161 93.2943C228.881 93.7263 228.481 94.0623 227.961 94.3023C227.441 94.5343 226.813 94.6503 226.077 94.6503H223.461L224.001 94.0863V97.1943H222.801ZM224.001 94.2063L223.461 93.6063H226.041C226.809 93.6063 227.389 93.4423 227.781 93.1143C228.181 92.7863 228.381 92.3223 228.381 91.7223C228.381 91.1223 228.181 90.6583 227.781 90.3303C227.389 90.0023 226.809 89.8383 226.041 89.8383H223.461L224.001 89.2383V94.2063Z" fill="#737374"/>
<path d="M232.879 97.1943L230.095 90.8343H231.295L233.767 96.5943H233.191L235.711 90.8343H236.839L234.055 97.1943H232.879Z" fill="#737374"/>
<path d="M240.274 97.2663C239.634 97.2663 239.138 97.0943 238.786 96.7503C238.434 96.4063 238.258 95.9143 238.258 95.2743V89.4423H239.41V95.2263C239.41 95.5703 239.494 95.8343 239.662 96.0183C239.838 96.2023 240.086 96.2943 240.406 96.2943C240.766 96.2943 241.066 96.1943 241.306 95.9943L241.666 96.8223C241.49 96.9743 241.278 97.0863 241.03 97.1583C240.79 97.2303 240.538 97.2663 240.274 97.2663ZM237.178 91.7823V90.8343H241.234V91.7823H237.178Z" fill="#737374"/>
<path d="M243.451 97.2663C243.227 97.2663 243.036 97.1903 242.876 97.0383C242.715 96.8783 242.635 96.6783 242.635 96.4383C242.635 96.1983 242.715 96.0023 242.876 95.8503C243.036 95.6983 243.227 95.6223 243.451 95.6223C243.667 95.6223 243.852 95.6983 244.003 95.8503C244.163 96.0023 244.243 96.1983 244.243 96.4383C244.243 96.6783 244.163 96.8783 244.003 97.0383C243.852 97.1903 243.667 97.2663 243.451 97.2663Z" fill="#737374"/>
<path d="M249.285 97.1943V88.7943H250.485V96.1503H255.033V97.1943H249.285Z" fill="#737374"/>
<path d="M258.367 97.2663C257.727 97.2663 257.231 97.0943 256.879 96.7503C256.527 96.4063 256.351 95.9143 256.351 95.2743V89.4423H257.503V95.2263C257.503 95.5703 257.587 95.8343 257.755 96.0183C257.931 96.2023 258.179 96.2943 258.499 96.2943C258.859 96.2943 259.159 96.1943 259.399 95.9943L259.759 96.8223C259.583 96.9743 259.371 97.0863 259.123 97.1583C258.883 97.2303 258.631 97.2663 258.367 97.2663ZM255.271 91.7823V90.8343H259.327V91.7823H255.271Z" fill="#737374"/>
<path d="M263.569 97.2663C262.953 97.2663 262.401 97.1303 261.913 96.8583C261.433 96.5863 261.053 96.2063 260.773 95.7183C260.493 95.2303 260.353 94.6623 260.353 94.0143C260.353 93.3663 260.493 92.8023 260.773 92.3223C261.053 91.8343 261.433 91.4543 261.913 91.1823C262.401 90.9103 262.953 90.7743 263.569 90.7743C264.105 90.7743 264.589 90.8943 265.021 91.1343C265.453 91.3743 265.797 91.7343 266.053 92.2143C266.317 92.6943 266.449 93.2943 266.449 94.0143C266.449 94.7343 266.321 95.3343 266.065 95.8143C265.817 96.2943 265.477 96.6583 265.045 96.9063C264.613 97.1463 264.121 97.2663 263.569 97.2663ZM263.665 96.2583C264.065 96.2583 264.425 96.1663 264.745 95.9823C265.073 95.7983 265.329 95.5383 265.513 95.2023C265.705 94.8583 265.801 94.4623 265.801 94.0143C265.801 93.5583 265.705 93.1663 265.513 92.8383C265.329 92.5023 265.073 92.2423 264.745 92.0583C264.425 91.8743 264.065 91.7823 263.665 91.7823C263.257 91.7823 262.893 91.8743 262.573 92.0583C262.253 92.2423 261.997 92.5023 261.805 92.8383C261.613 93.1663 261.517 93.5583 261.517 94.0143C261.517 94.4623 261.613 94.8583 261.805 95.2023C261.997 95.5383 262.253 95.7983 262.573 95.9823C262.893 96.1663 263.257 96.2583 263.665 96.2583ZM265.837 97.1943V95.4783L265.909 94.0023L265.789 92.5263V88.2904H266.941V97.1943H265.837Z" fill="#737374"/>
<path d="M269.397 97.2663C269.173 97.2663 268.981 97.1903 268.821 97.0383C268.661 96.8783 268.581 96.6783 268.581 96.4383C268.581 96.1983 268.661 96.0023 268.821 95.8503C268.981 95.6983 269.173 95.6223 269.397 95.6223C269.613 95.6223 269.797 95.6983 269.949 95.8503C270.109 96.0023 270.189 96.1983 270.189 96.4383C270.189 96.6783 270.109 96.8783 269.949 97.0383C269.797 97.1903 269.613 97.2663 269.397 97.2663Z" fill="#737374"/>
</svg>
