<svg width="300" height="73" viewBox="0 0 300 73" fill="none" xmlns="http://www.w3.org/2000/svg">
<path d="M0 0.732422H12.5977L12.7441 2.34375L12.8906 2.49024L13.0371 4.10156L13.1836 4.39453L13.4766 7.47071L13.6231 7.61719L13.7695 9.22852L14.0625 10.6934L14.209 12.3047L14.3555 12.4512L14.502 14.0625L14.6484 14.3555L14.9414 17.4316L15.0879 17.5781L15.2344 19.1895L15.3809 19.3359L15.6738 18.6035L16.9922 11.5723L17.4316 9.81446L18.457 4.54102L18.8965 2.63672L19.1895 0.732422H29.4434L29.7363 1.61133L30.6152 5.85938L31.4942 10.5469L31.6406 10.6934L31.9336 12.8906L32.2266 14.502L32.3731 14.6484L32.959 18.1641L33.1055 18.3106L33.3985 19.6289L33.5449 18.3106L33.6914 18.1641L34.1309 15.0879L34.2774 13.4766L34.4238 13.1836L35.0098 8.64258L35.1563 8.34961L35.7422 3.80859L35.8887 3.51563L36.1817 1.02539L36.3281 0.732422H48.9258L48.3399 2.92969L47.7539 5.56641L47.3145 6.88477L46.7285 9.66797L46.4356 10.6934L45.9961 12.5977L45.7031 13.6231L45.4102 14.3555L44.8242 16.9922L44.2383 19.1895L43.3594 22.8516L42.7735 25.0488L41.8945 28.418L41.3086 30.6152L40.4297 34.2774L39.9902 35.0098H28.8574L28.418 34.5703L27.832 31.2012L27.0996 27.5391L26.8067 26.2207L26.3672 23.877L26.0742 22.5586L25.6348 20.2149L25.3418 18.8965L24.4629 14.209L24.0234 16.2598L23.584 18.6035L23.291 19.6289L23.1445 20.8008L22.9981 20.9473L22.8516 22.1192L22.7051 22.5586L22.4121 24.4629L22.2656 24.6094L21.6797 28.125L21.5332 28.2715L20.9473 31.6406L20.6543 32.959L20.2149 34.8633L20.0684 35.0098H8.93555L8.4961 34.5703L7.03125 28.7109L5.85938 24.1699L5.12696 21.3867L4.54102 19.043L3.95508 16.5527L2.7832 12.0117L2.05078 9.08204L1.46484 7.03125L0.146484 1.31836L0 0.732422Z" fill="#362E87"/>
<path d="M191.455 0H197.021L199.512 0.439453L202.734 1.61133L204.346 2.63672L206.543 4.39453L207.129 5.27344L208.154 6.44532L209.766 9.66797L210.205 10.9863L210.645 13.0371L210.791 14.9414L210.938 15.0879V20.3613L210.498 23.4375L210.205 24.4629L209.033 27.5391L207.715 29.5899L207.129 30.3223L206.104 31.4942L205.518 32.0801L204.785 32.5195L203.467 33.3985L201.416 34.4238L200.684 34.7168L197.754 35.3027L197.461 35.4492H191.162L187.939 34.7168L186.182 33.9844L184.57 33.1055L183.105 32.0801L181.201 30.1758L179.883 28.2715L178.857 26.0742L178.125 23.7305L177.832 22.7051L177.539 20.2149V14.502L177.832 12.7441L178.857 9.22852L180.029 7.03125L180.908 5.71289L182.666 3.8086L184.131 2.63672L186.475 1.31836L189.111 0.439453L191.309 0.146484L191.455 0ZM193.066 8.4961L191.895 9.08204L191.455 9.52149L190.723 10.9863L190.283 13.916V21.0938L190.43 22.7051L191.162 25.0488L191.895 25.9277L192.773 26.5137L193.359 26.6602H195.117L196.289 26.2207L197.168 25.1953L197.754 23.877L198.047 22.5586L198.193 20.5078L198.34 20.2149V14.9414L198.193 14.7949L198.047 12.4512L197.607 10.6934L196.875 9.22852L195.557 8.4961H193.066Z" fill="#0790D4"/>
<path d="M220.898 0.732422H235.254L235.547 1.9043L236.572 5.56641L237.598 9.08204L238.184 10.9863L238.477 12.1582L239.502 15.8203L241.553 22.8516L242.432 26.0742L244.482 33.1055L244.775 34.1309V34.8633L244.629 35.0098H232.91L232.471 34.2774L232.031 32.3731L231.738 30.4688L231.592 29.8828L224.414 30.0293L224.121 32.3731L223.535 34.7168L223.242 35.0098H211.67L211.23 34.7168L211.67 32.959L212.256 31.0547L212.549 29.8828L213.574 26.2207L215.625 19.1895L216.504 15.9668L218.555 8.93555L219.434 5.71289L220.459 2.19727L220.898 0.732422ZM227.93 10.9863L227.49 12.8906L226.904 16.5527L226.465 18.1641L226.172 20.2149L226.025 20.5078L225.732 22.7051L225.879 22.8516H230.42L230.273 21.9727L229.688 18.6035L229.102 15.6738L228.223 10.9863H227.93Z" fill="#0790D4"/>
<path d="M50.6816 0.732422H72.9473V8.93555H63.2793V13.1836L64.0117 13.0371H70.6035L71.7754 13.1836L72.0684 13.6231V21.2402L71.9219 21.3867H63.2793V25.9277H72.9473V34.7168L72.3613 35.0098H50.9746L50.6816 34.8633L50.5352 34.1309V0.878906L50.6816 0.732422Z" fill="#0790D4"/>
<path d="M86.8652 0H92.1387L96.0938 0.732422L99.3164 1.75781L99.7559 2.19727V10.6934H99.1699L96.5332 9.375L94.3359 8.64258L93.0176 8.34961H90.6738L89.6484 8.78907L88.916 9.66797V10.5469L89.502 11.4258L90.6738 12.4512L93.0176 13.916L95.6543 15.6738L96.9727 16.6992L98.1445 17.5781L99.3164 18.75L100.488 20.8008L100.928 21.8262L101.074 22.9981L101.221 23.1445V25.9277L101.074 26.0742L100.781 27.6856L99.3164 30.4688L97.5586 32.2266L95.6543 33.3985L93.457 34.4238L90.9668 35.1563L89.6484 35.3027L89.502 35.4492H83.3496L79.9805 34.7168L76.7578 33.5449L75.7324 32.959L75.5859 31.9336V25.0488L75.7324 23.584L76.4648 23.7305L77.7832 24.4629L78.5156 24.9024L79.9805 25.4883L81.2988 25.9277L82.4707 26.3672L83.4961 26.5137H85.4004L86.7188 26.0742L87.4512 25.3418L87.7441 24.6094L87.5977 23.7305L86.5723 22.4121L85.2539 21.3867L83.6426 20.2149L82.3242 19.1895L81.4453 18.6035L79.3945 16.8457L78.2227 15.8203L77.0508 14.3555L75.8789 12.0117L75.5859 10.2539L75.7324 8.93555L76.0254 7.61719L76.6113 6.00586L77.7832 4.24805L79.1016 3.07617L80.5664 2.05078L82.6172 1.02539L85.1074 0.292969L86.7188 0.146484L86.8652 0Z" fill="#0790D4"/>
<path d="M256.201 0H261.768L264.844 0.585938L268.066 1.46484L269.092 1.9043V10.8398L268.359 10.5469L266.016 9.375L263.232 8.4961L262.646 8.34961H260.156L258.838 8.93555L258.545 9.52149V10.8398L260.01 12.3047L262.354 13.7695L264.551 15.2344L266.016 16.2598L267.627 17.5781L268.799 18.75L269.824 20.2149L270.557 22.2656L270.85 23.7305V25.0488L270.557 26.9531L269.385 29.7363L268.652 30.6152L267.627 31.7871L266.455 32.666L264.404 33.8379L262.207 34.7168L260.303 35.1563L258.984 35.3027L258.838 35.4492H252.686L249.463 34.7168L246.68 33.6914L245.361 32.959L245.215 32.8125V23.584L245.947 23.7305L248.438 25.0488L249.756 25.6348L250.928 26.0742L252.979 26.5137H255.029L256.055 26.2207L257.08 25.3418L257.227 25.0488V24.0234L256.494 22.8516L254.883 21.3867L254.004 20.8008L252.393 19.6289L251.221 18.75L249.902 17.7246L247.705 15.6738L246.533 14.3555L245.654 12.4512L245.215 10.9863V8.64258L245.947 6.44532L246.973 4.6875L248.584 3.07617L250.635 1.75781L251.807 1.17188L254.004 0.439453L256.055 0.146484L256.201 0Z" fill="#0790D4"/>
<path d="M165.672 0H170.506L173.289 0.439453L175.193 0.878907L175.486 1.17188V6.88477L175.34 9.22852L174.021 8.93555L173.143 8.64258L171.531 8.34961H169.773L167.576 8.93555L165.965 9.81446L165.086 10.8398L164.354 12.0117L163.621 14.209L163.328 17.4316V18.6035L163.621 20.8008L164.354 22.9981L165.379 24.4629L166.551 25.6348L168.309 26.3672L169.041 26.5137H171.971L173.289 26.2207L174.607 25.7813H175.34L175.486 26.2207V33.9844L175.193 34.4238L172.41 35.1563L170.945 35.4492H165.379L162.156 34.7168L159.227 33.5449L157.322 32.3731L156.15 31.4942L154.393 29.8828L153.074 28.418L152.049 26.6602L151.17 24.6094L150.584 22.8516L150.145 20.0684V15.0879L150.438 13.3301L151.17 10.8398L152.049 8.78907L153.221 6.88477L154.393 5.56641L154.979 4.83399L156.59 3.51563L158.055 2.49024L160.398 1.31836L162.01 0.732422L163.914 0.292969L165.525 0.146484L165.672 0Z" fill="#362E87"/>
<path d="M271.582 0.732422H298.682L298.828 0.878906V9.375L295.898 9.52149H291.504V34.7168L290.918 35.0098H279.199L278.906 34.7168L278.76 34.1309V9.52149H271.582V0.732422Z" fill="#0790D4"/>
<path d="M101.953 0.732422H129.199V9.375L126.27 9.52149H121.875V34.8633L121.729 35.0098H109.717L109.277 34.7168V9.52149H102.1L101.953 9.375V0.732422Z" fill="#0790D4"/>
<path d="M8.49609 47.3145H298.975V49.0723H8.34961L8.20312 48.9258V47.9004L8.49609 47.3145Z" fill="#0790D4"/>
<path d="M8.34961 42.1875H298.975V43.9453H8.49609L8.20312 43.2129V42.334L8.34961 42.1875Z" fill="#362E87"/>
<path d="M8.34961 71.1914H298.975V72.3633H8.34961L8.20312 71.6309L8.34961 71.1914Z" fill="#362E87"/>
<path d="M128.318 18.8965H145.604L145.75 19.043V26.6602H128.172V19.043L128.318 18.8965Z" fill="#0790D4"/>
<path d="M186.619 54.6387H188.377L188.816 55.6641L189.402 58.4473L189.695 59.4727L190.135 61.377L190.428 62.4023L190.574 63.2813L191.16 61.6699L192.918 55.957L193.504 54.6387H195.555L196.141 56.1035L196.434 57.4219L197.313 59.7656L197.605 60.9375L197.898 62.2559L198.045 62.4023V63.2813H198.338L198.484 61.9629L199.949 56.6895L200.535 54.6387H202.439V55.5176L201.854 57.1289L201.561 58.1543L201.121 59.4727L200.535 61.8164L200.096 62.6953L199.51 65.0391L199.217 66.0645H197.313L196.873 65.0391L196.58 64.3066L196.287 63.1348L194.529 57.2754L194.383 57.1289L194.236 58.0078L193.357 60.6445L192.771 62.8418L192.332 63.8672L192.039 64.8926L191.893 65.625L191.6 66.0645H189.842L189.549 65.7715L188.67 62.6953L188.23 61.377L187.791 59.7656L187.205 57.5684L186.766 56.25L186.473 54.7852L186.619 54.6387Z" fill="#362E87"/>
<path d="M63.2832 57.5684H64.748L65.627 58.0078L66.2129 58.5938L66.7988 58.4473L67.9707 57.7148L68.4102 57.5684H70.0215L70.9004 58.0078L71.6328 58.7402L72.0723 59.6191V65.918L71.9258 66.0645H70.168L70.0215 65.918L69.875 59.4727L69.582 59.3262H68.1172L67.0918 59.9121L66.9453 65.918L66.7988 66.0645H65.041L64.8945 65.918L64.748 59.9121L64.6016 59.3262H62.6973L61.9648 60.0586L61.6719 60.498L61.5254 66.0645H59.6211V57.8613L59.9141 57.7148H61.2324V58.4473L63.2832 57.5684Z" fill="#362E87"/>
<path d="M8.78906 54.6387H14.3555L14.502 54.7852L16.1133 54.9316L17.4316 55.5176L18.457 57.2754V59.0332L17.8711 60.2051H17.5781L17.4316 60.791L16.2598 61.377L15.2344 61.6699H10.6934V66.0645H8.78906V54.6387ZM11.1328 56.25L10.6934 56.543V59.9121H15.0879L16.1133 59.4727L16.5527 58.4473L16.4063 57.5684L15.9668 56.8359L14.6484 56.3965L13.623 56.25H11.1328Z" fill="#362E87"/>
<path d="M289.748 54.6387H291.652L291.799 55.3711V65.918L291.652 66.0645H290.041V65.332L289.162 66.0645L288.576 66.2109H286.525L285.793 65.918L284.914 65.332V64.8926L284.475 64.7461L283.889 63.5742L283.742 63.1348V60.6445L284.621 58.8867L285.5 58.0078L286.818 57.5684H288.283L289.602 58.1543L289.748 54.6387ZM287.404 59.0332L286.379 59.4727L285.793 60.2051L285.646 60.498V63.2813L286.232 64.1602L286.965 64.7461L287.258 64.8926H288.283L289.162 64.4531L289.748 63.5742L290.041 62.8418V61.2305L289.162 59.4727L288.137 59.0332H287.404Z" fill="#362E87"/>
<path d="M39.9883 57.5684H42.0391L43.5039 58.0078L44.0898 58.7402L44.5293 59.3262L44.6758 65.0391L44.9688 66.0645H43.0645L42.625 65.4785L41.4531 66.0645L40.8672 66.2109H38.377L37.6445 65.918L36.6191 64.7461L36.4727 64.4531V63.2813L37.0586 62.4023L38.084 61.5234L38.9629 61.2305L40.7207 61.084L40.8672 60.9375L42.332 60.6445L42.4785 59.9121L41.8926 59.3262L41.3066 59.1797H40.1348L39.1094 59.4727L38.8164 59.7656L38.5234 60.6445L36.7656 60.498L36.9121 59.4727L37.9375 58.3008L38.9629 57.7148L39.9883 57.5684ZM42.1855 62.2559L39.1094 62.8418L38.377 63.5742L38.6699 64.4531L39.4023 64.8926H40.7207L42.1855 64.1602L42.625 63.4277V62.2559H42.1855Z" fill="#362E87"/>
<path d="M160.838 57.5684H163.035L164.354 58.0078L165.379 59.0332L165.525 60.3516L165.672 60.498L165.818 65.4785L165.965 65.918L165.818 66.0645H164.061L163.914 65.332L162.596 66.0645L161.863 66.2109H159.52L158.787 65.918L157.615 64.7461L157.469 63.5742L158.055 62.2559L158.641 62.1094V61.6699L160.105 61.2305L161.863 61.084L163.768 60.6445L163.328 59.4727L162.303 59.1797H161.131L160.105 59.6191L159.813 59.9121L159.52 60.6445L157.908 60.498V59.6191L158.348 58.5938L160.105 57.7148L160.838 57.5684ZM163.328 62.2559L159.959 62.8418L159.52 63.4277L159.666 64.3066L160.545 64.8926H161.717L162.889 64.4531L163.475 63.8672L163.768 62.9883V62.2559H163.328Z" fill="#362E87"/>
<path d="M80.5664 57.5684H82.7637L84.082 58.0078L85.1074 59.1797L85.2539 65.0391L85.5469 66.0645H83.7891L83.4961 65.4785L82.6172 65.7715L81.5918 66.2109H79.248L78.5156 65.918L77.4902 65.1855L77.0508 64.3066L77.1973 63.1348L77.7832 62.2559L78.6621 61.5234L79.834 61.2305L81.2988 61.084L81.5918 60.9375L82.9102 60.791L83.0566 60.6445L83.2031 59.4727L82.4707 59.3262L82.0313 59.1797H80.7129L79.6875 59.3262L79.248 60.6445L77.4902 60.498V59.9121L77.7832 59.1797L79.1016 58.0078L80.5664 57.5684ZM82.9102 62.2559L79.6875 62.8418L79.1016 63.4277L79.248 64.4531L79.9805 64.8926H81.2988L82.6172 64.4531L83.2031 63.5742V62.2559H82.9102Z" fill="#362E87"/>
<path d="M106.057 57.5684H107.814L109.133 58.0078L110.744 59.6191L111.184 60.791V62.4023H104.592L105.178 63.8672L105.617 64.3066L106.496 64.7461H107.521L108.693 64.1602L109.279 63.1348L110.598 63.2813L111.184 63.4277L110.891 64.3066L110.451 65.0391L109.719 65.4785L108.84 66.0645L108.254 66.2109H105.764L104.592 65.7715L103.859 65.1855L102.98 63.8672L102.688 63.1348V60.9375L103.127 59.6191L104.445 58.3008L105.471 57.7148L106.057 57.5684ZM106.643 59.0332L105.617 59.4727L104.885 60.2051L104.592 60.9375H109.279L108.986 60.0586L108.254 59.3262L107.521 59.0332H106.643Z" fill="#362E87"/>
<path d="M23.875 54.6387H25.4863V58.4473L27.2441 57.5684H29.002L30.1738 58.1543L31.0527 59.1797L31.3457 59.9121V66.0645H29.4414L29.2949 60.0586L29.1484 59.4727L28.416 59.3262H26.9512L26.0723 59.9121L25.6328 61.084L25.4863 66.0645H23.875V54.6387Z" fill="#362E87"/>
<path d="M229.688 54.6387H231.299L231.445 54.7852V60.791L232.617 59.7656L234.375 58.0078L235.107 57.7148H236.279L237.012 57.8613L236.865 58.3008L235.986 58.8867L234.229 60.498L233.936 60.791L234.082 61.5234L235.547 63.4277L236.719 65.0391L237.305 65.918L237.158 66.0645L235.254 66.2109L234.668 65.4785L233.203 63.4277L232.324 62.2559L231.592 62.8418L231.445 65.918L231.299 66.0645H229.688V54.6387Z" fill="#362E87"/>
<path d="M209.766 57.5684H211.67L212.988 58.1543L213.867 58.7402L214.6 59.7656L215.039 61.2305V62.6953L214.6 64.3066L213.135 65.7715L211.963 66.2109H209.473L208.301 65.7715L207.568 65.1855L206.689 64.0137L206.25 62.8418V61.377L206.543 60.0586L207.422 58.7402L208.887 57.8613L209.766 57.5684ZM210.205 59.0332L209.473 59.3262L208.74 59.7656L208.301 60.9375V63.1348L209.033 64.3066L210.205 64.8926L211.523 64.7461L212.695 64.0137L213.135 62.5488V60.9375L212.695 60.0586L211.816 59.1797L210.205 59.0332Z" fill="#362E87"/>
<path d="M244.043 57.5684H245.947L247.266 58.0078L247.852 58.3008L248.584 59.4727L248.73 60.0586L248.584 60.2051L246.973 60.498L246.68 60.0586V59.4727L245.947 59.3262L245.654 59.1797H244.482L243.75 59.4727L243.457 59.7656V60.2051L244.775 60.791L246.094 61.084L247.705 61.5234L248.877 62.6953V64.3066L248.584 65.0391L247.705 65.7715L246.533 66.2109H244.043L243.018 65.918L241.846 65.0391L241.406 64.0137V63.4277L242.432 63.1348H243.018L243.75 64.3066L244.775 64.7461H245.947L246.68 64.3066L246.973 63.5742L246.826 63.2813L244.482 62.5488L243.311 62.2559L242.578 61.8164L241.553 60.791V59.4727L242.285 58.4473H242.578L242.725 58.0078L244.043 57.5684Z" fill="#362E87"/>
<path d="M116.455 57.7148L118.213 57.8613L118.359 63.5742L118.506 64.3066L119.385 64.5996L120.264 64.7461L121.289 64.3066L121.729 63.8672L122.021 62.8418L122.168 57.8613L122.461 57.7148L123.779 57.8613V66.0645H122.168V65.332L120.703 66.2109H118.506L117.334 65.625L116.602 64.8926L116.309 63.5742V57.8613L116.455 57.7148Z" fill="#362E87"/>
<path d="M262.793 54.6387H264.697V64.3066H270.703L270.85 64.4531V65.918L270.703 66.0645H262.793V54.6387Z" fill="#362E87"/>
<path d="M148.684 57.5684H150.295L151.32 57.8613L152.492 58.7402L153.225 59.9121L153.078 60.498L152.346 60.6445H151.32L151.027 59.4727L150.148 59.1797H149.123L147.951 59.6191L147.365 60.9375V63.1348L147.805 64.0137L148.244 64.4531L149.123 64.7461L150.441 64.5996L151.027 64.3066L151.467 62.9883L151.613 62.8418H153.225V63.8672L152.932 64.5996L151.613 65.7715L150.588 66.2109H148.098L147.365 65.918L146.486 65.332L146.047 64.5996L145.461 63.7207L145.168 62.2559L145.314 60.9375L145.9 59.3262L146.34 58.7402H146.633L146.779 58.3008L148.684 57.5684Z" fill="#362E87"/>
<path d="M93.8965 57.5684H95.6543L97.4121 58.4473L98.291 59.7656L98.1445 60.498L96.6797 60.6445L95.9473 59.4727L95.0684 59.1797L93.6035 59.3262L92.8711 59.9121L92.5781 60.498V63.5742L93.3105 64.3066L94.1895 64.7461L95.5078 64.5996L96.2402 64.0137L96.6797 62.8418H98.4375L98.584 63.2813L98.1445 64.4531L97.2656 65.4785L96.5332 66.0645L95.9473 66.2109H93.3105L92.2852 65.7715L90.9668 64.4531L90.5273 63.2813V60.498L91.2598 59.0332L92.2852 58.1543L93.8965 57.5684Z" fill="#362E87"/>
<path d="M131.689 54.7852H131.836V57.7148L133.301 57.8613V59.1797L131.982 59.3262L131.836 64.5996H133.301L133.594 65.918L133.154 66.2109H131.396L130.371 65.625L129.932 64.7461L129.785 59.3262L128.906 59.1797V57.8613L129.785 57.7148L129.932 55.8105L131.689 54.7852Z" fill="#362E87"/>
<path d="M277.883 54.7852H278.029V57.7148L279.494 57.8613V59.1797H278.176L278.029 64.5996H279.494L279.787 65.332V66.0645L279.348 66.2109H277.736L276.711 65.7715L276.125 64.7461V59.1797H275.246V57.8613L275.979 57.7148L276.125 55.957L277.883 54.7852Z" fill="#362E87"/>
<path d="M171.238 54.6387H172.996L173.289 55.0781V65.918L173.143 66.0645H171.385L171.238 65.918V54.6387Z" fill="#362E87"/>
<path d="M53.3203 57.5684L54.6387 57.7148L55.5176 58.1543L54.9316 59.7656L54.4922 59.6191H52.8809L52.4414 60.0586L52.1484 61.084L52.002 66.0645H50.0977V57.8613L50.3906 57.7148L52.002 57.8613L52.1484 58.1543H52.4414L52.5879 57.8613L53.3203 57.5684Z" fill="#362E87"/>
<path d="M223.098 57.5684H224.27L225.295 58.0078L225.148 58.7402L224.709 59.7656L224.27 59.6191H222.951L222.365 59.7656L222.072 61.377L221.926 65.918L221.779 66.0645H220.168V57.8613L220.461 57.7148H221.779L221.926 58.4473L222.219 58.3008L222.365 57.8613L223.098 57.5684Z" fill="#362E87"/>
<path d="M138.283 57.7148H140.041L140.188 57.8613V65.918L140.041 66.0645H138.283L138.137 65.918V57.8613L138.283 57.7148Z" fill="#362E87"/>
<path d="M297.805 64.1602H300.002V66.0645H297.805V64.1602Z" fill="#362E87"/>
<path d="M138.283 54.6387H139.895L140.188 55.0781V56.543H138.137V54.7852L138.283 54.6387Z" fill="#362E87"/>
<path d="M155.859 4.10156L156.152 4.24805L154.102 6.29883V5.85938L154.98 4.83398L155.859 4.10156Z" fill="#0790D4"/>
<path d="M79.0996 3.07617L79.3926 3.22266L77.6348 4.98047L77.4883 4.6875L78.5137 3.51563L79.0996 3.07617Z" fill="#0790D4"/>
</svg>
