<svg width="240" height="100" viewBox="0 0 240 100" fill="none" xmlns="http://www.w3.org/2000/svg">
<path d="M32.5203 0H37.6694L40.1084 0.271003L43.0894 0.813008L46.477 1.76152L49.729 3.11653L53.1165 4.87805L55.5556 6.50407L57.1816 7.72358L59.0786 9.34959L61.5176 11.7886L63.0081 13.6856L64.6341 15.9892L65.8537 18.0217L67.3442 21.0027L68.5637 24.1192L69.5122 27.7778L70.0542 31.3008L70.1897 32.5203V37.8049L69.7832 40.9214L69.1057 44.1734L67.8862 47.832L66.3957 51.084L64.9052 53.794L63.5501 55.6911L62.3306 57.3171L60.7046 59.2141L59.0786 60.8401L57.5881 62.0596L55.9621 63.4146L53.9295 64.7696L51.626 66.1247L49.0515 67.3442L46.206 68.4282L42.8184 69.3767L39.7019 69.9187L37.2629 70.1897H33.1978L29.6748 69.7832L26.2873 69.1057L23.3062 68.1572L20.1897 66.9377L17.6152 65.5827L15.3117 64.0921L12.7371 62.1951L10.7046 60.2981L8.80759 58.4011L7.31707 56.5041L6.09756 54.878L4.74255 52.71L2.98103 49.3225L1.76152 46.0705L0.813008 42.6829L0.271003 39.5664L0 36.7209V33.0623L0.542005 28.9973L1.49051 24.9322L2.43902 22.2222L3.65854 19.5122L5.01355 16.9377L6.36856 14.9051L8.13008 12.6016L10.0271 10.5691L12.0596 8.53659L13.5501 7.31707L15.8537 5.69106L17.6152 4.60705L20.7317 2.98103L24.2547 1.62602L27.2358 0.813008L30.0813 0.271003L32.5203 0Z" fill="#E63740"/>
<path d="M34.9619 16.6665H35.2329L36.3169 18.8345L37.6719 21.2736L39.1624 23.4416L40.5174 25.2031L42.0079 26.8291L44.3115 29.1326L46.2085 30.6231L47.8345 31.8427L50.0025 33.1977L53.119 34.8237L53.3901 34.9592V35.2302L50.409 36.7207L47.97 38.2112L45.9375 39.7017L44.0405 41.3278L41.8724 43.3603L40.3819 45.1218L39.4334 46.3413L38.0784 48.2383L36.4524 51.0838L35.2329 53.3874L34.8264 52.9809L33.3359 50.1353L32.1163 48.1028L30.3548 45.6638L29.1353 44.3088L28.1868 43.2248L26.0188 41.0567L24.1218 39.5662L22.2247 38.2112L19.5147 36.5852L17.4822 35.5012L16.8047 35.0947L17.0757 34.8237L19.2437 33.7397L21.1407 32.6557L23.1733 31.3007L24.7993 30.0811L26.8318 28.3196L28.8643 26.2871L30.3548 24.3901L31.3033 23.1706L32.6583 21.138L34.0134 18.699L34.9619 16.6665Z" fill="#FEFEFE"/>
<path d="M122.628 5.01367H128.048L129.267 8.2657L131.842 15.1763L134.145 21.4093L135.094 23.9839V5.01367H140.107V33.198H134.823L134.281 31.9784L132.519 27.3714L130.08 20.7318L128.725 17.2088L127.506 13.9568V33.198H122.763L122.628 33.0625L122.492 10.9757V5.14917L122.628 5.01367Z" fill="#E63740"/>
<path d="M117.074 4.87793L117.752 5.01343L117.887 6.23294V25.3386L117.752 27.6422L117.345 29.4037L116.668 30.7587L115.719 31.8427L114.093 32.9267L111.654 33.7397L110.706 33.8752H107.047L105.015 33.4687L103.389 32.7912L102.305 31.9782L101.356 30.7587L100.814 29.5392L100.408 27.9132L100.137 25.0676V5.14893L100.272 5.01343H105.421L105.557 24.9321L105.828 27.1002L106.37 28.4552L107.183 29.1327L107.86 29.4037H110.299L111.654 28.7262L112.196 27.6422L112.467 25.8806L112.603 5.01343L117.074 4.87793Z" fill="#E63740"/>
<path d="M31.1666 6.09766H31.8441L31.4376 8.80768L30.6246 11.7887L29.2696 15.1762L28.0501 17.4798L26.4241 19.9188L25.0691 21.6803L24.1206 22.6288L23.172 23.7128L21.6815 25.0678L19.92 26.4229L17.8875 27.7779L14.229 29.6749L12.1964 30.4879L8.6734 31.4364L7.31839 31.7074H6.23438L6.36988 29.9459L7.18288 26.5584L8.13139 23.8483L9.48641 21.0028L11.1124 18.4283L12.4674 16.6668L13.6869 15.3117L14.5 14.3632H14.771L15.042 13.8212L16.939 12.1952L18.565 10.9757L20.3265 9.89169L21.6815 9.07869L24.3916 7.85917L26.8306 7.04617L30.2181 6.23316L31.1666 6.09766Z" fill="#FEFEFE"/>
<path d="M63.6876 38.3467H64.0941V39.2952L63.2811 42.9537L62.1971 46.2058L60.9776 48.7803L59.3516 51.4903L58.4031 52.7098L57.3191 54.0648L55.8285 55.6909L54.4735 57.0459L52.17 58.8074L50.1375 60.1624L48.647 60.9754L46.0725 62.1949L42.8204 63.2789L39.7039 63.9564H38.4844L38.7554 61.7884L39.4329 59.0784L40.5169 56.0974L41.7364 53.5228L43.0914 51.3548L44.4464 49.4578L45.9369 47.6963L48.376 45.2572L49.731 44.1732L52.3055 42.4117L54.7445 41.0567L57.9966 39.7017L61.2486 38.7532L63.6876 38.3467Z" fill="#FEFEFE"/>
<path d="M6.23438 38.3467L7.45389 38.4822L10.4349 39.1597L13.2804 40.1082L15.7195 41.1922L18.1585 42.5472L20.462 44.1732L21.817 45.2572L23.8496 47.1543L25.2046 48.6448L26.8306 50.8128L28.1856 52.9808L29.5406 55.5554L30.6246 58.4009L31.4376 61.3819L31.8441 63.9564L31.4376 64.0919L28.4566 63.5499L25.3401 62.6014L22.63 61.5174L20.0555 60.1624L17.481 58.4009L15.584 56.7749L13.0094 54.2003L11.2479 51.8968L9.62191 49.3223L8.13139 46.2058L7.18288 43.6312L6.36988 40.2437L6.23438 39.4307V38.3467Z" fill="#FEFEFE"/>
<path d="M38.4844 6.09766L40.6524 6.36866L43.9044 7.18167L46.75 8.26568L49.0535 9.34969L51.899 11.1112L54.067 12.8727L55.422 14.0922L56.7771 15.4472L57.9966 16.9378L59.0806 18.2928L60.5711 20.7318L61.9261 23.3063L63.1456 26.6939L63.9586 30.2169L64.0941 31.7074H63.0101L59.8936 31.0299L57.0481 30.0814L54.609 28.9974L52.3055 27.7779L50.1375 26.2874L48.376 24.7968L47.021 23.5773L45.9369 22.4933L44.7174 21.0028L43.3624 19.2413L41.7364 16.5313L40.3814 13.6857L39.1619 10.0272L38.4844 6.63966V6.09766Z" fill="#FEFEFE"/>
<path d="M123.306 37.2627H128.184L128.455 37.3982L130.894 47.4253L132.791 55.1489L134.282 61.1109L134.959 58.6719L137.127 50.4063L139.024 42.9538L140.515 37.3982L140.65 37.2627H145.393L145.664 37.3982V65.447H142.683L142.547 39.4307L141.328 44.0378L139.431 51.4903L136.585 62.4659L135.908 64.905L135.637 65.447H132.791L132.385 64.2275L128.997 50.5418L126.423 39.9727L126.152 39.5662V65.447H123.171L123.035 37.3982L123.306 37.2627Z" fill="#636366"/>
<path d="M86.0434 4.33594H88.7534L90.6504 4.74244L92.5474 5.69095L93.6315 6.63946L94.58 8.12998L95.122 9.48499L95.393 10.84V13.55L95.2575 13.6855H90.5149L90.3794 13.55L90.2439 11.382L89.8374 10.027L89.1599 9.21399L88.0759 8.80748H86.3144L85.5014 9.21399L84.8239 10.027L84.5529 10.9755L84.6884 12.0595L85.2304 13.1435L86.5854 14.4985L88.4824 15.8536L90.1084 16.9376L92.2764 18.4281L93.9025 19.9186L94.7155 20.8671L95.5285 22.4931L95.935 24.3901V27.3712L95.5285 29.1327L94.7155 30.7587L93.496 32.1137L92.0054 33.0622L89.9729 33.7397L89.1599 33.8752H85.7724L83.8754 33.4687L81.9783 32.5202L80.6233 31.1652L79.5393 28.9972L79.1328 26.8292V23.3061H84.4174L84.5529 26.6937L84.9594 28.3197L85.5014 28.9972L86.3144 29.4037H88.4824L89.8374 28.7262L90.3794 27.7777L90.5149 27.3712V25.3386L89.9729 24.1191L89.0244 23.0351L87.3984 21.8156L84.9594 20.0541L83.4689 18.9701L81.9783 17.7506L80.6233 16.3956L79.6748 14.4985L79.4038 12.8725V10.84L79.9458 8.67198L80.8943 6.91046L82.2493 5.69095L84.0109 4.74244L86.0434 4.33594Z" fill="#E63740"/>
<path d="M191.599 7.18164H194.038L195.393 7.58814L196.613 8.53665L197.426 9.75617L197.968 11.2467L198.374 13.4147L198.645 16.8022V21.5448L198.374 24.7968L197.832 27.6423L197.019 29.2684L196.342 29.9459L195.258 30.7589L193.903 31.1654H191.87L190.515 30.7589L189.431 30.0814L188.618 29.1329L187.941 27.7778L187.399 25.4743L187.128 23.1708L186.992 21.1383V17.0732L187.263 13.6857L187.67 11.3822L188.347 9.62067L188.889 8.80766L189.838 7.85915L190.922 7.31714L191.599 7.18164Z" fill="#FEFEFE"/>
<path d="M227.642 5.01367H231.436L231.842 5.96218L234.146 14.3633L237.127 25.0679L238.753 31.0299L239.295 33.198H236.178L235.23 29.9459L234.01 25.2034L225.067 25.0679L224.796 26.4229L223.17 32.7915L223.034 33.198H219.918L220.189 31.8429L221.95 25.4744L224.525 15.9893L227.371 5.55568L227.642 5.01367Z" fill="#636366"/>
<path d="M156.642 37.2627H160.436L160.842 38.2112L162.875 45.6638L165.449 55.0134L167.482 62.3304L168.159 64.905V65.447H165.314L164.907 64.7695L163.146 57.9944L162.875 57.4524L154.067 57.3169L153.525 59.6204L152.17 64.905L151.899 65.447H148.918L149.189 64.2275L150.815 58.1299L155.693 40.2437L156.371 37.5337L156.642 37.2627Z" fill="#636366"/>
<path d="M171.546 37.2627H175.34L175.746 37.5337L178.05 43.3603L179.947 47.9673L181.573 52.0323L184.689 59.7559L185.231 60.9754V55.4199L185.096 43.0893V37.3982L185.231 37.2627H187.67L188.077 37.3982V65.447H184.147L183.605 64.363L178.592 51.7613L176.966 47.6963L174.391 41.1922V40.9212H174.12L174.256 47.1543L174.391 58.2654V65.447H171.41V37.3982L171.546 37.2627Z" fill="#636366"/>
<path d="M79.948 37.2627H83.8775L84.6905 38.8887L87.4006 45.6638L89.8396 51.6258L92.2786 57.7234L93.6336 60.9754V50.9483L93.4981 37.3982L94.4466 37.2627H96.0727L96.4792 37.3982V65.447H92.5496L92.0076 64.363L89.1621 57.1814L86.4521 50.4063L84.4195 45.2573L82.7935 41.1922L82.658 41.0567L82.7935 61.1109V65.3115L82.658 65.447H79.948L79.8125 65.3115V37.3982L79.948 37.2627Z" fill="#636366"/>
<path d="M148.237 7.72363H152.709L154.877 7.99464L156.232 8.67214L157.316 9.62065L158.129 11.2467L158.671 13.6857L158.942 16.5312V21.8158L158.671 24.5258L158.264 26.4228L157.587 28.0488L156.774 29.2683L155.69 30.0814L154.199 30.4879L151.083 30.6234H148.373L148.102 30.2169V7.85913L148.237 7.72363Z" fill="#FEFEFE"/>
<path d="M196.478 39.9727H200.814L202.847 40.2437L204.473 41.0567L205.286 41.7342L205.963 42.8182L206.505 44.5797L206.912 47.2897L207.047 49.5933V53.6583L206.776 56.7748L206.234 59.0783L205.15 61.2464L204.066 62.1949L203.118 62.6014L201.221 62.8724H196.343L196.207 62.7369V40.2437L196.478 39.9727Z" fill="#FEFEFE"/>
<path d="M145.125 5.01367H153.391L155.694 5.28467L157.185 5.82668L158.54 6.63969L159.624 7.5882L160.572 8.94321L161.25 10.4337L161.792 12.1952L162.198 14.6343L162.334 16.1248V20.8673L161.927 24.5259L161.385 26.8294L160.708 28.5909L159.759 30.2169L158.54 31.5719L157.049 32.5204L155.288 33.0625L154.204 33.198H145.125V5.01367ZM148.242 7.7237L148.106 7.8592V30.2169L148.377 30.6234H151.087L154.204 30.4879L155.965 29.9459L157.049 28.9974L158.133 26.8294L158.54 25.3389L158.811 23.5774L158.946 21.8158V16.5313L158.54 12.8728L157.998 10.8402L157.185 9.48522L156.101 8.53671L154.881 7.9947L152.713 7.7237H148.242Z" fill="#636366"/>
<path d="M193.225 37.2627H201.491L203.659 37.5337L205.285 38.0757L206.64 38.8887L207.588 39.7017L208.537 41.0567L209.35 42.8183L209.892 44.5798L210.299 47.4253L210.434 49.3223V52.1678L210.163 55.6909L209.621 58.5364L208.808 60.7044L207.995 62.1949L206.911 63.55L205.42 64.634L204.065 65.176L202.304 65.447H193.225L193.09 65.0405V37.3982L193.225 37.2627ZM196.477 39.9727L196.206 40.2437V62.7369L196.342 62.8725H201.22L203.117 62.6014L204.472 61.9239L205.42 60.8399L206.233 59.0784L206.775 56.7749L207.046 53.6584V49.5933L206.775 46.0703L206.233 43.6313L205.691 42.2762L204.878 41.3277L203.523 40.5147L202.304 40.1082L200.813 39.9727H196.477Z" fill="#636366"/>
<path d="M192.412 4.33594L194.715 4.47144L196.612 5.01344L198.238 5.96195L199.187 6.91046L200.271 8.67198L201.084 10.9755L201.626 14.2275L201.897 17.8861V20.3251L201.626 24.1191L201.084 27.2357L200.406 29.2682L199.593 30.7587L198.374 32.1137L197.019 33.0622L195.122 33.7397L194.309 33.8752H191.463L189.973 33.6042L187.805 32.5202L186.856 31.7072L185.772 30.2167L185.095 28.7262L184.417 26.4227L183.875 22.7641V15.7181L184.282 12.6015L184.959 9.75599L186.043 7.58797L187.127 6.23296L188.482 5.28445L190.244 4.60694L192.412 4.33594ZM191.599 7.18147L190.379 7.58797L189.566 8.12998L188.618 9.07849L187.94 10.569L187.398 12.737L187.127 15.0405L186.992 17.0731V21.1381L187.263 24.5256L187.669 26.8292L188.347 28.7262L189.295 29.9457L189.973 30.4877L191.192 31.0297L191.87 31.1652H193.902L195.528 30.6232L196.612 29.8102L197.561 28.3197L197.967 27.1002L198.374 24.7966L198.645 21.5446V16.8021L198.374 13.4145L197.832 10.7045L196.883 8.80748L195.799 7.85897L194.715 7.31697L194.038 7.18147H191.599Z" fill="#636366"/>
<path d="M116.124 37.2627H117.343L118.021 37.3982V58.5364L117.75 60.5689L117.208 62.0594L116.395 63.279L115.853 63.9565L114.091 65.176L112.33 65.8535L110.975 66.1245H108.536L106.639 65.718L104.877 65.0405L103.387 63.821L102.438 62.4659L101.896 60.9754L101.625 59.2139V37.3982H104.742L104.877 58.4009L105.284 60.5689L105.961 61.9239L107.045 62.7369L108.265 63.1435L110.162 63.279L111.517 63.008L112.736 62.4659L113.82 61.5174L114.498 60.0269L114.904 57.8589L115.04 37.3982L116.124 37.2627Z" fill="#636366"/>
<path d="M228.725 36.7207H232.384L234.281 37.2627L235.771 38.2112L236.855 39.4307L237.533 40.7857L237.939 42.4118V44.4443L237.668 44.5798H235.229L234.687 42.0053L234.145 40.9212L232.926 39.8372L231.571 39.4307H229.674L228.59 39.7017L227.506 40.2437L226.557 41.3277L226.151 42.2763L226.015 42.9538V44.9863L226.422 46.3413L226.964 47.1543L228.048 47.9673L230.08 48.9158L234.281 50.5418L236.449 51.6259L237.668 52.8454L238.481 54.6069L238.752 55.5554L238.888 56.7749V58.2654L238.617 60.2979L237.939 62.195L236.991 63.55L236.042 64.4985L234.687 65.3115L233.197 65.8535L231.706 66.1245H229.403L227.37 65.718L225.473 64.7695L224.525 63.9565L223.712 62.737L223.034 61.2464L222.628 59.3494L222.492 56.6394L222.628 56.5039H225.473L225.744 59.2139L226.286 60.9754L227.099 62.0595L228.048 62.737L229.267 63.1435L230.08 63.279H231.571L233.468 62.737L234.823 61.5175L235.5 60.1624L235.771 58.9429V57.0459L235.365 55.6909L234.823 54.8779L233.874 54.0649L231.977 53.1164L227.641 51.4904L225.473 50.4063L224.796 49.8643L223.847 48.3738L223.305 47.1543L223.034 45.7993V43.2248L223.441 41.3277L224.389 39.4307L225.473 38.2112L226.693 37.3982L228.725 36.7207Z" fill="#636366"/>
<path d="M34.2826 27.9131H36.0441L37.6702 28.3196L39.4317 29.2681L40.5157 30.2166L41.7352 32.1136L42.2772 33.8751V36.1787L41.7352 37.9402L40.9222 39.2952L39.7027 40.6502L38.2122 41.5987L36.4506 42.1407L35.9086 42.2762H34.4181L32.3856 41.7342L30.8951 40.9212L29.8111 39.9727L28.8626 38.6177L28.1851 37.1272L27.9141 35.3657L28.0496 33.6041L28.5916 32.1136L29.4046 30.6231L30.6241 29.4036L32.2501 28.4551L33.4696 28.0486L34.2826 27.9131Z" fill="#E63740"/>
<path d="M163.145 5.01367H166.803L167.21 5.55568L168.565 8.67221L171.817 15.9893L173.036 18.6993L173.307 18.8348L173.443 18.1573L175.34 14.0923L176.695 11.1112L177.779 8.94321L179.54 5.14917L179.676 5.01367H182.928L182.792 5.55568L181.302 8.67221L180.082 11.2467L177.508 16.3958L176.017 19.5123L174.798 22.0868L174.662 30.3524L174.527 33.198H171.546L171.41 33.0625V23.4419L171.275 21.9513L169.649 18.6993L168.158 15.5828L166.532 12.1952L164.364 7.7237L163.145 5.01367Z" fill="#636366"/>
<path d="M204.471 5.01367H221.409V7.8592L220.732 7.9947H214.77V33.0625L214.634 33.198H211.653L211.518 33.0625V7.9947H204.471L204.336 7.8592V5.14917L204.471 5.01367Z" fill="#636366"/>
<path d="M29.8106 92.1411H41.8702L50.8133 92.4121L58.1304 92.8186L61.5179 93.2251L62.4664 93.6316L62.1954 94.0381L59.7564 94.4446L54.2008 94.8511L51.4908 94.9866L46.7483 95.1221H24.526L16.125 94.8511L10.5694 94.4446L7.99488 94.0381L7.85938 93.4961L8.94339 93.2251L12.1954 92.8186L16.396 92.5476L23.984 92.2766L29.8106 92.1411Z" fill="#E63740"/>
<path d="M215.042 37.2627H218.023L218.158 37.3982V65.3115L218.023 65.447H215.042L214.906 65.3115V37.3982L215.042 37.2627Z" fill="#636366"/>
<path d="M189.433 86.9917L190.517 87.1272L191.33 87.6692L191.601 88.0757L191.736 87.2627H192.956L193.091 87.3982V96.4768L192.82 97.9673L192.278 99.0513L191.059 99.8643L190.517 99.9998H188.891L187.807 99.4578L187.265 98.7803L186.994 98.2383L187.129 97.6963H188.349L188.62 98.5093L189.162 98.6448H190.652L191.33 98.3738L191.736 96.2058L191.194 96.4768L189.839 97.0188L188.62 96.8833L187.536 95.9348L186.994 94.7153L186.723 93.3603V90.3792L186.994 89.1597L187.671 87.9402L188.484 87.2627L189.433 86.9917Z" fill="#E63740"/>
<path d="M123.171 84.0107H124.39L124.526 84.2817V87.8048L125.339 87.2628L126.152 86.9918L127.371 87.1273L128.184 87.6693L128.862 88.4823L129.404 90.2438V93.4958L128.997 95.1219L128.184 96.3414L127.371 96.8834L126.016 97.0189L125.068 96.6124L124.255 95.9349V96.8834H123.171L123.035 95.7994V84.1462L123.171 84.0107Z" fill="#E63740"/>
<path d="M158.401 40.1084H158.672L159.62 43.6314L162.33 54.2005V54.4715H154.742L155.284 52.0325L158.265 40.3794L158.401 40.1084Z" fill="#FEFEFE"/>
<path d="M229.405 7.85889H229.676L230.082 9.2139L233.199 21.409L233.334 22.222H225.746L226.288 19.9185L229.134 8.67189L229.405 7.85889Z" fill="#FEFEFE"/>
<path d="M147.429 86.9917H149.19L150.139 87.5337L150.681 88.3467L150.816 88.8887L150.952 95.5283L151.494 95.7993V96.8833H150.274L149.732 96.3413V95.7993L148.377 96.8833L147.158 97.1543L146.074 96.7478L145.396 95.9348L145.125 95.1218V93.6313L145.532 92.5473L146.887 91.5987L148.648 90.9212L149.19 90.5147L149.326 90.1082V89.1597L149.055 88.4822L147.971 88.2112L147.022 88.6177L146.48 89.8372H145.532L145.396 89.7017L145.532 88.4822L145.938 87.8047L146.616 87.2627L147.429 86.9917Z" fill="#E63740"/>
<path d="M113.142 86.9917H114.362L115.31 87.3982L115.988 88.0757L116.53 89.1597L116.801 91.0567V92.0052L116.394 92.1408H112.194L112.329 94.1733L112.736 95.2573L113.278 95.7993H114.362L115.039 94.9863L115.446 93.6313H116.665V94.7153L115.988 96.0703L115.039 96.8833L114.633 97.0188H112.871L111.787 96.3413L111.11 95.2573L110.703 93.0893V91.0567L110.974 89.4307L111.516 88.2112L112.329 87.2627L113.142 86.9917Z" fill="#E63740"/>
<path d="M233.607 86.9917H234.962L236.046 87.5337L236.588 88.2112L237.13 89.7017L237.266 90.7857V92.0052L236.588 92.1408H232.658L232.794 94.0378L233.2 95.2573L233.742 95.7993H234.827L235.504 94.9863L235.911 93.6313H237.13V94.7153L236.588 95.9348L235.504 96.8833L235.098 97.0188H233.336L232.387 96.4768L231.71 95.5283L231.303 94.0378L231.168 92.6828V91.1922L231.439 89.4307L231.981 88.2112L232.794 87.2627L233.607 86.9917Z" fill="#E63740"/>
<path d="M93.0914 86.9917H94.4464L95.3949 87.3982L96.0724 88.2112L96.4789 89.1597L96.7499 90.7857V91.8697L96.4789 92.1408H92.1429L92.2784 94.1733L92.8204 95.5283L93.7689 95.9348L94.7174 95.5283L95.1239 94.7153L95.3949 93.6313H96.6144V94.5798L96.2079 95.6638L95.2594 96.7478L94.5819 97.0188H92.8204L91.7364 96.3413L90.9233 94.7153L90.6523 93.0893V90.7857L91.1943 88.6177L92.0074 87.5337L93.0914 86.9917Z" fill="#E63740"/>
<path d="M177.643 86.9917L178.998 87.1272L179.811 87.6692L180.217 88.3467L180.353 88.8887V96.7478L180.082 96.8833L178.998 96.7478L178.862 89.2952L178.456 88.6177L177.778 88.3467L176.83 88.4822L176.152 89.1597L175.881 89.7017L175.746 96.7478H174.391V87.3982L174.526 87.2627H175.61V88.2112L177.101 87.1272L177.643 86.9917Z" fill="#E63740"/>
<path d="M80.8948 86.9917H82.1144L83.1984 87.3982L84.0114 88.2112L84.4179 89.2952V90.2437H83.0629L82.7919 89.1597L82.2499 88.4822L81.9788 88.3467L80.7593 88.4822L80.0818 89.5662L79.8108 91.4632V92.6828L80.2173 94.8508L80.6238 95.5283L81.8433 95.7993L82.5209 95.3928L82.9274 94.7153L83.1984 93.4958L83.7404 93.3603L84.5534 93.6313L84.2824 95.1218L83.8759 95.9348L83.1984 96.6123L82.2499 97.0188H80.6238L79.8108 96.6123L78.9978 95.6638L78.4558 94.3088L78.3203 93.4958V90.6502L78.7268 89.0242L79.4043 87.8047L80.3528 87.1272L80.8948 86.9917Z" fill="#E63740"/>
<path d="M189.433 88.2114H190.517L191.33 89.1599L191.601 89.8374L191.737 90.6505V93.496L191.33 94.851L190.653 95.664L189.433 95.7995L188.62 95.122L188.214 94.038L188.078 93.225V90.786L188.349 89.5664L189.027 88.4824L189.433 88.2114Z" fill="#FEFEFE"/>
<path d="M224.257 84.0107H225.612V85.2303L225.476 85.3658H224.392V87.1273L225.612 87.2628V88.3468L224.392 88.4823L224.257 96.4769L224.121 96.7479L222.902 96.8834L222.766 96.7479V88.4823L221.547 88.3468V87.2628H222.766V85.7723L223.037 84.6882L223.85 84.1462L224.257 84.0107Z" fill="#E63740"/>
<path d="M125.746 88.2114L126.83 88.3469L127.643 89.2954L127.914 89.9729V93.9025L127.372 95.2575L126.559 95.7995H125.746L124.933 95.2575L124.391 93.767V90.1084L124.797 89.0244L125.746 88.2114Z" fill="#FEFEFE"/>
<path d="M157.859 84.8237H159.078L159.214 87.2628H160.569L160.704 87.3983V88.2113L159.756 88.4823L159.214 88.6178V94.5798L159.349 95.5283L160.569 95.7993L160.704 95.9348L160.569 96.8834L160.433 97.0189H158.943L158.13 96.4768L157.859 96.2058L157.723 95.2573V88.4823L156.504 88.3468V87.3983L156.639 87.2628L157.588 87.1273L157.859 84.8237Z" fill="#E63740"/>
<path d="M103.116 84.0107H104.335L104.471 88.0758L104.335 96.8834L103.116 96.7479L102.98 96.0704V84.5527L103.116 84.0107Z" fill="#E63740"/>
<path d="M206.504 84.0107H207.723L207.859 84.6882V96.7479L207.452 96.8834L206.504 96.7479V84.0107Z" fill="#E63740"/>
<path d="M138.89 86.9917H139.703L139.838 87.1272V88.4822L138.483 88.6177L137.67 89.2952L137.264 90.5147L137.128 96.7478H135.773V87.6692L135.909 87.2627H136.993V88.4822H137.264L137.535 87.9402L138.483 87.1272L138.89 86.9917Z" fill="#E63740"/>
<path d="M214.499 87.2627H215.854V96.8833L214.499 96.7478L214.363 95.6638V87.3982L214.499 87.2627Z" fill="#E63740"/>
<path d="M166.397 87.2627H167.752V96.7478H166.397L166.262 92.6827V87.9402L166.397 87.2627Z" fill="#E63740"/>
<path d="M148.916 92.0054H149.458V94.0379L149.187 94.9864L148.645 95.6639L148.103 95.9349L147.154 95.7994L146.612 95.2574L146.477 94.8509V93.6314L146.883 92.9539L148.509 92.1409L148.916 92.0054Z" fill="#FEFEFE"/>
<path d="M113.415 88.0757H114.228L115.041 88.7532L115.312 89.5662V90.9212L115.176 91.0567H112.331L112.195 90.9212V89.5662L112.737 88.4822L113.415 88.0757Z" fill="#FEFEFE"/>
<path d="M93.3628 88.0757H94.1758L94.8533 88.6177L95.2598 89.5662V90.9212L95.1243 91.0567H92.2788L92.0078 90.7857L92.1433 89.5662L92.5498 88.7532L93.3628 88.0757Z" fill="#FEFEFE"/>
<path d="M234.011 88.0757H234.824L235.502 88.8887L235.773 89.5662V90.9212L235.637 91.0567H233.063L232.656 90.9212V89.5662L233.063 88.7532L233.605 88.2112L234.011 88.0757Z" fill="#FEFEFE"/>
<path d="M166.398 84.0107H167.753V85.7723H166.398V84.0107Z" fill="#E63740"/>
<path d="M214.5 84.0107H215.72L215.855 84.1462V85.7723H214.5V84.0107Z" fill="#E63740"/>
</svg>
