<svg width="300" height="67" viewBox="0 0 300 67" fill="none" xmlns="http://www.w3.org/2000/svg">
<path d="M0 0H47.6931L47.0913 0.451354L44.0822 2.10632L41.675 3.76128L39.5687 5.41625L37.6128 7.22166L35.8074 9.02708L34.4534 10.682L32.9488 12.6379L31.4443 14.8947L29.7894 17.7533L27.984 21.2136L26.1785 25.4263L24.674 29.6389L21.9659 37.9137L19.7091 43.6309L17.9037 47.5426L15.7974 51.6048L13.6911 54.9147L11.7352 57.4724L10.3811 58.9769L9.32798 60.1805L8.12437 61.3842L6.46941 62.7382L4.51354 64.2427L1.50451 66.0481L0 66.8004V0Z" fill="#393287"/>
<path d="M231.242 0.300781L238.163 0.451233L238.313 21.9658L241.322 18.054L243.729 14.8946L247.641 9.77922L249.447 7.372L251.553 4.66387L254.712 0.451233L255.164 0.300781L261.031 0.451233V37.9136H252.155V18.2045L250.801 19.8595L248.995 22.2667L247.039 24.8244L245.234 27.2316L243.128 29.9397L241.322 32.3469L239.818 34.3028L237.862 36.8605L237.11 37.9136H229.437L229.286 17.0009L227.481 19.4081L225.374 22.1162L223.569 24.5235L221.613 27.0811L220.109 29.037L217.852 32.046L216.197 34.1523L214.241 36.71L213.338 37.9136H202.656L203.108 37.1614L205.214 34.4532L208.825 29.6388L210.329 27.6829L212.586 24.6739L214.692 21.9658L216.498 19.5586L218.905 16.3991L220.259 14.5937L221.764 12.6378L223.569 10.2306L227.932 4.51342L230.189 1.50439L231.242 0.300781Z" fill="#E42227"/>
<path d="M117.203 0.451172H125.327V15.3459H136.912V0.451172H145.187V37.9136L144.435 38.064H136.912L136.762 33.8514V23.6207L125.478 23.4702V37.9136L124.876 38.064H117.354L117.203 37.9136V0.451172Z" fill="#E42227"/>
<path d="M152.408 0.300781H159.179L160.533 0.451233L162.338 2.85845L164.745 6.01793L167.002 9.02696L169.108 11.7351L171.215 14.5937L173.321 17.3018L175.126 19.709L179.941 26.028L182.198 29.037L184.304 31.7451L186.109 34.1523L188.517 37.3118L188.817 37.9136H178.135L176.029 35.2055L174.224 32.7983L172.569 30.692L171.516 29.3379H160.984L160.834 37.9136H152.258V0.451233L152.408 0.300781ZM160.834 15.1955V21.9658L161.285 22.1162L165.949 21.9658L165.648 21.364L163.843 18.9568L161.887 16.3991L160.984 15.1955H160.834Z" fill="#E42227"/>
<path d="M98.6958 0H100.802L102.908 0.300903L105.165 1.05316L106.82 2.10632L108.325 3.61083L109.528 5.5667L110.281 7.52257L110.882 10.3811L111.033 12.1866L105.316 12.337H102.758L102.608 12.1866L102.156 9.62889L101.705 8.72618L100.953 8.12437L100.652 7.97392H98.9967L97.9435 8.57573L97.1913 9.47843L96.8904 10.5316L97.0408 11.8857L97.9435 13.2397L99.448 14.1424L101.253 14.7442L103.51 15.346L105.917 16.5496L107.272 17.6028L108.776 19.1073L110.13 21.2136L110.882 23.0191L111.484 25.4263V28.8867L110.732 31.7452L109.829 33.5507L108.926 34.7543L107.873 35.9579L105.917 37.3119L103.962 38.2146L101.404 38.8164H97.1913L95.0849 38.3651L93.1291 37.6128L91.6246 36.5597L90.1201 35.0552L88.9164 32.9488L88.1642 30.3912L87.8633 27.9839V25.4263L88.0137 25.2758H95.8372V26.4794L96.1381 27.9839L96.7399 29.1876L97.3417 29.9398L98.6958 30.6921H100.501L101.705 30.0903L102.608 29.338L103.209 27.8335V26.0281L102.758 25.1254L101.554 24.0722L99.5985 23.1695L96.5895 22.1163L94.1822 20.9127L92.5273 19.8596L91.0228 18.5055L89.8191 16.5496L89.0669 14.4433L88.766 13.0893V10.0802L89.3678 7.52257L90.5714 5.11535L91.4741 3.76128L92.9786 2.25677L94.784 1.05316L96.8904 0.300903L98.6958 0Z" fill="#E42227"/>
<path d="M279.988 0.451172H288.865L289.015 30.0901H299.848L299.998 30.2405V37.9136H279.988V0.451172Z" fill="#E42227"/>
<path d="M266.147 0.451172H274.722L274.873 0.601623V37.9136L274.722 38.064H266.147L265.996 36.1081V1.65478L266.147 0.451172Z" fill="#E42227"/>
<path d="M191.525 0.300781H196.942L200.101 0.451233V37.9136L199.951 38.0641H191.375V0.451233L191.525 0.300781Z" fill="#E42227"/>
<path d="M66.4992 22.4175H66.8001V47.8438L66.6497 47.9942H49.0469L49.3478 47.0915L51.0027 43.6311L53.41 37.7635L54.764 34.7545L56.5694 31.2941L58.2244 28.8869L60.0298 26.931L61.3839 25.577L63.6407 23.922L66.4992 22.4175Z" fill="#393287"/>
<path d="M150.903 44.2329L153.762 44.3834L156.019 44.9852L158.426 46.1888L160.081 47.3924L161.284 48.596L162.337 50.1005L163.24 52.0564L163.692 54.0122V57.0213L163.09 59.5789L162.037 61.5348L160.683 63.1898L159.328 64.3934L157.072 65.7475L154.965 66.4997L153.461 66.8006H149.248L146.841 66.1988L144.434 64.9952L143.08 63.942L141.274 62.1366L140.221 60.4817L139.318 57.7735L139.168 56.8708V54.1627L139.77 51.7555L140.672 49.9501L141.876 48.4455L143.381 46.941L145.487 45.587L147.744 44.6843L149.248 44.3834L150.903 44.2329ZM149.85 47.5428L147.744 48.1446L146.239 49.0474L144.735 50.4014L143.682 52.0564L142.929 54.0122V57.0213L143.531 58.9771L144.434 60.4817L145.788 61.8357L147.894 63.0393L149.85 63.6411H153.16L155.116 63.0393L156.921 61.9862L158.576 60.3312L159.479 58.8267L160.081 56.5699V54.4636L159.629 52.8086L159.028 51.605L157.974 50.251L156.62 49.0474L154.213 47.8437L153.009 47.5428H149.85Z" fill="#E42227"/>
<path d="M227.933 44.2329L230.641 44.3834L233.048 44.9852L235.455 46.1888L237.712 47.9942L239.216 49.9501L240.27 52.2068L240.57 53.5609V57.4726L239.969 59.7294L238.915 61.6853L237.261 63.4907L236.057 64.5438L233.951 65.7475L231.844 66.4997L230.34 66.8006H226.127L223.87 66.1988L222.366 65.597L220.711 64.5438L218.905 62.8889L217.702 61.3844L216.649 59.1276L216.197 57.4726L216.047 54.915L216.498 52.5077L217.25 50.7023L218.153 49.1978L219.808 47.3924L221.614 46.0383L223.419 45.1356L225.375 44.5338L227.933 44.2329ZM226.879 47.5428L225.074 47.9942L223.419 48.8969L221.914 50.251L221.012 51.3041L220.109 53.26L219.808 54.4636V56.7204L220.41 58.8267L221.313 60.3312L222.366 61.5348L223.87 62.588L225.676 63.3402L226.729 63.6411H230.039L231.995 63.0393L233.65 62.1366L235.305 60.6321L236.207 59.278L236.809 57.7735L236.96 57.0213V54.0122L236.358 52.3573L235.455 50.8528L233.8 49.1978L231.995 48.1446L229.888 47.5428H226.879Z" fill="#E42227"/>
<path d="M123.068 44.6841H128.635L131.343 44.985L132.998 45.5868L134.352 46.4895L135.255 47.5427L135.857 49.0472L136.007 49.9499V51.4544L135.405 53.1094L134.503 54.1625L133.75 54.6139L135.405 55.667L136.609 57.0211L137.211 58.6761V60.9328L136.759 62.4373L136.007 63.7914L135.255 64.6941L133.6 65.7473L131.193 66.3491L128.936 66.4995H122.918V44.8345L123.068 44.6841ZM126.529 47.6931L126.378 48.1445V53.7112L126.529 53.8616H128.184L130.29 53.5607L131.494 52.9589L132.246 52.0562L132.396 51.6048V49.7994L131.945 48.8967L131.193 48.2949L129.989 47.8436L126.529 47.6931ZM126.378 56.4193V63.4905H129.989L131.644 63.1896L132.848 62.5878L133.6 61.5346L133.75 60.9328V59.2779L133.149 57.9238L132.096 57.0211L130.892 56.5697L130.14 56.4193H126.378Z" fill="#E42227"/>
<path d="M243.881 44.6841H251.554L254.112 44.985L256.218 45.7372L257.873 46.9409L258.776 48.1445L259.377 49.649L259.528 50.2508V52.9589L259.077 54.4634L257.873 56.1184L256.519 57.1715L255.165 57.7734L253.961 58.0743H252.908L254.112 59.5788L256.82 62.8887L258.776 65.2959L259.528 66.1986V66.4995H255.165L253.66 64.6941L252.156 62.7382L250.35 60.4815L248.695 58.3752L247.492 56.8706V56.5697H247.191L247.341 57.0211V66.3491L247.191 66.4995H243.73V44.8345L243.881 44.6841ZM247.341 47.6931L247.191 50.1003V55.667L247.341 55.9679H250.802L252.607 55.667L254.262 55.0652L255.616 53.8616L256.067 52.8085V50.7021L255.466 49.3481L254.262 48.4454L253.058 47.994L251.253 47.6931H247.341Z" fill="#E42227"/>
<path d="M166.852 44.6841H174.525L177.082 44.985L178.888 45.5868L180.392 46.4895L181.445 47.5427L182.348 49.3481L182.649 50.7021V52.658L182.047 54.6139L181.144 55.8175L180.091 56.8706L178.587 57.6229L177.082 58.0743L176.029 58.2247L177.684 60.1806L178.888 61.6851L181.596 64.995L182.499 66.1986V66.4995H178.286L176.932 64.995L175.427 63.0391L173.772 60.9328L171.967 58.6761L170.462 56.7202L170.312 66.4995H166.852V44.6841ZM170.312 47.6931V55.9679H173.772L176.18 55.5166L177.985 54.6139L178.888 53.4103L179.189 52.3571V51.003L178.737 49.7994L177.684 48.5958L176.18 47.994L174.374 47.6931H170.312Z" fill="#E42227"/>
<path d="M192.127 44.6841H195.437L196.64 47.0913L198.446 51.3039L203.26 62.4373L204.765 65.8977L204.915 66.3491L204.765 66.4995H201.004L199.349 62.7382L198.446 60.4815V60.1806L189.118 60.331L186.56 66.3491L186.41 66.4995H182.648L182.949 65.7473L186.109 58.3752L189.569 50.4012L191.976 44.8345L192.127 44.6841ZM193.631 49.0472L191.375 54.6139L190.472 56.7202V57.0211H197.092L196.189 54.6139L193.932 49.1976L193.631 49.0472Z" fill="#E42227"/>
<path d="M108.926 44.6841H112.236L112.687 45.4363L114.342 49.1976L116.298 53.7112L118.705 59.2779L121.413 65.5968L121.714 66.3491L121.564 66.4995H117.953L117.501 65.8977L115.245 60.4815L115.094 60.1806L105.917 60.331L103.961 64.995L103.208 66.4995H99.5977L99.7481 65.7473L102.005 60.4815L103.961 55.9679L107.421 47.994L108.775 44.8345L108.926 44.6841ZM110.43 49.0472L108.173 54.6139L107.271 56.7202V57.0211H113.891L113.439 55.667L110.731 49.0472H110.43Z" fill="#E42227"/>
<path d="M270.51 44.6841H282.847L282.997 45.1354V47.5427L282.847 47.6931H273.97V54.1625H282.847L282.997 54.6139V56.8706H273.97L274.121 63.3401H282.847L282.997 66.3491L282.847 66.4995H270.51L270.359 66.3491V44.8345L270.51 44.6841Z" fill="#E42227"/>
<path d="M291.577 44.3833H294.736L296.541 44.9851L297.745 45.8878L298.648 46.941L299.4 48.7464L299.55 50.1005H296.241L295.639 48.5959L294.886 47.8437L293.532 47.3923H292.479L291.276 47.8437L290.523 48.5959L290.072 49.4986V51.1536L290.674 52.0563L291.877 52.8086L295.94 54.0122L297.595 54.9149L298.648 55.8176L299.701 57.4726L300.002 58.5257V61.3843L299.4 63.1897L298.497 64.5438L297.444 65.5969L295.639 66.4997L294.586 66.8006L292.329 66.951L290.523 66.6501L288.718 65.8978L287.213 64.5438L286.311 63.0393L285.859 61.2339V60.1807H289.019L289.621 62.1366L290.222 62.8888L291.276 63.4906L291.877 63.6411H293.833L295.037 63.1897L295.789 62.5879L296.391 61.3843L296.541 60.7825V59.4284L296.09 58.2248L294.886 57.3221L292.78 56.5699L290.373 55.8176L288.718 54.9149L287.364 53.5608L286.612 51.9059L286.461 50.2509L286.762 48.4455L287.514 46.941L288.567 45.7374L290.072 44.8347L291.577 44.3833Z" fill="#E42227"/>
<path d="M39.868 19.2578H40.1689V51.6049L39.5671 53.2598L38.9653 54.4634V54.7643H40.0185L40.1689 54.9148V66.65L40.0185 66.8004H37.9122L37.7617 66.65V22.7182L39.7176 19.4083L39.868 19.2578Z" fill="#E42227"/>
<path d="M202.508 44.6841H214.845L214.995 44.8345V47.6931H210.482V66.3491L210.331 66.4995H207.021L206.871 66.3491V47.6931H202.508V44.6841Z" fill="#E42227"/>
<path d="M88.0137 44.6841H90.8723L91.4741 44.8345V63.3401H99.1471L99.2976 63.4905V66.3491L99.1471 66.4995H88.0137L87.8633 66.3491V44.8345L88.0137 44.6841Z" fill="#E42227"/>
<path d="M35.3563 27.5327H35.6572V66.6501L35.5068 66.8005H33.4005L33.25 65.4465V38.5157L33.4005 32.6481L34.4536 29.9399L35.3563 27.5327Z" fill="#E42227"/>
<path d="M262.84 44.6841H266.15L266.3 44.8345V66.4995H262.84V44.6841Z" fill="#E42227"/>
<path d="M44.3837 13.6909H44.5341V40.0199L42.4278 46.038H42.2773V16.0981L43.6314 14.5936L44.3837 13.6909Z" fill="#E42227"/>
<path d="M30.993 38.9668H31.1435V66.8003H28.8867V44.5335L30.5417 40.1704L30.993 38.9668Z" fill="#E42227"/>
<path d="M48.7469 9.62891H49.0478V29.338L47.8442 31.7453L46.9415 33.7011H46.6406V11.4343L48.1451 10.0803L48.7469 9.62891Z" fill="#E42227"/>
<path d="M53.2587 6.31885H53.4091V22.8685L52.2055 24.2226L51.3028 25.5766H51.1523V7.82336L52.8073 6.61975L53.2587 6.31885Z" fill="#E42227"/>
<path d="M57.6238 3.76123H57.9247V18.6559L56.2698 20.01L55.668 20.3109V4.96484L57.1725 4.06213L57.6238 3.76123Z" fill="#E42227"/>
<path d="M62.1376 1.65479H62.4385V15.7972L61.2349 16.5495L60.4826 17.0008H60.1817L60.0312 12.6377V2.70794L62.1376 1.65479Z" fill="#E42227"/>
<path d="M66.4988 0H66.7997V14.1424L64.8439 14.8947H64.543V0.752257L66.4988 0Z" fill="#E42227"/>
<path d="M26.6318 50.5518H26.7822V66.6501L26.6318 66.8005H24.5255L24.375 66.6501V55.5167L26.1804 51.4545L26.6318 50.5518Z" fill="#E42227"/>
<path d="M46.6406 54.9146H49.0478V66.6498L48.8974 66.8002H46.7911L46.6406 66.6498V54.9146Z" fill="#E42227"/>
<path d="M60.0312 54.9146H62.4385V66.8002H60.1817L60.0312 62.738V54.9146Z" fill="#E42227"/>
<path d="M64.543 54.9146H66.7997V66.8002H64.543V54.9146Z" fill="#E42227"/>
<path d="M55.668 54.9146H57.9247V66.8002H55.668V54.9146Z" fill="#E42227"/>
<path d="M51.1523 54.9146H53.4091V66.8002H51.1523V54.9146Z" fill="#E42227"/>
<path d="M42.2773 54.9146H44.5341V66.6498L44.3837 66.8002H42.2773V54.9146Z" fill="#E42227"/>
<path d="M21.9657 59.5786H22.2666V66.6498L22.1161 66.8003H20.0098L19.8594 66.048L20.0098 62.2867L21.063 61.0831L21.9657 59.5786Z" fill="#E42227"/>
<path d="M17.6043 64.8447H17.7548L17.9052 66.6501L17.7548 66.8006H15.6484L15.7989 66.3492L17.0025 65.2961L17.6043 64.8447Z" fill="#E42227"/>
</svg>
