<svg width="206" height="100" viewBox="0 0 206 100" fill="none" xmlns="http://www.w3.org/2000/svg">
<path d="M86.5523 0H86.7968L86.5523 1.10024L85.5743 3.91198L84.2295 6.96821L83.1293 9.04645L81.9068 10.8802L81.051 11.9804L79.9508 13.2029L79.4618 13.8142L78.4838 14.6699L76.8946 15.8924L74.6941 17.1149L72.4936 17.9707L69.1928 18.7042L67.2369 18.9487H61.3689L56.6012 18.7042L52.2002 18.4597H46.5767L44.1317 18.8264L41.809 19.4377L39.853 20.2934L39.2417 20.6601H38.875L38.9972 19.9267L40.342 16.0147L42.0535 12.4694L43.0315 10.7579L44.254 9.04645L45.5987 7.45721L46.699 6.35697L48.2882 5.13447L50.6109 3.78973L52.3224 3.05623L54.8897 2.32274L57.8237 1.83374L59.1684 1.71149H62.5914L69.9263 2.07824L73.7161 2.32274H78.2393L81.1733 1.95599L83.2515 1.46699L85.2075 0.733496L86.5523 0Z" fill="#03A55A"/>
<path d="M28.9727 45.5991H34.7184L34.8406 53.7898H44.1316L44.2538 53.3008V47.0661L44.3761 45.5991H50.1218V68.093H44.3761L44.2538 67.9708L44.1316 59.7801H34.8406L34.7184 68.093H28.9727V45.5991Z" fill="#4E4E4F"/>
<path d="M182.765 83.1294L182.887 83.3739L181.298 87.8971L178.853 94.9876V95.9656L179.097 96.2101L179.831 96.0878L181.176 95.3543L181.909 94.8653L182.643 92.6648L183.498 90.2199L182.765 90.3421L182.643 89.8531L183.009 89.4864L183.865 89.3641L185.088 85.8189L185.943 85.5744L188.266 85.0854L188.021 86.1856L186.921 89.4864H188.266L187.899 90.2199H186.555L186.188 91.5646L184.843 95.3543L184.965 96.0878L185.088 96.2101L186.188 96.0878L187.533 95.3543L188.266 94.8653L190.1 89.8531L192.056 84.5964L192.422 83.7406L195.479 83.1294L195.356 83.9851L193.156 89.9754L191.444 94.4986L190.711 96.3323H190.955L191.2 95.7211L192.789 92.6648L194.012 90.9534L194.623 90.2199L195.845 89.2419L196.701 88.8751H198.29L198.902 89.4864V90.7089L197.924 93.1538L197.19 95.1098V96.0878L197.312 96.2101H198.046L199.391 95.4766L200.491 94.6208V94.9876L199.268 95.9656L197.801 96.6991L197.435 96.8213H195.968L194.867 96.3323L194.378 95.7211V94.3763L195.234 92.0536L196.212 89.7309V89.4864L195.234 90.3421L193.767 92.1758L192.3 94.4986L191.078 96.4546L190.589 96.8213H189.366L188.633 96.4546L188.266 95.8433V95.3543L185.699 96.5768L184.599 96.8213L183.254 96.6991L182.52 96.3323L182.031 95.7211L181.909 95.3543L181.298 95.5988L179.831 96.4546L178.608 96.8213H177.386L176.408 96.4546L175.919 95.8433V95.1098L174.085 96.2101L172.863 96.6991L171.518 96.8213L170.418 96.4546L169.806 95.9656L167.973 96.6991L167.361 96.8213H166.261L165.161 96.4546L164.55 95.7211L164.427 95.1098L162.105 96.3323L160.149 96.8213H158.193L156.848 96.3323L156.359 95.7211L156.237 95.1098L155.503 95.5988L153.914 96.5768L153.058 96.8213H151.836L150.613 96.3323L150.124 95.7211V94.3763L150.858 92.4203L151.958 89.7309V89.4864L150.98 90.3421L149.635 92.0536L148.29 94.1318L146.946 96.3323L146.334 96.8213H145.112L144.256 96.3323L144.012 95.8433V94.9876L145.234 91.5646L147.312 85.9411L148.168 83.7406L150.613 83.2516H151.347L150.369 86.0634L148.413 91.3201L146.701 95.8433V96.2101L148.046 93.5206L148.902 92.1758L150.002 90.7089L151.224 89.4864L152.325 88.8751L153.425 88.7529L154.281 88.9974L154.647 89.4864L154.77 90.2199L154.158 92.0536L153.058 94.7431L152.936 95.9656L153.18 96.2101L154.158 96.0878L155.503 95.2321L156.114 94.7431L156.603 92.7871L157.581 90.8311L158.437 89.8531L159.537 89.1196L160.149 88.8751L160.882 88.7529H162.349L163.083 89.1196L163.449 89.6086V90.8311L162.96 91.8091L162.105 92.6648L160.76 93.5206L159.293 94.2541V95.2321L159.537 96.0878L160.393 96.3323L161.493 96.2101L162.96 95.5988L164.305 94.7431L164.794 92.9093L165.528 91.4424L166.506 90.2199L167.85 89.2419L168.828 88.8751L170.418 88.7529L171.273 88.9974L172.007 89.3641L174.085 88.8751H174.819L173.474 92.5426L172.496 95.2321L172.618 95.8433L172.863 96.0878L173.718 95.9656L175.063 95.2321L175.919 94.6208L176.775 92.0536L178.364 87.5304L179.586 83.9851L180.564 83.6184L182.765 83.1294Z" fill="#4E4E4F"/>
<path d="M12.5931 16.748H16.994L19.5613 17.1148L21.395 17.4815L21.5173 17.6038V23.2273H18.8278L17.972 21.0268L16.8718 19.8043L15.7715 19.3153L15.038 19.193H13.4488L12.2263 19.5598L11.2483 20.2933L10.6371 21.5158V23.4718L11.1261 24.6943L11.6151 25.1833V25.4278L12.1041 25.6723L13.4488 26.6502L16.505 28.3617L18.3388 29.5842L19.6835 30.6845L20.906 32.2737L21.5173 33.7407L21.7618 34.841V37.2859L21.2728 39.1197L20.6615 40.3422L19.5613 41.6869L18.3388 42.5427L16.8718 43.2762L15.038 43.7652L14.3045 43.8874H9.90357L6.60283 43.5207L4.52459 43.1539L4.40234 43.0317V37.0414H7.09183L7.82533 39.2419L8.68107 40.4644L9.90357 41.1979L10.8816 41.4424H12.9598L14.1823 41.0757L15.1603 40.3422L15.6493 39.6087L15.8938 38.8752V36.9192L15.4048 35.5745L14.6713 34.5965L13.4488 33.6185L9.17007 31.1735L7.70308 30.0732L6.48058 28.973L5.38034 27.2615L4.89134 25.7945L4.76909 25.061V23.2273L5.13584 21.638L5.86934 20.171L6.96958 18.9485L7.94758 18.215L9.78132 17.3593L12.5931 16.748Z" fill="#1D887D"/>
<path d="M68.7039 23.9609H71.3933L73.1048 24.3277L74.2051 24.8167L75.1831 25.5502L75.9166 26.6504L76.4056 28.3619L76.5278 29.0954L76.6501 39.7311L76.8946 41.1981L77.0168 41.6871L77.6281 41.9316L78.6061 42.2983V43.5208L78.4838 43.6431H71.3933V41.0759L70.7821 41.4426L69.8041 42.2983L67.8481 43.3986L66.3811 43.8876H63.6916L62.4691 43.5208L61.4911 43.0318L60.5132 42.1761L59.9019 41.1981L59.5352 39.7311V38.3864L59.9019 37.0416L60.6354 35.9414L61.4911 35.0856L62.8359 34.2299L64.6696 33.4964L67.2369 32.8851L70.7821 32.3961V30.1957L70.5376 28.3619L70.0486 27.2617L69.4374 26.6504L68.5816 26.2837H67.1146L66.1366 26.6504L65.2809 27.6284L64.7919 28.7287L64.4251 30.0734H60.8799L60.7577 29.9512V26.4059L61.9801 25.7947L65.0364 24.6944L67.7259 24.0832L68.7039 23.9609Z" fill="#1D887D"/>
<path d="M109.048 23.9609H111.615L113.449 24.3277L114.916 25.0612L115.771 25.9169L116.505 27.3839L116.872 29.3399L116.994 39.7311L117.238 41.1981L117.727 41.8093L118.95 42.2983V43.5208L118.828 43.6431H111.737V41.0759L111.126 41.4426L110.148 42.2983L108.436 43.2763L107.214 43.7653L106.725 43.8876H104.035L102.813 43.5208L101.468 42.7873L100.49 41.6871L100.001 40.4646L99.8789 39.8534V38.2641L100.368 36.7971L100.857 36.0636L101.346 35.4524L102.935 34.3521L105.013 33.4964L107.581 32.8851L111.126 32.3961V30.5624L110.881 28.3619L110.392 27.2617L109.781 26.6504L109.048 26.2837H107.336L106.114 26.8949L105.38 27.9952L104.769 30.0734H101.101L100.979 29.5844V26.5282L101.713 26.0392L104.891 24.8167L107.336 24.2054L109.048 23.9609Z" fill="#1D887D"/>
<path d="M29.0971 20.5381H34.9651L35.0873 28.851H42.0556V34.719L34.9651 34.8413V42.054L34.8428 43.032H29.0971V34.719H22.1289V28.851H29.0971V20.5381Z" fill="#4E4E4F"/>
<path d="M111.735 46.3325H113.691L113.813 46.4548V55.2567L115.769 53.7897L116.747 53.3007L118.092 52.934H119.559L121.148 53.423L122.126 54.2787L122.737 55.5012L123.104 57.0905L123.226 65.4034L123.348 66.5037L123.715 67.1149L124.693 67.7262V68.7042H117.114V67.7262L117.236 67.4817L117.969 67.2372L118.336 66.6259L118.458 66.0147V57.824L118.214 56.6015L117.725 55.868L117.236 55.6235H116.013L115.035 56.1125L114.424 56.7237L114.057 57.335L113.935 57.9462V65.7702L114.18 66.8704L115.402 67.8484V68.7042H107.823L107.7 68.5819V67.7262L108.801 66.9927L109.045 66.6259L109.167 66.0147V49.2665L108.801 48.2885L108.189 47.9218L107.578 47.6773V46.6993L107.7 46.577L111.735 46.3325Z" fill="#1D887D"/>
<path d="M0 75.4277H205.868V76.2835L189.364 76.4057H56.1125L0 76.2835V75.4277Z" fill="#4E4E4F"/>
<path d="M78.9738 24.2056H82.519L88.5093 24.3278V25.6726L87.409 26.0393L86.92 26.6506V27.9953L87.6535 30.5625L89.9763 37.653L90.0985 37.7752L91.9322 33.3743L93.277 30.0735L93.766 28.4843V27.0173L93.277 26.2838L92.9102 25.9171L92.1767 25.6726L92.0545 25.4281L92.1767 24.3278H99.7562V25.5503L99.5117 25.7948L98.9005 26.0393L97.9225 27.1396L96.9445 29.0955L95.4775 32.1518L93.5215 36.5528L90.343 43.6432L90.0985 43.8877H87.0423L86.431 43.7655L83.8638 36.3083L81.7855 30.318L80.6853 27.3841L80.0741 26.4061L78.8516 25.5503V24.3278L78.9738 24.2056Z" fill="#1D887D"/>
<path d="M149.146 52.9341H150.613L152.569 53.3008L153.669 53.9121L154.403 54.7678L154.892 55.8681L155.136 57.2128L155.258 66.0148L155.625 67.115L156.725 67.7263L156.848 68.582L156.725 68.7043H150.98L151.102 66.626L150.491 66.9928L149.146 67.9708L147.679 68.7043L146.823 68.9488H145.112L144.011 68.7043L142.911 68.093L141.933 66.9928L141.566 65.8925V64.181L141.933 63.203L142.667 62.225L143.767 61.3693L145.478 60.6358L147.434 60.1468L150.124 59.78H150.613L150.368 56.6016L149.757 55.3791L148.901 54.8901H147.312L146.579 55.3791L146.09 55.9903L145.601 57.0906L145.356 57.8241H142.422V54.8901L144.134 54.1566L146.701 53.3008L147.923 53.0563L149.146 52.9341Z" fill="#1D887D"/>
<path d="M55.012 23.9609H57.0902L58.4349 24.2054L58.5572 24.3277V29.5844L58.4349 29.7067H56.1122L54.8897 29.5844L54.4007 28.3619L53.9117 27.7507L53.4227 27.5062H52.078L50.9777 28.2397L50.2442 29.3399L49.9997 31.1737V38.9976L50.2442 40.9536L50.611 41.5648L51.3445 42.0538L51.9557 42.2983V43.6431H42.4203V42.2983L43.6428 41.5648L44.0095 40.7091L44.1318 39.9756V27.6284L43.765 26.5282L43.1538 26.0392L42.1758 25.6724V24.3277L42.298 24.2054L47.0658 24.0832H49.633L49.8775 24.2054L49.7552 27.0172L50.611 26.2837L51.8335 25.1834L53.545 24.3277L55.012 23.9609Z" fill="#1D887D"/>
<path d="M76.772 52.9341H78.239L80.195 53.3008L81.173 53.9121L82.0287 54.8901L82.5177 56.2348L82.64 56.8461L82.7622 65.5258L83.0067 66.8705L83.618 67.3595L84.3515 67.7263V68.582L84.2292 68.7043H78.6058L78.4835 68.3375L78.6058 66.626L77.6278 67.3595L76.283 68.2153L74.816 68.8265L74.327 68.9488H72.6155L71.6375 68.7043L70.4151 68.093L69.5593 67.115L69.1926 66.137L69.0703 64.67L69.3148 63.5698L69.9261 62.5918L70.5373 61.9805L71.7598 61.1248L73.4713 60.5135L75.6718 60.0245L77.3833 59.78H78.1168L77.9945 57.2128L77.75 56.1126L77.261 55.3791L76.5275 54.8901H74.9383L74.2048 55.2568L73.4713 56.3571L72.9823 57.8241H70.0483V54.8901L71.1486 54.4011L72.9823 53.6676L74.816 53.1786L76.772 52.9341Z" fill="#1D887D"/>
<path d="M179.953 52.9341H181.542L183.132 53.1786L184.721 53.7898L185.699 54.5233L186.677 55.8681L187.288 57.3351L187.655 59.1688L187.777 61.0025L187.655 61.1248L177.875 61.0025L178.242 63.5698L178.731 64.7923L179.22 65.5258L180.687 66.2593L182.154 66.3815L183.376 66.137L184.843 65.4035L185.821 64.5478L186.31 64.67L187.288 65.648L187.043 66.137L185.699 67.3595L183.987 68.3375L182.52 68.8265L181.787 68.9488H179.586L178.119 68.7043L176.53 68.093L175.43 67.2373L174.452 66.137L173.841 64.7923L173.474 63.4475L173.352 62.714V59.291L173.841 57.4573L174.574 55.9903L175.674 54.7678L176.775 53.9121L178.119 53.3008L179.953 52.9341Z" fill="#1D887D"/>
<path d="M59.2929 52.9341H61.1266L62.9604 53.3008L64.4273 54.0343L65.4053 54.8901L66.1388 56.1126L66.6278 57.2128L66.9946 58.9243L67.1168 61.0025L66.3833 61.1248L57.2146 61.0025L57.4591 62.9585L57.9481 64.5478L58.6816 65.5258L59.4151 66.0148L60.7599 66.3815L62.4714 66.2593L63.5716 65.7703L64.6718 65.0368L65.1608 64.5478L65.7721 64.67L66.6278 65.648L66.3833 66.137L65.5276 66.9928L64.3051 67.8485L63.0826 68.4598L61.1266 68.9488H58.9261L57.4591 68.7043L56.1144 68.2153L54.8919 67.3595L53.9139 66.2593L53.1804 64.7923L52.6914 62.5918V59.6578L53.0582 57.9463L53.6694 56.4793L54.5251 55.2568L55.3809 54.4011L56.8479 53.5453L58.4371 53.0563L59.2929 52.9341Z" fill="#1D887D"/>
<path d="M182.764 83.1294L182.886 83.3739L181.297 87.8971L178.852 94.9876V95.9656L179.096 96.2101L179.83 96.0878L181.175 95.3543L181.908 94.8653L182.642 92.6648L183.497 90.2199L182.764 90.3421L182.642 89.8531L183.008 89.4864L183.864 89.3641L185.087 85.8189L185.942 85.5744L188.265 85.0854L188.02 86.1856L186.92 89.4864H188.265L187.898 90.2199H186.554L186.187 91.5646L184.842 95.3543L184.964 96.0878L185.087 96.2101L186.187 96.0878L187.531 95.3543L188.265 94.8653L190.099 89.8531L192.055 84.5964L192.421 83.7406L195.478 83.1294L195.355 83.9851L193.155 89.9754L191.443 94.4986L190.71 96.3323H190.954L191.199 95.7211L192.788 92.6648L194.011 90.9534L194.622 90.2199L195.844 89.2419L196.7 88.8751H198.289L198.901 89.4864V90.7089L197.923 93.1538L197.189 95.1098V96.0878L197.311 96.2101H198.045L199.39 95.4766L200.49 94.6208V94.9876L199.267 95.9656L197.8 96.6991L197.434 96.8213H195.967L194.866 96.3323L194.377 95.7211V94.3763L195.233 92.0536L196.211 89.7309V89.4864L195.233 90.3421L193.766 92.1758L192.299 94.4986L191.077 96.4546L190.588 96.8213H189.365L188.632 96.4546L188.265 95.8433V95.3543L185.698 96.5768L184.598 96.8213L183.253 96.6991L182.519 96.3323L182.03 95.7211L181.908 95.3543L181.297 95.5988L179.83 96.4546L178.607 96.8213H177.385L176.407 96.4546L175.918 95.8433V95.1098L174.94 95.7211L174.695 95.5988L175.551 94.8653L175.918 94.6208L176.774 92.0536L178.363 87.5304L179.585 83.9851L180.563 83.6184L182.764 83.1294Z" fill="#4E4E4F"/>
<path d="M97.8007 83.1294L98.0452 83.2516L95.3557 91.0756L93.8887 95.2321L93.7665 95.9656L94.011 96.3323L95.1112 96.2101L95.7224 95.8433L96.7004 94.4986L97.4339 93.2761L97.1894 92.5426L96.7004 91.3201V89.6086L97.1894 88.7529L97.9229 88.3861L98.9009 88.5084L99.5122 89.1196L99.8789 89.8531V91.3201L99.2677 93.0316L98.9009 93.6428V93.8873L100.368 94.7431L100.979 94.8653L101.101 93.7651L101.713 91.9314L102.568 90.4644L103.791 89.3641L105.013 88.8751L105.869 88.7529H107.092L107.703 88.9974L108.192 89.4864L108.314 90.4644L107.825 91.6869L106.603 92.9093L104.891 93.8873L104.158 94.2541L104.035 94.8653L104.28 95.8433L104.647 96.2101L105.747 96.3323L107.214 95.8433L108.925 94.8653L110.637 90.2199H109.659L109.903 89.7309L110.148 89.4864H111.004L111.248 88.5084L112.104 85.8189L113.571 85.4521L114.916 85.2076L115.405 85.3299L113.938 89.4864H115.282L115.038 90.0976L114.916 90.2199L113.693 90.3421L111.982 95.2321V96.2101H113.326L113.082 96.4546L111.615 96.8213L110.27 96.6991L109.292 96.0878L109.048 95.5988V95.2321L107.703 95.9656L106.114 96.5768L104.891 96.8213H103.057L101.835 96.4546L101.224 95.8433L100.979 95.1098L100.246 94.9876L98.9009 94.2541H98.4119L97.9229 94.8653L96.2114 96.0878L95.2334 96.5768L94.1332 96.8213H93.2775L92.1772 96.4546L91.4437 95.8433L91.1992 95.3543V94.1318L92.7885 89.4864L94.6222 84.3519L94.8667 83.7406L97.8007 83.1294Z" fill="#4E4E4F"/>
<path d="M90.0967 46.3325H92.2972L92.4195 46.4548V63.2029L92.5417 66.1369L92.9085 66.9927L93.8865 67.6039V68.7042H86.307V67.7262L87.0405 67.2372H87.285L87.5295 66.7482L87.774 65.2812V50.3667L87.6517 48.8998L87.285 48.1663L86.1847 47.6773L86.0625 47.4328V46.6993L86.1847 46.577L90.0967 46.3325Z" fill="#1D887D"/>
<path d="M66.2599 82.8853L66.8711 83.0075L67.2379 83.3743L67.3601 83.741V85.9415L66.7489 87.8975L66.0154 89.3645L64.9151 90.7092L63.5704 92.1762L62.9591 94.0099L62.3479 96.2104L64.4261 95.5992L66.3821 94.7434L66.6266 93.032L67.4824 91.3205L68.7049 89.9757L70.0496 89.12L71.2721 88.7532H71.6388L71.3943 89.4867L70.4163 91.3205L69.6828 93.1542L69.3161 94.4989V95.8437L69.4384 96.3327H70.4163L71.1498 95.8437L72.0056 94.7434L72.6168 93.521L72.4946 92.7875L71.8833 91.6872L71.6388 90.098L71.8833 88.9977L72.2501 88.3865L72.7391 88.142H73.8393L74.5728 88.7532L74.9396 89.609L75.0618 90.8315L74.8173 92.2985L74.3283 93.6432H76.2843L76.8956 93.521L77.1401 93.7654L76.5288 94.0099H74.0838L73.1058 95.3547L72.0056 96.2104L70.7831 96.6994L70.1718 96.8217H68.4604L67.4824 96.4549L66.7489 95.8437L66.5044 95.2324L65.8931 95.3547L64.9151 95.8437L63.3259 96.3327L62.2256 96.4549L61.7366 98.4109L61.3699 99.7557L60.3919 100H58.8027L58.6804 99.8779V99.0222L59.4139 96.2104L58.4359 95.4769L58.1914 94.6212L58.4359 92.6652L58.9249 91.3205L59.5361 90.7092L60.1474 90.8315L60.5141 91.4427L60.6364 91.8095L61.9811 87.7752L62.9591 85.8192L63.9371 84.4745L65.0374 83.3743L65.7709 83.0075L66.2599 82.8853Z" fill="#4E4E4F"/>
<path d="M98.4094 49.2666H101.955L102.077 49.3889V53.1786H106.356L106.478 53.3008V55.1346L106.356 55.2568H102.077L102.199 64.3033L102.566 65.5258L102.933 66.137L103.177 66.2593H104.522L105.744 65.648L106.233 65.5258L106.967 66.626V66.9928L105.255 68.093L103.911 68.7043L103.055 68.9488H101.221L99.9986 68.582L98.7761 67.8485L98.0426 66.7483L97.6759 65.7703L97.5536 64.9145V55.2568H95.7199L95.5977 55.1346V54.1566L97.0646 53.4231H97.3091L97.5536 52.9341L97.9204 51.8338L98.2871 49.3889L98.4094 49.2666Z" fill="#1D887D"/>
<path d="M134.351 52.9341H136.062L138.629 53.3008L139.73 53.5453L139.852 53.6676V57.3351L139.73 57.4573H136.796L136.429 56.3571L135.818 55.1346L135.084 54.7678H134.106L133.128 55.3791L132.639 56.1126L132.272 57.2128L132.028 58.5576L131.906 59.9023V61.3693L132.272 63.9365L132.761 65.159L133.373 65.7703L133.984 66.137L134.962 66.3815L136.551 66.137L137.896 65.4035L138.874 64.67L140.096 66.0148L139.974 66.3815L138.385 67.604L136.551 68.582L135.206 68.9488H132.884L130.928 68.4598L129.461 67.604L128.36 66.3815L127.627 64.9145L127.138 62.9585L127.016 60.758L127.26 58.8021L127.871 56.9683L128.727 55.6236L129.338 54.8901L130.928 53.7898L132.639 53.1786L134.351 52.9341Z" fill="#1D887D"/>
<path d="M169.193 52.9341H170.66L172.005 53.1786V57.2128L171.883 57.5796H169.315L168.949 57.2128L168.337 56.2348L167.971 55.8681L166.993 55.7458L165.77 56.4793L165.281 57.3351L165.159 57.8241V65.7703L165.403 66.7483L166.015 67.3595L166.626 67.604L166.748 68.4598L166.504 68.7043H159.046L158.924 68.093L159.046 67.604L159.902 67.115L160.269 66.3815L160.391 65.648V55.8681L160.024 55.0123L159.291 54.5233L158.68 54.1566L158.802 53.1786L161.614 53.0563H165.037L164.914 55.3791L166.626 53.9121L167.848 53.3008L169.193 52.9341Z" fill="#1D887D"/>
<path d="M122.128 14.3032H123.717L124.939 14.67L126.162 15.4035L127.14 16.3815L127.751 17.604L127.996 18.3375V20.6602L127.507 22.0049L126.773 22.9829L125.673 23.9609L124.206 24.5722L123.717 24.6944H122.25L120.783 24.3277L119.56 23.5942L118.582 22.4939L117.849 21.0269L117.727 20.4157V18.4597L118.338 16.7482L119.194 15.648L120.294 14.9145L121.516 14.4255L122.128 14.3032Z" fill="#1D887D"/>
<path d="M40.4655 88.3862H41.5657L42.177 88.753L42.666 89.731V91.4425L42.177 92.9095L41.5657 94.132L42.666 94.4987L43.155 94.6209H44.0107L44.4997 92.7872L44.9887 91.5647L45.8444 90.3422L46.9447 89.3642L48.0449 88.8752L48.7784 88.753H50.1232L50.9789 89.1197L51.3457 89.6087V90.709L50.7344 91.9315L49.5119 93.0317L47.4337 94.132H47.1892V95.2322L47.5559 96.0879L48.1672 96.3324L49.2674 96.2102L50.4899 95.7212L51.8347 94.9877L52.4459 94.7432L51.8347 95.3544L50.3677 96.2102L48.7784 96.6992L47.9227 96.8214H46.2112L44.9887 96.4547L44.3774 95.9657L44.0107 95.2322L42.666 94.9877L41.5657 94.3765L41.0767 94.6209L40.221 95.4767L38.8762 96.3324L37.5315 96.8214L36.9202 96.9437H35.331L34.353 96.5769L33.7417 96.0879L33.375 94.9877L33.7417 94.3765L35.4532 89.731L37.6537 89.242L38.754 89.1197L37.776 91.9315L36.6757 94.7432L36.5535 95.2322V96.2102L36.798 96.4547H37.5315L38.5095 95.8434L39.4875 94.6209L40.0987 93.643L39.9765 92.7872L39.4875 91.5647L39.3652 90.9535V89.9755L39.6097 89.1197L40.221 88.5085L40.4655 88.3862Z" fill="#4E4E4F"/>
<path d="M126.772 88.7529H128.117L128.85 89.1197L129.217 89.4864L129.339 90.4644L128.85 91.6869L128.361 92.2982L127.017 93.2762L125.183 94.2542V95.5989L125.794 96.2101L126.772 96.3324L128.239 95.8434L129.951 94.8654L130.195 94.6209L131.418 91.0757L132.029 89.4864L133.618 89.1197L134.718 88.8752H135.207L134.841 90.0977L132.885 95.4766V95.9656L133.985 93.5207L134.841 92.0537L135.33 90.4644L135.941 89.4864L136.552 88.8752L136.919 88.7529H137.897L138.264 89.1197L138.019 89.7309L135.941 91.8092L135.819 92.4204L136.185 93.2762L136.552 93.6429L137.163 93.8874L138.264 93.7652L138.386 94.1319L137.163 94.2542L136.185 93.8874L135.452 93.0317L135.085 92.5427L134.107 94.2542L132.885 96.4546L132.518 96.6991H131.173L130.44 96.3324L130.073 95.4766L129.828 95.3544L127.872 96.3324L126.772 96.6991L125.916 96.8214H124.083L122.86 96.4546L122.127 95.7211L122.004 95.1099L120.537 95.9656L120.293 95.8434L121.76 94.8654L122.004 94.4987L122.371 92.9094L122.982 91.4424L123.96 90.0977L125.061 89.2419L126.039 88.8752L126.772 88.7529Z" fill="#4E4E4F"/>
<path d="M150.613 83.252H151.347L150.369 86.0637L148.413 91.3204L146.701 95.8436V96.2104L148.046 93.5209L148.902 92.1762L150.002 90.7092L151.224 89.4867L152.325 88.8754L153.425 88.7532L154.281 88.9977L154.647 89.4867L154.77 90.2202L154.158 92.0539L153.058 94.7434L152.936 95.9659L153.18 96.2104L154.158 96.0881L154.525 95.9659L154.403 96.3326L153.058 96.8216H151.836L150.613 96.3326L150.124 95.7214V94.3766L150.858 92.4207L151.958 89.7312V89.4867L150.98 90.3424L149.635 92.0539L148.29 94.1321L146.946 96.3326L146.334 96.8216H145.112L144.256 96.3326L144.012 95.8436V94.9879L145.234 91.5649L147.312 85.9414L148.168 83.741L150.613 83.252Z" fill="#4E4E4F"/>
<path d="M18.5802 85.208H19.1915L17.969 88.8755L17.7245 89.4867H19.0692L18.8247 90.098L18.7025 90.2202L17.48 90.3425L15.7685 95.2325V95.966L16.013 96.2105H17.1133L16.6243 96.5772L15.4018 96.8217L14.1793 96.6995L13.2013 96.2105L12.7123 95.3547L11.3675 96.2105L10.3895 96.6995L9.90054 96.8217H9.04479L8.0668 96.5772H7.21105L6.47756 96.8217H5.74406L5.25506 96.3327L5.13281 95.5992L5.49956 94.988L6.35531 94.1322L7.3333 93.2765L7.45555 93.032L7.3333 92.4207V90.9537L7.8223 89.7312L8.80029 88.8755L9.65604 88.631H10.3895L10.8785 88.9977L11.0008 89.9757L10.634 90.9537L10.145 91.4427L10.634 93.3987L10.5118 94.499L9.90054 95.3547L8.43355 96.0882H8.18905L8.3113 96.3327L9.65604 96.455L10.8785 96.0882L12.101 95.3547L12.7123 95.1102L13.079 93.8877L14.4238 90.2202L13.568 90.3425L13.4458 90.098L13.9348 89.4867H14.7905L15.1573 88.142L15.8908 85.9415L16.1353 85.697L18.5802 85.208Z" fill="#4E4E4F"/>
<path d="M72.7382 88.1416H73.8384L74.5719 88.7528L74.9387 89.6086L75.0609 90.8311L74.8164 92.2981L74.3274 93.6428H76.2834L76.8947 93.5206L77.1392 93.7651L76.5279 94.0096H74.0829L73.1049 95.3543L72.0047 96.2101L70.7822 96.6991L70.1709 96.8213H68.4595L67.4815 96.4546L66.748 95.8433L66.5035 95.2321L66.1367 94.9876L66.3812 94.7431L66.6257 93.0316L67.4815 91.3201L68.704 89.9753L70.0487 89.1196L71.2712 88.7528H71.6379L71.3934 89.4863L70.4154 91.3201L69.682 93.1538L69.3152 94.4986V95.8433L69.4375 96.3323H70.4154L71.1489 95.8433L72.0047 94.7431L72.6159 93.5206L72.4937 92.7871L71.8824 91.6868L71.6379 90.0976L71.8824 88.9973L72.2492 88.3861L72.7382 88.1416Z" fill="#4E4E4F"/>
<path d="M97.8007 83.1294L98.0452 83.2516L95.3557 91.0756L93.8887 95.2321L93.7665 95.9656L94.011 96.3323L94.7445 96.4546V96.6991L94.1332 96.8213H93.2775L92.1772 96.4546L91.4437 95.8433L91.1992 95.3543V94.1318L92.7885 89.4864L94.6222 84.3519L94.8667 83.7406L97.8007 83.1294Z" fill="#4E4E4F"/>
<path d="M121.27 85.208H121.759L121.637 85.9415L120.537 88.9977L120.415 89.4867H121.759L121.393 90.2202L120.17 90.3425L119.314 92.543L118.336 95.477L118.459 96.0882L119.314 96.2105L120.048 96.0882L119.559 96.455L118.092 96.8217L116.747 96.6995L115.769 96.0882L115.525 95.7215V95.2325L114.547 95.7215L113.691 96.2105L113.324 96.0882L115.036 95.1102L115.402 94.8657L116.869 90.7092L117.114 90.2202L116.136 90.3425L116.258 89.8535L116.503 89.4867H117.236L117.725 88.2642L118.581 85.8193L119.437 85.5748L121.27 85.208Z" fill="#4E4E4F"/>
<path d="M114.913 85.208L115.402 85.3303L113.935 89.4867H115.279L115.035 90.098L114.913 90.2202L113.69 90.3425L111.979 95.2325V96.2105H113.323L113.079 96.455L111.612 96.8217L110.267 96.6995L109.289 96.0882L109.045 95.5992V95.2325L107.7 95.966L107.211 96.0882L107.822 95.477L108.922 94.8657L110.634 90.2202H109.656L109.9 89.7312L110.145 89.4867H111.001L111.245 88.5087L112.101 85.8193L113.568 85.4525L114.913 85.208Z" fill="#4E4E4F"/>
<path d="M160.88 88.7529H162.347L163.081 89.1197L163.448 89.6087V90.8312L162.959 91.8092L162.103 92.6649L160.758 93.5207L159.291 94.2542V95.2321L159.536 96.0879L160.391 96.3324L161.492 96.2101L163.081 95.5989V95.8434L161.736 96.4546L160.147 96.8214H158.191L156.846 96.3324L156.357 95.7211L156.235 95.1099L154.768 96.0879L154.523 95.9656L155.746 94.9876L156.113 94.7431L156.602 92.7872L157.58 90.8312L158.435 89.8532L159.536 89.1197L160.147 88.8752L160.88 88.7529Z" fill="#4E4E4F"/>
<path d="M122.493 15.1587L123.96 15.2809L125.182 15.7699L126.283 16.7479L126.772 17.7259L127.138 19.0707L127.016 20.4154L126.527 21.7602L126.16 22.2492L125.671 22.0047L125.182 21.3934L124.571 20.1709L124.082 19.6819L124.938 19.0707L125.305 18.0927L125.06 17.2369L124.449 16.7479L123.349 16.5034H120.781L120.292 16.6257L120.537 17.1147L120.659 17.2369V21.7602L120.17 22.0047L120.292 22.3714L122.86 22.4937L122.615 22.0047L122.248 21.7602V20.0487L122.493 19.9264L123.104 20.2932L124.204 22.3714L125.794 22.4937V22.8604L124.449 23.5939L123.471 23.8384H122.126L120.904 23.4717L120.17 22.9827L119.314 22.0047L118.825 20.7822L118.703 20.2932V18.7039L119.192 17.2369L119.681 16.5034L120.537 15.7699L121.759 15.2809L122.493 15.1587Z" fill="#FDFDFD"/>
<path d="M110.147 34.4741H111.247V37.8971L111.002 38.9973L110.513 39.7308L109.535 40.5866L108.313 41.0756L106.724 40.9533L105.99 40.4643L105.501 39.8531L105.379 39.4863V37.7749L105.868 36.5524L106.724 35.5744L108.191 34.8409L110.147 34.4741Z" fill="#FDFDFD"/>
<path d="M69.6806 34.4741H70.9031V37.7749L70.6586 38.9973L69.9251 39.9753L69.0694 40.7088L67.8469 41.0756H66.9911L66.0132 40.7088L65.4019 40.2198L65.0352 39.3641V37.7749L65.4019 36.6746L66.5021 35.4521L67.8469 34.8409L69.6806 34.4741Z" fill="#FDFDFD"/>
<path d="M136.918 88.7529H137.896L138.263 89.1197L138.018 89.7309L135.94 91.8092L135.818 92.4204L136.184 93.2762L136.551 93.6429L137.162 93.8874L138.263 93.7652L138.385 94.1319L137.162 94.2542L136.184 93.8874L135.451 93.0317L135.084 92.5427L134.106 94.2542L132.884 96.4546L132.517 96.6991H131.172L130.439 96.3324L130.072 95.4766L129.828 95.3544L128.483 96.0879L128.238 95.9656L129.339 95.2321L130.194 94.6209L131.417 91.0757L132.028 89.4864L133.617 89.1197L134.717 88.8752H135.206L134.84 90.0977L132.884 95.4766V95.9656L133.984 93.5207L134.84 92.0537L135.329 90.4644L135.94 89.4864L136.551 88.8752L136.918 88.7529Z" fill="#4E4E4F"/>
<path d="M26.0375 88.7529H27.0155L27.3822 89.1197L27.26 89.7309L25.9152 91.0757L25.304 91.5647L25.0595 91.9314L25.1817 93.0317L25.6707 93.6429L26.0375 93.7652H27.3822V94.2542L25.9152 94.1319L24.9372 93.5207L24.4482 92.6649V92.4204H24.2037L23.9592 93.0317L22.2478 96.2101L21.7588 96.6991L21.2698 96.8214L20.0473 96.5769L19.436 96.0879L19.3138 95.2321L17.969 95.9656L17.48 96.2101L17.1133 96.0879L18.458 95.3544L19.3138 94.7431L21.1475 89.4864L23.9592 88.8752H24.326L24.0815 89.9754L21.881 95.9656V96.2101L23.7147 92.5427L24.0815 91.9314L24.5705 90.3422L25.304 89.2419L26.0375 88.7529Z" fill="#4E4E4F"/>
<path d="M83.7393 88.7529H84.7173L85.0841 89.1197L84.8396 89.7309L82.7613 91.8092V92.7872L83.0058 93.5207L83.6171 93.7652H85.2063V94.1319H83.6171L82.8836 93.7652L82.1501 92.7872V92.4204L81.6611 92.9094L79.8274 96.3324L79.4606 96.6991L78.6049 96.8214L77.5046 96.4546L77.0156 95.9656V94.7431L77.9936 91.8092L78.8494 89.4864L81.0499 88.9974L82.0278 88.8752L81.6611 90.0977L80.3164 93.8874L79.5829 95.7211V96.0879L81.2944 92.6649L81.7834 91.8092L82.2723 90.2199L83.0058 89.2419L83.7393 88.7529Z" fill="#4E4E4F"/>
<path d="M9.65604 88.6309H10.3895L10.8785 88.9976L11.0008 89.9756L10.634 90.9536L10.145 91.4426L10.634 93.3986L10.5118 94.4988L9.90054 95.3546L8.43355 96.0881H8.18905L8.43355 96.5771H7.21105L6.47756 96.8216H5.74406L5.25506 96.3326L5.13281 95.5991L5.49956 94.9878L6.35531 94.1321L7.3333 93.2763L7.45555 93.0318L7.3333 92.4206V90.9536L7.8223 89.7311L8.80029 88.8754L9.65604 88.6309Z" fill="#4E4E4F"/>
<path d="M32.2728 88.7529L32.6395 88.8752L30.439 95.1099V95.9656L30.6835 96.2101L31.6615 96.0879L33.0063 95.2321H33.373L32.5173 95.9656L31.1725 96.5769L30.8058 96.6991H28.9721L27.9941 96.3324L27.5051 95.8434L27.3828 95.1099L27.7496 93.8874L29.3388 89.6087L29.4611 89.3642L32.2728 88.7529Z" fill="#4E4E4F"/>
<path d="M38.3872 89.1196L38.754 89.2419L36.798 94.4986L36.5535 95.2321V96.2101L36.798 96.4546L37.5315 96.5768V96.8213L36.9202 96.9436H35.331L34.353 96.5768L33.7417 96.0878L33.375 94.9876L33.7417 94.3764L35.4532 89.7309L37.6537 89.2419L38.3872 89.1196Z" fill="#4E4E4F"/>
<path d="M149.51 61.3691H150.61V64.3031L150.244 65.2811L149.51 66.1369L148.41 66.6259H147.187L146.332 66.1369L145.965 65.5256V63.8141L146.454 62.8361L147.432 61.9804L148.288 61.6136L149.51 61.3691Z" fill="#FDFDFD"/>
<path d="M77.0179 61.3691H78.1181L78.2404 62.1026L78.1181 64.5476L77.6291 65.5256L76.6511 66.3814L76.0399 66.6259H74.8174L74.0839 66.2591L73.5949 65.6479L73.4727 65.4034V64.0586L73.9617 62.8361L74.9396 61.9804L75.9176 61.6136L77.0179 61.3691Z" fill="#FDFDFD"/>
<path d="M59.5364 54.6455H60.5144L61.2479 55.0123L61.8592 55.7458L62.2259 56.846L62.4704 58.4352V59.1687L62.3482 59.291H57.3359L57.4582 57.7017L57.9472 56.1125L58.6807 55.1345L59.5364 54.6455Z" fill="#FDFDFD"/>
<path d="M180.197 54.6455H181.052L182.03 55.1345L182.642 56.1125L183.008 57.7017L183.131 59.1687L183.008 59.291H177.996V58.1907L178.485 56.357L179.096 55.379L179.83 54.7678L180.197 54.6455Z" fill="#FDFDFD"/>
<path d="M84.5973 2.93408L84.8418 3.05633L84.1083 4.03433L83.1303 4.89007L81.2966 5.99032L78.8516 6.96831L76.2844 7.70181L73.1059 8.31306L68.3381 8.9243L58.4359 10.0245L53.7905 10.758L50.612 11.4915L48.167 12.225L46.3333 12.9585L44.255 14.0588L42.788 15.159L41.5655 16.3815L40.832 17.2373V16.8705L41.5655 15.7703L42.9103 14.4255L44.4995 13.3253L47.0668 11.9805L50.4897 10.8803L53.3015 10.269L57.2134 9.6578L70.9054 8.19081L74.5729 7.57956L77.2624 6.96831L80.1963 5.99032L82.1523 5.01232L83.4971 4.03433L84.5973 2.93408Z" fill="#FDFDFD"/>
<path d="M97.9207 88.3862L98.8987 88.5085L99.5099 89.1197L99.8767 89.8532V91.3202L99.2654 93.0317L98.8987 93.643V93.8875L100.488 94.8654L100.243 94.9877L98.8987 94.2542H98.4097L97.9207 94.8654L96.2092 96.0879L95.2312 96.5769L94.7422 96.4547L95.7202 95.8434L96.6982 94.4987L97.4317 93.2762L97.1872 92.5427L96.6982 91.3202V89.6087L97.1872 88.753L97.9207 88.3862Z" fill="#4E4E4F"/>
<path d="M170.171 89.1196L171.027 89.2419L171.516 89.6086L171.149 90.8311L169.804 94.4986L169.682 95.5988L168.46 96.2101L167.726 96.0878L167.359 95.7211V94.4986L168.093 92.2981L169.193 89.9754L169.804 89.3641L170.171 89.1196Z" fill="#FDFDFD"/>
<path d="M31.9072 84.1074L32.8852 84.2297L33.6187 84.8409L33.8632 85.4522L33.741 86.5524L33.252 87.1637L32.6407 87.4082H31.6627L30.9292 86.9192L30.5625 86.3079V85.3299L31.0515 84.5964L31.5405 84.2297L31.9072 84.1074Z" fill="#4E4E4F"/>
<path d="M66.3809 83.252L66.8699 83.3742V84.3522L66.2586 86.6749L65.5251 88.5087L64.5472 90.4647L63.8137 91.4427L63.6914 91.1982L65.0361 86.6749L66.0141 83.741L66.3809 83.252Z" fill="#FDFDFD"/>
<path d="M127.629 88.8755L128.24 89.12L128.118 90.098L127.384 91.4427L125.917 93.1542L125.55 93.6432L125.184 93.521L125.795 91.6872L126.773 89.7312L127.262 89.12L127.629 88.8755Z" fill="#FDFDFD"/>
<path d="M161.859 88.8755L162.348 88.9977L162.47 89.4867L161.981 90.7092L161.248 91.8095L159.903 93.3987L159.414 93.6432L159.659 92.543L160.637 90.2202L161.37 89.2422L161.859 88.8755Z" fill="#FDFDFD"/>
<path d="M49.5091 88.9976H50.1203L50.3648 89.4866L49.8758 90.7091L48.7756 92.2983L47.5531 93.643H47.3086L47.4308 92.9095L48.1643 90.9535L48.8978 89.6088L49.5091 88.9976Z" fill="#FDFDFD"/>
<path d="M106.601 88.8755L107.212 89.12L107.09 90.098L106.234 91.565L104.89 93.1542L104.156 93.7655L104.523 92.2985L105.379 90.3425L106.112 89.2422L106.601 88.8755Z" fill="#FDFDFD"/>
<path d="M40.3406 88.7529L40.8296 88.9974L41.0741 89.7309L40.9518 91.3202L40.5851 92.7872H40.3406L39.9738 91.9314L39.8516 91.3202V89.3642L40.0961 88.8752L40.3406 88.7529Z" fill="#FDFDFD"/>
<path d="M72.4957 88.5088L72.9847 88.631L73.2292 89.2423V91.6873L72.9847 92.6653L72.6179 92.2985L72.1289 90.9538V88.9978L72.4957 88.5088Z" fill="#FDFDFD"/>
<path d="M97.6777 88.7529L98.1667 89.2419V91.0757L97.7999 92.5427L97.4332 92.4204L97.0664 91.1979V89.4864L97.4332 88.8752L97.6777 88.7529Z" fill="#FDFDFD"/>
<path d="M7.45527 93.521H7.69977L8.06652 94.7435L7.94427 95.7215L7.69977 96.0882L6.96628 95.8437L5.98828 95.2325L6.11053 94.7435L7.45527 93.521Z" fill="#FDFDFD"/>
<path d="M60.0237 91.9316L60.5127 92.0539L60.2682 93.5209L59.657 95.7214L59.4125 95.9659L59.168 95.4769V93.8876L59.657 92.2984L60.0237 91.9316Z" fill="#FDFDFD"/>
<path d="M122.25 17.2373H123.35L123.839 17.7263V18.7043L123.35 19.1933L122.372 19.3155L122.25 19.1933V17.2373Z" fill="#FDFDFD"/>
<path d="M9.77966 88.8755L10.3909 88.9977L10.6354 89.4867L10.3909 90.587L10.1464 91.076H9.77966L9.53516 89.9757V89.12L9.77966 88.8755Z" fill="#FDFDFD"/>
</svg>
