<svg width="300" height="93" viewBox="0 0 300 93" fill="none" xmlns="http://www.w3.org/2000/svg">
<path d="M259.219 20.8481H294.703L298.85 21.0786L299.08 46.4242V67.392L298.85 69.0049H268.435L258.527 68.7745L258.758 40.203V21.0786L259.219 20.8481Z" fill="#034B6D"/>
<path d="M2.07374 20.8481H36.4056L40.0923 21.0786V44.3505L40.3227 44.5809V68.7745L40.0923 69.0049H0V48.0372L0.230415 44.3505L0 28.9127V22.0002L0.230415 21.0786L2.07374 20.8481Z" fill="#034B6D"/>
<path d="M213.827 20.8481H229.495L232.951 21.309L237.79 22.9219L241.016 24.7652L244.242 27.5302L246.776 30.9864L248.159 33.9818L248.62 35.8251V68.7745L248.389 69.0049H227.882L223.735 68.5441L220.97 67.8529L217.053 66.0095L214.518 64.1662L212.445 62.3229L210.832 60.0187L209.91 58.1754L209.219 56.1017L208.988 54.7192V51.7238L209.91 48.2676L211.062 45.9634L213.597 43.1984L215.44 41.5855L218.666 39.7422L221.661 38.5901L224.887 37.8989L227.191 37.6685L237.56 37.438L236.869 35.8251L234.795 33.521L232.951 32.1385L230.186 30.756L228.574 30.2952L226.269 30.0648L213.827 29.8343L213.597 29.6039V21.0786L213.827 20.8481Z" fill="#034B6D"/>
<path d="M83.4103 20.8481H92.8573L93.0877 22.2306V32.8297L92.8573 48.7284L92.3965 52.415L91.014 56.5625L88.9402 60.2492L86.4057 63.0141L84.5624 64.6271L81.1061 66.7008L78.5716 67.8529L75.1153 68.7745L71.4287 69.0049L66.8204 68.5441L63.3641 67.392L60.1383 65.5487L58.0646 63.9358L55.7604 61.8621L53.6867 59.0971L51.8434 55.6409L50.6913 52.1846L50.2305 48.9588V21.0786H60.8296L61.06 21.309V46.4242L61.5208 49.6501L62.2121 51.7238L63.825 54.4888L65.4379 56.1017L67.5116 57.2538L69.3549 57.7146H73.9632L76.7282 56.7929L78.5716 55.4104L79.954 53.5671L81.3365 50.8021L81.7974 48.7284L82.0278 21.0786L83.4103 20.8481Z" fill="#034B6D"/>
<path d="M116.128 20.8481H120.737L124.654 21.5394L127.649 22.6915L130.414 24.074L132.488 25.6869L134.562 27.5302L137.096 30.9864L139.17 35.3643L139.861 37.6685L140.092 39.2814L140.322 69.0049H133.64L129.493 68.7745L129.262 41.5855L128.801 38.8205L127.419 36.0556L125.806 34.2122L123.271 32.5993L120.967 31.9081H116.589L113.824 33.0602L111.981 34.4426L110.599 36.0556L109.446 38.3597L108.755 41.1247L108.525 64.6271L108.294 68.7745H97.6953L97.4648 68.5441V45.733L97.6953 39.7422L98.3865 36.286L99.5386 33.0602L101.382 29.8343L103.916 26.8389L106.681 24.5348L109.907 22.6915L113.594 21.309L116.128 20.8481Z" fill="#034B6D"/>
<path d="M172.581 20.8481H207.143L207.374 22.4611V28.6823L206.913 30.5256L204.148 33.7514L202.305 35.8251L200.461 38.1293L197.466 41.8159L194.931 44.8113L192.858 47.3459L191.014 49.4196L189.401 51.4934L186.406 55.18L183.18 58.6363L182.719 59.5579H206.222L206.452 60.4796L206.222 68.7745L204.609 69.0049H173.272L168.664 68.7745L168.894 62.7837V61.6317L168.664 60.4796L169.586 58.6363L171.429 56.5625L173.503 54.028L175.807 51.4934L177.65 49.1892L179.954 46.4242L181.798 44.1201L184.563 40.8943L186.636 38.3597L189.401 35.1339L191.245 32.8297L193.088 30.756L193.319 29.8343H172.581L172.351 29.6039V21.0786L172.581 20.8481Z" fill="#034B6D"/>
<path d="M2.07374 20.8481H36.4056L40.0923 21.0786V44.3505L39.401 44.5809L35.0231 44.8113H0.460831L0.230415 44.3505L0 28.9127V22.0002L0.230415 21.0786L2.07374 20.8481Z" fill="#B86146"/>
<path d="M259.219 20.8481H294.703L298.85 21.0786V44.5809L291.707 44.8113H262.905L258.988 44.5809L258.758 40.203V21.0786L259.219 20.8481Z" fill="#B86146"/>
<path d="M152.307 21.0786H157.145L159.45 22.0003L161.523 23.8436L163.006 27.1008L162.619 29.3736V29.8083L162.675 29.3736V28.9127L162.215 28.6823L161.754 26.839L160.371 24.3044L158.758 22.9219L157.837 22.4611V22.9219H157.376L158.067 24.074L160.141 27.0694L160.832 29.1431L161.063 32.5994V44.581V45.0418V59.3276H162.763L162.619 44.8934H163.779L163.828 61.1709L162.906 63.7054L161.293 65.7792L159.45 67.3921L157.376 68.5442L154.841 69.005L152.076 68.7746L149.772 67.8529L147.238 65.7792L145.855 64.1663L144.703 61.4013L144.473 58.1755V53.7976L144.703 44.581V28.9127L145.394 26.1478L146.777 24.3044L148.39 22.6915L151.385 21.309L152.307 21.0786Z" fill="#034B6D"/>
<path d="M152.303 21.0786H157.142L159.446 22.0003L161.52 23.8436L163.003 26.839L163.776 44.8934H162.616L161.75 26.839L160.367 24.3044L158.755 22.9219L157.833 22.4611V22.9219H157.372L158.063 24.074L160.137 27.0694L160.828 29.1432L161.059 32.5994V44.8114H159.907H145.16L144.699 44.581V28.9127L145.39 26.1478L146.773 24.3044L148.386 22.6915L151.381 21.309L152.303 21.0786Z" fill="#B86146"/>
<path d="M152.998 0.11084H155.302L158.298 1.0325L160.141 2.18458L161.984 4.0279L163.597 6.79288L164.058 8.63621V11.6316L162.906 14.3966L161.063 16.4703L158.758 17.8528L156.454 18.5441H151.385L148.62 17.1616L146.777 15.3183L145.164 12.7837L144.473 10.9404V8.63621L145.394 5.87122L147.238 3.33665L149.081 1.72375L151.846 0.341255L152.998 0.11084Z" fill="#D36D4D"/>
<path d="M230.415 45.2725H235.254L237.098 45.5029L237.328 45.7333V60.9407L237.098 61.1711H227.65L224.425 60.2495L222.351 58.867L220.508 56.7932L219.586 54.0282V52.4153L220.508 49.8808L222.581 47.5766L223.733 46.655L226.038 45.7333L227.19 45.5029L230.415 45.2725Z" fill="#FEFEFD"/>
<path d="M199.31 72.4614L200.462 73.1527L202.075 76.3785L204.148 82.5997H204.84L207.374 73.8439L208.526 73.1527L208.987 72.9223H211.522L210.83 75.4568L208.296 83.5214L206.913 87.4384L205.761 88.8209L204.84 89.2817L202.766 88.8209L201.383 85.5951L200.001 80.526L199.54 79.6043H199.079L197.927 82.5997L196.775 86.2863L195.623 88.5905L194.932 89.0513H192.858L191.936 88.1297L188.25 77.3001L186.867 73.6135V72.9223H190.323L191.015 74.0743L192.628 79.1435L193.549 82.1389L194.24 82.8301L194.932 80.7564L197.005 74.7656L198.388 72.6918L199.31 72.4614Z" fill="#02548F"/>
<path d="M113.596 72.6919H117.283L119.817 73.6136L121.43 74.7656L121.2 75.6873L120.048 77.0698L119.356 77.3002L117.513 76.1481L116.591 75.9177H114.518L112.674 76.8394L111.522 77.9914L110.601 79.6044V81.9085L111.983 84.6735L113.826 85.8256L116.131 86.056L117.974 85.5952L118.896 84.4431V83.0606L118.665 82.8302H116.131L115.439 82.5998L114.979 81.9085L115.209 80.2956L115.67 79.8348L121.43 79.6044L122.121 80.0652L122.352 81.2173V85.3647L121.661 86.7472L119.817 88.3601L117.052 89.2818H113.596L111.061 88.3601L108.757 86.2864L107.375 84.2127L106.684 82.3693V79.6044L107.836 76.8394L108.757 75.4569L110.601 73.844L112.674 72.9223L113.596 72.6919Z" fill="#02548F"/>
<path d="M0 72.9219H12.212L11.9816 75.9173L3.45623 76.1477V79.3735H10.3687L11.2904 79.6039V82.3689L3.45623 82.8297L3.22581 83.521V85.8251H11.9816L12.212 86.9772V89.0509H0V72.9219Z" fill="#02548F"/>
<path d="M88.9403 76.8394H91.9357L94.7007 78.2218L96.0832 77.3002L96.3136 77.5306L96.7745 80.9868V88.1297L95.6224 90.4339L94.0095 91.8164L92.3966 92.2772H87.5578L85.7145 91.5859L85.2537 90.8947V89.973L86.6362 90.4339L88.4795 91.1251H91.9357L93.7791 90.2034L95.392 87.8993L95.6224 86.056H94.9311L92.627 87.6689L91.7053 88.1297H88.4795L86.4058 86.9776L85.0233 85.3647L84.332 83.291L84.5624 80.9868L85.4841 79.1435L87.3274 77.5306L88.9403 76.8394Z" fill="#0152B6"/>
<path d="M258.987 76.6089H260.6L262.674 77.5305L264.517 79.3739L265.439 81.2172L265.9 82.8301L263.826 83.7518L262.674 83.9822H258.757L255.761 83.2909L256.453 85.5951L257.144 86.7472L258.296 87.4384L259.448 87.6688H261.291L264.056 86.5167H264.978L264.517 87.6688L262.443 89.0513L260.83 89.5121H258.987L256.683 88.5905L255.531 87.4384L254.379 85.8255L253.918 83.0605L254.379 80.7564L255.3 78.913L257.144 77.3001L258.987 76.6089Z" fill="#0152B6"/>
<path d="M164.749 76.8394H167.744L169.588 77.761L170.97 79.6043L171.431 80.9868V87.208L170.97 87.8993L167.514 89.2818L165.21 89.5122L162.906 88.821L161.523 87.6689L160.832 85.8256L161.062 84.2126L162.675 82.3693L165.21 81.4477L167.284 81.2172L170.279 82.5997L169.357 79.6043L168.436 78.6827L167.514 78.4523H164.98L163.136 78.9131H162.215L162.445 77.9914L164.749 76.8394Z" fill="#0152B7"/>
<path d="M136.179 78.2217H138.022L139.865 79.1433L141.248 80.7562L141.709 81.9083V84.2125L140.787 86.0558L138.944 87.6687L138.483 87.8991H136.179L134.335 87.2079L132.722 85.3646L132.031 83.2908L132.492 81.2171L133.644 79.6042L135.487 78.4521L136.179 78.2217Z" fill="#FEFEFD"/>
<path d="M245.163 78.2217L247.006 78.4521L248.619 79.3738L249.771 80.9867L250.002 81.6779V84.2125L248.85 86.5166L247.006 87.8991L245.393 88.1295L242.859 87.2079L241.246 85.595L240.555 84.2125V81.9083L241.707 80.065L243.55 78.6825L245.163 78.2217Z" fill="#FEFEFD"/>
<path d="M151.843 78.2217H153.456L155.299 79.1433L156.682 80.7562L157.142 81.6779L157.373 83.2908L156.912 85.1341L155.99 86.5166L154.838 87.4383L153.225 88.1295L151.382 87.8991L149.539 86.747L148.156 85.1341L147.695 83.5212L147.926 81.6779L149.308 79.6042L151.152 78.4521L151.843 78.2217Z" fill="#FEFEFD"/>
<path d="M293.319 77.9912L295.163 78.2216L297.006 79.1433L298.388 80.7562L298.619 81.6779V83.982L297.006 85.8253L295.393 86.9774L294.702 87.2078H292.398L290.554 85.8253L289.402 83.7516L289.172 81.9083L290.094 80.0649L291.937 78.452L293.319 77.9912Z" fill="#FEFEFD"/>
<path d="M89.4015 78.2217H91.4752L93.3185 78.9129L94.701 80.5258L95.1619 81.6779V83.7516L93.549 85.8254L91.4752 86.9775L89.4015 87.2079L87.3278 85.8254L85.9453 83.9821L85.7148 81.9083L86.6365 80.2954L88.4798 78.6825L89.4015 78.2217Z" fill="#FEFEFD"/>
<path d="M292.628 76.6089H294.932L297.467 77.5305L298.849 78.6826L299.771 80.5259L300.001 83.0605V87.4384L299.54 89.5121L298.158 91.3555L296.084 92.2771L294.471 92.5075H292.397L289.632 91.8163L288.711 90.8946L288.48 89.7426L289.632 90.2034L291.706 91.1251L294.241 91.3555L296.314 90.6642L298.158 89.0513L299.079 86.7472L299.31 85.3647L297.927 86.2863L296.314 87.6688L294.471 88.3601H292.397L290.093 87.208L288.48 85.3647L287.789 83.7518V81.678L288.711 79.3739L289.863 77.9914L291.706 76.8393L292.628 76.6089ZM293.319 77.9914L291.476 78.6826L289.863 80.2955L289.172 81.9084L289.632 84.2126L291.015 86.2863L292.397 87.208H294.702L296.084 86.5167L298.388 84.443L298.619 83.9822V81.678L297.927 80.0651L296.314 78.6826L294.241 77.9914H293.319Z" fill="#0152AF"/>
<path d="M239.633 72.231L240.785 72.4614V76.3784L240.554 79.1434L242.859 77.5305L245.393 76.6088L247.467 76.8393L249.08 77.7609L250.693 79.6042L251.614 81.9084V84.9038L250.232 87.208L248.619 88.5904L246.084 89.5121L244.011 89.2817L241.015 87.8992H239.863L239.402 84.9038V81.4476L239.633 72.231ZM245.163 78.2218L243.089 78.913L241.246 80.5259L240.554 81.9084V84.2126L241.706 86.0559L243.319 87.4384L245.393 88.1296L247.006 87.8992L248.849 86.5167L250.001 84.2126V81.678L249.08 79.8347L247.697 78.6826L246.084 78.2218H245.163Z" fill="#0152B7"/>
<path d="M146.773 72.0005L147.925 72.6917V78.9129L149.538 77.9913L151.382 76.8392H154.377L156.22 77.7609L157.833 79.6042L158.755 81.9083V84.2125L157.833 86.5167L156.681 87.8991L154.608 89.0512L153.916 89.2816H151.151L148.617 87.8991L147.695 87.6687L147.234 88.36H146.773L146.543 72.2309L146.773 72.0005ZM151.843 78.2217L149.999 79.1434L148.847 80.065L147.695 82.3692L147.925 84.4429L148.617 85.8254L150.46 87.4383L152.303 88.1296L153.916 87.8991L155.76 86.7471L156.681 85.595L157.142 84.6733L157.372 83.0604L156.912 81.2171L155.99 79.8346L154.608 78.6825L153.455 78.2217H151.843Z" fill="#034D7A"/>
<path d="M219.128 76.6089L221.201 77.0697L222.584 77.9914L224.197 79.8347L225.349 82.5997L225.118 83.2909L221.201 83.9822H217.515L215.902 83.5213L215.441 82.8301L216.363 82.5997L221.662 82.3693L223.275 82.1389L222.814 80.7564L221.432 79.1435L219.588 78.4522L217.515 78.913L215.902 80.2955L215.211 81.678V83.9822L216.363 86.2863L217.745 87.4384L218.436 87.6688H220.51L223.045 86.7472L224.197 86.5167L223.966 87.6688L221.893 89.0513L220.51 89.5121H218.436L216.593 88.8209L214.75 87.208L213.367 84.443V81.4476L214.519 79.1435L216.132 77.5305L217.745 76.8393L219.128 76.6089Z" fill="#0152B5"/>
<path d="M156.224 1.72363L157.607 2.18446L159.911 4.2582L161.524 6.33194L162.215 7.71443L162.445 9.09692V10.9402L161.754 13.2444L160.372 15.0877L158.298 16.931L156.916 17.6223L155.994 17.3919L158.298 15.5486L160.141 13.014L160.602 10.9402L147.008 10.7098L146.316 10.4794V8.86651L146.547 8.63609H159.911L160.602 8.86651L159.911 6.79277L157.837 4.02779L156.224 1.95405V1.72363Z" fill="#FEFEFD"/>
<path d="M136.866 76.6089L138.709 76.8393L140.552 77.761L141.704 78.913L142.626 80.0651L143.317 81.9084V84.6734L142.165 86.7472L141.244 87.8992L139.4 89.0513L137.787 89.5121H135.944L133.87 88.5905L132.027 86.9776L130.875 85.1343L130.645 84.2126V81.9084L131.566 79.8347L133.179 77.9914L135.483 76.8393L136.866 76.6089ZM136.174 78.2218L134.331 79.1435L133.179 80.2955L132.257 81.678L132.027 83.2909L132.718 85.3647L134.331 87.208L136.174 87.8992H138.479L139.861 86.9776L141.244 85.3647L141.704 84.2126V81.9084L140.783 80.0651L139.17 78.6826L138.018 78.2218H136.174Z" fill="#0152B5"/>
<path d="M279.264 76.6089H280.877L282.721 77.5305L284.334 79.3739L285.025 81.2172V88.8209H283.412L283.182 88.3601V81.678L282.49 79.8347L281.338 78.6826L280.186 78.2218L278.343 78.4522L277.191 79.1435L276.269 80.0651L276.039 80.7564V88.8209H274.426L274.195 88.5905V80.0651L274.426 77.5305L276.269 77.761L279.264 76.6089Z" fill="#0152B7"/>
<path d="M76.4987 76.6089L78.5725 76.8393L79.7245 77.761L81.107 80.0651L81.5679 83.2909V88.8209H79.7245V82.3693L79.2637 80.2955L78.5725 78.913L77.19 78.2218L75.1162 78.4522L73.2729 79.6043L72.5817 80.5259L72.3512 84.2126V88.8209H70.9688V77.761L73.9641 77.3001L76.4987 76.6089Z" fill="#015490"/>
<path d="M41.246 77.2998L42.3981 77.5302L42.6285 83.521L43.3198 86.286L43.5502 86.9772L44.7023 87.4381L46.3152 87.8989L47.9281 87.6685L49.3106 86.5164L50.0018 84.2123V77.5302L50.2322 77.2998H51.6147L51.8451 82.1385V86.0556L51.6147 88.1293L51.1539 88.5902H49.3106L47.0064 89.2814H45.1631L43.0894 88.5902L41.9373 87.2077L41.246 85.1339L41.0156 82.3689V77.5302L41.246 77.2998Z" fill="#015490"/>
<path d="M20.7371 76.6089H22.35L24.1933 77.5305L25.5758 79.3739L26.0367 80.5259V88.8209H24.6542V82.1389L23.9629 80.0651L22.8108 78.913L21.1979 78.2218L19.3546 78.6826L18.2025 79.3739L17.5113 80.2955L17.2809 81.2172V85.8255L17.5113 88.8209H15.8984L15.668 88.1297V78.4522L16.3592 77.761L20.7371 76.6089Z" fill="#0152B8"/>
<path d="M32.9484 76.6089L35.4829 76.8393L37.0958 77.761L38.0175 78.913L37.7871 79.6043L36.8654 79.3739L35.0221 78.4522L34.3309 78.2218H32.7179L31.3355 79.1435L31.105 79.3739L31.3355 80.9868L32.7179 81.9084L36.4046 83.0605L37.7871 83.9822L38.2479 84.6734V86.5167L37.3263 87.8992L36.1742 88.8209L35.0221 89.2817H32.2571L30.4138 88.5905L29.4921 87.8992L29.2617 86.9776L30.4138 86.7472L32.9484 87.6688H34.5613L35.9438 86.9776H36.4046L36.635 84.9038L31.7963 83.2909L29.4921 81.2172V79.1435L31.105 77.3001L32.9484 76.6089Z" fill="#0152B6"/>
<path d="M165.437 82.8301H168.893L170.275 83.2909V85.5951L168.663 87.4384L166.819 88.1296H165.437L163.133 87.208L162.441 86.2863L162.211 84.9038L163.133 83.7517L165.437 82.8301Z" fill="#FEFEFD"/>
<path d="M157.375 0.802246L158.757 1.26308L160.14 2.18474L161.983 4.02806L163.596 6.79304L164.057 8.63637V11.6318L162.905 14.3967L161.061 16.4705L158.757 17.853L157.375 18.3138H155.992L156.914 17.3921L159.218 16.0097L160.831 14.3967L161.983 12.0926L162.213 10.9405V9.0972L161.753 7.25387L160.6 5.41055L158.527 3.1064L157.605 2.41515V1.49349L156.914 1.03266L157.375 0.802246Z" fill="#D26D4D"/>
<path d="M95.853 77.2998L96.3138 77.5302L96.7747 80.9864V88.1293L95.6226 90.4335L94.0097 91.816L92.3968 92.2768H87.5581L85.7147 91.5856L85.2539 90.8943V89.9726L86.6364 90.4335L88.4797 91.1247H91.936L93.7793 90.2031L95.3922 87.8989L95.6226 86.0556H94.9313L94.2401 86.5164L94.0097 86.0556L94.4705 84.4427L94.9313 83.7514V81.6777L94.0097 79.8344L93.5489 79.1431L95.6226 79.604L95.3922 77.7606L95.853 77.2998Z" fill="#015499"/>
<path d="M241.703 10.9404H243.546L244.699 13.7054L245.851 15.0879L246.081 13.0142L246.772 10.9404H248.385L248.616 11.1708V17.1616L248.155 17.3921H246.311L246.081 16.7008H245.62V17.1616L244.468 17.3921L243.546 15.5487L242.855 13.475V16.24L243.086 16.9312L243.546 17.3921H241.934L241.703 17.1616V14.8575L241.934 11.4013L241.703 10.9404Z" fill="#034B6D"/>
<path d="M175.117 72.231H177.191V88.8209H175.348L175.117 72.231Z" fill="#025590"/>
<path d="M126.269 72.231L127.652 72.4614L127.882 88.5904L127.652 89.0513H126.039L125.809 88.8209V73.8439L126.269 72.231Z" fill="#02548F"/>
<path d="M227.883 72.231H229.726V88.8209H227.883V72.231Z" fill="#025590"/>
<path d="M234.566 72.231L235.488 72.4614L235.718 88.8209L234.566 89.0513L233.875 88.5904L233.645 77.0697V72.6918L234.566 72.231Z" fill="#02548F"/>
<path d="M258.988 78.2217H260.831L262.674 79.3738L264.057 81.2171V82.3692L256.453 82.83L255.762 82.5996V81.2171L256.683 79.8346L258.296 78.4521L258.988 78.2217Z" fill="#FEFEFD"/>
<path d="M61.2917 76.8394H62.4438L62.2133 77.9914L59.4484 79.6043L57.8355 81.6781L57.605 82.5997V88.821H55.9921L55.7617 88.5905V77.3002L56.6834 77.5306L57.1442 78.9131L58.5267 78.4523L60.6004 77.0698L61.2917 76.8394Z" fill="#025490"/>
<path d="M66.1325 77.2998L67.0542 77.5302V88.5902L66.8238 88.8206H64.9805V77.5302L66.1325 77.2998Z" fill="#015490"/>
<path d="M164.746 76.8394H167.741L169.584 77.761L170.967 79.6043L171.428 80.9868V87.208H171.197L170.736 85.3647L170.275 85.1343L170.045 83.291L168.893 83.0606H164.976L165.898 82.1389L169.815 82.3693L170.275 82.5997L169.354 79.6043L168.432 78.6827L167.51 78.4523H164.976L163.133 78.9131H162.211L162.441 77.9914L164.746 76.8394Z" fill="#0152B5"/>
<path d="M147.465 73.1523H147.695L147.926 74.5348V78.9127L149.539 77.9911L151.382 76.839H154.377L156.221 77.7607L157.833 79.604L157.603 80.2952H157.142L156.912 81.2169L155.99 80.0648L154.608 78.9127L153.456 78.4519H151.843L149.999 79.3736L148.847 80.0648L148.617 79.3736L147.465 80.5256L147.234 78.4519V73.3828L147.465 73.1523Z" fill="#0152B4"/>
<path d="M299.54 85.3647H299.771V88.821L299.08 90.2035L298.158 91.3555L296.084 92.2772L294.471 92.5076H292.398L289.633 91.8164L288.711 90.8947L288.48 89.7426L289.633 90.2035L291.706 91.1251L294.241 91.3555L296.315 90.6643L298.158 89.0514L299.08 86.7472L299.54 85.3647Z" fill="#0152B0"/>
<path d="M96.5443 86.9775H96.7747L96.5443 88.8209L95.1618 90.8946L94.0097 91.8163L92.3968 92.2771H87.5581L85.7147 91.5858L85.2539 90.8946V89.9729L86.6364 90.4338L88.4797 91.125H91.936L93.7793 90.2034L95.3922 87.8992L95.6226 87.208L96.5443 86.9775Z" fill="#034E7C"/>
<path d="M41.246 77.2998L42.3981 77.5302L42.6285 83.521L43.3198 86.286L43.5502 86.9772L44.2414 87.2077L43.7806 87.4381V87.8989L43.3198 88.1293L44.2414 88.5902L43.5502 88.8206L42.1677 87.6685L41.4765 86.286L41.0156 82.3689V77.5302L41.246 77.2998Z" fill="#02548E"/>
<path d="M235.484 10.9404H239.862L239.632 11.8621L239.401 16.24L239.171 17.6225H237.328V11.6317H235.945L235.484 10.9404Z" fill="#034B6E"/>
<path d="M246.777 10.9404H248.39L248.62 11.1708V17.1616L247.008 17.3921L246.316 16.4704L245.855 15.0879L246.086 13.0142L246.777 10.9404Z" fill="#044B6D"/>
<path d="M146.773 72.0005L147.925 72.6917L147.695 73.383H147.465V78.4521L147.695 80.2954L148.847 79.1434V80.5259L147.925 82.3692L148.156 84.9037H147.465L147.695 87.6687L147.234 88.36H146.773L146.543 72.2309L146.773 72.0005Z" fill="#034C72"/>
<path d="M239.633 72.231L240.785 72.4614V76.3784L240.554 79.1434L241.015 79.3738L240.094 79.8347L239.863 80.2955L241.246 79.8347L241.476 80.5259L240.785 81.9084L240.554 83.7517L239.863 83.0605L239.633 84.9038H239.402V81.4476L239.633 72.231Z" fill="#0153A1"/>
<path d="M283.184 80.9868L283.414 81.4476L284.566 81.9085L285.027 81.2172V88.8209H283.414L283.184 88.3601V80.9868Z" fill="#015493"/>
<path d="M147.465 84.6733L148.386 85.1342L149.999 86.9775L152.304 87.8992L153.916 87.6687L155.299 87.2079L154.147 88.5904L153.916 89.2816H151.151L148.617 87.8992L147.465 87.4383L147.234 84.9038L147.465 84.6733Z" fill="#0152B8"/>
<path d="M268.894 77.2998L270.047 77.5302V88.8206H268.664V77.5302L268.894 77.2998Z" fill="#025490"/>
<path d="M139.631 37.6685H139.862L140.092 39.2814L140.323 69.0049H133.641V68.7745L138.71 68.5441L139.171 67.6224H139.401L139.631 66.4704V37.6685Z" fill="#025590"/>
<path d="M169.815 78.2217L170.737 79.1433L171.428 80.9867V87.2079H171.198L170.737 85.3646L170.276 85.1341L170.046 83.2908L168.894 83.0604H164.977L165.898 82.1387L169.815 82.3692L170.276 82.5996L169.585 79.8346L170.046 79.1433L169.815 78.2217Z" fill="#025590"/>
<path d="M223.502 81.9082V82.5994L223.041 82.8299L223.963 83.5211L221.198 83.9819H217.511L215.898 83.5211L215.438 82.8299L216.359 82.5994L221.659 82.369L223.272 82.1386L223.502 81.9082Z" fill="#015490"/>
<path d="M223.503 86.5166H224.194L223.963 87.6687L221.89 89.0512L220.507 89.512H218.433L217.512 89.0512L217.973 88.8208V88.1295L222.12 87.2078L223.503 86.5166Z" fill="#0152B1"/>
<path d="M10.8314 72.9219H12.2139V74.5348L11.9835 75.6869H8.06641L9.21848 74.5348L9.67931 73.8435L8.52724 73.3827V73.1523L10.8314 72.9219Z" fill="#034B6F"/>
<path d="M85.2539 89.9727L86.6364 90.4335L88.4797 91.1247L92.1664 91.3551V91.816L91.7055 92.2768H87.5581L85.7147 91.5856L85.2539 90.8943V89.9727Z" fill="#0152B5"/>
<path d="M299.542 85.3647H299.773V88.821L299.081 90.2035L298.16 91.3555L297.468 91.586L296.086 91.3555L296.316 90.6643L298.16 89.0514L299.081 86.7472L299.542 85.3647Z" fill="#0152B5"/>
<path d="M274.426 77.9912H274.887V79.8345L274.656 82.3691V83.982L274.887 86.5166V87.8991H275.578V88.5903L276.039 88.8207H274.426L274.195 88.5903V80.0649L274.426 77.9912Z" fill="#025590"/>
<path d="M249.312 78.2217L250.465 79.1433L251.386 80.9867L251.617 81.9083V84.9037L250.234 87.2079L249.543 87.6687L250.004 86.5166L251.156 84.6733V82.83L250.925 83.7516H250.465V81.9083L250.004 80.9867V79.6042L249.312 78.6825V78.2217Z" fill="#02548E"/>
<path d="M239.633 78.6826H240.554V79.1434L241.015 79.3739L240.094 79.8347L239.863 80.2955L241.246 79.8347L241.476 80.5259L240.785 81.9084L240.554 83.7518L239.863 83.0605L239.633 84.9038H239.402V81.4476L239.633 78.6826Z" fill="#025389"/>
<path d="M147.465 73.1523H147.695L147.926 74.5348V78.9127L148.847 78.6823L149.308 78.9127V79.3736L149.769 79.604L148.847 80.0648L148.617 79.3736L147.465 80.5256L147.234 78.4519V73.3828L147.465 73.1523Z" fill="#0153A7"/>
<path d="M94.2382 79.604L95.1599 80.0648L95.8511 82.1386V84.4427L95.3903 85.8252L94.2382 86.5165L94.0078 86.0556L94.4686 84.4427L94.9295 83.7515V81.6777L94.2382 79.604Z" fill="#034D74"/>
<path d="M86.4058 78.2217L87.3274 78.4521L87.097 78.9129L88.0187 79.1433L86.4058 80.5258V80.065L85.4841 80.9867L84.7929 82.1387L84.5624 83.2908H84.332L84.5624 80.9867L85.4841 79.1433L86.4058 78.2217Z" fill="#025389"/>
<path d="M133.414 78.2217L134.105 78.6825L135.487 78.4521L134.335 79.3738L133.644 79.6042L133.183 80.5258L132.492 81.2171L131.57 80.9867L131.34 80.065L132.722 78.4521L133.414 78.2217Z" fill="#025389"/>
<path d="M247.008 12.3228H247.238L247.468 14.6269V16.9311H246.547L246.316 16.4702V13.2444L247.008 12.3228Z" fill="#FEFEFD"/>
<path d="M264.75 80.0649L265.21 80.7562L265.902 82.8299L264.519 83.5212H263.137L263.598 82.5995H264.289V80.9866H264.75V80.0649Z" fill="#0152AF"/>
<path d="M139.862 66.4702L140.323 67.1615V69.0048H133.641V68.7744L138.71 68.544L139.631 66.7006L139.862 66.4702Z" fill="#02548E"/>
<path d="M169.816 78.2217L170.738 79.1433L171.429 80.9867V84.6733H171.199L170.968 81.4475H170.047L169.586 79.8346L170.047 79.1433L169.816 78.2217Z" fill="#025287"/>
<path d="M256.453 77.7607L256.913 78.6824L255.301 80.7561L254.379 80.9866L255.07 79.3736L256.453 77.7607Z" fill="#034F7C"/>
<path d="M229.953 44.8115H235.252V45.2724L230.413 45.5028H227.648V45.0419H229.492L229.953 44.8115Z" fill="#025590"/>
<path d="M218.664 87.8989H220.507L220.277 88.3598L219.355 88.5902L219.585 89.2814L220.507 89.5118H218.433L217.512 89.051L217.973 88.8206V88.1293L218.664 87.8989Z" fill="#025590"/>
<path d="M65.6717 72.6919H67.0542L67.2846 73.3831L66.5934 74.0744L64.9805 73.844L65.2109 72.9223L65.6717 72.6919Z" fill="#01519E"/>
<path d="M50.9217 78.2217L51.3825 78.4521V81.4475L50.6913 80.9867V79.8346H50.2305V78.6825H50.6913L50.9217 78.2217Z" fill="#0152BF"/>
<path d="M121.663 85.5947H122.124L121.663 86.7468L119.82 88.3597L119.129 88.1293L120.051 87.2076H120.511V86.7468H120.972L121.433 85.8251L121.663 85.5947Z" fill="#034C71"/>
<path d="M201.844 76.3784L202.305 77.0697L203.226 80.0651L202.996 80.9867L202.074 78.6826L201.613 77.3001L201.844 76.3784Z" fill="#034D76"/>
<path d="M50.2304 77.2998H51.6129L51.3825 78.2215H50.9217L50.4608 79.1431L50 79.8344V77.5302L50.2304 77.2998Z" fill="#025182"/>
<path d="M268.434 72.9219H270.046L270.277 73.8435L270.046 74.074H268.434L268.203 73.1523L268.434 72.9219Z" fill="#034D76"/>
<path d="M71.4297 84.4429L72.1209 84.6733V88.3599L71.6601 87.8991L71.4297 85.5949V84.4429Z" fill="#0152BF"/>
<path d="M239.633 72.231L240.785 72.4614V76.3784H240.554L240.324 73.1526L239.863 73.8439L239.633 72.231Z" fill="#025080"/>
<path d="M95.8554 77.2998L96.3162 77.5302V80.9864H96.0858L95.6249 78.9127L95.3945 77.7606L95.8554 77.2998Z" fill="#034B6F"/>
<path d="M162.675 82.3691L163.136 82.5996L162.445 83.7516L161.754 84.6733L161.062 84.4429L161.754 83.2908L162.675 82.3691Z" fill="#01549E"/>
<path d="M155.301 0.341309L157.144 0.571724L158.066 1.7238L157.375 1.95422L156.222 1.26297V0.802139H155.301V0.341309Z" fill="#BA6246"/>
<path d="M146.773 72.0005L147.925 72.6917L147.695 73.383L147.234 73.8438L146.773 74.5351L146.543 72.2309L146.773 72.0005Z" fill="#034E7A"/>
<path d="M85.0233 79.8345L85.7145 80.2953L85.2537 81.6778L84.7929 82.1386L84.5624 83.2907H84.332L84.5624 80.9865L85.0233 79.8345Z" fill="#015493"/>
<path d="M157.375 79.3735L157.835 79.604L157.605 80.2952H157.144L156.914 81.2169L155.992 80.0648L155.762 79.604L157.375 79.8344V79.3735Z" fill="#015494"/>
<path d="M94.2383 79.604L95.1599 80.0648L95.6208 81.6777L95.3904 82.1386L94.6991 80.9865L94.2383 79.604Z" fill="#034C70"/>
<path d="M249.312 78.2217L250.465 79.1433L250.925 80.2954L250.234 80.9867H250.004V79.6042L249.312 78.6825V78.2217Z" fill="#025490"/>
<path d="M250.695 80.2954L251.386 80.9867V82.1387L250.465 81.9083L250.234 80.7562H250.695V80.2954Z" fill="#034C73"/>
</svg>
