<svg width="300" height="62" viewBox="0 0 300 62" fill="none" xmlns="http://www.w3.org/2000/svg">
<path d="M226.549 0L226.991 0.147492L228.171 2.21238L230.089 5.30972L243.363 27.1386L250 38.053L251.918 41.1504L254.277 44.9852V45.2801L245.133 45.4276L244.838 45.2801V44.8377L245.723 44.5427L245.87 44.2477V43.3627L243.805 39.9704L239.086 32.3008L237.021 28.9085L236.431 28.0235H221.977L220.944 28.466L220.649 28.761H220.059L220.354 27.876L222.124 24.7787L223.599 22.2713L223.894 21.8289L232.596 21.6814L231.121 19.3215L228.614 15.1917L226.844 12.2419V11.9469H226.549L226.254 12.6843L221.829 19.764L219.469 23.5988L217.699 26.4011L215.339 30.2359L213.57 33.0383L211.357 36.5781L208.997 40.4129L207.227 43.2152L207.08 44.1002L207.227 44.6902L208.26 44.9852V45.2801H198.82L199.705 43.6577L204.425 35.9881L206.932 31.8583L208.85 28.761L211.21 24.9262L213.717 20.7964L215.634 17.6991L218.142 13.5693L225.221 2.06489L226.549 0Z" fill="#7E837F"/>
<path d="M162.831 11.062L163.274 11.652L165.191 15.7818L167.256 20.059L169.173 24.1888L171.976 30.0885L174.483 35.3982L174.778 36.2832H175.073L175.22 35.5457L178.023 29.4986L180.235 24.6313L183.038 18.5841L185.397 13.4219L186.43 11.2095L186.725 11.062L190.412 24.9263L193.509 36.5782L195.722 44.8378V45.2802L191.002 45.4277L189.527 45.2802L190.265 44.2478V43.0678L187.167 30.9735L185.25 23.7464L184.217 25.9587L181.71 31.2685L179.498 36.1357L177.285 40.8555L175.515 44.6903L174.778 46.3127L174.335 45.8702L171.976 41.1504L170.353 37.7581L166.961 30.826L164.159 25.0738L163.569 23.8938L159.734 39.823L158.996 42.9204V44.1003L159.734 45.1327V45.2802H153.539L153.834 43.8053L156.636 33.3334L160.324 19.7641L162.684 11.2095L162.831 11.062Z" fill="#EE0074"/>
<path d="M9.14452 11.062H9.43951L11.2094 14.8968L14.0118 20.7965L16.3716 25.8112L19.0265 31.416L21.2389 36.1357L21.5339 36.2832L21.6814 35.3982L24.1887 30.0885L26.4011 25.2213L29.056 19.4691L31.2684 14.6018L32.8908 11.062L33.1858 11.2095L36.7256 24.4838L41.1504 41.1504L42.1828 44.9852V45.2802H35.9881L36.2831 44.6903L36.7256 44.1003L36.5781 42.6254L33.7757 31.7109L31.7108 23.7464L31.4159 24.1888L28.761 29.941L26.8436 34.0708L24.3362 39.528L22.4188 43.6578L21.2389 46.3127H20.9439L19.764 43.8053L18.584 41.4454L14.7492 33.6283L12.2419 28.4661L10.0295 23.8938L7.96459 32.3009L5.30972 43.5103L5.60471 44.3953L6.04718 44.9852V45.2802H0L0.147492 44.2478L2.50737 35.3982L4.86725 26.6962L7.6696 16.3717L9.14452 11.062Z" fill="#EE0074"/>
<path d="M97.1967 12.2417H111.503V12.6842L109.291 16.9615L108.701 17.9939H108.259L107.964 17.1089L107.816 16.9615H96.9017L94.8368 17.2564L92.6244 17.9939L91.002 19.0263L89.6746 20.3538L88.6421 21.8287L87.6097 23.8936L87.0197 26.106L86.8722 26.9909V30.9732L87.4622 33.6281L88.6421 36.1355L89.9696 37.7579L91.1495 38.7903L92.6244 39.6753L94.6893 40.4127L97.0492 40.7077L107.079 40.8552V29.4983L96.3117 29.6458L95.1318 30.5307L94.5418 30.6782L94.6893 29.9408L96.7542 26.106L97.3442 25.0735H112.093L112.241 44.1L112.978 44.985V45.28L106.341 45.4275H98.8191L95.2793 45.28L92.6244 44.8375L90.5595 44.1L88.3471 42.9201L86.7247 41.5927L85.5448 40.5602L84.0699 38.6428L82.8899 36.5779L82.005 34.0706L81.5625 31.7107V26.8434L82.1525 23.8936L83.0374 21.3862L84.3649 19.0263L85.6923 17.4039L86.5772 16.3715L88.6421 14.7491L90.707 13.5691L92.4769 12.8317L94.8368 12.3892L97.1967 12.2417Z" fill="#ED0074"/>
<path d="M257.079 11.062L257.669 11.357L259.439 13.2744L261.947 15.7818L262.979 16.9617L265.486 19.4691L266.519 20.649L268.584 22.7139L269.616 23.8938L272.124 26.4012L273.156 27.5812L275.221 29.646L276.253 30.826L278.908 33.4808L279.941 34.6608L280.236 34.9558V13.7169L279.351 12.3894L279.941 12.242H284.07L285.84 12.3894L284.955 13.5694L284.808 46.3127L284.07 45.8702L282.448 44.1003L271.681 33.3334L270.649 32.1534L265.044 26.5487L264.011 25.3688L261.799 23.1564L261.504 23.0089L261.652 43.8053L262.242 44.6903L262.537 45.2802L257.522 45.4277L256.047 45.2802L256.932 44.1003L257.079 11.062Z" fill="#ED0074"/>
<path d="M60.3256 12.2417H78.7621L78.4671 13.1267L75.8123 17.9939L75.3698 17.8464L75.2223 16.9615H60.0306L57.9657 17.2564L55.7533 17.9939L54.1309 19.0263L52.656 20.5013L51.3286 22.5662L50.4436 24.7785L50.0011 26.8434V31.1207L50.5911 33.6281L51.3286 35.398L52.656 37.3154L53.6884 38.3478L55.3109 39.3803L57.2283 40.2652L58.7032 40.5602L60.3256 40.7077H77.1397L78.4671 39.8228L79.0571 39.5278L79.2046 39.8228L76.8447 44.2475L76.2548 45.28L72.5675 45.4275H61.8005L58.4082 45.28L55.7533 44.8375L53.246 43.9525L51.0336 42.6251L48.8212 40.7077L47.4938 39.0853L46.3138 37.1679L45.2814 34.6605L44.6914 31.7107V26.6959L45.2814 23.7461L46.1663 21.3862L47.4938 19.0263L48.6737 17.5514L49.7061 16.3715L51.771 14.7491L53.8359 13.5691L55.6058 12.8317L57.9657 12.3892L60.3256 12.2417Z" fill="#EE0074"/>
<path d="M142.774 12.2417H149.264L149.559 12.5367L148.674 13.5691V44.1L149.559 45.28H142.627L142.922 44.69L143.364 44.2475L143.512 43.8051V29.2033L127.582 29.3508L126.402 30.2358L125.812 30.3833L126.107 29.4983L128.172 25.516L128.615 24.7785L129.5 24.6311H143.364L143.512 16.9615V13.8641L143.069 13.1267L142.627 12.6842L142.774 12.2417Z" fill="#EE0074"/>
<path d="M119.468 12.2417H126.105L126.4 12.5367L125.515 13.5691L125.367 30.3833L125.515 44.1L126.252 44.985V45.28H119.32L119.615 44.69L120.205 44.1V13.5691L119.32 12.5367L119.468 12.2417Z" fill="#EE0074"/>
<path d="M293.364 12.2417H299.117L300.002 12.3892L299.117 13.5691V44.1L300.002 45.1325V45.28H292.922L293.807 44.1V13.5691L293.069 12.6842V12.3892L293.364 12.2417Z" fill="#EE0074"/>
<path d="M52.8012 25.0737H75.81L74.63 27.2861L72.8601 30.6784H72.4176L71.9752 29.646L51.0312 29.4985V29.056L52.8012 25.0737Z" fill="#EE0074"/>
<path d="M157.963 47.6401H158.848L158.553 48.3776L158.701 49.705L160.176 56.6372L160.618 57.6696L161.061 58.1121L160.913 58.2596H157.816L157.668 57.8171L158.553 57.6696L158.258 55.4572L158.111 54.4248L155.013 54.5723L153.981 57.2271V57.6696L154.866 57.9646L154.718 58.2596H151.769L151.621 57.8171L152.506 57.6696L152.801 56.9322L155.456 51.7699L156.931 48.9676L157.668 47.7876L157.963 47.6401ZM157.078 50.59L155.456 53.6873V53.9823H157.963L157.668 52.0649L157.373 50.59H157.078Z" fill="#5F1E9C"/>
<path d="M232.889 47.9351H240.263L239.821 49.41L239.084 49.115L238.051 48.6725L237.166 48.525H235.691L235.249 51.9174L235.101 52.3598H238.199L238.346 51.6224L238.494 51.4749H239.231L238.936 54.2772L238.199 54.4247L238.051 54.1297V52.8023L235.101 52.9498L234.806 55.7522V57.5221L235.101 57.6696H236.429L239.674 57.0796L239.526 57.817L239.231 58.2595H232.151L232.004 57.817H233.036L233.184 55.6047L233.921 49.115V48.525L232.741 48.3775L232.889 47.9351Z" fill="#5F1E9C"/>
<path d="M172.714 47.9351H180.089L179.794 49.41L179.056 49.115L178.024 48.6725L175.516 48.3775L175.221 51.3274L175.074 52.3598L178.024 52.2123L178.319 51.4749H179.056L178.909 53.6873L178.761 54.4247H178.024L177.876 52.9498L174.926 52.8023L174.631 57.2271V57.6696H176.254L178.024 57.3746L179.499 57.0796L179.351 57.9645L179.056 58.2595H172.124L171.977 57.817L172.862 57.6696L173.894 48.3775H172.714V47.9351Z" fill="#5E1E9C"/>
<path d="M228.613 46.6074H229.941L230.383 46.9024V47.6399L230.236 47.7874H229.351L228.466 47.3449L227.729 51.0322L229.203 51.1797L229.056 51.6222L227.729 51.4747L226.991 57.9643L226.549 60.1767L225.811 61.3567L225.074 61.9466H223.156L223.304 61.2092L224.631 61.3567L225.074 60.1767L225.664 56.3419L226.254 51.6222L225.516 51.4747V51.1797L226.254 51.0322L226.696 48.6723L227.286 47.4924L227.876 46.9024L228.613 46.6074Z" fill="#5E1E9C"/>
<path d="M198.671 51.0322H199.261V52.5071L200.441 51.3272L201.031 51.0322H201.916L202.359 51.4747L202.506 51.7697V53.8346L202.064 57.3744H203.096V57.8169L201.769 58.2594H200.589V56.7844L200.884 54.7195L201.031 52.3597L200.294 52.8021L199.409 54.1296L198.819 56.047L198.229 58.2594H197.196L197.049 57.6694L197.639 53.9821L197.786 52.5071H196.754L196.901 51.9172L198.671 51.0322Z" fill="#5E1E9C"/>
<path d="M164.011 51.0322H164.601V52.5071L165.781 51.3272L166.371 51.0322H167.256L167.698 51.4747L167.846 51.7697V53.8346L167.403 57.5219L168.436 57.3744V57.8169L167.551 58.1119L166.961 58.2594H165.929V56.9319L166.224 54.7195L166.371 52.3597L165.634 52.8021L164.749 54.1296L164.159 56.047L163.569 58.2594H162.536L162.389 57.8169L163.126 52.6546L163.274 52.3597L162.094 52.5071L162.241 51.9172L164.011 51.0322Z" fill="#5E1E9C"/>
<path d="M274.926 51.0322L275.664 51.1797V52.5071L276.401 51.6222L277.286 51.0322H278.171L278.761 51.6222L278.908 52.9496L278.318 57.5219L279.351 57.3744V57.9644L278.023 58.2594H276.991L276.844 58.1119L276.991 56.1945L277.286 53.9821V52.3597L276.549 52.8021L275.664 54.2771L275.074 56.1945L274.631 58.1119L274.484 58.2594H273.451L273.599 56.3419L274.189 52.3597L273.156 52.5071L273.304 51.9172L274.484 51.1797L274.926 51.0322Z" fill="#5D1E9C"/>
<path d="M242.774 51.0322L243.511 51.1797L244.101 52.0647L244.396 53.0971L245.134 52.3597L245.724 51.6222L246.904 51.0322L247.936 51.1797L248.084 51.7697L247.789 52.2122L246.461 52.5071L245.429 53.3921L244.986 53.9821L245.281 55.3095L245.724 56.3419V56.7844L246.461 56.3419L246.904 55.8995H247.494L247.346 56.6369L246.314 57.9644L245.871 58.2594H245.134L244.544 57.5219L243.806 56.047L243.216 56.6369L242.184 57.9644L241.741 58.2594L240.709 58.1119L240.414 57.2269L241.004 57.0794H241.741L243.069 55.3095L243.364 54.572L242.479 52.5071H241.299L241.447 51.9172L242.331 51.1797L242.774 51.0322Z" fill="#5D1E9C"/>
<path d="M221.533 51.0322H222.565L223.45 51.4747L224.04 52.3597L224.188 52.9496V54.4245L223.598 56.047L222.713 57.2269L221.385 58.1119L220.943 58.2594H219.616L218.878 57.8169L218.288 57.0794L218.141 56.6369V54.572L218.731 53.2446L219.763 51.9172L220.943 51.1797L221.533 51.0322ZM221.09 51.9172L220.353 52.6546L219.763 53.6871L219.616 54.2771V56.4894L220.353 57.3744L221.385 57.2269L222.123 56.4894L222.565 55.3095V52.8021L222.123 52.0647L221.09 51.9172Z" fill="#5D1E9C"/>
<path d="M261.799 46.6074H262.684L262.537 48.6723L261.504 57.6693L261.799 57.5219H262.684V57.8168L261.062 58.2593H260.177L260.029 58.1118V56.4894L260.914 48.5248V47.6399L259.734 47.7874L259.882 47.3449L261.209 46.7549L261.799 46.6074Z" fill="#5D1E9C"/>
<path d="M265.928 46.6074H266.813L266.666 48.6723L265.633 57.6693L266.666 57.3744L266.813 57.8168L265.191 58.2593H264.306L264.158 58.1118V56.6369L265.043 48.5248V47.6399L263.863 47.7874L264.011 47.3449L265.928 46.6074Z" fill="#5D1E9C"/>
<path d="M270.649 51.0322H271.682L272.419 51.6222L273.156 51.7697V52.0647L271.976 53.0971L270.797 53.9821L269.322 54.867L269.174 55.6045L269.617 56.6369L269.912 56.9319H270.797L271.976 56.1945L272.714 56.3419L272.419 56.9319L271.092 57.9644L270.059 58.2594H268.879L268.142 57.5219L267.699 56.1945V54.4245L268.289 52.9496L269.027 51.9172L270.059 51.1797L270.649 51.0322ZM270.207 52.2122L269.469 53.0971L269.322 53.9821L270.797 53.2446L271.092 52.6546L270.649 52.2122H270.207Z" fill="#5C1E9D"/>
<path d="M194.248 51.0322H195.428L195.87 51.3272V51.6222L196.755 51.7697L196.46 52.3597L194.985 53.6871L192.92 54.867V55.8995L193.363 56.7844L193.658 56.9319H194.543L195.723 56.1945H196.313L196.165 56.9319L194.985 57.8169L193.805 58.2594H192.625L191.888 57.6694L191.445 56.6369V54.1296L192.183 52.6546L193.068 51.6222L194.248 51.0322ZM193.953 52.2122L193.215 52.9496L193.068 53.9821L194.248 53.3921L194.69 52.9496L194.543 52.3597L193.953 52.2122Z" fill="#5C1E9C"/>
<path d="M288.79 51.0322L290.117 51.1797L290.56 51.6222L291.297 51.7697L290.412 52.8021L289.38 53.6871L287.462 54.867L287.315 55.0145L287.462 56.1945L288.052 56.9319H288.937L290.117 56.1945L290.855 56.3419L290.412 57.0794L289.085 57.9644L288.2 58.2594H287.02L286.282 57.5219L285.84 56.3419V54.4245L286.282 53.0971L287.315 51.7697L288.2 51.1797L288.79 51.0322ZM288.347 52.2122L287.61 53.0971L287.462 53.9821L288.937 53.2446L289.232 52.6546L288.79 52.2122H288.347Z" fill="#5C1E9D"/>
<path d="M256.93 51.0322H257.963L258.848 51.6222L259.438 51.7697L259.143 52.3597L257.815 53.5396L255.603 54.867V56.047L256.045 56.7844L257.078 56.9319L258.405 56.1945H258.995L258.848 56.7844L257.668 57.8169L256.488 58.2594H255.308L254.57 57.6694L254.128 56.7844L253.98 54.867L254.275 53.5396L255.16 52.2122L256.193 51.3272L256.93 51.0322ZM256.635 52.2122L255.898 52.9496L255.603 53.5396V53.9821L256.34 53.6871L257.225 53.0971L257.373 52.6546L257.078 52.2122H256.635Z" fill="#5C1E9C"/>
<path d="M212.536 51.0322L213.716 51.1797L214.011 51.3272V51.6222L214.896 51.7697L214.601 52.3597L213.273 53.5396L211.356 54.7195L211.061 54.867V56.047L211.503 56.7844L212.536 56.9319L213.863 56.1945H214.453L214.306 56.7844L213.126 57.8169L211.946 58.2594H210.766L210.028 57.6694L209.586 56.6369V54.1296L210.471 52.3597L211.651 51.3272L212.536 51.0322ZM212.093 52.2122L211.356 52.9496L211.061 53.8346L211.356 53.9821L212.683 53.0971L212.831 52.6546L212.536 52.2122H212.093Z" fill="#5A1F9D"/>
<path d="M182.891 51.0322H184.219L184.809 51.3272L184.956 52.3597L183.924 52.5071L183.334 51.7697L182.744 52.0647V53.0971L184.661 55.0145L184.956 55.752V56.9319L184.366 57.8169L183.334 58.2594H181.711L180.826 57.8169L180.531 57.2269L180.679 56.6369L180.826 56.4894H181.711L182.449 57.6694L183.186 57.3744L183.481 56.9319L183.334 55.8995L181.711 54.4245L181.269 53.6871V52.3597L181.859 51.4747L182.891 51.0322Z" fill="#5E1E9C"/>
<path d="M188.348 51.0322H189.528L190.266 51.4747L190.413 52.2122L190.118 52.5071H189.233L188.791 51.7697H188.201L188.053 52.8021L188.643 53.6871L189.823 54.7195L190.266 55.457L190.413 56.4894L189.971 57.5219L189.233 58.1119L188.643 58.2594H187.168L186.283 57.8169L185.988 57.3744L186.136 56.6369L186.283 56.4894H187.021L187.463 56.9319L187.758 57.6694L188.643 57.3744L188.791 57.0794V56.047L186.873 54.1296L186.726 53.8346V52.2122L187.463 51.3272L188.348 51.0322Z" fill="#5C1E9C"/>
<path d="M207.376 51.0322H208.408L208.998 51.3272L209.146 51.7697L208.703 52.2122H207.818L207.228 51.7697L206.491 52.0647L205.901 52.8021L205.458 54.572V55.752L206.048 56.9319H207.081L207.966 56.4894H208.556L208.408 57.0794L207.228 57.9644L206.343 58.2594H205.163L204.426 57.8169L203.836 56.4894V54.867L204.426 53.2446L205.458 51.9172L206.786 51.1797L207.376 51.0322Z" fill="#5F1E9C"/>
<path d="M283.774 51.0322H284.807L285.397 51.4747L285.249 52.0647L285.102 52.2122H284.069L283.479 51.7697L282.742 52.0647L282.152 52.9496L281.857 53.9821V56.047L282.299 56.7844L282.447 56.9319H283.332L284.217 56.4894H284.807L284.659 57.0794L283.774 57.8169L282.742 58.2594H281.414L280.677 57.6694L280.234 56.7844V54.4245L281.119 52.6546L282.447 51.4747L283.774 51.0322Z" fill="#5E1E9C"/>
<path d="M251.622 51.0322H252.654L253.244 51.4747L253.097 52.0647L252.949 52.2122H252.064L251.474 51.7697L250.884 51.9172L250.442 52.0647L250.147 52.6546L249.704 54.2771V55.8995L250.147 56.7844L250.294 56.9319L251.622 56.7844L252.212 56.4894L252.802 56.6369L252.654 57.0794L251.327 57.9644L250.589 58.2594H249.262L248.525 57.6694L248.082 56.6369V54.4245L248.819 52.9496L249.852 51.7697L251.032 51.1797L251.622 51.0322Z" fill="#5E1E9C"/>
<path d="M291.888 56.7847H292.773L293.068 56.9322V57.9646L292.773 58.2596H291.74L291.445 57.9646V57.0797L291.888 56.7847Z" fill="#5D1E9C"/>
<path d="M294.689 56.7847H295.574L296.016 57.2271L295.869 57.9646L295.574 58.2596H294.689L294.246 57.8171L294.394 57.0797L294.689 56.7847Z" fill="#5D1E9C"/>
<path d="M297.197 56.7847H298.082L298.525 57.0797L298.377 58.1121L298.082 58.2596H297.197L296.902 58.1121V57.0797L297.197 56.7847Z" fill="#671C9A"/>
</svg>
