<svg width="241" height="100" viewBox="0 0 241 100" fill="none" xmlns="http://www.w3.org/2000/svg">
<path d="M128.354 18H132.001L134.119 18.3529L136.119 18.9412L138.119 19.8824L139.648 20.9412L140.824 22L141.766 22.9412L142.942 24.7059L143.53 26L144.119 28L144.354 30.1176L144.236 32.3529L143.766 34.3529L143.06 36.1176L142.236 37.4118L141.177 38.7059L140.236 39.6471L138.589 40.8235L136.589 41.8824L134.824 42.4706L132.589 42.9412L131.413 43.0588H128.707L126.236 42.7059L124.236 42.1176L122.824 41.5294L121.53 40.8235L120.236 39.8824L119.06 38.8235L118.001 37.6471L116.942 35.8824L116.236 34.1176L115.883 32.4706L115.766 31.4118V29.6471L116.119 27.4118L116.707 25.6471L117.648 23.8824L118.589 22.7059L120.119 21.1765L121.648 20.1176L123.413 19.1765L125.53 18.4706L127.295 18.1176L128.354 18Z" fill="#6B7682"/>
<path d="M98.0016 10.5884H101.531L103.766 10.9413L106.119 11.6472L108.355 12.5884L110.237 13.6472L111.766 14.8237L113.06 16.0001L113.296 16.4707L112.237 17.6472L109.649 20.9413L109.178 20.706L108.119 19.7648L106.355 18.5884L104.119 17.4119L102.707 16.9413L100.472 16.5884H98.4722L96.4722 16.9413L94.8251 17.5296L93.0604 18.4707L91.7663 19.5296L90.9428 20.3531L89.884 22.0001L89.1781 23.6472L88.8251 25.4119V28.1178L89.1781 30.0001L89.884 31.7648L90.7075 32.9413L91.7663 34.1178L92.9428 35.059L94.7075 36.0001L96.4722 36.5884L98.2369 36.9413H101.766L103.531 36.5884L105.413 35.8825L107.178 34.9413L108.825 33.7648L109.766 32.9413H110.002L111.06 34.8237L112.825 37.7648L112.59 38.2354L111.178 39.4119L108.825 40.8237L106.943 41.6472L104.472 42.4707L102.119 42.9413L100.825 43.059H98.2369L95.6487 42.706L93.4134 42.1178L91.4134 41.2943L89.531 40.2354L88.0016 39.059L86.7075 37.8825L85.4134 36.2354L84.4722 34.706L83.6487 32.9413L82.9428 30.4707L82.7075 28.9413L82.5898 26.3531L82.8251 23.8825L83.4134 21.5296L84.3545 19.4119L85.2957 17.8825L86.4722 16.3531L88.1193 14.706L89.6487 13.5296L91.531 12.4707L93.2957 11.6472L95.1781 11.059L96.9428 10.706L98.0016 10.5884Z" fill="#6B7682"/>
<path d="M228.234 18.4707H232.351L234.351 18.8236L236.234 19.5295L237.881 20.5884L238.94 21.6472L239.763 22.9413L240.469 24.706L240.822 26.4707L240.94 27.4119V42.4707H235.645L235.41 39.7648L234.822 40.3531L233.763 41.2942L232.116 42.2354L230.234 42.8236L228.469 43.0589H227.41L225.528 42.8236L223.41 42.1178L222.116 41.2942L220.94 40.2354L220.116 38.9413L219.645 37.7648L219.41 36.5884V34.5884L219.881 32.706L220.469 31.5295L221.41 30.3531L222.822 29.2942L224.116 28.706L225.645 28.2354L227.057 28.0001L228.351 27.8825H230.234L232.587 28.1178L235.175 28.706L235.645 28.8236L235.293 26.4707L234.587 25.0589L233.528 24.1178L232.116 23.5295L230.94 23.2942H228.234L226.116 23.6472L224.116 24.2354L222.94 24.5884L222.351 23.1766L221.528 20.5884L221.645 20.2354L224.116 19.2942L226.469 18.706L228.234 18.4707Z" fill="#6B7682"/>
<path d="M184.355 18.4707H188.472L190.472 18.8236L192.355 19.5295L193.531 20.2354L194.708 21.2942L195.531 22.2354L196.355 23.8825L196.825 25.5295L197.061 27.6472V42.4707H191.767L191.649 39.7648L190.708 40.706L189.178 41.7648L187.296 42.5884L185.649 42.9413L184.59 43.0589H183.531L181.767 42.8236L180.119 42.3531L178.355 41.4119L177.178 40.3531L176.355 39.1766L175.767 37.6472L175.531 36.2354V34.9413L175.884 33.0589L176.825 31.1766L177.531 30.3531L178.825 29.4119L180.237 28.706L181.767 28.2354L183.178 28.0001L184.472 27.8825H186.472L188.825 28.1178L191.767 28.8236L191.531 26.8236L191.061 25.5295L190.355 24.5884L189.178 23.8825L188.355 23.5295L187.061 23.2942H184.355L182.237 23.6472L179.414 24.5884L178.943 24.4707L177.649 20.5884L177.767 20.2354L180.237 19.2942L182.59 18.706L184.355 18.4707Z" fill="#6B7682"/>
<path d="M157.294 10.5884H160.824L163.177 10.9413L165.177 11.5296L167.294 12.4707L169.059 13.5296L170.353 14.4707L169.53 15.7648L168.236 17.5296L167.412 18.706L166.353 18.1178L165.059 17.2943L163.059 16.3531L161.059 15.7648L158.706 15.5296L156.941 15.7648L155.647 16.2354L154.706 16.9413L154 17.8825L153.765 18.706V19.8825L154.236 21.1766L154.706 21.7648L155.883 22.4707L157.294 23.059L159.53 23.7648L163.177 24.706L165.53 25.5296L167.765 26.706L168.941 27.6472L169.765 28.4707L170.471 29.6472L170.941 30.706L171.294 32.706V34.3531L170.941 36.3531L170.353 37.7648L169.647 38.9413L168.588 40.1178L167.412 41.059L165.647 42.0001L163.294 42.706L161.647 42.9413H158.236L155.883 42.5884L153.412 41.8825L151.177 40.9413L149.53 40.0001L147.883 38.8237L146.941 38.0001L147.177 37.4119L148.353 36.1178L149.412 34.8237L150.118 34.0001L150.588 34.2354L152.118 35.4119L154.118 36.5884L155.883 37.2943L157.765 37.7648L158.471 37.8825H161.53L163.294 37.4119L164.588 36.5884L165.294 35.6472L165.647 34.4707V33.5296L165.294 32.3531L164.471 31.4119L163.294 30.706L161.059 29.8825L156.118 28.5884L153.765 27.7648L151.883 26.8237L150.588 25.8825L149.53 24.8237L148.824 23.6472L148.236 21.7648L148.118 20.8237V18.8237L148.471 17.059L149.059 15.6472L149.883 14.3531L151.412 12.8237L153.059 11.7648L155.294 10.9413L157.294 10.5884Z" fill="#6B7682"/>
<path d="M85.1762 54.2354H91.9998L93.9998 54.5883L95.8821 55.2942L97.1762 56.1177L98.4704 57.2942L99.2939 58.5883L99.8821 60.0001L100.353 61.8824L100.47 62.8236V65.8824L100.235 67.5295L99.6468 69.4118L98.9409 70.8236L97.9998 72.0001L96.9409 72.9412L95.2939 73.8824L93.2939 74.4706L92.7057 74.5883L91.0586 74.7059H85.1762L85.0586 74.5883V54.353L85.1762 54.2354Z" fill="#6B7682"/>
<path d="M134.588 58.9414H136.236L137.53 59.1767L143.177 59.2943V62.0002H140.588L141.177 63.2943L141.294 63.7649V65.5296L140.824 67.0591L140.118 68.0002L139.059 68.9414L137.647 69.5296L136.706 69.7649H134.588L133.294 69.5296L132.824 70.2355V71.412L132.941 71.7649L134.118 72.1179L139.177 72.2355L140.941 72.5885L142 73.0591L142.941 73.8826L143.412 74.9414L143.53 75.5296V76.4708L143.059 78.0002L142.353 78.9414L141.53 79.7649L140.118 80.5885L138.236 81.1767L136.824 81.412H133.883L132.118 81.0591L130.706 80.4708L129.647 79.6473L129.177 78.9414L128.941 78.1179V76.8238L129.412 75.6473L130.353 74.5885L130.824 74.2355H131.059L130 72.9414L129.765 72.2355V70.8238L130.353 69.6473L131.177 68.7061H131.412L130.588 67.7649L129.765 66.4708L129.412 65.1767V63.7649L129.765 62.3532L130.236 61.412L131.294 60.2355L132.706 59.412L134.588 58.9414Z" fill="#6B7682"/>
<path d="M15.9984 23.4116H17.4102L19.0572 23.7646L20.9396 24.7057L22.2337 25.8822L23.0572 27.0587L23.9984 28.941L24.9396 29.4116L47.4102 29.5293L47.9984 29.9999L48.116 30.2352V31.1763L47.6455 31.7646L47.4102 31.8822L24.9396 31.9999L23.9984 32.4704L22.8219 34.7057L21.8807 35.8822L20.7043 36.8234L19.0572 37.6469L17.4102 37.9999H15.9984L14.116 37.5293L12.7043 36.8234L11.4102 35.7646L10.5866 34.7057L9.7631 33.0587L9.41016 31.4116V30.1175L9.7631 28.4704L10.2337 27.294L11.0572 26.1175L11.6455 25.4116L13.0572 24.3528L14.3513 23.7646L15.9984 23.4116Z" fill="#6B7682"/>
<path d="M5.52941 43.2939H7.41176L9.05882 43.7645L10.4706 44.5881L11.5294 45.6469L12.9412 47.9998L13.6471 48.3528L45.8824 48.4704L46.4706 48.8234L46.8235 49.2939V50.1175L46.2353 50.8234L45.8824 50.941L13.5294 51.0587L12.8235 51.5292L11.7647 53.4116L10.7059 54.5881L9.52941 55.4116L8 55.9998L7.41176 56.1175H5.52941L3.88235 55.6469L2.70588 54.941L1.52941 53.8822L0.823529 52.8234L0.235294 51.4116L0 50.2351V49.1763L0.470588 47.2939L1.17647 45.9998L2.35294 44.7057L3.64706 43.8822L4.94118 43.4116L5.52941 43.2939Z" fill="#6B7682"/>
<path d="M129.295 23.2939H130.825L132.943 23.6469L134.472 24.2351L135.884 25.0587L137.295 26.4704L138.237 28.3528L138.472 29.4116V31.5292L138.119 32.941L137.413 34.3528L136.237 35.6469L134.59 36.7057L133.178 37.2939L131.413 37.6469H128.707L126.707 37.1763L125.295 36.5881L124.119 35.7645L123.178 34.941L122.119 33.2939L121.766 32.2351L121.648 31.5292V29.2939L122.119 27.6469L122.943 26.3528L124.237 25.0587L125.884 24.1175L127.766 23.5292L129.295 23.2939Z" fill="#FEFEFE"/>
<path d="M170.001 58.9414H171.766L173.648 59.412L175.06 60.2355L176.237 61.2943L177.06 62.3532L177.766 63.8826L178.119 65.2943L178.237 66.3532V67.6473L178.001 69.2943L177.531 70.7061L176.825 72.0002L175.531 73.412L174.472 74.1179L173.178 74.7061L171.648 75.0591H170.119L168.237 74.5885L166.707 73.7649L165.413 72.5885L164.354 70.9414L163.766 69.1767L163.648 68.4708V65.5296L164.119 63.6473L164.825 62.2355L165.766 61.0591L166.825 60.1179L168.472 59.2943L170.001 58.9414Z" fill="#6B7682"/>
<path d="M216.708 18.2354H217.414V24.0001L217.296 24.1177L215.649 24.2354L214.119 24.5883L212.472 25.4118L211.296 26.4706L210.472 27.5295L209.767 29.0589L209.296 30.7059L209.178 31.5295L209.061 33.5295L208.943 42.4706H203.531V18.8236L204.237 18.7059H208.943L209.061 18.8236L209.178 23.5295L209.884 22.2354L211.061 20.7059L212.119 19.7648L213.767 18.8236L215.531 18.353L216.708 18.2354Z" fill="#6B7682"/>
<path d="M48.704 61.4116H50.8217L52.704 61.9999L54.1158 62.8234L55.2923 63.8822L56.3511 65.5293L56.8217 66.8234L56.9393 67.4116V69.9999L56.4688 71.5293L55.7629 72.8234L54.8217 73.9999L53.4099 75.0587L51.9982 75.6469L50.4688 75.9999H48.9393L47.057 75.5293L45.6452 74.8234L44.2335 73.5293L43.2923 72.2352L42.704 70.8234L42.4688 69.7646V67.5293L42.9393 65.8822L43.6452 64.5881L44.5864 63.4116L45.9982 62.3528L47.2923 61.7646L48.704 61.4116Z" fill="#00A6C0"/>
<path d="M118.355 58.9414H120.472L121.884 59.2943L123.06 59.8826L124.002 60.8238L124.825 62.4708L125.178 64.2355V74.5885L122.355 74.7061L122.119 74.3532L121.884 73.0591L120.355 74.1179L118.825 74.8238L117.766 75.0591H116.472L115.06 74.7061L113.884 73.8826L113.178 73.0591L112.707 72.0002L112.59 71.412V69.6473L113.06 68.3532L113.766 67.412L114.825 66.5885L116.355 65.8826L118.355 65.2943L121.178 64.8238H121.649L121.178 63.2943L120.825 62.7061V62.4708L119.649 62.0002H117.884L116.355 62.4708L114.707 63.2943H114.355L113.178 61.0591L113.649 60.5885L115.884 59.5296L117.649 59.0591L118.355 58.9414Z" fill="#6B7682"/>
<path d="M58.7077 43.2939H61.0607L62.5901 43.7645L64.0018 44.5881L65.0607 45.6469L65.8842 47.0587L66.3548 48.7057V50.7057L65.8842 52.2351L65.1783 53.5292L64.2371 54.5881L62.5901 55.6469L60.943 56.1175H59.0607L57.6489 55.7645L56.1195 54.941L55.1783 54.1175L54.3548 52.941L53.7665 51.6469L53.5312 50.5881V48.8234L54.0018 47.0587L54.7077 45.8822L55.7665 44.7057L57.0607 43.8822L58.2371 43.4116L58.7077 43.2939Z" fill="#ABDA6C"/>
<path d="M154.236 58.9414H155.884L157.413 59.412L158.354 60.1179L159.06 61.1767L159.531 62.4708L159.766 64.2355V68.2355L159.648 74.7061H156.236L156.119 74.5885L156.001 64.1179L155.531 62.8238L154.942 62.3532L154.707 62.2355H152.825L151.648 62.8238L150.472 63.7649L150.354 64.0002L150.236 74.5885L150.001 74.7061H146.707V59.2943H149.648L149.884 61.0591L150.001 61.2943L151.413 60.1179L152.825 59.2943L154.236 58.9414Z" fill="#6B7682"/>
<path d="M6.23644 64.1177H8.00115L9.29527 64.5883L10.2364 65.2941L11.1776 66.4706L11.6482 66.9412L12.2364 67.1765L34.8247 67.2941L35.4129 67.6471L35.7659 68.1177V68.8236L35.2953 69.5294L35.06 69.6471L12.5894 69.7647L11.5306 70.1177L10.4717 71.4118L9.8835 72L8.94233 72.5883L7.76585 72.9412H6.58938L5.41291 72.5883L4.23644 71.8824L3.41291 70.9412L2.94233 70L2.70703 69.0589V68L3.05997 66.7059L3.76585 65.5294L4.94233 64.5883L6.23644 64.1177Z" fill="#6B7682"/>
<path d="M88.707 57.1763H91.1776L92.5894 57.4116L94.0011 57.9998L95.06 58.8233L95.8835 59.8822L96.4717 61.4116L96.707 62.588L96.8247 64.8233L96.5894 66.8233L96.1188 68.3527L95.5306 69.4116L94.5894 70.4704L93.4129 71.1763L91.7659 71.6469L90.707 71.7645H88.707V57.1763Z" fill="#FEFEFE"/>
<path d="M186.002 58.9414H188.002L189.531 59.2943L191.413 60.2355L192.119 60.7061L191.649 61.5296L190.59 62.8238L190.355 62.9414L188.59 62.0002L187.531 61.7649H186.59L185.531 62.1179L184.943 62.8238V63.8826L185.413 64.4708L187.178 65.2943L189.531 66.2355L190.825 67.0591L191.413 67.5296L192.119 68.7061L192.355 69.6473V70.8238L191.884 72.3532L191.178 73.2943L190.119 74.2355L188.59 74.8238L187.296 75.0591H185.649L183.884 74.7061L182.119 74.0002L180.825 73.1767L180.59 72.8238L182.002 70.8238L182.355 70.5885L183.531 71.412L185.296 72.1179L186.825 72.2355L187.884 72.0002L188.59 71.412L188.825 70.8238L188.707 69.7649L187.884 69.0591L185.766 68.1179L183.884 67.2943L182.707 66.4708L181.884 65.5296L181.413 64.2355V62.9414L181.766 61.6473L182.472 60.5885L183.296 59.8826L184.472 59.2943L186.002 58.9414Z" fill="#6B7682"/>
<path d="M234.47 58.9414H236.47L237.646 59.1767L239.058 59.7649L240.352 60.4708L240.588 60.9414L239.176 62.8238H238.705L236.823 61.8826L236.117 61.7649H235.058L234.117 62.1179L233.646 62.5885L233.529 62.8238V63.8826L234.117 64.5885L236.352 65.5296L238.352 66.3532L239.529 67.1767L240.47 68.2355L240.823 69.1767L240.94 69.7649V70.8238L240.47 72.3532L239.646 73.412L238.823 74.1179L237.646 74.7061L235.882 75.0591H234.235L232.47 74.7061L230.705 74.0002L229.529 73.2943L229.176 73.0591L229.293 72.5885L230.588 70.8238L230.94 70.5885L232.117 71.412L233.411 72.0002L234.588 72.2355H235.529L236.588 71.8826L237.176 71.2943L237.411 70.7061L237.293 69.8826L236.823 69.2943L234.94 68.3532L232.705 67.412L231.411 66.5885L230.588 65.7649L230.117 64.8238L229.999 64.3532V62.7061L230.47 61.412L231.176 60.4708L231.999 59.7649L233.293 59.1767L234.47 58.9414Z" fill="#6B7682"/>
<path d="M196.472 55.1763H199.531V59.2939H203.413V62.2351H199.531L199.648 70.1174L200.001 71.2939L200.119 71.6469L200.707 71.8822L200.943 71.9998H202.472L203.295 71.7645L203.884 74.1174L203.766 74.588L202.354 74.941L201.531 75.0586H200.001L198.472 74.7057L197.413 73.9998L196.59 72.941L196.119 71.6469L195.884 70.2351V62.2351H193.766L193.648 59.5292L193.884 59.4116L196.119 59.2939L196.237 57.4116L196.472 55.1763Z" fill="#6B7682"/>
<path d="M221.531 58.9414H223.295L224.707 59.2943L226.119 60.0002L226.942 60.5885L226.707 61.0591L225.295 62.9414L224.707 62.7061L223.648 62.1179L223.178 62.0002H222.001L220.825 62.3532L219.766 63.1767L218.942 64.4708L218.589 65.8826V68.1179L218.942 69.412L219.413 70.3532L220.236 71.2943L221.413 71.8826L222.001 72.0002H223.06L224.472 71.5296L225.531 70.8238L225.884 70.9414L227.178 73.0591L226.589 73.6473L225.413 74.3532L223.648 74.9414L222.942 75.0591H221.413L219.648 74.7061L217.766 73.7649L216.589 72.7061L215.531 71.0591L215.06 69.7649L214.825 68.7061L214.707 67.5296V66.4708L214.942 64.8238L215.413 63.2943L216.236 61.8826L217.06 60.9414L218.354 60.0002L219.884 59.2943L221.531 58.9414Z" fill="#6B7682"/>
<path d="M229.06 31.4116H231.766L234.001 31.7646L235.531 32.2352L235.766 32.4704V34.2352L235.413 35.7646L234.589 37.0587L233.648 37.8822L232.236 38.5881L230.942 38.941L230.119 39.0587H228.589L226.825 38.5881L225.766 37.8822L225.178 37.1763L224.707 35.8822V34.941L225.06 33.7646L225.531 33.0587L226.472 32.2352L227.413 31.7646L229.06 31.4116Z" fill="#FEFEFE"/>
<path d="M185.295 31.4116H187.883L190.118 31.7646L191.765 32.2352L191.883 32.3528V34.4704L191.648 35.5293L191.06 36.5881L190.118 37.6469L188.707 38.4704L187.06 38.941L186.354 39.0587H184.707L182.942 38.5881L181.883 37.8822L181.177 36.941L180.942 36.2352L180.824 35.1763L181.177 33.7646L181.883 32.8234L182.824 32.1175L184.001 31.6469L185.295 31.4116Z" fill="#FEFEFE"/>
<path d="M58.4713 26.4707H60.0007L61.1772 26.8236L62.236 27.5295L63.0595 28.4707L63.6477 29.8825L63.7654 31.1766L63.4125 32.5884L62.7066 33.7648L61.6477 34.706L60.1183 35.2942H58.4713L57.1772 34.8236L56.236 34.1178L55.4125 33.1766L54.9419 32.0001L54.8242 31.4119V30.4707L55.1772 29.0589L55.883 28.0001L56.9419 27.0589L58.0007 26.5884L58.4713 26.4707Z" fill="#95589F"/>
<path d="M170.352 61.8823H171.411L172.705 62.3529L173.528 63.1764L174.234 64.5882L174.469 65.7647V68.2353L174.116 69.647L173.528 70.8235L172.469 71.7647L171.411 72.1176H170.352L169.293 71.7647L168.352 70.9411L167.646 69.647L167.293 68V66L167.646 64.3529L168.352 63.0588L169.293 62.2353L170.352 61.8823Z" fill="#FEFEFE"/>
<path d="M104.825 59.2939H108.236L108.354 59.4116V74.5881L108.236 74.7057H104.825L104.707 74.5881V59.4116L104.825 59.2939Z" fill="#6B7682"/>
<path d="M207.176 59.2939H210.705V74.5881L210.47 74.7057H207.176V59.2939Z" fill="#6B7682"/>
<path d="M51.2955 12.5884L52.472 12.706L53.6484 13.1766L54.7073 14.1178L55.2955 15.2943L55.4131 15.6472V17.4119L54.9426 18.5884L54.0014 19.6472L52.8249 20.2354L52.472 20.3531H50.5896L49.5308 19.8825L48.5896 19.059L47.8837 18.0001L47.6484 16.9413L47.7661 15.4119L48.3543 14.2354L49.2955 13.2943L50.2367 12.8237L51.2955 12.5884Z" fill="#CA0663"/>
<path d="M13.8821 79.0586H15.7645L16.9409 79.5292L17.8821 80.3527L18.4704 81.4115L18.7057 82.1174V83.6468L18.2351 84.8233L17.4115 85.8821L16.1174 86.588L15.6468 86.7057H14.1174L12.9409 86.2351L11.9998 85.5292L11.2939 84.4704L11.0586 83.7645V81.8821L11.7645 80.4704L12.588 79.6468L13.8821 79.0586Z" fill="#6B7682"/>
<path d="M26.1195 88.9414H27.4136L28.4724 89.2943L29.5312 90.2355L30.0018 91.1767L30.1195 91.5296V92.9414L29.6489 94.1179L29.0607 94.8238L28.1195 95.412L27.1783 95.6473L25.8842 95.5296L24.7077 94.9414L23.8842 94.0002L23.5312 93.0591V91.5296L24.0018 90.3532L24.8254 89.5296L25.7665 89.0591L26.1195 88.9414Z" fill="#6B7682"/>
<path d="M25.6477 0L26.9419 0.235294L28.0007 0.941176L28.7066 2L28.8242 2.35294V3.88235L28.236 5.05882L27.4125 5.76471L26.5889 6.11765H25.0595L23.883 5.52941L23.1772 4.70588L22.8242 3.88235V2.35294L23.4125 1.17647L24.236 0.470588L24.9419 0.117647L25.6477 0Z" fill="#ABDA6C"/>
<path d="M39.8837 93.2939H41.2955L42.472 93.8822L43.2955 94.8234L43.6484 95.8822V96.7057L43.1778 97.8822L42.472 98.7057L41.5308 99.1763L41.0602 99.2939H40.119L38.9426 98.8234L38.3543 98.3528L37.7661 97.4116L37.6484 97.0587V95.5292L38.2367 94.3528L39.0602 93.6469L39.8837 93.2939Z" fill="#6B7682"/>
<path d="M132.942 74.9414L137.883 75.0591L139.177 75.2943L139.765 75.6473L140 76.1179V77.0591L139.412 78.0002L138.236 78.7061L136.942 79.0591H134.706L133.295 78.7061L132.353 78.1179L132 77.5296L131.883 76.7061L132.236 75.7649L132.942 74.9414Z" fill="#FEFEFE"/>
<path d="M143.412 91.647L145.53 91.7646L146.589 92.2352L147.059 92.8234L147.295 93.4117V94.8234L146.824 95.7646L146 96.3529L145.177 96.5881L143.059 96.7058L142.942 99.8823L141.883 99.7646V91.7646L143.412 91.647Z" fill="#6B7682"/>
<path d="M134.942 61.4116H136.001L136.824 61.7646L137.648 62.4704L138.118 63.5293V65.294L137.648 66.4704L136.707 67.294L136.001 67.5293H134.942L133.883 67.0587L133.177 66.2352L132.824 65.1763V63.6469L133.295 62.4704L134.118 61.7646L134.942 61.4116Z" fill="#FEFEFE"/>
<path d="M121.411 67.0586L121.647 67.1762V70.4704L120.588 71.4115L119.647 71.9998L118.823 72.2351H117.764L116.588 71.7645L116.117 71.0586V69.5292L116.823 68.588L118 67.8821L119.529 67.4115L121.411 67.0586Z" fill="#FEFEFE"/>
<path d="M178.469 92.5884H180.234L181.175 93.059L181.881 93.8825L182.234 95.2943L182.116 96.9413L181.528 98.1178L180.587 98.8237L180.234 98.9413H178.469L178.352 98.4707V93.4119L178.469 92.5884Z" fill="#FEFEFE"/>
<path d="M178.469 91.647H179.528L181.057 91.8823L182.234 92.5881L182.94 93.647L183.293 95.1764V96.3529L182.94 97.7646L182.351 98.7058L181.528 99.4117L180.587 99.7646L178.469 99.8823L177.41 99.7646V91.7646L178.469 91.647ZM178.469 92.5881L178.351 93.4117V98.8234L178.469 98.9411H180.234L181.175 98.4705L181.763 97.7646L182.116 96.9411L182.234 95.294L181.881 93.8823L181.057 92.9411L180.234 92.5881H178.469Z" fill="#6B7682"/>
<path d="M83.7656 96H134.589L134.472 96.3529H83.8833L83.7656 96Z" fill="#6B7682"/>
<path d="M190.234 96H240.94V96.2353L240.705 96.3529H190.234V96Z" fill="#6B7682"/>
<path d="M147.883 91.647H148.942L149.765 94.2352L150.942 98.3529V98.5881H151.177L151.412 97.4117L152.942 92.2352L153.177 91.647H154.118L154.236 91.8823L152 98.8234L151.648 99.7646L151.53 99.8823H150.706L150.353 99.7646L148.118 92.8234L147.883 91.647Z" fill="#6B7682"/>
<path d="M105.763 52.5884H107.293L108.116 53.059L108.587 53.6472L108.705 54.0001V55.1766L108.352 55.8825L107.646 56.4707L106.822 56.706L105.763 56.5884L104.94 56.1178L104.469 55.4119L104.352 54.3531L104.705 53.4119L105.293 52.8237L105.763 52.5884Z" fill="#6B7682"/>
<path d="M208.118 52.5884H209.648L210.354 52.9413L210.942 53.6472L211.06 54.0001V55.2943L210.589 56.0001L210.001 56.4707L209.295 56.706L208.118 56.5884L207.177 56.0001L206.824 55.2943V53.8825L207.295 53.059L208.118 52.5884Z" fill="#6B7682"/>
<path d="M154.59 91.7646H160.59L160.472 92.5882L158.119 92.7058V99.7646L158.002 99.8823H157.06L156.943 99.647V92.7058L154.59 92.5882V91.7646Z" fill="#6B7682"/>
<path d="M170 91.7646H176L175.882 92.5882L173.529 92.7058V99.7646L173.412 99.8823H172.471L172.353 99.2941V92.7058L170 92.5882V91.7646Z" fill="#6B7682"/>
<path d="M166.234 91.7646H167.176L167.293 98.8235L170.823 98.9411V99.7646H166.234V91.7646Z" fill="#6B7682"/>
<path d="M142.941 92.5884H145.177L145.883 92.9413L146.236 93.4119V94.706L145.765 95.4119L144.824 95.7648H142.941V92.5884Z" fill="#FEFEFE"/>
<path d="M160.94 98.353L161.646 98.5883L161.763 98.706V99.6471L161.41 100H160.822L160.352 99.5295V98.8236L160.94 98.353Z" fill="#6B7682"/>
</svg>
