<svg width="300" height="48" viewBox="0 0 300 48" fill="none" xmlns="http://www.w3.org/2000/svg">
<path d="M274.238 0L276.478 0.16L279.198 0.799999L281.758 2.08L283.518 3.52L285.118 5.11999L286.238 6.87999L287.358 9.27999L287.838 11.68V14.88L287.358 16.64L291.518 17.6L294.078 18.88L295.358 19.84L296.478 20.8L297.918 22.72L299.198 25.28L299.838 27.68L299.998 28.48V31.68L299.198 34.72L297.918 36.9599L296.798 38.3999L295.678 39.5199L293.438 40.9599L291.198 41.9199L288.478 42.5599L286.238 42.7199L285.918 42.5599L286.238 41.9199L290.398 40.9599L292.478 40.1599L294.238 39.0399L295.838 37.5999L296.958 36.32L298.238 33.76L298.718 32L298.878 29.28L298.558 26.72L297.758 24.64L296.638 22.72L295.358 21.28L293.438 19.84L291.038 18.72L287.998 17.92H287.038L286.558 18.88L286.718 19.04L289.918 19.52L292.158 20.32L293.918 21.44L295.678 23.2L296.798 24.96L297.598 27.36L297.758 28.48V30.56L297.438 32.48L296.638 34.56L295.678 36.16L294.558 37.1199L293.918 37.4399L292.798 37.2799L292.638 37.1199L292.798 36L293.918 33.6L294.238 32.48V29.76L293.598 27.68L292.638 25.92L290.878 24L289.438 22.88L287.998 22.24L286.878 21.92H284.798L283.038 23.04L282.558 23.2L282.878 24L284.638 25.6L286.078 27.36L287.038 28.96L287.838 31.2L288.158 32.8V36L287.678 38.2399L286.878 40.1599L286.238 41.2799L285.918 42.0799L283.998 43.8399L281.758 45.4399L279.678 46.3999L277.598 47.0399L276.478 47.1999H273.438L271.038 46.7199L269.118 45.9199L267.518 44.9599L265.278 43.0399L264.638 42.5599V42.2399L263.678 42.7199H262.238L259.358 42.0799L257.278 41.1199L255.678 40.1599L254.078 38.7199L252.798 37.2799L251.518 35.2L250.558 32.32L250.398 31.68V27.84L251.038 25.44L252.318 22.88L253.278 21.6L255.198 19.68L257.438 18.24L259.678 17.44L261.598 16.96H262.398L261.758 14.24V11.36L262.398 8.79999L263.678 6.23999L264.958 4.63999L266.558 3.04L268.158 1.92L270.238 0.959999L272.958 0.16L274.238 0Z" fill="#1302AE"/>
<path d="M272.959 22.5601H276.799L278.719 23.0401L280.639 23.8401L282.399 24.9601L284.479 27.0401L285.919 29.12L286.719 31.2L287.039 32.8V36L286.559 37.92L285.759 39.84L284.639 41.6L282.719 43.52L280.479 44.96L278.559 45.76L276.479 46.24H273.919L271.359 45.76L269.279 44.96L267.199 43.52L265.919 42.4L264.639 40.64L263.679 38.56L263.039 36.32L262.879 33.6L263.199 31.36L263.999 29.28L265.119 27.5201L267.359 25.1201L268.959 24.0001L271.519 22.8801L272.959 22.5601Z" fill="#FEFEFE"/>
<path d="M272.959 1.27979H276.799L279.199 1.91978L281.279 3.03978L282.879 4.31978L284.479 5.91978L285.919 8.15978L286.719 10.3998L286.879 11.1998V15.1998L286.239 17.2798L285.279 19.1998L283.999 20.7998L282.079 22.7198L281.279 22.8798L278.719 21.9198L276.959 21.5998H272.799L270.399 22.2398L268.479 23.1998L267.839 23.0398L265.439 20.7998L264.319 19.1998L263.199 16.7998L262.879 15.6798L262.719 14.2398V11.6798L263.199 9.43977L264.319 7.19978L265.439 5.75978L266.879 4.15978L268.799 2.71978L271.519 1.59978L272.959 1.27979Z" fill="#FEFEFE"/>
<path d="M261.439 17.9199H262.719L263.199 18.5599V19.0399L260.639 19.6799L259.039 20.4799L258.719 20.9599V21.7599H262.559L264.639 22.0799L266.879 23.1999L267.359 23.6799L267.039 24.3199L265.599 25.4399L264.319 26.8799L263.039 29.1199L262.399 30.7199L262.079 32.1599V36.3199L262.559 38.3999L263.839 40.9599L264.159 41.9199L261.119 41.4399L258.559 40.6399L256.639 39.6799L254.559 37.9199L253.119 36.1599L251.999 33.7599L251.359 31.1999V28.1599L251.999 25.5999L253.119 23.5199L254.239 22.0799L256.159 20.1599L257.759 19.1999L259.679 18.3999L261.439 17.9199Z" fill="#FEFEFE"/>
<path d="M60.4816 22.2397H61.9216L62.8815 22.8797L63.6815 24.4797L63.8415 30.2397L64.1615 31.6797H66.0815L66.7215 31.3597L66.8815 31.0397L67.0415 28.6397V25.2797L66.7215 24.4797L65.4415 23.9997L65.6015 23.1997L68.4815 22.2397L69.2815 22.3997L69.6015 23.5197L70.2415 23.1997L71.5215 22.3997L72.3215 22.2397H73.6015L74.5615 22.7197L75.3615 24.3197L75.5215 24.9597L75.6815 30.8797L76.8015 32.1597L77.1215 32.7997L76.9615 32.9597H53.9216L53.6016 32.7997L53.9216 31.9997L54.7216 31.3597H55.0416L55.2016 30.2397V25.4397L55.0416 24.4797L54.2416 24.1597L53.7616 23.3597L54.5616 22.8797L56.3216 22.3997H57.6016L57.9216 23.6797L59.6816 22.3997L60.4816 22.2397Z" fill="#1302AE"/>
<path d="M218.402 17.6001H222.882L224.802 17.7601L224.962 18.4001L224.482 18.8801L222.722 19.2001L222.882 30.8801L223.042 31.3601L224.642 32.0001L225.762 31.8401L226.562 31.0401L226.722 29.9201V24.6401L225.282 24.0001L225.442 23.2001L226.722 22.7201L228.322 22.2401H228.962L229.442 23.3601L230.082 23.2001L230.882 22.5601L232.002 22.2401H233.282L234.082 22.5601L234.882 23.5201L235.202 24.3201L235.362 25.2801L235.522 31.0401L235.682 31.5201L236.482 31.8401L236.962 32.4801V32.9601H218.082L217.762 32.6401V32.0001L219.842 31.2001V19.3601L217.922 18.7201L217.602 17.9201L218.402 17.6001Z" fill="#1302AE"/>
<path d="M120.801 16.7998H121.601V23.3598L122.881 22.5598L124.321 22.2398L125.761 22.3998L126.721 23.0398L127.681 24.1598L128.321 25.9198V28.9598L127.361 30.8798L125.761 32.3198L124.161 32.9598H121.601L120.161 32.4798L119.361 31.6798L119.041 30.3998L118.881 19.1998L117.281 18.5598L117.121 17.9198L118.721 17.2798L120.801 16.7998Z" fill="#1302AE"/>
<path d="M8.15999 17.4399L8.95999 17.7599L9.91999 19.6799L12 25.1199L13.28 28.4799L14.4 30.7199L15.52 31.6799L16.64 32.4799V32.7999L16.32 32.9599H10.08L9.75999 32.3199L10.4 31.6799L11.04 31.3599V30.3999L10.24 28.4799H4.95999L3.99999 30.5599V31.3599L5.11999 31.8399L5.59999 32.3199V32.7999L5.11999 32.9599H0.479999L0 32.7999L0.32 31.9999L1.6 31.0399L2.56 29.4399L4.15999 25.5999L6.71999 19.6799L7.83999 17.5999L8.15999 17.4399Z" fill="#1302AE"/>
<path d="M170.398 22.2397H172.798L174.078 22.7197L175.358 23.9997L176.158 25.2797L176.478 26.3997V28.7997L175.838 30.3997L175.198 31.3597L173.918 32.4797L172.798 32.9597L170.878 33.1197L169.118 32.6397L167.998 31.8397L166.878 30.2397L166.398 28.6397V27.0397L166.878 25.2797L167.678 23.8397L168.958 22.7197L170.398 22.2397Z" fill="#1302AE"/>
<path d="M134.082 22.2397H136.322L137.442 22.7197L138.722 23.6797L139.842 25.4397L140.162 27.1997L140.002 28.9597L139.362 30.5597L137.922 32.1597L136.962 32.7997L135.362 33.1197L133.762 32.9597L132.482 32.4797L130.882 31.0397L130.242 29.7597L130.082 29.2797V26.3997L130.722 24.6397L131.842 23.1997L133.442 22.3997L134.082 22.2397Z" fill="#1302AE"/>
<path d="M273.598 2.56006H275.358L277.758 2.88006L279.518 3.52006L281.278 4.48006L282.878 5.76005L284.318 7.68005L285.118 9.44005L285.598 11.36V14.88L285.118 16.8L284.158 18.72L282.558 20.48L281.918 20.8L280.958 20.64L280.478 20.16L280.638 19.36L281.758 17.12L282.078 16V12.64L281.278 10.56L280.158 8.80005L278.718 7.20005L277.118 6.08005L275.358 5.44005L274.398 5.28006H270.398L269.758 4.64006L270.238 3.84006L271.518 3.04006L272.478 2.72006L273.598 2.56006Z" fill="#1302AE"/>
<path d="M273.602 23.8398H276.002L277.922 24.1598L280.002 24.9598L281.442 25.7598L283.202 27.1998L284.482 28.9598L285.282 30.5598L285.762 32.4798V35.8398L285.282 37.7598L284.002 40.3198L282.882 41.5998L282.242 41.9198H281.122L280.802 41.7598L280.642 41.1198L281.922 38.3998L282.402 35.9998L282.242 33.9198L281.602 31.9998L280.482 30.2398L279.042 28.6398L277.922 27.6798L276.162 26.8798L274.882 26.5598H270.562L269.922 25.9198L270.402 25.1198L271.682 24.3198L273.602 23.8398Z" fill="#1302AE"/>
<path d="M80.9616 22.2397H83.0416L84.1616 22.7197L85.1216 23.5197L85.4416 24.1597V30.7197L86.4016 30.2397H87.3615L87.2015 31.1997L86.4016 32.1597L85.4416 32.7997L84.9616 32.9597H83.8416L83.5216 32.7997L83.2016 32.3197L81.2816 32.9597L79.5216 33.1197L78.7216 32.6397L77.7616 31.3597L77.6016 31.0397V29.2797L77.9216 28.6397L79.5216 27.6797L81.4416 26.7197L82.7216 26.2397L82.8816 26.0797V24.9597L82.5616 24.1597L82.2416 23.8397H80.9616L80.4816 24.4797L80.1616 26.7197H79.0416L78.0816 26.2397L77.7616 25.7597L77.9216 24.6397L78.8816 23.1997L79.8416 22.5597L80.9616 22.2397Z" fill="#1302AE"/>
<path d="M152.962 22.2397H155.202L156.642 22.8797L157.282 23.5197L157.442 23.9997V30.7197L158.562 30.2397L159.362 30.3997L159.202 31.1997L158.242 32.3197L156.962 32.9597H156.002L155.522 32.6397V32.1597L153.442 32.9597H151.202L150.402 32.4797L149.762 31.5197L149.602 31.0397V29.4397L150.242 28.4797L151.842 27.5197L153.602 26.7197L154.882 26.2397V24.7997L154.402 23.9997L154.242 23.8397H152.962L152.482 24.4797L152.162 26.5597L152.002 26.7197L150.562 26.5597L149.922 25.7597L150.082 24.4797L150.722 23.5197L151.682 22.7197L152.962 22.2397Z" fill="#1302AE"/>
<path d="M111.52 22.2397H113.6L114.88 22.7197L115.68 23.5197L116 24.1597V30.5597L117.6 30.2397L117.76 30.8797L116.96 32.1597L115.52 32.9597H114.56L113.92 32.3197L112.48 32.7997L111.84 32.9597H109.76L108.96 32.4797L108.32 31.5197L108.16 31.0397V29.2797L108.64 28.4797L110.88 27.1997L113.12 26.3997L113.44 26.0797V24.9597L112.96 23.9997L111.84 23.6797L111.2 23.9997L110.88 25.4397L110.56 26.7197H109.28L108.48 25.9197V24.6397L109.28 23.3597L110.72 22.3997L111.52 22.2397Z" fill="#1302AE"/>
<path d="M94.0816 17.6001H100.322L101.282 17.9201L101.122 18.5601L100.642 18.8801L98.5616 19.3601V29.4401L98.7216 31.3601L98.8816 31.5201H103.202L104.162 31.0401L105.762 28.6401L106.402 28.4801L106.882 28.6401L106.722 29.7601L105.762 32.6401L104.482 32.9601H93.9216L93.6016 32.6401L93.7616 32.0001L95.2016 31.3601L95.5216 31.2001L95.6816 30.5601V20.9601L95.5216 19.3601L93.9216 18.8801L93.6016 18.5601V17.7601L94.0816 17.6001Z" fill="#1302AE"/>
<path d="M196.321 22.2397H198.881L199.841 22.7197L201.121 24.1597L201.761 25.7597V26.5597L201.601 26.7197L198.081 26.8797H194.881L195.361 28.7997L196.321 30.0797L197.121 30.7197L197.601 30.8797H198.881L199.681 30.5597L200.001 29.9197L200.961 28.4797L201.761 28.6397L201.921 29.1197L201.281 30.8797L200.001 32.3197L199.041 32.7997L198.241 32.9597H196.321L194.721 32.3197L193.441 30.8797L192.801 29.4397L192.641 28.6397V26.5597L193.121 24.9597L194.081 23.5197L195.361 22.5597L196.321 22.2397Z" fill="#1302AE"/>
<path d="M48.0003 22.2397H50.2403L51.5203 22.8797L52.6403 24.1597L53.4403 25.9197L53.2803 26.5597L46.5603 27.0397L46.8803 28.6397L47.5203 29.5997L48.8003 30.7197L49.1203 30.8797H50.4003L51.2003 30.3997L52.1603 29.1197L52.8003 28.3197H53.2803L53.4403 29.2797L52.8003 31.0397L51.8403 32.1597L50.7203 32.7997L49.9203 32.9597H48.0003L46.5603 32.4797L45.1203 31.0397L44.4803 29.7597L44.3203 29.1197V26.0797L44.9603 24.4797L46.0803 23.1997L47.3603 22.3997L48.0003 22.2397Z" fill="#1302AE"/>
<path d="M205.439 22.2397H207.199L207.999 22.3997H209.599L209.919 22.7197L209.759 25.7597L208.959 25.9197L207.679 24.1597L206.559 23.6797L205.599 23.8397L205.279 24.3197L205.439 25.4397L209.279 27.3597L210.239 28.4797L210.559 29.1197V30.2397L210.079 31.3597L209.119 32.4797L207.999 32.9597L206.719 33.1197L204.959 32.6397L203.199 32.7997L203.039 32.4797L203.199 29.2797L203.679 29.1197L204.479 29.7597L205.119 30.8797L206.399 31.5197H207.519L207.999 31.1997V29.9197L206.399 28.9597L204.319 27.8397L203.359 26.7197L203.199 26.3997V24.6397L203.999 23.0397L204.959 22.3997L205.439 22.2397Z" fill="#1302AE"/>
<path d="M24.4789 22.2397H26.2389L26.3989 22.7197L24.9589 25.1197L23.5189 28.3197L21.7589 32.4797L21.1189 33.1197L20.3189 32.9597L19.0389 30.3997L16.6389 24.7997L15.1989 23.1997L14.8789 22.5597L15.0389 22.3997H20.4789L20.6389 22.8797L19.8389 23.6797L19.5189 23.8397L19.6789 25.2797L20.9589 28.6397L21.2789 29.2797L21.9189 27.8397L23.1989 24.7997V23.8397L22.3989 23.0397L22.2389 22.3997L24.4789 22.2397Z" fill="#1302AE"/>
<path d="M241.602 22.2397H243.842L245.122 22.8797L246.242 24.1597L246.562 25.1197L245.762 25.7597L244.962 26.0797L244.162 25.9197L243.042 23.9997L242.722 23.6797L241.602 23.8397L240.482 25.1197L240.162 26.0797V27.8397L240.642 29.1197L241.602 30.3997L242.722 30.8797H244.002L244.962 30.0797L245.922 28.6397H246.882L246.562 30.2397L245.602 31.6797L244.802 32.3197L243.842 32.7997L243.042 32.9597H241.282L239.682 32.3197L238.562 31.1997L237.922 29.9197L237.762 29.4397V26.2397L238.402 24.4797L239.522 23.1997L240.962 22.3997L241.602 22.2397Z" fill="#1302AE"/>
<path d="M38.082 22.2397H40.002L41.602 22.8797L42.562 24.3197L42.882 25.1197L42.082 25.7597L41.762 25.9197H40.642L39.842 24.6397L39.362 23.8397L38.242 23.6797L37.122 24.6397L36.642 25.5997L36.482 27.1997L36.802 28.6397L37.602 29.9197L38.562 30.7197L39.042 30.8797H40.322L41.282 30.0797L42.402 28.4797H43.042V29.7597L42.242 31.3597L40.802 32.6397L39.522 32.9597H37.442L36.162 32.3197L35.362 31.5197L34.402 30.2397L34.082 28.9597V26.5597L34.402 25.2797L35.042 24.1597L36.162 23.0397L37.442 22.3997L38.082 22.2397Z" fill="#1302AE"/>
<path d="M162.559 19.2002L163.199 19.3602L163.359 19.5202V22.0802L165.439 22.4002L165.759 22.7202L165.599 23.3602L164.799 23.6802L163.359 23.5202V31.0402L164.319 30.5602L164.799 30.2402H165.759L165.919 30.5602L165.279 31.8402L164.159 32.8002L162.719 33.1202L161.439 32.6402L160.799 31.3602V23.6802L159.199 23.5202L159.039 23.0402L159.839 22.2402L161.119 21.2802L162.239 19.5202L162.559 19.2002Z" fill="#1302AE"/>
<path d="M143.36 22.2397H144.16L144.8 22.7197V23.0397L146.08 22.3997L147.2 22.2397L148.48 22.5597L148.8 23.3597L148.48 24.3197L146.24 24.4797L145.12 24.9597L144.96 25.2797V30.8797L145.6 31.5197L146.56 32.1597L146.88 32.7997L146.56 32.9597H140.8L140.64 32.4797L141.44 31.6797L142.08 30.8797L142.24 29.9197V25.1197L142.08 24.6397L140.64 24.1597L140.48 23.5197L140.96 23.0397L142.88 22.5597L143.36 22.2397Z" fill="#1302AE"/>
<path d="M179.841 22.2397L180.801 22.3997L181.281 22.7197V23.0397L182.561 22.3997L183.841 22.2397L184.961 22.5597V24.1597L184.641 24.3197L182.561 24.4797L181.601 24.7997L181.441 25.1197V30.8797L182.241 31.6797L183.201 32.4797V32.9597H177.441L177.121 32.7997L177.441 31.9997L178.241 31.3597L178.561 30.7197L178.721 29.2797V25.7597L178.401 24.6397L177.281 24.1597L176.961 23.8397L177.121 23.1997L177.761 22.8797L179.201 22.5597L179.841 22.2397Z" fill="#1302AE"/>
<path d="M188.962 22.2397H189.922L190.082 22.3997L190.242 30.8797L191.042 31.6797L191.842 32.6397V32.9597H186.242L185.922 32.4797L186.402 31.6797L187.202 31.0397L187.362 30.3997V24.9597L187.202 24.6397L186.082 24.1597L185.922 23.6797L186.402 22.8797L188.962 22.2397Z" fill="#1302AE"/>
<path d="M31.0392 22.2397L31.5192 22.3997V30.5597L31.9992 31.3597L33.1192 32.4797V32.9597H27.1992L27.3592 32.3197L28.4792 31.0397L28.7992 30.0797V25.4397L28.4792 24.6397L27.5192 23.9997L27.3592 23.1997L28.6392 22.7197L31.0392 22.2397Z" fill="#1302AE"/>
<path d="M170.721 23.52L171.841 23.68L172.641 24.16L173.441 25.44L173.921 27.2V29.76L173.281 31.04L172.321 31.68H171.201L170.081 30.88L169.121 29.12L168.961 28.48V25.76L169.601 24.48L170.721 23.52Z" fill="#FEFEFE"/>
<path d="M134.08 23.6802H135.36L136.32 24.3202L137.12 25.6002L137.44 26.7202L137.6 28.9602L137.28 30.4002L136.48 31.3602L135.68 31.6802L134.56 31.5202L133.44 30.5602L132.64 28.8002L132.48 26.5602L132.8 24.9602L133.76 23.8402L134.08 23.6802Z" fill="#FEFEFE"/>
<path d="M123.362 24.3198L124.322 24.4798L125.442 25.7598L125.762 26.5598V29.4398L125.122 30.7198L124.162 31.5198L122.722 31.6798L121.922 31.1998L121.602 30.5598V25.4398L122.402 24.6398L123.362 24.3198Z" fill="#FEFEFE"/>
<path d="M231.201 24.3198L232.481 24.4798L232.801 25.7598V30.3998L232.321 31.5198L231.681 31.8398H230.241L229.601 31.0398L229.281 29.5998V25.7598L229.921 24.9598L231.201 24.3198Z" fill="#FEFEFE"/>
<path d="M71.6814 24.3198H72.6414L72.9614 25.2798V30.5598L72.6414 31.3598L71.8414 31.8398L70.4014 31.6798L69.7614 31.0398L69.4414 29.1198V25.9198L69.9214 25.1198L71.6814 24.3198Z" fill="#FEFEFE"/>
<path d="M59.8417 24.3198H60.8017L61.1217 24.9598L61.2817 26.8798V30.2398L60.9617 31.3598L59.8417 31.8398L58.5617 31.6798L57.9217 30.7198L57.7617 29.9198V25.7598L58.5617 24.9598L59.8417 24.3198Z" fill="#FEFEFE"/>
<path d="M7.67765 21.9199H7.99765L9.43765 25.9199L9.75765 27.0399H5.59766L5.75766 26.0799L7.67765 21.9199Z" fill="#FEFEFE"/>
<path d="M112.639 28H113.599V30.4L113.279 31.04L112.319 31.52H111.039L110.559 30.72L110.719 29.44L111.999 28.32L112.639 28Z" fill="#FEFEFE"/>
<path d="M82.0802 28H83.0402V30.24L82.5602 31.04L81.7602 31.52H80.4802L80.1602 31.2V29.44L81.4402 28.32L82.0802 28Z" fill="#FEFEFE"/>
<path d="M154.24 28H155.04V30.72L153.92 31.52H152.64L152.16 31.04V29.6L152.96 28.8L154.24 28Z" fill="#FEFEFE"/>
<path d="M196.479 23.6802H197.759L198.559 24.3202L198.719 25.2802L198.559 25.4402H194.879L195.199 24.6402L195.839 24.0002L196.479 23.6802Z" fill="#FEFEFE"/>
<path d="M48.1586 23.6802H49.2786L50.2386 24.4802L50.3986 25.2802L49.9186 25.4402H46.5586L46.7186 24.8002L47.5186 24.0002L48.1586 23.6802Z" fill="#FEFEFE"/>
<path d="M187.839 16.96H189.599L190.079 17.44V18.4L189.439 18.88H188.159L187.519 18.56L187.359 17.6L187.839 16.96Z" fill="#1302AE"/>
<path d="M29.4408 16.96H31.0408L31.6808 17.6L31.3608 18.4L30.5608 18.88L28.9608 18.56L28.8008 18.4V17.44L29.4408 16.96Z" fill="#1302AE"/>
</svg>
