<svg width="246" height="100" viewBox="0 0 246 100" fill="none" xmlns="http://www.w3.org/2000/svg">
<path d="M0 0H15.9664L16.1064 0.140056V38.9356L16.8067 38.2353L18.0672 36.8347L19.4678 35.014L21.0084 33.0532L22.8291 30.8123L24.0896 29.2717L25.7703 27.1709L27.0308 25.4902L28.4314 23.6695L30.2521 21.4286L31.9328 19.4678L33.1933 17.9272L35.9944 14.4258L37.535 12.605L39.2157 10.6443L40.3361 9.52381L41.3165 8.40336L43.5574 6.02241L45.2381 4.48179L47.3389 2.94118L49.5798 1.68067L51.4006 0.840336L54.0616 0.140056L55.7423 0H63.1653L64.7059 0.140056L65.4062 0.420168L65.5462 5.60224L62.0448 5.88235L59.5238 6.44258L57.2829 7.42297L54.6219 9.10364L52.1008 11.0644L50.8403 12.3249L49.7199 13.3053L45.7983 17.2269L44.8179 18.3473L43.2773 20.028L42.0168 21.5686L40.6162 23.1092L39.6359 24.2297L37.9552 26.1905L36.1345 28.2913L34.5938 30.112L33.4734 31.3725L33.6134 32.2129L35.5742 36.4146L36.9748 39.0756L39.7759 44.5378L41.4566 47.619L43.8375 52.1008L45.7983 55.4622L47.1989 57.8431L48.5994 59.944L49.8599 61.9048L51.2605 64.0056L52.6611 65.9664L53.9216 67.507L55.6022 69.4678L56.8627 70.8683L58.2633 72.2689L59.3838 73.2493L60.7843 74.5098L62.7451 75.7703L64.7059 76.7507L66.8067 77.3109L68.3473 77.591L70.4482 77.7311V83.1933L65.2661 84.1737L61.2045 84.5938H57.9832L54.7619 84.3137L51.2605 83.6134L48.7395 82.633L46.0784 81.2325L44.1176 79.6919L42.2969 78.0112L41.0364 76.7507L40.056 75.6302L38.2353 73.2493L35.9944 70.028L33.6134 65.9664L32.493 64.0056L30.6723 60.5042L29.2717 57.8431L27.3109 53.9216L25.9104 51.2605L23.9496 47.0588L22.409 43.9776H22.1289L21.2885 45.098L18.2073 48.7395L16.2465 51.2605L16.1064 52.1008L15.9664 83.6134H0V0Z" fill="#25A7DF"/>
<path d="M181.373 26.4707L184.174 26.6108L186.555 27.0309L189.216 28.0113L191.037 28.9917L192.297 29.9721L193.698 31.2326L194.678 32.4931L196.079 35.0141L196.779 36.5547L197.479 39.4959V83.6136H181.793L181.653 44.818L181.373 42.297L180.813 40.0561L180.252 38.9357L179.272 37.8152L177.591 36.9749L175.631 36.5547H173.95L171.569 36.9749L169.468 37.5351L167.367 38.3755L165.126 39.4959L163.166 40.6164L162.325 41.1766L162.185 83.6136H146.219V28.0113L146.359 27.8713L150.28 27.7312H154.062L160.364 27.8713L160.785 29.1318L161.485 32.4931L161.625 32.7732L161.765 34.1738L162.465 33.8937L165.266 32.213L167.927 30.6724L171.289 29.1318L173.53 28.2914L176.191 27.4511L179.272 26.7508L181.373 26.4707Z" fill="#25A7DF"/>
<path d="M224.65 26.4707H228.011L228.851 26.6108L233.193 26.8909L241.036 27.8713L242.016 28.1514L240.896 35.5743L240.616 37.255L240.476 38.7956L240.336 39.0757L239.075 38.7956L235.434 37.6752L229.832 36.2746L225.63 35.5743H221.848L219.748 35.9945L218.627 36.6948L218.347 36.9749L217.927 39.3559V41.0365L218.207 41.7368L218.487 42.7172L219.187 43.8377L221.428 45.2382L225.35 46.9189L232.213 49.2998L235.434 50.7004L238.235 52.241L240.476 53.9217L241.736 55.0421L243.277 57.0029L244.397 58.9637L245.098 61.3447L245.378 63.3054V67.227L244.958 69.4679L244.257 71.5687L243.417 73.1094L241.736 75.4903L240.336 77.0309L239.215 78.0113L237.395 79.5519L235.434 81.0926L233.893 82.0729L231.232 83.3335L228.291 84.1738L226.33 84.594H217.927L213.305 83.8937L209.944 83.0533L207.002 81.9329L203.361 80.1122L202.801 79.692L202.941 78.7116L204.622 74.0898L205.882 70.7284L206.442 69.1878L207.002 69.3278L209.103 70.5884L211.624 72.269L214.706 73.9497L218.067 75.3503L220.728 76.1906L221.848 76.4707L223.249 76.6108H226.75L228.291 76.3307L230.112 75.6304L231.092 74.79L231.792 72.9693L232.072 71.0085V67.9273L231.652 66.6668L230.812 65.4063L229.411 64.2858L227.171 63.0253L224.229 61.7648L221.288 60.7844L216.526 59.1038L214.145 57.9833L212.185 56.8629L210.224 55.4623L208.823 54.2018L207.283 52.5211L205.882 50.2802L205.322 49.0197L204.762 46.7788L204.622 45.0982V42.9973L204.902 40.8965L205.882 38.2354L207.283 35.9945L208.403 34.4539L209.664 32.9133L211.064 31.5127L212.885 30.1122L214.846 28.9917L216.806 28.0113L219.047 27.311L220.728 26.8909L224.65 26.4707Z" fill="#25A7DF"/>
<path d="M109.524 26.4707L110.224 26.6108L109.244 34.4539L108.544 39.2158V40.1962L108.124 40.3362L104.482 39.3559L102.801 39.0757H98.8799L96.7791 39.636L95.2385 40.4763L93.4177 42.157L92.1572 43.4175L92.0172 83.6136H76.1908L76.0508 73.5295V28.0113L76.1908 27.8713H90.3365L90.6166 28.8517L91.7371 36.2746L91.8771 36.5547L93.5578 33.8937L95.2385 31.6528L96.499 30.2522L98.1796 28.5715L99.5802 27.7312L102.241 27.0309L104.342 26.7508L109.524 26.4707Z" fill="#25A7DF"/>
<path d="M124.09 38.6553H131.233L131.373 39.2155L130.953 49.2995L130.532 60.504L129.972 75.49L129.692 82.0726L129.552 83.6133H125.911L125.771 83.4732L125.49 74.5096L124.93 60.364L124.65 54.2015L124.23 42.7169L124.09 40.3359V38.6553Z" fill="#25A7DF"/>
<path d="M118.066 27.731H138.374L140.475 27.871L139.775 31.5125L139.495 31.9326L115.965 31.7926L115.545 30.6721L115.125 28.7113V27.871L118.066 27.731Z" fill="#25A7DF"/>
<path d="M131.374 2.94141L132.074 3.64169L132.634 4.76213L133.054 6.44281V9.38398L132.354 11.4848L131.234 13.3056L130.673 14.0058L130.814 14.426L131.514 15.1263L132.634 17.3672L133.054 18.4876V21.7089L132.354 23.9498L131.654 24.9302L131.234 24.7901L131.654 23.2495L131.794 21.5689L131.514 20.1683L130.954 18.6277L129.973 17.3672L128.573 16.2467L128.152 15.9666H127.312L125.772 17.0871L124.511 18.6277L123.811 20.4484L123.671 21.2887V23.1095L123.951 23.9498V25.0703L123.531 24.9302L122.83 23.2495L122.41 21.7089V18.7677L122.97 16.807L123.951 15.1263L124.791 14.0058L123.671 12.6053L122.83 10.7845L122.41 9.38398V6.58286L122.97 4.34197L123.391 3.64169L123.671 3.22152L124.091 3.36157V4.06185L123.671 5.04225V7.28314L124.231 8.96381L125.491 10.7845L127.172 12.045L128.012 12.1851L129.553 11.0647L130.673 9.94421L131.374 8.54365L131.794 6.72292V5.46241L131.234 3.08146L131.374 2.94141Z" fill="#105D99"/>
<path d="M204.624 92.437L206.724 92.5771L207.985 92.437L208.545 92.7171L209.105 92.5771L211.206 92.437L212.467 92.9972L213.167 93.6975L213.727 95.3782V96.2185L213.587 96.3586L208.965 96.4986L209.105 97.1989L209.526 97.8992L209.946 98.0393H211.206L211.907 97.6191L212.047 97.0589L212.887 97.1989L213.587 97.6191L212.887 98.8796L211.626 99.7199H209.386L208.405 99.5799L208.125 99.86L207.285 100L206.024 99.5799L205.044 99.86H204.063L203.223 99.5799L202.103 98.5995L201.542 97.479L201.402 97.0589V95.2381L202.243 93.5575L202.803 92.9972L203.783 92.5771L204.624 92.437Z" fill="#FDFFFE"/>
<path d="M119.609 32.4932H135.855V33.4736L135.435 35.1542L134.735 35.2943H120.309L119.889 34.4539L119.469 32.6332L119.609 32.4932Z" fill="#25A7DF"/>
<path d="M172.129 88.9355H174.37L175.211 89.3557L176.051 90.3361L175.771 90.8963L175.07 91.3165L174.51 91.1764L173.81 90.6162L173.11 90.4762L172.409 91.0364L172.269 91.8767L172.69 92.577L173.95 93.4173L175.491 94.3977L176.191 95.2381L176.331 95.7983V97.3389L176.051 98.1792L175.351 99.1596L174.37 99.7199H171.849L170.729 99.0196L170.309 97.8991V97.3389L171.289 96.7787H171.569L172.129 97.7591L172.83 98.0392L173.95 97.8991L174.37 97.479L174.51 96.2185L173.81 95.5182L171.989 94.3977L170.869 93.4173L170.589 92.9972L170.449 91.4566L170.729 90.1961L171.569 89.2157L172.129 88.9355Z" fill="#144E86"/>
<path d="M189.496 92.437L190.756 92.5771L191.877 93.1373L192.717 94.2577L192.997 95.3782V96.2185L192.857 96.3586H187.955L188.656 97.8992L189.496 98.1793L190.476 98.0393L191.177 97.7591L191.457 97.0589L192.157 97.1989L192.857 97.6191L192.577 98.3194L191.877 99.1597L191.036 99.7199H188.515L187.395 98.8796L187.255 98.1793L186.835 98.0393L186.555 97.0589V95.2381L186.975 94.1177L187.955 92.9972L189.496 92.437Z" fill="#134A81"/>
<path d="M210.222 92.437H211.203L212.463 92.9972L213.164 93.6975L213.724 95.3782V96.2185L213.584 96.3586L208.962 96.4986L209.102 97.1989L209.522 97.8992L209.942 98.0393H211.203L211.903 97.6191L212.043 97.0589L212.883 97.1989L213.584 97.6191L212.883 98.8796L211.623 99.7199H209.382L208.262 99.0196L207.561 97.8992L207.281 96.6387L207.421 95.0981L207.982 93.6975L208.962 92.8572L210.222 92.437Z" fill="#145289"/>
<path d="M161.907 92.437H163.027L164.428 93.1373L165.128 94.2577L165.548 95.6583V96.3586L160.646 96.4986L160.786 97.1989L161.346 98.0393H163.027L163.727 97.479L163.867 97.0589L164.568 97.1989L165.268 97.6191L164.848 98.5995L163.727 99.5799L162.747 99.86L161.066 99.7199L159.946 98.8796L159.246 97.7591L159.105 97.1989V95.2381L159.526 94.1177L160.506 92.9972L161.907 92.437Z" fill="#14558C"/>
<path d="M197.619 92.437L198.599 92.5771L199.719 93.1373L200.14 93.9776V99.5799H198.599L198.459 94.5379L198.039 94.1177H196.778L195.938 94.6779L195.658 99.5799H194.117V96.9188L194.257 92.9972L194.817 92.5771L195.378 92.8572L195.518 93.1373L196.218 92.9972L197.619 92.437Z" fill="#155289"/>
<path d="M231.094 92.437H232.354L233.334 92.9972L233.895 93.6975L234.035 94.6779V97.0589L233.895 99.5799H232.494L232.354 95.2381L232.214 94.1177H230.673L229.973 94.5379L229.693 94.958L229.553 99.1597L229.413 99.5799H228.152V92.8572L229.273 92.7171L229.693 93.4174L230.813 92.5771L231.094 92.437Z" fill="#1469A4"/>
<path d="M121.71 35.8545H130.674L133.615 35.9945L133.475 37.115L133.055 37.8153L121.99 37.9553L121.57 36.2747L121.71 35.8545Z" fill="#25A7DF"/>
<path d="M146.218 89.0757H147.759V98.0393H150.98V99.5799H146.218L146.078 99.1597V89.2157L146.218 89.0757Z" fill="#0F3868"/>
<path d="M157.423 88.3755L158.683 88.5155L158.823 88.6556V89.636L158.683 90.0562L157.843 89.9161L157.283 90.0562V92.7172H158.683V94.1178H157.283L157.143 99.58H155.742V94.1178H154.902L154.762 93.9777V92.9973L155.322 92.7172H155.742V90.1962L156.022 89.2158L156.723 88.5155L157.423 88.3755Z" fill="#12609B"/>
<path d="M216.666 92.437L217.787 92.5771L218.627 93.1373L218.767 93.8376L218.347 94.2577H217.506L217.226 93.8376H216.526L216.386 93.9776V94.818L217.086 95.2381L218.627 96.0785L219.187 97.0589V98.3194L218.627 99.1597L217.787 99.7199H215.546L214.845 99.2998L214.285 98.4594L214.565 97.8992L215.125 97.6191L215.826 97.7591L216.106 98.3194L216.386 98.4594H217.506V97.1989L216.666 96.9188L215.125 95.9384L214.705 95.3782L214.565 94.1177L214.985 93.1373L215.966 92.5771L216.666 92.437Z" fill="#155D95"/>
<path d="M237.953 92.437H239.214L240.334 92.9972V94.2577L239.774 94.3978L239.214 94.1177L237.673 94.2577L236.973 95.0981L236.833 95.5182V96.4986L237.253 97.8992L238.654 98.3194L240.334 97.6191V99.0196L239.914 99.5799L239.494 99.7199H237.253L236.133 98.8796L235.573 98.1793L235.152 96.6387L235.292 94.958L235.853 93.6975L236.833 92.8572L237.953 92.437Z" fill="#166095"/>
<path d="M180.114 92.437H181.094L181.934 92.7171L182.355 93.1373V94.5379H181.934L181.654 94.2577L180.954 94.1177H179.974L179.273 94.6779L178.993 95.3782V97.1989L179.693 97.8992L180.254 98.1793L181.654 98.0393L182.214 97.479L182.355 97.6191V99.4398L181.654 99.7199H179.413L178.573 99.1597L177.593 98.0393L177.312 97.339V94.958L178.013 93.6975L178.853 92.8572L180.114 92.437Z" fill="#134B82"/>
<path d="M204.624 92.437L205.744 92.5771L206.444 92.9972L206.584 93.4174L206.444 94.6779L205.744 94.2577L204.344 94.1177L203.363 94.6779L203.083 95.6583V96.7787L203.503 97.7591L203.923 98.0393H205.604L206.304 97.6191L206.444 97.7591V99.1597L205.744 99.7199L205.044 99.86H204.063L203.223 99.5799L202.103 98.5995L201.542 97.479L201.402 97.0589V95.2381L202.243 93.5575L202.803 92.9972L203.783 92.5771L204.624 92.437Z" fill="#15578E"/>
<path d="M224.792 89.0757H226.052L226.192 91.3166V98.8796L226.052 99.5799H224.512V89.2157L224.792 89.0757Z" fill="#10538E"/>
<path d="M127.17 0.280273H128.15L129.27 0.840498L129.831 1.68083V3.22145L129.27 4.06179L128.71 4.48195H126.889L125.769 3.50156L125.629 3.08139V1.82089L125.909 1.12061L126.749 0.420329L127.17 0.280273Z" fill="#134B82"/>
<path d="M160.506 92.9971H161.206L161.346 93.5573L160.646 93.8374L160.226 95.0979L160.086 95.238V96.3584H160.366V96.9186H160.646L161.346 98.0391H163.027L163.727 97.4789L163.867 97.0587L164.568 97.1988L165.268 97.6189L164.848 98.5993L163.727 99.5797L162.747 99.8598L161.066 99.7198L159.946 98.8794L159.246 97.759L159.105 97.1988V95.238L159.526 94.1175L160.506 92.9971Z" fill="#144D84"/>
<path d="M131.371 2.94141L132.071 3.64169L132.631 4.76213L133.052 6.44281V9.38398L132.351 11.4848L131.931 12.1851L131.231 12.6053L130.25 13.7257L129.55 13.8658L129.97 13.0254L131.231 11.4848L131.651 10.6445L131.511 10.5044L130.811 11.3448L130.11 11.905H129.41L129.69 11.3448L130.531 10.3644L131.371 8.54365L131.791 6.72292V5.46241L131.231 3.08146L131.371 2.94141Z" fill="#144D84"/>
<path d="M189.497 92.437L190.757 92.5771L191.877 93.1373L192.718 94.2577L192.998 95.3782V96.2185H187.816L187.676 95.5182L187.956 95.3782V95.6583H188.236V95.3782L191.457 95.2381L190.897 94.2577L190.617 94.1177L188.656 93.9776L188.236 93.8376L188.096 94.5379L187.676 94.3978V93.5575L188.236 92.8572L189.497 92.437Z" fill="#0F3969"/>
<path d="M116.105 31.7925H138.514V31.9325H135.713L135.853 32.4928L133.052 32.6328L119.747 32.4928V32.3527L121.568 32.2126V32.0726L116.105 31.9325V31.7925Z" fill="#F3FFFF"/>
<path d="M198.32 92.9971L199.02 93.2772L199.58 93.5573V93.2772H199.3V92.9971L199.72 93.1371L200.14 93.9775V99.5797H198.6L198.46 94.5377L198.039 94.1175H196.779L196.219 94.2576L196.359 93.6974L197.199 93.2772H198.32V92.9971Z" fill="#1570AB"/>
<path d="M184.314 92.7173H185.154V99.58L184.594 99.7201L183.613 99.58V92.8573L184.314 92.7173Z" fill="#0F3969"/>
<path d="M152.242 92.7173L153.643 92.8573L153.783 96.4988L153.643 99.44L153.363 99.58H152.242V92.7173Z" fill="#115E99"/>
<path d="M59.9447 6.1626H60.5049L60.2248 7.28305L59.1044 7.98333L56.8635 9.10377L54.7626 10.2242L52.5217 10.9245H52.1016L54.2024 9.24383L57.2836 7.28305L59.5245 6.30265L59.9447 6.1626Z" fill="#F3FFFF"/>
<path d="M17.506 32.9131L18.4864 33.0531L18.7665 33.3333V34.3136L17.7861 35.9943L17.506 36.4145V36.8347L17.9262 37.1148L16.3856 38.9355H16.1055V34.7338L16.8057 33.6134L17.506 32.9131Z" fill="#F3FFFF"/>
<path d="M120.867 35.1543H133.612V35.9946H121.708L121.427 36.1347L121.287 35.4344L120.867 35.1543Z" fill="#F3FFFE"/>
<path d="M187.955 92.9971L188.235 93.1371L187.815 93.5573V94.3976L188.095 94.5377L188.235 93.8374L190.616 93.9775L191.317 94.6777L191.597 95.378H188.235V95.6581H187.815V96.2184L190.056 96.0783L192.857 96.2184V96.3584H187.955L188.095 96.9186H187.815L187.535 96.3584L187.395 95.378L187.535 94.3976H187.255V98.1791L186.835 98.0391L186.555 97.0587V95.238L186.975 94.1175L187.955 92.9971Z" fill="#186DA6"/>
<path d="M237.536 92.9971H237.816L237.536 93.6974L236.835 94.3976L236.555 95.0979L236.415 96.7786V97.4789L237.115 97.3388L237.255 97.899L238.656 98.3192L240.337 97.6189V99.0195L239.917 99.5797H237.676V99.2996L236.975 99.0195L235.995 97.759L235.715 97.1988V95.378L236.275 94.1175L236.975 93.2772L237.536 92.9971Z" fill="#144F87"/>
<path d="M214.985 95.6582L215.686 95.7983L217.226 96.4985L217.927 97.3389V98.8795H218.487L218.347 97.8991H218.627V96.3585L219.047 96.7787L219.187 97.0588V98.3193L218.627 99.1596L217.787 99.7198H215.546L214.845 99.2997L214.285 98.4593L214.565 97.8991L215.125 97.619L215.826 97.759L216.106 98.3193L216.386 98.4593H217.506V97.1988L216.666 96.9187L215.125 95.9383L214.985 95.6582Z" fill="#1768A1"/>
<path d="M123.671 3.22119L124.091 3.36125V4.06153L123.671 5.04192V7.28282L124.231 8.96349L124.512 9.38366V9.94388L124.091 10.224H123.671L123.531 11.2044L123.111 10.9243L123.251 9.38366H122.971L122.831 9.66377L122.551 8.96349V5.88226L122.971 4.34164L123.391 3.64136L123.671 3.22119Z" fill="#144E85"/>
<path d="M122.27 37.8149H133.054L132.774 38.0951L132.214 37.955L132.073 38.5152H131.793L131.513 38.0951L131.373 38.7953L124.09 38.6553V39.4956H123.95L123.81 38.3752L123.67 38.2351L122.27 38.0951V37.8149Z" fill="#F3FFFF"/>
<path d="M202.52 93.9775H202.94L202.8 95.3781L202.52 95.5182L202.8 96.3585L203.5 97.7591L203.921 98.0392H205.601L206.302 97.619L206.442 97.7591V98.7394L205.181 99.4397H203.64L202.8 98.7394L202.1 97.8991L201.96 97.3389L202.24 97.1988V96.6386H201.82L201.68 95.9383L201.96 95.5182V95.7983L202.24 95.6582L202.1 94.3977L202.52 93.9775Z" fill="#12477D"/>
<path d="M92.1562 32.2129H93.4167L93.8368 32.9132L94.117 33.0532L93.8368 33.7535L91.8761 36.6947L91.5959 36.2745L91.1758 33.6135V32.9132L92.1562 32.2129Z" fill="#F3FFFE"/>
<path d="M162.325 92.8569H163.025V93.137H164.005L164.706 93.4172L165.406 95.0978L165.546 96.2183H161.624L160.504 96.0782L160.644 95.6581H161.764V95.3779H163.865L164.005 94.3975L163.725 93.8373L162.605 93.6973L162.185 92.997L162.325 92.8569Z" fill="#144A81"/>
<path d="M211.625 92.9971L212.186 93.2772L212.046 93.8374L212.606 93.9775V93.5573L213.166 93.6974L213.726 95.378V96.2184L213.586 96.3584L209.665 96.4985L208.824 96.0783V95.6581H209.524V95.378H210.785L212.326 95.6581L212.186 94.3976H211.905L211.765 93.9775L211.345 93.5573L211.625 92.9971Z" fill="#135086"/>
<path d="M146.078 89.2158L146.218 89.4959L146.638 89.636V99.0197H150.28L150.42 99.2999L150.98 99.4399V99.58H146.218L146.078 99.1598V89.2158Z" fill="#11619D"/>
<path d="M180.531 39.356L180.811 39.7761L181.372 41.4568L181.652 42.9974L181.792 44.8181V83.6137H181.652L181.512 45.2383L181.372 43.1375L180.811 40.6165L180.531 40.1963V39.356Z" fill="#F3FFFF"/>
<path d="M129.273 0.980469L129.693 1.40064L129.833 1.68075V3.22136L129.273 4.0617L128.713 4.48187H126.892V4.34181L128.573 4.0617L128.433 3.08131H128.153V3.36142H127.452L127.312 3.78159L126.752 3.64153L126.472 3.36142L126.612 2.52108L126.332 2.38103L127.172 1.26058H128.573L128.993 2.52108L129.273 3.50148L129.413 3.22136V2.24097L129.273 1.8208H129.553L129.273 0.980469Z" fill="#0F5995"/>
<path d="M225.211 89.2158H225.911V99.2999L225.211 99.1598V89.2158Z" fill="#0F3B6C"/>
<path d="M180.113 92.437H181.094L181.934 92.7171L182.354 93.1373V94.5379H181.934L181.654 94.2577L180.953 94.1177H179.973L179.133 94.2577V93.9776L178.713 94.3978L178.573 95.0981L178.292 95.3782L178.152 94.3978V93.8376L178.853 92.8572L180.113 92.437Z" fill="#155890"/>
<path d="M172.127 88.9355H174.368L175.208 89.3557L176.049 90.3361L175.769 90.8963L175.208 90.7563L174.228 89.9159V89.6358H173.948V90.056H173.108L172.687 89.7759H171.847L171.987 90.1961L171.287 91.4566L171.147 92.7171L170.867 92.577L170.727 92.1568V90.1961L171.567 89.2157L172.127 88.9355Z" fill="#0F3C6E"/>
<path d="M210.222 92.7173L211.343 92.8573V93.1375L210.503 93.8377H209.662L209.942 93.6977L209.802 93.2775L209.382 93.1375L209.522 93.5576L208.962 94.1178L208.682 94.538H208.402L208.262 96.7789L208.542 97.8994V98.4596L207.982 98.1795V97.8994H207.561L207.281 96.6389L207.421 95.0982L207.982 93.6977L208.962 92.8573H209.942L210.222 92.7173Z" fill="#104174"/>
<path d="M131.374 2.94141L132.075 3.64169L132.635 4.76213L133.055 6.44281V9.38398L132.355 11.4848L132.075 10.9246L132.495 9.10387L132.215 8.40359L132.075 7.4232H131.935L131.655 4.62208L131.234 3.08146L131.374 2.94141Z" fill="#134B82"/>
<path d="M228.853 92.7173L229.413 92.8573L229.693 93.4176L230.113 92.9974L230.393 93.1375L229.833 93.6977H229.413L229.273 92.9974L228.713 93.1375V99.44H228.993V97.059L229.133 96.919V93.9778L229.413 94.2579L229.273 94.6781L229.833 94.538L229.693 94.9582L229.553 99.1599L229.413 99.58H228.152V92.8573L228.853 92.7173Z" fill="#1A70A8"/>
<path d="M194.817 92.5771L195.378 92.8573L195.238 93.1374H194.677L194.537 93.4175H194.817V94.1178H195.098L194.958 95.2382L194.817 95.5183V98.8797L194.677 99.1598H195.518L195.378 97.6192L195.518 95.0982L195.798 94.818V97.3391L195.658 99.5799H194.117V96.9189L194.257 92.9973L194.817 92.5771Z" fill="#1367A2"/>
<path d="M208.964 96.3584H213.306V96.4985H212.326V96.9186H212.046V97.6189L211.205 98.1791H209.945L209.244 97.759L208.824 96.9186L208.964 96.3584Z" fill="#FBFFFE"/>
<path d="M224.792 89.0757H226.052L226.192 91.3166V98.8796L226.052 99.5799H224.512V89.2157H224.652L224.792 90.3362V98.8796L224.932 99.2998L225.912 99.4398V89.2157H224.792V89.0757Z" fill="#197EB8"/>
<path d="M123.111 16.9468H123.531L123.671 18.2073L123.951 18.9076L123.531 19.888L123.251 19.6078V21.9888L123.671 23.1092L123.951 23.9496V25.07L123.531 24.93L122.831 23.2493L122.551 22.1288V19.3277L123.111 17.7871V16.9468Z" fill="#114678"/>
<path d="M171.289 96.7788H171.569L172.129 97.7592L172.83 98.0393L173.81 98.1794V98.4595L174.09 98.5995V98.8796L173.67 99.0197L173.39 99.4399H172.269L171.149 98.8796L170.309 97.8993V97.339L171.289 96.7788Z" fill="#134F87"/>
<path d="M230.531 92.7173H231.091L231.231 93.1375L230.251 93.8377L229.691 94.6781H229.271V96.919L229.131 97.059V98.8798L228.99 99.44H228.71L228.57 99.0198V93.1375L229.271 92.9974L229.411 93.6977L230.111 93.2775L230.531 92.7173Z" fill="#0F3868"/>
<path d="M185.014 92.7173H185.154V99.58L184.594 99.7201L183.613 99.58V92.8573L184.033 92.9974L183.893 93.1375V94.1178H184.033V95.3783H184.314V98.8797H184.594V99.44H185.014V92.7173Z" fill="#1775AF"/>
<path d="M207.141 95.9385H207.281L207.701 97.8993L208.262 98.7396V99.0197L208.822 99.2998L208.122 99.86L207.281 100L206.301 99.5799V99.1598V97.7592V97.199L206.441 96.9189L207.141 96.7788V95.9385Z" fill="#F3FFFF"/>
<path d="M237.533 92.5771L237.953 92.7172L237.253 92.9973L236.133 94.5379L235.853 95.7984V97.199L236.693 98.5996L237.673 99.2998V99.5799H239.494V99.72H237.253L236.133 98.8797L235.573 98.1794L235.152 96.6388L235.292 94.9581L235.853 93.6976L236.833 92.8573L237.533 92.5771Z" fill="#1466A0"/>
<path d="M212.044 97.0586L212.884 97.1986L213.584 97.6188L212.884 98.8793L211.624 99.7197H209.383V99.5796L210.783 99.2995L210.643 99.0194L211.344 98.7393V98.3191L211.063 98.4592L209.803 98.3191L209.523 98.039H211.204L211.904 97.6188L212.044 97.0586Z" fill="#166199"/>
<path d="M191.458 97.0586L192.158 97.1986L192.858 97.6188L192.578 98.3191L191.878 99.1594L191.178 99.4395V99.1594H190.898V98.8793L190.337 98.7393H190.057H189.357L189.217 99.0194L188.937 98.7393H189.217V98.3191L188.097 98.179L187.816 97.4788H188.097L188.377 97.1986L188.657 97.8989L189.497 98.179L190.477 98.039L191.178 97.7589L191.458 97.0586Z" fill="#145C95"/>
<path d="M147.619 89.0757H147.759V98.0393H150.981V98.1793H147.199L147.339 89.6359L147.619 89.0757Z" fill="#166AA4"/>
<path d="M132.075 18.4873L132.355 18.7674V21.9887L132.775 21.5685L132.915 18.4873H133.055V21.7086L132.355 23.9495L131.655 24.9299L131.234 24.7898L131.655 23.2492L131.795 21.5685L131.514 19.8879L131.935 20.0279L132.075 18.4873Z" fill="#11609C"/>
<path d="M98.8807 38.9355H102.802V39.0756L98.1804 39.6358L96.9199 39.7759L96.2197 40.3361L95.6594 41.1764L94.539 42.1568L93.5586 42.0168L94.3989 41.0364L95.9395 39.9159L97.6202 39.2157L98.8807 38.9355Z" fill="#F3FFFF"/>
<path d="M189.497 92.437L190.757 92.5771L191.877 93.1373L192.158 93.5575L191.597 93.8376L190.897 93.1373L190.477 92.9972V92.7171L189.497 92.8572H188.796V93.1373H190.197L190.617 93.2773V93.5575L191.457 94.2577V94.958L190.897 94.2577L190.617 94.1177L188.656 93.9776L188.236 93.8376L188.096 94.5379L187.676 94.3978V93.5575L188.236 92.8572L189.497 92.437Z" fill="#1767A0"/>
<path d="M173.391 91.4565H174.372L175.772 92.4369V92.9972L175.352 93.1372H174.372L174.231 93.5574L173.391 93.2773L172.551 92.577L172.971 92.1568L173.391 91.4565Z" fill="#F3FFFF"/>
<path d="M157.281 93.1372H157.981V93.4173H158.402V93.6974L157.841 93.9775L157.001 94.1176V99.4397H156.441L156.301 98.7394V93.5574L156.581 93.2773L156.721 93.5574H157.001L157.281 93.1372Z" fill="#134A81"/>
<path d="M207.144 92.437H207.984L208.544 92.7171L209.105 92.5771L209.385 92.8572L208.404 93.4174L207.704 94.5379L207.424 95.7984H207.284L207.144 94.6779L207.004 94.2577H206.584V94.818L206.304 94.6779L206.444 93.2773L206.023 92.7171L207.144 92.437Z" fill="#F3FFFE"/>
<path d="M132.213 17.0869L132.353 17.6471L132.633 18.6275L132.913 18.7676V21.5687L132.353 22.1289L132.213 21.8488V18.7676L131.933 20.0281L131.373 19.748L130.812 18.4875L130.953 18.0673L131.653 18.3474L131.793 17.9273L131.653 17.227L132.213 17.0869Z" fill="#144D85"/>
<path d="M237.536 92.9971H237.816L237.536 93.6974L236.835 94.3976L236.555 95.0979L236.415 96.7786L236.835 98.1791L237.536 98.8794V99.1595H238.656L238.236 99.4396L237.396 99.2996L236.555 98.5993L235.715 97.1988V95.378L236.275 94.1175L236.975 93.2772L237.536 92.9971Z" fill="#0F3868"/>
<path d="M231.093 65.686L231.653 66.3863L232.073 67.2267L232.213 67.9269V71.0082L231.933 72.9689L231.233 74.7897L230.812 75.0698L231.373 72.8289L231.653 72.4087L231.793 70.8681V69.4675L231.513 67.9269L231.093 66.9465V65.686Z" fill="#F3FFFF"/>
<path d="M232.631 93.2773H233.331L233.611 93.8376V99.0196L233.471 99.4398H233.191L233.051 99.0196L232.911 93.9776L232.211 93.6975V93.4174L232.631 93.2773Z" fill="#0F3868"/>
<path d="M162.324 92.8569H163.024V93.137H164.004L164.705 93.4172L165.405 95.0978L165.545 96.2183L164.424 96.0782L164.004 95.7981H164.424L164.284 95.2379L164.144 93.8373L163.864 93.5572L162.604 93.6973L162.184 92.997L162.324 92.8569Z" fill="#103E71"/>
<path d="M161.765 93.8374L163.025 93.9775L163.726 94.3976L163.866 95.0979L163.726 95.238H160.645L160.925 94.3976L161.765 93.8374Z" fill="#FBFFFE"/>
<path d="M20.7302 45.6582L20.8703 45.9383L20.3101 46.9187L19.7498 48.4593L19.0496 49.4397L18.4893 49.7198L17.7891 49.5798V49.1596L19.7498 46.7787L20.7302 45.6582Z" fill="#F3FFFF"/>
<path d="M199.158 93.8374H199.298L199.438 95.5181V98.0391L199.858 98.3192L199.718 98.8794H198.738L198.598 94.2576L199.158 93.8374Z" fill="#13477D"/>
<path d="M189.075 93.9775H190.615L191.316 94.6778L191.456 95.238H188.234L188.374 94.5378L189.075 93.9775Z" fill="#FAFFFE"/>
<path d="M210.085 93.9775H211.205L211.905 94.3977L212.046 95.238L211.485 95.3781L208.964 95.238L208.824 94.9579L209.384 94.2577L210.085 93.9775Z" fill="#FCFFFE"/>
<path d="M146.219 89.0757H147.619V89.2157L146.779 89.3558V98.8796L148.32 98.5995L150.981 98.7395V99.4398H149.86L150.14 99.1597L146.639 99.0197L146.499 89.6359L146.219 89.4959V89.0757Z" fill="#144E86"/>
<path d="M157.421 88.3755L158.682 88.5155L158.822 88.7957L158.682 89.4959L158.122 89.3559L157.001 89.636V89.0758L156.721 89.2158L156.861 90.6164L156.721 92.7172H156.441L156.301 91.5968V89.2158L156.721 88.5155L157.421 88.3755Z" fill="#104273"/>
<path d="M216.385 92.8569H217.785V93.137L218.486 93.2771V93.6973H216.385L215.685 93.9774V95.2379L215.545 95.518L215.124 95.3779L214.984 93.4172L215.405 92.997L216.385 92.8569Z" fill="#124A81"/>
<path d="M218.349 36.835L218.489 37.1151L218.349 38.2355L218.489 39.2159V42.2971L219.19 43.4176V43.6977L219.75 43.8378L221.01 44.8182L221.851 45.2383L221.431 45.3784L219.19 43.9778L218.629 43.2775L218.209 42.5773L217.929 41.4568L217.789 41.0366V39.356L218.209 36.975L218.349 36.835Z" fill="#F3FFFF"/>
<path d="M194.96 94.958L195.52 95.2381V99.1597H194.68V95.3782L194.96 94.958Z" fill="#13477E"/>
<path d="M232.495 82.6328L232.775 82.7729L232.215 83.3331L231.514 84.1734L230.394 84.5936H229.413L228.293 84.1734L228.853 83.8933L231.234 83.193L232.495 82.6328Z" fill="#F3FFFF"/>
<path d="M152.383 95.5181L152.523 95.9382L153.503 96.0783V98.8794L153.363 99.0195H152.663L152.383 98.1791V95.5181Z" fill="#134A81"/>
<path d="M201.402 95.2383H201.542V96.7789H201.823L201.963 97.6192L202.243 97.7593L202.383 98.1795L202.803 98.4596V98.7397L203.363 99.0198L203.643 99.2999H205.184L206.444 98.7397L206.304 99.2999L205.744 99.7201L205.044 99.8601H204.063L203.223 99.58L202.103 98.5996L201.542 97.4792L201.402 97.059V95.2383Z" fill="#1877B1"/>
<path d="M152.242 89.0757H153.642L153.782 89.2157V90.7564L153.642 90.8964H152.522L152.102 90.4762V89.3558L152.242 89.0757Z" fill="#0F3D6E"/>
<path d="M184.033 88.9355H184.873L185.293 89.4958V90.3361L184.733 90.8963H184.033L183.473 90.1961L183.613 89.2157L184.033 88.9355Z" fill="#124B7E"/>
<path d="M160.506 94.2578L160.926 94.3979L160.646 95.2382L163.867 95.0981V95.3783H161.766V95.6584L160.646 95.7984L160.506 96.0785L165.548 96.2186V96.3587L160.646 96.4987L160.365 96.9189V96.3587H160.085L159.945 95.0981H160.225L160.365 94.5379L160.506 94.2578Z" fill="#1670AB"/>
<path d="M237.956 92.437H239.216L239.636 92.5771V92.9972L240.057 93.1373H239.636L239.496 93.6975H237.956L237.256 94.2577L236.975 94.818H236.695L236.835 94.2577L237.676 93.2773L237.816 92.9972L237.115 93.2773L237.256 92.8572L237.956 92.7171V92.437Z" fill="#14568E"/>
<path d="M123.671 3.22119L124.091 3.36125V4.06153L123.671 5.04192V7.28282L123.811 7.9831L123.111 7.84304L123.391 6.16237L122.831 6.30242L122.551 6.58254L122.691 5.60214L122.971 4.34164L123.391 3.64136L123.671 3.22119Z" fill="#14588F"/>
<path d="M170.589 90.6162H170.729L170.869 92.8571L172.27 93.9776L172.97 94.2577L173.39 94.1176V94.3977L173.811 94.5378V94.8179H174.091L174.511 95.6582L174.651 96.2185L173.671 95.3781L171.99 94.3977L170.869 93.4173L170.589 92.9972L170.449 91.4565L170.589 90.6162Z" fill="#156DA7"/>
<path d="M210.223 92.437H211.204L212.464 92.9972L212.884 93.5575H212.604V93.9776L212.044 93.8376L211.904 93.1373L211.624 92.9972L211.484 93.6975L211.904 93.9776L211.764 94.3978L211.204 94.1177H210.083L209.383 94.2577L209.663 93.8376L210.783 93.6975L211.063 93.1373H211.344V92.8572H210.223L209.803 92.9972L209.383 92.7171L210.223 92.437Z" fill="#1874AE"/>
<path d="M224.512 89.2158H224.652L224.792 90.3363V98.8797L224.932 99.2999H226.052V99.58H224.512V89.2158Z" fill="#25A7DF"/>
<path d="M221.85 35.4341H225.631V35.5741L224.651 35.7142L221.429 35.8543L219.889 36.6946L219.189 36.9747L218.488 36.8346L219.189 36.1344L220.449 35.7142L221.85 35.4341Z" fill="#F3FFFF"/>
<path d="M216.667 92.437L217.787 92.5771L218.628 93.1373L218.768 93.8376L218.347 94.2577H217.507L217.227 93.8376H216.527L216.387 93.9776V94.818L216.667 95.2381L216.107 94.958L215.686 94.2577L216.387 93.5575H217.507L218.487 93.6975L218.347 93.2773L217.787 93.1373V92.8572L215.406 92.9972L215.966 92.5771L216.667 92.437Z" fill="#1978B2"/>
<path d="M187.955 92.9971L188.235 93.1371L187.815 93.5573V94.1175H187.535V94.3976H187.255V98.1791L186.835 98.0391L186.555 97.0587V95.238L186.975 94.1175L187.955 92.9971Z" fill="#115A95"/>
<path d="M172.127 88.9355H174.368L175.208 89.3557L176.049 90.3361L175.769 90.8963L175.068 90.1961L174.088 89.3557H172.127L171.147 90.1961L170.727 90.6162L170.867 90.056L171.567 89.2157L172.127 88.9355Z" fill="#135891"/>
<path d="M132.494 4.76172H132.634L133.055 6.44239V9.38357L132.354 11.4844L132.074 10.9242L132.494 9.10346L132.634 7.00262L132.494 6.7225L132.634 6.02222L132.354 5.74211L132.494 4.76172Z" fill="#1568A2"/>
<path d="M164.845 97.479L165.265 97.6191L164.845 98.5995L163.725 99.5798L162.744 99.86L161.064 99.7199L160.363 99.1597V98.8796L161.204 99.1597L161.484 99.2997H162.884L163.865 98.7395V98.3193L164.285 98.1793H164.705L164.845 97.479Z" fill="#146AA5"/>
<path d="M22.1277 43.8374L22.5479 43.9775L23.2481 45.378L23.1081 45.6581H20.8672L21.1473 45.0979L22.1277 43.8374Z" fill="#F3FFFF"/>
<path d="M125.629 1.8208H125.769L125.909 3.36142H126.329L126.469 3.08131L126.889 3.64153H127.31L127.45 3.36142H128.15V3.08131H128.43L128.71 3.64153L128.57 4.0617L127.73 4.34181H126.609L125.769 3.50147L125.629 3.08131V1.8208Z" fill="#15558C"/>
<path d="M173.949 89.6357H174.229V89.9159L174.789 90.196L175.49 91.0363L175.07 91.3164L174.509 91.1764L173.809 90.6161L173.109 90.4761L172.408 91.0363L172.128 91.3164L171.988 90.7562L172.689 90.0559L173.109 89.9159L173.949 90.0559V89.6357Z" fill="#12619C"/>
<path d="M160.785 92.9971H161.205L161.345 93.5573L160.644 93.8374L159.944 95.9382L160.084 98.0391H159.804L159.664 97.759V94.2576L160.644 93.1371L160.785 92.9971Z" fill="#124479"/>
<path d="M240.197 97.6191H240.337V99.0197L239.917 99.5799H239.217L238.797 99.1598L239.217 99.0197L238.657 98.7396L238.097 98.5995V98.3194L237.816 98.1794L238.657 98.3194L240.197 97.6191Z" fill="#103F70"/>
<path d="M183.613 92.8569L184.033 92.997L183.893 93.137V94.1174H184.033V96.4984L183.893 97.899L184.033 98.8793L184.454 99.2995V99.5796H183.613V92.8569Z" fill="#25A7DF"/>
<path d="M36.275 28.0112L36.5551 28.5715L36.6952 29.2717L35.8548 30.2521L35.1545 30.5322L35.0145 29.972L34.7344 29.832L36.275 28.0112Z" fill="#F3FFFF"/>
<path d="M230.532 92.7173H231.092L231.233 93.1375L230.252 93.8377L229.692 94.6781H229.272V96.919L228.992 96.7789L228.852 94.1178L229.272 93.4176L229.412 93.6977L230.112 93.2775L230.532 92.7173Z" fill="#12477C"/>
<path d="M237.533 92.5771L237.953 92.7172L237.253 92.9973L235.993 94.678L235.713 94.818L235.573 97.199L235.713 98.1794L235.432 97.7592L235.152 96.6388L235.292 94.9581L235.853 93.6976L236.833 92.8573L237.533 92.5771Z" fill="#1672AD"/>
<path d="M206.303 92.9971L206.583 93.4172L206.443 94.6777L205.743 94.2576L204.342 94.1175L203.362 94.6777L203.081 95.6581H202.941V94.6777L203.502 93.8374L204.482 93.5573V93.2772H205.322V93.5573L206.163 93.9775L206.303 92.9971Z" fill="#146BA5"/>
<path d="M214.847 98.0391L214.987 98.3192L215.687 98.0391L216.388 98.4592V98.7393H217.228L217.788 98.8794V99.1595L216.388 99.4396L215.827 99.2996L214.707 98.4592L214.847 98.0391Z" fill="#145087"/>
<path d="M170.59 98.3193L171.57 99.0196L172.271 99.2997H173.671L174.932 98.7395L175.492 99.0196L174.371 99.7199H171.85L170.73 99.0196L170.59 98.3193Z" fill="#11609B"/>
<path d="M146.218 92.1567H146.358L146.498 99.2996L150.98 99.4397V99.5797H146.218L146.078 99.1595L146.218 92.1567Z" fill="#25A7DF"/>
<path d="M162.184 31.7925L162.884 31.9325L162.744 32.6328L162.184 33.053L162.044 33.6132L162.464 33.7533L162.324 34.1734L161.764 34.3135L161.624 34.1734L161.484 32.7729L161.344 32.2126L162.044 31.9325L162.184 31.7925Z" fill="#F3FFFF"/>
<path d="M217.926 84.5938H226.049V84.7338L224.088 85.0139H222.828L221.427 84.8739L217.926 84.7338V84.5938Z" fill="#F3FFFF"/>
<path d="M206.162 97.6191L206.442 97.7592V98.5995L206.162 98.0393L206.022 98.3194H205.742L205.602 99.0197L205.322 99.1598H204.482L203.781 98.4595L203.921 98.0393H205.602L206.162 97.6191Z" fill="#1670AA"/>
<path d="M179.833 92.8569V93.2771V93.6973L179.133 94.2575V93.9774L178.713 94.3975L178.573 95.0978L178.292 95.3779L178.152 94.3975V93.8373L178.573 93.137L179.553 92.997L179.833 92.8569Z" fill="#0F3B6D"/>
<path d="M122.831 5.74219L122.971 6.16236H123.391L123.251 8.40325L122.831 8.96348L122.551 8.2632V6.58252L122.831 5.74219Z" fill="#0F3868"/>
<path d="M215.125 97.6191L215.826 97.7592L215.686 98.1794L214.985 98.3194V98.5995L215.966 99.2998V99.5799H217.086V99.72H215.546L214.845 99.2998L214.285 98.4595L214.565 97.8993L215.125 97.6191Z" fill="#1A7FB9"/>
<path d="M229.133 93.9775L229.413 94.2577L229.273 94.6778L229.833 94.5378L229.693 94.9579L229.553 99.1596L229.413 99.5798L229.133 99.4397V93.9775Z" fill="#187BB5"/>
<path d="M123.109 18.6274H123.249L123.389 19.6078L124.09 19.3277L123.67 21.2885L123.53 22.8291H123.389V22.1288L123.109 21.9888V18.6274Z" fill="#1368A3"/>
<path d="M147.897 98.5996H149.438L150.978 98.7397V99.4399H149.858L150.138 99.1598L146.637 99.0198L147.197 98.7397L147.897 98.5996Z" fill="#144A81"/>
<path d="M32.4922 64.0054L32.9124 64.5656L34.8731 67.9269L35.2933 68.6272L35.1533 68.9073L33.8927 67.0866L33.3325 66.2463L32.6322 64.9858L32.4922 64.0054Z" fill="#F3FFFF"/>
<path d="M187.254 98.1792L187.674 98.3193V98.7394L188.514 99.0195L189.075 99.2996H190.615L191.175 99.5798L191.035 99.7198H188.514L187.394 98.8795L187.254 98.1792Z" fill="#1774AE"/>
<path d="M146.499 99.0195H150.281L150.421 99.2996L149.861 99.4397H146.359L146.499 99.0195Z" fill="#0F5894"/>
<path d="M233.613 93.9775H233.893L234.033 94.6778V97.0588L233.893 98.1792L233.473 98.0392L233.613 93.9775Z" fill="#156EA9"/>
<path d="M210.223 92.7173L211.343 92.8573V93.1375L210.503 93.8377H209.662L209.942 93.6977L209.802 93.2775H209.102L208.262 93.5576L208.962 92.8573H209.942L210.223 92.7173Z" fill="#135F99"/>
<path d="M237.814 93.8374L238.654 93.9775V94.1175L237.674 94.2576L236.974 95.0979L236.834 95.5181V96.4985L236.974 97.3388L236.413 97.4789L236.273 95.9382L236.554 94.8178H236.974L237.254 94.1175L237.814 93.8374Z" fill="#1B7FB9"/>
<path d="M201.959 93.9775L202.239 94.1176V94.9579L202.379 95.6582L201.819 95.9383V96.6386H202.239L202.379 97.3389L201.819 97.1988V96.7787H201.539V94.8179L201.959 93.9775Z" fill="#156099"/>
<path d="M211.624 92.9971L212.184 93.2772L212.044 93.8374L212.604 93.9775V93.5573H212.884V94.5377L213.024 95.238L212.324 95.0979L212.184 94.3976H211.904L211.764 93.9775L211.344 93.5573L211.624 92.9971Z" fill="#0F3B6D"/>
<path d="M227.589 92.437L228.57 92.5771L228.85 92.8572H228.149V99.5799H228.009V93.2773L227.589 93.1373L227.449 92.5771L227.589 92.437Z" fill="#F3FFFF"/>
<path d="M171.707 89.7759L171.987 90.196L171.287 91.4566L171.147 92.7171L170.867 92.577L170.727 92.1568V90.6162L171.707 89.7759Z" fill="#0F3A6B"/>
<path d="M92.438 34.7339H92.9982L92.7181 35.4342L91.8778 36.6947L91.5977 36.2745V34.8739L92.438 34.7339Z" fill="#FDFFFE"/>
<path d="M123.108 16.9468H123.528L123.668 18.2073L123.949 18.9076L123.528 19.888L122.968 19.3277L122.828 18.7675L123.108 17.7871V16.9468Z" fill="#13487E"/>
<path d="M206.161 97.8989H206.301L206.441 98.7393L205.181 99.4395H203.64L202.8 98.7393L202.52 98.179H202.94V98.4591H203.22V98.7393L204.06 99.0194L204.34 99.1594L205.601 98.8793L205.741 98.3191H206.021L206.161 97.8989Z" fill="#103D6F"/>
<path d="M177.312 96.3584L177.453 96.9186H177.733L178.293 98.3192L179.693 99.4396H180.394L180.534 99.7197H179.413L178.573 99.1595L177.593 98.0391L177.312 97.3388V96.3584Z" fill="#1674AF"/>
<path d="M202.94 96.7788L203.22 97.339L203.781 98.0393V98.4595L204.341 98.7396L204.481 99.1598H204.061L203.22 98.7396V98.4595H202.94L202.66 97.8993L202.8 97.339L202.94 96.7788Z" fill="#134C84"/>
<path d="M178.433 93.2773V93.6975L178.153 94.2577L178.293 94.5378L178.013 95.5182L177.733 95.7984L177.593 96.9188L177.312 96.3586V94.958L178.013 93.6975L178.433 93.2773Z" fill="#10548E"/>
<path d="M161.906 92.437H163.026L164.427 93.1373L164.567 93.4174L163.026 93.1373V92.8572L161.766 92.9972L161.205 93.2773V92.9972L160.785 92.8572L161.906 92.437Z" fill="#197CB6"/>
<path d="M172.269 89.6357L172.97 89.7758L172.41 90.4761H172.129V91.4565L171.849 91.8766L171.289 91.7366L171.429 91.0363L171.849 90.0559V89.7758L172.269 89.6357Z" fill="#115089"/>
<path d="M188.237 97.1987L188.517 97.6189L188.937 98.0391L190.197 98.1791L190.898 97.759L191.178 97.899L190.618 98.4592L190.057 98.7393H189.357L189.217 99.0195L188.937 98.7393H189.217V98.3192L188.097 98.1791L187.816 97.4788H188.097L188.237 97.1987Z" fill="#1972AB"/>
<path d="M160.506 92.9971L160.786 93.1371L159.806 94.2576L159.666 96.6385L159.386 96.2184L159.246 97.1988H159.105V95.238L159.526 94.1175L160.506 92.9971Z" fill="#1978B2"/>
<path d="M189.497 92.7173H190.478V92.9974L191.178 93.1375L191.598 93.5576V94.1178L190.898 93.9778V93.6977L190.478 93.5576L190.618 93.2775H189.217L188.797 93.1375V92.8573L189.497 92.7173Z" fill="#103B6D"/>
<path d="M212.886 93.5576L213.166 93.6977L213.726 95.3783V96.2187L213.586 96.3587H212.746V96.2187H213.446L213.306 95.7985L212.886 95.5184V95.0982L212.746 94.1178L212.886 93.5576Z" fill="#1774AE"/>
<path d="M159.944 92.0166L160.224 92.1567L160.084 92.4368L161.345 92.5768L160.784 92.997L160.364 93.137V92.7169L159.244 93.137H158.824V94.1174H158.684V92.7169L159.804 92.1567L159.944 92.0166Z" fill="#F4FFFE"/>
<path d="M214.984 95.6582L215.685 95.7983L217.225 96.4985L217.926 97.3389L217.785 98.1792H217.645L217.505 97.1988L216.665 96.9187L215.124 95.9383L214.984 95.6582Z" fill="#146BA6"/>
<path d="M158.683 88.7954H158.823L158.683 90.0559L157.843 89.9159L157.282 90.0559L157.142 90.4761V89.9159H156.722L156.582 89.2156L157.002 89.0755L157.142 89.4957L158.403 89.2156L158.543 89.3556L158.683 88.7954Z" fill="#176FA9"/>
<path d="M156.441 89.2158L156.721 89.4959L156.861 90.6164L156.721 92.7172H156.441L156.301 91.5968V89.3559L156.441 89.2158Z" fill="#0F3868"/>
<path d="M19.3286 33.8936L19.4687 34.1737L20.0289 34.3137L19.4687 35.1541L18.7684 35.9944L18.4883 35.8543V35.1541L19.3286 33.8936Z" fill="#F3FFFE"/>
<path d="M209.524 95.3779H210.784L210.504 95.518V95.7981H210.224V96.0782H211.345V96.2183L209.244 96.3583L208.684 95.7981L208.824 95.658H209.524V95.3779Z" fill="#114378"/>
<path d="M188.236 92.9971L189.637 93.5573L189.216 93.6974V93.9775L188.236 93.8374L188.096 94.5377L187.676 94.3976V93.5573L188.236 92.9971Z" fill="#0F396A"/>
<path d="M162.324 92.8569H163.024V93.137H164.004L164.705 93.4172L164.845 93.9774L164.144 93.8373L163.864 93.5572L162.604 93.6973L162.184 92.997L162.324 92.8569Z" fill="#13548D"/>
<path d="M164.007 97.479H164.847L164.987 97.8992L164.847 98.3193L164.287 98.4594H163.867L163.306 98.8796L162.746 99.0196L162.886 98.5995L163.446 98.4594L163.586 97.8992L164.007 97.479Z" fill="#0F4D85"/>
<path d="M187.253 94.3979H187.533V98.0394H187.253L187.113 97.7593V94.8181L187.253 94.3979Z" fill="#0F3868"/>
<path d="M212.044 97.0586L212.885 97.1986L212.325 97.3387L212.185 98.3191L211.064 98.4592L209.804 98.3191L209.523 98.039H211.204L211.904 97.6188L212.044 97.0586Z" fill="#1C88C1"/>
<path d="M164.005 94.8179L164.145 95.3781L163.865 95.6582L161.624 95.7983V96.0784H160.504L160.644 95.6582H161.764V95.3781H163.865L164.005 94.8179Z" fill="#0F5691"/>
<path d="M187.675 95.2383L187.815 95.6584V96.2187L190.056 96.0786L192.857 96.2187V96.3587H187.955L188.095 96.919H187.815L187.535 96.3587L187.395 95.3783L187.675 95.2383Z" fill="#11609C"/>
<path d="M205.041 92.7173L206.302 92.9974V94.1178L205.181 93.6977L205.321 93.2775L204.761 93.1375L204.621 92.8573L205.041 92.7173Z" fill="#12487E"/>
<path d="M122.41 6.58252H122.55L122.69 8.96347L122.97 9.38364H123.25L123.11 11.2044L122.83 10.7842L122.41 9.38364V6.58252Z" fill="#1774AF"/>
<path d="M132.915 8.12305H133.055V9.38355L132.354 11.4844L132.074 10.9242L132.634 8.82333L132.915 8.12305Z" fill="#1776B0"/>
<path d="M218.066 96.6387H218.346L218.766 97.479L218.626 98.0392L218.346 97.8992L218.486 98.8796H217.926V96.7787L218.066 96.6387Z" fill="#12457B"/>
<path d="M218.628 96.3584L219.048 96.7786L219.188 97.0587V98.3192L218.768 99.0195L218.488 98.5993L218.348 97.899H218.628V96.3584Z" fill="#156EA9"/>
<path d="M185.152 94.3979H185.292L185.432 96.7789L185.713 97.3391V98.3195L185.152 98.4596V94.3979Z" fill="#F4FFFE"/>
<path d="M131.374 2.94141L132.075 3.64169L132.495 4.34197V4.62208L131.935 4.76213V5.46241H131.795L131.234 3.08146L131.374 2.94141Z" fill="#1876B0"/>
<path d="M156.581 94.8179H156.721V98.8795L156.301 98.7394L156.441 95.098L156.581 94.8179Z" fill="#0F3868"/>
<path d="M152.242 98.1792H152.522L152.662 99.0195L153.643 98.7394V99.4397L153.363 99.5798H152.242V98.1792Z" fill="#146AA5"/>
<path d="M163.865 97.0586L164.566 97.1986L164.706 97.4788L163.865 97.7589L163.305 98.4592L162.185 98.7393L161.484 98.179L163.025 98.039L163.725 97.4788L163.865 97.0586Z" fill="#1D8AC3"/>
<path d="M191.456 97.0586L192.156 97.1986L192.856 97.6188L192.576 98.3191L192.296 98.4592L192.436 97.7589L191.736 97.8989L191.596 98.179L191.316 98.039L191.456 97.7589H191.176L191.456 97.0586Z" fill="#1674AE"/>
<path d="M192.156 93.5576L192.716 94.2579L192.996 95.3783V96.2187L192.856 95.6585H192.436L192.016 94.398L192.156 93.5576Z" fill="#166EA8"/>
<path d="M44.5383 4.90186L44.8184 5.04191L42.9976 6.72258L41.457 8.40326V7.98309L42.9976 6.16236L44.5383 4.90186Z" fill="#F3FFFF"/>
<path d="M160.084 94.2578L160.224 94.5379L159.944 96.2186L160.084 98.0393H159.804L159.664 97.7592V94.818L160.084 94.2578Z" fill="#0F3868"/>
<path d="M172.127 88.9355H174.368L175.208 89.3557L174.928 89.4958L174.228 89.2157H172.547L171.707 89.6358L170.867 90.6162L170.727 90.1961L171.567 89.2157L172.127 88.9355Z" fill="#25A7DF"/>
<path d="M171.569 97.0586L172.129 97.7589L173.39 98.179L173.25 98.4592L171.989 98.3191L171.849 98.5992L171.429 98.3191L171.289 97.4788H171.569V97.0586Z" fill="#1366A1"/>
<path d="M215.685 93.1372H215.965L215.825 93.8375L215.685 93.9775V95.238L215.545 95.5182L215.125 95.3781V93.5574L215.685 93.1372Z" fill="#0F3868"/>
<path d="M184.034 92.8569H184.314V95.3779H184.034L183.894 94.5376H183.754V93.137L184.034 92.8569Z" fill="#10538D"/>
<path d="M217.227 92.8569H217.787V93.137L218.488 93.2771V93.6973L216.387 93.5572L217.087 92.997L217.227 92.8569Z" fill="#104378"/>
<path d="M235.853 93.6973L235.993 94.1174L235.713 94.8177L235.573 97.1987L235.713 98.1791L235.432 97.7589L235.152 96.6384L235.292 94.9578L235.853 93.6973Z" fill="#25A7DF"/>
<path d="M211.063 93.1372H211.484V93.6974L211.904 93.9775L211.764 94.3977L211.204 94.1176H210.083L209.383 94.2577L209.663 93.8375L210.783 93.6974L211.063 93.1372Z" fill="#1E8DC6"/>
<path d="M156.723 89.916H157.143V92.7171L156.723 92.437V89.916Z" fill="#13619B"/>
<path d="M135.155 31.7925H138.516V31.9325H135.715L135.855 32.4928H134.734V31.9325L135.155 31.7925Z" fill="#F5FFFE"/>
<path d="M211.906 94.3979H212.186L212.326 94.6781V95.6585H211.346L210.786 95.5184L208.965 95.3783V95.2383H212.046L211.906 94.3979Z" fill="#1B85BE"/>
<path d="M182.214 93.1372H182.354V94.5378H181.933L181.653 94.2577L179.973 93.9775L180.113 93.6974H181.653L182.073 93.9775L182.214 93.1372Z" fill="#156AA4"/>
<path d="M131.793 6.72266L132.214 7.28288V8.12322L131.793 8.54338L131.233 9.66383H130.953L131.653 7.56299L131.793 6.72266Z" fill="#156EA9"/>
<path d="M209.383 93.1372L209.944 93.2773V93.6974H209.663L209.383 94.3977L208.963 95.098L208.543 95.238L208.683 94.3977L209.383 93.4173V93.1372Z" fill="#145B93"/>
<path d="M153.642 89.2158H153.782V90.7564L153.642 90.8965H152.522L152.102 90.4763V89.3559H152.242V90.3363L153.642 90.4763V89.2158Z" fill="#1B83BD"/>
<path d="M122.83 17.3672L122.97 17.7874L123.25 17.9274L122.69 19.328L122.55 21.7089H122.41V18.7677L122.83 17.3672Z" fill="#1B86C0"/>
<path d="M191.875 97.6191L192.436 97.7592L192.296 98.4595L191.735 98.8796L191.035 98.7396L191.175 98.0393L191.595 98.1794L191.875 97.6191Z" fill="#12457A"/>
<path d="M155.742 94.1177H155.882V98.8796L156.302 99.0196L156.022 99.4398L156.442 99.5799H155.742V94.1177Z" fill="#25A7DF"/>
<path d="M232.631 93.2773H233.331L233.191 97.6191H233.051L232.911 93.9776L232.211 93.6975V93.4174L232.631 93.2773Z" fill="#144A81"/>
<path d="M132.912 18.4873H133.052V21.7086L132.632 23.2492L132.352 22.9691V22.1288L132.772 21.5685L132.912 18.4873Z" fill="#1C87C1"/>
<path d="M178.85 93.9775L179.691 94.1176L179.131 94.9579L178.85 96.4985L178.57 96.3585V95.3781L178.71 94.8179L178.57 94.2577L178.85 93.9775Z" fill="#186FA7"/>
<path d="M189.496 92.437L190.757 92.5771L191.877 93.1373L192.157 93.5575L191.597 93.8376L190.897 93.1373L190.476 92.9972V92.7171L189.776 92.8572V92.5771L189.496 92.437Z" fill="#1875AF"/>
<path d="M207.561 94.5376L207.841 95.0978L207.701 97.8989L207.421 97.4788L207.281 95.7981L207.561 94.5376Z" fill="#1C84BE"/>
<path d="M229.133 96.9189H229.273V99.44L228.573 99.58L228.293 99.44L228.433 98.8797L228.713 99.0198V99.44H228.993V97.059L229.133 96.9189Z" fill="#124D85"/>
<path d="M187.394 95.6582H187.534L187.814 96.9187L188.234 97.0588L188.094 97.619L187.814 97.4789L187.954 97.8991H187.674L187.534 98.3193L187.254 98.0392H187.534L187.394 96.9187V95.6582Z" fill="#144C83"/>
<path d="M131.795 22.4092H131.935L132.075 23.8097V24.37L131.655 24.9302L131.234 24.7901L131.655 23.2495L131.795 22.4092Z" fill="#1879B3"/>
<path d="M188.935 92.5771H189.775L189.635 92.8573H188.795V93.1374H190.195L190.335 93.5575H189.215L188.234 92.9973L188.514 92.7172L188.935 92.5771Z" fill="#125993"/>
<path d="M129.272 0.980469L129.692 1.40064L129.833 1.68075V3.22137L129.272 4.0617L128.992 3.78159L129.412 3.64153V2.24097L129.272 1.8208H129.552L129.272 0.980469Z" fill="#1570AA"/>
<path d="M199.859 98.1792H199.999L199.859 99.4397L198.738 99.5798V98.8795H199.719L199.859 98.1792Z" fill="#0F5793"/>
<path d="M186.835 94.3979L186.975 94.9582V97.3391L186.695 97.7593L186.555 97.059V95.2383L186.835 94.3979Z" fill="#25A7DF"/>
<path d="M164.847 93.9775L165.127 94.2577L165.547 95.6582L165.407 96.0784V95.7983L164.847 95.5182L164.566 94.2577H164.847V93.9775Z" fill="#1A7FB9"/>
<path d="M157.145 90.4761L157.425 91.0363L158.125 90.8962L158.265 91.3164L157.425 91.4565V92.2968L157.705 92.857L157.145 92.717V90.4761Z" fill="#F3FFFE"/>
<path d="M187.816 95.3779L187.956 95.658H188.236V95.3779H189.216V95.658L188.796 95.9382V96.2183H187.816L187.676 95.518L187.816 95.3779Z" fill="#134A81"/>
<path d="M163.586 94.3979L163.866 94.6781L163.726 95.2383H160.645L160.785 94.9582H163.025L163.446 94.8181L163.586 94.3979Z" fill="#F3FFFF"/>
<path d="M235.714 94.6777H235.994L235.854 95.7982V97.3388L235.434 97.1987L235.574 94.8178L235.714 94.6777Z" fill="#13639D"/>
<path d="M147.758 97.479L149.298 97.7591L150.979 97.8992V98.0392H147.758V97.479Z" fill="#F3FFFF"/>
<path d="M181.234 92.8569H182.215V94.1174L181.234 93.5572L181.655 93.4172V93.137L181.234 92.997V92.8569Z" fill="#0F3C6D"/>
<path d="M92.2957 43.1372H92.4358V43.8375L92.2957 43.9775L92.1557 47.619H92.0156V43.4173L92.2957 43.1372Z" fill="#F3FFFF"/>
<path d="M123.669 3.22119L124.089 3.36125V4.06153L123.669 4.4817H123.249L122.969 4.76181L123.109 4.20158L123.669 3.22119Z" fill="#18679E"/>
<path d="M209.805 98.3193H211.345V98.7395L211.625 98.8796L210.505 99.0196L209.945 98.7395L209.805 98.3193Z" fill="#0F5692"/>
<path d="M187.675 97.8989L189.216 98.3191V98.5992H188.375L187.675 98.7393L187.535 98.179L187.675 97.8989Z" fill="#0F3869"/>
<path d="M212.466 95.6582H213.307L213.447 96.2184L212.466 96.3585L211.906 96.0784L212.046 95.7983L212.466 95.6582Z" fill="#0F3A6A"/>
<path d="M162.604 93.6973H163.444L164.144 94.3975L164.004 95.0978L163.724 94.6777L163.304 94.2575L162.184 93.9774L162.604 93.6973Z" fill="#1776B0"/>
<path d="M152.383 92.8569L153.503 93.137V93.6973H152.523L152.383 93.5572V92.8569Z" fill="#0F396A"/>
<path d="M190.618 98.8794H190.898V99.1595H191.178V99.4396H189.078L188.938 99.1595L190.618 98.8794Z" fill="#114074"/>
<path d="M182.075 97.479L182.355 97.6191V99.4398L181.655 99.7199L181.234 99.5798L181.374 99.2997L181.795 99.0196L182.215 98.8796V97.7591L181.935 97.6191L182.075 97.479Z" fill="#1B83BD"/>
<path d="M207.703 97.8989H207.983L208.684 98.7393L209.384 99.2995V99.5796L208.684 99.2995L207.983 98.5992L207.703 97.8989Z" fill="#1878B3"/>
<path d="M132.074 22.1289H132.354L132.494 23.6695L132.354 23.9496L131.934 23.8096V22.6891L132.074 22.1289Z" fill="#155289"/>
<path d="M164.848 97.479L165.268 97.6191L164.848 98.5995L164.287 99.0196L163.867 98.7395V98.3193L164.287 98.1793H164.708L164.848 97.479Z" fill="#17659E"/>
<path d="M191.456 94.6777L192.157 95.378L192.297 95.6581H190.896L189.355 95.5181V95.378L191.456 95.238V94.6777Z" fill="#124D85"/>
<path d="M163.306 32.4932H163.586L163.446 33.0534L163.867 33.1934L162.886 33.7537L162.746 32.9133L163.306 32.4932Z" fill="#F3FFFF"/>
<path d="M132.351 6.58252L132.631 6.72258L132.771 7.70297L132.631 8.68336L132.351 8.82342L132.211 7.84302L132.351 6.58252Z" fill="#0F3868"/>
<path d="M201.679 95.2383L201.959 95.3783L201.819 96.6388H202.239L202.379 97.3391L201.819 97.1991V96.7789H201.539V95.3783L201.679 95.2383Z" fill="#10528D"/>
<path d="M163.164 93.4175H163.864L164.285 93.9777L164.425 95.3783H164.144L164.004 94.3979L163.724 93.8376L163.164 93.5575V93.4175Z" fill="#114277"/>
<path d="M187.957 92.9971L188.237 93.1371L187.817 93.5573V94.1175H187.537V94.3976H187.257V94.8178H186.977V94.1175L187.957 92.9971Z" fill="#145D95"/>
<path d="M211.624 92.9971L212.184 93.2772L212.044 93.8374H212.324V94.3976H211.904L211.764 93.9775L211.344 93.5573L211.624 92.9971Z" fill="#114377"/>
<path d="M172.829 89.916L173.389 90.0561V90.3362L172.549 90.8964L172.128 91.3166L171.988 90.7564L172.689 90.0561L172.829 89.916Z" fill="#156DA8"/>
<path d="M127.17 0.280273H127.59L127.45 0.700442H126.75L126.61 1.12061L125.77 1.82089L125.91 1.12061L126.75 0.420329L127.17 0.280273Z" fill="#166EA8"/>
<path d="M206.304 98.7393L206.444 99.1594L206.024 99.5796H204.203V99.4395L205.464 99.1594L206.304 98.7393Z" fill="#156099"/>
<path d="M216.108 98.8794H217.788V99.1595L216.388 99.4396L215.828 99.2996L215.688 99.0195L216.108 98.8794Z" fill="#0F3868"/>
<path d="M170.59 98.3193L171.71 99.1597L172.691 99.5798V99.7199H171.85L170.73 99.0196L170.59 98.3193Z" fill="#25A7DF"/>
<path d="M237.955 93.5576L239.636 93.6977L239.496 94.2579L238.095 93.9778L237.535 93.8377L237.955 93.5576Z" fill="#1366A1"/>
<path d="M190.898 97.7593L191.178 97.8993L190.618 98.4596L190.058 98.7397H189.358L189.218 99.0198L188.938 98.7397H189.218V98.4596H190.198V98.1794L190.898 97.7593Z" fill="#146AA5"/>
<path d="M164.704 94.958L164.984 95.5182L165.545 96.0785L164.984 96.2185L164.004 95.9384L164.564 95.3782L164.704 94.958Z" fill="#104174"/>
<path d="M204.062 93.8374H205.182V93.9775L203.922 94.2576L203.222 94.9579L203.081 95.6581H202.941V94.6777L203.642 93.9775L204.062 93.8374Z" fill="#25A7DF"/>
<path d="M202.522 93.9775H202.942L202.522 95.3781L202.102 94.9579L202.242 94.1176L202.522 93.9775Z" fill="#0F3868"/>
<path d="M202.94 94.3979L203.08 94.6781L202.94 96.6388L202.52 96.2187V95.5184L202.66 95.3783V94.538L202.94 94.3979Z" fill="#1367A2"/>
<path d="M123.531 23.1094H123.671L123.951 23.9497V25.0702L123.531 24.9301L123.391 23.8097L123.531 23.1094Z" fill="#155E93"/>
<path d="M233.615 98.1792H233.895V99.5798H233.055V99.0195L233.195 99.4397H233.475L233.615 98.1792Z" fill="#14629B"/>
<path d="M239.217 98.0391L239.497 98.1791L239.217 99.0195L238.657 98.7393L238.097 98.5993V98.3192L237.816 98.1791L238.657 98.3192L239.217 98.0391Z" fill="#1673AD"/>
<path d="M216.246 96.4985L217.226 96.6386L217.927 97.3389L217.787 98.1792H217.647L217.507 97.1988L216.666 96.9187L216.246 96.4985Z" fill="#25A7DF"/>
<path d="M159.382 96.0786L159.662 96.6388V97.6192L159.382 98.0394L159.242 97.7593V96.2187L159.382 96.0786Z" fill="#11619D"/>
<path d="M178.433 93.2773V93.6975L178.153 93.9776L178.013 94.6779H177.733L177.453 95.9384H177.312V94.958L178.013 93.6975L178.433 93.2773Z" fill="#197CB5"/>
<path d="M194.818 92.5771L195.378 92.8573L195.238 93.1374H194.678L194.538 93.4175L194.398 94.678H194.258V92.9973L194.818 92.5771Z" fill="#1B84BE"/>
<path d="M204.622 92.437L205.742 92.5771L206.302 92.9972L204.341 92.8572L203.781 92.5771L204.622 92.437Z" fill="#1B84BD"/>
<path d="M216.388 93.5576H217.228V93.6977L216.388 93.9778V94.8181L216.668 95.2383L216.108 94.9582L215.688 94.2579L216.388 93.5576Z" fill="#25A7DF"/>
<path d="M238.096 93.1372L238.516 93.2773L237.256 94.2577L236.975 94.8179H236.695L236.835 94.2577L237.816 93.2773L238.096 93.1372Z" fill="#124F88"/>
<path d="M210.223 92.437H211.204V92.8572H210.223L209.803 92.9972L209.383 92.7171L210.223 92.437Z" fill="#1B85BE"/>
<path d="M217.505 99.1597L217.646 99.4398L218.066 99.5798L217.085 99.7199L215.965 99.5798L216.385 99.2997L217.505 99.1597Z" fill="#1366A1"/>
<path d="M240.197 97.6191H240.337V99.0197L240.057 99.2998L239.777 98.3194L239.637 97.8993L240.197 97.6191Z" fill="#1A7DB6"/>
<path d="M211.906 94.6777L212.046 95.238L211.486 95.378L208.965 95.238V95.0979L211.626 94.9578L211.906 94.6777Z" fill="#F3FFFF"/>
<path d="M171.988 91.4565L172.268 91.8767L172.689 92.577L173.389 93.2773L172.689 93.1372L172.128 92.577L171.988 91.4565Z" fill="#1777B2"/>
<path d="M132.351 17.2271L132.631 17.3671L132.911 18.2074V18.7677L132.491 18.6276L132.211 17.3671L132.351 17.2271Z" fill="#1265A0"/>
<path d="M190.335 99.2998L191.176 99.4399L191.036 99.72H189.215V99.4399L190.335 99.2998Z" fill="#1368A3"/>
<path d="M174.651 96.4985H174.791V97.759L174.651 98.0392L173.391 98.1792L173.951 97.8991L174.371 97.4789L174.651 96.4985Z" fill="#1E91CA"/>
<path d="M174.512 93.8374L175.492 94.3976L176.052 95.0979L175.492 95.238L175.352 94.5377L174.652 94.2576L174.512 93.8374Z" fill="#1570AB"/>
<path d="M210.506 92.8569H211.346V93.137L210.786 93.5572L210.086 93.2771V92.997L210.506 92.8569Z" fill="#103F71"/>
<path d="M212.605 83.7534L214.146 83.8935L214.986 84.0335V84.3136L214.426 84.4537L212.605 83.8935V83.7534Z" fill="#F3FFFF"/>
<path d="M91.5977 35.5742H92.2979L92.438 35.8543L91.8778 36.6947L91.5977 36.2745V35.5742Z" fill="#F4FFFE"/>
<path d="M123.109 20.7285H123.53V22.8294H123.389V22.1291L123.109 21.989V20.7285Z" fill="#10538E"/>
<path d="M202.94 96.7788L203.5 97.8993L203.22 98.0393L203.08 98.3194L202.66 97.8993L202.8 97.339L202.94 96.7788Z" fill="#156AA4"/>
<path d="M161.905 95.6582H163.166L163.306 95.9383L161.905 96.0784H161.625V95.7983L161.905 95.6582Z" fill="#0F3868"/>
<path d="M188.374 94.5376L188.795 94.9578H190.475L190.755 95.2379H188.234L188.374 94.5376Z" fill="#F3FFFF"/>
<path d="M183.473 89.6357L183.893 89.9159V90.196L184.593 90.4761L184.733 90.8962H184.033L183.473 90.196V89.6357Z" fill="#1567A1"/>
<path d="M179.832 98.1792H181.513L181.233 98.4593L179.972 98.7394L179.832 98.1792Z" fill="#1B83BD"/>
<path d="M218.206 97.6191H218.346L218.486 98.8796H217.926V98.0393L218.206 97.6191Z" fill="#0F3868"/>
<path d="M218.629 96.3584L219.049 96.7786L219.189 97.759L218.769 97.899L218.629 96.6385V96.3584Z" fill="#1778B2"/>
<path d="M230.533 92.7173H231.093L231.233 93.1375L230.253 93.8377L229.973 93.6977L230.393 93.2775L230.533 92.7173Z" fill="#155188"/>
<path d="M161.764 95.5181L162.045 95.6581L161.624 95.7982V96.0783H160.504L160.644 95.6581L161.764 95.5181Z" fill="#144A81"/>
</svg>
