<svg width="84" height="120" viewBox="0 0 84 120" fill="none" xmlns="http://www.w3.org/2000/svg">
<path d="M15.1351 48.3784H28.3784L31.3514 51.6217L33.5135 54.3244L36.4865 57.8379L41.3513 63.7838L42.1622 63.5136L44.3243 60.8109L50.2703 53.7838L54.5946 48.3784H68.1081L71.0811 54.3244L74.8649 60.8109L78.9189 68.1081L81.0811 72.4325L82.4324 76.4865L83.2432 81.0811V84.0541L82.4324 89.1892L80.5405 94.8649L78.3784 99.4595L77.2973 99.7298L71.8919 97.2973L66.7568 95.1352L66.4865 94.5946L68.6486 90.8109L70 86.2163V80L68.9189 75.946L66.7568 71.3514L63.5135 66.4865L60.8108 62.973L60.5405 62.7027L58.1081 65.6757L55.1351 68.919L52.7027 71.8919L49.7297 75.1352L47.2973 78.1082L44.0541 81.6217L41.8919 84.3244L40.8108 83.7838L38.3784 80.8109L35.4054 77.5676L32.973 74.5946L29.7297 71.0811L27.2973 68.1081L24.3243 64.8649L22.4324 62.7027L20.2703 65.6757L17.8378 69.1892L15.1351 73.7838L13.7838 77.2973L13.2432 79.7298L12.973 84.0541L13.5135 87.5676L14.5946 90.8109L16.7568 94.8649L12.7027 96.7568L6.48649 99.4595L4.86486 99.7298L2.43243 94.3244L0.810811 89.1892L0 84.5946V80.8109L0.810811 76.2163L2.7027 71.0811L5.40541 65.946L11.8919 54.5946L15.1351 48.3784Z" fill="#3D4197"/>
<path d="M22.7043 65.6758L24.3259 67.0271L26.7583 70.0001L29.461 72.9731L31.3529 75.1352L34.5962 78.919L37.0286 81.6217L40.0016 85.1352L41.0827 86.4866L42.1637 86.2163L45.6773 82.4325L47.5691 80.2704L50.5421 77.0271L52.434 74.865L55.9475 70.8109L58.6502 67.8379L60.2719 65.9461L61.0827 66.2163L64.3259 70.8109L66.4881 75.1352L67.8394 79.1893L68.1097 81.0812V84.0542L67.2989 88.1082L65.6773 92.1623L63.7854 95.4055L61.3529 98.1082L58.9205 100.541L55.407 102.703L51.3529 104.595L47.2989 105.676L42.1637 106.216L37.2989 105.946L32.434 104.865L27.8394 102.973L24.8664 101.081L22.1637 98.6488L19.461 95.9461L17.0286 91.6217L15.407 87.2974L15.1367 85.9461V80.0001L16.2178 76.2163L18.38 71.6217L22.1637 66.2163L22.7043 65.6758Z" fill="#8CD7F6"/>
<path d="M41.3531 0H41.8937L45.4072 6.48649L49.7315 14.3243L53.5153 21.3514L53.7856 22.4324H43.7856L41.8937 18.3784V17.8378L41.0829 18.6486L37.8396 24.5946L37.2991 25.4054L39.7315 25.1351L41.3531 21.0811H41.8937L43.7856 25.1351L55.6775 25.4054L58.9207 31.0811L62.4342 37.5676L65.6775 43.5135L66.7586 45.4054V45.9459H16.4883L17.0288 44.3243L20.5423 37.8378L23.5153 32.7027H35.6775L33.5153 37.027L50.5423 37.2973L47.0288 30.8108V30.2703L46.4883 30.5405L48.6504 35.1351V35.4054H35.6775L37.2991 31.0811L37.5694 30.2703H24.8667L26.4883 27.027L32.9748 15.1351L37.2991 7.2973L41.0829 0.27027L41.3531 0Z" fill="#3D4197"/>
<path d="M17.8391 97.2974H18.9202L20.8121 99.4595L23.2445 101.622L27.0283 103.784L30.5418 105.405L34.3256 106.487L37.8391 107.027H45.6769L51.0823 105.946L55.4067 104.324L58.9202 102.432L61.3526 100.541L63.785 98.3784L64.5959 97.2974L65.9472 97.5676L72.704 101.351L75.1364 102.973L74.8661 104.324L72.4337 107.027L71.3526 108.378L69.1905 110.27L66.4878 112.432L62.9742 114.595L58.6499 116.757L54.0553 118.378L49.4607 119.46L45.1364 120H38.1094L32.4337 119.189L26.758 117.568L22.4337 115.676L18.1094 113.243L14.8661 110.811L12.1634 108.378L10.0013 106.216L8.10938 103.784L8.37965 102.703L15.1364 98.919L17.8391 97.2974Z" fill="#A4D9E6"/>
<path d="M29.1875 47.5674H54.0524L52.9713 49.189L49.9983 52.4322L47.5659 55.4052L44.8632 58.3782L42.4307 61.3512L41.3497 62.162L38.3767 58.9187L36.2145 56.216L32.9713 52.4322L30.5389 49.4593L29.1875 47.8377V47.5674Z" fill="#8CD7F6"/>
<path d="M37.5677 30.2705H46.2163L48.3785 34.5948L48.6488 35.4056H35.6758L37.2974 31.0813L37.5677 30.2705Z" fill="#8CD7F6"/>
<path d="M64.5959 97.2974L65.9472 97.5676L72.704 101.351L75.1364 102.973L74.8661 104.324L72.4337 107.027L71.3526 108.378L69.1905 110.27L66.4878 112.432L62.9742 114.595L58.6499 116.757L54.0553 118.378L49.4607 119.46L45.1364 120H38.1094L32.4337 119.189L26.758 117.568L22.4337 115.676L18.1094 113.243L14.8661 110.811L12.1634 108.378L10.0013 106.216L8.10938 103.784V102.973H8.64992L9.731 104.865L13.5148 108.919L17.2986 111.892L20.8121 114.054L25.1364 116.216L30.8121 118.108L36.4878 119.189L42.704 119.46L48.6499 118.919L53.785 117.838L58.9202 115.946L63.2445 113.784L66.4878 111.622L69.1905 109.46L73.5148 105.135L74.5959 103.243L68.1094 99.4595L64.8661 97.8379L62.4337 100.541L59.1905 102.973L54.5959 105.405L52.9742 106.216H52.1634V105.676L56.4878 103.784L59.731 101.892L63.2445 98.919L64.5959 97.2974Z" fill="#48559D"/>
<path d="M25.4043 107.297L26.7557 107.568L28.3773 108.649L30.2692 109.189L30.5395 112.703L31.8908 109.73L33.2422 110L32.9719 112.703L32.1611 116.216L31.08 115.946L31.6206 112.973L30.2692 115.676H29.1881V112.162L28.3773 115.405L27.5665 115.135L27.8368 112.973L28.1071 111.351L26.7557 111.622L27.026 112.432V114.865L25.9449 114.324L25.4043 111.351H24.8638L24.053 113.243L23.2422 112.973L23.5125 111.622L25.4043 107.297Z" fill="#3D4093"/>
<path d="M16.4884 98.9189L17.8397 100.27L18.6505 102.162H19.4614L19.1911 103.243L18.3803 104.595L19.1911 105.405L20.0019 105.676L20.5424 104.595L21.3533 104.054L21.8938 104.865L18.11 109.459L17.5695 109.189L17.8397 108.108L18.6505 107.027L18.11 105.946L17.2992 105.405L16.7587 106.487L16.2181 107.297L15.137 107.027L15.6776 105.946L17.2992 103.784H15.6776L14.5965 102.703L13.5154 103.243L12.7046 103.784L12.1641 102.973L14.056 101.081L16.2181 99.1892L16.4884 98.9189Z" fill="#3E4295"/>
<path d="M52.7013 109.189H53.7824L54.0527 110L52.9716 110.54L53.5121 113.513L53.7824 115.675L52.9716 115.946L51.6202 111.081H50.2689L50.5392 113.243V116.216L49.4581 117.027L47.5662 116.757L46.7554 115.405L46.2148 112.162V110.811H47.2959L48.1067 115.405L49.1878 115.675L49.4581 115.405L49.1878 110.27L52.7013 109.189Z" fill="#3D4093"/>
<path d="M35.1356 110.541L36.2166 110.811L37.2977 116.757V117.297H36.2166L35.9464 115.676H34.0545L33.5139 116.757H32.7031L32.9734 115.135L34.8653 110.811L35.1356 110.541Z" fill="#464F9C"/>
<path d="M22.9728 105.676L24.0538 105.946L23.7836 108.108L22.7025 112.433L21.6214 112.162L21.8917 110.541L20.2701 109.73L19.7295 110.27L18.6484 110L18.9187 109.189L21.8917 106.757L22.9728 105.676Z" fill="#47509D"/>
<path d="M60.8101 105.405L61.8912 105.946L64.5939 108.378L65.6749 109.73L64.8641 110.27L64.0533 109.459L62.4317 110.27V111.892L61.6209 112.162L60.5398 107.838L60.2695 105.676L60.8101 105.405Z" fill="#3D4095"/>
<path d="M8.10938 102.973H8.64992L9.731 104.865L13.5148 108.919L17.2986 111.892L20.8121 114.054L25.1364 116.216L30.8121 118.108L36.4878 119.189L38.9202 119.46V120L34.0553 119.46L28.3796 118.108L23.5148 116.216L18.1094 113.243L14.8661 110.811L12.1634 108.379L10.0013 106.216L8.10938 103.784V102.973Z" fill="#49579E"/>
<path d="M66.7569 99.7295L68.6488 99.9998L68.1082 101.081L66.7569 101.351V102.162L68.3785 101.621L69.7298 101.351L71.0812 102.432V104.324L69.7298 105.675L68.1082 105.405V104.324H69.4596L70.0001 103.784V102.973L66.7569 103.513L65.6758 102.702V100.811L66.7569 99.7295Z" fill="#3D4093"/>
<path d="M42.4336 111.081H45.9471L45.6768 112.162H43.2444L43.5147 113.243L45.6768 113.513V114.595H43.5147V116.486L46.2174 116.216V117.297L42.7039 117.568L42.4336 115.405V111.081Z" fill="#3D4093"/>
<path d="M18.6502 102.162H19.461L19.1908 103.243L18.38 104.595L19.1908 105.405L20.0016 105.676L20.5421 104.595L21.3529 104.054L21.8935 104.865L18.1097 109.459L17.5692 109.189L17.8394 108.108L18.6502 107.027L18.1097 105.946L17.2989 105.405L16.7583 106.486L16.2178 107.297L15.1367 107.027L15.6773 105.946L18.1097 102.973L18.6502 102.162Z" fill="#3D4094"/>
<path d="M57.0264 107.297H58.648L59.4588 107.838L58.9183 108.919L57.2967 108.649L57.0264 110.27L58.1075 112.162L58.9183 112.432L59.4588 112.162L59.7291 110.811L60.8102 111.081L60.5399 112.703L59.7291 113.514L58.648 113.784L57.0264 112.973L55.9453 110.811V108.378L57.0264 107.297Z" fill="#3D4093"/>
<path d="M39.1873 111.081H40.8089L41.89 112.432V112.973L40.8089 113.243L40.5386 112.432L39.1873 112.703L38.917 113.243V115.676L39.1873 116.216L40.5386 115.946L40.8089 115.405L41.89 115.946L40.8089 117.568H38.917L37.8359 116.216V112.703L38.6467 111.351L39.1873 111.081Z" fill="#3D4094"/>
<path d="M41.3521 21.0811H41.8926L43.7845 25.4054H39.7305L41.3521 21.0811Z" fill="#8ED7F6"/>
<path d="M63.2437 103.514L64.3247 104.595L66.2166 107.297L68.3788 106.216L68.9193 107.027L66.4869 108.919L65.6761 108.649L62.7031 104.324L63.2437 103.514Z" fill="#3D4093"/>
<path d="M54.325 108.648L55.1358 108.919L56.7574 114.594L55.6763 114.865L54.0547 109.459L54.325 108.648Z" fill="#3D4092"/>
<path d="M44.3233 110.811H46.2152V113.514H43.5125L43.2422 112.162L45.6746 111.892L45.9449 111.081H44.3233V110.811Z" fill="#A2DCEC"/>
<path d="M28.1092 110.811L28.3794 111.892L27.5686 114.595H27.0281L26.7578 111.622L28.1092 111.352V110.811Z" fill="#A3DCEB"/>
<path d="M73.5133 105.135L74.0538 105.406L68.6484 110.811V110L73.5133 105.135Z" fill="#424B95"/>
<path d="M25.9468 108.648L27.0279 108.919L27.5684 109.189L27.2981 110.54L26.7576 110.811L25.4062 110L25.9468 108.648Z" fill="#A4DCEB"/>
<path d="M16.2171 100.541L17.0279 100.811L17.2981 102.162L16.7576 102.703L15.6765 102.432L15.4062 101.351L16.2171 100.541Z" fill="#A3DCEB"/>
<path d="M8.10938 102.973H8.64992L9.731 104.865L11.0823 106.487L10.8121 107.027L8.10938 103.784V102.973Z" fill="#526AAB"/>
<path d="M31.6201 112.433L31.8904 113.514L31.3499 115.946L30.5391 115.406L30.8093 114.054L31.6201 112.433Z" fill="#9BDAEF"/>
<path d="M61.3516 107.027L62.4326 107.567L62.9732 108.648L61.8921 109.189L61.3516 107.027Z" fill="#9BDAEF"/>
</svg>
