<svg width="300" height="72" viewBox="0 0 300 72" fill="none" xmlns="http://www.w3.org/2000/svg">
<path d="M177.899 21.8271H179.212L180.525 22.3195L181.346 22.9759L182.166 24.6171L182.494 26.2582L182.33 28.2276L181.674 30.3611L181.346 31.1816L182.494 31.5099L184.628 31.3458H187.09L188.403 32.0022L189.387 33.151L190.208 34.7922L190.7 37.2539V38.895L190.208 40.5361L188.895 42.8337L187.09 45.4596L185.449 47.9213L184.136 50.5471L183.972 51.0394V53.0088L184.464 54.1576L185.449 54.4858H187.09L189.059 53.6653L191.193 52.1882L193.326 50.2189L195.624 47.9213L197.101 46.116L198.906 43.9825L199.891 42.5055L201.039 39.3874L202.352 36.7615L203.993 34.1357L205.47 32.3304L206.947 30.6893L208.917 28.8841L211.214 27.407L212.856 26.5865L215.481 25.93H217.779L219.912 26.5865L220.897 27.407L221.718 28.8841L221.882 29.7046V31.1816L221.225 33.8075L220.077 36.1051L218.271 38.4027L216.302 40.372L213.512 42.5055L210.722 44.4749L206.619 47.2648L206.127 47.5931V49.2342L206.783 51.0394L207.768 52.5165L209.081 53.5012L211.214 54.1576H213.512L215.481 53.6653L216.958 53.0088L218.764 52.0241L221.554 50.0548L223.851 48.0854L225.821 46.2801L228.446 43.6543L229.595 42.3414L231.072 40.7003L232.221 39.3874L233.862 32.3304L234.519 29.8687L235.832 29.0482L237.144 28.5558H239.77L241.247 29.2123L241.411 29.5405L240.427 32.4946L239.934 34.628L241.247 32.9869L242.724 31.3458L244.694 29.7046L246.827 28.3917L249.289 27.5711H251.915L253.392 28.2276L254.541 29.3764L255.525 31.3458L255.853 32.9869V36.4333L254.869 40.7003L253.228 47.1007L252.243 50.2189L252.079 51.0394V53.5012L252.899 53.9935L254.212 53.8294L255.853 53.0088L257.495 51.6959L259.628 49.7265L261.762 47.4289L263.239 45.6237L265.208 43.162L265.864 42.0132L267.013 38.895L268.49 36.1051L270.296 33.4792L272.101 31.3458L273.742 29.7046L275.875 28.0635L278.665 26.5865L281.291 25.93H283.589L285.722 26.5865L286.707 27.407L287.527 29.0482L287.692 29.7046V31.1816L287.035 33.8075L285.886 36.1051L284.081 38.4027L282.112 40.372L279.322 42.5055L276.532 44.4749L272.429 47.2648L271.773 47.9213L272.101 49.8906L272.757 51.3677L273.742 52.6806L275.219 53.6653L277.024 54.1576H279.322L281.291 53.6653L283.917 52.3524L286.215 50.8753L288.348 49.2342L289.989 47.7572L291.302 46.6084L294.256 43.6543L295.405 42.3414L296.882 40.7003L298.031 39.3874L299.18 39.0591L300 39.8797L299.836 41.0285L298.687 42.8337L296.718 45.4596L295.077 47.2648L293.928 48.5777L290.81 51.6959L289.005 53.1729L286.543 54.9782L283.425 56.7834L280.963 57.9322L278.337 58.7528L277.352 58.9169H273.906L271.444 58.0963L269.803 57.1117L268.162 55.6346L266.849 53.8294L265.864 51.6959L265.372 50.0548L265.044 48.5777L261.105 53.1729L259.3 54.9782L257.002 56.7834L254.705 58.2605L253.064 58.9169L252.243 59.081H250.438L248.304 58.4246L246.827 57.2758L245.843 55.6346L245.514 54.65V51.86L246.335 48.5777L247.976 42.6696L248.961 38.2386L249.125 35.2845L248.797 33.8075L248.304 33.3151H246.827L244.858 34.2998L242.724 36.1051L240.755 38.4027L238.621 41.3567L237.637 42.8337L236.324 48.0854L235.175 53.0088L234.519 55.6346L233.534 56.7834L230.908 58.0963L229.103 58.5887L227.954 58.4246L227.79 58.2605L227.954 56.6193L230.252 47.9213L230.744 45.6237L228.611 48.0854L225 51.6959L222.702 53.5012L220.733 54.9782L217.943 56.6193L215.153 57.9322L212.527 58.7528L211.543 58.9169H208.26L205.963 58.2605L204.158 57.2758L202.188 55.4705L201.039 53.8294L200.055 51.6959L199.562 49.8906L199.234 48.5777L197.429 50.8753L195.131 53.337L192.998 55.4705L190.208 57.604L187.582 59.081L186.105 59.5734H182.987L181.182 58.9169L179.54 57.4399L178.556 55.9629L178.063 54.4858L177.899 53.5012V51.86L178.392 50.2189L179.705 47.4289L181.674 43.9825L183.643 40.372L184.3 38.895L184.464 37.2539L183.972 36.2692H180.689L179.048 35.941L177.899 35.6127L175.109 40.2079L173.632 42.6696L170.514 47.9213L168.873 50.5471L166.083 55.1423L164.77 57.1117L163.785 57.9322L162.801 58.0963L162.144 57.7681L161.98 57.4399V56.127L164.77 50.5471L163.95 51.2036L161.652 53.1729L158.698 55.3064L155.744 56.9476L152.79 58.2605L150 58.9169H146.554L144.092 58.0963L142.451 57.1117L140.81 55.6346L139.661 54.1576L138.512 51.6959L138.02 50.0548L137.855 48.906V45.2955L138.348 42.5055L139.497 39.2232L141.138 36.1051L142.943 33.4792L144.748 31.3458L146.554 29.5405L149.015 27.7353L151.313 26.5865L153.939 25.93H156.236L158.37 26.5865L159.354 27.407L160.175 29.0482L160.339 29.8687L160.175 32.1663L159.354 34.628L157.713 37.2539L155.744 39.3874L153.939 41.0285L150.82 43.3261L145.076 47.2648L144.42 47.9213L144.748 49.8906L145.405 51.5318L146.718 53.0088L148.359 53.8294L149.672 54.1576H151.969L153.939 53.6653L156.564 52.3524L158.862 50.8753L160.996 49.2342L162.801 47.5931L164.114 46.4443L166.575 43.9825L167.724 42.6696L169.365 40.8644L170.35 39.2232L172.976 34.1357L173.304 33.4792L172.155 32.1663L171.827 31.0175L171.991 29.2123L172.976 26.7506L174.617 24.2889L176.422 22.4836L177.243 21.9913L177.899 21.8271ZM152.462 30.197L150.82 31.0175L150 31.674V32.0022L149.508 32.1663L147.866 34.2998L146.225 37.418L144.912 41.3567L144.584 43.162L145.405 42.8337L148.031 40.8644L150.164 39.2232L152.133 37.418L153.61 35.4486L154.431 33.6434L154.595 31.8381L154.267 30.8534L153.446 30.197H152.462ZM214.004 30.197L212.363 31.0175L210.23 33.151L208.425 36.1051L207.276 38.7309L206.291 42.1773V43.162L208.096 42.0132L210.066 40.5361L211.871 39.0591L213.512 37.5821L214.825 35.941L215.974 33.6434L216.138 32.9869V31.674L215.81 30.8534L214.989 30.197H214.004ZM279.814 30.197L278.173 31.0175L276.86 32.1663L275.383 34.1357L273.906 36.7615L272.921 39.2232L272.101 42.1773L271.937 43.162L272.757 42.8337L275.219 41.0285L277.517 39.2232L279.65 37.2539L281.127 35.1204L281.783 33.6434L281.948 32.8228V31.674L281.455 30.6893L280.799 30.197H279.814Z" fill="#18614B"/>
<path d="M20.186 0L22.4836 0.328228L23.7965 0.82057L24.1248 1.1488L29.0482 0.984684L32.8228 1.31291L35.941 2.13348L37.9103 2.95405L39.7156 3.93874L41.8491 5.74399L43.3261 7.71336L44.3108 10.011L44.8031 12.3086V15.4267L44.3108 17.8884L43.4902 20.3501L41.5208 24.1248L39.8797 26.4224L38.4027 28.2276L36.9257 29.8688L34.6281 32.1664L32.3305 33.9716L31.3458 34.7922L33.3151 36.1051L34.9563 37.5821L36.5974 39.2233L37.7462 40.8644L39.0591 43.162L40.0438 46.116L40.3721 48.2495V50.2189L39.8797 53.3371L38.895 56.2911L37.2539 59.4093L35.4486 61.7069L33.6434 63.6762L31.8381 65.1533L29.7046 66.6303L26.7506 68.2714L23.3042 69.5844L20.5143 70.4049L17.0679 71.0614L13.2932 71.3896H10.6674L7.71336 71.0614L4.26696 70.2408L1.64114 69.2561L0.492342 68.2714L0 66.7944V64.9892L1.80525 58.2605L5.08753 46.6084L8.2057 35.4486L15.2626 10.3392L13.7856 11.3239L11.9803 12.965L10.6674 13.9497L10.3392 14.1138H9.02627L8.2057 13.6215L7.54925 12.3086L7.38513 11.488V8.86216L7.87747 7.54925L9.3545 6.56456L13.2932 4.59519L17.232 2.95405L18.2167 1.1488L19.2013 0.328228L20.186 0ZM27.7353 4.92342L24.6171 5.41576L23.1401 5.9081L20.5143 14.442L17.232 25.6018L15.5908 31.674L14.9344 34.7922L17.232 33.4793L19.8578 32.6587L20.8425 32.4946H23.4683L26.0941 32.6587L27.8994 31.1817L29.5405 29.7046L31.5099 27.407L33.151 24.9453L34.6281 22.3195L35.941 19.0372L36.5974 16.5755L36.7615 15.7549V11.3239L36.2692 9.3545L35.2845 7.71336L33.9716 6.40045L32.1664 5.41576L29.7046 4.92342H27.7353ZM14.2779 37.0898L13.4574 40.0438L10.9956 50.7112L8.53393 62.3633L7.87747 65.4815V66.3021L8.69804 66.7944L11.8162 67.2868L14.6061 67.1226L18.0525 66.3021L20.6784 65.1533L23.3042 63.6762L25.6018 61.871L27.7353 59.7375L29.5405 57.2758L31.3458 53.8294L32.3305 50.5471L32.6587 48.5778V44.9672L32.0022 42.6696L30.8534 40.5362L29.5405 38.895L28.0635 37.5821L27.5712 37.2539L26.5865 37.418L23.4683 38.895L20.186 40.0438L19.0372 40.3721H17.7243L16.0832 39.7156L14.9344 38.4027L14.442 37.0898H14.2779Z" fill="#18614B"/>
<path d="M124.399 0.65625H129.651L132.441 1.31271L134.574 2.4615L136.215 3.93853L137.364 5.74379L138.185 7.38493L138.677 9.35429V14.2777L138.021 17.3959L137.036 20.0217L136.215 21.3346L135.395 21.9911L134.082 22.6475L131.62 23.304H128.994L128.338 22.9758L128.502 22.1552L130.471 18.0523L131.456 15.2624L131.948 12.9648L132.112 10.6672L131.784 8.2055L131.128 6.56436L129.979 5.08733L128.502 4.59499H127.025L124.235 5.25144L121.445 6.56436L118.983 8.2055L116.85 10.1749L115.209 12.1442L114.06 14.4418L113.568 16.7394V18.5447L114.06 20.8423L115.045 23.304L116.686 26.258L118.655 28.3915L120.296 30.0327L121.445 31.3456L123.414 33.6432L125.384 36.5972L127.025 40.0436L127.845 42.9977L128.174 44.967V50.711L127.517 54.4857L126.697 57.6038L125.712 60.2296L124.071 63.3478L122.594 65.4813L120.789 67.4507L119.312 68.7636L117.506 69.9124L115.045 70.8971L112.419 71.5535L111.106 71.7176H107.988L105.362 71.0612L103.064 69.9124L101.423 68.4353L100.11 66.7942L98.6332 64.0043L97.8126 61.5426L97.4844 59.9014V56.455L97.9767 54.6498L99.6179 53.1727L101.915 51.8598L104.377 51.2034H107.167L107.495 51.3675L107.167 52.0239L106.018 53.9933L105.69 54.8139L105.526 55.7986V58.7526L106.018 61.2143L107.003 63.5119L108.316 65.1531L109.957 66.1378L110.613 66.3019H113.403L115.209 65.6454L116.522 64.6607H116.85V64.3325L117.67 63.5119L118.983 61.8708L120.624 58.9167L121.773 56.1268L122.266 53.501V51.0393L121.773 47.9211L120.953 45.2953L119.64 42.3412L118.163 39.8795L116.522 37.746L114.388 35.2843L112.911 33.6432L111.106 31.3456L109.465 28.8839L107.988 26.258L107.167 24.1246L106.511 21.1705L106.347 18.5447L106.675 15.7547L107.495 13.1289L109.136 10.0108L110.613 8.04138L112.419 6.07201L114.224 4.59499L116.686 2.95385L119.476 1.64093L122.101 0.984478L124.399 0.65625Z" fill="#18614B"/>
<path d="M81.893 26.9146H83.8624L86.4882 27.7351L88.2935 28.7198L90.0987 30.3609L91.2475 32.0021L92.2322 33.9715L92.7245 35.9408L92.8887 37.0896V39.2231L92.7245 40.8642L94.2016 40.3719L97.4839 38.7308L100.766 36.7614L103.064 35.1203L104.705 33.8073L106.018 32.6585L107.167 32.4944L107.495 32.8227V34.1356L106.838 35.2844L105.033 37.0896L103.228 38.5666L100.438 40.7001L97.9762 42.3413L95.5145 43.8183L92.7245 45.1312L91.904 45.2953L91.5757 46.7724L90.5911 49.3982L89.114 52.1881L87.637 54.1575L85.6676 56.1269L83.8624 57.2756L82.0571 58.0962L80.2519 58.5886L77.7902 58.7527L75.3285 58.4244L73.8514 57.768L72.5385 56.7833L71.2256 55.3063L70.2409 53.1728L69.7486 51.3675L69.5845 50.2187V47.757L68.7639 48.5776L66.4663 51.0393L63.5122 53.9934L61.707 55.4704L59.4094 57.1115L57.7683 57.9321L57.1118 58.0962H55.4707L53.8295 57.6039L52.3525 56.7833L51.0396 55.6345L50.0549 54.1575L49.5626 53.0087L49.3984 52.1881V46.28L50.0549 40.8642L51.0396 36.1049L52.3525 31.838L53.6654 29.3763L54.6501 28.5557L57.1118 27.8992L58.0965 27.7351H60.7223L60.0659 30.3609L57.6041 37.7461L56.4553 41.3566L54.9783 46.4441L54.486 48.5776L54.3219 50.8752L54.8142 52.3522L55.6348 53.1728L56.4553 53.3369L58.0965 52.8446L60.0659 51.6958L62.6917 49.5623L64.661 47.757L67.6151 44.803L68.7639 43.4901L69.7486 42.1772L70.7333 38.7308L71.7179 36.2691L73.0309 33.8073L74.3438 32.0021L75.1643 30.5251L76.3131 29.2121L78.1184 28.0633L79.7595 27.4069L81.893 26.9146ZM83.6983 31.0174L81.893 31.6739L80.5801 32.6585L79.2672 33.9715L79.1031 34.6279V37.2537L79.4313 39.059L80.2519 40.7001L81.7289 42.013L83.8624 42.6695H86.8164L87.3088 41.5207L87.637 39.8796V36.2691L87.1447 33.9715L85.9959 31.6739L85.0112 31.0174H83.6983ZM75.4926 41.3566L74.672 44.803L74.5079 46.28V48.2494L74.8361 50.8752L75.4926 52.5163L76.3131 53.6651L77.6261 54.3216H79.2672L80.7442 53.8293L82.5495 52.5163L84.0265 50.7111L85.3394 48.2494L85.6676 47.1006H83.0418L81.2366 46.7724L79.7595 46.1159L77.9543 44.803L76.4773 42.8336L75.6567 41.3566H75.4926Z" fill="#18614B"/>
<path d="M61.5443 8.20557H62.8572L63.6777 8.86202L64.3342 10.339L64.4983 11.1596V12.4725L64.006 14.1137L63.0213 15.4266L61.7084 16.4113L60.3955 16.9036L59.2467 16.7395L57.9337 15.5907L57.4414 14.7701V12.4725L58.262 10.8314L59.5749 9.35436L61.216 8.36968L61.5443 8.20557Z" fill="#18614B"/>
</svg>
